%TF.GenerationSoftware,KiCad,Pcbnew,8.0.4-unknown-202407232306~396e531e7c~ubuntu22.04.1*%
%TF.CreationDate,2024-09-04T14:24:04+01:00*%
%TF.ProjectId,MONO_CTRL,4d4f4e4f-5f43-4545-924c-2e6b69636164,1.0*%
%TF.SameCoordinates,Original*%
%TF.FileFunction,Paste,Top*%
%TF.FilePolarity,Positive*%
%FSLAX46Y46*%
G04 Gerber Fmt 4.6, Leading zero omitted, Abs format (unit mm)*
G04 Created by KiCad (PCBNEW 8.0.4-unknown-202407232306~396e531e7c~ubuntu22.04.1) date 2024-09-04 14:24:04*
%MOMM*%
%LPD*%
G01*
G04 APERTURE LIST*
G04 Aperture macros list*
%AMRoundRect*
0 Rectangle with rounded corners*
0 $1 Rounding radius*
0 $2 $3 $4 $5 $6 $7 $8 $9 X,Y pos of 4 corners*
0 Add a 4 corners polygon primitive as box body*
4,1,4,$2,$3,$4,$5,$6,$7,$8,$9,$2,$3,0*
0 Add four circle primitives for the rounded corners*
1,1,$1+$1,$2,$3*
1,1,$1+$1,$4,$5*
1,1,$1+$1,$6,$7*
1,1,$1+$1,$8,$9*
0 Add four rect primitives between the rounded corners*
20,1,$1+$1,$2,$3,$4,$5,0*
20,1,$1+$1,$4,$5,$6,$7,0*
20,1,$1+$1,$6,$7,$8,$9,0*
20,1,$1+$1,$8,$9,$2,$3,0*%
%AMRotRect*
0 Rectangle, with rotation*
0 The origin of the aperture is its center*
0 $1 length*
0 $2 width*
0 $3 Rotation angle, in degrees counterclockwise*
0 Add horizontal line*
21,1,$1,$2,0,0,$3*%
%AMFreePoly0*
4,1,5,0.110000,-0.125000,-0.110000,-0.125000,-0.110000,0.125000,0.360000,0.125000,0.110000,-0.125000,0.110000,-0.125000,$1*%
%AMFreePoly1*
4,1,6,0.290000,-0.055000,0.290000,-0.125000,-0.110000,-0.125000,-0.110000,0.125000,0.110000,0.125000,0.290000,-0.055000,0.290000,-0.055000,$1*%
%AMFreePoly2*
4,1,7,0.110000,-0.125000,-0.110000,-0.125000,-0.290000,-0.125000,-0.290000,-0.055000,-0.110000,0.125000,0.110000,0.125000,0.110000,-0.125000,0.110000,-0.125000,$1*%
%AMFreePoly3*
4,1,6,0.110000,-0.125000,-0.110000,-0.125000,-0.290000,0.055000,-0.290000,0.125000,0.110000,0.125000,0.110000,-0.125000,0.110000,-0.125000,$1*%
G04 Aperture macros list end*
%ADD10C,0.010000*%
%ADD11RoundRect,0.135000X-0.135000X-0.185000X0.135000X-0.185000X0.135000X0.185000X-0.135000X0.185000X0*%
%ADD12RoundRect,0.008100X0.126900X-0.396900X0.126900X0.396900X-0.126900X0.396900X-0.126900X-0.396900X0*%
%ADD13RoundRect,0.027000X0.378000X-0.108000X0.378000X0.108000X-0.378000X0.108000X-0.378000X-0.108000X0*%
%ADD14RoundRect,0.140000X-0.170000X0.140000X-0.170000X-0.140000X0.170000X-0.140000X0.170000X0.140000X0*%
%ADD15RoundRect,0.150000X0.150000X-0.512500X0.150000X0.512500X-0.150000X0.512500X-0.150000X-0.512500X0*%
%ADD16RoundRect,0.140000X0.140000X0.170000X-0.140000X0.170000X-0.140000X-0.170000X0.140000X-0.170000X0*%
%ADD17RoundRect,0.147500X-0.147500X-0.172500X0.147500X-0.172500X0.147500X0.172500X-0.147500X0.172500X0*%
%ADD18RoundRect,0.135000X0.135000X0.185000X-0.135000X0.185000X-0.135000X-0.185000X0.135000X-0.185000X0*%
%ADD19RoundRect,0.140000X0.170000X-0.140000X0.170000X0.140000X-0.170000X0.140000X-0.170000X-0.140000X0*%
%ADD20RoundRect,0.135000X0.185000X-0.135000X0.185000X0.135000X-0.185000X0.135000X-0.185000X-0.135000X0*%
%ADD21FreePoly0,0.000000*%
%ADD22FreePoly1,0.000000*%
%ADD23FreePoly2,0.000000*%
%ADD24FreePoly3,0.000000*%
%ADD25RotRect,0.480000X0.480000X45.000000*%
%ADD26R,0.900000X0.800000*%
%ADD27RoundRect,0.250000X-0.325000X-0.650000X0.325000X-0.650000X0.325000X0.650000X-0.325000X0.650000X0*%
G04 APERTURE END LIST*
D10*
%TO.C,U2*%
X25865000Y-30125000D02*
X24965000Y-30125000D01*
X24965000Y-29225000D01*
X25865000Y-29225000D01*
X25865000Y-30125000D01*
G36*
X25865000Y-30125000D02*
G01*
X24965000Y-30125000D01*
X24965000Y-29225000D01*
X25865000Y-29225000D01*
X25865000Y-30125000D01*
G37*
X25865001Y-30625000D02*
X25865001Y-31525000D01*
X24965000Y-31525001D01*
X24965000Y-30624999D01*
X25865001Y-30625000D01*
G36*
X25865001Y-30625000D02*
G01*
X25865001Y-31525000D01*
X24965000Y-31525001D01*
X24965000Y-30624999D01*
X25865001Y-30625000D01*
G37*
X25865000Y-32925000D02*
X24965000Y-32925000D01*
X24965000Y-32025000D01*
X25865000Y-32025000D01*
X25865000Y-32925000D01*
G36*
X25865000Y-32925000D02*
G01*
X24965000Y-32925000D01*
X24965000Y-32025000D01*
X25865000Y-32025000D01*
X25865000Y-32925000D01*
G37*
X27265001Y-32925000D02*
X26364999Y-32925000D01*
X26365000Y-32024999D01*
X27265000Y-32024999D01*
X27265001Y-32925000D01*
G36*
X27265001Y-32925000D02*
G01*
X26364999Y-32925000D01*
X26365000Y-32024999D01*
X27265000Y-32024999D01*
X27265001Y-32925000D01*
G37*
X27265000Y-30125001D02*
X26365000Y-30125001D01*
X26364999Y-29225000D01*
X27265001Y-29225000D01*
X27265000Y-30125001D01*
G36*
X27265000Y-30125001D02*
G01*
X26365000Y-30125001D01*
X26364999Y-29225000D01*
X27265001Y-29225000D01*
X27265000Y-30125001D01*
G37*
X27265000Y-31525000D02*
X26365000Y-31525000D01*
X26365000Y-30625000D01*
X27265000Y-30625000D01*
X27265000Y-31525000D01*
G36*
X27265000Y-31525000D02*
G01*
X26365000Y-31525000D01*
X26365000Y-30625000D01*
X27265000Y-30625000D01*
X27265000Y-31525000D01*
G37*
X28665000Y-31525001D02*
X27764999Y-31525000D01*
X27764999Y-30625000D01*
X28665000Y-30624999D01*
X28665000Y-31525001D01*
G36*
X28665000Y-31525001D02*
G01*
X27764999Y-31525000D01*
X27764999Y-30625000D01*
X28665000Y-30624999D01*
X28665000Y-31525001D01*
G37*
X28665000Y-30125000D02*
X27765000Y-30125000D01*
X27765000Y-29225000D01*
X28665000Y-29225000D01*
X28665000Y-30125000D01*
G36*
X28665000Y-30125000D02*
G01*
X27765000Y-30125000D01*
X27765000Y-29225000D01*
X28665000Y-29225000D01*
X28665000Y-30125000D01*
G37*
X28665000Y-32925000D02*
X27765000Y-32925000D01*
X27765000Y-32025000D01*
X28665000Y-32025000D01*
X28665000Y-32925000D01*
G36*
X28665000Y-32925000D02*
G01*
X27765000Y-32925000D01*
X27765000Y-32025000D01*
X28665000Y-32025000D01*
X28665000Y-32925000D01*
G37*
%TD*%
D11*
%TO.C,R2*%
X32200001Y-28460000D03*
X33219999Y-28460000D03*
%TD*%
D12*
%TO.C,U2*%
X25065001Y-33525000D03*
X25565000Y-33525000D03*
X26065000Y-33525001D03*
X26565000Y-33525000D03*
X27065000Y-33525000D03*
X27565000Y-33525001D03*
X28065000Y-33525000D03*
X28564999Y-33525000D03*
D13*
X29265000Y-32824999D03*
X29265000Y-32325000D03*
X29265001Y-31825000D03*
X29265000Y-31325000D03*
X29265000Y-30825000D03*
X29265001Y-30325000D03*
X29265000Y-29825000D03*
X29265000Y-29325001D03*
D12*
X28564999Y-28625000D03*
X28065000Y-28625000D03*
X27565000Y-28624999D03*
X27065000Y-28625000D03*
X26565000Y-28625000D03*
X26065000Y-28624999D03*
X25565000Y-28625000D03*
X25065001Y-28625000D03*
D13*
X24365000Y-29325001D03*
X24365000Y-29825000D03*
X24364999Y-30325000D03*
X24365000Y-30825000D03*
X24365000Y-31325000D03*
X24364999Y-31825000D03*
X24365000Y-32325000D03*
X24365000Y-32824999D03*
%TD*%
D14*
%TO.C,C10*%
X31210000Y-28680000D03*
X31210000Y-29640000D03*
%TD*%
D15*
%TO.C,U1*%
X34465001Y-31456250D03*
X35415000Y-31456250D03*
X36364999Y-31456250D03*
X36364999Y-29181250D03*
X34465001Y-29181250D03*
%TD*%
D16*
%TO.C,C1*%
X24020000Y-23870000D03*
X23060000Y-23870000D03*
%TD*%
D17*
%TO.C,L1*%
X23055000Y-24880000D03*
X24025000Y-24880000D03*
%TD*%
D16*
%TO.C,C2*%
X33190000Y-29390000D03*
X32230000Y-29390000D03*
%TD*%
D18*
%TO.C,R5*%
X28024999Y-36025000D03*
X27005001Y-36025000D03*
%TD*%
D11*
%TO.C,R6*%
X35020001Y-36460000D03*
X36039999Y-36460000D03*
%TD*%
D14*
%TO.C,C9*%
X31180000Y-30730000D03*
X31180000Y-31690000D03*
%TD*%
%TO.C,C12*%
X23070000Y-25830000D03*
X23070000Y-26790000D03*
%TD*%
D19*
%TO.C,C3*%
X23060000Y-28670000D03*
X23060000Y-27710000D03*
%TD*%
D14*
%TO.C,C7*%
X26015000Y-35045000D03*
X26015000Y-36005000D03*
%TD*%
D16*
%TO.C,C6*%
X27995000Y-35025000D03*
X27035000Y-35025000D03*
%TD*%
D18*
%TO.C,R3*%
X33819999Y-36460000D03*
X32800001Y-36460000D03*
%TD*%
D20*
%TO.C,R4*%
X29525000Y-35814999D03*
X29525000Y-34795001D03*
%TD*%
D19*
%TO.C,C4*%
X23180000Y-31720000D03*
X23180000Y-30760000D03*
%TD*%
D21*
%TO.C,U3*%
X32175000Y-31245000D03*
D22*
X32175000Y-31895000D03*
D23*
X33255000Y-31895000D03*
D24*
X33255000Y-31245000D03*
D25*
X32715000Y-31570000D03*
%TD*%
D26*
%TO.C,Y1*%
X23400001Y-36075000D03*
X24800001Y-36075000D03*
X24800001Y-34975000D03*
X23400001Y-34975000D03*
%TD*%
D16*
%TO.C,C8*%
X33190000Y-30310000D03*
X32230000Y-30310000D03*
%TD*%
D14*
%TO.C,C5*%
X23215000Y-32645000D03*
X23215000Y-33605000D03*
%TD*%
D27*
%TO.C,AE1*%
X25339999Y-24625000D03*
X28290001Y-24625000D03*
%TD*%
M02*
