%TF.GenerationSoftware,KiCad,Pcbnew,8.0.4-unknown-202407232306~396e531e7c~ubuntu22.04.1*%
%TF.CreationDate,2024-09-04T14:24:04+01:00*%
%TF.ProjectId,MONO_CTRL,4d4f4e4f-5f43-4545-924c-2e6b69636164,1.0*%
%TF.SameCoordinates,Original*%
%TF.FileFunction,Copper,L2,Inr*%
%TF.FilePolarity,Positive*%
%FSLAX46Y46*%
G04 Gerber Fmt 4.6, Leading zero omitted, Abs format (unit mm)*
G04 Created by KiCad (PCBNEW 8.0.4-unknown-202407232306~396e531e7c~ubuntu22.04.1) date 2024-09-04 14:24:04*
%MOMM*%
%LPD*%
G01*
G04 APERTURE LIST*
%TA.AperFunction,ComponentPad*%
%ADD10R,1.000000X1.000000*%
%TD*%
%TA.AperFunction,ViaPad*%
%ADD11C,0.400000*%
%TD*%
%TA.AperFunction,Conductor*%
%ADD12C,0.127000*%
%TD*%
G04 APERTURE END LIST*
D10*
%TO.N,+5V*%
%TO.C,J4*%
X31585000Y-25395001D03*
%TD*%
%TO.N,/U0TX*%
%TO.C,J17*%
X36390000Y-34795000D03*
%TD*%
%TO.N,/GPIO9*%
%TO.C,J5*%
X29180001Y-27025000D03*
%TD*%
%TO.N,GND*%
%TO.C,J22*%
X31310000Y-33525000D03*
%TD*%
%TO.N,GND*%
%TO.C,J2*%
X26640001Y-27025000D03*
%TD*%
%TO.N,/GPIO9*%
%TO.C,J12*%
X35120000Y-33525000D03*
%TD*%
%TO.N,/CSB*%
%TO.C,J8*%
X32990001Y-27025000D03*
%TD*%
%TO.N,+3.3V*%
%TO.C,J1*%
X25370001Y-27025000D03*
%TD*%
%TO.N,/USB_D-*%
%TO.C,J23*%
X30315000Y-25395000D03*
%TD*%
%TO.N,/SPICS*%
%TO.C,J15*%
X33850000Y-34795000D03*
%TD*%
%TO.N,+BATT*%
%TO.C,J24*%
X36360001Y-25755000D03*
%TD*%
%TO.N,/GPIO8*%
%TO.C,J14*%
X32580000Y-33525000D03*
%TD*%
%TO.N,GND*%
%TO.C,J26*%
X31585000Y-24125000D03*
%TD*%
%TO.N,/PWM*%
%TO.C,J18*%
X31310000Y-34795000D03*
%TD*%
%TO.N,/PICO*%
%TO.C,J13*%
X33850001Y-33525000D03*
%TD*%
%TO.N,/USB_D+*%
%TO.C,J10*%
X30315000Y-24125000D03*
%TD*%
%TO.N,/GPIO8*%
%TO.C,J7*%
X31720001Y-27025000D03*
%TD*%
%TO.N,/GPIO*%
%TO.C,J21*%
X32580000Y-34795000D03*
%TD*%
%TO.N,/U0RX*%
%TO.C,J16*%
X35120000Y-34795000D03*
%TD*%
%TO.N,+3.3V*%
%TO.C,J11*%
X36390000Y-33525000D03*
%TD*%
%TO.N,GND*%
%TO.C,J25*%
X36360001Y-27025000D03*
%TD*%
%TO.N,/PICO*%
%TO.C,J6*%
X30450001Y-27025000D03*
%TD*%
%TO.N,/extRef*%
%TO.C,J9*%
X34260001Y-27025000D03*
%TD*%
D11*
%TO.N,GND*%
X36865000Y-32495000D03*
X28315000Y-29575000D03*
X36575000Y-36395000D03*
X23060000Y-23870000D03*
X25415000Y-29575000D03*
X23260000Y-34250000D03*
X28315000Y-32575000D03*
X26915000Y-31075000D03*
X25415000Y-32625000D03*
X25415000Y-31125000D03*
X35415000Y-30395000D03*
X23180000Y-30760000D03*
X26915000Y-29575000D03*
X26815000Y-32575000D03*
%TO.N,/PICO*%
X29315000Y-28775000D03*
%TO.N,/SPICS*%
X28745000Y-35675000D03*
%TO.N,+BATT*%
X30135000Y-32745000D03*
X33015000Y-32625000D03*
%TO.N,/LED_IN*%
X30490000Y-30700000D03*
%TO.N,+3.3V*%
X29815000Y-33865001D03*
X28815000Y-26095000D03*
X30315000Y-31825000D03*
%TO.N,/GPIO*%
X26515000Y-34125000D03*
%TO.N,/lna_in*%
X24515000Y-28825000D03*
X25065001Y-33525000D03*
%TO.N,Net-(U2-MTMS)*%
X29215000Y-33125000D03*
%TO.N,/USB_D-*%
X23965697Y-28797257D03*
%TO.N,/USB_D+*%
X23540000Y-29200000D03*
%TO.N,/U0RX*%
X23006419Y-29333395D03*
%TO.N,/U0TX*%
X22740000Y-30040000D03*
%TO.N,/PWM*%
X27065000Y-34085000D03*
%TD*%
D12*
%TO.N,+3.3V*%
X37043500Y-35496500D02*
X36815000Y-35725000D01*
X37043500Y-34178500D02*
X37043500Y-35496500D01*
X36390000Y-33525000D02*
X37043500Y-34178500D01*
X30933000Y-35725000D02*
X29815000Y-34607000D01*
X36815000Y-35725000D02*
X30933000Y-35725000D01*
X29815000Y-34607000D02*
X29815000Y-33865001D01*
%TO.N,/GPIO9*%
X34861500Y-26371500D02*
X35001500Y-26511500D01*
X35001500Y-26511500D02*
X35001500Y-33406500D01*
X29833501Y-26371500D02*
X34861500Y-26371500D01*
X29180001Y-27025000D02*
X29833501Y-26371500D01*
X35001500Y-33406500D02*
X35120000Y-33525000D01*
%TO.N,/GPIO8*%
X32580000Y-33525000D02*
X32580000Y-27884999D01*
X32580000Y-27884999D02*
X31720001Y-27025000D01*
%TO.N,/PWM*%
X29548499Y-33451501D02*
X30071501Y-33451501D01*
X27065000Y-34085000D02*
X28915000Y-34085000D01*
X30071501Y-33451501D02*
X30656500Y-34036500D01*
X28915000Y-34085000D02*
X29548499Y-33451501D01*
X30656500Y-34036500D02*
X30656500Y-34141500D01*
X30656500Y-34141500D02*
X31310000Y-34795000D01*
%TD*%
%TA.AperFunction,Conductor*%
%TO.N,GND*%
G36*
X30646176Y-23155185D02*
G01*
X30691931Y-23207989D01*
X30701875Y-23277147D01*
X30678403Y-23333812D01*
X30641647Y-23382910D01*
X30641646Y-23382911D01*
X30615194Y-23453834D01*
X30573322Y-23509767D01*
X30507858Y-23534184D01*
X30499012Y-23534500D01*
X29806091Y-23534500D01*
X29779687Y-23539751D01*
X29779685Y-23539752D01*
X29749752Y-23559752D01*
X29729750Y-23589688D01*
X29724500Y-23616084D01*
X29724500Y-24633908D01*
X29729751Y-24660311D01*
X29750330Y-24691111D01*
X29771206Y-24757789D01*
X29752720Y-24825169D01*
X29750330Y-24828888D01*
X29729750Y-24859689D01*
X29724500Y-24886084D01*
X29724500Y-25903908D01*
X29729751Y-25930312D01*
X29729752Y-25930314D01*
X29749752Y-25960247D01*
X29779687Y-25980248D01*
X29779689Y-25980249D01*
X29781379Y-25980585D01*
X29784727Y-25982336D01*
X29790972Y-25984923D01*
X29790740Y-25985481D01*
X29843291Y-26012969D01*
X29877867Y-26073684D01*
X29874129Y-26143453D01*
X29833264Y-26200126D01*
X29804644Y-26216764D01*
X29746269Y-26240943D01*
X29746267Y-26240945D01*
X29589028Y-26398182D01*
X29527707Y-26431666D01*
X29501349Y-26434500D01*
X29237740Y-26434500D01*
X29170701Y-26414815D01*
X29124946Y-26362011D01*
X29115002Y-26292853D01*
X29127252Y-26254211D01*
X29152500Y-26204661D01*
X29152501Y-26204656D01*
X29169869Y-26095002D01*
X29169869Y-26094997D01*
X29152501Y-25985341D01*
X29149907Y-25980250D01*
X29102095Y-25886413D01*
X29102092Y-25886410D01*
X29102090Y-25886407D01*
X29023592Y-25807909D01*
X29023588Y-25807906D01*
X29023587Y-25807905D01*
X29019743Y-25805946D01*
X28924658Y-25757498D01*
X28815002Y-25740131D01*
X28814998Y-25740131D01*
X28705341Y-25757498D01*
X28606414Y-25807904D01*
X28606407Y-25807909D01*
X28527909Y-25886407D01*
X28527904Y-25886414D01*
X28477498Y-25985341D01*
X28460131Y-26094997D01*
X28460131Y-26095002D01*
X28477498Y-26204658D01*
X28527904Y-26303585D01*
X28527909Y-26303592D01*
X28571093Y-26346776D01*
X28604578Y-26408099D01*
X28599594Y-26477791D01*
X28597976Y-26481904D01*
X28594751Y-26489690D01*
X28589501Y-26516084D01*
X28589501Y-27533908D01*
X28594752Y-27560312D01*
X28594753Y-27560314D01*
X28614753Y-27590247D01*
X28644689Y-27610249D01*
X28653408Y-27611983D01*
X28671088Y-27615500D01*
X29688913Y-27615499D01*
X29715312Y-27610249D01*
X29745248Y-27590247D01*
X29745248Y-27590246D01*
X29746111Y-27589670D01*
X29812788Y-27568793D01*
X29880168Y-27587278D01*
X29883891Y-27589670D01*
X29884753Y-27590246D01*
X29884754Y-27590247D01*
X29914690Y-27610249D01*
X29941088Y-27615500D01*
X30958913Y-27615499D01*
X30985312Y-27610249D01*
X31015248Y-27590247D01*
X31015248Y-27590246D01*
X31016111Y-27589670D01*
X31082788Y-27568793D01*
X31150168Y-27587278D01*
X31153891Y-27589670D01*
X31154753Y-27590246D01*
X31154754Y-27590247D01*
X31184690Y-27610249D01*
X31211088Y-27615500D01*
X32041349Y-27615499D01*
X32108388Y-27635183D01*
X32129030Y-27651818D01*
X32389681Y-27912469D01*
X32423166Y-27973792D01*
X32426000Y-28000150D01*
X32426000Y-32640981D01*
X32406315Y-32708020D01*
X32353511Y-32753775D01*
X32284353Y-32763719D01*
X32220797Y-32734694D01*
X32202734Y-32715293D01*
X32167187Y-32667809D01*
X32052093Y-32581649D01*
X32052086Y-32581645D01*
X31917379Y-32531403D01*
X31917372Y-32531401D01*
X31857844Y-32525000D01*
X31560000Y-32525000D01*
X31560000Y-33315382D01*
X31509554Y-33264936D01*
X31435445Y-33222149D01*
X31352787Y-33200000D01*
X31267213Y-33200000D01*
X31184555Y-33222149D01*
X31110446Y-33264936D01*
X31060000Y-33315382D01*
X31060000Y-32525000D01*
X30762155Y-32525000D01*
X30702627Y-32531401D01*
X30702616Y-32531403D01*
X30567313Y-32581868D01*
X30497622Y-32586852D01*
X30436299Y-32553366D01*
X30423660Y-32538567D01*
X30422092Y-32536409D01*
X30343592Y-32457909D01*
X30343588Y-32457906D01*
X30343587Y-32457905D01*
X30258111Y-32414353D01*
X30207315Y-32366380D01*
X30206223Y-32361972D01*
X30182228Y-32381028D01*
X30144602Y-32388372D01*
X30144639Y-32388604D01*
X30138158Y-32389630D01*
X30135594Y-32390131D01*
X30134998Y-32390131D01*
X30025341Y-32407498D01*
X29926414Y-32457904D01*
X29926407Y-32457909D01*
X29847909Y-32536407D01*
X29847904Y-32536414D01*
X29797498Y-32635341D01*
X29780131Y-32744997D01*
X29780131Y-32745002D01*
X29797498Y-32854658D01*
X29847904Y-32953585D01*
X29847909Y-32953592D01*
X29926407Y-33032090D01*
X29926410Y-33032092D01*
X29926413Y-33032095D01*
X29987100Y-33063016D01*
X30037897Y-33110990D01*
X30054692Y-33178811D01*
X30032155Y-33244946D01*
X29977440Y-33288398D01*
X29930806Y-33297501D01*
X29687733Y-33297501D01*
X29620694Y-33277816D01*
X29574939Y-33225012D01*
X29564995Y-33155854D01*
X29565260Y-33154104D01*
X29569869Y-33125003D01*
X29569869Y-33124997D01*
X29552501Y-33015341D01*
X29525689Y-32962719D01*
X29502095Y-32916413D01*
X29502092Y-32916410D01*
X29502090Y-32916407D01*
X29423592Y-32837909D01*
X29423588Y-32837906D01*
X29423587Y-32837905D01*
X29415112Y-32833587D01*
X29324658Y-32787498D01*
X29215002Y-32770131D01*
X29214998Y-32770131D01*
X29105341Y-32787498D01*
X29006414Y-32837904D01*
X29006407Y-32837909D01*
X28927909Y-32916407D01*
X28927904Y-32916414D01*
X28877498Y-33015341D01*
X28860131Y-33124997D01*
X28860131Y-33125002D01*
X28877498Y-33234658D01*
X28927904Y-33333585D01*
X28927909Y-33333592D01*
X29006407Y-33412090D01*
X29006411Y-33412093D01*
X29006413Y-33412095D01*
X29095283Y-33457376D01*
X29146078Y-33505349D01*
X29162873Y-33573170D01*
X29140336Y-33639305D01*
X29126669Y-33655541D01*
X29064172Y-33718039D01*
X28887528Y-33894682D01*
X28826208Y-33928166D01*
X28799849Y-33931000D01*
X27454936Y-33931000D01*
X27387897Y-33911315D01*
X27354620Y-33879888D01*
X27352097Y-33876416D01*
X27352096Y-33876415D01*
X27352095Y-33876413D01*
X27273587Y-33797905D01*
X27248385Y-33785064D01*
X27174658Y-33747498D01*
X27065002Y-33730131D01*
X27064998Y-33730131D01*
X26955341Y-33747498D01*
X26856414Y-33797904D01*
X26856405Y-33797910D01*
X26848780Y-33805536D01*
X26787456Y-33839019D01*
X26717764Y-33834032D01*
X26704818Y-33828342D01*
X26624661Y-33787500D01*
X26624659Y-33787499D01*
X26624656Y-33787498D01*
X26515002Y-33770131D01*
X26514998Y-33770131D01*
X26405341Y-33787498D01*
X26306414Y-33837904D01*
X26306407Y-33837909D01*
X26227909Y-33916407D01*
X26227904Y-33916414D01*
X26177498Y-34015341D01*
X26160131Y-34124997D01*
X26160131Y-34125002D01*
X26177498Y-34234658D01*
X26227904Y-34333585D01*
X26227909Y-34333592D01*
X26306407Y-34412090D01*
X26306410Y-34412092D01*
X26306413Y-34412095D01*
X26360923Y-34439869D01*
X26405341Y-34462501D01*
X26514998Y-34479869D01*
X26515000Y-34479869D01*
X26515002Y-34479869D01*
X26624658Y-34462501D01*
X26624659Y-34462500D01*
X26624661Y-34462500D01*
X26723587Y-34412095D01*
X26731213Y-34404469D01*
X26792535Y-34370982D01*
X26862227Y-34375964D01*
X26875173Y-34381653D01*
X26955339Y-34422500D01*
X26955341Y-34422500D01*
X26955343Y-34422501D01*
X27064998Y-34439869D01*
X27065000Y-34439869D01*
X27065002Y-34439869D01*
X27174658Y-34422501D01*
X27174659Y-34422500D01*
X27174661Y-34422500D01*
X27273587Y-34372095D01*
X27352095Y-34293587D01*
X27352097Y-34293582D01*
X27354620Y-34290112D01*
X27358765Y-34286915D01*
X27358995Y-34286686D01*
X27359024Y-34286715D01*
X27409950Y-34247448D01*
X27454936Y-34239000D01*
X28945632Y-34239000D01*
X28945633Y-34239000D01*
X29002234Y-34215555D01*
X29277709Y-33940079D01*
X29339029Y-33906596D01*
X29408721Y-33911580D01*
X29464655Y-33953451D01*
X29475873Y-33971468D01*
X29477499Y-33974660D01*
X29477500Y-33974662D01*
X29527905Y-34073588D01*
X29606413Y-34152096D01*
X29606415Y-34152097D01*
X29606416Y-34152098D01*
X29609888Y-34154621D01*
X29613084Y-34158766D01*
X29613314Y-34158996D01*
X29613284Y-34159025D01*
X29652552Y-34209951D01*
X29661000Y-34254937D01*
X29661000Y-34576367D01*
X29661000Y-34637633D01*
X29684445Y-34694234D01*
X30802445Y-35812234D01*
X30845766Y-35855555D01*
X30902368Y-35879000D01*
X30902370Y-35879000D01*
X36845632Y-35879000D01*
X36845633Y-35879000D01*
X36902234Y-35855555D01*
X37092819Y-35664970D01*
X37154142Y-35631485D01*
X37223834Y-35636469D01*
X37279767Y-35678341D01*
X37304184Y-35743805D01*
X37304500Y-35752651D01*
X37304500Y-36268907D01*
X37303903Y-36281061D01*
X37291488Y-36407113D01*
X37286745Y-36430955D01*
X37251752Y-36546310D01*
X37242450Y-36568767D01*
X37185629Y-36675071D01*
X37172124Y-36695283D01*
X37095652Y-36788464D01*
X37078464Y-36805652D01*
X36985283Y-36882124D01*
X36965071Y-36895629D01*
X36858767Y-36952450D01*
X36836310Y-36961752D01*
X36720955Y-36996745D01*
X36697113Y-37001488D01*
X36571062Y-37013903D01*
X36558908Y-37014500D01*
X23071092Y-37014500D01*
X23058938Y-37013903D01*
X22932886Y-37001488D01*
X22909044Y-36996745D01*
X22793689Y-36961752D01*
X22771232Y-36952450D01*
X22664928Y-36895629D01*
X22644716Y-36882124D01*
X22551535Y-36805652D01*
X22534347Y-36788464D01*
X22457875Y-36695283D01*
X22444370Y-36675071D01*
X22387549Y-36568767D01*
X22378247Y-36546310D01*
X22343254Y-36430955D01*
X22338512Y-36407119D01*
X22326097Y-36281070D01*
X22325500Y-36268916D01*
X22325500Y-35674997D01*
X28390131Y-35674997D01*
X28390131Y-35675002D01*
X28407498Y-35784658D01*
X28457904Y-35883585D01*
X28457909Y-35883592D01*
X28536407Y-35962090D01*
X28536410Y-35962092D01*
X28536413Y-35962095D01*
X28635339Y-36012500D01*
X28635341Y-36012501D01*
X28744998Y-36029869D01*
X28745000Y-36029869D01*
X28745002Y-36029869D01*
X28854658Y-36012501D01*
X28854659Y-36012500D01*
X28854661Y-36012500D01*
X28953587Y-35962095D01*
X29032095Y-35883587D01*
X29082500Y-35784661D01*
X29082500Y-35784659D01*
X29082501Y-35784658D01*
X29099869Y-35675002D01*
X29099869Y-35674997D01*
X29082501Y-35565341D01*
X29082500Y-35565339D01*
X29032095Y-35466413D01*
X29032092Y-35466410D01*
X29032090Y-35466407D01*
X28953592Y-35387909D01*
X28953588Y-35387906D01*
X28953587Y-35387905D01*
X28899305Y-35360247D01*
X28854658Y-35337498D01*
X28745002Y-35320131D01*
X28744998Y-35320131D01*
X28635341Y-35337498D01*
X28536414Y-35387904D01*
X28536407Y-35387909D01*
X28457909Y-35466407D01*
X28457904Y-35466414D01*
X28407498Y-35565341D01*
X28390131Y-35674997D01*
X22325500Y-35674997D01*
X22325500Y-33524997D01*
X24710132Y-33524997D01*
X24710132Y-33525002D01*
X24727499Y-33634658D01*
X24777905Y-33733585D01*
X24777910Y-33733592D01*
X24856408Y-33812090D01*
X24856411Y-33812092D01*
X24856414Y-33812095D01*
X24909256Y-33839019D01*
X24955342Y-33862501D01*
X25064999Y-33879869D01*
X25065001Y-33879869D01*
X25065003Y-33879869D01*
X25174659Y-33862501D01*
X25174660Y-33862500D01*
X25174662Y-33862500D01*
X25273588Y-33812095D01*
X25352096Y-33733587D01*
X25402501Y-33634661D01*
X25402501Y-33634659D01*
X25402502Y-33634658D01*
X25419870Y-33525002D01*
X25419870Y-33524997D01*
X25402502Y-33415341D01*
X25360849Y-33333592D01*
X25352096Y-33316413D01*
X25352093Y-33316410D01*
X25352091Y-33316407D01*
X25273593Y-33237909D01*
X25273589Y-33237906D01*
X25273588Y-33237905D01*
X25199195Y-33200000D01*
X25174659Y-33187498D01*
X25065003Y-33170131D01*
X25064999Y-33170131D01*
X24955342Y-33187498D01*
X24856415Y-33237904D01*
X24856408Y-33237909D01*
X24777910Y-33316407D01*
X24777905Y-33316414D01*
X24727499Y-33415341D01*
X24710132Y-33524997D01*
X22325500Y-33524997D01*
X22325500Y-31824997D01*
X29960131Y-31824997D01*
X29960131Y-31825002D01*
X29977498Y-31934658D01*
X30027904Y-32033585D01*
X30027909Y-32033592D01*
X30106407Y-32112090D01*
X30106410Y-32112092D01*
X30106413Y-32112095D01*
X30191888Y-32155646D01*
X30242685Y-32203620D01*
X30243776Y-32208027D01*
X30267772Y-32188972D01*
X30305397Y-32181627D01*
X30305361Y-32181396D01*
X30311841Y-32180369D01*
X30314406Y-32179869D01*
X30315002Y-32179869D01*
X30424658Y-32162501D01*
X30424659Y-32162500D01*
X30424661Y-32162500D01*
X30523587Y-32112095D01*
X30602095Y-32033587D01*
X30652500Y-31934661D01*
X30652500Y-31934659D01*
X30652501Y-31934658D01*
X30669869Y-31825002D01*
X30669869Y-31824997D01*
X30652501Y-31715341D01*
X30652500Y-31715339D01*
X30602095Y-31616413D01*
X30602092Y-31616410D01*
X30602090Y-31616407D01*
X30523592Y-31537909D01*
X30523588Y-31537906D01*
X30523587Y-31537905D01*
X30519743Y-31535946D01*
X30424658Y-31487498D01*
X30315002Y-31470131D01*
X30314998Y-31470131D01*
X30205341Y-31487498D01*
X30106414Y-31537904D01*
X30106407Y-31537909D01*
X30027909Y-31616407D01*
X30027904Y-31616414D01*
X29977498Y-31715341D01*
X29960131Y-31824997D01*
X22325500Y-31824997D01*
X22325500Y-30699997D01*
X30135131Y-30699997D01*
X30135131Y-30700002D01*
X30152498Y-30809658D01*
X30202904Y-30908585D01*
X30202909Y-30908592D01*
X30281407Y-30987090D01*
X30281410Y-30987092D01*
X30281413Y-30987095D01*
X30380339Y-31037500D01*
X30380341Y-31037501D01*
X30489998Y-31054869D01*
X30490000Y-31054869D01*
X30490002Y-31054869D01*
X30599658Y-31037501D01*
X30599659Y-31037500D01*
X30599661Y-31037500D01*
X30698587Y-30987095D01*
X30777095Y-30908587D01*
X30827500Y-30809661D01*
X30827500Y-30809659D01*
X30827501Y-30809658D01*
X30844869Y-30700002D01*
X30844869Y-30699997D01*
X30827501Y-30590341D01*
X30827500Y-30590339D01*
X30777095Y-30491413D01*
X30777092Y-30491410D01*
X30777090Y-30491407D01*
X30698592Y-30412909D01*
X30698588Y-30412906D01*
X30698587Y-30412905D01*
X30663189Y-30394869D01*
X30599658Y-30362498D01*
X30490002Y-30345131D01*
X30489998Y-30345131D01*
X30380341Y-30362498D01*
X30281414Y-30412904D01*
X30281407Y-30412909D01*
X30202909Y-30491407D01*
X30202904Y-30491414D01*
X30152498Y-30590341D01*
X30135131Y-30699997D01*
X22325500Y-30699997D01*
X22325500Y-30420545D01*
X22345185Y-30353506D01*
X22397989Y-30307751D01*
X22467147Y-30297807D01*
X22522317Y-30323002D01*
X22523514Y-30321356D01*
X22531410Y-30327092D01*
X22531413Y-30327095D01*
X22583248Y-30353506D01*
X22630341Y-30377501D01*
X22739998Y-30394869D01*
X22740000Y-30394869D01*
X22740002Y-30394869D01*
X22849658Y-30377501D01*
X22849659Y-30377500D01*
X22849661Y-30377500D01*
X22948587Y-30327095D01*
X23027095Y-30248587D01*
X23077500Y-30149661D01*
X23077500Y-30149659D01*
X23077501Y-30149658D01*
X23094869Y-30040002D01*
X23094869Y-30039997D01*
X23077501Y-29930343D01*
X23077500Y-29930341D01*
X23077500Y-29930339D01*
X23035474Y-29847858D01*
X23022579Y-29779193D01*
X23048855Y-29714452D01*
X23105962Y-29674195D01*
X23107643Y-29673635D01*
X23116071Y-29670896D01*
X23116080Y-29670895D01*
X23215006Y-29620490D01*
X23278964Y-29556531D01*
X23340284Y-29523047D01*
X23409976Y-29528031D01*
X23422920Y-29533720D01*
X23430339Y-29537500D01*
X23430343Y-29537500D01*
X23430344Y-29537501D01*
X23539998Y-29554869D01*
X23540000Y-29554869D01*
X23540002Y-29554869D01*
X23649658Y-29537501D01*
X23649659Y-29537500D01*
X23649661Y-29537500D01*
X23748587Y-29487095D01*
X23827095Y-29408587D01*
X23877500Y-29309661D01*
X23877500Y-29309659D01*
X23877501Y-29309658D01*
X23886731Y-29251382D01*
X23916660Y-29188248D01*
X23975971Y-29151316D01*
X23989785Y-29148310D01*
X24075358Y-29134757D01*
X24163165Y-29090017D01*
X24231831Y-29077121D01*
X24296571Y-29103397D01*
X24305929Y-29111743D01*
X24306410Y-29112092D01*
X24306413Y-29112095D01*
X24359977Y-29139387D01*
X24405341Y-29162501D01*
X24514998Y-29179869D01*
X24515000Y-29179869D01*
X24515002Y-29179869D01*
X24624658Y-29162501D01*
X24624659Y-29162500D01*
X24624661Y-29162500D01*
X24723587Y-29112095D01*
X24802095Y-29033587D01*
X24852500Y-28934661D01*
X24852500Y-28934659D01*
X24852501Y-28934658D01*
X24869869Y-28825002D01*
X24869869Y-28824997D01*
X24861950Y-28774997D01*
X28960131Y-28774997D01*
X28960131Y-28775002D01*
X28977498Y-28884658D01*
X29027904Y-28983585D01*
X29027909Y-28983592D01*
X29106407Y-29062090D01*
X29106410Y-29062092D01*
X29106413Y-29062095D01*
X29187473Y-29103397D01*
X29205341Y-29112501D01*
X29314998Y-29129869D01*
X29315000Y-29129869D01*
X29315002Y-29129869D01*
X29424658Y-29112501D01*
X29424659Y-29112500D01*
X29424661Y-29112500D01*
X29523587Y-29062095D01*
X29602095Y-28983587D01*
X29652500Y-28884661D01*
X29652500Y-28884659D01*
X29652501Y-28884658D01*
X29669869Y-28775002D01*
X29669869Y-28774997D01*
X29652501Y-28665341D01*
X29652500Y-28665339D01*
X29602095Y-28566413D01*
X29602092Y-28566410D01*
X29602090Y-28566407D01*
X29523592Y-28487909D01*
X29523588Y-28487906D01*
X29523587Y-28487905D01*
X29519743Y-28485946D01*
X29424658Y-28437498D01*
X29315002Y-28420131D01*
X29314998Y-28420131D01*
X29205341Y-28437498D01*
X29106414Y-28487904D01*
X29106407Y-28487909D01*
X29027909Y-28566407D01*
X29027904Y-28566414D01*
X28977498Y-28665341D01*
X28960131Y-28774997D01*
X24861950Y-28774997D01*
X24852501Y-28715341D01*
X24827024Y-28665339D01*
X24802095Y-28616413D01*
X24802092Y-28616410D01*
X24802090Y-28616407D01*
X24723592Y-28537909D01*
X24723588Y-28537906D01*
X24723587Y-28537905D01*
X24669136Y-28510161D01*
X24624658Y-28487498D01*
X24515002Y-28470131D01*
X24514998Y-28470131D01*
X24405342Y-28487498D01*
X24317531Y-28532239D01*
X24248861Y-28545134D01*
X24184121Y-28518856D01*
X24174767Y-28510514D01*
X24174285Y-28510163D01*
X24174284Y-28510162D01*
X24129807Y-28487500D01*
X24075355Y-28459755D01*
X23965699Y-28442388D01*
X23965695Y-28442388D01*
X23856038Y-28459755D01*
X23757111Y-28510161D01*
X23757104Y-28510166D01*
X23678606Y-28588664D01*
X23678601Y-28588671D01*
X23628196Y-28687598D01*
X23618965Y-28745876D01*
X23589035Y-28809010D01*
X23529723Y-28845940D01*
X23515890Y-28848949D01*
X23430341Y-28862498D01*
X23331414Y-28912904D01*
X23331410Y-28912906D01*
X23267455Y-28976862D01*
X23206131Y-29010346D01*
X23136440Y-29005361D01*
X23123484Y-28999667D01*
X23116078Y-28995894D01*
X23006421Y-28978526D01*
X23006417Y-28978526D01*
X22896760Y-28995893D01*
X22797833Y-29046299D01*
X22797826Y-29046304D01*
X22719328Y-29124802D01*
X22719323Y-29124809D01*
X22668917Y-29223736D01*
X22651550Y-29333392D01*
X22651550Y-29333397D01*
X22668917Y-29443053D01*
X22710943Y-29525533D01*
X22723839Y-29594202D01*
X22697562Y-29658942D01*
X22640456Y-29699199D01*
X22638783Y-29699756D01*
X22630339Y-29702499D01*
X22531414Y-29752904D01*
X22523514Y-29758644D01*
X22521409Y-29755747D01*
X22475858Y-29780621D01*
X22406166Y-29775637D01*
X22350233Y-29733765D01*
X22325816Y-29668301D01*
X22325500Y-29659455D01*
X22325500Y-26516084D01*
X24779501Y-26516084D01*
X24779501Y-27533908D01*
X24784752Y-27560312D01*
X24784753Y-27560314D01*
X24804753Y-27590247D01*
X24834689Y-27610249D01*
X24843408Y-27611983D01*
X24861088Y-27615500D01*
X25554014Y-27615499D01*
X25621052Y-27635183D01*
X25666807Y-27687987D01*
X25670195Y-27696166D01*
X25696646Y-27767086D01*
X25696650Y-27767093D01*
X25782810Y-27882187D01*
X25782813Y-27882190D01*
X25897907Y-27968350D01*
X25897914Y-27968354D01*
X26032621Y-28018596D01*
X26032628Y-28018598D01*
X26092156Y-28024999D01*
X26092173Y-28025000D01*
X26390001Y-28025000D01*
X26890001Y-28025000D01*
X27187829Y-28025000D01*
X27187845Y-28024999D01*
X27247373Y-28018598D01*
X27247380Y-28018596D01*
X27382087Y-27968354D01*
X27382094Y-27968350D01*
X27497188Y-27882190D01*
X27497191Y-27882187D01*
X27583351Y-27767093D01*
X27583355Y-27767086D01*
X27633597Y-27632379D01*
X27633599Y-27632372D01*
X27640000Y-27572844D01*
X27640001Y-27572827D01*
X27640001Y-27275000D01*
X26890001Y-27275000D01*
X26890001Y-28025000D01*
X26390001Y-28025000D01*
X26390001Y-27234618D01*
X26440447Y-27285064D01*
X26514556Y-27327851D01*
X26597214Y-27350000D01*
X26682788Y-27350000D01*
X26765446Y-27327851D01*
X26839555Y-27285064D01*
X26900065Y-27224554D01*
X26942852Y-27150445D01*
X26965001Y-27067787D01*
X26965001Y-26982213D01*
X26942852Y-26899555D01*
X26900065Y-26825446D01*
X26849619Y-26775000D01*
X26890001Y-26775000D01*
X27640001Y-26775000D01*
X27640001Y-26477172D01*
X27640000Y-26477155D01*
X27633599Y-26417627D01*
X27633597Y-26417620D01*
X27583355Y-26282913D01*
X27583351Y-26282906D01*
X27497191Y-26167812D01*
X27497188Y-26167809D01*
X27382094Y-26081649D01*
X27382087Y-26081645D01*
X27247380Y-26031403D01*
X27247373Y-26031401D01*
X27187845Y-26025000D01*
X26890001Y-26025000D01*
X26890001Y-26775000D01*
X26849619Y-26775000D01*
X26839555Y-26764936D01*
X26765446Y-26722149D01*
X26682788Y-26700000D01*
X26597214Y-26700000D01*
X26514556Y-26722149D01*
X26440447Y-26764936D01*
X26390001Y-26815382D01*
X26390001Y-26025000D01*
X26092156Y-26025000D01*
X26032628Y-26031401D01*
X26032621Y-26031403D01*
X25897914Y-26081645D01*
X25897907Y-26081649D01*
X25782813Y-26167809D01*
X25782810Y-26167812D01*
X25696650Y-26282906D01*
X25696647Y-26282911D01*
X25670195Y-26353834D01*
X25628323Y-26409767D01*
X25562859Y-26434184D01*
X25554013Y-26434500D01*
X24861092Y-26434500D01*
X24834688Y-26439751D01*
X24834686Y-26439752D01*
X24804753Y-26459752D01*
X24784751Y-26489688D01*
X24779501Y-26516084D01*
X22325500Y-26516084D01*
X22325500Y-23731960D01*
X22326280Y-23718077D01*
X22337771Y-23616088D01*
X22338716Y-23607700D01*
X22344892Y-23580643D01*
X22379266Y-23482407D01*
X22391306Y-23457404D01*
X22446681Y-23369276D01*
X22463987Y-23347575D01*
X22537575Y-23273987D01*
X22559276Y-23256681D01*
X22647404Y-23201306D01*
X22672407Y-23189266D01*
X22770643Y-23154892D01*
X22797700Y-23148716D01*
X22897907Y-23137425D01*
X22908078Y-23136280D01*
X22921961Y-23135500D01*
X30579137Y-23135500D01*
X30646176Y-23155185D01*
G37*
%TD.AperFunction*%
%TA.AperFunction,Conductor*%
G36*
X36610001Y-28025000D02*
G01*
X36907829Y-28025000D01*
X36907845Y-28024999D01*
X36967373Y-28018598D01*
X36967380Y-28018596D01*
X37102087Y-27968354D01*
X37102091Y-27968352D01*
X37106187Y-27965286D01*
X37171650Y-27940867D01*
X37239924Y-27955717D01*
X37289330Y-28005121D01*
X37304500Y-28064551D01*
X37304500Y-33922349D01*
X37284815Y-33989388D01*
X37232011Y-34035143D01*
X37162853Y-34045087D01*
X37099297Y-34016062D01*
X37092819Y-34010030D01*
X37016818Y-33934029D01*
X36983333Y-33872706D01*
X36980499Y-33846348D01*
X36980499Y-33016091D01*
X36980499Y-33016088D01*
X36975249Y-32989689D01*
X36975248Y-32989687D01*
X36975247Y-32989685D01*
X36955247Y-32959752D01*
X36925311Y-32939750D01*
X36898915Y-32934500D01*
X35881091Y-32934500D01*
X35854687Y-32939751D01*
X35854682Y-32939753D01*
X35823886Y-32960330D01*
X35757208Y-32981206D01*
X35689829Y-32962719D01*
X35686110Y-32960329D01*
X35655311Y-32939750D01*
X35628915Y-32934500D01*
X35628913Y-32934500D01*
X35279500Y-32934500D01*
X35212461Y-32914815D01*
X35166706Y-32862011D01*
X35155500Y-32810500D01*
X35155500Y-27754210D01*
X35175185Y-27687171D01*
X35227989Y-27641416D01*
X35297147Y-27631472D01*
X35360703Y-27660497D01*
X35395682Y-27710877D01*
X35416646Y-27767086D01*
X35416650Y-27767093D01*
X35502810Y-27882187D01*
X35502813Y-27882190D01*
X35617907Y-27968350D01*
X35617914Y-27968354D01*
X35752621Y-28018596D01*
X35752628Y-28018598D01*
X35812156Y-28024999D01*
X35812173Y-28025000D01*
X36110001Y-28025000D01*
X36110001Y-27234618D01*
X36160447Y-27285064D01*
X36234556Y-27327851D01*
X36317214Y-27350000D01*
X36402788Y-27350000D01*
X36485446Y-27327851D01*
X36559555Y-27285064D01*
X36610001Y-27234618D01*
X36610001Y-28025000D01*
G37*
%TD.AperFunction*%
%TA.AperFunction,Conductor*%
G36*
X36721922Y-23136280D02*
G01*
X36733674Y-23137604D01*
X36832297Y-23148716D01*
X36859358Y-23154892D01*
X36957588Y-23189265D01*
X36982598Y-23201308D01*
X37070719Y-23256678D01*
X37092428Y-23273991D01*
X37166008Y-23347571D01*
X37183321Y-23369280D01*
X37238689Y-23457398D01*
X37250736Y-23482415D01*
X37285105Y-23580635D01*
X37291284Y-23607706D01*
X37303720Y-23718077D01*
X37304500Y-23731961D01*
X37304500Y-25985448D01*
X37284815Y-26052487D01*
X37232011Y-26098242D01*
X37162853Y-26108186D01*
X37106192Y-26084717D01*
X37102092Y-26081648D01*
X37102087Y-26081645D01*
X37031167Y-26055194D01*
X36975233Y-26013323D01*
X36950816Y-25947859D01*
X36950500Y-25939031D01*
X36950500Y-25246088D01*
X36945250Y-25219689D01*
X36945249Y-25219687D01*
X36945248Y-25219685D01*
X36925248Y-25189752D01*
X36895312Y-25169750D01*
X36868916Y-25164500D01*
X35851092Y-25164500D01*
X35824688Y-25169751D01*
X35824686Y-25169752D01*
X35794753Y-25189752D01*
X35774751Y-25219688D01*
X35769501Y-25246084D01*
X35769501Y-25939012D01*
X35749816Y-26006051D01*
X35697012Y-26051806D01*
X35688835Y-26055194D01*
X35617912Y-26081646D01*
X35617907Y-26081649D01*
X35502813Y-26167809D01*
X35502810Y-26167812D01*
X35416650Y-26282906D01*
X35416646Y-26282913D01*
X35364200Y-26423529D01*
X35322329Y-26479463D01*
X35256864Y-26503880D01*
X35188591Y-26489028D01*
X35139186Y-26439623D01*
X35133457Y-26427650D01*
X35132055Y-26424266D01*
X34948735Y-26240946D01*
X34948734Y-26240945D01*
X34892133Y-26217500D01*
X34892132Y-26217500D01*
X32170930Y-26217500D01*
X32103891Y-26197815D01*
X32058136Y-26145011D01*
X32048192Y-26075853D01*
X32077217Y-26012297D01*
X32110836Y-25988054D01*
X32110156Y-25987036D01*
X32150247Y-25960248D01*
X32170249Y-25930312D01*
X32170249Y-25930311D01*
X32175500Y-25903914D01*
X32175499Y-25210985D01*
X32195183Y-25143948D01*
X32247987Y-25098193D01*
X32256167Y-25094805D01*
X32327084Y-25068355D01*
X32327093Y-25068350D01*
X32442187Y-24982190D01*
X32442190Y-24982187D01*
X32528350Y-24867093D01*
X32528354Y-24867086D01*
X32578596Y-24732379D01*
X32578598Y-24732372D01*
X32584999Y-24672844D01*
X32585000Y-24672827D01*
X32585000Y-24375000D01*
X31794618Y-24375000D01*
X31845064Y-24324554D01*
X31887851Y-24250445D01*
X31910000Y-24167787D01*
X31910000Y-24082213D01*
X31887851Y-23999555D01*
X31845064Y-23925446D01*
X31794618Y-23875000D01*
X32585000Y-23875000D01*
X32585000Y-23577172D01*
X32584999Y-23577155D01*
X32578598Y-23517627D01*
X32578596Y-23517620D01*
X32528354Y-23382913D01*
X32528352Y-23382910D01*
X32491597Y-23333812D01*
X32467179Y-23268348D01*
X32482030Y-23200075D01*
X32531435Y-23150669D01*
X32590863Y-23135500D01*
X36708039Y-23135500D01*
X36721922Y-23136280D01*
G37*
%TD.AperFunction*%
%TD*%
M02*
