<?xml version="1.0" standalone="no"?>
 <!DOCTYPE svg PUBLIC "-//W3C//DTD SVG 1.1//EN" 
 "http://www.w3.org/Graphics/SVG/1.1/DTD/svg11.dtd"> 
<svg
  xmlns:svg="http://www.w3.org/2000/svg"
  xmlns="http://www.w3.org/2000/svg"
  xmlns:xlink="http://www.w3.org/1999/xlink"
  version="1.1"
  width="40.4368mm" height="20.3454mm" viewBox="0.0000 0.0000 40.4368 20.3454">
<title>SVG Image created as DRY_ELEC_6CH_MID-Back.svg date 2026/01/03 13:14:30 </title>
  <desc>Image generated by PCBNEW </desc>
<g style="fill:#000000; fill-opacity:1.0000;stroke:#000000; stroke-opacity:1.0000;
stroke-linecap:round; stroke-linejoin:round;"
 transform="translate(0 0) scale(1 1)">
</g>
<g style="fill:none; 
stroke:#000000; stroke-width:0.1500; stroke-opacity:1; 
stroke-linecap:round; stroke-linejoin:round;">
<path d="M-16.3854 -31.6574
L19.6146 -31.6574
L19.6146 -11.1574
L-16.3854 -11.1574
L-16.3854 -31.6574
" />
</g>
<g style="fill:none; 
stroke:#000000; stroke-width:0.1500; stroke-opacity:1; 
stroke-linecap:round; stroke-linejoin:round;">
<path d="M1.1560 -9.5017
L21.6036 -9.5017
L21.6036 -9.1552
L1.1560 -9.1552
L1.1560 -9.5017
" />
</g>
<g style="fill:none; 
stroke:#000000; stroke-width:0.1500; stroke-opacity:1; 
stroke-linecap:round; stroke-linejoin:round;">
<path d="M51.1560 -7.5017
L51.1560 -9.5017
" />
</g>
<g style="fill:none; 
stroke:#000000; stroke-width:0.1500; stroke-opacity:1; 
stroke-linecap:round; stroke-linejoin:round;">
<text x="26.1560" y="-7.8518"
textLength="1.4281" font-size="1.7333" lengthAdjust="spacingAndGlyphs"
text-anchor="start" opacity="0" stroke-opacity="0">1</text>
<g class="stroked-text"><desc>1</desc>
<path d="M27.2451 -7.9081
L26.5023 -7.9081
" />
<path d="M26.8737 -7.9081
L26.8737 -9.2081
" />
<path d="M26.8737 -9.2081
L26.7499 -9.0224
" />
<path d="M26.7499 -9.0224
L26.6261 -8.8986
" />
<path d="M26.6261 -8.8986
L26.5023 -8.8367
" />
</g></g>
<g style="fill:none; 
stroke:#000000; stroke-width:0.1500; stroke-opacity:1; 
stroke-linecap:round; stroke-linejoin:round;">
<path d="M51.1560 -11.1552
L51.1560 -9.1552
" />
</g>
<g style="fill:none; 
stroke:#000000; stroke-width:0.1500; stroke-opacity:1; 
stroke-linecap:round; stroke-linejoin:round;">
<text x="26.1560" y="-9.5052"
textLength="1.4281" font-size="1.7333" lengthAdjust="spacingAndGlyphs"
text-anchor="start" opacity="0" stroke-opacity="0">1</text>
<g class="stroked-text"><desc>1</desc>
<path d="M27.2451 -9.5616
L26.5023 -9.5616
" />
<path d="M26.8737 -9.5616
L26.8737 -10.8616
" />
<path d="M26.8737 -10.8616
L26.7499 -10.6759
" />
<path d="M26.7499 -10.6759
L26.6261 -10.5521
" />
<path d="M26.6261 -10.5521
L26.5023 -10.4902
" />
</g></g>
<g style="fill:none; 
stroke:#000000; stroke-width:0.1500; stroke-opacity:1; 
stroke-linecap:round; stroke-linejoin:round;">
<path d="M1.1560 40.4982
L3.1560 40.4982
" />
</g>
<g style="fill:none; 
stroke:#000000; stroke-width:0.1500; stroke-opacity:1; 
stroke-linecap:round; stroke-linejoin:round;">
<text x="2.1560" y="16.1483"
textLength="1.3043" font-size="1.7333" lengthAdjust="spacingAndGlyphs"
text-anchor="middle" opacity="0" stroke-opacity="0">A</text>
<g class="stroked-text"><desc>A</desc>
<path d="M1.8464 15.7204
L2.4655 15.7204
" />
<path d="M1.7226 16.0919
L2.1560 14.7919
" />
<path d="M2.1560 14.7919
L2.5893 16.0919
" />
</g></g>
<g style="fill:none; 
stroke:#000000; stroke-width:0.1500; stroke-opacity:1; 
stroke-linecap:round; stroke-linejoin:round;">
<path d="M21.6036 40.4982
L19.6036 40.4982
" />
</g>
<g style="fill:none; 
stroke:#000000; stroke-width:0.1500; stroke-opacity:1; 
stroke-linecap:round; stroke-linejoin:round;">
<text x="20.6036" y="16.1483"
textLength="1.3043" font-size="1.7333" lengthAdjust="spacingAndGlyphs"
text-anchor="middle" opacity="0" stroke-opacity="0">A</text>
<g class="stroked-text"><desc>A</desc>
<path d="M20.2940 15.7204
L20.9131 15.7204
" />
<path d="M20.1702 16.0919
L20.6036 14.7919
" />
<path d="M20.6036 14.7919
L21.0369 16.0919
" />
</g></g>
<g style="fill:none; 
stroke:#000000; stroke-width:0.1500; stroke-opacity:1; 
stroke-linecap:round; stroke-linejoin:round;">
<text x="-15.8964" y="-11.8054"
textLength="22.1500" font-size="2.0000" lengthAdjust="spacingAndGlyphs"
text-anchor="start" opacity="0" stroke-opacity="0">Date: 2023-12-25</text>
<g class="stroked-text"><desc>Date: 2023-12-25</desc>
<path d="M-15.4406 -11.8693
L-15.4406 -13.3693
" />
<path d="M-15.4406 -13.3693
L-15.0835 -13.3693
" />
<path d="M-15.0835 -13.3693
L-14.8692 -13.2979
" />
<path d="M-14.8692 -13.2979
L-14.7263 -13.1550
" />
<path d="M-14.7263 -13.1550
L-14.6549 -13.0122
" />
<path d="M-14.6549 -13.0122
L-14.5835 -12.7265
" />
<path d="M-14.5835 -12.7265
L-14.5835 -12.5122
" />
<path d="M-14.5835 -12.5122
L-14.6549 -12.2265
" />
<path d="M-14.6549 -12.2265
L-14.7263 -12.0836
" />
<path d="M-14.7263 -12.0836
L-14.8692 -11.9407
" />
<path d="M-14.8692 -11.9407
L-15.0835 -11.8693
" />
<path d="M-15.0835 -11.8693
L-15.4406 -11.8693
" />
<path d="M-13.2977 -11.8693
L-13.2977 -12.6550
" />
<path d="M-13.2977 -12.6550
L-13.3692 -12.7979
" />
<path d="M-13.3692 -12.7979
L-13.5120 -12.8693
" />
<path d="M-13.5120 -12.8693
L-13.7977 -12.8693
" />
<path d="M-13.7977 -12.8693
L-13.9406 -12.7979
" />
<path d="M-13.2977 -11.9407
L-13.4406 -11.8693
" />
<path d="M-13.4406 -11.8693
L-13.7977 -11.8693
" />
<path d="M-13.7977 -11.8693
L-13.9406 -11.9407
" />
<path d="M-13.9406 -11.9407
L-14.0120 -12.0836
" />
<path d="M-14.0120 -12.0836
L-14.0120 -12.2265
" />
<path d="M-14.0120 -12.2265
L-13.9406 -12.3693
" />
<path d="M-13.9406 -12.3693
L-13.7977 -12.4407
" />
<path d="M-13.7977 -12.4407
L-13.4406 -12.4407
" />
<path d="M-13.4406 -12.4407
L-13.2977 -12.5122
" />
<path d="M-12.7977 -12.8693
L-12.2263 -12.8693
" />
<path d="M-12.5835 -13.3693
L-12.5835 -12.0836
" />
<path d="M-12.5835 -12.0836
L-12.5120 -11.9407
" />
<path d="M-12.5120 -11.9407
L-12.3692 -11.8693
" />
<path d="M-12.3692 -11.8693
L-12.2263 -11.8693
" />
<path d="M-11.1549 -11.9407
L-11.2977 -11.8693
" />
<path d="M-11.2977 -11.8693
L-11.5835 -11.8693
" />
<path d="M-11.5835 -11.8693
L-11.7263 -11.9407
" />
<path d="M-11.7263 -11.9407
L-11.7977 -12.0836
" />
<path d="M-11.7977 -12.0836
L-11.7977 -12.6550
" />
<path d="M-11.7977 -12.6550
L-11.7263 -12.7979
" />
<path d="M-11.7263 -12.7979
L-11.5835 -12.8693
" />
<path d="M-11.5835 -12.8693
L-11.2977 -12.8693
" />
<path d="M-11.2977 -12.8693
L-11.1549 -12.7979
" />
<path d="M-11.1549 -12.7979
L-11.0835 -12.6550
" />
<path d="M-11.0835 -12.6550
L-11.0835 -12.5122
" />
<path d="M-11.0835 -12.5122
L-11.7977 -12.3693
" />
<path d="M-10.4406 -12.0122
L-10.3692 -11.9407
" />
<path d="M-10.3692 -11.9407
L-10.4406 -11.8693
" />
<path d="M-10.4406 -11.8693
L-10.5120 -11.9407
" />
<path d="M-10.5120 -11.9407
L-10.4406 -12.0122
" />
<path d="M-10.4406 -12.0122
L-10.4406 -11.8693
" />
<path d="M-10.4406 -12.7979
L-10.3692 -12.7265
" />
<path d="M-10.3692 -12.7265
L-10.4406 -12.6550
" />
<path d="M-10.4406 -12.6550
L-10.5120 -12.7265
" />
<path d="M-10.5120 -12.7265
L-10.4406 -12.7979
" />
<path d="M-10.4406 -12.7979
L-10.4406 -12.6550
" />
<path d="M-8.6549 -13.2265
L-8.5835 -13.2979
" />
<path d="M-8.5835 -13.2979
L-8.4406 -13.3693
" />
<path d="M-8.4406 -13.3693
L-8.0835 -13.3693
" />
<path d="M-8.0835 -13.3693
L-7.9406 -13.2979
" />
<path d="M-7.9406 -13.2979
L-7.8692 -13.2265
" />
<path d="M-7.8692 -13.2265
L-7.7977 -13.0836
" />
<path d="M-7.7977 -13.0836
L-7.7977 -12.9407
" />
<path d="M-7.7977 -12.9407
L-7.8692 -12.7265
" />
<path d="M-7.8692 -12.7265
L-8.7263 -11.8693
" />
<path d="M-8.7263 -11.8693
L-7.7977 -11.8693
" />
<path d="M-6.8692 -13.3693
L-6.7263 -13.3693
" />
<path d="M-6.7263 -13.3693
L-6.5835 -13.2979
" />
<path d="M-6.5835 -13.2979
L-6.5120 -13.2265
" />
<path d="M-6.5120 -13.2265
L-6.4406 -13.0836
" />
<path d="M-6.4406 -13.0836
L-6.3692 -12.7979
" />
<path d="M-6.3692 -12.7979
L-6.3692 -12.4407
" />
<path d="M-6.3692 -12.4407
L-6.4406 -12.1550
" />
<path d="M-6.4406 -12.1550
L-6.5120 -12.0122
" />
<path d="M-6.5120 -12.0122
L-6.5835 -11.9407
" />
<path d="M-6.5835 -11.9407
L-6.7263 -11.8693
" />
<path d="M-6.7263 -11.8693
L-6.8692 -11.8693
" />
<path d="M-6.8692 -11.8693
L-7.0120 -11.9407
" />
<path d="M-7.0120 -11.9407
L-7.0835 -12.0122
" />
<path d="M-7.0835 -12.0122
L-7.1549 -12.1550
" />
<path d="M-7.1549 -12.1550
L-7.2263 -12.4407
" />
<path d="M-7.2263 -12.4407
L-7.2263 -12.7979
" />
<path d="M-7.2263 -12.7979
L-7.1549 -13.0836
" />
<path d="M-7.1549 -13.0836
L-7.0835 -13.2265
" />
<path d="M-7.0835 -13.2265
L-7.0120 -13.2979
" />
<path d="M-7.0120 -13.2979
L-6.8692 -13.3693
" />
<path d="M-5.7977 -13.2265
L-5.7263 -13.2979
" />
<path d="M-5.7263 -13.2979
L-5.5835 -13.3693
" />
<path d="M-5.5835 -13.3693
L-5.2263 -13.3693
" />
<path d="M-5.2263 -13.3693
L-5.0835 -13.2979
" />
<path d="M-5.0835 -13.2979
L-5.0120 -13.2265
" />
<path d="M-5.0120 -13.2265
L-4.9406 -13.0836
" />
<path d="M-4.9406 -13.0836
L-4.9406 -12.9407
" />
<path d="M-4.9406 -12.9407
L-5.0120 -12.7265
" />
<path d="M-5.0120 -12.7265
L-5.8692 -11.8693
" />
<path d="M-5.8692 -11.8693
L-4.9406 -11.8693
" />
<path d="M-4.4406 -13.3693
L-3.5120 -13.3693
" />
<path d="M-3.5120 -13.3693
L-4.0120 -12.7979
" />
<path d="M-4.0120 -12.7979
L-3.7977 -12.7979
" />
<path d="M-3.7977 -12.7979
L-3.6549 -12.7265
" />
<path d="M-3.6549 -12.7265
L-3.5835 -12.6550
" />
<path d="M-3.5835 -12.6550
L-3.5120 -12.5122
" />
<path d="M-3.5120 -12.5122
L-3.5120 -12.1550
" />
<path d="M-3.5120 -12.1550
L-3.5835 -12.0122
" />
<path d="M-3.5835 -12.0122
L-3.6549 -11.9407
" />
<path d="M-3.6549 -11.9407
L-3.7977 -11.8693
" />
<path d="M-3.7977 -11.8693
L-4.2263 -11.8693
" />
<path d="M-4.2263 -11.8693
L-4.3692 -11.9407
" />
<path d="M-4.3692 -11.9407
L-4.4406 -12.0122
" />
<path d="M-2.8692 -12.4407
L-1.7263 -12.4407
" />
<path d="M-0.2263 -11.8693
L-1.0835 -11.8693
" />
<path d="M-0.6549 -11.8693
L-0.6549 -13.3693
" />
<path d="M-0.6549 -13.3693
L-0.7977 -13.1550
" />
<path d="M-0.7977 -13.1550
L-0.9406 -13.0122
" />
<path d="M-0.9406 -13.0122
L-1.0835 -12.9407
" />
<path d="M0.3451 -13.2265
L0.4165 -13.2979
" />
<path d="M0.4165 -13.2979
L0.5594 -13.3693
" />
<path d="M0.5594 -13.3693
L0.9165 -13.3693
" />
<path d="M0.9165 -13.3693
L1.0594 -13.2979
" />
<path d="M1.0594 -13.2979
L1.1308 -13.2265
" />
<path d="M1.1308 -13.2265
L1.2023 -13.0836
" />
<path d="M1.2023 -13.0836
L1.2023 -12.9407
" />
<path d="M1.2023 -12.9407
L1.1308 -12.7265
" />
<path d="M1.1308 -12.7265
L0.2737 -11.8693
" />
<path d="M0.2737 -11.8693
L1.2023 -11.8693
" />
<path d="M1.8451 -12.4407
L2.9880 -12.4407
" />
<path d="M3.6308 -13.2265
L3.7023 -13.2979
" />
<path d="M3.7023 -13.2979
L3.8451 -13.3693
" />
<path d="M3.8451 -13.3693
L4.2023 -13.3693
" />
<path d="M4.2023 -13.3693
L4.3451 -13.2979
" />
<path d="M4.3451 -13.2979
L4.4165 -13.2265
" />
<path d="M4.4165 -13.2265
L4.4880 -13.0836
" />
<path d="M4.4880 -13.0836
L4.4880 -12.9407
" />
<path d="M4.4880 -12.9407
L4.4165 -12.7265
" />
<path d="M4.4165 -12.7265
L3.5594 -11.8693
" />
<path d="M3.5594 -11.8693
L4.4880 -11.8693
" />
<path d="M5.8451 -13.3693
L5.1308 -13.3693
" />
<path d="M5.1308 -13.3693
L5.0594 -12.6550
" />
<path d="M5.0594 -12.6550
L5.1308 -12.7265
" />
<path d="M5.1308 -12.7265
L5.2737 -12.7979
" />
<path d="M5.2737 -12.7979
L5.6308 -12.7979
" />
<path d="M5.6308 -12.7979
L5.7737 -12.7265
" />
<path d="M5.7737 -12.7265
L5.8451 -12.6550
" />
<path d="M5.8451 -12.6550
L5.9165 -12.5122
" />
<path d="M5.9165 -12.5122
L5.9165 -12.1550
" />
<path d="M5.9165 -12.1550
L5.8451 -12.0122
" />
<path d="M5.8451 -12.0122
L5.7737 -11.9407
" />
<path d="M5.7737 -11.9407
L5.6308 -11.8693
" />
<path d="M5.6308 -11.8693
L5.2737 -11.8693
" />
<path d="M5.2737 -11.8693
L5.1308 -11.9407
" />
<path d="M5.1308 -11.9407
L5.0594 -12.0122
" />
</g></g>
<g style="fill:none; 
stroke:#000000; stroke-width:0.1500; stroke-opacity:1; 
stroke-linecap:round; stroke-linejoin:round;">
<path d="M-16.3854 -14.6574
L19.6146 -14.6574
" />
</g>
<g style="fill:none; 
stroke:#000000; stroke-width:0.1500; stroke-opacity:1; 
stroke-linecap:round; stroke-linejoin:round;">
<path d="M-16.3854 -17.6574
L19.6146 -17.6574
" />
</g>
<g style="fill:none; 
stroke:#000000; stroke-width:0.3000; stroke-opacity:1; 
stroke-linecap:round; stroke-linejoin:round;">
<text x="9.1036" y="-15.3052"
textLength="8.8143" font-size="2.0000" lengthAdjust="spacingAndGlyphs"
text-anchor="start" opacity="0" stroke-opacity="0">Rev:1.0</text>
<g class="stroked-text"><desc>Rev:1.0</desc>
<path d="M10.5152 -15.3769
L10.0152 -16.0912
" />
<path d="M9.6581 -15.3769
L9.6581 -16.8769
" />
<path d="M9.6581 -16.8769
L10.2295 -16.8769
" />
<path d="M10.2295 -16.8769
L10.3724 -16.8055
" />
<path d="M10.3724 -16.8055
L10.4438 -16.7341
" />
<path d="M10.4438 -16.7341
L10.5152 -16.5912
" />
<path d="M10.5152 -16.5912
L10.5152 -16.3769
" />
<path d="M10.5152 -16.3769
L10.4438 -16.2341
" />
<path d="M10.4438 -16.2341
L10.3724 -16.1626
" />
<path d="M10.3724 -16.1626
L10.2295 -16.0912
" />
<path d="M10.2295 -16.0912
L9.6581 -16.0912
" />
<path d="M11.7295 -15.4483
L11.5867 -15.3769
" />
<path d="M11.5867 -15.3769
L11.3009 -15.3769
" />
<path d="M11.3009 -15.3769
L11.1581 -15.4483
" />
<path d="M11.1581 -15.4483
L11.0867 -15.5912
" />
<path d="M11.0867 -15.5912
L11.0867 -16.1626
" />
<path d="M11.0867 -16.1626
L11.1581 -16.3055
" />
<path d="M11.1581 -16.3055
L11.3009 -16.3769
" />
<path d="M11.3009 -16.3769
L11.5867 -16.3769
" />
<path d="M11.5867 -16.3769
L11.7295 -16.3055
" />
<path d="M11.7295 -16.3055
L11.8009 -16.1626
" />
<path d="M11.8009 -16.1626
L11.8009 -16.0198
" />
<path d="M11.8009 -16.0198
L11.0867 -15.8769
" />
<path d="M12.3009 -16.3769
L12.6581 -15.3769
" />
<path d="M12.6581 -15.3769
L13.0152 -16.3769
" />
<path d="M13.5867 -15.5198
L13.6581 -15.4483
" />
<path d="M13.6581 -15.4483
L13.5867 -15.3769
" />
<path d="M13.5867 -15.3769
L13.5152 -15.4483
" />
<path d="M13.5152 -15.4483
L13.5867 -15.5198
" />
<path d="M13.5867 -15.5198
L13.5867 -15.3769
" />
<path d="M13.5867 -16.3055
L13.6581 -16.2341
" />
<path d="M13.6581 -16.2341
L13.5867 -16.1626
" />
<path d="M13.5867 -16.1626
L13.5152 -16.2341
" />
<path d="M13.5152 -16.2341
L13.5867 -16.3055
" />
<path d="M13.5867 -16.3055
L13.5867 -16.1626
" />
<path d="M15.0867 -15.3769
L14.2295 -15.3769
" />
<path d="M14.6581 -15.3769
L14.6581 -16.8769
" />
<path d="M14.6581 -16.8769
L14.5152 -16.6626
" />
<path d="M14.5152 -16.6626
L14.3724 -16.5198
" />
<path d="M14.3724 -16.5198
L14.2295 -16.4483
" />
<path d="M15.7295 -15.5198
L15.8009 -15.4483
" />
<path d="M15.8009 -15.4483
L15.7295 -15.3769
" />
<path d="M15.7295 -15.3769
L15.6581 -15.4483
" />
<path d="M15.6581 -15.4483
L15.7295 -15.5198
" />
<path d="M15.7295 -15.5198
L15.7295 -15.3769
" />
<path d="M16.7295 -16.8769
L16.8724 -16.8769
" />
<path d="M16.8724 -16.8769
L17.0152 -16.8055
" />
<path d="M17.0152 -16.8055
L17.0867 -16.7341
" />
<path d="M17.0867 -16.7341
L17.1581 -16.5912
" />
<path d="M17.1581 -16.5912
L17.2295 -16.3055
" />
<path d="M17.2295 -16.3055
L17.2295 -15.9483
" />
<path d="M17.2295 -15.9483
L17.1581 -15.6626
" />
<path d="M17.1581 -15.6626
L17.0867 -15.5198
" />
<path d="M17.0867 -15.5198
L17.0152 -15.4483
" />
<path d="M17.0152 -15.4483
L16.8724 -15.3769
" />
<path d="M16.8724 -15.3769
L16.7295 -15.3769
" />
<path d="M16.7295 -15.3769
L16.5867 -15.4483
" />
<path d="M16.5867 -15.4483
L16.5152 -15.5198
" />
<path d="M16.5152 -15.5198
L16.4438 -15.6626
" />
<path d="M16.4438 -15.6626
L16.3724 -15.9483
" />
<path d="M16.3724 -15.9483
L16.3724 -16.3055
" />
<path d="M16.3724 -16.3055
L16.4438 -16.5912
" />
<path d="M16.4438 -16.5912
L16.5152 -16.7341
" />
<path d="M16.5152 -16.7341
L16.5867 -16.8055
" />
<path d="M16.5867 -16.8055
L16.7295 -16.8769
" />
</g></g>
<g style="fill:none; 
stroke:#000000; stroke-width:0.1500; stroke-opacity:1; 
stroke-linecap:round; stroke-linejoin:round;">
<text x="-15.8964" y="-15.3054"
textLength="18.6500" font-size="2.0000" lengthAdjust="spacingAndGlyphs"
text-anchor="start" opacity="0" stroke-opacity="0">Author: Aightech</text>
<g class="stroked-text"><desc>Author: Aightech</desc>
<path d="M-15.5120 -15.7979
L-14.7977 -15.7979
" />
<path d="M-15.6549 -15.3693
L-15.1549 -16.8693
" />
<path d="M-15.1549 -16.8693
L-14.6549 -15.3693
" />
<path d="M-13.5120 -16.3693
L-13.5120 -15.3693
" />
<path d="M-14.1549 -16.3693
L-14.1549 -15.5836
" />
<path d="M-14.1549 -15.5836
L-14.0835 -15.4407
" />
<path d="M-14.0835 -15.4407
L-13.9406 -15.3693
" />
<path d="M-13.9406 -15.3693
L-13.7263 -15.3693
" />
<path d="M-13.7263 -15.3693
L-13.5835 -15.4407
" />
<path d="M-13.5835 -15.4407
L-13.5120 -15.5122
" />
<path d="M-13.0120 -16.3693
L-12.4406 -16.3693
" />
<path d="M-12.7977 -16.8693
L-12.7977 -15.5836
" />
<path d="M-12.7977 -15.5836
L-12.7263 -15.4407
" />
<path d="M-12.7263 -15.4407
L-12.5835 -15.3693
" />
<path d="M-12.5835 -15.3693
L-12.4406 -15.3693
" />
<path d="M-11.9406 -15.3693
L-11.9406 -16.8693
" />
<path d="M-11.2977 -15.3693
L-11.2977 -16.1550
" />
<path d="M-11.2977 -16.1550
L-11.3692 -16.2979
" />
<path d="M-11.3692 -16.2979
L-11.5120 -16.3693
" />
<path d="M-11.5120 -16.3693
L-11.7263 -16.3693
" />
<path d="M-11.7263 -16.3693
L-11.8692 -16.2979
" />
<path d="M-11.8692 -16.2979
L-11.9406 -16.2265
" />
<path d="M-10.3692 -15.3693
L-10.5120 -15.4407
" />
<path d="M-10.5120 -15.4407
L-10.5835 -15.5122
" />
<path d="M-10.5835 -15.5122
L-10.6549 -15.6550
" />
<path d="M-10.6549 -15.6550
L-10.6549 -16.0836
" />
<path d="M-10.6549 -16.0836
L-10.5835 -16.2265
" />
<path d="M-10.5835 -16.2265
L-10.5120 -16.2979
" />
<path d="M-10.5120 -16.2979
L-10.3692 -16.3693
" />
<path d="M-10.3692 -16.3693
L-10.1549 -16.3693
" />
<path d="M-10.1549 -16.3693
L-10.0120 -16.2979
" />
<path d="M-10.0120 -16.2979
L-9.9406 -16.2265
" />
<path d="M-9.9406 -16.2265
L-9.8692 -16.0836
" />
<path d="M-9.8692 -16.0836
L-9.8692 -15.6550
" />
<path d="M-9.8692 -15.6550
L-9.9406 -15.5122
" />
<path d="M-9.9406 -15.5122
L-10.0120 -15.4407
" />
<path d="M-10.0120 -15.4407
L-10.1549 -15.3693
" />
<path d="M-10.1549 -15.3693
L-10.3692 -15.3693
" />
<path d="M-9.2263 -15.3693
L-9.2263 -16.3693
" />
<path d="M-9.2263 -16.0836
L-9.1549 -16.2265
" />
<path d="M-9.1549 -16.2265
L-9.0835 -16.2979
" />
<path d="M-9.0835 -16.2979
L-8.9406 -16.3693
" />
<path d="M-8.9406 -16.3693
L-8.7977 -16.3693
" />
<path d="M-8.2977 -15.5122
L-8.2263 -15.4407
" />
<path d="M-8.2263 -15.4407
L-8.2977 -15.3693
" />
<path d="M-8.2977 -15.3693
L-8.3692 -15.4407
" />
<path d="M-8.3692 -15.4407
L-8.2977 -15.5122
" />
<path d="M-8.2977 -15.5122
L-8.2977 -15.3693
" />
<path d="M-8.2977 -16.2979
L-8.2263 -16.2265
" />
<path d="M-8.2263 -16.2265
L-8.2977 -16.1550
" />
<path d="M-8.2977 -16.1550
L-8.3692 -16.2265
" />
<path d="M-8.3692 -16.2265
L-8.2977 -16.2979
" />
<path d="M-8.2977 -16.2979
L-8.2977 -16.1550
" />
<path d="M-6.5120 -15.7979
L-5.7977 -15.7979
" />
<path d="M-6.6549 -15.3693
L-6.1549 -16.8693
" />
<path d="M-6.1549 -16.8693
L-5.6549 -15.3693
" />
<path d="M-5.1549 -15.3693
L-5.1549 -16.3693
" />
<path d="M-5.1549 -16.8693
L-5.2263 -16.7979
" />
<path d="M-5.2263 -16.7979
L-5.1549 -16.7265
" />
<path d="M-5.1549 -16.7265
L-5.0835 -16.7979
" />
<path d="M-5.0835 -16.7979
L-5.1549 -16.8693
" />
<path d="M-5.1549 -16.8693
L-5.1549 -16.7265
" />
<path d="M-3.7977 -16.3693
L-3.7977 -15.1550
" />
<path d="M-3.7977 -15.1550
L-3.8692 -15.0122
" />
<path d="M-3.8692 -15.0122
L-3.9406 -14.9407
" />
<path d="M-3.9406 -14.9407
L-4.0835 -14.8693
" />
<path d="M-4.0835 -14.8693
L-4.2977 -14.8693
" />
<path d="M-4.2977 -14.8693
L-4.4406 -14.9407
" />
<path d="M-3.7977 -15.4407
L-3.9406 -15.3693
" />
<path d="M-3.9406 -15.3693
L-4.2263 -15.3693
" />
<path d="M-4.2263 -15.3693
L-4.3692 -15.4407
" />
<path d="M-4.3692 -15.4407
L-4.4406 -15.5122
" />
<path d="M-4.4406 -15.5122
L-4.5120 -15.6550
" />
<path d="M-4.5120 -15.6550
L-4.5120 -16.0836
" />
<path d="M-4.5120 -16.0836
L-4.4406 -16.2265
" />
<path d="M-4.4406 -16.2265
L-4.3692 -16.2979
" />
<path d="M-4.3692 -16.2979
L-4.2263 -16.3693
" />
<path d="M-4.2263 -16.3693
L-3.9406 -16.3693
" />
<path d="M-3.9406 -16.3693
L-3.7977 -16.2979
" />
<path d="M-3.0835 -15.3693
L-3.0835 -16.8693
" />
<path d="M-2.4406 -15.3693
L-2.4406 -16.1550
" />
<path d="M-2.4406 -16.1550
L-2.5120 -16.2979
" />
<path d="M-2.5120 -16.2979
L-2.6549 -16.3693
" />
<path d="M-2.6549 -16.3693
L-2.8692 -16.3693
" />
<path d="M-2.8692 -16.3693
L-3.0120 -16.2979
" />
<path d="M-3.0120 -16.2979
L-3.0835 -16.2265
" />
<path d="M-1.9406 -16.3693
L-1.3692 -16.3693
" />
<path d="M-1.7263 -16.8693
L-1.7263 -15.5836
" />
<path d="M-1.7263 -15.5836
L-1.6549 -15.4407
" />
<path d="M-1.6549 -15.4407
L-1.5120 -15.3693
" />
<path d="M-1.5120 -15.3693
L-1.3692 -15.3693
" />
<path d="M-0.2977 -15.4407
L-0.4406 -15.3693
" />
<path d="M-0.4406 -15.3693
L-0.7263 -15.3693
" />
<path d="M-0.7263 -15.3693
L-0.8692 -15.4407
" />
<path d="M-0.8692 -15.4407
L-0.9406 -15.5836
" />
<path d="M-0.9406 -15.5836
L-0.9406 -16.1550
" />
<path d="M-0.9406 -16.1550
L-0.8692 -16.2979
" />
<path d="M-0.8692 -16.2979
L-0.7263 -16.3693
" />
<path d="M-0.7263 -16.3693
L-0.4406 -16.3693
" />
<path d="M-0.4406 -16.3693
L-0.2977 -16.2979
" />
<path d="M-0.2977 -16.2979
L-0.2263 -16.1550
" />
<path d="M-0.2263 -16.1550
L-0.2263 -16.0122
" />
<path d="M-0.2263 -16.0122
L-0.9406 -15.8693
" />
<path d="M1.0594 -15.4407
L0.9165 -15.3693
" />
<path d="M0.9165 -15.3693
L0.6308 -15.3693
" />
<path d="M0.6308 -15.3693
L0.4880 -15.4407
" />
<path d="M0.4880 -15.4407
L0.4165 -15.5122
" />
<path d="M0.4165 -15.5122
L0.3451 -15.6550
" />
<path d="M0.3451 -15.6550
L0.3451 -16.0836
" />
<path d="M0.3451 -16.0836
L0.4165 -16.2265
" />
<path d="M0.4165 -16.2265
L0.4880 -16.2979
" />
<path d="M0.4880 -16.2979
L0.6308 -16.3693
" />
<path d="M0.6308 -16.3693
L0.9165 -16.3693
" />
<path d="M0.9165 -16.3693
L1.0594 -16.2979
" />
<path d="M1.7023 -15.3693
L1.7023 -16.8693
" />
<path d="M2.3451 -15.3693
L2.3451 -16.1550
" />
<path d="M2.3451 -16.1550
L2.2737 -16.2979
" />
<path d="M2.2737 -16.2979
L2.1308 -16.3693
" />
<path d="M2.1308 -16.3693
L1.9165 -16.3693
" />
<path d="M1.9165 -16.3693
L1.7737 -16.2979
" />
<path d="M1.7737 -16.2979
L1.7023 -16.2265
" />
</g></g>
<g style="fill:none; 
stroke:#000000; stroke-width:0.1500; stroke-opacity:1; 
stroke-linecap:round; stroke-linejoin:round;">
<text x="9.1036" y="-12.0054"
textLength="8.5071" font-size="2.0000" lengthAdjust="spacingAndGlyphs"
text-anchor="start" opacity="0" stroke-opacity="0">Id: 1/1</text>
<g class="stroked-text"><desc>Id: 1/1</desc>
<path d="M9.5594 -12.0693
L9.5594 -13.5693
" />
<path d="M10.9165 -12.0693
L10.9165 -13.5693
" />
<path d="M10.9165 -12.1407
L10.7737 -12.0693
" />
<path d="M10.7737 -12.0693
L10.4880 -12.0693
" />
<path d="M10.4880 -12.0693
L10.3451 -12.1407
" />
<path d="M10.3451 -12.1407
L10.2737 -12.2122
" />
<path d="M10.2737 -12.2122
L10.2023 -12.3550
" />
<path d="M10.2023 -12.3550
L10.2023 -12.7836
" />
<path d="M10.2023 -12.7836
L10.2737 -12.9265
" />
<path d="M10.2737 -12.9265
L10.3451 -12.9979
" />
<path d="M10.3451 -12.9979
L10.4880 -13.0693
" />
<path d="M10.4880 -13.0693
L10.7737 -13.0693
" />
<path d="M10.7737 -13.0693
L10.9165 -12.9979
" />
<path d="M11.6308 -12.2122
L11.7023 -12.1407
" />
<path d="M11.7023 -12.1407
L11.6308 -12.0693
" />
<path d="M11.6308 -12.0693
L11.5594 -12.1407
" />
<path d="M11.5594 -12.1407
L11.6308 -12.2122
" />
<path d="M11.6308 -12.2122
L11.6308 -12.0693
" />
<path d="M11.6308 -12.9979
L11.7023 -12.9265
" />
<path d="M11.7023 -12.9265
L11.6308 -12.8550
" />
<path d="M11.6308 -12.8550
L11.5594 -12.9265
" />
<path d="M11.5594 -12.9265
L11.6308 -12.9979
" />
<path d="M11.6308 -12.9979
L11.6308 -12.8550
" />
<path d="M14.2737 -12.0693
L13.4165 -12.0693
" />
<path d="M13.8451 -12.0693
L13.8451 -13.5693
" />
<path d="M13.8451 -13.5693
L13.7023 -13.3550
" />
<path d="M13.7023 -13.3550
L13.5594 -13.2122
" />
<path d="M13.5594 -13.2122
L13.4165 -13.1407
" />
<path d="M15.9880 -13.6407
L14.7023 -11.7122
" />
<path d="M17.2737 -12.0693
L16.4165 -12.0693
" />
<path d="M16.8451 -12.0693
L16.8451 -13.5693
" />
<path d="M16.8451 -13.5693
L16.7023 -13.3550
" />
<path d="M16.7023 -13.3550
L16.5594 -13.2122
" />
<path d="M16.5594 -13.2122
L16.4165 -13.1407
" />
</g></g>
<g style="fill:none; 
stroke:#000000; stroke-width:0.1500; stroke-opacity:1; 
stroke-linecap:round; stroke-linejoin:round;">
<path d="M-16.3854 -21.6574
L19.6146 -21.6574
" />
</g>
<g style="fill:none; 
stroke:#000000; stroke-width:0.4000; stroke-opacity:1; 
stroke-linecap:round; stroke-linejoin:round;">
<text x="-15.8964" y="-18.8554"
textLength="25.8476" font-size="2.6667" lengthAdjust="spacingAndGlyphs"
text-anchor="start" opacity="0" stroke-opacity="0">Title: ELectrodes</text>
<g class="stroked-text"><desc>Title: ELectrodes</desc>
<path d="M-15.2047 -20.9510
L-14.0618 -20.9510
" />
<path d="M-14.8833 -18.9510
L-14.6333 -20.9510
" />
<path d="M-13.6452 -18.9510
L-13.4785 -20.2843
" />
<path d="M-13.3952 -20.9510
L-13.5023 -20.8558
" />
<path d="M-13.5023 -20.8558
L-13.4190 -20.7605
" />
<path d="M-13.4190 -20.7605
L-13.3118 -20.8558
" />
<path d="M-13.3118 -20.8558
L-13.3952 -20.9510
" />
<path d="M-13.3952 -20.9510
L-13.4190 -20.7605
" />
<path d="M-12.8118 -20.2843
L-12.0499 -20.2843
" />
<path d="M-12.4428 -20.9510
L-12.6571 -19.2367
" />
<path d="M-12.6571 -19.2367
L-12.5857 -19.0462
" />
<path d="M-12.5857 -19.0462
L-12.4071 -18.9510
" />
<path d="M-12.4071 -18.9510
L-12.2166 -18.9510
" />
<path d="M-11.2642 -18.9510
L-11.4428 -19.0462
" />
<path d="M-11.4428 -19.0462
L-11.5142 -19.2367
" />
<path d="M-11.5142 -19.2367
L-11.2999 -20.9510
" />
<path d="M-9.7285 -19.0462
L-9.9309 -18.9510
" />
<path d="M-9.9309 -18.9510
L-10.3118 -18.9510
" />
<path d="M-10.3118 -18.9510
L-10.4904 -19.0462
" />
<path d="M-10.4904 -19.0462
L-10.5618 -19.2367
" />
<path d="M-10.5618 -19.2367
L-10.4666 -19.9986
" />
<path d="M-10.4666 -19.9986
L-10.3476 -20.1891
" />
<path d="M-10.3476 -20.1891
L-10.1452 -20.2843
" />
<path d="M-10.1452 -20.2843
L-9.7642 -20.2843
" />
<path d="M-9.7642 -20.2843
L-9.5857 -20.1891
" />
<path d="M-9.5857 -20.1891
L-9.5142 -19.9986
" />
<path d="M-9.5142 -19.9986
L-9.5380 -19.8082
" />
<path d="M-9.5380 -19.8082
L-10.5142 -19.6177
" />
<path d="M-8.7642 -19.1415
L-8.6809 -19.0462
" />
<path d="M-8.6809 -19.0462
L-8.7880 -18.9510
" />
<path d="M-8.7880 -18.9510
L-8.8714 -19.0462
" />
<path d="M-8.8714 -19.0462
L-8.7642 -19.1415
" />
<path d="M-8.7642 -19.1415
L-8.7880 -18.9510
" />
<path d="M-8.6333 -20.1891
L-8.5499 -20.0939
" />
<path d="M-8.5499 -20.0939
L-8.6571 -19.9986
" />
<path d="M-8.6571 -19.9986
L-8.7404 -20.0939
" />
<path d="M-8.7404 -20.0939
L-8.6333 -20.1891
" />
<path d="M-8.6333 -20.1891
L-8.6571 -19.9986
" />
<path d="M-6.1809 -19.9986
L-5.5142 -19.9986
" />
<path d="M-5.3595 -18.9510
L-6.3118 -18.9510
" />
<path d="M-6.3118 -18.9510
L-6.0618 -20.9510
" />
<path d="M-6.0618 -20.9510
L-5.1095 -20.9510
" />
<path d="M-3.5499 -18.9510
L-4.5023 -18.9510
" />
<path d="M-4.5023 -18.9510
L-4.2523 -20.9510
" />
<path d="M-2.1095 -19.0462
L-2.3118 -18.9510
" />
<path d="M-2.3118 -18.9510
L-2.6928 -18.9510
" />
<path d="M-2.6928 -18.9510
L-2.8714 -19.0462
" />
<path d="M-2.8714 -19.0462
L-2.9428 -19.2367
" />
<path d="M-2.9428 -19.2367
L-2.8476 -19.9986
" />
<path d="M-2.8476 -19.9986
L-2.7285 -20.1891
" />
<path d="M-2.7285 -20.1891
L-2.5261 -20.2843
" />
<path d="M-2.5261 -20.2843
L-2.1452 -20.2843
" />
<path d="M-2.1452 -20.2843
L-1.9666 -20.1891
" />
<path d="M-1.9666 -20.1891
L-1.8952 -19.9986
" />
<path d="M-1.8952 -19.9986
L-1.9190 -19.8082
" />
<path d="M-1.9190 -19.8082
L-2.8952 -19.6177
" />
<path d="M-0.2999 -19.0462
L-0.5023 -18.9510
" />
<path d="M-0.5023 -18.9510
L-0.8833 -18.9510
" />
<path d="M-0.8833 -18.9510
L-1.0618 -19.0462
" />
<path d="M-1.0618 -19.0462
L-1.1452 -19.1415
" />
<path d="M-1.1452 -19.1415
L-1.2166 -19.3320
" />
<path d="M-1.2166 -19.3320
L-1.1452 -19.9034
" />
<path d="M-1.1452 -19.9034
L-1.0261 -20.0939
" />
<path d="M-1.0261 -20.0939
L-0.9190 -20.1891
" />
<path d="M-0.9190 -20.1891
L-0.7166 -20.2843
" />
<path d="M-0.7166 -20.2843
L-0.3357 -20.2843
" />
<path d="M-0.3357 -20.2843
L-0.1571 -20.1891
" />
<path d="M0.4263 -20.2843
L1.1882 -20.2843
" />
<path d="M0.7953 -20.9510
L0.5810 -19.2367
" />
<path d="M0.5810 -19.2367
L0.6524 -19.0462
" />
<path d="M0.6524 -19.0462
L0.8310 -18.9510
" />
<path d="M0.8310 -18.9510
L1.0215 -18.9510
" />
<path d="M1.6882 -18.9510
L1.8548 -20.2843
" />
<path d="M1.8072 -19.9034
L1.9263 -20.0939
" />
<path d="M1.9263 -20.0939
L2.0334 -20.1891
" />
<path d="M2.0334 -20.1891
L2.2358 -20.2843
" />
<path d="M2.2358 -20.2843
L2.4263 -20.2843
" />
<path d="M3.2120 -18.9510
L3.0334 -19.0462
" />
<path d="M3.0334 -19.0462
L2.9501 -19.1415
" />
<path d="M2.9501 -19.1415
L2.8786 -19.3320
" />
<path d="M2.8786 -19.3320
L2.9501 -19.9034
" />
<path d="M2.9501 -19.9034
L3.0691 -20.0939
" />
<path d="M3.0691 -20.0939
L3.1763 -20.1891
" />
<path d="M3.1763 -20.1891
L3.3786 -20.2843
" />
<path d="M3.3786 -20.2843
L3.6643 -20.2843
" />
<path d="M3.6643 -20.2843
L3.8429 -20.1891
" />
<path d="M3.8429 -20.1891
L3.9263 -20.0939
" />
<path d="M3.9263 -20.0939
L3.9977 -19.9034
" />
<path d="M3.9977 -19.9034
L3.9263 -19.3320
" />
<path d="M3.9263 -19.3320
L3.8072 -19.1415
" />
<path d="M3.8072 -19.1415
L3.7001 -19.0462
" />
<path d="M3.7001 -19.0462
L3.4977 -18.9510
" />
<path d="M3.4977 -18.9510
L3.2120 -18.9510
" />
<path d="M5.5929 -18.9510
L5.8429 -20.9510
" />
<path d="M5.6048 -19.0462
L5.4024 -18.9510
" />
<path d="M5.4024 -18.9510
L5.0215 -18.9510
" />
<path d="M5.0215 -18.9510
L4.8429 -19.0462
" />
<path d="M4.8429 -19.0462
L4.7596 -19.1415
" />
<path d="M4.7596 -19.1415
L4.6882 -19.3320
" />
<path d="M4.6882 -19.3320
L4.7596 -19.9034
" />
<path d="M4.7596 -19.9034
L4.8786 -20.0939
" />
<path d="M4.8786 -20.0939
L4.9858 -20.1891
" />
<path d="M4.9858 -20.1891
L5.1882 -20.2843
" />
<path d="M5.1882 -20.2843
L5.5691 -20.2843
" />
<path d="M5.5691 -20.2843
L5.7477 -20.1891
" />
<path d="M7.3191 -19.0462
L7.1167 -18.9510
" />
<path d="M7.1167 -18.9510
L6.7358 -18.9510
" />
<path d="M6.7358 -18.9510
L6.5572 -19.0462
" />
<path d="M6.5572 -19.0462
L6.4858 -19.2367
" />
<path d="M6.4858 -19.2367
L6.5810 -19.9986
" />
<path d="M6.5810 -19.9986
L6.7001 -20.1891
" />
<path d="M6.7001 -20.1891
L6.9024 -20.2843
" />
<path d="M6.9024 -20.2843
L7.2834 -20.2843
" />
<path d="M7.2834 -20.2843
L7.4620 -20.1891
" />
<path d="M7.4620 -20.1891
L7.5334 -19.9986
" />
<path d="M7.5334 -19.9986
L7.5096 -19.8082
" />
<path d="M7.5096 -19.8082
L6.5334 -19.6177
" />
<path d="M8.1763 -19.0462
L8.3548 -18.9510
" />
<path d="M8.3548 -18.9510
L8.7358 -18.9510
" />
<path d="M8.7358 -18.9510
L8.9382 -19.0462
" />
<path d="M8.9382 -19.0462
L9.0572 -19.2367
" />
<path d="M9.0572 -19.2367
L9.0691 -19.3320
" />
<path d="M9.0691 -19.3320
L8.9977 -19.5224
" />
<path d="M8.9977 -19.5224
L8.8191 -19.6177
" />
<path d="M8.8191 -19.6177
L8.5334 -19.6177
" />
<path d="M8.5334 -19.6177
L8.3548 -19.7129
" />
<path d="M8.3548 -19.7129
L8.2834 -19.9034
" />
<path d="M8.2834 -19.9034
L8.2953 -19.9986
" />
<path d="M8.2953 -19.9986
L8.4143 -20.1891
" />
<path d="M8.4143 -20.1891
L8.6167 -20.2843
" />
<path d="M8.6167 -20.2843
L8.9024 -20.2843
" />
<path d="M8.9024 -20.2843
L9.0810 -20.1891
" />
</g></g>
<g style="fill:none; 
stroke:#000000; stroke-width:0.1500; stroke-opacity:1; 
stroke-linecap:round; stroke-linejoin:round;">
<text x="-15.8964" y="-26.7054"
textLength="39.4357" font-size="2.0000" lengthAdjust="spacingAndGlyphs"
text-anchor="start" opacity="0" stroke-opacity="0">File: DRY_ELEC_6CH_MID.kicad_pcb</text>
<g class="stroked-text"><desc>File: DRY_ELEC_6CH_MID.kicad_pcb</desc>
<path d="M-14.9406 -27.5550
L-15.4406 -27.5550
" />
<path d="M-15.4406 -26.7693
L-15.4406 -28.2693
" />
<path d="M-15.4406 -28.2693
L-14.7263 -28.2693
" />
<path d="M-14.1549 -26.7693
L-14.1549 -27.7693
" />
<path d="M-14.1549 -28.2693
L-14.2263 -28.1979
" />
<path d="M-14.2263 -28.1979
L-14.1549 -28.1265
" />
<path d="M-14.1549 -28.1265
L-14.0835 -28.1979
" />
<path d="M-14.0835 -28.1979
L-14.1549 -28.2693
" />
<path d="M-14.1549 -28.2693
L-14.1549 -28.1265
" />
<path d="M-13.2263 -26.7693
L-13.3692 -26.8407
" />
<path d="M-13.3692 -26.8407
L-13.4406 -26.9836
" />
<path d="M-13.4406 -26.9836
L-13.4406 -28.2693
" />
<path d="M-12.0835 -26.8407
L-12.2263 -26.7693
" />
<path d="M-12.2263 -26.7693
L-12.5120 -26.7693
" />
<path d="M-12.5120 -26.7693
L-12.6549 -26.8407
" />
<path d="M-12.6549 -26.8407
L-12.7263 -26.9836
" />
<path d="M-12.7263 -26.9836
L-12.7263 -27.5550
" />
<path d="M-12.7263 -27.5550
L-12.6549 -27.6979
" />
<path d="M-12.6549 -27.6979
L-12.5120 -27.7693
" />
<path d="M-12.5120 -27.7693
L-12.2263 -27.7693
" />
<path d="M-12.2263 -27.7693
L-12.0835 -27.6979
" />
<path d="M-12.0835 -27.6979
L-12.0120 -27.5550
" />
<path d="M-12.0120 -27.5550
L-12.0120 -27.4122
" />
<path d="M-12.0120 -27.4122
L-12.7263 -27.2693
" />
<path d="M-11.3692 -26.9122
L-11.2977 -26.8407
" />
<path d="M-11.2977 -26.8407
L-11.3692 -26.7693
" />
<path d="M-11.3692 -26.7693
L-11.4406 -26.8407
" />
<path d="M-11.4406 -26.8407
L-11.3692 -26.9122
" />
<path d="M-11.3692 -26.9122
L-11.3692 -26.7693
" />
<path d="M-11.3692 -27.6979
L-11.2977 -27.6265
" />
<path d="M-11.2977 -27.6265
L-11.3692 -27.5550
" />
<path d="M-11.3692 -27.5550
L-11.4406 -27.6265
" />
<path d="M-11.4406 -27.6265
L-11.3692 -27.6979
" />
<path d="M-11.3692 -27.6979
L-11.3692 -27.5550
" />
<path d="M-9.5120 -26.7693
L-9.5120 -28.2693
" />
<path d="M-9.5120 -28.2693
L-9.1549 -28.2693
" />
<path d="M-9.1549 -28.2693
L-8.9406 -28.1979
" />
<path d="M-8.9406 -28.1979
L-8.7977 -28.0550
" />
<path d="M-8.7977 -28.0550
L-8.7263 -27.9122
" />
<path d="M-8.7263 -27.9122
L-8.6549 -27.6265
" />
<path d="M-8.6549 -27.6265
L-8.6549 -27.4122
" />
<path d="M-8.6549 -27.4122
L-8.7263 -27.1265
" />
<path d="M-8.7263 -27.1265
L-8.7977 -26.9836
" />
<path d="M-8.7977 -26.9836
L-8.9406 -26.8407
" />
<path d="M-8.9406 -26.8407
L-9.1549 -26.7693
" />
<path d="M-9.1549 -26.7693
L-9.5120 -26.7693
" />
<path d="M-7.1549 -26.7693
L-7.6549 -27.4836
" />
<path d="M-8.0120 -26.7693
L-8.0120 -28.2693
" />
<path d="M-8.0120 -28.2693
L-7.4406 -28.2693
" />
<path d="M-7.4406 -28.2693
L-7.2977 -28.1979
" />
<path d="M-7.2977 -28.1979
L-7.2263 -28.1265
" />
<path d="M-7.2263 -28.1265
L-7.1549 -27.9836
" />
<path d="M-7.1549 -27.9836
L-7.1549 -27.7693
" />
<path d="M-7.1549 -27.7693
L-7.2263 -27.6265
" />
<path d="M-7.2263 -27.6265
L-7.2977 -27.5550
" />
<path d="M-7.2977 -27.5550
L-7.4406 -27.4836
" />
<path d="M-7.4406 -27.4836
L-8.0120 -27.4836
" />
<path d="M-6.2263 -27.4836
L-6.2263 -26.7693
" />
<path d="M-6.7263 -28.2693
L-6.2263 -27.4836
" />
<path d="M-6.2263 -27.4836
L-5.7263 -28.2693
" />
<path d="M-5.5835 -26.6265
L-4.4406 -26.6265
" />
<path d="M-4.0835 -27.5550
L-3.5835 -27.5550
" />
<path d="M-3.3692 -26.7693
L-4.0835 -26.7693
" />
<path d="M-4.0835 -26.7693
L-4.0835 -28.2693
" />
<path d="M-4.0835 -28.2693
L-3.3692 -28.2693
" />
<path d="M-2.0120 -26.7693
L-2.7263 -26.7693
" />
<path d="M-2.7263 -26.7693
L-2.7263 -28.2693
" />
<path d="M-1.5120 -27.5550
L-1.0120 -27.5550
" />
<path d="M-0.7977 -26.7693
L-1.5120 -26.7693
" />
<path d="M-1.5120 -26.7693
L-1.5120 -28.2693
" />
<path d="M-1.5120 -28.2693
L-0.7977 -28.2693
" />
<path d="M0.7023 -26.9122
L0.6308 -26.8407
" />
<path d="M0.6308 -26.8407
L0.4165 -26.7693
" />
<path d="M0.4165 -26.7693
L0.2737 -26.7693
" />
<path d="M0.2737 -26.7693
L0.0594 -26.8407
" />
<path d="M0.0594 -26.8407
L-0.0835 -26.9836
" />
<path d="M-0.0835 -26.9836
L-0.1549 -27.1265
" />
<path d="M-0.1549 -27.1265
L-0.2263 -27.4122
" />
<path d="M-0.2263 -27.4122
L-0.2263 -27.6265
" />
<path d="M-0.2263 -27.6265
L-0.1549 -27.9122
" />
<path d="M-0.1549 -27.9122
L-0.0835 -28.0550
" />
<path d="M-0.0835 -28.0550
L0.0594 -28.1979
" />
<path d="M0.0594 -28.1979
L0.2737 -28.2693
" />
<path d="M0.2737 -28.2693
L0.4165 -28.2693
" />
<path d="M0.4165 -28.2693
L0.6308 -28.1979
" />
<path d="M0.6308 -28.1979
L0.7023 -28.1265
" />
<path d="M0.9880 -26.6265
L2.1308 -26.6265
" />
<path d="M3.1308 -28.2693
L2.8451 -28.2693
" />
<path d="M2.8451 -28.2693
L2.7023 -28.1979
" />
<path d="M2.7023 -28.1979
L2.6308 -28.1265
" />
<path d="M2.6308 -28.1265
L2.4880 -27.9122
" />
<path d="M2.4880 -27.9122
L2.4165 -27.6265
" />
<path d="M2.4165 -27.6265
L2.4165 -27.0550
" />
<path d="M2.4165 -27.0550
L2.4880 -26.9122
" />
<path d="M2.4880 -26.9122
L2.5594 -26.8407
" />
<path d="M2.5594 -26.8407
L2.7023 -26.7693
" />
<path d="M2.7023 -26.7693
L2.9880 -26.7693
" />
<path d="M2.9880 -26.7693
L3.1308 -26.8407
" />
<path d="M3.1308 -26.8407
L3.2023 -26.9122
" />
<path d="M3.2023 -26.9122
L3.2737 -27.0550
" />
<path d="M3.2737 -27.0550
L3.2737 -27.4122
" />
<path d="M3.2737 -27.4122
L3.2023 -27.5550
" />
<path d="M3.2023 -27.5550
L3.1308 -27.6265
" />
<path d="M3.1308 -27.6265
L2.9880 -27.6979
" />
<path d="M2.9880 -27.6979
L2.7023 -27.6979
" />
<path d="M2.7023 -27.6979
L2.5594 -27.6265
" />
<path d="M2.5594 -27.6265
L2.4880 -27.5550
" />
<path d="M2.4880 -27.5550
L2.4165 -27.4122
" />
<path d="M4.7737 -26.9122
L4.7023 -26.8407
" />
<path d="M4.7023 -26.8407
L4.4880 -26.7693
" />
<path d="M4.4880 -26.7693
L4.3451 -26.7693
" />
<path d="M4.3451 -26.7693
L4.1308 -26.8407
" />
<path d="M4.1308 -26.8407
L3.9880 -26.9836
" />
<path d="M3.9880 -26.9836
L3.9165 -27.1265
" />
<path d="M3.9165 -27.1265
L3.8451 -27.4122
" />
<path d="M3.8451 -27.4122
L3.8451 -27.6265
" />
<path d="M3.8451 -27.6265
L3.9165 -27.9122
" />
<path d="M3.9165 -27.9122
L3.9880 -28.0550
" />
<path d="M3.9880 -28.0550
L4.1308 -28.1979
" />
<path d="M4.1308 -28.1979
L4.3451 -28.2693
" />
<path d="M4.3451 -28.2693
L4.4880 -28.2693
" />
<path d="M4.4880 -28.2693
L4.7023 -28.1979
" />
<path d="M4.7023 -28.1979
L4.7737 -28.1265
" />
<path d="M5.4165 -26.7693
L5.4165 -28.2693
" />
<path d="M5.4165 -27.5550
L6.2737 -27.5550
" />
<path d="M6.2737 -26.7693
L6.2737 -28.2693
" />
<path d="M6.6308 -26.6265
L7.7737 -26.6265
" />
<path d="M8.1308 -26.7693
L8.1308 -28.2693
" />
<path d="M8.1308 -28.2693
L8.6308 -27.1979
" />
<path d="M8.6308 -27.1979
L9.1308 -28.2693
" />
<path d="M9.1308 -28.2693
L9.1308 -26.7693
" />
<path d="M9.8451 -26.7693
L9.8451 -28.2693
" />
<path d="M10.5594 -26.7693
L10.5594 -28.2693
" />
<path d="M10.5594 -28.2693
L10.9165 -28.2693
" />
<path d="M10.9165 -28.2693
L11.1308 -28.1979
" />
<path d="M11.1308 -28.1979
L11.2737 -28.0550
" />
<path d="M11.2737 -28.0550
L11.3451 -27.9122
" />
<path d="M11.3451 -27.9122
L11.4165 -27.6265
" />
<path d="M11.4165 -27.6265
L11.4165 -27.4122
" />
<path d="M11.4165 -27.4122
L11.3451 -27.1265
" />
<path d="M11.3451 -27.1265
L11.2737 -26.9836
" />
<path d="M11.2737 -26.9836
L11.1308 -26.8407
" />
<path d="M11.1308 -26.8407
L10.9165 -26.7693
" />
<path d="M10.9165 -26.7693
L10.5594 -26.7693
" />
<path d="M12.0594 -26.9122
L12.1308 -26.8407
" />
<path d="M12.1308 -26.8407
L12.0594 -26.7693
" />
<path d="M12.0594 -26.7693
L11.9880 -26.8407
" />
<path d="M11.9880 -26.8407
L12.0594 -26.9122
" />
<path d="M12.0594 -26.9122
L12.0594 -26.7693
" />
<path d="M12.7737 -26.7693
L12.7737 -28.2693
" />
<path d="M12.9165 -27.3407
L13.3451 -26.7693
" />
<path d="M13.3451 -27.7693
L12.7737 -27.1979
" />
<path d="M13.9880 -26.7693
L13.9880 -27.7693
" />
<path d="M13.9880 -28.2693
L13.9165 -28.1979
" />
<path d="M13.9165 -28.1979
L13.9880 -28.1265
" />
<path d="M13.9880 -28.1265
L14.0594 -28.1979
" />
<path d="M14.0594 -28.1979
L13.9880 -28.2693
" />
<path d="M13.9880 -28.2693
L13.9880 -28.1265
" />
<path d="M15.3451 -26.8407
L15.2023 -26.7693
" />
<path d="M15.2023 -26.7693
L14.9165 -26.7693
" />
<path d="M14.9165 -26.7693
L14.7737 -26.8407
" />
<path d="M14.7737 -26.8407
L14.7023 -26.9122
" />
<path d="M14.7023 -26.9122
L14.6308 -27.0550
" />
<path d="M14.6308 -27.0550
L14.6308 -27.4836
" />
<path d="M14.6308 -27.4836
L14.7023 -27.6265
" />
<path d="M14.7023 -27.6265
L14.7737 -27.6979
" />
<path d="M14.7737 -27.6979
L14.9165 -27.7693
" />
<path d="M14.9165 -27.7693
L15.2023 -27.7693
" />
<path d="M15.2023 -27.7693
L15.3451 -27.6979
" />
<path d="M16.6308 -26.7693
L16.6308 -27.5550
" />
<path d="M16.6308 -27.5550
L16.5594 -27.6979
" />
<path d="M16.5594 -27.6979
L16.4165 -27.7693
" />
<path d="M16.4165 -27.7693
L16.1308 -27.7693
" />
<path d="M16.1308 -27.7693
L15.9880 -27.6979
" />
<path d="M16.6308 -26.8407
L16.4880 -26.7693
" />
<path d="M16.4880 -26.7693
L16.1308 -26.7693
" />
<path d="M16.1308 -26.7693
L15.9880 -26.8407
" />
<path d="M15.9880 -26.8407
L15.9165 -26.9836
" />
<path d="M15.9165 -26.9836
L15.9165 -27.1265
" />
<path d="M15.9165 -27.1265
L15.9880 -27.2693
" />
<path d="M15.9880 -27.2693
L16.1308 -27.3407
" />
<path d="M16.1308 -27.3407
L16.4880 -27.3407
" />
<path d="M16.4880 -27.3407
L16.6308 -27.4122
" />
<path d="M17.9880 -26.7693
L17.9880 -28.2693
" />
<path d="M17.9880 -26.8407
L17.8451 -26.7693
" />
<path d="M17.8451 -26.7693
L17.5594 -26.7693
" />
<path d="M17.5594 -26.7693
L17.4165 -26.8407
" />
<path d="M17.4165 -26.8407
L17.3451 -26.9122
" />
<path d="M17.3451 -26.9122
L17.2737 -27.0550
" />
<path d="M17.2737 -27.0550
L17.2737 -27.4836
" />
<path d="M17.2737 -27.4836
L17.3451 -27.6265
" />
<path d="M17.3451 -27.6265
L17.4165 -27.6979
" />
<path d="M17.4165 -27.6979
L17.5594 -27.7693
" />
<path d="M17.5594 -27.7693
L17.8451 -27.7693
" />
<path d="M17.8451 -27.7693
L17.9880 -27.6979
" />
<path d="M18.3451 -26.6265
L19.4880 -26.6265
" />
<path d="M19.8451 -27.7693
L19.8451 -26.2693
" />
<path d="M19.8451 -27.6979
L19.9880 -27.7693
" />
<path d="M19.9880 -27.7693
L20.2737 -27.7693
" />
<path d="M20.2737 -27.7693
L20.4165 -27.6979
" />
<path d="M20.4165 -27.6979
L20.4880 -27.6265
" />
<path d="M20.4880 -27.6265
L20.5594 -27.4836
" />
<path d="M20.5594 -27.4836
L20.5594 -27.0550
" />
<path d="M20.5594 -27.0550
L20.4880 -26.9122
" />
<path d="M20.4880 -26.9122
L20.4165 -26.8407
" />
<path d="M20.4165 -26.8407
L20.2737 -26.7693
" />
<path d="M20.2737 -26.7693
L19.9880 -26.7693
" />
<path d="M19.9880 -26.7693
L19.8451 -26.8407
" />
<path d="M21.8451 -26.8407
L21.7023 -26.7693
" />
<path d="M21.7023 -26.7693
L21.4165 -26.7693
" />
<path d="M21.4165 -26.7693
L21.2737 -26.8407
" />
<path d="M21.2737 -26.8407
L21.2023 -26.9122
" />
<path d="M21.2023 -26.9122
L21.1308 -27.0550
" />
<path d="M21.1308 -27.0550
L21.1308 -27.4836
" />
<path d="M21.1308 -27.4836
L21.2023 -27.6265
" />
<path d="M21.2023 -27.6265
L21.2737 -27.6979
" />
<path d="M21.2737 -27.6979
L21.4165 -27.7693
" />
<path d="M21.4165 -27.7693
L21.7023 -27.7693
" />
<path d="M21.7023 -27.7693
L21.8451 -27.6979
" />
<path d="M22.4880 -26.7693
L22.4880 -28.2693
" />
<path d="M22.4880 -27.6979
L22.6308 -27.7693
" />
<path d="M22.6308 -27.7693
L22.9165 -27.7693
" />
<path d="M22.9165 -27.7693
L23.0594 -27.6979
" />
<path d="M23.0594 -27.6979
L23.1308 -27.6265
" />
<path d="M23.1308 -27.6265
L23.2023 -27.4836
" />
<path d="M23.2023 -27.4836
L23.2023 -27.0550
" />
<path d="M23.2023 -27.0550
L23.1308 -26.9122
" />
<path d="M23.1308 -26.9122
L23.0594 -26.8407
" />
<path d="M23.0594 -26.8407
L22.9165 -26.7693
" />
<path d="M22.9165 -26.7693
L22.6308 -26.7693
" />
<path d="M22.6308 -26.7693
L22.4880 -26.8407
" />
</g></g>
<g style="fill:none; 
stroke:#000000; stroke-width:0.1500; stroke-opacity:1; 
stroke-linecap:round; stroke-linejoin:round;">
<text x="-15.8964" y="-29.4054"
textLength="8.2214" font-size="2.0000" lengthAdjust="spacingAndGlyphs"
text-anchor="start" opacity="0" stroke-opacity="0">Sheet: </text>
<g class="stroked-text"><desc>Sheet: </desc>
<path d="M-15.5120 -29.5407
L-15.2977 -29.4693
" />
<path d="M-15.2977 -29.4693
L-14.9406 -29.4693
" />
<path d="M-14.9406 -29.4693
L-14.7977 -29.5407
" />
<path d="M-14.7977 -29.5407
L-14.7263 -29.6122
" />
<path d="M-14.7263 -29.6122
L-14.6549 -29.7550
" />
<path d="M-14.6549 -29.7550
L-14.6549 -29.8979
" />
<path d="M-14.6549 -29.8979
L-14.7263 -30.0407
" />
<path d="M-14.7263 -30.0407
L-14.7977 -30.1122
" />
<path d="M-14.7977 -30.1122
L-14.9406 -30.1836
" />
<path d="M-14.9406 -30.1836
L-15.2263 -30.2550
" />
<path d="M-15.2263 -30.2550
L-15.3692 -30.3265
" />
<path d="M-15.3692 -30.3265
L-15.4406 -30.3979
" />
<path d="M-15.4406 -30.3979
L-15.5120 -30.5407
" />
<path d="M-15.5120 -30.5407
L-15.5120 -30.6836
" />
<path d="M-15.5120 -30.6836
L-15.4406 -30.8265
" />
<path d="M-15.4406 -30.8265
L-15.3692 -30.8979
" />
<path d="M-15.3692 -30.8979
L-15.2263 -30.9693
" />
<path d="M-15.2263 -30.9693
L-14.8692 -30.9693
" />
<path d="M-14.8692 -30.9693
L-14.6549 -30.8979
" />
<path d="M-14.0120 -29.4693
L-14.0120 -30.9693
" />
<path d="M-13.3692 -29.4693
L-13.3692 -30.2550
" />
<path d="M-13.3692 -30.2550
L-13.4406 -30.3979
" />
<path d="M-13.4406 -30.3979
L-13.5835 -30.4693
" />
<path d="M-13.5835 -30.4693
L-13.7977 -30.4693
" />
<path d="M-13.7977 -30.4693
L-13.9406 -30.3979
" />
<path d="M-13.9406 -30.3979
L-14.0120 -30.3265
" />
<path d="M-12.0835 -29.5407
L-12.2263 -29.4693
" />
<path d="M-12.2263 -29.4693
L-12.5120 -29.4693
" />
<path d="M-12.5120 -29.4693
L-12.6549 -29.5407
" />
<path d="M-12.6549 -29.5407
L-12.7263 -29.6836
" />
<path d="M-12.7263 -29.6836
L-12.7263 -30.2550
" />
<path d="M-12.7263 -30.2550
L-12.6549 -30.3979
" />
<path d="M-12.6549 -30.3979
L-12.5120 -30.4693
" />
<path d="M-12.5120 -30.4693
L-12.2263 -30.4693
" />
<path d="M-12.2263 -30.4693
L-12.0835 -30.3979
" />
<path d="M-12.0835 -30.3979
L-12.0120 -30.2550
" />
<path d="M-12.0120 -30.2550
L-12.0120 -30.1122
" />
<path d="M-12.0120 -30.1122
L-12.7263 -29.9693
" />
<path d="M-10.7977 -29.5407
L-10.9406 -29.4693
" />
<path d="M-10.9406 -29.4693
L-11.2263 -29.4693
" />
<path d="M-11.2263 -29.4693
L-11.3692 -29.5407
" />
<path d="M-11.3692 -29.5407
L-11.4406 -29.6836
" />
<path d="M-11.4406 -29.6836
L-11.4406 -30.2550
" />
<path d="M-11.4406 -30.2550
L-11.3692 -30.3979
" />
<path d="M-11.3692 -30.3979
L-11.2263 -30.4693
" />
<path d="M-11.2263 -30.4693
L-10.9406 -30.4693
" />
<path d="M-10.9406 -30.4693
L-10.7977 -30.3979
" />
<path d="M-10.7977 -30.3979
L-10.7263 -30.2550
" />
<path d="M-10.7263 -30.2550
L-10.7263 -30.1122
" />
<path d="M-10.7263 -30.1122
L-11.4406 -29.9693
" />
<path d="M-10.2977 -30.4693
L-9.7263 -30.4693
" />
<path d="M-10.0835 -30.9693
L-10.0835 -29.6836
" />
<path d="M-10.0835 -29.6836
L-10.0120 -29.5407
" />
<path d="M-10.0120 -29.5407
L-9.8692 -29.4693
" />
<path d="M-9.8692 -29.4693
L-9.7263 -29.4693
" />
<path d="M-9.2263 -29.6122
L-9.1549 -29.5407
" />
<path d="M-9.1549 -29.5407
L-9.2263 -29.4693
" />
<path d="M-9.2263 -29.4693
L-9.2977 -29.5407
" />
<path d="M-9.2977 -29.5407
L-9.2263 -29.6122
" />
<path d="M-9.2263 -29.6122
L-9.2263 -29.4693
" />
<path d="M-9.2263 -30.3979
L-9.1549 -30.3265
" />
<path d="M-9.1549 -30.3265
L-9.2263 -30.2550
" />
<path d="M-9.2263 -30.2550
L-9.2977 -30.3265
" />
<path d="M-9.2977 -30.3265
L-9.2263 -30.3979
" />
<path d="M-9.2263 -30.3979
L-9.2263 -30.2550
" />
</g></g>
<g style="fill:none; 
stroke:#000000; stroke-width:0.1500; stroke-opacity:1; 
stroke-linecap:round; stroke-linejoin:round;">
<path d="M8.6036 -17.6554
L8.6036 -11.1554
" />
</g>
<g style="fill:none; 
stroke:#000000; stroke-width:0.4000; stroke-opacity:1; 
stroke-linecap:round; stroke-linejoin:round;">
<text x="-6.8854" y="-22.6574"
textLength="17.5619" font-size="2.6667" lengthAdjust="spacingAndGlyphs"
text-anchor="start" opacity="0" stroke-opacity="0">CleverHand</text>
<g class="stroked-text"><desc>CleverHand</desc>
<path d="M-4.9913 -22.9435
L-5.0985 -22.8482
" />
<path d="M-5.0985 -22.8482
L-5.3961 -22.7530
" />
<path d="M-5.3961 -22.7530
L-5.5866 -22.7530
" />
<path d="M-5.5866 -22.7530
L-5.8604 -22.8482
" />
<path d="M-5.8604 -22.8482
L-6.0270 -23.0387
" />
<path d="M-6.0270 -23.0387
L-6.0985 -23.2292
" />
<path d="M-6.0985 -23.2292
L-6.1461 -23.6102
" />
<path d="M-6.1461 -23.6102
L-6.1104 -23.8959
" />
<path d="M-6.1104 -23.8959
L-5.9675 -24.2768
" />
<path d="M-5.9675 -24.2768
L-5.8485 -24.4673
" />
<path d="M-5.8485 -24.4673
L-5.6342 -24.6578
" />
<path d="M-5.6342 -24.6578
L-5.3366 -24.7530
" />
<path d="M-5.3366 -24.7530
L-5.1461 -24.7530
" />
<path d="M-5.1461 -24.7530
L-4.8723 -24.6578
" />
<path d="M-4.8723 -24.6578
L-4.7889 -24.5625
" />
<path d="M-3.8723 -22.7530
L-4.0508 -22.8482
" />
<path d="M-4.0508 -22.8482
L-4.1223 -23.0387
" />
<path d="M-4.1223 -23.0387
L-3.9080 -24.7530
" />
<path d="M-2.3366 -22.8482
L-2.5389 -22.7530
" />
<path d="M-2.5389 -22.7530
L-2.9199 -22.7530
" />
<path d="M-2.9199 -22.7530
L-3.0985 -22.8482
" />
<path d="M-3.0985 -22.8482
L-3.1699 -23.0387
" />
<path d="M-3.1699 -23.0387
L-3.0747 -23.8006
" />
<path d="M-3.0747 -23.8006
L-2.9556 -23.9911
" />
<path d="M-2.9556 -23.9911
L-2.7532 -24.0863
" />
<path d="M-2.7532 -24.0863
L-2.3723 -24.0863
" />
<path d="M-2.3723 -24.0863
L-2.1937 -23.9911
" />
<path d="M-2.1937 -23.9911
L-2.1223 -23.8006
" />
<path d="M-2.1223 -23.8006
L-2.1461 -23.6102
" />
<path d="M-2.1461 -23.6102
L-3.1223 -23.4197
" />
<path d="M-1.4199 -24.0863
L-1.1104 -22.7530
" />
<path d="M-1.1104 -22.7530
L-0.4675 -24.0863
" />
<path d="M0.9015 -22.8482
L0.6992 -22.7530
" />
<path d="M0.6992 -22.7530
L0.3182 -22.7530
" />
<path d="M0.3182 -22.7530
L0.1396 -22.8482
" />
<path d="M0.1396 -22.8482
L0.0682 -23.0387
" />
<path d="M0.0682 -23.0387
L0.1634 -23.8006
" />
<path d="M0.1634 -23.8006
L0.2825 -23.9911
" />
<path d="M0.2825 -23.9911
L0.4849 -24.0863
" />
<path d="M0.4849 -24.0863
L0.8658 -24.0863
" />
<path d="M0.8658 -24.0863
L1.0444 -23.9911
" />
<path d="M1.0444 -23.9911
L1.1158 -23.8006
" />
<path d="M1.1158 -23.8006
L1.0920 -23.6102
" />
<path d="M1.0920 -23.6102
L0.1158 -23.4197
" />
<path d="M1.8420 -22.7530
L2.0087 -24.0863
" />
<path d="M1.9611 -23.7054
L2.0801 -23.8959
" />
<path d="M2.0801 -23.8959
L2.1873 -23.9911
" />
<path d="M2.1873 -23.9911
L2.3896 -24.0863
" />
<path d="M2.3896 -24.0863
L2.5801 -24.0863
" />
<path d="M3.0801 -22.7530
L3.3301 -24.7530
" />
<path d="M3.2111 -23.8006
L4.3539 -23.8006
" />
<path d="M4.2230 -22.7530
L4.4730 -24.7530
" />
<path d="M6.0325 -22.7530
L6.1634 -23.8006
" />
<path d="M6.1634 -23.8006
L6.0920 -23.9911
" />
<path d="M6.0920 -23.9911
L5.9134 -24.0863
" />
<path d="M5.9134 -24.0863
L5.5325 -24.0863
" />
<path d="M5.5325 -24.0863
L5.3301 -23.9911
" />
<path d="M6.0444 -22.8482
L5.8420 -22.7530
" />
<path d="M5.8420 -22.7530
L5.3658 -22.7530
" />
<path d="M5.3658 -22.7530
L5.1873 -22.8482
" />
<path d="M5.1873 -22.8482
L5.1158 -23.0387
" />
<path d="M5.1158 -23.0387
L5.1396 -23.2292
" />
<path d="M5.1396 -23.2292
L5.2587 -23.4197
" />
<path d="M5.2587 -23.4197
L5.4611 -23.5149
" />
<path d="M5.4611 -23.5149
L5.9373 -23.5149
" />
<path d="M5.9373 -23.5149
L6.1396 -23.6102
" />
<path d="M7.1515 -24.0863
L6.9849 -22.7530
" />
<path d="M7.1277 -23.8959
L7.2349 -23.9911
" />
<path d="M7.2349 -23.9911
L7.4373 -24.0863
" />
<path d="M7.4373 -24.0863
L7.7230 -24.0863
" />
<path d="M7.7230 -24.0863
L7.9015 -23.9911
" />
<path d="M7.9015 -23.9911
L7.9730 -23.8006
" />
<path d="M7.9730 -23.8006
L7.8420 -22.7530
" />
<path d="M9.6515 -22.7530
L9.9015 -24.7530
" />
<path d="M9.6634 -22.8482
L9.4611 -22.7530
" />
<path d="M9.4611 -22.7530
L9.0801 -22.7530
" />
<path d="M9.0801 -22.7530
L8.9015 -22.8482
" />
<path d="M8.9015 -22.8482
L8.8182 -22.9435
" />
<path d="M8.8182 -22.9435
L8.7468 -23.1340
" />
<path d="M8.7468 -23.1340
L8.8182 -23.7054
" />
<path d="M8.8182 -23.7054
L8.9373 -23.8959
" />
<path d="M8.9373 -23.8959
L9.0444 -23.9911
" />
<path d="M9.0444 -23.9911
L9.2468 -24.0863
" />
<path d="M9.2468 -24.0863
L9.6277 -24.0863
" />
<path d="M9.6277 -24.0863
L9.8063 -23.9911
" />
</g></g>
<g style="fill:none; 
stroke:#000000; stroke-width:0.1500; stroke-opacity:1; 
stroke-linecap:round; stroke-linejoin:round;">
<path d="M-16.3854 -25.6574
L19.6146 -25.6574
" />
</g>
<g style="fill:#000000; fill-opacity:1.0000; stroke:none;">
<circle cx="23.6960" cy="12.4982" r="0.9000" /> 
</g>
<g style="fill:#000000; fill-opacity:1.0000; stroke:none;">
<circle cx="13.5360" cy="12.4982" r="0.9000" /> 
</g>
<g style="fill:#000000; fill-opacity:1.0000; stroke:none;">
<circle cx="8.4560" cy="11.8982" r="0.9000" /> 
</g>
<g style="fill:#000000; fill-opacity:1.0000; stroke:none;">
<circle cx="28.7760" cy="12.4982" r="0.9000" /> 
</g>
<g style="fill:#000000; fill-opacity:1.0000; stroke:none;">
<circle cx="18.6160" cy="12.4982" r="0.9000" /> 
</g>
<g style="fill:#000000; fill-opacity:1.0000; stroke:none;">
<circle cx="33.8560" cy="11.8982" r="0.9000" /> 
</g>
<g style="fill:#000000; fill-opacity:1.0000; stroke:none;">
<circle cx="10.9960" cy="16.6082" r="0.2000" /> 
</g>
<g style="fill:#000000; fill-opacity:1.0000; stroke:none;">
<circle cx="16.0560" cy="16.6483" r="0.2000" /> 
</g>
<g style="fill:#000000; fill-opacity:1.0000; stroke:none;">
<circle cx="21.1560" cy="16.6883" r="0.2000" /> 
</g>
<g style="fill:#000000; fill-opacity:1.0000; stroke:none;">
<circle cx="26.2460" cy="16.6382" r="0.2000" /> 
</g>
<g style="fill:#000000; fill-opacity:1.0000; stroke:none;">
<circle cx="31.3360" cy="16.6082" r="0.2000" /> 
</g>
<g style="fill:#000000; fill-opacity:1.0000; stroke:none;">
<circle cx="26.2560" cy="6.3882" r="0.2000" /> 
</g>
<g style="fill:#000000; fill-opacity:1.0000; stroke:none;">
<circle cx="11.0360" cy="6.3782" r="0.2000" /> 
</g>
<g style="fill:#000000; fill-opacity:1.0000; stroke:none;">
<circle cx="16.0760" cy="6.4082" r="0.2000" /> 
</g>
<g style="fill:#000000; fill-opacity:1.0000; stroke:none;">
<circle cx="31.3560" cy="6.5282" r="0.2000" /> 
<path style="fill:#000000; fill-opacity:1.0000; stroke:none;fill-rule:evenodd;"
d="M 15.7541,6.0284
15.7999,6.0812
15.8098,6.1504
15.7945,6.1948
15.7493,6.2730
15.7255,6.3621
15.7255,6.4544
15.7493,6.5435
15.7493,6.5435
15.7955,6.6235
15.7955,6.6235
15.7996,6.6276
15.8331,6.6889
15.8360,6.7153
15.8360,16.3212
15.8163,16.3882
15.7996,16.4089
15.7755,16.4330
15.7755,16.4330
15.7293,16.5130
15.7293,16.5130
15.7055,16.6021
15.7055,16.6944
15.7293,16.7835
15.7293,16.7835
15.7399,16.8017
15.7563,16.8697
15.7335,16.9357
15.6785,16.9789
15.6325,16.9877
11.3963,16.9877
11.3293,16.9681
11.2835,16.9153
11.2736,16.8461
11.2890,16.8017
11.3226,16.7435
11.3465,16.6544
11.3465,16.5621
11.3226,16.4730
11.2995,16.4330
11.2764,16.3930
11.2764,16.3930
11.2764,16.3930
11.2723,16.3889
11.2388,16.3276
11.2360,16.3012
11.2360,6.7253
11.2556,6.6583
11.2723,6.6376
11.2864,6.6235
11.3164,6.5935
11.3626,6.5135
11.3865,6.4244
11.3865,6.3321
11.3626,6.2430
11.3347,6.1948
11.3183,6.1269
11.3411,6.0608
11.3960,6.0176
11.4421,6.0088
15.6871,6.0088
Z" /> 
<path style="fill:#000000; fill-opacity:1.0000; stroke:none;fill-rule:evenodd;"
d="M 35.1613,6.0092
35.3170,6.0228
35.3382,6.0266
35.4839,6.0656
35.5042,6.0730
35.6060,6.1205
35.6409,6.1367
35.6596,6.1475
35.7831,6.2340
35.7997,6.2479
35.9063,6.3545
35.9202,6.3711
35.9979,6.4821
36.0067,6.4946
36.0175,6.5133
36.0812,6.6500
36.0886,6.6703
36.1276,6.8159
36.1314,6.8372
36.1450,6.9928
36.1455,7.0037
36.1455,15.9928
36.1450,16.0036
36.1314,16.1593
36.1276,16.1806
36.0886,16.3262
36.0812,16.3465
36.0175,16.4832
36.0067,16.5019
35.9202,16.6254
35.9063,16.6420
35.7997,16.7486
35.7831,16.7625
35.6596,16.8490
35.6409,16.8598
35.5042,16.9235
35.4839,16.9309
35.3383,16.9699
35.3170,16.9737
35.2037,16.9836
35.1613,16.9873
35.1505,16.9877
31.7363,16.9877
31.6693,16.9681
31.6235,16.9153
31.6136,16.8461
31.6290,16.8017
31.6516,16.7625
31.6626,16.7435
31.6865,16.6544
31.6865,16.5621
31.6626,16.4730
31.6360,16.4269
31.6164,16.3930
31.6164,16.3930
31.6164,16.3930
31.5923,16.3689
31.5588,16.3076
31.5560,16.2812
31.5560,6.8753
31.5756,6.8083
31.5923,6.7876
31.6364,6.7435
31.6826,6.6635
31.7065,6.5744
31.7065,6.4821
31.6826,6.3930
31.6648,6.3622
31.6364,6.3130
31.6364,6.3130
31.6364,6.3130
31.6364,6.3130
31.5923,6.2689
31.5588,6.2076
31.5560,6.1812
31.5560,6.1327
31.5756,6.0657
31.6284,6.0200
31.6800,6.0088
35.1505,6.0088
Z" /> 
<path style="fill:#000000; fill-opacity:1.0000; stroke:none;fill-rule:evenodd;"
d="M 25.9226,6.0284
25.9684,6.0812
25.9783,6.1504
25.9629,6.1948
25.9293,6.2530
25.9055,6.3421
25.9055,6.4344
25.9293,6.5235
25.9793,6.6101
25.9960,6.6721
25.9960,16.3412
25.9763,16.4083
25.9703,16.4167
25.9655,16.4230
25.9193,16.5030
25.9193,16.5030
25.9193,16.5030
25.9193,16.5030
25.8955,16.5921
25.8955,16.6844
25.9193,16.7735
25.9356,16.8017
25.9521,16.8696
25.9292,16.9357
25.8743,16.9789
25.8282,16.9877
21.6001,16.9877
21.5331,16.9681
21.4873,16.9153
21.4774,16.8461
21.4814,16.8316
21.4805,16.8314
21.4960,16.7735
21.5065,16.7344
21.5065,16.6421
21.4826,16.5530
21.4537,16.5030
21.4364,16.4730
21.4364,16.4730
21.4364,16.4730
21.4323,16.4689
21.3988,16.4076
21.3960,16.3812
21.3960,6.1327
21.4156,6.0657
21.4684,6.0200
21.5200,6.0088
25.8556,6.0088
Z" /> 
<path style="fill:#000000; fill-opacity:1.0000; stroke:none;fill-rule:evenodd;"
d="M 10.6968,6.0284
10.7426,6.0812
10.7525,6.1504
10.7372,6.1948
10.7093,6.2430
10.6855,6.3321
10.6855,6.4244
10.7093,6.5135
10.7393,6.5655
10.7560,6.6275
10.7560,16.3012
10.7363,16.3682
10.7196,16.3889
10.7155,16.3930
10.7155,16.3930
10.6693,16.4730
10.6693,16.4730
10.6455,16.5621
10.6455,16.6544
10.6693,16.7435
10.7029,16.8017
10.7194,16.8696
10.6966,16.9357
10.6416,16.9789
10.5956,16.9877
7.1614,16.9877
7.1506,16.9873
7.1255,16.9851
6.9949,16.9737
6.9736,16.9699
6.8280,16.9309
6.8077,16.9235
6.6710,16.8598
6.6523,16.8490
6.5288,16.7625
6.5122,16.7486
6.4056,16.6420
6.3917,16.6254
6.3052,16.5019
6.2944,16.4832
6.2307,16.3465
6.2233,16.3262
6.2114,16.2816
6.1843,16.1805
6.1805,16.1593
6.1669,16.0036
6.1665,15.9928
6.1665,7.0037
6.1669,6.9929
6.1805,6.8372
6.1843,6.8160
6.2233,6.6703
6.2307,6.6500
6.2682,6.5696
6.2944,6.5133
6.3052,6.4946
6.3917,6.3711
6.4056,6.3545
6.5122,6.2479
6.5288,6.2340
6.6523,6.1475
6.6710,6.1367
6.8077,6.0730
6.8280,6.0656
6.9737,6.0266
6.9949,6.0228
7.1505,6.0092
7.1614,6.0088
10.6298,6.0088
Z" /> 
<path style="fill:#000000; fill-opacity:1.0000; stroke:none;fill-rule:evenodd;"
d="M 20.8590,6.0284
20.9047,6.0812
20.9160,6.1327
20.9160,16.3812
20.8963,16.4482
20.8796,16.4689
20.8755,16.4730
20.8755,16.4730
20.8293,16.5530
20.8293,16.5530
20.8055,16.6421
20.8055,16.7344
20.8314,16.8314
20.8281,16.8323
20.8338,16.8858
20.8025,16.9482
20.7424,16.9839
20.7118,16.9877
16.4794,16.9877
16.4124,16.9681
16.3666,16.9153
16.3567,16.8461
16.3721,16.8017
16.3826,16.7835
16.3826,16.7835
16.4065,16.6944
16.4065,16.6021
16.3826,16.5130
16.3595,16.4730
16.3326,16.4264
16.3160,16.3644
16.3160,6.7153
16.3356,6.6483
16.3523,6.6276
16.3564,6.6235
16.4026,6.5435
16.4265,6.4544
16.4265,6.3621
16.4026,6.2730
16.3574,6.1947
16.3409,6.1269
16.3638,6.0608
16.4187,6.0176
16.4648,6.0088
20.7920,6.0088
Z" /> 
<path style="fill:#000000; fill-opacity:1.0000; stroke:none;fill-rule:evenodd;"
d="M 31.0190,6.0284
31.0647,6.0812
31.0760,6.1327
31.0760,6.2790
31.0593,6.3410
31.0293,6.3930
31.0055,6.4821
31.0055,6.5744
31.0293,6.6635
31.0528,6.7041
31.0592,6.7153
31.0593,6.7155
31.0760,6.7775
31.0760,16.3244
31.0593,16.3864
31.0093,16.4730
31.0093,16.4730
31.0093,16.4730
31.0093,16.4730
30.9855,16.5621
30.9855,16.6544
31.0093,16.7435
31.0429,16.8017
31.0594,16.8696
31.0366,16.9357
30.9816,16.9789
30.9356,16.9877
26.6637,16.9877
26.5966,16.9681
26.5509,16.9153
26.5409,16.8461
26.5563,16.8017
26.5726,16.7735
26.5965,16.6844
26.5965,16.5921
26.5726,16.5030
26.5726,16.5030
26.5264,16.4230
26.5264,16.4230
26.5264,16.4230
26.5123,16.4089
26.4788,16.3476
26.4760,16.3212
26.4760,6.7153
26.4956,6.6483
26.5123,6.6276
26.5364,6.6035
26.5826,6.5235
26.6065,6.4344
26.6065,6.3421
26.5826,6.2530
26.5490,6.1947
26.5325,6.1269
26.5553,6.0608
26.6103,6.0176
26.6563,6.0088
30.9520,6.0088
Z" /> 
<path style="fill:#000000; fill-opacity:1.0000; stroke:none;fill-rule:evenodd;"
d="M 30.0760,6.9982
27.4760,6.9982
27.4760,6.2982
30.0760,6.2982
Z" /> 
</g>
<g style="fill:#000000; fill-opacity:1.0000; stroke:none;">
<circle cx="9.7560" cy="6.9982" r="0.7000" /> 
<circle cx="32.5560" cy="6.9982" r="0.7000" /> 
<path style="fill:#000000; fill-opacity:1.0000; stroke:none;fill-rule:evenodd;"
d="M 14.8360,16.6982
12.2360,16.6982
12.2360,15.9982
14.8360,15.9982
Z" /> 
<circle cx="30.0760" cy="6.9982" r="0.7000" /> 
<circle cx="27.4760" cy="6.9982" r="0.7000" /> 
<circle cx="19.9160" cy="6.9982" r="0.7000" /> 
<circle cx="17.3160" cy="6.9982" r="0.7000" /> 
<circle cx="7.1560" cy="15.9982" r="0.7000" /> 
<circle cx="24.9960" cy="15.9982" r="0.7000" /> 
<path style="fill:#000000; fill-opacity:1.0000; stroke:none;fill-rule:evenodd;"
d="M 24.9960,16.6982
22.3960,16.6982
22.3960,15.9982
24.9960,15.9982
Z" /> 
<path style="fill:#000000; fill-opacity:1.0000; stroke:none;fill-rule:evenodd;"
d="M 25.6960,15.9982
21.6960,15.9982
21.6960,6.9982
25.6960,6.9982
Z" /> 
<circle cx="19.9160" cy="15.9982" r="0.7000" /> 
<path style="fill:#000000; fill-opacity:1.0000; stroke:none;fill-rule:evenodd;"
d="M 19.9160,16.6982
17.3160,16.6982
17.3160,15.9982
19.9160,15.9982
Z" /> 
<circle cx="14.8360" cy="6.9982" r="0.7000" /> 
<path style="fill:#000000; fill-opacity:1.0000; stroke:none;fill-rule:evenodd;"
d="M 19.9160,6.9982
17.3160,6.9982
17.3160,6.2982
19.9160,6.2982
Z" /> 
<path style="fill:#000000; fill-opacity:1.0000; stroke:none;fill-rule:evenodd;"
d="M 14.8360,6.9982
12.2360,6.9982
12.2360,6.2982
14.8360,6.2982
Z" /> 
<path style="fill:#000000; fill-opacity:1.0000; stroke:none;fill-rule:evenodd;"
d="M 15.5360,15.9982
11.5360,15.9982
11.5360,6.9982
15.5360,6.9982
Z" /> 
<circle cx="24.9960" cy="6.9982" r="0.7000" /> 
<path style="fill:#000000; fill-opacity:1.0000; stroke:none;fill-rule:evenodd;"
d="M 30.0760,16.6982
27.4760,16.6982
27.4760,15.9982
30.0760,15.9982
Z" /> 
<circle cx="9.7560" cy="15.9982" r="0.7000" /> 
<circle cx="7.1560" cy="6.9982" r="0.7000" /> 
<path style="fill:#000000; fill-opacity:1.0000; stroke:none;fill-rule:evenodd;"
d="M 24.9960,6.9982
22.3960,6.9982
22.3960,6.2982
24.9960,6.2982
Z" /> 
<circle cx="30.0760" cy="15.9982" r="0.7000" /> 
<path style="fill:#000000; fill-opacity:1.0000; stroke:none;fill-rule:evenodd;"
d="M 10.4560,15.9982
6.4560,15.9982
6.4560,6.9982
10.4560,6.9982
Z" /> 
<circle cx="17.3160" cy="15.9982" r="0.7000" /> 
<circle cx="12.2360" cy="6.9982" r="0.7000" /> 
<path style="fill:#000000; fill-opacity:1.0000; stroke:none;fill-rule:evenodd;"
d="M 9.7560,16.6982
7.1560,16.6982
7.1560,15.9982
9.7560,15.9982
Z" /> 
<path style="fill:#000000; fill-opacity:1.0000; stroke:none;fill-rule:evenodd;"
d="M 35.8560,15.9982
31.8560,15.9982
31.8560,6.9982
35.8560,6.9982
Z" /> 
<circle cx="35.1560" cy="15.9982" r="0.7000" /> 
<circle cx="27.4760" cy="15.9982" r="0.7000" /> 
<circle cx="14.8360" cy="15.9982" r="0.7000" /> 
<circle cx="35.1560" cy="6.9982" r="0.7000" /> 
<path style="fill:#000000; fill-opacity:1.0000; stroke:none;fill-rule:evenodd;"
d="M 30.7760,15.9982
26.7760,15.9982
26.7760,6.9982
30.7760,6.9982
Z" /> 
<path style="fill:#000000; fill-opacity:1.0000; stroke:none;fill-rule:evenodd;"
d="M 9.7560,6.9982
7.1560,6.9982
7.1560,6.2982
9.7560,6.2982
Z" /> 
<circle cx="32.5560" cy="15.9982" r="0.7000" /> 
<circle cx="22.3960" cy="15.9982" r="0.7000" /> 
<path style="fill:#000000; fill-opacity:1.0000; stroke:none;fill-rule:evenodd;"
d="M 20.6160,15.9982
16.6160,15.9982
16.6160,6.9982
20.6160,6.9982
Z" /> 
<circle cx="22.3960" cy="6.9982" r="0.7000" /> 
<circle cx="12.2360" cy="15.9982" r="0.7000" /> 
<path style="fill:#000000; fill-opacity:1.0000; stroke:none;fill-rule:evenodd;"
d="M 35.1560,16.6982
32.5560,16.6982
32.5560,15.9982
35.1560,15.9982
Z" /> 
<path style="fill:#000000; fill-opacity:1.0000; stroke:none;fill-rule:evenodd;"
d="M 35.1560,6.9982
32.5560,6.9982
32.5560,6.2982
35.1560,6.2982
Z" /> 
<circle cx="23.6960" cy="12.4982" r="0.9000" /> 
</g>
<g style="fill:#000000; fill-opacity:1.0000; stroke:none;">
<circle cx="13.5360" cy="12.4982" r="0.9000" /> 
</g>
<g style="fill:#000000; fill-opacity:1.0000; stroke:none;">
<circle cx="8.4560" cy="11.8982" r="0.9000" /> 
</g>
<g style="fill:#000000; fill-opacity:1.0000; stroke:none;">
<circle cx="28.7760" cy="12.4982" r="0.9000" /> 
</g>
<g style="fill:#000000; fill-opacity:1.0000; stroke:none;">
<circle cx="18.6160" cy="12.4982" r="0.9000" /> 
</g>
<g style="fill:#000000; fill-opacity:1.0000; stroke:none;">
<circle cx="33.8560" cy="11.8982" r="0.9000" /> 
<path style="fill:none; 
stroke:#000000; stroke-width:0.1000; stroke-opacity:1; 
stroke-linecap:round; stroke-linejoin:round;fill:none"
d="M 13.6560,7.5982
28.6560,7.5982
28.6560,9.1982
13.6560,9.1982
Z" /> 
</g>
<g style="fill:none; 
stroke:#000000; stroke-width:0.1000; stroke-opacity:1; 
stroke-linecap:round; stroke-linejoin:round;">
<circle cx="28.7760" cy="12.4982" r="1.2700" /> 
<circle cx="8.4560" cy="11.8982" r="1.2700" /> 
<circle cx="23.6960" cy="12.4982" r="1.2700" /> 
<circle cx="18.6160" cy="12.4982" r="1.2700" /> 
<circle cx="13.5360" cy="12.4982" r="1.2700" /> 
<circle cx="33.8560" cy="11.8982" r="1.2700" /> 
<circle cx="21.1560" cy="12.4982" r="0.5000" /> 
<circle cx="21.1560" cy="8.4982" r="0.3606" /> 
</g>
<g style="fill:none; 
stroke:#000000; stroke-width:0.1500; stroke-opacity:1; 
stroke-linecap:round; stroke-linejoin:round;">
<g transform="rotate(-90.000000 37.6560 10.5983)">
<text x="37.6560" y="11.0983"
textLength="5.5833" font-size="1.3333" lengthAdjust="spacingAndGlyphs"
text-anchor="middle" opacity="0" stroke-opacity="0">11 mm</text>
</g>
<g class="stroked-text"><desc>11 mm</desc>
<path d="M38.1108 12.5030
L38.1108 13.0744
" />
<path d="M38.1108 12.7887
L37.1108 12.7887
" />
<path d="M37.1108 12.7887
L37.2536 12.8840
" />
<path d="M37.2536 12.8840
L37.3489 12.9792
" />
<path d="M37.3489 12.9792
L37.3965 13.0744
" />
<path d="M38.1108 11.5506
L38.1108 12.1221
" />
<path d="M38.1108 11.8363
L37.1108 11.8363
" />
<path d="M37.1108 11.8363
L37.2536 11.9316
" />
<path d="M37.2536 11.9316
L37.3489 12.0268
" />
<path d="M37.3489 12.0268
L37.3965 12.1221
" />
<path d="M38.1108 10.3602
L37.4441 10.3602
" />
<path d="M37.5393 10.3602
L37.4917 10.3125
" />
<path d="M37.4917 10.3125
L37.4441 10.2173
" />
<path d="M37.4441 10.2173
L37.4441 10.0744
" />
<path d="M37.4441 10.0744
L37.4917 9.9792
" />
<path d="M37.4917 9.9792
L37.5870 9.9316
" />
<path d="M37.5870 9.9316
L38.1108 9.9316
" />
<path d="M37.5870 9.9316
L37.4917 9.8840
" />
<path d="M37.4917 9.8840
L37.4441 9.7887
" />
<path d="M37.4441 9.7887
L37.4441 9.6459
" />
<path d="M37.4441 9.6459
L37.4917 9.5506
" />
<path d="M37.4917 9.5506
L37.5870 9.5030
" />
<path d="M37.5870 9.5030
L38.1108 9.5030
" />
<path d="M38.1108 9.0268
L37.4441 9.0268
" />
<path d="M37.5393 9.0268
L37.4917 8.9792
" />
<path d="M37.4917 8.9792
L37.4441 8.8840
" />
<path d="M37.4441 8.8840
L37.4441 8.7411
" />
<path d="M37.4441 8.7411
L37.4917 8.6459
" />
<path d="M37.4917 8.6459
L37.5870 8.5982
" />
<path d="M37.5870 8.5982
L38.1108 8.5982
" />
<path d="M37.5870 8.5982
L37.4917 8.5506
" />
<path d="M37.4917 8.5506
L37.4441 8.4554
" />
<path d="M37.4441 8.4554
L37.4441 8.3125
" />
<path d="M37.4441 8.3125
L37.4917 8.2173
" />
<path d="M37.4917 8.2173
L37.5870 8.1697
" />
<path d="M37.5870 8.1697
L38.1108 8.1697
" />
</g></g>
<g style="fill:none; 
stroke:#000000; stroke-width:0.1000; stroke-opacity:1; 
stroke-linecap:round; stroke-linejoin:round;">
<path d="M35.6560 5.9982
L39.2424 5.9982
" />
<path d="M35.6560 16.9982
L39.2424 16.9982
" />
<path d="M38.6560 5.9982
L38.6560 16.9982
" />
<path d="M38.6560 5.9982
L39.2424 7.1248
" />
<path d="M38.6560 5.9982
L38.0695 7.1248
" />
<path d="M38.6560 16.9982
L38.0695 15.8717
" />
<path d="M38.6560 16.9982
L39.2424 15.8717
" />
</g>
<g style="fill:none; 
stroke:#000000; stroke-width:0.1500; stroke-opacity:1; 
stroke-linecap:round; stroke-linejoin:round;">
<text x="21.1560" y="1.3482"
textLength="5.5833" font-size="1.3333" lengthAdjust="spacingAndGlyphs"
text-anchor="middle" opacity="0" stroke-opacity="0">30 mm</text>
<g class="stroked-text"><desc>30 mm</desc>
<path d="M18.6321 0.3031
L19.2512 0.3031
" />
<path d="M19.2512 0.3031
L18.9179 0.6840
" />
<path d="M18.9179 0.6840
L19.0607 0.6840
" />
<path d="M19.0607 0.6840
L19.1560 0.7316
" />
<path d="M19.1560 0.7316
L19.2036 0.7793
" />
<path d="M19.2036 0.7793
L19.2512 0.8745
" />
<path d="M19.2512 0.8745
L19.2512 1.1126
" />
<path d="M19.2512 1.1126
L19.2036 1.2078
" />
<path d="M19.2036 1.2078
L19.1560 1.2554
" />
<path d="M19.1560 1.2554
L19.0607 1.3031
" />
<path d="M19.0607 1.3031
L18.7750 1.3031
" />
<path d="M18.7750 1.3031
L18.6798 1.2554
" />
<path d="M18.6798 1.2554
L18.6321 1.2078
" />
<path d="M19.8702 0.3031
L19.9655 0.3031
" />
<path d="M19.9655 0.3031
L20.0607 0.3507
" />
<path d="M20.0607 0.3507
L20.1083 0.3983
" />
<path d="M20.1083 0.3983
L20.1560 0.4935
" />
<path d="M20.1560 0.4935
L20.2036 0.6840
" />
<path d="M20.2036 0.6840
L20.2036 0.9221
" />
<path d="M20.2036 0.9221
L20.1560 1.1126
" />
<path d="M20.1560 1.1126
L20.1083 1.2078
" />
<path d="M20.1083 1.2078
L20.0607 1.2554
" />
<path d="M20.0607 1.2554
L19.9655 1.3031
" />
<path d="M19.9655 1.3031
L19.8702 1.3031
" />
<path d="M19.8702 1.3031
L19.7750 1.2554
" />
<path d="M19.7750 1.2554
L19.7274 1.2078
" />
<path d="M19.7274 1.2078
L19.6798 1.1126
" />
<path d="M19.6798 1.1126
L19.6321 0.9221
" />
<path d="M19.6321 0.9221
L19.6321 0.6840
" />
<path d="M19.6321 0.6840
L19.6798 0.4935
" />
<path d="M19.6798 0.4935
L19.7274 0.3983
" />
<path d="M19.7274 0.3983
L19.7750 0.3507
" />
<path d="M19.7750 0.3507
L19.8702 0.3031
" />
<path d="M21.3940 1.3031
L21.3940 0.6364
" />
<path d="M21.3940 0.7316
L21.4417 0.6840
" />
<path d="M21.4417 0.6840
L21.5369 0.6364
" />
<path d="M21.5369 0.6364
L21.6798 0.6364
" />
<path d="M21.6798 0.6364
L21.7750 0.6840
" />
<path d="M21.7750 0.6840
L21.8226 0.7793
" />
<path d="M21.8226 0.7793
L21.8226 1.3031
" />
<path d="M21.8226 0.7793
L21.8702 0.6840
" />
<path d="M21.8702 0.6840
L21.9655 0.6364
" />
<path d="M21.9655 0.6364
L22.1083 0.6364
" />
<path d="M22.1083 0.6364
L22.2036 0.6840
" />
<path d="M22.2036 0.6840
L22.2512 0.7793
" />
<path d="M22.2512 0.7793
L22.2512 1.3031
" />
<path d="M22.7274 1.3031
L22.7274 0.6364
" />
<path d="M22.7274 0.7316
L22.7750 0.6840
" />
<path d="M22.7750 0.6840
L22.8702 0.6364
" />
<path d="M22.8702 0.6364
L23.0131 0.6364
" />
<path d="M23.0131 0.6364
L23.1083 0.6840
" />
<path d="M23.1083 0.6840
L23.1560 0.7793
" />
<path d="M23.1560 0.7793
L23.1560 1.3031
" />
<path d="M23.1560 0.7793
L23.2036 0.6840
" />
<path d="M23.2036 0.6840
L23.2988 0.6364
" />
<path d="M23.2988 0.6364
L23.4417 0.6364
" />
<path d="M23.4417 0.6364
L23.5369 0.6840
" />
<path d="M23.5369 0.6840
L23.5845 0.7793
" />
<path d="M23.5845 0.7793
L23.5845 1.3031
" />
</g></g>
<g style="fill:none; 
stroke:#000000; stroke-width:0.1000; stroke-opacity:1; 
stroke-linecap:round; stroke-linejoin:round;">
<path d="M36.1560 6.4982
L36.1560 1.4118
" />
<path d="M6.1560 6.4982
L6.1560 1.4118
" />
<path d="M36.1560 1.9982
L6.1560 1.9982
" />
<path d="M36.1560 1.9982
L35.0294 2.5847
" />
<path d="M36.1560 1.9982
L35.0294 1.4118
" />
<path d="M6.1560 1.9982
L7.2825 1.4118
" />
<path d="M6.1560 1.9982
L7.2825 2.5847
" />
</g>
<g style="fill:none; 
stroke:#000000; stroke-width:0.1500; stroke-opacity:1; 
stroke-linecap:round; stroke-linejoin:round;">
<text x="8.4560" y="19.9982"
textLength="4.6310" font-size="1.3333" lengthAdjust="spacingAndGlyphs"
text-anchor="middle" opacity="0" stroke-opacity="0">4 mm</text>
<g class="stroked-text"><desc>4 mm</desc>
<path d="M6.9321 19.2864
L6.9321 19.9531
" />
<path d="M6.6940 18.9054
L6.4560 19.6197
" />
<path d="M6.4560 19.6197
L7.0750 19.6197
" />
<path d="M8.2179 19.9531
L8.2179 19.2864
" />
<path d="M8.2179 19.3816
L8.2655 19.3340
" />
<path d="M8.2655 19.3340
L8.3607 19.2864
" />
<path d="M8.3607 19.2864
L8.5036 19.2864
" />
<path d="M8.5036 19.2864
L8.5988 19.3340
" />
<path d="M8.5988 19.3340
L8.6464 19.4293
" />
<path d="M8.6464 19.4293
L8.6464 19.9531
" />
<path d="M8.6464 19.4293
L8.6940 19.3340
" />
<path d="M8.6940 19.3340
L8.7893 19.2864
" />
<path d="M8.7893 19.2864
L8.9321 19.2864
" />
<path d="M8.9321 19.2864
L9.0274 19.3340
" />
<path d="M9.0274 19.3340
L9.0750 19.4293
" />
<path d="M9.0750 19.4293
L9.0750 19.9531
" />
<path d="M9.5512 19.9531
L9.5512 19.2864
" />
<path d="M9.5512 19.3816
L9.5988 19.3340
" />
<path d="M9.5988 19.3340
L9.6940 19.2864
" />
<path d="M9.6940 19.2864
L9.8369 19.2864
" />
<path d="M9.8369 19.2864
L9.9321 19.3340
" />
<path d="M9.9321 19.3340
L9.9798 19.4293
" />
<path d="M9.9798 19.4293
L9.9798 19.9531
" />
<path d="M9.9798 19.4293
L10.0274 19.3340
" />
<path d="M10.0274 19.3340
L10.1226 19.2864
" />
<path d="M10.1226 19.2864
L10.2655 19.2864
" />
<path d="M10.2655 19.2864
L10.3607 19.3340
" />
<path d="M10.3607 19.3340
L10.4083 19.4293
" />
<path d="M10.4083 19.4293
L10.4083 19.9531
" />
</g></g>
<g style="fill:none; 
stroke:#000000; stroke-width:0.1000; stroke-opacity:1; 
stroke-linecap:round; stroke-linejoin:round;">
<path d="M6.4560 14.4982
L6.4560 18.5847
" />
<path d="M10.4559 14.4982
L10.4559 18.5847
" />
<path d="M6.4560 17.9982
L10.4559 17.9982
" />
<path d="M6.4560 17.9982
L7.5825 17.4118
" />
<path d="M6.4560 17.9982
L7.5825 18.5847
" />
<path d="M10.4559 17.9982
L9.3294 18.5847
" />
<path d="M10.4559 17.9982
L9.3294 17.4118
" />
</g>
<g style="fill:none; 
stroke:#000000; stroke-width:0.1500; stroke-opacity:1; 
stroke-linecap:round; stroke-linejoin:round;">
<text x="21.1560" y="4.4982"
textLength="5.5833" font-size="1.3333" lengthAdjust="spacingAndGlyphs"
text-anchor="middle" opacity="0" stroke-opacity="0">17 mm</text>
<g class="stroked-text"><desc>17 mm</desc>
<path d="M19.2512 4.4531
L18.6798 4.4531
" />
<path d="M18.9655 4.4531
L18.9655 3.4531
" />
<path d="M18.9655 3.4531
L18.8702 3.5959
" />
<path d="M18.8702 3.5959
L18.7750 3.6912
" />
<path d="M18.7750 3.6912
L18.6798 3.7388
" />
<path d="M19.5845 3.4531
L20.2512 3.4531
" />
<path d="M20.2512 3.4531
L19.8226 4.4531
" />
<path d="M21.3940 4.4531
L21.3940 3.7864
" />
<path d="M21.3940 3.8816
L21.4417 3.8340
" />
<path d="M21.4417 3.8340
L21.5369 3.7864
" />
<path d="M21.5369 3.7864
L21.6798 3.7864
" />
<path d="M21.6798 3.7864
L21.7750 3.8340
" />
<path d="M21.7750 3.8340
L21.8226 3.9293
" />
<path d="M21.8226 3.9293
L21.8226 4.4531
" />
<path d="M21.8226 3.9293
L21.8702 3.8340
" />
<path d="M21.8702 3.8340
L21.9655 3.7864
" />
<path d="M21.9655 3.7864
L22.1083 3.7864
" />
<path d="M22.1083 3.7864
L22.2036 3.8340
" />
<path d="M22.2036 3.8340
L22.2512 3.9293
" />
<path d="M22.2512 3.9293
L22.2512 4.4531
" />
<path d="M22.7274 4.4531
L22.7274 3.7864
" />
<path d="M22.7274 3.8816
L22.7750 3.8340
" />
<path d="M22.7750 3.8340
L22.8702 3.7864
" />
<path d="M22.8702 3.7864
L23.0131 3.7864
" />
<path d="M23.0131 3.7864
L23.1083 3.8340
" />
<path d="M23.1083 3.8340
L23.1560 3.9293
" />
<path d="M23.1560 3.9293
L23.1560 4.4531
" />
<path d="M23.1560 3.9293
L23.2036 3.8340
" />
<path d="M23.2036 3.8340
L23.2988 3.7864
" />
<path d="M23.2988 3.7864
L23.4417 3.7864
" />
<path d="M23.4417 3.7864
L23.5369 3.8340
" />
<path d="M23.5369 3.8340
L23.5845 3.9293
" />
<path d="M23.5845 3.9293
L23.5845 4.4531
" />
</g></g>
<g style="fill:none; 
stroke:#000000; stroke-width:0.1000; stroke-opacity:1; 
stroke-linecap:round; stroke-linejoin:round;">
<path d="M12.6560 7.9982
L12.6560 3.4118
" />
<path d="M29.6560 7.9982
L29.6560 3.4118
" />
<path d="M12.6560 3.9982
L17.8643 3.9982
" />
<path d="M24.4476 3.9982
L29.6560 3.9982
" />
<path d="M12.6560 3.9982
L13.7825 3.4118
" />
<path d="M12.6560 3.9982
L13.7825 4.5847
" />
<path d="M29.6560 3.9982
L28.5294 4.5847
" />
<path d="M29.6560 3.9982
L28.5294 3.4118
" />
</g>
<g style="fill:none; 
stroke:#000000; stroke-width:0.1500; stroke-opacity:1; 
stroke-linecap:round; stroke-linejoin:round;">
<g transform="rotate(-89.999989 3.5060 11.4982)">
<text x="3.5060" y="11.9982"
textLength="7.0119" font-size="1.3333" lengthAdjust="spacingAndGlyphs"
text-anchor="middle" opacity="0" stroke-opacity="0">10.4 mm</text>
</g>
<g class="stroked-text"><desc>10.4 mm</desc>
<path d="M3.9608 14.1173
L3.9608 14.6887
" />
<path d="M3.9608 14.4030
L2.9608 14.4030
" />
<path d="M2.9608 14.4030
L3.1036 14.4982
" />
<path d="M3.1036 14.4982
L3.1989 14.5935
" />
<path d="M3.1989 14.5935
L3.2465 14.6887
" />
<path d="M2.9608 13.4982
L2.9608 13.4030
" />
<path d="M2.9608 13.4030
L3.0084 13.3078
" />
<path d="M3.0084 13.3078
L3.0560 13.2602
" />
<path d="M3.0560 13.2602
L3.1512 13.2125
" />
<path d="M3.1512 13.2125
L3.3417 13.1649
" />
<path d="M3.3417 13.1649
L3.5798 13.1649
" />
<path d="M3.5798 13.1649
L3.7703 13.2125
" />
<path d="M3.7703 13.2125
L3.8655 13.2602
" />
<path d="M3.8655 13.2602
L3.9132 13.3078
" />
<path d="M3.9132 13.3078
L3.9608 13.4030
" />
<path d="M3.9608 13.4030
L3.9608 13.4982
" />
<path d="M3.9608 13.4982
L3.9132 13.5935
" />
<path d="M3.9132 13.5935
L3.8655 13.6411
" />
<path d="M3.8655 13.6411
L3.7703 13.6887
" />
<path d="M3.7703 13.6887
L3.5798 13.7363
" />
<path d="M3.5798 13.7363
L3.3417 13.7363
" />
<path d="M3.3417 13.7363
L3.1512 13.6887
" />
<path d="M3.1512 13.6887
L3.0560 13.6411
" />
<path d="M3.0560 13.6411
L3.0084 13.5935
" />
<path d="M3.0084 13.5935
L2.9608 13.4982
" />
<path d="M3.8655 12.7363
L3.9132 12.6887
" />
<path d="M3.9132 12.6887
L3.9608 12.7363
" />
<path d="M3.9608 12.7363
L3.9132 12.7840
" />
<path d="M3.9132 12.7840
L3.8655 12.7363
" />
<path d="M3.8655 12.7363
L3.9608 12.7363
" />
<path d="M3.2941 11.8316
L3.9608 11.8316
" />
<path d="M2.9132 12.0697
L3.6274 12.3078
" />
<path d="M3.6274 12.3078
L3.6274 11.6887
" />
<path d="M3.9608 10.5459
L3.2941 10.5459
" />
<path d="M3.3893 10.5459
L3.3417 10.4982
" />
<path d="M3.3417 10.4982
L3.2941 10.4030
" />
<path d="M3.2941 10.4030
L3.2941 10.2602
" />
<path d="M3.2941 10.2602
L3.3417 10.1649
" />
<path d="M3.3417 10.1649
L3.4370 10.1173
" />
<path d="M3.4370 10.1173
L3.9608 10.1173
" />
<path d="M3.4370 10.1173
L3.3417 10.0697
" />
<path d="M3.3417 10.0697
L3.2941 9.9744
" />
<path d="M3.2941 9.9744
L3.2941 9.8316
" />
<path d="M3.2941 9.8316
L3.3417 9.7363
" />
<path d="M3.3417 9.7363
L3.4370 9.6887
" />
<path d="M3.4370 9.6887
L3.9608 9.6887
" />
<path d="M3.9608 9.2125
L3.2941 9.2125
" />
<path d="M3.3893 9.2125
L3.3417 9.1649
" />
<path d="M3.3417 9.1649
L3.2941 9.0697
" />
<path d="M3.2941 9.0697
L3.2941 8.9268
" />
<path d="M3.2941 8.9268
L3.3417 8.8316
" />
<path d="M3.3417 8.8316
L3.4370 8.7840
" />
<path d="M3.4370 8.7840
L3.9608 8.7840
" />
<path d="M3.4370 8.7840
L3.3417 8.7363
" />
<path d="M3.3417 8.7363
L3.2941 8.6411
" />
<path d="M3.2941 8.6411
L3.2941 8.4982
" />
<path d="M3.2941 8.4982
L3.3417 8.4030
" />
<path d="M3.3417 8.4030
L3.4370 8.3554
" />
<path d="M3.4370 8.3554
L3.9608 8.3554
" />
</g></g>
<g style="fill:none; 
stroke:#000000; stroke-width:0.1000; stroke-opacity:1; 
stroke-linecap:round; stroke-linejoin:round;">
<path d="M6.6560 16.6982
L4.0695 16.6982
" />
<path d="M6.6560 6.2982
L4.0695 6.2982
" />
<path d="M4.6560 16.6982
L4.6560 6.2982
" />
<path d="M4.6560 16.6982
L4.0695 15.5717
" />
<path d="M4.6560 16.6982
L5.2424 15.5717
" />
<path d="M4.6560 6.2982
L5.2424 7.4248
" />
<path d="M4.6560 6.2982
L4.0695 7.4248
" />
<path d="M9.4060 7.0982
L9.9060 7.0982
" />
<path d="M9.4060 8.0983
L9.4060 7.0982
" />
<path d="M9.9060 7.0982
L9.9060 8.0983
" />
<path d="M9.9060 8.0983
L9.4060 8.0983
" />
<path d="M33.3860 9.1732
L33.9260 9.1732
" />
<path d="M33.3860 10.2233
L33.3860 9.1732
" />
<path d="M33.9260 9.1732
L33.9260 10.2233
" />
<path d="M33.9260 10.2233
L33.3860 10.2233
" />
<path d="M29.4060 7.0982
L29.9060 7.0982
" />
<path d="M29.4060 8.0983
L29.4060 7.0982
" />
<path d="M29.9060 7.0982
L29.9060 8.0983
" />
<path d="M29.9060 8.0983
L29.4060 8.0983
" />
<path d="M34.4060 7.0982
L34.9060 7.0982
" />
<path d="M34.4060 8.0983
L34.4060 7.0982
" />
<path d="M34.9060 7.0982
L34.9060 8.0983
" />
<path d="M34.9060 8.0983
L34.4060 8.0983
" />
<path d="M8.4060 7.0982
L8.9060 7.0982
" />
<path d="M8.4060 8.0983
L8.4060 7.0982
" />
<path d="M8.9060 7.0982
L8.9060 8.0983
" />
<path d="M8.9060 8.0983
L8.4060 8.0983
" />
<path d="M7.3860 9.1732
L7.9260 9.1732
" />
<path d="M7.3860 10.2233
L7.3860 9.1732
" />
<path d="M7.9260 9.1732
L7.9260 10.2233
" />
<path d="M7.9260 10.2233
L7.3860 10.2233
" />
<path d="M12.3860 9.1732
L12.9260 9.1732
" />
<path d="M12.3860 10.2233
L12.3860 9.1732
" />
<path d="M12.9260 9.1732
L12.9260 10.2233
" />
<path d="M12.9260 10.2233
L12.3860 10.2233
" />
<path d="M31.4060 7.0982
L31.9060 7.0982
" />
<path d="M31.4060 8.0983
L31.4060 7.0982
" />
<path d="M31.9060 7.0982
L31.9060 8.0983
" />
<path d="M31.9060 8.0983
L31.4060 8.0983
" />
<path d="M9.3860 9.1732
L9.9260 9.1732
" />
<path d="M9.3860 10.2233
L9.3860 9.1732
" />
<path d="M9.9260 9.1732
L9.9260 10.2233
" />
<path d="M9.9260 10.2233
L9.3860 10.2233
" />
<path d="M30.4060 7.0982
L30.9060 7.0982
" />
<path d="M30.4060 8.0983
L30.4060 7.0982
" />
<path d="M30.9060 7.0982
L30.9060 8.0983
" />
<path d="M30.9060 8.0983
L30.4060 8.0983
" />
<path d="M11.3860 9.1732
L11.9260 9.1732
" />
<path d="M11.3860 10.2233
L11.3860 9.1732
" />
<path d="M11.9260 9.1732
L11.9260 10.2233
" />
<path d="M11.9260 10.2233
L11.3860 10.2233
" />
<path d="M10.3860 9.1732
L10.9260 9.1732
" />
<path d="M10.3860 10.2233
L10.3860 9.1732
" />
<path d="M10.9260 9.1732
L10.9260 10.2233
" />
<path d="M10.9260 10.2233
L10.3860 10.2233
" />
<path d="M33.4060 7.0982
L33.9060 7.0982
" />
<path d="M33.4060 8.0983
L33.4060 7.0982
" />
<path d="M33.9060 7.0982
L33.9060 8.0983
" />
<path d="M33.9060 8.0983
L33.4060 8.0983
" />
<path d="M29.3860 9.1732
L29.9260 9.1732
" />
<path d="M29.3860 10.2233
L29.3860 9.1732
" />
<path d="M29.9260 9.1732
L29.9260 10.2233
" />
<path d="M29.9260 10.2233
L29.3860 10.2233
" />
<path d="M31.3860 9.1732
L31.9260 9.1732
" />
<path d="M31.3860 10.2233
L31.3860 9.1732
" />
<path d="M31.9260 9.1732
L31.9260 10.2233
" />
<path d="M31.9260 10.2233
L31.3860 10.2233
" />
<path d="M7.4060 7.0982
L7.9060 7.0982
" />
<path d="M7.4060 8.0983
L7.4060 7.0982
" />
<path d="M7.9060 7.0982
L7.9060 8.0983
" />
<path d="M7.9060 8.0983
L7.4060 8.0983
" />
<path d="M32.4060 7.1007
L32.9060 7.1007
" />
<path d="M32.4060 8.1007
L32.4060 7.1007
" />
<path d="M32.9060 7.1007
L32.9060 8.1007
" />
<path d="M32.9060 8.1007
L32.4060 8.1007
" />
<path d="M30.3860 9.1732
L30.9260 9.1732
" />
<path d="M30.3860 10.2233
L30.3860 9.1732
" />
<path d="M30.9260 9.1732
L30.9260 10.2233
" />
<path d="M30.9260 10.2233
L30.3860 10.2233
" />
<path d="M8.3860 9.1732
L8.9260 9.1732
" />
<path d="M8.3860 10.2233
L8.3860 9.1732
" />
<path d="M8.9260 9.1732
L8.9260 10.2233
" />
<path d="M8.9260 10.2233
L8.3860 10.2233
" />
<path d="M11.4060 7.0982
L11.9060 7.0982
" />
<path d="M11.4060 8.0983
L11.4060 7.0982
" />
<path d="M11.9060 7.0982
L11.9060 8.0983
" />
<path d="M11.9060 8.0983
L11.4060 8.0983
" />
<path d="M12.4060 7.0982
L12.9060 7.0982
" />
<path d="M12.4060 8.0983
L12.4060 7.0982
" />
<path d="M12.9060 7.0982
L12.9060 8.0983
" />
<path d="M12.9060 8.0983
L12.4060 8.0983
" />
<path d="M10.4060 7.0982
L10.9060 7.0982
" />
<path d="M10.4060 8.0983
L10.4060 7.0982
" />
<path d="M10.9060 7.0982
L10.9060 8.0983
" />
<path d="M10.9060 8.0983
L10.4060 8.0983
" />
<path d="M32.3860 9.1757
L32.9260 9.1757
" />
<path d="M32.3860 10.2257
L32.3860 9.1757
" />
<path d="M32.9260 9.1757
L32.9260 10.2257
" />
<path d="M32.9260 10.2257
L32.3860 10.2257
" />
<path d="M34.3860 9.1732
L34.9260 9.1732
" />
<path d="M34.3860 10.2233
L34.3860 9.1732
" />
<path d="M34.9260 9.1732
L34.9260 10.2233
" />
<path d="M34.9260 10.2233
L34.3860 10.2233
" />
</g>
<g style="fill:none; 
stroke:#000000; stroke-width:0.0381; stroke-opacity:1; 
stroke-linecap:round; stroke-linejoin:round;">
<path d="M6.1560 6.9982
L6.1560 15.9982
" />
<path d="M7.1560 16.9982
L35.1560 16.9982
" />
<path d="M6.1560 15.9982 A1.0000 1.0000 0.0 0 0 7.1560 16.9982" />
<path d="M36.1560 6.9982 A1.0000 1.0000 0.0 0 0 35.1560 5.9982" />
<path d="M35.1560 5.9982
L7.1560 5.9982
" />
<path d="M36.1560 15.9982
L36.1560 6.9982
" />
<path d="M35.1560 16.9982 A1.0000 1.0000 0.0 0 0 36.1560 15.9982" />
<path d="M7.1560 5.9982 A1.0000 1.0000 0.0 0 0 6.1560 6.9982" />
</g>
<g style="fill:#FFFFFF; fill-opacity:1.0000; stroke:none;">
<circle cx="10.9960" cy="16.6082" r="0.1500" /> 
</g>
<g style="fill:#FFFFFF; fill-opacity:1.0000; stroke:none;">
<circle cx="16.0560" cy="16.6483" r="0.1500" /> 
</g>
<g style="fill:#FFFFFF; fill-opacity:1.0000; stroke:none;">
<circle cx="21.1560" cy="16.6883" r="0.1500" /> 
</g>
<g style="fill:#FFFFFF; fill-opacity:1.0000; stroke:none;">
<circle cx="26.2460" cy="16.6382" r="0.1500" /> 
</g>
<g style="fill:#FFFFFF; fill-opacity:1.0000; stroke:none;">
<circle cx="31.3360" cy="16.6082" r="0.1500" /> 
</g>
<g style="fill:#FFFFFF; fill-opacity:1.0000; stroke:none;">
<circle cx="26.2560" cy="6.3882" r="0.1500" /> 
</g>
<g style="fill:#FFFFFF; fill-opacity:1.0000; stroke:none;">
<circle cx="11.0360" cy="6.3782" r="0.1500" /> 
</g>
<g style="fill:#FFFFFF; fill-opacity:1.0000; stroke:none;">
<circle cx="16.0760" cy="6.4082" r="0.1500" /> 
</g>
<g style="fill:#FFFFFF; fill-opacity:1.0000; stroke:none;">
<circle cx="31.3560" cy="6.5282" r="0.1500" /> 
</g>
<g style="fill:#FFFFFF; fill-opacity:1.0000; stroke:none;">
<circle cx="23.6960" cy="12.4982" r="0.6000" /> 
</g>
<g style="fill:#FFFFFF; fill-opacity:1.0000; stroke:none;">
<circle cx="13.5360" cy="12.4982" r="0.6000" /> 
</g>
<g style="fill:#FFFFFF; fill-opacity:1.0000; stroke:none;">
<circle cx="8.4560" cy="11.8982" r="0.6000" /> 
</g>
<g style="fill:#FFFFFF; fill-opacity:1.0000; stroke:none;">
<circle cx="28.7760" cy="12.4982" r="0.6000" /> 
</g>
<g style="fill:#FFFFFF; fill-opacity:1.0000; stroke:none;">
<circle cx="18.6160" cy="12.4982" r="0.6000" /> 
</g>
<g style="fill:#FFFFFF; fill-opacity:1.0000; stroke:none;">
<circle cx="33.8560" cy="11.8982" r="0.6000" /> 
</g> 
</svg>
