%TF.GenerationSoftware,KiCad,Pcbnew,10.0.3-10.0.3~ubuntu24.04.1*%
%TF.CreationDate,2026-07-07T08:46:40+01:00*%
%TF.ProjectId,flexBracelet,666c6578-4272-4616-9365-6c65742e6b69,rev?*%
%TF.SameCoordinates,Original*%
%TF.FileFunction,Copper,L3,Inr*%
%TF.FilePolarity,Positive*%
%FSLAX46Y46*%
G04 Gerber Fmt 4.6, Leading zero omitted, Abs format (unit mm)*
G04 Created by KiCad (PCBNEW 10.0.3-10.0.3~ubuntu24.04.1) date 2026-07-07 08:46:40*
%MOMM*%
%LPD*%
G01*
G04 APERTURE LIST*
%TA.AperFunction,Conductor*%
%ADD10C,0.127000*%
%TD*%
%TA.AperFunction,ViaPad*%
%ADD11C,0.350000*%
%TD*%
%TA.AperFunction,ViaPad*%
%ADD12C,0.500000*%
%TD*%
G04 APERTURE END LIST*
%TO.N,/out23*%
D10*
X88125000Y-97500000D02*
G75*
G02*
X88875000Y-98250000I0J-750000D01*
G01*
%TO.N,/out21*%
X88875000Y-93250000D02*
X88875000Y-95750000D01*
X88875000Y-93250000D02*
G75*
G02*
X90125000Y-93250000I625000J0D01*
G01*
X88875000Y-95750000D02*
G75*
G02*
X88125000Y-96500000I-750000J0D01*
G01*
%TO.N,/out23*%
X88875000Y-100750000D02*
X88875000Y-98250000D01*
%TO.N,/out21*%
X90125000Y-93250000D02*
X90125000Y-95750000D01*
%TO.N,/out23*%
X90125000Y-98250000D02*
G75*
G02*
X91375000Y-98250000I625000J0D01*
G01*
X90125000Y-100750000D02*
G75*
G02*
X88875000Y-100750000I-625000J0D01*
G01*
X90125000Y-100750000D02*
X90125000Y-98250000D01*
%TO.N,/out21*%
X91375000Y-93250000D02*
X91375000Y-95750000D01*
X91375000Y-93250000D02*
G75*
G02*
X92625000Y-93250000I625000J0D01*
G01*
X91375000Y-95750000D02*
G75*
G02*
X90125000Y-95750000I-625000J0D01*
G01*
%TO.N,/out23*%
X91375000Y-100750000D02*
X91375000Y-98250000D01*
%TO.N,/out21*%
X92625000Y-93250000D02*
X92625000Y-95750000D01*
%TO.N,/out23*%
X92625000Y-98250000D02*
G75*
G02*
X93875000Y-98250000I625000J0D01*
G01*
X92625000Y-100750000D02*
G75*
G02*
X91375000Y-100750000I-625000J0D01*
G01*
X92625000Y-100750000D02*
X92625000Y-98250000D01*
%TO.N,/out21*%
X93875000Y-93250000D02*
X93875000Y-95750000D01*
X93875000Y-93250000D02*
G75*
G02*
X95125000Y-93250000I625000J0D01*
G01*
X93875000Y-95750000D02*
G75*
G02*
X92625000Y-95750000I-625000J0D01*
G01*
%TO.N,/out23*%
X93875000Y-100750000D02*
X93875000Y-98250000D01*
%TO.N,/out21*%
X95125000Y-93250000D02*
X95125000Y-95750000D01*
%TO.N,/out23*%
X95125000Y-98250000D02*
G75*
G02*
X95875000Y-97500000I750000J0D01*
G01*
X95125000Y-100750000D02*
G75*
G02*
X93875000Y-100750000I-625000J0D01*
G01*
X95125000Y-100750000D02*
X95125000Y-98250000D01*
%TO.N,/out21*%
X95875000Y-96500000D02*
G75*
G02*
X95125000Y-95750000I0J750000D01*
G01*
X95875000Y-96500000D02*
X100125000Y-96500000D01*
%TO.N,/out23*%
X95875000Y-97500000D02*
X100125000Y-97500000D01*
X100125000Y-97500000D02*
G75*
G02*
X100875000Y-98250000I0J-750000D01*
G01*
%TO.N,/out21*%
X100875000Y-93250000D02*
X100875000Y-95750000D01*
X100875000Y-93250000D02*
G75*
G02*
X102125000Y-93250000I625000J0D01*
G01*
X100875000Y-95750000D02*
G75*
G02*
X100125000Y-96500000I-750000J0D01*
G01*
%TO.N,/out23*%
X100875000Y-100750000D02*
X100875000Y-98250000D01*
%TO.N,/out21*%
X102125000Y-93250000D02*
X102125000Y-95750000D01*
%TO.N,/out23*%
X102125000Y-98250000D02*
G75*
G02*
X103375000Y-98250000I625000J0D01*
G01*
X102125000Y-100750000D02*
G75*
G02*
X100875000Y-100750000I-625000J0D01*
G01*
X102125000Y-100750000D02*
X102125000Y-98250000D01*
%TO.N,/out21*%
X103375000Y-93250000D02*
X103375000Y-95750000D01*
X103375000Y-93250000D02*
G75*
G02*
X104625000Y-93250000I625000J0D01*
G01*
X103375000Y-95750000D02*
G75*
G02*
X102125000Y-95750000I-625000J0D01*
G01*
%TO.N,/out23*%
X103375000Y-100750000D02*
X103375000Y-98250000D01*
%TO.N,/out21*%
X104625000Y-93250000D02*
X104625000Y-95750000D01*
%TO.N,/out23*%
X104625000Y-98250000D02*
G75*
G02*
X105875000Y-98250000I625000J0D01*
G01*
X104625000Y-100750000D02*
G75*
G02*
X103375000Y-100750000I-625000J0D01*
G01*
X104625000Y-100750000D02*
X104625000Y-98250000D01*
%TO.N,/out21*%
X105875000Y-93250000D02*
X105875000Y-95750000D01*
X105875000Y-93250000D02*
G75*
G02*
X107125000Y-93250000I625000J0D01*
G01*
X105875000Y-95750000D02*
G75*
G02*
X104625000Y-95750000I-625000J0D01*
G01*
%TO.N,/out23*%
X105875000Y-100750000D02*
X105875000Y-98250000D01*
%TO.N,/out21*%
X107125000Y-93250000D02*
X107125000Y-95750000D01*
%TO.N,/out23*%
X107125000Y-98250000D02*
G75*
G02*
X107875000Y-97500000I750000J0D01*
G01*
X107125000Y-100750000D02*
G75*
G02*
X105875000Y-100750000I-625000J0D01*
G01*
X107125000Y-100750000D02*
X107125000Y-98250000D01*
%TO.N,/out21*%
X107875000Y-96500000D02*
G75*
G02*
X107125000Y-95750000I0J750000D01*
G01*
X112750000Y-96386500D02*
X107875000Y-96500000D01*
%TO.N,/out23*%
X112750000Y-97613500D02*
X107875000Y-97500000D01*
X112750000Y-97613500D02*
G75*
G02*
X113886500Y-98750000I0J-1136500D01*
G01*
%TO.N,/out21*%
X113886500Y-93000000D02*
X113886500Y-95250000D01*
X113886500Y-93000000D02*
G75*
G02*
X115113500Y-93000000I613500J0D01*
G01*
X113886500Y-95250000D02*
G75*
G02*
X112750000Y-96386500I-1136500J0D01*
G01*
%TO.N,/out23*%
X113886500Y-101000000D02*
X113886500Y-98750000D01*
%TO.N,/out21*%
X115113500Y-93000000D02*
X115113500Y-95250000D01*
%TO.N,/out23*%
X115113500Y-98750000D02*
G75*
G02*
X116886500Y-98750000I886500J0D01*
G01*
X115113500Y-101000000D02*
G75*
G02*
X113886500Y-101000000I-613500J0D01*
G01*
X115113500Y-101000000D02*
X115113500Y-98750000D01*
%TO.N,/out21*%
X116886500Y-93000000D02*
X116886500Y-95250000D01*
X116886500Y-93000000D02*
G75*
G02*
X118113500Y-93000000I613500J0D01*
G01*
X116886500Y-95250000D02*
G75*
G02*
X115113500Y-95250000I-886500J0D01*
G01*
%TO.N,/out23*%
X116886500Y-101000000D02*
X116886500Y-98750000D01*
%TO.N,/out21*%
X118113500Y-93000000D02*
X118113500Y-95250000D01*
%TO.N,/out23*%
X118113500Y-98750000D02*
G75*
G02*
X119250000Y-97613500I1136500J0D01*
G01*
X118113500Y-101000000D02*
G75*
G02*
X116886500Y-101000000I-613500J0D01*
G01*
X118113500Y-101000000D02*
X118113500Y-98750000D01*
%TO.N,/out21*%
X119250000Y-96386500D02*
G75*
G02*
X118113500Y-95250000I0J1136500D01*
G01*
X119250000Y-96386500D02*
X124750000Y-96386500D01*
%TO.N,/out23*%
X119250000Y-97613500D02*
X124750000Y-97613500D01*
X124750000Y-97613500D02*
G75*
G02*
X125886500Y-98750000I0J-1136500D01*
G01*
%TO.N,/out21*%
X125886500Y-93000000D02*
X125886500Y-95250000D01*
X125886500Y-93000000D02*
G75*
G02*
X127113500Y-93000000I613500J0D01*
G01*
X125886500Y-95250000D02*
G75*
G02*
X124750000Y-96386500I-1136500J0D01*
G01*
%TO.N,/out23*%
X125886500Y-101000000D02*
X125886500Y-98750000D01*
%TO.N,/out21*%
X127113500Y-93000000D02*
X127113500Y-95250000D01*
%TO.N,/out23*%
X127113500Y-98750000D02*
G75*
G02*
X128886500Y-98750000I886500J0D01*
G01*
X127113500Y-101000000D02*
G75*
G02*
X125886500Y-101000000I-613500J0D01*
G01*
X127113500Y-101000000D02*
X127113500Y-98750000D01*
%TO.N,/out21*%
X128886500Y-93000000D02*
X128886500Y-95250000D01*
X128886500Y-93000000D02*
G75*
G02*
X130113500Y-93000000I613500J0D01*
G01*
X128886500Y-95250000D02*
G75*
G02*
X127113500Y-95250000I-886500J0D01*
G01*
%TO.N,/out23*%
X128886500Y-101000000D02*
X128886500Y-98750000D01*
%TO.N,/out21*%
X130113500Y-93000000D02*
X130113500Y-95250000D01*
%TO.N,/out23*%
X130113500Y-98750000D02*
G75*
G02*
X131250000Y-97613500I1136500J0D01*
G01*
X130113500Y-101000000D02*
G75*
G02*
X128886500Y-101000000I-613500J0D01*
G01*
X130113500Y-101000000D02*
X130113500Y-98750000D01*
%TO.N,/out21*%
X131250000Y-96386500D02*
G75*
G02*
X130113500Y-95250000I0J1136500D01*
G01*
X131250000Y-96386500D02*
X136750000Y-96386500D01*
%TO.N,/out23*%
X131250000Y-97613500D02*
X136750000Y-97613500D01*
%TO.N,/out5*%
X134000000Y-89500000D02*
X134000000Y-95000000D01*
%TO.N,/out7*%
X134000000Y-104500000D02*
X134000000Y-99000000D01*
%TO.N,/out23*%
X136750000Y-97613500D02*
G75*
G02*
X137886500Y-98750000I0J-1136500D01*
G01*
%TO.N,/out7*%
X136750000Y-97886500D02*
G75*
G02*
X137613500Y-98750000I0J-863500D01*
G01*
%TO.N,/out5*%
X137613500Y-93000000D02*
G75*
G02*
X139386500Y-93000000I886500J0D01*
G01*
X137613500Y-95250000D02*
G75*
G02*
X136750000Y-96113500I-863500J0D01*
G01*
X137613500Y-95250000D02*
X137613500Y-93000000D01*
%TO.N,/out7*%
X137613500Y-98750000D02*
X137613500Y-101000000D01*
%TO.N,/out21*%
X137886500Y-93000000D02*
X137886500Y-95250000D01*
X137886500Y-93000000D02*
G75*
G02*
X139113500Y-93000000I613500J0D01*
G01*
X137886500Y-95250000D02*
G75*
G02*
X136750000Y-96386500I-1136500J0D01*
G01*
%TO.N,/out23*%
X137886500Y-101000000D02*
X137886500Y-98750000D01*
%TO.N,/out21*%
X139113500Y-93000000D02*
X139113500Y-95250000D01*
%TO.N,/out23*%
X139113500Y-98750000D02*
G75*
G02*
X140886500Y-98750000I886500J0D01*
G01*
X139113500Y-101000000D02*
G75*
G02*
X137886500Y-101000000I-613500J0D01*
G01*
X139113500Y-101000000D02*
X139113500Y-98750000D01*
%TO.N,/out5*%
X139386500Y-95250000D02*
X139386500Y-93000000D01*
%TO.N,/out7*%
X139386500Y-98750000D02*
X139386500Y-101000000D01*
X139386500Y-98750000D02*
G75*
G02*
X140613500Y-98750000I613500J0D01*
G01*
X139386500Y-101000000D02*
G75*
G02*
X137613500Y-101000000I-886500J0D01*
G01*
%TO.N,/out5*%
X140613500Y-93000000D02*
X140613500Y-95250000D01*
X140613500Y-93000000D02*
G75*
G02*
X142386500Y-93000000I886500J0D01*
G01*
X140613500Y-95250000D02*
G75*
G02*
X139386500Y-95250000I-613500J0D01*
G01*
%TO.N,/out7*%
X140613500Y-101000000D02*
X140613500Y-98750000D01*
%TO.N,/out21*%
X140886500Y-93000000D02*
X140886500Y-95250000D01*
X140886500Y-93000000D02*
G75*
G02*
X142113500Y-93000000I613500J0D01*
G01*
X140886500Y-95250000D02*
G75*
G02*
X139113500Y-95250000I-886500J0D01*
G01*
%TO.N,/out23*%
X140886500Y-101000000D02*
X140886500Y-98750000D01*
%TO.N,/out21*%
X142113500Y-93000000D02*
X142113500Y-95250000D01*
%TO.N,/out23*%
X142113500Y-98750000D02*
G75*
G02*
X143250000Y-97613500I1136500J0D01*
G01*
X142113500Y-101000000D02*
G75*
G02*
X140886500Y-101000000I-613500J0D01*
G01*
X142113500Y-101000000D02*
X142113500Y-98750000D01*
%TO.N,/out5*%
X142386500Y-95250000D02*
X142386500Y-93000000D01*
%TO.N,/out7*%
X142386500Y-98750000D02*
X142386500Y-101000000D01*
X142386500Y-98750000D02*
G75*
G02*
X143250000Y-97886500I863500J0D01*
G01*
X142386500Y-101000000D02*
G75*
G02*
X140613500Y-101000000I-886500J0D01*
G01*
%TO.N,/out5*%
X143250000Y-96113500D02*
G75*
G02*
X142386500Y-95250000I0J863500D01*
G01*
%TO.N,/out21*%
X143250000Y-96386500D02*
G75*
G02*
X142113500Y-95250000I0J1136500D01*
G01*
X143526500Y-96386500D02*
X143250000Y-96386500D01*
%TO.N,/out22*%
X160473500Y-96386500D02*
X160750000Y-96386500D01*
%TO.N,/out24*%
X160750000Y-97613500D02*
G75*
G02*
X161886500Y-98750000I0J-1136500D01*
G01*
%TO.N,/out8*%
X160750000Y-97886500D02*
G75*
G02*
X161613500Y-98750000I0J-863500D01*
G01*
%TO.N,/out6*%
X161613500Y-93000000D02*
G75*
G02*
X163386500Y-93000000I886500J0D01*
G01*
X161613500Y-95250000D02*
G75*
G02*
X160750000Y-96113500I-863500J0D01*
G01*
X161613500Y-95250000D02*
X161613500Y-93000000D01*
%TO.N,/out8*%
X161613500Y-98750000D02*
X161613500Y-101000000D01*
%TO.N,/out22*%
X161886500Y-93000000D02*
X161886500Y-95250000D01*
X161886500Y-93000000D02*
G75*
G02*
X163113500Y-93000000I613500J0D01*
G01*
X161886500Y-95250000D02*
G75*
G02*
X160750000Y-96386500I-1136500J0D01*
G01*
%TO.N,/out24*%
X161886500Y-101000000D02*
X161886500Y-98750000D01*
%TO.N,/out22*%
X163113500Y-93000000D02*
X163113500Y-95250000D01*
%TO.N,/out24*%
X163113500Y-98750000D02*
G75*
G02*
X164886500Y-98750000I886500J0D01*
G01*
X163113500Y-101000000D02*
G75*
G02*
X161886500Y-101000000I-613500J0D01*
G01*
X163113500Y-101000000D02*
X163113500Y-98750000D01*
%TO.N,/out6*%
X163386500Y-93000000D02*
X163386500Y-95250000D01*
%TO.N,/out8*%
X163386500Y-98750000D02*
G75*
G02*
X164613500Y-98750000I613500J0D01*
G01*
X163386500Y-101000000D02*
G75*
G02*
X161613500Y-101000000I-886500J0D01*
G01*
X163386500Y-101000000D02*
X163386500Y-98750000D01*
%TO.N,/out6*%
X164613500Y-93000000D02*
G75*
G02*
X166386500Y-93000000I886500J0D01*
G01*
X164613500Y-95250000D02*
G75*
G02*
X163386500Y-95250000I-613500J0D01*
G01*
X164613500Y-95250000D02*
X164613500Y-93000000D01*
%TO.N,/out8*%
X164613500Y-98750000D02*
X164613500Y-101000000D01*
%TO.N,/out22*%
X164886500Y-93000000D02*
X164886500Y-95250000D01*
X164886500Y-93000000D02*
G75*
G02*
X166113500Y-93000000I613500J0D01*
G01*
X164886500Y-95250000D02*
G75*
G02*
X163113500Y-95250000I-886500J0D01*
G01*
%TO.N,/out24*%
X164886500Y-101000000D02*
X164886500Y-98750000D01*
%TO.N,/out22*%
X166113500Y-93000000D02*
X166113500Y-95250000D01*
%TO.N,/out24*%
X166113500Y-98750000D02*
G75*
G02*
X167250000Y-97613500I1136500J0D01*
G01*
X166113500Y-101000000D02*
G75*
G02*
X164886500Y-101000000I-613500J0D01*
G01*
X166113500Y-101000000D02*
X166113500Y-98750000D01*
%TO.N,/out6*%
X166386500Y-95250000D02*
X166386500Y-93000000D01*
%TO.N,/out8*%
X166386500Y-98750000D02*
X166386500Y-101000000D01*
X166386500Y-98750000D02*
G75*
G02*
X167250000Y-97886500I863500J0D01*
G01*
X166386500Y-101000000D02*
G75*
G02*
X164613500Y-101000000I-886500J0D01*
G01*
%TO.N,/out6*%
X167250000Y-96113500D02*
G75*
G02*
X166386500Y-95250000I0J863500D01*
G01*
%TO.N,/out22*%
X167250000Y-96386500D02*
G75*
G02*
X166113500Y-95250000I0J1136500D01*
G01*
%TO.N,/out6*%
X170000000Y-89500000D02*
X170000000Y-95000000D01*
%TO.N,/out8*%
X170000000Y-104500000D02*
X170000000Y-99000000D01*
%TO.N,/out22*%
X172750000Y-96386500D02*
X167250000Y-96386500D01*
%TO.N,/out24*%
X172750000Y-97613500D02*
X167250000Y-97613500D01*
X172750000Y-97613500D02*
G75*
G02*
X173886500Y-98750000I0J-1136500D01*
G01*
%TO.N,/out22*%
X173886500Y-93000000D02*
X173886500Y-95250000D01*
X173886500Y-93000000D02*
G75*
G02*
X175113500Y-93000000I613500J0D01*
G01*
X173886500Y-95250000D02*
G75*
G02*
X172750000Y-96386500I-1136500J0D01*
G01*
%TO.N,/out24*%
X173886500Y-101000000D02*
X173886500Y-98750000D01*
%TO.N,/out22*%
X175113500Y-93000000D02*
X175113500Y-95250000D01*
%TO.N,/out24*%
X175113500Y-98750000D02*
G75*
G02*
X176886500Y-98750000I886500J0D01*
G01*
X175113500Y-101000000D02*
G75*
G02*
X173886500Y-101000000I-613500J0D01*
G01*
X175113500Y-101000000D02*
X175113500Y-98750000D01*
%TO.N,/out22*%
X176886500Y-93000000D02*
X176886500Y-95250000D01*
X176886500Y-93000000D02*
G75*
G02*
X178113500Y-93000000I613500J0D01*
G01*
X176886500Y-95250000D02*
G75*
G02*
X175113500Y-95250000I-886500J0D01*
G01*
%TO.N,/out24*%
X176886500Y-101000000D02*
X176886500Y-98750000D01*
%TO.N,/out22*%
X178113500Y-93000000D02*
X178113500Y-95250000D01*
%TO.N,/out24*%
X178113500Y-98750000D02*
G75*
G02*
X179250000Y-97613500I1136500J0D01*
G01*
X178113500Y-101000000D02*
G75*
G02*
X176886500Y-101000000I-613500J0D01*
G01*
X178113500Y-101000000D02*
X178113500Y-98750000D01*
%TO.N,/out22*%
X179250000Y-96386500D02*
G75*
G02*
X178113500Y-95250000I0J1136500D01*
G01*
X184750000Y-96386500D02*
X179250000Y-96386500D01*
%TO.N,/out24*%
X184750000Y-97613500D02*
X179250000Y-97613500D01*
X184750000Y-97613500D02*
G75*
G02*
X185886500Y-98750000I0J-1136500D01*
G01*
%TO.N,/out22*%
X185886500Y-93000000D02*
X185886500Y-95250000D01*
X185886500Y-93000000D02*
G75*
G02*
X187113500Y-93000000I613500J0D01*
G01*
X185886500Y-95250000D02*
G75*
G02*
X184750000Y-96386500I-1136500J0D01*
G01*
%TO.N,/out24*%
X185886500Y-101000000D02*
X185886500Y-98750000D01*
%TO.N,/out22*%
X187113500Y-93000000D02*
X187113500Y-95250000D01*
%TO.N,/out24*%
X187113500Y-98750000D02*
G75*
G02*
X188886500Y-98750000I886500J0D01*
G01*
X187113500Y-101000000D02*
G75*
G02*
X185886500Y-101000000I-613500J0D01*
G01*
X187113500Y-101000000D02*
X187113500Y-98750000D01*
%TO.N,/out22*%
X188886500Y-93000000D02*
X188886500Y-95250000D01*
X188886500Y-93000000D02*
G75*
G02*
X190113500Y-93000000I613500J0D01*
G01*
X188886500Y-95250000D02*
G75*
G02*
X187113500Y-95250000I-886500J0D01*
G01*
%TO.N,/out24*%
X188886500Y-101000000D02*
X188886500Y-98750000D01*
%TO.N,/out22*%
X190113500Y-93000000D02*
X190113500Y-95250000D01*
%TO.N,/out24*%
X190113500Y-98750000D02*
G75*
G02*
X191250000Y-97613500I1136500J0D01*
G01*
X190113500Y-101000000D02*
G75*
G02*
X188886500Y-101000000I-613500J0D01*
G01*
X190113500Y-101000000D02*
X190113500Y-98750000D01*
%TO.N,/out22*%
X191250000Y-96386500D02*
G75*
G02*
X190113500Y-95250000I0J1136500D01*
G01*
X191250000Y-96386500D02*
X196125000Y-96500000D01*
%TO.N,/out24*%
X191250000Y-97613500D02*
X196125000Y-97500000D01*
X196125000Y-97500000D02*
G75*
G02*
X196875000Y-98250000I0J-750000D01*
G01*
%TO.N,/out22*%
X196875000Y-93250000D02*
X196875000Y-95750000D01*
X196875000Y-93250000D02*
G75*
G02*
X198125000Y-93250000I625000J0D01*
G01*
X196875000Y-95750000D02*
G75*
G02*
X196125000Y-96500000I-750000J0D01*
G01*
%TO.N,/out24*%
X196875000Y-100750000D02*
X196875000Y-98250000D01*
%TO.N,/out22*%
X198125000Y-93250000D02*
X198125000Y-95750000D01*
%TO.N,/out24*%
X198125000Y-98250000D02*
G75*
G02*
X199375000Y-98250000I625000J0D01*
G01*
X198125000Y-100750000D02*
G75*
G02*
X196875000Y-100750000I-625000J0D01*
G01*
X198125000Y-100750000D02*
X198125000Y-98250000D01*
%TO.N,/out22*%
X199375000Y-93250000D02*
X199375000Y-95750000D01*
X199375000Y-93250000D02*
G75*
G02*
X200625000Y-93250000I625000J0D01*
G01*
X199375000Y-95750000D02*
G75*
G02*
X198125000Y-95750000I-625000J0D01*
G01*
%TO.N,/out24*%
X199375000Y-100750000D02*
X199375000Y-98250000D01*
%TO.N,/out22*%
X200625000Y-93250000D02*
X200625000Y-95750000D01*
%TO.N,/out24*%
X200625000Y-98250000D02*
G75*
G02*
X201875000Y-98250000I625000J0D01*
G01*
X200625000Y-100750000D02*
G75*
G02*
X199375000Y-100750000I-625000J0D01*
G01*
X200625000Y-100750000D02*
X200625000Y-98250000D01*
%TO.N,/out22*%
X201875000Y-93250000D02*
X201875000Y-95750000D01*
X201875000Y-93250000D02*
G75*
G02*
X203125000Y-93250000I625000J0D01*
G01*
X201875000Y-95750000D02*
G75*
G02*
X200625000Y-95750000I-625000J0D01*
G01*
%TO.N,/out24*%
X201875000Y-100750000D02*
X201875000Y-98250000D01*
%TO.N,/out22*%
X203125000Y-93250000D02*
X203125000Y-95750000D01*
%TO.N,/out24*%
X203125000Y-98250000D02*
G75*
G02*
X203875000Y-97500000I750000J0D01*
G01*
X203125000Y-100750000D02*
G75*
G02*
X201875000Y-100750000I-625000J0D01*
G01*
X203125000Y-100750000D02*
X203125000Y-98250000D01*
%TO.N,/out22*%
X203875000Y-96500000D02*
G75*
G02*
X203125000Y-95750000I0J750000D01*
G01*
X208125000Y-96500000D02*
X203875000Y-96500000D01*
%TO.N,/out24*%
X208125000Y-97500000D02*
X203875000Y-97500000D01*
X208125000Y-97500000D02*
G75*
G02*
X208875000Y-98250000I0J-750000D01*
G01*
%TO.N,/out22*%
X208875000Y-93250000D02*
X208875000Y-95750000D01*
X208875000Y-93250000D02*
G75*
G02*
X210125000Y-93250000I625000J0D01*
G01*
X208875000Y-95750000D02*
G75*
G02*
X208125000Y-96500000I-750000J0D01*
G01*
%TO.N,/out24*%
X208875000Y-100750000D02*
X208875000Y-98250000D01*
%TO.N,/out22*%
X210125000Y-93250000D02*
X210125000Y-95750000D01*
%TO.N,/out24*%
X210125000Y-98250000D02*
G75*
G02*
X211375000Y-98250000I625000J0D01*
G01*
X210125000Y-100750000D02*
G75*
G02*
X208875000Y-100750000I-625000J0D01*
G01*
X210125000Y-100750000D02*
X210125000Y-98250000D01*
%TO.N,/out22*%
X211375000Y-93250000D02*
X211375000Y-95750000D01*
X211375000Y-93250000D02*
G75*
G02*
X212625000Y-93250000I625000J0D01*
G01*
X211375000Y-95750000D02*
G75*
G02*
X210125000Y-95750000I-625000J0D01*
G01*
%TO.N,/out24*%
X211375000Y-100750000D02*
X211375000Y-98250000D01*
%TO.N,/out22*%
X212625000Y-93250000D02*
X212625000Y-95750000D01*
%TO.N,/out24*%
X212625000Y-98250000D02*
G75*
G02*
X213875000Y-98250000I625000J0D01*
G01*
X212625000Y-100750000D02*
G75*
G02*
X211375000Y-100750000I-625000J0D01*
G01*
X212625000Y-100750000D02*
X212625000Y-98250000D01*
%TO.N,/out22*%
X213875000Y-93250000D02*
X213875000Y-95750000D01*
X213875000Y-93250000D02*
G75*
G02*
X215125000Y-93250000I625000J0D01*
G01*
X213875000Y-95750000D02*
G75*
G02*
X212625000Y-95750000I-625000J0D01*
G01*
%TO.N,/out24*%
X213875000Y-100750000D02*
X213875000Y-98250000D01*
%TO.N,/out22*%
X215125000Y-93250000D02*
X215125000Y-95750000D01*
%TO.N,/out24*%
X215125000Y-98250000D02*
G75*
G02*
X215875000Y-97500000I750000J0D01*
G01*
X215125000Y-100750000D02*
G75*
G02*
X213875000Y-100750000I-625000J0D01*
G01*
X215125000Y-100750000D02*
X215125000Y-98250000D01*
%TO.N,/out22*%
X215875000Y-96500000D02*
G75*
G02*
X215125000Y-95750000I0J750000D01*
G01*
%TD*%
D11*
%TO.N,/out33*%
X145320000Y-95500000D03*
D12*
%TO.N,/out26*%
X230000000Y-89500000D03*
D11*
X154408500Y-100800000D03*
%TO.N,/out16*%
X154550000Y-101830000D03*
%TO.N,/out9*%
X148700000Y-99900000D03*
D12*
X122000000Y-89500000D03*
D11*
%TO.N,/out24*%
X155250000Y-100620000D03*
D12*
X218000000Y-104500000D03*
%TO.N,/out8*%
X170000000Y-104500000D03*
D11*
X156190000Y-101830000D03*
%TO.N,/out11*%
X148580000Y-101850000D03*
D12*
X122000000Y-104500000D03*
%TO.N,/out18*%
X206000000Y-89500000D03*
D11*
X158090000Y-95930000D03*
X159340000Y-95760000D03*
%TO.N,/out10*%
X155300000Y-99900000D03*
D12*
X182000000Y-89500000D03*
D11*
%TO.N,/out19*%
X144349225Y-96409487D03*
D12*
X98000000Y-104500000D03*
D11*
X145251500Y-97250000D03*
%TO.N,/out14*%
X154070000Y-99900000D03*
%TO.N,/out28*%
X153980000Y-100470000D03*
D12*
X230000000Y-104500000D03*
%TO.N,/out21*%
X86000000Y-89500000D03*
D11*
X148160000Y-100630000D03*
%TO.N,/out30*%
X153460000Y-100970000D03*
%TO.N,/out27*%
X150020000Y-100470000D03*
D12*
X74000000Y-104500000D03*
%TO.N,/out25*%
X74000000Y-89500000D03*
D11*
X149591500Y-100800000D03*
%TO.N,/out32*%
X152860000Y-101460000D03*
%TO.N,/out7*%
X147810000Y-101830000D03*
D12*
X134000000Y-104500000D03*
D11*
%TO.N,/out5*%
X147310000Y-99890000D03*
D12*
X134000000Y-89500000D03*
D11*
%TO.N,/out31*%
X151140000Y-101460000D03*
D12*
%TO.N,/out4*%
X146000000Y-89500000D03*
D11*
%TO.N,/out17*%
X144710000Y-95860000D03*
D12*
X98000000Y-89500000D03*
D11*
X145910000Y-96180000D03*
%TO.N,/out2*%
X150720000Y-102061500D03*
D12*
%TO.N,/out23*%
X86000000Y-104500000D03*
D11*
X148750000Y-100620000D03*
%TO.N,/out22*%
X155840000Y-100630000D03*
D12*
X218000000Y-89500000D03*
D11*
%TO.N,/out6*%
X156690000Y-99890000D03*
D12*
X170000000Y-89500000D03*
D11*
%TO.N,/out3*%
X153280000Y-102061500D03*
%TO.N,/out29*%
X150540000Y-100970000D03*
D12*
%TO.N,/out12*%
X182000000Y-104500000D03*
D11*
X155420000Y-101850000D03*
D12*
%TO.N,/out1*%
X158000000Y-89500000D03*
D11*
%TO.N,/out15*%
X149450000Y-101830000D03*
%TO.N,/out13*%
X149930000Y-99900000D03*
D12*
%TO.N,/out20*%
X206000000Y-104500000D03*
D11*
X158590000Y-96140000D03*
X159420000Y-96310000D03*
%TD*%
%TO.N,/out24*%
D10*
X158980832Y-101969168D02*
X158489168Y-102460832D01*
X157330832Y-102460832D02*
X158489168Y-102460832D01*
X158980832Y-98238142D02*
X158980832Y-101969168D01*
X159605474Y-97613500D02*
X158980832Y-98238142D01*
X160750000Y-97613500D02*
X159605474Y-97613500D01*
X158489168Y-102460832D02*
X158980832Y-101969168D01*
X155250000Y-100620000D02*
X155840000Y-101210000D01*
X218000000Y-104500000D02*
X218000000Y-98275000D01*
X156080000Y-101210000D02*
X157330832Y-102460832D01*
X217225000Y-97500000D02*
X215875000Y-97500000D01*
X158980832Y-101969168D02*
X158980832Y-98238142D01*
X218000000Y-98275000D02*
X217225000Y-97500000D01*
X155840000Y-101210000D02*
X156080000Y-101210000D01*
%TO.N,/out8*%
X168886500Y-97886500D02*
X170000000Y-99000000D01*
X156190000Y-101900000D02*
X156977832Y-102687832D01*
X159207832Y-102063194D02*
X159207832Y-98332168D01*
X160745683Y-97882183D02*
X159657817Y-97882183D01*
X167250000Y-97886500D02*
X168886500Y-97886500D01*
X158583194Y-102687832D02*
X159207832Y-102063194D01*
X159657817Y-97882183D02*
X159207832Y-98332168D01*
X158583194Y-102687832D02*
X157046806Y-102687832D01*
X159207832Y-102063194D02*
X158583194Y-102687832D01*
X159207832Y-98332168D02*
X159207832Y-102063194D01*
X156977832Y-102687832D02*
X158583194Y-102687832D01*
X156190000Y-101830000D02*
X156190000Y-101900000D01*
%TO.N,/out21*%
X145615973Y-102206999D02*
X145273000Y-101864026D01*
X86000000Y-95725000D02*
X86775000Y-96500000D01*
X86000000Y-89500000D02*
X86000000Y-95725000D01*
X145273000Y-101864026D02*
X145273001Y-98133001D01*
X145273001Y-98133001D02*
X143526500Y-96386500D01*
X146583001Y-102206999D02*
X145615973Y-102206999D01*
X86775000Y-96500000D02*
X88125000Y-96500000D01*
X148160000Y-100630000D02*
X146583001Y-102206999D01*
%TO.N,/out7*%
X144792168Y-102063194D02*
X144792168Y-98332168D01*
X143254317Y-97882183D02*
X143250000Y-97886500D01*
X147810000Y-101900000D02*
X147022168Y-102687832D01*
X147022168Y-102687832D02*
X145416806Y-102687832D01*
X144792168Y-98332168D02*
X144342183Y-97882183D01*
X136750000Y-97886500D02*
X135113500Y-97886500D01*
X144342183Y-97882183D02*
X143254317Y-97882183D01*
X147810000Y-101830000D02*
X147810000Y-101900000D01*
X135113500Y-97886500D02*
X134000000Y-99000000D01*
X145416806Y-102687832D02*
X144792168Y-102063194D01*
%TO.N,/out5*%
X136750000Y-96113500D02*
X135113500Y-96113500D01*
X145500000Y-101770000D02*
X145500000Y-98038974D01*
X147310000Y-101130000D02*
X146460000Y-101980000D01*
X147310000Y-99890000D02*
X147310000Y-101130000D01*
X143574526Y-96113500D02*
X143250000Y-96113500D01*
X145710000Y-101980000D02*
X145500000Y-101770000D01*
X146460000Y-101980000D02*
X145710000Y-101980000D01*
X145500000Y-98038974D02*
X143574526Y-96113500D01*
X135113500Y-96113500D02*
X134000000Y-95000000D01*
%TO.N,/out23*%
X148160000Y-101210000D02*
X147920000Y-101210000D01*
X148750000Y-100620000D02*
X148160000Y-101210000D01*
X145019168Y-98238142D02*
X144394526Y-97613500D01*
X144394526Y-97613500D02*
X143250000Y-97613500D01*
X146669168Y-102460832D02*
X145510832Y-102460832D01*
X86775000Y-97500000D02*
X88125000Y-97500000D01*
X86000000Y-98275000D02*
X86775000Y-97500000D01*
X145019168Y-101969168D02*
X145019168Y-98238142D01*
X145510832Y-102460832D02*
X145019168Y-101969168D01*
X147920000Y-101210000D02*
X146669168Y-102460832D01*
X86000000Y-104500000D02*
X86000000Y-98275000D01*
%TO.N,/out22*%
X160473500Y-96386500D02*
X158726999Y-98133001D01*
X217225000Y-96500000D02*
X215875000Y-96500000D01*
X158726999Y-98133001D02*
X158726999Y-101864027D01*
X158384027Y-102206999D02*
X158727000Y-101864026D01*
X158726999Y-101864027D02*
X158384027Y-102206999D01*
X157416999Y-102206999D02*
X158384027Y-102206999D01*
X158727000Y-101864026D02*
X158726999Y-98133001D01*
X155840000Y-100630000D02*
X157416999Y-102206999D01*
X218000000Y-95725000D02*
X217225000Y-96500000D01*
X218000000Y-89500000D02*
X218000000Y-95725000D01*
%TO.N,/out6*%
X156690000Y-101130000D02*
X157540000Y-101980000D01*
X158290000Y-101980000D02*
X158500000Y-101770000D01*
X160750000Y-96113500D02*
X160425474Y-96113500D01*
X158500000Y-98038974D02*
X158500000Y-101770000D01*
X156690000Y-99890000D02*
X156690000Y-101130000D01*
X157540000Y-101980000D02*
X158290000Y-101980000D01*
X160425474Y-96113500D02*
X158500000Y-98038974D01*
X167250000Y-96113500D02*
X168886500Y-96113500D01*
X158500000Y-101770000D02*
X158500000Y-98038974D01*
X168886500Y-96113500D02*
X170000000Y-95000000D01*
X158500000Y-101770000D02*
X158290000Y-101980000D01*
%TD*%
%TA.AperFunction,Conductor*%
%TO.N,/out23*%
G36*
X148614407Y-100529143D02*
G01*
X148615556Y-100529784D01*
X148750869Y-100615511D01*
X148754489Y-100619131D01*
X148840215Y-100754443D01*
X148841748Y-100763266D01*
X148836594Y-100770588D01*
X148835445Y-100771229D01*
X148557286Y-100906369D01*
X148548347Y-100906902D01*
X148543900Y-100904118D01*
X148465881Y-100826099D01*
X148462454Y-100817826D01*
X148463628Y-100812718D01*
X148598770Y-100534553D01*
X148605468Y-100528610D01*
X148614407Y-100529143D01*
G37*
%TD.AperFunction*%
%TD*%
%TA.AperFunction,Conductor*%
%TO.N,/out22*%
G36*
X218231682Y-89545765D02*
G01*
X218239012Y-89550907D01*
X218240560Y-89559727D01*
X218239976Y-89561596D01*
X218066467Y-89987907D01*
X218060174Y-89994278D01*
X218055630Y-89995196D01*
X217944370Y-89995196D01*
X217936097Y-89991769D01*
X217933533Y-89987907D01*
X217760023Y-89561596D01*
X217760078Y-89552641D01*
X217766449Y-89546348D01*
X217768307Y-89545767D01*
X217997462Y-89494761D01*
X218002538Y-89494761D01*
X218231682Y-89545765D01*
G37*
%TD.AperFunction*%
%TD*%
%TA.AperFunction,Conductor*%
%TO.N,/out8*%
G36*
X156153855Y-101858355D02*
G01*
X156349120Y-101886832D01*
X156356812Y-101891417D01*
X156357925Y-101893235D01*
X156436803Y-102053190D01*
X156437389Y-102062126D01*
X156434583Y-102066638D01*
X156357611Y-102143610D01*
X156349338Y-102147037D01*
X156342682Y-102144959D01*
X156076838Y-101961064D01*
X156071984Y-101953539D01*
X156073872Y-101944786D01*
X156074541Y-101943910D01*
X156143223Y-101862394D01*
X156151173Y-101858276D01*
X156153855Y-101858355D01*
G37*
%TD.AperFunction*%
%TD*%
%TA.AperFunction,Conductor*%
%TO.N,/out7*%
G36*
X147854823Y-101860554D02*
G01*
X147856777Y-101862395D01*
X147925452Y-101943903D01*
X147928163Y-101952438D01*
X147924044Y-101960389D01*
X147923161Y-101961064D01*
X147657317Y-102144959D01*
X147648564Y-102146847D01*
X147642388Y-102143610D01*
X147565416Y-102066638D01*
X147561989Y-102058365D01*
X147563196Y-102053190D01*
X147642074Y-101893235D01*
X147648806Y-101887331D01*
X147650874Y-101886833D01*
X147846142Y-101858356D01*
X147854823Y-101860554D01*
G37*
%TD.AperFunction*%
%TD*%
%TA.AperFunction,Conductor*%
%TO.N,/out6*%
G36*
X156693824Y-99886494D02*
G01*
X156846589Y-99920765D01*
X156850758Y-99922612D01*
X156852217Y-99923638D01*
X156857009Y-99931199D01*
X156857222Y-99932423D01*
X156856752Y-99938255D01*
X156756985Y-100226564D01*
X156754679Y-100230504D01*
X156752763Y-100232663D01*
X156746677Y-100236289D01*
X156746506Y-100236329D01*
X156743841Y-100236637D01*
X156637159Y-100236637D01*
X156632679Y-100235745D01*
X156630011Y-100234639D01*
X156624596Y-100230074D01*
X156624502Y-100229925D01*
X156623763Y-100228388D01*
X156623680Y-100228305D01*
X156623680Y-100228215D01*
X156623342Y-100227513D01*
X156523404Y-99938711D01*
X156522783Y-99934193D01*
X156522889Y-99932409D01*
X156525184Y-99927689D01*
X156526801Y-99924361D01*
X156527735Y-99923532D01*
X156532934Y-99920871D01*
X156686175Y-99886494D01*
X156688736Y-99886211D01*
X156691264Y-99886211D01*
X156693824Y-99886494D01*
G37*
%TD.AperFunction*%
%TD*%
%TA.AperFunction,Conductor*%
%TO.N,/out24*%
G36*
X218063903Y-104008231D02*
G01*
X218066467Y-104012093D01*
X218239976Y-104438403D01*
X218239921Y-104447358D01*
X218233550Y-104453651D01*
X218231681Y-104454235D01*
X218002542Y-104505238D01*
X217997458Y-104505238D01*
X217768318Y-104454235D01*
X217760987Y-104449092D01*
X217759439Y-104440272D01*
X217760023Y-104438403D01*
X217933533Y-104012093D01*
X217939826Y-104005722D01*
X217944370Y-104004804D01*
X218055630Y-104004804D01*
X218063903Y-104008231D01*
G37*
%TD.AperFunction*%
%TD*%
%TA.AperFunction,Conductor*%
%TO.N,/out22*%
G36*
X155987227Y-100541039D02*
G01*
X155988243Y-100541754D01*
X155992033Y-100546209D01*
X156031243Y-100626915D01*
X156106214Y-100781229D01*
X156125352Y-100820621D01*
X156126507Y-100825036D01*
X156126679Y-100827916D01*
X156124903Y-100834844D01*
X156124808Y-100834995D01*
X156123788Y-100836272D01*
X156123752Y-100836379D01*
X156123673Y-100836417D01*
X156123178Y-100837038D01*
X156047744Y-100912472D01*
X156043948Y-100915009D01*
X156041280Y-100916114D01*
X156034187Y-100916707D01*
X156034014Y-100916668D01*
X156031520Y-100915789D01*
X155867493Y-100836099D01*
X155756646Y-100782245D01*
X155753008Y-100779487D01*
X155751826Y-100778155D01*
X155751825Y-100778154D01*
X155748898Y-100769692D01*
X155748972Y-100768450D01*
X155750767Y-100762889D01*
X155834822Y-100630216D01*
X155836423Y-100628216D01*
X155838216Y-100626423D01*
X155840216Y-100624822D01*
X155972481Y-100541026D01*
X155976735Y-100539385D01*
X155978496Y-100539079D01*
X155987227Y-100541039D01*
G37*
%TD.AperFunction*%
%TD*%
%TA.AperFunction,Conductor*%
%TO.N,/out21*%
G36*
X148021546Y-100538972D02*
G01*
X148027109Y-100540768D01*
X148159774Y-100624817D01*
X148161785Y-100626427D01*
X148163572Y-100628214D01*
X148165182Y-100630225D01*
X148248969Y-100762476D01*
X148250613Y-100766736D01*
X148250918Y-100768492D01*
X148248958Y-100777229D01*
X148248956Y-100777232D01*
X148248241Y-100778247D01*
X148243789Y-100782033D01*
X147969377Y-100915352D01*
X147964962Y-100916507D01*
X147962082Y-100916679D01*
X147955154Y-100914903D01*
X147955003Y-100914808D01*
X147953725Y-100913788D01*
X147953619Y-100913752D01*
X147953580Y-100913673D01*
X147952960Y-100913178D01*
X147877526Y-100837744D01*
X147874991Y-100833951D01*
X147873883Y-100831277D01*
X147873294Y-100824172D01*
X147873333Y-100824003D01*
X147874207Y-100821525D01*
X148007755Y-100546641D01*
X148010512Y-100543006D01*
X148011847Y-100541823D01*
X148020305Y-100538898D01*
X148021546Y-100538972D01*
G37*
%TD.AperFunction*%
%TD*%
%TA.AperFunction,Conductor*%
%TO.N,/out24*%
G36*
X155397227Y-100531039D02*
G01*
X155398243Y-100531754D01*
X155402033Y-100536209D01*
X155441243Y-100616915D01*
X155516214Y-100771229D01*
X155535352Y-100810621D01*
X155536507Y-100815036D01*
X155536679Y-100817916D01*
X155534903Y-100824844D01*
X155534808Y-100824995D01*
X155533788Y-100826272D01*
X155533752Y-100826379D01*
X155533673Y-100826417D01*
X155533178Y-100827038D01*
X155457744Y-100902472D01*
X155453948Y-100905009D01*
X155451280Y-100906114D01*
X155444187Y-100906707D01*
X155444014Y-100906668D01*
X155441520Y-100905789D01*
X155277493Y-100826099D01*
X155166646Y-100772245D01*
X155163008Y-100769487D01*
X155161826Y-100768155D01*
X155161825Y-100768154D01*
X155158898Y-100759692D01*
X155158972Y-100758450D01*
X155160767Y-100752889D01*
X155244822Y-100620216D01*
X155246423Y-100618216D01*
X155248216Y-100616423D01*
X155250216Y-100614822D01*
X155382481Y-100531026D01*
X155386735Y-100529385D01*
X155388496Y-100529079D01*
X155397227Y-100531039D01*
G37*
%TD.AperFunction*%
%TD*%
%TA.AperFunction,Conductor*%
%TO.N,/out5*%
G36*
X147313824Y-99886494D02*
G01*
X147466589Y-99920765D01*
X147470758Y-99922612D01*
X147472217Y-99923638D01*
X147477009Y-99931199D01*
X147477222Y-99932423D01*
X147476752Y-99938255D01*
X147376985Y-100226564D01*
X147374679Y-100230504D01*
X147372763Y-100232663D01*
X147366677Y-100236289D01*
X147366506Y-100236329D01*
X147363841Y-100236637D01*
X147257159Y-100236637D01*
X147252679Y-100235745D01*
X147250011Y-100234639D01*
X147244596Y-100230074D01*
X147244502Y-100229925D01*
X147243763Y-100228388D01*
X147243680Y-100228305D01*
X147243680Y-100228215D01*
X147243342Y-100227513D01*
X147143404Y-99938711D01*
X147142783Y-99934193D01*
X147142889Y-99932409D01*
X147145184Y-99927689D01*
X147146801Y-99924361D01*
X147147735Y-99923532D01*
X147152934Y-99920871D01*
X147306175Y-99886494D01*
X147308736Y-99886211D01*
X147311264Y-99886211D01*
X147313824Y-99886494D01*
G37*
%TD.AperFunction*%
%TD*%
%TA.AperFunction,Conductor*%
%TO.N,/out23*%
G36*
X86063903Y-104008231D02*
G01*
X86066467Y-104012093D01*
X86239976Y-104438403D01*
X86239921Y-104447358D01*
X86233550Y-104453651D01*
X86231681Y-104454235D01*
X86002542Y-104505238D01*
X85997458Y-104505238D01*
X85768318Y-104454235D01*
X85760987Y-104449092D01*
X85759439Y-104440272D01*
X85760023Y-104438403D01*
X85933533Y-104012093D01*
X85939826Y-104005722D01*
X85944370Y-104004804D01*
X86055630Y-104004804D01*
X86063903Y-104008231D01*
G37*
%TD.AperFunction*%
%TD*%
%TA.AperFunction,Conductor*%
%TO.N,/out21*%
G36*
X86231682Y-89545765D02*
G01*
X86239012Y-89550907D01*
X86240560Y-89559727D01*
X86239976Y-89561596D01*
X86066467Y-89987907D01*
X86060174Y-89994278D01*
X86055630Y-89995196D01*
X85944370Y-89995196D01*
X85936097Y-89991769D01*
X85933533Y-89987907D01*
X85760023Y-89561596D01*
X85760078Y-89552641D01*
X85766449Y-89546348D01*
X85768307Y-89545767D01*
X85997462Y-89494761D01*
X86002538Y-89494761D01*
X86231682Y-89545765D01*
G37*
%TD.AperFunction*%
%TD*%
M02*
