%TF.GenerationSoftware,KiCad,Pcbnew,10.0.3-10.0.3~ubuntu24.04.1*%
%TF.CreationDate,2026-07-07T08:46:40+01:00*%
%TF.ProjectId,flexBracelet,666c6578-4272-4616-9365-6c65742e6b69,rev?*%
%TF.SameCoordinates,Original*%
%TF.FileFunction,Legend,Top*%
%TF.FilePolarity,Positive*%
%FSLAX46Y46*%
G04 Gerber Fmt 4.6, Leading zero omitted, Abs format (unit mm)*
G04 Created by KiCad (PCBNEW 10.0.3-10.0.3~ubuntu24.04.1) date 2026-07-07 08:46:40*
%MOMM*%
%LPD*%
G01*
G04 APERTURE LIST*
G04 APERTURE END LIST*
%LPC*%
G36*
X65057480Y-102900898D02*
G01*
X65133621Y-102906891D01*
X65152109Y-102912262D01*
X65180220Y-102915638D01*
X65226357Y-102933832D01*
X65268117Y-102945964D01*
X65290121Y-102958977D01*
X65319561Y-102970587D01*
X65354316Y-102996943D01*
X65386611Y-103016042D01*
X65408914Y-103038345D01*
X65438909Y-103061091D01*
X65461654Y-103091085D01*
X65483957Y-103113388D01*
X65503055Y-103145680D01*
X65529413Y-103180439D01*
X65541023Y-103209880D01*
X65554035Y-103231882D01*
X65566165Y-103273635D01*
X65584362Y-103319780D01*
X65587738Y-103347894D01*
X65593108Y-103366378D01*
X65599099Y-103442497D01*
X65600000Y-103450000D01*
X65600000Y-105550000D01*
X65599098Y-105557504D01*
X65593108Y-105633621D01*
X65587738Y-105652104D01*
X65584362Y-105680220D01*
X65566163Y-105726367D01*
X65554035Y-105768117D01*
X65541024Y-105790116D01*
X65529413Y-105819561D01*
X65503052Y-105854322D01*
X65483957Y-105886611D01*
X65461657Y-105908910D01*
X65438909Y-105938909D01*
X65408910Y-105961657D01*
X65386611Y-105983957D01*
X65354322Y-106003052D01*
X65319561Y-106029413D01*
X65290116Y-106041024D01*
X65268117Y-106054035D01*
X65226367Y-106066163D01*
X65180220Y-106084362D01*
X65152104Y-106087738D01*
X65133621Y-106093108D01*
X65057504Y-106099098D01*
X65050000Y-106100000D01*
X58950000Y-106100000D01*
X58942497Y-106099099D01*
X58866378Y-106093108D01*
X58847894Y-106087738D01*
X58819780Y-106084362D01*
X58773635Y-106066165D01*
X58731882Y-106054035D01*
X58709880Y-106041023D01*
X58680439Y-106029413D01*
X58645680Y-106003055D01*
X58613388Y-105983957D01*
X58591085Y-105961654D01*
X58561091Y-105938909D01*
X58538345Y-105908914D01*
X58516042Y-105886611D01*
X58496943Y-105854316D01*
X58470587Y-105819561D01*
X58458977Y-105790121D01*
X58445964Y-105768117D01*
X58433832Y-105726357D01*
X58415638Y-105680220D01*
X58412262Y-105652109D01*
X58406891Y-105633621D01*
X58400898Y-105557480D01*
X58400000Y-105550000D01*
X58400000Y-103450000D01*
X58400898Y-103442521D01*
X58406891Y-103366378D01*
X58412262Y-103347888D01*
X58415638Y-103319780D01*
X58433831Y-103273645D01*
X58445964Y-103231882D01*
X58458978Y-103209875D01*
X58470587Y-103180439D01*
X58496940Y-103145686D01*
X58516042Y-103113388D01*
X58538348Y-103091081D01*
X58561091Y-103061091D01*
X58591081Y-103038348D01*
X58613388Y-103016042D01*
X58645686Y-102996940D01*
X58680439Y-102970587D01*
X58709875Y-102958978D01*
X58731882Y-102945964D01*
X58773645Y-102933831D01*
X58819780Y-102915638D01*
X58847888Y-102912262D01*
X58866378Y-102906891D01*
X58942521Y-102900898D01*
X58950000Y-102900000D01*
X65050000Y-102900000D01*
X65057480Y-102900898D01*
G37*
G36*
X77057480Y-102900898D02*
G01*
X77133621Y-102906891D01*
X77152109Y-102912262D01*
X77180220Y-102915638D01*
X77226357Y-102933832D01*
X77268117Y-102945964D01*
X77290121Y-102958977D01*
X77319561Y-102970587D01*
X77354316Y-102996943D01*
X77386611Y-103016042D01*
X77408914Y-103038345D01*
X77438909Y-103061091D01*
X77461654Y-103091085D01*
X77483957Y-103113388D01*
X77503055Y-103145680D01*
X77529413Y-103180439D01*
X77541023Y-103209880D01*
X77554035Y-103231882D01*
X77566165Y-103273635D01*
X77584362Y-103319780D01*
X77587738Y-103347894D01*
X77593108Y-103366378D01*
X77599099Y-103442497D01*
X77600000Y-103450000D01*
X77600000Y-105550000D01*
X77599098Y-105557504D01*
X77593108Y-105633621D01*
X77587738Y-105652104D01*
X77584362Y-105680220D01*
X77566163Y-105726367D01*
X77554035Y-105768117D01*
X77541024Y-105790116D01*
X77529413Y-105819561D01*
X77503052Y-105854322D01*
X77483957Y-105886611D01*
X77461657Y-105908910D01*
X77438909Y-105938909D01*
X77408910Y-105961657D01*
X77386611Y-105983957D01*
X77354322Y-106003052D01*
X77319561Y-106029413D01*
X77290116Y-106041024D01*
X77268117Y-106054035D01*
X77226367Y-106066163D01*
X77180220Y-106084362D01*
X77152104Y-106087738D01*
X77133621Y-106093108D01*
X77057504Y-106099098D01*
X77050000Y-106100000D01*
X70950000Y-106100000D01*
X70942497Y-106099099D01*
X70866378Y-106093108D01*
X70847894Y-106087738D01*
X70819780Y-106084362D01*
X70773635Y-106066165D01*
X70731882Y-106054035D01*
X70709880Y-106041023D01*
X70680439Y-106029413D01*
X70645680Y-106003055D01*
X70613388Y-105983957D01*
X70591085Y-105961654D01*
X70561091Y-105938909D01*
X70538345Y-105908914D01*
X70516042Y-105886611D01*
X70496943Y-105854316D01*
X70470587Y-105819561D01*
X70458977Y-105790121D01*
X70445964Y-105768117D01*
X70433832Y-105726357D01*
X70415638Y-105680220D01*
X70412262Y-105652109D01*
X70406891Y-105633621D01*
X70400898Y-105557480D01*
X70400000Y-105550000D01*
X70400000Y-103450000D01*
X70400898Y-103442521D01*
X70406891Y-103366378D01*
X70412262Y-103347888D01*
X70415638Y-103319780D01*
X70433831Y-103273645D01*
X70445964Y-103231882D01*
X70458978Y-103209875D01*
X70470587Y-103180439D01*
X70496940Y-103145686D01*
X70516042Y-103113388D01*
X70538348Y-103091081D01*
X70561091Y-103061091D01*
X70591081Y-103038348D01*
X70613388Y-103016042D01*
X70645686Y-102996940D01*
X70680439Y-102970587D01*
X70709875Y-102958978D01*
X70731882Y-102945964D01*
X70773645Y-102933831D01*
X70819780Y-102915638D01*
X70847888Y-102912262D01*
X70866378Y-102906891D01*
X70942521Y-102900898D01*
X70950000Y-102900000D01*
X77050000Y-102900000D01*
X77057480Y-102900898D01*
G37*
G36*
X89057480Y-102900898D02*
G01*
X89133621Y-102906891D01*
X89152109Y-102912262D01*
X89180220Y-102915638D01*
X89226357Y-102933832D01*
X89268117Y-102945964D01*
X89290121Y-102958977D01*
X89319561Y-102970587D01*
X89354316Y-102996943D01*
X89386611Y-103016042D01*
X89408914Y-103038345D01*
X89438909Y-103061091D01*
X89461654Y-103091085D01*
X89483957Y-103113388D01*
X89503055Y-103145680D01*
X89529413Y-103180439D01*
X89541023Y-103209880D01*
X89554035Y-103231882D01*
X89566165Y-103273635D01*
X89584362Y-103319780D01*
X89587738Y-103347894D01*
X89593108Y-103366378D01*
X89599099Y-103442497D01*
X89600000Y-103450000D01*
X89600000Y-105550000D01*
X89599098Y-105557504D01*
X89593108Y-105633621D01*
X89587738Y-105652104D01*
X89584362Y-105680220D01*
X89566163Y-105726367D01*
X89554035Y-105768117D01*
X89541024Y-105790116D01*
X89529413Y-105819561D01*
X89503052Y-105854322D01*
X89483957Y-105886611D01*
X89461657Y-105908910D01*
X89438909Y-105938909D01*
X89408910Y-105961657D01*
X89386611Y-105983957D01*
X89354322Y-106003052D01*
X89319561Y-106029413D01*
X89290116Y-106041024D01*
X89268117Y-106054035D01*
X89226367Y-106066163D01*
X89180220Y-106084362D01*
X89152104Y-106087738D01*
X89133621Y-106093108D01*
X89057504Y-106099098D01*
X89050000Y-106100000D01*
X82950000Y-106100000D01*
X82942497Y-106099099D01*
X82866378Y-106093108D01*
X82847894Y-106087738D01*
X82819780Y-106084362D01*
X82773635Y-106066165D01*
X82731882Y-106054035D01*
X82709880Y-106041023D01*
X82680439Y-106029413D01*
X82645680Y-106003055D01*
X82613388Y-105983957D01*
X82591085Y-105961654D01*
X82561091Y-105938909D01*
X82538345Y-105908914D01*
X82516042Y-105886611D01*
X82496943Y-105854316D01*
X82470587Y-105819561D01*
X82458977Y-105790121D01*
X82445964Y-105768117D01*
X82433832Y-105726357D01*
X82415638Y-105680220D01*
X82412262Y-105652109D01*
X82406891Y-105633621D01*
X82400898Y-105557480D01*
X82400000Y-105550000D01*
X82400000Y-103450000D01*
X82400898Y-103442521D01*
X82406891Y-103366378D01*
X82412262Y-103347888D01*
X82415638Y-103319780D01*
X82433831Y-103273645D01*
X82445964Y-103231882D01*
X82458978Y-103209875D01*
X82470587Y-103180439D01*
X82496940Y-103145686D01*
X82516042Y-103113388D01*
X82538348Y-103091081D01*
X82561091Y-103061091D01*
X82591081Y-103038348D01*
X82613388Y-103016042D01*
X82645686Y-102996940D01*
X82680439Y-102970587D01*
X82709875Y-102958978D01*
X82731882Y-102945964D01*
X82773645Y-102933831D01*
X82819780Y-102915638D01*
X82847888Y-102912262D01*
X82866378Y-102906891D01*
X82942521Y-102900898D01*
X82950000Y-102900000D01*
X89050000Y-102900000D01*
X89057480Y-102900898D01*
G37*
G36*
X101057480Y-102900898D02*
G01*
X101133621Y-102906891D01*
X101152109Y-102912262D01*
X101180220Y-102915638D01*
X101226357Y-102933832D01*
X101268117Y-102945964D01*
X101290121Y-102958977D01*
X101319561Y-102970587D01*
X101354316Y-102996943D01*
X101386611Y-103016042D01*
X101408914Y-103038345D01*
X101438909Y-103061091D01*
X101461654Y-103091085D01*
X101483957Y-103113388D01*
X101503055Y-103145680D01*
X101529413Y-103180439D01*
X101541023Y-103209880D01*
X101554035Y-103231882D01*
X101566165Y-103273635D01*
X101584362Y-103319780D01*
X101587738Y-103347894D01*
X101593108Y-103366378D01*
X101599099Y-103442497D01*
X101600000Y-103450000D01*
X101600000Y-105550000D01*
X101599098Y-105557504D01*
X101593108Y-105633621D01*
X101587738Y-105652104D01*
X101584362Y-105680220D01*
X101566163Y-105726367D01*
X101554035Y-105768117D01*
X101541024Y-105790116D01*
X101529413Y-105819561D01*
X101503052Y-105854322D01*
X101483957Y-105886611D01*
X101461657Y-105908910D01*
X101438909Y-105938909D01*
X101408910Y-105961657D01*
X101386611Y-105983957D01*
X101354322Y-106003052D01*
X101319561Y-106029413D01*
X101290116Y-106041024D01*
X101268117Y-106054035D01*
X101226367Y-106066163D01*
X101180220Y-106084362D01*
X101152104Y-106087738D01*
X101133621Y-106093108D01*
X101057504Y-106099098D01*
X101050000Y-106100000D01*
X94950000Y-106100000D01*
X94942497Y-106099099D01*
X94866378Y-106093108D01*
X94847894Y-106087738D01*
X94819780Y-106084362D01*
X94773635Y-106066165D01*
X94731882Y-106054035D01*
X94709880Y-106041023D01*
X94680439Y-106029413D01*
X94645680Y-106003055D01*
X94613388Y-105983957D01*
X94591085Y-105961654D01*
X94561091Y-105938909D01*
X94538345Y-105908914D01*
X94516042Y-105886611D01*
X94496943Y-105854316D01*
X94470587Y-105819561D01*
X94458977Y-105790121D01*
X94445964Y-105768117D01*
X94433832Y-105726357D01*
X94415638Y-105680220D01*
X94412262Y-105652109D01*
X94406891Y-105633621D01*
X94400898Y-105557480D01*
X94400000Y-105550000D01*
X94400000Y-103450000D01*
X94400898Y-103442521D01*
X94406891Y-103366378D01*
X94412262Y-103347888D01*
X94415638Y-103319780D01*
X94433831Y-103273645D01*
X94445964Y-103231882D01*
X94458978Y-103209875D01*
X94470587Y-103180439D01*
X94496940Y-103145686D01*
X94516042Y-103113388D01*
X94538348Y-103091081D01*
X94561091Y-103061091D01*
X94591081Y-103038348D01*
X94613388Y-103016042D01*
X94645686Y-102996940D01*
X94680439Y-102970587D01*
X94709875Y-102958978D01*
X94731882Y-102945964D01*
X94773645Y-102933831D01*
X94819780Y-102915638D01*
X94847888Y-102912262D01*
X94866378Y-102906891D01*
X94942521Y-102900898D01*
X94950000Y-102900000D01*
X101050000Y-102900000D01*
X101057480Y-102900898D01*
G37*
G36*
X113057480Y-102900898D02*
G01*
X113133621Y-102906891D01*
X113152109Y-102912262D01*
X113180220Y-102915638D01*
X113226357Y-102933832D01*
X113268117Y-102945964D01*
X113290121Y-102958977D01*
X113319561Y-102970587D01*
X113354316Y-102996943D01*
X113386611Y-103016042D01*
X113408914Y-103038345D01*
X113438909Y-103061091D01*
X113461654Y-103091085D01*
X113483957Y-103113388D01*
X113503055Y-103145680D01*
X113529413Y-103180439D01*
X113541023Y-103209880D01*
X113554035Y-103231882D01*
X113566165Y-103273635D01*
X113584362Y-103319780D01*
X113587738Y-103347894D01*
X113593108Y-103366378D01*
X113599099Y-103442497D01*
X113600000Y-103450000D01*
X113600000Y-105550000D01*
X113599098Y-105557504D01*
X113593108Y-105633621D01*
X113587738Y-105652104D01*
X113584362Y-105680220D01*
X113566163Y-105726367D01*
X113554035Y-105768117D01*
X113541024Y-105790116D01*
X113529413Y-105819561D01*
X113503052Y-105854322D01*
X113483957Y-105886611D01*
X113461657Y-105908910D01*
X113438909Y-105938909D01*
X113408910Y-105961657D01*
X113386611Y-105983957D01*
X113354322Y-106003052D01*
X113319561Y-106029413D01*
X113290116Y-106041024D01*
X113268117Y-106054035D01*
X113226367Y-106066163D01*
X113180220Y-106084362D01*
X113152104Y-106087738D01*
X113133621Y-106093108D01*
X113057504Y-106099098D01*
X113050000Y-106100000D01*
X106950000Y-106100000D01*
X106942497Y-106099099D01*
X106866378Y-106093108D01*
X106847894Y-106087738D01*
X106819780Y-106084362D01*
X106773635Y-106066165D01*
X106731882Y-106054035D01*
X106709880Y-106041023D01*
X106680439Y-106029413D01*
X106645680Y-106003055D01*
X106613388Y-105983957D01*
X106591085Y-105961654D01*
X106561091Y-105938909D01*
X106538345Y-105908914D01*
X106516042Y-105886611D01*
X106496943Y-105854316D01*
X106470587Y-105819561D01*
X106458977Y-105790121D01*
X106445964Y-105768117D01*
X106433832Y-105726357D01*
X106415638Y-105680220D01*
X106412262Y-105652109D01*
X106406891Y-105633621D01*
X106400898Y-105557480D01*
X106400000Y-105550000D01*
X106400000Y-103450000D01*
X106400898Y-103442521D01*
X106406891Y-103366378D01*
X106412262Y-103347888D01*
X106415638Y-103319780D01*
X106433831Y-103273645D01*
X106445964Y-103231882D01*
X106458978Y-103209875D01*
X106470587Y-103180439D01*
X106496940Y-103145686D01*
X106516042Y-103113388D01*
X106538348Y-103091081D01*
X106561091Y-103061091D01*
X106591081Y-103038348D01*
X106613388Y-103016042D01*
X106645686Y-102996940D01*
X106680439Y-102970587D01*
X106709875Y-102958978D01*
X106731882Y-102945964D01*
X106773645Y-102933831D01*
X106819780Y-102915638D01*
X106847888Y-102912262D01*
X106866378Y-102906891D01*
X106942521Y-102900898D01*
X106950000Y-102900000D01*
X113050000Y-102900000D01*
X113057480Y-102900898D01*
G37*
G36*
X125057480Y-102900898D02*
G01*
X125133621Y-102906891D01*
X125152109Y-102912262D01*
X125180220Y-102915638D01*
X125226357Y-102933832D01*
X125268117Y-102945964D01*
X125290121Y-102958977D01*
X125319561Y-102970587D01*
X125354316Y-102996943D01*
X125386611Y-103016042D01*
X125408914Y-103038345D01*
X125438909Y-103061091D01*
X125461654Y-103091085D01*
X125483957Y-103113388D01*
X125503055Y-103145680D01*
X125529413Y-103180439D01*
X125541023Y-103209880D01*
X125554035Y-103231882D01*
X125566165Y-103273635D01*
X125584362Y-103319780D01*
X125587738Y-103347894D01*
X125593108Y-103366378D01*
X125599099Y-103442497D01*
X125600000Y-103450000D01*
X125600000Y-105550000D01*
X125599098Y-105557504D01*
X125593108Y-105633621D01*
X125587738Y-105652104D01*
X125584362Y-105680220D01*
X125566163Y-105726367D01*
X125554035Y-105768117D01*
X125541024Y-105790116D01*
X125529413Y-105819561D01*
X125503052Y-105854322D01*
X125483957Y-105886611D01*
X125461657Y-105908910D01*
X125438909Y-105938909D01*
X125408910Y-105961657D01*
X125386611Y-105983957D01*
X125354322Y-106003052D01*
X125319561Y-106029413D01*
X125290116Y-106041024D01*
X125268117Y-106054035D01*
X125226367Y-106066163D01*
X125180220Y-106084362D01*
X125152104Y-106087738D01*
X125133621Y-106093108D01*
X125057504Y-106099098D01*
X125050000Y-106100000D01*
X118950000Y-106100000D01*
X118942497Y-106099099D01*
X118866378Y-106093108D01*
X118847894Y-106087738D01*
X118819780Y-106084362D01*
X118773635Y-106066165D01*
X118731882Y-106054035D01*
X118709880Y-106041023D01*
X118680439Y-106029413D01*
X118645680Y-106003055D01*
X118613388Y-105983957D01*
X118591085Y-105961654D01*
X118561091Y-105938909D01*
X118538345Y-105908914D01*
X118516042Y-105886611D01*
X118496943Y-105854316D01*
X118470587Y-105819561D01*
X118458977Y-105790121D01*
X118445964Y-105768117D01*
X118433832Y-105726357D01*
X118415638Y-105680220D01*
X118412262Y-105652109D01*
X118406891Y-105633621D01*
X118400898Y-105557480D01*
X118400000Y-105550000D01*
X118400000Y-103450000D01*
X118400898Y-103442521D01*
X118406891Y-103366378D01*
X118412262Y-103347888D01*
X118415638Y-103319780D01*
X118433831Y-103273645D01*
X118445964Y-103231882D01*
X118458978Y-103209875D01*
X118470587Y-103180439D01*
X118496940Y-103145686D01*
X118516042Y-103113388D01*
X118538348Y-103091081D01*
X118561091Y-103061091D01*
X118591081Y-103038348D01*
X118613388Y-103016042D01*
X118645686Y-102996940D01*
X118680439Y-102970587D01*
X118709875Y-102958978D01*
X118731882Y-102945964D01*
X118773645Y-102933831D01*
X118819780Y-102915638D01*
X118847888Y-102912262D01*
X118866378Y-102906891D01*
X118942521Y-102900898D01*
X118950000Y-102900000D01*
X125050000Y-102900000D01*
X125057480Y-102900898D01*
G37*
G36*
X137057480Y-102900898D02*
G01*
X137133621Y-102906891D01*
X137152109Y-102912262D01*
X137180220Y-102915638D01*
X137226357Y-102933832D01*
X137268117Y-102945964D01*
X137290121Y-102958977D01*
X137319561Y-102970587D01*
X137354316Y-102996943D01*
X137386611Y-103016042D01*
X137408914Y-103038345D01*
X137438909Y-103061091D01*
X137461654Y-103091085D01*
X137483957Y-103113388D01*
X137503055Y-103145680D01*
X137529413Y-103180439D01*
X137541023Y-103209880D01*
X137554035Y-103231882D01*
X137566165Y-103273635D01*
X137584362Y-103319780D01*
X137587738Y-103347894D01*
X137593108Y-103366378D01*
X137599099Y-103442497D01*
X137600000Y-103450000D01*
X137600000Y-105550000D01*
X137599098Y-105557504D01*
X137593108Y-105633621D01*
X137587738Y-105652104D01*
X137584362Y-105680220D01*
X137566163Y-105726367D01*
X137554035Y-105768117D01*
X137541024Y-105790116D01*
X137529413Y-105819561D01*
X137503052Y-105854322D01*
X137483957Y-105886611D01*
X137461657Y-105908910D01*
X137438909Y-105938909D01*
X137408910Y-105961657D01*
X137386611Y-105983957D01*
X137354322Y-106003052D01*
X137319561Y-106029413D01*
X137290116Y-106041024D01*
X137268117Y-106054035D01*
X137226367Y-106066163D01*
X137180220Y-106084362D01*
X137152104Y-106087738D01*
X137133621Y-106093108D01*
X137057504Y-106099098D01*
X137050000Y-106100000D01*
X130950000Y-106100000D01*
X130942497Y-106099099D01*
X130866378Y-106093108D01*
X130847894Y-106087738D01*
X130819780Y-106084362D01*
X130773635Y-106066165D01*
X130731882Y-106054035D01*
X130709880Y-106041023D01*
X130680439Y-106029413D01*
X130645680Y-106003055D01*
X130613388Y-105983957D01*
X130591085Y-105961654D01*
X130561091Y-105938909D01*
X130538345Y-105908914D01*
X130516042Y-105886611D01*
X130496943Y-105854316D01*
X130470587Y-105819561D01*
X130458977Y-105790121D01*
X130445964Y-105768117D01*
X130433832Y-105726357D01*
X130415638Y-105680220D01*
X130412262Y-105652109D01*
X130406891Y-105633621D01*
X130400898Y-105557480D01*
X130400000Y-105550000D01*
X130400000Y-103450000D01*
X130400898Y-103442521D01*
X130406891Y-103366378D01*
X130412262Y-103347888D01*
X130415638Y-103319780D01*
X130433831Y-103273645D01*
X130445964Y-103231882D01*
X130458978Y-103209875D01*
X130470587Y-103180439D01*
X130496940Y-103145686D01*
X130516042Y-103113388D01*
X130538348Y-103091081D01*
X130561091Y-103061091D01*
X130591081Y-103038348D01*
X130613388Y-103016042D01*
X130645686Y-102996940D01*
X130680439Y-102970587D01*
X130709875Y-102958978D01*
X130731882Y-102945964D01*
X130773645Y-102933831D01*
X130819780Y-102915638D01*
X130847888Y-102912262D01*
X130866378Y-102906891D01*
X130942521Y-102900898D01*
X130950000Y-102900000D01*
X137050000Y-102900000D01*
X137057480Y-102900898D01*
G37*
G36*
X149057480Y-102900898D02*
G01*
X149133621Y-102906891D01*
X149152109Y-102912262D01*
X149180220Y-102915638D01*
X149226357Y-102933832D01*
X149268117Y-102945964D01*
X149290121Y-102958977D01*
X149319561Y-102970587D01*
X149354316Y-102996943D01*
X149386611Y-103016042D01*
X149408914Y-103038345D01*
X149438909Y-103061091D01*
X149461654Y-103091085D01*
X149483957Y-103113388D01*
X149503055Y-103145680D01*
X149529413Y-103180439D01*
X149541023Y-103209880D01*
X149554035Y-103231882D01*
X149566165Y-103273635D01*
X149584362Y-103319780D01*
X149587738Y-103347894D01*
X149593108Y-103366378D01*
X149599099Y-103442497D01*
X149600000Y-103450000D01*
X149600000Y-105550000D01*
X149599098Y-105557504D01*
X149593108Y-105633621D01*
X149587738Y-105652104D01*
X149584362Y-105680220D01*
X149566163Y-105726367D01*
X149554035Y-105768117D01*
X149541024Y-105790116D01*
X149529413Y-105819561D01*
X149503052Y-105854322D01*
X149483957Y-105886611D01*
X149461657Y-105908910D01*
X149438909Y-105938909D01*
X149408910Y-105961657D01*
X149386611Y-105983957D01*
X149354322Y-106003052D01*
X149319561Y-106029413D01*
X149290116Y-106041024D01*
X149268117Y-106054035D01*
X149226367Y-106066163D01*
X149180220Y-106084362D01*
X149152104Y-106087738D01*
X149133621Y-106093108D01*
X149057504Y-106099098D01*
X149050000Y-106100000D01*
X142950000Y-106100000D01*
X142942497Y-106099099D01*
X142866378Y-106093108D01*
X142847894Y-106087738D01*
X142819780Y-106084362D01*
X142773635Y-106066165D01*
X142731882Y-106054035D01*
X142709880Y-106041023D01*
X142680439Y-106029413D01*
X142645680Y-106003055D01*
X142613388Y-105983957D01*
X142591085Y-105961654D01*
X142561091Y-105938909D01*
X142538345Y-105908914D01*
X142516042Y-105886611D01*
X142496943Y-105854316D01*
X142470587Y-105819561D01*
X142458977Y-105790121D01*
X142445964Y-105768117D01*
X142433832Y-105726357D01*
X142415638Y-105680220D01*
X142412262Y-105652109D01*
X142406891Y-105633621D01*
X142400898Y-105557480D01*
X142400000Y-105550000D01*
X142400000Y-103450000D01*
X142400898Y-103442521D01*
X142406891Y-103366378D01*
X142412262Y-103347888D01*
X142415638Y-103319780D01*
X142433831Y-103273645D01*
X142445964Y-103231882D01*
X142458978Y-103209875D01*
X142470587Y-103180439D01*
X142496940Y-103145686D01*
X142516042Y-103113388D01*
X142538348Y-103091081D01*
X142561091Y-103061091D01*
X142591081Y-103038348D01*
X142613388Y-103016042D01*
X142645686Y-102996940D01*
X142680439Y-102970587D01*
X142709875Y-102958978D01*
X142731882Y-102945964D01*
X142773645Y-102933831D01*
X142819780Y-102915638D01*
X142847888Y-102912262D01*
X142866378Y-102906891D01*
X142942521Y-102900898D01*
X142950000Y-102900000D01*
X149050000Y-102900000D01*
X149057480Y-102900898D01*
G37*
G36*
X161057480Y-102900898D02*
G01*
X161133621Y-102906891D01*
X161152109Y-102912262D01*
X161180220Y-102915638D01*
X161226357Y-102933832D01*
X161268117Y-102945964D01*
X161290121Y-102958977D01*
X161319561Y-102970587D01*
X161354316Y-102996943D01*
X161386611Y-103016042D01*
X161408914Y-103038345D01*
X161438909Y-103061091D01*
X161461654Y-103091085D01*
X161483957Y-103113388D01*
X161503055Y-103145680D01*
X161529413Y-103180439D01*
X161541023Y-103209880D01*
X161554035Y-103231882D01*
X161566165Y-103273635D01*
X161584362Y-103319780D01*
X161587738Y-103347894D01*
X161593108Y-103366378D01*
X161599099Y-103442497D01*
X161600000Y-103450000D01*
X161600000Y-105550000D01*
X161599098Y-105557504D01*
X161593108Y-105633621D01*
X161587738Y-105652104D01*
X161584362Y-105680220D01*
X161566163Y-105726367D01*
X161554035Y-105768117D01*
X161541024Y-105790116D01*
X161529413Y-105819561D01*
X161503052Y-105854322D01*
X161483957Y-105886611D01*
X161461657Y-105908910D01*
X161438909Y-105938909D01*
X161408910Y-105961657D01*
X161386611Y-105983957D01*
X161354322Y-106003052D01*
X161319561Y-106029413D01*
X161290116Y-106041024D01*
X161268117Y-106054035D01*
X161226367Y-106066163D01*
X161180220Y-106084362D01*
X161152104Y-106087738D01*
X161133621Y-106093108D01*
X161057504Y-106099098D01*
X161050000Y-106100000D01*
X154950000Y-106100000D01*
X154942497Y-106099099D01*
X154866378Y-106093108D01*
X154847894Y-106087738D01*
X154819780Y-106084362D01*
X154773635Y-106066165D01*
X154731882Y-106054035D01*
X154709880Y-106041023D01*
X154680439Y-106029413D01*
X154645680Y-106003055D01*
X154613388Y-105983957D01*
X154591085Y-105961654D01*
X154561091Y-105938909D01*
X154538345Y-105908914D01*
X154516042Y-105886611D01*
X154496943Y-105854316D01*
X154470587Y-105819561D01*
X154458977Y-105790121D01*
X154445964Y-105768117D01*
X154433832Y-105726357D01*
X154415638Y-105680220D01*
X154412262Y-105652109D01*
X154406891Y-105633621D01*
X154400898Y-105557480D01*
X154400000Y-105550000D01*
X154400000Y-103450000D01*
X154400898Y-103442521D01*
X154406891Y-103366378D01*
X154412262Y-103347888D01*
X154415638Y-103319780D01*
X154433831Y-103273645D01*
X154445964Y-103231882D01*
X154458978Y-103209875D01*
X154470587Y-103180439D01*
X154496940Y-103145686D01*
X154516042Y-103113388D01*
X154538348Y-103091081D01*
X154561091Y-103061091D01*
X154591081Y-103038348D01*
X154613388Y-103016042D01*
X154645686Y-102996940D01*
X154680439Y-102970587D01*
X154709875Y-102958978D01*
X154731882Y-102945964D01*
X154773645Y-102933831D01*
X154819780Y-102915638D01*
X154847888Y-102912262D01*
X154866378Y-102906891D01*
X154942521Y-102900898D01*
X154950000Y-102900000D01*
X161050000Y-102900000D01*
X161057480Y-102900898D01*
G37*
G36*
X173057480Y-102900898D02*
G01*
X173133621Y-102906891D01*
X173152109Y-102912262D01*
X173180220Y-102915638D01*
X173226357Y-102933832D01*
X173268117Y-102945964D01*
X173290121Y-102958977D01*
X173319561Y-102970587D01*
X173354316Y-102996943D01*
X173386611Y-103016042D01*
X173408914Y-103038345D01*
X173438909Y-103061091D01*
X173461654Y-103091085D01*
X173483957Y-103113388D01*
X173503055Y-103145680D01*
X173529413Y-103180439D01*
X173541023Y-103209880D01*
X173554035Y-103231882D01*
X173566165Y-103273635D01*
X173584362Y-103319780D01*
X173587738Y-103347894D01*
X173593108Y-103366378D01*
X173599099Y-103442497D01*
X173600000Y-103450000D01*
X173600000Y-105550000D01*
X173599098Y-105557504D01*
X173593108Y-105633621D01*
X173587738Y-105652104D01*
X173584362Y-105680220D01*
X173566163Y-105726367D01*
X173554035Y-105768117D01*
X173541024Y-105790116D01*
X173529413Y-105819561D01*
X173503052Y-105854322D01*
X173483957Y-105886611D01*
X173461657Y-105908910D01*
X173438909Y-105938909D01*
X173408910Y-105961657D01*
X173386611Y-105983957D01*
X173354322Y-106003052D01*
X173319561Y-106029413D01*
X173290116Y-106041024D01*
X173268117Y-106054035D01*
X173226367Y-106066163D01*
X173180220Y-106084362D01*
X173152104Y-106087738D01*
X173133621Y-106093108D01*
X173057504Y-106099098D01*
X173050000Y-106100000D01*
X166950000Y-106100000D01*
X166942497Y-106099099D01*
X166866378Y-106093108D01*
X166847894Y-106087738D01*
X166819780Y-106084362D01*
X166773635Y-106066165D01*
X166731882Y-106054035D01*
X166709880Y-106041023D01*
X166680439Y-106029413D01*
X166645680Y-106003055D01*
X166613388Y-105983957D01*
X166591085Y-105961654D01*
X166561091Y-105938909D01*
X166538345Y-105908914D01*
X166516042Y-105886611D01*
X166496943Y-105854316D01*
X166470587Y-105819561D01*
X166458977Y-105790121D01*
X166445964Y-105768117D01*
X166433832Y-105726357D01*
X166415638Y-105680220D01*
X166412262Y-105652109D01*
X166406891Y-105633621D01*
X166400898Y-105557480D01*
X166400000Y-105550000D01*
X166400000Y-103450000D01*
X166400898Y-103442521D01*
X166406891Y-103366378D01*
X166412262Y-103347888D01*
X166415638Y-103319780D01*
X166433831Y-103273645D01*
X166445964Y-103231882D01*
X166458978Y-103209875D01*
X166470587Y-103180439D01*
X166496940Y-103145686D01*
X166516042Y-103113388D01*
X166538348Y-103091081D01*
X166561091Y-103061091D01*
X166591081Y-103038348D01*
X166613388Y-103016042D01*
X166645686Y-102996940D01*
X166680439Y-102970587D01*
X166709875Y-102958978D01*
X166731882Y-102945964D01*
X166773645Y-102933831D01*
X166819780Y-102915638D01*
X166847888Y-102912262D01*
X166866378Y-102906891D01*
X166942521Y-102900898D01*
X166950000Y-102900000D01*
X173050000Y-102900000D01*
X173057480Y-102900898D01*
G37*
G36*
X185057480Y-102900898D02*
G01*
X185133621Y-102906891D01*
X185152109Y-102912262D01*
X185180220Y-102915638D01*
X185226357Y-102933832D01*
X185268117Y-102945964D01*
X185290121Y-102958977D01*
X185319561Y-102970587D01*
X185354316Y-102996943D01*
X185386611Y-103016042D01*
X185408914Y-103038345D01*
X185438909Y-103061091D01*
X185461654Y-103091085D01*
X185483957Y-103113388D01*
X185503055Y-103145680D01*
X185529413Y-103180439D01*
X185541023Y-103209880D01*
X185554035Y-103231882D01*
X185566165Y-103273635D01*
X185584362Y-103319780D01*
X185587738Y-103347894D01*
X185593108Y-103366378D01*
X185599099Y-103442497D01*
X185600000Y-103450000D01*
X185600000Y-105550000D01*
X185599098Y-105557504D01*
X185593108Y-105633621D01*
X185587738Y-105652104D01*
X185584362Y-105680220D01*
X185566163Y-105726367D01*
X185554035Y-105768117D01*
X185541024Y-105790116D01*
X185529413Y-105819561D01*
X185503052Y-105854322D01*
X185483957Y-105886611D01*
X185461657Y-105908910D01*
X185438909Y-105938909D01*
X185408910Y-105961657D01*
X185386611Y-105983957D01*
X185354322Y-106003052D01*
X185319561Y-106029413D01*
X185290116Y-106041024D01*
X185268117Y-106054035D01*
X185226367Y-106066163D01*
X185180220Y-106084362D01*
X185152104Y-106087738D01*
X185133621Y-106093108D01*
X185057504Y-106099098D01*
X185050000Y-106100000D01*
X178950000Y-106100000D01*
X178942497Y-106099099D01*
X178866378Y-106093108D01*
X178847894Y-106087738D01*
X178819780Y-106084362D01*
X178773635Y-106066165D01*
X178731882Y-106054035D01*
X178709880Y-106041023D01*
X178680439Y-106029413D01*
X178645680Y-106003055D01*
X178613388Y-105983957D01*
X178591085Y-105961654D01*
X178561091Y-105938909D01*
X178538345Y-105908914D01*
X178516042Y-105886611D01*
X178496943Y-105854316D01*
X178470587Y-105819561D01*
X178458977Y-105790121D01*
X178445964Y-105768117D01*
X178433832Y-105726357D01*
X178415638Y-105680220D01*
X178412262Y-105652109D01*
X178406891Y-105633621D01*
X178400898Y-105557480D01*
X178400000Y-105550000D01*
X178400000Y-103450000D01*
X178400898Y-103442521D01*
X178406891Y-103366378D01*
X178412262Y-103347888D01*
X178415638Y-103319780D01*
X178433831Y-103273645D01*
X178445964Y-103231882D01*
X178458978Y-103209875D01*
X178470587Y-103180439D01*
X178496940Y-103145686D01*
X178516042Y-103113388D01*
X178538348Y-103091081D01*
X178561091Y-103061091D01*
X178591081Y-103038348D01*
X178613388Y-103016042D01*
X178645686Y-102996940D01*
X178680439Y-102970587D01*
X178709875Y-102958978D01*
X178731882Y-102945964D01*
X178773645Y-102933831D01*
X178819780Y-102915638D01*
X178847888Y-102912262D01*
X178866378Y-102906891D01*
X178942521Y-102900898D01*
X178950000Y-102900000D01*
X185050000Y-102900000D01*
X185057480Y-102900898D01*
G37*
G36*
X197057480Y-102900898D02*
G01*
X197133621Y-102906891D01*
X197152109Y-102912262D01*
X197180220Y-102915638D01*
X197226357Y-102933832D01*
X197268117Y-102945964D01*
X197290121Y-102958977D01*
X197319561Y-102970587D01*
X197354316Y-102996943D01*
X197386611Y-103016042D01*
X197408914Y-103038345D01*
X197438909Y-103061091D01*
X197461654Y-103091085D01*
X197483957Y-103113388D01*
X197503055Y-103145680D01*
X197529413Y-103180439D01*
X197541023Y-103209880D01*
X197554035Y-103231882D01*
X197566165Y-103273635D01*
X197584362Y-103319780D01*
X197587738Y-103347894D01*
X197593108Y-103366378D01*
X197599099Y-103442497D01*
X197600000Y-103450000D01*
X197600000Y-105550000D01*
X197599098Y-105557504D01*
X197593108Y-105633621D01*
X197587738Y-105652104D01*
X197584362Y-105680220D01*
X197566163Y-105726367D01*
X197554035Y-105768117D01*
X197541024Y-105790116D01*
X197529413Y-105819561D01*
X197503052Y-105854322D01*
X197483957Y-105886611D01*
X197461657Y-105908910D01*
X197438909Y-105938909D01*
X197408910Y-105961657D01*
X197386611Y-105983957D01*
X197354322Y-106003052D01*
X197319561Y-106029413D01*
X197290116Y-106041024D01*
X197268117Y-106054035D01*
X197226367Y-106066163D01*
X197180220Y-106084362D01*
X197152104Y-106087738D01*
X197133621Y-106093108D01*
X197057504Y-106099098D01*
X197050000Y-106100000D01*
X190950000Y-106100000D01*
X190942497Y-106099099D01*
X190866378Y-106093108D01*
X190847894Y-106087738D01*
X190819780Y-106084362D01*
X190773635Y-106066165D01*
X190731882Y-106054035D01*
X190709880Y-106041023D01*
X190680439Y-106029413D01*
X190645680Y-106003055D01*
X190613388Y-105983957D01*
X190591085Y-105961654D01*
X190561091Y-105938909D01*
X190538345Y-105908914D01*
X190516042Y-105886611D01*
X190496943Y-105854316D01*
X190470587Y-105819561D01*
X190458977Y-105790121D01*
X190445964Y-105768117D01*
X190433832Y-105726357D01*
X190415638Y-105680220D01*
X190412262Y-105652109D01*
X190406891Y-105633621D01*
X190400898Y-105557480D01*
X190400000Y-105550000D01*
X190400000Y-103450000D01*
X190400898Y-103442521D01*
X190406891Y-103366378D01*
X190412262Y-103347888D01*
X190415638Y-103319780D01*
X190433831Y-103273645D01*
X190445964Y-103231882D01*
X190458978Y-103209875D01*
X190470587Y-103180439D01*
X190496940Y-103145686D01*
X190516042Y-103113388D01*
X190538348Y-103091081D01*
X190561091Y-103061091D01*
X190591081Y-103038348D01*
X190613388Y-103016042D01*
X190645686Y-102996940D01*
X190680439Y-102970587D01*
X190709875Y-102958978D01*
X190731882Y-102945964D01*
X190773645Y-102933831D01*
X190819780Y-102915638D01*
X190847888Y-102912262D01*
X190866378Y-102906891D01*
X190942521Y-102900898D01*
X190950000Y-102900000D01*
X197050000Y-102900000D01*
X197057480Y-102900898D01*
G37*
G36*
X209057480Y-102900898D02*
G01*
X209133621Y-102906891D01*
X209152109Y-102912262D01*
X209180220Y-102915638D01*
X209226357Y-102933832D01*
X209268117Y-102945964D01*
X209290121Y-102958977D01*
X209319561Y-102970587D01*
X209354316Y-102996943D01*
X209386611Y-103016042D01*
X209408914Y-103038345D01*
X209438909Y-103061091D01*
X209461654Y-103091085D01*
X209483957Y-103113388D01*
X209503055Y-103145680D01*
X209529413Y-103180439D01*
X209541023Y-103209880D01*
X209554035Y-103231882D01*
X209566165Y-103273635D01*
X209584362Y-103319780D01*
X209587738Y-103347894D01*
X209593108Y-103366378D01*
X209599099Y-103442497D01*
X209600000Y-103450000D01*
X209600000Y-105550000D01*
X209599098Y-105557504D01*
X209593108Y-105633621D01*
X209587738Y-105652104D01*
X209584362Y-105680220D01*
X209566163Y-105726367D01*
X209554035Y-105768117D01*
X209541024Y-105790116D01*
X209529413Y-105819561D01*
X209503052Y-105854322D01*
X209483957Y-105886611D01*
X209461657Y-105908910D01*
X209438909Y-105938909D01*
X209408910Y-105961657D01*
X209386611Y-105983957D01*
X209354322Y-106003052D01*
X209319561Y-106029413D01*
X209290116Y-106041024D01*
X209268117Y-106054035D01*
X209226367Y-106066163D01*
X209180220Y-106084362D01*
X209152104Y-106087738D01*
X209133621Y-106093108D01*
X209057504Y-106099098D01*
X209050000Y-106100000D01*
X202950000Y-106100000D01*
X202942497Y-106099099D01*
X202866378Y-106093108D01*
X202847894Y-106087738D01*
X202819780Y-106084362D01*
X202773635Y-106066165D01*
X202731882Y-106054035D01*
X202709880Y-106041023D01*
X202680439Y-106029413D01*
X202645680Y-106003055D01*
X202613388Y-105983957D01*
X202591085Y-105961654D01*
X202561091Y-105938909D01*
X202538345Y-105908914D01*
X202516042Y-105886611D01*
X202496943Y-105854316D01*
X202470587Y-105819561D01*
X202458977Y-105790121D01*
X202445964Y-105768117D01*
X202433832Y-105726357D01*
X202415638Y-105680220D01*
X202412262Y-105652109D01*
X202406891Y-105633621D01*
X202400898Y-105557480D01*
X202400000Y-105550000D01*
X202400000Y-103450000D01*
X202400898Y-103442521D01*
X202406891Y-103366378D01*
X202412262Y-103347888D01*
X202415638Y-103319780D01*
X202433831Y-103273645D01*
X202445964Y-103231882D01*
X202458978Y-103209875D01*
X202470587Y-103180439D01*
X202496940Y-103145686D01*
X202516042Y-103113388D01*
X202538348Y-103091081D01*
X202561091Y-103061091D01*
X202591081Y-103038348D01*
X202613388Y-103016042D01*
X202645686Y-102996940D01*
X202680439Y-102970587D01*
X202709875Y-102958978D01*
X202731882Y-102945964D01*
X202773645Y-102933831D01*
X202819780Y-102915638D01*
X202847888Y-102912262D01*
X202866378Y-102906891D01*
X202942521Y-102900898D01*
X202950000Y-102900000D01*
X209050000Y-102900000D01*
X209057480Y-102900898D01*
G37*
G36*
X221057480Y-102900898D02*
G01*
X221133621Y-102906891D01*
X221152109Y-102912262D01*
X221180220Y-102915638D01*
X221226357Y-102933832D01*
X221268117Y-102945964D01*
X221290121Y-102958977D01*
X221319561Y-102970587D01*
X221354316Y-102996943D01*
X221386611Y-103016042D01*
X221408914Y-103038345D01*
X221438909Y-103061091D01*
X221461654Y-103091085D01*
X221483957Y-103113388D01*
X221503055Y-103145680D01*
X221529413Y-103180439D01*
X221541023Y-103209880D01*
X221554035Y-103231882D01*
X221566165Y-103273635D01*
X221584362Y-103319780D01*
X221587738Y-103347894D01*
X221593108Y-103366378D01*
X221599099Y-103442497D01*
X221600000Y-103450000D01*
X221600000Y-105550000D01*
X221599098Y-105557504D01*
X221593108Y-105633621D01*
X221587738Y-105652104D01*
X221584362Y-105680220D01*
X221566163Y-105726367D01*
X221554035Y-105768117D01*
X221541024Y-105790116D01*
X221529413Y-105819561D01*
X221503052Y-105854322D01*
X221483957Y-105886611D01*
X221461657Y-105908910D01*
X221438909Y-105938909D01*
X221408910Y-105961657D01*
X221386611Y-105983957D01*
X221354322Y-106003052D01*
X221319561Y-106029413D01*
X221290116Y-106041024D01*
X221268117Y-106054035D01*
X221226367Y-106066163D01*
X221180220Y-106084362D01*
X221152104Y-106087738D01*
X221133621Y-106093108D01*
X221057504Y-106099098D01*
X221050000Y-106100000D01*
X214950000Y-106100000D01*
X214942497Y-106099099D01*
X214866378Y-106093108D01*
X214847894Y-106087738D01*
X214819780Y-106084362D01*
X214773635Y-106066165D01*
X214731882Y-106054035D01*
X214709880Y-106041023D01*
X214680439Y-106029413D01*
X214645680Y-106003055D01*
X214613388Y-105983957D01*
X214591085Y-105961654D01*
X214561091Y-105938909D01*
X214538345Y-105908914D01*
X214516042Y-105886611D01*
X214496943Y-105854316D01*
X214470587Y-105819561D01*
X214458977Y-105790121D01*
X214445964Y-105768117D01*
X214433832Y-105726357D01*
X214415638Y-105680220D01*
X214412262Y-105652109D01*
X214406891Y-105633621D01*
X214400898Y-105557480D01*
X214400000Y-105550000D01*
X214400000Y-103450000D01*
X214400898Y-103442521D01*
X214406891Y-103366378D01*
X214412262Y-103347888D01*
X214415638Y-103319780D01*
X214433831Y-103273645D01*
X214445964Y-103231882D01*
X214458978Y-103209875D01*
X214470587Y-103180439D01*
X214496940Y-103145686D01*
X214516042Y-103113388D01*
X214538348Y-103091081D01*
X214561091Y-103061091D01*
X214591081Y-103038348D01*
X214613388Y-103016042D01*
X214645686Y-102996940D01*
X214680439Y-102970587D01*
X214709875Y-102958978D01*
X214731882Y-102945964D01*
X214773645Y-102933831D01*
X214819780Y-102915638D01*
X214847888Y-102912262D01*
X214866378Y-102906891D01*
X214942521Y-102900898D01*
X214950000Y-102900000D01*
X221050000Y-102900000D01*
X221057480Y-102900898D01*
G37*
G36*
X233057480Y-102900898D02*
G01*
X233133621Y-102906891D01*
X233152109Y-102912262D01*
X233180220Y-102915638D01*
X233226357Y-102933832D01*
X233268117Y-102945964D01*
X233290121Y-102958977D01*
X233319561Y-102970587D01*
X233354316Y-102996943D01*
X233386611Y-103016042D01*
X233408914Y-103038345D01*
X233438909Y-103061091D01*
X233461654Y-103091085D01*
X233483957Y-103113388D01*
X233503055Y-103145680D01*
X233529413Y-103180439D01*
X233541023Y-103209880D01*
X233554035Y-103231882D01*
X233566165Y-103273635D01*
X233584362Y-103319780D01*
X233587738Y-103347894D01*
X233593108Y-103366378D01*
X233599099Y-103442497D01*
X233600000Y-103450000D01*
X233600000Y-105550000D01*
X233599098Y-105557504D01*
X233593108Y-105633621D01*
X233587738Y-105652104D01*
X233584362Y-105680220D01*
X233566163Y-105726367D01*
X233554035Y-105768117D01*
X233541024Y-105790116D01*
X233529413Y-105819561D01*
X233503052Y-105854322D01*
X233483957Y-105886611D01*
X233461657Y-105908910D01*
X233438909Y-105938909D01*
X233408910Y-105961657D01*
X233386611Y-105983957D01*
X233354322Y-106003052D01*
X233319561Y-106029413D01*
X233290116Y-106041024D01*
X233268117Y-106054035D01*
X233226367Y-106066163D01*
X233180220Y-106084362D01*
X233152104Y-106087738D01*
X233133621Y-106093108D01*
X233057504Y-106099098D01*
X233050000Y-106100000D01*
X226950000Y-106100000D01*
X226942497Y-106099099D01*
X226866378Y-106093108D01*
X226847894Y-106087738D01*
X226819780Y-106084362D01*
X226773635Y-106066165D01*
X226731882Y-106054035D01*
X226709880Y-106041023D01*
X226680439Y-106029413D01*
X226645680Y-106003055D01*
X226613388Y-105983957D01*
X226591085Y-105961654D01*
X226561091Y-105938909D01*
X226538345Y-105908914D01*
X226516042Y-105886611D01*
X226496943Y-105854316D01*
X226470587Y-105819561D01*
X226458977Y-105790121D01*
X226445964Y-105768117D01*
X226433832Y-105726357D01*
X226415638Y-105680220D01*
X226412262Y-105652109D01*
X226406891Y-105633621D01*
X226400898Y-105557480D01*
X226400000Y-105550000D01*
X226400000Y-103450000D01*
X226400898Y-103442521D01*
X226406891Y-103366378D01*
X226412262Y-103347888D01*
X226415638Y-103319780D01*
X226433831Y-103273645D01*
X226445964Y-103231882D01*
X226458978Y-103209875D01*
X226470587Y-103180439D01*
X226496940Y-103145686D01*
X226516042Y-103113388D01*
X226538348Y-103091081D01*
X226561091Y-103061091D01*
X226591081Y-103038348D01*
X226613388Y-103016042D01*
X226645686Y-102996940D01*
X226680439Y-102970587D01*
X226709875Y-102958978D01*
X226731882Y-102945964D01*
X226773645Y-102933831D01*
X226819780Y-102915638D01*
X226847888Y-102912262D01*
X226866378Y-102906891D01*
X226942521Y-102900898D01*
X226950000Y-102900000D01*
X233050000Y-102900000D01*
X233057480Y-102900898D01*
G37*
G36*
X245057480Y-102900898D02*
G01*
X245133621Y-102906891D01*
X245152109Y-102912262D01*
X245180220Y-102915638D01*
X245226357Y-102933832D01*
X245268117Y-102945964D01*
X245290121Y-102958977D01*
X245319561Y-102970587D01*
X245354316Y-102996943D01*
X245386611Y-103016042D01*
X245408914Y-103038345D01*
X245438909Y-103061091D01*
X245461654Y-103091085D01*
X245483957Y-103113388D01*
X245503055Y-103145680D01*
X245529413Y-103180439D01*
X245541023Y-103209880D01*
X245554035Y-103231882D01*
X245566165Y-103273635D01*
X245584362Y-103319780D01*
X245587738Y-103347894D01*
X245593108Y-103366378D01*
X245599099Y-103442497D01*
X245600000Y-103450000D01*
X245600000Y-105550000D01*
X245599098Y-105557504D01*
X245593108Y-105633621D01*
X245587738Y-105652104D01*
X245584362Y-105680220D01*
X245566163Y-105726367D01*
X245554035Y-105768117D01*
X245541024Y-105790116D01*
X245529413Y-105819561D01*
X245503052Y-105854322D01*
X245483957Y-105886611D01*
X245461657Y-105908910D01*
X245438909Y-105938909D01*
X245408910Y-105961657D01*
X245386611Y-105983957D01*
X245354322Y-106003052D01*
X245319561Y-106029413D01*
X245290116Y-106041024D01*
X245268117Y-106054035D01*
X245226367Y-106066163D01*
X245180220Y-106084362D01*
X245152104Y-106087738D01*
X245133621Y-106093108D01*
X245057504Y-106099098D01*
X245050000Y-106100000D01*
X238950000Y-106100000D01*
X238942497Y-106099099D01*
X238866378Y-106093108D01*
X238847894Y-106087738D01*
X238819780Y-106084362D01*
X238773635Y-106066165D01*
X238731882Y-106054035D01*
X238709880Y-106041023D01*
X238680439Y-106029413D01*
X238645680Y-106003055D01*
X238613388Y-105983957D01*
X238591085Y-105961654D01*
X238561091Y-105938909D01*
X238538345Y-105908914D01*
X238516042Y-105886611D01*
X238496943Y-105854316D01*
X238470587Y-105819561D01*
X238458977Y-105790121D01*
X238445964Y-105768117D01*
X238433832Y-105726357D01*
X238415638Y-105680220D01*
X238412262Y-105652109D01*
X238406891Y-105633621D01*
X238400898Y-105557480D01*
X238400000Y-105550000D01*
X238400000Y-103450000D01*
X238400898Y-103442521D01*
X238406891Y-103366378D01*
X238412262Y-103347888D01*
X238415638Y-103319780D01*
X238433831Y-103273645D01*
X238445964Y-103231882D01*
X238458978Y-103209875D01*
X238470587Y-103180439D01*
X238496940Y-103145686D01*
X238516042Y-103113388D01*
X238538348Y-103091081D01*
X238561091Y-103061091D01*
X238591081Y-103038348D01*
X238613388Y-103016042D01*
X238645686Y-102996940D01*
X238680439Y-102970587D01*
X238709875Y-102958978D01*
X238731882Y-102945964D01*
X238773645Y-102933831D01*
X238819780Y-102915638D01*
X238847888Y-102912262D01*
X238866378Y-102906891D01*
X238942521Y-102900898D01*
X238950000Y-102900000D01*
X245050000Y-102900000D01*
X245057480Y-102900898D01*
G37*
G36*
X155057480Y-92400898D02*
G01*
X155133621Y-92406891D01*
X155152109Y-92412262D01*
X155180220Y-92415638D01*
X155226357Y-92433832D01*
X155268117Y-92445964D01*
X155290121Y-92458977D01*
X155319561Y-92470587D01*
X155354316Y-92496943D01*
X155386611Y-92516042D01*
X155408914Y-92538345D01*
X155438909Y-92561091D01*
X155461654Y-92591085D01*
X155483957Y-92613388D01*
X155503055Y-92645680D01*
X155529413Y-92680439D01*
X155541023Y-92709880D01*
X155554035Y-92731882D01*
X155566165Y-92773635D01*
X155584362Y-92819780D01*
X155587738Y-92847894D01*
X155593108Y-92866378D01*
X155599099Y-92942497D01*
X155600000Y-92950000D01*
X155600000Y-95050000D01*
X155599098Y-95057504D01*
X155593108Y-95133621D01*
X155587738Y-95152104D01*
X155584362Y-95180220D01*
X155566163Y-95226367D01*
X155554035Y-95268117D01*
X155541024Y-95290116D01*
X155529413Y-95319561D01*
X155503052Y-95354322D01*
X155483957Y-95386611D01*
X155461657Y-95408910D01*
X155438909Y-95438909D01*
X155408910Y-95461657D01*
X155386611Y-95483957D01*
X155354322Y-95503052D01*
X155319561Y-95529413D01*
X155290116Y-95541024D01*
X155268117Y-95554035D01*
X155226367Y-95566163D01*
X155180220Y-95584362D01*
X155152104Y-95587738D01*
X155133621Y-95593108D01*
X155057504Y-95599098D01*
X155050000Y-95600000D01*
X148950000Y-95600000D01*
X148942497Y-95599099D01*
X148866378Y-95593108D01*
X148847894Y-95587738D01*
X148819780Y-95584362D01*
X148773635Y-95566165D01*
X148731882Y-95554035D01*
X148709880Y-95541023D01*
X148680439Y-95529413D01*
X148645680Y-95503055D01*
X148613388Y-95483957D01*
X148591085Y-95461654D01*
X148561091Y-95438909D01*
X148538345Y-95408914D01*
X148516042Y-95386611D01*
X148496943Y-95354316D01*
X148470587Y-95319561D01*
X148458977Y-95290121D01*
X148445964Y-95268117D01*
X148433832Y-95226357D01*
X148415638Y-95180220D01*
X148412262Y-95152109D01*
X148406891Y-95133621D01*
X148400898Y-95057480D01*
X148400000Y-95050000D01*
X148400000Y-92950000D01*
X148400898Y-92942521D01*
X148406891Y-92866378D01*
X148412262Y-92847888D01*
X148415638Y-92819780D01*
X148433831Y-92773645D01*
X148445964Y-92731882D01*
X148458978Y-92709875D01*
X148470587Y-92680439D01*
X148496940Y-92645686D01*
X148516042Y-92613388D01*
X148538348Y-92591081D01*
X148561091Y-92561091D01*
X148591081Y-92538348D01*
X148613388Y-92516042D01*
X148645686Y-92496940D01*
X148680439Y-92470587D01*
X148709875Y-92458978D01*
X148731882Y-92445964D01*
X148773645Y-92433831D01*
X148819780Y-92415638D01*
X148847888Y-92412262D01*
X148866378Y-92406891D01*
X148942521Y-92400898D01*
X148950000Y-92400000D01*
X155050000Y-92400000D01*
X155057480Y-92400898D01*
G37*
G36*
X65057480Y-87900898D02*
G01*
X65133621Y-87906891D01*
X65152109Y-87912262D01*
X65180220Y-87915638D01*
X65226357Y-87933832D01*
X65268117Y-87945964D01*
X65290121Y-87958977D01*
X65319561Y-87970587D01*
X65354316Y-87996943D01*
X65386611Y-88016042D01*
X65408914Y-88038345D01*
X65438909Y-88061091D01*
X65461654Y-88091085D01*
X65483957Y-88113388D01*
X65503055Y-88145680D01*
X65529413Y-88180439D01*
X65541023Y-88209880D01*
X65554035Y-88231882D01*
X65566165Y-88273635D01*
X65584362Y-88319780D01*
X65587738Y-88347894D01*
X65593108Y-88366378D01*
X65599099Y-88442497D01*
X65600000Y-88450000D01*
X65600000Y-90550000D01*
X65599098Y-90557504D01*
X65593108Y-90633621D01*
X65587738Y-90652104D01*
X65584362Y-90680220D01*
X65566163Y-90726367D01*
X65554035Y-90768117D01*
X65541024Y-90790116D01*
X65529413Y-90819561D01*
X65503052Y-90854322D01*
X65483957Y-90886611D01*
X65461657Y-90908910D01*
X65438909Y-90938909D01*
X65408910Y-90961657D01*
X65386611Y-90983957D01*
X65354322Y-91003052D01*
X65319561Y-91029413D01*
X65290116Y-91041024D01*
X65268117Y-91054035D01*
X65226367Y-91066163D01*
X65180220Y-91084362D01*
X65152104Y-91087738D01*
X65133621Y-91093108D01*
X65057504Y-91099098D01*
X65050000Y-91100000D01*
X58950000Y-91100000D01*
X58942497Y-91099099D01*
X58866378Y-91093108D01*
X58847894Y-91087738D01*
X58819780Y-91084362D01*
X58773635Y-91066165D01*
X58731882Y-91054035D01*
X58709880Y-91041023D01*
X58680439Y-91029413D01*
X58645680Y-91003055D01*
X58613388Y-90983957D01*
X58591085Y-90961654D01*
X58561091Y-90938909D01*
X58538345Y-90908914D01*
X58516042Y-90886611D01*
X58496943Y-90854316D01*
X58470587Y-90819561D01*
X58458977Y-90790121D01*
X58445964Y-90768117D01*
X58433832Y-90726357D01*
X58415638Y-90680220D01*
X58412262Y-90652109D01*
X58406891Y-90633621D01*
X58400898Y-90557480D01*
X58400000Y-90550000D01*
X58400000Y-88450000D01*
X58400898Y-88442521D01*
X58406891Y-88366378D01*
X58412262Y-88347888D01*
X58415638Y-88319780D01*
X58433831Y-88273645D01*
X58445964Y-88231882D01*
X58458978Y-88209875D01*
X58470587Y-88180439D01*
X58496940Y-88145686D01*
X58516042Y-88113388D01*
X58538348Y-88091081D01*
X58561091Y-88061091D01*
X58591081Y-88038348D01*
X58613388Y-88016042D01*
X58645686Y-87996940D01*
X58680439Y-87970587D01*
X58709875Y-87958978D01*
X58731882Y-87945964D01*
X58773645Y-87933831D01*
X58819780Y-87915638D01*
X58847888Y-87912262D01*
X58866378Y-87906891D01*
X58942521Y-87900898D01*
X58950000Y-87900000D01*
X65050000Y-87900000D01*
X65057480Y-87900898D01*
G37*
G36*
X77057480Y-87900898D02*
G01*
X77133621Y-87906891D01*
X77152109Y-87912262D01*
X77180220Y-87915638D01*
X77226357Y-87933832D01*
X77268117Y-87945964D01*
X77290121Y-87958977D01*
X77319561Y-87970587D01*
X77354316Y-87996943D01*
X77386611Y-88016042D01*
X77408914Y-88038345D01*
X77438909Y-88061091D01*
X77461654Y-88091085D01*
X77483957Y-88113388D01*
X77503055Y-88145680D01*
X77529413Y-88180439D01*
X77541023Y-88209880D01*
X77554035Y-88231882D01*
X77566165Y-88273635D01*
X77584362Y-88319780D01*
X77587738Y-88347894D01*
X77593108Y-88366378D01*
X77599099Y-88442497D01*
X77600000Y-88450000D01*
X77600000Y-90550000D01*
X77599098Y-90557504D01*
X77593108Y-90633621D01*
X77587738Y-90652104D01*
X77584362Y-90680220D01*
X77566163Y-90726367D01*
X77554035Y-90768117D01*
X77541024Y-90790116D01*
X77529413Y-90819561D01*
X77503052Y-90854322D01*
X77483957Y-90886611D01*
X77461657Y-90908910D01*
X77438909Y-90938909D01*
X77408910Y-90961657D01*
X77386611Y-90983957D01*
X77354322Y-91003052D01*
X77319561Y-91029413D01*
X77290116Y-91041024D01*
X77268117Y-91054035D01*
X77226367Y-91066163D01*
X77180220Y-91084362D01*
X77152104Y-91087738D01*
X77133621Y-91093108D01*
X77057504Y-91099098D01*
X77050000Y-91100000D01*
X70950000Y-91100000D01*
X70942497Y-91099099D01*
X70866378Y-91093108D01*
X70847894Y-91087738D01*
X70819780Y-91084362D01*
X70773635Y-91066165D01*
X70731882Y-91054035D01*
X70709880Y-91041023D01*
X70680439Y-91029413D01*
X70645680Y-91003055D01*
X70613388Y-90983957D01*
X70591085Y-90961654D01*
X70561091Y-90938909D01*
X70538345Y-90908914D01*
X70516042Y-90886611D01*
X70496943Y-90854316D01*
X70470587Y-90819561D01*
X70458977Y-90790121D01*
X70445964Y-90768117D01*
X70433832Y-90726357D01*
X70415638Y-90680220D01*
X70412262Y-90652109D01*
X70406891Y-90633621D01*
X70400898Y-90557480D01*
X70400000Y-90550000D01*
X70400000Y-88450000D01*
X70400898Y-88442521D01*
X70406891Y-88366378D01*
X70412262Y-88347888D01*
X70415638Y-88319780D01*
X70433831Y-88273645D01*
X70445964Y-88231882D01*
X70458978Y-88209875D01*
X70470587Y-88180439D01*
X70496940Y-88145686D01*
X70516042Y-88113388D01*
X70538348Y-88091081D01*
X70561091Y-88061091D01*
X70591081Y-88038348D01*
X70613388Y-88016042D01*
X70645686Y-87996940D01*
X70680439Y-87970587D01*
X70709875Y-87958978D01*
X70731882Y-87945964D01*
X70773645Y-87933831D01*
X70819780Y-87915638D01*
X70847888Y-87912262D01*
X70866378Y-87906891D01*
X70942521Y-87900898D01*
X70950000Y-87900000D01*
X77050000Y-87900000D01*
X77057480Y-87900898D01*
G37*
G36*
X89057480Y-87900898D02*
G01*
X89133621Y-87906891D01*
X89152109Y-87912262D01*
X89180220Y-87915638D01*
X89226357Y-87933832D01*
X89268117Y-87945964D01*
X89290121Y-87958977D01*
X89319561Y-87970587D01*
X89354316Y-87996943D01*
X89386611Y-88016042D01*
X89408914Y-88038345D01*
X89438909Y-88061091D01*
X89461654Y-88091085D01*
X89483957Y-88113388D01*
X89503055Y-88145680D01*
X89529413Y-88180439D01*
X89541023Y-88209880D01*
X89554035Y-88231882D01*
X89566165Y-88273635D01*
X89584362Y-88319780D01*
X89587738Y-88347894D01*
X89593108Y-88366378D01*
X89599099Y-88442497D01*
X89600000Y-88450000D01*
X89600000Y-90550000D01*
X89599098Y-90557504D01*
X89593108Y-90633621D01*
X89587738Y-90652104D01*
X89584362Y-90680220D01*
X89566163Y-90726367D01*
X89554035Y-90768117D01*
X89541024Y-90790116D01*
X89529413Y-90819561D01*
X89503052Y-90854322D01*
X89483957Y-90886611D01*
X89461657Y-90908910D01*
X89438909Y-90938909D01*
X89408910Y-90961657D01*
X89386611Y-90983957D01*
X89354322Y-91003052D01*
X89319561Y-91029413D01*
X89290116Y-91041024D01*
X89268117Y-91054035D01*
X89226367Y-91066163D01*
X89180220Y-91084362D01*
X89152104Y-91087738D01*
X89133621Y-91093108D01*
X89057504Y-91099098D01*
X89050000Y-91100000D01*
X82950000Y-91100000D01*
X82942497Y-91099099D01*
X82866378Y-91093108D01*
X82847894Y-91087738D01*
X82819780Y-91084362D01*
X82773635Y-91066165D01*
X82731882Y-91054035D01*
X82709880Y-91041023D01*
X82680439Y-91029413D01*
X82645680Y-91003055D01*
X82613388Y-90983957D01*
X82591085Y-90961654D01*
X82561091Y-90938909D01*
X82538345Y-90908914D01*
X82516042Y-90886611D01*
X82496943Y-90854316D01*
X82470587Y-90819561D01*
X82458977Y-90790121D01*
X82445964Y-90768117D01*
X82433832Y-90726357D01*
X82415638Y-90680220D01*
X82412262Y-90652109D01*
X82406891Y-90633621D01*
X82400898Y-90557480D01*
X82400000Y-90550000D01*
X82400000Y-88450000D01*
X82400898Y-88442521D01*
X82406891Y-88366378D01*
X82412262Y-88347888D01*
X82415638Y-88319780D01*
X82433831Y-88273645D01*
X82445964Y-88231882D01*
X82458978Y-88209875D01*
X82470587Y-88180439D01*
X82496940Y-88145686D01*
X82516042Y-88113388D01*
X82538348Y-88091081D01*
X82561091Y-88061091D01*
X82591081Y-88038348D01*
X82613388Y-88016042D01*
X82645686Y-87996940D01*
X82680439Y-87970587D01*
X82709875Y-87958978D01*
X82731882Y-87945964D01*
X82773645Y-87933831D01*
X82819780Y-87915638D01*
X82847888Y-87912262D01*
X82866378Y-87906891D01*
X82942521Y-87900898D01*
X82950000Y-87900000D01*
X89050000Y-87900000D01*
X89057480Y-87900898D01*
G37*
G36*
X101057480Y-87900898D02*
G01*
X101133621Y-87906891D01*
X101152109Y-87912262D01*
X101180220Y-87915638D01*
X101226357Y-87933832D01*
X101268117Y-87945964D01*
X101290121Y-87958977D01*
X101319561Y-87970587D01*
X101354316Y-87996943D01*
X101386611Y-88016042D01*
X101408914Y-88038345D01*
X101438909Y-88061091D01*
X101461654Y-88091085D01*
X101483957Y-88113388D01*
X101503055Y-88145680D01*
X101529413Y-88180439D01*
X101541023Y-88209880D01*
X101554035Y-88231882D01*
X101566165Y-88273635D01*
X101584362Y-88319780D01*
X101587738Y-88347894D01*
X101593108Y-88366378D01*
X101599099Y-88442497D01*
X101600000Y-88450000D01*
X101600000Y-90550000D01*
X101599098Y-90557504D01*
X101593108Y-90633621D01*
X101587738Y-90652104D01*
X101584362Y-90680220D01*
X101566163Y-90726367D01*
X101554035Y-90768117D01*
X101541024Y-90790116D01*
X101529413Y-90819561D01*
X101503052Y-90854322D01*
X101483957Y-90886611D01*
X101461657Y-90908910D01*
X101438909Y-90938909D01*
X101408910Y-90961657D01*
X101386611Y-90983957D01*
X101354322Y-91003052D01*
X101319561Y-91029413D01*
X101290116Y-91041024D01*
X101268117Y-91054035D01*
X101226367Y-91066163D01*
X101180220Y-91084362D01*
X101152104Y-91087738D01*
X101133621Y-91093108D01*
X101057504Y-91099098D01*
X101050000Y-91100000D01*
X94950000Y-91100000D01*
X94942497Y-91099099D01*
X94866378Y-91093108D01*
X94847894Y-91087738D01*
X94819780Y-91084362D01*
X94773635Y-91066165D01*
X94731882Y-91054035D01*
X94709880Y-91041023D01*
X94680439Y-91029413D01*
X94645680Y-91003055D01*
X94613388Y-90983957D01*
X94591085Y-90961654D01*
X94561091Y-90938909D01*
X94538345Y-90908914D01*
X94516042Y-90886611D01*
X94496943Y-90854316D01*
X94470587Y-90819561D01*
X94458977Y-90790121D01*
X94445964Y-90768117D01*
X94433832Y-90726357D01*
X94415638Y-90680220D01*
X94412262Y-90652109D01*
X94406891Y-90633621D01*
X94400898Y-90557480D01*
X94400000Y-90550000D01*
X94400000Y-88450000D01*
X94400898Y-88442521D01*
X94406891Y-88366378D01*
X94412262Y-88347888D01*
X94415638Y-88319780D01*
X94433831Y-88273645D01*
X94445964Y-88231882D01*
X94458978Y-88209875D01*
X94470587Y-88180439D01*
X94496940Y-88145686D01*
X94516042Y-88113388D01*
X94538348Y-88091081D01*
X94561091Y-88061091D01*
X94591081Y-88038348D01*
X94613388Y-88016042D01*
X94645686Y-87996940D01*
X94680439Y-87970587D01*
X94709875Y-87958978D01*
X94731882Y-87945964D01*
X94773645Y-87933831D01*
X94819780Y-87915638D01*
X94847888Y-87912262D01*
X94866378Y-87906891D01*
X94942521Y-87900898D01*
X94950000Y-87900000D01*
X101050000Y-87900000D01*
X101057480Y-87900898D01*
G37*
G36*
X113057480Y-87900898D02*
G01*
X113133621Y-87906891D01*
X113152109Y-87912262D01*
X113180220Y-87915638D01*
X113226357Y-87933832D01*
X113268117Y-87945964D01*
X113290121Y-87958977D01*
X113319561Y-87970587D01*
X113354316Y-87996943D01*
X113386611Y-88016042D01*
X113408914Y-88038345D01*
X113438909Y-88061091D01*
X113461654Y-88091085D01*
X113483957Y-88113388D01*
X113503055Y-88145680D01*
X113529413Y-88180439D01*
X113541023Y-88209880D01*
X113554035Y-88231882D01*
X113566165Y-88273635D01*
X113584362Y-88319780D01*
X113587738Y-88347894D01*
X113593108Y-88366378D01*
X113599099Y-88442497D01*
X113600000Y-88450000D01*
X113600000Y-90550000D01*
X113599098Y-90557504D01*
X113593108Y-90633621D01*
X113587738Y-90652104D01*
X113584362Y-90680220D01*
X113566163Y-90726367D01*
X113554035Y-90768117D01*
X113541024Y-90790116D01*
X113529413Y-90819561D01*
X113503052Y-90854322D01*
X113483957Y-90886611D01*
X113461657Y-90908910D01*
X113438909Y-90938909D01*
X113408910Y-90961657D01*
X113386611Y-90983957D01*
X113354322Y-91003052D01*
X113319561Y-91029413D01*
X113290116Y-91041024D01*
X113268117Y-91054035D01*
X113226367Y-91066163D01*
X113180220Y-91084362D01*
X113152104Y-91087738D01*
X113133621Y-91093108D01*
X113057504Y-91099098D01*
X113050000Y-91100000D01*
X106950000Y-91100000D01*
X106942497Y-91099099D01*
X106866378Y-91093108D01*
X106847894Y-91087738D01*
X106819780Y-91084362D01*
X106773635Y-91066165D01*
X106731882Y-91054035D01*
X106709880Y-91041023D01*
X106680439Y-91029413D01*
X106645680Y-91003055D01*
X106613388Y-90983957D01*
X106591085Y-90961654D01*
X106561091Y-90938909D01*
X106538345Y-90908914D01*
X106516042Y-90886611D01*
X106496943Y-90854316D01*
X106470587Y-90819561D01*
X106458977Y-90790121D01*
X106445964Y-90768117D01*
X106433832Y-90726357D01*
X106415638Y-90680220D01*
X106412262Y-90652109D01*
X106406891Y-90633621D01*
X106400898Y-90557480D01*
X106400000Y-90550000D01*
X106400000Y-88450000D01*
X106400898Y-88442521D01*
X106406891Y-88366378D01*
X106412262Y-88347888D01*
X106415638Y-88319780D01*
X106433831Y-88273645D01*
X106445964Y-88231882D01*
X106458978Y-88209875D01*
X106470587Y-88180439D01*
X106496940Y-88145686D01*
X106516042Y-88113388D01*
X106538348Y-88091081D01*
X106561091Y-88061091D01*
X106591081Y-88038348D01*
X106613388Y-88016042D01*
X106645686Y-87996940D01*
X106680439Y-87970587D01*
X106709875Y-87958978D01*
X106731882Y-87945964D01*
X106773645Y-87933831D01*
X106819780Y-87915638D01*
X106847888Y-87912262D01*
X106866378Y-87906891D01*
X106942521Y-87900898D01*
X106950000Y-87900000D01*
X113050000Y-87900000D01*
X113057480Y-87900898D01*
G37*
G36*
X125057480Y-87900898D02*
G01*
X125133621Y-87906891D01*
X125152109Y-87912262D01*
X125180220Y-87915638D01*
X125226357Y-87933832D01*
X125268117Y-87945964D01*
X125290121Y-87958977D01*
X125319561Y-87970587D01*
X125354316Y-87996943D01*
X125386611Y-88016042D01*
X125408914Y-88038345D01*
X125438909Y-88061091D01*
X125461654Y-88091085D01*
X125483957Y-88113388D01*
X125503055Y-88145680D01*
X125529413Y-88180439D01*
X125541023Y-88209880D01*
X125554035Y-88231882D01*
X125566165Y-88273635D01*
X125584362Y-88319780D01*
X125587738Y-88347894D01*
X125593108Y-88366378D01*
X125599099Y-88442497D01*
X125600000Y-88450000D01*
X125600000Y-90550000D01*
X125599098Y-90557504D01*
X125593108Y-90633621D01*
X125587738Y-90652104D01*
X125584362Y-90680220D01*
X125566163Y-90726367D01*
X125554035Y-90768117D01*
X125541024Y-90790116D01*
X125529413Y-90819561D01*
X125503052Y-90854322D01*
X125483957Y-90886611D01*
X125461657Y-90908910D01*
X125438909Y-90938909D01*
X125408910Y-90961657D01*
X125386611Y-90983957D01*
X125354322Y-91003052D01*
X125319561Y-91029413D01*
X125290116Y-91041024D01*
X125268117Y-91054035D01*
X125226367Y-91066163D01*
X125180220Y-91084362D01*
X125152104Y-91087738D01*
X125133621Y-91093108D01*
X125057504Y-91099098D01*
X125050000Y-91100000D01*
X118950000Y-91100000D01*
X118942497Y-91099099D01*
X118866378Y-91093108D01*
X118847894Y-91087738D01*
X118819780Y-91084362D01*
X118773635Y-91066165D01*
X118731882Y-91054035D01*
X118709880Y-91041023D01*
X118680439Y-91029413D01*
X118645680Y-91003055D01*
X118613388Y-90983957D01*
X118591085Y-90961654D01*
X118561091Y-90938909D01*
X118538345Y-90908914D01*
X118516042Y-90886611D01*
X118496943Y-90854316D01*
X118470587Y-90819561D01*
X118458977Y-90790121D01*
X118445964Y-90768117D01*
X118433832Y-90726357D01*
X118415638Y-90680220D01*
X118412262Y-90652109D01*
X118406891Y-90633621D01*
X118400898Y-90557480D01*
X118400000Y-90550000D01*
X118400000Y-88450000D01*
X118400898Y-88442521D01*
X118406891Y-88366378D01*
X118412262Y-88347888D01*
X118415638Y-88319780D01*
X118433831Y-88273645D01*
X118445964Y-88231882D01*
X118458978Y-88209875D01*
X118470587Y-88180439D01*
X118496940Y-88145686D01*
X118516042Y-88113388D01*
X118538348Y-88091081D01*
X118561091Y-88061091D01*
X118591081Y-88038348D01*
X118613388Y-88016042D01*
X118645686Y-87996940D01*
X118680439Y-87970587D01*
X118709875Y-87958978D01*
X118731882Y-87945964D01*
X118773645Y-87933831D01*
X118819780Y-87915638D01*
X118847888Y-87912262D01*
X118866378Y-87906891D01*
X118942521Y-87900898D01*
X118950000Y-87900000D01*
X125050000Y-87900000D01*
X125057480Y-87900898D01*
G37*
G36*
X137057480Y-87900898D02*
G01*
X137133621Y-87906891D01*
X137152109Y-87912262D01*
X137180220Y-87915638D01*
X137226357Y-87933832D01*
X137268117Y-87945964D01*
X137290121Y-87958977D01*
X137319561Y-87970587D01*
X137354316Y-87996943D01*
X137386611Y-88016042D01*
X137408914Y-88038345D01*
X137438909Y-88061091D01*
X137461654Y-88091085D01*
X137483957Y-88113388D01*
X137503055Y-88145680D01*
X137529413Y-88180439D01*
X137541023Y-88209880D01*
X137554035Y-88231882D01*
X137566165Y-88273635D01*
X137584362Y-88319780D01*
X137587738Y-88347894D01*
X137593108Y-88366378D01*
X137599099Y-88442497D01*
X137600000Y-88450000D01*
X137600000Y-90550000D01*
X137599098Y-90557504D01*
X137593108Y-90633621D01*
X137587738Y-90652104D01*
X137584362Y-90680220D01*
X137566163Y-90726367D01*
X137554035Y-90768117D01*
X137541024Y-90790116D01*
X137529413Y-90819561D01*
X137503052Y-90854322D01*
X137483957Y-90886611D01*
X137461657Y-90908910D01*
X137438909Y-90938909D01*
X137408910Y-90961657D01*
X137386611Y-90983957D01*
X137354322Y-91003052D01*
X137319561Y-91029413D01*
X137290116Y-91041024D01*
X137268117Y-91054035D01*
X137226367Y-91066163D01*
X137180220Y-91084362D01*
X137152104Y-91087738D01*
X137133621Y-91093108D01*
X137057504Y-91099098D01*
X137050000Y-91100000D01*
X130950000Y-91100000D01*
X130942497Y-91099099D01*
X130866378Y-91093108D01*
X130847894Y-91087738D01*
X130819780Y-91084362D01*
X130773635Y-91066165D01*
X130731882Y-91054035D01*
X130709880Y-91041023D01*
X130680439Y-91029413D01*
X130645680Y-91003055D01*
X130613388Y-90983957D01*
X130591085Y-90961654D01*
X130561091Y-90938909D01*
X130538345Y-90908914D01*
X130516042Y-90886611D01*
X130496943Y-90854316D01*
X130470587Y-90819561D01*
X130458977Y-90790121D01*
X130445964Y-90768117D01*
X130433832Y-90726357D01*
X130415638Y-90680220D01*
X130412262Y-90652109D01*
X130406891Y-90633621D01*
X130400898Y-90557480D01*
X130400000Y-90550000D01*
X130400000Y-88450000D01*
X130400898Y-88442521D01*
X130406891Y-88366378D01*
X130412262Y-88347888D01*
X130415638Y-88319780D01*
X130433831Y-88273645D01*
X130445964Y-88231882D01*
X130458978Y-88209875D01*
X130470587Y-88180439D01*
X130496940Y-88145686D01*
X130516042Y-88113388D01*
X130538348Y-88091081D01*
X130561091Y-88061091D01*
X130591081Y-88038348D01*
X130613388Y-88016042D01*
X130645686Y-87996940D01*
X130680439Y-87970587D01*
X130709875Y-87958978D01*
X130731882Y-87945964D01*
X130773645Y-87933831D01*
X130819780Y-87915638D01*
X130847888Y-87912262D01*
X130866378Y-87906891D01*
X130942521Y-87900898D01*
X130950000Y-87900000D01*
X137050000Y-87900000D01*
X137057480Y-87900898D01*
G37*
G36*
X149057480Y-87900898D02*
G01*
X149133621Y-87906891D01*
X149152109Y-87912262D01*
X149180220Y-87915638D01*
X149226357Y-87933832D01*
X149268117Y-87945964D01*
X149290121Y-87958977D01*
X149319561Y-87970587D01*
X149354316Y-87996943D01*
X149386611Y-88016042D01*
X149408914Y-88038345D01*
X149438909Y-88061091D01*
X149461654Y-88091085D01*
X149483957Y-88113388D01*
X149503055Y-88145680D01*
X149529413Y-88180439D01*
X149541023Y-88209880D01*
X149554035Y-88231882D01*
X149566165Y-88273635D01*
X149584362Y-88319780D01*
X149587738Y-88347894D01*
X149593108Y-88366378D01*
X149599099Y-88442497D01*
X149600000Y-88450000D01*
X149600000Y-90550000D01*
X149599098Y-90557504D01*
X149593108Y-90633621D01*
X149587738Y-90652104D01*
X149584362Y-90680220D01*
X149566163Y-90726367D01*
X149554035Y-90768117D01*
X149541024Y-90790116D01*
X149529413Y-90819561D01*
X149503052Y-90854322D01*
X149483957Y-90886611D01*
X149461657Y-90908910D01*
X149438909Y-90938909D01*
X149408910Y-90961657D01*
X149386611Y-90983957D01*
X149354322Y-91003052D01*
X149319561Y-91029413D01*
X149290116Y-91041024D01*
X149268117Y-91054035D01*
X149226367Y-91066163D01*
X149180220Y-91084362D01*
X149152104Y-91087738D01*
X149133621Y-91093108D01*
X149057504Y-91099098D01*
X149050000Y-91100000D01*
X142950000Y-91100000D01*
X142942497Y-91099099D01*
X142866378Y-91093108D01*
X142847894Y-91087738D01*
X142819780Y-91084362D01*
X142773635Y-91066165D01*
X142731882Y-91054035D01*
X142709880Y-91041023D01*
X142680439Y-91029413D01*
X142645680Y-91003055D01*
X142613388Y-90983957D01*
X142591085Y-90961654D01*
X142561091Y-90938909D01*
X142538345Y-90908914D01*
X142516042Y-90886611D01*
X142496943Y-90854316D01*
X142470587Y-90819561D01*
X142458977Y-90790121D01*
X142445964Y-90768117D01*
X142433832Y-90726357D01*
X142415638Y-90680220D01*
X142412262Y-90652109D01*
X142406891Y-90633621D01*
X142400898Y-90557480D01*
X142400000Y-90550000D01*
X142400000Y-88450000D01*
X142400898Y-88442521D01*
X142406891Y-88366378D01*
X142412262Y-88347888D01*
X142415638Y-88319780D01*
X142433831Y-88273645D01*
X142445964Y-88231882D01*
X142458978Y-88209875D01*
X142470587Y-88180439D01*
X142496940Y-88145686D01*
X142516042Y-88113388D01*
X142538348Y-88091081D01*
X142561091Y-88061091D01*
X142591081Y-88038348D01*
X142613388Y-88016042D01*
X142645686Y-87996940D01*
X142680439Y-87970587D01*
X142709875Y-87958978D01*
X142731882Y-87945964D01*
X142773645Y-87933831D01*
X142819780Y-87915638D01*
X142847888Y-87912262D01*
X142866378Y-87906891D01*
X142942521Y-87900898D01*
X142950000Y-87900000D01*
X149050000Y-87900000D01*
X149057480Y-87900898D01*
G37*
G36*
X161057480Y-87900898D02*
G01*
X161133621Y-87906891D01*
X161152109Y-87912262D01*
X161180220Y-87915638D01*
X161226357Y-87933832D01*
X161268117Y-87945964D01*
X161290121Y-87958977D01*
X161319561Y-87970587D01*
X161354316Y-87996943D01*
X161386611Y-88016042D01*
X161408914Y-88038345D01*
X161438909Y-88061091D01*
X161461654Y-88091085D01*
X161483957Y-88113388D01*
X161503055Y-88145680D01*
X161529413Y-88180439D01*
X161541023Y-88209880D01*
X161554035Y-88231882D01*
X161566165Y-88273635D01*
X161584362Y-88319780D01*
X161587738Y-88347894D01*
X161593108Y-88366378D01*
X161599099Y-88442497D01*
X161600000Y-88450000D01*
X161600000Y-90550000D01*
X161599098Y-90557504D01*
X161593108Y-90633621D01*
X161587738Y-90652104D01*
X161584362Y-90680220D01*
X161566163Y-90726367D01*
X161554035Y-90768117D01*
X161541024Y-90790116D01*
X161529413Y-90819561D01*
X161503052Y-90854322D01*
X161483957Y-90886611D01*
X161461657Y-90908910D01*
X161438909Y-90938909D01*
X161408910Y-90961657D01*
X161386611Y-90983957D01*
X161354322Y-91003052D01*
X161319561Y-91029413D01*
X161290116Y-91041024D01*
X161268117Y-91054035D01*
X161226367Y-91066163D01*
X161180220Y-91084362D01*
X161152104Y-91087738D01*
X161133621Y-91093108D01*
X161057504Y-91099098D01*
X161050000Y-91100000D01*
X154950000Y-91100000D01*
X154942497Y-91099099D01*
X154866378Y-91093108D01*
X154847894Y-91087738D01*
X154819780Y-91084362D01*
X154773635Y-91066165D01*
X154731882Y-91054035D01*
X154709880Y-91041023D01*
X154680439Y-91029413D01*
X154645680Y-91003055D01*
X154613388Y-90983957D01*
X154591085Y-90961654D01*
X154561091Y-90938909D01*
X154538345Y-90908914D01*
X154516042Y-90886611D01*
X154496943Y-90854316D01*
X154470587Y-90819561D01*
X154458977Y-90790121D01*
X154445964Y-90768117D01*
X154433832Y-90726357D01*
X154415638Y-90680220D01*
X154412262Y-90652109D01*
X154406891Y-90633621D01*
X154400898Y-90557480D01*
X154400000Y-90550000D01*
X154400000Y-88450000D01*
X154400898Y-88442521D01*
X154406891Y-88366378D01*
X154412262Y-88347888D01*
X154415638Y-88319780D01*
X154433831Y-88273645D01*
X154445964Y-88231882D01*
X154458978Y-88209875D01*
X154470587Y-88180439D01*
X154496940Y-88145686D01*
X154516042Y-88113388D01*
X154538348Y-88091081D01*
X154561091Y-88061091D01*
X154591081Y-88038348D01*
X154613388Y-88016042D01*
X154645686Y-87996940D01*
X154680439Y-87970587D01*
X154709875Y-87958978D01*
X154731882Y-87945964D01*
X154773645Y-87933831D01*
X154819780Y-87915638D01*
X154847888Y-87912262D01*
X154866378Y-87906891D01*
X154942521Y-87900898D01*
X154950000Y-87900000D01*
X161050000Y-87900000D01*
X161057480Y-87900898D01*
G37*
G36*
X173057480Y-87900898D02*
G01*
X173133621Y-87906891D01*
X173152109Y-87912262D01*
X173180220Y-87915638D01*
X173226357Y-87933832D01*
X173268117Y-87945964D01*
X173290121Y-87958977D01*
X173319561Y-87970587D01*
X173354316Y-87996943D01*
X173386611Y-88016042D01*
X173408914Y-88038345D01*
X173438909Y-88061091D01*
X173461654Y-88091085D01*
X173483957Y-88113388D01*
X173503055Y-88145680D01*
X173529413Y-88180439D01*
X173541023Y-88209880D01*
X173554035Y-88231882D01*
X173566165Y-88273635D01*
X173584362Y-88319780D01*
X173587738Y-88347894D01*
X173593108Y-88366378D01*
X173599099Y-88442497D01*
X173600000Y-88450000D01*
X173600000Y-90550000D01*
X173599098Y-90557504D01*
X173593108Y-90633621D01*
X173587738Y-90652104D01*
X173584362Y-90680220D01*
X173566163Y-90726367D01*
X173554035Y-90768117D01*
X173541024Y-90790116D01*
X173529413Y-90819561D01*
X173503052Y-90854322D01*
X173483957Y-90886611D01*
X173461657Y-90908910D01*
X173438909Y-90938909D01*
X173408910Y-90961657D01*
X173386611Y-90983957D01*
X173354322Y-91003052D01*
X173319561Y-91029413D01*
X173290116Y-91041024D01*
X173268117Y-91054035D01*
X173226367Y-91066163D01*
X173180220Y-91084362D01*
X173152104Y-91087738D01*
X173133621Y-91093108D01*
X173057504Y-91099098D01*
X173050000Y-91100000D01*
X166950000Y-91100000D01*
X166942497Y-91099099D01*
X166866378Y-91093108D01*
X166847894Y-91087738D01*
X166819780Y-91084362D01*
X166773635Y-91066165D01*
X166731882Y-91054035D01*
X166709880Y-91041023D01*
X166680439Y-91029413D01*
X166645680Y-91003055D01*
X166613388Y-90983957D01*
X166591085Y-90961654D01*
X166561091Y-90938909D01*
X166538345Y-90908914D01*
X166516042Y-90886611D01*
X166496943Y-90854316D01*
X166470587Y-90819561D01*
X166458977Y-90790121D01*
X166445964Y-90768117D01*
X166433832Y-90726357D01*
X166415638Y-90680220D01*
X166412262Y-90652109D01*
X166406891Y-90633621D01*
X166400898Y-90557480D01*
X166400000Y-90550000D01*
X166400000Y-88450000D01*
X166400898Y-88442521D01*
X166406891Y-88366378D01*
X166412262Y-88347888D01*
X166415638Y-88319780D01*
X166433831Y-88273645D01*
X166445964Y-88231882D01*
X166458978Y-88209875D01*
X166470587Y-88180439D01*
X166496940Y-88145686D01*
X166516042Y-88113388D01*
X166538348Y-88091081D01*
X166561091Y-88061091D01*
X166591081Y-88038348D01*
X166613388Y-88016042D01*
X166645686Y-87996940D01*
X166680439Y-87970587D01*
X166709875Y-87958978D01*
X166731882Y-87945964D01*
X166773645Y-87933831D01*
X166819780Y-87915638D01*
X166847888Y-87912262D01*
X166866378Y-87906891D01*
X166942521Y-87900898D01*
X166950000Y-87900000D01*
X173050000Y-87900000D01*
X173057480Y-87900898D01*
G37*
G36*
X185057480Y-87900898D02*
G01*
X185133621Y-87906891D01*
X185152109Y-87912262D01*
X185180220Y-87915638D01*
X185226357Y-87933832D01*
X185268117Y-87945964D01*
X185290121Y-87958977D01*
X185319561Y-87970587D01*
X185354316Y-87996943D01*
X185386611Y-88016042D01*
X185408914Y-88038345D01*
X185438909Y-88061091D01*
X185461654Y-88091085D01*
X185483957Y-88113388D01*
X185503055Y-88145680D01*
X185529413Y-88180439D01*
X185541023Y-88209880D01*
X185554035Y-88231882D01*
X185566165Y-88273635D01*
X185584362Y-88319780D01*
X185587738Y-88347894D01*
X185593108Y-88366378D01*
X185599099Y-88442497D01*
X185600000Y-88450000D01*
X185600000Y-90550000D01*
X185599098Y-90557504D01*
X185593108Y-90633621D01*
X185587738Y-90652104D01*
X185584362Y-90680220D01*
X185566163Y-90726367D01*
X185554035Y-90768117D01*
X185541024Y-90790116D01*
X185529413Y-90819561D01*
X185503052Y-90854322D01*
X185483957Y-90886611D01*
X185461657Y-90908910D01*
X185438909Y-90938909D01*
X185408910Y-90961657D01*
X185386611Y-90983957D01*
X185354322Y-91003052D01*
X185319561Y-91029413D01*
X185290116Y-91041024D01*
X185268117Y-91054035D01*
X185226367Y-91066163D01*
X185180220Y-91084362D01*
X185152104Y-91087738D01*
X185133621Y-91093108D01*
X185057504Y-91099098D01*
X185050000Y-91100000D01*
X178950000Y-91100000D01*
X178942497Y-91099099D01*
X178866378Y-91093108D01*
X178847894Y-91087738D01*
X178819780Y-91084362D01*
X178773635Y-91066165D01*
X178731882Y-91054035D01*
X178709880Y-91041023D01*
X178680439Y-91029413D01*
X178645680Y-91003055D01*
X178613388Y-90983957D01*
X178591085Y-90961654D01*
X178561091Y-90938909D01*
X178538345Y-90908914D01*
X178516042Y-90886611D01*
X178496943Y-90854316D01*
X178470587Y-90819561D01*
X178458977Y-90790121D01*
X178445964Y-90768117D01*
X178433832Y-90726357D01*
X178415638Y-90680220D01*
X178412262Y-90652109D01*
X178406891Y-90633621D01*
X178400898Y-90557480D01*
X178400000Y-90550000D01*
X178400000Y-88450000D01*
X178400898Y-88442521D01*
X178406891Y-88366378D01*
X178412262Y-88347888D01*
X178415638Y-88319780D01*
X178433831Y-88273645D01*
X178445964Y-88231882D01*
X178458978Y-88209875D01*
X178470587Y-88180439D01*
X178496940Y-88145686D01*
X178516042Y-88113388D01*
X178538348Y-88091081D01*
X178561091Y-88061091D01*
X178591081Y-88038348D01*
X178613388Y-88016042D01*
X178645686Y-87996940D01*
X178680439Y-87970587D01*
X178709875Y-87958978D01*
X178731882Y-87945964D01*
X178773645Y-87933831D01*
X178819780Y-87915638D01*
X178847888Y-87912262D01*
X178866378Y-87906891D01*
X178942521Y-87900898D01*
X178950000Y-87900000D01*
X185050000Y-87900000D01*
X185057480Y-87900898D01*
G37*
G36*
X197057480Y-87900898D02*
G01*
X197133621Y-87906891D01*
X197152109Y-87912262D01*
X197180220Y-87915638D01*
X197226357Y-87933832D01*
X197268117Y-87945964D01*
X197290121Y-87958977D01*
X197319561Y-87970587D01*
X197354316Y-87996943D01*
X197386611Y-88016042D01*
X197408914Y-88038345D01*
X197438909Y-88061091D01*
X197461654Y-88091085D01*
X197483957Y-88113388D01*
X197503055Y-88145680D01*
X197529413Y-88180439D01*
X197541023Y-88209880D01*
X197554035Y-88231882D01*
X197566165Y-88273635D01*
X197584362Y-88319780D01*
X197587738Y-88347894D01*
X197593108Y-88366378D01*
X197599099Y-88442497D01*
X197600000Y-88450000D01*
X197600000Y-90550000D01*
X197599098Y-90557504D01*
X197593108Y-90633621D01*
X197587738Y-90652104D01*
X197584362Y-90680220D01*
X197566163Y-90726367D01*
X197554035Y-90768117D01*
X197541024Y-90790116D01*
X197529413Y-90819561D01*
X197503052Y-90854322D01*
X197483957Y-90886611D01*
X197461657Y-90908910D01*
X197438909Y-90938909D01*
X197408910Y-90961657D01*
X197386611Y-90983957D01*
X197354322Y-91003052D01*
X197319561Y-91029413D01*
X197290116Y-91041024D01*
X197268117Y-91054035D01*
X197226367Y-91066163D01*
X197180220Y-91084362D01*
X197152104Y-91087738D01*
X197133621Y-91093108D01*
X197057504Y-91099098D01*
X197050000Y-91100000D01*
X190950000Y-91100000D01*
X190942497Y-91099099D01*
X190866378Y-91093108D01*
X190847894Y-91087738D01*
X190819780Y-91084362D01*
X190773635Y-91066165D01*
X190731882Y-91054035D01*
X190709880Y-91041023D01*
X190680439Y-91029413D01*
X190645680Y-91003055D01*
X190613388Y-90983957D01*
X190591085Y-90961654D01*
X190561091Y-90938909D01*
X190538345Y-90908914D01*
X190516042Y-90886611D01*
X190496943Y-90854316D01*
X190470587Y-90819561D01*
X190458977Y-90790121D01*
X190445964Y-90768117D01*
X190433832Y-90726357D01*
X190415638Y-90680220D01*
X190412262Y-90652109D01*
X190406891Y-90633621D01*
X190400898Y-90557480D01*
X190400000Y-90550000D01*
X190400000Y-88450000D01*
X190400898Y-88442521D01*
X190406891Y-88366378D01*
X190412262Y-88347888D01*
X190415638Y-88319780D01*
X190433831Y-88273645D01*
X190445964Y-88231882D01*
X190458978Y-88209875D01*
X190470587Y-88180439D01*
X190496940Y-88145686D01*
X190516042Y-88113388D01*
X190538348Y-88091081D01*
X190561091Y-88061091D01*
X190591081Y-88038348D01*
X190613388Y-88016042D01*
X190645686Y-87996940D01*
X190680439Y-87970587D01*
X190709875Y-87958978D01*
X190731882Y-87945964D01*
X190773645Y-87933831D01*
X190819780Y-87915638D01*
X190847888Y-87912262D01*
X190866378Y-87906891D01*
X190942521Y-87900898D01*
X190950000Y-87900000D01*
X197050000Y-87900000D01*
X197057480Y-87900898D01*
G37*
G36*
X209057480Y-87900898D02*
G01*
X209133621Y-87906891D01*
X209152109Y-87912262D01*
X209180220Y-87915638D01*
X209226357Y-87933832D01*
X209268117Y-87945964D01*
X209290121Y-87958977D01*
X209319561Y-87970587D01*
X209354316Y-87996943D01*
X209386611Y-88016042D01*
X209408914Y-88038345D01*
X209438909Y-88061091D01*
X209461654Y-88091085D01*
X209483957Y-88113388D01*
X209503055Y-88145680D01*
X209529413Y-88180439D01*
X209541023Y-88209880D01*
X209554035Y-88231882D01*
X209566165Y-88273635D01*
X209584362Y-88319780D01*
X209587738Y-88347894D01*
X209593108Y-88366378D01*
X209599099Y-88442497D01*
X209600000Y-88450000D01*
X209600000Y-90550000D01*
X209599098Y-90557504D01*
X209593108Y-90633621D01*
X209587738Y-90652104D01*
X209584362Y-90680220D01*
X209566163Y-90726367D01*
X209554035Y-90768117D01*
X209541024Y-90790116D01*
X209529413Y-90819561D01*
X209503052Y-90854322D01*
X209483957Y-90886611D01*
X209461657Y-90908910D01*
X209438909Y-90938909D01*
X209408910Y-90961657D01*
X209386611Y-90983957D01*
X209354322Y-91003052D01*
X209319561Y-91029413D01*
X209290116Y-91041024D01*
X209268117Y-91054035D01*
X209226367Y-91066163D01*
X209180220Y-91084362D01*
X209152104Y-91087738D01*
X209133621Y-91093108D01*
X209057504Y-91099098D01*
X209050000Y-91100000D01*
X202950000Y-91100000D01*
X202942497Y-91099099D01*
X202866378Y-91093108D01*
X202847894Y-91087738D01*
X202819780Y-91084362D01*
X202773635Y-91066165D01*
X202731882Y-91054035D01*
X202709880Y-91041023D01*
X202680439Y-91029413D01*
X202645680Y-91003055D01*
X202613388Y-90983957D01*
X202591085Y-90961654D01*
X202561091Y-90938909D01*
X202538345Y-90908914D01*
X202516042Y-90886611D01*
X202496943Y-90854316D01*
X202470587Y-90819561D01*
X202458977Y-90790121D01*
X202445964Y-90768117D01*
X202433832Y-90726357D01*
X202415638Y-90680220D01*
X202412262Y-90652109D01*
X202406891Y-90633621D01*
X202400898Y-90557480D01*
X202400000Y-90550000D01*
X202400000Y-88450000D01*
X202400898Y-88442521D01*
X202406891Y-88366378D01*
X202412262Y-88347888D01*
X202415638Y-88319780D01*
X202433831Y-88273645D01*
X202445964Y-88231882D01*
X202458978Y-88209875D01*
X202470587Y-88180439D01*
X202496940Y-88145686D01*
X202516042Y-88113388D01*
X202538348Y-88091081D01*
X202561091Y-88061091D01*
X202591081Y-88038348D01*
X202613388Y-88016042D01*
X202645686Y-87996940D01*
X202680439Y-87970587D01*
X202709875Y-87958978D01*
X202731882Y-87945964D01*
X202773645Y-87933831D01*
X202819780Y-87915638D01*
X202847888Y-87912262D01*
X202866378Y-87906891D01*
X202942521Y-87900898D01*
X202950000Y-87900000D01*
X209050000Y-87900000D01*
X209057480Y-87900898D01*
G37*
G36*
X221057480Y-87900898D02*
G01*
X221133621Y-87906891D01*
X221152109Y-87912262D01*
X221180220Y-87915638D01*
X221226357Y-87933832D01*
X221268117Y-87945964D01*
X221290121Y-87958977D01*
X221319561Y-87970587D01*
X221354316Y-87996943D01*
X221386611Y-88016042D01*
X221408914Y-88038345D01*
X221438909Y-88061091D01*
X221461654Y-88091085D01*
X221483957Y-88113388D01*
X221503055Y-88145680D01*
X221529413Y-88180439D01*
X221541023Y-88209880D01*
X221554035Y-88231882D01*
X221566165Y-88273635D01*
X221584362Y-88319780D01*
X221587738Y-88347894D01*
X221593108Y-88366378D01*
X221599099Y-88442497D01*
X221600000Y-88450000D01*
X221600000Y-90550000D01*
X221599098Y-90557504D01*
X221593108Y-90633621D01*
X221587738Y-90652104D01*
X221584362Y-90680220D01*
X221566163Y-90726367D01*
X221554035Y-90768117D01*
X221541024Y-90790116D01*
X221529413Y-90819561D01*
X221503052Y-90854322D01*
X221483957Y-90886611D01*
X221461657Y-90908910D01*
X221438909Y-90938909D01*
X221408910Y-90961657D01*
X221386611Y-90983957D01*
X221354322Y-91003052D01*
X221319561Y-91029413D01*
X221290116Y-91041024D01*
X221268117Y-91054035D01*
X221226367Y-91066163D01*
X221180220Y-91084362D01*
X221152104Y-91087738D01*
X221133621Y-91093108D01*
X221057504Y-91099098D01*
X221050000Y-91100000D01*
X214950000Y-91100000D01*
X214942497Y-91099099D01*
X214866378Y-91093108D01*
X214847894Y-91087738D01*
X214819780Y-91084362D01*
X214773635Y-91066165D01*
X214731882Y-91054035D01*
X214709880Y-91041023D01*
X214680439Y-91029413D01*
X214645680Y-91003055D01*
X214613388Y-90983957D01*
X214591085Y-90961654D01*
X214561091Y-90938909D01*
X214538345Y-90908914D01*
X214516042Y-90886611D01*
X214496943Y-90854316D01*
X214470587Y-90819561D01*
X214458977Y-90790121D01*
X214445964Y-90768117D01*
X214433832Y-90726357D01*
X214415638Y-90680220D01*
X214412262Y-90652109D01*
X214406891Y-90633621D01*
X214400898Y-90557480D01*
X214400000Y-90550000D01*
X214400000Y-88450000D01*
X214400898Y-88442521D01*
X214406891Y-88366378D01*
X214412262Y-88347888D01*
X214415638Y-88319780D01*
X214433831Y-88273645D01*
X214445964Y-88231882D01*
X214458978Y-88209875D01*
X214470587Y-88180439D01*
X214496940Y-88145686D01*
X214516042Y-88113388D01*
X214538348Y-88091081D01*
X214561091Y-88061091D01*
X214591081Y-88038348D01*
X214613388Y-88016042D01*
X214645686Y-87996940D01*
X214680439Y-87970587D01*
X214709875Y-87958978D01*
X214731882Y-87945964D01*
X214773645Y-87933831D01*
X214819780Y-87915638D01*
X214847888Y-87912262D01*
X214866378Y-87906891D01*
X214942521Y-87900898D01*
X214950000Y-87900000D01*
X221050000Y-87900000D01*
X221057480Y-87900898D01*
G37*
G36*
X233057480Y-87900898D02*
G01*
X233133621Y-87906891D01*
X233152109Y-87912262D01*
X233180220Y-87915638D01*
X233226357Y-87933832D01*
X233268117Y-87945964D01*
X233290121Y-87958977D01*
X233319561Y-87970587D01*
X233354316Y-87996943D01*
X233386611Y-88016042D01*
X233408914Y-88038345D01*
X233438909Y-88061091D01*
X233461654Y-88091085D01*
X233483957Y-88113388D01*
X233503055Y-88145680D01*
X233529413Y-88180439D01*
X233541023Y-88209880D01*
X233554035Y-88231882D01*
X233566165Y-88273635D01*
X233584362Y-88319780D01*
X233587738Y-88347894D01*
X233593108Y-88366378D01*
X233599099Y-88442497D01*
X233600000Y-88450000D01*
X233600000Y-90550000D01*
X233599098Y-90557504D01*
X233593108Y-90633621D01*
X233587738Y-90652104D01*
X233584362Y-90680220D01*
X233566163Y-90726367D01*
X233554035Y-90768117D01*
X233541024Y-90790116D01*
X233529413Y-90819561D01*
X233503052Y-90854322D01*
X233483957Y-90886611D01*
X233461657Y-90908910D01*
X233438909Y-90938909D01*
X233408910Y-90961657D01*
X233386611Y-90983957D01*
X233354322Y-91003052D01*
X233319561Y-91029413D01*
X233290116Y-91041024D01*
X233268117Y-91054035D01*
X233226367Y-91066163D01*
X233180220Y-91084362D01*
X233152104Y-91087738D01*
X233133621Y-91093108D01*
X233057504Y-91099098D01*
X233050000Y-91100000D01*
X226950000Y-91100000D01*
X226942497Y-91099099D01*
X226866378Y-91093108D01*
X226847894Y-91087738D01*
X226819780Y-91084362D01*
X226773635Y-91066165D01*
X226731882Y-91054035D01*
X226709880Y-91041023D01*
X226680439Y-91029413D01*
X226645680Y-91003055D01*
X226613388Y-90983957D01*
X226591085Y-90961654D01*
X226561091Y-90938909D01*
X226538345Y-90908914D01*
X226516042Y-90886611D01*
X226496943Y-90854316D01*
X226470587Y-90819561D01*
X226458977Y-90790121D01*
X226445964Y-90768117D01*
X226433832Y-90726357D01*
X226415638Y-90680220D01*
X226412262Y-90652109D01*
X226406891Y-90633621D01*
X226400898Y-90557480D01*
X226400000Y-90550000D01*
X226400000Y-88450000D01*
X226400898Y-88442521D01*
X226406891Y-88366378D01*
X226412262Y-88347888D01*
X226415638Y-88319780D01*
X226433831Y-88273645D01*
X226445964Y-88231882D01*
X226458978Y-88209875D01*
X226470587Y-88180439D01*
X226496940Y-88145686D01*
X226516042Y-88113388D01*
X226538348Y-88091081D01*
X226561091Y-88061091D01*
X226591081Y-88038348D01*
X226613388Y-88016042D01*
X226645686Y-87996940D01*
X226680439Y-87970587D01*
X226709875Y-87958978D01*
X226731882Y-87945964D01*
X226773645Y-87933831D01*
X226819780Y-87915638D01*
X226847888Y-87912262D01*
X226866378Y-87906891D01*
X226942521Y-87900898D01*
X226950000Y-87900000D01*
X233050000Y-87900000D01*
X233057480Y-87900898D01*
G37*
G36*
X245057480Y-87900898D02*
G01*
X245133621Y-87906891D01*
X245152109Y-87912262D01*
X245180220Y-87915638D01*
X245226357Y-87933832D01*
X245268117Y-87945964D01*
X245290121Y-87958977D01*
X245319561Y-87970587D01*
X245354316Y-87996943D01*
X245386611Y-88016042D01*
X245408914Y-88038345D01*
X245438909Y-88061091D01*
X245461654Y-88091085D01*
X245483957Y-88113388D01*
X245503055Y-88145680D01*
X245529413Y-88180439D01*
X245541023Y-88209880D01*
X245554035Y-88231882D01*
X245566165Y-88273635D01*
X245584362Y-88319780D01*
X245587738Y-88347894D01*
X245593108Y-88366378D01*
X245599099Y-88442497D01*
X245600000Y-88450000D01*
X245600000Y-90550000D01*
X245599098Y-90557504D01*
X245593108Y-90633621D01*
X245587738Y-90652104D01*
X245584362Y-90680220D01*
X245566163Y-90726367D01*
X245554035Y-90768117D01*
X245541024Y-90790116D01*
X245529413Y-90819561D01*
X245503052Y-90854322D01*
X245483957Y-90886611D01*
X245461657Y-90908910D01*
X245438909Y-90938909D01*
X245408910Y-90961657D01*
X245386611Y-90983957D01*
X245354322Y-91003052D01*
X245319561Y-91029413D01*
X245290116Y-91041024D01*
X245268117Y-91054035D01*
X245226367Y-91066163D01*
X245180220Y-91084362D01*
X245152104Y-91087738D01*
X245133621Y-91093108D01*
X245057504Y-91099098D01*
X245050000Y-91100000D01*
X238950000Y-91100000D01*
X238942497Y-91099099D01*
X238866378Y-91093108D01*
X238847894Y-91087738D01*
X238819780Y-91084362D01*
X238773635Y-91066165D01*
X238731882Y-91054035D01*
X238709880Y-91041023D01*
X238680439Y-91029413D01*
X238645680Y-91003055D01*
X238613388Y-90983957D01*
X238591085Y-90961654D01*
X238561091Y-90938909D01*
X238538345Y-90908914D01*
X238516042Y-90886611D01*
X238496943Y-90854316D01*
X238470587Y-90819561D01*
X238458977Y-90790121D01*
X238445964Y-90768117D01*
X238433832Y-90726357D01*
X238415638Y-90680220D01*
X238412262Y-90652109D01*
X238406891Y-90633621D01*
X238400898Y-90557480D01*
X238400000Y-90550000D01*
X238400000Y-88450000D01*
X238400898Y-88442521D01*
X238406891Y-88366378D01*
X238412262Y-88347888D01*
X238415638Y-88319780D01*
X238433831Y-88273645D01*
X238445964Y-88231882D01*
X238458978Y-88209875D01*
X238470587Y-88180439D01*
X238496940Y-88145686D01*
X238516042Y-88113388D01*
X238538348Y-88091081D01*
X238561091Y-88061091D01*
X238591081Y-88038348D01*
X238613388Y-88016042D01*
X238645686Y-87996940D01*
X238680439Y-87970587D01*
X238709875Y-87958978D01*
X238731882Y-87945964D01*
X238773645Y-87933831D01*
X238819780Y-87915638D01*
X238847888Y-87912262D01*
X238866378Y-87906891D01*
X238942521Y-87900898D01*
X238950000Y-87900000D01*
X245050000Y-87900000D01*
X245057480Y-87900898D01*
G37*
%LPD*%
M02*
