%TF.GenerationSoftware,KiCad,Pcbnew,8.0.1-8.0.1-1~ubuntu22.04.1*%
%TF.CreationDate,2024-03-30T15:25:23+00:00*%
%TF.ProjectId,EMG_DAQ_ADS1298,454d475f-4441-4515-9f41-445331323938,v1.0*%
%TF.SameCoordinates,Original*%
%TF.FileFunction,Copper,L4,Bot*%
%TF.FilePolarity,Positive*%
%FSLAX46Y46*%
G04 Gerber Fmt 4.6, Leading zero omitted, Abs format (unit mm)*
G04 Created by KiCad (PCBNEW 8.0.1-8.0.1-1~ubuntu22.04.1) date 2024-03-30 15:25:23*
%MOMM*%
%LPD*%
G01*
G04 APERTURE LIST*
G04 Aperture macros list*
%AMRoundRect*
0 Rectangle with rounded corners*
0 $1 Rounding radius*
0 $2 $3 $4 $5 $6 $7 $8 $9 X,Y pos of 4 corners*
0 Add a 4 corners polygon primitive as box body*
4,1,4,$2,$3,$4,$5,$6,$7,$8,$9,$2,$3,0*
0 Add four circle primitives for the rounded corners*
1,1,$1+$1,$2,$3*
1,1,$1+$1,$4,$5*
1,1,$1+$1,$6,$7*
1,1,$1+$1,$8,$9*
0 Add four rect primitives between the rounded corners*
20,1,$1+$1,$2,$3,$4,$5,0*
20,1,$1+$1,$4,$5,$6,$7,0*
20,1,$1+$1,$6,$7,$8,$9,0*
20,1,$1+$1,$8,$9,$2,$3,0*%
%AMFreePoly0*
4,1,13,0.500000,-0.250000,0.480970,-0.345671,0.426777,-0.426777,0.345671,-0.480970,0.250000,-0.500000,-0.250000,-0.500000,-0.345671,-0.480970,-0.426777,-0.426777,-0.480970,-0.345671,-0.500000,-0.250000,-0.500000,0.500000,0.500000,0.500000,0.500000,-0.250000,0.500000,-0.250000,$1*%
G04 Aperture macros list end*
%TA.AperFunction,ComponentPad*%
%ADD10R,1.000000X1.000000*%
%TD*%
%TA.AperFunction,SMDPad,CuDef*%
%ADD11FreePoly0,180.000000*%
%TD*%
%TA.AperFunction,SMDPad,CuDef*%
%ADD12RoundRect,0.140000X0.170000X-0.140000X0.170000X0.140000X-0.170000X0.140000X-0.170000X-0.140000X0*%
%TD*%
%TA.AperFunction,SMDPad,CuDef*%
%ADD13RoundRect,0.140000X0.140000X0.170000X-0.140000X0.170000X-0.140000X-0.170000X0.140000X-0.170000X0*%
%TD*%
%TA.AperFunction,SMDPad,CuDef*%
%ADD14RoundRect,0.140000X-0.140000X-0.170000X0.140000X-0.170000X0.140000X0.170000X-0.140000X0.170000X0*%
%TD*%
%TA.AperFunction,SMDPad,CuDef*%
%ADD15RoundRect,0.060000X-0.240000X-0.615000X0.240000X-0.615000X0.240000X0.615000X-0.240000X0.615000X0*%
%TD*%
%TA.AperFunction,SMDPad,CuDef*%
%ADD16RoundRect,0.140000X-0.170000X0.140000X-0.170000X-0.140000X0.170000X-0.140000X0.170000X0.140000X0*%
%TD*%
%TA.AperFunction,ViaPad*%
%ADD17C,0.400000*%
%TD*%
%TA.AperFunction,Conductor*%
%ADD18C,0.127000*%
%TD*%
G04 APERTURE END LIST*
D10*
%TO.P,J1,1,Pin_1*%
%TO.N,+3.3V*%
X-4445000Y10000000D03*
%TD*%
%TO.P,J5,1,Pin_1*%
%TO.N,/MOSI*%
X635000Y10000000D03*
%TD*%
%TO.P,J4,1,Pin_1*%
%TO.N,/MISO*%
X-635000Y10000000D03*
%TD*%
%TO.P,J8,1,Pin_1*%
%TO.N,/extRef*%
X4445000Y10000000D03*
%TD*%
%TO.P,J7,1,Pin_1*%
%TO.N,/CSB*%
X3175000Y10000000D03*
%TD*%
%TO.P,J25,1,Pin_1*%
%TO.N,/Refp*%
X-5800000Y2000000D03*
%TD*%
%TO.P,J26,1,Pin_1*%
%TO.N,/BIAS_OUT*%
X-5800000Y3270000D03*
%TD*%
%TO.P,J2,1,Pin_1*%
%TO.N,GND*%
X-3175000Y10000000D03*
%TD*%
%TO.P,J6,1,Pin_1*%
%TO.N,/SCLK*%
X1905000Y10000000D03*
%TD*%
%TO.P,J3,1,Pin_1*%
%TO.N,unconnected-(J3-Pin_1-Pad1)*%
X-1905000Y10000000D03*
%TD*%
D11*
%TO.P,J22,1,Pin_1*%
%TO.N,/in3-*%
X1905000Y500000D03*
%TD*%
D12*
%TO.P,C11,1*%
%TO.N,/VCAP4*%
X1900000Y5120000D03*
%TO.P,C11,2*%
%TO.N,GND*%
X1900000Y6080000D03*
%TD*%
D13*
%TO.P,C13,1*%
%TO.N,/VREFP*%
X2980000Y3750000D03*
%TO.P,C13,2*%
%TO.N,GND*%
X2020000Y3750000D03*
%TD*%
%TO.P,C14,1*%
%TO.N,/VREFP*%
X2980000Y2650000D03*
%TO.P,C14,2*%
%TO.N,GND*%
X2020000Y2650000D03*
%TD*%
%TO.P,C1,1*%
%TO.N,+3.3V*%
X-4500000Y8550000D03*
%TO.P,C1,2*%
%TO.N,GND*%
X-5460000Y8550000D03*
%TD*%
D14*
%TO.P,C3,1*%
%TO.N,GND*%
X-930000Y8200000D03*
%TO.P,C3,2*%
%TO.N,+3.3V*%
X30000Y8200000D03*
%TD*%
%TO.P,C10,1*%
%TO.N,/WCT*%
X120000Y2700000D03*
%TO.P,C10,2*%
%TO.N,GND*%
X1080000Y2700000D03*
%TD*%
D15*
%TO.P,U1,1,VIN*%
%TO.N,+3.3V*%
X-6480000Y7020000D03*
%TO.P,U1,2,GND*%
%TO.N,GND*%
X-5530000Y7020000D03*
%TO.P,U1,3,EN*%
%TO.N,+3.3V*%
X-4580000Y7020000D03*
%TO.P,U1,4*%
%TO.N,N/C*%
X-4580000Y4650000D03*
%TO.P,U1,5,VOUT*%
%TO.N,+3.3VA*%
X-6480000Y4650000D03*
%TD*%
D16*
%TO.P,C5,1*%
%TO.N,/VCAP3*%
X-300000Y6180000D03*
%TO.P,C5,2*%
%TO.N,GND*%
X-300000Y5220000D03*
%TD*%
D11*
%TO.P,J24,1,Pin_1*%
%TO.N,/in1-*%
X4445000Y500000D03*
%TD*%
%TO.P,J18,1,Pin_1*%
%TO.N,/in7-*%
X-3175000Y500001D03*
%TD*%
%TO.P,J17,1,Pin_1*%
%TO.N,/in8-*%
X-4445000Y500000D03*
%TD*%
D14*
%TO.P,C7,1*%
%TO.N,/BIAS_OUT*%
X-2630000Y2350000D03*
%TO.P,C7,2*%
%TO.N,/BIAS_INV*%
X-1670000Y2350000D03*
%TD*%
D13*
%TO.P,R1,1*%
%TO.N,/BIAS_INV*%
X-1670000Y3550000D03*
%TO.P,R1,2*%
%TO.N,/BIAS_OUT*%
X-2630000Y3550000D03*
%TD*%
D14*
%TO.P,C4,1*%
%TO.N,GND*%
X-930000Y7200000D03*
%TO.P,C4,2*%
%TO.N,+3.3V*%
X30000Y7200000D03*
%TD*%
D11*
%TO.P,J19,1,Pin_1*%
%TO.N,/in6-*%
X-1905000Y500000D03*
%TD*%
D13*
%TO.P,C8,1*%
%TO.N,+3.3VA*%
X-1731787Y6084832D03*
%TO.P,C8,2*%
%TO.N,GND*%
X-2691787Y6084832D03*
%TD*%
D16*
%TO.P,C15,1*%
%TO.N,/VCAP1*%
X3000000Y6080000D03*
%TO.P,C15,2*%
%TO.N,GND*%
X3000000Y5120000D03*
%TD*%
D11*
%TO.P,J23,1,Pin_1*%
%TO.N,/in2-*%
X3175000Y500001D03*
%TD*%
D13*
%TO.P,C9,1*%
%TO.N,+3.3VA*%
X-1731787Y5084832D03*
%TO.P,C9,2*%
%TO.N,GND*%
X-2691787Y5084832D03*
%TD*%
%TO.P,C12,1*%
%TO.N,/VCAP2*%
X2880000Y7400000D03*
%TO.P,C12,2*%
%TO.N,GND*%
X1920000Y7400000D03*
%TD*%
D11*
%TO.P,J20,1,Pin_1*%
%TO.N,/in5-*%
X-635000Y500000D03*
%TD*%
D16*
%TO.P,C6,1*%
%TO.N,/VCAP3*%
X700000Y6180000D03*
%TO.P,C6,2*%
%TO.N,GND*%
X700000Y5220000D03*
%TD*%
D11*
%TO.P,J21,1,Pin_1*%
%TO.N,/in4-*%
X635000Y500000D03*
%TD*%
D17*
%TO.N,+3.3V*%
X4850000Y5250000D03*
X-3650000Y5400000D03*
X4250000Y8200000D03*
X-500000Y8800000D03*
%TO.N,GND*%
X6000000Y2570000D03*
X-3400000Y7600000D03*
X-3650000Y8250000D03*
X-5530000Y7100000D03*
X-850000Y5350000D03*
X3650000Y4700000D03*
X-800000Y6850000D03*
%TO.N,+3.3VA*%
X-5700000Y4800000D03*
X-2450000Y6800000D03*
%TO.N,/MOSI*%
X3550000Y8900000D03*
%TO.N,/in7-*%
X-3600000Y1400000D03*
%TO.N,/in2-*%
X3400000Y1600000D03*
%TO.N,/in6-*%
X-2300000Y1400000D03*
%TO.N,/in1-*%
X4600000Y2100000D03*
%TO.N,/in8-*%
X-4700000Y2300000D03*
%TO.N,/in5-*%
X-700000Y1600000D03*
%TO.N,/in4-*%
X700000Y1600000D03*
%TO.N,/in3-*%
X1900000Y1500000D03*
%TO.N,/BIAS_OUT*%
X-3600000Y4450000D03*
%TO.N,/BIAS_INV*%
X-850000Y4400000D03*
%TO.N,/WCT*%
X-100000Y4400000D03*
%TO.N,/VCAP4*%
X1650000Y4399999D03*
%TO.N,/VCAP2*%
X3750000Y6450000D03*
%TO.N,/VREFP*%
X3650000Y4050000D03*
%TO.N,/VCAP1*%
X3750000Y5800000D03*
%TO.N,/VCAP3*%
X-1650000Y6950000D03*
%TD*%
D18*
%TO.N,/in8-*%
X-4700000Y2300000D02*
X-4700000Y755000D01*
X-4700000Y755000D02*
X-4445000Y500000D01*
%TO.N,/in7-*%
X-3600000Y1400000D02*
X-3600000Y925001D01*
X-3600000Y925001D02*
X-3175000Y500001D01*
%TO.N,/in6-*%
X-2300000Y1400000D02*
X-2300000Y895000D01*
X-2300000Y895000D02*
X-1905000Y500000D01*
%TO.N,/in5-*%
X-700000Y1600000D02*
X-635000Y1535000D01*
X-635000Y1535000D02*
X-635000Y500000D01*
%TO.N,/in1-*%
X4600000Y2100000D02*
X4600000Y655000D01*
X4600000Y655000D02*
X4445000Y500000D01*
%TO.N,/in2-*%
X3400000Y1600000D02*
X3400000Y725001D01*
X3400000Y725001D02*
X3175000Y500001D01*
%TO.N,/in3-*%
X1900000Y1500000D02*
X1900000Y505000D01*
X1900000Y505000D02*
X1905000Y500000D01*
%TO.N,/in4-*%
X700000Y1600000D02*
X700000Y565000D01*
X700000Y565000D02*
X635000Y500000D01*
%TO.N,+3.3V*%
X-4580000Y6330000D02*
X-3650000Y5400000D01*
X4850000Y5250000D02*
X4850000Y7600000D01*
X4850000Y7600000D02*
X4250000Y8200000D01*
X-5950000Y5950000D02*
X-4950000Y5950000D01*
X-4580000Y7020000D02*
X-4580000Y6330000D01*
X-6480000Y7020000D02*
X-6480000Y6480000D01*
X-4950000Y5950000D02*
X-4580000Y6320000D01*
X-4250000Y8800000D02*
X-500000Y8800000D01*
X-4500000Y8550000D02*
X-4500000Y7100000D01*
X30000Y8200000D02*
X30000Y7200000D01*
X30000Y8270000D02*
X30000Y8200000D01*
X-500000Y8800000D02*
X30000Y8270000D01*
X-4445000Y10000000D02*
X-4445000Y8605000D01*
X-4500000Y7100000D02*
X-4580000Y7020000D01*
X-6480000Y6480000D02*
X-5950000Y5950000D01*
X-4445000Y8605000D02*
X-4500000Y8550000D01*
X-4500000Y8550000D02*
X-4250000Y8800000D01*
X-4580000Y6320000D02*
X-4580000Y7020000D01*
X4250000Y8200000D02*
X30000Y8200000D01*
%TO.N,GND*%
X2020000Y2650000D02*
X2020000Y3750000D01*
X-5530000Y7020000D02*
X-5530000Y7100000D01*
X700000Y5220000D02*
X-300000Y5220000D01*
X-930000Y8200000D02*
X-930000Y7200000D01*
X-800000Y6850000D02*
X-800000Y7070000D01*
X-530000Y5220000D02*
X-300000Y5220000D01*
X-850000Y5100000D02*
X-750000Y5000000D01*
X-2106955Y4500000D02*
X-1450000Y4500000D01*
X-800000Y7070000D02*
X-930000Y7200000D01*
X1350000Y4750000D02*
X1350000Y5530000D01*
X1080000Y2700000D02*
X1970000Y2700000D01*
X1920000Y6100000D02*
X1900000Y6080000D01*
X-980000Y8250000D02*
X-930000Y8200000D01*
X-5530000Y8480000D02*
X-5460000Y8550000D01*
X-5530000Y7100000D02*
X-5530000Y8480000D01*
X-750000Y5000000D02*
X-530000Y5220000D01*
X1080000Y4480000D02*
X1350000Y4750000D01*
X-3650000Y8250000D02*
X-980000Y8250000D01*
X-1450000Y4500000D02*
X-850000Y5100000D01*
X1350000Y5530000D02*
X1900000Y6080000D01*
X-850000Y5350000D02*
X-850000Y5100000D01*
X700000Y5220000D02*
X1040000Y5220000D01*
X-3400000Y6793045D02*
X-3400000Y7600000D01*
X1970000Y2700000D02*
X2020000Y2650000D01*
X-2691787Y5084832D02*
X-2106955Y4500000D01*
X2020000Y3750000D02*
X2020000Y4140000D01*
X3230000Y5120000D02*
X3000000Y5120000D01*
X1080000Y2700000D02*
X1080000Y4480000D01*
X-2691787Y5084832D02*
X-2691787Y6084832D01*
X3650000Y4700000D02*
X3230000Y5120000D01*
X1920000Y7400000D02*
X1920000Y6100000D01*
X1040000Y5220000D02*
X1350000Y5530000D01*
X-2691787Y6084832D02*
X-3400000Y6793045D01*
X2020000Y4140000D02*
X3000000Y5120000D01*
%TO.N,+3.3VA*%
X-1734832Y6084832D02*
X-1731787Y6084832D01*
X-1731787Y5084832D02*
X-1731787Y6084832D01*
X-2450000Y6800000D02*
X-1734832Y6084832D01*
X-6480000Y4650000D02*
X-5850000Y4650000D01*
X-5850000Y4650000D02*
X-5700000Y4800000D01*
%TO.N,/MOSI*%
X1735000Y8900000D02*
X635000Y10000000D01*
X3550000Y8900000D02*
X1735000Y8900000D01*
%TO.N,/BIAS_OUT*%
X-5800000Y3270000D02*
X-4580000Y3270000D01*
X-3530000Y4450000D02*
X-2630000Y3550000D01*
X-3600000Y4450000D02*
X-3530000Y4450000D01*
X-4580000Y3270000D02*
X-3600000Y4250000D01*
X-3600000Y4250000D02*
X-3600000Y4450000D01*
X-2630000Y2350000D02*
X-2630000Y3550000D01*
%TO.N,/BIAS_INV*%
X-1670000Y3550000D02*
X-850000Y4370000D01*
X-1670000Y2350000D02*
X-1670000Y3550000D01*
X-850000Y4370000D02*
X-850000Y4400000D01*
%TO.N,/WCT*%
X120000Y4180000D02*
X120000Y2700000D01*
X-100000Y4400000D02*
X120000Y4180000D01*
%TO.N,/VCAP4*%
X1650000Y4399999D02*
X1900000Y4649999D01*
X1900000Y4649999D02*
X1900000Y5120000D01*
%TO.N,/VCAP2*%
X3750000Y6530000D02*
X2880000Y7400000D01*
X3750000Y6450000D02*
X3750000Y6530000D01*
%TO.N,/VREFP*%
X2980000Y2650000D02*
X2980000Y3750000D01*
X3350000Y3750000D02*
X2980000Y3750000D01*
X3650000Y4050000D02*
X3350000Y3750000D01*
%TO.N,/VCAP1*%
X3750000Y5800000D02*
X3470000Y6080000D01*
X3470000Y6080000D02*
X3000000Y6080000D01*
%TO.N,/VCAP3*%
X-830000Y6180000D02*
X-300000Y6180000D01*
X-1650000Y6950000D02*
X-1600000Y6950000D01*
X700000Y6180000D02*
X-300000Y6180000D01*
X-1600000Y6950000D02*
X-830000Y6180000D01*
%TD*%
%TA.AperFunction,Conductor*%
%TO.N,GND*%
G36*
X-4960090Y10969816D02*
G01*
X-4914335Y10917012D01*
X-4904391Y10847854D01*
X-4933416Y10784298D01*
X-4992194Y10746524D01*
X-5002938Y10743884D01*
X-5042736Y10735968D01*
X-5042740Y10735967D01*
X-5125601Y10680601D01*
X-5180967Y10597740D01*
X-5180968Y10597736D01*
X-5195500Y10524679D01*
X-5195500Y10524674D01*
X-5195500Y9475326D01*
X-5195500Y9475324D01*
X-5195501Y9475324D01*
X-5191694Y9456187D01*
X-5197923Y9386596D01*
X-5210000Y9370737D01*
X-5210000Y7818362D01*
X-5229685Y7751323D01*
X-5246319Y7730681D01*
X-5280000Y7697000D01*
X-5280000Y6894000D01*
X-5299685Y6826961D01*
X-5352489Y6781206D01*
X-5404000Y6770000D01*
X-5656000Y6770000D01*
X-5723039Y6789685D01*
X-5768794Y6842489D01*
X-5780000Y6894000D01*
X-5780000Y8116638D01*
X-5760315Y8183677D01*
X-5743681Y8204319D01*
X-5710000Y8238000D01*
X-5710000Y8300000D01*
X-6238790Y8300000D01*
X-6237146Y8279090D01*
X-6192031Y8123802D01*
X-6189841Y8118741D01*
X-6181285Y8049398D01*
X-6211578Y7986436D01*
X-6271101Y7949847D01*
X-6303645Y7945500D01*
X-6766349Y7945500D01*
X-6766373Y7945498D01*
X-6792315Y7942490D01*
X-6792325Y7942487D01*
X-6898514Y7895600D01*
X-6980599Y7813515D01*
X-7027488Y7707322D01*
X-7030500Y7681361D01*
X-7030500Y6358652D01*
X-7030498Y6358628D01*
X-7027490Y6332686D01*
X-7027487Y6332676D01*
X-6980600Y6226487D01*
X-6980599Y6226486D01*
X-6898514Y6144401D01*
X-6792320Y6097512D01*
X-6766357Y6094500D01*
X-6589927Y6094501D01*
X-6522887Y6074817D01*
X-6502245Y6058182D01*
X-6231244Y5787181D01*
X-6197759Y5725858D01*
X-6202743Y5656166D01*
X-6244615Y5600233D01*
X-6310079Y5575816D01*
X-6318925Y5575500D01*
X-6766349Y5575500D01*
X-6766373Y5575498D01*
X-6792315Y5572490D01*
X-6792325Y5572487D01*
X-6898514Y5525600D01*
X-6980599Y5443515D01*
X-7027488Y5337322D01*
X-7030500Y5311361D01*
X-7030500Y3988652D01*
X-7030498Y3988628D01*
X-7027490Y3962686D01*
X-7027487Y3962676D01*
X-6980600Y3856487D01*
X-6980599Y3856486D01*
X-6898514Y3774401D01*
X-6792320Y3727512D01*
X-6766357Y3724500D01*
X-6674500Y3724501D01*
X-6607462Y3704817D01*
X-6561706Y3652014D01*
X-6550500Y3600501D01*
X-6550500Y2745326D01*
X-6550500Y2745324D01*
X-6550501Y2745324D01*
X-6533584Y2660283D01*
X-6537709Y2659463D01*
X-6532736Y2612897D01*
X-6533665Y2609734D01*
X-6533584Y2609717D01*
X-6550500Y2524677D01*
X-6550500Y1475322D01*
X-6535968Y1402265D01*
X-6535967Y1402261D01*
X-6531092Y1394965D01*
X-6480601Y1319399D01*
X-6414430Y1275186D01*
X-6397740Y1264034D01*
X-6397736Y1264033D01*
X-6324679Y1249501D01*
X-6324676Y1249500D01*
X-6324674Y1249500D01*
X-5275324Y1249500D01*
X-5209232Y1262647D01*
X-5139641Y1256420D01*
X-5084463Y1213558D01*
X-5061218Y1147668D01*
X-5077285Y1079671D01*
X-5081937Y1072140D01*
X-5138409Y987623D01*
X-5138415Y987612D01*
X-5176561Y895518D01*
X-5176561Y895516D01*
X-5195591Y799845D01*
X-5195592Y799840D01*
X-5195593Y799832D01*
X-5200500Y749999D01*
X-5200500Y562904D01*
X-5201762Y545259D01*
X-5203041Y536366D01*
X-5203041Y463637D01*
X-5201762Y454742D01*
X-5200500Y437096D01*
X-5200500Y134501D01*
X-5220185Y67462D01*
X-5272989Y21707D01*
X-5324500Y10501D01*
X-6743910Y10501D01*
X-6756063Y11098D01*
X-6882113Y23512D01*
X-6905956Y28255D01*
X-7021311Y63248D01*
X-7043768Y72550D01*
X-7150072Y129371D01*
X-7170284Y142876D01*
X-7263465Y219348D01*
X-7280653Y236536D01*
X-7357125Y329717D01*
X-7370630Y349929D01*
X-7427451Y456233D01*
X-7436753Y478690D01*
X-7471746Y594045D01*
X-7476488Y617882D01*
X-7488903Y743940D01*
X-7489500Y756093D01*
X-7489500Y8800001D01*
X-6238791Y8800001D01*
X-6238790Y8800000D01*
X-5710000Y8800000D01*
X-5710000Y9354506D01*
X-5710002Y9354507D01*
X-5856191Y9312035D01*
X-5856194Y9312033D01*
X-5995375Y9229722D01*
X-5995384Y9229715D01*
X-6109715Y9115384D01*
X-6109722Y9115375D01*
X-6192032Y8976196D01*
X-6192034Y8976191D01*
X-6237145Y8820919D01*
X-6237146Y8820913D01*
X-6238791Y8800001D01*
X-7489500Y8800001D01*
X-7489500Y10000000D01*
X-6765750Y10000000D01*
X-6744860Y9854698D01*
X-6744859Y9854693D01*
X-6683879Y9721168D01*
X-6683877Y9721164D01*
X-6587744Y9610222D01*
X-6464250Y9530857D01*
X-6464249Y9530857D01*
X-6464248Y9530856D01*
X-6323402Y9489501D01*
X-6323400Y9489500D01*
X-6323399Y9489500D01*
X-6176600Y9489500D01*
X-6176600Y9489501D01*
X-6035750Y9530857D01*
X-5912256Y9610222D01*
X-5816123Y9721164D01*
X-5755141Y9854696D01*
X-5734250Y10000000D01*
X-5755141Y10145304D01*
X-5755142Y10145305D01*
X-5755142Y10145308D01*
X-5804940Y10254349D01*
X-5816123Y10278836D01*
X-5912256Y10389778D01*
X-6035750Y10469143D01*
X-6035751Y10469144D01*
X-6035752Y10469144D01*
X-6035753Y10469145D01*
X-6176599Y10510500D01*
X-6176601Y10510500D01*
X-6323399Y10510500D01*
X-6323402Y10510500D01*
X-6464248Y10469145D01*
X-6464249Y10469144D01*
X-6587742Y10389780D01*
X-6587746Y10389777D01*
X-6683876Y10278838D01*
X-6683879Y10278833D01*
X-6744859Y10145308D01*
X-6744860Y10145303D01*
X-6765750Y10000000D01*
X-7489500Y10000000D01*
X-7489500Y10243909D01*
X-7488903Y10256062D01*
X-7482123Y10324904D01*
X-7476488Y10382121D01*
X-7471746Y10405956D01*
X-7471745Y10405957D01*
X-7436753Y10521311D01*
X-7427451Y10543767D01*
X-7370629Y10650074D01*
X-7357125Y10670284D01*
X-7348658Y10680601D01*
X-7280650Y10763469D01*
X-7263469Y10780650D01*
X-7170283Y10857127D01*
X-7150072Y10870630D01*
X-7150070Y10870631D01*
X-7043762Y10927454D01*
X-7021311Y10936753D01*
X-7012677Y10939373D01*
X-6905954Y10971747D01*
X-6882121Y10976488D01*
X-6764476Y10988075D01*
X-6756061Y10988903D01*
X-6743908Y10989500D01*
X-6695234Y10989500D01*
X-6695225Y10989501D01*
X-5027129Y10989501D01*
X-4960090Y10969816D01*
G37*
%TD.AperFunction*%
%TA.AperFunction,Conductor*%
G36*
X6756061Y10988904D02*
G01*
X6765633Y10987962D01*
X6882118Y10976489D01*
X6905948Y10971750D01*
X7021313Y10936754D01*
X7043761Y10927455D01*
X7150072Y10870631D01*
X7170282Y10857127D01*
X7263464Y10780656D01*
X7280654Y10763466D01*
X7357124Y10670286D01*
X7370628Y10650076D01*
X7427452Y10543767D01*
X7436754Y10521311D01*
X7452579Y10469143D01*
X7471747Y10405957D01*
X7476489Y10382115D01*
X7488903Y10256074D01*
X7489500Y10243920D01*
X7489500Y756094D01*
X7488903Y743940D01*
X7476488Y617888D01*
X7471746Y594047D01*
X7436753Y478691D01*
X7427450Y456233D01*
X7370629Y349928D01*
X7357124Y329716D01*
X7280653Y236536D01*
X7263465Y219348D01*
X7170284Y142876D01*
X7150072Y129371D01*
X7043768Y72550D01*
X7021310Y63247D01*
X6905954Y28254D01*
X6882113Y23512D01*
X6756072Y11098D01*
X6743918Y10501D01*
X5324500Y10501D01*
X5257461Y30186D01*
X5211706Y82990D01*
X5200500Y134501D01*
X5200500Y437096D01*
X5201762Y454742D01*
X5201976Y456233D01*
X5203041Y463638D01*
X5203041Y536362D01*
X5201762Y545259D01*
X5200500Y562904D01*
X5200500Y749999D01*
X5195592Y799832D01*
X5195591Y799845D01*
X5176561Y895516D01*
X5138411Y987619D01*
X5084218Y1068725D01*
X5084216Y1068728D01*
X5013728Y1139216D01*
X5013724Y1139219D01*
X4969109Y1169030D01*
X4924304Y1222642D01*
X4914000Y1272132D01*
X4914000Y1728194D01*
X4933685Y1795233D01*
X4944288Y1809397D01*
X4982879Y1853933D01*
X4982879Y1853935D01*
X4982882Y1853937D01*
X5036697Y1971774D01*
X5055133Y2100000D01*
X5036697Y2228226D01*
X4982882Y2346063D01*
X4898049Y2443967D01*
X4789069Y2514004D01*
X4789065Y2514006D01*
X4789064Y2514006D01*
X4664774Y2550500D01*
X4664772Y2550500D01*
X4535228Y2550500D01*
X4535226Y2550500D01*
X4410935Y2514006D01*
X4410932Y2514005D01*
X4410931Y2514004D01*
X4359677Y2481066D01*
X4301950Y2443967D01*
X4217118Y2346063D01*
X4217117Y2346062D01*
X4163302Y2228226D01*
X4144867Y2100000D01*
X4163302Y1971775D01*
X4217117Y1853939D01*
X4217120Y1853933D01*
X4255712Y1809397D01*
X4284738Y1745842D01*
X4286000Y1728194D01*
X4286000Y1376850D01*
X4266315Y1309811D01*
X4213511Y1264056D01*
X4174152Y1253447D01*
X4145169Y1250593D01*
X4145162Y1250592D01*
X4145155Y1250591D01*
X4081671Y1237964D01*
X4049482Y1231561D01*
X3957376Y1193410D01*
X3953276Y1191218D01*
X3884872Y1176983D01*
X3819631Y1201990D01*
X3778266Y1258299D01*
X3773911Y1328033D01*
X3782040Y1352094D01*
X3784355Y1357162D01*
X3836697Y1471774D01*
X3855133Y1600000D01*
X3836697Y1728226D01*
X3782882Y1846063D01*
X3698049Y1943967D01*
X3589069Y2014004D01*
X3589067Y2014005D01*
X3589065Y2014006D01*
X3493670Y2042016D01*
X3434892Y2079790D01*
X3405867Y2143346D01*
X3415811Y2212504D01*
X3434506Y2239430D01*
X3434120Y2239710D01*
X3439851Y2247602D01*
X3439859Y2247609D01*
X3496017Y2357825D01*
X3496017Y2357827D01*
X3496018Y2357828D01*
X3496018Y2357829D01*
X3503937Y2407830D01*
X3510500Y2449265D01*
X3510499Y2850734D01*
X3510499Y2850735D01*
X3510499Y2850740D01*
X3496018Y2942171D01*
X3496018Y2942172D01*
X3496017Y2942174D01*
X3496017Y2942175D01*
X3439859Y3052391D01*
X3439857Y3052393D01*
X3439854Y3052397D01*
X3379931Y3112320D01*
X3346446Y3173643D01*
X3351430Y3243335D01*
X3379928Y3287679D01*
X3439859Y3347609D01*
X3489377Y3444795D01*
X3537352Y3495590D01*
X3537867Y3495889D01*
X3538407Y3496201D01*
X3542800Y3498737D01*
X3607245Y3563183D01*
X3668566Y3596666D01*
X3694925Y3599500D01*
X3714773Y3599500D01*
X3714773Y3599501D01*
X3839069Y3635996D01*
X3948049Y3706033D01*
X4032882Y3803937D01*
X4086697Y3921774D01*
X4105133Y4050000D01*
X4086697Y4178226D01*
X4032882Y4296063D01*
X3948049Y4393967D01*
X3839069Y4464004D01*
X3839065Y4464006D01*
X3839064Y4464006D01*
X3795450Y4476812D01*
X3736672Y4514586D01*
X3707646Y4578141D01*
X3717589Y4647300D01*
X3723653Y4658911D01*
X3762030Y4723803D01*
X3762031Y4723805D01*
X3804504Y4870000D01*
X2874000Y4870000D01*
X2806961Y4889685D01*
X2761206Y4942489D01*
X2750000Y4994000D01*
X2750000Y5246000D01*
X2769685Y5313039D01*
X2822489Y5358794D01*
X2874000Y5370000D01*
X3597583Y5370000D01*
X3632515Y5364978D01*
X3685228Y5349500D01*
X3814773Y5349500D01*
X3814773Y5349501D01*
X3939069Y5385996D01*
X4048049Y5456033D01*
X4132882Y5553937D01*
X4186697Y5671774D01*
X4205133Y5800000D01*
X4186697Y5928226D01*
X4132882Y6046063D01*
X4132879Y6046066D01*
X4128087Y6053524D01*
X4129877Y6054675D01*
X4105821Y6107348D01*
X4115762Y6176507D01*
X4128446Y6196246D01*
X4128087Y6196476D01*
X4132877Y6203932D01*
X4132882Y6203937D01*
X4186697Y6321774D01*
X4205133Y6450000D01*
X4186697Y6578226D01*
X4132882Y6696063D01*
X4048049Y6793967D01*
X3939069Y6864004D01*
X3939065Y6864006D01*
X3939064Y6864006D01*
X3857584Y6887930D01*
X3804837Y6919226D01*
X3446818Y7277245D01*
X3413333Y7338568D01*
X3410499Y7364926D01*
X3410499Y7600740D01*
X3396018Y7692171D01*
X3396017Y7692174D01*
X3396017Y7692175D01*
X3389122Y7705706D01*
X3376226Y7774373D01*
X3402502Y7839114D01*
X3459608Y7879371D01*
X3499607Y7886000D01*
X3871117Y7886000D01*
X3938156Y7866315D01*
X3951535Y7856301D01*
X3951949Y7856035D01*
X3951951Y7856033D01*
X4060931Y7785996D01*
X4185225Y7749501D01*
X4185227Y7749500D01*
X4185228Y7749500D01*
X4205075Y7749500D01*
X4272114Y7729815D01*
X4292756Y7713181D01*
X4499681Y7506256D01*
X4533166Y7444933D01*
X4536000Y7418575D01*
X4536000Y5621808D01*
X4516315Y5554769D01*
X4505717Y5540610D01*
X4483999Y5515546D01*
X4467116Y5496061D01*
X4413302Y5378226D01*
X4394867Y5250000D01*
X4413302Y5121775D01*
X4450459Y5040414D01*
X4467118Y5003937D01*
X4551951Y4906033D01*
X4660931Y4835996D01*
X4785225Y4799501D01*
X4785227Y4799500D01*
X4785228Y4799500D01*
X4914773Y4799500D01*
X4914773Y4799501D01*
X5039069Y4835996D01*
X5148049Y4906033D01*
X5232882Y5003937D01*
X5286697Y5121774D01*
X5305133Y5250000D01*
X5286697Y5378226D01*
X5232882Y5496063D01*
X5194284Y5540608D01*
X5165262Y5604164D01*
X5164000Y5621808D01*
X5164000Y7641338D01*
X5153272Y7681373D01*
X5142601Y7721199D01*
X5142601Y7721200D01*
X5101263Y7792801D01*
X4736174Y8157889D01*
X4702690Y8219211D01*
X4701118Y8227923D01*
X4696818Y8257828D01*
X4686697Y8328226D01*
X4632882Y8446063D01*
X4548049Y8543967D01*
X4439069Y8614004D01*
X4439065Y8614006D01*
X4439064Y8614006D01*
X4314774Y8650500D01*
X4314772Y8650500D01*
X4185228Y8650500D01*
X4185227Y8650500D01*
X4144870Y8638651D01*
X4075001Y8638653D01*
X4016223Y8676428D01*
X3987200Y8739984D01*
X3987200Y8775273D01*
X4005133Y8900000D01*
X3986697Y9028226D01*
X3965798Y9073988D01*
X3955854Y9143147D01*
X3984879Y9206703D01*
X4043657Y9244477D01*
X4078592Y9249500D01*
X4969676Y9249500D01*
X4969677Y9249501D01*
X5042740Y9264034D01*
X5125601Y9319399D01*
X5180966Y9402260D01*
X5195500Y9475326D01*
X5195500Y10000000D01*
X5734250Y10000000D01*
X5755140Y9854698D01*
X5755141Y9854693D01*
X5816121Y9721168D01*
X5816123Y9721164D01*
X5912256Y9610222D01*
X6035750Y9530857D01*
X6035751Y9530857D01*
X6035752Y9530856D01*
X6176598Y9489501D01*
X6176600Y9489500D01*
X6176601Y9489500D01*
X6323400Y9489500D01*
X6323400Y9489501D01*
X6464250Y9530857D01*
X6587744Y9610222D01*
X6683877Y9721164D01*
X6744859Y9854696D01*
X6765750Y10000000D01*
X6744859Y10145304D01*
X6744858Y10145305D01*
X6744858Y10145308D01*
X6695060Y10254349D01*
X6683877Y10278836D01*
X6587744Y10389778D01*
X6464250Y10469143D01*
X6464249Y10469144D01*
X6464248Y10469144D01*
X6464247Y10469145D01*
X6323401Y10510500D01*
X6323399Y10510500D01*
X6176601Y10510500D01*
X6176598Y10510500D01*
X6035752Y10469145D01*
X6035751Y10469144D01*
X5912258Y10389780D01*
X5912254Y10389777D01*
X5816124Y10278838D01*
X5816121Y10278833D01*
X5755141Y10145308D01*
X5755140Y10145303D01*
X5734250Y10000000D01*
X5195500Y10000000D01*
X5195500Y10524674D01*
X5195500Y10524677D01*
X5195499Y10524679D01*
X5180967Y10597736D01*
X5180966Y10597740D01*
X5172619Y10610232D01*
X5125601Y10680601D01*
X5044499Y10734791D01*
X5042739Y10735967D01*
X5042735Y10735968D01*
X5002938Y10743884D01*
X4941027Y10776269D01*
X4906452Y10836985D01*
X4910192Y10906754D01*
X4951059Y10963426D01*
X5016077Y10989007D01*
X5027129Y10989501D01*
X6743908Y10989501D01*
X6756061Y10988904D01*
G37*
%TD.AperFunction*%
%TA.AperFunction,Conductor*%
G36*
X893039Y5450315D02*
G01*
X938794Y5397511D01*
X950000Y5346000D01*
X950000Y4441211D01*
X970911Y4442855D01*
X1042945Y4463783D01*
X1112815Y4463584D01*
X1171485Y4425642D01*
X1200279Y4362354D01*
X1213302Y4271774D01*
X1256779Y4176576D01*
X1266723Y4107418D01*
X1263062Y4090471D01*
X1242856Y4020918D01*
X1242854Y4020909D01*
X1241209Y4000001D01*
X1241210Y4000000D01*
X1403290Y4000000D01*
X1454804Y3988793D01*
X1460933Y3985994D01*
X1540350Y3962676D01*
X1581018Y3950735D01*
X1585225Y3949500D01*
X1585227Y3949499D01*
X1585228Y3949499D01*
X1714773Y3949499D01*
X1714773Y3949500D01*
X1819724Y3980315D01*
X1839066Y3985994D01*
X1839066Y3985995D01*
X1839069Y3985995D01*
X1839070Y3985997D01*
X1845196Y3988793D01*
X1896710Y4000000D01*
X2146000Y4000000D01*
X2213039Y3980315D01*
X2258794Y3927511D01*
X2270000Y3876000D01*
X2270000Y2524000D01*
X2250315Y2456961D01*
X2197511Y2411206D01*
X2146000Y2400000D01*
X1298362Y2400000D01*
X1231323Y2419685D01*
X1210681Y2436319D01*
X1197000Y2450000D01*
X954000Y2450000D01*
X886961Y2469685D01*
X841206Y2522489D01*
X830000Y2574000D01*
X830000Y3500000D01*
X1330000Y3500000D01*
X1330000Y2950000D01*
X1770000Y2950000D01*
X1770000Y3500000D01*
X1330000Y3500000D01*
X830000Y3500000D01*
X830000Y3504506D01*
X829998Y3504507D01*
X683809Y3462035D01*
X683806Y3462033D01*
X621121Y3424961D01*
X553397Y3407778D01*
X487134Y3429938D01*
X443371Y3484404D01*
X434000Y3531693D01*
X434000Y4221338D01*
X412601Y4301199D01*
X412601Y4301200D01*
X409337Y4313381D01*
X410998Y4383231D01*
X444939Y4436532D01*
X450000Y4441211D01*
X450000Y4970000D01*
X-426000Y4970000D01*
X-493039Y4989685D01*
X-538794Y5042489D01*
X-550000Y5094000D01*
X-550000Y5346000D01*
X-530315Y5413039D01*
X-477511Y5458794D01*
X-426000Y5470000D01*
X826000Y5470000D01*
X893039Y5450315D01*
G37*
%TD.AperFunction*%
%TA.AperFunction,Conductor*%
G36*
X-1335863Y4506060D02*
G01*
X-1305032Y4443361D01*
X-1304478Y4404560D01*
X-1306157Y4392884D01*
X-1335183Y4329329D01*
X-1341213Y4322853D01*
X-1517246Y4146819D01*
X-1578569Y4113334D01*
X-1604926Y4110500D01*
X-1840740Y4110500D01*
X-1840740Y4110499D01*
X-1932171Y4096019D01*
X-1932172Y4096019D01*
X-2042393Y4039858D01*
X-2042397Y4039855D01*
X-2062319Y4019932D01*
X-2123642Y3986447D01*
X-2193334Y3991431D01*
X-2237681Y4019932D01*
X-2257604Y4039855D01*
X-2257613Y4039862D01*
X-2346003Y4084899D01*
X-2396799Y4132873D01*
X-2413594Y4200694D01*
X-2391056Y4266829D01*
X-2336341Y4310280D01*
X-2324301Y4314460D01*
X-2295594Y4322800D01*
X-2295592Y4322801D01*
X-2156413Y4405111D01*
X-2156408Y4405115D01*
X-2063454Y4498069D01*
X-2002131Y4531554D01*
X-1956377Y4532862D01*
X-1902522Y4524332D01*
X-1561053Y4524333D01*
X-1561048Y4524333D01*
X-1561048Y4524334D01*
X-1469612Y4538815D01*
X-1469607Y4538818D01*
X-1465539Y4540139D01*
X-1460302Y4540289D01*
X-1459973Y4540341D01*
X-1459967Y4540299D01*
X-1395698Y4542138D01*
X-1335863Y4506060D01*
G37*
%TD.AperFunction*%
%TA.AperFunction,Conductor*%
G36*
X-1729269Y8466315D02*
G01*
X-1709817Y8450000D01*
X-825071Y8450000D01*
X-758035Y8430318D01*
X-736960Y8416774D01*
X-691207Y8363972D01*
X-680000Y8312459D01*
X-680000Y7074000D01*
X-699685Y7006961D01*
X-752489Y6961206D01*
X-804000Y6950000D01*
X-1056000Y6950000D01*
X-1123039Y6969685D01*
X-1168794Y7022489D01*
X-1180000Y7074000D01*
X-1180000Y7950000D01*
X-1708790Y7950000D01*
X-1707146Y7929090D01*
X-1662032Y7773805D01*
X-1662032Y7773804D01*
X-1655712Y7763118D01*
X-1638532Y7695393D01*
X-1655712Y7636882D01*
X-1662031Y7626197D01*
X-1708912Y7464829D01*
X-1710916Y7465412D01*
X-1737992Y7411626D01*
X-1793619Y7377350D01*
X-1839066Y7364006D01*
X-1948050Y7293967D01*
X-2034103Y7194654D01*
X-2092881Y7156879D01*
X-2162751Y7156879D01*
X-2194856Y7171540D01*
X-2260931Y7214004D01*
X-2260935Y7214006D01*
X-2260936Y7214006D01*
X-2385226Y7250500D01*
X-2385228Y7250500D01*
X-2514772Y7250500D01*
X-2514774Y7250500D01*
X-2639065Y7214006D01*
X-2639068Y7214005D01*
X-2639069Y7214004D01*
X-2669178Y7194654D01*
X-2748050Y7143967D01*
X-2832882Y7046063D01*
X-2832883Y7046062D01*
X-2875133Y6953548D01*
X-2920888Y6900744D01*
X-2953332Y6885984D01*
X-3087977Y6846866D01*
X-3087983Y6846864D01*
X-3227162Y6764554D01*
X-3227171Y6764547D01*
X-3341502Y6650216D01*
X-3341509Y6650207D01*
X-3423819Y6511028D01*
X-3423821Y6511023D01*
X-3468932Y6355751D01*
X-3468933Y6355745D01*
X-3470578Y6334833D01*
X-3470577Y6334832D01*
X-2565787Y6334832D01*
X-2498748Y6315147D01*
X-2452993Y6262343D01*
X-2441787Y6210832D01*
X-2441787Y4958832D01*
X-2461472Y4891793D01*
X-2514276Y4846038D01*
X-2565787Y4834832D01*
X-2817787Y4834832D01*
X-2884826Y4854517D01*
X-2930581Y4907321D01*
X-2941787Y4958832D01*
X-2941787Y5834832D01*
X-3514038Y5834832D01*
X-3548972Y5839855D01*
X-3585226Y5850500D01*
X-3585228Y5850500D01*
X-3605075Y5850500D01*
X-3672114Y5870185D01*
X-3692756Y5886819D01*
X-4004949Y6199012D01*
X-4038434Y6260335D01*
X-4033925Y6323396D01*
X-4034961Y6323678D01*
X-4033528Y6328949D01*
X-4033450Y6330027D01*
X-4032798Y6331630D01*
X-4032514Y6332676D01*
X-4032512Y6332680D01*
X-4029500Y6358643D01*
X-4029501Y7681356D01*
X-4030755Y7692171D01*
X-4032511Y7707315D01*
X-4032512Y7707318D01*
X-4032512Y7707320D01*
X-4033758Y7710141D01*
X-4079401Y7813514D01*
X-4139871Y7873984D01*
X-4173356Y7935307D01*
X-4168372Y8004999D01*
X-4133222Y8051953D01*
X-4134510Y8053241D01*
X-4127612Y8060140D01*
X-4127609Y8060141D01*
X-4040141Y8147609D01*
X-3983983Y8257825D01*
X-3983983Y8257827D01*
X-3983982Y8257828D01*
X-3983982Y8257829D01*
X-3969500Y8349265D01*
X-3969500Y8362000D01*
X-3949815Y8429039D01*
X-3897011Y8474794D01*
X-3845500Y8486000D01*
X-1796308Y8486000D01*
X-1729269Y8466315D01*
G37*
%TD.AperFunction*%
%TA.AperFunction,Conductor*%
G36*
X1107230Y7866315D02*
G01*
X1152985Y7813511D01*
X1162929Y7744353D01*
X1159267Y7727405D01*
X1142855Y7670919D01*
X1142854Y7670913D01*
X1141209Y7650001D01*
X1141210Y7650000D01*
X2046000Y7650000D01*
X2113039Y7630315D01*
X2158794Y7577511D01*
X2170000Y7526000D01*
X2170000Y6618362D01*
X2150315Y6551323D01*
X2150000Y6550933D01*
X2150000Y5954000D01*
X2130315Y5886961D01*
X2077511Y5841206D01*
X2026000Y5830000D01*
X1774000Y5830000D01*
X1706961Y5849685D01*
X1661206Y5902489D01*
X1650000Y5954000D01*
X1650000Y6831638D01*
X1669685Y6898677D01*
X1670000Y6899068D01*
X1670000Y7150000D01*
X1141210Y7150000D01*
X1142854Y7129090D01*
X1187968Y6973805D01*
X1270278Y6834626D01*
X1275064Y6828456D01*
X1273093Y6826928D01*
X1300706Y6776358D01*
X1295722Y6706666D01*
X1267215Y6662313D01*
X1259731Y6654830D01*
X1198406Y6621349D01*
X1128715Y6626338D01*
X1111235Y6635722D01*
X1111086Y6635428D01*
X1102392Y6639858D01*
X1102391Y6639859D01*
X992175Y6696017D01*
X992174Y6696018D01*
X992171Y6696019D01*
X900735Y6710500D01*
X647824Y6710500D01*
X580785Y6730185D01*
X535030Y6782989D01*
X525086Y6852147D01*
X537340Y6890796D01*
X546017Y6907825D01*
X560500Y6999265D01*
X560499Y7400734D01*
X560499Y7400735D01*
X560499Y7400740D01*
X546018Y7492171D01*
X546018Y7492172D01*
X546017Y7492174D01*
X546017Y7492175D01*
X489859Y7602391D01*
X489857Y7602393D01*
X489854Y7602397D01*
X479932Y7612319D01*
X446447Y7673642D01*
X451431Y7743334D01*
X479932Y7787681D01*
X489857Y7797607D01*
X489859Y7797609D01*
X500399Y7818296D01*
X548374Y7869091D01*
X610884Y7886000D01*
X1040191Y7886000D01*
X1107230Y7866315D01*
G37*
%TD.AperFunction*%
%TD*%
M02*
