%TF.GenerationSoftware,KiCad,Pcbnew,8.0.1-8.0.1-1~ubuntu22.04.1*%
%TF.CreationDate,2024-03-30T15:25:23+00:00*%
%TF.ProjectId,EMG_DAQ_ADS1298,454d475f-4441-4515-9f41-445331323938,v1.0*%
%TF.SameCoordinates,Original*%
%TF.FileFunction,Soldermask,Bot*%
%TF.FilePolarity,Negative*%
%FSLAX46Y46*%
G04 Gerber Fmt 4.6, Leading zero omitted, Abs format (unit mm)*
G04 Created by KiCad (PCBNEW 8.0.1-8.0.1-1~ubuntu22.04.1) date 2024-03-30 15:25:23*
%MOMM*%
%LPD*%
G01*
G04 APERTURE LIST*
G04 Aperture macros list*
%AMRoundRect*
0 Rectangle with rounded corners*
0 $1 Rounding radius*
0 $2 $3 $4 $5 $6 $7 $8 $9 X,Y pos of 4 corners*
0 Add a 4 corners polygon primitive as box body*
4,1,4,$2,$3,$4,$5,$6,$7,$8,$9,$2,$3,0*
0 Add four circle primitives for the rounded corners*
1,1,$1+$1,$2,$3*
1,1,$1+$1,$4,$5*
1,1,$1+$1,$6,$7*
1,1,$1+$1,$8,$9*
0 Add four rect primitives between the rounded corners*
20,1,$1+$1,$2,$3,$4,$5,0*
20,1,$1+$1,$4,$5,$6,$7,0*
20,1,$1+$1,$6,$7,$8,$9,0*
20,1,$1+$1,$8,$9,$2,$3,0*%
%AMFreePoly0*
4,1,13,0.500000,-0.250000,0.480970,-0.345671,0.426777,-0.426777,0.345671,-0.480970,0.250000,-0.500000,-0.250000,-0.500000,-0.345671,-0.480970,-0.426777,-0.426777,-0.480970,-0.345671,-0.500000,-0.250000,-0.500000,0.500000,0.500000,0.500000,0.500000,-0.250000,0.500000,-0.250000,$1*%
G04 Aperture macros list end*
%ADD10R,1.000000X1.000000*%
%ADD11FreePoly0,180.000000*%
%ADD12RoundRect,0.140000X0.170000X-0.140000X0.170000X0.140000X-0.170000X0.140000X-0.170000X-0.140000X0*%
%ADD13RoundRect,0.140000X0.140000X0.170000X-0.140000X0.170000X-0.140000X-0.170000X0.140000X-0.170000X0*%
%ADD14RoundRect,0.140000X-0.140000X-0.170000X0.140000X-0.170000X0.140000X0.170000X-0.140000X0.170000X0*%
%ADD15RoundRect,0.080400X-0.321600X-0.696600X0.321600X-0.696600X0.321600X0.696600X-0.321600X0.696600X0*%
%ADD16RoundRect,0.140000X-0.170000X0.140000X-0.170000X-0.140000X0.170000X-0.140000X0.170000X0.140000X0*%
G04 APERTURE END LIST*
D10*
%TO.C,J1*%
X-4445000Y10000000D03*
%TD*%
%TO.C,J5*%
X635000Y10000000D03*
%TD*%
%TO.C,J4*%
X-635000Y10000000D03*
%TD*%
%TO.C,J8*%
X4445000Y10000000D03*
%TD*%
%TO.C,J7*%
X3175000Y10000000D03*
%TD*%
%TO.C,J25*%
X-5800000Y2000000D03*
%TD*%
%TO.C,J26*%
X-5800000Y3270000D03*
%TD*%
%TO.C,J2*%
X-3175000Y10000000D03*
%TD*%
%TO.C,J6*%
X1905000Y10000000D03*
%TD*%
%TO.C,J3*%
X-1905000Y10000000D03*
%TD*%
D11*
%TO.C,J22*%
X1905000Y500000D03*
%TD*%
D12*
%TO.C,C11*%
X1900000Y5120000D03*
X1900000Y6080000D03*
%TD*%
D13*
%TO.C,C13*%
X2980000Y3750000D03*
X2020000Y3750000D03*
%TD*%
%TO.C,C14*%
X2980000Y2650000D03*
X2020000Y2650000D03*
%TD*%
%TO.C,C1*%
X-4500000Y8550000D03*
X-5460000Y8550000D03*
%TD*%
D14*
%TO.C,C3*%
X-930000Y8200000D03*
X30000Y8200000D03*
%TD*%
%TO.C,C10*%
X120000Y2700000D03*
X1080000Y2700000D03*
%TD*%
D15*
%TO.C,U1*%
X-6480000Y7020000D03*
X-5530000Y7020000D03*
X-4580000Y7020000D03*
X-4580000Y4650000D03*
X-6480000Y4650000D03*
%TD*%
D16*
%TO.C,C5*%
X-300000Y6180000D03*
X-300000Y5220000D03*
%TD*%
D11*
%TO.C,J24*%
X4445000Y500000D03*
%TD*%
%TO.C,J18*%
X-3175000Y500001D03*
%TD*%
%TO.C,J17*%
X-4445000Y500000D03*
%TD*%
D14*
%TO.C,C7*%
X-2630000Y2350000D03*
X-1670000Y2350000D03*
%TD*%
D13*
%TO.C,R1*%
X-1670000Y3550000D03*
X-2630000Y3550000D03*
%TD*%
D14*
%TO.C,C4*%
X-930000Y7200000D03*
X30000Y7200000D03*
%TD*%
D11*
%TO.C,J19*%
X-1905000Y500000D03*
%TD*%
D13*
%TO.C,C8*%
X-1731787Y6084832D03*
X-2691787Y6084832D03*
%TD*%
D16*
%TO.C,C15*%
X3000000Y6080000D03*
X3000000Y5120000D03*
%TD*%
D11*
%TO.C,J23*%
X3175000Y500001D03*
%TD*%
D13*
%TO.C,C9*%
X-1731787Y5084832D03*
X-2691787Y5084832D03*
%TD*%
%TO.C,C12*%
X2880000Y7400000D03*
X1920000Y7400000D03*
%TD*%
D11*
%TO.C,J20*%
X-635000Y500000D03*
%TD*%
D16*
%TO.C,C6*%
X700000Y6180000D03*
X700000Y5220000D03*
%TD*%
D11*
%TO.C,J21*%
X635000Y500000D03*
%TD*%
M02*
