%TF.GenerationSoftware,KiCad,Pcbnew,8.0.1-8.0.1-1~ubuntu22.04.1*%
%TF.CreationDate,2024-03-30T15:25:23+00:00*%
%TF.ProjectId,EMG_DAQ_ADS1298,454d475f-4441-4515-9f41-445331323938,v1.0*%
%TF.SameCoordinates,Original*%
%TF.FileFunction,Copper,L1,Top*%
%TF.FilePolarity,Positive*%
%FSLAX46Y46*%
G04 Gerber Fmt 4.6, Leading zero omitted, Abs format (unit mm)*
G04 Created by KiCad (PCBNEW 8.0.1-8.0.1-1~ubuntu22.04.1) date 2024-03-30 15:25:23*
%MOMM*%
%LPD*%
G01*
G04 APERTURE LIST*
G04 Aperture macros list*
%AMRoundRect*
0 Rectangle with rounded corners*
0 $1 Rounding radius*
0 $2 $3 $4 $5 $6 $7 $8 $9 X,Y pos of 4 corners*
0 Add a 4 corners polygon primitive as box body*
4,1,4,$2,$3,$4,$5,$6,$7,$8,$9,$2,$3,0*
0 Add four circle primitives for the rounded corners*
1,1,$1+$1,$2,$3*
1,1,$1+$1,$4,$5*
1,1,$1+$1,$6,$7*
1,1,$1+$1,$8,$9*
0 Add four rect primitives between the rounded corners*
20,1,$1+$1,$2,$3,$4,$5,0*
20,1,$1+$1,$4,$5,$6,$7,0*
20,1,$1+$1,$6,$7,$8,$9,0*
20,1,$1+$1,$8,$9,$2,$3,0*%
%AMFreePoly0*
4,1,13,0.345671,0.480970,0.426777,0.426777,0.480970,0.345671,0.500000,0.250000,0.500000,-0.500000,-0.500000,-0.500000,-0.500000,0.250000,-0.480970,0.345671,-0.426777,0.426777,-0.345671,0.480970,-0.250000,0.500000,0.250000,0.500000,0.345671,0.480970,0.345671,0.480970,$1*%
G04 Aperture macros list end*
%TA.AperFunction,ComponentPad*%
%ADD10R,1.000000X1.000000*%
%TD*%
%TA.AperFunction,SMDPad,CuDef*%
%ADD11R,1.360000X1.230000*%
%TD*%
%TA.AperFunction,SMDPad,CuDef*%
%ADD12FreePoly0,0.000000*%
%TD*%
%TA.AperFunction,SMDPad,CuDef*%
%ADD13C,0.370000*%
%TD*%
%TA.AperFunction,SMDPad,CuDef*%
%ADD14RoundRect,0.140000X0.140000X0.170000X-0.140000X0.170000X-0.140000X-0.170000X0.140000X-0.170000X0*%
%TD*%
%TA.AperFunction,SMDPad,CuDef*%
%ADD15RoundRect,0.140000X-0.140000X-0.170000X0.140000X-0.170000X0.140000X0.170000X-0.140000X0.170000X0*%
%TD*%
%TA.AperFunction,ViaPad*%
%ADD16C,0.400000*%
%TD*%
%TA.AperFunction,Conductor*%
%ADD17C,0.127000*%
%TD*%
G04 APERTURE END LIST*
D10*
%TO.P,J1,1,Pin_1*%
%TO.N,+3.3V*%
X-4445000Y10000000D03*
%TD*%
D11*
%TO.P,SW1,1,1*%
%TO.N,/RESET*%
X6000000Y6930000D03*
%TO.P,SW1,2,2*%
%TO.N,GND*%
X6000000Y2570000D03*
%TD*%
D10*
%TO.P,J5,1,Pin_1*%
%TO.N,/MOSI*%
X635000Y10000000D03*
%TD*%
D12*
%TO.P,J9,1,Pin_1*%
%TO.N,/in8+*%
X-4445000Y500001D03*
%TD*%
D13*
%TO.P,U2,A1,IN8P*%
%TO.N,/in8+*%
X-2800000Y2450000D03*
%TO.P,U2,A2,IN8N*%
%TO.N,/in8-*%
X-2800000Y3249999D03*
%TO.P,U2,A3,RLDIN*%
%TO.N,unconnected-(U2-RLDIN-PadA3)*%
X-2800000Y4050000D03*
%TO.P,U2,A4,AVDD*%
%TO.N,+3.3V*%
X-2800000Y4850000D03*
%TO.P,U2,A5,AVSS*%
%TO.N,GND*%
X-2800000Y5650000D03*
%TO.P,U2,A6,AVDD*%
%TO.N,+3.3VA*%
X-2800000Y6450000D03*
%TO.P,U2,A7,AVDD1*%
X-2800000Y7250001D03*
%TO.P,U2,A8,AVSS1*%
%TO.N,GND*%
X-2800000Y8050000D03*
%TO.P,U2,B1,IN7P*%
%TO.N,/in7+*%
X-2000001Y2450000D03*
%TO.P,U2,B2,IN7N*%
%TO.N,/in7-*%
X-2000000Y3250000D03*
%TO.P,U2,B3,RLDOUT*%
%TO.N,/BIAS_OUT*%
X-2000000Y4049999D03*
%TO.P,U2,B4,AVDD*%
%TO.N,+3.3V*%
X-2000000Y4850000D03*
%TO.P,U2,B5,AVSS*%
%TO.N,GND*%
X-2000000Y5650000D03*
%TO.P,U2,B6,AVDD*%
%TO.N,+3.3VA*%
X-2000000Y6450001D03*
%TO.P,U2,B7,VCAP3*%
%TO.N,/VCAP3*%
X-2000000Y7250000D03*
%TO.P,U2,B8,CLKSEL*%
%TO.N,+3.3V*%
X-2000001Y8050000D03*
%TO.P,U2,C1,IN6P*%
%TO.N,/in6+*%
X-1200000Y2450000D03*
%TO.P,U2,C2,IN6N*%
%TO.N,/in6-*%
X-1200001Y3250000D03*
%TO.P,U2,C3,RLDINV*%
%TO.N,/BIAS_INV*%
X-1200000Y4050000D03*
%TO.P,U2,C4,RLDREF*%
%TO.N,unconnected-(U2-RLDREF-PadC4)*%
X-1200000Y4850000D03*
%TO.P,U2,C5,AVSS*%
%TO.N,GND*%
X-1200000Y5650000D03*
%TO.P,U2,C6,AVDD*%
%TO.N,+3.3VA*%
X-1200000Y6450000D03*
%TO.P,U2,C7,DGND*%
%TO.N,GND*%
X-1200001Y7250000D03*
%TO.P,U2,C8,DVDD*%
%TO.N,+3.3V*%
X-1200000Y8050000D03*
%TO.P,U2,D1,IN5P*%
%TO.N,/in5+*%
X-400000Y2450000D03*
%TO.P,U2,D2,IN5N*%
%TO.N,/in5-*%
X-400000Y3250000D03*
%TO.P,U2,D3,WCT*%
%TO.N,/WCT*%
X-400000Y4050000D03*
%TO.P,U2,D4,AVSS*%
%TO.N,GND*%
X-400000Y4850000D03*
%TO.P,U2,D5,AVSS*%
X-400000Y5650000D03*
%TO.P,U2,D6,~{DRDY}*%
%TO.N,unconnected-(U2-~{DRDY}-PadD6)*%
X-400000Y6450000D03*
%TO.P,U2,D7,DGND*%
%TO.N,GND*%
X-400000Y7250000D03*
%TO.P,U2,D8,DVDD*%
%TO.N,+3.3V*%
X-400000Y8050000D03*
%TO.P,U2,E1,IN4P*%
%TO.N,/in4+*%
X400000Y2450000D03*
%TO.P,U2,E2,IN4N*%
%TO.N,/in4-*%
X400000Y3250000D03*
%TO.P,U2,E3,TESTP_PACE_OUT1*%
%TO.N,/Refp*%
X400000Y4050000D03*
%TO.P,U2,E4,RESV1*%
%TO.N,GND*%
X400000Y4850000D03*
%TO.P,U2,E5,GPIO4*%
%TO.N,unconnected-(U2-GPIO4-PadE5)*%
X400000Y5650000D03*
%TO.P,U2,E6,GPIO3*%
%TO.N,unconnected-(U2-GPIO3-PadE6)*%
X400000Y6450000D03*
%TO.P,U2,E7,GPIO2*%
%TO.N,unconnected-(U2-GPIO2-PadE7)*%
X400000Y7250000D03*
%TO.P,U2,E8,DOUT*%
%TO.N,/MISO*%
X400000Y8050000D03*
%TO.P,U2,F1,IN3P*%
%TO.N,/in3+*%
X1200000Y2450000D03*
%TO.P,U2,F2,IN3N*%
%TO.N,/in3-*%
X1200001Y3250000D03*
%TO.P,U2,F3,TESTN_PACE_OUT2*%
%TO.N,/extRef*%
X1200000Y4050000D03*
%TO.P,U2,F4,RESP_MODN*%
%TO.N,unconnected-(U2-RESP_MODN-PadF4)*%
X1200000Y4850000D03*
%TO.P,U2,F5,GPIO1*%
%TO.N,unconnected-(U2-GPIO1-PadF5)*%
X1200000Y5650000D03*
%TO.P,U2,F6,DAISY_IN*%
%TO.N,GND*%
X1200000Y6450000D03*
%TO.P,U2,F7,CS*%
%TO.N,/CSB*%
X1200001Y7250000D03*
%TO.P,U2,F8,SCLK*%
%TO.N,/SCLK*%
X1200000Y8050000D03*
%TO.P,U2,G1,IN2P*%
%TO.N,/in2+*%
X2000001Y2450000D03*
%TO.P,U2,G2,IN2N*%
%TO.N,/in2-*%
X2000000Y3250000D03*
%TO.P,U2,G3,VCAP4*%
%TO.N,/VCAP4*%
X2000000Y4049999D03*
%TO.P,U2,G4,RESP_MODP*%
%TO.N,unconnected-(U2-RESP_MODP-PadG4)*%
X2000000Y4850000D03*
%TO.P,U2,G5,~{PWDN}*%
%TO.N,+3.3V*%
X2000000Y5650000D03*
%TO.P,U2,G6,~{RESET}*%
%TO.N,/RESET*%
X2000000Y6450001D03*
%TO.P,U2,G7,START*%
%TO.N,GND*%
X2000000Y7250000D03*
%TO.P,U2,G8,CLK*%
%TO.N,unconnected-(U2-CLK-PadG8)*%
X2000001Y8050000D03*
%TO.P,U2,H1,IN1P*%
%TO.N,/in1+*%
X2800000Y2450000D03*
%TO.P,U2,H2,IN1N*%
%TO.N,/in1-*%
X2800000Y3249999D03*
%TO.P,U2,H3,VREFP*%
%TO.N,/VREFP*%
X2800000Y4050000D03*
%TO.P,U2,H4,VREFN*%
%TO.N,GND*%
X2800000Y4850000D03*
%TO.P,U2,H5,VCAP1*%
%TO.N,/VCAP1*%
X2800000Y5650000D03*
%TO.P,U2,H6,VCAP2*%
%TO.N,/VCAP2*%
X2800000Y6450000D03*
%TO.P,U2,H7,DGND*%
%TO.N,GND*%
X2800000Y7250001D03*
%TO.P,U2,H8,DIN*%
%TO.N,/MOSI*%
X2800000Y8050000D03*
%TD*%
D10*
%TO.P,J4,1,Pin_1*%
%TO.N,/MISO*%
X-635000Y10000000D03*
%TD*%
D12*
%TO.P,J16,1,Pin_1*%
%TO.N,/in1+*%
X4445000Y500000D03*
%TD*%
%TO.P,J11,1,Pin_1*%
%TO.N,/in6+*%
X-1905000Y500001D03*
%TD*%
D14*
%TO.P,R2,1*%
%TO.N,/RESET*%
X6030000Y8200000D03*
%TO.P,R2,2*%
%TO.N,+3.3V*%
X5070000Y8200000D03*
%TD*%
D10*
%TO.P,J8,1,Pin_1*%
%TO.N,/extRef*%
X4445000Y10000000D03*
%TD*%
D12*
%TO.P,J10,1,Pin_1*%
%TO.N,/in7+*%
X-3175000Y500001D03*
%TD*%
D10*
%TO.P,J7,1,Pin_1*%
%TO.N,/CSB*%
X3175000Y10000000D03*
%TD*%
D12*
%TO.P,J12,1,Pin_1*%
%TO.N,/in5+*%
X-635000Y500000D03*
%TD*%
%TO.P,J14,1,Pin_1*%
%TO.N,/in3+*%
X1905000Y500000D03*
%TD*%
%TO.P,J13,1,Pin_1*%
%TO.N,/in4+*%
X635000Y500000D03*
%TD*%
D10*
%TO.P,J25,1,Pin_1*%
%TO.N,/Refp*%
X-5800000Y2000000D03*
%TD*%
%TO.P,J26,1,Pin_1*%
%TO.N,/BIAS_OUT*%
X-5800000Y3270000D03*
%TD*%
%TO.P,J2,1,Pin_1*%
%TO.N,GND*%
X-3175000Y10000000D03*
%TD*%
D12*
%TO.P,J15,1,Pin_1*%
%TO.N,/in2+*%
X3175000Y500000D03*
%TD*%
D10*
%TO.P,J6,1,Pin_1*%
%TO.N,/SCLK*%
X1905000Y10000000D03*
%TD*%
%TO.P,J3,1,Pin_1*%
%TO.N,unconnected-(J3-Pin_1-Pad1)*%
X-1905000Y10000000D03*
%TD*%
D15*
%TO.P,C2,1*%
%TO.N,+3.3VA*%
X-6080000Y8500000D03*
%TO.P,C2,2*%
%TO.N,GND*%
X-5120000Y8500000D03*
%TD*%
D16*
%TO.N,+3.3V*%
X4850000Y5250000D03*
X-3650000Y5400000D03*
X4250000Y8200000D03*
X-500000Y8800000D03*
%TO.N,GND*%
X6000000Y2570000D03*
X-3400000Y7600000D03*
X-3650000Y8250000D03*
X-5530000Y7100000D03*
X-850000Y5350000D03*
X3650000Y4700000D03*
X-800000Y6850000D03*
%TO.N,+3.3VA*%
X-5700000Y4800000D03*
X-2450000Y6800000D03*
%TO.N,/MOSI*%
X3550000Y8900000D03*
%TO.N,/in7-*%
X-3600000Y1400000D03*
%TO.N,/in2-*%
X3400000Y1600000D03*
%TO.N,/in6-*%
X-2300000Y1400000D03*
%TO.N,/in1-*%
X4600000Y2100000D03*
%TO.N,/in8-*%
X-4700000Y2300000D03*
%TO.N,/in5-*%
X-700000Y1600000D03*
%TO.N,/in4-*%
X700000Y1600000D03*
%TO.N,/in3-*%
X1900000Y1500000D03*
%TO.N,/BIAS_OUT*%
X-3600000Y4450000D03*
%TO.N,/BIAS_INV*%
X-850000Y4400000D03*
%TO.N,/WCT*%
X-100000Y4400000D03*
%TO.N,/VCAP4*%
X1650000Y4399999D03*
%TO.N,/VCAP2*%
X3750000Y6450000D03*
%TO.N,/VREFP*%
X3650000Y4050000D03*
%TO.N,/VCAP1*%
X3750000Y5800000D03*
%TO.N,/VCAP3*%
X-1650000Y6950000D03*
%TD*%
D17*
%TO.N,/in8+*%
X-2800000Y2450000D02*
X-3450000Y2450000D01*
X-3450000Y2450000D02*
X-4445000Y1455000D01*
X-4445000Y1455000D02*
X-4445000Y500001D01*
%TO.N,/in7+*%
X-2000001Y2450000D02*
X-2000001Y2299999D01*
X-2000001Y2299999D02*
X-3175000Y1125000D01*
X-3175000Y1125000D02*
X-3175000Y500001D01*
%TO.N,/in6+*%
X-1200000Y2450000D02*
X-1200000Y1205001D01*
X-1200000Y1205001D02*
X-1905000Y500001D01*
%TO.N,/in5+*%
X-400000Y2450000D02*
X-200000Y2250000D01*
X-200000Y2250000D02*
X-200000Y935000D01*
X-200000Y935000D02*
X-635000Y500000D01*
%TO.N,/in1+*%
X2800000Y2450000D02*
X3350000Y2450000D01*
X3350000Y2450000D02*
X4445000Y1355000D01*
X4445000Y1355000D02*
X4445000Y500000D01*
%TO.N,/in2+*%
X2000001Y2450000D02*
X2000001Y2149999D01*
X3175000Y975000D02*
X3175000Y500000D01*
X2000001Y2149999D02*
X3175000Y975000D01*
%TO.N,/in4+*%
X400000Y2450000D02*
X200000Y2250000D01*
X200000Y2250000D02*
X200000Y935000D01*
X200000Y935000D02*
X635000Y500000D01*
X635000Y500000D02*
X635000Y86201D01*
%TO.N,+3.3V*%
X-400000Y8050000D02*
X-1200000Y8050000D01*
X2000000Y5650000D02*
X2400000Y5250000D01*
X-500000Y8800000D02*
X-500000Y8750000D01*
X2400000Y5250000D02*
X4850000Y5250000D01*
X-2000001Y8050000D02*
X-1200000Y8050000D01*
X4250000Y8200000D02*
X5070000Y8200000D01*
X-500000Y8750000D02*
X-1200000Y8050000D01*
X-2000000Y4850000D02*
X-2800000Y4850000D01*
X-3650000Y5400000D02*
X-3350000Y5400000D01*
X-3350000Y5400000D02*
X-2800000Y4850000D01*
%TO.N,GND*%
X400000Y4850000D02*
X400000Y4950000D01*
X800000Y5350000D02*
X800000Y6050000D01*
X2799999Y7250000D02*
X2800000Y7250001D01*
X-5120000Y8500000D02*
X-5530000Y8090000D01*
X800000Y6850000D02*
X1200000Y6450000D01*
X-5530000Y8090000D02*
X-5530000Y7100000D01*
X-3650000Y8250000D02*
X-3175000Y8725000D01*
X-400000Y7250000D02*
X0Y6850000D01*
X-3250000Y7600000D02*
X-2800000Y8050000D01*
X-550000Y5650000D02*
X-400000Y5650000D01*
X1200000Y6450000D02*
X2000000Y7250000D01*
X2000000Y7250000D02*
X2799999Y7250000D01*
X-850000Y5350000D02*
X-550000Y5650000D01*
X-1200000Y5650000D02*
X-400000Y5650000D01*
X-3175000Y8725000D02*
X-4800000Y7100000D01*
X400000Y4950000D02*
X800000Y5350000D01*
X-2800000Y5650000D02*
X-2000000Y5650000D01*
X-400000Y4850000D02*
X400000Y4850000D01*
X-850000Y5350000D02*
X-900000Y5350000D01*
X-1200001Y7250000D02*
X-400000Y7250000D01*
X-3400000Y7600000D02*
X-3250000Y7600000D01*
X-4800000Y7100000D02*
X-5530000Y7100000D01*
X800000Y6050000D02*
X1200000Y6450000D01*
X-2000000Y5650000D02*
X-1200000Y5650000D01*
X3650000Y4700000D02*
X3500000Y4850000D01*
X-3175000Y8725000D02*
X-3175000Y10000000D01*
X3500000Y4850000D02*
X2800000Y4850000D01*
X-900000Y5350000D02*
X-1200000Y5650000D01*
X-1200001Y7250000D02*
X-1200000Y7250000D01*
X0Y6850000D02*
X800000Y6850000D01*
X-1200000Y7250000D02*
X-800000Y6850000D01*
%TO.N,+3.3VA*%
X-1200001Y6450001D02*
X-1200000Y6450000D01*
X-5700000Y5050000D02*
X-6080000Y5430000D01*
X-2000000Y6450001D02*
X-1200001Y6450001D01*
X-5700000Y5050000D02*
X-4900000Y5050000D01*
X-5700000Y4800000D02*
X-5700000Y5050000D01*
X-2800000Y7250001D02*
X-2800000Y6450000D01*
X-2000001Y6450000D02*
X-2000000Y6450001D01*
X-2800000Y6450000D02*
X-2000001Y6450000D01*
X-2450000Y6800000D02*
X-2800000Y7150000D01*
X-4900000Y5050000D02*
X-3500000Y6450000D01*
X-6080000Y5430000D02*
X-6080000Y8500000D01*
X-2800000Y7150000D02*
X-2800000Y7250001D01*
X-3500000Y6450000D02*
X-2800000Y6450000D01*
%TO.N,/MISO*%
X400000Y8050000D02*
X400000Y8965000D01*
X400000Y8965000D02*
X-635000Y10000000D01*
%TO.N,/MOSI*%
X2800000Y8150000D02*
X2800000Y8050000D01*
X3550000Y8900000D02*
X2800000Y8150000D01*
%TO.N,/SCLK*%
X1200000Y8900000D02*
X1905000Y9605000D01*
X1200000Y8050000D02*
X1200000Y8900000D01*
X1905000Y9605000D02*
X1905000Y10000000D01*
%TO.N,/CSB*%
X1600000Y7649999D02*
X1600000Y8425000D01*
X1200001Y7250000D02*
X1600000Y7649999D01*
X1600000Y8425000D02*
X3175000Y10000000D01*
%TO.N,/extRef*%
X6339860Y9200000D02*
X5245000Y9200000D01*
X1200000Y4050000D02*
X1650000Y3600000D01*
X1650000Y3600000D02*
X4700000Y3600000D01*
X7000000Y5900000D02*
X7000000Y8539860D01*
X5245000Y9200000D02*
X4445000Y10000000D01*
X4700000Y3600000D02*
X7000000Y5900000D01*
X7000000Y8539860D02*
X6339860Y9200000D01*
%TO.N,/Refp*%
X400000Y4050000D02*
X0Y3650000D01*
X0Y3650000D02*
X-4100000Y3650000D01*
X-4100000Y3650000D02*
X-5750000Y2000000D01*
X-5750000Y2000000D02*
X-5800000Y2000000D01*
%TO.N,/in7-*%
X-3300000Y1400000D02*
X-2400000Y2300000D01*
X-3600000Y1400000D02*
X-3300000Y1400000D01*
X-2400000Y2300000D02*
X-2400000Y2850000D01*
X-2400000Y2850000D02*
X-2000000Y3250000D01*
%TO.N,/in2-*%
X2351201Y2402127D02*
X2351201Y2898799D01*
X2351201Y2898799D02*
X2000000Y3250000D01*
X3153328Y1600000D02*
X2351201Y2402127D01*
X3400000Y1600000D02*
X3153328Y1600000D01*
%TO.N,/in6-*%
X-1600000Y2850001D02*
X-1200001Y3250000D01*
X-1600000Y2100000D02*
X-1600000Y2850001D01*
X-2300000Y1400000D02*
X-1600000Y2100000D01*
%TO.N,/in3+*%
X1905000Y695000D02*
X1905000Y86201D01*
X1200000Y2450000D02*
X1200000Y1400000D01*
X1200000Y1400000D02*
X1905000Y695000D01*
%TO.N,/in1-*%
X4600000Y2200000D02*
X3550001Y3249999D01*
X3550001Y3249999D02*
X2800000Y3249999D01*
X4600000Y2100000D02*
X4600000Y2200000D01*
%TO.N,/in8-*%
X-4700000Y2300000D02*
X-3750001Y3249999D01*
X-3750001Y3249999D02*
X-2800000Y3249999D01*
%TO.N,/in5-*%
X-800000Y1700000D02*
X-800000Y2850000D01*
X-800000Y2850000D02*
X-400000Y3250000D01*
X-700000Y1600000D02*
X-800000Y1700000D01*
%TO.N,/in4-*%
X700000Y1600000D02*
X800000Y1700000D01*
X800000Y1700000D02*
X800000Y2850000D01*
X800000Y2850000D02*
X400000Y3250000D01*
%TO.N,/in3-*%
X1900000Y1500000D02*
X1600000Y1800000D01*
X1600000Y1800000D02*
X1600000Y2850001D01*
X1600000Y2850001D02*
X1200001Y3250000D01*
%TO.N,/BIAS_OUT*%
X-2400001Y4450000D02*
X-2000000Y4049999D01*
X-3600000Y4450000D02*
X-2400001Y4450000D01*
%TO.N,/BIAS_INV*%
X-850000Y4400000D02*
X-1200000Y4050000D01*
%TO.N,/WCT*%
X-100000Y4400000D02*
X-100000Y4350000D01*
X-100000Y4350000D02*
X-400000Y4050000D01*
%TO.N,/VCAP4*%
X1650000Y4399999D02*
X2000000Y4049999D01*
%TO.N,/VCAP2*%
X3750000Y6450000D02*
X2800000Y6450000D01*
%TO.N,/VREFP*%
X3650000Y4050000D02*
X2800000Y4050000D01*
%TO.N,/VCAP1*%
X3600000Y5650000D02*
X2800000Y5650000D01*
X3750000Y5800000D02*
X3600000Y5650000D01*
%TO.N,/RESET*%
X3250000Y6850000D02*
X3650000Y7250000D01*
X5680000Y7250000D02*
X6000000Y6930000D01*
X2399999Y6850000D02*
X3250000Y6850000D01*
X2000000Y6450001D02*
X2399999Y6850000D01*
X6030000Y6960000D02*
X6000000Y6930000D01*
X3650000Y7250000D02*
X5680000Y7250000D01*
X6030000Y8200000D02*
X6030000Y6960000D01*
%TO.N,/VCAP3*%
X-1950000Y7250000D02*
X-2000000Y7250000D01*
X-1650000Y6950000D02*
X-1950000Y7250000D01*
%TD*%
%TA.AperFunction,Conductor*%
%TO.N,GND*%
G36*
X7442150Y5754538D02*
G01*
X7482679Y5697624D01*
X7489500Y5657066D01*
X7489500Y756094D01*
X7488903Y743940D01*
X7476488Y617888D01*
X7471746Y594047D01*
X7436753Y478691D01*
X7427450Y456233D01*
X7370629Y349928D01*
X7357124Y329716D01*
X7280653Y236536D01*
X7263465Y219348D01*
X7170284Y142876D01*
X7150072Y129371D01*
X7043768Y72550D01*
X7021310Y63247D01*
X6905954Y28254D01*
X6882113Y23512D01*
X6756072Y11098D01*
X6743918Y10501D01*
X5324500Y10501D01*
X5257461Y30186D01*
X5211706Y82990D01*
X5200500Y134501D01*
X5200500Y437096D01*
X5201762Y454742D01*
X5201976Y456233D01*
X5203041Y463638D01*
X5203041Y536362D01*
X5201762Y545260D01*
X5200500Y562904D01*
X5200500Y749999D01*
X5195592Y799832D01*
X5195592Y799833D01*
X5195591Y799845D01*
X5176561Y895516D01*
X5138411Y987619D01*
X5084218Y1068725D01*
X5084217Y1068726D01*
X5084216Y1068728D01*
X5013727Y1139217D01*
X4932622Y1193409D01*
X4932621Y1193410D01*
X4932619Y1193411D01*
X4894909Y1209031D01*
X4835547Y1233620D01*
X4781143Y1277462D01*
X4759079Y1343756D01*
X4759000Y1348181D01*
X4759000Y1396338D01*
X4757412Y1402263D01*
X4737601Y1476199D01*
X4737364Y1476609D01*
X4736095Y1478809D01*
X4736095Y1478810D01*
X4720333Y1506110D01*
X4703860Y1574011D01*
X4726713Y1640038D01*
X4781634Y1683228D01*
X4792764Y1687081D01*
X4794755Y1687666D01*
X4864624Y1687678D01*
X4923409Y1649915D01*
X4928977Y1643007D01*
X4962812Y1597810D01*
X5077906Y1511650D01*
X5077913Y1511646D01*
X5212620Y1461404D01*
X5212627Y1461402D01*
X5272155Y1455001D01*
X5272172Y1455000D01*
X5750000Y1455000D01*
X5750000Y2320000D01*
X6250000Y2320000D01*
X6250000Y1455000D01*
X6727828Y1455000D01*
X6727844Y1455001D01*
X6787372Y1461402D01*
X6787379Y1461404D01*
X6922086Y1511646D01*
X6922093Y1511650D01*
X7037187Y1597810D01*
X7037190Y1597813D01*
X7123350Y1712907D01*
X7123354Y1712914D01*
X7173596Y1847621D01*
X7173598Y1847628D01*
X7179999Y1907156D01*
X7180000Y1907173D01*
X7180000Y2320000D01*
X6250000Y2320000D01*
X5750000Y2320000D01*
X5750000Y3685000D01*
X6250000Y3685000D01*
X6250000Y2820000D01*
X7180000Y2820000D01*
X7180000Y3232828D01*
X7179999Y3232845D01*
X7173598Y3292373D01*
X7173596Y3292380D01*
X7123354Y3427087D01*
X7123350Y3427094D01*
X7037190Y3542188D01*
X7037187Y3542191D01*
X6922093Y3628351D01*
X6922086Y3628355D01*
X6787379Y3678597D01*
X6787372Y3678599D01*
X6727844Y3685000D01*
X6250000Y3685000D01*
X5750000Y3685000D01*
X5528424Y3685000D01*
X5461385Y3704685D01*
X5415630Y3757489D01*
X5405686Y3826647D01*
X5434711Y3890203D01*
X5440729Y3896667D01*
X7251262Y5707199D01*
X7258112Y5719065D01*
X7308678Y5767281D01*
X7377285Y5780505D01*
X7442150Y5754538D01*
G37*
%TD.AperFunction*%
%TA.AperFunction,Conductor*%
G36*
X5012539Y6916315D02*
G01*
X5058294Y6863511D01*
X5069500Y6812000D01*
X5069500Y6290322D01*
X5084032Y6217265D01*
X5084033Y6217261D01*
X5092936Y6203937D01*
X5139399Y6134399D01*
X5212583Y6085500D01*
X5222260Y6079034D01*
X5222264Y6079033D01*
X5295321Y6064501D01*
X5295324Y6064500D01*
X5295326Y6064500D01*
X6421075Y6064500D01*
X6488114Y6044815D01*
X6533869Y5992011D01*
X6543813Y5922853D01*
X6514788Y5859297D01*
X6508756Y5852819D01*
X4606256Y3950319D01*
X4544933Y3916834D01*
X4518575Y3914000D01*
X4228683Y3914000D01*
X4161644Y3933685D01*
X4115889Y3986489D01*
X4108031Y4041131D01*
X4105133Y4041131D01*
X4105133Y4050000D01*
X4086697Y4178226D01*
X4036624Y4287869D01*
X4032882Y4296063D01*
X3948049Y4393967D01*
X3839069Y4464004D01*
X3839065Y4464006D01*
X3839064Y4464006D01*
X3714774Y4500500D01*
X3714772Y4500500D01*
X3585228Y4500500D01*
X3579705Y4500500D01*
X3512666Y4520185D01*
X3466911Y4572989D01*
X3456967Y4642147D01*
X3463763Y4668471D01*
X3469978Y4684862D01*
X3469980Y4684867D01*
X3487232Y4826947D01*
X3514854Y4891125D01*
X3572788Y4930181D01*
X3610328Y4936000D01*
X4471117Y4936000D01*
X4538156Y4916315D01*
X4551535Y4906301D01*
X4551949Y4906035D01*
X4551951Y4906033D01*
X4660931Y4835996D01*
X4785225Y4799501D01*
X4785227Y4799500D01*
X4785228Y4799500D01*
X4914773Y4799500D01*
X4914773Y4799501D01*
X5039069Y4835996D01*
X5148049Y4906033D01*
X5232882Y5003937D01*
X5286697Y5121774D01*
X5305133Y5250000D01*
X5286697Y5378226D01*
X5232882Y5496063D01*
X5148049Y5593967D01*
X5039069Y5664004D01*
X5039065Y5664006D01*
X5039064Y5664006D01*
X4914774Y5700500D01*
X4914772Y5700500D01*
X4785228Y5700500D01*
X4785226Y5700500D01*
X4660935Y5664006D01*
X4660932Y5664005D01*
X4660931Y5664004D01*
X4639139Y5649999D01*
X4544490Y5589172D01*
X4543725Y5590362D01*
X4488759Y5565261D01*
X4471117Y5564000D01*
X4314305Y5564000D01*
X4247266Y5583685D01*
X4201511Y5636489D01*
X4191567Y5705647D01*
X4196173Y5737682D01*
X4205133Y5800000D01*
X4186697Y5928226D01*
X4132882Y6046063D01*
X4132879Y6046066D01*
X4128087Y6053524D01*
X4129877Y6054675D01*
X4105821Y6107348D01*
X4115762Y6176507D01*
X4128446Y6196246D01*
X4128087Y6196476D01*
X4132877Y6203932D01*
X4132882Y6203937D01*
X4186697Y6321774D01*
X4205133Y6450000D01*
X4186697Y6578226D01*
X4132882Y6696063D01*
X4132880Y6696065D01*
X4132879Y6696068D01*
X4102785Y6730798D01*
X4073760Y6794354D01*
X4083704Y6863512D01*
X4129459Y6916316D01*
X4196498Y6936000D01*
X4945500Y6936000D01*
X5012539Y6916315D01*
G37*
%TD.AperFunction*%
%TA.AperFunction,Conductor*%
G36*
X-706289Y6138451D02*
G01*
X-688124Y6117487D01*
X-688122Y6117486D01*
X-688120Y6117484D01*
X-582780Y6049786D01*
X-582778Y6049786D01*
X-582773Y6049782D01*
X-549971Y6040151D01*
X-497227Y6008856D01*
X-400000Y5911630D01*
X-44485Y5556115D01*
X-19372Y5519946D01*
X29866Y5412132D01*
X29867Y5412130D01*
X111876Y5317487D01*
X111877Y5317486D01*
X111880Y5317484D01*
X217220Y5249786D01*
X217222Y5249786D01*
X217227Y5249782D01*
X250029Y5240151D01*
X302773Y5208856D01*
X400000Y5111630D01*
X573948Y4937682D01*
X607433Y4876359D01*
X602449Y4806667D01*
X573949Y4762320D01*
X458213Y4646583D01*
X396890Y4613098D01*
X327198Y4618082D01*
X276817Y4653062D01*
X274999Y4655160D01*
X198049Y4743967D01*
X198048Y4743968D01*
X195328Y4745716D01*
X193209Y4748162D01*
X191348Y4749774D01*
X191579Y4750042D01*
X149574Y4798521D01*
X138378Y4849991D01*
X0Y4988371D01*
X-104310Y4884062D01*
X-157056Y4852767D01*
X-289066Y4814006D01*
X-405510Y4739172D01*
X-407064Y4741590D01*
X-457376Y4718624D01*
X-526533Y4728580D01*
X-544062Y4739846D01*
X-544493Y4739174D01*
X-550944Y4743320D01*
X-571583Y4759953D01*
X-644188Y4832558D01*
X-644189Y4832560D01*
X-755517Y4943887D01*
X-780630Y4980057D01*
X-800000Y5022471D01*
X-829867Y5087870D01*
X-911876Y5182513D01*
X-911877Y5182514D01*
X-911878Y5182515D01*
X-911881Y5182517D01*
X-1016888Y5250001D01*
X-538371Y5250001D01*
X-400000Y5111630D01*
X-261630Y5249999D01*
X-261630Y5250000D01*
X-400000Y5388371D01*
X-538371Y5250001D01*
X-1016888Y5250001D01*
X-1017221Y5250215D01*
X-1017226Y5250217D01*
X-1017227Y5250218D01*
X-1017230Y5250219D01*
X-1050033Y5259852D01*
X-1102775Y5291147D01*
X-1199999Y5388371D01*
X-1200001Y5388371D01*
X-1297228Y5291146D01*
X-1349968Y5259852D01*
X-1382772Y5250219D01*
X-1382779Y5250216D01*
X-1488120Y5182517D01*
X-1488128Y5182511D01*
X-1506289Y5161551D01*
X-1565067Y5123777D01*
X-1634937Y5123779D01*
X-1693711Y5161551D01*
X-1711873Y5182511D01*
X-1711881Y5182517D01*
X-1817221Y5250215D01*
X-1817226Y5250217D01*
X-1817227Y5250218D01*
X-1817230Y5250219D01*
X-1850033Y5259852D01*
X-1902775Y5291147D01*
X-1999999Y5388371D01*
X-2000001Y5388371D01*
X-2097228Y5291146D01*
X-2149968Y5259852D01*
X-2182772Y5250219D01*
X-2182773Y5250218D01*
X-2286302Y5183684D01*
X-2353341Y5164000D01*
X-2446659Y5164000D01*
X-2513698Y5183684D01*
X-2530918Y5194751D01*
X-2617227Y5250218D01*
X-2617230Y5250219D01*
X-2650034Y5259852D01*
X-2702776Y5291147D01*
X-2973949Y5562320D01*
X-3007434Y5623643D01*
X-3005549Y5650001D01*
X-2538371Y5650001D01*
X-2400000Y5511630D01*
X-2261630Y5649999D01*
X-2261630Y5650000D01*
X-2261631Y5650001D01*
X-1738371Y5650001D01*
X-1600000Y5511630D01*
X-1461630Y5649999D01*
X-1461630Y5650000D01*
X-1461631Y5650001D01*
X-938371Y5650001D01*
X-800000Y5511630D01*
X-661630Y5649999D01*
X-661630Y5650000D01*
X-800000Y5788371D01*
X-938371Y5650001D01*
X-1461631Y5650001D01*
X-1600000Y5788371D01*
X-1738371Y5650001D01*
X-2261631Y5650001D01*
X-2400000Y5788371D01*
X-2538371Y5650001D01*
X-3005549Y5650001D01*
X-3002450Y5693335D01*
X-2973949Y5737682D01*
X-2800001Y5911630D01*
X-2702777Y6008855D01*
X-2650029Y6040151D01*
X-2617227Y6049782D01*
X-2513698Y6116316D01*
X-2446659Y6136000D01*
X-2353339Y6136000D01*
X-2286301Y6116317D01*
X-2182773Y6049783D01*
X-2149975Y6040153D01*
X-2097227Y6008857D01*
X-2000001Y5911631D01*
X-1902775Y6008856D01*
X-1850027Y6040152D01*
X-1850020Y6040154D01*
X-1817227Y6049783D01*
X-1713698Y6116317D01*
X-1646659Y6136001D01*
X-1553342Y6136001D01*
X-1486303Y6116316D01*
X-1486302Y6116316D01*
X-1382773Y6049782D01*
X-1349971Y6040151D01*
X-1297227Y6008856D01*
X-1200001Y5911631D01*
X-1102777Y6008855D01*
X-1050029Y6040151D01*
X-1017227Y6049782D01*
X-1017220Y6049786D01*
X-911881Y6117484D01*
X-911882Y6117484D01*
X-911876Y6117487D01*
X-893712Y6138451D01*
X-834935Y6176223D01*
X-765065Y6176223D01*
X-706289Y6138451D01*
G37*
%TD.AperFunction*%
%TA.AperFunction,Conductor*%
G36*
X-2925000Y9000000D02*
G01*
X-2627172Y9000000D01*
X-2627156Y9000001D01*
X-2567628Y9006402D01*
X-2567621Y9006404D01*
X-2432914Y9056646D01*
X-2432907Y9056650D01*
X-2317815Y9142809D01*
X-2317810Y9142814D01*
X-2275141Y9199811D01*
X-2219207Y9241682D01*
X-2175874Y9249500D01*
X-1380324Y9249500D01*
X-1380323Y9249501D01*
X-1363281Y9252891D01*
X-1295281Y9266416D01*
X-1294459Y9262280D01*
X-1248032Y9267290D01*
X-1244738Y9266323D01*
X-1244719Y9266416D01*
X-1159679Y9249501D01*
X-1159676Y9249500D01*
X-1159674Y9249500D01*
X-978125Y9249500D01*
X-911086Y9229815D01*
X-865331Y9177011D01*
X-855387Y9107853D01*
X-879720Y9054573D01*
X-878087Y9053524D01*
X-882883Y9046062D01*
X-936698Y8928226D01*
X-955133Y8800000D01*
X-955133Y8791133D01*
X-958709Y8791133D01*
X-966270Y8738807D01*
X-991347Y8702718D01*
X-1172246Y8521818D01*
X-1233566Y8488334D01*
X-1259925Y8485500D01*
X-1262616Y8485500D01*
X-1382773Y8450218D01*
X-1382775Y8450217D01*
X-1486302Y8383684D01*
X-1553341Y8364000D01*
X-1646660Y8364000D01*
X-1713699Y8383684D01*
X-1810763Y8446063D01*
X-1817228Y8450218D01*
X-1877307Y8467859D01*
X-1937385Y8485500D01*
X-1937386Y8485500D01*
X-2062616Y8485500D01*
X-2062617Y8485500D01*
X-2182774Y8450218D01*
X-2182781Y8450215D01*
X-2288121Y8382517D01*
X-2288124Y8382515D01*
X-2370134Y8287870D01*
X-2370135Y8287869D01*
X-2419371Y8180058D01*
X-2444483Y8143889D01*
X-2574689Y8013682D01*
X-2574690Y8013681D01*
X-2897224Y7691148D01*
X-2949966Y7659853D01*
X-2982771Y7650220D01*
X-2982780Y7650216D01*
X-3088120Y7582518D01*
X-3088123Y7582516D01*
X-3170133Y7487871D01*
X-3170134Y7487870D01*
X-3222156Y7373961D01*
X-3222157Y7373957D01*
X-3239978Y7250001D01*
X-3222157Y7126046D01*
X-3222156Y7126042D01*
X-3179053Y7031662D01*
X-3170133Y7012131D01*
X-3144288Y6982305D01*
X-3115263Y6918752D01*
X-3114000Y6901102D01*
X-3114000Y6888000D01*
X-3133685Y6820961D01*
X-3186489Y6775206D01*
X-3238000Y6764000D01*
X-3541342Y6764000D01*
X-3604319Y6747126D01*
X-3604324Y6747124D01*
X-3619416Y6743080D01*
X-3621204Y6742600D01*
X-3692797Y6701266D01*
X-3692802Y6701262D01*
X-4993744Y5400319D01*
X-5055067Y5366834D01*
X-5081425Y5364000D01*
X-5518574Y5364000D01*
X-5585613Y5383685D01*
X-5606255Y5400319D01*
X-5729681Y5523745D01*
X-5763166Y5585068D01*
X-5766000Y5611426D01*
X-5766000Y7668308D01*
X-5746315Y7735347D01*
X-5693511Y7781102D01*
X-5624353Y7791046D01*
X-5578878Y7775040D01*
X-5516194Y7737968D01*
X-5370000Y7695496D01*
X-5370000Y8250000D01*
X-4870000Y8250000D01*
X-4870000Y7695497D01*
X-4723805Y7737969D01*
X-4584626Y7820279D01*
X-4584617Y7820286D01*
X-4470286Y7934617D01*
X-4470279Y7934626D01*
X-4402047Y8050000D01*
X-3490031Y8050000D01*
X-3469981Y7884868D01*
X-3469980Y7884862D01*
X-3410994Y7729330D01*
X-3410991Y7729326D01*
X-3399276Y7712354D01*
X-3061630Y8049999D01*
X-3061630Y8050001D01*
X-3399276Y8387647D01*
X-3410992Y8370673D01*
X-3469980Y8215136D01*
X-3469981Y8215133D01*
X-3490031Y8050001D01*
X-3490031Y8050000D01*
X-4402047Y8050000D01*
X-4387969Y8073805D01*
X-4387967Y8073810D01*
X-4342856Y8229082D01*
X-4342855Y8229088D01*
X-4341210Y8250000D01*
X-4870000Y8250000D01*
X-5370000Y8250000D01*
X-5370000Y8626000D01*
X-5363719Y8647391D01*
X-3135763Y8647391D01*
X-2800000Y8311630D01*
X-2799999Y8311630D01*
X-2464239Y8647391D01*
X-2555314Y8695191D01*
X-2716825Y8735000D01*
X-2883175Y8735000D01*
X-3044687Y8695191D01*
X-3135763Y8647391D01*
X-5363719Y8647391D01*
X-5350315Y8693039D01*
X-5297511Y8738794D01*
X-5246000Y8750000D01*
X-4341210Y8750000D01*
X-4342855Y8770911D01*
X-4387969Y8926196D01*
X-4468507Y9062379D01*
X-4485690Y9130103D01*
X-4463530Y9196366D01*
X-4409064Y9240129D01*
X-4361775Y9249500D01*
X-4174126Y9249500D01*
X-4107087Y9229815D01*
X-4074859Y9199811D01*
X-4032191Y9142814D01*
X-4032186Y9142809D01*
X-3917094Y9056650D01*
X-3917087Y9056646D01*
X-3782380Y9006404D01*
X-3782373Y9006402D01*
X-3722845Y9000001D01*
X-3722828Y9000000D01*
X-3425000Y9000000D01*
X-3425000Y9790382D01*
X-3374554Y9739936D01*
X-3300445Y9697149D01*
X-3217787Y9675000D01*
X-3132213Y9675000D01*
X-3049555Y9697149D01*
X-2975446Y9739936D01*
X-2925000Y9790382D01*
X-2925000Y9000000D01*
G37*
%TD.AperFunction*%
%TA.AperFunction,Conductor*%
G36*
X3783774Y8423575D02*
G01*
X3812799Y8360020D01*
X3812799Y8324726D01*
X3794867Y8200001D01*
X3813302Y8071775D01*
X3841450Y8010141D01*
X3867118Y7953937D01*
X3951951Y7856033D01*
X4051099Y7792315D01*
X4096853Y7739512D01*
X4106797Y7670354D01*
X4077772Y7606798D01*
X4018994Y7569023D01*
X3984059Y7564000D01*
X3608661Y7564000D01*
X3545419Y7547054D01*
X3536407Y7544639D01*
X3530200Y7542976D01*
X3460350Y7544639D01*
X3402487Y7583801D01*
X3399602Y7587619D01*
X3399275Y7587649D01*
X3025318Y7213692D01*
X3025310Y7213681D01*
X3011948Y7200319D01*
X2950625Y7166834D01*
X2924267Y7164000D01*
X2662370Y7164000D01*
X2595331Y7183685D01*
X2549576Y7236489D01*
X2548935Y7239436D01*
X2400000Y7388372D01*
X2261629Y7250000D01*
X2261629Y7204179D01*
X2241944Y7137140D01*
X2213119Y7105806D01*
X2207203Y7101267D01*
X2130625Y7024689D01*
X2069301Y6991205D01*
X2042944Y6988371D01*
X2000001Y6988371D01*
X1902776Y6891147D01*
X1850034Y6859853D01*
X1817229Y6850220D01*
X1817220Y6850216D01*
X1711880Y6782518D01*
X1711877Y6782516D01*
X1629867Y6687871D01*
X1629866Y6687870D01*
X1580630Y6580059D01*
X1555517Y6543890D01*
X1287680Y6276052D01*
X1226357Y6242567D01*
X1156666Y6247551D01*
X1112318Y6276052D01*
X1026050Y6362320D01*
X992565Y6423643D01*
X997549Y6493335D01*
X1026050Y6537682D01*
X1297223Y6808855D01*
X1349968Y6840150D01*
X1382774Y6849782D01*
X1488125Y6917487D01*
X1570134Y7012130D01*
X1619374Y7119951D01*
X1644485Y7156116D01*
X1999999Y7511630D01*
X2097223Y7608855D01*
X2149970Y7640150D01*
X2182774Y7649782D01*
X2288125Y7717487D01*
X2306289Y7738450D01*
X2365063Y7776222D01*
X2434932Y7776224D01*
X2493709Y7738452D01*
X2511876Y7717487D01*
X2511878Y7717486D01*
X2511880Y7717484D01*
X2617224Y7649783D01*
X2617227Y7649782D01*
X2650028Y7640151D01*
X2702776Y7608855D01*
X2799999Y7511632D01*
X2897222Y7608855D01*
X2949969Y7640150D01*
X2982773Y7649782D01*
X3088124Y7717487D01*
X3170133Y7812130D01*
X3222156Y7926044D01*
X3239978Y8050000D01*
X3236754Y8072423D01*
X3246697Y8141580D01*
X3271806Y8177745D01*
X3507245Y8413184D01*
X3568567Y8446666D01*
X3594925Y8449500D01*
X3614771Y8449500D01*
X3614772Y8449500D01*
X3655127Y8461349D01*
X3724995Y8461349D01*
X3783774Y8423575D01*
G37*
%TD.AperFunction*%
%TA.AperFunction,Conductor*%
G36*
X-686302Y7716316D02*
G01*
X-582773Y7649782D01*
X-549971Y7640151D01*
X-497227Y7608856D01*
X-400001Y7511631D01*
X-226052Y7337682D01*
X-192567Y7276359D01*
X-197551Y7206667D01*
X-226052Y7162320D01*
X-497226Y6891147D01*
X-549968Y6859852D01*
X-582771Y6850220D01*
X-582779Y6850216D01*
X-688120Y6782517D01*
X-688128Y6782511D01*
X-706289Y6761551D01*
X-765067Y6723777D01*
X-834937Y6723779D01*
X-893711Y6761551D01*
X-911873Y6782511D01*
X-911881Y6782517D01*
X-1017221Y6850215D01*
X-1017225Y6850217D01*
X-1017227Y6850218D01*
X-1017232Y6850220D01*
X-1017233Y6850220D01*
X-1050034Y6859852D01*
X-1102778Y6891147D01*
X-1171266Y6959635D01*
X-1204751Y7020958D01*
X-1206319Y7029646D01*
X-1213303Y7078226D01*
X-1223826Y7101267D01*
X-1240208Y7137140D01*
X-1267118Y7196063D01*
X-1306858Y7241927D01*
X-1310545Y7250000D01*
X-938372Y7250000D01*
X-800001Y7111629D01*
X-661630Y7250000D01*
X-800001Y7388372D01*
X-938372Y7250000D01*
X-1310545Y7250000D01*
X-1335882Y7305480D01*
X-1325938Y7374638D01*
X-1300824Y7410809D01*
X-1200002Y7511630D01*
X-1102778Y7608855D01*
X-1050031Y7640150D01*
X-1017227Y7649782D01*
X-913698Y7716316D01*
X-846659Y7736000D01*
X-753341Y7736000D01*
X-686302Y7716316D01*
G37*
%TD.AperFunction*%
%TD*%
M02*
