%TF.GenerationSoftware,KiCad,Pcbnew,8.0.1-8.0.1-1~ubuntu22.04.1*%
%TF.CreationDate,2024-03-30T15:25:23+00:00*%
%TF.ProjectId,EMG_DAQ_ADS1298,454d475f-4441-4515-9f41-445331323938,v1.0*%
%TF.SameCoordinates,Original*%
%TF.FileFunction,Legend,Top*%
%TF.FilePolarity,Positive*%
%FSLAX46Y46*%
G04 Gerber Fmt 4.6, Leading zero omitted, Abs format (unit mm)*
G04 Created by KiCad (PCBNEW 8.0.1-8.0.1-1~ubuntu22.04.1) date 2024-03-30 15:25:23*
%MOMM*%
%LPD*%
G01*
G04 APERTURE LIST*
G04 Aperture macros list*
%AMRoundRect*
0 Rectangle with rounded corners*
0 $1 Rounding radius*
0 $2 $3 $4 $5 $6 $7 $8 $9 X,Y pos of 4 corners*
0 Add a 4 corners polygon primitive as box body*
4,1,4,$2,$3,$4,$5,$6,$7,$8,$9,$2,$3,0*
0 Add four circle primitives for the rounded corners*
1,1,$1+$1,$2,$3*
1,1,$1+$1,$4,$5*
1,1,$1+$1,$6,$7*
1,1,$1+$1,$8,$9*
0 Add four rect primitives between the rounded corners*
20,1,$1+$1,$2,$3,$4,$5,0*
20,1,$1+$1,$4,$5,$6,$7,0*
20,1,$1+$1,$6,$7,$8,$9,0*
20,1,$1+$1,$8,$9,$2,$3,0*%
%AMFreePoly0*
4,1,13,0.345671,0.480970,0.426777,0.426777,0.480970,0.345671,0.500000,0.250000,0.500000,-0.500000,-0.500000,-0.500000,-0.500000,0.250000,-0.480970,0.345671,-0.426777,0.426777,-0.345671,0.480970,-0.250000,0.500000,0.250000,0.500000,0.345671,0.480970,0.345671,0.480970,$1*%
G04 Aperture macros list end*
%ADD10C,0.150000*%
%ADD11C,0.250000*%
%ADD12C,0.120000*%
%ADD13C,0.000000*%
%ADD14R,1.000000X1.000000*%
%ADD15R,1.360000X1.230000*%
%ADD16FreePoly0,0.000000*%
%ADD17C,0.370000*%
%ADD18RoundRect,0.140000X0.140000X0.170000X-0.140000X0.170000X-0.140000X-0.170000X0.140000X-0.170000X0*%
%ADD19RoundRect,0.140000X-0.140000X-0.170000X0.140000X-0.170000X0.140000X0.170000X-0.140000X0.170000X0*%
G04 APERTURE END LIST*
D10*
%TO.C,SW1*%
X4460000Y6780000D02*
X5120000Y6780000D01*
X4460000Y2720000D02*
X4460000Y6780000D01*
X7540000Y6780000D02*
X6880000Y6780000D01*
X7540000Y2720000D02*
X7540000Y6780000D01*
D11*
X6900000Y4750000D02*
G75*
G02*
X5100000Y4750000I-900000J0D01*
G01*
X5100000Y4750000D02*
G75*
G02*
X6900000Y4750000I900000J0D01*
G01*
D10*
%TO.C,U2*%
X-4080000Y9330000D02*
X4080000Y9330000D01*
X-4080000Y1170000D02*
X-4080000Y9330000D01*
X4080000Y9330000D02*
X4080000Y1170000D01*
X4080000Y1170000D02*
X-4080000Y1170000D01*
D12*
X-2910000Y1160000D02*
X-4090000Y1160000D01*
X-4090000Y2340000D01*
X-2910000Y1160000D01*
G36*
X-2910000Y1160000D02*
G01*
X-4090000Y1160000D01*
X-4090000Y2340000D01*
X-2910000Y1160000D01*
G37*
D13*
%TO.C,kibuzzard-6569F40D*%
G36*
X-5030369Y5890338D02*
G01*
X-5180360Y5962597D01*
X-5030369Y6035950D01*
X-5030369Y5890338D01*
G37*
G36*
X-5017094Y5307343D02*
G01*
X-4950994Y5259718D01*
X-4907064Y5192385D01*
X-4892421Y5117390D01*
X-4892421Y5011192D01*
X-5306266Y5011192D01*
X-5306266Y5116295D01*
X-5291349Y5194165D01*
X-5246597Y5261359D01*
X-5179676Y5307753D01*
X-5098248Y5323218D01*
X-5017094Y5307343D01*
G37*
G36*
X-5034140Y7002318D02*
G01*
X-4981223Y6981517D01*
X-4937309Y6946847D01*
X-4892969Y6880610D01*
X-4878188Y6806710D01*
X-4893379Y6732671D01*
X-4938951Y6666024D01*
X-5008883Y6618809D01*
X-5097154Y6603071D01*
X-5185424Y6618672D01*
X-5255356Y6665476D01*
X-5300928Y6731713D01*
X-5316119Y6805614D01*
X-5301065Y6879652D01*
X-5255904Y6946300D01*
X-5211381Y6981273D01*
X-5158099Y7002257D01*
X-5096059Y7009252D01*
X-5034140Y7002318D01*
G37*
G36*
X-4313987Y6243421D02*
G01*
X-4313987Y5114106D01*
X-4313987Y4817407D01*
X-4313988Y4446991D01*
X-4313988Y3555383D01*
X-7286012Y4446991D01*
X-7286013Y4817407D01*
X-7286013Y5357021D01*
X-6901151Y5357021D01*
X-6901150Y4919188D01*
X-6880592Y4839179D01*
X-6803360Y4818064D01*
X-6185505Y4818064D01*
X-6128831Y4824732D01*
X-6097161Y4854180D01*
X-6086776Y4914847D01*
X-5501145Y4914847D01*
X-5493755Y4858463D01*
X-5471585Y4829449D01*
X-5443119Y4819050D01*
X-5404800Y4817407D01*
X-4796076Y4817407D01*
X-4726007Y4830545D01*
X-4705479Y4859558D01*
X-4698636Y4913751D01*
X-4698636Y5114106D01*
X-4706095Y5194746D01*
X-4728469Y5269161D01*
X-4765763Y5337348D01*
X-4817972Y5399308D01*
X-4880617Y5450799D01*
X-4949215Y5487579D01*
X-5023766Y5509646D01*
X-5104270Y5517002D01*
X-5184466Y5509475D01*
X-5258093Y5486894D01*
X-5325151Y5449260D01*
X-5385641Y5396571D01*
X-5418147Y5355909D01*
X-5435694Y5333961D01*
X-5471448Y5266560D01*
X-5492899Y5194370D01*
X-5500050Y5117390D01*
X-5501145Y4914847D01*
X-6086776Y4914847D01*
X-6086604Y4915854D01*
X-6086604Y5355909D01*
X-6093271Y5413694D01*
X-6122720Y5444531D01*
X-6184394Y5454810D01*
X-6241623Y5447309D01*
X-6271071Y5424807D01*
X-6281627Y5395359D01*
X-6283295Y5357021D01*
X-6283295Y5014756D01*
X-6395531Y5014756D01*
X-6395531Y5232560D01*
X-6402199Y5290347D01*
X-6431647Y5322017D01*
X-6493321Y5332574D01*
X-6550551Y5325072D01*
X-6579999Y5302569D01*
X-6590556Y5273121D01*
X-6592223Y5234783D01*
X-6592223Y5014756D01*
X-6704459Y5014756D01*
X-6704459Y5355910D01*
X-6711126Y5413694D01*
X-6740575Y5444531D01*
X-6802249Y5454811D01*
X-6859478Y5447310D01*
X-6888926Y5424807D01*
X-6899483Y5395359D01*
X-6901151Y5357021D01*
X-7286013Y5357021D01*
X-7286013Y5625943D01*
X-6900040Y5625943D01*
X-6892817Y5569269D01*
X-6871146Y5539266D01*
X-6841698Y5528709D01*
X-6803360Y5527042D01*
X-6186616Y5527042D01*
X-6146611Y5528709D01*
X-6117719Y5539266D01*
X-6095216Y5568714D01*
X-6087715Y5623721D01*
X-6095216Y5680394D01*
X-6117719Y5710398D01*
X-6146056Y5720956D01*
X-6184394Y5722622D01*
X-6558885Y5722622D01*
X-6531242Y5743180D01*
X-6461651Y5793742D01*
X-6386781Y5848471D01*
X-6343303Y5881531D01*
X-6331079Y5890421D01*
X-6308298Y5919870D01*
X-6297074Y5963692D01*
X-5500050Y5963692D01*
X-5484723Y5911688D01*
X-5444214Y5875011D01*
X-4832205Y5579407D01*
X-4776369Y5560794D01*
X-4739145Y5576670D01*
X-4706300Y5624295D01*
X-4687688Y5682869D01*
X-4698089Y5717903D01*
X-4718343Y5737610D01*
X-4750093Y5754580D01*
X-4868334Y5811511D01*
X-4868334Y6114778D01*
X-4750093Y6171709D01*
X-4717248Y6188679D01*
X-4696447Y6208386D01*
X-4686593Y6243420D01*
X-4705205Y6301994D01*
X-4738871Y6349619D01*
X-4776370Y6365494D01*
X-4832205Y6346882D01*
X-4909746Y6309362D01*
X-5443119Y6051278D01*
X-5485817Y6015149D01*
X-5500050Y5963692D01*
X-6297074Y5963692D01*
X-6296629Y5965430D01*
X-6309410Y6012102D01*
X-6329412Y6039328D01*
X-6355526Y6059331D01*
X-6388447Y6083500D01*
X-6449427Y6127117D01*
X-6514296Y6174067D01*
X-6558885Y6208238D01*
X-6186616Y6208238D01*
X-6128832Y6213794D01*
X-6106606Y6229352D01*
X-6093271Y6258244D01*
X-6087715Y6309362D01*
X-6094383Y6362702D01*
X-6123553Y6394372D01*
X-6184394Y6404929D01*
X-6801138Y6404929D01*
X-6840031Y6403262D01*
X-6870035Y6392706D01*
X-6892539Y6363396D01*
X-6900039Y6306584D01*
X-6892538Y6248937D01*
X-6870035Y6217127D01*
X-6831230Y6186769D01*
X-6778824Y6146364D01*
X-6712816Y6095913D01*
X-6633206Y6035416D01*
X-6539994Y5964874D01*
X-6871147Y5712621D01*
X-6877815Y5705953D01*
X-6892816Y5677616D01*
X-6900040Y5625943D01*
X-7286013Y5625943D01*
X-7286013Y6894990D01*
X-6915596Y6894990D01*
X-6908200Y6813314D01*
X-6886009Y6737193D01*
X-6849026Y6666629D01*
X-6797248Y6601621D01*
X-6734428Y6547169D01*
X-6664315Y6508276D01*
X-6586910Y6484939D01*
X-6502211Y6477161D01*
X-6417097Y6484801D01*
X-6338441Y6507720D01*
X-6266244Y6545919D01*
X-6200507Y6599398D01*
X-6145813Y6663225D01*
X-6106745Y6732470D01*
X-6084813Y6802330D01*
X-5509904Y6802330D01*
X-5502240Y6727882D01*
X-5479248Y6655623D01*
X-5442845Y6588565D01*
X-5394947Y6529718D01*
X-5334868Y6480450D01*
X-5261925Y6442132D01*
X-5179676Y6417498D01*
X-5091679Y6409287D01*
X-5011345Y6416574D01*
X-4936761Y6438436D01*
X-4867924Y6474874D01*
X-4804835Y6525886D01*
X-4752146Y6587504D01*
X-4714510Y6655760D01*
X-4691930Y6730653D01*
X-4684404Y6812183D01*
X-4693162Y6894052D01*
X-4719438Y6970325D01*
X-4763231Y7041002D01*
X-4736955Y7080416D01*
X-4716155Y7111071D01*
X-4686593Y7174571D01*
X-4734766Y7241356D01*
X-4809761Y7274200D01*
X-4866145Y7234787D01*
X-4915412Y7162528D01*
X-4975384Y7185033D01*
X-5035600Y7198536D01*
X-5096059Y7203037D01*
X-5181934Y7195578D01*
X-5260009Y7173203D01*
X-5330283Y7135909D01*
X-5392757Y7083700D01*
X-5444009Y7021364D01*
X-5480617Y6953689D01*
X-5500616Y6887212D01*
X-5502582Y6880678D01*
X-5509904Y6802330D01*
X-6084813Y6802330D01*
X-6083305Y6807132D01*
X-6075491Y6887212D01*
X-6081535Y6974723D01*
X-6099661Y7050566D01*
X-6129873Y7114739D01*
X-6172170Y7167247D01*
X-6239955Y7198362D01*
X-6484431Y7198362D01*
X-6546662Y7187249D01*
X-6577776Y7113907D01*
X-6577776Y6918327D01*
X-6567775Y6864987D01*
X-6543328Y6846651D01*
X-6496100Y6841651D01*
X-6449427Y6846096D01*
X-6423313Y6864987D01*
X-6414423Y6913882D01*
X-6414423Y7001671D01*
X-6293296Y7001671D01*
X-6278295Y6949720D01*
X-6273294Y6891657D01*
X-6290102Y6811647D01*
X-6340525Y6740526D01*
X-6388555Y6703485D01*
X-6443007Y6681260D01*
X-6503878Y6673852D01*
X-6590834Y6690243D01*
X-6659453Y6739416D01*
X-6704042Y6809702D01*
X-6718904Y6889434D01*
X-6711265Y6949442D01*
X-6688346Y7000559D01*
X-6657786Y7068346D01*
X-6672511Y7105850D01*
X-6716683Y7147244D01*
X-6779468Y7172803D01*
X-6828919Y7142799D01*
X-6877074Y7063407D01*
X-6905966Y6980804D01*
X-6915596Y6894990D01*
X-7286013Y6894990D01*
X-7286013Y7274200D01*
X-7286012Y7644617D01*
X-4313988Y7644617D01*
X-4313987Y7274200D01*
X-4313987Y6812183D01*
X-4313987Y6243421D01*
G37*
D12*
%TO.C,R2*%
X5657836Y8560000D02*
X5442164Y8560000D01*
X5657836Y7840000D02*
X5442164Y7840000D01*
%TO.C,C2*%
X-5707836Y8860000D02*
X-5492164Y8860000D01*
X-5707836Y8140000D02*
X-5492164Y8140000D01*
%TD*%
%LPC*%
D14*
%TO.C,J1*%
X-4445000Y10000000D03*
%TD*%
D15*
%TO.C,SW1*%
X6000000Y6930000D03*
X6000000Y2570000D03*
%TD*%
D14*
%TO.C,J5*%
X635000Y10000000D03*
%TD*%
D16*
%TO.C,J9*%
X-4445000Y500001D03*
%TD*%
D17*
%TO.C,U2*%
X-2800000Y2450000D03*
X-2800000Y3249999D03*
X-2800000Y4050000D03*
X-2800000Y4850000D03*
X-2800000Y5650000D03*
X-2800000Y6450000D03*
X-2800000Y7250001D03*
X-2800000Y8050000D03*
X-2000001Y2450000D03*
X-2000000Y3250000D03*
X-2000000Y4049999D03*
X-2000000Y4850000D03*
X-2000000Y5650000D03*
X-2000000Y6450001D03*
X-2000000Y7250000D03*
X-2000001Y8050000D03*
X-1200000Y2450000D03*
X-1200001Y3250000D03*
X-1200000Y4050000D03*
X-1200000Y4850000D03*
X-1200000Y5650000D03*
X-1200000Y6450000D03*
X-1200001Y7250000D03*
X-1200000Y8050000D03*
X-400000Y2450000D03*
X-400000Y3250000D03*
X-400000Y4050000D03*
X-400000Y4850000D03*
X-400000Y5650000D03*
X-400000Y6450000D03*
X-400000Y7250000D03*
X-400000Y8050000D03*
X400000Y2450000D03*
X400000Y3250000D03*
X400000Y4050000D03*
X400000Y4850000D03*
X400000Y5650000D03*
X400000Y6450000D03*
X400000Y7250000D03*
X400000Y8050000D03*
X1200000Y2450000D03*
X1200001Y3250000D03*
X1200000Y4050000D03*
X1200000Y4850000D03*
X1200000Y5650000D03*
X1200000Y6450000D03*
X1200001Y7250000D03*
X1200000Y8050000D03*
X2000001Y2450000D03*
X2000000Y3250000D03*
X2000000Y4049999D03*
X2000000Y4850000D03*
X2000000Y5650000D03*
X2000000Y6450001D03*
X2000000Y7250000D03*
X2000001Y8050000D03*
X2800000Y2450000D03*
X2800000Y3249999D03*
X2800000Y4050000D03*
X2800000Y4850000D03*
X2800000Y5650000D03*
X2800000Y6450000D03*
X2800000Y7250001D03*
X2800000Y8050000D03*
%TD*%
D14*
%TO.C,J4*%
X-635000Y10000000D03*
%TD*%
D16*
%TO.C,J16*%
X4445000Y500000D03*
%TD*%
%TO.C,J11*%
X-1905000Y500001D03*
%TD*%
D18*
%TO.C,R2*%
X6030000Y8200000D03*
X5070000Y8200000D03*
%TD*%
D14*
%TO.C,J8*%
X4445000Y10000000D03*
%TD*%
D16*
%TO.C,J10*%
X-3175000Y500001D03*
%TD*%
D14*
%TO.C,J7*%
X3175000Y10000000D03*
%TD*%
D16*
%TO.C,J12*%
X-635000Y500000D03*
%TD*%
%TO.C,J14*%
X1905000Y500000D03*
%TD*%
%TO.C,J13*%
X635000Y500000D03*
%TD*%
D14*
%TO.C,J25*%
X-5800000Y2000000D03*
%TD*%
%TO.C,J26*%
X-5800000Y3270000D03*
%TD*%
%TO.C,J2*%
X-3175000Y10000000D03*
%TD*%
D16*
%TO.C,J15*%
X3175000Y500000D03*
%TD*%
D14*
%TO.C,J6*%
X1905000Y10000000D03*
%TD*%
%TO.C,J3*%
X-1905000Y10000000D03*
%TD*%
D19*
%TO.C,C2*%
X-6080000Y8500000D03*
X-5120000Y8500000D03*
%TD*%
%LPD*%
M02*
