%TF.GenerationSoftware,KiCad,Pcbnew,8.0.1-8.0.1-1~ubuntu22.04.1*%
%TF.CreationDate,2024-03-28T22:24:37+00:00*%
%TF.ProjectId,EMG_DAQ_ADS1298,454d475f-4441-4515-9f41-445331323938,rev?*%
%TF.SameCoordinates,Original*%
%TF.FileFunction,Soldermask,Bot*%
%TF.FilePolarity,Negative*%
%FSLAX46Y46*%
G04 Gerber Fmt 4.6, Leading zero omitted, Abs format (unit mm)*
G04 Created by KiCad (PCBNEW 8.0.1-8.0.1-1~ubuntu22.04.1) date 2024-03-28 22:24:37*
%MOMM*%
%LPD*%
G01*
G04 APERTURE LIST*
G04 Aperture macros list*
%AMRoundRect*
0 Rectangle with rounded corners*
0 $1 Rounding radius*
0 $2 $3 $4 $5 $6 $7 $8 $9 X,Y pos of 4 corners*
0 Add a 4 corners polygon primitive as box body*
4,1,4,$2,$3,$4,$5,$6,$7,$8,$9,$2,$3,0*
0 Add four circle primitives for the rounded corners*
1,1,$1+$1,$2,$3*
1,1,$1+$1,$4,$5*
1,1,$1+$1,$6,$7*
1,1,$1+$1,$8,$9*
0 Add four rect primitives between the rounded corners*
20,1,$1+$1,$2,$3,$4,$5,0*
20,1,$1+$1,$4,$5,$6,$7,0*
20,1,$1+$1,$6,$7,$8,$9,0*
20,1,$1+$1,$8,$9,$2,$3,0*%
%AMFreePoly0*
4,1,13,0.500000,-0.250000,0.480970,-0.345671,0.426777,-0.426777,0.345671,-0.480970,0.250000,-0.500000,-0.250000,-0.500000,-0.345671,-0.480970,-0.426777,-0.426777,-0.480970,-0.345671,-0.500000,-0.250000,-0.500000,0.500000,0.500000,0.500000,0.500000,-0.250000,0.500000,-0.250000,$1*%
G04 Aperture macros list end*
%ADD10FreePoly0,180.000000*%
%ADD11R,1.000000X1.000000*%
%ADD12RoundRect,0.140000X0.170000X-0.140000X0.170000X0.140000X-0.170000X0.140000X-0.170000X-0.140000X0*%
%ADD13RoundRect,0.140000X0.140000X0.170000X-0.140000X0.170000X-0.140000X-0.170000X0.140000X-0.170000X0*%
%ADD14RoundRect,0.140000X-0.140000X-0.170000X0.140000X-0.170000X0.140000X0.170000X-0.140000X0.170000X0*%
%ADD15RoundRect,0.080400X-0.321600X-0.696600X0.321600X-0.696600X0.321600X0.696600X-0.321600X0.696600X0*%
%ADD16RoundRect,0.140000X-0.170000X0.140000X-0.170000X-0.140000X0.170000X-0.140000X0.170000X0.140000X0*%
G04 APERTURE END LIST*
D10*
%TO.C,J22*%
X102250000Y-99499999D03*
%TD*%
%TO.C,J24*%
X105250000Y-99499999D03*
%TD*%
%TO.C,J18*%
X96250000Y-99499999D03*
%TD*%
%TO.C,J17*%
X94750000Y-99499999D03*
%TD*%
%TO.C,J19*%
X97750000Y-99499999D03*
%TD*%
%TO.C,J23*%
X103750000Y-99499999D03*
%TD*%
%TO.C,J20*%
X99250000Y-99500000D03*
%TD*%
%TO.C,J21*%
X100750000Y-99499999D03*
%TD*%
D11*
%TO.C,J1*%
X95555000Y-90000000D03*
%TD*%
%TO.C,J5*%
X100635000Y-90000000D03*
%TD*%
%TO.C,J4*%
X99365000Y-90000000D03*
%TD*%
%TO.C,J8*%
X104445000Y-90000000D03*
%TD*%
%TO.C,J7*%
X103175000Y-90000000D03*
%TD*%
%TO.C,J25*%
X94200000Y-98000000D03*
%TD*%
%TO.C,J26*%
X94200000Y-96730000D03*
%TD*%
%TO.C,J2*%
X96825000Y-90000000D03*
%TD*%
%TO.C,J6*%
X101905000Y-90000000D03*
%TD*%
%TO.C,J3*%
X98095000Y-90000000D03*
%TD*%
D12*
%TO.C,C11*%
X101900000Y-94880000D03*
X101900000Y-93920000D03*
%TD*%
D13*
%TO.C,C13*%
X102980000Y-96250000D03*
X102020000Y-96250000D03*
%TD*%
%TO.C,C14*%
X102980000Y-97350000D03*
X102020000Y-97350000D03*
%TD*%
%TO.C,C1*%
X95500000Y-91450000D03*
X94540000Y-91450000D03*
%TD*%
D14*
%TO.C,C3*%
X99070000Y-91800000D03*
X100030000Y-91800000D03*
%TD*%
%TO.C,C10*%
X100120000Y-97300000D03*
X101080000Y-97300000D03*
%TD*%
D15*
%TO.C,U1*%
X93520000Y-92980000D03*
X94470000Y-92980000D03*
X95420000Y-92980000D03*
X95420000Y-95350000D03*
X93520000Y-95350000D03*
%TD*%
D16*
%TO.C,C5*%
X99700000Y-93820000D03*
X99700000Y-94780000D03*
%TD*%
D14*
%TO.C,C7*%
X97370000Y-97650000D03*
X98330000Y-97650000D03*
%TD*%
D13*
%TO.C,R1*%
X98330000Y-96450000D03*
X97370000Y-96450000D03*
%TD*%
D14*
%TO.C,C4*%
X99070000Y-92800000D03*
X100030000Y-92800000D03*
%TD*%
D13*
%TO.C,C8*%
X98268213Y-93915168D03*
X97308213Y-93915168D03*
%TD*%
D16*
%TO.C,C15*%
X103000000Y-93920000D03*
X103000000Y-94880000D03*
%TD*%
D13*
%TO.C,C9*%
X98268213Y-94915168D03*
X97308213Y-94915168D03*
%TD*%
%TO.C,C12*%
X102880000Y-92600000D03*
X101920000Y-92600000D03*
%TD*%
D16*
%TO.C,C6*%
X100700000Y-93820000D03*
X100700000Y-94780000D03*
%TD*%
M02*
