%TF.GenerationSoftware,KiCad,Pcbnew,8.0.1-8.0.1-1~ubuntu22.04.1*%
%TF.CreationDate,2024-03-30T15:25:23+00:00*%
%TF.ProjectId,EMG_DAQ_ADS1298,454d475f-4441-4515-9f41-445331323938,v1.0*%
%TF.SameCoordinates,Original*%
%TF.FileFunction,Soldermask,Top*%
%TF.FilePolarity,Negative*%
%FSLAX46Y46*%
G04 Gerber Fmt 4.6, Leading zero omitted, Abs format (unit mm)*
G04 Created by KiCad (PCBNEW 8.0.1-8.0.1-1~ubuntu22.04.1) date 2024-03-30 15:25:23*
%MOMM*%
%LPD*%
G01*
G04 APERTURE LIST*
G04 Aperture macros list*
%AMRoundRect*
0 Rectangle with rounded corners*
0 $1 Rounding radius*
0 $2 $3 $4 $5 $6 $7 $8 $9 X,Y pos of 4 corners*
0 Add a 4 corners polygon primitive as box body*
4,1,4,$2,$3,$4,$5,$6,$7,$8,$9,$2,$3,0*
0 Add four circle primitives for the rounded corners*
1,1,$1+$1,$2,$3*
1,1,$1+$1,$4,$5*
1,1,$1+$1,$6,$7*
1,1,$1+$1,$8,$9*
0 Add four rect primitives between the rounded corners*
20,1,$1+$1,$2,$3,$4,$5,0*
20,1,$1+$1,$4,$5,$6,$7,0*
20,1,$1+$1,$6,$7,$8,$9,0*
20,1,$1+$1,$8,$9,$2,$3,0*%
%AMFreePoly0*
4,1,13,0.345671,0.480970,0.426777,0.426777,0.480970,0.345671,0.500000,0.250000,0.500000,-0.500000,-0.500000,-0.500000,-0.500000,0.250000,-0.480970,0.345671,-0.426777,0.426777,-0.345671,0.480970,-0.250000,0.500000,0.250000,0.500000,0.345671,0.480970,0.345671,0.480970,$1*%
G04 Aperture macros list end*
%ADD10R,1.000000X1.000000*%
%ADD11R,1.360000X1.230000*%
%ADD12FreePoly0,0.000000*%
%ADD13C,0.370000*%
%ADD14RoundRect,0.140000X0.140000X0.170000X-0.140000X0.170000X-0.140000X-0.170000X0.140000X-0.170000X0*%
%ADD15RoundRect,0.140000X-0.140000X-0.170000X0.140000X-0.170000X0.140000X0.170000X-0.140000X0.170000X0*%
G04 APERTURE END LIST*
D10*
%TO.C,J1*%
X-4445000Y10000000D03*
%TD*%
D11*
%TO.C,SW1*%
X6000000Y6930000D03*
X6000000Y2570000D03*
%TD*%
D10*
%TO.C,J5*%
X635000Y10000000D03*
%TD*%
D12*
%TO.C,J9*%
X-4445000Y500001D03*
%TD*%
D13*
%TO.C,U2*%
X-2800000Y2450000D03*
X-2800000Y3249999D03*
X-2800000Y4050000D03*
X-2800000Y4850000D03*
X-2800000Y5650000D03*
X-2800000Y6450000D03*
X-2800000Y7250001D03*
X-2800000Y8050000D03*
X-2000001Y2450000D03*
X-2000000Y3250000D03*
X-2000000Y4049999D03*
X-2000000Y4850000D03*
X-2000000Y5650000D03*
X-2000000Y6450001D03*
X-2000000Y7250000D03*
X-2000001Y8050000D03*
X-1200000Y2450000D03*
X-1200001Y3250000D03*
X-1200000Y4050000D03*
X-1200000Y4850000D03*
X-1200000Y5650000D03*
X-1200000Y6450000D03*
X-1200001Y7250000D03*
X-1200000Y8050000D03*
X-400000Y2450000D03*
X-400000Y3250000D03*
X-400000Y4050000D03*
X-400000Y4850000D03*
X-400000Y5650000D03*
X-400000Y6450000D03*
X-400000Y7250000D03*
X-400000Y8050000D03*
X400000Y2450000D03*
X400000Y3250000D03*
X400000Y4050000D03*
X400000Y4850000D03*
X400000Y5650000D03*
X400000Y6450000D03*
X400000Y7250000D03*
X400000Y8050000D03*
X1200000Y2450000D03*
X1200001Y3250000D03*
X1200000Y4050000D03*
X1200000Y4850000D03*
X1200000Y5650000D03*
X1200000Y6450000D03*
X1200001Y7250000D03*
X1200000Y8050000D03*
X2000001Y2450000D03*
X2000000Y3250000D03*
X2000000Y4049999D03*
X2000000Y4850000D03*
X2000000Y5650000D03*
X2000000Y6450001D03*
X2000000Y7250000D03*
X2000001Y8050000D03*
X2800000Y2450000D03*
X2800000Y3249999D03*
X2800000Y4050000D03*
X2800000Y4850000D03*
X2800000Y5650000D03*
X2800000Y6450000D03*
X2800000Y7250001D03*
X2800000Y8050000D03*
%TD*%
D10*
%TO.C,J4*%
X-635000Y10000000D03*
%TD*%
D12*
%TO.C,J16*%
X4445000Y500000D03*
%TD*%
%TO.C,J11*%
X-1905000Y500001D03*
%TD*%
D14*
%TO.C,R2*%
X6030000Y8200000D03*
X5070000Y8200000D03*
%TD*%
D10*
%TO.C,J8*%
X4445000Y10000000D03*
%TD*%
D12*
%TO.C,J10*%
X-3175000Y500001D03*
%TD*%
D10*
%TO.C,J7*%
X3175000Y10000000D03*
%TD*%
D12*
%TO.C,J12*%
X-635000Y500000D03*
%TD*%
%TO.C,J14*%
X1905000Y500000D03*
%TD*%
%TO.C,J13*%
X635000Y500000D03*
%TD*%
D10*
%TO.C,J25*%
X-5800000Y2000000D03*
%TD*%
%TO.C,J26*%
X-5800000Y3270000D03*
%TD*%
%TO.C,J2*%
X-3175000Y10000000D03*
%TD*%
D12*
%TO.C,J15*%
X3175000Y500000D03*
%TD*%
D10*
%TO.C,J6*%
X1905000Y10000000D03*
%TD*%
%TO.C,J3*%
X-1905000Y10000000D03*
%TD*%
D15*
%TO.C,C2*%
X-6080000Y8500000D03*
X-5120000Y8500000D03*
%TD*%
M02*
