%TF.GenerationSoftware,KiCad,Pcbnew,8.0.1-8.0.1-1~ubuntu22.04.1*%
%TF.CreationDate,2024-03-28T22:24:37+00:00*%
%TF.ProjectId,EMG_DAQ_ADS1298,454d475f-4441-4515-9f41-445331323938,rev?*%
%TF.SameCoordinates,Original*%
%TF.FileFunction,Legend,Bot*%
%TF.FilePolarity,Positive*%
%FSLAX46Y46*%
G04 Gerber Fmt 4.6, Leading zero omitted, Abs format (unit mm)*
G04 Created by KiCad (PCBNEW 8.0.1-8.0.1-1~ubuntu22.04.1) date 2024-03-28 22:24:37*
%MOMM*%
%LPD*%
G01*
G04 APERTURE LIST*
G04 Aperture macros list*
%AMRoundRect*
0 Rectangle with rounded corners*
0 $1 Rounding radius*
0 $2 $3 $4 $5 $6 $7 $8 $9 X,Y pos of 4 corners*
0 Add a 4 corners polygon primitive as box body*
4,1,4,$2,$3,$4,$5,$6,$7,$8,$9,$2,$3,0*
0 Add four circle primitives for the rounded corners*
1,1,$1+$1,$2,$3*
1,1,$1+$1,$4,$5*
1,1,$1+$1,$6,$7*
1,1,$1+$1,$8,$9*
0 Add four rect primitives between the rounded corners*
20,1,$1+$1,$2,$3,$4,$5,0*
20,1,$1+$1,$4,$5,$6,$7,0*
20,1,$1+$1,$6,$7,$8,$9,0*
20,1,$1+$1,$8,$9,$2,$3,0*%
%AMFreePoly0*
4,1,13,0.500000,-0.250000,0.480970,-0.345671,0.426777,-0.426777,0.345671,-0.480970,0.250000,-0.500000,-0.250000,-0.500000,-0.345671,-0.480970,-0.426777,-0.426777,-0.480970,-0.345671,-0.500000,-0.250000,-0.500000,0.500000,0.500000,0.500000,0.500000,-0.250000,0.500000,-0.250000,$1*%
G04 Aperture macros list end*
%ADD10C,0.150000*%
%ADD11C,0.120000*%
%ADD12C,0.127000*%
%ADD13C,0.200000*%
%ADD14FreePoly0,180.000000*%
%ADD15R,1.000000X1.000000*%
%ADD16RoundRect,0.140000X0.170000X-0.140000X0.170000X0.140000X-0.170000X0.140000X-0.170000X-0.140000X0*%
%ADD17RoundRect,0.140000X0.140000X0.170000X-0.140000X0.170000X-0.140000X-0.170000X0.140000X-0.170000X0*%
%ADD18RoundRect,0.140000X-0.140000X-0.170000X0.140000X-0.170000X0.140000X0.170000X-0.140000X0.170000X0*%
%ADD19RoundRect,0.080400X-0.321600X-0.696600X0.321600X-0.696600X0.321600X0.696600X-0.321600X0.696600X0*%
%ADD20RoundRect,0.140000X-0.170000X0.140000X-0.170000X-0.140000X0.170000X-0.140000X0.170000X0.140000X0*%
G04 APERTURE END LIST*
D10*
X106030895Y-97376190D02*
X106030895Y-96900000D01*
X105745180Y-97471428D02*
X106745180Y-97138095D01*
X106745180Y-97138095D02*
X105745180Y-96804762D01*
X105745180Y-96471428D02*
X106411847Y-96471428D01*
X106745180Y-96471428D02*
X106697561Y-96519047D01*
X106697561Y-96519047D02*
X106649942Y-96471428D01*
X106649942Y-96471428D02*
X106697561Y-96423809D01*
X106697561Y-96423809D02*
X106745180Y-96471428D01*
X106745180Y-96471428D02*
X106649942Y-96471428D01*
X106411847Y-95566667D02*
X105602323Y-95566667D01*
X105602323Y-95566667D02*
X105507085Y-95614286D01*
X105507085Y-95614286D02*
X105459466Y-95661905D01*
X105459466Y-95661905D02*
X105411847Y-95757143D01*
X105411847Y-95757143D02*
X105411847Y-95900000D01*
X105411847Y-95900000D02*
X105459466Y-95995238D01*
X105792800Y-95566667D02*
X105745180Y-95661905D01*
X105745180Y-95661905D02*
X105745180Y-95852381D01*
X105745180Y-95852381D02*
X105792800Y-95947619D01*
X105792800Y-95947619D02*
X105840419Y-95995238D01*
X105840419Y-95995238D02*
X105935657Y-96042857D01*
X105935657Y-96042857D02*
X106221371Y-96042857D01*
X106221371Y-96042857D02*
X106316609Y-95995238D01*
X106316609Y-95995238D02*
X106364228Y-95947619D01*
X106364228Y-95947619D02*
X106411847Y-95852381D01*
X106411847Y-95852381D02*
X106411847Y-95661905D01*
X106411847Y-95661905D02*
X106364228Y-95566667D01*
X105745180Y-95090476D02*
X106745180Y-95090476D01*
X105745180Y-94661905D02*
X106268990Y-94661905D01*
X106268990Y-94661905D02*
X106364228Y-94709524D01*
X106364228Y-94709524D02*
X106411847Y-94804762D01*
X106411847Y-94804762D02*
X106411847Y-94947619D01*
X106411847Y-94947619D02*
X106364228Y-95042857D01*
X106364228Y-95042857D02*
X106316609Y-95090476D01*
X106411847Y-94328571D02*
X106411847Y-93947619D01*
X106745180Y-94185714D02*
X105888038Y-94185714D01*
X105888038Y-94185714D02*
X105792800Y-94138095D01*
X105792800Y-94138095D02*
X105745180Y-94042857D01*
X105745180Y-94042857D02*
X105745180Y-93947619D01*
X105792800Y-93233333D02*
X105745180Y-93328571D01*
X105745180Y-93328571D02*
X105745180Y-93519047D01*
X105745180Y-93519047D02*
X105792800Y-93614285D01*
X105792800Y-93614285D02*
X105888038Y-93661904D01*
X105888038Y-93661904D02*
X106268990Y-93661904D01*
X106268990Y-93661904D02*
X106364228Y-93614285D01*
X106364228Y-93614285D02*
X106411847Y-93519047D01*
X106411847Y-93519047D02*
X106411847Y-93328571D01*
X106411847Y-93328571D02*
X106364228Y-93233333D01*
X106364228Y-93233333D02*
X106268990Y-93185714D01*
X106268990Y-93185714D02*
X106173752Y-93185714D01*
X106173752Y-93185714D02*
X106078514Y-93661904D01*
X105792800Y-92328571D02*
X105745180Y-92423809D01*
X105745180Y-92423809D02*
X105745180Y-92614285D01*
X105745180Y-92614285D02*
X105792800Y-92709523D01*
X105792800Y-92709523D02*
X105840419Y-92757142D01*
X105840419Y-92757142D02*
X105935657Y-92804761D01*
X105935657Y-92804761D02*
X106221371Y-92804761D01*
X106221371Y-92804761D02*
X106316609Y-92757142D01*
X106316609Y-92757142D02*
X106364228Y-92709523D01*
X106364228Y-92709523D02*
X106411847Y-92614285D01*
X106411847Y-92614285D02*
X106411847Y-92423809D01*
X106411847Y-92423809D02*
X106364228Y-92328571D01*
X105745180Y-91899999D02*
X106745180Y-91899999D01*
X105745180Y-91471428D02*
X106268990Y-91471428D01*
X106268990Y-91471428D02*
X106364228Y-91519047D01*
X106364228Y-91519047D02*
X106411847Y-91614285D01*
X106411847Y-91614285D02*
X106411847Y-91757142D01*
X106411847Y-91757142D02*
X106364228Y-91852380D01*
X106364228Y-91852380D02*
X106316609Y-91899999D01*
D11*
%TO.C,C11*%
X101540000Y-94292164D02*
X101540000Y-94507836D01*
X102260000Y-94292164D02*
X102260000Y-94507836D01*
%TO.C,C13*%
X102392164Y-95890000D02*
X102607836Y-95890000D01*
X102392164Y-96610000D02*
X102607836Y-96610000D01*
%TO.C,C14*%
X102392164Y-96990000D02*
X102607836Y-96990000D01*
X102392164Y-97710000D02*
X102607836Y-97710000D01*
%TO.C,C1*%
X94912164Y-91090000D02*
X95127836Y-91090000D01*
X94912164Y-91810000D02*
X95127836Y-91810000D01*
%TO.C,C3*%
X99657836Y-91440000D02*
X99442164Y-91440000D01*
X99657836Y-92160000D02*
X99442164Y-92160000D01*
%TO.C,C10*%
X100707836Y-96940000D02*
X100492164Y-96940000D01*
X100707836Y-97660000D02*
X100492164Y-97660000D01*
D12*
%TO.C,U1*%
X92920000Y-93315000D02*
X92920000Y-95015000D01*
X93020000Y-93315000D02*
X92920000Y-93315000D01*
X93020000Y-95015000D02*
X92920000Y-95015000D01*
X95920000Y-93315000D02*
X96020000Y-93315000D01*
X95920000Y-95015000D02*
X96020000Y-95015000D01*
X96020000Y-93315000D02*
X96020000Y-95015000D01*
D13*
X93620000Y-91696000D02*
G75*
G02*
X93420000Y-91696000I-100000J0D01*
G01*
X93420000Y-91696000D02*
G75*
G02*
X93620000Y-91696000I100000J0D01*
G01*
D11*
%TO.C,C5*%
X99340000Y-94407836D02*
X99340000Y-94192164D01*
X100060000Y-94407836D02*
X100060000Y-94192164D01*
%TO.C,C7*%
X97957836Y-97290000D02*
X97742164Y-97290000D01*
X97957836Y-98010000D02*
X97742164Y-98010000D01*
%TO.C,R1*%
X97742164Y-96090000D02*
X97957836Y-96090000D01*
X97742164Y-96810000D02*
X97957836Y-96810000D01*
%TO.C,C4*%
X99657836Y-92440000D02*
X99442164Y-92440000D01*
X99657836Y-93160000D02*
X99442164Y-93160000D01*
%TO.C,C8*%
X97680377Y-93555168D02*
X97896049Y-93555168D01*
X97680377Y-94275168D02*
X97896049Y-94275168D01*
%TO.C,C15*%
X102640000Y-94507836D02*
X102640000Y-94292164D01*
X103360000Y-94507836D02*
X103360000Y-94292164D01*
%TO.C,C9*%
X97680377Y-94555168D02*
X97896049Y-94555168D01*
X97680377Y-95275168D02*
X97896049Y-95275168D01*
%TO.C,C12*%
X102292164Y-92240000D02*
X102507836Y-92240000D01*
X102292164Y-92960000D02*
X102507836Y-92960000D01*
%TO.C,C6*%
X100340000Y-94407836D02*
X100340000Y-94192164D01*
X101060000Y-94407836D02*
X101060000Y-94192164D01*
%TD*%
%LPC*%
D14*
%TO.C,J22*%
X102250000Y-99499999D03*
%TD*%
%TO.C,J24*%
X105250000Y-99499999D03*
%TD*%
%TO.C,J18*%
X96250000Y-99499999D03*
%TD*%
%TO.C,J17*%
X94750000Y-99499999D03*
%TD*%
%TO.C,J19*%
X97750000Y-99499999D03*
%TD*%
%TO.C,J23*%
X103750000Y-99499999D03*
%TD*%
%TO.C,J20*%
X99250000Y-99500000D03*
%TD*%
%TO.C,J21*%
X100750000Y-99499999D03*
%TD*%
D15*
%TO.C,J1*%
X95555000Y-90000000D03*
%TD*%
%TO.C,J5*%
X100635000Y-90000000D03*
%TD*%
%TO.C,J4*%
X99365000Y-90000000D03*
%TD*%
%TO.C,J8*%
X104445000Y-90000000D03*
%TD*%
%TO.C,J7*%
X103175000Y-90000000D03*
%TD*%
%TO.C,J25*%
X94200000Y-98000000D03*
%TD*%
%TO.C,J26*%
X94200000Y-96730000D03*
%TD*%
%TO.C,J2*%
X96825000Y-90000000D03*
%TD*%
%TO.C,J6*%
X101905000Y-90000000D03*
%TD*%
%TO.C,J3*%
X98095000Y-90000000D03*
%TD*%
D16*
%TO.C,C11*%
X101900000Y-94880000D03*
X101900000Y-93920000D03*
%TD*%
D17*
%TO.C,C13*%
X102980000Y-96250000D03*
X102020000Y-96250000D03*
%TD*%
%TO.C,C14*%
X102980000Y-97350000D03*
X102020000Y-97350000D03*
%TD*%
%TO.C,C1*%
X95500000Y-91450000D03*
X94540000Y-91450000D03*
%TD*%
D18*
%TO.C,C3*%
X99070000Y-91800000D03*
X100030000Y-91800000D03*
%TD*%
%TO.C,C10*%
X100120000Y-97300000D03*
X101080000Y-97300000D03*
%TD*%
D19*
%TO.C,U1*%
X93520000Y-92980000D03*
X94470000Y-92980000D03*
X95420000Y-92980000D03*
X95420000Y-95350000D03*
X93520000Y-95350000D03*
%TD*%
D20*
%TO.C,C5*%
X99700000Y-93820000D03*
X99700000Y-94780000D03*
%TD*%
D18*
%TO.C,C7*%
X97370000Y-97650000D03*
X98330000Y-97650000D03*
%TD*%
D17*
%TO.C,R1*%
X98330000Y-96450000D03*
X97370000Y-96450000D03*
%TD*%
D18*
%TO.C,C4*%
X99070000Y-92800000D03*
X100030000Y-92800000D03*
%TD*%
D17*
%TO.C,C8*%
X98268213Y-93915168D03*
X97308213Y-93915168D03*
%TD*%
D20*
%TO.C,C15*%
X103000000Y-93920000D03*
X103000000Y-94880000D03*
%TD*%
D17*
%TO.C,C9*%
X98268213Y-94915168D03*
X97308213Y-94915168D03*
%TD*%
%TO.C,C12*%
X102880000Y-92600000D03*
X101920000Y-92600000D03*
%TD*%
D20*
%TO.C,C6*%
X100700000Y-93820000D03*
X100700000Y-94780000D03*
%TD*%
%LPD*%
M02*
