%TF.GenerationSoftware,KiCad,Pcbnew,8.0.1-8.0.1-1~ubuntu22.04.1*%
%TF.CreationDate,2024-03-28T22:24:37+00:00*%
%TF.ProjectId,EMG_DAQ_ADS1298,454d475f-4441-4515-9f41-445331323938,rev?*%
%TF.SameCoordinates,Original*%
%TF.FileFunction,Copper,L4,Bot*%
%TF.FilePolarity,Positive*%
%FSLAX46Y46*%
G04 Gerber Fmt 4.6, Leading zero omitted, Abs format (unit mm)*
G04 Created by KiCad (PCBNEW 8.0.1-8.0.1-1~ubuntu22.04.1) date 2024-03-28 22:24:37*
%MOMM*%
%LPD*%
G01*
G04 APERTURE LIST*
G04 Aperture macros list*
%AMRoundRect*
0 Rectangle with rounded corners*
0 $1 Rounding radius*
0 $2 $3 $4 $5 $6 $7 $8 $9 X,Y pos of 4 corners*
0 Add a 4 corners polygon primitive as box body*
4,1,4,$2,$3,$4,$5,$6,$7,$8,$9,$2,$3,0*
0 Add four circle primitives for the rounded corners*
1,1,$1+$1,$2,$3*
1,1,$1+$1,$4,$5*
1,1,$1+$1,$6,$7*
1,1,$1+$1,$8,$9*
0 Add four rect primitives between the rounded corners*
20,1,$1+$1,$2,$3,$4,$5,0*
20,1,$1+$1,$4,$5,$6,$7,0*
20,1,$1+$1,$6,$7,$8,$9,0*
20,1,$1+$1,$8,$9,$2,$3,0*%
%AMFreePoly0*
4,1,13,0.500000,-0.250000,0.480970,-0.345671,0.426777,-0.426777,0.345671,-0.480970,0.250000,-0.500000,-0.250000,-0.500000,-0.345671,-0.480970,-0.426777,-0.426777,-0.480970,-0.345671,-0.500000,-0.250000,-0.500000,0.500000,0.500000,0.500000,0.500000,-0.250000,0.500000,-0.250000,$1*%
G04 Aperture macros list end*
%TA.AperFunction,SMDPad,CuDef*%
%ADD10FreePoly0,180.000000*%
%TD*%
%TA.AperFunction,ComponentPad*%
%ADD11R,1.000000X1.000000*%
%TD*%
%TA.AperFunction,SMDPad,CuDef*%
%ADD12RoundRect,0.140000X0.170000X-0.140000X0.170000X0.140000X-0.170000X0.140000X-0.170000X-0.140000X0*%
%TD*%
%TA.AperFunction,SMDPad,CuDef*%
%ADD13RoundRect,0.140000X0.140000X0.170000X-0.140000X0.170000X-0.140000X-0.170000X0.140000X-0.170000X0*%
%TD*%
%TA.AperFunction,SMDPad,CuDef*%
%ADD14RoundRect,0.140000X-0.140000X-0.170000X0.140000X-0.170000X0.140000X0.170000X-0.140000X0.170000X0*%
%TD*%
%TA.AperFunction,SMDPad,CuDef*%
%ADD15RoundRect,0.060000X-0.240000X-0.615000X0.240000X-0.615000X0.240000X0.615000X-0.240000X0.615000X0*%
%TD*%
%TA.AperFunction,SMDPad,CuDef*%
%ADD16RoundRect,0.140000X-0.170000X0.140000X-0.170000X-0.140000X0.170000X-0.140000X0.170000X0.140000X0*%
%TD*%
%TA.AperFunction,ViaPad*%
%ADD17C,0.400000*%
%TD*%
%TA.AperFunction,Conductor*%
%ADD18C,0.127000*%
%TD*%
G04 APERTURE END LIST*
D10*
%TO.P,J22,1,Pin_1*%
%TO.N,/in3-*%
X102250000Y-99499999D03*
%TD*%
%TO.P,J24,1,Pin_1*%
%TO.N,/in1-*%
X105250000Y-99499999D03*
%TD*%
%TO.P,J18,1,Pin_1*%
%TO.N,/in7-*%
X96250000Y-99499999D03*
%TD*%
%TO.P,J17,1,Pin_1*%
%TO.N,/in8-*%
X94750000Y-99499999D03*
%TD*%
%TO.P,J19,1,Pin_1*%
%TO.N,/in6-*%
X97750000Y-99499999D03*
%TD*%
%TO.P,J23,1,Pin_1*%
%TO.N,/in2-*%
X103750000Y-99499999D03*
%TD*%
%TO.P,J20,1,Pin_1*%
%TO.N,/in5-*%
X99250000Y-99500000D03*
%TD*%
%TO.P,J21,1,Pin_1*%
%TO.N,/in4-*%
X100750000Y-99499999D03*
%TD*%
D11*
%TO.P,J1,1,Pin_1*%
%TO.N,+3.3V*%
X95555000Y-90000000D03*
%TD*%
%TO.P,J5,1,Pin_1*%
%TO.N,/MOSI*%
X100635000Y-90000000D03*
%TD*%
%TO.P,J4,1,Pin_1*%
%TO.N,/MISO*%
X99365000Y-90000000D03*
%TD*%
%TO.P,J8,1,Pin_1*%
%TO.N,/extRef*%
X104445000Y-90000000D03*
%TD*%
%TO.P,J7,1,Pin_1*%
%TO.N,/CSB*%
X103175000Y-90000000D03*
%TD*%
%TO.P,J25,1,Pin_1*%
%TO.N,/Refp*%
X94200000Y-98000000D03*
%TD*%
%TO.P,J26,1,Pin_1*%
%TO.N,/BIAS_OUT*%
X94200000Y-96730000D03*
%TD*%
%TO.P,J2,1,Pin_1*%
%TO.N,GND*%
X96825000Y-90000000D03*
%TD*%
%TO.P,J6,1,Pin_1*%
%TO.N,/SCLK*%
X101905000Y-90000000D03*
%TD*%
%TO.P,J3,1,Pin_1*%
%TO.N,unconnected-(J3-Pin_1-Pad1)*%
X98095000Y-90000000D03*
%TD*%
D12*
%TO.P,C11,1*%
%TO.N,/VCAP4*%
X101900000Y-94880000D03*
%TO.P,C11,2*%
%TO.N,GND*%
X101900000Y-93920000D03*
%TD*%
D13*
%TO.P,C13,1*%
%TO.N,/VREFP*%
X102980000Y-96250000D03*
%TO.P,C13,2*%
%TO.N,GND*%
X102020000Y-96250000D03*
%TD*%
%TO.P,C14,1*%
%TO.N,/VREFP*%
X102980000Y-97350000D03*
%TO.P,C14,2*%
%TO.N,GND*%
X102020000Y-97350000D03*
%TD*%
%TO.P,C1,1*%
%TO.N,+3.3V*%
X95500000Y-91450000D03*
%TO.P,C1,2*%
%TO.N,GND*%
X94540000Y-91450000D03*
%TD*%
D14*
%TO.P,C3,1*%
%TO.N,GND*%
X99070000Y-91800000D03*
%TO.P,C3,2*%
%TO.N,+3.3V*%
X100030000Y-91800000D03*
%TD*%
%TO.P,C10,1*%
%TO.N,/WCT*%
X100120000Y-97300000D03*
%TO.P,C10,2*%
%TO.N,GND*%
X101080000Y-97300000D03*
%TD*%
D15*
%TO.P,U1,1,VIN*%
%TO.N,+3.3V*%
X93520000Y-92980000D03*
%TO.P,U1,2,GND*%
%TO.N,GND*%
X94470000Y-92980000D03*
%TO.P,U1,3,EN*%
%TO.N,+3.3V*%
X95420000Y-92980000D03*
%TO.P,U1,4*%
%TO.N,N/C*%
X95420000Y-95350000D03*
%TO.P,U1,5,VOUT*%
%TO.N,+3.3VA*%
X93520000Y-95350000D03*
%TD*%
D16*
%TO.P,C5,1*%
%TO.N,/VCAP3*%
X99700000Y-93820000D03*
%TO.P,C5,2*%
%TO.N,GND*%
X99700000Y-94780000D03*
%TD*%
D14*
%TO.P,C7,1*%
%TO.N,/BIAS_OUT*%
X97370000Y-97650000D03*
%TO.P,C7,2*%
%TO.N,/BIAS_INV*%
X98330000Y-97650000D03*
%TD*%
D13*
%TO.P,R1,1*%
%TO.N,/BIAS_INV*%
X98330000Y-96450000D03*
%TO.P,R1,2*%
%TO.N,/BIAS_OUT*%
X97370000Y-96450000D03*
%TD*%
D14*
%TO.P,C4,1*%
%TO.N,GND*%
X99070000Y-92800000D03*
%TO.P,C4,2*%
%TO.N,+3.3V*%
X100030000Y-92800000D03*
%TD*%
D13*
%TO.P,C8,1*%
%TO.N,+3.3VA*%
X98268213Y-93915168D03*
%TO.P,C8,2*%
%TO.N,GND*%
X97308213Y-93915168D03*
%TD*%
D16*
%TO.P,C15,1*%
%TO.N,/VCAP1*%
X103000000Y-93920000D03*
%TO.P,C15,2*%
%TO.N,GND*%
X103000000Y-94880000D03*
%TD*%
D13*
%TO.P,C9,1*%
%TO.N,+3.3VA*%
X98268213Y-94915168D03*
%TO.P,C9,2*%
%TO.N,GND*%
X97308213Y-94915168D03*
%TD*%
%TO.P,C12,1*%
%TO.N,/VCAP2*%
X102880000Y-92600000D03*
%TO.P,C12,2*%
%TO.N,GND*%
X101920000Y-92600000D03*
%TD*%
D16*
%TO.P,C6,1*%
%TO.N,/VCAP3*%
X100700000Y-93820000D03*
%TO.P,C6,2*%
%TO.N,GND*%
X100700000Y-94780000D03*
%TD*%
D17*
%TO.N,+3.3V*%
X104850000Y-94750000D03*
X96350000Y-94600000D03*
X104250000Y-91800000D03*
X99500000Y-91200000D03*
%TO.N,GND*%
X106000000Y-97430000D03*
X96600000Y-92400000D03*
X96350000Y-91750000D03*
X94470000Y-92900000D03*
X99150000Y-94650000D03*
X103650000Y-95300000D03*
X99200000Y-93150000D03*
%TO.N,+3.3VA*%
X94300000Y-95200000D03*
X97550000Y-93200000D03*
%TO.N,/MOSI*%
X103550000Y-91100000D03*
%TO.N,/in7-*%
X96400000Y-98600000D03*
%TO.N,/in2-*%
X103400000Y-98400000D03*
%TO.N,/in6-*%
X97700000Y-98600000D03*
%TO.N,/in1-*%
X104600000Y-97900000D03*
%TO.N,/in8-*%
X95300000Y-97700000D03*
%TO.N,/in5-*%
X99300000Y-98400000D03*
%TO.N,/in4-*%
X100700000Y-98400000D03*
%TO.N,/in3-*%
X101900000Y-98500000D03*
%TO.N,/BIAS_OUT*%
X96400000Y-95550000D03*
%TO.N,/BIAS_INV*%
X99150000Y-95600000D03*
%TO.N,/WCT*%
X99900000Y-95600000D03*
%TO.N,/VCAP4*%
X101650000Y-95600001D03*
%TO.N,/VCAP2*%
X103750000Y-93550000D03*
%TO.N,/VREFP*%
X103650000Y-95950000D03*
%TO.N,/VCAP1*%
X103750000Y-94200000D03*
%TO.N,/VCAP3*%
X98350000Y-93050000D03*
%TD*%
D18*
%TO.N,+3.3V*%
X95420000Y-93670000D02*
X96350000Y-94600000D01*
X104850000Y-94750000D02*
X104850000Y-92400000D01*
X104850000Y-92400000D02*
X104250000Y-91800000D01*
X94050000Y-94050000D02*
X95050000Y-94050000D01*
X95420000Y-92980000D02*
X95420000Y-93670000D01*
X93520000Y-92980000D02*
X93520000Y-93520000D01*
X95050000Y-94050000D02*
X95420000Y-93680000D01*
X95750000Y-91200000D02*
X99500000Y-91200000D01*
X95500000Y-91450000D02*
X95500000Y-92900000D01*
X100030000Y-91800000D02*
X100030000Y-92800000D01*
X100030000Y-91730000D02*
X100030000Y-91800000D01*
X99500000Y-91200000D02*
X100030000Y-91730000D01*
X95555000Y-90000000D02*
X95555000Y-91395000D01*
X95500000Y-92900000D02*
X95420000Y-92980000D01*
X93520000Y-93520000D02*
X94050000Y-94050000D01*
X95555000Y-91395000D02*
X95500000Y-91450000D01*
X95500000Y-91450000D02*
X95750000Y-91200000D01*
X95420000Y-93680000D02*
X95420000Y-92980000D01*
X104250000Y-91800000D02*
X100030000Y-91800000D01*
%TO.N,GND*%
X102020000Y-97350000D02*
X102020000Y-96250000D01*
X94470000Y-92980000D02*
X94470000Y-92900000D01*
X100700000Y-94780000D02*
X99700000Y-94780000D01*
X99070000Y-91800000D02*
X99070000Y-92800000D01*
X99200000Y-93150000D02*
X99200000Y-92930000D01*
X99470000Y-94780000D02*
X99700000Y-94780000D01*
X99150000Y-94900000D02*
X99250000Y-95000000D01*
X97893045Y-95500000D02*
X98550000Y-95500000D01*
X99200000Y-92930000D02*
X99070000Y-92800000D01*
X101350000Y-95250000D02*
X101350000Y-94470000D01*
X101080000Y-97300000D02*
X101970000Y-97300000D01*
X101920000Y-93900000D02*
X101900000Y-93920000D01*
X99020000Y-91750000D02*
X99070000Y-91800000D01*
X94470000Y-91520000D02*
X94540000Y-91450000D01*
X94470000Y-92900000D02*
X94470000Y-91520000D01*
X99250000Y-95000000D02*
X99470000Y-94780000D01*
X101080000Y-95520000D02*
X101350000Y-95250000D01*
X96350000Y-91750000D02*
X99020000Y-91750000D01*
X98550000Y-95500000D02*
X99150000Y-94900000D01*
X101350000Y-94470000D02*
X101900000Y-93920000D01*
X99150000Y-94650000D02*
X99150000Y-94900000D01*
X100700000Y-94780000D02*
X101040000Y-94780000D01*
X96600000Y-93206955D02*
X96600000Y-92400000D01*
X101970000Y-97300000D02*
X102020000Y-97350000D01*
X97308213Y-94915168D02*
X97893045Y-95500000D01*
X102020000Y-96250000D02*
X102020000Y-95860000D01*
X103230000Y-94880000D02*
X103000000Y-94880000D01*
X101080000Y-97300000D02*
X101080000Y-95520000D01*
X97308213Y-94915168D02*
X97308213Y-93915168D01*
X103650000Y-95300000D02*
X103230000Y-94880000D01*
X101920000Y-92600000D02*
X101920000Y-93900000D01*
X101040000Y-94780000D02*
X101350000Y-94470000D01*
X97308213Y-93915168D02*
X96600000Y-93206955D01*
X102020000Y-95860000D02*
X103000000Y-94880000D01*
%TO.N,+3.3VA*%
X98265168Y-93915168D02*
X98268213Y-93915168D01*
X98268213Y-94915168D02*
X98268213Y-93915168D01*
X97550000Y-93200000D02*
X98265168Y-93915168D01*
X93520000Y-95350000D02*
X94150000Y-95350000D01*
X94150000Y-95350000D02*
X94300000Y-95200000D01*
%TO.N,/MOSI*%
X101735000Y-91100000D02*
X100635000Y-90000000D01*
X103550000Y-91100000D02*
X101735000Y-91100000D01*
%TO.N,/in7-*%
X96400000Y-99350000D02*
X96250000Y-99500000D01*
X96400000Y-98600000D02*
X96400000Y-99350000D01*
%TO.N,/in2-*%
X103400000Y-99150000D02*
X103750000Y-99500000D01*
X103400000Y-98400000D02*
X103400000Y-99150000D01*
%TO.N,/in6-*%
X97700000Y-98600000D02*
X97750000Y-98650000D01*
X97750000Y-99608799D02*
X98055001Y-99913800D01*
X97750000Y-98650000D02*
X97750000Y-99608799D01*
%TO.N,/in1-*%
X104600000Y-97900000D02*
X104600000Y-98850000D01*
X104600000Y-98850000D02*
X105250000Y-99500000D01*
%TO.N,/in8-*%
X95300000Y-98950000D02*
X94750000Y-99500000D01*
X95300000Y-97700000D02*
X95300000Y-98950000D01*
%TO.N,/in5-*%
X99300000Y-98400000D02*
X99305003Y-98405003D01*
X99305003Y-98405003D02*
X99305003Y-99913800D01*
%TO.N,/in4-*%
X100700000Y-98400000D02*
X100700000Y-99768800D01*
X100700000Y-99768800D02*
X100555001Y-99913799D01*
%TO.N,/in3-*%
X101805001Y-98594999D02*
X101805001Y-99913799D01*
X101900000Y-98500000D02*
X101805001Y-98594999D01*
%TO.N,/BIAS_OUT*%
X94200000Y-96730000D02*
X95420000Y-96730000D01*
X96470000Y-95550000D02*
X97370000Y-96450000D01*
X96400000Y-95550000D02*
X96470000Y-95550000D01*
X95420000Y-96730000D02*
X96400000Y-95750000D01*
X96400000Y-95750000D02*
X96400000Y-95550000D01*
X97370000Y-97650000D02*
X97370000Y-96450000D01*
%TO.N,/BIAS_INV*%
X98330000Y-96450000D02*
X99150000Y-95630000D01*
X98330000Y-97650000D02*
X98330000Y-96450000D01*
X99150000Y-95630000D02*
X99150000Y-95600000D01*
%TO.N,/WCT*%
X100120000Y-95820000D02*
X100120000Y-97300000D01*
X99900000Y-95600000D02*
X100120000Y-95820000D01*
%TO.N,/VCAP4*%
X101650000Y-95600001D02*
X101900000Y-95350001D01*
X101900000Y-95350001D02*
X101900000Y-94880000D01*
%TO.N,/VCAP2*%
X103750000Y-93470000D02*
X102880000Y-92600000D01*
X103750000Y-93550000D02*
X103750000Y-93470000D01*
%TO.N,/VREFP*%
X102980000Y-97350000D02*
X102980000Y-96250000D01*
X103350000Y-96250000D02*
X102980000Y-96250000D01*
X103650000Y-95950000D02*
X103350000Y-96250000D01*
%TO.N,/VCAP1*%
X103750000Y-94200000D02*
X103470000Y-93920000D01*
X103470000Y-93920000D02*
X103000000Y-93920000D01*
%TO.N,/VCAP3*%
X99170000Y-93820000D02*
X99700000Y-93820000D01*
X98350000Y-93050000D02*
X98400000Y-93050000D01*
X100700000Y-93820000D02*
X99700000Y-93820000D01*
X98400000Y-93050000D02*
X99170000Y-93820000D01*
%TD*%
%TA.AperFunction,Conductor*%
%TO.N,GND*%
G36*
X95039910Y-89030184D02*
G01*
X95085665Y-89082988D01*
X95095609Y-89152146D01*
X95066584Y-89215702D01*
X95007806Y-89253476D01*
X94997062Y-89256116D01*
X94957264Y-89264032D01*
X94957260Y-89264033D01*
X94874399Y-89319399D01*
X94819033Y-89402260D01*
X94819032Y-89402264D01*
X94804500Y-89475321D01*
X94804500Y-89475326D01*
X94804500Y-90524674D01*
X94804500Y-90524676D01*
X94804499Y-90524676D01*
X94808306Y-90543813D01*
X94802077Y-90613404D01*
X94790000Y-90629263D01*
X94790000Y-92181638D01*
X94770315Y-92248677D01*
X94753681Y-92269319D01*
X94720000Y-92303000D01*
X94720000Y-93106000D01*
X94700315Y-93173039D01*
X94647511Y-93218794D01*
X94596000Y-93230000D01*
X94344000Y-93230000D01*
X94276961Y-93210315D01*
X94231206Y-93157511D01*
X94220000Y-93106000D01*
X94220000Y-91883362D01*
X94239685Y-91816323D01*
X94256319Y-91795681D01*
X94290000Y-91762000D01*
X94290000Y-91700000D01*
X93761210Y-91700000D01*
X93762854Y-91720910D01*
X93807969Y-91876198D01*
X93810159Y-91881259D01*
X93818715Y-91950602D01*
X93788422Y-92013564D01*
X93728899Y-92050153D01*
X93696355Y-92054500D01*
X93233651Y-92054500D01*
X93233627Y-92054502D01*
X93207685Y-92057510D01*
X93207675Y-92057513D01*
X93101486Y-92104400D01*
X93019401Y-92186485D01*
X92972512Y-92292678D01*
X92969500Y-92318639D01*
X92969500Y-93641348D01*
X92969502Y-93641372D01*
X92972510Y-93667314D01*
X92972513Y-93667324D01*
X93019400Y-93773513D01*
X93019401Y-93773514D01*
X93101486Y-93855599D01*
X93207680Y-93902488D01*
X93233643Y-93905500D01*
X93410073Y-93905499D01*
X93477113Y-93925183D01*
X93497755Y-93941818D01*
X93768756Y-94212819D01*
X93802241Y-94274142D01*
X93797257Y-94343834D01*
X93755385Y-94399767D01*
X93689921Y-94424184D01*
X93681075Y-94424500D01*
X93233651Y-94424500D01*
X93233627Y-94424502D01*
X93207685Y-94427510D01*
X93207675Y-94427513D01*
X93101486Y-94474400D01*
X93019401Y-94556485D01*
X92972512Y-94662678D01*
X92969500Y-94688639D01*
X92969500Y-96011348D01*
X92969502Y-96011372D01*
X92972510Y-96037314D01*
X92972513Y-96037324D01*
X93019400Y-96143513D01*
X93019401Y-96143514D01*
X93101486Y-96225599D01*
X93207680Y-96272488D01*
X93233643Y-96275500D01*
X93325500Y-96275499D01*
X93392538Y-96295183D01*
X93438294Y-96347986D01*
X93449500Y-96399499D01*
X93449500Y-97254674D01*
X93449500Y-97254676D01*
X93449499Y-97254676D01*
X93466416Y-97339717D01*
X93462291Y-97340537D01*
X93467264Y-97387103D01*
X93466335Y-97390266D01*
X93466416Y-97390283D01*
X93449500Y-97475323D01*
X93449500Y-98524678D01*
X93464032Y-98597735D01*
X93464033Y-98597739D01*
X93472399Y-98610259D01*
X93519399Y-98680601D01*
X93581086Y-98721818D01*
X93602260Y-98735966D01*
X93602264Y-98735967D01*
X93675321Y-98750499D01*
X93675324Y-98750500D01*
X93675326Y-98750500D01*
X93999583Y-98750500D01*
X94066622Y-98770185D01*
X94112377Y-98822989D01*
X94122321Y-98892147D01*
X94102686Y-98943390D01*
X94056591Y-99012376D01*
X94056585Y-99012387D01*
X94018439Y-99104481D01*
X94010741Y-99143179D01*
X93999409Y-99200154D01*
X93999408Y-99200159D01*
X93999407Y-99200167D01*
X93994500Y-99250000D01*
X93994500Y-99437095D01*
X93993238Y-99454740D01*
X93991959Y-99463633D01*
X93991959Y-99536362D01*
X93993238Y-99545257D01*
X93994500Y-99562903D01*
X93994500Y-99865499D01*
X93974815Y-99932538D01*
X93922011Y-99978293D01*
X93870500Y-99989499D01*
X93256090Y-99989499D01*
X93243937Y-99988902D01*
X93117887Y-99976488D01*
X93094044Y-99971745D01*
X92978689Y-99936752D01*
X92956232Y-99927450D01*
X92849928Y-99870629D01*
X92829716Y-99857124D01*
X92736535Y-99780652D01*
X92719347Y-99763464D01*
X92642875Y-99670283D01*
X92629370Y-99650071D01*
X92600959Y-99596919D01*
X92572548Y-99543764D01*
X92563247Y-99521310D01*
X92528254Y-99405955D01*
X92523512Y-99382118D01*
X92511097Y-99256060D01*
X92510500Y-99243907D01*
X92510500Y-91199999D01*
X93761209Y-91199999D01*
X93761210Y-91200000D01*
X94290000Y-91200000D01*
X94290000Y-90645494D01*
X94289998Y-90645493D01*
X94143809Y-90687965D01*
X94143806Y-90687967D01*
X94004625Y-90770278D01*
X94004616Y-90770285D01*
X93890285Y-90884616D01*
X93890278Y-90884625D01*
X93807968Y-91023804D01*
X93807966Y-91023809D01*
X93762855Y-91179081D01*
X93762854Y-91179087D01*
X93761209Y-91199999D01*
X92510500Y-91199999D01*
X92510500Y-90000000D01*
X93234250Y-90000000D01*
X93255140Y-90145302D01*
X93255141Y-90145307D01*
X93316121Y-90278832D01*
X93316123Y-90278836D01*
X93412256Y-90389778D01*
X93535750Y-90469143D01*
X93535751Y-90469143D01*
X93535752Y-90469144D01*
X93676598Y-90510499D01*
X93676600Y-90510500D01*
X93676601Y-90510500D01*
X93823400Y-90510500D01*
X93823400Y-90510499D01*
X93964250Y-90469143D01*
X94087744Y-90389778D01*
X94183877Y-90278836D01*
X94244859Y-90145304D01*
X94265750Y-90000000D01*
X94244859Y-89854696D01*
X94244858Y-89854695D01*
X94244858Y-89854692D01*
X94195060Y-89745651D01*
X94183877Y-89721164D01*
X94087744Y-89610222D01*
X93964250Y-89530857D01*
X93964249Y-89530856D01*
X93964248Y-89530856D01*
X93964247Y-89530855D01*
X93823401Y-89489500D01*
X93823399Y-89489500D01*
X93676601Y-89489500D01*
X93676598Y-89489500D01*
X93535752Y-89530855D01*
X93535751Y-89530856D01*
X93412258Y-89610220D01*
X93412254Y-89610223D01*
X93316124Y-89721162D01*
X93316121Y-89721167D01*
X93255141Y-89854692D01*
X93255140Y-89854697D01*
X93234250Y-90000000D01*
X92510500Y-90000000D01*
X92510500Y-89756091D01*
X92511097Y-89743938D01*
X92517877Y-89675096D01*
X92523512Y-89617879D01*
X92528254Y-89594044D01*
X92528255Y-89594043D01*
X92563247Y-89478689D01*
X92572549Y-89456233D01*
X92629371Y-89349926D01*
X92642875Y-89329716D01*
X92651342Y-89319399D01*
X92719350Y-89236531D01*
X92736531Y-89219350D01*
X92829717Y-89142873D01*
X92849928Y-89129370D01*
X92849930Y-89129369D01*
X92956238Y-89072546D01*
X92978689Y-89063247D01*
X92987323Y-89060627D01*
X93094046Y-89028253D01*
X93117879Y-89023512D01*
X93235524Y-89011925D01*
X93243939Y-89011097D01*
X93256092Y-89010500D01*
X93304766Y-89010500D01*
X93304775Y-89010499D01*
X94972871Y-89010499D01*
X95039910Y-89030184D01*
G37*
%TD.AperFunction*%
%TA.AperFunction,Conductor*%
G36*
X106756061Y-89011096D02*
G01*
X106765633Y-89012038D01*
X106882118Y-89023511D01*
X106905948Y-89028250D01*
X107021313Y-89063246D01*
X107043761Y-89072545D01*
X107150072Y-89129369D01*
X107170282Y-89142873D01*
X107263464Y-89219344D01*
X107280654Y-89236534D01*
X107357124Y-89329714D01*
X107370628Y-89349924D01*
X107427452Y-89456233D01*
X107436754Y-89478689D01*
X107452579Y-89530857D01*
X107471747Y-89594043D01*
X107476489Y-89617885D01*
X107488903Y-89743926D01*
X107489500Y-89756080D01*
X107489500Y-99243906D01*
X107488903Y-99256060D01*
X107476488Y-99382112D01*
X107471746Y-99405953D01*
X107436753Y-99521309D01*
X107427450Y-99543767D01*
X107370629Y-99650072D01*
X107357124Y-99670284D01*
X107280653Y-99763464D01*
X107263465Y-99780652D01*
X107170284Y-99857124D01*
X107150072Y-99870629D01*
X107043768Y-99927450D01*
X107021310Y-99936753D01*
X106905954Y-99971746D01*
X106882113Y-99976488D01*
X106756072Y-99988902D01*
X106743918Y-99989499D01*
X106129500Y-99989499D01*
X106062461Y-99969814D01*
X106016706Y-99917010D01*
X106005500Y-99865499D01*
X106005500Y-99562903D01*
X106006762Y-99545257D01*
X106006976Y-99543767D01*
X106008041Y-99536361D01*
X106008041Y-99463637D01*
X106006762Y-99454740D01*
X106005500Y-99437095D01*
X106005500Y-99250000D01*
X106000592Y-99200167D01*
X106000591Y-99200154D01*
X105981561Y-99104483D01*
X105943411Y-99012380D01*
X105889218Y-98931274D01*
X105889217Y-98931273D01*
X105889216Y-98931271D01*
X105818727Y-98860782D01*
X105737622Y-98806590D01*
X105737621Y-98806589D01*
X105737619Y-98806588D01*
X105737616Y-98806586D01*
X105737611Y-98806584D01*
X105645517Y-98768438D01*
X105645518Y-98768438D01*
X105613999Y-98762169D01*
X105549845Y-98749408D01*
X105549835Y-98749407D01*
X105549830Y-98749406D01*
X105549831Y-98749406D01*
X105509006Y-98745386D01*
X105500000Y-98744499D01*
X105038000Y-98744499D01*
X104970961Y-98724814D01*
X104925206Y-98672010D01*
X104914000Y-98620499D01*
X104914000Y-98271806D01*
X104933685Y-98204767D01*
X104944288Y-98190603D01*
X104982879Y-98146067D01*
X104982879Y-98146065D01*
X104982882Y-98146063D01*
X105036697Y-98028226D01*
X105055133Y-97900000D01*
X105036697Y-97771774D01*
X104982882Y-97653937D01*
X104898049Y-97556033D01*
X104789069Y-97485996D01*
X104789065Y-97485994D01*
X104789064Y-97485994D01*
X104664774Y-97449500D01*
X104664772Y-97449500D01*
X104535228Y-97449500D01*
X104535226Y-97449500D01*
X104410935Y-97485994D01*
X104410932Y-97485995D01*
X104410931Y-97485996D01*
X104359677Y-97518934D01*
X104301950Y-97556033D01*
X104217118Y-97653937D01*
X104217117Y-97653938D01*
X104163302Y-97771774D01*
X104144867Y-97900000D01*
X104163302Y-98028225D01*
X104217117Y-98146061D01*
X104217120Y-98146067D01*
X104255712Y-98190603D01*
X104284738Y-98254158D01*
X104286000Y-98271806D01*
X104286000Y-98645287D01*
X104266315Y-98712326D01*
X104213511Y-98758081D01*
X104144353Y-98768025D01*
X104137810Y-98766905D01*
X104090647Y-98757524D01*
X104049845Y-98749408D01*
X104049841Y-98749407D01*
X104049833Y-98749406D01*
X104009006Y-98745386D01*
X104000000Y-98744499D01*
X103999998Y-98744499D01*
X103930876Y-98744499D01*
X103863837Y-98724814D01*
X103818082Y-98672010D01*
X103808138Y-98602852D01*
X103818082Y-98568988D01*
X103827887Y-98547514D01*
X103836697Y-98528226D01*
X103855133Y-98400000D01*
X103836697Y-98271774D01*
X103782882Y-98153937D01*
X103698049Y-98056033D01*
X103589069Y-97985996D01*
X103589067Y-97985995D01*
X103589065Y-97985994D01*
X103493670Y-97957984D01*
X103434892Y-97920210D01*
X103405867Y-97856654D01*
X103415811Y-97787496D01*
X103434506Y-97760570D01*
X103434120Y-97760290D01*
X103439851Y-97752398D01*
X103439859Y-97752391D01*
X103496017Y-97642175D01*
X103496017Y-97642173D01*
X103496018Y-97642172D01*
X103496018Y-97642171D01*
X103503937Y-97592170D01*
X103510500Y-97550735D01*
X103510499Y-97149266D01*
X103510499Y-97149265D01*
X103510499Y-97149260D01*
X103496018Y-97057829D01*
X103496018Y-97057828D01*
X103496017Y-97057826D01*
X103496017Y-97057825D01*
X103439859Y-96947609D01*
X103439857Y-96947607D01*
X103439854Y-96947603D01*
X103379931Y-96887680D01*
X103346446Y-96826357D01*
X103351430Y-96756665D01*
X103379928Y-96712321D01*
X103439859Y-96652391D01*
X103489377Y-96555205D01*
X103537352Y-96504410D01*
X103537867Y-96504111D01*
X103538407Y-96503799D01*
X103542800Y-96501263D01*
X103607245Y-96436817D01*
X103668566Y-96403334D01*
X103694925Y-96400500D01*
X103714773Y-96400500D01*
X103714773Y-96400499D01*
X103839069Y-96364004D01*
X103948049Y-96293967D01*
X104032882Y-96196063D01*
X104086697Y-96078226D01*
X104105133Y-95950000D01*
X104086697Y-95821774D01*
X104032882Y-95703937D01*
X103948049Y-95606033D01*
X103839069Y-95535996D01*
X103839065Y-95535994D01*
X103839064Y-95535994D01*
X103795450Y-95523188D01*
X103736672Y-95485414D01*
X103707646Y-95421859D01*
X103717589Y-95352700D01*
X103723653Y-95341089D01*
X103762030Y-95276197D01*
X103762031Y-95276195D01*
X103804504Y-95130000D01*
X102874000Y-95130000D01*
X102806961Y-95110315D01*
X102761206Y-95057511D01*
X102750000Y-95006000D01*
X102750000Y-94754000D01*
X102769685Y-94686961D01*
X102822489Y-94641206D01*
X102874000Y-94630000D01*
X103597583Y-94630000D01*
X103632515Y-94635022D01*
X103685228Y-94650500D01*
X103814773Y-94650500D01*
X103814773Y-94650499D01*
X103939069Y-94614004D01*
X104048049Y-94543967D01*
X104132882Y-94446063D01*
X104186697Y-94328226D01*
X104205133Y-94200000D01*
X104186697Y-94071774D01*
X104132882Y-93953937D01*
X104132879Y-93953934D01*
X104128087Y-93946476D01*
X104129877Y-93945325D01*
X104105821Y-93892652D01*
X104115762Y-93823493D01*
X104128446Y-93803754D01*
X104128087Y-93803524D01*
X104132877Y-93796068D01*
X104132882Y-93796063D01*
X104186697Y-93678226D01*
X104205133Y-93550000D01*
X104186697Y-93421774D01*
X104132882Y-93303937D01*
X104048049Y-93206033D01*
X103939069Y-93135996D01*
X103939065Y-93135994D01*
X103939064Y-93135994D01*
X103857584Y-93112070D01*
X103804837Y-93080774D01*
X103446818Y-92722755D01*
X103413333Y-92661432D01*
X103410499Y-92635074D01*
X103410499Y-92399260D01*
X103396018Y-92307829D01*
X103396017Y-92307826D01*
X103396017Y-92307825D01*
X103389122Y-92294294D01*
X103376226Y-92225627D01*
X103402502Y-92160886D01*
X103459608Y-92120629D01*
X103499607Y-92114000D01*
X103871117Y-92114000D01*
X103938156Y-92133685D01*
X103951535Y-92143699D01*
X103951949Y-92143965D01*
X103951951Y-92143967D01*
X104060931Y-92214004D01*
X104185225Y-92250499D01*
X104185227Y-92250500D01*
X104185228Y-92250500D01*
X104205075Y-92250500D01*
X104272114Y-92270185D01*
X104292756Y-92286819D01*
X104499681Y-92493744D01*
X104533166Y-92555067D01*
X104536000Y-92581425D01*
X104536000Y-94378192D01*
X104516315Y-94445231D01*
X104505717Y-94459390D01*
X104483999Y-94484454D01*
X104467116Y-94503939D01*
X104413302Y-94621774D01*
X104394867Y-94750000D01*
X104413302Y-94878225D01*
X104450459Y-94959586D01*
X104467118Y-94996063D01*
X104551951Y-95093967D01*
X104660931Y-95164004D01*
X104785225Y-95200499D01*
X104785227Y-95200500D01*
X104785228Y-95200500D01*
X104914773Y-95200500D01*
X104914773Y-95200499D01*
X105039069Y-95164004D01*
X105148049Y-95093967D01*
X105232882Y-94996063D01*
X105286697Y-94878226D01*
X105305133Y-94750000D01*
X105286697Y-94621774D01*
X105232882Y-94503937D01*
X105194284Y-94459392D01*
X105165262Y-94395836D01*
X105164000Y-94378192D01*
X105164000Y-92358662D01*
X105153272Y-92318627D01*
X105142601Y-92278801D01*
X105142601Y-92278800D01*
X105101263Y-92207199D01*
X104736174Y-91842111D01*
X104702690Y-91780789D01*
X104701118Y-91772077D01*
X104696818Y-91742172D01*
X104686697Y-91671774D01*
X104632882Y-91553937D01*
X104548049Y-91456033D01*
X104439069Y-91385996D01*
X104439065Y-91385994D01*
X104439064Y-91385994D01*
X104314774Y-91349500D01*
X104314772Y-91349500D01*
X104185228Y-91349500D01*
X104185227Y-91349500D01*
X104144870Y-91361349D01*
X104075001Y-91361347D01*
X104016223Y-91323572D01*
X103987200Y-91260016D01*
X103987200Y-91224727D01*
X104005133Y-91100000D01*
X103986697Y-90971774D01*
X103965798Y-90926012D01*
X103955854Y-90856853D01*
X103984879Y-90793297D01*
X104043657Y-90755523D01*
X104078592Y-90750500D01*
X104969676Y-90750500D01*
X104969677Y-90750499D01*
X105042740Y-90735966D01*
X105125601Y-90680601D01*
X105180966Y-90597740D01*
X105195500Y-90524674D01*
X105195500Y-90000000D01*
X105734250Y-90000000D01*
X105755140Y-90145302D01*
X105755141Y-90145307D01*
X105816121Y-90278832D01*
X105816123Y-90278836D01*
X105912256Y-90389778D01*
X106035750Y-90469143D01*
X106035751Y-90469143D01*
X106035752Y-90469144D01*
X106176598Y-90510499D01*
X106176600Y-90510500D01*
X106176601Y-90510500D01*
X106323400Y-90510500D01*
X106323400Y-90510499D01*
X106464250Y-90469143D01*
X106587744Y-90389778D01*
X106683877Y-90278836D01*
X106744859Y-90145304D01*
X106765750Y-90000000D01*
X106744859Y-89854696D01*
X106744858Y-89854695D01*
X106744858Y-89854692D01*
X106695060Y-89745651D01*
X106683877Y-89721164D01*
X106587744Y-89610222D01*
X106464250Y-89530857D01*
X106464249Y-89530856D01*
X106464248Y-89530856D01*
X106464247Y-89530855D01*
X106323401Y-89489500D01*
X106323399Y-89489500D01*
X106176601Y-89489500D01*
X106176598Y-89489500D01*
X106035752Y-89530855D01*
X106035751Y-89530856D01*
X105912258Y-89610220D01*
X105912254Y-89610223D01*
X105816124Y-89721162D01*
X105816121Y-89721167D01*
X105755141Y-89854692D01*
X105755140Y-89854697D01*
X105734250Y-90000000D01*
X105195500Y-90000000D01*
X105195500Y-89475326D01*
X105195500Y-89475323D01*
X105195499Y-89475321D01*
X105180967Y-89402264D01*
X105180966Y-89402260D01*
X105172619Y-89389768D01*
X105125601Y-89319399D01*
X105044499Y-89265209D01*
X105042739Y-89264033D01*
X105042735Y-89264032D01*
X105002938Y-89256116D01*
X104941027Y-89223731D01*
X104906452Y-89163015D01*
X104910192Y-89093246D01*
X104951059Y-89036574D01*
X105016077Y-89010993D01*
X105027129Y-89010499D01*
X106743908Y-89010499D01*
X106756061Y-89011096D01*
G37*
%TD.AperFunction*%
%TA.AperFunction,Conductor*%
G36*
X100893039Y-94549685D02*
G01*
X100938794Y-94602489D01*
X100950000Y-94654000D01*
X100950000Y-95558789D01*
X100970911Y-95557145D01*
X101042945Y-95536217D01*
X101112815Y-95536416D01*
X101171485Y-95574358D01*
X101200279Y-95637646D01*
X101213302Y-95728226D01*
X101256779Y-95823424D01*
X101266723Y-95892582D01*
X101263062Y-95909529D01*
X101242856Y-95979082D01*
X101242854Y-95979091D01*
X101241209Y-95999999D01*
X101241210Y-96000000D01*
X101403290Y-96000000D01*
X101454804Y-96011207D01*
X101460933Y-96014006D01*
X101540350Y-96037324D01*
X101581018Y-96049265D01*
X101585225Y-96050500D01*
X101585227Y-96050501D01*
X101585228Y-96050501D01*
X101714773Y-96050501D01*
X101714773Y-96050500D01*
X101819724Y-96019685D01*
X101839066Y-96014006D01*
X101839066Y-96014005D01*
X101839069Y-96014005D01*
X101839070Y-96014003D01*
X101845196Y-96011207D01*
X101896710Y-96000000D01*
X102146000Y-96000000D01*
X102213039Y-96019685D01*
X102258794Y-96072489D01*
X102270000Y-96124000D01*
X102270000Y-97476000D01*
X102250315Y-97543039D01*
X102197511Y-97588794D01*
X102146000Y-97600000D01*
X101298362Y-97600000D01*
X101231323Y-97580315D01*
X101210681Y-97563681D01*
X101197000Y-97550000D01*
X100954000Y-97550000D01*
X100886961Y-97530315D01*
X100841206Y-97477511D01*
X100830000Y-97426000D01*
X100830000Y-96500000D01*
X101330000Y-96500000D01*
X101330000Y-97050000D01*
X101770000Y-97050000D01*
X101770000Y-96500000D01*
X101330000Y-96500000D01*
X100830000Y-96500000D01*
X100830000Y-96495494D01*
X100829998Y-96495493D01*
X100683809Y-96537965D01*
X100683806Y-96537967D01*
X100621121Y-96575039D01*
X100553397Y-96592222D01*
X100487134Y-96570062D01*
X100443371Y-96515596D01*
X100434000Y-96468307D01*
X100434000Y-95778662D01*
X100412601Y-95698801D01*
X100412601Y-95698800D01*
X100409337Y-95686619D01*
X100410998Y-95616769D01*
X100444939Y-95563468D01*
X100450000Y-95558789D01*
X100450000Y-95030000D01*
X99574000Y-95030000D01*
X99506961Y-95010315D01*
X99461206Y-94957511D01*
X99450000Y-94906000D01*
X99450000Y-94654000D01*
X99469685Y-94586961D01*
X99522489Y-94541206D01*
X99574000Y-94530000D01*
X100826000Y-94530000D01*
X100893039Y-94549685D01*
G37*
%TD.AperFunction*%
%TA.AperFunction,Conductor*%
G36*
X98664137Y-95493940D02*
G01*
X98694968Y-95556639D01*
X98695522Y-95595440D01*
X98693843Y-95607116D01*
X98664817Y-95670671D01*
X98658787Y-95677147D01*
X98482754Y-95853181D01*
X98421431Y-95886666D01*
X98395074Y-95889500D01*
X98159260Y-95889500D01*
X98159260Y-95889501D01*
X98067829Y-95903981D01*
X98067828Y-95903981D01*
X97957607Y-95960142D01*
X97957603Y-95960145D01*
X97937681Y-95980068D01*
X97876358Y-96013553D01*
X97806666Y-96008569D01*
X97762319Y-95980068D01*
X97742396Y-95960145D01*
X97742387Y-95960138D01*
X97653997Y-95915101D01*
X97603201Y-95867127D01*
X97586406Y-95799306D01*
X97608944Y-95733171D01*
X97663659Y-95689720D01*
X97675699Y-95685540D01*
X97704406Y-95677200D01*
X97704408Y-95677199D01*
X97843587Y-95594889D01*
X97843592Y-95594885D01*
X97936546Y-95501931D01*
X97997869Y-95468446D01*
X98043623Y-95467138D01*
X98097478Y-95475668D01*
X98438947Y-95475667D01*
X98438952Y-95475667D01*
X98438952Y-95475666D01*
X98530388Y-95461185D01*
X98530393Y-95461182D01*
X98534461Y-95459861D01*
X98539698Y-95459711D01*
X98540027Y-95459659D01*
X98540033Y-95459701D01*
X98604302Y-95457862D01*
X98664137Y-95493940D01*
G37*
%TD.AperFunction*%
%TA.AperFunction,Conductor*%
G36*
X98270731Y-91533685D02*
G01*
X98290183Y-91550000D01*
X99174929Y-91550000D01*
X99241965Y-91569682D01*
X99263040Y-91583226D01*
X99308793Y-91636028D01*
X99320000Y-91687541D01*
X99320000Y-92926000D01*
X99300315Y-92993039D01*
X99247511Y-93038794D01*
X99196000Y-93050000D01*
X98944000Y-93050000D01*
X98876961Y-93030315D01*
X98831206Y-92977511D01*
X98820000Y-92926000D01*
X98820000Y-92050000D01*
X98291210Y-92050000D01*
X98292854Y-92070910D01*
X98337968Y-92226195D01*
X98337968Y-92226196D01*
X98344288Y-92236882D01*
X98361468Y-92304607D01*
X98344288Y-92363118D01*
X98337969Y-92373803D01*
X98291088Y-92535171D01*
X98289084Y-92534588D01*
X98262008Y-92588374D01*
X98206381Y-92622650D01*
X98160934Y-92635994D01*
X98051950Y-92706033D01*
X97965897Y-92805346D01*
X97907119Y-92843121D01*
X97837249Y-92843121D01*
X97805144Y-92828460D01*
X97739069Y-92785996D01*
X97739065Y-92785994D01*
X97739064Y-92785994D01*
X97614774Y-92749500D01*
X97614772Y-92749500D01*
X97485228Y-92749500D01*
X97485226Y-92749500D01*
X97360935Y-92785994D01*
X97360932Y-92785995D01*
X97360931Y-92785996D01*
X97330822Y-92805346D01*
X97251950Y-92856033D01*
X97167118Y-92953937D01*
X97167117Y-92953938D01*
X97124867Y-93046452D01*
X97079112Y-93099256D01*
X97046668Y-93114016D01*
X96912023Y-93153134D01*
X96912017Y-93153136D01*
X96772838Y-93235446D01*
X96772829Y-93235453D01*
X96658498Y-93349784D01*
X96658491Y-93349793D01*
X96576181Y-93488972D01*
X96576179Y-93488977D01*
X96531068Y-93644249D01*
X96531067Y-93644255D01*
X96529422Y-93665167D01*
X96529423Y-93665168D01*
X97434213Y-93665168D01*
X97501252Y-93684853D01*
X97547007Y-93737657D01*
X97558213Y-93789168D01*
X97558213Y-95041168D01*
X97538528Y-95108207D01*
X97485724Y-95153962D01*
X97434213Y-95165168D01*
X97182213Y-95165168D01*
X97115174Y-95145483D01*
X97069419Y-95092679D01*
X97058213Y-95041168D01*
X97058213Y-94165168D01*
X96485962Y-94165168D01*
X96451028Y-94160145D01*
X96414774Y-94149500D01*
X96414772Y-94149500D01*
X96394925Y-94149500D01*
X96327886Y-94129815D01*
X96307244Y-94113181D01*
X95995051Y-93800988D01*
X95961566Y-93739665D01*
X95966075Y-93676604D01*
X95965039Y-93676322D01*
X95966472Y-93671051D01*
X95966550Y-93669973D01*
X95967202Y-93668370D01*
X95967486Y-93667324D01*
X95967488Y-93667320D01*
X95970500Y-93641357D01*
X95970499Y-92318644D01*
X95969245Y-92307829D01*
X95967489Y-92292685D01*
X95967488Y-92292682D01*
X95967488Y-92292680D01*
X95966242Y-92289859D01*
X95920599Y-92186486D01*
X95860129Y-92126016D01*
X95826644Y-92064693D01*
X95831628Y-91995001D01*
X95866778Y-91948047D01*
X95865490Y-91946759D01*
X95872388Y-91939860D01*
X95872391Y-91939859D01*
X95959859Y-91852391D01*
X96016017Y-91742175D01*
X96016017Y-91742173D01*
X96016018Y-91742172D01*
X96016018Y-91742171D01*
X96030500Y-91650735D01*
X96030500Y-91638000D01*
X96050185Y-91570961D01*
X96102989Y-91525206D01*
X96154500Y-91514000D01*
X98203692Y-91514000D01*
X98270731Y-91533685D01*
G37*
%TD.AperFunction*%
%TA.AperFunction,Conductor*%
G36*
X101107230Y-92133685D02*
G01*
X101152985Y-92186489D01*
X101162929Y-92255647D01*
X101159267Y-92272595D01*
X101142855Y-92329081D01*
X101142854Y-92329087D01*
X101141209Y-92349999D01*
X101141210Y-92350000D01*
X102046000Y-92350000D01*
X102113039Y-92369685D01*
X102158794Y-92422489D01*
X102170000Y-92474000D01*
X102170000Y-93381638D01*
X102150315Y-93448677D01*
X102150000Y-93449067D01*
X102150000Y-94046000D01*
X102130315Y-94113039D01*
X102077511Y-94158794D01*
X102026000Y-94170000D01*
X101774000Y-94170000D01*
X101706961Y-94150315D01*
X101661206Y-94097511D01*
X101650000Y-94046000D01*
X101650000Y-93168362D01*
X101669685Y-93101323D01*
X101670000Y-93100932D01*
X101670000Y-92850000D01*
X101141210Y-92850000D01*
X101142854Y-92870910D01*
X101187968Y-93026195D01*
X101270278Y-93165374D01*
X101275064Y-93171544D01*
X101273093Y-93173072D01*
X101300706Y-93223642D01*
X101295722Y-93293334D01*
X101267215Y-93337687D01*
X101259731Y-93345170D01*
X101198406Y-93378651D01*
X101128715Y-93373662D01*
X101111235Y-93364278D01*
X101111086Y-93364572D01*
X101102392Y-93360142D01*
X101102391Y-93360141D01*
X100992175Y-93303983D01*
X100992174Y-93303982D01*
X100992171Y-93303981D01*
X100900735Y-93289500D01*
X100647824Y-93289500D01*
X100580785Y-93269815D01*
X100535030Y-93217011D01*
X100525086Y-93147853D01*
X100537340Y-93109204D01*
X100546017Y-93092175D01*
X100560500Y-93000735D01*
X100560499Y-92599266D01*
X100560499Y-92599265D01*
X100560499Y-92599260D01*
X100546018Y-92507829D01*
X100546018Y-92507828D01*
X100546017Y-92507826D01*
X100546017Y-92507825D01*
X100489859Y-92397609D01*
X100489857Y-92397607D01*
X100489854Y-92397603D01*
X100479932Y-92387681D01*
X100446447Y-92326358D01*
X100451431Y-92256666D01*
X100479932Y-92212319D01*
X100489857Y-92202393D01*
X100489859Y-92202391D01*
X100500399Y-92181704D01*
X100548374Y-92130909D01*
X100610884Y-92114000D01*
X101040191Y-92114000D01*
X101107230Y-92133685D01*
G37*
%TD.AperFunction*%
%TD*%
M02*
