M48
; DRILL file {KiCad 8.0.1-8.0.1-1~ubuntu22.04.1} date 2024-03-28T22:24:37+0000
; FORMAT={-:-/ absolute / inch / decimal}
; #@! TF.CreationDate,2024-03-28T22:24:37+00:00
; #@! TF.GenerationSoftware,Kicad,Pcbnew,8.0.1-8.0.1-1~ubuntu22.04.1
; #@! TF.FileFunction,Plated,1,4,PTH
FMAT,2
INCH
; #@! TA.AperFunction,Plated,PTH,ViaDrill
T1C0.0118
; #@! TA.AperFunction,Plated,PTH,ComponentDrill
T2C0.0256
%
G90
G05
T1
X3.7126Y-3.748
X3.7193Y-3.6575
X3.752Y-3.8465
X3.7933Y-3.6122
X3.7933Y-3.7244
X3.7953Y-3.7618
X3.7953Y-3.8819
X3.8031Y-3.6378
X3.8406Y-3.6693
X3.8465Y-3.8819
X3.872Y-3.6634
X3.9035Y-3.7264
X3.9035Y-3.7638
X3.9055Y-3.6673
X3.9094Y-3.874
X3.9173Y-3.5906
X3.9331Y-3.7638
X3.9646Y-3.874
X4.002Y-3.7638
X4.0118Y-3.878
X4.0709Y-3.874
X4.0768Y-3.5866
X4.0807Y-3.752
X4.0807Y-3.7776
X4.0846Y-3.6831
X4.0846Y-3.7087
X4.1043Y-3.6142
X4.1181Y-3.8543
X4.128Y-3.7303
X4.1732Y-3.8358
T2
X3.7087Y-3.8083
X3.7087Y-3.8583
X3.762Y-3.5433
X3.812Y-3.5433
X3.862Y-3.5433
X3.912Y-3.5433
X3.962Y-3.5433
X4.012Y-3.5433
X4.062Y-3.5433
X4.112Y-3.5433
M30
