%TF.GenerationSoftware,KiCad,Pcbnew,8.0.1-8.0.1-1~ubuntu22.04.1*%
%TF.CreationDate,2024-03-30T15:25:23+00:00*%
%TF.ProjectId,EMG_DAQ_ADS1298,454d475f-4441-4515-9f41-445331323938,v1.0*%
%TF.SameCoordinates,Original*%
%TF.FileFunction,Legend,Bot*%
%TF.FilePolarity,Positive*%
%FSLAX46Y46*%
G04 Gerber Fmt 4.6, Leading zero omitted, Abs format (unit mm)*
G04 Created by KiCad (PCBNEW 8.0.1-8.0.1-1~ubuntu22.04.1) date 2024-03-30 15:25:23*
%MOMM*%
%LPD*%
G01*
G04 APERTURE LIST*
G04 Aperture macros list*
%AMRoundRect*
0 Rectangle with rounded corners*
0 $1 Rounding radius*
0 $2 $3 $4 $5 $6 $7 $8 $9 X,Y pos of 4 corners*
0 Add a 4 corners polygon primitive as box body*
4,1,4,$2,$3,$4,$5,$6,$7,$8,$9,$2,$3,0*
0 Add four circle primitives for the rounded corners*
1,1,$1+$1,$2,$3*
1,1,$1+$1,$4,$5*
1,1,$1+$1,$6,$7*
1,1,$1+$1,$8,$9*
0 Add four rect primitives between the rounded corners*
20,1,$1+$1,$2,$3,$4,$5,0*
20,1,$1+$1,$4,$5,$6,$7,0*
20,1,$1+$1,$6,$7,$8,$9,0*
20,1,$1+$1,$8,$9,$2,$3,0*%
%AMFreePoly0*
4,1,13,0.500000,-0.250000,0.480970,-0.345671,0.426777,-0.426777,0.345671,-0.480970,0.250000,-0.500000,-0.250000,-0.500000,-0.345671,-0.480970,-0.426777,-0.426777,-0.480970,-0.345671,-0.500000,-0.250000,-0.500000,0.500000,0.500000,0.500000,0.500000,-0.250000,0.500000,-0.250000,$1*%
G04 Aperture macros list end*
%ADD10C,0.150000*%
%ADD11C,0.120000*%
%ADD12C,0.127000*%
%ADD13C,0.200000*%
%ADD14R,1.000000X1.000000*%
%ADD15FreePoly0,180.000000*%
%ADD16RoundRect,0.140000X0.170000X-0.140000X0.170000X0.140000X-0.170000X0.140000X-0.170000X-0.140000X0*%
%ADD17RoundRect,0.140000X0.140000X0.170000X-0.140000X0.170000X-0.140000X-0.170000X0.140000X-0.170000X0*%
%ADD18RoundRect,0.140000X-0.140000X-0.170000X0.140000X-0.170000X0.140000X0.170000X-0.140000X0.170000X0*%
%ADD19RoundRect,0.080400X-0.321600X-0.696600X0.321600X-0.696600X0.321600X0.696600X-0.321600X0.696600X0*%
%ADD20RoundRect,0.140000X-0.170000X0.140000X-0.170000X-0.140000X0.170000X-0.140000X0.170000X0.140000X0*%
G04 APERTURE END LIST*
D10*
X6030895Y2623810D02*
X6030895Y3100000D01*
X5745180Y2528572D02*
X6745180Y2861905D01*
X6745180Y2861905D02*
X5745180Y3195238D01*
X5745180Y3528572D02*
X6411847Y3528572D01*
X6745180Y3528572D02*
X6697561Y3480953D01*
X6697561Y3480953D02*
X6649942Y3528572D01*
X6649942Y3528572D02*
X6697561Y3576191D01*
X6697561Y3576191D02*
X6745180Y3528572D01*
X6745180Y3528572D02*
X6649942Y3528572D01*
X6411847Y4433333D02*
X5602323Y4433333D01*
X5602323Y4433333D02*
X5507085Y4385714D01*
X5507085Y4385714D02*
X5459466Y4338095D01*
X5459466Y4338095D02*
X5411847Y4242857D01*
X5411847Y4242857D02*
X5411847Y4100000D01*
X5411847Y4100000D02*
X5459466Y4004762D01*
X5792800Y4433333D02*
X5745180Y4338095D01*
X5745180Y4338095D02*
X5745180Y4147619D01*
X5745180Y4147619D02*
X5792800Y4052381D01*
X5792800Y4052381D02*
X5840419Y4004762D01*
X5840419Y4004762D02*
X5935657Y3957143D01*
X5935657Y3957143D02*
X6221371Y3957143D01*
X6221371Y3957143D02*
X6316609Y4004762D01*
X6316609Y4004762D02*
X6364228Y4052381D01*
X6364228Y4052381D02*
X6411847Y4147619D01*
X6411847Y4147619D02*
X6411847Y4338095D01*
X6411847Y4338095D02*
X6364228Y4433333D01*
X5745180Y4909524D02*
X6745180Y4909524D01*
X5745180Y5338095D02*
X6268990Y5338095D01*
X6268990Y5338095D02*
X6364228Y5290476D01*
X6364228Y5290476D02*
X6411847Y5195238D01*
X6411847Y5195238D02*
X6411847Y5052381D01*
X6411847Y5052381D02*
X6364228Y4957143D01*
X6364228Y4957143D02*
X6316609Y4909524D01*
X6411847Y5671429D02*
X6411847Y6052381D01*
X6745180Y5814286D02*
X5888038Y5814286D01*
X5888038Y5814286D02*
X5792800Y5861905D01*
X5792800Y5861905D02*
X5745180Y5957143D01*
X5745180Y5957143D02*
X5745180Y6052381D01*
X5792800Y6766667D02*
X5745180Y6671429D01*
X5745180Y6671429D02*
X5745180Y6480953D01*
X5745180Y6480953D02*
X5792800Y6385715D01*
X5792800Y6385715D02*
X5888038Y6338096D01*
X5888038Y6338096D02*
X6268990Y6338096D01*
X6268990Y6338096D02*
X6364228Y6385715D01*
X6364228Y6385715D02*
X6411847Y6480953D01*
X6411847Y6480953D02*
X6411847Y6671429D01*
X6411847Y6671429D02*
X6364228Y6766667D01*
X6364228Y6766667D02*
X6268990Y6814286D01*
X6268990Y6814286D02*
X6173752Y6814286D01*
X6173752Y6814286D02*
X6078514Y6338096D01*
X5792800Y7671429D02*
X5745180Y7576191D01*
X5745180Y7576191D02*
X5745180Y7385715D01*
X5745180Y7385715D02*
X5792800Y7290477D01*
X5792800Y7290477D02*
X5840419Y7242858D01*
X5840419Y7242858D02*
X5935657Y7195239D01*
X5935657Y7195239D02*
X6221371Y7195239D01*
X6221371Y7195239D02*
X6316609Y7242858D01*
X6316609Y7242858D02*
X6364228Y7290477D01*
X6364228Y7290477D02*
X6411847Y7385715D01*
X6411847Y7385715D02*
X6411847Y7576191D01*
X6411847Y7576191D02*
X6364228Y7671429D01*
X5745180Y8100001D02*
X6745180Y8100001D01*
X5745180Y8528572D02*
X6268990Y8528572D01*
X6268990Y8528572D02*
X6364228Y8480953D01*
X6364228Y8480953D02*
X6411847Y8385715D01*
X6411847Y8385715D02*
X6411847Y8242858D01*
X6411847Y8242858D02*
X6364228Y8147620D01*
X6364228Y8147620D02*
X6316609Y8100001D01*
D11*
%TO.C,C11*%
X1540000Y5707836D02*
X1540000Y5492164D01*
X2260000Y5707836D02*
X2260000Y5492164D01*
%TO.C,C13*%
X2392164Y4110000D02*
X2607836Y4110000D01*
X2392164Y3390000D02*
X2607836Y3390000D01*
%TO.C,C14*%
X2392164Y3010000D02*
X2607836Y3010000D01*
X2392164Y2290000D02*
X2607836Y2290000D01*
%TO.C,C1*%
X-5087836Y8910000D02*
X-4872164Y8910000D01*
X-5087836Y8190000D02*
X-4872164Y8190000D01*
%TO.C,C3*%
X-342164Y8560000D02*
X-557836Y8560000D01*
X-342164Y7840000D02*
X-557836Y7840000D01*
%TO.C,C10*%
X707836Y3060000D02*
X492164Y3060000D01*
X707836Y2340000D02*
X492164Y2340000D01*
D12*
%TO.C,U1*%
X-7080000Y6685000D02*
X-7080000Y4985000D01*
X-6980000Y6685000D02*
X-7080000Y6685000D01*
X-6980000Y4985000D02*
X-7080000Y4985000D01*
X-4080000Y6685000D02*
X-3980000Y6685000D01*
X-4080000Y4985000D02*
X-3980000Y4985000D01*
X-3980000Y6685000D02*
X-3980000Y4985000D01*
D13*
X-6380000Y8304000D02*
G75*
G02*
X-6580000Y8304000I-100000J0D01*
G01*
X-6580000Y8304000D02*
G75*
G02*
X-6380000Y8304000I100000J0D01*
G01*
D11*
%TO.C,C5*%
X-660000Y5592164D02*
X-660000Y5807836D01*
X60000Y5592164D02*
X60000Y5807836D01*
%TO.C,C7*%
X-2042164Y2710000D02*
X-2257836Y2710000D01*
X-2042164Y1990000D02*
X-2257836Y1990000D01*
%TO.C,R1*%
X-2257836Y3910000D02*
X-2042164Y3910000D01*
X-2257836Y3190000D02*
X-2042164Y3190000D01*
%TO.C,C4*%
X-342164Y7560000D02*
X-557836Y7560000D01*
X-342164Y6840000D02*
X-557836Y6840000D01*
%TO.C,C8*%
X-2319623Y6444832D02*
X-2103951Y6444832D01*
X-2319623Y5724832D02*
X-2103951Y5724832D01*
%TO.C,C15*%
X2640000Y5492164D02*
X2640000Y5707836D01*
X3360000Y5492164D02*
X3360000Y5707836D01*
%TO.C,C9*%
X-2319623Y5444832D02*
X-2103951Y5444832D01*
X-2319623Y4724832D02*
X-2103951Y4724832D01*
%TO.C,C12*%
X2292164Y7760000D02*
X2507836Y7760000D01*
X2292164Y7040000D02*
X2507836Y7040000D01*
%TO.C,C6*%
X340000Y5592164D02*
X340000Y5807836D01*
X1060000Y5592164D02*
X1060000Y5807836D01*
%TD*%
%LPC*%
D14*
%TO.C,J1*%
X-4445000Y10000000D03*
%TD*%
%TO.C,J5*%
X635000Y10000000D03*
%TD*%
%TO.C,J4*%
X-635000Y10000000D03*
%TD*%
%TO.C,J8*%
X4445000Y10000000D03*
%TD*%
%TO.C,J7*%
X3175000Y10000000D03*
%TD*%
%TO.C,J25*%
X-5800000Y2000000D03*
%TD*%
%TO.C,J26*%
X-5800000Y3270000D03*
%TD*%
%TO.C,J2*%
X-3175000Y10000000D03*
%TD*%
%TO.C,J6*%
X1905000Y10000000D03*
%TD*%
%TO.C,J3*%
X-1905000Y10000000D03*
%TD*%
D15*
%TO.C,J22*%
X1905000Y500000D03*
%TD*%
D16*
%TO.C,C11*%
X1900000Y5120000D03*
X1900000Y6080000D03*
%TD*%
D17*
%TO.C,C13*%
X2980000Y3750000D03*
X2020000Y3750000D03*
%TD*%
%TO.C,C14*%
X2980000Y2650000D03*
X2020000Y2650000D03*
%TD*%
%TO.C,C1*%
X-4500000Y8550000D03*
X-5460000Y8550000D03*
%TD*%
D18*
%TO.C,C3*%
X-930000Y8200000D03*
X30000Y8200000D03*
%TD*%
%TO.C,C10*%
X120000Y2700000D03*
X1080000Y2700000D03*
%TD*%
D19*
%TO.C,U1*%
X-6480000Y7020000D03*
X-5530000Y7020000D03*
X-4580000Y7020000D03*
X-4580000Y4650000D03*
X-6480000Y4650000D03*
%TD*%
D20*
%TO.C,C5*%
X-300000Y6180000D03*
X-300000Y5220000D03*
%TD*%
D15*
%TO.C,J24*%
X4445000Y500000D03*
%TD*%
%TO.C,J18*%
X-3175000Y500001D03*
%TD*%
%TO.C,J17*%
X-4445000Y500000D03*
%TD*%
D18*
%TO.C,C7*%
X-2630000Y2350000D03*
X-1670000Y2350000D03*
%TD*%
D17*
%TO.C,R1*%
X-1670000Y3550000D03*
X-2630000Y3550000D03*
%TD*%
D18*
%TO.C,C4*%
X-930000Y7200000D03*
X30000Y7200000D03*
%TD*%
D15*
%TO.C,J19*%
X-1905000Y500000D03*
%TD*%
D17*
%TO.C,C8*%
X-1731787Y6084832D03*
X-2691787Y6084832D03*
%TD*%
D20*
%TO.C,C15*%
X3000000Y6080000D03*
X3000000Y5120000D03*
%TD*%
D15*
%TO.C,J23*%
X3175000Y500001D03*
%TD*%
D17*
%TO.C,C9*%
X-1731787Y5084832D03*
X-2691787Y5084832D03*
%TD*%
%TO.C,C12*%
X2880000Y7400000D03*
X1920000Y7400000D03*
%TD*%
D15*
%TO.C,J20*%
X-635000Y500000D03*
%TD*%
D20*
%TO.C,C6*%
X700000Y6180000D03*
X700000Y5220000D03*
%TD*%
D15*
%TO.C,J21*%
X635000Y500000D03*
%TD*%
%LPD*%
M02*
