M48
; DRILL file {KiCad 8.0.8-unknown-202501290020~8b811aa383~ubuntu22.04.1} date 2025-03-26T11:50:05+0000
; FORMAT={-:-/ absolute / inch / decimal}
; #@! TF.CreationDate,2025-03-26T11:50:05+00:00
; #@! TF.GenerationSoftware,Kicad,Pcbnew,8.0.8-unknown-202501290020~8b811aa383~ubuntu22.04.1
; #@! TF.FileFunction,Plated,1,4,PTH
FMAT,2
INCH
; #@! TA.AperFunction,Plated,PTH,ViaDrill
T1C0.0118
; #@! TA.AperFunction,Plated,PTH,ComponentDrill
T2C0.0394
%
G90
G05
T1
X2.0276Y-3.0787
X2.0335Y-3.5646
X2.0354Y-3.6969
X2.0433Y-3.3583
X2.0551Y-3.2087
X2.0866Y-3.3189
X2.0906Y-3.2953
X2.126Y-3.0512
X2.1457Y-3.6063
X2.1772Y-3.4803
X2.185Y-3.185
X2.1929Y-3.3071
X2.2283Y-3.4134
X2.4331Y-3.4213
X2.4449Y-3.2756
T2
X1.9094Y-3.0166
X1.9094Y-3.1166
X1.9094Y-3.2166
X1.9094Y-3.3166
X1.9094Y-3.4166
X1.9094Y-3.5166
X1.9094Y-3.6166
X2.2622Y-3.2622
X2.2622Y-3.3622
X2.3622Y-3.2622
X2.3622Y-3.3622
X2.5459Y-3.0166
X2.5459Y-3.1166
X2.5459Y-3.2166
X2.5459Y-3.3166
X2.5459Y-3.4166
X2.5459Y-3.5166
X2.5459Y-3.6166
M30
