%TF.GenerationSoftware,KiCad,Pcbnew,8.0.4-unknown-202407232306~396e531e7c~ubuntu22.04.1*%
%TF.CreationDate,2024-08-12T16:54:32+01:00*%
%TF.ProjectId,DRY_ELEC_6CH,4452595f-454c-4454-935f-3643482e6b69,1.0*%
%TF.SameCoordinates,Original*%
%TF.FileFunction,Copper,L1,Top*%
%TF.FilePolarity,Positive*%
%FSLAX46Y46*%
G04 Gerber Fmt 4.6, Leading zero omitted, Abs format (unit mm)*
G04 Created by KiCad (PCBNEW 8.0.4-unknown-202407232306~396e531e7c~ubuntu22.04.1) date 2024-08-12 16:54:32*
%MOMM*%
%LPD*%
G01*
G04 APERTURE LIST*
G04 Aperture macros list*
%AMRoundRect*
0 Rectangle with rounded corners*
0 $1 Rounding radius*
0 $2 $3 $4 $5 $6 $7 $8 $9 X,Y pos of 4 corners*
0 Add a 4 corners polygon primitive as box body*
4,1,4,$2,$3,$4,$5,$6,$7,$8,$9,$2,$3,0*
0 Add four circle primitives for the rounded corners*
1,1,$1+$1,$2,$3*
1,1,$1+$1,$4,$5*
1,1,$1+$1,$6,$7*
1,1,$1+$1,$8,$9*
0 Add four rect primitives between the rounded corners*
20,1,$1+$1,$2,$3,$4,$5,0*
20,1,$1+$1,$4,$5,$6,$7,0*
20,1,$1+$1,$6,$7,$8,$9,0*
20,1,$1+$1,$8,$9,$2,$3,0*%
%AMFreePoly0*
4,1,13,0.345671,0.480970,0.426777,0.426777,0.480970,0.345671,0.500000,0.250000,0.500000,-0.900000,-0.500000,-0.900000,-0.500000,0.250000,-0.480970,0.345671,-0.426777,0.426777,-0.345671,0.480970,-0.250000,0.500000,0.250000,0.500000,0.345671,0.480970,0.345671,0.480970,$1*%
%AMFreePoly1*
4,1,19,0.500000,-0.750000,0.000000,-0.750000,0.000000,-0.744911,-0.071157,-0.744911,-0.207708,-0.704816,-0.327430,-0.627875,-0.420627,-0.520320,-0.479746,-0.390866,-0.500000,-0.250000,-0.500000,0.250000,-0.479746,0.390866,-0.420627,0.520320,-0.327430,0.627875,-0.207708,0.704816,-0.071157,0.744911,0.000000,0.744911,0.000000,0.750000,0.500000,0.750000,0.500000,-0.750000,0.500000,-0.750000,
$1*%
%AMFreePoly2*
4,1,19,0.000000,0.744911,0.071157,0.744911,0.207708,0.704816,0.327430,0.627875,0.420627,0.520320,0.479746,0.390866,0.500000,0.250000,0.500000,-0.250000,0.479746,-0.390866,0.420627,-0.520320,0.327430,-0.627875,0.207708,-0.704816,0.071157,-0.744911,0.000000,-0.744911,0.000000,-0.750000,-0.500000,-0.750000,-0.500000,0.750000,0.000000,0.750000,0.000000,0.744911,0.000000,0.744911,
$1*%
G04 Aperture macros list end*
%TA.AperFunction,EtchedComponent*%
%ADD10C,0.000000*%
%TD*%
%TA.AperFunction,SMDPad,CuDef*%
%ADD11FreePoly0,180.000000*%
%TD*%
%TA.AperFunction,SMDPad,CuDef*%
%ADD12FreePoly0,0.000000*%
%TD*%
%TA.AperFunction,SMDPad,CuDef*%
%ADD13RoundRect,0.140000X0.170000X-0.140000X0.170000X0.140000X-0.170000X0.140000X-0.170000X-0.140000X0*%
%TD*%
%TA.AperFunction,SMDPad,CuDef*%
%ADD14C,3.000000*%
%TD*%
%TA.AperFunction,SMDPad,CuDef*%
%ADD15RoundRect,0.160000X0.160000X-0.197500X0.160000X0.197500X-0.160000X0.197500X-0.160000X-0.197500X0*%
%TD*%
%TA.AperFunction,SMDPad,CuDef*%
%ADD16FreePoly1,180.000000*%
%TD*%
%TA.AperFunction,SMDPad,CuDef*%
%ADD17FreePoly2,180.000000*%
%TD*%
%TA.AperFunction,ComponentPad*%
%ADD18C,1.800000*%
%TD*%
%TA.AperFunction,SMDPad,CuDef*%
%ADD19FreePoly1,0.000000*%
%TD*%
%TA.AperFunction,SMDPad,CuDef*%
%ADD20FreePoly2,0.000000*%
%TD*%
%TA.AperFunction,Conductor*%
%ADD21C,0.127000*%
%TD*%
G04 APERTURE END LIST*
D10*
%TA.AperFunction,EtchedComponent*%
%TO.C,JP2*%
G36*
X37234999Y-34205000D02*
G01*
X36734999Y-34205000D01*
X36734999Y-33605000D01*
X37234999Y-33605000D01*
X37234999Y-34205000D01*
G37*
%TD.AperFunction*%
%TA.AperFunction,EtchedComponent*%
%TO.C,JP5*%
G36*
X23264999Y-34205000D02*
G01*
X22764999Y-34205000D01*
X22764999Y-33605000D01*
X23264999Y-33605000D01*
X23264999Y-34205000D01*
G37*
%TD.AperFunction*%
%TA.AperFunction,EtchedComponent*%
%TO.C,JP3*%
G36*
X42314999Y-34205000D02*
G01*
X41814999Y-34205000D01*
X41814999Y-33605000D01*
X42314999Y-33605000D01*
X42314999Y-34205000D01*
G37*
%TD.AperFunction*%
%TA.AperFunction,EtchedComponent*%
%TO.C,JP6*%
G36*
X28344999Y-34205000D02*
G01*
X27844999Y-34205000D01*
X27844999Y-33605000D01*
X28344999Y-33605000D01*
X28344999Y-34205000D01*
G37*
%TD.AperFunction*%
%TA.AperFunction,EtchedComponent*%
%TO.C,JP1*%
G36*
X32169998Y-34205000D02*
G01*
X31669998Y-34205000D01*
X31669998Y-33605000D01*
X32169998Y-33605000D01*
X32169998Y-34205000D01*
G37*
%TD.AperFunction*%
%TA.AperFunction,EtchedComponent*%
%TO.C,JP4*%
G36*
X18170000Y-34205000D02*
G01*
X17670000Y-34205000D01*
X17670000Y-33605000D01*
X18170000Y-33605000D01*
X18170000Y-34205000D01*
G37*
%TD.AperFunction*%
%TD*%
D11*
%TO.P,J14,1,Pin_1*%
%TO.N,/IN2*%
X31905000Y-29200000D03*
%TD*%
D12*
%TO.P,J4,1,Pin_1*%
%TO.N,/IN4*%
X29365000Y-26800000D03*
%TD*%
D13*
%TO.P,C9,1*%
%TO.N,Net-(C9-Pad1)*%
X18499999Y-27580000D03*
%TO.P,C9,2*%
%TO.N,GND*%
X18499999Y-26620000D03*
%TD*%
D14*
%TO.P,I4,1,conn*%
%TO.N,GND*%
X43099999Y-36600000D03*
%TD*%
D15*
%TO.P,R6,1*%
%TO.N,Net-(C5-Pad1)*%
X43499999Y-29797500D03*
%TO.P,R6,2*%
%TO.N,/IN3*%
X43499999Y-28602500D03*
%TD*%
D13*
%TO.P,C2,1*%
%TO.N,/IN1*%
X39499999Y-27580000D03*
%TO.P,C2,2*%
%TO.N,GND*%
X39499999Y-26620000D03*
%TD*%
D16*
%TO.P,JP2,1,A*%
%TO.N,/filtering_2/ELECTRODE*%
X37634998Y-33905000D03*
D17*
%TO.P,JP2,2,B*%
%TO.N,/IN2*%
X36335000Y-33905000D03*
%TD*%
D11*
%TO.P,J9,1,Pin_1*%
%TO.N,GND*%
X25555000Y-29265000D03*
%TD*%
D13*
%TO.P,C5,1*%
%TO.N,Net-(C5-Pad1)*%
X42499999Y-27580000D03*
%TO.P,C5,2*%
%TO.N,GND*%
X42499999Y-26620000D03*
%TD*%
D12*
%TO.P,J2,1,Pin_1*%
%TO.N,/IN6*%
X26825000Y-26800000D03*
%TD*%
D14*
%TO.P,I3,1,conn*%
%TO.N,GND*%
X16899999Y-36600000D03*
%TD*%
D13*
%TO.P,C8,1*%
%TO.N,/IN4*%
X17499999Y-27580000D03*
%TO.P,C8,2*%
%TO.N,GND*%
X17499999Y-26620000D03*
%TD*%
D18*
%TO.P,J17,1,Pin_1*%
%TO.N,/filtering_1/ELECTRODE*%
X32539999Y-32000000D03*
%TD*%
D15*
%TO.P,R7,1*%
%TO.N,/filtering_4/ELECTRODE*%
X16499999Y-29797500D03*
%TO.P,R7,2*%
%TO.N,Net-(C7-Pad1)*%
X16499999Y-28602500D03*
%TD*%
D18*
%TO.P,J21,1,Pin_1*%
%TO.N,/filtering_5/ELECTRODE*%
X22379999Y-32000000D03*
%TD*%
D15*
%TO.P,R12,1*%
%TO.N,Net-(C11-Pad1)*%
X21499999Y-29797500D03*
%TO.P,R12,2*%
%TO.N,/IN6*%
X21499999Y-28602500D03*
%TD*%
D13*
%TO.P,C4,1*%
%TO.N,/IN2*%
X41499999Y-27582500D03*
%TO.P,C4,2*%
%TO.N,GND*%
X41499999Y-26622500D03*
%TD*%
D11*
%TO.P,J12,1,Pin_1*%
%TO.N,/IN4*%
X29365000Y-29200000D03*
%TD*%
D19*
%TO.P,JP5,1,A*%
%TO.N,/filtering_5/ELECTRODE*%
X22365000Y-33905000D03*
D20*
%TO.P,JP5,2,B*%
%TO.N,/IN5*%
X23664998Y-33905000D03*
%TD*%
D15*
%TO.P,R9,1*%
%TO.N,/filtering_5/ELECTRODE*%
X18499999Y-29797500D03*
%TO.P,R9,2*%
%TO.N,Net-(C9-Pad1)*%
X18499999Y-28602500D03*
%TD*%
D11*
%TO.P,J13,1,Pin_1*%
%TO.N,/IN3*%
X30635000Y-29200000D03*
%TD*%
%TO.P,J16,1,Pin_1*%
%TO.N,/IN1*%
X34445000Y-29265000D03*
%TD*%
D13*
%TO.P,C1,1*%
%TO.N,Net-(C1-Pad1)*%
X38499999Y-27580000D03*
%TO.P,C1,2*%
%TO.N,GND*%
X38499999Y-26620000D03*
%TD*%
D15*
%TO.P,R11,1*%
%TO.N,/filtering_6/ELECTRODE*%
X20499999Y-29797500D03*
%TO.P,R11,2*%
%TO.N,Net-(C11-Pad1)*%
X20499999Y-28602500D03*
%TD*%
%TO.P,R10,1*%
%TO.N,Net-(C9-Pad1)*%
X19499999Y-29797500D03*
%TO.P,R10,2*%
%TO.N,/IN5*%
X19499999Y-28602500D03*
%TD*%
D13*
%TO.P,C6,1*%
%TO.N,/IN3*%
X43499999Y-27580000D03*
%TO.P,C6,2*%
%TO.N,GND*%
X43499999Y-26620000D03*
%TD*%
D15*
%TO.P,R2,1*%
%TO.N,Net-(C1-Pad1)*%
X39499999Y-29797500D03*
%TO.P,R2,2*%
%TO.N,/IN1*%
X39499999Y-28602500D03*
%TD*%
%TO.P,R4,1*%
%TO.N,Net-(C3-Pad1)*%
X41499999Y-29800000D03*
%TO.P,R4,2*%
%TO.N,/IN2*%
X41499999Y-28605000D03*
%TD*%
D12*
%TO.P,J1,1,Pin_1*%
%TO.N,GND*%
X25555000Y-26865000D03*
%TD*%
D13*
%TO.P,C7,1*%
%TO.N,Net-(C7-Pad1)*%
X16499999Y-27580000D03*
%TO.P,C7,2*%
%TO.N,GND*%
X16499999Y-26620000D03*
%TD*%
%TO.P,C3,1*%
%TO.N,Net-(C3-Pad1)*%
X40499999Y-27582500D03*
%TO.P,C3,2*%
%TO.N,GND*%
X40499999Y-26622500D03*
%TD*%
D15*
%TO.P,R1,1*%
%TO.N,/filtering_1/ELECTRODE*%
X38499999Y-29797500D03*
%TO.P,R1,2*%
%TO.N,Net-(C1-Pad1)*%
X38499999Y-28602500D03*
%TD*%
D11*
%TO.P,J10,1,Pin_1*%
%TO.N,/IN6*%
X26825000Y-29200000D03*
%TD*%
%TO.P,J15,1,Pin_1*%
%TO.N,/IN1*%
X33175000Y-29200000D03*
%TD*%
D15*
%TO.P,R8,1*%
%TO.N,Net-(C7-Pad1)*%
X17499999Y-29797500D03*
%TO.P,R8,2*%
%TO.N,/IN4*%
X17499999Y-28602500D03*
%TD*%
D18*
%TO.P,J20,1,Pin_1*%
%TO.N,/filtering_4/ELECTRODE*%
X17299999Y-32000000D03*
%TD*%
D13*
%TO.P,C11,1*%
%TO.N,Net-(C11-Pad1)*%
X20499999Y-27580000D03*
%TO.P,C11,2*%
%TO.N,GND*%
X20499999Y-26620000D03*
%TD*%
D12*
%TO.P,J5,1,Pin_1*%
%TO.N,/IN3*%
X30635000Y-26800000D03*
%TD*%
D13*
%TO.P,C12,1*%
%TO.N,/IN6*%
X21499999Y-27580000D03*
%TO.P,C12,2*%
%TO.N,GND*%
X21499999Y-26620000D03*
%TD*%
D12*
%TO.P,J7,1,Pin_1*%
%TO.N,/IN1*%
X33175000Y-26800000D03*
%TD*%
D19*
%TO.P,JP3,1,A*%
%TO.N,/filtering_3/ELECTRODE*%
X41415000Y-33905000D03*
D20*
%TO.P,JP3,2,B*%
%TO.N,/IN3*%
X42714998Y-33905000D03*
%TD*%
D12*
%TO.P,J3,1,Pin_1*%
%TO.N,/IN5*%
X28095000Y-26800000D03*
%TD*%
D18*
%TO.P,J18,1,Pin_1*%
%TO.N,/filtering_2/ELECTRODE*%
X37619999Y-32000000D03*
%TD*%
D13*
%TO.P,C10,1*%
%TO.N,/IN5*%
X19499999Y-27580000D03*
%TO.P,C10,2*%
%TO.N,GND*%
X19499999Y-26620000D03*
%TD*%
D18*
%TO.P,J22,1,Pin_1*%
%TO.N,/filtering_6/ELECTRODE*%
X27459999Y-32000000D03*
%TD*%
D15*
%TO.P,R3,1*%
%TO.N,/filtering_2/ELECTRODE*%
X40499999Y-29800000D03*
%TO.P,R3,2*%
%TO.N,Net-(C3-Pad1)*%
X40499999Y-28605000D03*
%TD*%
D18*
%TO.P,J19,1,Pin_1*%
%TO.N,/filtering_3/ELECTRODE*%
X42699999Y-32000000D03*
%TD*%
D11*
%TO.P,J11,1,Pin_1*%
%TO.N,/IN5*%
X28095000Y-29200000D03*
%TD*%
D19*
%TO.P,JP6,1,A*%
%TO.N,/filtering_6/ELECTRODE*%
X27445000Y-33905000D03*
D20*
%TO.P,JP6,2,B*%
%TO.N,/IN6*%
X28744998Y-33905000D03*
%TD*%
D12*
%TO.P,J6,1,Pin_1*%
%TO.N,/IN2*%
X31905000Y-26800000D03*
%TD*%
%TO.P,J8,1,Pin_1*%
%TO.N,/IN1*%
X34445000Y-26865000D03*
%TD*%
D16*
%TO.P,JP1,1,A*%
%TO.N,/filtering_1/ELECTRODE*%
X32569997Y-33905000D03*
D17*
%TO.P,JP1,2,B*%
%TO.N,/IN1*%
X31269999Y-33905000D03*
%TD*%
D19*
%TO.P,JP4,1,A*%
%TO.N,/filtering_4/ELECTRODE*%
X17270001Y-33905000D03*
D20*
%TO.P,JP4,2,B*%
%TO.N,/IN4*%
X18569999Y-33905000D03*
%TD*%
D15*
%TO.P,R5,1*%
%TO.N,/filtering_3/ELECTRODE*%
X42499999Y-29797500D03*
%TO.P,R5,2*%
%TO.N,Net-(C5-Pad1)*%
X42499999Y-28602500D03*
%TD*%
D21*
%TO.N,/IN6*%
X26825000Y-29200000D02*
X26825000Y-29774999D01*
X21499999Y-28602500D02*
X21499999Y-27580000D01*
X26199999Y-30400000D02*
X23598749Y-30400000D01*
X28744998Y-33905000D02*
X28744998Y-31119998D01*
X28744998Y-31119998D02*
X26825000Y-29200000D01*
X26825000Y-26800000D02*
X26825000Y-29200000D01*
X23598749Y-30400000D02*
X21801249Y-28602500D01*
X26825000Y-29774999D02*
X26199999Y-30400000D01*
X21801249Y-28602500D02*
X21499999Y-28602500D01*
%TO.N,/IN5*%
X29499999Y-34500000D02*
X29499999Y-30604999D01*
X19499999Y-28602500D02*
X19999999Y-29102500D01*
X28899999Y-35100000D02*
X29499999Y-34500000D01*
X28095000Y-26800000D02*
X28095000Y-29200000D01*
X23008374Y-30808375D02*
X23699999Y-31500000D01*
X19999999Y-30102790D02*
X20705584Y-30808375D01*
X23699999Y-33940001D02*
X24859998Y-35100000D01*
X20705584Y-30808375D02*
X23008374Y-30808375D01*
X24859998Y-35100000D02*
X28899999Y-35100000D01*
X23699999Y-31500000D02*
X23699999Y-33940001D01*
X19499999Y-28602500D02*
X19499999Y-27580000D01*
X19999999Y-29102500D02*
X19999999Y-30102790D01*
X29499999Y-30604999D02*
X28095000Y-29200000D01*
%TO.N,/IN4*%
X17499999Y-28952500D02*
X17999999Y-29452500D01*
X18569999Y-33905000D02*
X20994999Y-33905000D01*
X17499999Y-28602500D02*
X17499999Y-28952500D01*
X29799999Y-29634999D02*
X29365000Y-29200000D01*
X20999999Y-33900000D02*
X22416999Y-35317000D01*
X29365000Y-26800000D02*
X29365000Y-29200000D01*
X17999999Y-30500000D02*
X20999999Y-33500000D01*
X17999999Y-29452500D02*
X17999999Y-30500000D01*
X17499999Y-28602500D02*
X17499999Y-27580000D01*
X28989883Y-35317000D02*
X29799999Y-34506884D01*
X29799999Y-34506884D02*
X29799999Y-29634999D01*
X22416999Y-35317000D02*
X28989883Y-35317000D01*
X20994999Y-33905000D02*
X20999999Y-33900000D01*
X20999999Y-33500000D02*
X20999999Y-33900000D01*
%TO.N,/IN3*%
X41665999Y-35334000D02*
X44099999Y-32900000D01*
X44099999Y-32900000D02*
X44099999Y-29300000D01*
X30635000Y-26800000D02*
X30635000Y-29200000D01*
X41665999Y-35334000D02*
X42714998Y-34285001D01*
X42714998Y-34285001D02*
X42714998Y-33905000D01*
X30199999Y-29635001D02*
X30199999Y-34411884D01*
X30199999Y-34411884D02*
X31122115Y-35334000D01*
X41365999Y-35334000D02*
X41665999Y-35334000D01*
X43499999Y-28700000D02*
X43499999Y-28602500D01*
X43499999Y-27580000D02*
X43499999Y-28602500D01*
X30635000Y-29200000D02*
X30199999Y-29635001D01*
X44099999Y-29300000D02*
X43499999Y-28700000D01*
X31122115Y-35334000D02*
X41365999Y-35334000D01*
%TO.N,/IN2*%
X30499999Y-34405000D02*
X31211999Y-35117000D01*
X41999999Y-29105000D02*
X41499999Y-28605000D01*
X31905000Y-26800000D02*
X31905000Y-29200000D01*
X30499999Y-30605001D02*
X30499999Y-34405000D01*
X41499999Y-27582500D02*
X41499999Y-28605000D01*
X36335000Y-35081999D02*
X36299999Y-35117000D01*
X41999999Y-30984154D02*
X41999999Y-29105000D01*
X36299999Y-35117000D02*
X37867153Y-35117000D01*
X37884153Y-35100000D02*
X41999999Y-30984154D01*
X31211999Y-35117000D02*
X36299999Y-35117000D01*
X31905000Y-29200000D02*
X30499999Y-30605001D01*
X37867153Y-35117000D02*
X37884153Y-35100000D01*
X36335000Y-33905000D02*
X36335000Y-35081999D01*
%TO.N,/IN1*%
X34299999Y-33900000D02*
X33299999Y-34900000D01*
X33175000Y-29200000D02*
X34380000Y-29200000D01*
X34380000Y-29200000D02*
X34445000Y-29265000D01*
X33299999Y-34900000D02*
X31629999Y-34900000D01*
X34445000Y-26865000D02*
X34445000Y-29265000D01*
X39599999Y-30700000D02*
X36099999Y-30700000D01*
X39999999Y-29102500D02*
X39999999Y-30300000D01*
X39499999Y-28602500D02*
X39999999Y-29102500D01*
X34445000Y-26865000D02*
X33240000Y-26865000D01*
X39499999Y-27580000D02*
X39499999Y-28602500D01*
X31486499Y-30888501D02*
X33175000Y-29200000D01*
X33175000Y-26800000D02*
X33175000Y-29200000D01*
X31629999Y-34900000D02*
X31486499Y-34756500D01*
X33240000Y-26865000D02*
X33175000Y-26800000D01*
X31486499Y-34756500D02*
X31486499Y-30888501D01*
X36099999Y-30700000D02*
X34299999Y-32500000D01*
X39999999Y-30300000D02*
X39599999Y-30700000D01*
X34299999Y-32500000D02*
X34299999Y-33900000D01*
%TO.N,Net-(C1-Pad1)*%
X38499999Y-27580000D02*
X38499999Y-28602500D01*
X38499999Y-28602500D02*
X39499999Y-29602500D01*
X39499999Y-29602500D02*
X39499999Y-29797500D01*
%TO.N,Net-(C3-Pad1)*%
X40499999Y-28800000D02*
X41499999Y-29800000D01*
X40499999Y-28605000D02*
X40499999Y-28800000D01*
X40499999Y-27582500D02*
X40499999Y-28605000D01*
%TO.N,GND*%
X16499999Y-26620000D02*
X17499999Y-26620000D01*
X40499999Y-26622500D02*
X39502499Y-26622500D01*
X20499999Y-26620000D02*
X21499999Y-26620000D01*
X42099999Y-26622500D02*
X41499999Y-26622500D01*
X43499999Y-26620000D02*
X42499999Y-26620000D01*
X39499999Y-26620000D02*
X38499999Y-26620000D01*
X41499999Y-26622500D02*
X40499999Y-26622500D01*
X39502499Y-26622500D02*
X39499999Y-26620000D01*
X18499999Y-26620000D02*
X19499999Y-26620000D01*
%TO.N,Net-(C5-Pad1)*%
X42499999Y-27580000D02*
X42499999Y-28602500D01*
X42499999Y-28602500D02*
X42499999Y-28797500D01*
X42499999Y-28797500D02*
X43499999Y-29797500D01*
%TO.N,Net-(C7-Pad1)*%
X16499999Y-27580000D02*
X16499999Y-28602500D01*
X16499999Y-28797500D02*
X17499999Y-29797500D01*
X16499999Y-28602500D02*
X16499999Y-28797500D01*
%TO.N,Net-(C9-Pad1)*%
X18499999Y-28602500D02*
X19499999Y-29602500D01*
X18499999Y-28602500D02*
X18499999Y-27580000D01*
X19499999Y-29602500D02*
X19499999Y-29797500D01*
%TO.N,Net-(C11-Pad1)*%
X20499999Y-28797500D02*
X21499999Y-29797500D01*
X20499999Y-28602500D02*
X20499999Y-27580000D01*
X20499999Y-28602500D02*
X20499999Y-28797500D01*
%TO.N,/filtering_1/ELECTRODE*%
X34334999Y-31365000D02*
X35902499Y-29797500D01*
X32539999Y-33890001D02*
X32539999Y-32000000D01*
X32539999Y-32000000D02*
X33174999Y-31365000D01*
X33174999Y-31365000D02*
X34334999Y-31365000D01*
X35902499Y-29797500D02*
X38499999Y-29797500D01*
%TO.N,/filtering_2/ELECTRODE*%
X39799999Y-32000000D02*
X40499999Y-31300000D01*
X37619999Y-32000000D02*
X39799999Y-32000000D01*
X40499999Y-31300000D02*
X40499999Y-29800000D01*
X37619999Y-33890001D02*
X37619999Y-32000000D01*
%TO.N,/filtering_3/ELECTRODE*%
X41415000Y-33905000D02*
X41415000Y-33384999D01*
X42699999Y-32100000D02*
X42699999Y-32000000D01*
X42499999Y-31800000D02*
X42699999Y-32000000D01*
X42499999Y-29797500D02*
X42499999Y-31800000D01*
X41415000Y-33384999D02*
X42699999Y-32100000D01*
%TO.N,/filtering_4/ELECTRODE*%
X17299999Y-30597500D02*
X17299999Y-32000000D01*
X16499999Y-29797500D02*
X17299999Y-30597500D01*
X17299999Y-32000000D02*
X17299999Y-33890001D01*
%TO.N,/filtering_5/ELECTRODE*%
X21648604Y-32751395D02*
X18694709Y-29797500D01*
X22379999Y-32020000D02*
X21648604Y-32751395D01*
X18694709Y-29797500D02*
X18499999Y-29797500D01*
X22365000Y-33467791D02*
X21648604Y-32751395D01*
X22379999Y-32000000D02*
X22379999Y-32020000D01*
X22365000Y-33905000D02*
X22365000Y-33467791D01*
%TO.N,/filtering_6/ELECTRODE*%
X27459999Y-32000000D02*
X24599999Y-32000000D01*
X27459999Y-32000000D02*
X27459999Y-33890001D01*
X24599999Y-32000000D02*
X22999999Y-30400000D01*
X27459999Y-33890001D02*
X27445000Y-33905000D01*
X22999999Y-30400000D02*
X21102499Y-30400000D01*
X21102499Y-30400000D02*
X20499999Y-29797500D01*
%TD*%
%TA.AperFunction,Conductor*%
%TO.N,GND*%
G36*
X44005393Y-25510971D02*
G01*
X44161018Y-25524587D01*
X44182296Y-25528338D01*
X44327950Y-25567366D01*
X44348259Y-25574759D01*
X44450050Y-25622224D01*
X44484919Y-25638484D01*
X44503630Y-25649286D01*
X44627148Y-25735774D01*
X44643706Y-25749667D01*
X44750331Y-25856291D01*
X44764225Y-25872850D01*
X44850709Y-25996362D01*
X44861516Y-26015081D01*
X44925240Y-26151739D01*
X44932633Y-26172049D01*
X44971659Y-26317696D01*
X44975412Y-26338982D01*
X44989027Y-26494593D01*
X44989499Y-26505401D01*
X44989499Y-37494587D01*
X44989027Y-37505395D01*
X44975411Y-37661017D01*
X44971658Y-37682303D01*
X44932632Y-37827950D01*
X44925239Y-37848261D01*
X44861516Y-37984915D01*
X44850709Y-38003633D01*
X44764219Y-38127154D01*
X44750325Y-38143712D01*
X44643711Y-38250326D01*
X44627153Y-38264220D01*
X44503631Y-38350711D01*
X44484913Y-38361518D01*
X44348263Y-38425239D01*
X44327951Y-38432632D01*
X44182301Y-38471658D01*
X44161016Y-38475411D01*
X44047747Y-38485321D01*
X44005379Y-38489028D01*
X43994577Y-38489500D01*
X16005411Y-38489500D01*
X15994605Y-38489028D01*
X15969583Y-38486838D01*
X15838981Y-38475412D01*
X15817695Y-38471659D01*
X15672048Y-38432633D01*
X15651737Y-38425240D01*
X15515083Y-38361517D01*
X15496365Y-38350710D01*
X15372848Y-38264223D01*
X15356290Y-38250329D01*
X15249670Y-38143709D01*
X15235776Y-38127151D01*
X15149289Y-38003633D01*
X15138482Y-37984915D01*
X15074759Y-37848261D01*
X15067366Y-37827950D01*
X15028338Y-37682297D01*
X15024587Y-37661016D01*
X15010971Y-37505384D01*
X15010499Y-37494577D01*
X15010499Y-28362074D01*
X16052499Y-28362074D01*
X16052499Y-28842925D01*
X16055288Y-28866963D01*
X16055288Y-28866965D01*
X16098704Y-28965291D01*
X16174708Y-29041295D01*
X16227281Y-29064508D01*
X16277236Y-29086566D01*
X16330612Y-29131652D01*
X16351139Y-29198438D01*
X16332300Y-29265720D01*
X16280077Y-29312137D01*
X16277236Y-29313434D01*
X16174707Y-29358705D01*
X16098704Y-29434708D01*
X16055288Y-29533034D01*
X16055288Y-29533036D01*
X16052499Y-29557074D01*
X16052499Y-30037925D01*
X16055288Y-30061963D01*
X16055288Y-30061965D01*
X16095116Y-30152166D01*
X16098704Y-30160291D01*
X16174708Y-30236295D01*
X16273036Y-30279711D01*
X16297075Y-30282500D01*
X16297076Y-30282500D01*
X16663522Y-30282500D01*
X16730561Y-30302185D01*
X16751203Y-30318819D01*
X17072680Y-30640296D01*
X17106165Y-30701619D01*
X17108999Y-30727977D01*
X17108999Y-30892239D01*
X17089314Y-30959278D01*
X17036510Y-31005033D01*
X17020995Y-31010899D01*
X16904891Y-31046119D01*
X16904881Y-31046123D01*
X16726393Y-31141527D01*
X16726386Y-31141531D01*
X16569930Y-31269931D01*
X16441530Y-31426387D01*
X16441526Y-31426394D01*
X16346122Y-31604882D01*
X16346121Y-31604885D01*
X16346120Y-31604887D01*
X16346119Y-31604890D01*
X16324243Y-31677008D01*
X16287365Y-31798576D01*
X16267527Y-32000000D01*
X16287365Y-32201423D01*
X16287366Y-32201425D01*
X16346119Y-32395110D01*
X16346120Y-32395113D01*
X16346121Y-32395114D01*
X16346122Y-32395117D01*
X16441526Y-32573605D01*
X16441530Y-32573612D01*
X16569930Y-32730068D01*
X16726386Y-32858468D01*
X16726393Y-32858472D01*
X16874915Y-32937859D01*
X16924759Y-32986821D01*
X16940220Y-33054959D01*
X16916388Y-33120638D01*
X16883505Y-33151530D01*
X16867567Y-33161773D01*
X16867564Y-33161775D01*
X16839069Y-33186467D01*
X16744910Y-33295134D01*
X16744908Y-33295137D01*
X16724526Y-33326851D01*
X16724520Y-33326862D01*
X16664794Y-33457642D01*
X16654169Y-33493831D01*
X16633708Y-33636143D01*
X16633708Y-33673856D01*
X16636239Y-33691459D01*
X16637501Y-33709105D01*
X16637501Y-34100894D01*
X16636239Y-34118540D01*
X16633708Y-34136143D01*
X16633708Y-34173856D01*
X16654169Y-34316168D01*
X16664794Y-34352357D01*
X16724520Y-34483137D01*
X16724523Y-34483143D01*
X16744912Y-34514868D01*
X16833565Y-34617180D01*
X16839069Y-34623532D01*
X16867564Y-34648224D01*
X16867566Y-34648225D01*
X16867568Y-34648227D01*
X16907968Y-34674191D01*
X16988516Y-34725956D01*
X16988522Y-34725959D01*
X17022828Y-34741626D01*
X17160783Y-34782133D01*
X17198112Y-34787500D01*
X17198115Y-34787500D01*
X17770000Y-34787500D01*
X17770001Y-34787500D01*
X17825043Y-34775526D01*
X17834805Y-34767066D01*
X17898360Y-34738041D01*
X17967519Y-34747983D01*
X17982060Y-34758857D01*
X17983366Y-34756827D01*
X17998363Y-34766465D01*
X17998364Y-34766466D01*
X18044068Y-34779886D01*
X18069998Y-34787500D01*
X18069999Y-34787500D01*
X18641885Y-34787500D01*
X18641888Y-34787500D01*
X18679217Y-34782133D01*
X18817172Y-34741626D01*
X18851478Y-34725959D01*
X18972432Y-34648227D01*
X19000934Y-34623529D01*
X19095088Y-34514868D01*
X19115477Y-34483143D01*
X19175205Y-34352358D01*
X19185830Y-34316172D01*
X19202195Y-34202353D01*
X19231220Y-34138797D01*
X19289998Y-34101023D01*
X19324933Y-34096000D01*
X20874522Y-34096000D01*
X20941561Y-34115685D01*
X20962203Y-34132319D01*
X22255077Y-35425193D01*
X22308806Y-35478922D01*
X22379007Y-35508000D01*
X22379009Y-35508000D01*
X29027873Y-35508000D01*
X29027875Y-35508000D01*
X29098076Y-35478922D01*
X29959818Y-34617180D01*
X30021141Y-34583695D01*
X30090833Y-34588679D01*
X30135180Y-34617180D01*
X30960193Y-35442193D01*
X31013922Y-35495922D01*
X31084123Y-35525000D01*
X31084125Y-35525000D01*
X41703989Y-35525000D01*
X41703991Y-35525000D01*
X41774192Y-35495922D01*
X42446295Y-34823819D01*
X42507618Y-34790334D01*
X42533976Y-34787500D01*
X42786884Y-34787500D01*
X42786887Y-34787500D01*
X42824216Y-34782133D01*
X42962171Y-34741626D01*
X42996477Y-34725959D01*
X43117431Y-34648227D01*
X43145933Y-34623529D01*
X43240087Y-34514868D01*
X43260476Y-34483143D01*
X43320204Y-34352358D01*
X43330829Y-34316172D01*
X43351291Y-34173857D01*
X43351291Y-34136144D01*
X43348759Y-34118539D01*
X43347498Y-34100894D01*
X43347498Y-33973978D01*
X43367183Y-33906939D01*
X43383817Y-33886297D01*
X43812472Y-33457642D01*
X44261921Y-33008193D01*
X44290999Y-32937992D01*
X44290999Y-32862008D01*
X44290999Y-29262008D01*
X44261921Y-29191807D01*
X44208192Y-29138078D01*
X43983818Y-28913704D01*
X43950333Y-28852381D01*
X43947499Y-28826023D01*
X43947499Y-28362077D01*
X43947499Y-28362076D01*
X43944710Y-28338037D01*
X43901294Y-28239709D01*
X43825290Y-28163705D01*
X43815811Y-28157212D01*
X43816995Y-28155482D01*
X43774933Y-28119950D01*
X43754408Y-28053163D01*
X43773248Y-27985882D01*
X43809508Y-27948503D01*
X43815054Y-27944797D01*
X43862856Y-27912857D01*
X43921979Y-27824373D01*
X43922745Y-27820526D01*
X43937498Y-27746352D01*
X43937499Y-27746349D01*
X43937499Y-27413651D01*
X43937498Y-27413647D01*
X43921980Y-27335629D01*
X43921979Y-27335628D01*
X43921979Y-27335627D01*
X43862856Y-27247143D01*
X43774372Y-27188020D01*
X43774371Y-27188019D01*
X43774370Y-27188019D01*
X43774369Y-27188018D01*
X43696351Y-27172500D01*
X43696347Y-27172500D01*
X43303651Y-27172500D01*
X43303646Y-27172500D01*
X43225628Y-27188018D01*
X43225627Y-27188019D01*
X43137142Y-27247143D01*
X43103101Y-27298089D01*
X43049489Y-27342894D01*
X42980164Y-27351601D01*
X42917136Y-27321446D01*
X42896897Y-27298089D01*
X42895606Y-27296157D01*
X42862856Y-27247143D01*
X42774372Y-27188020D01*
X42774371Y-27188019D01*
X42774370Y-27188019D01*
X42774369Y-27188018D01*
X42696351Y-27172500D01*
X42696347Y-27172500D01*
X42303651Y-27172500D01*
X42303646Y-27172500D01*
X42225628Y-27188018D01*
X42225627Y-27188019D01*
X42137141Y-27247143D01*
X42102264Y-27299340D01*
X42048652Y-27344144D01*
X41979327Y-27352851D01*
X41916299Y-27322696D01*
X41896062Y-27299340D01*
X41862856Y-27249643D01*
X41859114Y-27247143D01*
X41818912Y-27220281D01*
X41774372Y-27190520D01*
X41774371Y-27190519D01*
X41774370Y-27190519D01*
X41774369Y-27190518D01*
X41696351Y-27175000D01*
X41696347Y-27175000D01*
X41303651Y-27175000D01*
X41303646Y-27175000D01*
X41225628Y-27190518D01*
X41225627Y-27190519D01*
X41137142Y-27249643D01*
X41103101Y-27300589D01*
X41049489Y-27345394D01*
X40980164Y-27354101D01*
X40917136Y-27323946D01*
X40896897Y-27300589D01*
X40895227Y-27298089D01*
X40862856Y-27249643D01*
X40774372Y-27190520D01*
X40774371Y-27190519D01*
X40774370Y-27190519D01*
X40774369Y-27190518D01*
X40696351Y-27175000D01*
X40696347Y-27175000D01*
X40303651Y-27175000D01*
X40303646Y-27175000D01*
X40225628Y-27190518D01*
X40225627Y-27190519D01*
X40137142Y-27249643D01*
X40103936Y-27299339D01*
X40050323Y-27344144D01*
X39980998Y-27352851D01*
X39917971Y-27322696D01*
X39897732Y-27299339D01*
X39862856Y-27247143D01*
X39774372Y-27188020D01*
X39774371Y-27188019D01*
X39774370Y-27188019D01*
X39774369Y-27188018D01*
X39696351Y-27172500D01*
X39696347Y-27172500D01*
X39303651Y-27172500D01*
X39303646Y-27172500D01*
X39225628Y-27188018D01*
X39225627Y-27188019D01*
X39137142Y-27247143D01*
X39103101Y-27298089D01*
X39049489Y-27342894D01*
X38980164Y-27351601D01*
X38917136Y-27321446D01*
X38896897Y-27298089D01*
X38895606Y-27296157D01*
X38862856Y-27247143D01*
X38774372Y-27188020D01*
X38774371Y-27188019D01*
X38774370Y-27188019D01*
X38774369Y-27188018D01*
X38696351Y-27172500D01*
X38696347Y-27172500D01*
X38303651Y-27172500D01*
X38303646Y-27172500D01*
X38225628Y-27188018D01*
X38225627Y-27188019D01*
X38137142Y-27247143D01*
X38078018Y-27335628D01*
X38078017Y-27335629D01*
X38062499Y-27413647D01*
X38062499Y-27746352D01*
X38078017Y-27824370D01*
X38078018Y-27824371D01*
X38078018Y-27824372D01*
X38078019Y-27824373D01*
X38137142Y-27912857D01*
X38186651Y-27945938D01*
X38190490Y-27948503D01*
X38235295Y-28002115D01*
X38244002Y-28071440D01*
X38213847Y-28134468D01*
X38183621Y-28156386D01*
X38184187Y-28157212D01*
X38174707Y-28163705D01*
X38098704Y-28239708D01*
X38055288Y-28338034D01*
X38055288Y-28338036D01*
X38052499Y-28362074D01*
X38052499Y-28842925D01*
X38055288Y-28866963D01*
X38055288Y-28866965D01*
X38098704Y-28965291D01*
X38174708Y-29041295D01*
X38227281Y-29064508D01*
X38277236Y-29086566D01*
X38330612Y-29131652D01*
X38351139Y-29198438D01*
X38332300Y-29265720D01*
X38280077Y-29312137D01*
X38277236Y-29313434D01*
X38174707Y-29358705D01*
X38098704Y-29434708D01*
X38055486Y-29532587D01*
X38010400Y-29585963D01*
X37943613Y-29606490D01*
X37942052Y-29606500D01*
X35864505Y-29606500D01*
X35794305Y-29635578D01*
X35794304Y-29635579D01*
X34292203Y-31137681D01*
X34230880Y-31171166D01*
X34204522Y-31174000D01*
X33197541Y-31174000D01*
X33130502Y-31154315D01*
X33118882Y-31145858D01*
X33113610Y-31141531D01*
X33113606Y-31141529D01*
X33113604Y-31141527D01*
X32935116Y-31046123D01*
X32935113Y-31046122D01*
X32935112Y-31046121D01*
X32935109Y-31046120D01*
X32741424Y-30987367D01*
X32741422Y-30987366D01*
X32741424Y-30987366D01*
X32539999Y-30967528D01*
X32338575Y-30987366D01*
X32234095Y-31019060D01*
X32144889Y-31046120D01*
X32144886Y-31046121D01*
X32144884Y-31046122D01*
X32144881Y-31046123D01*
X31966393Y-31141527D01*
X31966387Y-31141531D01*
X31880163Y-31212293D01*
X31815853Y-31239605D01*
X31746986Y-31227814D01*
X31695426Y-31180661D01*
X31677499Y-31116439D01*
X31677499Y-31018977D01*
X31697184Y-30951938D01*
X31713813Y-30931300D01*
X32782230Y-29862883D01*
X32843551Y-29829400D01*
X32894103Y-29828950D01*
X32899151Y-29829954D01*
X32925000Y-29832500D01*
X32925005Y-29832500D01*
X33424995Y-29832500D01*
X33425000Y-29832500D01*
X33450849Y-29829954D01*
X33546520Y-29810924D01*
X33594284Y-29791140D01*
X33675390Y-29736947D01*
X33696629Y-29715707D01*
X33757950Y-29682223D01*
X33827641Y-29687206D01*
X33883576Y-29729077D01*
X33887413Y-29734500D01*
X33908051Y-29765388D01*
X33908055Y-29765393D01*
X33944607Y-29801945D01*
X33944610Y-29801947D01*
X34025716Y-29856140D01*
X34073480Y-29875924D01*
X34169151Y-29894954D01*
X34195000Y-29897500D01*
X34195005Y-29897500D01*
X34694995Y-29897500D01*
X34695000Y-29897500D01*
X34720849Y-29894954D01*
X34816520Y-29875924D01*
X34864284Y-29856140D01*
X34945390Y-29801947D01*
X34981947Y-29765390D01*
X35036140Y-29684284D01*
X35055924Y-29636520D01*
X35074954Y-29540849D01*
X35077500Y-29515000D01*
X35077500Y-29319107D01*
X35078762Y-29301461D01*
X35079158Y-29298705D01*
X35081293Y-29283857D01*
X35081293Y-29246143D01*
X35078762Y-29228539D01*
X35077500Y-29210893D01*
X35077500Y-28365000D01*
X35071634Y-28338036D01*
X35065526Y-28309958D01*
X35065525Y-28309957D01*
X35065525Y-28309956D01*
X35044846Y-28286091D01*
X35016635Y-28253534D01*
X34969548Y-28239708D01*
X34945001Y-28232500D01*
X34945000Y-28232500D01*
X34760000Y-28232500D01*
X34692961Y-28212815D01*
X34647206Y-28160011D01*
X34636000Y-28108500D01*
X34636000Y-28021500D01*
X34655685Y-27954461D01*
X34708489Y-27908706D01*
X34760000Y-27897500D01*
X34944999Y-27897500D01*
X34945000Y-27897500D01*
X35000042Y-27885526D01*
X35056466Y-27836635D01*
X35077500Y-27765000D01*
X35077500Y-26919107D01*
X35078762Y-26901461D01*
X35079158Y-26898705D01*
X35081293Y-26883857D01*
X35081293Y-26846143D01*
X35078762Y-26828539D01*
X35077500Y-26810893D01*
X35077500Y-26615004D01*
X35077500Y-26615000D01*
X35074954Y-26589151D01*
X35055924Y-26493480D01*
X35036140Y-26445716D01*
X34981947Y-26364610D01*
X34981945Y-26364607D01*
X34945392Y-26328054D01*
X34864287Y-26273862D01*
X34864286Y-26273861D01*
X34864284Y-26273860D01*
X34858182Y-26271332D01*
X34816526Y-26254078D01*
X34816514Y-26254074D01*
X34720866Y-26235049D01*
X34720849Y-26235046D01*
X34695000Y-26232500D01*
X34195000Y-26232500D01*
X34173459Y-26234621D01*
X34169150Y-26235046D01*
X34169133Y-26235049D01*
X34073485Y-26254074D01*
X34073473Y-26254078D01*
X34025720Y-26273858D01*
X34025712Y-26273862D01*
X33944609Y-26328053D01*
X33923369Y-26349293D01*
X33862045Y-26382777D01*
X33792353Y-26377791D01*
X33736420Y-26335918D01*
X33732607Y-26330530D01*
X33711947Y-26299610D01*
X33711944Y-26299607D01*
X33711943Y-26299605D01*
X33675392Y-26263054D01*
X33594287Y-26208862D01*
X33594286Y-26208861D01*
X33594284Y-26208860D01*
X33588182Y-26206332D01*
X33546526Y-26189078D01*
X33546514Y-26189074D01*
X33450866Y-26170049D01*
X33450849Y-26170046D01*
X33425000Y-26167500D01*
X32925000Y-26167500D01*
X32903459Y-26169621D01*
X32899150Y-26170046D01*
X32899133Y-26170049D01*
X32803485Y-26189074D01*
X32803473Y-26189078D01*
X32755720Y-26208858D01*
X32755712Y-26208862D01*
X32674607Y-26263054D01*
X32638054Y-26299607D01*
X32635853Y-26302290D01*
X32634344Y-26303317D01*
X32633745Y-26303917D01*
X32633631Y-26303803D01*
X32578107Y-26341624D01*
X32508263Y-26343495D01*
X32448495Y-26307307D01*
X32444147Y-26302290D01*
X32441945Y-26299607D01*
X32405392Y-26263054D01*
X32324287Y-26208862D01*
X32324286Y-26208861D01*
X32324284Y-26208860D01*
X32318182Y-26206332D01*
X32276526Y-26189078D01*
X32276514Y-26189074D01*
X32180866Y-26170049D01*
X32180849Y-26170046D01*
X32155000Y-26167500D01*
X31655000Y-26167500D01*
X31633459Y-26169621D01*
X31629150Y-26170046D01*
X31629133Y-26170049D01*
X31533485Y-26189074D01*
X31533473Y-26189078D01*
X31485720Y-26208858D01*
X31485712Y-26208862D01*
X31404607Y-26263054D01*
X31368054Y-26299607D01*
X31365853Y-26302290D01*
X31364344Y-26303317D01*
X31363745Y-26303917D01*
X31363631Y-26303803D01*
X31308107Y-26341624D01*
X31238263Y-26343495D01*
X31178495Y-26307307D01*
X31174147Y-26302290D01*
X31171945Y-26299607D01*
X31135392Y-26263054D01*
X31054287Y-26208862D01*
X31054286Y-26208861D01*
X31054284Y-26208860D01*
X31048182Y-26206332D01*
X31006526Y-26189078D01*
X31006514Y-26189074D01*
X30910866Y-26170049D01*
X30910849Y-26170046D01*
X30885000Y-26167500D01*
X30385000Y-26167500D01*
X30363459Y-26169621D01*
X30359150Y-26170046D01*
X30359133Y-26170049D01*
X30263485Y-26189074D01*
X30263473Y-26189078D01*
X30215720Y-26208858D01*
X30215712Y-26208862D01*
X30134607Y-26263054D01*
X30098054Y-26299607D01*
X30095853Y-26302290D01*
X30094344Y-26303317D01*
X30093745Y-26303917D01*
X30093631Y-26303803D01*
X30038107Y-26341624D01*
X29968263Y-26343495D01*
X29908495Y-26307307D01*
X29904147Y-26302290D01*
X29901945Y-26299607D01*
X29865392Y-26263054D01*
X29784287Y-26208862D01*
X29784286Y-26208861D01*
X29784284Y-26208860D01*
X29778182Y-26206332D01*
X29736526Y-26189078D01*
X29736514Y-26189074D01*
X29640866Y-26170049D01*
X29640849Y-26170046D01*
X29615000Y-26167500D01*
X29115000Y-26167500D01*
X29093459Y-26169621D01*
X29089150Y-26170046D01*
X29089133Y-26170049D01*
X28993485Y-26189074D01*
X28993473Y-26189078D01*
X28945720Y-26208858D01*
X28945712Y-26208862D01*
X28864607Y-26263054D01*
X28828054Y-26299607D01*
X28825853Y-26302290D01*
X28824344Y-26303317D01*
X28823745Y-26303917D01*
X28823631Y-26303803D01*
X28768107Y-26341624D01*
X28698263Y-26343495D01*
X28638495Y-26307307D01*
X28634147Y-26302290D01*
X28631945Y-26299607D01*
X28595392Y-26263054D01*
X28514287Y-26208862D01*
X28514286Y-26208861D01*
X28514284Y-26208860D01*
X28508182Y-26206332D01*
X28466526Y-26189078D01*
X28466514Y-26189074D01*
X28370866Y-26170049D01*
X28370849Y-26170046D01*
X28345000Y-26167500D01*
X27845000Y-26167500D01*
X27823459Y-26169621D01*
X27819150Y-26170046D01*
X27819133Y-26170049D01*
X27723485Y-26189074D01*
X27723473Y-26189078D01*
X27675720Y-26208858D01*
X27675712Y-26208862D01*
X27594607Y-26263054D01*
X27558054Y-26299607D01*
X27555853Y-26302290D01*
X27554344Y-26303317D01*
X27553745Y-26303917D01*
X27553631Y-26303803D01*
X27498107Y-26341624D01*
X27428263Y-26343495D01*
X27368495Y-26307307D01*
X27364147Y-26302290D01*
X27361945Y-26299607D01*
X27325392Y-26263054D01*
X27244287Y-26208862D01*
X27244286Y-26208861D01*
X27244284Y-26208860D01*
X27238182Y-26206332D01*
X27196526Y-26189078D01*
X27196514Y-26189074D01*
X27100866Y-26170049D01*
X27100849Y-26170046D01*
X27075000Y-26167500D01*
X26575000Y-26167500D01*
X26553459Y-26169621D01*
X26549150Y-26170046D01*
X26549133Y-26170049D01*
X26453485Y-26189074D01*
X26453473Y-26189078D01*
X26405720Y-26208858D01*
X26405712Y-26208862D01*
X26324607Y-26263054D01*
X26288054Y-26299607D01*
X26233862Y-26380712D01*
X26233858Y-26380720D01*
X26214078Y-26428473D01*
X26214074Y-26428485D01*
X26195049Y-26524133D01*
X26195046Y-26524150D01*
X26192500Y-26550004D01*
X26192500Y-26745893D01*
X26191238Y-26763539D01*
X26188707Y-26781141D01*
X26188707Y-26818858D01*
X26191238Y-26836461D01*
X26192500Y-26854107D01*
X26192500Y-27699999D01*
X26204474Y-27755043D01*
X26228919Y-27783254D01*
X26253365Y-27811466D01*
X26305836Y-27826873D01*
X26324999Y-27832500D01*
X26325000Y-27832500D01*
X26510000Y-27832500D01*
X26577039Y-27852185D01*
X26622794Y-27904989D01*
X26634000Y-27956500D01*
X26634000Y-28043500D01*
X26614315Y-28110539D01*
X26561511Y-28156294D01*
X26510000Y-28167500D01*
X26325000Y-28167500D01*
X26306652Y-28171491D01*
X26269956Y-28179474D01*
X26269956Y-28179475D01*
X26213534Y-28228365D01*
X26192500Y-28299999D01*
X26192500Y-29145893D01*
X26191238Y-29163539D01*
X26188707Y-29181141D01*
X26188707Y-29218858D01*
X26191238Y-29236461D01*
X26192500Y-29254107D01*
X26192500Y-29450000D01*
X26195046Y-29475849D01*
X26195049Y-29475866D01*
X26214074Y-29571514D01*
X26214078Y-29571526D01*
X26233858Y-29619279D01*
X26233862Y-29619287D01*
X26288054Y-29700392D01*
X26324607Y-29736945D01*
X26324610Y-29736947D01*
X26359829Y-29760480D01*
X26404634Y-29814091D01*
X26413343Y-29883416D01*
X26383188Y-29946444D01*
X26378620Y-29951263D01*
X26157203Y-30172681D01*
X26095880Y-30206166D01*
X26069522Y-30209000D01*
X23729226Y-30209000D01*
X23662187Y-30189315D01*
X23641545Y-30172681D01*
X21983818Y-28514954D01*
X21950333Y-28453631D01*
X21947499Y-28427273D01*
X21947499Y-28362077D01*
X21947499Y-28362076D01*
X21944710Y-28338037D01*
X21901294Y-28239709D01*
X21825290Y-28163705D01*
X21815811Y-28157212D01*
X21816995Y-28155482D01*
X21774933Y-28119950D01*
X21754408Y-28053163D01*
X21773248Y-27985882D01*
X21809508Y-27948503D01*
X21815054Y-27944797D01*
X21862856Y-27912857D01*
X21921979Y-27824373D01*
X21922745Y-27820526D01*
X21937498Y-27746352D01*
X21937499Y-27746349D01*
X21937499Y-27413651D01*
X21937498Y-27413647D01*
X21921980Y-27335629D01*
X21921979Y-27335628D01*
X21921979Y-27335627D01*
X21862856Y-27247143D01*
X21774372Y-27188020D01*
X21774371Y-27188019D01*
X21774370Y-27188019D01*
X21774369Y-27188018D01*
X21696351Y-27172500D01*
X21696347Y-27172500D01*
X21303651Y-27172500D01*
X21303646Y-27172500D01*
X21225628Y-27188018D01*
X21225627Y-27188019D01*
X21137142Y-27247143D01*
X21103101Y-27298089D01*
X21049489Y-27342894D01*
X20980164Y-27351601D01*
X20917136Y-27321446D01*
X20896897Y-27298089D01*
X20895606Y-27296157D01*
X20862856Y-27247143D01*
X20774372Y-27188020D01*
X20774371Y-27188019D01*
X20774370Y-27188019D01*
X20774369Y-27188018D01*
X20696351Y-27172500D01*
X20696347Y-27172500D01*
X20303651Y-27172500D01*
X20303646Y-27172500D01*
X20225628Y-27188018D01*
X20225627Y-27188019D01*
X20137142Y-27247143D01*
X20103101Y-27298089D01*
X20049489Y-27342894D01*
X19980164Y-27351601D01*
X19917136Y-27321446D01*
X19896897Y-27298089D01*
X19895606Y-27296157D01*
X19862856Y-27247143D01*
X19774372Y-27188020D01*
X19774371Y-27188019D01*
X19774370Y-27188019D01*
X19774369Y-27188018D01*
X19696351Y-27172500D01*
X19696347Y-27172500D01*
X19303651Y-27172500D01*
X19303646Y-27172500D01*
X19225628Y-27188018D01*
X19225627Y-27188019D01*
X19137142Y-27247143D01*
X19103101Y-27298089D01*
X19049489Y-27342894D01*
X18980164Y-27351601D01*
X18917136Y-27321446D01*
X18896897Y-27298089D01*
X18895606Y-27296157D01*
X18862856Y-27247143D01*
X18774372Y-27188020D01*
X18774371Y-27188019D01*
X18774370Y-27188019D01*
X18774369Y-27188018D01*
X18696351Y-27172500D01*
X18696347Y-27172500D01*
X18303651Y-27172500D01*
X18303646Y-27172500D01*
X18225628Y-27188018D01*
X18225627Y-27188019D01*
X18137142Y-27247143D01*
X18103101Y-27298089D01*
X18049489Y-27342894D01*
X17980164Y-27351601D01*
X17917136Y-27321446D01*
X17896897Y-27298089D01*
X17895606Y-27296157D01*
X17862856Y-27247143D01*
X17774372Y-27188020D01*
X17774371Y-27188019D01*
X17774370Y-27188019D01*
X17774369Y-27188018D01*
X17696351Y-27172500D01*
X17696347Y-27172500D01*
X17303651Y-27172500D01*
X17303646Y-27172500D01*
X17225628Y-27188018D01*
X17225627Y-27188019D01*
X17137142Y-27247143D01*
X17103101Y-27298089D01*
X17049489Y-27342894D01*
X16980164Y-27351601D01*
X16917136Y-27321446D01*
X16896897Y-27298089D01*
X16895606Y-27296157D01*
X16862856Y-27247143D01*
X16774372Y-27188020D01*
X16774371Y-27188019D01*
X16774370Y-27188019D01*
X16774369Y-27188018D01*
X16696351Y-27172500D01*
X16696347Y-27172500D01*
X16303651Y-27172500D01*
X16303646Y-27172500D01*
X16225628Y-27188018D01*
X16225627Y-27188019D01*
X16137142Y-27247143D01*
X16078018Y-27335628D01*
X16078017Y-27335629D01*
X16062499Y-27413647D01*
X16062499Y-27746352D01*
X16078017Y-27824370D01*
X16078018Y-27824371D01*
X16078018Y-27824372D01*
X16078019Y-27824373D01*
X16137142Y-27912857D01*
X16186651Y-27945938D01*
X16190490Y-27948503D01*
X16235295Y-28002115D01*
X16244002Y-28071440D01*
X16213847Y-28134468D01*
X16183621Y-28156386D01*
X16184187Y-28157212D01*
X16174707Y-28163705D01*
X16098704Y-28239708D01*
X16055288Y-28338034D01*
X16055288Y-28338036D01*
X16052499Y-28362074D01*
X15010499Y-28362074D01*
X15010499Y-26505412D01*
X15010971Y-26494605D01*
X15020935Y-26380716D01*
X15024586Y-26338978D01*
X15028337Y-26317704D01*
X15067366Y-26172044D01*
X15074758Y-26151739D01*
X15112261Y-26071313D01*
X15138485Y-26015074D01*
X15149282Y-25996373D01*
X15235778Y-25872843D01*
X15249661Y-25856297D01*
X15356298Y-25749661D01*
X15372837Y-25735783D01*
X15496369Y-25649284D01*
X15515079Y-25638483D01*
X15651737Y-25574758D01*
X15672043Y-25567366D01*
X15817703Y-25528337D01*
X15838977Y-25524586D01*
X15994593Y-25510971D01*
X16005400Y-25510500D01*
X43994587Y-25510500D01*
X44005393Y-25510971D01*
G37*
%TD.AperFunction*%
%TD*%
M02*
