%TF.GenerationSoftware,KiCad,Pcbnew,8.0.4-unknown-202407232306~396e531e7c~ubuntu22.04.1*%
%TF.CreationDate,2024-08-12T16:54:32+01:00*%
%TF.ProjectId,DRY_ELEC_6CH,4452595f-454c-4454-935f-3643482e6b69,1.0*%
%TF.SameCoordinates,Original*%
%TF.FileFunction,Paste,Top*%
%TF.FilePolarity,Positive*%
%FSLAX46Y46*%
G04 Gerber Fmt 4.6, Leading zero omitted, Abs format (unit mm)*
G04 Created by KiCad (PCBNEW 8.0.4-unknown-202407232306~396e531e7c~ubuntu22.04.1) date 2024-08-12 16:54:32*
%MOMM*%
%LPD*%
G01*
G04 APERTURE LIST*
G04 Aperture macros list*
%AMRoundRect*
0 Rectangle with rounded corners*
0 $1 Rounding radius*
0 $2 $3 $4 $5 $6 $7 $8 $9 X,Y pos of 4 corners*
0 Add a 4 corners polygon primitive as box body*
4,1,4,$2,$3,$4,$5,$6,$7,$8,$9,$2,$3,0*
0 Add four circle primitives for the rounded corners*
1,1,$1+$1,$2,$3*
1,1,$1+$1,$4,$5*
1,1,$1+$1,$6,$7*
1,1,$1+$1,$8,$9*
0 Add four rect primitives between the rounded corners*
20,1,$1+$1,$2,$3,$4,$5,0*
20,1,$1+$1,$4,$5,$6,$7,0*
20,1,$1+$1,$6,$7,$8,$9,0*
20,1,$1+$1,$8,$9,$2,$3,0*%
G04 Aperture macros list end*
%ADD10RoundRect,0.140000X0.170000X-0.140000X0.170000X0.140000X-0.170000X0.140000X-0.170000X-0.140000X0*%
%ADD11RoundRect,0.160000X0.160000X-0.197500X0.160000X0.197500X-0.160000X0.197500X-0.160000X-0.197500X0*%
G04 APERTURE END LIST*
D10*
%TO.C,C9*%
X18499999Y-27580000D03*
X18499999Y-26620000D03*
%TD*%
D11*
%TO.C,R6*%
X43499999Y-29797500D03*
X43499999Y-28602500D03*
%TD*%
D10*
%TO.C,C2*%
X39499999Y-27580000D03*
X39499999Y-26620000D03*
%TD*%
%TO.C,C5*%
X42499999Y-27580000D03*
X42499999Y-26620000D03*
%TD*%
%TO.C,C8*%
X17499999Y-27580000D03*
X17499999Y-26620000D03*
%TD*%
D11*
%TO.C,R7*%
X16499999Y-29797500D03*
X16499999Y-28602500D03*
%TD*%
%TO.C,R12*%
X21499999Y-29797500D03*
X21499999Y-28602500D03*
%TD*%
D10*
%TO.C,C4*%
X41499999Y-27582500D03*
X41499999Y-26622500D03*
%TD*%
D11*
%TO.C,R9*%
X18499999Y-29797500D03*
X18499999Y-28602500D03*
%TD*%
D10*
%TO.C,C1*%
X38499999Y-27580000D03*
X38499999Y-26620000D03*
%TD*%
D11*
%TO.C,R11*%
X20499999Y-29797500D03*
X20499999Y-28602500D03*
%TD*%
%TO.C,R10*%
X19499999Y-29797500D03*
X19499999Y-28602500D03*
%TD*%
D10*
%TO.C,C6*%
X43499999Y-27580000D03*
X43499999Y-26620000D03*
%TD*%
D11*
%TO.C,R2*%
X39499999Y-29797500D03*
X39499999Y-28602500D03*
%TD*%
%TO.C,R4*%
X41499999Y-29800000D03*
X41499999Y-28605000D03*
%TD*%
D10*
%TO.C,C7*%
X16499999Y-27580000D03*
X16499999Y-26620000D03*
%TD*%
%TO.C,C3*%
X40499999Y-27582500D03*
X40499999Y-26622500D03*
%TD*%
D11*
%TO.C,R1*%
X38499999Y-29797500D03*
X38499999Y-28602500D03*
%TD*%
%TO.C,R8*%
X17499999Y-29797500D03*
X17499999Y-28602500D03*
%TD*%
D10*
%TO.C,C11*%
X20499999Y-27580000D03*
X20499999Y-26620000D03*
%TD*%
%TO.C,C12*%
X21499999Y-27580000D03*
X21499999Y-26620000D03*
%TD*%
%TO.C,C10*%
X19499999Y-27580000D03*
X19499999Y-26620000D03*
%TD*%
D11*
%TO.C,R3*%
X40499999Y-29800000D03*
X40499999Y-28605000D03*
%TD*%
%TO.C,R5*%
X42499999Y-29797500D03*
X42499999Y-28602500D03*
%TD*%
M02*
