%TF.GenerationSoftware,KiCad,Pcbnew,10.0.0-10.0.0~ubuntu24.04.1*%
%TF.CreationDate,2026-04-12T20:08:04+01:00*%
%TF.ProjectId,XIAO_COM,5849414f-5f43-44f4-9d2e-6b696361645f,v1.0*%
%TF.SameCoordinates,Original*%
%TF.FileFunction,Copper,L1,Top*%
%TF.FilePolarity,Positive*%
%FSLAX46Y46*%
G04 Gerber Fmt 4.6, Leading zero omitted, Abs format (unit mm)*
G04 Created by KiCad (PCBNEW 10.0.0-10.0.0~ubuntu24.04.1) date 2026-04-12 20:08:04*
%MOMM*%
%LPD*%
G01*
G04 APERTURE LIST*
G04 Aperture macros list*
%AMRoundRect*
0 Rectangle with rounded corners*
0 $1 Rounding radius*
0 $2 $3 $4 $5 $6 $7 $8 $9 X,Y pos of 4 corners*
0 Add a 4 corners polygon primitive as box body*
4,1,4,$2,$3,$4,$5,$6,$7,$8,$9,$2,$3,0*
0 Add four circle primitives for the rounded corners*
1,1,$1+$1,$2,$3*
1,1,$1+$1,$4,$5*
1,1,$1+$1,$6,$7*
1,1,$1+$1,$8,$9*
0 Add four rect primitives between the rounded corners*
20,1,$1+$1,$2,$3,$4,$5,0*
20,1,$1+$1,$4,$5,$6,$7,0*
20,1,$1+$1,$6,$7,$8,$9,0*
20,1,$1+$1,$8,$9,$2,$3,0*%
%AMFreePoly0*
4,1,23,0.550000,-0.750000,0.000000,-0.750000,0.000000,-0.745722,-0.065263,-0.745722,-0.191342,-0.711940,-0.304381,-0.646677,-0.396677,-0.554381,-0.461940,-0.441342,-0.495722,-0.315263,-0.495722,-0.250000,-0.500000,-0.250000,-0.500000,0.250000,-0.495722,0.250000,-0.495722,0.315263,-0.461940,0.441342,-0.396677,0.554381,-0.304381,0.646677,-0.191342,0.711940,-0.065263,0.745722,0.000000,0.745722,
0.000000,0.750000,0.550000,0.750000,0.550000,-0.750000,0.550000,-0.750000,$1*%
%AMFreePoly1*
4,1,23,0.000000,0.745722,0.065263,0.745722,0.191342,0.711940,0.304381,0.646677,0.396677,0.554381,0.461940,0.441342,0.495722,0.315263,0.495722,0.250000,0.500000,0.250000,0.500000,-0.250000,0.495722,-0.250000,0.495722,-0.315263,0.461940,-0.441342,0.396677,-0.554381,0.304381,-0.646677,0.191342,-0.711940,0.065263,-0.745722,0.000000,-0.745722,0.000000,-0.750000,-0.550000,-0.750000,
-0.550000,0.750000,0.000000,0.750000,0.000000,0.745722,0.000000,0.745722,$1*%
G04 Aperture macros list end*
%TA.AperFunction,EtchedComponent*%
%ADD10C,0.000000*%
%TD*%
%TA.AperFunction,SMDPad,CuDef*%
%ADD11C,0.240000*%
%TD*%
%TA.AperFunction,SMDPad,CuDef*%
%ADD12RoundRect,0.100000X-0.100000X0.130000X-0.100000X-0.130000X0.100000X-0.130000X0.100000X0.130000X0*%
%TD*%
%TA.AperFunction,SMDPad,CuDef*%
%ADD13R,0.900000X0.700000*%
%TD*%
%TA.AperFunction,SMDPad,CuDef*%
%ADD14FreePoly0,0.000000*%
%TD*%
%TA.AperFunction,SMDPad,CuDef*%
%ADD15R,1.000000X1.500000*%
%TD*%
%TA.AperFunction,SMDPad,CuDef*%
%ADD16FreePoly1,0.000000*%
%TD*%
%TA.AperFunction,ComponentPad*%
%ADD17R,1.000000X1.000000*%
%TD*%
%TA.AperFunction,ComponentPad*%
%ADD18C,1.000000*%
%TD*%
%TA.AperFunction,SMDPad,CuDef*%
%ADD19RoundRect,0.100000X0.130000X0.100000X-0.130000X0.100000X-0.130000X-0.100000X0.130000X-0.100000X0*%
%TD*%
%TA.AperFunction,SMDPad,CuDef*%
%ADD20RoundRect,0.100000X-0.130000X-0.100000X0.130000X-0.100000X0.130000X0.100000X-0.130000X0.100000X0*%
%TD*%
%TA.AperFunction,ComponentPad*%
%ADD21C,1.524000*%
%TD*%
%TA.AperFunction,ViaPad*%
%ADD22C,0.400000*%
%TD*%
%TA.AperFunction,ViaPad*%
%ADD23C,0.450000*%
%TD*%
%TA.AperFunction,Conductor*%
%ADD24C,0.170000*%
%TD*%
%TA.AperFunction,Conductor*%
%ADD25C,0.200000*%
%TD*%
%TA.AperFunction,Conductor*%
%ADD26C,0.150000*%
%TD*%
G04 APERTURE END LIST*
D10*
%TA.AperFunction,EtchedComponent*%
%TO.C,JP1*%
G36*
X76120761Y-68540761D02*
G01*
X75620761Y-68540761D01*
X75620761Y-67940761D01*
X76120761Y-67940761D01*
X76120761Y-68540761D01*
G37*
%TD.AperFunction*%
%TD*%
D11*
%TO.P,U6,A1,GPOUT_A1*%
%TO.N,Net-(U6-GPOUT)*%
X82010000Y-72060000D03*
%TO.P,U6,A2,SDA_A2*%
%TO.N,/I2C_SDA*%
X82009999Y-72560000D03*
%TO.P,U6,A3,SCL_A3*%
%TO.N,/I2C_SCL*%
X82010000Y-73060000D03*
%TO.P,U6,B1,BIN_B1*%
%TO.N,Net-(U6-BIN)*%
X81510000Y-72060001D03*
%TO.P,U6,B2,VSS_B2*%
%TO.N,GND*%
X81510000Y-72560000D03*
%TO.P,U6,B3,VDD_B3*%
%TO.N,Net-(U6-VDD)*%
X81510000Y-73059999D03*
%TO.P,U6,C1,VSS_C1*%
%TO.N,GND*%
X81010000Y-72060000D03*
%TO.P,U6,C2,SRX_C2*%
%TO.N,Vsrx*%
X81010001Y-72560000D03*
%TO.P,U6,C3,BAT_C3*%
%TO.N,+BATT*%
X81010000Y-73060000D03*
%TD*%
D12*
%TO.P,R17,1*%
%TO.N,+3.3V*%
X83235001Y-70645000D03*
%TO.P,R17,2*%
%TO.N,Net-(U6-GPOUT)*%
X83235001Y-71285000D03*
%TD*%
D13*
%TO.P,U10,1,DO_1*%
%TO.N,unconnected-(U10-DO-Pad1)*%
X80900000Y-67750000D03*
%TO.P,U10,2,GND_2*%
%TO.N,GND*%
X80900000Y-68850000D03*
%TO.P,U10,3,DI_3*%
%TO.N,/IO1*%
X82740000Y-68850000D03*
%TO.P,U10,4,VDD_4*%
%TO.N,+3.3V*%
X82740000Y-67750000D03*
%TD*%
D14*
%TO.P,JP1,1,A_1*%
%TO.N,Vsrx*%
X75220761Y-68240761D03*
D15*
%TO.P,JP1,2,C_2*%
%TO.N,Net-(J1-Pin_1)*%
X76520761Y-68240761D03*
D16*
%TO.P,JP1,3,B_3*%
%TO.N,+BATT*%
X77820761Y-68240761D03*
%TD*%
D17*
%TO.P,J2,1,Pin_1_1*%
%TO.N,+BATT*%
X78150000Y-71850000D03*
D18*
%TO.P,J2,2,Pin_2_2*%
%TO.N,GND*%
X78150000Y-73120000D03*
%TD*%
D17*
%TO.P,J1,1,Pin_1_1*%
%TO.N,Net-(J1-Pin_1)*%
X74650000Y-71850000D03*
D18*
%TO.P,J1,2,Pin_2_2*%
%TO.N,GND*%
X74650000Y-73120000D03*
%TD*%
D19*
%TO.P,C28,1*%
%TO.N,Net-(U6-VDD)*%
X81555000Y-73964999D03*
%TO.P,C28,2*%
%TO.N,GND*%
X80915000Y-73964999D03*
%TD*%
D17*
%TO.P,J4,1,Pin_1_1*%
%TO.N,/AUX1*%
X72185000Y-76600000D03*
D18*
%TO.P,J4,2,Pin_2_2*%
%TO.N,+3.3V*%
X73455001Y-76600000D03*
%TO.P,J4,3,Pin_3_3*%
%TO.N,GND*%
X74725000Y-76600000D03*
%TO.P,J4,4,Pin_4_4*%
%TO.N,/AUX3*%
X75995000Y-76600000D03*
%TO.P,J4,5,Pin_5_5*%
%TO.N,/IO8*%
X77264999Y-76600000D03*
%TO.P,J4,6,Pin_6_6*%
%TO.N,/IO9*%
X78535000Y-76600000D03*
%TO.P,J4,7,Pin_7_7*%
%TO.N,/IO7*%
X79805000Y-76600000D03*
%TO.P,J4,8,Pin_8_8*%
%TO.N,/CSB*%
X81075000Y-76600000D03*
%TO.P,J4,9,Pin_9_9*%
%TO.N,/extRef*%
X82345000Y-76600000D03*
%TO.P,J4,10,Pin_10_10*%
%TO.N,/AUX2*%
X83615001Y-76600000D03*
%TD*%
D20*
%TO.P,R10,1*%
%TO.N,GND*%
X80915000Y-70965000D03*
%TO.P,R10,2*%
%TO.N,Net-(U6-BIN)*%
X81555000Y-70965000D03*
%TD*%
D21*
%TO.P,U1,1,GPIO1/A0/D0_1*%
%TO.N,/IO1*%
X85520000Y-67980000D03*
%TO.P,U1,2,GPIO2/A1/D1_2*%
%TO.N,/I2C_SDA*%
X85520000Y-70520000D03*
%TO.P,U1,3,GPIO3/A2/D2_3*%
%TO.N,/I2C_SCL*%
X85520000Y-73060000D03*
%TO.P,U1,4,GPIO4/A3/D3_4*%
%TO.N,/AUX2*%
X85520000Y-75600000D03*
%TO.P,U1,5,GPIO5/D4/SDA_5*%
%TO.N,/CS_ACC*%
X85520000Y-78140000D03*
%TO.P,U1,6,GPIO6/D5/SCL_6*%
%TO.N,/INT1_ACC*%
X85520000Y-80680000D03*
%TO.P,U1,7,GPIO43/D6/TX_7*%
%TO.N,/FSYNC*%
X85520000Y-83220000D03*
%TO.P,U1,8,GPIO44/D7/RX_8*%
%TO.N,/CSB*%
X70280000Y-83220000D03*
%TO.P,U1,9,GPIO7/D8/SCK_9*%
%TO.N,/IO7*%
X70280000Y-80680000D03*
%TO.P,U1,10,GPIO8/D9/MISO_10*%
%TO.N,/IO8*%
X70280000Y-78140000D03*
%TO.P,U1,11,GPIO9/D10/MOSI_11*%
%TO.N,/IO9*%
X70280000Y-75600000D03*
%TO.P,U1,12,VCC_3V3_12*%
%TO.N,+3.3V*%
X70280000Y-73060000D03*
%TO.P,U1,13,GND_13*%
%TO.N,GND*%
X70280000Y-70520000D03*
%TO.P,U1,14,VBUS_14*%
%TO.N,unconnected-(U1-VBUS-Pad14)*%
X70280000Y-67980000D03*
%TD*%
D22*
%TO.N,GND*%
X81300000Y-81300000D03*
X78100000Y-81000000D03*
X83400000Y-81400000D03*
D23*
X80900000Y-70100000D03*
%TO.N,+3.3V*%
X83740000Y-67710000D03*
D22*
%TO.N,/IO8*%
X78600000Y-80200000D03*
X84000000Y-80600000D03*
%TO.N,/IO7*%
X78252500Y-78152500D03*
%TO.N,/CS_ACC*%
X79600000Y-79800000D03*
%TO.N,/FSYNC*%
X80200000Y-83300000D03*
%TD*%
%TO.N,Net-(U6-GPOUT)*%
D24*
X83235000Y-71285000D02*
X82785000Y-71285000D01*
X82785000Y-71285000D02*
X82010000Y-72060000D01*
%TO.N,/I2C_SDA*%
X83480000Y-72560000D02*
X85520000Y-70520000D01*
X82009999Y-72560000D02*
X83480000Y-72560000D01*
%TO.N,/I2C_SCL*%
X82010000Y-73060000D02*
X85520000Y-73060000D01*
%TO.N,Net-(U6-BIN)*%
X81510000Y-71009999D02*
X81555000Y-70965000D01*
X81509999Y-72060000D02*
X81510000Y-71009999D01*
%TO.N,GND*%
X80915000Y-70965000D02*
X80915000Y-70115000D01*
X79479999Y-73964999D02*
X78635000Y-73120000D01*
D25*
X80900000Y-68850000D02*
X80900000Y-70100000D01*
D24*
X80915000Y-73964999D02*
X79479999Y-73964999D01*
X81010000Y-71060000D02*
X80915000Y-70965000D01*
X80915000Y-70115000D02*
X80900000Y-70100000D01*
X81510000Y-72560000D02*
X81010000Y-72060000D01*
X78635000Y-73120000D02*
X78150000Y-73120000D01*
X81010000Y-72060000D02*
X81010000Y-71060000D01*
%TO.N,Net-(U6-VDD)*%
X81510000Y-73060000D02*
X81510000Y-73920000D01*
X81510000Y-73920000D02*
X81555000Y-73965000D01*
%TO.N,Vsrx*%
X81010001Y-72560000D02*
X80480000Y-72560000D01*
X79910000Y-67930000D02*
X78900000Y-66920000D01*
X75220761Y-67329239D02*
X75220761Y-68240761D01*
X78900000Y-66920000D02*
X75630000Y-66920000D01*
X75630000Y-66920000D02*
X75220761Y-67329239D01*
X80480000Y-72560000D02*
X79910000Y-71990000D01*
X79910000Y-71990000D02*
X79910000Y-67930000D01*
%TO.N,+BATT*%
X79845000Y-73060000D02*
X78635000Y-71850000D01*
X81010000Y-73060000D02*
X79845000Y-73060000D01*
X78635000Y-71850000D02*
X78150000Y-71850000D01*
X77820761Y-71035761D02*
X78150000Y-71365000D01*
X78150000Y-71365000D02*
X78150000Y-71850000D01*
X77820761Y-68240761D02*
X77820761Y-71035761D01*
%TO.N,+3.3V*%
X81870000Y-68620000D02*
X81870000Y-69320000D01*
D25*
X83740000Y-67710000D02*
X82780000Y-67710000D01*
D24*
X81910001Y-69320000D02*
X81870000Y-69320000D01*
X82740000Y-67750000D02*
X81870000Y-68620000D01*
X83235001Y-70645000D02*
X81910001Y-69320000D01*
D25*
X82780000Y-67710000D02*
X82740000Y-67750000D01*
%TO.N,/IO1*%
D24*
X84650000Y-68850000D02*
X85520000Y-67980000D01*
X82740000Y-68850000D02*
X84650000Y-68850000D01*
%TO.N,Net-(J1-Pin_1)*%
X76520761Y-68240761D02*
X76520761Y-70684239D01*
X76520761Y-70684239D02*
X75355000Y-71850000D01*
X75355000Y-71850000D02*
X74650000Y-71850000D01*
%TO.N,/IO8*%
D26*
X79000000Y-80600000D02*
X84000000Y-80600000D01*
D24*
X75724999Y-78140000D02*
X77264999Y-76600000D01*
D26*
X78600000Y-80200000D02*
X79000000Y-80600000D01*
D24*
X70280000Y-78140000D02*
X75724999Y-78140000D01*
%TO.N,/IO9*%
X77535000Y-75600000D02*
X78535000Y-76600000D01*
X70280000Y-75600000D02*
X77535000Y-75600000D01*
%TO.N,/IO7*%
X78252500Y-78152500D02*
X79805000Y-76600000D01*
X75725000Y-80680000D02*
X78252500Y-78152500D01*
X70280000Y-80680000D02*
X75725000Y-80680000D01*
%TO.N,/CSB*%
X74455000Y-83220000D02*
X81075000Y-76600000D01*
X70280000Y-83220000D02*
X74455000Y-83220000D01*
%TO.N,/AUX2*%
X85520000Y-75600000D02*
X84520000Y-76600000D01*
X84520000Y-76600000D02*
X83615001Y-76600000D01*
%TO.N,/CS_ACC*%
D26*
X85520000Y-78140000D02*
X81260000Y-78140000D01*
X81260000Y-78140000D02*
X79600000Y-79800000D01*
%TO.N,/FSYNC*%
X80200000Y-83300000D02*
X80280000Y-83220000D01*
X80280000Y-83220000D02*
X85520000Y-83220000D01*
%TD*%
%TA.AperFunction,Conductor*%
%TO.N,/AUX2*%
G36*
X83816936Y-76143058D02*
G01*
X83817430Y-76143276D01*
X84522200Y-76474877D01*
X84525490Y-76477190D01*
X84633291Y-76584991D01*
X84636718Y-76593264D01*
X84633291Y-76601537D01*
X84630704Y-76603489D01*
X83817793Y-77055572D01*
X83808898Y-77056598D01*
X83801882Y-77051033D01*
X83801306Y-77049844D01*
X83616162Y-76605195D01*
X83616146Y-76596245D01*
X83801645Y-76149376D01*
X83807981Y-76143051D01*
X83816936Y-76143058D01*
G37*
%TD.AperFunction*%
%TD*%
%TA.AperFunction,Conductor*%
%TO.N,+BATT*%
G36*
X77908613Y-70981951D02*
G01*
X78419598Y-71302604D01*
X78484784Y-71343509D01*
X78489970Y-71350809D01*
X78488475Y-71359638D01*
X78488200Y-71360056D01*
X78157979Y-71839416D01*
X78150464Y-71844285D01*
X78141707Y-71842414D01*
X78140068Y-71841048D01*
X77654580Y-71354589D01*
X77651162Y-71346314D01*
X77651463Y-71343690D01*
X77733661Y-70989219D01*
X77738869Y-70981934D01*
X77745059Y-70980162D01*
X77902395Y-70980162D01*
X77908613Y-70981951D01*
G37*
%TD.AperFunction*%
%TD*%
%TA.AperFunction,Conductor*%
%TO.N,/IO1*%
G36*
X83195224Y-68504628D02*
G01*
X83195727Y-68504833D01*
X83198372Y-68506338D01*
X83338840Y-68612693D01*
X83533507Y-68760084D01*
X83536537Y-68763495D01*
X83538393Y-68766661D01*
X83540000Y-68772578D01*
X83540000Y-68926854D01*
X83539109Y-68931332D01*
X83537704Y-68934723D01*
X83533958Y-68939573D01*
X83199005Y-69193180D01*
X83194897Y-69195173D01*
X83192323Y-69195845D01*
X83184836Y-69195310D01*
X83184341Y-69195102D01*
X83181700Y-69193559D01*
X82851692Y-68937455D01*
X82838032Y-68926854D01*
X82752744Y-68860666D01*
X82749757Y-68857221D01*
X82748873Y-68855671D01*
X82747755Y-68846790D01*
X82747755Y-68846789D01*
X82747972Y-68845997D01*
X82752082Y-68839847D01*
X83181079Y-68506922D01*
X83185157Y-68504883D01*
X83187726Y-68504180D01*
X83195224Y-68504628D01*
G37*
%TD.AperFunction*%
%TD*%
%TA.AperFunction,Conductor*%
%TO.N,+3.3V*%
G36*
X82731393Y-67748377D02*
G01*
X82735760Y-67749701D01*
X82738039Y-67750919D01*
X82738610Y-67751224D01*
X82744291Y-67758146D01*
X82743882Y-67762301D01*
X82879721Y-68087231D01*
X82879757Y-68087319D01*
X82880662Y-68091861D01*
X82880657Y-68093758D01*
X82877344Y-68101885D01*
X82876205Y-68103056D01*
X82872626Y-68105564D01*
X82212105Y-68403313D01*
X82207658Y-68404341D01*
X82204680Y-68404433D01*
X82198038Y-68402610D01*
X82198016Y-68402596D01*
X82196024Y-68400998D01*
X82089286Y-68294260D01*
X82086752Y-68290469D01*
X82085549Y-68287567D01*
X82085338Y-68279164D01*
X82286150Y-67715822D01*
X82288491Y-67711907D01*
X82290237Y-67709976D01*
X82296900Y-67706301D01*
X82297528Y-67706191D01*
X82300673Y-67706074D01*
X82731393Y-67748377D01*
G37*
%TD.AperFunction*%
%TD*%
%TA.AperFunction,Conductor*%
%TO.N,/IO7*%
G36*
X79354352Y-76413311D02*
G01*
X79801203Y-76597437D01*
X79807546Y-76603757D01*
X79807563Y-76603797D01*
X79991685Y-77050639D01*
X79991668Y-77059593D01*
X79985324Y-77065914D01*
X79984848Y-77066098D01*
X79168016Y-77361655D01*
X79159070Y-77361247D01*
X79155762Y-77358926D01*
X79046073Y-77249237D01*
X79042646Y-77240964D01*
X79043343Y-77236988D01*
X79338901Y-76420150D01*
X79344938Y-76413538D01*
X79353884Y-76413130D01*
X79354352Y-76413311D01*
G37*
%TD.AperFunction*%
%TD*%
%TA.AperFunction,Conductor*%
%TO.N,/I2C_SDA*%
G36*
X85514703Y-70517479D02*
G01*
X85521632Y-70523152D01*
X85522520Y-70525296D01*
X85737893Y-71238253D01*
X85737005Y-71247163D01*
X85730344Y-71252752D01*
X84511904Y-71652895D01*
X84502974Y-71652220D01*
X84499980Y-71650052D01*
X84389947Y-71540019D01*
X84386520Y-71531746D01*
X84387102Y-71528102D01*
X84787247Y-70309654D01*
X84793084Y-70302865D01*
X84801745Y-70302106D01*
X85514703Y-70517479D01*
G37*
%TD.AperFunction*%
%TD*%
%TA.AperFunction,Conductor*%
%TO.N,+3.3V*%
G36*
X83196863Y-67404118D02*
G01*
X83534320Y-67606592D01*
X83539651Y-67613787D01*
X83540000Y-67616625D01*
X83540000Y-67804220D01*
X83536573Y-67812493D01*
X83535412Y-67813511D01*
X83196931Y-68072607D01*
X83188278Y-68074914D01*
X83182939Y-68072779D01*
X83108661Y-68018773D01*
X82751594Y-67759157D01*
X82746918Y-67751521D01*
X82749012Y-67742815D01*
X82751298Y-67740456D01*
X83183675Y-67404908D01*
X83192310Y-67402544D01*
X83196863Y-67404118D01*
G37*
%TD.AperFunction*%
%TD*%
%TA.AperFunction,Conductor*%
%TO.N,+BATT*%
G36*
X77831779Y-68269898D02*
G01*
X77832296Y-68271093D01*
X78068975Y-68913984D01*
X78068617Y-68922932D01*
X78068378Y-68923419D01*
X77909037Y-69230176D01*
X77902182Y-69235938D01*
X77898654Y-69236483D01*
X77741997Y-69236483D01*
X77733724Y-69233056D01*
X77732284Y-69231305D01*
X77731526Y-69230176D01*
X77573961Y-68995527D01*
X77572195Y-68986751D01*
X77572570Y-68985325D01*
X77810215Y-68271439D01*
X77816079Y-68264672D01*
X77825011Y-68264034D01*
X77831779Y-68269898D01*
G37*
%TD.AperFunction*%
%TD*%
%TA.AperFunction,Conductor*%
%TO.N,/CSB*%
G36*
X80626308Y-76414117D02*
G01*
X80636782Y-76418433D01*
X81069052Y-76596550D01*
X81072852Y-76599080D01*
X81075881Y-76602098D01*
X81079323Y-76610365D01*
X81078919Y-76611343D01*
X81260782Y-77048450D01*
X81261680Y-77052964D01*
X81261677Y-77054745D01*
X81258236Y-77063012D01*
X81258231Y-77063017D01*
X81257139Y-77064104D01*
X81252866Y-77066814D01*
X80440204Y-77360862D01*
X80435692Y-77361548D01*
X80432569Y-77361406D01*
X80424827Y-77357991D01*
X80317718Y-77250882D01*
X80315182Y-77247087D01*
X80313986Y-77244200D01*
X80313793Y-77235744D01*
X80608109Y-76422336D01*
X80610466Y-76418435D01*
X80611669Y-76417117D01*
X80619774Y-76413317D01*
X80620969Y-76413262D01*
X80621320Y-76413247D01*
X80626308Y-76414117D01*
G37*
%TD.AperFunction*%
%TD*%
%TA.AperFunction,Conductor*%
%TO.N,Net-(U6-BIN)*%
G36*
X81559408Y-70969690D02*
G01*
X81560241Y-70970141D01*
X81563050Y-70972264D01*
X81727310Y-71140863D01*
X81729796Y-71144691D01*
X81730732Y-71147036D01*
X81731056Y-71154790D01*
X81730838Y-71155504D01*
X81729453Y-71158470D01*
X81599730Y-71357731D01*
X81596542Y-71360997D01*
X81593697Y-71362948D01*
X81587080Y-71364999D01*
X81435673Y-71364999D01*
X81431196Y-71364108D01*
X81428533Y-71363005D01*
X81423068Y-71358364D01*
X81422968Y-71358204D01*
X81421849Y-71355846D01*
X81341008Y-71121021D01*
X81340393Y-71116498D01*
X81340555Y-71113853D01*
X81343415Y-71106878D01*
X81343779Y-71106460D01*
X81346068Y-71104443D01*
X81544975Y-70970738D01*
X81549181Y-70968983D01*
X81551528Y-70968510D01*
X81559408Y-70969690D01*
G37*
%TD.AperFunction*%
%TD*%
%TA.AperFunction,Conductor*%
%TO.N,+3.3V*%
G36*
X82977079Y-70264079D02*
G01*
X82977183Y-70264104D01*
X82979650Y-70264979D01*
X83150554Y-70348171D01*
X83277415Y-70409924D01*
X83281049Y-70412683D01*
X83282744Y-70414595D01*
X83285671Y-70421703D01*
X83285710Y-70422401D01*
X83285440Y-70425633D01*
X83237563Y-70637493D01*
X83235708Y-70641663D01*
X83233660Y-70644563D01*
X83228534Y-70648642D01*
X83046952Y-70722950D01*
X83042471Y-70723822D01*
X83040350Y-70723813D01*
X83032509Y-70720751D01*
X83031526Y-70719853D01*
X83029084Y-70716703D01*
X82872392Y-70421703D01*
X82855899Y-70390652D01*
X82854587Y-70386283D01*
X82854322Y-70383522D01*
X82855943Y-70376373D01*
X82856134Y-70376055D01*
X82857877Y-70373826D01*
X82963417Y-70268286D01*
X82967208Y-70265753D01*
X82969878Y-70264647D01*
X82977006Y-70264063D01*
X82977079Y-70264079D01*
G37*
%TD.AperFunction*%
%TD*%
%TA.AperFunction,Conductor*%
%TO.N,/AUX2*%
G36*
X85515003Y-75598183D02*
G01*
X85521927Y-75603861D01*
X85522811Y-75605998D01*
X85737707Y-76317631D01*
X85736819Y-76326541D01*
X85729889Y-76332213D01*
X85729536Y-76332314D01*
X84428612Y-76681051D01*
X84419734Y-76679883D01*
X84414282Y-76672779D01*
X84413883Y-76669750D01*
X84413883Y-76516890D01*
X84414478Y-76513206D01*
X84716149Y-75603861D01*
X84787222Y-75389619D01*
X84793080Y-75382847D01*
X84801718Y-75382107D01*
X85515003Y-75598183D01*
G37*
%TD.AperFunction*%
%TD*%
%TA.AperFunction,Conductor*%
%TO.N,/IO1*%
G36*
X84855555Y-67626338D02*
G01*
X84860940Y-67627714D01*
X85513418Y-67975953D01*
X85516948Y-67978847D01*
X85519156Y-67981535D01*
X85521760Y-67987829D01*
X85593398Y-68725059D01*
X85592946Y-68729598D01*
X85592367Y-68731500D01*
X85586992Y-68738244D01*
X85585680Y-68738996D01*
X85581702Y-68740399D01*
X84375872Y-68932476D01*
X84371317Y-68932303D01*
X84371275Y-68932293D01*
X84369584Y-68931888D01*
X84362334Y-68926636D01*
X84362327Y-68926625D01*
X84361761Y-68925702D01*
X84360035Y-68919586D01*
X84360035Y-68768573D01*
X84360272Y-68766232D01*
X84360736Y-68763960D01*
X84361437Y-68761711D01*
X84371408Y-68738331D01*
X84692134Y-67986238D01*
X84842055Y-67634677D01*
X84844629Y-67630912D01*
X84845902Y-67629665D01*
X84854209Y-67626324D01*
X84855555Y-67626338D01*
G37*
%TD.AperFunction*%
%TD*%
%TA.AperFunction,Conductor*%
%TO.N,/CS_ACC*%
G36*
X85163170Y-77475564D02*
G01*
X85164483Y-77476658D01*
X85167303Y-77480118D01*
X85516937Y-78132422D01*
X85518267Y-78136787D01*
X85518612Y-78140245D01*
X85517282Y-78146934D01*
X85167329Y-78799833D01*
X85164426Y-78803361D01*
X85163001Y-78804527D01*
X85154536Y-78807124D01*
X85152836Y-78806970D01*
X85148542Y-78805723D01*
X85143948Y-78803361D01*
X84721220Y-78586004D01*
X84008089Y-78219329D01*
X84004513Y-78216488D01*
X84002443Y-78214045D01*
X83999669Y-78206481D01*
X83999669Y-78074466D01*
X84000559Y-78069991D01*
X84000849Y-78069290D01*
X84001784Y-78067032D01*
X84007241Y-78061106D01*
X85148497Y-77474298D01*
X85152880Y-77473044D01*
X85153752Y-77472971D01*
X85154715Y-77472892D01*
X85163170Y-77475564D01*
G37*
%TD.AperFunction*%
%TD*%
%TA.AperFunction,Conductor*%
%TO.N,Net-(U6-BIN)*%
G36*
X81587099Y-71823198D02*
G01*
X81589216Y-71824075D01*
X81595177Y-71829600D01*
X81595669Y-71830572D01*
X81595866Y-71833166D01*
X81596301Y-71833099D01*
X81625665Y-72023300D01*
X81625463Y-72027879D01*
X81624994Y-72029786D01*
X81619951Y-72036840D01*
X81618651Y-72037674D01*
X81614709Y-72039282D01*
X81513552Y-72060263D01*
X81511176Y-72060507D01*
X81508824Y-72060507D01*
X81506448Y-72060263D01*
X81405447Y-72039315D01*
X81401247Y-72037536D01*
X81400223Y-72036840D01*
X81399623Y-72036432D01*
X81394770Y-72029250D01*
X81394438Y-72027730D01*
X81394305Y-72023484D01*
X81423133Y-71834538D01*
X81424685Y-71830256D01*
X81425876Y-71828286D01*
X81432242Y-71823227D01*
X81433281Y-71822886D01*
X81436920Y-71822307D01*
X81582621Y-71822307D01*
X81587099Y-71823198D01*
G37*
%TD.AperFunction*%
%TD*%
%TA.AperFunction,Conductor*%
%TO.N,/CSB*%
G36*
X70649398Y-82553130D02*
G01*
X70659118Y-82558044D01*
X71793911Y-83131754D01*
X71799747Y-83138543D01*
X71800331Y-83142194D01*
X71800331Y-83297805D01*
X71796904Y-83306078D01*
X71793910Y-83308246D01*
X70649398Y-83886869D01*
X70640468Y-83887544D01*
X70633807Y-83881955D01*
X70281961Y-83225525D01*
X70281074Y-83216617D01*
X70281962Y-83214473D01*
X70633808Y-82558043D01*
X70640736Y-82552371D01*
X70649398Y-82553130D01*
G37*
%TD.AperFunction*%
%TD*%
%TA.AperFunction,Conductor*%
%TO.N,/I2C_SCL*%
G36*
X82235461Y-72973133D02*
G01*
X82239746Y-72974686D01*
X82241712Y-72975875D01*
X82246771Y-72982236D01*
X82247111Y-72983272D01*
X82247694Y-72986920D01*
X82247694Y-73132621D01*
X82246802Y-73137101D01*
X82245924Y-73139219D01*
X82240400Y-73145178D01*
X82239428Y-73145670D01*
X82235909Y-73146797D01*
X82046679Y-73175668D01*
X82042118Y-73175463D01*
X82040212Y-73174994D01*
X82033164Y-73169956D01*
X82032329Y-73168656D01*
X82030718Y-73164713D01*
X82009736Y-73063548D01*
X82009492Y-73061172D01*
X82009492Y-73058826D01*
X82009736Y-73056450D01*
X82024914Y-72983272D01*
X82030686Y-72955442D01*
X82032462Y-72951248D01*
X82033569Y-72949620D01*
X82040748Y-72944770D01*
X82042268Y-72944438D01*
X82046514Y-72944305D01*
X82235461Y-72973133D01*
G37*
%TD.AperFunction*%
%TD*%
%TA.AperFunction,Conductor*%
%TO.N,GND*%
G36*
X78553864Y-72824150D02*
G01*
X79052457Y-73415956D01*
X79055166Y-73424491D01*
X79051782Y-73431767D01*
X78942131Y-73541418D01*
X78935006Y-73544789D01*
X78226519Y-73614612D01*
X78217949Y-73612013D01*
X78213773Y-73604509D01*
X78150186Y-73126013D01*
X78152493Y-73117361D01*
X78154680Y-73115176D01*
X78537814Y-72822391D01*
X78546466Y-72820091D01*
X78553864Y-72824150D01*
G37*
%TD.AperFunction*%
%TD*%
%TA.AperFunction,Conductor*%
%TO.N,Vsrx*%
G36*
X80977881Y-72444534D02*
G01*
X80979788Y-72445004D01*
X80986835Y-72450042D01*
X80987670Y-72451342D01*
X80988146Y-72453989D01*
X80988434Y-72453928D01*
X81010251Y-72556386D01*
X81010508Y-72558823D01*
X81010508Y-72561176D01*
X81010264Y-72563552D01*
X80989315Y-72664551D01*
X80987536Y-72668751D01*
X80986433Y-72670374D01*
X80979247Y-72675229D01*
X80977735Y-72675559D01*
X80973481Y-72675693D01*
X80784540Y-72646865D01*
X80780252Y-72645311D01*
X80778288Y-72644123D01*
X80773227Y-72637755D01*
X80772886Y-72636716D01*
X80772307Y-72633078D01*
X80772307Y-72487377D01*
X80773196Y-72482903D01*
X80774075Y-72480781D01*
X80779607Y-72474816D01*
X80780579Y-72474324D01*
X80784089Y-72473202D01*
X80973322Y-72444330D01*
X80977881Y-72444534D01*
G37*
%TD.AperFunction*%
%TD*%
%TA.AperFunction,Conductor*%
%TO.N,/IO8*%
G36*
X76814351Y-76413311D02*
G01*
X77261202Y-76597437D01*
X77267545Y-76603757D01*
X77267562Y-76603797D01*
X77451684Y-77050639D01*
X77451667Y-77059593D01*
X77445323Y-77065914D01*
X77444847Y-77066098D01*
X76628015Y-77361655D01*
X76619069Y-77361247D01*
X76615761Y-77358926D01*
X76506072Y-77249237D01*
X76502645Y-77240964D01*
X76503342Y-77236988D01*
X76798900Y-76420150D01*
X76804937Y-76413538D01*
X76813883Y-76413130D01*
X76814351Y-76413311D01*
G37*
%TD.AperFunction*%
%TD*%
%TA.AperFunction,Conductor*%
%TO.N,/IO9*%
G36*
X70649398Y-74933130D02*
G01*
X70659118Y-74938044D01*
X71793911Y-75511754D01*
X71799747Y-75518543D01*
X71800331Y-75522194D01*
X71800331Y-75677805D01*
X71796904Y-75686078D01*
X71793910Y-75688246D01*
X70649398Y-76266869D01*
X70640468Y-76267544D01*
X70633807Y-76261955D01*
X70281961Y-75605525D01*
X70281074Y-75596617D01*
X70281962Y-75594473D01*
X70633808Y-74938043D01*
X70640736Y-74932371D01*
X70649398Y-74933130D01*
G37*
%TD.AperFunction*%
%TD*%
%TA.AperFunction,Conductor*%
%TO.N,/FSYNC*%
G36*
X85166229Y-82558113D02*
G01*
X85518037Y-83214473D01*
X85518925Y-83223383D01*
X85518037Y-83225527D01*
X85166229Y-83881886D01*
X85159300Y-83887559D01*
X85150567Y-83886764D01*
X84006019Y-83298265D01*
X84000228Y-83291434D01*
X83999669Y-83287860D01*
X83999669Y-83152139D01*
X84003096Y-83143866D01*
X84006014Y-83141737D01*
X85150568Y-82553234D01*
X85159491Y-82552499D01*
X85166229Y-82558113D01*
G37*
%TD.AperFunction*%
%TD*%
%TA.AperFunction,Conductor*%
%TO.N,+BATT*%
G36*
X78656369Y-71530829D02*
G01*
X78656399Y-71530875D01*
X79058501Y-72150504D01*
X79060130Y-72159309D01*
X79056959Y-72165146D01*
X78945769Y-72276336D01*
X78940260Y-72279432D01*
X78656387Y-72348446D01*
X78647538Y-72347070D01*
X78645350Y-72345350D01*
X78159464Y-71859464D01*
X78156037Y-71851191D01*
X78159464Y-71842918D01*
X78161319Y-71841408D01*
X78640170Y-71527458D01*
X78648967Y-71525789D01*
X78656369Y-71530829D01*
G37*
%TD.AperFunction*%
%TD*%
%TA.AperFunction,Conductor*%
%TO.N,Net-(J1-Pin_1)*%
G36*
X75157953Y-71355204D02*
G01*
X75502479Y-71580637D01*
X75504346Y-71582154D01*
X75616003Y-71693811D01*
X75619430Y-71702084D01*
X75616578Y-71709739D01*
X75157345Y-72240527D01*
X75149340Y-72244542D01*
X75141213Y-72242028D01*
X75139326Y-72240527D01*
X74659549Y-71858865D01*
X74655209Y-71851035D01*
X74657678Y-71842427D01*
X74658552Y-71841447D01*
X75143278Y-71356721D01*
X75151550Y-71353295D01*
X75157953Y-71355204D01*
G37*
%TD.AperFunction*%
%TD*%
%TA.AperFunction,Conductor*%
%TO.N,/I2C_SDA*%
G36*
X82235460Y-72473133D02*
G01*
X82239745Y-72474686D01*
X82241711Y-72475875D01*
X82246770Y-72482236D01*
X82247110Y-72483272D01*
X82247693Y-72486920D01*
X82247693Y-72632621D01*
X82246801Y-72637101D01*
X82245923Y-72639219D01*
X82240399Y-72645178D01*
X82239427Y-72645670D01*
X82235908Y-72646797D01*
X82046678Y-72675668D01*
X82042117Y-72675463D01*
X82040211Y-72674994D01*
X82033163Y-72669956D01*
X82032328Y-72668656D01*
X82030717Y-72664713D01*
X82009735Y-72563548D01*
X82009491Y-72561172D01*
X82009491Y-72558826D01*
X82009735Y-72556450D01*
X82024913Y-72483272D01*
X82030685Y-72455442D01*
X82032461Y-72451248D01*
X82033568Y-72449620D01*
X82040747Y-72444770D01*
X82042267Y-72444438D01*
X82046513Y-72444305D01*
X82235460Y-72473133D01*
G37*
%TD.AperFunction*%
%TD*%
%TA.AperFunction,Conductor*%
%TO.N,/IO8*%
G36*
X70649398Y-77473130D02*
G01*
X70659118Y-77478044D01*
X71793911Y-78051754D01*
X71799747Y-78058543D01*
X71800331Y-78062194D01*
X71800331Y-78217805D01*
X71796904Y-78226078D01*
X71793910Y-78228246D01*
X70649398Y-78806869D01*
X70640468Y-78807544D01*
X70633807Y-78801955D01*
X70281961Y-78145525D01*
X70281074Y-78136617D01*
X70281962Y-78134473D01*
X70633808Y-77478043D01*
X70640736Y-77472371D01*
X70649398Y-77473130D01*
G37*
%TD.AperFunction*%
%TD*%
%TA.AperFunction,Conductor*%
%TO.N,+BATT*%
G36*
X80977880Y-72944534D02*
G01*
X80979787Y-72945004D01*
X80986834Y-72950042D01*
X80987669Y-72951342D01*
X80988145Y-72953989D01*
X80988433Y-72953928D01*
X81010250Y-73056386D01*
X81010507Y-73058823D01*
X81010507Y-73061176D01*
X81010263Y-73063552D01*
X80989314Y-73164551D01*
X80987535Y-73168751D01*
X80986432Y-73170374D01*
X80979246Y-73175229D01*
X80977734Y-73175559D01*
X80973480Y-73175693D01*
X80784539Y-73146865D01*
X80780251Y-73145311D01*
X80778287Y-73144123D01*
X80773226Y-73137755D01*
X80772885Y-73136716D01*
X80772306Y-73133078D01*
X80772306Y-72987377D01*
X80773195Y-72982903D01*
X80774074Y-72980781D01*
X80779606Y-72974816D01*
X80780578Y-72974324D01*
X80784088Y-72973202D01*
X80973321Y-72944330D01*
X80977880Y-72944534D01*
G37*
%TD.AperFunction*%
%TD*%
%TA.AperFunction,Conductor*%
%TO.N,GND*%
G36*
X81410127Y-72337775D02*
G01*
X81567729Y-72453652D01*
X81572364Y-72461313D01*
X81570579Y-72469499D01*
X81512038Y-72558678D01*
X81508678Y-72562038D01*
X81419499Y-72620579D01*
X81410702Y-72622254D01*
X81403652Y-72617729D01*
X81288647Y-72461313D01*
X81287774Y-72460126D01*
X81285635Y-72451431D01*
X81288926Y-72444925D01*
X81394924Y-72338927D01*
X81403196Y-72335501D01*
X81410127Y-72337775D01*
G37*
%TD.AperFunction*%
%TD*%
%TA.AperFunction,Conductor*%
%TO.N,Net-(U6-GPOUT)*%
G36*
X83069772Y-71091920D02*
G01*
X83138838Y-71172142D01*
X83229428Y-71277366D01*
X83232228Y-71285872D01*
X83229428Y-71292634D01*
X83069774Y-71478078D01*
X83061779Y-71482111D01*
X83055653Y-71480898D01*
X82841447Y-71373239D01*
X82835594Y-71366462D01*
X82835001Y-71362785D01*
X82835001Y-71207214D01*
X82838428Y-71198941D01*
X82841445Y-71196760D01*
X83055655Y-71089100D01*
X83064584Y-71088448D01*
X83069772Y-71091920D01*
G37*
%TD.AperFunction*%
%TD*%
%TA.AperFunction,Conductor*%
%TO.N,Net-(U6-VDD)*%
G36*
X81590804Y-73565889D02*
G01*
X81591514Y-73566183D01*
X81593991Y-73567209D01*
X81599319Y-73571634D01*
X81601570Y-73575091D01*
X81729089Y-73770966D01*
X81730786Y-73775204D01*
X81731249Y-73777687D01*
X81730067Y-73785345D01*
X81729716Y-73786002D01*
X81727776Y-73788654D01*
X81563431Y-73957343D01*
X81559671Y-73959927D01*
X81557477Y-73960870D01*
X81549511Y-73961332D01*
X81548603Y-73961061D01*
X81545422Y-73959560D01*
X81346718Y-73825991D01*
X81343501Y-73822757D01*
X81342030Y-73820542D01*
X81340106Y-73813266D01*
X81340145Y-73812709D01*
X81340752Y-73809719D01*
X81421526Y-73575088D01*
X81423821Y-73571151D01*
X81425734Y-73568988D01*
X81431896Y-73565333D01*
X81432082Y-73565290D01*
X81434677Y-73564999D01*
X81586329Y-73564999D01*
X81590804Y-73565889D01*
G37*
%TD.AperFunction*%
%TD*%
%TA.AperFunction,Conductor*%
%TO.N,Net-(U6-VDD)*%
G36*
X81513548Y-73059735D02*
G01*
X81614551Y-73080683D01*
X81618754Y-73082464D01*
X81620376Y-73083567D01*
X81625227Y-73090744D01*
X81625557Y-73092254D01*
X81625693Y-73096517D01*
X81596866Y-73285459D01*
X81595311Y-73289750D01*
X81594126Y-73291709D01*
X81587767Y-73296768D01*
X81586728Y-73297109D01*
X81583080Y-73297693D01*
X81437377Y-73297693D01*
X81432897Y-73296801D01*
X81430779Y-73295923D01*
X81424820Y-73290399D01*
X81424327Y-73289424D01*
X81423202Y-73285912D01*
X81394330Y-73096677D01*
X81394535Y-73092117D01*
X81395004Y-73090211D01*
X81400042Y-73083163D01*
X81401342Y-73082328D01*
X81405285Y-73080717D01*
X81506452Y-73059735D01*
X81508828Y-73059491D01*
X81511172Y-73059491D01*
X81513548Y-73059735D01*
G37*
%TD.AperFunction*%
%TD*%
%TA.AperFunction,Conductor*%
%TO.N,GND*%
G36*
X81250000Y-69200000D02*
G01*
X81000000Y-69550000D01*
X80800000Y-69550000D01*
X80550000Y-69200000D01*
X80900000Y-68849000D01*
X81250000Y-69200000D01*
G37*
%TD.AperFunction*%
%TD*%
%TA.AperFunction,Conductor*%
%TO.N,/IO7*%
G36*
X70649398Y-80013130D02*
G01*
X70659118Y-80018044D01*
X71793911Y-80591754D01*
X71799747Y-80598543D01*
X71800331Y-80602194D01*
X71800331Y-80757805D01*
X71796904Y-80766078D01*
X71793910Y-80768246D01*
X70649398Y-81346869D01*
X70640468Y-81347544D01*
X70633807Y-81341955D01*
X70281961Y-80685525D01*
X70281074Y-80676617D01*
X70281962Y-80674473D01*
X70633808Y-80018043D01*
X70640736Y-80012371D01*
X70649398Y-80013130D01*
G37*
%TD.AperFunction*%
%TD*%
%TA.AperFunction,Conductor*%
%TO.N,Vsrx*%
G36*
X75228521Y-67218332D02*
G01*
X75230557Y-67219958D01*
X75340403Y-67329804D01*
X75511103Y-67485320D01*
X75514910Y-67493425D01*
X75514102Y-67498273D01*
X75232562Y-68209853D01*
X75226332Y-68216286D01*
X75217379Y-68216428D01*
X75210946Y-68210198D01*
X75210459Y-68208851D01*
X75014665Y-67543268D01*
X75015617Y-67534364D01*
X75015979Y-67533746D01*
X75212386Y-67221992D01*
X75219694Y-67216821D01*
X75228521Y-67218332D01*
G37*
%TD.AperFunction*%
%TD*%
%TA.AperFunction,Conductor*%
%TO.N,GND*%
G36*
X80747971Y-73775806D02*
G01*
X80752241Y-73778872D01*
X80909200Y-73957271D01*
X80912092Y-73965745D01*
X80909200Y-73972727D01*
X80752241Y-74151125D01*
X80744203Y-74155073D01*
X80739016Y-74154221D01*
X80492259Y-74052977D01*
X80485906Y-74046667D01*
X80485000Y-74042153D01*
X80485000Y-73887844D01*
X80488427Y-73879571D01*
X80492256Y-73877021D01*
X80739018Y-73775776D01*
X80747971Y-73775806D01*
G37*
%TD.AperFunction*%
%TD*%
%TA.AperFunction,Conductor*%
%TO.N,Net-(J1-Pin_1)*%
G36*
X76523704Y-68250435D02*
G01*
X76531162Y-68255383D01*
X76948415Y-68882098D01*
X77014642Y-68981570D01*
X77016383Y-68985795D01*
X77016914Y-68988493D01*
X77016002Y-68995772D01*
X77015831Y-68996132D01*
X77014266Y-68998584D01*
X76610756Y-69484741D01*
X76607215Y-69487616D01*
X76605730Y-69488400D01*
X76603818Y-69489408D01*
X76598358Y-69490761D01*
X76443582Y-69490761D01*
X76439105Y-69489870D01*
X76436841Y-69488932D01*
X76435556Y-69488400D01*
X76431032Y-69485063D01*
X76027811Y-68999254D01*
X76025637Y-68995240D01*
X76024824Y-68992612D01*
X76024970Y-68985252D01*
X76025104Y-68984875D01*
X76026392Y-68982300D01*
X76509734Y-68256322D01*
X76512954Y-68253092D01*
X76514434Y-68252099D01*
X76523197Y-68250335D01*
X76523704Y-68250435D01*
G37*
%TD.AperFunction*%
%TD*%
%TA.AperFunction,Conductor*%
%TO.N,/I2C_SCL*%
G36*
X85163183Y-72395519D02*
G01*
X85164466Y-72396596D01*
X85167256Y-72400030D01*
X85516937Y-73052422D01*
X85518267Y-73056787D01*
X85518612Y-73060245D01*
X85517282Y-73066934D01*
X85167292Y-73719902D01*
X85164394Y-73723426D01*
X85162951Y-73724608D01*
X85154511Y-73727211D01*
X85153536Y-73727126D01*
X85152841Y-73727065D01*
X85148588Y-73725851D01*
X84008166Y-73149295D01*
X84004573Y-73146481D01*
X84002497Y-73144066D01*
X83999669Y-73136439D01*
X83999669Y-72984521D01*
X84000559Y-72980045D01*
X84001779Y-72977099D01*
X84007307Y-72971137D01*
X85148526Y-72394177D01*
X85152919Y-72392954D01*
X85154783Y-72392813D01*
X85163183Y-72395519D01*
G37*
%TD.AperFunction*%
%TD*%
%TA.AperFunction,Conductor*%
%TO.N,/IO9*%
G36*
X78712661Y-76133109D02*
G01*
X78716569Y-76135472D01*
X78717883Y-76136672D01*
X78721681Y-76144772D01*
X78721752Y-76146312D01*
X78720882Y-76151308D01*
X78538449Y-76594050D01*
X78535919Y-76597851D01*
X78532900Y-76600881D01*
X78529069Y-76603441D01*
X78086511Y-76785798D01*
X78082034Y-76786680D01*
X78080253Y-76786677D01*
X78071986Y-76783236D01*
X78071981Y-76783231D01*
X78070894Y-76782139D01*
X78068184Y-76777866D01*
X77774136Y-75965203D01*
X77773450Y-75960690D01*
X77773592Y-75957568D01*
X77777006Y-75949828D01*
X77884119Y-75842715D01*
X77887909Y-75840182D01*
X77890799Y-75838985D01*
X77899255Y-75838793D01*
X78712661Y-76133109D01*
G37*
%TD.AperFunction*%
%TD*%
%TA.AperFunction,Conductor*%
%TO.N,Net-(U6-GPOUT)*%
G36*
X82125076Y-71838928D02*
G01*
X82231071Y-71944923D01*
X82234498Y-71953196D01*
X82232224Y-71960127D01*
X82116347Y-72117729D01*
X82108686Y-72122364D01*
X82100500Y-72120579D01*
X82096158Y-72117729D01*
X82011321Y-72062038D01*
X82007961Y-72058678D01*
X81949420Y-71969499D01*
X81947745Y-71960702D01*
X81952270Y-71953652D01*
X82109874Y-71837774D01*
X82118568Y-71835635D01*
X82125076Y-71838928D01*
G37*
%TD.AperFunction*%
%TD*%
%TA.AperFunction,Conductor*%
%TO.N,GND*%
G36*
X81133580Y-72021840D02*
G01*
X81157586Y-72037880D01*
X81228171Y-72108465D01*
X81237373Y-72119678D01*
X81245316Y-72131565D01*
X81252155Y-72144359D01*
X81279832Y-72211177D01*
X81280680Y-72213223D01*
X81280682Y-72213227D01*
X81356774Y-72289319D01*
X81417679Y-72314547D01*
X81418773Y-72315000D01*
X81442781Y-72331041D01*
X81450748Y-72339008D01*
X81472422Y-72391334D01*
X81472422Y-72397950D01*
X81485847Y-72399823D01*
X81513111Y-72409312D01*
X81521860Y-72414454D01*
X81555992Y-72459650D01*
X81550610Y-72511239D01*
X81547907Y-72516667D01*
X81533992Y-72536007D01*
X81487880Y-72582119D01*
X81463874Y-72598159D01*
X81453467Y-72602470D01*
X81396830Y-72602471D01*
X81396829Y-72602471D01*
X81386421Y-72598160D01*
X81362413Y-72582119D01*
X81291828Y-72511534D01*
X81282625Y-72500319D01*
X81274682Y-72488431D01*
X81267844Y-72475639D01*
X81249168Y-72430552D01*
X81239319Y-72406774D01*
X81163227Y-72330682D01*
X81163225Y-72330681D01*
X81163223Y-72330680D01*
X81163219Y-72330678D01*
X81163214Y-72330676D01*
X81094359Y-72302155D01*
X81081565Y-72295316D01*
X81069678Y-72287373D01*
X81058465Y-72278171D01*
X80987880Y-72207586D01*
X80971840Y-72183580D01*
X80971421Y-72182568D01*
X80967528Y-72173171D01*
X80967527Y-72116538D01*
X80971840Y-72106124D01*
X80987877Y-72082122D01*
X81032122Y-72037877D01*
X81056124Y-72021840D01*
X81066537Y-72017528D01*
X81123169Y-72017528D01*
X81133580Y-72021840D01*
G37*
%TD.AperFunction*%
%TA.AperFunction,Conductor*%
G36*
X81089591Y-68855629D02*
G01*
X81100003Y-68859942D01*
X81140052Y-68899984D01*
X81143258Y-68907723D01*
X81144367Y-68910400D01*
X81150000Y-68938718D01*
X81150000Y-69700000D01*
X81397829Y-69700000D01*
X81457375Y-69693597D01*
X81457380Y-69693596D01*
X81592087Y-69643354D01*
X81592088Y-69643353D01*
X81592094Y-69643348D01*
X81594313Y-69641923D01*
X81596316Y-69640187D01*
X81700088Y-69562503D01*
X81716103Y-69553383D01*
X81736201Y-69545055D01*
X81792838Y-69545047D01*
X81805648Y-69551894D01*
X81809239Y-69554294D01*
X81820446Y-69563492D01*
X82708494Y-70451540D01*
X82721519Y-70469151D01*
X82860647Y-70731082D01*
X82875854Y-70759711D01*
X82883599Y-70782905D01*
X82884501Y-70788629D01*
X82884501Y-70799674D01*
X82892588Y-70840327D01*
X82892874Y-70841768D01*
X82892877Y-70841783D01*
X82899035Y-70872740D01*
X82913056Y-70893724D01*
X82924105Y-70949273D01*
X82892639Y-70996365D01*
X82884759Y-71000954D01*
X82803853Y-71041618D01*
X82770621Y-71049500D01*
X82738154Y-71049500D01*
X82720434Y-71056839D01*
X82720435Y-71056840D01*
X82651603Y-71085349D01*
X82651596Y-71085354D01*
X82039535Y-71697414D01*
X82020819Y-71710538D01*
X82020881Y-71710641D01*
X82019527Y-71711444D01*
X82018580Y-71712109D01*
X82017767Y-71712489D01*
X82017757Y-71712495D01*
X81870823Y-71820528D01*
X81829029Y-71834880D01*
X81828177Y-71834903D01*
X81826431Y-71834914D01*
X81826210Y-71834957D01*
X81823195Y-71835041D01*
X81799088Y-71825826D01*
X81774372Y-71818405D01*
X81770484Y-71814891D01*
X81770291Y-71814818D01*
X81770215Y-71814648D01*
X81768828Y-71813395D01*
X81768826Y-71813393D01*
X81750335Y-71782538D01*
X81748682Y-71777086D01*
X81745499Y-71755615D01*
X81745499Y-71440799D01*
X81757483Y-71400426D01*
X81804212Y-71328647D01*
X81844358Y-71266980D01*
X81865266Y-71245824D01*
X81865601Y-71245601D01*
X81920966Y-71162740D01*
X81935500Y-71089674D01*
X81935500Y-70840326D01*
X81920966Y-70767260D01*
X81865601Y-70684399D01*
X81865598Y-70684396D01*
X81829382Y-70660198D01*
X81829375Y-70660194D01*
X81826389Y-70658199D01*
X81782740Y-70629034D01*
X81775264Y-70627547D01*
X81764452Y-70625396D01*
X81731155Y-70618773D01*
X81709674Y-70614500D01*
X81709672Y-70614500D01*
X81654839Y-70614500D01*
X81626521Y-70608867D01*
X81608752Y-70601507D01*
X81573003Y-70565757D01*
X81571524Y-70566611D01*
X81569101Y-70562415D01*
X81569100Y-70562414D01*
X81569099Y-70562411D01*
X81472924Y-70437075D01*
X81375494Y-70362314D01*
X81347586Y-70340899D01*
X81201632Y-70280443D01*
X81201629Y-70280442D01*
X81115000Y-70269036D01*
X81115000Y-70876281D01*
X81109367Y-70904599D01*
X81105056Y-70915007D01*
X81065008Y-70955055D01*
X81065007Y-70955056D01*
X81054599Y-70959367D01*
X81026281Y-70965000D01*
X80803719Y-70965000D01*
X80775404Y-70959368D01*
X80764995Y-70955057D01*
X80724946Y-70915013D01*
X80720629Y-70904591D01*
X80715000Y-70876281D01*
X80715000Y-70269039D01*
X80714999Y-70269038D01*
X80628374Y-70280442D01*
X80628371Y-70280442D01*
X80628370Y-70280443D01*
X80628367Y-70280444D01*
X80628362Y-70280445D01*
X80628359Y-70280447D01*
X80628355Y-70280448D01*
X80482413Y-70340899D01*
X80454505Y-70362314D01*
X80357075Y-70437075D01*
X80312776Y-70494807D01*
X80287169Y-70528178D01*
X80265456Y-70547218D01*
X80258556Y-70551201D01*
X80202403Y-70558589D01*
X80157473Y-70524108D01*
X80157423Y-70524020D01*
X80155409Y-70520531D01*
X80145500Y-70483541D01*
X80145500Y-69741373D01*
X80151129Y-69713064D01*
X80155443Y-69702649D01*
X80195482Y-69662603D01*
X80198935Y-69661172D01*
X80253103Y-69660209D01*
X80259517Y-69662601D01*
X80342613Y-69693594D01*
X80342614Y-69693594D01*
X80342619Y-69693596D01*
X80342624Y-69693597D01*
X80402171Y-69700000D01*
X80650000Y-69700000D01*
X80650000Y-68938718D01*
X80655629Y-68910409D01*
X80659943Y-68899994D01*
X80699982Y-68859948D01*
X80710411Y-68855628D01*
X80738719Y-68850000D01*
X81061281Y-68850000D01*
X81089591Y-68855629D01*
G37*
%TD.AperFunction*%
%TA.AperFunction,Conductor*%
G36*
X85853109Y-66050504D02*
G01*
X85860136Y-66050503D01*
X85860138Y-66050504D01*
X85894589Y-66050500D01*
X85898212Y-66050588D01*
X85901830Y-66050766D01*
X85905436Y-66051032D01*
X86045125Y-66064779D01*
X86052295Y-66065841D01*
X86059407Y-66067255D01*
X86066441Y-66069016D01*
X86195535Y-66108166D01*
X86202356Y-66110606D01*
X86209059Y-66113382D01*
X86215602Y-66116477D01*
X86326995Y-66176013D01*
X86334574Y-66180064D01*
X86340794Y-66183791D01*
X86346821Y-66187818D01*
X86352648Y-66192140D01*
X86456913Y-66277706D01*
X86462295Y-66282583D01*
X86467418Y-66287706D01*
X86472295Y-66293088D01*
X86557856Y-66397347D01*
X86562179Y-66403175D01*
X86566204Y-66409199D01*
X86569936Y-66415427D01*
X86633513Y-66534380D01*
X86636618Y-66540945D01*
X86639388Y-66547633D01*
X86641835Y-66554473D01*
X86680980Y-66683552D01*
X86682745Y-66690600D01*
X86684155Y-66697693D01*
X86685219Y-66704874D01*
X86698964Y-66844544D01*
X86699230Y-66848148D01*
X86699409Y-66851780D01*
X86699499Y-66855423D01*
X86699499Y-66858786D01*
X86699495Y-66896420D01*
X86699499Y-66896472D01*
X86699500Y-66897587D01*
X86699500Y-84594546D01*
X86699411Y-84598183D01*
X86699233Y-84601800D01*
X86698966Y-84605417D01*
X86685207Y-84745109D01*
X86684142Y-84752289D01*
X86682733Y-84759374D01*
X86680968Y-84766421D01*
X86641811Y-84895503D01*
X86639366Y-84902336D01*
X86636595Y-84909027D01*
X86633488Y-84915597D01*
X86569909Y-85034543D01*
X86566181Y-85040763D01*
X86562163Y-85046778D01*
X86557831Y-85052620D01*
X86472260Y-85156887D01*
X86467384Y-85162267D01*
X86462267Y-85167384D01*
X86456887Y-85172260D01*
X86352620Y-85257831D01*
X86346778Y-85262163D01*
X86340763Y-85266181D01*
X86334543Y-85269909D01*
X86254828Y-85312517D01*
X86215591Y-85333490D01*
X86209027Y-85336595D01*
X86202336Y-85339366D01*
X86195503Y-85341811D01*
X86066421Y-85380968D01*
X86059374Y-85382733D01*
X86052289Y-85384142D01*
X86045109Y-85385207D01*
X85905418Y-85398966D01*
X85901801Y-85399233D01*
X85901515Y-85399247D01*
X85898166Y-85399411D01*
X85894547Y-85399500D01*
X69905453Y-85399500D01*
X69901832Y-85399411D01*
X69898518Y-85399248D01*
X69898199Y-85399233D01*
X69894581Y-85398966D01*
X69754889Y-85385207D01*
X69747709Y-85384142D01*
X69744250Y-85383454D01*
X69740621Y-85382732D01*
X69733577Y-85380968D01*
X69604495Y-85341811D01*
X69597662Y-85339366D01*
X69590971Y-85336595D01*
X69584414Y-85333494D01*
X69465455Y-85269909D01*
X69459235Y-85266181D01*
X69453220Y-85262163D01*
X69447378Y-85257831D01*
X69343111Y-85172260D01*
X69337731Y-85167384D01*
X69332614Y-85162267D01*
X69327738Y-85156887D01*
X69242167Y-85052620D01*
X69237840Y-85046785D01*
X69233817Y-85040763D01*
X69230089Y-85034543D01*
X69166499Y-84915575D01*
X69163403Y-84909027D01*
X69160632Y-84902336D01*
X69158188Y-84895503D01*
X69119030Y-84766419D01*
X69117265Y-84759374D01*
X69115855Y-84752282D01*
X69114792Y-84745113D01*
X69114792Y-84745109D01*
X69101031Y-84605396D01*
X69100767Y-84601819D01*
X69100587Y-84598144D01*
X69100500Y-84594546D01*
X69100500Y-75510127D01*
X69367500Y-75510127D01*
X69367500Y-75510128D01*
X69367500Y-75689871D01*
X69368991Y-75697365D01*
X69402564Y-75866158D01*
X69402567Y-75866168D01*
X69407327Y-75877659D01*
X69471350Y-76032226D01*
X69471352Y-76032229D01*
X69471353Y-76032231D01*
X69484550Y-76051981D01*
X69513109Y-76094723D01*
X69565566Y-76173231D01*
X69571213Y-76181683D01*
X69571214Y-76181684D01*
X69571215Y-76181685D01*
X69698315Y-76308785D01*
X69847769Y-76408647D01*
X69847774Y-76408649D01*
X69847773Y-76408649D01*
X70013829Y-76477431D01*
X70013834Y-76477433D01*
X70190127Y-76512500D01*
X70190129Y-76512500D01*
X70369871Y-76512500D01*
X70369873Y-76512500D01*
X70546166Y-76477433D01*
X70609257Y-76451299D01*
X70715593Y-76407255D01*
X70715614Y-76407308D01*
X70717531Y-76406428D01*
X70719557Y-76405642D01*
X70953454Y-76287392D01*
X71427113Y-76047926D01*
X71483589Y-76043661D01*
X71526540Y-76080580D01*
X71534500Y-76113967D01*
X71534500Y-77114819D01*
X71537973Y-77132283D01*
X71543232Y-77158720D01*
X71543232Y-77158721D01*
X71543233Y-77158722D01*
X71567751Y-77195417D01*
X71576496Y-77208504D01*
X71626278Y-77241767D01*
X71670180Y-77250500D01*
X71670181Y-77250500D01*
X72699819Y-77250500D01*
X72699820Y-77250500D01*
X72743722Y-77241767D01*
X72793504Y-77208504D01*
X72826767Y-77158722D01*
X72835500Y-77114820D01*
X72835500Y-77093814D01*
X72841131Y-77065500D01*
X72844181Y-77058136D01*
X72884228Y-77018089D01*
X72940863Y-77018087D01*
X72948227Y-77021137D01*
X72972233Y-77037177D01*
X73040332Y-77105276D01*
X73146874Y-77176465D01*
X73146879Y-77176467D01*
X73146878Y-77176467D01*
X73177901Y-77189317D01*
X73265257Y-77225501D01*
X73265259Y-77225501D01*
X73265261Y-77225502D01*
X73307904Y-77233984D01*
X73390932Y-77250500D01*
X73390934Y-77250500D01*
X73519068Y-77250500D01*
X73519070Y-77250500D01*
X73644745Y-77225501D01*
X73763128Y-77176465D01*
X73869670Y-77105276D01*
X73960277Y-77014669D01*
X73961259Y-77013199D01*
X73965578Y-77007373D01*
X73970178Y-77001768D01*
X73975035Y-76996409D01*
X74294294Y-76677150D01*
X74346619Y-76655477D01*
X74398945Y-76677151D01*
X74418096Y-76710321D01*
X74422149Y-76725445D01*
X74422150Y-76725447D01*
X74450898Y-76775239D01*
X74464936Y-76799554D01*
X74525446Y-76860064D01*
X74599555Y-76902851D01*
X74614673Y-76906902D01*
X74659606Y-76941379D01*
X74666999Y-76997532D01*
X74647846Y-77030706D01*
X74215978Y-77462572D01*
X74215979Y-77462573D01*
X74251323Y-77486189D01*
X74337107Y-77521722D01*
X74433302Y-77561568D01*
X74433305Y-77561568D01*
X74433306Y-77561569D01*
X74433317Y-77561572D01*
X74626510Y-77600000D01*
X74823489Y-77600000D01*
X74823490Y-77600000D01*
X75016682Y-77561572D01*
X75016693Y-77561569D01*
X75016694Y-77561568D01*
X75016696Y-77561568D01*
X75130842Y-77514287D01*
X75198675Y-77486190D01*
X75234020Y-77462573D01*
X74802153Y-77030706D01*
X74780479Y-76978380D01*
X74802153Y-76926054D01*
X74835325Y-76906902D01*
X74850445Y-76902851D01*
X74924554Y-76860064D01*
X74985064Y-76799554D01*
X75027851Y-76725445D01*
X75031902Y-76710326D01*
X75066379Y-76665394D01*
X75122531Y-76658000D01*
X75155706Y-76677153D01*
X75474956Y-76996403D01*
X75479834Y-77001785D01*
X75484423Y-77007377D01*
X75488741Y-77013199D01*
X75489718Y-77014661D01*
X75489721Y-77014665D01*
X75489724Y-77014669D01*
X75580331Y-77105276D01*
X75686873Y-77176465D01*
X75686878Y-77176467D01*
X75686877Y-77176467D01*
X75717900Y-77189317D01*
X75805256Y-77225501D01*
X75805258Y-77225501D01*
X75805260Y-77225502D01*
X75847903Y-77233984D01*
X75930931Y-77250500D01*
X75930933Y-77250500D01*
X76059066Y-77250500D01*
X76059069Y-77250500D01*
X76082981Y-77245743D01*
X76111852Y-77245743D01*
X76119661Y-77247297D01*
X76119666Y-77247298D01*
X76166756Y-77278767D01*
X76177802Y-77334316D01*
X76177801Y-77334321D01*
X76177255Y-77337064D01*
X76157005Y-77374944D01*
X75659533Y-77872418D01*
X75635527Y-77888458D01*
X75610397Y-77898867D01*
X75582081Y-77904500D01*
X71864937Y-77904500D01*
X71831550Y-77896540D01*
X71783065Y-77872028D01*
X70719557Y-77334357D01*
X70719552Y-77334355D01*
X70718965Y-77334126D01*
X70717611Y-77333580D01*
X70546174Y-77262569D01*
X70546169Y-77262567D01*
X70546156Y-77262563D01*
X70546157Y-77262563D01*
X70428103Y-77239082D01*
X70369873Y-77227500D01*
X70190127Y-77227500D01*
X70140149Y-77237439D01*
X70140150Y-77237440D01*
X70013842Y-77262563D01*
X70013824Y-77262569D01*
X69847773Y-77331349D01*
X69698045Y-77431394D01*
X69696669Y-77432860D01*
X69572860Y-77556669D01*
X69571394Y-77558045D01*
X69471351Y-77707771D01*
X69471350Y-77707771D01*
X69402569Y-77873824D01*
X69402567Y-77873830D01*
X69402564Y-77873840D01*
X69367500Y-78050127D01*
X69367500Y-78050128D01*
X69367500Y-78229871D01*
X69376206Y-78273641D01*
X69402564Y-78406158D01*
X69402567Y-78406166D01*
X69402568Y-78406170D01*
X69471350Y-78572226D01*
X69471352Y-78572229D01*
X69471353Y-78572231D01*
X69571215Y-78721685D01*
X69698315Y-78848785D01*
X69847769Y-78948647D01*
X69847774Y-78948649D01*
X69847773Y-78948649D01*
X70013829Y-79017431D01*
X70013834Y-79017433D01*
X70190127Y-79052500D01*
X70190129Y-79052500D01*
X70369871Y-79052500D01*
X70369873Y-79052500D01*
X70546166Y-79017433D01*
X70609257Y-78991299D01*
X70715593Y-78947255D01*
X70715614Y-78947308D01*
X70717531Y-78946428D01*
X70719557Y-78945642D01*
X71831549Y-78383460D01*
X71864936Y-78375500D01*
X75771841Y-78375500D01*
X75771843Y-78375500D01*
X75858399Y-78339647D01*
X76683758Y-77514285D01*
X76710902Y-77497028D01*
X77497755Y-77212320D01*
X77500913Y-77211139D01*
X77501389Y-77210955D01*
X77515959Y-77201487D01*
X77527941Y-77195180D01*
X77573126Y-77176465D01*
X77679668Y-77105276D01*
X77770275Y-77014669D01*
X77830296Y-76924839D01*
X77850708Y-76904427D01*
X77860079Y-76898165D01*
X77915623Y-76887118D01*
X77918872Y-76887764D01*
X77965951Y-76919226D01*
X77988888Y-76953553D01*
X77988889Y-76953555D01*
X78029717Y-77014660D01*
X78029720Y-77014664D01*
X78029724Y-77014669D01*
X78120331Y-77105276D01*
X78226873Y-77176465D01*
X78226878Y-77176467D01*
X78226877Y-77176467D01*
X78257900Y-77189317D01*
X78345256Y-77225501D01*
X78345258Y-77225501D01*
X78345260Y-77225502D01*
X78387903Y-77233984D01*
X78470931Y-77250500D01*
X78470933Y-77250500D01*
X78599066Y-77250500D01*
X78599069Y-77250500D01*
X78622976Y-77245743D01*
X78651846Y-77245743D01*
X78659664Y-77247298D01*
X78706754Y-77278764D01*
X78717803Y-77334313D01*
X78717802Y-77334316D01*
X78717256Y-77337060D01*
X78697005Y-77374945D01*
X78302034Y-77769918D01*
X78278028Y-77785958D01*
X78252898Y-77796367D01*
X78224582Y-77802000D01*
X78206354Y-77802000D01*
X78167046Y-77812532D01*
X78117210Y-77825885D01*
X78037294Y-77872025D01*
X77972025Y-77937294D01*
X77925885Y-78017210D01*
X77902000Y-78106354D01*
X77902000Y-78124581D01*
X77896367Y-78152897D01*
X77890493Y-78167081D01*
X77885959Y-78178027D01*
X77869918Y-78202033D01*
X75659534Y-80412418D01*
X75635528Y-80428458D01*
X75610398Y-80438867D01*
X75582082Y-80444500D01*
X71864937Y-80444500D01*
X71831550Y-80436540D01*
X71789363Y-80415212D01*
X70719557Y-79874357D01*
X70719552Y-79874355D01*
X70718965Y-79874126D01*
X70717611Y-79873580D01*
X70546174Y-79802569D01*
X70546169Y-79802567D01*
X70546156Y-79802563D01*
X70546157Y-79802563D01*
X70428103Y-79779082D01*
X70369873Y-79767500D01*
X70190127Y-79767500D01*
X70140149Y-79777439D01*
X70140150Y-79777440D01*
X70013842Y-79802563D01*
X70013824Y-79802569D01*
X69847773Y-79871349D01*
X69698045Y-79971394D01*
X69696669Y-79972860D01*
X69572860Y-80096669D01*
X69571394Y-80098045D01*
X69471351Y-80247771D01*
X69471350Y-80247771D01*
X69402569Y-80413824D01*
X69402567Y-80413830D01*
X69402564Y-80413840D01*
X69375382Y-80550500D01*
X69367500Y-80590127D01*
X69367500Y-80769872D01*
X69376518Y-80815208D01*
X69376518Y-80815209D01*
X69402564Y-80946158D01*
X69402567Y-80946168D01*
X69415271Y-80976840D01*
X69471350Y-81112226D01*
X69471352Y-81112229D01*
X69471353Y-81112231D01*
X69571215Y-81261685D01*
X69698315Y-81388785D01*
X69847769Y-81488647D01*
X69847774Y-81488649D01*
X69847773Y-81488649D01*
X70013829Y-81557431D01*
X70013834Y-81557433D01*
X70190127Y-81592500D01*
X70190129Y-81592500D01*
X70369871Y-81592500D01*
X70369873Y-81592500D01*
X70546166Y-81557433D01*
X70609257Y-81531299D01*
X70715593Y-81487255D01*
X70715614Y-81487308D01*
X70717531Y-81486428D01*
X70719557Y-81485642D01*
X71778066Y-80950499D01*
X71831549Y-80923459D01*
X71864936Y-80915500D01*
X75771842Y-80915500D01*
X75771844Y-80915500D01*
X75858400Y-80879647D01*
X78202968Y-78535078D01*
X78226972Y-78519041D01*
X78252103Y-78508631D01*
X78280419Y-78503000D01*
X78308909Y-78503000D01*
X78317797Y-78497867D01*
X78387788Y-78479114D01*
X78467712Y-78432969D01*
X78532969Y-78367712D01*
X78579114Y-78287788D01*
X78602999Y-78198646D01*
X78603000Y-78198646D01*
X78603000Y-78175428D01*
X78603669Y-78170488D01*
X78605652Y-78167081D01*
X78608631Y-78152103D01*
X78619042Y-78126968D01*
X78635078Y-78102968D01*
X79030278Y-77707769D01*
X79223759Y-77514285D01*
X79250903Y-77497028D01*
X79869243Y-77273292D01*
X79925820Y-77275869D01*
X79964005Y-77317699D01*
X79961428Y-77374277D01*
X79946746Y-77395203D01*
X74389534Y-82952418D01*
X74365528Y-82968458D01*
X74340398Y-82978867D01*
X74312082Y-82984500D01*
X71864937Y-82984500D01*
X71831550Y-82976540D01*
X71825311Y-82973386D01*
X70762506Y-82436070D01*
X70757308Y-82430023D01*
X70722454Y-82415586D01*
X70722454Y-82415585D01*
X70719869Y-82414514D01*
X70719557Y-82414357D01*
X70719334Y-82414293D01*
X70717616Y-82413582D01*
X70717611Y-82413580D01*
X70546174Y-82342569D01*
X70546169Y-82342567D01*
X70546156Y-82342563D01*
X70546157Y-82342563D01*
X70428103Y-82319082D01*
X70369873Y-82307500D01*
X70190127Y-82307500D01*
X70140149Y-82317439D01*
X70140150Y-82317440D01*
X70013842Y-82342563D01*
X70013824Y-82342569D01*
X69847773Y-82411349D01*
X69698045Y-82511394D01*
X69696669Y-82512860D01*
X69572860Y-82636669D01*
X69571394Y-82638045D01*
X69471349Y-82787773D01*
X69402569Y-82953824D01*
X69402567Y-82953830D01*
X69402564Y-82953840D01*
X69389499Y-83019528D01*
X69367500Y-83130128D01*
X69367500Y-83309871D01*
X69374715Y-83346144D01*
X69402564Y-83486158D01*
X69402567Y-83486166D01*
X69402568Y-83486170D01*
X69471350Y-83652226D01*
X69471352Y-83652229D01*
X69471353Y-83652231D01*
X69571215Y-83801685D01*
X69698315Y-83928785D01*
X69847769Y-84028647D01*
X69847774Y-84028649D01*
X69847773Y-84028649D01*
X70013829Y-84097431D01*
X70013834Y-84097433D01*
X70190127Y-84132500D01*
X70190129Y-84132500D01*
X70369871Y-84132500D01*
X70369873Y-84132500D01*
X70546166Y-84097433D01*
X70609257Y-84071299D01*
X70715593Y-84027255D01*
X70715614Y-84027308D01*
X70717531Y-84026428D01*
X70719557Y-84025642D01*
X71508834Y-83626613D01*
X71831549Y-83463459D01*
X71864936Y-83455500D01*
X74501842Y-83455500D01*
X74501844Y-83455500D01*
X74588400Y-83419647D01*
X74754194Y-83253853D01*
X79849500Y-83253853D01*
X79849500Y-83346146D01*
X79869194Y-83419646D01*
X79873385Y-83435288D01*
X79919527Y-83515208D01*
X79919528Y-83515209D01*
X79919530Y-83515211D01*
X79919531Y-83515212D01*
X79984788Y-83580469D01*
X80064712Y-83626614D01*
X80064713Y-83626614D01*
X80064715Y-83626615D01*
X80109284Y-83638557D01*
X80149172Y-83649244D01*
X80152869Y-83650500D01*
X80246146Y-83650500D01*
X80256409Y-83650500D01*
X80265297Y-83645367D01*
X80335288Y-83626614D01*
X80415212Y-83580469D01*
X80480469Y-83515212D01*
X80491996Y-83495247D01*
X80511030Y-83473541D01*
X80527647Y-83460791D01*
X80572694Y-83445500D01*
X83934400Y-83445500D01*
X83968238Y-83453690D01*
X85038023Y-84003748D01*
X85043633Y-84010366D01*
X85084621Y-84027344D01*
X85084623Y-84027345D01*
X85088106Y-84028788D01*
X85088131Y-84028798D01*
X85253800Y-84097419D01*
X85253829Y-84097431D01*
X85253834Y-84097433D01*
X85430127Y-84132500D01*
X85430129Y-84132500D01*
X85609871Y-84132500D01*
X85609873Y-84132500D01*
X85786166Y-84097433D01*
X85952231Y-84028647D01*
X86101685Y-83928785D01*
X86228785Y-83801685D01*
X86328647Y-83652231D01*
X86397433Y-83486166D01*
X86432500Y-83309873D01*
X86432500Y-83130127D01*
X86397433Y-82953834D01*
X86397429Y-82953824D01*
X86328649Y-82787773D01*
X86328648Y-82787771D01*
X86328647Y-82787769D01*
X86228785Y-82638315D01*
X86101685Y-82511215D01*
X85993337Y-82438819D01*
X85983691Y-82424382D01*
X85786174Y-82342569D01*
X85786169Y-82342567D01*
X85786156Y-82342563D01*
X85786157Y-82342563D01*
X85668103Y-82319082D01*
X85609873Y-82307500D01*
X85430127Y-82307500D01*
X85380149Y-82317439D01*
X85380150Y-82317440D01*
X85253842Y-82342563D01*
X85253824Y-82342569D01*
X85085584Y-82412255D01*
X85081656Y-82414075D01*
X85079463Y-82414942D01*
X83968237Y-82986310D01*
X83934399Y-82994500D01*
X80401430Y-82994500D01*
X80382277Y-82991978D01*
X80364095Y-82987106D01*
X80346250Y-82979714D01*
X80335289Y-82973386D01*
X80335284Y-82973384D01*
X80246146Y-82949500D01*
X80246145Y-82949500D01*
X80153855Y-82949500D01*
X80153854Y-82949500D01*
X80114546Y-82960032D01*
X80064710Y-82973385D01*
X79984794Y-83019525D01*
X79919525Y-83084794D01*
X79873385Y-83164710D01*
X79873384Y-83164715D01*
X79849500Y-83253853D01*
X74754194Y-83253853D01*
X77854192Y-80153853D01*
X78249500Y-80153853D01*
X78249500Y-80246146D01*
X78269162Y-80319526D01*
X78273385Y-80335288D01*
X78319527Y-80415208D01*
X78319528Y-80415209D01*
X78319530Y-80415211D01*
X78319531Y-80415212D01*
X78384788Y-80480469D01*
X78464712Y-80526614D01*
X78464713Y-80526614D01*
X78464715Y-80526615D01*
X78509284Y-80538557D01*
X78549172Y-80549244D01*
X78552869Y-80550500D01*
X78553854Y-80550500D01*
X78553856Y-80550500D01*
X78586225Y-80550500D01*
X78614538Y-80556131D01*
X78639670Y-80566540D01*
X78663674Y-80582579D01*
X78808829Y-80727735D01*
X78808830Y-80727736D01*
X78872264Y-80791170D01*
X78955145Y-80825500D01*
X83684449Y-80825500D01*
X83712767Y-80831133D01*
X83737892Y-80841540D01*
X83761899Y-80857580D01*
X83784788Y-80880469D01*
X83864712Y-80926614D01*
X83864713Y-80926614D01*
X83864715Y-80926615D01*
X83909284Y-80938557D01*
X83949172Y-80949244D01*
X83952869Y-80950500D01*
X84046146Y-80950500D01*
X84056409Y-80950500D01*
X84065297Y-80945367D01*
X84135288Y-80926614D01*
X84215212Y-80880469D01*
X84280469Y-80815212D01*
X84326614Y-80735288D01*
X84350499Y-80646146D01*
X84350500Y-80646146D01*
X84350500Y-80590127D01*
X84607500Y-80590127D01*
X84607500Y-80769872D01*
X84616518Y-80815208D01*
X84616518Y-80815209D01*
X84642564Y-80946158D01*
X84642567Y-80946168D01*
X84655271Y-80976840D01*
X84711350Y-81112226D01*
X84711352Y-81112229D01*
X84711353Y-81112231D01*
X84811215Y-81261685D01*
X84938315Y-81388785D01*
X85087769Y-81488647D01*
X85087774Y-81488649D01*
X85087773Y-81488649D01*
X85253829Y-81557431D01*
X85253834Y-81557433D01*
X85430127Y-81592500D01*
X85430129Y-81592500D01*
X85609871Y-81592500D01*
X85609873Y-81592500D01*
X85786166Y-81557433D01*
X85952231Y-81488647D01*
X86101685Y-81388785D01*
X86228785Y-81261685D01*
X86328647Y-81112231D01*
X86397433Y-80946166D01*
X86432500Y-80769873D01*
X86432500Y-80590127D01*
X86397433Y-80413834D01*
X86396846Y-80412418D01*
X86385402Y-80384788D01*
X86328654Y-80247784D01*
X86328651Y-80247778D01*
X86328649Y-80247773D01*
X86328648Y-80247771D01*
X86328647Y-80247769D01*
X86228785Y-80098315D01*
X86101685Y-79971215D01*
X86047922Y-79935292D01*
X85993338Y-79898820D01*
X85983691Y-79884382D01*
X85786174Y-79802569D01*
X85786169Y-79802567D01*
X85786156Y-79802563D01*
X85786157Y-79802563D01*
X85668103Y-79779082D01*
X85609873Y-79767500D01*
X85430127Y-79767500D01*
X85380149Y-79777439D01*
X85380150Y-79777440D01*
X85253842Y-79802563D01*
X85253824Y-79802569D01*
X85087773Y-79871349D01*
X84938045Y-79971394D01*
X84936669Y-79972860D01*
X84812860Y-80096669D01*
X84811394Y-80098045D01*
X84711351Y-80247771D01*
X84711350Y-80247771D01*
X84642569Y-80413824D01*
X84642567Y-80413830D01*
X84642564Y-80413840D01*
X84615382Y-80550500D01*
X84607500Y-80590127D01*
X84350500Y-80590127D01*
X84350500Y-80553854D01*
X84350500Y-80552869D01*
X84349241Y-80549160D01*
X84343875Y-80529135D01*
X84343200Y-80526614D01*
X84343200Y-80526613D01*
X84343200Y-80526612D01*
X84330836Y-80480469D01*
X84326614Y-80464712D01*
X84326613Y-80464710D01*
X84297242Y-80413839D01*
X84281575Y-80386702D01*
X84281575Y-80386701D01*
X84280471Y-80384790D01*
X84215212Y-80319531D01*
X84215206Y-80319526D01*
X84135288Y-80273385D01*
X84099049Y-80263675D01*
X84046146Y-80249500D01*
X84046145Y-80249500D01*
X83953855Y-80249500D01*
X83953854Y-80249500D01*
X83914546Y-80260032D01*
X83864710Y-80273385D01*
X83784793Y-80319525D01*
X83761898Y-80342420D01*
X83737895Y-80358458D01*
X83720084Y-80365836D01*
X83712768Y-80368866D01*
X83684449Y-80374500D01*
X79138777Y-80374500D01*
X79110459Y-80368867D01*
X79085330Y-80358458D01*
X79061324Y-80342418D01*
X78982581Y-80263675D01*
X78966541Y-80239669D01*
X78956131Y-80214537D01*
X78950500Y-80186223D01*
X78950500Y-80152869D01*
X78949241Y-80149160D01*
X78948224Y-80145366D01*
X78943200Y-80126614D01*
X78943200Y-80126613D01*
X78943200Y-80126612D01*
X78926615Y-80064716D01*
X78926615Y-80064715D01*
X78926614Y-80064712D01*
X78898035Y-80015212D01*
X78880471Y-79984791D01*
X78880470Y-79984790D01*
X78880469Y-79984788D01*
X78815212Y-79919531D01*
X78815206Y-79919526D01*
X78735288Y-79873385D01*
X78716453Y-79868338D01*
X78646146Y-79849500D01*
X78646145Y-79849500D01*
X78553855Y-79849500D01*
X78553854Y-79849500D01*
X78514546Y-79860032D01*
X78464710Y-79873385D01*
X78384794Y-79919525D01*
X78319525Y-79984794D01*
X78273385Y-80064710D01*
X78269162Y-80080471D01*
X78249500Y-80153853D01*
X77854192Y-80153853D01*
X78254192Y-79753853D01*
X79249500Y-79753853D01*
X79249500Y-79846146D01*
X79269162Y-79919526D01*
X79273385Y-79935288D01*
X79319527Y-80015208D01*
X79319531Y-80015212D01*
X79384788Y-80080469D01*
X79384790Y-80080470D01*
X79384791Y-80080471D01*
X79384793Y-80080472D01*
X79385204Y-80080769D01*
X79386702Y-80081575D01*
X79412846Y-80096669D01*
X79464710Y-80126613D01*
X79464712Y-80126614D01*
X79464713Y-80126614D01*
X79464715Y-80126615D01*
X79464719Y-80126617D01*
X79464777Y-80126647D01*
X79465755Y-80126893D01*
X79509284Y-80138557D01*
X79549167Y-80149243D01*
X79552869Y-80150500D01*
X79646146Y-80150500D01*
X79656409Y-80150500D01*
X79665297Y-80145367D01*
X79735288Y-80126614D01*
X79815212Y-80080469D01*
X79880469Y-80015212D01*
X79926614Y-79935288D01*
X79950499Y-79846146D01*
X79950500Y-79846146D01*
X79950500Y-79809776D01*
X79950930Y-79805807D01*
X79952744Y-79802490D01*
X79956131Y-79785461D01*
X79966542Y-79760326D01*
X79982578Y-79736326D01*
X81321326Y-78397578D01*
X81345329Y-78381541D01*
X81370460Y-78371131D01*
X81398776Y-78365500D01*
X83934400Y-78365500D01*
X83968238Y-78373690D01*
X84250922Y-78519039D01*
X85077436Y-78944013D01*
X85082178Y-78945900D01*
X85087192Y-78948416D01*
X85087296Y-78948458D01*
X85088131Y-78948798D01*
X85253800Y-79017419D01*
X85253829Y-79017431D01*
X85253834Y-79017433D01*
X85430127Y-79052500D01*
X85430129Y-79052500D01*
X85609871Y-79052500D01*
X85609873Y-79052500D01*
X85786166Y-79017433D01*
X85952231Y-78948647D01*
X86101685Y-78848785D01*
X86228785Y-78721685D01*
X86328647Y-78572231D01*
X86397433Y-78406166D01*
X86432500Y-78229873D01*
X86432500Y-78050127D01*
X86397433Y-77873834D01*
X86397429Y-77873824D01*
X86391213Y-77858817D01*
X86328654Y-77707784D01*
X86328651Y-77707778D01*
X86328649Y-77707773D01*
X86328648Y-77707771D01*
X86328647Y-77707769D01*
X86228785Y-77558315D01*
X86101685Y-77431215D01*
X85993337Y-77358819D01*
X85983691Y-77344382D01*
X85786174Y-77262569D01*
X85786169Y-77262567D01*
X85786156Y-77262563D01*
X85786157Y-77262563D01*
X85668103Y-77239082D01*
X85609873Y-77227500D01*
X85430127Y-77227500D01*
X85380149Y-77237439D01*
X85380150Y-77237440D01*
X85253842Y-77262563D01*
X85253824Y-77262569D01*
X85087768Y-77331351D01*
X85087504Y-77331493D01*
X85079905Y-77335012D01*
X85077392Y-77336006D01*
X83968236Y-77906310D01*
X83934398Y-77914500D01*
X81315784Y-77914500D01*
X81315752Y-77914499D01*
X81313467Y-77914499D01*
X81304855Y-77914499D01*
X81215146Y-77914499D01*
X81215145Y-77914499D01*
X81132310Y-77948807D01*
X81132278Y-77948822D01*
X81132267Y-77948827D01*
X81132262Y-77948831D01*
X81068829Y-78012265D01*
X80359409Y-78721686D01*
X79663676Y-79417418D01*
X79639670Y-79433458D01*
X79614540Y-79443867D01*
X79586224Y-79449500D01*
X79553854Y-79449500D01*
X79514546Y-79460032D01*
X79464710Y-79473385D01*
X79384794Y-79519525D01*
X79319525Y-79584794D01*
X79273385Y-79664710D01*
X79273384Y-79664715D01*
X79249500Y-79753853D01*
X78254192Y-79753853D01*
X80493761Y-77514283D01*
X80520905Y-77497026D01*
X81305774Y-77213036D01*
X81336149Y-77198131D01*
X81340422Y-77195421D01*
X81340426Y-77195417D01*
X81340774Y-77195197D01*
X81352085Y-77189322D01*
X81383127Y-77176465D01*
X81489669Y-77105276D01*
X81580276Y-77014669D01*
X81640295Y-76924842D01*
X81660709Y-76904428D01*
X81670075Y-76898169D01*
X81725620Y-76887118D01*
X81728872Y-76887765D01*
X81775952Y-76919228D01*
X81798888Y-76953553D01*
X81798889Y-76953555D01*
X81839717Y-77014660D01*
X81839720Y-77014664D01*
X81839724Y-77014669D01*
X81930331Y-77105276D01*
X82036873Y-77176465D01*
X82036878Y-77176467D01*
X82036877Y-77176467D01*
X82067900Y-77189317D01*
X82155256Y-77225501D01*
X82155258Y-77225501D01*
X82155260Y-77225502D01*
X82197903Y-77233984D01*
X82280931Y-77250500D01*
X82280933Y-77250500D01*
X82409067Y-77250500D01*
X82409069Y-77250500D01*
X82534744Y-77225501D01*
X82653127Y-77176465D01*
X82759669Y-77105276D01*
X82850276Y-77014669D01*
X82910297Y-76924839D01*
X82930709Y-76904427D01*
X82940080Y-76898165D01*
X82995624Y-76887118D01*
X82998873Y-76887764D01*
X83045952Y-76919226D01*
X83068889Y-76953553D01*
X83068890Y-76953555D01*
X83109718Y-77014660D01*
X83109721Y-77014664D01*
X83109725Y-77014669D01*
X83200332Y-77105276D01*
X83306874Y-77176465D01*
X83306879Y-77176467D01*
X83306878Y-77176467D01*
X83337901Y-77189317D01*
X83425257Y-77225501D01*
X83425259Y-77225501D01*
X83425261Y-77225502D01*
X83467904Y-77233984D01*
X83550932Y-77250500D01*
X83550934Y-77250500D01*
X83679068Y-77250500D01*
X83679070Y-77250500D01*
X83804745Y-77225501D01*
X83864431Y-77200778D01*
X83893370Y-77191470D01*
X83912246Y-77180972D01*
X83923128Y-77176465D01*
X83934410Y-77168925D01*
X83939533Y-77165795D01*
X84516682Y-76844828D01*
X84552648Y-76835500D01*
X84566843Y-76835500D01*
X84566844Y-76835500D01*
X84653400Y-76799647D01*
X84663790Y-76789255D01*
X84696953Y-76770106D01*
X85769799Y-76482511D01*
X85772311Y-76481815D01*
X85772664Y-76481714D01*
X85772680Y-76481705D01*
X85774230Y-76481086D01*
X85782716Y-76478568D01*
X85782692Y-76478486D01*
X85786154Y-76477435D01*
X85786166Y-76477433D01*
X85952231Y-76408647D01*
X86101685Y-76308785D01*
X86228785Y-76181685D01*
X86328647Y-76032231D01*
X86397433Y-75866166D01*
X86432500Y-75689873D01*
X86432500Y-75510127D01*
X86397433Y-75333834D01*
X86328647Y-75167769D01*
X86228785Y-75018315D01*
X86101685Y-74891215D01*
X85993337Y-74818819D01*
X85983691Y-74804382D01*
X85786174Y-74722569D01*
X85786169Y-74722567D01*
X85786156Y-74722563D01*
X85786157Y-74722563D01*
X85668103Y-74699082D01*
X85609873Y-74687500D01*
X85430127Y-74687500D01*
X85380149Y-74697439D01*
X85380150Y-74697440D01*
X85253842Y-74722563D01*
X85253824Y-74722569D01*
X85087773Y-74791349D01*
X84938045Y-74891394D01*
X84936669Y-74892860D01*
X84812860Y-75016669D01*
X84811394Y-75018045D01*
X84711349Y-75167773D01*
X84641851Y-75335559D01*
X84641817Y-75335545D01*
X84641019Y-75337536D01*
X84639635Y-75340648D01*
X84373885Y-76141712D01*
X84336837Y-76184551D01*
X84280348Y-76188647D01*
X84272145Y-76185370D01*
X83941363Y-76029735D01*
X83883632Y-76002572D01*
X83880210Y-76001013D01*
X83879716Y-76000795D01*
X83879713Y-76000794D01*
X83879706Y-76000792D01*
X83862965Y-75997255D01*
X83849946Y-75993221D01*
X83804762Y-75974505D01*
X83804752Y-75974501D01*
X83804743Y-75974498D01*
X83804740Y-75974497D01*
X83714697Y-75956586D01*
X83714696Y-75956585D01*
X83679070Y-75949500D01*
X83550932Y-75949500D01*
X83519726Y-75955706D01*
X83519727Y-75955707D01*
X83425261Y-75974497D01*
X83425258Y-75974498D01*
X83425249Y-75974501D01*
X83425245Y-75974503D01*
X83306877Y-76023532D01*
X83200062Y-76094903D01*
X83198686Y-76096369D01*
X83111375Y-76183680D01*
X83109903Y-76185061D01*
X83066105Y-76250611D01*
X83054352Y-76268201D01*
X83054351Y-76268203D01*
X83054350Y-76268202D01*
X83049706Y-76275154D01*
X83029290Y-76295571D01*
X83019923Y-76301830D01*
X82964374Y-76312880D01*
X82964362Y-76312878D01*
X82961127Y-76312234D01*
X82914046Y-76280770D01*
X82850276Y-76185331D01*
X82759671Y-76094726D01*
X82759670Y-76094725D01*
X82759669Y-76094724D01*
X82745385Y-76085180D01*
X82691404Y-76049111D01*
X82653127Y-76023535D01*
X82653124Y-76023533D01*
X82653123Y-76023533D01*
X82643580Y-76019580D01*
X82643577Y-76019578D01*
X82534754Y-75974503D01*
X82534742Y-75974498D01*
X82534739Y-75974497D01*
X82444696Y-75956586D01*
X82444695Y-75956585D01*
X82409069Y-75949500D01*
X82280931Y-75949500D01*
X82249725Y-75955706D01*
X82249726Y-75955707D01*
X82155260Y-75974497D01*
X82155257Y-75974498D01*
X82155248Y-75974501D01*
X82155244Y-75974503D01*
X82036876Y-76023532D01*
X81930061Y-76094903D01*
X81928685Y-76096369D01*
X81841369Y-76183685D01*
X81839903Y-76185061D01*
X81796105Y-76250611D01*
X81796103Y-76250614D01*
X81779703Y-76275156D01*
X81759290Y-76295568D01*
X81749922Y-76301828D01*
X81694375Y-76312879D01*
X81693151Y-76312636D01*
X81691122Y-76312232D01*
X81644045Y-76280769D01*
X81644044Y-76280768D01*
X81580276Y-76185331D01*
X81489669Y-76094724D01*
X81475385Y-76085180D01*
X81421404Y-76049111D01*
X81383127Y-76023535D01*
X81383124Y-76023533D01*
X81383123Y-76023533D01*
X81373580Y-76019580D01*
X81373577Y-76019578D01*
X81264754Y-75974503D01*
X81264742Y-75974498D01*
X81264739Y-75974497D01*
X81174696Y-75956586D01*
X81174695Y-75956585D01*
X81139069Y-75949500D01*
X81010931Y-75949500D01*
X80979725Y-75955706D01*
X80979726Y-75955707D01*
X80885260Y-75974497D01*
X80885257Y-75974498D01*
X80885248Y-75974501D01*
X80885244Y-75974503D01*
X80766876Y-76023532D01*
X80660061Y-76094903D01*
X80658685Y-76096369D01*
X80571369Y-76183685D01*
X80569903Y-76185061D01*
X80526105Y-76250611D01*
X80526103Y-76250614D01*
X80509703Y-76275156D01*
X80489290Y-76295568D01*
X80479922Y-76301828D01*
X80424375Y-76312879D01*
X80423151Y-76312636D01*
X80421122Y-76312232D01*
X80374045Y-76280769D01*
X80374044Y-76280768D01*
X80310276Y-76185331D01*
X80219669Y-76094724D01*
X80205385Y-76085180D01*
X80151404Y-76049111D01*
X80113127Y-76023535D01*
X80113124Y-76023533D01*
X80113123Y-76023533D01*
X80103580Y-76019580D01*
X80103577Y-76019578D01*
X79994754Y-75974503D01*
X79994742Y-75974498D01*
X79994739Y-75974497D01*
X79904696Y-75956586D01*
X79904695Y-75956585D01*
X79869069Y-75949500D01*
X79740931Y-75949500D01*
X79709725Y-75955706D01*
X79709726Y-75955707D01*
X79615260Y-75974497D01*
X79615257Y-75974498D01*
X79615248Y-75974501D01*
X79615244Y-75974503D01*
X79496876Y-76023532D01*
X79390061Y-76094903D01*
X79388685Y-76096369D01*
X79301369Y-76183685D01*
X79299903Y-76185061D01*
X79256105Y-76250611D01*
X79256103Y-76250614D01*
X79239703Y-76275156D01*
X79219290Y-76295568D01*
X79209922Y-76301828D01*
X79154375Y-76312879D01*
X79153151Y-76312636D01*
X79151122Y-76312232D01*
X79104045Y-76280769D01*
X79104044Y-76280768D01*
X79040276Y-76185331D01*
X78949669Y-76094724D01*
X78935385Y-76085180D01*
X78881404Y-76049111D01*
X78843127Y-76023535D01*
X78843124Y-76023533D01*
X78843123Y-76023533D01*
X78833581Y-76019580D01*
X78833579Y-76019579D01*
X78811692Y-76010513D01*
X78798730Y-76003145D01*
X78798542Y-76003426D01*
X78797037Y-76002412D01*
X78797028Y-76002406D01*
X78794359Y-76000792D01*
X78793119Y-76000042D01*
X78765567Y-75986886D01*
X77980907Y-75702971D01*
X77953759Y-75685712D01*
X77668400Y-75400353D01*
X77668396Y-75400350D01*
X77617696Y-75379350D01*
X77581844Y-75364500D01*
X77581843Y-75364500D01*
X71864937Y-75364500D01*
X71831550Y-75356540D01*
X70767944Y-74818820D01*
X70719557Y-74794357D01*
X70719552Y-74794355D01*
X70718965Y-74794126D01*
X70717611Y-74793580D01*
X70546174Y-74722569D01*
X70546169Y-74722567D01*
X70546156Y-74722563D01*
X70546157Y-74722563D01*
X70428103Y-74699082D01*
X70369873Y-74687500D01*
X70190127Y-74687500D01*
X70140149Y-74697439D01*
X70140150Y-74697440D01*
X70013842Y-74722563D01*
X70013824Y-74722569D01*
X69847773Y-74791349D01*
X69698045Y-74891394D01*
X69696669Y-74892860D01*
X69572860Y-75016669D01*
X69571394Y-75018045D01*
X69471349Y-75167773D01*
X69402569Y-75333824D01*
X69402567Y-75333830D01*
X69402564Y-75333840D01*
X69367500Y-75510127D01*
X69100500Y-75510127D01*
X69100500Y-74164999D01*
X80192988Y-74164999D01*
X80200440Y-74221615D01*
X80200442Y-74221625D01*
X80200443Y-74221627D01*
X80200444Y-74221631D01*
X80260900Y-74367586D01*
X80357075Y-74492923D01*
X80482412Y-74589098D01*
X80628367Y-74649554D01*
X80628370Y-74649555D01*
X80697674Y-74658678D01*
X80714999Y-74660959D01*
X80715000Y-74660959D01*
X80715000Y-74164999D01*
X80192988Y-74164999D01*
X69100500Y-74164999D01*
X69100500Y-72970128D01*
X69367500Y-72970128D01*
X69367500Y-73149871D01*
X69370069Y-73162787D01*
X69402564Y-73326158D01*
X69402567Y-73326169D01*
X69402569Y-73326174D01*
X69471349Y-73492225D01*
X69471350Y-73492226D01*
X69562752Y-73629020D01*
X69571215Y-73641685D01*
X69698315Y-73768785D01*
X69847769Y-73868647D01*
X69847774Y-73868649D01*
X69847773Y-73868649D01*
X69891179Y-73886628D01*
X70013834Y-73937433D01*
X70190127Y-73972500D01*
X70190129Y-73972500D01*
X70369871Y-73972500D01*
X70369873Y-73972500D01*
X70546166Y-73937433D01*
X70712231Y-73868647D01*
X70861685Y-73768785D01*
X70988785Y-73641685D01*
X71088647Y-73492231D01*
X71157433Y-73326166D01*
X71192500Y-73149873D01*
X71192500Y-73021509D01*
X73650000Y-73021509D01*
X73650000Y-73218489D01*
X73688426Y-73411680D01*
X73688429Y-73411691D01*
X73688430Y-73411696D01*
X73763809Y-73593675D01*
X73787425Y-73629019D01*
X73787425Y-73629018D01*
X73787426Y-73629019D01*
X74219294Y-73197151D01*
X74271619Y-73175478D01*
X74323945Y-73197152D01*
X74343097Y-73230324D01*
X74347148Y-73245442D01*
X74347149Y-73245446D01*
X74379273Y-73301085D01*
X74389936Y-73319554D01*
X74450446Y-73380064D01*
X74486469Y-73400862D01*
X74522779Y-73421826D01*
X74524555Y-73422851D01*
X74539673Y-73426902D01*
X74584606Y-73461379D01*
X74591999Y-73517532D01*
X74572846Y-73550706D01*
X74258927Y-73864624D01*
X74140979Y-73982572D01*
X74140979Y-73982573D01*
X74176323Y-74006189D01*
X74255533Y-74038999D01*
X74358302Y-74081568D01*
X74358305Y-74081568D01*
X74358306Y-74081569D01*
X74358317Y-74081572D01*
X74551510Y-74120000D01*
X74748489Y-74120000D01*
X74748490Y-74120000D01*
X74941682Y-74081572D01*
X74941693Y-74081569D01*
X74941694Y-74081568D01*
X74941696Y-74081568D01*
X75008934Y-74053717D01*
X75123675Y-74006190D01*
X75159020Y-73982573D01*
X74727153Y-73550706D01*
X74705479Y-73498380D01*
X74727153Y-73446054D01*
X74760325Y-73426902D01*
X74775445Y-73422851D01*
X74849554Y-73380064D01*
X74910064Y-73319554D01*
X74952851Y-73245445D01*
X74956902Y-73230326D01*
X74991379Y-73185394D01*
X75047531Y-73178000D01*
X75080706Y-73197153D01*
X75512573Y-73629020D01*
X75536190Y-73593675D01*
X75585946Y-73473553D01*
X75611568Y-73411696D01*
X75611569Y-73411693D01*
X75611572Y-73411682D01*
X75650000Y-73218490D01*
X75650000Y-73021509D01*
X75611572Y-72828317D01*
X75611569Y-72828306D01*
X75611568Y-72828305D01*
X75611568Y-72828302D01*
X75536189Y-72646324D01*
X75536189Y-72646323D01*
X75523794Y-72627773D01*
X75512572Y-72610978D01*
X75080706Y-73042845D01*
X75028380Y-73064519D01*
X74976054Y-73042845D01*
X74956902Y-73009672D01*
X74952852Y-72994558D01*
X74952850Y-72994553D01*
X74910063Y-72920445D01*
X74849554Y-72859936D01*
X74775446Y-72817149D01*
X74775442Y-72817148D01*
X74760325Y-72813097D01*
X74715392Y-72778617D01*
X74708001Y-72722465D01*
X74727153Y-72689293D01*
X74770125Y-72646321D01*
X74883867Y-72532579D01*
X74907871Y-72516541D01*
X74933002Y-72506131D01*
X74961318Y-72500500D01*
X75164819Y-72500500D01*
X75164820Y-72500500D01*
X75208722Y-72491767D01*
X75258504Y-72458504D01*
X75291767Y-72408722D01*
X75300500Y-72364820D01*
X75300500Y-72340296D01*
X75318538Y-72291878D01*
X75734173Y-71811482D01*
X75740487Y-71800825D01*
X75751821Y-71786224D01*
X76720408Y-70817639D01*
X76756261Y-70731083D01*
X76756261Y-70637395D01*
X76756261Y-69579617D01*
X76773319Y-69532356D01*
X76819409Y-69476826D01*
X77097221Y-69142111D01*
X77147317Y-69115690D01*
X77178579Y-69119517D01*
X77183984Y-69121406D01*
X77184059Y-69121446D01*
X77184065Y-69121434D01*
X77189203Y-69123230D01*
X77193010Y-69125428D01*
X77218130Y-69132158D01*
X77237895Y-69137455D01*
X77237896Y-69137455D01*
X77250531Y-69140840D01*
X77266072Y-69145004D01*
X77269774Y-69146261D01*
X77270759Y-69146261D01*
X77270761Y-69146261D01*
X77448427Y-69146261D01*
X77500753Y-69167935D01*
X77509861Y-69179008D01*
X77572695Y-69272580D01*
X77585261Y-69313833D01*
X77585261Y-70932807D01*
X77582365Y-70950401D01*
X77583001Y-70950549D01*
X77499985Y-71308547D01*
X77499978Y-71308579D01*
X77496977Y-71325960D01*
X77496977Y-71325964D01*
X77496675Y-71328594D01*
X77498789Y-71343730D01*
X77499500Y-71353965D01*
X77499500Y-72364820D01*
X77508233Y-72408722D01*
X77541496Y-72458504D01*
X77591278Y-72491767D01*
X77635180Y-72500500D01*
X77635181Y-72500500D01*
X77838682Y-72500500D01*
X77866996Y-72506131D01*
X77892128Y-72516541D01*
X77916134Y-72532581D01*
X78072846Y-72689293D01*
X78094520Y-72741619D01*
X78072846Y-72793945D01*
X78039675Y-72813097D01*
X78024556Y-72817148D01*
X78024553Y-72817149D01*
X77950445Y-72859936D01*
X77889936Y-72920445D01*
X77847149Y-72994553D01*
X77847148Y-72994556D01*
X77843097Y-73009675D01*
X77808617Y-73054607D01*
X77752464Y-73061998D01*
X77719293Y-73042846D01*
X77287426Y-72610979D01*
X77287425Y-72610979D01*
X77287424Y-72610979D01*
X77263810Y-72646321D01*
X77188430Y-72828302D01*
X77188429Y-72828307D01*
X77188426Y-72828318D01*
X77150000Y-73021509D01*
X77150000Y-73218489D01*
X77188426Y-73411680D01*
X77188429Y-73411691D01*
X77188430Y-73411696D01*
X77263809Y-73593675D01*
X77287425Y-73629019D01*
X77287425Y-73629018D01*
X77287426Y-73629019D01*
X77719294Y-73197151D01*
X77771619Y-73175478D01*
X77823945Y-73197152D01*
X77843097Y-73230324D01*
X77847148Y-73245442D01*
X77847149Y-73245446D01*
X77879273Y-73301085D01*
X77889936Y-73319554D01*
X77950446Y-73380064D01*
X77986469Y-73400862D01*
X78022779Y-73421826D01*
X78024555Y-73422851D01*
X78039673Y-73426902D01*
X78084606Y-73461379D01*
X78091999Y-73517532D01*
X78072846Y-73550706D01*
X77640978Y-73982572D01*
X77640979Y-73982573D01*
X77676323Y-74006189D01*
X77755533Y-74038999D01*
X77858302Y-74081568D01*
X77858305Y-74081568D01*
X77858306Y-74081569D01*
X77858317Y-74081572D01*
X78051510Y-74120000D01*
X78248489Y-74120000D01*
X78248490Y-74120000D01*
X78441682Y-74081572D01*
X78441693Y-74081569D01*
X78462266Y-74073048D01*
X78623675Y-74006190D01*
X78659020Y-73982573D01*
X78227153Y-73550706D01*
X78205479Y-73498380D01*
X78227153Y-73446054D01*
X78260325Y-73426902D01*
X78275445Y-73422851D01*
X78349554Y-73380064D01*
X78410064Y-73319554D01*
X78452851Y-73245445D01*
X78456902Y-73230326D01*
X78491378Y-73185393D01*
X78547530Y-73177999D01*
X78580706Y-73197152D01*
X79012573Y-73629019D01*
X79036190Y-73593675D01*
X79111569Y-73411693D01*
X79111572Y-73411682D01*
X79150000Y-73218490D01*
X79150000Y-73021510D01*
X79120146Y-72871422D01*
X79120146Y-72842555D01*
X79121700Y-72834737D01*
X79153165Y-72787647D01*
X79208698Y-72776594D01*
X79211444Y-72777140D01*
X79249347Y-72797394D01*
X79645353Y-73193400D01*
X79711600Y-73259647D01*
X79798156Y-73295500D01*
X80308863Y-73295500D01*
X80337177Y-73301131D01*
X80344540Y-73304181D01*
X80384588Y-73344228D01*
X80384591Y-73400862D01*
X80383014Y-73404670D01*
X80359697Y-73435061D01*
X80357077Y-73437072D01*
X80357076Y-73437073D01*
X80350185Y-73446054D01*
X80260899Y-73562411D01*
X80200443Y-73708365D01*
X80200442Y-73708369D01*
X80192987Y-73764998D01*
X80192988Y-73764999D01*
X80826281Y-73764999D01*
X80854591Y-73770628D01*
X80865003Y-73774941D01*
X80905053Y-73814984D01*
X80905056Y-73814991D01*
X80909367Y-73825399D01*
X80915000Y-73853717D01*
X80915000Y-73964999D01*
X81026281Y-73964999D01*
X81054591Y-73970628D01*
X81065003Y-73974941D01*
X81105053Y-74014984D01*
X81105056Y-74014991D01*
X81109367Y-74025399D01*
X81115000Y-74053717D01*
X81115000Y-74660958D01*
X81115000Y-74660959D01*
X81201628Y-74649555D01*
X81201632Y-74649554D01*
X81347587Y-74589098D01*
X81472924Y-74492923D01*
X81569099Y-74367587D01*
X81569103Y-74367575D01*
X81569343Y-74367162D01*
X81581109Y-74351823D01*
X81595762Y-74337171D01*
X81648086Y-74315499D01*
X81709672Y-74315499D01*
X81709674Y-74315499D01*
X81782740Y-74300965D01*
X81865601Y-74245600D01*
X81920966Y-74162739D01*
X81935500Y-74089673D01*
X81935500Y-73840325D01*
X81920966Y-73767259D01*
X81865601Y-73684398D01*
X81865266Y-73684174D01*
X81844363Y-73663020D01*
X81822228Y-73629020D01*
X81757484Y-73529569D01*
X81745500Y-73489195D01*
X81745500Y-73368129D01*
X81751131Y-73339815D01*
X81755323Y-73329695D01*
X81795368Y-73289649D01*
X81845179Y-73287205D01*
X81849248Y-73288440D01*
X81849248Y-73288439D01*
X81865997Y-73293523D01*
X81872823Y-73295966D01*
X81956194Y-73330500D01*
X81956195Y-73330500D01*
X82033012Y-73330500D01*
X82035136Y-73330806D01*
X82039697Y-73331011D01*
X82049285Y-73330500D01*
X82063804Y-73330500D01*
X82063806Y-73330500D01*
X82063810Y-73330498D01*
X82065297Y-73330202D01*
X82068591Y-73329624D01*
X82070130Y-73329389D01*
X82070132Y-73329389D01*
X82259362Y-73300518D01*
X82272384Y-73297459D01*
X82289303Y-73295500D01*
X83935065Y-73295500D01*
X83968451Y-73303459D01*
X84040356Y-73339812D01*
X85037129Y-73843745D01*
X85037191Y-73843775D01*
X85078429Y-73864624D01*
X85083452Y-73866590D01*
X85086997Y-73868338D01*
X85087326Y-73868470D01*
X85088161Y-73868810D01*
X85090921Y-73869953D01*
X85131179Y-73886628D01*
X85253834Y-73937433D01*
X85430127Y-73972500D01*
X85430129Y-73972500D01*
X85609871Y-73972500D01*
X85609873Y-73972500D01*
X85786166Y-73937433D01*
X85952231Y-73868647D01*
X86101685Y-73768785D01*
X86228785Y-73641685D01*
X86328647Y-73492231D01*
X86397433Y-73326166D01*
X86432500Y-73149873D01*
X86432500Y-72970127D01*
X86410582Y-72859936D01*
X86397435Y-72793842D01*
X86397431Y-72793828D01*
X86395637Y-72789498D01*
X86395635Y-72789493D01*
X86328654Y-72627784D01*
X86328651Y-72627778D01*
X86328649Y-72627773D01*
X86328648Y-72627771D01*
X86328647Y-72627769D01*
X86228785Y-72478315D01*
X86101685Y-72351215D01*
X86097692Y-72348547D01*
X86085343Y-72340296D01*
X86049947Y-72316645D01*
X86009051Y-72289319D01*
X85993337Y-72278819D01*
X85983691Y-72264382D01*
X85786174Y-72182569D01*
X85786169Y-72182567D01*
X85786156Y-72182563D01*
X85786157Y-72182563D01*
X85668103Y-72159082D01*
X85609873Y-72147500D01*
X85430127Y-72147500D01*
X85380149Y-72157439D01*
X85380150Y-72157440D01*
X85253842Y-72182563D01*
X85253824Y-72182569D01*
X85085815Y-72252160D01*
X85080822Y-72254452D01*
X85078369Y-72255403D01*
X85078366Y-72255404D01*
X84305133Y-72646324D01*
X83998316Y-72801440D01*
X83968448Y-72816540D01*
X83935061Y-72824500D01*
X83741918Y-72824500D01*
X83713598Y-72818866D01*
X83706235Y-72815816D01*
X83666190Y-72775766D01*
X83666190Y-72719136D01*
X83669241Y-72711769D01*
X83685277Y-72687769D01*
X84347686Y-72025361D01*
X84565805Y-71807240D01*
X84595037Y-71789263D01*
X85778862Y-71400489D01*
X85778875Y-71400481D01*
X85781093Y-71399511D01*
X85782824Y-71398874D01*
X85782804Y-71398826D01*
X85952226Y-71328649D01*
X85952225Y-71328649D01*
X85952231Y-71328647D01*
X86101685Y-71228785D01*
X86228785Y-71101685D01*
X86328647Y-70952231D01*
X86397433Y-70786166D01*
X86432500Y-70609873D01*
X86432500Y-70430127D01*
X86397433Y-70253834D01*
X86392873Y-70242826D01*
X86344334Y-70125641D01*
X86328654Y-70087784D01*
X86328651Y-70087778D01*
X86328649Y-70087773D01*
X86328648Y-70087771D01*
X86328647Y-70087769D01*
X86228785Y-69938315D01*
X86101685Y-69811215D01*
X86079710Y-69796532D01*
X85993338Y-69738820D01*
X85983691Y-69724382D01*
X85786174Y-69642569D01*
X85786169Y-69642567D01*
X85786156Y-69642563D01*
X85786157Y-69642563D01*
X85668103Y-69619082D01*
X85609873Y-69607500D01*
X85430127Y-69607500D01*
X85380149Y-69617439D01*
X85380150Y-69617440D01*
X85253842Y-69642563D01*
X85253824Y-69642569D01*
X85087773Y-69711349D01*
X84938045Y-69811394D01*
X84936669Y-69812860D01*
X84812860Y-69936669D01*
X84811394Y-69938045D01*
X84711351Y-70087771D01*
X84711350Y-70087771D01*
X84641917Y-70255399D01*
X84640786Y-70258240D01*
X84639513Y-70261125D01*
X84250735Y-71444957D01*
X84232755Y-71474194D01*
X83414534Y-72292418D01*
X83390528Y-72308458D01*
X83365398Y-72318867D01*
X83337082Y-72324500D01*
X82318130Y-72324500D01*
X82289812Y-72318867D01*
X82284447Y-72316645D01*
X82284446Y-72316645D01*
X82279381Y-72314547D01*
X82239334Y-72274498D01*
X82239286Y-72274341D01*
X82238996Y-72273639D01*
X82238996Y-72273381D01*
X82235104Y-72260520D01*
X82235088Y-72260439D01*
X82239000Y-72259666D01*
X82239016Y-72217002D01*
X82247754Y-72201510D01*
X82278949Y-72159082D01*
X82357505Y-72052240D01*
X82359321Y-72048712D01*
X82372787Y-72030257D01*
X82813186Y-71589860D01*
X82865509Y-71568188D01*
X82898251Y-71575826D01*
X82898489Y-71575943D01*
X82985823Y-71619837D01*
X82991177Y-71621674D01*
X82995419Y-71623767D01*
X82996487Y-71624985D01*
X83003787Y-71628599D01*
X83037261Y-71650966D01*
X83110327Y-71665500D01*
X83110329Y-71665500D01*
X83359673Y-71665500D01*
X83359675Y-71665500D01*
X83432741Y-71650966D01*
X83515602Y-71595601D01*
X83570967Y-71512740D01*
X83585501Y-71439674D01*
X83585501Y-71130326D01*
X83570967Y-71057260D01*
X83544966Y-71018347D01*
X83533918Y-70991672D01*
X83530167Y-70972813D01*
X83541215Y-70917266D01*
X83570967Y-70872740D01*
X83585501Y-70799674D01*
X83585501Y-70490326D01*
X83570967Y-70417260D01*
X83515602Y-70334399D01*
X83432741Y-70279034D01*
X83359675Y-70264500D01*
X83359673Y-70264500D01*
X83351005Y-70264500D01*
X83318617Y-70257036D01*
X83318021Y-70256746D01*
X83128130Y-70164311D01*
X83059849Y-70131073D01*
X83039911Y-70116863D01*
X82410281Y-69487233D01*
X82394241Y-69463227D01*
X82391191Y-69455863D01*
X82391193Y-69399228D01*
X82431240Y-69359181D01*
X82438605Y-69356130D01*
X82466919Y-69350500D01*
X83172301Y-69350500D01*
X83177571Y-69350688D01*
X83178211Y-69350733D01*
X83181240Y-69350950D01*
X83182725Y-69350812D01*
X83189525Y-69350500D01*
X83204816Y-69350500D01*
X83204819Y-69350500D01*
X83204820Y-69350500D01*
X83217219Y-69348033D01*
X83221011Y-69347278D01*
X83231603Y-69346302D01*
X83234177Y-69345630D01*
X83239872Y-69343527D01*
X83245596Y-69342389D01*
X83245600Y-69342388D01*
X83246223Y-69342263D01*
X83248722Y-69341767D01*
X83248724Y-69341765D01*
X83252479Y-69340211D01*
X83261117Y-69335809D01*
X83261107Y-69335786D01*
X83261452Y-69335638D01*
X83261986Y-69335366D01*
X83262772Y-69335077D01*
X83266880Y-69333084D01*
X83292871Y-69317154D01*
X83521277Y-69144218D01*
X83579014Y-69100503D01*
X83623683Y-69085500D01*
X84349466Y-69085500D01*
X84365415Y-69087691D01*
X84369970Y-69087864D01*
X84400333Y-69086040D01*
X84403723Y-69085500D01*
X84696842Y-69085500D01*
X84696844Y-69085500D01*
X84783400Y-69049647D01*
X84795714Y-69037333D01*
X84836398Y-69016578D01*
X85606163Y-68893963D01*
X85617529Y-68891078D01*
X85621274Y-68890231D01*
X85786166Y-68857433D01*
X85952231Y-68788647D01*
X86101685Y-68688785D01*
X86228785Y-68561685D01*
X86328647Y-68412231D01*
X86397433Y-68246166D01*
X86432500Y-68069873D01*
X86432500Y-67890127D01*
X86397433Y-67713834D01*
X86397431Y-67713829D01*
X86381828Y-67676160D01*
X86328654Y-67547784D01*
X86328651Y-67547778D01*
X86328649Y-67547773D01*
X86328648Y-67547771D01*
X86328647Y-67547769D01*
X86228785Y-67398315D01*
X86101685Y-67271215D01*
X86080638Y-67257152D01*
X85993338Y-67198820D01*
X85983691Y-67184382D01*
X85786174Y-67102569D01*
X85786169Y-67102567D01*
X85786156Y-67102563D01*
X85786157Y-67102563D01*
X85668103Y-67079082D01*
X85609873Y-67067500D01*
X85430127Y-67067500D01*
X85380149Y-67077439D01*
X85380150Y-67077440D01*
X85253842Y-67102563D01*
X85253824Y-67102569D01*
X85087773Y-67171349D01*
X84938045Y-67271394D01*
X84936669Y-67272860D01*
X84812860Y-67396669D01*
X84811394Y-67398045D01*
X84711350Y-67547772D01*
X84707110Y-67558007D01*
X84703643Y-67565238D01*
X84699023Y-67573669D01*
X84699019Y-67573677D01*
X84274344Y-68569528D01*
X84233881Y-68609158D01*
X84206275Y-68614500D01*
X83623684Y-68614500D01*
X83579015Y-68599497D01*
X83292243Y-68382368D01*
X83286583Y-68378638D01*
X83275274Y-68371185D01*
X83275267Y-68371181D01*
X83275264Y-68371179D01*
X83272633Y-68369682D01*
X83272608Y-68369669D01*
X83270644Y-68368715D01*
X83241458Y-68343276D01*
X83239220Y-68339926D01*
X83228165Y-68284385D01*
X83228814Y-68281125D01*
X83260276Y-68234047D01*
X83291516Y-68213173D01*
X83294644Y-68211082D01*
X83298928Y-68208593D01*
X83302622Y-68205751D01*
X83313388Y-68198557D01*
X83314551Y-68186751D01*
X83334830Y-68162875D01*
X83484185Y-68048549D01*
X83538908Y-68033955D01*
X83562128Y-68041059D01*
X83564174Y-68042077D01*
X83589408Y-68056646D01*
X83595062Y-68059910D01*
X83595063Y-68059910D01*
X83595065Y-68059911D01*
X83605795Y-68062786D01*
X83632236Y-68069871D01*
X83632237Y-68069871D01*
X83685881Y-68084244D01*
X83689579Y-68085500D01*
X83789437Y-68085500D01*
X83799700Y-68085500D01*
X83808588Y-68080367D01*
X83884938Y-68059910D01*
X83970562Y-68010475D01*
X84040475Y-67940562D01*
X84089910Y-67854938D01*
X84110367Y-67778588D01*
X84115500Y-67769699D01*
X84115500Y-67659578D01*
X84114244Y-67655881D01*
X84089911Y-67565065D01*
X84089909Y-67565060D01*
X84076663Y-67542117D01*
X84040475Y-67479438D01*
X83970562Y-67409525D01*
X83970559Y-67409523D01*
X83970558Y-67409522D01*
X83938793Y-67391183D01*
X83884938Y-67360089D01*
X83843530Y-67348994D01*
X83789437Y-67334500D01*
X83789436Y-67334500D01*
X83690564Y-67334500D01*
X83690563Y-67334500D01*
X83665267Y-67341278D01*
X83595060Y-67360089D01*
X83546484Y-67388135D01*
X83490331Y-67395527D01*
X83471412Y-67387504D01*
X83374949Y-67329627D01*
X83276867Y-67270778D01*
X83276863Y-67270776D01*
X83276858Y-67270773D01*
X83247673Y-67257153D01*
X83247671Y-67257152D01*
X83247670Y-67257152D01*
X83243117Y-67255578D01*
X83231741Y-67252127D01*
X83231739Y-67252127D01*
X83231736Y-67252126D01*
X83225872Y-67252158D01*
X83211044Y-67250738D01*
X83210871Y-67250703D01*
X83204820Y-67249500D01*
X83204818Y-67249500D01*
X82275184Y-67249500D01*
X82275180Y-67249500D01*
X82253229Y-67253866D01*
X82253225Y-67253866D01*
X82231277Y-67258233D01*
X82181496Y-67291494D01*
X82181494Y-67291496D01*
X82148233Y-67341276D01*
X82139500Y-67385181D01*
X82139500Y-67651313D01*
X82135204Y-67676160D01*
X81949371Y-68197478D01*
X81931993Y-68224957D01*
X81909394Y-68247556D01*
X81885391Y-68263595D01*
X81874983Y-68267907D01*
X81818346Y-68267911D01*
X81811726Y-68265169D01*
X81780805Y-68241150D01*
X81707188Y-68142811D01*
X81707187Y-68142810D01*
X81707184Y-68142807D01*
X81602505Y-68064443D01*
X81602500Y-68064440D01*
X81592088Y-68056646D01*
X81592087Y-68056645D01*
X81559735Y-68044579D01*
X81557119Y-68043364D01*
X81554862Y-68040909D01*
X81537867Y-68030411D01*
X81526116Y-68019471D01*
X81524146Y-68017637D01*
X81502229Y-67979057D01*
X81502159Y-67978732D01*
X81500500Y-67963151D01*
X81500500Y-67385179D01*
X81498682Y-67376041D01*
X81491767Y-67341278D01*
X81458504Y-67291496D01*
X81458501Y-67291494D01*
X81444884Y-67282396D01*
X81444883Y-67282395D01*
X81408722Y-67258233D01*
X81364820Y-67249500D01*
X81364819Y-67249500D01*
X80435184Y-67249500D01*
X80435180Y-67249500D01*
X80413229Y-67253866D01*
X80413225Y-67253866D01*
X80391277Y-67258233D01*
X80341496Y-67291494D01*
X80341494Y-67291496D01*
X80308233Y-67341276D01*
X80299500Y-67385181D01*
X80299500Y-67956388D01*
X80286388Y-67998443D01*
X80280388Y-68007130D01*
X80278513Y-68005835D01*
X80271556Y-68021049D01*
X80218479Y-68040812D01*
X80166973Y-68017256D01*
X80165312Y-68015470D01*
X80145500Y-67965075D01*
X80145500Y-67883157D01*
X80145390Y-67882693D01*
X80144500Y-67880742D01*
X80130358Y-67846599D01*
X80109649Y-67796602D01*
X80109647Y-67796599D01*
X79033401Y-66720354D01*
X79033399Y-66720352D01*
X78952949Y-66687029D01*
X78951277Y-66686336D01*
X78951272Y-66686334D01*
X78946845Y-66684500D01*
X78946844Y-66684500D01*
X75676843Y-66684500D01*
X75583156Y-66684500D01*
X75583155Y-66684500D01*
X75579811Y-66685885D01*
X75579804Y-66685888D01*
X75577051Y-66687029D01*
X75496600Y-66720352D01*
X75496599Y-66720354D01*
X75479881Y-66737071D01*
X75479877Y-66737074D01*
X75029606Y-67187346D01*
X75027832Y-67188625D01*
X75021112Y-67195839D01*
X74982472Y-67289128D01*
X74982362Y-67289082D01*
X74975525Y-67306233D01*
X74916756Y-67399516D01*
X74891148Y-67424155D01*
X74836005Y-67455993D01*
X74835993Y-67456000D01*
X74803809Y-67480697D01*
X74803799Y-67480706D01*
X74710706Y-67573799D01*
X74710697Y-67573809D01*
X74686001Y-67605992D01*
X74685999Y-67605994D01*
X74620170Y-67720013D01*
X74620169Y-67720016D01*
X74620161Y-67720035D01*
X74604636Y-67757514D01*
X74604632Y-67757527D01*
X74570562Y-67884672D01*
X74570559Y-67884686D01*
X74570557Y-67884697D01*
X74565261Y-67924935D01*
X74565261Y-68556584D01*
X74570557Y-68596823D01*
X74570559Y-68596834D01*
X74570562Y-68596848D01*
X74604632Y-68723993D01*
X74604636Y-68724006D01*
X74620161Y-68761485D01*
X74620169Y-68761504D01*
X74620170Y-68761507D01*
X74635841Y-68788649D01*
X74685994Y-68875518D01*
X74697937Y-68891081D01*
X74699027Y-68892501D01*
X74699027Y-68892502D01*
X74710706Y-68907722D01*
X74803804Y-69000820D01*
X74816546Y-69010597D01*
X74816554Y-69010602D01*
X74819137Y-69012584D01*
X74836003Y-69025527D01*
X74877781Y-69049647D01*
X74950018Y-69091353D01*
X74987521Y-69106887D01*
X74987520Y-69106887D01*
X75034656Y-69119517D01*
X75114688Y-69140962D01*
X75114689Y-69140962D01*
X75114693Y-69140963D01*
X75115947Y-69141128D01*
X75139423Y-69144218D01*
X75139426Y-69144220D01*
X75139427Y-69144219D01*
X75145382Y-69145003D01*
X75154935Y-69146261D01*
X75154936Y-69146261D01*
X75154942Y-69146261D01*
X75770763Y-69146261D01*
X75781026Y-69146261D01*
X75789916Y-69141128D01*
X75790536Y-69140962D01*
X75837015Y-69128508D01*
X75843048Y-69128705D01*
X75850951Y-69125431D01*
X75851322Y-69125304D01*
X75851554Y-69125180D01*
X75858061Y-69122484D01*
X75859692Y-69121807D01*
X75916329Y-69121802D01*
X75944961Y-69142910D01*
X76040486Y-69258000D01*
X76214561Y-69467729D01*
X76268203Y-69532357D01*
X76285261Y-69579619D01*
X76285261Y-70541321D01*
X76279628Y-70569637D01*
X76270024Y-70592826D01*
X76269220Y-70594767D01*
X76253179Y-70618773D01*
X75529687Y-71342264D01*
X75477361Y-71363938D01*
X75436843Y-71351860D01*
X75411351Y-71335180D01*
X75344257Y-71291278D01*
X75243092Y-71225082D01*
X75243089Y-71225080D01*
X75218755Y-71213785D01*
X75218685Y-71213753D01*
X75213115Y-71211168D01*
X75208722Y-71208233D01*
X75205342Y-71207560D01*
X75202381Y-71206186D01*
X75195978Y-71204277D01*
X75194053Y-71203866D01*
X75171851Y-71199125D01*
X75170627Y-71199077D01*
X75164167Y-71199500D01*
X74135184Y-71199500D01*
X74135180Y-71199500D01*
X74113229Y-71203866D01*
X74113225Y-71203866D01*
X74091277Y-71208233D01*
X74041496Y-71241494D01*
X74041494Y-71241496D01*
X74008232Y-71291278D01*
X74007170Y-71294780D01*
X74006811Y-71298426D01*
X73999500Y-71335180D01*
X73999500Y-72364820D01*
X74008233Y-72408722D01*
X74041496Y-72458504D01*
X74091278Y-72491767D01*
X74135180Y-72500500D01*
X74135181Y-72500500D01*
X74338682Y-72500500D01*
X74366996Y-72506131D01*
X74392128Y-72516541D01*
X74416134Y-72532581D01*
X74572846Y-72689293D01*
X74594520Y-72741619D01*
X74572846Y-72793945D01*
X74539675Y-72813097D01*
X74524556Y-72817148D01*
X74524553Y-72817149D01*
X74450445Y-72859936D01*
X74389936Y-72920445D01*
X74347149Y-72994553D01*
X74347148Y-72994556D01*
X74343097Y-73009675D01*
X74308617Y-73054607D01*
X74252464Y-73061998D01*
X74219293Y-73042846D01*
X73787426Y-72610979D01*
X73787425Y-72610979D01*
X73787424Y-72610979D01*
X73763810Y-72646321D01*
X73688430Y-72828302D01*
X73688429Y-72828307D01*
X73688426Y-72828318D01*
X73650000Y-73021509D01*
X71192500Y-73021509D01*
X71192500Y-72970127D01*
X71170582Y-72859936D01*
X71157435Y-72793842D01*
X71157431Y-72793828D01*
X71155637Y-72789498D01*
X71155635Y-72789493D01*
X71088654Y-72627784D01*
X71088651Y-72627778D01*
X71088649Y-72627773D01*
X71088648Y-72627771D01*
X71088647Y-72627769D01*
X70988785Y-72478315D01*
X70861685Y-72351215D01*
X70857692Y-72348547D01*
X70845343Y-72340296D01*
X70809947Y-72316645D01*
X70769051Y-72289319D01*
X70753337Y-72278819D01*
X70743691Y-72264382D01*
X70546174Y-72182569D01*
X70546169Y-72182567D01*
X70546156Y-72182563D01*
X70546157Y-72182563D01*
X70428103Y-72159082D01*
X70369873Y-72147500D01*
X70190127Y-72147500D01*
X70140149Y-72157439D01*
X70140150Y-72157440D01*
X70013842Y-72182563D01*
X70013824Y-72182569D01*
X69847773Y-72251349D01*
X69698045Y-72351394D01*
X69696669Y-72352860D01*
X69572860Y-72476669D01*
X69571394Y-72478045D01*
X69471351Y-72627771D01*
X69471350Y-72627771D01*
X69402569Y-72793824D01*
X69402567Y-72793830D01*
X69402564Y-72793840D01*
X69377382Y-72920445D01*
X69367500Y-72970128D01*
X69100500Y-72970128D01*
X69100500Y-71286065D01*
X69106131Y-71257751D01*
X69109181Y-71250387D01*
X69149228Y-71210340D01*
X69205864Y-71210338D01*
X69205867Y-71210339D01*
X69225702Y-71218555D01*
X69225705Y-71218556D01*
X69227729Y-71218716D01*
X69757001Y-70689442D01*
X69809326Y-70667769D01*
X69861652Y-70689443D01*
X69873411Y-70704767D01*
X69924311Y-70792930D01*
X70007070Y-70875689D01*
X70033590Y-70891000D01*
X70095227Y-70926586D01*
X70129705Y-70971519D01*
X70122313Y-71027672D01*
X70110553Y-71042998D01*
X69581282Y-71572268D01*
X69581283Y-71572269D01*
X69618560Y-71599354D01*
X69618567Y-71599359D01*
X69795558Y-71689540D01*
X69795562Y-71689542D01*
X69795564Y-71689542D01*
X69795565Y-71689543D01*
X69984453Y-71750917D01*
X69984461Y-71750919D01*
X69984470Y-71750922D01*
X69984483Y-71750925D01*
X70149651Y-71777086D01*
X70180675Y-71782000D01*
X70379324Y-71782000D01*
X70379325Y-71782000D01*
X70402067Y-71778397D01*
X70575516Y-71750925D01*
X70575529Y-71750922D01*
X70575542Y-71750917D01*
X70575545Y-71750917D01*
X70694983Y-71712109D01*
X70764437Y-71689542D01*
X70764441Y-71689540D01*
X70941422Y-71599364D01*
X70941440Y-71599353D01*
X70941477Y-71599326D01*
X70959262Y-71586404D01*
X70974975Y-71581297D01*
X70978715Y-71572269D01*
X70978716Y-71572269D01*
X70449445Y-71042998D01*
X70427771Y-70990672D01*
X70449445Y-70938346D01*
X70464769Y-70926587D01*
X70552930Y-70875689D01*
X70635689Y-70792930D01*
X70686586Y-70704771D01*
X70731519Y-70670293D01*
X70787671Y-70677685D01*
X70802998Y-70689445D01*
X71332268Y-71218715D01*
X71332269Y-71218716D01*
X71332269Y-71218715D01*
X71332269Y-71218714D01*
X71341297Y-71214975D01*
X71346404Y-71199262D01*
X71359351Y-71181443D01*
X71359360Y-71181428D01*
X71359364Y-71181422D01*
X71449540Y-71004441D01*
X71449542Y-71004437D01*
X71502865Y-70840326D01*
X71510917Y-70815545D01*
X71510917Y-70815541D01*
X71510922Y-70815529D01*
X71510925Y-70815516D01*
X71542000Y-70619323D01*
X71542000Y-70420676D01*
X71510925Y-70224483D01*
X71510922Y-70224470D01*
X71510919Y-70224461D01*
X71510917Y-70224453D01*
X71449543Y-70035565D01*
X71449542Y-70035564D01*
X71449542Y-70035562D01*
X71449540Y-70035558D01*
X71359359Y-69858567D01*
X71359354Y-69858560D01*
X71332269Y-69821283D01*
X71332268Y-69821282D01*
X70802997Y-70350553D01*
X70750671Y-70372227D01*
X70698345Y-70350553D01*
X70686585Y-70335226D01*
X70654959Y-70280448D01*
X70635689Y-70247070D01*
X70552930Y-70164311D01*
X70464768Y-70113411D01*
X70430291Y-70068479D01*
X70437683Y-70012326D01*
X70449439Y-69997004D01*
X70978716Y-69467729D01*
X70978715Y-69467728D01*
X70941440Y-69440646D01*
X70941437Y-69440644D01*
X70941434Y-69440642D01*
X70941428Y-69440639D01*
X70941410Y-69440628D01*
X70941065Y-69440454D01*
X70764504Y-69350491D01*
X70764433Y-69350455D01*
X70575545Y-69289081D01*
X70575521Y-69289075D01*
X70575518Y-69289074D01*
X70575516Y-69289074D01*
X70471378Y-69272580D01*
X70379326Y-69258000D01*
X70379324Y-69258000D01*
X70180676Y-69258000D01*
X70180674Y-69258000D01*
X69984477Y-69289075D01*
X69984453Y-69289081D01*
X69795570Y-69350453D01*
X69703174Y-69397530D01*
X69618568Y-69440640D01*
X69618566Y-69440641D01*
X69618559Y-69440645D01*
X69581283Y-69467729D01*
X69581283Y-69467730D01*
X70110554Y-69997001D01*
X70132228Y-70049327D01*
X70110554Y-70101653D01*
X70095228Y-70113413D01*
X70007069Y-70164311D01*
X69924311Y-70247069D01*
X69873413Y-70335228D01*
X69828480Y-70369707D01*
X69772327Y-70362314D01*
X69757001Y-70350554D01*
X69494215Y-70087768D01*
X69227730Y-69821283D01*
X69227729Y-69821283D01*
X69227728Y-69821282D01*
X69218243Y-69822028D01*
X69218241Y-69822028D01*
X69215025Y-69824000D01*
X69159085Y-69832861D01*
X69113264Y-69799571D01*
X69111401Y-69796531D01*
X69100500Y-69757871D01*
X69100500Y-67890127D01*
X69367500Y-67890127D01*
X69367500Y-68069873D01*
X69376440Y-68114819D01*
X69402563Y-68246156D01*
X69402567Y-68246169D01*
X69402569Y-68246174D01*
X69471349Y-68412225D01*
X69471350Y-68412226D01*
X69567808Y-68556587D01*
X69571215Y-68561685D01*
X69698315Y-68688785D01*
X69847769Y-68788647D01*
X69847774Y-68788649D01*
X69847773Y-68788649D01*
X69995889Y-68850000D01*
X70013834Y-68857433D01*
X70190127Y-68892500D01*
X70190129Y-68892500D01*
X70369871Y-68892500D01*
X70369873Y-68892500D01*
X70546166Y-68857433D01*
X70712231Y-68788647D01*
X70861685Y-68688785D01*
X70988785Y-68561685D01*
X71088647Y-68412231D01*
X71157433Y-68246166D01*
X71192500Y-68069873D01*
X71192500Y-67890127D01*
X71157433Y-67713834D01*
X71157431Y-67713829D01*
X71141828Y-67676160D01*
X71088654Y-67547784D01*
X71088651Y-67547778D01*
X71088649Y-67547773D01*
X71088648Y-67547771D01*
X71088647Y-67547769D01*
X70988785Y-67398315D01*
X70861685Y-67271215D01*
X70840638Y-67257152D01*
X70753338Y-67198820D01*
X70743691Y-67184382D01*
X70546174Y-67102569D01*
X70546169Y-67102567D01*
X70546156Y-67102563D01*
X70546157Y-67102563D01*
X70428103Y-67079082D01*
X70369873Y-67067500D01*
X70190127Y-67067500D01*
X70140149Y-67077439D01*
X70140150Y-67077440D01*
X70013842Y-67102563D01*
X70013824Y-67102569D01*
X69847773Y-67171349D01*
X69698045Y-67271394D01*
X69696669Y-67272860D01*
X69572860Y-67396669D01*
X69571394Y-67398045D01*
X69471351Y-67547771D01*
X69471350Y-67547771D01*
X69402569Y-67713824D01*
X69402567Y-67713830D01*
X69402564Y-67713840D01*
X69386146Y-67796383D01*
X69386130Y-67796463D01*
X69386103Y-67796602D01*
X69367500Y-67890127D01*
X69100500Y-67890127D01*
X69100500Y-66904589D01*
X69100505Y-66904559D01*
X69100500Y-66858786D01*
X69100500Y-66855419D01*
X69100589Y-66851793D01*
X69100767Y-66848165D01*
X69101032Y-66844564D01*
X69114779Y-66704870D01*
X69115840Y-66697708D01*
X69117257Y-66690580D01*
X69119018Y-66683552D01*
X69158172Y-66554447D01*
X69160611Y-66547630D01*
X69163381Y-66540945D01*
X69166476Y-66534401D01*
X69230065Y-66415421D01*
X69233803Y-66409185D01*
X69237818Y-66403177D01*
X69242133Y-66397359D01*
X69327719Y-66293070D01*
X69332580Y-66287706D01*
X69337708Y-66282577D01*
X69343070Y-66277719D01*
X69447359Y-66192133D01*
X69453177Y-66187818D01*
X69453186Y-66187812D01*
X69459190Y-66183799D01*
X69465413Y-66180069D01*
X69533936Y-66143447D01*
X69584401Y-66116476D01*
X69590956Y-66113376D01*
X69597630Y-66110611D01*
X69604447Y-66108172D01*
X69733563Y-66069014D01*
X69740583Y-66067256D01*
X69747706Y-66065840D01*
X69754868Y-66064779D01*
X69894560Y-66051032D01*
X69898165Y-66050766D01*
X69901798Y-66050588D01*
X69905410Y-66050500D01*
X69939862Y-66050504D01*
X69939862Y-66050503D01*
X69954559Y-66050505D01*
X69954589Y-66050500D01*
X85853057Y-66050500D01*
X85853109Y-66050504D01*
G37*
%TD.AperFunction*%
%TD*%
M02*
