%TF.GenerationSoftware,KiCad,Pcbnew,10.0.0-10.0.0~ubuntu24.04.1*%
%TF.CreationDate,2026-04-12T20:08:04+01:00*%
%TF.ProjectId,XIAO_COM,5849414f-5f43-44f4-9d2e-6b696361645f,v1.0*%
%TF.SameCoordinates,Original*%
%TF.FileFunction,Soldermask,Bot*%
%TF.FilePolarity,Negative*%
%FSLAX46Y46*%
G04 Gerber Fmt 4.6, Leading zero omitted, Abs format (unit mm)*
G04 Created by KiCad (PCBNEW 10.0.0-10.0.0~ubuntu24.04.1) date 2026-04-12 20:08:04*
%MOMM*%
%LPD*%
G01*
G04 APERTURE LIST*
G04 Aperture macros list*
%AMRoundRect*
0 Rectangle with rounded corners*
0 $1 Rounding radius*
0 $2 $3 $4 $5 $6 $7 $8 $9 X,Y pos of 4 corners*
0 Add a 4 corners polygon primitive as box body*
4,1,4,$2,$3,$4,$5,$6,$7,$8,$9,$2,$3,0*
0 Add four circle primitives for the rounded corners*
1,1,$1+$1,$2,$3*
1,1,$1+$1,$4,$5*
1,1,$1+$1,$6,$7*
1,1,$1+$1,$8,$9*
0 Add four rect primitives between the rounded corners*
20,1,$1+$1,$2,$3,$4,$5,0*
20,1,$1+$1,$4,$5,$6,$7,0*
20,1,$1+$1,$6,$7,$8,$9,0*
20,1,$1+$1,$8,$9,$2,$3,0*%
G04 Aperture macros list end*
%ADD10R,1.000000X1.000000*%
%ADD11C,1.000000*%
%ADD12C,1.524000*%
%ADD13RoundRect,0.140000X0.170000X-0.140000X0.170000X0.140000X-0.170000X0.140000X-0.170000X-0.140000X0*%
%ADD14R,0.650000X0.250000*%
%ADD15R,0.250000X0.650000*%
%ADD16RoundRect,0.140000X0.140000X0.170000X-0.140000X0.170000X-0.140000X-0.170000X0.140000X-0.170000X0*%
G04 APERTURE END LIST*
D10*
%TO.C,J2*%
X78150000Y-71850000D03*
D11*
X78150000Y-73120000D03*
%TD*%
D10*
%TO.C,J1*%
X74650000Y-71850000D03*
D11*
X74650000Y-73120000D03*
%TD*%
D10*
%TO.C,J4*%
X72185000Y-76600000D03*
D11*
X73455001Y-76600000D03*
X74725000Y-76600000D03*
X75995000Y-76600000D03*
X77264999Y-76600000D03*
X78535000Y-76600000D03*
X79805000Y-76600000D03*
X81075000Y-76600000D03*
X82345000Y-76600000D03*
X83615001Y-76600000D03*
%TD*%
D12*
%TO.C,U1*%
X85520000Y-67980000D03*
X85520000Y-70520000D03*
X85520000Y-73060000D03*
X85520000Y-75600000D03*
X85520000Y-78140000D03*
X85520000Y-80680000D03*
X85520000Y-83220000D03*
X70280000Y-83220000D03*
X70280000Y-80680000D03*
X70280000Y-78140000D03*
X70280000Y-75600000D03*
X70280000Y-73060000D03*
X70280000Y-70520000D03*
X70280000Y-67980000D03*
%TD*%
D13*
%TO.C,C4*%
X78900001Y-82156777D03*
X78900001Y-81196777D03*
%TD*%
D14*
%TO.C,U2*%
X82650000Y-80656775D03*
X82650000Y-81156776D03*
X82650000Y-81656776D03*
X82650000Y-82156777D03*
D15*
X81900000Y-82406776D03*
X81400000Y-82406776D03*
X80900000Y-82406776D03*
D14*
X80150000Y-82156777D03*
X80150000Y-81656776D03*
X80150000Y-81156776D03*
X80150000Y-80656775D03*
D15*
X80900000Y-80406776D03*
X81400000Y-80406776D03*
X81900000Y-80406776D03*
%TD*%
D16*
%TO.C,C11*%
X82130002Y-83656777D03*
X81170002Y-83656777D03*
%TD*%
M02*
