M48
; DRILL file KiCad 10.0.0-10.0.0~ubuntu24.04.1 date 2026-04-12T20:08:04
; FORMAT={-:-/ absolute / inch / decimal}
; #@! TF.CreationDate,2026-04-12T20:08:04+01:00
; #@! TF.GenerationSoftware,Kicad,Pcbnew,10.0.0-10.0.0~ubuntu24.04.1
; #@! TF.FileFunction,Plated,1,2,PTH
FMAT,2
INCH
; #@! TA.AperFunction,Plated,PTH,ViaDrill
T1C0.0118
; #@! TA.AperFunction,Plated,PTH,ComponentDrill
T2C0.0256
; #@! TA.AperFunction,Plated,PTH,ComponentDrill
T3C0.0350
%
G90
G05
T1
X3.0748Y-3.189
X3.0808Y-3.0769
X3.0945Y-3.1575
X3.1339Y-3.1417
X3.1575Y-3.2795
X3.185Y-2.7598
X3.2008Y-3.2008
X3.2835Y-3.2047
X3.2969Y-2.6657
X3.3071Y-3.1732
T2
X2.8419Y-3.0157
X2.8919Y-3.0157
X2.939Y-2.8287
X2.939Y-2.8787
X2.9419Y-3.0157
X2.9919Y-3.0157
X3.0419Y-3.0157
X3.0768Y-2.8287
X3.0768Y-2.8787
X3.0919Y-3.0157
X3.1419Y-3.0157
X3.1919Y-3.0157
X3.2419Y-3.0157
X3.2919Y-3.0157
T3
X2.7669Y-2.6764
X2.7669Y-2.7764
X2.7669Y-2.8764
X2.7669Y-2.9764
X2.7669Y-3.0764
X2.7669Y-3.1764
X2.7669Y-3.2764
X3.3669Y-2.6764
X3.3669Y-2.7764
X3.3669Y-2.8764
X3.3669Y-2.9764
X3.3669Y-3.0764
X3.3669Y-3.1764
X3.3669Y-3.2764
M30
