%TF.GenerationSoftware,KiCad,Pcbnew,9.0.6-9.0.6~ubuntu24.04.1*%
%TF.CreationDate,2026-01-03T12:43:28+00:00*%
%TF.ProjectId,JACK_CONN,4a41434b-5f43-44f4-9e4e-2e6b69636164,v2.0*%
%TF.SameCoordinates,Original*%
%TF.FileFunction,Copper,L2,Inr*%
%TF.FilePolarity,Positive*%
%FSLAX46Y46*%
G04 Gerber Fmt 4.6, Leading zero omitted, Abs format (unit mm)*
G04 Created by KiCad (PCBNEW 9.0.6-9.0.6~ubuntu24.04.1) date 2026-01-03 12:43:28*
%MOMM*%
%LPD*%
G01*
G04 APERTURE LIST*
G04 Aperture macros list*
%AMRoundRect*
0 Rectangle with rounded corners*
0 $1 Rounding radius*
0 $2 $3 $4 $5 $6 $7 $8 $9 X,Y pos of 4 corners*
0 Add a 4 corners polygon primitive as box body*
4,1,4,$2,$3,$4,$5,$6,$7,$8,$9,$2,$3,0*
0 Add four circle primitives for the rounded corners*
1,1,$1+$1,$2,$3*
1,1,$1+$1,$4,$5*
1,1,$1+$1,$6,$7*
1,1,$1+$1,$8,$9*
0 Add four rect primitives between the rounded corners*
20,1,$1+$1,$2,$3,$4,$5,0*
20,1,$1+$1,$4,$5,$6,$7,0*
20,1,$1+$1,$6,$7,$8,$9,0*
20,1,$1+$1,$8,$9,$2,$3,0*%
G04 Aperture macros list end*
%TA.AperFunction,ComponentPad*%
%ADD10RoundRect,0.800000X0.050000X0.450000X-0.050000X0.450000X-0.050000X-0.450000X0.050000X-0.450000X0*%
%TD*%
%TA.AperFunction,ComponentPad*%
%ADD11RoundRect,0.800000X-0.450000X0.050000X-0.450000X-0.050000X0.450000X-0.050000X0.450000X0.050000X0*%
%TD*%
%TA.AperFunction,ComponentPad*%
%ADD12RoundRect,0.800000X-0.700000X0.050000X-0.700000X-0.050000X0.700000X-0.050000X0.700000X0.050000X0*%
%TD*%
%TA.AperFunction,ComponentPad*%
%ADD13RoundRect,0.800000X-0.050000X-0.450000X0.050000X-0.450000X0.050000X0.450000X-0.050000X0.450000X0*%
%TD*%
%TA.AperFunction,ComponentPad*%
%ADD14RoundRect,0.800000X0.450000X-0.050000X0.450000X0.050000X-0.450000X0.050000X-0.450000X-0.050000X0*%
%TD*%
%TA.AperFunction,ComponentPad*%
%ADD15RoundRect,0.800000X0.700000X-0.050000X0.700000X0.050000X-0.700000X0.050000X-0.700000X-0.050000X0*%
%TD*%
%TA.AperFunction,ComponentPad*%
%ADD16RoundRect,0.800000X-0.050000X-0.700000X0.050000X-0.700000X0.050000X0.700000X-0.050000X0.700000X0*%
%TD*%
%TA.AperFunction,ComponentPad*%
%ADD17R,1.700000X1.700000*%
%TD*%
%TA.AperFunction,ComponentPad*%
%ADD18C,1.800000*%
%TD*%
G04 APERTURE END LIST*
D10*
%TO.N,/in8-*%
%TO.C,J8*%
X50250001Y-50644999D03*
D11*
%TO.N,/in8+*%
X52000001Y-48344999D03*
D10*
%TO.N,/in8-*%
X53750001Y-50644999D03*
D12*
%TO.N,unconnected-(J8-S-Pad6)*%
X52000001Y-54844999D03*
%TD*%
D13*
%TO.N,/in1-*%
%TO.C,J1*%
X29750001Y-29355000D03*
D14*
%TO.N,/in1+*%
X28000001Y-31655000D03*
D13*
%TO.N,/in1-*%
X26250001Y-29355000D03*
D15*
%TO.N,unconnected-(J1-S-Pad6)*%
X28000001Y-25155000D03*
%TD*%
D11*
%TO.N,/REF*%
%TO.C,J9*%
X54145000Y-41750000D03*
D13*
%TO.N,/GND*%
X51845000Y-40000000D03*
D11*
%TO.N,/REF*%
X54145000Y-38250000D03*
D16*
%TO.N,unconnected-(J9-S-Pad6)*%
X58345000Y-40000000D03*
%TD*%
D13*
%TO.N,/in7-*%
%TO.C,J7*%
X53750001Y-29855000D03*
D14*
%TO.N,/in7+*%
X52000001Y-32155000D03*
D13*
%TO.N,/in7-*%
X50250001Y-29855000D03*
D15*
%TO.N,unconnected-(J7-S-Pad6)*%
X52000001Y-25655000D03*
%TD*%
D13*
%TO.N,/in6-*%
%TO.C,J6*%
X45750001Y-29355000D03*
D14*
%TO.N,/in6+*%
X44000001Y-31655000D03*
D13*
%TO.N,/in6-*%
X42250001Y-29355000D03*
D15*
%TO.N,unconnected-(J6-S-Pad6)*%
X44000001Y-25155000D03*
%TD*%
D10*
%TO.N,/in2-*%
%TO.C,J2*%
X25750001Y-50645000D03*
D11*
%TO.N,/in2+*%
X27500001Y-48345000D03*
D10*
%TO.N,/in2-*%
X29250001Y-50645000D03*
D12*
%TO.N,unconnected-(J2-S-Pad6)*%
X27500001Y-54845000D03*
%TD*%
D10*
%TO.N,/in5-*%
%TO.C,J5*%
X42250001Y-50644999D03*
D11*
%TO.N,/in5+*%
X44000001Y-48344999D03*
D10*
%TO.N,/in5-*%
X45750001Y-50644999D03*
D12*
%TO.N,unconnected-(J5-S-Pad6)*%
X44000001Y-54844999D03*
%TD*%
D13*
%TO.N,/in3-*%
%TO.C,J3*%
X37750001Y-29355000D03*
D14*
%TO.N,/in3+*%
X36000001Y-31655000D03*
D13*
%TO.N,/in3-*%
X34250001Y-29355000D03*
D15*
%TO.N,unconnected-(J3-S-Pad6)*%
X36000001Y-25155000D03*
%TD*%
D17*
%TO.N,/GND*%
%TO.C,J10*%
X52500001Y-45000000D03*
%TD*%
%TO.N,/REF*%
%TO.C,J11*%
X52500001Y-35000000D03*
%TD*%
D10*
%TO.N,/in4+*%
%TO.C,J4*%
X34250001Y-50644999D03*
D11*
%TO.N,/in4-*%
X36000001Y-48344999D03*
D10*
%TO.N,/in4+*%
X37750001Y-50644999D03*
D12*
%TO.N,unconnected-(J4-S-Pad6)*%
X36000001Y-54844999D03*
%TD*%
D18*
%TO.N,/in6-*%
%TO.C,J25*%
X41905001Y-34500000D03*
%TD*%
%TO.N,/in2-*%
%TO.C,J21*%
X32375001Y-35000000D03*
%TD*%
%TO.N,/in3+*%
%TO.C,J14*%
X38095001Y-39000000D03*
%TD*%
%TO.N,/in1-*%
%TO.C,J20*%
X32375001Y-38250000D03*
%TD*%
%TO.N,/in7+*%
%TO.C,J18*%
X47625001Y-45000000D03*
%TD*%
%TO.N,/in4-*%
%TO.C,J23*%
X37375001Y-41750000D03*
%TD*%
%TO.N,/in5+*%
%TO.C,J16*%
X42625001Y-45000000D03*
%TD*%
%TO.N,/in1+*%
%TO.C,J12*%
X32375001Y-41750000D03*
%TD*%
%TO.N,/in8-*%
%TO.C,J27*%
X47625001Y-38250000D03*
%TD*%
%TO.N,/in2+*%
%TO.C,J13*%
X32375001Y-45000000D03*
%TD*%
%TO.N,/in5-*%
%TO.C,J24*%
X42625001Y-41750000D03*
%TD*%
%TO.N,/in7-*%
%TO.C,J26*%
X47625001Y-35000000D03*
%TD*%
%TO.N,/in4+*%
%TO.C,J15*%
X37375001Y-45000000D03*
%TD*%
%TO.N,/in6+*%
%TO.C,J17*%
X41905001Y-39000000D03*
%TD*%
%TO.N,/in3-*%
%TO.C,J22*%
X38095001Y-34500000D03*
%TD*%
%TO.N,/in8+*%
%TO.C,J19*%
X47625001Y-41750000D03*
%TD*%
%TA.AperFunction,Conductor*%
%TO.N,/GND*%
G36*
X58994614Y-23510501D02*
G01*
X59005396Y-23510973D01*
X59060255Y-23515772D01*
X59161016Y-23524588D01*
X59182301Y-23528340D01*
X59327959Y-23567370D01*
X59348257Y-23574758D01*
X59463428Y-23628463D01*
X59484915Y-23638483D01*
X59503633Y-23649290D01*
X59627150Y-23735777D01*
X59643708Y-23749671D01*
X59750328Y-23856291D01*
X59764222Y-23872849D01*
X59850709Y-23996367D01*
X59861516Y-24015085D01*
X59925239Y-24151738D01*
X59932632Y-24172049D01*
X59971658Y-24317696D01*
X59975411Y-24338982D01*
X59989028Y-24494613D01*
X59989500Y-24505421D01*
X59989500Y-55494581D01*
X59989028Y-55505387D01*
X59975414Y-55661010D01*
X59971661Y-55682297D01*
X59932636Y-55827945D01*
X59925244Y-55848254D01*
X59887739Y-55928688D01*
X59861522Y-55984911D01*
X59850714Y-56003630D01*
X59764229Y-56127145D01*
X59750336Y-56143703D01*
X59643711Y-56250329D01*
X59627153Y-56264222D01*
X59503643Y-56350706D01*
X59484924Y-56361514D01*
X59348267Y-56425239D01*
X59327956Y-56432632D01*
X59182306Y-56471659D01*
X59161021Y-56475412D01*
X59005491Y-56489021D01*
X58994682Y-56489493D01*
X20505411Y-56489497D01*
X20494604Y-56489025D01*
X20338984Y-56475411D01*
X20317698Y-56471658D01*
X20172049Y-56432632D01*
X20151738Y-56425239D01*
X20015085Y-56361517D01*
X19996366Y-56350710D01*
X19872849Y-56264223D01*
X19856291Y-56250329D01*
X19749675Y-56143713D01*
X19735781Y-56127155D01*
X19649291Y-56003634D01*
X19638484Y-55984916D01*
X19574761Y-55848263D01*
X19567368Y-55827952D01*
X19564199Y-55816127D01*
X19528340Y-55682302D01*
X19524588Y-55661016D01*
X19524587Y-55661010D01*
X19510975Y-55505419D01*
X19510503Y-55494622D01*
X19510502Y-55482157D01*
X19510502Y-54730078D01*
X25872501Y-54730078D01*
X25872501Y-54959921D01*
X25878873Y-55040890D01*
X25878874Y-55040892D01*
X25929335Y-55229217D01*
X26017849Y-55402935D01*
X26140547Y-55554454D01*
X26292066Y-55677152D01*
X26465784Y-55765666D01*
X26654109Y-55816127D01*
X26735085Y-55822500D01*
X26735093Y-55822500D01*
X28264909Y-55822500D01*
X28264917Y-55822500D01*
X28345893Y-55816127D01*
X28534218Y-55765666D01*
X28707936Y-55677152D01*
X28859455Y-55554454D01*
X28982153Y-55402935D01*
X29070667Y-55229217D01*
X29121128Y-55040892D01*
X29127501Y-54959916D01*
X29127501Y-54730084D01*
X29127500Y-54730077D01*
X34372501Y-54730077D01*
X34372501Y-54959920D01*
X34378873Y-55040889D01*
X34378874Y-55040891D01*
X34429335Y-55229216D01*
X34517849Y-55402934D01*
X34640547Y-55554453D01*
X34792066Y-55677151D01*
X34965784Y-55765665D01*
X35154109Y-55816126D01*
X35235085Y-55822499D01*
X35235093Y-55822499D01*
X36764909Y-55822499D01*
X36764917Y-55822499D01*
X36845893Y-55816126D01*
X37034218Y-55765665D01*
X37207936Y-55677151D01*
X37359455Y-55554453D01*
X37482153Y-55402934D01*
X37570667Y-55229216D01*
X37621128Y-55040891D01*
X37627501Y-54959915D01*
X37627501Y-54730083D01*
X37627501Y-54730077D01*
X42372501Y-54730077D01*
X42372501Y-54959920D01*
X42378873Y-55040889D01*
X42378874Y-55040891D01*
X42429335Y-55229216D01*
X42517849Y-55402934D01*
X42640547Y-55554453D01*
X42792066Y-55677151D01*
X42965784Y-55765665D01*
X43154109Y-55816126D01*
X43235085Y-55822499D01*
X43235093Y-55822499D01*
X44764909Y-55822499D01*
X44764917Y-55822499D01*
X44845893Y-55816126D01*
X45034218Y-55765665D01*
X45207936Y-55677151D01*
X45359455Y-55554453D01*
X45482153Y-55402934D01*
X45570667Y-55229216D01*
X45621128Y-55040891D01*
X45627501Y-54959915D01*
X45627501Y-54730083D01*
X45627501Y-54730077D01*
X50372501Y-54730077D01*
X50372501Y-54959920D01*
X50378873Y-55040889D01*
X50378874Y-55040891D01*
X50429335Y-55229216D01*
X50517849Y-55402934D01*
X50640547Y-55554453D01*
X50792066Y-55677151D01*
X50965784Y-55765665D01*
X51154109Y-55816126D01*
X51235085Y-55822499D01*
X51235093Y-55822499D01*
X52764909Y-55822499D01*
X52764917Y-55822499D01*
X52845893Y-55816126D01*
X53034218Y-55765665D01*
X53207936Y-55677151D01*
X53359455Y-55554453D01*
X53482153Y-55402934D01*
X53570667Y-55229216D01*
X53621128Y-55040891D01*
X53627501Y-54959915D01*
X53627501Y-54730083D01*
X53621128Y-54649107D01*
X53570667Y-54460782D01*
X53482153Y-54287064D01*
X53359455Y-54135545D01*
X53207936Y-54012847D01*
X53034218Y-53924333D01*
X53034215Y-53924332D01*
X52845891Y-53873871D01*
X52764922Y-53867499D01*
X52764917Y-53867499D01*
X52577015Y-53867499D01*
X52509976Y-53847814D01*
X52464221Y-53795010D01*
X52454277Y-53725852D01*
X52483302Y-53662296D01*
X52508124Y-53640397D01*
X52548538Y-53613393D01*
X52668392Y-53493539D01*
X52668394Y-53493537D01*
X52668395Y-53493536D01*
X52762567Y-53352599D01*
X52827433Y-53195998D01*
X52860501Y-53029751D01*
X52860501Y-52860247D01*
X52827433Y-52694000D01*
X52767481Y-52549262D01*
X52762569Y-52537403D01*
X52762568Y-52537401D01*
X52668395Y-52396462D01*
X52668392Y-52396458D01*
X52548541Y-52276607D01*
X52548537Y-52276604D01*
X52407598Y-52182431D01*
X52407596Y-52182430D01*
X52251004Y-52117568D01*
X52250992Y-52117565D01*
X52084757Y-52084499D01*
X52084753Y-52084499D01*
X51915249Y-52084499D01*
X51915244Y-52084499D01*
X51749009Y-52117565D01*
X51748997Y-52117568D01*
X51592405Y-52182430D01*
X51592403Y-52182431D01*
X51451464Y-52276604D01*
X51451460Y-52276607D01*
X51331609Y-52396458D01*
X51331606Y-52396462D01*
X51237433Y-52537401D01*
X51237432Y-52537403D01*
X51172570Y-52693995D01*
X51172567Y-52694007D01*
X51139501Y-52860242D01*
X51139501Y-53029755D01*
X51172567Y-53195990D01*
X51172570Y-53196002D01*
X51237432Y-53352594D01*
X51237433Y-53352596D01*
X51331606Y-53493535D01*
X51331609Y-53493539D01*
X51451463Y-53613393D01*
X51491878Y-53640397D01*
X51536683Y-53694009D01*
X51545390Y-53763334D01*
X51515236Y-53826361D01*
X51455793Y-53863081D01*
X51422987Y-53867499D01*
X51235079Y-53867499D01*
X51154110Y-53873871D01*
X50965786Y-53924332D01*
X50965784Y-53924333D01*
X50792066Y-54012847D01*
X50792064Y-54012848D01*
X50792061Y-54012850D01*
X50640547Y-54135545D01*
X50517852Y-54287059D01*
X50517850Y-54287062D01*
X50517849Y-54287064D01*
X50432913Y-54453758D01*
X50429336Y-54460780D01*
X50429334Y-54460784D01*
X50378873Y-54649108D01*
X50372501Y-54730077D01*
X45627501Y-54730077D01*
X45621128Y-54649107D01*
X45570667Y-54460782D01*
X45482153Y-54287064D01*
X45359455Y-54135545D01*
X45207936Y-54012847D01*
X45034218Y-53924333D01*
X45034215Y-53924332D01*
X44845891Y-53873871D01*
X44764922Y-53867499D01*
X44764917Y-53867499D01*
X44577015Y-53867499D01*
X44509976Y-53847814D01*
X44464221Y-53795010D01*
X44454277Y-53725852D01*
X44483302Y-53662296D01*
X44508124Y-53640397D01*
X44548538Y-53613393D01*
X44668392Y-53493539D01*
X44668394Y-53493537D01*
X44668395Y-53493536D01*
X44762567Y-53352599D01*
X44827433Y-53195998D01*
X44860501Y-53029751D01*
X44860501Y-52860247D01*
X44827433Y-52694000D01*
X44767481Y-52549262D01*
X44762569Y-52537403D01*
X44762568Y-52537401D01*
X44668395Y-52396462D01*
X44668392Y-52396458D01*
X44548541Y-52276607D01*
X44548537Y-52276604D01*
X44407598Y-52182431D01*
X44407596Y-52182430D01*
X44251004Y-52117568D01*
X44250992Y-52117565D01*
X44084757Y-52084499D01*
X44084753Y-52084499D01*
X43915249Y-52084499D01*
X43915244Y-52084499D01*
X43749009Y-52117565D01*
X43748997Y-52117568D01*
X43592405Y-52182430D01*
X43592403Y-52182431D01*
X43451464Y-52276604D01*
X43451460Y-52276607D01*
X43331609Y-52396458D01*
X43331606Y-52396462D01*
X43237433Y-52537401D01*
X43237432Y-52537403D01*
X43172570Y-52693995D01*
X43172567Y-52694007D01*
X43139501Y-52860242D01*
X43139501Y-53029755D01*
X43172567Y-53195990D01*
X43172570Y-53196002D01*
X43237432Y-53352594D01*
X43237433Y-53352596D01*
X43331606Y-53493535D01*
X43331609Y-53493539D01*
X43451463Y-53613393D01*
X43491878Y-53640397D01*
X43536683Y-53694009D01*
X43545390Y-53763334D01*
X43515236Y-53826361D01*
X43455793Y-53863081D01*
X43422987Y-53867499D01*
X43235079Y-53867499D01*
X43154110Y-53873871D01*
X42965786Y-53924332D01*
X42965784Y-53924333D01*
X42792066Y-54012847D01*
X42792064Y-54012848D01*
X42792061Y-54012850D01*
X42640547Y-54135545D01*
X42517852Y-54287059D01*
X42517850Y-54287062D01*
X42517849Y-54287064D01*
X42432913Y-54453758D01*
X42429336Y-54460780D01*
X42429334Y-54460784D01*
X42378873Y-54649108D01*
X42372501Y-54730077D01*
X37627501Y-54730077D01*
X37621128Y-54649107D01*
X37570667Y-54460782D01*
X37482153Y-54287064D01*
X37359455Y-54135545D01*
X37207936Y-54012847D01*
X37034218Y-53924333D01*
X37034215Y-53924332D01*
X36845891Y-53873871D01*
X36764922Y-53867499D01*
X36764917Y-53867499D01*
X36577015Y-53867499D01*
X36509976Y-53847814D01*
X36464221Y-53795010D01*
X36454277Y-53725852D01*
X36483302Y-53662296D01*
X36508124Y-53640397D01*
X36548538Y-53613393D01*
X36668392Y-53493539D01*
X36668394Y-53493537D01*
X36668395Y-53493536D01*
X36762567Y-53352599D01*
X36827433Y-53195998D01*
X36860501Y-53029751D01*
X36860501Y-52860247D01*
X36827433Y-52694000D01*
X36767481Y-52549262D01*
X36762569Y-52537403D01*
X36762568Y-52537401D01*
X36668395Y-52396462D01*
X36668392Y-52396458D01*
X36548541Y-52276607D01*
X36548537Y-52276604D01*
X36407598Y-52182431D01*
X36407596Y-52182430D01*
X36251004Y-52117568D01*
X36250992Y-52117565D01*
X36084757Y-52084499D01*
X36084753Y-52084499D01*
X35915249Y-52084499D01*
X35915244Y-52084499D01*
X35749009Y-52117565D01*
X35748997Y-52117568D01*
X35592405Y-52182430D01*
X35592403Y-52182431D01*
X35451464Y-52276604D01*
X35451460Y-52276607D01*
X35331609Y-52396458D01*
X35331606Y-52396462D01*
X35237433Y-52537401D01*
X35237432Y-52537403D01*
X35172570Y-52693995D01*
X35172567Y-52694007D01*
X35139501Y-52860242D01*
X35139501Y-53029755D01*
X35172567Y-53195990D01*
X35172570Y-53196002D01*
X35237432Y-53352594D01*
X35237433Y-53352596D01*
X35331606Y-53493535D01*
X35331609Y-53493539D01*
X35451463Y-53613393D01*
X35491878Y-53640397D01*
X35536683Y-53694009D01*
X35545390Y-53763334D01*
X35515236Y-53826361D01*
X35455793Y-53863081D01*
X35422987Y-53867499D01*
X35235079Y-53867499D01*
X35154110Y-53873871D01*
X34965786Y-53924332D01*
X34965784Y-53924333D01*
X34792066Y-54012847D01*
X34792064Y-54012848D01*
X34792061Y-54012850D01*
X34640547Y-54135545D01*
X34517852Y-54287059D01*
X34517850Y-54287062D01*
X34517849Y-54287064D01*
X34432913Y-54453758D01*
X34429336Y-54460780D01*
X34429334Y-54460784D01*
X34378873Y-54649108D01*
X34372501Y-54730077D01*
X29127500Y-54730077D01*
X29121128Y-54649108D01*
X29070667Y-54460783D01*
X28982153Y-54287065D01*
X28859455Y-54135546D01*
X28707936Y-54012848D01*
X28534218Y-53924334D01*
X28534215Y-53924333D01*
X28345891Y-53873872D01*
X28264922Y-53867500D01*
X28264917Y-53867500D01*
X28077015Y-53867500D01*
X28009976Y-53847815D01*
X27964221Y-53795011D01*
X27954277Y-53725853D01*
X27983302Y-53662297D01*
X28008124Y-53640398D01*
X28008126Y-53640397D01*
X28048538Y-53613394D01*
X28168395Y-53493537D01*
X28262567Y-53352600D01*
X28327433Y-53195999D01*
X28360501Y-53029752D01*
X28360501Y-52860248D01*
X28327433Y-52694001D01*
X28327431Y-52693995D01*
X28262569Y-52537404D01*
X28262568Y-52537402D01*
X28168395Y-52396463D01*
X28168392Y-52396459D01*
X28048541Y-52276608D01*
X28048537Y-52276605D01*
X27907598Y-52182432D01*
X27907596Y-52182431D01*
X27751004Y-52117569D01*
X27750992Y-52117566D01*
X27584757Y-52084500D01*
X27584753Y-52084500D01*
X27415249Y-52084500D01*
X27415244Y-52084500D01*
X27249009Y-52117566D01*
X27248997Y-52117569D01*
X27092405Y-52182431D01*
X27092403Y-52182432D01*
X26951464Y-52276605D01*
X26951460Y-52276608D01*
X26831609Y-52396459D01*
X26831606Y-52396463D01*
X26737433Y-52537402D01*
X26737432Y-52537404D01*
X26672570Y-52693996D01*
X26672567Y-52694008D01*
X26639501Y-52860243D01*
X26639501Y-53029756D01*
X26672567Y-53195991D01*
X26672570Y-53196003D01*
X26737432Y-53352595D01*
X26737433Y-53352597D01*
X26831606Y-53493536D01*
X26831609Y-53493540D01*
X26951463Y-53613394D01*
X26990050Y-53639176D01*
X26991876Y-53640397D01*
X26991878Y-53640398D01*
X27036683Y-53694010D01*
X27045390Y-53763335D01*
X27015236Y-53826362D01*
X26955793Y-53863082D01*
X26922987Y-53867500D01*
X26735079Y-53867500D01*
X26654110Y-53873872D01*
X26465786Y-53924333D01*
X26465784Y-53924334D01*
X26292066Y-54012848D01*
X26292064Y-54012849D01*
X26292061Y-54012851D01*
X26140547Y-54135546D01*
X26017852Y-54287060D01*
X25929336Y-54460781D01*
X25929334Y-54460785D01*
X25878873Y-54649109D01*
X25872501Y-54730078D01*
X19510502Y-54730078D01*
X19510502Y-50130078D01*
X24772501Y-50130078D01*
X24772501Y-51159921D01*
X24778873Y-51240890D01*
X24778874Y-51240892D01*
X24829335Y-51429217D01*
X24917849Y-51602935D01*
X25040547Y-51754454D01*
X25192066Y-51877152D01*
X25365784Y-51965666D01*
X25554109Y-52016127D01*
X25635085Y-52022500D01*
X25635093Y-52022500D01*
X25864909Y-52022500D01*
X25864917Y-52022500D01*
X25945893Y-52016127D01*
X26134218Y-51965666D01*
X26307936Y-51877152D01*
X26459455Y-51754454D01*
X26582153Y-51602935D01*
X26670667Y-51429217D01*
X26721128Y-51240892D01*
X26727501Y-51159916D01*
X26727501Y-50130084D01*
X26727501Y-50130078D01*
X28272501Y-50130078D01*
X28272501Y-51159921D01*
X28278873Y-51240890D01*
X28278874Y-51240892D01*
X28329335Y-51429217D01*
X28417849Y-51602935D01*
X28540547Y-51754454D01*
X28692066Y-51877152D01*
X28865784Y-51965666D01*
X29054109Y-52016127D01*
X29135085Y-52022500D01*
X29135093Y-52022500D01*
X29364909Y-52022500D01*
X29364917Y-52022500D01*
X29445893Y-52016127D01*
X29634218Y-51965666D01*
X29807936Y-51877152D01*
X29959455Y-51754454D01*
X30082153Y-51602935D01*
X30170667Y-51429217D01*
X30221128Y-51240892D01*
X30227501Y-51159916D01*
X30227501Y-50130084D01*
X30227500Y-50130077D01*
X33272501Y-50130077D01*
X33272501Y-51159920D01*
X33278873Y-51240889D01*
X33278874Y-51240891D01*
X33329335Y-51429216D01*
X33417849Y-51602934D01*
X33540547Y-51754453D01*
X33692066Y-51877151D01*
X33865784Y-51965665D01*
X34054109Y-52016126D01*
X34135085Y-52022499D01*
X34135093Y-52022499D01*
X34364909Y-52022499D01*
X34364917Y-52022499D01*
X34445893Y-52016126D01*
X34634218Y-51965665D01*
X34807936Y-51877151D01*
X34959455Y-51754453D01*
X35082153Y-51602934D01*
X35170667Y-51429216D01*
X35221128Y-51240891D01*
X35227501Y-51159915D01*
X35227501Y-50130083D01*
X35227501Y-50130077D01*
X36772501Y-50130077D01*
X36772501Y-51159920D01*
X36778873Y-51240889D01*
X36778874Y-51240891D01*
X36829335Y-51429216D01*
X36917849Y-51602934D01*
X37040547Y-51754453D01*
X37192066Y-51877151D01*
X37365784Y-51965665D01*
X37554109Y-52016126D01*
X37635085Y-52022499D01*
X37635093Y-52022499D01*
X37864909Y-52022499D01*
X37864917Y-52022499D01*
X37945893Y-52016126D01*
X38134218Y-51965665D01*
X38307936Y-51877151D01*
X38459455Y-51754453D01*
X38582153Y-51602934D01*
X38670667Y-51429216D01*
X38721128Y-51240891D01*
X38727501Y-51159915D01*
X38727501Y-50130083D01*
X38727501Y-50130077D01*
X41272501Y-50130077D01*
X41272501Y-51159920D01*
X41278873Y-51240889D01*
X41278874Y-51240891D01*
X41329335Y-51429216D01*
X41417849Y-51602934D01*
X41540547Y-51754453D01*
X41692066Y-51877151D01*
X41865784Y-51965665D01*
X42054109Y-52016126D01*
X42135085Y-52022499D01*
X42135093Y-52022499D01*
X42364909Y-52022499D01*
X42364917Y-52022499D01*
X42445893Y-52016126D01*
X42634218Y-51965665D01*
X42807936Y-51877151D01*
X42959455Y-51754453D01*
X43082153Y-51602934D01*
X43170667Y-51429216D01*
X43221128Y-51240891D01*
X43227501Y-51159915D01*
X43227501Y-50130083D01*
X43227501Y-50130077D01*
X44772501Y-50130077D01*
X44772501Y-51159920D01*
X44778873Y-51240889D01*
X44778874Y-51240891D01*
X44829335Y-51429216D01*
X44917849Y-51602934D01*
X45040547Y-51754453D01*
X45192066Y-51877151D01*
X45365784Y-51965665D01*
X45554109Y-52016126D01*
X45635085Y-52022499D01*
X45635093Y-52022499D01*
X45864909Y-52022499D01*
X45864917Y-52022499D01*
X45945893Y-52016126D01*
X46134218Y-51965665D01*
X46307936Y-51877151D01*
X46459455Y-51754453D01*
X46582153Y-51602934D01*
X46670667Y-51429216D01*
X46721128Y-51240891D01*
X46727501Y-51159915D01*
X46727501Y-50130083D01*
X46727501Y-50130077D01*
X49272501Y-50130077D01*
X49272501Y-51159920D01*
X49278873Y-51240889D01*
X49278874Y-51240891D01*
X49329335Y-51429216D01*
X49417849Y-51602934D01*
X49540547Y-51754453D01*
X49692066Y-51877151D01*
X49865784Y-51965665D01*
X50054109Y-52016126D01*
X50135085Y-52022499D01*
X50135093Y-52022499D01*
X50364909Y-52022499D01*
X50364917Y-52022499D01*
X50445893Y-52016126D01*
X50634218Y-51965665D01*
X50807936Y-51877151D01*
X50959455Y-51754453D01*
X51082153Y-51602934D01*
X51170667Y-51429216D01*
X51221128Y-51240891D01*
X51227501Y-51159915D01*
X51227501Y-50130083D01*
X51227501Y-50130077D01*
X52772501Y-50130077D01*
X52772501Y-51159920D01*
X52778873Y-51240889D01*
X52778874Y-51240891D01*
X52829335Y-51429216D01*
X52917849Y-51602934D01*
X53040547Y-51754453D01*
X53192066Y-51877151D01*
X53365784Y-51965665D01*
X53554109Y-52016126D01*
X53635085Y-52022499D01*
X53635093Y-52022499D01*
X53864909Y-52022499D01*
X53864917Y-52022499D01*
X53945893Y-52016126D01*
X54134218Y-51965665D01*
X54307936Y-51877151D01*
X54459455Y-51754453D01*
X54582153Y-51602934D01*
X54670667Y-51429216D01*
X54721128Y-51240891D01*
X54727501Y-51159915D01*
X54727501Y-50130083D01*
X54721128Y-50049107D01*
X54670667Y-49860782D01*
X54582153Y-49687064D01*
X54459455Y-49535545D01*
X54307936Y-49412847D01*
X54134218Y-49324333D01*
X54134215Y-49324332D01*
X53945891Y-49273871D01*
X53864922Y-49267499D01*
X53864917Y-49267499D01*
X53635085Y-49267499D01*
X53635079Y-49267499D01*
X53554110Y-49273871D01*
X53365786Y-49324332D01*
X53365784Y-49324333D01*
X53192066Y-49412847D01*
X53192064Y-49412848D01*
X53192061Y-49412850D01*
X53040547Y-49535545D01*
X52917852Y-49687059D01*
X52917850Y-49687062D01*
X52917849Y-49687064D01*
X52832913Y-49853758D01*
X52829336Y-49860780D01*
X52829334Y-49860784D01*
X52778873Y-50049108D01*
X52772501Y-50130077D01*
X51227501Y-50130077D01*
X51221128Y-50049107D01*
X51170667Y-49860782D01*
X51082153Y-49687064D01*
X50959455Y-49535545D01*
X50807936Y-49412847D01*
X50634218Y-49324333D01*
X50634215Y-49324332D01*
X50445891Y-49273871D01*
X50364922Y-49267499D01*
X50364917Y-49267499D01*
X50135085Y-49267499D01*
X50135079Y-49267499D01*
X50054110Y-49273871D01*
X49865786Y-49324332D01*
X49865784Y-49324333D01*
X49692066Y-49412847D01*
X49692064Y-49412848D01*
X49692061Y-49412850D01*
X49540547Y-49535545D01*
X49417852Y-49687059D01*
X49417850Y-49687062D01*
X49417849Y-49687064D01*
X49332913Y-49853758D01*
X49329336Y-49860780D01*
X49329334Y-49860784D01*
X49278873Y-50049108D01*
X49272501Y-50130077D01*
X46727501Y-50130077D01*
X46721128Y-50049107D01*
X46670667Y-49860782D01*
X46582153Y-49687064D01*
X46459455Y-49535545D01*
X46307936Y-49412847D01*
X46134218Y-49324333D01*
X46134215Y-49324332D01*
X45945891Y-49273871D01*
X45864922Y-49267499D01*
X45864917Y-49267499D01*
X45635085Y-49267499D01*
X45635079Y-49267499D01*
X45554110Y-49273871D01*
X45365786Y-49324332D01*
X45365784Y-49324333D01*
X45192066Y-49412847D01*
X45192064Y-49412848D01*
X45192061Y-49412850D01*
X45040547Y-49535545D01*
X44917852Y-49687059D01*
X44917850Y-49687062D01*
X44917849Y-49687064D01*
X44832913Y-49853758D01*
X44829336Y-49860780D01*
X44829334Y-49860784D01*
X44778873Y-50049108D01*
X44772501Y-50130077D01*
X43227501Y-50130077D01*
X43221128Y-50049107D01*
X43170667Y-49860782D01*
X43082153Y-49687064D01*
X42959455Y-49535545D01*
X42807936Y-49412847D01*
X42634218Y-49324333D01*
X42634215Y-49324332D01*
X42445891Y-49273871D01*
X42364922Y-49267499D01*
X42364917Y-49267499D01*
X42135085Y-49267499D01*
X42135079Y-49267499D01*
X42054110Y-49273871D01*
X41865786Y-49324332D01*
X41865784Y-49324333D01*
X41692066Y-49412847D01*
X41692064Y-49412848D01*
X41692061Y-49412850D01*
X41540547Y-49535545D01*
X41417852Y-49687059D01*
X41417850Y-49687062D01*
X41417849Y-49687064D01*
X41332913Y-49853758D01*
X41329336Y-49860780D01*
X41329334Y-49860784D01*
X41278873Y-50049108D01*
X41272501Y-50130077D01*
X38727501Y-50130077D01*
X38721128Y-50049107D01*
X38670667Y-49860782D01*
X38582153Y-49687064D01*
X38459455Y-49535545D01*
X38307936Y-49412847D01*
X38134218Y-49324333D01*
X38134215Y-49324332D01*
X37945891Y-49273871D01*
X37864922Y-49267499D01*
X37864917Y-49267499D01*
X37635085Y-49267499D01*
X37635079Y-49267499D01*
X37554110Y-49273871D01*
X37365786Y-49324332D01*
X37365784Y-49324333D01*
X37192066Y-49412847D01*
X37192064Y-49412848D01*
X37192061Y-49412850D01*
X37040547Y-49535545D01*
X36917852Y-49687059D01*
X36917850Y-49687062D01*
X36917849Y-49687064D01*
X36832913Y-49853758D01*
X36829336Y-49860780D01*
X36829334Y-49860784D01*
X36778873Y-50049108D01*
X36772501Y-50130077D01*
X35227501Y-50130077D01*
X35221128Y-50049107D01*
X35170667Y-49860782D01*
X35082153Y-49687064D01*
X34959455Y-49535545D01*
X34807936Y-49412847D01*
X34634218Y-49324333D01*
X34634215Y-49324332D01*
X34445891Y-49273871D01*
X34364922Y-49267499D01*
X34364917Y-49267499D01*
X34135085Y-49267499D01*
X34135079Y-49267499D01*
X34054110Y-49273871D01*
X33865786Y-49324332D01*
X33865784Y-49324333D01*
X33692066Y-49412847D01*
X33692064Y-49412848D01*
X33692061Y-49412850D01*
X33540547Y-49535545D01*
X33417852Y-49687059D01*
X33417850Y-49687062D01*
X33417849Y-49687064D01*
X33332913Y-49853758D01*
X33329336Y-49860780D01*
X33329334Y-49860784D01*
X33278873Y-50049108D01*
X33272501Y-50130077D01*
X30227500Y-50130077D01*
X30221128Y-50049108D01*
X30170667Y-49860783D01*
X30082153Y-49687065D01*
X29959455Y-49535546D01*
X29807936Y-49412848D01*
X29634218Y-49324334D01*
X29634215Y-49324333D01*
X29445891Y-49273872D01*
X29364922Y-49267500D01*
X29364917Y-49267500D01*
X29135085Y-49267500D01*
X29135079Y-49267500D01*
X29054110Y-49273872D01*
X28865786Y-49324333D01*
X28865784Y-49324334D01*
X28692066Y-49412848D01*
X28692064Y-49412849D01*
X28692061Y-49412851D01*
X28540547Y-49535546D01*
X28417852Y-49687060D01*
X28329336Y-49860781D01*
X28329334Y-49860785D01*
X28278873Y-50049109D01*
X28272501Y-50130078D01*
X26727501Y-50130078D01*
X26721128Y-50049108D01*
X26670667Y-49860783D01*
X26582153Y-49687065D01*
X26459455Y-49535546D01*
X26307936Y-49412848D01*
X26134218Y-49324334D01*
X26134215Y-49324333D01*
X25945891Y-49273872D01*
X25864922Y-49267500D01*
X25864917Y-49267500D01*
X25635085Y-49267500D01*
X25635079Y-49267500D01*
X25554110Y-49273872D01*
X25365786Y-49324333D01*
X25365784Y-49324334D01*
X25192066Y-49412848D01*
X25192064Y-49412849D01*
X25192061Y-49412851D01*
X25040547Y-49535546D01*
X24917852Y-49687060D01*
X24829336Y-49860781D01*
X24829334Y-49860785D01*
X24778873Y-50049109D01*
X24772501Y-50130078D01*
X19510502Y-50130078D01*
X19510502Y-48230078D01*
X26122501Y-48230078D01*
X26122501Y-48459921D01*
X26128873Y-48540890D01*
X26128874Y-48540892D01*
X26179335Y-48729217D01*
X26267849Y-48902935D01*
X26390547Y-49054454D01*
X26542066Y-49177152D01*
X26715784Y-49265666D01*
X26904109Y-49316127D01*
X26985085Y-49322500D01*
X26985093Y-49322500D01*
X28014909Y-49322500D01*
X28014917Y-49322500D01*
X28095893Y-49316127D01*
X28284218Y-49265666D01*
X28457936Y-49177152D01*
X28609455Y-49054454D01*
X28732153Y-48902935D01*
X28820667Y-48729217D01*
X28871128Y-48540892D01*
X28877501Y-48459916D01*
X28877501Y-48230084D01*
X28877500Y-48230077D01*
X34622501Y-48230077D01*
X34622501Y-48459920D01*
X34628873Y-48540889D01*
X34628874Y-48540891D01*
X34679335Y-48729216D01*
X34767849Y-48902934D01*
X34890547Y-49054453D01*
X35042066Y-49177151D01*
X35215784Y-49265665D01*
X35404109Y-49316126D01*
X35485085Y-49322499D01*
X35485093Y-49322499D01*
X36514909Y-49322499D01*
X36514917Y-49322499D01*
X36595893Y-49316126D01*
X36784218Y-49265665D01*
X36957936Y-49177151D01*
X37109455Y-49054453D01*
X37232153Y-48902934D01*
X37320667Y-48729216D01*
X37371128Y-48540891D01*
X37377501Y-48459915D01*
X37377501Y-48230083D01*
X37377501Y-48230077D01*
X42622501Y-48230077D01*
X42622501Y-48459920D01*
X42628873Y-48540889D01*
X42628874Y-48540891D01*
X42679335Y-48729216D01*
X42767849Y-48902934D01*
X42890547Y-49054453D01*
X43042066Y-49177151D01*
X43215784Y-49265665D01*
X43404109Y-49316126D01*
X43485085Y-49322499D01*
X43485093Y-49322499D01*
X44514909Y-49322499D01*
X44514917Y-49322499D01*
X44595893Y-49316126D01*
X44784218Y-49265665D01*
X44957936Y-49177151D01*
X45109455Y-49054453D01*
X45232153Y-48902934D01*
X45320667Y-48729216D01*
X45371128Y-48540891D01*
X45377501Y-48459915D01*
X45377501Y-48230083D01*
X45377501Y-48230077D01*
X50622501Y-48230077D01*
X50622501Y-48459920D01*
X50628873Y-48540889D01*
X50628874Y-48540891D01*
X50679335Y-48729216D01*
X50767849Y-48902934D01*
X50890547Y-49054453D01*
X51042066Y-49177151D01*
X51215784Y-49265665D01*
X51404109Y-49316126D01*
X51485085Y-49322499D01*
X51485093Y-49322499D01*
X52514909Y-49322499D01*
X52514917Y-49322499D01*
X52595893Y-49316126D01*
X52784218Y-49265665D01*
X52957936Y-49177151D01*
X53109455Y-49054453D01*
X53232153Y-48902934D01*
X53320667Y-48729216D01*
X53371128Y-48540891D01*
X53377501Y-48459915D01*
X53377501Y-48230083D01*
X53371128Y-48149107D01*
X53320667Y-47960782D01*
X53232153Y-47787064D01*
X53109455Y-47635545D01*
X52957936Y-47512847D01*
X52784218Y-47424333D01*
X52784215Y-47424332D01*
X52595891Y-47373871D01*
X52514922Y-47367499D01*
X52514917Y-47367499D01*
X51485085Y-47367499D01*
X51485079Y-47367499D01*
X51404110Y-47373871D01*
X51215786Y-47424332D01*
X51215784Y-47424333D01*
X51042066Y-47512847D01*
X51042064Y-47512848D01*
X51042061Y-47512850D01*
X50890547Y-47635545D01*
X50767852Y-47787059D01*
X50767850Y-47787062D01*
X50767849Y-47787064D01*
X50682913Y-47953758D01*
X50679336Y-47960780D01*
X50679334Y-47960784D01*
X50628873Y-48149108D01*
X50622501Y-48230077D01*
X45377501Y-48230077D01*
X45371128Y-48149107D01*
X45320667Y-47960782D01*
X45232153Y-47787064D01*
X45109455Y-47635545D01*
X44957936Y-47512847D01*
X44784218Y-47424333D01*
X44784215Y-47424332D01*
X44595891Y-47373871D01*
X44514922Y-47367499D01*
X44514917Y-47367499D01*
X43485085Y-47367499D01*
X43485079Y-47367499D01*
X43404110Y-47373871D01*
X43215786Y-47424332D01*
X43215784Y-47424333D01*
X43042066Y-47512847D01*
X43042064Y-47512848D01*
X43042061Y-47512850D01*
X42890547Y-47635545D01*
X42767852Y-47787059D01*
X42767850Y-47787062D01*
X42767849Y-47787064D01*
X42682913Y-47953758D01*
X42679336Y-47960780D01*
X42679334Y-47960784D01*
X42628873Y-48149108D01*
X42622501Y-48230077D01*
X37377501Y-48230077D01*
X37371128Y-48149107D01*
X37320667Y-47960782D01*
X37232153Y-47787064D01*
X37109455Y-47635545D01*
X36957936Y-47512847D01*
X36784218Y-47424333D01*
X36784215Y-47424332D01*
X36595891Y-47373871D01*
X36514922Y-47367499D01*
X36514917Y-47367499D01*
X35485085Y-47367499D01*
X35485079Y-47367499D01*
X35404110Y-47373871D01*
X35215786Y-47424332D01*
X35215784Y-47424333D01*
X35042066Y-47512847D01*
X35042064Y-47512848D01*
X35042061Y-47512850D01*
X34890547Y-47635545D01*
X34767852Y-47787059D01*
X34767850Y-47787062D01*
X34767849Y-47787064D01*
X34682913Y-47953758D01*
X34679336Y-47960780D01*
X34679334Y-47960784D01*
X34628873Y-48149108D01*
X34622501Y-48230077D01*
X28877500Y-48230077D01*
X28871128Y-48149108D01*
X28820667Y-47960783D01*
X28732153Y-47787065D01*
X28609455Y-47635546D01*
X28457936Y-47512848D01*
X28284218Y-47424334D01*
X28284215Y-47424333D01*
X28095891Y-47373872D01*
X28014922Y-47367500D01*
X28014917Y-47367500D01*
X26985085Y-47367500D01*
X26985079Y-47367500D01*
X26904110Y-47373872D01*
X26715786Y-47424333D01*
X26715784Y-47424334D01*
X26542066Y-47512848D01*
X26542064Y-47512849D01*
X26542061Y-47512851D01*
X26390547Y-47635546D01*
X26267852Y-47787060D01*
X26179336Y-47960781D01*
X26179334Y-47960785D01*
X26128873Y-48149109D01*
X26122501Y-48230078D01*
X19510502Y-48230078D01*
X19510502Y-43900469D01*
X21489501Y-43900469D01*
X21489501Y-44099530D01*
X21528332Y-44294744D01*
X21528334Y-44294752D01*
X21604506Y-44478647D01*
X21604511Y-44478657D01*
X21715094Y-44644155D01*
X21715097Y-44644159D01*
X21855841Y-44784903D01*
X21855845Y-44784906D01*
X22021343Y-44895489D01*
X22021347Y-44895491D01*
X22021350Y-44895493D01*
X22205249Y-44971667D01*
X22400470Y-45010499D01*
X22400473Y-45010500D01*
X22400475Y-45010500D01*
X22599529Y-45010500D01*
X22599530Y-45010499D01*
X22794753Y-44971667D01*
X22970680Y-44898795D01*
X31347501Y-44898795D01*
X31347501Y-45101204D01*
X31386985Y-45299703D01*
X31386987Y-45299711D01*
X31464440Y-45486701D01*
X31464445Y-45486710D01*
X31576888Y-45654992D01*
X31576891Y-45654996D01*
X31720004Y-45798109D01*
X31720008Y-45798112D01*
X31888290Y-45910555D01*
X31888296Y-45910558D01*
X31888297Y-45910559D01*
X32075290Y-45988014D01*
X32273796Y-46027499D01*
X32273800Y-46027500D01*
X32273801Y-46027500D01*
X32476202Y-46027500D01*
X32476203Y-46027499D01*
X32674712Y-45988014D01*
X32861705Y-45910559D01*
X33029994Y-45798112D01*
X33173113Y-45654993D01*
X33285560Y-45486704D01*
X33363015Y-45299711D01*
X33402501Y-45101200D01*
X33402501Y-44898800D01*
X33402500Y-44898795D01*
X36347501Y-44898795D01*
X36347501Y-45101204D01*
X36386985Y-45299703D01*
X36386987Y-45299711D01*
X36464440Y-45486701D01*
X36464445Y-45486710D01*
X36576888Y-45654992D01*
X36576891Y-45654996D01*
X36720004Y-45798109D01*
X36720008Y-45798112D01*
X36888290Y-45910555D01*
X36888296Y-45910558D01*
X36888297Y-45910559D01*
X37075290Y-45988014D01*
X37273796Y-46027499D01*
X37273800Y-46027500D01*
X37273801Y-46027500D01*
X37476202Y-46027500D01*
X37476203Y-46027499D01*
X37674712Y-45988014D01*
X37861705Y-45910559D01*
X38029994Y-45798112D01*
X38173113Y-45654993D01*
X38285560Y-45486704D01*
X38363015Y-45299711D01*
X38402501Y-45101200D01*
X38402501Y-44898800D01*
X38402500Y-44898795D01*
X41597501Y-44898795D01*
X41597501Y-45101204D01*
X41636985Y-45299703D01*
X41636987Y-45299711D01*
X41714440Y-45486701D01*
X41714445Y-45486710D01*
X41826888Y-45654992D01*
X41826891Y-45654996D01*
X41970004Y-45798109D01*
X41970008Y-45798112D01*
X42138290Y-45910555D01*
X42138296Y-45910558D01*
X42138297Y-45910559D01*
X42325290Y-45988014D01*
X42523796Y-46027499D01*
X42523800Y-46027500D01*
X42523801Y-46027500D01*
X42726202Y-46027500D01*
X42726203Y-46027499D01*
X42924712Y-45988014D01*
X43111705Y-45910559D01*
X43279994Y-45798112D01*
X43423113Y-45654993D01*
X43535560Y-45486704D01*
X43613015Y-45299711D01*
X43652501Y-45101200D01*
X43652501Y-44898800D01*
X43652500Y-44898795D01*
X46597501Y-44898795D01*
X46597501Y-45101204D01*
X46636985Y-45299703D01*
X46636987Y-45299711D01*
X46714440Y-45486701D01*
X46714445Y-45486710D01*
X46826888Y-45654992D01*
X46826891Y-45654996D01*
X46970004Y-45798109D01*
X46970008Y-45798112D01*
X47138290Y-45910555D01*
X47138296Y-45910558D01*
X47138297Y-45910559D01*
X47325290Y-45988014D01*
X47523796Y-46027499D01*
X47523800Y-46027500D01*
X47523801Y-46027500D01*
X47726202Y-46027500D01*
X47726203Y-46027499D01*
X47924712Y-45988014D01*
X48111705Y-45910559D01*
X48279994Y-45798112D01*
X48423113Y-45654993D01*
X48535560Y-45486704D01*
X48571280Y-45400469D01*
X55989501Y-45400469D01*
X55989501Y-45599530D01*
X56028332Y-45794744D01*
X56028334Y-45794752D01*
X56104506Y-45978647D01*
X56104511Y-45978657D01*
X56215094Y-46144155D01*
X56215097Y-46144159D01*
X56355841Y-46284903D01*
X56355845Y-46284906D01*
X56521343Y-46395489D01*
X56521347Y-46395491D01*
X56521350Y-46395493D01*
X56705249Y-46471667D01*
X56900470Y-46510499D01*
X56900473Y-46510500D01*
X56900475Y-46510500D01*
X57099529Y-46510500D01*
X57099530Y-46510499D01*
X57294753Y-46471667D01*
X57478652Y-46395493D01*
X57644157Y-46284906D01*
X57784907Y-46144156D01*
X57895494Y-45978651D01*
X57971668Y-45794752D01*
X58010501Y-45599526D01*
X58010501Y-45400474D01*
X58010501Y-45400471D01*
X58010500Y-45400469D01*
X57990456Y-45299703D01*
X57971668Y-45205248D01*
X57895494Y-45021349D01*
X57895492Y-45021346D01*
X57895490Y-45021342D01*
X57784907Y-44855844D01*
X57784904Y-44855840D01*
X57644160Y-44715096D01*
X57644156Y-44715093D01*
X57478658Y-44604510D01*
X57478648Y-44604505D01*
X57294753Y-44528333D01*
X57294745Y-44528331D01*
X57099530Y-44489500D01*
X57099527Y-44489500D01*
X56900475Y-44489500D01*
X56900472Y-44489500D01*
X56705256Y-44528331D01*
X56705248Y-44528333D01*
X56521353Y-44604505D01*
X56521343Y-44604510D01*
X56355845Y-44715093D01*
X56355841Y-44715096D01*
X56215097Y-44855840D01*
X56215094Y-44855844D01*
X56104511Y-45021342D01*
X56104506Y-45021352D01*
X56028334Y-45205247D01*
X56028332Y-45205255D01*
X55989501Y-45400469D01*
X48571280Y-45400469D01*
X48613015Y-45299711D01*
X48652501Y-45101200D01*
X48652501Y-44898800D01*
X48613015Y-44700289D01*
X48535560Y-44513296D01*
X48535559Y-44513295D01*
X48535556Y-44513289D01*
X48423113Y-44345007D01*
X48423110Y-44345003D01*
X48279997Y-44201890D01*
X48279993Y-44201887D01*
X48111711Y-44089444D01*
X48111702Y-44089439D01*
X47924712Y-44011986D01*
X47924704Y-44011984D01*
X47726205Y-43972500D01*
X47726201Y-43972500D01*
X47523801Y-43972500D01*
X47523796Y-43972500D01*
X47325297Y-44011984D01*
X47325289Y-44011986D01*
X47138299Y-44089439D01*
X47138290Y-44089444D01*
X46970008Y-44201887D01*
X46970004Y-44201890D01*
X46826891Y-44345003D01*
X46826888Y-44345007D01*
X46714445Y-44513289D01*
X46714440Y-44513298D01*
X46636987Y-44700288D01*
X46636985Y-44700296D01*
X46597501Y-44898795D01*
X43652500Y-44898795D01*
X43613015Y-44700289D01*
X43535560Y-44513296D01*
X43535559Y-44513295D01*
X43535556Y-44513289D01*
X43423113Y-44345007D01*
X43423110Y-44345003D01*
X43279997Y-44201890D01*
X43279993Y-44201887D01*
X43111711Y-44089444D01*
X43111702Y-44089439D01*
X42924712Y-44011986D01*
X42924704Y-44011984D01*
X42726205Y-43972500D01*
X42726201Y-43972500D01*
X42523801Y-43972500D01*
X42523796Y-43972500D01*
X42325297Y-44011984D01*
X42325289Y-44011986D01*
X42138299Y-44089439D01*
X42138290Y-44089444D01*
X41970008Y-44201887D01*
X41970004Y-44201890D01*
X41826891Y-44345003D01*
X41826888Y-44345007D01*
X41714445Y-44513289D01*
X41714440Y-44513298D01*
X41636987Y-44700288D01*
X41636985Y-44700296D01*
X41597501Y-44898795D01*
X38402500Y-44898795D01*
X38363015Y-44700289D01*
X38285560Y-44513296D01*
X38285559Y-44513295D01*
X38285556Y-44513289D01*
X38173113Y-44345007D01*
X38173110Y-44345003D01*
X38029997Y-44201890D01*
X38029993Y-44201887D01*
X37861711Y-44089444D01*
X37861702Y-44089439D01*
X37674712Y-44011986D01*
X37674704Y-44011984D01*
X37476205Y-43972500D01*
X37476201Y-43972500D01*
X37273801Y-43972500D01*
X37273796Y-43972500D01*
X37075297Y-44011984D01*
X37075289Y-44011986D01*
X36888299Y-44089439D01*
X36888290Y-44089444D01*
X36720008Y-44201887D01*
X36720004Y-44201890D01*
X36576891Y-44345003D01*
X36576888Y-44345007D01*
X36464445Y-44513289D01*
X36464440Y-44513298D01*
X36386987Y-44700288D01*
X36386985Y-44700296D01*
X36347501Y-44898795D01*
X33402500Y-44898795D01*
X33363015Y-44700289D01*
X33285560Y-44513296D01*
X33285559Y-44513295D01*
X33285556Y-44513289D01*
X33173113Y-44345007D01*
X33173110Y-44345003D01*
X33029997Y-44201890D01*
X33029993Y-44201887D01*
X32861711Y-44089444D01*
X32861702Y-44089439D01*
X32674712Y-44011986D01*
X32674704Y-44011984D01*
X32476205Y-43972500D01*
X32476201Y-43972500D01*
X32273801Y-43972500D01*
X32273796Y-43972500D01*
X32075297Y-44011984D01*
X32075289Y-44011986D01*
X31888299Y-44089439D01*
X31888290Y-44089444D01*
X31720008Y-44201887D01*
X31720004Y-44201890D01*
X31576891Y-44345003D01*
X31576888Y-44345007D01*
X31464445Y-44513289D01*
X31464440Y-44513298D01*
X31386987Y-44700288D01*
X31386985Y-44700296D01*
X31347501Y-44898795D01*
X22970680Y-44898795D01*
X22978652Y-44895493D01*
X23137124Y-44789605D01*
X23137125Y-44789605D01*
X23140777Y-44787163D01*
X23144157Y-44784906D01*
X23284907Y-44644156D01*
X23395494Y-44478651D01*
X23471668Y-44294752D01*
X23510501Y-44099526D01*
X23510501Y-43900474D01*
X23510501Y-43900471D01*
X23510500Y-43900469D01*
X23471668Y-43705248D01*
X23395494Y-43521349D01*
X23395492Y-43521346D01*
X23395490Y-43521342D01*
X23284907Y-43355844D01*
X23284904Y-43355840D01*
X23144160Y-43215096D01*
X23144156Y-43215093D01*
X22978658Y-43104510D01*
X22978648Y-43104505D01*
X22794753Y-43028333D01*
X22794745Y-43028331D01*
X22599530Y-42989500D01*
X22599527Y-42989500D01*
X22400475Y-42989500D01*
X22400472Y-42989500D01*
X22205256Y-43028331D01*
X22205248Y-43028333D01*
X22021353Y-43104505D01*
X22021343Y-43104510D01*
X21855845Y-43215093D01*
X21855841Y-43215096D01*
X21715097Y-43355840D01*
X21715094Y-43355844D01*
X21604511Y-43521342D01*
X21604506Y-43521352D01*
X21528334Y-43705247D01*
X21528332Y-43705255D01*
X21489501Y-43900469D01*
X19510502Y-43900469D01*
X19510502Y-41648795D01*
X31347501Y-41648795D01*
X31347501Y-41851204D01*
X31386985Y-42049703D01*
X31386987Y-42049711D01*
X31464440Y-42236701D01*
X31464445Y-42236710D01*
X31576888Y-42404992D01*
X31576891Y-42404996D01*
X31720004Y-42548109D01*
X31720008Y-42548112D01*
X31888290Y-42660555D01*
X31888299Y-42660560D01*
X31912697Y-42670666D01*
X32075290Y-42738014D01*
X32273796Y-42777499D01*
X32273800Y-42777500D01*
X32273801Y-42777500D01*
X32476202Y-42777500D01*
X32476203Y-42777499D01*
X32674712Y-42738014D01*
X32861705Y-42660559D01*
X33029994Y-42548112D01*
X33173113Y-42404993D01*
X33285560Y-42236704D01*
X33363015Y-42049711D01*
X33402501Y-41851200D01*
X33402501Y-41648800D01*
X33402500Y-41648795D01*
X36347501Y-41648795D01*
X36347501Y-41851204D01*
X36386985Y-42049703D01*
X36386987Y-42049711D01*
X36464440Y-42236701D01*
X36464445Y-42236710D01*
X36576888Y-42404992D01*
X36576891Y-42404996D01*
X36720004Y-42548109D01*
X36720008Y-42548112D01*
X36888290Y-42660555D01*
X36888299Y-42660560D01*
X36912697Y-42670666D01*
X37075290Y-42738014D01*
X37273796Y-42777499D01*
X37273800Y-42777500D01*
X37273801Y-42777500D01*
X37476202Y-42777500D01*
X37476203Y-42777499D01*
X37674712Y-42738014D01*
X37861705Y-42660559D01*
X38029994Y-42548112D01*
X38173113Y-42404993D01*
X38285560Y-42236704D01*
X38363015Y-42049711D01*
X38402501Y-41851200D01*
X38402501Y-41648800D01*
X38402500Y-41648795D01*
X41597501Y-41648795D01*
X41597501Y-41851204D01*
X41636985Y-42049703D01*
X41636987Y-42049711D01*
X41714440Y-42236701D01*
X41714445Y-42236710D01*
X41826888Y-42404992D01*
X41826891Y-42404996D01*
X41970004Y-42548109D01*
X41970008Y-42548112D01*
X42138290Y-42660555D01*
X42138299Y-42660560D01*
X42162697Y-42670666D01*
X42325290Y-42738014D01*
X42523796Y-42777499D01*
X42523800Y-42777500D01*
X42523801Y-42777500D01*
X42726202Y-42777500D01*
X42726203Y-42777499D01*
X42924712Y-42738014D01*
X43111705Y-42660559D01*
X43279994Y-42548112D01*
X43423113Y-42404993D01*
X43535560Y-42236704D01*
X43613015Y-42049711D01*
X43652501Y-41851200D01*
X43652501Y-41648800D01*
X43652500Y-41648795D01*
X46597501Y-41648795D01*
X46597501Y-41851204D01*
X46636985Y-42049703D01*
X46636987Y-42049711D01*
X46714440Y-42236701D01*
X46714445Y-42236710D01*
X46826888Y-42404992D01*
X46826891Y-42404996D01*
X46970004Y-42548109D01*
X46970008Y-42548112D01*
X47138290Y-42660555D01*
X47138299Y-42660560D01*
X47162697Y-42670666D01*
X47325290Y-42738014D01*
X47523796Y-42777499D01*
X47523800Y-42777500D01*
X47523801Y-42777500D01*
X47726202Y-42777500D01*
X47726203Y-42777499D01*
X47924712Y-42738014D01*
X48111705Y-42660559D01*
X48279994Y-42548112D01*
X48423113Y-42404993D01*
X48535560Y-42236704D01*
X48613015Y-42049711D01*
X48652501Y-41851200D01*
X48652501Y-41648800D01*
X48649772Y-41635078D01*
X52767500Y-41635078D01*
X52767500Y-41864921D01*
X52773872Y-41945890D01*
X52801691Y-42049711D01*
X52824334Y-42134217D01*
X52912848Y-42307935D01*
X53035546Y-42459454D01*
X53187065Y-42582152D01*
X53360783Y-42670666D01*
X53549108Y-42721127D01*
X53630084Y-42727500D01*
X53630092Y-42727500D01*
X54659908Y-42727500D01*
X54659916Y-42727500D01*
X54740892Y-42721127D01*
X54929217Y-42670666D01*
X55102935Y-42582152D01*
X55254454Y-42459454D01*
X55377152Y-42307935D01*
X55465666Y-42134217D01*
X55516127Y-41945892D01*
X55522500Y-41864916D01*
X55522500Y-41635084D01*
X55516127Y-41554108D01*
X55465666Y-41365783D01*
X55377152Y-41192065D01*
X55254454Y-41040546D01*
X55102935Y-40917848D01*
X54929217Y-40829334D01*
X54929214Y-40829333D01*
X54740890Y-40778872D01*
X54659921Y-40772500D01*
X54659916Y-40772500D01*
X53630084Y-40772500D01*
X53630078Y-40772500D01*
X53549109Y-40778872D01*
X53360785Y-40829333D01*
X53360783Y-40829334D01*
X53187065Y-40917848D01*
X53187063Y-40917849D01*
X53187060Y-40917851D01*
X53035546Y-41040546D01*
X52912851Y-41192060D01*
X52912849Y-41192063D01*
X52912848Y-41192065D01*
X52876554Y-41263296D01*
X52824335Y-41365781D01*
X52824333Y-41365785D01*
X52773872Y-41554109D01*
X52767500Y-41635078D01*
X48649772Y-41635078D01*
X48613015Y-41450289D01*
X48535560Y-41263296D01*
X48535559Y-41263295D01*
X48535556Y-41263289D01*
X48423113Y-41095007D01*
X48423110Y-41095003D01*
X48279997Y-40951890D01*
X48279993Y-40951887D01*
X48111711Y-40839444D01*
X48111702Y-40839439D01*
X47924712Y-40761986D01*
X47924704Y-40761984D01*
X47726205Y-40722500D01*
X47726201Y-40722500D01*
X47523801Y-40722500D01*
X47523796Y-40722500D01*
X47325297Y-40761984D01*
X47325289Y-40761986D01*
X47138299Y-40839439D01*
X47138290Y-40839444D01*
X46970008Y-40951887D01*
X46970004Y-40951890D01*
X46826891Y-41095003D01*
X46826888Y-41095007D01*
X46714445Y-41263289D01*
X46714440Y-41263298D01*
X46636987Y-41450288D01*
X46636985Y-41450296D01*
X46597501Y-41648795D01*
X43652500Y-41648795D01*
X43613015Y-41450289D01*
X43535560Y-41263296D01*
X43535559Y-41263295D01*
X43535556Y-41263289D01*
X43423113Y-41095007D01*
X43423110Y-41095003D01*
X43279997Y-40951890D01*
X43279993Y-40951887D01*
X43111711Y-40839444D01*
X43111702Y-40839439D01*
X42924712Y-40761986D01*
X42924704Y-40761984D01*
X42726205Y-40722500D01*
X42726201Y-40722500D01*
X42523801Y-40722500D01*
X42523796Y-40722500D01*
X42325297Y-40761984D01*
X42325289Y-40761986D01*
X42138299Y-40839439D01*
X42138290Y-40839444D01*
X41970008Y-40951887D01*
X41970004Y-40951890D01*
X41826891Y-41095003D01*
X41826888Y-41095007D01*
X41714445Y-41263289D01*
X41714440Y-41263298D01*
X41636987Y-41450288D01*
X41636985Y-41450296D01*
X41597501Y-41648795D01*
X38402500Y-41648795D01*
X38363015Y-41450289D01*
X38285560Y-41263296D01*
X38285559Y-41263295D01*
X38285556Y-41263289D01*
X38173113Y-41095007D01*
X38173110Y-41095003D01*
X38029997Y-40951890D01*
X38029993Y-40951887D01*
X37861711Y-40839444D01*
X37861702Y-40839439D01*
X37674712Y-40761986D01*
X37674704Y-40761984D01*
X37476205Y-40722500D01*
X37476201Y-40722500D01*
X37273801Y-40722500D01*
X37273796Y-40722500D01*
X37075297Y-40761984D01*
X37075289Y-40761986D01*
X36888299Y-40839439D01*
X36888290Y-40839444D01*
X36720008Y-40951887D01*
X36720004Y-40951890D01*
X36576891Y-41095003D01*
X36576888Y-41095007D01*
X36464445Y-41263289D01*
X36464440Y-41263298D01*
X36386987Y-41450288D01*
X36386985Y-41450296D01*
X36347501Y-41648795D01*
X33402500Y-41648795D01*
X33363015Y-41450289D01*
X33285560Y-41263296D01*
X33285559Y-41263295D01*
X33285556Y-41263289D01*
X33173113Y-41095007D01*
X33173110Y-41095003D01*
X33029997Y-40951890D01*
X33029993Y-40951887D01*
X32861711Y-40839444D01*
X32861702Y-40839439D01*
X32674712Y-40761986D01*
X32674704Y-40761984D01*
X32476205Y-40722500D01*
X32476201Y-40722500D01*
X32273801Y-40722500D01*
X32273796Y-40722500D01*
X32075297Y-40761984D01*
X32075289Y-40761986D01*
X31888299Y-40839439D01*
X31888290Y-40839444D01*
X31720008Y-40951887D01*
X31720004Y-40951890D01*
X31576891Y-41095003D01*
X31576888Y-41095007D01*
X31464445Y-41263289D01*
X31464440Y-41263298D01*
X31386987Y-41450288D01*
X31386985Y-41450296D01*
X31347501Y-41648795D01*
X19510502Y-41648795D01*
X19510502Y-40027499D01*
X19510502Y-38148795D01*
X31347501Y-38148795D01*
X31347501Y-38351204D01*
X31386985Y-38549703D01*
X31386987Y-38549711D01*
X31464440Y-38736701D01*
X31464445Y-38736710D01*
X31576888Y-38904992D01*
X31576891Y-38904996D01*
X31720004Y-39048109D01*
X31720008Y-39048112D01*
X31888290Y-39160555D01*
X31888299Y-39160560D01*
X31912697Y-39170666D01*
X32075290Y-39238014D01*
X32273796Y-39277499D01*
X32273800Y-39277500D01*
X32273801Y-39277500D01*
X32476202Y-39277500D01*
X32476203Y-39277499D01*
X32674712Y-39238014D01*
X32861705Y-39160559D01*
X33029994Y-39048112D01*
X33173113Y-38904993D01*
X33177254Y-38898795D01*
X37067501Y-38898795D01*
X37067501Y-39101204D01*
X37106985Y-39299703D01*
X37106987Y-39299711D01*
X37184440Y-39486701D01*
X37184445Y-39486710D01*
X37296888Y-39654992D01*
X37296891Y-39654996D01*
X37440004Y-39798109D01*
X37440008Y-39798112D01*
X37608290Y-39910555D01*
X37608296Y-39910558D01*
X37608297Y-39910559D01*
X37795290Y-39988014D01*
X37993796Y-40027499D01*
X37993800Y-40027500D01*
X37993801Y-40027500D01*
X38196202Y-40027500D01*
X38196203Y-40027499D01*
X38394712Y-39988014D01*
X38581705Y-39910559D01*
X38749994Y-39798112D01*
X38893113Y-39654993D01*
X39005560Y-39486704D01*
X39083015Y-39299711D01*
X39122501Y-39101200D01*
X39122501Y-38898800D01*
X39122500Y-38898795D01*
X40877501Y-38898795D01*
X40877501Y-39101204D01*
X40916985Y-39299703D01*
X40916987Y-39299711D01*
X40994440Y-39486701D01*
X40994445Y-39486710D01*
X41106888Y-39654992D01*
X41106891Y-39654996D01*
X41250004Y-39798109D01*
X41250008Y-39798112D01*
X41418290Y-39910555D01*
X41418296Y-39910558D01*
X41418297Y-39910559D01*
X41605290Y-39988014D01*
X41803796Y-40027499D01*
X41803800Y-40027500D01*
X41803801Y-40027500D01*
X42006202Y-40027500D01*
X42006203Y-40027499D01*
X42204712Y-39988014D01*
X42380397Y-39915243D01*
X55584500Y-39915243D01*
X55584500Y-40084756D01*
X55617566Y-40250991D01*
X55617569Y-40251003D01*
X55682431Y-40407595D01*
X55682432Y-40407597D01*
X55776605Y-40548536D01*
X55776608Y-40548540D01*
X55896459Y-40668391D01*
X55896463Y-40668394D01*
X56037400Y-40762566D01*
X56037401Y-40762566D01*
X56037402Y-40762567D01*
X56037404Y-40762568D01*
X56135864Y-40803351D01*
X56194001Y-40827432D01*
X56360243Y-40860499D01*
X56360247Y-40860500D01*
X56360248Y-40860500D01*
X56529753Y-40860500D01*
X56529754Y-40860499D01*
X56695999Y-40827432D01*
X56852600Y-40762566D01*
X56993537Y-40668394D01*
X57113394Y-40548537D01*
X57140398Y-40508122D01*
X57194010Y-40463318D01*
X57263335Y-40454611D01*
X57326362Y-40484765D01*
X57363082Y-40544208D01*
X57367500Y-40577014D01*
X57367500Y-40764921D01*
X57373872Y-40845890D01*
X57424333Y-41034214D01*
X57424334Y-41034217D01*
X57512848Y-41207935D01*
X57635546Y-41359454D01*
X57787065Y-41482152D01*
X57960783Y-41570666D01*
X58149108Y-41621127D01*
X58230084Y-41627500D01*
X58230092Y-41627500D01*
X58459908Y-41627500D01*
X58459916Y-41627500D01*
X58540892Y-41621127D01*
X58729217Y-41570666D01*
X58902935Y-41482152D01*
X59054454Y-41359454D01*
X59177152Y-41207935D01*
X59265666Y-41034217D01*
X59316127Y-40845892D01*
X59322500Y-40764916D01*
X59322500Y-39235084D01*
X59316127Y-39154108D01*
X59265666Y-38965783D01*
X59177152Y-38792065D01*
X59054454Y-38640546D01*
X58902935Y-38517848D01*
X58729217Y-38429334D01*
X58729214Y-38429333D01*
X58540890Y-38378872D01*
X58459921Y-38372500D01*
X58459916Y-38372500D01*
X58230084Y-38372500D01*
X58230078Y-38372500D01*
X58149109Y-38378872D01*
X57960785Y-38429333D01*
X57960783Y-38429334D01*
X57787065Y-38517848D01*
X57787063Y-38517849D01*
X57787060Y-38517851D01*
X57635546Y-38640546D01*
X57512851Y-38792060D01*
X57424335Y-38965781D01*
X57424333Y-38965785D01*
X57373872Y-39154109D01*
X57367500Y-39235078D01*
X57367500Y-39422985D01*
X57347815Y-39490024D01*
X57295011Y-39535779D01*
X57225853Y-39545723D01*
X57162297Y-39516698D01*
X57140398Y-39491877D01*
X57139160Y-39490024D01*
X57113394Y-39451463D01*
X57113393Y-39451462D01*
X57113391Y-39451459D01*
X56993540Y-39331608D01*
X56993536Y-39331605D01*
X56852597Y-39237432D01*
X56852595Y-39237431D01*
X56696003Y-39172569D01*
X56695991Y-39172566D01*
X56529756Y-39139500D01*
X56529752Y-39139500D01*
X56360248Y-39139500D01*
X56360243Y-39139500D01*
X56194008Y-39172566D01*
X56193996Y-39172569D01*
X56037404Y-39237431D01*
X56037402Y-39237432D01*
X55896463Y-39331605D01*
X55896459Y-39331608D01*
X55776608Y-39451459D01*
X55776605Y-39451463D01*
X55682432Y-39592402D01*
X55682431Y-39592404D01*
X55617569Y-39748996D01*
X55617566Y-39749008D01*
X55584500Y-39915243D01*
X42380397Y-39915243D01*
X42391705Y-39910559D01*
X42548109Y-39806053D01*
X42548110Y-39806053D01*
X42554359Y-39801876D01*
X42559994Y-39798112D01*
X42703113Y-39654993D01*
X42815560Y-39486704D01*
X42893015Y-39299711D01*
X42932501Y-39101200D01*
X42932501Y-38898800D01*
X42893015Y-38700289D01*
X42817447Y-38517851D01*
X42815561Y-38513298D01*
X42815556Y-38513289D01*
X42703113Y-38345007D01*
X42703110Y-38345003D01*
X42559997Y-38201890D01*
X42559993Y-38201887D01*
X42480536Y-38148795D01*
X46597501Y-38148795D01*
X46597501Y-38351204D01*
X46636985Y-38549703D01*
X46636987Y-38549711D01*
X46714440Y-38736701D01*
X46714445Y-38736710D01*
X46826888Y-38904992D01*
X46826891Y-38904996D01*
X46970004Y-39048109D01*
X46970008Y-39048112D01*
X47138290Y-39160555D01*
X47138299Y-39160560D01*
X47162697Y-39170666D01*
X47325290Y-39238014D01*
X47523796Y-39277499D01*
X47523800Y-39277500D01*
X47523801Y-39277500D01*
X47726202Y-39277500D01*
X47726203Y-39277499D01*
X47924712Y-39238014D01*
X48111705Y-39160559D01*
X48279994Y-39048112D01*
X48423113Y-38904993D01*
X48535560Y-38736704D01*
X48613015Y-38549711D01*
X48652501Y-38351200D01*
X48652501Y-38148800D01*
X48649772Y-38135078D01*
X52767500Y-38135078D01*
X52767500Y-38364921D01*
X52773872Y-38445890D01*
X52801691Y-38549711D01*
X52824334Y-38634217D01*
X52912848Y-38807935D01*
X53035546Y-38959454D01*
X53187065Y-39082152D01*
X53360783Y-39170666D01*
X53549108Y-39221127D01*
X53630084Y-39227500D01*
X53630092Y-39227500D01*
X54659908Y-39227500D01*
X54659916Y-39227500D01*
X54740892Y-39221127D01*
X54929217Y-39170666D01*
X55102935Y-39082152D01*
X55254454Y-38959454D01*
X55377152Y-38807935D01*
X55465666Y-38634217D01*
X55516127Y-38445892D01*
X55522500Y-38364916D01*
X55522500Y-38135084D01*
X55516127Y-38054108D01*
X55465666Y-37865783D01*
X55377152Y-37692065D01*
X55254454Y-37540546D01*
X55102935Y-37417848D01*
X54929217Y-37329334D01*
X54929214Y-37329333D01*
X54740890Y-37278872D01*
X54659921Y-37272500D01*
X54659916Y-37272500D01*
X53630084Y-37272500D01*
X53630078Y-37272500D01*
X53549109Y-37278872D01*
X53360785Y-37329333D01*
X53360783Y-37329334D01*
X53187065Y-37417848D01*
X53187063Y-37417849D01*
X53187060Y-37417851D01*
X53035546Y-37540546D01*
X52912851Y-37692060D01*
X52912849Y-37692063D01*
X52912848Y-37692065D01*
X52876554Y-37763296D01*
X52824335Y-37865781D01*
X52824333Y-37865785D01*
X52773872Y-38054109D01*
X52767500Y-38135078D01*
X48649772Y-38135078D01*
X48613015Y-37950289D01*
X48535560Y-37763296D01*
X48535559Y-37763295D01*
X48535556Y-37763289D01*
X48423113Y-37595007D01*
X48423110Y-37595003D01*
X48279997Y-37451890D01*
X48279993Y-37451887D01*
X48111711Y-37339444D01*
X48111702Y-37339439D01*
X47924712Y-37261986D01*
X47924704Y-37261984D01*
X47726205Y-37222500D01*
X47726201Y-37222500D01*
X47523801Y-37222500D01*
X47523796Y-37222500D01*
X47325297Y-37261984D01*
X47325289Y-37261986D01*
X47138299Y-37339439D01*
X47138290Y-37339444D01*
X46970008Y-37451887D01*
X46970004Y-37451890D01*
X46826891Y-37595003D01*
X46826888Y-37595007D01*
X46714445Y-37763289D01*
X46714440Y-37763298D01*
X46636987Y-37950288D01*
X46636985Y-37950296D01*
X46597501Y-38148795D01*
X42480536Y-38148795D01*
X42391711Y-38089444D01*
X42391702Y-38089439D01*
X42204712Y-38011986D01*
X42204704Y-38011984D01*
X42006205Y-37972500D01*
X42006201Y-37972500D01*
X41803801Y-37972500D01*
X41803796Y-37972500D01*
X41605297Y-38011984D01*
X41605289Y-38011986D01*
X41418299Y-38089439D01*
X41418290Y-38089444D01*
X41250008Y-38201887D01*
X41250004Y-38201890D01*
X41106891Y-38345003D01*
X41106888Y-38345007D01*
X40994445Y-38513289D01*
X40994440Y-38513298D01*
X40916987Y-38700288D01*
X40916985Y-38700296D01*
X40877501Y-38898795D01*
X39122500Y-38898795D01*
X39083015Y-38700289D01*
X39007447Y-38517851D01*
X39005561Y-38513298D01*
X39005556Y-38513289D01*
X38893113Y-38345007D01*
X38893110Y-38345003D01*
X38749997Y-38201890D01*
X38749993Y-38201887D01*
X38581711Y-38089444D01*
X38581702Y-38089439D01*
X38394712Y-38011986D01*
X38394704Y-38011984D01*
X38196205Y-37972500D01*
X38196201Y-37972500D01*
X37993801Y-37972500D01*
X37993796Y-37972500D01*
X37795297Y-38011984D01*
X37795289Y-38011986D01*
X37608299Y-38089439D01*
X37608290Y-38089444D01*
X37440008Y-38201887D01*
X37440004Y-38201890D01*
X37296891Y-38345003D01*
X37296888Y-38345007D01*
X37184445Y-38513289D01*
X37184440Y-38513298D01*
X37106987Y-38700288D01*
X37106985Y-38700296D01*
X37067501Y-38898795D01*
X33177254Y-38898795D01*
X33195019Y-38872207D01*
X33227354Y-38823817D01*
X33227355Y-38823815D01*
X33285553Y-38736715D01*
X33285556Y-38736710D01*
X33285560Y-38736704D01*
X33363015Y-38549711D01*
X33402501Y-38351200D01*
X33402501Y-38148800D01*
X33363015Y-37950289D01*
X33285560Y-37763296D01*
X33285559Y-37763295D01*
X33285556Y-37763289D01*
X33173113Y-37595007D01*
X33173110Y-37595003D01*
X33029997Y-37451890D01*
X33029993Y-37451887D01*
X32861711Y-37339444D01*
X32861702Y-37339439D01*
X32674712Y-37261986D01*
X32674704Y-37261984D01*
X32476205Y-37222500D01*
X32476201Y-37222500D01*
X32273801Y-37222500D01*
X32273796Y-37222500D01*
X32075297Y-37261984D01*
X32075289Y-37261986D01*
X31888299Y-37339439D01*
X31888290Y-37339444D01*
X31720008Y-37451887D01*
X31720004Y-37451890D01*
X31576891Y-37595003D01*
X31576888Y-37595007D01*
X31464445Y-37763289D01*
X31464440Y-37763298D01*
X31386987Y-37950288D01*
X31386985Y-37950296D01*
X31347501Y-38148795D01*
X19510502Y-38148795D01*
X19510502Y-35900469D01*
X21489501Y-35900469D01*
X21489501Y-36099530D01*
X21528332Y-36294744D01*
X21528334Y-36294752D01*
X21604506Y-36478647D01*
X21604511Y-36478657D01*
X21715094Y-36644155D01*
X21715097Y-36644159D01*
X21855841Y-36784903D01*
X21855845Y-36784906D01*
X22021343Y-36895489D01*
X22021347Y-36895491D01*
X22021350Y-36895493D01*
X22205249Y-36971667D01*
X22400470Y-37010499D01*
X22400473Y-37010500D01*
X22400475Y-37010500D01*
X22599529Y-37010500D01*
X22599530Y-37010499D01*
X22794753Y-36971667D01*
X22978652Y-36895493D01*
X23144157Y-36784906D01*
X23284907Y-36644156D01*
X23395494Y-36478651D01*
X23471668Y-36294752D01*
X23510501Y-36099526D01*
X23510501Y-35900474D01*
X23510501Y-35900471D01*
X23510500Y-35900469D01*
X23490139Y-35798109D01*
X23471668Y-35705248D01*
X23395494Y-35521349D01*
X23395492Y-35521346D01*
X23395490Y-35521342D01*
X23284907Y-35355844D01*
X23284904Y-35355840D01*
X23144160Y-35215096D01*
X23144156Y-35215093D01*
X22978658Y-35104510D01*
X22978648Y-35104505D01*
X22794753Y-35028333D01*
X22794745Y-35028331D01*
X22724333Y-35014325D01*
X22599530Y-34989500D01*
X22599527Y-34989500D01*
X22400475Y-34989500D01*
X22400472Y-34989500D01*
X22205256Y-35028331D01*
X22205248Y-35028333D01*
X22021353Y-35104505D01*
X22021343Y-35104510D01*
X21855845Y-35215093D01*
X21855841Y-35215096D01*
X21715097Y-35355840D01*
X21715094Y-35355844D01*
X21604511Y-35521342D01*
X21604506Y-35521352D01*
X21528334Y-35705247D01*
X21528332Y-35705255D01*
X21489501Y-35900469D01*
X19510502Y-35900469D01*
X19510502Y-34898795D01*
X31347501Y-34898795D01*
X31347501Y-35101204D01*
X31386985Y-35299703D01*
X31386987Y-35299711D01*
X31464440Y-35486701D01*
X31464445Y-35486710D01*
X31576888Y-35654992D01*
X31576891Y-35654996D01*
X31720004Y-35798109D01*
X31720008Y-35798112D01*
X31888290Y-35910555D01*
X31888296Y-35910558D01*
X31888297Y-35910559D01*
X32075290Y-35988014D01*
X32273796Y-36027499D01*
X32273800Y-36027500D01*
X32273801Y-36027500D01*
X32476202Y-36027500D01*
X32476203Y-36027499D01*
X32674712Y-35988014D01*
X32861705Y-35910559D01*
X33029994Y-35798112D01*
X33173113Y-35654993D01*
X33285560Y-35486704D01*
X33363015Y-35299711D01*
X33402501Y-35101200D01*
X33402501Y-34898800D01*
X33363015Y-34700289D01*
X33285560Y-34513296D01*
X33285559Y-34513295D01*
X33285556Y-34513289D01*
X33251018Y-34461599D01*
X33209053Y-34398795D01*
X37067501Y-34398795D01*
X37067501Y-34601204D01*
X37106985Y-34799703D01*
X37106987Y-34799711D01*
X37184440Y-34986701D01*
X37184445Y-34986710D01*
X37296888Y-35154992D01*
X37296891Y-35154996D01*
X37440004Y-35298109D01*
X37440008Y-35298112D01*
X37608290Y-35410555D01*
X37608296Y-35410558D01*
X37608297Y-35410559D01*
X37795290Y-35488014D01*
X37962878Y-35521349D01*
X37993796Y-35527499D01*
X37993800Y-35527500D01*
X37993801Y-35527500D01*
X38196202Y-35527500D01*
X38196203Y-35527499D01*
X38394712Y-35488014D01*
X38581705Y-35410559D01*
X38749994Y-35298112D01*
X38893113Y-35154993D01*
X39005560Y-34986704D01*
X39083015Y-34799711D01*
X39122501Y-34601200D01*
X39122501Y-34398800D01*
X39122500Y-34398795D01*
X40877501Y-34398795D01*
X40877501Y-34601204D01*
X40916985Y-34799703D01*
X40916987Y-34799711D01*
X40994440Y-34986701D01*
X40994445Y-34986710D01*
X41106888Y-35154992D01*
X41106891Y-35154996D01*
X41250004Y-35298109D01*
X41250008Y-35298112D01*
X41418290Y-35410555D01*
X41418296Y-35410558D01*
X41418297Y-35410559D01*
X41605290Y-35488014D01*
X41772878Y-35521349D01*
X41803796Y-35527499D01*
X41803800Y-35527500D01*
X41803801Y-35527500D01*
X42006202Y-35527500D01*
X42006203Y-35527499D01*
X42204712Y-35488014D01*
X42391705Y-35410559D01*
X42559994Y-35298112D01*
X42703113Y-35154993D01*
X42815560Y-34986704D01*
X42851973Y-34898795D01*
X46597501Y-34898795D01*
X46597501Y-35101204D01*
X46636985Y-35299703D01*
X46636987Y-35299711D01*
X46714440Y-35486701D01*
X46714445Y-35486710D01*
X46826888Y-35654992D01*
X46826891Y-35654996D01*
X46970004Y-35798109D01*
X46970008Y-35798112D01*
X47138290Y-35910555D01*
X47138296Y-35910558D01*
X47138297Y-35910559D01*
X47325290Y-35988014D01*
X47523796Y-36027499D01*
X47523800Y-36027500D01*
X47523801Y-36027500D01*
X47726202Y-36027500D01*
X47726203Y-36027499D01*
X47924712Y-35988014D01*
X48111705Y-35910559D01*
X48279994Y-35798112D01*
X48423113Y-35654993D01*
X48535560Y-35486704D01*
X48613015Y-35299711D01*
X48652501Y-35101200D01*
X48652501Y-34898800D01*
X48613015Y-34700289D01*
X48535560Y-34513296D01*
X48535559Y-34513295D01*
X48535556Y-34513289D01*
X48423113Y-34345007D01*
X48423110Y-34345003D01*
X48279997Y-34201890D01*
X48279993Y-34201887D01*
X48183543Y-34137441D01*
X51522501Y-34137441D01*
X51522501Y-35862558D01*
X51529899Y-35899749D01*
X51558078Y-35941922D01*
X51600251Y-35970101D01*
X51600253Y-35970102D01*
X51628206Y-35975662D01*
X51637442Y-35977500D01*
X51637443Y-35977500D01*
X53362560Y-35977500D01*
X53369958Y-35976028D01*
X53399749Y-35970102D01*
X53441923Y-35941922D01*
X53470103Y-35899748D01*
X53477501Y-35862558D01*
X53477501Y-34400469D01*
X55989501Y-34400469D01*
X55989501Y-34599530D01*
X56028332Y-34794744D01*
X56028334Y-34794752D01*
X56104506Y-34978647D01*
X56104511Y-34978657D01*
X56215094Y-35144155D01*
X56215097Y-35144159D01*
X56355841Y-35284903D01*
X56355845Y-35284906D01*
X56521343Y-35395489D01*
X56521347Y-35395491D01*
X56521350Y-35395493D01*
X56705249Y-35471667D01*
X56900470Y-35510499D01*
X56900473Y-35510500D01*
X56900475Y-35510500D01*
X57099529Y-35510500D01*
X57099530Y-35510499D01*
X57294753Y-35471667D01*
X57478652Y-35395493D01*
X57644157Y-35284906D01*
X57784907Y-35144156D01*
X57895494Y-34978651D01*
X57971668Y-34794752D01*
X58010501Y-34599526D01*
X58010501Y-34400474D01*
X58010501Y-34400471D01*
X58010500Y-34400469D01*
X57999467Y-34345003D01*
X57971668Y-34205248D01*
X57895494Y-34021349D01*
X57895492Y-34021346D01*
X57895490Y-34021342D01*
X57784907Y-33855844D01*
X57784904Y-33855840D01*
X57644160Y-33715096D01*
X57644156Y-33715093D01*
X57478658Y-33604510D01*
X57478648Y-33604505D01*
X57294753Y-33528333D01*
X57294745Y-33528331D01*
X57099530Y-33489500D01*
X57099527Y-33489500D01*
X56900475Y-33489500D01*
X56900472Y-33489500D01*
X56705256Y-33528331D01*
X56705248Y-33528333D01*
X56521353Y-33604505D01*
X56521343Y-33604510D01*
X56355845Y-33715093D01*
X56355841Y-33715096D01*
X56215097Y-33855840D01*
X56215094Y-33855844D01*
X56104511Y-34021342D01*
X56104506Y-34021352D01*
X56028334Y-34205247D01*
X56028332Y-34205255D01*
X55989501Y-34400469D01*
X53477501Y-34400469D01*
X53477501Y-34137442D01*
X53470103Y-34100252D01*
X53470102Y-34100250D01*
X53441923Y-34058077D01*
X53399750Y-34029898D01*
X53362560Y-34022500D01*
X53362559Y-34022500D01*
X51637443Y-34022500D01*
X51637442Y-34022500D01*
X51600251Y-34029898D01*
X51558078Y-34058077D01*
X51529899Y-34100250D01*
X51522501Y-34137441D01*
X48183543Y-34137441D01*
X48111711Y-34089444D01*
X48111702Y-34089439D01*
X47924712Y-34011986D01*
X47924704Y-34011984D01*
X47726205Y-33972500D01*
X47726201Y-33972500D01*
X47523801Y-33972500D01*
X47523796Y-33972500D01*
X47325297Y-34011984D01*
X47325289Y-34011986D01*
X47138299Y-34089439D01*
X47138290Y-34089444D01*
X46970008Y-34201887D01*
X46970004Y-34201890D01*
X46826891Y-34345003D01*
X46826888Y-34345007D01*
X46714445Y-34513289D01*
X46714440Y-34513298D01*
X46636987Y-34700288D01*
X46636985Y-34700296D01*
X46597501Y-34898795D01*
X42851973Y-34898795D01*
X42893015Y-34799711D01*
X42932501Y-34601200D01*
X42932501Y-34398800D01*
X42893015Y-34200289D01*
X42822437Y-34029898D01*
X42815561Y-34013298D01*
X42815556Y-34013289D01*
X42703113Y-33845007D01*
X42703110Y-33845003D01*
X42559997Y-33701890D01*
X42559993Y-33701887D01*
X42391711Y-33589444D01*
X42391702Y-33589439D01*
X42204712Y-33511986D01*
X42204704Y-33511984D01*
X42006205Y-33472500D01*
X42006201Y-33472500D01*
X41803801Y-33472500D01*
X41803796Y-33472500D01*
X41605297Y-33511984D01*
X41605289Y-33511986D01*
X41418299Y-33589439D01*
X41418290Y-33589444D01*
X41250008Y-33701887D01*
X41250004Y-33701890D01*
X41106891Y-33845003D01*
X41106888Y-33845007D01*
X40994445Y-34013289D01*
X40994440Y-34013298D01*
X40916987Y-34200288D01*
X40916985Y-34200296D01*
X40877501Y-34398795D01*
X39122500Y-34398795D01*
X39083015Y-34200289D01*
X39012437Y-34029898D01*
X39005561Y-34013298D01*
X39005556Y-34013289D01*
X38893113Y-33845007D01*
X38893110Y-33845003D01*
X38749997Y-33701890D01*
X38749993Y-33701887D01*
X38581711Y-33589444D01*
X38581702Y-33589439D01*
X38394712Y-33511986D01*
X38394704Y-33511984D01*
X38196205Y-33472500D01*
X38196201Y-33472500D01*
X37993801Y-33472500D01*
X37993796Y-33472500D01*
X37795297Y-33511984D01*
X37795289Y-33511986D01*
X37608299Y-33589439D01*
X37608290Y-33589444D01*
X37440008Y-33701887D01*
X37440004Y-33701890D01*
X37296891Y-33845003D01*
X37296888Y-33845007D01*
X37184445Y-34013289D01*
X37184440Y-34013298D01*
X37106987Y-34200288D01*
X37106985Y-34200296D01*
X37067501Y-34398795D01*
X33209053Y-34398795D01*
X33173113Y-34345007D01*
X33173110Y-34345003D01*
X33029997Y-34201890D01*
X33029993Y-34201887D01*
X32861711Y-34089444D01*
X32861702Y-34089439D01*
X32674712Y-34011986D01*
X32674704Y-34011984D01*
X32476205Y-33972500D01*
X32476201Y-33972500D01*
X32273801Y-33972500D01*
X32273796Y-33972500D01*
X32075297Y-34011984D01*
X32075289Y-34011986D01*
X31888299Y-34089439D01*
X31888290Y-34089444D01*
X31720008Y-34201887D01*
X31720004Y-34201890D01*
X31576891Y-34345003D01*
X31576888Y-34345007D01*
X31464445Y-34513289D01*
X31464440Y-34513298D01*
X31386987Y-34700288D01*
X31386985Y-34700296D01*
X31347501Y-34898795D01*
X19510502Y-34898795D01*
X19510502Y-31540078D01*
X26622501Y-31540078D01*
X26622501Y-31769921D01*
X26628873Y-31850890D01*
X26679334Y-32039214D01*
X26679335Y-32039217D01*
X26767849Y-32212935D01*
X26890547Y-32364454D01*
X27042066Y-32487152D01*
X27215784Y-32575666D01*
X27404109Y-32626127D01*
X27485085Y-32632500D01*
X27485093Y-32632500D01*
X28514909Y-32632500D01*
X28514917Y-32632500D01*
X28595893Y-32626127D01*
X28784218Y-32575666D01*
X28957936Y-32487152D01*
X29109455Y-32364454D01*
X29232153Y-32212935D01*
X29320667Y-32039217D01*
X29371128Y-31850892D01*
X29377501Y-31769916D01*
X29377501Y-31540084D01*
X29377501Y-31540078D01*
X34622501Y-31540078D01*
X34622501Y-31769921D01*
X34628873Y-31850890D01*
X34679334Y-32039214D01*
X34679335Y-32039217D01*
X34767849Y-32212935D01*
X34890547Y-32364454D01*
X35042066Y-32487152D01*
X35215784Y-32575666D01*
X35404109Y-32626127D01*
X35485085Y-32632500D01*
X35485093Y-32632500D01*
X36514909Y-32632500D01*
X36514917Y-32632500D01*
X36595893Y-32626127D01*
X36784218Y-32575666D01*
X36957936Y-32487152D01*
X37109455Y-32364454D01*
X37232153Y-32212935D01*
X37320667Y-32039217D01*
X37371128Y-31850892D01*
X37377501Y-31769916D01*
X37377501Y-31540084D01*
X37377501Y-31540078D01*
X42622501Y-31540078D01*
X42622501Y-31769921D01*
X42628873Y-31850890D01*
X42679334Y-32039214D01*
X42679335Y-32039217D01*
X42767849Y-32212935D01*
X42890547Y-32364454D01*
X43042066Y-32487152D01*
X43215784Y-32575666D01*
X43404109Y-32626127D01*
X43485085Y-32632500D01*
X43485093Y-32632500D01*
X44514909Y-32632500D01*
X44514917Y-32632500D01*
X44595893Y-32626127D01*
X44784218Y-32575666D01*
X44957936Y-32487152D01*
X45109455Y-32364454D01*
X45232153Y-32212935D01*
X45320228Y-32040078D01*
X50622501Y-32040078D01*
X50622501Y-32269921D01*
X50628873Y-32350890D01*
X50665383Y-32487148D01*
X50679335Y-32539217D01*
X50767849Y-32712935D01*
X50890547Y-32864454D01*
X51042066Y-32987152D01*
X51215784Y-33075666D01*
X51404109Y-33126127D01*
X51485085Y-33132500D01*
X51485093Y-33132500D01*
X52514909Y-33132500D01*
X52514917Y-33132500D01*
X52595893Y-33126127D01*
X52784218Y-33075666D01*
X52957936Y-32987152D01*
X53109455Y-32864454D01*
X53232153Y-32712935D01*
X53320667Y-32539217D01*
X53371128Y-32350892D01*
X53377501Y-32269916D01*
X53377501Y-32040084D01*
X53371128Y-31959108D01*
X53320667Y-31770783D01*
X53232153Y-31597065D01*
X53109455Y-31445546D01*
X52957936Y-31322848D01*
X52784218Y-31234334D01*
X52784215Y-31234333D01*
X52595891Y-31183872D01*
X52514922Y-31177500D01*
X52514917Y-31177500D01*
X51485085Y-31177500D01*
X51485079Y-31177500D01*
X51404110Y-31183872D01*
X51215786Y-31234333D01*
X51215784Y-31234334D01*
X51042066Y-31322848D01*
X51042064Y-31322849D01*
X51042061Y-31322851D01*
X50890547Y-31445546D01*
X50767852Y-31597060D01*
X50679336Y-31770781D01*
X50679334Y-31770785D01*
X50628873Y-31959109D01*
X50622501Y-32040078D01*
X45320228Y-32040078D01*
X45320667Y-32039217D01*
X45371128Y-31850892D01*
X45377501Y-31769916D01*
X45377501Y-31540084D01*
X45371128Y-31459108D01*
X45320667Y-31270783D01*
X45232153Y-31097065D01*
X45109455Y-30945546D01*
X44957936Y-30822848D01*
X44784218Y-30734334D01*
X44784215Y-30734333D01*
X44595891Y-30683872D01*
X44514922Y-30677500D01*
X44514917Y-30677500D01*
X43485085Y-30677500D01*
X43485079Y-30677500D01*
X43404110Y-30683872D01*
X43215786Y-30734333D01*
X43215784Y-30734334D01*
X43042066Y-30822848D01*
X43042064Y-30822849D01*
X43042061Y-30822851D01*
X42890547Y-30945546D01*
X42767852Y-31097060D01*
X42767850Y-31097063D01*
X42767849Y-31097065D01*
X42698842Y-31232499D01*
X42679336Y-31270781D01*
X42679334Y-31270785D01*
X42628873Y-31459109D01*
X42622501Y-31540078D01*
X37377501Y-31540078D01*
X37371128Y-31459108D01*
X37320667Y-31270783D01*
X37232153Y-31097065D01*
X37109455Y-30945546D01*
X36957936Y-30822848D01*
X36784218Y-30734334D01*
X36784215Y-30734333D01*
X36595891Y-30683872D01*
X36514922Y-30677500D01*
X36514917Y-30677500D01*
X35485085Y-30677500D01*
X35485079Y-30677500D01*
X35404110Y-30683872D01*
X35215786Y-30734333D01*
X35215784Y-30734334D01*
X35042066Y-30822848D01*
X35042064Y-30822849D01*
X35042061Y-30822851D01*
X34890547Y-30945546D01*
X34767852Y-31097060D01*
X34767850Y-31097063D01*
X34767849Y-31097065D01*
X34698842Y-31232499D01*
X34679336Y-31270781D01*
X34679334Y-31270785D01*
X34628873Y-31459109D01*
X34622501Y-31540078D01*
X29377501Y-31540078D01*
X29371128Y-31459108D01*
X29320667Y-31270783D01*
X29232153Y-31097065D01*
X29109455Y-30945546D01*
X28957936Y-30822848D01*
X28784218Y-30734334D01*
X28784215Y-30734333D01*
X28595891Y-30683872D01*
X28514922Y-30677500D01*
X28514917Y-30677500D01*
X27485085Y-30677500D01*
X27485079Y-30677500D01*
X27404110Y-30683872D01*
X27215786Y-30734333D01*
X27215784Y-30734334D01*
X27042066Y-30822848D01*
X27042064Y-30822849D01*
X27042061Y-30822851D01*
X26890547Y-30945546D01*
X26767852Y-31097060D01*
X26767850Y-31097063D01*
X26767849Y-31097065D01*
X26698842Y-31232499D01*
X26679336Y-31270781D01*
X26679334Y-31270785D01*
X26628873Y-31459109D01*
X26622501Y-31540078D01*
X19510502Y-31540078D01*
X19510502Y-28840078D01*
X25272501Y-28840078D01*
X25272501Y-29869921D01*
X25278873Y-29950890D01*
X25278874Y-29950892D01*
X25329335Y-30139217D01*
X25417849Y-30312935D01*
X25540547Y-30464454D01*
X25692066Y-30587152D01*
X25865784Y-30675666D01*
X26054109Y-30726127D01*
X26135085Y-30732500D01*
X26135093Y-30732500D01*
X26364909Y-30732500D01*
X26364917Y-30732500D01*
X26445893Y-30726127D01*
X26634218Y-30675666D01*
X26807936Y-30587152D01*
X26959455Y-30464454D01*
X27082153Y-30312935D01*
X27170667Y-30139217D01*
X27221128Y-29950892D01*
X27227501Y-29869916D01*
X27227501Y-28840084D01*
X27227501Y-28840078D01*
X28772501Y-28840078D01*
X28772501Y-29869921D01*
X28778873Y-29950890D01*
X28778874Y-29950892D01*
X28829335Y-30139217D01*
X28917849Y-30312935D01*
X29040547Y-30464454D01*
X29192066Y-30587152D01*
X29365784Y-30675666D01*
X29554109Y-30726127D01*
X29635085Y-30732500D01*
X29635093Y-30732500D01*
X29864909Y-30732500D01*
X29864917Y-30732500D01*
X29945893Y-30726127D01*
X30134218Y-30675666D01*
X30307936Y-30587152D01*
X30459455Y-30464454D01*
X30582153Y-30312935D01*
X30670667Y-30139217D01*
X30721128Y-29950892D01*
X30727501Y-29869916D01*
X30727501Y-28840084D01*
X30727501Y-28840078D01*
X33272501Y-28840078D01*
X33272501Y-29869921D01*
X33278873Y-29950890D01*
X33278874Y-29950892D01*
X33329335Y-30139217D01*
X33417849Y-30312935D01*
X33540547Y-30464454D01*
X33692066Y-30587152D01*
X33865784Y-30675666D01*
X34054109Y-30726127D01*
X34135085Y-30732500D01*
X34135093Y-30732500D01*
X34364909Y-30732500D01*
X34364917Y-30732500D01*
X34445893Y-30726127D01*
X34634218Y-30675666D01*
X34807936Y-30587152D01*
X34959455Y-30464454D01*
X35082153Y-30312935D01*
X35170667Y-30139217D01*
X35221128Y-29950892D01*
X35227501Y-29869916D01*
X35227501Y-28840084D01*
X35227501Y-28840078D01*
X36772501Y-28840078D01*
X36772501Y-29869921D01*
X36778873Y-29950890D01*
X36778874Y-29950892D01*
X36829335Y-30139217D01*
X36917849Y-30312935D01*
X37040547Y-30464454D01*
X37192066Y-30587152D01*
X37365784Y-30675666D01*
X37554109Y-30726127D01*
X37635085Y-30732500D01*
X37635093Y-30732500D01*
X37864909Y-30732500D01*
X37864917Y-30732500D01*
X37945893Y-30726127D01*
X38134218Y-30675666D01*
X38307936Y-30587152D01*
X38459455Y-30464454D01*
X38582153Y-30312935D01*
X38670667Y-30139217D01*
X38721128Y-29950892D01*
X38727501Y-29869916D01*
X38727501Y-28840084D01*
X38727501Y-28840078D01*
X41272501Y-28840078D01*
X41272501Y-29869921D01*
X41278873Y-29950890D01*
X41278874Y-29950892D01*
X41329335Y-30139217D01*
X41417849Y-30312935D01*
X41540547Y-30464454D01*
X41692066Y-30587152D01*
X41865784Y-30675666D01*
X42054109Y-30726127D01*
X42135085Y-30732500D01*
X42135093Y-30732500D01*
X42364909Y-30732500D01*
X42364917Y-30732500D01*
X42445893Y-30726127D01*
X42634218Y-30675666D01*
X42807936Y-30587152D01*
X42959455Y-30464454D01*
X43082153Y-30312935D01*
X43170667Y-30139217D01*
X43221128Y-29950892D01*
X43227501Y-29869916D01*
X43227501Y-28840084D01*
X43227501Y-28840078D01*
X44772501Y-28840078D01*
X44772501Y-29869921D01*
X44778873Y-29950890D01*
X44778874Y-29950892D01*
X44829335Y-30139217D01*
X44917849Y-30312935D01*
X45040547Y-30464454D01*
X45192066Y-30587152D01*
X45365784Y-30675666D01*
X45554109Y-30726127D01*
X45635085Y-30732500D01*
X45635093Y-30732500D01*
X45864909Y-30732500D01*
X45864917Y-30732500D01*
X45945893Y-30726127D01*
X46134218Y-30675666D01*
X46307936Y-30587152D01*
X46459455Y-30464454D01*
X46582153Y-30312935D01*
X46670667Y-30139217D01*
X46721128Y-29950892D01*
X46727501Y-29869916D01*
X46727501Y-29340078D01*
X49272501Y-29340078D01*
X49272501Y-30369921D01*
X49278873Y-30450890D01*
X49315383Y-30587148D01*
X49329335Y-30639217D01*
X49417849Y-30812935D01*
X49540547Y-30964454D01*
X49692066Y-31087152D01*
X49865784Y-31175666D01*
X50054109Y-31226127D01*
X50135085Y-31232500D01*
X50135093Y-31232500D01*
X50364909Y-31232500D01*
X50364917Y-31232500D01*
X50445893Y-31226127D01*
X50634218Y-31175666D01*
X50807936Y-31087152D01*
X50959455Y-30964454D01*
X51082153Y-30812935D01*
X51170667Y-30639217D01*
X51221128Y-30450892D01*
X51227501Y-30369916D01*
X51227501Y-29340084D01*
X51227501Y-29340078D01*
X52772501Y-29340078D01*
X52772501Y-30369921D01*
X52778873Y-30450890D01*
X52815383Y-30587148D01*
X52829335Y-30639217D01*
X52917849Y-30812935D01*
X53040547Y-30964454D01*
X53192066Y-31087152D01*
X53365784Y-31175666D01*
X53554109Y-31226127D01*
X53635085Y-31232500D01*
X53635093Y-31232500D01*
X53864909Y-31232500D01*
X53864917Y-31232500D01*
X53945893Y-31226127D01*
X54134218Y-31175666D01*
X54307936Y-31087152D01*
X54459455Y-30964454D01*
X54582153Y-30812935D01*
X54670667Y-30639217D01*
X54721128Y-30450892D01*
X54727501Y-30369916D01*
X54727501Y-29340084D01*
X54721128Y-29259108D01*
X54670667Y-29070783D01*
X54582153Y-28897065D01*
X54459455Y-28745546D01*
X54307936Y-28622848D01*
X54134218Y-28534334D01*
X54134215Y-28534333D01*
X53945891Y-28483872D01*
X53864922Y-28477500D01*
X53864917Y-28477500D01*
X53635085Y-28477500D01*
X53635079Y-28477500D01*
X53554110Y-28483872D01*
X53365786Y-28534333D01*
X53365784Y-28534334D01*
X53192066Y-28622848D01*
X53192064Y-28622849D01*
X53192061Y-28622851D01*
X53040547Y-28745546D01*
X52917852Y-28897060D01*
X52829336Y-29070781D01*
X52829334Y-29070785D01*
X52778873Y-29259109D01*
X52772501Y-29340078D01*
X51227501Y-29340078D01*
X51221128Y-29259108D01*
X51170667Y-29070783D01*
X51082153Y-28897065D01*
X50959455Y-28745546D01*
X50807936Y-28622848D01*
X50634218Y-28534334D01*
X50634215Y-28534333D01*
X50445891Y-28483872D01*
X50364922Y-28477500D01*
X50364917Y-28477500D01*
X50135085Y-28477500D01*
X50135079Y-28477500D01*
X50054110Y-28483872D01*
X49865786Y-28534333D01*
X49865784Y-28534334D01*
X49692066Y-28622848D01*
X49692064Y-28622849D01*
X49692061Y-28622851D01*
X49540547Y-28745546D01*
X49417852Y-28897060D01*
X49329336Y-29070781D01*
X49329334Y-29070785D01*
X49278873Y-29259109D01*
X49272501Y-29340078D01*
X46727501Y-29340078D01*
X46727501Y-28840084D01*
X46721128Y-28759108D01*
X46670667Y-28570783D01*
X46582153Y-28397065D01*
X46459455Y-28245546D01*
X46307936Y-28122848D01*
X46134218Y-28034334D01*
X46134215Y-28034333D01*
X45945891Y-27983872D01*
X45864922Y-27977500D01*
X45864917Y-27977500D01*
X45635085Y-27977500D01*
X45635079Y-27977500D01*
X45554110Y-27983872D01*
X45365786Y-28034333D01*
X45365784Y-28034334D01*
X45192066Y-28122848D01*
X45192064Y-28122849D01*
X45192061Y-28122851D01*
X45040547Y-28245546D01*
X44917852Y-28397060D01*
X44917850Y-28397063D01*
X44917849Y-28397065D01*
X44873618Y-28483873D01*
X44829336Y-28570781D01*
X44829334Y-28570785D01*
X44778873Y-28759109D01*
X44772501Y-28840078D01*
X43227501Y-28840078D01*
X43221128Y-28759108D01*
X43170667Y-28570783D01*
X43082153Y-28397065D01*
X42959455Y-28245546D01*
X42807936Y-28122848D01*
X42634218Y-28034334D01*
X42634215Y-28034333D01*
X42445891Y-27983872D01*
X42364922Y-27977500D01*
X42364917Y-27977500D01*
X42135085Y-27977500D01*
X42135079Y-27977500D01*
X42054110Y-27983872D01*
X41865786Y-28034333D01*
X41865784Y-28034334D01*
X41692066Y-28122848D01*
X41692064Y-28122849D01*
X41692061Y-28122851D01*
X41540547Y-28245546D01*
X41417852Y-28397060D01*
X41417850Y-28397063D01*
X41417849Y-28397065D01*
X41373618Y-28483873D01*
X41329336Y-28570781D01*
X41329334Y-28570785D01*
X41278873Y-28759109D01*
X41272501Y-28840078D01*
X38727501Y-28840078D01*
X38721128Y-28759108D01*
X38670667Y-28570783D01*
X38582153Y-28397065D01*
X38459455Y-28245546D01*
X38307936Y-28122848D01*
X38134218Y-28034334D01*
X38134215Y-28034333D01*
X37945891Y-27983872D01*
X37864922Y-27977500D01*
X37864917Y-27977500D01*
X37635085Y-27977500D01*
X37635079Y-27977500D01*
X37554110Y-27983872D01*
X37365786Y-28034333D01*
X37365784Y-28034334D01*
X37192066Y-28122848D01*
X37192064Y-28122849D01*
X37192061Y-28122851D01*
X37040547Y-28245546D01*
X36917852Y-28397060D01*
X36917850Y-28397063D01*
X36917849Y-28397065D01*
X36873618Y-28483873D01*
X36829336Y-28570781D01*
X36829334Y-28570785D01*
X36778873Y-28759109D01*
X36772501Y-28840078D01*
X35227501Y-28840078D01*
X35221128Y-28759108D01*
X35170667Y-28570783D01*
X35082153Y-28397065D01*
X34959455Y-28245546D01*
X34807936Y-28122848D01*
X34634218Y-28034334D01*
X34634215Y-28034333D01*
X34445891Y-27983872D01*
X34364922Y-27977500D01*
X34364917Y-27977500D01*
X34135085Y-27977500D01*
X34135079Y-27977500D01*
X34054110Y-27983872D01*
X33865786Y-28034333D01*
X33865784Y-28034334D01*
X33692066Y-28122848D01*
X33692064Y-28122849D01*
X33692061Y-28122851D01*
X33540547Y-28245546D01*
X33417852Y-28397060D01*
X33417850Y-28397063D01*
X33417849Y-28397065D01*
X33373618Y-28483873D01*
X33329336Y-28570781D01*
X33329334Y-28570785D01*
X33278873Y-28759109D01*
X33272501Y-28840078D01*
X30727501Y-28840078D01*
X30721128Y-28759108D01*
X30670667Y-28570783D01*
X30582153Y-28397065D01*
X30459455Y-28245546D01*
X30307936Y-28122848D01*
X30134218Y-28034334D01*
X30134215Y-28034333D01*
X29945891Y-27983872D01*
X29864922Y-27977500D01*
X29864917Y-27977500D01*
X29635085Y-27977500D01*
X29635079Y-27977500D01*
X29554110Y-27983872D01*
X29365786Y-28034333D01*
X29365784Y-28034334D01*
X29192066Y-28122848D01*
X29192064Y-28122849D01*
X29192061Y-28122851D01*
X29040547Y-28245546D01*
X28917852Y-28397060D01*
X28917850Y-28397063D01*
X28917849Y-28397065D01*
X28873618Y-28483873D01*
X28829336Y-28570781D01*
X28829334Y-28570785D01*
X28778873Y-28759109D01*
X28772501Y-28840078D01*
X27227501Y-28840078D01*
X27221128Y-28759108D01*
X27170667Y-28570783D01*
X27082153Y-28397065D01*
X26959455Y-28245546D01*
X26807936Y-28122848D01*
X26634218Y-28034334D01*
X26634215Y-28034333D01*
X26445891Y-27983872D01*
X26364922Y-27977500D01*
X26364917Y-27977500D01*
X26135085Y-27977500D01*
X26135079Y-27977500D01*
X26054110Y-27983872D01*
X25865786Y-28034333D01*
X25865784Y-28034334D01*
X25692066Y-28122848D01*
X25692064Y-28122849D01*
X25692061Y-28122851D01*
X25540547Y-28245546D01*
X25417852Y-28397060D01*
X25417850Y-28397063D01*
X25417849Y-28397065D01*
X25373618Y-28483873D01*
X25329336Y-28570781D01*
X25329334Y-28570785D01*
X25278873Y-28759109D01*
X25272501Y-28840078D01*
X19510502Y-28840078D01*
X19510502Y-25040078D01*
X26372501Y-25040078D01*
X26372501Y-25269921D01*
X26378873Y-25350890D01*
X26429334Y-25539214D01*
X26429335Y-25539217D01*
X26517849Y-25712935D01*
X26640547Y-25864454D01*
X26792066Y-25987152D01*
X26965784Y-26075666D01*
X27154109Y-26126127D01*
X27235085Y-26132500D01*
X27235093Y-26132500D01*
X27422987Y-26132500D01*
X27490026Y-26152185D01*
X27535781Y-26204989D01*
X27545725Y-26274147D01*
X27516700Y-26337703D01*
X27491878Y-26359602D01*
X27451463Y-26386605D01*
X27331609Y-26506459D01*
X27331606Y-26506463D01*
X27237433Y-26647402D01*
X27237432Y-26647404D01*
X27172570Y-26803996D01*
X27172567Y-26804008D01*
X27139501Y-26970243D01*
X27139501Y-27139756D01*
X27172567Y-27305991D01*
X27172570Y-27306003D01*
X27237432Y-27462595D01*
X27237433Y-27462597D01*
X27331606Y-27603536D01*
X27331609Y-27603540D01*
X27451460Y-27723391D01*
X27451464Y-27723394D01*
X27592401Y-27817566D01*
X27592402Y-27817566D01*
X27592403Y-27817567D01*
X27592405Y-27817568D01*
X27690865Y-27858351D01*
X27749002Y-27882432D01*
X27915244Y-27915499D01*
X27915248Y-27915500D01*
X27915249Y-27915500D01*
X28084754Y-27915500D01*
X28084755Y-27915499D01*
X28251000Y-27882432D01*
X28407601Y-27817566D01*
X28548538Y-27723394D01*
X28668395Y-27603537D01*
X28762567Y-27462600D01*
X28827433Y-27305999D01*
X28860501Y-27139752D01*
X28860501Y-26970248D01*
X28827433Y-26804001D01*
X28786421Y-26704989D01*
X28762569Y-26647404D01*
X28762568Y-26647402D01*
X28748352Y-26626127D01*
X28668395Y-26506463D01*
X28668392Y-26506459D01*
X28548538Y-26386605D01*
X28508124Y-26359602D01*
X28463319Y-26305990D01*
X28454612Y-26236665D01*
X28484766Y-26173638D01*
X28544209Y-26136918D01*
X28577015Y-26132500D01*
X28764909Y-26132500D01*
X28764917Y-26132500D01*
X28845893Y-26126127D01*
X29034218Y-26075666D01*
X29207936Y-25987152D01*
X29359455Y-25864454D01*
X29482153Y-25712935D01*
X29570667Y-25539217D01*
X29621128Y-25350892D01*
X29627501Y-25269916D01*
X29627501Y-25040084D01*
X29627501Y-25040078D01*
X34372501Y-25040078D01*
X34372501Y-25269921D01*
X34378873Y-25350890D01*
X34429334Y-25539214D01*
X34429335Y-25539217D01*
X34517849Y-25712935D01*
X34640547Y-25864454D01*
X34792066Y-25987152D01*
X34965784Y-26075666D01*
X35154109Y-26126127D01*
X35235085Y-26132500D01*
X35235093Y-26132500D01*
X35422987Y-26132500D01*
X35490026Y-26152185D01*
X35535781Y-26204989D01*
X35545725Y-26274147D01*
X35516700Y-26337703D01*
X35491878Y-26359602D01*
X35451463Y-26386605D01*
X35331609Y-26506459D01*
X35331606Y-26506463D01*
X35237433Y-26647402D01*
X35237432Y-26647404D01*
X35172570Y-26803996D01*
X35172567Y-26804008D01*
X35139501Y-26970243D01*
X35139501Y-27139756D01*
X35172567Y-27305991D01*
X35172570Y-27306003D01*
X35237432Y-27462595D01*
X35237433Y-27462597D01*
X35331606Y-27603536D01*
X35331609Y-27603540D01*
X35451460Y-27723391D01*
X35451464Y-27723394D01*
X35592401Y-27817566D01*
X35592402Y-27817566D01*
X35592403Y-27817567D01*
X35592405Y-27817568D01*
X35690865Y-27858351D01*
X35749002Y-27882432D01*
X35915244Y-27915499D01*
X35915248Y-27915500D01*
X35915249Y-27915500D01*
X36084754Y-27915500D01*
X36084755Y-27915499D01*
X36251000Y-27882432D01*
X36407601Y-27817566D01*
X36548538Y-27723394D01*
X36668395Y-27603537D01*
X36762567Y-27462600D01*
X36827433Y-27305999D01*
X36860501Y-27139752D01*
X36860501Y-26970248D01*
X36827433Y-26804001D01*
X36786421Y-26704989D01*
X36762569Y-26647404D01*
X36762568Y-26647402D01*
X36748352Y-26626127D01*
X36668395Y-26506463D01*
X36668392Y-26506459D01*
X36548538Y-26386605D01*
X36508124Y-26359602D01*
X36463319Y-26305990D01*
X36454612Y-26236665D01*
X36484766Y-26173638D01*
X36544209Y-26136918D01*
X36577015Y-26132500D01*
X36764909Y-26132500D01*
X36764917Y-26132500D01*
X36845893Y-26126127D01*
X37034218Y-26075666D01*
X37207936Y-25987152D01*
X37359455Y-25864454D01*
X37482153Y-25712935D01*
X37570667Y-25539217D01*
X37621128Y-25350892D01*
X37627501Y-25269916D01*
X37627501Y-25040084D01*
X37627501Y-25040078D01*
X42372501Y-25040078D01*
X42372501Y-25269921D01*
X42378873Y-25350890D01*
X42429334Y-25539214D01*
X42429335Y-25539217D01*
X42517849Y-25712935D01*
X42640547Y-25864454D01*
X42792066Y-25987152D01*
X42965784Y-26075666D01*
X43154109Y-26126127D01*
X43235085Y-26132500D01*
X43235093Y-26132500D01*
X43422987Y-26132500D01*
X43490026Y-26152185D01*
X43535781Y-26204989D01*
X43545725Y-26274147D01*
X43516700Y-26337703D01*
X43491878Y-26359602D01*
X43451463Y-26386605D01*
X43331609Y-26506459D01*
X43331606Y-26506463D01*
X43237433Y-26647402D01*
X43237432Y-26647404D01*
X43172570Y-26803996D01*
X43172567Y-26804008D01*
X43139501Y-26970243D01*
X43139501Y-27139756D01*
X43172567Y-27305991D01*
X43172570Y-27306003D01*
X43237432Y-27462595D01*
X43237433Y-27462597D01*
X43331606Y-27603536D01*
X43331609Y-27603540D01*
X43451460Y-27723391D01*
X43451464Y-27723394D01*
X43592401Y-27817566D01*
X43592402Y-27817566D01*
X43592403Y-27817567D01*
X43592405Y-27817568D01*
X43690865Y-27858351D01*
X43749002Y-27882432D01*
X43915244Y-27915499D01*
X43915248Y-27915500D01*
X43915249Y-27915500D01*
X44084754Y-27915500D01*
X44084755Y-27915499D01*
X44251000Y-27882432D01*
X44407601Y-27817566D01*
X44548538Y-27723394D01*
X44668395Y-27603537D01*
X44762567Y-27462600D01*
X44827433Y-27305999D01*
X44860501Y-27139752D01*
X44860501Y-26970248D01*
X44827433Y-26804001D01*
X44786421Y-26704989D01*
X44762569Y-26647404D01*
X44762568Y-26647402D01*
X44748352Y-26626127D01*
X44668395Y-26506463D01*
X44668392Y-26506459D01*
X44548538Y-26386605D01*
X44508124Y-26359602D01*
X44463319Y-26305990D01*
X44454612Y-26236665D01*
X44484766Y-26173638D01*
X44544209Y-26136918D01*
X44577015Y-26132500D01*
X44764909Y-26132500D01*
X44764917Y-26132500D01*
X44845893Y-26126127D01*
X45034218Y-26075666D01*
X45207936Y-25987152D01*
X45359455Y-25864454D01*
X45482153Y-25712935D01*
X45570228Y-25540078D01*
X50372501Y-25540078D01*
X50372501Y-25769921D01*
X50378873Y-25850890D01*
X50415383Y-25987148D01*
X50429335Y-26039217D01*
X50517849Y-26212935D01*
X50517851Y-26212938D01*
X50517852Y-26212939D01*
X50537065Y-26236665D01*
X50640547Y-26364454D01*
X50792066Y-26487152D01*
X50965784Y-26575666D01*
X51154109Y-26626127D01*
X51235085Y-26632500D01*
X51235093Y-26632500D01*
X51422987Y-26632500D01*
X51490026Y-26652185D01*
X51535781Y-26704989D01*
X51545725Y-26774147D01*
X51516700Y-26837703D01*
X51491878Y-26859602D01*
X51451463Y-26886605D01*
X51331609Y-27006459D01*
X51331606Y-27006463D01*
X51237433Y-27147402D01*
X51237432Y-27147404D01*
X51172570Y-27303996D01*
X51172567Y-27304008D01*
X51139501Y-27470243D01*
X51139501Y-27639756D01*
X51172567Y-27805991D01*
X51172570Y-27806003D01*
X51237432Y-27962595D01*
X51237433Y-27962597D01*
X51331606Y-28103536D01*
X51331609Y-28103540D01*
X51451460Y-28223391D01*
X51451464Y-28223394D01*
X51592401Y-28317566D01*
X51592402Y-28317566D01*
X51592403Y-28317567D01*
X51592405Y-28317568D01*
X51690865Y-28358351D01*
X51749002Y-28382432D01*
X51915244Y-28415499D01*
X51915248Y-28415500D01*
X51915249Y-28415500D01*
X52084754Y-28415500D01*
X52084755Y-28415499D01*
X52251000Y-28382432D01*
X52407601Y-28317566D01*
X52548538Y-28223394D01*
X52668395Y-28103537D01*
X52762567Y-27962600D01*
X52827433Y-27805999D01*
X52860501Y-27639752D01*
X52860501Y-27470248D01*
X52827433Y-27304001D01*
X52825235Y-27298694D01*
X52762569Y-27147404D01*
X52762568Y-27147402D01*
X52757456Y-27139752D01*
X52668395Y-27006463D01*
X52668392Y-27006459D01*
X52548538Y-26886605D01*
X52508124Y-26859602D01*
X52463319Y-26805990D01*
X52454612Y-26736665D01*
X52484766Y-26673638D01*
X52544209Y-26636918D01*
X52577015Y-26632500D01*
X52764909Y-26632500D01*
X52764917Y-26632500D01*
X52845893Y-26626127D01*
X53034218Y-26575666D01*
X53207936Y-26487152D01*
X53359455Y-26364454D01*
X53482153Y-26212935D01*
X53570667Y-26039217D01*
X53621128Y-25850892D01*
X53627501Y-25769916D01*
X53627501Y-25540084D01*
X53621128Y-25459108D01*
X53570667Y-25270783D01*
X53482153Y-25097065D01*
X53359455Y-24945546D01*
X53207936Y-24822848D01*
X53034218Y-24734334D01*
X53034215Y-24734333D01*
X52845891Y-24683872D01*
X52764922Y-24677500D01*
X52764917Y-24677500D01*
X51235085Y-24677500D01*
X51235079Y-24677500D01*
X51154110Y-24683872D01*
X50965786Y-24734333D01*
X50965784Y-24734334D01*
X50792066Y-24822848D01*
X50792064Y-24822849D01*
X50792061Y-24822851D01*
X50640547Y-24945546D01*
X50517852Y-25097060D01*
X50429336Y-25270781D01*
X50429334Y-25270785D01*
X50378873Y-25459109D01*
X50372501Y-25540078D01*
X45570228Y-25540078D01*
X45570667Y-25539217D01*
X45621128Y-25350892D01*
X45627501Y-25269916D01*
X45627501Y-25040084D01*
X45621128Y-24959108D01*
X45570667Y-24770783D01*
X45482153Y-24597065D01*
X45359455Y-24445546D01*
X45227860Y-24338982D01*
X45207940Y-24322851D01*
X45207939Y-24322850D01*
X45207936Y-24322848D01*
X45034218Y-24234334D01*
X45034215Y-24234333D01*
X44845891Y-24183872D01*
X44764922Y-24177500D01*
X44764917Y-24177500D01*
X43235085Y-24177500D01*
X43235079Y-24177500D01*
X43154110Y-24183872D01*
X42965786Y-24234333D01*
X42965784Y-24234334D01*
X42792066Y-24322848D01*
X42792064Y-24322849D01*
X42792061Y-24322851D01*
X42640547Y-24445546D01*
X42517852Y-24597060D01*
X42517850Y-24597063D01*
X42517849Y-24597065D01*
X42473618Y-24683873D01*
X42429336Y-24770781D01*
X42429334Y-24770785D01*
X42378873Y-24959109D01*
X42372501Y-25040078D01*
X37627501Y-25040078D01*
X37621128Y-24959108D01*
X37570667Y-24770783D01*
X37482153Y-24597065D01*
X37359455Y-24445546D01*
X37227860Y-24338982D01*
X37207940Y-24322851D01*
X37207939Y-24322850D01*
X37207936Y-24322848D01*
X37034218Y-24234334D01*
X37034215Y-24234333D01*
X36845891Y-24183872D01*
X36764922Y-24177500D01*
X36764917Y-24177500D01*
X35235085Y-24177500D01*
X35235079Y-24177500D01*
X35154110Y-24183872D01*
X34965786Y-24234333D01*
X34965784Y-24234334D01*
X34792066Y-24322848D01*
X34792064Y-24322849D01*
X34792061Y-24322851D01*
X34640547Y-24445546D01*
X34517852Y-24597060D01*
X34517850Y-24597063D01*
X34517849Y-24597065D01*
X34473618Y-24683873D01*
X34429336Y-24770781D01*
X34429334Y-24770785D01*
X34378873Y-24959109D01*
X34372501Y-25040078D01*
X29627501Y-25040078D01*
X29621128Y-24959108D01*
X29570667Y-24770783D01*
X29482153Y-24597065D01*
X29359455Y-24445546D01*
X29227860Y-24338982D01*
X29207940Y-24322851D01*
X29207939Y-24322850D01*
X29207936Y-24322848D01*
X29034218Y-24234334D01*
X29034215Y-24234333D01*
X28845891Y-24183872D01*
X28764922Y-24177500D01*
X28764917Y-24177500D01*
X27235085Y-24177500D01*
X27235079Y-24177500D01*
X27154110Y-24183872D01*
X26965786Y-24234333D01*
X26965784Y-24234334D01*
X26792066Y-24322848D01*
X26792064Y-24322849D01*
X26792061Y-24322851D01*
X26640547Y-24445546D01*
X26517852Y-24597060D01*
X26517850Y-24597063D01*
X26517849Y-24597065D01*
X26473618Y-24683873D01*
X26429336Y-24770781D01*
X26429334Y-24770785D01*
X26378873Y-24959109D01*
X26372501Y-25040078D01*
X19510502Y-25040078D01*
X19510502Y-24505389D01*
X19510974Y-24494613D01*
X19524590Y-24338976D01*
X19528341Y-24317704D01*
X19567370Y-24172044D01*
X19574762Y-24151738D01*
X19638485Y-24015085D01*
X19649292Y-23996367D01*
X19735782Y-23872846D01*
X19749670Y-23856294D01*
X19856295Y-23749669D01*
X19872847Y-23735781D01*
X19996369Y-23649290D01*
X20015078Y-23638487D01*
X20151752Y-23574756D01*
X20172038Y-23567372D01*
X20317704Y-23528341D01*
X20338980Y-23524590D01*
X20494629Y-23510972D01*
X20505435Y-23510501D01*
X20554769Y-23510501D01*
X20554772Y-23510499D01*
X58979723Y-23510498D01*
X58979735Y-23510499D01*
X58979747Y-23510498D01*
X58979752Y-23510498D01*
X58994614Y-23510501D01*
G37*
%TD.AperFunction*%
%TD*%
M02*
