M48
; DRILL file {KiCad 8.0.8-8.0.8-0~ubuntu24.04.1} date 2025-03-23T23:28:59+0000
; FORMAT={-:-/ absolute / inch / decimal}
; #@! TF.CreationDate,2025-03-23T23:28:59+00:00
; #@! TF.GenerationSoftware,Kicad,Pcbnew,8.0.8-8.0.8-0~ubuntu24.04.1
; #@! TF.FileFunction,Plated,1,4,PTH
FMAT,2
INCH
; #@! TA.AperFunction,Plated,PTH,ViaDrill
T1C0.0118
; #@! TA.AperFunction,Plated,PTH,ComponentDrill
T2C0.0394
%
G90
G05
T1
X2.0079Y-3.5827
X2.0654Y-3.2189
X2.1457Y-3.4465
X2.2165Y-3.3173
X2.2559Y-3.337
X2.2559Y-3.3606
T2
X1.9094Y-3.0166
X1.9094Y-3.1166
X1.9094Y-3.2166
X1.9094Y-3.3166
X1.9094Y-3.4166
X1.9094Y-3.5166
X1.9094Y-3.6166
X2.3016Y-3.4537
X2.3016Y-3.5537
X2.4016Y-3.4537
X2.4016Y-3.5537
X2.5459Y-3.0166
X2.5459Y-3.1166
X2.5459Y-3.2166
X2.5459Y-3.3166
X2.5459Y-3.4166
X2.5459Y-3.5166
X2.5459Y-3.6166
M30
