%TF.GenerationSoftware,KiCad,Pcbnew,8.0.5-unknown-202409181836~355805756e~ubuntu22.04.1*%
%TF.CreationDate,2024-10-12T17:39:12+01:00*%
%TF.ProjectId,DRY_ELEC_6CH_MID,4452595f-454c-4454-935f-3643485f4d49,1.0*%
%TF.SameCoordinates,Original*%
%TF.FileFunction,Copper,L4,Bot*%
%TF.FilePolarity,Positive*%
%FSLAX46Y46*%
G04 Gerber Fmt 4.6, Leading zero omitted, Abs format (unit mm)*
G04 Created by KiCad (PCBNEW 8.0.5-unknown-202409181836~355805756e~ubuntu22.04.1) date 2024-10-12 17:39:12*
%MOMM*%
%LPD*%
G01*
G04 APERTURE LIST*
%TA.AperFunction,ComponentPad*%
%ADD10C,1.800000*%
%TD*%
G04 APERTURE END LIST*
D10*
%TO.P,J17,1,Pin_1*%
%TO.N,/filtering_1/ELECTRODE*%
X32539999Y-32000000D03*
%TD*%
%TO.P,J21,1,Pin_1*%
%TO.N,/filtering_5/ELECTRODE*%
X22379999Y-32000000D03*
%TD*%
%TO.P,J20,1,Pin_1*%
%TO.N,/filtering_4/ELECTRODE*%
X17299999Y-31400000D03*
%TD*%
%TO.P,J18,1,Pin_1*%
%TO.N,/filtering_2/ELECTRODE*%
X37619999Y-32000000D03*
%TD*%
%TO.P,J22,1,Pin_1*%
%TO.N,/filtering_6/ELECTRODE*%
X27459999Y-32000000D03*
%TD*%
%TO.P,J19,1,Pin_1*%
%TO.N,/filtering_3/ELECTRODE*%
X42699999Y-31400000D03*
%TD*%
%TA.AperFunction,Conductor*%
%TO.N,/filtering_5/ELECTRODE*%
G36*
X24623038Y-25530185D02*
G01*
X24668793Y-25582989D01*
X24679999Y-25634500D01*
X24679999Y-36365500D01*
X24660314Y-36432539D01*
X24607510Y-36478294D01*
X24555999Y-36489500D01*
X20203999Y-36489500D01*
X20136960Y-36469815D01*
X20091205Y-36417011D01*
X20079999Y-36365500D01*
X20079999Y-25634500D01*
X20099684Y-25567461D01*
X20152488Y-25521706D01*
X20203999Y-25510500D01*
X24555999Y-25510500D01*
X24623038Y-25530185D01*
G37*
%TD.AperFunction*%
%TD*%
%TA.AperFunction,Conductor*%
%TO.N,/filtering_3/ELECTRODE*%
G36*
X44005393Y-25510971D02*
G01*
X44161018Y-25524587D01*
X44182296Y-25528338D01*
X44327950Y-25567366D01*
X44348259Y-25574759D01*
X44450050Y-25622224D01*
X44484919Y-25638484D01*
X44503630Y-25649286D01*
X44627148Y-25735774D01*
X44643706Y-25749667D01*
X44750331Y-25856291D01*
X44764225Y-25872850D01*
X44850709Y-25996362D01*
X44861516Y-26015081D01*
X44925240Y-26151739D01*
X44932633Y-26172049D01*
X44971659Y-26317696D01*
X44975412Y-26338982D01*
X44989027Y-26494593D01*
X44989499Y-26505401D01*
X44989499Y-35494587D01*
X44989027Y-35505395D01*
X44975411Y-35661017D01*
X44971658Y-35682303D01*
X44932632Y-35827950D01*
X44925239Y-35848261D01*
X44861516Y-35984915D01*
X44850709Y-36003633D01*
X44764219Y-36127154D01*
X44750325Y-36143712D01*
X44643711Y-36250326D01*
X44627153Y-36264220D01*
X44503631Y-36350711D01*
X44484913Y-36361518D01*
X44348263Y-36425239D01*
X44327951Y-36432632D01*
X44182301Y-36471658D01*
X44161016Y-36475411D01*
X44047747Y-36485321D01*
X44005379Y-36489028D01*
X43994577Y-36489500D01*
X40523999Y-36489500D01*
X40456960Y-36469815D01*
X40411205Y-36417011D01*
X40399999Y-36365500D01*
X40399999Y-25634500D01*
X40419684Y-25567461D01*
X40472488Y-25521706D01*
X40523999Y-25510500D01*
X43994587Y-25510500D01*
X44005393Y-25510971D01*
G37*
%TD.AperFunction*%
%TD*%
%TA.AperFunction,Conductor*%
%TO.N,/filtering_1/ELECTRODE*%
G36*
X34783038Y-25530185D02*
G01*
X34828793Y-25582989D01*
X34839999Y-25634500D01*
X34839999Y-36365500D01*
X34820314Y-36432539D01*
X34767510Y-36478294D01*
X34715999Y-36489500D01*
X30363999Y-36489500D01*
X30296960Y-36469815D01*
X30251205Y-36417011D01*
X30239999Y-36365500D01*
X30239999Y-25634500D01*
X30259684Y-25567461D01*
X30312488Y-25521706D01*
X30363999Y-25510500D01*
X34715999Y-25510500D01*
X34783038Y-25530185D01*
G37*
%TD.AperFunction*%
%TD*%
%TA.AperFunction,Conductor*%
%TO.N,/filtering_4/ELECTRODE*%
G36*
X19543038Y-25530185D02*
G01*
X19588793Y-25582989D01*
X19599999Y-25634500D01*
X19599999Y-36365500D01*
X19580314Y-36432539D01*
X19527510Y-36478294D01*
X19475999Y-36489500D01*
X16005411Y-36489500D01*
X15994605Y-36489028D01*
X15969583Y-36486838D01*
X15838981Y-36475412D01*
X15817695Y-36471659D01*
X15672048Y-36432633D01*
X15651737Y-36425240D01*
X15515083Y-36361517D01*
X15496365Y-36350710D01*
X15372848Y-36264223D01*
X15356290Y-36250329D01*
X15249670Y-36143709D01*
X15235776Y-36127151D01*
X15149289Y-36003633D01*
X15138482Y-35984915D01*
X15074759Y-35848261D01*
X15067366Y-35827950D01*
X15028338Y-35682297D01*
X15024587Y-35661016D01*
X15010971Y-35505384D01*
X15010499Y-35494577D01*
X15010499Y-26505412D01*
X15010971Y-26494605D01*
X15024586Y-26338983D01*
X15028337Y-26317704D01*
X15067366Y-26172044D01*
X15074758Y-26151739D01*
X15112261Y-26071313D01*
X15138485Y-26015074D01*
X15149282Y-25996373D01*
X15235778Y-25872843D01*
X15249661Y-25856297D01*
X15356298Y-25749661D01*
X15372837Y-25735783D01*
X15496369Y-25649284D01*
X15515079Y-25638483D01*
X15651737Y-25574758D01*
X15672043Y-25567366D01*
X15817703Y-25528337D01*
X15838977Y-25524586D01*
X15994593Y-25510971D01*
X16005400Y-25510500D01*
X19475999Y-25510500D01*
X19543038Y-25530185D01*
G37*
%TD.AperFunction*%
%TD*%
%TA.AperFunction,Conductor*%
%TO.N,/filtering_6/ELECTRODE*%
G36*
X29703038Y-25530185D02*
G01*
X29748793Y-25582989D01*
X29759999Y-25634500D01*
X29759999Y-36365500D01*
X29740314Y-36432539D01*
X29687510Y-36478294D01*
X29635999Y-36489500D01*
X25283999Y-36489500D01*
X25216960Y-36469815D01*
X25171205Y-36417011D01*
X25159999Y-36365500D01*
X25159999Y-25634500D01*
X25179684Y-25567461D01*
X25232488Y-25521706D01*
X25283999Y-25510500D01*
X29635999Y-25510500D01*
X29703038Y-25530185D01*
G37*
%TD.AperFunction*%
%TD*%
%TA.AperFunction,Conductor*%
%TO.N,/filtering_2/ELECTRODE*%
G36*
X39863038Y-25530185D02*
G01*
X39908793Y-25582989D01*
X39919999Y-25634500D01*
X39919999Y-36365500D01*
X39900314Y-36432539D01*
X39847510Y-36478294D01*
X39795999Y-36489500D01*
X35443999Y-36489500D01*
X35376960Y-36469815D01*
X35331205Y-36417011D01*
X35319999Y-36365500D01*
X35319999Y-25634500D01*
X35339684Y-25567461D01*
X35392488Y-25521706D01*
X35443999Y-25510500D01*
X39795999Y-25510500D01*
X39863038Y-25530185D01*
G37*
%TD.AperFunction*%
%TD*%
M02*
