%TF.GenerationSoftware,KiCad,Pcbnew,8.0.5-unknown-202409181836~355805756e~ubuntu22.04.1*%
%TF.CreationDate,2024-10-12T17:39:12+01:00*%
%TF.ProjectId,DRY_ELEC_6CH_MID,4452595f-454c-4454-935f-3643485f4d49,1.0*%
%TF.SameCoordinates,Original*%
%TF.FileFunction,Copper,L1,Top*%
%TF.FilePolarity,Positive*%
%FSLAX46Y46*%
G04 Gerber Fmt 4.6, Leading zero omitted, Abs format (unit mm)*
G04 Created by KiCad (PCBNEW 8.0.5-unknown-202409181836~355805756e~ubuntu22.04.1) date 2024-10-12 17:39:12*
%MOMM*%
%LPD*%
G01*
G04 APERTURE LIST*
G04 Aperture macros list*
%AMRoundRect*
0 Rectangle with rounded corners*
0 $1 Rounding radius*
0 $2 $3 $4 $5 $6 $7 $8 $9 X,Y pos of 4 corners*
0 Add a 4 corners polygon primitive as box body*
4,1,4,$2,$3,$4,$5,$6,$7,$8,$9,$2,$3,0*
0 Add four circle primitives for the rounded corners*
1,1,$1+$1,$2,$3*
1,1,$1+$1,$4,$5*
1,1,$1+$1,$6,$7*
1,1,$1+$1,$8,$9*
0 Add four rect primitives between the rounded corners*
20,1,$1+$1,$2,$3,$4,$5,0*
20,1,$1+$1,$4,$5,$6,$7,0*
20,1,$1+$1,$6,$7,$8,$9,0*
20,1,$1+$1,$8,$9,$2,$3,0*%
%AMFreePoly0*
4,1,13,0.345671,0.480970,0.426777,0.426777,0.480970,0.345671,0.500000,0.250000,0.500000,-0.900000,-0.500000,-0.900000,-0.500000,0.250000,-0.480970,0.345671,-0.426777,0.426777,-0.345671,0.480970,-0.250000,0.500000,0.250000,0.500000,0.345671,0.480970,0.345671,0.480970,$1*%
%AMFreePoly1*
4,1,19,0.500000,-0.750000,0.000000,-0.750000,0.000000,-0.744911,-0.071157,-0.744911,-0.207708,-0.704816,-0.327430,-0.627875,-0.420627,-0.520320,-0.479746,-0.390866,-0.500000,-0.250000,-0.500000,0.250000,-0.479746,0.390866,-0.420627,0.520320,-0.327430,0.627875,-0.207708,0.704816,-0.071157,0.744911,0.000000,0.744911,0.000000,0.750000,0.500000,0.750000,0.500000,-0.750000,0.500000,-0.750000,
$1*%
%AMFreePoly2*
4,1,19,0.000000,0.744911,0.071157,0.744911,0.207708,0.704816,0.327430,0.627875,0.420627,0.520320,0.479746,0.390866,0.500000,0.250000,0.500000,-0.250000,0.479746,-0.390866,0.420627,-0.520320,0.327430,-0.627875,0.207708,-0.704816,0.071157,-0.744911,0.000000,-0.744911,0.000000,-0.750000,-0.500000,-0.750000,-0.500000,0.750000,0.000000,0.750000,0.000000,0.744911,0.000000,0.744911,
$1*%
G04 Aperture macros list end*
%TA.AperFunction,NonConductor*%
%ADD10C,0.000000*%
%TD*%
%TA.AperFunction,EtchedComponent*%
%ADD11C,0.000000*%
%TD*%
%TA.AperFunction,SMDPad,CuDef*%
%ADD12FreePoly0,180.000000*%
%TD*%
%TA.AperFunction,SMDPad,CuDef*%
%ADD13FreePoly0,0.000000*%
%TD*%
%TA.AperFunction,SMDPad,CuDef*%
%ADD14RoundRect,0.140000X0.170000X-0.140000X0.170000X0.140000X-0.170000X0.140000X-0.170000X-0.140000X0*%
%TD*%
%TA.AperFunction,SMDPad,CuDef*%
%ADD15RoundRect,0.160000X0.160000X-0.197500X0.160000X0.197500X-0.160000X0.197500X-0.160000X-0.197500X0*%
%TD*%
%TA.AperFunction,SMDPad,CuDef*%
%ADD16FreePoly1,180.000000*%
%TD*%
%TA.AperFunction,SMDPad,CuDef*%
%ADD17FreePoly2,180.000000*%
%TD*%
%TA.AperFunction,ComponentPad*%
%ADD18C,1.800000*%
%TD*%
%TA.AperFunction,SMDPad,CuDef*%
%ADD19FreePoly1,0.000000*%
%TD*%
%TA.AperFunction,SMDPad,CuDef*%
%ADD20FreePoly2,0.000000*%
%TD*%
%TA.AperFunction,SMDPad,CuDef*%
%ADD21FreePoly1,90.000000*%
%TD*%
%TA.AperFunction,SMDPad,CuDef*%
%ADD22FreePoly2,90.000000*%
%TD*%
%TA.AperFunction,Conductor*%
%ADD23C,0.127000*%
%TD*%
G04 APERTURE END LIST*
%TA.AperFunction,Conductor*%
%TO.N,/IN3*%
G36*
X30135000Y-27700000D02*
G01*
X31135000Y-27700000D01*
X31135000Y-28300000D01*
X30135000Y-28300000D01*
X30135000Y-27700000D01*
G37*
%TD.AperFunction*%
D10*
%TA.AperFunction,NonConductor*%
G36*
X30999999Y-32700000D02*
G01*
X32599999Y-34300000D01*
X32599999Y-36400000D01*
X27399999Y-36400000D01*
X27399999Y-34300000D01*
X28999999Y-32700000D01*
X28999999Y-29900000D01*
X30999999Y-29900000D01*
X30999999Y-32700000D01*
G37*
%TD.AperFunction*%
%TA.AperFunction,Conductor*%
%TO.N,GND*%
G36*
X25055000Y-27700000D02*
G01*
X26055000Y-27700000D01*
X26055000Y-28300000D01*
X25055000Y-28300000D01*
X25055000Y-27700000D01*
G37*
%TD.AperFunction*%
%TA.AperFunction,Conductor*%
%TO.N,/IN1*%
G36*
X33945000Y-27700000D02*
G01*
X34945000Y-27700000D01*
X34945000Y-28300000D01*
X33945000Y-28300000D01*
X33945000Y-27700000D01*
G37*
%TD.AperFunction*%
%TA.AperFunction,Conductor*%
%TO.N,/IN4*%
G36*
X28865000Y-27700000D02*
G01*
X29865000Y-27700000D01*
X29865000Y-28300000D01*
X28865000Y-28300000D01*
X28865000Y-27700000D01*
G37*
%TD.AperFunction*%
%TA.AperFunction,Conductor*%
%TO.N,/IN2*%
G36*
X31405000Y-27700000D02*
G01*
X32405000Y-27700000D01*
X32405000Y-28300000D01*
X31405000Y-28300000D01*
X31405000Y-27700000D01*
G37*
%TD.AperFunction*%
%TA.AperFunction,Conductor*%
%TO.N,/IN1*%
G36*
X32675000Y-27700000D02*
G01*
X33675000Y-27700000D01*
X33675000Y-28300000D01*
X32675000Y-28300000D01*
X32675000Y-27700000D01*
G37*
%TD.AperFunction*%
%TA.AperFunction,Conductor*%
%TO.N,/IN5*%
G36*
X27595000Y-27700000D02*
G01*
X28595000Y-27700000D01*
X28595000Y-28300000D01*
X27595000Y-28300000D01*
X27595000Y-27700000D01*
G37*
%TD.AperFunction*%
%TA.AperFunction,Conductor*%
%TO.N,/IN6*%
G36*
X26325000Y-27700000D02*
G01*
X27325000Y-27700000D01*
X27325000Y-28300000D01*
X26325000Y-28300000D01*
X26325000Y-27700000D01*
G37*
%TD.AperFunction*%
D11*
%TA.AperFunction,EtchedComponent*%
%TD*%
%TO.C,JP2*%
G36*
X36449999Y-33400000D02*
G01*
X35949999Y-33400000D01*
X35949999Y-32800000D01*
X36449999Y-32800000D01*
X36449999Y-33400000D01*
G37*
%TD.AperFunction*%
%TA.AperFunction,EtchedComponent*%
%TO.C,JP5*%
G36*
X24049999Y-33400000D02*
G01*
X23549999Y-33400000D01*
X23549999Y-32800000D01*
X24049999Y-32800000D01*
X24049999Y-33400000D01*
G37*
%TD.AperFunction*%
%TA.AperFunction,EtchedComponent*%
%TO.C,JP3*%
G36*
X41149999Y-32300000D02*
G01*
X40649999Y-32300000D01*
X40649999Y-31700000D01*
X41149999Y-31700000D01*
X41149999Y-32300000D01*
G37*
%TD.AperFunction*%
%TA.AperFunction,EtchedComponent*%
%TO.C,JP6*%
G36*
X26099999Y-31550000D02*
G01*
X25499999Y-31550000D01*
X25499999Y-31050000D01*
X26099999Y-31050000D01*
X26099999Y-31550000D01*
G37*
%TD.AperFunction*%
%TA.AperFunction,EtchedComponent*%
%TO.C,JP1*%
G36*
X34399999Y-31550000D02*
G01*
X33799999Y-31550000D01*
X33799999Y-31050000D01*
X34399999Y-31050000D01*
X34399999Y-31550000D01*
G37*
%TD.AperFunction*%
%TA.AperFunction,EtchedComponent*%
%TO.C,JP4*%
G36*
X19449999Y-31900000D02*
G01*
X18949999Y-31900000D01*
X18949999Y-31300000D01*
X19449999Y-31300000D01*
X19449999Y-31900000D01*
G37*
%TD.AperFunction*%
%TD*%
D12*
%TO.P,J14,1,Pin_1*%
%TO.N,/IN2*%
X31905000Y-29200000D03*
%TD*%
D13*
%TO.P,J4,1,Pin_1*%
%TO.N,/IN4*%
X29365000Y-26800000D03*
%TD*%
D14*
%TO.P,C9,1*%
%TO.N,Net-(C9-Pad1)*%
X18499999Y-27580000D03*
%TO.P,C9,2*%
%TO.N,GND*%
X18499999Y-26620000D03*
%TD*%
D15*
%TO.P,R6,1*%
%TO.N,Net-(C5-Pad1)*%
X42499999Y-29797500D03*
%TO.P,R6,2*%
%TO.N,/IN3*%
X42499999Y-28602500D03*
%TD*%
D14*
%TO.P,C2,1*%
%TO.N,/IN1*%
X38499999Y-27580000D03*
%TO.P,C2,2*%
%TO.N,GND*%
X38499999Y-26620000D03*
%TD*%
D16*
%TO.P,JP2,1,A*%
%TO.N,/filtering_2/ELECTRODE*%
X36849998Y-33100000D03*
D17*
%TO.P,JP2,2,B*%
%TO.N,/IN2*%
X35550000Y-33100000D03*
%TD*%
D12*
%TO.P,J9,1,Pin_1*%
%TO.N,GND*%
X25555000Y-29200000D03*
%TD*%
D14*
%TO.P,C5,1*%
%TO.N,Net-(C5-Pad1)*%
X43499999Y-27580000D03*
%TO.P,C5,2*%
%TO.N,GND*%
X43499999Y-26620000D03*
%TD*%
D13*
%TO.P,J2,1,Pin_1*%
%TO.N,/IN6*%
X26825000Y-26800000D03*
%TD*%
D14*
%TO.P,C8,1*%
%TO.N,/IN4*%
X17499999Y-27580000D03*
%TO.P,C8,2*%
%TO.N,GND*%
X17499999Y-26620000D03*
%TD*%
D18*
%TO.P,J17,1,Pin_1*%
%TO.N,/filtering_1/ELECTRODE*%
X32539999Y-32000000D03*
%TD*%
D15*
%TO.P,R7,1*%
%TO.N,/filtering_4/ELECTRODE*%
X16499999Y-29797500D03*
%TO.P,R7,2*%
%TO.N,Net-(C7-Pad1)*%
X16499999Y-28602500D03*
%TD*%
D18*
%TO.P,J21,1,Pin_1*%
%TO.N,/filtering_5/ELECTRODE*%
X22379999Y-32000000D03*
%TD*%
D15*
%TO.P,R12,1*%
%TO.N,Net-(C11-Pad1)*%
X21499999Y-29797500D03*
%TO.P,R12,2*%
%TO.N,/IN6*%
X21499999Y-28602500D03*
%TD*%
D14*
%TO.P,C4,1*%
%TO.N,/IN2*%
X40499999Y-27580000D03*
%TO.P,C4,2*%
%TO.N,GND*%
X40499999Y-26620000D03*
%TD*%
D12*
%TO.P,J12,1,Pin_1*%
%TO.N,/IN4*%
X29365000Y-29200000D03*
%TD*%
D19*
%TO.P,JP5,1,A*%
%TO.N,/filtering_5/ELECTRODE*%
X23150000Y-33100000D03*
D20*
%TO.P,JP5,2,B*%
%TO.N,/IN5*%
X24449998Y-33100000D03*
%TD*%
D15*
%TO.P,R9,1*%
%TO.N,/filtering_5/ELECTRODE*%
X18499999Y-29797500D03*
%TO.P,R9,2*%
%TO.N,Net-(C9-Pad1)*%
X18499999Y-28602500D03*
%TD*%
D12*
%TO.P,J13,1,Pin_1*%
%TO.N,/IN3*%
X30635000Y-29200000D03*
%TD*%
%TO.P,J16,1,Pin_1*%
%TO.N,/IN1*%
X34445000Y-29200000D03*
%TD*%
D14*
%TO.P,C1,1*%
%TO.N,Net-(C1-Pad1)*%
X39499999Y-27580000D03*
%TO.P,C1,2*%
%TO.N,GND*%
X39499999Y-26620000D03*
%TD*%
D15*
%TO.P,R11,1*%
%TO.N,/filtering_6/ELECTRODE*%
X20499999Y-29797500D03*
%TO.P,R11,2*%
%TO.N,Net-(C11-Pad1)*%
X20499999Y-28602500D03*
%TD*%
%TO.P,R10,1*%
%TO.N,Net-(C9-Pad1)*%
X19499999Y-29797500D03*
%TO.P,R10,2*%
%TO.N,/IN5*%
X19499999Y-28602500D03*
%TD*%
D14*
%TO.P,C6,1*%
%TO.N,/IN3*%
X42499999Y-27580000D03*
%TO.P,C6,2*%
%TO.N,GND*%
X42499999Y-26620000D03*
%TD*%
D15*
%TO.P,R2,1*%
%TO.N,Net-(C1-Pad1)*%
X38499999Y-29797500D03*
%TO.P,R2,2*%
%TO.N,/IN1*%
X38499999Y-28602500D03*
%TD*%
%TO.P,R4,1*%
%TO.N,Net-(C3-Pad1)*%
X40499999Y-29797500D03*
%TO.P,R4,2*%
%TO.N,/IN2*%
X40499999Y-28602500D03*
%TD*%
D13*
%TO.P,J1,1,Pin_1*%
%TO.N,GND*%
X25555000Y-26800000D03*
%TD*%
D14*
%TO.P,C7,1*%
%TO.N,Net-(C7-Pad1)*%
X16499999Y-27580000D03*
%TO.P,C7,2*%
%TO.N,GND*%
X16499999Y-26620000D03*
%TD*%
%TO.P,C3,1*%
%TO.N,Net-(C3-Pad1)*%
X41499999Y-27582500D03*
%TO.P,C3,2*%
%TO.N,GND*%
X41499999Y-26622500D03*
%TD*%
D15*
%TO.P,R1,1*%
%TO.N,/filtering_1/ELECTRODE*%
X39499999Y-29797500D03*
%TO.P,R1,2*%
%TO.N,Net-(C1-Pad1)*%
X39499999Y-28602500D03*
%TD*%
D12*
%TO.P,J10,1,Pin_1*%
%TO.N,/IN6*%
X26825000Y-29200000D03*
%TD*%
%TO.P,J15,1,Pin_1*%
%TO.N,/IN1*%
X33175000Y-29200000D03*
%TD*%
D15*
%TO.P,R8,1*%
%TO.N,Net-(C7-Pad1)*%
X17499999Y-29797500D03*
%TO.P,R8,2*%
%TO.N,/IN4*%
X17499999Y-28602500D03*
%TD*%
D18*
%TO.P,J20,1,Pin_1*%
%TO.N,/filtering_4/ELECTRODE*%
X17299999Y-31400000D03*
%TD*%
D14*
%TO.P,C11,1*%
%TO.N,Net-(C11-Pad1)*%
X20499999Y-27580000D03*
%TO.P,C11,2*%
%TO.N,GND*%
X20499999Y-26620000D03*
%TD*%
D13*
%TO.P,J5,1,Pin_1*%
%TO.N,/IN3*%
X30635000Y-26800000D03*
%TD*%
D14*
%TO.P,C12,1*%
%TO.N,/IN6*%
X21499999Y-27580000D03*
%TO.P,C12,2*%
%TO.N,GND*%
X21499999Y-26620000D03*
%TD*%
D13*
%TO.P,J7,1,Pin_1*%
%TO.N,/IN1*%
X33175000Y-26800000D03*
%TD*%
D16*
%TO.P,JP3,1,A*%
%TO.N,/filtering_3/ELECTRODE*%
X41549998Y-32000000D03*
D17*
%TO.P,JP3,2,B*%
%TO.N,/IN3*%
X40250000Y-32000000D03*
%TD*%
D13*
%TO.P,J3,1,Pin_1*%
%TO.N,/IN5*%
X28095000Y-26800000D03*
%TD*%
D18*
%TO.P,J18,1,Pin_1*%
%TO.N,/filtering_2/ELECTRODE*%
X37619999Y-32000000D03*
%TD*%
D14*
%TO.P,C10,1*%
%TO.N,/IN5*%
X19499999Y-27580000D03*
%TO.P,C10,2*%
%TO.N,GND*%
X19499999Y-26620000D03*
%TD*%
D18*
%TO.P,J22,1,Pin_1*%
%TO.N,/filtering_6/ELECTRODE*%
X27459999Y-32000000D03*
%TD*%
D15*
%TO.P,R3,1*%
%TO.N,/filtering_2/ELECTRODE*%
X41499999Y-29800000D03*
%TO.P,R3,2*%
%TO.N,Net-(C3-Pad1)*%
X41499999Y-28605000D03*
%TD*%
D18*
%TO.P,J19,1,Pin_1*%
%TO.N,/filtering_3/ELECTRODE*%
X42699999Y-31400000D03*
%TD*%
D12*
%TO.P,J11,1,Pin_1*%
%TO.N,/IN5*%
X28095000Y-29200000D03*
%TD*%
D21*
%TO.P,JP6,1,A*%
%TO.N,/filtering_6/ELECTRODE*%
X25799999Y-31949999D03*
D22*
%TO.P,JP6,2,B*%
%TO.N,/IN6*%
X25799999Y-30650001D03*
%TD*%
D13*
%TO.P,J6,1,Pin_1*%
%TO.N,/IN2*%
X31905000Y-26800000D03*
%TD*%
%TO.P,J8,1,Pin_1*%
%TO.N,/IN1*%
X34445000Y-26800000D03*
%TD*%
D21*
%TO.P,JP1,1,A*%
%TO.N,/filtering_1/ELECTRODE*%
X34099999Y-31949999D03*
D22*
%TO.P,JP1,2,B*%
%TO.N,/IN1*%
X34099999Y-30650001D03*
%TD*%
D19*
%TO.P,JP4,1,A*%
%TO.N,/filtering_4/ELECTRODE*%
X18550000Y-31600000D03*
D20*
%TO.P,JP4,2,B*%
%TO.N,/IN4*%
X19849998Y-31600000D03*
%TD*%
D15*
%TO.P,R5,1*%
%TO.N,/filtering_3/ELECTRODE*%
X43499999Y-29797500D03*
%TO.P,R5,2*%
%TO.N,Net-(C5-Pad1)*%
X43499999Y-28602500D03*
%TD*%
D23*
%TO.N,/IN6*%
X26825000Y-29774999D02*
X26199999Y-30400000D01*
X21499999Y-28602500D02*
X21499999Y-27580000D01*
X21801249Y-28602500D02*
X21499999Y-28602500D01*
X23598749Y-30400000D02*
X21801249Y-28602500D01*
X26825000Y-26800000D02*
X26825000Y-29200000D01*
X26199999Y-30400000D02*
X23598749Y-30400000D01*
X26825000Y-29774999D02*
X26825000Y-29200000D01*
%TO.N,/IN5*%
X20597209Y-30700000D02*
X22799999Y-30700000D01*
X20026499Y-29129000D02*
X20026499Y-30129290D01*
X19499999Y-28602500D02*
X20026499Y-29129000D01*
X28095000Y-26800000D02*
X28095000Y-29200000D01*
X22799999Y-30700000D02*
X24749998Y-32649999D01*
X28555000Y-29660000D02*
X28095000Y-29200000D01*
X28555000Y-32430000D02*
X28555000Y-29660000D01*
X24749998Y-32649999D02*
X24749998Y-33300000D01*
X24749998Y-33300000D02*
X27685000Y-33300000D01*
X27685000Y-33300000D02*
X28555000Y-32430000D01*
X19499999Y-28602500D02*
X19499999Y-27580000D01*
X20026499Y-30129290D02*
X20597209Y-30700000D01*
%TO.N,/IN4*%
X18316999Y-30617000D02*
X19216999Y-30617000D01*
X19599999Y-31000000D02*
X19599999Y-32400000D01*
X19216999Y-30617000D02*
X19599999Y-31000000D01*
X17973499Y-29076000D02*
X17973499Y-30273500D01*
X17499999Y-28602500D02*
X17973499Y-29076000D01*
X29365000Y-26800000D02*
X29365000Y-29200000D01*
X28805000Y-32500000D02*
X28805000Y-29760000D01*
X17973499Y-30273500D02*
X18316999Y-30617000D01*
X17499999Y-28602500D02*
X17499999Y-27580000D01*
X27205000Y-34100000D02*
X28805000Y-32500000D01*
X21299999Y-34100000D02*
X27205000Y-34100000D01*
X28805000Y-29760000D02*
X29365000Y-29200000D01*
X19599999Y-32400000D02*
X21299999Y-34100000D01*
%TO.N,/IN3*%
X30635000Y-26800000D02*
X30635000Y-29200000D01*
X30635000Y-29200000D02*
X31208000Y-29773000D01*
X31208000Y-32563000D02*
X32745000Y-34100000D01*
X40999999Y-30700000D02*
X40250000Y-31449999D01*
X31208000Y-29773000D02*
X31208000Y-32563000D01*
X42499999Y-27580000D02*
X42499999Y-28602500D01*
X42026499Y-29076000D02*
X42026499Y-30276145D01*
X38150000Y-34100000D02*
X40250000Y-32000000D01*
X42026499Y-30276145D02*
X41602644Y-30700000D01*
X41602644Y-30700000D02*
X40999999Y-30700000D01*
X42499999Y-28602500D02*
X42026499Y-29076000D01*
X40250000Y-31449999D02*
X40250000Y-32000000D01*
X32745000Y-34100000D02*
X38150000Y-34100000D01*
%TO.N,/IN2*%
X35550000Y-32456883D02*
X35550000Y-33100000D01*
X35450000Y-33200000D02*
X32185000Y-33200000D01*
X32185000Y-33200000D02*
X31425000Y-32440000D01*
X40026499Y-29173500D02*
X40026499Y-30373500D01*
X31905000Y-26800000D02*
X31905000Y-29200000D01*
X37106883Y-30900000D02*
X35550000Y-32456883D01*
X35550000Y-33100000D02*
X35450000Y-33200000D01*
X40499999Y-28700000D02*
X40026499Y-29173500D01*
X40026499Y-30373500D02*
X39499999Y-30900000D01*
X40499999Y-28602500D02*
X40499999Y-28700000D01*
X31425000Y-29680000D02*
X31905000Y-29200000D01*
X40499999Y-27580000D02*
X40499999Y-28602500D01*
X31425000Y-32440000D02*
X31425000Y-29680000D01*
X39499999Y-30900000D02*
X37106883Y-30900000D01*
%TO.N,/IN1*%
X34299999Y-30650001D02*
X34299999Y-29410001D01*
X33175000Y-29200000D02*
X34380000Y-29200000D01*
X34380000Y-29200000D02*
X34445000Y-29265000D01*
X34445000Y-26865000D02*
X34445000Y-29265000D01*
X34299999Y-29410001D02*
X34445000Y-29265000D01*
X34445000Y-26865000D02*
X33240000Y-26865000D01*
X37837499Y-29265000D02*
X38499999Y-28602500D01*
X33175000Y-26800000D02*
X33175000Y-29200000D01*
X34445000Y-29265000D02*
X37837499Y-29265000D01*
X38499999Y-27580000D02*
X38499999Y-28602500D01*
X33240000Y-26865000D02*
X33175000Y-26800000D01*
%TO.N,Net-(C1-Pad1)*%
X39499999Y-28797500D02*
X38499999Y-29797500D01*
X39499999Y-27580000D02*
X39499999Y-28602500D01*
X39499999Y-28602500D02*
X39499999Y-28797500D01*
%TO.N,Net-(C3-Pad1)*%
X41499999Y-27582500D02*
X41499999Y-28605000D01*
X41499999Y-28797500D02*
X40499999Y-29797500D01*
X41499999Y-28605000D02*
X41499999Y-28797500D01*
%TO.N,GND*%
X16499999Y-26620000D02*
X17499999Y-26620000D01*
X20499999Y-26620000D02*
X21499999Y-26620000D01*
X38499999Y-26620000D02*
X43499999Y-26620000D01*
X18499999Y-26620000D02*
X19499999Y-26620000D01*
%TO.N,Net-(C5-Pad1)*%
X43499999Y-28797500D02*
X42499999Y-29797500D01*
X43499999Y-28602500D02*
X43499999Y-28797500D01*
X43499999Y-27580000D02*
X43499999Y-28602500D01*
%TO.N,Net-(C7-Pad1)*%
X16499999Y-27580000D02*
X16499999Y-28602500D01*
X16499999Y-28797500D02*
X17499999Y-29797500D01*
X16499999Y-28602500D02*
X16499999Y-28797500D01*
%TO.N,Net-(C9-Pad1)*%
X18499999Y-28602500D02*
X19499999Y-29602500D01*
X18499999Y-28602500D02*
X18499999Y-27580000D01*
X19499999Y-29602500D02*
X19499999Y-29797500D01*
%TO.N,Net-(C11-Pad1)*%
X20499999Y-28797500D02*
X21499999Y-29797500D01*
X20499999Y-28602500D02*
X20499999Y-27580000D01*
X20499999Y-28602500D02*
X20499999Y-28797500D01*
%TO.N,/filtering_1/ELECTRODE*%
X35250000Y-31949999D02*
X34299999Y-31949999D01*
X38797499Y-30500000D02*
X36699999Y-30500000D01*
X39499999Y-29797500D02*
X38797499Y-30500000D01*
X34299999Y-31949999D02*
X32590000Y-31949999D01*
X36699999Y-30500000D02*
X35250000Y-31949999D01*
X32590000Y-31949999D02*
X32539999Y-32000000D01*
%TO.N,/filtering_2/ELECTRODE*%
X40099999Y-30800000D02*
X40499999Y-30800000D01*
X37619999Y-32000000D02*
X38899999Y-32000000D01*
X40499999Y-30800000D02*
X41499999Y-29800000D01*
X38899999Y-32000000D02*
X40099999Y-30800000D01*
%TO.N,/filtering_3/ELECTRODE*%
X43499999Y-29797500D02*
X43499999Y-30600000D01*
X43499999Y-30600000D02*
X42699999Y-31400000D01*
%TO.N,/filtering_4/ELECTRODE*%
X16499999Y-29797500D02*
X17299999Y-30597500D01*
X17299999Y-31400000D02*
X17699999Y-31800000D01*
X17699999Y-31800000D02*
X18750000Y-31800000D01*
X17299999Y-30597500D02*
X17299999Y-31400000D01*
%TO.N,/filtering_5/ELECTRODE*%
X19899999Y-30400000D02*
X19102499Y-30400000D01*
X22379999Y-32020000D02*
X21519999Y-32020000D01*
X22379999Y-32000000D02*
X22379999Y-32020000D01*
X19102499Y-30400000D02*
X18499999Y-29797500D01*
X21519999Y-32020000D02*
X19899999Y-30400000D01*
X23450000Y-33100000D02*
X23450000Y-33070001D01*
X23450000Y-33070001D02*
X22379999Y-32000000D01*
%TO.N,/filtering_6/ELECTRODE*%
X25699999Y-31949999D02*
X25536410Y-31786410D01*
X22999999Y-30400000D02*
X21102499Y-30400000D01*
X25536410Y-31786410D02*
X24386409Y-31786410D01*
X21102499Y-30400000D02*
X20499999Y-29797500D01*
X24386409Y-31786410D02*
X22999999Y-30400000D01*
X27409998Y-31949999D02*
X25699999Y-31949999D01*
X27459999Y-32000000D02*
X27409998Y-31949999D01*
%TD*%
%TA.AperFunction,Conductor*%
%TO.N,GND*%
G36*
X25805000Y-28300000D02*
G01*
X25305000Y-28300000D01*
X25305000Y-27700000D01*
X25805000Y-27700000D01*
X25805000Y-28300000D01*
G37*
%TD.AperFunction*%
%TD*%
%TA.AperFunction,Conductor*%
%TO.N,GND*%
G36*
X44005393Y-25510971D02*
G01*
X44161018Y-25524587D01*
X44182296Y-25528338D01*
X44327950Y-25567366D01*
X44348259Y-25574759D01*
X44450050Y-25622224D01*
X44484919Y-25638484D01*
X44503630Y-25649286D01*
X44627148Y-25735774D01*
X44643706Y-25749667D01*
X44750331Y-25856291D01*
X44764225Y-25872850D01*
X44832449Y-25970285D01*
X44850709Y-25996362D01*
X44861516Y-26015081D01*
X44925240Y-26151739D01*
X44932633Y-26172049D01*
X44971659Y-26317696D01*
X44975412Y-26338982D01*
X44989027Y-26494593D01*
X44989499Y-26505401D01*
X44989499Y-35494587D01*
X44989027Y-35505395D01*
X44975411Y-35661017D01*
X44971658Y-35682303D01*
X44932632Y-35827950D01*
X44925239Y-35848261D01*
X44861516Y-35984915D01*
X44850709Y-36003633D01*
X44764219Y-36127154D01*
X44750325Y-36143712D01*
X44643711Y-36250326D01*
X44627153Y-36264220D01*
X44503631Y-36350711D01*
X44484913Y-36361518D01*
X44348263Y-36425239D01*
X44327951Y-36432632D01*
X44182301Y-36471658D01*
X44161016Y-36475411D01*
X44047747Y-36485321D01*
X44005379Y-36489028D01*
X43994577Y-36489500D01*
X32856499Y-36489500D01*
X32789460Y-36469815D01*
X32743705Y-36417011D01*
X32732499Y-36365500D01*
X32732499Y-34415000D01*
X32752184Y-34347961D01*
X32804988Y-34302206D01*
X32856499Y-34291000D01*
X38187990Y-34291000D01*
X38187992Y-34291000D01*
X38258193Y-34261922D01*
X39733882Y-32786230D01*
X39795203Y-32752747D01*
X39864894Y-32757731D01*
X39888600Y-32769598D01*
X39968509Y-32820952D01*
X39968517Y-32820956D01*
X39968521Y-32820959D01*
X40002827Y-32836626D01*
X40140782Y-32877133D01*
X40178111Y-32882500D01*
X40178114Y-32882500D01*
X40749999Y-32882500D01*
X40750000Y-32882500D01*
X40805042Y-32870526D01*
X40814804Y-32862066D01*
X40878359Y-32833041D01*
X40947518Y-32842983D01*
X40962059Y-32853857D01*
X40963365Y-32851827D01*
X40978362Y-32861465D01*
X40978363Y-32861466D01*
X41018564Y-32873270D01*
X41049997Y-32882500D01*
X41049998Y-32882500D01*
X41621884Y-32882500D01*
X41621887Y-32882500D01*
X41659216Y-32877133D01*
X41797171Y-32836626D01*
X41831477Y-32820959D01*
X41952431Y-32743227D01*
X41980933Y-32718529D01*
X42075087Y-32609868D01*
X42095476Y-32578143D01*
X42155204Y-32447358D01*
X42157399Y-32439883D01*
X42195169Y-32381102D01*
X42258723Y-32352073D01*
X42312367Y-32356148D01*
X42498574Y-32412633D01*
X42699999Y-32432472D01*
X42901424Y-32412633D01*
X43095109Y-32353880D01*
X43273610Y-32258469D01*
X43430067Y-32130068D01*
X43558468Y-31973611D01*
X43653879Y-31795110D01*
X43712632Y-31601425D01*
X43732471Y-31400000D01*
X43712632Y-31198575D01*
X43653879Y-31004890D01*
X43596683Y-30897885D01*
X43582442Y-30829484D01*
X43607442Y-30764240D01*
X43618350Y-30751762D01*
X43661921Y-30708193D01*
X43690999Y-30637992D01*
X43690999Y-30562008D01*
X43690999Y-30376388D01*
X43710684Y-30309349D01*
X43763488Y-30263594D01*
X43764790Y-30263008D01*
X43825290Y-30236295D01*
X43901294Y-30160291D01*
X43944710Y-30061963D01*
X43947499Y-30037924D01*
X43947499Y-29557076D01*
X43944710Y-29533037D01*
X43901294Y-29434709D01*
X43825290Y-29358705D01*
X43726962Y-29315289D01*
X43722761Y-29313434D01*
X43669385Y-29268348D01*
X43648858Y-29201562D01*
X43667696Y-29134280D01*
X43719920Y-29087863D01*
X43722761Y-29086566D01*
X43751220Y-29074000D01*
X43825290Y-29041295D01*
X43901294Y-28965291D01*
X43944710Y-28866963D01*
X43947499Y-28842924D01*
X43947499Y-28362076D01*
X43944710Y-28338037D01*
X43901294Y-28239709D01*
X43825290Y-28163705D01*
X43815811Y-28157212D01*
X43816995Y-28155482D01*
X43774933Y-28119950D01*
X43754408Y-28053163D01*
X43773248Y-27985882D01*
X43809508Y-27948503D01*
X43859114Y-27915357D01*
X43862856Y-27912857D01*
X43921979Y-27824373D01*
X43937499Y-27746348D01*
X43937499Y-27416074D01*
X43957184Y-27349035D01*
X43998378Y-27309342D01*
X44065374Y-27269720D01*
X44065382Y-27269714D01*
X44179713Y-27155383D01*
X44179720Y-27155374D01*
X44262030Y-27016195D01*
X44304503Y-26870000D01*
X42322389Y-26870000D01*
X42299137Y-26872500D01*
X40700861Y-26872500D01*
X40692347Y-26870000D01*
X37695495Y-26870000D01*
X37737967Y-27016195D01*
X37820277Y-27155374D01*
X37820284Y-27155383D01*
X37934615Y-27269714D01*
X37934623Y-27269720D01*
X38001620Y-27309342D01*
X38049303Y-27360411D01*
X38062499Y-27416074D01*
X38062499Y-27746352D01*
X38078017Y-27824370D01*
X38078018Y-27824371D01*
X38078018Y-27824372D01*
X38078019Y-27824373D01*
X38137142Y-27912857D01*
X38186651Y-27945938D01*
X38190490Y-27948503D01*
X38235295Y-28002115D01*
X38244002Y-28071440D01*
X38213847Y-28134468D01*
X38183621Y-28156386D01*
X38184187Y-28157212D01*
X38174707Y-28163705D01*
X38098704Y-28239708D01*
X38055288Y-28338034D01*
X38055288Y-28338036D01*
X38052499Y-28362074D01*
X38052499Y-28728523D01*
X38032814Y-28795562D01*
X38016180Y-28816204D01*
X37794703Y-29037681D01*
X37733380Y-29071166D01*
X37707022Y-29074000D01*
X35201500Y-29074000D01*
X35134461Y-29054315D01*
X35088706Y-29001511D01*
X35077500Y-28950000D01*
X35077500Y-28299999D01*
X35075334Y-28290043D01*
X35072500Y-28263684D01*
X35072500Y-27734858D01*
X35076248Y-27708782D01*
X35076238Y-27708781D01*
X35077500Y-27700002D01*
X35077500Y-26854107D01*
X35078762Y-26836461D01*
X35080000Y-26827849D01*
X35081293Y-26818857D01*
X35081293Y-26781143D01*
X35078762Y-26763539D01*
X35077500Y-26745893D01*
X35077500Y-26550000D01*
X35077500Y-26549999D01*
X35074954Y-26524151D01*
X35055924Y-26428480D01*
X35036140Y-26380716D01*
X35028980Y-26370000D01*
X37695495Y-26370000D01*
X38249999Y-26370000D01*
X38249999Y-25841210D01*
X38249998Y-25841209D01*
X38749999Y-25841209D01*
X38749999Y-26370000D01*
X39249999Y-26370000D01*
X39249999Y-25841210D01*
X39249998Y-25841209D01*
X39749999Y-25841209D01*
X39749999Y-26370000D01*
X40249999Y-26370000D01*
X40749999Y-26370000D01*
X41249999Y-26370000D01*
X41249999Y-25843710D01*
X41249998Y-25843709D01*
X41749999Y-25843709D01*
X41749999Y-26370000D01*
X42249999Y-26370000D01*
X42249999Y-25841210D01*
X42249998Y-25841209D01*
X42749999Y-25841209D01*
X42749999Y-26370000D01*
X43249999Y-26370000D01*
X43749999Y-26370000D01*
X44304503Y-26370000D01*
X44262030Y-26223804D01*
X44179720Y-26084625D01*
X44179713Y-26084616D01*
X44065382Y-25970285D01*
X44065373Y-25970278D01*
X43926194Y-25887968D01*
X43926189Y-25887966D01*
X43770917Y-25842855D01*
X43770911Y-25842854D01*
X43749999Y-25841209D01*
X43749999Y-26370000D01*
X43249999Y-26370000D01*
X43249999Y-25841210D01*
X43249998Y-25841209D01*
X43229086Y-25842854D01*
X43229080Y-25842855D01*
X43073808Y-25887966D01*
X43073802Y-25887968D01*
X43063117Y-25894288D01*
X42995392Y-25911468D01*
X42936881Y-25894288D01*
X42926195Y-25887968D01*
X42926189Y-25887966D01*
X42770917Y-25842855D01*
X42770911Y-25842854D01*
X42749999Y-25841209D01*
X42249998Y-25841209D01*
X42229086Y-25842854D01*
X42229080Y-25842855D01*
X42073808Y-25887966D01*
X42073798Y-25887970D01*
X42061002Y-25895538D01*
X41993278Y-25912718D01*
X41934767Y-25895538D01*
X41926194Y-25890468D01*
X41926189Y-25890466D01*
X41770917Y-25845355D01*
X41770911Y-25845354D01*
X41749999Y-25843709D01*
X41249998Y-25843709D01*
X41229086Y-25845354D01*
X41229080Y-25845355D01*
X41073805Y-25890467D01*
X41073795Y-25890471D01*
X41065228Y-25895538D01*
X40997504Y-25912718D01*
X40938989Y-25895535D01*
X40926196Y-25887969D01*
X40926189Y-25887966D01*
X40770917Y-25842855D01*
X40770911Y-25842854D01*
X40749999Y-25841209D01*
X40749999Y-26370000D01*
X40249999Y-26370000D01*
X40249999Y-25841210D01*
X40249998Y-25841209D01*
X40229086Y-25842854D01*
X40229080Y-25842855D01*
X40073808Y-25887966D01*
X40073802Y-25887968D01*
X40063117Y-25894288D01*
X39995392Y-25911468D01*
X39936881Y-25894288D01*
X39926195Y-25887968D01*
X39926189Y-25887966D01*
X39770917Y-25842855D01*
X39770911Y-25842854D01*
X39749999Y-25841209D01*
X39249998Y-25841209D01*
X39229086Y-25842854D01*
X39229080Y-25842855D01*
X39073808Y-25887966D01*
X39073802Y-25887968D01*
X39063117Y-25894288D01*
X38995392Y-25911468D01*
X38936881Y-25894288D01*
X38926195Y-25887968D01*
X38926189Y-25887966D01*
X38770917Y-25842855D01*
X38770911Y-25842854D01*
X38749999Y-25841209D01*
X38249998Y-25841209D01*
X38229086Y-25842854D01*
X38229080Y-25842855D01*
X38073808Y-25887966D01*
X38073803Y-25887968D01*
X37934624Y-25970278D01*
X37934615Y-25970285D01*
X37820284Y-26084616D01*
X37820277Y-26084625D01*
X37737967Y-26223804D01*
X37695495Y-26370000D01*
X35028980Y-26370000D01*
X34981947Y-26299610D01*
X34981945Y-26299607D01*
X34945392Y-26263054D01*
X34864287Y-26208862D01*
X34864286Y-26208861D01*
X34864284Y-26208860D01*
X34858182Y-26206332D01*
X34816526Y-26189078D01*
X34816514Y-26189074D01*
X34720866Y-26170049D01*
X34720849Y-26170046D01*
X34720829Y-26170044D01*
X34695000Y-26167500D01*
X34195000Y-26167500D01*
X34173459Y-26169621D01*
X34169150Y-26170046D01*
X34169133Y-26170049D01*
X34073485Y-26189074D01*
X34073473Y-26189078D01*
X34025720Y-26208858D01*
X34025712Y-26208862D01*
X33944607Y-26263054D01*
X33908054Y-26299607D01*
X33905853Y-26302290D01*
X33904344Y-26303317D01*
X33903745Y-26303917D01*
X33903631Y-26303803D01*
X33848107Y-26341624D01*
X33778263Y-26343495D01*
X33718495Y-26307307D01*
X33714147Y-26302290D01*
X33711945Y-26299607D01*
X33675392Y-26263054D01*
X33594287Y-26208862D01*
X33594286Y-26208861D01*
X33594284Y-26208860D01*
X33588182Y-26206332D01*
X33546526Y-26189078D01*
X33546514Y-26189074D01*
X33450866Y-26170049D01*
X33450849Y-26170046D01*
X33450829Y-26170044D01*
X33425000Y-26167500D01*
X32925000Y-26167500D01*
X32903459Y-26169621D01*
X32899150Y-26170046D01*
X32899133Y-26170049D01*
X32803485Y-26189074D01*
X32803473Y-26189078D01*
X32755720Y-26208858D01*
X32755712Y-26208862D01*
X32674607Y-26263054D01*
X32638054Y-26299607D01*
X32635853Y-26302290D01*
X32634344Y-26303317D01*
X32633745Y-26303917D01*
X32633631Y-26303803D01*
X32578107Y-26341624D01*
X32508263Y-26343495D01*
X32448495Y-26307307D01*
X32444147Y-26302290D01*
X32441945Y-26299607D01*
X32405392Y-26263054D01*
X32324287Y-26208862D01*
X32324286Y-26208861D01*
X32324284Y-26208860D01*
X32318182Y-26206332D01*
X32276526Y-26189078D01*
X32276514Y-26189074D01*
X32180866Y-26170049D01*
X32180849Y-26170046D01*
X32180829Y-26170044D01*
X32155000Y-26167500D01*
X31655000Y-26167500D01*
X31633459Y-26169621D01*
X31629150Y-26170046D01*
X31629133Y-26170049D01*
X31533485Y-26189074D01*
X31533473Y-26189078D01*
X31485720Y-26208858D01*
X31485712Y-26208862D01*
X31404607Y-26263054D01*
X31368054Y-26299607D01*
X31365853Y-26302290D01*
X31364344Y-26303317D01*
X31363745Y-26303917D01*
X31363631Y-26303803D01*
X31308107Y-26341624D01*
X31238263Y-26343495D01*
X31178495Y-26307307D01*
X31174147Y-26302290D01*
X31171945Y-26299607D01*
X31135392Y-26263054D01*
X31054287Y-26208862D01*
X31054286Y-26208861D01*
X31054284Y-26208860D01*
X31048182Y-26206332D01*
X31006526Y-26189078D01*
X31006514Y-26189074D01*
X30910866Y-26170049D01*
X30910849Y-26170046D01*
X30910829Y-26170044D01*
X30885000Y-26167500D01*
X30385000Y-26167500D01*
X30363459Y-26169621D01*
X30359150Y-26170046D01*
X30359133Y-26170049D01*
X30263485Y-26189074D01*
X30263473Y-26189078D01*
X30215720Y-26208858D01*
X30215712Y-26208862D01*
X30134607Y-26263054D01*
X30098054Y-26299607D01*
X30095853Y-26302290D01*
X30094344Y-26303317D01*
X30093745Y-26303917D01*
X30093631Y-26303803D01*
X30038107Y-26341624D01*
X29968263Y-26343495D01*
X29908495Y-26307307D01*
X29904147Y-26302290D01*
X29901945Y-26299607D01*
X29865392Y-26263054D01*
X29784287Y-26208862D01*
X29784286Y-26208861D01*
X29784284Y-26208860D01*
X29778182Y-26206332D01*
X29736526Y-26189078D01*
X29736514Y-26189074D01*
X29640866Y-26170049D01*
X29640849Y-26170046D01*
X29640829Y-26170044D01*
X29615000Y-26167500D01*
X29115000Y-26167500D01*
X29093459Y-26169621D01*
X29089150Y-26170046D01*
X29089133Y-26170049D01*
X28993485Y-26189074D01*
X28993473Y-26189078D01*
X28945720Y-26208858D01*
X28945712Y-26208862D01*
X28864607Y-26263054D01*
X28828054Y-26299607D01*
X28825853Y-26302290D01*
X28824344Y-26303317D01*
X28823745Y-26303917D01*
X28823631Y-26303803D01*
X28768107Y-26341624D01*
X28698263Y-26343495D01*
X28638495Y-26307307D01*
X28634147Y-26302290D01*
X28631945Y-26299607D01*
X28595392Y-26263054D01*
X28514287Y-26208862D01*
X28514286Y-26208861D01*
X28514284Y-26208860D01*
X28508182Y-26206332D01*
X28466526Y-26189078D01*
X28466514Y-26189074D01*
X28370866Y-26170049D01*
X28370849Y-26170046D01*
X28370829Y-26170044D01*
X28345000Y-26167500D01*
X27845000Y-26167500D01*
X27823459Y-26169621D01*
X27819150Y-26170046D01*
X27819133Y-26170049D01*
X27723485Y-26189074D01*
X27723473Y-26189078D01*
X27675720Y-26208858D01*
X27675712Y-26208862D01*
X27594607Y-26263054D01*
X27558054Y-26299607D01*
X27555853Y-26302290D01*
X27554344Y-26303317D01*
X27553745Y-26303917D01*
X27553631Y-26303803D01*
X27498107Y-26341624D01*
X27428263Y-26343495D01*
X27368495Y-26307307D01*
X27364147Y-26302290D01*
X27361945Y-26299607D01*
X27325392Y-26263054D01*
X27244287Y-26208862D01*
X27244286Y-26208861D01*
X27244284Y-26208860D01*
X27238182Y-26206332D01*
X27196526Y-26189078D01*
X27196514Y-26189074D01*
X27100866Y-26170049D01*
X27100849Y-26170046D01*
X27100829Y-26170044D01*
X27075000Y-26167500D01*
X26575000Y-26167500D01*
X26571464Y-26167848D01*
X26549165Y-26170044D01*
X26549152Y-26170045D01*
X26549151Y-26170046D01*
X26549149Y-26170046D01*
X26549138Y-26170048D01*
X26545859Y-26170700D01*
X26476269Y-26164464D01*
X26421097Y-26121595D01*
X26418580Y-26117969D01*
X26401683Y-26092680D01*
X26401664Y-26092654D01*
X26369274Y-26049383D01*
X26262335Y-25953327D01*
X26262328Y-25953322D01*
X26181254Y-25899150D01*
X26181228Y-25899133D01*
X26134743Y-25871554D01*
X26134745Y-25871554D01*
X25999189Y-25823732D01*
X25903525Y-25804704D01*
X25903507Y-25804701D01*
X25805000Y-25795000D01*
X25805000Y-27700000D01*
X25305000Y-27700000D01*
X25305000Y-27050000D01*
X24550000Y-27050000D01*
X24550000Y-27700002D01*
X24555140Y-27771870D01*
X24595634Y-27909782D01*
X24610503Y-27932919D01*
X24630186Y-27999959D01*
X24618981Y-28051466D01*
X24570457Y-28157721D01*
X24570455Y-28157725D01*
X24550000Y-28300001D01*
X24550000Y-28950000D01*
X25305000Y-28950000D01*
X25305000Y-28300000D01*
X25805000Y-28300000D01*
X25805000Y-29326000D01*
X25785315Y-29393039D01*
X25732511Y-29438794D01*
X25681000Y-29450000D01*
X24550000Y-29450000D01*
X24559701Y-29548507D01*
X24559701Y-29548510D01*
X24578732Y-29644190D01*
X24578735Y-29644202D01*
X24592100Y-29696565D01*
X24592103Y-29696573D01*
X24654135Y-29826231D01*
X24654140Y-29826238D01*
X24708310Y-29907310D01*
X24708335Y-29907345D01*
X24740726Y-29950616D01*
X24787634Y-29992751D01*
X24824354Y-30052194D01*
X24823107Y-30122053D01*
X24784289Y-30180147D01*
X24720226Y-30208033D01*
X24704772Y-30209000D01*
X23729226Y-30209000D01*
X23662187Y-30189315D01*
X23641545Y-30172681D01*
X21983818Y-28514954D01*
X21950333Y-28453631D01*
X21947499Y-28427273D01*
X21947499Y-28362077D01*
X21947499Y-28362076D01*
X21944710Y-28338037D01*
X21901294Y-28239709D01*
X21825290Y-28163705D01*
X21815811Y-28157212D01*
X21816995Y-28155482D01*
X21774933Y-28119950D01*
X21754408Y-28053163D01*
X21773248Y-27985882D01*
X21809508Y-27948503D01*
X21859114Y-27915357D01*
X21862856Y-27912857D01*
X21921979Y-27824373D01*
X21937499Y-27746348D01*
X21937499Y-27416074D01*
X21957184Y-27349035D01*
X21998378Y-27309342D01*
X22065374Y-27269720D01*
X22065382Y-27269714D01*
X22179713Y-27155383D01*
X22179720Y-27155374D01*
X22262030Y-27016195D01*
X22304503Y-26870000D01*
X15695495Y-26870000D01*
X15737967Y-27016195D01*
X15820277Y-27155374D01*
X15820284Y-27155383D01*
X15934615Y-27269714D01*
X15934623Y-27269720D01*
X16001620Y-27309342D01*
X16049303Y-27360411D01*
X16062499Y-27416074D01*
X16062499Y-27746352D01*
X16078017Y-27824370D01*
X16078018Y-27824371D01*
X16078018Y-27824372D01*
X16078019Y-27824373D01*
X16137142Y-27912857D01*
X16186651Y-27945938D01*
X16190490Y-27948503D01*
X16235295Y-28002115D01*
X16244002Y-28071440D01*
X16213847Y-28134468D01*
X16183621Y-28156386D01*
X16184187Y-28157212D01*
X16174707Y-28163705D01*
X16098704Y-28239708D01*
X16055288Y-28338034D01*
X16055288Y-28338036D01*
X16052499Y-28362074D01*
X16052499Y-28842925D01*
X16055288Y-28866963D01*
X16055288Y-28866965D01*
X16087828Y-28940659D01*
X16098704Y-28965291D01*
X16174708Y-29041295D01*
X16227744Y-29064713D01*
X16277236Y-29086566D01*
X16330612Y-29131652D01*
X16351139Y-29198438D01*
X16332300Y-29265720D01*
X16280077Y-29312137D01*
X16277236Y-29313434D01*
X16174707Y-29358705D01*
X16098704Y-29434708D01*
X16055288Y-29533034D01*
X16055288Y-29533036D01*
X16052499Y-29557074D01*
X16052499Y-30037925D01*
X16055288Y-30061963D01*
X16055288Y-30061965D01*
X16088204Y-30136511D01*
X16098704Y-30160291D01*
X16174708Y-30236295D01*
X16273036Y-30279711D01*
X16297075Y-30282500D01*
X16297076Y-30282500D01*
X16663522Y-30282500D01*
X16730561Y-30302185D01*
X16751203Y-30318819D01*
X16769470Y-30337086D01*
X16802955Y-30398409D01*
X16797971Y-30468101D01*
X16756099Y-30524034D01*
X16740246Y-30534123D01*
X16726386Y-30541531D01*
X16569930Y-30669931D01*
X16441530Y-30826387D01*
X16441526Y-30826394D01*
X16346122Y-31004882D01*
X16346121Y-31004885D01*
X16287365Y-31198576D01*
X16267527Y-31400000D01*
X16287365Y-31601423D01*
X16306950Y-31665986D01*
X16346119Y-31795110D01*
X16346120Y-31795113D01*
X16346121Y-31795114D01*
X16346122Y-31795117D01*
X16441526Y-31973605D01*
X16441530Y-31973612D01*
X16569930Y-32130068D01*
X16726386Y-32258468D01*
X16726393Y-32258472D01*
X16904881Y-32353876D01*
X16904882Y-32353876D01*
X16904889Y-32353880D01*
X17098574Y-32412633D01*
X17098573Y-32412633D01*
X17116633Y-32414411D01*
X17299999Y-32432472D01*
X17501424Y-32412633D01*
X17695109Y-32353880D01*
X17873605Y-32258471D01*
X17873607Y-32258471D01*
X17873608Y-32258469D01*
X17873610Y-32258469D01*
X17893322Y-32242291D01*
X17957629Y-32214978D01*
X18026496Y-32226768D01*
X18065701Y-32256943D01*
X18119064Y-32318529D01*
X18119065Y-32318530D01*
X18147563Y-32343224D01*
X18147565Y-32343225D01*
X18147567Y-32343227D01*
X18164243Y-32353944D01*
X18268515Y-32420956D01*
X18268525Y-32420961D01*
X18271098Y-32422136D01*
X18302827Y-32436626D01*
X18440782Y-32477133D01*
X18478111Y-32482500D01*
X18478114Y-32482500D01*
X19049999Y-32482500D01*
X19050000Y-32482500D01*
X19105042Y-32470526D01*
X19114804Y-32462066D01*
X19178359Y-32433041D01*
X19247518Y-32442983D01*
X19262059Y-32453857D01*
X19263365Y-32451827D01*
X19278362Y-32461465D01*
X19278363Y-32461466D01*
X19328963Y-32476323D01*
X19349997Y-32482500D01*
X19349998Y-32482500D01*
X19361022Y-32482500D01*
X19428061Y-32502185D01*
X19448703Y-32518819D01*
X21191806Y-34261922D01*
X21262007Y-34291000D01*
X21262009Y-34291000D01*
X27143499Y-34291000D01*
X27210538Y-34310685D01*
X27256293Y-34363489D01*
X27267499Y-34415000D01*
X27267499Y-36365500D01*
X27247814Y-36432539D01*
X27195010Y-36478294D01*
X27143499Y-36489500D01*
X16005411Y-36489500D01*
X15994605Y-36489028D01*
X15969583Y-36486838D01*
X15838981Y-36475412D01*
X15817695Y-36471659D01*
X15672048Y-36432633D01*
X15651737Y-36425240D01*
X15515083Y-36361517D01*
X15496365Y-36350710D01*
X15372848Y-36264223D01*
X15356290Y-36250329D01*
X15249670Y-36143709D01*
X15235776Y-36127151D01*
X15149289Y-36003633D01*
X15138482Y-35984915D01*
X15074759Y-35848261D01*
X15067366Y-35827950D01*
X15028338Y-35682297D01*
X15024587Y-35661016D01*
X15010971Y-35505384D01*
X15010499Y-35494577D01*
X15010499Y-26549999D01*
X24550000Y-26549999D01*
X24550000Y-26550000D01*
X25305000Y-26550000D01*
X25305000Y-25795000D01*
X25206492Y-25804701D01*
X25206489Y-25804701D01*
X25110809Y-25823732D01*
X25110797Y-25823735D01*
X25058434Y-25837100D01*
X25058426Y-25837103D01*
X24928768Y-25899135D01*
X24928761Y-25899140D01*
X24847689Y-25953310D01*
X24847654Y-25953335D01*
X24804383Y-25985725D01*
X24708327Y-26092664D01*
X24708322Y-26092671D01*
X24654150Y-26173745D01*
X24654133Y-26173771D01*
X24626554Y-26220255D01*
X24578732Y-26355810D01*
X24578732Y-26355811D01*
X24559704Y-26451474D01*
X24559701Y-26451492D01*
X24550000Y-26549999D01*
X15010499Y-26549999D01*
X15010499Y-26505412D01*
X15010971Y-26494605D01*
X15014743Y-26451492D01*
X15021872Y-26370000D01*
X15695495Y-26370000D01*
X16249999Y-26370000D01*
X16249999Y-25841210D01*
X16249998Y-25841209D01*
X16749999Y-25841209D01*
X16749999Y-26370000D01*
X17249999Y-26370000D01*
X17249999Y-25841210D01*
X17249998Y-25841209D01*
X17749999Y-25841209D01*
X17749999Y-26370000D01*
X18249999Y-26370000D01*
X18249999Y-25841210D01*
X18249998Y-25841209D01*
X18749999Y-25841209D01*
X18749999Y-26370000D01*
X19249999Y-26370000D01*
X19249999Y-25841210D01*
X19249998Y-25841209D01*
X19749999Y-25841209D01*
X19749999Y-26370000D01*
X20249999Y-26370000D01*
X20249999Y-25841210D01*
X20249998Y-25841209D01*
X20749999Y-25841209D01*
X20749999Y-26370000D01*
X21249999Y-26370000D01*
X21749999Y-26370000D01*
X22304503Y-26370000D01*
X22262030Y-26223804D01*
X22179720Y-26084625D01*
X22179713Y-26084616D01*
X22065382Y-25970285D01*
X22065373Y-25970278D01*
X21926194Y-25887968D01*
X21926189Y-25887966D01*
X21770917Y-25842855D01*
X21770911Y-25842854D01*
X21749999Y-25841209D01*
X21749999Y-26370000D01*
X21249999Y-26370000D01*
X21249999Y-25841210D01*
X21249998Y-25841209D01*
X21229086Y-25842854D01*
X21229080Y-25842855D01*
X21073808Y-25887966D01*
X21073802Y-25887968D01*
X21063117Y-25894288D01*
X20995392Y-25911468D01*
X20936881Y-25894288D01*
X20926195Y-25887968D01*
X20926189Y-25887966D01*
X20770917Y-25842855D01*
X20770911Y-25842854D01*
X20749999Y-25841209D01*
X20249998Y-25841209D01*
X20229086Y-25842854D01*
X20229080Y-25842855D01*
X20073808Y-25887966D01*
X20073802Y-25887968D01*
X20063117Y-25894288D01*
X19995392Y-25911468D01*
X19936881Y-25894288D01*
X19926195Y-25887968D01*
X19926189Y-25887966D01*
X19770917Y-25842855D01*
X19770911Y-25842854D01*
X19749999Y-25841209D01*
X19249998Y-25841209D01*
X19229086Y-25842854D01*
X19229080Y-25842855D01*
X19073808Y-25887966D01*
X19073802Y-25887968D01*
X19063117Y-25894288D01*
X18995392Y-25911468D01*
X18936881Y-25894288D01*
X18926195Y-25887968D01*
X18926189Y-25887966D01*
X18770917Y-25842855D01*
X18770911Y-25842854D01*
X18749999Y-25841209D01*
X18249998Y-25841209D01*
X18229086Y-25842854D01*
X18229080Y-25842855D01*
X18073808Y-25887966D01*
X18073802Y-25887968D01*
X18063117Y-25894288D01*
X17995392Y-25911468D01*
X17936881Y-25894288D01*
X17926195Y-25887968D01*
X17926189Y-25887966D01*
X17770917Y-25842855D01*
X17770911Y-25842854D01*
X17749999Y-25841209D01*
X17249998Y-25841209D01*
X17229086Y-25842854D01*
X17229080Y-25842855D01*
X17073808Y-25887966D01*
X17073802Y-25887968D01*
X17063117Y-25894288D01*
X16995392Y-25911468D01*
X16936881Y-25894288D01*
X16926195Y-25887968D01*
X16926189Y-25887966D01*
X16770917Y-25842855D01*
X16770911Y-25842854D01*
X16749999Y-25841209D01*
X16249998Y-25841209D01*
X16229086Y-25842854D01*
X16229080Y-25842855D01*
X16073808Y-25887966D01*
X16073803Y-25887968D01*
X15934624Y-25970278D01*
X15934615Y-25970285D01*
X15820284Y-26084616D01*
X15820277Y-26084625D01*
X15737967Y-26223804D01*
X15695495Y-26370000D01*
X15021872Y-26370000D01*
X15024586Y-26338978D01*
X15028337Y-26317704D01*
X15067366Y-26172044D01*
X15074758Y-26151739D01*
X15091016Y-26116872D01*
X15138485Y-26015074D01*
X15149282Y-25996373D01*
X15235778Y-25872843D01*
X15249661Y-25856297D01*
X15356298Y-25749661D01*
X15372837Y-25735783D01*
X15496369Y-25649284D01*
X15515079Y-25638483D01*
X15651737Y-25574758D01*
X15672043Y-25567366D01*
X15817703Y-25528337D01*
X15838977Y-25524586D01*
X15994593Y-25510971D01*
X16005400Y-25510500D01*
X43994587Y-25510500D01*
X44005393Y-25510971D01*
G37*
%TD.AperFunction*%
%TD*%
M02*
