%TF.GenerationSoftware,KiCad,Pcbnew,7.0.10-7.0.10~ubuntu22.04.1*%
%TF.CreationDate,2024-01-02T10:30:17+00:00*%
%TF.ProjectId,EMG_DAQ_ADS1293,454d475f-4441-4515-9f41-445331323933,1.0*%
%TF.SameCoordinates,Original*%
%TF.FileFunction,Paste,Top*%
%TF.FilePolarity,Positive*%
%FSLAX46Y46*%
G04 Gerber Fmt 4.6, Leading zero omitted, Abs format (unit mm)*
G04 Created by KiCad (PCBNEW 7.0.10-7.0.10~ubuntu22.04.1) date 2024-01-02 10:30:17*
%MOMM*%
%LPD*%
G01*
G04 APERTURE LIST*
G04 Aperture macros list*
%AMRoundRect*
0 Rectangle with rounded corners*
0 $1 Rounding radius*
0 $2 $3 $4 $5 $6 $7 $8 $9 X,Y pos of 4 corners*
0 Add a 4 corners polygon primitive as box body*
4,1,4,$2,$3,$4,$5,$6,$7,$8,$9,$2,$3,0*
0 Add four circle primitives for the rounded corners*
1,1,$1+$1,$2,$3*
1,1,$1+$1,$4,$5*
1,1,$1+$1,$6,$7*
1,1,$1+$1,$8,$9*
0 Add four rect primitives between the rounded corners*
20,1,$1+$1,$2,$3,$4,$5,0*
20,1,$1+$1,$4,$5,$6,$7,0*
20,1,$1+$1,$6,$7,$8,$9,0*
20,1,$1+$1,$8,$9,$2,$3,0*%
G04 Aperture macros list end*
%ADD10C,0.100000*%
%ADD11RoundRect,0.140000X0.140000X0.170000X-0.140000X0.170000X-0.140000X-0.170000X0.140000X-0.170000X0*%
%ADD12RoundRect,0.140000X-0.140000X-0.170000X0.140000X-0.170000X0.140000X0.170000X-0.140000X0.170000X0*%
%ADD13RoundRect,0.140000X0.170000X-0.140000X0.170000X0.140000X-0.170000X0.140000X-0.170000X-0.140000X0*%
%ADD14R,0.250000X0.600000*%
%ADD15R,0.600000X0.250000*%
%ADD16RoundRect,0.060000X0.240000X0.615000X-0.240000X0.615000X-0.240000X-0.615000X0.240000X-0.615000X0*%
%ADD17RoundRect,0.140000X-0.170000X0.140000X-0.170000X-0.140000X0.170000X-0.140000X0.170000X0.140000X0*%
G04 APERTURE END LIST*
%TO.C,U1*%
D10*
X29829400Y-36712021D02*
X29829400Y-37014570D01*
X29385430Y-37014570D01*
X29385430Y-36570600D01*
X29687979Y-36570600D01*
X29829400Y-36712021D01*
G36*
X29829400Y-36712021D02*
G01*
X29829400Y-37014570D01*
X29385430Y-37014570D01*
X29385430Y-36570600D01*
X29687979Y-36570600D01*
X29829400Y-36712021D01*
G37*
X32835570Y-37014570D02*
X32391600Y-37014570D01*
X32391600Y-36712021D01*
X32533021Y-36570600D01*
X32835570Y-36570600D01*
X32835570Y-37014570D01*
G36*
X32835570Y-37014570D02*
G01*
X32391600Y-37014570D01*
X32391600Y-36712021D01*
X32533021Y-36570600D01*
X32835570Y-36570600D01*
X32835570Y-37014570D01*
G37*
X29829400Y-33866979D02*
X29687979Y-34008400D01*
X29385430Y-34008400D01*
X29385430Y-33564430D01*
X29829400Y-33564430D01*
X29829400Y-33866979D01*
G36*
X29829400Y-33866979D02*
G01*
X29687979Y-34008400D01*
X29385430Y-34008400D01*
X29385430Y-33564430D01*
X29829400Y-33564430D01*
X29829400Y-33866979D01*
G37*
X32835570Y-34008400D02*
X32533021Y-34008400D01*
X32391600Y-33866979D01*
X32391600Y-33564430D01*
X32835570Y-33564430D01*
X32835570Y-34008400D01*
G36*
X32835570Y-34008400D02*
G01*
X32533021Y-34008400D01*
X32391600Y-33866979D01*
X32391600Y-33564430D01*
X32835570Y-33564430D01*
X32835570Y-34008400D01*
G37*
X30616800Y-36712021D02*
X30616800Y-37014570D01*
X30029400Y-37014570D01*
X30029400Y-36712021D01*
X30170821Y-36570600D01*
X30475379Y-36570600D01*
X30616800Y-36712021D01*
G36*
X30616800Y-36712021D02*
G01*
X30616800Y-37014570D01*
X30029400Y-37014570D01*
X30029400Y-36712021D01*
X30170821Y-36570600D01*
X30475379Y-36570600D01*
X30616800Y-36712021D01*
G37*
X31404200Y-36712021D02*
X31404200Y-37014570D01*
X30816800Y-37014570D01*
X30816800Y-36712021D01*
X30958221Y-36570600D01*
X31262779Y-36570600D01*
X31404200Y-36712021D01*
G36*
X31404200Y-36712021D02*
G01*
X31404200Y-37014570D01*
X30816800Y-37014570D01*
X30816800Y-36712021D01*
X30958221Y-36570600D01*
X31262779Y-36570600D01*
X31404200Y-36712021D01*
G37*
X32191600Y-36712021D02*
X32191600Y-37014570D01*
X31604200Y-37014570D01*
X31604200Y-36712021D01*
X31745621Y-36570600D01*
X32050179Y-36570600D01*
X32191600Y-36712021D01*
G36*
X32191600Y-36712021D02*
G01*
X32191600Y-37014570D01*
X31604200Y-37014570D01*
X31604200Y-36712021D01*
X31745621Y-36570600D01*
X32050179Y-36570600D01*
X32191600Y-36712021D01*
G37*
X29829400Y-35924621D02*
X29829400Y-36229179D01*
X29687979Y-36370600D01*
X29385430Y-36370600D01*
X29385430Y-35783200D01*
X29687979Y-35783200D01*
X29829400Y-35924621D01*
G36*
X29829400Y-35924621D02*
G01*
X29829400Y-36229179D01*
X29687979Y-36370600D01*
X29385430Y-36370600D01*
X29385430Y-35783200D01*
X29687979Y-35783200D01*
X29829400Y-35924621D01*
G37*
X32835570Y-36370600D02*
X32533021Y-36370600D01*
X32391600Y-36229179D01*
X32391600Y-35924621D01*
X32533021Y-35783200D01*
X32835570Y-35783200D01*
X32835570Y-36370600D01*
G36*
X32835570Y-36370600D02*
G01*
X32533021Y-36370600D01*
X32391600Y-36229179D01*
X32391600Y-35924621D01*
X32533021Y-35783200D01*
X32835570Y-35783200D01*
X32835570Y-36370600D01*
G37*
X29829400Y-35137221D02*
X29829400Y-35441779D01*
X29687979Y-35583200D01*
X29385430Y-35583200D01*
X29385430Y-34995800D01*
X29687979Y-34995800D01*
X29829400Y-35137221D01*
G36*
X29829400Y-35137221D02*
G01*
X29829400Y-35441779D01*
X29687979Y-35583200D01*
X29385430Y-35583200D01*
X29385430Y-34995800D01*
X29687979Y-34995800D01*
X29829400Y-35137221D01*
G37*
X32835570Y-35583200D02*
X32533021Y-35583200D01*
X32391600Y-35441779D01*
X32391600Y-35137221D01*
X32533021Y-34995800D01*
X32835570Y-34995800D01*
X32835570Y-35583200D01*
G36*
X32835570Y-35583200D02*
G01*
X32533021Y-35583200D01*
X32391600Y-35441779D01*
X32391600Y-35137221D01*
X32533021Y-34995800D01*
X32835570Y-34995800D01*
X32835570Y-35583200D01*
G37*
X29829400Y-34349821D02*
X29829400Y-34654379D01*
X29687979Y-34795800D01*
X29385430Y-34795800D01*
X29385430Y-34208400D01*
X29687979Y-34208400D01*
X29829400Y-34349821D01*
G36*
X29829400Y-34349821D02*
G01*
X29829400Y-34654379D01*
X29687979Y-34795800D01*
X29385430Y-34795800D01*
X29385430Y-34208400D01*
X29687979Y-34208400D01*
X29829400Y-34349821D01*
G37*
X32835570Y-34795800D02*
X32533021Y-34795800D01*
X32391600Y-34654379D01*
X32391600Y-34349821D01*
X32533021Y-34208400D01*
X32835570Y-34208400D01*
X32835570Y-34795800D01*
G36*
X32835570Y-34795800D02*
G01*
X32533021Y-34795800D01*
X32391600Y-34654379D01*
X32391600Y-34349821D01*
X32533021Y-34208400D01*
X32835570Y-34208400D01*
X32835570Y-34795800D01*
G37*
X30616800Y-33866979D02*
X30475379Y-34008400D01*
X30170821Y-34008400D01*
X30029400Y-33866979D01*
X30029400Y-33564430D01*
X30616800Y-33564430D01*
X30616800Y-33866979D01*
G36*
X30616800Y-33866979D02*
G01*
X30475379Y-34008400D01*
X30170821Y-34008400D01*
X30029400Y-33866979D01*
X30029400Y-33564430D01*
X30616800Y-33564430D01*
X30616800Y-33866979D01*
G37*
X31404200Y-33866979D02*
X31262779Y-34008400D01*
X30958221Y-34008400D01*
X30816800Y-33866979D01*
X30816800Y-33564430D01*
X31404200Y-33564430D01*
X31404200Y-33866979D01*
G36*
X31404200Y-33866979D02*
G01*
X31262779Y-34008400D01*
X30958221Y-34008400D01*
X30816800Y-33866979D01*
X30816800Y-33564430D01*
X31404200Y-33564430D01*
X31404200Y-33866979D01*
G37*
X32191600Y-33866979D02*
X32050179Y-34008400D01*
X31745621Y-34008400D01*
X31604200Y-33866979D01*
X31604200Y-33564430D01*
X32191600Y-33564430D01*
X32191600Y-33866979D01*
G36*
X32191600Y-33866979D02*
G01*
X32050179Y-34008400D01*
X31745621Y-34008400D01*
X31604200Y-33866979D01*
X31604200Y-33564430D01*
X32191600Y-33564430D01*
X32191600Y-33866979D01*
G37*
X30616800Y-35924621D02*
X30616800Y-36229179D01*
X30475379Y-36370600D01*
X30170821Y-36370600D01*
X30029400Y-36229179D01*
X30029400Y-35924621D01*
X30170821Y-35783200D01*
X30475379Y-35783200D01*
X30616800Y-35924621D01*
G36*
X30616800Y-35924621D02*
G01*
X30616800Y-36229179D01*
X30475379Y-36370600D01*
X30170821Y-36370600D01*
X30029400Y-36229179D01*
X30029400Y-35924621D01*
X30170821Y-35783200D01*
X30475379Y-35783200D01*
X30616800Y-35924621D01*
G37*
X31404200Y-35924621D02*
X31404200Y-36229179D01*
X31262779Y-36370600D01*
X30958221Y-36370600D01*
X30816800Y-36229179D01*
X30816800Y-35924621D01*
X30958221Y-35783200D01*
X31262779Y-35783200D01*
X31404200Y-35924621D01*
G36*
X31404200Y-35924621D02*
G01*
X31404200Y-36229179D01*
X31262779Y-36370600D01*
X30958221Y-36370600D01*
X30816800Y-36229179D01*
X30816800Y-35924621D01*
X30958221Y-35783200D01*
X31262779Y-35783200D01*
X31404200Y-35924621D01*
G37*
X32191600Y-35924621D02*
X32191600Y-36229179D01*
X32050179Y-36370600D01*
X31745621Y-36370600D01*
X31604200Y-36229179D01*
X31604200Y-35924621D01*
X31745621Y-35783200D01*
X32050179Y-35783200D01*
X32191600Y-35924621D01*
G36*
X32191600Y-35924621D02*
G01*
X32191600Y-36229179D01*
X32050179Y-36370600D01*
X31745621Y-36370600D01*
X31604200Y-36229179D01*
X31604200Y-35924621D01*
X31745621Y-35783200D01*
X32050179Y-35783200D01*
X32191600Y-35924621D01*
G37*
X30616800Y-35137221D02*
X30616800Y-35441779D01*
X30475379Y-35583200D01*
X30170821Y-35583200D01*
X30029400Y-35441779D01*
X30029400Y-35137221D01*
X30170821Y-34995800D01*
X30475379Y-34995800D01*
X30616800Y-35137221D01*
G36*
X30616800Y-35137221D02*
G01*
X30616800Y-35441779D01*
X30475379Y-35583200D01*
X30170821Y-35583200D01*
X30029400Y-35441779D01*
X30029400Y-35137221D01*
X30170821Y-34995800D01*
X30475379Y-34995800D01*
X30616800Y-35137221D01*
G37*
X31404200Y-35137221D02*
X31404200Y-35441779D01*
X31262779Y-35583200D01*
X30958221Y-35583200D01*
X30816800Y-35441779D01*
X30816800Y-35137221D01*
X30958221Y-34995800D01*
X31262779Y-34995800D01*
X31404200Y-35137221D01*
G36*
X31404200Y-35137221D02*
G01*
X31404200Y-35441779D01*
X31262779Y-35583200D01*
X30958221Y-35583200D01*
X30816800Y-35441779D01*
X30816800Y-35137221D01*
X30958221Y-34995800D01*
X31262779Y-34995800D01*
X31404200Y-35137221D01*
G37*
X32191600Y-35137221D02*
X32191600Y-35441779D01*
X32050179Y-35583200D01*
X31745621Y-35583200D01*
X31604200Y-35441779D01*
X31604200Y-35137221D01*
X31745621Y-34995800D01*
X32050179Y-34995800D01*
X32191600Y-35137221D01*
G36*
X32191600Y-35137221D02*
G01*
X32191600Y-35441779D01*
X32050179Y-35583200D01*
X31745621Y-35583200D01*
X31604200Y-35441779D01*
X31604200Y-35137221D01*
X31745621Y-34995800D01*
X32050179Y-34995800D01*
X32191600Y-35137221D01*
G37*
X30616800Y-34349821D02*
X30616800Y-34654379D01*
X30475379Y-34795800D01*
X30170821Y-34795800D01*
X30029400Y-34654379D01*
X30029400Y-34349821D01*
X30170821Y-34208400D01*
X30475379Y-34208400D01*
X30616800Y-34349821D01*
G36*
X30616800Y-34349821D02*
G01*
X30616800Y-34654379D01*
X30475379Y-34795800D01*
X30170821Y-34795800D01*
X30029400Y-34654379D01*
X30029400Y-34349821D01*
X30170821Y-34208400D01*
X30475379Y-34208400D01*
X30616800Y-34349821D01*
G37*
X31404200Y-34349821D02*
X31404200Y-34654379D01*
X31262779Y-34795800D01*
X30958221Y-34795800D01*
X30816800Y-34654379D01*
X30816800Y-34349821D01*
X30958221Y-34208400D01*
X31262779Y-34208400D01*
X31404200Y-34349821D01*
G36*
X31404200Y-34349821D02*
G01*
X31404200Y-34654379D01*
X31262779Y-34795800D01*
X30958221Y-34795800D01*
X30816800Y-34654379D01*
X30816800Y-34349821D01*
X30958221Y-34208400D01*
X31262779Y-34208400D01*
X31404200Y-34349821D01*
G37*
X32191600Y-34349821D02*
X32191600Y-34654379D01*
X32050179Y-34795800D01*
X31745621Y-34795800D01*
X31604200Y-34654379D01*
X31604200Y-34349821D01*
X31745621Y-34208400D01*
X32050179Y-34208400D01*
X32191600Y-34349821D01*
G36*
X32191600Y-34349821D02*
G01*
X32191600Y-34654379D01*
X32050179Y-34795800D01*
X31745621Y-34795800D01*
X31604200Y-34654379D01*
X31604200Y-34349821D01*
X31745621Y-34208400D01*
X32050179Y-34208400D01*
X32191600Y-34349821D01*
G37*
%TD*%
D11*
%TO.C,C8*%
X25580000Y-37833000D03*
X24620000Y-37833000D03*
%TD*%
%TO.C,R1*%
X35380000Y-37789500D03*
X34420000Y-37789500D03*
%TD*%
D12*
%TO.C,C4*%
X26830500Y-33800000D03*
X27790500Y-33800000D03*
%TD*%
D13*
%TO.C,C1*%
X27700000Y-37430000D03*
X27700000Y-36470000D03*
%TD*%
D14*
%TO.C,U1*%
X29610500Y-37689500D03*
X30110499Y-37689500D03*
X30610501Y-37689500D03*
X31110500Y-37689500D03*
X31610499Y-37689500D03*
X32110501Y-37689500D03*
X32610500Y-37689500D03*
D15*
X33510500Y-36789500D03*
X33510500Y-36289501D03*
X33510500Y-35789499D03*
X33510500Y-35289500D03*
X33510500Y-34789501D03*
X33510500Y-34289499D03*
X33510500Y-33789500D03*
D14*
X32610500Y-32889500D03*
X32110501Y-32889500D03*
X31610499Y-32889500D03*
X31110500Y-32889500D03*
X30610501Y-32889500D03*
X30110499Y-32889500D03*
X29610500Y-32889500D03*
D15*
X28710500Y-33789500D03*
X28710500Y-34289499D03*
X28710500Y-34789501D03*
X28710500Y-35289500D03*
X28710500Y-35789499D03*
X28710500Y-36289501D03*
X28710500Y-36789500D03*
%TD*%
D12*
%TO.C,C7*%
X34620000Y-34800000D03*
X35580000Y-34800000D03*
%TD*%
%TO.C,C9*%
X23620000Y-32500000D03*
X24580000Y-32500000D03*
%TD*%
D11*
%TO.C,C5*%
X27790500Y-32800000D03*
X26830500Y-32800000D03*
%TD*%
D16*
%TO.C,U2*%
X25450000Y-34015000D03*
X24500000Y-34015000D03*
X23550000Y-34015000D03*
X23550000Y-36385000D03*
X25450000Y-36385000D03*
%TD*%
D17*
%TO.C,C2*%
X26600000Y-36820000D03*
X26600000Y-37780000D03*
%TD*%
D12*
%TO.C,C3*%
X26850500Y-35300000D03*
X27810500Y-35300000D03*
%TD*%
D17*
%TO.C,C6*%
X34610500Y-35809500D03*
X34610500Y-36769500D03*
%TD*%
%TO.C,R2*%
X35610500Y-35809500D03*
X35610500Y-36769500D03*
%TD*%
M02*
