M48
; DRILL file {KiCad 7.0.9-7.0.9~ubuntu22.04.1} date Thu 28 Dec 2023 15:22:52 GMT
; FORMAT={-:-/ absolute / inch / decimal}
; #@! TF.CreationDate,2023-12-28T15:22:52+00:00
; #@! TF.GenerationSoftware,Kicad,Pcbnew,7.0.9-7.0.9~ubuntu22.04.1
; #@! TF.FileFunction,Plated,1,4,PTH
FMAT,2
INCH
; #@! TA.AperFunction,Plated,PTH,ViaDrill
T1C0.0079
; #@! TA.AperFunction,Plated,PTH,ComponentDrill
T2C0.0256
%
G90
G05
T1
X0.9693Y-1.4047
X1.0197Y-1.2795
X1.0925Y-1.3642
X1.125Y-1.3022
X1.315Y-1.5039
T2
X1.0061Y-1.1811
X1.0061Y-1.5748
X1.0561Y-1.1811
X1.0561Y-1.5748
X1.1061Y-1.1811
X1.1061Y-1.5748
X1.1561Y-1.1811
X1.1561Y-1.5748
X1.2061Y-1.1811
X1.2061Y-1.5748
X1.2561Y-1.1811
X1.2561Y-1.5748
X1.3061Y-1.1811
X1.3061Y-1.5748
X1.3561Y-1.1811
X1.3561Y-1.5748
T0
M30
