%TF.GenerationSoftware,KiCad,Pcbnew,8.0.1-unknown-202403172319~81f55dfc9c~ubuntu22.04.1*%
%TF.CreationDate,2024-06-20T11:17:16+01:00*%
%TF.ProjectId,EMG_DAQ_ADS1293,454d475f-4441-4515-9f41-445331323933,1.0*%
%TF.SameCoordinates,Original*%
%TF.FileFunction,Legend,Top*%
%TF.FilePolarity,Positive*%
%FSLAX46Y46*%
G04 Gerber Fmt 4.6, Leading zero omitted, Abs format (unit mm)*
G04 Created by KiCad (PCBNEW 8.0.1-unknown-202403172319~81f55dfc9c~ubuntu22.04.1) date 2024-06-20 11:17:16*
%MOMM*%
%LPD*%
G01*
G04 APERTURE LIST*
G04 Aperture macros list*
%AMRoundRect*
0 Rectangle with rounded corners*
0 $1 Rounding radius*
0 $2 $3 $4 $5 $6 $7 $8 $9 X,Y pos of 4 corners*
0 Add a 4 corners polygon primitive as box body*
4,1,4,$2,$3,$4,$5,$6,$7,$8,$9,$2,$3,0*
0 Add four circle primitives for the rounded corners*
1,1,$1+$1,$2,$3*
1,1,$1+$1,$4,$5*
1,1,$1+$1,$6,$7*
1,1,$1+$1,$8,$9*
0 Add four rect primitives between the rounded corners*
20,1,$1+$1,$2,$3,$4,$5,0*
20,1,$1+$1,$4,$5,$6,$7,0*
20,1,$1+$1,$6,$7,$8,$9,0*
20,1,$1+$1,$8,$9,$2,$3,0*%
G04 Aperture macros list end*
%ADD10C,0.120000*%
%ADD11C,0.500000*%
%ADD12C,0.250000*%
%ADD13C,0.000000*%
%ADD14C,0.100000*%
%ADD15R,1.000000X1.000000*%
%ADD16RoundRect,0.140000X0.140000X0.170000X-0.140000X0.170000X-0.140000X-0.170000X0.140000X-0.170000X0*%
%ADD17RoundRect,0.140000X-0.140000X-0.170000X0.140000X-0.170000X0.140000X0.170000X-0.140000X0.170000X0*%
%ADD18RoundRect,0.140000X0.170000X-0.140000X0.170000X0.140000X-0.170000X0.140000X-0.170000X-0.140000X0*%
%ADD19R,0.250000X0.600000*%
%ADD20R,0.600000X0.250000*%
%ADD21R,0.620000X1.100000*%
%ADD22RoundRect,0.140000X-0.170000X0.140000X-0.170000X-0.140000X0.170000X-0.140000X0.170000X0.140000X0*%
G04 APERTURE END LIST*
D10*
%TO.C,J3*%
X27095500Y-37575500D02*
X26333500Y-37575500D01*
X27095500Y-38845500D02*
X26333500Y-38845500D01*
%TO.C,C8*%
X25097336Y-35683500D02*
X24881664Y-35683500D01*
X25097336Y-36403500D02*
X24881664Y-36403500D01*
%TO.C,R1*%
X34897336Y-35640000D02*
X34681664Y-35640000D01*
X34897336Y-36360000D02*
X34681664Y-36360000D01*
%TO.C,J1*%
X28365500Y-27575500D02*
X27603500Y-27575500D01*
X28365500Y-28845500D02*
X27603500Y-28845500D01*
%TO.C,J2*%
X25825500Y-37575500D02*
X25063500Y-37575500D01*
X25825500Y-38845500D02*
X25063500Y-38845500D01*
%TO.C,J9*%
X28873500Y-27575500D02*
X29635500Y-27575500D01*
X28873500Y-28845500D02*
X29635500Y-28845500D01*
%TO.C,J15*%
X33445500Y-37575500D02*
X32683500Y-37575500D01*
X33445500Y-38845500D02*
X32683500Y-38845500D01*
%TO.C,J7*%
X33953500Y-27575500D02*
X34715500Y-27575500D01*
X33953500Y-28845500D02*
X34715500Y-28845500D01*
%TO.C,C4*%
X27092164Y-31650500D02*
X27307836Y-31650500D01*
X27092164Y-32370500D02*
X27307836Y-32370500D01*
%TO.C,C1*%
X27229500Y-35268336D02*
X27229500Y-35052664D01*
X27949500Y-35268336D02*
X27949500Y-35052664D01*
%TO.C,U1*%
X28450000Y-30950000D02*
X28450000Y-31650000D01*
X28450000Y-35350000D02*
X28450000Y-36050000D01*
X28450000Y-36050000D02*
X29150000Y-36050000D01*
X29150000Y-30950000D02*
X28450000Y-30950000D01*
X32850000Y-36050000D02*
X33550000Y-36050000D01*
X33550000Y-30950000D02*
X32850000Y-30950000D01*
X33550000Y-31650000D02*
X33550000Y-30950000D01*
X33550000Y-36050000D02*
X33550000Y-35350000D01*
D11*
X28700000Y-36050000D02*
G75*
G02*
X28200000Y-36050000I-250000J0D01*
G01*
X28200000Y-36050000D02*
G75*
G02*
X28700000Y-36050000I250000J0D01*
G01*
D10*
%TO.C,C7*%
X34881664Y-32650500D02*
X35097336Y-32650500D01*
X34881664Y-33370500D02*
X35097336Y-33370500D01*
%TO.C,C9*%
X23881664Y-30350500D02*
X24097336Y-30350500D01*
X23881664Y-31070500D02*
X24097336Y-31070500D01*
%TO.C,C5*%
X27307836Y-30650500D02*
X27092164Y-30650500D01*
X27307836Y-31370500D02*
X27092164Y-31370500D01*
D12*
%TO.C,U2*%
X23039792Y-33000000D02*
X25839792Y-33000000D01*
X23039792Y-34000000D02*
X23039792Y-33000000D01*
X25839792Y-33000000D02*
X25839792Y-34000000D01*
X25839792Y-34000000D02*
X23039792Y-34000000D01*
X26239827Y-31979584D02*
G75*
G02*
X26229792Y-31980000I-34J-120416D01*
G01*
D10*
%TO.C,J5*%
X29635500Y-37575500D02*
X28873500Y-37575500D01*
X29635500Y-38845500D02*
X28873500Y-38845500D01*
%TO.C,J4*%
X28365500Y-37575500D02*
X27603500Y-37575500D01*
X28365500Y-38845500D02*
X27603500Y-38845500D01*
%TO.C,J10*%
X30143500Y-27575500D02*
X30905500Y-27575500D01*
X30143500Y-28845500D02*
X30905500Y-28845500D01*
%TO.C,C2*%
X26129500Y-35402664D02*
X26129500Y-35618336D01*
X26849500Y-35402664D02*
X26849500Y-35618336D01*
%TO.C,J14*%
X27095500Y-27575500D02*
X26333500Y-27575500D01*
X27095500Y-28845500D02*
X26333500Y-28845500D01*
D13*
%TO.C,kibuzzard-658D7E24*%
G36*
X30703667Y-29879953D02*
G01*
X30555871Y-29879953D01*
X30629213Y-29727712D01*
X30703667Y-29879953D01*
G37*
G36*
X32757257Y-29879953D02*
G01*
X32609461Y-29879953D01*
X32682803Y-29727712D01*
X32757257Y-29879953D01*
G37*
G36*
X36045446Y-29597696D02*
G01*
X36057114Y-29622699D01*
X36059892Y-29654925D01*
X36037111Y-29696041D01*
X35970992Y-29716599D01*
X35908206Y-29694374D01*
X35888760Y-29646591D01*
X35910151Y-29590750D01*
X35974326Y-29572137D01*
X36045446Y-29597696D01*
G37*
G36*
X29849255Y-29615059D02*
G01*
X29917458Y-29660481D01*
X29964547Y-29728406D01*
X29980243Y-29811056D01*
X29964130Y-29893427D01*
X29915791Y-29960519D01*
X29847449Y-30005108D01*
X29771328Y-30019971D01*
X29663537Y-30019971D01*
X29663537Y-29599918D01*
X29770217Y-29599918D01*
X29849255Y-29615059D01*
G37*
G36*
X33535271Y-29615059D02*
G01*
X33603474Y-29660481D01*
X33650563Y-29728406D01*
X33666260Y-29811056D01*
X33650146Y-29893427D01*
X33601807Y-29960519D01*
X33533465Y-30005108D01*
X33457345Y-30019971D01*
X33349553Y-30019971D01*
X33349553Y-29599918D01*
X33456233Y-29599918D01*
X33535271Y-29615059D01*
G37*
G36*
X31560024Y-29605197D02*
G01*
X31627671Y-29651036D01*
X31663170Y-29696226D01*
X31684469Y-29750307D01*
X31691568Y-29813278D01*
X31684530Y-29876125D01*
X31663417Y-29929836D01*
X31628227Y-29974409D01*
X31560996Y-30019415D01*
X31485987Y-30034417D01*
X31410839Y-30018998D01*
X31343191Y-29972743D01*
X31307693Y-29927490D01*
X31286394Y-29873965D01*
X31279295Y-29812167D01*
X31286332Y-29750369D01*
X31307446Y-29696844D01*
X31342636Y-29651591D01*
X31409866Y-29605335D01*
X31484876Y-29589917D01*
X31560024Y-29605197D01*
G37*
G36*
X37308196Y-30602636D02*
G01*
X36937780Y-30602636D01*
X36625518Y-30602636D01*
X35814306Y-30602636D01*
X35550940Y-30602636D01*
X34847518Y-30602636D01*
X34214106Y-30602636D01*
X33454011Y-30602636D01*
X32967839Y-30602636D01*
X31491543Y-30602636D01*
X30914249Y-30602636D01*
X29767995Y-30602636D01*
X28785650Y-30602636D01*
X28207800Y-30602636D01*
X27254347Y-30602636D01*
X26716502Y-30602636D01*
X26346085Y-30602636D01*
X25870804Y-30602636D01*
X26015933Y-30118872D01*
X26716502Y-30118872D01*
X26723170Y-30175546D01*
X26752618Y-30207216D01*
X26814292Y-30217773D01*
X27254347Y-30217773D01*
X27312132Y-30211106D01*
X27342969Y-30181658D01*
X27353248Y-30119983D01*
X27352957Y-30117761D01*
X27425480Y-30117761D01*
X27427146Y-30157766D01*
X27437703Y-30186658D01*
X27467151Y-30209161D01*
X27522158Y-30216662D01*
X27578832Y-30209161D01*
X27608836Y-30186658D01*
X27619393Y-30158321D01*
X27621060Y-30119983D01*
X27621060Y-29745492D01*
X27641618Y-29773134D01*
X27692180Y-29842726D01*
X27746909Y-29917597D01*
X27779968Y-29961074D01*
X27788858Y-29973298D01*
X27818306Y-29996079D01*
X27863868Y-30007747D01*
X27910540Y-29994968D01*
X27937766Y-29974965D01*
X27957768Y-29948851D01*
X27981938Y-29915930D01*
X28025555Y-29854950D01*
X28072505Y-29790081D01*
X28106676Y-29745492D01*
X28106676Y-30117761D01*
X28112232Y-30175546D01*
X28127790Y-30197771D01*
X28156682Y-30211106D01*
X28207800Y-30216662D01*
X28261140Y-30209994D01*
X28292810Y-30180824D01*
X28303367Y-30119983D01*
X28303367Y-29802166D01*
X28375598Y-29802166D01*
X28383238Y-29887280D01*
X28406158Y-29965936D01*
X28444357Y-30038133D01*
X28497836Y-30103870D01*
X28561663Y-30158564D01*
X28630908Y-30197632D01*
X28705570Y-30221072D01*
X28785650Y-30228886D01*
X28873161Y-30222843D01*
X28949003Y-30204716D01*
X29013178Y-30174504D01*
X29065685Y-30132207D01*
X29072316Y-30117761D01*
X29466846Y-30117761D01*
X29480181Y-30188881D01*
X29509629Y-30209717D01*
X29564636Y-30216662D01*
X29767995Y-30216662D01*
X29849845Y-30209091D01*
X29925375Y-30186380D01*
X29994585Y-30148528D01*
X30007361Y-30137763D01*
X30221385Y-30137763D01*
X30237498Y-30175546D01*
X30285837Y-30208883D01*
X30345289Y-30227774D01*
X30380849Y-30217218D01*
X30400851Y-30196659D01*
X30418076Y-30164433D01*
X30475861Y-30044418D01*
X30783677Y-30044418D01*
X30841462Y-30164433D01*
X30858686Y-30197771D01*
X30878689Y-30218884D01*
X30914249Y-30228886D01*
X30973701Y-30209994D01*
X31022040Y-30175823D01*
X31038153Y-30137763D01*
X31019262Y-30081089D01*
X30891827Y-29817723D01*
X31082603Y-29817723D01*
X31090000Y-29899261D01*
X31112190Y-29974965D01*
X31149174Y-30044835D01*
X31200951Y-30108871D01*
X31263494Y-30162350D01*
X31332773Y-30200549D01*
X31408790Y-30223468D01*
X31491543Y-30231108D01*
X31574640Y-30222218D01*
X31652057Y-30195548D01*
X31723795Y-30151098D01*
X31763800Y-30177768D01*
X31794915Y-30198882D01*
X31859367Y-30228886D01*
X31893538Y-30216662D01*
X31927153Y-30179991D01*
X31945647Y-30137763D01*
X32274975Y-30137763D01*
X32291088Y-30175546D01*
X32339427Y-30208883D01*
X32398879Y-30227774D01*
X32434439Y-30217218D01*
X32454441Y-30196659D01*
X32471666Y-30164433D01*
X32529451Y-30044418D01*
X32837267Y-30044418D01*
X32895052Y-30164433D01*
X32912276Y-30197771D01*
X32932279Y-30218884D01*
X32967839Y-30228886D01*
X33027291Y-30209994D01*
X33075630Y-30175823D01*
X33091743Y-30137763D01*
X33085076Y-30117761D01*
X33152862Y-30117761D01*
X33166197Y-30188881D01*
X33195645Y-30209717D01*
X33250652Y-30216662D01*
X33454011Y-30216662D01*
X33535861Y-30209091D01*
X33611392Y-30186380D01*
X33680602Y-30148528D01*
X33743491Y-30095536D01*
X33789617Y-30039418D01*
X33918513Y-30039418D01*
X33947406Y-30103314D01*
X33957407Y-30115538D01*
X33989633Y-30149431D01*
X34039640Y-30184436D01*
X34115205Y-30216106D01*
X34163266Y-30225691D01*
X34214106Y-30228886D01*
X34280904Y-30222342D01*
X34344986Y-30202710D01*
X34406352Y-30169989D01*
X34448580Y-30133735D01*
X34481917Y-30084979D01*
X34503586Y-30025666D01*
X34510810Y-29957741D01*
X34503725Y-29891205D01*
X34482473Y-29836059D01*
X34450663Y-29793970D01*
X34411908Y-29766606D01*
X34367736Y-29748131D01*
X34319675Y-29732713D01*
X34271613Y-29720628D01*
X34227441Y-29712154D01*
X34156876Y-29686596D01*
X34143504Y-29663259D01*
X34555260Y-29663259D01*
X34590264Y-29732157D01*
X34657495Y-29771051D01*
X34735282Y-29736602D01*
X34749728Y-29723267D01*
X34749728Y-30119983D01*
X34751395Y-30160544D01*
X34761952Y-30191103D01*
X34791678Y-30212773D01*
X34847518Y-30219996D01*
X34904748Y-30212495D01*
X34934196Y-30189992D01*
X34944753Y-30160544D01*
X34946420Y-30122206D01*
X34946420Y-30119983D01*
X35018651Y-30119983D01*
X35047543Y-30189992D01*
X35116441Y-30219996D01*
X35550940Y-30219996D01*
X35619837Y-30206661D01*
X35643729Y-30177768D01*
X35650952Y-30121650D01*
X35644285Y-30064976D01*
X35618170Y-30032750D01*
X35553162Y-30022193D01*
X35349803Y-30022193D01*
X35349803Y-30016637D01*
X35377585Y-30005524D01*
X35446482Y-29968020D01*
X35524270Y-29906623D01*
X35560385Y-29866618D01*
X35590945Y-29815501D01*
X35611781Y-29757160D01*
X35618726Y-29695486D01*
X35613605Y-29653258D01*
X35695402Y-29653258D01*
X35704107Y-29711969D01*
X35730221Y-29766606D01*
X35773745Y-29817168D01*
X35829369Y-29857605D01*
X35891785Y-29881867D01*
X35960991Y-29889954D01*
X36044335Y-29871063D01*
X36038778Y-29886621D01*
X36016831Y-29925514D01*
X35977660Y-29968853D01*
X35911540Y-30006636D01*
X35823196Y-30022193D01*
X35758743Y-30028861D01*
X35727073Y-30058309D01*
X35716516Y-30119983D01*
X35724295Y-30176379D01*
X35747631Y-30207772D01*
X35807638Y-30218884D01*
X35814306Y-30218884D01*
X35893916Y-30213195D01*
X35966503Y-30196126D01*
X36032066Y-30167678D01*
X36090607Y-30127851D01*
X36142125Y-30076644D01*
X36185330Y-30016948D01*
X36206650Y-29975521D01*
X36317702Y-29975521D01*
X36329926Y-30035528D01*
X36332148Y-30046641D01*
X36344372Y-30075533D01*
X36371876Y-30119705D01*
X36403268Y-30154432D01*
X36467474Y-30197647D01*
X36541557Y-30223576D01*
X36625518Y-30232219D01*
X36710097Y-30223638D01*
X36784551Y-30197894D01*
X36848880Y-30154988D01*
X36898268Y-30098869D01*
X36927902Y-30033491D01*
X36937780Y-29958852D01*
X36928612Y-29902178D01*
X36901108Y-29852172D01*
X36866104Y-29816056D01*
X36833322Y-29792164D01*
X36833322Y-29784386D01*
X36881476Y-29749505D01*
X36910369Y-29702647D01*
X36920000Y-29643813D01*
X36911233Y-29581150D01*
X36884933Y-29522810D01*
X36841101Y-29468791D01*
X36782081Y-29425575D01*
X36710220Y-29399646D01*
X36625518Y-29391003D01*
X36570373Y-29394893D01*
X36520505Y-29406561D01*
X36447163Y-29441009D01*
X36401046Y-29484904D01*
X36376598Y-29519908D01*
X36351040Y-29595473D01*
X36364930Y-29635200D01*
X36406602Y-29669927D01*
X36467721Y-29689929D01*
X36509948Y-29676039D01*
X36541063Y-29634367D01*
X36547731Y-29621032D01*
X36576623Y-29594362D01*
X36639409Y-29581027D01*
X36701083Y-29602141D01*
X36723308Y-29646591D01*
X36702195Y-29679095D01*
X36638853Y-29689929D01*
X36581068Y-29695486D01*
X36550231Y-29725767D01*
X36539952Y-29787719D01*
X36547453Y-29844671D01*
X36569956Y-29873286D01*
X36598848Y-29884398D01*
X36649410Y-29886621D01*
X36713863Y-29909401D01*
X36741088Y-29962186D01*
X36713307Y-30016081D01*
X36677747Y-30034000D01*
X36626630Y-30039973D01*
X36579957Y-30033306D01*
X36518838Y-29979966D01*
X36485501Y-29922181D01*
X36426605Y-29911068D01*
X36344928Y-29927181D01*
X36317702Y-29975521D01*
X36206650Y-29975521D01*
X36218934Y-29951651D01*
X36242937Y-29880753D01*
X36257339Y-29804255D01*
X36262140Y-29722156D01*
X36253990Y-29630354D01*
X36229543Y-29550529D01*
X36188797Y-29482681D01*
X36131876Y-29431132D01*
X36058904Y-29400202D01*
X35969881Y-29389892D01*
X35897403Y-29398288D01*
X35832580Y-29423476D01*
X35775412Y-29465457D01*
X35730962Y-29519908D01*
X35704292Y-29582509D01*
X35695402Y-29653258D01*
X35613605Y-29653258D01*
X35609465Y-29619118D01*
X35581684Y-29548554D01*
X35535382Y-29483793D01*
X35474202Y-29432243D01*
X35401785Y-29401313D01*
X35318133Y-29391003D01*
X35234542Y-29401190D01*
X35162311Y-29431749D01*
X35101439Y-29482681D01*
X35055446Y-29546455D01*
X35027849Y-29615537D01*
X35018651Y-29689929D01*
X35024207Y-29746603D01*
X35054489Y-29778274D01*
X35116441Y-29788831D01*
X35173115Y-29782163D01*
X35203118Y-29762161D01*
X35213675Y-29734379D01*
X35215342Y-29697708D01*
X35215342Y-29691041D01*
X35219787Y-29665482D01*
X35249235Y-29613809D01*
X35310910Y-29587694D01*
X35366472Y-29597696D01*
X35395920Y-29619365D01*
X35413145Y-29649369D01*
X35420923Y-29677706D01*
X35410505Y-29726323D01*
X35379251Y-29772162D01*
X35333273Y-29814250D01*
X35278683Y-29851616D01*
X35219787Y-29886898D01*
X35160891Y-29922736D01*
X35106301Y-29962463D01*
X35060323Y-30009414D01*
X35029069Y-30062337D01*
X35018651Y-30119983D01*
X34946420Y-30119983D01*
X34946420Y-29503239D01*
X34940863Y-29444343D01*
X34925306Y-29420451D01*
X34896413Y-29407672D01*
X34843629Y-29402116D01*
X34780843Y-29431008D01*
X34777510Y-29433231D01*
X34595265Y-29597696D01*
X34555260Y-29663259D01*
X34143504Y-29663259D01*
X34128540Y-29637145D01*
X34152431Y-29589361D01*
X34212439Y-29572137D01*
X34271891Y-29586583D01*
X34289115Y-29601029D01*
X34301895Y-29612142D01*
X34359680Y-29634367D01*
X34399129Y-29620476D01*
X34437467Y-29578804D01*
X34464137Y-29517686D01*
X34429688Y-29463234D01*
X34401907Y-29442121D01*
X34325786Y-29407116D01*
X34267863Y-29394198D01*
X34204105Y-29389892D01*
X34126255Y-29397979D01*
X34060136Y-29422242D01*
X34005746Y-29462679D01*
X33965309Y-29513981D01*
X33941047Y-29570840D01*
X33932960Y-29633256D01*
X33940044Y-29699236D01*
X33961296Y-29754938D01*
X33993106Y-29798693D01*
X34031861Y-29828836D01*
X34075755Y-29850644D01*
X34122983Y-29869396D01*
X34170211Y-29884259D01*
X34214106Y-29894399D01*
X34284670Y-29919403D01*
X34313007Y-29962186D01*
X34301524Y-30009105D01*
X34267075Y-30037257D01*
X34209661Y-30046641D01*
X34156321Y-30029416D01*
X34111871Y-29993301D01*
X34062420Y-29951629D01*
X34025193Y-29937738D01*
X33966297Y-29964408D01*
X33930459Y-30006497D01*
X33918513Y-30039418D01*
X33789617Y-30039418D01*
X33795755Y-30031951D01*
X33833086Y-29962325D01*
X33855485Y-29886655D01*
X33862951Y-29804944D01*
X33855311Y-29723545D01*
X33832391Y-29648813D01*
X33794192Y-29580749D01*
X33740713Y-29519353D01*
X33677164Y-29468548D01*
X33608752Y-29432258D01*
X33535479Y-29410485D01*
X33457345Y-29403227D01*
X33251763Y-29402116D01*
X33194534Y-29409617D01*
X33165086Y-29432119D01*
X33154529Y-29461012D01*
X33152862Y-29499906D01*
X33152862Y-30117761D01*
X33085076Y-30117761D01*
X33072852Y-30081089D01*
X32772815Y-29461012D01*
X32736143Y-29417673D01*
X32683915Y-29403227D01*
X32631130Y-29418784D01*
X32593903Y-29459901D01*
X32293866Y-30081089D01*
X32274975Y-30137763D01*
X31945647Y-30137763D01*
X31960491Y-30103870D01*
X31920486Y-30046641D01*
X31847143Y-29996634D01*
X31869986Y-29935763D01*
X31883691Y-29874644D01*
X31888260Y-29813278D01*
X31880689Y-29726114D01*
X31857978Y-29646868D01*
X31820126Y-29575540D01*
X31767133Y-29512129D01*
X31703862Y-29460109D01*
X31635172Y-29422952D01*
X31561066Y-29400657D01*
X31481542Y-29393226D01*
X31405977Y-29401004D01*
X31332635Y-29424341D01*
X31264571Y-29461290D01*
X31204841Y-29509907D01*
X31154835Y-29570887D01*
X31115941Y-29644924D01*
X31090938Y-29728406D01*
X31082603Y-29817723D01*
X30891827Y-29817723D01*
X30719225Y-29461012D01*
X30682553Y-29417673D01*
X30630325Y-29403227D01*
X30577540Y-29418784D01*
X30540313Y-29459901D01*
X30240276Y-30081089D01*
X30221385Y-30137763D01*
X30007361Y-30137763D01*
X30057475Y-30095536D01*
X30109739Y-30031951D01*
X30147070Y-29962325D01*
X30169468Y-29886655D01*
X30176935Y-29804944D01*
X30169295Y-29723545D01*
X30146375Y-29648813D01*
X30108176Y-29580749D01*
X30054697Y-29519353D01*
X29991147Y-29468548D01*
X29922736Y-29432258D01*
X29849463Y-29410485D01*
X29771328Y-29403227D01*
X29565747Y-29402116D01*
X29508518Y-29409617D01*
X29479070Y-29432119D01*
X29468513Y-29461012D01*
X29466846Y-29499906D01*
X29466846Y-30117761D01*
X29072316Y-30117761D01*
X29096800Y-30064421D01*
X29096800Y-29819946D01*
X29085687Y-29757716D01*
X29012345Y-29726601D01*
X28816765Y-29726601D01*
X28763425Y-29736602D01*
X28745089Y-29761049D01*
X28740088Y-29808278D01*
X28744533Y-29854950D01*
X28763425Y-29881064D01*
X28812320Y-29889954D01*
X28900108Y-29889954D01*
X28900108Y-30011081D01*
X28848157Y-30026083D01*
X28790095Y-30031083D01*
X28710085Y-30014275D01*
X28638965Y-29963853D01*
X28601923Y-29915822D01*
X28579698Y-29861371D01*
X28572290Y-29800499D01*
X28588681Y-29713543D01*
X28637853Y-29644924D01*
X28708140Y-29600335D01*
X28787872Y-29585472D01*
X28847880Y-29593112D01*
X28898997Y-29616031D01*
X28966783Y-29646591D01*
X29004288Y-29631867D01*
X29045682Y-29587694D01*
X29071241Y-29524909D01*
X29041237Y-29475458D01*
X28961844Y-29427304D01*
X28879242Y-29398411D01*
X28793428Y-29388781D01*
X28711751Y-29396177D01*
X28635631Y-29418368D01*
X28565066Y-29455351D01*
X28500058Y-29507129D01*
X28445607Y-29569949D01*
X28406713Y-29640062D01*
X28383377Y-29717468D01*
X28375598Y-29802166D01*
X28303367Y-29802166D01*
X28303367Y-29503239D01*
X28301700Y-29464346D01*
X28291143Y-29434342D01*
X28261834Y-29411839D01*
X28205021Y-29404338D01*
X28147375Y-29411839D01*
X28115566Y-29434342D01*
X28085206Y-29473147D01*
X28044801Y-29525553D01*
X27994351Y-29591562D01*
X27933854Y-29671171D01*
X27863312Y-29764383D01*
X27611058Y-29433231D01*
X27604391Y-29426563D01*
X27576054Y-29411561D01*
X27524381Y-29404338D01*
X27467707Y-29411561D01*
X27437703Y-29433231D01*
X27427146Y-29462679D01*
X27425480Y-29501017D01*
X27425480Y-30117761D01*
X27352957Y-30117761D01*
X27345747Y-30062754D01*
X27323245Y-30033306D01*
X27293796Y-30022749D01*
X27255458Y-30021082D01*
X26913193Y-30021082D01*
X26913193Y-29908846D01*
X27130998Y-29908846D01*
X27188783Y-29902178D01*
X27220454Y-29872730D01*
X27231011Y-29811056D01*
X27223510Y-29753826D01*
X27201007Y-29724378D01*
X27171559Y-29713821D01*
X27133221Y-29712154D01*
X26913193Y-29712154D01*
X26913193Y-29599918D01*
X27254347Y-29599918D01*
X27312132Y-29593251D01*
X27342969Y-29563803D01*
X27353248Y-29502128D01*
X27345747Y-29444899D01*
X27323245Y-29415451D01*
X27293796Y-29404894D01*
X27255458Y-29403227D01*
X26817626Y-29403227D01*
X26737616Y-29423785D01*
X26716502Y-29501017D01*
X26716502Y-30118872D01*
X26015933Y-30118872D01*
X26346085Y-29018364D01*
X26716502Y-29018364D01*
X36937780Y-29018364D01*
X37308196Y-29018364D01*
X37308196Y-30602636D01*
G37*
D10*
%TO.C,C3*%
X27112164Y-33150500D02*
X27327836Y-33150500D01*
X27112164Y-33870500D02*
X27327836Y-33870500D01*
%TO.C,J8*%
X32175500Y-37575500D02*
X31413500Y-37575500D01*
X32175500Y-38845500D02*
X31413500Y-38845500D01*
%TO.C,J12*%
X33445500Y-27575500D02*
X32683500Y-27575500D01*
X33445500Y-28845500D02*
X32683500Y-28845500D01*
%TO.C,C6*%
X34140000Y-34392164D02*
X34140000Y-34607836D01*
X34860000Y-34392164D02*
X34860000Y-34607836D01*
%TO.C,R2*%
X35140000Y-34392164D02*
X35140000Y-34607836D01*
X35860000Y-34392164D02*
X35860000Y-34607836D01*
%TO.C,J16*%
X33953500Y-37575500D02*
X34715500Y-37575500D01*
X33953500Y-38845500D02*
X34715500Y-38845500D01*
%TO.C,J6*%
X30905500Y-37575500D02*
X30143500Y-37575500D01*
X30905500Y-38845500D02*
X30143500Y-38845500D01*
%TO.C,J11*%
X31413500Y-27575500D02*
X32175500Y-27575500D01*
X31413500Y-28845500D02*
X32175500Y-28845500D01*
%TO.C,J13*%
X25825500Y-27575500D02*
X25063500Y-27575500D01*
X25825500Y-28845500D02*
X25063500Y-28845500D01*
%TD*%
%LPC*%
D14*
%TO.C,U1*%
X32863500Y-35363500D02*
X29136500Y-35363500D01*
X29136500Y-31637100D01*
X32863500Y-31637100D01*
X32863500Y-35363500D01*
G36*
X32863500Y-35363500D02*
G01*
X29136500Y-35363500D01*
X29136500Y-31637100D01*
X32863500Y-31637100D01*
X32863500Y-35363500D01*
G37*
%TD*%
D15*
%TO.C,J3*%
X26714500Y-38210500D03*
%TD*%
D16*
%TO.C,C8*%
X25469500Y-36043500D03*
X24509500Y-36043500D03*
%TD*%
%TO.C,R1*%
X35269500Y-36000000D03*
X34309500Y-36000000D03*
%TD*%
D15*
%TO.C,J1*%
X27984500Y-28210500D03*
%TD*%
%TO.C,J2*%
X25444500Y-38210500D03*
%TD*%
%TO.C,J9*%
X29254500Y-28210500D03*
%TD*%
%TO.C,J15*%
X33064500Y-38210500D03*
%TD*%
%TO.C,J7*%
X34334500Y-28210500D03*
%TD*%
D17*
%TO.C,C4*%
X26720000Y-32010500D03*
X27680000Y-32010500D03*
%TD*%
D18*
%TO.C,C1*%
X27589500Y-35640500D03*
X27589500Y-34680500D03*
%TD*%
D19*
%TO.C,U1*%
X29500000Y-35900000D03*
X29999999Y-35900000D03*
X30500001Y-35900000D03*
X31000000Y-35900000D03*
X31499999Y-35900000D03*
X32000001Y-35900000D03*
X32500000Y-35900000D03*
D20*
X33400000Y-35000000D03*
X33400000Y-34500001D03*
X33400000Y-33999999D03*
X33400000Y-33500000D03*
X33400000Y-33000001D03*
X33400000Y-32499999D03*
X33400000Y-32000000D03*
D19*
X32500000Y-31100000D03*
X32000001Y-31100000D03*
X31499999Y-31100000D03*
X31000000Y-31100000D03*
X30500001Y-31100000D03*
X29999999Y-31100000D03*
X29500000Y-31100000D03*
D20*
X28600000Y-32000000D03*
X28600000Y-32499999D03*
X28600000Y-33000001D03*
X28600000Y-33500000D03*
X28600000Y-33999999D03*
X28600000Y-34500001D03*
X28600000Y-35000000D03*
%TD*%
D17*
%TO.C,C7*%
X34509500Y-33010500D03*
X35469500Y-33010500D03*
%TD*%
%TO.C,C9*%
X23509500Y-30710500D03*
X24469500Y-30710500D03*
%TD*%
D16*
%TO.C,C5*%
X27680000Y-31010500D03*
X26720000Y-31010500D03*
%TD*%
D21*
%TO.C,U2*%
X25409792Y-32200000D03*
X24459792Y-32200000D03*
X23509792Y-32200000D03*
X23509792Y-34800000D03*
X25409792Y-34800000D03*
%TD*%
D15*
%TO.C,J5*%
X29254500Y-38210500D03*
%TD*%
%TO.C,J4*%
X27984500Y-38210500D03*
%TD*%
%TO.C,J10*%
X30524500Y-28210500D03*
%TD*%
D22*
%TO.C,C2*%
X26489500Y-35030500D03*
X26489500Y-35990500D03*
%TD*%
D15*
%TO.C,J14*%
X26714500Y-28210500D03*
%TD*%
D17*
%TO.C,C3*%
X26740000Y-33510500D03*
X27700000Y-33510500D03*
%TD*%
D15*
%TO.C,J8*%
X31794500Y-38210500D03*
%TD*%
%TO.C,J12*%
X33064500Y-28210500D03*
%TD*%
D22*
%TO.C,C6*%
X34500000Y-34020000D03*
X34500000Y-34980000D03*
%TD*%
%TO.C,R2*%
X35500000Y-34020000D03*
X35500000Y-34980000D03*
%TD*%
D15*
%TO.C,J16*%
X34334500Y-38210500D03*
%TD*%
%TO.C,J6*%
X30524500Y-38210500D03*
%TD*%
%TO.C,J11*%
X31794500Y-28210500D03*
%TD*%
%TO.C,J13*%
X25444500Y-28210500D03*
%TD*%
%LPD*%
M02*
