M48
; DRILL file {KiCad 8.0.1-unknown-202403172319~81f55dfc9c~ubuntu22.04.1} date 2024-06-20T11:17:16+0100
; FORMAT={-:-/ absolute / inch / decimal}
; #@! TF.CreationDate,2024-06-20T11:17:16+01:00
; #@! TF.GenerationSoftware,Kicad,Pcbnew,8.0.1-unknown-202403172319~81f55dfc9c~ubuntu22.04.1
; #@! TF.FileFunction,Plated,1,4,PTH
FMAT,2
INCH
; #@! TA.AperFunction,Plated,PTH,ViaDrill
T1C0.0118
; #@! TA.AperFunction,Plated,PTH,ComponentDrill
T2C0.0256
%
G90
G05
T1
X0.9649Y-1.3343
X1.0153Y-1.2091
X1.0882Y-1.2937
X1.1177Y-1.2317
X1.3106Y-1.4335
T2
X1.0018Y-1.1106
X1.0018Y-1.5044
X1.0518Y-1.1106
X1.0518Y-1.5044
X1.1018Y-1.1106
X1.1018Y-1.5044
X1.1518Y-1.1106
X1.1518Y-1.5044
X1.2018Y-1.1106
X1.2018Y-1.5044
X1.2518Y-1.1106
X1.2518Y-1.5044
X1.3018Y-1.1106
X1.3018Y-1.5044
X1.3518Y-1.1106
X1.3518Y-1.5044
M30
