%TF.GenerationSoftware,KiCad,Pcbnew,7.0.9-7.0.9~ubuntu22.04.1*%
%TF.CreationDate,2023-12-28T15:22:52+00:00*%
%TF.ProjectId,EMG_DAQ_ADS1293,454d475f-4441-4515-9f41-445331323933,1.0*%
%TF.SameCoordinates,Original*%
%TF.FileFunction,Copper,L2,Inr*%
%TF.FilePolarity,Positive*%
%FSLAX46Y46*%
G04 Gerber Fmt 4.6, Leading zero omitted, Abs format (unit mm)*
G04 Created by KiCad (PCBNEW 7.0.9-7.0.9~ubuntu22.04.1) date 2023-12-28 15:22:52*
%MOMM*%
%LPD*%
G01*
G04 APERTURE LIST*
%TA.AperFunction,ComponentPad*%
%ADD10R,1.000000X1.000000*%
%TD*%
%TA.AperFunction,ViaPad*%
%ADD11C,0.400000*%
%TD*%
G04 APERTURE END LIST*
D10*
%TO.N,/in1*%
%TO.C,J3*%
X26825000Y-40000000D03*
%TD*%
%TO.N,unconnected-(J1-Pin_1-Pad1)*%
%TO.C,J1*%
X28095000Y-30000000D03*
%TD*%
%TO.N,/in1*%
%TO.C,J2*%
X25555000Y-40000000D03*
%TD*%
%TO.N,/MISO*%
%TO.C,J9*%
X29365000Y-30000000D03*
%TD*%
%TO.N,/in4*%
%TO.C,J15*%
X33175000Y-40000000D03*
%TD*%
%TO.N,/extRef*%
%TO.C,J7*%
X34445000Y-30000000D03*
%TD*%
%TO.N,/in2*%
%TO.C,J5*%
X29365000Y-40000000D03*
%TD*%
%TO.N,/in2*%
%TO.C,J4*%
X28095000Y-40000000D03*
%TD*%
%TO.N,/MOSI*%
%TO.C,J10*%
X30635000Y-30000000D03*
%TD*%
%TO.N,GND*%
%TO.C,J14*%
X26825000Y-30000000D03*
%TD*%
%TO.N,/in3*%
%TO.C,J8*%
X31905000Y-40000000D03*
%TD*%
%TO.N,/CSB*%
%TO.C,J12*%
X33175000Y-30000000D03*
%TD*%
%TO.N,/in5*%
%TO.C,J16*%
X34445000Y-40000000D03*
%TD*%
%TO.N,/in3*%
%TO.C,J6*%
X30635000Y-40000000D03*
%TD*%
%TO.N,/SCLK*%
%TO.C,J11*%
X31905000Y-30000000D03*
%TD*%
%TO.N,+3.3V*%
%TO.C,J13*%
X25555000Y-30000000D03*
%TD*%
D11*
%TO.N,GND*%
X25900000Y-32500000D03*
X24620000Y-35680000D03*
%TO.N,XTAL2*%
X27750000Y-34650000D03*
%TO.N,XTAL1*%
X28575000Y-33075000D03*
%TO.N,/in6*%
X33400000Y-38200000D03*
%TD*%
%TA.AperFunction,Conductor*%
%TO.N,GND*%
G36*
X24615551Y-29030185D02*
G01*
X24661306Y-29082989D01*
X24671250Y-29152147D01*
X24647779Y-29208811D01*
X24611204Y-29257668D01*
X24611202Y-29257671D01*
X24560908Y-29392517D01*
X24554501Y-29452116D01*
X24554501Y-29452123D01*
X24554500Y-29452135D01*
X24554500Y-30547870D01*
X24554501Y-30547876D01*
X24560908Y-30607483D01*
X24611202Y-30742328D01*
X24611206Y-30742335D01*
X24697452Y-30857544D01*
X24697455Y-30857547D01*
X24812664Y-30943793D01*
X24812671Y-30943797D01*
X24947517Y-30994091D01*
X24947516Y-30994091D01*
X24954444Y-30994835D01*
X25007127Y-31000500D01*
X26102872Y-31000499D01*
X26162483Y-30994091D01*
X26162490Y-30994088D01*
X26162566Y-30994071D01*
X26162671Y-30994070D01*
X26170197Y-30993262D01*
X26170283Y-30994070D01*
X26209772Y-30994069D01*
X26209912Y-30992769D01*
X26277155Y-30999999D01*
X26277172Y-31000000D01*
X26575000Y-31000000D01*
X26575000Y-30207672D01*
X26612871Y-30252805D01*
X26712129Y-30310112D01*
X26796564Y-30325000D01*
X26853436Y-30325000D01*
X26937871Y-30310112D01*
X27037129Y-30252805D01*
X27075000Y-30207672D01*
X27075000Y-31000000D01*
X27372828Y-31000000D01*
X27372844Y-30999999D01*
X27440088Y-30992769D01*
X27440227Y-30994068D01*
X27479717Y-30994068D01*
X27479804Y-30993262D01*
X27487300Y-30994068D01*
X27487423Y-30994068D01*
X27487510Y-30994088D01*
X27487517Y-30994091D01*
X27487523Y-30994091D01*
X27487525Y-30994092D01*
X27496232Y-30995028D01*
X27547127Y-31000500D01*
X28642872Y-31000499D01*
X28690759Y-30995351D01*
X28710197Y-30993262D01*
X28710311Y-30994330D01*
X28749688Y-30994329D01*
X28749803Y-30993261D01*
X28757514Y-30994089D01*
X28757517Y-30994091D01*
X28817127Y-31000500D01*
X29912872Y-31000499D01*
X29960759Y-30995351D01*
X29980197Y-30993262D01*
X29980311Y-30994330D01*
X30019688Y-30994329D01*
X30019803Y-30993261D01*
X30027514Y-30994089D01*
X30027517Y-30994091D01*
X30087127Y-31000500D01*
X31182872Y-31000499D01*
X31230759Y-30995351D01*
X31250197Y-30993262D01*
X31250311Y-30994330D01*
X31289688Y-30994329D01*
X31289803Y-30993261D01*
X31297514Y-30994089D01*
X31297517Y-30994091D01*
X31357127Y-31000500D01*
X32452872Y-31000499D01*
X32500759Y-30995351D01*
X32520197Y-30993262D01*
X32520311Y-30994330D01*
X32559688Y-30994329D01*
X32559803Y-30993261D01*
X32567514Y-30994089D01*
X32567517Y-30994091D01*
X32627127Y-31000500D01*
X33722872Y-31000499D01*
X33770759Y-30995351D01*
X33790197Y-30993262D01*
X33790311Y-30994330D01*
X33829688Y-30994329D01*
X33829803Y-30993261D01*
X33837514Y-30994089D01*
X33837517Y-30994091D01*
X33897127Y-31000500D01*
X34992872Y-31000499D01*
X35052483Y-30994091D01*
X35187331Y-30943796D01*
X35302546Y-30857546D01*
X35388796Y-30742331D01*
X35439091Y-30607483D01*
X35445500Y-30547873D01*
X35445499Y-29452128D01*
X35439091Y-29392517D01*
X35423206Y-29349928D01*
X35388797Y-29257671D01*
X35388795Y-29257668D01*
X35352221Y-29208811D01*
X35327804Y-29143347D01*
X35342656Y-29075074D01*
X35392061Y-29025668D01*
X35451488Y-29010500D01*
X36746952Y-29010500D01*
X36753032Y-29010799D01*
X36800079Y-29015432D01*
X36882118Y-29023512D01*
X36905955Y-29028254D01*
X37021310Y-29063247D01*
X37043764Y-29072548D01*
X37096919Y-29100959D01*
X37150071Y-29129370D01*
X37170283Y-29142875D01*
X37263464Y-29219347D01*
X37280652Y-29236535D01*
X37357124Y-29329716D01*
X37370629Y-29349928D01*
X37427450Y-29456232D01*
X37436752Y-29478689D01*
X37471745Y-29594044D01*
X37476488Y-29617886D01*
X37489201Y-29746967D01*
X37489500Y-29753048D01*
X37489500Y-39246950D01*
X37489201Y-39253031D01*
X37476488Y-39382112D01*
X37471746Y-39405953D01*
X37436753Y-39521309D01*
X37427450Y-39543767D01*
X37370629Y-39650072D01*
X37357124Y-39670284D01*
X37280653Y-39763464D01*
X37263465Y-39780652D01*
X37170284Y-39857124D01*
X37150072Y-39870629D01*
X37043768Y-39927450D01*
X37021310Y-39936753D01*
X36905954Y-39971746D01*
X36882113Y-39976488D01*
X36753043Y-39989200D01*
X36746962Y-39989499D01*
X35569499Y-39989499D01*
X35502460Y-39969814D01*
X35456705Y-39917010D01*
X35445499Y-39865499D01*
X35445499Y-39452129D01*
X35445498Y-39452123D01*
X35445497Y-39452116D01*
X35439091Y-39392517D01*
X35435210Y-39382112D01*
X35388797Y-39257671D01*
X35388793Y-39257664D01*
X35302547Y-39142455D01*
X35302544Y-39142452D01*
X35187335Y-39056206D01*
X35187328Y-39056202D01*
X35052482Y-39005908D01*
X35052483Y-39005908D01*
X34992883Y-38999501D01*
X34992881Y-38999500D01*
X34992873Y-38999500D01*
X34992864Y-38999500D01*
X33897129Y-38999500D01*
X33897111Y-38999501D01*
X33892791Y-38999966D01*
X33824033Y-38987553D01*
X33772901Y-38939936D01*
X33755630Y-38872235D01*
X33777702Y-38805943D01*
X33797323Y-38783859D01*
X33800848Y-38780736D01*
X33800852Y-38780734D01*
X33928183Y-38667929D01*
X34024818Y-38527930D01*
X34085140Y-38368872D01*
X34105645Y-38200000D01*
X34085140Y-38031128D01*
X34024818Y-37872070D01*
X33928183Y-37732071D01*
X33800852Y-37619266D01*
X33800849Y-37619263D01*
X33650226Y-37540210D01*
X33485056Y-37499500D01*
X33314944Y-37499500D01*
X33149773Y-37540210D01*
X32999150Y-37619263D01*
X32871816Y-37732072D01*
X32775182Y-37872068D01*
X32714860Y-38031125D01*
X32714859Y-38031130D01*
X32694355Y-38200000D01*
X32714859Y-38368869D01*
X32714860Y-38368874D01*
X32775182Y-38527931D01*
X32837475Y-38618177D01*
X32871817Y-38667929D01*
X32999148Y-38780734D01*
X32999150Y-38780735D01*
X33001350Y-38782684D01*
X33038477Y-38841874D01*
X33037709Y-38911739D01*
X32999292Y-38970099D01*
X32935421Y-38998424D01*
X32919123Y-38999500D01*
X32627130Y-38999500D01*
X32627123Y-38999501D01*
X32559804Y-39006738D01*
X32559690Y-39005674D01*
X32520310Y-39005674D01*
X32520196Y-39006738D01*
X32452883Y-38999501D01*
X32452881Y-38999500D01*
X32452873Y-38999500D01*
X32452864Y-38999500D01*
X31357129Y-38999500D01*
X31357123Y-38999501D01*
X31289804Y-39006738D01*
X31289690Y-39005674D01*
X31250310Y-39005674D01*
X31250196Y-39006738D01*
X31182883Y-38999501D01*
X31182881Y-38999500D01*
X31182873Y-38999500D01*
X31182864Y-38999500D01*
X30087129Y-38999500D01*
X30087123Y-38999501D01*
X30019804Y-39006738D01*
X30019690Y-39005674D01*
X29980310Y-39005674D01*
X29980196Y-39006738D01*
X29912883Y-38999501D01*
X29912881Y-38999500D01*
X29912873Y-38999500D01*
X29912864Y-38999500D01*
X28817129Y-38999500D01*
X28817123Y-38999501D01*
X28749804Y-39006738D01*
X28749690Y-39005674D01*
X28710310Y-39005674D01*
X28710196Y-39006738D01*
X28642883Y-38999501D01*
X28642881Y-38999500D01*
X28642873Y-38999500D01*
X28642864Y-38999500D01*
X27547129Y-38999500D01*
X27547123Y-38999501D01*
X27479804Y-39006738D01*
X27479690Y-39005674D01*
X27440310Y-39005674D01*
X27440196Y-39006738D01*
X27372883Y-38999501D01*
X27372881Y-38999500D01*
X27372873Y-38999500D01*
X27372864Y-38999500D01*
X26277129Y-38999500D01*
X26277123Y-38999501D01*
X26209804Y-39006738D01*
X26209690Y-39005674D01*
X26170310Y-39005674D01*
X26170196Y-39006738D01*
X26102883Y-38999501D01*
X26102881Y-38999500D01*
X26102873Y-38999500D01*
X26102864Y-38999500D01*
X25007129Y-38999500D01*
X25007123Y-38999501D01*
X24947516Y-39005908D01*
X24812671Y-39056202D01*
X24812664Y-39056206D01*
X24697455Y-39142452D01*
X24697452Y-39142455D01*
X24611206Y-39257664D01*
X24611202Y-39257671D01*
X24560908Y-39392517D01*
X24554501Y-39452116D01*
X24554501Y-39452123D01*
X24554500Y-39452135D01*
X24554500Y-39865499D01*
X24534815Y-39932538D01*
X24482011Y-39978293D01*
X24430500Y-39989499D01*
X23253046Y-39989499D01*
X23246966Y-39989200D01*
X23117887Y-39976488D01*
X23094044Y-39971745D01*
X22978689Y-39936752D01*
X22956232Y-39927450D01*
X22849928Y-39870629D01*
X22829716Y-39857124D01*
X22736535Y-39780652D01*
X22719347Y-39763464D01*
X22642875Y-39670283D01*
X22629370Y-39650071D01*
X22572549Y-39543767D01*
X22563247Y-39521310D01*
X22528254Y-39405955D01*
X22523512Y-39382118D01*
X22511256Y-39257671D01*
X22510799Y-39253031D01*
X22510500Y-39246951D01*
X22510500Y-34650000D01*
X27044355Y-34650000D01*
X27064859Y-34818869D01*
X27064860Y-34818874D01*
X27125182Y-34977931D01*
X27187475Y-35068177D01*
X27221817Y-35117929D01*
X27327505Y-35211560D01*
X27349150Y-35230736D01*
X27499773Y-35309789D01*
X27499775Y-35309790D01*
X27664944Y-35350500D01*
X27835056Y-35350500D01*
X28000225Y-35309790D01*
X28079692Y-35268081D01*
X28150849Y-35230736D01*
X28150850Y-35230734D01*
X28150852Y-35230734D01*
X28278183Y-35117929D01*
X28374818Y-34977930D01*
X28435140Y-34818872D01*
X28455645Y-34650000D01*
X28435140Y-34481128D01*
X28374818Y-34322070D01*
X28278183Y-34182071D01*
X28150852Y-34069266D01*
X28150849Y-34069263D01*
X28000226Y-33990210D01*
X27835056Y-33949500D01*
X27664944Y-33949500D01*
X27499773Y-33990210D01*
X27349150Y-34069263D01*
X27221816Y-34182072D01*
X27125182Y-34322068D01*
X27064860Y-34481125D01*
X27064859Y-34481130D01*
X27044355Y-34650000D01*
X22510500Y-34650000D01*
X22510500Y-33075000D01*
X27869355Y-33075000D01*
X27889859Y-33243869D01*
X27889860Y-33243874D01*
X27950182Y-33402931D01*
X28012475Y-33493177D01*
X28046817Y-33542929D01*
X28152505Y-33636560D01*
X28174150Y-33655736D01*
X28324773Y-33734789D01*
X28324775Y-33734790D01*
X28489944Y-33775500D01*
X28660056Y-33775500D01*
X28825225Y-33734790D01*
X28904692Y-33693081D01*
X28975849Y-33655736D01*
X28975850Y-33655734D01*
X28975852Y-33655734D01*
X29103183Y-33542929D01*
X29199818Y-33402930D01*
X29260140Y-33243872D01*
X29280645Y-33075000D01*
X29260140Y-32906128D01*
X29199818Y-32747070D01*
X29103183Y-32607071D01*
X28975852Y-32494266D01*
X28975849Y-32494263D01*
X28825226Y-32415210D01*
X28660056Y-32374500D01*
X28489944Y-32374500D01*
X28324773Y-32415210D01*
X28174150Y-32494263D01*
X28046816Y-32607072D01*
X27950182Y-32747068D01*
X27889860Y-32906125D01*
X27889859Y-32906130D01*
X27869355Y-33075000D01*
X22510500Y-33075000D01*
X22510500Y-29753048D01*
X22510799Y-29746968D01*
X22517887Y-29675000D01*
X22523512Y-29617880D01*
X22528251Y-29594054D01*
X22563248Y-29478683D01*
X22572546Y-29456238D01*
X22629374Y-29349921D01*
X22642870Y-29329721D01*
X22719350Y-29236530D01*
X22736529Y-29219351D01*
X22829721Y-29142870D01*
X22849921Y-29129373D01*
X22956238Y-29072546D01*
X22978682Y-29063248D01*
X23094053Y-29028251D01*
X23117878Y-29023512D01*
X23197909Y-29015629D01*
X23246948Y-29010800D01*
X23253029Y-29010501D01*
X23304766Y-29010501D01*
X23304775Y-29010500D01*
X24548512Y-29010500D01*
X24615551Y-29030185D01*
G37*
%TD.AperFunction*%
%TD*%
M02*
