%TF.GenerationSoftware,KiCad,Pcbnew,8.0.5-8.0.5-0~ubuntu22.04.1*%
%TF.CreationDate,2024-10-12T14:29:42+01:00*%
%TF.ProjectId,EMG_DAQ_ADS1293,454d475f-4441-4515-9f41-445331323933,1.0*%
%TF.SameCoordinates,Original*%
%TF.FileFunction,Copper,L2,Inr*%
%TF.FilePolarity,Positive*%
%FSLAX46Y46*%
G04 Gerber Fmt 4.6, Leading zero omitted, Abs format (unit mm)*
G04 Created by KiCad (PCBNEW 8.0.5-8.0.5-0~ubuntu22.04.1) date 2024-10-12 14:29:42*
%MOMM*%
%LPD*%
G01*
G04 APERTURE LIST*
%TA.AperFunction,CastellatedPad*%
%ADD10R,1.000000X1.000000*%
%TD*%
%TA.AperFunction,ViaPad*%
%ADD11C,0.400000*%
%TD*%
G04 APERTURE END LIST*
D10*
%TO.N,/in1*%
%TO.C,J3*%
X26714500Y-38210500D03*
%TD*%
%TO.N,unconnected-(J1-Pin_1-Pad1)*%
%TO.C,J1*%
X27984500Y-28210500D03*
%TD*%
%TO.N,/in1*%
%TO.C,J2*%
X25444500Y-38210500D03*
%TD*%
%TO.N,/POCI*%
%TO.C,J9*%
X29254500Y-28210500D03*
%TD*%
%TO.N,/in6*%
%TO.C,J15*%
X33064500Y-38210500D03*
%TD*%
%TO.N,/extRef*%
%TO.C,J7*%
X34334500Y-28210500D03*
%TD*%
%TO.N,/in3*%
%TO.C,J5*%
X29254500Y-38210500D03*
%TD*%
%TO.N,/in2*%
%TO.C,J4*%
X27984500Y-38210500D03*
%TD*%
%TO.N,/PICO*%
%TO.C,J10*%
X30524500Y-28210500D03*
%TD*%
%TO.N,GND*%
%TO.C,J14*%
X26714500Y-28210500D03*
%TD*%
%TO.N,/in5*%
%TO.C,J8*%
X31794500Y-38210500D03*
%TD*%
%TO.N,/CSB*%
%TO.C,J12*%
X33064500Y-28210500D03*
%TD*%
%TO.N,GNDA*%
%TO.C,J16*%
X34334500Y-38210500D03*
%TD*%
%TO.N,/in4*%
%TO.C,J6*%
X30524500Y-38210500D03*
%TD*%
%TO.N,/SCLK*%
%TO.C,J11*%
X31794500Y-28210500D03*
%TD*%
%TO.N,+3.3V*%
%TO.C,J13*%
X25444500Y-28210500D03*
%TD*%
D11*
%TO.N,GNDA*%
X34334500Y-37194500D03*
X27014500Y-35220500D03*
%TO.N,GND*%
X25789500Y-30710500D03*
X23544500Y-36210500D03*
%TO.N,XTAL2*%
X27639500Y-32860500D03*
%TO.N,XTAL1*%
X28389500Y-31285500D03*
%TO.N,/in1*%
X25444500Y-37194500D03*
X26714500Y-37194500D03*
%TO.N,/in2*%
X27984500Y-37194500D03*
%TO.N,/in3*%
X29254500Y-37194500D03*
%TO.N,/in4*%
X30524500Y-37194500D03*
%TO.N,/in5*%
X31794500Y-37194500D03*
%TO.N,/in6*%
X33064500Y-37194500D03*
%TD*%
%TA.AperFunction,Conductor*%
%TO.N,GNDA*%
G36*
X37322039Y-32735685D02*
G01*
X37367794Y-32788489D01*
X37379000Y-32840000D01*
X37379000Y-37454406D01*
X37378403Y-37466560D01*
X37365988Y-37592612D01*
X37361246Y-37616453D01*
X37326253Y-37731809D01*
X37316950Y-37754267D01*
X37260129Y-37860572D01*
X37246624Y-37880784D01*
X37170153Y-37973964D01*
X37152965Y-37991152D01*
X37059784Y-38067624D01*
X37039572Y-38081129D01*
X36933268Y-38137950D01*
X36910810Y-38147253D01*
X36795454Y-38182246D01*
X36771613Y-38186988D01*
X36645572Y-38199402D01*
X36633418Y-38199999D01*
X35458500Y-38199999D01*
X35391461Y-38180314D01*
X35345706Y-38127510D01*
X35334500Y-38075999D01*
X35334500Y-37662672D01*
X35334499Y-37662655D01*
X35328098Y-37603127D01*
X35328096Y-37603120D01*
X35277854Y-37468413D01*
X35277850Y-37468406D01*
X35191690Y-37353312D01*
X35191687Y-37353309D01*
X35076593Y-37267149D01*
X35076586Y-37267145D01*
X34941879Y-37216903D01*
X34941872Y-37216901D01*
X34882344Y-37210500D01*
X34584500Y-37210500D01*
X34584500Y-38000882D01*
X34534054Y-37950436D01*
X34459945Y-37907649D01*
X34377287Y-37885500D01*
X34291713Y-37885500D01*
X34209055Y-37907649D01*
X34134946Y-37950436D01*
X34084500Y-38000882D01*
X34084500Y-37210500D01*
X33881942Y-37210500D01*
X33814903Y-37190815D01*
X33769148Y-37138011D01*
X33758846Y-37101446D01*
X33749640Y-37025631D01*
X33749639Y-37025625D01*
X33689317Y-36866568D01*
X33654976Y-36816818D01*
X33592683Y-36726571D01*
X33465352Y-36613766D01*
X33465349Y-36613763D01*
X33314726Y-36534710D01*
X33149556Y-36494000D01*
X32979444Y-36494000D01*
X32814273Y-36534710D01*
X32663650Y-36613763D01*
X32536315Y-36726572D01*
X32531549Y-36733478D01*
X32477266Y-36777468D01*
X32407817Y-36785127D01*
X32345253Y-36754023D01*
X32327451Y-36733478D01*
X32322684Y-36726572D01*
X32195349Y-36613763D01*
X32044726Y-36534710D01*
X31879556Y-36494000D01*
X31709444Y-36494000D01*
X31544273Y-36534710D01*
X31393650Y-36613763D01*
X31266315Y-36726572D01*
X31261549Y-36733478D01*
X31207266Y-36777468D01*
X31137817Y-36785127D01*
X31075253Y-36754023D01*
X31057451Y-36733478D01*
X31052684Y-36726572D01*
X30925349Y-36613763D01*
X30774726Y-36534710D01*
X30609556Y-36494000D01*
X30439444Y-36494000D01*
X30274273Y-36534710D01*
X30123650Y-36613763D01*
X29996315Y-36726572D01*
X29991549Y-36733478D01*
X29937266Y-36777468D01*
X29867817Y-36785127D01*
X29805253Y-36754023D01*
X29787451Y-36733478D01*
X29782684Y-36726572D01*
X29655349Y-36613763D01*
X29504726Y-36534710D01*
X29339556Y-36494000D01*
X29169444Y-36494000D01*
X29004273Y-36534710D01*
X28853650Y-36613763D01*
X28726315Y-36726572D01*
X28721549Y-36733478D01*
X28667266Y-36777468D01*
X28597817Y-36785127D01*
X28535253Y-36754023D01*
X28517451Y-36733478D01*
X28512684Y-36726572D01*
X28385349Y-36613763D01*
X28234726Y-36534710D01*
X28069556Y-36494000D01*
X27899444Y-36494000D01*
X27734273Y-36534710D01*
X27583650Y-36613763D01*
X27456315Y-36726572D01*
X27451549Y-36733478D01*
X27397266Y-36777468D01*
X27327817Y-36785127D01*
X27265253Y-36754023D01*
X27247451Y-36733478D01*
X27242684Y-36726572D01*
X27115349Y-36613763D01*
X26964726Y-36534710D01*
X26799556Y-36494000D01*
X26629444Y-36494000D01*
X26629440Y-36494000D01*
X26603673Y-36500351D01*
X26533871Y-36497281D01*
X26476809Y-36456960D01*
X26450605Y-36392191D01*
X26450000Y-36379954D01*
X26450000Y-33840000D01*
X26469685Y-33772961D01*
X26522489Y-33727206D01*
X26574000Y-33716000D01*
X26843391Y-33716000D01*
X26843408Y-33716000D01*
X26898833Y-33712952D01*
X26914280Y-33711247D01*
X26927877Y-33710500D01*
X28388469Y-33710500D01*
X28406115Y-33711762D01*
X28409242Y-33712211D01*
X28435592Y-33716000D01*
X28435595Y-33716000D01*
X30320490Y-33716000D01*
X30320500Y-33716000D01*
X30365043Y-33711210D01*
X30378298Y-33710500D01*
X30944500Y-33710500D01*
X30944500Y-33133622D01*
X30945762Y-33115975D01*
X30950000Y-33086500D01*
X30950000Y-32840000D01*
X30969685Y-32772961D01*
X31022489Y-32727206D01*
X31074000Y-32716000D01*
X37255000Y-32716000D01*
X37322039Y-32735685D01*
G37*
%TD.AperFunction*%
%TD*%
%TA.AperFunction,Conductor*%
%TO.N,GND*%
G36*
X24505051Y-27240685D02*
G01*
X24550806Y-27293489D01*
X24560750Y-27362647D01*
X24537279Y-27419311D01*
X24500704Y-27468168D01*
X24500702Y-27468171D01*
X24450408Y-27603017D01*
X24444001Y-27662616D01*
X24444001Y-27662623D01*
X24444000Y-27662635D01*
X24444000Y-28758370D01*
X24444001Y-28758376D01*
X24450408Y-28817983D01*
X24500702Y-28952828D01*
X24500706Y-28952835D01*
X24586952Y-29068044D01*
X24586955Y-29068047D01*
X24702164Y-29154293D01*
X24702171Y-29154297D01*
X24837017Y-29204591D01*
X24837016Y-29204591D01*
X24843944Y-29205335D01*
X24896627Y-29211000D01*
X25992372Y-29210999D01*
X26051983Y-29204591D01*
X26051990Y-29204588D01*
X26052066Y-29204571D01*
X26052171Y-29204570D01*
X26059697Y-29203762D01*
X26059783Y-29204570D01*
X26099272Y-29204569D01*
X26099412Y-29203269D01*
X26166655Y-29210499D01*
X26166672Y-29210500D01*
X26464500Y-29210500D01*
X26464500Y-28420118D01*
X26514946Y-28470564D01*
X26589055Y-28513351D01*
X26671713Y-28535500D01*
X26757287Y-28535500D01*
X26839945Y-28513351D01*
X26914054Y-28470564D01*
X26964500Y-28420118D01*
X26964500Y-29210500D01*
X27262328Y-29210500D01*
X27262344Y-29210499D01*
X27329588Y-29203269D01*
X27329727Y-29204568D01*
X27369217Y-29204568D01*
X27369304Y-29203762D01*
X27376800Y-29204568D01*
X27376923Y-29204568D01*
X27377010Y-29204588D01*
X27377017Y-29204591D01*
X27377023Y-29204591D01*
X27377025Y-29204592D01*
X27385732Y-29205528D01*
X27436627Y-29211000D01*
X28532372Y-29210999D01*
X28580259Y-29205851D01*
X28599697Y-29203762D01*
X28599811Y-29204830D01*
X28639188Y-29204829D01*
X28639303Y-29203761D01*
X28647014Y-29204589D01*
X28647017Y-29204591D01*
X28706627Y-29211000D01*
X29802372Y-29210999D01*
X29850259Y-29205851D01*
X29869697Y-29203762D01*
X29869811Y-29204830D01*
X29909188Y-29204829D01*
X29909303Y-29203761D01*
X29917014Y-29204589D01*
X29917017Y-29204591D01*
X29976627Y-29211000D01*
X31072372Y-29210999D01*
X31120259Y-29205851D01*
X31139697Y-29203762D01*
X31139811Y-29204830D01*
X31179188Y-29204829D01*
X31179303Y-29203761D01*
X31187014Y-29204589D01*
X31187017Y-29204591D01*
X31246627Y-29211000D01*
X32342372Y-29210999D01*
X32390259Y-29205851D01*
X32409697Y-29203762D01*
X32409811Y-29204830D01*
X32449188Y-29204829D01*
X32449303Y-29203761D01*
X32457014Y-29204589D01*
X32457017Y-29204591D01*
X32516627Y-29211000D01*
X33612372Y-29210999D01*
X33660259Y-29205851D01*
X33679697Y-29203762D01*
X33679811Y-29204830D01*
X33719188Y-29204829D01*
X33719303Y-29203761D01*
X33727014Y-29204589D01*
X33727017Y-29204591D01*
X33786627Y-29211000D01*
X34882372Y-29210999D01*
X34941983Y-29204591D01*
X35076831Y-29154296D01*
X35192046Y-29068046D01*
X35278296Y-28952831D01*
X35328591Y-28817983D01*
X35335000Y-28758373D01*
X35334999Y-27662628D01*
X35328591Y-27603017D01*
X35312706Y-27560428D01*
X35278297Y-27468171D01*
X35278295Y-27468168D01*
X35241721Y-27419311D01*
X35217304Y-27353847D01*
X35232156Y-27285574D01*
X35281561Y-27236168D01*
X35340988Y-27221000D01*
X36633408Y-27221000D01*
X36645561Y-27221597D01*
X36655133Y-27222539D01*
X36771618Y-27234012D01*
X36795455Y-27238754D01*
X36910810Y-27273747D01*
X36933264Y-27283048D01*
X36986419Y-27311459D01*
X37039571Y-27339870D01*
X37059783Y-27353375D01*
X37152964Y-27429847D01*
X37170152Y-27447035D01*
X37246624Y-27540216D01*
X37260129Y-27560428D01*
X37316950Y-27666732D01*
X37326252Y-27689189D01*
X37361245Y-27804544D01*
X37365988Y-27828386D01*
X37378403Y-27954438D01*
X37379000Y-27966592D01*
X37379000Y-32086500D01*
X37359315Y-32153539D01*
X37306511Y-32199294D01*
X37255000Y-32210500D01*
X30444500Y-32210500D01*
X30444500Y-33086500D01*
X30424815Y-33153539D01*
X30372011Y-33199294D01*
X30320500Y-33210500D01*
X28435592Y-33210500D01*
X28368553Y-33190815D01*
X28322798Y-33138011D01*
X28312854Y-33068853D01*
X28319648Y-33042533D01*
X28324640Y-33029372D01*
X28345145Y-32860500D01*
X28324640Y-32691628D01*
X28264318Y-32532570D01*
X28167683Y-32392571D01*
X28040352Y-32279766D01*
X28040349Y-32279763D01*
X27889726Y-32200710D01*
X27724556Y-32160000D01*
X27554444Y-32160000D01*
X27389273Y-32200710D01*
X27238650Y-32279763D01*
X27111316Y-32392572D01*
X27014682Y-32532568D01*
X26954360Y-32691625D01*
X26954359Y-32691630D01*
X26933855Y-32860500D01*
X26954359Y-33029369D01*
X26954359Y-33029370D01*
X26954360Y-33029372D01*
X26959350Y-33042530D01*
X26964717Y-33112191D01*
X26931570Y-33173698D01*
X26870432Y-33207519D01*
X26843408Y-33210500D01*
X25944500Y-33210500D01*
X25944500Y-36460681D01*
X25924815Y-36527720D01*
X25872011Y-36573475D01*
X25802853Y-36583419D01*
X25762874Y-36570477D01*
X25694726Y-36534710D01*
X25529556Y-36494000D01*
X25359444Y-36494000D01*
X25194273Y-36534710D01*
X25043650Y-36613764D01*
X24969657Y-36679316D01*
X24906423Y-36709037D01*
X24887430Y-36710500D01*
X22524000Y-36710500D01*
X22456961Y-36690815D01*
X22411206Y-36638011D01*
X22400000Y-36586500D01*
X22400000Y-31285500D01*
X27683855Y-31285500D01*
X27704359Y-31454369D01*
X27704360Y-31454374D01*
X27764682Y-31613431D01*
X27826975Y-31703677D01*
X27861317Y-31753429D01*
X27967005Y-31847060D01*
X27988650Y-31866236D01*
X28139273Y-31945289D01*
X28139275Y-31945290D01*
X28304444Y-31986000D01*
X28474556Y-31986000D01*
X28639725Y-31945290D01*
X28719192Y-31903581D01*
X28790349Y-31866236D01*
X28790350Y-31866234D01*
X28790352Y-31866234D01*
X28917683Y-31753429D01*
X29014318Y-31613430D01*
X29074640Y-31454372D01*
X29095145Y-31285500D01*
X29074640Y-31116628D01*
X29014318Y-30957570D01*
X28917683Y-30817571D01*
X28790352Y-30704766D01*
X28790349Y-30704763D01*
X28639726Y-30625710D01*
X28474556Y-30585000D01*
X28304444Y-30585000D01*
X28139273Y-30625710D01*
X27988650Y-30704763D01*
X27861316Y-30817572D01*
X27764682Y-30957568D01*
X27704360Y-31116625D01*
X27704359Y-31116630D01*
X27683855Y-31285500D01*
X22400000Y-31285500D01*
X22400000Y-27966592D01*
X22400597Y-27954439D01*
X22407377Y-27885597D01*
X22413012Y-27828380D01*
X22417751Y-27804554D01*
X22452748Y-27689183D01*
X22462046Y-27666738D01*
X22518874Y-27560421D01*
X22532370Y-27540221D01*
X22608850Y-27447030D01*
X22626029Y-27429851D01*
X22719221Y-27353370D01*
X22739421Y-27339873D01*
X22845738Y-27283046D01*
X22868182Y-27273748D01*
X22983553Y-27238751D01*
X23007378Y-27234012D01*
X23116082Y-27223305D01*
X23133419Y-27221598D01*
X23145573Y-27221001D01*
X23194266Y-27221001D01*
X23194275Y-27221000D01*
X24438012Y-27221000D01*
X24505051Y-27240685D01*
G37*
%TD.AperFunction*%
%TD*%
M02*
