%TF.GenerationSoftware,KiCad,Pcbnew,8.0.5-unknown-202409181836~355805756e~ubuntu22.04.1*%
%TF.CreationDate,2024-10-07T16:17:35+01:00*%
%TF.ProjectId,PANEL7x5_ADS1293,50414e45-4c37-4783-955f-414453313239,1.0*%
%TF.SameCoordinates,Original*%
%TF.FileFunction,Paste,Bot*%
%TF.FilePolarity,Positive*%
%FSLAX46Y46*%
G04 Gerber Fmt 4.6, Leading zero omitted, Abs format (unit mm)*
G04 Created by KiCad (PCBNEW 8.0.5-unknown-202409181836~355805756e~ubuntu22.04.1) date 2024-10-07 16:17:35*
%MOMM*%
%LPD*%
G01*
G04 APERTURE LIST*
%ADD10R,4.500000X2.000000*%
G04 APERTURE END LIST*
D10*
%TO.C,Y1*%
X89750000Y-76100000D03*
X81250000Y-76100000D03*
%TD*%
%TO.C,Y1*%
X51750000Y-24100000D03*
X43250000Y-24100000D03*
%TD*%
%TO.C,Y1*%
X89750000Y-37100000D03*
X81250000Y-37100000D03*
%TD*%
%TO.C,Y1*%
X72750000Y-24100000D03*
X64250000Y-24100000D03*
%TD*%
%TO.C,Y1*%
X72750000Y-37100000D03*
X64250000Y-37100000D03*
%TD*%
%TO.C,Y1*%
X72750000Y-11100000D03*
X64250000Y-11100000D03*
%TD*%
%TO.C,Y1*%
X34750000Y-63100000D03*
X26250000Y-63100000D03*
%TD*%
%TO.C,Y1*%
X51750000Y-89100000D03*
X43250000Y-89100000D03*
%TD*%
%TO.C,Y1*%
X17750000Y-24100000D03*
X9250000Y-24100000D03*
%TD*%
%TO.C,Y1*%
X89750000Y-11100000D03*
X81250000Y-11100000D03*
%TD*%
%TO.C,Y1*%
X34750000Y-11100000D03*
X26250000Y-11100000D03*
%TD*%
%TO.C,Y1*%
X72750000Y-89100000D03*
X64250000Y-89100000D03*
%TD*%
%TO.C,Y1*%
X34750000Y-24100000D03*
X26250000Y-24100000D03*
%TD*%
%TO.C,Y1*%
X72750000Y-50100000D03*
X64250000Y-50100000D03*
%TD*%
%TO.C,Y1*%
X17750000Y-50100000D03*
X9250000Y-50100000D03*
%TD*%
%TO.C,Y1*%
X17750000Y-63100000D03*
X9250000Y-63100000D03*
%TD*%
%TO.C,Y1*%
X51750000Y-11100000D03*
X43250000Y-11100000D03*
%TD*%
%TO.C,Y1*%
X51750000Y-37100000D03*
X43250000Y-37100000D03*
%TD*%
%TO.C,Y1*%
X17750000Y-89100000D03*
X9250000Y-89100000D03*
%TD*%
%TO.C,Y1*%
X89750000Y-24100000D03*
X81250000Y-24100000D03*
%TD*%
%TO.C,Y1*%
X89750000Y-89100000D03*
X81250000Y-89100000D03*
%TD*%
%TO.C,Y1*%
X51750000Y-63100000D03*
X43250000Y-63100000D03*
%TD*%
%TO.C,Y1*%
X34750000Y-50100000D03*
X26250000Y-50100000D03*
%TD*%
%TO.C,Y1*%
X34750000Y-89100000D03*
X26250000Y-89100000D03*
%TD*%
%TO.C,Y1*%
X17750000Y-37100000D03*
X9250000Y-37100000D03*
%TD*%
%TO.C,Y1*%
X89750000Y-50100000D03*
X81250000Y-50100000D03*
%TD*%
%TO.C,Y1*%
X51750000Y-50100000D03*
X43250000Y-50100000D03*
%TD*%
%TO.C,Y1*%
X34750000Y-37100000D03*
X26250000Y-37100000D03*
%TD*%
%TO.C,Y1*%
X72750000Y-63100000D03*
X64250000Y-63100000D03*
%TD*%
%TO.C,Y1*%
X17750000Y-11100000D03*
X9250000Y-11100000D03*
%TD*%
%TO.C,Y1*%
X17750000Y-76100000D03*
X9250000Y-76100000D03*
%TD*%
%TO.C,Y1*%
X34750000Y-76100000D03*
X26250000Y-76100000D03*
%TD*%
%TO.C,Y1*%
X51750000Y-76100000D03*
X43250000Y-76100000D03*
%TD*%
%TO.C,Y1*%
X72750000Y-76100000D03*
X64250000Y-76100000D03*
%TD*%
%TO.C,Y1*%
X89750000Y-63100000D03*
X81250000Y-63100000D03*
%TD*%
M02*
