%TF.GenerationSoftware,KiCad,Pcbnew,8.0.5-unknown-202409181836~355805756e~ubuntu22.04.1*%
%TF.CreationDate,2024-10-07T16:17:35+01:00*%
%TF.ProjectId,PANEL7x5_ADS1293,50414e45-4c37-4783-955f-414453313239,1.0*%
%TF.SameCoordinates,Original*%
%TF.FileFunction,Other,Comment*%
%FSLAX46Y46*%
G04 Gerber Fmt 4.6, Leading zero omitted, Abs format (unit mm)*
G04 Created by KiCad (PCBNEW 8.0.5-unknown-202409181836~355805756e~ubuntu22.04.1) date 2024-10-07 16:17:35*
%MOMM*%
%LPD*%
G01*
G04 APERTURE LIST*
%ADD10C,0.250000*%
G04 APERTURE END LIST*
D10*
%TO.C,U2*%
X9220289Y-36889500D02*
G75*
G02*
X8960293Y-36889500I-129998J0D01*
G01*
X8960293Y-36889500D02*
G75*
G02*
X9220289Y-36889500I129998J0D01*
G01*
X81220289Y-88889500D02*
G75*
G02*
X80960293Y-88889500I-129998J0D01*
G01*
X80960293Y-88889500D02*
G75*
G02*
X81220289Y-88889500I129998J0D01*
G01*
X9220289Y-88889500D02*
G75*
G02*
X8960293Y-88889500I-129998J0D01*
G01*
X8960293Y-88889500D02*
G75*
G02*
X9220289Y-88889500I129998J0D01*
G01*
X81220289Y-36889500D02*
G75*
G02*
X80960293Y-36889500I-129998J0D01*
G01*
X80960293Y-36889500D02*
G75*
G02*
X81220289Y-36889500I129998J0D01*
G01*
X26220289Y-88889500D02*
G75*
G02*
X25960293Y-88889500I-129998J0D01*
G01*
X25960293Y-88889500D02*
G75*
G02*
X26220289Y-88889500I129998J0D01*
G01*
X64220289Y-36889500D02*
G75*
G02*
X63960293Y-36889500I-129998J0D01*
G01*
X63960293Y-36889500D02*
G75*
G02*
X64220289Y-36889500I129998J0D01*
G01*
X43220289Y-36889500D02*
G75*
G02*
X42960293Y-36889500I-129998J0D01*
G01*
X42960293Y-36889500D02*
G75*
G02*
X43220289Y-36889500I129998J0D01*
G01*
X64220289Y-23889500D02*
G75*
G02*
X63960293Y-23889500I-129998J0D01*
G01*
X63960293Y-23889500D02*
G75*
G02*
X64220289Y-23889500I129998J0D01*
G01*
X64220289Y-62889500D02*
G75*
G02*
X63960293Y-62889500I-129998J0D01*
G01*
X63960293Y-62889500D02*
G75*
G02*
X64220289Y-62889500I129998J0D01*
G01*
X64220289Y-75889500D02*
G75*
G02*
X63960293Y-75889500I-129998J0D01*
G01*
X63960293Y-75889500D02*
G75*
G02*
X64220289Y-75889500I129998J0D01*
G01*
X81220289Y-10889500D02*
G75*
G02*
X80960293Y-10889500I-129998J0D01*
G01*
X80960293Y-10889500D02*
G75*
G02*
X81220289Y-10889500I129998J0D01*
G01*
X26220289Y-49889500D02*
G75*
G02*
X25960293Y-49889500I-129998J0D01*
G01*
X25960293Y-49889500D02*
G75*
G02*
X26220289Y-49889500I129998J0D01*
G01*
X43220289Y-10889500D02*
G75*
G02*
X42960293Y-10889500I-129998J0D01*
G01*
X42960293Y-10889500D02*
G75*
G02*
X43220289Y-10889500I129998J0D01*
G01*
X9220289Y-49889500D02*
G75*
G02*
X8960293Y-49889500I-129998J0D01*
G01*
X8960293Y-49889500D02*
G75*
G02*
X9220289Y-49889500I129998J0D01*
G01*
X9220289Y-62889500D02*
G75*
G02*
X8960293Y-62889500I-129998J0D01*
G01*
X8960293Y-62889500D02*
G75*
G02*
X9220289Y-62889500I129998J0D01*
G01*
X26220289Y-36889500D02*
G75*
G02*
X25960293Y-36889500I-129998J0D01*
G01*
X25960293Y-36889500D02*
G75*
G02*
X26220289Y-36889500I129998J0D01*
G01*
X64220289Y-88889500D02*
G75*
G02*
X63960293Y-88889500I-129998J0D01*
G01*
X63960293Y-88889500D02*
G75*
G02*
X64220289Y-88889500I129998J0D01*
G01*
X26220289Y-10889500D02*
G75*
G02*
X25960293Y-10889500I-129998J0D01*
G01*
X25960293Y-10889500D02*
G75*
G02*
X26220289Y-10889500I129998J0D01*
G01*
X81220289Y-23889500D02*
G75*
G02*
X80960293Y-23889500I-129998J0D01*
G01*
X80960293Y-23889500D02*
G75*
G02*
X81220289Y-23889500I129998J0D01*
G01*
X81220289Y-75889500D02*
G75*
G02*
X80960293Y-75889500I-129998J0D01*
G01*
X80960293Y-75889500D02*
G75*
G02*
X81220289Y-75889500I129998J0D01*
G01*
X26220289Y-62889500D02*
G75*
G02*
X25960293Y-62889500I-129998J0D01*
G01*
X25960293Y-62889500D02*
G75*
G02*
X26220289Y-62889500I129998J0D01*
G01*
X26220289Y-23889500D02*
G75*
G02*
X25960293Y-23889500I-129998J0D01*
G01*
X25960293Y-23889500D02*
G75*
G02*
X26220289Y-23889500I129998J0D01*
G01*
X43220289Y-75889500D02*
G75*
G02*
X42960293Y-75889500I-129998J0D01*
G01*
X42960293Y-75889500D02*
G75*
G02*
X43220289Y-75889500I129998J0D01*
G01*
X43220289Y-88889500D02*
G75*
G02*
X42960293Y-88889500I-129998J0D01*
G01*
X42960293Y-88889500D02*
G75*
G02*
X43220289Y-88889500I129998J0D01*
G01*
X43220289Y-62889500D02*
G75*
G02*
X42960293Y-62889500I-129998J0D01*
G01*
X42960293Y-62889500D02*
G75*
G02*
X43220289Y-62889500I129998J0D01*
G01*
X9220289Y-10889500D02*
G75*
G02*
X8960293Y-10889500I-129998J0D01*
G01*
X8960293Y-10889500D02*
G75*
G02*
X9220289Y-10889500I129998J0D01*
G01*
X81220289Y-62889500D02*
G75*
G02*
X80960293Y-62889500I-129998J0D01*
G01*
X80960293Y-62889500D02*
G75*
G02*
X81220289Y-62889500I129998J0D01*
G01*
X64220289Y-49889500D02*
G75*
G02*
X63960293Y-49889500I-129998J0D01*
G01*
X63960293Y-49889500D02*
G75*
G02*
X64220289Y-49889500I129998J0D01*
G01*
X81220289Y-49889500D02*
G75*
G02*
X80960293Y-49889500I-129998J0D01*
G01*
X80960293Y-49889500D02*
G75*
G02*
X81220289Y-49889500I129998J0D01*
G01*
X43220289Y-49889500D02*
G75*
G02*
X42960293Y-49889500I-129998J0D01*
G01*
X42960293Y-49889500D02*
G75*
G02*
X43220289Y-49889500I129998J0D01*
G01*
X26220289Y-75889500D02*
G75*
G02*
X25960293Y-75889500I-129998J0D01*
G01*
X25960293Y-75889500D02*
G75*
G02*
X26220289Y-75889500I129998J0D01*
G01*
X64220289Y-10889500D02*
G75*
G02*
X63960293Y-10889500I-129998J0D01*
G01*
X63960293Y-10889500D02*
G75*
G02*
X64220289Y-10889500I129998J0D01*
G01*
X9220289Y-23889500D02*
G75*
G02*
X8960293Y-23889500I-129998J0D01*
G01*
X8960293Y-23889500D02*
G75*
G02*
X9220289Y-23889500I129998J0D01*
G01*
X9220289Y-75889500D02*
G75*
G02*
X8960293Y-75889500I-129998J0D01*
G01*
X8960293Y-75889500D02*
G75*
G02*
X9220289Y-75889500I129998J0D01*
G01*
X43220289Y-23889500D02*
G75*
G02*
X42960293Y-23889500I-129998J0D01*
G01*
X42960293Y-23889500D02*
G75*
G02*
X43220289Y-23889500I129998J0D01*
G01*
%TD*%
M02*
