%TF.GenerationSoftware,KiCad,Pcbnew,7.0.2-6a45011f42~172~ubuntu22.04.1*%
%TF.CreationDate,2023-05-19T13:44:39+01:00*%
%TF.ProjectId,panel,70616e65-6c2e-46b6-9963-61645f706362,rev?*%
%TF.SameCoordinates,Original*%
%TF.FileFunction,Profile,NP*%
%FSLAX46Y46*%
G04 Gerber Fmt 4.6, Leading zero omitted, Abs format (unit mm)*
G04 Created by KiCad (PCBNEW 7.0.2-6a45011f42~172~ubuntu22.04.1) date 2023-05-19 13:44:39*
%MOMM*%
%LPD*%
G01*
G04 APERTURE LIST*
%TA.AperFunction,Profile*%
%ADD10C,0.100000*%
%TD*%
G04 APERTURE END LIST*
D10*
X52908280Y-27598726D02*
X52936156Y-27501305D01*
X27880789Y-49295610D02*
X27970604Y-49248694D01*
X7513710Y-11161738D02*
X7445708Y-11241358D01*
X51000002Y-29000000D02*
X51101300Y-28997433D01*
X52089279Y-10822657D02*
X52000001Y-10767947D01*
X31550416Y-48877934D02*
X31622068Y-48949586D01*
X31217988Y-11592018D02*
X31172910Y-11686525D01*
X7824429Y-31381966D02*
X7741359Y-31445708D01*
X31381967Y-31824429D02*
X31322660Y-31910722D01*
X32211290Y-49337916D02*
X32305391Y-49375505D01*
X52997262Y-32895328D02*
X52989046Y-32790942D01*
X8381966Y-10597886D02*
X8283264Y-10632838D01*
X7204391Y-27880788D02*
X7251307Y-27970603D01*
X28867162Y-32283263D02*
X28827092Y-32186526D01*
X28089278Y-10822657D02*
X28000000Y-10767947D01*
X52827093Y-11686525D02*
X52782015Y-11592017D01*
X51517639Y-31068148D02*
X51415824Y-31043704D01*
X27501306Y-28936154D02*
X27598727Y-28908278D01*
X28795610Y-48380789D02*
X28837916Y-48288712D01*
X52377935Y-48949586D02*
X52449587Y-48877934D01*
X7942072Y-49197289D02*
X8029397Y-49248694D01*
X31741360Y-31445708D02*
X31661740Y-31513710D01*
X8584176Y-31043704D02*
X8482362Y-31068148D01*
X31661740Y-11013709D02*
X31585787Y-11085785D01*
X52867163Y-11783262D02*
X52827093Y-11686525D01*
X51880790Y-28795609D02*
X51970605Y-28748693D01*
X8283264Y-31132839D02*
X8186526Y-31172909D01*
X28486290Y-11161737D02*
X28414214Y-11085785D01*
X7267949Y-11499999D02*
X7217987Y-11592018D01*
X8584176Y-10543703D02*
X8482362Y-10568147D01*
X8381966Y-31097887D02*
X8283264Y-31132839D01*
X9000000Y-10499999D02*
X8895328Y-10502739D01*
X28732052Y-31999999D02*
X28677342Y-31910721D01*
X27813473Y-10672907D02*
X27716736Y-10632837D01*
X51788713Y-28837915D02*
X51880790Y-28795609D01*
X28748694Y-48470604D02*
X28795610Y-48380789D01*
X28224212Y-28581551D02*
X28302745Y-28517516D01*
X52486291Y-31661738D02*
X52414215Y-31585786D01*
X19500000Y-49500001D02*
X27000001Y-49500001D01*
X28554293Y-31741358D02*
X28486290Y-31661738D01*
X32283265Y-10632838D02*
X32186527Y-10672908D01*
X0Y-60000000D02*
X60000002Y-60000000D01*
X32697146Y-49476937D02*
X32797665Y-49489739D01*
X51694612Y-49375505D02*
X51788713Y-49337916D01*
X52338263Y-31513709D02*
X52258642Y-31445707D01*
X28677342Y-11410720D02*
X28618035Y-11324428D01*
X31775790Y-49081552D02*
X31857465Y-49141527D01*
X27415823Y-10543703D02*
X27312869Y-10524622D01*
X31482485Y-28302744D02*
X31550416Y-28377933D01*
X52902115Y-32381965D02*
X52867163Y-32283263D01*
X27517638Y-31068148D02*
X27415823Y-31043704D01*
X31251308Y-27970603D02*
X31302713Y-28057928D01*
X27000000Y-31000000D02*
X19500000Y-31000000D01*
X28258641Y-10945706D02*
X28175571Y-10881964D01*
X31000002Y-47500001D02*
X31002568Y-47601299D01*
X52258642Y-31445707D02*
X52175572Y-31381965D01*
X52377935Y-28449585D02*
X52449587Y-28377933D01*
X28377934Y-48949586D02*
X28449586Y-48877934D01*
X52486291Y-11161737D02*
X52414215Y-11085785D01*
X7043704Y-12084175D02*
X7024623Y-12187130D01*
X7302712Y-28057928D02*
X7358474Y-28142536D01*
X8797664Y-28989738D02*
X8898702Y-28997433D01*
X7068148Y-32482362D02*
X7043704Y-32584176D01*
X7002567Y-47601299D02*
X7010262Y-47702337D01*
X31697257Y-28517516D02*
X31775790Y-28581551D01*
X32498696Y-49436155D02*
X32597404Y-49459060D01*
X8898702Y-49497434D02*
X9000001Y-49500001D01*
X31622068Y-48949586D02*
X31697257Y-49017517D01*
X28175571Y-10881964D02*
X28089278Y-10822657D01*
X52142538Y-28641526D02*
X52224213Y-28581551D01*
X7063846Y-48001306D02*
X7091722Y-48098727D01*
X7302712Y-48557929D02*
X7358474Y-48642537D01*
X16500000Y-30000000D02*
X16500000Y-31000000D01*
X52057930Y-49197289D02*
X52142538Y-49141527D01*
X28618035Y-31824429D02*
X28554293Y-31741358D01*
X51907982Y-10717985D02*
X51813474Y-10672907D01*
X32790944Y-10510955D02*
X32687132Y-10524622D01*
X28697289Y-48557929D02*
X28748694Y-48470604D01*
X51618035Y-31097886D02*
X51517639Y-31068148D01*
X52338263Y-11013708D02*
X52258642Y-10945706D01*
X31824430Y-31381966D02*
X31741360Y-31445708D01*
X8029397Y-28748693D02*
X8119212Y-28795609D01*
X31040942Y-47902598D02*
X31063847Y-48001306D01*
X51209058Y-10510955D02*
X51104672Y-10502739D01*
X27202337Y-28989738D02*
X27302856Y-28976936D01*
X27000001Y-49500001D02*
X27101299Y-49497434D01*
X7000000Y-12499999D02*
X7000001Y-27000000D01*
X40500001Y-51500001D02*
X19500000Y-51500001D01*
X28976937Y-47802856D02*
X28989739Y-47702337D01*
X31358475Y-28142536D02*
X31418450Y-28224211D01*
X7251307Y-27970603D02*
X7302712Y-28057928D01*
X31513711Y-31661739D02*
X31445709Y-31741359D01*
X28975378Y-12187129D02*
X28956296Y-12084175D01*
X28997434Y-27101298D02*
X29000001Y-27000000D01*
X31322660Y-11410721D02*
X31267950Y-11499999D01*
X32092020Y-10717986D02*
X32000001Y-10767948D01*
X40500001Y-8499999D02*
X40500001Y-10499999D01*
X7024623Y-12187130D02*
X7010956Y-12290942D01*
X52959061Y-27402597D02*
X52976938Y-27302855D01*
X31550416Y-28377933D02*
X31622068Y-28449585D01*
X8092019Y-10717986D02*
X8000000Y-10767948D01*
X51970605Y-49248694D02*
X52057930Y-49197289D01*
X52908280Y-48098727D02*
X52936156Y-48001306D01*
X28976937Y-27302855D02*
X28989739Y-27202336D01*
X52224213Y-49081552D02*
X52302746Y-49017517D01*
X40500001Y-31000000D02*
X33000001Y-31000000D01*
X8186526Y-31172909D02*
X8092019Y-31217987D01*
X52089279Y-31322658D02*
X52000001Y-31267948D01*
X7068148Y-11982361D02*
X7043704Y-12084175D01*
X28554293Y-11241357D02*
X28486290Y-11161737D01*
X32381967Y-31097887D02*
X32283265Y-31132839D01*
X28732052Y-11499998D02*
X28677342Y-11410720D01*
X31302713Y-48557929D02*
X31358475Y-48642537D01*
X52142538Y-49141527D02*
X52224213Y-49081552D01*
X52837917Y-48288712D02*
X52875506Y-48194611D01*
X31000002Y-27000000D02*
X31002568Y-27101298D01*
X53000002Y-47500001D02*
X53000002Y-32999999D01*
X31381967Y-11324428D02*
X31322660Y-11410721D01*
X52057930Y-28697288D02*
X52142538Y-28641526D01*
X52782015Y-32092018D02*
X52732053Y-31999999D01*
X52976938Y-47802856D02*
X52989740Y-47702337D01*
X7418449Y-28224211D02*
X7482484Y-28302744D01*
X16500000Y-49500001D02*
X16500000Y-51500001D01*
X7172909Y-11686525D02*
X7132839Y-11783263D01*
X31697257Y-49017517D02*
X31775790Y-49081552D01*
X52782015Y-11592017D02*
X52732053Y-11499998D01*
X51209058Y-31010956D02*
X51104672Y-31002740D01*
X28827092Y-11686525D02*
X28782014Y-11592017D01*
X28959060Y-27402597D02*
X28976937Y-27302855D01*
X7010956Y-32790943D02*
X7002740Y-32895328D01*
X52837917Y-27788711D02*
X52875506Y-27694610D01*
X52936156Y-27501305D02*
X52959061Y-27402597D01*
X31585787Y-11085785D02*
X31513711Y-11161738D01*
X28142537Y-28641526D02*
X28224212Y-28581551D01*
X27694611Y-49375505D02*
X27788712Y-49337916D01*
X32797665Y-49489739D02*
X32898703Y-49497434D01*
X31824430Y-10881965D02*
X31741360Y-10945707D01*
X8211289Y-28837915D02*
X8305390Y-28875504D01*
X27970604Y-49248694D02*
X28057929Y-49197289D01*
X8305390Y-28875504D02*
X8401274Y-28908278D01*
X32597404Y-28959059D02*
X32697146Y-28976936D01*
X7857464Y-49141527D02*
X7942072Y-49197289D01*
X32895329Y-10502739D02*
X32790944Y-10510955D01*
X52302746Y-49017517D02*
X52377935Y-48949586D01*
X31043705Y-12084175D02*
X31024624Y-12187130D01*
X31267950Y-11499999D02*
X31217988Y-11592018D01*
X32687132Y-31024623D02*
X32584177Y-31043704D01*
X40500001Y-49500001D02*
X40500001Y-51500001D01*
X27788712Y-28837915D02*
X27880789Y-28795609D01*
X52517518Y-48802745D02*
X52581553Y-48724212D01*
X8119212Y-28795609D02*
X8211289Y-28837915D01*
X31445709Y-11241358D02*
X31381967Y-11324428D01*
X31418450Y-28224211D02*
X31482485Y-28302744D01*
X52875506Y-48194611D02*
X52908280Y-48098727D01*
X7622067Y-28449585D02*
X7697256Y-28517516D01*
X28875505Y-48194611D02*
X28908279Y-48098727D01*
X7661739Y-31513710D02*
X7585786Y-31585786D01*
X28975378Y-32687130D02*
X28956296Y-32584176D01*
X51501307Y-49436155D02*
X51598728Y-49408279D01*
X51101300Y-49497434D02*
X51202338Y-49489739D01*
X60000002Y0D02*
X0Y0D01*
X7002740Y-12395327D02*
X7000000Y-12499999D01*
X32895329Y-31002740D02*
X32790944Y-31010956D01*
X28867162Y-11783262D02*
X28827092Y-11686525D01*
X31063847Y-27501305D02*
X31091723Y-27598726D01*
X52641528Y-48642537D02*
X52697290Y-48557929D01*
X28641527Y-28142536D02*
X28697289Y-28057928D01*
X51716737Y-31132838D02*
X51618035Y-31097886D01*
X32283265Y-31132839D02*
X32186527Y-31172909D01*
X51312870Y-31024623D02*
X51209058Y-31010956D01*
X55000002Y-51500001D02*
X43500001Y-51500001D01*
X31162086Y-48288712D02*
X31204392Y-48380789D01*
X28517517Y-48802745D02*
X28581552Y-48724212D01*
X52795611Y-27880788D02*
X52837917Y-27788711D01*
X52618036Y-31824429D02*
X52554294Y-31741358D01*
X28931853Y-32482361D02*
X28902114Y-32381965D01*
X31942073Y-28697288D02*
X32029398Y-28748693D01*
X31000001Y-12499999D02*
X31000002Y-27000000D01*
X28302745Y-49017517D02*
X28377934Y-48949586D01*
X51716737Y-10632837D02*
X51618035Y-10597885D01*
X52697290Y-48557929D02*
X52748695Y-48470604D01*
X51000001Y-10499999D02*
X43500001Y-10499999D01*
X52517518Y-28302744D02*
X52581553Y-28224211D01*
X32584177Y-31043704D02*
X32482363Y-31068148D01*
X52902115Y-11881964D02*
X52867163Y-11783262D01*
X31482485Y-48802745D02*
X31550416Y-48877934D01*
X31217988Y-32092019D02*
X31172910Y-32186526D01*
X32000001Y-10767948D02*
X31910723Y-10822658D01*
X52931854Y-11982360D02*
X52902115Y-11881964D01*
X28677342Y-31910721D02*
X28618035Y-31824429D01*
X33000002Y-29000000D02*
X40500001Y-29000000D01*
X7132839Y-11783263D02*
X7097887Y-11881965D01*
X52581553Y-28224211D02*
X52641528Y-28142536D01*
X52936156Y-48001306D02*
X52959061Y-47902598D01*
X8283264Y-10632838D02*
X8186526Y-10672908D01*
X27312869Y-31024623D02*
X27209057Y-31010956D01*
X27101299Y-49497434D02*
X27202337Y-49489739D01*
X52175572Y-10881964D02*
X52089279Y-10822657D01*
X28414214Y-11085785D02*
X28338262Y-11013708D01*
X32898703Y-49497434D02*
X33000002Y-49500001D01*
X7043704Y-32584176D02*
X7024623Y-32687131D01*
X52449587Y-28377933D02*
X52517518Y-28302744D01*
X31000001Y-33000000D02*
X31000002Y-47500001D01*
X51415824Y-10543703D02*
X51312870Y-10524622D01*
X28989739Y-27202336D02*
X28997434Y-27101298D01*
X31910723Y-10822658D02*
X31824430Y-10881965D01*
X27501306Y-49436155D02*
X27598727Y-49408279D01*
X28338262Y-11013708D02*
X28258641Y-10945706D01*
X8797664Y-49489739D02*
X8898702Y-49497434D01*
X27202337Y-49489739D02*
X27302856Y-49476937D01*
X31091723Y-27598726D02*
X31124497Y-27694610D01*
X52867163Y-32283263D02*
X52827093Y-32186526D01*
X31091723Y-48098727D02*
X31124497Y-48194611D01*
X32597404Y-49459060D02*
X32697146Y-49476937D01*
X52175572Y-31381965D02*
X52089279Y-31322658D01*
X31251308Y-48470604D02*
X31302713Y-48557929D01*
X32305391Y-49375505D02*
X32401275Y-49408279D01*
X28837916Y-27788711D02*
X28875505Y-27694610D01*
X43500001Y-29000000D02*
X51000002Y-29000000D01*
X19500000Y-51500001D02*
X19500000Y-49500001D01*
X52224213Y-28581551D02*
X52302746Y-28517516D01*
X43500001Y-10499999D02*
X43500001Y-8499999D01*
X28000000Y-10767947D02*
X27907981Y-10717985D01*
X28581552Y-28224211D02*
X28641527Y-28142536D01*
X32381967Y-10597886D02*
X32283265Y-10632838D01*
X52581553Y-48724212D02*
X52641528Y-48642537D01*
X5000000Y-51500001D02*
X5000000Y-8499999D01*
X28000000Y-31267948D02*
X27907981Y-31217986D01*
X52677343Y-31910721D02*
X52618036Y-31824429D01*
X7697256Y-28517516D02*
X7775789Y-28581551D01*
X28936155Y-48001306D02*
X28959060Y-47902598D01*
X52827093Y-32186526D02*
X52782015Y-32092018D01*
X28997261Y-32895328D02*
X28989045Y-32790942D01*
X28956296Y-32584176D02*
X28931853Y-32482361D01*
X51501307Y-28936154D02*
X51598728Y-28908278D01*
X19500000Y-49500001D02*
X19500000Y-49500001D01*
X28338262Y-31513709D02*
X28258641Y-31445707D01*
X31043705Y-32584176D02*
X31024624Y-32687131D01*
X40500001Y-10499999D02*
X33000001Y-10499999D01*
X52956297Y-32584176D02*
X52931854Y-32482361D01*
X51104672Y-31002740D02*
X51000001Y-31000000D01*
X43500001Y-8499999D02*
X55000002Y-8499999D01*
X8092019Y-31217987D02*
X8000000Y-31267949D01*
X27716736Y-10632837D02*
X27618034Y-10597885D01*
X7445708Y-31741359D02*
X7381966Y-31824429D01*
X27618034Y-10597885D02*
X27517638Y-10568147D01*
X27000001Y-29000000D02*
X27101299Y-28997433D01*
X33000001Y-31000000D02*
X32895329Y-31002740D01*
X28486290Y-31661738D02*
X28414214Y-31585786D01*
X27104671Y-10502739D02*
X27000000Y-10499999D01*
X31010263Y-47702337D02*
X31023065Y-47802856D01*
X7204391Y-48380789D02*
X7251307Y-48470604D01*
X7162085Y-48288712D02*
X7204391Y-48380789D01*
X28989045Y-12290941D02*
X28975378Y-12187129D01*
X28142537Y-49141527D02*
X28224212Y-49081552D01*
X7622067Y-48949586D02*
X7697256Y-49017517D01*
X51302857Y-28976936D02*
X51402599Y-28959059D01*
X27209057Y-10510955D02*
X27104671Y-10502739D01*
X31267950Y-32000000D02*
X31217988Y-32092019D01*
X31942073Y-49197289D02*
X32029398Y-49248694D01*
X43500001Y-49500001D02*
X51000002Y-49500001D01*
X55000002Y-8499999D02*
X55000002Y-51500001D01*
X7217987Y-32092019D02*
X7172909Y-32186526D01*
X16500000Y-29000000D02*
X16500000Y-30000000D01*
X31002741Y-12395327D02*
X31000001Y-12499999D01*
X52956297Y-12084175D02*
X52931854Y-11982360D01*
X31775790Y-28581551D02*
X31857465Y-28641526D01*
X31132840Y-32283264D02*
X31097888Y-32381966D01*
X27880789Y-28795609D02*
X27970604Y-28748693D01*
X8186526Y-10672908D02*
X8092019Y-10717986D01*
X7010262Y-47702337D02*
X7023064Y-47802856D01*
X7251307Y-48470604D02*
X7302712Y-48557929D01*
X7661739Y-11013709D02*
X7585786Y-11085785D01*
X31445709Y-31741359D02*
X31381967Y-31824429D01*
X32186527Y-10672908D02*
X32092020Y-10717986D01*
X7267949Y-32000000D02*
X7217987Y-32092019D01*
X7550415Y-28377933D02*
X7622067Y-28449585D01*
X28989739Y-47702337D02*
X28997434Y-47601299D01*
X43500001Y-51500001D02*
X43500001Y-49500001D01*
X19500000Y-29000000D02*
X27000001Y-29000000D01*
X29000001Y-12499998D02*
X28997261Y-12395327D01*
X32092020Y-31217987D02*
X32000001Y-31267949D01*
X51598728Y-28908278D02*
X51694612Y-28875504D01*
X7824429Y-10881965D02*
X7741359Y-10945707D01*
X31023065Y-47802856D02*
X31040942Y-47902598D01*
X7002567Y-27101298D02*
X7010262Y-27202336D01*
X7910722Y-10822658D02*
X7824429Y-10881965D01*
X53000002Y-27000000D02*
X53000002Y-12499998D01*
X9000001Y-49500001D02*
X16500000Y-49500001D01*
X31010957Y-32790943D02*
X31002741Y-32895328D01*
X7162085Y-27788711D02*
X7204391Y-27880788D01*
X28875505Y-27694610D02*
X28908279Y-27598726D01*
X7124496Y-48194611D02*
X7162085Y-48288712D01*
X28908279Y-27598726D02*
X28936155Y-27501305D01*
X28908279Y-48098727D02*
X28936155Y-48001306D01*
X51813474Y-31172908D02*
X51716737Y-31132838D01*
X29000001Y-47500001D02*
X29000001Y-32999999D01*
X28581552Y-48724212D02*
X28641527Y-48642537D01*
X52000001Y-31267948D02*
X51907982Y-31217986D01*
X8790943Y-10510955D02*
X8687131Y-10524622D01*
X28224212Y-49081552D02*
X28302745Y-49017517D01*
X28827092Y-32186526D02*
X28782014Y-32092018D01*
X31661740Y-31513710D02*
X31585787Y-31585786D01*
X52414215Y-11085785D02*
X52338263Y-11013708D01*
X28837916Y-48288712D02*
X28875505Y-48194611D01*
X8000000Y-31267949D02*
X7910722Y-31322659D01*
X52997435Y-47601299D02*
X53000002Y-47500001D01*
X51813474Y-10672907D02*
X51716737Y-10632837D01*
X32687132Y-10524622D02*
X32584177Y-10543703D01*
X7585786Y-31585786D02*
X7513710Y-31661739D01*
X32000001Y-31267949D02*
X31910723Y-31322659D01*
X28795610Y-27880788D02*
X28837916Y-27788711D01*
X7097887Y-11881965D02*
X7068148Y-11982361D01*
X7000001Y-47500001D02*
X7002567Y-47601299D01*
X27694611Y-28875504D02*
X27788712Y-28837915D01*
X31097888Y-32381966D02*
X31068149Y-32482362D01*
X31002741Y-32895328D02*
X31000001Y-33000000D01*
X52976938Y-27302855D02*
X52989740Y-27202336D01*
X28936155Y-27501305D02*
X28959060Y-27402597D01*
X32401275Y-49408279D02*
X32498696Y-49436155D01*
X32211290Y-28837915D02*
X32305391Y-28875504D01*
X51415824Y-31043704D02*
X51312870Y-31024623D01*
X32797665Y-28989738D02*
X32898703Y-28997433D01*
X32898703Y-28997433D02*
X33000002Y-29000000D01*
X28414214Y-31585786D02*
X28338262Y-31513709D01*
X32305391Y-28875504D02*
X32401275Y-28908278D01*
X51104672Y-10502739D02*
X51000001Y-10499999D01*
X51000001Y-31000000D02*
X43500001Y-31000000D01*
X52748695Y-48470604D02*
X52795611Y-48380789D01*
X7741359Y-10945707D02*
X7661739Y-11013709D01*
X28782014Y-32092018D02*
X28732052Y-31999999D01*
X8697145Y-49476937D02*
X8797664Y-49489739D01*
X27415823Y-31043704D02*
X27312869Y-31024623D01*
X32186527Y-31172909D02*
X32092020Y-31217987D01*
X7857464Y-28641526D02*
X7942072Y-28697288D01*
X16500000Y-31000000D02*
X9000000Y-31000000D01*
X31622068Y-28449585D02*
X31697257Y-28517516D01*
X31124497Y-48194611D02*
X31162086Y-48288712D01*
X7381966Y-31824429D02*
X7322659Y-31910722D01*
X43500001Y-31000000D02*
X43500001Y-30000000D01*
X52554294Y-11241357D02*
X52486291Y-11161737D01*
X27101299Y-28997433D02*
X27202337Y-28989738D01*
X40500001Y-29000000D02*
X40500001Y-30000000D01*
X51618035Y-10597885D02*
X51517639Y-10568147D01*
X27618034Y-31097886D02*
X27517638Y-31068148D01*
X60000002Y-60000000D02*
X60000002Y0D01*
X27302856Y-28976936D02*
X27402598Y-28959059D01*
X52748695Y-27970603D02*
X52795611Y-27880788D01*
X9000001Y-29000000D02*
X16500000Y-29000000D01*
X31322660Y-31910722D02*
X31267950Y-32000000D01*
X28931853Y-11982360D02*
X28902114Y-11881964D01*
X31585787Y-31585786D02*
X31513711Y-31661739D01*
X27402598Y-28959059D02*
X27501306Y-28936154D01*
X52641528Y-28142536D02*
X52697290Y-28057928D01*
X8498695Y-28936154D02*
X8597403Y-28959059D01*
X31097888Y-11881965D02*
X31068149Y-11982361D01*
X31002568Y-27101298D02*
X31010263Y-27202336D01*
X52975379Y-12187129D02*
X52956297Y-12084175D01*
X27598727Y-28908278D02*
X27694611Y-28875504D01*
X8898702Y-28997433D02*
X9000001Y-29000000D01*
X51402599Y-28959059D02*
X51501307Y-28936154D01*
X27716736Y-31132838D02*
X27618034Y-31097886D01*
X7000001Y-27000000D02*
X7002567Y-27101298D01*
X27970604Y-28748693D02*
X28057929Y-28697288D01*
X52618036Y-11324428D02*
X52554294Y-11241357D01*
X29000001Y-32999999D02*
X28997261Y-32895328D01*
X7091722Y-48098727D02*
X7124496Y-48194611D01*
X31204392Y-48380789D02*
X31251308Y-48470604D01*
X8597403Y-28959059D02*
X8697145Y-28976936D01*
X52732053Y-11499998D02*
X52677343Y-11410720D01*
X27209057Y-31010956D02*
X27104671Y-31002740D01*
X7322659Y-11410721D02*
X7267949Y-11499999D01*
X52931854Y-32482361D02*
X52902115Y-32381965D01*
X7040941Y-47902598D02*
X7063846Y-48001306D01*
X8895328Y-10502739D02*
X8790943Y-10510955D01*
X51788713Y-49337916D02*
X51880790Y-49295610D01*
X32029398Y-49248694D02*
X32119213Y-49295610D01*
X31857465Y-28641526D02*
X31942073Y-28697288D01*
X28057929Y-28697288D02*
X28142537Y-28641526D01*
X52697290Y-28057928D02*
X52748695Y-27970603D01*
X52795611Y-48380789D02*
X52837917Y-48288712D01*
X8401274Y-28908278D02*
X8498695Y-28936154D01*
X29000001Y-27000000D02*
X29000001Y-12499998D01*
X28902114Y-32381965D02*
X28867162Y-32283263D01*
X7741359Y-31445708D02*
X7661739Y-31513710D01*
X8401274Y-49408279D02*
X8498695Y-49436155D01*
X8305390Y-49375505D02*
X8401274Y-49408279D01*
X8000000Y-10767948D02*
X7910722Y-10822658D01*
X9000000Y-10499999D02*
X9000000Y-10499999D01*
X27788712Y-49337916D02*
X27880789Y-49295610D01*
X52975379Y-32687130D02*
X52956297Y-32584176D01*
X7097887Y-32381966D02*
X7068148Y-32482362D01*
X51694612Y-28875504D02*
X51788713Y-28837915D01*
X28089278Y-31322658D02*
X28000000Y-31267948D01*
X9000000Y-31000000D02*
X8895328Y-31002740D01*
X28175571Y-31381965D02*
X28089278Y-31322658D01*
X52732053Y-31999999D02*
X52677343Y-31910721D01*
X52000001Y-10767947D02*
X51907982Y-10717985D01*
X33000001Y-10499999D02*
X32895329Y-10502739D01*
X31741360Y-10945707D02*
X31661740Y-11013709D01*
X7942072Y-28697288D02*
X8029397Y-28748693D01*
X19500000Y-30000000D02*
X19500000Y-29000000D01*
X28517517Y-28302744D02*
X28581552Y-28224211D01*
X52875506Y-27694610D02*
X52908280Y-27598726D01*
X7040941Y-27402597D02*
X7063846Y-27501305D01*
X28449586Y-28377933D02*
X28517517Y-28302744D01*
X31418450Y-48724212D02*
X31482485Y-48802745D01*
X27907981Y-10717985D02*
X27813473Y-10672907D01*
X51517639Y-10568147D02*
X51415824Y-10543703D01*
X7482484Y-48802745D02*
X7550415Y-48877934D01*
X31513711Y-11161738D02*
X31445709Y-11241358D01*
X8697145Y-28976936D02*
X8797664Y-28989738D01*
X28902114Y-11881964D02*
X28867162Y-11783262D01*
X32482363Y-10568147D02*
X32381967Y-10597886D01*
X52414215Y-31585786D02*
X52338263Y-31513709D01*
X52677343Y-11410720D02*
X52618036Y-11324428D01*
X7358474Y-28142536D02*
X7418449Y-28224211D01*
X31002568Y-47601299D02*
X31010263Y-47702337D01*
X52959061Y-47902598D02*
X52976938Y-47802856D01*
X8687131Y-31024623D02*
X8584176Y-31043704D01*
X55000002Y-51500001D02*
X55000002Y-51500001D01*
X32790944Y-31010956D02*
X32687132Y-31024623D01*
X52997262Y-12395327D02*
X52989046Y-12290941D01*
X31124497Y-27694610D02*
X31162086Y-27788711D01*
X32401275Y-28908278D02*
X32498696Y-28936154D01*
X52449587Y-48877934D02*
X52517518Y-48802745D01*
X19500000Y-10499999D02*
X19500000Y-8499999D01*
X7322659Y-31910722D02*
X7267949Y-32000000D01*
X5000000Y-8499999D02*
X16500000Y-8499999D01*
X28449586Y-48877934D02*
X28517517Y-48802745D01*
X31024624Y-32687131D02*
X31010957Y-32790943D01*
X8687131Y-10524622D02*
X8584176Y-10543703D01*
X31024624Y-12187130D02*
X31010957Y-12290942D01*
X51000002Y-49500001D02*
X51101300Y-49497434D01*
X31358475Y-48642537D02*
X31418450Y-48724212D01*
X32119213Y-49295610D02*
X32211290Y-49337916D01*
X7023064Y-47802856D02*
X7040941Y-47902598D01*
X7445708Y-11241358D02*
X7381966Y-11324428D01*
X31302713Y-28057928D02*
X31358475Y-28142536D01*
X52997435Y-27101298D02*
X53000002Y-27000000D01*
X7010262Y-27202336D02*
X7023064Y-27302855D01*
X31063847Y-48001306D02*
X31091723Y-48098727D01*
X8029397Y-49248694D02*
X8119212Y-49295610D01*
X16500000Y-10499999D02*
X9000000Y-10499999D01*
X31910723Y-31322659D02*
X31824430Y-31381966D01*
X53000002Y-12499998D02*
X52997262Y-12395327D01*
X7550415Y-48877934D02*
X7622067Y-48949586D01*
X28956296Y-12084175D02*
X28931853Y-11982360D01*
X27000000Y-10499999D02*
X19500000Y-10499999D01*
X51402599Y-49459060D02*
X51501307Y-49436155D01*
X8211289Y-49337916D02*
X8305390Y-49375505D01*
X31068149Y-11982361D02*
X31043705Y-12084175D01*
X52554294Y-31741358D02*
X52486291Y-31661738D01*
X32029398Y-28748693D02*
X32119213Y-28795609D01*
X7132839Y-32283264D02*
X7097887Y-32381966D01*
X28989045Y-32790942D02*
X28975378Y-32687130D01*
X28258641Y-31445707D02*
X28175571Y-31381965D01*
X27302856Y-49476937D02*
X27402598Y-49459060D01*
X7172909Y-32186526D02*
X7132839Y-32283264D01*
X16500000Y-51500001D02*
X5000000Y-51500001D01*
X27598727Y-49408279D02*
X27694611Y-49375505D01*
X31204392Y-27880788D02*
X31251308Y-27970603D01*
X27104671Y-31002740D02*
X27000000Y-31000000D01*
X19500000Y-8499999D02*
X40500001Y-8499999D01*
X7585786Y-11085785D02*
X7513710Y-11161738D01*
X7217987Y-11592018D02*
X7172909Y-11686525D01*
X32498696Y-28936154D02*
X32597404Y-28959059D01*
X28377934Y-28449585D02*
X28449586Y-28377933D01*
X7023064Y-27302855D02*
X7040941Y-27402597D01*
X51101300Y-28997433D02*
X51202338Y-28989738D01*
X8482362Y-10568147D02*
X8381966Y-10597886D01*
X0Y0D02*
X0Y-60000000D01*
X31023065Y-27302855D02*
X31040942Y-27402597D01*
X52258642Y-10945706D02*
X52175572Y-10881964D01*
X7063846Y-27501305D02*
X7091722Y-27598726D01*
X7024623Y-32687131D02*
X7010956Y-32790943D01*
X16500000Y-8499999D02*
X16500000Y-10499999D01*
X19500000Y-31000000D02*
X19500000Y-30000000D01*
X51970605Y-28748693D02*
X52057930Y-28697288D01*
X7000000Y-33000000D02*
X7000001Y-47500001D01*
X31162086Y-27788711D02*
X31204392Y-27880788D01*
X7775789Y-49081552D02*
X7857464Y-49141527D01*
X28997261Y-12395327D02*
X28989045Y-12290941D01*
X51302857Y-49476937D02*
X51402599Y-49459060D01*
X7358474Y-48642537D02*
X7418449Y-48724212D01*
X27813473Y-31172908D02*
X27716736Y-31132838D01*
X27312869Y-10524622D02*
X27209057Y-10510955D01*
X52989740Y-47702337D02*
X52997435Y-47601299D01*
X8498695Y-49436155D02*
X8597403Y-49459060D01*
X31010263Y-27202336D02*
X31023065Y-27302855D01*
X7381966Y-11324428D02*
X7322659Y-11410721D01*
X7482484Y-28302744D02*
X7550415Y-28377933D01*
X31040942Y-27402597D02*
X31063847Y-27501305D01*
X27402598Y-49459060D02*
X27501306Y-49436155D01*
X28641527Y-48642537D02*
X28697289Y-48557929D01*
X52989740Y-27202336D02*
X52997435Y-27101298D01*
X51312870Y-10524622D02*
X51209058Y-10510955D01*
X52302746Y-28517516D02*
X52377935Y-28449585D01*
X52989046Y-12290941D02*
X52975379Y-12187129D01*
X32119213Y-28795609D02*
X32211290Y-28837915D01*
X31172910Y-32186526D02*
X31132840Y-32283264D01*
X7697256Y-49017517D02*
X7775789Y-49081552D01*
X51202338Y-49489739D02*
X51302857Y-49476937D01*
X53000002Y-32999999D02*
X52997262Y-32895328D01*
X7124496Y-27694610D02*
X7162085Y-27788711D01*
X28057929Y-49197289D02*
X28142537Y-49141527D01*
X7513710Y-31661739D02*
X7445708Y-31741359D01*
X51880790Y-49295610D02*
X51970605Y-49248694D01*
X7010956Y-12290942D02*
X7002740Y-12395327D01*
X7775789Y-28581551D02*
X7857464Y-28641526D01*
X31132840Y-11783263D02*
X31097888Y-11881965D01*
X28748694Y-27970603D02*
X28795610Y-27880788D01*
X28997434Y-47601299D02*
X29000001Y-47500001D01*
X8895328Y-31002740D02*
X8790943Y-31010956D01*
X8482362Y-31068148D02*
X8381966Y-31097887D01*
X27517638Y-10568147D02*
X27415823Y-10543703D01*
X7091722Y-27598726D02*
X7124496Y-27694610D01*
X28302745Y-28517516D02*
X28377934Y-28449585D01*
X43500001Y-30000000D02*
X43500001Y-29000000D01*
X32482363Y-31068148D02*
X32381967Y-31097887D01*
X31172910Y-11686525D02*
X31132840Y-11783263D01*
X28959060Y-47902598D02*
X28976937Y-47802856D01*
X51598728Y-49408279D02*
X51694612Y-49375505D01*
X40500001Y-30000000D02*
X40500001Y-31000000D01*
X8119212Y-49295610D02*
X8211289Y-49337916D01*
X52989046Y-32790942D02*
X52975379Y-32687130D01*
X7910722Y-31322659D02*
X7824429Y-31381966D01*
X8597403Y-49459060D02*
X8697145Y-49476937D01*
X31068149Y-32482362D02*
X31043705Y-32584176D01*
X31857465Y-49141527D02*
X31942073Y-49197289D01*
X28782014Y-11592017D02*
X28732052Y-11499998D01*
X27907981Y-31217986D02*
X27813473Y-31172908D01*
X8790943Y-31010956D02*
X8687131Y-31024623D01*
X28697289Y-28057928D02*
X28748694Y-27970603D01*
X51907982Y-31217986D02*
X51813474Y-31172908D01*
X51202338Y-28989738D02*
X51302857Y-28976936D01*
X28618035Y-11324428D02*
X28554293Y-11241357D01*
X33000002Y-49500001D02*
X40500001Y-49500001D01*
X60000002Y-60000000D02*
X60000002Y-60000000D01*
X32584177Y-10543703D02*
X32482363Y-10568147D01*
X7418449Y-48724212D02*
X7482484Y-48802745D01*
X32697146Y-28976936D02*
X32797665Y-28989738D01*
X31010957Y-12290942D02*
X31002741Y-12395327D01*
X7002740Y-32895328D02*
X7000000Y-33000000D01*
M02*
