%TF.GenerationSoftware,KiCad,Pcbnew,8.0.1-8.0.1-1~ubuntu22.04.1*%
%TF.CreationDate,2024-03-30T15:26:48+00:00*%
%TF.ProjectId,FES_AO4882,4645535f-414f-4343-9838-322e6b696361,v1.0*%
%TF.SameCoordinates,Original*%
%TF.FileFunction,Copper,L2,Inr*%
%TF.FilePolarity,Positive*%
%FSLAX46Y46*%
G04 Gerber Fmt 4.6, Leading zero omitted, Abs format (unit mm)*
G04 Created by KiCad (PCBNEW 8.0.1-8.0.1-1~ubuntu22.04.1) date 2024-03-30 15:26:48*
%MOMM*%
%LPD*%
G01*
G04 APERTURE LIST*
%TA.AperFunction,ComponentPad*%
%ADD10R,1.000000X1.000000*%
%TD*%
%TA.AperFunction,ViaPad*%
%ADD11C,0.400000*%
%TD*%
G04 APERTURE END LIST*
D10*
%TO.N,/FES4in*%
%TO.C,J22*%
X-1905000Y0D03*
%TD*%
%TO.N,+3.3V*%
%TO.C,J1*%
X-4445000Y10000000D03*
%TD*%
%TO.N,/MOSI_ARM*%
%TO.C,J5*%
X635000Y10000000D03*
%TD*%
%TO.N,/SWDIO{slash}MISO_ARM*%
%TO.C,J4*%
X-635000Y10000000D03*
%TD*%
%TO.N,/SWDIO{slash}MISO_ARM*%
%TO.C,J16*%
X635000Y2540000D03*
%TD*%
%TO.N,/FES1in*%
%TO.C,J11*%
X1905000Y0D03*
%TD*%
%TO.N,/extRef*%
%TO.C,J8*%
X4445000Y10000000D03*
%TD*%
%TO.N,/SPICS_ARM*%
%TO.C,J7*%
X3175000Y10000000D03*
%TD*%
%TO.N,/FES1out*%
%TO.C,J12*%
X635000Y0D03*
%TD*%
%TO.N,GND*%
%TO.C,J17*%
X635000Y1270000D03*
%TD*%
%TO.N,/FES2out*%
%TO.C,J14*%
X4445000Y0D03*
%TD*%
%TO.N,/FES2in*%
%TO.C,J13*%
X3175000Y0D03*
%TD*%
%TO.N,/FES4out*%
%TO.C,J23*%
X-635000Y0D03*
%TD*%
%TO.N,GND*%
%TO.C,J2*%
X-3175000Y10000000D03*
%TD*%
%TO.N,VCC*%
%TO.C,J24*%
X-635000Y1270000D03*
%TD*%
%TO.N,/SWCLK{slash}IO1out*%
%TO.C,J15*%
X-635000Y2540000D03*
%TD*%
%TO.N,/FES3in*%
%TO.C,J20*%
X-3175000Y0D03*
%TD*%
%TO.N,/SCLK_ARM*%
%TO.C,J6*%
X1905000Y10000000D03*
%TD*%
%TO.N,unconnected-(J3-Pin_1-Pad1)*%
%TO.C,J3*%
X-1905000Y10000000D03*
%TD*%
%TO.N,/FES3out*%
%TO.C,J21*%
X-4445000Y0D03*
%TD*%
D11*
%TO.N,+3.3V*%
X-1600000Y4490001D03*
X1600000Y5700000D03*
%TO.N,GND*%
X-6510000Y7670000D03*
X5500000Y8000000D03*
X-3700000Y7909999D03*
%TO.N,/SWCLK{slash}IO1out*%
X-1400000Y8600000D03*
%TO.N,/GPIO*%
X-1600000Y5500000D03*
%TO.N,VCC*%
X4100000Y5330000D03*
%TO.N,/PWM1*%
X5500000Y9100000D03*
X1500000Y8600000D03*
%TO.N,/PWM2_*%
X6500000Y7670000D03*
%TO.N,/PWM1_*%
X4400000Y6800000D03*
%TO.N,/PWM4_*%
X-2700000Y6890001D03*
%TO.N,/PWM3_*%
X-4700000Y6800000D03*
%TD*%
%TA.AperFunction,Conductor*%
%TO.N,GND*%
G36*
X-4960090Y10969816D02*
G01*
X-4914335Y10917012D01*
X-4904391Y10847854D01*
X-4933416Y10784298D01*
X-4992194Y10746524D01*
X-5002938Y10743884D01*
X-5042736Y10735968D01*
X-5042740Y10735967D01*
X-5125601Y10680601D01*
X-5180967Y10597740D01*
X-5180968Y10597736D01*
X-5195500Y10524679D01*
X-5195500Y9475322D01*
X-5180968Y9402265D01*
X-5180967Y9402261D01*
X-5180966Y9402260D01*
X-5125601Y9319399D01*
X-5047613Y9267290D01*
X-5042740Y9264034D01*
X-5042736Y9264033D01*
X-4969679Y9249501D01*
X-4969676Y9249500D01*
X-4174126Y9249500D01*
X-4107087Y9229815D01*
X-4074859Y9199811D01*
X-4032191Y9142814D01*
X-4032186Y9142809D01*
X-3917094Y9056650D01*
X-3917087Y9056646D01*
X-3782380Y9006404D01*
X-3782373Y9006402D01*
X-3722845Y9000001D01*
X-3722828Y9000000D01*
X-3425000Y9000000D01*
X-3425000Y9790382D01*
X-3374554Y9739936D01*
X-3300445Y9697149D01*
X-3217787Y9675000D01*
X-3132213Y9675000D01*
X-3049555Y9697149D01*
X-2975446Y9739936D01*
X-2925000Y9790382D01*
X-2925000Y9000000D01*
X-2627172Y9000000D01*
X-2627156Y9000001D01*
X-2567628Y9006402D01*
X-2567621Y9006404D01*
X-2432914Y9056646D01*
X-2432907Y9056650D01*
X-2317815Y9142809D01*
X-2317810Y9142814D01*
X-2275141Y9199811D01*
X-2219207Y9241682D01*
X-2175874Y9249500D01*
X-1643423Y9249500D01*
X-1576384Y9229815D01*
X-1530629Y9177011D01*
X-1520685Y9107853D01*
X-1549710Y9044297D01*
X-1582311Y9019892D01*
X-1581608Y9018798D01*
X-1589067Y9014005D01*
X-1589069Y9014004D01*
X-1648915Y8975544D01*
X-1698050Y8943967D01*
X-1782882Y8846063D01*
X-1782883Y8846062D01*
X-1836698Y8728226D01*
X-1855133Y8600000D01*
X-1836698Y8471775D01*
X-1782883Y8353939D01*
X-1782882Y8353937D01*
X-1698049Y8256033D01*
X-1589069Y8185996D01*
X-1464775Y8149501D01*
X-1464773Y8149500D01*
X-1464772Y8149500D01*
X-1335227Y8149500D01*
X-1335227Y8149501D01*
X-1210931Y8185996D01*
X-1101951Y8256033D01*
X-1017118Y8353937D01*
X-963303Y8471774D01*
X-944867Y8600000D01*
X-963303Y8728226D01*
X-1017118Y8846063D01*
X-1101951Y8943967D01*
X-1210931Y9014004D01*
X-1210934Y9014005D01*
X-1218392Y9018798D01*
X-1217222Y9020619D01*
X-1260895Y9058465D01*
X-1280577Y9125505D01*
X-1260889Y9192544D01*
X-1208083Y9238297D01*
X-1156577Y9249500D01*
X-110324Y9249500D01*
X-110323Y9249501D01*
X-93281Y9252891D01*
X-25281Y9266416D01*
X-24459Y9262280D01*
X21968Y9267290D01*
X25262Y9266323D01*
X25281Y9266416D01*
X110321Y9249501D01*
X110324Y9249500D01*
X110326Y9249500D01*
X1159676Y9249500D01*
X1159677Y9249501D01*
X1176719Y9252891D01*
X1244719Y9266416D01*
X1245541Y9262280D01*
X1291968Y9267290D01*
X1295261Y9266323D01*
X1295280Y9266417D01*
X1307259Y9264035D01*
X1307260Y9264034D01*
X1322199Y9261063D01*
X1384109Y9228678D01*
X1418684Y9167963D01*
X1414945Y9098193D01*
X1374080Y9041521D01*
X1332944Y9020468D01*
X1310934Y9014006D01*
X1201950Y8943967D01*
X1117118Y8846063D01*
X1117117Y8846062D01*
X1063302Y8728226D01*
X1044867Y8600000D01*
X1063302Y8471775D01*
X1117117Y8353939D01*
X1117118Y8353937D01*
X1201951Y8256033D01*
X1310931Y8185996D01*
X1435225Y8149501D01*
X1435227Y8149500D01*
X1435228Y8149500D01*
X1564773Y8149500D01*
X1564773Y8149501D01*
X1689069Y8185996D01*
X1798049Y8256033D01*
X1882882Y8353937D01*
X1936697Y8471774D01*
X1955133Y8600000D01*
X1936697Y8728226D01*
X1882882Y8846063D01*
X1798049Y8943967D01*
X1689069Y9014004D01*
X1689066Y9014005D01*
X1681608Y9018798D01*
X1682778Y9020619D01*
X1639105Y9058465D01*
X1619423Y9125505D01*
X1639111Y9192544D01*
X1691917Y9238297D01*
X1743423Y9249500D01*
X2429676Y9249500D01*
X2429677Y9249501D01*
X2446719Y9252891D01*
X2514719Y9266416D01*
X2515541Y9262280D01*
X2561968Y9267290D01*
X2565262Y9266323D01*
X2565281Y9266416D01*
X2650321Y9249501D01*
X2650324Y9249500D01*
X2650326Y9249500D01*
X3699676Y9249500D01*
X3699677Y9249501D01*
X3716719Y9252891D01*
X3784719Y9266416D01*
X3785541Y9262280D01*
X3831968Y9267290D01*
X3835262Y9266323D01*
X3835281Y9266416D01*
X3920321Y9249501D01*
X3920324Y9249500D01*
X4923258Y9249500D01*
X4990297Y9229815D01*
X5036052Y9177011D01*
X5045996Y9107854D01*
X5044867Y9100002D01*
X5044867Y9100001D01*
X5063302Y8971775D01*
X5076002Y8943967D01*
X5117118Y8853937D01*
X5201951Y8756033D01*
X5310931Y8685996D01*
X5435225Y8649501D01*
X5435227Y8649500D01*
X5435228Y8649500D01*
X5564773Y8649500D01*
X5564773Y8649501D01*
X5689069Y8685996D01*
X5798049Y8756033D01*
X5882882Y8853937D01*
X5936697Y8971774D01*
X5955133Y9100000D01*
X5936697Y9228226D01*
X5882882Y9346063D01*
X5879597Y9351175D01*
X5859915Y9418215D01*
X5879602Y9485254D01*
X5932407Y9531007D01*
X6001566Y9540948D01*
X6035437Y9531000D01*
X6035754Y9530855D01*
X6176598Y9489501D01*
X6176600Y9489500D01*
X6176601Y9489500D01*
X6323400Y9489500D01*
X6323400Y9489501D01*
X6450821Y9526914D01*
X6464247Y9530856D01*
X6464247Y9530857D01*
X6464250Y9530857D01*
X6587744Y9610222D01*
X6683877Y9721164D01*
X6744859Y9854696D01*
X6765750Y10000000D01*
X6744859Y10145304D01*
X6744858Y10145305D01*
X6744858Y10145308D01*
X6695060Y10254349D01*
X6683877Y10278836D01*
X6587744Y10389778D01*
X6464250Y10469143D01*
X6464249Y10469144D01*
X6464248Y10469144D01*
X6464247Y10469145D01*
X6323401Y10510500D01*
X6323399Y10510500D01*
X6176601Y10510500D01*
X6176598Y10510500D01*
X6035752Y10469145D01*
X6035751Y10469144D01*
X5912258Y10389780D01*
X5912254Y10389777D01*
X5816124Y10278838D01*
X5816121Y10278833D01*
X5755141Y10145308D01*
X5755140Y10145303D01*
X5734250Y10000000D01*
X5755140Y9854698D01*
X5755141Y9854693D01*
X5816121Y9721168D01*
X5816123Y9721164D01*
X5816124Y9721163D01*
X5816127Y9721159D01*
X5823689Y9712432D01*
X5852716Y9648877D01*
X5842773Y9579719D01*
X5797019Y9526914D01*
X5729980Y9507228D01*
X5695045Y9512250D01*
X5564772Y9550500D01*
X5435228Y9550500D01*
X5435226Y9550500D01*
X5354434Y9526778D01*
X5284564Y9526778D01*
X5225786Y9564553D01*
X5196762Y9628109D01*
X5195500Y9645755D01*
X5195500Y10524677D01*
X5195499Y10524679D01*
X5180967Y10597736D01*
X5180966Y10597740D01*
X5172619Y10610232D01*
X5125601Y10680601D01*
X5044499Y10734791D01*
X5042739Y10735967D01*
X5042735Y10735968D01*
X5002938Y10743884D01*
X4941027Y10776269D01*
X4906452Y10836985D01*
X4910192Y10906754D01*
X4951059Y10963426D01*
X5016077Y10989007D01*
X5027129Y10989501D01*
X6743908Y10989501D01*
X6756061Y10988904D01*
X6765633Y10987962D01*
X6882118Y10976489D01*
X6905948Y10971750D01*
X7021313Y10936754D01*
X7043761Y10927455D01*
X7150072Y10870631D01*
X7170282Y10857127D01*
X7263464Y10780656D01*
X7280654Y10763466D01*
X7357124Y10670286D01*
X7370628Y10650076D01*
X7427452Y10543767D01*
X7436754Y10521311D01*
X7452579Y10469143D01*
X7471747Y10405957D01*
X7476489Y10382115D01*
X7488903Y10256074D01*
X7489500Y10243920D01*
X7489500Y756094D01*
X7488903Y743940D01*
X7476488Y617888D01*
X7471746Y594047D01*
X7436753Y478691D01*
X7427450Y456233D01*
X7370629Y349928D01*
X7357124Y329716D01*
X7280653Y236536D01*
X7263465Y219348D01*
X7170284Y142876D01*
X7150072Y129371D01*
X7043768Y72550D01*
X7021310Y63247D01*
X6905954Y28254D01*
X6882113Y23512D01*
X6756072Y11098D01*
X6743918Y10501D01*
X5319500Y10501D01*
X5252461Y30186D01*
X5206706Y82990D01*
X5195500Y134501D01*
X5195500Y524677D01*
X5195499Y524679D01*
X5180967Y597736D01*
X5180966Y597740D01*
X5167504Y617888D01*
X5125601Y680601D01*
X5070235Y717595D01*
X5042739Y735967D01*
X5042735Y735968D01*
X4969677Y750500D01*
X4969674Y750500D01*
X3920326Y750500D01*
X3920324Y750500D01*
X3835283Y733584D01*
X3834462Y737709D01*
X3787897Y732736D01*
X3784733Y733665D01*
X3784717Y733584D01*
X3699676Y750500D01*
X3699674Y750500D01*
X2650326Y750500D01*
X2650324Y750500D01*
X2565283Y733584D01*
X2564462Y737709D01*
X2517897Y732736D01*
X2514733Y733665D01*
X2514717Y733584D01*
X2429676Y750500D01*
X2429674Y750500D01*
X1759000Y750500D01*
X1691961Y770185D01*
X1646206Y822989D01*
X1635000Y874500D01*
X1635000Y1020000D01*
X844618Y1020000D01*
X895064Y1070446D01*
X937851Y1144555D01*
X960000Y1227213D01*
X960000Y1312787D01*
X937851Y1395445D01*
X895064Y1469554D01*
X844618Y1520000D01*
X1635000Y1520000D01*
X1635000Y1817828D01*
X1634999Y1817845D01*
X1628598Y1877373D01*
X1628596Y1877380D01*
X1578354Y2012087D01*
X1578350Y2012094D01*
X1492191Y2127186D01*
X1492185Y2127193D01*
X1435188Y2169861D01*
X1393318Y2225795D01*
X1385500Y2269127D01*
X1385500Y3064677D01*
X1385499Y3064679D01*
X1370967Y3137736D01*
X1370966Y3137740D01*
X1315601Y3220601D01*
X1260235Y3257595D01*
X1232739Y3275967D01*
X1232735Y3275968D01*
X1159677Y3290500D01*
X1159674Y3290500D01*
X110326Y3290500D01*
X110324Y3290500D01*
X25283Y3273584D01*
X24462Y3277709D01*
X-22103Y3272736D01*
X-25267Y3273665D01*
X-25283Y3273584D01*
X-110324Y3290500D01*
X-110326Y3290500D01*
X-1159674Y3290500D01*
X-1159677Y3290500D01*
X-1232736Y3275968D01*
X-1232740Y3275967D01*
X-1315601Y3220601D01*
X-1370967Y3137740D01*
X-1370968Y3137736D01*
X-1385500Y3064679D01*
X-1385500Y3064674D01*
X-1385500Y2015326D01*
X-1385500Y2015324D01*
X-1385501Y2015324D01*
X-1368584Y1930283D01*
X-1372709Y1929463D01*
X-1367736Y1882897D01*
X-1368665Y1879734D01*
X-1368584Y1879717D01*
X-1385500Y1794677D01*
X-1385500Y874500D01*
X-1405185Y807461D01*
X-1457989Y761706D01*
X-1509500Y750500D01*
X-2429676Y750500D01*
X-2514717Y733584D01*
X-2515538Y737709D01*
X-2562103Y732736D01*
X-2565267Y733665D01*
X-2565283Y733584D01*
X-2650324Y750500D01*
X-2650326Y750500D01*
X-3699674Y750500D01*
X-3699676Y750500D01*
X-3784717Y733584D01*
X-3785538Y737709D01*
X-3832103Y732736D01*
X-3835267Y733665D01*
X-3835283Y733584D01*
X-3920324Y750500D01*
X-3920326Y750500D01*
X-4969674Y750500D01*
X-4969677Y750500D01*
X-5042736Y735968D01*
X-5042740Y735967D01*
X-5125601Y680601D01*
X-5180967Y597740D01*
X-5180968Y597736D01*
X-5195500Y524679D01*
X-5195500Y134501D01*
X-5215185Y67462D01*
X-5267989Y21707D01*
X-5319500Y10501D01*
X-6743910Y10501D01*
X-6756063Y11098D01*
X-6882113Y23512D01*
X-6905956Y28255D01*
X-7021311Y63248D01*
X-7043768Y72550D01*
X-7150072Y129371D01*
X-7170284Y142876D01*
X-7263465Y219348D01*
X-7280653Y236536D01*
X-7357125Y329717D01*
X-7370630Y349929D01*
X-7427451Y456233D01*
X-7436753Y478690D01*
X-7471746Y594045D01*
X-7476488Y617882D01*
X-7488903Y743940D01*
X-7489500Y756093D01*
X-7489500Y4490001D01*
X-2055133Y4490001D01*
X-2036698Y4361776D01*
X-1982883Y4243940D01*
X-1982882Y4243938D01*
X-1898049Y4146034D01*
X-1789069Y4075997D01*
X-1664775Y4039502D01*
X-1664773Y4039501D01*
X-1664772Y4039501D01*
X-1535227Y4039501D01*
X-1535227Y4039502D01*
X-1410931Y4075997D01*
X-1301951Y4146034D01*
X-1217118Y4243938D01*
X-1163303Y4361775D01*
X-1144867Y4490001D01*
X-1163303Y4618227D01*
X-1217118Y4736064D01*
X-1301951Y4833968D01*
X-1390206Y4890686D01*
X-1435960Y4943489D01*
X-1445904Y5012648D01*
X-1416879Y5076204D01*
X-1390207Y5099315D01*
X-1301951Y5156033D01*
X-1217118Y5253937D01*
X-1163303Y5371774D01*
X-1144867Y5500000D01*
X-1163303Y5628226D01*
X-1196081Y5700000D01*
X1144867Y5700000D01*
X1163302Y5571775D01*
X1196081Y5500000D01*
X1217118Y5453937D01*
X1301951Y5356033D01*
X1410931Y5285996D01*
X1520117Y5253937D01*
X1535225Y5249501D01*
X1535227Y5249500D01*
X1535228Y5249500D01*
X1664773Y5249500D01*
X1664773Y5249501D01*
X1789069Y5285996D01*
X1857541Y5330000D01*
X3644867Y5330000D01*
X3663302Y5201775D01*
X3684192Y5156034D01*
X3717118Y5083937D01*
X3801951Y4986033D01*
X3910931Y4915996D01*
X4035225Y4879501D01*
X4035227Y4879500D01*
X4035228Y4879500D01*
X4164773Y4879500D01*
X4164773Y4879501D01*
X4289069Y4915996D01*
X4398049Y4986033D01*
X4482882Y5083937D01*
X4536697Y5201774D01*
X4555133Y5330000D01*
X4536697Y5458226D01*
X4482882Y5576063D01*
X4398049Y5673967D01*
X4289069Y5744004D01*
X4289065Y5744006D01*
X4289064Y5744006D01*
X4164774Y5780500D01*
X4164772Y5780500D01*
X4035228Y5780500D01*
X4035226Y5780500D01*
X3910935Y5744006D01*
X3910932Y5744005D01*
X3910931Y5744004D01*
X3859677Y5711066D01*
X3801950Y5673967D01*
X3717118Y5576063D01*
X3717117Y5576062D01*
X3663302Y5458226D01*
X3644867Y5330000D01*
X1857541Y5330000D01*
X1898049Y5356033D01*
X1982882Y5453937D01*
X2036697Y5571774D01*
X2055133Y5700000D01*
X2036697Y5828226D01*
X1982882Y5946063D01*
X1898049Y6043967D01*
X1789069Y6114004D01*
X1789065Y6114006D01*
X1789064Y6114006D01*
X1664774Y6150500D01*
X1664772Y6150500D01*
X1535228Y6150500D01*
X1535226Y6150500D01*
X1410935Y6114006D01*
X1410932Y6114005D01*
X1410931Y6114004D01*
X1359677Y6081066D01*
X1301950Y6043967D01*
X1217118Y5946063D01*
X1217117Y5946062D01*
X1163302Y5828226D01*
X1144867Y5700000D01*
X-1196081Y5700000D01*
X-1217118Y5746063D01*
X-1301951Y5843967D01*
X-1410931Y5914004D01*
X-1410935Y5914006D01*
X-1410936Y5914006D01*
X-1535226Y5950500D01*
X-1535228Y5950500D01*
X-1664772Y5950500D01*
X-1664774Y5950500D01*
X-1789065Y5914006D01*
X-1789068Y5914005D01*
X-1789069Y5914004D01*
X-1840323Y5881066D01*
X-1898050Y5843967D01*
X-1982882Y5746063D01*
X-1982883Y5746062D01*
X-2036698Y5628226D01*
X-2055133Y5500000D01*
X-2036698Y5371775D01*
X-1997523Y5285996D01*
X-1982882Y5253937D01*
X-1898049Y5156033D01*
X-1809795Y5099316D01*
X-1764041Y5046513D01*
X-1754097Y4977355D01*
X-1783122Y4913799D01*
X-1809795Y4890686D01*
X-1898049Y4833969D01*
X-1982882Y4736064D01*
X-1982883Y4736063D01*
X-2036698Y4618227D01*
X-2055133Y4490001D01*
X-7489500Y4490001D01*
X-7489500Y6800000D01*
X-5155133Y6800000D01*
X-5136698Y6671775D01*
X-5123985Y6643939D01*
X-5082882Y6553937D01*
X-4998049Y6456033D01*
X-4889069Y6385996D01*
X-4764775Y6349501D01*
X-4764773Y6349500D01*
X-4764772Y6349500D01*
X-4635227Y6349500D01*
X-4635227Y6349501D01*
X-4510931Y6385996D01*
X-4401951Y6456033D01*
X-4317118Y6553937D01*
X-4263303Y6671774D01*
X-4244867Y6800000D01*
X-4257807Y6890001D01*
X-3155133Y6890001D01*
X-3136698Y6761776D01*
X-3082883Y6643940D01*
X-3082882Y6643938D01*
X-2998049Y6546034D01*
X-2889069Y6475997D01*
X-2821076Y6456033D01*
X-2764775Y6439502D01*
X-2764773Y6439501D01*
X-2764772Y6439501D01*
X-2635227Y6439501D01*
X-2635227Y6439502D01*
X-2510931Y6475997D01*
X-2401951Y6546034D01*
X-2317118Y6643938D01*
X-2263303Y6761775D01*
X-2257807Y6800000D01*
X3944867Y6800000D01*
X3963302Y6671775D01*
X3976015Y6643939D01*
X4017118Y6553937D01*
X4101951Y6456033D01*
X4210931Y6385996D01*
X4335225Y6349501D01*
X4335227Y6349500D01*
X4335228Y6349500D01*
X4464773Y6349500D01*
X4464773Y6349501D01*
X4589069Y6385996D01*
X4698049Y6456033D01*
X4782882Y6553937D01*
X4836697Y6671774D01*
X4855133Y6800000D01*
X4836697Y6928226D01*
X4782882Y7046063D01*
X4698049Y7143967D01*
X4589069Y7214004D01*
X4589065Y7214006D01*
X4589064Y7214006D01*
X4464774Y7250500D01*
X4464772Y7250500D01*
X4335228Y7250500D01*
X4335226Y7250500D01*
X4210935Y7214006D01*
X4210932Y7214005D01*
X4210931Y7214004D01*
X4159677Y7181066D01*
X4101950Y7143967D01*
X4017118Y7046063D01*
X4017117Y7046062D01*
X3963302Y6928226D01*
X3944867Y6800000D01*
X-2257807Y6800000D01*
X-2244867Y6890001D01*
X-2263303Y7018227D01*
X-2317118Y7136064D01*
X-2401951Y7233968D01*
X-2510931Y7304005D01*
X-2510935Y7304007D01*
X-2510936Y7304007D01*
X-2635226Y7340501D01*
X-2635228Y7340501D01*
X-2764772Y7340501D01*
X-2764774Y7340501D01*
X-2889065Y7304007D01*
X-2889068Y7304006D01*
X-2889069Y7304005D01*
X-2940323Y7271067D01*
X-2998050Y7233968D01*
X-3082882Y7136064D01*
X-3082883Y7136063D01*
X-3136698Y7018227D01*
X-3155133Y6890001D01*
X-4257807Y6890001D01*
X-4263303Y6928226D01*
X-4317118Y7046063D01*
X-4401951Y7143967D01*
X-4510931Y7214004D01*
X-4510935Y7214006D01*
X-4510936Y7214006D01*
X-4635226Y7250500D01*
X-4635228Y7250500D01*
X-4764772Y7250500D01*
X-4764774Y7250500D01*
X-4889065Y7214006D01*
X-4889068Y7214005D01*
X-4889069Y7214004D01*
X-4940323Y7181066D01*
X-4998050Y7143967D01*
X-5082882Y7046063D01*
X-5082883Y7046062D01*
X-5136698Y6928226D01*
X-5155133Y6800000D01*
X-7489500Y6800000D01*
X-7489500Y7670000D01*
X6044867Y7670000D01*
X6063302Y7541775D01*
X6117117Y7423939D01*
X6117118Y7423937D01*
X6201951Y7326033D01*
X6310931Y7255996D01*
X6435225Y7219501D01*
X6435227Y7219500D01*
X6435228Y7219500D01*
X6564773Y7219500D01*
X6564773Y7219501D01*
X6689069Y7255996D01*
X6798049Y7326033D01*
X6882882Y7423937D01*
X6936697Y7541774D01*
X6955133Y7670000D01*
X6936697Y7798226D01*
X6882882Y7916063D01*
X6798049Y8013967D01*
X6689069Y8084004D01*
X6689065Y8084006D01*
X6689064Y8084006D01*
X6564774Y8120500D01*
X6564772Y8120500D01*
X6435228Y8120500D01*
X6435226Y8120500D01*
X6310935Y8084006D01*
X6310932Y8084005D01*
X6310931Y8084004D01*
X6259677Y8051066D01*
X6201950Y8013967D01*
X6117118Y7916063D01*
X6117117Y7916062D01*
X6063302Y7798226D01*
X6044867Y7670000D01*
X-7489500Y7670000D01*
X-7489500Y10000000D01*
X-6765750Y10000000D01*
X-6744860Y9854698D01*
X-6744859Y9854693D01*
X-6683879Y9721168D01*
X-6683877Y9721164D01*
X-6663068Y9697149D01*
X-6603244Y9628109D01*
X-6587744Y9610222D01*
X-6464250Y9530857D01*
X-6464249Y9530857D01*
X-6464248Y9530856D01*
X-6323402Y9489501D01*
X-6323400Y9489500D01*
X-6323399Y9489500D01*
X-6176600Y9489500D01*
X-6176600Y9489501D01*
X-6049179Y9526914D01*
X-6035753Y9530856D01*
X-6035753Y9530857D01*
X-6035750Y9530857D01*
X-5912256Y9610222D01*
X-5816123Y9721164D01*
X-5755141Y9854696D01*
X-5734250Y10000000D01*
X-5755141Y10145304D01*
X-5755142Y10145305D01*
X-5755142Y10145308D01*
X-5804940Y10254349D01*
X-5816123Y10278836D01*
X-5912256Y10389778D01*
X-6035750Y10469143D01*
X-6035751Y10469144D01*
X-6035752Y10469144D01*
X-6035753Y10469145D01*
X-6176599Y10510500D01*
X-6176601Y10510500D01*
X-6323399Y10510500D01*
X-6323402Y10510500D01*
X-6464248Y10469145D01*
X-6464249Y10469144D01*
X-6587742Y10389780D01*
X-6587746Y10389777D01*
X-6683876Y10278838D01*
X-6683879Y10278833D01*
X-6744859Y10145308D01*
X-6744860Y10145303D01*
X-6765750Y10000000D01*
X-7489500Y10000000D01*
X-7489500Y10243909D01*
X-7488903Y10256062D01*
X-7482123Y10324904D01*
X-7476488Y10382121D01*
X-7471746Y10405956D01*
X-7471745Y10405957D01*
X-7436753Y10521311D01*
X-7427451Y10543767D01*
X-7370629Y10650074D01*
X-7357125Y10670284D01*
X-7348658Y10680601D01*
X-7280650Y10763469D01*
X-7263469Y10780650D01*
X-7170283Y10857127D01*
X-7150072Y10870630D01*
X-7150070Y10870631D01*
X-7043762Y10927454D01*
X-7021311Y10936753D01*
X-7012677Y10939373D01*
X-6905954Y10971747D01*
X-6882121Y10976488D01*
X-6764476Y10988075D01*
X-6756061Y10988903D01*
X-6743908Y10989500D01*
X-6695234Y10989500D01*
X-6695225Y10989501D01*
X-5027129Y10989501D01*
X-4960090Y10969816D01*
G37*
%TD.AperFunction*%
%TD*%
M02*
