%TF.GenerationSoftware,KiCad,Pcbnew,8.0.1-8.0.1-1~ubuntu22.04.1*%
%TF.CreationDate,2024-08-18T16:50:42+01:00*%
%TF.ProjectId,CONTROLLER_teensy4,434f4e54-524f-44c4-9c45-525f7465656e,rev?*%
%TF.SameCoordinates,Original*%
%TF.FileFunction,Copper,L4,Bot*%
%TF.FilePolarity,Positive*%
%FSLAX46Y46*%
G04 Gerber Fmt 4.6, Leading zero omitted, Abs format (unit mm)*
G04 Created by KiCad (PCBNEW 8.0.1-8.0.1-1~ubuntu22.04.1) date 2024-08-18 16:50:42*
%MOMM*%
%LPD*%
G01*
G04 APERTURE LIST*
G04 Aperture macros list*
%AMRoundRect*
0 Rectangle with rounded corners*
0 $1 Rounding radius*
0 $2 $3 $4 $5 $6 $7 $8 $9 X,Y pos of 4 corners*
0 Add a 4 corners polygon primitive as box body*
4,1,4,$2,$3,$4,$5,$6,$7,$8,$9,$2,$3,0*
0 Add four circle primitives for the rounded corners*
1,1,$1+$1,$2,$3*
1,1,$1+$1,$4,$5*
1,1,$1+$1,$6,$7*
1,1,$1+$1,$8,$9*
0 Add four rect primitives between the rounded corners*
20,1,$1+$1,$2,$3,$4,$5,0*
20,1,$1+$1,$4,$5,$6,$7,0*
20,1,$1+$1,$6,$7,$8,$9,0*
20,1,$1+$1,$8,$9,$2,$3,0*%
%AMFreePoly0*
4,1,19,0.500000,-0.750000,0.000000,-0.750000,0.000000,-0.744911,-0.071157,-0.744911,-0.207708,-0.704816,-0.327430,-0.627875,-0.420627,-0.520320,-0.479746,-0.390866,-0.500000,-0.250000,-0.500000,0.250000,-0.479746,0.390866,-0.420627,0.520320,-0.327430,0.627875,-0.207708,0.704816,-0.071157,0.744911,0.000000,0.744911,0.000000,0.750000,0.500000,0.750000,0.500000,-0.750000,0.500000,-0.750000,
$1*%
%AMFreePoly1*
4,1,19,0.000000,0.744911,0.071157,0.744911,0.207708,0.704816,0.327430,0.627875,0.420627,0.520320,0.479746,0.390866,0.500000,0.250000,0.500000,-0.250000,0.479746,-0.390866,0.420627,-0.520320,0.327430,-0.627875,0.207708,-0.704816,0.071157,-0.744911,0.000000,-0.744911,0.000000,-0.750000,-0.500000,-0.750000,-0.500000,0.750000,0.000000,0.750000,0.000000,0.744911,0.000000,0.744911,
$1*%
G04 Aperture macros list end*
%TA.AperFunction,EtchedComponent*%
%ADD10C,0.000000*%
%TD*%
%TA.AperFunction,ComponentPad*%
%ADD11C,1.600000*%
%TD*%
%TA.AperFunction,SMDPad,CuDef*%
%ADD12FreePoly0,0.000000*%
%TD*%
%TA.AperFunction,SMDPad,CuDef*%
%ADD13FreePoly1,0.000000*%
%TD*%
%TA.AperFunction,SMDPad,CuDef*%
%ADD14RoundRect,0.160000X-0.160000X0.197500X-0.160000X-0.197500X0.160000X-0.197500X0.160000X0.197500X0*%
%TD*%
%TA.AperFunction,SMDPad,CuDef*%
%ADD15R,1.200000X0.400000*%
%TD*%
%TA.AperFunction,SMDPad,CuDef*%
%ADD16R,2.400000X2.000000*%
%TD*%
%TA.AperFunction,ComponentPad*%
%ADD17RoundRect,0.800000X-0.050000X-0.450000X0.050000X-0.450000X0.050000X0.450000X-0.050000X0.450000X0*%
%TD*%
%TA.AperFunction,ComponentPad*%
%ADD18RoundRect,0.800000X-0.450000X0.050000X-0.450000X-0.050000X0.450000X-0.050000X0.450000X0.050000X0*%
%TD*%
%TA.AperFunction,ComponentPad*%
%ADD19RoundRect,0.800000X-0.700000X0.050000X-0.700000X-0.050000X0.700000X-0.050000X0.700000X0.050000X0*%
%TD*%
%TA.AperFunction,SMDPad,CuDef*%
%ADD20R,1.500000X1.000000*%
%TD*%
%TA.AperFunction,ViaPad*%
%ADD21C,0.400000*%
%TD*%
%TA.AperFunction,Conductor*%
%ADD22C,0.100000*%
%TD*%
G04 APERTURE END LIST*
D10*
%TA.AperFunction,EtchedComponent*%
%TO.C,JP1*%
G36*
X104750000Y-95800000D02*
G01*
X104250000Y-95800000D01*
X104250000Y-95200000D01*
X104750000Y-95200000D01*
X104750000Y-95800000D01*
G37*
%TD.AperFunction*%
%TA.AperFunction,EtchedComponent*%
%TO.C,JP3*%
G36*
X104850000Y-90600000D02*
G01*
X104350000Y-90600000D01*
X104350000Y-90000000D01*
X104850000Y-90000000D01*
X104850000Y-90600000D01*
G37*
%TD.AperFunction*%
%TA.AperFunction,EtchedComponent*%
%TO.C,JP2*%
G36*
X104750000Y-93200000D02*
G01*
X104250000Y-93200000D01*
X104250000Y-92600000D01*
X104750000Y-92600000D01*
X104750000Y-93200000D01*
G37*
%TD.AperFunction*%
%TA.AperFunction,EtchedComponent*%
%TO.C,JP4*%
G36*
X104300000Y-69900000D02*
G01*
X103700000Y-69900000D01*
X103700000Y-69400000D01*
X104300000Y-69400000D01*
X104300000Y-69900000D01*
G37*
%TD.AperFunction*%
%TD*%
D11*
%TO.P,U1,1,GND*%
%TO.N,GND*%
X92380000Y-67490000D03*
%TO.P,U1,2,0_RX1_CRX2_CS1*%
%TO.N,unconnected-(U1-0_RX1_CRX2_CS1-Pad2)*%
X92380000Y-70030000D03*
%TO.P,U1,3,1_TX1_CTX2_MISO1*%
%TO.N,unconnected-(U1-1_TX1_CTX2_MISO1-Pad3)*%
X92380000Y-72570000D03*
%TO.P,U1,4,2_OUT2*%
%TO.N,/addr_bus_0*%
X92380000Y-75110000D03*
%TO.P,U1,5,3_LRCLK2*%
%TO.N,/addr_bus_1*%
X92380000Y-77650000D03*
%TO.P,U1,6,4_BCLK2*%
%TO.N,/addr_bus_2*%
X92380000Y-80190000D03*
%TO.P,U1,7,5_IN2*%
%TO.N,/addr_bus_3*%
X92380000Y-82730000D03*
%TO.P,U1,8,6_OUT1D*%
%TO.N,/addr_bus_4*%
X92380000Y-85270000D03*
%TO.P,U1,9,7_RX2_OUT1A*%
%TO.N,/IO2*%
X92380000Y-87810000D03*
%TO.P,U1,10,8_TX2_IN1*%
%TO.N,/IO1_out*%
X92380000Y-90350000D03*
%TO.P,U1,11,9_OUT1C*%
%TO.N,unconnected-(U1-9_OUT1C-Pad11)*%
X92380000Y-92890000D03*
%TO.P,U1,12,10_CS_MQSR*%
%TO.N,unconnected-(U1-10_CS_MQSR-Pad12)*%
X92380000Y-95430000D03*
%TO.P,U1,13,11_MOSI_CTX1*%
%TO.N,/PICO*%
X92380000Y-97970000D03*
%TO.P,U1,14,12_MISO_MQSL*%
%TO.N,/POCI*%
X92380000Y-100510000D03*
%TO.P,U1,20,13_SCK_CRX1_LED*%
%TO.N,/SCLK*%
X107620000Y-100510000D03*
%TO.P,U1,21,14_A0_TX3_SPDIF_OUT*%
%TO.N,unconnected-(U1-14_A0_TX3_SPDIF_OUT-Pad21)*%
X107620000Y-97970000D03*
%TO.P,U1,22,15_A1_RX3_SPDIF_IN*%
%TO.N,Net-(JP1-B)*%
X107620000Y-95430000D03*
%TO.P,U1,23,16_A2_RX4_SCL1*%
%TO.N,Net-(JP2-B)*%
X107620000Y-92890000D03*
%TO.P,U1,24,17_A3_TX4_SDA1*%
%TO.N,Net-(JP3-B)*%
X107620000Y-90350000D03*
%TO.P,U1,25,18_A4_SDA0*%
%TO.N,/I2C_SDA*%
X107620000Y-87810000D03*
%TO.P,U1,26,19_A5_SCL0*%
%TO.N,/i2C_SCL*%
X107620000Y-85270000D03*
%TO.P,U1,27,20_A6_TX5_LRCLK1*%
%TO.N,unconnected-(U1-20_A6_TX5_LRCLK1-Pad27)*%
X107620000Y-82730000D03*
%TO.P,U1,28,21_A7_RX5_BCLK1*%
%TO.N,unconnected-(U1-21_A7_RX5_BCLK1-Pad28)*%
X107620000Y-80190000D03*
%TO.P,U1,29,22_A8_CTX1*%
%TO.N,unconnected-(U1-22_A8_CTX1-Pad29)*%
X107620000Y-77650000D03*
%TO.P,U1,30,23_A9_CRX1_MCLK1*%
%TO.N,unconnected-(U1-23_A9_CRX1_MCLK1-Pad30)*%
X107620000Y-75110000D03*
%TO.P,U1,31,3V3*%
%TO.N,3V3_TEENSY*%
X107620000Y-72570000D03*
%TO.P,U1,32,GND*%
%TO.N,GND*%
X107620000Y-70030000D03*
%TO.P,U1,33,VIN*%
%TO.N,unconnected-(U1-VIN-Pad33)*%
X107620000Y-67490000D03*
%TD*%
D12*
%TO.P,JP1,1,A*%
%TO.N,/AUX1*%
X103850001Y-95500000D03*
D13*
%TO.P,JP1,2,B*%
%TO.N,Net-(JP1-B)*%
X105149999Y-95500000D03*
%TD*%
D12*
%TO.P,JP3,1,A*%
%TO.N,/AUX3*%
X103950001Y-90300000D03*
D13*
%TO.P,JP3,2,B*%
%TO.N,Net-(JP3-B)*%
X105249999Y-90300000D03*
%TD*%
D14*
%TO.P,R1,1*%
%TO.N,3V3_TEENSY*%
X105000000Y-81602500D03*
%TO.P,R1,2*%
%TO.N,/i2C_SCL*%
X105000000Y-82797500D03*
%TD*%
%TO.P,R2,1*%
%TO.N,3V3_TEENSY*%
X103900000Y-81602500D03*
%TO.P,R2,2*%
%TO.N,/I2C_SDA*%
X103900000Y-82797500D03*
%TD*%
D12*
%TO.P,JP2,1,A*%
%TO.N,/AUX2*%
X103850001Y-92900000D03*
D13*
%TO.P,JP2,2,B*%
%TO.N,Net-(JP2-B)*%
X105149999Y-92900000D03*
%TD*%
D15*
%TO.P,FPC1,1,1*%
%TO.N,/AUX1*%
X101000000Y-70020000D03*
%TO.P,FPC1,2,2*%
%TO.N,+3.3V*%
X99000000Y-70520000D03*
%TO.P,FPC1,3,3*%
%TO.N,GND*%
X101000000Y-71020000D03*
%TO.P,FPC1,4,4*%
%TO.N,/AUX3*%
X99000000Y-71520000D03*
%TO.P,FPC1,5,5*%
%TO.N,/addr_bus_0*%
X101000000Y-72020000D03*
%TO.P,FPC1,6,6*%
%TO.N,/addr_bus_1*%
X99000000Y-72520000D03*
%TO.P,FPC1,7,7*%
%TO.N,/addr_bus_2*%
X101000000Y-73020000D03*
%TO.P,FPC1,8,8*%
%TO.N,/addr_bus_3*%
X99000000Y-73520000D03*
%TO.P,FPC1,9,9*%
%TO.N,/addr_bus_4*%
X101000000Y-74020000D03*
%TO.P,FPC1,10,10*%
%TO.N,/POCI*%
X99000000Y-74520000D03*
%TO.P,FPC1,11,11*%
%TO.N,/PICO*%
X101000000Y-75020000D03*
%TO.P,FPC1,12,12*%
%TO.N,/SCLK*%
X99000000Y-75520000D03*
%TO.P,FPC1,13,13*%
%TO.N,/IO1_out*%
X101000000Y-76020000D03*
%TO.P,FPC1,14,14*%
%TO.N,/IO2*%
X99000000Y-76520000D03*
%TO.P,FPC1,15,15*%
%TO.N,/I2C_SDA*%
X101000000Y-77020000D03*
%TO.P,FPC1,16,16*%
%TO.N,/i2C_SCL*%
X99000000Y-77520000D03*
%TO.P,FPC1,17,17*%
%TO.N,/AUX2*%
X101000000Y-78020000D03*
%TO.P,FPC1,18,18*%
%TO.N,/extRef*%
X99000000Y-78520000D03*
D16*
%TO.P,FPC1,19,19*%
%TO.N,GND*%
X100000000Y-80300000D03*
%TO.P,FPC1,20,20*%
X100000000Y-68220000D03*
%TD*%
D17*
%TO.P,J5,1,T*%
%TO.N,GND*%
X101750000Y-96745000D03*
D18*
%TO.P,J5,2,R*%
%TO.N,/extRef*%
X100000000Y-94445000D03*
D17*
%TO.P,J5,3,T*%
%TO.N,GND*%
X98250000Y-96745000D03*
D19*
%TO.P,J5,6,S*%
%TO.N,/extRef*%
X100000000Y-100945000D03*
%TD*%
D20*
%TO.P,JP4,1,A*%
%TO.N,3V3_TEENSY*%
X104000000Y-70300000D03*
%TO.P,JP4,2,C*%
%TO.N,+3.3V*%
X104000000Y-69000000D03*
%TO.P,JP4,3,B*%
%TO.N,3V3_BAT*%
X104000000Y-67700000D03*
%TD*%
D21*
%TO.N,GND*%
X100000000Y-80300000D03*
X100000000Y-68220000D03*
%TO.N,/AUX3*%
X103950001Y-90300000D03*
X103900000Y-72400000D03*
%TO.N,/SCLK*%
X105300000Y-77000000D03*
%TO.N,/AUX1*%
X102125000Y-69250000D03*
X103850001Y-95500000D03*
%TO.N,/PICO*%
X96700000Y-76100000D03*
%TO.N,/POCI*%
X97700000Y-74500000D03*
%TD*%
D22*
%TO.N,+3.3V*%
X103750000Y-69000000D02*
X104000000Y-69000000D01*
X102250000Y-70500000D02*
X103750000Y-69000000D01*
X99000000Y-70500000D02*
X102250000Y-70500000D01*
%TO.N,/addr_bus_4*%
X95700000Y-74800000D02*
X96500000Y-74000000D01*
X96500000Y-74000000D02*
X101000000Y-74000000D01*
X95700000Y-81950000D02*
X95700000Y-74800000D01*
X92380000Y-85270000D02*
X95700000Y-81950000D01*
%TO.N,GND*%
X97900000Y-71000000D02*
X97700000Y-70800000D01*
X97700000Y-70800000D02*
X97700000Y-69200000D01*
X101000000Y-71000000D02*
X97900000Y-71000000D01*
X97700000Y-69200000D02*
X98680000Y-68220000D01*
X98680000Y-68220000D02*
X100000000Y-68220000D01*
%TO.N,/AUX3*%
X103500000Y-72400000D02*
X102600000Y-71500000D01*
X103900000Y-72400000D02*
X103500000Y-72400000D01*
X102600000Y-71500000D02*
X99000000Y-71500000D01*
%TO.N,/addr_bus_2*%
X95900000Y-73000000D02*
X101000000Y-73000000D01*
X94500000Y-74400000D02*
X95900000Y-73000000D01*
X92380000Y-80190000D02*
X94500000Y-78070000D01*
X94500000Y-78070000D02*
X94500000Y-74400000D01*
%TO.N,/IO2*%
X99000000Y-76500000D02*
X97800000Y-76500000D01*
X96300000Y-78000000D02*
X96300000Y-83890000D01*
X96300000Y-83890000D02*
X92380000Y-87810000D01*
X97800000Y-76500000D02*
X96300000Y-78000000D01*
%TO.N,/SCLK*%
X105300000Y-77000000D02*
X103800000Y-75500000D01*
X103800000Y-75500000D02*
X99000000Y-75500000D01*
%TO.N,/AUX1*%
X101000000Y-70000000D02*
X101375000Y-70000000D01*
X101375000Y-70000000D02*
X102125000Y-69250000D01*
%TO.N,/AUX2*%
X101340000Y-78340000D02*
X101340000Y-90389999D01*
X101000000Y-78000000D02*
X101340000Y-78340000D01*
X101340000Y-90389999D02*
X103850001Y-92900000D01*
%TO.N,/PICO*%
X101000000Y-75000000D02*
X97800000Y-75000000D01*
X97800000Y-75000000D02*
X96700000Y-76100000D01*
%TO.N,/i2C_SCL*%
X107620000Y-85270000D02*
X109000000Y-86650000D01*
X109000000Y-86650000D02*
X109000000Y-88500000D01*
X102200000Y-84300000D02*
X102200000Y-77800000D01*
X107620000Y-85270000D02*
X105147500Y-82797500D01*
X108400000Y-89100000D02*
X107000000Y-89100000D01*
X101900000Y-77500000D02*
X99000000Y-77500000D01*
X109000000Y-88500000D02*
X108400000Y-89100000D01*
X105147500Y-82797500D02*
X105000000Y-82797500D01*
X107000000Y-89100000D02*
X102200000Y-84300000D01*
X102200000Y-77800000D02*
X101900000Y-77500000D01*
%TO.N,/I2C_SDA*%
X102900000Y-83090000D02*
X107620000Y-87810000D01*
X102900000Y-77800000D02*
X102900000Y-83090000D01*
X101000000Y-77000000D02*
X102100000Y-77000000D01*
X103010000Y-83200000D02*
X102900000Y-83090000D01*
X103900000Y-82800000D02*
X103500000Y-83200000D01*
X103500000Y-83200000D02*
X103010000Y-83200000D01*
X102100000Y-77000000D02*
X102900000Y-77800000D01*
X103900000Y-82797500D02*
X103900000Y-82800000D01*
%TO.N,/POCI*%
X97700000Y-74500000D02*
X99000000Y-74500000D01*
%TO.N,/extRef*%
X98660000Y-92860000D02*
X98660000Y-92505000D01*
X98445000Y-100945000D02*
X96200000Y-98700000D01*
X99000000Y-78500000D02*
X98660000Y-78840000D01*
X98660000Y-92505000D02*
X100000000Y-93845000D01*
X100000000Y-100945000D02*
X98445000Y-100945000D01*
X96200000Y-95320000D02*
X98660000Y-92860000D01*
X98660000Y-78840000D02*
X98660000Y-92505000D01*
X96200000Y-98700000D02*
X96200000Y-95320000D01*
%TO.N,/addr_bus_0*%
X92380000Y-75110000D02*
X95490000Y-72000000D01*
X95490000Y-72000000D02*
X101000000Y-72000000D01*
%TO.N,/addr_bus_1*%
X92380000Y-77650000D02*
X93900000Y-76130000D01*
X93900000Y-76130000D02*
X93900000Y-74300000D01*
X95700000Y-72500000D02*
X99000000Y-72500000D01*
X93900000Y-74300000D02*
X95700000Y-72500000D01*
%TO.N,/addr_bus_3*%
X95100000Y-80010000D02*
X92380000Y-82730000D01*
X95100000Y-74600000D02*
X95100000Y-80010000D01*
X96200000Y-73500000D02*
X95100000Y-74600000D01*
X99000000Y-73500000D02*
X96200000Y-73500000D01*
%TO.N,/IO1_out*%
X100600000Y-76000000D02*
X99600000Y-77000000D01*
X101000000Y-76000000D02*
X100600000Y-76000000D01*
X97000000Y-78420000D02*
X97000000Y-85730000D01*
X99600000Y-77000000D02*
X98420000Y-77000000D01*
X97000000Y-85730000D02*
X92380000Y-90350000D01*
X98420000Y-77000000D02*
X97000000Y-78420000D01*
%TO.N,3V3_TEENSY*%
X105000000Y-81602500D02*
X103900000Y-81602500D01*
X106000000Y-74190000D02*
X107620000Y-72570000D01*
X105000000Y-81602500D02*
X106000000Y-80602500D01*
X105350000Y-70300000D02*
X107620000Y-72570000D01*
X104000000Y-70300000D02*
X105350000Y-70300000D01*
X106000000Y-80602500D02*
X106000000Y-74190000D01*
%TO.N,Net-(JP1-B)*%
X105149999Y-95500000D02*
X107550000Y-95500000D01*
X107550000Y-95500000D02*
X107620000Y-95430000D01*
%TO.N,Net-(JP2-B)*%
X107610000Y-92900000D02*
X107620000Y-92890000D01*
X105149999Y-92900000D02*
X107610000Y-92900000D01*
%TO.N,Net-(JP3-B)*%
X105249999Y-90300000D02*
X107570000Y-90300000D01*
X107570000Y-90300000D02*
X107620000Y-90350000D01*
%TD*%
%TA.AperFunction,Conductor*%
%TO.N,GND*%
G36*
X92003918Y-66030185D02*
G01*
X92049673Y-66082989D01*
X92059617Y-66152147D01*
X92030592Y-66215703D01*
X91971814Y-66253477D01*
X91968972Y-66254275D01*
X91933682Y-66263730D01*
X91933673Y-66263734D01*
X91727516Y-66359866D01*
X91727512Y-66359868D01*
X91654526Y-66410973D01*
X91654526Y-66410974D01*
X92209765Y-66966212D01*
X92167708Y-66977482D01*
X92042292Y-67049890D01*
X91939890Y-67152292D01*
X91867482Y-67277708D01*
X91856212Y-67319764D01*
X91300974Y-66764526D01*
X91300973Y-66764526D01*
X91249868Y-66837512D01*
X91249866Y-66837516D01*
X91153734Y-67043673D01*
X91153730Y-67043682D01*
X91094860Y-67263389D01*
X91094858Y-67263400D01*
X91075034Y-67489997D01*
X91075034Y-67490002D01*
X91094858Y-67716599D01*
X91094860Y-67716610D01*
X91153730Y-67936317D01*
X91153735Y-67936331D01*
X91249863Y-68142478D01*
X91300974Y-68215472D01*
X91856212Y-67660234D01*
X91867482Y-67702292D01*
X91939890Y-67827708D01*
X92042292Y-67930110D01*
X92167708Y-68002518D01*
X92209765Y-68013787D01*
X91654526Y-68569025D01*
X91727513Y-68620132D01*
X91727521Y-68620136D01*
X91933668Y-68716264D01*
X91933682Y-68716269D01*
X92129256Y-68768673D01*
X92188917Y-68805038D01*
X92219446Y-68867885D01*
X92211151Y-68937261D01*
X92166666Y-68991138D01*
X92133158Y-69007109D01*
X91976043Y-69054769D01*
X91865898Y-69113643D01*
X91793550Y-69152315D01*
X91793548Y-69152316D01*
X91793547Y-69152317D01*
X91633589Y-69283589D01*
X91502317Y-69443547D01*
X91502315Y-69443550D01*
X91482832Y-69480000D01*
X91404769Y-69626043D01*
X91404768Y-69626045D01*
X91404768Y-69626046D01*
X91402193Y-69634535D01*
X91344699Y-69824067D01*
X91324417Y-70030000D01*
X91344699Y-70235932D01*
X91362716Y-70295326D01*
X91404768Y-70433954D01*
X91502315Y-70616450D01*
X91519031Y-70636819D01*
X91633589Y-70776410D01*
X91710639Y-70839642D01*
X91793550Y-70907685D01*
X91976046Y-71005232D01*
X92174066Y-71065300D01*
X92174065Y-71065300D01*
X92192529Y-71067118D01*
X92380000Y-71085583D01*
X92585934Y-71065300D01*
X92783954Y-71005232D01*
X92966450Y-70907685D01*
X93126410Y-70776410D01*
X93257685Y-70616450D01*
X93355232Y-70433954D01*
X93415300Y-70235934D01*
X93435583Y-70030000D01*
X93415300Y-69824066D01*
X93355232Y-69626046D01*
X93257685Y-69443550D01*
X93173694Y-69341206D01*
X93126410Y-69283589D01*
X92966452Y-69152317D01*
X92966453Y-69152317D01*
X92966450Y-69152315D01*
X92783954Y-69054768D01*
X92626840Y-69007108D01*
X92615994Y-69000000D01*
X94484611Y-69000000D01*
X94504121Y-69198095D01*
X94561903Y-69388574D01*
X94655731Y-69564114D01*
X94655735Y-69564121D01*
X94782011Y-69717988D01*
X94935878Y-69844264D01*
X94935885Y-69844268D01*
X95103377Y-69933794D01*
X95111427Y-69938097D01*
X95301907Y-69995879D01*
X95500000Y-70015389D01*
X95698093Y-69995879D01*
X95888573Y-69938097D01*
X96064120Y-69844265D01*
X96217988Y-69717988D01*
X96344265Y-69564120D01*
X96438097Y-69388573D01*
X96495879Y-69198093D01*
X96515389Y-69000000D01*
X96495879Y-68801907D01*
X96438097Y-68611427D01*
X96385428Y-68512890D01*
X96362503Y-68470000D01*
X98300000Y-68470000D01*
X98300000Y-69267844D01*
X98306401Y-69327372D01*
X98306403Y-69327379D01*
X98356645Y-69462086D01*
X98356649Y-69462093D01*
X98442809Y-69577187D01*
X98442812Y-69577190D01*
X98557906Y-69663350D01*
X98557913Y-69663354D01*
X98692620Y-69713596D01*
X98692627Y-69713598D01*
X98752155Y-69719999D01*
X98752172Y-69720000D01*
X99750000Y-69720000D01*
X99750000Y-68470000D01*
X98300000Y-68470000D01*
X96362503Y-68470000D01*
X96344268Y-68435885D01*
X96344264Y-68435878D01*
X96217988Y-68282011D01*
X96064121Y-68155735D01*
X96064114Y-68155731D01*
X95888574Y-68061903D01*
X95698095Y-68004121D01*
X95500000Y-67984611D01*
X95301904Y-68004121D01*
X95111425Y-68061903D01*
X94935885Y-68155731D01*
X94935878Y-68155735D01*
X94782011Y-68282011D01*
X94655735Y-68435878D01*
X94655731Y-68435885D01*
X94561903Y-68611425D01*
X94504121Y-68801904D01*
X94484611Y-69000000D01*
X92615994Y-69000000D01*
X92568402Y-68968811D01*
X92539946Y-68904999D01*
X92550506Y-68835932D01*
X92596730Y-68783538D01*
X92630743Y-68768673D01*
X92826317Y-68716269D01*
X92826331Y-68716264D01*
X93032478Y-68620136D01*
X93105471Y-68569024D01*
X92550234Y-68013787D01*
X92592292Y-68002518D01*
X92717708Y-67930110D01*
X92820110Y-67827708D01*
X92892518Y-67702292D01*
X92903787Y-67660234D01*
X93459024Y-68215471D01*
X93510136Y-68142478D01*
X93590564Y-67970000D01*
X98300000Y-67970000D01*
X99750000Y-67970000D01*
X99750000Y-66720000D01*
X100250000Y-66720000D01*
X100250000Y-67970000D01*
X101700000Y-67970000D01*
X101700000Y-67172172D01*
X101699999Y-67172155D01*
X101693598Y-67112627D01*
X101693596Y-67112620D01*
X101643354Y-66977913D01*
X101643350Y-66977906D01*
X101557190Y-66862812D01*
X101557187Y-66862809D01*
X101442093Y-66776649D01*
X101442086Y-66776645D01*
X101307379Y-66726403D01*
X101307372Y-66726401D01*
X101247844Y-66720000D01*
X100250000Y-66720000D01*
X99750000Y-66720000D01*
X98752155Y-66720000D01*
X98692627Y-66726401D01*
X98692620Y-66726403D01*
X98557913Y-66776645D01*
X98557906Y-66776649D01*
X98442812Y-66862809D01*
X98442809Y-66862812D01*
X98356649Y-66977906D01*
X98356645Y-66977913D01*
X98306403Y-67112620D01*
X98306401Y-67112627D01*
X98300000Y-67172155D01*
X98300000Y-67970000D01*
X93590564Y-67970000D01*
X93606264Y-67936331D01*
X93606269Y-67936317D01*
X93665139Y-67716610D01*
X93665141Y-67716599D01*
X93684966Y-67490002D01*
X93684966Y-67489997D01*
X93665141Y-67263400D01*
X93665139Y-67263389D01*
X93606269Y-67043682D01*
X93606264Y-67043668D01*
X93510136Y-66837521D01*
X93510132Y-66837513D01*
X93459025Y-66764526D01*
X92903787Y-67319764D01*
X92892518Y-67277708D01*
X92820110Y-67152292D01*
X92717708Y-67049890D01*
X92592292Y-66977482D01*
X92550234Y-66966212D01*
X93105472Y-66410974D01*
X93032478Y-66359863D01*
X92826331Y-66263735D01*
X92826317Y-66263730D01*
X92791028Y-66254275D01*
X92731367Y-66217910D01*
X92700838Y-66155063D01*
X92709133Y-66085688D01*
X92753618Y-66031810D01*
X92820170Y-66010535D01*
X92823121Y-66010500D01*
X108494588Y-66010500D01*
X108505394Y-66010971D01*
X108661019Y-66024587D01*
X108682297Y-66028338D01*
X108827951Y-66067366D01*
X108848261Y-66074759D01*
X108984915Y-66138482D01*
X109003633Y-66149289D01*
X109127154Y-66235779D01*
X109143712Y-66249673D01*
X109250326Y-66356287D01*
X109264220Y-66372845D01*
X109350710Y-66496366D01*
X109361517Y-66515084D01*
X109425240Y-66651738D01*
X109432633Y-66672049D01*
X109471659Y-66817696D01*
X109475412Y-66838982D01*
X109489028Y-66994604D01*
X109489500Y-67005412D01*
X109489500Y-86434064D01*
X109469815Y-86501103D01*
X109417011Y-86546858D01*
X109347853Y-86556802D01*
X109284297Y-86527777D01*
X109258114Y-86496065D01*
X109240463Y-86465495D01*
X109240460Y-86465489D01*
X108609298Y-85834327D01*
X108575813Y-85773004D01*
X108580797Y-85703312D01*
X108587618Y-85688197D01*
X108595232Y-85673954D01*
X108655300Y-85475934D01*
X108675583Y-85270000D01*
X108655300Y-85064066D01*
X108595232Y-84866046D01*
X108497685Y-84683550D01*
X108445702Y-84620209D01*
X108366410Y-84523589D01*
X108206452Y-84392317D01*
X108206453Y-84392317D01*
X108206450Y-84392315D01*
X108023954Y-84294768D01*
X107825934Y-84234700D01*
X107825932Y-84234699D01*
X107825934Y-84234699D01*
X107620000Y-84214417D01*
X107414067Y-84234699D01*
X107216039Y-84294770D01*
X107201800Y-84302381D01*
X107133397Y-84316620D01*
X107068154Y-84291616D01*
X107055672Y-84280701D01*
X105606818Y-82831847D01*
X105573333Y-82770524D01*
X105570499Y-82744166D01*
X105570499Y-82730000D01*
X106564417Y-82730000D01*
X106584699Y-82935932D01*
X106584700Y-82935934D01*
X106644768Y-83133954D01*
X106742315Y-83316450D01*
X106742317Y-83316452D01*
X106873589Y-83476410D01*
X106970209Y-83555702D01*
X107033550Y-83607685D01*
X107216046Y-83705232D01*
X107414066Y-83765300D01*
X107414065Y-83765300D01*
X107432529Y-83767118D01*
X107620000Y-83785583D01*
X107825934Y-83765300D01*
X108023954Y-83705232D01*
X108206450Y-83607685D01*
X108366410Y-83476410D01*
X108497685Y-83316450D01*
X108595232Y-83133954D01*
X108655300Y-82935934D01*
X108675583Y-82730000D01*
X108655300Y-82524066D01*
X108595232Y-82326046D01*
X108497685Y-82143550D01*
X108434033Y-82065989D01*
X108366410Y-81983589D01*
X108206452Y-81852317D01*
X108206453Y-81852317D01*
X108206450Y-81852315D01*
X108023954Y-81754768D01*
X107825934Y-81694700D01*
X107825932Y-81694699D01*
X107825934Y-81694699D01*
X107620000Y-81674417D01*
X107414067Y-81694699D01*
X107216043Y-81754769D01*
X107110459Y-81811206D01*
X107033550Y-81852315D01*
X107033548Y-81852316D01*
X107033547Y-81852317D01*
X106873589Y-81983589D01*
X106767945Y-82112319D01*
X106742315Y-82143550D01*
X106730491Y-82165671D01*
X106644769Y-82326043D01*
X106584699Y-82524067D01*
X106564417Y-82730000D01*
X105570499Y-82730000D01*
X105570499Y-82567688D01*
X105555276Y-82471571D01*
X105555276Y-82471570D01*
X105555275Y-82471568D01*
X105555275Y-82471567D01*
X105496241Y-82355706D01*
X105496239Y-82355704D01*
X105496236Y-82355700D01*
X105428217Y-82287681D01*
X105394732Y-82226358D01*
X105399716Y-82156666D01*
X105428217Y-82112319D01*
X105496236Y-82044299D01*
X105496241Y-82044294D01*
X105555275Y-81928433D01*
X105570500Y-81832307D01*
X105570499Y-81508331D01*
X105590183Y-81441293D01*
X105606813Y-81420656D01*
X106240460Y-80787011D01*
X106280022Y-80718488D01*
X106300500Y-80642062D01*
X106300500Y-80562938D01*
X106300500Y-80190000D01*
X106564417Y-80190000D01*
X106584699Y-80395932D01*
X106609446Y-80477511D01*
X106644768Y-80593954D01*
X106742315Y-80776450D01*
X106750982Y-80787011D01*
X106873589Y-80936410D01*
X106962923Y-81009723D01*
X107033550Y-81067685D01*
X107216046Y-81165232D01*
X107414066Y-81225300D01*
X107414065Y-81225300D01*
X107432529Y-81227118D01*
X107620000Y-81245583D01*
X107825934Y-81225300D01*
X108023954Y-81165232D01*
X108206450Y-81067685D01*
X108366410Y-80936410D01*
X108497685Y-80776450D01*
X108595232Y-80593954D01*
X108655300Y-80395934D01*
X108675583Y-80190000D01*
X108655300Y-79984066D01*
X108595232Y-79786046D01*
X108497685Y-79603550D01*
X108445702Y-79540209D01*
X108366410Y-79443589D01*
X108206452Y-79312317D01*
X108206453Y-79312317D01*
X108206450Y-79312315D01*
X108023954Y-79214768D01*
X107825934Y-79154700D01*
X107825932Y-79154699D01*
X107825934Y-79154699D01*
X107620000Y-79134417D01*
X107414067Y-79154699D01*
X107216043Y-79214769D01*
X107105898Y-79273643D01*
X107033550Y-79312315D01*
X107033548Y-79312316D01*
X107033547Y-79312317D01*
X106873589Y-79443589D01*
X106742317Y-79603547D01*
X106742315Y-79603550D01*
X106703643Y-79675898D01*
X106644769Y-79786043D01*
X106584699Y-79984067D01*
X106564417Y-80190000D01*
X106300500Y-80190000D01*
X106300500Y-77650000D01*
X106564417Y-77650000D01*
X106584699Y-77855932D01*
X106590626Y-77875471D01*
X106644768Y-78053954D01*
X106742315Y-78236450D01*
X106749068Y-78244678D01*
X106873589Y-78396410D01*
X106960032Y-78467351D01*
X107033550Y-78527685D01*
X107216046Y-78625232D01*
X107414066Y-78685300D01*
X107414065Y-78685300D01*
X107432529Y-78687118D01*
X107620000Y-78705583D01*
X107825934Y-78685300D01*
X108023954Y-78625232D01*
X108206450Y-78527685D01*
X108366410Y-78396410D01*
X108497685Y-78236450D01*
X108595232Y-78053954D01*
X108655300Y-77855934D01*
X108675583Y-77650000D01*
X108655300Y-77444066D01*
X108595232Y-77246046D01*
X108497685Y-77063550D01*
X108392671Y-76935589D01*
X108366410Y-76903589D01*
X108206452Y-76772317D01*
X108206453Y-76772317D01*
X108206450Y-76772315D01*
X108023954Y-76674768D01*
X107825934Y-76614700D01*
X107825932Y-76614699D01*
X107825934Y-76614699D01*
X107620000Y-76594417D01*
X107414067Y-76614699D01*
X107216043Y-76674769D01*
X107105898Y-76733643D01*
X107033550Y-76772315D01*
X107033548Y-76772316D01*
X107033547Y-76772317D01*
X106873589Y-76903589D01*
X106742317Y-77063547D01*
X106742315Y-77063550D01*
X106707745Y-77128225D01*
X106644769Y-77246043D01*
X106644768Y-77246045D01*
X106644768Y-77246046D01*
X106644763Y-77246062D01*
X106584699Y-77444067D01*
X106564417Y-77650000D01*
X106300500Y-77650000D01*
X106300500Y-75110000D01*
X106564417Y-75110000D01*
X106584699Y-75315932D01*
X106591035Y-75336819D01*
X106644768Y-75513954D01*
X106742315Y-75696450D01*
X106742317Y-75696452D01*
X106873589Y-75856410D01*
X106927436Y-75900600D01*
X107033550Y-75987685D01*
X107216046Y-76085232D01*
X107414066Y-76145300D01*
X107414065Y-76145300D01*
X107432529Y-76147118D01*
X107620000Y-76165583D01*
X107825934Y-76145300D01*
X108023954Y-76085232D01*
X108206450Y-75987685D01*
X108366410Y-75856410D01*
X108497685Y-75696450D01*
X108595232Y-75513954D01*
X108655300Y-75315934D01*
X108675583Y-75110000D01*
X108655300Y-74904066D01*
X108595232Y-74706046D01*
X108497685Y-74523550D01*
X108396784Y-74400601D01*
X108366410Y-74363589D01*
X108221512Y-74244676D01*
X108206450Y-74232315D01*
X108023954Y-74134768D01*
X107825934Y-74074700D01*
X107825932Y-74074699D01*
X107825934Y-74074699D01*
X107620000Y-74054417D01*
X107414067Y-74074699D01*
X107216043Y-74134769D01*
X107105898Y-74193643D01*
X107033550Y-74232315D01*
X107033548Y-74232316D01*
X107033547Y-74232317D01*
X106873589Y-74363589D01*
X106742317Y-74523547D01*
X106644769Y-74706043D01*
X106584699Y-74904067D01*
X106564417Y-75110000D01*
X106300500Y-75110000D01*
X106300500Y-74365832D01*
X106320185Y-74298793D01*
X106336815Y-74278155D01*
X107055672Y-73559297D01*
X107116995Y-73525813D01*
X107186687Y-73530797D01*
X107201805Y-73537620D01*
X107216046Y-73545232D01*
X107414066Y-73605300D01*
X107414065Y-73605300D01*
X107432529Y-73607118D01*
X107620000Y-73625583D01*
X107825934Y-73605300D01*
X108023954Y-73545232D01*
X108206450Y-73447685D01*
X108366410Y-73316410D01*
X108497685Y-73156450D01*
X108595232Y-72973954D01*
X108655300Y-72775934D01*
X108675583Y-72570000D01*
X108655300Y-72364066D01*
X108595232Y-72166046D01*
X108497685Y-71983550D01*
X108445702Y-71920209D01*
X108366410Y-71823589D01*
X108206452Y-71692317D01*
X108206453Y-71692317D01*
X108206450Y-71692315D01*
X108023954Y-71594768D01*
X107866840Y-71547108D01*
X107808402Y-71508811D01*
X107779946Y-71444999D01*
X107790506Y-71375932D01*
X107836730Y-71323538D01*
X107870743Y-71308673D01*
X108066317Y-71256269D01*
X108066331Y-71256264D01*
X108272478Y-71160136D01*
X108345471Y-71109024D01*
X107790234Y-70553787D01*
X107832292Y-70542518D01*
X107957708Y-70470110D01*
X108060110Y-70367708D01*
X108132518Y-70242292D01*
X108143787Y-70200234D01*
X108699024Y-70755471D01*
X108750136Y-70682478D01*
X108846264Y-70476331D01*
X108846269Y-70476317D01*
X108905139Y-70256610D01*
X108905141Y-70256599D01*
X108924966Y-70030002D01*
X108924966Y-70029997D01*
X108905141Y-69803400D01*
X108905139Y-69803389D01*
X108846269Y-69583682D01*
X108846264Y-69583668D01*
X108750136Y-69377521D01*
X108750132Y-69377513D01*
X108699025Y-69304526D01*
X108143787Y-69859764D01*
X108132518Y-69817708D01*
X108060110Y-69692292D01*
X107957708Y-69589890D01*
X107832292Y-69517482D01*
X107790234Y-69506212D01*
X108345472Y-68950974D01*
X108272478Y-68899863D01*
X108066331Y-68803735D01*
X108066319Y-68803731D01*
X107870742Y-68751326D01*
X107811082Y-68714961D01*
X107780553Y-68652114D01*
X107788848Y-68582738D01*
X107833333Y-68528860D01*
X107866837Y-68512892D01*
X108023954Y-68465232D01*
X108206450Y-68367685D01*
X108366410Y-68236410D01*
X108497685Y-68076450D01*
X108595232Y-67893954D01*
X108655300Y-67695934D01*
X108675583Y-67490000D01*
X108655300Y-67284066D01*
X108595232Y-67086046D01*
X108497685Y-66903550D01*
X108393541Y-66776649D01*
X108366410Y-66743589D01*
X108206452Y-66612317D01*
X108206453Y-66612317D01*
X108206450Y-66612315D01*
X108023954Y-66514768D01*
X107825934Y-66454700D01*
X107825932Y-66454699D01*
X107825934Y-66454699D01*
X107620000Y-66434417D01*
X107414067Y-66454699D01*
X107216043Y-66514769D01*
X107110259Y-66571313D01*
X107033550Y-66612315D01*
X107033548Y-66612316D01*
X107033547Y-66612317D01*
X106873589Y-66743589D01*
X106742317Y-66903547D01*
X106644769Y-67086043D01*
X106584699Y-67284067D01*
X106564417Y-67490000D01*
X106584699Y-67695932D01*
X106590972Y-67716610D01*
X106644768Y-67893954D01*
X106742315Y-68076450D01*
X106742317Y-68076452D01*
X106873589Y-68236410D01*
X106954169Y-68302539D01*
X107033550Y-68367685D01*
X107216046Y-68465232D01*
X107373160Y-68512891D01*
X107431597Y-68551187D01*
X107460053Y-68614999D01*
X107449493Y-68684067D01*
X107403269Y-68736460D01*
X107369257Y-68751326D01*
X107173680Y-68803731D01*
X107173673Y-68803734D01*
X106967516Y-68899866D01*
X106967512Y-68899868D01*
X106894526Y-68950973D01*
X106894526Y-68950974D01*
X107449765Y-69506212D01*
X107407708Y-69517482D01*
X107282292Y-69589890D01*
X107179890Y-69692292D01*
X107107482Y-69817708D01*
X107096212Y-69859765D01*
X106540974Y-69304526D01*
X106540973Y-69304526D01*
X106489868Y-69377512D01*
X106489866Y-69377516D01*
X106393734Y-69583673D01*
X106393730Y-69583682D01*
X106334860Y-69803389D01*
X106334858Y-69803400D01*
X106315034Y-70029997D01*
X106315034Y-70030002D01*
X106334858Y-70256599D01*
X106334860Y-70256610D01*
X106393730Y-70476317D01*
X106393734Y-70476326D01*
X106483106Y-70667986D01*
X106493598Y-70737064D01*
X106465078Y-70800848D01*
X106406602Y-70839087D01*
X106336734Y-70839642D01*
X106283043Y-70808072D01*
X105534512Y-70059541D01*
X105534504Y-70059535D01*
X105465995Y-70019982D01*
X105465990Y-70019979D01*
X105440513Y-70013152D01*
X105389562Y-69999500D01*
X105389560Y-69999500D01*
X105124500Y-69999500D01*
X105057461Y-69979815D01*
X105011706Y-69927011D01*
X105000500Y-69875500D01*
X105000500Y-69775323D01*
X105000499Y-69775321D01*
X104985968Y-69702267D01*
X104985966Y-69702264D01*
X104985966Y-69702260D01*
X104985963Y-69702256D01*
X104983977Y-69697461D01*
X104976504Y-69627992D01*
X104983977Y-69602539D01*
X104985962Y-69597745D01*
X104985966Y-69597740D01*
X104987528Y-69589890D01*
X105000499Y-69524678D01*
X105000500Y-69524676D01*
X105000500Y-68475323D01*
X105000499Y-68475321D01*
X104985968Y-68402267D01*
X104985966Y-68402264D01*
X104985966Y-68402260D01*
X104985963Y-68402256D01*
X104983977Y-68397461D01*
X104976504Y-68327992D01*
X104983977Y-68302539D01*
X104985962Y-68297745D01*
X104985966Y-68297740D01*
X105000500Y-68224674D01*
X105000500Y-67175326D01*
X105000500Y-67175323D01*
X105000499Y-67175321D01*
X104985967Y-67102264D01*
X104985966Y-67102260D01*
X104975130Y-67086043D01*
X104930601Y-67019399D01*
X104847740Y-66964034D01*
X104847739Y-66964033D01*
X104847735Y-66964032D01*
X104774677Y-66949500D01*
X104774674Y-66949500D01*
X103225326Y-66949500D01*
X103225323Y-66949500D01*
X103152264Y-66964032D01*
X103152260Y-66964033D01*
X103069399Y-67019399D01*
X103014033Y-67102260D01*
X103014032Y-67102264D01*
X102999500Y-67175321D01*
X102999500Y-67175326D01*
X102999500Y-68224674D01*
X102999500Y-68224676D01*
X102999499Y-68224676D01*
X103014033Y-68297740D01*
X103016025Y-68302548D01*
X103023494Y-68372017D01*
X103016025Y-68397452D01*
X103014033Y-68402259D01*
X102999500Y-68475323D01*
X102999500Y-69274167D01*
X102979815Y-69341206D01*
X102963181Y-69361848D01*
X102723978Y-69601050D01*
X102662655Y-69634535D01*
X102592963Y-69629551D01*
X102537030Y-69587679D01*
X102512613Y-69522215D01*
X102523502Y-69461858D01*
X102561697Y-69378226D01*
X102580133Y-69250000D01*
X102561697Y-69121774D01*
X102507882Y-69003937D01*
X102423049Y-68906033D01*
X102314069Y-68835996D01*
X102314065Y-68835994D01*
X102314064Y-68835994D01*
X102189774Y-68799500D01*
X102189772Y-68799500D01*
X102060228Y-68799500D01*
X102060226Y-68799500D01*
X101935936Y-68835993D01*
X101891038Y-68864847D01*
X101823998Y-68884530D01*
X101756959Y-68864844D01*
X101711205Y-68812040D01*
X101700000Y-68760530D01*
X101700000Y-68470000D01*
X100250000Y-68470000D01*
X100250000Y-69557435D01*
X100230315Y-69624474D01*
X100224790Y-69631329D01*
X100164034Y-69722260D01*
X100164032Y-69722264D01*
X100149500Y-69795321D01*
X100149500Y-70075500D01*
X100129815Y-70142539D01*
X100077011Y-70188294D01*
X100025500Y-70199500D01*
X99887038Y-70199500D01*
X99819999Y-70179815D01*
X99783937Y-70144392D01*
X99780601Y-70139399D01*
X99697740Y-70084034D01*
X99697738Y-70084033D01*
X99697735Y-70084032D01*
X99624677Y-70069500D01*
X99624674Y-70069500D01*
X98375326Y-70069500D01*
X98375323Y-70069500D01*
X98302264Y-70084032D01*
X98302260Y-70084033D01*
X98219399Y-70139399D01*
X98164033Y-70222260D01*
X98164032Y-70222264D01*
X98149500Y-70295321D01*
X98149500Y-70744678D01*
X98164032Y-70817735D01*
X98164033Y-70817739D01*
X98178297Y-70839087D01*
X98219399Y-70900601D01*
X98243790Y-70916898D01*
X98288594Y-70970511D01*
X98297301Y-71039836D01*
X98267146Y-71102863D01*
X98243791Y-71123100D01*
X98219399Y-71139399D01*
X98164033Y-71222260D01*
X98164032Y-71222264D01*
X98149500Y-71295321D01*
X98149500Y-71575500D01*
X98129815Y-71642539D01*
X98077011Y-71688294D01*
X98025500Y-71699500D01*
X95450438Y-71699500D01*
X95419867Y-71707691D01*
X95374008Y-71719979D01*
X95374007Y-71719980D01*
X95338538Y-71740459D01*
X95305492Y-71759537D01*
X95305487Y-71759541D01*
X92944326Y-74120701D01*
X92883003Y-74154186D01*
X92813311Y-74149202D01*
X92798193Y-74142379D01*
X92783956Y-74134769D01*
X92783955Y-74134768D01*
X92783954Y-74134768D01*
X92585934Y-74074700D01*
X92585932Y-74074699D01*
X92585934Y-74074699D01*
X92380000Y-74054417D01*
X92174067Y-74074699D01*
X91976043Y-74134769D01*
X91865898Y-74193643D01*
X91793550Y-74232315D01*
X91793548Y-74232316D01*
X91793547Y-74232317D01*
X91633589Y-74363589D01*
X91502317Y-74523547D01*
X91404769Y-74706043D01*
X91344699Y-74904067D01*
X91324417Y-75110000D01*
X91344699Y-75315932D01*
X91351035Y-75336819D01*
X91404768Y-75513954D01*
X91502315Y-75696450D01*
X91502317Y-75696452D01*
X91633589Y-75856410D01*
X91687436Y-75900600D01*
X91793550Y-75987685D01*
X91976046Y-76085232D01*
X92174066Y-76145300D01*
X92174065Y-76145300D01*
X92192529Y-76147118D01*
X92380000Y-76165583D01*
X92585934Y-76145300D01*
X92783954Y-76085232D01*
X92966450Y-75987685D01*
X93126410Y-75856410D01*
X93257685Y-75696450D01*
X93355232Y-75513954D01*
X93356839Y-75508655D01*
X93395135Y-75450217D01*
X93458947Y-75421759D01*
X93528014Y-75432318D01*
X93580408Y-75478541D01*
X93599500Y-75544649D01*
X93599500Y-75954166D01*
X93579815Y-76021205D01*
X93563181Y-76041847D01*
X92944326Y-76660701D01*
X92883003Y-76694186D01*
X92813311Y-76689202D01*
X92798193Y-76682379D01*
X92783956Y-76674769D01*
X92783955Y-76674768D01*
X92783954Y-76674768D01*
X92585934Y-76614700D01*
X92585932Y-76614699D01*
X92585934Y-76614699D01*
X92380000Y-76594417D01*
X92174067Y-76614699D01*
X91976043Y-76674769D01*
X91865898Y-76733643D01*
X91793550Y-76772315D01*
X91793548Y-76772316D01*
X91793547Y-76772317D01*
X91633589Y-76903589D01*
X91502317Y-77063547D01*
X91502315Y-77063550D01*
X91467745Y-77128225D01*
X91404769Y-77246043D01*
X91404768Y-77246045D01*
X91404768Y-77246046D01*
X91404763Y-77246062D01*
X91344699Y-77444067D01*
X91324417Y-77650000D01*
X91344699Y-77855932D01*
X91350626Y-77875471D01*
X91404768Y-78053954D01*
X91502315Y-78236450D01*
X91509068Y-78244678D01*
X91633589Y-78396410D01*
X91720032Y-78467351D01*
X91793550Y-78527685D01*
X91976046Y-78625232D01*
X92174066Y-78685300D01*
X92174065Y-78685300D01*
X92192529Y-78687118D01*
X92380000Y-78705583D01*
X92585934Y-78685300D01*
X92783954Y-78625232D01*
X92966450Y-78527685D01*
X93126410Y-78396410D01*
X93257685Y-78236450D01*
X93355232Y-78053954D01*
X93415300Y-77855934D01*
X93435583Y-77650000D01*
X93415300Y-77444066D01*
X93355232Y-77246046D01*
X93347620Y-77231806D01*
X93333379Y-77163404D01*
X93358379Y-77098160D01*
X93369298Y-77085672D01*
X93714512Y-76740458D01*
X93987820Y-76467150D01*
X94049142Y-76433666D01*
X94118834Y-76438650D01*
X94174767Y-76480522D01*
X94199184Y-76545986D01*
X94199500Y-76554832D01*
X94199500Y-77894166D01*
X94179815Y-77961205D01*
X94163181Y-77981847D01*
X92944326Y-79200701D01*
X92883003Y-79234186D01*
X92813311Y-79229202D01*
X92798193Y-79222379D01*
X92783956Y-79214769D01*
X92783955Y-79214768D01*
X92783954Y-79214768D01*
X92585934Y-79154700D01*
X92585932Y-79154699D01*
X92585934Y-79154699D01*
X92380000Y-79134417D01*
X92174067Y-79154699D01*
X91976043Y-79214769D01*
X91865898Y-79273643D01*
X91793550Y-79312315D01*
X91793548Y-79312316D01*
X91793547Y-79312317D01*
X91633589Y-79443589D01*
X91502317Y-79603547D01*
X91502315Y-79603550D01*
X91463643Y-79675898D01*
X91404769Y-79786043D01*
X91344699Y-79984067D01*
X91324417Y-80190000D01*
X91344699Y-80395932D01*
X91369446Y-80477511D01*
X91404768Y-80593954D01*
X91502315Y-80776450D01*
X91510982Y-80787011D01*
X91633589Y-80936410D01*
X91722923Y-81009723D01*
X91793550Y-81067685D01*
X91976046Y-81165232D01*
X92174066Y-81225300D01*
X92174065Y-81225300D01*
X92192529Y-81227118D01*
X92380000Y-81245583D01*
X92585934Y-81225300D01*
X92783954Y-81165232D01*
X92966450Y-81067685D01*
X93126410Y-80936410D01*
X93257685Y-80776450D01*
X93355232Y-80593954D01*
X93415300Y-80395934D01*
X93435583Y-80190000D01*
X93415300Y-79984066D01*
X93355232Y-79786046D01*
X93347620Y-79771806D01*
X93333379Y-79703404D01*
X93358379Y-79638160D01*
X93369298Y-79625672D01*
X94012406Y-78982564D01*
X94587820Y-78407149D01*
X94649142Y-78373666D01*
X94718834Y-78378650D01*
X94774767Y-78420522D01*
X94799184Y-78485986D01*
X94799500Y-78494832D01*
X94799500Y-79834166D01*
X94779815Y-79901205D01*
X94763181Y-79921847D01*
X92944326Y-81740701D01*
X92883003Y-81774186D01*
X92813311Y-81769202D01*
X92798193Y-81762379D01*
X92783956Y-81754769D01*
X92783955Y-81754768D01*
X92783954Y-81754768D01*
X92585934Y-81694700D01*
X92585932Y-81694699D01*
X92585934Y-81694699D01*
X92380000Y-81674417D01*
X92174067Y-81694699D01*
X91976043Y-81754769D01*
X91870459Y-81811206D01*
X91793550Y-81852315D01*
X91793548Y-81852316D01*
X91793547Y-81852317D01*
X91633589Y-81983589D01*
X91527945Y-82112319D01*
X91502315Y-82143550D01*
X91490491Y-82165671D01*
X91404769Y-82326043D01*
X91344699Y-82524067D01*
X91324417Y-82730000D01*
X91344699Y-82935932D01*
X91344700Y-82935934D01*
X91404768Y-83133954D01*
X91502315Y-83316450D01*
X91502317Y-83316452D01*
X91633589Y-83476410D01*
X91730209Y-83555702D01*
X91793550Y-83607685D01*
X91976046Y-83705232D01*
X92174066Y-83765300D01*
X92174065Y-83765300D01*
X92192529Y-83767118D01*
X92380000Y-83785583D01*
X92585934Y-83765300D01*
X92783954Y-83705232D01*
X92966450Y-83607685D01*
X93126410Y-83476410D01*
X93257685Y-83316450D01*
X93355232Y-83133954D01*
X93415300Y-82935934D01*
X93435583Y-82730000D01*
X93415300Y-82524066D01*
X93355232Y-82326046D01*
X93352264Y-82320493D01*
X93347620Y-82311804D01*
X93333379Y-82243401D01*
X93358380Y-82178157D01*
X93369290Y-82165679D01*
X95187821Y-80347149D01*
X95249142Y-80313666D01*
X95318834Y-80318650D01*
X95374767Y-80360522D01*
X95399184Y-80425986D01*
X95399500Y-80434832D01*
X95399500Y-81774166D01*
X95379815Y-81841205D01*
X95363181Y-81861847D01*
X92944326Y-84280701D01*
X92883003Y-84314186D01*
X92813311Y-84309202D01*
X92798193Y-84302379D01*
X92783956Y-84294769D01*
X92783955Y-84294768D01*
X92783954Y-84294768D01*
X92585934Y-84234700D01*
X92585932Y-84234699D01*
X92585934Y-84234699D01*
X92380000Y-84214417D01*
X92174067Y-84234699D01*
X91976043Y-84294769D01*
X91865898Y-84353643D01*
X91793550Y-84392315D01*
X91793548Y-84392316D01*
X91793547Y-84392317D01*
X91633589Y-84523589D01*
X91502317Y-84683547D01*
X91502315Y-84683550D01*
X91483817Y-84718157D01*
X91404769Y-84866043D01*
X91344699Y-85064067D01*
X91324417Y-85270000D01*
X91344699Y-85475932D01*
X91344700Y-85475934D01*
X91404768Y-85673954D01*
X91502315Y-85856450D01*
X91502317Y-85856452D01*
X91633589Y-86016410D01*
X91730209Y-86095702D01*
X91793550Y-86147685D01*
X91976046Y-86245232D01*
X92174066Y-86305300D01*
X92174065Y-86305300D01*
X92192529Y-86307118D01*
X92380000Y-86325583D01*
X92585934Y-86305300D01*
X92783954Y-86245232D01*
X92966450Y-86147685D01*
X93126410Y-86016410D01*
X93257685Y-85856450D01*
X93355232Y-85673954D01*
X93415300Y-85475934D01*
X93435583Y-85270000D01*
X93415300Y-85064066D01*
X93355232Y-84866046D01*
X93352264Y-84860493D01*
X93347620Y-84851804D01*
X93333379Y-84783401D01*
X93358380Y-84718157D01*
X93369290Y-84705679D01*
X95787821Y-82287149D01*
X95849142Y-82253666D01*
X95918834Y-82258650D01*
X95974767Y-82300522D01*
X95999184Y-82365986D01*
X95999500Y-82374832D01*
X95999500Y-83714166D01*
X95979815Y-83781205D01*
X95963181Y-83801847D01*
X92944326Y-86820701D01*
X92883003Y-86854186D01*
X92813311Y-86849202D01*
X92798193Y-86842379D01*
X92783956Y-86834769D01*
X92783955Y-86834768D01*
X92783954Y-86834768D01*
X92585934Y-86774700D01*
X92585932Y-86774699D01*
X92585934Y-86774699D01*
X92380000Y-86754417D01*
X92174067Y-86774699D01*
X91976043Y-86834769D01*
X91865898Y-86893643D01*
X91793550Y-86932315D01*
X91793548Y-86932316D01*
X91793547Y-86932317D01*
X91633589Y-87063589D01*
X91502317Y-87223547D01*
X91502315Y-87223550D01*
X91483817Y-87258157D01*
X91404769Y-87406043D01*
X91344699Y-87604067D01*
X91324417Y-87810000D01*
X91344699Y-88015932D01*
X91356505Y-88054850D01*
X91404768Y-88213954D01*
X91502315Y-88396450D01*
X91502317Y-88396452D01*
X91633589Y-88556410D01*
X91709203Y-88618464D01*
X91793550Y-88687685D01*
X91976046Y-88785232D01*
X92174066Y-88845300D01*
X92174065Y-88845300D01*
X92192529Y-88847118D01*
X92380000Y-88865583D01*
X92585934Y-88845300D01*
X92783954Y-88785232D01*
X92966450Y-88687685D01*
X93126410Y-88556410D01*
X93257685Y-88396450D01*
X93355232Y-88213954D01*
X93415300Y-88015934D01*
X93435583Y-87810000D01*
X93415300Y-87604066D01*
X93355232Y-87406046D01*
X93352264Y-87400493D01*
X93347620Y-87391804D01*
X93333379Y-87323401D01*
X93358380Y-87258157D01*
X93369290Y-87245679D01*
X96487819Y-84127152D01*
X96549142Y-84093667D01*
X96618834Y-84098651D01*
X96674767Y-84140523D01*
X96699184Y-84205987D01*
X96699500Y-84214833D01*
X96699500Y-85554166D01*
X96679815Y-85621205D01*
X96663181Y-85641847D01*
X92944326Y-89360701D01*
X92883003Y-89394186D01*
X92813311Y-89389202D01*
X92798193Y-89382379D01*
X92783956Y-89374769D01*
X92783955Y-89374768D01*
X92783954Y-89374768D01*
X92585934Y-89314700D01*
X92585932Y-89314699D01*
X92585934Y-89314699D01*
X92380000Y-89294417D01*
X92174067Y-89314699D01*
X91976043Y-89374769D01*
X91865898Y-89433643D01*
X91793550Y-89472315D01*
X91793548Y-89472316D01*
X91793547Y-89472317D01*
X91633589Y-89603589D01*
X91502317Y-89763547D01*
X91404769Y-89946043D01*
X91344699Y-90144067D01*
X91324417Y-90350000D01*
X91344699Y-90555932D01*
X91353930Y-90586361D01*
X91404768Y-90753954D01*
X91502315Y-90936450D01*
X91502317Y-90936452D01*
X91633589Y-91096410D01*
X91694871Y-91146702D01*
X91793550Y-91227685D01*
X91976046Y-91325232D01*
X92174066Y-91385300D01*
X92174065Y-91385300D01*
X92192529Y-91387118D01*
X92380000Y-91405583D01*
X92585934Y-91385300D01*
X92783954Y-91325232D01*
X92966450Y-91227685D01*
X93126410Y-91096410D01*
X93257685Y-90936450D01*
X93355232Y-90753954D01*
X93415300Y-90555934D01*
X93435583Y-90350000D01*
X93415300Y-90144066D01*
X93355232Y-89946046D01*
X93348769Y-89933954D01*
X93347620Y-89931804D01*
X93333379Y-89863401D01*
X93358380Y-89798157D01*
X93369290Y-89785679D01*
X97240460Y-85914511D01*
X97280022Y-85845988D01*
X97300500Y-85769562D01*
X97300500Y-85690438D01*
X97300500Y-78595833D01*
X97320185Y-78528794D01*
X97336819Y-78508152D01*
X97665431Y-78179540D01*
X98002400Y-77842570D01*
X98063721Y-77809087D01*
X98133412Y-77814071D01*
X98189346Y-77855942D01*
X98193172Y-77861349D01*
X98219399Y-77900601D01*
X98243790Y-77916898D01*
X98288594Y-77970511D01*
X98297301Y-78039836D01*
X98267146Y-78102863D01*
X98243791Y-78123100D01*
X98241741Y-78124471D01*
X98219399Y-78139399D01*
X98164033Y-78222260D01*
X98164032Y-78222264D01*
X98149500Y-78295321D01*
X98149500Y-78744678D01*
X98164032Y-78817735D01*
X98164033Y-78817739D01*
X98164034Y-78817740D01*
X98219399Y-78900601D01*
X98294656Y-78950885D01*
X98339461Y-79004496D01*
X98348168Y-79073821D01*
X98341947Y-79097319D01*
X98306403Y-79192616D01*
X98306401Y-79192627D01*
X98300000Y-79252155D01*
X98300000Y-80050000D01*
X98323181Y-80073181D01*
X98356666Y-80134504D01*
X98359500Y-80160862D01*
X98359500Y-80439138D01*
X98339815Y-80506177D01*
X98323181Y-80526819D01*
X98300000Y-80550000D01*
X98300000Y-81347844D01*
X98306401Y-81407372D01*
X98306402Y-81407376D01*
X98351682Y-81528775D01*
X98359500Y-81572109D01*
X98359500Y-92684167D01*
X98339815Y-92751206D01*
X98323181Y-92771848D01*
X95959541Y-95135487D01*
X95959535Y-95135495D01*
X95919982Y-95204004D01*
X95919979Y-95204009D01*
X95917399Y-95213638D01*
X95899500Y-95280438D01*
X95899500Y-98739562D01*
X95910474Y-98780518D01*
X95919978Y-98815987D01*
X95938280Y-98847687D01*
X95938279Y-98847687D01*
X95959535Y-98884504D01*
X95959541Y-98884512D01*
X98237833Y-101162804D01*
X98268811Y-101214487D01*
X98324768Y-101398954D01*
X98422315Y-101581450D01*
X98456969Y-101623677D01*
X98553589Y-101741410D01*
X98579332Y-101762536D01*
X98713550Y-101872685D01*
X98896046Y-101970232D01*
X99094066Y-102030300D01*
X99094065Y-102030300D01*
X99132647Y-102034100D01*
X99248392Y-102045500D01*
X99248395Y-102045500D01*
X100751605Y-102045500D01*
X100751608Y-102045500D01*
X100905934Y-102030300D01*
X101103954Y-101970232D01*
X101286450Y-101872685D01*
X101446410Y-101741410D01*
X101577685Y-101581450D01*
X101675232Y-101398954D01*
X101735300Y-101200934D01*
X101750500Y-101046608D01*
X101750500Y-100843392D01*
X101735300Y-100689066D01*
X101675232Y-100491046D01*
X101577685Y-100308550D01*
X101488340Y-100199682D01*
X101446410Y-100148589D01*
X101286452Y-100017317D01*
X101286453Y-100017317D01*
X101286450Y-100017315D01*
X101103954Y-99919768D01*
X100905934Y-99859700D01*
X100905932Y-99859699D01*
X100905934Y-99859699D01*
X100786805Y-99847966D01*
X100751608Y-99844500D01*
X100751605Y-99844500D01*
X100716553Y-99844500D01*
X100649514Y-99824815D01*
X100603759Y-99772011D01*
X100593815Y-99702853D01*
X100622840Y-99639297D01*
X100624403Y-99637528D01*
X100699990Y-99553580D01*
X100699995Y-99553573D01*
X100708729Y-99538446D01*
X100730926Y-99500000D01*
X103484611Y-99500000D01*
X103504121Y-99698095D01*
X103561903Y-99888574D01*
X103655731Y-100064114D01*
X103655735Y-100064121D01*
X103782011Y-100217988D01*
X103935878Y-100344264D01*
X103935885Y-100344268D01*
X104099236Y-100431581D01*
X104111427Y-100438097D01*
X104301907Y-100495879D01*
X104500000Y-100515389D01*
X104554717Y-100510000D01*
X106564417Y-100510000D01*
X106584699Y-100715932D01*
X106584700Y-100715934D01*
X106644768Y-100913954D01*
X106742315Y-101096450D01*
X106742317Y-101096452D01*
X106873589Y-101256410D01*
X106970209Y-101335702D01*
X107033550Y-101387685D01*
X107216046Y-101485232D01*
X107414066Y-101545300D01*
X107414065Y-101545300D01*
X107432529Y-101547118D01*
X107620000Y-101565583D01*
X107825934Y-101545300D01*
X108023954Y-101485232D01*
X108206450Y-101387685D01*
X108366410Y-101256410D01*
X108497685Y-101096450D01*
X108595232Y-100913954D01*
X108655300Y-100715934D01*
X108675583Y-100510000D01*
X108655300Y-100304066D01*
X108595232Y-100106046D01*
X108497685Y-99923550D01*
X108415593Y-99823520D01*
X108366410Y-99763589D01*
X108248677Y-99666969D01*
X108206450Y-99632315D01*
X108023954Y-99534768D01*
X107825934Y-99474700D01*
X107825932Y-99474699D01*
X107825934Y-99474699D01*
X107620000Y-99454417D01*
X107414067Y-99474699D01*
X107216043Y-99534769D01*
X107105898Y-99593643D01*
X107033550Y-99632315D01*
X107033548Y-99632316D01*
X107033547Y-99632317D01*
X106873589Y-99763589D01*
X106742317Y-99923547D01*
X106644769Y-100106043D01*
X106584699Y-100304067D01*
X106564417Y-100510000D01*
X104554717Y-100510000D01*
X104698093Y-100495879D01*
X104888573Y-100438097D01*
X105064120Y-100344265D01*
X105217988Y-100217988D01*
X105344265Y-100064120D01*
X105438097Y-99888573D01*
X105495879Y-99698093D01*
X105515389Y-99500000D01*
X105495879Y-99301907D01*
X105438097Y-99111427D01*
X105402591Y-99045000D01*
X105344268Y-98935885D01*
X105344264Y-98935878D01*
X105217988Y-98782011D01*
X105064121Y-98655735D01*
X105064114Y-98655731D01*
X104888574Y-98561903D01*
X104698095Y-98504121D01*
X104500000Y-98484611D01*
X104301904Y-98504121D01*
X104111425Y-98561903D01*
X103935885Y-98655731D01*
X103935878Y-98655735D01*
X103782011Y-98782011D01*
X103655735Y-98935878D01*
X103655731Y-98935885D01*
X103561903Y-99111425D01*
X103504121Y-99301904D01*
X103484611Y-99500000D01*
X100730926Y-99500000D01*
X100790436Y-99396925D01*
X100846332Y-99224894D01*
X100865240Y-99045000D01*
X100846332Y-98865106D01*
X100818384Y-98779090D01*
X100790438Y-98693080D01*
X100790435Y-98693074D01*
X100781305Y-98677261D01*
X100711557Y-98556452D01*
X100699995Y-98536426D01*
X100699990Y-98536419D01*
X100578959Y-98402001D01*
X100578957Y-98401999D01*
X100432621Y-98295680D01*
X100432620Y-98295679D01*
X100308901Y-98240597D01*
X100267374Y-98222108D01*
X100267372Y-98222107D01*
X100138200Y-98194651D01*
X100090442Y-98184500D01*
X99909558Y-98184500D01*
X99861799Y-98194651D01*
X99732628Y-98222107D01*
X99567379Y-98295679D01*
X99567378Y-98295680D01*
X99421042Y-98401999D01*
X99421040Y-98402001D01*
X99300009Y-98536419D01*
X99300004Y-98536426D01*
X99209564Y-98693074D01*
X99209561Y-98693080D01*
X99153669Y-98865101D01*
X99153668Y-98865103D01*
X99134760Y-99045000D01*
X99153668Y-99224896D01*
X99153669Y-99224898D01*
X99209561Y-99396919D01*
X99209564Y-99396925D01*
X99300004Y-99553573D01*
X99300009Y-99553580D01*
X99375597Y-99637528D01*
X99405827Y-99700519D01*
X99397202Y-99769854D01*
X99352461Y-99823520D01*
X99285808Y-99844478D01*
X99283447Y-99844500D01*
X99248392Y-99844500D01*
X99210298Y-99848251D01*
X99094067Y-99859699D01*
X98896043Y-99919769D01*
X98785898Y-99978643D01*
X98713550Y-100017315D01*
X98713548Y-100017316D01*
X98713547Y-100017317D01*
X98553589Y-100148590D01*
X98424007Y-100306486D01*
X98366261Y-100345820D01*
X98296417Y-100347691D01*
X98240473Y-100315502D01*
X96536819Y-98611848D01*
X96503334Y-98550525D01*
X96500500Y-98524167D01*
X96500500Y-95495833D01*
X96520185Y-95428794D01*
X96536819Y-95408152D01*
X98749819Y-93195152D01*
X98811142Y-93161667D01*
X98880834Y-93166651D01*
X98925181Y-93195152D01*
X99030266Y-93300237D01*
X99063751Y-93361560D01*
X99058767Y-93431252D01*
X99016895Y-93487185D01*
X99001041Y-93497275D01*
X98963547Y-93517316D01*
X98803589Y-93648589D01*
X98672317Y-93808547D01*
X98672315Y-93808550D01*
X98647678Y-93854643D01*
X98574769Y-93991043D01*
X98514699Y-94189067D01*
X98503251Y-94305298D01*
X98499500Y-94343392D01*
X98499500Y-94546608D01*
X98504502Y-94597398D01*
X98514699Y-94700932D01*
X98541982Y-94790872D01*
X98561621Y-94855615D01*
X98561622Y-94855616D01*
X98562245Y-94925483D01*
X98526734Y-94983034D01*
X98500000Y-95007531D01*
X98500000Y-95979314D01*
X98495606Y-95974920D01*
X98404394Y-95922259D01*
X98302661Y-95895000D01*
X98197339Y-95895000D01*
X98095606Y-95922259D01*
X98004394Y-95974920D01*
X98000000Y-95979314D01*
X98000000Y-95007531D01*
X97973398Y-95009858D01*
X97973391Y-95009859D01*
X97753679Y-95068731D01*
X97753673Y-95068734D01*
X97547517Y-95164865D01*
X97361179Y-95295342D01*
X97200342Y-95456179D01*
X97069865Y-95642517D01*
X96973734Y-95848673D01*
X96973730Y-95848682D01*
X96914860Y-96068389D01*
X96914858Y-96068400D01*
X96900000Y-96238233D01*
X96900000Y-96495000D01*
X97850000Y-96495000D01*
X97850000Y-96995000D01*
X96900001Y-96995000D01*
X96900001Y-97251765D01*
X96914859Y-97421603D01*
X96914859Y-97421607D01*
X96973730Y-97641317D01*
X96973734Y-97641326D01*
X97069865Y-97847482D01*
X97200342Y-98033820D01*
X97361179Y-98194657D01*
X97547517Y-98325134D01*
X97753673Y-98421265D01*
X97753682Y-98421269D01*
X97973396Y-98480141D01*
X97999999Y-98482467D01*
X98000000Y-98482467D01*
X98000000Y-97510686D01*
X98004394Y-97515080D01*
X98095606Y-97567741D01*
X98197339Y-97595000D01*
X98302661Y-97595000D01*
X98404394Y-97567741D01*
X98495606Y-97515080D01*
X98500000Y-97510686D01*
X98500000Y-98482467D01*
X98526603Y-98480141D01*
X98746317Y-98421269D01*
X98746326Y-98421265D01*
X98952482Y-98325134D01*
X99138820Y-98194657D01*
X99299657Y-98033820D01*
X99430134Y-97847482D01*
X99526265Y-97641326D01*
X99526269Y-97641317D01*
X99585139Y-97421610D01*
X99585141Y-97421599D01*
X99599999Y-97251766D01*
X99600000Y-97251764D01*
X99600000Y-96995000D01*
X98650000Y-96995000D01*
X98650000Y-96495000D01*
X99599999Y-96495000D01*
X99599999Y-96238238D01*
X99599998Y-96238234D01*
X99585140Y-96068396D01*
X99585140Y-96068392D01*
X99526269Y-95848682D01*
X99526265Y-95848673D01*
X99467153Y-95721905D01*
X99456661Y-95652827D01*
X99485181Y-95589043D01*
X99543657Y-95550804D01*
X99579535Y-95545500D01*
X100420465Y-95545500D01*
X100487504Y-95565185D01*
X100533259Y-95617989D01*
X100543203Y-95687147D01*
X100532847Y-95721905D01*
X100473734Y-95848673D01*
X100473730Y-95848682D01*
X100414860Y-96068389D01*
X100414858Y-96068400D01*
X100400000Y-96238233D01*
X100400000Y-96495000D01*
X101350000Y-96495000D01*
X101350000Y-96995000D01*
X100400001Y-96995000D01*
X100400001Y-97251765D01*
X100414859Y-97421603D01*
X100414859Y-97421607D01*
X100473730Y-97641317D01*
X100473734Y-97641326D01*
X100569865Y-97847482D01*
X100700342Y-98033820D01*
X100861179Y-98194657D01*
X101047517Y-98325134D01*
X101253673Y-98421265D01*
X101253682Y-98421269D01*
X101473396Y-98480141D01*
X101499999Y-98482467D01*
X101500000Y-98482467D01*
X101500000Y-97510686D01*
X101504394Y-97515080D01*
X101595606Y-97567741D01*
X101697339Y-97595000D01*
X101802661Y-97595000D01*
X101904394Y-97567741D01*
X101995606Y-97515080D01*
X102000000Y-97510686D01*
X102000000Y-98482467D01*
X102026603Y-98480141D01*
X102246317Y-98421269D01*
X102246326Y-98421265D01*
X102452482Y-98325134D01*
X102638820Y-98194657D01*
X102799657Y-98033820D01*
X102844345Y-97970000D01*
X106564417Y-97970000D01*
X106584699Y-98175932D01*
X106606132Y-98246588D01*
X106644768Y-98373954D01*
X106742315Y-98556450D01*
X106742317Y-98556452D01*
X106873589Y-98716410D01*
X106953527Y-98782012D01*
X107033550Y-98847685D01*
X107216046Y-98945232D01*
X107414066Y-99005300D01*
X107414065Y-99005300D01*
X107432529Y-99007118D01*
X107620000Y-99025583D01*
X107825934Y-99005300D01*
X108023954Y-98945232D01*
X108206450Y-98847685D01*
X108366410Y-98716410D01*
X108497685Y-98556450D01*
X108595232Y-98373954D01*
X108655300Y-98175934D01*
X108675583Y-97970000D01*
X108655300Y-97764066D01*
X108595232Y-97566046D01*
X108497685Y-97383550D01*
X108445702Y-97320209D01*
X108366410Y-97223589D01*
X108206452Y-97092317D01*
X108206453Y-97092317D01*
X108206450Y-97092315D01*
X108023954Y-96994768D01*
X107825934Y-96934700D01*
X107825932Y-96934699D01*
X107825934Y-96934699D01*
X107620000Y-96914417D01*
X107414067Y-96934699D01*
X107216043Y-96994769D01*
X107105898Y-97053643D01*
X107033550Y-97092315D01*
X107033548Y-97092316D01*
X107033547Y-97092317D01*
X106873589Y-97223589D01*
X106742317Y-97383547D01*
X106742315Y-97383550D01*
X106711818Y-97440606D01*
X106644769Y-97566043D01*
X106584699Y-97764067D01*
X106564417Y-97970000D01*
X102844345Y-97970000D01*
X102930134Y-97847482D01*
X103026265Y-97641326D01*
X103026269Y-97641317D01*
X103085139Y-97421610D01*
X103085141Y-97421599D01*
X103099999Y-97251766D01*
X103100000Y-97251764D01*
X103100000Y-96995000D01*
X102150000Y-96995000D01*
X102150000Y-96495000D01*
X103099999Y-96495000D01*
X103099999Y-96370589D01*
X103119684Y-96303550D01*
X103172488Y-96257795D01*
X103241646Y-96247851D01*
X103305202Y-96276876D01*
X103317709Y-96289384D01*
X103326108Y-96299077D01*
X103326109Y-96299078D01*
X103381070Y-96346702D01*
X103502018Y-96424431D01*
X103502021Y-96424432D01*
X103502024Y-96424434D01*
X103568175Y-96454644D01*
X103706130Y-96495151D01*
X103778112Y-96505500D01*
X103778114Y-96505500D01*
X104350003Y-96505500D01*
X104350004Y-96505499D01*
X104402788Y-96495000D01*
X104447774Y-96486052D01*
X104447775Y-96486051D01*
X104447777Y-96486051D01*
X104447777Y-96486050D01*
X104452543Y-96484077D01*
X104522013Y-96476605D01*
X104547457Y-96484077D01*
X104552225Y-96486052D01*
X104649994Y-96505499D01*
X104649997Y-96505500D01*
X104649999Y-96505500D01*
X105221886Y-96505500D01*
X105221888Y-96505500D01*
X105293870Y-96495151D01*
X105431825Y-96454644D01*
X105497976Y-96424434D01*
X105618930Y-96346702D01*
X105673892Y-96299077D01*
X105726613Y-96238233D01*
X105768037Y-96190427D01*
X105768039Y-96190424D01*
X105768046Y-96190416D01*
X105807362Y-96129239D01*
X105807365Y-96129231D01*
X105807368Y-96129227D01*
X105843826Y-96049394D01*
X105867090Y-95998454D01*
X105887578Y-95928677D01*
X105890716Y-95906853D01*
X105919741Y-95843297D01*
X105978519Y-95805523D01*
X106013454Y-95800500D01*
X106552564Y-95800500D01*
X106619603Y-95820185D01*
X106661921Y-95866045D01*
X106742315Y-96016450D01*
X106742317Y-96016452D01*
X106873589Y-96176410D01*
X106948922Y-96238233D01*
X107033550Y-96307685D01*
X107216046Y-96405232D01*
X107414066Y-96465300D01*
X107414065Y-96465300D01*
X107432529Y-96467118D01*
X107620000Y-96485583D01*
X107825934Y-96465300D01*
X108023954Y-96405232D01*
X108206450Y-96307685D01*
X108366410Y-96176410D01*
X108497685Y-96016450D01*
X108595232Y-95833954D01*
X108655300Y-95635934D01*
X108675583Y-95430000D01*
X108655300Y-95224066D01*
X108595232Y-95026046D01*
X108497685Y-94843550D01*
X108445702Y-94780209D01*
X108366410Y-94683589D01*
X108234784Y-94575568D01*
X108206450Y-94552315D01*
X108023954Y-94454768D01*
X107825934Y-94394700D01*
X107825932Y-94394699D01*
X107825934Y-94394699D01*
X107620000Y-94374417D01*
X107414067Y-94394699D01*
X107216043Y-94454769D01*
X107122352Y-94504849D01*
X107033550Y-94552315D01*
X107033548Y-94552316D01*
X107033547Y-94552317D01*
X106873589Y-94683589D01*
X106742317Y-94843547D01*
X106742315Y-94843550D01*
X106712701Y-94898954D01*
X106644769Y-95026043D01*
X106644768Y-95026045D01*
X106644768Y-95026046D01*
X106624414Y-95093147D01*
X106618848Y-95111495D01*
X106580550Y-95169934D01*
X106516738Y-95198390D01*
X106500187Y-95199500D01*
X106013454Y-95199500D01*
X105946415Y-95179815D01*
X105900660Y-95127011D01*
X105890716Y-95093147D01*
X105887579Y-95071328D01*
X105887578Y-95071327D01*
X105887578Y-95071323D01*
X105867090Y-95001546D01*
X105832353Y-94925483D01*
X105807368Y-94870772D01*
X105807359Y-94870756D01*
X105796663Y-94854113D01*
X105768046Y-94809584D01*
X105768042Y-94809579D01*
X105768037Y-94809572D01*
X105673892Y-94700922D01*
X105618929Y-94653297D01*
X105497981Y-94575568D01*
X105497976Y-94575566D01*
X105431825Y-94545356D01*
X105324859Y-94513948D01*
X105293874Y-94504850D01*
X105293862Y-94504847D01*
X105221888Y-94494500D01*
X104649999Y-94494500D01*
X104649996Y-94494500D01*
X104552222Y-94513948D01*
X104547448Y-94515926D01*
X104477978Y-94523392D01*
X104452552Y-94515926D01*
X104447777Y-94513948D01*
X104350004Y-94494500D01*
X104350001Y-94494500D01*
X103778112Y-94494500D01*
X103778111Y-94494500D01*
X103706137Y-94504847D01*
X103706125Y-94504850D01*
X103568175Y-94545356D01*
X103502023Y-94575566D01*
X103502018Y-94575568D01*
X103381070Y-94653297D01*
X103326107Y-94700922D01*
X103231962Y-94809572D01*
X103231951Y-94809588D01*
X103192640Y-94870756D01*
X103192631Y-94870772D01*
X103132911Y-95001542D01*
X103112420Y-95071328D01*
X103091960Y-95213638D01*
X103091960Y-95286361D01*
X103093239Y-95295256D01*
X103094501Y-95312902D01*
X103094501Y-95483980D01*
X103074816Y-95551019D01*
X103022012Y-95596774D01*
X102952854Y-95606718D01*
X102889298Y-95577693D01*
X102868926Y-95555104D01*
X102799657Y-95456179D01*
X102638820Y-95295342D01*
X102452482Y-95164865D01*
X102246326Y-95068734D01*
X102246320Y-95068731D01*
X102026608Y-95009859D01*
X102026601Y-95009858D01*
X102000000Y-95007531D01*
X102000000Y-95979314D01*
X101995606Y-95974920D01*
X101904394Y-95922259D01*
X101802661Y-95895000D01*
X101697339Y-95895000D01*
X101595606Y-95922259D01*
X101504394Y-95974920D01*
X101500000Y-95979314D01*
X101500000Y-95007530D01*
X101473266Y-94983034D01*
X101437137Y-94923231D01*
X101438378Y-94855616D01*
X101485300Y-94700934D01*
X101500500Y-94546608D01*
X101500500Y-94343392D01*
X101485300Y-94189066D01*
X101425232Y-93991046D01*
X101327685Y-93808550D01*
X101275702Y-93745209D01*
X101196410Y-93648589D01*
X101050984Y-93529243D01*
X101036450Y-93517315D01*
X100853954Y-93419768D01*
X100655934Y-93359700D01*
X100655932Y-93359699D01*
X100655934Y-93359699D01*
X100536805Y-93347966D01*
X100501608Y-93344500D01*
X100501605Y-93344500D01*
X99975833Y-93344500D01*
X99908794Y-93324815D01*
X99888152Y-93308181D01*
X98996819Y-92416848D01*
X98963334Y-92355525D01*
X98960500Y-92329167D01*
X98960500Y-81924000D01*
X98980185Y-81856961D01*
X99032989Y-81811206D01*
X99084500Y-81800000D01*
X99750000Y-81800000D01*
X99750000Y-80550000D01*
X99084500Y-80550000D01*
X99017461Y-80530315D01*
X98971706Y-80477511D01*
X98960500Y-80426000D01*
X98960500Y-80174000D01*
X98980185Y-80106961D01*
X99032989Y-80061206D01*
X99084500Y-80050000D01*
X99750000Y-80050000D01*
X99750000Y-78982564D01*
X99769685Y-78915525D01*
X99775207Y-78908671D01*
X99780597Y-78900603D01*
X99780601Y-78900601D01*
X99835966Y-78817740D01*
X99850500Y-78744674D01*
X99850500Y-78295326D01*
X99850500Y-78295323D01*
X99850499Y-78295321D01*
X99835967Y-78222264D01*
X99835966Y-78222260D01*
X99811730Y-78185988D01*
X99780601Y-78139399D01*
X99756209Y-78123101D01*
X99711405Y-78069491D01*
X99702698Y-78000166D01*
X99732852Y-77937138D01*
X99756210Y-77916898D01*
X99780601Y-77900601D01*
X99810663Y-77855609D01*
X99864274Y-77810804D01*
X99913765Y-77800500D01*
X100025500Y-77800500D01*
X100092539Y-77820185D01*
X100138294Y-77872989D01*
X100149500Y-77924500D01*
X100149500Y-78244678D01*
X100164032Y-78317735D01*
X100164033Y-78317739D01*
X100164034Y-78317740D01*
X100219399Y-78400601D01*
X100289816Y-78447651D01*
X100302260Y-78455966D01*
X100302264Y-78455967D01*
X100375321Y-78470499D01*
X100375324Y-78470500D01*
X100375326Y-78470500D01*
X100915500Y-78470500D01*
X100982539Y-78490185D01*
X101028294Y-78542989D01*
X101039500Y-78594500D01*
X101039500Y-78676000D01*
X101019815Y-78743039D01*
X100967011Y-78788794D01*
X100915500Y-78800000D01*
X100250000Y-78800000D01*
X100250000Y-81800000D01*
X100915500Y-81800000D01*
X100982539Y-81819685D01*
X101028294Y-81872489D01*
X101039500Y-81924000D01*
X101039500Y-90429561D01*
X101053152Y-90480512D01*
X101059979Y-90505989D01*
X101059980Y-90505990D01*
X101083116Y-90546063D01*
X101099540Y-90574510D01*
X101099542Y-90574512D01*
X103055641Y-92530611D01*
X103089126Y-92591934D01*
X103091960Y-92618292D01*
X103091960Y-92686361D01*
X103093239Y-92695256D01*
X103094501Y-92712902D01*
X103094501Y-93087097D01*
X103093239Y-93104742D01*
X103091960Y-93113635D01*
X103091960Y-93186361D01*
X103112420Y-93328671D01*
X103132911Y-93398457D01*
X103192631Y-93529227D01*
X103192640Y-93529243D01*
X103231951Y-93590411D01*
X103231962Y-93590427D01*
X103326107Y-93699077D01*
X103381070Y-93746702D01*
X103502018Y-93824431D01*
X103502021Y-93824432D01*
X103502024Y-93824434D01*
X103568175Y-93854644D01*
X103706130Y-93895151D01*
X103778112Y-93905500D01*
X103778114Y-93905500D01*
X104350003Y-93905500D01*
X104350004Y-93905499D01*
X104402039Y-93895149D01*
X104447774Y-93886052D01*
X104447775Y-93886051D01*
X104447777Y-93886051D01*
X104447777Y-93886050D01*
X104452543Y-93884077D01*
X104522013Y-93876605D01*
X104547457Y-93884077D01*
X104552225Y-93886052D01*
X104649994Y-93905499D01*
X104649997Y-93905500D01*
X104649999Y-93905500D01*
X105221886Y-93905500D01*
X105221888Y-93905500D01*
X105293870Y-93895151D01*
X105431825Y-93854644D01*
X105497976Y-93824434D01*
X105618930Y-93746702D01*
X105673892Y-93699077D01*
X105728193Y-93636410D01*
X105768037Y-93590427D01*
X105768039Y-93590424D01*
X105768046Y-93590416D01*
X105807362Y-93529239D01*
X105807365Y-93529231D01*
X105807368Y-93529227D01*
X105834365Y-93470109D01*
X105867090Y-93398454D01*
X105887578Y-93328677D01*
X105890716Y-93306853D01*
X105919741Y-93243297D01*
X105978519Y-93205523D01*
X106013454Y-93200500D01*
X106524454Y-93200500D01*
X106591493Y-93220185D01*
X106637248Y-93272989D01*
X106643113Y-93288499D01*
X106644768Y-93293954D01*
X106742315Y-93476450D01*
X106742317Y-93476452D01*
X106873589Y-93636410D01*
X106888431Y-93648590D01*
X107033550Y-93767685D01*
X107216046Y-93865232D01*
X107414066Y-93925300D01*
X107414065Y-93925300D01*
X107432529Y-93927118D01*
X107620000Y-93945583D01*
X107825934Y-93925300D01*
X108023954Y-93865232D01*
X108206450Y-93767685D01*
X108366410Y-93636410D01*
X108497685Y-93476450D01*
X108595232Y-93293954D01*
X108655300Y-93095934D01*
X108675583Y-92890000D01*
X108655300Y-92684066D01*
X108595232Y-92486046D01*
X108497685Y-92303550D01*
X108420560Y-92209572D01*
X108366410Y-92143589D01*
X108206452Y-92012317D01*
X108206453Y-92012317D01*
X108206450Y-92012315D01*
X108036554Y-91921502D01*
X108023956Y-91914769D01*
X108023955Y-91914768D01*
X108023954Y-91914768D01*
X107825934Y-91854700D01*
X107825932Y-91854699D01*
X107825934Y-91854699D01*
X107620000Y-91834417D01*
X107414067Y-91854699D01*
X107216043Y-91914769D01*
X107123615Y-91964174D01*
X107033550Y-92012315D01*
X107033548Y-92012316D01*
X107033547Y-92012317D01*
X106873589Y-92143589D01*
X106742317Y-92303547D01*
X106644769Y-92486042D01*
X106644768Y-92486046D01*
X106637047Y-92511496D01*
X106598751Y-92569934D01*
X106534939Y-92598390D01*
X106518388Y-92599500D01*
X106013454Y-92599500D01*
X105946415Y-92579815D01*
X105900660Y-92527011D01*
X105890716Y-92493147D01*
X105887579Y-92471328D01*
X105887578Y-92471327D01*
X105887578Y-92471323D01*
X105867090Y-92401546D01*
X105846073Y-92355525D01*
X105807368Y-92270772D01*
X105807359Y-92270756D01*
X105796663Y-92254113D01*
X105768046Y-92209584D01*
X105768042Y-92209579D01*
X105768037Y-92209572D01*
X105673892Y-92100922D01*
X105618929Y-92053297D01*
X105497981Y-91975568D01*
X105497976Y-91975566D01*
X105497961Y-91975559D01*
X105431825Y-91945356D01*
X105324859Y-91913948D01*
X105293874Y-91904850D01*
X105293862Y-91904847D01*
X105221888Y-91894500D01*
X104649999Y-91894500D01*
X104649996Y-91894500D01*
X104552222Y-91913948D01*
X104547448Y-91915926D01*
X104477978Y-91923392D01*
X104452552Y-91915926D01*
X104447777Y-91913948D01*
X104350004Y-91894500D01*
X104350001Y-91894500D01*
X103778112Y-91894500D01*
X103778111Y-91894500D01*
X103706137Y-91904847D01*
X103706125Y-91904850D01*
X103568169Y-91945357D01*
X103502036Y-91975559D01*
X103502019Y-91975569D01*
X103493864Y-91980810D01*
X103426824Y-92000493D01*
X103359785Y-91980807D01*
X103339146Y-91964174D01*
X101676819Y-90301847D01*
X101643334Y-90240524D01*
X101640500Y-90214166D01*
X101640500Y-81572109D01*
X101648318Y-81528775D01*
X101659318Y-81499283D01*
X101701190Y-81443350D01*
X101766654Y-81418933D01*
X101834927Y-81433785D01*
X101884332Y-81483190D01*
X101899500Y-81542617D01*
X101899500Y-84339562D01*
X101901153Y-84345730D01*
X101919979Y-84415990D01*
X101919982Y-84415995D01*
X101959535Y-84484504D01*
X101959539Y-84484509D01*
X101959540Y-84484511D01*
X106759540Y-89284511D01*
X106815489Y-89340460D01*
X106815490Y-89340461D01*
X106815492Y-89340462D01*
X106882651Y-89379236D01*
X106930866Y-89429802D01*
X106944090Y-89498409D01*
X106918122Y-89563274D01*
X106899317Y-89582475D01*
X106873591Y-89603588D01*
X106742317Y-89763547D01*
X106651231Y-89933954D01*
X106602268Y-89983798D01*
X106541873Y-89999500D01*
X106113454Y-89999500D01*
X106046415Y-89979815D01*
X106000660Y-89927011D01*
X105990716Y-89893147D01*
X105987579Y-89871328D01*
X105987578Y-89871327D01*
X105987578Y-89871323D01*
X105967090Y-89801546D01*
X105949736Y-89763547D01*
X105907368Y-89670772D01*
X105907359Y-89670756D01*
X105896663Y-89654113D01*
X105868046Y-89609584D01*
X105868042Y-89609579D01*
X105868037Y-89609572D01*
X105773892Y-89500922D01*
X105718929Y-89453297D01*
X105597981Y-89375568D01*
X105597976Y-89375566D01*
X105565426Y-89360701D01*
X105531825Y-89345356D01*
X105424859Y-89313948D01*
X105393874Y-89304850D01*
X105393862Y-89304847D01*
X105321888Y-89294500D01*
X104749999Y-89294500D01*
X104749996Y-89294500D01*
X104652222Y-89313948D01*
X104647448Y-89315926D01*
X104577978Y-89323392D01*
X104552552Y-89315926D01*
X104547777Y-89313948D01*
X104450004Y-89294500D01*
X104450001Y-89294500D01*
X103878112Y-89294500D01*
X103878111Y-89294500D01*
X103806137Y-89304847D01*
X103806125Y-89304850D01*
X103668175Y-89345356D01*
X103602023Y-89375566D01*
X103602018Y-89375568D01*
X103481070Y-89453297D01*
X103426107Y-89500922D01*
X103331962Y-89609572D01*
X103331951Y-89609588D01*
X103292640Y-89670756D01*
X103292631Y-89670772D01*
X103232911Y-89801542D01*
X103212420Y-89871328D01*
X103191960Y-90013638D01*
X103191960Y-90086361D01*
X103193239Y-90095256D01*
X103194501Y-90112902D01*
X103194501Y-90487097D01*
X103193239Y-90504742D01*
X103191960Y-90513635D01*
X103191960Y-90586361D01*
X103212420Y-90728671D01*
X103232911Y-90798457D01*
X103292631Y-90929227D01*
X103292640Y-90929243D01*
X103331951Y-90990411D01*
X103331962Y-90990427D01*
X103426107Y-91099077D01*
X103481070Y-91146702D01*
X103602018Y-91224431D01*
X103602021Y-91224432D01*
X103602024Y-91224434D01*
X103668175Y-91254644D01*
X103806130Y-91295151D01*
X103878112Y-91305500D01*
X103878114Y-91305500D01*
X104450003Y-91305500D01*
X104450004Y-91305499D01*
X104502039Y-91295149D01*
X104547774Y-91286052D01*
X104547775Y-91286051D01*
X104547777Y-91286051D01*
X104547777Y-91286050D01*
X104552543Y-91284077D01*
X104622013Y-91276605D01*
X104647457Y-91284077D01*
X104652225Y-91286052D01*
X104749994Y-91305499D01*
X104749997Y-91305500D01*
X104749999Y-91305500D01*
X105321886Y-91305500D01*
X105321888Y-91305500D01*
X105393870Y-91295151D01*
X105531825Y-91254644D01*
X105597976Y-91224434D01*
X105718930Y-91146702D01*
X105773892Y-91099077D01*
X105776203Y-91096410D01*
X105868037Y-90990427D01*
X105868039Y-90990424D01*
X105868046Y-90990416D01*
X105907362Y-90929239D01*
X105907365Y-90929231D01*
X105907368Y-90929227D01*
X105934365Y-90870109D01*
X105967090Y-90798454D01*
X105987578Y-90728677D01*
X105990716Y-90706853D01*
X106019741Y-90643297D01*
X106078519Y-90605523D01*
X106113454Y-90600500D01*
X106506254Y-90600500D01*
X106573293Y-90620185D01*
X106619048Y-90672989D01*
X106624912Y-90688499D01*
X106644768Y-90753954D01*
X106644769Y-90753957D01*
X106683136Y-90825734D01*
X106742315Y-90936450D01*
X106742317Y-90936452D01*
X106873589Y-91096410D01*
X106934871Y-91146702D01*
X107033550Y-91227685D01*
X107216046Y-91325232D01*
X107414066Y-91385300D01*
X107414065Y-91385300D01*
X107432529Y-91387118D01*
X107620000Y-91405583D01*
X107825934Y-91385300D01*
X108023954Y-91325232D01*
X108206450Y-91227685D01*
X108366410Y-91096410D01*
X108497685Y-90936450D01*
X108595232Y-90753954D01*
X108655300Y-90555934D01*
X108675583Y-90350000D01*
X108655300Y-90144066D01*
X108595232Y-89946046D01*
X108497685Y-89763550D01*
X108418585Y-89667166D01*
X108364673Y-89601473D01*
X108337361Y-89537163D01*
X108349152Y-89468296D01*
X108396305Y-89416736D01*
X108432129Y-89404161D01*
X108431712Y-89402603D01*
X108439560Y-89400500D01*
X108439562Y-89400500D01*
X108515989Y-89380021D01*
X108584511Y-89340460D01*
X108640460Y-89284511D01*
X109240460Y-88684511D01*
X109258112Y-88653935D01*
X109308679Y-88605720D01*
X109377286Y-88592496D01*
X109442151Y-88618464D01*
X109482680Y-88675378D01*
X109489500Y-88715935D01*
X109489500Y-101494587D01*
X109489028Y-101505395D01*
X109475412Y-101661017D01*
X109471659Y-101682303D01*
X109432633Y-101827950D01*
X109425240Y-101848261D01*
X109361517Y-101984915D01*
X109350710Y-102003633D01*
X109264220Y-102127154D01*
X109250326Y-102143712D01*
X109143712Y-102250326D01*
X109127154Y-102264220D01*
X109003633Y-102350710D01*
X108984915Y-102361517D01*
X108848261Y-102425240D01*
X108827950Y-102432633D01*
X108682303Y-102471659D01*
X108661017Y-102475412D01*
X108527247Y-102487116D01*
X108505393Y-102489028D01*
X108494588Y-102489500D01*
X91505412Y-102489500D01*
X91494606Y-102489028D01*
X91469584Y-102486838D01*
X91338982Y-102475412D01*
X91317696Y-102471659D01*
X91172049Y-102432633D01*
X91151738Y-102425240D01*
X91015084Y-102361517D01*
X90996366Y-102350710D01*
X90872845Y-102264220D01*
X90856287Y-102250326D01*
X90749673Y-102143712D01*
X90735779Y-102127154D01*
X90649289Y-102003633D01*
X90638482Y-101984915D01*
X90574759Y-101848261D01*
X90567366Y-101827950D01*
X90528338Y-101682297D01*
X90524587Y-101661016D01*
X90510972Y-101505394D01*
X90510500Y-101494587D01*
X90510500Y-100510000D01*
X91324417Y-100510000D01*
X91344699Y-100715932D01*
X91344700Y-100715934D01*
X91404768Y-100913954D01*
X91502315Y-101096450D01*
X91502317Y-101096452D01*
X91633589Y-101256410D01*
X91730209Y-101335702D01*
X91793550Y-101387685D01*
X91976046Y-101485232D01*
X92174066Y-101545300D01*
X92174065Y-101545300D01*
X92192529Y-101547118D01*
X92380000Y-101565583D01*
X92585934Y-101545300D01*
X92783954Y-101485232D01*
X92966450Y-101387685D01*
X93126410Y-101256410D01*
X93257685Y-101096450D01*
X93355232Y-100913954D01*
X93415300Y-100715934D01*
X93435583Y-100510000D01*
X93415300Y-100304066D01*
X93355232Y-100106046D01*
X93257685Y-99923550D01*
X93175593Y-99823520D01*
X93126410Y-99763589D01*
X93008677Y-99666969D01*
X92966450Y-99632315D01*
X92783954Y-99534768D01*
X92585934Y-99474700D01*
X92585932Y-99474699D01*
X92585934Y-99474699D01*
X92380000Y-99454417D01*
X92174067Y-99474699D01*
X91976043Y-99534769D01*
X91865898Y-99593643D01*
X91793550Y-99632315D01*
X91793548Y-99632316D01*
X91793547Y-99632317D01*
X91633589Y-99763589D01*
X91502317Y-99923547D01*
X91404769Y-100106043D01*
X91344699Y-100304067D01*
X91324417Y-100510000D01*
X90510500Y-100510000D01*
X90510500Y-97970000D01*
X91324417Y-97970000D01*
X91344699Y-98175932D01*
X91366132Y-98246588D01*
X91404768Y-98373954D01*
X91502315Y-98556450D01*
X91502317Y-98556452D01*
X91633589Y-98716410D01*
X91713527Y-98782012D01*
X91793550Y-98847685D01*
X91976046Y-98945232D01*
X92174066Y-99005300D01*
X92174065Y-99005300D01*
X92192529Y-99007118D01*
X92380000Y-99025583D01*
X92585934Y-99005300D01*
X92783954Y-98945232D01*
X92966450Y-98847685D01*
X93126410Y-98716410D01*
X93257685Y-98556450D01*
X93355232Y-98373954D01*
X93415300Y-98175934D01*
X93435583Y-97970000D01*
X93415300Y-97764066D01*
X93355232Y-97566046D01*
X93257685Y-97383550D01*
X93205702Y-97320209D01*
X93126410Y-97223589D01*
X92966452Y-97092317D01*
X92966453Y-97092317D01*
X92966450Y-97092315D01*
X92783954Y-96994768D01*
X92585934Y-96934700D01*
X92585932Y-96934699D01*
X92585934Y-96934699D01*
X92380000Y-96914417D01*
X92174067Y-96934699D01*
X91976043Y-96994769D01*
X91865898Y-97053643D01*
X91793550Y-97092315D01*
X91793548Y-97092316D01*
X91793547Y-97092317D01*
X91633589Y-97223589D01*
X91502317Y-97383547D01*
X91502315Y-97383550D01*
X91471818Y-97440606D01*
X91404769Y-97566043D01*
X91344699Y-97764067D01*
X91324417Y-97970000D01*
X90510500Y-97970000D01*
X90510500Y-95430000D01*
X91324417Y-95430000D01*
X91344699Y-95635932D01*
X91344700Y-95635934D01*
X91404768Y-95833954D01*
X91502315Y-96016450D01*
X91502317Y-96016452D01*
X91633589Y-96176410D01*
X91708922Y-96238233D01*
X91793550Y-96307685D01*
X91976046Y-96405232D01*
X92174066Y-96465300D01*
X92174065Y-96465300D01*
X92192529Y-96467118D01*
X92380000Y-96485583D01*
X92585934Y-96465300D01*
X92783954Y-96405232D01*
X92966450Y-96307685D01*
X93126410Y-96176410D01*
X93257685Y-96016450D01*
X93355232Y-95833954D01*
X93415300Y-95635934D01*
X93435583Y-95430000D01*
X93415300Y-95224066D01*
X93355232Y-95026046D01*
X93257685Y-94843550D01*
X93205702Y-94780209D01*
X93126410Y-94683589D01*
X92994784Y-94575568D01*
X92966450Y-94552315D01*
X92783954Y-94454768D01*
X92585934Y-94394700D01*
X92585932Y-94394699D01*
X92585934Y-94394699D01*
X92380000Y-94374417D01*
X92174067Y-94394699D01*
X91976043Y-94454769D01*
X91882352Y-94504849D01*
X91793550Y-94552315D01*
X91793548Y-94552316D01*
X91793547Y-94552317D01*
X91633589Y-94683589D01*
X91502317Y-94843547D01*
X91502315Y-94843550D01*
X91472701Y-94898954D01*
X91404769Y-95026043D01*
X91344699Y-95224067D01*
X91324417Y-95430000D01*
X90510500Y-95430000D01*
X90510500Y-92890000D01*
X91324417Y-92890000D01*
X91344699Y-93095932D01*
X91372130Y-93186361D01*
X91404768Y-93293954D01*
X91502315Y-93476450D01*
X91502317Y-93476452D01*
X91633589Y-93636410D01*
X91648431Y-93648590D01*
X91793550Y-93767685D01*
X91976046Y-93865232D01*
X92174066Y-93925300D01*
X92174065Y-93925300D01*
X92192529Y-93927118D01*
X92380000Y-93945583D01*
X92585934Y-93925300D01*
X92783954Y-93865232D01*
X92966450Y-93767685D01*
X93126410Y-93636410D01*
X93257685Y-93476450D01*
X93355232Y-93293954D01*
X93415300Y-93095934D01*
X93435583Y-92890000D01*
X93415300Y-92684066D01*
X93355232Y-92486046D01*
X93257685Y-92303550D01*
X93180560Y-92209572D01*
X93126410Y-92143589D01*
X92966452Y-92012317D01*
X92966453Y-92012317D01*
X92966450Y-92012315D01*
X92796554Y-91921502D01*
X92783956Y-91914769D01*
X92783955Y-91914768D01*
X92783954Y-91914768D01*
X92585934Y-91854700D01*
X92585932Y-91854699D01*
X92585934Y-91854699D01*
X92380000Y-91834417D01*
X92174067Y-91854699D01*
X91976043Y-91914769D01*
X91883615Y-91964174D01*
X91793550Y-92012315D01*
X91793548Y-92012316D01*
X91793547Y-92012317D01*
X91633589Y-92143589D01*
X91502317Y-92303547D01*
X91502315Y-92303550D01*
X91474534Y-92355525D01*
X91404769Y-92486043D01*
X91344699Y-92684067D01*
X91324417Y-92890000D01*
X90510500Y-92890000D01*
X90510500Y-72570000D01*
X91324417Y-72570000D01*
X91344699Y-72775932D01*
X91367319Y-72850499D01*
X91404768Y-72973954D01*
X91502315Y-73156450D01*
X91502317Y-73156452D01*
X91633589Y-73316410D01*
X91730209Y-73395702D01*
X91793550Y-73447685D01*
X91976046Y-73545232D01*
X92174066Y-73605300D01*
X92174065Y-73605300D01*
X92192529Y-73607118D01*
X92380000Y-73625583D01*
X92585934Y-73605300D01*
X92783954Y-73545232D01*
X92966450Y-73447685D01*
X93126410Y-73316410D01*
X93257685Y-73156450D01*
X93355232Y-72973954D01*
X93415300Y-72775934D01*
X93435583Y-72570000D01*
X93415300Y-72364066D01*
X93355232Y-72166046D01*
X93257685Y-71983550D01*
X93205702Y-71920209D01*
X93126410Y-71823589D01*
X92966452Y-71692317D01*
X92966453Y-71692317D01*
X92966450Y-71692315D01*
X92783954Y-71594768D01*
X92585934Y-71534700D01*
X92585932Y-71534699D01*
X92585934Y-71534699D01*
X92380000Y-71514417D01*
X92174067Y-71534699D01*
X91976043Y-71594769D01*
X91865898Y-71653643D01*
X91793550Y-71692315D01*
X91793548Y-71692316D01*
X91793547Y-71692317D01*
X91633589Y-71823589D01*
X91502317Y-71983547D01*
X91502315Y-71983550D01*
X91477546Y-72029889D01*
X91404769Y-72166043D01*
X91344699Y-72364067D01*
X91324417Y-72570000D01*
X90510500Y-72570000D01*
X90510500Y-67005412D01*
X90510972Y-66994605D01*
X90518938Y-66903550D01*
X90524587Y-66838978D01*
X90528338Y-66817704D01*
X90567367Y-66672044D01*
X90574759Y-66651738D01*
X90638483Y-66515081D01*
X90649289Y-66496366D01*
X90735779Y-66372845D01*
X90749667Y-66356293D01*
X90856293Y-66249667D01*
X90872845Y-66235779D01*
X90996366Y-66149289D01*
X91015081Y-66138483D01*
X91151740Y-66074758D01*
X91172044Y-66067367D01*
X91317704Y-66028338D01*
X91338978Y-66024587D01*
X91494605Y-66010971D01*
X91505412Y-66010500D01*
X91936879Y-66010500D01*
X92003918Y-66030185D01*
G37*
%TD.AperFunction*%
%TA.AperFunction,Conductor*%
G36*
X102918834Y-70358651D02*
G01*
X102974767Y-70400523D01*
X102999184Y-70465987D01*
X102999500Y-70474833D01*
X102999500Y-70824678D01*
X103014032Y-70897735D01*
X103014033Y-70897739D01*
X103020677Y-70907682D01*
X103069399Y-70980601D01*
X103106260Y-71005230D01*
X103152260Y-71035966D01*
X103152264Y-71035967D01*
X103225321Y-71050499D01*
X103225324Y-71050500D01*
X103225326Y-71050500D01*
X104774676Y-71050500D01*
X104774677Y-71050499D01*
X104847740Y-71035966D01*
X104930601Y-70980601D01*
X104985966Y-70897740D01*
X105000500Y-70824674D01*
X105000500Y-70724500D01*
X105020185Y-70657461D01*
X105072989Y-70611706D01*
X105124500Y-70600500D01*
X105174167Y-70600500D01*
X105241206Y-70620185D01*
X105261848Y-70636819D01*
X106630701Y-72005672D01*
X106664186Y-72066995D01*
X106659202Y-72136687D01*
X106652381Y-72151800D01*
X106644770Y-72166039D01*
X106584699Y-72364067D01*
X106564417Y-72570000D01*
X106584699Y-72775932D01*
X106644769Y-72973956D01*
X106652379Y-72988193D01*
X106666620Y-73056596D01*
X106641619Y-73121840D01*
X106630701Y-73134326D01*
X105815489Y-73949540D01*
X105759541Y-74005487D01*
X105759535Y-74005495D01*
X105719982Y-74074004D01*
X105719979Y-74074009D01*
X105719794Y-74074700D01*
X105701660Y-74142379D01*
X105699500Y-74150439D01*
X105699500Y-76494143D01*
X105679815Y-76561182D01*
X105627011Y-76606937D01*
X105557853Y-76616881D01*
X105508462Y-76598459D01*
X105489066Y-76585994D01*
X105364774Y-76549500D01*
X105364772Y-76549500D01*
X105325833Y-76549500D01*
X105258794Y-76529815D01*
X105238152Y-76513181D01*
X103984512Y-75259541D01*
X103984507Y-75259537D01*
X103951462Y-75240459D01*
X103951462Y-75240458D01*
X103951460Y-75240458D01*
X103939083Y-75233312D01*
X103915990Y-75219979D01*
X103915991Y-75219979D01*
X103877775Y-75209739D01*
X103839562Y-75199500D01*
X103839560Y-75199500D01*
X101974500Y-75199500D01*
X101907461Y-75179815D01*
X101861706Y-75127011D01*
X101850500Y-75075500D01*
X101850500Y-74795323D01*
X101850499Y-74795321D01*
X101835967Y-74722264D01*
X101835966Y-74722260D01*
X101825130Y-74706043D01*
X101780601Y-74639399D01*
X101756209Y-74623101D01*
X101711405Y-74569491D01*
X101702698Y-74500166D01*
X101732852Y-74437138D01*
X101756207Y-74416899D01*
X101780601Y-74400601D01*
X101835966Y-74317740D01*
X101850500Y-74244674D01*
X101850500Y-73795326D01*
X101850500Y-73795323D01*
X101850499Y-73795321D01*
X101835967Y-73722264D01*
X101835966Y-73722260D01*
X101780601Y-73639399D01*
X101756209Y-73623101D01*
X101711405Y-73569491D01*
X101702698Y-73500166D01*
X101732852Y-73437138D01*
X101756207Y-73416899D01*
X101780601Y-73400601D01*
X101835966Y-73317740D01*
X101850500Y-73244674D01*
X101850500Y-72795326D01*
X101850500Y-72795323D01*
X101850499Y-72795321D01*
X101835967Y-72722264D01*
X101835966Y-72722260D01*
X101834580Y-72720185D01*
X101780601Y-72639399D01*
X101756209Y-72623101D01*
X101711405Y-72569491D01*
X101702698Y-72500166D01*
X101732852Y-72437138D01*
X101756207Y-72416899D01*
X101780601Y-72400601D01*
X101835966Y-72317740D01*
X101850500Y-72244674D01*
X101850500Y-71924500D01*
X101870185Y-71857461D01*
X101922989Y-71811706D01*
X101974500Y-71800500D01*
X102424167Y-71800500D01*
X102491206Y-71820185D01*
X102511848Y-71836819D01*
X103259540Y-72584511D01*
X103315489Y-72640460D01*
X103315491Y-72640461D01*
X103315495Y-72640464D01*
X103384004Y-72680017D01*
X103384011Y-72680021D01*
X103460438Y-72700500D01*
X103507657Y-72700500D01*
X103574696Y-72720185D01*
X103601369Y-72743296D01*
X103601949Y-72743965D01*
X103601951Y-72743967D01*
X103710931Y-72814004D01*
X103835225Y-72850499D01*
X103835227Y-72850500D01*
X103835228Y-72850500D01*
X103964773Y-72850500D01*
X103964773Y-72850499D01*
X104089069Y-72814004D01*
X104198049Y-72743967D01*
X104282882Y-72646063D01*
X104336697Y-72528226D01*
X104355133Y-72400000D01*
X104336697Y-72271774D01*
X104282882Y-72153937D01*
X104198049Y-72056033D01*
X104089069Y-71985996D01*
X104089065Y-71985994D01*
X104089064Y-71985994D01*
X103964774Y-71949500D01*
X103964772Y-71949500D01*
X103835228Y-71949500D01*
X103835226Y-71949500D01*
X103710933Y-71985994D01*
X103710932Y-71985995D01*
X103673260Y-72010205D01*
X103606220Y-72029889D01*
X103539181Y-72010203D01*
X103518541Y-71993570D01*
X102784512Y-71259541D01*
X102784504Y-71259535D01*
X102715995Y-71219982D01*
X102715990Y-71219979D01*
X102690513Y-71213152D01*
X102639562Y-71199500D01*
X102639560Y-71199500D01*
X100924000Y-71199500D01*
X100856961Y-71179815D01*
X100811206Y-71127011D01*
X100800000Y-71075500D01*
X100800000Y-70944000D01*
X100819685Y-70876961D01*
X100872489Y-70831206D01*
X100924000Y-70820000D01*
X102113983Y-70820000D01*
X102144504Y-70803334D01*
X102170862Y-70800500D01*
X102289560Y-70800500D01*
X102289562Y-70800500D01*
X102365989Y-70780021D01*
X102434511Y-70740460D01*
X102490460Y-70684511D01*
X102787819Y-70387152D01*
X102849142Y-70353667D01*
X102918834Y-70358651D01*
G37*
%TD.AperFunction*%
%TD*%
M02*
