M48
; DRILL file {KiCad 8.0.4-unknown-202407232306~396e531e7c~ubuntu22.04.1} date 2024-09-04T14:28:47+0100
; FORMAT={-:-/ absolute / inch / decimal}
; #@! TF.CreationDate,2024-09-04T14:28:47+01:00
; #@! TF.GenerationSoftware,Kicad,Pcbnew,8.0.4-unknown-202407232306~396e531e7c~ubuntu22.04.1
; #@! TF.FileFunction,Plated,1,4,PTH
FMAT,2
INCH
; #@! TA.AperFunction,Plated,PTH,ViaDrill
T1C0.0118
; #@! TA.AperFunction,Plated,PTH,ComponentDrill
T2C0.0256
; #@! TA.AperFunction,Plated,PTH,ComponentDrill
T3C0.0315
; #@! TA.AperFunction,Plated,PTH,ComponentDrill
T4C0.0433
%
G90
G05
T1
X3.8071Y-2.9961
X3.8465Y-2.9331
X3.937Y-2.6858
X3.937Y-3.1614
X4.0207Y-2.7264
X4.0886Y-3.7598
X4.0906Y-2.8504
X4.0925Y-3.5551
X4.1457Y-3.0315
T2
X4.0972Y-2.6524
X4.0972Y-2.7024
T4
X3.637Y-2.6571
X3.637Y-2.7571
X3.637Y-2.8571
X3.637Y-2.9571
X3.637Y-3.0571
X3.637Y-3.1571
X3.637Y-3.2571
X3.637Y-3.3571
X3.637Y-3.4571
X3.637Y-3.5571
X3.637Y-3.6571
X3.637Y-3.7571
X3.637Y-3.8571
X3.637Y-3.9571
X4.237Y-2.6571
X4.237Y-2.7571
X4.237Y-2.8571
X4.237Y-2.9571
X4.237Y-3.0571
X4.237Y-3.1571
X4.237Y-3.2571
X4.237Y-3.3571
X4.237Y-3.4571
X4.237Y-3.5571
X4.237Y-3.6571
X4.237Y-3.7571
X4.237Y-3.8571
X4.237Y-3.9571
T3
G00X3.8681Y-3.7911
M15
G01X3.8681Y-3.8266
M16
G05
G00X3.9547Y-3.7183
M15
G01X3.9193Y-3.7183
M16
G05
G00X3.9547Y-3.9742
M15
G01X3.9193Y-3.9742
M16
G05
G00X4.0059Y-3.7911
M15
G01X4.0059Y-3.8266
M16
G05
M30
