%TF.GenerationSoftware,KiCad,Pcbnew,8.0.4-unknown-202407232306~396e531e7c~ubuntu22.04.1*%
%TF.CreationDate,2024-09-04T14:28:47+01:00*%
%TF.ProjectId,CONTROLLER_teensy4,434f4e54-524f-44c4-9c45-525f7465656e,rev?*%
%TF.SameCoordinates,Original*%
%TF.FileFunction,Copper,L3,Inr*%
%TF.FilePolarity,Positive*%
%FSLAX46Y46*%
G04 Gerber Fmt 4.6, Leading zero omitted, Abs format (unit mm)*
G04 Created by KiCad (PCBNEW 8.0.4-unknown-202407232306~396e531e7c~ubuntu22.04.1) date 2024-09-04 14:28:47*
%MOMM*%
%LPD*%
G01*
G04 APERTURE LIST*
G04 Aperture macros list*
%AMRoundRect*
0 Rectangle with rounded corners*
0 $1 Rounding radius*
0 $2 $3 $4 $5 $6 $7 $8 $9 X,Y pos of 4 corners*
0 Add a 4 corners polygon primitive as box body*
4,1,4,$2,$3,$4,$5,$6,$7,$8,$9,$2,$3,0*
0 Add four circle primitives for the rounded corners*
1,1,$1+$1,$2,$3*
1,1,$1+$1,$4,$5*
1,1,$1+$1,$6,$7*
1,1,$1+$1,$8,$9*
0 Add four rect primitives between the rounded corners*
20,1,$1+$1,$2,$3,$4,$5,0*
20,1,$1+$1,$4,$5,$6,$7,0*
20,1,$1+$1,$6,$7,$8,$9,0*
20,1,$1+$1,$8,$9,$2,$3,0*%
G04 Aperture macros list end*
%TA.AperFunction,ComponentPad*%
%ADD10C,1.600000*%
%TD*%
%TA.AperFunction,ComponentPad*%
%ADD11R,1.000000X1.000000*%
%TD*%
%TA.AperFunction,ComponentPad*%
%ADD12O,1.000000X1.000000*%
%TD*%
%TA.AperFunction,ComponentPad*%
%ADD13RoundRect,0.800000X-0.050000X-0.450000X0.050000X-0.450000X0.050000X0.450000X-0.050000X0.450000X0*%
%TD*%
%TA.AperFunction,ComponentPad*%
%ADD14RoundRect,0.800000X-0.450000X0.050000X-0.450000X-0.050000X0.450000X-0.050000X0.450000X0.050000X0*%
%TD*%
%TA.AperFunction,ComponentPad*%
%ADD15RoundRect,0.800000X-0.700000X0.050000X-0.700000X-0.050000X0.700000X-0.050000X0.700000X0.050000X0*%
%TD*%
%TA.AperFunction,ViaPad*%
%ADD16C,0.400000*%
%TD*%
G04 APERTURE END LIST*
D10*
%TO.N,GND*%
%TO.C,U1*%
X92380000Y-67490000D03*
%TO.N,unconnected-(U1-0_RX1_CRX2_CS1-Pad2)*%
X92380000Y-70030000D03*
%TO.N,unconnected-(U1-1_TX1_CTX2_MISO1-Pad3)*%
X92380000Y-72570000D03*
%TO.N,/addr_bus_0*%
X92380000Y-75110000D03*
%TO.N,/addr_bus_1*%
X92380000Y-77650000D03*
%TO.N,/addr_bus_2*%
X92380000Y-80190000D03*
%TO.N,/addr_bus_3*%
X92380000Y-82730000D03*
%TO.N,/addr_bus_4*%
X92380000Y-85270000D03*
%TO.N,/IO2*%
X92380000Y-87810000D03*
%TO.N,/IO1_out*%
X92380000Y-90350000D03*
%TO.N,unconnected-(U1-9_OUT1C-Pad11)*%
X92380000Y-92890000D03*
%TO.N,unconnected-(U1-10_CS_MQSR-Pad12)*%
X92380000Y-95430000D03*
%TO.N,/PICO*%
X92380000Y-97970000D03*
%TO.N,/POCI*%
X92380000Y-100510000D03*
%TO.N,/SCLK*%
X107620000Y-100510000D03*
%TO.N,unconnected-(U1-14_A0_TX3_SPDIF_OUT-Pad21)*%
X107620000Y-97970000D03*
%TO.N,Net-(JP1-B)*%
X107620000Y-95430000D03*
%TO.N,Net-(JP2-B)*%
X107620000Y-92890000D03*
%TO.N,Net-(JP3-B)*%
X107620000Y-90350000D03*
%TO.N,/I2C_SDA*%
X107620000Y-87810000D03*
%TO.N,/i2C_SCL*%
X107620000Y-85270000D03*
%TO.N,unconnected-(U1-20_A6_TX5_LRCLK1-Pad27)*%
X107620000Y-82730000D03*
%TO.N,unconnected-(U1-21_A7_RX5_BCLK1-Pad28)*%
X107620000Y-80190000D03*
%TO.N,unconnected-(U1-22_A8_CTX1-Pad29)*%
X107620000Y-77650000D03*
%TO.N,unconnected-(U1-23_A9_CRX1_MCLK1-Pad30)*%
X107620000Y-75110000D03*
%TO.N,+3.3V*%
X107620000Y-72570000D03*
%TO.N,GND*%
X107620000Y-70030000D03*
%TO.N,VSYS*%
X107620000Y-67490000D03*
%TD*%
D11*
%TO.N,VSYS*%
%TO.C,J2*%
X104070000Y-67370000D03*
D12*
%TO.N,GND*%
X104070000Y-68640000D03*
%TD*%
D13*
%TO.N,GND*%
%TO.C,J5*%
X101750000Y-96745000D03*
D14*
%TO.N,/extRef*%
X100000000Y-94445000D03*
D13*
%TO.N,GND*%
X98250000Y-96745000D03*
D15*
%TO.N,/extRef*%
X100000000Y-100945000D03*
%TD*%
D16*
%TO.N,GND*%
X100000000Y-80300000D03*
X100000000Y-68220000D03*
%TO.N,/AUX3*%
X103950001Y-90300000D03*
X103900000Y-72400000D03*
%TO.N,/SCLK*%
X105300000Y-77000000D03*
%TO.N,/AUX1*%
X102125000Y-69250000D03*
X103850001Y-95500000D03*
%TO.N,/PICO*%
X96700000Y-76100000D03*
%TO.N,/POCI*%
X97700000Y-74500000D03*
%TD*%
%TA.AperFunction,Conductor*%
%TO.N,GND*%
G36*
X92003918Y-66030185D02*
G01*
X92049673Y-66082989D01*
X92059617Y-66152147D01*
X92030592Y-66215703D01*
X91971814Y-66253477D01*
X91968972Y-66254275D01*
X91933682Y-66263730D01*
X91933673Y-66263734D01*
X91727516Y-66359866D01*
X91727512Y-66359868D01*
X91654526Y-66410973D01*
X91654526Y-66410974D01*
X92209765Y-66966212D01*
X92167708Y-66977482D01*
X92042292Y-67049890D01*
X91939890Y-67152292D01*
X91867482Y-67277708D01*
X91856212Y-67319764D01*
X91300974Y-66764526D01*
X91300973Y-66764526D01*
X91249868Y-66837512D01*
X91249866Y-66837516D01*
X91153734Y-67043673D01*
X91153730Y-67043682D01*
X91094860Y-67263389D01*
X91094858Y-67263400D01*
X91075034Y-67489997D01*
X91075034Y-67490002D01*
X91094858Y-67716599D01*
X91094860Y-67716610D01*
X91153730Y-67936317D01*
X91153735Y-67936331D01*
X91249863Y-68142478D01*
X91300974Y-68215472D01*
X91856212Y-67660234D01*
X91867482Y-67702292D01*
X91939890Y-67827708D01*
X92042292Y-67930110D01*
X92167708Y-68002518D01*
X92209765Y-68013787D01*
X91654526Y-68569025D01*
X91727513Y-68620132D01*
X91727521Y-68620136D01*
X91933668Y-68716264D01*
X91933682Y-68716269D01*
X92129256Y-68768673D01*
X92188917Y-68805038D01*
X92219446Y-68867885D01*
X92211151Y-68937261D01*
X92166666Y-68991138D01*
X92133158Y-69007109D01*
X91976043Y-69054769D01*
X91865898Y-69113643D01*
X91793550Y-69152315D01*
X91793548Y-69152316D01*
X91793547Y-69152317D01*
X91633589Y-69283589D01*
X91502317Y-69443547D01*
X91404769Y-69626043D01*
X91344699Y-69824067D01*
X91324417Y-70030000D01*
X91344699Y-70235932D01*
X91350972Y-70256610D01*
X91404768Y-70433954D01*
X91502315Y-70616450D01*
X91502317Y-70616452D01*
X91633589Y-70776410D01*
X91730209Y-70855702D01*
X91793550Y-70907685D01*
X91976046Y-71005232D01*
X92174066Y-71065300D01*
X92174065Y-71065300D01*
X92192529Y-71067118D01*
X92380000Y-71085583D01*
X92585934Y-71065300D01*
X92783954Y-71005232D01*
X92966450Y-70907685D01*
X93126410Y-70776410D01*
X93257685Y-70616450D01*
X93355232Y-70433954D01*
X93415300Y-70235934D01*
X93435583Y-70030000D01*
X93435583Y-70029997D01*
X106315034Y-70029997D01*
X106315034Y-70030002D01*
X106334858Y-70256599D01*
X106334860Y-70256610D01*
X106393730Y-70476317D01*
X106393735Y-70476331D01*
X106489863Y-70682478D01*
X106540974Y-70755472D01*
X107096212Y-70200234D01*
X107107482Y-70242292D01*
X107179890Y-70367708D01*
X107282292Y-70470110D01*
X107407708Y-70542518D01*
X107449765Y-70553787D01*
X106894526Y-71109025D01*
X106967513Y-71160132D01*
X106967521Y-71160136D01*
X107173668Y-71256264D01*
X107173682Y-71256269D01*
X107369256Y-71308673D01*
X107428917Y-71345038D01*
X107459446Y-71407885D01*
X107451151Y-71477261D01*
X107406666Y-71531138D01*
X107373158Y-71547109D01*
X107216043Y-71594769D01*
X107105898Y-71653643D01*
X107033550Y-71692315D01*
X107033548Y-71692316D01*
X107033547Y-71692317D01*
X106873589Y-71823589D01*
X106742317Y-71983547D01*
X106644769Y-72166043D01*
X106584699Y-72364067D01*
X106564417Y-72570000D01*
X106584699Y-72775932D01*
X106607319Y-72850499D01*
X106644768Y-72973954D01*
X106742315Y-73156450D01*
X106742317Y-73156452D01*
X106873589Y-73316410D01*
X106970209Y-73395702D01*
X107033550Y-73447685D01*
X107216046Y-73545232D01*
X107414066Y-73605300D01*
X107414065Y-73605300D01*
X107432529Y-73607118D01*
X107620000Y-73625583D01*
X107825934Y-73605300D01*
X108023954Y-73545232D01*
X108206450Y-73447685D01*
X108366410Y-73316410D01*
X108497685Y-73156450D01*
X108595232Y-72973954D01*
X108655300Y-72775934D01*
X108675583Y-72570000D01*
X108655300Y-72364066D01*
X108595232Y-72166046D01*
X108497685Y-71983550D01*
X108445702Y-71920209D01*
X108366410Y-71823589D01*
X108206452Y-71692317D01*
X108206453Y-71692317D01*
X108206450Y-71692315D01*
X108023954Y-71594768D01*
X107866840Y-71547108D01*
X107808402Y-71508811D01*
X107779946Y-71444999D01*
X107790506Y-71375932D01*
X107836730Y-71323538D01*
X107870743Y-71308673D01*
X108066317Y-71256269D01*
X108066331Y-71256264D01*
X108272478Y-71160136D01*
X108345471Y-71109024D01*
X107790234Y-70553787D01*
X107832292Y-70542518D01*
X107957708Y-70470110D01*
X108060110Y-70367708D01*
X108132518Y-70242292D01*
X108143787Y-70200234D01*
X108699024Y-70755471D01*
X108750136Y-70682478D01*
X108846264Y-70476331D01*
X108846269Y-70476317D01*
X108905139Y-70256610D01*
X108905141Y-70256599D01*
X108924966Y-70030002D01*
X108924966Y-70029997D01*
X108905141Y-69803400D01*
X108905139Y-69803389D01*
X108846269Y-69583682D01*
X108846264Y-69583668D01*
X108750136Y-69377521D01*
X108750132Y-69377513D01*
X108699025Y-69304526D01*
X108143787Y-69859764D01*
X108132518Y-69817708D01*
X108060110Y-69692292D01*
X107957708Y-69589890D01*
X107832292Y-69517482D01*
X107790234Y-69506212D01*
X108345472Y-68950974D01*
X108272478Y-68899863D01*
X108066331Y-68803735D01*
X108066319Y-68803731D01*
X107870742Y-68751326D01*
X107811082Y-68714961D01*
X107780553Y-68652114D01*
X107788848Y-68582738D01*
X107833333Y-68528860D01*
X107866837Y-68512892D01*
X108023954Y-68465232D01*
X108206450Y-68367685D01*
X108366410Y-68236410D01*
X108497685Y-68076450D01*
X108595232Y-67893954D01*
X108655300Y-67695934D01*
X108675583Y-67490000D01*
X108655300Y-67284066D01*
X108595232Y-67086046D01*
X108497685Y-66903550D01*
X108427227Y-66817696D01*
X108366410Y-66743589D01*
X108232915Y-66634034D01*
X108206450Y-66612315D01*
X108023954Y-66514768D01*
X107825934Y-66454700D01*
X107825932Y-66454699D01*
X107825934Y-66454699D01*
X107620000Y-66434417D01*
X107414067Y-66454699D01*
X107216043Y-66514769D01*
X107110259Y-66571313D01*
X107033550Y-66612315D01*
X107033548Y-66612316D01*
X107033547Y-66612317D01*
X106873589Y-66743589D01*
X106742317Y-66903547D01*
X106644769Y-67086043D01*
X106584699Y-67284067D01*
X106564417Y-67490000D01*
X106584699Y-67695932D01*
X106590972Y-67716610D01*
X106644768Y-67893954D01*
X106742315Y-68076450D01*
X106750006Y-68085821D01*
X106873589Y-68236410D01*
X106969353Y-68315000D01*
X107033550Y-68367685D01*
X107216046Y-68465232D01*
X107373160Y-68512891D01*
X107431597Y-68551187D01*
X107460053Y-68614999D01*
X107449493Y-68684067D01*
X107403269Y-68736460D01*
X107369257Y-68751326D01*
X107173680Y-68803731D01*
X107173673Y-68803734D01*
X106967516Y-68899866D01*
X106967512Y-68899868D01*
X106894526Y-68950973D01*
X106894526Y-68950974D01*
X107449765Y-69506212D01*
X107407708Y-69517482D01*
X107282292Y-69589890D01*
X107179890Y-69692292D01*
X107107482Y-69817708D01*
X107096212Y-69859764D01*
X106540974Y-69304526D01*
X106540973Y-69304526D01*
X106489868Y-69377512D01*
X106489866Y-69377516D01*
X106393734Y-69583673D01*
X106393730Y-69583682D01*
X106334860Y-69803389D01*
X106334858Y-69803400D01*
X106315034Y-70029997D01*
X93435583Y-70029997D01*
X93415300Y-69824066D01*
X93355232Y-69626046D01*
X93257685Y-69443550D01*
X93203489Y-69377512D01*
X93126410Y-69283589D01*
X92966452Y-69152317D01*
X92966453Y-69152317D01*
X92966450Y-69152315D01*
X92783954Y-69054768D01*
X92626840Y-69007108D01*
X92615994Y-69000000D01*
X94484611Y-69000000D01*
X94504121Y-69198095D01*
X94561903Y-69388574D01*
X94655731Y-69564114D01*
X94655735Y-69564121D01*
X94782011Y-69717988D01*
X94935878Y-69844264D01*
X94935885Y-69844268D01*
X95111425Y-69938096D01*
X95111427Y-69938097D01*
X95301907Y-69995879D01*
X95500000Y-70015389D01*
X95698093Y-69995879D01*
X95888573Y-69938097D01*
X96064120Y-69844265D01*
X96217988Y-69717988D01*
X96344265Y-69564120D01*
X96438097Y-69388573D01*
X96480133Y-69250000D01*
X101669867Y-69250000D01*
X101688302Y-69378225D01*
X101718134Y-69443547D01*
X101742118Y-69496063D01*
X101826951Y-69593967D01*
X101935931Y-69664004D01*
X102057442Y-69699682D01*
X102060225Y-69700499D01*
X102060227Y-69700500D01*
X102060228Y-69700500D01*
X102189773Y-69700500D01*
X102189773Y-69700499D01*
X102314069Y-69664004D01*
X102423049Y-69593967D01*
X102507882Y-69496063D01*
X102561697Y-69378226D01*
X102580133Y-69250000D01*
X102561697Y-69121774D01*
X102507882Y-69003937D01*
X102423049Y-68906033D01*
X102398101Y-68890000D01*
X103100840Y-68890000D01*
X103141652Y-69024541D01*
X103234503Y-69198253D01*
X103234507Y-69198260D01*
X103359471Y-69350528D01*
X103511739Y-69475491D01*
X103685465Y-69568349D01*
X103820000Y-69609159D01*
X104320000Y-69609159D01*
X104454534Y-69568349D01*
X104628260Y-69475491D01*
X104780528Y-69350528D01*
X104905492Y-69198260D01*
X104905496Y-69198253D01*
X104998347Y-69024541D01*
X105039160Y-68890000D01*
X104320000Y-68890000D01*
X104320000Y-69609159D01*
X103820000Y-69609159D01*
X103820000Y-68890000D01*
X103100840Y-68890000D01*
X102398101Y-68890000D01*
X102314069Y-68835996D01*
X102314065Y-68835994D01*
X102314064Y-68835994D01*
X102189774Y-68799500D01*
X102189772Y-68799500D01*
X102060228Y-68799500D01*
X102060226Y-68799500D01*
X101935935Y-68835994D01*
X101935932Y-68835995D01*
X101935931Y-68835996D01*
X101930395Y-68839554D01*
X101826950Y-68906033D01*
X101742118Y-69003937D01*
X101742117Y-69003938D01*
X101688302Y-69121774D01*
X101669867Y-69250000D01*
X96480133Y-69250000D01*
X96495879Y-69198093D01*
X96515389Y-69000000D01*
X96495879Y-68801907D01*
X96438097Y-68611427D01*
X96438096Y-68611425D01*
X96344268Y-68435885D01*
X96344264Y-68435878D01*
X96306612Y-68389999D01*
X103100839Y-68389999D01*
X103100840Y-68390000D01*
X103860382Y-68390000D01*
X103809936Y-68440446D01*
X103767149Y-68514555D01*
X103745000Y-68597213D01*
X103745000Y-68682787D01*
X103767149Y-68765445D01*
X103809936Y-68839554D01*
X103870446Y-68900064D01*
X103944555Y-68942851D01*
X104027213Y-68965000D01*
X104112787Y-68965000D01*
X104195445Y-68942851D01*
X104269554Y-68900064D01*
X104330064Y-68839554D01*
X104372851Y-68765445D01*
X104395000Y-68682787D01*
X104395000Y-68597213D01*
X104372851Y-68514555D01*
X104330064Y-68440446D01*
X104279618Y-68390000D01*
X105039160Y-68390000D01*
X105039160Y-68389999D01*
X104998347Y-68255458D01*
X104905496Y-68081746D01*
X104905492Y-68081739D01*
X104844336Y-68007221D01*
X104817023Y-67942911D01*
X104818572Y-67904362D01*
X104820500Y-67894674D01*
X104820500Y-66845326D01*
X104820500Y-66845323D01*
X104820499Y-66845321D01*
X104805967Y-66772264D01*
X104805966Y-66772260D01*
X104800798Y-66764526D01*
X104750601Y-66689399D01*
X104667740Y-66634034D01*
X104667739Y-66634033D01*
X104667735Y-66634032D01*
X104594677Y-66619500D01*
X104594674Y-66619500D01*
X103545326Y-66619500D01*
X103545323Y-66619500D01*
X103472264Y-66634032D01*
X103472260Y-66634033D01*
X103389399Y-66689399D01*
X103334033Y-66772260D01*
X103334032Y-66772264D01*
X103319500Y-66845321D01*
X103319500Y-67894672D01*
X103321428Y-67904366D01*
X103315199Y-67973958D01*
X103295664Y-68007220D01*
X103234507Y-68081740D01*
X103234505Y-68081742D01*
X103141652Y-68255458D01*
X103100839Y-68389999D01*
X96306612Y-68389999D01*
X96217988Y-68282011D01*
X96064121Y-68155735D01*
X96064114Y-68155731D01*
X95888574Y-68061903D01*
X95698095Y-68004121D01*
X95500000Y-67984611D01*
X95301904Y-68004121D01*
X95111425Y-68061903D01*
X94935885Y-68155731D01*
X94935878Y-68155735D01*
X94782011Y-68282011D01*
X94655735Y-68435878D01*
X94655731Y-68435885D01*
X94561903Y-68611425D01*
X94504121Y-68801904D01*
X94484611Y-69000000D01*
X92615994Y-69000000D01*
X92568402Y-68968811D01*
X92539946Y-68904999D01*
X92550506Y-68835932D01*
X92596730Y-68783538D01*
X92630743Y-68768673D01*
X92826317Y-68716269D01*
X92826331Y-68716264D01*
X93032478Y-68620136D01*
X93105471Y-68569024D01*
X92550234Y-68013787D01*
X92592292Y-68002518D01*
X92717708Y-67930110D01*
X92820110Y-67827708D01*
X92892518Y-67702292D01*
X92903787Y-67660234D01*
X93459024Y-68215471D01*
X93510136Y-68142478D01*
X93606264Y-67936331D01*
X93606269Y-67936317D01*
X93665139Y-67716610D01*
X93665141Y-67716599D01*
X93684966Y-67490002D01*
X93684966Y-67489997D01*
X93665141Y-67263400D01*
X93665139Y-67263389D01*
X93606269Y-67043682D01*
X93606264Y-67043668D01*
X93510136Y-66837521D01*
X93510132Y-66837513D01*
X93459025Y-66764526D01*
X92903787Y-67319764D01*
X92892518Y-67277708D01*
X92820110Y-67152292D01*
X92717708Y-67049890D01*
X92592292Y-66977482D01*
X92550234Y-66966212D01*
X93105472Y-66410974D01*
X93032478Y-66359863D01*
X92826331Y-66263735D01*
X92826317Y-66263730D01*
X92791028Y-66254275D01*
X92731367Y-66217910D01*
X92700838Y-66155063D01*
X92709133Y-66085688D01*
X92753618Y-66031810D01*
X92820170Y-66010535D01*
X92823121Y-66010500D01*
X108494588Y-66010500D01*
X108505394Y-66010971D01*
X108661019Y-66024587D01*
X108682297Y-66028338D01*
X108827951Y-66067366D01*
X108848261Y-66074759D01*
X108984915Y-66138482D01*
X109003633Y-66149289D01*
X109127154Y-66235779D01*
X109143712Y-66249673D01*
X109250326Y-66356287D01*
X109264220Y-66372845D01*
X109350710Y-66496366D01*
X109361517Y-66515084D01*
X109425240Y-66651738D01*
X109432633Y-66672049D01*
X109471659Y-66817696D01*
X109475412Y-66838982D01*
X109489028Y-66994604D01*
X109489500Y-67005412D01*
X109489500Y-101494587D01*
X109489028Y-101505395D01*
X109475412Y-101661017D01*
X109471659Y-101682303D01*
X109432633Y-101827950D01*
X109425240Y-101848261D01*
X109361517Y-101984915D01*
X109350710Y-102003633D01*
X109264220Y-102127154D01*
X109250326Y-102143712D01*
X109143712Y-102250326D01*
X109127154Y-102264220D01*
X109003633Y-102350710D01*
X108984915Y-102361517D01*
X108848261Y-102425240D01*
X108827950Y-102432633D01*
X108682303Y-102471659D01*
X108661017Y-102475412D01*
X108527247Y-102487116D01*
X108505393Y-102489028D01*
X108494588Y-102489500D01*
X91505412Y-102489500D01*
X91494606Y-102489028D01*
X91469584Y-102486838D01*
X91338982Y-102475412D01*
X91317696Y-102471659D01*
X91172049Y-102432633D01*
X91151738Y-102425240D01*
X91015084Y-102361517D01*
X90996366Y-102350710D01*
X90872845Y-102264220D01*
X90856287Y-102250326D01*
X90749673Y-102143712D01*
X90735779Y-102127154D01*
X90649289Y-102003633D01*
X90638482Y-101984915D01*
X90574759Y-101848261D01*
X90567366Y-101827950D01*
X90528338Y-101682297D01*
X90524587Y-101661016D01*
X90510972Y-101505394D01*
X90510500Y-101494587D01*
X90510500Y-100510000D01*
X91324417Y-100510000D01*
X91344699Y-100715932D01*
X91344700Y-100715934D01*
X91404768Y-100913954D01*
X91502315Y-101096450D01*
X91502317Y-101096452D01*
X91633589Y-101256410D01*
X91730209Y-101335702D01*
X91793550Y-101387685D01*
X91976046Y-101485232D01*
X92174066Y-101545300D01*
X92174065Y-101545300D01*
X92192529Y-101547118D01*
X92380000Y-101565583D01*
X92585934Y-101545300D01*
X92783954Y-101485232D01*
X92966450Y-101387685D01*
X93126410Y-101256410D01*
X93257685Y-101096450D01*
X93355232Y-100913954D01*
X93376636Y-100843395D01*
X98249500Y-100843395D01*
X98249500Y-101046604D01*
X98264699Y-101200932D01*
X98264700Y-101200934D01*
X98324768Y-101398954D01*
X98422315Y-101581450D01*
X98456969Y-101623677D01*
X98553589Y-101741410D01*
X98579332Y-101762536D01*
X98713550Y-101872685D01*
X98896046Y-101970232D01*
X99094066Y-102030300D01*
X99094065Y-102030300D01*
X99132647Y-102034100D01*
X99248392Y-102045500D01*
X99248395Y-102045500D01*
X100751605Y-102045500D01*
X100751608Y-102045500D01*
X100905934Y-102030300D01*
X101103954Y-101970232D01*
X101286450Y-101872685D01*
X101446410Y-101741410D01*
X101577685Y-101581450D01*
X101675232Y-101398954D01*
X101735300Y-101200934D01*
X101750500Y-101046608D01*
X101750500Y-100843392D01*
X101735300Y-100689066D01*
X101675232Y-100491046D01*
X101577685Y-100308550D01*
X101488340Y-100199682D01*
X101446410Y-100148589D01*
X101286452Y-100017317D01*
X101286453Y-100017317D01*
X101286450Y-100017315D01*
X101103954Y-99919768D01*
X100905934Y-99859700D01*
X100905932Y-99859699D01*
X100905934Y-99859699D01*
X100786805Y-99847966D01*
X100751608Y-99844500D01*
X100751605Y-99844500D01*
X100716553Y-99844500D01*
X100649514Y-99824815D01*
X100603759Y-99772011D01*
X100593815Y-99702853D01*
X100622840Y-99639297D01*
X100624403Y-99637528D01*
X100699990Y-99553580D01*
X100699995Y-99553573D01*
X100708729Y-99538446D01*
X100730926Y-99500000D01*
X103484611Y-99500000D01*
X103504121Y-99698095D01*
X103561903Y-99888574D01*
X103655731Y-100064114D01*
X103655735Y-100064121D01*
X103782011Y-100217988D01*
X103935878Y-100344264D01*
X103935885Y-100344268D01*
X104111425Y-100438096D01*
X104111427Y-100438097D01*
X104301907Y-100495879D01*
X104500000Y-100515389D01*
X104554717Y-100510000D01*
X106564417Y-100510000D01*
X106584699Y-100715932D01*
X106584700Y-100715934D01*
X106644768Y-100913954D01*
X106742315Y-101096450D01*
X106742317Y-101096452D01*
X106873589Y-101256410D01*
X106970209Y-101335702D01*
X107033550Y-101387685D01*
X107216046Y-101485232D01*
X107414066Y-101545300D01*
X107414065Y-101545300D01*
X107432529Y-101547118D01*
X107620000Y-101565583D01*
X107825934Y-101545300D01*
X108023954Y-101485232D01*
X108206450Y-101387685D01*
X108366410Y-101256410D01*
X108497685Y-101096450D01*
X108595232Y-100913954D01*
X108655300Y-100715934D01*
X108675583Y-100510000D01*
X108655300Y-100304066D01*
X108595232Y-100106046D01*
X108497685Y-99923550D01*
X108415593Y-99823520D01*
X108366410Y-99763589D01*
X108248677Y-99666969D01*
X108206450Y-99632315D01*
X108023954Y-99534768D01*
X107825934Y-99474700D01*
X107825932Y-99474699D01*
X107825934Y-99474699D01*
X107620000Y-99454417D01*
X107414067Y-99474699D01*
X107216043Y-99534769D01*
X107105898Y-99593643D01*
X107033550Y-99632315D01*
X107033548Y-99632316D01*
X107033547Y-99632317D01*
X106873589Y-99763589D01*
X106742317Y-99923547D01*
X106644769Y-100106043D01*
X106584699Y-100304067D01*
X106564417Y-100510000D01*
X104554717Y-100510000D01*
X104698093Y-100495879D01*
X104888573Y-100438097D01*
X105064120Y-100344265D01*
X105217988Y-100217988D01*
X105344265Y-100064120D01*
X105438097Y-99888573D01*
X105495879Y-99698093D01*
X105515389Y-99500000D01*
X105495879Y-99301907D01*
X105438097Y-99111427D01*
X105402591Y-99045000D01*
X105344268Y-98935885D01*
X105344264Y-98935878D01*
X105217988Y-98782011D01*
X105064121Y-98655735D01*
X105064114Y-98655731D01*
X104888574Y-98561903D01*
X104698095Y-98504121D01*
X104500000Y-98484611D01*
X104301904Y-98504121D01*
X104111425Y-98561903D01*
X103935885Y-98655731D01*
X103935878Y-98655735D01*
X103782011Y-98782011D01*
X103655735Y-98935878D01*
X103655731Y-98935885D01*
X103561903Y-99111425D01*
X103504121Y-99301904D01*
X103484611Y-99500000D01*
X100730926Y-99500000D01*
X100790436Y-99396925D01*
X100846332Y-99224894D01*
X100865240Y-99045000D01*
X100846332Y-98865106D01*
X100790436Y-98693075D01*
X100711557Y-98556452D01*
X100699995Y-98536426D01*
X100699990Y-98536419D01*
X100578959Y-98402001D01*
X100578957Y-98401999D01*
X100432621Y-98295680D01*
X100432620Y-98295679D01*
X100308901Y-98240597D01*
X100267374Y-98222108D01*
X100267372Y-98222107D01*
X100138200Y-98194651D01*
X100090442Y-98184500D01*
X99909558Y-98184500D01*
X99861799Y-98194651D01*
X99732628Y-98222107D01*
X99567379Y-98295679D01*
X99567378Y-98295680D01*
X99421042Y-98401999D01*
X99421040Y-98402001D01*
X99300009Y-98536419D01*
X99300004Y-98536426D01*
X99209564Y-98693074D01*
X99209561Y-98693080D01*
X99153669Y-98865101D01*
X99153668Y-98865103D01*
X99134760Y-99045000D01*
X99153668Y-99224896D01*
X99153669Y-99224898D01*
X99209561Y-99396919D01*
X99209564Y-99396925D01*
X99300004Y-99553573D01*
X99300009Y-99553580D01*
X99375597Y-99637528D01*
X99405827Y-99700519D01*
X99397202Y-99769854D01*
X99352461Y-99823520D01*
X99285808Y-99844478D01*
X99283447Y-99844500D01*
X99248392Y-99844500D01*
X99210298Y-99848251D01*
X99094067Y-99859699D01*
X98896043Y-99919769D01*
X98785898Y-99978643D01*
X98713550Y-100017315D01*
X98713548Y-100017316D01*
X98713547Y-100017317D01*
X98553589Y-100148589D01*
X98425994Y-100304067D01*
X98422315Y-100308550D01*
X98403225Y-100344265D01*
X98324769Y-100491043D01*
X98264699Y-100689067D01*
X98249500Y-100843395D01*
X93376636Y-100843395D01*
X93415300Y-100715934D01*
X93435583Y-100510000D01*
X93415300Y-100304066D01*
X93355232Y-100106046D01*
X93257685Y-99923550D01*
X93175593Y-99823520D01*
X93126410Y-99763589D01*
X93008677Y-99666969D01*
X92966450Y-99632315D01*
X92783954Y-99534768D01*
X92585934Y-99474700D01*
X92585932Y-99474699D01*
X92585934Y-99474699D01*
X92380000Y-99454417D01*
X92174067Y-99474699D01*
X91976043Y-99534769D01*
X91865898Y-99593643D01*
X91793550Y-99632315D01*
X91793548Y-99632316D01*
X91793547Y-99632317D01*
X91633589Y-99763589D01*
X91502317Y-99923547D01*
X91404769Y-100106043D01*
X91344699Y-100304067D01*
X91324417Y-100510000D01*
X90510500Y-100510000D01*
X90510500Y-97970000D01*
X91324417Y-97970000D01*
X91344699Y-98175932D01*
X91366132Y-98246588D01*
X91404768Y-98373954D01*
X91502315Y-98556450D01*
X91502317Y-98556452D01*
X91633589Y-98716410D01*
X91713527Y-98782012D01*
X91793550Y-98847685D01*
X91976046Y-98945232D01*
X92174066Y-99005300D01*
X92174065Y-99005300D01*
X92192529Y-99007118D01*
X92380000Y-99025583D01*
X92585934Y-99005300D01*
X92783954Y-98945232D01*
X92966450Y-98847685D01*
X93126410Y-98716410D01*
X93257685Y-98556450D01*
X93355232Y-98373954D01*
X93415300Y-98175934D01*
X93435583Y-97970000D01*
X93415300Y-97764066D01*
X93355232Y-97566046D01*
X93257685Y-97383550D01*
X93205702Y-97320209D01*
X93126410Y-97223589D01*
X92966452Y-97092317D01*
X92966453Y-97092317D01*
X92966450Y-97092315D01*
X92783954Y-96994768D01*
X92585934Y-96934700D01*
X92585932Y-96934699D01*
X92585934Y-96934699D01*
X92380000Y-96914417D01*
X92174067Y-96934699D01*
X91976043Y-96994769D01*
X91865898Y-97053643D01*
X91793550Y-97092315D01*
X91793548Y-97092316D01*
X91793547Y-97092317D01*
X91633589Y-97223589D01*
X91502317Y-97383547D01*
X91502315Y-97383550D01*
X91471818Y-97440606D01*
X91404769Y-97566043D01*
X91344699Y-97764067D01*
X91324417Y-97970000D01*
X90510500Y-97970000D01*
X90510500Y-95430000D01*
X91324417Y-95430000D01*
X91344699Y-95635932D01*
X91344700Y-95635934D01*
X91404768Y-95833954D01*
X91502315Y-96016450D01*
X91502317Y-96016452D01*
X91633589Y-96176410D01*
X91708922Y-96238233D01*
X91793550Y-96307685D01*
X91976046Y-96405232D01*
X92174066Y-96465300D01*
X92174065Y-96465300D01*
X92192529Y-96467118D01*
X92380000Y-96485583D01*
X92585934Y-96465300D01*
X92783954Y-96405232D01*
X92966450Y-96307685D01*
X93051078Y-96238233D01*
X96900000Y-96238233D01*
X96900000Y-96495000D01*
X97850000Y-96495000D01*
X97850000Y-96995000D01*
X96900001Y-96995000D01*
X96900001Y-97251765D01*
X96914859Y-97421603D01*
X96914859Y-97421607D01*
X96973730Y-97641317D01*
X96973734Y-97641326D01*
X97069865Y-97847482D01*
X97200342Y-98033820D01*
X97361179Y-98194657D01*
X97547517Y-98325134D01*
X97753673Y-98421265D01*
X97753682Y-98421269D01*
X97973396Y-98480141D01*
X97999999Y-98482467D01*
X98000000Y-98482467D01*
X98000000Y-97510686D01*
X98004394Y-97515080D01*
X98095606Y-97567741D01*
X98197339Y-97595000D01*
X98302661Y-97595000D01*
X98404394Y-97567741D01*
X98495606Y-97515080D01*
X98500000Y-97510686D01*
X98500000Y-98482467D01*
X98526603Y-98480141D01*
X98746317Y-98421269D01*
X98746326Y-98421265D01*
X98952482Y-98325134D01*
X99138820Y-98194657D01*
X99299657Y-98033820D01*
X99430134Y-97847482D01*
X99526265Y-97641326D01*
X99526269Y-97641317D01*
X99585139Y-97421610D01*
X99585141Y-97421599D01*
X99599999Y-97251766D01*
X99600000Y-97251764D01*
X99600000Y-96995000D01*
X98650000Y-96995000D01*
X98650000Y-96495000D01*
X99599999Y-96495000D01*
X99599999Y-96238238D01*
X99599998Y-96238234D01*
X99585140Y-96068396D01*
X99585140Y-96068392D01*
X99526269Y-95848682D01*
X99526265Y-95848673D01*
X99467153Y-95721905D01*
X99456661Y-95652827D01*
X99485181Y-95589043D01*
X99543657Y-95550804D01*
X99579535Y-95545500D01*
X100420465Y-95545500D01*
X100487504Y-95565185D01*
X100533259Y-95617989D01*
X100543203Y-95687147D01*
X100532847Y-95721905D01*
X100473734Y-95848673D01*
X100473730Y-95848682D01*
X100414860Y-96068389D01*
X100414858Y-96068400D01*
X100400000Y-96238233D01*
X100400000Y-96495000D01*
X101350000Y-96495000D01*
X101350000Y-96995000D01*
X100400001Y-96995000D01*
X100400001Y-97251765D01*
X100414859Y-97421603D01*
X100414859Y-97421607D01*
X100473730Y-97641317D01*
X100473734Y-97641326D01*
X100569865Y-97847482D01*
X100700342Y-98033820D01*
X100861179Y-98194657D01*
X101047517Y-98325134D01*
X101253673Y-98421265D01*
X101253682Y-98421269D01*
X101473396Y-98480141D01*
X101499999Y-98482467D01*
X101500000Y-98482467D01*
X101500000Y-97510686D01*
X101504394Y-97515080D01*
X101595606Y-97567741D01*
X101697339Y-97595000D01*
X101802661Y-97595000D01*
X101904394Y-97567741D01*
X101995606Y-97515080D01*
X102000000Y-97510686D01*
X102000000Y-98482467D01*
X102026603Y-98480141D01*
X102246317Y-98421269D01*
X102246326Y-98421265D01*
X102452482Y-98325134D01*
X102638820Y-98194657D01*
X102799657Y-98033820D01*
X102844345Y-97970000D01*
X106564417Y-97970000D01*
X106584699Y-98175932D01*
X106606132Y-98246588D01*
X106644768Y-98373954D01*
X106742315Y-98556450D01*
X106742317Y-98556452D01*
X106873589Y-98716410D01*
X106953527Y-98782012D01*
X107033550Y-98847685D01*
X107216046Y-98945232D01*
X107414066Y-99005300D01*
X107414065Y-99005300D01*
X107432529Y-99007118D01*
X107620000Y-99025583D01*
X107825934Y-99005300D01*
X108023954Y-98945232D01*
X108206450Y-98847685D01*
X108366410Y-98716410D01*
X108497685Y-98556450D01*
X108595232Y-98373954D01*
X108655300Y-98175934D01*
X108675583Y-97970000D01*
X108655300Y-97764066D01*
X108595232Y-97566046D01*
X108497685Y-97383550D01*
X108445702Y-97320209D01*
X108366410Y-97223589D01*
X108206452Y-97092317D01*
X108206453Y-97092317D01*
X108206450Y-97092315D01*
X108023954Y-96994768D01*
X107825934Y-96934700D01*
X107825932Y-96934699D01*
X107825934Y-96934699D01*
X107620000Y-96914417D01*
X107414067Y-96934699D01*
X107216043Y-96994769D01*
X107105898Y-97053643D01*
X107033550Y-97092315D01*
X107033548Y-97092316D01*
X107033547Y-97092317D01*
X106873589Y-97223589D01*
X106742317Y-97383547D01*
X106742315Y-97383550D01*
X106711818Y-97440606D01*
X106644769Y-97566043D01*
X106584699Y-97764067D01*
X106564417Y-97970000D01*
X102844345Y-97970000D01*
X102930134Y-97847482D01*
X103026265Y-97641326D01*
X103026269Y-97641317D01*
X103085139Y-97421610D01*
X103085141Y-97421599D01*
X103099999Y-97251766D01*
X103100000Y-97251764D01*
X103100000Y-96995000D01*
X102150000Y-96995000D01*
X102150000Y-96495000D01*
X103099999Y-96495000D01*
X103099999Y-96238238D01*
X103099998Y-96238234D01*
X103085140Y-96068396D01*
X103085140Y-96068392D01*
X103026269Y-95848682D01*
X103026265Y-95848673D01*
X102930134Y-95642517D01*
X102830341Y-95500000D01*
X103394868Y-95500000D01*
X103413303Y-95628225D01*
X103456086Y-95721905D01*
X103467119Y-95746063D01*
X103551952Y-95843967D01*
X103660932Y-95914004D01*
X103689047Y-95922259D01*
X103785226Y-95950499D01*
X103785228Y-95950500D01*
X103785229Y-95950500D01*
X103914774Y-95950500D01*
X103914774Y-95950499D01*
X104039070Y-95914004D01*
X104148050Y-95843967D01*
X104232883Y-95746063D01*
X104286698Y-95628226D01*
X104305134Y-95500000D01*
X104295070Y-95430000D01*
X106564417Y-95430000D01*
X106584699Y-95635932D01*
X106584700Y-95635934D01*
X106644768Y-95833954D01*
X106742315Y-96016450D01*
X106742317Y-96016452D01*
X106873589Y-96176410D01*
X106948922Y-96238233D01*
X107033550Y-96307685D01*
X107216046Y-96405232D01*
X107414066Y-96465300D01*
X107414065Y-96465300D01*
X107432529Y-96467118D01*
X107620000Y-96485583D01*
X107825934Y-96465300D01*
X108023954Y-96405232D01*
X108206450Y-96307685D01*
X108366410Y-96176410D01*
X108497685Y-96016450D01*
X108595232Y-95833954D01*
X108655300Y-95635934D01*
X108675583Y-95430000D01*
X108655300Y-95224066D01*
X108595232Y-95026046D01*
X108497685Y-94843550D01*
X108445702Y-94780209D01*
X108366410Y-94683589D01*
X108206452Y-94552317D01*
X108206453Y-94552317D01*
X108206450Y-94552315D01*
X108023954Y-94454768D01*
X107825934Y-94394700D01*
X107825932Y-94394699D01*
X107825934Y-94394699D01*
X107620000Y-94374417D01*
X107414067Y-94394699D01*
X107216043Y-94454769D01*
X107105898Y-94513643D01*
X107033550Y-94552315D01*
X107033548Y-94552316D01*
X107033547Y-94552317D01*
X106873589Y-94683589D01*
X106742317Y-94843547D01*
X106644769Y-95026043D01*
X106584699Y-95224067D01*
X106564417Y-95430000D01*
X104295070Y-95430000D01*
X104286698Y-95371774D01*
X104232883Y-95253937D01*
X104148050Y-95156033D01*
X104039070Y-95085996D01*
X104039066Y-95085994D01*
X104039065Y-95085994D01*
X103914775Y-95049500D01*
X103914773Y-95049500D01*
X103785229Y-95049500D01*
X103785227Y-95049500D01*
X103660936Y-95085994D01*
X103660933Y-95085995D01*
X103660932Y-95085996D01*
X103609678Y-95118934D01*
X103551951Y-95156033D01*
X103467119Y-95253937D01*
X103467118Y-95253938D01*
X103413303Y-95371774D01*
X103394868Y-95500000D01*
X102830341Y-95500000D01*
X102799657Y-95456179D01*
X102638820Y-95295342D01*
X102452482Y-95164865D01*
X102246326Y-95068734D01*
X102246320Y-95068731D01*
X102026608Y-95009859D01*
X102026601Y-95009858D01*
X102000000Y-95007531D01*
X102000000Y-95979314D01*
X101995606Y-95974920D01*
X101904394Y-95922259D01*
X101802661Y-95895000D01*
X101697339Y-95895000D01*
X101595606Y-95922259D01*
X101504394Y-95974920D01*
X101500000Y-95979314D01*
X101500000Y-95007530D01*
X101473266Y-94983034D01*
X101437137Y-94923231D01*
X101438378Y-94855616D01*
X101485300Y-94700934D01*
X101500500Y-94546608D01*
X101500500Y-94343392D01*
X101485300Y-94189066D01*
X101425232Y-93991046D01*
X101327685Y-93808550D01*
X101275702Y-93745209D01*
X101196410Y-93648589D01*
X101036452Y-93517317D01*
X101036453Y-93517317D01*
X101036450Y-93517315D01*
X100853954Y-93419768D01*
X100655934Y-93359700D01*
X100655932Y-93359699D01*
X100655934Y-93359699D01*
X100536805Y-93347966D01*
X100501608Y-93344500D01*
X99498392Y-93344500D01*
X99460298Y-93348251D01*
X99344067Y-93359699D01*
X99146043Y-93419769D01*
X99040002Y-93476450D01*
X98963550Y-93517315D01*
X98963548Y-93517316D01*
X98963547Y-93517317D01*
X98803589Y-93648589D01*
X98672317Y-93808547D01*
X98574769Y-93991043D01*
X98514699Y-94189067D01*
X98503251Y-94305298D01*
X98499500Y-94343392D01*
X98499500Y-94546608D01*
X98504502Y-94597398D01*
X98514699Y-94700932D01*
X98541982Y-94790872D01*
X98561621Y-94855615D01*
X98561622Y-94855616D01*
X98562245Y-94925483D01*
X98526734Y-94983034D01*
X98500000Y-95007531D01*
X98500000Y-95979314D01*
X98495606Y-95974920D01*
X98404394Y-95922259D01*
X98302661Y-95895000D01*
X98197339Y-95895000D01*
X98095606Y-95922259D01*
X98004394Y-95974920D01*
X98000000Y-95979314D01*
X98000000Y-95007531D01*
X97973398Y-95009858D01*
X97973391Y-95009859D01*
X97753679Y-95068731D01*
X97753673Y-95068734D01*
X97547517Y-95164865D01*
X97361179Y-95295342D01*
X97200342Y-95456179D01*
X97069865Y-95642517D01*
X96973734Y-95848673D01*
X96973730Y-95848682D01*
X96914860Y-96068389D01*
X96914858Y-96068400D01*
X96900000Y-96238233D01*
X93051078Y-96238233D01*
X93126410Y-96176410D01*
X93257685Y-96016450D01*
X93355232Y-95833954D01*
X93415300Y-95635934D01*
X93435583Y-95430000D01*
X93415300Y-95224066D01*
X93355232Y-95026046D01*
X93257685Y-94843550D01*
X93205702Y-94780209D01*
X93126410Y-94683589D01*
X92966452Y-94552317D01*
X92966453Y-94552317D01*
X92966450Y-94552315D01*
X92783954Y-94454768D01*
X92585934Y-94394700D01*
X92585932Y-94394699D01*
X92585934Y-94394699D01*
X92380000Y-94374417D01*
X92174067Y-94394699D01*
X91976043Y-94454769D01*
X91865898Y-94513643D01*
X91793550Y-94552315D01*
X91793548Y-94552316D01*
X91793547Y-94552317D01*
X91633589Y-94683589D01*
X91502317Y-94843547D01*
X91404769Y-95026043D01*
X91344699Y-95224067D01*
X91324417Y-95430000D01*
X90510500Y-95430000D01*
X90510500Y-92890000D01*
X91324417Y-92890000D01*
X91344699Y-93095932D01*
X91344700Y-93095934D01*
X91404768Y-93293954D01*
X91502315Y-93476450D01*
X91502317Y-93476452D01*
X91633589Y-93636410D01*
X91648431Y-93648590D01*
X91793550Y-93767685D01*
X91976046Y-93865232D01*
X92174066Y-93925300D01*
X92174065Y-93925300D01*
X92192529Y-93927118D01*
X92380000Y-93945583D01*
X92585934Y-93925300D01*
X92783954Y-93865232D01*
X92966450Y-93767685D01*
X93126410Y-93636410D01*
X93257685Y-93476450D01*
X93355232Y-93293954D01*
X93415300Y-93095934D01*
X93435583Y-92890000D01*
X106564417Y-92890000D01*
X106584699Y-93095932D01*
X106584700Y-93095934D01*
X106644768Y-93293954D01*
X106742315Y-93476450D01*
X106742317Y-93476452D01*
X106873589Y-93636410D01*
X106888431Y-93648590D01*
X107033550Y-93767685D01*
X107216046Y-93865232D01*
X107414066Y-93925300D01*
X107414065Y-93925300D01*
X107432529Y-93927118D01*
X107620000Y-93945583D01*
X107825934Y-93925300D01*
X108023954Y-93865232D01*
X108206450Y-93767685D01*
X108366410Y-93636410D01*
X108497685Y-93476450D01*
X108595232Y-93293954D01*
X108655300Y-93095934D01*
X108675583Y-92890000D01*
X108655300Y-92684066D01*
X108595232Y-92486046D01*
X108497685Y-92303550D01*
X108445702Y-92240209D01*
X108366410Y-92143589D01*
X108206452Y-92012317D01*
X108206453Y-92012317D01*
X108206450Y-92012315D01*
X108023954Y-91914768D01*
X107825934Y-91854700D01*
X107825932Y-91854699D01*
X107825934Y-91854699D01*
X107620000Y-91834417D01*
X107414067Y-91854699D01*
X107216043Y-91914769D01*
X107105898Y-91973643D01*
X107033550Y-92012315D01*
X107033548Y-92012316D01*
X107033547Y-92012317D01*
X106873589Y-92143589D01*
X106742317Y-92303547D01*
X106644769Y-92486043D01*
X106584699Y-92684067D01*
X106564417Y-92890000D01*
X93435583Y-92890000D01*
X93415300Y-92684066D01*
X93355232Y-92486046D01*
X93257685Y-92303550D01*
X93205702Y-92240209D01*
X93126410Y-92143589D01*
X92966452Y-92012317D01*
X92966453Y-92012317D01*
X92966450Y-92012315D01*
X92783954Y-91914768D01*
X92585934Y-91854700D01*
X92585932Y-91854699D01*
X92585934Y-91854699D01*
X92380000Y-91834417D01*
X92174067Y-91854699D01*
X91976043Y-91914769D01*
X91865898Y-91973643D01*
X91793550Y-92012315D01*
X91793548Y-92012316D01*
X91793547Y-92012317D01*
X91633589Y-92143589D01*
X91502317Y-92303547D01*
X91404769Y-92486043D01*
X91344699Y-92684067D01*
X91324417Y-92890000D01*
X90510500Y-92890000D01*
X90510500Y-90350000D01*
X91324417Y-90350000D01*
X91344699Y-90555932D01*
X91344700Y-90555934D01*
X91404768Y-90753954D01*
X91502315Y-90936450D01*
X91502317Y-90936452D01*
X91633589Y-91096410D01*
X91730209Y-91175702D01*
X91793550Y-91227685D01*
X91976046Y-91325232D01*
X92174066Y-91385300D01*
X92174065Y-91385300D01*
X92192529Y-91387118D01*
X92380000Y-91405583D01*
X92585934Y-91385300D01*
X92783954Y-91325232D01*
X92966450Y-91227685D01*
X93126410Y-91096410D01*
X93257685Y-90936450D01*
X93355232Y-90753954D01*
X93415300Y-90555934D01*
X93435583Y-90350000D01*
X93430658Y-90300000D01*
X103494868Y-90300000D01*
X103513303Y-90428225D01*
X103567118Y-90546061D01*
X103567119Y-90546063D01*
X103651952Y-90643967D01*
X103760932Y-90714004D01*
X103885226Y-90750499D01*
X103885228Y-90750500D01*
X103885229Y-90750500D01*
X104014774Y-90750500D01*
X104014774Y-90750499D01*
X104139070Y-90714004D01*
X104248050Y-90643967D01*
X104332883Y-90546063D01*
X104386698Y-90428226D01*
X104397945Y-90350000D01*
X106564417Y-90350000D01*
X106584699Y-90555932D01*
X106584700Y-90555934D01*
X106644768Y-90753954D01*
X106742315Y-90936450D01*
X106742317Y-90936452D01*
X106873589Y-91096410D01*
X106970209Y-91175702D01*
X107033550Y-91227685D01*
X107216046Y-91325232D01*
X107414066Y-91385300D01*
X107414065Y-91385300D01*
X107432529Y-91387118D01*
X107620000Y-91405583D01*
X107825934Y-91385300D01*
X108023954Y-91325232D01*
X108206450Y-91227685D01*
X108366410Y-91096410D01*
X108497685Y-90936450D01*
X108595232Y-90753954D01*
X108655300Y-90555934D01*
X108675583Y-90350000D01*
X108655300Y-90144066D01*
X108595232Y-89946046D01*
X108497685Y-89763550D01*
X108445702Y-89700209D01*
X108366410Y-89603589D01*
X108206452Y-89472317D01*
X108206453Y-89472317D01*
X108206450Y-89472315D01*
X108023954Y-89374768D01*
X107825934Y-89314700D01*
X107825932Y-89314699D01*
X107825934Y-89314699D01*
X107620000Y-89294417D01*
X107414067Y-89314699D01*
X107216043Y-89374769D01*
X107105898Y-89433643D01*
X107033550Y-89472315D01*
X107033548Y-89472316D01*
X107033547Y-89472317D01*
X106873589Y-89603589D01*
X106742317Y-89763547D01*
X106644769Y-89946043D01*
X106584699Y-90144067D01*
X106564417Y-90350000D01*
X104397945Y-90350000D01*
X104405134Y-90300000D01*
X104386698Y-90171774D01*
X104332883Y-90053937D01*
X104248050Y-89956033D01*
X104139070Y-89885996D01*
X104139066Y-89885994D01*
X104139065Y-89885994D01*
X104014775Y-89849500D01*
X104014773Y-89849500D01*
X103885229Y-89849500D01*
X103885227Y-89849500D01*
X103760936Y-89885994D01*
X103760933Y-89885995D01*
X103760932Y-89885996D01*
X103709678Y-89918934D01*
X103651951Y-89956033D01*
X103567119Y-90053937D01*
X103567118Y-90053938D01*
X103513303Y-90171774D01*
X103494868Y-90300000D01*
X93430658Y-90300000D01*
X93415300Y-90144066D01*
X93355232Y-89946046D01*
X93257685Y-89763550D01*
X93205702Y-89700209D01*
X93126410Y-89603589D01*
X92966452Y-89472317D01*
X92966453Y-89472317D01*
X92966450Y-89472315D01*
X92783954Y-89374768D01*
X92585934Y-89314700D01*
X92585932Y-89314699D01*
X92585934Y-89314699D01*
X92380000Y-89294417D01*
X92174067Y-89314699D01*
X91976043Y-89374769D01*
X91865898Y-89433643D01*
X91793550Y-89472315D01*
X91793548Y-89472316D01*
X91793547Y-89472317D01*
X91633589Y-89603589D01*
X91502317Y-89763547D01*
X91404769Y-89946043D01*
X91344699Y-90144067D01*
X91324417Y-90350000D01*
X90510500Y-90350000D01*
X90510500Y-87810000D01*
X91324417Y-87810000D01*
X91344699Y-88015932D01*
X91344700Y-88015934D01*
X91404768Y-88213954D01*
X91502315Y-88396450D01*
X91502317Y-88396452D01*
X91633589Y-88556410D01*
X91730209Y-88635702D01*
X91793550Y-88687685D01*
X91976046Y-88785232D01*
X92174066Y-88845300D01*
X92174065Y-88845300D01*
X92192529Y-88847118D01*
X92380000Y-88865583D01*
X92585934Y-88845300D01*
X92783954Y-88785232D01*
X92966450Y-88687685D01*
X93126410Y-88556410D01*
X93257685Y-88396450D01*
X93355232Y-88213954D01*
X93415300Y-88015934D01*
X93435583Y-87810000D01*
X106564417Y-87810000D01*
X106584699Y-88015932D01*
X106584700Y-88015934D01*
X106644768Y-88213954D01*
X106742315Y-88396450D01*
X106742317Y-88396452D01*
X106873589Y-88556410D01*
X106970209Y-88635702D01*
X107033550Y-88687685D01*
X107216046Y-88785232D01*
X107414066Y-88845300D01*
X107414065Y-88845300D01*
X107432529Y-88847118D01*
X107620000Y-88865583D01*
X107825934Y-88845300D01*
X108023954Y-88785232D01*
X108206450Y-88687685D01*
X108366410Y-88556410D01*
X108497685Y-88396450D01*
X108595232Y-88213954D01*
X108655300Y-88015934D01*
X108675583Y-87810000D01*
X108655300Y-87604066D01*
X108595232Y-87406046D01*
X108497685Y-87223550D01*
X108445702Y-87160209D01*
X108366410Y-87063589D01*
X108206452Y-86932317D01*
X108206453Y-86932317D01*
X108206450Y-86932315D01*
X108023954Y-86834768D01*
X107825934Y-86774700D01*
X107825932Y-86774699D01*
X107825934Y-86774699D01*
X107620000Y-86754417D01*
X107414067Y-86774699D01*
X107216043Y-86834769D01*
X107105898Y-86893643D01*
X107033550Y-86932315D01*
X107033548Y-86932316D01*
X107033547Y-86932317D01*
X106873589Y-87063589D01*
X106742317Y-87223547D01*
X106644769Y-87406043D01*
X106584699Y-87604067D01*
X106564417Y-87810000D01*
X93435583Y-87810000D01*
X93415300Y-87604066D01*
X93355232Y-87406046D01*
X93257685Y-87223550D01*
X93205702Y-87160209D01*
X93126410Y-87063589D01*
X92966452Y-86932317D01*
X92966453Y-86932317D01*
X92966450Y-86932315D01*
X92783954Y-86834768D01*
X92585934Y-86774700D01*
X92585932Y-86774699D01*
X92585934Y-86774699D01*
X92380000Y-86754417D01*
X92174067Y-86774699D01*
X91976043Y-86834769D01*
X91865898Y-86893643D01*
X91793550Y-86932315D01*
X91793548Y-86932316D01*
X91793547Y-86932317D01*
X91633589Y-87063589D01*
X91502317Y-87223547D01*
X91404769Y-87406043D01*
X91344699Y-87604067D01*
X91324417Y-87810000D01*
X90510500Y-87810000D01*
X90510500Y-85270000D01*
X91324417Y-85270000D01*
X91344699Y-85475932D01*
X91344700Y-85475934D01*
X91404768Y-85673954D01*
X91502315Y-85856450D01*
X91502317Y-85856452D01*
X91633589Y-86016410D01*
X91730209Y-86095702D01*
X91793550Y-86147685D01*
X91976046Y-86245232D01*
X92174066Y-86305300D01*
X92174065Y-86305300D01*
X92192529Y-86307118D01*
X92380000Y-86325583D01*
X92585934Y-86305300D01*
X92783954Y-86245232D01*
X92966450Y-86147685D01*
X93126410Y-86016410D01*
X93257685Y-85856450D01*
X93355232Y-85673954D01*
X93415300Y-85475934D01*
X93435583Y-85270000D01*
X106564417Y-85270000D01*
X106584699Y-85475932D01*
X106584700Y-85475934D01*
X106644768Y-85673954D01*
X106742315Y-85856450D01*
X106742317Y-85856452D01*
X106873589Y-86016410D01*
X106970209Y-86095702D01*
X107033550Y-86147685D01*
X107216046Y-86245232D01*
X107414066Y-86305300D01*
X107414065Y-86305300D01*
X107432529Y-86307118D01*
X107620000Y-86325583D01*
X107825934Y-86305300D01*
X108023954Y-86245232D01*
X108206450Y-86147685D01*
X108366410Y-86016410D01*
X108497685Y-85856450D01*
X108595232Y-85673954D01*
X108655300Y-85475934D01*
X108675583Y-85270000D01*
X108655300Y-85064066D01*
X108595232Y-84866046D01*
X108497685Y-84683550D01*
X108445702Y-84620209D01*
X108366410Y-84523589D01*
X108206452Y-84392317D01*
X108206453Y-84392317D01*
X108206450Y-84392315D01*
X108023954Y-84294768D01*
X107825934Y-84234700D01*
X107825932Y-84234699D01*
X107825934Y-84234699D01*
X107620000Y-84214417D01*
X107414067Y-84234699D01*
X107216043Y-84294769D01*
X107105898Y-84353643D01*
X107033550Y-84392315D01*
X107033548Y-84392316D01*
X107033547Y-84392317D01*
X106873589Y-84523589D01*
X106742317Y-84683547D01*
X106644769Y-84866043D01*
X106584699Y-85064067D01*
X106564417Y-85270000D01*
X93435583Y-85270000D01*
X93415300Y-85064066D01*
X93355232Y-84866046D01*
X93257685Y-84683550D01*
X93205702Y-84620209D01*
X93126410Y-84523589D01*
X92966452Y-84392317D01*
X92966453Y-84392317D01*
X92966450Y-84392315D01*
X92783954Y-84294768D01*
X92585934Y-84234700D01*
X92585932Y-84234699D01*
X92585934Y-84234699D01*
X92380000Y-84214417D01*
X92174067Y-84234699D01*
X91976043Y-84294769D01*
X91865898Y-84353643D01*
X91793550Y-84392315D01*
X91793548Y-84392316D01*
X91793547Y-84392317D01*
X91633589Y-84523589D01*
X91502317Y-84683547D01*
X91404769Y-84866043D01*
X91344699Y-85064067D01*
X91324417Y-85270000D01*
X90510500Y-85270000D01*
X90510500Y-82730000D01*
X91324417Y-82730000D01*
X91344699Y-82935932D01*
X91344700Y-82935934D01*
X91404768Y-83133954D01*
X91502315Y-83316450D01*
X91502317Y-83316452D01*
X91633589Y-83476410D01*
X91730209Y-83555702D01*
X91793550Y-83607685D01*
X91976046Y-83705232D01*
X92174066Y-83765300D01*
X92174065Y-83765300D01*
X92192529Y-83767118D01*
X92380000Y-83785583D01*
X92585934Y-83765300D01*
X92783954Y-83705232D01*
X92966450Y-83607685D01*
X93126410Y-83476410D01*
X93257685Y-83316450D01*
X93355232Y-83133954D01*
X93415300Y-82935934D01*
X93435583Y-82730000D01*
X106564417Y-82730000D01*
X106584699Y-82935932D01*
X106584700Y-82935934D01*
X106644768Y-83133954D01*
X106742315Y-83316450D01*
X106742317Y-83316452D01*
X106873589Y-83476410D01*
X106970209Y-83555702D01*
X107033550Y-83607685D01*
X107216046Y-83705232D01*
X107414066Y-83765300D01*
X107414065Y-83765300D01*
X107432529Y-83767118D01*
X107620000Y-83785583D01*
X107825934Y-83765300D01*
X108023954Y-83705232D01*
X108206450Y-83607685D01*
X108366410Y-83476410D01*
X108497685Y-83316450D01*
X108595232Y-83133954D01*
X108655300Y-82935934D01*
X108675583Y-82730000D01*
X108655300Y-82524066D01*
X108595232Y-82326046D01*
X108497685Y-82143550D01*
X108445702Y-82080209D01*
X108366410Y-81983589D01*
X108206452Y-81852317D01*
X108206453Y-81852317D01*
X108206450Y-81852315D01*
X108023954Y-81754768D01*
X107825934Y-81694700D01*
X107825932Y-81694699D01*
X107825934Y-81694699D01*
X107620000Y-81674417D01*
X107414067Y-81694699D01*
X107216043Y-81754769D01*
X107105898Y-81813643D01*
X107033550Y-81852315D01*
X107033548Y-81852316D01*
X107033547Y-81852317D01*
X106873589Y-81983589D01*
X106742317Y-82143547D01*
X106644769Y-82326043D01*
X106584699Y-82524067D01*
X106564417Y-82730000D01*
X93435583Y-82730000D01*
X93415300Y-82524066D01*
X93355232Y-82326046D01*
X93257685Y-82143550D01*
X93205702Y-82080209D01*
X93126410Y-81983589D01*
X92966452Y-81852317D01*
X92966453Y-81852317D01*
X92966450Y-81852315D01*
X92783954Y-81754768D01*
X92585934Y-81694700D01*
X92585932Y-81694699D01*
X92585934Y-81694699D01*
X92380000Y-81674417D01*
X92174067Y-81694699D01*
X91976043Y-81754769D01*
X91865898Y-81813643D01*
X91793550Y-81852315D01*
X91793548Y-81852316D01*
X91793547Y-81852317D01*
X91633589Y-81983589D01*
X91502317Y-82143547D01*
X91404769Y-82326043D01*
X91344699Y-82524067D01*
X91324417Y-82730000D01*
X90510500Y-82730000D01*
X90510500Y-80190000D01*
X91324417Y-80190000D01*
X91344699Y-80395932D01*
X91344700Y-80395934D01*
X91404768Y-80593954D01*
X91502315Y-80776450D01*
X91502317Y-80776452D01*
X91633589Y-80936410D01*
X91730209Y-81015702D01*
X91793550Y-81067685D01*
X91976046Y-81165232D01*
X92174066Y-81225300D01*
X92174065Y-81225300D01*
X92192529Y-81227118D01*
X92380000Y-81245583D01*
X92585934Y-81225300D01*
X92783954Y-81165232D01*
X92966450Y-81067685D01*
X93126410Y-80936410D01*
X93257685Y-80776450D01*
X93355232Y-80593954D01*
X93415300Y-80395934D01*
X93435583Y-80190000D01*
X106564417Y-80190000D01*
X106584699Y-80395932D01*
X106584700Y-80395934D01*
X106644768Y-80593954D01*
X106742315Y-80776450D01*
X106742317Y-80776452D01*
X106873589Y-80936410D01*
X106970209Y-81015702D01*
X107033550Y-81067685D01*
X107216046Y-81165232D01*
X107414066Y-81225300D01*
X107414065Y-81225300D01*
X107432529Y-81227118D01*
X107620000Y-81245583D01*
X107825934Y-81225300D01*
X108023954Y-81165232D01*
X108206450Y-81067685D01*
X108366410Y-80936410D01*
X108497685Y-80776450D01*
X108595232Y-80593954D01*
X108655300Y-80395934D01*
X108675583Y-80190000D01*
X108655300Y-79984066D01*
X108595232Y-79786046D01*
X108497685Y-79603550D01*
X108445702Y-79540209D01*
X108366410Y-79443589D01*
X108206452Y-79312317D01*
X108206453Y-79312317D01*
X108206450Y-79312315D01*
X108023954Y-79214768D01*
X107825934Y-79154700D01*
X107825932Y-79154699D01*
X107825934Y-79154699D01*
X107620000Y-79134417D01*
X107414067Y-79154699D01*
X107216043Y-79214769D01*
X107105898Y-79273643D01*
X107033550Y-79312315D01*
X107033548Y-79312316D01*
X107033547Y-79312317D01*
X106873589Y-79443589D01*
X106742317Y-79603547D01*
X106644769Y-79786043D01*
X106584699Y-79984067D01*
X106564417Y-80190000D01*
X93435583Y-80190000D01*
X93415300Y-79984066D01*
X93355232Y-79786046D01*
X93257685Y-79603550D01*
X93205702Y-79540209D01*
X93126410Y-79443589D01*
X92966452Y-79312317D01*
X92966453Y-79312317D01*
X92966450Y-79312315D01*
X92783954Y-79214768D01*
X92585934Y-79154700D01*
X92585932Y-79154699D01*
X92585934Y-79154699D01*
X92380000Y-79134417D01*
X92174067Y-79154699D01*
X91976043Y-79214769D01*
X91865898Y-79273643D01*
X91793550Y-79312315D01*
X91793548Y-79312316D01*
X91793547Y-79312317D01*
X91633589Y-79443589D01*
X91502317Y-79603547D01*
X91404769Y-79786043D01*
X91344699Y-79984067D01*
X91324417Y-80190000D01*
X90510500Y-80190000D01*
X90510500Y-77650000D01*
X91324417Y-77650000D01*
X91344699Y-77855932D01*
X91344700Y-77855934D01*
X91404768Y-78053954D01*
X91502315Y-78236450D01*
X91502317Y-78236452D01*
X91633589Y-78396410D01*
X91730209Y-78475702D01*
X91793550Y-78527685D01*
X91976046Y-78625232D01*
X92174066Y-78685300D01*
X92174065Y-78685300D01*
X92192529Y-78687118D01*
X92380000Y-78705583D01*
X92585934Y-78685300D01*
X92783954Y-78625232D01*
X92966450Y-78527685D01*
X93126410Y-78396410D01*
X93257685Y-78236450D01*
X93355232Y-78053954D01*
X93415300Y-77855934D01*
X93435583Y-77650000D01*
X106564417Y-77650000D01*
X106584699Y-77855932D01*
X106584700Y-77855934D01*
X106644768Y-78053954D01*
X106742315Y-78236450D01*
X106742317Y-78236452D01*
X106873589Y-78396410D01*
X106970209Y-78475702D01*
X107033550Y-78527685D01*
X107216046Y-78625232D01*
X107414066Y-78685300D01*
X107414065Y-78685300D01*
X107432529Y-78687118D01*
X107620000Y-78705583D01*
X107825934Y-78685300D01*
X108023954Y-78625232D01*
X108206450Y-78527685D01*
X108366410Y-78396410D01*
X108497685Y-78236450D01*
X108595232Y-78053954D01*
X108655300Y-77855934D01*
X108675583Y-77650000D01*
X108655300Y-77444066D01*
X108595232Y-77246046D01*
X108497685Y-77063550D01*
X108445531Y-77000000D01*
X108366410Y-76903589D01*
X108206452Y-76772317D01*
X108206453Y-76772317D01*
X108206450Y-76772315D01*
X108023954Y-76674768D01*
X107825934Y-76614700D01*
X107825932Y-76614699D01*
X107825934Y-76614699D01*
X107620000Y-76594417D01*
X107414067Y-76614699D01*
X107216043Y-76674769D01*
X107105898Y-76733643D01*
X107033550Y-76772315D01*
X107033548Y-76772316D01*
X107033547Y-76772317D01*
X106873589Y-76903589D01*
X106742317Y-77063547D01*
X106644769Y-77246043D01*
X106644768Y-77246045D01*
X106644768Y-77246046D01*
X106644763Y-77246062D01*
X106584699Y-77444067D01*
X106564417Y-77650000D01*
X93435583Y-77650000D01*
X93415300Y-77444066D01*
X93355232Y-77246046D01*
X93257685Y-77063550D01*
X93205531Y-77000000D01*
X104844867Y-77000000D01*
X104863302Y-77128225D01*
X104917109Y-77246043D01*
X104917118Y-77246063D01*
X105001951Y-77343967D01*
X105110931Y-77414004D01*
X105213319Y-77444067D01*
X105235225Y-77450499D01*
X105235227Y-77450500D01*
X105235228Y-77450500D01*
X105364773Y-77450500D01*
X105364773Y-77450499D01*
X105489069Y-77414004D01*
X105598049Y-77343967D01*
X105682882Y-77246063D01*
X105736697Y-77128226D01*
X105755133Y-77000000D01*
X105736697Y-76871774D01*
X105682882Y-76753937D01*
X105598049Y-76656033D01*
X105489069Y-76585996D01*
X105489065Y-76585994D01*
X105489064Y-76585994D01*
X105364774Y-76549500D01*
X105364772Y-76549500D01*
X105235228Y-76549500D01*
X105235226Y-76549500D01*
X105110935Y-76585994D01*
X105110932Y-76585995D01*
X105110931Y-76585996D01*
X105097828Y-76594417D01*
X105001950Y-76656033D01*
X104917118Y-76753937D01*
X104917117Y-76753938D01*
X104863302Y-76871774D01*
X104844867Y-77000000D01*
X93205531Y-77000000D01*
X93126410Y-76903589D01*
X92966452Y-76772317D01*
X92966453Y-76772317D01*
X92966450Y-76772315D01*
X92783954Y-76674768D01*
X92585934Y-76614700D01*
X92585932Y-76614699D01*
X92585934Y-76614699D01*
X92380000Y-76594417D01*
X92174067Y-76614699D01*
X91976043Y-76674769D01*
X91865898Y-76733643D01*
X91793550Y-76772315D01*
X91793548Y-76772316D01*
X91793547Y-76772317D01*
X91633589Y-76903589D01*
X91502317Y-77063547D01*
X91404769Y-77246043D01*
X91404768Y-77246045D01*
X91404768Y-77246046D01*
X91404763Y-77246062D01*
X91344699Y-77444067D01*
X91324417Y-77650000D01*
X90510500Y-77650000D01*
X90510500Y-75110000D01*
X91324417Y-75110000D01*
X91344699Y-75315932D01*
X91344700Y-75315934D01*
X91404768Y-75513954D01*
X91502315Y-75696450D01*
X91502317Y-75696452D01*
X91633589Y-75856410D01*
X91730209Y-75935702D01*
X91793550Y-75987685D01*
X91976046Y-76085232D01*
X92174066Y-76145300D01*
X92174065Y-76145300D01*
X92192529Y-76147118D01*
X92380000Y-76165583D01*
X92585934Y-76145300D01*
X92735270Y-76100000D01*
X96244867Y-76100000D01*
X96263302Y-76228225D01*
X96317117Y-76346061D01*
X96317118Y-76346063D01*
X96401951Y-76443967D01*
X96510931Y-76514004D01*
X96635225Y-76550499D01*
X96635227Y-76550500D01*
X96635228Y-76550500D01*
X96764773Y-76550500D01*
X96764773Y-76550499D01*
X96889069Y-76514004D01*
X96998049Y-76443967D01*
X97082882Y-76346063D01*
X97136697Y-76228226D01*
X97155133Y-76100000D01*
X97136697Y-75971774D01*
X97082882Y-75853937D01*
X96998049Y-75756033D01*
X96889069Y-75685996D01*
X96889065Y-75685994D01*
X96889064Y-75685994D01*
X96764774Y-75649500D01*
X96764772Y-75649500D01*
X96635228Y-75649500D01*
X96635226Y-75649500D01*
X96510935Y-75685994D01*
X96510932Y-75685995D01*
X96510931Y-75685996D01*
X96459677Y-75718934D01*
X96401950Y-75756033D01*
X96317118Y-75853937D01*
X96317117Y-75853938D01*
X96263302Y-75971774D01*
X96244867Y-76100000D01*
X92735270Y-76100000D01*
X92783954Y-76085232D01*
X92966450Y-75987685D01*
X93126410Y-75856410D01*
X93257685Y-75696450D01*
X93355232Y-75513954D01*
X93415300Y-75315934D01*
X93435583Y-75110000D01*
X106564417Y-75110000D01*
X106584699Y-75315932D01*
X106584700Y-75315934D01*
X106644768Y-75513954D01*
X106742315Y-75696450D01*
X106742317Y-75696452D01*
X106873589Y-75856410D01*
X106970209Y-75935702D01*
X107033550Y-75987685D01*
X107216046Y-76085232D01*
X107414066Y-76145300D01*
X107414065Y-76145300D01*
X107432529Y-76147118D01*
X107620000Y-76165583D01*
X107825934Y-76145300D01*
X108023954Y-76085232D01*
X108206450Y-75987685D01*
X108366410Y-75856410D01*
X108497685Y-75696450D01*
X108595232Y-75513954D01*
X108655300Y-75315934D01*
X108675583Y-75110000D01*
X108655300Y-74904066D01*
X108595232Y-74706046D01*
X108497685Y-74523550D01*
X108445702Y-74460209D01*
X108366410Y-74363589D01*
X108232798Y-74253938D01*
X108206450Y-74232315D01*
X108023954Y-74134768D01*
X107825934Y-74074700D01*
X107825932Y-74074699D01*
X107825934Y-74074699D01*
X107620000Y-74054417D01*
X107414067Y-74074699D01*
X107216043Y-74134769D01*
X107176262Y-74156033D01*
X107033550Y-74232315D01*
X107033548Y-74232316D01*
X107033547Y-74232317D01*
X106873589Y-74363589D01*
X106742317Y-74523547D01*
X106644769Y-74706043D01*
X106584699Y-74904067D01*
X106564417Y-75110000D01*
X93435583Y-75110000D01*
X93415300Y-74904066D01*
X93355232Y-74706046D01*
X93257685Y-74523550D01*
X93238358Y-74500000D01*
X97244867Y-74500000D01*
X97263302Y-74628225D01*
X97317117Y-74746061D01*
X97317118Y-74746063D01*
X97401951Y-74843967D01*
X97510931Y-74914004D01*
X97635225Y-74950499D01*
X97635227Y-74950500D01*
X97635228Y-74950500D01*
X97764773Y-74950500D01*
X97764773Y-74950499D01*
X97889069Y-74914004D01*
X97998049Y-74843967D01*
X98082882Y-74746063D01*
X98136697Y-74628226D01*
X98155133Y-74500000D01*
X98136697Y-74371774D01*
X98082882Y-74253937D01*
X97998049Y-74156033D01*
X97889069Y-74085996D01*
X97889065Y-74085994D01*
X97889064Y-74085994D01*
X97764774Y-74049500D01*
X97764772Y-74049500D01*
X97635228Y-74049500D01*
X97635226Y-74049500D01*
X97510935Y-74085994D01*
X97510932Y-74085995D01*
X97510931Y-74085996D01*
X97459677Y-74118934D01*
X97401950Y-74156033D01*
X97317118Y-74253937D01*
X97317117Y-74253938D01*
X97263302Y-74371774D01*
X97244867Y-74500000D01*
X93238358Y-74500000D01*
X93205702Y-74460209D01*
X93126410Y-74363589D01*
X92992798Y-74253938D01*
X92966450Y-74232315D01*
X92783954Y-74134768D01*
X92585934Y-74074700D01*
X92585932Y-74074699D01*
X92585934Y-74074699D01*
X92380000Y-74054417D01*
X92174067Y-74074699D01*
X91976043Y-74134769D01*
X91936262Y-74156033D01*
X91793550Y-74232315D01*
X91793548Y-74232316D01*
X91793547Y-74232317D01*
X91633589Y-74363589D01*
X91502317Y-74523547D01*
X91404769Y-74706043D01*
X91344699Y-74904067D01*
X91324417Y-75110000D01*
X90510500Y-75110000D01*
X90510500Y-72570000D01*
X91324417Y-72570000D01*
X91344699Y-72775932D01*
X91367319Y-72850499D01*
X91404768Y-72973954D01*
X91502315Y-73156450D01*
X91502317Y-73156452D01*
X91633589Y-73316410D01*
X91730209Y-73395702D01*
X91793550Y-73447685D01*
X91976046Y-73545232D01*
X92174066Y-73605300D01*
X92174065Y-73605300D01*
X92192529Y-73607118D01*
X92380000Y-73625583D01*
X92585934Y-73605300D01*
X92783954Y-73545232D01*
X92966450Y-73447685D01*
X93126410Y-73316410D01*
X93257685Y-73156450D01*
X93355232Y-72973954D01*
X93415300Y-72775934D01*
X93435583Y-72570000D01*
X93418839Y-72400000D01*
X103444867Y-72400000D01*
X103463302Y-72528225D01*
X103517117Y-72646061D01*
X103517118Y-72646063D01*
X103601951Y-72743967D01*
X103710931Y-72814004D01*
X103835225Y-72850499D01*
X103835227Y-72850500D01*
X103835228Y-72850500D01*
X103964773Y-72850500D01*
X103964773Y-72850499D01*
X104089069Y-72814004D01*
X104198049Y-72743967D01*
X104282882Y-72646063D01*
X104336697Y-72528226D01*
X104355133Y-72400000D01*
X104336697Y-72271774D01*
X104282882Y-72153937D01*
X104198049Y-72056033D01*
X104089069Y-71985996D01*
X104089065Y-71985994D01*
X104089064Y-71985994D01*
X103964774Y-71949500D01*
X103964772Y-71949500D01*
X103835228Y-71949500D01*
X103835226Y-71949500D01*
X103710935Y-71985994D01*
X103710932Y-71985995D01*
X103710931Y-71985996D01*
X103659677Y-72018934D01*
X103601950Y-72056033D01*
X103517118Y-72153937D01*
X103517117Y-72153938D01*
X103463302Y-72271774D01*
X103444867Y-72400000D01*
X93418839Y-72400000D01*
X93415300Y-72364066D01*
X93355232Y-72166046D01*
X93257685Y-71983550D01*
X93205702Y-71920209D01*
X93126410Y-71823589D01*
X92966452Y-71692317D01*
X92966453Y-71692317D01*
X92966450Y-71692315D01*
X92783954Y-71594768D01*
X92585934Y-71534700D01*
X92585932Y-71534699D01*
X92585934Y-71534699D01*
X92380000Y-71514417D01*
X92174067Y-71534699D01*
X91976043Y-71594769D01*
X91865898Y-71653643D01*
X91793550Y-71692315D01*
X91793548Y-71692316D01*
X91793547Y-71692317D01*
X91633589Y-71823589D01*
X91502317Y-71983547D01*
X91404769Y-72166043D01*
X91344699Y-72364067D01*
X91324417Y-72570000D01*
X90510500Y-72570000D01*
X90510500Y-67005412D01*
X90510972Y-66994605D01*
X90518938Y-66903550D01*
X90524587Y-66838978D01*
X90528338Y-66817704D01*
X90567367Y-66672044D01*
X90574759Y-66651738D01*
X90583015Y-66634033D01*
X90638483Y-66515081D01*
X90649289Y-66496366D01*
X90735779Y-66372845D01*
X90749667Y-66356293D01*
X90856293Y-66249667D01*
X90872845Y-66235779D01*
X90996366Y-66149289D01*
X91015081Y-66138483D01*
X91151740Y-66074758D01*
X91172044Y-66067367D01*
X91317704Y-66028338D01*
X91338978Y-66024587D01*
X91494605Y-66010971D01*
X91505412Y-66010500D01*
X91936879Y-66010500D01*
X92003918Y-66030185D01*
G37*
%TD.AperFunction*%
%TD*%
M02*
