%TF.GenerationSoftware,KiCad,Pcbnew,9.0.6-9.0.6~ubuntu24.04.1*%
%TF.CreationDate,2026-01-03T16:27:35+00:00*%
%TF.ProjectId,VIB_STSPIN240,5649425f-5354-4535-9049-4e3234302e6b,1.0*%
%TF.SameCoordinates,Original*%
%TF.FileFunction,Legend,Bot*%
%TF.FilePolarity,Positive*%
%FSLAX46Y46*%
G04 Gerber Fmt 4.6, Leading zero omitted, Abs format (unit mm)*
G04 Created by KiCad (PCBNEW 9.0.6-9.0.6~ubuntu24.04.1) date 2026-01-03 16:27:35*
%MOMM*%
%LPD*%
G01*
G04 APERTURE LIST*
G04 Aperture macros list*
%AMRoundRect*
0 Rectangle with rounded corners*
0 $1 Rounding radius*
0 $2 $3 $4 $5 $6 $7 $8 $9 X,Y pos of 4 corners*
0 Add a 4 corners polygon primitive as box body*
4,1,4,$2,$3,$4,$5,$6,$7,$8,$9,$2,$3,0*
0 Add four circle primitives for the rounded corners*
1,1,$1+$1,$2,$3*
1,1,$1+$1,$4,$5*
1,1,$1+$1,$6,$7*
1,1,$1+$1,$8,$9*
0 Add four rect primitives between the rounded corners*
20,1,$1+$1,$2,$3,$4,$5,0*
20,1,$1+$1,$4,$5,$6,$7,0*
20,1,$1+$1,$6,$7,$8,$9,0*
20,1,$1+$1,$8,$9,$2,$3,0*%
G04 Aperture macros list end*
%ADD10C,0.150000*%
%ADD11C,0.120000*%
%ADD12C,0.250000*%
%ADD13R,1.000000X1.000000*%
%ADD14RoundRect,0.250000X-0.312500X-0.625000X0.312500X-0.625000X0.312500X0.625000X-0.312500X0.625000X0*%
%ADD15R,1.800000X4.200000*%
%ADD16RoundRect,0.225000X-0.250000X0.225000X-0.250000X-0.225000X0.250000X-0.225000X0.250000X0.225000X0*%
G04 APERTURE END LIST*
D10*
X37042857Y-39454819D02*
X37042857Y-38454819D01*
X37042857Y-38835771D02*
X36947619Y-38788152D01*
X36947619Y-38788152D02*
X36757143Y-38788152D01*
X36757143Y-38788152D02*
X36661905Y-38835771D01*
X36661905Y-38835771D02*
X36614286Y-38883390D01*
X36614286Y-38883390D02*
X36566667Y-38978628D01*
X36566667Y-38978628D02*
X36566667Y-39264342D01*
X36566667Y-39264342D02*
X36614286Y-39359580D01*
X36614286Y-39359580D02*
X36661905Y-39407200D01*
X36661905Y-39407200D02*
X36757143Y-39454819D01*
X36757143Y-39454819D02*
X36947619Y-39454819D01*
X36947619Y-39454819D02*
X37042857Y-39407200D01*
X36233333Y-38788152D02*
X35995238Y-39454819D01*
X35757143Y-38788152D02*
X35995238Y-39454819D01*
X35995238Y-39454819D02*
X36090476Y-39692914D01*
X36090476Y-39692914D02*
X36138095Y-39740533D01*
X36138095Y-39740533D02*
X36233333Y-39788152D01*
X34661904Y-39169104D02*
X34185714Y-39169104D01*
X34757142Y-39454819D02*
X34423809Y-38454819D01*
X34423809Y-38454819D02*
X34090476Y-39454819D01*
X33757142Y-39454819D02*
X33757142Y-38788152D01*
X33757142Y-38454819D02*
X33804761Y-38502438D01*
X33804761Y-38502438D02*
X33757142Y-38550057D01*
X33757142Y-38550057D02*
X33709523Y-38502438D01*
X33709523Y-38502438D02*
X33757142Y-38454819D01*
X33757142Y-38454819D02*
X33757142Y-38550057D01*
X32852381Y-38788152D02*
X32852381Y-39597676D01*
X32852381Y-39597676D02*
X32900000Y-39692914D01*
X32900000Y-39692914D02*
X32947619Y-39740533D01*
X32947619Y-39740533D02*
X33042857Y-39788152D01*
X33042857Y-39788152D02*
X33185714Y-39788152D01*
X33185714Y-39788152D02*
X33280952Y-39740533D01*
X32852381Y-39407200D02*
X32947619Y-39454819D01*
X32947619Y-39454819D02*
X33138095Y-39454819D01*
X33138095Y-39454819D02*
X33233333Y-39407200D01*
X33233333Y-39407200D02*
X33280952Y-39359580D01*
X33280952Y-39359580D02*
X33328571Y-39264342D01*
X33328571Y-39264342D02*
X33328571Y-38978628D01*
X33328571Y-38978628D02*
X33280952Y-38883390D01*
X33280952Y-38883390D02*
X33233333Y-38835771D01*
X33233333Y-38835771D02*
X33138095Y-38788152D01*
X33138095Y-38788152D02*
X32947619Y-38788152D01*
X32947619Y-38788152D02*
X32852381Y-38835771D01*
X32376190Y-39454819D02*
X32376190Y-38454819D01*
X31947619Y-39454819D02*
X31947619Y-38931009D01*
X31947619Y-38931009D02*
X31995238Y-38835771D01*
X31995238Y-38835771D02*
X32090476Y-38788152D01*
X32090476Y-38788152D02*
X32233333Y-38788152D01*
X32233333Y-38788152D02*
X32328571Y-38835771D01*
X32328571Y-38835771D02*
X32376190Y-38883390D01*
X31614285Y-38788152D02*
X31233333Y-38788152D01*
X31471428Y-38454819D02*
X31471428Y-39311961D01*
X31471428Y-39311961D02*
X31423809Y-39407200D01*
X31423809Y-39407200D02*
X31328571Y-39454819D01*
X31328571Y-39454819D02*
X31233333Y-39454819D01*
X30519047Y-39407200D02*
X30614285Y-39454819D01*
X30614285Y-39454819D02*
X30804761Y-39454819D01*
X30804761Y-39454819D02*
X30899999Y-39407200D01*
X30899999Y-39407200D02*
X30947618Y-39311961D01*
X30947618Y-39311961D02*
X30947618Y-38931009D01*
X30947618Y-38931009D02*
X30899999Y-38835771D01*
X30899999Y-38835771D02*
X30804761Y-38788152D01*
X30804761Y-38788152D02*
X30614285Y-38788152D01*
X30614285Y-38788152D02*
X30519047Y-38835771D01*
X30519047Y-38835771D02*
X30471428Y-38931009D01*
X30471428Y-38931009D02*
X30471428Y-39026247D01*
X30471428Y-39026247D02*
X30947618Y-39121485D01*
X29614285Y-39407200D02*
X29709523Y-39454819D01*
X29709523Y-39454819D02*
X29899999Y-39454819D01*
X29899999Y-39454819D02*
X29995237Y-39407200D01*
X29995237Y-39407200D02*
X30042856Y-39359580D01*
X30042856Y-39359580D02*
X30090475Y-39264342D01*
X30090475Y-39264342D02*
X30090475Y-38978628D01*
X30090475Y-38978628D02*
X30042856Y-38883390D01*
X30042856Y-38883390D02*
X29995237Y-38835771D01*
X29995237Y-38835771D02*
X29899999Y-38788152D01*
X29899999Y-38788152D02*
X29709523Y-38788152D01*
X29709523Y-38788152D02*
X29614285Y-38835771D01*
X29185713Y-39454819D02*
X29185713Y-38454819D01*
X28757142Y-39454819D02*
X28757142Y-38931009D01*
X28757142Y-38931009D02*
X28804761Y-38835771D01*
X28804761Y-38835771D02*
X28899999Y-38788152D01*
X28899999Y-38788152D02*
X29042856Y-38788152D01*
X29042856Y-38788152D02*
X29138094Y-38835771D01*
X29138094Y-38835771D02*
X29185713Y-38883390D01*
D11*
%TO.C,R1*%
X26927064Y-37790000D02*
X25472936Y-37790000D01*
X26927064Y-39610000D02*
X25472936Y-39610000D01*
D12*
%TO.C,L1*%
X31700000Y-30800000D02*
X31700000Y-30970000D01*
X31700000Y-35640000D02*
X31700000Y-35800000D01*
X36700000Y-30800000D02*
X31700000Y-30800000D01*
X36700000Y-30970000D02*
X36700000Y-30800000D01*
X36700000Y-35800000D02*
X31700000Y-35800000D01*
X36700000Y-35800000D02*
X36700000Y-35640000D01*
%TO.C,L2*%
X23600000Y-32500000D02*
X23600000Y-32660000D01*
X23600000Y-32500000D02*
X28600000Y-32500000D01*
X23600000Y-37330000D02*
X23600000Y-37500000D01*
X23600000Y-37500000D02*
X28600000Y-37500000D01*
X28600000Y-32660000D02*
X28600000Y-32500000D01*
X28600000Y-37500000D02*
X28600000Y-37330000D01*
D11*
%TO.C,C7*%
X29590000Y-34040581D02*
X29590000Y-33759419D01*
X30610000Y-34040581D02*
X30610000Y-33759419D01*
%TD*%
%LPC*%
D13*
%TO.C,J8*%
X34445000Y-30000000D03*
%TD*%
%TO.C,J23*%
X24920000Y-31600000D03*
%TD*%
%TO.C,J21*%
X28730000Y-31600000D03*
%TD*%
%TO.C,J5*%
X30635000Y-30000000D03*
%TD*%
%TO.C,J16*%
X31495000Y-37770000D03*
%TD*%
%TO.C,J1*%
X25555000Y-30000000D03*
%TD*%
%TO.C,J18*%
X31495000Y-36500000D03*
%TD*%
%TO.C,J9*%
X36575000Y-36500000D03*
%TD*%
%TO.C,J2*%
X26825000Y-30000000D03*
%TD*%
%TO.C,J22*%
X30000000Y-31600000D03*
%TD*%
%TO.C,J7*%
X33175000Y-30000000D03*
%TD*%
%TO.C,J3*%
X28095000Y-30000000D03*
%TD*%
%TO.C,J24*%
X23650000Y-31600000D03*
%TD*%
%TO.C,J15*%
X36575000Y-37770000D03*
%TD*%
%TO.C,J10*%
X35305000Y-36500000D03*
%TD*%
%TO.C,J14*%
X35305000Y-37770000D03*
%TD*%
%TO.C,J20*%
X26190000Y-31600000D03*
%TD*%
%TO.C,J19*%
X27460000Y-31600000D03*
%TD*%
%TO.C,J12*%
X32765000Y-36500000D03*
%TD*%
%TO.C,J4*%
X29365000Y-30000000D03*
%TD*%
%TO.C,J17*%
X32765000Y-37770000D03*
%TD*%
%TO.C,J6*%
X31905000Y-30000000D03*
%TD*%
%TO.C,J11*%
X34035000Y-36500000D03*
%TD*%
%TO.C,J13*%
X34035000Y-37770000D03*
%TD*%
D14*
%TO.C,R1*%
X24737500Y-38700000D03*
X27662500Y-38700000D03*
%TD*%
D15*
%TO.C,L1*%
X32049999Y-33300000D03*
X36350001Y-33300000D03*
%TD*%
%TO.C,L2*%
X28250000Y-35000000D03*
X23950000Y-35000000D03*
%TD*%
D16*
%TO.C,C7*%
X30100000Y-33125000D03*
X30100000Y-34675000D03*
%TD*%
%LPD*%
M02*
