%TF.GenerationSoftware,KiCad,Pcbnew,9.0.6-9.0.6~ubuntu24.04.1*%
%TF.CreationDate,2026-01-03T16:27:35+00:00*%
%TF.ProjectId,VIB_STSPIN240,5649425f-5354-4535-9049-4e3234302e6b,1.0*%
%TF.SameCoordinates,Original*%
%TF.FileFunction,Copper,L4,Bot*%
%TF.FilePolarity,Positive*%
%FSLAX46Y46*%
G04 Gerber Fmt 4.6, Leading zero omitted, Abs format (unit mm)*
G04 Created by KiCad (PCBNEW 9.0.6-9.0.6~ubuntu24.04.1) date 2026-01-03 16:27:35*
%MOMM*%
%LPD*%
G01*
G04 APERTURE LIST*
G04 Aperture macros list*
%AMRoundRect*
0 Rectangle with rounded corners*
0 $1 Rounding radius*
0 $2 $3 $4 $5 $6 $7 $8 $9 X,Y pos of 4 corners*
0 Add a 4 corners polygon primitive as box body*
4,1,4,$2,$3,$4,$5,$6,$7,$8,$9,$2,$3,0*
0 Add four circle primitives for the rounded corners*
1,1,$1+$1,$2,$3*
1,1,$1+$1,$4,$5*
1,1,$1+$1,$6,$7*
1,1,$1+$1,$8,$9*
0 Add four rect primitives between the rounded corners*
20,1,$1+$1,$2,$3,$4,$5,0*
20,1,$1+$1,$4,$5,$6,$7,0*
20,1,$1+$1,$6,$7,$8,$9,0*
20,1,$1+$1,$8,$9,$2,$3,0*%
G04 Aperture macros list end*
%TA.AperFunction,ComponentPad*%
%ADD10R,1.000000X1.000000*%
%TD*%
%TA.AperFunction,SMDPad,CuDef*%
%ADD11RoundRect,0.250000X-0.312500X-0.625000X0.312500X-0.625000X0.312500X0.625000X-0.312500X0.625000X0*%
%TD*%
%TA.AperFunction,SMDPad,CuDef*%
%ADD12R,1.800000X4.200000*%
%TD*%
%TA.AperFunction,SMDPad,CuDef*%
%ADD13RoundRect,0.225000X-0.250000X0.225000X-0.250000X-0.225000X0.250000X-0.225000X0.250000X0.225000X0*%
%TD*%
%TA.AperFunction,ViaPad*%
%ADD14C,0.400000*%
%TD*%
%TA.AperFunction,Conductor*%
%ADD15C,0.127000*%
%TD*%
G04 APERTURE END LIST*
D10*
%TO.P,J8,1,Pin_1*%
%TO.N,/extRef*%
X34445000Y-30000000D03*
%TD*%
%TO.P,J23,1,Pin_1*%
%TO.N,VCC*%
X24920000Y-31600000D03*
%TD*%
%TO.P,J21,1,Pin_1*%
%TO.N,/OB1*%
X28730000Y-31600000D03*
%TD*%
%TO.P,J5,1,Pin_1*%
%TO.N,/PICO*%
X30635000Y-30000000D03*
%TD*%
%TO.P,J16,1,Pin_1*%
%TO.N,/AIN0*%
X31495000Y-37770000D03*
%TD*%
%TO.P,J1,1,Pin_1*%
%TO.N,+3.3V*%
X25555000Y-30000000D03*
%TD*%
%TO.P,J18,1,Pin_1*%
%TO.N,GND*%
X31495000Y-36500000D03*
%TD*%
%TO.P,J9,1,Pin_1*%
%TO.N,/SWCLK*%
X36575000Y-36500000D03*
%TD*%
%TO.P,J2,1,Pin_1*%
%TO.N,GND*%
X26825000Y-30000000D03*
%TD*%
%TO.P,J22,1,Pin_1*%
%TO.N,/OB2*%
X30000000Y-31600000D03*
%TD*%
%TO.P,J7,1,Pin_1*%
%TO.N,unconnected-(J7-Pin_1-Pad1)*%
X33175000Y-30000000D03*
%TD*%
%TO.P,J3,1,Pin_1*%
%TO.N,unconnected-(J3-Pin_1-Pad1)*%
X28095000Y-30000000D03*
%TD*%
%TO.P,J24,1,Pin_1*%
%TO.N,GND*%
X23650000Y-31600000D03*
%TD*%
%TO.P,J15,1,Pin_1*%
%TO.N,/I2C_SDA*%
X36575000Y-37770000D03*
%TD*%
%TO.P,J10,1,Pin_1*%
%TO.N,/SWDIO*%
X35305000Y-36500000D03*
%TD*%
%TO.P,J14,1,Pin_1*%
%TO.N,/i2C_SCL*%
X35305000Y-37770000D03*
%TD*%
%TO.P,J20,1,Pin_1*%
%TO.N,/OUTA2*%
X26190000Y-31600000D03*
%TD*%
%TO.P,J19,1,Pin_1*%
%TO.N,/OUTA1*%
X27460000Y-31600000D03*
%TD*%
%TO.P,J12,1,Pin_1*%
%TO.N,/SCLK_ARM*%
X32765000Y-36500000D03*
%TD*%
%TO.P,J4,1,Pin_1*%
%TO.N,/POCI*%
X29365000Y-30000000D03*
%TD*%
%TO.P,J17,1,Pin_1*%
%TO.N,/CSB*%
X32765000Y-37770000D03*
%TD*%
%TO.P,J6,1,Pin_1*%
%TO.N,/SCLK*%
X31905000Y-30000000D03*
%TD*%
%TO.P,J11,1,Pin_1*%
%TO.N,/PICO_ARM*%
X34035000Y-36500000D03*
%TD*%
%TO.P,J13,1,Pin_1*%
%TO.N,/SPICS_ARM*%
X34035000Y-37770000D03*
%TD*%
D11*
%TO.P,R1,1*%
%TO.N,GND*%
X24737500Y-38700000D03*
%TO.P,R1,2*%
%TO.N,/senseA*%
X27662500Y-38700000D03*
%TD*%
D12*
%TO.P,L1,1,1*%
%TO.N,/OUTA1*%
X32049999Y-33300000D03*
%TO.P,L1,2,2*%
%TO.N,/OA1*%
X36350001Y-33300000D03*
%TD*%
%TO.P,L2,1,1*%
%TO.N,/OUTA2*%
X28250000Y-35000000D03*
%TO.P,L2,2,2*%
%TO.N,/OA2*%
X23950000Y-35000000D03*
%TD*%
D13*
%TO.P,C7,1*%
%TO.N,/OUTA1*%
X30100000Y-33125000D03*
%TO.P,C7,2*%
%TO.N,/OUTA2*%
X30100000Y-34675000D03*
%TD*%
D14*
%TO.N,GND*%
X26500000Y-36300000D03*
X24700000Y-38700000D03*
X27000000Y-32600000D03*
%TO.N,+3.3V*%
X23400000Y-38200000D03*
X23000000Y-32500000D03*
X25500000Y-32600000D03*
%TO.N,VCC*%
X29400000Y-37800000D03*
%TO.N,/OA1*%
X30100000Y-38500000D03*
%TO.N,/OA2*%
X28800000Y-37800000D03*
%TO.N,/senseA*%
X30100000Y-37900000D03*
%TD*%
D15*
%TO.N,+3.3V*%
X22896500Y-32603500D02*
X22896500Y-37696500D01*
X23100000Y-32600000D02*
X23000000Y-32500000D01*
X22896500Y-37696500D02*
X23400000Y-38200000D01*
X23000000Y-32500000D02*
X22896500Y-32603500D01*
X25500000Y-32600000D02*
X23100000Y-32600000D01*
%TO.N,/OUTA2*%
X26190000Y-32940000D02*
X28250000Y-35000000D01*
X26190000Y-31600000D02*
X26190000Y-32940000D01*
X28575000Y-34675000D02*
X28250000Y-35000000D01*
X30100000Y-34675000D02*
X28575000Y-34675000D01*
%TO.N,/OUTA1*%
X27460000Y-31600000D02*
X28360000Y-32500000D01*
X30100000Y-33125000D02*
X30275000Y-33300000D01*
X29475000Y-32500000D02*
X30100000Y-33125000D01*
X28360000Y-32500000D02*
X29475000Y-32500000D01*
X30275000Y-33300000D02*
X32049999Y-33300000D01*
%TO.N,/OA1*%
X30100000Y-38500000D02*
X30600000Y-38000000D01*
X30600000Y-35700000D02*
X33950001Y-35700000D01*
X33950001Y-35700000D02*
X36350001Y-33300000D01*
X30600000Y-38000000D02*
X30600000Y-35700000D01*
%TO.N,/OA2*%
X28400000Y-37400000D02*
X26350000Y-37400000D01*
X26350000Y-37400000D02*
X23950000Y-35000000D01*
X28800000Y-37800000D02*
X28400000Y-37400000D01*
%TO.N,/senseA*%
X29500000Y-38500000D02*
X30100000Y-37900000D01*
X27662500Y-38700000D02*
X27862500Y-38500000D01*
X27862500Y-38500000D02*
X29500000Y-38500000D01*
%TD*%
%TA.AperFunction,Conductor*%
%TO.N,GND*%
G36*
X25305703Y-36800212D02*
G01*
X25312181Y-36806244D01*
X26157200Y-37651263D01*
X26228801Y-37692601D01*
X26308661Y-37714000D01*
X26391339Y-37714000D01*
X26771871Y-37714000D01*
X26838910Y-37733685D01*
X26884665Y-37786489D01*
X26894609Y-37855647D01*
X26888053Y-37881333D01*
X26855908Y-37967517D01*
X26849501Y-38027116D01*
X26849500Y-38027135D01*
X26849500Y-39372870D01*
X26849501Y-39372876D01*
X26855908Y-39432483D01*
X26906202Y-39567328D01*
X26906206Y-39567335D01*
X26992452Y-39682544D01*
X26992455Y-39682547D01*
X27104244Y-39766233D01*
X27146115Y-39822167D01*
X27151099Y-39891858D01*
X27117613Y-39953181D01*
X27056290Y-39986665D01*
X27029933Y-39989499D01*
X25743344Y-39989499D01*
X25676305Y-39969814D01*
X25630550Y-39917010D01*
X25620606Y-39847852D01*
X25640785Y-39800885D01*
X25638525Y-39799491D01*
X25734356Y-39644124D01*
X25734358Y-39644119D01*
X25789505Y-39477697D01*
X25789506Y-39477690D01*
X25799999Y-39374986D01*
X25800000Y-39374973D01*
X25800000Y-38950000D01*
X23675001Y-38950000D01*
X23675001Y-39374986D01*
X23685494Y-39477697D01*
X23740641Y-39644119D01*
X23740643Y-39644124D01*
X23836475Y-39799491D01*
X23833953Y-39801046D01*
X23855066Y-39853413D01*
X23842009Y-39922052D01*
X23793916Y-39972736D01*
X23731656Y-39989499D01*
X23256090Y-39989499D01*
X23243937Y-39988902D01*
X23117887Y-39976488D01*
X23094044Y-39971745D01*
X22978689Y-39936752D01*
X22956232Y-39927450D01*
X22849928Y-39870629D01*
X22829716Y-39857124D01*
X22736535Y-39780652D01*
X22719347Y-39763464D01*
X22642875Y-39670283D01*
X22629370Y-39650071D01*
X22600959Y-39596919D01*
X22572548Y-39543764D01*
X22563247Y-39521310D01*
X22528254Y-39405955D01*
X22523512Y-39382118D01*
X22511097Y-39256060D01*
X22510500Y-39243907D01*
X22510500Y-38053925D01*
X22530185Y-37986886D01*
X22582989Y-37941131D01*
X22652147Y-37931187D01*
X22715703Y-37960212D01*
X22722181Y-37966244D01*
X22913181Y-38157244D01*
X22946666Y-38218567D01*
X22949500Y-38244925D01*
X22949500Y-38259309D01*
X22980201Y-38373886D01*
X23039511Y-38476613D01*
X23123387Y-38560489D01*
X23226114Y-38619799D01*
X23340691Y-38650500D01*
X23340694Y-38650500D01*
X23459306Y-38650500D01*
X23459309Y-38650500D01*
X23573886Y-38619799D01*
X23676613Y-38560489D01*
X23750783Y-38486319D01*
X23812106Y-38452834D01*
X23838464Y-38450000D01*
X25799999Y-38450000D01*
X25799999Y-38025028D01*
X25799998Y-38025013D01*
X25789505Y-37922302D01*
X25734358Y-37755880D01*
X25734356Y-37755875D01*
X25642315Y-37606654D01*
X25518345Y-37482684D01*
X25369124Y-37390643D01*
X25369119Y-37390641D01*
X25202697Y-37335494D01*
X25202683Y-37335491D01*
X25197039Y-37334915D01*
X25132349Y-37308517D01*
X25092200Y-37251334D01*
X25088030Y-37187366D01*
X25100500Y-37124676D01*
X25100500Y-36893925D01*
X25120185Y-36826886D01*
X25172989Y-36781131D01*
X25242147Y-36771187D01*
X25305703Y-36800212D01*
G37*
%TD.AperFunction*%
%TA.AperFunction,Conductor*%
G36*
X25851896Y-33000724D02*
G01*
X25894530Y-33054275D01*
X25897399Y-33061202D01*
X25938732Y-33132793D01*
X25938738Y-33132801D01*
X27063181Y-34257244D01*
X27096666Y-34318567D01*
X27099500Y-34344925D01*
X27099500Y-36962000D01*
X27079815Y-37029039D01*
X27027011Y-37074794D01*
X26975500Y-37086000D01*
X26531425Y-37086000D01*
X26464386Y-37066315D01*
X26443744Y-37049681D01*
X25136819Y-35742756D01*
X25103334Y-35681433D01*
X25100500Y-35655075D01*
X25100500Y-33104314D01*
X25120185Y-33037275D01*
X25172989Y-32991520D01*
X25242147Y-32981576D01*
X25286497Y-32996925D01*
X25326114Y-33019799D01*
X25440691Y-33050500D01*
X25440694Y-33050500D01*
X25559306Y-33050500D01*
X25559309Y-33050500D01*
X25673886Y-33019799D01*
X25717970Y-32994346D01*
X25785869Y-32977873D01*
X25851896Y-33000724D01*
G37*
%TD.AperFunction*%
%TA.AperFunction,Conductor*%
G36*
X26829697Y-32334573D02*
G01*
X26846968Y-32332710D01*
X26850262Y-32333677D01*
X26850281Y-32333584D01*
X26935321Y-32350499D01*
X26935324Y-32350500D01*
X26935326Y-32350500D01*
X27715075Y-32350500D01*
X27744515Y-32359144D01*
X27774502Y-32365668D01*
X27779517Y-32369422D01*
X27782114Y-32370185D01*
X27802756Y-32386819D01*
X27853756Y-32437819D01*
X27887241Y-32499142D01*
X27882257Y-32568834D01*
X27840385Y-32624767D01*
X27774921Y-32649184D01*
X27766075Y-32649500D01*
X27325323Y-32649500D01*
X27252264Y-32664032D01*
X27252260Y-32664033D01*
X27169399Y-32719399D01*
X27114033Y-32802260D01*
X27114032Y-32802264D01*
X27099500Y-32875321D01*
X27099500Y-33106075D01*
X27079815Y-33173114D01*
X27027011Y-33218869D01*
X26957853Y-33228813D01*
X26894297Y-33199788D01*
X26887819Y-33193756D01*
X26540319Y-32846256D01*
X26506834Y-32784933D01*
X26504000Y-32758575D01*
X26504000Y-32474500D01*
X26504775Y-32471857D01*
X26504114Y-32469185D01*
X26514562Y-32438527D01*
X26523685Y-32407461D01*
X26525765Y-32405658D01*
X26526654Y-32403051D01*
X26552029Y-32382900D01*
X26576489Y-32361706D01*
X26579871Y-32360791D01*
X26581370Y-32359601D01*
X26591790Y-32357567D01*
X26615630Y-32351119D01*
X26621804Y-32350500D01*
X26714674Y-32350500D01*
X26787740Y-32335966D01*
X26791442Y-32333492D01*
X26812630Y-32331368D01*
X26829697Y-32334573D01*
G37*
%TD.AperFunction*%
%TA.AperFunction,Conductor*%
G36*
X25039905Y-29030185D02*
G01*
X25085660Y-29082989D01*
X25095604Y-29152147D01*
X25066579Y-29215703D01*
X25007801Y-29253477D01*
X24997057Y-29256117D01*
X24957264Y-29264032D01*
X24957260Y-29264033D01*
X24874399Y-29319399D01*
X24819033Y-29402260D01*
X24819032Y-29402264D01*
X24804500Y-29475321D01*
X24804500Y-30524678D01*
X24819032Y-30597735D01*
X24819034Y-30597739D01*
X24819034Y-30597740D01*
X24858369Y-30656610D01*
X24861406Y-30666309D01*
X24868061Y-30673989D01*
X24871669Y-30699088D01*
X24879247Y-30723287D01*
X24876558Y-30733086D01*
X24878005Y-30743147D01*
X24867470Y-30766215D01*
X24860762Y-30790667D01*
X24853202Y-30797457D01*
X24848980Y-30806703D01*
X24827645Y-30820413D01*
X24808783Y-30837357D01*
X24797186Y-30839988D01*
X24790202Y-30844477D01*
X24755267Y-30849500D01*
X24649126Y-30849500D01*
X24582087Y-30829815D01*
X24549859Y-30799811D01*
X24507190Y-30742813D01*
X24507185Y-30742808D01*
X24392093Y-30656649D01*
X24392086Y-30656645D01*
X24257379Y-30606403D01*
X24257372Y-30606401D01*
X24197844Y-30600000D01*
X23900000Y-30600000D01*
X23900000Y-31390382D01*
X23849554Y-31339936D01*
X23775445Y-31297149D01*
X23692787Y-31275000D01*
X23607213Y-31275000D01*
X23524555Y-31297149D01*
X23450446Y-31339936D01*
X23400000Y-31390382D01*
X23400000Y-30600000D01*
X23102155Y-30600000D01*
X23042627Y-30606401D01*
X23042620Y-30606403D01*
X22907913Y-30656645D01*
X22907906Y-30656649D01*
X22792812Y-30742809D01*
X22733766Y-30821684D01*
X22677832Y-30863554D01*
X22608140Y-30868538D01*
X22546818Y-30835052D01*
X22513333Y-30773728D01*
X22510500Y-30747372D01*
X22510500Y-29756092D01*
X22511097Y-29743939D01*
X22517877Y-29675097D01*
X22523512Y-29617880D01*
X22528251Y-29594054D01*
X22563248Y-29478683D01*
X22572546Y-29456238D01*
X22629374Y-29349921D01*
X22642870Y-29329721D01*
X22719350Y-29236530D01*
X22736529Y-29219351D01*
X22829721Y-29142870D01*
X22849921Y-29129373D01*
X22956238Y-29072546D01*
X22978682Y-29063248D01*
X23094053Y-29028251D01*
X23117878Y-29023512D01*
X23226582Y-29012805D01*
X23243919Y-29011098D01*
X23256073Y-29010501D01*
X23304766Y-29010501D01*
X23304775Y-29010500D01*
X24972866Y-29010500D01*
X25039905Y-29030185D01*
G37*
%TD.AperFunction*%
%TD*%
M02*
