%TF.GenerationSoftware,KiCad,Pcbnew,9.0.6-9.0.6~ubuntu24.04.1*%
%TF.CreationDate,2026-01-03T16:27:35+00:00*%
%TF.ProjectId,VIB_STSPIN240,5649425f-5354-4535-9049-4e3234302e6b,1.0*%
%TF.SameCoordinates,Original*%
%TF.FileFunction,Soldermask,Top*%
%TF.FilePolarity,Negative*%
%FSLAX46Y46*%
G04 Gerber Fmt 4.6, Leading zero omitted, Abs format (unit mm)*
G04 Created by KiCad (PCBNEW 9.0.6-9.0.6~ubuntu24.04.1) date 2026-01-03 16:27:35*
%MOMM*%
%LPD*%
G01*
G04 APERTURE LIST*
G04 Aperture macros list*
%AMRoundRect*
0 Rectangle with rounded corners*
0 $1 Rounding radius*
0 $2 $3 $4 $5 $6 $7 $8 $9 X,Y pos of 4 corners*
0 Add a 4 corners polygon primitive as box body*
4,1,4,$2,$3,$4,$5,$6,$7,$8,$9,$2,$3,0*
0 Add four circle primitives for the rounded corners*
1,1,$1+$1,$2,$3*
1,1,$1+$1,$4,$5*
1,1,$1+$1,$6,$7*
1,1,$1+$1,$8,$9*
0 Add four rect primitives between the rounded corners*
20,1,$1+$1,$2,$3,$4,$5,0*
20,1,$1+$1,$4,$5,$6,$7,0*
20,1,$1+$1,$6,$7,$8,$9,0*
20,1,$1+$1,$8,$9,$2,$3,0*%
G04 Aperture macros list end*
%ADD10RoundRect,0.135000X0.185000X-0.135000X0.185000X0.135000X-0.185000X0.135000X-0.185000X-0.135000X0*%
%ADD11RoundRect,0.135000X-0.185000X0.135000X-0.185000X-0.135000X0.185000X-0.135000X0.185000X0.135000X0*%
%ADD12R,1.000000X1.000000*%
%ADD13RoundRect,0.140000X0.170000X-0.140000X0.170000X0.140000X-0.170000X0.140000X-0.170000X-0.140000X0*%
%ADD14R,0.280000X0.660000*%
%ADD15R,0.660000X0.280000*%
%ADD16R,1.750000X1.750000*%
%ADD17RoundRect,0.140000X-0.170000X0.140000X-0.170000X-0.140000X0.170000X-0.140000X0.170000X0.140000X0*%
%ADD18RoundRect,0.135000X0.135000X0.185000X-0.135000X0.185000X-0.135000X-0.185000X0.135000X-0.185000X0*%
%ADD19RoundRect,0.250000X-0.312500X-0.625000X0.312500X-0.625000X0.312500X0.625000X-0.312500X0.625000X0*%
G04 APERTURE END LIST*
D10*
%TO.C,R7*%
X27200000Y-34300000D03*
X27200000Y-33280002D03*
%TD*%
D11*
%TO.C,R5*%
X24400000Y-36280002D03*
X24400000Y-37300000D03*
%TD*%
D12*
%TO.C,J8*%
X34445000Y-30000000D03*
%TD*%
D10*
%TO.C,R3*%
X25200000Y-34300000D03*
X25200000Y-33280002D03*
%TD*%
D12*
%TO.C,J23*%
X24920000Y-31600000D03*
%TD*%
%TO.C,J21*%
X28730000Y-31600000D03*
%TD*%
%TO.C,J5*%
X30635000Y-30000000D03*
%TD*%
%TO.C,J16*%
X31495000Y-37770000D03*
%TD*%
%TO.C,J1*%
X25555000Y-30000000D03*
%TD*%
D13*
%TO.C,C3*%
X29100000Y-37080000D03*
X29100000Y-36120000D03*
%TD*%
D12*
%TO.C,J18*%
X31495000Y-36500000D03*
%TD*%
%TO.C,J9*%
X36575000Y-36500000D03*
%TD*%
%TO.C,J2*%
X26825000Y-30000000D03*
%TD*%
%TO.C,J22*%
X30000000Y-31600000D03*
%TD*%
%TO.C,J7*%
X33175000Y-30000000D03*
%TD*%
D14*
%TO.C,U3*%
X26140000Y-38050001D03*
X26640000Y-38050001D03*
X27140000Y-38050001D03*
X27640000Y-38050001D03*
D15*
X28300000Y-37390001D03*
X28300000Y-36890001D03*
X28300000Y-36390001D03*
X28300000Y-35890001D03*
D14*
X27640000Y-35230001D03*
X27140000Y-35230001D03*
X26640000Y-35230001D03*
X26140000Y-35230001D03*
D15*
X25480000Y-35890001D03*
X25480000Y-36390001D03*
X25480000Y-36890001D03*
X25480000Y-37390001D03*
D16*
X26890000Y-36640001D03*
%TD*%
D12*
%TO.C,J3*%
X28095000Y-30000000D03*
%TD*%
%TO.C,J24*%
X23650000Y-31600000D03*
%TD*%
%TO.C,J15*%
X36575000Y-37770000D03*
%TD*%
D17*
%TO.C,C6*%
X23400000Y-36310001D03*
X23400000Y-37270001D03*
%TD*%
%TO.C,C5*%
X24200000Y-33310001D03*
X24200000Y-34270001D03*
%TD*%
D12*
%TO.C,J10*%
X35305000Y-36500000D03*
%TD*%
%TO.C,J14*%
X35305000Y-37770000D03*
%TD*%
%TO.C,J20*%
X26190000Y-31600000D03*
%TD*%
%TO.C,J19*%
X27460000Y-31600000D03*
%TD*%
D18*
%TO.C,R4*%
X24509999Y-35290001D03*
X23490001Y-35290001D03*
%TD*%
D11*
%TO.C,R6*%
X26200000Y-33280002D03*
X26200000Y-34300000D03*
%TD*%
D12*
%TO.C,J12*%
X32765000Y-36500000D03*
%TD*%
%TO.C,J4*%
X29365000Y-30000000D03*
%TD*%
%TO.C,J17*%
X32765000Y-37770000D03*
%TD*%
D13*
%TO.C,C4*%
X30100000Y-37080000D03*
X30100000Y-36120000D03*
%TD*%
D12*
%TO.C,J6*%
X31905000Y-30000000D03*
%TD*%
D19*
%TO.C,R2*%
X28627500Y-33892501D03*
X31552500Y-33892501D03*
%TD*%
D12*
%TO.C,J11*%
X34035000Y-36500000D03*
%TD*%
%TO.C,J13*%
X34035000Y-37770000D03*
%TD*%
M02*
