M48
; DRILL file {KiCad 9.0.6-9.0.6~ubuntu24.04.1} date 2026-01-03T16:27:35+0000
; FORMAT={-:-/ absolute / inch / decimal}
; #@! TF.CreationDate,2026-01-03T16:27:35+00:00
; #@! TF.GenerationSoftware,Kicad,Pcbnew,9.0.6-9.0.6~ubuntu24.04.1
; #@! TF.FileFunction,Plated,1,4,PTH
FMAT,2
INCH
; #@! TA.AperFunction,Plated,PTH,ViaDrill
T1C0.0118
; #@! TA.AperFunction,Plated,PTH,ComponentDrill
T2C0.0256
%
G90
G05
T1
X0.9055Y-1.2795
X0.9213Y-1.5039
X0.9724Y-1.5236
X1.0039Y-1.2835
X1.0433Y-1.4291
X1.063Y-1.2835
X1.1339Y-1.4882
X1.1575Y-1.4882
X1.185Y-1.4921
X1.185Y-1.5157
T2
X0.9311Y-1.2441
X0.9811Y-1.2441
X1.0061Y-1.1811
X1.0311Y-1.2441
X1.0561Y-1.1811
X1.0811Y-1.2441
X1.1061Y-1.1811
X1.1311Y-1.2441
X1.1561Y-1.1811
X1.1811Y-1.2441
X1.2061Y-1.1811
X1.24Y-1.437
X1.24Y-1.487
X1.2561Y-1.1811
X1.29Y-1.437
X1.29Y-1.487
X1.3061Y-1.1811
X1.34Y-1.437
X1.34Y-1.487
X1.3561Y-1.1811
X1.39Y-1.437
X1.39Y-1.487
X1.44Y-1.437
X1.44Y-1.487
M30
