M48
; DRILL file {KiCad 6.0.8-f2edbf62ab~116~ubuntu22.04.1} date Mon 31 Oct 2022 09:01:50 GMT
; FORMAT={-:-/ absolute / inch / decimal}
; #@! TF.CreationDate,2022-10-31T09:01:50+00:00
; #@! TF.GenerationSoftware,Kicad,Pcbnew,6.0.8-f2edbf62ab~116~ubuntu22.04.1
; #@! TF.FileFunction,NonPlated,1,4,NPTH
FMAT,2
INCH
; #@! TA.AperFunction,NonPlated,NPTH,ComponentDrill
T1C0.0197
; #@! TA.AperFunction,NonPlated,NPTH,ComponentDrill
T2C0.0787
%
G90
G05
T1
X0.0Y-0.2362
X0.0Y-3.7008
X0.0315Y-0.2362
X0.0315Y-3.7008
X0.063Y-0.2362
X0.063Y-3.7008
X0.0945Y-0.2362
X0.0945Y-3.7008
X0.126Y-0.2362
X0.126Y-3.7008
X0.1575Y-0.2362
X0.1575Y-3.7008
X0.2244Y-0.4528
X0.2244Y-1.1614
X0.2244Y-1.8701
X0.2244Y-2.5787
X0.2244Y-3.2874
X0.2245Y-0.4856
X0.2245Y-1.1942
X0.2245Y-1.9029
X0.2245Y-2.6116
X0.2245Y-3.3202
X0.2245Y-0.5184
X0.2245Y-1.227
X0.2245Y-1.9357
X0.2245Y-2.6444
X0.2245Y-3.353
X0.2245Y-0.5512
X0.2245Y-1.2598
X0.2245Y-1.9685
X0.2245Y-2.6772
X0.2245Y-3.3858
X0.2245Y-0.584
X0.2245Y-1.2927
X0.2245Y-2.0013
X0.2245Y-2.71
X0.2245Y-3.4186
X0.2245Y-0.6168
X0.2245Y-1.3255
X0.2245Y-2.0341
X0.2245Y-2.7428
X0.2245Y-3.4514
X0.2245Y-0.6496
X0.2245Y-1.3583
X0.2245Y-2.0669
X0.2245Y-2.7756
X0.2245Y-3.4843
X0.2362Y0.0
X0.2362Y-0.0315
X0.2362Y-0.063
X0.2362Y-0.0945
X0.2362Y-0.126
X0.2362Y-0.1575
X0.2362Y-3.7795
X0.2362Y-3.811
X0.2362Y-3.8425
X0.2362Y-3.874
X0.2362Y-3.9055
X0.2362Y-3.937
X0.7874Y-0.2245
X0.7874Y-0.9332
X0.7874Y-1.6418
X0.7874Y-2.3505
X0.7874Y-3.0591
X0.7874Y-0.8779
X0.7874Y-1.5866
X0.7874Y-2.2952
X0.7874Y-3.0039
X0.7874Y-3.7125
X0.8202Y-0.2245
X0.8202Y-0.9332
X0.8202Y-1.6418
X0.8202Y-2.3505
X0.8202Y-3.0591
X0.8202Y-0.8779
X0.8202Y-1.5865
X0.8202Y-2.2952
X0.8202Y-3.0039
X0.8202Y-3.7125
X0.853Y-0.2245
X0.853Y-0.9332
X0.853Y-1.6418
X0.853Y-2.3505
X0.853Y-3.0591
X0.853Y-0.8779
X0.853Y-1.5865
X0.853Y-2.2952
X0.853Y-3.0039
X0.853Y-3.7125
X0.8858Y-0.2245
X0.8858Y-0.9331
X0.8858Y-1.6418
X0.8858Y-2.3505
X0.8858Y-3.0591
X0.8858Y-0.8779
X0.8858Y-1.5865
X0.8858Y-2.2952
X0.8858Y-3.0039
X0.8858Y-3.7125
X0.9186Y-0.2245
X0.9186Y-0.9331
X0.9186Y-1.6418
X0.9186Y-2.3505
X0.9186Y-3.0591
X0.9186Y-0.8779
X0.9186Y-1.5865
X0.9186Y-2.2952
X0.9186Y-3.0039
X0.9186Y-3.7125
X0.9514Y-0.2245
X0.9514Y-0.9331
X0.9514Y-1.6418
X0.9514Y-2.3505
X0.9514Y-3.0591
X0.9514Y-0.8779
X0.9514Y-1.5865
X0.9514Y-2.2952
X0.9514Y-3.0039
X0.9514Y-3.7125
X0.9843Y-0.2245
X0.9843Y-0.9331
X0.9843Y-1.6418
X0.9843Y-2.3505
X0.9843Y-3.0591
X0.9843Y-0.8779
X0.9843Y-1.5865
X0.9843Y-2.2952
X0.9843Y-3.0038
X0.9843Y-3.7125
X1.5471Y-0.4528
X1.5471Y-1.1614
X1.5471Y-1.8701
X1.5471Y-2.5787
X1.5471Y-3.2874
X1.5471Y-0.4856
X1.5471Y-1.1942
X1.5471Y-1.9029
X1.5471Y-2.6115
X1.5471Y-3.3202
X1.5472Y-0.5184
X1.5472Y-1.227
X1.5472Y-1.9357
X1.5472Y-2.6444
X1.5472Y-3.353
X1.5472Y-0.5512
X1.5472Y-1.2598
X1.5472Y-1.9685
X1.5472Y-2.6772
X1.5472Y-3.3858
X1.5472Y-0.584
X1.5472Y-1.2926
X1.5472Y-2.0013
X1.5472Y-2.71
X1.5472Y-3.4186
X1.5472Y-0.6168
X1.5472Y-1.3255
X1.5472Y-2.0341
X1.5472Y-2.7428
X1.5472Y-3.4514
X1.5472Y-0.6496
X1.5472Y-1.3583
X1.5472Y-2.0669
X1.5472Y-2.7756
X1.5472Y-3.4842
X1.6024Y-0.4528
X1.6024Y-1.1614
X1.6024Y-1.8701
X1.6024Y-2.5787
X1.6024Y-3.2874
X1.6024Y-0.4856
X1.6024Y-1.1942
X1.6024Y-1.9029
X1.6024Y-2.6116
X1.6024Y-3.3202
X1.6024Y-0.5184
X1.6024Y-1.227
X1.6024Y-1.9357
X1.6024Y-2.6444
X1.6024Y-3.353
X1.6024Y-0.5512
X1.6024Y-1.2598
X1.6024Y-1.9685
X1.6024Y-2.6772
X1.6024Y-3.3858
X1.6024Y-0.584
X1.6024Y-1.2927
X1.6024Y-2.0013
X1.6024Y-2.71
X1.6024Y-3.4186
X1.6025Y-0.6168
X1.6025Y-1.3255
X1.6025Y-2.0341
X1.6025Y-2.7428
X1.6025Y-3.4514
X1.6025Y-0.6496
X1.6025Y-1.3583
X1.6025Y-2.0669
X1.6025Y-2.7756
X1.6025Y-3.4843
X2.1654Y-0.2245
X2.1654Y-0.9332
X2.1654Y-1.6418
X2.1654Y-2.3505
X2.1654Y-3.0591
X2.1654Y-0.8779
X2.1654Y-1.5866
X2.1654Y-2.2952
X2.1654Y-3.0039
X2.1654Y-3.7125
X2.1982Y-0.2245
X2.1982Y-0.9332
X2.1982Y-1.6418
X2.1982Y-2.3505
X2.1982Y-3.0591
X2.1982Y-0.8779
X2.1982Y-1.5865
X2.1982Y-2.2952
X2.1982Y-3.0039
X2.1982Y-3.7125
X2.231Y-0.2245
X2.231Y-0.9332
X2.231Y-1.6418
X2.231Y-2.3505
X2.231Y-3.0591
X2.231Y-0.8779
X2.231Y-1.5865
X2.231Y-2.2952
X2.231Y-3.0039
X2.231Y-3.7125
X2.2638Y-0.2245
X2.2638Y-0.9331
X2.2638Y-1.6418
X2.2638Y-2.3505
X2.2638Y-3.0591
X2.2638Y-0.8779
X2.2638Y-1.5865
X2.2638Y-2.2952
X2.2638Y-3.0039
X2.2638Y-3.7125
X2.2966Y-0.2245
X2.2966Y-0.9331
X2.2966Y-1.6418
X2.2966Y-2.3505
X2.2966Y-3.0591
X2.2966Y-0.8779
X2.2966Y-1.5865
X2.2966Y-2.2952
X2.2966Y-3.0039
X2.2966Y-3.7125
X2.3294Y-0.2245
X2.3294Y-0.9331
X2.3294Y-1.6418
X2.3294Y-2.3505
X2.3294Y-3.0591
X2.3294Y-0.8779
X2.3294Y-1.5865
X2.3294Y-2.2952
X2.3294Y-3.0039
X2.3294Y-3.7125
X2.3622Y-0.2245
X2.3622Y-0.9331
X2.3622Y-1.6418
X2.3622Y-2.3505
X2.3622Y-3.0591
X2.3622Y-0.8779
X2.3622Y-1.5865
X2.3622Y-2.2952
X2.3622Y-3.0038
X2.3622Y-3.7125
X2.9134Y0.0
X2.9134Y-0.0315
X2.9134Y-0.063
X2.9134Y-0.0945
X2.9134Y-0.126
X2.9134Y-0.1575
X2.9134Y-3.7795
X2.9134Y-3.811
X2.9134Y-3.8425
X2.9134Y-3.874
X2.9134Y-3.9055
X2.9134Y-3.937
X2.9251Y-0.4528
X2.9251Y-1.1614
X2.9251Y-1.8701
X2.9251Y-2.5787
X2.9251Y-3.2874
X2.9251Y-0.4856
X2.9251Y-1.1942
X2.9251Y-1.9029
X2.9251Y-2.6115
X2.9251Y-3.3202
X2.9251Y-0.5184
X2.9251Y-1.227
X2.9251Y-1.9357
X2.9251Y-2.6444
X2.9251Y-3.353
X2.9251Y-0.5512
X2.9251Y-1.2598
X2.9251Y-1.9685
X2.9251Y-2.6772
X2.9251Y-3.3858
X2.9251Y-0.584
X2.9251Y-1.2926
X2.9251Y-2.0013
X2.9251Y-2.71
X2.9251Y-3.4186
X2.9251Y-0.6168
X2.9251Y-1.3255
X2.9251Y-2.0341
X2.9251Y-2.7428
X2.9251Y-3.4514
X2.9252Y-0.6496
X2.9252Y-1.3583
X2.9252Y-2.0669
X2.9252Y-2.7756
X2.9252Y-3.4842
X2.9921Y-0.2362
X2.9921Y-3.7008
X3.0236Y-0.2362
X3.0236Y-3.7008
X3.0551Y-0.2362
X3.0551Y-3.7008
X3.0866Y-0.2362
X3.0866Y-3.7008
X3.1181Y-0.2362
X3.1181Y-3.7008
X3.1496Y-0.2362
X3.1496Y-3.7008
T2
X0.0984Y-0.0984
X0.0984Y-3.8386
X3.0512Y-0.0984
X3.0512Y-3.8386
T0
M30
