%TF.GenerationSoftware,KiCad,Pcbnew,6.0.8-f2edbf62ab~116~ubuntu22.04.1*%
%TF.CreationDate,2022-10-31T09:01:50+00:00*%
%TF.ProjectId,panel,70616e65-6c2e-46b6-9963-61645f706362,3.0*%
%TF.SameCoordinates,Original*%
%TF.FileFunction,Soldermask,Bot*%
%TF.FilePolarity,Negative*%
%FSLAX46Y46*%
G04 Gerber Fmt 4.6, Leading zero omitted, Abs format (unit mm)*
G04 Created by KiCad (PCBNEW 6.0.8-f2edbf62ab~116~ubuntu22.04.1) date 2022-10-31 09:01:50*
%MOMM*%
%LPD*%
G01*
G04 APERTURE LIST*
%ADD10C,0.500000*%
%ADD11C,2.000000*%
G04 APERTURE END LIST*
D10*
%TO.C,REF\u002A\u002A*%
X54999957Y-59702268D03*
%TD*%
%TO.C,REF\u002A\u002A*%
X23333290Y-23701796D03*
%TD*%
%TO.C,REF\u002A\u002A*%
X74297471Y-66333219D03*
%TD*%
%TO.C,REF\u002A\u002A*%
X20833291Y-5702151D03*
%TD*%
%TO.C,REF\u002A\u002A*%
X39297471Y-12333220D03*
%TD*%
%TO.C,REF\u002A\u002A*%
X59999957Y-5701560D03*
%TD*%
%TO.C,REF\u002A\u002A*%
X20833376Y-40298321D03*
%TD*%
%TO.C,REF\u002A\u002A*%
X39298735Y-69666552D03*
%TD*%
%TO.C,REF\u002A\u002A*%
X21666710Y-76298203D03*
%TD*%
%TO.C,REF\u002A\u002A*%
X24999957Y-41701559D03*
%TD*%
%TO.C,REF\u002A\u002A*%
X58333375Y-40297967D03*
%TD*%
%TO.C,REF\u002A\u002A*%
X74297471Y-12333220D03*
%TD*%
%TO.C,REF\u002A\u002A*%
X20833291Y-59702150D03*
%TD*%
%TO.C,REF\u002A\u002A*%
X6000000Y-1600000D03*
%TD*%
%TO.C,REF\u002A\u002A*%
X58333375Y-22297967D03*
%TD*%
%TO.C,REF\u002A\u002A*%
X57500042Y-40298085D03*
%TD*%
%TO.C,REF\u002A\u002A*%
X23333375Y-94297967D03*
%TD*%
%TO.C,REF\u002A\u002A*%
X6000000Y-2400000D03*
%TD*%
%TO.C,REF\u002A\u002A*%
X24999957Y-23701559D03*
%TD*%
%TO.C,REF\u002A\u002A*%
X22499958Y-77701914D03*
%TD*%
%TO.C,REF\u002A\u002A*%
X56666709Y-58298203D03*
%TD*%
%TO.C,REF\u002A\u002A*%
X24166624Y-5701679D03*
%TD*%
%TO.C,REF\u002A\u002A*%
X20833376Y-22298321D03*
%TD*%
%TO.C,REF\u002A\u002A*%
X39298419Y-68833219D03*
%TD*%
%TO.C,REF\u002A\u002A*%
X5701897Y-32000113D03*
%TD*%
%TO.C,REF\u002A\u002A*%
X20833291Y-77702150D03*
%TD*%
%TO.C,REF\u002A\u002A*%
X79200000Y-94000000D03*
%TD*%
%TO.C,REF\u002A\u002A*%
X5702845Y-70500113D03*
%TD*%
%TO.C,REF\u002A\u002A*%
X23333290Y-77701796D03*
%TD*%
%TO.C,REF\u002A\u002A*%
X58333290Y-59701796D03*
%TD*%
%TO.C,REF\u002A\u002A*%
X4000000Y-94000000D03*
%TD*%
%TO.C,REF\u002A\u002A*%
X74297155Y-11499887D03*
%TD*%
%TO.C,REF\u002A\u002A*%
X20833376Y-58298321D03*
%TD*%
%TO.C,REF\u002A\u002A*%
X74000000Y-1600000D03*
%TD*%
%TO.C,REF\u002A\u002A*%
X2400000Y-94000000D03*
%TD*%
%TO.C,REF\u002A\u002A*%
X20833376Y-76298321D03*
%TD*%
%TO.C,REF\u002A\u002A*%
X56666624Y-23702032D03*
%TD*%
%TO.C,REF\u002A\u002A*%
X39297787Y-13166553D03*
%TD*%
D11*
%TO.C,REF\u002A\u002A*%
X77500000Y-97500000D03*
%TD*%
D10*
%TO.C,REF\u002A\u002A*%
X54999957Y-23702268D03*
%TD*%
%TO.C,REF\u002A\u002A*%
X76000000Y-6000000D03*
%TD*%
%TO.C,REF\u002A\u002A*%
X54999957Y-41702268D03*
%TD*%
%TO.C,REF\u002A\u002A*%
X40701580Y-31166780D03*
%TD*%
%TO.C,REF\u002A\u002A*%
X39297155Y-47499886D03*
%TD*%
%TO.C,REF\u002A\u002A*%
X39297471Y-84333219D03*
%TD*%
%TO.C,REF\u002A\u002A*%
X6000000Y-97600000D03*
%TD*%
%TO.C,REF\u002A\u002A*%
X5702845Y-88500113D03*
%TD*%
%TO.C,REF\u002A\u002A*%
X40701264Y-66333447D03*
%TD*%
%TO.C,REF\u002A\u002A*%
X40702528Y-69666780D03*
%TD*%
%TO.C,REF\u002A\u002A*%
X58333375Y-58297967D03*
%TD*%
%TO.C,REF\u002A\u002A*%
X21666710Y-22298203D03*
%TD*%
%TO.C,REF\u002A\u002A*%
X74000000Y-97600000D03*
%TD*%
%TO.C,REF\u002A\u002A*%
X5701581Y-49166780D03*
%TD*%
%TO.C,REF\u002A\u002A*%
X0Y-6000000D03*
%TD*%
%TO.C,REF\u002A\u002A*%
X20833291Y-41702150D03*
%TD*%
%TO.C,REF\u002A\u002A*%
X39298735Y-87666552D03*
%TD*%
%TO.C,REF\u002A\u002A*%
X74000000Y-800000D03*
%TD*%
%TO.C,REF\u002A\u002A*%
X22499958Y-41701914D03*
%TD*%
%TO.C,REF\u002A\u002A*%
X55833375Y-58298321D03*
%TD*%
%TO.C,REF\u002A\u002A*%
X23333290Y-5701797D03*
%TD*%
%TO.C,REF\u002A\u002A*%
X0Y-94000000D03*
%TD*%
%TO.C,REF\u002A\u002A*%
X39299051Y-70499886D03*
%TD*%
%TO.C,REF\u002A\u002A*%
X74297787Y-13166553D03*
%TD*%
%TO.C,REF\u002A\u002A*%
X5702213Y-32833447D03*
%TD*%
%TO.C,REF\u002A\u002A*%
X5702845Y-34500113D03*
%TD*%
%TO.C,REF\u002A\u002A*%
X20000043Y-58298440D03*
%TD*%
%TO.C,REF\u002A\u002A*%
X59999957Y-77701559D03*
%TD*%
%TO.C,REF\u002A\u002A*%
X74299051Y-52499886D03*
%TD*%
%TO.C,REF\u002A\u002A*%
X40702212Y-32833447D03*
%TD*%
%TO.C,REF\u002A\u002A*%
X56666624Y-59702032D03*
%TD*%
%TO.C,REF\u002A\u002A*%
X40702844Y-88500113D03*
%TD*%
%TO.C,REF\u002A\u002A*%
X5700949Y-11500114D03*
%TD*%
%TO.C,REF\u002A\u002A*%
X40701264Y-48333447D03*
%TD*%
%TO.C,REF\u002A\u002A*%
X57499957Y-23701914D03*
%TD*%
%TO.C,REF\u002A\u002A*%
X59166709Y-76297849D03*
%TD*%
%TO.C,REF\u002A\u002A*%
X21666625Y-41702032D03*
%TD*%
%TO.C,REF\u002A\u002A*%
X57500042Y-76298085D03*
%TD*%
%TO.C,REF\u002A\u002A*%
X39297787Y-31166552D03*
%TD*%
%TO.C,REF\u002A\u002A*%
X5702213Y-68833447D03*
%TD*%
%TO.C,REF\u002A\u002A*%
X60000042Y-94297731D03*
%TD*%
%TO.C,REF\u002A\u002A*%
X40700948Y-11500114D03*
%TD*%
%TO.C,REF\u002A\u002A*%
X54999957Y-5702269D03*
%TD*%
%TO.C,REF\u002A\u002A*%
X5701897Y-68000113D03*
%TD*%
%TO.C,REF\u002A\u002A*%
X5701581Y-67166780D03*
%TD*%
%TO.C,REF\u002A\u002A*%
X24166709Y-22297849D03*
%TD*%
%TO.C,REF\u002A\u002A*%
X21666710Y-58298203D03*
%TD*%
%TO.C,REF\u002A\u002A*%
X55833290Y-5702151D03*
%TD*%
%TO.C,REF\u002A\u002A*%
X74297471Y-48333219D03*
%TD*%
%TO.C,REF\u002A\u002A*%
X55000042Y-94298440D03*
%TD*%
%TO.C,REF\u002A\u002A*%
X78400000Y-6000000D03*
%TD*%
%TO.C,REF\u002A\u002A*%
X39298419Y-32833219D03*
%TD*%
%TO.C,REF\u002A\u002A*%
X39298419Y-50833219D03*
%TD*%
%TO.C,REF\u002A\u002A*%
X40702212Y-50833447D03*
%TD*%
%TO.C,REF\u002A\u002A*%
X74000000Y-99200000D03*
%TD*%
%TO.C,REF\u002A\u002A*%
X22500042Y-94298085D03*
%TD*%
%TO.C,REF\u002A\u002A*%
X74000000Y-98400000D03*
%TD*%
%TO.C,REF\u002A\u002A*%
X22500042Y-76298085D03*
%TD*%
%TO.C,REF\u002A\u002A*%
X59166624Y-77701678D03*
%TD*%
%TO.C,REF\u002A\u002A*%
X39297787Y-85166552D03*
%TD*%
%TO.C,REF\u002A\u002A*%
X20000043Y-76298440D03*
%TD*%
%TO.C,REF\u002A\u002A*%
X74299051Y-70499886D03*
%TD*%
%TO.C,REF\u002A\u002A*%
X6000000Y-3200000D03*
%TD*%
%TO.C,REF\u002A\u002A*%
X55000042Y-76298440D03*
%TD*%
%TO.C,REF\u002A\u002A*%
X39298103Y-13999887D03*
%TD*%
%TO.C,REF\u002A\u002A*%
X59166709Y-22297849D03*
%TD*%
%TO.C,REF\u002A\u002A*%
X40701896Y-32000113D03*
%TD*%
D11*
%TO.C,REF\u002A\u002A*%
X2500000Y-2500000D03*
%TD*%
D10*
%TO.C,REF\u002A\u002A*%
X39297787Y-67166552D03*
%TD*%
%TO.C,REF\u002A\u002A*%
X5701897Y-50000113D03*
%TD*%
%TO.C,REF\u002A\u002A*%
X80000000Y-6000000D03*
%TD*%
%TO.C,REF\u002A\u002A*%
X74000000Y-2400000D03*
%TD*%
%TO.C,REF\u002A\u002A*%
X25000042Y-22297731D03*
%TD*%
%TO.C,REF\u002A\u002A*%
X19999958Y-41702268D03*
%TD*%
%TO.C,REF\u002A\u002A*%
X55833375Y-94298321D03*
%TD*%
%TO.C,REF\u002A\u002A*%
X74000000Y-4000000D03*
%TD*%
%TO.C,REF\u002A\u002A*%
X60000042Y-58297731D03*
%TD*%
%TO.C,REF\u002A\u002A*%
X40701580Y-13166781D03*
%TD*%
%TO.C,REF\u002A\u002A*%
X74298103Y-49999886D03*
%TD*%
%TO.C,REF\u002A\u002A*%
X40701264Y-30333447D03*
%TD*%
%TO.C,REF\u002A\u002A*%
X39297155Y-83499886D03*
%TD*%
%TO.C,REF\u002A\u002A*%
X55833290Y-77702150D03*
%TD*%
%TO.C,REF\u002A\u002A*%
X60000042Y-22297731D03*
%TD*%
%TO.C,REF\u002A\u002A*%
X74298419Y-32833219D03*
%TD*%
%TO.C,REF\u002A\u002A*%
X22499958Y-23701914D03*
%TD*%
%TO.C,REF\u002A\u002A*%
X5702529Y-87666780D03*
%TD*%
%TO.C,REF\u002A\u002A*%
X24166624Y-77701678D03*
%TD*%
%TO.C,REF\u002A\u002A*%
X24166624Y-59701678D03*
%TD*%
%TO.C,REF\u002A\u002A*%
X22499958Y-5701915D03*
%TD*%
%TO.C,REF\u002A\u002A*%
X74297787Y-49166552D03*
%TD*%
%TO.C,REF\u002A\u002A*%
X54999957Y-77702268D03*
%TD*%
%TO.C,REF\u002A\u002A*%
X19999958Y-23702268D03*
%TD*%
%TO.C,REF\u002A\u002A*%
X5702845Y-52500113D03*
%TD*%
%TO.C,REF\u002A\u002A*%
X800000Y-6000000D03*
%TD*%
%TO.C,REF\u002A\u002A*%
X23333375Y-58297967D03*
%TD*%
%TO.C,REF\u002A\u002A*%
X74298419Y-50833219D03*
%TD*%
%TO.C,REF\u002A\u002A*%
X21666625Y-5702033D03*
%TD*%
%TO.C,REF\u002A\u002A*%
X40701896Y-68000113D03*
%TD*%
%TO.C,REF\u002A\u002A*%
X74297471Y-30333219D03*
%TD*%
%TO.C,REF\u002A\u002A*%
X20000043Y-40298440D03*
%TD*%
%TO.C,REF\u002A\u002A*%
X5702529Y-33666780D03*
%TD*%
%TO.C,REF\u002A\u002A*%
X76000000Y-94000000D03*
%TD*%
%TO.C,REF\u002A\u002A*%
X74298735Y-51666552D03*
%TD*%
%TO.C,REF\u002A\u002A*%
X19999958Y-5702269D03*
%TD*%
%TO.C,REF\u002A\u002A*%
X57500042Y-94298085D03*
%TD*%
%TO.C,REF\u002A\u002A*%
X40702844Y-52500113D03*
%TD*%
%TO.C,REF\u002A\u002A*%
X74299051Y-16499886D03*
%TD*%
%TO.C,REF\u002A\u002A*%
X59999957Y-41701559D03*
%TD*%
%TO.C,REF\u002A\u002A*%
X20833291Y-23702150D03*
%TD*%
%TO.C,REF\u002A\u002A*%
X55833290Y-41702150D03*
%TD*%
%TO.C,REF\u002A\u002A*%
X21666625Y-77702032D03*
%TD*%
%TO.C,REF\u002A\u002A*%
X74298103Y-85999886D03*
%TD*%
%TO.C,REF\u002A\u002A*%
X57500042Y-58298085D03*
%TD*%
%TO.C,REF\u002A\u002A*%
X74297155Y-65499886D03*
%TD*%
%TO.C,REF\u002A\u002A*%
X59166624Y-41701678D03*
%TD*%
%TO.C,REF\u002A\u002A*%
X24166709Y-58297849D03*
%TD*%
%TO.C,REF\u002A\u002A*%
X39299051Y-34499886D03*
%TD*%
%TO.C,REF\u002A\u002A*%
X40701896Y-86000113D03*
%TD*%
%TO.C,REF\u002A\u002A*%
X40702212Y-14833447D03*
%TD*%
%TO.C,REF\u002A\u002A*%
X39299051Y-16499886D03*
%TD*%
%TO.C,REF\u002A\u002A*%
X40702844Y-70500113D03*
%TD*%
%TO.C,REF\u002A\u002A*%
X76800000Y-6000000D03*
%TD*%
%TO.C,REF\u002A\u002A*%
X39298419Y-14833219D03*
%TD*%
%TO.C,REF\u002A\u002A*%
X39297471Y-48333219D03*
%TD*%
%TO.C,REF\u002A\u002A*%
X40701580Y-49166780D03*
%TD*%
%TO.C,REF\u002A\u002A*%
X6000000Y-96000000D03*
%TD*%
%TO.C,REF\u002A\u002A*%
X74298419Y-68833219D03*
%TD*%
%TO.C,REF\u002A\u002A*%
X5701581Y-85166780D03*
%TD*%
%TO.C,REF\u002A\u002A*%
X55000042Y-58298440D03*
%TD*%
%TO.C,REF\u002A\u002A*%
X23333290Y-59701796D03*
%TD*%
%TO.C,REF\u002A\u002A*%
X24999957Y-59701559D03*
%TD*%
%TO.C,REF\u002A\u002A*%
X39298103Y-67999886D03*
%TD*%
%TO.C,REF\u002A\u002A*%
X56666624Y-5702033D03*
%TD*%
%TO.C,REF\u002A\u002A*%
X22500042Y-58298085D03*
%TD*%
%TO.C,REF\u002A\u002A*%
X74000000Y-96000000D03*
%TD*%
%TO.C,REF\u002A\u002A*%
X3200000Y-6000000D03*
%TD*%
%TO.C,REF\u002A\u002A*%
X40701580Y-67166780D03*
%TD*%
%TO.C,REF\u002A\u002A*%
X24166709Y-40297849D03*
%TD*%
%TO.C,REF\u002A\u002A*%
X23333290Y-41701796D03*
%TD*%
%TO.C,REF\u002A\u002A*%
X39299051Y-88499886D03*
%TD*%
%TO.C,REF\u002A\u002A*%
X5701581Y-31166780D03*
%TD*%
%TO.C,REF\u002A\u002A*%
X39298735Y-15666552D03*
%TD*%
%TO.C,REF\u002A\u002A*%
X58333375Y-76297967D03*
%TD*%
%TO.C,REF\u002A\u002A*%
X6000000Y-98400000D03*
%TD*%
%TO.C,REF\u002A\u002A*%
X57500042Y-22298085D03*
%TD*%
%TO.C,REF\u002A\u002A*%
X55833375Y-40298321D03*
%TD*%
%TO.C,REF\u002A\u002A*%
X21666710Y-40298203D03*
%TD*%
%TO.C,REF\u002A\u002A*%
X74298419Y-86833219D03*
%TD*%
%TO.C,REF\u002A\u002A*%
X40702844Y-16500113D03*
%TD*%
%TO.C,REF\u002A\u002A*%
X1600000Y-6000000D03*
%TD*%
%TO.C,REF\u002A\u002A*%
X56666709Y-40298203D03*
%TD*%
%TO.C,REF\u002A\u002A*%
X24166709Y-76297849D03*
%TD*%
%TO.C,REF\u002A\u002A*%
X59166624Y-5701679D03*
%TD*%
%TO.C,REF\u002A\u002A*%
X21666710Y-94298203D03*
%TD*%
%TO.C,REF\u002A\u002A*%
X74000000Y-3200000D03*
%TD*%
%TO.C,REF\u002A\u002A*%
X58333290Y-41701796D03*
%TD*%
%TO.C,REF\u002A\u002A*%
X22500042Y-22298085D03*
%TD*%
%TO.C,REF\u002A\u002A*%
X55833290Y-23702150D03*
%TD*%
%TO.C,REF\u002A\u002A*%
X59166709Y-58297849D03*
%TD*%
%TO.C,REF\u002A\u002A*%
X5701897Y-14000113D03*
%TD*%
%TO.C,REF\u002A\u002A*%
X39298103Y-49999886D03*
%TD*%
D11*
%TO.C,REF\u002A\u002A*%
X2500000Y-97500000D03*
%TD*%
D10*
%TO.C,REF\u002A\u002A*%
X5702529Y-69666780D03*
%TD*%
%TO.C,REF\u002A\u002A*%
X74298735Y-87666552D03*
%TD*%
%TO.C,REF\u002A\u002A*%
X5700949Y-29500113D03*
%TD*%
%TO.C,REF\u002A\u002A*%
X5700949Y-47500113D03*
%TD*%
%TO.C,REF\u002A\u002A*%
X39298103Y-31999886D03*
%TD*%
%TO.C,REF\u002A\u002A*%
X74298735Y-33666552D03*
%TD*%
%TO.C,REF\u002A\u002A*%
X74298735Y-15666552D03*
%TD*%
%TO.C,REF\u002A\u002A*%
X39297155Y-65499886D03*
%TD*%
%TO.C,REF\u002A\u002A*%
X74298419Y-14833219D03*
%TD*%
%TO.C,REF\u002A\u002A*%
X5702529Y-15666780D03*
%TD*%
%TO.C,REF\u002A\u002A*%
X55833375Y-22298321D03*
%TD*%
%TO.C,REF\u002A\u002A*%
X40702528Y-15666780D03*
%TD*%
%TO.C,REF\u002A\u002A*%
X6000000Y0D03*
%TD*%
%TO.C,REF\u002A\u002A*%
X40700948Y-47500113D03*
%TD*%
%TO.C,REF\u002A\u002A*%
X74298103Y-31999886D03*
%TD*%
%TO.C,REF\u002A\u002A*%
X2400000Y-6000000D03*
%TD*%
%TO.C,REF\u002A\u002A*%
X39298419Y-86833219D03*
%TD*%
%TO.C,REF\u002A\u002A*%
X40701580Y-85166780D03*
%TD*%
%TO.C,REF\u002A\u002A*%
X39297155Y-11499887D03*
%TD*%
%TO.C,REF\u002A\u002A*%
X74299051Y-88499886D03*
%TD*%
%TO.C,REF\u002A\u002A*%
X40700948Y-29500113D03*
%TD*%
%TO.C,REF\u002A\u002A*%
X20833376Y-94298321D03*
%TD*%
%TO.C,REF\u002A\u002A*%
X39297471Y-30333219D03*
%TD*%
%TO.C,REF\u002A\u002A*%
X58333290Y-5701797D03*
%TD*%
%TO.C,REF\u002A\u002A*%
X55000042Y-40298440D03*
%TD*%
%TO.C,REF\u002A\u002A*%
X39298735Y-33666552D03*
%TD*%
%TO.C,REF\u002A\u002A*%
X74000000Y0D03*
%TD*%
%TO.C,REF\u002A\u002A*%
X40702844Y-34500113D03*
%TD*%
%TO.C,REF\u002A\u002A*%
X74298103Y-13999887D03*
%TD*%
%TO.C,REF\u002A\u002A*%
X58333290Y-77701796D03*
%TD*%
%TO.C,REF\u002A\u002A*%
X39298103Y-85999886D03*
%TD*%
%TO.C,REF\u002A\u002A*%
X55833375Y-76298321D03*
%TD*%
%TO.C,REF\u002A\u002A*%
X5701265Y-30333447D03*
%TD*%
%TO.C,REF\u002A\u002A*%
X5702845Y-16500113D03*
%TD*%
%TO.C,REF\u002A\u002A*%
X55000042Y-22298440D03*
%TD*%
%TO.C,REF\u002A\u002A*%
X57499957Y-59701914D03*
%TD*%
%TO.C,REF\u002A\u002A*%
X57499957Y-5701915D03*
%TD*%
%TO.C,REF\u002A\u002A*%
X5701265Y-66333447D03*
%TD*%
%TO.C,REF\u002A\u002A*%
X77600000Y-94000000D03*
%TD*%
%TO.C,REF\u002A\u002A*%
X40702528Y-87666780D03*
%TD*%
%TO.C,REF\u002A\u002A*%
X74298735Y-69666552D03*
%TD*%
%TO.C,REF\u002A\u002A*%
X23333375Y-76297967D03*
%TD*%
%TO.C,REF\u002A\u002A*%
X20000043Y-22298440D03*
%TD*%
%TO.C,REF\u002A\u002A*%
X40701896Y-14000113D03*
%TD*%
%TO.C,REF\u002A\u002A*%
X5702213Y-14833447D03*
%TD*%
%TO.C,REF\u002A\u002A*%
X40701896Y-50000113D03*
%TD*%
%TO.C,REF\u002A\u002A*%
X5700949Y-83500113D03*
%TD*%
%TO.C,REF\u002A\u002A*%
X58333375Y-94297967D03*
%TD*%
%TO.C,REF\u002A\u002A*%
X6000000Y-4000000D03*
%TD*%
%TO.C,REF\u002A\u002A*%
X76800000Y-94000000D03*
%TD*%
%TO.C,REF\u002A\u002A*%
X40702528Y-33666780D03*
%TD*%
%TO.C,REF\u002A\u002A*%
X19999958Y-77702268D03*
%TD*%
%TO.C,REF\u002A\u002A*%
X6000000Y-99200000D03*
%TD*%
%TO.C,REF\u002A\u002A*%
X22500042Y-40298085D03*
%TD*%
%TO.C,REF\u002A\u002A*%
X24166624Y-41701678D03*
%TD*%
%TO.C,REF\u002A\u002A*%
X25000042Y-76297731D03*
%TD*%
%TO.C,REF\u002A\u002A*%
X59166709Y-40297849D03*
%TD*%
%TO.C,REF\u002A\u002A*%
X59999957Y-59701559D03*
%TD*%
%TO.C,REF\u002A\u002A*%
X25000042Y-40297731D03*
%TD*%
%TO.C,REF\u002A\u002A*%
X74297155Y-83499886D03*
%TD*%
%TO.C,REF\u002A\u002A*%
X6000000Y-96800000D03*
%TD*%
%TO.C,REF\u002A\u002A*%
X59166709Y-94297849D03*
%TD*%
%TO.C,REF\u002A\u002A*%
X5701265Y-48333447D03*
%TD*%
%TO.C,REF\u002A\u002A*%
X74297155Y-47499886D03*
%TD*%
%TO.C,REF\u002A\u002A*%
X6000000Y-100000000D03*
%TD*%
%TO.C,REF\u002A\u002A*%
X40701264Y-84333447D03*
%TD*%
%TO.C,REF\u002A\u002A*%
X25000042Y-58297731D03*
%TD*%
%TO.C,REF\u002A\u002A*%
X74297155Y-29499886D03*
%TD*%
%TO.C,REF\u002A\u002A*%
X74297787Y-31166552D03*
%TD*%
%TO.C,REF\u002A\u002A*%
X5702213Y-50833447D03*
%TD*%
%TO.C,REF\u002A\u002A*%
X80000000Y-94000000D03*
%TD*%
%TO.C,REF\u002A\u002A*%
X5701265Y-12333448D03*
%TD*%
%TO.C,REF\u002A\u002A*%
X39297471Y-66333219D03*
%TD*%
%TO.C,REF\u002A\u002A*%
X5701897Y-86000113D03*
%TD*%
%TO.C,REF\u002A\u002A*%
X56666709Y-22298203D03*
%TD*%
%TO.C,REF\u002A\u002A*%
X59166624Y-23701678D03*
%TD*%
%TO.C,REF\u002A\u002A*%
X56666624Y-77702032D03*
%TD*%
%TO.C,REF\u002A\u002A*%
X24166624Y-23701678D03*
%TD*%
%TO.C,REF\u002A\u002A*%
X40701264Y-12333448D03*
%TD*%
%TO.C,REF\u002A\u002A*%
X24999957Y-5701560D03*
%TD*%
D11*
%TO.C,REF\u002A\u002A*%
X77500000Y-2500000D03*
%TD*%
D10*
%TO.C,REF\u002A\u002A*%
X20000043Y-94298440D03*
%TD*%
%TO.C,REF\u002A\u002A*%
X79200000Y-6000000D03*
%TD*%
%TO.C,REF\u002A\u002A*%
X25000042Y-94297731D03*
%TD*%
%TO.C,REF\u002A\u002A*%
X40702528Y-51666780D03*
%TD*%
%TO.C,REF\u002A\u002A*%
X1600000Y-94000000D03*
%TD*%
%TO.C,REF\u002A\u002A*%
X77600000Y-6000000D03*
%TD*%
%TO.C,REF\u002A\u002A*%
X21666625Y-23702032D03*
%TD*%
%TO.C,REF\u002A\u002A*%
X39297155Y-29499886D03*
%TD*%
%TO.C,REF\u002A\u002A*%
X4000000Y-6000000D03*
%TD*%
%TO.C,REF\u002A\u002A*%
X60000042Y-40297731D03*
%TD*%
%TO.C,REF\u002A\u002A*%
X21666625Y-59702032D03*
%TD*%
%TO.C,REF\u002A\u002A*%
X5702213Y-86833447D03*
%TD*%
%TO.C,REF\u002A\u002A*%
X39297787Y-49166552D03*
%TD*%
%TO.C,REF\u002A\u002A*%
X800000Y-94000000D03*
%TD*%
%TO.C,REF\u002A\u002A*%
X40700948Y-83500113D03*
%TD*%
%TO.C,REF\u002A\u002A*%
X22499958Y-59701914D03*
%TD*%
%TO.C,REF\u002A\u002A*%
X5702529Y-51666780D03*
%TD*%
%TO.C,REF\u002A\u002A*%
X24166709Y-94297849D03*
%TD*%
%TO.C,REF\u002A\u002A*%
X59999957Y-23701559D03*
%TD*%
%TO.C,REF\u002A\u002A*%
X3200000Y-94000000D03*
%TD*%
%TO.C,REF\u002A\u002A*%
X74000000Y-96800000D03*
%TD*%
%TO.C,REF\u002A\u002A*%
X55833290Y-59702150D03*
%TD*%
%TO.C,REF\u002A\u002A*%
X39299051Y-52499886D03*
%TD*%
%TO.C,REF\u002A\u002A*%
X24999957Y-77701559D03*
%TD*%
%TO.C,REF\u002A\u002A*%
X74297471Y-84333219D03*
%TD*%
%TO.C,REF\u002A\u002A*%
X74299051Y-34499886D03*
%TD*%
%TO.C,REF\u002A\u002A*%
X5701581Y-13166781D03*
%TD*%
%TO.C,REF\u002A\u002A*%
X19999958Y-59702268D03*
%TD*%
%TO.C,REF\u002A\u002A*%
X5700949Y-65500113D03*
%TD*%
%TO.C,REF\u002A\u002A*%
X74297787Y-67166552D03*
%TD*%
%TO.C,REF\u002A\u002A*%
X57499957Y-77701914D03*
%TD*%
%TO.C,REF\u002A\u002A*%
X40702212Y-68833447D03*
%TD*%
%TO.C,REF\u002A\u002A*%
X40702212Y-86833447D03*
%TD*%
%TO.C,REF\u002A\u002A*%
X58333290Y-23701796D03*
%TD*%
%TO.C,REF\u002A\u002A*%
X56666624Y-41702032D03*
%TD*%
%TO.C,REF\u002A\u002A*%
X23333375Y-22297967D03*
%TD*%
%TO.C,REF\u002A\u002A*%
X23333375Y-40297967D03*
%TD*%
%TO.C,REF\u002A\u002A*%
X6000000Y-800000D03*
%TD*%
%TO.C,REF\u002A\u002A*%
X57499957Y-41701914D03*
%TD*%
%TO.C,REF\u002A\u002A*%
X59166624Y-59701678D03*
%TD*%
%TO.C,REF\u002A\u002A*%
X74000000Y-100000000D03*
%TD*%
%TO.C,REF\u002A\u002A*%
X56666709Y-76298203D03*
%TD*%
%TO.C,REF\u002A\u002A*%
X40700948Y-65500113D03*
%TD*%
%TO.C,REF\u002A\u002A*%
X74297787Y-85166552D03*
%TD*%
%TO.C,REF\u002A\u002A*%
X78400000Y-94000000D03*
%TD*%
%TO.C,REF\u002A\u002A*%
X56666709Y-94298203D03*
%TD*%
%TO.C,REF\u002A\u002A*%
X39298735Y-51666552D03*
%TD*%
%TO.C,REF\u002A\u002A*%
X74298103Y-67999886D03*
%TD*%
%TO.C,REF\u002A\u002A*%
X5701265Y-84333447D03*
%TD*%
%TO.C,REF\u002A\u002A*%
X60000042Y-76297731D03*
%TD*%
M02*
