%TF.GenerationSoftware,KiCad,Pcbnew,7.0.7-7.0.7~ubuntu22.04.1*%
%TF.CreationDate,2023-09-08T15:57:27+01:00*%
%TF.ProjectId,bridge,62726964-6765-42e6-9b69-6361645f7063,rev?*%
%TF.SameCoordinates,Original*%
%TF.FileFunction,Legend,Top*%
%TF.FilePolarity,Positive*%
%FSLAX46Y46*%
G04 Gerber Fmt 4.6, Leading zero omitted, Abs format (unit mm)*
G04 Created by KiCad (PCBNEW 7.0.7-7.0.7~ubuntu22.04.1) date 2023-09-08 15:57:27*
%MOMM*%
%LPD*%
G01*
G04 APERTURE LIST*
G04 Aperture macros list*
%AMFreePoly0*
4,1,19,0.500000,-0.750000,0.000000,-0.750000,0.000000,-0.744911,-0.071157,-0.744911,-0.207708,-0.704816,-0.327430,-0.627875,-0.420627,-0.520320,-0.479746,-0.390866,-0.500000,-0.250000,-0.500000,0.250000,-0.479746,0.390866,-0.420627,0.520320,-0.327430,0.627875,-0.207708,0.704816,-0.071157,0.744911,0.000000,0.744911,0.000000,0.750000,0.500000,0.750000,0.500000,-0.750000,0.500000,-0.750000,
$1*%
%AMFreePoly1*
4,1,19,0.000000,0.744911,0.071157,0.744911,0.207708,0.704816,0.327430,0.627875,0.420627,0.520320,0.479746,0.390866,0.500000,0.250000,0.500000,-0.250000,0.479746,-0.390866,0.420627,-0.520320,0.327430,-0.627875,0.207708,-0.704816,0.071157,-0.744911,0.000000,-0.744911,0.000000,-0.750000,-0.500000,-0.750000,-0.500000,0.750000,0.000000,0.750000,0.000000,0.744911,0.000000,0.744911,
$1*%
G04 Aperture macros list end*
%ADD10C,2.000000*%
%ADD11C,0.120000*%
%ADD12R,1.700000X1.700000*%
%ADD13FreePoly0,180.000000*%
%ADD14FreePoly1,180.000000*%
%ADD15R,1.600200X0.508000*%
%ADD16R,2.895600X1.397000*%
G04 APERTURE END LIST*
D10*
X154000000Y-90000000D02*
G75*
G03*
X150000000Y-86000000I-4000000J0D01*
G01*
D11*
X118570000Y-87140000D02*
X121110000Y-87140000D01*
D10*
X150000000Y-134000000D02*
G75*
G03*
X154000000Y-130000000I0J4000000D01*
G01*
D11*
X138890000Y-132860000D02*
X141430000Y-132860000D01*
D10*
X106000000Y-130000000D02*
G75*
G03*
X110000000Y-134000000I4000000J0D01*
G01*
D11*
X138890000Y-87140000D02*
X141430000Y-87140000D01*
D10*
X110000000Y-86000000D02*
G75*
G03*
X106000000Y-90000000I0J-4000000D01*
G01*
D11*
X118570000Y-132860000D02*
X121110000Y-132860000D01*
%TO.C,kibuzzard-63B56FB5*%
G36*
X138433276Y-122255579D02*
G01*
X135456714Y-122255579D01*
X135332412Y-122255579D01*
X134483735Y-122255579D01*
X134107974Y-122255579D01*
X131726724Y-122255579D01*
X131726724Y-121242119D01*
X134107974Y-121242119D01*
X134152979Y-121330702D01*
X134239419Y-121380708D01*
X134339431Y-121336417D01*
X134358005Y-121319272D01*
X134358005Y-121829336D01*
X134360148Y-121881485D01*
X134373721Y-121920776D01*
X134411940Y-121948636D01*
X134483735Y-121957923D01*
X134557316Y-121948279D01*
X134595177Y-121919347D01*
X134608751Y-121881485D01*
X134610894Y-121832193D01*
X134610894Y-121536442D01*
X134689475Y-121536442D01*
X134696619Y-121597878D01*
X134735552Y-121638597D01*
X134815205Y-121652171D01*
X135202396Y-121652171D01*
X135202396Y-121826478D01*
X135210969Y-121900773D01*
X135229543Y-121929348D01*
X135266690Y-121946493D01*
X135332412Y-121953637D01*
X135401707Y-121945064D01*
X135443141Y-121910060D01*
X135456714Y-121827907D01*
X135456714Y-121033522D01*
X135454571Y-120983516D01*
X135440998Y-120945654D01*
X135402421Y-120915650D01*
X135330269Y-120906363D01*
X135257403Y-120914221D01*
X135218113Y-120942082D01*
X135204539Y-120977801D01*
X135202396Y-121026378D01*
X135202396Y-121416427D01*
X134969510Y-121416427D01*
X135056664Y-121067812D01*
X135058092Y-121063526D01*
X135068094Y-121003518D01*
X135043091Y-120948511D01*
X134968081Y-120912078D01*
X134902359Y-120902077D01*
X134853067Y-120917793D01*
X134827349Y-120950654D01*
X134812347Y-121000661D01*
X134693761Y-121479292D01*
X134689475Y-121536442D01*
X134610894Y-121536442D01*
X134610894Y-121036379D01*
X134603750Y-120960656D01*
X134583747Y-120929938D01*
X134546600Y-120913507D01*
X134478734Y-120906363D01*
X134398010Y-120943511D01*
X134393724Y-120946368D01*
X134159409Y-121157823D01*
X134107974Y-121242119D01*
X131726724Y-121242119D01*
X131726724Y-120604421D01*
X134107974Y-120604421D01*
X135456714Y-120604421D01*
X138433276Y-120604421D01*
X138433276Y-122255579D01*
G37*
%TO.C,TP15*%
X141430000Y-122700000D02*
X141430000Y-125240000D01*
X138890000Y-122700000D02*
X138890000Y-125240000D01*
%TO.C,JP9*%
X131400000Y-108430000D02*
X131400000Y-109030000D01*
X130700000Y-109730000D02*
X129300000Y-109730000D01*
X129300000Y-107730000D02*
X130700000Y-107730000D01*
X128600000Y-109030000D02*
X128600000Y-108430000D01*
X130700000Y-109730000D02*
G75*
G03*
X131400000Y-109030000I1J699999D01*
G01*
X131400000Y-108430000D02*
G75*
G03*
X130700000Y-107730000I-699999J1D01*
G01*
X128600000Y-109030000D02*
G75*
G03*
X129300000Y-109730000I700000J0D01*
G01*
X129300000Y-107730000D02*
G75*
G03*
X128600000Y-108430000I0J-700000D01*
G01*
%TO.C,kibuzzard-63B56FCC*%
G36*
X135143996Y-111529341D02*
G01*
X135189537Y-111583187D01*
X135216862Y-111672931D01*
X135225971Y-111798571D01*
X135225971Y-111807144D01*
X135216773Y-111929659D01*
X135189180Y-112017170D01*
X135143192Y-112069677D01*
X135078809Y-112087179D01*
X135015676Y-112069185D01*
X134970582Y-112015205D01*
X134943525Y-111925239D01*
X134934506Y-111799286D01*
X134943614Y-111673332D01*
X134970939Y-111583366D01*
X135016480Y-111529386D01*
X135080238Y-111511393D01*
X135143996Y-111529341D01*
G37*
G36*
X138455422Y-112639153D02*
G01*
X135478859Y-112639153D01*
X135081667Y-112639153D01*
X134461589Y-112639153D01*
X134085828Y-112639153D01*
X131704578Y-112639153D01*
X131704578Y-111608548D01*
X134085828Y-111608548D01*
X134130834Y-111697130D01*
X134217273Y-111747136D01*
X134317286Y-111702845D01*
X134335859Y-111685700D01*
X134335859Y-112195764D01*
X134338002Y-112247913D01*
X134351576Y-112287204D01*
X134389795Y-112315064D01*
X134461589Y-112324351D01*
X134535170Y-112314707D01*
X134573032Y-112285775D01*
X134586605Y-112247913D01*
X134588748Y-112198621D01*
X134588748Y-111798571D01*
X134681617Y-111798571D01*
X134686221Y-111898743D01*
X134700032Y-111991611D01*
X134723051Y-112077178D01*
X134753947Y-112148972D01*
X134792345Y-112210051D01*
X134842708Y-112261308D01*
X134909502Y-112303634D01*
X134990048Y-112332031D01*
X135081667Y-112341496D01*
X135172928Y-112332209D01*
X135252403Y-112304349D01*
X135317946Y-112262201D01*
X135367417Y-112210051D01*
X135416173Y-112127630D01*
X135450999Y-112031815D01*
X135471894Y-111922605D01*
X135478859Y-111800000D01*
X135474097Y-111705544D01*
X135459809Y-111614580D01*
X135435997Y-111527109D01*
X135406172Y-111454957D01*
X135368131Y-111392806D01*
X135318125Y-111340300D01*
X135252403Y-111297080D01*
X135172571Y-111268148D01*
X135080238Y-111258504D01*
X134987548Y-111268326D01*
X134906645Y-111297794D01*
X134840030Y-111341728D01*
X134790202Y-111394949D01*
X134750733Y-111463708D01*
X134715192Y-111554255D01*
X134696539Y-111626486D01*
X134685347Y-111707925D01*
X134681617Y-111798571D01*
X134588748Y-111798571D01*
X134588748Y-111402808D01*
X134581604Y-111327084D01*
X134561602Y-111296366D01*
X134524454Y-111279935D01*
X134456589Y-111272791D01*
X134375864Y-111309939D01*
X134371578Y-111312796D01*
X134137263Y-111524251D01*
X134085828Y-111608548D01*
X131704578Y-111608548D01*
X131704578Y-110960847D01*
X134085828Y-110960847D01*
X135478859Y-110960847D01*
X138455422Y-110960847D01*
X138455422Y-112639153D01*
G37*
%TO.C,kibuzzard-63B56F8D*%
G36*
X135169297Y-101251446D02*
G01*
X135194300Y-101312882D01*
X135166797Y-101384677D01*
X135084286Y-101408609D01*
X134992846Y-101375747D01*
X134979273Y-101344315D01*
X134975701Y-101302881D01*
X135004991Y-101249303D01*
X135089287Y-101222871D01*
X135169297Y-101251446D01*
G37*
G36*
X138420894Y-101940580D02*
G01*
X135444331Y-101940580D01*
X135090001Y-101940580D01*
X134715669Y-101940580D01*
X131739106Y-101940580D01*
X131739106Y-101215727D01*
X134715669Y-101215727D01*
X134726146Y-101333758D01*
X134757579Y-101436390D01*
X134809966Y-101523623D01*
X134882991Y-101589901D01*
X134976336Y-101629668D01*
X135090001Y-101642924D01*
X135183267Y-101632129D01*
X135266849Y-101599744D01*
X135340747Y-101545769D01*
X135398294Y-101475760D01*
X135432822Y-101395274D01*
X135444331Y-101304310D01*
X135433139Y-101228824D01*
X135399564Y-101158577D01*
X135343604Y-101093569D01*
X135271929Y-101041579D01*
X135191204Y-101010384D01*
X135101431Y-100999986D01*
X134995704Y-101024275D01*
X135002847Y-101004272D01*
X135029279Y-100954266D01*
X135080000Y-100898545D01*
X135166439Y-100849967D01*
X135280025Y-100829965D01*
X135362892Y-100821392D01*
X135391467Y-100802819D01*
X135408612Y-100765671D01*
X135415756Y-100699949D01*
X135407184Y-100631369D01*
X135373608Y-100590649D01*
X135294312Y-100577076D01*
X135191414Y-100584391D01*
X135097602Y-100606337D01*
X135012877Y-100642913D01*
X134937239Y-100694119D01*
X134870688Y-100759956D01*
X134814881Y-100836709D01*
X134771476Y-100920662D01*
X134740472Y-101011816D01*
X134721870Y-101110171D01*
X134715669Y-101215727D01*
X131739106Y-101215727D01*
X131739106Y-100279420D01*
X134715669Y-100279420D01*
X135444331Y-100279420D01*
X138420894Y-100279420D01*
X138420894Y-101940580D01*
G37*
%TO.C,JP14*%
X131400000Y-121130000D02*
X131400000Y-121730000D01*
X130700000Y-122430000D02*
X129300000Y-122430000D01*
X129300000Y-120430000D02*
X130700000Y-120430000D01*
X128600000Y-121730000D02*
X128600000Y-121130000D01*
X130700000Y-122430000D02*
G75*
G03*
X131400000Y-121730000I1J699999D01*
G01*
X131400000Y-121130000D02*
G75*
G03*
X130700000Y-120430000I-699999J1D01*
G01*
X128600000Y-121730000D02*
G75*
G03*
X129300000Y-122430000I700000J0D01*
G01*
X129300000Y-120430000D02*
G75*
G03*
X128600000Y-121130000I0J-700000D01*
G01*
%TO.C,kibuzzard-63B56F28*%
G36*
X128299232Y-124802723D02*
G01*
X125322669Y-124802723D01*
X124964053Y-124802723D01*
X124416842Y-124802723D01*
X124041081Y-124802723D01*
X121540768Y-124802723D01*
X121540768Y-123772118D01*
X124041081Y-123772118D01*
X124086086Y-123860701D01*
X124172526Y-123910707D01*
X124272538Y-123866416D01*
X124291112Y-123849271D01*
X124291112Y-124359334D01*
X124293255Y-124411484D01*
X124306828Y-124450774D01*
X124345047Y-124478635D01*
X124416842Y-124487922D01*
X124490422Y-124478278D01*
X124528284Y-124449346D01*
X124541857Y-124411484D01*
X124544001Y-124362192D01*
X124544001Y-124315043D01*
X124622582Y-124315043D01*
X124676874Y-124400768D01*
X124688304Y-124410769D01*
X124724023Y-124437916D01*
X124798318Y-124475222D01*
X124878328Y-124497606D01*
X124964053Y-124505067D01*
X125060414Y-124493240D01*
X125145663Y-124457759D01*
X125219799Y-124398625D01*
X125276949Y-124323060D01*
X125311239Y-124238288D01*
X125322669Y-124144308D01*
X125310604Y-124050804D01*
X125274409Y-123967460D01*
X125214084Y-123894276D01*
X125138678Y-123837523D01*
X125057239Y-123803471D01*
X124969768Y-123792121D01*
X124919762Y-123794978D01*
X124934049Y-123686393D01*
X125184081Y-123686393D01*
X125230515Y-123684250D01*
X125265519Y-123670677D01*
X125292308Y-123635315D01*
X125301238Y-123566378D01*
X125291594Y-123490654D01*
X125262662Y-123452078D01*
X125225514Y-123438505D01*
X125175508Y-123436362D01*
X125041206Y-123436362D01*
X124824036Y-123434933D01*
X124766171Y-123448506D01*
X124729024Y-123479224D01*
X124708307Y-123517801D01*
X124698306Y-123547804D01*
X124690090Y-123607097D01*
X124668302Y-123767832D01*
X124646871Y-123931067D01*
X124639727Y-123997861D01*
X124655443Y-124032865D01*
X124721880Y-124076442D01*
X124811891Y-124103588D01*
X124889758Y-124070727D01*
X124958338Y-124045009D01*
X125034776Y-124072870D01*
X125068352Y-124148594D01*
X125037634Y-124223603D01*
X124943336Y-124250749D01*
X124854039Y-124220746D01*
X124758313Y-124175026D01*
X124675446Y-124222174D01*
X124622582Y-124315043D01*
X124544001Y-124315043D01*
X124544001Y-123566378D01*
X124536857Y-123490654D01*
X124516854Y-123459936D01*
X124479707Y-123443506D01*
X124411841Y-123436362D01*
X124331117Y-123473509D01*
X124326831Y-123476367D01*
X124092516Y-123687822D01*
X124041081Y-123772118D01*
X121540768Y-123772118D01*
X121540768Y-123137277D01*
X124041081Y-123137277D01*
X125322669Y-123137277D01*
X128299232Y-123137277D01*
X128299232Y-124802723D01*
G37*
%TO.C,TP19*%
X118570000Y-89680000D02*
X118570000Y-87140000D01*
X121110000Y-89680000D02*
X121110000Y-87140000D01*
%TO.C,TP12*%
X141430000Y-115080000D02*
X141430000Y-117620000D01*
X138890000Y-115080000D02*
X138890000Y-117620000D01*
%TO.C,TP7*%
X141430000Y-102380000D02*
X141430000Y-104920000D01*
X138890000Y-102380000D02*
X138890000Y-104920000D01*
%TO.C,kibuzzard-63B56D06*%
G36*
X128295184Y-94328438D02*
G01*
X125318621Y-94328438D01*
X124917143Y-94328438D01*
X124521379Y-94328438D01*
X121544816Y-94328438D01*
X121544816Y-93700741D01*
X124521379Y-93700741D01*
X124537095Y-93777893D01*
X124539952Y-93792181D01*
X124555669Y-93829328D01*
X124591030Y-93886121D01*
X124631393Y-93930769D01*
X124713943Y-93986332D01*
X124809193Y-94019669D01*
X124917143Y-94030782D01*
X125025886Y-94019749D01*
X125121613Y-93986649D01*
X125204321Y-93931484D01*
X125267821Y-93859332D01*
X125305921Y-93775274D01*
X125318621Y-93679309D01*
X125306834Y-93606443D01*
X125271473Y-93542149D01*
X125226467Y-93495715D01*
X125184319Y-93464997D01*
X125184319Y-93454996D01*
X125246231Y-93410149D01*
X125283379Y-93349903D01*
X125295761Y-93274259D01*
X125284490Y-93193693D01*
X125250676Y-93118684D01*
X125194320Y-93049231D01*
X125118438Y-92993668D01*
X125026045Y-92960331D01*
X124917143Y-92949218D01*
X124846241Y-92954219D01*
X124782126Y-92969221D01*
X124687828Y-93013512D01*
X124628535Y-93069947D01*
X124597103Y-93114953D01*
X124564241Y-93212108D01*
X124582101Y-93263186D01*
X124635679Y-93307834D01*
X124714260Y-93333552D01*
X124768553Y-93315693D01*
X124808558Y-93262114D01*
X124817130Y-93244969D01*
X124854278Y-93210679D01*
X124935002Y-93193534D01*
X125014298Y-93220681D01*
X125042873Y-93277831D01*
X125015726Y-93319622D01*
X124934288Y-93333552D01*
X124859993Y-93340696D01*
X124820345Y-93379629D01*
X124807129Y-93459282D01*
X124816773Y-93532505D01*
X124845705Y-93569296D01*
X124882853Y-93583583D01*
X124947861Y-93586441D01*
X125030728Y-93615730D01*
X125065733Y-93683596D01*
X125030014Y-93752890D01*
X124984294Y-93775929D01*
X124918571Y-93783608D01*
X124858564Y-93775036D01*
X124779983Y-93706456D01*
X124737120Y-93632161D01*
X124661396Y-93617873D01*
X124556383Y-93638590D01*
X124521379Y-93700741D01*
X121544816Y-93700741D01*
X121544816Y-92651562D01*
X124521379Y-92651562D01*
X125318621Y-92651562D01*
X128295184Y-92651562D01*
X128295184Y-94328438D01*
G37*
%TO.C,kibuzzard-63B56F37*%
G36*
X128268990Y-129873436D02*
G01*
X125292428Y-129873436D01*
X124808081Y-129873436D01*
X124328021Y-129873436D01*
X123952260Y-129873436D01*
X121571010Y-129873436D01*
X121571010Y-128859976D01*
X123952260Y-128859976D01*
X123997266Y-128948559D01*
X124083705Y-128998565D01*
X124183717Y-128954274D01*
X124202291Y-128937129D01*
X124202291Y-129447192D01*
X124204434Y-129499342D01*
X124218007Y-129538633D01*
X124256227Y-129566493D01*
X124328021Y-129575780D01*
X124401602Y-129566136D01*
X124439464Y-129537204D01*
X124453037Y-129499342D01*
X124455180Y-129450050D01*
X124455180Y-128654236D01*
X124455045Y-128652808D01*
X124533761Y-128652808D01*
X124542334Y-128724245D01*
X124576624Y-128765679D01*
X124659491Y-128779966D01*
X124985246Y-128779966D01*
X124953814Y-128844974D01*
X124919167Y-128896052D01*
X124878090Y-128956417D01*
X124833799Y-129024461D01*
X124789507Y-129098578D01*
X124748431Y-129180909D01*
X124713784Y-129273599D01*
X124690209Y-129370219D01*
X124682351Y-129464337D01*
X124684494Y-129512201D01*
X124698068Y-129544348D01*
X124735929Y-129567208D01*
X124808081Y-129572923D01*
X124880233Y-129567208D01*
X124918095Y-129545062D01*
X124932383Y-129513629D01*
X124935240Y-129467195D01*
X124943098Y-129400044D01*
X124966672Y-129322891D01*
X125005963Y-129235738D01*
X125060970Y-129138583D01*
X125113655Y-129054643D01*
X125165983Y-128971419D01*
X125214382Y-128888015D01*
X125255280Y-128803541D01*
X125283141Y-128725495D01*
X125292428Y-128661380D01*
X125283855Y-128581370D01*
X125245993Y-128540651D01*
X125166698Y-128527077D01*
X124652348Y-128527077D01*
X124569480Y-128544222D01*
X124542334Y-128581370D01*
X124533761Y-128652808D01*
X124455045Y-128652808D01*
X124448036Y-128578512D01*
X124428034Y-128547794D01*
X124390886Y-128531364D01*
X124323021Y-128524220D01*
X124242296Y-128561367D01*
X124238010Y-128564225D01*
X124003695Y-128775680D01*
X123952260Y-128859976D01*
X121571010Y-128859976D01*
X121571010Y-128226564D01*
X123952260Y-128226564D01*
X125292428Y-128226564D01*
X128268990Y-128226564D01*
X128268990Y-129873436D01*
G37*
%TO.C,TP31*%
X118570000Y-120160000D02*
X118570000Y-117620000D01*
X121110000Y-120160000D02*
X121110000Y-117620000D01*
%TO.C,TP10*%
X141430000Y-110000000D02*
X141430000Y-112540000D01*
X138890000Y-110000000D02*
X138890000Y-112540000D01*
%TO.C,TP35*%
X118570000Y-130320000D02*
X118570000Y-127780000D01*
X121110000Y-130320000D02*
X121110000Y-127780000D01*
%TO.C,TP11*%
X141430000Y-112540000D02*
X141430000Y-115080000D01*
X138890000Y-112540000D02*
X138890000Y-115080000D01*
%TO.C,TP33*%
X118570000Y-125240000D02*
X118570000Y-122700000D01*
X121110000Y-125240000D02*
X121110000Y-122700000D01*
%TO.C,TP5*%
X141430000Y-97300000D02*
X141430000Y-99840000D01*
X138890000Y-97300000D02*
X138890000Y-99840000D01*
%TO.C,kibuzzard-63B56D6D*%
G36*
X128275896Y-104470579D02*
G01*
X125299333Y-104470579D01*
X124814987Y-104470579D01*
X124540667Y-104470579D01*
X121564104Y-104470579D01*
X121564104Y-103252808D01*
X124540667Y-103252808D01*
X124549239Y-103324245D01*
X124583529Y-103365679D01*
X124666397Y-103379966D01*
X124992152Y-103379966D01*
X124960719Y-103444974D01*
X124926072Y-103496052D01*
X124884996Y-103556417D01*
X124840704Y-103624461D01*
X124796413Y-103698578D01*
X124755337Y-103780909D01*
X124720689Y-103873599D01*
X124697115Y-103970219D01*
X124689257Y-104064337D01*
X124691400Y-104112201D01*
X124704973Y-104144348D01*
X124742835Y-104167208D01*
X124814987Y-104172923D01*
X124887139Y-104167208D01*
X124925001Y-104145062D01*
X124939288Y-104113629D01*
X124942146Y-104067195D01*
X124950004Y-104000044D01*
X124973578Y-103922891D01*
X125012869Y-103835738D01*
X125067876Y-103738583D01*
X125120561Y-103654643D01*
X125172889Y-103571419D01*
X125221288Y-103488015D01*
X125262186Y-103403541D01*
X125290046Y-103325495D01*
X125299333Y-103261380D01*
X125290761Y-103181370D01*
X125252899Y-103140651D01*
X125173603Y-103127077D01*
X124659253Y-103127077D01*
X124576386Y-103144222D01*
X124549239Y-103181370D01*
X124540667Y-103252808D01*
X121564104Y-103252808D01*
X121564104Y-102829421D01*
X124540667Y-102829421D01*
X125299333Y-102829421D01*
X128275896Y-102829421D01*
X128275896Y-104470579D01*
G37*
%TO.C,kibuzzard-63B56EBC*%
G36*
X128289945Y-114633436D02*
G01*
X125313383Y-114633436D01*
X125186224Y-114633436D01*
X124604723Y-114633436D01*
X124228961Y-114633436D01*
X121550055Y-114633436D01*
X121550055Y-113619976D01*
X124228961Y-113619976D01*
X124273967Y-113708559D01*
X124360406Y-113758565D01*
X124460419Y-113714274D01*
X124478993Y-113697129D01*
X124478993Y-114207192D01*
X124481136Y-114259342D01*
X124494709Y-114298633D01*
X124532928Y-114326493D01*
X124604723Y-114335780D01*
X124678303Y-114326136D01*
X124716165Y-114297204D01*
X124729738Y-114259342D01*
X124731881Y-114210050D01*
X124731881Y-113619976D01*
X124810463Y-113619976D01*
X124855468Y-113708559D01*
X124941908Y-113758565D01*
X125041920Y-113714274D01*
X125060494Y-113697129D01*
X125060494Y-114207192D01*
X125062637Y-114259342D01*
X125076210Y-114298633D01*
X125114429Y-114326493D01*
X125186224Y-114335780D01*
X125259804Y-114326136D01*
X125297666Y-114297204D01*
X125311239Y-114259342D01*
X125313383Y-114210050D01*
X125313383Y-113414236D01*
X125306239Y-113338512D01*
X125286236Y-113307794D01*
X125249089Y-113291364D01*
X125181223Y-113284220D01*
X125100499Y-113321367D01*
X125096213Y-113324225D01*
X124861898Y-113535680D01*
X124810463Y-113619976D01*
X124731881Y-113619976D01*
X124731881Y-113414236D01*
X124724738Y-113338512D01*
X124704735Y-113307794D01*
X124667588Y-113291364D01*
X124599722Y-113284220D01*
X124518998Y-113321367D01*
X124514711Y-113324225D01*
X124280396Y-113535680D01*
X124228961Y-113619976D01*
X121550055Y-113619976D01*
X121550055Y-112986564D01*
X124228961Y-112986564D01*
X125313382Y-112986564D01*
X128289945Y-112986564D01*
X128289945Y-114633436D01*
G37*
%TO.C,JP11*%
X131400000Y-113510000D02*
X131400000Y-114110000D01*
X130700000Y-114810000D02*
X129300000Y-114810000D01*
X129300000Y-112810000D02*
X130700000Y-112810000D01*
X128600000Y-114110000D02*
X128600000Y-113510000D01*
X130700000Y-114810000D02*
G75*
G03*
X131400000Y-114110000I1J699999D01*
G01*
X131400000Y-113510000D02*
G75*
G03*
X130700000Y-112810000I-699999J1D01*
G01*
X128600000Y-114110000D02*
G75*
G03*
X129300000Y-114810000I700000J0D01*
G01*
X129300000Y-112810000D02*
G75*
G03*
X128600000Y-113510000I0J-700000D01*
G01*
%TO.C,JP5*%
X131400000Y-98270000D02*
X131400000Y-98870000D01*
X130700000Y-99570000D02*
X129300000Y-99570000D01*
X129300000Y-97570000D02*
X130700000Y-97570000D01*
X128600000Y-98870000D02*
X128600000Y-98270000D01*
X130700000Y-99570000D02*
G75*
G03*
X131400000Y-98870000I1J699999D01*
G01*
X131400000Y-98270000D02*
G75*
G03*
X130700000Y-97570000I-699999J1D01*
G01*
X128600000Y-98870000D02*
G75*
G03*
X129300000Y-99570000I700000J0D01*
G01*
X129300000Y-97570000D02*
G75*
G03*
X128600000Y-98270000I0J-700000D01*
G01*
%TO.C,TP13*%
X141430000Y-117620000D02*
X141430000Y-120160000D01*
X138890000Y-117620000D02*
X138890000Y-120160000D01*
%TO.C,TP28*%
X118570000Y-112540000D02*
X118570000Y-110000000D01*
X121110000Y-112540000D02*
X121110000Y-110000000D01*
%TO.C,J1*%
X148095000Y-116870700D02*
X148259619Y-116870700D01*
X151778000Y-115265999D02*
X151778000Y-116027999D01*
X151778000Y-115265999D02*
X151016000Y-114757999D01*
X151016000Y-114757999D02*
X151016000Y-114630999D01*
X148095000Y-114336740D02*
X148095000Y-116870700D01*
X151016000Y-105232999D02*
X151016000Y-105486999D01*
X151778000Y-104724999D02*
X151016000Y-105232999D01*
X151778000Y-104724999D02*
X151778000Y-103962999D01*
X148095000Y-103129300D02*
X148095000Y-105163261D01*
X148259619Y-103129300D02*
X148095000Y-103129300D01*
%TO.C,TP16*%
X141430000Y-125240000D02*
X141430000Y-127780000D01*
X138890000Y-125240000D02*
X138890000Y-127780000D01*
%TO.C,TP1*%
X141430000Y-87140000D02*
X141430000Y-89680000D01*
X138890000Y-87140000D02*
X138890000Y-89680000D01*
%TO.C,TP20*%
X118570000Y-92220000D02*
X118570000Y-89680000D01*
X121110000Y-92220000D02*
X121110000Y-89680000D01*
%TO.C,TP26*%
X118570000Y-107460000D02*
X118570000Y-104920000D01*
X121110000Y-107460000D02*
X121110000Y-104920000D01*
%TO.C,JP7*%
X131400000Y-103350000D02*
X131400000Y-103950000D01*
X130700000Y-104650000D02*
X129300000Y-104650000D01*
X129300000Y-102650000D02*
X130700000Y-102650000D01*
X128600000Y-103950000D02*
X128600000Y-103350000D01*
X130700000Y-104650000D02*
G75*
G03*
X131400000Y-103950000I1J699999D01*
G01*
X131400000Y-103350000D02*
G75*
G03*
X130700000Y-102650000I-699999J1D01*
G01*
X128600000Y-103950000D02*
G75*
G03*
X129300000Y-104650000I700000J0D01*
G01*
X129300000Y-102650000D02*
G75*
G03*
X128600000Y-103350000I0J-700000D01*
G01*
%TO.C,TP25*%
X118570000Y-104920000D02*
X118570000Y-102380000D01*
X121110000Y-104920000D02*
X121110000Y-102380000D01*
%TO.C,TP4*%
X141430000Y-94760000D02*
X141430000Y-97300000D01*
X138890000Y-94760000D02*
X138890000Y-97300000D01*
%TO.C,JP1*%
X131400000Y-88110000D02*
X131400000Y-88710000D01*
X130700000Y-89410000D02*
X129300000Y-89410000D01*
X129300000Y-87410000D02*
X130700000Y-87410000D01*
X128600000Y-88710000D02*
X128600000Y-88110000D01*
X130700000Y-89410000D02*
G75*
G03*
X131400000Y-88710000I1J699999D01*
G01*
X131400000Y-88110000D02*
G75*
G03*
X130700000Y-87410000I-699999J1D01*
G01*
X128600000Y-88710000D02*
G75*
G03*
X129300000Y-89410000I700000J0D01*
G01*
X129300000Y-87410000D02*
G75*
G03*
X128600000Y-88110000I0J-700000D01*
G01*
%TO.C,kibuzzard-63B56FC4*%
G36*
X135175250Y-131711444D02*
G01*
X135207397Y-131785024D01*
X135175964Y-131858605D01*
X135081667Y-131892895D01*
X134985941Y-131858605D01*
X134953079Y-131784310D01*
X134985941Y-131710729D01*
X135080953Y-131677154D01*
X135175250Y-131711444D01*
G37*
G36*
X135151676Y-131313537D02*
G01*
X135175964Y-131367115D01*
X135152390Y-131421408D01*
X135082381Y-131447125D01*
X135010944Y-131421408D01*
X134985941Y-131366401D01*
X135008801Y-131312823D01*
X135079524Y-131288534D01*
X135151676Y-131313537D01*
G37*
G36*
X138436848Y-132432010D02*
G01*
X135460286Y-132432010D01*
X135080238Y-132432010D01*
X134480163Y-132432010D01*
X134104402Y-132432010D01*
X131723152Y-132432010D01*
X131723152Y-131401405D01*
X134104402Y-131401405D01*
X134149408Y-131489988D01*
X134235847Y-131539994D01*
X134335859Y-131495703D01*
X134354433Y-131478558D01*
X134354433Y-131988621D01*
X134356576Y-132040771D01*
X134370149Y-132080061D01*
X134408368Y-132107922D01*
X134480163Y-132117209D01*
X134553744Y-132107565D01*
X134591606Y-132078633D01*
X134605179Y-132040771D01*
X134607322Y-131991479D01*
X134607322Y-131778595D01*
X134700191Y-131778595D01*
X134713129Y-131879084D01*
X134751943Y-131965285D01*
X134816634Y-132037199D01*
X134897676Y-132091174D01*
X134985544Y-132123559D01*
X135080238Y-132134354D01*
X135174933Y-132123479D01*
X135262801Y-132090856D01*
X135343843Y-132036484D01*
X135408533Y-131964333D01*
X135447348Y-131878369D01*
X135460286Y-131778595D01*
X135452249Y-131718945D01*
X135428139Y-131660009D01*
X135376704Y-131582142D01*
X135344557Y-131552853D01*
X135365988Y-131529993D01*
X135408136Y-131462841D01*
X135428853Y-131375688D01*
X135417423Y-131285200D01*
X135383133Y-131206143D01*
X135325983Y-131138515D01*
X135253276Y-131086921D01*
X135172313Y-131055965D01*
X135083096Y-131045646D01*
X134993561Y-131055806D01*
X134911646Y-131086286D01*
X134837351Y-131137086D01*
X134778613Y-131203444D01*
X134743371Y-131280596D01*
X134731623Y-131368544D01*
X134755198Y-131467842D01*
X134793059Y-131529993D01*
X134817348Y-131552853D01*
X134787344Y-131579999D01*
X134729480Y-131662152D01*
X134707513Y-131719480D01*
X134700191Y-131778595D01*
X134607322Y-131778595D01*
X134607322Y-131195665D01*
X134600178Y-131119941D01*
X134580176Y-131089223D01*
X134543028Y-131072793D01*
X134475163Y-131065649D01*
X134394438Y-131102796D01*
X134390152Y-131105654D01*
X134155837Y-131317109D01*
X134104402Y-131401405D01*
X131723152Y-131401405D01*
X131723152Y-130747990D01*
X134104402Y-130747990D01*
X135460286Y-130747990D01*
X138436848Y-130747990D01*
X138436848Y-132432010D01*
G37*
%TO.C,JP4*%
X131400000Y-95730000D02*
X131400000Y-96330000D01*
X130700000Y-97030000D02*
X129300000Y-97030000D01*
X129300000Y-95030000D02*
X130700000Y-95030000D01*
X128600000Y-96330000D02*
X128600000Y-95730000D01*
X130700000Y-97030000D02*
G75*
G03*
X131400000Y-96330000I1J699999D01*
G01*
X131400000Y-95730000D02*
G75*
G03*
X130700000Y-95030000I-699999J1D01*
G01*
X128600000Y-96330000D02*
G75*
G03*
X129300000Y-97030000I700000J0D01*
G01*
X129300000Y-95030000D02*
G75*
G03*
X128600000Y-95730000I0J-700000D01*
G01*
%TO.C,TP34*%
X118570000Y-127780000D02*
X118570000Y-125240000D01*
X121110000Y-127780000D02*
X121110000Y-125240000D01*
%TO.C,TP30*%
X118570000Y-117620000D02*
X118570000Y-115080000D01*
X121110000Y-117620000D02*
X121110000Y-115080000D01*
%TO.C,kibuzzard-63B56D79*%
G36*
X125085725Y-108534252D02*
G01*
X125100727Y-108566399D01*
X125104299Y-108607833D01*
X125075009Y-108660697D01*
X124989999Y-108687129D01*
X124909274Y-108658554D01*
X124884271Y-108597117D01*
X124911775Y-108525323D01*
X124994285Y-108501391D01*
X125085725Y-108534252D01*
G37*
G36*
X128340894Y-109630580D02*
G01*
X125364331Y-109630580D01*
X124788545Y-109630580D01*
X124635669Y-109630580D01*
X121659106Y-109630580D01*
X121659106Y-108605690D01*
X124635669Y-108605690D01*
X124646861Y-108681176D01*
X124680436Y-108751422D01*
X124736396Y-108816431D01*
X124807912Y-108868421D01*
X124888161Y-108899616D01*
X124977140Y-108910014D01*
X125084296Y-108885725D01*
X125077152Y-108905727D01*
X125048935Y-108955734D01*
X124998571Y-109011455D01*
X124913561Y-109060032D01*
X124799975Y-109080035D01*
X124717107Y-109088608D01*
X124676388Y-109126469D01*
X124662815Y-109205765D01*
X124672816Y-109278274D01*
X124702820Y-109318636D01*
X124779972Y-109332924D01*
X124788545Y-109332924D01*
X124890901Y-109325609D01*
X124984227Y-109303663D01*
X125068523Y-109267087D01*
X125143789Y-109215881D01*
X125210026Y-109150044D01*
X125265576Y-109073291D01*
X125308781Y-108989338D01*
X125339642Y-108898184D01*
X125358159Y-108799829D01*
X125364331Y-108694272D01*
X125353854Y-108576242D01*
X125322421Y-108473610D01*
X125270034Y-108386377D01*
X125196850Y-108320099D01*
X125103029Y-108280332D01*
X124988570Y-108267076D01*
X124895384Y-108277871D01*
X124812040Y-108310256D01*
X124738539Y-108364231D01*
X124681389Y-108434240D01*
X124647099Y-108514726D01*
X124635669Y-108605690D01*
X121659106Y-108605690D01*
X121659106Y-107969420D01*
X124635669Y-107969420D01*
X125364331Y-107969420D01*
X128340894Y-107969420D01*
X128340894Y-109630580D01*
G37*
%TO.C,kibuzzard-63B56F93*%
G36*
X135175012Y-105921444D02*
G01*
X135207159Y-105995024D01*
X135175726Y-106068605D01*
X135081429Y-106102895D01*
X134985702Y-106068605D01*
X134952841Y-105994310D01*
X134985702Y-105920729D01*
X135080714Y-105887154D01*
X135175012Y-105921444D01*
G37*
G36*
X135151437Y-105523537D02*
G01*
X135175726Y-105577115D01*
X135152152Y-105631408D01*
X135082143Y-105657125D01*
X135010706Y-105631408D01*
X134985702Y-105576401D01*
X135008562Y-105522823D01*
X135079286Y-105498534D01*
X135151437Y-105523537D01*
G37*
G36*
X138436610Y-106642010D02*
G01*
X135460048Y-106642010D01*
X135080000Y-106642010D01*
X134699952Y-106642010D01*
X131723390Y-106642010D01*
X131723390Y-105988595D01*
X134699952Y-105988595D01*
X134712891Y-106089084D01*
X134751705Y-106175285D01*
X134816396Y-106247199D01*
X134897437Y-106301174D01*
X134985306Y-106333559D01*
X135080000Y-106344354D01*
X135174694Y-106333479D01*
X135262562Y-106300856D01*
X135343604Y-106246484D01*
X135408295Y-106174333D01*
X135447109Y-106088369D01*
X135460047Y-105988595D01*
X135452011Y-105928945D01*
X135427901Y-105870009D01*
X135376466Y-105792142D01*
X135344319Y-105762853D01*
X135365750Y-105739993D01*
X135407898Y-105672841D01*
X135428615Y-105585688D01*
X135417185Y-105495200D01*
X135382895Y-105416143D01*
X135325745Y-105348515D01*
X135253037Y-105296921D01*
X135172075Y-105265965D01*
X135082857Y-105255646D01*
X134993322Y-105265806D01*
X134911407Y-105296286D01*
X134837112Y-105347086D01*
X134778375Y-105413444D01*
X134743132Y-105490596D01*
X134731385Y-105578544D01*
X134754959Y-105677842D01*
X134792821Y-105739993D01*
X134817110Y-105762853D01*
X134787106Y-105789999D01*
X134729242Y-105872152D01*
X134707275Y-105929480D01*
X134699952Y-105988595D01*
X131723390Y-105988595D01*
X131723390Y-104957990D01*
X134699952Y-104957990D01*
X135460048Y-104957990D01*
X138436610Y-104957990D01*
X138436610Y-106642010D01*
G37*
%TO.C,JP13*%
X131400000Y-118590000D02*
X131400000Y-119190000D01*
X130700000Y-119890000D02*
X129300000Y-119890000D01*
X129300000Y-117890000D02*
X130700000Y-117890000D01*
X128600000Y-119190000D02*
X128600000Y-118590000D01*
X130700000Y-119890000D02*
G75*
G03*
X131400000Y-119190000I1J699999D01*
G01*
X131400000Y-118590000D02*
G75*
G03*
X130700000Y-117890000I-699999J1D01*
G01*
X128600000Y-119190000D02*
G75*
G03*
X129300000Y-119890000I700000J0D01*
G01*
X129300000Y-117890000D02*
G75*
G03*
X128600000Y-118590000I0J-700000D01*
G01*
%TO.C,kibuzzard-63B56EF1*%
G36*
X128295422Y-119728438D02*
G01*
X125318859Y-119728438D01*
X124917381Y-119728438D01*
X124301589Y-119728438D01*
X123925828Y-119728438D01*
X121544578Y-119728438D01*
X121544578Y-118699262D01*
X123925828Y-118699262D01*
X123970834Y-118787844D01*
X124057273Y-118837851D01*
X124157286Y-118793559D01*
X124175859Y-118776414D01*
X124175859Y-119286478D01*
X124178002Y-119338627D01*
X124191576Y-119377918D01*
X124229795Y-119405779D01*
X124301589Y-119415066D01*
X124375170Y-119405422D01*
X124413032Y-119376489D01*
X124426605Y-119338627D01*
X124428748Y-119289336D01*
X124428748Y-119100741D01*
X124521617Y-119100741D01*
X124537333Y-119177893D01*
X124540191Y-119192181D01*
X124555907Y-119229328D01*
X124591268Y-119286121D01*
X124631631Y-119330769D01*
X124714181Y-119386332D01*
X124809431Y-119419669D01*
X124917381Y-119430782D01*
X125026124Y-119419749D01*
X125121851Y-119386649D01*
X125204559Y-119331484D01*
X125268059Y-119259332D01*
X125306159Y-119175274D01*
X125318859Y-119079309D01*
X125307072Y-119006443D01*
X125271711Y-118942149D01*
X125226705Y-118895715D01*
X125184557Y-118864997D01*
X125184557Y-118854996D01*
X125246469Y-118810149D01*
X125283617Y-118749903D01*
X125295999Y-118674259D01*
X125284728Y-118593693D01*
X125250914Y-118518684D01*
X125194558Y-118449231D01*
X125118676Y-118393668D01*
X125026283Y-118360331D01*
X124917381Y-118349218D01*
X124846479Y-118354219D01*
X124782364Y-118369221D01*
X124688066Y-118413512D01*
X124628773Y-118469947D01*
X124597341Y-118514953D01*
X124564479Y-118612108D01*
X124582339Y-118663186D01*
X124635917Y-118707834D01*
X124714498Y-118733552D01*
X124768791Y-118715693D01*
X124808796Y-118662114D01*
X124817368Y-118644969D01*
X124854516Y-118610679D01*
X124935240Y-118593534D01*
X125014536Y-118620681D01*
X125043111Y-118677831D01*
X125015964Y-118719622D01*
X124934526Y-118733552D01*
X124860231Y-118740696D01*
X124820583Y-118779629D01*
X124807367Y-118859282D01*
X124817011Y-118932505D01*
X124845943Y-118969296D01*
X124883091Y-118983583D01*
X124948099Y-118986441D01*
X125030966Y-119015730D01*
X125065971Y-119083596D01*
X125030252Y-119152890D01*
X124984532Y-119175929D01*
X124918809Y-119183608D01*
X124858802Y-119175036D01*
X124780221Y-119106456D01*
X124737358Y-119032161D01*
X124661634Y-119017873D01*
X124556621Y-119038590D01*
X124521617Y-119100741D01*
X124428748Y-119100741D01*
X124428748Y-118493522D01*
X124421604Y-118417798D01*
X124401602Y-118387080D01*
X124364454Y-118370649D01*
X124296589Y-118363506D01*
X124215864Y-118400653D01*
X124211578Y-118403511D01*
X123977263Y-118614966D01*
X123925828Y-118699262D01*
X121544578Y-118699262D01*
X121544578Y-118051562D01*
X123925828Y-118051562D01*
X125318859Y-118051562D01*
X128295422Y-118051562D01*
X128295422Y-119728438D01*
G37*
%TO.C,kibuzzard-63B56CBF*%
G36*
X128148023Y-89233436D02*
G01*
X125171460Y-89233436D01*
X125044301Y-89233436D01*
X124668540Y-89233436D01*
X121691977Y-89233436D01*
X121691977Y-88219976D01*
X124668540Y-88219976D01*
X124713546Y-88308559D01*
X124799985Y-88358565D01*
X124899997Y-88314274D01*
X124918571Y-88297129D01*
X124918571Y-88807192D01*
X124920714Y-88859342D01*
X124934287Y-88898633D01*
X124972507Y-88926493D01*
X125044301Y-88935780D01*
X125117882Y-88926136D01*
X125155744Y-88897204D01*
X125169317Y-88859342D01*
X125171460Y-88810050D01*
X125171460Y-88014236D01*
X125164316Y-87938512D01*
X125144314Y-87907794D01*
X125107166Y-87891364D01*
X125039301Y-87884220D01*
X124958576Y-87921367D01*
X124954290Y-87924225D01*
X124719975Y-88135680D01*
X124668540Y-88219976D01*
X121691977Y-88219976D01*
X121691977Y-87586564D01*
X124668540Y-87586564D01*
X125171460Y-87586564D01*
X128148023Y-87586564D01*
X128148023Y-89233436D01*
G37*
%TO.C,TP18*%
X141430000Y-130320000D02*
X141430000Y-132860000D01*
X138890000Y-130320000D02*
X138890000Y-132860000D01*
%TO.C,TP23*%
X118570000Y-99840000D02*
X118570000Y-97300000D01*
X121110000Y-99840000D02*
X121110000Y-97300000D01*
%TO.C,TP8*%
X141430000Y-104920000D02*
X141430000Y-107460000D01*
X138890000Y-104920000D02*
X138890000Y-107460000D01*
%TO.C,TP14*%
X141430000Y-120160000D02*
X141430000Y-122700000D01*
X138890000Y-120160000D02*
X138890000Y-122700000D01*
%TO.C,JP8*%
X131400000Y-105890000D02*
X131400000Y-106490000D01*
X130700000Y-107190000D02*
X129300000Y-107190000D01*
X129300000Y-105190000D02*
X130700000Y-105190000D01*
X128600000Y-106490000D02*
X128600000Y-105890000D01*
X130700000Y-107190000D02*
G75*
G03*
X131400000Y-106490000I1J699999D01*
G01*
X131400000Y-105890000D02*
G75*
G03*
X130700000Y-105190000I-699999J1D01*
G01*
X128600000Y-106490000D02*
G75*
G03*
X129300000Y-107190000I700000J0D01*
G01*
X129300000Y-105190000D02*
G75*
G03*
X128600000Y-105890000I0J-700000D01*
G01*
%TO.C,TP36*%
X118570000Y-132860000D02*
X118570000Y-130320000D01*
X121110000Y-132860000D02*
X121110000Y-130320000D01*
%TO.C,TP2*%
X141430000Y-89680000D02*
X141430000Y-92220000D01*
X138890000Y-89680000D02*
X138890000Y-92220000D01*
%TO.C,kibuzzard-63B56FE1*%
G36*
X135169535Y-126652161D02*
G01*
X135194538Y-126713597D01*
X135167035Y-126785392D01*
X135084524Y-126809323D01*
X134993084Y-126776462D01*
X134979511Y-126745029D01*
X134975939Y-126703596D01*
X135005229Y-126650017D01*
X135089525Y-126623586D01*
X135169535Y-126652161D01*
G37*
G36*
X138421132Y-127341294D02*
G01*
X135444569Y-127341294D01*
X135090239Y-127341294D01*
X134495879Y-127341294D01*
X134120118Y-127341294D01*
X131738868Y-127341294D01*
X131738868Y-126312118D01*
X134120118Y-126312118D01*
X134165124Y-126400701D01*
X134251563Y-126450707D01*
X134351576Y-126406416D01*
X134370149Y-126389271D01*
X134370149Y-126899334D01*
X134372292Y-126951484D01*
X134385866Y-126990774D01*
X134424085Y-127018635D01*
X134495879Y-127027922D01*
X134569460Y-127018278D01*
X134607322Y-126989346D01*
X134620895Y-126951484D01*
X134623038Y-126902192D01*
X134623038Y-126616442D01*
X134715907Y-126616442D01*
X134726384Y-126734472D01*
X134757817Y-126837104D01*
X134810204Y-126924337D01*
X134883229Y-126990616D01*
X134976574Y-127030383D01*
X135090239Y-127043638D01*
X135183505Y-127032843D01*
X135267087Y-127000458D01*
X135340985Y-126946483D01*
X135398532Y-126876474D01*
X135433060Y-126795988D01*
X135444569Y-126705024D01*
X135433378Y-126629539D01*
X135399802Y-126559292D01*
X135343842Y-126494284D01*
X135272167Y-126442293D01*
X135191443Y-126411099D01*
X135101669Y-126400701D01*
X134995942Y-126424989D01*
X135003086Y-126404987D01*
X135029517Y-126354981D01*
X135080238Y-126299259D01*
X135166677Y-126250682D01*
X135280263Y-126230679D01*
X135363131Y-126222107D01*
X135391706Y-126203533D01*
X135408851Y-126166386D01*
X135415994Y-126100663D01*
X135407422Y-126032083D01*
X135373846Y-125991364D01*
X135294551Y-125977791D01*
X135191652Y-125985106D01*
X135097840Y-126007051D01*
X135013115Y-126043627D01*
X134937477Y-126094834D01*
X134870926Y-126160671D01*
X134815119Y-126237423D01*
X134771714Y-126321376D01*
X134740710Y-126412531D01*
X134722108Y-126510886D01*
X134715907Y-126616442D01*
X134623038Y-126616442D01*
X134623038Y-126106378D01*
X134615894Y-126030654D01*
X134595892Y-125999936D01*
X134558744Y-125983506D01*
X134490879Y-125976362D01*
X134410154Y-126013509D01*
X134405868Y-126016367D01*
X134171553Y-126227822D01*
X134120118Y-126312118D01*
X131738868Y-126312118D01*
X131738868Y-125678706D01*
X134120118Y-125678706D01*
X135444569Y-125678706D01*
X138421132Y-125678706D01*
X138421132Y-127341294D01*
G37*
%TO.C,JP15*%
X131400000Y-123670000D02*
X131400000Y-124270000D01*
X130700000Y-124970000D02*
X129300000Y-124970000D01*
X129300000Y-122970000D02*
X130700000Y-122970000D01*
X128600000Y-124270000D02*
X128600000Y-123670000D01*
X130700000Y-124970000D02*
G75*
G03*
X131400000Y-124270000I1J699999D01*
G01*
X131400000Y-123670000D02*
G75*
G03*
X130700000Y-122970000I-699999J1D01*
G01*
X128600000Y-124270000D02*
G75*
G03*
X129300000Y-124970000I700000J0D01*
G01*
X129300000Y-122970000D02*
G75*
G03*
X128600000Y-123670000I0J-700000D01*
G01*
%TO.C,JP16*%
X131400000Y-126210000D02*
X131400000Y-126810000D01*
X130700000Y-127510000D02*
X129300000Y-127510000D01*
X129300000Y-125510000D02*
X130700000Y-125510000D01*
X128600000Y-126810000D02*
X128600000Y-126210000D01*
X130700000Y-127510000D02*
G75*
G03*
X131400000Y-126810000I1J699999D01*
G01*
X131400000Y-126210000D02*
G75*
G03*
X130700000Y-125510000I-699999J1D01*
G01*
X128600000Y-126810000D02*
G75*
G03*
X129300000Y-127510000I700000J0D01*
G01*
X129300000Y-125510000D02*
G75*
G03*
X128600000Y-126210000I0J-700000D01*
G01*
%TO.C,TP6*%
X141430000Y-99840000D02*
X141430000Y-102380000D01*
X138890000Y-99840000D02*
X138890000Y-102380000D01*
%TO.C,TP22*%
X118570000Y-97300000D02*
X118570000Y-94760000D01*
X121110000Y-97300000D02*
X121110000Y-94760000D01*
%TO.C,JP10*%
X131400000Y-110970000D02*
X131400000Y-111570000D01*
X130700000Y-112270000D02*
X129300000Y-112270000D01*
X129300000Y-110270000D02*
X130700000Y-110270000D01*
X128600000Y-111570000D02*
X128600000Y-110970000D01*
X130700000Y-112270000D02*
G75*
G03*
X131400000Y-111570000I1J699999D01*
G01*
X131400000Y-110970000D02*
G75*
G03*
X130700000Y-110270000I-699999J1D01*
G01*
X128600000Y-111570000D02*
G75*
G03*
X129300000Y-112270000I700000J0D01*
G01*
X129300000Y-110270000D02*
G75*
G03*
X128600000Y-110970000I0J-700000D01*
G01*
%TO.C,J2*%
X111905000Y-103129300D02*
X111740381Y-103129300D01*
X108222000Y-104734001D02*
X108222000Y-103972001D01*
X108222000Y-104734001D02*
X108984000Y-105242001D01*
X108984000Y-105242001D02*
X108984000Y-105369001D01*
X111905000Y-105663260D02*
X111905000Y-103129300D01*
X108984000Y-114767001D02*
X108984000Y-114513001D01*
X108222000Y-115275001D02*
X108984000Y-114767001D01*
X108222000Y-115275001D02*
X108222000Y-116037001D01*
X111905000Y-116870700D02*
X111905000Y-114836739D01*
X111740381Y-116870700D02*
X111905000Y-116870700D01*
%TO.C,JP2*%
X131400000Y-90650000D02*
X131400000Y-91250000D01*
X130700000Y-91950000D02*
X129300000Y-91950000D01*
X129300000Y-89950000D02*
X130700000Y-89950000D01*
X128600000Y-91250000D02*
X128600000Y-90650000D01*
X130700000Y-91950000D02*
G75*
G03*
X131400000Y-91250000I1J699999D01*
G01*
X131400000Y-90650000D02*
G75*
G03*
X130700000Y-89950000I-699999J1D01*
G01*
X128600000Y-91250000D02*
G75*
G03*
X129300000Y-91950000I700000J0D01*
G01*
X129300000Y-89950000D02*
G75*
G03*
X128600000Y-90650000I0J-700000D01*
G01*
%TO.C,TP32*%
X118570000Y-122700000D02*
X118570000Y-120160000D01*
X121110000Y-122700000D02*
X121110000Y-120160000D01*
%TO.C,kibuzzard-63B56F84*%
G36*
X138440182Y-96853436D02*
G01*
X135463619Y-96853436D01*
X135339318Y-96853436D01*
X134696381Y-96853436D01*
X131719818Y-96853436D01*
X131719818Y-96138585D01*
X134696381Y-96138585D01*
X134703524Y-96200021D01*
X134742458Y-96240741D01*
X134822111Y-96254314D01*
X135209302Y-96254314D01*
X135209302Y-96428621D01*
X135217874Y-96502916D01*
X135236448Y-96531491D01*
X135273596Y-96548636D01*
X135339318Y-96555780D01*
X135408612Y-96547208D01*
X135450046Y-96512203D01*
X135463619Y-96430050D01*
X135463619Y-95635665D01*
X135461476Y-95585659D01*
X135447903Y-95547797D01*
X135409327Y-95517793D01*
X135337175Y-95508506D01*
X135264309Y-95516364D01*
X135225018Y-95544225D01*
X135211445Y-95579944D01*
X135209302Y-95628521D01*
X135209302Y-96018570D01*
X134976416Y-96018570D01*
X135063569Y-95669955D01*
X135064998Y-95665669D01*
X135074999Y-95605661D01*
X135049996Y-95550654D01*
X134974987Y-95514221D01*
X134909264Y-95504220D01*
X134859972Y-95519936D01*
X134834255Y-95552797D01*
X134819253Y-95602804D01*
X134700667Y-96081435D01*
X134696381Y-96138585D01*
X131719818Y-96138585D01*
X131719818Y-95206564D01*
X134696381Y-95206564D01*
X135463619Y-95206564D01*
X138440182Y-95206564D01*
X138440182Y-96853436D01*
G37*
%TO.C,TP29*%
X118570000Y-115080000D02*
X118570000Y-112540000D01*
X121110000Y-115080000D02*
X121110000Y-112540000D01*
%TO.C,JP17*%
X131400000Y-128750000D02*
X131400000Y-129350000D01*
X130700000Y-130050000D02*
X129300000Y-130050000D01*
X129300000Y-128050000D02*
X130700000Y-128050000D01*
X128600000Y-129350000D02*
X128600000Y-128750000D01*
X130700000Y-130050000D02*
G75*
G03*
X131400000Y-129350000I1J699999D01*
G01*
X131400000Y-128750000D02*
G75*
G03*
X130700000Y-128050000I-699999J1D01*
G01*
X128600000Y-129350000D02*
G75*
G03*
X129300000Y-130050000I700000J0D01*
G01*
X129300000Y-128050000D02*
G75*
G03*
X128600000Y-128750000I0J-700000D01*
G01*
%TO.C,TP21*%
X118570000Y-94760000D02*
X118570000Y-92220000D01*
X121110000Y-94760000D02*
X121110000Y-92220000D01*
%TO.C,kibuzzard-63B56FD6*%
G36*
X138463280Y-117180580D02*
G01*
X135486718Y-117180580D01*
X135358130Y-117180580D01*
X134453731Y-117180580D01*
X134077970Y-117180580D01*
X131696720Y-117180580D01*
X131696720Y-116167120D01*
X134077970Y-116167120D01*
X134122976Y-116255703D01*
X134209415Y-116305709D01*
X134309427Y-116261418D01*
X134328001Y-116244273D01*
X134328001Y-116754336D01*
X134330144Y-116806486D01*
X134343717Y-116845776D01*
X134381937Y-116873637D01*
X134453731Y-116882924D01*
X134527312Y-116873280D01*
X134565174Y-116844348D01*
X134578747Y-116806486D01*
X134580890Y-116757194D01*
X134580890Y-116754336D01*
X134673759Y-116754336D01*
X134710906Y-116844348D01*
X134799489Y-116882924D01*
X135358130Y-116882924D01*
X135446713Y-116865779D01*
X135477431Y-116828631D01*
X135486718Y-116756479D01*
X135478145Y-116683613D01*
X135444569Y-116642179D01*
X135360987Y-116628606D01*
X135099526Y-116628606D01*
X135099526Y-116621463D01*
X135135245Y-116607175D01*
X135223828Y-116558955D01*
X135323840Y-116480016D01*
X135370274Y-116428581D01*
X135409565Y-116362859D01*
X135436354Y-116287849D01*
X135445284Y-116208554D01*
X135433378Y-116110367D01*
X135397659Y-116019641D01*
X135338127Y-115936377D01*
X135259467Y-115870099D01*
X135166360Y-115830332D01*
X135058807Y-115817076D01*
X134951333Y-115830173D01*
X134858464Y-115869464D01*
X134780201Y-115934948D01*
X134721066Y-116016943D01*
X134685586Y-116105763D01*
X134673759Y-116201410D01*
X134680903Y-116274276D01*
X134719836Y-116314996D01*
X134799489Y-116328569D01*
X134872355Y-116319996D01*
X134910931Y-116294279D01*
X134924504Y-116258560D01*
X134926647Y-116211411D01*
X134926647Y-116202839D01*
X134932362Y-116169978D01*
X134970224Y-116103541D01*
X135049520Y-116069965D01*
X135120958Y-116082824D01*
X135158819Y-116110684D01*
X135180965Y-116149261D01*
X135190966Y-116185694D01*
X135177572Y-116248202D01*
X135137388Y-116307138D01*
X135078274Y-116361251D01*
X135008086Y-116409293D01*
X134932362Y-116454656D01*
X134856639Y-116500733D01*
X134786451Y-116551811D01*
X134727337Y-116612176D01*
X134687153Y-116680220D01*
X134673759Y-116754336D01*
X134580890Y-116754336D01*
X134580890Y-115961380D01*
X134573746Y-115885656D01*
X134553744Y-115854938D01*
X134516596Y-115838508D01*
X134448731Y-115831364D01*
X134368006Y-115868511D01*
X134363720Y-115871369D01*
X134129405Y-116082824D01*
X134077970Y-116167120D01*
X131696720Y-116167120D01*
X131696720Y-115519420D01*
X134077970Y-115519420D01*
X135486718Y-115519420D01*
X138463280Y-115519420D01*
X138463280Y-117180580D01*
G37*
%TO.C,TP24*%
X118570000Y-102380000D02*
X118570000Y-99840000D01*
X121110000Y-102380000D02*
X121110000Y-99840000D01*
%TO.C,JP18*%
X131400000Y-131290000D02*
X131400000Y-131890000D01*
X130700000Y-132590000D02*
X129300000Y-132590000D01*
X129300000Y-130590000D02*
X130700000Y-130590000D01*
X128600000Y-131890000D02*
X128600000Y-131290000D01*
X130700000Y-132590000D02*
G75*
G03*
X131400000Y-131890000I1J699999D01*
G01*
X131400000Y-131290000D02*
G75*
G03*
X130700000Y-130590000I-699999J1D01*
G01*
X128600000Y-131890000D02*
G75*
G03*
X129300000Y-132590000I700000J0D01*
G01*
X129300000Y-130590000D02*
G75*
G03*
X128600000Y-131290000I0J-700000D01*
G01*
%TO.C,kibuzzard-63B56F80*%
G36*
X138463042Y-91780580D02*
G01*
X135486479Y-91780580D01*
X135357892Y-91780580D01*
X134673521Y-91780580D01*
X131696958Y-91780580D01*
X131696958Y-91354336D01*
X134673521Y-91354336D01*
X134710668Y-91444348D01*
X134799251Y-91482924D01*
X135357892Y-91482924D01*
X135446474Y-91465779D01*
X135477192Y-91428631D01*
X135486479Y-91356479D01*
X135477907Y-91283613D01*
X135444331Y-91242179D01*
X135360749Y-91228606D01*
X135099288Y-91228606D01*
X135099288Y-91221463D01*
X135135007Y-91207175D01*
X135223589Y-91158955D01*
X135323602Y-91080016D01*
X135370036Y-91028581D01*
X135409327Y-90962859D01*
X135436116Y-90887849D01*
X135445046Y-90808554D01*
X135433139Y-90710367D01*
X135397421Y-90619641D01*
X135337889Y-90536377D01*
X135259229Y-90470099D01*
X135166122Y-90430332D01*
X135058569Y-90417076D01*
X134951095Y-90430173D01*
X134858226Y-90469464D01*
X134779962Y-90534948D01*
X134720828Y-90616943D01*
X134685347Y-90705763D01*
X134673521Y-90801410D01*
X134680664Y-90874276D01*
X134719598Y-90914996D01*
X134799251Y-90928569D01*
X134872117Y-90919996D01*
X134910693Y-90894279D01*
X134924266Y-90858560D01*
X134926409Y-90811411D01*
X134926409Y-90802839D01*
X134932124Y-90769978D01*
X134969986Y-90703541D01*
X135049282Y-90669965D01*
X135120719Y-90682824D01*
X135158581Y-90710684D01*
X135180727Y-90749261D01*
X135190728Y-90785694D01*
X135177334Y-90848202D01*
X135137150Y-90907138D01*
X135078035Y-90961251D01*
X135007848Y-91009293D01*
X134932124Y-91054656D01*
X134856401Y-91100733D01*
X134786213Y-91151811D01*
X134727099Y-91212176D01*
X134686915Y-91280220D01*
X134673521Y-91354336D01*
X131696958Y-91354336D01*
X131696958Y-90119420D01*
X134673521Y-90119420D01*
X135486479Y-90119420D01*
X138463042Y-90119420D01*
X138463042Y-91780580D01*
G37*
%TO.C,kibuzzard-63B56D3C*%
G36*
X128246606Y-99402723D02*
G01*
X125270044Y-99402723D01*
X124911427Y-99402723D01*
X124569956Y-99402723D01*
X121593394Y-99402723D01*
X121593394Y-98915043D01*
X124569956Y-98915043D01*
X124624249Y-99000768D01*
X124635679Y-99010769D01*
X124671397Y-99037916D01*
X124745692Y-99075222D01*
X124825702Y-99097606D01*
X124911427Y-99105067D01*
X125007789Y-99093240D01*
X125093037Y-99057759D01*
X125167174Y-98998625D01*
X125224324Y-98923060D01*
X125258614Y-98838288D01*
X125270044Y-98744308D01*
X125257979Y-98650804D01*
X125221784Y-98567460D01*
X125161459Y-98494276D01*
X125086052Y-98437523D01*
X125004614Y-98403471D01*
X124917142Y-98392121D01*
X124867136Y-98394978D01*
X124881424Y-98286393D01*
X125131455Y-98286393D01*
X125177889Y-98284250D01*
X125212894Y-98270677D01*
X125239683Y-98235315D01*
X125248612Y-98166378D01*
X125238968Y-98090654D01*
X125210036Y-98052078D01*
X125172889Y-98038505D01*
X125122882Y-98036362D01*
X124988580Y-98036362D01*
X124771410Y-98034933D01*
X124713546Y-98048506D01*
X124676398Y-98079224D01*
X124655681Y-98117801D01*
X124645680Y-98147804D01*
X124637465Y-98207097D01*
X124615676Y-98367832D01*
X124594245Y-98531067D01*
X124587101Y-98597861D01*
X124602817Y-98632865D01*
X124669254Y-98676442D01*
X124759266Y-98703588D01*
X124837132Y-98670727D01*
X124905712Y-98645009D01*
X124982151Y-98672870D01*
X125015726Y-98748594D01*
X124985008Y-98823603D01*
X124890711Y-98850749D01*
X124801414Y-98820746D01*
X124705687Y-98775026D01*
X124622820Y-98822174D01*
X124569956Y-98915043D01*
X121593394Y-98915043D01*
X121593394Y-97737277D01*
X124569956Y-97737277D01*
X125270044Y-97737277D01*
X128246606Y-97737277D01*
X128246606Y-99402723D01*
G37*
%TO.C,TP27*%
X118570000Y-110000000D02*
X118570000Y-107460000D01*
X121110000Y-110000000D02*
X121110000Y-107460000D01*
%TO.C,TP17*%
X141430000Y-127780000D02*
X141430000Y-130320000D01*
X138890000Y-127780000D02*
X138890000Y-130320000D01*
%TO.C,JP6*%
X131400000Y-100810000D02*
X131400000Y-101410000D01*
X130700000Y-102110000D02*
X129300000Y-102110000D01*
X129300000Y-100110000D02*
X130700000Y-100110000D01*
X128600000Y-101410000D02*
X128600000Y-100810000D01*
X130700000Y-102110000D02*
G75*
G03*
X131400000Y-101410000I1J699999D01*
G01*
X131400000Y-100810000D02*
G75*
G03*
X130700000Y-100110000I-699999J1D01*
G01*
X128600000Y-101410000D02*
G75*
G03*
X129300000Y-102110000I700000J0D01*
G01*
X129300000Y-100110000D02*
G75*
G03*
X128600000Y-100810000I0J-700000D01*
G01*
%TO.C,JP12*%
X131400000Y-116050000D02*
X131400000Y-116650000D01*
X130700000Y-117350000D02*
X129300000Y-117350000D01*
X129300000Y-115350000D02*
X130700000Y-115350000D01*
X128600000Y-116650000D02*
X128600000Y-116050000D01*
X130700000Y-117350000D02*
G75*
G03*
X131400000Y-116650000I1J699999D01*
G01*
X131400000Y-116050000D02*
G75*
G03*
X130700000Y-115350000I-699999J1D01*
G01*
X128600000Y-116650000D02*
G75*
G03*
X129300000Y-117350000I700000J0D01*
G01*
X129300000Y-115350000D02*
G75*
G03*
X128600000Y-116050000I0J-700000D01*
G01*
%TO.C,JP3*%
X131400000Y-93190000D02*
X131400000Y-93790000D01*
X130700000Y-94490000D02*
X129300000Y-94490000D01*
X129300000Y-92490000D02*
X130700000Y-92490000D01*
X128600000Y-93790000D02*
X128600000Y-93190000D01*
X130700000Y-94490000D02*
G75*
G03*
X131400000Y-93790000I1J699999D01*
G01*
X131400000Y-93190000D02*
G75*
G03*
X130700000Y-92490000I-699999J1D01*
G01*
X128600000Y-93790000D02*
G75*
G03*
X129300000Y-94490000I700000J0D01*
G01*
X129300000Y-92490000D02*
G75*
G03*
X128600000Y-93190000I0J-700000D01*
G01*
%TO.C,TP9*%
X141430000Y-107460000D02*
X141430000Y-110000000D01*
X138890000Y-107460000D02*
X138890000Y-110000000D01*
%TO.C,TP3*%
X141430000Y-92220000D02*
X141430000Y-94760000D01*
X138890000Y-92220000D02*
X138890000Y-94760000D01*
%TD*%
%LPC*%
D12*
%TO.C,TP15*%
X140160000Y-123970000D03*
%TD*%
D13*
%TO.C,JP9*%
X130650000Y-108730000D03*
D14*
X129350000Y-108730000D03*
%TD*%
D13*
%TO.C,JP14*%
X130650000Y-121430000D03*
D14*
X129350000Y-121430000D03*
%TD*%
D12*
%TO.C,TP19*%
X119840000Y-88410000D03*
%TD*%
%TO.C,TP12*%
X140160000Y-116350000D03*
%TD*%
%TO.C,TP7*%
X140160000Y-103650000D03*
%TD*%
%TO.C,TP31*%
X119840000Y-118890000D03*
%TD*%
%TO.C,TP10*%
X140160000Y-111270000D03*
%TD*%
%TO.C,TP35*%
X119840000Y-129050000D03*
%TD*%
%TO.C,TP11*%
X140160000Y-113810000D03*
%TD*%
%TO.C,TP33*%
X119840000Y-123970000D03*
%TD*%
%TO.C,TP5*%
X140160000Y-98570000D03*
%TD*%
D13*
%TO.C,JP11*%
X130650000Y-113810000D03*
D14*
X129350000Y-113810000D03*
%TD*%
D13*
%TO.C,JP5*%
X130650000Y-98570000D03*
D14*
X129350000Y-98570000D03*
%TD*%
D12*
%TO.C,TP13*%
X140160000Y-118890000D03*
%TD*%
%TO.C,TP28*%
X119840000Y-111270000D03*
%TD*%
D15*
%TO.C,J1*%
X151143000Y-114249999D03*
X148730000Y-113750000D03*
X151143000Y-113250001D03*
X148730000Y-112749999D03*
X151143000Y-112250000D03*
X148730000Y-111749999D03*
X151143000Y-111250000D03*
X148730000Y-110750001D03*
X151143000Y-110249999D03*
X148730000Y-109750000D03*
X151143000Y-109250001D03*
X148730000Y-108750000D03*
X151143000Y-108250001D03*
X148730000Y-107749999D03*
X151143000Y-107250000D03*
X148730000Y-106750001D03*
X151143000Y-106250000D03*
X148730000Y-105750001D03*
D16*
X149949200Y-115943600D03*
X149949200Y-104056400D03*
%TD*%
D12*
%TO.C,TP16*%
X140160000Y-126510000D03*
%TD*%
%TO.C,TP1*%
X140160000Y-88410000D03*
%TD*%
%TO.C,TP20*%
X119840000Y-90950000D03*
%TD*%
%TO.C,TP26*%
X119840000Y-106190000D03*
%TD*%
D13*
%TO.C,JP7*%
X130650000Y-103650000D03*
D14*
X129350000Y-103650000D03*
%TD*%
D12*
%TO.C,TP25*%
X119840000Y-103650000D03*
%TD*%
%TO.C,TP4*%
X140160000Y-96030000D03*
%TD*%
D13*
%TO.C,JP1*%
X130650000Y-88410000D03*
D14*
X129350000Y-88410000D03*
%TD*%
D13*
%TO.C,JP4*%
X130650000Y-96030000D03*
D14*
X129350000Y-96030000D03*
%TD*%
D12*
%TO.C,TP34*%
X119840000Y-126510000D03*
%TD*%
%TO.C,TP30*%
X119840000Y-116350000D03*
%TD*%
D13*
%TO.C,JP13*%
X130650000Y-118890000D03*
D14*
X129350000Y-118890000D03*
%TD*%
D12*
%TO.C,TP18*%
X140160000Y-131590000D03*
%TD*%
%TO.C,TP23*%
X119840000Y-98570000D03*
%TD*%
%TO.C,TP8*%
X140160000Y-106190000D03*
%TD*%
%TO.C,TP14*%
X140160000Y-121430000D03*
%TD*%
D13*
%TO.C,JP8*%
X130650000Y-106190000D03*
D14*
X129350000Y-106190000D03*
%TD*%
D12*
%TO.C,TP36*%
X119840000Y-131590000D03*
%TD*%
%TO.C,TP2*%
X140160000Y-90950000D03*
%TD*%
D13*
%TO.C,JP15*%
X130650000Y-123970000D03*
D14*
X129350000Y-123970000D03*
%TD*%
D13*
%TO.C,JP16*%
X130650000Y-126510000D03*
D14*
X129350000Y-126510000D03*
%TD*%
D12*
%TO.C,TP6*%
X140160000Y-101110000D03*
%TD*%
%TO.C,TP22*%
X119840000Y-96030000D03*
%TD*%
D13*
%TO.C,JP10*%
X130650000Y-111270000D03*
D14*
X129350000Y-111270000D03*
%TD*%
D15*
%TO.C,J2*%
X108857000Y-105750001D03*
X111270000Y-106250000D03*
X108857000Y-106749999D03*
X111270000Y-107250001D03*
X108857000Y-107750000D03*
X111270000Y-108250001D03*
X108857000Y-108750000D03*
X111270000Y-109249999D03*
X108857000Y-109750001D03*
X111270000Y-110250000D03*
X108857000Y-110749999D03*
X111270000Y-111250000D03*
X108857000Y-111749999D03*
X111270000Y-112250001D03*
X108857000Y-112750000D03*
X111270000Y-113249999D03*
X108857000Y-113750000D03*
X111270000Y-114249999D03*
D16*
X110050800Y-104056400D03*
X110050800Y-115943600D03*
%TD*%
D13*
%TO.C,JP2*%
X130650000Y-90950000D03*
D14*
X129350000Y-90950000D03*
%TD*%
D12*
%TO.C,TP32*%
X119840000Y-121430000D03*
%TD*%
%TO.C,TP29*%
X119840000Y-113810000D03*
%TD*%
D13*
%TO.C,JP17*%
X130650000Y-129050000D03*
D14*
X129350000Y-129050000D03*
%TD*%
D12*
%TO.C,TP21*%
X119840000Y-93490000D03*
%TD*%
%TO.C,TP24*%
X119840000Y-101110000D03*
%TD*%
D13*
%TO.C,JP18*%
X130650000Y-131590000D03*
D14*
X129350000Y-131590000D03*
%TD*%
D12*
%TO.C,TP27*%
X119840000Y-108730000D03*
%TD*%
%TO.C,TP17*%
X140160000Y-129050000D03*
%TD*%
D13*
%TO.C,JP6*%
X130650000Y-101110000D03*
D14*
X129350000Y-101110000D03*
%TD*%
D13*
%TO.C,JP12*%
X130650000Y-116350000D03*
D14*
X129350000Y-116350000D03*
%TD*%
D13*
%TO.C,JP3*%
X130650000Y-93490000D03*
D14*
X129350000Y-93490000D03*
%TD*%
D12*
%TO.C,TP9*%
X140160000Y-108730000D03*
%TD*%
%TO.C,TP3*%
X140160000Y-93490000D03*
%TD*%
%LPD*%
M02*
