%TF.GenerationSoftware,KiCad,Pcbnew,7.0.2-6a45011f42~172~ubuntu22.04.1*%
%TF.CreationDate,2023-05-08T11:52:49+01:00*%
%TF.ProjectId,bridge,62726964-6765-42e6-9b69-6361645f7063,rev?*%
%TF.SameCoordinates,Original*%
%TF.FileFunction,Paste,Top*%
%TF.FilePolarity,Positive*%
%FSLAX46Y46*%
G04 Gerber Fmt 4.6, Leading zero omitted, Abs format (unit mm)*
G04 Created by KiCad (PCBNEW 7.0.2-6a45011f42~172~ubuntu22.04.1) date 2023-05-08 11:52:49*
%MOMM*%
%LPD*%
G01*
G04 APERTURE LIST*
%ADD10R,1.600200X0.508000*%
%ADD11R,2.895600X1.397000*%
G04 APERTURE END LIST*
D10*
%TO.C,J1*%
X131143000Y-94249999D03*
X128730000Y-93750000D03*
X131143000Y-93250001D03*
X128730000Y-92749999D03*
X131143000Y-92250000D03*
X128730000Y-91749999D03*
X131143000Y-91250000D03*
X128730000Y-90750001D03*
X131143000Y-90249999D03*
X128730000Y-89750000D03*
X131143000Y-89250001D03*
X128730000Y-88750000D03*
X131143000Y-88250001D03*
X128730000Y-87749999D03*
X131143000Y-87250000D03*
X128730000Y-86750001D03*
X131143000Y-86250000D03*
X128730000Y-85750001D03*
D11*
X129949200Y-95943600D03*
X129949200Y-84056400D03*
%TD*%
D10*
%TO.C,J2*%
X88857000Y-85750001D03*
X91270000Y-86250000D03*
X88857000Y-86749999D03*
X91270000Y-87250001D03*
X88857000Y-87750000D03*
X91270000Y-88250001D03*
X88857000Y-88750000D03*
X91270000Y-89249999D03*
X88857000Y-89750001D03*
X91270000Y-90250000D03*
X88857000Y-90749999D03*
X91270000Y-91250000D03*
X88857000Y-91749999D03*
X91270000Y-92250001D03*
X88857000Y-92750000D03*
X91270000Y-93249999D03*
X88857000Y-93750000D03*
X91270000Y-94249999D03*
D11*
X90050800Y-84056400D03*
X90050800Y-95943600D03*
%TD*%
M02*
