%TF.GenerationSoftware,KiCad,Pcbnew,7.0.7-7.0.7~ubuntu22.04.1*%
%TF.CreationDate,2023-09-08T15:57:27+01:00*%
%TF.ProjectId,bridge,62726964-6765-42e6-9b69-6361645f7063,rev?*%
%TF.SameCoordinates,Original*%
%TF.FileFunction,Copper,L1,Top*%
%TF.FilePolarity,Positive*%
%FSLAX46Y46*%
G04 Gerber Fmt 4.6, Leading zero omitted, Abs format (unit mm)*
G04 Created by KiCad (PCBNEW 7.0.7-7.0.7~ubuntu22.04.1) date 2023-09-08 15:57:27*
%MOMM*%
%LPD*%
G01*
G04 APERTURE LIST*
G04 Aperture macros list*
%AMFreePoly0*
4,1,19,0.500000,-0.750000,0.000000,-0.750000,0.000000,-0.744911,-0.071157,-0.744911,-0.207708,-0.704816,-0.327430,-0.627875,-0.420627,-0.520320,-0.479746,-0.390866,-0.500000,-0.250000,-0.500000,0.250000,-0.479746,0.390866,-0.420627,0.520320,-0.327430,0.627875,-0.207708,0.704816,-0.071157,0.744911,0.000000,0.744911,0.000000,0.750000,0.500000,0.750000,0.500000,-0.750000,0.500000,-0.750000,
$1*%
%AMFreePoly1*
4,1,19,0.000000,0.744911,0.071157,0.744911,0.207708,0.704816,0.327430,0.627875,0.420627,0.520320,0.479746,0.390866,0.500000,0.250000,0.500000,-0.250000,0.479746,-0.390866,0.420627,-0.520320,0.327430,-0.627875,0.207708,-0.704816,0.071157,-0.744911,0.000000,-0.744911,0.000000,-0.750000,-0.500000,-0.750000,-0.500000,0.750000,0.000000,0.750000,0.000000,0.744911,0.000000,0.744911,
$1*%
G04 Aperture macros list end*
%TA.AperFunction,ComponentPad*%
%ADD10R,1.700000X1.700000*%
%TD*%
%TA.AperFunction,SMDPad,CuDef*%
%ADD11FreePoly0,180.000000*%
%TD*%
%TA.AperFunction,SMDPad,CuDef*%
%ADD12FreePoly1,180.000000*%
%TD*%
%TA.AperFunction,SMDPad,CuDef*%
%ADD13R,1.600200X0.508000*%
%TD*%
%TA.AperFunction,SMDPad,CuDef*%
%ADD14R,2.895600X1.397000*%
%TD*%
%TA.AperFunction,Conductor*%
%ADD15C,0.127000*%
%TD*%
G04 APERTURE END LIST*
%TA.AperFunction,EtchedComponent*%
%TO.C,JP9*%
G36*
X130250000Y-109030000D02*
G01*
X129750000Y-109030000D01*
X129750000Y-108430000D01*
X130250000Y-108430000D01*
X130250000Y-109030000D01*
G37*
%TD.AperFunction*%
%TA.AperFunction,EtchedComponent*%
%TO.C,JP14*%
G36*
X130250000Y-121730000D02*
G01*
X129750000Y-121730000D01*
X129750000Y-121130000D01*
X130250000Y-121130000D01*
X130250000Y-121730000D01*
G37*
%TD.AperFunction*%
%TA.AperFunction,EtchedComponent*%
%TO.C,JP11*%
G36*
X130250000Y-114110000D02*
G01*
X129750000Y-114110000D01*
X129750000Y-113510000D01*
X130250000Y-113510000D01*
X130250000Y-114110000D01*
G37*
%TD.AperFunction*%
%TA.AperFunction,EtchedComponent*%
%TO.C,JP5*%
G36*
X130250000Y-98870000D02*
G01*
X129750000Y-98870000D01*
X129750000Y-98270000D01*
X130250000Y-98270000D01*
X130250000Y-98870000D01*
G37*
%TD.AperFunction*%
%TA.AperFunction,EtchedComponent*%
%TO.C,JP7*%
G36*
X130250000Y-103950000D02*
G01*
X129750000Y-103950000D01*
X129750000Y-103350000D01*
X130250000Y-103350000D01*
X130250000Y-103950000D01*
G37*
%TD.AperFunction*%
%TA.AperFunction,EtchedComponent*%
%TO.C,JP1*%
G36*
X130250000Y-88710000D02*
G01*
X129750000Y-88710000D01*
X129750000Y-88110000D01*
X130250000Y-88110000D01*
X130250000Y-88710000D01*
G37*
%TD.AperFunction*%
%TA.AperFunction,EtchedComponent*%
%TO.C,JP4*%
G36*
X130250000Y-96330000D02*
G01*
X129750000Y-96330000D01*
X129750000Y-95730000D01*
X130250000Y-95730000D01*
X130250000Y-96330000D01*
G37*
%TD.AperFunction*%
%TA.AperFunction,EtchedComponent*%
%TO.C,JP13*%
G36*
X130250000Y-119190000D02*
G01*
X129750000Y-119190000D01*
X129750000Y-118590000D01*
X130250000Y-118590000D01*
X130250000Y-119190000D01*
G37*
%TD.AperFunction*%
%TA.AperFunction,EtchedComponent*%
%TO.C,JP8*%
G36*
X130250000Y-106490000D02*
G01*
X129750000Y-106490000D01*
X129750000Y-105890000D01*
X130250000Y-105890000D01*
X130250000Y-106490000D01*
G37*
%TD.AperFunction*%
%TA.AperFunction,EtchedComponent*%
%TO.C,JP15*%
G36*
X130250000Y-124270000D02*
G01*
X129750000Y-124270000D01*
X129750000Y-123670000D01*
X130250000Y-123670000D01*
X130250000Y-124270000D01*
G37*
%TD.AperFunction*%
%TA.AperFunction,EtchedComponent*%
%TO.C,JP16*%
G36*
X130250000Y-126810000D02*
G01*
X129750000Y-126810000D01*
X129750000Y-126210000D01*
X130250000Y-126210000D01*
X130250000Y-126810000D01*
G37*
%TD.AperFunction*%
%TA.AperFunction,EtchedComponent*%
%TO.C,JP10*%
G36*
X130250000Y-111570000D02*
G01*
X129750000Y-111570000D01*
X129750000Y-110970000D01*
X130250000Y-110970000D01*
X130250000Y-111570000D01*
G37*
%TD.AperFunction*%
%TA.AperFunction,EtchedComponent*%
%TO.C,JP2*%
G36*
X130250000Y-91250000D02*
G01*
X129750000Y-91250000D01*
X129750000Y-90650000D01*
X130250000Y-90650000D01*
X130250000Y-91250000D01*
G37*
%TD.AperFunction*%
%TA.AperFunction,EtchedComponent*%
%TO.C,JP17*%
G36*
X130250000Y-129350000D02*
G01*
X129750000Y-129350000D01*
X129750000Y-128750000D01*
X130250000Y-128750000D01*
X130250000Y-129350000D01*
G37*
%TD.AperFunction*%
%TA.AperFunction,EtchedComponent*%
%TO.C,JP18*%
G36*
X130250000Y-131890000D02*
G01*
X129750000Y-131890000D01*
X129750000Y-131290000D01*
X130250000Y-131290000D01*
X130250000Y-131890000D01*
G37*
%TD.AperFunction*%
%TA.AperFunction,EtchedComponent*%
%TO.C,JP6*%
G36*
X130250000Y-101410000D02*
G01*
X129750000Y-101410000D01*
X129750000Y-100810000D01*
X130250000Y-100810000D01*
X130250000Y-101410000D01*
G37*
%TD.AperFunction*%
%TA.AperFunction,EtchedComponent*%
%TO.C,JP12*%
G36*
X130250000Y-116650000D02*
G01*
X129750000Y-116650000D01*
X129750000Y-116050000D01*
X130250000Y-116050000D01*
X130250000Y-116650000D01*
G37*
%TD.AperFunction*%
%TA.AperFunction,EtchedComponent*%
%TO.C,JP3*%
G36*
X130250000Y-93790000D02*
G01*
X129750000Y-93790000D01*
X129750000Y-93190000D01*
X130250000Y-93190000D01*
X130250000Y-93790000D01*
G37*
%TD.AperFunction*%
%TD*%
D10*
%TO.P,TP15,1,1*%
%TO.N,Net-(JP15-A)*%
X140160000Y-123970000D03*
%TD*%
D11*
%TO.P,JP9,1,A*%
%TO.N,Net-(JP9-A)*%
X130650000Y-108730000D03*
D12*
%TO.P,JP9,2,B*%
%TO.N,Net-(JP9-B)*%
X129350000Y-108730000D03*
%TD*%
D11*
%TO.P,JP14,1,A*%
%TO.N,Net-(JP14-A)*%
X130650000Y-121430000D03*
D12*
%TO.P,JP14,2,B*%
%TO.N,Net-(JP14-B)*%
X129350000Y-121430000D03*
%TD*%
D10*
%TO.P,TP19,1,1*%
%TO.N,Net-(JP1-B)*%
X119840000Y-88410000D03*
%TD*%
%TO.P,TP12,1,1*%
%TO.N,Net-(JP12-A)*%
X140160000Y-116350000D03*
%TD*%
%TO.P,TP7,1,1*%
%TO.N,Net-(JP7-A)*%
X140160000Y-103650000D03*
%TD*%
%TO.P,TP31,1,1*%
%TO.N,Net-(JP13-B)*%
X119840000Y-118890000D03*
%TD*%
%TO.P,TP10,1,1*%
%TO.N,Net-(JP10-A)*%
X140160000Y-111270000D03*
%TD*%
%TO.P,TP35,1,1*%
%TO.N,Net-(JP17-B)*%
X119840000Y-129050000D03*
%TD*%
%TO.P,TP11,1,1*%
%TO.N,Net-(JP11-A)*%
X140160000Y-113810000D03*
%TD*%
%TO.P,TP33,1,1*%
%TO.N,Net-(JP15-B)*%
X119840000Y-123970000D03*
%TD*%
%TO.P,TP5,1,1*%
%TO.N,Net-(JP5-A)*%
X140160000Y-98570000D03*
%TD*%
D11*
%TO.P,JP11,1,A*%
%TO.N,Net-(JP11-A)*%
X130650000Y-113810000D03*
D12*
%TO.P,JP11,2,B*%
%TO.N,Net-(JP11-B)*%
X129350000Y-113810000D03*
%TD*%
D11*
%TO.P,JP5,1,A*%
%TO.N,Net-(JP5-A)*%
X130650000Y-98570000D03*
D12*
%TO.P,JP5,2,B*%
%TO.N,Net-(JP5-B)*%
X129350000Y-98570000D03*
%TD*%
D10*
%TO.P,TP13,1,1*%
%TO.N,Net-(JP13-A)*%
X140160000Y-118890000D03*
%TD*%
%TO.P,TP28,1,1*%
%TO.N,Net-(JP10-B)*%
X119840000Y-111270000D03*
%TD*%
D13*
%TO.P,J1,1,1*%
%TO.N,Net-(JP18-A)*%
X151143000Y-114249999D03*
%TO.P,J1,2,2*%
%TO.N,Net-(JP17-A)*%
X148730000Y-113750000D03*
%TO.P,J1,3,3*%
%TO.N,Net-(JP16-A)*%
X151143000Y-113250001D03*
%TO.P,J1,4,4*%
%TO.N,Net-(JP15-A)*%
X148730000Y-112749999D03*
%TO.P,J1,5,5*%
%TO.N,Net-(JP14-A)*%
X151143000Y-112250000D03*
%TO.P,J1,6,6*%
%TO.N,Net-(JP13-A)*%
X148730000Y-111749999D03*
%TO.P,J1,7,7*%
%TO.N,Net-(JP12-A)*%
X151143000Y-111250000D03*
%TO.P,J1,8,8*%
%TO.N,Net-(JP11-A)*%
X148730000Y-110750001D03*
%TO.P,J1,9,9*%
%TO.N,Net-(JP10-A)*%
X151143000Y-110249999D03*
%TO.P,J1,10,10*%
%TO.N,Net-(JP9-A)*%
X148730000Y-109750000D03*
%TO.P,J1,11,11*%
%TO.N,Net-(JP8-A)*%
X151143000Y-109250001D03*
%TO.P,J1,12,12*%
%TO.N,Net-(JP7-A)*%
X148730000Y-108750000D03*
%TO.P,J1,13,13*%
%TO.N,Net-(JP6-A)*%
X151143000Y-108250001D03*
%TO.P,J1,14,14*%
%TO.N,Net-(JP5-A)*%
X148730000Y-107749999D03*
%TO.P,J1,15,15*%
%TO.N,Net-(JP4-A)*%
X151143000Y-107250000D03*
%TO.P,J1,16,16*%
%TO.N,Net-(JP3-A)*%
X148730000Y-106750001D03*
%TO.P,J1,17,17*%
%TO.N,Net-(JP2-A)*%
X151143000Y-106250000D03*
%TO.P,J1,18,18*%
%TO.N,Net-(JP1-A)*%
X148730000Y-105750001D03*
D14*
%TO.P,J1,19,sh1*%
%TO.N,unconnected-(J1-sh1-Pad19)*%
X149949200Y-115943600D03*
%TO.P,J1,20,sh2*%
%TO.N,unconnected-(J1-sh2-Pad20)*%
X149949200Y-104056400D03*
%TD*%
D10*
%TO.P,TP16,1,1*%
%TO.N,Net-(JP16-A)*%
X140160000Y-126510000D03*
%TD*%
%TO.P,TP1,1,1*%
%TO.N,Net-(JP1-A)*%
X140160000Y-88410000D03*
%TD*%
%TO.P,TP20,1,1*%
%TO.N,Net-(JP2-B)*%
X119840000Y-90950000D03*
%TD*%
%TO.P,TP26,1,1*%
%TO.N,Net-(JP8-B)*%
X119840000Y-106190000D03*
%TD*%
D11*
%TO.P,JP7,1,A*%
%TO.N,Net-(JP7-A)*%
X130650000Y-103650000D03*
D12*
%TO.P,JP7,2,B*%
%TO.N,Net-(JP7-B)*%
X129350000Y-103650000D03*
%TD*%
D10*
%TO.P,TP25,1,1*%
%TO.N,Net-(JP7-B)*%
X119840000Y-103650000D03*
%TD*%
%TO.P,TP4,1,1*%
%TO.N,Net-(JP4-A)*%
X140160000Y-96030000D03*
%TD*%
D11*
%TO.P,JP1,1,A*%
%TO.N,Net-(JP1-A)*%
X130650000Y-88410000D03*
D12*
%TO.P,JP1,2,B*%
%TO.N,Net-(JP1-B)*%
X129350000Y-88410000D03*
%TD*%
D11*
%TO.P,JP4,1,A*%
%TO.N,Net-(JP4-A)*%
X130650000Y-96030000D03*
D12*
%TO.P,JP4,2,B*%
%TO.N,Net-(JP4-B)*%
X129350000Y-96030000D03*
%TD*%
D10*
%TO.P,TP34,1,1*%
%TO.N,Net-(JP16-B)*%
X119840000Y-126510000D03*
%TD*%
%TO.P,TP30,1,1*%
%TO.N,Net-(JP12-B)*%
X119840000Y-116350000D03*
%TD*%
D11*
%TO.P,JP13,1,A*%
%TO.N,Net-(JP13-A)*%
X130650000Y-118890000D03*
D12*
%TO.P,JP13,2,B*%
%TO.N,Net-(JP13-B)*%
X129350000Y-118890000D03*
%TD*%
D10*
%TO.P,TP18,1,1*%
%TO.N,Net-(JP18-A)*%
X140160000Y-131590000D03*
%TD*%
%TO.P,TP23,1,1*%
%TO.N,Net-(JP5-B)*%
X119840000Y-98570000D03*
%TD*%
%TO.P,TP8,1,1*%
%TO.N,Net-(JP8-A)*%
X140160000Y-106190000D03*
%TD*%
%TO.P,TP14,1,1*%
%TO.N,Net-(JP14-A)*%
X140160000Y-121430000D03*
%TD*%
D11*
%TO.P,JP8,1,A*%
%TO.N,Net-(JP8-A)*%
X130650000Y-106190000D03*
D12*
%TO.P,JP8,2,B*%
%TO.N,Net-(JP8-B)*%
X129350000Y-106190000D03*
%TD*%
D10*
%TO.P,TP36,1,1*%
%TO.N,Net-(JP18-B)*%
X119840000Y-131590000D03*
%TD*%
%TO.P,TP2,1,1*%
%TO.N,Net-(JP2-A)*%
X140160000Y-90950000D03*
%TD*%
D11*
%TO.P,JP15,1,A*%
%TO.N,Net-(JP15-A)*%
X130650000Y-123970000D03*
D12*
%TO.P,JP15,2,B*%
%TO.N,Net-(JP15-B)*%
X129350000Y-123970000D03*
%TD*%
D11*
%TO.P,JP16,1,A*%
%TO.N,Net-(JP16-A)*%
X130650000Y-126510000D03*
D12*
%TO.P,JP16,2,B*%
%TO.N,Net-(JP16-B)*%
X129350000Y-126510000D03*
%TD*%
D10*
%TO.P,TP6,1,1*%
%TO.N,Net-(JP6-A)*%
X140160000Y-101110000D03*
%TD*%
%TO.P,TP22,1,1*%
%TO.N,Net-(JP4-B)*%
X119840000Y-96030000D03*
%TD*%
D11*
%TO.P,JP10,1,A*%
%TO.N,Net-(JP10-A)*%
X130650000Y-111270000D03*
D12*
%TO.P,JP10,2,B*%
%TO.N,Net-(JP10-B)*%
X129350000Y-111270000D03*
%TD*%
D13*
%TO.P,J2,1,1*%
%TO.N,Net-(JP1-B)*%
X108857000Y-105750001D03*
%TO.P,J2,2,2*%
%TO.N,Net-(JP2-B)*%
X111270000Y-106250000D03*
%TO.P,J2,3,3*%
%TO.N,Net-(JP3-B)*%
X108857000Y-106749999D03*
%TO.P,J2,4,4*%
%TO.N,Net-(JP4-B)*%
X111270000Y-107250001D03*
%TO.P,J2,5,5*%
%TO.N,Net-(JP5-B)*%
X108857000Y-107750000D03*
%TO.P,J2,6,6*%
%TO.N,Net-(JP6-B)*%
X111270000Y-108250001D03*
%TO.P,J2,7,7*%
%TO.N,Net-(JP7-B)*%
X108857000Y-108750000D03*
%TO.P,J2,8,8*%
%TO.N,Net-(JP8-B)*%
X111270000Y-109249999D03*
%TO.P,J2,9,9*%
%TO.N,Net-(JP9-B)*%
X108857000Y-109750001D03*
%TO.P,J2,10,10*%
%TO.N,Net-(JP10-B)*%
X111270000Y-110250000D03*
%TO.P,J2,11,11*%
%TO.N,Net-(JP11-B)*%
X108857000Y-110749999D03*
%TO.P,J2,12,12*%
%TO.N,Net-(JP12-B)*%
X111270000Y-111250000D03*
%TO.P,J2,13,13*%
%TO.N,Net-(JP13-B)*%
X108857000Y-111749999D03*
%TO.P,J2,14,14*%
%TO.N,Net-(JP14-B)*%
X111270000Y-112250001D03*
%TO.P,J2,15,15*%
%TO.N,Net-(JP15-B)*%
X108857000Y-112750000D03*
%TO.P,J2,16,16*%
%TO.N,Net-(JP16-B)*%
X111270000Y-113249999D03*
%TO.P,J2,17,17*%
%TO.N,Net-(JP17-B)*%
X108857000Y-113750000D03*
%TO.P,J2,18,18*%
%TO.N,Net-(JP18-B)*%
X111270000Y-114249999D03*
D14*
%TO.P,J2,19,sh1*%
%TO.N,unconnected-(J2-sh1-Pad19)*%
X110050800Y-104056400D03*
%TO.P,J2,20,sh2*%
%TO.N,unconnected-(J2-sh2-Pad20)*%
X110050800Y-115943600D03*
%TD*%
D11*
%TO.P,JP2,1,A*%
%TO.N,Net-(JP2-A)*%
X130650000Y-90950000D03*
D12*
%TO.P,JP2,2,B*%
%TO.N,Net-(JP2-B)*%
X129350000Y-90950000D03*
%TD*%
D10*
%TO.P,TP32,1,1*%
%TO.N,Net-(JP14-B)*%
X119840000Y-121430000D03*
%TD*%
%TO.P,TP29,1,1*%
%TO.N,Net-(JP11-B)*%
X119840000Y-113810000D03*
%TD*%
D11*
%TO.P,JP17,1,A*%
%TO.N,Net-(JP17-A)*%
X130650000Y-129050000D03*
D12*
%TO.P,JP17,2,B*%
%TO.N,Net-(JP17-B)*%
X129350000Y-129050000D03*
%TD*%
D10*
%TO.P,TP21,1,1*%
%TO.N,Net-(JP3-B)*%
X119840000Y-93490000D03*
%TD*%
%TO.P,TP24,1,1*%
%TO.N,Net-(JP6-B)*%
X119840000Y-101110000D03*
%TD*%
D11*
%TO.P,JP18,1,A*%
%TO.N,Net-(JP18-A)*%
X130650000Y-131590000D03*
D12*
%TO.P,JP18,2,B*%
%TO.N,Net-(JP18-B)*%
X129350000Y-131590000D03*
%TD*%
D10*
%TO.P,TP27,1,1*%
%TO.N,Net-(JP9-B)*%
X119840000Y-108730000D03*
%TD*%
%TO.P,TP17,1,1*%
%TO.N,Net-(JP17-A)*%
X140160000Y-129050000D03*
%TD*%
D11*
%TO.P,JP6,1,A*%
%TO.N,Net-(JP6-A)*%
X130650000Y-101110000D03*
D12*
%TO.P,JP6,2,B*%
%TO.N,Net-(JP6-B)*%
X129350000Y-101110000D03*
%TD*%
D11*
%TO.P,JP12,1,A*%
%TO.N,Net-(JP12-A)*%
X130650000Y-116350000D03*
D12*
%TO.P,JP12,2,B*%
%TO.N,Net-(JP12-B)*%
X129350000Y-116350000D03*
%TD*%
D11*
%TO.P,JP3,1,A*%
%TO.N,Net-(JP3-A)*%
X130650000Y-93490000D03*
D12*
%TO.P,JP3,2,B*%
%TO.N,Net-(JP3-B)*%
X129350000Y-93490000D03*
%TD*%
D10*
%TO.P,TP9,1,1*%
%TO.N,Net-(JP9-A)*%
X140160000Y-108730000D03*
%TD*%
%TO.P,TP3,1,1*%
%TO.N,Net-(JP3-A)*%
X140160000Y-93490000D03*
%TD*%
D15*
%TO.N,Net-(JP18-A)*%
X151143000Y-114249999D02*
X150892999Y-114500000D01*
X147500000Y-124250000D02*
X140160000Y-131590000D01*
X148469750Y-114500000D02*
X147500000Y-115469750D01*
X150892999Y-114500000D02*
X148469750Y-114500000D01*
X147500000Y-115469750D02*
X147500000Y-124250000D01*
X140160000Y-131590000D02*
X130650000Y-131590000D01*
%TO.N,Net-(JP17-A)*%
X148730000Y-113750000D02*
X148240000Y-113750000D01*
X130650000Y-129050000D02*
X140160000Y-129050000D01*
X146500000Y-115490000D02*
X146500000Y-122710000D01*
X148240000Y-113750000D02*
X146500000Y-115490000D01*
X146500000Y-122710000D02*
X140160000Y-129050000D01*
%TO.N,Net-(JP16-A)*%
X147749999Y-113250001D02*
X145500000Y-115500000D01*
X145500000Y-121170000D02*
X140160000Y-126510000D01*
X145500000Y-115500000D02*
X145500000Y-121170000D01*
X151143000Y-113250001D02*
X147749999Y-113250001D01*
X140160000Y-126510000D02*
X130650000Y-126510000D01*
%TO.N,Net-(JP15-A)*%
X147250001Y-112749999D02*
X144500000Y-115500000D01*
X148730000Y-112749999D02*
X147250001Y-112749999D01*
X144500000Y-115500000D02*
X144500000Y-119630000D01*
X130650000Y-123970000D02*
X140160000Y-123970000D01*
X144500000Y-119630000D02*
X140160000Y-123970000D01*
%TO.N,Net-(JP14-A)*%
X140160000Y-121430000D02*
X130650000Y-121430000D01*
X151143000Y-112250000D02*
X146875000Y-112250000D01*
X143500000Y-115625000D02*
X143500000Y-118090000D01*
X143500000Y-118090000D02*
X140160000Y-121430000D01*
X146875000Y-112250000D02*
X143500000Y-115625000D01*
%TO.N,Net-(JP13-A)*%
X142500000Y-115750000D02*
X142500000Y-116550000D01*
X146500001Y-111749999D02*
X142500000Y-115750000D01*
X142500000Y-116550000D02*
X140160000Y-118890000D01*
X148730000Y-111749999D02*
X146500001Y-111749999D01*
X130650000Y-118890000D02*
X140160000Y-118890000D01*
%TO.N,Net-(JP12-A)*%
X146000000Y-111250000D02*
X151143000Y-111250000D01*
X140900000Y-116350000D02*
X146000000Y-111250000D01*
X140160000Y-116350000D02*
X140900000Y-116350000D01*
X130650000Y-116350000D02*
X140160000Y-116350000D01*
%TO.N,Net-(JP11-A)*%
X140160000Y-113810000D02*
X130650000Y-113810000D01*
X145499999Y-110750001D02*
X142440000Y-113810000D01*
X142440000Y-113810000D02*
X140160000Y-113810000D01*
X148730000Y-110750001D02*
X145499999Y-110750001D01*
%TO.N,Net-(JP10-A)*%
X145000000Y-110250000D02*
X143980000Y-111270000D01*
X151143000Y-110249999D02*
X145000000Y-110250000D01*
X139635026Y-111794974D02*
X140160000Y-111270000D01*
X130250002Y-111794974D02*
X139635026Y-111794974D01*
X143980000Y-111270000D02*
X140160000Y-111270000D01*
%TO.N,Net-(JP9-A)*%
X140160000Y-108730000D02*
X140095026Y-108794974D01*
X148730000Y-109750000D02*
X144250000Y-109750000D01*
X144250000Y-109750000D02*
X143230000Y-108730000D01*
X143230000Y-108730000D02*
X140160000Y-108730000D01*
X140095026Y-108794974D02*
X130400002Y-108794974D01*
%TO.N,Net-(JP8-A)*%
X130650000Y-106190000D02*
X131045026Y-105794974D01*
X131045026Y-105794974D02*
X139764974Y-105794974D01*
X144750001Y-109250001D02*
X141690000Y-106190000D01*
X139764974Y-105794974D02*
X140160000Y-106190000D01*
X151143000Y-109250001D02*
X144750001Y-109250001D01*
X141690000Y-106190000D02*
X140160000Y-106190000D01*
%TO.N,Net-(JP7-A)*%
X145250000Y-108750000D02*
X143250000Y-106750000D01*
X141150000Y-103650000D02*
X140160000Y-103650000D01*
X143250000Y-106750000D02*
X143250000Y-105750000D01*
X143250000Y-105750000D02*
X141150000Y-103650000D01*
X140160000Y-103650000D02*
X130650000Y-103650000D01*
X148730000Y-108750000D02*
X145250000Y-108750000D01*
%TO.N,Net-(JP6-A)*%
X144000000Y-104950000D02*
X140160000Y-101110000D01*
X144000000Y-106500000D02*
X144000000Y-104950000D01*
X130650000Y-101110000D02*
X140160000Y-101110000D01*
X151143000Y-108250001D02*
X145750001Y-108250001D01*
X145750001Y-108250001D02*
X144000000Y-106500000D01*
%TO.N,Net-(JP5-A)*%
X148730000Y-107749999D02*
X146249999Y-107749999D01*
X140160000Y-98570000D02*
X130650000Y-98570000D01*
X144750000Y-106250000D02*
X144750000Y-103160000D01*
X144750000Y-103160000D02*
X140160000Y-98570000D01*
X146249999Y-107749999D02*
X144750000Y-106250000D01*
%TO.N,Net-(JP4-A)*%
X130650000Y-96030000D02*
X140160000Y-96030000D01*
X145500000Y-106000000D02*
X145500000Y-101370000D01*
X151143000Y-107250000D02*
X146750000Y-107250000D01*
X145500000Y-101370000D02*
X140160000Y-96030000D01*
X146750000Y-107250000D02*
X145500000Y-106000000D01*
%TO.N,Net-(JP3-A)*%
X146250000Y-105750000D02*
X146250000Y-99580000D01*
X147250001Y-106750001D02*
X146250000Y-105750000D01*
X148730000Y-106750001D02*
X147250001Y-106750001D01*
X146250000Y-99580000D02*
X140160000Y-93490000D01*
X140160000Y-93490000D02*
X130650000Y-93490000D01*
%TO.N,Net-(JP2-A)*%
X147000000Y-105500000D02*
X147000000Y-97790000D01*
X151143000Y-106250000D02*
X147750000Y-106250000D01*
X147750000Y-106250000D02*
X147000000Y-105500000D01*
X130650000Y-90950000D02*
X140160000Y-90950000D01*
X147000000Y-97790000D02*
X140160000Y-90950000D01*
%TO.N,Net-(JP1-A)*%
X147780000Y-104800001D02*
X147780000Y-96030000D01*
X148730000Y-105750001D02*
X147780000Y-104800001D01*
X130650000Y-88410000D02*
X140160000Y-88410000D01*
X147780000Y-96030000D02*
X140160000Y-88410000D01*
%TO.N,Net-(JP1-B)*%
X110810499Y-105750001D02*
X112000000Y-104560500D01*
X119840000Y-88410000D02*
X129350000Y-88410000D01*
X112000000Y-104560500D02*
X112000000Y-96250000D01*
X108857000Y-105750001D02*
X110810499Y-105750001D01*
X112000000Y-96250000D02*
X119840000Y-88410000D01*
%TO.N,Net-(JP2-B)*%
X111750000Y-106250000D02*
X113000000Y-105000000D01*
X113000000Y-97790000D02*
X119840000Y-90950000D01*
X113000000Y-105000000D02*
X113000000Y-97790000D01*
X111270000Y-106250000D02*
X111750000Y-106250000D01*
X119840000Y-90950000D02*
X124920000Y-90950000D01*
X124920000Y-90950000D02*
X129350000Y-90950000D01*
%TO.N,Net-(JP3-B)*%
X108857000Y-106749999D02*
X112500001Y-106749999D01*
X119840000Y-93490000D02*
X129350000Y-93490000D01*
X114000000Y-105250000D02*
X114000000Y-99330000D01*
X112500001Y-106749999D02*
X114000000Y-105250000D01*
X114000000Y-99330000D02*
X119840000Y-93490000D01*
%TO.N,Net-(JP4-B)*%
X113249999Y-107250001D02*
X115000000Y-105500000D01*
X119840000Y-96030000D02*
X129350000Y-96030000D01*
X115000000Y-100870000D02*
X119840000Y-96030000D01*
X111270000Y-107250001D02*
X113249999Y-107250001D01*
X115000000Y-105500000D02*
X115000000Y-100870000D01*
%TO.N,Net-(JP5-B)*%
X116000000Y-105500000D02*
X116000000Y-102410000D01*
X108857000Y-107750000D02*
X113750000Y-107750000D01*
X116000000Y-102410000D02*
X119840000Y-98570000D01*
X113750000Y-107750000D02*
X116000000Y-105500000D01*
X119840000Y-98570000D02*
X129350000Y-98570000D01*
%TO.N,Net-(JP6-B)*%
X117000000Y-105500000D02*
X117000000Y-103950000D01*
X117000000Y-103950000D02*
X119840000Y-101110000D01*
X114249999Y-108250001D02*
X117000000Y-105500000D01*
X119840000Y-101110000D02*
X129350000Y-101110000D01*
X111270000Y-108250001D02*
X114249999Y-108250001D01*
%TO.N,Net-(JP7-B)*%
X108857000Y-108750000D02*
X114750000Y-108750000D01*
X119840000Y-103650000D02*
X129350000Y-103650000D01*
X114750000Y-108750000D02*
X118000000Y-105500000D01*
X118000000Y-105490000D02*
X119840000Y-103650000D01*
X118000000Y-105500000D02*
X118000000Y-105490000D01*
%TO.N,Net-(JP8-B)*%
X119840000Y-106190000D02*
X120235026Y-105794974D01*
X118310000Y-106190000D02*
X119840000Y-106190000D01*
X111270000Y-109249999D02*
X115250001Y-109249999D01*
X120235026Y-105794974D02*
X128954974Y-105794974D01*
X115250001Y-109249999D02*
X118310000Y-106190000D01*
X128954974Y-105794974D02*
X129350000Y-106190000D01*
%TO.N,Net-(JP9-B)*%
X116770000Y-108730000D02*
X119840000Y-108730000D01*
X119840000Y-108730000D02*
X119904974Y-108794974D01*
X108857000Y-109750001D02*
X115749999Y-109750001D01*
X115749999Y-109750001D02*
X116770000Y-108730000D01*
X119904974Y-108794974D02*
X129100002Y-108794974D01*
%TO.N,Net-(JP10-B)*%
X119840000Y-111270000D02*
X120364974Y-111794974D01*
X117270000Y-111270000D02*
X119840000Y-111270000D01*
X111270000Y-110250000D02*
X116250000Y-110250000D01*
X120364974Y-111794974D02*
X128950002Y-111794974D01*
X116250000Y-110250000D02*
X117270000Y-111270000D01*
%TO.N,Net-(JP11-B)*%
X119840000Y-113810000D02*
X129350000Y-113810000D01*
X108857000Y-110749999D02*
X115451256Y-110749999D01*
X115451256Y-110749999D02*
X118511257Y-113810000D01*
X118511257Y-113810000D02*
X119840000Y-113810000D01*
%TO.N,Net-(JP12-B)*%
X114750000Y-111250000D02*
X118000000Y-114500000D01*
X118000000Y-114510000D02*
X119840000Y-116350000D01*
X111270000Y-111250000D02*
X114750000Y-111250000D01*
X118000000Y-114500000D02*
X118000000Y-114510000D01*
X119840000Y-116350000D02*
X129350000Y-116350000D01*
%TO.N,Net-(JP13-B)*%
X114249999Y-111749999D02*
X117000000Y-114500000D01*
X108857000Y-111749999D02*
X114249999Y-111749999D01*
X129350000Y-118890000D02*
X119840000Y-118890000D01*
X117000000Y-114500000D02*
X117000000Y-116050000D01*
X117000000Y-116050000D02*
X119840000Y-118890000D01*
%TO.N,Net-(JP14-B)*%
X113750001Y-112250001D02*
X116000000Y-114500000D01*
X116000000Y-114500000D02*
X116000000Y-117590000D01*
X119840000Y-121430000D02*
X129350000Y-121430000D01*
X111270000Y-112250001D02*
X113750001Y-112250001D01*
X116000000Y-117590000D02*
X119840000Y-121430000D01*
%TO.N,Net-(JP15-B)*%
X108857000Y-112750000D02*
X113250000Y-112750000D01*
X115000000Y-119130000D02*
X119840000Y-123970000D01*
X129350000Y-123970000D02*
X119840000Y-123970000D01*
X115000000Y-114500000D02*
X115000000Y-119130000D01*
X113250000Y-112750000D02*
X115000000Y-114500000D01*
%TO.N,Net-(JP16-B)*%
X112749999Y-113249999D02*
X114000000Y-114500000D01*
X119840000Y-126510000D02*
X126190000Y-126510000D01*
X114000000Y-114500000D02*
X114000000Y-120670000D01*
X111270000Y-113249999D02*
X112749999Y-113249999D01*
X126190000Y-126510000D02*
X129350000Y-126510000D01*
X114000000Y-120670000D02*
X119840000Y-126510000D01*
%TO.N,Net-(JP17-B)*%
X112250000Y-113750000D02*
X113000000Y-114500000D01*
X113000000Y-114500000D02*
X113000000Y-122210000D01*
X108857000Y-113750000D02*
X112250000Y-113750000D01*
X113000000Y-122210000D02*
X119840000Y-129050000D01*
X129350000Y-129050000D02*
X119840000Y-129050000D01*
%TO.N,Net-(JP18-B)*%
X119840000Y-131590000D02*
X129350000Y-131590000D01*
X111652100Y-114652100D02*
X112000000Y-115000000D01*
X112000000Y-115000000D02*
X112000000Y-123750000D01*
X112000000Y-123750000D02*
X119840000Y-131590000D01*
X111270000Y-114249999D02*
X111652100Y-114632099D01*
X111652100Y-114632099D02*
X111652100Y-114652100D01*
%TD*%
%TA.AperFunction,NonConductor*%
G36*
X150013067Y-85011040D02*
G01*
X150409455Y-85027435D01*
X150414581Y-85027860D01*
X150818666Y-85078228D01*
X150823779Y-85079081D01*
X151222318Y-85162646D01*
X151227333Y-85163916D01*
X151617613Y-85280108D01*
X151622505Y-85281788D01*
X152001839Y-85429804D01*
X152006597Y-85431892D01*
X152372392Y-85610718D01*
X152376973Y-85613197D01*
X152547675Y-85714913D01*
X152726767Y-85821629D01*
X152731121Y-85824474D01*
X153062497Y-86061072D01*
X153066607Y-86064271D01*
X153377310Y-86327424D01*
X153381130Y-86330940D01*
X153669058Y-86618868D01*
X153672575Y-86622689D01*
X153935728Y-86933392D01*
X153938927Y-86937502D01*
X154175525Y-87268878D01*
X154178375Y-87273239D01*
X154386802Y-87623026D01*
X154389281Y-87627607D01*
X154568107Y-87993402D01*
X154570200Y-87998173D01*
X154718204Y-88377474D01*
X154719896Y-88382401D01*
X154836081Y-88772659D01*
X154837357Y-88777699D01*
X154887267Y-89015727D01*
X154920915Y-89176204D01*
X154921772Y-89181342D01*
X154937639Y-89308632D01*
X154972137Y-89585396D01*
X154972565Y-89590566D01*
X154989500Y-89999999D01*
X154989500Y-129996588D01*
X154989500Y-130000000D01*
X154973142Y-130395510D01*
X154972566Y-130409425D01*
X154972136Y-130414605D01*
X154962266Y-130493796D01*
X154921772Y-130818657D01*
X154920915Y-130823795D01*
X154837360Y-131222290D01*
X154836081Y-131227340D01*
X154719896Y-131617598D01*
X154718204Y-131622525D01*
X154570200Y-132001826D01*
X154568107Y-132006597D01*
X154389281Y-132372392D01*
X154386802Y-132376973D01*
X154178375Y-132726760D01*
X154175525Y-132731121D01*
X153938927Y-133062497D01*
X153935728Y-133066607D01*
X153672575Y-133377310D01*
X153669047Y-133381143D01*
X153381143Y-133669047D01*
X153377310Y-133672575D01*
X153066607Y-133935728D01*
X153062497Y-133938927D01*
X152731121Y-134175525D01*
X152726760Y-134178375D01*
X152376973Y-134386802D01*
X152372392Y-134389281D01*
X152006597Y-134568107D01*
X152001826Y-134570200D01*
X151622525Y-134718204D01*
X151617598Y-134719896D01*
X151227340Y-134836081D01*
X151222295Y-134837358D01*
X151058323Y-134871739D01*
X150823795Y-134920915D01*
X150818657Y-134921772D01*
X150592780Y-134949927D01*
X150414605Y-134972136D01*
X150409431Y-134972565D01*
X150000000Y-134989500D01*
X110000000Y-134989500D01*
X109590566Y-134972565D01*
X109585396Y-134972137D01*
X109359505Y-134943980D01*
X109181342Y-134921772D01*
X109176204Y-134920915D01*
X109094553Y-134903794D01*
X108777699Y-134837357D01*
X108772659Y-134836081D01*
X108382401Y-134719896D01*
X108377480Y-134718206D01*
X107998172Y-134570199D01*
X107993402Y-134568107D01*
X107627607Y-134389281D01*
X107623026Y-134386802D01*
X107273239Y-134178375D01*
X107268878Y-134175525D01*
X106937502Y-133938927D01*
X106933392Y-133935728D01*
X106622689Y-133672575D01*
X106618868Y-133669058D01*
X106330940Y-133381130D01*
X106327424Y-133377310D01*
X106064271Y-133066607D01*
X106061072Y-133062497D01*
X105824474Y-132731121D01*
X105821624Y-132726760D01*
X105778235Y-132653944D01*
X105679741Y-132488649D01*
X105613197Y-132376973D01*
X105610718Y-132372392D01*
X105543872Y-132235657D01*
X105431892Y-132006597D01*
X105429804Y-132001839D01*
X105281788Y-131622505D01*
X105280108Y-131617613D01*
X105163916Y-131227333D01*
X105162646Y-131222318D01*
X105079081Y-130823779D01*
X105078227Y-130818657D01*
X105076258Y-130802857D01*
X105027860Y-130414581D01*
X105027435Y-130409455D01*
X105010500Y-130000000D01*
X105010500Y-129999999D01*
X107984802Y-129999999D01*
X108003570Y-130274389D01*
X108003571Y-130274395D01*
X108003572Y-130274403D01*
X108018675Y-130347081D01*
X108059529Y-130543687D01*
X108059531Y-130543695D01*
X108112008Y-130691350D01*
X108151638Y-130802857D01*
X108278176Y-131047065D01*
X108436788Y-131271767D01*
X108624520Y-131472779D01*
X108837875Y-131646356D01*
X109072878Y-131789265D01*
X109325151Y-131898842D01*
X109589996Y-131973048D01*
X109683688Y-131985925D01*
X109862465Y-132010499D01*
X109862478Y-132010500D01*
X110137522Y-132010500D01*
X110137534Y-132010499D01*
X110290307Y-131989500D01*
X110410004Y-131973048D01*
X110674849Y-131898842D01*
X110927122Y-131789265D01*
X111162125Y-131646356D01*
X111375480Y-131472779D01*
X111563212Y-131271767D01*
X111721824Y-131047065D01*
X111848362Y-130802857D01*
X111940469Y-130543694D01*
X111996428Y-130274403D01*
X112015198Y-130000000D01*
X112011685Y-129948649D01*
X111996429Y-129725610D01*
X111996428Y-129725604D01*
X111996428Y-129725597D01*
X111940469Y-129456306D01*
X111848362Y-129197143D01*
X111721824Y-128952935D01*
X111563212Y-128728233D01*
X111375480Y-128527221D01*
X111162125Y-128353644D01*
X110927122Y-128210735D01*
X110927123Y-128210735D01*
X110927119Y-128210733D01*
X110674855Y-128101160D01*
X110674851Y-128101158D01*
X110674849Y-128101158D01*
X110410004Y-128026952D01*
X110410003Y-128026951D01*
X110410000Y-128026951D01*
X110137534Y-127989500D01*
X110137522Y-127989500D01*
X109862478Y-127989500D01*
X109862465Y-127989500D01*
X109589999Y-128026951D01*
X109325144Y-128101160D01*
X109072880Y-128210733D01*
X108903910Y-128313487D01*
X108840579Y-128352000D01*
X108837872Y-128353646D01*
X108624525Y-128527217D01*
X108624517Y-128527224D01*
X108436788Y-128728233D01*
X108278177Y-128952934D01*
X108278176Y-128952935D01*
X108151638Y-129197142D01*
X108059531Y-129456304D01*
X108059529Y-129456312D01*
X108025100Y-129622000D01*
X108009794Y-129695658D01*
X108003571Y-129725604D01*
X108003570Y-129725610D01*
X107984802Y-129999995D01*
X107984802Y-129999999D01*
X105010500Y-129999999D01*
X105010500Y-129996588D01*
X105010500Y-129996587D01*
X105010500Y-114052649D01*
X107548400Y-114052649D01*
X107554909Y-114113196D01*
X107554911Y-114113204D01*
X107606010Y-114250202D01*
X107606012Y-114250207D01*
X107693638Y-114367261D01*
X107810692Y-114454887D01*
X107810694Y-114454888D01*
X107810696Y-114454889D01*
X107869775Y-114476924D01*
X107947695Y-114505988D01*
X107947703Y-114505990D01*
X108008250Y-114512499D01*
X108008255Y-114512499D01*
X108008262Y-114512500D01*
X108008268Y-114512500D01*
X108413721Y-114512500D01*
X108481842Y-114532502D01*
X108528335Y-114586158D01*
X108538439Y-114656432D01*
X108508945Y-114721012D01*
X108457754Y-114756555D01*
X108356796Y-114794210D01*
X108356792Y-114794212D01*
X108239738Y-114881838D01*
X108152112Y-114998892D01*
X108152110Y-114998897D01*
X108101011Y-115135895D01*
X108101009Y-115135903D01*
X108094500Y-115196450D01*
X108094500Y-116690749D01*
X108101009Y-116751296D01*
X108101011Y-116751304D01*
X108152110Y-116888302D01*
X108152112Y-116888307D01*
X108239738Y-117005361D01*
X108356792Y-117092987D01*
X108356794Y-117092988D01*
X108356796Y-117092989D01*
X108407761Y-117111998D01*
X108493795Y-117144088D01*
X108493803Y-117144090D01*
X108554350Y-117150599D01*
X108554355Y-117150599D01*
X108554362Y-117150600D01*
X111302000Y-117150600D01*
X111370121Y-117170602D01*
X111416614Y-117224258D01*
X111427999Y-117276599D01*
X111427999Y-120531350D01*
X111427999Y-123708377D01*
X111427460Y-123716607D01*
X111423065Y-123750000D01*
X111427999Y-123787486D01*
X111428000Y-123787492D01*
X111435182Y-123842045D01*
X111442723Y-123899322D01*
X111500356Y-124038464D01*
X111562400Y-124119322D01*
X111592044Y-124157954D01*
X111618771Y-124178463D01*
X111624963Y-124183893D01*
X115092736Y-127651665D01*
X118444595Y-131003524D01*
X118478621Y-131065836D01*
X118481500Y-131092619D01*
X118481500Y-132488649D01*
X118488009Y-132549196D01*
X118488011Y-132549204D01*
X118539110Y-132686202D01*
X118539112Y-132686207D01*
X118626738Y-132803261D01*
X118743792Y-132890887D01*
X118743794Y-132890888D01*
X118743796Y-132890889D01*
X118802875Y-132912924D01*
X118880795Y-132941988D01*
X118880803Y-132941990D01*
X118941350Y-132948499D01*
X118941355Y-132948499D01*
X118941362Y-132948500D01*
X118941368Y-132948500D01*
X120738632Y-132948500D01*
X120738638Y-132948500D01*
X120738645Y-132948499D01*
X120738649Y-132948499D01*
X120799196Y-132941990D01*
X120799199Y-132941989D01*
X120799201Y-132941989D01*
X120936204Y-132890889D01*
X121053261Y-132803261D01*
X121061382Y-132792413D01*
X121140887Y-132686207D01*
X121140887Y-132686206D01*
X121140889Y-132686204D01*
X121191989Y-132549201D01*
X121198500Y-132488638D01*
X121198500Y-132288000D01*
X121218502Y-132219879D01*
X121272158Y-132173386D01*
X121324500Y-132162000D01*
X128301638Y-132162000D01*
X128369759Y-132182002D01*
X128416251Y-132235657D01*
X128457741Y-132326507D01*
X128457744Y-132326512D01*
X128536795Y-132449518D01*
X128536797Y-132449520D01*
X128629492Y-132556498D01*
X128630202Y-132557379D01*
X128630952Y-132558183D01*
X128741460Y-132653938D01*
X128836987Y-132715329D01*
X128862410Y-132731668D01*
X128862414Y-132731670D01*
X128995423Y-132792413D01*
X129133378Y-132832920D01*
X129278111Y-132853729D01*
X129278114Y-132853729D01*
X129849994Y-132853729D01*
X129850000Y-132853729D01*
X129923111Y-132848500D01*
X129959434Y-132837833D01*
X130012867Y-132834012D01*
X130149993Y-132853728D01*
X130149998Y-132853729D01*
X130150000Y-132853729D01*
X130721886Y-132853729D01*
X130721889Y-132853729D01*
X130866622Y-132832920D01*
X131004577Y-132792413D01*
X131137586Y-132731670D01*
X131182175Y-132703014D01*
X131258532Y-132653944D01*
X131258539Y-132653939D01*
X131258544Y-132653935D01*
X131369051Y-132558179D01*
X131463205Y-132449518D01*
X131542256Y-132326512D01*
X131559844Y-132288000D01*
X131583749Y-132235657D01*
X131630242Y-132182002D01*
X131698362Y-132162000D01*
X138675500Y-132162000D01*
X138743621Y-132182002D01*
X138790114Y-132235658D01*
X138801500Y-132288000D01*
X138801500Y-132488649D01*
X138808009Y-132549196D01*
X138808011Y-132549204D01*
X138859110Y-132686202D01*
X138859112Y-132686207D01*
X138946738Y-132803261D01*
X139063792Y-132890887D01*
X139063794Y-132890888D01*
X139063796Y-132890889D01*
X139122875Y-132912924D01*
X139200795Y-132941988D01*
X139200803Y-132941990D01*
X139261350Y-132948499D01*
X139261355Y-132948499D01*
X139261362Y-132948500D01*
X139261368Y-132948500D01*
X141058632Y-132948500D01*
X141058638Y-132948500D01*
X141058645Y-132948499D01*
X141058649Y-132948499D01*
X141119196Y-132941990D01*
X141119199Y-132941989D01*
X141119201Y-132941989D01*
X141256204Y-132890889D01*
X141373261Y-132803261D01*
X141381382Y-132792413D01*
X141460887Y-132686207D01*
X141460887Y-132686206D01*
X141460889Y-132686204D01*
X141511989Y-132549201D01*
X141518500Y-132488638D01*
X141518500Y-131092619D01*
X141538502Y-131024498D01*
X141555405Y-131003524D01*
X142558930Y-129999999D01*
X147984802Y-129999999D01*
X148003570Y-130274389D01*
X148003571Y-130274395D01*
X148003572Y-130274403D01*
X148018675Y-130347081D01*
X148059529Y-130543687D01*
X148059531Y-130543695D01*
X148112008Y-130691350D01*
X148151638Y-130802857D01*
X148278176Y-131047065D01*
X148436788Y-131271767D01*
X148624520Y-131472779D01*
X148837875Y-131646356D01*
X149072878Y-131789265D01*
X149325151Y-131898842D01*
X149589996Y-131973048D01*
X149683688Y-131985925D01*
X149862465Y-132010499D01*
X149862478Y-132010500D01*
X150137522Y-132010500D01*
X150137534Y-132010499D01*
X150290307Y-131989500D01*
X150410004Y-131973048D01*
X150674849Y-131898842D01*
X150927122Y-131789265D01*
X151162125Y-131646356D01*
X151375480Y-131472779D01*
X151563212Y-131271767D01*
X151721824Y-131047065D01*
X151848362Y-130802857D01*
X151940469Y-130543694D01*
X151996428Y-130274403D01*
X152015198Y-130000000D01*
X152011685Y-129948649D01*
X151996429Y-129725610D01*
X151996428Y-129725604D01*
X151996428Y-129725597D01*
X151940469Y-129456306D01*
X151848362Y-129197143D01*
X151721824Y-128952935D01*
X151563212Y-128728233D01*
X151375480Y-128527221D01*
X151162125Y-128353644D01*
X150927122Y-128210735D01*
X150927123Y-128210735D01*
X150927119Y-128210733D01*
X150674855Y-128101160D01*
X150674851Y-128101158D01*
X150674849Y-128101158D01*
X150410004Y-128026952D01*
X150410003Y-128026951D01*
X150410000Y-128026951D01*
X150137534Y-127989500D01*
X150137522Y-127989500D01*
X149862478Y-127989500D01*
X149862465Y-127989500D01*
X149589999Y-128026951D01*
X149325144Y-128101160D01*
X149072880Y-128210733D01*
X148903910Y-128313487D01*
X148840579Y-128352000D01*
X148837872Y-128353646D01*
X148624525Y-128527217D01*
X148624517Y-128527224D01*
X148436788Y-128728233D01*
X148278177Y-128952934D01*
X148278176Y-128952935D01*
X148151638Y-129197142D01*
X148059531Y-129456304D01*
X148059529Y-129456312D01*
X148025100Y-129622000D01*
X148009794Y-129695658D01*
X148003571Y-129725604D01*
X148003570Y-129725610D01*
X147984802Y-129999995D01*
X147984802Y-129999999D01*
X142558930Y-129999999D01*
X143119436Y-129439493D01*
X147875044Y-124683884D01*
X147881217Y-124678470D01*
X147907955Y-124657955D01*
X147999641Y-124538468D01*
X148008957Y-124515976D01*
X148028151Y-124469641D01*
X148044080Y-124431181D01*
X148057278Y-124399322D01*
X148076936Y-124250000D01*
X148076936Y-124249998D01*
X148072540Y-124216604D01*
X148072000Y-124208373D01*
X148072000Y-117205317D01*
X148092002Y-117137196D01*
X148145658Y-117090703D01*
X148215932Y-117080599D01*
X148246414Y-117090746D01*
X148246753Y-117089840D01*
X148392195Y-117144088D01*
X148392203Y-117144090D01*
X148452750Y-117150599D01*
X148452755Y-117150599D01*
X148452762Y-117150600D01*
X148452768Y-117150600D01*
X151445632Y-117150600D01*
X151445638Y-117150600D01*
X151445645Y-117150599D01*
X151445649Y-117150599D01*
X151506196Y-117144090D01*
X151506199Y-117144089D01*
X151506201Y-117144089D01*
X151643204Y-117092989D01*
X151646201Y-117090746D01*
X151760261Y-117005361D01*
X151847887Y-116888307D01*
X151847887Y-116888306D01*
X151847889Y-116888304D01*
X151898989Y-116751301D01*
X151905500Y-116690738D01*
X151905500Y-115196462D01*
X151900402Y-115149044D01*
X151913007Y-115079177D01*
X151961385Y-115027215D01*
X152012213Y-115010298D01*
X152052296Y-115005989D01*
X152052299Y-115005988D01*
X152052301Y-115005988D01*
X152056318Y-115004490D01*
X152071326Y-114998892D01*
X152189304Y-114954888D01*
X152193606Y-114951668D01*
X152306361Y-114867260D01*
X152393987Y-114750206D01*
X152393987Y-114750205D01*
X152393989Y-114750203D01*
X152445089Y-114613200D01*
X152447997Y-114586158D01*
X152451599Y-114552648D01*
X152451600Y-114552631D01*
X152451600Y-113947366D01*
X152451599Y-113947349D01*
X152445090Y-113886802D01*
X152445088Y-113886794D01*
X152410489Y-113794032D01*
X152405423Y-113723216D01*
X152410489Y-113705965D01*
X152445089Y-113613202D01*
X152445090Y-113613197D01*
X152451599Y-113552650D01*
X152451600Y-113552633D01*
X152451600Y-112947368D01*
X152451599Y-112947351D01*
X152445090Y-112886804D01*
X152445089Y-112886799D01*
X152410488Y-112794034D01*
X152405422Y-112723218D01*
X152410488Y-112705966D01*
X152445089Y-112613201D01*
X152445636Y-112608121D01*
X152451599Y-112552649D01*
X152451600Y-112552632D01*
X152451600Y-111947367D01*
X152451599Y-111947350D01*
X152445090Y-111886804D01*
X152445089Y-111886800D01*
X152437753Y-111867132D01*
X152410488Y-111794030D01*
X152405424Y-111723214D01*
X152410487Y-111705970D01*
X152445089Y-111613201D01*
X152451600Y-111552638D01*
X152451600Y-110947362D01*
X152451549Y-110946887D01*
X152445090Y-110886803D01*
X152445089Y-110886798D01*
X152414420Y-110804574D01*
X152410487Y-110794032D01*
X152405422Y-110723217D01*
X152410488Y-110705965D01*
X152417706Y-110686614D01*
X152445089Y-110613200D01*
X152449519Y-110572000D01*
X152451599Y-110552648D01*
X152451600Y-110552631D01*
X152451600Y-109947366D01*
X152451599Y-109947349D01*
X152445090Y-109886802D01*
X152445088Y-109886794D01*
X152410489Y-109794032D01*
X152405423Y-109723216D01*
X152410489Y-109705965D01*
X152439332Y-109628638D01*
X152445089Y-109613202D01*
X152447636Y-109589518D01*
X152451599Y-109552650D01*
X152451600Y-109552633D01*
X152451600Y-108947368D01*
X152451599Y-108947351D01*
X152445090Y-108886805D01*
X152445089Y-108886801D01*
X152410488Y-108794031D01*
X152405424Y-108723215D01*
X152410487Y-108705971D01*
X152445089Y-108613202D01*
X152451600Y-108552639D01*
X152451600Y-107947363D01*
X152451121Y-107942905D01*
X152445090Y-107886804D01*
X152445089Y-107886799D01*
X152410488Y-107794034D01*
X152405422Y-107723218D01*
X152410488Y-107705966D01*
X152425372Y-107666062D01*
X152445089Y-107613201D01*
X152447763Y-107588334D01*
X152451599Y-107552649D01*
X152451600Y-107552632D01*
X152451600Y-106947367D01*
X152451599Y-106947350D01*
X152445090Y-106886804D01*
X152445089Y-106886800D01*
X152410488Y-106794030D01*
X152405424Y-106723214D01*
X152410487Y-106705970D01*
X152445089Y-106613201D01*
X152451600Y-106552638D01*
X152451600Y-105947362D01*
X152451599Y-105947350D01*
X152445090Y-105886803D01*
X152445088Y-105886795D01*
X152393989Y-105749797D01*
X152393987Y-105749792D01*
X152306361Y-105632738D01*
X152189307Y-105545112D01*
X152189302Y-105545110D01*
X152052304Y-105494011D01*
X152052296Y-105494009D01*
X151991749Y-105487500D01*
X151991738Y-105487500D01*
X151586279Y-105487500D01*
X151518158Y-105467498D01*
X151471665Y-105413842D01*
X151461561Y-105343568D01*
X151491055Y-105278988D01*
X151542246Y-105243445D01*
X151580494Y-105229178D01*
X151643204Y-105205789D01*
X151661360Y-105192198D01*
X151760261Y-105118161D01*
X151847887Y-105001107D01*
X151847887Y-105001106D01*
X151847889Y-105001104D01*
X151898989Y-104864101D01*
X151899080Y-104863261D01*
X151905499Y-104803549D01*
X151905500Y-104803532D01*
X151905500Y-103309267D01*
X151905499Y-103309250D01*
X151898990Y-103248703D01*
X151898988Y-103248695D01*
X151847889Y-103111697D01*
X151847887Y-103111692D01*
X151760261Y-102994638D01*
X151643207Y-102907012D01*
X151643202Y-102907010D01*
X151506204Y-102855911D01*
X151506196Y-102855909D01*
X151445649Y-102849400D01*
X151445638Y-102849400D01*
X148478000Y-102849400D01*
X148409879Y-102829398D01*
X148363386Y-102775742D01*
X148352000Y-102723400D01*
X148352000Y-96071618D01*
X148352540Y-96063386D01*
X148356935Y-96030000D01*
X148356935Y-96029999D01*
X148352000Y-95992514D01*
X148352000Y-95992513D01*
X148352000Y-95992508D01*
X148337277Y-95880678D01*
X148279641Y-95741532D01*
X148242886Y-95693632D01*
X148242885Y-95693632D01*
X148210981Y-95652052D01*
X148210975Y-95652045D01*
X148187958Y-95622049D01*
X148187955Y-95622045D01*
X148174347Y-95611603D01*
X148161226Y-95601534D01*
X148155033Y-95596103D01*
X143315832Y-90756902D01*
X142558929Y-89999999D01*
X147984802Y-89999999D01*
X148003570Y-90274389D01*
X148003571Y-90274395D01*
X148003572Y-90274403D01*
X148020943Y-90357998D01*
X148059529Y-90543687D01*
X148059531Y-90543695D01*
X148135873Y-90758499D01*
X148151638Y-90802857D01*
X148278176Y-91047065D01*
X148436788Y-91271767D01*
X148624520Y-91472779D01*
X148837875Y-91646356D01*
X149072878Y-91789265D01*
X149325151Y-91898842D01*
X149589996Y-91973048D01*
X149683688Y-91985925D01*
X149862465Y-92010499D01*
X149862478Y-92010500D01*
X150137522Y-92010500D01*
X150137534Y-92010499D01*
X150290307Y-91989500D01*
X150410004Y-91973048D01*
X150674849Y-91898842D01*
X150927122Y-91789265D01*
X151162125Y-91646356D01*
X151375480Y-91472779D01*
X151563212Y-91271767D01*
X151721824Y-91047065D01*
X151848362Y-90802857D01*
X151940469Y-90543694D01*
X151996428Y-90274403D01*
X152000595Y-90213492D01*
X152011685Y-90051362D01*
X152015198Y-90000000D01*
X152015055Y-89997912D01*
X151996429Y-89725610D01*
X151996428Y-89725604D01*
X151996428Y-89725597D01*
X151940469Y-89456306D01*
X151848362Y-89197143D01*
X151721824Y-88952935D01*
X151563212Y-88728233D01*
X151375480Y-88527221D01*
X151162125Y-88353644D01*
X150927122Y-88210735D01*
X150927123Y-88210735D01*
X150927119Y-88210733D01*
X150674855Y-88101160D01*
X150674851Y-88101158D01*
X150674849Y-88101158D01*
X150410004Y-88026952D01*
X150410003Y-88026951D01*
X150410000Y-88026951D01*
X150137534Y-87989500D01*
X150137522Y-87989500D01*
X149862478Y-87989500D01*
X149862465Y-87989500D01*
X149589999Y-88026951D01*
X149325144Y-88101160D01*
X149072880Y-88210733D01*
X148837872Y-88353646D01*
X148662360Y-88496436D01*
X148624520Y-88527221D01*
X148436788Y-88728233D01*
X148291428Y-88934162D01*
X148278177Y-88952934D01*
X148278176Y-88952935D01*
X148151638Y-89197142D01*
X148059531Y-89456304D01*
X148059529Y-89456312D01*
X148027092Y-89612413D01*
X148006340Y-89712280D01*
X148003571Y-89725604D01*
X148003570Y-89725610D01*
X147984802Y-89999995D01*
X147984802Y-89999999D01*
X142558929Y-89999999D01*
X141555405Y-88996474D01*
X141521379Y-88934162D01*
X141518500Y-88907379D01*
X141518500Y-87511367D01*
X141518499Y-87511350D01*
X141511990Y-87450803D01*
X141511988Y-87450795D01*
X141460889Y-87313797D01*
X141460887Y-87313792D01*
X141373261Y-87196738D01*
X141256207Y-87109112D01*
X141256202Y-87109110D01*
X141119204Y-87058011D01*
X141119196Y-87058009D01*
X141058649Y-87051500D01*
X141058638Y-87051500D01*
X139261362Y-87051500D01*
X139261350Y-87051500D01*
X139200803Y-87058009D01*
X139200795Y-87058011D01*
X139063797Y-87109110D01*
X139063792Y-87109112D01*
X138946738Y-87196738D01*
X138859112Y-87313792D01*
X138859110Y-87313797D01*
X138808011Y-87450795D01*
X138808009Y-87450803D01*
X138801500Y-87511350D01*
X138801500Y-87712000D01*
X138781498Y-87780121D01*
X138727842Y-87826614D01*
X138675500Y-87838000D01*
X131698362Y-87838000D01*
X131630241Y-87817998D01*
X131583749Y-87764343D01*
X131542258Y-87673492D01*
X131542255Y-87673487D01*
X131512770Y-87627607D01*
X131463205Y-87550482D01*
X131370505Y-87443499D01*
X131369791Y-87442614D01*
X131369047Y-87441816D01*
X131258541Y-87346063D01*
X131258540Y-87346062D01*
X131221350Y-87322161D01*
X131137587Y-87268330D01*
X131004576Y-87207586D01*
X130866630Y-87167082D01*
X130866625Y-87167080D01*
X130866622Y-87167080D01*
X130721889Y-87146271D01*
X130150000Y-87146271D01*
X130124173Y-87148118D01*
X130076892Y-87151499D01*
X130076886Y-87151500D01*
X130040560Y-87162167D01*
X129987131Y-87165987D01*
X129850006Y-87146271D01*
X129850000Y-87146271D01*
X129278111Y-87146271D01*
X129140980Y-87165987D01*
X129133378Y-87167080D01*
X129133369Y-87167082D01*
X128995423Y-87207586D01*
X128862411Y-87268331D01*
X128862406Y-87268334D01*
X128741468Y-87346056D01*
X128741461Y-87346061D01*
X128630949Y-87441820D01*
X128536797Y-87550479D01*
X128457744Y-87673487D01*
X128457741Y-87673492D01*
X128416251Y-87764343D01*
X128369758Y-87817998D01*
X128301638Y-87838000D01*
X121324500Y-87838000D01*
X121256379Y-87817998D01*
X121209886Y-87764342D01*
X121198500Y-87712000D01*
X121198500Y-87511367D01*
X121198499Y-87511350D01*
X121191990Y-87450803D01*
X121191988Y-87450795D01*
X121140889Y-87313797D01*
X121140887Y-87313792D01*
X121053261Y-87196738D01*
X120936207Y-87109112D01*
X120936202Y-87109110D01*
X120799204Y-87058011D01*
X120799196Y-87058009D01*
X120738649Y-87051500D01*
X120738638Y-87051500D01*
X118941362Y-87051500D01*
X118941350Y-87051500D01*
X118880803Y-87058009D01*
X118880795Y-87058011D01*
X118743797Y-87109110D01*
X118743792Y-87109112D01*
X118626738Y-87196738D01*
X118539112Y-87313792D01*
X118539110Y-87313797D01*
X118488011Y-87450795D01*
X118488009Y-87450803D01*
X118481500Y-87511350D01*
X118481499Y-87511367D01*
X118481500Y-88907379D01*
X118461498Y-88975500D01*
X118444595Y-88996474D01*
X111624971Y-95816098D01*
X111618770Y-95821536D01*
X111592046Y-95842043D01*
X111569023Y-95872047D01*
X111549244Y-95897824D01*
X111500360Y-95961530D01*
X111500358Y-95961533D01*
X111442722Y-96100679D01*
X111435012Y-96159240D01*
X111428000Y-96212508D01*
X111428000Y-96212513D01*
X111428000Y-96212514D01*
X111423065Y-96249999D01*
X111423065Y-96250000D01*
X111427460Y-96283386D01*
X111428000Y-96291618D01*
X111428000Y-102723400D01*
X111407998Y-102791521D01*
X111354342Y-102838014D01*
X111302000Y-102849400D01*
X108554350Y-102849400D01*
X108493803Y-102855909D01*
X108493795Y-102855911D01*
X108356797Y-102907010D01*
X108356792Y-102907012D01*
X108239738Y-102994638D01*
X108152112Y-103111692D01*
X108152110Y-103111697D01*
X108101011Y-103248695D01*
X108101009Y-103248703D01*
X108094500Y-103309250D01*
X108094500Y-104803532D01*
X108094501Y-104803552D01*
X108099597Y-104850956D01*
X108086991Y-104920824D01*
X108038612Y-104972785D01*
X107987789Y-104989701D01*
X107947702Y-104994011D01*
X107947695Y-104994012D01*
X107810697Y-105045111D01*
X107810692Y-105045113D01*
X107693638Y-105132739D01*
X107606012Y-105249793D01*
X107606010Y-105249798D01*
X107554911Y-105386796D01*
X107554909Y-105386804D01*
X107548400Y-105447351D01*
X107548400Y-106052650D01*
X107554909Y-106113196D01*
X107554911Y-106113203D01*
X107589510Y-106205968D01*
X107594574Y-106276783D01*
X107589510Y-106294030D01*
X107554911Y-106386796D01*
X107554909Y-106386803D01*
X107548400Y-106447349D01*
X107548400Y-107052648D01*
X107554909Y-107113195D01*
X107554910Y-107113198D01*
X107589511Y-107205966D01*
X107594576Y-107276781D01*
X107589511Y-107294029D01*
X107554911Y-107386797D01*
X107554909Y-107386804D01*
X107548400Y-107447350D01*
X107548400Y-108052649D01*
X107554909Y-108113195D01*
X107554910Y-108113199D01*
X107589511Y-108205967D01*
X107594575Y-108276783D01*
X107589511Y-108294030D01*
X107554911Y-108386797D01*
X107554909Y-108386804D01*
X107548400Y-108447350D01*
X107548400Y-109052649D01*
X107554909Y-109113196D01*
X107554910Y-109113199D01*
X107589511Y-109205967D01*
X107594576Y-109276782D01*
X107589511Y-109294030D01*
X107554911Y-109386798D01*
X107554909Y-109386805D01*
X107548400Y-109447351D01*
X107548400Y-110052650D01*
X107554909Y-110113196D01*
X107554911Y-110113203D01*
X107589510Y-110205968D01*
X107594574Y-110276783D01*
X107589510Y-110294030D01*
X107554911Y-110386796D01*
X107554909Y-110386803D01*
X107548400Y-110447349D01*
X107548400Y-111052648D01*
X107554909Y-111113194D01*
X107554910Y-111113198D01*
X107589511Y-111205966D01*
X107594575Y-111276782D01*
X107589511Y-111294029D01*
X107554911Y-111386796D01*
X107554909Y-111386803D01*
X107548400Y-111447349D01*
X107548400Y-112052648D01*
X107554909Y-112113195D01*
X107554910Y-112113198D01*
X107589511Y-112205966D01*
X107594576Y-112276781D01*
X107589511Y-112294029D01*
X107554911Y-112386797D01*
X107554909Y-112386804D01*
X107548400Y-112447350D01*
X107548400Y-113052649D01*
X107554909Y-113113195D01*
X107554910Y-113113199D01*
X107554911Y-113113201D01*
X107588879Y-113204274D01*
X107589511Y-113205967D01*
X107594575Y-113276783D01*
X107589511Y-113294030D01*
X107554911Y-113386797D01*
X107554909Y-113386804D01*
X107548400Y-113447350D01*
X107548400Y-114052649D01*
X105010500Y-114052649D01*
X105010500Y-89999999D01*
X107984802Y-89999999D01*
X108003570Y-90274389D01*
X108003571Y-90274395D01*
X108003572Y-90274403D01*
X108020943Y-90357998D01*
X108059529Y-90543687D01*
X108059531Y-90543695D01*
X108135873Y-90758499D01*
X108151638Y-90802857D01*
X108278176Y-91047065D01*
X108436788Y-91271767D01*
X108624520Y-91472779D01*
X108837875Y-91646356D01*
X109072878Y-91789265D01*
X109325151Y-91898842D01*
X109589996Y-91973048D01*
X109683688Y-91985925D01*
X109862465Y-92010499D01*
X109862478Y-92010500D01*
X110137522Y-92010500D01*
X110137534Y-92010499D01*
X110290307Y-91989500D01*
X110410004Y-91973048D01*
X110674849Y-91898842D01*
X110927122Y-91789265D01*
X111162125Y-91646356D01*
X111375480Y-91472779D01*
X111563212Y-91271767D01*
X111721824Y-91047065D01*
X111848362Y-90802857D01*
X111940469Y-90543694D01*
X111996428Y-90274403D01*
X112000595Y-90213492D01*
X112011685Y-90051362D01*
X112015198Y-90000000D01*
X112015055Y-89997912D01*
X111996429Y-89725610D01*
X111996428Y-89725604D01*
X111996428Y-89725597D01*
X111940469Y-89456306D01*
X111848362Y-89197143D01*
X111721824Y-88952935D01*
X111563212Y-88728233D01*
X111375480Y-88527221D01*
X111162125Y-88353644D01*
X110927122Y-88210735D01*
X110927123Y-88210735D01*
X110927119Y-88210733D01*
X110674855Y-88101160D01*
X110674851Y-88101158D01*
X110674849Y-88101158D01*
X110410004Y-88026952D01*
X110410003Y-88026951D01*
X110410000Y-88026951D01*
X110137534Y-87989500D01*
X110137522Y-87989500D01*
X109862478Y-87989500D01*
X109862465Y-87989500D01*
X109589999Y-88026951D01*
X109325144Y-88101160D01*
X109072880Y-88210733D01*
X108837872Y-88353646D01*
X108662360Y-88496436D01*
X108624520Y-88527221D01*
X108436788Y-88728233D01*
X108291428Y-88934162D01*
X108278177Y-88952934D01*
X108278176Y-88952935D01*
X108151638Y-89197142D01*
X108059531Y-89456304D01*
X108059529Y-89456312D01*
X108027092Y-89612413D01*
X108006340Y-89712280D01*
X108003571Y-89725604D01*
X108003570Y-89725610D01*
X107984802Y-89999995D01*
X107984802Y-89999999D01*
X105010500Y-89999999D01*
X105027435Y-89590542D01*
X105027859Y-89585420D01*
X105078229Y-89181329D01*
X105079080Y-89176224D01*
X105162647Y-88777676D01*
X105163914Y-88772672D01*
X105280110Y-88382379D01*
X105281785Y-88377502D01*
X105429808Y-87998151D01*
X105431892Y-87993402D01*
X105433800Y-87989500D01*
X105610724Y-87627595D01*
X105613197Y-87623026D01*
X105656424Y-87550482D01*
X105821635Y-87273221D01*
X105824468Y-87268886D01*
X106061074Y-86937498D01*
X106064261Y-86933404D01*
X106327433Y-86622678D01*
X106330928Y-86618881D01*
X106618881Y-86330928D01*
X106622678Y-86327433D01*
X106933404Y-86064261D01*
X106937502Y-86061072D01*
X107136873Y-85918724D01*
X107268886Y-85824468D01*
X107273221Y-85821635D01*
X107623029Y-85613195D01*
X107627595Y-85610724D01*
X107993411Y-85431887D01*
X107998151Y-85429808D01*
X108377502Y-85281785D01*
X108382379Y-85280110D01*
X108772672Y-85163914D01*
X108777676Y-85162647D01*
X109176224Y-85079080D01*
X109181329Y-85078229D01*
X109585420Y-85027859D01*
X109590542Y-85027435D01*
X109987336Y-85011023D01*
X110000001Y-85010500D01*
X110003412Y-85010500D01*
X149996588Y-85010500D01*
X149999999Y-85010500D01*
X150013067Y-85011040D01*
G37*
%TD.AperFunction*%
%TA.AperFunction,NonConductor*%
G36*
X138743621Y-89002002D02*
G01*
X138790114Y-89055658D01*
X138801500Y-89108000D01*
X138801500Y-89308649D01*
X138808009Y-89369196D01*
X138808011Y-89369204D01*
X138859110Y-89506202D01*
X138859112Y-89506207D01*
X138932687Y-89604490D01*
X138957498Y-89671010D01*
X138942407Y-89740384D01*
X138932688Y-89755507D01*
X138859112Y-89853793D01*
X138859110Y-89853797D01*
X138808011Y-89990795D01*
X138808009Y-89990803D01*
X138801500Y-90051350D01*
X138801500Y-90252000D01*
X138781498Y-90320121D01*
X138727842Y-90366614D01*
X138675500Y-90378000D01*
X131698362Y-90378000D01*
X131630241Y-90357998D01*
X131583749Y-90304343D01*
X131542258Y-90213492D01*
X131542255Y-90213487D01*
X131463205Y-90090482D01*
X131370505Y-89983499D01*
X131369791Y-89982614D01*
X131369047Y-89981816D01*
X131258541Y-89886063D01*
X131258540Y-89886062D01*
X131221350Y-89862161D01*
X131137587Y-89808330D01*
X131123026Y-89801680D01*
X131107549Y-89794612D01*
X131053895Y-89748121D01*
X131033893Y-89680001D01*
X131053895Y-89611880D01*
X131107550Y-89565387D01*
X131107550Y-89565386D01*
X131137586Y-89551670D01*
X131182175Y-89523014D01*
X131258532Y-89473944D01*
X131258539Y-89473939D01*
X131258544Y-89473935D01*
X131369051Y-89378179D01*
X131463205Y-89269518D01*
X131542256Y-89146512D01*
X131559844Y-89108000D01*
X131583749Y-89055657D01*
X131630242Y-89002002D01*
X131698362Y-88982000D01*
X138675500Y-88982000D01*
X138743621Y-89002002D01*
G37*
%TD.AperFunction*%
%TA.AperFunction,NonConductor*%
G36*
X128369759Y-89002002D02*
G01*
X128416251Y-89055657D01*
X128457741Y-89146507D01*
X128457744Y-89146512D01*
X128536795Y-89269518D01*
X128536797Y-89269520D01*
X128629492Y-89376498D01*
X128630202Y-89377379D01*
X128630952Y-89378183D01*
X128741460Y-89473938D01*
X128862414Y-89551670D01*
X128862416Y-89551671D01*
X128862418Y-89551672D01*
X128892449Y-89565387D01*
X128946104Y-89611880D01*
X128966106Y-89680001D01*
X128946104Y-89748121D01*
X128892449Y-89794613D01*
X128862418Y-89808327D01*
X128862406Y-89808334D01*
X128741468Y-89886056D01*
X128741461Y-89886061D01*
X128630949Y-89981820D01*
X128536797Y-90090479D01*
X128457744Y-90213487D01*
X128457741Y-90213492D01*
X128416251Y-90304343D01*
X128369758Y-90357998D01*
X128301638Y-90378000D01*
X121324500Y-90378000D01*
X121256379Y-90357998D01*
X121209886Y-90304342D01*
X121198500Y-90252000D01*
X121198500Y-90051367D01*
X121198499Y-90051350D01*
X121191990Y-89990803D01*
X121191988Y-89990795D01*
X121140889Y-89853797D01*
X121140889Y-89853796D01*
X121106851Y-89808327D01*
X121067311Y-89755507D01*
X121042501Y-89688989D01*
X121057592Y-89619615D01*
X121067306Y-89604497D01*
X121140889Y-89506204D01*
X121191989Y-89369201D01*
X121198500Y-89308638D01*
X121198500Y-89108000D01*
X121218502Y-89039879D01*
X121272158Y-88993386D01*
X121324500Y-88982000D01*
X128301638Y-88982000D01*
X128369759Y-89002002D01*
G37*
%TD.AperFunction*%
%TA.AperFunction,NonConductor*%
G36*
X138743621Y-91542002D02*
G01*
X138790114Y-91595658D01*
X138801500Y-91648000D01*
X138801500Y-91848649D01*
X138808009Y-91909196D01*
X138808011Y-91909204D01*
X138859110Y-92046202D01*
X138859112Y-92046207D01*
X138932687Y-92144491D01*
X138957498Y-92211011D01*
X138942407Y-92280385D01*
X138932687Y-92295509D01*
X138859112Y-92393792D01*
X138859110Y-92393797D01*
X138808011Y-92530795D01*
X138808009Y-92530803D01*
X138801500Y-92591350D01*
X138801500Y-92792000D01*
X138781498Y-92860121D01*
X138727842Y-92906614D01*
X138675500Y-92918000D01*
X131698362Y-92918000D01*
X131630241Y-92897998D01*
X131583749Y-92844343D01*
X131542258Y-92753492D01*
X131542255Y-92753487D01*
X131463205Y-92630482D01*
X131370505Y-92523499D01*
X131369791Y-92522614D01*
X131369047Y-92521816D01*
X131258541Y-92426063D01*
X131258540Y-92426062D01*
X131221350Y-92402161D01*
X131137587Y-92348330D01*
X131123026Y-92341680D01*
X131107549Y-92334612D01*
X131053895Y-92288121D01*
X131033893Y-92220001D01*
X131053895Y-92151880D01*
X131107550Y-92105387D01*
X131107550Y-92105386D01*
X131137586Y-92091670D01*
X131182175Y-92063014D01*
X131258532Y-92013944D01*
X131258539Y-92013939D01*
X131286743Y-91989500D01*
X131369051Y-91918179D01*
X131463205Y-91809518D01*
X131542256Y-91686512D01*
X131560596Y-91646353D01*
X131583749Y-91595657D01*
X131630242Y-91542002D01*
X131698362Y-91522000D01*
X138675500Y-91522000D01*
X138743621Y-91542002D01*
G37*
%TD.AperFunction*%
%TA.AperFunction,NonConductor*%
G36*
X128369759Y-91542002D02*
G01*
X128416251Y-91595657D01*
X128457741Y-91686507D01*
X128457744Y-91686512D01*
X128536795Y-91809518D01*
X128536797Y-91809520D01*
X128629492Y-91916498D01*
X128630202Y-91917379D01*
X128630952Y-91918183D01*
X128741460Y-92013938D01*
X128862414Y-92091670D01*
X128862416Y-92091671D01*
X128862418Y-92091672D01*
X128892449Y-92105387D01*
X128946104Y-92151880D01*
X128966106Y-92220001D01*
X128946104Y-92288121D01*
X128892449Y-92334613D01*
X128862418Y-92348327D01*
X128862406Y-92348334D01*
X128741468Y-92426056D01*
X128741461Y-92426061D01*
X128630949Y-92521820D01*
X128536797Y-92630479D01*
X128457744Y-92753487D01*
X128457741Y-92753492D01*
X128416251Y-92844343D01*
X128369758Y-92897998D01*
X128301638Y-92918000D01*
X121324500Y-92918000D01*
X121256379Y-92897998D01*
X121209886Y-92844342D01*
X121198500Y-92792000D01*
X121198500Y-92591367D01*
X121198499Y-92591350D01*
X121191990Y-92530803D01*
X121191988Y-92530795D01*
X121140889Y-92393797D01*
X121140889Y-92393796D01*
X121106851Y-92348327D01*
X121067311Y-92295507D01*
X121042501Y-92228989D01*
X121057592Y-92159615D01*
X121067306Y-92144497D01*
X121140889Y-92046204D01*
X121191989Y-91909201D01*
X121192021Y-91908911D01*
X121198499Y-91848649D01*
X121198500Y-91848632D01*
X121198500Y-91648000D01*
X121218502Y-91579879D01*
X121272158Y-91533386D01*
X121324500Y-91522000D01*
X124882508Y-91522000D01*
X128301638Y-91522000D01*
X128369759Y-91542002D01*
G37*
%TD.AperFunction*%
%TA.AperFunction,NonConductor*%
G36*
X138743621Y-94082002D02*
G01*
X138790114Y-94135658D01*
X138801500Y-94188000D01*
X138801500Y-94388649D01*
X138808009Y-94449196D01*
X138808011Y-94449204D01*
X138859110Y-94586202D01*
X138859112Y-94586207D01*
X138932687Y-94684491D01*
X138957498Y-94751011D01*
X138942407Y-94820385D01*
X138932687Y-94835509D01*
X138859112Y-94933792D01*
X138859110Y-94933797D01*
X138808011Y-95070795D01*
X138808009Y-95070803D01*
X138801500Y-95131350D01*
X138801500Y-95332000D01*
X138781498Y-95400121D01*
X138727842Y-95446614D01*
X138675500Y-95458000D01*
X131698362Y-95458000D01*
X131630241Y-95437998D01*
X131583749Y-95384343D01*
X131542258Y-95293492D01*
X131542255Y-95293487D01*
X131463205Y-95170482D01*
X131370505Y-95063499D01*
X131369791Y-95062614D01*
X131369047Y-95061816D01*
X131258541Y-94966063D01*
X131258540Y-94966062D01*
X131221350Y-94942161D01*
X131137587Y-94888330D01*
X131123026Y-94881680D01*
X131107549Y-94874612D01*
X131053895Y-94828121D01*
X131033893Y-94760001D01*
X131053895Y-94691880D01*
X131107550Y-94645387D01*
X131107550Y-94645386D01*
X131137586Y-94631670D01*
X131182175Y-94603014D01*
X131258532Y-94553944D01*
X131258539Y-94553939D01*
X131258544Y-94553935D01*
X131369051Y-94458179D01*
X131463205Y-94349518D01*
X131542256Y-94226512D01*
X131559844Y-94188000D01*
X131583749Y-94135657D01*
X131630242Y-94082002D01*
X131698362Y-94062000D01*
X138675500Y-94062000D01*
X138743621Y-94082002D01*
G37*
%TD.AperFunction*%
%TA.AperFunction,NonConductor*%
G36*
X128369759Y-94082002D02*
G01*
X128416251Y-94135657D01*
X128457741Y-94226507D01*
X128457744Y-94226512D01*
X128536795Y-94349518D01*
X128536797Y-94349520D01*
X128629492Y-94456498D01*
X128630202Y-94457379D01*
X128630952Y-94458183D01*
X128741460Y-94553938D01*
X128862414Y-94631670D01*
X128862416Y-94631671D01*
X128862418Y-94631672D01*
X128892449Y-94645387D01*
X128946104Y-94691880D01*
X128966106Y-94760001D01*
X128946104Y-94828121D01*
X128892449Y-94874613D01*
X128862418Y-94888327D01*
X128862406Y-94888334D01*
X128741468Y-94966056D01*
X128741461Y-94966061D01*
X128630949Y-95061820D01*
X128536797Y-95170479D01*
X128457744Y-95293487D01*
X128457741Y-95293492D01*
X128416251Y-95384343D01*
X128369758Y-95437998D01*
X128301638Y-95458000D01*
X121324500Y-95458000D01*
X121256379Y-95437998D01*
X121209886Y-95384342D01*
X121198500Y-95332000D01*
X121198500Y-95131367D01*
X121198499Y-95131350D01*
X121191990Y-95070803D01*
X121191988Y-95070795D01*
X121140889Y-94933797D01*
X121140889Y-94933796D01*
X121106851Y-94888327D01*
X121067311Y-94835507D01*
X121042501Y-94768989D01*
X121057592Y-94699615D01*
X121067306Y-94684497D01*
X121140889Y-94586204D01*
X121191989Y-94449201D01*
X121198500Y-94388638D01*
X121198500Y-94187999D01*
X121218502Y-94119879D01*
X121272158Y-94073386D01*
X121324500Y-94062000D01*
X128301638Y-94062000D01*
X128369759Y-94082002D01*
G37*
%TD.AperFunction*%
%TA.AperFunction,NonConductor*%
G36*
X141727012Y-90786396D02*
G01*
X141733595Y-90792525D01*
X147171095Y-96230025D01*
X147205121Y-96292337D01*
X147208000Y-96319120D01*
X147208000Y-96884879D01*
X147187998Y-96953000D01*
X147134342Y-96999493D01*
X147064068Y-97009597D01*
X146999488Y-96980103D01*
X146992905Y-96973974D01*
X141555405Y-91536475D01*
X141521379Y-91474163D01*
X141518500Y-91447380D01*
X141518500Y-90881620D01*
X141538502Y-90813499D01*
X141592158Y-90767006D01*
X141662432Y-90756902D01*
X141727012Y-90786396D01*
G37*
%TD.AperFunction*%
%TA.AperFunction,NonConductor*%
G36*
X118399532Y-90763564D02*
G01*
X118456368Y-90806111D01*
X118481179Y-90872631D01*
X118481500Y-90881620D01*
X118481499Y-91447379D01*
X118461497Y-91515500D01*
X118444594Y-91536474D01*
X112787095Y-97193974D01*
X112724783Y-97228000D01*
X112653968Y-97222935D01*
X112597132Y-97180388D01*
X112572321Y-97113868D01*
X112572000Y-97104879D01*
X112572000Y-96539119D01*
X112592002Y-96470998D01*
X112608900Y-96450029D01*
X118266405Y-90792525D01*
X118328717Y-90758499D01*
X118399532Y-90763564D01*
G37*
%TD.AperFunction*%
%TA.AperFunction,NonConductor*%
G36*
X138743621Y-96622002D02*
G01*
X138790114Y-96675658D01*
X138801500Y-96728000D01*
X138801500Y-96928649D01*
X138808009Y-96989196D01*
X138808011Y-96989204D01*
X138859110Y-97126202D01*
X138859112Y-97126207D01*
X138932687Y-97224491D01*
X138957498Y-97291011D01*
X138942407Y-97360385D01*
X138932687Y-97375509D01*
X138859112Y-97473792D01*
X138859110Y-97473797D01*
X138808011Y-97610795D01*
X138808009Y-97610803D01*
X138801500Y-97671350D01*
X138801500Y-97872000D01*
X138781498Y-97940121D01*
X138727842Y-97986614D01*
X138675500Y-97998000D01*
X131698362Y-97998000D01*
X131630241Y-97977998D01*
X131583749Y-97924343D01*
X131542258Y-97833492D01*
X131542255Y-97833487D01*
X131463205Y-97710482D01*
X131370505Y-97603499D01*
X131369791Y-97602614D01*
X131369047Y-97601816D01*
X131258541Y-97506063D01*
X131258540Y-97506062D01*
X131221350Y-97482161D01*
X131137587Y-97428330D01*
X131123026Y-97421680D01*
X131107549Y-97414612D01*
X131053895Y-97368121D01*
X131033893Y-97300001D01*
X131053895Y-97231880D01*
X131107550Y-97185387D01*
X131107550Y-97185386D01*
X131137586Y-97171670D01*
X131182175Y-97143014D01*
X131258532Y-97093944D01*
X131258539Y-97093939D01*
X131258544Y-97093935D01*
X131369051Y-96998179D01*
X131463205Y-96889518D01*
X131542256Y-96766512D01*
X131559844Y-96728000D01*
X131583749Y-96675657D01*
X131630242Y-96622002D01*
X131698362Y-96602000D01*
X138675500Y-96602000D01*
X138743621Y-96622002D01*
G37*
%TD.AperFunction*%
%TA.AperFunction,NonConductor*%
G36*
X128369759Y-96622002D02*
G01*
X128416251Y-96675657D01*
X128457741Y-96766507D01*
X128457744Y-96766512D01*
X128536795Y-96889518D01*
X128536797Y-96889520D01*
X128629492Y-96996498D01*
X128630202Y-96997379D01*
X128630952Y-96998183D01*
X128741460Y-97093938D01*
X128862414Y-97171670D01*
X128862416Y-97171671D01*
X128862418Y-97171672D01*
X128892449Y-97185387D01*
X128946104Y-97231880D01*
X128966106Y-97300001D01*
X128946104Y-97368121D01*
X128892449Y-97414613D01*
X128862418Y-97428327D01*
X128862406Y-97428334D01*
X128741468Y-97506056D01*
X128741461Y-97506061D01*
X128630949Y-97601820D01*
X128536797Y-97710479D01*
X128457744Y-97833487D01*
X128457741Y-97833492D01*
X128416251Y-97924343D01*
X128369758Y-97977998D01*
X128301638Y-97998000D01*
X121324500Y-97998000D01*
X121256379Y-97977998D01*
X121209886Y-97924342D01*
X121198500Y-97872000D01*
X121198500Y-97671367D01*
X121198499Y-97671350D01*
X121191990Y-97610803D01*
X121191988Y-97610795D01*
X121140889Y-97473797D01*
X121140889Y-97473796D01*
X121106851Y-97428327D01*
X121067311Y-97375507D01*
X121042501Y-97308989D01*
X121057592Y-97239615D01*
X121067306Y-97224497D01*
X121140889Y-97126204D01*
X121191989Y-96989201D01*
X121192968Y-96980103D01*
X121198499Y-96928649D01*
X121198500Y-96928632D01*
X121198500Y-96728000D01*
X121218502Y-96659879D01*
X121272158Y-96613386D01*
X121324500Y-96602000D01*
X128301638Y-96602000D01*
X128369759Y-96622002D01*
G37*
%TD.AperFunction*%
%TA.AperFunction,NonConductor*%
G36*
X118399531Y-93303564D02*
G01*
X118456367Y-93346111D01*
X118481178Y-93412631D01*
X118481499Y-93421620D01*
X118481499Y-93987379D01*
X118461497Y-94055500D01*
X118444594Y-94076474D01*
X113787095Y-98733974D01*
X113724783Y-98768000D01*
X113653968Y-98762935D01*
X113597132Y-98720388D01*
X113572321Y-98653868D01*
X113572000Y-98644879D01*
X113572000Y-98079119D01*
X113592002Y-98010998D01*
X113608905Y-97990024D01*
X116002833Y-95596096D01*
X118266406Y-93332523D01*
X118328716Y-93298499D01*
X118399531Y-93303564D01*
G37*
%TD.AperFunction*%
%TA.AperFunction,NonConductor*%
G36*
X141727012Y-93326395D02*
G01*
X141733580Y-93332510D01*
X144094702Y-95693632D01*
X146391095Y-97990025D01*
X146425121Y-98052337D01*
X146428000Y-98079120D01*
X146428000Y-98644880D01*
X146407998Y-98713001D01*
X146354342Y-98759494D01*
X146284068Y-98769598D01*
X146219488Y-98740104D01*
X146212905Y-98733975D01*
X141555405Y-94076475D01*
X141521379Y-94014163D01*
X141518500Y-93987380D01*
X141518500Y-93421619D01*
X141538502Y-93353498D01*
X141592158Y-93307005D01*
X141662432Y-93296901D01*
X141727012Y-93326395D01*
G37*
%TD.AperFunction*%
%TA.AperFunction,NonConductor*%
G36*
X118399531Y-95843563D02*
G01*
X118456367Y-95886110D01*
X118481178Y-95952630D01*
X118481499Y-95961619D01*
X118481499Y-96527380D01*
X118461497Y-96595501D01*
X118444594Y-96616475D01*
X114787095Y-100273974D01*
X114724783Y-100308000D01*
X114653968Y-100302935D01*
X114597132Y-100260388D01*
X114572321Y-100193868D01*
X114572000Y-100184879D01*
X114572000Y-99907587D01*
X114572000Y-99619115D01*
X114592001Y-99550998D01*
X114608895Y-99530034D01*
X118266406Y-95872522D01*
X118328716Y-95838498D01*
X118399531Y-95843563D01*
G37*
%TD.AperFunction*%
%TA.AperFunction,NonConductor*%
G36*
X138743621Y-99162002D02*
G01*
X138790114Y-99215658D01*
X138801500Y-99268000D01*
X138801500Y-99468649D01*
X138808009Y-99529196D01*
X138808011Y-99529204D01*
X138859110Y-99666202D01*
X138859112Y-99666207D01*
X138932687Y-99764491D01*
X138957498Y-99831011D01*
X138942407Y-99900385D01*
X138932687Y-99915509D01*
X138859112Y-100013792D01*
X138859110Y-100013797D01*
X138808011Y-100150795D01*
X138808009Y-100150803D01*
X138801500Y-100211350D01*
X138801500Y-100412000D01*
X138781498Y-100480121D01*
X138727842Y-100526614D01*
X138675500Y-100538000D01*
X131698362Y-100538000D01*
X131630241Y-100517998D01*
X131583749Y-100464343D01*
X131542258Y-100373492D01*
X131542255Y-100373487D01*
X131463205Y-100250482D01*
X131370505Y-100143499D01*
X131369791Y-100142614D01*
X131369047Y-100141816D01*
X131258541Y-100046063D01*
X131258540Y-100046062D01*
X131221350Y-100022161D01*
X131137587Y-99968330D01*
X131123026Y-99961680D01*
X131107549Y-99954612D01*
X131053895Y-99908121D01*
X131033893Y-99840001D01*
X131053895Y-99771880D01*
X131107550Y-99725387D01*
X131107550Y-99725386D01*
X131137586Y-99711670D01*
X131182175Y-99683014D01*
X131258532Y-99633944D01*
X131258539Y-99633939D01*
X131275642Y-99619119D01*
X131369051Y-99538179D01*
X131463205Y-99429518D01*
X131542256Y-99306512D01*
X131559844Y-99268000D01*
X131583749Y-99215657D01*
X131630242Y-99162002D01*
X131698362Y-99142000D01*
X138675500Y-99142000D01*
X138743621Y-99162002D01*
G37*
%TD.AperFunction*%
%TA.AperFunction,NonConductor*%
G36*
X128369759Y-99162002D02*
G01*
X128416251Y-99215657D01*
X128457741Y-99306507D01*
X128457744Y-99306512D01*
X128536795Y-99429518D01*
X128536797Y-99429520D01*
X128629492Y-99536498D01*
X128630202Y-99537379D01*
X128630952Y-99538183D01*
X128741460Y-99633938D01*
X128862414Y-99711670D01*
X128862416Y-99711671D01*
X128862418Y-99711672D01*
X128892449Y-99725387D01*
X128946104Y-99771880D01*
X128966106Y-99840001D01*
X128946104Y-99908121D01*
X128892449Y-99954613D01*
X128862418Y-99968327D01*
X128862406Y-99968334D01*
X128741468Y-100046056D01*
X128741461Y-100046061D01*
X128630949Y-100141820D01*
X128536797Y-100250479D01*
X128457744Y-100373487D01*
X128457741Y-100373492D01*
X128416251Y-100464343D01*
X128369758Y-100517998D01*
X128301638Y-100538000D01*
X121324500Y-100538000D01*
X121256379Y-100517998D01*
X121209886Y-100464342D01*
X121198500Y-100412000D01*
X121198500Y-100211367D01*
X121198499Y-100211350D01*
X121191990Y-100150803D01*
X121191988Y-100150795D01*
X121140889Y-100013797D01*
X121140889Y-100013796D01*
X121106851Y-99968327D01*
X121067311Y-99915507D01*
X121042501Y-99848989D01*
X121057592Y-99779615D01*
X121067306Y-99764497D01*
X121140889Y-99666204D01*
X121191989Y-99529201D01*
X121198500Y-99468638D01*
X121198500Y-99268000D01*
X121218502Y-99199879D01*
X121272158Y-99153386D01*
X121324500Y-99142000D01*
X128301638Y-99142000D01*
X128369759Y-99162002D01*
G37*
%TD.AperFunction*%
%TA.AperFunction,NonConductor*%
G36*
X141727012Y-95866396D02*
G01*
X141733595Y-95872525D01*
X145641095Y-99780025D01*
X145675121Y-99842337D01*
X145678000Y-99869120D01*
X145678000Y-100434879D01*
X145657998Y-100503000D01*
X145604342Y-100549493D01*
X145534068Y-100559597D01*
X145469488Y-100530103D01*
X145462905Y-100523974D01*
X141555405Y-96616474D01*
X141521379Y-96554162D01*
X141518500Y-96527379D01*
X141518500Y-95961620D01*
X141538502Y-95893499D01*
X141592158Y-95847006D01*
X141662432Y-95836902D01*
X141727012Y-95866396D01*
G37*
%TD.AperFunction*%
%TA.AperFunction,NonConductor*%
G36*
X118399531Y-98383563D02*
G01*
X118456367Y-98426110D01*
X118481178Y-98492630D01*
X118481499Y-98501619D01*
X118481499Y-99067379D01*
X118461497Y-99135500D01*
X118444594Y-99156474D01*
X115787094Y-101813974D01*
X115724782Y-101848000D01*
X115653967Y-101842935D01*
X115597131Y-101800388D01*
X115572320Y-101733868D01*
X115572000Y-101724907D01*
X115572000Y-101159118D01*
X115592002Y-101090997D01*
X115608900Y-101070028D01*
X118266406Y-98412522D01*
X118328716Y-98378498D01*
X118399531Y-98383563D01*
G37*
%TD.AperFunction*%
%TA.AperFunction,NonConductor*%
G36*
X141727012Y-98406396D02*
G01*
X141733594Y-98412524D01*
X144891096Y-101570026D01*
X144925121Y-101632336D01*
X144928000Y-101659119D01*
X144928000Y-102224879D01*
X144907998Y-102293000D01*
X144854342Y-102339493D01*
X144784068Y-102349597D01*
X144719488Y-102320103D01*
X144712905Y-102313974D01*
X141555405Y-99156474D01*
X141521379Y-99094162D01*
X141518500Y-99067379D01*
X141518500Y-98501620D01*
X141538502Y-98433499D01*
X141592158Y-98387006D01*
X141662432Y-98376902D01*
X141727012Y-98406396D01*
G37*
%TD.AperFunction*%
%TA.AperFunction,NonConductor*%
G36*
X138743621Y-101702002D02*
G01*
X138790114Y-101755658D01*
X138801500Y-101808000D01*
X138801500Y-102008649D01*
X138808009Y-102069196D01*
X138808011Y-102069204D01*
X138859110Y-102206202D01*
X138859112Y-102206207D01*
X138932687Y-102304491D01*
X138957498Y-102371011D01*
X138942407Y-102440385D01*
X138932687Y-102455509D01*
X138859112Y-102553792D01*
X138859110Y-102553797D01*
X138808011Y-102690795D01*
X138808009Y-102690803D01*
X138801500Y-102751350D01*
X138801500Y-102952000D01*
X138781498Y-103020121D01*
X138727842Y-103066614D01*
X138675500Y-103078000D01*
X131698362Y-103078000D01*
X131630241Y-103057998D01*
X131583749Y-103004343D01*
X131542258Y-102913492D01*
X131542255Y-102913487D01*
X131538093Y-102907011D01*
X131463205Y-102790482D01*
X131370505Y-102683499D01*
X131369791Y-102682614D01*
X131369047Y-102681816D01*
X131258541Y-102586063D01*
X131258540Y-102586062D01*
X131221350Y-102562161D01*
X131137587Y-102508330D01*
X131123026Y-102501680D01*
X131107549Y-102494612D01*
X131053895Y-102448121D01*
X131033893Y-102380001D01*
X131053895Y-102311880D01*
X131107550Y-102265387D01*
X131107550Y-102265386D01*
X131137586Y-102251670D01*
X131182175Y-102223014D01*
X131258532Y-102173944D01*
X131258539Y-102173939D01*
X131258544Y-102173935D01*
X131369051Y-102078179D01*
X131463205Y-101969518D01*
X131542256Y-101846512D01*
X131563320Y-101800388D01*
X131583749Y-101755657D01*
X131630242Y-101702002D01*
X131698362Y-101682000D01*
X138675500Y-101682000D01*
X138743621Y-101702002D01*
G37*
%TD.AperFunction*%
%TA.AperFunction,NonConductor*%
G36*
X128369759Y-101702002D02*
G01*
X128416251Y-101755657D01*
X128457741Y-101846507D01*
X128457744Y-101846512D01*
X128536795Y-101969518D01*
X128536797Y-101969520D01*
X128629492Y-102076498D01*
X128630202Y-102077379D01*
X128630952Y-102078183D01*
X128741460Y-102173938D01*
X128862414Y-102251670D01*
X128862416Y-102251671D01*
X128862418Y-102251672D01*
X128892449Y-102265387D01*
X128946104Y-102311880D01*
X128966106Y-102380001D01*
X128946104Y-102448121D01*
X128892449Y-102494613D01*
X128862418Y-102508327D01*
X128862406Y-102508334D01*
X128741468Y-102586056D01*
X128741461Y-102586061D01*
X128630949Y-102681820D01*
X128536797Y-102790479D01*
X128457744Y-102913487D01*
X128457741Y-102913492D01*
X128416251Y-103004343D01*
X128369758Y-103057998D01*
X128301638Y-103078000D01*
X121324500Y-103078000D01*
X121256379Y-103057998D01*
X121209886Y-103004342D01*
X121198500Y-102952000D01*
X121198500Y-102751367D01*
X121198499Y-102751350D01*
X121191990Y-102690803D01*
X121191988Y-102690795D01*
X121140889Y-102553797D01*
X121140889Y-102553796D01*
X121106851Y-102508327D01*
X121067311Y-102455507D01*
X121042501Y-102388989D01*
X121057592Y-102319615D01*
X121067306Y-102304497D01*
X121140889Y-102206204D01*
X121191989Y-102069201D01*
X121196401Y-102028168D01*
X121198499Y-102008649D01*
X121198500Y-102008632D01*
X121198500Y-101808000D01*
X121218502Y-101739879D01*
X121272158Y-101693386D01*
X121324500Y-101682000D01*
X128301638Y-101682000D01*
X128369759Y-101702002D01*
G37*
%TD.AperFunction*%
%TA.AperFunction,NonConductor*%
G36*
X118399531Y-100923564D02*
G01*
X118456367Y-100966111D01*
X118481178Y-101032631D01*
X118481499Y-101041620D01*
X118481498Y-101607380D01*
X118461496Y-101675501D01*
X118444593Y-101696475D01*
X116787095Y-103353974D01*
X116724783Y-103387999D01*
X116653968Y-103382935D01*
X116597132Y-103340388D01*
X116572321Y-103273868D01*
X116572000Y-103264879D01*
X116572000Y-102699119D01*
X116592002Y-102630998D01*
X116608900Y-102610029D01*
X118266404Y-100952524D01*
X118328716Y-100918499D01*
X118399531Y-100923564D01*
G37*
%TD.AperFunction*%
%TA.AperFunction,NonConductor*%
G36*
X141727012Y-100946396D02*
G01*
X141733595Y-100952525D01*
X144141095Y-103360025D01*
X144175121Y-103422337D01*
X144178000Y-103449120D01*
X144178000Y-104014880D01*
X144157998Y-104083001D01*
X144104342Y-104129494D01*
X144034068Y-104139598D01*
X143969488Y-104110104D01*
X143962905Y-104103975D01*
X141555405Y-101696475D01*
X141521379Y-101634163D01*
X141518500Y-101607380D01*
X141518500Y-101041620D01*
X141538502Y-100973499D01*
X141592158Y-100927006D01*
X141662432Y-100916902D01*
X141727012Y-100946396D01*
G37*
%TD.AperFunction*%
%TA.AperFunction,NonConductor*%
G36*
X118399531Y-103463564D02*
G01*
X118456367Y-103506111D01*
X118481178Y-103572631D01*
X118481499Y-103581620D01*
X118481499Y-104147379D01*
X118461497Y-104215500D01*
X118444594Y-104236475D01*
X117787094Y-104893974D01*
X117724782Y-104927999D01*
X117653966Y-104922934D01*
X117597131Y-104880387D01*
X117572320Y-104813867D01*
X117572000Y-104804906D01*
X117572000Y-104239120D01*
X117592002Y-104170999D01*
X117608900Y-104150029D01*
X118266405Y-103492523D01*
X118328716Y-103458500D01*
X118399531Y-103463564D01*
G37*
%TD.AperFunction*%
%TA.AperFunction,NonConductor*%
G36*
X138743621Y-104242002D02*
G01*
X138790114Y-104295658D01*
X138801500Y-104348000D01*
X138801500Y-104548649D01*
X138808009Y-104609196D01*
X138808011Y-104609204D01*
X138859110Y-104746202D01*
X138859112Y-104746207D01*
X138932687Y-104844491D01*
X138957498Y-104911011D01*
X138942407Y-104980385D01*
X138932687Y-104995509D01*
X138859113Y-105093791D01*
X138859111Y-105093795D01*
X138859111Y-105093796D01*
X138841501Y-105141009D01*
X138798956Y-105197842D01*
X138732435Y-105222653D01*
X138723447Y-105222974D01*
X131417379Y-105222974D01*
X131349258Y-105202972D01*
X131334867Y-105192199D01*
X131258541Y-105126063D01*
X131258540Y-105126062D01*
X131190048Y-105082045D01*
X131137587Y-105048330D01*
X131123026Y-105041680D01*
X131107549Y-105034612D01*
X131053895Y-104988121D01*
X131033893Y-104920001D01*
X131053895Y-104851880D01*
X131107550Y-104805387D01*
X131107550Y-104805386D01*
X131137586Y-104791670D01*
X131187319Y-104759709D01*
X131258532Y-104713944D01*
X131258539Y-104713939D01*
X131258544Y-104713935D01*
X131369051Y-104618179D01*
X131463205Y-104509518D01*
X131542256Y-104386512D01*
X131573056Y-104319070D01*
X131583749Y-104295657D01*
X131630242Y-104242002D01*
X131698362Y-104222000D01*
X138675500Y-104222000D01*
X138743621Y-104242002D01*
G37*
%TD.AperFunction*%
%TA.AperFunction,NonConductor*%
G36*
X128369759Y-104242002D02*
G01*
X128416251Y-104295657D01*
X128457741Y-104386507D01*
X128457744Y-104386512D01*
X128536795Y-104509518D01*
X128536797Y-104509520D01*
X128629492Y-104616498D01*
X128630202Y-104617379D01*
X128630952Y-104618183D01*
X128741460Y-104713938D01*
X128862414Y-104791670D01*
X128862416Y-104791671D01*
X128862418Y-104791672D01*
X128892449Y-104805387D01*
X128946104Y-104851880D01*
X128966106Y-104920001D01*
X128946104Y-104988121D01*
X128892449Y-105034613D01*
X128862418Y-105048327D01*
X128862406Y-105048334D01*
X128741468Y-105126056D01*
X128741461Y-105126061D01*
X128741459Y-105126062D01*
X128741460Y-105126062D01*
X128741456Y-105126065D01*
X128665134Y-105192198D01*
X128600555Y-105221691D01*
X128582623Y-105222974D01*
X121276553Y-105222974D01*
X121208432Y-105202972D01*
X121161939Y-105149316D01*
X121158505Y-105141027D01*
X121140889Y-105093796D01*
X121140885Y-105093791D01*
X121104445Y-105045113D01*
X121067311Y-104995507D01*
X121042501Y-104928989D01*
X121057592Y-104859615D01*
X121067306Y-104844497D01*
X121140889Y-104746204D01*
X121191989Y-104609201D01*
X121198500Y-104548638D01*
X121198500Y-104347999D01*
X121218502Y-104279879D01*
X121272158Y-104233386D01*
X121324500Y-104222000D01*
X128301638Y-104222000D01*
X128369759Y-104242002D01*
G37*
%TD.AperFunction*%
%TA.AperFunction,NonConductor*%
G36*
X141632673Y-104957705D02*
G01*
X141677736Y-104986666D01*
X142641095Y-105950025D01*
X142675121Y-106012337D01*
X142678000Y-106039120D01*
X142678000Y-106064880D01*
X142657998Y-106133001D01*
X142604342Y-106179494D01*
X142534068Y-106189598D01*
X142469488Y-106160104D01*
X142462905Y-106153975D01*
X142295860Y-105986930D01*
X142123894Y-105814964D01*
X142118463Y-105808771D01*
X142097954Y-105782044D01*
X142090159Y-105776063D01*
X142056661Y-105750359D01*
X141978468Y-105690359D01*
X141866464Y-105643965D01*
X141853351Y-105634569D01*
X141839322Y-105632722D01*
X141727492Y-105618000D01*
X141721263Y-105617180D01*
X141721257Y-105617180D01*
X141690002Y-105613065D01*
X141689995Y-105613065D01*
X141660943Y-105616889D01*
X141590795Y-105605948D01*
X141537697Y-105558819D01*
X141518500Y-105491967D01*
X141518500Y-105291367D01*
X141518499Y-105291350D01*
X141511990Y-105230803D01*
X141511988Y-105230795D01*
X141470586Y-105119794D01*
X141465520Y-105048979D01*
X141499545Y-104986666D01*
X141561857Y-104952641D01*
X141632673Y-104957705D01*
G37*
%TD.AperFunction*%
%TA.AperFunction,NonConductor*%
G36*
X141730078Y-107039008D02*
G01*
X142633975Y-107942905D01*
X142668001Y-108005217D01*
X142662936Y-108076032D01*
X142620389Y-108132868D01*
X142553869Y-108157679D01*
X142544880Y-108158000D01*
X141644500Y-108158000D01*
X141576379Y-108137998D01*
X141529886Y-108084342D01*
X141518500Y-108032000D01*
X141518500Y-107831367D01*
X141518499Y-107831350D01*
X141511990Y-107770803D01*
X141511988Y-107770795D01*
X141460889Y-107633797D01*
X141460887Y-107633792D01*
X141387312Y-107535508D01*
X141362501Y-107468988D01*
X141377592Y-107399614D01*
X141387312Y-107384491D01*
X141460889Y-107286204D01*
X141511989Y-107149201D01*
X141515704Y-107114637D01*
X141542873Y-107049044D01*
X141601190Y-107008552D01*
X141672141Y-107006016D01*
X141730078Y-107039008D01*
G37*
%TD.AperFunction*%
%TA.AperFunction,NonConductor*%
G36*
X118403048Y-107010047D02*
G01*
X118459884Y-107052594D01*
X118484294Y-107114634D01*
X118488009Y-107149196D01*
X118488011Y-107149204D01*
X118539110Y-107286202D01*
X118539112Y-107286207D01*
X118612687Y-107384491D01*
X118637498Y-107451011D01*
X118622407Y-107520385D01*
X118612687Y-107535509D01*
X118539112Y-107633792D01*
X118539110Y-107633797D01*
X118488011Y-107770795D01*
X118488009Y-107770803D01*
X118481500Y-107831350D01*
X118481500Y-108032000D01*
X118461498Y-108100121D01*
X118407842Y-108146614D01*
X118355500Y-108158000D01*
X117455120Y-108158000D01*
X117386999Y-108137998D01*
X117340506Y-108084342D01*
X117330402Y-108014068D01*
X117359896Y-107949488D01*
X117366010Y-107942919D01*
X118269924Y-107039005D01*
X118332233Y-107004983D01*
X118403048Y-107010047D01*
G37*
%TD.AperFunction*%
%TA.AperFunction,NonConductor*%
G36*
X138743621Y-106386976D02*
G01*
X138790114Y-106440632D01*
X138801500Y-106492974D01*
X138801500Y-107088649D01*
X138808009Y-107149196D01*
X138808011Y-107149204D01*
X138859110Y-107286202D01*
X138859112Y-107286207D01*
X138932687Y-107384490D01*
X138957498Y-107451010D01*
X138942407Y-107520384D01*
X138932688Y-107535507D01*
X138859112Y-107633793D01*
X138859110Y-107633797D01*
X138808011Y-107770795D01*
X138808009Y-107770803D01*
X138801500Y-107831350D01*
X138801500Y-108096974D01*
X138781498Y-108165095D01*
X138727842Y-108211588D01*
X138675500Y-108222974D01*
X131725288Y-108222974D01*
X131657167Y-108202972D01*
X131610674Y-108149316D01*
X131604393Y-108132476D01*
X131601986Y-108124280D01*
X131601984Y-108124274D01*
X131601984Y-108124273D01*
X131551655Y-108014068D01*
X131542258Y-107993492D01*
X131542255Y-107993487D01*
X131463205Y-107870482D01*
X131370505Y-107763499D01*
X131369791Y-107762614D01*
X131369047Y-107761816D01*
X131258541Y-107666063D01*
X131258540Y-107666062D01*
X131221350Y-107642161D01*
X131137587Y-107588330D01*
X131123026Y-107581680D01*
X131107549Y-107574612D01*
X131053895Y-107528121D01*
X131033893Y-107460001D01*
X131053895Y-107391880D01*
X131107550Y-107345387D01*
X131107550Y-107345386D01*
X131137586Y-107331670D01*
X131208327Y-107286208D01*
X131258532Y-107253944D01*
X131258539Y-107253939D01*
X131263086Y-107249999D01*
X131369051Y-107158179D01*
X131463205Y-107049518D01*
X131542256Y-106926512D01*
X131601984Y-106795727D01*
X131601984Y-106795726D01*
X131601984Y-106795723D01*
X131602169Y-106795320D01*
X131602614Y-106793579D01*
X131643180Y-106655427D01*
X131663642Y-106513112D01*
X131663642Y-106492973D01*
X131683644Y-106424853D01*
X131737300Y-106378360D01*
X131789642Y-106366974D01*
X138675500Y-106366974D01*
X138743621Y-106386976D01*
G37*
%TD.AperFunction*%
%TA.AperFunction,NonConductor*%
G36*
X128278479Y-106386976D02*
G01*
X128324972Y-106440632D01*
X128336358Y-106492974D01*
X128336358Y-106513117D01*
X128355537Y-106646503D01*
X128355537Y-106646508D01*
X128355538Y-106646508D01*
X128356820Y-106655431D01*
X128398014Y-106795721D01*
X128398020Y-106795736D01*
X128457741Y-106926507D01*
X128457744Y-106926512D01*
X128536795Y-107049518D01*
X128539498Y-107052637D01*
X128629492Y-107156498D01*
X128630202Y-107157379D01*
X128630952Y-107158183D01*
X128741460Y-107253938D01*
X128862414Y-107331670D01*
X128862416Y-107331671D01*
X128862418Y-107331672D01*
X128892449Y-107345387D01*
X128946104Y-107391880D01*
X128966106Y-107460001D01*
X128946104Y-107528121D01*
X128892449Y-107574613D01*
X128862418Y-107588327D01*
X128862406Y-107588334D01*
X128741468Y-107666056D01*
X128741461Y-107666061D01*
X128630949Y-107761820D01*
X128536797Y-107870479D01*
X128457744Y-107993487D01*
X128457741Y-107993492D01*
X128397827Y-108124684D01*
X128397384Y-108126424D01*
X128395616Y-108132449D01*
X128357244Y-108192183D01*
X128292668Y-108221688D01*
X128274713Y-108222974D01*
X121324500Y-108222974D01*
X121256379Y-108202972D01*
X121209886Y-108149316D01*
X121198500Y-108096974D01*
X121198500Y-107831367D01*
X121198499Y-107831350D01*
X121191990Y-107770803D01*
X121191988Y-107770795D01*
X121140889Y-107633797D01*
X121140889Y-107633796D01*
X121106851Y-107588327D01*
X121067311Y-107535507D01*
X121042501Y-107468989D01*
X121057592Y-107399615D01*
X121067306Y-107384497D01*
X121140889Y-107286204D01*
X121191989Y-107149201D01*
X121195706Y-107114634D01*
X121198499Y-107088649D01*
X121198500Y-107088632D01*
X121198500Y-106492974D01*
X121218502Y-106424853D01*
X121272158Y-106378360D01*
X121324500Y-106366974D01*
X128210358Y-106366974D01*
X128278479Y-106386976D01*
G37*
%TD.AperFunction*%
%TA.AperFunction,NonConductor*%
G36*
X143009001Y-109322002D02*
G01*
X143029974Y-109338904D01*
X143816107Y-110125037D01*
X143821540Y-110131232D01*
X143842046Y-110157956D01*
X143862689Y-110173796D01*
X143872044Y-110180974D01*
X143872046Y-110180976D01*
X143961532Y-110249641D01*
X143961535Y-110249642D01*
X143965068Y-110251682D01*
X143967455Y-110254185D01*
X143968084Y-110254668D01*
X143968008Y-110254765D01*
X144014064Y-110303063D01*
X144027503Y-110372776D01*
X144001119Y-110438688D01*
X143991169Y-110449899D01*
X143779975Y-110661095D01*
X143717663Y-110695120D01*
X143690879Y-110698000D01*
X141644500Y-110698000D01*
X141576379Y-110677998D01*
X141529886Y-110624342D01*
X141518500Y-110572000D01*
X141518500Y-110371367D01*
X141518499Y-110371350D01*
X141511990Y-110310803D01*
X141511988Y-110310795D01*
X141472921Y-110206056D01*
X141460889Y-110173796D01*
X141387311Y-110075507D01*
X141362501Y-110008989D01*
X141377592Y-109939615D01*
X141387306Y-109924497D01*
X141460889Y-109826204D01*
X141511989Y-109689201D01*
X141518500Y-109628638D01*
X141518500Y-109428000D01*
X141538502Y-109359879D01*
X141592158Y-109313386D01*
X141644500Y-109302000D01*
X142940880Y-109302000D01*
X143009001Y-109322002D01*
G37*
%TD.AperFunction*%
%TA.AperFunction,NonConductor*%
G36*
X118423621Y-109322002D02*
G01*
X118470114Y-109375658D01*
X118481500Y-109428000D01*
X118481500Y-109628649D01*
X118488009Y-109689196D01*
X118488011Y-109689204D01*
X118539110Y-109826202D01*
X118539112Y-109826207D01*
X118612687Y-109924490D01*
X118637498Y-109991010D01*
X118622407Y-110060384D01*
X118612688Y-110075507D01*
X118539112Y-110173793D01*
X118539110Y-110173797D01*
X118488011Y-110310795D01*
X118488009Y-110310803D01*
X118481500Y-110371350D01*
X118481500Y-110572000D01*
X118461498Y-110640121D01*
X118407842Y-110686614D01*
X118355500Y-110698000D01*
X117559120Y-110698000D01*
X117490999Y-110677998D01*
X117470025Y-110661095D01*
X117085713Y-110276783D01*
X116683894Y-109874964D01*
X116678463Y-109868771D01*
X116657951Y-109842040D01*
X116652116Y-109836205D01*
X116654515Y-109833805D01*
X116621951Y-109789189D01*
X116617744Y-109718317D01*
X116651434Y-109657494D01*
X116970025Y-109338904D01*
X117032338Y-109304879D01*
X117059121Y-109302000D01*
X118355500Y-109302000D01*
X118423621Y-109322002D01*
G37*
%TD.AperFunction*%
%TA.AperFunction,NonConductor*%
G36*
X138743621Y-109386976D02*
G01*
X138790114Y-109440632D01*
X138801500Y-109492974D01*
X138801500Y-109628649D01*
X138808009Y-109689196D01*
X138808011Y-109689204D01*
X138859110Y-109826202D01*
X138859112Y-109826207D01*
X138932687Y-109924491D01*
X138957498Y-109991011D01*
X138942407Y-110060385D01*
X138932687Y-110075509D01*
X138859112Y-110173792D01*
X138859110Y-110173797D01*
X138808011Y-110310795D01*
X138808009Y-110310803D01*
X138801500Y-110371350D01*
X138801500Y-111096974D01*
X138781498Y-111165095D01*
X138727842Y-111211588D01*
X138675500Y-111222974D01*
X131789729Y-111222974D01*
X131721608Y-111202972D01*
X131675115Y-111149316D01*
X131663729Y-111096974D01*
X131663729Y-111004295D01*
X131663642Y-111003486D01*
X131663642Y-110946887D01*
X131663641Y-110946882D01*
X131644463Y-110813496D01*
X131644462Y-110813491D01*
X131644462Y-110813492D01*
X131643180Y-110804573D01*
X131643180Y-110804572D01*
X131640085Y-110794033D01*
X131611887Y-110698000D01*
X131601984Y-110664273D01*
X131542256Y-110533488D01*
X131463205Y-110410482D01*
X131370505Y-110303499D01*
X131369791Y-110302614D01*
X131369047Y-110301816D01*
X131258541Y-110206063D01*
X131258540Y-110206062D01*
X131215598Y-110178465D01*
X131137587Y-110128330D01*
X131123026Y-110121680D01*
X131107549Y-110114612D01*
X131053895Y-110068121D01*
X131033893Y-110000001D01*
X131053895Y-109931880D01*
X131107550Y-109885387D01*
X131107550Y-109885386D01*
X131137586Y-109871670D01*
X131192771Y-109836205D01*
X131258532Y-109793944D01*
X131258539Y-109793939D01*
X131309248Y-109749999D01*
X131369051Y-109698179D01*
X131463205Y-109589518D01*
X131542256Y-109466512D01*
X131551007Y-109447351D01*
X131554076Y-109440631D01*
X131600569Y-109386975D01*
X131668689Y-109366974D01*
X138675500Y-109366974D01*
X138743621Y-109386976D01*
G37*
%TD.AperFunction*%
%TA.AperFunction,NonConductor*%
G36*
X128399432Y-109386976D02*
G01*
X128445924Y-109440631D01*
X128457741Y-109466507D01*
X128457744Y-109466512D01*
X128536795Y-109589518D01*
X128536797Y-109589520D01*
X128629492Y-109696498D01*
X128630202Y-109697379D01*
X128630952Y-109698183D01*
X128741460Y-109793938D01*
X128862414Y-109871670D01*
X128862416Y-109871671D01*
X128862418Y-109871672D01*
X128892449Y-109885387D01*
X128946104Y-109931880D01*
X128966106Y-110000001D01*
X128946104Y-110068121D01*
X128892449Y-110114613D01*
X128862418Y-110128327D01*
X128862406Y-110128334D01*
X128741468Y-110206056D01*
X128741461Y-110206061D01*
X128630949Y-110301820D01*
X128536797Y-110410479D01*
X128457744Y-110533487D01*
X128457741Y-110533492D01*
X128397827Y-110664686D01*
X128397380Y-110666437D01*
X128356820Y-110804570D01*
X128356819Y-110804574D01*
X128336358Y-110946882D01*
X128336357Y-110946888D01*
X128336357Y-111003488D01*
X128336271Y-111003780D01*
X128336271Y-111096974D01*
X128316269Y-111165095D01*
X128262613Y-111211588D01*
X128210271Y-111222974D01*
X121324500Y-111222974D01*
X121256379Y-111202972D01*
X121209886Y-111149316D01*
X121198500Y-111096974D01*
X121198500Y-110371367D01*
X121198499Y-110371350D01*
X121191990Y-110310803D01*
X121191988Y-110310795D01*
X121152921Y-110206056D01*
X121140889Y-110173796D01*
X121140887Y-110173793D01*
X121140887Y-110173792D01*
X121067312Y-110075508D01*
X121042501Y-110008988D01*
X121057592Y-109939614D01*
X121067312Y-109924491D01*
X121140889Y-109826204D01*
X121191989Y-109689201D01*
X121198500Y-109628638D01*
X121198500Y-109492974D01*
X121218502Y-109424853D01*
X121272158Y-109378360D01*
X121324500Y-109366974D01*
X128331311Y-109366974D01*
X128399432Y-109386976D01*
G37*
%TD.AperFunction*%
%TA.AperFunction,NonConductor*%
G36*
X118423621Y-111862002D02*
G01*
X118470114Y-111915658D01*
X118481500Y-111968000D01*
X118481500Y-112168649D01*
X118488009Y-112229196D01*
X118488011Y-112229204D01*
X118539110Y-112366202D01*
X118539112Y-112366207D01*
X118612687Y-112464491D01*
X118637498Y-112531011D01*
X118622407Y-112600385D01*
X118612687Y-112615509D01*
X118539112Y-112713792D01*
X118539110Y-112713797D01*
X118522019Y-112759620D01*
X118479472Y-112816456D01*
X118412952Y-112841266D01*
X118343578Y-112826174D01*
X118314869Y-112804682D01*
X117567282Y-112057095D01*
X117533256Y-111994783D01*
X117538321Y-111923968D01*
X117580868Y-111867132D01*
X117647388Y-111842321D01*
X117656377Y-111842000D01*
X118355500Y-111842000D01*
X118423621Y-111862002D01*
G37*
%TD.AperFunction*%
%TA.AperFunction,NonConductor*%
G36*
X143363001Y-111862002D02*
G01*
X143409494Y-111915658D01*
X143419598Y-111985932D01*
X143390104Y-112050512D01*
X143383975Y-112057095D01*
X142239975Y-113201095D01*
X142177663Y-113235121D01*
X142150880Y-113238000D01*
X141644500Y-113238000D01*
X141576379Y-113217998D01*
X141529886Y-113164342D01*
X141518500Y-113112000D01*
X141518500Y-112911367D01*
X141518499Y-112911350D01*
X141511990Y-112850803D01*
X141511988Y-112850795D01*
X141477981Y-112759620D01*
X141460889Y-112713796D01*
X141460887Y-112713793D01*
X141460887Y-112713792D01*
X141387312Y-112615508D01*
X141362501Y-112548988D01*
X141377592Y-112479614D01*
X141387312Y-112464491D01*
X141460889Y-112366204D01*
X141511989Y-112229201D01*
X141518500Y-112168638D01*
X141518500Y-111968000D01*
X141538502Y-111899879D01*
X141592158Y-111853386D01*
X141644500Y-111842000D01*
X143294880Y-111842000D01*
X143363001Y-111862002D01*
G37*
%TD.AperFunction*%
%TA.AperFunction,NonConductor*%
G36*
X138864737Y-112386976D02*
G01*
X138897482Y-112417462D01*
X138932687Y-112464490D01*
X138957498Y-112531009D01*
X138942407Y-112600384D01*
X138932688Y-112615507D01*
X138859112Y-112713793D01*
X138859110Y-112713797D01*
X138808011Y-112850795D01*
X138808009Y-112850803D01*
X138801500Y-112911350D01*
X138801500Y-113112000D01*
X138781498Y-113180121D01*
X138727842Y-113226614D01*
X138675500Y-113238000D01*
X131698362Y-113238000D01*
X131630241Y-113217998D01*
X131583749Y-113164343D01*
X131542258Y-113073492D01*
X131542255Y-113073487D01*
X131463205Y-112950482D01*
X131370505Y-112843499D01*
X131369791Y-112842614D01*
X131369047Y-112841816D01*
X131258541Y-112746063D01*
X131258540Y-112746062D01*
X131221350Y-112722161D01*
X131137587Y-112668330D01*
X131123026Y-112661680D01*
X131107549Y-112654612D01*
X131053895Y-112608121D01*
X131033893Y-112540001D01*
X131053895Y-112471880D01*
X131107550Y-112425387D01*
X131107550Y-112425386D01*
X131137586Y-112411670D01*
X131176011Y-112386975D01*
X131244130Y-112366974D01*
X138796616Y-112366974D01*
X138864737Y-112386976D01*
G37*
%TD.AperFunction*%
%TA.AperFunction,NonConductor*%
G36*
X128823988Y-112386975D02*
G01*
X128862414Y-112411670D01*
X128862417Y-112411671D01*
X128862418Y-112411672D01*
X128892449Y-112425387D01*
X128946104Y-112471880D01*
X128966106Y-112540001D01*
X128946104Y-112608121D01*
X128892449Y-112654613D01*
X128862418Y-112668327D01*
X128862406Y-112668334D01*
X128741468Y-112746056D01*
X128741461Y-112746061D01*
X128630949Y-112841820D01*
X128536797Y-112950479D01*
X128457744Y-113073487D01*
X128457741Y-113073492D01*
X128416251Y-113164343D01*
X128369758Y-113217998D01*
X128301638Y-113238000D01*
X121324500Y-113238000D01*
X121256379Y-113217998D01*
X121209886Y-113164342D01*
X121198500Y-113112000D01*
X121198500Y-112911367D01*
X121198499Y-112911350D01*
X121191990Y-112850803D01*
X121191988Y-112850795D01*
X121157981Y-112759620D01*
X121140889Y-112713796D01*
X121140887Y-112713793D01*
X121140887Y-112713792D01*
X121067312Y-112615508D01*
X121042501Y-112548988D01*
X121057592Y-112479614D01*
X121067304Y-112464501D01*
X121102517Y-112417462D01*
X121159354Y-112374917D01*
X121203384Y-112366974D01*
X128755869Y-112366974D01*
X128823988Y-112386975D01*
G37*
%TD.AperFunction*%
%TA.AperFunction,NonConductor*%
G36*
X138743621Y-114402002D02*
G01*
X138790114Y-114455658D01*
X138801500Y-114508000D01*
X138801500Y-114708649D01*
X138808009Y-114769196D01*
X138808011Y-114769204D01*
X138859110Y-114906202D01*
X138859112Y-114906207D01*
X138932687Y-115004491D01*
X138957498Y-115071011D01*
X138942407Y-115140385D01*
X138932687Y-115155509D01*
X138859112Y-115253792D01*
X138859110Y-115253797D01*
X138808011Y-115390795D01*
X138808009Y-115390803D01*
X138801500Y-115451350D01*
X138801500Y-115652000D01*
X138781498Y-115720121D01*
X138727842Y-115766614D01*
X138675500Y-115778000D01*
X131698362Y-115778000D01*
X131630241Y-115757998D01*
X131583749Y-115704343D01*
X131542258Y-115613492D01*
X131542255Y-115613487D01*
X131463205Y-115490482D01*
X131370505Y-115383499D01*
X131369791Y-115382614D01*
X131369047Y-115381816D01*
X131258541Y-115286063D01*
X131258540Y-115286062D01*
X131221350Y-115262161D01*
X131137587Y-115208330D01*
X131123026Y-115201680D01*
X131107549Y-115194612D01*
X131053895Y-115148121D01*
X131033893Y-115080001D01*
X131053895Y-115011880D01*
X131107550Y-114965387D01*
X131107550Y-114965386D01*
X131137586Y-114951670D01*
X131190048Y-114917955D01*
X131258532Y-114873944D01*
X131258539Y-114873939D01*
X131266247Y-114867260D01*
X131369051Y-114778179D01*
X131463205Y-114669518D01*
X131542256Y-114546512D01*
X131560763Y-114505988D01*
X131583749Y-114455657D01*
X131630242Y-114402002D01*
X131698362Y-114382000D01*
X138675500Y-114382000D01*
X138743621Y-114402002D01*
G37*
%TD.AperFunction*%
%TA.AperFunction,NonConductor*%
G36*
X128369759Y-114402002D02*
G01*
X128416251Y-114455657D01*
X128457741Y-114546507D01*
X128457744Y-114546512D01*
X128536795Y-114669518D01*
X128536797Y-114669520D01*
X128629492Y-114776498D01*
X128630202Y-114777379D01*
X128630952Y-114778183D01*
X128741460Y-114873938D01*
X128862414Y-114951670D01*
X128862416Y-114951671D01*
X128862418Y-114951672D01*
X128892449Y-114965387D01*
X128946104Y-115011880D01*
X128966106Y-115080001D01*
X128946104Y-115148121D01*
X128892449Y-115194613D01*
X128862418Y-115208327D01*
X128862406Y-115208334D01*
X128741468Y-115286056D01*
X128741461Y-115286061D01*
X128630949Y-115381820D01*
X128536797Y-115490479D01*
X128457744Y-115613487D01*
X128457741Y-115613492D01*
X128416251Y-115704343D01*
X128369758Y-115757998D01*
X128301638Y-115778000D01*
X121324500Y-115778000D01*
X121256379Y-115757998D01*
X121209886Y-115704342D01*
X121198500Y-115652000D01*
X121198500Y-115451367D01*
X121198499Y-115451350D01*
X121191990Y-115390803D01*
X121191988Y-115390795D01*
X121140889Y-115253797D01*
X121140889Y-115253796D01*
X121106851Y-115208327D01*
X121067311Y-115155507D01*
X121042501Y-115088989D01*
X121057592Y-115019615D01*
X121067306Y-115004497D01*
X121140889Y-114906204D01*
X121191989Y-114769201D01*
X121194032Y-114750203D01*
X121198499Y-114708649D01*
X121198500Y-114708632D01*
X121198500Y-114508000D01*
X121218502Y-114439879D01*
X121272158Y-114393386D01*
X121324500Y-114382000D01*
X128301638Y-114382000D01*
X128369759Y-114402002D01*
G37*
%TD.AperFunction*%
%TA.AperFunction,NonConductor*%
G36*
X117780511Y-115099894D02*
G01*
X117787094Y-115106024D01*
X118444594Y-115763524D01*
X118478620Y-115825836D01*
X118481499Y-115852619D01*
X118481499Y-116418379D01*
X118461497Y-116486500D01*
X118407841Y-116532993D01*
X118337567Y-116543097D01*
X118272987Y-116513603D01*
X118266404Y-116507474D01*
X117608905Y-115849975D01*
X117574879Y-115787663D01*
X117572000Y-115760880D01*
X117572000Y-115490479D01*
X117572000Y-115195115D01*
X117592001Y-115126998D01*
X117645657Y-115080505D01*
X117715930Y-115070401D01*
X117780511Y-115099894D01*
G37*
%TD.AperFunction*%
%TA.AperFunction,NonConductor*%
G36*
X138743621Y-116942002D02*
G01*
X138790114Y-116995658D01*
X138801500Y-117048000D01*
X138801500Y-117248649D01*
X138808009Y-117309196D01*
X138808011Y-117309204D01*
X138859110Y-117446202D01*
X138859112Y-117446207D01*
X138932687Y-117544491D01*
X138957498Y-117611011D01*
X138942407Y-117680385D01*
X138932687Y-117695509D01*
X138859112Y-117793792D01*
X138859110Y-117793797D01*
X138808011Y-117930795D01*
X138808009Y-117930803D01*
X138801500Y-117991350D01*
X138801500Y-118192000D01*
X138781498Y-118260121D01*
X138727842Y-118306614D01*
X138675500Y-118318000D01*
X131698362Y-118318000D01*
X131630241Y-118297998D01*
X131583749Y-118244343D01*
X131542258Y-118153492D01*
X131542255Y-118153487D01*
X131463205Y-118030482D01*
X131370505Y-117923499D01*
X131369791Y-117922614D01*
X131369047Y-117921816D01*
X131258541Y-117826063D01*
X131258540Y-117826062D01*
X131219354Y-117800879D01*
X131137587Y-117748330D01*
X131123026Y-117741680D01*
X131107549Y-117734612D01*
X131053895Y-117688121D01*
X131033893Y-117620001D01*
X131053895Y-117551880D01*
X131107550Y-117505387D01*
X131107550Y-117505386D01*
X131137586Y-117491670D01*
X131208327Y-117446208D01*
X131258532Y-117413944D01*
X131258539Y-117413939D01*
X131286196Y-117389974D01*
X131369051Y-117318179D01*
X131463205Y-117209518D01*
X131542256Y-117086512D01*
X131579317Y-117005361D01*
X131583749Y-116995657D01*
X131630242Y-116942002D01*
X131698362Y-116922000D01*
X138675500Y-116922000D01*
X138743621Y-116942002D01*
G37*
%TD.AperFunction*%
%TA.AperFunction,NonConductor*%
G36*
X128369759Y-116942002D02*
G01*
X128416251Y-116995657D01*
X128457741Y-117086507D01*
X128457744Y-117086512D01*
X128536795Y-117209518D01*
X128536797Y-117209520D01*
X128629492Y-117316498D01*
X128630202Y-117317379D01*
X128630952Y-117318183D01*
X128741460Y-117413938D01*
X128862414Y-117491670D01*
X128862416Y-117491671D01*
X128862418Y-117491672D01*
X128892449Y-117505387D01*
X128946104Y-117551880D01*
X128966106Y-117620001D01*
X128946104Y-117688121D01*
X128892449Y-117734613D01*
X128862418Y-117748327D01*
X128862406Y-117748334D01*
X128741468Y-117826056D01*
X128741461Y-117826061D01*
X128630949Y-117921820D01*
X128536797Y-118030479D01*
X128457744Y-118153487D01*
X128457741Y-118153492D01*
X128416251Y-118244343D01*
X128369758Y-118297998D01*
X128301638Y-118318000D01*
X121324500Y-118318000D01*
X121256379Y-118297998D01*
X121209886Y-118244342D01*
X121198500Y-118192000D01*
X121198500Y-117991367D01*
X121198499Y-117991350D01*
X121191990Y-117930803D01*
X121191988Y-117930795D01*
X121140889Y-117793797D01*
X121140887Y-117793792D01*
X121067312Y-117695508D01*
X121042501Y-117628988D01*
X121057592Y-117559614D01*
X121067312Y-117544491D01*
X121140889Y-117446204D01*
X121191989Y-117309201D01*
X121198500Y-117248638D01*
X121198500Y-117047999D01*
X121218502Y-116979879D01*
X121272158Y-116933386D01*
X121324500Y-116922000D01*
X128301638Y-116922000D01*
X128369759Y-116942002D01*
G37*
%TD.AperFunction*%
%TA.AperFunction,NonConductor*%
G36*
X142846032Y-117117063D02*
G01*
X142902868Y-117159610D01*
X142927679Y-117226130D01*
X142928000Y-117235119D01*
X142928000Y-117800879D01*
X142907998Y-117869000D01*
X142891095Y-117889974D01*
X141733595Y-119047474D01*
X141671283Y-119081500D01*
X141600468Y-119076435D01*
X141543632Y-119033888D01*
X141518821Y-118967368D01*
X141518500Y-118958379D01*
X141518500Y-118392619D01*
X141538502Y-118324498D01*
X141555405Y-118303524D01*
X142712905Y-117146024D01*
X142775217Y-117111998D01*
X142846032Y-117117063D01*
G37*
%TD.AperFunction*%
%TA.AperFunction,NonConductor*%
G36*
X116780512Y-116639896D02*
G01*
X116787095Y-116646025D01*
X118444593Y-118303523D01*
X118478619Y-118365835D01*
X118481498Y-118392618D01*
X118481499Y-118958378D01*
X118461497Y-119026499D01*
X118407841Y-119072992D01*
X118337568Y-119083096D01*
X118272987Y-119053603D01*
X118266404Y-119047473D01*
X116608905Y-117389974D01*
X116574879Y-117327662D01*
X116572000Y-117300879D01*
X116572000Y-116735120D01*
X116592002Y-116666999D01*
X116645658Y-116620506D01*
X116715932Y-116610402D01*
X116780512Y-116639896D01*
G37*
%TD.AperFunction*%
%TA.AperFunction,NonConductor*%
G36*
X138743621Y-119482002D02*
G01*
X138790114Y-119535658D01*
X138801500Y-119588000D01*
X138801500Y-119788649D01*
X138808009Y-119849196D01*
X138808011Y-119849204D01*
X138859110Y-119986202D01*
X138859112Y-119986207D01*
X138932687Y-120084491D01*
X138957498Y-120151011D01*
X138942407Y-120220385D01*
X138932687Y-120235509D01*
X138859112Y-120333792D01*
X138859110Y-120333797D01*
X138808011Y-120470795D01*
X138808009Y-120470803D01*
X138801500Y-120531350D01*
X138801500Y-120732000D01*
X138781498Y-120800121D01*
X138727842Y-120846614D01*
X138675500Y-120858000D01*
X131698362Y-120858000D01*
X131630241Y-120837998D01*
X131583749Y-120784343D01*
X131542258Y-120693492D01*
X131542255Y-120693487D01*
X131463205Y-120570482D01*
X131370505Y-120463499D01*
X131369791Y-120462614D01*
X131369047Y-120461816D01*
X131258541Y-120366063D01*
X131258540Y-120366062D01*
X131221350Y-120342161D01*
X131137587Y-120288330D01*
X131123026Y-120281680D01*
X131107549Y-120274612D01*
X131053895Y-120228121D01*
X131033893Y-120160001D01*
X131053895Y-120091880D01*
X131107550Y-120045387D01*
X131107550Y-120045386D01*
X131137586Y-120031670D01*
X131182175Y-120003014D01*
X131258532Y-119953944D01*
X131258539Y-119953939D01*
X131258544Y-119953935D01*
X131369051Y-119858179D01*
X131463205Y-119749518D01*
X131542256Y-119626512D01*
X131559844Y-119588000D01*
X131583749Y-119535657D01*
X131630242Y-119482002D01*
X131698362Y-119462000D01*
X138675500Y-119462000D01*
X138743621Y-119482002D01*
G37*
%TD.AperFunction*%
%TA.AperFunction,NonConductor*%
G36*
X128369759Y-119482002D02*
G01*
X128416251Y-119535657D01*
X128457741Y-119626507D01*
X128457744Y-119626512D01*
X128536795Y-119749518D01*
X128536797Y-119749520D01*
X128629492Y-119856498D01*
X128630202Y-119857379D01*
X128630952Y-119858183D01*
X128741460Y-119953938D01*
X128862414Y-120031670D01*
X128862416Y-120031671D01*
X128862418Y-120031672D01*
X128892449Y-120045387D01*
X128946104Y-120091880D01*
X128966106Y-120160001D01*
X128946104Y-120228121D01*
X128892449Y-120274613D01*
X128862418Y-120288327D01*
X128862406Y-120288334D01*
X128741468Y-120366056D01*
X128741461Y-120366061D01*
X128630949Y-120461820D01*
X128536797Y-120570479D01*
X128457744Y-120693487D01*
X128457741Y-120693492D01*
X128416251Y-120784343D01*
X128369758Y-120837998D01*
X128301638Y-120858000D01*
X121324500Y-120858000D01*
X121256379Y-120837998D01*
X121209886Y-120784342D01*
X121198500Y-120732000D01*
X121198500Y-120531367D01*
X121198499Y-120531350D01*
X121191990Y-120470803D01*
X121191988Y-120470795D01*
X121140889Y-120333797D01*
X121140889Y-120333796D01*
X121140886Y-120333792D01*
X121067311Y-120235507D01*
X121042501Y-120168989D01*
X121057592Y-120099615D01*
X121067306Y-120084497D01*
X121140889Y-119986204D01*
X121191989Y-119849201D01*
X121198500Y-119788638D01*
X121198500Y-119588000D01*
X121218502Y-119519879D01*
X121272158Y-119473386D01*
X121324500Y-119462000D01*
X128301638Y-119462000D01*
X128369759Y-119482002D01*
G37*
%TD.AperFunction*%
%TA.AperFunction,NonConductor*%
G36*
X143846032Y-118657063D02*
G01*
X143902868Y-118699610D01*
X143927679Y-118766130D01*
X143928000Y-118775119D01*
X143928000Y-119340879D01*
X143907998Y-119409000D01*
X143891095Y-119429974D01*
X141733595Y-121587474D01*
X141671283Y-121621500D01*
X141600468Y-121616435D01*
X141543632Y-121573888D01*
X141518821Y-121507368D01*
X141518500Y-121498379D01*
X141518500Y-120932619D01*
X141538502Y-120864498D01*
X141555400Y-120843529D01*
X143712905Y-118686023D01*
X143775217Y-118651998D01*
X143846032Y-118657063D01*
G37*
%TD.AperFunction*%
%TA.AperFunction,NonConductor*%
G36*
X115780511Y-118179895D02*
G01*
X115787094Y-118186025D01*
X118444594Y-120843524D01*
X118478620Y-120905836D01*
X118481499Y-120932619D01*
X118481499Y-121498379D01*
X118461497Y-121566500D01*
X118407841Y-121612993D01*
X118337567Y-121623097D01*
X118272987Y-121593603D01*
X118266404Y-121587474D01*
X115608905Y-118929975D01*
X115574879Y-118867663D01*
X115572000Y-118840880D01*
X115572000Y-118651998D01*
X115572000Y-118275116D01*
X115592001Y-118206999D01*
X115645657Y-118160506D01*
X115715930Y-118150402D01*
X115780511Y-118179895D01*
G37*
%TD.AperFunction*%
%TA.AperFunction,NonConductor*%
G36*
X138743621Y-122022002D02*
G01*
X138790114Y-122075658D01*
X138801500Y-122128000D01*
X138801500Y-122328649D01*
X138808009Y-122389196D01*
X138808011Y-122389204D01*
X138859110Y-122526202D01*
X138859112Y-122526207D01*
X138932687Y-122624490D01*
X138957498Y-122691010D01*
X138942407Y-122760384D01*
X138932688Y-122775507D01*
X138859112Y-122873793D01*
X138859110Y-122873797D01*
X138808011Y-123010795D01*
X138808009Y-123010803D01*
X138801500Y-123071350D01*
X138801500Y-123272000D01*
X138781498Y-123340121D01*
X138727842Y-123386614D01*
X138675500Y-123398000D01*
X131698362Y-123398000D01*
X131630241Y-123377998D01*
X131583749Y-123324343D01*
X131542258Y-123233492D01*
X131542255Y-123233487D01*
X131463205Y-123110482D01*
X131370505Y-123003499D01*
X131369791Y-123002614D01*
X131369047Y-123001816D01*
X131258541Y-122906063D01*
X131258540Y-122906062D01*
X131221350Y-122882161D01*
X131137587Y-122828330D01*
X131123026Y-122821680D01*
X131107549Y-122814612D01*
X131053895Y-122768121D01*
X131033893Y-122700001D01*
X131053895Y-122631880D01*
X131107550Y-122585387D01*
X131107550Y-122585386D01*
X131137586Y-122571670D01*
X131208327Y-122526208D01*
X131258532Y-122493944D01*
X131258539Y-122493939D01*
X131282623Y-122473070D01*
X131369051Y-122398179D01*
X131463205Y-122289518D01*
X131542256Y-122166512D01*
X131559844Y-122128000D01*
X131583749Y-122075657D01*
X131630242Y-122022002D01*
X131698362Y-122002000D01*
X138675500Y-122002000D01*
X138743621Y-122022002D01*
G37*
%TD.AperFunction*%
%TA.AperFunction,NonConductor*%
G36*
X128369759Y-122022002D02*
G01*
X128416251Y-122075657D01*
X128457741Y-122166507D01*
X128457744Y-122166512D01*
X128536795Y-122289518D01*
X128536797Y-122289520D01*
X128629492Y-122396498D01*
X128630202Y-122397379D01*
X128630952Y-122398183D01*
X128741460Y-122493938D01*
X128862414Y-122571670D01*
X128862416Y-122571671D01*
X128862418Y-122571672D01*
X128892449Y-122585387D01*
X128946104Y-122631880D01*
X128966106Y-122700001D01*
X128946104Y-122768121D01*
X128892449Y-122814613D01*
X128862418Y-122828327D01*
X128862406Y-122828334D01*
X128741468Y-122906056D01*
X128741461Y-122906061D01*
X128630949Y-123001820D01*
X128536797Y-123110479D01*
X128457744Y-123233487D01*
X128457741Y-123233492D01*
X128416251Y-123324343D01*
X128369758Y-123377998D01*
X128301638Y-123398000D01*
X121324500Y-123398000D01*
X121256379Y-123377998D01*
X121209886Y-123324342D01*
X121198500Y-123272000D01*
X121198500Y-123071367D01*
X121198499Y-123071350D01*
X121191990Y-123010803D01*
X121191988Y-123010795D01*
X121140889Y-122873797D01*
X121140887Y-122873792D01*
X121067312Y-122775508D01*
X121042501Y-122708988D01*
X121057592Y-122639614D01*
X121067309Y-122624494D01*
X121140889Y-122526204D01*
X121191989Y-122389201D01*
X121198500Y-122328638D01*
X121198500Y-122128000D01*
X121218502Y-122059879D01*
X121272158Y-122013386D01*
X121324500Y-122002000D01*
X128301638Y-122002000D01*
X128369759Y-122022002D01*
G37*
%TD.AperFunction*%
%TA.AperFunction,NonConductor*%
G36*
X144846032Y-120197063D02*
G01*
X144902868Y-120239610D01*
X144927679Y-120306130D01*
X144928000Y-120315119D01*
X144928000Y-120880878D01*
X144907998Y-120948999D01*
X144891095Y-120969973D01*
X141733595Y-124127474D01*
X141671283Y-124161500D01*
X141600468Y-124156435D01*
X141543632Y-124113888D01*
X141518821Y-124047368D01*
X141518500Y-124038379D01*
X141518500Y-123472619D01*
X141538502Y-123404498D01*
X141555400Y-123383529D01*
X144712905Y-120226023D01*
X144775217Y-120191998D01*
X144846032Y-120197063D01*
G37*
%TD.AperFunction*%
%TA.AperFunction,NonConductor*%
G36*
X114780513Y-119719896D02*
G01*
X114787095Y-119726025D01*
X118444594Y-123383524D01*
X118478620Y-123445836D01*
X118481499Y-123472619D01*
X118481499Y-124038380D01*
X118461497Y-124106501D01*
X118407841Y-124152994D01*
X118337567Y-124163098D01*
X118272987Y-124133604D01*
X118266404Y-124127475D01*
X117516927Y-123377998D01*
X114608902Y-120469971D01*
X114574878Y-120407662D01*
X114572000Y-120380888D01*
X114572000Y-119815120D01*
X114592002Y-119746999D01*
X114645658Y-119700506D01*
X114715932Y-119690403D01*
X114780513Y-119719896D01*
G37*
%TD.AperFunction*%
%TA.AperFunction,NonConductor*%
G36*
X138743621Y-124562002D02*
G01*
X138790114Y-124615658D01*
X138801500Y-124668000D01*
X138801500Y-124868649D01*
X138808009Y-124929196D01*
X138808011Y-124929204D01*
X138859110Y-125066202D01*
X138859112Y-125066207D01*
X138932687Y-125164490D01*
X138957498Y-125231010D01*
X138942407Y-125300384D01*
X138932688Y-125315507D01*
X138859112Y-125413793D01*
X138859110Y-125413797D01*
X138808011Y-125550795D01*
X138808009Y-125550803D01*
X138801500Y-125611350D01*
X138801500Y-125812000D01*
X138781498Y-125880121D01*
X138727842Y-125926614D01*
X138675500Y-125938000D01*
X131698362Y-125938000D01*
X131630241Y-125917998D01*
X131583749Y-125864343D01*
X131542258Y-125773492D01*
X131542255Y-125773487D01*
X131463205Y-125650482D01*
X131370505Y-125543499D01*
X131369791Y-125542614D01*
X131369047Y-125541816D01*
X131258541Y-125446063D01*
X131258540Y-125446062D01*
X131221350Y-125422161D01*
X131137587Y-125368330D01*
X131123026Y-125361680D01*
X131107549Y-125354612D01*
X131053895Y-125308121D01*
X131033893Y-125240001D01*
X131053895Y-125171880D01*
X131107550Y-125125387D01*
X131107550Y-125125386D01*
X131137586Y-125111670D01*
X131182175Y-125083014D01*
X131258532Y-125033944D01*
X131258539Y-125033939D01*
X131258544Y-125033935D01*
X131369051Y-124938179D01*
X131463205Y-124829518D01*
X131542256Y-124706512D01*
X131559844Y-124668000D01*
X131583749Y-124615657D01*
X131630242Y-124562002D01*
X131698362Y-124542000D01*
X138675500Y-124542000D01*
X138743621Y-124562002D01*
G37*
%TD.AperFunction*%
%TA.AperFunction,NonConductor*%
G36*
X128369759Y-124562002D02*
G01*
X128416251Y-124615657D01*
X128457741Y-124706507D01*
X128457744Y-124706512D01*
X128536795Y-124829518D01*
X128536797Y-124829520D01*
X128629492Y-124936498D01*
X128630202Y-124937379D01*
X128630952Y-124938183D01*
X128741460Y-125033938D01*
X128862414Y-125111670D01*
X128862416Y-125111671D01*
X128862418Y-125111672D01*
X128892449Y-125125387D01*
X128946104Y-125171880D01*
X128966106Y-125240001D01*
X128946104Y-125308121D01*
X128892449Y-125354613D01*
X128862418Y-125368327D01*
X128862406Y-125368334D01*
X128741468Y-125446056D01*
X128741461Y-125446061D01*
X128630949Y-125541820D01*
X128536797Y-125650479D01*
X128457744Y-125773487D01*
X128457741Y-125773492D01*
X128416251Y-125864343D01*
X128369758Y-125917998D01*
X128301638Y-125938000D01*
X121324500Y-125938000D01*
X121256379Y-125917998D01*
X121209886Y-125864342D01*
X121198500Y-125812000D01*
X121198500Y-125611367D01*
X121198499Y-125611350D01*
X121191990Y-125550803D01*
X121191988Y-125550795D01*
X121140889Y-125413797D01*
X121140889Y-125413796D01*
X121106851Y-125368327D01*
X121067311Y-125315507D01*
X121042501Y-125248989D01*
X121057592Y-125179615D01*
X121067306Y-125164497D01*
X121140889Y-125066204D01*
X121191989Y-124929201D01*
X121198500Y-124868638D01*
X121198500Y-124667999D01*
X121218502Y-124599879D01*
X121272158Y-124553386D01*
X121324500Y-124542000D01*
X128301638Y-124542000D01*
X128369759Y-124562002D01*
G37*
%TD.AperFunction*%
%TA.AperFunction,NonConductor*%
G36*
X145846032Y-121737064D02*
G01*
X145902868Y-121779611D01*
X145927679Y-121846131D01*
X145928000Y-121855120D01*
X145928000Y-122420879D01*
X145907998Y-122489000D01*
X145891095Y-122509974D01*
X141733595Y-126667474D01*
X141671283Y-126701500D01*
X141600468Y-126696435D01*
X141543632Y-126653888D01*
X141518821Y-126587368D01*
X141518500Y-126578379D01*
X141518500Y-126012620D01*
X141538502Y-125944499D01*
X141555405Y-125923525D01*
X145712905Y-121766025D01*
X145775217Y-121731999D01*
X145846032Y-121737064D01*
G37*
%TD.AperFunction*%
%TA.AperFunction,NonConductor*%
G36*
X113780512Y-121259896D02*
G01*
X113787094Y-121266024D01*
X116229446Y-123708377D01*
X118444594Y-125923525D01*
X118478620Y-125985837D01*
X118481499Y-126012620D01*
X118481499Y-126578378D01*
X118461497Y-126646499D01*
X118407841Y-126692992D01*
X118337567Y-126703096D01*
X118272987Y-126673602D01*
X118266404Y-126667473D01*
X113608905Y-122009974D01*
X113574879Y-121947662D01*
X113572000Y-121920879D01*
X113572000Y-121355120D01*
X113592002Y-121286999D01*
X113645658Y-121240506D01*
X113715932Y-121230402D01*
X113780512Y-121259896D01*
G37*
%TD.AperFunction*%
%TA.AperFunction,NonConductor*%
G36*
X138743621Y-127102002D02*
G01*
X138790114Y-127155658D01*
X138801500Y-127208000D01*
X138801500Y-127408649D01*
X138808009Y-127469196D01*
X138808011Y-127469204D01*
X138859110Y-127606202D01*
X138859112Y-127606207D01*
X138932687Y-127704491D01*
X138957498Y-127771011D01*
X138942407Y-127840385D01*
X138932687Y-127855509D01*
X138859112Y-127953792D01*
X138859110Y-127953797D01*
X138808011Y-128090795D01*
X138808009Y-128090803D01*
X138801500Y-128151350D01*
X138801500Y-128352000D01*
X138781498Y-128420121D01*
X138727842Y-128466614D01*
X138675500Y-128478000D01*
X131698362Y-128478000D01*
X131630241Y-128457998D01*
X131583749Y-128404343D01*
X131542258Y-128313492D01*
X131542255Y-128313487D01*
X131463205Y-128190482D01*
X131370505Y-128083499D01*
X131369791Y-128082614D01*
X131369047Y-128081816D01*
X131258541Y-127986063D01*
X131258540Y-127986062D01*
X131221350Y-127962161D01*
X131137587Y-127908330D01*
X131123026Y-127901680D01*
X131107549Y-127894612D01*
X131053895Y-127848121D01*
X131033893Y-127780001D01*
X131053895Y-127711880D01*
X131107550Y-127665387D01*
X131107550Y-127665386D01*
X131137586Y-127651670D01*
X131208327Y-127606208D01*
X131258532Y-127573944D01*
X131258539Y-127573939D01*
X131258544Y-127573935D01*
X131369051Y-127478179D01*
X131463205Y-127369518D01*
X131542256Y-127246512D01*
X131559844Y-127208000D01*
X131583749Y-127155657D01*
X131630242Y-127102002D01*
X131698362Y-127082000D01*
X138675500Y-127082000D01*
X138743621Y-127102002D01*
G37*
%TD.AperFunction*%
%TA.AperFunction,NonConductor*%
G36*
X128369759Y-127102002D02*
G01*
X128416251Y-127155657D01*
X128457741Y-127246507D01*
X128457744Y-127246512D01*
X128536795Y-127369518D01*
X128536797Y-127369520D01*
X128629492Y-127476498D01*
X128630202Y-127477379D01*
X128630952Y-127478183D01*
X128741460Y-127573938D01*
X128862414Y-127651670D01*
X128862416Y-127651671D01*
X128862418Y-127651672D01*
X128892449Y-127665387D01*
X128946104Y-127711880D01*
X128966106Y-127780001D01*
X128946104Y-127848121D01*
X128892449Y-127894613D01*
X128862418Y-127908327D01*
X128862406Y-127908334D01*
X128741468Y-127986056D01*
X128741461Y-127986061D01*
X128630949Y-128081820D01*
X128536797Y-128190479D01*
X128457744Y-128313487D01*
X128457741Y-128313492D01*
X128416251Y-128404343D01*
X128369758Y-128457998D01*
X128301638Y-128478000D01*
X121324500Y-128478000D01*
X121256379Y-128457998D01*
X121209886Y-128404342D01*
X121198500Y-128352000D01*
X121198500Y-128151367D01*
X121198499Y-128151350D01*
X121191990Y-128090803D01*
X121191988Y-128090795D01*
X121140889Y-127953797D01*
X121140887Y-127953792D01*
X121067312Y-127855508D01*
X121042501Y-127788988D01*
X121057592Y-127719614D01*
X121067312Y-127704491D01*
X121140889Y-127606204D01*
X121191989Y-127469201D01*
X121198500Y-127408638D01*
X121198500Y-127207999D01*
X121218502Y-127139879D01*
X121272158Y-127093386D01*
X121324500Y-127082000D01*
X126152508Y-127082000D01*
X128301638Y-127082000D01*
X128369759Y-127102002D01*
G37*
%TD.AperFunction*%
%TA.AperFunction,NonConductor*%
G36*
X146846032Y-123277063D02*
G01*
X146902868Y-123319610D01*
X146927679Y-123386130D01*
X146928000Y-123395119D01*
X146928000Y-123960879D01*
X146907998Y-124029000D01*
X146891095Y-124049974D01*
X141733595Y-129207475D01*
X141671283Y-129241501D01*
X141600468Y-129236436D01*
X141543632Y-129193889D01*
X141518821Y-129127369D01*
X141518500Y-129118380D01*
X141518500Y-128552619D01*
X141538502Y-128484498D01*
X141555400Y-128463529D01*
X146712905Y-123306023D01*
X146775217Y-123271998D01*
X146846032Y-123277063D01*
G37*
%TD.AperFunction*%
%TA.AperFunction,NonConductor*%
G36*
X112780511Y-122799894D02*
G01*
X112787094Y-122806024D01*
X118444594Y-128463524D01*
X118478620Y-128525836D01*
X118481499Y-128552619D01*
X118481500Y-129118380D01*
X118461498Y-129186501D01*
X118407842Y-129232994D01*
X118337569Y-129243098D01*
X118272988Y-129213605D01*
X118266405Y-129207475D01*
X112608905Y-123549975D01*
X112574879Y-123487663D01*
X112572000Y-123460880D01*
X112572000Y-123233487D01*
X112572000Y-122895115D01*
X112592001Y-122826998D01*
X112645657Y-122780505D01*
X112715930Y-122770401D01*
X112780511Y-122799894D01*
G37*
%TD.AperFunction*%
%TA.AperFunction,NonConductor*%
G36*
X138743621Y-129642002D02*
G01*
X138790114Y-129695658D01*
X138801500Y-129748000D01*
X138801500Y-129948649D01*
X138808009Y-130009196D01*
X138808011Y-130009204D01*
X138859110Y-130146202D01*
X138859112Y-130146207D01*
X138932687Y-130244490D01*
X138957498Y-130311010D01*
X138942407Y-130380384D01*
X138932688Y-130395507D01*
X138859112Y-130493793D01*
X138859110Y-130493797D01*
X138808011Y-130630795D01*
X138808009Y-130630803D01*
X138801500Y-130691350D01*
X138801500Y-130892000D01*
X138781498Y-130960121D01*
X138727842Y-131006614D01*
X138675500Y-131018000D01*
X131698362Y-131018000D01*
X131630241Y-130997998D01*
X131583749Y-130944343D01*
X131542258Y-130853492D01*
X131542255Y-130853487D01*
X131524891Y-130826468D01*
X131463205Y-130730482D01*
X131370505Y-130623499D01*
X131369791Y-130622614D01*
X131369047Y-130621816D01*
X131278890Y-130543695D01*
X131258540Y-130526062D01*
X131221350Y-130502161D01*
X131137587Y-130448330D01*
X131123026Y-130441680D01*
X131107549Y-130434612D01*
X131053895Y-130388121D01*
X131033893Y-130320001D01*
X131053895Y-130251880D01*
X131107550Y-130205387D01*
X131107550Y-130205386D01*
X131137586Y-130191670D01*
X131182175Y-130163014D01*
X131258532Y-130113944D01*
X131258539Y-130113939D01*
X131258544Y-130113935D01*
X131369051Y-130018179D01*
X131463205Y-129909518D01*
X131542256Y-129786512D01*
X131559844Y-129748000D01*
X131583749Y-129695657D01*
X131630242Y-129642002D01*
X131698362Y-129622000D01*
X138675500Y-129622000D01*
X138743621Y-129642002D01*
G37*
%TD.AperFunction*%
%TA.AperFunction,NonConductor*%
G36*
X128369759Y-129642002D02*
G01*
X128416251Y-129695657D01*
X128457741Y-129786507D01*
X128457744Y-129786512D01*
X128536795Y-129909518D01*
X128536797Y-129909520D01*
X128629492Y-130016498D01*
X128630202Y-130017379D01*
X128630952Y-130018183D01*
X128741460Y-130113938D01*
X128862414Y-130191670D01*
X128862416Y-130191671D01*
X128862418Y-130191672D01*
X128892449Y-130205387D01*
X128946104Y-130251880D01*
X128966106Y-130320001D01*
X128946104Y-130388121D01*
X128892449Y-130434613D01*
X128862418Y-130448327D01*
X128862406Y-130448334D01*
X128741468Y-130526056D01*
X128741461Y-130526061D01*
X128630949Y-130621820D01*
X128536797Y-130730479D01*
X128457744Y-130853487D01*
X128457741Y-130853492D01*
X128416251Y-130944343D01*
X128369758Y-130997998D01*
X128301638Y-131018000D01*
X121324500Y-131018000D01*
X121256379Y-130997998D01*
X121209886Y-130944342D01*
X121198500Y-130892000D01*
X121198500Y-130691367D01*
X121198499Y-130691350D01*
X121191990Y-130630803D01*
X121191988Y-130630795D01*
X121162924Y-130552875D01*
X121140889Y-130493796D01*
X121067311Y-130395507D01*
X121042501Y-130328989D01*
X121057592Y-130259615D01*
X121067306Y-130244497D01*
X121140889Y-130146204D01*
X121191989Y-130009201D01*
X121192979Y-130000000D01*
X121198499Y-129948649D01*
X121198500Y-129948632D01*
X121198500Y-129748000D01*
X121218502Y-129679879D01*
X121272158Y-129633386D01*
X121324500Y-129622000D01*
X128301638Y-129622000D01*
X128369759Y-129642002D01*
G37*
%TD.AperFunction*%
M02*
