M48
; DRILL file {KiCad 9.0.6-9.0.6~ubuntu24.04.1} date 2026-01-04T18:15:30+0000
; FORMAT={-:-/ absolute / inch / decimal}
; #@! TF.CreationDate,2026-01-04T18:15:30+00:00
; #@! TF.GenerationSoftware,Kicad,Pcbnew,9.0.6-9.0.6~ubuntu24.04.1
; #@! TF.FileFunction,Plated,1,4,PTH
FMAT,2
INCH
; #@! TA.AperFunction,Plated,PTH,ViaDrill
T1C0.0118
; #@! TA.AperFunction,Plated,PTH,ComponentDrill
T2C0.0256
; #@! TA.AperFunction,Plated,PTH,ComponentDrill
T3C0.0315
; #@! TA.AperFunction,Plated,PTH,ComponentDrill
T4C0.0433
%
G90
G05
T1
X0.8858Y-1.1913
X0.9252Y-1.1283
X1.0157Y-0.8811
X1.0157Y-1.3567
X1.0994Y-0.9217
X1.1673Y-1.9551
X1.1693Y-1.0457
X1.1713Y-1.7504
X1.2244Y-1.2268
T2
X1.176Y-0.8476
X1.176Y-0.8976
T4
X0.7157Y-0.8524
X0.7157Y-0.9524
X0.7157Y-1.0524
X0.7157Y-1.1524
X0.7157Y-1.2524
X0.7157Y-1.3524
X0.7157Y-1.4524
X0.7157Y-1.5524
X0.7157Y-1.6524
X0.7157Y-1.7524
X0.7157Y-1.8524
X0.7157Y-1.9524
X0.7157Y-2.0524
X0.7157Y-2.1524
X1.3157Y-0.8524
X1.3157Y-0.9524
X1.3157Y-1.0524
X1.3157Y-1.1524
X1.3157Y-1.2524
X1.3157Y-1.3524
X1.3157Y-1.4524
X1.3157Y-1.5524
X1.3157Y-1.6524
X1.3157Y-1.7524
X1.3157Y-1.8524
X1.3157Y-1.9524
X1.3157Y-2.0524
X1.3157Y-2.1524
T3
G00X0.9469Y-1.9864
M15
G01X0.9469Y-2.0219
M16
G05
G00X1.0335Y-1.9136
M15
G01X0.998Y-1.9136
M16
G05
G00X1.0335Y-2.1695
M15
G01X0.998Y-2.1695
M16
G05
G00X1.0846Y-1.9864
M15
G01X1.0846Y-2.0219
M16
G05
M30
