M48
; DRILL file {KiCad 8.0.4-unknown-202407232306~396e531e7c~ubuntu22.04.1} date 2024-09-04T14:27:01+0100
; FORMAT={-:-/ absolute / inch / decimal}
; #@! TF.CreationDate,2024-09-04T14:27:01+01:00
; #@! TF.GenerationSoftware,Kicad,Pcbnew,8.0.4-unknown-202407232306~396e531e7c~ubuntu22.04.1
; #@! TF.FileFunction,Plated,1,4,PTH
FMAT,2
INCH
; #@! TA.AperFunction,Plated,PTH,ViaDrill
T1C0.0118
; #@! TA.AperFunction,Plated,PTH,ComponentDrill
T2C0.0256
; #@! TA.AperFunction,Plated,PTH,ComponentDrill
T3C0.0276
; #@! TA.AperFunction,Plated,PTH,ComponentDrill
T4C0.0315
; #@! TA.AperFunction,Plated,PTH,ComponentDrill
T5C0.0394
%
G90
G05
T1
X3.749Y-3.2283
X3.749Y-3.3248
X3.7835Y-4.2677
X3.8189Y-3.4291
X3.9409Y-3.7898
X4.0354Y-3.7323
X4.0472Y-3.4567
X4.063Y-3.7126
X4.2165Y-3.8661
T2
X3.887Y-2.4016
X3.937Y-2.4016
T3
X3.887Y-2.4516
X3.937Y-2.4516
X3.987Y-2.4516
T5
X3.587Y-2.4358
X3.587Y-2.5358
X3.587Y-2.6358
X3.587Y-2.7358
X3.587Y-2.8358
X3.587Y-2.9358
X3.587Y-3.0358
X3.587Y-3.1358
X3.587Y-3.2358
X3.587Y-3.3358
X3.587Y-3.4358
X3.587Y-3.5358
X3.587Y-3.6358
X3.587Y-3.7358
X3.587Y-3.8358
X3.587Y-3.9358
X3.587Y-4.0358
X3.587Y-4.1358
X3.587Y-4.2358
X3.587Y-4.3358
X4.287Y-2.4358
X4.287Y-2.5358
X4.287Y-2.6358
X4.287Y-2.7358
X4.287Y-2.8358
X4.287Y-2.9358
X4.287Y-3.0358
X4.287Y-3.1358
X4.287Y-3.2358
X4.287Y-3.3358
X4.287Y-3.4358
X4.287Y-3.5358
X4.287Y-3.6358
X4.287Y-3.7358
X4.287Y-3.8358
X4.287Y-3.9358
X4.287Y-4.0358
X4.287Y-4.1358
X4.287Y-4.2358
X4.287Y-4.3358
T4
G00X3.8681Y-4.1967
M15
G01X3.8681Y-4.1612
M16
G05
G00X3.9547Y-4.0884
M15
G01X3.9193Y-4.0884
M16
G05
G00X3.9547Y-4.3443
M15
G01X3.9193Y-4.3443
M16
G05
G00X4.0059Y-4.1967
M15
G01X4.0059Y-4.1612
M16
G05
M30
