%TF.GenerationSoftware,KiCad,Pcbnew,7.0.10-7.0.10~ubuntu22.04.1*%
%TF.CreationDate,2024-01-02T10:30:17+00:00*%
%TF.ProjectId,EMG_DAQ_ADS1293,454d475f-4441-4515-9f41-445331323933,1.0*%
%TF.SameCoordinates,Original*%
%TF.FileFunction,Legend,Top*%
%TF.FilePolarity,Positive*%
%FSLAX46Y46*%
G04 Gerber Fmt 4.6, Leading zero omitted, Abs format (unit mm)*
G04 Created by KiCad (PCBNEW 7.0.10-7.0.10~ubuntu22.04.1) date 2024-01-02 10:30:17*
%MOMM*%
%LPD*%
G01*
G04 APERTURE LIST*
G04 Aperture macros list*
%AMRoundRect*
0 Rectangle with rounded corners*
0 $1 Rounding radius*
0 $2 $3 $4 $5 $6 $7 $8 $9 X,Y pos of 4 corners*
0 Add a 4 corners polygon primitive as box body*
4,1,4,$2,$3,$4,$5,$6,$7,$8,$9,$2,$3,0*
0 Add four circle primitives for the rounded corners*
1,1,$1+$1,$2,$3*
1,1,$1+$1,$4,$5*
1,1,$1+$1,$6,$7*
1,1,$1+$1,$8,$9*
0 Add four rect primitives between the rounded corners*
20,1,$1+$1,$2,$3,$4,$5,0*
20,1,$1+$1,$4,$5,$6,$7,0*
20,1,$1+$1,$6,$7,$8,$9,0*
20,1,$1+$1,$8,$9,$2,$3,0*%
G04 Aperture macros list end*
%ADD10C,0.120000*%
%ADD11C,0.500000*%
%ADD12C,0.127000*%
%ADD13C,0.200000*%
%ADD14C,0.100000*%
%ADD15R,1.000000X1.000000*%
%ADD16RoundRect,0.140000X0.140000X0.170000X-0.140000X0.170000X-0.140000X-0.170000X0.140000X-0.170000X0*%
%ADD17RoundRect,0.140000X-0.140000X-0.170000X0.140000X-0.170000X0.140000X0.170000X-0.140000X0.170000X0*%
%ADD18RoundRect,0.140000X0.170000X-0.140000X0.170000X0.140000X-0.170000X0.140000X-0.170000X-0.140000X0*%
%ADD19R,0.250000X0.600000*%
%ADD20R,0.600000X0.250000*%
%ADD21RoundRect,0.080400X0.321600X0.696600X-0.321600X0.696600X-0.321600X-0.696600X0.321600X-0.696600X0*%
%ADD22RoundRect,0.140000X-0.170000X0.140000X-0.170000X-0.140000X0.170000X-0.140000X0.170000X0.140000X0*%
G04 APERTURE END LIST*
D10*
%TO.C,J3*%
X27206000Y-39365000D02*
X26444000Y-39365000D01*
X27206000Y-40635000D02*
X26444000Y-40635000D01*
%TO.C,C8*%
X25207836Y-38193000D02*
X24992164Y-38193000D01*
X25207836Y-37473000D02*
X24992164Y-37473000D01*
%TO.C,R1*%
X35007836Y-38149500D02*
X34792164Y-38149500D01*
X35007836Y-37429500D02*
X34792164Y-37429500D01*
%TO.C,J1*%
X28476000Y-29365000D02*
X27714000Y-29365000D01*
X28476000Y-30635000D02*
X27714000Y-30635000D01*
%TO.C,J2*%
X25936000Y-39365000D02*
X25174000Y-39365000D01*
X25936000Y-40635000D02*
X25174000Y-40635000D01*
%TO.C,J9*%
X28984000Y-30635000D02*
X29746000Y-30635000D01*
X28984000Y-29365000D02*
X29746000Y-29365000D01*
%TO.C,J15*%
X33556000Y-39365000D02*
X32794000Y-39365000D01*
X33556000Y-40635000D02*
X32794000Y-40635000D01*
%TO.C,J7*%
X34064000Y-30635000D02*
X34826000Y-30635000D01*
X34064000Y-29365000D02*
X34826000Y-29365000D01*
%TO.C,C4*%
X27202664Y-33440000D02*
X27418336Y-33440000D01*
X27202664Y-34160000D02*
X27418336Y-34160000D01*
%TO.C,C1*%
X27340000Y-37057836D02*
X27340000Y-36842164D01*
X28060000Y-37057836D02*
X28060000Y-36842164D01*
%TO.C,U1*%
X28560500Y-37839500D02*
X29260500Y-37839500D01*
X32960500Y-37839500D02*
X33660500Y-37839500D01*
X33660500Y-37839500D02*
X33660500Y-37139500D01*
X28560500Y-37139500D02*
X28560500Y-37839500D01*
X33660500Y-33439500D02*
X33660500Y-32739500D01*
X28560500Y-32739500D02*
X28560500Y-33439500D01*
X29260500Y-32739500D02*
X28560500Y-32739500D01*
X33660500Y-32739500D02*
X32960500Y-32739500D01*
D11*
X28810500Y-37839500D02*
G75*
G03*
X28310500Y-37839500I-250000J0D01*
G01*
X28310500Y-37839500D02*
G75*
G03*
X28810500Y-37839500I250000J0D01*
G01*
D10*
%TO.C,C7*%
X34992164Y-34440000D02*
X35207836Y-34440000D01*
X34992164Y-35160000D02*
X35207836Y-35160000D01*
%TO.C,C9*%
X23992164Y-32140000D02*
X24207836Y-32140000D01*
X23992164Y-32860000D02*
X24207836Y-32860000D01*
%TO.C,C5*%
X27418336Y-33160000D02*
X27202664Y-33160000D01*
X27418336Y-32440000D02*
X27202664Y-32440000D01*
D12*
%TO.C,U2*%
X26050000Y-34350000D02*
X25950000Y-34350000D01*
X22950000Y-34350000D02*
X23050000Y-34350000D01*
X26050000Y-36050000D02*
X26050000Y-34350000D01*
X26050000Y-36050000D02*
X25950000Y-36050000D01*
X22950000Y-36050000D02*
X22950000Y-34350000D01*
X22950000Y-36050000D02*
X23050000Y-36050000D01*
D13*
X25550000Y-32731000D02*
G75*
G03*
X25350000Y-32731000I-100000J0D01*
G01*
X25350000Y-32731000D02*
G75*
G03*
X25550000Y-32731000I100000J0D01*
G01*
D10*
%TO.C,J5*%
X29746000Y-39365000D02*
X28984000Y-39365000D01*
X29746000Y-40635000D02*
X28984000Y-40635000D01*
%TO.C,J4*%
X28476000Y-39365000D02*
X27714000Y-39365000D01*
X28476000Y-40635000D02*
X27714000Y-40635000D01*
%TO.C,J10*%
X30254000Y-30635000D02*
X31016000Y-30635000D01*
X30254000Y-29365000D02*
X31016000Y-29365000D01*
%TO.C,C2*%
X26960000Y-37192164D02*
X26960000Y-37407836D01*
X26240000Y-37192164D02*
X26240000Y-37407836D01*
%TO.C,J14*%
X27206000Y-29365000D02*
X26444000Y-29365000D01*
X27206000Y-30635000D02*
X26444000Y-30635000D01*
%TO.C,kibuzzard-658D7E24*%
G36*
X30814167Y-31669453D02*
G01*
X30666371Y-31669453D01*
X30739713Y-31517212D01*
X30814167Y-31669453D01*
G37*
G36*
X32867757Y-31669453D02*
G01*
X32719961Y-31669453D01*
X32793303Y-31517212D01*
X32867757Y-31669453D01*
G37*
G36*
X36155946Y-31387196D02*
G01*
X36167614Y-31412199D01*
X36170392Y-31444425D01*
X36147611Y-31485541D01*
X36081492Y-31506099D01*
X36018706Y-31483874D01*
X35999260Y-31436091D01*
X36020651Y-31380250D01*
X36084826Y-31361637D01*
X36155946Y-31387196D01*
G37*
G36*
X29959755Y-31404559D02*
G01*
X30027958Y-31449981D01*
X30075047Y-31517906D01*
X30090743Y-31600556D01*
X30074630Y-31682927D01*
X30026291Y-31750019D01*
X29957949Y-31794608D01*
X29881828Y-31809471D01*
X29774037Y-31809471D01*
X29774037Y-31389418D01*
X29880717Y-31389418D01*
X29959755Y-31404559D01*
G37*
G36*
X33645771Y-31404559D02*
G01*
X33713974Y-31449981D01*
X33761063Y-31517906D01*
X33776760Y-31600556D01*
X33760646Y-31682927D01*
X33712307Y-31750019D01*
X33643965Y-31794608D01*
X33567845Y-31809471D01*
X33460053Y-31809471D01*
X33460053Y-31389418D01*
X33566733Y-31389418D01*
X33645771Y-31404559D01*
G37*
G36*
X31670524Y-31394697D02*
G01*
X31738171Y-31440536D01*
X31773670Y-31485726D01*
X31794969Y-31539807D01*
X31802068Y-31602778D01*
X31795030Y-31665625D01*
X31773917Y-31719336D01*
X31738727Y-31763909D01*
X31671496Y-31808915D01*
X31596487Y-31823917D01*
X31521339Y-31808498D01*
X31453691Y-31762243D01*
X31418193Y-31716990D01*
X31396894Y-31663465D01*
X31389795Y-31601667D01*
X31396832Y-31539869D01*
X31417946Y-31486344D01*
X31453136Y-31441091D01*
X31520366Y-31394835D01*
X31595376Y-31379417D01*
X31670524Y-31394697D01*
G37*
G36*
X37418696Y-32392136D02*
G01*
X37048280Y-32392136D01*
X36736018Y-32392136D01*
X35924806Y-32392136D01*
X35661440Y-32392136D01*
X34958018Y-32392136D01*
X34324606Y-32392136D01*
X33564511Y-32392136D01*
X33078339Y-32392136D01*
X31602043Y-32392136D01*
X31024749Y-32392136D01*
X29878495Y-32392136D01*
X28896150Y-32392136D01*
X28318300Y-32392136D01*
X27364847Y-32392136D01*
X26827002Y-32392136D01*
X26456585Y-32392136D01*
X25981304Y-32392136D01*
X26126433Y-31908372D01*
X26827002Y-31908372D01*
X26833670Y-31965046D01*
X26863118Y-31996716D01*
X26924792Y-32007273D01*
X27364847Y-32007273D01*
X27422632Y-32000606D01*
X27453469Y-31971158D01*
X27463748Y-31909483D01*
X27463457Y-31907261D01*
X27535980Y-31907261D01*
X27537646Y-31947266D01*
X27548203Y-31976158D01*
X27577651Y-31998661D01*
X27632658Y-32006162D01*
X27689332Y-31998661D01*
X27719336Y-31976158D01*
X27729893Y-31947821D01*
X27731560Y-31909483D01*
X27731560Y-31534992D01*
X27752118Y-31562634D01*
X27802680Y-31632226D01*
X27857409Y-31707097D01*
X27890468Y-31750574D01*
X27899358Y-31762798D01*
X27928806Y-31785579D01*
X27974368Y-31797247D01*
X28021040Y-31784468D01*
X28048266Y-31764465D01*
X28068268Y-31738351D01*
X28092438Y-31705430D01*
X28136055Y-31644450D01*
X28183005Y-31579581D01*
X28217176Y-31534992D01*
X28217176Y-31907261D01*
X28222732Y-31965046D01*
X28238290Y-31987271D01*
X28267182Y-32000606D01*
X28318300Y-32006162D01*
X28371640Y-31999494D01*
X28403310Y-31970324D01*
X28413867Y-31909483D01*
X28413867Y-31591666D01*
X28486098Y-31591666D01*
X28493738Y-31676780D01*
X28516658Y-31755436D01*
X28554857Y-31827633D01*
X28608336Y-31893370D01*
X28672163Y-31948064D01*
X28741408Y-31987132D01*
X28816070Y-32010572D01*
X28896150Y-32018386D01*
X28983661Y-32012343D01*
X29059503Y-31994216D01*
X29123678Y-31964004D01*
X29176185Y-31921707D01*
X29182816Y-31907261D01*
X29577346Y-31907261D01*
X29590681Y-31978381D01*
X29620129Y-31999217D01*
X29675136Y-32006162D01*
X29878495Y-32006162D01*
X29960345Y-31998591D01*
X30035875Y-31975880D01*
X30105085Y-31938028D01*
X30117861Y-31927263D01*
X30331885Y-31927263D01*
X30347998Y-31965046D01*
X30396337Y-31998383D01*
X30455789Y-32017274D01*
X30491349Y-32006718D01*
X30511351Y-31986159D01*
X30528576Y-31953933D01*
X30586361Y-31833918D01*
X30894177Y-31833918D01*
X30951962Y-31953933D01*
X30969186Y-31987271D01*
X30989189Y-32008384D01*
X31024749Y-32018386D01*
X31084201Y-31999494D01*
X31132540Y-31965323D01*
X31148653Y-31927263D01*
X31129762Y-31870589D01*
X31002327Y-31607223D01*
X31193103Y-31607223D01*
X31200500Y-31688761D01*
X31222690Y-31764465D01*
X31259674Y-31834335D01*
X31311451Y-31898371D01*
X31373994Y-31951850D01*
X31443273Y-31990049D01*
X31519290Y-32012968D01*
X31602043Y-32020608D01*
X31685140Y-32011718D01*
X31762557Y-31985048D01*
X31834295Y-31940598D01*
X31874300Y-31967268D01*
X31905415Y-31988382D01*
X31969867Y-32018386D01*
X32004038Y-32006162D01*
X32037653Y-31969491D01*
X32056147Y-31927263D01*
X32385475Y-31927263D01*
X32401588Y-31965046D01*
X32449927Y-31998383D01*
X32509379Y-32017274D01*
X32544939Y-32006718D01*
X32564941Y-31986159D01*
X32582166Y-31953933D01*
X32639951Y-31833918D01*
X32947767Y-31833918D01*
X33005552Y-31953933D01*
X33022776Y-31987271D01*
X33042779Y-32008384D01*
X33078339Y-32018386D01*
X33137791Y-31999494D01*
X33186130Y-31965323D01*
X33202243Y-31927263D01*
X33195576Y-31907261D01*
X33263362Y-31907261D01*
X33276697Y-31978381D01*
X33306145Y-31999217D01*
X33361152Y-32006162D01*
X33564511Y-32006162D01*
X33646361Y-31998591D01*
X33721892Y-31975880D01*
X33791102Y-31938028D01*
X33853991Y-31885036D01*
X33900117Y-31828918D01*
X34029013Y-31828918D01*
X34057906Y-31892814D01*
X34067907Y-31905038D01*
X34100133Y-31938931D01*
X34150140Y-31973936D01*
X34225705Y-32005606D01*
X34273766Y-32015191D01*
X34324606Y-32018386D01*
X34391404Y-32011842D01*
X34455486Y-31992210D01*
X34516852Y-31959489D01*
X34559080Y-31923235D01*
X34592417Y-31874479D01*
X34614086Y-31815166D01*
X34621310Y-31747241D01*
X34614225Y-31680705D01*
X34592973Y-31625559D01*
X34561163Y-31583470D01*
X34522408Y-31556106D01*
X34478236Y-31537631D01*
X34430175Y-31522213D01*
X34382113Y-31510128D01*
X34337941Y-31501654D01*
X34267376Y-31476096D01*
X34254004Y-31452759D01*
X34665760Y-31452759D01*
X34700764Y-31521657D01*
X34767995Y-31560551D01*
X34845782Y-31526102D01*
X34860228Y-31512767D01*
X34860228Y-31909483D01*
X34861895Y-31950044D01*
X34872452Y-31980603D01*
X34902178Y-32002273D01*
X34958018Y-32009496D01*
X35015248Y-32001995D01*
X35044696Y-31979492D01*
X35055253Y-31950044D01*
X35056920Y-31911706D01*
X35056920Y-31909483D01*
X35129151Y-31909483D01*
X35158043Y-31979492D01*
X35226941Y-32009496D01*
X35661440Y-32009496D01*
X35730337Y-31996161D01*
X35754229Y-31967268D01*
X35761452Y-31911150D01*
X35754785Y-31854476D01*
X35728670Y-31822250D01*
X35663662Y-31811693D01*
X35460303Y-31811693D01*
X35460303Y-31806137D01*
X35488085Y-31795024D01*
X35556982Y-31757520D01*
X35634770Y-31696123D01*
X35670885Y-31656118D01*
X35701445Y-31605001D01*
X35722281Y-31546660D01*
X35729226Y-31484986D01*
X35724105Y-31442758D01*
X35805902Y-31442758D01*
X35814607Y-31501469D01*
X35840721Y-31556106D01*
X35884245Y-31606668D01*
X35939869Y-31647105D01*
X36002285Y-31671367D01*
X36071491Y-31679454D01*
X36154835Y-31660563D01*
X36149278Y-31676121D01*
X36127331Y-31715014D01*
X36088160Y-31758353D01*
X36022040Y-31796136D01*
X35933696Y-31811693D01*
X35869243Y-31818361D01*
X35837573Y-31847809D01*
X35827016Y-31909483D01*
X35834795Y-31965879D01*
X35858131Y-31997272D01*
X35918138Y-32008384D01*
X35924806Y-32008384D01*
X36004416Y-32002695D01*
X36077003Y-31985626D01*
X36142566Y-31957178D01*
X36201107Y-31917351D01*
X36252625Y-31866144D01*
X36295830Y-31806448D01*
X36317150Y-31765021D01*
X36428202Y-31765021D01*
X36440426Y-31825028D01*
X36442648Y-31836141D01*
X36454872Y-31865033D01*
X36482376Y-31909205D01*
X36513768Y-31943932D01*
X36577974Y-31987147D01*
X36652057Y-32013076D01*
X36736018Y-32021719D01*
X36820597Y-32013138D01*
X36895051Y-31987394D01*
X36959380Y-31944488D01*
X37008768Y-31888369D01*
X37038402Y-31822991D01*
X37048280Y-31748352D01*
X37039112Y-31691678D01*
X37011608Y-31641672D01*
X36976604Y-31605556D01*
X36943822Y-31581664D01*
X36943822Y-31573886D01*
X36991976Y-31539005D01*
X37020869Y-31492147D01*
X37030500Y-31433313D01*
X37021733Y-31370650D01*
X36995433Y-31312310D01*
X36951601Y-31258291D01*
X36892581Y-31215075D01*
X36820720Y-31189146D01*
X36736018Y-31180503D01*
X36680873Y-31184393D01*
X36631005Y-31196061D01*
X36557663Y-31230509D01*
X36511546Y-31274404D01*
X36487098Y-31309408D01*
X36461540Y-31384973D01*
X36475430Y-31424700D01*
X36517102Y-31459427D01*
X36578221Y-31479429D01*
X36620448Y-31465539D01*
X36651563Y-31423867D01*
X36658231Y-31410532D01*
X36687123Y-31383862D01*
X36749909Y-31370527D01*
X36811583Y-31391641D01*
X36833808Y-31436091D01*
X36812695Y-31468595D01*
X36749353Y-31479429D01*
X36691568Y-31484986D01*
X36660731Y-31515267D01*
X36650452Y-31577219D01*
X36657953Y-31634171D01*
X36680456Y-31662786D01*
X36709348Y-31673898D01*
X36759910Y-31676121D01*
X36824363Y-31698901D01*
X36851588Y-31751686D01*
X36823807Y-31805581D01*
X36788247Y-31823500D01*
X36737130Y-31829473D01*
X36690457Y-31822806D01*
X36629338Y-31769466D01*
X36596001Y-31711681D01*
X36537105Y-31700568D01*
X36455428Y-31716681D01*
X36428202Y-31765021D01*
X36317150Y-31765021D01*
X36329434Y-31741151D01*
X36353437Y-31670253D01*
X36367839Y-31593755D01*
X36372640Y-31511656D01*
X36364490Y-31419854D01*
X36340043Y-31340029D01*
X36299297Y-31272181D01*
X36242376Y-31220632D01*
X36169404Y-31189702D01*
X36080381Y-31179392D01*
X36007903Y-31187788D01*
X35943080Y-31212976D01*
X35885912Y-31254957D01*
X35841462Y-31309408D01*
X35814792Y-31372009D01*
X35805902Y-31442758D01*
X35724105Y-31442758D01*
X35719965Y-31408618D01*
X35692184Y-31338054D01*
X35645882Y-31273293D01*
X35584702Y-31221743D01*
X35512285Y-31190813D01*
X35428633Y-31180503D01*
X35345042Y-31190690D01*
X35272811Y-31221249D01*
X35211939Y-31272181D01*
X35165946Y-31335955D01*
X35138349Y-31405037D01*
X35129151Y-31479429D01*
X35134707Y-31536103D01*
X35164989Y-31567774D01*
X35226941Y-31578331D01*
X35283615Y-31571663D01*
X35313618Y-31551661D01*
X35324175Y-31523879D01*
X35325842Y-31487208D01*
X35325842Y-31480541D01*
X35330287Y-31454982D01*
X35359735Y-31403309D01*
X35421410Y-31377194D01*
X35476972Y-31387196D01*
X35506420Y-31408865D01*
X35523645Y-31438869D01*
X35531423Y-31467206D01*
X35521005Y-31515823D01*
X35489751Y-31561662D01*
X35443773Y-31603750D01*
X35389183Y-31641116D01*
X35330287Y-31676398D01*
X35271391Y-31712236D01*
X35216801Y-31751963D01*
X35170823Y-31798914D01*
X35139569Y-31851837D01*
X35129151Y-31909483D01*
X35056920Y-31909483D01*
X35056920Y-31292739D01*
X35051363Y-31233843D01*
X35035806Y-31209951D01*
X35006913Y-31197172D01*
X34954129Y-31191616D01*
X34891343Y-31220508D01*
X34888010Y-31222731D01*
X34705765Y-31387196D01*
X34665760Y-31452759D01*
X34254004Y-31452759D01*
X34239040Y-31426645D01*
X34262931Y-31378861D01*
X34322939Y-31361637D01*
X34382391Y-31376083D01*
X34399615Y-31390529D01*
X34412395Y-31401642D01*
X34470180Y-31423867D01*
X34509629Y-31409976D01*
X34547967Y-31368304D01*
X34574637Y-31307186D01*
X34540188Y-31252734D01*
X34512407Y-31231621D01*
X34436286Y-31196616D01*
X34378363Y-31183698D01*
X34314605Y-31179392D01*
X34236755Y-31187479D01*
X34170636Y-31211742D01*
X34116246Y-31252179D01*
X34075809Y-31303481D01*
X34051547Y-31360340D01*
X34043460Y-31422756D01*
X34050544Y-31488736D01*
X34071796Y-31544438D01*
X34103606Y-31588193D01*
X34142361Y-31618336D01*
X34186255Y-31640144D01*
X34233483Y-31658896D01*
X34280711Y-31673759D01*
X34324606Y-31683899D01*
X34395170Y-31708903D01*
X34423507Y-31751686D01*
X34412024Y-31798605D01*
X34377575Y-31826757D01*
X34320161Y-31836141D01*
X34266821Y-31818916D01*
X34222371Y-31782801D01*
X34172920Y-31741129D01*
X34135693Y-31727238D01*
X34076797Y-31753908D01*
X34040959Y-31795997D01*
X34029013Y-31828918D01*
X33900117Y-31828918D01*
X33906255Y-31821451D01*
X33943586Y-31751825D01*
X33965985Y-31676155D01*
X33973451Y-31594444D01*
X33965811Y-31513045D01*
X33942891Y-31438313D01*
X33904692Y-31370249D01*
X33851213Y-31308853D01*
X33787664Y-31258048D01*
X33719252Y-31221758D01*
X33645979Y-31199985D01*
X33567845Y-31192727D01*
X33362263Y-31191616D01*
X33305034Y-31199117D01*
X33275586Y-31221619D01*
X33265029Y-31250512D01*
X33263362Y-31289406D01*
X33263362Y-31907261D01*
X33195576Y-31907261D01*
X33183352Y-31870589D01*
X32883315Y-31250512D01*
X32846643Y-31207173D01*
X32794415Y-31192727D01*
X32741630Y-31208284D01*
X32704403Y-31249401D01*
X32404366Y-31870589D01*
X32385475Y-31927263D01*
X32056147Y-31927263D01*
X32070991Y-31893370D01*
X32030986Y-31836141D01*
X31957643Y-31786134D01*
X31980486Y-31725263D01*
X31994191Y-31664144D01*
X31998760Y-31602778D01*
X31991189Y-31515614D01*
X31968478Y-31436368D01*
X31930626Y-31365040D01*
X31877633Y-31301629D01*
X31814362Y-31249609D01*
X31745672Y-31212452D01*
X31671566Y-31190157D01*
X31592042Y-31182726D01*
X31516477Y-31190504D01*
X31443135Y-31213841D01*
X31375071Y-31250790D01*
X31315341Y-31299407D01*
X31265335Y-31360387D01*
X31226441Y-31434424D01*
X31201438Y-31517906D01*
X31193103Y-31607223D01*
X31002327Y-31607223D01*
X30829725Y-31250512D01*
X30793053Y-31207173D01*
X30740825Y-31192727D01*
X30688040Y-31208284D01*
X30650813Y-31249401D01*
X30350776Y-31870589D01*
X30331885Y-31927263D01*
X30117861Y-31927263D01*
X30167975Y-31885036D01*
X30220239Y-31821451D01*
X30257570Y-31751825D01*
X30279968Y-31676155D01*
X30287435Y-31594444D01*
X30279795Y-31513045D01*
X30256875Y-31438313D01*
X30218676Y-31370249D01*
X30165197Y-31308853D01*
X30101647Y-31258048D01*
X30033236Y-31221758D01*
X29959963Y-31199985D01*
X29881828Y-31192727D01*
X29676247Y-31191616D01*
X29619018Y-31199117D01*
X29589570Y-31221619D01*
X29579013Y-31250512D01*
X29577346Y-31289406D01*
X29577346Y-31907261D01*
X29182816Y-31907261D01*
X29207300Y-31853921D01*
X29207300Y-31609446D01*
X29196187Y-31547216D01*
X29122845Y-31516101D01*
X28927265Y-31516101D01*
X28873925Y-31526102D01*
X28855589Y-31550549D01*
X28850588Y-31597778D01*
X28855033Y-31644450D01*
X28873925Y-31670564D01*
X28922820Y-31679454D01*
X29010608Y-31679454D01*
X29010608Y-31800581D01*
X28958657Y-31815583D01*
X28900595Y-31820583D01*
X28820585Y-31803775D01*
X28749465Y-31753353D01*
X28712423Y-31705322D01*
X28690198Y-31650871D01*
X28682790Y-31589999D01*
X28699181Y-31503043D01*
X28748353Y-31434424D01*
X28818640Y-31389835D01*
X28898372Y-31374972D01*
X28958380Y-31382612D01*
X29009497Y-31405531D01*
X29077283Y-31436091D01*
X29114788Y-31421367D01*
X29156182Y-31377194D01*
X29181741Y-31314409D01*
X29151737Y-31264958D01*
X29072344Y-31216804D01*
X28989742Y-31187911D01*
X28903928Y-31178281D01*
X28822251Y-31185677D01*
X28746131Y-31207868D01*
X28675566Y-31244851D01*
X28610558Y-31296629D01*
X28556107Y-31359449D01*
X28517213Y-31429562D01*
X28493877Y-31506968D01*
X28486098Y-31591666D01*
X28413867Y-31591666D01*
X28413867Y-31292739D01*
X28412200Y-31253846D01*
X28401643Y-31223842D01*
X28372334Y-31201339D01*
X28315521Y-31193838D01*
X28257875Y-31201339D01*
X28226066Y-31223842D01*
X28195706Y-31262647D01*
X28155301Y-31315053D01*
X28104851Y-31381062D01*
X28044354Y-31460671D01*
X27973812Y-31553883D01*
X27721558Y-31222731D01*
X27714891Y-31216063D01*
X27686554Y-31201061D01*
X27634881Y-31193838D01*
X27578207Y-31201061D01*
X27548203Y-31222731D01*
X27537646Y-31252179D01*
X27535980Y-31290517D01*
X27535980Y-31907261D01*
X27463457Y-31907261D01*
X27456247Y-31852254D01*
X27433745Y-31822806D01*
X27404296Y-31812249D01*
X27365958Y-31810582D01*
X27023693Y-31810582D01*
X27023693Y-31698346D01*
X27241498Y-31698346D01*
X27299283Y-31691678D01*
X27330954Y-31662230D01*
X27341511Y-31600556D01*
X27334010Y-31543326D01*
X27311507Y-31513878D01*
X27282059Y-31503321D01*
X27243721Y-31501654D01*
X27023693Y-31501654D01*
X27023693Y-31389418D01*
X27364847Y-31389418D01*
X27422632Y-31382751D01*
X27453469Y-31353303D01*
X27463748Y-31291628D01*
X27456247Y-31234399D01*
X27433745Y-31204951D01*
X27404296Y-31194394D01*
X27365958Y-31192727D01*
X26928126Y-31192727D01*
X26848116Y-31213285D01*
X26827002Y-31290517D01*
X26827002Y-31908372D01*
X26126433Y-31908372D01*
X26456585Y-30807864D01*
X26827002Y-30807864D01*
X37048280Y-30807864D01*
X37418696Y-30807864D01*
X37418696Y-32392136D01*
G37*
%TO.C,C3*%
X27222664Y-34940000D02*
X27438336Y-34940000D01*
X27222664Y-35660000D02*
X27438336Y-35660000D01*
%TO.C,J8*%
X32286000Y-39365000D02*
X31524000Y-39365000D01*
X32286000Y-40635000D02*
X31524000Y-40635000D01*
%TO.C,J12*%
X33556000Y-29365000D02*
X32794000Y-29365000D01*
X33556000Y-30635000D02*
X32794000Y-30635000D01*
%TO.C,C6*%
X34970500Y-36181664D02*
X34970500Y-36397336D01*
X34250500Y-36181664D02*
X34250500Y-36397336D01*
%TO.C,R2*%
X35970500Y-36181664D02*
X35970500Y-36397336D01*
X35250500Y-36181664D02*
X35250500Y-36397336D01*
%TO.C,J16*%
X34064000Y-40635000D02*
X34826000Y-40635000D01*
X34064000Y-39365000D02*
X34826000Y-39365000D01*
%TO.C,J6*%
X31016000Y-39365000D02*
X30254000Y-39365000D01*
X31016000Y-40635000D02*
X30254000Y-40635000D01*
%TO.C,J11*%
X31524000Y-30635000D02*
X32286000Y-30635000D01*
X31524000Y-29365000D02*
X32286000Y-29365000D01*
%TO.C,J13*%
X25936000Y-29365000D02*
X25174000Y-29365000D01*
X25936000Y-30635000D02*
X25174000Y-30635000D01*
%TD*%
%LPC*%
%TO.C,U1*%
D14*
X32974000Y-37153000D02*
X29247000Y-37153000D01*
X29247000Y-33426600D01*
X32974000Y-33426600D01*
X32974000Y-37153000D01*
G36*
X32974000Y-37153000D02*
G01*
X29247000Y-37153000D01*
X29247000Y-33426600D01*
X32974000Y-33426600D01*
X32974000Y-37153000D01*
G37*
%TD*%
D15*
%TO.C,J3*%
X26825000Y-40000000D03*
%TD*%
D16*
%TO.C,C8*%
X25580000Y-37833000D03*
X24620000Y-37833000D03*
%TD*%
%TO.C,R1*%
X35380000Y-37789500D03*
X34420000Y-37789500D03*
%TD*%
D15*
%TO.C,J1*%
X28095000Y-30000000D03*
%TD*%
%TO.C,J2*%
X25555000Y-40000000D03*
%TD*%
%TO.C,J9*%
X29365000Y-30000000D03*
%TD*%
%TO.C,J15*%
X33175000Y-40000000D03*
%TD*%
%TO.C,J7*%
X34445000Y-30000000D03*
%TD*%
D17*
%TO.C,C4*%
X26830500Y-33800000D03*
X27790500Y-33800000D03*
%TD*%
D18*
%TO.C,C1*%
X27700000Y-37430000D03*
X27700000Y-36470000D03*
%TD*%
D19*
%TO.C,U1*%
X29610500Y-37689500D03*
X30110499Y-37689500D03*
X30610501Y-37689500D03*
X31110500Y-37689500D03*
X31610499Y-37689500D03*
X32110501Y-37689500D03*
X32610500Y-37689500D03*
D20*
X33510500Y-36789500D03*
X33510500Y-36289501D03*
X33510500Y-35789499D03*
X33510500Y-35289500D03*
X33510500Y-34789501D03*
X33510500Y-34289499D03*
X33510500Y-33789500D03*
D19*
X32610500Y-32889500D03*
X32110501Y-32889500D03*
X31610499Y-32889500D03*
X31110500Y-32889500D03*
X30610501Y-32889500D03*
X30110499Y-32889500D03*
X29610500Y-32889500D03*
D20*
X28710500Y-33789500D03*
X28710500Y-34289499D03*
X28710500Y-34789501D03*
X28710500Y-35289500D03*
X28710500Y-35789499D03*
X28710500Y-36289501D03*
X28710500Y-36789500D03*
%TD*%
D17*
%TO.C,C7*%
X34620000Y-34800000D03*
X35580000Y-34800000D03*
%TD*%
%TO.C,C9*%
X23620000Y-32500000D03*
X24580000Y-32500000D03*
%TD*%
D16*
%TO.C,C5*%
X27790500Y-32800000D03*
X26830500Y-32800000D03*
%TD*%
D21*
%TO.C,U2*%
X25450000Y-34015000D03*
X24500000Y-34015000D03*
X23550000Y-34015000D03*
X23550000Y-36385000D03*
X25450000Y-36385000D03*
%TD*%
D15*
%TO.C,J5*%
X29365000Y-40000000D03*
%TD*%
%TO.C,J4*%
X28095000Y-40000000D03*
%TD*%
%TO.C,J10*%
X30635000Y-30000000D03*
%TD*%
D22*
%TO.C,C2*%
X26600000Y-36820000D03*
X26600000Y-37780000D03*
%TD*%
D15*
%TO.C,J14*%
X26825000Y-30000000D03*
%TD*%
D17*
%TO.C,C3*%
X26850500Y-35300000D03*
X27810500Y-35300000D03*
%TD*%
D15*
%TO.C,J8*%
X31905000Y-40000000D03*
%TD*%
%TO.C,J12*%
X33175000Y-30000000D03*
%TD*%
D22*
%TO.C,C6*%
X34610500Y-35809500D03*
X34610500Y-36769500D03*
%TD*%
%TO.C,R2*%
X35610500Y-35809500D03*
X35610500Y-36769500D03*
%TD*%
D15*
%TO.C,J16*%
X34445000Y-40000000D03*
%TD*%
%TO.C,J6*%
X30635000Y-40000000D03*
%TD*%
%TO.C,J11*%
X31905000Y-30000000D03*
%TD*%
%TO.C,J13*%
X25555000Y-30000000D03*
%TD*%
%LPD*%
M02*
