M48
; DRILL file {KiCad 7.0.10-7.0.10~ubuntu22.04.1} date Tue 02 Jan 2024 10:30:17 GMT
; FORMAT={-:-/ absolute / inch / decimal}
; #@! TF.CreationDate,2024-01-02T10:30:17+00:00
; #@! TF.GenerationSoftware,Kicad,Pcbnew,7.0.10-7.0.10~ubuntu22.04.1
; #@! TF.FileFunction,Plated,1,4,PTH
FMAT,2
INCH
; #@! TA.AperFunction,Plated,PTH,ViaDrill
T1C0.0118
; #@! TA.AperFunction,Plated,PTH,ComponentDrill
T2C0.0256
%
G90
G05
T1
X0.9693Y-1.4047
X1.0197Y-1.2795
X1.0925Y-1.3642
X1.122Y-1.3022
X1.315Y-1.5039
T2
X1.0061Y-1.1811
X1.0061Y-1.5748
X1.0561Y-1.1811
X1.0561Y-1.5748
X1.1061Y-1.1811
X1.1061Y-1.5748
X1.1561Y-1.1811
X1.1561Y-1.5748
X1.2061Y-1.1811
X1.2061Y-1.5748
X1.2561Y-1.1811
X1.2561Y-1.5748
X1.3061Y-1.1811
X1.3061Y-1.5748
X1.3561Y-1.1811
X1.3561Y-1.5748
M30
