M48
; DRILL file {KiCad 8.0.1-8.0.1-1~ubuntu22.04.1} date 2024-03-30T15:28:00+0000
; FORMAT={-:-/ absolute / inch / decimal}
; #@! TF.CreationDate,2024-03-30T15:28:00+00:00
; #@! TF.GenerationSoftware,Kicad,Pcbnew,8.0.1-8.0.1-1~ubuntu22.04.1
; #@! TF.FileFunction,Plated,1,4,PTH
FMAT,2
INCH
; #@! TA.AperFunction,Plated,PTH,ViaDrill
T1C0.0118
; #@! TA.AperFunction,Plated,PTH,ComponentDrill
T2C0.0256
%
G90
G05
T1
X0.9213Y-1.2165
X0.9331Y-1.2638
X0.9528Y-1.5433
X0.9764Y-1.3386
X1.063Y-1.4685
X1.1063Y-1.4016
X1.1457Y-1.2323
X1.1575Y-1.5079
X1.1654Y-1.311
X1.1654Y-1.3425
X1.1969Y-1.3425
X1.1969Y-1.4872
X1.2008Y-1.311
X1.2047Y-1.2165
X1.2441Y-1.2638
X1.2698Y-1.3603
X1.311Y-1.2795
X1.3228Y-1.3543
X1.3622Y-1.2402
X1.3661Y-1.5394
X1.4094Y-1.3425
X1.4134Y-1.2362
X1.4331Y-1.2992
X1.4331Y-1.5433
X1.4567Y-1.2087
T2
X1.0061Y-1.1811
X1.0561Y-1.1811
X1.1061Y-1.1811
X1.1561Y-1.1811
X1.2061Y-1.1811
X1.24Y-1.437
X1.24Y-1.487
X1.2561Y-1.1811
X1.29Y-1.437
X1.29Y-1.487
X1.3061Y-1.1811
X1.34Y-1.437
X1.34Y-1.487
X1.3561Y-1.1811
X1.39Y-1.437
X1.39Y-1.487
X1.44Y-1.437
X1.44Y-1.487
M30
