%TF.GenerationSoftware,KiCad,Pcbnew,8.0.1-8.0.1-1~ubuntu22.04.1*%
%TF.CreationDate,2024-03-28T23:16:25+00:00*%
%TF.ProjectId,IMU_ICM2094,494d555f-4943-44d3-9230-39342e6b6963,1.0*%
%TF.SameCoordinates,Original*%
%TF.FileFunction,Soldermask,Top*%
%TF.FilePolarity,Negative*%
%FSLAX46Y46*%
G04 Gerber Fmt 4.6, Leading zero omitted, Abs format (unit mm)*
G04 Created by KiCad (PCBNEW 8.0.1-8.0.1-1~ubuntu22.04.1) date 2024-03-28 23:16:25*
%MOMM*%
%LPD*%
G01*
G04 APERTURE LIST*
G04 Aperture macros list*
%AMRoundRect*
0 Rectangle with rounded corners*
0 $1 Rounding radius*
0 $2 $3 $4 $5 $6 $7 $8 $9 X,Y pos of 4 corners*
0 Add a 4 corners polygon primitive as box body*
4,1,4,$2,$3,$4,$5,$6,$7,$8,$9,$2,$3,0*
0 Add four circle primitives for the rounded corners*
1,1,$1+$1,$2,$3*
1,1,$1+$1,$4,$5*
1,1,$1+$1,$6,$7*
1,1,$1+$1,$8,$9*
0 Add four rect primitives between the rounded corners*
20,1,$1+$1,$2,$3,$4,$5,0*
20,1,$1+$1,$4,$5,$6,$7,0*
20,1,$1+$1,$6,$7,$8,$9,0*
20,1,$1+$1,$8,$9,$2,$3,0*%
%AMFreePoly0*
4,1,14,0.088284,0.363284,0.100000,0.335000,0.100000,-0.335000,0.088284,-0.363284,0.060000,-0.375000,0.036569,-0.375000,0.008285,-0.363284,-0.088284,-0.266715,-0.100000,-0.238431,-0.100000,0.335000,-0.088284,0.363284,-0.060000,0.375000,0.060000,0.375000,0.088284,0.363284,0.088284,0.363284,$1*%
%AMFreePoly1*
4,1,14,0.088284,0.363284,0.100000,0.335000,0.100000,-0.238431,0.088284,-0.266715,-0.008285,-0.363284,-0.036569,-0.375000,-0.060000,-0.375000,-0.088284,-0.363284,-0.100000,-0.335000,-0.100000,0.335000,-0.088284,0.363284,-0.060000,0.375000,0.060000,0.375000,0.088284,0.363284,0.088284,0.363284,$1*%
%AMFreePoly2*
4,1,14,0.363284,0.088284,0.375000,0.060000,0.375000,-0.060000,0.363284,-0.088284,0.335000,-0.100000,-0.335000,-0.100000,-0.363284,-0.088284,-0.375000,-0.060000,-0.375000,-0.036569,-0.363284,-0.008285,-0.266715,0.088284,-0.238431,0.100000,0.335000,0.100000,0.363284,0.088284,0.363284,0.088284,$1*%
%AMFreePoly3*
4,1,14,0.363284,0.088284,0.375000,0.060000,0.375000,-0.060000,0.363284,-0.088284,0.335000,-0.100000,-0.238431,-0.100000,-0.266715,-0.088284,-0.363284,0.008285,-0.375000,0.036569,-0.375000,0.060000,-0.363284,0.088284,-0.335000,0.100000,0.335000,0.100000,0.363284,0.088284,0.363284,0.088284,$1*%
%AMFreePoly4*
4,1,14,-0.008285,0.363284,0.088284,0.266715,0.100000,0.238431,0.100000,-0.335000,0.088284,-0.363284,0.060000,-0.375000,-0.060000,-0.375000,-0.088284,-0.363284,-0.100000,-0.335000,-0.100000,0.335000,-0.088284,0.363284,-0.060000,0.375000,-0.036569,0.375000,-0.008285,0.363284,-0.008285,0.363284,$1*%
%AMFreePoly5*
4,1,14,0.088284,0.363284,0.100000,0.335000,0.100000,-0.335000,0.088284,-0.363284,0.060000,-0.375000,-0.060000,-0.375000,-0.088284,-0.363284,-0.100000,-0.335000,-0.100000,0.238431,-0.088284,0.266715,0.008285,0.363284,0.036569,0.375000,0.060000,0.375000,0.088284,0.363284,0.088284,0.363284,$1*%
%AMFreePoly6*
4,1,14,0.363284,0.088284,0.375000,0.060000,0.375000,0.036569,0.363284,0.008285,0.266715,-0.088284,0.238431,-0.100000,-0.335000,-0.100000,-0.363284,-0.088284,-0.375000,-0.060000,-0.375000,0.060000,-0.363284,0.088284,-0.335000,0.100000,0.335000,0.100000,0.363284,0.088284,0.363284,0.088284,$1*%
%AMFreePoly7*
4,1,14,0.266715,0.088284,0.363284,-0.008285,0.375000,-0.036569,0.375000,-0.060000,0.363284,-0.088284,0.335000,-0.100000,-0.335000,-0.100000,-0.363284,-0.088284,-0.375000,-0.060000,-0.375000,0.060000,-0.363284,0.088284,-0.335000,0.100000,0.238431,0.100000,0.266715,0.088284,0.266715,0.088284,$1*%
G04 Aperture macros list end*
%ADD10R,1.000000X1.000000*%
%ADD11RoundRect,0.135000X-0.135000X-0.185000X0.135000X-0.185000X0.135000X0.185000X-0.135000X0.185000X0*%
%ADD12RoundRect,0.135000X0.135000X0.185000X-0.135000X0.185000X-0.135000X-0.185000X0.135000X-0.185000X0*%
%ADD13RoundRect,0.140000X-0.140000X-0.170000X0.140000X-0.170000X0.140000X0.170000X-0.140000X0.170000X0*%
%ADD14R,0.920000X0.350000*%
%ADD15R,0.700000X1.250000*%
%ADD16RoundRect,0.140000X0.140000X0.170000X-0.140000X0.170000X-0.140000X-0.170000X0.140000X-0.170000X0*%
%ADD17R,1.750000X1.600000*%
%ADD18FreePoly0,0.000000*%
%ADD19RoundRect,0.050000X-0.050000X-0.325000X0.050000X-0.325000X0.050000X0.325000X-0.050000X0.325000X0*%
%ADD20FreePoly1,0.000000*%
%ADD21FreePoly2,0.000000*%
%ADD22RoundRect,0.050000X-0.325000X-0.050000X0.325000X-0.050000X0.325000X0.050000X-0.325000X0.050000X0*%
%ADD23FreePoly3,0.000000*%
%ADD24FreePoly4,0.000000*%
%ADD25FreePoly5,0.000000*%
%ADD26FreePoly6,0.000000*%
%ADD27FreePoly7,0.000000*%
%ADD28RoundRect,0.135000X-0.185000X0.135000X-0.185000X-0.135000X0.185000X-0.135000X0.185000X0.135000X0*%
%ADD29RoundRect,0.135000X0.185000X-0.135000X0.185000X0.135000X-0.185000X0.135000X-0.185000X-0.135000X0*%
%ADD30R,0.350000X0.920000*%
G04 APERTURE END LIST*
D10*
%TO.C,J18*%
X31495000Y-36500000D03*
%TD*%
%TO.C,J17*%
X32765000Y-37770000D03*
%TD*%
%TO.C,J16*%
X31495000Y-37770000D03*
%TD*%
%TO.C,J15*%
X36575000Y-37770000D03*
%TD*%
%TO.C,J14*%
X35305000Y-37770000D03*
%TD*%
%TO.C,J13*%
X34035000Y-37770000D03*
%TD*%
%TO.C,J12*%
X32765000Y-36500000D03*
%TD*%
%TO.C,J11*%
X34035000Y-36500000D03*
%TD*%
%TO.C,J10*%
X35305000Y-36500000D03*
%TD*%
%TO.C,J9*%
X36575000Y-36500000D03*
%TD*%
%TO.C,J8*%
X34445000Y-30000000D03*
%TD*%
%TO.C,J7*%
X33175000Y-30000000D03*
%TD*%
%TO.C,J6*%
X31905000Y-30000000D03*
%TD*%
%TO.C,J5*%
X30635000Y-30000000D03*
%TD*%
%TO.C,J4*%
X29365000Y-30000000D03*
%TD*%
%TO.C,J3*%
X28095000Y-30000000D03*
%TD*%
%TO.C,J2*%
X26825000Y-30000000D03*
%TD*%
%TO.C,J1*%
X25555000Y-30000000D03*
%TD*%
D11*
%TO.C,R7*%
X28865912Y-38804510D03*
X29885910Y-38804510D03*
%TD*%
D12*
%TO.C,R5*%
X29895910Y-37774510D03*
X28875912Y-37774510D03*
%TD*%
D11*
%TO.C,R1*%
X33924999Y-32000000D03*
X32905001Y-32000000D03*
%TD*%
%TO.C,R3*%
X36324999Y-32000000D03*
X35305001Y-32000000D03*
%TD*%
%TO.C,R8*%
X23940785Y-38522502D03*
X24960783Y-38522502D03*
%TD*%
D13*
%TO.C,C1*%
X26020000Y-31900000D03*
X26980000Y-31900000D03*
%TD*%
D14*
%TO.C,U5*%
X25975784Y-38632501D03*
X25975784Y-37982501D03*
X25975784Y-37332501D03*
X27795784Y-37332501D03*
X27795784Y-37982501D03*
X27795784Y-38632501D03*
%TD*%
D15*
%TO.C,U1*%
X23925000Y-34400000D03*
X25825000Y-34400000D03*
X24875000Y-32400000D03*
%TD*%
D13*
%TO.C,C5*%
X29020000Y-36732010D03*
X29980000Y-36732010D03*
%TD*%
D16*
%TO.C,C2*%
X24865000Y-36070000D03*
X23905000Y-36070000D03*
%TD*%
D17*
%TO.C,U4*%
X30000000Y-33700000D03*
D18*
X29000000Y-32200000D03*
D19*
X29400000Y-32200000D03*
X29800000Y-32200000D03*
X30200000Y-32200000D03*
X30600000Y-32200000D03*
D20*
X31000000Y-32200000D03*
D21*
X31500000Y-32700000D03*
D22*
X31500000Y-33100000D03*
X31500000Y-33500000D03*
X31500000Y-33900000D03*
X31500000Y-34300000D03*
D23*
X31500000Y-34700000D03*
D24*
X31000000Y-35200000D03*
D19*
X30600000Y-35200000D03*
X30200000Y-35200000D03*
X29800000Y-35200000D03*
X29400000Y-35200000D03*
D25*
X29000000Y-35200000D03*
D26*
X28500000Y-34700000D03*
D22*
X28500000Y-34300000D03*
X28500000Y-33900000D03*
X28500000Y-33500000D03*
X28500000Y-33100000D03*
D27*
X28500000Y-32700000D03*
%TD*%
D28*
%TO.C,R4*%
X36415000Y-34909999D03*
X36415000Y-33890001D03*
%TD*%
D11*
%TO.C,R6*%
X23940785Y-37472502D03*
X24960783Y-37472502D03*
%TD*%
D29*
%TO.C,R2*%
X32915000Y-34909999D03*
X32915000Y-33890001D03*
%TD*%
D30*
%TO.C,U3*%
X35365000Y-35010000D03*
X34715000Y-35010000D03*
X34065000Y-35010000D03*
X34065000Y-33190000D03*
X34715000Y-33190000D03*
X35365000Y-33190000D03*
%TD*%
M02*
