%TF.GenerationSoftware,KiCad,Pcbnew,8.0.1-8.0.1-1~ubuntu22.04.1*%
%TF.CreationDate,2024-03-30T15:28:00+00:00*%
%TF.ProjectId,IMU_ICM2094,494d555f-4943-44d3-9230-39342e6b6963,1.0*%
%TF.SameCoordinates,Original*%
%TF.FileFunction,Copper,L4,Bot*%
%TF.FilePolarity,Positive*%
%FSLAX46Y46*%
G04 Gerber Fmt 4.6, Leading zero omitted, Abs format (unit mm)*
G04 Created by KiCad (PCBNEW 8.0.1-8.0.1-1~ubuntu22.04.1) date 2024-03-30 15:28:00*
%MOMM*%
%LPD*%
G01*
G04 APERTURE LIST*
%TA.AperFunction,ComponentPad*%
%ADD10R,1.000000X1.000000*%
%TD*%
%TA.AperFunction,ViaPad*%
%ADD11C,0.400000*%
%TD*%
%TA.AperFunction,Conductor*%
%ADD12C,0.127000*%
%TD*%
G04 APERTURE END LIST*
D10*
%TO.P,J8,1,Pin_1*%
%TO.N,/extRef*%
X34445000Y-30000000D03*
%TD*%
%TO.P,J5,1,Pin_1*%
%TO.N,/MOSI*%
X30635000Y-30000000D03*
%TD*%
%TO.P,J16,1,Pin_1*%
%TO.N,/AIN0*%
X31495000Y-37770000D03*
%TD*%
%TO.P,J1,1,Pin_1*%
%TO.N,+3.3V*%
X25555000Y-30000000D03*
%TD*%
%TO.P,J18,1,Pin_1*%
%TO.N,GND*%
X31495000Y-36500000D03*
%TD*%
%TO.P,J9,1,Pin_1*%
%TO.N,/IO1_out*%
X36575000Y-36500000D03*
%TD*%
%TO.P,J2,1,Pin_1*%
%TO.N,GND*%
X26825000Y-30000000D03*
%TD*%
%TO.P,J7,1,Pin_1*%
%TO.N,unconnected-(J7-Pin_1-Pad1)*%
X33175000Y-30000000D03*
%TD*%
%TO.P,J3,1,Pin_1*%
%TO.N,unconnected-(J3-Pin_1-Pad1)*%
X28095000Y-30000000D03*
%TD*%
%TO.P,J15,1,Pin_1*%
%TO.N,/I2C_SDA*%
X36575000Y-37770000D03*
%TD*%
%TO.P,J10,1,Pin_1*%
%TO.N,/SWDIO{slash}MISO_ARM*%
X35305000Y-36500000D03*
%TD*%
%TO.P,J14,1,Pin_1*%
%TO.N,/i2C_SCL*%
X35305000Y-37770000D03*
%TD*%
%TO.P,J12,1,Pin_1*%
%TO.N,/SCLK_ARM*%
X32765000Y-36500000D03*
%TD*%
%TO.P,J4,1,Pin_1*%
%TO.N,/MISO*%
X29365000Y-30000000D03*
%TD*%
%TO.P,J17,1,Pin_1*%
%TO.N,/CSB*%
X32765000Y-37770000D03*
%TD*%
%TO.P,J6,1,Pin_1*%
%TO.N,/SCLK*%
X31905000Y-30000000D03*
%TD*%
%TO.P,J11,1,Pin_1*%
%TO.N,/MOSI_ARM*%
X34035000Y-36500000D03*
%TD*%
%TO.P,J13,1,Pin_1*%
%TO.N,/SPICS_ARM*%
X34035000Y-37770000D03*
%TD*%
D11*
%TO.N,GND*%
X34700000Y-39100000D03*
X36400000Y-33000000D03*
X29600000Y-33300000D03*
X23400000Y-30900000D03*
X30500000Y-33300000D03*
X24800000Y-34000000D03*
X37000000Y-30700000D03*
X36400000Y-39200000D03*
X23700000Y-32100000D03*
X34600000Y-31500000D03*
X29600000Y-34100000D03*
X30400000Y-34100000D03*
%TO.N,+3.3V*%
X35800000Y-34100000D03*
X24200000Y-39200000D03*
X33300000Y-32500000D03*
X30400000Y-37774510D03*
%TO.N,/MISO*%
X27000000Y-37300000D03*
%TO.N,/1.8V*%
X28100000Y-35600000D03*
X32252501Y-34552501D03*
%TO.N,/SCK_1.8V*%
X35900000Y-31400000D03*
X30600000Y-30900000D03*
%TO.N,/MOSI_1.8V*%
X33600000Y-34400000D03*
X29100000Y-31300000D03*
%TO.N,/CS_1.8V*%
X31600000Y-32100000D03*
X29400000Y-38300000D03*
%TD*%
D12*
%TO.N,+3.3V*%
X30400000Y-35900000D02*
X30800000Y-35500000D01*
X24300000Y-39300000D02*
X24200000Y-39200000D01*
X30400000Y-37774510D02*
X30400000Y-38400000D01*
X30400000Y-37774510D02*
X30400000Y-35900000D01*
X34400000Y-35500000D02*
X35800000Y-34100000D01*
X30800000Y-35500000D02*
X34400000Y-35500000D01*
X34200000Y-32500000D02*
X35800000Y-34100000D01*
X33300000Y-32500000D02*
X34200000Y-32500000D01*
X29500000Y-39300000D02*
X24300000Y-39300000D01*
X30400000Y-38400000D02*
X29500000Y-39300000D01*
%TO.N,/MISO*%
X27000000Y-32365000D02*
X27000000Y-37300000D01*
X29365000Y-30000000D02*
X27000000Y-32365000D01*
%TO.N,/1.8V*%
X31047499Y-34552501D02*
X32252501Y-34552501D01*
X28100000Y-35600000D02*
X30000000Y-35600000D01*
X30000000Y-35600000D02*
X31047499Y-34552501D01*
%TO.N,/SCK_1.8V*%
X30600000Y-30900000D02*
X30700000Y-31000000D01*
X30700000Y-31000000D02*
X35500000Y-31000000D01*
X35500000Y-31000000D02*
X35900000Y-31400000D01*
%TO.N,/MOSI_1.8V*%
X29100000Y-31300000D02*
X29200000Y-31400000D01*
X29200000Y-31400000D02*
X31500000Y-31400000D01*
X33600000Y-33500000D02*
X33600000Y-34400000D01*
X31500000Y-31400000D02*
X33600000Y-33500000D01*
%TO.N,/CS_1.8V*%
X27400000Y-33000000D02*
X28300000Y-32100000D01*
X27400000Y-36300000D02*
X27400000Y-33000000D01*
X28300000Y-32100000D02*
X31600000Y-32100000D01*
X29400000Y-38300000D02*
X27400000Y-36300000D01*
%TD*%
%TA.AperFunction,Conductor*%
%TO.N,GND*%
G36*
X25039905Y-29030185D02*
G01*
X25085660Y-29082989D01*
X25095604Y-29152147D01*
X25066579Y-29215703D01*
X25007801Y-29253477D01*
X24997057Y-29256117D01*
X24957264Y-29264032D01*
X24957260Y-29264033D01*
X24874399Y-29319399D01*
X24819033Y-29402260D01*
X24819032Y-29402264D01*
X24804500Y-29475321D01*
X24804500Y-30524678D01*
X24819032Y-30597735D01*
X24819033Y-30597739D01*
X24819034Y-30597740D01*
X24874399Y-30680601D01*
X24952387Y-30732710D01*
X24957260Y-30735966D01*
X24957264Y-30735967D01*
X25030321Y-30750499D01*
X25030324Y-30750500D01*
X25825874Y-30750500D01*
X25892913Y-30770185D01*
X25925141Y-30800189D01*
X25967809Y-30857186D01*
X25967814Y-30857191D01*
X26082906Y-30943350D01*
X26082913Y-30943354D01*
X26217620Y-30993596D01*
X26217627Y-30993598D01*
X26277155Y-30999999D01*
X26277172Y-31000000D01*
X26575000Y-31000000D01*
X26575000Y-30209618D01*
X26625446Y-30260064D01*
X26699555Y-30302851D01*
X26782213Y-30325000D01*
X26867787Y-30325000D01*
X26950445Y-30302851D01*
X27024554Y-30260064D01*
X27075000Y-30209618D01*
X27075000Y-31000000D01*
X27372828Y-31000000D01*
X27372844Y-30999999D01*
X27432372Y-30993598D01*
X27432379Y-30993596D01*
X27567086Y-30943354D01*
X27567093Y-30943350D01*
X27682185Y-30857191D01*
X27682190Y-30857186D01*
X27724859Y-30800189D01*
X27780793Y-30758318D01*
X27824126Y-30750500D01*
X27871075Y-30750500D01*
X27938114Y-30770185D01*
X27983869Y-30822989D01*
X27993813Y-30892147D01*
X27964788Y-30955703D01*
X27958756Y-30962181D01*
X26748738Y-32172198D01*
X26748734Y-32172203D01*
X26707398Y-32243799D01*
X26707399Y-32243799D01*
X26707399Y-32243801D01*
X26686000Y-32323662D01*
X26686000Y-36928192D01*
X26666315Y-36995231D01*
X26655715Y-37009393D01*
X26617116Y-37053939D01*
X26563302Y-37171774D01*
X26544867Y-37300000D01*
X26563302Y-37428225D01*
X26582262Y-37469741D01*
X26617118Y-37546063D01*
X26701951Y-37643967D01*
X26810931Y-37714004D01*
X26935225Y-37750499D01*
X26935227Y-37750500D01*
X26935228Y-37750500D01*
X27064773Y-37750500D01*
X27064773Y-37750499D01*
X27189069Y-37714004D01*
X27298049Y-37643967D01*
X27382882Y-37546063D01*
X27436697Y-37428226D01*
X27455133Y-37300000D01*
X27436697Y-37171774D01*
X27393536Y-37077267D01*
X27383593Y-37008109D01*
X27412618Y-36944554D01*
X27471396Y-36906779D01*
X27541265Y-36906779D01*
X27594011Y-36938074D01*
X28299902Y-37643966D01*
X28913824Y-38257888D01*
X28947309Y-38319211D01*
X28948881Y-38327922D01*
X28963302Y-38428225D01*
X29005763Y-38521200D01*
X29017118Y-38546063D01*
X29101951Y-38643967D01*
X29210931Y-38714004D01*
X29233110Y-38720516D01*
X29309761Y-38743023D01*
X29368539Y-38780797D01*
X29397565Y-38844352D01*
X29387622Y-38913511D01*
X29341867Y-38966315D01*
X29274828Y-38986000D01*
X24667294Y-38986000D01*
X24600255Y-38966315D01*
X24573580Y-38943202D01*
X24498049Y-38856033D01*
X24479873Y-38844352D01*
X24389069Y-38785996D01*
X24389065Y-38785994D01*
X24389064Y-38785994D01*
X24264774Y-38749500D01*
X24264772Y-38749500D01*
X24135228Y-38749500D01*
X24135226Y-38749500D01*
X24010935Y-38785994D01*
X24010932Y-38785995D01*
X24010931Y-38785996D01*
X23959677Y-38818934D01*
X23901950Y-38856033D01*
X23817118Y-38953937D01*
X23817117Y-38953938D01*
X23763302Y-39071774D01*
X23744867Y-39200000D01*
X23763302Y-39328225D01*
X23793464Y-39394269D01*
X23817118Y-39446063D01*
X23901951Y-39543967D01*
X24010931Y-39614004D01*
X24135225Y-39650499D01*
X24135227Y-39650500D01*
X24135228Y-39650500D01*
X24264773Y-39650500D01*
X24264773Y-39650499D01*
X24341354Y-39628013D01*
X24371976Y-39619023D01*
X24406910Y-39614000D01*
X29541337Y-39614000D01*
X29541339Y-39614000D01*
X29604323Y-39597123D01*
X29621200Y-39592601D01*
X29692800Y-39551263D01*
X30651262Y-38592801D01*
X30689724Y-38526182D01*
X30740290Y-38477967D01*
X30808897Y-38464743D01*
X30866000Y-38485079D01*
X30897260Y-38505966D01*
X30897262Y-38505966D01*
X30897264Y-38505967D01*
X30970321Y-38520499D01*
X30970324Y-38520500D01*
X30970326Y-38520500D01*
X32019676Y-38520500D01*
X32019677Y-38520499D01*
X32036719Y-38517109D01*
X32104719Y-38503584D01*
X32105541Y-38507720D01*
X32151968Y-38502710D01*
X32155262Y-38503677D01*
X32155281Y-38503584D01*
X32240321Y-38520499D01*
X32240324Y-38520500D01*
X32240326Y-38520500D01*
X33289676Y-38520500D01*
X33289677Y-38520499D01*
X33306719Y-38517109D01*
X33374719Y-38503584D01*
X33375541Y-38507720D01*
X33421968Y-38502710D01*
X33425262Y-38503677D01*
X33425281Y-38503584D01*
X33510321Y-38520499D01*
X33510324Y-38520500D01*
X33510326Y-38520500D01*
X34559676Y-38520500D01*
X34559677Y-38520499D01*
X34576719Y-38517109D01*
X34644719Y-38503584D01*
X34645541Y-38507720D01*
X34691968Y-38502710D01*
X34695262Y-38503677D01*
X34695281Y-38503584D01*
X34780321Y-38520499D01*
X34780324Y-38520500D01*
X34780326Y-38520500D01*
X35829676Y-38520500D01*
X35829677Y-38520499D01*
X35846719Y-38517109D01*
X35914719Y-38503584D01*
X35915541Y-38507720D01*
X35961968Y-38502710D01*
X35965262Y-38503677D01*
X35965281Y-38503584D01*
X36050321Y-38520499D01*
X36050324Y-38520500D01*
X36050326Y-38520500D01*
X37099676Y-38520500D01*
X37099677Y-38520499D01*
X37172740Y-38505966D01*
X37255601Y-38450601D01*
X37262398Y-38440428D01*
X37316007Y-38395623D01*
X37385332Y-38386914D01*
X37448360Y-38417067D01*
X37485081Y-38476509D01*
X37489500Y-38509318D01*
X37489500Y-39243906D01*
X37488903Y-39256060D01*
X37476488Y-39382112D01*
X37471746Y-39405953D01*
X37436753Y-39521309D01*
X37427450Y-39543767D01*
X37370629Y-39650072D01*
X37357124Y-39670284D01*
X37280653Y-39763464D01*
X37263465Y-39780652D01*
X37170284Y-39857124D01*
X37150072Y-39870629D01*
X37043768Y-39927450D01*
X37021310Y-39936753D01*
X36905954Y-39971746D01*
X36882113Y-39976488D01*
X36756072Y-39988902D01*
X36743918Y-39989499D01*
X23256090Y-39989499D01*
X23243937Y-39988902D01*
X23117887Y-39976488D01*
X23094044Y-39971745D01*
X22978689Y-39936752D01*
X22956232Y-39927450D01*
X22849928Y-39870629D01*
X22829716Y-39857124D01*
X22736535Y-39780652D01*
X22719347Y-39763464D01*
X22642875Y-39670283D01*
X22629370Y-39650071D01*
X22572656Y-39543967D01*
X22572548Y-39543764D01*
X22563247Y-39521310D01*
X22528254Y-39405955D01*
X22523512Y-39382118D01*
X22511097Y-39256060D01*
X22510500Y-39243907D01*
X22510500Y-29756092D01*
X22511097Y-29743939D01*
X22517877Y-29675097D01*
X22523512Y-29617880D01*
X22528251Y-29594054D01*
X22563248Y-29478683D01*
X22572546Y-29456238D01*
X22629374Y-29349921D01*
X22642870Y-29329721D01*
X22719350Y-29236530D01*
X22736529Y-29219351D01*
X22829721Y-29142870D01*
X22849921Y-29129373D01*
X22956238Y-29072546D01*
X22978682Y-29063248D01*
X23094053Y-29028251D01*
X23117878Y-29023512D01*
X23226582Y-29012805D01*
X23243919Y-29011098D01*
X23256073Y-29010501D01*
X23304766Y-29010501D01*
X23304775Y-29010500D01*
X24972866Y-29010500D01*
X25039905Y-29030185D01*
G37*
%TD.AperFunction*%
%TA.AperFunction,Conductor*%
G36*
X36756061Y-29011097D02*
G01*
X36765633Y-29012039D01*
X36882118Y-29023512D01*
X36905955Y-29028254D01*
X37021310Y-29063247D01*
X37043764Y-29072548D01*
X37082490Y-29093247D01*
X37150071Y-29129370D01*
X37170283Y-29142875D01*
X37263464Y-29219347D01*
X37280652Y-29236535D01*
X37357124Y-29329716D01*
X37370629Y-29349928D01*
X37427450Y-29456232D01*
X37436752Y-29478689D01*
X37471745Y-29594044D01*
X37476488Y-29617886D01*
X37488903Y-29743938D01*
X37489500Y-29756092D01*
X37489500Y-35760681D01*
X37469815Y-35827720D01*
X37417011Y-35873475D01*
X37347853Y-35883419D01*
X37284297Y-35854394D01*
X37262398Y-35829571D01*
X37255602Y-35819400D01*
X37247520Y-35814000D01*
X37209999Y-35788929D01*
X37172739Y-35764033D01*
X37172735Y-35764032D01*
X37099677Y-35749500D01*
X37099674Y-35749500D01*
X36050326Y-35749500D01*
X36050324Y-35749500D01*
X35965283Y-35766416D01*
X35964462Y-35762291D01*
X35917897Y-35767264D01*
X35914733Y-35766335D01*
X35914717Y-35766416D01*
X35829676Y-35749500D01*
X35829674Y-35749500D01*
X34893926Y-35749500D01*
X34826887Y-35729815D01*
X34781132Y-35677011D01*
X34771188Y-35607853D01*
X34800213Y-35544297D01*
X34806245Y-35537819D01*
X35757244Y-34586819D01*
X35818567Y-34553334D01*
X35844925Y-34550500D01*
X35864773Y-34550500D01*
X35864773Y-34550499D01*
X35989069Y-34514004D01*
X36098049Y-34443967D01*
X36182882Y-34346063D01*
X36236697Y-34228226D01*
X36255133Y-34100000D01*
X36236697Y-33971774D01*
X36182882Y-33853937D01*
X36098049Y-33756033D01*
X35989069Y-33685996D01*
X35989065Y-33685994D01*
X35989064Y-33685994D01*
X35864774Y-33649500D01*
X35864772Y-33649500D01*
X35844925Y-33649500D01*
X35777886Y-33629815D01*
X35757244Y-33613181D01*
X34392799Y-32248736D01*
X34321198Y-32207398D01*
X34313367Y-32205299D01*
X34304323Y-32202876D01*
X34304321Y-32202875D01*
X34241340Y-32186000D01*
X34241339Y-32186000D01*
X33678883Y-32186000D01*
X33611844Y-32166315D01*
X33598464Y-32156300D01*
X33598049Y-32156033D01*
X33489069Y-32085996D01*
X33489065Y-32085994D01*
X33489064Y-32085994D01*
X33364774Y-32049500D01*
X33364772Y-32049500D01*
X33235228Y-32049500D01*
X33235226Y-32049500D01*
X33110935Y-32085994D01*
X33110932Y-32085995D01*
X33110931Y-32085996D01*
X33059677Y-32118934D01*
X33001950Y-32156033D01*
X32949037Y-32217100D01*
X32890259Y-32254875D01*
X32820389Y-32254875D01*
X32767642Y-32223579D01*
X32069744Y-31525681D01*
X32036259Y-31464358D01*
X32041243Y-31394666D01*
X32083115Y-31338733D01*
X32148579Y-31314316D01*
X32157425Y-31314000D01*
X35318575Y-31314000D01*
X35385614Y-31333685D01*
X35406256Y-31350319D01*
X35413824Y-31357887D01*
X35447309Y-31419210D01*
X35448881Y-31427921D01*
X35463302Y-31528225D01*
X35517117Y-31646061D01*
X35517118Y-31646063D01*
X35601951Y-31743967D01*
X35710931Y-31814004D01*
X35829227Y-31848738D01*
X35835225Y-31850499D01*
X35835227Y-31850500D01*
X35835228Y-31850500D01*
X35964773Y-31850500D01*
X35964773Y-31850499D01*
X36089069Y-31814004D01*
X36198049Y-31743967D01*
X36282882Y-31646063D01*
X36336697Y-31528226D01*
X36355133Y-31400000D01*
X36336697Y-31271774D01*
X36282882Y-31153937D01*
X36198049Y-31056033D01*
X36089069Y-30985996D01*
X36089065Y-30985994D01*
X36089064Y-30985994D01*
X35964774Y-30949500D01*
X35964772Y-30949500D01*
X35944925Y-30949500D01*
X35877886Y-30929815D01*
X35857244Y-30913181D01*
X35692799Y-30748736D01*
X35621198Y-30707398D01*
X35613367Y-30705299D01*
X35604323Y-30702876D01*
X35604321Y-30702875D01*
X35541340Y-30686000D01*
X35541339Y-30686000D01*
X35314505Y-30686000D01*
X35247466Y-30666315D01*
X35201711Y-30613511D01*
X35191767Y-30544353D01*
X35192888Y-30537809D01*
X35195499Y-30524678D01*
X35195500Y-30524676D01*
X35195500Y-29475323D01*
X35195499Y-29475321D01*
X35180967Y-29402264D01*
X35180966Y-29402260D01*
X35145999Y-29349928D01*
X35125601Y-29319399D01*
X35070235Y-29282405D01*
X35042739Y-29264033D01*
X35042735Y-29264032D01*
X35002943Y-29256117D01*
X34941032Y-29223732D01*
X34906457Y-29163016D01*
X34910197Y-29093247D01*
X34951064Y-29036575D01*
X35016082Y-29010994D01*
X35027134Y-29010500D01*
X36743908Y-29010500D01*
X36756061Y-29011097D01*
G37*
%TD.AperFunction*%
%TA.AperFunction,Conductor*%
G36*
X32085934Y-32429997D02*
G01*
X33249681Y-33593744D01*
X33283166Y-33655067D01*
X33286000Y-33681425D01*
X33286000Y-34028192D01*
X33266315Y-34095231D01*
X33255715Y-34109393D01*
X33217116Y-34153939D01*
X33163302Y-34271774D01*
X33144867Y-34400000D01*
X33163302Y-34528225D01*
X33190062Y-34586819D01*
X33217118Y-34646063D01*
X33301951Y-34743967D01*
X33410931Y-34814004D01*
X33535225Y-34850499D01*
X33535227Y-34850500D01*
X33535228Y-34850500D01*
X33664773Y-34850500D01*
X33664773Y-34850499D01*
X33789069Y-34814004D01*
X33898049Y-34743967D01*
X33982882Y-34646063D01*
X34036697Y-34528226D01*
X34055133Y-34400000D01*
X34036697Y-34271774D01*
X33982882Y-34153937D01*
X33944284Y-34109392D01*
X33915262Y-34045836D01*
X33914000Y-34028192D01*
X33914000Y-33458662D01*
X33892600Y-33378798D01*
X33875128Y-33348537D01*
X33875125Y-33348533D01*
X33851262Y-33307198D01*
X33579002Y-33034938D01*
X33545517Y-32973615D01*
X33550501Y-32903923D01*
X33592373Y-32847990D01*
X33597575Y-32844378D01*
X33597684Y-32844284D01*
X33597762Y-32844248D01*
X33599654Y-32842935D01*
X33605520Y-32839166D01*
X33606284Y-32840356D01*
X33661241Y-32815261D01*
X33678883Y-32814000D01*
X34018575Y-32814000D01*
X34085614Y-32833685D01*
X34106256Y-32850319D01*
X35268255Y-34012318D01*
X35301740Y-34073641D01*
X35296756Y-34143333D01*
X35268255Y-34187680D01*
X34306256Y-35149681D01*
X34244933Y-35183166D01*
X34218575Y-35186000D01*
X32522334Y-35186000D01*
X32455295Y-35166315D01*
X32409540Y-35113511D01*
X32399596Y-35044353D01*
X32428621Y-34980797D01*
X32455292Y-34957685D01*
X32550550Y-34896468D01*
X32635383Y-34798564D01*
X32689198Y-34680727D01*
X32707634Y-34552501D01*
X32689198Y-34424275D01*
X32635383Y-34306438D01*
X32550550Y-34208534D01*
X32441570Y-34138497D01*
X32441566Y-34138495D01*
X32441565Y-34138495D01*
X32317275Y-34102001D01*
X32317273Y-34102001D01*
X32187729Y-34102001D01*
X32187727Y-34102001D01*
X32063436Y-34138495D01*
X32063433Y-34138496D01*
X32063432Y-34138497D01*
X32039404Y-34153939D01*
X31946991Y-34213329D01*
X31946226Y-34212139D01*
X31891260Y-34237240D01*
X31873618Y-34238501D01*
X31006157Y-34238501D01*
X30943180Y-34255375D01*
X30943175Y-34255377D01*
X30928083Y-34259421D01*
X30926295Y-34259901D01*
X30854701Y-34301237D01*
X30854695Y-34301241D01*
X29906256Y-35249681D01*
X29844933Y-35283166D01*
X29818575Y-35286000D01*
X28478883Y-35286000D01*
X28411844Y-35266315D01*
X28398464Y-35256300D01*
X28398049Y-35256033D01*
X28289069Y-35185996D01*
X28289065Y-35185994D01*
X28289064Y-35185994D01*
X28164774Y-35149500D01*
X28164772Y-35149500D01*
X28035228Y-35149500D01*
X28035226Y-35149500D01*
X27910934Y-35185994D01*
X27910931Y-35185996D01*
X27905042Y-35189781D01*
X27905037Y-35189784D01*
X27837997Y-35209467D01*
X27770958Y-35189781D01*
X27725204Y-35136976D01*
X27714000Y-35085467D01*
X27714000Y-33181425D01*
X27733685Y-33114386D01*
X27750319Y-33093744D01*
X28393744Y-32450319D01*
X28455067Y-32416834D01*
X28481425Y-32414000D01*
X31221117Y-32414000D01*
X31288156Y-32433685D01*
X31301535Y-32443699D01*
X31301949Y-32443965D01*
X31301951Y-32443967D01*
X31410931Y-32514004D01*
X31535225Y-32550499D01*
X31535227Y-32550500D01*
X31535228Y-32550500D01*
X31664773Y-32550500D01*
X31664773Y-32550499D01*
X31789069Y-32514004D01*
X31898049Y-32443967D01*
X31904536Y-32436479D01*
X31963313Y-32398703D01*
X32033182Y-32398699D01*
X32085934Y-32429997D01*
G37*
%TD.AperFunction*%
%TD*%
M02*
