G04 EAGLE Gerber RS-274X export*
G75*
%MOMM*%
%FSLAX34Y34*%
%LPD*%
%IN*%
%IPPOS*%
%AMOC8*
5,1,8,0,0,1.08239X$1,22.5*%
G01*
%ADD10C,0.254000*%


D10*
X0Y110000D02*
X38Y109128D01*
X152Y108264D01*
X341Y107412D01*
X603Y106580D01*
X937Y105774D01*
X1340Y105000D01*
X1808Y104264D01*
X2340Y103572D01*
X2929Y102929D01*
X3572Y102340D01*
X4264Y101808D01*
X5000Y101340D01*
X5774Y100937D01*
X6580Y100603D01*
X7412Y100341D01*
X8264Y100152D01*
X9128Y100038D01*
X10000Y100000D01*
X10872Y99962D01*
X11736Y99848D01*
X12588Y99659D01*
X13420Y99397D01*
X14226Y99063D01*
X15000Y98660D01*
X15736Y98192D01*
X16428Y97660D01*
X17071Y97071D01*
X17660Y96428D01*
X18192Y95736D01*
X18660Y95000D01*
X19063Y94226D01*
X19397Y93420D01*
X19659Y92588D01*
X19848Y91736D01*
X19962Y90872D01*
X20000Y90000D01*
X20000Y20000D01*
X20076Y18257D01*
X20304Y16527D01*
X20681Y14824D01*
X21206Y13160D01*
X21874Y11548D01*
X22680Y10000D01*
X23617Y8528D01*
X24679Y7144D01*
X25858Y5858D01*
X27144Y4679D01*
X28528Y3617D01*
X30000Y2680D01*
X31548Y1874D01*
X33160Y1206D01*
X34824Y681D01*
X36527Y304D01*
X38257Y76D01*
X40000Y0D01*
X170000Y0D01*
X171743Y76D01*
X173473Y304D01*
X175176Y681D01*
X176840Y1206D01*
X178452Y1874D01*
X180000Y2680D01*
X181472Y3617D01*
X182856Y4679D01*
X184142Y5858D01*
X185321Y7144D01*
X186383Y8528D01*
X187321Y10000D01*
X188126Y11548D01*
X188794Y13160D01*
X189319Y14824D01*
X189696Y16527D01*
X189924Y18257D01*
X190000Y20000D01*
X190000Y90000D01*
X190038Y90872D01*
X190152Y91736D01*
X190341Y92588D01*
X190603Y93420D01*
X190937Y94226D01*
X191340Y95000D01*
X191808Y95736D01*
X192340Y96428D01*
X192929Y97071D01*
X193572Y97660D01*
X194264Y98192D01*
X195000Y98660D01*
X195774Y99063D01*
X196580Y99397D01*
X197412Y99659D01*
X198264Y99848D01*
X199128Y99962D01*
X200000Y100000D01*
X200872Y100038D01*
X201736Y100152D01*
X202588Y100341D01*
X203420Y100603D01*
X204226Y100937D01*
X205000Y101340D01*
X205736Y101808D01*
X206428Y102340D01*
X207071Y102929D01*
X207660Y103572D01*
X208192Y104264D01*
X208660Y105000D01*
X209063Y105774D01*
X209397Y106580D01*
X209659Y107412D01*
X209848Y108264D01*
X209962Y109128D01*
X210000Y110000D01*
X210000Y200000D01*
X209962Y200872D01*
X209848Y201736D01*
X209659Y202588D01*
X209397Y203420D01*
X209063Y204226D01*
X208660Y205000D01*
X208192Y205736D01*
X207660Y206428D01*
X207071Y207071D01*
X206428Y207660D01*
X205736Y208192D01*
X205000Y208660D01*
X204226Y209063D01*
X203420Y209397D01*
X202588Y209659D01*
X201736Y209848D01*
X200872Y209962D01*
X200000Y210000D01*
X199128Y210038D01*
X198264Y210152D01*
X197412Y210341D01*
X196580Y210603D01*
X195774Y210937D01*
X195000Y211340D01*
X194264Y211808D01*
X193572Y212340D01*
X192929Y212929D01*
X192340Y213572D01*
X191808Y214264D01*
X191340Y215000D01*
X190937Y215774D01*
X190603Y216580D01*
X190341Y217412D01*
X190152Y218264D01*
X190038Y219128D01*
X190000Y220000D01*
X190000Y330000D01*
X189924Y331743D01*
X189696Y333473D01*
X189319Y335176D01*
X188794Y336840D01*
X188126Y338452D01*
X187321Y340000D01*
X186383Y341472D01*
X185321Y342856D01*
X184142Y344142D01*
X182856Y345321D01*
X181472Y346383D01*
X180000Y347321D01*
X178452Y348126D01*
X176840Y348794D01*
X175176Y349319D01*
X173473Y349696D01*
X171743Y349924D01*
X170000Y350000D01*
X40000Y350000D01*
X38257Y349924D01*
X36527Y349696D01*
X34824Y349319D01*
X33160Y348794D01*
X31548Y348126D01*
X30000Y347321D01*
X28528Y346383D01*
X27144Y345321D01*
X25858Y344142D01*
X24679Y342856D01*
X23617Y341472D01*
X22680Y340000D01*
X21874Y338452D01*
X21206Y336840D01*
X20681Y335176D01*
X20304Y333473D01*
X20076Y331743D01*
X20000Y330000D01*
X20000Y220000D01*
X19962Y219128D01*
X19848Y218264D01*
X19659Y217412D01*
X19397Y216580D01*
X19063Y215774D01*
X18660Y215000D01*
X18192Y214264D01*
X17660Y213572D01*
X17071Y212929D01*
X16428Y212340D01*
X15736Y211808D01*
X15000Y211340D01*
X14226Y210937D01*
X13420Y210603D01*
X12588Y210341D01*
X11736Y210152D01*
X10872Y210038D01*
X10000Y210000D01*
X9128Y209962D01*
X8264Y209848D01*
X7412Y209659D01*
X6580Y209397D01*
X5774Y209063D01*
X5000Y208660D01*
X4264Y208192D01*
X3572Y207660D01*
X2929Y207071D01*
X2340Y206428D01*
X1808Y205736D01*
X1340Y205000D01*
X937Y204226D01*
X603Y203420D01*
X341Y202588D01*
X152Y201736D01*
X38Y200872D01*
X0Y200000D01*
X0Y110000D01*
X180000Y329563D02*
X179924Y328694D01*
X179772Y327834D01*
X179546Y326990D01*
X179248Y326170D01*
X178879Y325378D01*
X178442Y324622D01*
X177941Y323907D01*
X177380Y323238D01*
X176762Y322620D01*
X176093Y322059D01*
X175378Y321558D01*
X174622Y321121D01*
X173830Y320752D01*
X173010Y320454D01*
X172166Y320228D01*
X171307Y320076D01*
X170437Y320000D01*
X169563Y320000D01*
X168694Y320076D01*
X167834Y320228D01*
X166990Y320454D01*
X166170Y320752D01*
X165378Y321121D01*
X164622Y321558D01*
X163907Y322059D01*
X163238Y322620D01*
X162620Y323238D01*
X162059Y323907D01*
X161558Y324622D01*
X161121Y325378D01*
X160752Y326170D01*
X160454Y326990D01*
X160228Y327834D01*
X160076Y328694D01*
X160000Y329563D01*
X160000Y330437D01*
X160076Y331307D01*
X160228Y332166D01*
X160454Y333010D01*
X160752Y333830D01*
X161121Y334622D01*
X161558Y335378D01*
X162059Y336093D01*
X162620Y336762D01*
X163238Y337380D01*
X163907Y337941D01*
X164622Y338442D01*
X165378Y338879D01*
X166170Y339248D01*
X166990Y339546D01*
X167834Y339772D01*
X168694Y339924D01*
X169563Y340000D01*
X170437Y340000D01*
X171307Y339924D01*
X172166Y339772D01*
X173010Y339546D01*
X173830Y339248D01*
X174622Y338879D01*
X175378Y338442D01*
X176093Y337941D01*
X176762Y337380D01*
X177380Y336762D01*
X177941Y336093D01*
X178442Y335378D01*
X178879Y334622D01*
X179248Y333830D01*
X179546Y333010D01*
X179772Y332166D01*
X179924Y331307D01*
X180000Y330437D01*
X180000Y329563D01*
X180000Y19563D02*
X179924Y18694D01*
X179772Y17834D01*
X179546Y16990D01*
X179248Y16170D01*
X178879Y15378D01*
X178442Y14622D01*
X177941Y13907D01*
X177380Y13238D01*
X176762Y12620D01*
X176093Y12059D01*
X175378Y11558D01*
X174622Y11121D01*
X173830Y10752D01*
X173010Y10454D01*
X172166Y10228D01*
X171307Y10076D01*
X170437Y10000D01*
X169563Y10000D01*
X168694Y10076D01*
X167834Y10228D01*
X166990Y10454D01*
X166170Y10752D01*
X165378Y11121D01*
X164622Y11558D01*
X163907Y12059D01*
X163238Y12620D01*
X162620Y13238D01*
X162059Y13907D01*
X161558Y14622D01*
X161121Y15378D01*
X160752Y16170D01*
X160454Y16990D01*
X160228Y17834D01*
X160076Y18694D01*
X160000Y19563D01*
X160000Y20437D01*
X160076Y21307D01*
X160228Y22166D01*
X160454Y23010D01*
X160752Y23830D01*
X161121Y24622D01*
X161558Y25378D01*
X162059Y26093D01*
X162620Y26762D01*
X163238Y27380D01*
X163907Y27941D01*
X164622Y28442D01*
X165378Y28879D01*
X166170Y29248D01*
X166990Y29546D01*
X167834Y29772D01*
X168694Y29924D01*
X169563Y30000D01*
X170437Y30000D01*
X171307Y29924D01*
X172166Y29772D01*
X173010Y29546D01*
X173830Y29248D01*
X174622Y28879D01*
X175378Y28442D01*
X176093Y27941D01*
X176762Y27380D01*
X177380Y26762D01*
X177941Y26093D01*
X178442Y25378D01*
X178879Y24622D01*
X179248Y23830D01*
X179546Y23010D01*
X179772Y22166D01*
X179924Y21307D01*
X180000Y20437D01*
X180000Y19563D01*
X50000Y19563D02*
X49924Y18694D01*
X49772Y17834D01*
X49546Y16990D01*
X49248Y16170D01*
X48879Y15378D01*
X48442Y14622D01*
X47941Y13907D01*
X47380Y13238D01*
X46762Y12620D01*
X46093Y12059D01*
X45378Y11558D01*
X44622Y11121D01*
X43830Y10752D01*
X43010Y10454D01*
X42166Y10228D01*
X41307Y10076D01*
X40437Y10000D01*
X39563Y10000D01*
X38694Y10076D01*
X37834Y10228D01*
X36990Y10454D01*
X36170Y10752D01*
X35378Y11121D01*
X34622Y11558D01*
X33907Y12059D01*
X33238Y12620D01*
X32620Y13238D01*
X32059Y13907D01*
X31558Y14622D01*
X31121Y15378D01*
X30752Y16170D01*
X30454Y16990D01*
X30228Y17834D01*
X30076Y18694D01*
X30000Y19563D01*
X30000Y20437D01*
X30076Y21307D01*
X30228Y22166D01*
X30454Y23010D01*
X30752Y23830D01*
X31121Y24622D01*
X31558Y25378D01*
X32059Y26093D01*
X32620Y26762D01*
X33238Y27380D01*
X33907Y27941D01*
X34622Y28442D01*
X35378Y28879D01*
X36170Y29248D01*
X36990Y29546D01*
X37834Y29772D01*
X38694Y29924D01*
X39563Y30000D01*
X40437Y30000D01*
X41307Y29924D01*
X42166Y29772D01*
X43010Y29546D01*
X43830Y29248D01*
X44622Y28879D01*
X45378Y28442D01*
X46093Y27941D01*
X46762Y27380D01*
X47380Y26762D01*
X47941Y26093D01*
X48442Y25378D01*
X48879Y24622D01*
X49248Y23830D01*
X49546Y23010D01*
X49772Y22166D01*
X49924Y21307D01*
X50000Y20437D01*
X50000Y19563D01*
X50000Y329563D02*
X49924Y328694D01*
X49772Y327834D01*
X49546Y326990D01*
X49248Y326170D01*
X48879Y325378D01*
X48442Y324622D01*
X47941Y323907D01*
X47380Y323238D01*
X46762Y322620D01*
X46093Y322059D01*
X45378Y321558D01*
X44622Y321121D01*
X43830Y320752D01*
X43010Y320454D01*
X42166Y320228D01*
X41307Y320076D01*
X40437Y320000D01*
X39563Y320000D01*
X38694Y320076D01*
X37834Y320228D01*
X36990Y320454D01*
X36170Y320752D01*
X35378Y321121D01*
X34622Y321558D01*
X33907Y322059D01*
X33238Y322620D01*
X32620Y323238D01*
X32059Y323907D01*
X31558Y324622D01*
X31121Y325378D01*
X30752Y326170D01*
X30454Y326990D01*
X30228Y327834D01*
X30076Y328694D01*
X30000Y329563D01*
X30000Y330437D01*
X30076Y331307D01*
X30228Y332166D01*
X30454Y333010D01*
X30752Y333830D01*
X31121Y334622D01*
X31558Y335378D01*
X32059Y336093D01*
X32620Y336762D01*
X33238Y337380D01*
X33907Y337941D01*
X34622Y338442D01*
X35378Y338879D01*
X36170Y339248D01*
X36990Y339546D01*
X37834Y339772D01*
X38694Y339924D01*
X39563Y340000D01*
X40437Y340000D01*
X41307Y339924D01*
X42166Y339772D01*
X43010Y339546D01*
X43830Y339248D01*
X44622Y338879D01*
X45378Y338442D01*
X46093Y337941D01*
X46762Y337380D01*
X47380Y336762D01*
X47941Y336093D01*
X48442Y335378D01*
X48879Y334622D01*
X49248Y333830D01*
X49546Y333010D01*
X49772Y332166D01*
X49924Y331307D01*
X50000Y330437D01*
X50000Y329563D01*
M02*
