%TF.GenerationSoftware,KiCad,Pcbnew,7.0.2-6a45011f42~172~ubuntu22.04.1*%
%TF.CreationDate,2023-05-25T16:12:51+01:00*%
%TF.ProjectId,module_stspin250,6d6f6475-6c65-45f7-9374-7370696e3235,rev?*%
%TF.SameCoordinates,Original*%
%TF.FileFunction,Legend,Top*%
%TF.FilePolarity,Positive*%
%FSLAX46Y46*%
G04 Gerber Fmt 4.6, Leading zero omitted, Abs format (unit mm)*
G04 Created by KiCad (PCBNEW 7.0.2-6a45011f42~172~ubuntu22.04.1) date 2023-05-25 16:12:51*
%MOMM*%
%LPD*%
G01*
G04 APERTURE LIST*
G04 Aperture macros list*
%AMRoundRect*
0 Rectangle with rounded corners*
0 $1 Rounding radius*
0 $2 $3 $4 $5 $6 $7 $8 $9 X,Y pos of 4 corners*
0 Add a 4 corners polygon primitive as box body*
4,1,4,$2,$3,$4,$5,$6,$7,$8,$9,$2,$3,0*
0 Add four circle primitives for the rounded corners*
1,1,$1+$1,$2,$3*
1,1,$1+$1,$4,$5*
1,1,$1+$1,$6,$7*
1,1,$1+$1,$8,$9*
0 Add four rect primitives between the rounded corners*
20,1,$1+$1,$2,$3,$4,$5,0*
20,1,$1+$1,$4,$5,$6,$7,0*
20,1,$1+$1,$6,$7,$8,$9,0*
20,1,$1+$1,$8,$9,$2,$3,0*%
%AMRotRect*
0 Rectangle, with rotation*
0 The origin of the aperture is its center*
0 $1 length*
0 $2 width*
0 $3 Rotation angle, in degrees counterclockwise*
0 Add horizontal line*
21,1,$1,$2,0,0,$3*%
%AMFreePoly0*
4,1,19,0.500000,-0.750000,0.000000,-0.750000,0.000000,-0.744911,-0.071157,-0.744911,-0.207708,-0.704816,-0.327430,-0.627875,-0.420627,-0.520320,-0.479746,-0.390866,-0.500000,-0.250000,-0.500000,0.250000,-0.479746,0.390866,-0.420627,0.520320,-0.327430,0.627875,-0.207708,0.704816,-0.071157,0.744911,0.000000,0.744911,0.000000,0.750000,0.500000,0.750000,0.500000,-0.750000,0.500000,-0.750000,
$1*%
%AMFreePoly1*
4,1,19,0.000000,0.744911,0.071157,0.744911,0.207708,0.704816,0.327430,0.627875,0.420627,0.520320,0.479746,0.390866,0.500000,0.250000,0.500000,-0.250000,0.479746,-0.390866,0.420627,-0.520320,0.327430,-0.627875,0.207708,-0.704816,0.071157,-0.744911,0.000000,-0.744911,0.000000,-0.750000,-0.500000,-0.750000,-0.500000,0.750000,0.000000,0.750000,0.000000,0.744911,0.000000,0.744911,
$1*%
G04 Aperture macros list end*
%ADD10C,0.150000*%
%ADD11C,0.038100*%
%ADD12C,0.152400*%
%ADD13C,0.250000*%
%ADD14C,0.120000*%
%ADD15R,1.000000X1.000000*%
%ADD16O,1.000000X1.000000*%
%ADD17RoundRect,0.135000X0.226274X0.035355X0.035355X0.226274X-0.226274X-0.035355X-0.035355X-0.226274X0*%
%ADD18FreePoly0,0.000000*%
%ADD19FreePoly1,0.000000*%
%ADD20RoundRect,0.135000X0.035355X-0.226274X0.226274X-0.035355X-0.035355X0.226274X-0.226274X0.035355X0*%
%ADD21C,1.800000*%
%ADD22RoundRect,0.140000X-0.021213X0.219203X-0.219203X0.021213X0.021213X-0.219203X0.219203X-0.021213X0*%
%ADD23C,1.000000*%
%ADD24FreePoly0,270.000000*%
%ADD25FreePoly1,270.000000*%
%ADD26RoundRect,0.140000X0.021213X-0.219203X0.219203X-0.021213X-0.021213X0.219203X-0.219203X0.021213X0*%
%ADD27C,2.000000*%
%ADD28RoundRect,0.135000X-0.226274X-0.035355X-0.035355X-0.226274X0.226274X0.035355X0.035355X0.226274X0*%
%ADD29RoundRect,0.062500X-0.185616X-0.274004X0.274004X0.185616X0.185616X0.274004X-0.274004X-0.185616X0*%
%ADD30RoundRect,0.062500X0.185616X-0.274004X0.274004X-0.185616X-0.185616X0.274004X-0.274004X0.185616X0*%
%ADD31RotRect,1.800000X1.800000X45.000000*%
%ADD32RoundRect,0.140000X-0.219203X-0.021213X-0.021213X-0.219203X0.219203X0.021213X0.021213X0.219203X0*%
%ADD33RoundRect,0.135000X-0.035355X0.226274X-0.226274X0.035355X0.035355X-0.226274X0.226274X-0.035355X0*%
G04 APERTURE END LIST*
D10*
X1000001Y4700000D02*
X1000000Y4000001D01*
D11*
X20950000Y13500000D02*
G75*
G03*
X20950000Y13500000I-950000J0D01*
G01*
X6450000Y10500000D02*
G75*
G03*
X6450000Y10500000I-950000J0D01*
G01*
D10*
X6300000Y1000000D02*
X4000000Y1000000D01*
X20000000Y4000000D02*
X21000000Y3999999D01*
D11*
X3950000Y5000000D02*
G75*
G03*
X3950000Y5000000I-950000J0D01*
G01*
D10*
X17999999Y16500001D02*
X18000000Y17500001D01*
X1999999Y14500001D02*
X999999Y14500002D01*
D11*
X20950000Y11500000D02*
G75*
G03*
X20950000Y11500000I-950000J0D01*
G01*
D12*
X1999999Y14500001D02*
G75*
G03*
X3999999Y16500001I1J1999999D01*
G01*
D10*
X18000000Y2000000D02*
X17999999Y1000000D01*
D12*
X20000000Y4000000D02*
G75*
G03*
X18000000Y2000000I0J-2000000D01*
G01*
D10*
X20999999Y14500000D02*
X21000000Y3999999D01*
D11*
X5450000Y8500001D02*
G75*
G03*
X5450000Y8500001I-950000J0D01*
G01*
D12*
X4000000Y2000000D02*
G75*
G03*
X2000000Y4000000I-2000000J0D01*
G01*
X18000001Y16500001D02*
G75*
G03*
X19999999Y14500001I1999999J-1D01*
G01*
D10*
X2000000Y4000000D02*
X1000000Y4000001D01*
D11*
X19150000Y12710000D02*
G75*
G03*
X19150000Y12710000I-950000J0D01*
G01*
X5950000Y6000000D02*
G75*
G03*
X5950000Y6000000I-950000J0D01*
G01*
D10*
X4000000Y1000000D02*
X4000000Y2000000D01*
X3999999Y16500001D02*
X4000000Y17500001D01*
X15700000Y17500001D02*
X18000000Y17500001D01*
X19999999Y14500001D02*
X20999999Y14500000D01*
X15200000Y1000000D02*
X17999999Y1000000D01*
D11*
X3950000Y7000000D02*
G75*
G03*
X3950000Y7000000I-950000J0D01*
G01*
D10*
X999999Y14500002D02*
X1000001Y11300000D01*
X6800000Y17500000D02*
X4000000Y17500001D01*
D13*
X1557143Y12370000D02*
X1700000Y12322381D01*
X1700000Y12322381D02*
X1938095Y12322381D01*
X1938095Y12322381D02*
X2033333Y12370000D01*
X2033333Y12370000D02*
X2080952Y12417620D01*
X2080952Y12417620D02*
X2128571Y12512858D01*
X2128571Y12512858D02*
X2128571Y12608096D01*
X2128571Y12608096D02*
X2080952Y12703334D01*
X2080952Y12703334D02*
X2033333Y12750953D01*
X2033333Y12750953D02*
X1938095Y12798572D01*
X1938095Y12798572D02*
X1747619Y12846191D01*
X1747619Y12846191D02*
X1652381Y12893810D01*
X1652381Y12893810D02*
X1604762Y12941429D01*
X1604762Y12941429D02*
X1557143Y13036667D01*
X1557143Y13036667D02*
X1557143Y13131905D01*
X1557143Y13131905D02*
X1604762Y13227143D01*
X1604762Y13227143D02*
X1652381Y13274762D01*
X1652381Y13274762D02*
X1747619Y13322381D01*
X1747619Y13322381D02*
X1985714Y13322381D01*
X1985714Y13322381D02*
X2128571Y13274762D01*
X2414286Y13322381D02*
X2985714Y13322381D01*
X2700000Y12322381D02*
X2700000Y13322381D01*
X3271429Y12370000D02*
X3366667Y12322381D01*
X3366667Y12322381D02*
X3557143Y12322381D01*
X3557143Y12322381D02*
X3652381Y12370000D01*
X3652381Y12370000D02*
X3700000Y12465239D01*
X3700000Y12465239D02*
X3700000Y12512858D01*
X3700000Y12512858D02*
X3652381Y12608096D01*
X3652381Y12608096D02*
X3557143Y12655715D01*
X3557143Y12655715D02*
X3414286Y12655715D01*
X3414286Y12655715D02*
X3319048Y12703334D01*
X3319048Y12703334D02*
X3271429Y12798572D01*
X3271429Y12798572D02*
X3271429Y12846191D01*
X3271429Y12846191D02*
X3319048Y12941429D01*
X3319048Y12941429D02*
X3414286Y12989048D01*
X3414286Y12989048D02*
X3557143Y12989048D01*
X3557143Y12989048D02*
X3652381Y12941429D01*
X4128572Y12989048D02*
X4128572Y11989048D01*
X4128572Y12941429D02*
X4223810Y12989048D01*
X4223810Y12989048D02*
X4414286Y12989048D01*
X4414286Y12989048D02*
X4509524Y12941429D01*
X4509524Y12941429D02*
X4557143Y12893810D01*
X4557143Y12893810D02*
X4604762Y12798572D01*
X4604762Y12798572D02*
X4604762Y12512858D01*
X4604762Y12512858D02*
X4557143Y12417620D01*
X4557143Y12417620D02*
X4509524Y12370000D01*
X4509524Y12370000D02*
X4414286Y12322381D01*
X4414286Y12322381D02*
X4223810Y12322381D01*
X4223810Y12322381D02*
X4128572Y12370000D01*
X5033334Y12322381D02*
X5033334Y12989048D01*
X5033334Y13322381D02*
X4985715Y13274762D01*
X4985715Y13274762D02*
X5033334Y13227143D01*
X5033334Y13227143D02*
X5080953Y13274762D01*
X5080953Y13274762D02*
X5033334Y13322381D01*
X5033334Y13322381D02*
X5033334Y13227143D01*
X5509524Y12989048D02*
X5509524Y12322381D01*
X5509524Y12893810D02*
X5557143Y12941429D01*
X5557143Y12941429D02*
X5652381Y12989048D01*
X5652381Y12989048D02*
X5795238Y12989048D01*
X5795238Y12989048D02*
X5890476Y12941429D01*
X5890476Y12941429D02*
X5938095Y12846191D01*
X5938095Y12846191D02*
X5938095Y12322381D01*
X6366667Y13227143D02*
X6414286Y13274762D01*
X6414286Y13274762D02*
X6509524Y13322381D01*
X6509524Y13322381D02*
X6747619Y13322381D01*
X6747619Y13322381D02*
X6842857Y13274762D01*
X6842857Y13274762D02*
X6890476Y13227143D01*
X6890476Y13227143D02*
X6938095Y13131905D01*
X6938095Y13131905D02*
X6938095Y13036667D01*
X6938095Y13036667D02*
X6890476Y12893810D01*
X6890476Y12893810D02*
X6319048Y12322381D01*
X6319048Y12322381D02*
X6938095Y12322381D01*
X7842857Y13322381D02*
X7366667Y13322381D01*
X7366667Y13322381D02*
X7319048Y12846191D01*
X7319048Y12846191D02*
X7366667Y12893810D01*
X7366667Y12893810D02*
X7461905Y12941429D01*
X7461905Y12941429D02*
X7700000Y12941429D01*
X7700000Y12941429D02*
X7795238Y12893810D01*
X7795238Y12893810D02*
X7842857Y12846191D01*
X7842857Y12846191D02*
X7890476Y12750953D01*
X7890476Y12750953D02*
X7890476Y12512858D01*
X7890476Y12512858D02*
X7842857Y12417620D01*
X7842857Y12417620D02*
X7795238Y12370000D01*
X7795238Y12370000D02*
X7700000Y12322381D01*
X7700000Y12322381D02*
X7461905Y12322381D01*
X7461905Y12322381D02*
X7366667Y12370000D01*
X7366667Y12370000D02*
X7319048Y12417620D01*
X8223810Y13322381D02*
X8890476Y12322381D01*
X8890476Y13322381D02*
X8223810Y12322381D01*
X17576191Y5522381D02*
X17909524Y4522381D01*
X17909524Y4522381D02*
X18242857Y5522381D01*
X19100000Y4522381D02*
X18528572Y4522381D01*
X18814286Y4522381D02*
X18814286Y5522381D01*
X18814286Y5522381D02*
X18719048Y5379524D01*
X18719048Y5379524D02*
X18623810Y5284286D01*
X18623810Y5284286D02*
X18528572Y5236667D01*
X19528572Y4617620D02*
X19576191Y4570000D01*
X19576191Y4570000D02*
X19528572Y4522381D01*
X19528572Y4522381D02*
X19480953Y4570000D01*
X19480953Y4570000D02*
X19528572Y4617620D01*
X19528572Y4617620D02*
X19528572Y4522381D01*
X20195238Y5522381D02*
X20290476Y5522381D01*
X20290476Y5522381D02*
X20385714Y5474762D01*
X20385714Y5474762D02*
X20433333Y5427143D01*
X20433333Y5427143D02*
X20480952Y5331905D01*
X20480952Y5331905D02*
X20528571Y5141429D01*
X20528571Y5141429D02*
X20528571Y4903334D01*
X20528571Y4903334D02*
X20480952Y4712858D01*
X20480952Y4712858D02*
X20433333Y4617620D01*
X20433333Y4617620D02*
X20385714Y4570000D01*
X20385714Y4570000D02*
X20290476Y4522381D01*
X20290476Y4522381D02*
X20195238Y4522381D01*
X20195238Y4522381D02*
X20100000Y4570000D01*
X20100000Y4570000D02*
X20052381Y4617620D01*
X20052381Y4617620D02*
X20004762Y4712858D01*
X20004762Y4712858D02*
X19957143Y4903334D01*
X19957143Y4903334D02*
X19957143Y5141429D01*
X19957143Y5141429D02*
X20004762Y5331905D01*
X20004762Y5331905D02*
X20052381Y5427143D01*
X20052381Y5427143D02*
X20100000Y5474762D01*
X20100000Y5474762D02*
X20195238Y5522381D01*
D14*
%TO.C,J4*%
X14590000Y1590000D02*
X14590000Y2700000D01*
X15350000Y1590000D02*
X14590000Y1590000D01*
X16110000Y1590000D02*
X17315000Y1590000D01*
X16110000Y1590000D02*
X16110000Y2136529D01*
X17315000Y1590000D02*
X17315000Y2392470D01*
X17315000Y3007530D02*
X17315000Y3810000D01*
X16110000Y3263471D02*
X16110000Y3810000D01*
X16110000Y3810000D02*
X17315000Y3810000D01*
%TO.C,R4*%
X14681711Y11768593D02*
X14464430Y11985874D01*
X15219112Y12305994D02*
X15001831Y12523275D01*
%TO.C,JP2*%
X9600000Y13400000D02*
X9600000Y14000000D01*
X10300000Y14700000D02*
X11700000Y14700000D01*
X11700000Y12700000D02*
X10300000Y12700000D01*
X12400000Y14000000D02*
X12400000Y13400000D01*
X10300000Y14700000D02*
G75*
G03*
X9600000Y14000000I-1J-699999D01*
G01*
X9600000Y13400000D02*
G75*
G03*
X10300000Y12700000I699999J-1D01*
G01*
X12400000Y14000000D02*
G75*
G03*
X11700000Y14700000I-700000J0D01*
G01*
X11700000Y12700000D02*
G75*
G03*
X12400000Y13400000I0J700000D01*
G01*
%TO.C,R5*%
X9302550Y9972542D02*
X9519831Y10189823D01*
X9839951Y9435141D02*
X10057232Y9652422D01*
%TO.C,JP1*%
X9600000Y15900000D02*
X9600000Y16500000D01*
X10300000Y17200000D02*
X11700000Y17200000D01*
X11700000Y15200000D02*
X10300000Y15200000D01*
X12400000Y16500000D02*
X12400000Y15900000D01*
X10300000Y17200000D02*
G75*
G03*
X9600000Y16500000I-1J-699999D01*
G01*
X9600000Y15900000D02*
G75*
G03*
X10300000Y15200000I699999J-1D01*
G01*
X12400000Y16500000D02*
G75*
G03*
X11700000Y17200000I-700000J0D01*
G01*
X11700000Y15200000D02*
G75*
G03*
X12400000Y15900000I0J700000D01*
G01*
%TO.C,C4*%
X15230810Y5721693D02*
X15078307Y5569190D01*
X14721693Y6230810D02*
X14569190Y6078307D01*
%TO.C,R1*%
X16439940Y10722659D02*
X16222659Y10939940D01*
X16977341Y11260060D02*
X16760060Y11477341D01*
%TO.C,TP12*%
X6200000Y10500000D02*
G75*
G03*
X6200000Y10500000I-700000J0D01*
G01*
%TO.C,R3*%
X13050216Y11598887D02*
X13267497Y11816168D01*
X13587617Y11061486D02*
X13804898Y11278767D01*
%TO.C,TP10*%
X3700000Y5000000D02*
G75*
G03*
X3700000Y5000000I-700000J0D01*
G01*
%TO.C,R2*%
X15942283Y8848242D02*
X16159564Y9065523D01*
X16479684Y8310841D02*
X16696965Y8528122D01*
%TO.C,JP4*%
X10900000Y4200000D02*
X11500000Y4200000D01*
X12200000Y3500000D02*
X12200000Y2100000D01*
X10200000Y2100000D02*
X10200000Y3500000D01*
X11500000Y1400000D02*
X10900000Y1400000D01*
X12200000Y3500000D02*
G75*
G03*
X11500000Y4200000I-699999J1D01*
G01*
X10900000Y4200000D02*
G75*
G03*
X10200000Y3500000I-1J-699999D01*
G01*
X11500000Y1400000D02*
G75*
G03*
X12200000Y2100000I0J700000D01*
G01*
X10200000Y2100000D02*
G75*
G03*
X10900000Y1400000I700000J0D01*
G01*
%TO.C,kibuzzard-63F61033*%
G36*
X965711Y9060132D02*
G01*
X965711Y8880110D01*
X884987Y8925830D01*
X847125Y9017984D01*
X867127Y9089422D01*
X919991Y9114425D01*
X965711Y9060132D01*
G37*
G36*
X1098585Y5521833D02*
G01*
X1137161Y5433965D01*
X1099299Y5343954D01*
X1014288Y5306806D01*
X927135Y5341811D01*
X887130Y5433251D01*
X927135Y5523262D01*
X1013574Y5556838D01*
X1098585Y5521833D01*
G37*
G36*
X1086440Y6728413D02*
G01*
X1124302Y6641973D01*
X1087155Y6553391D01*
X1003573Y6516958D01*
X918562Y6551248D01*
X879986Y6641259D01*
X919277Y6729841D01*
X1003573Y6762703D01*
X1086440Y6728413D01*
G37*
G36*
X1833439Y9821656D02*
G01*
X1833439Y9020127D01*
X1833439Y8392906D01*
X1833439Y7754255D01*
X1833439Y6644116D01*
X1833439Y6054043D01*
X1833439Y5703284D01*
X1833439Y5056775D01*
X1833439Y4818650D01*
X1833439Y4318588D01*
X166563Y4818650D01*
X166563Y5056775D01*
X166563Y5679710D01*
X637098Y5679710D01*
X657101Y5599343D01*
X717108Y5566839D01*
X687819Y5541121D01*
X655672Y5485400D01*
X638527Y5396818D01*
X650989Y5314347D01*
X688375Y5236480D01*
X750684Y5163217D01*
X829583Y5104083D01*
X916737Y5068602D01*
X1012145Y5056775D01*
X1107633Y5068523D01*
X1195025Y5103765D01*
X1274321Y5162503D01*
X1337027Y5234972D01*
X1374651Y5311410D01*
X1387192Y5391817D01*
X1368261Y5497723D01*
X1311468Y5568268D01*
X1367904Y5598986D01*
X1387192Y5703284D01*
X1377905Y5766685D01*
X1350045Y5801154D01*
X1312183Y5813298D01*
X1262891Y5815441D01*
X762828Y5815441D01*
X713537Y5813298D01*
X675675Y5800439D01*
X645671Y5762578D01*
X637098Y5679710D01*
X166563Y5679710D01*
X166563Y6055471D01*
X285626Y6055471D01*
X295270Y5981891D01*
X324202Y5944029D01*
X360635Y5931884D01*
X409927Y5929741D01*
X459219Y5931884D01*
X497081Y5944743D01*
X527085Y5982605D01*
X535657Y6054757D01*
X535572Y6055471D01*
X638527Y6055471D01*
X638617Y6054757D01*
X647814Y5981891D01*
X675675Y5944029D01*
X713537Y5931884D01*
X762828Y5929741D01*
X1264320Y5929741D01*
X1314326Y5931884D01*
X1351474Y5944029D01*
X1380406Y5981533D01*
X1390050Y6054043D01*
X1380763Y6127266D01*
X1352902Y6164056D01*
X1315040Y6177629D01*
X1265748Y6179773D01*
X765686Y6179773D01*
X724252Y6178344D01*
X662816Y6152626D01*
X638527Y6055471D01*
X535572Y6055471D01*
X527085Y6126909D01*
X497795Y6164771D01*
X460648Y6177629D01*
X411356Y6179773D01*
X362064Y6177629D01*
X324202Y6164056D01*
X295270Y6127623D01*
X285626Y6055471D01*
X166563Y6055471D01*
X166563Y6882718D01*
X634241Y6882718D01*
X654958Y6801993D01*
X715680Y6772704D01*
X687819Y6749129D01*
X654958Y6694123D01*
X637098Y6605540D01*
X649322Y6524895D01*
X685993Y6448695D01*
X747112Y6376940D01*
X824423Y6318996D01*
X909672Y6284230D01*
X1002858Y6272641D01*
X1095965Y6284151D01*
X1180976Y6318679D01*
X1257890Y6376226D01*
X1318612Y6446949D01*
X1355045Y6521006D01*
X1367190Y6598396D01*
X1349330Y6700909D01*
X1295752Y6771275D01*
X1338615Y6771275D01*
X1441485Y6736985D01*
X1484347Y6648403D01*
X1471131Y6571250D01*
X1431484Y6499813D01*
X1414339Y6458379D01*
X1425769Y6423374D01*
X1467202Y6381226D01*
X1565786Y6338364D01*
X1611149Y6363010D01*
X1661512Y6436948D01*
X1701160Y6538032D01*
X1714376Y6644116D01*
X1703184Y6736191D01*
X1669609Y6821916D01*
X1613649Y6901291D01*
X1539434Y6964791D01*
X1451089Y7002891D01*
X1348616Y7015591D01*
X757113Y7015591D01*
X708536Y7013448D01*
X672103Y7000589D01*
X642813Y6964156D01*
X634241Y6882718D01*
X166563Y6882718D01*
X166563Y7255621D01*
X285626Y7255621D01*
X295270Y7182041D01*
X324202Y7144179D01*
X360635Y7132034D01*
X409927Y7129891D01*
X1264320Y7129891D01*
X1314326Y7132034D01*
X1351474Y7144179D01*
X1380406Y7181683D01*
X1390050Y7254193D01*
X1380763Y7327416D01*
X1352902Y7364206D01*
X1315040Y7377779D01*
X1265748Y7379923D01*
X988571Y7379923D01*
X919277Y7424214D01*
X888558Y7513511D01*
X921420Y7597093D01*
X1012860Y7629954D01*
X1262891Y7629954D01*
X1314326Y7632097D01*
X1352902Y7645670D01*
X1380763Y7683532D01*
X1390050Y7754255D01*
X1380763Y7827478D01*
X1352902Y7864269D01*
X1315040Y7877842D01*
X1265748Y7879985D01*
X1014288Y7879985D01*
X914911Y7869428D01*
X826328Y7837758D01*
X748541Y7784973D01*
X688216Y7716314D01*
X652021Y7637018D01*
X639956Y7547086D01*
X661744Y7457432D01*
X727110Y7379923D01*
X411356Y7379923D01*
X362064Y7377779D01*
X324202Y7364206D01*
X295270Y7327773D01*
X285626Y7255621D01*
X166563Y7255621D01*
X166563Y8215741D01*
X379923Y8215741D01*
X388853Y8142518D01*
X415642Y8105728D01*
X449932Y8092154D01*
X498510Y8090011D01*
X645671Y8090011D01*
X639956Y8042863D01*
X658530Y7985713D01*
X696392Y7965710D01*
X781402Y7958566D01*
X864270Y7979283D01*
X888558Y8031433D01*
X884272Y8090011D01*
X1095727Y8090011D01*
X1192089Y8098584D01*
X1267812Y8124301D01*
X1322898Y8167164D01*
X1360205Y8226536D01*
X1382588Y8301784D01*
X1390050Y8392906D01*
X1387907Y8440769D01*
X1375762Y8478631D01*
X1338258Y8508635D01*
X1265748Y8518636D01*
X1170022Y8485775D01*
X1156449Y8447913D01*
X1154306Y8396478D01*
X1137161Y8350758D01*
X1081440Y8338614D01*
X884272Y8338614D01*
X889987Y8431483D01*
X887844Y8480774D01*
X875700Y8518636D01*
X838195Y8547568D01*
X765686Y8557213D01*
X692463Y8547926D01*
X655672Y8520065D01*
X642099Y8482203D01*
X639956Y8433626D01*
X645671Y8338614D01*
X505653Y8338614D01*
X432787Y8331470D01*
X393139Y8293251D01*
X379923Y8215741D01*
X166563Y8215741D01*
X166563Y9021556D01*
X621382Y9021556D01*
X633368Y8911781D01*
X669325Y8814864D01*
X729253Y8730806D01*
X809183Y8666115D01*
X905148Y8627301D01*
X1017146Y8614363D01*
X1109380Y8624364D01*
X1195581Y8654368D01*
X1275750Y8704374D01*
X1329864Y8759202D01*
X1372190Y8832247D01*
X1399515Y8920294D01*
X1408624Y9020127D01*
X1400676Y9153269D01*
X1376834Y9248370D01*
X1337097Y9305431D01*
X1281465Y9324451D01*
X1215742Y9305878D01*
X1151449Y9227296D01*
X1167165Y9170146D01*
X1172880Y9154430D01*
X1185739Y9098352D01*
X1190025Y9024414D01*
X1162879Y8930116D01*
X1095727Y8882967D01*
X1095727Y9221581D01*
X1053579Y9318022D01*
X1000001Y9350705D01*
X923563Y9361599D01*
X839088Y9349454D01*
X761400Y9313021D01*
X700142Y9259979D01*
X656387Y9193721D01*
X630133Y9114246D01*
X621382Y9021556D01*
X166563Y9021556D01*
X166563Y9818799D01*
X628526Y9818799D01*
X639003Y9731010D01*
X670436Y9646714D01*
X722823Y9565910D01*
X775866Y9512689D01*
X843553Y9470184D01*
X922849Y9442323D01*
X1010717Y9433036D01*
X1098942Y9442323D01*
X1179309Y9470184D01*
X1248068Y9512689D01*
X1301467Y9565910D01*
X1354649Y9648936D01*
X1386557Y9734185D01*
X1397194Y9821656D01*
X1382906Y9930956D01*
X1340043Y10021681D01*
X1291109Y10080617D01*
X1238602Y10100263D01*
X1164307Y10067401D01*
X1107514Y10010608D01*
X1088583Y9963103D01*
X1115015Y9899523D01*
X1141447Y9815227D01*
X1107872Y9730216D01*
X1013574Y9690211D01*
X918562Y9731645D01*
X884272Y9820942D01*
X908561Y9894523D01*
X939993Y9971675D01*
X920348Y10019895D01*
X861412Y10070259D01*
X779259Y10100263D01*
X714251Y10063115D01*
X687105Y10023110D01*
X672817Y10000250D01*
X643528Y9924526D01*
X628526Y9818799D01*
X166563Y9818799D01*
X166563Y10318861D01*
X285626Y10318861D01*
X295270Y10245281D01*
X324202Y10207419D01*
X360635Y10195274D01*
X409927Y10193131D01*
X1264320Y10193131D01*
X1314326Y10195274D01*
X1351474Y10207419D01*
X1380406Y10244923D01*
X1390050Y10317433D01*
X1380763Y10390656D01*
X1352902Y10427446D01*
X1315040Y10441019D01*
X1265748Y10443162D01*
X988571Y10443162D01*
X919277Y10487454D01*
X888558Y10576751D01*
X921420Y10660332D01*
X1012860Y10693194D01*
X1262891Y10693194D01*
X1314326Y10695337D01*
X1352902Y10708910D01*
X1380763Y10746772D01*
X1390050Y10817495D01*
X1380763Y10890718D01*
X1352902Y10927509D01*
X1315040Y10941082D01*
X1265748Y10943225D01*
X1014288Y10943225D01*
X914911Y10932668D01*
X826328Y10900998D01*
X748541Y10848213D01*
X688216Y10779554D01*
X652021Y10700258D01*
X639956Y10610326D01*
X661744Y10520672D01*
X727110Y10443162D01*
X411356Y10443162D01*
X362064Y10441019D01*
X324202Y10427446D01*
X295270Y10391013D01*
X285626Y10318861D01*
X166563Y10318861D01*
X166563Y10943225D01*
X166563Y11181350D01*
X166563Y11681413D01*
X1833439Y11181350D01*
X1833439Y10943225D01*
X1833439Y10817495D01*
X1833439Y9821656D01*
G37*
%TO.C,C3*%
X11399691Y10627185D02*
X11552194Y10779688D01*
X11908808Y10118068D02*
X12061311Y10270571D01*
%TO.C,JP3*%
X5100000Y4200000D02*
X5700000Y4200000D01*
X6400000Y3500000D02*
X6400000Y2100000D01*
X4400000Y2100000D02*
X4400000Y3500000D01*
X5700000Y1400000D02*
X5100000Y1400000D01*
X6400000Y3500000D02*
G75*
G03*
X5700000Y4200000I-699999J1D01*
G01*
X5100000Y4200000D02*
G75*
G03*
X4400000Y3500000I-1J-699999D01*
G01*
X5700000Y1400000D02*
G75*
G03*
X6400000Y2100000I0J700000D01*
G01*
X4400000Y2100000D02*
G75*
G03*
X5100000Y1400000I700000J0D01*
G01*
%TO.C,J1*%
X13890000Y16860000D02*
X15000000Y16860000D01*
X13890000Y16100000D02*
X13890000Y16860000D01*
X13890000Y15340000D02*
X13890000Y14135000D01*
X13890000Y15340000D02*
X14436529Y15340000D01*
X13890000Y14135000D02*
X14692470Y14135000D01*
X15307530Y14135000D02*
X16110000Y14135000D01*
X15563471Y15340000D02*
X16110000Y15340000D01*
X16110000Y15340000D02*
X16110000Y14135000D01*
%TO.C,R7*%
X15360060Y10077341D02*
X15577341Y9860060D01*
X14822659Y9539940D02*
X15039940Y9322659D01*
%TO.C,J3*%
X7190000Y6860000D02*
X8300000Y6860000D01*
X7190000Y6100000D02*
X7190000Y6860000D01*
X7190000Y5340000D02*
X7190000Y1595000D01*
X7190000Y5340000D02*
X7736529Y5340000D01*
X7190000Y1595000D02*
X7992470Y1595000D01*
X8607530Y1595000D02*
X9410000Y1595000D01*
X8863471Y5340000D02*
X9410000Y5340000D01*
X9410000Y5340000D02*
X9410000Y1595000D01*
%TO.C,U1*%
X12800000Y5323116D02*
X12464124Y5658992D01*
X13135876Y5658992D02*
X12800000Y5323116D01*
X12464124Y9541008D02*
X12800000Y9876884D01*
X14741008Y7264124D02*
X15076884Y7600000D01*
X12800000Y9876884D02*
X13135876Y9541008D01*
X15076884Y7600000D02*
X14741008Y7935876D01*
X10523116Y7600000D02*
X10858992Y7935876D01*
X10858992Y7935876D02*
X11194868Y7600000D01*
X11194868Y7600000D02*
X10858992Y7264124D01*
X10858992Y7264124D02*
X10523116Y7600000D01*
G36*
X10523116Y7600000D02*
G01*
X10858992Y7935876D01*
X11194868Y7600000D01*
X10858992Y7264124D01*
X10523116Y7600000D01*
G37*
%TO.C,C5*%
X16330810Y5321693D02*
X16178307Y5169190D01*
X15821693Y5830810D02*
X15669190Y5678307D01*
%TO.C,C6*%
X16078307Y10730810D02*
X16230810Y10578307D01*
X15569190Y10221693D02*
X15721693Y10069190D01*
%TO.C,R6*%
X11400735Y10995924D02*
X11183454Y10778643D01*
X10863334Y11533325D02*
X10646053Y11316044D01*
%TO.C,C1*%
X13803854Y10910027D02*
X13956357Y11062530D01*
X14312971Y10400910D02*
X14465474Y10553413D01*
%TO.C,J2*%
X6140000Y16980000D02*
X7250000Y16980000D01*
X6140000Y16220000D02*
X6140000Y16980000D01*
X6140000Y15460000D02*
X6140000Y14255000D01*
X6140000Y15460000D02*
X6686529Y15460000D01*
X6140000Y14255000D02*
X6942470Y14255000D01*
X7557530Y14255000D02*
X8360000Y14255000D01*
X7813471Y15460000D02*
X8360000Y15460000D01*
X8360000Y15460000D02*
X8360000Y14255000D01*
%TO.C,C2*%
X10717808Y8927068D02*
X10565305Y8774565D01*
X10208691Y9436185D02*
X10056188Y9283682D01*
%TD*%
%LPC*%
D15*
%TO.C,J4*%
X15350000Y2700000D03*
D16*
X16620000Y2700000D03*
%TD*%
D17*
%TO.C,R4*%
X15202395Y11785310D03*
X14481147Y12506558D03*
%TD*%
D18*
%TO.C,JP2*%
X10350000Y13700000D03*
D19*
X11650000Y13700000D03*
%TD*%
D20*
%TO.C,R5*%
X9319267Y9451858D03*
X10040515Y10173106D03*
%TD*%
D21*
%TO.C,J5*%
X4500000Y8500000D03*
%TD*%
D18*
%TO.C,JP1*%
X10350000Y16200000D03*
D19*
X11650000Y16200000D03*
%TD*%
D22*
%TO.C,C4*%
X15239411Y6239411D03*
X14560589Y5560589D03*
%TD*%
D21*
%TO.C,J9*%
X20000000Y13500000D03*
%TD*%
%TO.C,J7*%
X5500000Y10500000D03*
%TD*%
D17*
%TO.C,R1*%
X16960624Y10739376D03*
X16239376Y11460624D03*
%TD*%
D23*
%TO.C,TP12*%
X5500000Y10500000D03*
%TD*%
D20*
%TO.C,R3*%
X13066933Y11078203D03*
X13788181Y11799451D03*
%TD*%
D23*
%TO.C,TP10*%
X3000000Y5000000D03*
%TD*%
D21*
%TO.C,J8*%
X3000000Y5000000D03*
%TD*%
D20*
%TO.C,R2*%
X15959000Y8327558D03*
X16680248Y9048806D03*
%TD*%
D24*
%TO.C,JP4*%
X11200000Y3450000D03*
D25*
X11200000Y2150000D03*
%TD*%
D21*
%TO.C,J9*%
X20000000Y11500000D03*
%TD*%
D26*
%TO.C,C3*%
X11391090Y10109467D03*
X12069912Y10788289D03*
%TD*%
D27*
%TO.C,I4*%
X2000000Y16500000D03*
%TD*%
D24*
%TO.C,JP3*%
X5400000Y3450000D03*
D25*
X5400000Y2150000D03*
%TD*%
D15*
%TO.C,J1*%
X15000000Y16100000D03*
D16*
X15000000Y14830000D03*
%TD*%
D28*
%TO.C,R7*%
X14839376Y10060624D03*
X15560624Y9339376D03*
%TD*%
D21*
%TO.C,J10*%
X18200000Y12700000D03*
%TD*%
%TO.C,J11*%
X3000000Y7000000D03*
%TD*%
D27*
%TO.C,I2*%
X20000000Y2000000D03*
%TD*%
D15*
%TO.C,J3*%
X8300000Y6100000D03*
D16*
X8300000Y4830000D03*
X8300000Y3560000D03*
X8300000Y2290000D03*
%TD*%
D29*
%TO.C,U1*%
X11217849Y7078509D03*
X11571402Y6724955D03*
X11924955Y6371402D03*
X12278509Y6017849D03*
D30*
X13321491Y6017849D03*
X13675045Y6371402D03*
X14028598Y6724955D03*
X14382151Y7078509D03*
D29*
X14382151Y8121491D03*
X14028598Y8475045D03*
X13675045Y8828598D03*
X13321491Y9182151D03*
D30*
X12278509Y9182151D03*
X11924955Y8828598D03*
X11571402Y8475045D03*
X11217849Y8121491D03*
D31*
X12800000Y7600000D03*
%TD*%
D22*
%TO.C,C5*%
X16339411Y5839411D03*
X15660589Y5160589D03*
%TD*%
D32*
%TO.C,C6*%
X15560589Y10739411D03*
X16239411Y10060589D03*
%TD*%
D33*
%TO.C,R6*%
X11384018Y11516608D03*
X10662770Y10795360D03*
%TD*%
D26*
%TO.C,C1*%
X13795253Y10392309D03*
X14474075Y11071131D03*
%TD*%
D15*
%TO.C,J2*%
X7250000Y16220000D03*
D16*
X7250000Y14950000D03*
%TD*%
D22*
%TO.C,C2*%
X10726409Y9444786D03*
X10047587Y8765964D03*
%TD*%
D27*
%TO.C,I3*%
X20000000Y16500000D03*
%TD*%
D21*
%TO.C,J6*%
X5000000Y6000000D03*
%TD*%
D27*
%TO.C,I1*%
X2000000Y2000000D03*
%TD*%
%LPD*%
M02*
