%TF.GenerationSoftware,KiCad,Pcbnew,9.0.6-9.0.6~ubuntu24.04.1*%
%TF.CreationDate,2026-01-03T12:55:21+00:00*%
%TF.ProjectId,COM_MOD,434f4d5f-4d4f-4442-9e6b-696361645f70,1.0*%
%TF.SameCoordinates,Original*%
%TF.FileFunction,Copper,L4,Bot*%
%TF.FilePolarity,Positive*%
%FSLAX46Y46*%
G04 Gerber Fmt 4.6, Leading zero omitted, Abs format (unit mm)*
G04 Created by KiCad (PCBNEW 9.0.6-9.0.6~ubuntu24.04.1) date 2026-01-03 12:55:21*
%MOMM*%
%LPD*%
G01*
G04 APERTURE LIST*
G04 Aperture macros list*
%AMRoundRect*
0 Rectangle with rounded corners*
0 $1 Rounding radius*
0 $2 $3 $4 $5 $6 $7 $8 $9 X,Y pos of 4 corners*
0 Add a 4 corners polygon primitive as box body*
4,1,4,$2,$3,$4,$5,$6,$7,$8,$9,$2,$3,0*
0 Add four circle primitives for the rounded corners*
1,1,$1+$1,$2,$3*
1,1,$1+$1,$4,$5*
1,1,$1+$1,$6,$7*
1,1,$1+$1,$8,$9*
0 Add four rect primitives between the rounded corners*
20,1,$1+$1,$2,$3,$4,$5,0*
20,1,$1+$1,$4,$5,$6,$7,0*
20,1,$1+$1,$6,$7,$8,$9,0*
20,1,$1+$1,$8,$9,$2,$3,0*%
G04 Aperture macros list end*
%TA.AperFunction,ComponentPad*%
%ADD10R,1.000000X1.000000*%
%TD*%
%TA.AperFunction,CastellatedPad*%
%ADD11R,1.700000X1.700000*%
%TD*%
%TA.AperFunction,SMDPad,CuDef*%
%ADD12R,0.700000X0.900000*%
%TD*%
%TA.AperFunction,SMDPad,CuDef*%
%ADD13R,0.300000X1.250000*%
%TD*%
%TA.AperFunction,SMDPad,CuDef*%
%ADD14R,2.000000X2.500000*%
%TD*%
%TA.AperFunction,SMDPad,CuDef*%
%ADD15C,3.000000*%
%TD*%
%TA.AperFunction,SMDPad,CuDef*%
%ADD16RoundRect,0.135000X-0.135000X-0.185000X0.135000X-0.185000X0.135000X0.185000X-0.135000X0.185000X0*%
%TD*%
%TA.AperFunction,SMDPad,CuDef*%
%ADD17R,1.230000X1.360000*%
%TD*%
%TA.AperFunction,ViaPad*%
%ADD18C,0.400000*%
%TD*%
%TA.AperFunction,Conductor*%
%ADD19C,0.127000*%
%TD*%
G04 APERTURE END LIST*
D10*
%TO.P,J17,1,Pin_1*%
%TO.N,/I2C_SDA*%
X32889999Y-35032500D03*
%TD*%
D11*
%TO.P,J24,1,Pin_1*%
%TO.N,GND*%
X24564999Y-37262500D03*
%TD*%
D10*
%TO.P,J5,1,Pin_1*%
%TO.N,/POCI*%
X25680000Y-27262500D03*
%TD*%
%TO.P,J4,1,Pin_1*%
%TO.N,/IO1_out*%
X25680000Y-22182500D03*
%TD*%
D11*
%TO.P,J25,1,Pin_1*%
%TO.N,GND*%
X28064999Y-37262500D03*
%TD*%
D10*
%TO.P,J3,1,Pin_1*%
%TO.N,/AUX3*%
X24410000Y-22182500D03*
%TD*%
%TO.P,J19,1,Pin_1*%
%TO.N,/AUX1*%
X20600000Y-27262500D03*
%TD*%
%TO.P,J22,1,Pin_1*%
%TO.N,GND*%
X27809999Y-33762500D03*
%TD*%
%TO.P,J20,1,Pin_1*%
%TO.N,/AUX2*%
X32030000Y-27262500D03*
%TD*%
%TO.P,J2,1,Pin_1*%
%TO.N,GND*%
X23140000Y-27262500D03*
%TD*%
%TO.P,J12,1,Pin_1*%
%TO.N,/SWDIO{slash}POCI_ARM*%
X31619999Y-33762500D03*
%TD*%
%TO.P,J10,1,Pin_1*%
%TO.N,/I2C_SDA*%
X26950000Y-22182500D03*
%TD*%
%TO.P,J8,1,Pin_1*%
%TO.N,/CSB*%
X29490000Y-27262500D03*
%TD*%
%TO.P,J1,1,Pin_1*%
%TO.N,+3.3V*%
X21870000Y-27262500D03*
%TD*%
%TO.P,J15,1,Pin_1*%
%TO.N,/SPICS_ARM*%
X30349999Y-35032500D03*
%TD*%
%TO.P,J14,1,Pin_1*%
%TO.N,/SCLK_ARM*%
X29079999Y-33762500D03*
%TD*%
%TO.P,J18,1,Pin_1*%
%TO.N,/AIN0*%
X27809999Y-35032500D03*
%TD*%
%TO.P,J13,1,Pin_1*%
%TO.N,/PICO_ARM*%
X30350000Y-33762500D03*
%TD*%
D11*
%TO.P,J26,1,Pin_1*%
%TO.N,GND*%
X26314999Y-37262500D03*
%TD*%
D10*
%TO.P,J7,1,Pin_1*%
%TO.N,/SCLK*%
X28220000Y-27262500D03*
%TD*%
%TO.P,J21,1,Pin_1*%
%TO.N,/GPIO*%
X29079999Y-35032500D03*
%TD*%
%TO.P,J16,1,Pin_1*%
%TO.N,/i2C_SCL*%
X31619999Y-35032500D03*
%TD*%
%TO.P,J11,1,Pin_1*%
%TO.N,/IO1_out*%
X32889999Y-33762500D03*
%TD*%
%TO.P,J23,1,Pin_1*%
%TO.N,/i2C_SCL*%
X28220000Y-22182500D03*
%TD*%
%TO.P,J6,1,Pin_1*%
%TO.N,/PICO*%
X26950000Y-27262500D03*
%TD*%
%TO.P,J9,1,Pin_1*%
%TO.N,/extRef*%
X30760000Y-27262500D03*
%TD*%
D12*
%TO.P,LED2,1,DO*%
%TO.N,/LED_OUT*%
X19765000Y-29342500D03*
%TO.P,LED2,2,GND*%
%TO.N,GND*%
X20865000Y-29342500D03*
%TO.P,LED2,3,DI*%
%TO.N,Net-(LED1-DO)*%
X20865000Y-31182500D03*
%TO.P,LED2,4,VDD*%
%TO.N,+3.3V*%
X19765000Y-31182500D03*
%TD*%
D13*
%TO.P,FPC1,1,1*%
%TO.N,/AUX1*%
X22065000Y-25402500D03*
%TO.P,FPC1,2,2*%
%TO.N,+3.3V*%
X22565000Y-25402500D03*
%TO.P,FPC1,3,3*%
%TO.N,GND*%
X23065000Y-25402500D03*
%TO.P,FPC1,4,4*%
%TO.N,/AUX3*%
X23565000Y-25402500D03*
%TO.P,FPC1,5,5*%
%TO.N,/addr_bus_0*%
X24065000Y-25402500D03*
%TO.P,FPC1,6,6*%
%TO.N,/addr_bus_1*%
X24565000Y-25402500D03*
%TO.P,FPC1,7,7*%
%TO.N,/addr_bus_2*%
X25065000Y-25402500D03*
%TO.P,FPC1,8,8*%
%TO.N,/addr_bus_3*%
X25565000Y-25402500D03*
%TO.P,FPC1,9,9*%
%TO.N,/addr_bus_4*%
X26065000Y-25402500D03*
%TO.P,FPC1,10,10*%
%TO.N,/POCI*%
X26565000Y-25402500D03*
%TO.P,FPC1,11,11*%
%TO.N,/PICO*%
X27065000Y-25402500D03*
%TO.P,FPC1,12,12*%
%TO.N,/SCLK*%
X27565000Y-25402500D03*
%TO.P,FPC1,13,13*%
%TO.N,/IO1_in*%
X28065000Y-25402500D03*
%TO.P,FPC1,14,14*%
%TO.N,/IO2*%
X28565000Y-25402500D03*
%TO.P,FPC1,15,15*%
%TO.N,/I2C_SDA*%
X29065000Y-25402500D03*
%TO.P,FPC1,16,16*%
%TO.N,/i2C_SCL*%
X29565000Y-25402500D03*
%TO.P,FPC1,17,17*%
%TO.N,/AUX2*%
X30065000Y-25402500D03*
%TO.P,FPC1,18,18*%
%TO.N,/extRef*%
X30565000Y-25402500D03*
D14*
%TO.P,FPC1,19,19*%
%TO.N,GND*%
X20375000Y-22822500D03*
%TO.P,FPC1,20,20*%
X32255000Y-22862500D03*
%TD*%
D15*
%TO.P,I1,1,conn*%
%TO.N,GND*%
X26314999Y-30762500D03*
%TD*%
D12*
%TO.P,LED1,1,DO*%
%TO.N,Net-(LED1-DO)*%
X32865000Y-31182500D03*
%TO.P,LED1,2,GND*%
%TO.N,GND*%
X31765000Y-31182500D03*
%TO.P,LED1,3,DI*%
%TO.N,/LED_IN*%
X31765000Y-29342500D03*
%TO.P,LED1,4,VDD*%
%TO.N,+3.3V*%
X32865000Y-29342500D03*
%TD*%
D16*
%TO.P,R1,1*%
%TO.N,+3.3V*%
X19904999Y-32262500D03*
%TO.P,R1,2*%
%TO.N,/GPIO*%
X20924999Y-32262500D03*
%TD*%
D17*
%TO.P,SW1,1,1*%
%TO.N,/GPIO*%
X24694999Y-34662500D03*
%TO.P,SW1,2,2*%
%TO.N,GND*%
X20334999Y-34662500D03*
%TD*%
D18*
%TO.N,GND*%
X27014999Y-31262500D03*
X27514999Y-30962500D03*
X19414999Y-28462500D03*
X23514999Y-30662500D03*
X21614999Y-35462500D03*
X30064999Y-30612500D03*
X31664999Y-22012500D03*
X32864999Y-23712500D03*
X25564999Y-31512500D03*
X23514999Y-29862500D03*
X26314999Y-31012500D03*
X27014999Y-30662500D03*
X31664999Y-23712500D03*
X21777499Y-28625000D03*
X27014999Y-30062500D03*
X23514999Y-31362500D03*
X30764999Y-31362500D03*
X30764999Y-30612500D03*
X20964999Y-23712500D03*
X32255000Y-22862500D03*
X19764999Y-23712500D03*
X32864999Y-22012500D03*
X30064999Y-31362500D03*
X20964999Y-22012500D03*
X20375000Y-22862500D03*
X23914999Y-35662500D03*
X19764999Y-22012500D03*
%TO.N,/addr_bus_0*%
X24064999Y-24412500D03*
%TO.N,/addr_bus_1*%
X24564999Y-24112500D03*
%TO.N,/addr_bus_2*%
X25064999Y-24412500D03*
%TO.N,/addr_bus_3*%
X25564999Y-24112500D03*
%TO.N,/addr_bus_4*%
X26064999Y-24412500D03*
%TO.N,/i2C_SCL*%
X29564999Y-24412500D03*
X32604999Y-30172500D03*
%TO.N,/I2C_SDA*%
X29064999Y-24112500D03*
%TO.N,/IO1_in*%
X32375000Y-28262500D03*
%TO.N,/IO2*%
X28564999Y-24412500D03*
%TO.N,/AUX3*%
X23565000Y-24112500D03*
%TO.N,/LED_IN*%
X31765000Y-29347500D03*
%TO.N,+3.3V*%
X28314999Y-28812500D03*
%TO.N,/addr_mod_0*%
X21754999Y-30232500D03*
X33044999Y-31992500D03*
%TO.N,/addr_mod_1*%
X21854999Y-31502500D03*
X32364999Y-32212500D03*
%TO.N,/addr_mod_2*%
X22014999Y-32862500D03*
X32574999Y-32792500D03*
%TO.N,/addr_mod_3*%
X23514999Y-32262500D03*
X28314999Y-30562500D03*
%TO.N,/IO1_out*%
X33114999Y-32552500D03*
%TD*%
D19*
%TO.N,GND*%
X20865000Y-29347500D02*
X21054999Y-29347500D01*
X20329999Y-30359501D02*
X20329999Y-34662500D01*
X30579999Y-31177500D02*
X30764999Y-31362500D01*
X23065000Y-25437500D02*
X23065000Y-27187500D01*
X30949999Y-31177500D02*
X31765000Y-31177500D01*
X21054999Y-29347500D02*
X21777499Y-28625000D01*
X20865000Y-29347500D02*
X20865000Y-29824500D01*
X23065000Y-27187500D02*
X23140000Y-27262500D01*
X30479999Y-31177500D02*
X30579999Y-31177500D01*
X20865000Y-29824500D02*
X20329999Y-30359501D01*
X30764999Y-31362500D02*
X30949999Y-31177500D01*
%TO.N,/POCI*%
X26565000Y-25437500D02*
X26565000Y-26262500D01*
X26565000Y-26262500D02*
X25680000Y-27147500D01*
X25680000Y-27147500D02*
X25680000Y-27262500D01*
%TO.N,/PICO*%
X27065000Y-27147500D02*
X26950000Y-27262500D01*
X27065000Y-25437500D02*
X27065000Y-27147500D01*
%TO.N,/SCLK*%
X27565000Y-26262500D02*
X28220000Y-26917500D01*
X28220000Y-26917500D02*
X28220000Y-27262500D01*
X27565000Y-25437500D02*
X27565000Y-26262500D01*
%TO.N,/extRef*%
X30565000Y-27067500D02*
X30760000Y-27262500D01*
X30565000Y-25437500D02*
X30565000Y-27067500D01*
%TO.N,/addr_bus_0*%
X24065000Y-25437500D02*
X24064999Y-24412500D01*
%TO.N,/addr_bus_1*%
X24565000Y-25437500D02*
X24564999Y-24112500D01*
%TO.N,/addr_bus_2*%
X25065000Y-25437500D02*
X25064999Y-24412500D01*
%TO.N,/addr_bus_3*%
X25565000Y-25437500D02*
X25564999Y-24112500D01*
%TO.N,/addr_bus_4*%
X26065000Y-25437500D02*
X26064999Y-24412500D01*
%TO.N,/i2C_SCL*%
X29564999Y-24412500D02*
X29565000Y-25437500D01*
X33165000Y-30172500D02*
X33548499Y-30555999D01*
X32604999Y-30172500D02*
X33165000Y-30172500D01*
X33548499Y-35686000D02*
X32278499Y-35686000D01*
X33548499Y-30555999D02*
X33548499Y-35686000D01*
X32278499Y-35686000D02*
X31624999Y-35032500D01*
%TO.N,/I2C_SDA*%
X29064999Y-24112500D02*
X29065000Y-25437500D01*
%TO.N,/IO1_in*%
X30215384Y-23699000D02*
X28628499Y-23699000D01*
X32375000Y-28224500D02*
X32864999Y-27734501D01*
X32375000Y-28262500D02*
X32375000Y-28224500D01*
X28628499Y-23699000D02*
X28065000Y-24262499D01*
X28065000Y-24262499D02*
X28065000Y-25437500D01*
X32864999Y-27734501D02*
X32864999Y-26348615D01*
X32864999Y-26348615D02*
X30215384Y-23699000D01*
%TO.N,/IO2*%
X28565000Y-25437500D02*
X28564999Y-24412500D01*
%TO.N,/AUX1*%
X22065000Y-25437500D02*
X22065000Y-25797500D01*
X22065000Y-25797500D02*
X20600000Y-27262500D01*
%TO.N,/AUX2*%
X32030000Y-25820500D02*
X32030000Y-27262500D01*
X30188000Y-24562500D02*
X30772000Y-24562500D01*
X30772000Y-24562500D02*
X32030000Y-25820500D01*
X30065000Y-25437500D02*
X30065000Y-24685500D01*
X30065000Y-24685500D02*
X30188000Y-24562500D01*
%TO.N,/AUX3*%
X23565000Y-24112500D02*
X23565000Y-25437500D01*
%TO.N,Net-(LED1-DO)*%
X22605000Y-28712500D02*
X20865000Y-30452500D01*
X28264999Y-29812500D02*
X27164999Y-28712500D01*
X20865000Y-30452500D02*
X20865000Y-31177500D01*
X31225837Y-30135783D02*
X30902554Y-29812500D01*
X30902554Y-29812500D02*
X28264999Y-29812500D01*
X27164999Y-28712500D02*
X22605000Y-28712500D01*
X31823283Y-30135783D02*
X31225837Y-30135783D01*
X32865000Y-31177500D02*
X31823283Y-30135783D01*
%TO.N,+3.3V*%
X28314999Y-28462500D02*
X28484999Y-28632500D01*
X19765000Y-31177500D02*
X19765000Y-32122501D01*
X19765000Y-30412499D02*
X20361500Y-29815999D01*
X32150000Y-28632500D02*
X32865000Y-29347500D01*
X20361500Y-29815999D02*
X20361500Y-28771000D01*
X21870000Y-27262500D02*
X21870000Y-26672500D01*
X20361500Y-28771000D02*
X21870000Y-27262500D01*
X28314999Y-28462500D02*
X28314999Y-28812500D01*
X21870000Y-27262500D02*
X23070000Y-28462500D01*
X19765000Y-32122501D02*
X19904999Y-32262500D01*
X22565000Y-25977500D02*
X22565000Y-25437500D01*
X19765000Y-31177500D02*
X19765000Y-30412499D01*
X28484999Y-28632500D02*
X32150000Y-28632500D01*
X23070000Y-28462500D02*
X28314999Y-28462500D01*
X21870000Y-26672500D02*
X22565000Y-25977500D01*
%TO.N,/addr_mod_0*%
X22268499Y-31616000D02*
X22268499Y-30746000D01*
X22268499Y-30746000D02*
X21754999Y-30232500D01*
X23686277Y-32676000D02*
X23328499Y-32676000D01*
X33044999Y-31992500D02*
X32844999Y-31792500D01*
X32844999Y-31792500D02*
X27930286Y-31792500D01*
X27089786Y-32633000D02*
X23729277Y-32633000D01*
X27930286Y-31792500D02*
X27089786Y-32633000D01*
X23729277Y-32633000D02*
X23686277Y-32676000D01*
X23328499Y-32676000D02*
X22268499Y-31616000D01*
%TO.N,/addr_mod_1*%
X23776161Y-32893000D02*
X23238615Y-32893000D01*
X23238615Y-32893000D02*
X21854999Y-31509384D01*
X27864999Y-32212500D02*
X27227499Y-32850000D01*
X21854999Y-31509384D02*
X21854999Y-31502500D01*
X23819161Y-32850000D02*
X23776161Y-32893000D01*
X32364999Y-32212500D02*
X27864999Y-32212500D01*
X27227499Y-32850000D02*
X23819161Y-32850000D01*
%TO.N,/addr_mod_2*%
X27954883Y-32429500D02*
X31997221Y-32429500D01*
X22262499Y-33110000D02*
X27274383Y-33110000D01*
X32360221Y-32792500D02*
X32574999Y-32792500D01*
X27274383Y-33110000D02*
X27954883Y-32429500D01*
X22014999Y-32862500D02*
X22262499Y-33110000D01*
X31997221Y-32429500D02*
X32360221Y-32792500D01*
%TO.N,/addr_mod_3*%
X28314999Y-31100903D02*
X28314999Y-30562500D01*
X26999902Y-32416000D02*
X28314999Y-31100903D01*
X23668499Y-32416000D02*
X26999902Y-32416000D01*
X23514999Y-32262500D02*
X23668499Y-32416000D01*
%TO.N,/GPIO*%
X25723499Y-35686000D02*
X28431499Y-35686000D01*
X23005000Y-34662500D02*
X24699999Y-34662500D01*
X28431499Y-35686000D02*
X29084999Y-35032500D01*
X20924999Y-32582499D02*
X23005000Y-34662500D01*
X24699999Y-34662500D02*
X25723499Y-35686000D01*
X20924999Y-32262500D02*
X20924999Y-32582499D01*
%TD*%
%TA.AperFunction,Conductor*%
%TO.N,GND*%
G36*
X30902622Y-21042684D02*
G01*
X30948377Y-21095488D01*
X30958321Y-21164646D01*
X30929296Y-21228202D01*
X30909895Y-21246265D01*
X30897809Y-21255312D01*
X30811649Y-21370406D01*
X30811645Y-21370413D01*
X30761403Y-21505120D01*
X30761401Y-21505127D01*
X30755000Y-21564655D01*
X30755000Y-22612500D01*
X32131000Y-22612500D01*
X32198039Y-22632185D01*
X32243794Y-22684989D01*
X32255000Y-22736500D01*
X32255000Y-22862500D01*
X32381000Y-22862500D01*
X32448039Y-22882185D01*
X32493794Y-22934989D01*
X32505000Y-22986500D01*
X32505000Y-24612500D01*
X33302828Y-24612500D01*
X33302844Y-24612499D01*
X33362372Y-24606098D01*
X33362379Y-24606096D01*
X33497086Y-24555854D01*
X33497089Y-24555852D01*
X33606187Y-24474181D01*
X33671651Y-24449763D01*
X33739924Y-24464614D01*
X33789330Y-24514019D01*
X33804499Y-24573447D01*
X33804499Y-30294848D01*
X33784814Y-30361887D01*
X33732010Y-30407642D01*
X33662852Y-30417586D01*
X33599296Y-30388561D01*
X33592818Y-30382529D01*
X33259875Y-30049586D01*
X33226390Y-29988263D01*
X33231374Y-29918571D01*
X33273246Y-29862638D01*
X33278658Y-29858808D01*
X33280247Y-29857747D01*
X33300249Y-29827811D01*
X33305500Y-29801413D01*
X33305499Y-28883588D01*
X33300249Y-28857189D01*
X33300248Y-28857187D01*
X33300247Y-28857185D01*
X33280247Y-28827252D01*
X33250311Y-28807250D01*
X33223915Y-28802000D01*
X33223913Y-28802000D01*
X32604333Y-28802000D01*
X32537294Y-28782315D01*
X32491539Y-28729511D01*
X32481595Y-28660353D01*
X32510620Y-28596797D01*
X32542331Y-28570614D01*
X32553062Y-28564417D01*
X32590212Y-28542969D01*
X32655469Y-28477712D01*
X32701614Y-28397788D01*
X32725500Y-28308644D01*
X32725500Y-28216356D01*
X32717704Y-28187261D01*
X32719367Y-28117414D01*
X32749794Y-28067493D01*
X32995553Y-27821736D01*
X32995554Y-27821735D01*
X33018999Y-27765133D01*
X33018999Y-26317983D01*
X32995554Y-26261381D01*
X32952233Y-26218060D01*
X31558354Y-24824181D01*
X31524869Y-24762858D01*
X31529853Y-24693166D01*
X31571725Y-24637233D01*
X31637189Y-24612816D01*
X31646035Y-24612500D01*
X32005000Y-24612500D01*
X32005000Y-23112500D01*
X30755000Y-23112500D01*
X30755000Y-23721465D01*
X30735315Y-23788504D01*
X30682511Y-23834259D01*
X30613353Y-23844203D01*
X30549797Y-23815178D01*
X30543319Y-23809146D01*
X30302619Y-23568446D01*
X30302618Y-23568445D01*
X30246017Y-23545000D01*
X30246016Y-23545000D01*
X28659132Y-23545000D01*
X28597866Y-23545000D01*
X28597865Y-23545000D01*
X28541263Y-23568446D01*
X27934445Y-24175264D01*
X27911000Y-24231867D01*
X27911000Y-24573231D01*
X27891315Y-24640270D01*
X27838511Y-24686025D01*
X27769353Y-24695969D01*
X27762401Y-24694064D01*
X27762288Y-24694633D01*
X27723915Y-24687000D01*
X27406091Y-24687000D01*
X27379687Y-24692251D01*
X27368404Y-24696925D01*
X27367439Y-24694595D01*
X27317203Y-24710321D01*
X27262286Y-24695251D01*
X27261594Y-24696924D01*
X27250311Y-24692250D01*
X27223915Y-24687000D01*
X26906091Y-24687000D01*
X26879687Y-24692251D01*
X26868404Y-24696925D01*
X26867439Y-24694595D01*
X26817203Y-24710321D01*
X26762286Y-24695251D01*
X26761594Y-24696924D01*
X26750311Y-24692250D01*
X26723915Y-24687000D01*
X26515910Y-24687000D01*
X26448871Y-24667315D01*
X26403116Y-24614511D01*
X26393172Y-24545353D01*
X26396129Y-24530933D01*
X26415499Y-24458644D01*
X26415499Y-24366356D01*
X26391613Y-24277212D01*
X26391610Y-24277206D01*
X26345472Y-24197294D01*
X26345469Y-24197291D01*
X26345468Y-24197288D01*
X26280211Y-24132031D01*
X26280208Y-24132029D01*
X26280204Y-24132026D01*
X26200292Y-24085888D01*
X26200289Y-24085887D01*
X26200288Y-24085886D01*
X26200287Y-24085886D01*
X26111143Y-24062000D01*
X26018855Y-24062000D01*
X26010728Y-24062000D01*
X26010728Y-24058773D01*
X25956601Y-24050298D01*
X25904375Y-24003885D01*
X25895841Y-23984251D01*
X25894721Y-23984716D01*
X25891613Y-23977215D01*
X25891613Y-23977212D01*
X25891610Y-23977206D01*
X25845472Y-23897294D01*
X25845469Y-23897291D01*
X25845468Y-23897288D01*
X25780211Y-23832031D01*
X25780208Y-23832029D01*
X25780204Y-23832026D01*
X25700292Y-23785888D01*
X25700289Y-23785887D01*
X25700288Y-23785886D01*
X25700287Y-23785886D01*
X25611143Y-23762000D01*
X25518855Y-23762000D01*
X25429711Y-23785886D01*
X25429710Y-23785886D01*
X25429708Y-23785887D01*
X25429705Y-23785888D01*
X25349793Y-23832026D01*
X25349784Y-23832033D01*
X25284532Y-23897285D01*
X25284525Y-23897294D01*
X25238387Y-23977206D01*
X25235277Y-23984716D01*
X25232217Y-23983448D01*
X25225744Y-23994056D01*
X25214188Y-24019361D01*
X25207793Y-24023470D01*
X25203834Y-24029958D01*
X25178810Y-24042096D01*
X25155410Y-24057135D01*
X25146357Y-24057839D01*
X25140971Y-24060452D01*
X25120475Y-24062158D01*
X25111733Y-24062158D01*
X25111143Y-24062000D01*
X25018855Y-24062000D01*
X25018265Y-24062158D01*
X25009522Y-24062158D01*
X24983448Y-24054502D01*
X24956601Y-24050298D01*
X24950417Y-24044802D01*
X24942483Y-24042473D01*
X24924690Y-24021938D01*
X24904375Y-24003885D01*
X24899673Y-23993068D01*
X24896728Y-23989669D01*
X24896002Y-23984620D01*
X24895841Y-23984251D01*
X24894721Y-23984716D01*
X24891613Y-23977215D01*
X24891613Y-23977212D01*
X24891610Y-23977206D01*
X24845472Y-23897294D01*
X24845469Y-23897291D01*
X24845468Y-23897288D01*
X24780211Y-23832031D01*
X24780208Y-23832029D01*
X24780204Y-23832026D01*
X24700292Y-23785888D01*
X24700289Y-23785887D01*
X24700288Y-23785886D01*
X24700287Y-23785886D01*
X24611143Y-23762000D01*
X24518855Y-23762000D01*
X24429711Y-23785886D01*
X24429710Y-23785886D01*
X24429708Y-23785887D01*
X24429705Y-23785888D01*
X24349793Y-23832026D01*
X24349784Y-23832033D01*
X24284532Y-23897285D01*
X24284525Y-23897294D01*
X24238387Y-23977206D01*
X24235277Y-23984716D01*
X24232217Y-23983448D01*
X24225744Y-23994056D01*
X24214188Y-24019361D01*
X24207793Y-24023470D01*
X24203834Y-24029958D01*
X24178810Y-24042096D01*
X24155410Y-24057135D01*
X24146357Y-24057839D01*
X24140971Y-24060452D01*
X24120475Y-24062158D01*
X24111733Y-24062158D01*
X24111143Y-24062000D01*
X24018855Y-24062000D01*
X24018265Y-24062158D01*
X24009523Y-24062158D01*
X23983459Y-24054504D01*
X23956614Y-24050304D01*
X23950424Y-24044804D01*
X23942484Y-24042473D01*
X23924695Y-24021943D01*
X23904383Y-24003896D01*
X23899677Y-23993072D01*
X23896729Y-23989669D01*
X23896002Y-23984617D01*
X23895843Y-23984251D01*
X23894722Y-23984716D01*
X23891614Y-23977215D01*
X23891614Y-23977212D01*
X23891611Y-23977206D01*
X23845473Y-23897294D01*
X23845470Y-23897291D01*
X23845469Y-23897288D01*
X23780212Y-23832031D01*
X23780209Y-23832029D01*
X23780205Y-23832026D01*
X23700293Y-23785888D01*
X23700290Y-23785887D01*
X23700289Y-23785886D01*
X23700288Y-23785886D01*
X23611144Y-23762000D01*
X23518856Y-23762000D01*
X23429712Y-23785886D01*
X23429711Y-23785886D01*
X23429709Y-23785887D01*
X23429706Y-23785888D01*
X23349794Y-23832026D01*
X23349785Y-23832033D01*
X23284533Y-23897285D01*
X23284526Y-23897294D01*
X23238388Y-23977206D01*
X23238387Y-23977209D01*
X23238386Y-23977211D01*
X23238386Y-23977212D01*
X23214500Y-24066356D01*
X23214500Y-24158644D01*
X23218953Y-24175264D01*
X23221194Y-24183625D01*
X23219531Y-24253474D01*
X23215000Y-24260907D01*
X23215000Y-26132500D01*
X23266000Y-26132500D01*
X23333039Y-26152185D01*
X23378794Y-26204989D01*
X23390000Y-26256500D01*
X23390000Y-27012500D01*
X24140000Y-27012500D01*
X24140000Y-26714672D01*
X24139999Y-26714655D01*
X24133598Y-26655127D01*
X24133596Y-26655120D01*
X24083354Y-26520413D01*
X24083350Y-26520406D01*
X23997190Y-26405312D01*
X23911635Y-26341265D01*
X23869765Y-26285331D01*
X23864781Y-26215640D01*
X23898267Y-26154317D01*
X23959590Y-26120833D01*
X23985940Y-26117999D01*
X24223912Y-26117999D01*
X24250311Y-26112749D01*
X24250313Y-26112747D01*
X24261596Y-26108075D01*
X24262561Y-26110406D01*
X24312772Y-26094678D01*
X24367715Y-26109743D01*
X24368406Y-26108076D01*
X24379688Y-26112749D01*
X24388407Y-26114483D01*
X24406087Y-26118000D01*
X24723912Y-26117999D01*
X24750311Y-26112749D01*
X24750313Y-26112747D01*
X24761596Y-26108075D01*
X24762561Y-26110406D01*
X24812772Y-26094678D01*
X24867715Y-26109743D01*
X24868406Y-26108076D01*
X24879688Y-26112749D01*
X24888407Y-26114483D01*
X24906087Y-26118000D01*
X25223912Y-26117999D01*
X25250311Y-26112749D01*
X25250313Y-26112747D01*
X25261596Y-26108075D01*
X25262561Y-26110406D01*
X25312772Y-26094678D01*
X25367715Y-26109743D01*
X25368406Y-26108076D01*
X25379688Y-26112749D01*
X25388407Y-26114483D01*
X25406087Y-26118000D01*
X25723912Y-26117999D01*
X25750311Y-26112749D01*
X25750313Y-26112747D01*
X25761596Y-26108075D01*
X25762561Y-26110406D01*
X25812772Y-26094678D01*
X25867715Y-26109743D01*
X25868406Y-26108076D01*
X25879688Y-26112749D01*
X25888407Y-26114483D01*
X25906087Y-26118000D01*
X26192349Y-26117999D01*
X26259388Y-26137683D01*
X26305143Y-26190487D01*
X26315087Y-26259646D01*
X26286062Y-26323201D01*
X26280030Y-26329680D01*
X25974029Y-26635681D01*
X25912706Y-26669166D01*
X25886348Y-26672000D01*
X25171091Y-26672000D01*
X25144687Y-26677251D01*
X25144685Y-26677252D01*
X25114752Y-26697252D01*
X25094750Y-26727188D01*
X25089500Y-26753584D01*
X25089500Y-27771408D01*
X25094751Y-27797812D01*
X25094752Y-27797814D01*
X25114752Y-27827747D01*
X25144688Y-27847749D01*
X25153407Y-27849483D01*
X25171087Y-27853000D01*
X26188912Y-27852999D01*
X26215311Y-27847749D01*
X26245247Y-27827747D01*
X26245247Y-27827746D01*
X26246110Y-27827170D01*
X26312787Y-27806293D01*
X26380167Y-27824778D01*
X26383890Y-27827170D01*
X26384752Y-27827746D01*
X26384753Y-27827747D01*
X26414689Y-27847749D01*
X26441087Y-27853000D01*
X27458912Y-27852999D01*
X27485311Y-27847749D01*
X27515247Y-27827747D01*
X27515247Y-27827746D01*
X27516110Y-27827170D01*
X27582787Y-27806293D01*
X27650167Y-27824778D01*
X27653890Y-27827170D01*
X27654752Y-27827746D01*
X27654753Y-27827747D01*
X27684689Y-27847749D01*
X27711087Y-27853000D01*
X28728912Y-27852999D01*
X28755311Y-27847749D01*
X28785247Y-27827747D01*
X28785247Y-27827746D01*
X28786110Y-27827170D01*
X28852787Y-27806293D01*
X28920167Y-27824778D01*
X28923890Y-27827170D01*
X28924752Y-27827746D01*
X28924753Y-27827747D01*
X28954689Y-27847749D01*
X28981087Y-27853000D01*
X29998912Y-27852999D01*
X30025311Y-27847749D01*
X30055247Y-27827747D01*
X30055247Y-27827746D01*
X30056110Y-27827170D01*
X30122787Y-27806293D01*
X30190167Y-27824778D01*
X30193890Y-27827170D01*
X30194752Y-27827746D01*
X30194753Y-27827747D01*
X30224689Y-27847749D01*
X30251087Y-27853000D01*
X31268912Y-27852999D01*
X31295311Y-27847749D01*
X31325247Y-27827747D01*
X31325247Y-27827746D01*
X31326110Y-27827170D01*
X31392787Y-27806293D01*
X31460167Y-27824778D01*
X31463890Y-27827170D01*
X31464752Y-27827746D01*
X31464753Y-27827747D01*
X31494689Y-27847749D01*
X31521087Y-27853000D01*
X31992167Y-27852999D01*
X32059205Y-27872683D01*
X32104960Y-27925487D01*
X32114904Y-27994646D01*
X32096274Y-28038910D01*
X32098594Y-28040250D01*
X32048388Y-28127206D01*
X32048387Y-28127209D01*
X32024500Y-28216356D01*
X32024500Y-28308643D01*
X32028188Y-28322407D01*
X32026525Y-28392257D01*
X31987362Y-28450119D01*
X31923133Y-28477623D01*
X31908413Y-28478500D01*
X28600150Y-28478500D01*
X28533111Y-28458815D01*
X28512469Y-28442181D01*
X28402234Y-28331946D01*
X28402233Y-28331945D01*
X28345632Y-28308500D01*
X24103567Y-28308500D01*
X24036528Y-28288815D01*
X23990773Y-28236011D01*
X23980829Y-28166853D01*
X24004301Y-28110189D01*
X24083350Y-28004593D01*
X24083354Y-28004586D01*
X24133596Y-27869879D01*
X24133598Y-27869872D01*
X24139999Y-27810344D01*
X24140000Y-27810327D01*
X24140000Y-27512500D01*
X23349618Y-27512500D01*
X23400064Y-27462054D01*
X23442851Y-27387945D01*
X23465000Y-27305287D01*
X23465000Y-27219713D01*
X23442851Y-27137055D01*
X23400064Y-27062946D01*
X23339554Y-27002436D01*
X23265445Y-26959649D01*
X23182787Y-26937500D01*
X23097213Y-26937500D01*
X23014555Y-26959649D01*
X22940446Y-27002436D01*
X22890000Y-27052882D01*
X22890000Y-26208862D01*
X22909685Y-26141823D01*
X22915000Y-26135227D01*
X22915000Y-24277500D01*
X22867155Y-24277500D01*
X22807627Y-24283901D01*
X22807620Y-24283903D01*
X22672913Y-24334145D01*
X22672906Y-24334149D01*
X22557812Y-24420309D01*
X22557809Y-24420312D01*
X22471649Y-24535406D01*
X22471646Y-24535411D01*
X22438125Y-24625286D01*
X22396253Y-24681219D01*
X22388194Y-24686770D01*
X22381250Y-24691159D01*
X22368743Y-24694728D01*
X22369471Y-24696482D01*
X22368483Y-24696892D01*
X22367708Y-24695024D01*
X22349115Y-24700331D01*
X22317203Y-24710321D01*
X22315631Y-24709889D01*
X22314064Y-24710337D01*
X22282054Y-24700675D01*
X22262286Y-24695251D01*
X22261594Y-24696924D01*
X22250311Y-24692250D01*
X22223915Y-24687000D01*
X21906091Y-24687000D01*
X21879687Y-24692251D01*
X21879685Y-24692252D01*
X21849752Y-24712252D01*
X21829750Y-24742188D01*
X21824500Y-24768584D01*
X21824500Y-25768848D01*
X21804815Y-25835887D01*
X21788181Y-25856529D01*
X21009028Y-26635681D01*
X20947705Y-26669166D01*
X20921347Y-26672000D01*
X20091091Y-26672000D01*
X20064687Y-26677251D01*
X20064685Y-26677252D01*
X20034752Y-26697252D01*
X20014750Y-26727188D01*
X20009500Y-26753584D01*
X20009500Y-27771408D01*
X20014751Y-27797812D01*
X20014752Y-27797814D01*
X20034752Y-27827747D01*
X20064688Y-27847749D01*
X20073407Y-27849483D01*
X20091087Y-27853000D01*
X20762350Y-27852999D01*
X20829388Y-27872683D01*
X20875143Y-27925487D01*
X20885087Y-27994646D01*
X20856062Y-28058202D01*
X20850030Y-28064680D01*
X20558529Y-28356181D01*
X20497206Y-28389666D01*
X20470848Y-28392500D01*
X20467155Y-28392500D01*
X20407627Y-28398901D01*
X20407620Y-28398903D01*
X20272913Y-28449145D01*
X20272906Y-28449149D01*
X20157812Y-28535309D01*
X20157809Y-28535312D01*
X20071649Y-28650406D01*
X20071646Y-28650411D01*
X20045194Y-28721334D01*
X20003322Y-28777267D01*
X19937858Y-28801684D01*
X19929012Y-28802000D01*
X19406091Y-28802000D01*
X19379687Y-28807251D01*
X19379685Y-28807252D01*
X19349752Y-28827252D01*
X19329750Y-28857188D01*
X19324500Y-28883584D01*
X19324500Y-29801408D01*
X19329751Y-29827812D01*
X19329752Y-29827814D01*
X19349752Y-29857747D01*
X19379688Y-29877749D01*
X19388407Y-29879483D01*
X19406087Y-29883000D01*
X19777349Y-29882999D01*
X19844387Y-29902683D01*
X19890142Y-29955487D01*
X19900086Y-30024646D01*
X19871061Y-30088201D01*
X19865029Y-30094680D01*
X19634447Y-30325262D01*
X19634444Y-30325267D01*
X19624777Y-30348607D01*
X19616832Y-30367788D01*
X19611000Y-30381867D01*
X19611000Y-30522788D01*
X19610632Y-30527552D01*
X19599862Y-30555928D01*
X19591315Y-30585039D01*
X19587590Y-30588266D01*
X19585841Y-30592876D01*
X19561439Y-30610926D01*
X19538511Y-30630794D01*
X19532944Y-30632005D01*
X19529670Y-30634427D01*
X19518404Y-30635168D01*
X19487001Y-30642000D01*
X19406091Y-30642000D01*
X19379687Y-30647251D01*
X19379685Y-30647252D01*
X19349752Y-30667252D01*
X19329750Y-30697188D01*
X19324500Y-30723584D01*
X19324500Y-31641408D01*
X19329751Y-31667812D01*
X19329752Y-31667814D01*
X19349752Y-31697747D01*
X19379688Y-31717749D01*
X19388407Y-31719483D01*
X19406087Y-31723000D01*
X19487001Y-31722999D01*
X19495685Y-31725549D01*
X19504647Y-31724261D01*
X19528685Y-31735238D01*
X19554038Y-31742683D01*
X19559966Y-31749524D01*
X19568203Y-31753286D01*
X19582489Y-31775516D01*
X19599794Y-31795486D01*
X19602081Y-31806002D01*
X19605977Y-31812064D01*
X19611000Y-31846999D01*
X19611000Y-31871952D01*
X19591315Y-31938991D01*
X19590102Y-31940842D01*
X19557583Y-31989510D01*
X19557582Y-31989513D01*
X19557582Y-31989514D01*
X19546089Y-32047294D01*
X19544499Y-32055290D01*
X19544499Y-32469708D01*
X19557582Y-32535486D01*
X19557583Y-32535488D01*
X19571797Y-32556761D01*
X19607422Y-32610077D01*
X19663108Y-32647285D01*
X19682011Y-32659916D01*
X19682013Y-32659917D01*
X19747788Y-32673000D01*
X20062209Y-32672999D01*
X20127985Y-32659917D01*
X20202576Y-32610077D01*
X20252416Y-32535486D01*
X20265499Y-32469711D01*
X20265498Y-32055290D01*
X20252416Y-31989514D01*
X20202576Y-31914923D01*
X20183198Y-31901975D01*
X20138396Y-31848364D01*
X20129689Y-31779039D01*
X20152810Y-31724585D01*
X20165538Y-31707574D01*
X20180247Y-31697747D01*
X20200249Y-31667811D01*
X20202043Y-31658788D01*
X20215717Y-31640515D01*
X20231723Y-31628527D01*
X20244270Y-31612955D01*
X20259117Y-31608011D01*
X20271642Y-31598632D01*
X20291587Y-31597201D01*
X20310562Y-31590884D01*
X20325724Y-31594752D01*
X20341332Y-31593633D01*
X20358884Y-31603212D01*
X20378263Y-31608157D01*
X20388928Y-31619610D01*
X20402662Y-31627106D01*
X20412248Y-31644653D01*
X20425878Y-31659290D01*
X20429560Y-31667351D01*
X20429751Y-31667812D01*
X20449752Y-31697747D01*
X20479688Y-31717749D01*
X20492708Y-31720338D01*
X20506087Y-31723000D01*
X20523671Y-31722999D01*
X20590708Y-31742681D01*
X20636465Y-31795483D01*
X20646412Y-31864641D01*
X20626775Y-31915889D01*
X20577583Y-31989510D01*
X20577582Y-31989513D01*
X20577582Y-31989514D01*
X20566089Y-32047294D01*
X20564499Y-32055290D01*
X20564499Y-32469708D01*
X20577582Y-32535486D01*
X20577583Y-32535488D01*
X20591797Y-32556761D01*
X20627422Y-32610077D01*
X20683108Y-32647285D01*
X20702011Y-32659916D01*
X20702013Y-32659917D01*
X20767788Y-32673000D01*
X20767790Y-32672999D01*
X20768248Y-32673091D01*
X20830159Y-32705476D01*
X20831739Y-32707028D01*
X22917766Y-34793055D01*
X22974368Y-34816500D01*
X23035633Y-34816500D01*
X23865500Y-34816500D01*
X23932539Y-34836185D01*
X23978294Y-34888989D01*
X23989500Y-34940500D01*
X23989500Y-35351412D01*
X23993700Y-35372531D01*
X23994750Y-35377812D01*
X23994751Y-35377814D01*
X24014751Y-35407747D01*
X24044687Y-35427749D01*
X24053406Y-35429483D01*
X24071086Y-35433000D01*
X25201347Y-35432999D01*
X25268386Y-35452684D01*
X25289028Y-35469318D01*
X25520529Y-35700819D01*
X25554014Y-35762142D01*
X25549030Y-35831834D01*
X25507158Y-35887767D01*
X25441694Y-35912184D01*
X25432848Y-35912500D01*
X24814999Y-35912500D01*
X24814999Y-36829488D01*
X24757992Y-36796575D01*
X24630825Y-36762500D01*
X24499173Y-36762500D01*
X24372006Y-36796575D01*
X24314999Y-36829488D01*
X24314999Y-35912500D01*
X23667154Y-35912500D01*
X23607626Y-35918901D01*
X23607619Y-35918903D01*
X23472912Y-35969145D01*
X23472905Y-35969149D01*
X23357811Y-36055309D01*
X23357808Y-36055312D01*
X23271648Y-36170406D01*
X23271644Y-36170413D01*
X23221402Y-36305120D01*
X23221400Y-36305127D01*
X23214999Y-36364655D01*
X23214999Y-37128000D01*
X23195314Y-37195039D01*
X23142510Y-37240794D01*
X23090999Y-37252000D01*
X19571091Y-37252000D01*
X19558937Y-37251403D01*
X19432885Y-37238988D01*
X19409045Y-37234246D01*
X19293690Y-37199253D01*
X19271233Y-37189951D01*
X19164924Y-37133127D01*
X19144713Y-37119622D01*
X19051534Y-37043152D01*
X19034346Y-37025964D01*
X18957875Y-36932784D01*
X18944370Y-36912572D01*
X18887548Y-36806264D01*
X18878247Y-36783810D01*
X18843254Y-36668455D01*
X18838512Y-36644618D01*
X18826097Y-36518560D01*
X18825500Y-36506407D01*
X18825500Y-35390344D01*
X19219999Y-35390344D01*
X19226400Y-35449872D01*
X19226402Y-35449879D01*
X19276644Y-35584586D01*
X19276648Y-35584593D01*
X19362808Y-35699687D01*
X19362811Y-35699690D01*
X19477905Y-35785850D01*
X19477912Y-35785854D01*
X19612619Y-35836096D01*
X19612626Y-35836098D01*
X19672154Y-35842499D01*
X19672171Y-35842500D01*
X20084999Y-35842500D01*
X20584999Y-35842500D01*
X20997827Y-35842500D01*
X20997843Y-35842499D01*
X21057371Y-35836098D01*
X21057378Y-35836096D01*
X21192085Y-35785854D01*
X21192092Y-35785850D01*
X21307186Y-35699690D01*
X21307189Y-35699687D01*
X21393349Y-35584593D01*
X21393353Y-35584586D01*
X21443595Y-35449879D01*
X21443597Y-35449872D01*
X21449998Y-35390344D01*
X21449999Y-35390327D01*
X21449999Y-34912500D01*
X20584999Y-34912500D01*
X20584999Y-35842500D01*
X20084999Y-35842500D01*
X20084999Y-34912500D01*
X19219999Y-34912500D01*
X19219999Y-35390344D01*
X18825500Y-35390344D01*
X18825500Y-33934655D01*
X19219999Y-33934655D01*
X19219999Y-34412500D01*
X20084999Y-34412500D01*
X20584999Y-34412500D01*
X21449999Y-34412500D01*
X21449999Y-33934672D01*
X21449998Y-33934655D01*
X21443597Y-33875127D01*
X21443595Y-33875120D01*
X21393353Y-33740413D01*
X21393349Y-33740406D01*
X21307189Y-33625312D01*
X21307186Y-33625309D01*
X21192092Y-33539149D01*
X21192085Y-33539145D01*
X21057378Y-33488903D01*
X21057371Y-33488901D01*
X20997843Y-33482500D01*
X20584999Y-33482500D01*
X20584999Y-34412500D01*
X20084999Y-34412500D01*
X20084999Y-33482500D01*
X19672154Y-33482500D01*
X19612626Y-33488901D01*
X19612619Y-33488903D01*
X19477912Y-33539145D01*
X19477905Y-33539149D01*
X19362811Y-33625309D01*
X19362808Y-33625312D01*
X19276648Y-33740406D01*
X19276644Y-33740413D01*
X19226402Y-33875120D01*
X19226400Y-33875127D01*
X19219999Y-33934655D01*
X18825500Y-33934655D01*
X18825500Y-24533446D01*
X18845185Y-24466407D01*
X18897989Y-24420652D01*
X18967147Y-24410708D01*
X19023812Y-24434180D01*
X19132910Y-24515852D01*
X19132913Y-24515854D01*
X19267620Y-24566096D01*
X19267627Y-24566098D01*
X19327155Y-24572499D01*
X19327172Y-24572500D01*
X20125000Y-24572500D01*
X20625000Y-24572500D01*
X21422828Y-24572500D01*
X21422844Y-24572499D01*
X21482372Y-24566098D01*
X21482379Y-24566096D01*
X21617086Y-24515854D01*
X21617093Y-24515850D01*
X21732187Y-24429690D01*
X21732190Y-24429687D01*
X21818350Y-24314593D01*
X21818354Y-24314586D01*
X21868596Y-24179879D01*
X21868598Y-24179872D01*
X21874999Y-24120344D01*
X21875000Y-24120327D01*
X21875000Y-23072500D01*
X20625000Y-23072500D01*
X20625000Y-24572500D01*
X20125000Y-24572500D01*
X20125000Y-22946500D01*
X20144685Y-22879461D01*
X20197489Y-22833706D01*
X20249000Y-22822500D01*
X20375000Y-22822500D01*
X20375000Y-22696500D01*
X20394685Y-22629461D01*
X20447489Y-22583706D01*
X20499000Y-22572500D01*
X21875000Y-22572500D01*
X21875000Y-21673584D01*
X23819500Y-21673584D01*
X23819500Y-22691408D01*
X23824751Y-22717812D01*
X23824752Y-22717814D01*
X23844752Y-22747747D01*
X23874688Y-22767749D01*
X23883407Y-22769483D01*
X23901087Y-22773000D01*
X24918912Y-22772999D01*
X24945311Y-22767749D01*
X24975247Y-22747747D01*
X24975247Y-22747746D01*
X24976110Y-22747170D01*
X25042787Y-22726293D01*
X25110167Y-22744778D01*
X25113890Y-22747170D01*
X25114752Y-22747746D01*
X25114753Y-22747747D01*
X25144689Y-22767749D01*
X25171087Y-22773000D01*
X26188912Y-22772999D01*
X26215311Y-22767749D01*
X26245247Y-22747747D01*
X26245247Y-22747746D01*
X26246110Y-22747170D01*
X26312787Y-22726293D01*
X26380167Y-22744778D01*
X26383890Y-22747170D01*
X26384752Y-22747746D01*
X26384753Y-22747747D01*
X26414689Y-22767749D01*
X26441087Y-22773000D01*
X27458912Y-22772999D01*
X27485311Y-22767749D01*
X27515247Y-22747747D01*
X27515247Y-22747746D01*
X27516110Y-22747170D01*
X27582787Y-22726293D01*
X27650167Y-22744778D01*
X27653890Y-22747170D01*
X27654752Y-22747746D01*
X27654753Y-22747747D01*
X27684689Y-22767749D01*
X27711087Y-22773000D01*
X28728912Y-22772999D01*
X28755311Y-22767749D01*
X28785247Y-22747747D01*
X28805249Y-22717811D01*
X28810500Y-22691413D01*
X28810499Y-21673588D01*
X28805249Y-21647189D01*
X28805248Y-21647187D01*
X28805247Y-21647185D01*
X28785247Y-21617252D01*
X28755311Y-21597250D01*
X28728915Y-21592000D01*
X27711091Y-21592000D01*
X27684687Y-21597251D01*
X27684682Y-21597253D01*
X27653886Y-21617830D01*
X27587208Y-21638706D01*
X27519829Y-21620219D01*
X27516110Y-21617829D01*
X27485311Y-21597250D01*
X27458915Y-21592000D01*
X26441091Y-21592000D01*
X26414687Y-21597251D01*
X26414682Y-21597253D01*
X26383886Y-21617830D01*
X26317208Y-21638706D01*
X26249829Y-21620219D01*
X26246110Y-21617829D01*
X26215311Y-21597250D01*
X26188915Y-21592000D01*
X25171091Y-21592000D01*
X25144687Y-21597251D01*
X25144682Y-21597253D01*
X25113886Y-21617830D01*
X25047208Y-21638706D01*
X24979829Y-21620219D01*
X24976110Y-21617829D01*
X24945311Y-21597250D01*
X24918915Y-21592000D01*
X23901091Y-21592000D01*
X23874687Y-21597251D01*
X23874685Y-21597252D01*
X23844752Y-21617252D01*
X23824750Y-21647188D01*
X23819500Y-21673584D01*
X21875000Y-21673584D01*
X21875000Y-21524672D01*
X21874999Y-21524655D01*
X21868598Y-21465127D01*
X21868596Y-21465120D01*
X21818354Y-21330413D01*
X21818352Y-21330410D01*
X21736680Y-21221311D01*
X21712262Y-21155846D01*
X21727113Y-21087573D01*
X21776518Y-21038167D01*
X21835946Y-21022999D01*
X30835583Y-21022999D01*
X30902622Y-21042684D01*
G37*
%TD.AperFunction*%
%TA.AperFunction,Conductor*%
G36*
X22100221Y-33214184D02*
G01*
X22130096Y-33214891D01*
X22135187Y-33217993D01*
X22139972Y-33218515D01*
X22152020Y-33228253D01*
X22163945Y-33235520D01*
X22165114Y-33233772D01*
X22175263Y-33240554D01*
X22175264Y-33240554D01*
X22175265Y-33240555D01*
X22231867Y-33264000D01*
X22231869Y-33264000D01*
X26685999Y-33264000D01*
X26753038Y-33283685D01*
X26798793Y-33336489D01*
X26809999Y-33388000D01*
X26809999Y-33512500D01*
X27600381Y-33512500D01*
X27549935Y-33562946D01*
X27507148Y-33637055D01*
X27484999Y-33719713D01*
X27484999Y-33805287D01*
X27507148Y-33887945D01*
X27549935Y-33962054D01*
X27600381Y-34012500D01*
X26809999Y-34012500D01*
X26809999Y-34310344D01*
X26816400Y-34369872D01*
X26816402Y-34369879D01*
X26866644Y-34504586D01*
X26866648Y-34504593D01*
X26952808Y-34619687D01*
X26952811Y-34619690D01*
X27067905Y-34705850D01*
X27067914Y-34705855D01*
X27138831Y-34732305D01*
X27194765Y-34774175D01*
X27219183Y-34839640D01*
X27219499Y-34848487D01*
X27219500Y-35408000D01*
X27199816Y-35475039D01*
X27147012Y-35520794D01*
X27095500Y-35532000D01*
X25838650Y-35532000D01*
X25771611Y-35512315D01*
X25750969Y-35495681D01*
X25436817Y-35181529D01*
X25403332Y-35120206D01*
X25400498Y-35093848D01*
X25400498Y-33973591D01*
X25400498Y-33973588D01*
X25395248Y-33947189D01*
X25395247Y-33947187D01*
X25395246Y-33947185D01*
X25375246Y-33917252D01*
X25345310Y-33897250D01*
X25318914Y-33892000D01*
X24071090Y-33892000D01*
X24044686Y-33897251D01*
X24044684Y-33897252D01*
X24014751Y-33917252D01*
X23994749Y-33947188D01*
X23989499Y-33973584D01*
X23989499Y-34384500D01*
X23969814Y-34451539D01*
X23917010Y-34497294D01*
X23865499Y-34508500D01*
X23120151Y-34508500D01*
X23053112Y-34488815D01*
X23032470Y-34472181D01*
X21984576Y-33424287D01*
X21979133Y-33414319D01*
X21970301Y-33407181D01*
X21962690Y-33384206D01*
X21951091Y-33362964D01*
X21951901Y-33351636D01*
X21948330Y-33340856D01*
X21954348Y-33317414D01*
X21956075Y-33293272D01*
X21962880Y-33284180D01*
X21965705Y-33273181D01*
X21983443Y-33256712D01*
X21997947Y-33237339D01*
X22009909Y-33232141D01*
X22016910Y-33225643D01*
X22043787Y-33217423D01*
X22050414Y-33214545D01*
X22059047Y-33213000D01*
X22061143Y-33213000D01*
X22065356Y-33211870D01*
X22070514Y-33210948D01*
X22100221Y-33214184D01*
G37*
%TD.AperFunction*%
%TA.AperFunction,Conductor*%
G36*
X25203235Y-28886185D02*
G01*
X25248990Y-28938989D01*
X25258934Y-29008147D01*
X25229909Y-29071703D01*
X25204254Y-29092866D01*
X25204677Y-29093498D01*
X25204695Y-29093522D01*
X25204693Y-29093523D01*
X25204841Y-29093744D01*
X25201476Y-29095991D01*
X25088632Y-29182579D01*
X25088632Y-29182580D01*
X26404094Y-30498042D01*
X26437579Y-30559365D01*
X26432595Y-30629057D01*
X26404094Y-30673404D01*
X26225903Y-30851595D01*
X26164580Y-30885080D01*
X26094888Y-30880096D01*
X26050541Y-30851595D01*
X24735079Y-29536133D01*
X24735078Y-29536133D01*
X24648495Y-29648971D01*
X24517408Y-29876017D01*
X24517403Y-29876028D01*
X24417074Y-30118244D01*
X24349221Y-30371479D01*
X24349219Y-30371490D01*
X24314999Y-30631405D01*
X24314999Y-30893594D01*
X24349219Y-31153509D01*
X24349221Y-31153520D01*
X24417074Y-31406755D01*
X24517403Y-31648971D01*
X24517408Y-31648982D01*
X24648495Y-31876028D01*
X24791590Y-32062514D01*
X24816784Y-32127683D01*
X24802746Y-32196128D01*
X24753932Y-32246117D01*
X24693214Y-32262000D01*
X23972878Y-32262000D01*
X23905839Y-32242315D01*
X23860084Y-32189511D01*
X23853103Y-32170094D01*
X23853002Y-32169716D01*
X23841613Y-32127212D01*
X23841611Y-32127209D01*
X23841611Y-32127207D01*
X23841610Y-32127206D01*
X23795472Y-32047294D01*
X23795469Y-32047291D01*
X23795468Y-32047288D01*
X23730211Y-31982031D01*
X23730208Y-31982029D01*
X23730204Y-31982026D01*
X23650292Y-31935888D01*
X23650289Y-31935887D01*
X23650288Y-31935886D01*
X23650287Y-31935886D01*
X23561143Y-31912000D01*
X23468855Y-31912000D01*
X23379711Y-31935886D01*
X23379710Y-31935886D01*
X23379708Y-31935887D01*
X23379705Y-31935888D01*
X23299793Y-31982026D01*
X23299784Y-31982033D01*
X23234532Y-32047285D01*
X23234526Y-32047293D01*
X23199313Y-32108281D01*
X23148745Y-32156495D01*
X23080138Y-32169716D01*
X23015274Y-32143747D01*
X23004247Y-32133959D01*
X22458818Y-31588530D01*
X22425333Y-31527207D01*
X22422499Y-31500849D01*
X22422499Y-30715369D01*
X22422499Y-30715368D01*
X22399054Y-30658766D01*
X22355733Y-30615445D01*
X22137827Y-30397539D01*
X22104342Y-30336216D01*
X22105520Y-30286841D01*
X22104438Y-30286699D01*
X22105499Y-30278641D01*
X22105499Y-30186358D01*
X22105499Y-30186356D01*
X22081613Y-30097212D01*
X22081610Y-30097206D01*
X22035472Y-30017294D01*
X22035469Y-30017291D01*
X22035468Y-30017288D01*
X21970211Y-29952031D01*
X21970208Y-29952029D01*
X21970204Y-29952026D01*
X21890292Y-29905888D01*
X21882783Y-29902778D01*
X21883459Y-29901144D01*
X21832323Y-29869972D01*
X21801798Y-29807123D01*
X21810097Y-29737748D01*
X21836398Y-29698889D01*
X22632470Y-28902819D01*
X22693793Y-28869334D01*
X22720151Y-28866500D01*
X25136196Y-28866500D01*
X25203235Y-28886185D01*
G37*
%TD.AperFunction*%
%TA.AperFunction,Conductor*%
G36*
X30854442Y-29986185D02*
G01*
X30875084Y-30002819D01*
X31065146Y-30192880D01*
X31098631Y-30254203D01*
X31093647Y-30323894D01*
X31061679Y-30366637D01*
X31064082Y-30369040D01*
X31057809Y-30375312D01*
X30971649Y-30490406D01*
X30971645Y-30490413D01*
X30921403Y-30625120D01*
X30921401Y-30625127D01*
X30915000Y-30684655D01*
X30915000Y-30932500D01*
X31641000Y-30932500D01*
X31708039Y-30952185D01*
X31753794Y-31004989D01*
X31765000Y-31056500D01*
X31765000Y-31308500D01*
X31745315Y-31375539D01*
X31692511Y-31421294D01*
X31641000Y-31432500D01*
X30915000Y-31432500D01*
X30915000Y-31514500D01*
X30895315Y-31581539D01*
X30842511Y-31627294D01*
X30791000Y-31638500D01*
X28302511Y-31638500D01*
X28271035Y-31629257D01*
X28239244Y-31621145D01*
X28237677Y-31619462D01*
X28235472Y-31618815D01*
X28213996Y-31594031D01*
X28191630Y-31570011D01*
X28191221Y-31567747D01*
X28189717Y-31566011D01*
X28185048Y-31533541D01*
X28179221Y-31501252D01*
X28179978Y-31498282D01*
X28179773Y-31496853D01*
X28187947Y-31467054D01*
X28193574Y-31453467D01*
X28220450Y-31413240D01*
X28445554Y-31188137D01*
X28468999Y-31131536D01*
X28468999Y-31070270D01*
X28468999Y-30949901D01*
X28488684Y-30882862D01*
X28524425Y-30848781D01*
X28523762Y-30847917D01*
X28530203Y-30842973D01*
X28530211Y-30842969D01*
X28595468Y-30777712D01*
X28641613Y-30697788D01*
X28665499Y-30608644D01*
X28665499Y-30516356D01*
X28641613Y-30427212D01*
X28641610Y-30427206D01*
X28595472Y-30347294D01*
X28595469Y-30347291D01*
X28595468Y-30347288D01*
X28530211Y-30282031D01*
X28530208Y-30282029D01*
X28530204Y-30282026D01*
X28450292Y-30235888D01*
X28450291Y-30235887D01*
X28420445Y-30227890D01*
X28361143Y-30212000D01*
X28361141Y-30212000D01*
X28354703Y-30210275D01*
X28295043Y-30173910D01*
X28264514Y-30111063D01*
X28272809Y-30041687D01*
X28317294Y-29987810D01*
X28383846Y-29966535D01*
X28386797Y-29966500D01*
X30787403Y-29966500D01*
X30854442Y-29986185D01*
G37*
%TD.AperFunction*%
%TA.AperFunction,Conductor*%
G36*
X20264925Y-30232874D02*
G01*
X20264926Y-30232874D01*
X20407623Y-30286097D01*
X20407627Y-30286098D01*
X20467155Y-30292499D01*
X20467172Y-30292500D01*
X20587000Y-30292500D01*
X20595685Y-30295050D01*
X20604647Y-30293762D01*
X20628687Y-30304740D01*
X20654039Y-30312185D01*
X20659966Y-30319025D01*
X20668203Y-30322787D01*
X20682492Y-30345021D01*
X20699794Y-30364989D01*
X20702081Y-30375503D01*
X20705977Y-30381565D01*
X20711000Y-30416500D01*
X20711000Y-30518000D01*
X20691315Y-30585039D01*
X20638511Y-30630794D01*
X20587001Y-30642000D01*
X20506091Y-30642000D01*
X20479687Y-30647251D01*
X20479685Y-30647252D01*
X20449752Y-30667252D01*
X20429752Y-30697186D01*
X20429561Y-30697648D01*
X20428874Y-30698499D01*
X20422966Y-30707343D01*
X20422174Y-30706814D01*
X20385719Y-30752051D01*
X20319425Y-30774115D01*
X20251725Y-30756835D01*
X20204116Y-30705697D01*
X20200437Y-30697643D01*
X20200247Y-30697185D01*
X20180247Y-30667252D01*
X20150311Y-30647250D01*
X20123915Y-30642000D01*
X20123913Y-30642000D01*
X20052650Y-30642000D01*
X20031404Y-30635761D01*
X20009317Y-30634182D01*
X19998533Y-30626109D01*
X19985611Y-30622315D01*
X19971112Y-30605583D01*
X19953383Y-30592311D01*
X19948675Y-30579688D01*
X19939856Y-30569511D01*
X19936704Y-30547595D01*
X19928966Y-30526847D01*
X19931828Y-30513685D01*
X19929912Y-30500353D01*
X19939110Y-30480211D01*
X19943817Y-30458574D01*
X19957088Y-30440845D01*
X19958937Y-30436797D01*
X19964954Y-30430333D01*
X20133916Y-30261371D01*
X20195233Y-30227890D01*
X20264925Y-30232874D01*
G37*
%TD.AperFunction*%
%TA.AperFunction,Conductor*%
G36*
X22121051Y-27872684D02*
G01*
X22166806Y-27925488D01*
X22170194Y-27933666D01*
X22196645Y-28004586D01*
X22196649Y-28004593D01*
X22282809Y-28119687D01*
X22282812Y-28119690D01*
X22397906Y-28205850D01*
X22397913Y-28205854D01*
X22532620Y-28256096D01*
X22532627Y-28256098D01*
X22592155Y-28262499D01*
X22592172Y-28262500D01*
X22600849Y-28262500D01*
X22630289Y-28271144D01*
X22660276Y-28277668D01*
X22665291Y-28281422D01*
X22667888Y-28282185D01*
X22688530Y-28298819D01*
X22736530Y-28346819D01*
X22770015Y-28408142D01*
X22765031Y-28477834D01*
X22723159Y-28533767D01*
X22657695Y-28558184D01*
X22648849Y-28558500D01*
X22574368Y-28558500D01*
X22517765Y-28581945D01*
X21926681Y-29173030D01*
X21865358Y-29206515D01*
X21795666Y-29201531D01*
X21739733Y-29159659D01*
X21715316Y-29094195D01*
X21715000Y-29085349D01*
X21715000Y-28844672D01*
X21714999Y-28844655D01*
X21708598Y-28785127D01*
X21708596Y-28785120D01*
X21658354Y-28650413D01*
X21658350Y-28650406D01*
X21572190Y-28535312D01*
X21572187Y-28535309D01*
X21457093Y-28449149D01*
X21457086Y-28449145D01*
X21322379Y-28398903D01*
X21322372Y-28398901D01*
X21262844Y-28392500D01*
X21257150Y-28392500D01*
X21190111Y-28372815D01*
X21144356Y-28320011D01*
X21134412Y-28250853D01*
X21163437Y-28187297D01*
X21169469Y-28180819D01*
X21460969Y-27889318D01*
X21522292Y-27855833D01*
X21548650Y-27852999D01*
X22054012Y-27852999D01*
X22121051Y-27872684D01*
G37*
%TD.AperFunction*%
%TD*%
M02*
