%TF.GenerationSoftware,KiCad,Pcbnew,9.0.6-9.0.6~ubuntu24.04.1*%
%TF.CreationDate,2026-01-03T12:55:21+00:00*%
%TF.ProjectId,COM_MOD,434f4d5f-4d4f-4442-9e6b-696361645f70,1.0*%
%TF.SameCoordinates,Original*%
%TF.FileFunction,Soldermask,Top*%
%TF.FilePolarity,Negative*%
%FSLAX46Y46*%
G04 Gerber Fmt 4.6, Leading zero omitted, Abs format (unit mm)*
G04 Created by KiCad (PCBNEW 9.0.6-9.0.6~ubuntu24.04.1) date 2026-01-03 12:55:21*
%MOMM*%
%LPD*%
G01*
G04 APERTURE LIST*
G04 Aperture macros list*
%AMRoundRect*
0 Rectangle with rounded corners*
0 $1 Rounding radius*
0 $2 $3 $4 $5 $6 $7 $8 $9 X,Y pos of 4 corners*
0 Add a 4 corners polygon primitive as box body*
4,1,4,$2,$3,$4,$5,$6,$7,$8,$9,$2,$3,0*
0 Add four circle primitives for the rounded corners*
1,1,$1+$1,$2,$3*
1,1,$1+$1,$4,$5*
1,1,$1+$1,$6,$7*
1,1,$1+$1,$8,$9*
0 Add four rect primitives between the rounded corners*
20,1,$1+$1,$2,$3,$4,$5,0*
20,1,$1+$1,$4,$5,$6,$7,0*
20,1,$1+$1,$6,$7,$8,$9,0*
20,1,$1+$1,$8,$9,$2,$3,0*%
G04 Aperture macros list end*
%ADD10R,1.000000X1.000000*%
%ADD11R,1.700000X1.700000*%
%ADD12RoundRect,0.050000X-0.050000X0.375000X-0.050000X-0.375000X0.050000X-0.375000X0.050000X0.375000X0*%
%ADD13RoundRect,0.050000X-0.375000X0.050000X-0.375000X-0.050000X0.375000X-0.050000X0.375000X0.050000X0*%
%ADD14R,1.400000X1.400000*%
%ADD15RoundRect,0.140000X0.140000X0.170000X-0.140000X0.170000X-0.140000X-0.170000X0.140000X-0.170000X0*%
%ADD16R,0.300000X1.250000*%
%ADD17R,2.000000X2.500000*%
%ADD18RoundRect,0.070000X-0.800000X0.150000X-0.800000X-0.150000X0.800000X-0.150000X0.800000X0.150000X0*%
G04 APERTURE END LIST*
D10*
%TO.C,J17*%
X32889999Y-35032500D03*
%TD*%
D11*
%TO.C,J24*%
X24564999Y-37262500D03*
%TD*%
D10*
%TO.C,J5*%
X25680000Y-27262500D03*
%TD*%
%TO.C,J4*%
X25680000Y-22182500D03*
%TD*%
D11*
%TO.C,J25*%
X28064999Y-37262500D03*
%TD*%
D12*
%TO.C,U1*%
X31184999Y-29522500D03*
X30784999Y-29522500D03*
X30384999Y-29522500D03*
X29984999Y-29522500D03*
X29584999Y-29522500D03*
D13*
X28934999Y-30172500D03*
X28934999Y-30572500D03*
X28934999Y-30972500D03*
X28934999Y-31372500D03*
X28934999Y-31772500D03*
D12*
X29584999Y-32422500D03*
X29984999Y-32422500D03*
X30384999Y-32422500D03*
X30784999Y-32422500D03*
X31184999Y-32422500D03*
D13*
X31834999Y-31772500D03*
X31834999Y-31372500D03*
X31834999Y-30972500D03*
X31834999Y-30572500D03*
X31834999Y-30172500D03*
D14*
X30384999Y-30972500D03*
%TD*%
D10*
%TO.C,J3*%
X24410000Y-22182500D03*
%TD*%
D15*
%TO.C,C1*%
X30154999Y-28452500D03*
X29194999Y-28452500D03*
%TD*%
D10*
%TO.C,J19*%
X20600000Y-27262500D03*
%TD*%
%TO.C,J22*%
X27809999Y-33762500D03*
%TD*%
%TO.C,J20*%
X32030000Y-27262500D03*
%TD*%
D16*
%TO.C,FPC2*%
X30565000Y-25402500D03*
X30065000Y-25402500D03*
X29565000Y-25402500D03*
X29065000Y-25402500D03*
X28565000Y-25402500D03*
X28065000Y-25402500D03*
X27565000Y-25402500D03*
X27065000Y-25402500D03*
X26565000Y-25402500D03*
X26065000Y-25402500D03*
X25565000Y-25402500D03*
X25065000Y-25402500D03*
X24565000Y-25402500D03*
X24065000Y-25402500D03*
X23565000Y-25402500D03*
X23065000Y-25402500D03*
X22565000Y-25402500D03*
X22065000Y-25402500D03*
D17*
X32255000Y-22822500D03*
X20375000Y-22862500D03*
%TD*%
D10*
%TO.C,J2*%
X23140000Y-27262500D03*
%TD*%
%TO.C,J12*%
X31619999Y-33762500D03*
%TD*%
%TO.C,J10*%
X26950000Y-22182500D03*
%TD*%
%TO.C,J8*%
X29490000Y-27262500D03*
%TD*%
%TO.C,J1*%
X21870000Y-27262500D03*
%TD*%
D18*
%TO.C,U2*%
X20015000Y-29587500D03*
X20015000Y-30237500D03*
X20015000Y-30887500D03*
X20015000Y-31537500D03*
X20015000Y-32187500D03*
X20015000Y-32837500D03*
X20015000Y-33487500D03*
X20015000Y-34137500D03*
X20015000Y-34787500D03*
X20015000Y-35437500D03*
X25615000Y-35437500D03*
X25615000Y-34787500D03*
X25615000Y-34137500D03*
X25615000Y-33487500D03*
X25615000Y-32837500D03*
X25615000Y-32187500D03*
X25615000Y-31537500D03*
X25615000Y-30887500D03*
X25615000Y-30237500D03*
X25615000Y-29587500D03*
%TD*%
D10*
%TO.C,J15*%
X30349999Y-35032500D03*
%TD*%
%TO.C,J14*%
X29079999Y-33762500D03*
%TD*%
%TO.C,J18*%
X27809999Y-35032500D03*
%TD*%
%TO.C,J13*%
X30350000Y-33762500D03*
%TD*%
D11*
%TO.C,J26*%
X26314999Y-37262500D03*
%TD*%
D10*
%TO.C,J7*%
X28220000Y-27262500D03*
%TD*%
%TO.C,J21*%
X29079999Y-35032500D03*
%TD*%
%TO.C,J16*%
X31619999Y-35032500D03*
%TD*%
%TO.C,J11*%
X32889999Y-33762500D03*
%TD*%
%TO.C,J23*%
X28220000Y-22182500D03*
%TD*%
%TO.C,J6*%
X26950000Y-27262500D03*
%TD*%
%TO.C,J9*%
X30760000Y-27262500D03*
%TD*%
M02*
