%TF.GenerationSoftware,KiCad,Pcbnew,9.0.6-9.0.6~ubuntu24.04.1*%
%TF.CreationDate,2026-01-03T12:55:21+00:00*%
%TF.ProjectId,COM_MOD,434f4d5f-4d4f-4442-9e6b-696361645f70,1.0*%
%TF.SameCoordinates,Original*%
%TF.FileFunction,Copper,L2,Inr*%
%TF.FilePolarity,Positive*%
%FSLAX46Y46*%
G04 Gerber Fmt 4.6, Leading zero omitted, Abs format (unit mm)*
G04 Created by KiCad (PCBNEW 9.0.6-9.0.6~ubuntu24.04.1) date 2026-01-03 12:55:21*
%MOMM*%
%LPD*%
G01*
G04 APERTURE LIST*
%TA.AperFunction,ComponentPad*%
%ADD10R,1.000000X1.000000*%
%TD*%
%TA.AperFunction,CastellatedPad*%
%ADD11R,1.700000X1.700000*%
%TD*%
%TA.AperFunction,ViaPad*%
%ADD12C,0.400000*%
%TD*%
G04 APERTURE END LIST*
D10*
%TO.N,/I2C_SDA*%
%TO.C,J17*%
X32889999Y-35032500D03*
%TD*%
D11*
%TO.N,GND*%
%TO.C,J24*%
X24564999Y-37262500D03*
%TD*%
D10*
%TO.N,/POCI*%
%TO.C,J5*%
X25680000Y-27262500D03*
%TD*%
%TO.N,/IO1_out*%
%TO.C,J4*%
X25680000Y-22182500D03*
%TD*%
D11*
%TO.N,GND*%
%TO.C,J25*%
X28064999Y-37262500D03*
%TD*%
D10*
%TO.N,/AUX3*%
%TO.C,J3*%
X24410000Y-22182500D03*
%TD*%
%TO.N,/AUX1*%
%TO.C,J19*%
X20600000Y-27262500D03*
%TD*%
%TO.N,GND*%
%TO.C,J22*%
X27809999Y-33762500D03*
%TD*%
%TO.N,/AUX2*%
%TO.C,J20*%
X32030000Y-27262500D03*
%TD*%
%TO.N,GND*%
%TO.C,J2*%
X23140000Y-27262500D03*
%TD*%
%TO.N,/SWDIO{slash}POCI_ARM*%
%TO.C,J12*%
X31619999Y-33762500D03*
%TD*%
%TO.N,/I2C_SDA*%
%TO.C,J10*%
X26950000Y-22182500D03*
%TD*%
%TO.N,/CSB*%
%TO.C,J8*%
X29490000Y-27262500D03*
%TD*%
%TO.N,+3.3V*%
%TO.C,J1*%
X21870000Y-27262500D03*
%TD*%
%TO.N,/SPICS_ARM*%
%TO.C,J15*%
X30349999Y-35032500D03*
%TD*%
%TO.N,/SCLK_ARM*%
%TO.C,J14*%
X29079999Y-33762500D03*
%TD*%
%TO.N,/AIN0*%
%TO.C,J18*%
X27809999Y-35032500D03*
%TD*%
%TO.N,/PICO_ARM*%
%TO.C,J13*%
X30350000Y-33762500D03*
%TD*%
D11*
%TO.N,GND*%
%TO.C,J26*%
X26314999Y-37262500D03*
%TD*%
D10*
%TO.N,/SCLK*%
%TO.C,J7*%
X28220000Y-27262500D03*
%TD*%
%TO.N,/GPIO*%
%TO.C,J21*%
X29079999Y-35032500D03*
%TD*%
%TO.N,/i2C_SCL*%
%TO.C,J16*%
X31619999Y-35032500D03*
%TD*%
%TO.N,/IO1_out*%
%TO.C,J11*%
X32889999Y-33762500D03*
%TD*%
%TO.N,/i2C_SCL*%
%TO.C,J23*%
X28220000Y-22182500D03*
%TD*%
%TO.N,/PICO*%
%TO.C,J6*%
X26950000Y-27262500D03*
%TD*%
%TO.N,/extRef*%
%TO.C,J9*%
X30760000Y-27262500D03*
%TD*%
D12*
%TO.N,GND*%
X27014999Y-31262500D03*
X27514999Y-30962500D03*
X19414999Y-28462500D03*
X23514999Y-30662500D03*
X21614999Y-35462500D03*
X30064999Y-30612500D03*
X31664999Y-22012500D03*
X32864999Y-23712500D03*
X25564999Y-31512500D03*
X23514999Y-29862500D03*
X26314999Y-31012500D03*
X27014999Y-30662500D03*
X31664999Y-23712500D03*
X21777499Y-28625000D03*
X27014999Y-30062500D03*
X23514999Y-31362500D03*
X30764999Y-31362500D03*
X30764999Y-30612500D03*
X20964999Y-23712500D03*
X32255000Y-22862500D03*
X19764999Y-23712500D03*
X32864999Y-22012500D03*
X30064999Y-31362500D03*
X20964999Y-22012500D03*
X20375000Y-22862500D03*
X23914999Y-35662500D03*
X19764999Y-22012500D03*
%TO.N,/addr_bus_0*%
X24064999Y-24412500D03*
%TO.N,/addr_bus_1*%
X24564999Y-24112500D03*
%TO.N,/addr_bus_2*%
X25064999Y-24412500D03*
%TO.N,/addr_bus_3*%
X25564999Y-24112500D03*
%TO.N,/addr_bus_4*%
X26064999Y-24412500D03*
%TO.N,/i2C_SCL*%
X29564999Y-24412500D03*
X32604999Y-30172500D03*
%TO.N,/I2C_SDA*%
X29064999Y-24112500D03*
%TO.N,/IO1_in*%
X32375000Y-28262500D03*
%TO.N,/IO2*%
X28564999Y-24412500D03*
%TO.N,/AUX3*%
X23565000Y-24112500D03*
%TO.N,/LED_IN*%
X31765000Y-29347500D03*
%TO.N,+3.3V*%
X28314999Y-28812500D03*
%TO.N,/addr_mod_0*%
X21754999Y-30232500D03*
X33044999Y-31992500D03*
%TO.N,/addr_mod_1*%
X21854999Y-31502500D03*
X32364999Y-32212500D03*
%TO.N,/addr_mod_2*%
X22014999Y-32862500D03*
X32574999Y-32792500D03*
%TO.N,/addr_mod_3*%
X23514999Y-32262500D03*
X28314999Y-30562500D03*
%TO.N,/IO1_out*%
X33114999Y-32552500D03*
%TD*%
%TA.AperFunction,Conductor*%
%TO.N,GND*%
G36*
X33071061Y-21023596D02*
G01*
X33080633Y-21024538D01*
X33197118Y-21036011D01*
X33220948Y-21040750D01*
X33336313Y-21075746D01*
X33358761Y-21085045D01*
X33465072Y-21141869D01*
X33485282Y-21155373D01*
X33578464Y-21231844D01*
X33595654Y-21249034D01*
X33672124Y-21342214D01*
X33685628Y-21362424D01*
X33742452Y-21468733D01*
X33751754Y-21491189D01*
X33783928Y-21597252D01*
X33786747Y-21606543D01*
X33791489Y-21630386D01*
X33803902Y-21756426D01*
X33804499Y-21768579D01*
X33804499Y-36506407D01*
X33803902Y-36518561D01*
X33791487Y-36644613D01*
X33786744Y-36668455D01*
X33751751Y-36783810D01*
X33742449Y-36806267D01*
X33685628Y-36912571D01*
X33672123Y-36932783D01*
X33595651Y-37025964D01*
X33578463Y-37043152D01*
X33485283Y-37119623D01*
X33465072Y-37133127D01*
X33465071Y-37133128D01*
X33358766Y-37189949D01*
X33336309Y-37199251D01*
X33220954Y-37234244D01*
X33197112Y-37238987D01*
X33071048Y-37251403D01*
X33058894Y-37252000D01*
X29538999Y-37252000D01*
X29471960Y-37232315D01*
X29426205Y-37179511D01*
X29414999Y-37128000D01*
X29414999Y-36364672D01*
X29414998Y-36364655D01*
X29408597Y-36305127D01*
X29408595Y-36305120D01*
X29358353Y-36170413D01*
X29358349Y-36170406D01*
X29272189Y-36055312D01*
X29272186Y-36055309D01*
X29157092Y-35969149D01*
X29157085Y-35969145D01*
X29022378Y-35918903D01*
X29022371Y-35918901D01*
X28962843Y-35912500D01*
X28314999Y-35912500D01*
X28314999Y-36829488D01*
X28257992Y-36796575D01*
X28130825Y-36762500D01*
X27999173Y-36762500D01*
X27872006Y-36796575D01*
X27814999Y-36829488D01*
X27814999Y-35912500D01*
X26564999Y-35912500D01*
X26564999Y-36829488D01*
X26507992Y-36796575D01*
X26380825Y-36762500D01*
X26249173Y-36762500D01*
X26122006Y-36796575D01*
X26064999Y-36829488D01*
X26064999Y-35912500D01*
X24814999Y-35912500D01*
X24814999Y-36829488D01*
X24757992Y-36796575D01*
X24630825Y-36762500D01*
X24499173Y-36762500D01*
X24372006Y-36796575D01*
X24314999Y-36829488D01*
X24314999Y-35912500D01*
X23667154Y-35912500D01*
X23607626Y-35918901D01*
X23607619Y-35918903D01*
X23472912Y-35969145D01*
X23472905Y-35969149D01*
X23357811Y-36055309D01*
X23357808Y-36055312D01*
X23271648Y-36170406D01*
X23271644Y-36170413D01*
X23221402Y-36305120D01*
X23221400Y-36305127D01*
X23214999Y-36364655D01*
X23214999Y-37128000D01*
X23195314Y-37195039D01*
X23142510Y-37240794D01*
X23090999Y-37252000D01*
X19571091Y-37252000D01*
X19558937Y-37251403D01*
X19432885Y-37238988D01*
X19409045Y-37234246D01*
X19293690Y-37199253D01*
X19271233Y-37189951D01*
X19164924Y-37133127D01*
X19144713Y-37119622D01*
X19051534Y-37043152D01*
X19034346Y-37025964D01*
X18957875Y-36932784D01*
X18944370Y-36912572D01*
X18887548Y-36806264D01*
X18878247Y-36783810D01*
X18843254Y-36668455D01*
X18838512Y-36644618D01*
X18826097Y-36518560D01*
X18825500Y-36506407D01*
X18825500Y-34012500D01*
X26809999Y-34012500D01*
X26809999Y-34310344D01*
X26816400Y-34369872D01*
X26816402Y-34369879D01*
X26866644Y-34504586D01*
X26866648Y-34504593D01*
X26952808Y-34619687D01*
X26952811Y-34619690D01*
X27067905Y-34705850D01*
X27067914Y-34705855D01*
X27138831Y-34732305D01*
X27194765Y-34774175D01*
X27219183Y-34839640D01*
X27219499Y-34848487D01*
X27219499Y-35541408D01*
X27224750Y-35567812D01*
X27224751Y-35567814D01*
X27244751Y-35597747D01*
X27274687Y-35617749D01*
X27283406Y-35619483D01*
X27301086Y-35623000D01*
X28318911Y-35622999D01*
X28345310Y-35617749D01*
X28375246Y-35597747D01*
X28375246Y-35597746D01*
X28376109Y-35597170D01*
X28442786Y-35576293D01*
X28510166Y-35594778D01*
X28513889Y-35597170D01*
X28514751Y-35597746D01*
X28514752Y-35597747D01*
X28544688Y-35617749D01*
X28571086Y-35623000D01*
X29588911Y-35622999D01*
X29615310Y-35617749D01*
X29645246Y-35597747D01*
X29645246Y-35597746D01*
X29646109Y-35597170D01*
X29712786Y-35576293D01*
X29780166Y-35594778D01*
X29783889Y-35597170D01*
X29784751Y-35597746D01*
X29784752Y-35597747D01*
X29814688Y-35617749D01*
X29841086Y-35623000D01*
X30858911Y-35622999D01*
X30885310Y-35617749D01*
X30915246Y-35597747D01*
X30915246Y-35597746D01*
X30916109Y-35597170D01*
X30982786Y-35576293D01*
X31050166Y-35594778D01*
X31053889Y-35597170D01*
X31054751Y-35597746D01*
X31054752Y-35597747D01*
X31084688Y-35617749D01*
X31111086Y-35623000D01*
X32128911Y-35622999D01*
X32155310Y-35617749D01*
X32185246Y-35597747D01*
X32185246Y-35597746D01*
X32186109Y-35597170D01*
X32252786Y-35576293D01*
X32320166Y-35594778D01*
X32323889Y-35597170D01*
X32324751Y-35597746D01*
X32324752Y-35597747D01*
X32354688Y-35617749D01*
X32381086Y-35623000D01*
X33398911Y-35622999D01*
X33425310Y-35617749D01*
X33455246Y-35597747D01*
X33475248Y-35567811D01*
X33480499Y-35541413D01*
X33480498Y-34523588D01*
X33475248Y-34497189D01*
X33475247Y-34497187D01*
X33475246Y-34497185D01*
X33454669Y-34466388D01*
X33433792Y-34399710D01*
X33452278Y-34332330D01*
X33454670Y-34328608D01*
X33455244Y-34327747D01*
X33455246Y-34327747D01*
X33475248Y-34297811D01*
X33480499Y-34271413D01*
X33480498Y-33253588D01*
X33475248Y-33227189D01*
X33475247Y-33227187D01*
X33475246Y-33227185D01*
X33455246Y-33197252D01*
X33425310Y-33177250D01*
X33398914Y-33172000D01*
X32975390Y-33172000D01*
X32908351Y-33152315D01*
X32862596Y-33099511D01*
X32852652Y-33030353D01*
X32868001Y-32986003D01*
X32888841Y-32949908D01*
X32939409Y-32901696D01*
X33008016Y-32888475D01*
X33028311Y-32892136D01*
X33068855Y-32903000D01*
X33068858Y-32903000D01*
X33161141Y-32903000D01*
X33161143Y-32903000D01*
X33250287Y-32879114D01*
X33330211Y-32832969D01*
X33395468Y-32767712D01*
X33441613Y-32687788D01*
X33465499Y-32598644D01*
X33465499Y-32506356D01*
X33441613Y-32417212D01*
X33441610Y-32417206D01*
X33395472Y-32337294D01*
X33395469Y-32337291D01*
X33395468Y-32337288D01*
X33370942Y-32312762D01*
X33337457Y-32251439D01*
X33342441Y-32181747D01*
X33351237Y-32163079D01*
X33371612Y-32127789D01*
X33371613Y-32127788D01*
X33395499Y-32038644D01*
X33395499Y-31946356D01*
X33371613Y-31857212D01*
X33371610Y-31857206D01*
X33325472Y-31777294D01*
X33325469Y-31777291D01*
X33325468Y-31777288D01*
X33260211Y-31712031D01*
X33260208Y-31712029D01*
X33260204Y-31712026D01*
X33180292Y-31665888D01*
X33180289Y-31665887D01*
X33180288Y-31665886D01*
X33180287Y-31665886D01*
X33091143Y-31642000D01*
X32998855Y-31642000D01*
X32909711Y-31665886D01*
X32909710Y-31665886D01*
X32909708Y-31665887D01*
X32909705Y-31665888D01*
X32829793Y-31712026D01*
X32829784Y-31712033D01*
X32764532Y-31777285D01*
X32764525Y-31777294D01*
X32714320Y-31864251D01*
X32711659Y-31862714D01*
X32676936Y-31905769D01*
X32610633Y-31927808D01*
X32544254Y-31911271D01*
X32500289Y-31885886D01*
X32440857Y-31869962D01*
X32411143Y-31862000D01*
X32318855Y-31862000D01*
X32229711Y-31885886D01*
X32229710Y-31885886D01*
X32229708Y-31885887D01*
X32229705Y-31885888D01*
X32149793Y-31932026D01*
X32149784Y-31932033D01*
X32084532Y-31997285D01*
X32084525Y-31997294D01*
X32038387Y-32077206D01*
X32038386Y-32077209D01*
X32038385Y-32077211D01*
X32038385Y-32077212D01*
X32014499Y-32166356D01*
X32014499Y-32258644D01*
X32035573Y-32337294D01*
X32038386Y-32347790D01*
X32038387Y-32347793D01*
X32084525Y-32427705D01*
X32084528Y-32427709D01*
X32084530Y-32427712D01*
X32149787Y-32492969D01*
X32190888Y-32516699D01*
X32239103Y-32567265D01*
X32252326Y-32635872D01*
X32248662Y-32656178D01*
X32224499Y-32746356D01*
X32224499Y-32838643D01*
X32248385Y-32927788D01*
X32286338Y-32993523D01*
X32302811Y-33061423D01*
X32279959Y-33127450D01*
X32225038Y-33170641D01*
X32155485Y-33177283D01*
X32154759Y-33177141D01*
X32128914Y-33172000D01*
X31111090Y-33172000D01*
X31084687Y-33177251D01*
X31053888Y-33197830D01*
X30987210Y-33218706D01*
X30919830Y-33200220D01*
X30916110Y-33197829D01*
X30885311Y-33177250D01*
X30858915Y-33172000D01*
X29841091Y-33172000D01*
X29814687Y-33177251D01*
X29814682Y-33177253D01*
X29783886Y-33197830D01*
X29717208Y-33218706D01*
X29649829Y-33200219D01*
X29646111Y-33197830D01*
X29615309Y-33177250D01*
X29615310Y-33177250D01*
X29588914Y-33172000D01*
X28895987Y-33172000D01*
X28828948Y-33152315D01*
X28783193Y-33099511D01*
X28779805Y-33091334D01*
X28753352Y-33020411D01*
X28753349Y-33020406D01*
X28667189Y-32905312D01*
X28667186Y-32905309D01*
X28552092Y-32819149D01*
X28552085Y-32819145D01*
X28417378Y-32768903D01*
X28417371Y-32768901D01*
X28357843Y-32762500D01*
X28059999Y-32762500D01*
X28059999Y-33552882D01*
X28009553Y-33502436D01*
X27935444Y-33459649D01*
X27852786Y-33437500D01*
X27767212Y-33437500D01*
X27684554Y-33459649D01*
X27610445Y-33502436D01*
X27549935Y-33562946D01*
X27507148Y-33637055D01*
X27484999Y-33719713D01*
X27484999Y-33805287D01*
X27507148Y-33887945D01*
X27549935Y-33962054D01*
X27600381Y-34012500D01*
X26809999Y-34012500D01*
X18825500Y-34012500D01*
X18825500Y-33214655D01*
X26809999Y-33214655D01*
X26809999Y-33512500D01*
X27559999Y-33512500D01*
X27559999Y-32762500D01*
X27262154Y-32762500D01*
X27202626Y-32768901D01*
X27202619Y-32768903D01*
X27067912Y-32819145D01*
X27067905Y-32819149D01*
X26952811Y-32905309D01*
X26952808Y-32905312D01*
X26866648Y-33020406D01*
X26866644Y-33020413D01*
X26816402Y-33155120D01*
X26816400Y-33155127D01*
X26809999Y-33214655D01*
X18825500Y-33214655D01*
X18825500Y-32816356D01*
X21664499Y-32816356D01*
X21664499Y-32908644D01*
X21687242Y-32993523D01*
X21688386Y-32997790D01*
X21688387Y-32997793D01*
X21734525Y-33077705D01*
X21734528Y-33077709D01*
X21734530Y-33077712D01*
X21799787Y-33142969D01*
X21799790Y-33142970D01*
X21799793Y-33142973D01*
X21879705Y-33189111D01*
X21879706Y-33189111D01*
X21879711Y-33189114D01*
X21968855Y-33213000D01*
X21968857Y-33213000D01*
X22061141Y-33213000D01*
X22061143Y-33213000D01*
X22150287Y-33189114D01*
X22230211Y-33142969D01*
X22295468Y-33077712D01*
X22341613Y-32997788D01*
X22365499Y-32908644D01*
X22365499Y-32816356D01*
X22341613Y-32727212D01*
X22341610Y-32727206D01*
X22295472Y-32647294D01*
X22295469Y-32647291D01*
X22295468Y-32647288D01*
X22230211Y-32582031D01*
X22230208Y-32582029D01*
X22230204Y-32582026D01*
X22150292Y-32535888D01*
X22150289Y-32535887D01*
X22150288Y-32535886D01*
X22150287Y-32535886D01*
X22061143Y-32512000D01*
X21968855Y-32512000D01*
X21879711Y-32535886D01*
X21879710Y-32535886D01*
X21879708Y-32535887D01*
X21879705Y-32535888D01*
X21799793Y-32582026D01*
X21799784Y-32582033D01*
X21734532Y-32647285D01*
X21734525Y-32647294D01*
X21688387Y-32727206D01*
X21688386Y-32727209D01*
X21688385Y-32727211D01*
X21688385Y-32727212D01*
X21664499Y-32816356D01*
X18825500Y-32816356D01*
X18825500Y-32216356D01*
X23164499Y-32216356D01*
X23164499Y-32308644D01*
X23172173Y-32337285D01*
X23188386Y-32397790D01*
X23188387Y-32397793D01*
X23234525Y-32477705D01*
X23234528Y-32477709D01*
X23234530Y-32477712D01*
X23299787Y-32542969D01*
X23299790Y-32542970D01*
X23299793Y-32542973D01*
X23379705Y-32589111D01*
X23379706Y-32589111D01*
X23379711Y-32589114D01*
X23468855Y-32613000D01*
X23468857Y-32613000D01*
X23561141Y-32613000D01*
X23561143Y-32613000D01*
X23650287Y-32589114D01*
X23730211Y-32542969D01*
X23795468Y-32477712D01*
X23841613Y-32397788D01*
X23865499Y-32308644D01*
X23865499Y-32216356D01*
X23841613Y-32127212D01*
X23812745Y-32077212D01*
X23795472Y-32047294D01*
X23795469Y-32047291D01*
X23795468Y-32047288D01*
X23730211Y-31982031D01*
X23730208Y-31982029D01*
X23730204Y-31982026D01*
X23650292Y-31935888D01*
X23650289Y-31935887D01*
X23650288Y-31935886D01*
X23650287Y-31935886D01*
X23561143Y-31912000D01*
X23468855Y-31912000D01*
X23379711Y-31935886D01*
X23379710Y-31935886D01*
X23379708Y-31935887D01*
X23379705Y-31935888D01*
X23299793Y-31982026D01*
X23299784Y-31982033D01*
X23234532Y-32047285D01*
X23234525Y-32047294D01*
X23188387Y-32127206D01*
X23188386Y-32127209D01*
X23188385Y-32127211D01*
X23188385Y-32127212D01*
X23164499Y-32216356D01*
X18825500Y-32216356D01*
X18825500Y-31456356D01*
X21504499Y-31456356D01*
X21504499Y-31548643D01*
X21528386Y-31637790D01*
X21528387Y-31637793D01*
X21574525Y-31717705D01*
X21574528Y-31717709D01*
X21574530Y-31717712D01*
X21639787Y-31782969D01*
X21639790Y-31782970D01*
X21639793Y-31782973D01*
X21719705Y-31829111D01*
X21719706Y-31829111D01*
X21719711Y-31829114D01*
X21808855Y-31853000D01*
X21808857Y-31853000D01*
X21901141Y-31853000D01*
X21901143Y-31853000D01*
X21990287Y-31829114D01*
X22070211Y-31782969D01*
X22135468Y-31717712D01*
X22181613Y-31637788D01*
X22205499Y-31548644D01*
X22205499Y-31456356D01*
X22181613Y-31367212D01*
X22181610Y-31367206D01*
X22135472Y-31287294D01*
X22135469Y-31287291D01*
X22135468Y-31287288D01*
X22070211Y-31222031D01*
X22070208Y-31222029D01*
X22070204Y-31222026D01*
X21990292Y-31175888D01*
X21990289Y-31175887D01*
X21990288Y-31175886D01*
X21990287Y-31175886D01*
X21901143Y-31152000D01*
X21808855Y-31152000D01*
X21719711Y-31175886D01*
X21719710Y-31175886D01*
X21719708Y-31175887D01*
X21719705Y-31175888D01*
X21639793Y-31222026D01*
X21639784Y-31222033D01*
X21574532Y-31287285D01*
X21574525Y-31287294D01*
X21528387Y-31367206D01*
X21528386Y-31367209D01*
X21504499Y-31456356D01*
X18825500Y-31456356D01*
X18825500Y-30186356D01*
X21404499Y-30186356D01*
X21404499Y-30278644D01*
X21422891Y-30347285D01*
X21428386Y-30367790D01*
X21428387Y-30367793D01*
X21474525Y-30447705D01*
X21474528Y-30447709D01*
X21474530Y-30447712D01*
X21539787Y-30512969D01*
X21539790Y-30512970D01*
X21539793Y-30512973D01*
X21619705Y-30559111D01*
X21619706Y-30559111D01*
X21619711Y-30559114D01*
X21708855Y-30583000D01*
X21708857Y-30583000D01*
X21801141Y-30583000D01*
X21801143Y-30583000D01*
X21890287Y-30559114D01*
X21964345Y-30516356D01*
X27964499Y-30516356D01*
X27964499Y-30608643D01*
X27988386Y-30697790D01*
X27988387Y-30697793D01*
X28034525Y-30777705D01*
X28034528Y-30777709D01*
X28034530Y-30777712D01*
X28099787Y-30842969D01*
X28099790Y-30842970D01*
X28099793Y-30842973D01*
X28179705Y-30889111D01*
X28179706Y-30889111D01*
X28179711Y-30889114D01*
X28268855Y-30913000D01*
X28268857Y-30913000D01*
X28361141Y-30913000D01*
X28361143Y-30913000D01*
X28450287Y-30889114D01*
X28530211Y-30842969D01*
X28595468Y-30777712D01*
X28641613Y-30697788D01*
X28665499Y-30608644D01*
X28665499Y-30516356D01*
X28641613Y-30427212D01*
X28641610Y-30427206D01*
X28595472Y-30347294D01*
X28595469Y-30347291D01*
X28595468Y-30347288D01*
X28530211Y-30282031D01*
X28530208Y-30282029D01*
X28530204Y-30282026D01*
X28450294Y-30235889D01*
X28450287Y-30235886D01*
X28361143Y-30212000D01*
X28268855Y-30212000D01*
X28179711Y-30235886D01*
X28179710Y-30235886D01*
X28179708Y-30235887D01*
X28179705Y-30235888D01*
X28099793Y-30282026D01*
X28099784Y-30282033D01*
X28034532Y-30347285D01*
X28034525Y-30347294D01*
X27988387Y-30427206D01*
X27988386Y-30427209D01*
X27988385Y-30427211D01*
X27988385Y-30427212D01*
X27969120Y-30499111D01*
X27964499Y-30516356D01*
X21964345Y-30516356D01*
X21970211Y-30512969D01*
X22035468Y-30447712D01*
X22081613Y-30367788D01*
X22105499Y-30278644D01*
X22105499Y-30186356D01*
X22089422Y-30126356D01*
X32254499Y-30126356D01*
X32254499Y-30218644D01*
X32271483Y-30282031D01*
X32278386Y-30307790D01*
X32278387Y-30307793D01*
X32324525Y-30387705D01*
X32324528Y-30387709D01*
X32324530Y-30387712D01*
X32389787Y-30452969D01*
X32389790Y-30452970D01*
X32389793Y-30452973D01*
X32469705Y-30499111D01*
X32469706Y-30499111D01*
X32469711Y-30499114D01*
X32558855Y-30523000D01*
X32558857Y-30523000D01*
X32651141Y-30523000D01*
X32651143Y-30523000D01*
X32740287Y-30499114D01*
X32820211Y-30452969D01*
X32885468Y-30387712D01*
X32931613Y-30307788D01*
X32955499Y-30218644D01*
X32955499Y-30126356D01*
X32931613Y-30037212D01*
X32931610Y-30037206D01*
X32885472Y-29957294D01*
X32885469Y-29957291D01*
X32885468Y-29957288D01*
X32820211Y-29892031D01*
X32820208Y-29892029D01*
X32820204Y-29892026D01*
X32740292Y-29845888D01*
X32740289Y-29845887D01*
X32740288Y-29845886D01*
X32740287Y-29845886D01*
X32651143Y-29822000D01*
X32558855Y-29822000D01*
X32469711Y-29845886D01*
X32469710Y-29845886D01*
X32469708Y-29845887D01*
X32469705Y-29845888D01*
X32389793Y-29892026D01*
X32389784Y-29892033D01*
X32324532Y-29957285D01*
X32324525Y-29957294D01*
X32278387Y-30037206D01*
X32278386Y-30037209D01*
X32278385Y-30037211D01*
X32278385Y-30037212D01*
X32254499Y-30126356D01*
X22089422Y-30126356D01*
X22081613Y-30097212D01*
X22081610Y-30097206D01*
X22035472Y-30017294D01*
X22035469Y-30017291D01*
X22035468Y-30017288D01*
X21970211Y-29952031D01*
X21970208Y-29952029D01*
X21970204Y-29952026D01*
X21890292Y-29905888D01*
X21890289Y-29905887D01*
X21890288Y-29905886D01*
X21890287Y-29905886D01*
X21801143Y-29882000D01*
X21708855Y-29882000D01*
X21619711Y-29905886D01*
X21619710Y-29905886D01*
X21619708Y-29905887D01*
X21619705Y-29905888D01*
X21539793Y-29952026D01*
X21539784Y-29952033D01*
X21474532Y-30017285D01*
X21474525Y-30017294D01*
X21428387Y-30097206D01*
X21428386Y-30097209D01*
X21428385Y-30097211D01*
X21428385Y-30097212D01*
X21404499Y-30186356D01*
X18825500Y-30186356D01*
X18825500Y-29301356D01*
X31414500Y-29301356D01*
X31414500Y-29393643D01*
X31438387Y-29482790D01*
X31438388Y-29482793D01*
X31484526Y-29562705D01*
X31484529Y-29562709D01*
X31484531Y-29562712D01*
X31549788Y-29627969D01*
X31549791Y-29627970D01*
X31549794Y-29627973D01*
X31629706Y-29674111D01*
X31629707Y-29674111D01*
X31629712Y-29674114D01*
X31718856Y-29698000D01*
X31718858Y-29698000D01*
X31811142Y-29698000D01*
X31811144Y-29698000D01*
X31900288Y-29674114D01*
X31980212Y-29627969D01*
X32045469Y-29562712D01*
X32091614Y-29482788D01*
X32115500Y-29393644D01*
X32115500Y-29301356D01*
X32091614Y-29212212D01*
X32063201Y-29163000D01*
X32045473Y-29132294D01*
X32045470Y-29132291D01*
X32045469Y-29132288D01*
X31980212Y-29067031D01*
X31980209Y-29067029D01*
X31980205Y-29067026D01*
X31900293Y-29020888D01*
X31900290Y-29020887D01*
X31900289Y-29020886D01*
X31900288Y-29020886D01*
X31811144Y-28997000D01*
X31718856Y-28997000D01*
X31629712Y-29020886D01*
X31629711Y-29020886D01*
X31629709Y-29020887D01*
X31629706Y-29020888D01*
X31549794Y-29067026D01*
X31549785Y-29067033D01*
X31484533Y-29132285D01*
X31484526Y-29132294D01*
X31438388Y-29212206D01*
X31438387Y-29212209D01*
X31414500Y-29301356D01*
X18825500Y-29301356D01*
X18825500Y-28766356D01*
X27964499Y-28766356D01*
X27964499Y-28858643D01*
X27988386Y-28947790D01*
X27988387Y-28947793D01*
X28034525Y-29027705D01*
X28034528Y-29027709D01*
X28034530Y-29027712D01*
X28099787Y-29092969D01*
X28099790Y-29092970D01*
X28099793Y-29092973D01*
X28179705Y-29139111D01*
X28179706Y-29139111D01*
X28179711Y-29139114D01*
X28268855Y-29163000D01*
X28268857Y-29163000D01*
X28361141Y-29163000D01*
X28361143Y-29163000D01*
X28450287Y-29139114D01*
X28530211Y-29092969D01*
X28595468Y-29027712D01*
X28641613Y-28947788D01*
X28665499Y-28858644D01*
X28665499Y-28766356D01*
X28641613Y-28677212D01*
X28641610Y-28677206D01*
X28595472Y-28597294D01*
X28595469Y-28597291D01*
X28595468Y-28597288D01*
X28530211Y-28532031D01*
X28530208Y-28532029D01*
X28530204Y-28532026D01*
X28450292Y-28485888D01*
X28450289Y-28485887D01*
X28450288Y-28485886D01*
X28450287Y-28485886D01*
X28361143Y-28462000D01*
X28268855Y-28462000D01*
X28179711Y-28485886D01*
X28179710Y-28485886D01*
X28179708Y-28485887D01*
X28179705Y-28485888D01*
X28099793Y-28532026D01*
X28099784Y-28532033D01*
X28034532Y-28597285D01*
X28034525Y-28597294D01*
X27988387Y-28677206D01*
X27988386Y-28677209D01*
X27964499Y-28766356D01*
X18825500Y-28766356D01*
X18825500Y-26753584D01*
X20009500Y-26753584D01*
X20009500Y-27771408D01*
X20014751Y-27797812D01*
X20014752Y-27797814D01*
X20034752Y-27827747D01*
X20064688Y-27847749D01*
X20073407Y-27849483D01*
X20091087Y-27853000D01*
X21108912Y-27852999D01*
X21135311Y-27847749D01*
X21165247Y-27827747D01*
X21165247Y-27827746D01*
X21166110Y-27827170D01*
X21232787Y-27806293D01*
X21300167Y-27824778D01*
X21303890Y-27827170D01*
X21304752Y-27827746D01*
X21304753Y-27827747D01*
X21334689Y-27847749D01*
X21361087Y-27853000D01*
X22054013Y-27852999D01*
X22121051Y-27872683D01*
X22166806Y-27925487D01*
X22170194Y-27933666D01*
X22196645Y-28004586D01*
X22196649Y-28004593D01*
X22282809Y-28119687D01*
X22282812Y-28119690D01*
X22397906Y-28205850D01*
X22397913Y-28205854D01*
X22532620Y-28256096D01*
X22532627Y-28256098D01*
X22592155Y-28262499D01*
X22592172Y-28262500D01*
X22890000Y-28262500D01*
X23390000Y-28262500D01*
X23687828Y-28262500D01*
X23687844Y-28262499D01*
X23747372Y-28256098D01*
X23747379Y-28256096D01*
X23882086Y-28205854D01*
X23882093Y-28205850D01*
X23997187Y-28119690D01*
X23997190Y-28119687D01*
X24083350Y-28004593D01*
X24083354Y-28004586D01*
X24133596Y-27869879D01*
X24133598Y-27869872D01*
X24139999Y-27810344D01*
X24140000Y-27810327D01*
X24140000Y-27512500D01*
X23390000Y-27512500D01*
X23390000Y-28262500D01*
X22890000Y-28262500D01*
X22890000Y-27472118D01*
X22940446Y-27522564D01*
X23014555Y-27565351D01*
X23097213Y-27587500D01*
X23182787Y-27587500D01*
X23265445Y-27565351D01*
X23339554Y-27522564D01*
X23400064Y-27462054D01*
X23442851Y-27387945D01*
X23465000Y-27305287D01*
X23465000Y-27219713D01*
X23442851Y-27137055D01*
X23400064Y-27062946D01*
X23349618Y-27012500D01*
X23390000Y-27012500D01*
X24140000Y-27012500D01*
X24140000Y-26753584D01*
X25089500Y-26753584D01*
X25089500Y-27771408D01*
X25094751Y-27797812D01*
X25094752Y-27797814D01*
X25114752Y-27827747D01*
X25144688Y-27847749D01*
X25153407Y-27849483D01*
X25171087Y-27853000D01*
X26188912Y-27852999D01*
X26215311Y-27847749D01*
X26245247Y-27827747D01*
X26245247Y-27827746D01*
X26246110Y-27827170D01*
X26312787Y-27806293D01*
X26380167Y-27824778D01*
X26383890Y-27827170D01*
X26384752Y-27827746D01*
X26384753Y-27827747D01*
X26414689Y-27847749D01*
X26441087Y-27853000D01*
X27458912Y-27852999D01*
X27485311Y-27847749D01*
X27515247Y-27827747D01*
X27515247Y-27827746D01*
X27516110Y-27827170D01*
X27582787Y-27806293D01*
X27650167Y-27824778D01*
X27653890Y-27827170D01*
X27654752Y-27827746D01*
X27654753Y-27827747D01*
X27684689Y-27847749D01*
X27711087Y-27853000D01*
X28728912Y-27852999D01*
X28755311Y-27847749D01*
X28785247Y-27827747D01*
X28785247Y-27827746D01*
X28786110Y-27827170D01*
X28852787Y-27806293D01*
X28920167Y-27824778D01*
X28923890Y-27827170D01*
X28924752Y-27827746D01*
X28924753Y-27827747D01*
X28954689Y-27847749D01*
X28981087Y-27853000D01*
X29998912Y-27852999D01*
X30025311Y-27847749D01*
X30055247Y-27827747D01*
X30055247Y-27827746D01*
X30056110Y-27827170D01*
X30122787Y-27806293D01*
X30190167Y-27824778D01*
X30193890Y-27827170D01*
X30194752Y-27827746D01*
X30194753Y-27827747D01*
X30224689Y-27847749D01*
X30251087Y-27853000D01*
X31268912Y-27852999D01*
X31295311Y-27847749D01*
X31325247Y-27827747D01*
X31325247Y-27827746D01*
X31326110Y-27827170D01*
X31392787Y-27806293D01*
X31460167Y-27824778D01*
X31463890Y-27827170D01*
X31464752Y-27827746D01*
X31464753Y-27827747D01*
X31494689Y-27847749D01*
X31521087Y-27853000D01*
X31992167Y-27852999D01*
X32059205Y-27872683D01*
X32104960Y-27925487D01*
X32114904Y-27994646D01*
X32096274Y-28038910D01*
X32098594Y-28040250D01*
X32048388Y-28127206D01*
X32048387Y-28127209D01*
X32024500Y-28216356D01*
X32024500Y-28308643D01*
X32048387Y-28397790D01*
X32048388Y-28397793D01*
X32094526Y-28477705D01*
X32094529Y-28477709D01*
X32094531Y-28477712D01*
X32159788Y-28542969D01*
X32159791Y-28542970D01*
X32159794Y-28542973D01*
X32239706Y-28589111D01*
X32239707Y-28589111D01*
X32239712Y-28589114D01*
X32328856Y-28613000D01*
X32328858Y-28613000D01*
X32421142Y-28613000D01*
X32421144Y-28613000D01*
X32510288Y-28589114D01*
X32590212Y-28542969D01*
X32655469Y-28477712D01*
X32701614Y-28397788D01*
X32725500Y-28308644D01*
X32725500Y-28216356D01*
X32701614Y-28127212D01*
X32701611Y-28127206D01*
X32655473Y-28047294D01*
X32655470Y-28047291D01*
X32655469Y-28047288D01*
X32603269Y-27995088D01*
X32569784Y-27933765D01*
X32574768Y-27864073D01*
X32590648Y-27839363D01*
X32588462Y-27837903D01*
X32615249Y-27797811D01*
X32620500Y-27771413D01*
X32620499Y-26753588D01*
X32615249Y-26727189D01*
X32615248Y-26727187D01*
X32615247Y-26727185D01*
X32595247Y-26697252D01*
X32565311Y-26677250D01*
X32538915Y-26672000D01*
X31521091Y-26672000D01*
X31494687Y-26677251D01*
X31494682Y-26677253D01*
X31463886Y-26697830D01*
X31397208Y-26718706D01*
X31329829Y-26700219D01*
X31326110Y-26697829D01*
X31295311Y-26677250D01*
X31268915Y-26672000D01*
X30251091Y-26672000D01*
X30224687Y-26677251D01*
X30224682Y-26677253D01*
X30193886Y-26697830D01*
X30127208Y-26718706D01*
X30059829Y-26700219D01*
X30056110Y-26697829D01*
X30025311Y-26677250D01*
X29998915Y-26672000D01*
X28981091Y-26672000D01*
X28954687Y-26677251D01*
X28954682Y-26677253D01*
X28923886Y-26697830D01*
X28857208Y-26718706D01*
X28789829Y-26700219D01*
X28786110Y-26697829D01*
X28755311Y-26677250D01*
X28728915Y-26672000D01*
X27711091Y-26672000D01*
X27684687Y-26677251D01*
X27684682Y-26677253D01*
X27653886Y-26697830D01*
X27587208Y-26718706D01*
X27519829Y-26700219D01*
X27516110Y-26697829D01*
X27485311Y-26677250D01*
X27458915Y-26672000D01*
X26441091Y-26672000D01*
X26414687Y-26677251D01*
X26414682Y-26677253D01*
X26383886Y-26697830D01*
X26317208Y-26718706D01*
X26249829Y-26700219D01*
X26246110Y-26697829D01*
X26215311Y-26677250D01*
X26188915Y-26672000D01*
X25171091Y-26672000D01*
X25144687Y-26677251D01*
X25144685Y-26677252D01*
X25114752Y-26697252D01*
X25094750Y-26727188D01*
X25089500Y-26753584D01*
X24140000Y-26753584D01*
X24140000Y-26714672D01*
X24139999Y-26714655D01*
X24133598Y-26655127D01*
X24133596Y-26655120D01*
X24083354Y-26520413D01*
X24083350Y-26520406D01*
X23997190Y-26405312D01*
X23997187Y-26405309D01*
X23882093Y-26319149D01*
X23882086Y-26319145D01*
X23747379Y-26268903D01*
X23747372Y-26268901D01*
X23687844Y-26262500D01*
X23390000Y-26262500D01*
X23390000Y-27012500D01*
X23349618Y-27012500D01*
X23339554Y-27002436D01*
X23265445Y-26959649D01*
X23182787Y-26937500D01*
X23097213Y-26937500D01*
X23014555Y-26959649D01*
X22940446Y-27002436D01*
X22890000Y-27052882D01*
X22890000Y-26262500D01*
X22592155Y-26262500D01*
X22532627Y-26268901D01*
X22532620Y-26268903D01*
X22397913Y-26319145D01*
X22397906Y-26319149D01*
X22282812Y-26405309D01*
X22282809Y-26405312D01*
X22196649Y-26520406D01*
X22196646Y-26520411D01*
X22170194Y-26591334D01*
X22128322Y-26647267D01*
X22062858Y-26671684D01*
X22054012Y-26672000D01*
X21361091Y-26672000D01*
X21334687Y-26677251D01*
X21334682Y-26677253D01*
X21303886Y-26697830D01*
X21237208Y-26718706D01*
X21169829Y-26700219D01*
X21166110Y-26697829D01*
X21135311Y-26677250D01*
X21108915Y-26672000D01*
X20091091Y-26672000D01*
X20064687Y-26677251D01*
X20064685Y-26677252D01*
X20034752Y-26697252D01*
X20014750Y-26727188D01*
X20009500Y-26753584D01*
X18825500Y-26753584D01*
X18825500Y-24066356D01*
X23214500Y-24066356D01*
X23214500Y-24158644D01*
X23224856Y-24197294D01*
X23238387Y-24247790D01*
X23238388Y-24247793D01*
X23284526Y-24327705D01*
X23284529Y-24327709D01*
X23284531Y-24327712D01*
X23349788Y-24392969D01*
X23349791Y-24392970D01*
X23349794Y-24392973D01*
X23429706Y-24439111D01*
X23429707Y-24439111D01*
X23429712Y-24439114D01*
X23518856Y-24463000D01*
X23518858Y-24463000D01*
X23619271Y-24463000D01*
X23619271Y-24466245D01*
X23673280Y-24474646D01*
X23725554Y-24521006D01*
X23734155Y-24540748D01*
X23735277Y-24540284D01*
X23738387Y-24547793D01*
X23784525Y-24627705D01*
X23784528Y-24627709D01*
X23784530Y-24627712D01*
X23849787Y-24692969D01*
X23849790Y-24692970D01*
X23849793Y-24692973D01*
X23929705Y-24739111D01*
X23929706Y-24739111D01*
X23929711Y-24739114D01*
X24018855Y-24763000D01*
X24018857Y-24763000D01*
X24111141Y-24763000D01*
X24111143Y-24763000D01*
X24200287Y-24739114D01*
X24280211Y-24692969D01*
X24345468Y-24627712D01*
X24391613Y-24547788D01*
X24391614Y-24547781D01*
X24394721Y-24540284D01*
X24397802Y-24541560D01*
X24404220Y-24531012D01*
X24415809Y-24505638D01*
X24422133Y-24501573D01*
X24426041Y-24495152D01*
X24451119Y-24482945D01*
X24474587Y-24467864D01*
X24483526Y-24467172D01*
X24488864Y-24464574D01*
X24509522Y-24462841D01*
X24518262Y-24462841D01*
X24518855Y-24463000D01*
X24611143Y-24463000D01*
X24611736Y-24462841D01*
X24620475Y-24462841D01*
X24646494Y-24470481D01*
X24673292Y-24474652D01*
X24679523Y-24480179D01*
X24687514Y-24482526D01*
X24705269Y-24503017D01*
X24725562Y-24521017D01*
X24730308Y-24531913D01*
X24733269Y-24535330D01*
X24733994Y-24540374D01*
X24734156Y-24540747D01*
X24735277Y-24540284D01*
X24738387Y-24547793D01*
X24784525Y-24627705D01*
X24784528Y-24627709D01*
X24784530Y-24627712D01*
X24849787Y-24692969D01*
X24849790Y-24692970D01*
X24849793Y-24692973D01*
X24929705Y-24739111D01*
X24929706Y-24739111D01*
X24929711Y-24739114D01*
X25018855Y-24763000D01*
X25018857Y-24763000D01*
X25111141Y-24763000D01*
X25111143Y-24763000D01*
X25200287Y-24739114D01*
X25280211Y-24692969D01*
X25345468Y-24627712D01*
X25391613Y-24547788D01*
X25391614Y-24547781D01*
X25394721Y-24540284D01*
X25397802Y-24541560D01*
X25404220Y-24531012D01*
X25415809Y-24505638D01*
X25422133Y-24501573D01*
X25426041Y-24495152D01*
X25451119Y-24482945D01*
X25474587Y-24467864D01*
X25483526Y-24467172D01*
X25488864Y-24464574D01*
X25509522Y-24462841D01*
X25518262Y-24462841D01*
X25518855Y-24463000D01*
X25611143Y-24463000D01*
X25611736Y-24462841D01*
X25620475Y-24462841D01*
X25646494Y-24470481D01*
X25673292Y-24474652D01*
X25679523Y-24480179D01*
X25687514Y-24482526D01*
X25705269Y-24503017D01*
X25725562Y-24521017D01*
X25730308Y-24531913D01*
X25733269Y-24535330D01*
X25733994Y-24540374D01*
X25734156Y-24540747D01*
X25735277Y-24540284D01*
X25738387Y-24547793D01*
X25784525Y-24627705D01*
X25784528Y-24627709D01*
X25784530Y-24627712D01*
X25849787Y-24692969D01*
X25849790Y-24692970D01*
X25849793Y-24692973D01*
X25929705Y-24739111D01*
X25929706Y-24739111D01*
X25929711Y-24739114D01*
X26018855Y-24763000D01*
X26018857Y-24763000D01*
X26111141Y-24763000D01*
X26111143Y-24763000D01*
X26200287Y-24739114D01*
X26280211Y-24692969D01*
X26345468Y-24627712D01*
X26391613Y-24547788D01*
X26415499Y-24458644D01*
X26415499Y-24366356D01*
X28214499Y-24366356D01*
X28214499Y-24458644D01*
X28236716Y-24541560D01*
X28238386Y-24547790D01*
X28238387Y-24547793D01*
X28284525Y-24627705D01*
X28284528Y-24627709D01*
X28284530Y-24627712D01*
X28349787Y-24692969D01*
X28349790Y-24692970D01*
X28349793Y-24692973D01*
X28429705Y-24739111D01*
X28429706Y-24739111D01*
X28429711Y-24739114D01*
X28518855Y-24763000D01*
X28518857Y-24763000D01*
X28611141Y-24763000D01*
X28611143Y-24763000D01*
X28700287Y-24739114D01*
X28780211Y-24692969D01*
X28845468Y-24627712D01*
X28891613Y-24547788D01*
X28891614Y-24547781D01*
X28894721Y-24540284D01*
X28897802Y-24541560D01*
X28904220Y-24531012D01*
X28915809Y-24505638D01*
X28922133Y-24501573D01*
X28926041Y-24495152D01*
X28951119Y-24482945D01*
X28974587Y-24467864D01*
X28983526Y-24467172D01*
X28988864Y-24464574D01*
X29009522Y-24462841D01*
X29018262Y-24462841D01*
X29018855Y-24463000D01*
X29111143Y-24463000D01*
X29111736Y-24462841D01*
X29120475Y-24462841D01*
X29146494Y-24470481D01*
X29173292Y-24474652D01*
X29179523Y-24480179D01*
X29187514Y-24482526D01*
X29205269Y-24503017D01*
X29225562Y-24521017D01*
X29230308Y-24531913D01*
X29233269Y-24535330D01*
X29233994Y-24540374D01*
X29234156Y-24540747D01*
X29235277Y-24540284D01*
X29238387Y-24547793D01*
X29284525Y-24627705D01*
X29284528Y-24627709D01*
X29284530Y-24627712D01*
X29349787Y-24692969D01*
X29349790Y-24692970D01*
X29349793Y-24692973D01*
X29429705Y-24739111D01*
X29429706Y-24739111D01*
X29429711Y-24739114D01*
X29518855Y-24763000D01*
X29518857Y-24763000D01*
X29611141Y-24763000D01*
X29611143Y-24763000D01*
X29700287Y-24739114D01*
X29780211Y-24692969D01*
X29845468Y-24627712D01*
X29891613Y-24547788D01*
X29915499Y-24458644D01*
X29915499Y-24366356D01*
X29891613Y-24277212D01*
X29874625Y-24247788D01*
X29845472Y-24197294D01*
X29845469Y-24197291D01*
X29845468Y-24197288D01*
X29780211Y-24132031D01*
X29780208Y-24132029D01*
X29780204Y-24132026D01*
X29700292Y-24085888D01*
X29700289Y-24085887D01*
X29700288Y-24085886D01*
X29700287Y-24085886D01*
X29611143Y-24062000D01*
X29518855Y-24062000D01*
X29510728Y-24062000D01*
X29510728Y-24058773D01*
X29456601Y-24050298D01*
X29404375Y-24003885D01*
X29395841Y-23984251D01*
X29394721Y-23984716D01*
X29391613Y-23977215D01*
X29391613Y-23977212D01*
X29391610Y-23977206D01*
X29345472Y-23897294D01*
X29345469Y-23897291D01*
X29345468Y-23897288D01*
X29280211Y-23832031D01*
X29280208Y-23832029D01*
X29280204Y-23832026D01*
X29200292Y-23785888D01*
X29200289Y-23785887D01*
X29200288Y-23785886D01*
X29200287Y-23785886D01*
X29111143Y-23762000D01*
X29018855Y-23762000D01*
X28929711Y-23785886D01*
X28929710Y-23785886D01*
X28929708Y-23785887D01*
X28929705Y-23785888D01*
X28849793Y-23832026D01*
X28849784Y-23832033D01*
X28784532Y-23897285D01*
X28784525Y-23897294D01*
X28738387Y-23977206D01*
X28735277Y-23984716D01*
X28732217Y-23983448D01*
X28703834Y-24029958D01*
X28640971Y-24060452D01*
X28619270Y-24060839D01*
X28619270Y-24062000D01*
X28611143Y-24062000D01*
X28518855Y-24062000D01*
X28429711Y-24085886D01*
X28429710Y-24085886D01*
X28429708Y-24085887D01*
X28429705Y-24085888D01*
X28349793Y-24132026D01*
X28349784Y-24132033D01*
X28284532Y-24197285D01*
X28284525Y-24197294D01*
X28238387Y-24277206D01*
X28238386Y-24277209D01*
X28238385Y-24277211D01*
X28238385Y-24277212D01*
X28214499Y-24366356D01*
X26415499Y-24366356D01*
X26391613Y-24277212D01*
X26374625Y-24247788D01*
X26345472Y-24197294D01*
X26345469Y-24197291D01*
X26345468Y-24197288D01*
X26280211Y-24132031D01*
X26280208Y-24132029D01*
X26280204Y-24132026D01*
X26200292Y-24085888D01*
X26200289Y-24085887D01*
X26200288Y-24085886D01*
X26200287Y-24085886D01*
X26111143Y-24062000D01*
X26018855Y-24062000D01*
X26010728Y-24062000D01*
X26010728Y-24058773D01*
X25956601Y-24050298D01*
X25904375Y-24003885D01*
X25895841Y-23984251D01*
X25894721Y-23984716D01*
X25891613Y-23977215D01*
X25891613Y-23977212D01*
X25891610Y-23977206D01*
X25845472Y-23897294D01*
X25845469Y-23897291D01*
X25845468Y-23897288D01*
X25780211Y-23832031D01*
X25780208Y-23832029D01*
X25780204Y-23832026D01*
X25700292Y-23785888D01*
X25700289Y-23785887D01*
X25700288Y-23785886D01*
X25700287Y-23785886D01*
X25611143Y-23762000D01*
X25518855Y-23762000D01*
X25429711Y-23785886D01*
X25429710Y-23785886D01*
X25429708Y-23785887D01*
X25429705Y-23785888D01*
X25349793Y-23832026D01*
X25349784Y-23832033D01*
X25284532Y-23897285D01*
X25284525Y-23897294D01*
X25238387Y-23977206D01*
X25235277Y-23984716D01*
X25232217Y-23983448D01*
X25225744Y-23994056D01*
X25214188Y-24019361D01*
X25207793Y-24023470D01*
X25203834Y-24029958D01*
X25178810Y-24042096D01*
X25155410Y-24057135D01*
X25146357Y-24057839D01*
X25140971Y-24060452D01*
X25120475Y-24062158D01*
X25111733Y-24062158D01*
X25111143Y-24062000D01*
X25018855Y-24062000D01*
X25018265Y-24062158D01*
X25009522Y-24062158D01*
X24983448Y-24054502D01*
X24956601Y-24050298D01*
X24950417Y-24044802D01*
X24942483Y-24042473D01*
X24924690Y-24021938D01*
X24904375Y-24003885D01*
X24899673Y-23993068D01*
X24896728Y-23989669D01*
X24896002Y-23984620D01*
X24895841Y-23984251D01*
X24894721Y-23984716D01*
X24891613Y-23977215D01*
X24891613Y-23977212D01*
X24891610Y-23977206D01*
X24845472Y-23897294D01*
X24845469Y-23897291D01*
X24845468Y-23897288D01*
X24780211Y-23832031D01*
X24780208Y-23832029D01*
X24780204Y-23832026D01*
X24700292Y-23785888D01*
X24700289Y-23785887D01*
X24700288Y-23785886D01*
X24700287Y-23785886D01*
X24611143Y-23762000D01*
X24518855Y-23762000D01*
X24429711Y-23785886D01*
X24429710Y-23785886D01*
X24429708Y-23785887D01*
X24429705Y-23785888D01*
X24349793Y-23832026D01*
X24349784Y-23832033D01*
X24284532Y-23897285D01*
X24284525Y-23897294D01*
X24238387Y-23977206D01*
X24235277Y-23984716D01*
X24232217Y-23983448D01*
X24225744Y-23994056D01*
X24214188Y-24019361D01*
X24207793Y-24023470D01*
X24203834Y-24029958D01*
X24178810Y-24042096D01*
X24155410Y-24057135D01*
X24146357Y-24057839D01*
X24140971Y-24060452D01*
X24120475Y-24062158D01*
X24111733Y-24062158D01*
X24111143Y-24062000D01*
X24018855Y-24062000D01*
X24018265Y-24062158D01*
X24009523Y-24062158D01*
X23983459Y-24054504D01*
X23956614Y-24050304D01*
X23950424Y-24044804D01*
X23942484Y-24042473D01*
X23924695Y-24021943D01*
X23904383Y-24003896D01*
X23899677Y-23993072D01*
X23896729Y-23989669D01*
X23896002Y-23984617D01*
X23895843Y-23984251D01*
X23894722Y-23984716D01*
X23891614Y-23977215D01*
X23891614Y-23977212D01*
X23891611Y-23977206D01*
X23845473Y-23897294D01*
X23845470Y-23897291D01*
X23845469Y-23897288D01*
X23780212Y-23832031D01*
X23780209Y-23832029D01*
X23780205Y-23832026D01*
X23700293Y-23785888D01*
X23700290Y-23785887D01*
X23700289Y-23785886D01*
X23700288Y-23785886D01*
X23611144Y-23762000D01*
X23518856Y-23762000D01*
X23429712Y-23785886D01*
X23429711Y-23785886D01*
X23429709Y-23785887D01*
X23429706Y-23785888D01*
X23349794Y-23832026D01*
X23349785Y-23832033D01*
X23284533Y-23897285D01*
X23284526Y-23897294D01*
X23238388Y-23977206D01*
X23238387Y-23977209D01*
X23238386Y-23977211D01*
X23238386Y-23977212D01*
X23214500Y-24066356D01*
X18825500Y-24066356D01*
X18825500Y-21768591D01*
X18826097Y-21756438D01*
X18832877Y-21687596D01*
X18834257Y-21673584D01*
X23819500Y-21673584D01*
X23819500Y-22691408D01*
X23824751Y-22717812D01*
X23824752Y-22717814D01*
X23844752Y-22747747D01*
X23874688Y-22767749D01*
X23883407Y-22769483D01*
X23901087Y-22773000D01*
X24918912Y-22772999D01*
X24945311Y-22767749D01*
X24975247Y-22747747D01*
X24975247Y-22747746D01*
X24976110Y-22747170D01*
X25042787Y-22726293D01*
X25110167Y-22744778D01*
X25113890Y-22747170D01*
X25114752Y-22747746D01*
X25114753Y-22747747D01*
X25144689Y-22767749D01*
X25171087Y-22773000D01*
X26188912Y-22772999D01*
X26215311Y-22767749D01*
X26245247Y-22747747D01*
X26245247Y-22747746D01*
X26246110Y-22747170D01*
X26312787Y-22726293D01*
X26380167Y-22744778D01*
X26383890Y-22747170D01*
X26384752Y-22747746D01*
X26384753Y-22747747D01*
X26414689Y-22767749D01*
X26441087Y-22773000D01*
X27458912Y-22772999D01*
X27485311Y-22767749D01*
X27515247Y-22747747D01*
X27515247Y-22747746D01*
X27516110Y-22747170D01*
X27582787Y-22726293D01*
X27650167Y-22744778D01*
X27653890Y-22747170D01*
X27654752Y-22747746D01*
X27654753Y-22747747D01*
X27684689Y-22767749D01*
X27711087Y-22773000D01*
X28728912Y-22772999D01*
X28755311Y-22767749D01*
X28785247Y-22747747D01*
X28805249Y-22717811D01*
X28810500Y-22691413D01*
X28810499Y-21673588D01*
X28805249Y-21647189D01*
X28805248Y-21647187D01*
X28805247Y-21647185D01*
X28785247Y-21617252D01*
X28755311Y-21597250D01*
X28728915Y-21592000D01*
X27711091Y-21592000D01*
X27684687Y-21597251D01*
X27684682Y-21597253D01*
X27653886Y-21617830D01*
X27587208Y-21638706D01*
X27519829Y-21620219D01*
X27516110Y-21617829D01*
X27485311Y-21597250D01*
X27458915Y-21592000D01*
X26441091Y-21592000D01*
X26414687Y-21597251D01*
X26414682Y-21597253D01*
X26383886Y-21617830D01*
X26317208Y-21638706D01*
X26249829Y-21620219D01*
X26246110Y-21617829D01*
X26215311Y-21597250D01*
X26188915Y-21592000D01*
X25171091Y-21592000D01*
X25144687Y-21597251D01*
X25144682Y-21597253D01*
X25113886Y-21617830D01*
X25047208Y-21638706D01*
X24979829Y-21620219D01*
X24976110Y-21617829D01*
X24945311Y-21597250D01*
X24918915Y-21592000D01*
X23901091Y-21592000D01*
X23874687Y-21597251D01*
X23874685Y-21597252D01*
X23844752Y-21617252D01*
X23824750Y-21647188D01*
X23819500Y-21673584D01*
X18834257Y-21673584D01*
X18838512Y-21630375D01*
X18843254Y-21606544D01*
X18843255Y-21606543D01*
X18878247Y-21491189D01*
X18887549Y-21468733D01*
X18944371Y-21362426D01*
X18957875Y-21342216D01*
X19010816Y-21277708D01*
X19034350Y-21249031D01*
X19051531Y-21231850D01*
X19144717Y-21155373D01*
X19164928Y-21141870D01*
X19164930Y-21141869D01*
X19271238Y-21085046D01*
X19293689Y-21075747D01*
X19302323Y-21073127D01*
X19409046Y-21040753D01*
X19432879Y-21036012D01*
X19550524Y-21024425D01*
X19558939Y-21023597D01*
X19571089Y-21023000D01*
X19619772Y-21022999D01*
X33058908Y-21022999D01*
X33071061Y-21023596D01*
G37*
%TD.AperFunction*%
%TD*%
M02*
