%TF.GenerationSoftware,KiCad,Pcbnew,9.0.6-9.0.6~ubuntu24.04.1*%
%TF.CreationDate,2026-01-04T18:16:08+00:00*%
%TF.ProjectId,S_PICO,535f5049-434f-42e6-9b69-6361645f7063,v1.0*%
%TF.SameCoordinates,Original*%
%TF.FileFunction,Copper,L4,Bot*%
%TF.FilePolarity,Positive*%
%FSLAX46Y46*%
G04 Gerber Fmt 4.6, Leading zero omitted, Abs format (unit mm)*
G04 Created by KiCad (PCBNEW 9.0.6-9.0.6~ubuntu24.04.1) date 2026-01-04 18:16:08*
%MOMM*%
%LPD*%
G01*
G04 APERTURE LIST*
G04 Aperture macros list*
%AMRoundRect*
0 Rectangle with rounded corners*
0 $1 Rounding radius*
0 $2 $3 $4 $5 $6 $7 $8 $9 X,Y pos of 4 corners*
0 Add a 4 corners polygon primitive as box body*
4,1,4,$2,$3,$4,$5,$6,$7,$8,$9,$2,$3,0*
0 Add four circle primitives for the rounded corners*
1,1,$1+$1,$2,$3*
1,1,$1+$1,$4,$5*
1,1,$1+$1,$6,$7*
1,1,$1+$1,$8,$9*
0 Add four rect primitives between the rounded corners*
20,1,$1+$1,$2,$3,$4,$5,0*
20,1,$1+$1,$4,$5,$6,$7,0*
20,1,$1+$1,$6,$7,$8,$9,0*
20,1,$1+$1,$8,$9,$2,$3,0*%
%AMFreePoly0*
4,1,6,1.000000,0.000000,0.500000,-0.750000,-0.500000,-0.750000,-0.500000,0.750000,0.500000,0.750000,1.000000,0.000000,1.000000,0.000000,$1*%
%AMFreePoly1*
4,1,6,0.500000,-0.750000,-0.650000,-0.750000,-0.150000,0.000000,-0.650000,0.750000,0.500000,0.750000,0.500000,-0.750000,0.500000,-0.750000,$1*%
G04 Aperture macros list end*
%TA.AperFunction,ComponentPad*%
%ADD10RoundRect,0.800000X0.050000X0.450000X-0.050000X0.450000X-0.050000X-0.450000X0.050000X-0.450000X0*%
%TD*%
%TA.AperFunction,ComponentPad*%
%ADD11RoundRect,0.800000X-0.450000X0.050000X-0.450000X-0.050000X0.450000X-0.050000X0.450000X0.050000X0*%
%TD*%
%TA.AperFunction,ComponentPad*%
%ADD12RoundRect,0.800000X-0.700000X0.050000X-0.700000X-0.050000X0.700000X-0.050000X0.700000X0.050000X0*%
%TD*%
%TA.AperFunction,ComponentPad*%
%ADD13R,1.000000X1.000000*%
%TD*%
%TA.AperFunction,ComponentPad*%
%ADD14O,1.000000X1.000000*%
%TD*%
%TA.AperFunction,ComponentPad*%
%ADD15R,1.700000X1.700000*%
%TD*%
%TA.AperFunction,ComponentPad*%
%ADD16O,1.700000X1.700000*%
%TD*%
%TA.AperFunction,SMDPad,CuDef*%
%ADD17FreePoly0,180.000000*%
%TD*%
%TA.AperFunction,SMDPad,CuDef*%
%ADD18FreePoly1,180.000000*%
%TD*%
%TA.AperFunction,SMDPad,CuDef*%
%ADD19R,1.200000X0.400000*%
%TD*%
%TA.AperFunction,SMDPad,CuDef*%
%ADD20R,2.400000X2.000000*%
%TD*%
%TA.AperFunction,SMDPad,CuDef*%
%ADD21RoundRect,0.160000X0.197500X0.160000X-0.197500X0.160000X-0.197500X-0.160000X0.197500X-0.160000X0*%
%TD*%
%TA.AperFunction,ViaPad*%
%ADD22C,0.400000*%
%TD*%
%TA.AperFunction,Conductor*%
%ADD23C,0.150000*%
%TD*%
G04 APERTURE END LIST*
D10*
%TO.P,J2,1,T*%
%TO.N,GND*%
X27750000Y-69645000D03*
D11*
%TO.P,J2,2,R*%
%TO.N,/extRef*%
X29500000Y-67345000D03*
D10*
%TO.P,J2,3,T*%
%TO.N,GND*%
X31250000Y-69645000D03*
D12*
%TO.P,J2,6,S*%
%TO.N,/extRef*%
X29500000Y-73845000D03*
%TD*%
D13*
%TO.P,J3,1,Pin_1*%
%TO.N,/AUX1*%
X28229999Y-25770000D03*
D14*
%TO.P,J3,2,Pin_2*%
%TO.N,/AUX2*%
X29500000Y-25770000D03*
%TO.P,J3,3,Pin_3*%
%TO.N,/AUX3*%
X30769999Y-25770000D03*
%TD*%
D13*
%TO.P,J1,1,Pin_1*%
%TO.N,VSYS*%
X29500000Y-24500000D03*
D14*
%TO.P,J1,2,Pin_2*%
%TO.N,GND*%
X28229999Y-24500000D03*
%TD*%
D15*
%TO.P,J5,1,Pin_1*%
%TO.N,VSYS*%
X38390000Y-25370000D03*
D16*
%TO.P,J5,2,Pin_2*%
%TO.N,unconnected-(J5-Pin_2-Pad2)*%
X38390000Y-27910000D03*
%TO.P,J5,3,Pin_3*%
%TO.N,GND*%
X38390000Y-30450000D03*
%TO.P,J5,4,Pin_4*%
%TO.N,unconnected-(J5-Pin_4-Pad4)*%
X38390000Y-32990000D03*
%TO.P,J5,5,Pin_5*%
%TO.N,+3.3V*%
X38390000Y-35530000D03*
%TO.P,J5,6,Pin_6*%
%TO.N,unconnected-(J5-Pin_6-Pad6)*%
X38390000Y-38070000D03*
%TO.P,J5,7,Pin_7*%
%TO.N,unconnected-(J5-Pin_7-Pad7)*%
X38390000Y-40610000D03*
%TO.P,J5,8,Pin_8*%
%TO.N,GND*%
X38390000Y-43150000D03*
%TO.P,J5,9,Pin_9*%
%TO.N,unconnected-(J5-Pin_9-Pad9)*%
X38390000Y-45690000D03*
%TO.P,J5,10,Pin_10*%
%TO.N,unconnected-(J5-Pin_10-Pad10)*%
X38390000Y-48230000D03*
%TO.P,J5,11,Pin_11*%
%TO.N,unconnected-(J5-Pin_11-Pad11)*%
X38390000Y-50770000D03*
%TO.P,J5,12,Pin_12*%
%TO.N,unconnected-(J5-Pin_12-Pad12)*%
X38390000Y-53310000D03*
%TO.P,J5,13,Pin_13*%
%TO.N,GND*%
X38390000Y-55850000D03*
%TO.P,J5,14,Pin_14*%
%TO.N,/IO1_out*%
X38390000Y-58390000D03*
%TO.P,J5,15,Pin_15*%
%TO.N,/IO2*%
X38390000Y-60930000D03*
%TO.P,J5,16,Pin_16*%
%TO.N,/PICO*%
X38390000Y-63470000D03*
%TO.P,J5,17,Pin_17*%
%TO.N,/SCLK*%
X38390000Y-66010000D03*
%TO.P,J5,18,Pin_18*%
%TO.N,GND*%
X38390000Y-68550000D03*
%TO.P,J5,19,Pin_19*%
%TO.N,unconnected-(J5-Pin_19-Pad19)*%
X38390000Y-71090000D03*
%TO.P,J5,20,Pin_20*%
%TO.N,/POCI*%
X38390000Y-73630000D03*
%TD*%
D15*
%TO.P,J4,1,Pin_1*%
%TO.N,unconnected-(J4-Pin_1-Pad1)*%
X20610000Y-25370000D03*
D16*
%TO.P,J4,2,Pin_2*%
%TO.N,unconnected-(J4-Pin_2-Pad2)*%
X20610000Y-27910000D03*
%TO.P,J4,3,Pin_3*%
%TO.N,GND*%
X20610000Y-30450000D03*
%TO.P,J4,4,Pin_4*%
%TO.N,unconnected-(J4-Pin_4-Pad4)*%
X20610000Y-32990000D03*
%TO.P,J4,5,Pin_5*%
%TO.N,unconnected-(J4-Pin_5-Pad5)*%
X20610000Y-35530000D03*
%TO.P,J4,6,Pin_6*%
%TO.N,unconnected-(J4-Pin_6-Pad6)*%
X20610000Y-38070000D03*
%TO.P,J4,7,Pin_7*%
%TO.N,unconnected-(J4-Pin_7-Pad7)*%
X20610000Y-40610000D03*
%TO.P,J4,8,Pin_8*%
%TO.N,GND*%
X20610000Y-43150000D03*
%TO.P,J4,9,Pin_9*%
%TO.N,Net-(J4-Pin_9)*%
X20610000Y-45690000D03*
%TO.P,J4,10,Pin_10*%
%TO.N,Net-(J4-Pin_10)*%
X20610000Y-48230000D03*
%TO.P,J4,11,Pin_11*%
%TO.N,Net-(J4-Pin_11)*%
X20610000Y-50770000D03*
%TO.P,J4,12,Pin_12*%
%TO.N,/addr_bus_0*%
X20610000Y-53310000D03*
%TO.P,J4,13,Pin_13*%
%TO.N,GND*%
X20610000Y-55850000D03*
%TO.P,J4,14,Pin_14*%
%TO.N,/addr_bus_1*%
X20610000Y-58390000D03*
%TO.P,J4,15,Pin_15*%
%TO.N,/addr_bus_2*%
X20610000Y-60930000D03*
%TO.P,J4,16,Pin_16*%
%TO.N,/addr_bus_3*%
X20610000Y-63470000D03*
%TO.P,J4,17,Pin_17*%
%TO.N,/addr_bus_4*%
X20610000Y-66010000D03*
%TO.P,J4,18,Pin_18*%
%TO.N,GND*%
X20610000Y-68550000D03*
%TO.P,J4,19,Pin_19*%
%TO.N,/I2C_SDA*%
X20610000Y-71090000D03*
%TO.P,J4,20,Pin_20*%
%TO.N,/i2C_SCL*%
X20610000Y-73630000D03*
%TD*%
D17*
%TO.P,JP2,1,A*%
%TO.N,/AUX1*%
X24724999Y-45500000D03*
D18*
%TO.P,JP2,2,B*%
%TO.N,Net-(J4-Pin_9)*%
X23275001Y-45500000D03*
%TD*%
D19*
%TO.P,FPC1,1,1*%
%TO.N,/AUX1*%
X30500000Y-51760000D03*
%TO.P,FPC1,2,2*%
%TO.N,+3.3V*%
X28500000Y-52260000D03*
%TO.P,FPC1,3,3*%
%TO.N,GND*%
X30500000Y-52760000D03*
%TO.P,FPC1,4,4*%
%TO.N,/AUX3*%
X28500000Y-53260000D03*
%TO.P,FPC1,5,5*%
%TO.N,/addr_bus_0*%
X30500000Y-53760000D03*
%TO.P,FPC1,6,6*%
%TO.N,/addr_bus_1*%
X28500000Y-54260000D03*
%TO.P,FPC1,7,7*%
%TO.N,/addr_bus_2*%
X30500000Y-54760000D03*
%TO.P,FPC1,8,8*%
%TO.N,/addr_bus_3*%
X28500000Y-55260000D03*
%TO.P,FPC1,9,9*%
%TO.N,/addr_bus_4*%
X30500000Y-55760000D03*
%TO.P,FPC1,10,10*%
%TO.N,/POCI*%
X28500000Y-56260000D03*
%TO.P,FPC1,11,11*%
%TO.N,/PICO*%
X30500000Y-56760000D03*
%TO.P,FPC1,12,12*%
%TO.N,/SCLK*%
X28500000Y-57260000D03*
%TO.P,FPC1,13,13*%
%TO.N,/IO1_out*%
X30500000Y-57760000D03*
%TO.P,FPC1,14,14*%
%TO.N,/IO2*%
X28500000Y-58260000D03*
%TO.P,FPC1,15,15*%
%TO.N,/I2C_SDA*%
X30500000Y-58760000D03*
%TO.P,FPC1,16,16*%
%TO.N,/i2C_SCL*%
X28500000Y-59260000D03*
%TO.P,FPC1,17,17*%
%TO.N,/AUX2*%
X30500000Y-59760000D03*
%TO.P,FPC1,18,18*%
%TO.N,/extRef*%
X28500000Y-60260000D03*
D20*
%TO.P,FPC1,19,19*%
%TO.N,GND*%
X29500000Y-62040000D03*
%TO.P,FPC1,20,20*%
X29500000Y-49960000D03*
%TD*%
D17*
%TO.P,JP3,1,A*%
%TO.N,/AUX2*%
X24725000Y-47950000D03*
D18*
%TO.P,JP3,2,B*%
%TO.N,Net-(J4-Pin_10)*%
X23275000Y-47950000D03*
%TD*%
D21*
%TO.P,R2,1*%
%TO.N,+3.3V*%
X24397500Y-72300000D03*
%TO.P,R2,2*%
%TO.N,/I2C_SDA*%
X23202500Y-72300000D03*
%TD*%
D17*
%TO.P,JP4,1,A*%
%TO.N,/AUX3*%
X24725000Y-50500000D03*
D18*
%TO.P,JP4,2,B*%
%TO.N,Net-(J4-Pin_11)*%
X23275000Y-50500000D03*
%TD*%
D21*
%TO.P,R1,1*%
%TO.N,+3.3V*%
X24397500Y-73300000D03*
%TO.P,R1,2*%
%TO.N,/i2C_SCL*%
X23202500Y-73300000D03*
%TD*%
D22*
%TO.N,+3.3V*%
X25600000Y-71900000D03*
X32300000Y-51300000D03*
%TO.N,/IO2*%
X32000000Y-58300000D03*
%TO.N,/AUX3*%
X26500000Y-50600000D03*
%TO.N,/POCI*%
X36600000Y-61700000D03*
%TO.N,/IO1_out*%
X32700000Y-57800000D03*
%TO.N,/AUX2*%
X29600000Y-59760000D03*
X24725000Y-47950000D03*
%TO.N,/AUX1*%
X24724999Y-45500000D03*
%TD*%
D23*
%TO.N,+3.3V*%
X32900000Y-41020000D02*
X38390000Y-35530000D01*
X32300000Y-51300000D02*
X32900000Y-50700000D01*
X25200000Y-72300000D02*
X25600000Y-71900000D01*
X31340000Y-52260000D02*
X32300000Y-51300000D01*
X24397500Y-72300000D02*
X25200000Y-72300000D01*
X32900000Y-50700000D02*
X32900000Y-41020000D01*
X24397500Y-72300000D02*
X24397500Y-73300000D01*
X28500000Y-52260000D02*
X31340000Y-52260000D01*
%TO.N,/IO2*%
X31960000Y-58260000D02*
X28500000Y-58260000D01*
X32000000Y-58300000D02*
X31960000Y-58260000D01*
%TO.N,/I2C_SDA*%
X26000000Y-60500000D02*
X26000000Y-69400000D01*
X23202500Y-72300000D02*
X21820000Y-72300000D01*
X21820000Y-72300000D02*
X20610000Y-71090000D01*
X27740000Y-58760000D02*
X26000000Y-60500000D01*
X23202500Y-72197500D02*
X23202500Y-72300000D01*
X30500000Y-58760000D02*
X27740000Y-58760000D01*
X26000000Y-69400000D02*
X23202500Y-72197500D01*
%TO.N,GND*%
X35300000Y-52760000D02*
X38390000Y-55850000D01*
X30500000Y-52760000D02*
X35300000Y-52760000D01*
%TO.N,/addr_bus_0*%
X30500000Y-53760000D02*
X21060000Y-53760000D01*
X21060000Y-53760000D02*
X20610000Y-53310000D01*
%TO.N,/addr_bus_3*%
X26940000Y-55260000D02*
X24000000Y-58200000D01*
X22430000Y-63470000D02*
X20610000Y-63470000D01*
X24000000Y-58200000D02*
X24000000Y-61900000D01*
X20610000Y-62750000D02*
X20610000Y-63470000D01*
X28500000Y-55260000D02*
X26940000Y-55260000D01*
X24000000Y-61900000D02*
X22430000Y-63470000D01*
%TO.N,/i2C_SCL*%
X28500000Y-59260000D02*
X28040000Y-59260000D01*
X24800000Y-73800000D02*
X23702500Y-73800000D01*
X26400000Y-60900000D02*
X26400000Y-72200000D01*
X26400000Y-72200000D02*
X24800000Y-73800000D01*
X28040000Y-59260000D02*
X26400000Y-60900000D01*
X23702500Y-73800000D02*
X23202500Y-73300000D01*
X20940000Y-73300000D02*
X20610000Y-73630000D01*
X23202500Y-73300000D02*
X20940000Y-73300000D01*
%TO.N,/PICO*%
X30500000Y-56760000D02*
X33860000Y-56760000D01*
X37070000Y-63470000D02*
X38390000Y-63470000D01*
X33860000Y-56760000D02*
X36000000Y-58900000D01*
X36000000Y-62400000D02*
X37070000Y-63470000D01*
X36000000Y-58900000D02*
X36000000Y-62400000D01*
%TO.N,/AUX3*%
X26400000Y-50500000D02*
X26500000Y-50600000D01*
X27485000Y-53260000D02*
X28500000Y-53260000D01*
X26500000Y-52275000D02*
X27485000Y-53260000D01*
X24725000Y-50500000D02*
X26400000Y-50500000D01*
X26500000Y-50600000D02*
X26500000Y-52275000D01*
%TO.N,/POCI*%
X36600000Y-58400000D02*
X34460000Y-56260000D01*
X34460000Y-56260000D02*
X28500000Y-56260000D01*
X36600000Y-61700000D02*
X36600000Y-58400000D01*
%TO.N,/addr_bus_2*%
X23500000Y-58000000D02*
X23500000Y-59800000D01*
X30500000Y-54760000D02*
X26740000Y-54760000D01*
X22370000Y-60930000D02*
X20610000Y-60930000D01*
X26740000Y-54760000D02*
X23500000Y-58000000D01*
X23500000Y-59800000D02*
X22370000Y-60930000D01*
%TO.N,/extRef*%
X28500000Y-60260000D02*
X28040000Y-60260000D01*
X31545000Y-67345000D02*
X32800000Y-68600000D01*
X31555000Y-73845000D02*
X29500000Y-73845000D01*
X29500000Y-67345000D02*
X31545000Y-67345000D01*
X27800000Y-65645000D02*
X29500000Y-67345000D01*
X32800000Y-68600000D02*
X32800000Y-72600000D01*
X32800000Y-72600000D02*
X31555000Y-73845000D01*
X28040000Y-60260000D02*
X27800000Y-60500000D01*
X27800000Y-60500000D02*
X27800000Y-65645000D01*
%TO.N,/addr_bus_4*%
X30500000Y-55760000D02*
X27140000Y-55760000D01*
X22390000Y-66010000D02*
X20610000Y-66010000D01*
X27140000Y-55760000D02*
X24500000Y-58400000D01*
X24500000Y-63900000D02*
X22390000Y-66010000D01*
X24500000Y-58400000D02*
X24500000Y-63900000D01*
%TO.N,/SCLK*%
X28500000Y-57260000D02*
X33260000Y-57260000D01*
X33260000Y-57260000D02*
X35200000Y-59200000D01*
X35200000Y-62820000D02*
X38390000Y-66010000D01*
X35200000Y-59200000D02*
X35200000Y-62820000D01*
%TO.N,/IO1_out*%
X32700000Y-57800000D02*
X30540000Y-57800000D01*
X30540000Y-57800000D02*
X30500000Y-57760000D01*
%TO.N,/addr_bus_1*%
X28500000Y-54260000D02*
X26540000Y-54260000D01*
X22410000Y-58390000D02*
X20610000Y-58390000D01*
X26540000Y-54260000D02*
X22410000Y-58390000D01*
%TO.N,/AUX2*%
X29600000Y-59760000D02*
X30500000Y-59760000D01*
%TO.N,/AUX1*%
X28770000Y-51760000D02*
X30500000Y-51760000D01*
X27200000Y-47975001D02*
X27200000Y-50190000D01*
X27200000Y-50190000D02*
X28770000Y-51760000D01*
X24724999Y-45500000D02*
X27200000Y-47975001D01*
%TO.N,VSYS*%
X37520000Y-24500000D02*
X38390000Y-25370000D01*
X29500000Y-24500000D02*
X37520000Y-24500000D01*
%TO.N,Net-(J4-Pin_11)*%
X23275000Y-50500000D02*
X20880000Y-50500000D01*
X20880000Y-50500000D02*
X20610000Y-50770000D01*
%TO.N,Net-(J4-Pin_9)*%
X23275001Y-45500000D02*
X20800000Y-45500000D01*
X20800000Y-45500000D02*
X20610000Y-45690000D01*
%TO.N,Net-(J4-Pin_10)*%
X23275000Y-47950000D02*
X20890000Y-47950000D01*
X20890000Y-47950000D02*
X20610000Y-48230000D01*
%TD*%
%TA.AperFunction,Conductor*%
%TO.N,GND*%
G36*
X27295019Y-56483787D02*
G01*
X27329517Y-56486082D01*
X27329774Y-56486272D01*
X27330097Y-56486296D01*
X27357840Y-56507065D01*
X27385659Y-56527674D01*
X27385816Y-56528007D01*
X27386030Y-56528168D01*
X27402728Y-56558566D01*
X27405831Y-56566761D01*
X27405909Y-56567483D01*
X27456204Y-56702331D01*
X27458152Y-56704933D01*
X27462376Y-56716088D01*
X27464415Y-56742736D01*
X27470095Y-56768853D01*
X27467174Y-56778798D01*
X27467707Y-56785754D01*
X27462059Y-56796220D01*
X27458310Y-56808988D01*
X27459303Y-56809359D01*
X27433058Y-56879727D01*
X27405909Y-56952517D01*
X27399500Y-57012127D01*
X27399500Y-57012134D01*
X27399500Y-57012135D01*
X27399500Y-57507870D01*
X27399501Y-57507876D01*
X27405908Y-57567483D01*
X27459303Y-57710641D01*
X27457575Y-57711285D01*
X27470095Y-57768853D01*
X27458310Y-57808988D01*
X27459303Y-57809359D01*
X27405908Y-57952517D01*
X27399501Y-58012116D01*
X27399500Y-58012135D01*
X27399500Y-58235257D01*
X27379815Y-58302296D01*
X27363181Y-58322938D01*
X25646635Y-60039485D01*
X25539487Y-60146632D01*
X25539485Y-60146635D01*
X25463719Y-60277863D01*
X25424500Y-60424234D01*
X25424500Y-68515976D01*
X25404815Y-68583015D01*
X25352011Y-68628770D01*
X25282853Y-68638714D01*
X25219297Y-68609689D01*
X25197398Y-68584867D01*
X25129557Y-68483335D01*
X25016667Y-68370445D01*
X25016659Y-68370439D01*
X24883918Y-68281744D01*
X24883914Y-68281742D01*
X24736418Y-68220648D01*
X24736406Y-68220645D01*
X24579831Y-68189500D01*
X24579827Y-68189500D01*
X24420173Y-68189500D01*
X24420168Y-68189500D01*
X24263593Y-68220645D01*
X24263581Y-68220648D01*
X24116085Y-68281742D01*
X24116081Y-68281744D01*
X23983340Y-68370439D01*
X23983332Y-68370445D01*
X23870445Y-68483332D01*
X23870439Y-68483340D01*
X23781744Y-68616081D01*
X23781742Y-68616085D01*
X23720648Y-68763581D01*
X23720645Y-68763593D01*
X23689500Y-68920168D01*
X23689500Y-69079831D01*
X23720645Y-69236406D01*
X23720648Y-69236418D01*
X23781742Y-69383914D01*
X23781744Y-69383918D01*
X23870439Y-69516659D01*
X23870445Y-69516667D01*
X23983332Y-69629554D01*
X23983340Y-69629560D01*
X24116081Y-69718255D01*
X24116085Y-69718257D01*
X24263581Y-69779351D01*
X24263586Y-69779353D01*
X24420168Y-69810499D01*
X24420172Y-69810500D01*
X24476257Y-69810500D01*
X24543296Y-69830185D01*
X24589051Y-69882989D01*
X24598995Y-69952147D01*
X24569970Y-70015703D01*
X24563938Y-70022181D01*
X23142937Y-71443181D01*
X23081614Y-71476666D01*
X23055257Y-71479500D01*
X22951611Y-71479500D01*
X22885073Y-71485546D01*
X22885066Y-71485548D01*
X22731933Y-71533265D01*
X22731929Y-71533267D01*
X22594670Y-71616242D01*
X22594665Y-71616246D01*
X22522731Y-71688181D01*
X22461408Y-71721666D01*
X22435050Y-71724500D01*
X22109742Y-71724500D01*
X22080301Y-71715855D01*
X22050315Y-71709332D01*
X22045299Y-71705577D01*
X22042703Y-71704815D01*
X22022061Y-71688181D01*
X21935087Y-71601207D01*
X21901602Y-71539884D01*
X21904836Y-71475210D01*
X21927246Y-71406243D01*
X21960500Y-71196287D01*
X21960500Y-70983713D01*
X21927246Y-70773757D01*
X21861557Y-70571588D01*
X21765051Y-70382184D01*
X21765049Y-70382181D01*
X21765048Y-70382179D01*
X21640109Y-70210213D01*
X21489786Y-70059890D01*
X21317817Y-69934949D01*
X21308504Y-69930204D01*
X21257707Y-69882230D01*
X21240912Y-69814409D01*
X21263449Y-69748274D01*
X21308507Y-69709232D01*
X21317558Y-69704620D01*
X21489459Y-69579727D01*
X21489464Y-69579723D01*
X21639723Y-69429464D01*
X21639727Y-69429459D01*
X21764620Y-69257557D01*
X21861095Y-69068217D01*
X21926757Y-68866129D01*
X21926757Y-68866126D01*
X21937231Y-68800000D01*
X21043012Y-68800000D01*
X21075925Y-68742993D01*
X21110000Y-68615826D01*
X21110000Y-68484174D01*
X21075925Y-68357007D01*
X21043012Y-68300000D01*
X21937231Y-68300000D01*
X21926757Y-68233873D01*
X21926757Y-68233870D01*
X21861095Y-68031782D01*
X21764620Y-67842442D01*
X21639727Y-67670540D01*
X21639723Y-67670535D01*
X21489464Y-67520276D01*
X21489459Y-67520272D01*
X21317555Y-67395377D01*
X21308500Y-67390763D01*
X21257706Y-67342788D01*
X21240912Y-67274966D01*
X21263451Y-67208832D01*
X21308508Y-67169793D01*
X21317816Y-67165051D01*
X21450967Y-67068312D01*
X21489786Y-67040109D01*
X21489788Y-67040106D01*
X21489792Y-67040104D01*
X21640104Y-66889792D01*
X21640106Y-66889788D01*
X21640109Y-66889786D01*
X21699007Y-66808719D01*
X21765051Y-66717816D01*
X21797972Y-66653205D01*
X21845947Y-66602409D01*
X21908457Y-66585500D01*
X22465764Y-66585500D01*
X22465766Y-66585500D01*
X22612135Y-66546281D01*
X22743365Y-66470515D01*
X24960515Y-64253365D01*
X25004133Y-64177816D01*
X25036281Y-64122135D01*
X25075500Y-63975766D01*
X25075500Y-58689742D01*
X25095185Y-58622703D01*
X25111819Y-58602061D01*
X26146397Y-57567483D01*
X27199084Y-56514795D01*
X27229506Y-56498183D01*
X27259802Y-56481445D01*
X27260122Y-56481466D01*
X27260405Y-56481312D01*
X27295019Y-56483787D01*
G37*
%TD.AperFunction*%
%TA.AperFunction,Conductor*%
G36*
X27143834Y-61072559D02*
G01*
X27199767Y-61114431D01*
X27224184Y-61179895D01*
X27224500Y-61188741D01*
X27224500Y-65720765D01*
X27263719Y-65867136D01*
X27284837Y-65903713D01*
X27339485Y-65998365D01*
X27339487Y-65998367D01*
X27878375Y-66537255D01*
X27911860Y-66598578D01*
X27906876Y-66668270D01*
X27903076Y-66677341D01*
X27823262Y-66848502D01*
X27823258Y-66848511D01*
X27764366Y-67068302D01*
X27764364Y-67068312D01*
X27749500Y-67238214D01*
X27749500Y-67451785D01*
X27764364Y-67621687D01*
X27764366Y-67621697D01*
X27823258Y-67841488D01*
X27823261Y-67841497D01*
X27919431Y-68047732D01*
X27919432Y-68047734D01*
X27977575Y-68130771D01*
X27999902Y-68196977D01*
X28000000Y-68201894D01*
X28000000Y-68879314D01*
X27995606Y-68874920D01*
X27904394Y-68822259D01*
X27802661Y-68795000D01*
X27697339Y-68795000D01*
X27595606Y-68822259D01*
X27504394Y-68874920D01*
X27500000Y-68879314D01*
X27500000Y-67907531D01*
X27473398Y-67909858D01*
X27473391Y-67909859D01*
X27253679Y-67968731D01*
X27253668Y-67968735D01*
X27151904Y-68016189D01*
X27082827Y-68026681D01*
X27019043Y-67998161D01*
X26980804Y-67939684D01*
X26975500Y-67903807D01*
X26975500Y-61189741D01*
X26984144Y-61160300D01*
X26990668Y-61130314D01*
X26994422Y-61125298D01*
X26995185Y-61122702D01*
X27011819Y-61102060D01*
X27012819Y-61101060D01*
X27074142Y-61067575D01*
X27143834Y-61072559D01*
G37*
%TD.AperFunction*%
%TA.AperFunction,Conductor*%
G36*
X36958834Y-37877559D02*
G01*
X37014767Y-37919431D01*
X37039184Y-37984895D01*
X37039500Y-37993741D01*
X37039500Y-38176286D01*
X37072753Y-38386239D01*
X37138444Y-38588414D01*
X37234951Y-38777820D01*
X37359890Y-38949786D01*
X37510213Y-39100109D01*
X37682182Y-39225050D01*
X37690946Y-39229516D01*
X37741742Y-39277491D01*
X37758536Y-39345312D01*
X37735998Y-39411447D01*
X37690946Y-39450484D01*
X37682182Y-39454949D01*
X37510213Y-39579890D01*
X37359890Y-39730213D01*
X37234951Y-39902179D01*
X37138444Y-40091585D01*
X37072753Y-40293760D01*
X37039500Y-40503713D01*
X37039500Y-40716286D01*
X37072753Y-40926239D01*
X37138444Y-41128414D01*
X37234951Y-41317820D01*
X37359890Y-41489786D01*
X37510213Y-41640109D01*
X37682179Y-41765048D01*
X37682181Y-41765049D01*
X37682184Y-41765051D01*
X37691493Y-41769794D01*
X37742290Y-41817766D01*
X37759087Y-41885587D01*
X37736552Y-41951722D01*
X37691502Y-41990762D01*
X37682443Y-41995378D01*
X37510540Y-42120272D01*
X37510535Y-42120276D01*
X37360276Y-42270535D01*
X37360272Y-42270540D01*
X37235379Y-42442442D01*
X37138904Y-42631782D01*
X37073242Y-42833870D01*
X37073242Y-42833873D01*
X37062769Y-42900000D01*
X37956988Y-42900000D01*
X37924075Y-42957007D01*
X37890000Y-43084174D01*
X37890000Y-43215826D01*
X37924075Y-43342993D01*
X37956988Y-43400000D01*
X37062769Y-43400000D01*
X37073242Y-43466126D01*
X37073242Y-43466129D01*
X37138904Y-43668217D01*
X37235379Y-43857557D01*
X37360272Y-44029459D01*
X37360276Y-44029464D01*
X37510535Y-44179723D01*
X37510540Y-44179727D01*
X37682444Y-44304622D01*
X37691495Y-44309234D01*
X37742292Y-44357208D01*
X37759087Y-44425029D01*
X37736550Y-44491164D01*
X37691499Y-44530202D01*
X37682182Y-44534949D01*
X37510213Y-44659890D01*
X37359890Y-44810213D01*
X37234951Y-44982179D01*
X37138444Y-45171585D01*
X37072753Y-45373760D01*
X37039500Y-45583713D01*
X37039500Y-45796287D01*
X37072754Y-46006243D01*
X37135547Y-46199500D01*
X37138444Y-46208414D01*
X37234951Y-46397820D01*
X37359890Y-46569786D01*
X37510213Y-46720109D01*
X37682182Y-46845050D01*
X37690946Y-46849516D01*
X37741742Y-46897491D01*
X37758536Y-46965312D01*
X37735998Y-47031447D01*
X37690946Y-47070484D01*
X37682182Y-47074949D01*
X37510213Y-47199890D01*
X37359890Y-47350213D01*
X37234951Y-47522179D01*
X37138444Y-47711585D01*
X37072753Y-47913760D01*
X37039500Y-48123713D01*
X37039500Y-48336286D01*
X37072380Y-48543885D01*
X37072754Y-48546243D01*
X37128533Y-48717913D01*
X37138444Y-48748414D01*
X37234951Y-48937820D01*
X37359890Y-49109786D01*
X37510213Y-49260109D01*
X37682182Y-49385050D01*
X37690946Y-49389516D01*
X37741742Y-49437491D01*
X37758536Y-49505312D01*
X37735998Y-49571447D01*
X37690946Y-49610484D01*
X37682182Y-49614949D01*
X37510213Y-49739890D01*
X37359890Y-49890213D01*
X37234951Y-50062179D01*
X37138444Y-50251585D01*
X37072753Y-50453760D01*
X37039500Y-50663713D01*
X37039500Y-50876286D01*
X37072561Y-51085029D01*
X37072754Y-51086243D01*
X37110513Y-51202454D01*
X37138444Y-51288414D01*
X37234951Y-51477820D01*
X37359890Y-51649786D01*
X37510213Y-51800109D01*
X37682182Y-51925050D01*
X37690946Y-51929516D01*
X37741742Y-51977491D01*
X37758536Y-52045312D01*
X37735998Y-52111447D01*
X37690946Y-52150484D01*
X37682182Y-52154949D01*
X37510213Y-52279890D01*
X37359890Y-52430213D01*
X37234951Y-52602179D01*
X37138444Y-52791585D01*
X37072753Y-52993760D01*
X37039500Y-53203713D01*
X37039500Y-53416286D01*
X37072753Y-53626239D01*
X37138444Y-53828414D01*
X37234951Y-54017820D01*
X37359890Y-54189786D01*
X37510213Y-54340109D01*
X37682179Y-54465048D01*
X37682181Y-54465049D01*
X37682184Y-54465051D01*
X37691493Y-54469794D01*
X37742290Y-54517766D01*
X37759087Y-54585587D01*
X37736552Y-54651722D01*
X37691502Y-54690762D01*
X37682443Y-54695378D01*
X37510540Y-54820272D01*
X37510535Y-54820276D01*
X37360276Y-54970535D01*
X37360272Y-54970540D01*
X37235379Y-55142442D01*
X37138904Y-55331782D01*
X37073242Y-55533870D01*
X37073242Y-55533873D01*
X37062769Y-55600000D01*
X37956988Y-55600000D01*
X37924075Y-55657007D01*
X37890000Y-55784174D01*
X37890000Y-55915826D01*
X37924075Y-56042993D01*
X37956988Y-56100000D01*
X37062769Y-56100000D01*
X37073242Y-56166126D01*
X37073242Y-56166129D01*
X37138904Y-56368217D01*
X37235379Y-56557557D01*
X37360272Y-56729459D01*
X37360276Y-56729464D01*
X37510535Y-56879723D01*
X37510540Y-56879727D01*
X37682444Y-57004622D01*
X37691495Y-57009234D01*
X37742292Y-57057208D01*
X37759087Y-57125029D01*
X37736550Y-57191164D01*
X37691499Y-57230202D01*
X37682182Y-57234949D01*
X37510213Y-57359890D01*
X37359890Y-57510213D01*
X37234951Y-57682179D01*
X37138441Y-57871589D01*
X37136582Y-57876081D01*
X37135222Y-57875518D01*
X37099469Y-57927775D01*
X37035103Y-57954956D01*
X36966260Y-57943022D01*
X36933321Y-57919441D01*
X34813367Y-55799487D01*
X34813365Y-55799485D01*
X34747750Y-55761602D01*
X34682136Y-55723719D01*
X34608950Y-55704109D01*
X34535766Y-55684500D01*
X34535765Y-55684500D01*
X31724499Y-55684500D01*
X31657460Y-55664815D01*
X31611705Y-55612011D01*
X31600499Y-55560500D01*
X31600499Y-55512129D01*
X31600498Y-55512123D01*
X31594091Y-55452518D01*
X31593115Y-55449901D01*
X31543796Y-55317669D01*
X31543794Y-55317666D01*
X31540696Y-55309360D01*
X31542426Y-55308714D01*
X31529902Y-55251163D01*
X31541691Y-55211011D01*
X31540696Y-55210640D01*
X31543794Y-55202333D01*
X31543796Y-55202331D01*
X31594091Y-55067483D01*
X31600500Y-55007873D01*
X31600499Y-54512128D01*
X31594091Y-54452517D01*
X31543796Y-54317669D01*
X31543794Y-54317666D01*
X31540696Y-54309360D01*
X31542426Y-54308714D01*
X31529902Y-54251163D01*
X31541691Y-54211011D01*
X31540696Y-54210640D01*
X31543794Y-54202333D01*
X31543796Y-54202331D01*
X31594091Y-54067483D01*
X31600500Y-54007873D01*
X31600499Y-53512128D01*
X31594091Y-53452517D01*
X31543796Y-53317669D01*
X31540697Y-53309359D01*
X31542266Y-53308773D01*
X31529616Y-53250630D01*
X31541314Y-53210793D01*
X31540253Y-53210398D01*
X31593597Y-53067376D01*
X31593598Y-53067372D01*
X31599999Y-53007844D01*
X31600000Y-53007827D01*
X31600000Y-52960000D01*
X31596615Y-52956615D01*
X31563130Y-52895292D01*
X31568114Y-52825600D01*
X31609986Y-52769667D01*
X31622296Y-52761547D01*
X31628178Y-52758150D01*
X31693365Y-52720515D01*
X32397804Y-52016074D01*
X32459125Y-51982591D01*
X32461194Y-51982159D01*
X32504328Y-51973580D01*
X32631811Y-51920775D01*
X32746542Y-51844114D01*
X32844114Y-51746542D01*
X32920775Y-51631811D01*
X32973580Y-51504328D01*
X32982140Y-51461290D01*
X33014524Y-51399382D01*
X33016016Y-51397862D01*
X33360515Y-51053365D01*
X33436281Y-50922135D01*
X33475500Y-50775767D01*
X33475500Y-50624234D01*
X33475500Y-41309741D01*
X33495185Y-41242702D01*
X33511814Y-41222065D01*
X36827819Y-37906059D01*
X36889142Y-37872575D01*
X36958834Y-37877559D01*
G37*
%TD.AperFunction*%
%TA.AperFunction,Conductor*%
G36*
X25418297Y-54355185D02*
G01*
X25464052Y-54407989D01*
X25473996Y-54477147D01*
X25444971Y-54540703D01*
X25438939Y-54547181D01*
X22207939Y-57778181D01*
X22146616Y-57811666D01*
X22120258Y-57814500D01*
X21908457Y-57814500D01*
X21841418Y-57794815D01*
X21797972Y-57746795D01*
X21791584Y-57734258D01*
X21765051Y-57682184D01*
X21757023Y-57671134D01*
X21640109Y-57510213D01*
X21489786Y-57359890D01*
X21317817Y-57234949D01*
X21308504Y-57230204D01*
X21257707Y-57182230D01*
X21240912Y-57114409D01*
X21263449Y-57048274D01*
X21308507Y-57009232D01*
X21317558Y-57004620D01*
X21489459Y-56879727D01*
X21489464Y-56879723D01*
X21639723Y-56729464D01*
X21639727Y-56729459D01*
X21764620Y-56557557D01*
X21861095Y-56368217D01*
X21926757Y-56166129D01*
X21926757Y-56166126D01*
X21937231Y-56100000D01*
X21043012Y-56100000D01*
X21075925Y-56042993D01*
X21110000Y-55915826D01*
X21110000Y-55784174D01*
X21075925Y-55657007D01*
X21043012Y-55600000D01*
X21937231Y-55600000D01*
X21926757Y-55533873D01*
X21926757Y-55533870D01*
X21861095Y-55331782D01*
X21764620Y-55142442D01*
X21639727Y-54970540D01*
X21639723Y-54970535D01*
X21489464Y-54820276D01*
X21489459Y-54820272D01*
X21317555Y-54695377D01*
X21308500Y-54690763D01*
X21257706Y-54642788D01*
X21240912Y-54574966D01*
X21263451Y-54508832D01*
X21293433Y-54478874D01*
X21300637Y-54473804D01*
X21317816Y-54465051D01*
X21464280Y-54358639D01*
X21465055Y-54358094D01*
X21497271Y-54347144D01*
X21529342Y-54335702D01*
X21531083Y-54335652D01*
X21531208Y-54335610D01*
X21531347Y-54335644D01*
X21536420Y-54335500D01*
X25351258Y-54335500D01*
X25418297Y-54355185D01*
G37*
%TD.AperFunction*%
%TA.AperFunction,Conductor*%
G36*
X39505394Y-23010971D02*
G01*
X39661019Y-23024587D01*
X39682297Y-23028338D01*
X39827951Y-23067366D01*
X39848261Y-23074759D01*
X39984915Y-23138482D01*
X40003633Y-23149289D01*
X40127154Y-23235779D01*
X40143712Y-23249673D01*
X40250326Y-23356287D01*
X40264220Y-23372845D01*
X40350710Y-23496366D01*
X40361517Y-23515084D01*
X40425240Y-23651738D01*
X40432633Y-23672049D01*
X40471659Y-23817696D01*
X40475412Y-23838982D01*
X40489028Y-23994604D01*
X40489500Y-24005412D01*
X40489500Y-74494587D01*
X40489028Y-74505394D01*
X40489028Y-74505395D01*
X40475412Y-74661017D01*
X40471659Y-74682303D01*
X40432633Y-74827950D01*
X40425240Y-74848261D01*
X40361517Y-74984915D01*
X40350710Y-75003633D01*
X40264220Y-75127154D01*
X40250326Y-75143712D01*
X40143712Y-75250326D01*
X40127154Y-75264220D01*
X40003633Y-75350710D01*
X39984915Y-75361517D01*
X39848261Y-75425240D01*
X39827950Y-75432633D01*
X39682303Y-75471659D01*
X39661017Y-75475412D01*
X39527247Y-75487116D01*
X39505393Y-75489028D01*
X39494588Y-75489500D01*
X19505412Y-75489500D01*
X19494606Y-75489028D01*
X19469584Y-75486838D01*
X19338982Y-75475412D01*
X19317696Y-75471659D01*
X19172049Y-75432633D01*
X19151738Y-75425240D01*
X19015084Y-75361517D01*
X18996366Y-75350710D01*
X18872845Y-75264220D01*
X18856287Y-75250326D01*
X18749673Y-75143712D01*
X18735779Y-75127154D01*
X18649289Y-75003633D01*
X18638482Y-74984915D01*
X18574759Y-74848261D01*
X18567366Y-74827950D01*
X18528338Y-74682297D01*
X18524587Y-74661016D01*
X18524507Y-74660104D01*
X18510972Y-74505394D01*
X18510500Y-74494587D01*
X18510500Y-24472135D01*
X19259500Y-24472135D01*
X19259500Y-26267870D01*
X19259501Y-26267876D01*
X19265908Y-26327483D01*
X19316202Y-26462328D01*
X19316206Y-26462335D01*
X19402452Y-26577544D01*
X19402455Y-26577547D01*
X19517664Y-26663793D01*
X19517671Y-26663797D01*
X19649082Y-26712810D01*
X19705016Y-26754681D01*
X19729433Y-26820145D01*
X19714582Y-26888418D01*
X19693431Y-26916673D01*
X19579889Y-27030215D01*
X19454951Y-27202179D01*
X19358444Y-27391585D01*
X19292753Y-27593760D01*
X19259500Y-27803713D01*
X19259500Y-28016286D01*
X19291867Y-28220648D01*
X19292754Y-28226243D01*
X19345867Y-28389708D01*
X19358444Y-28428414D01*
X19454951Y-28617820D01*
X19579890Y-28789786D01*
X19730213Y-28940109D01*
X19902179Y-29065048D01*
X19902181Y-29065049D01*
X19902184Y-29065051D01*
X19911493Y-29069794D01*
X19962290Y-29117766D01*
X19979087Y-29185587D01*
X19956552Y-29251722D01*
X19911502Y-29290762D01*
X19902443Y-29295378D01*
X19730540Y-29420272D01*
X19730535Y-29420276D01*
X19580276Y-29570535D01*
X19580272Y-29570540D01*
X19455379Y-29742442D01*
X19358904Y-29931782D01*
X19293242Y-30133870D01*
X19293242Y-30133873D01*
X19282769Y-30200000D01*
X20176988Y-30200000D01*
X20144075Y-30257007D01*
X20110000Y-30384174D01*
X20110000Y-30515826D01*
X20144075Y-30642993D01*
X20176988Y-30700000D01*
X19282769Y-30700000D01*
X19293242Y-30766126D01*
X19293242Y-30766129D01*
X19358904Y-30968217D01*
X19455379Y-31157557D01*
X19580272Y-31329459D01*
X19580276Y-31329464D01*
X19730535Y-31479723D01*
X19730540Y-31479727D01*
X19902444Y-31604622D01*
X19911495Y-31609234D01*
X19962292Y-31657208D01*
X19979087Y-31725029D01*
X19956550Y-31791164D01*
X19911499Y-31830202D01*
X19902182Y-31834949D01*
X19730213Y-31959890D01*
X19579890Y-32110213D01*
X19454951Y-32282179D01*
X19358444Y-32471585D01*
X19292753Y-32673760D01*
X19259500Y-32883713D01*
X19259500Y-33096286D01*
X19292753Y-33306239D01*
X19358444Y-33508414D01*
X19454951Y-33697820D01*
X19579890Y-33869786D01*
X19730213Y-34020109D01*
X19902182Y-34145050D01*
X19910946Y-34149516D01*
X19961742Y-34197491D01*
X19978536Y-34265312D01*
X19955998Y-34331447D01*
X19910946Y-34370484D01*
X19902182Y-34374949D01*
X19730213Y-34499890D01*
X19579890Y-34650213D01*
X19454951Y-34822179D01*
X19358444Y-35011585D01*
X19292753Y-35213760D01*
X19259500Y-35423713D01*
X19259500Y-35636287D01*
X19292754Y-35846243D01*
X19337855Y-35985050D01*
X19358444Y-36048414D01*
X19454951Y-36237820D01*
X19579890Y-36409786D01*
X19730213Y-36560109D01*
X19902182Y-36685050D01*
X19910946Y-36689516D01*
X19961742Y-36737491D01*
X19978536Y-36805312D01*
X19955998Y-36871447D01*
X19910946Y-36910484D01*
X19902182Y-36914949D01*
X19730213Y-37039890D01*
X19579890Y-37190213D01*
X19454951Y-37362179D01*
X19358444Y-37551585D01*
X19292753Y-37753760D01*
X19259500Y-37963713D01*
X19259500Y-38176286D01*
X19292753Y-38386239D01*
X19358444Y-38588414D01*
X19454951Y-38777820D01*
X19579890Y-38949786D01*
X19730213Y-39100109D01*
X19902182Y-39225050D01*
X19910946Y-39229516D01*
X19961742Y-39277491D01*
X19978536Y-39345312D01*
X19955998Y-39411447D01*
X19910946Y-39450484D01*
X19902182Y-39454949D01*
X19730213Y-39579890D01*
X19579890Y-39730213D01*
X19454951Y-39902179D01*
X19358444Y-40091585D01*
X19292753Y-40293760D01*
X19259500Y-40503713D01*
X19259500Y-40716286D01*
X19292753Y-40926239D01*
X19358444Y-41128414D01*
X19454951Y-41317820D01*
X19579890Y-41489786D01*
X19730213Y-41640109D01*
X19902179Y-41765048D01*
X19902181Y-41765049D01*
X19902184Y-41765051D01*
X19911493Y-41769794D01*
X19962290Y-41817766D01*
X19979087Y-41885587D01*
X19956552Y-41951722D01*
X19911502Y-41990762D01*
X19902443Y-41995378D01*
X19730540Y-42120272D01*
X19730535Y-42120276D01*
X19580276Y-42270535D01*
X19580272Y-42270540D01*
X19455379Y-42442442D01*
X19358904Y-42631782D01*
X19293242Y-42833870D01*
X19293242Y-42833873D01*
X19282769Y-42900000D01*
X20176988Y-42900000D01*
X20144075Y-42957007D01*
X20110000Y-43084174D01*
X20110000Y-43215826D01*
X20144075Y-43342993D01*
X20176988Y-43400000D01*
X19282769Y-43400000D01*
X19293242Y-43466126D01*
X19293242Y-43466129D01*
X19358904Y-43668217D01*
X19455379Y-43857557D01*
X19580272Y-44029459D01*
X19580276Y-44029464D01*
X19730535Y-44179723D01*
X19730540Y-44179727D01*
X19902444Y-44304622D01*
X19911495Y-44309234D01*
X19962292Y-44357208D01*
X19979087Y-44425029D01*
X19956550Y-44491164D01*
X19911499Y-44530202D01*
X19902182Y-44534949D01*
X19730213Y-44659890D01*
X19579890Y-44810213D01*
X19454951Y-44982179D01*
X19358444Y-45171585D01*
X19292753Y-45373760D01*
X19259500Y-45583713D01*
X19259500Y-45796287D01*
X19292754Y-46006243D01*
X19355547Y-46199500D01*
X19358444Y-46208414D01*
X19454951Y-46397820D01*
X19579890Y-46569786D01*
X19730213Y-46720109D01*
X19902182Y-46845050D01*
X19910946Y-46849516D01*
X19961742Y-46897491D01*
X19978536Y-46965312D01*
X19955998Y-47031447D01*
X19910946Y-47070484D01*
X19902182Y-47074949D01*
X19730213Y-47199890D01*
X19579890Y-47350213D01*
X19454951Y-47522179D01*
X19358444Y-47711585D01*
X19292753Y-47913760D01*
X19259500Y-48123713D01*
X19259500Y-48336286D01*
X19292380Y-48543885D01*
X19292754Y-48546243D01*
X19348533Y-48717913D01*
X19358444Y-48748414D01*
X19454951Y-48937820D01*
X19579890Y-49109786D01*
X19730213Y-49260109D01*
X19902182Y-49385050D01*
X19910946Y-49389516D01*
X19961742Y-49437491D01*
X19978536Y-49505312D01*
X19955998Y-49571447D01*
X19910946Y-49610484D01*
X19902182Y-49614949D01*
X19730213Y-49739890D01*
X19579890Y-49890213D01*
X19454951Y-50062179D01*
X19358444Y-50251585D01*
X19292753Y-50453760D01*
X19259500Y-50663713D01*
X19259500Y-50876286D01*
X19292561Y-51085029D01*
X19292754Y-51086243D01*
X19330513Y-51202454D01*
X19358444Y-51288414D01*
X19454951Y-51477820D01*
X19579890Y-51649786D01*
X19730213Y-51800109D01*
X19902182Y-51925050D01*
X19910946Y-51929516D01*
X19961742Y-51977491D01*
X19978536Y-52045312D01*
X19955998Y-52111447D01*
X19910946Y-52150484D01*
X19902182Y-52154949D01*
X19730213Y-52279890D01*
X19579890Y-52430213D01*
X19454951Y-52602179D01*
X19358444Y-52791585D01*
X19292753Y-52993760D01*
X19259500Y-53203713D01*
X19259500Y-53416286D01*
X19292753Y-53626239D01*
X19358444Y-53828414D01*
X19454951Y-54017820D01*
X19579890Y-54189786D01*
X19730213Y-54340109D01*
X19902179Y-54465048D01*
X19902181Y-54465049D01*
X19902184Y-54465051D01*
X19911493Y-54469794D01*
X19962290Y-54517766D01*
X19979087Y-54585587D01*
X19956552Y-54651722D01*
X19911502Y-54690762D01*
X19902443Y-54695378D01*
X19730540Y-54820272D01*
X19730535Y-54820276D01*
X19580276Y-54970535D01*
X19580272Y-54970540D01*
X19455379Y-55142442D01*
X19358904Y-55331782D01*
X19293242Y-55533870D01*
X19293242Y-55533873D01*
X19282769Y-55600000D01*
X20176988Y-55600000D01*
X20144075Y-55657007D01*
X20110000Y-55784174D01*
X20110000Y-55915826D01*
X20144075Y-56042993D01*
X20176988Y-56100000D01*
X19282769Y-56100000D01*
X19293242Y-56166126D01*
X19293242Y-56166129D01*
X19358904Y-56368217D01*
X19455379Y-56557557D01*
X19580272Y-56729459D01*
X19580276Y-56729464D01*
X19730535Y-56879723D01*
X19730540Y-56879727D01*
X19902444Y-57004622D01*
X19911495Y-57009234D01*
X19962292Y-57057208D01*
X19979087Y-57125029D01*
X19956550Y-57191164D01*
X19911499Y-57230202D01*
X19902182Y-57234949D01*
X19730213Y-57359890D01*
X19579890Y-57510213D01*
X19454951Y-57682179D01*
X19358444Y-57871585D01*
X19292753Y-58073760D01*
X19265848Y-58243631D01*
X19259500Y-58283713D01*
X19259500Y-58496287D01*
X19292754Y-58706243D01*
X19337551Y-58844114D01*
X19358444Y-58908414D01*
X19454951Y-59097820D01*
X19579890Y-59269786D01*
X19730213Y-59420109D01*
X19902182Y-59545050D01*
X19910946Y-59549516D01*
X19961742Y-59597491D01*
X19978536Y-59665312D01*
X19955998Y-59731447D01*
X19910946Y-59770484D01*
X19902182Y-59774949D01*
X19730213Y-59899890D01*
X19579890Y-60050213D01*
X19454951Y-60222179D01*
X19358444Y-60411585D01*
X19292753Y-60613760D01*
X19259500Y-60823713D01*
X19259500Y-61036286D01*
X19292753Y-61246239D01*
X19358444Y-61448414D01*
X19454951Y-61637820D01*
X19579890Y-61809786D01*
X19730213Y-61960109D01*
X19902182Y-62085050D01*
X19910946Y-62089516D01*
X19961742Y-62137491D01*
X19978536Y-62205312D01*
X19955998Y-62271447D01*
X19910946Y-62310484D01*
X19902182Y-62314949D01*
X19730213Y-62439890D01*
X19579890Y-62590213D01*
X19454951Y-62762179D01*
X19358444Y-62951585D01*
X19292753Y-63153760D01*
X19272427Y-63282093D01*
X19259500Y-63363713D01*
X19259500Y-63576287D01*
X19264881Y-63610258D01*
X19275498Y-63677297D01*
X19292754Y-63786243D01*
X19354333Y-63975764D01*
X19358444Y-63988414D01*
X19454950Y-64177818D01*
X19579890Y-64349786D01*
X19730213Y-64500109D01*
X19902182Y-64625050D01*
X19910946Y-64629516D01*
X19961742Y-64677491D01*
X19978536Y-64745312D01*
X19955998Y-64811447D01*
X19910946Y-64850484D01*
X19902182Y-64854949D01*
X19730213Y-64979890D01*
X19579890Y-65130213D01*
X19454951Y-65302179D01*
X19358444Y-65491585D01*
X19292753Y-65693760D01*
X19288476Y-65720765D01*
X19259500Y-65903713D01*
X19259500Y-66116287D01*
X19269534Y-66179644D01*
X19292753Y-66326239D01*
X19358444Y-66528414D01*
X19454951Y-66717820D01*
X19579890Y-66889786D01*
X19730213Y-67040109D01*
X19902179Y-67165048D01*
X19902181Y-67165049D01*
X19902184Y-67165051D01*
X19911493Y-67169794D01*
X19962290Y-67217766D01*
X19979087Y-67285587D01*
X19956552Y-67351722D01*
X19911502Y-67390762D01*
X19902443Y-67395378D01*
X19730540Y-67520272D01*
X19730535Y-67520276D01*
X19580276Y-67670535D01*
X19580272Y-67670540D01*
X19455379Y-67842442D01*
X19358904Y-68031782D01*
X19293242Y-68233870D01*
X19293242Y-68233873D01*
X19282769Y-68300000D01*
X20176988Y-68300000D01*
X20144075Y-68357007D01*
X20110000Y-68484174D01*
X20110000Y-68615826D01*
X20144075Y-68742993D01*
X20176988Y-68800000D01*
X19282769Y-68800000D01*
X19293242Y-68866126D01*
X19293242Y-68866129D01*
X19358904Y-69068217D01*
X19455379Y-69257557D01*
X19580272Y-69429459D01*
X19580276Y-69429464D01*
X19730535Y-69579723D01*
X19730540Y-69579727D01*
X19902444Y-69704622D01*
X19911495Y-69709234D01*
X19962292Y-69757208D01*
X19979087Y-69825029D01*
X19956550Y-69891164D01*
X19911499Y-69930202D01*
X19902182Y-69934949D01*
X19730213Y-70059890D01*
X19579890Y-70210213D01*
X19454951Y-70382179D01*
X19358444Y-70571585D01*
X19292753Y-70773760D01*
X19267402Y-70933820D01*
X19259500Y-70983713D01*
X19259500Y-71196287D01*
X19264069Y-71225134D01*
X19271778Y-71273810D01*
X19292754Y-71406243D01*
X19335370Y-71537402D01*
X19358444Y-71608414D01*
X19454951Y-71797820D01*
X19579890Y-71969786D01*
X19730213Y-72120109D01*
X19902182Y-72245050D01*
X19910946Y-72249516D01*
X19961742Y-72297491D01*
X19978536Y-72365312D01*
X19955998Y-72431447D01*
X19910946Y-72470484D01*
X19902182Y-72474949D01*
X19730213Y-72599890D01*
X19579890Y-72750213D01*
X19454951Y-72922179D01*
X19358444Y-73111585D01*
X19292753Y-73313760D01*
X19259500Y-73523713D01*
X19259500Y-73736286D01*
X19287301Y-73911819D01*
X19292754Y-73946243D01*
X19355769Y-74140183D01*
X19358444Y-74148414D01*
X19454951Y-74337820D01*
X19579890Y-74509786D01*
X19730213Y-74660109D01*
X19902179Y-74785048D01*
X19902181Y-74785049D01*
X19902184Y-74785051D01*
X20091588Y-74881557D01*
X20293757Y-74947246D01*
X20503713Y-74980500D01*
X20503714Y-74980500D01*
X20716286Y-74980500D01*
X20716287Y-74980500D01*
X20926243Y-74947246D01*
X21128412Y-74881557D01*
X21317816Y-74785051D01*
X21339789Y-74769086D01*
X21489786Y-74660109D01*
X21489788Y-74660106D01*
X21489792Y-74660104D01*
X21640104Y-74509792D01*
X21640106Y-74509788D01*
X21640109Y-74509786D01*
X21765048Y-74337820D01*
X21765047Y-74337820D01*
X21765051Y-74337816D01*
X21861557Y-74148412D01*
X21922392Y-73961181D01*
X21961830Y-73903506D01*
X22026188Y-73876308D01*
X22040323Y-73875500D01*
X22435050Y-73875500D01*
X22502089Y-73895185D01*
X22522731Y-73911819D01*
X22594665Y-73983753D01*
X22594670Y-73983757D01*
X22731929Y-74066732D01*
X22731933Y-74066734D01*
X22786100Y-74083612D01*
X22885067Y-74114452D01*
X22951619Y-74120500D01*
X23157756Y-74120499D01*
X23224796Y-74140183D01*
X23245438Y-74156818D01*
X23349135Y-74260515D01*
X23480365Y-74336281D01*
X23626734Y-74375500D01*
X23626736Y-74375500D01*
X24875764Y-74375500D01*
X24875766Y-74375500D01*
X25022135Y-74336281D01*
X25153365Y-74260515D01*
X26860515Y-72553365D01*
X26936281Y-72422135D01*
X26975500Y-72275766D01*
X26975500Y-72124233D01*
X26975500Y-71386192D01*
X26995185Y-71319153D01*
X27047989Y-71273398D01*
X27117147Y-71263454D01*
X27151905Y-71273810D01*
X27253673Y-71321266D01*
X27253682Y-71321269D01*
X27473396Y-71380141D01*
X27499999Y-71382467D01*
X27500000Y-71382467D01*
X27500000Y-70410686D01*
X27504394Y-70415080D01*
X27595606Y-70467741D01*
X27697339Y-70495000D01*
X27802661Y-70495000D01*
X27904394Y-70467741D01*
X27995606Y-70415080D01*
X28000000Y-70410686D01*
X28000000Y-71382467D01*
X28026603Y-71380141D01*
X28246317Y-71321269D01*
X28246326Y-71321265D01*
X28452482Y-71225134D01*
X28638820Y-71094657D01*
X28799657Y-70933820D01*
X28930134Y-70747482D01*
X29026265Y-70541326D01*
X29026269Y-70541317D01*
X29085139Y-70321610D01*
X29085141Y-70321599D01*
X29099999Y-70151766D01*
X29100000Y-70151764D01*
X29100000Y-69895000D01*
X28150000Y-69895000D01*
X28150000Y-69395000D01*
X29099999Y-69395000D01*
X29099999Y-69138238D01*
X29099998Y-69138234D01*
X29085140Y-68968396D01*
X29085140Y-68968392D01*
X29053844Y-68851593D01*
X29055507Y-68781744D01*
X29094669Y-68723881D01*
X29158898Y-68696377D01*
X29173619Y-68695500D01*
X29826381Y-68695500D01*
X29893420Y-68715185D01*
X29939175Y-68767989D01*
X29949119Y-68837147D01*
X29946156Y-68851593D01*
X29914860Y-68968390D01*
X29914858Y-68968400D01*
X29900000Y-69138233D01*
X29900000Y-69395000D01*
X30850000Y-69395000D01*
X30850000Y-69895000D01*
X29900001Y-69895000D01*
X29900001Y-70151765D01*
X29914859Y-70321603D01*
X29914859Y-70321607D01*
X29973730Y-70541317D01*
X29973734Y-70541326D01*
X30069865Y-70747482D01*
X30200342Y-70933820D01*
X30361179Y-71094657D01*
X30547517Y-71225134D01*
X30753673Y-71321265D01*
X30753682Y-71321269D01*
X30973396Y-71380141D01*
X30999999Y-71382467D01*
X31000000Y-71382467D01*
X31000000Y-70410686D01*
X31004394Y-70415080D01*
X31095606Y-70467741D01*
X31197339Y-70495000D01*
X31302661Y-70495000D01*
X31404394Y-70467741D01*
X31495606Y-70415080D01*
X31500000Y-70410686D01*
X31500000Y-71382467D01*
X31526603Y-71380141D01*
X31746317Y-71321269D01*
X31746326Y-71321265D01*
X31952482Y-71225134D01*
X32029376Y-71171292D01*
X32095582Y-71148965D01*
X32163350Y-71165975D01*
X32211163Y-71216923D01*
X32224500Y-71272867D01*
X32224500Y-72310257D01*
X32204815Y-72377296D01*
X32188181Y-72397938D01*
X31481717Y-73104401D01*
X31420394Y-73137886D01*
X31350702Y-73132902D01*
X31294769Y-73091030D01*
X31292461Y-73087843D01*
X31200045Y-72955858D01*
X31039141Y-72794954D01*
X30852734Y-72664432D01*
X30852732Y-72664431D01*
X30646497Y-72568261D01*
X30646488Y-72568258D01*
X30426697Y-72509366D01*
X30426693Y-72509365D01*
X30426692Y-72509365D01*
X30426691Y-72509364D01*
X30426686Y-72509364D01*
X30379926Y-72505273D01*
X30374112Y-72504764D01*
X30309044Y-72479313D01*
X30268065Y-72422722D01*
X30264187Y-72352960D01*
X30270359Y-72333785D01*
X30327432Y-72195999D01*
X30360500Y-72029752D01*
X30360500Y-71860248D01*
X30327432Y-71694001D01*
X30325021Y-71688181D01*
X30262568Y-71537404D01*
X30262567Y-71537402D01*
X30221009Y-71475207D01*
X30168394Y-71396463D01*
X30168391Y-71396459D01*
X30048540Y-71276608D01*
X30048536Y-71276605D01*
X29907597Y-71182432D01*
X29907595Y-71182431D01*
X29751003Y-71117569D01*
X29750991Y-71117566D01*
X29584756Y-71084500D01*
X29584752Y-71084500D01*
X29415248Y-71084500D01*
X29415243Y-71084500D01*
X29249008Y-71117566D01*
X29248996Y-71117569D01*
X29092404Y-71182431D01*
X29092402Y-71182432D01*
X28951463Y-71276605D01*
X28951459Y-71276608D01*
X28831608Y-71396459D01*
X28831605Y-71396463D01*
X28737432Y-71537402D01*
X28737431Y-71537404D01*
X28672569Y-71693996D01*
X28672566Y-71694008D01*
X28639500Y-71860243D01*
X28639500Y-72029756D01*
X28672566Y-72195991D01*
X28672569Y-72196003D01*
X28729640Y-72333785D01*
X28737109Y-72403254D01*
X28705834Y-72465733D01*
X28645745Y-72501385D01*
X28625887Y-72504764D01*
X28621508Y-72505148D01*
X28573312Y-72509364D01*
X28573302Y-72509366D01*
X28353511Y-72568258D01*
X28353502Y-72568261D01*
X28147267Y-72664431D01*
X28147265Y-72664432D01*
X27960858Y-72794954D01*
X27799954Y-72955858D01*
X27669432Y-73142265D01*
X27669431Y-73142267D01*
X27573261Y-73348502D01*
X27573258Y-73348511D01*
X27514366Y-73568302D01*
X27514364Y-73568312D01*
X27499500Y-73738214D01*
X27499500Y-73951785D01*
X27514364Y-74121687D01*
X27514366Y-74121697D01*
X27573258Y-74341488D01*
X27573261Y-74341497D01*
X27669431Y-74547732D01*
X27669432Y-74547734D01*
X27799954Y-74734141D01*
X27960858Y-74895045D01*
X27960861Y-74895047D01*
X28147266Y-75025568D01*
X28353504Y-75121739D01*
X28573308Y-75180635D01*
X28743214Y-75195499D01*
X28743215Y-75195500D01*
X28743216Y-75195500D01*
X30256785Y-75195500D01*
X30256785Y-75195499D01*
X30426692Y-75180635D01*
X30646496Y-75121739D01*
X30852734Y-75025568D01*
X31039139Y-74895047D01*
X31200047Y-74734139D01*
X31330568Y-74547734D01*
X31356513Y-74492094D01*
X31402685Y-74439656D01*
X31468895Y-74420500D01*
X31630764Y-74420500D01*
X31630766Y-74420500D01*
X31777135Y-74381281D01*
X31908365Y-74305515D01*
X33260515Y-72953365D01*
X33336281Y-72822135D01*
X33375500Y-72675766D01*
X33375500Y-72524233D01*
X33375500Y-68920168D01*
X33689500Y-68920168D01*
X33689500Y-69079831D01*
X33720645Y-69236406D01*
X33720648Y-69236418D01*
X33781742Y-69383914D01*
X33781744Y-69383918D01*
X33870439Y-69516659D01*
X33870445Y-69516667D01*
X33983332Y-69629554D01*
X33983340Y-69629560D01*
X34116081Y-69718255D01*
X34116085Y-69718257D01*
X34263581Y-69779351D01*
X34263586Y-69779353D01*
X34420168Y-69810499D01*
X34420172Y-69810500D01*
X34420173Y-69810500D01*
X34579828Y-69810500D01*
X34579829Y-69810499D01*
X34736414Y-69779353D01*
X34883916Y-69718256D01*
X34883918Y-69718255D01*
X34970079Y-69660684D01*
X35016664Y-69629557D01*
X35129557Y-69516664D01*
X35218256Y-69383916D01*
X35279353Y-69236414D01*
X35310500Y-69079827D01*
X35310500Y-68920173D01*
X35279353Y-68763586D01*
X35259305Y-68715185D01*
X35218257Y-68616085D01*
X35218255Y-68616081D01*
X35129560Y-68483340D01*
X35129554Y-68483332D01*
X35016667Y-68370445D01*
X35016659Y-68370439D01*
X34883918Y-68281744D01*
X34883914Y-68281742D01*
X34736418Y-68220648D01*
X34736406Y-68220645D01*
X34579831Y-68189500D01*
X34579827Y-68189500D01*
X34420173Y-68189500D01*
X34420168Y-68189500D01*
X34263593Y-68220645D01*
X34263581Y-68220648D01*
X34116085Y-68281742D01*
X34116081Y-68281744D01*
X33983340Y-68370439D01*
X33983332Y-68370445D01*
X33870445Y-68483332D01*
X33870439Y-68483340D01*
X33781744Y-68616081D01*
X33781742Y-68616085D01*
X33720648Y-68763581D01*
X33720645Y-68763593D01*
X33689500Y-68920168D01*
X33375500Y-68920168D01*
X33375500Y-68524234D01*
X33336281Y-68377865D01*
X33260515Y-68246635D01*
X33153365Y-68139485D01*
X31898365Y-66884485D01*
X31832750Y-66846602D01*
X31767136Y-66808719D01*
X31693950Y-66789109D01*
X31620766Y-66769500D01*
X31620765Y-66769500D01*
X31218895Y-66769500D01*
X31151856Y-66749815D01*
X31106513Y-66697905D01*
X31080569Y-66642268D01*
X31049977Y-66598578D01*
X30950047Y-66455861D01*
X30950045Y-66455858D01*
X30789141Y-66294954D01*
X30602734Y-66164432D01*
X30602732Y-66164431D01*
X30396497Y-66068261D01*
X30396488Y-66068258D01*
X30176697Y-66009366D01*
X30176687Y-66009364D01*
X30006785Y-65994500D01*
X30006784Y-65994500D01*
X29014742Y-65994500D01*
X28947703Y-65974815D01*
X28927061Y-65958181D01*
X28411819Y-65442939D01*
X28378334Y-65381616D01*
X28375500Y-65355258D01*
X28375500Y-63664000D01*
X28395185Y-63596961D01*
X28447989Y-63551206D01*
X28499500Y-63540000D01*
X29250000Y-63540000D01*
X29750000Y-63540000D01*
X30747828Y-63540000D01*
X30747844Y-63539999D01*
X30807372Y-63533598D01*
X30807379Y-63533596D01*
X30942086Y-63483354D01*
X30942093Y-63483350D01*
X31057187Y-63397190D01*
X31057190Y-63397187D01*
X31143350Y-63282093D01*
X31143354Y-63282086D01*
X31193596Y-63147379D01*
X31193598Y-63147372D01*
X31199999Y-63087844D01*
X31200000Y-63087827D01*
X31200000Y-62290000D01*
X29750000Y-62290000D01*
X29750000Y-63540000D01*
X29250000Y-63540000D01*
X29250000Y-62164000D01*
X29269685Y-62096961D01*
X29322489Y-62051206D01*
X29374000Y-62040000D01*
X29500000Y-62040000D01*
X29500000Y-61914000D01*
X29519685Y-61846961D01*
X29572489Y-61801206D01*
X29624000Y-61790000D01*
X31200000Y-61790000D01*
X31200000Y-60992172D01*
X31199999Y-60992155D01*
X31193598Y-60932627D01*
X31193596Y-60932620D01*
X31143354Y-60797913D01*
X31143350Y-60797906D01*
X31057190Y-60682812D01*
X31050918Y-60676540D01*
X31052140Y-60675317D01*
X31016595Y-60627839D01*
X31011606Y-60558148D01*
X31045088Y-60496823D01*
X31106409Y-60463334D01*
X31132773Y-60460499D01*
X31147872Y-60460499D01*
X31207483Y-60454091D01*
X31342331Y-60403796D01*
X31457546Y-60317546D01*
X31543796Y-60202331D01*
X31594091Y-60067483D01*
X31600500Y-60007873D01*
X31600499Y-59512128D01*
X31594091Y-59452517D01*
X31543796Y-59317669D01*
X31543794Y-59317666D01*
X31540696Y-59309360D01*
X31542426Y-59308714D01*
X31529902Y-59251163D01*
X31536510Y-59219147D01*
X31541139Y-59205879D01*
X31543796Y-59202331D01*
X31594091Y-59067483D01*
X31596165Y-59048183D01*
X31600856Y-59034743D01*
X31613239Y-59017445D01*
X31621381Y-58997790D01*
X31633172Y-58989602D01*
X31641528Y-58977932D01*
X31661297Y-58970075D01*
X31678773Y-58957942D01*
X31693118Y-58957429D01*
X31706459Y-58952128D01*
X31727339Y-58956207D01*
X31748598Y-58955448D01*
X31765383Y-58961034D01*
X31795672Y-58973580D01*
X31795676Y-58973580D01*
X31795677Y-58973581D01*
X31931004Y-59000500D01*
X31931007Y-59000500D01*
X32068995Y-59000500D01*
X32160041Y-58982389D01*
X32204328Y-58973580D01*
X32331811Y-58920775D01*
X32446542Y-58844114D01*
X32544114Y-58746542D01*
X32620775Y-58631811D01*
X32633098Y-58602061D01*
X32643459Y-58577048D01*
X32687300Y-58522644D01*
X32753594Y-58500579D01*
X32758020Y-58500500D01*
X32768995Y-58500500D01*
X32860041Y-58482389D01*
X32904328Y-58473580D01*
X33031811Y-58420775D01*
X33146542Y-58344114D01*
X33191171Y-58299485D01*
X33248422Y-58242235D01*
X33249818Y-58243631D01*
X33300035Y-58209412D01*
X33369879Y-58207530D01*
X33425844Y-58239724D01*
X34588181Y-59402061D01*
X34621666Y-59463384D01*
X34624500Y-59489742D01*
X34624500Y-62744234D01*
X34624500Y-62895766D01*
X34639457Y-62951588D01*
X34663719Y-63042136D01*
X34685520Y-63079896D01*
X34739485Y-63173365D01*
X34739487Y-63173367D01*
X37064911Y-65498791D01*
X37098396Y-65560114D01*
X37095162Y-65624788D01*
X37072753Y-65693757D01*
X37045293Y-65867135D01*
X37039500Y-65903713D01*
X37039500Y-66116287D01*
X37049534Y-66179644D01*
X37072753Y-66326239D01*
X37138444Y-66528414D01*
X37234951Y-66717820D01*
X37359890Y-66889786D01*
X37510213Y-67040109D01*
X37682179Y-67165048D01*
X37682181Y-67165049D01*
X37682184Y-67165051D01*
X37691493Y-67169794D01*
X37742290Y-67217766D01*
X37759087Y-67285587D01*
X37736552Y-67351722D01*
X37691502Y-67390762D01*
X37682443Y-67395378D01*
X37510540Y-67520272D01*
X37510535Y-67520276D01*
X37360276Y-67670535D01*
X37360272Y-67670540D01*
X37235379Y-67842442D01*
X37138904Y-68031782D01*
X37073242Y-68233870D01*
X37073242Y-68233873D01*
X37062769Y-68300000D01*
X37956988Y-68300000D01*
X37924075Y-68357007D01*
X37890000Y-68484174D01*
X37890000Y-68615826D01*
X37924075Y-68742993D01*
X37956988Y-68800000D01*
X37062769Y-68800000D01*
X37073242Y-68866126D01*
X37073242Y-68866129D01*
X37138904Y-69068217D01*
X37235379Y-69257557D01*
X37360272Y-69429459D01*
X37360276Y-69429464D01*
X37510535Y-69579723D01*
X37510540Y-69579727D01*
X37682444Y-69704622D01*
X37691495Y-69709234D01*
X37742292Y-69757208D01*
X37759087Y-69825029D01*
X37736550Y-69891164D01*
X37691499Y-69930202D01*
X37682182Y-69934949D01*
X37510213Y-70059890D01*
X37359890Y-70210213D01*
X37234951Y-70382179D01*
X37138444Y-70571585D01*
X37072753Y-70773760D01*
X37047402Y-70933820D01*
X37039500Y-70983713D01*
X37039500Y-71196287D01*
X37044069Y-71225134D01*
X37051778Y-71273810D01*
X37072754Y-71406243D01*
X37115370Y-71537402D01*
X37138444Y-71608414D01*
X37234951Y-71797820D01*
X37359890Y-71969786D01*
X37510213Y-72120109D01*
X37682182Y-72245050D01*
X37690946Y-72249516D01*
X37741742Y-72297491D01*
X37758536Y-72365312D01*
X37735998Y-72431447D01*
X37690946Y-72470484D01*
X37682182Y-72474949D01*
X37510213Y-72599890D01*
X37359890Y-72750213D01*
X37234951Y-72922179D01*
X37138444Y-73111585D01*
X37072753Y-73313760D01*
X37039500Y-73523713D01*
X37039500Y-73736286D01*
X37067301Y-73911819D01*
X37072754Y-73946243D01*
X37135769Y-74140183D01*
X37138444Y-74148414D01*
X37234951Y-74337820D01*
X37359890Y-74509786D01*
X37510213Y-74660109D01*
X37682179Y-74785048D01*
X37682181Y-74785049D01*
X37682184Y-74785051D01*
X37871588Y-74881557D01*
X38073757Y-74947246D01*
X38283713Y-74980500D01*
X38283714Y-74980500D01*
X38496286Y-74980500D01*
X38496287Y-74980500D01*
X38706243Y-74947246D01*
X38908412Y-74881557D01*
X39097816Y-74785051D01*
X39119789Y-74769086D01*
X39269786Y-74660109D01*
X39269788Y-74660106D01*
X39269792Y-74660104D01*
X39420104Y-74509792D01*
X39420106Y-74509788D01*
X39420109Y-74509786D01*
X39545048Y-74337820D01*
X39545047Y-74337820D01*
X39545051Y-74337816D01*
X39641557Y-74148412D01*
X39707246Y-73946243D01*
X39740500Y-73736287D01*
X39740500Y-73523713D01*
X39707246Y-73313757D01*
X39641557Y-73111588D01*
X39545051Y-72922184D01*
X39545049Y-72922181D01*
X39545048Y-72922179D01*
X39420109Y-72750213D01*
X39269786Y-72599890D01*
X39097820Y-72474951D01*
X39097115Y-72474591D01*
X39089054Y-72470485D01*
X39038259Y-72422512D01*
X39021463Y-72354692D01*
X39043999Y-72288556D01*
X39089054Y-72249515D01*
X39097816Y-72245051D01*
X39119789Y-72229086D01*
X39269786Y-72120109D01*
X39269788Y-72120106D01*
X39269792Y-72120104D01*
X39420104Y-71969792D01*
X39420106Y-71969788D01*
X39420109Y-71969786D01*
X39545048Y-71797820D01*
X39545047Y-71797820D01*
X39545051Y-71797816D01*
X39641557Y-71608412D01*
X39707246Y-71406243D01*
X39740500Y-71196287D01*
X39740500Y-70983713D01*
X39707246Y-70773757D01*
X39641557Y-70571588D01*
X39545051Y-70382184D01*
X39545049Y-70382181D01*
X39545048Y-70382179D01*
X39420109Y-70210213D01*
X39269786Y-70059890D01*
X39097817Y-69934949D01*
X39088504Y-69930204D01*
X39037707Y-69882230D01*
X39020912Y-69814409D01*
X39043449Y-69748274D01*
X39088507Y-69709232D01*
X39097558Y-69704620D01*
X39269459Y-69579727D01*
X39269464Y-69579723D01*
X39419723Y-69429464D01*
X39419727Y-69429459D01*
X39544620Y-69257557D01*
X39641095Y-69068217D01*
X39706757Y-68866129D01*
X39706757Y-68866126D01*
X39717231Y-68800000D01*
X38823012Y-68800000D01*
X38855925Y-68742993D01*
X38890000Y-68615826D01*
X38890000Y-68484174D01*
X38855925Y-68357007D01*
X38823012Y-68300000D01*
X39717231Y-68300000D01*
X39706757Y-68233873D01*
X39706757Y-68233870D01*
X39641095Y-68031782D01*
X39544620Y-67842442D01*
X39419727Y-67670540D01*
X39419723Y-67670535D01*
X39269464Y-67520276D01*
X39269459Y-67520272D01*
X39097555Y-67395377D01*
X39088500Y-67390763D01*
X39037706Y-67342788D01*
X39020912Y-67274966D01*
X39043451Y-67208832D01*
X39088508Y-67169793D01*
X39097816Y-67165051D01*
X39230967Y-67068312D01*
X39269786Y-67040109D01*
X39269788Y-67040106D01*
X39269792Y-67040104D01*
X39420104Y-66889792D01*
X39420106Y-66889788D01*
X39420109Y-66889786D01*
X39545048Y-66717820D01*
X39545049Y-66717819D01*
X39545051Y-66717816D01*
X39641557Y-66528412D01*
X39707246Y-66326243D01*
X39740500Y-66116287D01*
X39740500Y-65903713D01*
X39707246Y-65693757D01*
X39641557Y-65491588D01*
X39545051Y-65302184D01*
X39545049Y-65302181D01*
X39545048Y-65302179D01*
X39420109Y-65130213D01*
X39269786Y-64979890D01*
X39097820Y-64854951D01*
X39097115Y-64854591D01*
X39089054Y-64850485D01*
X39038259Y-64802512D01*
X39021463Y-64734692D01*
X39043999Y-64668556D01*
X39089054Y-64629515D01*
X39097816Y-64625051D01*
X39119789Y-64609086D01*
X39269786Y-64500109D01*
X39269788Y-64500106D01*
X39269792Y-64500104D01*
X39420104Y-64349792D01*
X39420106Y-64349788D01*
X39420109Y-64349786D01*
X39545050Y-64177818D01*
X39577972Y-64113205D01*
X39641557Y-63988412D01*
X39707246Y-63786243D01*
X39740500Y-63576287D01*
X39740500Y-63363713D01*
X39707246Y-63153757D01*
X39641557Y-62951588D01*
X39545051Y-62762184D01*
X39545049Y-62762181D01*
X39545048Y-62762179D01*
X39420109Y-62590213D01*
X39269786Y-62439890D01*
X39097820Y-62314951D01*
X39097115Y-62314591D01*
X39089054Y-62310485D01*
X39038259Y-62262512D01*
X39021463Y-62194692D01*
X39043999Y-62128556D01*
X39089054Y-62089515D01*
X39097816Y-62085051D01*
X39171087Y-62031817D01*
X39269786Y-61960109D01*
X39269788Y-61960106D01*
X39269792Y-61960104D01*
X39420104Y-61809792D01*
X39420106Y-61809788D01*
X39420109Y-61809786D01*
X39545048Y-61637820D01*
X39545049Y-61637819D01*
X39545051Y-61637816D01*
X39641557Y-61448412D01*
X39707246Y-61246243D01*
X39740500Y-61036287D01*
X39740500Y-60823713D01*
X39707246Y-60613757D01*
X39641557Y-60411588D01*
X39545051Y-60222184D01*
X39545049Y-60222181D01*
X39545048Y-60222179D01*
X39420109Y-60050213D01*
X39269786Y-59899890D01*
X39097820Y-59774951D01*
X39097115Y-59774591D01*
X39089054Y-59770485D01*
X39038259Y-59722512D01*
X39021463Y-59654692D01*
X39043999Y-59588556D01*
X39089054Y-59549515D01*
X39097816Y-59545051D01*
X39225178Y-59452518D01*
X39269786Y-59420109D01*
X39269788Y-59420106D01*
X39269792Y-59420104D01*
X39420104Y-59269792D01*
X39420106Y-59269788D01*
X39420109Y-59269786D01*
X39545048Y-59097820D01*
X39545049Y-59097819D01*
X39545051Y-59097816D01*
X39641557Y-58908412D01*
X39707246Y-58706243D01*
X39740500Y-58496287D01*
X39740500Y-58283713D01*
X39707246Y-58073757D01*
X39641557Y-57871588D01*
X39545051Y-57682184D01*
X39545049Y-57682181D01*
X39545048Y-57682179D01*
X39420109Y-57510213D01*
X39269786Y-57359890D01*
X39097817Y-57234949D01*
X39088504Y-57230204D01*
X39037707Y-57182230D01*
X39020912Y-57114409D01*
X39043449Y-57048274D01*
X39088507Y-57009232D01*
X39097558Y-57004620D01*
X39269459Y-56879727D01*
X39269464Y-56879723D01*
X39419723Y-56729464D01*
X39419727Y-56729459D01*
X39544620Y-56557557D01*
X39641095Y-56368217D01*
X39706757Y-56166129D01*
X39706757Y-56166126D01*
X39717231Y-56100000D01*
X38823012Y-56100000D01*
X38855925Y-56042993D01*
X38890000Y-55915826D01*
X38890000Y-55784174D01*
X38855925Y-55657007D01*
X38823012Y-55600000D01*
X39717231Y-55600000D01*
X39706757Y-55533873D01*
X39706757Y-55533870D01*
X39641095Y-55331782D01*
X39544620Y-55142442D01*
X39419727Y-54970540D01*
X39419723Y-54970535D01*
X39269464Y-54820276D01*
X39269459Y-54820272D01*
X39097555Y-54695377D01*
X39088500Y-54690763D01*
X39037706Y-54642788D01*
X39020912Y-54574966D01*
X39043451Y-54508832D01*
X39088508Y-54469793D01*
X39097816Y-54465051D01*
X39249035Y-54355185D01*
X39269786Y-54340109D01*
X39269788Y-54340106D01*
X39269792Y-54340104D01*
X39420104Y-54189792D01*
X39420106Y-54189788D01*
X39420109Y-54189786D01*
X39545048Y-54017820D01*
X39545047Y-54017820D01*
X39545051Y-54017816D01*
X39641557Y-53828412D01*
X39707246Y-53626243D01*
X39740500Y-53416287D01*
X39740500Y-53203713D01*
X39707246Y-52993757D01*
X39641557Y-52791588D01*
X39545051Y-52602184D01*
X39545049Y-52602181D01*
X39545048Y-52602179D01*
X39420109Y-52430213D01*
X39269786Y-52279890D01*
X39097820Y-52154951D01*
X39097115Y-52154591D01*
X39089054Y-52150485D01*
X39038259Y-52102512D01*
X39021463Y-52034692D01*
X39043999Y-51968556D01*
X39089054Y-51929515D01*
X39097816Y-51925051D01*
X39119789Y-51909086D01*
X39269786Y-51800109D01*
X39269788Y-51800106D01*
X39269792Y-51800104D01*
X39420104Y-51649792D01*
X39420106Y-51649788D01*
X39420109Y-51649786D01*
X39545048Y-51477820D01*
X39545047Y-51477820D01*
X39545051Y-51477816D01*
X39641557Y-51288412D01*
X39707246Y-51086243D01*
X39740500Y-50876287D01*
X39740500Y-50663713D01*
X39707246Y-50453757D01*
X39641557Y-50251588D01*
X39545051Y-50062184D01*
X39545049Y-50062181D01*
X39545048Y-50062179D01*
X39420109Y-49890213D01*
X39269786Y-49739890D01*
X39097820Y-49614951D01*
X39097115Y-49614591D01*
X39089054Y-49610485D01*
X39038259Y-49562512D01*
X39021463Y-49494692D01*
X39043999Y-49428556D01*
X39089054Y-49389515D01*
X39097816Y-49385051D01*
X39170322Y-49332373D01*
X39269786Y-49260109D01*
X39269788Y-49260106D01*
X39269792Y-49260104D01*
X39420104Y-49109792D01*
X39420106Y-49109788D01*
X39420109Y-49109786D01*
X39545048Y-48937820D01*
X39545047Y-48937820D01*
X39545051Y-48937816D01*
X39641557Y-48748412D01*
X39707246Y-48546243D01*
X39740500Y-48336287D01*
X39740500Y-48123713D01*
X39707246Y-47913757D01*
X39641557Y-47711588D01*
X39545051Y-47522184D01*
X39545049Y-47522181D01*
X39545048Y-47522179D01*
X39420109Y-47350213D01*
X39269786Y-47199890D01*
X39097820Y-47074951D01*
X39097115Y-47074591D01*
X39089054Y-47070485D01*
X39038259Y-47022512D01*
X39021463Y-46954692D01*
X39043999Y-46888556D01*
X39089054Y-46849515D01*
X39097816Y-46845051D01*
X39119789Y-46829086D01*
X39269786Y-46720109D01*
X39269788Y-46720106D01*
X39269792Y-46720104D01*
X39420104Y-46569792D01*
X39420106Y-46569788D01*
X39420109Y-46569786D01*
X39545048Y-46397820D01*
X39545047Y-46397820D01*
X39545051Y-46397816D01*
X39641557Y-46208412D01*
X39707246Y-46006243D01*
X39740500Y-45796287D01*
X39740500Y-45583713D01*
X39707246Y-45373757D01*
X39641557Y-45171588D01*
X39545051Y-44982184D01*
X39545049Y-44982181D01*
X39545048Y-44982179D01*
X39420109Y-44810213D01*
X39269786Y-44659890D01*
X39097817Y-44534949D01*
X39088504Y-44530204D01*
X39037707Y-44482230D01*
X39020912Y-44414409D01*
X39043449Y-44348274D01*
X39088507Y-44309232D01*
X39097558Y-44304620D01*
X39269459Y-44179727D01*
X39269464Y-44179723D01*
X39419723Y-44029464D01*
X39419727Y-44029459D01*
X39544620Y-43857557D01*
X39641095Y-43668217D01*
X39706757Y-43466129D01*
X39706757Y-43466126D01*
X39717231Y-43400000D01*
X38823012Y-43400000D01*
X38855925Y-43342993D01*
X38890000Y-43215826D01*
X38890000Y-43084174D01*
X38855925Y-42957007D01*
X38823012Y-42900000D01*
X39717231Y-42900000D01*
X39706757Y-42833873D01*
X39706757Y-42833870D01*
X39641095Y-42631782D01*
X39544620Y-42442442D01*
X39419727Y-42270540D01*
X39419723Y-42270535D01*
X39269464Y-42120276D01*
X39269459Y-42120272D01*
X39097555Y-41995377D01*
X39088500Y-41990763D01*
X39037706Y-41942788D01*
X39020912Y-41874966D01*
X39043451Y-41808832D01*
X39088508Y-41769793D01*
X39097816Y-41765051D01*
X39177007Y-41707515D01*
X39269786Y-41640109D01*
X39269788Y-41640106D01*
X39269792Y-41640104D01*
X39420104Y-41489792D01*
X39420106Y-41489788D01*
X39420109Y-41489786D01*
X39545048Y-41317820D01*
X39545047Y-41317820D01*
X39545051Y-41317816D01*
X39641557Y-41128412D01*
X39707246Y-40926243D01*
X39740500Y-40716287D01*
X39740500Y-40503713D01*
X39707246Y-40293757D01*
X39641557Y-40091588D01*
X39545051Y-39902184D01*
X39545049Y-39902181D01*
X39545048Y-39902179D01*
X39420109Y-39730213D01*
X39269786Y-39579890D01*
X39097820Y-39454951D01*
X39097115Y-39454591D01*
X39089054Y-39450485D01*
X39038259Y-39402512D01*
X39021463Y-39334692D01*
X39043999Y-39268556D01*
X39089054Y-39229515D01*
X39097816Y-39225051D01*
X39119789Y-39209086D01*
X39269786Y-39100109D01*
X39269788Y-39100106D01*
X39269792Y-39100104D01*
X39420104Y-38949792D01*
X39420106Y-38949788D01*
X39420109Y-38949786D01*
X39545048Y-38777820D01*
X39545047Y-38777820D01*
X39545051Y-38777816D01*
X39641557Y-38588412D01*
X39707246Y-38386243D01*
X39740500Y-38176287D01*
X39740500Y-37963713D01*
X39707246Y-37753757D01*
X39641557Y-37551588D01*
X39545051Y-37362184D01*
X39545049Y-37362181D01*
X39545048Y-37362179D01*
X39420109Y-37190213D01*
X39269786Y-37039890D01*
X39097820Y-36914951D01*
X39097115Y-36914591D01*
X39089054Y-36910485D01*
X39038259Y-36862512D01*
X39021463Y-36794692D01*
X39043999Y-36728556D01*
X39089054Y-36689515D01*
X39097816Y-36685051D01*
X39119789Y-36669086D01*
X39269786Y-36560109D01*
X39269788Y-36560106D01*
X39269792Y-36560104D01*
X39420104Y-36409792D01*
X39420106Y-36409788D01*
X39420109Y-36409786D01*
X39545048Y-36237820D01*
X39545047Y-36237820D01*
X39545051Y-36237816D01*
X39641557Y-36048412D01*
X39707246Y-35846243D01*
X39740500Y-35636287D01*
X39740500Y-35423713D01*
X39707246Y-35213757D01*
X39641557Y-35011588D01*
X39545051Y-34822184D01*
X39545049Y-34822181D01*
X39545048Y-34822179D01*
X39420109Y-34650213D01*
X39269786Y-34499890D01*
X39097820Y-34374951D01*
X39097115Y-34374591D01*
X39089054Y-34370485D01*
X39038259Y-34322512D01*
X39021463Y-34254692D01*
X39043999Y-34188556D01*
X39089054Y-34149515D01*
X39097816Y-34145051D01*
X39119789Y-34129086D01*
X39269786Y-34020109D01*
X39269788Y-34020106D01*
X39269792Y-34020104D01*
X39420104Y-33869792D01*
X39420106Y-33869788D01*
X39420109Y-33869786D01*
X39545048Y-33697820D01*
X39545047Y-33697820D01*
X39545051Y-33697816D01*
X39641557Y-33508412D01*
X39707246Y-33306243D01*
X39740500Y-33096287D01*
X39740500Y-32883713D01*
X39707246Y-32673757D01*
X39641557Y-32471588D01*
X39545051Y-32282184D01*
X39545049Y-32282181D01*
X39545048Y-32282179D01*
X39420109Y-32110213D01*
X39269786Y-31959890D01*
X39097817Y-31834949D01*
X39088504Y-31830204D01*
X39037707Y-31782230D01*
X39020912Y-31714409D01*
X39043449Y-31648274D01*
X39088507Y-31609232D01*
X39097558Y-31604620D01*
X39269459Y-31479727D01*
X39269464Y-31479723D01*
X39419723Y-31329464D01*
X39419727Y-31329459D01*
X39544620Y-31157557D01*
X39641095Y-30968217D01*
X39706757Y-30766129D01*
X39706757Y-30766126D01*
X39717231Y-30700000D01*
X38823012Y-30700000D01*
X38855925Y-30642993D01*
X38890000Y-30515826D01*
X38890000Y-30384174D01*
X38855925Y-30257007D01*
X38823012Y-30200000D01*
X39717231Y-30200000D01*
X39706757Y-30133873D01*
X39706757Y-30133870D01*
X39641095Y-29931782D01*
X39544620Y-29742442D01*
X39419727Y-29570540D01*
X39419723Y-29570535D01*
X39269464Y-29420276D01*
X39269459Y-29420272D01*
X39097555Y-29295377D01*
X39088500Y-29290763D01*
X39037706Y-29242788D01*
X39020912Y-29174966D01*
X39043451Y-29108832D01*
X39088508Y-29069793D01*
X39097816Y-29065051D01*
X39177007Y-29007515D01*
X39269786Y-28940109D01*
X39269788Y-28940106D01*
X39269792Y-28940104D01*
X39420104Y-28789792D01*
X39420106Y-28789788D01*
X39420109Y-28789786D01*
X39545048Y-28617820D01*
X39545047Y-28617820D01*
X39545051Y-28617816D01*
X39641557Y-28428412D01*
X39707246Y-28226243D01*
X39740500Y-28016287D01*
X39740500Y-27803713D01*
X39707246Y-27593757D01*
X39641557Y-27391588D01*
X39545051Y-27202184D01*
X39545049Y-27202181D01*
X39545048Y-27202179D01*
X39420109Y-27030213D01*
X39306569Y-26916673D01*
X39273084Y-26855350D01*
X39278068Y-26785658D01*
X39319940Y-26729725D01*
X39350915Y-26712810D01*
X39482331Y-26663796D01*
X39597546Y-26577546D01*
X39683796Y-26462331D01*
X39734091Y-26327483D01*
X39740500Y-26267873D01*
X39740499Y-24472128D01*
X39734091Y-24412517D01*
X39692291Y-24300446D01*
X39683797Y-24277671D01*
X39683793Y-24277664D01*
X39597547Y-24162455D01*
X39597544Y-24162452D01*
X39482335Y-24076206D01*
X39482328Y-24076202D01*
X39347482Y-24025908D01*
X39347483Y-24025908D01*
X39287883Y-24019501D01*
X39287881Y-24019500D01*
X39287873Y-24019500D01*
X39287865Y-24019500D01*
X37871976Y-24019500D01*
X37809976Y-24002887D01*
X37795629Y-23994604D01*
X37742135Y-23963719D01*
X37595766Y-23924500D01*
X37595765Y-23924500D01*
X30592115Y-23924500D01*
X30525076Y-23904815D01*
X30479321Y-23852011D01*
X30475933Y-23843833D01*
X30443797Y-23757671D01*
X30443793Y-23757664D01*
X30357547Y-23642455D01*
X30357544Y-23642452D01*
X30242335Y-23556206D01*
X30242328Y-23556202D01*
X30107482Y-23505908D01*
X30107483Y-23505908D01*
X30047883Y-23499501D01*
X30047881Y-23499500D01*
X30047873Y-23499500D01*
X30047864Y-23499500D01*
X28952129Y-23499500D01*
X28952123Y-23499501D01*
X28892516Y-23505908D01*
X28757671Y-23556202D01*
X28757666Y-23556205D01*
X28745418Y-23565374D01*
X28679953Y-23589789D01*
X28623657Y-23580666D01*
X28521686Y-23538428D01*
X28521682Y-23538427D01*
X28479999Y-23530135D01*
X28479999Y-24290382D01*
X28429553Y-24239936D01*
X28355444Y-24197149D01*
X28272786Y-24175000D01*
X28187212Y-24175000D01*
X28104554Y-24197149D01*
X28030445Y-24239936D01*
X27969935Y-24300446D01*
X27927148Y-24374555D01*
X27904999Y-24457213D01*
X27904999Y-24542787D01*
X27927148Y-24625445D01*
X27969935Y-24699554D01*
X28020381Y-24750000D01*
X27260137Y-24750000D01*
X27268429Y-24791692D01*
X27268431Y-24791699D01*
X27310664Y-24893659D01*
X27318133Y-24963128D01*
X27295374Y-25015416D01*
X27286203Y-25027667D01*
X27286201Y-25027671D01*
X27235907Y-25162517D01*
X27229500Y-25222116D01*
X27229499Y-25222135D01*
X27229499Y-26317870D01*
X27229500Y-26317876D01*
X27235907Y-26377483D01*
X27286201Y-26512328D01*
X27286205Y-26512335D01*
X27372451Y-26627544D01*
X27372454Y-26627547D01*
X27487663Y-26713793D01*
X27487670Y-26713797D01*
X27622516Y-26764091D01*
X27622515Y-26764091D01*
X27629443Y-26764835D01*
X27682126Y-26770500D01*
X28777871Y-26770499D01*
X28837482Y-26764091D01*
X28972330Y-26713796D01*
X28984110Y-26704976D01*
X29049573Y-26680558D01*
X29105874Y-26689680D01*
X29208165Y-26732051D01*
X29208169Y-26732051D01*
X29208170Y-26732052D01*
X29401456Y-26770500D01*
X29401459Y-26770500D01*
X29598543Y-26770500D01*
X29728582Y-26744632D01*
X29791835Y-26732051D01*
X29956616Y-26663797D01*
X29973907Y-26656635D01*
X29973907Y-26656634D01*
X29973914Y-26656632D01*
X29973919Y-26656628D01*
X29973922Y-26656627D01*
X30019538Y-26626146D01*
X30066107Y-26595029D01*
X30132784Y-26574151D01*
X30200165Y-26592635D01*
X30203874Y-26595018D01*
X30296085Y-26656632D01*
X30296086Y-26656632D01*
X30296087Y-26656633D01*
X30434804Y-26714091D01*
X30478164Y-26732051D01*
X30478168Y-26732051D01*
X30478169Y-26732052D01*
X30671455Y-26770500D01*
X30671458Y-26770500D01*
X30868542Y-26770500D01*
X30998581Y-26744632D01*
X31061834Y-26732051D01*
X31226615Y-26663797D01*
X31243906Y-26656635D01*
X31243906Y-26656634D01*
X31243913Y-26656632D01*
X31407781Y-26547139D01*
X31547138Y-26407782D01*
X31656631Y-26243914D01*
X31732050Y-26061835D01*
X31770499Y-25868541D01*
X31770499Y-25671459D01*
X31770499Y-25671456D01*
X31732051Y-25478170D01*
X31732050Y-25478169D01*
X31732050Y-25478165D01*
X31732048Y-25478160D01*
X31656634Y-25296092D01*
X31656630Y-25296085D01*
X31638126Y-25268392D01*
X31617248Y-25201715D01*
X31635732Y-25134334D01*
X31687710Y-25087644D01*
X31741228Y-25075500D01*
X36915500Y-25075500D01*
X36982539Y-25095185D01*
X37028294Y-25147989D01*
X37039500Y-25199500D01*
X37039500Y-26267870D01*
X37039501Y-26267876D01*
X37045908Y-26327483D01*
X37096202Y-26462328D01*
X37096206Y-26462335D01*
X37182452Y-26577544D01*
X37182455Y-26577547D01*
X37297664Y-26663793D01*
X37297671Y-26663797D01*
X37429082Y-26712810D01*
X37485016Y-26754681D01*
X37509433Y-26820145D01*
X37494582Y-26888418D01*
X37473431Y-26916673D01*
X37359889Y-27030215D01*
X37234951Y-27202179D01*
X37138444Y-27391585D01*
X37072753Y-27593760D01*
X37039500Y-27803713D01*
X37039500Y-28016286D01*
X37071867Y-28220648D01*
X37072754Y-28226243D01*
X37125867Y-28389708D01*
X37138444Y-28428414D01*
X37234951Y-28617820D01*
X37359890Y-28789786D01*
X37510213Y-28940109D01*
X37682179Y-29065048D01*
X37682181Y-29065049D01*
X37682184Y-29065051D01*
X37691493Y-29069794D01*
X37742290Y-29117766D01*
X37759087Y-29185587D01*
X37736552Y-29251722D01*
X37691502Y-29290762D01*
X37682443Y-29295378D01*
X37510540Y-29420272D01*
X37510535Y-29420276D01*
X37360276Y-29570535D01*
X37360272Y-29570540D01*
X37235379Y-29742442D01*
X37138904Y-29931782D01*
X37073242Y-30133870D01*
X37073242Y-30133873D01*
X37062769Y-30200000D01*
X37956988Y-30200000D01*
X37924075Y-30257007D01*
X37890000Y-30384174D01*
X37890000Y-30515826D01*
X37924075Y-30642993D01*
X37956988Y-30700000D01*
X37062769Y-30700000D01*
X37073242Y-30766126D01*
X37073242Y-30766129D01*
X37138904Y-30968217D01*
X37235379Y-31157557D01*
X37360272Y-31329459D01*
X37360276Y-31329464D01*
X37510535Y-31479723D01*
X37510540Y-31479727D01*
X37682444Y-31604622D01*
X37691495Y-31609234D01*
X37742292Y-31657208D01*
X37759087Y-31725029D01*
X37736550Y-31791164D01*
X37691499Y-31830202D01*
X37682182Y-31834949D01*
X37510213Y-31959890D01*
X37359890Y-32110213D01*
X37234951Y-32282179D01*
X37138444Y-32471585D01*
X37072753Y-32673760D01*
X37039500Y-32883713D01*
X37039500Y-33096286D01*
X37072753Y-33306239D01*
X37138444Y-33508414D01*
X37234951Y-33697820D01*
X37359890Y-33869786D01*
X37510213Y-34020109D01*
X37682182Y-34145050D01*
X37690946Y-34149516D01*
X37741742Y-34197491D01*
X37758536Y-34265312D01*
X37735998Y-34331447D01*
X37690946Y-34370484D01*
X37682182Y-34374949D01*
X37510213Y-34499890D01*
X37359890Y-34650213D01*
X37234951Y-34822179D01*
X37138444Y-35011585D01*
X37072753Y-35213760D01*
X37039500Y-35423713D01*
X37039500Y-35636286D01*
X37072754Y-35846246D01*
X37095161Y-35915209D01*
X37097156Y-35985050D01*
X37064911Y-36041207D01*
X32546635Y-40559485D01*
X32439487Y-40666632D01*
X32439485Y-40666635D01*
X32363719Y-40797863D01*
X32324500Y-40944234D01*
X32324500Y-50410256D01*
X32315855Y-50439693D01*
X32309332Y-50469684D01*
X32305576Y-50474700D01*
X32304815Y-50477295D01*
X32288181Y-50497938D01*
X32202194Y-50583924D01*
X32140870Y-50617408D01*
X32138706Y-50617859D01*
X32095675Y-50626418D01*
X32095669Y-50626420D01*
X31968195Y-50679221D01*
X31968182Y-50679228D01*
X31853458Y-50755885D01*
X31853454Y-50755888D01*
X31755888Y-50853454D01*
X31755885Y-50853458D01*
X31679228Y-50968182D01*
X31679221Y-50968195D01*
X31626420Y-51095669D01*
X31626419Y-51095673D01*
X31624436Y-51105644D01*
X31610897Y-51131522D01*
X31599908Y-51158583D01*
X31594892Y-51162117D01*
X31592048Y-51167554D01*
X31566671Y-51182003D01*
X31542794Y-51198829D01*
X31536662Y-51199090D01*
X31531332Y-51202126D01*
X31502171Y-51200562D01*
X31472988Y-51201807D01*
X31466305Y-51198638D01*
X31461562Y-51198384D01*
X31440287Y-51188527D01*
X31434170Y-51184955D01*
X31342331Y-51116204D01*
X31270681Y-51089480D01*
X31261468Y-51084100D01*
X31244509Y-51066136D01*
X31224733Y-51051332D01*
X31220945Y-51041177D01*
X31213504Y-51033295D01*
X31208948Y-51009012D01*
X31200316Y-50985868D01*
X31200000Y-50977022D01*
X31200000Y-50210000D01*
X29624000Y-50210000D01*
X29556961Y-50190315D01*
X29511206Y-50137511D01*
X29500000Y-50086000D01*
X29500000Y-49960000D01*
X29374000Y-49960000D01*
X29306961Y-49940315D01*
X29261206Y-49887511D01*
X29250000Y-49836000D01*
X29250000Y-49710000D01*
X29750000Y-49710000D01*
X31200000Y-49710000D01*
X31200000Y-48912172D01*
X31199999Y-48912155D01*
X31193598Y-48852627D01*
X31193596Y-48852620D01*
X31143354Y-48717913D01*
X31143350Y-48717906D01*
X31057190Y-48602812D01*
X31057187Y-48602809D01*
X30942093Y-48516649D01*
X30942086Y-48516645D01*
X30807379Y-48466403D01*
X30807372Y-48466401D01*
X30747844Y-48460000D01*
X29750000Y-48460000D01*
X29750000Y-49710000D01*
X29250000Y-49710000D01*
X29250000Y-48460000D01*
X28252155Y-48460000D01*
X28192627Y-48466401D01*
X28192620Y-48466403D01*
X28057913Y-48516645D01*
X28057910Y-48516647D01*
X27973811Y-48579604D01*
X27908347Y-48604021D01*
X27840074Y-48589169D01*
X27790668Y-48539764D01*
X27775500Y-48480337D01*
X27775500Y-47899237D01*
X27775500Y-47899235D01*
X27736281Y-47752866D01*
X27660515Y-47621636D01*
X27553365Y-47514486D01*
X25766818Y-45727939D01*
X25733333Y-45666616D01*
X25730499Y-45640258D01*
X25730499Y-44750000D01*
X25730499Y-44749999D01*
X25725354Y-44678060D01*
X25684818Y-44540008D01*
X25619546Y-44438443D01*
X25607031Y-44418969D01*
X25607027Y-44418965D01*
X25498298Y-44324750D01*
X25498296Y-44324748D01*
X25498293Y-44324746D01*
X25498289Y-44324744D01*
X25367418Y-44264976D01*
X25367413Y-44264975D01*
X25224999Y-44244500D01*
X24224999Y-44244500D01*
X24224983Y-44244500D01*
X24161478Y-44248506D01*
X24161475Y-44248507D01*
X24114887Y-44261339D01*
X24064314Y-44264529D01*
X23925002Y-44244500D01*
X23925001Y-44244500D01*
X22775001Y-44244500D01*
X22774998Y-44244500D01*
X22703060Y-44249644D01*
X22565006Y-44290182D01*
X22443970Y-44367967D01*
X22443966Y-44367971D01*
X22349751Y-44476700D01*
X22349745Y-44476709D01*
X22289977Y-44607580D01*
X22289976Y-44607585D01*
X22269501Y-44749999D01*
X22269501Y-44800500D01*
X22249816Y-44867539D01*
X22197012Y-44913294D01*
X22145501Y-44924500D01*
X21786323Y-44924500D01*
X21719284Y-44904815D01*
X21686005Y-44873385D01*
X21640107Y-44810211D01*
X21489786Y-44659890D01*
X21317817Y-44534949D01*
X21308504Y-44530204D01*
X21257707Y-44482230D01*
X21240912Y-44414409D01*
X21263449Y-44348274D01*
X21308507Y-44309232D01*
X21317558Y-44304620D01*
X21489459Y-44179727D01*
X21489464Y-44179723D01*
X21639723Y-44029464D01*
X21639727Y-44029459D01*
X21764620Y-43857557D01*
X21861095Y-43668217D01*
X21926757Y-43466129D01*
X21926757Y-43466126D01*
X21937231Y-43400000D01*
X21043012Y-43400000D01*
X21075925Y-43342993D01*
X21110000Y-43215826D01*
X21110000Y-43084174D01*
X21075925Y-42957007D01*
X21043012Y-42900000D01*
X21937231Y-42900000D01*
X21926757Y-42833873D01*
X21926757Y-42833870D01*
X21861095Y-42631782D01*
X21764620Y-42442442D01*
X21639727Y-42270540D01*
X21639723Y-42270535D01*
X21489464Y-42120276D01*
X21489459Y-42120272D01*
X21317555Y-41995377D01*
X21308500Y-41990763D01*
X21257706Y-41942788D01*
X21240912Y-41874966D01*
X21263451Y-41808832D01*
X21308508Y-41769793D01*
X21317816Y-41765051D01*
X21397007Y-41707515D01*
X21489786Y-41640109D01*
X21489788Y-41640106D01*
X21489792Y-41640104D01*
X21640104Y-41489792D01*
X21640106Y-41489788D01*
X21640109Y-41489786D01*
X21765048Y-41317820D01*
X21765047Y-41317820D01*
X21765051Y-41317816D01*
X21861557Y-41128412D01*
X21927246Y-40926243D01*
X21960500Y-40716287D01*
X21960500Y-40503713D01*
X21927246Y-40293757D01*
X21861557Y-40091588D01*
X21765051Y-39902184D01*
X21765049Y-39902181D01*
X21765048Y-39902179D01*
X21640109Y-39730213D01*
X21489786Y-39579890D01*
X21317820Y-39454951D01*
X21317115Y-39454591D01*
X21309054Y-39450485D01*
X21258259Y-39402512D01*
X21241463Y-39334692D01*
X21263999Y-39268556D01*
X21309054Y-39229515D01*
X21317816Y-39225051D01*
X21339789Y-39209086D01*
X21489786Y-39100109D01*
X21489788Y-39100106D01*
X21489792Y-39100104D01*
X21640104Y-38949792D01*
X21640106Y-38949788D01*
X21640109Y-38949786D01*
X21765048Y-38777820D01*
X21765047Y-38777820D01*
X21765051Y-38777816D01*
X21861557Y-38588412D01*
X21927246Y-38386243D01*
X21960500Y-38176287D01*
X21960500Y-37963713D01*
X21927246Y-37753757D01*
X21861557Y-37551588D01*
X21765051Y-37362184D01*
X21765049Y-37362181D01*
X21765048Y-37362179D01*
X21640109Y-37190213D01*
X21489786Y-37039890D01*
X21317820Y-36914951D01*
X21317115Y-36914591D01*
X21309054Y-36910485D01*
X21258259Y-36862512D01*
X21241463Y-36794692D01*
X21263999Y-36728556D01*
X21309054Y-36689515D01*
X21317816Y-36685051D01*
X21339789Y-36669086D01*
X21489786Y-36560109D01*
X21489788Y-36560106D01*
X21489792Y-36560104D01*
X21640104Y-36409792D01*
X21640106Y-36409788D01*
X21640109Y-36409786D01*
X21765048Y-36237820D01*
X21765047Y-36237820D01*
X21765051Y-36237816D01*
X21861557Y-36048412D01*
X21927246Y-35846243D01*
X21960500Y-35636287D01*
X21960500Y-35423713D01*
X21927246Y-35213757D01*
X21861557Y-35011588D01*
X21765051Y-34822184D01*
X21765049Y-34822181D01*
X21765048Y-34822179D01*
X21640109Y-34650213D01*
X21489786Y-34499890D01*
X21317820Y-34374951D01*
X21317115Y-34374591D01*
X21309054Y-34370485D01*
X21258259Y-34322512D01*
X21241463Y-34254692D01*
X21263999Y-34188556D01*
X21309054Y-34149515D01*
X21317816Y-34145051D01*
X21339789Y-34129086D01*
X21489786Y-34020109D01*
X21489788Y-34020106D01*
X21489792Y-34020104D01*
X21640104Y-33869792D01*
X21640106Y-33869788D01*
X21640109Y-33869786D01*
X21765048Y-33697820D01*
X21765047Y-33697820D01*
X21765051Y-33697816D01*
X21861557Y-33508412D01*
X21927246Y-33306243D01*
X21960500Y-33096287D01*
X21960500Y-32883713D01*
X21927246Y-32673757D01*
X21861557Y-32471588D01*
X21765051Y-32282184D01*
X21765049Y-32282181D01*
X21765048Y-32282179D01*
X21640109Y-32110213D01*
X21489786Y-31959890D01*
X21317817Y-31834949D01*
X21308504Y-31830204D01*
X21257707Y-31782230D01*
X21240912Y-31714409D01*
X21263449Y-31648274D01*
X21308507Y-31609232D01*
X21317558Y-31604620D01*
X21489459Y-31479727D01*
X21489464Y-31479723D01*
X21639723Y-31329464D01*
X21639727Y-31329459D01*
X21764620Y-31157557D01*
X21861095Y-30968217D01*
X21926757Y-30766129D01*
X21926757Y-30766126D01*
X21937231Y-30700000D01*
X21043012Y-30700000D01*
X21075925Y-30642993D01*
X21110000Y-30515826D01*
X21110000Y-30384174D01*
X21075925Y-30257007D01*
X21043012Y-30200000D01*
X21937231Y-30200000D01*
X21926757Y-30133873D01*
X21926757Y-30133870D01*
X21861095Y-29931782D01*
X21764620Y-29742442D01*
X21639727Y-29570540D01*
X21639723Y-29570535D01*
X21489464Y-29420276D01*
X21489459Y-29420272D01*
X21317555Y-29295377D01*
X21308500Y-29290763D01*
X21257706Y-29242788D01*
X21240912Y-29174966D01*
X21263451Y-29108832D01*
X21308508Y-29069793D01*
X21317816Y-29065051D01*
X21397007Y-29007515D01*
X21489786Y-28940109D01*
X21489788Y-28940106D01*
X21489792Y-28940104D01*
X21509728Y-28920168D01*
X23689500Y-28920168D01*
X23689500Y-29079831D01*
X23720645Y-29236406D01*
X23720648Y-29236418D01*
X23781742Y-29383914D01*
X23781744Y-29383918D01*
X23870439Y-29516659D01*
X23870445Y-29516667D01*
X23983332Y-29629554D01*
X23983340Y-29629560D01*
X24116081Y-29718255D01*
X24116085Y-29718257D01*
X24263581Y-29779351D01*
X24263586Y-29779353D01*
X24420168Y-29810499D01*
X24420172Y-29810500D01*
X24420173Y-29810500D01*
X24579828Y-29810500D01*
X24579829Y-29810499D01*
X24736414Y-29779353D01*
X24883916Y-29718256D01*
X24883918Y-29718255D01*
X24949844Y-29674203D01*
X25016664Y-29629557D01*
X25129557Y-29516664D01*
X25218256Y-29383916D01*
X25279353Y-29236414D01*
X25310500Y-29079827D01*
X25310500Y-28920173D01*
X25310499Y-28920168D01*
X33689500Y-28920168D01*
X33689500Y-29079831D01*
X33720645Y-29236406D01*
X33720648Y-29236418D01*
X33781742Y-29383914D01*
X33781744Y-29383918D01*
X33870439Y-29516659D01*
X33870445Y-29516667D01*
X33983332Y-29629554D01*
X33983340Y-29629560D01*
X34116081Y-29718255D01*
X34116085Y-29718257D01*
X34263581Y-29779351D01*
X34263586Y-29779353D01*
X34420168Y-29810499D01*
X34420172Y-29810500D01*
X34420173Y-29810500D01*
X34579828Y-29810500D01*
X34579829Y-29810499D01*
X34736414Y-29779353D01*
X34883916Y-29718256D01*
X34883918Y-29718255D01*
X34949844Y-29674203D01*
X35016664Y-29629557D01*
X35129557Y-29516664D01*
X35218256Y-29383916D01*
X35279353Y-29236414D01*
X35310500Y-29079827D01*
X35310500Y-28920173D01*
X35279353Y-28763586D01*
X35279351Y-28763581D01*
X35218257Y-28616085D01*
X35218255Y-28616081D01*
X35129560Y-28483340D01*
X35129554Y-28483332D01*
X35016667Y-28370445D01*
X35016659Y-28370439D01*
X34883918Y-28281744D01*
X34883914Y-28281742D01*
X34736418Y-28220648D01*
X34736406Y-28220645D01*
X34579831Y-28189500D01*
X34579827Y-28189500D01*
X34420173Y-28189500D01*
X34420168Y-28189500D01*
X34263593Y-28220645D01*
X34263581Y-28220648D01*
X34116085Y-28281742D01*
X34116081Y-28281744D01*
X33983340Y-28370439D01*
X33983332Y-28370445D01*
X33870445Y-28483332D01*
X33870439Y-28483340D01*
X33781744Y-28616081D01*
X33781742Y-28616085D01*
X33720648Y-28763581D01*
X33720645Y-28763593D01*
X33689500Y-28920168D01*
X25310499Y-28920168D01*
X25279353Y-28763586D01*
X25279351Y-28763581D01*
X25218257Y-28616085D01*
X25218255Y-28616081D01*
X25129560Y-28483340D01*
X25129554Y-28483332D01*
X25016667Y-28370445D01*
X25016659Y-28370439D01*
X24883918Y-28281744D01*
X24883914Y-28281742D01*
X24736418Y-28220648D01*
X24736406Y-28220645D01*
X24579831Y-28189500D01*
X24579827Y-28189500D01*
X24420173Y-28189500D01*
X24420168Y-28189500D01*
X24263593Y-28220645D01*
X24263581Y-28220648D01*
X24116085Y-28281742D01*
X24116081Y-28281744D01*
X23983340Y-28370439D01*
X23983332Y-28370445D01*
X23870445Y-28483332D01*
X23870439Y-28483340D01*
X23781744Y-28616081D01*
X23781742Y-28616085D01*
X23720648Y-28763581D01*
X23720645Y-28763593D01*
X23689500Y-28920168D01*
X21509728Y-28920168D01*
X21640104Y-28789792D01*
X21640106Y-28789788D01*
X21640109Y-28789786D01*
X21765048Y-28617820D01*
X21765047Y-28617820D01*
X21765051Y-28617816D01*
X21861557Y-28428412D01*
X21927246Y-28226243D01*
X21960500Y-28016287D01*
X21960500Y-27803713D01*
X21927246Y-27593757D01*
X21861557Y-27391588D01*
X21765051Y-27202184D01*
X21765049Y-27202181D01*
X21765048Y-27202179D01*
X21640109Y-27030213D01*
X21526569Y-26916673D01*
X21493084Y-26855350D01*
X21498068Y-26785658D01*
X21539940Y-26729725D01*
X21570915Y-26712810D01*
X21702331Y-26663796D01*
X21817546Y-26577546D01*
X21903796Y-26462331D01*
X21954091Y-26327483D01*
X21960500Y-26267873D01*
X21960499Y-24472128D01*
X21954091Y-24412517D01*
X21912291Y-24300446D01*
X21903798Y-24277673D01*
X21903793Y-24277664D01*
X21883084Y-24250000D01*
X27260137Y-24250000D01*
X27979999Y-24250000D01*
X27979999Y-23530136D01*
X27979998Y-23530135D01*
X27938315Y-23538427D01*
X27938307Y-23538429D01*
X27756327Y-23613807D01*
X27756314Y-23613814D01*
X27592536Y-23723248D01*
X27592532Y-23723251D01*
X27453250Y-23862533D01*
X27453247Y-23862537D01*
X27343813Y-24026315D01*
X27343806Y-24026328D01*
X27268429Y-24208307D01*
X27268429Y-24208309D01*
X27260137Y-24250000D01*
X21883084Y-24250000D01*
X21817547Y-24162455D01*
X21817544Y-24162452D01*
X21702335Y-24076206D01*
X21702328Y-24076202D01*
X21567482Y-24025908D01*
X21567483Y-24025908D01*
X21507883Y-24019501D01*
X21507881Y-24019500D01*
X21507873Y-24019500D01*
X21507864Y-24019500D01*
X19712129Y-24019500D01*
X19712123Y-24019501D01*
X19652516Y-24025908D01*
X19517671Y-24076202D01*
X19517664Y-24076206D01*
X19402455Y-24162452D01*
X19402452Y-24162455D01*
X19316206Y-24277664D01*
X19316202Y-24277671D01*
X19265908Y-24412517D01*
X19262627Y-24443039D01*
X19259501Y-24472123D01*
X19259500Y-24472135D01*
X18510500Y-24472135D01*
X18510500Y-24005412D01*
X18510972Y-23994605D01*
X18514688Y-23952127D01*
X18524587Y-23838976D01*
X18528338Y-23817704D01*
X18567367Y-23672044D01*
X18574759Y-23651738D01*
X18579089Y-23642452D01*
X18638483Y-23515081D01*
X18649289Y-23496366D01*
X18735779Y-23372845D01*
X18749667Y-23356293D01*
X18856293Y-23249667D01*
X18872845Y-23235779D01*
X18996366Y-23149289D01*
X19015081Y-23138483D01*
X19151740Y-23074758D01*
X19172044Y-23067367D01*
X19317704Y-23028338D01*
X19338978Y-23024587D01*
X19494605Y-23010971D01*
X19505412Y-23010500D01*
X39494588Y-23010500D01*
X39505394Y-23010971D01*
G37*
%TD.AperFunction*%
%TD*%
M02*
