<?xml version="1.0" standalone="no"?>
 <!DOCTYPE svg PUBLIC "-//W3C//DTD SVG 1.1//EN" 
 "http://www.w3.org/Graphics/SVG/1.1/DTD/svg11.dtd"> 
<svg
  xmlns:svg="http://www.w3.org/2000/svg"
  xmlns="http://www.w3.org/2000/svg"
  xmlns:xlink="http://www.w3.org/1999/xlink"
  version="1.1"
  width="26.5684mm" height="14.9860mm" viewBox="0.0000 0.0000 26.5684 14.9860">
<title>SVG Image created as VIB_STSPIN240-Front.svg date 2026/01/03 16:28:03 </title>
  <desc>Image generated by PCBNEW </desc>
<g style="fill:#000000; fill-opacity:1.0000;stroke:#000000; stroke-opacity:1.0000;
stroke-linecap:round; stroke-linejoin:round;"
 transform="translate(0 0) scale(1 1)">
<path style="fill:#000000; fill-opacity:1.0000; stroke:none;fill-rule:evenodd;"
d="M 10.3067,9.0682
10.2550,9.0580
10.2112,9.0287
10.1819,8.9849
10.1717,8.9332
10.1717,8.6632
10.1819,8.6116
10.2112,8.5678
10.2550,8.5385
10.3067,8.5282
10.6767,8.5282
10.7283,8.5385
10.7721,8.5678
10.8014,8.6116
10.8117,8.6632
10.8117,8.9332
10.8014,8.9849
10.7721,9.0287
10.7283,9.0580
10.6767,9.0682
Z" /> 
<path style="fill:#000000; fill-opacity:1.0000; stroke:none;fill-rule:evenodd;"
d="M 10.3067,8.0483
10.2550,8.0380
10.2112,8.0087
10.1819,7.9649
10.1717,7.9133
10.1717,7.6433
10.1819,7.5916
10.2112,7.5478
10.2550,7.5185
10.3067,7.5083
10.6767,7.5083
10.7283,7.5185
10.7721,7.5478
10.8014,7.5916
10.8117,7.6433
10.8117,7.9133
10.8014,7.9649
10.7721,8.0087
10.7283,8.0380
10.6767,8.0483
Z" /> 
<path style="fill:#000000; fill-opacity:1.0000; stroke:none;fill-rule:evenodd;"
d="M 7.8767,10.5083
7.9283,10.5185
7.9721,10.5478
8.0014,10.5916
8.0117,10.6433
8.0117,10.9133
8.0014,10.9649
7.9721,11.0087
7.9283,11.0380
7.8767,11.0483
7.5067,11.0483
7.4550,11.0380
7.4112,11.0087
7.3819,10.9649
7.3717,10.9133
7.3717,10.6433
7.3819,10.5916
7.4112,10.5478
7.4550,10.5185
7.5067,10.5083
Z" /> 
<path style="fill:#000000; fill-opacity:1.0000; stroke:none;fill-rule:evenodd;"
d="M 7.8767,11.5282
7.9283,11.5385
7.9721,11.5678
8.0014,11.6116
8.0117,11.6632
8.0117,11.9332
8.0014,11.9849
7.9721,12.0287
7.9283,12.0580
7.8767,12.0682
7.5067,12.0682
7.4550,12.0580
7.4112,12.0287
7.3819,11.9849
7.3717,11.9332
7.3717,11.6632
7.3819,11.6116
7.4112,11.5678
7.4550,11.5385
7.5067,11.5282
Z" /> 
<path style="fill:#000000; fill-opacity:1.0000; stroke:none;fill-rule:evenodd;"
d="M 17.2367,4.9982
17.2367,3.9982
18.2367,3.9982
18.2367,4.9982
Z" /> 
<path style="fill:#000000; fill-opacity:1.0000; stroke:none;fill-rule:evenodd;"
d="M 8.3067,9.0682
8.2550,9.0580
8.2112,9.0287
8.1819,8.9849
8.1717,8.9332
8.1717,8.6632
8.1819,8.6116
8.2112,8.5678
8.2550,8.5385
8.3067,8.5282
8.6767,8.5282
8.7283,8.5385
8.7721,8.5678
8.8014,8.6116
8.8117,8.6632
8.8117,8.9332
8.8014,8.9849
8.7721,9.0287
8.7283,9.0580
8.6767,9.0682
Z" /> 
<path style="fill:#000000; fill-opacity:1.0000; stroke:none;fill-rule:evenodd;"
d="M 8.3067,8.0483
8.2550,8.0380
8.2112,8.0087
8.1819,7.9649
8.1717,7.9133
8.1717,7.6433
8.1819,7.5916
8.2112,7.5478
8.2550,7.5185
8.3067,7.5083
8.6767,7.5083
8.7283,7.5185
8.7721,7.5478
8.8014,7.5916
8.8117,7.6433
8.8117,7.9133
8.8014,7.9649
8.7721,8.0087
8.7283,8.0380
8.6767,8.0483
Z" /> 
<path style="fill:#000000; fill-opacity:1.0000; stroke:none;fill-rule:evenodd;"
d="M 7.7117,6.5982
7.7117,5.5983
8.7117,5.5983
8.7117,6.5982
Z" /> 
<path style="fill:#000000; fill-opacity:1.0000; stroke:none;fill-rule:evenodd;"
d="M 11.5217,6.5982
11.5217,5.5983
12.5217,5.5983
12.5217,6.5982
Z" /> 
<path style="fill:#000000; fill-opacity:1.0000; stroke:none;fill-rule:evenodd;"
d="M 13.4267,4.9982
13.4267,3.9982
14.4267,3.9982
14.4267,4.9982
Z" /> 
<path style="fill:#000000; fill-opacity:1.0000; stroke:none;fill-rule:evenodd;"
d="M 14.2867,12.7683
14.2867,11.7683
15.2867,11.7683
15.2867,12.7683
Z" /> 
<path style="fill:#000000; fill-opacity:1.0000; stroke:none;fill-rule:evenodd;"
d="M 8.3467,4.9982
8.3467,3.9982
9.3467,3.9982
9.3467,4.9982
Z" /> 
<path style="fill:#000000; fill-opacity:1.0000; stroke:none;fill-rule:evenodd;"
d="M 12.2217,11.8582
12.1681,11.8476
12.1227,11.8172
12.0923,11.7718
12.0817,11.7182
12.0817,11.4383
12.0923,11.3847
12.1227,11.3393
12.1681,11.3089
12.2217,11.2982
12.5617,11.2982
12.6152,11.3089
12.6607,11.3393
12.6910,11.3847
12.7017,11.4383
12.7017,11.7182
12.6910,11.7718
12.6607,11.8172
12.6152,11.8476
12.5617,11.8582
Z" /> 
<path style="fill:#000000; fill-opacity:1.0000; stroke:none;fill-rule:evenodd;"
d="M 12.2217,10.8982
12.1681,10.8876
12.1227,10.8572
12.0923,10.8118
12.0817,10.7583
12.0817,10.4782
12.0923,10.4247
12.1227,10.3793
12.1681,10.3489
12.2217,10.3383
12.5617,10.3383
12.6152,10.3489
12.6607,10.3793
12.6910,10.4247
12.7017,10.4782
12.7017,10.7583
12.6910,10.8118
12.6607,10.8572
12.6152,10.8876
12.5617,10.8982
Z" /> 
<path style="fill:#000000; fill-opacity:1.0000; stroke:none;fill-rule:evenodd;"
d="M 14.2867,11.4982
14.2867,10.4982
15.2867,10.4982
15.2867,11.4982
Z" /> 
<path style="fill:#000000; fill-opacity:1.0000; stroke:none;fill-rule:evenodd;"
d="M 20.3667,10.4982
20.3667,11.4982
19.3667,11.4982
19.3667,10.4982
Z" /> 
<path style="fill:#000000; fill-opacity:1.0000; stroke:none;fill-rule:evenodd;"
d="M 9.6167,4.9982
9.6167,3.9982
10.6167,3.9982
10.6167,4.9982
Z" /> 
<path style="fill:#000000; fill-opacity:1.0000; stroke:none;fill-rule:evenodd;"
d="M 12.7917,6.5982
12.7917,5.5983
13.7917,5.5983
13.7917,6.5982
Z" /> 
<path style="fill:#000000; fill-opacity:1.0000; stroke:none;fill-rule:evenodd;"
d="M 16.9667,3.9982
16.9667,4.9982
15.9667,4.9982
15.9667,3.9982
Z" /> 
<path style="fill:#000000; fill-opacity:1.0000; stroke:none;fill-rule:evenodd;"
d="M 9.2917,12.8783
9.2917,12.2183
9.5717,12.2183
9.5717,12.8783
Z" /> 
<path style="fill:#000000; fill-opacity:1.0000; stroke:none;fill-rule:evenodd;"
d="M 9.7917,12.8783
9.7917,12.2183
10.0717,12.2183
10.0717,12.8783
Z" /> 
<path style="fill:#000000; fill-opacity:1.0000; stroke:none;fill-rule:evenodd;"
d="M 10.2917,12.8783
10.2917,12.2183
10.5717,12.2183
10.5717,12.8783
Z" /> 
<path style="fill:#000000; fill-opacity:1.0000; stroke:none;fill-rule:evenodd;"
d="M 10.7917,12.8783
10.7917,12.2183
11.0717,12.2183
11.0717,12.8783
Z" /> 
<path style="fill:#000000; fill-opacity:1.0000; stroke:none;fill-rule:evenodd;"
d="M 11.2617,12.0283
11.2617,11.7483
11.9217,11.7483
11.9217,12.0283
Z" /> 
<path style="fill:#000000; fill-opacity:1.0000; stroke:none;fill-rule:evenodd;"
d="M 11.2617,11.5283
11.2617,11.2483
11.9217,11.2483
11.9217,11.5283
Z" /> 
<path style="fill:#000000; fill-opacity:1.0000; stroke:none;fill-rule:evenodd;"
d="M 11.2617,11.0283
11.2617,10.7483
11.9217,10.7483
11.9217,11.0283
Z" /> 
<path style="fill:#000000; fill-opacity:1.0000; stroke:none;fill-rule:evenodd;"
d="M 11.2617,10.5283
11.2617,10.2483
11.9217,10.2483
11.9217,10.5283
Z" /> 
<path style="fill:#000000; fill-opacity:1.0000; stroke:none;fill-rule:evenodd;"
d="M 10.7917,10.0583
10.7917,9.3983
11.0717,9.3983
11.0717,10.0583
Z" /> 
<path style="fill:#000000; fill-opacity:1.0000; stroke:none;fill-rule:evenodd;"
d="M 10.2917,10.0583
10.2917,9.3983
10.5717,9.3983
10.5717,10.0583
Z" /> 
<path style="fill:#000000; fill-opacity:1.0000; stroke:none;fill-rule:evenodd;"
d="M 9.7917,10.0583
9.7917,9.3983
10.0717,9.3983
10.0717,10.0583
Z" /> 
<path style="fill:#000000; fill-opacity:1.0000; stroke:none;fill-rule:evenodd;"
d="M 9.2917,10.0583
9.2917,9.3983
9.5717,9.3983
9.5717,10.0583
Z" /> 
<path style="fill:#000000; fill-opacity:1.0000; stroke:none;fill-rule:evenodd;"
d="M 8.4417,10.5283
8.4417,10.2483
9.1017,10.2483
9.1017,10.5283
Z" /> 
<path style="fill:#000000; fill-opacity:1.0000; stroke:none;fill-rule:evenodd;"
d="M 8.4417,11.0283
8.4417,10.7483
9.1017,10.7483
9.1017,11.0283
Z" /> 
<path style="fill:#000000; fill-opacity:1.0000; stroke:none;fill-rule:evenodd;"
d="M 8.4417,11.5283
8.4417,11.2483
9.1017,11.2483
9.1017,11.5283
Z" /> 
<path style="fill:#000000; fill-opacity:1.0000; stroke:none;fill-rule:evenodd;"
d="M 8.4417,12.0283
8.4417,11.7483
9.1017,11.7483
9.1017,12.0283
Z" /> 
<path style="fill:#000000; fill-opacity:1.0000; stroke:none;fill-rule:evenodd;"
d="M 9.3067,12.0133
9.3067,10.2633
11.0567,10.2633
11.0567,12.0133
Z" /> 
<path style="fill:#000000; fill-opacity:1.0000; stroke:none;fill-rule:evenodd;"
d="M 10.8867,4.9982
10.8867,3.9982
11.8867,3.9982
11.8867,4.9982
Z" /> 
<path style="fill:#000000; fill-opacity:1.0000; stroke:none;fill-rule:evenodd;"
d="M 6.4417,6.5982
6.4417,5.5983
7.4417,5.5983
7.4417,6.5982
Z" /> 
<path style="fill:#000000; fill-opacity:1.0000; stroke:none;fill-rule:evenodd;"
d="M 19.3667,12.7683
19.3667,11.7683
20.3667,11.7683
20.3667,12.7683
Z" /> 
<path style="fill:#000000; fill-opacity:1.0000; stroke:none;fill-rule:evenodd;"
d="M 6.8617,10.5283
6.9152,10.5389
6.9607,10.5693
6.9910,10.6147
7.0017,10.6683
7.0017,10.9483
6.9910,11.0018
6.9607,11.0472
6.9152,11.0776
6.8617,11.0883
6.5217,11.0883
6.4681,11.0776
6.4227,11.0472
6.3923,11.0018
6.3817,10.9483
6.3817,10.6683
6.3923,10.6147
6.4227,10.5693
6.4681,10.5389
6.5217,10.5283
Z" /> 
<path style="fill:#000000; fill-opacity:1.0000; stroke:none;fill-rule:evenodd;"
d="M 6.8617,11.4883
6.9152,11.4989
6.9607,11.5293
6.9910,11.5747
7.0017,11.6283
7.0017,11.9083
6.9910,11.9618
6.9607,12.0072
6.9152,12.0376
6.8617,12.0483
6.5217,12.0483
6.4681,12.0376
6.4227,12.0072
6.3923,11.9618
6.3817,11.9083
6.3817,11.6283
6.3923,11.5747
6.4227,11.5293
6.4681,11.4989
6.5217,11.4883
Z" /> 
<path style="fill:#000000; fill-opacity:1.0000; stroke:none;fill-rule:evenodd;"
d="M 7.6617,7.5283
7.7152,7.5389
7.7607,7.5693
7.7910,7.6147
7.8017,7.6683
7.8017,7.9483
7.7910,8.0018
7.7607,8.0472
7.7152,8.0776
7.6617,8.0883
7.3217,8.0883
7.2681,8.0776
7.2227,8.0472
7.1923,8.0018
7.1817,7.9483
7.1817,7.6683
7.1923,7.6147
7.2227,7.5693
7.2681,7.5389
7.3217,7.5283
Z" /> 
<path style="fill:#000000; fill-opacity:1.0000; stroke:none;fill-rule:evenodd;"
d="M 7.6617,8.4883
7.7152,8.4989
7.7607,8.5293
7.7910,8.5747
7.8017,8.6283
7.8017,8.9083
7.7910,8.9618
7.7607,9.0072
7.7152,9.0376
7.6617,9.0483
7.3217,9.0483
7.2681,9.0376
7.2227,9.0072
7.1923,8.9618
7.1817,8.9083
7.1817,8.6283
7.1923,8.5747
7.2227,8.5293
7.2681,8.4989
7.3217,8.4883
Z" /> 
<path style="fill:#000000; fill-opacity:1.0000; stroke:none;fill-rule:evenodd;"
d="M 19.0967,10.4982
19.0967,11.4982
18.0967,11.4982
18.0967,10.4982
Z" /> 
<path style="fill:#000000; fill-opacity:1.0000; stroke:none;fill-rule:evenodd;"
d="M 18.0967,12.7683
18.0967,11.7683
19.0967,11.7683
19.0967,12.7683
Z" /> 
<path style="fill:#000000; fill-opacity:1.0000; stroke:none;fill-rule:evenodd;"
d="M 8.9817,6.5982
8.9817,5.5983
9.9817,5.5983
9.9817,6.5982
Z" /> 
<path style="fill:#000000; fill-opacity:1.0000; stroke:none;fill-rule:evenodd;"
d="M 10.2517,6.5982
10.2517,5.5983
11.2517,5.5983
11.2517,6.5982
Z" /> 
<path style="fill:#000000; fill-opacity:1.0000; stroke:none;fill-rule:evenodd;"
d="M 8.0717,9.9733
8.0614,10.0249
8.0321,10.0687
7.9883,10.0980
7.9367,10.1083
7.6667,10.1083
7.6150,10.0980
7.5712,10.0687
7.5419,10.0249
7.5317,9.9733
7.5317,9.6033
7.5419,9.5516
7.5712,9.5078
7.6150,9.4785
7.6667,9.4683
7.9367,9.4683
7.9883,9.4785
8.0321,9.5078
8.0614,9.5516
8.0717,9.6033
Z" /> 
<path style="fill:#000000; fill-opacity:1.0000; stroke:none;fill-rule:evenodd;"
d="M 7.0517,9.9733
7.0414,10.0249
7.0121,10.0687
6.9683,10.0980
6.9167,10.1083
6.6467,10.1083
6.5950,10.0980
6.5512,10.0687
6.5219,10.0249
6.5117,9.9733
6.5117,9.6033
6.5219,9.5516
6.5512,9.5078
6.5950,9.4785
6.6467,9.4683
6.9167,9.4683
6.9683,9.4785
7.0121,9.5078
7.0414,9.5516
7.0517,9.6033
Z" /> 
<path style="fill:#000000; fill-opacity:1.0000; stroke:none;fill-rule:evenodd;"
d="M 9.6767,7.5083
9.7283,7.5185
9.7721,7.5478
9.8014,7.5916
9.8117,7.6433
9.8117,7.9133
9.8014,7.9649
9.7721,8.0087
9.7283,8.0380
9.6767,8.0483
9.3067,8.0483
9.2550,8.0380
9.2112,8.0087
9.1819,7.9649
9.1717,7.9133
9.1717,7.6433
9.1819,7.5916
9.2112,7.5478
9.2550,7.5185
9.3067,7.5083
Z" /> 
<path style="fill:#000000; fill-opacity:1.0000; stroke:none;fill-rule:evenodd;"
d="M 9.6767,8.5282
9.7283,8.5385
9.7721,8.5678
9.8014,8.6116
9.8117,8.6632
9.8117,8.9332
9.8014,8.9849
9.7721,9.0287
9.7283,9.0580
9.6767,9.0682
9.3067,9.0682
9.2550,9.0580
9.2112,9.0287
9.1819,8.9849
9.1717,8.9332
9.1717,8.6632
9.1819,8.6116
9.2112,8.5678
9.2550,8.5385
9.3067,8.5282
Z" /> 
<path style="fill:#000000; fill-opacity:1.0000; stroke:none;fill-rule:evenodd;"
d="M 15.5567,11.4982
15.5567,10.4982
16.5567,10.4982
16.5567,11.4982
Z" /> 
<path style="fill:#000000; fill-opacity:1.0000; stroke:none;fill-rule:evenodd;"
d="M 12.1567,4.9982
12.1567,3.9982
13.1567,3.9982
13.1567,4.9982
Z" /> 
<path style="fill:#000000; fill-opacity:1.0000; stroke:none;fill-rule:evenodd;"
d="M 15.5567,12.7683
15.5567,11.7683
16.5567,11.7683
16.5567,12.7683
Z" /> 
<path style="fill:#000000; fill-opacity:1.0000; stroke:none;fill-rule:evenodd;"
d="M 13.2217,11.8582
13.1681,11.8476
13.1227,11.8172
13.0923,11.7718
13.0817,11.7182
13.0817,11.4383
13.0923,11.3847
13.1227,11.3393
13.1681,11.3089
13.2217,11.2982
13.5617,11.2982
13.6152,11.3089
13.6607,11.3393
13.6910,11.3847
13.7017,11.4383
13.7017,11.7182
13.6910,11.7718
13.6607,11.8172
13.6152,11.8476
13.5617,11.8582
Z" /> 
<path style="fill:#000000; fill-opacity:1.0000; stroke:none;fill-rule:evenodd;"
d="M 13.2217,10.8982
13.1681,10.8876
13.1227,10.8572
13.0923,10.8118
13.0817,10.7583
13.0817,10.4782
13.0923,10.4247
13.1227,10.3793
13.1681,10.3489
13.2217,10.3383
13.5617,10.3383
13.6152,10.3489
13.6607,10.3793
13.6910,10.4247
13.7017,10.4782
13.7017,10.7583
13.6910,10.8118
13.6607,10.8572
13.6152,10.8876
13.5617,10.8982
Z" /> 
<path style="fill:#000000; fill-opacity:1.0000; stroke:none;fill-rule:evenodd;"
d="M 14.6967,4.9982
14.6967,3.9982
15.6967,3.9982
15.6967,4.9982
Z" /> 
<path style="fill:#000000; fill-opacity:1.0000; stroke:none;fill-rule:evenodd;"
d="M 11.3567,7.7658
11.3757,7.6701
11.4299,7.5890
11.5110,7.5348
11.6067,7.5158
12.2317,7.5158
12.3273,7.5348
12.4084,7.5890
12.4626,7.6701
12.4817,7.7658
12.4817,9.0158
12.4626,9.1114
12.4084,9.1925
12.3273,9.2467
12.2317,9.2658
11.6067,9.2658
11.5110,9.2467
11.4299,9.1925
11.3757,9.1114
11.3567,9.0158
Z" /> 
<path style="fill:#000000; fill-opacity:1.0000; stroke:none;fill-rule:evenodd;"
d="M 14.2817,7.7658
14.3007,7.6701
14.3549,7.5890
14.4360,7.5348
14.5317,7.5158
15.1567,7.5158
15.2523,7.5348
15.3334,7.5890
15.3876,7.6701
15.4067,7.7658
15.4067,9.0158
15.3876,9.1114
15.3334,9.1925
15.2523,9.2467
15.1567,9.2658
14.5317,9.2658
14.4360,9.2467
14.3549,9.1925
14.3007,9.1114
14.2817,9.0158
Z" /> 
<path style="fill:#000000; fill-opacity:1.0000; stroke:none;fill-rule:evenodd;"
d="M 17.8267,10.4982
17.8267,11.4982
16.8267,11.4982
16.8267,10.4982
Z" /> 
<path style="fill:#000000; fill-opacity:1.0000; stroke:none;fill-rule:evenodd;"
d="M 16.8267,12.7683
16.8267,11.7683
17.8267,11.7683
17.8267,12.7683
Z" /> 
</g>
<g style="fill:#000000; fill-opacity:1.0000; stroke:none;">
<circle cx="9.7917" cy="10.7982" r="0.2000" /> 
</g>
<g style="fill:#000000; fill-opacity:1.0000; stroke:none;">
<circle cx="7.9917" cy="13.1982" r="0.2000" /> 
</g>
<g style="fill:#000000; fill-opacity:1.0000; stroke:none;">
<circle cx="10.2917" cy="7.0982" r="0.2000" /> 
</g>
<g style="fill:#000000; fill-opacity:1.0000; stroke:none;">
<circle cx="6.6917" cy="12.6982" r="0.2000" /> 
</g>
<g style="fill:#000000; fill-opacity:1.0000; stroke:none;">
<circle cx="6.2917" cy="6.9982" r="0.2000" /> 
</g>
<g style="fill:#000000; fill-opacity:1.0000; stroke:none;">
<circle cx="8.7917" cy="7.0982" r="0.2000" /> 
</g>
<g style="fill:#000000; fill-opacity:1.0000; stroke:none;">
<circle cx="12.6917" cy="12.2982" r="0.2000" /> 
</g>
<g style="fill:#000000; fill-opacity:1.0000; stroke:none;">
<circle cx="13.3917" cy="12.9982" r="0.2000" /> 
</g>
<g style="fill:#000000; fill-opacity:1.0000; stroke:none;">
<circle cx="12.0917" cy="12.2982" r="0.2000" /> 
</g>
<g style="fill:#000000; fill-opacity:1.0000; stroke:none;">
<circle cx="13.3917" cy="12.3982" r="0.2000" /> 
</g>
<g style="fill:none; 
stroke:#000000; stroke-width:0.1270; stroke-opacity:1; 
stroke-linecap:round; stroke-linejoin:round;">
<path d="M6.2782 12.1818
L6.2782 12.8847
" />
<path d="M14.4067 10.6182
L14.7867 10.9982
" />
<path d="M6.7817 9.7883
L7.4917 9.0783
" />
<path d="M6.5917 13.1982
L7.9917 13.1982
" />
<path d="M9.3167 5.2982
L7.7417 5.2982
" />
<path d="M13.3917 9.8433
L13.3917 10.6182
" />
<path d="M6.6917 11.7683
L6.2782 12.1818
" />
<path d="M10.4917 7.7783
L10.4917 7.2982
" />
<path d="M6.2782 12.8847
L6.5917 13.1982
" />
<path d="M7.4917 9.0783
L7.4917 8.7683
" />
<path d="M11.5917 10.8883
L12.1217 10.8883
" />
<path d="M6.9417 8.2183
L7.4917 8.7683
" />
<path d="M12.3917 10.6182
L13.3917 10.6182
" />
<path d="M12.1217 10.8883
L12.3917 10.6182
" />
<path d="M13.3917 10.6182
L14.4067 10.6182
" />
<path d="M6.9417 6.0982
L6.9417 8.2183
" />
<path d="M10.1167 4.4982
L9.3167 5.2982
" />
<path d="M7.7417 5.2982
L6.9417 6.0982
" />
<path d="M10.4917 7.2982
L10.2917 7.0982
" />
<path d="M14.8442 8.3908
L13.3917 9.8433
" />
<path d="M6.1917 5.2982
L6.1917 6.6018
" />
<path d="M8.7717 10.8883
L8.5817 10.8883
" />
<path d="M7.6917 11.7783
L7.6917 11.7982
" />
<path d="M6.1917 6.8982
L6.2917 6.9982
" />
<path d="M6.7917 12.6982
L6.6917 12.6982
" />
<path d="M6.9917 4.4982
L6.1917 5.2982
" />
<path d="M7.6917 11.7982
L6.7917 12.6982
" />
<path d="M8.8117 7.0982
L8.7917 7.0982
" />
<path d="M8.8117 7.0982
L9.4917 7.7783
" />
<path d="M8.5817 10.8883
L7.6917 11.7783
" />
<path d="M6.1917 6.6018
L6.1917 6.8982
" />
<path d="M8.8467 4.4982
L6.9917 4.4982
" />
<path d="M12.3917 11.5782
L11.7817 11.5782
" />
<path d="M12.6917 12.2982
L12.6917 11.8782
" />
<path d="M13.3917 11.5782
L12.3917 11.5782
" />
<path d="M11.7817 11.5782
L11.5917 11.3883
" />
<path d="M12.6917 11.8782
L12.3917 11.5782
" />
<path d="M7.5217 7.7783
L7.4917 7.8083
" />
<path d="M8.4917 7.7783
L7.5217 7.7783
" />
<path d="M10.4317 12.8253
L10.4317 12.5483
" />
<path d="M10.6382 13.0318
L10.4317 12.8253
" />
<path d="M13.3582 13.0318
L10.6382 13.0318
" />
<path d="M13.3917 12.9982
L13.3582 13.0318
" />
<path d="M11.5917 11.8883
L11.6817 11.8883
" />
<path d="M11.6817 11.8883
L12.0917 12.2982
" />
<path d="M10.4317 9.7283
L10.4317 9.4513
" />
<path d="M10.6382 9.2448
L10.7769 9.2448
" />
<path d="M10.4317 9.4513
L10.6382 9.2448
" />
<path d="M11.1917 6.9282
L12.0217 6.0982
" />
<path d="M11.1917 8.8300
L11.1917 6.9282
" />
<path d="M10.7769 9.2448
L11.1917 8.8300
" />
<path d="M11.5917 10.3883
L13.2917 8.6883
" />
<path d="M13.2917 8.6883
L13.2917 6.0982
" />
<path d="M12.9917 12.7982
L11.1817 12.7982
" />
<path d="M13.3917 12.3982
L12.9917 12.7982
" />
<path d="M11.1817 12.7982
L10.9317 12.5483
" />
<path d="M11.9192 8.7408
L11.9192 8.3908
" />
<path d="M10.9317 9.7283
L11.9192 8.7408
" />
<path d="M9.4217 9.7283
L8.4917 8.7982
" />
<path d="M9.4317 9.7283
L9.4217 9.7283
" />
<path d="M8.4917 9.0983
L8.4917 8.7982
" />
<path d="M7.8017 9.7883
L8.4917 9.0983
" />
<path d="M9.9317 9.7283
L9.9317 9.2382
" />
<path d="M9.9317 9.2382
L9.4917 8.7982
" />
<path d="M9.4917 8.7982
L10.4917 8.7982
" />
<path d="M8.0817 10.3883
L7.6917 10.7783
" />
<path d="M6.6917 10.8083
L7.6617 10.8083
" />
<path d="M7.6617 10.8083
L7.6917 10.7783
" />
<path d="M8.7717 10.3883
L8.0817 10.3883
" />
<path d="M9.4317 12.8152
L10.3317 13.7152
" />
<path d="M10.3317 13.7152
L15.8797 13.7152
" />
<path d="M15.8797 13.7152
L17.3267 12.2683
" />
<path d="M9.4317 12.5483
L9.4317 12.8152
" />
<path d="M8.7717 11.8883
L8.7717 12.6653
" />
<path d="M16.8667 13.9982
L18.5967 12.2683
" />
<path d="M10.1047 13.9982
L16.8667 13.9982
" />
<path d="M8.7717 12.6653
L10.1047 13.9982
" />
<path d="M8.7717 11.3883
L8.4947 11.3883
" />
<path d="M8.4947 11.3883
L8.2882 11.5948
" />
<path d="M17.9197 14.2152
L19.8667 12.2683
" />
<path d="M8.2882 11.5948
L8.2882 12.4886
" />
<path d="M8.2882 12.4886
L10.0148 14.2152
" />
<path d="M10.0148 14.2152
L17.9197 14.2152
" />
<path d="M9.9317 12.8382
L10.5917 13.4982
" />
<path d="M10.5917 13.4982
L13.5567 13.4982
" />
<path d="M13.5567 13.4982
L14.7867 12.2683
" />
<path d="M9.9317 12.5483
L9.9317 12.8382
" />
<path style="fill:#000000; fill-opacity:1.0000; stroke:none;fill-rule:evenodd;"
d="M 6.0074,12.2995
6.0138,12.3055
6.1263,12.4180
6.1263,12.4180
6.1955,12.4589
6.2432,12.5100
6.2557,12.5787
6.2522,12.5978
6.2412,12.6389
6.2412,12.7576
6.2719,12.8721
6.3312,12.9749
6.4151,13.0587
6.5178,13.1180
6.6324,13.1487
6.6324,13.1487
6.7510,13.1487
6.7510,13.1487
6.8656,13.1180
6.9683,13.0587
7.0522,12.9749
7.1115,12.8721
7.1210,12.8364
7.1531,12.7809
7.5789,12.3551
7.6058,12.3404
7.6317,12.3238
7.6379,12.3229
7.6402,12.3216
7.6666,12.3187
7.8502,12.3187
7.9172,12.3384
7.9630,12.3912
7.9742,12.4428
7.9742,12.5300
7.9905,12.5908
7.9956,12.6098
7.9956,12.6098
8.0369,12.6814
8.0369,12.6814
9.6315,14.2761
9.6650,14.3374
9.6600,14.4071
9.6182,14.4630
9.5527,14.4874
9.5439,14.4877
6.5478,14.4877
6.5356,14.4872
6.4096,14.4747
6.3857,14.4700
6.2704,14.4350
6.2479,14.4257
6.1416,14.3689
6.1214,14.3554
6.0282,14.2789
6.0110,14.2617
5.9345,14.1685
5.9210,14.1483
5.8642,14.0420
5.8549,14.0196
5.8199,13.9042
5.8152,13.8804
5.8028,13.7543
5.8022,13.7422
5.8022,12.3932
5.8219,12.3262
5.8747,12.2804
5.9438,12.2705
Z" /> 
<path style="fill:#000000; fill-opacity:1.0000; stroke:none;fill-rule:evenodd;"
d="M 13.7343,8.8328
13.7748,8.8898
13.7817,8.9303
13.7817,9.0657
13.7817,9.0657
13.7922,9.1684
13.8473,9.3349
13.8473,9.3349
13.9393,9.4841
14.0633,9.6081
14.2125,9.7001
14.2125,9.7001
14.3829,9.7565
14.4403,9.7963
14.4671,9.8608
14.4548,9.9296
14.4073,9.9808
14.3439,9.9982
14.2388,9.9982
14.1793,10.0047
14.1793,10.0047
14.1184,10.0274
14.0487,10.0323
13.9874,9.9989
13.9570,9.9685
13.9570,9.9685
13.8179,9.8862
13.8179,9.8862
13.6626,9.8411
13.6626,9.8411
13.6417,9.8395
13.6417,10.4942
13.6220,10.5613
13.5692,10.6070
13.5177,10.6182
13.3917,10.6182
13.3917,10.7442
13.3720,10.8113
13.3192,10.8570
13.2677,10.8682
12.5157,10.8682
12.4486,10.8486
12.4029,10.7958
12.3917,10.7442
12.3917,10.4923
12.4114,10.4252
12.4642,10.3795
12.5157,10.3682
13.1417,10.3682
13.1417,9.8395
13.1417,9.8395
13.1208,9.8411
13.1207,9.8411
12.9655,9.8862
12.9655,9.8862
12.9548,9.8925
12.9500,9.8938
12.9463,9.8971
12.9164,9.9023
12.8871,9.9097
12.8810,9.9084
12.8775,9.9090
12.8652,9.9049
12.8434,9.9000
12.7885,9.8768
12.7668,9.8591
12.7433,9.8440
12.7402,9.8373
12.7344,9.8325
12.7258,9.8060
12.7141,9.7806
12.7151,9.7732
12.7128,9.7661
12.7199,9.7391
12.7238,9.7114
12.7293,9.7035
12.7306,9.6985
12.7365,9.6931
12.7491,9.6749
13.5429,8.8811
13.5503,8.8683
13.6008,8.8201
13.6694,8.8069
Z" /> 
<path style="fill:#000000; fill-opacity:1.0000; stroke:none;fill-rule:evenodd;"
d="M 20.0477,3.5093
20.0573,3.5103
20.1738,3.5218
20.1976,3.5265
20.3130,3.5615
20.3354,3.5708
20.3742,3.5915
20.4417,3.6276
20.4619,3.6411
20.5551,3.7176
20.5723,3.7348
20.6488,3.8280
20.6623,3.8482
20.7191,3.9545
20.7284,3.9769
20.7634,4.0923
20.7682,4.1161
20.7806,4.2422
20.7812,4.2543
20.7812,10.2589
20.7615,10.3260
20.7087,10.3717
20.6395,10.3817
20.5760,10.3526
20.5541,10.3278
20.5473,10.3176
20.4644,10.2623
20.4644,10.2623
20.3913,10.2477
20.3913,10.2477
19.3420,10.2477
19.3420,10.2477
19.2569,10.2647
19.2561,10.2605
19.2096,10.2655
19.2064,10.2646
19.2064,10.2647
19.1213,10.2477
19.1213,10.2477
18.0720,10.2477
18.0720,10.2477
17.9869,10.2647
17.9861,10.2605
17.9396,10.2655
17.9364,10.2646
17.9364,10.2647
17.8513,10.2477
17.8513,10.2477
16.8020,10.2477
16.8020,10.2477
16.7169,10.2647
16.7161,10.2605
16.6696,10.2655
16.6664,10.2646
16.6664,10.2647
16.5813,10.2477
16.5813,10.2477
15.7858,10.2477
15.7188,10.2281
15.6865,10.1981
15.6439,10.1411
15.6439,10.1411
15.5288,10.0549
15.5288,10.0549
15.3940,10.0047
15.3940,10.0047
15.3312,9.9979
15.3313,9.9964
15.2710,9.9751
15.2282,9.9199
15.2219,9.8503
15.2543,9.7884
15.3046,9.7569
15.4758,9.7001
15.4758,9.7001
15.6250,9.6081
15.7490,9.4841
15.8410,9.3349
15.8410,9.3349
15.8962,9.1684
15.8962,9.1684
15.9067,9.0657
15.9067,9.0657
15.9067,8.6408
15.0942,8.6408
15.0942,9.7657
15.1150,9.7866
15.1485,9.8479
15.1435,9.9176
15.1016,9.9735
15.0375,9.9974
15.0367,9.9982
15.0367,10.7886
14.9862,10.7382
14.9121,10.6954
14.8295,10.6732
14.7439,10.6732
14.6612,10.6954
14.5871,10.7382
14.5367,10.7886
14.5367,9.9982
14.5158,9.9774
14.4824,9.9161
14.4873,9.8464
14.5292,9.7905
14.5934,9.7666
14.5942,9.7657
14.5942,8.1408
15.0942,8.1408
15.9067,8.1408
15.9067,7.7158
15.9067,7.7158
15.8962,7.6131
15.8410,7.4466
15.8410,7.4466
15.7490,7.2974
15.6250,7.1734
15.4758,7.0814
15.4758,7.0814
15.3094,7.0262
15.3094,7.0262
15.2067,7.0158
15.0942,7.0158
15.0942,8.1408
14.5942,8.1408
14.5942,7.0158
14.4817,7.0158
14.4817,7.0158
14.3790,7.0262
14.2125,7.0814
14.2125,7.0814
14.0633,7.1734
13.9393,7.2974
13.8473,7.4466
13.8443,7.4532
13.8431,7.4526
13.8076,7.5039
13.7431,7.5307
13.6743,7.5184
13.6231,7.4708
13.6057,7.4074
13.6057,6.9727
13.6254,6.9057
13.6782,6.8600
13.7297,6.8487
13.8163,6.8487
13.8163,6.8487
13.8894,6.8342
13.9723,6.7789
14.0276,6.6960
14.0422,6.6229
14.0422,5.5736
14.0422,5.5736
14.0422,5.5736
14.0276,5.5005
14.0276,5.5005
14.0276,5.5005
13.9883,5.4416
13.9674,5.3750
13.9859,5.3076
14.0379,5.2609
14.0914,5.2487
14.4513,5.2487
14.4513,5.2487
14.4684,5.2454
14.5364,5.2318
14.5372,5.2360
14.5836,5.2310
14.5869,5.2319
14.5869,5.2318
14.6720,5.2487
14.6720,5.2487
14.6720,5.2487
15.7213,5.2487
15.7213,5.2487
15.7384,5.2454
15.8064,5.2318
15.8072,5.2360
15.8536,5.2310
15.8569,5.2319
15.8569,5.2318
15.9420,5.2487
15.9420,5.2487
15.9420,5.2487
16.9913,5.2487
16.9913,5.2487
17.0084,5.2454
17.0764,5.2318
17.0772,5.2360
17.1236,5.2310
17.1269,5.2319
17.1269,5.2318
17.2120,5.2487
17.2120,5.2487
17.2120,5.2487
18.2613,5.2487
18.2613,5.2487
18.3344,5.2342
18.4173,5.1789
18.4726,5.0960
18.4872,5.0229
18.4872,3.9736
18.4872,3.9736
18.4872,3.9736
18.4726,3.9005
18.4726,3.9005
18.4377,3.8482
18.4173,3.8176
18.3619,3.7807
18.3344,3.7623
18.3344,3.7623
18.2946,3.7544
18.2327,3.7220
18.1981,3.6613
18.2019,3.5915
18.2427,3.5348
18.3077,3.5092
18.3188,3.5088
20.0356,3.5088
Z" /> 
<path style="fill:#000000; fill-opacity:1.0000; stroke:none;fill-rule:evenodd;"
d="M 7.1917,7.0982
7.2021,7.1087
7.2356,7.1700
7.2306,7.2397
7.1888,7.2957
7.1707,7.3069
7.0893,7.3484
7.0893,7.3484
7.0018,7.4359
7.0018,7.4359
7.0018,7.4359
6.9933,7.4526
6.9456,7.5461
6.9456,7.5461
6.9312,7.6375
6.9312,7.9790
6.9397,8.0328
6.9307,8.1021
6.9049,8.1399
6.8120,8.2329
6.8119,8.2329
6.7296,8.3721
6.6872,8.5183
7.3677,8.5183
7.4347,8.5379
7.4805,8.5907
7.4917,8.6423
7.4917,8.8943
7.4720,8.9613
7.4192,9.0070
7.3677,9.0183
6.6517,9.0183
6.5846,8.9986
6.5675,8.9853
6.5517,8.9707
6.5465,8.9711
6.5465,8.9711
6.3925,9.0158
6.3925,9.0158
6.2544,9.0975
6.2544,9.0975
6.1409,9.2110
6.1409,9.2110
6.0593,9.3491
6.0593,9.3491
6.0452,9.3973
6.0076,9.4562
5.9442,9.4854
5.8750,9.4757
5.8220,9.4301
5.8022,9.3631
5.8022,9.3627
5.8022,7.4452
5.8219,7.3782
5.8747,7.3324
5.9438,7.3225
6.0074,7.3515
6.0138,7.3575
6.0151,7.3587
6.1178,7.4180
6.2324,7.4487
6.2324,7.4487
6.3510,7.4487
6.3510,7.4487
6.4656,7.4180
6.5683,7.3587
6.6522,7.2749
6.7115,7.1721
6.7422,7.0576
6.7422,6.9389
6.7115,6.8244
6.7083,6.8188
6.6917,6.7568
6.6917,6.3079
6.7421,6.3583
6.8162,6.4011
6.8989,6.4232
6.9845,6.4232
7.0671,6.4011
7.1412,6.3583
7.1917,6.3079
Z" /> 
<path style="fill:#000000; fill-opacity:1.0000; stroke:none;fill-rule:evenodd;"
d="M 8.0392,4.8319
8.0850,4.8847
8.0962,4.9362
8.0962,5.0229
8.1107,5.0960
8.1107,5.0960
8.1107,5.0960
8.1500,5.1549
8.1531,5.1646
8.1597,5.1722
8.1633,5.1973
8.1709,5.2215
8.1682,5.2313
8.1697,5.2414
8.1591,5.2645
8.1524,5.2889
8.1449,5.2957
8.1406,5.3050
8.1193,5.3187
8.1004,5.3356
8.0889,5.3382
8.0819,5.3427
8.0469,5.3477
7.9408,5.3477
7.8738,5.3281
7.8415,5.2981
7.7989,5.2411
7.7989,5.2411
7.6838,5.1549
7.6838,5.1549
7.5490,5.1047
7.5490,5.1047
7.4895,5.0983
7.1351,5.0983
7.1138,5.0920
7.0918,5.0904
7.0810,5.0824
7.0681,5.0786
7.0536,5.0618
7.0358,5.0486
7.0311,5.0359
7.0223,5.0258
7.0191,5.0038
7.0114,4.9831
7.0143,4.9699
7.0124,4.9566
7.0216,4.9365
7.0263,4.9148
7.0395,4.8971
7.0414,4.8930
7.0474,4.8866
7.0854,4.8486
7.1467,4.8151
7.1731,4.8122
7.9722,4.8122
Z" /> 
<path style="fill:#000000; fill-opacity:1.0000; stroke:none;fill-rule:evenodd;"
d="M 10.3067,9.0682
10.2550,9.0580
10.2112,9.0287
10.1819,8.9849
10.1717,8.9332
10.1717,8.6632
10.1819,8.6116
10.2112,8.5678
10.2550,8.5385
10.3067,8.5282
10.6767,8.5282
10.7283,8.5385
10.7721,8.5678
10.8014,8.6116
10.8117,8.6632
10.8117,8.9332
10.8014,8.9849
10.7721,9.0287
10.7283,9.0580
10.6767,9.0682
Z" /> 
<path style="fill:#000000; fill-opacity:1.0000; stroke:none;fill-rule:evenodd;"
d="M 10.3067,8.0483
10.2550,8.0380
10.2112,8.0087
10.1819,7.9649
10.1717,7.9133
10.1717,7.6433
10.1819,7.5916
10.2112,7.5478
10.2550,7.5185
10.3067,7.5083
10.6767,7.5083
10.7283,7.5185
10.7721,7.5478
10.8014,7.5916
10.8117,7.6433
10.8117,7.9133
10.8014,7.9649
10.7721,8.0087
10.7283,8.0380
10.6767,8.0483
Z" /> 
<path style="fill:#000000; fill-opacity:1.0000; stroke:none;fill-rule:evenodd;"
d="M 7.8767,10.5083
7.9283,10.5185
7.9721,10.5478
8.0014,10.5916
8.0117,10.6433
8.0117,10.9133
8.0014,10.9649
7.9721,11.0087
7.9283,11.0380
7.8767,11.0483
7.5067,11.0483
7.4550,11.0380
7.4112,11.0087
7.3819,10.9649
7.3717,10.9133
7.3717,10.6433
7.3819,10.5916
7.4112,10.5478
7.4550,10.5185
7.5067,10.5083
Z" /> 
<path style="fill:#000000; fill-opacity:1.0000; stroke:none;fill-rule:evenodd;"
d="M 7.8767,11.5282
7.9283,11.5385
7.9721,11.5678
8.0014,11.6116
8.0117,11.6632
8.0117,11.9332
8.0014,11.9849
7.9721,12.0287
7.9283,12.0580
7.8767,12.0682
7.5067,12.0682
7.4550,12.0580
7.4112,12.0287
7.3819,11.9849
7.3717,11.9332
7.3717,11.6632
7.3819,11.6116
7.4112,11.5678
7.4550,11.5385
7.5067,11.5282
Z" /> 
<path style="fill:#000000; fill-opacity:1.0000; stroke:none;fill-rule:evenodd;"
d="M 17.2367,4.9982
17.2367,3.9982
18.2367,3.9982
18.2367,4.9982
Z" /> 
<path style="fill:#000000; fill-opacity:1.0000; stroke:none;fill-rule:evenodd;"
d="M 8.3067,9.0682
8.2550,9.0580
8.2112,9.0287
8.1819,8.9849
8.1717,8.9332
8.1717,8.6632
8.1819,8.6116
8.2112,8.5678
8.2550,8.5385
8.3067,8.5282
8.6767,8.5282
8.7283,8.5385
8.7721,8.5678
8.8014,8.6116
8.8117,8.6632
8.8117,8.9332
8.8014,8.9849
8.7721,9.0287
8.7283,9.0580
8.6767,9.0682
Z" /> 
<path style="fill:#000000; fill-opacity:1.0000; stroke:none;fill-rule:evenodd;"
d="M 8.3067,8.0483
8.2550,8.0380
8.2112,8.0087
8.1819,7.9649
8.1717,7.9133
8.1717,7.6433
8.1819,7.5916
8.2112,7.5478
8.2550,7.5185
8.3067,7.5083
8.6767,7.5083
8.7283,7.5185
8.7721,7.5478
8.8014,7.5916
8.8117,7.6433
8.8117,7.9133
8.8014,7.9649
8.7721,8.0087
8.7283,8.0380
8.6767,8.0483
Z" /> 
<path style="fill:#000000; fill-opacity:1.0000; stroke:none;fill-rule:evenodd;"
d="M 7.7117,6.5982
7.7117,5.5983
8.7117,5.5983
8.7117,6.5982
Z" /> 
<path style="fill:#000000; fill-opacity:1.0000; stroke:none;fill-rule:evenodd;"
d="M 11.5217,6.5982
11.5217,5.5983
12.5217,5.5983
12.5217,6.5982
Z" /> 
<path style="fill:#000000; fill-opacity:1.0000; stroke:none;fill-rule:evenodd;"
d="M 13.4267,4.9982
13.4267,3.9982
14.4267,3.9982
14.4267,4.9982
Z" /> 
<path style="fill:#000000; fill-opacity:1.0000; stroke:none;fill-rule:evenodd;"
d="M 14.2867,12.7683
14.2867,11.7683
15.2867,11.7683
15.2867,12.7683
Z" /> 
<path style="fill:#000000; fill-opacity:1.0000; stroke:none;fill-rule:evenodd;"
d="M 8.3467,4.9982
8.3467,3.9982
9.3467,3.9982
9.3467,4.9982
Z" /> 
<path style="fill:#000000; fill-opacity:1.0000; stroke:none;fill-rule:evenodd;"
d="M 12.2217,11.8582
12.1681,11.8476
12.1227,11.8172
12.0923,11.7718
12.0817,11.7182
12.0817,11.4383
12.0923,11.3847
12.1227,11.3393
12.1681,11.3089
12.2217,11.2982
12.5617,11.2982
12.6152,11.3089
12.6607,11.3393
12.6910,11.3847
12.7017,11.4383
12.7017,11.7182
12.6910,11.7718
12.6607,11.8172
12.6152,11.8476
12.5617,11.8582
Z" /> 
<path style="fill:#000000; fill-opacity:1.0000; stroke:none;fill-rule:evenodd;"
d="M 12.2217,10.8982
12.1681,10.8876
12.1227,10.8572
12.0923,10.8118
12.0817,10.7583
12.0817,10.4782
12.0923,10.4247
12.1227,10.3793
12.1681,10.3489
12.2217,10.3383
12.5617,10.3383
12.6152,10.3489
12.6607,10.3793
12.6910,10.4247
12.7017,10.4782
12.7017,10.7583
12.6910,10.8118
12.6607,10.8572
12.6152,10.8876
12.5617,10.8982
Z" /> 
<path style="fill:#000000; fill-opacity:1.0000; stroke:none;fill-rule:evenodd;"
d="M 14.2867,11.4982
14.2867,10.4982
15.2867,10.4982
15.2867,11.4982
Z" /> 
<path style="fill:#000000; fill-opacity:1.0000; stroke:none;fill-rule:evenodd;"
d="M 20.3667,10.4982
20.3667,11.4982
19.3667,11.4982
19.3667,10.4982
Z" /> 
<path style="fill:#000000; fill-opacity:1.0000; stroke:none;fill-rule:evenodd;"
d="M 9.6167,4.9982
9.6167,3.9982
10.6167,3.9982
10.6167,4.9982
Z" /> 
<path style="fill:#000000; fill-opacity:1.0000; stroke:none;fill-rule:evenodd;"
d="M 12.7917,6.5982
12.7917,5.5983
13.7917,5.5983
13.7917,6.5982
Z" /> 
<path style="fill:#000000; fill-opacity:1.0000; stroke:none;fill-rule:evenodd;"
d="M 16.9667,3.9982
16.9667,4.9982
15.9667,4.9982
15.9667,3.9982
Z" /> 
<path style="fill:#000000; fill-opacity:1.0000; stroke:none;fill-rule:evenodd;"
d="M 9.2917,12.8783
9.2917,12.2183
9.5717,12.2183
9.5717,12.8783
Z" /> 
<path style="fill:#000000; fill-opacity:1.0000; stroke:none;fill-rule:evenodd;"
d="M 9.7917,12.8783
9.7917,12.2183
10.0717,12.2183
10.0717,12.8783
Z" /> 
<path style="fill:#000000; fill-opacity:1.0000; stroke:none;fill-rule:evenodd;"
d="M 10.2917,12.8783
10.2917,12.2183
10.5717,12.2183
10.5717,12.8783
Z" /> 
<path style="fill:#000000; fill-opacity:1.0000; stroke:none;fill-rule:evenodd;"
d="M 10.7917,12.8783
10.7917,12.2183
11.0717,12.2183
11.0717,12.8783
Z" /> 
<path style="fill:#000000; fill-opacity:1.0000; stroke:none;fill-rule:evenodd;"
d="M 11.2617,12.0283
11.2617,11.7483
11.9217,11.7483
11.9217,12.0283
Z" /> 
<path style="fill:#000000; fill-opacity:1.0000; stroke:none;fill-rule:evenodd;"
d="M 11.2617,11.5283
11.2617,11.2483
11.9217,11.2483
11.9217,11.5283
Z" /> 
<path style="fill:#000000; fill-opacity:1.0000; stroke:none;fill-rule:evenodd;"
d="M 11.2617,11.0283
11.2617,10.7483
11.9217,10.7483
11.9217,11.0283
Z" /> 
<path style="fill:#000000; fill-opacity:1.0000; stroke:none;fill-rule:evenodd;"
d="M 11.2617,10.5283
11.2617,10.2483
11.9217,10.2483
11.9217,10.5283
Z" /> 
<path style="fill:#000000; fill-opacity:1.0000; stroke:none;fill-rule:evenodd;"
d="M 10.7917,10.0583
10.7917,9.3983
11.0717,9.3983
11.0717,10.0583
Z" /> 
<path style="fill:#000000; fill-opacity:1.0000; stroke:none;fill-rule:evenodd;"
d="M 10.2917,10.0583
10.2917,9.3983
10.5717,9.3983
10.5717,10.0583
Z" /> 
<path style="fill:#000000; fill-opacity:1.0000; stroke:none;fill-rule:evenodd;"
d="M 9.7917,10.0583
9.7917,9.3983
10.0717,9.3983
10.0717,10.0583
Z" /> 
<path style="fill:#000000; fill-opacity:1.0000; stroke:none;fill-rule:evenodd;"
d="M 9.2917,10.0583
9.2917,9.3983
9.5717,9.3983
9.5717,10.0583
Z" /> 
<path style="fill:#000000; fill-opacity:1.0000; stroke:none;fill-rule:evenodd;"
d="M 8.4417,10.5283
8.4417,10.2483
9.1017,10.2483
9.1017,10.5283
Z" /> 
<path style="fill:#000000; fill-opacity:1.0000; stroke:none;fill-rule:evenodd;"
d="M 8.4417,11.0283
8.4417,10.7483
9.1017,10.7483
9.1017,11.0283
Z" /> 
<path style="fill:#000000; fill-opacity:1.0000; stroke:none;fill-rule:evenodd;"
d="M 8.4417,11.5283
8.4417,11.2483
9.1017,11.2483
9.1017,11.5283
Z" /> 
<path style="fill:#000000; fill-opacity:1.0000; stroke:none;fill-rule:evenodd;"
d="M 8.4417,12.0283
8.4417,11.7483
9.1017,11.7483
9.1017,12.0283
Z" /> 
<path style="fill:#000000; fill-opacity:1.0000; stroke:none;fill-rule:evenodd;"
d="M 9.3067,12.0133
9.3067,10.2633
11.0567,10.2633
11.0567,12.0133
Z" /> 
<path style="fill:#000000; fill-opacity:1.0000; stroke:none;fill-rule:evenodd;"
d="M 10.8867,4.9982
10.8867,3.9982
11.8867,3.9982
11.8867,4.9982
Z" /> 
<path style="fill:#000000; fill-opacity:1.0000; stroke:none;fill-rule:evenodd;"
d="M 6.4417,6.5982
6.4417,5.5983
7.4417,5.5983
7.4417,6.5982
Z" /> 
<path style="fill:#000000; fill-opacity:1.0000; stroke:none;fill-rule:evenodd;"
d="M 19.3667,12.7683
19.3667,11.7683
20.3667,11.7683
20.3667,12.7683
Z" /> 
<path style="fill:#000000; fill-opacity:1.0000; stroke:none;fill-rule:evenodd;"
d="M 6.8617,10.5283
6.9152,10.5389
6.9607,10.5693
6.9910,10.6147
7.0017,10.6683
7.0017,10.9483
6.9910,11.0018
6.9607,11.0472
6.9152,11.0776
6.8617,11.0883
6.5217,11.0883
6.4681,11.0776
6.4227,11.0472
6.3923,11.0018
6.3817,10.9483
6.3817,10.6683
6.3923,10.6147
6.4227,10.5693
6.4681,10.5389
6.5217,10.5283
Z" /> 
<path style="fill:#000000; fill-opacity:1.0000; stroke:none;fill-rule:evenodd;"
d="M 6.8617,11.4883
6.9152,11.4989
6.9607,11.5293
6.9910,11.5747
7.0017,11.6283
7.0017,11.9083
6.9910,11.9618
6.9607,12.0072
6.9152,12.0376
6.8617,12.0483
6.5217,12.0483
6.4681,12.0376
6.4227,12.0072
6.3923,11.9618
6.3817,11.9083
6.3817,11.6283
6.3923,11.5747
6.4227,11.5293
6.4681,11.4989
6.5217,11.4883
Z" /> 
<path style="fill:#000000; fill-opacity:1.0000; stroke:none;fill-rule:evenodd;"
d="M 7.6617,7.5283
7.7152,7.5389
7.7607,7.5693
7.7910,7.6147
7.8017,7.6683
7.8017,7.9483
7.7910,8.0018
7.7607,8.0472
7.7152,8.0776
7.6617,8.0883
7.3217,8.0883
7.2681,8.0776
7.2227,8.0472
7.1923,8.0018
7.1817,7.9483
7.1817,7.6683
7.1923,7.6147
7.2227,7.5693
7.2681,7.5389
7.3217,7.5283
Z" /> 
<path style="fill:#000000; fill-opacity:1.0000; stroke:none;fill-rule:evenodd;"
d="M 7.6617,8.4883
7.7152,8.4989
7.7607,8.5293
7.7910,8.5747
7.8017,8.6283
7.8017,8.9083
7.7910,8.9618
7.7607,9.0072
7.7152,9.0376
7.6617,9.0483
7.3217,9.0483
7.2681,9.0376
7.2227,9.0072
7.1923,8.9618
7.1817,8.9083
7.1817,8.6283
7.1923,8.5747
7.2227,8.5293
7.2681,8.4989
7.3217,8.4883
Z" /> 
<path style="fill:#000000; fill-opacity:1.0000; stroke:none;fill-rule:evenodd;"
d="M 19.0967,10.4982
19.0967,11.4982
18.0967,11.4982
18.0967,10.4982
Z" /> 
<path style="fill:#000000; fill-opacity:1.0000; stroke:none;fill-rule:evenodd;"
d="M 18.0967,12.7683
18.0967,11.7683
19.0967,11.7683
19.0967,12.7683
Z" /> 
<path style="fill:#000000; fill-opacity:1.0000; stroke:none;fill-rule:evenodd;"
d="M 8.9817,6.5982
8.9817,5.5983
9.9817,5.5983
9.9817,6.5982
Z" /> 
<path style="fill:#000000; fill-opacity:1.0000; stroke:none;fill-rule:evenodd;"
d="M 10.2517,6.5982
10.2517,5.5983
11.2517,5.5983
11.2517,6.5982
Z" /> 
<path style="fill:#000000; fill-opacity:1.0000; stroke:none;fill-rule:evenodd;"
d="M 8.0717,9.9733
8.0614,10.0249
8.0321,10.0687
7.9883,10.0980
7.9367,10.1083
7.6667,10.1083
7.6150,10.0980
7.5712,10.0687
7.5419,10.0249
7.5317,9.9733
7.5317,9.6033
7.5419,9.5516
7.5712,9.5078
7.6150,9.4785
7.6667,9.4683
7.9367,9.4683
7.9883,9.4785
8.0321,9.5078
8.0614,9.5516
8.0717,9.6033
Z" /> 
<path style="fill:#000000; fill-opacity:1.0000; stroke:none;fill-rule:evenodd;"
d="M 7.0517,9.9733
7.0414,10.0249
7.0121,10.0687
6.9683,10.0980
6.9167,10.1083
6.6467,10.1083
6.5950,10.0980
6.5512,10.0687
6.5219,10.0249
6.5117,9.9733
6.5117,9.6033
6.5219,9.5516
6.5512,9.5078
6.5950,9.4785
6.6467,9.4683
6.9167,9.4683
6.9683,9.4785
7.0121,9.5078
7.0414,9.5516
7.0517,9.6033
Z" /> 
<path style="fill:#000000; fill-opacity:1.0000; stroke:none;fill-rule:evenodd;"
d="M 9.6767,7.5083
9.7283,7.5185
9.7721,7.5478
9.8014,7.5916
9.8117,7.6433
9.8117,7.9133
9.8014,7.9649
9.7721,8.0087
9.7283,8.0380
9.6767,8.0483
9.3067,8.0483
9.2550,8.0380
9.2112,8.0087
9.1819,7.9649
9.1717,7.9133
9.1717,7.6433
9.1819,7.5916
9.2112,7.5478
9.2550,7.5185
9.3067,7.5083
Z" /> 
<path style="fill:#000000; fill-opacity:1.0000; stroke:none;fill-rule:evenodd;"
d="M 9.6767,8.5282
9.7283,8.5385
9.7721,8.5678
9.8014,8.6116
9.8117,8.6632
9.8117,8.9332
9.8014,8.9849
9.7721,9.0287
9.7283,9.0580
9.6767,9.0682
9.3067,9.0682
9.2550,9.0580
9.2112,9.0287
9.1819,8.9849
9.1717,8.9332
9.1717,8.6632
9.1819,8.6116
9.2112,8.5678
9.2550,8.5385
9.3067,8.5282
Z" /> 
<path style="fill:#000000; fill-opacity:1.0000; stroke:none;fill-rule:evenodd;"
d="M 15.5567,11.4982
15.5567,10.4982
16.5567,10.4982
16.5567,11.4982
Z" /> 
<path style="fill:#000000; fill-opacity:1.0000; stroke:none;fill-rule:evenodd;"
d="M 12.1567,4.9982
12.1567,3.9982
13.1567,3.9982
13.1567,4.9982
Z" /> 
<path style="fill:#000000; fill-opacity:1.0000; stroke:none;fill-rule:evenodd;"
d="M 15.5567,12.7683
15.5567,11.7683
16.5567,11.7683
16.5567,12.7683
Z" /> 
<path style="fill:#000000; fill-opacity:1.0000; stroke:none;fill-rule:evenodd;"
d="M 13.2217,11.8582
13.1681,11.8476
13.1227,11.8172
13.0923,11.7718
13.0817,11.7182
13.0817,11.4383
13.0923,11.3847
13.1227,11.3393
13.1681,11.3089
13.2217,11.2982
13.5617,11.2982
13.6152,11.3089
13.6607,11.3393
13.6910,11.3847
13.7017,11.4383
13.7017,11.7182
13.6910,11.7718
13.6607,11.8172
13.6152,11.8476
13.5617,11.8582
Z" /> 
<path style="fill:#000000; fill-opacity:1.0000; stroke:none;fill-rule:evenodd;"
d="M 13.2217,10.8982
13.1681,10.8876
13.1227,10.8572
13.0923,10.8118
13.0817,10.7583
13.0817,10.4782
13.0923,10.4247
13.1227,10.3793
13.1681,10.3489
13.2217,10.3383
13.5617,10.3383
13.6152,10.3489
13.6607,10.3793
13.6910,10.4247
13.7017,10.4782
13.7017,10.7583
13.6910,10.8118
13.6607,10.8572
13.6152,10.8876
13.5617,10.8982
Z" /> 
<path style="fill:#000000; fill-opacity:1.0000; stroke:none;fill-rule:evenodd;"
d="M 14.6967,4.9982
14.6967,3.9982
15.6967,3.9982
15.6967,4.9982
Z" /> 
<path style="fill:#000000; fill-opacity:1.0000; stroke:none;fill-rule:evenodd;"
d="M 11.3567,7.7658
11.3757,7.6701
11.4299,7.5890
11.5110,7.5348
11.6067,7.5158
12.2317,7.5158
12.3273,7.5348
12.4084,7.5890
12.4626,7.6701
12.4817,7.7658
12.4817,9.0158
12.4626,9.1114
12.4084,9.1925
12.3273,9.2467
12.2317,9.2658
11.6067,9.2658
11.5110,9.2467
11.4299,9.1925
11.3757,9.1114
11.3567,9.0158
Z" /> 
<path style="fill:#000000; fill-opacity:1.0000; stroke:none;fill-rule:evenodd;"
d="M 14.2817,7.7658
14.3007,7.6701
14.3549,7.5890
14.4360,7.5348
14.5317,7.5158
15.1567,7.5158
15.2523,7.5348
15.3334,7.5890
15.3876,7.6701
15.4067,7.7658
15.4067,9.0158
15.3876,9.1114
15.3334,9.1925
15.2523,9.2467
15.1567,9.2658
14.5317,9.2658
14.4360,9.2467
14.3549,9.1925
14.3007,9.1114
14.2817,9.0158
Z" /> 
<path style="fill:#000000; fill-opacity:1.0000; stroke:none;fill-rule:evenodd;"
d="M 17.8267,10.4982
17.8267,11.4982
16.8267,11.4982
16.8267,10.4982
Z" /> 
<path style="fill:#000000; fill-opacity:1.0000; stroke:none;fill-rule:evenodd;"
d="M 16.8267,12.7683
16.8267,11.7683
17.8267,11.7683
17.8267,12.7683
Z" /> 
<path style="fill:#000000; fill-opacity:1.0000; stroke:none;fill-rule:evenodd;"
d="M 10.3067,9.0682
10.2550,9.0580
10.2112,9.0287
10.1819,8.9849
10.1717,8.9332
10.1717,8.6632
10.1819,8.6116
10.2112,8.5678
10.2550,8.5385
10.3067,8.5282
10.6767,8.5282
10.7283,8.5385
10.7721,8.5678
10.8014,8.6116
10.8117,8.6632
10.8117,8.9332
10.8014,8.9849
10.7721,9.0287
10.7283,9.0580
10.6767,9.0682
Z" /> 
<path style="fill:#000000; fill-opacity:1.0000; stroke:none;fill-rule:evenodd;"
d="M 10.3067,8.0483
10.2550,8.0380
10.2112,8.0087
10.1819,7.9649
10.1717,7.9133
10.1717,7.6433
10.1819,7.5916
10.2112,7.5478
10.2550,7.5185
10.3067,7.5083
10.6767,7.5083
10.7283,7.5185
10.7721,7.5478
10.8014,7.5916
10.8117,7.6433
10.8117,7.9133
10.8014,7.9649
10.7721,8.0087
10.7283,8.0380
10.6767,8.0483
Z" /> 
<path style="fill:#000000; fill-opacity:1.0000; stroke:none;fill-rule:evenodd;"
d="M 7.8767,10.5083
7.9283,10.5185
7.9721,10.5478
8.0014,10.5916
8.0117,10.6433
8.0117,10.9133
8.0014,10.9649
7.9721,11.0087
7.9283,11.0380
7.8767,11.0483
7.5067,11.0483
7.4550,11.0380
7.4112,11.0087
7.3819,10.9649
7.3717,10.9133
7.3717,10.6433
7.3819,10.5916
7.4112,10.5478
7.4550,10.5185
7.5067,10.5083
Z" /> 
<path style="fill:#000000; fill-opacity:1.0000; stroke:none;fill-rule:evenodd;"
d="M 7.8767,11.5282
7.9283,11.5385
7.9721,11.5678
8.0014,11.6116
8.0117,11.6632
8.0117,11.9332
8.0014,11.9849
7.9721,12.0287
7.9283,12.0580
7.8767,12.0682
7.5067,12.0682
7.4550,12.0580
7.4112,12.0287
7.3819,11.9849
7.3717,11.9332
7.3717,11.6632
7.3819,11.6116
7.4112,11.5678
7.4550,11.5385
7.5067,11.5282
Z" /> 
<path style="fill:#000000; fill-opacity:1.0000; stroke:none;fill-rule:evenodd;"
d="M 8.3067,9.0682
8.2550,9.0580
8.2112,9.0287
8.1819,8.9849
8.1717,8.9332
8.1717,8.6632
8.1819,8.6116
8.2112,8.5678
8.2550,8.5385
8.3067,8.5282
8.6767,8.5282
8.7283,8.5385
8.7721,8.5678
8.8014,8.6116
8.8117,8.6632
8.8117,8.9332
8.8014,8.9849
8.7721,9.0287
8.7283,9.0580
8.6767,9.0682
Z" /> 
<path style="fill:#000000; fill-opacity:1.0000; stroke:none;fill-rule:evenodd;"
d="M 8.3067,8.0483
8.2550,8.0380
8.2112,8.0087
8.1819,7.9649
8.1717,7.9133
8.1717,7.6433
8.1819,7.5916
8.2112,7.5478
8.2550,7.5185
8.3067,7.5083
8.6767,7.5083
8.7283,7.5185
8.7721,7.5478
8.8014,7.5916
8.8117,7.6433
8.8117,7.9133
8.8014,7.9649
8.7721,8.0087
8.7283,8.0380
8.6767,8.0483
Z" /> 
<path style="fill:#000000; fill-opacity:1.0000; stroke:none;fill-rule:evenodd;"
d="M 12.2217,11.8582
12.1681,11.8476
12.1227,11.8172
12.0923,11.7718
12.0817,11.7182
12.0817,11.4383
12.0923,11.3847
12.1227,11.3393
12.1681,11.3089
12.2217,11.2982
12.5617,11.2982
12.6152,11.3089
12.6607,11.3393
12.6910,11.3847
12.7017,11.4383
12.7017,11.7182
12.6910,11.7718
12.6607,11.8172
12.6152,11.8476
12.5617,11.8582
Z" /> 
<path style="fill:#000000; fill-opacity:1.0000; stroke:none;fill-rule:evenodd;"
d="M 12.2217,10.8982
12.1681,10.8876
12.1227,10.8572
12.0923,10.8118
12.0817,10.7583
12.0817,10.4782
12.0923,10.4247
12.1227,10.3793
12.1681,10.3489
12.2217,10.3383
12.5617,10.3383
12.6152,10.3489
12.6607,10.3793
12.6910,10.4247
12.7017,10.4782
12.7017,10.7583
12.6910,10.8118
12.6607,10.8572
12.6152,10.8876
12.5617,10.8982
Z" /> 
<path style="fill:#000000; fill-opacity:1.0000; stroke:none;fill-rule:evenodd;"
d="M 9.2917,12.8783
9.2917,12.2183
9.5717,12.2183
9.5717,12.8783
Z" /> 
<path style="fill:#000000; fill-opacity:1.0000; stroke:none;fill-rule:evenodd;"
d="M 9.7917,12.8783
9.7917,12.2183
10.0717,12.2183
10.0717,12.8783
Z" /> 
<path style="fill:#000000; fill-opacity:1.0000; stroke:none;fill-rule:evenodd;"
d="M 10.2917,12.8783
10.2917,12.2183
10.5717,12.2183
10.5717,12.8783
Z" /> 
<path style="fill:#000000; fill-opacity:1.0000; stroke:none;fill-rule:evenodd;"
d="M 10.7917,12.8783
10.7917,12.2183
11.0717,12.2183
11.0717,12.8783
Z" /> 
<path style="fill:#000000; fill-opacity:1.0000; stroke:none;fill-rule:evenodd;"
d="M 11.2617,12.0283
11.2617,11.7483
11.9217,11.7483
11.9217,12.0283
Z" /> 
<path style="fill:#000000; fill-opacity:1.0000; stroke:none;fill-rule:evenodd;"
d="M 11.2617,11.5283
11.2617,11.2483
11.9217,11.2483
11.9217,11.5283
Z" /> 
<path style="fill:#000000; fill-opacity:1.0000; stroke:none;fill-rule:evenodd;"
d="M 11.2617,11.0283
11.2617,10.7483
11.9217,10.7483
11.9217,11.0283
Z" /> 
<path style="fill:#000000; fill-opacity:1.0000; stroke:none;fill-rule:evenodd;"
d="M 11.2617,10.5283
11.2617,10.2483
11.9217,10.2483
11.9217,10.5283
Z" /> 
<path style="fill:#000000; fill-opacity:1.0000; stroke:none;fill-rule:evenodd;"
d="M 10.7917,10.0583
10.7917,9.3983
11.0717,9.3983
11.0717,10.0583
Z" /> 
<path style="fill:#000000; fill-opacity:1.0000; stroke:none;fill-rule:evenodd;"
d="M 10.2917,10.0583
10.2917,9.3983
10.5717,9.3983
10.5717,10.0583
Z" /> 
<path style="fill:#000000; fill-opacity:1.0000; stroke:none;fill-rule:evenodd;"
d="M 9.7917,10.0583
9.7917,9.3983
10.0717,9.3983
10.0717,10.0583
Z" /> 
<path style="fill:#000000; fill-opacity:1.0000; stroke:none;fill-rule:evenodd;"
d="M 9.2917,10.0583
9.2917,9.3983
9.5717,9.3983
9.5717,10.0583
Z" /> 
<path style="fill:#000000; fill-opacity:1.0000; stroke:none;fill-rule:evenodd;"
d="M 8.4417,10.5283
8.4417,10.2483
9.1017,10.2483
9.1017,10.5283
Z" /> 
<path style="fill:#000000; fill-opacity:1.0000; stroke:none;fill-rule:evenodd;"
d="M 8.4417,11.0283
8.4417,10.7483
9.1017,10.7483
9.1017,11.0283
Z" /> 
<path style="fill:#000000; fill-opacity:1.0000; stroke:none;fill-rule:evenodd;"
d="M 8.4417,11.5283
8.4417,11.2483
9.1017,11.2483
9.1017,11.5283
Z" /> 
<path style="fill:#000000; fill-opacity:1.0000; stroke:none;fill-rule:evenodd;"
d="M 8.4417,12.0283
8.4417,11.7483
9.1017,11.7483
9.1017,12.0283
Z" /> 
<path style="fill:#000000; fill-opacity:1.0000; stroke:none;fill-rule:evenodd;"
d="M 9.3067,12.0133
9.3067,10.2633
11.0567,10.2633
11.0567,12.0133
Z" /> 
<path style="fill:#000000; fill-opacity:1.0000; stroke:none;fill-rule:evenodd;"
d="M 6.8617,10.5283
6.9152,10.5389
6.9607,10.5693
6.9910,10.6147
7.0017,10.6683
7.0017,10.9483
6.9910,11.0018
6.9607,11.0472
6.9152,11.0776
6.8617,11.0883
6.5217,11.0883
6.4681,11.0776
6.4227,11.0472
6.3923,11.0018
6.3817,10.9483
6.3817,10.6683
6.3923,10.6147
6.4227,10.5693
6.4681,10.5389
6.5217,10.5283
Z" /> 
<path style="fill:#000000; fill-opacity:1.0000; stroke:none;fill-rule:evenodd;"
d="M 6.8617,11.4883
6.9152,11.4989
6.9607,11.5293
6.9910,11.5747
7.0017,11.6283
7.0017,11.9083
6.9910,11.9618
6.9607,12.0072
6.9152,12.0376
6.8617,12.0483
6.5217,12.0483
6.4681,12.0376
6.4227,12.0072
6.3923,11.9618
6.3817,11.9083
6.3817,11.6283
6.3923,11.5747
6.4227,11.5293
6.4681,11.4989
6.5217,11.4883
Z" /> 
<path style="fill:#000000; fill-opacity:1.0000; stroke:none;fill-rule:evenodd;"
d="M 7.6617,7.5283
7.7152,7.5389
7.7607,7.5693
7.7910,7.6147
7.8017,7.6683
7.8017,7.9483
7.7910,8.0018
7.7607,8.0472
7.7152,8.0776
7.6617,8.0883
7.3217,8.0883
7.2681,8.0776
7.2227,8.0472
7.1923,8.0018
7.1817,7.9483
7.1817,7.6683
7.1923,7.6147
7.2227,7.5693
7.2681,7.5389
7.3217,7.5283
Z" /> 
<path style="fill:#000000; fill-opacity:1.0000; stroke:none;fill-rule:evenodd;"
d="M 7.6617,8.4883
7.7152,8.4989
7.7607,8.5293
7.7910,8.5747
7.8017,8.6283
7.8017,8.9083
7.7910,8.9618
7.7607,9.0072
7.7152,9.0376
7.6617,9.0483
7.3217,9.0483
7.2681,9.0376
7.2227,9.0072
7.1923,8.9618
7.1817,8.9083
7.1817,8.6283
7.1923,8.5747
7.2227,8.5293
7.2681,8.4989
7.3217,8.4883
Z" /> 
<path style="fill:#000000; fill-opacity:1.0000; stroke:none;fill-rule:evenodd;"
d="M 8.0717,9.9733
8.0614,10.0249
8.0321,10.0687
7.9883,10.0980
7.9367,10.1083
7.6667,10.1083
7.6150,10.0980
7.5712,10.0687
7.5419,10.0249
7.5317,9.9733
7.5317,9.6033
7.5419,9.5516
7.5712,9.5078
7.6150,9.4785
7.6667,9.4683
7.9367,9.4683
7.9883,9.4785
8.0321,9.5078
8.0614,9.5516
8.0717,9.6033
Z" /> 
<path style="fill:#000000; fill-opacity:1.0000; stroke:none;fill-rule:evenodd;"
d="M 7.0517,9.9733
7.0414,10.0249
7.0121,10.0687
6.9683,10.0980
6.9167,10.1083
6.6467,10.1083
6.5950,10.0980
6.5512,10.0687
6.5219,10.0249
6.5117,9.9733
6.5117,9.6033
6.5219,9.5516
6.5512,9.5078
6.5950,9.4785
6.6467,9.4683
6.9167,9.4683
6.9683,9.4785
7.0121,9.5078
7.0414,9.5516
7.0517,9.6033
Z" /> 
<path style="fill:#000000; fill-opacity:1.0000; stroke:none;fill-rule:evenodd;"
d="M 9.6767,7.5083
9.7283,7.5185
9.7721,7.5478
9.8014,7.5916
9.8117,7.6433
9.8117,7.9133
9.8014,7.9649
9.7721,8.0087
9.7283,8.0380
9.6767,8.0483
9.3067,8.0483
9.2550,8.0380
9.2112,8.0087
9.1819,7.9649
9.1717,7.9133
9.1717,7.6433
9.1819,7.5916
9.2112,7.5478
9.2550,7.5185
9.3067,7.5083
Z" /> 
<path style="fill:#000000; fill-opacity:1.0000; stroke:none;fill-rule:evenodd;"
d="M 9.6767,8.5282
9.7283,8.5385
9.7721,8.5678
9.8014,8.6116
9.8117,8.6632
9.8117,8.9332
9.8014,8.9849
9.7721,9.0287
9.7283,9.0580
9.6767,9.0682
9.3067,9.0682
9.2550,9.0580
9.2112,9.0287
9.1819,8.9849
9.1717,8.9332
9.1717,8.6632
9.1819,8.6116
9.2112,8.5678
9.2550,8.5385
9.3067,8.5282
Z" /> 
<path style="fill:#000000; fill-opacity:1.0000; stroke:none;fill-rule:evenodd;"
d="M 13.2217,11.8582
13.1681,11.8476
13.1227,11.8172
13.0923,11.7718
13.0817,11.7182
13.0817,11.4383
13.0923,11.3847
13.1227,11.3393
13.1681,11.3089
13.2217,11.2982
13.5617,11.2982
13.6152,11.3089
13.6607,11.3393
13.6910,11.3847
13.7017,11.4383
13.7017,11.7182
13.6910,11.7718
13.6607,11.8172
13.6152,11.8476
13.5617,11.8582
Z" /> 
<path style="fill:#000000; fill-opacity:1.0000; stroke:none;fill-rule:evenodd;"
d="M 13.2217,10.8982
13.1681,10.8876
13.1227,10.8572
13.0923,10.8118
13.0817,10.7583
13.0817,10.4782
13.0923,10.4247
13.1227,10.3793
13.1681,10.3489
13.2217,10.3383
13.5617,10.3383
13.6152,10.3489
13.6607,10.3793
13.6910,10.4247
13.7017,10.4782
13.7017,10.7583
13.6910,10.8118
13.6607,10.8572
13.6152,10.8876
13.5617,10.8982
Z" /> 
<path style="fill:#000000; fill-opacity:1.0000; stroke:none;fill-rule:evenodd;"
d="M 11.3567,7.7658
11.3757,7.6701
11.4299,7.5890
11.5110,7.5348
11.6067,7.5158
12.2317,7.5158
12.3273,7.5348
12.4084,7.5890
12.4626,7.6701
12.4817,7.7658
12.4817,9.0158
12.4626,9.1114
12.4084,9.1925
12.3273,9.2467
12.2317,9.2658
11.6067,9.2658
11.5110,9.2467
11.4299,9.1925
11.3757,9.1114
11.3567,9.0158
Z" /> 
<path style="fill:#000000; fill-opacity:1.0000; stroke:none;fill-rule:evenodd;"
d="M 14.2817,7.7658
14.3007,7.6701
14.3549,7.5890
14.4360,7.5348
14.5317,7.5158
15.1567,7.5158
15.2523,7.5348
15.3334,7.5890
15.3876,7.6701
15.4067,7.7658
15.4067,9.0158
15.3876,9.1114
15.3334,9.1925
15.2523,9.2467
15.1567,9.2658
14.5317,9.2658
14.4360,9.2467
14.3549,9.1925
14.3007,9.1114
14.2817,9.0158
Z" /> 
</g>
<g style="fill:none; 
stroke:#000000; stroke-width:0.1500; stroke-opacity:1; 
stroke-linecap:round; stroke-linejoin:round;">
<text x="16.2917" y="14.0983"
textLength="8.6310" font-size="1.3333" lengthAdjust="spacingAndGlyphs"
text-anchor="middle" opacity="0" stroke-opacity="0">CleverHand</text>
<g class="stroked-text"><desc>CleverHand</desc>
<path d="M12.9107 13.9578
L12.8631 14.0054
" />
<path d="M12.8631 14.0054
L12.7202 14.0531
" />
<path d="M12.7202 14.0531
L12.6250 14.0531
" />
<path d="M12.6250 14.0531
L12.4821 14.0054
" />
<path d="M12.4821 14.0054
L12.3869 13.9102
" />
<path d="M12.3869 13.9102
L12.3393 13.8150
" />
<path d="M12.3393 13.8150
L12.2917 13.6245
" />
<path d="M12.2917 13.6245
L12.2917 13.4816
" />
<path d="M12.2917 13.4816
L12.3393 13.2912
" />
<path d="M12.3393 13.2912
L12.3869 13.1959
" />
<path d="M12.3869 13.1959
L12.4821 13.1007
" />
<path d="M12.4821 13.1007
L12.6250 13.0531
" />
<path d="M12.6250 13.0531
L12.7202 13.0531
" />
<path d="M12.7202 13.0531
L12.8631 13.1007
" />
<path d="M12.8631 13.1007
L12.9107 13.1483
" />
<path d="M13.4821 14.0531
L13.3869 14.0054
" />
<path d="M13.3869 14.0054
L13.3393 13.9102
" />
<path d="M13.3393 13.9102
L13.3393 13.0531
" />
<path d="M14.2440 14.0054
L14.1488 14.0531
" />
<path d="M14.1488 14.0531
L13.9583 14.0531
" />
<path d="M13.9583 14.0531
L13.8631 14.0054
" />
<path d="M13.8631 14.0054
L13.8155 13.9102
" />
<path d="M13.8155 13.9102
L13.8155 13.5293
" />
<path d="M13.8155 13.5293
L13.8631 13.4340
" />
<path d="M13.8631 13.4340
L13.9583 13.3864
" />
<path d="M13.9583 13.3864
L14.1488 13.3864
" />
<path d="M14.1488 13.3864
L14.2440 13.4340
" />
<path d="M14.2440 13.4340
L14.2917 13.5293
" />
<path d="M14.2917 13.5293
L14.2917 13.6245
" />
<path d="M14.2917 13.6245
L13.8155 13.7197
" />
<path d="M14.6250 13.3864
L14.8631 14.0531
" />
<path d="M14.8631 14.0531
L15.1012 13.3864
" />
<path d="M15.8631 14.0054
L15.7679 14.0531
" />
<path d="M15.7679 14.0531
L15.5774 14.0531
" />
<path d="M15.5774 14.0531
L15.4821 14.0054
" />
<path d="M15.4821 14.0054
L15.4345 13.9102
" />
<path d="M15.4345 13.9102
L15.4345 13.5293
" />
<path d="M15.4345 13.5293
L15.4821 13.4340
" />
<path d="M15.4821 13.4340
L15.5774 13.3864
" />
<path d="M15.5774 13.3864
L15.7679 13.3864
" />
<path d="M15.7679 13.3864
L15.8631 13.4340
" />
<path d="M15.8631 13.4340
L15.9107 13.5293
" />
<path d="M15.9107 13.5293
L15.9107 13.6245
" />
<path d="M15.9107 13.6245
L15.4345 13.7197
" />
<path d="M16.3393 14.0531
L16.3393 13.3864
" />
<path d="M16.3393 13.5769
L16.3869 13.4816
" />
<path d="M16.3869 13.4816
L16.4345 13.4340
" />
<path d="M16.4345 13.4340
L16.5298 13.3864
" />
<path d="M16.5298 13.3864
L16.6250 13.3864
" />
<path d="M16.9583 14.0531
L16.9583 13.0531
" />
<path d="M16.9583 13.5293
L17.5298 13.5293
" />
<path d="M17.5298 14.0531
L17.5298 13.0531
" />
<path d="M18.4345 14.0531
L18.4345 13.5293
" />
<path d="M18.4345 13.5293
L18.3869 13.4340
" />
<path d="M18.3869 13.4340
L18.2917 13.3864
" />
<path d="M18.2917 13.3864
L18.1012 13.3864
" />
<path d="M18.1012 13.3864
L18.0060 13.4340
" />
<path d="M18.4345 14.0054
L18.3393 14.0531
" />
<path d="M18.3393 14.0531
L18.1012 14.0531
" />
<path d="M18.1012 14.0531
L18.0060 14.0054
" />
<path d="M18.0060 14.0054
L17.9583 13.9102
" />
<path d="M17.9583 13.9102
L17.9583 13.8150
" />
<path d="M17.9583 13.8150
L18.0060 13.7197
" />
<path d="M18.0060 13.7197
L18.1012 13.6721
" />
<path d="M18.1012 13.6721
L18.3393 13.6721
" />
<path d="M18.3393 13.6721
L18.4345 13.6245
" />
<path d="M18.9107 13.3864
L18.9107 14.0531
" />
<path d="M18.9107 13.4816
L18.9583 13.4340
" />
<path d="M18.9583 13.4340
L19.0536 13.3864
" />
<path d="M19.0536 13.3864
L19.1964 13.3864
" />
<path d="M19.1964 13.3864
L19.2917 13.4340
" />
<path d="M19.2917 13.4340
L19.3393 13.5293
" />
<path d="M19.3393 13.5293
L19.3393 14.0531
" />
<path d="M20.2440 14.0531
L20.2440 13.0531
" />
<path d="M20.2440 14.0054
L20.1488 14.0531
" />
<path d="M20.1488 14.0531
L19.9583 14.0531
" />
<path d="M19.9583 14.0531
L19.8631 14.0054
" />
<path d="M19.8631 14.0054
L19.8155 13.9578
" />
<path d="M19.8155 13.9578
L19.7679 13.8626
" />
<path d="M19.7679 13.8626
L19.7679 13.5769
" />
<path d="M19.7679 13.5769
L19.8155 13.4816
" />
<path d="M19.8155 13.4816
L19.8631 13.4340
" />
<path d="M19.8631 13.4340
L19.9583 13.3864
" />
<path d="M19.9583 13.3864
L20.1488 13.3864
" />
<path d="M20.1488 13.3864
L20.2440 13.4340
" />
</g></g>
<g style="fill:none; 
stroke:#000000; stroke-width:0.1200; stroke-opacity:1; 
stroke-linecap:round; stroke-linejoin:round;">
<path d="M10.1117 8.4419
L10.1117 8.1346
" />
<path d="M10.8717 8.4419
L10.8717 8.1346
" />
<path d="M7.3117 11.1346
L7.3117 11.4419
" />
<path d="M8.0717 11.1346
L8.0717 11.4419
" />
<path d="M8.1117 8.4419
L8.1117 8.1346
" />
<path d="M8.8717 8.4419
L8.8717 8.1346
" />
<path d="M12.0317 11.2061
L12.0317 10.9904
" />
<path d="M12.7517 11.2061
L12.7517 10.9904
" />
<path style="fill:#000000; fill-opacity:1.0000; stroke:none;fill-rule:evenodd;"
d="M 18.7344,8.4292
18.7644,8.5036
18.7325,8.5775
18.6549,8.6100
18.5799,8.5768
18.5505,8.5036
18.5792,8.4298
18.6562,8.3960
Z" /> 
<path style="fill:#000000; fill-opacity:1.0000; stroke:none;fill-rule:evenodd;"
d="M 19.7390,6.8419
19.7694,6.9187
19.7364,6.9949
19.6564,7.0292
19.5783,6.9949
19.5472,6.9193
19.5770,6.8425
19.6577,6.8069
Z" /> 
<path style="fill:#000000; fill-opacity:1.0000; stroke:none;fill-rule:evenodd;"
d="M 20.5496,9.5488
20.0369,9.5488
19.9268,9.5488
19.1686,9.5488
18.4391,9.5488
17.9568,9.5488
17.2116,9.5488
16.3896,9.5488
16.0568,9.5488
15.5441,9.5488
14.4338,9.5488
14.7066,8.6394
16.0568,8.6394
16.0893,8.7113
16.1005,8.7251
16.1368,8.7633
16.1931,8.8027
16.2782,8.8383
16.3323,8.8491
16.3896,8.8527
16.4648,8.8454
16.5370,8.8233
16.6060,8.7864
16.6536,8.7456
16.6911,8.6907
16.7155,8.6239
16.7237,8.5474
16.7157,8.4725
16.6918,8.4104
16.6559,8.3630
16.6123,8.3322
16.5626,8.3114
16.5084,8.2941
16.4543,8.2804
16.4046,8.2709
16.3251,8.2421
16.2932,8.1864
16.3201,8.1326
16.3877,8.1132
16.4546,8.1295
16.4740,8.1458
16.4884,8.1583
16.5535,8.1833
16.5979,8.1677
16.6411,8.1208
16.6711,8.0519
16.6458,8.0119
16.7737,8.0119
16.7800,8.0645
16.8050,8.0939
16.8638,8.1032
17.1040,8.1032
17.1040,8.7314
17.1059,8.7745
17.1172,8.8071
17.1497,8.8327
17.2116,8.8402
17.2742,8.8327
17.3074,8.8071
17.3186,8.7752
17.3204,8.7339
17.7009,8.7339
17.7246,8.7814
17.7999,8.8203
17.8773,8.8437
17.9568,8.8515
18.0673,8.8418
18.1576,8.8127
18.2258,8.7445
18.2441,8.6940
18.2502,8.6338
18.2441,8.5742
18.2258,8.5255
18.1651,8.4648
18.0863,8.4336
18.0049,8.4173
17.9411,8.3995
17.9198,8.3685
17.9937,8.3410
18.0819,8.3597
18.1376,8.3785
18.1939,8.3347
18.2111,8.2884
18.3315,8.2884
18.3315,9.0191
18.3334,9.0617
18.3446,9.0930
18.3772,9.1180
18.4391,9.1255
18.5004,9.1180
18.5323,9.0923
18.5436,9.0604
18.5455,9.0179
18.5455,8.7651
18.6058,8.8083
18.6944,8.8227
18.7614,8.8120
18.8259,8.7799
18.8877,8.7264
18.9381,8.6586
18.9683,8.5840
18.9784,8.5024
18.9682,8.4208
18.9378,8.3461
18.8964,8.2909
19.0597,8.2909
19.0597,8.7301
19.0616,8.7739
19.0722,8.8064
19.1051,8.8318
19.1686,8.8402
19.2327,8.8321
19.2649,8.8077
19.2768,8.7745
19.2787,8.7314
19.2787,8.2934
19.2784,8.2859
19.3788,8.2859
19.3788,8.7289
19.3807,8.7720
19.3913,8.8052
19.4241,8.8305
19.4876,8.8390
19.5518,8.8305
19.5840,8.8052
19.5959,8.7733
19.5977,8.7301
19.5977,8.5086
19.6284,8.4298
19.7085,8.3998
19.7873,8.4286
19.8167,8.5086
19.8167,8.7289
19.8242,8.7927
19.8567,8.8274
19.9268,8.8390
19.9913,8.8305
20.0244,8.8052
20.0350,8.7733
20.0369,8.7301
20.0369,8.5099
20.0277,8.4228
19.9999,8.3450
19.9537,8.2765
19.8936,8.2234
19.8241,8.1915
19.7454,8.1808
19.6515,8.2096
19.6178,8.2359
19.5952,8.2609
19.5827,8.2096
19.5505,8.1880
19.4889,8.1808
19.4329,8.1877
19.4254,8.1886
19.3925,8.2121
19.3807,8.2440
19.3788,8.2859
19.2784,8.2859
19.2774,8.2571
19.2549,8.2033
19.1698,8.1821
19.1692,8.1821
19.1054,8.1902
19.0722,8.2146
19.0616,8.2478
19.0597,8.2909
18.8964,8.2909
18.8870,8.2784
18.8250,8.2249
18.7605,8.1928
18.6937,8.1821
18.6054,8.1983
18.5442,8.2471
18.5173,8.1977
18.4575,8.1864
18.4278,8.1808
18.3440,8.2146
18.3334,8.2459
18.3315,8.2884
18.2111,8.2884
18.2214,8.2609
18.1776,8.2108
18.0850,8.1789
17.9949,8.1683
17.8972,8.1762
17.8211,8.1999
17.7668,8.2395
17.7343,8.2948
17.7234,8.3660
17.7293,8.4278
17.7472,8.4805
17.8072,8.5512
17.8851,8.5897
17.9636,8.6100
18.0265,8.6244
18.0475,8.6450
18.0284,8.6675
17.9711,8.6751
17.8760,8.6444
17.7928,8.6137
17.7484,8.6350
17.7128,8.6929
17.7009,8.7339
17.3204,8.7339
17.3205,8.7326
17.3205,8.1032
17.5595,8.1032
17.6233,8.0920
17.6446,8.0651
17.6508,8.0132
17.6471,7.9819
19.0597,7.9819
19.0616,8.0250
19.0728,8.0582
19.1060,8.0845
19.1692,8.0920
19.2324,8.0845
19.2655,8.0588
19.2768,8.0263
19.2787,7.9831
19.2768,7.9400
19.2649,7.9068
19.2330,7.8815
19.1698,7.8730
19.1090,7.8810
19.1054,7.8815
19.0722,7.9068
19.0616,7.9387
19.0597,7.9819
17.6471,7.9819
17.6446,7.9606
17.6195,7.9312
17.5607,7.9218
16.8651,7.9218
16.8012,7.9331
16.7800,7.9600
16.7737,8.0119
16.6458,8.0119
16.6323,7.9906
16.6010,7.9669
16.5153,7.9274
16.4501,7.9129
16.3783,7.9080
16.2907,7.9172
16.2162,7.9445
16.1550,7.9900
16.1094,8.0478
16.0821,8.1118
16.0730,8.1821
16.0810,8.2564
16.1049,8.3191
16.1407,8.3683
16.1844,8.4023
16.2338,8.4268
16.2870,8.4480
16.3402,8.4647
16.3896,8.4761
16.4690,8.5043
16.5009,8.5524
16.4719,8.6238
16.3846,8.6475
16.3245,8.6281
16.2745,8.5875
16.2188,8.5405
16.1769,8.5249
16.1106,8.5549
16.0702,8.6023
16.0568,8.6394
14.7066,8.6394
15.3733,6.4171
17.9724,6.4171
17.9914,6.4780
18.3420,7.1892
18.3845,7.2343
18.4448,7.2514
18.4575,7.2514
18.5166,7.2343
18.5591,7.1892
18.8026,6.6952
18.9985,6.6952
18.9985,7.1410
19.0005,7.1854
19.0112,7.2184
19.0446,7.2441
19.1090,7.2527
19.1741,7.2445
19.2068,7.2197
19.2189,7.1860
19.2208,7.1422
19.2208,6.6977
19.2195,6.6609
19.1967,6.6063
19.1103,6.5847
19.1097,6.5848
19.0449,6.5930
19.0112,6.6177
19.0005,6.6514
18.9985,6.6952
18.8026,6.6952
18.9096,6.4780
18.9287,6.4171
18.9130,6.3815
18.9985,6.3815
19.0005,6.4253
19.0119,6.4590
19.0455,6.4856
19.1097,6.4933
19.1738,6.4856
19.2075,6.4596
19.2189,6.4266
19.2208,6.3828
19.2207,6.3815
19.3224,6.3815
19.3224,7.1397
19.3243,7.1835
19.3351,7.2172
19.3684,7.2429
19.4329,7.2514
19.5097,7.2359
19.5421,7.1892
19.6034,7.2349
19.6958,7.2502
19.7662,7.2391
19.8335,7.2059
19.8977,7.1505
19.9499,7.0803
19.9812,7.0029
19.9917,6.9181
19.9812,6.8332
19.9496,6.7555
19.8971,6.6850
19.8319,6.6293
19.7627,6.5958
19.6894,6.5847
19.6062,6.6003
19.5446,6.6469
19.5446,6.3828
19.5427,6.3389
19.5307,6.3053
19.4983,6.2796
19.4342,6.2710
19.3687,6.2796
19.3351,6.3053
19.3243,6.3377
19.3224,6.3815
19.2207,6.3815
19.2189,6.3389
19.2068,6.3053
19.1744,6.2796
19.1103,6.2710
19.0449,6.2796
19.0112,6.3053
19.0005,6.3377
18.9985,6.3815
18.9130,6.3815
18.9100,6.3745
18.8538,6.3358
18.7788,6.3142
18.7230,6.3485
18.7052,6.3866
18.4512,6.9428
18.4374,6.9135
18.4061,6.8457
18.3648,6.7560
18.3210,6.6609
18.2773,6.5658
18.2365,6.4761
18.2046,6.4063
18.1876,6.3707
18.1667,6.3370
18.1451,6.3193
18.1114,6.3142
18.0473,6.3358
17.9911,6.3745
17.9724,6.4171
15.3733,6.4171
15.5441,5.8477
16.0568,5.8477
20.0369,5.8477
20.5496,5.8477
Z" /> 
</g>
<g style="fill:none; 
stroke:#000000; stroke-width:0.1500; stroke-opacity:1; 
stroke-linecap:round; stroke-linejoin:round;">
<path d="M8.6017 9.5583
L9.1017 9.5583
" />
<path d="M8.6017 10.0583
L8.6017 9.5583
" />
<path d="M8.6017 12.2183
L8.6017 12.7183
" />
<path d="M8.6017 12.7183
L9.1017 12.7183
" />
<path d="M9.1017 12.7183
L8.6017 12.2183
" />
<path d="M11.7617 9.5583
L11.2617 9.5583
" />
<path d="M11.7617 10.0583
L11.7617 9.5583
" />
<path d="M11.7617 12.2183
L11.7617 12.7183
" />
<path d="M11.7617 12.7183
L11.2617 12.7183
" />
<circle cx="9.0417" cy="13.0383" r="0.1450" /> 
</g>
<g style="fill:none; 
stroke:#000000; stroke-width:0.1200; stroke-opacity:1; 
stroke-linecap:round; stroke-linejoin:round;">
<path d="M6.3317 11.1804
L6.3317 11.3961
" />
<path d="M7.0517 11.1804
L7.0517 11.3961
" />
<path d="M7.1317 8.1804
L7.1317 8.3961
" />
<path d="M7.8517 8.1804
L7.8517 8.3961
" />
<path d="M7.4453 9.4083
L7.1380 9.4083
" />
<path d="M7.4453 10.1683
L7.1380 10.1683
" />
<path d="M9.1117 8.1346
L9.1117 8.4419
" />
<path d="M9.8717 8.1346
L9.8717 8.4419
" />
<path d="M13.0317 11.2061
L13.0317 10.9904
" />
<path d="M13.7517 11.2061
L13.7517 10.9904
" />
<path d="M12.6546 7.4808
L14.1087 7.4808
" />
<path d="M12.6546 9.3008
L14.1087 9.3008
" />
</g>
<g style="fill:none; 
stroke:#000000; stroke-width:0.1000; stroke-opacity:1; 
stroke-linecap:round; stroke-linejoin:round;">
<circle cx="13.2917" cy="4.4982" r="0.5000" /> 
</g>
<g style="fill:none; 
stroke:#000000; stroke-width:0.1500; stroke-opacity:1; 
stroke-linecap:round; stroke-linejoin:round;">
<text x="13.2917" y="1.3482"
textLength="5.5833" font-size="1.3333" lengthAdjust="spacingAndGlyphs"
text-anchor="middle" opacity="0" stroke-opacity="0">15 mm</text>
<g class="stroked-text"><desc>15 mm</desc>
<path d="M11.3869 1.3031
L10.8155 1.3031
" />
<path d="M11.1012 1.3031
L11.1012 0.3031
" />
<path d="M11.1012 0.3031
L11.0060 0.4459
" />
<path d="M11.0060 0.4459
L10.9107 0.5412
" />
<path d="M10.9107 0.5412
L10.8155 0.5888
" />
<path d="M12.2917 0.3031
L11.8155 0.3031
" />
<path d="M11.8155 0.3031
L11.7679 0.7793
" />
<path d="M11.7679 0.7793
L11.8155 0.7316
" />
<path d="M11.8155 0.7316
L11.9107 0.6840
" />
<path d="M11.9107 0.6840
L12.1488 0.6840
" />
<path d="M12.1488 0.6840
L12.2440 0.7316
" />
<path d="M12.2440 0.7316
L12.2917 0.7793
" />
<path d="M12.2917 0.7793
L12.3393 0.8745
" />
<path d="M12.3393 0.8745
L12.3393 1.1126
" />
<path d="M12.3393 1.1126
L12.2917 1.2078
" />
<path d="M12.2917 1.2078
L12.2440 1.2554
" />
<path d="M12.2440 1.2554
L12.1488 1.3031
" />
<path d="M12.1488 1.3031
L11.9107 1.3031
" />
<path d="M11.9107 1.3031
L11.8155 1.2554
" />
<path d="M11.8155 1.2554
L11.7679 1.2078
" />
<path d="M13.5298 1.3031
L13.5298 0.6364
" />
<path d="M13.5298 0.7316
L13.5774 0.6840
" />
<path d="M13.5774 0.6840
L13.6726 0.6364
" />
<path d="M13.6726 0.6364
L13.8155 0.6364
" />
<path d="M13.8155 0.6364
L13.9107 0.6840
" />
<path d="M13.9107 0.6840
L13.9583 0.7793
" />
<path d="M13.9583 0.7793
L13.9583 1.3031
" />
<path d="M13.9583 0.7793
L14.0060 0.6840
" />
<path d="M14.0060 0.6840
L14.1012 0.6364
" />
<path d="M14.1012 0.6364
L14.2440 0.6364
" />
<path d="M14.2440 0.6364
L14.3393 0.6840
" />
<path d="M14.3393 0.6840
L14.3869 0.7793
" />
<path d="M14.3869 0.7793
L14.3869 1.3031
" />
<path d="M14.8631 1.3031
L14.8631 0.6364
" />
<path d="M14.8631 0.7316
L14.9107 0.6840
" />
<path d="M14.9107 0.6840
L15.0060 0.6364
" />
<path d="M15.0060 0.6364
L15.1488 0.6364
" />
<path d="M15.1488 0.6364
L15.2440 0.6840
" />
<path d="M15.2440 0.6840
L15.2917 0.7793
" />
<path d="M15.2917 0.7793
L15.2917 1.3031
" />
<path d="M15.2917 0.7793
L15.3393 0.6840
" />
<path d="M15.3393 0.6840
L15.4345 0.6364
" />
<path d="M15.4345 0.6364
L15.5774 0.6364
" />
<path d="M15.5774 0.6364
L15.6726 0.6840
" />
<path d="M15.6726 0.6840
L15.7202 0.7793
" />
<path d="M15.7202 0.7793
L15.7202 1.3031
" />
</g></g>
<g style="fill:none; 
stroke:#000000; stroke-width:0.1000; stroke-opacity:1; 
stroke-linecap:round; stroke-linejoin:round;">
<path d="M5.7917 2.9983
L5.7917 1.4118
" />
<path d="M20.7917 2.9983
L20.7917 1.4118
" />
<path d="M5.7917 1.9982
L20.7917 1.9982
" />
<path d="M5.7917 1.9982
L6.9182 1.4118
" />
<path d="M5.7917 1.9982
L6.9182 2.5847
" />
<path d="M20.7917 1.9982
L19.6652 2.5847
" />
<path d="M20.7917 1.9982
L19.6652 1.4118
" />
</g>
<g style="fill:none; 
stroke:#000000; stroke-width:0.1500; stroke-opacity:1; 
stroke-linecap:round; stroke-linejoin:round;">
<g transform="rotate(-90.000000 2.7917 8.9982)">
<text x="2.7917" y="9.4982"
textLength="5.5833" font-size="1.3333" lengthAdjust="spacingAndGlyphs"
text-anchor="middle" opacity="0" stroke-opacity="0">11 mm</text>
</g>
<g class="stroked-text"><desc>11 mm</desc>
<path d="M3.2465 10.9030
L3.2465 11.4744
" />
<path d="M3.2465 11.1887
L2.2465 11.1887
" />
<path d="M2.2465 11.1887
L2.3893 11.2840
" />
<path d="M2.3893 11.2840
L2.4846 11.3792
" />
<path d="M2.4846 11.3792
L2.5322 11.4744
" />
<path d="M3.2465 9.9506
L3.2465 10.5221
" />
<path d="M3.2465 10.2363
L2.2465 10.2363
" />
<path d="M2.2465 10.2363
L2.3893 10.3316
" />
<path d="M2.3893 10.3316
L2.4846 10.4268
" />
<path d="M2.4846 10.4268
L2.5322 10.5221
" />
<path d="M3.2465 8.7602
L2.5798 8.7602
" />
<path d="M2.6751 8.7602
L2.6274 8.7125
" />
<path d="M2.6274 8.7125
L2.5798 8.6173
" />
<path d="M2.5798 8.6173
L2.5798 8.4744
" />
<path d="M2.5798 8.4744
L2.6274 8.3792
" />
<path d="M2.6274 8.3792
L2.7227 8.3316
" />
<path d="M2.7227 8.3316
L3.2465 8.3316
" />
<path d="M2.7227 8.3316
L2.6274 8.2840
" />
<path d="M2.6274 8.2840
L2.5798 8.1887
" />
<path d="M2.5798 8.1887
L2.5798 8.0459
" />
<path d="M2.5798 8.0459
L2.6274 7.9506
" />
<path d="M2.6274 7.9506
L2.7227 7.9030
" />
<path d="M2.7227 7.9030
L3.2465 7.9030
" />
<path d="M3.2465 7.4268
L2.5798 7.4268
" />
<path d="M2.6751 7.4268
L2.6274 7.3792
" />
<path d="M2.6274 7.3792
L2.5798 7.2840
" />
<path d="M2.5798 7.2840
L2.5798 7.1411
" />
<path d="M2.5798 7.1411
L2.6274 7.0459
" />
<path d="M2.6274 7.0459
L2.7227 6.9982
" />
<path d="M2.7227 6.9982
L3.2465 6.9982
" />
<path d="M2.7227 6.9982
L2.6274 6.9506
" />
<path d="M2.6274 6.9506
L2.5798 6.8554
" />
<path d="M2.5798 6.8554
L2.5798 6.7125
" />
<path d="M2.5798 6.7125
L2.6274 6.6173
" />
<path d="M2.6274 6.6173
L2.7227 6.5697
" />
<path d="M2.7227 6.5697
L3.2465 6.5697
" />
</g></g>
<g style="fill:none; 
stroke:#000000; stroke-width:0.1000; stroke-opacity:1; 
stroke-linecap:round; stroke-linejoin:round;">
<path d="M5.2917 14.4982
L3.7052 14.4982
" />
<path d="M5.2917 3.4982
L3.7052 3.4982
" />
<path d="M4.2917 14.4982
L4.2917 3.4982
" />
<path d="M4.2917 14.4982
L3.7052 13.3717
" />
<path d="M4.2917 14.4982
L4.8781 13.3717
" />
<path d="M4.2917 3.4982
L4.8781 4.6248
" />
<path d="M4.2917 3.4982
L3.7052 4.6248
" />
</g>
<g style="fill:none; 
stroke:#000000; stroke-width:0.1500; stroke-opacity:1; 
stroke-linecap:round; stroke-linejoin:round;">
<g transform="rotate(-90.000000 23.7917 9.4982)">
<text x="23.7917" y="9.9982"
textLength="5.5833" font-size="1.3333" lengthAdjust="spacingAndGlyphs"
text-anchor="middle" opacity="0" stroke-opacity="0">10 mm</text>
</g>
<g class="stroked-text"><desc>10 mm</desc>
<path d="M24.2465 11.4030
L24.2465 11.9744
" />
<path d="M24.2465 11.6887
L23.2465 11.6887
" />
<path d="M23.2465 11.6887
L23.3893 11.7840
" />
<path d="M23.3893 11.7840
L23.4846 11.8792
" />
<path d="M23.4846 11.8792
L23.5322 11.9744
" />
<path d="M23.2465 10.7840
L23.2465 10.6887
" />
<path d="M23.2465 10.6887
L23.2941 10.5935
" />
<path d="M23.2941 10.5935
L23.3417 10.5459
" />
<path d="M23.3417 10.5459
L23.4370 10.4982
" />
<path d="M23.4370 10.4982
L23.6274 10.4506
" />
<path d="M23.6274 10.4506
L23.8655 10.4506
" />
<path d="M23.8655 10.4506
L24.0560 10.4982
" />
<path d="M24.0560 10.4982
L24.1512 10.5459
" />
<path d="M24.1512 10.5459
L24.1989 10.5935
" />
<path d="M24.1989 10.5935
L24.2465 10.6887
" />
<path d="M24.2465 10.6887
L24.2465 10.7840
" />
<path d="M24.2465 10.7840
L24.1989 10.8792
" />
<path d="M24.1989 10.8792
L24.1512 10.9268
" />
<path d="M24.1512 10.9268
L24.0560 10.9744
" />
<path d="M24.0560 10.9744
L23.8655 11.0221
" />
<path d="M23.8655 11.0221
L23.6274 11.0221
" />
<path d="M23.6274 11.0221
L23.4370 10.9744
" />
<path d="M23.4370 10.9744
L23.3417 10.9268
" />
<path d="M23.3417 10.9268
L23.2941 10.8792
" />
<path d="M23.2941 10.8792
L23.2465 10.7840
" />
<path d="M24.2465 9.2602
L23.5798 9.2602
" />
<path d="M23.6751 9.2602
L23.6274 9.2125
" />
<path d="M23.6274 9.2125
L23.5798 9.1173
" />
<path d="M23.5798 9.1173
L23.5798 8.9744
" />
<path d="M23.5798 8.9744
L23.6274 8.8792
" />
<path d="M23.6274 8.8792
L23.7227 8.8316
" />
<path d="M23.7227 8.8316
L24.2465 8.8316
" />
<path d="M23.7227 8.8316
L23.6274 8.7840
" />
<path d="M23.6274 8.7840
L23.5798 8.6887
" />
<path d="M23.5798 8.6887
L23.5798 8.5459
" />
<path d="M23.5798 8.5459
L23.6274 8.4506
" />
<path d="M23.6274 8.4506
L23.7227 8.4030
" />
<path d="M23.7227 8.4030
L24.2465 8.4030
" />
<path d="M24.2465 7.9268
L23.5798 7.9268
" />
<path d="M23.6751 7.9268
L23.6274 7.8792
" />
<path d="M23.6274 7.8792
L23.5798 7.7840
" />
<path d="M23.5798 7.7840
L23.5798 7.6411
" />
<path d="M23.5798 7.6411
L23.6274 7.5459
" />
<path d="M23.6274 7.5459
L23.7227 7.4982
" />
<path d="M23.7227 7.4982
L24.2465 7.4982
" />
<path d="M23.7227 7.4982
L23.6274 7.4506
" />
<path d="M23.6274 7.4506
L23.5798 7.3554
" />
<path d="M23.5798 7.3554
L23.5798 7.2125
" />
<path d="M23.5798 7.2125
L23.6274 7.1173
" />
<path d="M23.6274 7.1173
L23.7227 7.0697
" />
<path d="M23.7227 7.0697
L24.2465 7.0697
" />
</g></g>
<g style="fill:none; 
stroke:#000000; stroke-width:0.1000; stroke-opacity:1; 
stroke-linecap:round; stroke-linejoin:round;">
<path d="M21.2917 4.4982
L22.8781 4.4982
" />
<path d="M21.2917 14.4982
L22.8781 14.4982
" />
<path d="M22.2917 4.4982
L22.2917 14.4982
" />
<path d="M22.2917 4.4982
L22.8781 5.6248
" />
<path d="M22.2917 4.4982
L21.7052 5.6248
" />
<path d="M22.2917 14.4982
L21.7052 13.3717
" />
<path d="M22.2917 14.4982
L22.8781 13.3717
" />
<path d="M10.2217 7.7633
L10.7617 7.7633
" />
<path d="M10.2217 8.8133
L10.2217 7.7633
" />
<path d="M10.7617 7.7633
L10.7617 8.8133
" />
<path d="M10.7617 8.8133
L10.2217 8.8133
" />
<path d="M7.4217 10.7633
L7.9617 10.7633
" />
<path d="M7.4217 11.8133
L7.4217 10.7633
" />
<path d="M7.9617 10.7633
L7.9617 11.8133
" />
<path d="M7.9617 11.8133
L7.4217 11.8133
" />
<path d="M16.6867 4.3883
L17.2117 3.8632
" />
<path d="M16.6867 5.1332
L16.6867 4.3883
" />
<path d="M17.2117 3.8632
L18.7867 3.8632
" />
<path d="M18.7867 3.8632
L18.7867 5.1332
" />
<path d="M18.7867 5.1332
L16.6867 5.1332
" />
<path d="M8.2217 7.7633
L8.7617 7.7633
" />
<path d="M8.2217 8.8133
L8.2217 7.7633
" />
<path d="M8.7617 7.7633
L8.7617 8.8133
" />
<path d="M8.7617 8.8133
L8.2217 8.8133
" />
<path d="M7.1617 5.9882
L7.6867 5.4632
" />
<path d="M7.1617 6.7332
L7.1617 5.9882
" />
<path d="M7.6867 5.4632
L9.2617 5.4632
" />
<path d="M9.2617 5.4632
L9.2617 6.7332
" />
<path d="M9.2617 6.7332
L7.1617 6.7332
" />
<path d="M10.9717 5.9882
L11.4967 5.4632
" />
<path d="M10.9717 6.7332
L10.9717 5.9882
" />
<path d="M11.4967 5.4632
L13.0717 5.4632
" />
<path d="M13.0717 5.4632
L13.0717 6.7332
" />
<path d="M13.0717 6.7332
L10.9717 6.7332
" />
<path d="M12.8767 4.3883
L13.4017 3.8632
" />
<path d="M12.8767 5.1332
L12.8767 4.3883
" />
<path d="M13.4017 3.8632
L14.9767 3.8632
" />
<path d="M14.9767 3.8632
L14.9767 5.1332
" />
<path d="M14.9767 5.1332
L12.8767 5.1332
" />
<path d="M13.7367 12.1582
L14.2617 11.6333
" />
<path d="M13.7367 12.9032
L13.7367 12.1582
" />
<path d="M14.2617 11.6333
L15.8367 11.6333
" />
<path d="M15.8367 11.6333
L15.8367 12.9032
" />
<path d="M15.8367 12.9032
L13.7367 12.9032
" />
<path d="M7.7967 4.3883
L8.3217 3.8632
" />
<path d="M7.7967 5.1332
L7.7967 4.3883
" />
<path d="M8.3217 3.8632
L9.8967 3.8632
" />
<path d="M9.8967 3.8632
L9.8967 5.1332
" />
<path d="M9.8967 5.1332
L7.7967 5.1332
" />
<path d="M12.1417 10.5983
L12.6417 10.5983
" />
<path d="M12.1417 11.5983
L12.1417 10.5983
" />
<path d="M12.6417 10.5983
L12.6417 11.5983
" />
<path d="M12.6417 11.5983
L12.1417 11.5983
" />
<path d="M13.7367 10.8882
L14.2617 10.3632
" />
<path d="M13.7367 11.6333
L13.7367 10.8882
" />
<path d="M14.2617 10.3632
L15.8367 10.3632
" />
<path d="M15.8367 10.3632
L15.8367 11.6333
" />
<path d="M15.8367 11.6333
L13.7367 11.6333
" />
<path d="M18.8167 10.3632
L20.9167 10.3632
" />
<path d="M18.8167 11.6333
L18.8167 10.3632
" />
<path d="M20.3917 11.6333
L18.8167 11.6333
" />
<path d="M20.9167 10.3632
L20.9167 11.1082
" />
<path d="M20.9167 11.1082
L20.3917 11.6333
" />
<path d="M9.0667 4.3883
L9.5917 3.8632
" />
<path d="M9.0667 5.1332
L9.0667 4.3883
" />
<path d="M9.5917 3.8632
L11.1667 3.8632
" />
<path d="M11.1667 3.8632
L11.1667 5.1332
" />
<path d="M11.1667 5.1332
L9.0667 5.1332
" />
<path d="M12.2417 5.9882
L12.7667 5.4632
" />
<path d="M12.2417 6.7332
L12.2417 5.9882
" />
<path d="M12.7667 5.4632
L14.3417 5.4632
" />
<path d="M14.3417 5.4632
L14.3417 6.7332
" />
<path d="M14.3417 6.7332
L12.2417 6.7332
" />
<path d="M15.4167 3.8632
L17.5167 3.8632
" />
<path d="M15.4167 5.1332
L15.4167 3.8632
" />
<path d="M16.9917 5.1332
L15.4167 5.1332
" />
<path d="M17.5167 3.8632
L17.5167 4.6082
" />
<path d="M17.5167 4.6082
L16.9917 5.1332
" />
</g>
<g style="fill:none; 
stroke:#000000; stroke-width:0.0600; stroke-opacity:1; 
stroke-linecap:round; stroke-linejoin:round;">
<circle cx="8.6817" cy="12.6383" r="0.0300" /> 
</g>
<g style="fill:none; 
stroke:#000000; stroke-width:0.1000; stroke-opacity:1; 
stroke-linecap:round; stroke-linejoin:round;">
<path d="M10.3367 4.3883
L10.8617 3.8632
" />
<path d="M10.3367 5.1332
L10.3367 4.3883
" />
<path d="M10.8617 3.8632
L12.4367 3.8632
" />
<path d="M12.4367 3.8632
L12.4367 5.1332
" />
<path d="M12.4367 5.1332
L10.3367 5.1332
" />
<path d="M5.8917 5.9882
L6.4167 5.4632
" />
<path d="M5.8917 6.7332
L5.8917 5.9882
" />
<path d="M6.4167 5.4632
L7.9917 5.4632
" />
<path d="M7.9917 5.4632
L7.9917 6.7332
" />
<path d="M7.9917 6.7332
L5.8917 6.7332
" />
<path d="M18.8167 12.1582
L19.3417 11.6333
" />
<path d="M18.8167 12.9032
L18.8167 12.1582
" />
<path d="M19.3417 11.6333
L20.9167 11.6333
" />
<path d="M20.9167 11.6333
L20.9167 12.9032
" />
<path d="M20.9167 12.9032
L18.8167 12.9032
" />
<path d="M6.4417 10.7883
L6.9417 10.7883
" />
<path d="M6.4417 11.7883
L6.4417 10.7883
" />
<path d="M6.9417 10.7883
L6.9417 11.7883
" />
<path d="M6.9417 11.7883
L6.4417 11.7883
" />
<path d="M7.2417 7.7883
L7.7417 7.7883
" />
<path d="M7.2417 8.7883
L7.2417 7.7883
" />
<path d="M7.7417 7.7883
L7.7417 8.7883
" />
<path d="M7.7417 8.7883
L7.2417 8.7883
" />
<path d="M17.5467 10.3632
L19.6467 10.3632
" />
<path d="M17.5467 11.6333
L17.5467 10.3632
" />
<path d="M19.1217 11.6333
L17.5467 11.6333
" />
<path d="M19.6467 10.3632
L19.6467 11.1082
" />
<path d="M19.6467 11.1082
L19.1217 11.6333
" />
<path d="M17.5467 12.1582
L18.0717 11.6333
" />
<path d="M17.5467 12.9032
L17.5467 12.1582
" />
<path d="M18.0717 11.6333
L19.6467 11.6333
" />
<path d="M19.6467 11.6333
L19.6467 12.9032
" />
<path d="M19.6467 12.9032
L17.5467 12.9032
" />
<path d="M8.4317 5.9882
L8.9567 5.4632
" />
<path d="M8.4317 6.7332
L8.4317 5.9882
" />
<path d="M8.9567 5.4632
L10.5317 5.4632
" />
<path d="M10.5317 5.4632
L10.5317 6.7332
" />
<path d="M10.5317 6.7332
L8.4317 6.7332
" />
<path d="M9.7017 5.9882
L10.2267 5.4632
" />
<path d="M9.7017 6.7332
L9.7017 5.9882
" />
<path d="M10.2267 5.4632
L11.8017 5.4632
" />
<path d="M11.8017 5.4632
L11.8017 6.7332
" />
<path d="M11.8017 6.7332
L9.7017 6.7332
" />
<path d="M6.7667 9.5183
L7.8167 9.5183
" />
<path d="M6.7667 10.0583
L6.7667 9.5183
" />
<path d="M7.8167 9.5183
L7.8167 10.0583
" />
<path d="M7.8167 10.0583
L6.7667 10.0583
" />
<path d="M9.2217 7.7633
L9.7617 7.7633
" />
<path d="M9.2217 8.8133
L9.2217 7.7633
" />
<path d="M9.7617 7.7633
L9.7617 8.8133
" />
<path d="M9.7617 8.8133
L9.2217 8.8133
" />
<path d="M15.0067 10.8882
L15.5317 10.3632
" />
<path d="M15.0067 11.6333
L15.0067 10.8882
" />
<path d="M15.5317 10.3632
L17.1067 10.3632
" />
<path d="M17.1067 10.3632
L17.1067 11.6333
" />
<path d="M17.1067 11.6333
L15.0067 11.6333
" />
<path d="M11.6067 4.3883
L12.1317 3.8632
" />
<path d="M11.6067 5.1332
L11.6067 4.3883
" />
<path d="M12.1317 3.8632
L13.7067 3.8632
" />
<path d="M13.7067 3.8632
L13.7067 5.1332
" />
<path d="M13.7067 5.1332
L11.6067 5.1332
" />
<path d="M15.0067 12.1582
L15.5317 11.6333
" />
<path d="M15.0067 12.9032
L15.0067 12.1582
" />
<path d="M15.5317 11.6333
L17.1067 11.6333
" />
<path d="M17.1067 11.6333
L17.1067 12.9032
" />
<path d="M17.1067 12.9032
L15.0067 12.9032
" />
<path d="M13.1417 10.5983
L13.6417 10.5983
" />
<path d="M13.1417 11.5983
L13.1417 10.5983
" />
<path d="M13.6417 10.5983
L13.6417 11.5983
" />
<path d="M13.6417 11.5983
L13.1417 11.5983
" />
<path d="M14.1467 4.3883
L14.6717 3.8632
" />
<path d="M14.1467 5.1332
L14.1467 4.3883
" />
<path d="M14.6717 3.8632
L16.2467 3.8632
" />
<path d="M16.2467 3.8632
L16.2467 5.1332
" />
<path d="M16.2467 5.1332
L14.1467 5.1332
" />
<path d="M11.7817 7.5908
L14.9817 7.5908
" />
<path d="M11.7817 9.1908
L11.7817 7.5908
" />
<path d="M14.9817 7.5908
L14.9817 9.1908
" />
<path d="M14.9817 9.1908
L11.7817 9.1908
" />
<path d="M16.2767 10.3632
L18.3767 10.3632
" />
<path d="M16.2767 11.6333
L16.2767 10.3632
" />
<path d="M17.8517 11.6333
L16.2767 11.6333
" />
<path d="M18.3767 10.3632
L18.3767 11.1082
" />
<path d="M18.3767 11.1082
L17.8517 11.6333
" />
<path d="M16.2767 12.1582
L16.8017 11.6333
" />
<path d="M16.2767 12.9032
L16.2767 12.1582
" />
<path d="M16.8017 11.6333
L18.3767 11.6333
" />
<path d="M18.3767 11.6333
L18.3767 12.9032
" />
<path d="M18.3767 12.9032
L16.2767 12.9032
" />
<path d="M20.7917 4.2482 A0.7500 0.7500 0.0 0 0 20.0417 3.4982" />
<path d="M6.5417 3.4982 A0.7500 0.7500 0.0 0 0 5.7917 4.2483" />
<path d="M20.7917 13.7482
L20.7917 4.2482
" />
<path d="M20.0417 3.4982
L6.5417 3.4983
" />
<path d="M5.7917 13.7482 A0.7500 0.7500 0.0 0 0 6.5417 14.4982" />
<path d="M20.0417 14.4983 A0.7500 0.7500 0.0 0 0 20.7917 13.7482" />
<path d="M6.5417 14.4982
L20.0417 14.4982
" />
<path d="M5.7917 13.7482
L5.7917 4.2483
" />
</g>
<g style="fill:#FFFFFF; fill-opacity:1.0000; stroke:none;">
<circle cx="9.7917" cy="10.7982" r="0.1500" /> 
</g>
<g style="fill:#FFFFFF; fill-opacity:1.0000; stroke:none;">
<circle cx="7.9917" cy="13.1982" r="0.1500" /> 
</g>
<g style="fill:#FFFFFF; fill-opacity:1.0000; stroke:none;">
<circle cx="10.2917" cy="7.0982" r="0.1500" /> 
</g>
<g style="fill:#FFFFFF; fill-opacity:1.0000; stroke:none;">
<circle cx="6.6917" cy="12.6982" r="0.1500" /> 
</g>
<g style="fill:#FFFFFF; fill-opacity:1.0000; stroke:none;">
<circle cx="6.2917" cy="6.9982" r="0.1500" /> 
</g>
<g style="fill:#FFFFFF; fill-opacity:1.0000; stroke:none;">
<circle cx="8.7917" cy="7.0982" r="0.1500" /> 
</g>
<g style="fill:#FFFFFF; fill-opacity:1.0000; stroke:none;">
<circle cx="12.6917" cy="12.2982" r="0.1500" /> 
</g>
<g style="fill:#FFFFFF; fill-opacity:1.0000; stroke:none;">
<circle cx="13.3917" cy="12.9982" r="0.1500" /> 
</g>
<g style="fill:#FFFFFF; fill-opacity:1.0000; stroke:none;">
<circle cx="12.0917" cy="12.2982" r="0.1500" /> 
</g>
<g style="fill:#FFFFFF; fill-opacity:1.0000; stroke:none;">
<circle cx="13.3917" cy="12.3982" r="0.1500" /> 
</g>
<g style="fill:#FFFFFF; fill-opacity:1.0000; stroke:none;">
<circle cx="17.7367" cy="4.4982" r="0.3250" /> 
</g>
<g style="fill:#FFFFFF; fill-opacity:1.0000; stroke:none;">
<circle cx="8.2117" cy="6.0982" r="0.3250" /> 
</g>
<g style="fill:#FFFFFF; fill-opacity:1.0000; stroke:none;">
<circle cx="12.0217" cy="6.0982" r="0.3250" /> 
</g>
<g style="fill:#FFFFFF; fill-opacity:1.0000; stroke:none;">
<circle cx="13.9267" cy="4.4982" r="0.3250" /> 
</g>
<g style="fill:#FFFFFF; fill-opacity:1.0000; stroke:none;">
<circle cx="14.7867" cy="12.2683" r="0.3250" /> 
</g>
<g style="fill:#FFFFFF; fill-opacity:1.0000; stroke:none;">
<circle cx="8.8467" cy="4.4982" r="0.3250" /> 
</g>
<g style="fill:#FFFFFF; fill-opacity:1.0000; stroke:none;">
<circle cx="14.7867" cy="10.9982" r="0.3250" /> 
</g>
<g style="fill:#FFFFFF; fill-opacity:1.0000; stroke:none;">
<circle cx="19.8667" cy="10.9982" r="0.3250" /> 
</g>
<g style="fill:#FFFFFF; fill-opacity:1.0000; stroke:none;">
<circle cx="10.1167" cy="4.4982" r="0.3250" /> 
</g>
<g style="fill:#FFFFFF; fill-opacity:1.0000; stroke:none;">
<circle cx="13.2917" cy="6.0982" r="0.3250" /> 
</g>
<g style="fill:#FFFFFF; fill-opacity:1.0000; stroke:none;">
<circle cx="16.4667" cy="4.4982" r="0.3250" /> 
</g>
<g style="fill:#FFFFFF; fill-opacity:1.0000; stroke:none;">
<circle cx="11.3867" cy="4.4982" r="0.3250" /> 
</g>
<g style="fill:#FFFFFF; fill-opacity:1.0000; stroke:none;">
<circle cx="6.9417" cy="6.0982" r="0.3250" /> 
</g>
<g style="fill:#FFFFFF; fill-opacity:1.0000; stroke:none;">
<circle cx="19.8667" cy="12.2683" r="0.3250" /> 
</g>
<g style="fill:#FFFFFF; fill-opacity:1.0000; stroke:none;">
<circle cx="18.5967" cy="10.9982" r="0.3250" /> 
</g>
<g style="fill:#FFFFFF; fill-opacity:1.0000; stroke:none;">
<circle cx="18.5967" cy="12.2683" r="0.3250" /> 
</g>
<g style="fill:#FFFFFF; fill-opacity:1.0000; stroke:none;">
<circle cx="9.4817" cy="6.0982" r="0.3250" /> 
</g>
<g style="fill:#FFFFFF; fill-opacity:1.0000; stroke:none;">
<circle cx="10.7517" cy="6.0982" r="0.3250" /> 
</g>
<g style="fill:#FFFFFF; fill-opacity:1.0000; stroke:none;">
<circle cx="16.0567" cy="10.9982" r="0.3250" /> 
</g>
<g style="fill:#FFFFFF; fill-opacity:1.0000; stroke:none;">
<circle cx="12.6567" cy="4.4982" r="0.3250" /> 
</g>
<g style="fill:#FFFFFF; fill-opacity:1.0000; stroke:none;">
<circle cx="16.0567" cy="12.2683" r="0.3250" /> 
</g>
<g style="fill:#FFFFFF; fill-opacity:1.0000; stroke:none;">
<circle cx="15.1967" cy="4.4982" r="0.3250" /> 
</g>
<g style="fill:#FFFFFF; fill-opacity:1.0000; stroke:none;">
<circle cx="17.3267" cy="10.9982" r="0.3250" /> 
</g>
<g style="fill:#FFFFFF; fill-opacity:1.0000; stroke:none;">
<circle cx="17.3267" cy="12.2683" r="0.3250" /> 
</g> 
</svg>
