M48
; DRILL file {KiCad 7.0.2-6a45011f42~172~ubuntu22.04.1} date Thu 25 May 2023 16:12:51 BST
; FORMAT={-:-/ absolute / inch / decimal}
; #@! TF.CreationDate,2023-05-25T16:12:51+01:00
; #@! TF.GenerationSoftware,Kicad,Pcbnew,7.0.2-6a45011f42~172~ubuntu22.04.1
; #@! TF.FileFunction,Plated,1,4,PTH
FMAT,2
INCH
; #@! TA.AperFunction,Plated,PTH,ViaDrill
T1C0.0118
; #@! TA.AperFunction,Plated,PTH,ComponentDrill
T2C0.0256
; #@! TA.AperFunction,Plated,PTH,ComponentDrill
T3C0.0472
%
G90
G05
T1
X0.3386Y0.3622
X0.374Y0.2992
X0.4016Y0.2992
X0.4291Y0.185
X0.4606Y0.2126
X0.4764Y0.2992
X0.5Y0.1811
X0.5039Y0.3268
X0.5039Y0.2992
X0.5039Y0.2717
X0.5039Y0.2165
X0.5315Y0.2992
X0.5748Y0.3543
X0.5945Y0.3504
X0.5945Y0.3279
X0.6772Y0.3937
T2
X0.2854Y0.6386
X0.2854Y0.5886
X0.3268Y0.2402
X0.3268Y0.1902
X0.3268Y0.1402
X0.3268Y0.0902
X0.5906Y0.6339
X0.5906Y0.5839
X0.6043Y0.1063
X0.6543Y0.1063
T3
X0.1181Y0.2756
X0.1181Y0.1969
X0.1772Y0.3346
X0.1969Y0.2362
X0.2165Y0.4134
X0.7165Y0.5
X0.7874Y0.5315
X0.7874Y0.4528
T0
M30
