M48
; DRILL file {KiCad 9.0.6-9.0.6~ubuntu24.04.1} date 2026-01-03T14:46:00+0000
; FORMAT={-:-/ absolute / inch / decimal}
; #@! TF.CreationDate,2026-01-03T14:46:00+00:00
; #@! TF.GenerationSoftware,Kicad,Pcbnew,9.0.6-9.0.6~ubuntu24.04.1
; #@! TF.FileFunction,Plated,1,2,PTH
FMAT,2
INCH
; #@! TA.AperFunction,Plated,PTH,ViaDrill
T1C0.0118
; #@! TA.AperFunction,Plated,PTH,ComponentDrill
T2C0.0472
%
G90
G05
T1
X2.4114Y-2.4016
X2.4754Y-2.5217
X2.4754Y-2.6624
X2.6821Y-2.5197
X2.6821Y-2.6594
X2.7608Y-2.3967
T2
X0.9252Y-0.7087
X0.9252Y-3.4252
X0.9252Y-4.4882
X0.9311Y-1.7717
X1.3976Y-0.7087
X1.3976Y-3.4252
X1.3976Y-4.4882
X1.4027Y-1.7717
X1.8701Y-0.7087
X1.8701Y-3.4252
X1.8701Y-4.4882
X1.8743Y-1.7717
X2.3425Y-0.7087
X2.3425Y-3.4252
X2.3425Y-4.4882
X2.3459Y-1.7717
X2.815Y-0.7087
X2.815Y-3.4252
X2.815Y-4.4882
X2.8175Y-1.7717
X3.2874Y-0.7087
X3.2874Y-3.4252
X3.2874Y-4.4882
X3.2891Y-1.7717
X3.7598Y-0.7087
X3.7598Y-3.4252
X3.7598Y-4.4882
X3.7607Y-1.7717
X4.2323Y-0.7087
X4.2323Y-1.7717
X4.2323Y-3.4252
X4.2323Y-4.4882
M30
