G04 EAGLE Gerber RS-274X export*
G75*
%MOMM*%
%FSLAX34Y34*%
%LPD*%
%INSoldermask Top*%
%IPPOS*%
%AMOC8*
5,1,8,0,0,1.08239X$1,22.5*%
G01*
%ADD10R,1.303200X1.203200*%
%ADD11R,1.203200X1.303200*%
%ADD12R,1.603200X2.003200*%
%ADD13P,2.556822X8X22.500000*%
%ADD14R,2.403200X0.803200*%
%ADD15C,1.611200*%
%ADD16R,0.800000X1.100000*%
%ADD17R,1.625600X0.635000*%
%ADD18C,0.959600*%


D10*
X182500Y26000D03*
X165500Y26000D03*
X207500Y268000D03*
X224500Y268000D03*
X215500Y106000D03*
X232500Y106000D03*
D11*
X264000Y77500D03*
X264000Y94500D03*
X94000Y94500D03*
X94000Y77500D03*
D12*
X171000Y286000D03*
X137000Y286000D03*
X137000Y206000D03*
X171000Y206000D03*
D13*
X84000Y126000D03*
D14*
X180000Y90600D03*
X128000Y90600D03*
X180000Y77900D03*
X180000Y103300D03*
X180000Y116000D03*
X128000Y77900D03*
X128000Y103300D03*
X128000Y116000D03*
X180000Y141400D03*
X128000Y141400D03*
X180000Y128700D03*
X180000Y154100D03*
X128000Y128700D03*
X128000Y154100D03*
D13*
X24000Y26000D03*
X24000Y296000D03*
D15*
X274000Y36000D03*
X294000Y36000D03*
D16*
X291500Y133000D03*
X276500Y133000D03*
X276500Y159000D03*
X291500Y159000D03*
D17*
X42156Y255652D03*
X42156Y249302D03*
X42156Y242698D03*
X42156Y236348D03*
X85844Y236348D03*
X85844Y242698D03*
X85844Y249302D03*
X85844Y255652D03*
D10*
X94000Y157500D03*
X94000Y174500D03*
X64000Y174500D03*
X64000Y157500D03*
X64000Y94500D03*
X64000Y77500D03*
D11*
X207500Y178000D03*
X224500Y178000D03*
X207500Y238000D03*
X224500Y238000D03*
D10*
X267800Y227000D03*
X267800Y210000D03*
D11*
X232500Y76000D03*
X215500Y76000D03*
X224500Y208000D03*
X207500Y208000D03*
D10*
X298000Y77500D03*
X298000Y94500D03*
X164000Y237500D03*
X164000Y254500D03*
D11*
X162500Y176000D03*
X145500Y176000D03*
D10*
X134000Y254500D03*
X134000Y237500D03*
D13*
X214000Y26000D03*
X134000Y26000D03*
D11*
X72500Y296000D03*
X55500Y296000D03*
D18*
X148736Y115600D03*
X199600Y103472D03*
X280784Y95344D03*
X201568Y141984D03*
M02*
