%TF.GenerationSoftware,KiCad,Pcbnew,7.0.2-6a45011f42~172~ubuntu22.04.1*%
%TF.CreationDate,2023-05-08T14:44:33+01:00*%
%TF.ProjectId,panel,70616e65-6c2e-46b6-9963-61645f706362,rev?*%
%TF.SameCoordinates,Original*%
%TF.FileFunction,Copper,L3,Inr*%
%TF.FilePolarity,Positive*%
%FSLAX46Y46*%
G04 Gerber Fmt 4.6, Leading zero omitted, Abs format (unit mm)*
G04 Created by KiCad (PCBNEW 7.0.2-6a45011f42~172~ubuntu22.04.1) date 2023-05-08 14:44:33*
%MOMM*%
%LPD*%
G01*
G04 APERTURE LIST*
%TA.AperFunction,ViaPad*%
%ADD10C,0.400000*%
%TD*%
%TA.AperFunction,Conductor*%
%ADD11C,0.127000*%
%TD*%
G04 APERTURE END LIST*
D10*
%TO.N,Board_3-SCLK*%
X19250001Y-69260004D03*
X19130001Y-86340004D03*
%TO.N,Board_3-RESETB*%
X17250001Y-69250004D03*
X11360002Y-77650003D03*
X17227586Y-86509995D03*
%TO.N,Board_3-IN_ref*%
X19420001Y-80870004D03*
X19510001Y-75540004D03*
%TO.N,Board_3-IN5*%
X11220001Y-74460004D03*
X19350001Y-74980004D03*
%TO.N,Board_3-IN4*%
X19660001Y-74490004D03*
X11810001Y-74000004D03*
%TO.N,Board_3-IN3*%
X19260001Y-74060004D03*
%TO.N,Board_3-IN2*%
X23210001Y-74800004D03*
%TO.N,Board_3-IN1*%
X23790001Y-74810004D03*
%TO.N,Board_3-I2C_SDA*%
X16259931Y-86520248D03*
X7600002Y-74660003D03*
X16250001Y-69260004D03*
%TO.N,Board_3-I2C_SCL*%
X16740002Y-86250003D03*
X16739428Y-69010005D03*
%TO.N,Board_3-GND*%
X23510000Y-77000003D03*
X7590002Y-73640003D03*
X19420001Y-81540004D03*
X20750001Y-86284600D03*
X18020002Y-69020003D03*
X11360002Y-81600003D03*
X27380001Y-80250004D03*
X20750001Y-68930004D03*
%TO.N,Board_3-D_RDYB*%
X23360001Y-81600004D03*
X11690001Y-82140004D03*
%TO.N,Board_3-DOUT*%
X21250001Y-69260004D03*
X21340001Y-86500004D03*
%TO.N,Board_3-DIN*%
X20250001Y-69260004D03*
X20240001Y-86560004D03*
%TO.N,Board_3-AUX2*%
X19740001Y-86255226D03*
X19750001Y-69020004D03*
X27500001Y-77500004D03*
%TO.N,Board_3-AUX1*%
X18750001Y-69010004D03*
X23620001Y-73960004D03*
X18530001Y-86350004D03*
%TO.N,Board_3-+3.3V*%
X15640001Y-75950004D03*
X23370001Y-73340004D03*
X11500002Y-75730003D03*
%TO.N,Board_2-SCLK*%
X19130001Y-65840003D03*
X19250001Y-48760003D03*
%TO.N,Board_2-RESETB*%
X11360002Y-57150002D03*
X17227586Y-66009994D03*
X17250001Y-48750003D03*
%TO.N,Board_2-IN_ref*%
X19510001Y-55040003D03*
X19420001Y-60370003D03*
%TO.N,Board_2-IN5*%
X19350001Y-54480003D03*
X11220001Y-53960003D03*
%TO.N,Board_2-IN4*%
X19660001Y-53990003D03*
X11810001Y-53500003D03*
%TO.N,Board_2-IN3*%
X19260001Y-53560003D03*
%TO.N,Board_2-IN2*%
X23210001Y-54300003D03*
%TO.N,Board_2-IN1*%
X23790001Y-54310003D03*
%TO.N,Board_2-I2C_SDA*%
X16259931Y-66020247D03*
X16250001Y-48760003D03*
X7600002Y-54160002D03*
%TO.N,Board_2-I2C_SCL*%
X16739428Y-48510004D03*
X16740002Y-65750002D03*
%TO.N,Board_2-GND*%
X27380001Y-59750003D03*
X18020002Y-48520002D03*
X11360002Y-61100002D03*
X20750001Y-48430003D03*
X23510000Y-56500002D03*
X19420001Y-61040003D03*
X7590002Y-53140002D03*
X20750001Y-65784599D03*
%TO.N,Board_2-D_RDYB*%
X23360001Y-61100003D03*
X11690001Y-61640003D03*
%TO.N,Board_2-DOUT*%
X21340001Y-66000003D03*
X21250001Y-48760003D03*
%TO.N,Board_2-DIN*%
X20240001Y-66060003D03*
X20250001Y-48760003D03*
%TO.N,Board_2-AUX2*%
X27500001Y-57000003D03*
X19750001Y-48520003D03*
X19740001Y-65755225D03*
%TO.N,Board_2-AUX1*%
X18750001Y-48510003D03*
X18530001Y-65850003D03*
X23620001Y-53460003D03*
%TO.N,Board_2-+3.3V*%
X11500002Y-55230002D03*
X15640001Y-55450003D03*
X23370001Y-52840003D03*
%TO.N,Board_1-SCLK*%
X19250001Y-28260002D03*
X19130001Y-45340002D03*
%TO.N,Board_1-RESETB*%
X11360002Y-36650001D03*
X17227586Y-45509993D03*
X17250001Y-28250002D03*
%TO.N,Board_1-IN_ref*%
X19510001Y-34540002D03*
X19420001Y-39870002D03*
%TO.N,Board_1-IN5*%
X19350001Y-33980002D03*
X11220001Y-33460002D03*
%TO.N,Board_1-IN4*%
X19660001Y-33490002D03*
X11810001Y-33000002D03*
%TO.N,Board_1-IN3*%
X19260001Y-33060002D03*
%TO.N,Board_1-IN2*%
X23210001Y-33800002D03*
%TO.N,Board_1-IN1*%
X23790001Y-33810002D03*
%TO.N,Board_1-I2C_SDA*%
X16250001Y-28260002D03*
X7600002Y-33660001D03*
X16259931Y-45520246D03*
%TO.N,Board_1-I2C_SCL*%
X16739428Y-28010003D03*
X16740002Y-45250001D03*
%TO.N,Board_1-GND*%
X20750001Y-27930002D03*
X23510000Y-36000001D03*
X7590002Y-32640001D03*
X20750001Y-45284598D03*
X27380001Y-39250002D03*
X18020002Y-28020001D03*
X11360002Y-40600001D03*
X19420001Y-40540002D03*
%TO.N,Board_1-D_RDYB*%
X11690001Y-41140002D03*
X23360001Y-40600002D03*
%TO.N,Board_1-DOUT*%
X21340001Y-45500002D03*
X21250001Y-28260002D03*
%TO.N,Board_1-DIN*%
X20240001Y-45560002D03*
X20250001Y-28260002D03*
%TO.N,Board_1-AUX2*%
X19750001Y-28020002D03*
X19740001Y-45255224D03*
X27500001Y-36500002D03*
%TO.N,Board_1-AUX1*%
X18750001Y-28010002D03*
X23620001Y-32960002D03*
X18530001Y-45350002D03*
%TO.N,Board_1-+3.3V*%
X23370001Y-32340002D03*
X15640001Y-34950002D03*
X11500002Y-34730001D03*
%TO.N,Board_0-SCLK*%
X19130001Y-24840001D03*
X19250001Y-7760001D03*
%TO.N,Board_0-RESETB*%
X17250001Y-7750001D03*
X11360002Y-16150000D03*
X17227586Y-25009992D03*
%TO.N,Board_0-IN_ref*%
X19510001Y-14040001D03*
X19420001Y-19370001D03*
%TO.N,Board_0-IN5*%
X19350001Y-13480001D03*
X11220001Y-12960001D03*
%TO.N,Board_0-IN4*%
X11810001Y-12500001D03*
X19660001Y-12990001D03*
%TO.N,Board_0-IN3*%
X19260001Y-12560001D03*
%TO.N,Board_0-IN2*%
X23210001Y-13300001D03*
%TO.N,Board_0-IN1*%
X23790001Y-13310001D03*
%TO.N,Board_0-I2C_SDA*%
X16259931Y-25020245D03*
X16250001Y-7760001D03*
X7600002Y-13160000D03*
%TO.N,Board_0-I2C_SCL*%
X16739428Y-7510002D03*
X16740002Y-24750000D03*
%TO.N,Board_0-GND*%
X18020002Y-7520000D03*
X27380001Y-18750001D03*
X20750001Y-24784597D03*
X11360002Y-20100000D03*
X19420001Y-20040001D03*
X7590002Y-12140000D03*
X20750001Y-7430001D03*
X23510000Y-15500000D03*
%TO.N,Board_0-D_RDYB*%
X23360001Y-20100001D03*
X11690001Y-20640001D03*
%TO.N,Board_0-DOUT*%
X21250001Y-7760001D03*
X21340001Y-25000001D03*
%TO.N,Board_0-DIN*%
X20240001Y-25060001D03*
X20250001Y-7760001D03*
%TO.N,Board_0-AUX2*%
X19740001Y-24755223D03*
X19750001Y-7520001D03*
X27500001Y-16000001D03*
%TO.N,Board_0-AUX1*%
X18530001Y-24850001D03*
X23620001Y-12460001D03*
X18750001Y-7510001D03*
%TO.N,Board_0-+3.3V*%
X11500002Y-14230000D03*
X23370001Y-11840001D03*
X15640001Y-14450001D03*
%TD*%
D11*
%TO.N,Board_3-SCLK*%
X19533001Y-69434666D02*
X20205839Y-70107504D01*
X26950002Y-76321333D02*
X26942609Y-76328726D01*
X26942609Y-76328726D02*
X26942609Y-76671282D01*
X19130001Y-86250004D02*
X19130001Y-86340004D01*
X26950002Y-83829351D02*
X25413349Y-85366004D01*
X25186849Y-70107504D02*
X26950002Y-71870657D01*
X26950002Y-76678675D02*
X26950002Y-83829351D01*
X19533001Y-69387782D02*
X19533001Y-69434666D01*
X25413349Y-85366004D02*
X20014001Y-85366004D01*
X26950002Y-71870657D02*
X26950002Y-76321333D01*
X19250001Y-69260004D02*
X19405223Y-69260004D01*
X20205839Y-70107504D02*
X25186849Y-70107504D01*
X26942609Y-76671282D02*
X26950002Y-76678675D01*
X20014001Y-85366004D02*
X19130001Y-86250004D01*
X19405223Y-69260004D02*
X19533001Y-69387782D01*
%TO.N,Board_3-RESETB*%
X9474002Y-72649771D02*
X12233269Y-69890504D01*
X16956428Y-69566888D02*
X16956428Y-69543577D01*
X16911280Y-85836503D02*
X12070270Y-85836503D01*
X12233269Y-69890504D02*
X16632812Y-69890504D01*
X16632812Y-69890504D02*
X16956428Y-69566888D01*
X9474002Y-77654003D02*
X9474002Y-72649771D01*
X16956428Y-69543577D02*
X17250001Y-69250004D01*
X12070270Y-85836503D02*
X9474002Y-83240235D01*
X9478002Y-77650003D02*
X9474002Y-77654003D01*
X17227586Y-86509995D02*
X17227586Y-86152809D01*
X17227586Y-86152809D02*
X16911280Y-85836503D01*
X11360002Y-77650003D02*
X9478002Y-77650003D01*
X9474002Y-83240235D02*
X9474002Y-77654003D01*
%TO.N,Board_3-IN5*%
X11750001Y-74990004D02*
X11220001Y-74460004D01*
X19350001Y-74980004D02*
X19340001Y-74990004D01*
X19340001Y-74990004D02*
X11750001Y-74990004D01*
%TO.N,Board_3-IN4*%
X12300001Y-74490004D02*
X11810001Y-74000004D01*
X19660001Y-74490004D02*
X12300001Y-74490004D01*
%TO.N,Board_3-I2C_SDA*%
X12053501Y-69456504D02*
X16053501Y-69456504D01*
X16053501Y-69456504D02*
X16250001Y-69260004D01*
X9010002Y-74660003D02*
X9040002Y-74630003D01*
X7600002Y-74660003D02*
X9010002Y-74660003D01*
X9040002Y-74630003D02*
X9040002Y-72470003D01*
X9040002Y-83420003D02*
X9040002Y-74630003D01*
X11897002Y-86277003D02*
X9040002Y-83420003D01*
X16016686Y-86277003D02*
X11897002Y-86277003D01*
X16259931Y-86520248D02*
X16016686Y-86277003D01*
X9040002Y-72470003D02*
X12053501Y-69456504D01*
%TO.N,Board_3-I2C_SCL*%
X16550002Y-86060003D02*
X16740002Y-86250003D01*
X11986886Y-86060003D02*
X16550002Y-86060003D01*
X9257002Y-83330119D02*
X11986886Y-86060003D01*
X12143385Y-69673504D02*
X9257002Y-72559887D01*
X9257002Y-72559887D02*
X9257002Y-83330119D01*
X16739428Y-69010005D02*
X16739428Y-69477004D01*
X16739428Y-69477004D02*
X16542928Y-69673504D01*
X16542928Y-69673504D02*
X12143385Y-69673504D01*
%TO.N,Board_3-D_RDYB*%
X11690001Y-82140004D02*
X22820001Y-82140004D01*
X22820001Y-82140004D02*
X23360001Y-81600004D01*
%TO.N,Board_3-DOUT*%
X28227501Y-83492504D02*
X28227501Y-72227504D01*
X21588941Y-86251064D02*
X25468941Y-86251064D01*
X28227501Y-72227504D02*
X25426501Y-69426504D01*
X21340001Y-86500004D02*
X21588941Y-86251064D01*
X21416501Y-69426504D02*
X21250001Y-69260004D01*
X25468941Y-86251064D02*
X28227501Y-83492504D01*
X25426501Y-69426504D02*
X21416501Y-69426504D01*
%TO.N,Board_3-DIN*%
X25366617Y-69673504D02*
X20663501Y-69673504D01*
X20240001Y-86560004D02*
X20240001Y-86062110D01*
X25593117Y-85800004D02*
X28010501Y-83382620D01*
X20663501Y-69673504D02*
X20250001Y-69260004D01*
X20502107Y-85800004D02*
X25593117Y-85800004D01*
X20240001Y-86062110D02*
X20502107Y-85800004D01*
X28010501Y-72317388D02*
X25366617Y-69673504D01*
X28010501Y-83382620D02*
X28010501Y-72317388D01*
%TO.N,Board_3-AUX2*%
X27793501Y-77206504D02*
X27793501Y-72407272D01*
X27500001Y-77500004D02*
X27793501Y-77206504D01*
X25276733Y-69890504D02*
X20295723Y-69890504D01*
X20287001Y-85583004D02*
X19740001Y-86130004D01*
X25503233Y-85583004D02*
X20287001Y-85583004D01*
X27793501Y-77793504D02*
X27793501Y-83292736D01*
X27500001Y-77500004D02*
X27793501Y-77793504D01*
X19750001Y-69344782D02*
X19750001Y-69020004D01*
X20295723Y-69890504D02*
X19750001Y-69344782D01*
X27793501Y-83292736D02*
X25503233Y-85583004D01*
X19740001Y-86130004D02*
X19740001Y-86255226D01*
X27793501Y-72407272D02*
X25276733Y-69890504D01*
%TO.N,Board_3-AUX1*%
X19729723Y-70324504D02*
X23784501Y-70324504D01*
X26725609Y-76238842D02*
X26725609Y-76761166D01*
X26733002Y-76231449D02*
X26725609Y-76238842D01*
X25323465Y-85149004D02*
X19651001Y-85149004D01*
X25096965Y-70324504D02*
X26733002Y-71960541D01*
X23784501Y-73795504D02*
X23784501Y-70324504D01*
X18530001Y-86270004D02*
X18530001Y-86350004D01*
X23784501Y-70324504D02*
X25096965Y-70324504D01*
X19651001Y-85149004D02*
X18530001Y-86270004D01*
X26725609Y-76761166D02*
X26733002Y-76768559D01*
X18750001Y-69344782D02*
X19729723Y-70324504D01*
X18750001Y-69010004D02*
X18750001Y-69344782D01*
X23620001Y-73960004D02*
X23784501Y-73795504D01*
X26733002Y-71960541D02*
X26733002Y-76231449D01*
X26733002Y-83739467D02*
X25323465Y-85149004D01*
X26733002Y-76768559D02*
X26733002Y-83739467D01*
%TO.N,Board_3-+3.3V*%
X11720003Y-75950004D02*
X15640001Y-75950004D01*
X20500001Y-76210004D02*
X15900001Y-76210004D01*
X11500002Y-75730003D02*
X11720003Y-75950004D01*
X15900001Y-76210004D02*
X15640001Y-75950004D01*
X23370001Y-73340004D02*
X20500001Y-76210004D01*
%TO.N,Board_2-SCLK*%
X19533001Y-48934665D02*
X20205839Y-49607503D01*
X19405223Y-48760003D02*
X19533001Y-48887781D01*
X19250001Y-48760003D02*
X19405223Y-48760003D01*
X19130001Y-65750003D02*
X19130001Y-65840003D01*
X19533001Y-48887781D02*
X19533001Y-48934665D01*
X20014001Y-64866003D02*
X19130001Y-65750003D01*
X26950002Y-63329350D02*
X25413349Y-64866003D01*
X25186849Y-49607503D02*
X26950002Y-51370656D01*
X25413349Y-64866003D02*
X20014001Y-64866003D01*
X20205839Y-49607503D02*
X25186849Y-49607503D01*
X26942609Y-56171281D02*
X26950002Y-56178674D01*
X26950002Y-55821332D02*
X26942609Y-55828725D01*
X26942609Y-55828725D02*
X26942609Y-56171281D01*
X26950002Y-56178674D02*
X26950002Y-63329350D01*
X26950002Y-51370656D02*
X26950002Y-55821332D01*
%TO.N,Board_2-RESETB*%
X17227586Y-65652808D02*
X16911280Y-65336502D01*
X11360002Y-57150002D02*
X9478002Y-57150002D01*
X17227586Y-66009994D02*
X17227586Y-65652808D01*
X9474002Y-52149770D02*
X12233269Y-49390503D01*
X12233269Y-49390503D02*
X16632812Y-49390503D01*
X16632812Y-49390503D02*
X16956428Y-49066887D01*
X16956428Y-49066887D02*
X16956428Y-49043576D01*
X9478002Y-57150002D02*
X9474002Y-57154002D01*
X9474002Y-57154002D02*
X9474002Y-52149770D01*
X12070270Y-65336502D02*
X9474002Y-62740234D01*
X9474002Y-62740234D02*
X9474002Y-57154002D01*
X16911280Y-65336502D02*
X12070270Y-65336502D01*
X16956428Y-49043576D02*
X17250001Y-48750003D01*
%TO.N,Board_2-IN5*%
X19340001Y-54490003D02*
X11750001Y-54490003D01*
X11750001Y-54490003D02*
X11220001Y-53960003D01*
X19350001Y-54480003D02*
X19340001Y-54490003D01*
%TO.N,Board_2-IN4*%
X19660001Y-53990003D02*
X12300001Y-53990003D01*
X12300001Y-53990003D02*
X11810001Y-53500003D01*
%TO.N,Board_2-I2C_SDA*%
X16053501Y-48956503D02*
X16250001Y-48760003D01*
X7600002Y-54160002D02*
X9010002Y-54160002D01*
X11897002Y-65777002D02*
X9040002Y-62920002D01*
X16259931Y-66020247D02*
X16016686Y-65777002D01*
X9040002Y-54130002D02*
X9040002Y-51970002D01*
X9040002Y-51970002D02*
X12053501Y-48956503D01*
X16016686Y-65777002D02*
X11897002Y-65777002D01*
X9040002Y-62920002D02*
X9040002Y-54130002D01*
X9010002Y-54160002D02*
X9040002Y-54130002D01*
X12053501Y-48956503D02*
X16053501Y-48956503D01*
%TO.N,Board_2-I2C_SCL*%
X12143385Y-49173503D02*
X9257002Y-52059886D01*
X11986886Y-65560002D02*
X16550002Y-65560002D01*
X16542928Y-49173503D02*
X12143385Y-49173503D01*
X16550002Y-65560002D02*
X16740002Y-65750002D01*
X16739428Y-48977003D02*
X16542928Y-49173503D01*
X9257002Y-52059886D02*
X9257002Y-62830118D01*
X16739428Y-48510004D02*
X16739428Y-48977003D01*
X9257002Y-62830118D02*
X11986886Y-65560002D01*
%TO.N,Board_2-D_RDYB*%
X11690001Y-61640003D02*
X22820001Y-61640003D01*
X22820001Y-61640003D02*
X23360001Y-61100003D01*
%TO.N,Board_2-DOUT*%
X21588941Y-65751063D02*
X25468941Y-65751063D01*
X25426501Y-48926503D02*
X21416501Y-48926503D01*
X25468941Y-65751063D02*
X28227501Y-62992503D01*
X28227501Y-62992503D02*
X28227501Y-51727503D01*
X21340001Y-66000003D02*
X21588941Y-65751063D01*
X28227501Y-51727503D02*
X25426501Y-48926503D01*
X21416501Y-48926503D02*
X21250001Y-48760003D01*
%TO.N,Board_2-DIN*%
X20240001Y-65562109D02*
X20502107Y-65300003D01*
X28010501Y-51817387D02*
X25366617Y-49173503D01*
X20502107Y-65300003D02*
X25593117Y-65300003D01*
X20240001Y-66060003D02*
X20240001Y-65562109D01*
X25366617Y-49173503D02*
X20663501Y-49173503D01*
X28010501Y-62882619D02*
X28010501Y-51817387D01*
X20663501Y-49173503D02*
X20250001Y-48760003D01*
X25593117Y-65300003D02*
X28010501Y-62882619D01*
%TO.N,Board_2-AUX2*%
X20287001Y-65083003D02*
X19740001Y-65630003D01*
X20295723Y-49390503D02*
X19750001Y-48844781D01*
X27793501Y-62792735D02*
X25503233Y-65083003D01*
X25276733Y-49390503D02*
X20295723Y-49390503D01*
X27793501Y-57293503D02*
X27793501Y-62792735D01*
X27793501Y-56706503D02*
X27793501Y-51907271D01*
X19740001Y-65630003D02*
X19740001Y-65755225D01*
X27500001Y-57000003D02*
X27793501Y-57293503D01*
X27793501Y-51907271D02*
X25276733Y-49390503D01*
X19750001Y-48844781D02*
X19750001Y-48520003D01*
X25503233Y-65083003D02*
X20287001Y-65083003D01*
X27500001Y-57000003D02*
X27793501Y-56706503D01*
%TO.N,Board_2-AUX1*%
X25323465Y-64649003D02*
X19651001Y-64649003D01*
X18530001Y-65770003D02*
X18530001Y-65850003D01*
X23784501Y-49824503D02*
X25096965Y-49824503D01*
X26733002Y-63239466D02*
X25323465Y-64649003D01*
X18750001Y-48844781D02*
X19729723Y-49824503D01*
X26725609Y-56261165D02*
X26733002Y-56268558D01*
X23620001Y-53460003D02*
X23784501Y-53295503D01*
X26733002Y-56268558D02*
X26733002Y-63239466D01*
X23784501Y-53295503D02*
X23784501Y-49824503D01*
X26733002Y-55731448D02*
X26725609Y-55738841D01*
X26733002Y-51460540D02*
X26733002Y-55731448D01*
X19729723Y-49824503D02*
X23784501Y-49824503D01*
X25096965Y-49824503D02*
X26733002Y-51460540D01*
X18750001Y-48510003D02*
X18750001Y-48844781D01*
X19651001Y-64649003D02*
X18530001Y-65770003D01*
X26725609Y-55738841D02*
X26725609Y-56261165D01*
%TO.N,Board_2-+3.3V*%
X15900001Y-55710003D02*
X15640001Y-55450003D01*
X11720003Y-55450003D02*
X15640001Y-55450003D01*
X23370001Y-52840003D02*
X20500001Y-55710003D01*
X20500001Y-55710003D02*
X15900001Y-55710003D01*
X11500002Y-55230002D02*
X11720003Y-55450003D01*
%TO.N,Board_1-SCLK*%
X25413349Y-44366002D02*
X20014001Y-44366002D01*
X20205839Y-29107502D02*
X25186849Y-29107502D01*
X20014001Y-44366002D02*
X19130001Y-45250002D01*
X19130001Y-45250002D02*
X19130001Y-45340002D01*
X26950002Y-35321331D02*
X26942609Y-35328724D01*
X19533001Y-28387780D02*
X19533001Y-28434664D01*
X25186849Y-29107502D02*
X26950002Y-30870655D01*
X26950002Y-30870655D02*
X26950002Y-35321331D01*
X26942609Y-35671280D02*
X26950002Y-35678673D01*
X26942609Y-35328724D02*
X26942609Y-35671280D01*
X26950002Y-42829349D02*
X25413349Y-44366002D01*
X19250001Y-28260002D02*
X19405223Y-28260002D01*
X19533001Y-28434664D02*
X20205839Y-29107502D01*
X26950002Y-35678673D02*
X26950002Y-42829349D01*
X19405223Y-28260002D02*
X19533001Y-28387780D01*
%TO.N,Board_1-RESETB*%
X9474002Y-42240233D02*
X9474002Y-36654001D01*
X17227586Y-45509993D02*
X17227586Y-45152807D01*
X16956428Y-28566886D02*
X16956428Y-28543575D01*
X12233269Y-28890502D02*
X16632812Y-28890502D01*
X16911280Y-44836501D02*
X12070270Y-44836501D01*
X16956428Y-28543575D02*
X17250001Y-28250002D01*
X12070270Y-44836501D02*
X9474002Y-42240233D01*
X16632812Y-28890502D02*
X16956428Y-28566886D01*
X9474002Y-36654001D02*
X9474002Y-31649769D01*
X17227586Y-45152807D02*
X16911280Y-44836501D01*
X9478002Y-36650001D02*
X9474002Y-36654001D01*
X11360002Y-36650001D02*
X9478002Y-36650001D01*
X9474002Y-31649769D02*
X12233269Y-28890502D01*
%TO.N,Board_1-IN5*%
X19340001Y-33990002D02*
X11750001Y-33990002D01*
X11750001Y-33990002D02*
X11220001Y-33460002D01*
X19350001Y-33980002D02*
X19340001Y-33990002D01*
%TO.N,Board_1-IN4*%
X19660001Y-33490002D02*
X12300001Y-33490002D01*
X12300001Y-33490002D02*
X11810001Y-33000002D01*
%TO.N,Board_1-I2C_SDA*%
X9040002Y-31470001D02*
X12053501Y-28456502D01*
X16053501Y-28456502D02*
X16250001Y-28260002D01*
X7600002Y-33660001D02*
X9010002Y-33660001D01*
X9040002Y-33630001D02*
X9040002Y-31470001D01*
X9010002Y-33660001D02*
X9040002Y-33630001D01*
X16016686Y-45277001D02*
X11897002Y-45277001D01*
X12053501Y-28456502D02*
X16053501Y-28456502D01*
X11897002Y-45277001D02*
X9040002Y-42420001D01*
X9040002Y-42420001D02*
X9040002Y-33630001D01*
X16259931Y-45520246D02*
X16016686Y-45277001D01*
%TO.N,Board_1-I2C_SCL*%
X9257002Y-31559885D02*
X9257002Y-42330117D01*
X16739428Y-28477002D02*
X16542928Y-28673502D01*
X12143385Y-28673502D02*
X9257002Y-31559885D01*
X9257002Y-42330117D02*
X11986886Y-45060001D01*
X16550002Y-45060001D02*
X16740002Y-45250001D01*
X11986886Y-45060001D02*
X16550002Y-45060001D01*
X16542928Y-28673502D02*
X12143385Y-28673502D01*
X16739428Y-28010003D02*
X16739428Y-28477002D01*
%TO.N,Board_1-D_RDYB*%
X22820001Y-41140002D02*
X23360001Y-40600002D01*
X11690001Y-41140002D02*
X22820001Y-41140002D01*
%TO.N,Board_1-DOUT*%
X21416501Y-28426502D02*
X21250001Y-28260002D01*
X28227501Y-31227502D02*
X25426501Y-28426502D01*
X25468941Y-45251062D02*
X28227501Y-42492502D01*
X25426501Y-28426502D02*
X21416501Y-28426502D01*
X21340001Y-45500002D02*
X21588941Y-45251062D01*
X28227501Y-42492502D02*
X28227501Y-31227502D01*
X21588941Y-45251062D02*
X25468941Y-45251062D01*
%TO.N,Board_1-DIN*%
X20502107Y-44800002D02*
X25593117Y-44800002D01*
X20240001Y-45062108D02*
X20502107Y-44800002D01*
X20240001Y-45560002D02*
X20240001Y-45062108D01*
X28010501Y-31317386D02*
X25366617Y-28673502D01*
X20663501Y-28673502D02*
X20250001Y-28260002D01*
X25593117Y-44800002D02*
X28010501Y-42382618D01*
X28010501Y-42382618D02*
X28010501Y-31317386D01*
X25366617Y-28673502D02*
X20663501Y-28673502D01*
%TO.N,Board_1-AUX2*%
X25503233Y-44583002D02*
X20287001Y-44583002D01*
X27793501Y-36793502D02*
X27793501Y-42292734D01*
X19750001Y-28344780D02*
X19750001Y-28020002D01*
X20287001Y-44583002D02*
X19740001Y-45130002D01*
X27793501Y-31407270D02*
X25276733Y-28890502D01*
X19740001Y-45130002D02*
X19740001Y-45255224D01*
X27793501Y-42292734D02*
X25503233Y-44583002D01*
X27500001Y-36500002D02*
X27793501Y-36206502D01*
X20295723Y-28890502D02*
X19750001Y-28344780D01*
X25276733Y-28890502D02*
X20295723Y-28890502D01*
X27500001Y-36500002D02*
X27793501Y-36793502D01*
X27793501Y-36206502D02*
X27793501Y-31407270D01*
%TO.N,Board_1-AUX1*%
X18530001Y-45270002D02*
X18530001Y-45350002D01*
X26725609Y-35238840D02*
X26725609Y-35761164D01*
X26733002Y-30960539D02*
X26733002Y-35231447D01*
X26733002Y-42739465D02*
X25323465Y-44149002D01*
X26733002Y-35768557D02*
X26733002Y-42739465D01*
X26725609Y-35761164D02*
X26733002Y-35768557D01*
X23620001Y-32960002D02*
X23784501Y-32795502D01*
X25096965Y-29324502D02*
X26733002Y-30960539D01*
X26733002Y-35231447D02*
X26725609Y-35238840D01*
X19651001Y-44149002D02*
X18530001Y-45270002D01*
X25323465Y-44149002D02*
X19651001Y-44149002D01*
X23784501Y-32795502D02*
X23784501Y-29324502D01*
X18750001Y-28344780D02*
X19729723Y-29324502D01*
X23784501Y-29324502D02*
X25096965Y-29324502D01*
X18750001Y-28010002D02*
X18750001Y-28344780D01*
X19729723Y-29324502D02*
X23784501Y-29324502D01*
%TO.N,Board_1-+3.3V*%
X11720003Y-34950002D02*
X15640001Y-34950002D01*
X15900001Y-35210002D02*
X15640001Y-34950002D01*
X11500002Y-34730001D02*
X11720003Y-34950002D01*
X20500001Y-35210002D02*
X15900001Y-35210002D01*
X23370001Y-32340002D02*
X20500001Y-35210002D01*
%TO.N,Board_0-SCLK*%
X26942609Y-15171279D02*
X26950002Y-15178672D01*
X26950002Y-15178672D02*
X26950002Y-22329348D01*
X19250001Y-7760001D02*
X19405223Y-7760001D01*
X26950002Y-14821330D02*
X26942609Y-14828723D01*
X26950002Y-22329348D02*
X25413349Y-23866001D01*
X26950002Y-10370654D02*
X26950002Y-14821330D01*
X25413349Y-23866001D02*
X20014001Y-23866001D01*
X19130001Y-24750001D02*
X19130001Y-24840001D01*
X25186849Y-8607501D02*
X26950002Y-10370654D01*
X20205839Y-8607501D02*
X25186849Y-8607501D01*
X19533001Y-7934663D02*
X20205839Y-8607501D01*
X20014001Y-23866001D02*
X19130001Y-24750001D01*
X19405223Y-7760001D02*
X19533001Y-7887779D01*
X19533001Y-7887779D02*
X19533001Y-7934663D01*
X26942609Y-14828723D02*
X26942609Y-15171279D01*
%TO.N,Board_0-RESETB*%
X16911280Y-24336500D02*
X12070270Y-24336500D01*
X12233269Y-8390501D02*
X16632812Y-8390501D01*
X12070270Y-24336500D02*
X9474002Y-21740232D01*
X9474002Y-11149768D02*
X12233269Y-8390501D01*
X11360002Y-16150000D02*
X9478002Y-16150000D01*
X17227586Y-24652806D02*
X16911280Y-24336500D01*
X9478002Y-16150000D02*
X9474002Y-16154000D01*
X9474002Y-21740232D02*
X9474002Y-16154000D01*
X9474002Y-16154000D02*
X9474002Y-11149768D01*
X17227586Y-25009992D02*
X17227586Y-24652806D01*
X16956428Y-8043574D02*
X17250001Y-7750001D01*
X16632812Y-8390501D02*
X16956428Y-8066885D01*
X16956428Y-8066885D02*
X16956428Y-8043574D01*
%TO.N,Board_0-IN5*%
X11750001Y-13490001D02*
X11220001Y-12960001D01*
X19350001Y-13480001D02*
X19340001Y-13490001D01*
X19340001Y-13490001D02*
X11750001Y-13490001D01*
%TO.N,Board_0-IN4*%
X19660001Y-12990001D02*
X12300001Y-12990001D01*
X12300001Y-12990001D02*
X11810001Y-12500001D01*
%TO.N,Board_0-I2C_SDA*%
X7600002Y-13160000D02*
X9010002Y-13160000D01*
X16053501Y-7956501D02*
X16250001Y-7760001D01*
X9040002Y-21920000D02*
X9040002Y-13130000D01*
X12053501Y-7956501D02*
X16053501Y-7956501D01*
X9040002Y-13130000D02*
X9040002Y-10970000D01*
X16016686Y-24777000D02*
X11897002Y-24777000D01*
X9040002Y-10970000D02*
X12053501Y-7956501D01*
X16259931Y-25020245D02*
X16016686Y-24777000D01*
X9010002Y-13160000D02*
X9040002Y-13130000D01*
X11897002Y-24777000D02*
X9040002Y-21920000D01*
%TO.N,Board_0-I2C_SCL*%
X16739428Y-7977001D02*
X16542928Y-8173501D01*
X16739428Y-7510002D02*
X16739428Y-7977001D01*
X9257002Y-21830116D02*
X11986886Y-24560000D01*
X12143385Y-8173501D02*
X9257002Y-11059884D01*
X9257002Y-11059884D02*
X9257002Y-21830116D01*
X16550002Y-24560000D02*
X16740002Y-24750000D01*
X11986886Y-24560000D02*
X16550002Y-24560000D01*
X16542928Y-8173501D02*
X12143385Y-8173501D01*
%TO.N,Board_0-D_RDYB*%
X11690001Y-20640001D02*
X22820001Y-20640001D01*
X22820001Y-20640001D02*
X23360001Y-20100001D01*
%TO.N,Board_0-DOUT*%
X21588941Y-24751061D02*
X25468941Y-24751061D01*
X25426501Y-7926501D02*
X21416501Y-7926501D01*
X25468941Y-24751061D02*
X28227501Y-21992501D01*
X28227501Y-10727501D02*
X25426501Y-7926501D01*
X28227501Y-21992501D02*
X28227501Y-10727501D01*
X21340001Y-25000001D02*
X21588941Y-24751061D01*
X21416501Y-7926501D02*
X21250001Y-7760001D01*
%TO.N,Board_0-DIN*%
X28010501Y-10817385D02*
X25366617Y-8173501D01*
X25366617Y-8173501D02*
X20663501Y-8173501D01*
X20240001Y-25060001D02*
X20240001Y-24562107D01*
X20240001Y-24562107D02*
X20502107Y-24300001D01*
X25593117Y-24300001D02*
X28010501Y-21882617D01*
X20502107Y-24300001D02*
X25593117Y-24300001D01*
X20663501Y-8173501D02*
X20250001Y-7760001D01*
X28010501Y-21882617D02*
X28010501Y-10817385D01*
%TO.N,Board_0-AUX2*%
X20295723Y-8390501D02*
X19750001Y-7844779D01*
X25503233Y-24083001D02*
X20287001Y-24083001D01*
X27500001Y-16000001D02*
X27793501Y-15706501D01*
X27793501Y-16293501D02*
X27793501Y-21792733D01*
X27793501Y-15706501D02*
X27793501Y-10907269D01*
X25276733Y-8390501D02*
X20295723Y-8390501D01*
X19750001Y-7844779D02*
X19750001Y-7520001D01*
X27500001Y-16000001D02*
X27793501Y-16293501D01*
X20287001Y-24083001D02*
X19740001Y-24630001D01*
X19740001Y-24630001D02*
X19740001Y-24755223D01*
X27793501Y-21792733D02*
X25503233Y-24083001D01*
X27793501Y-10907269D02*
X25276733Y-8390501D01*
%TO.N,Board_0-AUX1*%
X26725609Y-15261163D02*
X26733002Y-15268556D01*
X18530001Y-24770001D02*
X18530001Y-24850001D01*
X19651001Y-23649001D02*
X18530001Y-24770001D01*
X19729723Y-8824501D02*
X23784501Y-8824501D01*
X26733002Y-10460538D02*
X26733002Y-14731446D01*
X26725609Y-14738839D02*
X26725609Y-15261163D01*
X26733002Y-22239464D02*
X25323465Y-23649001D01*
X23784501Y-12295501D02*
X23784501Y-8824501D01*
X18750001Y-7844779D02*
X19729723Y-8824501D01*
X26733002Y-15268556D02*
X26733002Y-22239464D01*
X26733002Y-14731446D02*
X26725609Y-14738839D01*
X23620001Y-12460001D02*
X23784501Y-12295501D01*
X25096965Y-8824501D02*
X26733002Y-10460538D01*
X23784501Y-8824501D02*
X25096965Y-8824501D01*
X18750001Y-7510001D02*
X18750001Y-7844779D01*
X25323465Y-23649001D02*
X19651001Y-23649001D01*
%TO.N,Board_0-+3.3V*%
X11500002Y-14230000D02*
X11720003Y-14450001D01*
X23370001Y-11840001D02*
X20500001Y-14710001D01*
X20500001Y-14710001D02*
X15900001Y-14710001D01*
X15900001Y-14710001D02*
X15640001Y-14450001D01*
X11720003Y-14450001D02*
X15640001Y-14450001D01*
%TD*%
M02*
