%TF.GenerationSoftware,KiCad,Pcbnew,10.0.3-10.0.3~ubuntu24.04.1*%
%TF.CreationDate,2026-06-16T11:09:25+01:00*%
%TF.ProjectId,EMG_INA331_LIS,454d475f-494e-4413-9333-315f4c49532e,1.1*%
%TF.SameCoordinates,Original*%
%TF.FileFunction,Soldermask,Bot*%
%TF.FilePolarity,Negative*%
%FSLAX46Y46*%
G04 Gerber Fmt 4.6, Leading zero omitted, Abs format (unit mm)*
G04 Created by KiCad (PCBNEW 10.0.3-10.0.3~ubuntu24.04.1) date 2026-06-16 11:09:25*
%MOMM*%
%LPD*%
G01*
G04 APERTURE LIST*
G04 Aperture macros list*
%AMRoundRect*
0 Rectangle with rounded corners*
0 $1 Rounding radius*
0 $2 $3 $4 $5 $6 $7 $8 $9 X,Y pos of 4 corners*
0 Add a 4 corners polygon primitive as box body*
4,1,4,$2,$3,$4,$5,$6,$7,$8,$9,$2,$3,0*
0 Add four circle primitives for the rounded corners*
1,1,$1+$1,$2,$3*
1,1,$1+$1,$4,$5*
1,1,$1+$1,$6,$7*
1,1,$1+$1,$8,$9*
0 Add four rect primitives between the rounded corners*
20,1,$1+$1,$2,$3,$4,$5,0*
20,1,$1+$1,$4,$5,$6,$7,0*
20,1,$1+$1,$6,$7,$8,$9,0*
20,1,$1+$1,$8,$9,$2,$3,0*%
G04 Aperture macros list end*
%ADD10RoundRect,0.140000X0.170000X-0.140000X0.170000X0.140000X-0.170000X0.140000X-0.170000X-0.140000X0*%
%ADD11RoundRect,0.140000X-0.170000X0.140000X-0.170000X-0.140000X0.170000X-0.140000X0.170000X0.140000X0*%
%ADD12RoundRect,0.140000X0.140000X0.170000X-0.140000X0.170000X-0.140000X-0.170000X0.140000X-0.170000X0*%
%ADD13RoundRect,0.140000X-0.140000X-0.170000X0.140000X-0.170000X0.140000X0.170000X-0.140000X0.170000X0*%
%ADD14R,1.000000X1.000000*%
%ADD15RoundRect,0.135000X-0.135000X-0.185000X0.135000X-0.185000X0.135000X0.185000X-0.135000X0.185000X0*%
%ADD16RoundRect,0.135000X-0.185000X0.135000X-0.185000X-0.135000X0.185000X-0.135000X0.185000X0.135000X0*%
%ADD17RoundRect,0.135000X0.185000X-0.135000X0.185000X0.135000X-0.185000X0.135000X-0.185000X-0.135000X0*%
%ADD18RoundRect,0.135000X0.135000X0.185000X-0.135000X0.185000X-0.135000X-0.185000X0.135000X-0.185000X0*%
%ADD19C,1.000000*%
%ADD20R,1.000000X0.600000*%
G04 APERTURE END LIST*
D10*
%TO.C,C4*%
X-2300000Y-8220000D03*
X-2300000Y-9180000D03*
%TD*%
D11*
%TO.C,C5*%
X-1200000Y-9180000D03*
X-1200000Y-8220000D03*
%TD*%
D10*
%TO.C,C6*%
X-6210000Y-2440000D03*
X-6210000Y-3400000D03*
%TD*%
D12*
%TO.C,C7*%
X-6380000Y-7800000D03*
X-5420000Y-7800000D03*
%TD*%
D13*
%TO.C,C8*%
X-3220000Y-8100000D03*
X-4180000Y-8100000D03*
%TD*%
%TO.C,C9*%
X-5420000Y-8900000D03*
X-6380000Y-8900000D03*
%TD*%
D10*
%TO.C,C11*%
X-5100000Y-2920000D03*
X-5100000Y-3880000D03*
%TD*%
D13*
%TO.C,C12*%
X4080000Y-5900000D03*
X3120000Y-5900000D03*
%TD*%
%TO.C,C13*%
X6480000Y-7500000D03*
X5520000Y-7500000D03*
%TD*%
D12*
%TO.C,C14*%
X5520000Y-5850000D03*
X6480000Y-5850000D03*
%TD*%
%TO.C,C15*%
X5520000Y-4900000D03*
X6480000Y-4900000D03*
%TD*%
D14*
%TO.C,J1*%
X-4445000Y0D03*
%TD*%
%TO.C,J2*%
X-3175000Y0D03*
%TD*%
%TO.C,J3*%
X-1905000Y0D03*
%TD*%
%TO.C,J4*%
X-635000Y0D03*
%TD*%
%TO.C,J5*%
X635000Y0D03*
%TD*%
%TO.C,J6*%
X1905000Y0D03*
%TD*%
%TO.C,J7*%
X3175000Y0D03*
%TD*%
%TO.C,J8*%
X4445000Y0D03*
%TD*%
%TO.C,J9*%
X4445000Y-10000000D03*
%TD*%
%TO.C,J10*%
X-4445000Y-10000000D03*
%TD*%
%TO.C,J11*%
X635000Y-10000000D03*
%TD*%
%TO.C,J12*%
X3000000Y-7500000D03*
%TD*%
D15*
%TO.C,R1*%
X1110000Y-5300000D03*
X90000Y-5300000D03*
%TD*%
%TO.C,R2*%
X4110000Y-4950000D03*
X3090000Y-4950000D03*
%TD*%
D16*
%TO.C,R6*%
X-5200000Y-6820000D03*
X-5200000Y-5800000D03*
%TD*%
D17*
%TO.C,R7*%
X-6200000Y-5780000D03*
X-6200000Y-6800000D03*
%TD*%
D18*
%TO.C,R8*%
X-6110000Y-4800000D03*
X-5090000Y-4800000D03*
%TD*%
D15*
%TO.C,R11*%
X6510000Y-8500000D03*
X5490000Y-8500000D03*
%TD*%
D18*
%TO.C,R13*%
X-210000Y-7600000D03*
X810000Y-7600000D03*
%TD*%
D19*
%TO.C,TP1*%
X6250000Y-3000000D03*
%TD*%
%TO.C,TP2*%
X6250000Y-1250000D03*
%TD*%
D20*
%TO.C,U2*%
X-3500000Y-5050000D03*
X-3500000Y-6950000D03*
X-1300000Y-6950000D03*
X-1300000Y-6000000D03*
X-1300000Y-5050000D03*
%TD*%
M02*
