%TF.GenerationSoftware,KiCad,Pcbnew,10.0.3-10.0.3~ubuntu24.04.1*%
%TF.CreationDate,2026-06-16T11:09:25+01:00*%
%TF.ProjectId,EMG_INA331_LIS,454d475f-494e-4413-9333-315f4c49532e,1.1*%
%TF.SameCoordinates,Original*%
%TF.FileFunction,Copper,L1,Top*%
%TF.FilePolarity,Positive*%
%FSLAX46Y46*%
G04 Gerber Fmt 4.6, Leading zero omitted, Abs format (unit mm)*
G04 Created by KiCad (PCBNEW 10.0.3-10.0.3~ubuntu24.04.1) date 2026-06-16 11:09:25*
%MOMM*%
%LPD*%
G01*
G04 APERTURE LIST*
G04 Aperture macros list*
%AMRoundRect*
0 Rectangle with rounded corners*
0 $1 Rounding radius*
0 $2 $3 $4 $5 $6 $7 $8 $9 X,Y pos of 4 corners*
0 Add a 4 corners polygon primitive as box body*
4,1,4,$2,$3,$4,$5,$6,$7,$8,$9,$2,$3,0*
0 Add four circle primitives for the rounded corners*
1,1,$1+$1,$2,$3*
1,1,$1+$1,$4,$5*
1,1,$1+$1,$6,$7*
1,1,$1+$1,$8,$9*
0 Add four rect primitives between the rounded corners*
20,1,$1+$1,$2,$3,$4,$5,0*
20,1,$1+$1,$4,$5,$6,$7,0*
20,1,$1+$1,$6,$7,$8,$9,0*
20,1,$1+$1,$8,$9,$2,$3,0*%
G04 Aperture macros list end*
%TA.AperFunction,SMDPad,CuDef*%
%ADD10RoundRect,0.135000X-0.135000X-0.185000X0.135000X-0.185000X0.135000X0.185000X-0.135000X0.185000X0*%
%TD*%
%TA.AperFunction,SMDPad,CuDef*%
%ADD11RoundRect,0.140000X0.140000X0.170000X-0.140000X0.170000X-0.140000X-0.170000X0.140000X-0.170000X0*%
%TD*%
%TA.AperFunction,SMDPad,CuDef*%
%ADD12RoundRect,0.140000X-0.170000X0.140000X-0.170000X-0.140000X0.170000X-0.140000X0.170000X0.140000X0*%
%TD*%
%TA.AperFunction,SMDPad,CuDef*%
%ADD13RoundRect,0.140000X-0.140000X-0.170000X0.140000X-0.170000X0.140000X0.170000X-0.140000X0.170000X0*%
%TD*%
%TA.AperFunction,ComponentPad*%
%ADD14R,1.000000X1.000000*%
%TD*%
%TA.AperFunction,CastellatedPad*%
%ADD15R,1.000000X1.000000*%
%TD*%
%TA.AperFunction,SMDPad,CuDef*%
%ADD16RoundRect,0.135000X-0.185000X0.135000X-0.185000X-0.135000X0.185000X-0.135000X0.185000X0.135000X0*%
%TD*%
%TA.AperFunction,SMDPad,CuDef*%
%ADD17RoundRect,0.135000X0.135000X0.185000X-0.135000X0.185000X-0.135000X-0.185000X0.135000X-0.185000X0*%
%TD*%
%TA.AperFunction,SMDPad,CuDef*%
%ADD18O,1.660000X0.360000*%
%TD*%
%TA.AperFunction,SMDPad,CuDef*%
%ADD19R,1.100000X0.620000*%
%TD*%
%TA.AperFunction,SMDPad,CuDef*%
%ADD20R,1.000000X0.600000*%
%TD*%
%TA.AperFunction,SMDPad,CuDef*%
%ADD21R,0.700000X1.250000*%
%TD*%
%TA.AperFunction,SMDPad,CuDef*%
%ADD22O,0.280000X0.800000*%
%TD*%
%TA.AperFunction,SMDPad,CuDef*%
%ADD23O,0.800000X0.280000*%
%TD*%
%TA.AperFunction,ViaPad*%
%ADD24C,0.400000*%
%TD*%
%TA.AperFunction,Conductor*%
%ADD25C,0.152400*%
%TD*%
%TA.AperFunction,Conductor*%
%ADD26C,0.127000*%
%TD*%
G04 APERTURE END LIST*
D10*
%TO.P,R10,1*%
%TO.N,Vref*%
X1490000Y-5900000D03*
%TO.P,R10,2*%
%TO.N,Net-(U4--IN)*%
X2510000Y-5900000D03*
%TD*%
D11*
%TO.P,C1,2*%
%TO.N,GND*%
X-2180000Y-4200000D03*
%TO.P,C1,1*%
%TO.N,Vref*%
X-1220000Y-4200000D03*
%TD*%
D12*
%TO.P,C2,2*%
%TO.N,GND*%
X-1300000Y-3180000D03*
%TO.P,C2,1*%
%TO.N,Vref*%
X-1300000Y-2220000D03*
%TD*%
D13*
%TO.P,C3,2*%
%TO.N,/IN-*%
X680000Y-7500000D03*
%TO.P,C3,1*%
%TO.N,/IN+*%
X-280000Y-7500000D03*
%TD*%
%TO.P,C10,2*%
%TO.N,Net-(U4-+IN)*%
X-5620000Y-4900000D03*
%TO.P,C10,1*%
%TO.N,/OUT_INA*%
X-6580000Y-4900000D03*
%TD*%
D14*
%TO.P,J1,1,Pin_1_1*%
%TO.N,+3.3V*%
X-4445000Y0D03*
%TD*%
%TO.P,J2,1,Pin_1_1*%
%TO.N,GND*%
X-3175000Y0D03*
%TD*%
%TO.P,J3,1,Pin_1_1*%
%TO.N,unconnected-(J3-Pin_1-Pad1)*%
X-1905000Y0D03*
%TD*%
%TO.P,J4,1,Pin_1_1*%
%TO.N,/POCI*%
X-635000Y0D03*
%TD*%
%TO.P,J5,1,Pin_1_1*%
%TO.N,/PICO*%
X635000Y0D03*
%TD*%
%TO.P,J6,1,Pin_1_1*%
%TO.N,/SCLK*%
X1905000Y0D03*
%TD*%
%TO.P,J7,1,Pin_1_1*%
%TO.N,/CSB*%
X3175000Y0D03*
%TD*%
%TO.P,J8,1,Pin_1_1*%
%TO.N,/extRef*%
X4445000Y0D03*
%TD*%
D15*
%TO.P,J9,1,Pin_1_1*%
%TO.N,/PROB-*%
X4445000Y-10000000D03*
%TD*%
%TO.P,J10,1,Pin_1_1*%
%TO.N,/PROB+*%
X-4445000Y-10000000D03*
%TD*%
%TO.P,J11,1,Pin_1_1*%
%TO.N,/PROBref*%
X635000Y-10000000D03*
%TD*%
D14*
%TO.P,J12,1,Pin_1_1*%
%TO.N,Vref*%
X3000000Y-7500000D03*
%TD*%
D16*
%TO.P,R3,2*%
%TO.N,Vref*%
X-2400000Y-2510000D03*
%TO.P,R3,1*%
%TO.N,+3.3VA*%
X-2400000Y-1490000D03*
%TD*%
D17*
%TO.P,R4,2*%
%TO.N,/IN+*%
X-6509999Y-9000000D03*
%TO.P,R4,1*%
%TO.N,/PROB+*%
X-5490001Y-9000000D03*
%TD*%
%TO.P,R5,2*%
%TO.N,/IN-*%
X990413Y-8679354D03*
%TO.P,R5,1*%
%TO.N,/PROB-*%
X2010413Y-8679354D03*
%TD*%
D10*
%TO.P,R9,2*%
%TO.N,Vref*%
X310000Y-5200000D03*
%TO.P,R9,1*%
%TO.N,Net-(U4-+IN)*%
X-710000Y-5200000D03*
%TD*%
D17*
%TO.P,R12,2*%
%TO.N,GND*%
X5790000Y-5700000D03*
%TO.P,R12,1*%
%TO.N,/OUT1*%
X6810000Y-5700000D03*
%TD*%
D10*
%TO.P,R14,2*%
%TO.N,Vref*%
X6710000Y0D03*
%TO.P,R14,1*%
%TO.N,/extRef*%
X5690000Y0D03*
%TD*%
D18*
%TO.P,U1,8,Shutdown_8*%
%TO.N,+3.3VA*%
X-1670000Y-6220000D03*
%TO.P,U1,7,V+_7*%
X-1670000Y-6880000D03*
%TO.P,U1,6,VOUT_6*%
%TO.N,/OUT_INA*%
X-1670000Y-7530000D03*
%TO.P,U1,5,REF_5*%
%TO.N,/REF*%
X-1670000Y-8180000D03*
%TO.P,U1,4,V-_4*%
%TO.N,GND*%
X-5930000Y-8180000D03*
%TO.P,U1,3,VIN+_3*%
%TO.N,/IN-*%
X-5930000Y-7530000D03*
%TO.P,U1,2,VIN-_2*%
%TO.N,/IN+*%
X-5930000Y-6880000D03*
%TO.P,U1,1,RG_1*%
%TO.N,Net-(U1-RG)*%
X-5930000Y-6220000D03*
%TD*%
D19*
%TO.P,U3,5,VOUT_5*%
%TO.N,+3.3VA*%
X-3700000Y-1490200D03*
%TO.P,U3,4,NC_4*%
%TO.N,unconnected-(U3-NC-Pad4)*%
X-3700000Y-3390200D03*
%TO.P,U3,3,EN_3*%
%TO.N,+3.3V*%
X-6300000Y-3390200D03*
%TO.P,U3,2,GND_2*%
%TO.N,GND*%
X-6300000Y-2440200D03*
%TO.P,U3,1,VIN_1*%
%TO.N,+3.3V*%
X-6300000Y-1490200D03*
%TD*%
D20*
%TO.P,U4,5,V+_5*%
%TO.N,+3.3VA*%
X4200000Y-8550000D03*
%TO.P,U4,4,-IN_4*%
%TO.N,Net-(U4--IN)*%
X4200000Y-6650000D03*
%TO.P,U4,3,+IN_3*%
%TO.N,Net-(U4-+IN)*%
X6400000Y-6650000D03*
%TO.P,U4,2,V-_2*%
%TO.N,GND*%
X6400000Y-7600000D03*
%TO.P,U4,1,OUT_1*%
%TO.N,/OUT1*%
X6400000Y-8550000D03*
%TD*%
D21*
%TO.P,U5,3,A_3*%
%TO.N,GND*%
X1000000Y-4200000D03*
%TO.P,U5,2,K_2*%
%TO.N,Vref*%
X50000Y-2200000D03*
%TO.P,U5,1,R_1*%
%TO.N,Net-(U5-R)*%
X1950000Y-2200000D03*
%TD*%
D22*
%TO.P,U6,16,ADC1_16*%
%TO.N,/OUT1*%
X5227500Y-4695000D03*
%TO.P,U6,15,ADC2_15*%
%TO.N,/ADC2*%
X4727500Y-4695000D03*
%TO.P,U6,14,VDD_14*%
%TO.N,+3.3VA*%
X4227500Y-4695000D03*
D23*
%TO.P,U6,13,ADC3_13*%
%TO.N,unconnected-(U6-ADC3-Pad13)*%
X3327500Y-4295000D03*
%TO.P,U6,12,GND_12*%
%TO.N,GND*%
X3327500Y-3795000D03*
%TO.P,U6,11,INT1_11*%
%TO.N,unconnected-(U6-INT1-Pad11)*%
X3327500Y-3295000D03*
%TO.P,U6,10,RES_10*%
%TO.N,GND*%
X3327500Y-2795000D03*
%TO.P,U6,9,INT2_9*%
%TO.N,unconnected-(U6-INT2-Pad9)*%
X3327500Y-2295000D03*
D22*
%TO.P,U6,8,CS_8*%
%TO.N,/CSB*%
X4227500Y-1895000D03*
%TO.P,U6,7,SDO/SA0_7*%
%TO.N,/POCI*%
X4727500Y-1895000D03*
%TO.P,U6,6,SDA/SDI/SDO_6*%
%TO.N,/PICO*%
X5227500Y-1895000D03*
D23*
%TO.P,U6,5,GND_5*%
%TO.N,GND*%
X6127500Y-2295000D03*
%TO.P,U6,4,SCL/SPC_4*%
%TO.N,/SCLK*%
X6127500Y-2795000D03*
%TO.P,U6,3,NC_3*%
%TO.N,unconnected-(U6-NC-Pad3)*%
X6127500Y-3295000D03*
%TO.P,U6,2,NC_2*%
%TO.N,unconnected-(U6-NC-Pad2)*%
X6127500Y-3795000D03*
%TO.P,U6,1,VDD_IO_1*%
%TO.N,+3.3V*%
X6127500Y-4295000D03*
%TD*%
D24*
%TO.N,Net-(U4-+IN)*%
X400000Y-6500000D03*
X5550000Y-6600000D03*
%TO.N,+3.3VA*%
X-350000Y-6450000D03*
X-2700000Y-6250000D03*
%TO.N,Net-(U1-RG)*%
X-4750000Y-6450000D03*
%TO.N,/OUT1*%
X6400000Y-9300000D03*
X5300000Y-3900000D03*
%TO.N,GND*%
X-2800000Y-3700000D03*
X5500000Y-9200000D03*
X4200000Y-3400000D03*
X4975000Y-5575000D03*
X-5000000Y-8450000D03*
X-5100000Y-2300000D03*
X1000000Y-4200000D03*
%TO.N,/IN+*%
X-2900000Y-8750000D03*
%TO.N,Net-(U5-R)*%
X2400000Y-3100000D03*
%TO.N,Vref*%
X50000Y-2200000D03*
X6300000Y400000D03*
%TO.N,+3.3V*%
X6900000Y-4300000D03*
%TO.N,/OUT_INA*%
X-6500000Y-4500000D03*
%TO.N,Net-(U4--IN)*%
X4500000Y-7400000D03*
%TO.N,+3.3VA*%
X-5741400Y-4050000D03*
%TO.N,/CSB*%
X3560000Y-1730000D03*
%TO.N,/IN-*%
X-650000Y-9100000D03*
%TO.N,/ADC2*%
X4650000Y-3950000D03*
%TO.N,/REF*%
X-3900000Y-7600000D03*
X-3900000Y-6050000D03*
X-2000000Y-5300000D03*
%TD*%
%TO.N,/IN-*%
D25*
X-650000Y-9100000D02*
X-229354Y-8679354D01*
X-229354Y-8679354D02*
X990413Y-8679354D01*
X-650000Y-9100000D02*
X-750000Y-9200000D01*
X-750000Y-9200000D02*
X-3600000Y-9200000D01*
X-3600000Y-9200000D02*
X-5270000Y-7530000D01*
X-5270000Y-7530000D02*
X-5930000Y-7530000D01*
%TO.N,/IN+*%
X-2900000Y-8750000D02*
X-1000000Y-8750000D01*
X-1000000Y-8750000D02*
X-280000Y-8030000D01*
X-280000Y-8030000D02*
X-280000Y-7500000D01*
X-2900000Y-8750000D02*
X-3503128Y-8750000D01*
X-3503128Y-8750000D02*
X-5373128Y-6880000D01*
X-5373128Y-6880000D02*
X-5930000Y-6880000D01*
%TO.N,Net-(U4-+IN)*%
D26*
X-710000Y-5200000D02*
X-710000Y-5390000D01*
X-710000Y-5390000D02*
X400000Y-6500000D01*
X5600000Y-6650000D02*
X5550000Y-6600000D01*
X6400000Y-6650000D02*
X5600000Y-6650000D01*
%TO.N,GND*%
X4975000Y-5575000D02*
X5188910Y-5788910D01*
X5188910Y-5788910D02*
X5701091Y-5788910D01*
X5701091Y-5788910D02*
X5790001Y-5700000D01*
%TO.N,/ADC2*%
X4650000Y-3950000D02*
X4760678Y-4060678D01*
X4760678Y-4060678D02*
X4760678Y-4661821D01*
X4760678Y-4661821D02*
X4727500Y-4694999D01*
%TO.N,GND*%
X-5000000Y-8450000D02*
X-5294117Y-8450000D01*
X-5294117Y-8450000D02*
X-5564117Y-8180000D01*
X-5564117Y-8180000D02*
X-5930000Y-8180000D01*
%TO.N,+3.3VA*%
X-350000Y-6450000D02*
X-780000Y-6880000D01*
X-780000Y-6880000D02*
X-1670000Y-6880000D01*
%TO.N,/REF*%
X-3900000Y-6050000D02*
X-3150000Y-5300000D01*
X-3150000Y-5300000D02*
X-2000000Y-5300000D01*
%TO.N,+3.3VA*%
X-1700000Y-6250000D02*
X-1670000Y-6220000D01*
X-2700000Y-6250000D02*
X-1700000Y-6250000D01*
%TO.N,/OUT_INA*%
X-6580000Y-4900000D02*
X-5766500Y-5713500D01*
X-5766500Y-5713500D02*
X-4836500Y-5713500D01*
X-4836500Y-5713500D02*
X-3020000Y-7530000D01*
X-3020000Y-7530000D02*
X-1670000Y-7530000D01*
%TO.N,/OUT1*%
X7100000Y-5990001D02*
X6809999Y-5700000D01*
X5804999Y-4695000D02*
X5227500Y-4695000D01*
X5227500Y-4695000D02*
X5227500Y-3972500D01*
X6400000Y-8550000D02*
X6577000Y-8550000D01*
X7100000Y-8027000D02*
X7100000Y-5990001D01*
X6577000Y-8550000D02*
X7100000Y-8027000D01*
X5227500Y-3972500D02*
X5300000Y-3900000D01*
X6400000Y-9300000D02*
X6400000Y-8550000D01*
X6809999Y-5700000D02*
X5804999Y-4695000D01*
%TO.N,GND*%
X-2180000Y-4200000D02*
X-2180000Y-4060000D01*
X-6040200Y-2440200D02*
X-6300000Y-2440200D01*
X3900000Y-3400000D02*
X3900000Y-3469500D01*
X3574500Y-2795000D02*
X3900000Y-3120500D01*
X3327500Y-2795000D02*
X3574500Y-2795000D01*
X-5100000Y-2300000D02*
X-6159800Y-2300000D01*
X-4075000Y-900000D02*
X-4500000Y-900000D01*
X5627000Y-8196000D02*
X5627000Y-9073000D01*
X-4500000Y-900000D02*
X-6040200Y-2440200D01*
X3900000Y-3469500D02*
X3574500Y-3795000D01*
X4200000Y-3400000D02*
X4411714Y-3400000D01*
X6223000Y-7600000D02*
X5627000Y-8196000D01*
X3900000Y-3120500D02*
X3900000Y-3400000D01*
X3574500Y-3795000D02*
X3327500Y-3795000D01*
X-3175000Y0D02*
X-4075000Y-900000D01*
X-6159800Y-2300000D02*
X-6300000Y-2440200D01*
X4411714Y-3400000D02*
X5516714Y-2295000D01*
X3900000Y-3400000D02*
X4200000Y-3400000D01*
X5627000Y-9073000D02*
X5500000Y-9200000D01*
X5516714Y-2295000D02*
X6127500Y-2295000D01*
X-2180000Y-4060000D02*
X-1300000Y-3180000D01*
X6400000Y-7600000D02*
X6223000Y-7600000D01*
%TO.N,/POCI*%
X-635000Y-165000D02*
X-635000Y0D01*
X911500Y-1311500D02*
X500000Y-900000D01*
X4727500Y-1895001D02*
X4727500Y-1705786D01*
X500000Y-900000D02*
X100000Y-900000D01*
X4333214Y-1311500D02*
X911500Y-1311500D01*
X100000Y-900000D02*
X-635000Y-165000D01*
X4727500Y-1705786D02*
X4333214Y-1311500D01*
%TO.N,/PROB+*%
D25*
X-5490001Y-9000000D02*
X-5445000Y-9000000D01*
X-5445000Y-9000000D02*
X-4445000Y-10000000D01*
%TO.N,/IN+*%
X-6509999Y-9000000D02*
X-6936200Y-8573799D01*
X-6936200Y-8573799D02*
X-6936200Y-7382457D01*
X-6936200Y-7382457D02*
X-6433743Y-6880000D01*
X-6433743Y-6880000D02*
X-5930000Y-6880000D01*
%TO.N,/SCLK*%
D26*
X6800000Y-2000000D02*
X5657500Y-857500D01*
X2762500Y-857500D02*
X1905000Y0D01*
X6127500Y-2795000D02*
X6705000Y-2795000D01*
X5657500Y-857500D02*
X2762500Y-857500D01*
X6800000Y-2700000D02*
X6800000Y-2000000D01*
X6705000Y-2795000D02*
X6800000Y-2700000D01*
%TO.N,Net-(U5-R)*%
X2400000Y-3100000D02*
X1950000Y-2650000D01*
X1950000Y-2650000D02*
X1950000Y-2200000D01*
%TO.N,Vref*%
X-820000Y-4600000D02*
X-290000Y-4600000D01*
X6710000Y0D02*
X6700000Y0D01*
X6700000Y0D02*
X6300000Y400000D01*
X-290000Y-4600000D02*
X310000Y-5200000D01*
X-1220000Y-4200000D02*
X-820000Y-4600000D01*
X-1590000Y-2510000D02*
X-1300000Y-2220000D01*
X-1060000Y-2200000D02*
X-1080000Y-2220000D01*
X-1787600Y-2510000D02*
X-1590000Y-2510000D01*
X-1080000Y-2220000D02*
X-1300000Y-2220000D01*
X50000Y-2200000D02*
X-1060000Y-2200000D01*
X-2400000Y-2510000D02*
X-1787600Y-2510000D01*
%TO.N,+3.3V*%
X6895000Y-4295000D02*
X6127500Y-4295000D01*
X-7013500Y-1966700D02*
X-7013500Y-2900000D01*
X-4445000Y0D02*
X-4809800Y0D01*
X-4809800Y0D02*
X-6300000Y-1490200D01*
X6900000Y-4300000D02*
X6895000Y-4295000D01*
X-6300000Y-1490200D02*
X-6537000Y-1490200D01*
X-6537000Y-1490200D02*
X-7013500Y-1966700D01*
X-7013500Y-2900000D02*
X-6523300Y-3390200D01*
X-6523300Y-3390200D02*
X-6300000Y-3390200D01*
%TO.N,/OUT_INA*%
X-6500000Y-4500000D02*
X-6500000Y-4820000D01*
X-6500000Y-4820000D02*
X-6580000Y-4900000D01*
%TO.N,Net-(U4-+IN)*%
X-1110000Y-4800000D02*
X-710000Y-5200000D01*
X-5520000Y-4800000D02*
X-1110000Y-4800000D01*
X-5620000Y-4900000D02*
X-5520000Y-4800000D01*
%TO.N,Net-(U4--IN)*%
X4500000Y-6950000D02*
X4200000Y-6650000D01*
X4500000Y-7400000D02*
X4500000Y-6950000D01*
%TO.N,/extRef*%
X5690000Y0D02*
X4445000Y0D01*
%TO.N,+3.3VA*%
X5000000Y-7750000D02*
X5000000Y-6184778D01*
X-2400000Y-1490000D02*
X-2223900Y-1313900D01*
X-1670000Y-6220000D02*
X-1670000Y-6880000D01*
X4227500Y-4695000D02*
X4227500Y-4424100D01*
X413900Y-1313900D02*
X1000000Y-1900000D01*
X-2223900Y-1313900D02*
X413900Y-1313900D01*
X5000000Y-6184778D02*
X4227500Y-5412278D01*
X4227500Y-5412278D02*
X4227500Y-4695000D01*
X1000000Y-1900000D02*
X1000000Y-2900000D01*
X4200000Y-8550000D02*
X5000000Y-7750000D01*
X2795000Y-4695000D02*
X4227500Y-4695000D01*
X-5741400Y-4050000D02*
X-3700000Y-2008600D01*
X-3700000Y-2008600D02*
X-3700000Y-1490200D01*
X-2400200Y-1490200D02*
X-2400000Y-1490000D01*
X1000000Y-2900000D02*
X2795000Y-4695000D01*
X-3700000Y-1490200D02*
X-2400200Y-1490200D01*
%TO.N,/CSB*%
X3725000Y-1895000D02*
X4227500Y-1895000D01*
X3560000Y-1730000D02*
X3725000Y-1895000D01*
%TO.N,/PROB-*%
D25*
X3953799Y-9913799D02*
X4445000Y-9913799D01*
X2010413Y-8679354D02*
X2851059Y-9520000D01*
X2851059Y-9520000D02*
X3560000Y-9520000D01*
X3560000Y-9520000D02*
X3953799Y-9913799D01*
%TO.N,/IN-*%
X990413Y-7810413D02*
X680000Y-7500000D01*
X990413Y-8679354D02*
X990413Y-7810413D01*
%TO.N,/PICO*%
D26*
X1719500Y-1084500D02*
X635000Y0D01*
X5227500Y-1648000D02*
X4664000Y-1084500D01*
X4664000Y-1084500D02*
X1719500Y-1084500D01*
X5227500Y-1895000D02*
X5227500Y-1648000D01*
%TO.N,/REF*%
X-3900000Y-7600000D02*
X-3320000Y-8180000D01*
X-3320000Y-8180000D02*
X-1670000Y-8180000D01*
%TO.N,Net-(U1-RG)*%
X-4750000Y-6450000D02*
X-5224218Y-6450000D01*
X-5224218Y-6450000D02*
X-5454218Y-6220000D01*
X-5454218Y-6220000D02*
X-5930000Y-6220000D01*
%TO.N,Vref*%
X790000Y-5200000D02*
X1490000Y-5900000D01*
%TO.N,Net-(U4--IN)*%
X4200000Y-6650000D02*
X3450000Y-5900000D01*
%TO.N,Vref*%
X3000000Y-7500000D02*
X3000000Y-7410000D01*
%TO.N,Net-(U4--IN)*%
X3450000Y-5900000D02*
X2510000Y-5900000D01*
%TO.N,Vref*%
X3000000Y-7410000D02*
X1490000Y-5900000D01*
X310000Y-5200000D02*
X790000Y-5200000D01*
%TD*%
%TA.AperFunction,Conductor*%
%TO.N,Vref*%
G36*
X249577Y-1632921D02*
G01*
X274821Y-1640334D01*
X327567Y-1671630D01*
X351074Y-1695137D01*
X372223Y-1723388D01*
X384831Y-1746477D01*
X400000Y-1805906D01*
X400000Y-3536110D01*
X399851Y-3542187D01*
X399500Y-3549336D01*
X399500Y-4849678D01*
X399500Y-4849680D01*
X399499Y-4849680D01*
X414028Y-4922717D01*
X414032Y-4922735D01*
X414033Y-4922739D01*
X414139Y-4922926D01*
X414198Y-4922985D01*
X469399Y-5005601D01*
X537737Y-5051262D01*
X548140Y-5058213D01*
X548142Y-5058215D01*
X552258Y-5060965D01*
X552260Y-5060966D01*
X552264Y-5060967D01*
X552280Y-5060970D01*
X552288Y-5060972D01*
X597021Y-5069869D01*
X617681Y-5073979D01*
X620415Y-5074703D01*
X625323Y-5075500D01*
X625324Y-5075500D01*
X790380Y-5075500D01*
X825311Y-5080521D01*
X855262Y-5089316D01*
X893160Y-5107938D01*
X1437130Y-5502756D01*
X1923909Y-5856063D01*
X1949230Y-5880647D01*
X1960375Y-5895086D01*
X1962830Y-5898266D01*
X1986528Y-5951090D01*
X1987359Y-5955504D01*
X1989500Y-5978446D01*
X1989500Y-6121582D01*
X1992112Y-6139513D01*
X2000418Y-6196518D01*
X2000418Y-6196519D01*
X2000419Y-6196521D01*
X2005620Y-6207161D01*
X2005622Y-6207166D01*
X2056919Y-6312096D01*
X2056924Y-6312104D01*
X2147894Y-6403074D01*
X2147896Y-6403075D01*
X2147897Y-6403076D01*
X2147900Y-6403078D01*
X2224844Y-6440693D01*
X2263482Y-6459582D01*
X2338418Y-6470500D01*
X2338423Y-6470500D01*
X2681577Y-6470500D01*
X2681580Y-6470500D01*
X2681582Y-6470500D01*
X2688074Y-6469553D01*
X2723350Y-6469488D01*
X2749686Y-6473223D01*
X2805105Y-6495641D01*
X3368016Y-6904205D01*
X3393339Y-6928791D01*
X3401818Y-6939776D01*
X3427198Y-7004873D01*
X3413356Y-7073357D01*
X3407301Y-7084846D01*
X3385284Y-7114713D01*
X2591412Y-7908586D01*
X2591411Y-7908587D01*
X2563156Y-7929738D01*
X2549435Y-7937230D01*
X2481174Y-7952082D01*
X2475883Y-7951704D01*
X2423366Y-7935777D01*
X2421989Y-7934993D01*
X2405484Y-7923744D01*
X1387839Y-7102710D01*
X902960Y-6711510D01*
X878925Y-6685664D01*
X870019Y-6672821D01*
X847993Y-6606517D01*
X847503Y-6592585D01*
X849028Y-6568379D01*
X850500Y-6559307D01*
X850500Y-6440693D01*
X850500Y-6440691D01*
X819799Y-6326114D01*
X760489Y-6223387D01*
X676613Y-6139511D01*
X573886Y-6080201D01*
X459309Y-6049500D01*
X459305Y-6049499D01*
X451249Y-6048439D01*
X451325Y-6047856D01*
X427819Y-6044477D01*
X402577Y-6037065D01*
X349832Y-6005769D01*
X-140574Y-5515363D01*
X-161726Y-5487107D01*
X-174333Y-5464018D01*
X-189500Y-5404593D01*
X-189500Y-4978423D01*
X-189500Y-4978418D01*
X-200418Y-4903482D01*
X-230798Y-4841339D01*
X-256922Y-4787900D01*
X-256924Y-4787897D01*
X-256926Y-4787895D01*
X-256926Y-4787894D01*
X-347896Y-4696924D01*
X-347904Y-4696919D01*
X-452833Y-4645622D01*
X-452840Y-4645620D01*
X-463479Y-4640419D01*
X-463481Y-4640418D01*
X-463482Y-4640418D01*
X-480213Y-4637980D01*
X-480214Y-4637980D01*
X-538417Y-4629500D01*
X-538418Y-4629500D01*
X-538423Y-4629500D01*
X-767245Y-4629500D01*
X-767246Y-4629499D01*
X-767246Y-4629500D01*
X-802181Y-4624477D01*
X-827423Y-4617065D01*
X-880168Y-4585769D01*
X-917202Y-4548735D01*
X-988804Y-4507397D01*
X-988803Y-4507397D01*
X-996637Y-4505298D01*
X-996637Y-4505297D01*
X-996642Y-4505296D01*
X-996644Y-4505296D01*
X-999645Y-4504492D01*
X-999645Y-4504491D01*
X-1068659Y-4486000D01*
X-1068660Y-4486000D01*
X-1068661Y-4486000D01*
X-1507670Y-4486000D01*
X-1507675Y-4485999D01*
X-1507677Y-4486000D01*
X-1542611Y-4480975D01*
X-1557610Y-4476570D01*
X-1616356Y-4438827D01*
X-1616385Y-4438793D01*
X-1616386Y-4438793D01*
X-1616387Y-4438791D01*
X-1617543Y-4437458D01*
X-1645020Y-4382594D01*
X-1646666Y-4375028D01*
X-1649501Y-4348675D01*
X-1649501Y-4042749D01*
X-1644478Y-4007816D01*
X-1637068Y-3982579D01*
X-1605774Y-3929834D01*
X-1435361Y-3759422D01*
X-1407111Y-3738274D01*
X-1384019Y-3725666D01*
X-1324594Y-3710499D01*
X-1079852Y-3710499D01*
X-1070014Y-3707457D01*
X-1066436Y-3705504D01*
X-1059479Y-3704197D01*
X-1053546Y-3703258D01*
X-1017466Y-3697543D01*
X-1009286Y-3696900D01*
X-1003311Y-3694146D01*
X-995670Y-3690980D01*
X-990339Y-3687106D01*
X-897609Y-3639859D01*
X-810141Y-3552391D01*
X-753983Y-3442175D01*
X-753983Y-3442173D01*
X-753982Y-3442172D01*
X-753982Y-3442171D01*
X-753983Y-3442171D01*
X-753074Y-3440389D01*
X-752455Y-3432528D01*
X-751007Y-3423390D01*
X-743599Y-3376613D01*
X-739500Y-3350735D01*
X-739501Y-3009266D01*
X-739501Y-3009264D01*
X-739501Y-3009260D01*
X-752606Y-2926520D01*
X-752732Y-2925636D01*
X-752647Y-2925041D01*
X-752839Y-2922592D01*
X-753906Y-2918149D01*
X-753980Y-2917844D01*
X-753982Y-2917829D01*
X-753982Y-2917828D01*
X-753983Y-2917826D01*
X-753983Y-2917825D01*
X-810141Y-2807609D01*
X-810143Y-2807607D01*
X-810146Y-2807603D01*
X-897604Y-2720145D01*
X-897606Y-2720143D01*
X-897609Y-2720141D01*
X-1003280Y-2666299D01*
X-1006775Y-2664332D01*
X-1007832Y-2663980D01*
X-1099265Y-2649500D01*
X-1500740Y-2649500D01*
X-1520153Y-2649500D01*
X-1530015Y-2652549D01*
X-1533582Y-2654497D01*
X-1540534Y-2655802D01*
X-1582533Y-2662454D01*
X-1587412Y-2662838D01*
X-1592172Y-2663980D01*
X-1702389Y-2720139D01*
X-1702400Y-2720146D01*
X-1789854Y-2807600D01*
X-1789860Y-2807609D01*
X-1846020Y-2917829D01*
X-1847162Y-2922584D01*
X-1847545Y-2927462D01*
X-1860500Y-3009263D01*
X-1860500Y-3227244D01*
X-1860501Y-3227246D01*
X-1860500Y-3227247D01*
X-1865524Y-3262181D01*
X-1872936Y-3287422D01*
X-1904231Y-3340166D01*
X-2154437Y-3590371D01*
X-2182690Y-3611522D01*
X-2194872Y-3618174D01*
X-2263145Y-3633026D01*
X-2328608Y-3608610D01*
X-2329951Y-3607605D01*
X-2367130Y-3562562D01*
X-2369320Y-3558055D01*
X-2377566Y-3535950D01*
X-2380201Y-3526114D01*
X-2439511Y-3423387D01*
X-2523387Y-3339511D01*
X-2626114Y-3280201D01*
X-2740691Y-3249500D01*
X-2740694Y-3249500D01*
X-2757670Y-3249500D01*
X-2757675Y-3249499D01*
X-2757677Y-3249500D01*
X-2792611Y-3244475D01*
X-2807610Y-3240070D01*
X-2866356Y-3202327D01*
X-2866385Y-3202293D01*
X-2866386Y-3202293D01*
X-2866387Y-3202291D01*
X-2867543Y-3200958D01*
X-2895023Y-3146083D01*
X-2896668Y-3138521D01*
X-2899500Y-3112168D01*
X-2899500Y-3055339D01*
X-2899936Y-3053334D01*
X-2914028Y-2982489D01*
X-2914033Y-2982466D01*
X-2914034Y-2982460D01*
X-2950623Y-2927700D01*
X-2969399Y-2899599D01*
X-2969400Y-2899598D01*
X-3037637Y-2854004D01*
X-3044381Y-2847901D01*
X-3046693Y-2844128D01*
X-3056325Y-2835475D01*
X-3069781Y-2819375D01*
X-3096027Y-2765138D01*
X-3097397Y-2758558D01*
X-3100000Y-2733282D01*
X-3100000Y-2152163D01*
X-3098845Y-2135279D01*
X-3098123Y-2130026D01*
X-3095635Y-2124485D01*
X-3094259Y-2117457D01*
X-3094982Y-2117245D01*
X-3094366Y-2115146D01*
X-3093837Y-2115301D01*
X-3091635Y-2104050D01*
X-3089027Y-2096971D01*
X-3088541Y-2095313D01*
X-3088396Y-2095058D01*
X-3088368Y-2094976D01*
X-3088352Y-2094981D01*
X-3082180Y-2084119D01*
X-3080532Y-2074904D01*
X-3060453Y-2045883D01*
X-3059984Y-2045377D01*
X-3037989Y-2026629D01*
X-2969399Y-1980801D01*
X-2969395Y-1980794D01*
X-2960763Y-1972164D01*
X-2960470Y-1972457D01*
X-2935544Y-1952651D01*
X-2932680Y-1950978D01*
X-2899982Y-1937695D01*
X-2897609Y-1937106D01*
X-2897605Y-1937106D01*
X-2897602Y-1937104D01*
X-2895244Y-1936520D01*
X-2860122Y-1932986D01*
X-2856482Y-1933141D01*
X-2824131Y-1938876D01*
X-2823530Y-1939067D01*
X-2822937Y-1939256D01*
X-2806110Y-1946006D01*
X-2696521Y-1999581D01*
X-2696520Y-1999581D01*
X-2695802Y-1999932D01*
X-2692762Y-2000504D01*
X-2687640Y-2000875D01*
X-2621582Y-2010500D01*
X-2621577Y-2010500D01*
X-2178423Y-2010500D01*
X-2178418Y-2010500D01*
X-2103482Y-1999582D01*
X-2045692Y-1971329D01*
X-2045689Y-1971329D01*
X-1987907Y-1943081D01*
X-1987907Y-1943080D01*
X-1987901Y-1943078D01*
X-1987898Y-1943076D01*
X-1896924Y-1852102D01*
X-1896922Y-1852099D01*
X-1840419Y-1736520D01*
X-1840418Y-1736517D01*
X-1840417Y-1736513D01*
X-1840128Y-1735806D01*
X-1835536Y-1724174D01*
X-1826097Y-1703609D01*
X-1780247Y-1650896D01*
X-1774868Y-1647454D01*
X-1708033Y-1627900D01*
X214645Y-1627900D01*
X249577Y-1632921D01*
G37*
%TD.AperFunction*%
%TD*%
%TA.AperFunction,Conductor*%
%TO.N,GND*%
G36*
X5475643Y-7046467D02*
G01*
X5490691Y-7050500D01*
X5584781Y-7050500D01*
X5626812Y-7057840D01*
X5636561Y-7061353D01*
X5637801Y-7061717D01*
X5637838Y-7061728D01*
X5637990Y-7061820D01*
X5638337Y-7061934D01*
X5638310Y-7062015D01*
X5651454Y-7070003D01*
X5664664Y-7073174D01*
X5692455Y-7094920D01*
X5693525Y-7096036D01*
X5695183Y-7097766D01*
X5708749Y-7114662D01*
X5712857Y-7120811D01*
X5719399Y-7130601D01*
X5793632Y-7180201D01*
X5802260Y-7185966D01*
X5802264Y-7185967D01*
X5874259Y-7200287D01*
X5874518Y-7200369D01*
X5875323Y-7200500D01*
X5875324Y-7200500D01*
X5875326Y-7200500D01*
X6644171Y-7200500D01*
X6679106Y-7205523D01*
X6694104Y-7209927D01*
X6752855Y-7247672D01*
X6752879Y-7247700D01*
X6752882Y-7247702D01*
X6752883Y-7247704D01*
X6754042Y-7249041D01*
X6781518Y-7303902D01*
X6783163Y-7311460D01*
X6786000Y-7337831D01*
X6786000Y-7827746D01*
X6781734Y-7859992D01*
X6781374Y-7861326D01*
X6777355Y-7875015D01*
X6775955Y-7881446D01*
X6775163Y-7884391D01*
X6758475Y-7911689D01*
X6743110Y-7939826D01*
X6732363Y-7950573D01*
X6704112Y-7971722D01*
X6681024Y-7984330D01*
X6621594Y-7999500D01*
X5875319Y-7999500D01*
X5802285Y-8014027D01*
X5802262Y-8014032D01*
X5802258Y-8014033D01*
X5719399Y-8069399D01*
X5664033Y-8152258D01*
X5664032Y-8152266D01*
X5664028Y-8152281D01*
X5649500Y-8225318D01*
X5649500Y-8225321D01*
X5649500Y-8874678D01*
X5649500Y-8874680D01*
X5649499Y-8874680D01*
X5664028Y-8947717D01*
X5664032Y-8947735D01*
X5664033Y-8947739D01*
X5667424Y-8953728D01*
X5670816Y-8957891D01*
X5719399Y-9030601D01*
X5802256Y-9085964D01*
X5802258Y-9085965D01*
X5802260Y-9085966D01*
X5802264Y-9085967D01*
X5802285Y-9085971D01*
X5802293Y-9085973D01*
X5834196Y-9092319D01*
X5834198Y-9092319D01*
X5867481Y-9104061D01*
X5881335Y-9111308D01*
X5931614Y-9159824D01*
X5931615Y-9159827D01*
X5933576Y-9163271D01*
X5949661Y-9218353D01*
X5949864Y-9222360D01*
X5949759Y-9236727D01*
X5949500Y-9240686D01*
X5949500Y-9240690D01*
X5949500Y-9240691D01*
X5949500Y-9359309D01*
X5980201Y-9473886D01*
X6039511Y-9576613D01*
X6123387Y-9660489D01*
X6226114Y-9719799D01*
X6340691Y-9750500D01*
X6459309Y-9750500D01*
X6573886Y-9719799D01*
X6676613Y-9660489D01*
X6760489Y-9576613D01*
X6819799Y-9473886D01*
X6850500Y-9359309D01*
X6850500Y-9240691D01*
X6850500Y-9240690D01*
X6850500Y-9237225D01*
X6851979Y-9218128D01*
X6854720Y-9200545D01*
X6884493Y-9137342D01*
X6887137Y-9134363D01*
X6934110Y-9101435D01*
X6937829Y-9099959D01*
X6959377Y-9093597D01*
X6974944Y-9090500D01*
X6985769Y-9088348D01*
X6997736Y-9085967D01*
X6997737Y-9085966D01*
X6997740Y-9085966D01*
X7080601Y-9030601D01*
X7135966Y-8947740D01*
X7150500Y-8874674D01*
X7150500Y-8489752D01*
X7154763Y-8457516D01*
X7155121Y-8456184D01*
X7159144Y-8442484D01*
X7160550Y-8436017D01*
X7161331Y-8433120D01*
X7178032Y-8405792D01*
X7193379Y-8377683D01*
X7265214Y-8305848D01*
X7293457Y-8284704D01*
X7303391Y-8279280D01*
X7371661Y-8264427D01*
X7437126Y-8288841D01*
X7478999Y-8344773D01*
X7481682Y-8351965D01*
X7489500Y-8395299D01*
X7489500Y-9240856D01*
X7489351Y-9246943D01*
X7489052Y-9253027D01*
X7488604Y-9259094D01*
X7477085Y-9376047D01*
X7475299Y-9388084D01*
X7472933Y-9399979D01*
X7469976Y-9411784D01*
X7438519Y-9515482D01*
X7434421Y-9526937D01*
X7429782Y-9538137D01*
X7424578Y-9549139D01*
X7373502Y-9644695D01*
X7367247Y-9655131D01*
X7360506Y-9665220D01*
X7353256Y-9674996D01*
X7284515Y-9758757D01*
X7276343Y-9767773D01*
X7267774Y-9776342D01*
X7258758Y-9784514D01*
X7174997Y-9853255D01*
X7165221Y-9860505D01*
X7155132Y-9867246D01*
X7144696Y-9873501D01*
X7049140Y-9924577D01*
X7038138Y-9929781D01*
X7026938Y-9934420D01*
X7015483Y-9938518D01*
X6911785Y-9969975D01*
X6899980Y-9972932D01*
X6888085Y-9975298D01*
X6876048Y-9977084D01*
X6759095Y-9988603D01*
X6753029Y-9989050D01*
X6746946Y-9989349D01*
X6740858Y-9989499D01*
X5918417Y-9989499D01*
X5851378Y-9969814D01*
X5805623Y-9917010D01*
X5794951Y-9854001D01*
X5795020Y-9853256D01*
X5795645Y-9846548D01*
X5790928Y-9752209D01*
X5789751Y-9737360D01*
X5788189Y-9722989D01*
X5788188Y-9722984D01*
X5787810Y-9721065D01*
X5786168Y-9714253D01*
X5782876Y-9697383D01*
X5782877Y-9697383D01*
X5779756Y-9681390D01*
X5777846Y-9672458D01*
X5766293Y-9646920D01*
X5763997Y-9638942D01*
X5761919Y-9634665D01*
X5760960Y-9635130D01*
X5760749Y-9634665D01*
X5751778Y-9614832D01*
X5744251Y-9598191D01*
X5736758Y-9581629D01*
X5734945Y-9578484D01*
X5734435Y-9577708D01*
X5733482Y-9576123D01*
X5733479Y-9576117D01*
X5710640Y-9538140D01*
X5710006Y-9537085D01*
X5710005Y-9537084D01*
X5693933Y-9522297D01*
X5666398Y-9490288D01*
X5641880Y-9474406D01*
X5636641Y-9469586D01*
X5631260Y-9466306D01*
X5601287Y-9448035D01*
X5599793Y-9447143D01*
X5582727Y-9436089D01*
X5579727Y-9434896D01*
X5576974Y-9433218D01*
X5575132Y-9432429D01*
X5510121Y-9404589D01*
X5503924Y-9402929D01*
X5503922Y-9402929D01*
X5440498Y-9385934D01*
X5440495Y-9385932D01*
X5410594Y-9373547D01*
X5394403Y-9364199D01*
X5368724Y-9344494D01*
X5355504Y-9331274D01*
X5335800Y-9305596D01*
X5326449Y-9289400D01*
X5314063Y-9259496D01*
X5313955Y-9259094D01*
X5309224Y-9241435D01*
X5308584Y-9236579D01*
X5307648Y-9234834D01*
X5307912Y-9231472D01*
X5305000Y-9209344D01*
X5305000Y-9174000D01*
X5299161Y-9119687D01*
X5287955Y-9068176D01*
X5280719Y-9041802D01*
X5258832Y-9003366D01*
X5231394Y-8955181D01*
X5231390Y-8955176D01*
X5231388Y-8955172D01*
X5200097Y-8919061D01*
X5185636Y-8902371D01*
X5152859Y-8870743D01*
X5064522Y-8824534D01*
X5064520Y-8824533D01*
X5039562Y-8817204D01*
X4980785Y-8779428D01*
X4951762Y-8715872D01*
X4950500Y-8698228D01*
X4950500Y-8312754D01*
X4955522Y-8277821D01*
X4955983Y-8276251D01*
X4962934Y-8252576D01*
X4994227Y-8199835D01*
X5109599Y-8084464D01*
X5251263Y-7942800D01*
X5292601Y-7871199D01*
X5298147Y-7850500D01*
X5314000Y-7791339D01*
X5314000Y-7182582D01*
X5316685Y-7163903D01*
X5316441Y-7163879D01*
X5317043Y-7157967D01*
X5318214Y-7153266D01*
X5319022Y-7147650D01*
X5320825Y-7141509D01*
X5321123Y-7141596D01*
X5325578Y-7123723D01*
X5326765Y-7120811D01*
X5370299Y-7066161D01*
X5370305Y-7066157D01*
X5372262Y-7064782D01*
X5373329Y-7064419D01*
X5374049Y-7063549D01*
X5406357Y-7053222D01*
X5438432Y-7042348D01*
X5439878Y-7042508D01*
X5440602Y-7042277D01*
X5475643Y-7046467D01*
G37*
%TD.AperFunction*%
%TA.AperFunction,Conductor*%
G36*
X-5335783Y-7965521D02*
G01*
X-5310539Y-7972934D01*
X-5257793Y-8004230D01*
X-4855809Y-8406214D01*
X-4851471Y-8414159D01*
X-4844223Y-8419585D01*
X-4834989Y-8444344D01*
X-4822324Y-8467537D01*
X-4822970Y-8476566D01*
X-4819806Y-8485049D01*
X-4825423Y-8510869D01*
X-4827308Y-8537229D01*
X-4833127Y-8546282D01*
X-4834658Y-8553322D01*
X-4855809Y-8581576D01*
X-4861846Y-8587613D01*
X-4923169Y-8621098D01*
X-4992861Y-8616114D01*
X-5037208Y-8587613D01*
X-5127897Y-8496924D01*
X-5127905Y-8496919D01*
X-5232834Y-8445622D01*
X-5232841Y-8445620D01*
X-5243480Y-8440419D01*
X-5243482Y-8440418D01*
X-5243483Y-8440418D01*
X-5260214Y-8437980D01*
X-5260215Y-8437980D01*
X-5318418Y-8429500D01*
X-5318419Y-8429500D01*
X-5661583Y-8429500D01*
X-5661584Y-8429500D01*
X-5719790Y-8437980D01*
X-5719795Y-8437981D01*
X-5736519Y-8440418D01*
X-5736521Y-8440418D01*
X-5736523Y-8440419D01*
X-5747161Y-8445619D01*
X-5747170Y-8445622D01*
X-5852100Y-8496920D01*
X-5852106Y-8496923D01*
X-5899716Y-8544534D01*
X-5899718Y-8544535D01*
X-5899718Y-8544536D01*
X-5927973Y-8565686D01*
X-5941691Y-8573176D01*
X-6009949Y-8588027D01*
X-6009964Y-8588025D01*
X-6009964Y-8588026D01*
X-6009965Y-8588025D01*
X-6011755Y-8587898D01*
X-6069956Y-8568530D01*
X-6076471Y-8564343D01*
X-6097108Y-8547712D01*
X-6147892Y-8496927D01*
X-6147895Y-8496924D01*
X-6147903Y-8496919D01*
X-6252832Y-8445622D01*
X-6252839Y-8445620D01*
X-6263478Y-8440419D01*
X-6263480Y-8440418D01*
X-6263481Y-8440418D01*
X-6280212Y-8437980D01*
X-6280213Y-8437980D01*
X-6338416Y-8429500D01*
X-6338417Y-8429500D01*
X-6338422Y-8429500D01*
X-6467667Y-8429500D01*
X-6489119Y-8427630D01*
X-6498450Y-8425991D01*
X-6501280Y-8424590D01*
X-6502608Y-8424475D01*
X-6506980Y-8423191D01*
X-6506697Y-8422224D01*
X-6522810Y-8418111D01*
X-6523065Y-8418797D01*
X-6525913Y-8417734D01*
X-6526753Y-8417105D01*
X-6528501Y-8416659D01*
X-6531208Y-8415423D01*
X-6530646Y-8414190D01*
X-6542622Y-8405223D01*
X-6552377Y-8402355D01*
X-6556991Y-8397025D01*
X-6561073Y-8395006D01*
X-6564988Y-8388477D01*
X-6577066Y-8379433D01*
X-6578093Y-8380324D01*
X-6579008Y-8379268D01*
X-6579903Y-8377309D01*
X-6581816Y-8375877D01*
X-6583642Y-8373438D01*
X-6582173Y-8372337D01*
X-6586423Y-8363030D01*
X-6598110Y-8349532D01*
X-6608012Y-8315757D01*
X-6608032Y-8315712D01*
X-6608039Y-8315663D01*
X-6608245Y-8314226D01*
X-6609500Y-8296630D01*
X-6609500Y-8102329D01*
X-6604477Y-8067393D01*
X-6603821Y-8065161D01*
X-6600073Y-8052394D01*
X-6562328Y-7993644D01*
X-6560959Y-7992457D01*
X-6506080Y-7964977D01*
X-6498521Y-7963333D01*
X-6472168Y-7960500D01*
X-5370715Y-7960500D01*
X-5335783Y-7965521D01*
G37*
%TD.AperFunction*%
%TA.AperFunction,Conductor*%
G36*
X5731172Y-5084129D02*
G01*
X5739068Y-5087290D01*
X5780662Y-5114726D01*
X6240574Y-5574638D01*
X6261723Y-5602889D01*
X6270858Y-5619619D01*
X6273181Y-5623873D01*
X6274331Y-5625978D01*
X6289500Y-5685407D01*
X6289500Y-5921586D01*
X6292180Y-5939986D01*
X6292235Y-5969450D01*
X6292246Y-5975275D01*
X6290297Y-5989014D01*
X6261392Y-6052624D01*
X6202695Y-6090506D01*
X6189502Y-6094408D01*
X6154333Y-6099500D01*
X5875323Y-6099500D01*
X5826617Y-6109188D01*
X5802263Y-6114032D01*
X5802261Y-6114033D01*
X5770682Y-6135133D01*
X5770680Y-6135133D01*
X5770680Y-6135134D01*
X5738842Y-6150365D01*
X5714960Y-6157842D01*
X5645820Y-6159281D01*
X5609317Y-6149500D01*
X5609313Y-6149500D01*
X5609309Y-6149500D01*
X5490691Y-6149500D01*
X5490689Y-6149500D01*
X5464346Y-6156558D01*
X5443147Y-6160303D01*
X5433711Y-6161135D01*
X5430621Y-6160516D01*
X5429317Y-6160747D01*
X5424762Y-6160639D01*
X5424785Y-6159632D01*
X5408166Y-6159829D01*
X5408097Y-6160559D01*
X5405071Y-6160270D01*
X5404092Y-6159878D01*
X5402272Y-6159900D01*
X5399338Y-6159407D01*
X5399563Y-6158065D01*
X5385687Y-6152509D01*
X5375512Y-6152264D01*
X5369675Y-6148310D01*
X5365202Y-6147415D01*
X5359723Y-6142114D01*
X5345731Y-6136512D01*
X5344967Y-6137642D01*
X5343810Y-6136859D01*
X5342433Y-6135192D01*
X5340207Y-6134301D01*
X5340194Y-6134292D01*
X5337799Y-6132408D01*
X5338938Y-6130959D01*
X5332442Y-6123093D01*
X5317662Y-6113082D01*
X5299351Y-6083018D01*
X5299322Y-6082983D01*
X5299303Y-6082939D01*
X5298731Y-6081602D01*
X5292959Y-6064915D01*
X5292882Y-6064629D01*
X5292601Y-6063577D01*
X5292600Y-6063575D01*
X5251266Y-5991982D01*
X5251264Y-5991979D01*
X5251259Y-5991974D01*
X5251253Y-5991967D01*
X4806059Y-5546774D01*
X4806054Y-5546769D01*
X4784908Y-5518522D01*
X4778253Y-5506334D01*
X4763402Y-5438064D01*
X4787816Y-5372603D01*
X4789725Y-5370053D01*
X4845662Y-5328193D01*
X4856878Y-5324608D01*
X4878228Y-5318888D01*
X4904346Y-5303808D01*
X4911249Y-5301409D01*
X4914564Y-5298524D01*
X4941961Y-5290738D01*
X4948405Y-5288500D01*
X4949733Y-5288305D01*
X4956104Y-5287518D01*
X4957595Y-5287156D01*
X4962213Y-5286481D01*
X4972817Y-5287979D01*
X5015097Y-5290202D01*
X5023568Y-5292690D01*
X5025284Y-5293194D01*
X5052335Y-5304780D01*
X5076768Y-5318886D01*
X5076769Y-5318886D01*
X5076772Y-5318888D01*
X5176090Y-5345500D01*
X5176092Y-5345500D01*
X5278908Y-5345500D01*
X5278910Y-5345500D01*
X5378228Y-5318888D01*
X5467273Y-5267478D01*
X5539978Y-5194773D01*
X5567661Y-5146823D01*
X5569460Y-5144536D01*
X5589474Y-5119084D01*
X5599522Y-5109503D01*
X5661623Y-5077489D01*
X5731172Y-5084129D01*
G37*
%TD.AperFunction*%
%TA.AperFunction,Conductor*%
G36*
X860703Y-3205212D02*
G01*
X867181Y-3211244D01*
X2602199Y-4946262D01*
X2673800Y-4987601D01*
X2686153Y-4990911D01*
X2690675Y-4992123D01*
X2703985Y-4995689D01*
X2753661Y-5009000D01*
X3724716Y-5009000D01*
X3759650Y-5014023D01*
X3776001Y-5018824D01*
X3833056Y-5054651D01*
X3836990Y-5059004D01*
X3858734Y-5098953D01*
X3860503Y-5098221D01*
X3863612Y-5105728D01*
X3889331Y-5150275D01*
X3902043Y-5181418D01*
X3903076Y-5185439D01*
X3903708Y-5188821D01*
X3909448Y-5210243D01*
X3909600Y-5210832D01*
X3909566Y-5211812D01*
X3913500Y-5241688D01*
X3913500Y-5453622D01*
X3921970Y-5485230D01*
X3921971Y-5485232D01*
X3928928Y-5511199D01*
X3928928Y-5511202D01*
X3928929Y-5511202D01*
X3934898Y-5533480D01*
X3976227Y-5605063D01*
X3976237Y-5605078D01*
X3976239Y-5605080D01*
X3976241Y-5605083D01*
X4246369Y-5875210D01*
X4266686Y-5901961D01*
X4267104Y-5902703D01*
X4269590Y-5907255D01*
X4269827Y-5907528D01*
X4272875Y-5912931D01*
X4279519Y-5941558D01*
X4288799Y-5969450D01*
X4287329Y-5975206D01*
X4288672Y-5980992D01*
X4278782Y-6008671D01*
X4271511Y-6037147D01*
X4267162Y-6041198D01*
X4265165Y-6046788D01*
X4242007Y-6064629D01*
X4228971Y-6076772D01*
X4230375Y-6078960D01*
X4229203Y-6079712D01*
X4224263Y-6081158D01*
X4220452Y-6084709D01*
X4218986Y-6085444D01*
X4217873Y-6083224D01*
X4209817Y-6089431D01*
X4190325Y-6091096D01*
X4162149Y-6099348D01*
X4127305Y-6094325D01*
X4102579Y-6087065D01*
X4049832Y-6055769D01*
X3642805Y-5648741D01*
X3642801Y-5648738D01*
X3642786Y-5648727D01*
X3571211Y-5607403D01*
X3571198Y-5607398D01*
X3554369Y-5602889D01*
X3542140Y-5599612D01*
X3542025Y-5599542D01*
X3542016Y-5599579D01*
X3542009Y-5599577D01*
X3541552Y-5599454D01*
X3541492Y-5599437D01*
X3491342Y-5586000D01*
X3491339Y-5586000D01*
X3106270Y-5586000D01*
X3071335Y-5580977D01*
X3055485Y-5576323D01*
X2997784Y-5539774D01*
X2988335Y-5529156D01*
X2969576Y-5501194D01*
X2964755Y-5491333D01*
X2963312Y-5488134D01*
X2963073Y-5487894D01*
X2872102Y-5396923D01*
X2872099Y-5396921D01*
X2872096Y-5396919D01*
X2767167Y-5345622D01*
X2767160Y-5345620D01*
X2756521Y-5340419D01*
X2756519Y-5340418D01*
X2756518Y-5340418D01*
X2739787Y-5337980D01*
X2739786Y-5337980D01*
X2681583Y-5329500D01*
X2681582Y-5329500D01*
X2338418Y-5329500D01*
X2338417Y-5329500D01*
X2280211Y-5337980D01*
X2280206Y-5337981D01*
X2263482Y-5340418D01*
X2263480Y-5340418D01*
X2263478Y-5340419D01*
X2252840Y-5345619D01*
X2252831Y-5345622D01*
X2147901Y-5396920D01*
X2147900Y-5396921D01*
X2147895Y-5396923D01*
X2100284Y-5444535D01*
X2100282Y-5444536D01*
X2100282Y-5444537D01*
X2072027Y-5465687D01*
X2058309Y-5473177D01*
X1990051Y-5488028D01*
X1990036Y-5488026D01*
X1990036Y-5488027D01*
X1990035Y-5488026D01*
X1988245Y-5487899D01*
X1930044Y-5468531D01*
X1923529Y-5464344D01*
X1902892Y-5447713D01*
X1852107Y-5396927D01*
X1852104Y-5396924D01*
X1852096Y-5396919D01*
X1747167Y-5345622D01*
X1747160Y-5345620D01*
X1736521Y-5340419D01*
X1736519Y-5340418D01*
X1736518Y-5340418D01*
X1719787Y-5337980D01*
X1719786Y-5337980D01*
X1657142Y-5328853D01*
X1657431Y-5326865D01*
X1601653Y-5306463D01*
X1583371Y-5293194D01*
X1507327Y-5238000D01*
X1043246Y-4901165D01*
X1005838Y-4878626D01*
X967935Y-4860002D01*
X967923Y-4859997D01*
X927264Y-4844172D01*
X927253Y-4844168D01*
X917530Y-4841313D01*
X897298Y-4835372D01*
X897290Y-4835370D01*
X897279Y-4835367D01*
X897273Y-4835365D01*
X861679Y-4827623D01*
X861664Y-4827620D01*
X833769Y-4823610D01*
X813625Y-4814411D01*
X791987Y-4809704D01*
X774262Y-4796435D01*
X770213Y-4794586D01*
X763733Y-4788553D01*
X691319Y-4716139D01*
X657834Y-4654816D01*
X655000Y-4628458D01*
X655000Y-3558179D01*
X655084Y-3553627D01*
X655272Y-3548501D01*
X655274Y-3548450D01*
X655423Y-3542373D01*
X655500Y-3536110D01*
X655500Y-3298925D01*
X675185Y-3231886D01*
X727989Y-3186131D01*
X797147Y-3176187D01*
X860703Y-3205212D01*
G37*
%TD.AperFunction*%
%TA.AperFunction,Conductor*%
G36*
X-4552874Y-3460441D02*
G01*
X-4511001Y-3516373D01*
X-4508318Y-3523565D01*
X-4500500Y-3566899D01*
X-4500500Y-3724876D01*
X-4500501Y-3724880D01*
X-4485972Y-3797917D01*
X-4485968Y-3797935D01*
X-4485967Y-3797939D01*
X-4485396Y-3798946D01*
X-4485051Y-3799310D01*
X-4430601Y-3880801D01*
X-4379754Y-3914775D01*
X-4368221Y-3922481D01*
X-4347742Y-3936165D01*
X-4347740Y-3936166D01*
X-4347736Y-3936167D01*
X-4347720Y-3936170D01*
X-4347712Y-3936172D01*
X-4331277Y-3939441D01*
X-4282319Y-3949179D01*
X-4279585Y-3949903D01*
X-4274677Y-3950700D01*
X-3125324Y-3950700D01*
X-3121204Y-3950700D01*
X-3113352Y-3948317D01*
X-3052260Y-3936166D01*
X-2969399Y-3880801D01*
X-2914034Y-3797940D01*
X-2908860Y-3771930D01*
X-2899500Y-3724876D01*
X-2899500Y-3633059D01*
X-2892455Y-3609065D01*
X-2889482Y-3584231D01*
X-2882780Y-3576115D01*
X-2879815Y-3566020D01*
X-2860918Y-3549645D01*
X-2844989Y-3530359D01*
X-2834964Y-3527155D01*
X-2827011Y-3520265D01*
X-2802259Y-3516705D01*
X-2778435Y-3509094D01*
X-2762546Y-3510995D01*
X-2757853Y-3510321D01*
X-2743417Y-3513282D01*
X-2740481Y-3514069D01*
X-2710604Y-3526447D01*
X-2694401Y-3535801D01*
X-2668726Y-3555504D01*
X-2655505Y-3568725D01*
X-2635800Y-3594405D01*
X-2620233Y-3621367D01*
X-2611440Y-3640026D01*
X-2608708Y-3647350D01*
X-2608690Y-3647394D01*
X-2599142Y-3669689D01*
X-2599119Y-3669738D01*
X-2596941Y-3674220D01*
X-2596930Y-3674240D01*
X-2564177Y-3725205D01*
X-2564171Y-3725212D01*
X-2527002Y-3770244D01*
X-2527001Y-3770245D01*
X-2526997Y-3770249D01*
X-2483032Y-3812169D01*
X-2481689Y-3813174D01*
X-2417895Y-3848001D01*
X-2352432Y-3872417D01*
X-2308509Y-3884466D01*
X-2308504Y-3884465D01*
X-2308503Y-3884466D01*
X-2268639Y-3883754D01*
X-2208834Y-3882687D01*
X-2140561Y-3867835D01*
X-2072422Y-3842420D01*
X-2072406Y-3842411D01*
X-2071816Y-3842142D01*
X-2071590Y-3842109D01*
X-2068272Y-3840872D01*
X-2068004Y-3841592D01*
X-2002660Y-3832182D01*
X-1939097Y-3861191D01*
X-1901309Y-3919960D01*
X-1897539Y-3972569D01*
X-1902400Y-4006377D01*
X-1904290Y-4032806D01*
X-1905001Y-4042749D01*
X-1905001Y-4348675D01*
X-1904643Y-4355353D01*
X-1920704Y-4423349D01*
X-1970978Y-4471870D01*
X-2028464Y-4486000D01*
X-5102558Y-4486000D01*
X-5131302Y-4482623D01*
X-5134411Y-4481882D01*
X-5142993Y-4479362D01*
X-5146315Y-4479045D01*
X-5154710Y-4477045D01*
X-5177860Y-4463804D01*
X-5202616Y-4453894D01*
X-5213648Y-4444102D01*
X-5247605Y-4410144D01*
X-5247612Y-4410139D01*
X-5261768Y-4402926D01*
X-5270096Y-4396116D01*
X-5276910Y-4393795D01*
X-5295241Y-4375556D01*
X-5301332Y-4370576D01*
X-5301333Y-4370577D01*
X-5301339Y-4370570D01*
X-5302571Y-4369563D01*
X-5304586Y-4367026D01*
X-5305304Y-4366018D01*
X-5305635Y-4365706D01*
X-5307990Y-4362740D01*
X-5308455Y-4361594D01*
X-5308813Y-4361092D01*
X-5308694Y-4361006D01*
X-5320116Y-4332867D01*
X-5333583Y-4303571D01*
X-5333354Y-4300255D01*
X-5334269Y-4298001D01*
X-5332574Y-4288970D01*
X-5329946Y-4250959D01*
X-5325058Y-4234169D01*
X-5322114Y-4225795D01*
X-5321604Y-4223890D01*
X-5321601Y-4223886D01*
X-5290900Y-4109309D01*
X-5290900Y-4109305D01*
X-5289839Y-4101249D01*
X-5289258Y-4101325D01*
X-5285878Y-4077821D01*
X-5285431Y-4076299D01*
X-5278466Y-4052576D01*
X-5247172Y-3999834D01*
X-4724786Y-3477448D01*
X-4696543Y-3456304D01*
X-4686609Y-3450880D01*
X-4618339Y-3436027D01*
X-4552874Y-3460441D01*
G37*
%TD.AperFunction*%
%TA.AperFunction,Conductor*%
G36*
X4999019Y-2489690D02*
G01*
X5002638Y-2489531D01*
X5003918Y-2490276D01*
X5029384Y-2493319D01*
X5031241Y-2494062D01*
X5047177Y-2501801D01*
X5076772Y-2518888D01*
X5176090Y-2545500D01*
X5176092Y-2545500D01*
X5278907Y-2545500D01*
X5278910Y-2545500D01*
X5324834Y-2533194D01*
X5359870Y-2529005D01*
X5373746Y-2529335D01*
X5440297Y-2550608D01*
X5484766Y-2604445D01*
X5485406Y-2605938D01*
X5495119Y-2663652D01*
X5494761Y-2668650D01*
X5490854Y-2691882D01*
X5487152Y-2705700D01*
X5477000Y-2743588D01*
X5477000Y-2743590D01*
X5477000Y-2846408D01*
X5476999Y-2846408D01*
X5496120Y-2917769D01*
X5496122Y-2917774D01*
X5498357Y-2926114D01*
X5503612Y-2945727D01*
X5503614Y-2945732D01*
X5520021Y-2974151D01*
X5522994Y-2981164D01*
X5523536Y-2985847D01*
X5529333Y-3000327D01*
X5533769Y-3018614D01*
X5532242Y-3082779D01*
X5529308Y-3092772D01*
X5517720Y-3119833D01*
X5503614Y-3144267D01*
X5503612Y-3144271D01*
X5503612Y-3144272D01*
X5477000Y-3243590D01*
X5477000Y-3307670D01*
X5476999Y-3307676D01*
X5477000Y-3307679D01*
X5471975Y-3342614D01*
X5467570Y-3357612D01*
X5429827Y-3416355D01*
X5429792Y-3416385D01*
X5429791Y-3416387D01*
X5429789Y-3416387D01*
X5428458Y-3417542D01*
X5373597Y-3445018D01*
X5366039Y-3446663D01*
X5339668Y-3449500D01*
X5240691Y-3449500D01*
X5149728Y-3473873D01*
X5149723Y-3473874D01*
X5126114Y-3480201D01*
X5126112Y-3480201D01*
X5126112Y-3480202D01*
X5104951Y-3492419D01*
X5104935Y-3492426D01*
X5026918Y-3537471D01*
X5024340Y-3538919D01*
X5003129Y-3550500D01*
X4997986Y-3553308D01*
X4994174Y-3555389D01*
X4925902Y-3570237D01*
X4925887Y-3570236D01*
X4925883Y-3570236D01*
X4917042Y-3569602D01*
X4863912Y-3553308D01*
X4823892Y-3530202D01*
X4823889Y-3530201D01*
X4785065Y-3519799D01*
X4785064Y-3519798D01*
X4721669Y-3502812D01*
X4709309Y-3499500D01*
X4709308Y-3499500D01*
X4590691Y-3499500D01*
X4499728Y-3523873D01*
X4499723Y-3523874D01*
X4476114Y-3530201D01*
X4476112Y-3530201D01*
X4476112Y-3530202D01*
X4454947Y-3542421D01*
X4454939Y-3542425D01*
X4373386Y-3589511D01*
X4373378Y-3589517D01*
X4289517Y-3673378D01*
X4289513Y-3673383D01*
X4289512Y-3673385D01*
X4288450Y-3675225D01*
X4259784Y-3724876D01*
X4230201Y-3776114D01*
X4199500Y-3890691D01*
X4199500Y-3890693D01*
X4199500Y-3925248D01*
X4195896Y-3954927D01*
X4195244Y-3957568D01*
X4193639Y-3963037D01*
X4193574Y-3964343D01*
X4191972Y-3970845D01*
X4176653Y-3997153D01*
X4163277Y-4024634D01*
X4160621Y-4027552D01*
X4157277Y-4030428D01*
X4156814Y-4031225D01*
X4155676Y-4031806D01*
X4137766Y-4047216D01*
X4135871Y-4048481D01*
X4099121Y-4065123D01*
X4076771Y-4071112D01*
X4067306Y-4076576D01*
X4058417Y-4079519D01*
X4053796Y-4083313D01*
X4024876Y-4090627D01*
X4019678Y-4092349D01*
X4018254Y-4092515D01*
X4014560Y-4092862D01*
X4013893Y-4093023D01*
X4009826Y-4093498D01*
X3978407Y-4088121D01*
X3952510Y-4085001D01*
X3952063Y-4086294D01*
X3948804Y-4085166D01*
X3947565Y-4084406D01*
X3946568Y-4084286D01*
X3943727Y-4083067D01*
X3944072Y-4082262D01*
X3944033Y-4082238D01*
X3940958Y-4081712D01*
X3936431Y-4077573D01*
X3903255Y-4057213D01*
X3869912Y-4025036D01*
X3870020Y-4024923D01*
X3868242Y-4023490D01*
X3827282Y-3982530D01*
X3827275Y-3982524D01*
X3827269Y-3982519D01*
X3827264Y-3982515D01*
X3759406Y-3943338D01*
X3759401Y-3943335D01*
X3738230Y-3931113D01*
X3738229Y-3931112D01*
X3738228Y-3931112D01*
X3706016Y-3922481D01*
X3694473Y-3919388D01*
X3662028Y-3905494D01*
X3652373Y-3899609D01*
X3605375Y-3847909D01*
X3593788Y-3779007D01*
X3621290Y-3714782D01*
X3621766Y-3714205D01*
X3665775Y-3680467D01*
X3667834Y-3679527D01*
X3687251Y-3672547D01*
X3738224Y-3658889D01*
X3738223Y-3658889D01*
X3738228Y-3658888D01*
X3827273Y-3607478D01*
X3899978Y-3534773D01*
X3951388Y-3445728D01*
X3978000Y-3346410D01*
X3978000Y-3243590D01*
X3951388Y-3144272D01*
X3908631Y-3070215D01*
X3908260Y-3069573D01*
X3899982Y-3055233D01*
X3899978Y-3055227D01*
X3899968Y-3055216D01*
X3827282Y-2982530D01*
X3827275Y-2982524D01*
X3827269Y-2982519D01*
X3827264Y-2982515D01*
X3759406Y-2943338D01*
X3759401Y-2943335D01*
X3738230Y-2931113D01*
X3738229Y-2931112D01*
X3738228Y-2931112D01*
X3694473Y-2919388D01*
X3662028Y-2905494D01*
X3652373Y-2899609D01*
X3605375Y-2847909D01*
X3593788Y-2779007D01*
X3621290Y-2714782D01*
X3621766Y-2714205D01*
X3665775Y-2680467D01*
X3667834Y-2679527D01*
X3687251Y-2672547D01*
X3738224Y-2658889D01*
X3738223Y-2658889D01*
X3738228Y-2658888D01*
X3827273Y-2607478D01*
X3885784Y-2548966D01*
X3900308Y-2536530D01*
X3907774Y-2531075D01*
X3907775Y-2531076D01*
X3923503Y-2519585D01*
X3989240Y-2495936D01*
X3995325Y-2495572D01*
X4047858Y-2503853D01*
X4048015Y-2503915D01*
X4064882Y-2512023D01*
X4076772Y-2518888D01*
X4176090Y-2545500D01*
X4176092Y-2545500D01*
X4278908Y-2545500D01*
X4278910Y-2545500D01*
X4378228Y-2518888D01*
X4400069Y-2506277D01*
X4432820Y-2493166D01*
X4451115Y-2488728D01*
X4515280Y-2490256D01*
X4525278Y-2493192D01*
X4552337Y-2504781D01*
X4576766Y-2518885D01*
X4576767Y-2518885D01*
X4576772Y-2518888D01*
X4676090Y-2545500D01*
X4676092Y-2545500D01*
X4778908Y-2545500D01*
X4778910Y-2545500D01*
X4878228Y-2518888D01*
X4900064Y-2506279D01*
X4921915Y-2496348D01*
X4932836Y-2492611D01*
X4935612Y-2492488D01*
X4938674Y-2491746D01*
X4938751Y-2492064D01*
X4955341Y-2487193D01*
X4960479Y-2486454D01*
X4960489Y-2486454D01*
X4960498Y-2486451D01*
X4965680Y-2485707D01*
X4999019Y-2489690D01*
G37*
%TD.AperFunction*%
%TA.AperFunction,Conductor*%
G36*
X2699573Y-3501730D02*
G01*
X2699575Y-3501730D01*
X2699577Y-3501731D01*
X2699578Y-3501731D01*
X2705341Y-3503726D01*
X2750886Y-3531670D01*
X2779426Y-3559205D01*
X2781011Y-3560762D01*
X2827727Y-3607478D01*
X2828419Y-3607977D01*
X2830943Y-3609335D01*
X2868756Y-3631166D01*
X2916772Y-3658888D01*
X2960525Y-3670611D01*
X2974579Y-3678772D01*
X2988404Y-3681853D01*
X2992926Y-3684479D01*
X3002628Y-3690392D01*
X3011616Y-3700280D01*
X3016551Y-3703146D01*
X3023771Y-3710439D01*
X3028035Y-3718343D01*
X3049624Y-3742093D01*
X3053596Y-3765719D01*
X3056947Y-3771930D01*
X3056225Y-3781354D01*
X3061209Y-3810996D01*
X3052373Y-3831646D01*
X3051612Y-3841595D01*
X3043567Y-3852229D01*
X3033759Y-3875155D01*
X3033369Y-3875628D01*
X3015475Y-3889365D01*
X3009460Y-3897318D01*
X3001134Y-3900375D01*
X2989190Y-3909546D01*
X2987144Y-3910480D01*
X2967746Y-3917452D01*
X2916789Y-3931106D01*
X2916768Y-3931113D01*
X2916756Y-3931119D01*
X2827739Y-3982512D01*
X2827729Y-3982519D01*
X2827717Y-3982529D01*
X2777441Y-4032806D01*
X2777438Y-4032807D01*
X2777438Y-4032809D01*
X2749183Y-4053959D01*
X2735465Y-4061449D01*
X2667207Y-4076300D01*
X2667192Y-4076298D01*
X2667192Y-4076299D01*
X2667191Y-4076298D01*
X2665401Y-4076171D01*
X2607200Y-4056803D01*
X2600685Y-4052616D01*
X2580049Y-4035986D01*
X2318851Y-3774788D01*
X2297702Y-3746538D01*
X2297511Y-3746188D01*
X2292280Y-3736608D01*
X2277427Y-3668338D01*
X2301841Y-3602873D01*
X2357771Y-3561001D01*
X2361650Y-3559554D01*
X2364986Y-3558311D01*
X2408300Y-3550500D01*
X2459307Y-3550500D01*
X2459309Y-3550500D01*
X2573886Y-3519799D01*
X2581831Y-3515211D01*
X2614597Y-3502093D01*
X2616094Y-3501730D01*
X2629786Y-3498408D01*
X2699573Y-3501730D01*
G37*
%TD.AperFunction*%
%TA.AperFunction,Conductor*%
G36*
X-1109774Y-2906520D02*
G01*
X-1109126Y-2906622D01*
X-1107202Y-2906927D01*
X-1070257Y-2918926D01*
X-1067797Y-2920179D01*
X-1067147Y-2920511D01*
X-1065246Y-2921892D01*
X-1064026Y-2922158D01*
X-1035772Y-2943309D01*
X-1033311Y-2945770D01*
X-1010506Y-2977159D01*
X-1008922Y-2980268D01*
X-1000755Y-3005392D01*
X-999826Y-3007093D01*
X-999894Y-3008040D01*
X-996940Y-3017127D01*
X-996533Y-3019692D01*
X-995001Y-3039125D01*
X-995001Y-3320871D01*
X-996530Y-3340281D01*
X-996937Y-3342849D01*
X-1008929Y-3379746D01*
X-1010512Y-3382852D01*
X-1026036Y-3404215D01*
X-1026873Y-3405981D01*
X-1027687Y-3406487D01*
X-1033310Y-3414226D01*
X-1035773Y-3416689D01*
X-1067157Y-3439492D01*
X-1070562Y-3441227D01*
X-1071655Y-3441590D01*
X-1072093Y-3441994D01*
X-1105655Y-3452917D01*
X-1105901Y-3452959D01*
X-1106654Y-3453090D01*
X-1106681Y-3453095D01*
X-1107130Y-3453173D01*
X-1128334Y-3454999D01*
X-1324594Y-3454999D01*
X-1364086Y-3459959D01*
X-1387783Y-3462935D01*
X-1447207Y-3478102D01*
X-1447218Y-3478106D01*
X-1455085Y-3481201D01*
X-1461847Y-3481805D01*
X-1467621Y-3485376D01*
X-1496208Y-3484877D01*
X-1524677Y-3487423D01*
X-1530692Y-3484276D01*
X-1537480Y-3484158D01*
X-1561254Y-3468286D01*
X-1586585Y-3455034D01*
X-1589945Y-3449132D01*
X-1595590Y-3445364D01*
X-1607009Y-3419162D01*
X-1621155Y-3394315D01*
X-1621453Y-3386016D01*
X-1623503Y-3381312D01*
X-1622308Y-3362190D01*
X-1622888Y-3346024D01*
X-1621703Y-3338690D01*
X-1620375Y-3334169D01*
X-1612626Y-3298551D01*
X-1607602Y-3263617D01*
X-1606040Y-3241777D01*
X-1605162Y-3236348D01*
X-1605000Y-3236009D01*
X-1605000Y-3231680D01*
X-1604684Y-3222830D01*
X-1604495Y-3220184D01*
X-1605000Y-3215046D01*
X-1605000Y-3039127D01*
X-1603475Y-3019739D01*
X-1603068Y-3017166D01*
X-1591079Y-2980264D01*
X-1589494Y-2977152D01*
X-1573985Y-2955805D01*
X-1573143Y-2954031D01*
X-1572325Y-2953521D01*
X-1566693Y-2945769D01*
X-1564231Y-2943307D01*
X-1532852Y-2920509D01*
X-1529437Y-2918768D01*
X-1528272Y-2918381D01*
X-1527801Y-2917950D01*
X-1494229Y-2907060D01*
X-1492757Y-2906806D01*
X-1471672Y-2905000D01*
X-1129130Y-2905000D01*
X-1109774Y-2906520D01*
G37*
%TD.AperFunction*%
%TA.AperFunction,Conductor*%
G36*
X-5014400Y-741603D02*
G01*
X-4969677Y-750500D01*
X-4484400Y-750500D01*
X-4470298Y-754046D01*
X-4458901Y-753150D01*
X-4449473Y-755521D01*
X-4438620Y-758707D01*
X-4430171Y-764136D01*
X-4425746Y-765249D01*
X-4415861Y-770556D01*
X-4407780Y-778523D01*
X-4379839Y-796477D01*
X-4371867Y-813931D01*
X-4366107Y-819610D01*
X-4363035Y-833268D01*
X-4350810Y-860031D01*
X-4353227Y-876859D01*
X-4350771Y-887776D01*
X-4357407Y-905957D01*
X-4360740Y-929170D01*
X-4361708Y-931291D01*
X-4370365Y-941465D01*
X-4374724Y-953412D01*
X-4391135Y-965879D01*
X-4405622Y-982908D01*
X-4430601Y-999598D01*
X-4430603Y-999601D01*
X-4485967Y-1082458D01*
X-4485968Y-1082466D01*
X-4485972Y-1082481D01*
X-4500500Y-1155518D01*
X-4500500Y-1155521D01*
X-4500500Y-1824878D01*
X-4500500Y-1824880D01*
X-4500501Y-1824880D01*
X-4485972Y-1897917D01*
X-4485968Y-1897933D01*
X-4485967Y-1897940D01*
X-4453846Y-1946012D01*
X-4430601Y-1980801D01*
X-4382619Y-2012861D01*
X-4356373Y-2036437D01*
X-4347468Y-2047091D01*
X-4319582Y-2111152D01*
X-4330757Y-2180122D01*
X-4330759Y-2180126D01*
X-4335511Y-2190058D01*
X-4359686Y-2224221D01*
X-5275212Y-3139748D01*
X-5303462Y-3160897D01*
X-5313389Y-3166318D01*
X-5330820Y-3170110D01*
X-5346476Y-3178657D01*
X-5364251Y-3177383D01*
X-5381662Y-3181172D01*
X-5398374Y-3174939D01*
X-5416168Y-3173665D01*
X-5430432Y-3162984D01*
X-5447127Y-3156758D01*
X-5457819Y-3142477D01*
X-5472096Y-3131786D01*
X-5488990Y-3100839D01*
X-5489000Y-3100826D01*
X-5491687Y-3093620D01*
X-5496031Y-3069537D01*
X-5496183Y-3069573D01*
X-5499002Y-3057631D01*
X-5499936Y-3053334D01*
X-5514028Y-2982489D01*
X-5514033Y-2982466D01*
X-5514033Y-2982464D01*
X-5514034Y-2982460D01*
X-5514900Y-2981164D01*
X-5516393Y-2978929D01*
X-5516395Y-2978927D01*
X-5529272Y-2959654D01*
X-5569399Y-2899599D01*
X-5579574Y-2892800D01*
X-5649004Y-2846409D01*
X-5649006Y-2846408D01*
X-5652260Y-2844233D01*
X-5652263Y-2844232D01*
X-5652265Y-2844232D01*
X-5652275Y-2844230D01*
X-5652291Y-2844226D01*
X-5725320Y-2829700D01*
X-5725323Y-2829700D01*
X-5725326Y-2829700D01*
X-6557670Y-2829700D01*
X-6557675Y-2829699D01*
X-6557677Y-2829700D01*
X-6592611Y-2824675D01*
X-6607610Y-2820270D01*
X-6666356Y-2782527D01*
X-6666385Y-2782493D01*
X-6666386Y-2782493D01*
X-6666387Y-2782491D01*
X-6667543Y-2781158D01*
X-6695023Y-2726283D01*
X-6696668Y-2718721D01*
X-6699500Y-2692368D01*
X-6699500Y-2192529D01*
X-6699410Y-2191906D01*
X-6694477Y-2157593D01*
X-6692882Y-2152163D01*
X-6690073Y-2142594D01*
X-6652328Y-2083844D01*
X-6652300Y-2083819D01*
X-6652301Y-2083819D01*
X-6650959Y-2082656D01*
X-6596080Y-2055177D01*
X-6588521Y-2053533D01*
X-6562168Y-2050700D01*
X-5721204Y-2050700D01*
X-5713352Y-2048317D01*
X-5652260Y-2036166D01*
X-5569399Y-1980801D01*
X-5514034Y-1897940D01*
X-5499500Y-1824874D01*
X-5499500Y-1202953D01*
X-5494478Y-1168020D01*
X-5490807Y-1155518D01*
X-5487066Y-1142775D01*
X-5455773Y-1090034D01*
X-5304500Y-938762D01*
X-5151391Y-785651D01*
X-5123141Y-764505D01*
X-5106692Y-755523D01*
X-5104728Y-754450D01*
X-5090749Y-750815D01*
X-5081297Y-744622D01*
X-5046415Y-739287D01*
X-5039680Y-739227D01*
X-5014400Y-741603D01*
G37*
%TD.AperFunction*%
%TA.AperFunction,Conductor*%
G36*
X5764011Y-1442686D02*
G01*
X5764142Y-1442669D01*
X5764368Y-1442704D01*
X5764559Y-1442735D01*
X5816491Y-1463818D01*
X5818814Y-1465455D01*
X5827104Y-1472432D01*
X5827675Y-1472703D01*
X5827947Y-1473141D01*
X5835084Y-1479147D01*
X6437073Y-2081136D01*
X6458223Y-2109388D01*
X6470831Y-2132477D01*
X6486000Y-2191906D01*
X6486000Y-2262670D01*
X6485999Y-2262676D01*
X6486000Y-2262679D01*
X6480975Y-2297614D01*
X6476570Y-2312612D01*
X6438827Y-2371355D01*
X6438792Y-2371385D01*
X6438791Y-2371387D01*
X6438789Y-2371387D01*
X6437458Y-2372542D01*
X6382597Y-2400018D01*
X6375039Y-2401663D01*
X6348668Y-2404500D01*
X5816088Y-2404500D01*
X5785474Y-2412702D01*
X5770167Y-2416804D01*
X5735127Y-2420993D01*
X5721253Y-2420663D01*
X5654701Y-2399390D01*
X5610215Y-2345513D01*
X5610197Y-2345470D01*
X5609557Y-2343974D01*
X5599878Y-2286355D01*
X5600236Y-2281356D01*
X5604144Y-2258119D01*
X5613227Y-2224221D01*
X5618000Y-2206410D01*
X5618000Y-1625182D01*
X5620059Y-1618169D01*
X5620815Y-1563438D01*
X5626092Y-1546340D01*
X5626359Y-1528448D01*
X5636183Y-1513649D01*
X5641423Y-1496677D01*
X5655107Y-1485146D01*
X5665005Y-1470239D01*
X5681270Y-1463101D01*
X5694854Y-1451656D01*
X5712599Y-1449354D01*
X5728986Y-1442164D01*
X5764011Y-1442686D01*
G37*
%TD.AperFunction*%
%TD*%
%TA.AperFunction,Conductor*%
%TO.N,/PROB+*%
G36*
X-5508278Y-8706667D02*
G01*
X-5503040Y-8705595D01*
X-5468646Y-8713516D01*
X-5459697Y-8716978D01*
X-5415316Y-8742601D01*
X-5344238Y-8761647D01*
X-5338026Y-8764050D01*
X-5295086Y-8792016D01*
X-5276613Y-8810489D01*
X-5173886Y-8869799D01*
X-5059309Y-8900500D01*
X-5059306Y-8900500D01*
X-4940694Y-8900500D01*
X-4940691Y-8900500D01*
X-4826114Y-8869799D01*
X-4723387Y-8810489D01*
X-4675141Y-8762242D01*
X-4613820Y-8728758D01*
X-4544129Y-8733742D01*
X-4499780Y-8762243D01*
X-3800598Y-9461425D01*
X-3782576Y-9471830D01*
X-3726108Y-9504433D01*
X-3726106Y-9504434D01*
X-3726105Y-9504434D01*
X-3726102Y-9504436D01*
X-3643011Y-9526700D01*
X-3643008Y-9526700D01*
X-3641907Y-9526995D01*
X-3618131Y-9541487D01*
X-3592797Y-9553057D01*
X-3588706Y-9559423D01*
X-3582247Y-9563360D01*
X-3570081Y-9588405D01*
X-3555023Y-9611835D01*
X-3553478Y-9622581D01*
X-3551717Y-9626206D01*
X-3550000Y-9646770D01*
X-3550000Y-9865499D01*
X-3569685Y-9932538D01*
X-3622489Y-9978293D01*
X-3674000Y-9989499D01*
X-5626600Y-9989499D01*
X-5693639Y-9969814D01*
X-5739394Y-9917010D01*
X-5750598Y-9866058D01*
X-5755219Y-8830241D01*
X-5735833Y-8763115D01*
X-5683234Y-8717126D01*
X-5631778Y-8705690D01*
X-5513937Y-8705165D01*
X-5508278Y-8706667D01*
G37*
%TD.AperFunction*%
%TD*%
%TA.AperFunction,Conductor*%
%TO.N,/PROB-*%
G36*
X3327378Y-8379256D02*
G01*
X3394108Y-8399950D01*
X3439060Y-8453440D01*
X3449500Y-8503241D01*
X3449500Y-8874678D01*
X3464032Y-8947735D01*
X3464033Y-8947739D01*
X3464034Y-8947740D01*
X3519399Y-9030601D01*
X3602260Y-9085966D01*
X3602264Y-9085967D01*
X3675321Y-9100499D01*
X3675324Y-9100500D01*
X3675326Y-9100500D01*
X4724676Y-9100500D01*
X4797740Y-9085966D01*
X4820294Y-9070897D01*
X4838338Y-9065247D01*
X4854248Y-9055023D01*
X4885212Y-9050570D01*
X4886972Y-9050020D01*
X4889183Y-9050000D01*
X4925500Y-9050000D01*
X4992539Y-9069685D01*
X5038294Y-9122489D01*
X5049500Y-9174000D01*
X5049500Y-9259309D01*
X5080201Y-9373886D01*
X5139511Y-9476613D01*
X5223387Y-9560489D01*
X5326114Y-9619799D01*
X5440691Y-9650500D01*
X5440693Y-9650500D01*
X5443996Y-9651385D01*
X5465224Y-9664324D01*
X5488324Y-9673509D01*
X5494538Y-9682192D01*
X5503656Y-9687750D01*
X5514517Y-9710110D01*
X5528986Y-9730327D01*
X5532107Y-9746320D01*
X5534185Y-9750597D01*
X5535747Y-9764968D01*
X5540464Y-9859307D01*
X5524152Y-9927245D01*
X5473699Y-9975580D01*
X5416619Y-9989499D01*
X3314759Y-9989499D01*
X3247720Y-9969814D01*
X3238630Y-9963379D01*
X2048860Y-9038002D01*
X2008028Y-8981305D01*
X2001005Y-8938112D01*
X2008400Y-8483195D01*
X2029172Y-8416485D01*
X2082713Y-8371594D01*
X2134255Y-8361225D01*
X3327378Y-8379256D01*
G37*
%TD.AperFunction*%
%TD*%
%TA.AperFunction,Conductor*%
%TO.N,/PROBref*%
G36*
X435283Y-9011076D02*
G01*
X442885Y-9013308D01*
X451131Y-9015729D01*
X465833Y-9025041D01*
X481862Y-9029520D01*
X508835Y-9052278D01*
X516316Y-9060685D01*
X518282Y-9062895D01*
X537043Y-9090859D01*
X537331Y-9091449D01*
X537333Y-9091452D01*
X537335Y-9091455D01*
X628310Y-9182430D01*
X628313Y-9182432D01*
X734608Y-9234396D01*
X743895Y-9238936D01*
X818831Y-9249854D01*
X818836Y-9249854D01*
X1161990Y-9249854D01*
X1161995Y-9249854D01*
X1236931Y-9238936D01*
X1294723Y-9210683D01*
X1352512Y-9182432D01*
X1352515Y-9182430D01*
X1407294Y-9127650D01*
X1415488Y-9121765D01*
X1419383Y-9120398D01*
X1428425Y-9113631D01*
X1428872Y-9113387D01*
X1428939Y-9113511D01*
X1431114Y-9111919D01*
X1443730Y-9105277D01*
X1460685Y-9101724D01*
X1475117Y-9093843D01*
X1510321Y-9091322D01*
X1512054Y-9091445D01*
X1514674Y-9091633D01*
X1580140Y-9116045D01*
X1593511Y-9127630D01*
X1625186Y-9159305D01*
X1648311Y-9182430D01*
X1680058Y-9197950D01*
X1688428Y-9204556D01*
X1695203Y-9206729D01*
X1712845Y-9223826D01*
X1721295Y-9230495D01*
X1723739Y-9233461D01*
X1724417Y-9234396D01*
X1724791Y-9234738D01*
X1727181Y-9237638D01*
X1727773Y-9239025D01*
X1728117Y-9239499D01*
X1728009Y-9239577D01*
X1738754Y-9264737D01*
X1749099Y-9286319D01*
X1751326Y-9285695D01*
X1753145Y-9292183D01*
X1753146Y-9292187D01*
X1754637Y-9297505D01*
X1759243Y-9330743D01*
X1760253Y-9847428D01*
X1760252Y-9847431D01*
X1760253Y-9847433D01*
X1755297Y-9882377D01*
X1750922Y-9897383D01*
X1713260Y-9956233D01*
X1713246Y-9956246D01*
X1711927Y-9957393D01*
X1657053Y-9984960D01*
X1654151Y-9985594D01*
X1649383Y-9986636D01*
X1622896Y-9989499D01*
X-297537Y-9989499D01*
X-297542Y-9989498D01*
X-297544Y-9989499D01*
X-332478Y-9984474D01*
X-347477Y-9980069D01*
X-406223Y-9942326D01*
X-406252Y-9942292D01*
X-406253Y-9942292D01*
X-406254Y-9942290D01*
X-407397Y-9940972D01*
X-434883Y-9886068D01*
X-435685Y-9882377D01*
X-436534Y-9878469D01*
X-439360Y-9852079D01*
X-439202Y-9587818D01*
X-434161Y-9552899D01*
X-428842Y-9534823D01*
X-395429Y-9480064D01*
X-385867Y-9470953D01*
X-375810Y-9462348D01*
X-373389Y-9460490D01*
X-373390Y-9460490D01*
X-373387Y-9460489D01*
X-289511Y-9376613D01*
X-230201Y-9273886D01*
X-209947Y-9198295D01*
X-209402Y-9196333D01*
X-196546Y-9151497D01*
X-196171Y-9151547D01*
X-190855Y-9133443D01*
X-189240Y-9126017D01*
X-188127Y-9122138D01*
X-171500Y-9095899D01*
X-156613Y-9068637D01*
X-142954Y-9054978D01*
X-114702Y-9033828D01*
X-91610Y-9021219D01*
X-32187Y-9006054D01*
X400351Y-9006054D01*
X435283Y-9011076D01*
G37*
%TD.AperFunction*%
%TD*%
M02*
