%TF.GenerationSoftware,KiCad,Pcbnew,8.0.1-8.0.1-1~ubuntu22.04.1*%
%TF.CreationDate,2024-03-30T15:47:12+00:00*%
%TF.ProjectId,JACK_CONN,4a41434b-5f43-44f4-9e4e-2e6b69636164,v2.0*%
%TF.SameCoordinates,Original*%
%TF.FileFunction,Profile,NP*%
%FSLAX46Y46*%
G04 Gerber Fmt 4.6, Leading zero omitted, Abs format (unit mm)*
G04 Created by KiCad (PCBNEW 8.0.1-8.0.1-1~ubuntu22.04.1) date 2024-03-30 15:47:12*
%MOMM*%
%LPD*%
G01*
G04 APERTURE LIST*
%TA.AperFunction,Profile*%
%ADD10C,0.038100*%
%TD*%
%TA.AperFunction,Profile*%
%ADD11C,0.100000*%
%TD*%
G04 APERTURE END LIST*
D10*
X59000005Y-56499993D02*
X25500001Y-56499999D01*
X25500001Y-23500001D02*
X59000002Y-23499998D01*
X24500003Y-24499999D02*
X24500002Y-55500000D01*
X28000001Y-36000000D02*
G75*
G02*
X26000001Y-36000000I-1000000J0D01*
G01*
X26000001Y-36000000D02*
G75*
G02*
X28000001Y-36000000I1000000J0D01*
G01*
X28000001Y-44000000D02*
G75*
G02*
X26000001Y-44000000I-1000000J0D01*
G01*
X26000001Y-44000000D02*
G75*
G02*
X28000001Y-44000000I1000000J0D01*
G01*
X24500003Y-24499999D02*
G75*
G02*
X25500001Y-23500003I999997J-1D01*
G01*
X25500001Y-56499999D02*
G75*
G02*
X24500001Y-55500002I-1J999999D01*
G01*
X60000000Y-24499999D02*
X60000001Y-55499993D01*
X59000002Y-23500001D02*
G75*
G02*
X59999999Y-24499999I-2J-999999D01*
G01*
X58000001Y-45500000D02*
G75*
G02*
X56000001Y-45500000I-1000000J0D01*
G01*
X56000001Y-45500000D02*
G75*
G02*
X58000001Y-45500000I1000000J0D01*
G01*
X60000001Y-55499993D02*
G75*
G02*
X59000005Y-56500001I-1000001J-7D01*
G01*
X58000001Y-34500000D02*
G75*
G02*
X56000001Y-34500000I-1000000J0D01*
G01*
X56000001Y-34500000D02*
G75*
G02*
X58000001Y-34500000I1000000J0D01*
G01*
D11*
%TO.C,J8*%
X52850001Y-52944999D02*
G75*
G02*
X51150001Y-52944999I-850000J0D01*
G01*
X51150001Y-52944999D02*
G75*
G02*
X52850001Y-52944999I850000J0D01*
G01*
%TO.C,J1*%
X28850001Y-27055000D02*
G75*
G02*
X27150001Y-27055000I-850000J0D01*
G01*
X27150001Y-27055000D02*
G75*
G02*
X28850001Y-27055000I850000J0D01*
G01*
%TO.C,J9*%
X57295000Y-40000000D02*
G75*
G02*
X55595000Y-40000000I-850000J0D01*
G01*
X55595000Y-40000000D02*
G75*
G02*
X57295000Y-40000000I850000J0D01*
G01*
%TO.C,J7*%
X52850001Y-27555000D02*
G75*
G02*
X51150001Y-27555000I-850000J0D01*
G01*
X51150001Y-27555000D02*
G75*
G02*
X52850001Y-27555000I850000J0D01*
G01*
%TO.C,J6*%
X44850001Y-27055000D02*
G75*
G02*
X43150001Y-27055000I-850000J0D01*
G01*
X43150001Y-27055000D02*
G75*
G02*
X44850001Y-27055000I850000J0D01*
G01*
%TO.C,J2*%
X28350001Y-52945000D02*
G75*
G02*
X26650001Y-52945000I-850000J0D01*
G01*
X26650001Y-52945000D02*
G75*
G02*
X28350001Y-52945000I850000J0D01*
G01*
%TO.C,J5*%
X44850001Y-52944999D02*
G75*
G02*
X43150001Y-52944999I-850000J0D01*
G01*
X43150001Y-52944999D02*
G75*
G02*
X44850001Y-52944999I850000J0D01*
G01*
%TO.C,J3*%
X36850001Y-27055000D02*
G75*
G02*
X35150001Y-27055000I-850000J0D01*
G01*
X35150001Y-27055000D02*
G75*
G02*
X36850001Y-27055000I850000J0D01*
G01*
%TO.C,J4*%
X36850001Y-52944999D02*
G75*
G02*
X35150001Y-52944999I-850000J0D01*
G01*
X35150001Y-52944999D02*
G75*
G02*
X36850001Y-52944999I850000J0D01*
G01*
%TD*%
M02*
