%TF.GenerationSoftware,KiCad,Pcbnew,8.0.1-8.0.1-1~ubuntu22.04.1*%
%TF.CreationDate,2024-03-30T15:47:12+00:00*%
%TF.ProjectId,JACK_CONN,4a41434b-5f43-44f4-9e4e-2e6b69636164,v2.0*%
%TF.SameCoordinates,Original*%
%TF.FileFunction,Copper,L1,Top*%
%TF.FilePolarity,Positive*%
%FSLAX46Y46*%
G04 Gerber Fmt 4.6, Leading zero omitted, Abs format (unit mm)*
G04 Created by KiCad (PCBNEW 8.0.1-8.0.1-1~ubuntu22.04.1) date 2024-03-30 15:47:12*
%MOMM*%
%LPD*%
G01*
G04 APERTURE LIST*
G04 Aperture macros list*
%AMRoundRect*
0 Rectangle with rounded corners*
0 $1 Rounding radius*
0 $2 $3 $4 $5 $6 $7 $8 $9 X,Y pos of 4 corners*
0 Add a 4 corners polygon primitive as box body*
4,1,4,$2,$3,$4,$5,$6,$7,$8,$9,$2,$3,0*
0 Add four circle primitives for the rounded corners*
1,1,$1+$1,$2,$3*
1,1,$1+$1,$4,$5*
1,1,$1+$1,$6,$7*
1,1,$1+$1,$8,$9*
0 Add four rect primitives between the rounded corners*
20,1,$1+$1,$2,$3,$4,$5,0*
20,1,$1+$1,$4,$5,$6,$7,0*
20,1,$1+$1,$6,$7,$8,$9,0*
20,1,$1+$1,$8,$9,$2,$3,0*%
G04 Aperture macros list end*
%TA.AperFunction,ComponentPad*%
%ADD10RoundRect,0.800000X0.050000X0.450000X-0.050000X0.450000X-0.050000X-0.450000X0.050000X-0.450000X0*%
%TD*%
%TA.AperFunction,ComponentPad*%
%ADD11RoundRect,0.800000X-0.450000X0.050000X-0.450000X-0.050000X0.450000X-0.050000X0.450000X0.050000X0*%
%TD*%
%TA.AperFunction,ComponentPad*%
%ADD12RoundRect,0.800000X-0.700000X0.050000X-0.700000X-0.050000X0.700000X-0.050000X0.700000X0.050000X0*%
%TD*%
%TA.AperFunction,ComponentPad*%
%ADD13RoundRect,0.800000X-0.050000X-0.450000X0.050000X-0.450000X0.050000X0.450000X-0.050000X0.450000X0*%
%TD*%
%TA.AperFunction,ComponentPad*%
%ADD14RoundRect,0.800000X0.450000X-0.050000X0.450000X0.050000X-0.450000X0.050000X-0.450000X-0.050000X0*%
%TD*%
%TA.AperFunction,ComponentPad*%
%ADD15RoundRect,0.800000X0.700000X-0.050000X0.700000X0.050000X-0.700000X0.050000X-0.700000X-0.050000X0*%
%TD*%
%TA.AperFunction,ComponentPad*%
%ADD16RoundRect,0.800000X-0.050000X-0.700000X0.050000X-0.700000X0.050000X0.700000X-0.050000X0.700000X0*%
%TD*%
%TA.AperFunction,ComponentPad*%
%ADD17R,1.700000X1.700000*%
%TD*%
%TA.AperFunction,ComponentPad*%
%ADD18C,1.800000*%
%TD*%
%TA.AperFunction,Conductor*%
%ADD19C,0.127000*%
%TD*%
%TA.AperFunction,Conductor*%
%ADD20C,0.152400*%
%TD*%
G04 APERTURE END LIST*
D10*
%TO.P,J8,1,T*%
%TO.N,/in8-*%
X50250001Y-50644999D03*
D11*
%TO.P,J8,2,R*%
%TO.N,/in8+*%
X52000001Y-48344999D03*
D10*
%TO.P,J8,3,T*%
%TO.N,/in8-*%
X53750001Y-50644999D03*
D12*
%TO.P,J8,6,S*%
%TO.N,unconnected-(J8-S-Pad6)*%
X52000001Y-54844999D03*
%TD*%
D13*
%TO.P,J1,1,T*%
%TO.N,/in1-*%
X29750001Y-29355000D03*
D14*
%TO.P,J1,2,R*%
%TO.N,/in1+*%
X28000001Y-31655000D03*
D13*
%TO.P,J1,3,T*%
%TO.N,/in1-*%
X26250001Y-29355000D03*
D15*
%TO.P,J1,6,S*%
%TO.N,unconnected-(J1-S-Pad6)*%
X28000001Y-25155000D03*
%TD*%
D11*
%TO.P,J9,1,T*%
%TO.N,/REF*%
X54145000Y-41750000D03*
D13*
%TO.P,J9,2,R*%
%TO.N,/GND*%
X51845000Y-40000000D03*
D11*
%TO.P,J9,3,T*%
%TO.N,/REF*%
X54145000Y-38250000D03*
D16*
%TO.P,J9,6,S*%
%TO.N,unconnected-(J9-S-Pad6)*%
X58345000Y-40000000D03*
%TD*%
D13*
%TO.P,J7,1,T*%
%TO.N,/in7-*%
X53750001Y-29855000D03*
D14*
%TO.P,J7,2,R*%
%TO.N,/in7+*%
X52000001Y-32155000D03*
D13*
%TO.P,J7,3,T*%
%TO.N,/in7-*%
X50250001Y-29855000D03*
D15*
%TO.P,J7,6,S*%
%TO.N,unconnected-(J7-S-Pad6)*%
X52000001Y-25655000D03*
%TD*%
D13*
%TO.P,J6,1,T*%
%TO.N,/in6-*%
X45750001Y-29355000D03*
D14*
%TO.P,J6,2,R*%
%TO.N,/in6+*%
X44000001Y-31655000D03*
D13*
%TO.P,J6,3,T*%
%TO.N,/in6-*%
X42250001Y-29355000D03*
D15*
%TO.P,J6,6,S*%
%TO.N,unconnected-(J6-S-Pad6)*%
X44000001Y-25155000D03*
%TD*%
D10*
%TO.P,J2,1,T*%
%TO.N,/in2-*%
X25750001Y-50645000D03*
D11*
%TO.P,J2,2,R*%
%TO.N,/in2+*%
X27500001Y-48345000D03*
D10*
%TO.P,J2,3,T*%
%TO.N,/in2-*%
X29250001Y-50645000D03*
D12*
%TO.P,J2,6,S*%
%TO.N,unconnected-(J2-S-Pad6)*%
X27500001Y-54845000D03*
%TD*%
D10*
%TO.P,J5,1,T*%
%TO.N,/in5-*%
X42250001Y-50644999D03*
D11*
%TO.P,J5,2,R*%
%TO.N,/in5+*%
X44000001Y-48344999D03*
D10*
%TO.P,J5,3,T*%
%TO.N,/in5-*%
X45750001Y-50644999D03*
D12*
%TO.P,J5,6,S*%
%TO.N,unconnected-(J5-S-Pad6)*%
X44000001Y-54844999D03*
%TD*%
D13*
%TO.P,J3,1,T*%
%TO.N,/in3-*%
X37750001Y-29355000D03*
D14*
%TO.P,J3,2,R*%
%TO.N,/in3+*%
X36000001Y-31655000D03*
D13*
%TO.P,J3,3,T*%
%TO.N,/in3-*%
X34250001Y-29355000D03*
D15*
%TO.P,J3,6,S*%
%TO.N,unconnected-(J3-S-Pad6)*%
X36000001Y-25155000D03*
%TD*%
D17*
%TO.P,J10,1,Pin_1*%
%TO.N,/GND*%
X52500001Y-45000000D03*
%TD*%
%TO.P,J11,1,Pin_1*%
%TO.N,/REF*%
X52500001Y-35000000D03*
%TD*%
D10*
%TO.P,J4,1,T*%
%TO.N,/in4+*%
X34250001Y-50644999D03*
D11*
%TO.P,J4,2,R*%
%TO.N,/in4-*%
X36000001Y-48344999D03*
D10*
%TO.P,J4,3,T*%
%TO.N,/in4+*%
X37750001Y-50644999D03*
D12*
%TO.P,J4,6,S*%
%TO.N,unconnected-(J4-S-Pad6)*%
X36000001Y-54844999D03*
%TD*%
D18*
%TO.P,J25,1,Pin_1*%
%TO.N,/in6-*%
X41905001Y-34500000D03*
%TD*%
%TO.P,J21,1,Pin_1*%
%TO.N,/in2-*%
X32375001Y-35000000D03*
%TD*%
%TO.P,J14,1,Pin_1*%
%TO.N,/in3+*%
X38095001Y-39000000D03*
%TD*%
%TO.P,J20,1,Pin_1*%
%TO.N,/in1-*%
X32375001Y-38250000D03*
%TD*%
%TO.P,J18,1,Pin_1*%
%TO.N,/in7+*%
X47625001Y-45000000D03*
%TD*%
%TO.P,J23,1,Pin_1*%
%TO.N,/in4-*%
X37375001Y-41750000D03*
%TD*%
%TO.P,J16,1,Pin_1*%
%TO.N,/in5+*%
X42625001Y-45000000D03*
%TD*%
%TO.P,J12,1,Pin_1*%
%TO.N,/in1+*%
X32375001Y-41750000D03*
%TD*%
%TO.P,J27,1,Pin_1*%
%TO.N,/in8-*%
X47625001Y-38250000D03*
%TD*%
%TO.P,J13,1,Pin_1*%
%TO.N,/in2+*%
X32375001Y-45000000D03*
%TD*%
%TO.P,J24,1,Pin_1*%
%TO.N,/in5-*%
X42625001Y-41750000D03*
%TD*%
%TO.P,J26,1,Pin_1*%
%TO.N,/in7-*%
X47625001Y-35000000D03*
%TD*%
%TO.P,J15,1,Pin_1*%
%TO.N,/in4+*%
X37375001Y-45000000D03*
%TD*%
%TO.P,J17,1,Pin_1*%
%TO.N,/in6+*%
X41905001Y-39000000D03*
%TD*%
%TO.P,J22,1,Pin_1*%
%TO.N,/in3-*%
X38095001Y-34500000D03*
%TD*%
%TO.P,J19,1,Pin_1*%
%TO.N,/in8+*%
X47625001Y-41750000D03*
%TD*%
D19*
%TO.N,/REF*%
X52500001Y-35000000D02*
X52500001Y-36605001D01*
X54145000Y-38250000D02*
X54145000Y-41750000D01*
X52500001Y-36605001D02*
X54145000Y-38250000D01*
%TO.N,/GND*%
X52500001Y-40655001D02*
X51845000Y-40000000D01*
X52500001Y-45000000D02*
X52500001Y-40655001D01*
D20*
%TO.N,/in1+*%
X29000001Y-32655000D02*
X28000001Y-31655000D01*
X32175002Y-41750000D02*
X29000001Y-38574999D01*
X29000001Y-38574999D02*
X29000001Y-32655000D01*
%TO.N,/in1-*%
X32175002Y-38250000D02*
X31250001Y-38250000D01*
X29500001Y-36500000D02*
X29500001Y-29605000D01*
X29500001Y-29605000D02*
X29750001Y-29355000D01*
X26250001Y-29355000D02*
X29750001Y-29355000D01*
X31250001Y-38250000D02*
X29500001Y-36500000D01*
%TO.N,/in2+*%
X28955002Y-48345000D02*
X27500001Y-48345000D01*
X32175002Y-45125000D02*
X28955002Y-48345000D01*
%TO.N,/in2-*%
X29250001Y-50645000D02*
X25750001Y-50645000D01*
X32125002Y-35000000D02*
X32300001Y-35000000D01*
%TO.N,/in3+*%
X37250001Y-38250000D02*
X37300001Y-38300000D01*
%TO.N,/in3-*%
X38095001Y-34500000D02*
X37750001Y-34155000D01*
X37750001Y-34155000D02*
X37750001Y-29355000D01*
X34250001Y-29355000D02*
X37750001Y-29355000D01*
%TO.N,/in4+*%
X37750001Y-50644999D02*
X34250001Y-50644999D01*
X37750001Y-45699999D02*
X37750001Y-50644999D01*
X37175002Y-45125000D02*
X37750001Y-45699999D01*
%TO.N,/in5+*%
X42950001Y-45125000D02*
X42950001Y-47294999D01*
X42950001Y-47294999D02*
X44000001Y-48344999D01*
%TO.N,/in5-*%
X42250001Y-50644999D02*
X45750001Y-50644999D01*
X42950001Y-41750000D02*
X42750001Y-41750000D01*
%TO.N,/in6+*%
X42850001Y-38250000D02*
X42800001Y-38300000D01*
%TO.N,/in6-*%
X42250001Y-34155000D02*
X42250001Y-29355000D01*
X42250001Y-29355000D02*
X45750001Y-29355000D01*
X41905001Y-34500000D02*
X42250001Y-34155000D01*
%TO.N,/in7+*%
X47950000Y-45125000D02*
X47775001Y-45125000D01*
%TO.N,/in7-*%
X50250001Y-29855000D02*
X53750001Y-29855000D01*
X47950000Y-35000000D02*
X47950000Y-32155001D01*
X47950000Y-32155001D02*
X50250001Y-29855000D01*
%TO.N,/in8+*%
X50500001Y-46844999D02*
X52000001Y-48344999D01*
X50500001Y-43500000D02*
X50500001Y-46844999D01*
X47950000Y-41750000D02*
X48750001Y-41750000D01*
X48750001Y-41750000D02*
X50500001Y-43500000D01*
%TO.N,/in8-*%
X48050001Y-38250000D02*
X48100001Y-38300000D01*
X50250001Y-50644999D02*
X53750001Y-50644999D01*
X47950000Y-38250000D02*
X48050001Y-38250000D01*
%TD*%
%TA.AperFunction,Conductor*%
%TO.N,/in2-*%
G36*
X34693040Y-33519685D02*
G01*
X34738795Y-33572489D01*
X34750001Y-33624000D01*
X34750001Y-36376000D01*
X34730316Y-36443039D01*
X34677512Y-36488794D01*
X34626001Y-36500000D01*
X30124001Y-36500000D01*
X30056962Y-36480315D01*
X30011207Y-36427511D01*
X30000001Y-36376000D01*
X30000001Y-33624000D01*
X30019686Y-33556961D01*
X30072490Y-33511206D01*
X30124001Y-33500000D01*
X34626001Y-33500000D01*
X34693040Y-33519685D01*
G37*
%TD.AperFunction*%
%TD*%
%TA.AperFunction,Conductor*%
%TO.N,/in3-*%
G36*
X39693040Y-33519685D02*
G01*
X39738795Y-33572489D01*
X39750001Y-33624000D01*
X39750001Y-36376000D01*
X39730316Y-36443039D01*
X39677512Y-36488794D01*
X39626001Y-36500000D01*
X35124001Y-36500000D01*
X35056962Y-36480315D01*
X35011207Y-36427511D01*
X35000001Y-36376000D01*
X35000001Y-33624000D01*
X35019686Y-33556961D01*
X35072490Y-33511206D01*
X35124001Y-33500000D01*
X39626001Y-33500000D01*
X39693040Y-33519685D01*
G37*
%TD.AperFunction*%
%TD*%
%TA.AperFunction,Conductor*%
%TO.N,/in4+*%
G36*
X39693040Y-43519685D02*
G01*
X39738795Y-43572489D01*
X39750001Y-43624000D01*
X39750001Y-46376000D01*
X39730316Y-46443039D01*
X39677512Y-46488794D01*
X39626001Y-46500000D01*
X35124001Y-46500000D01*
X35056962Y-46480315D01*
X35011207Y-46427511D01*
X35000001Y-46376000D01*
X35000001Y-43624000D01*
X35019686Y-43556961D01*
X35072490Y-43511206D01*
X35124001Y-43500000D01*
X39626001Y-43500000D01*
X39693040Y-43519685D01*
G37*
%TD.AperFunction*%
%TD*%
%TA.AperFunction,Conductor*%
%TO.N,/in4-*%
G36*
X39693040Y-40269685D02*
G01*
X39738795Y-40322489D01*
X39750001Y-40374000D01*
X39750001Y-43126000D01*
X39730316Y-43193039D01*
X39677512Y-43238794D01*
X39626001Y-43250000D01*
X35124001Y-43250000D01*
X35056962Y-43230315D01*
X35011207Y-43177511D01*
X35000001Y-43126000D01*
X35000001Y-40374000D01*
X35019686Y-40306961D01*
X35072490Y-40261206D01*
X35124001Y-40250000D01*
X39626001Y-40250000D01*
X39693040Y-40269685D01*
G37*
%TD.AperFunction*%
%TD*%
%TA.AperFunction,Conductor*%
%TO.N,/in2+*%
G36*
X34693040Y-43519685D02*
G01*
X34738795Y-43572489D01*
X34750001Y-43624000D01*
X34750001Y-46376000D01*
X34730316Y-46443039D01*
X34677512Y-46488794D01*
X34626001Y-46500000D01*
X30124001Y-46500000D01*
X30056962Y-46480315D01*
X30011207Y-46427511D01*
X30000001Y-46376000D01*
X30000001Y-43624000D01*
X30019686Y-43556961D01*
X30072490Y-43511206D01*
X30124001Y-43500000D01*
X34626001Y-43500000D01*
X34693040Y-43519685D01*
G37*
%TD.AperFunction*%
%TD*%
%TA.AperFunction,Conductor*%
%TO.N,/in6+*%
G36*
X44943039Y-36769685D02*
G01*
X44988794Y-36822489D01*
X45000000Y-36874000D01*
X45000000Y-39626000D01*
X44980315Y-39693039D01*
X44927511Y-39738794D01*
X44876000Y-39750000D01*
X40374000Y-39750000D01*
X40306961Y-39730315D01*
X40261206Y-39677511D01*
X40250000Y-39626000D01*
X40250000Y-36874000D01*
X40269685Y-36806961D01*
X40322489Y-36761206D01*
X40374000Y-36750000D01*
X44876000Y-36750000D01*
X44943039Y-36769685D01*
G37*
%TD.AperFunction*%
%TD*%
%TA.AperFunction,Conductor*%
%TO.N,/in8+*%
G36*
X49962090Y-40269685D02*
G01*
X50007845Y-40322489D01*
X50019051Y-40374000D01*
X50019051Y-43126000D01*
X49999366Y-43193039D01*
X49946562Y-43238794D01*
X49895051Y-43250000D01*
X45393051Y-43250000D01*
X45326012Y-43230315D01*
X45280257Y-43177511D01*
X45269051Y-43126000D01*
X45269051Y-40374000D01*
X45288736Y-40306961D01*
X45341540Y-40261206D01*
X45393051Y-40250000D01*
X49895051Y-40250000D01*
X49962090Y-40269685D01*
G37*
%TD.AperFunction*%
%TD*%
%TA.AperFunction,Conductor*%
%TO.N,/in1+*%
G36*
X34693040Y-40269685D02*
G01*
X34738795Y-40322489D01*
X34750001Y-40374000D01*
X34750001Y-43126000D01*
X34730316Y-43193039D01*
X34677512Y-43238794D01*
X34626001Y-43250000D01*
X30124001Y-43250000D01*
X30056962Y-43230315D01*
X30011207Y-43177511D01*
X30000001Y-43126000D01*
X30000001Y-40374000D01*
X30019686Y-40306961D01*
X30072490Y-40261206D01*
X30124001Y-40250000D01*
X34626001Y-40250000D01*
X34693040Y-40269685D01*
G37*
%TD.AperFunction*%
%TD*%
%TA.AperFunction,Conductor*%
%TO.N,/in8-*%
G36*
X49962089Y-36769685D02*
G01*
X50007844Y-36822489D01*
X50019050Y-36874000D01*
X50019050Y-39626000D01*
X49999365Y-39693039D01*
X49946561Y-39738794D01*
X49895050Y-39750000D01*
X45393050Y-39750000D01*
X45326011Y-39730315D01*
X45280256Y-39677511D01*
X45269050Y-39626000D01*
X45269050Y-36874000D01*
X45288735Y-36806961D01*
X45341539Y-36761206D01*
X45393050Y-36750000D01*
X49895050Y-36750000D01*
X49962089Y-36769685D01*
G37*
%TD.AperFunction*%
%TD*%
%TA.AperFunction,Conductor*%
%TO.N,/in3+*%
G36*
X39693039Y-36769685D02*
G01*
X39738794Y-36822489D01*
X39750000Y-36874000D01*
X39750000Y-39626000D01*
X39730315Y-39693039D01*
X39677511Y-39738794D01*
X39626000Y-39750000D01*
X35124000Y-39750000D01*
X35056961Y-39730315D01*
X35011206Y-39677511D01*
X35000000Y-39626000D01*
X35000000Y-36874000D01*
X35019685Y-36806961D01*
X35072489Y-36761206D01*
X35124000Y-36750000D01*
X39626000Y-36750000D01*
X39693039Y-36769685D01*
G37*
%TD.AperFunction*%
%TD*%
%TA.AperFunction,Conductor*%
%TO.N,/in1-*%
G36*
X34693041Y-36769685D02*
G01*
X34738796Y-36822489D01*
X34750002Y-36874000D01*
X34750002Y-39626000D01*
X34730317Y-39693039D01*
X34677513Y-39738794D01*
X34626002Y-39750000D01*
X30514439Y-39750000D01*
X30447400Y-39730315D01*
X30426758Y-39713681D01*
X30036321Y-39323243D01*
X30002836Y-39261920D01*
X30000002Y-39235562D01*
X30000002Y-36874000D01*
X30019687Y-36806961D01*
X30072491Y-36761206D01*
X30124002Y-36750000D01*
X34626002Y-36750000D01*
X34693041Y-36769685D01*
G37*
%TD.AperFunction*%
%TD*%
%TA.AperFunction,Conductor*%
%TO.N,/in7+*%
G36*
X49962090Y-43519685D02*
G01*
X50007845Y-43572489D01*
X50019051Y-43624000D01*
X50019051Y-46376000D01*
X49999366Y-46443039D01*
X49946562Y-46488794D01*
X49895051Y-46500000D01*
X45393051Y-46500000D01*
X45326012Y-46480315D01*
X45280257Y-46427511D01*
X45269051Y-46376000D01*
X45269051Y-43624000D01*
X45288736Y-43556961D01*
X45341540Y-43511206D01*
X45393051Y-43500000D01*
X49895051Y-43500000D01*
X49962090Y-43519685D01*
G37*
%TD.AperFunction*%
%TD*%
%TA.AperFunction,Conductor*%
%TO.N,/in6-*%
G36*
X44943040Y-33519685D02*
G01*
X44988795Y-33572489D01*
X45000001Y-33624000D01*
X45000001Y-36376000D01*
X44980316Y-36443039D01*
X44927512Y-36488794D01*
X44876001Y-36500000D01*
X40374001Y-36500000D01*
X40306962Y-36480315D01*
X40261207Y-36427511D01*
X40250001Y-36376000D01*
X40250001Y-33624000D01*
X40269686Y-33556961D01*
X40322490Y-33511206D01*
X40374001Y-33500000D01*
X44876001Y-33500000D01*
X44943040Y-33519685D01*
G37*
%TD.AperFunction*%
%TD*%
%TA.AperFunction,Conductor*%
%TO.N,/in5+*%
G36*
X44943040Y-43519685D02*
G01*
X44988795Y-43572489D01*
X45000001Y-43624000D01*
X45000001Y-46376000D01*
X44980316Y-46443039D01*
X44927512Y-46488794D01*
X44876001Y-46500000D01*
X40374001Y-46500000D01*
X40306962Y-46480315D01*
X40261207Y-46427511D01*
X40250001Y-46376000D01*
X40250001Y-43624000D01*
X40269686Y-43556961D01*
X40322490Y-43511206D01*
X40374001Y-43500000D01*
X44876001Y-43500000D01*
X44943040Y-43519685D01*
G37*
%TD.AperFunction*%
%TD*%
%TA.AperFunction,Conductor*%
%TO.N,/in7-*%
G36*
X49962090Y-33519685D02*
G01*
X50007845Y-33572489D01*
X50019051Y-33624000D01*
X50019051Y-36376000D01*
X49999366Y-36443039D01*
X49946562Y-36488794D01*
X49895051Y-36500000D01*
X45393051Y-36500000D01*
X45326012Y-36480315D01*
X45280257Y-36427511D01*
X45269051Y-36376000D01*
X45269051Y-33624000D01*
X45288736Y-33556961D01*
X45341540Y-33511206D01*
X45393051Y-33500000D01*
X49895051Y-33500000D01*
X49962090Y-33519685D01*
G37*
%TD.AperFunction*%
%TD*%
%TA.AperFunction,Conductor*%
%TO.N,/in5-*%
G36*
X44943040Y-40269685D02*
G01*
X44988795Y-40322489D01*
X45000001Y-40374000D01*
X45000001Y-43126000D01*
X44980316Y-43193039D01*
X44927512Y-43238794D01*
X44876001Y-43250000D01*
X40374001Y-43250000D01*
X40306962Y-43230315D01*
X40261207Y-43177511D01*
X40250001Y-43126000D01*
X40250001Y-40374000D01*
X40269686Y-40306961D01*
X40322490Y-40261206D01*
X40374001Y-40250000D01*
X44876001Y-40250000D01*
X44943040Y-40269685D01*
G37*
%TD.AperFunction*%
%TD*%
M02*
