%TF.GenerationSoftware,KiCad,Pcbnew,9.0.6-9.0.6~ubuntu24.04.1*%
%TF.CreationDate,2026-01-03T16:06:58+00:00*%
%TF.ProjectId,IMU_ICM2094,494d555f-4943-44d3-9230-39342e6b6963,1.0*%
%TF.SameCoordinates,Original*%
%TF.FileFunction,Copper,L3,Inr*%
%TF.FilePolarity,Positive*%
%FSLAX46Y46*%
G04 Gerber Fmt 4.6, Leading zero omitted, Abs format (unit mm)*
G04 Created by KiCad (PCBNEW 9.0.6-9.0.6~ubuntu24.04.1) date 2026-01-03 16:06:58*
%MOMM*%
%LPD*%
G01*
G04 APERTURE LIST*
%TA.AperFunction,ComponentPad*%
%ADD10R,1.000000X1.000000*%
%TD*%
%TA.AperFunction,ViaPad*%
%ADD11C,0.400000*%
%TD*%
G04 APERTURE END LIST*
D10*
%TO.N,/extRef*%
%TO.C,J8*%
X34445000Y-30000000D03*
%TD*%
%TO.N,/PICO*%
%TO.C,J5*%
X30635000Y-30000000D03*
%TD*%
%TO.N,/AIN0*%
%TO.C,J16*%
X31495000Y-37770000D03*
%TD*%
%TO.N,+3.3V*%
%TO.C,J1*%
X25555000Y-30000000D03*
%TD*%
%TO.N,GND*%
%TO.C,J18*%
X31495000Y-36500000D03*
%TD*%
%TO.N,/IO1_out*%
%TO.C,J9*%
X36575000Y-36500000D03*
%TD*%
%TO.N,GND*%
%TO.C,J2*%
X26825000Y-30000000D03*
%TD*%
%TO.N,unconnected-(J7-Pin_1-Pad1)*%
%TO.C,J7*%
X33175000Y-30000000D03*
%TD*%
%TO.N,unconnected-(J3-Pin_1-Pad1)*%
%TO.C,J3*%
X28095000Y-30000000D03*
%TD*%
%TO.N,/I2C_SDA*%
%TO.C,J15*%
X36575000Y-37770000D03*
%TD*%
%TO.N,/SWDIO{slash}POCI_ARM*%
%TO.C,J10*%
X35305000Y-36500000D03*
%TD*%
%TO.N,/i2C_SCL*%
%TO.C,J14*%
X35305000Y-37770000D03*
%TD*%
%TO.N,/SCLK_ARM*%
%TO.C,J12*%
X32765000Y-36500000D03*
%TD*%
%TO.N,/POCI*%
%TO.C,J4*%
X29365000Y-30000000D03*
%TD*%
%TO.N,/CSB*%
%TO.C,J17*%
X32765000Y-37770000D03*
%TD*%
%TO.N,/SCLK*%
%TO.C,J6*%
X31905000Y-30000000D03*
%TD*%
%TO.N,/PICO_ARM*%
%TO.C,J11*%
X34035000Y-36500000D03*
%TD*%
%TO.N,/SPICS_ARM*%
%TO.C,J13*%
X34035000Y-37770000D03*
%TD*%
D11*
%TO.N,GND*%
X34700000Y-39100000D03*
X36400000Y-33000000D03*
X29600000Y-33300000D03*
X23400000Y-30900000D03*
X30500000Y-33300000D03*
X24800000Y-34000000D03*
X37000000Y-30700000D03*
X36400000Y-39200000D03*
X23700000Y-32100000D03*
X34600000Y-31500000D03*
X29600000Y-34100000D03*
X30400000Y-34100000D03*
%TO.N,+3.3V*%
X35800000Y-34100000D03*
X24200000Y-39200000D03*
X33300000Y-32500000D03*
X30400000Y-37774510D03*
%TO.N,/POCI*%
X27000000Y-37300000D03*
%TO.N,/1.8V*%
X28100000Y-35600000D03*
X32252501Y-34552501D03*
%TO.N,/SCK_1.8V*%
X35900000Y-31400000D03*
X30600000Y-30900000D03*
%TO.N,/PICO_1.8V*%
X33600000Y-34400000D03*
X29100000Y-31300000D03*
%TO.N,/CS_1.8V*%
X31600000Y-32100000D03*
X29400000Y-38300000D03*
%TD*%
%TA.AperFunction,Conductor*%
%TO.N,GND*%
G36*
X25039905Y-29030185D02*
G01*
X25085660Y-29082989D01*
X25095604Y-29152147D01*
X25066579Y-29215703D01*
X25007801Y-29253477D01*
X24997057Y-29256117D01*
X24957264Y-29264032D01*
X24957260Y-29264033D01*
X24874399Y-29319399D01*
X24819033Y-29402260D01*
X24819032Y-29402264D01*
X24804500Y-29475321D01*
X24804500Y-30524678D01*
X24819032Y-30597735D01*
X24819033Y-30597739D01*
X24819034Y-30597740D01*
X24874399Y-30680601D01*
X24949472Y-30730762D01*
X24957260Y-30735966D01*
X24957264Y-30735967D01*
X25030321Y-30750499D01*
X25030324Y-30750500D01*
X25825874Y-30750500D01*
X25892913Y-30770185D01*
X25925141Y-30800189D01*
X25967809Y-30857186D01*
X25967814Y-30857191D01*
X26082906Y-30943350D01*
X26082913Y-30943354D01*
X26217620Y-30993596D01*
X26217627Y-30993598D01*
X26277155Y-30999999D01*
X26277172Y-31000000D01*
X26575000Y-31000000D01*
X26575000Y-30209618D01*
X26625446Y-30260064D01*
X26699555Y-30302851D01*
X26782213Y-30325000D01*
X26867787Y-30325000D01*
X26950445Y-30302851D01*
X27024554Y-30260064D01*
X27075000Y-30209618D01*
X27075000Y-31000000D01*
X27372828Y-31000000D01*
X27372844Y-30999999D01*
X27432372Y-30993598D01*
X27432379Y-30993596D01*
X27567086Y-30943354D01*
X27567093Y-30943350D01*
X27682185Y-30857191D01*
X27682190Y-30857186D01*
X27724859Y-30800189D01*
X27780793Y-30758318D01*
X27824126Y-30750500D01*
X28619676Y-30750500D01*
X28619677Y-30750499D01*
X28636719Y-30747109D01*
X28704719Y-30733584D01*
X28705541Y-30737720D01*
X28707526Y-30737506D01*
X28731771Y-30730762D01*
X28744896Y-30733473D01*
X28751968Y-30732710D01*
X28766631Y-30736283D01*
X28768759Y-30736941D01*
X28771959Y-30739062D01*
X28777498Y-30740207D01*
X28778588Y-30740659D01*
X28777677Y-30742854D01*
X28792716Y-30752825D01*
X28818191Y-30766137D01*
X28821470Y-30771890D01*
X28826991Y-30775551D01*
X28838556Y-30801864D01*
X28852792Y-30826838D01*
X28852440Y-30833452D01*
X28855105Y-30839515D01*
X28850609Y-30867901D01*
X28849083Y-30896609D01*
X28845047Y-30903016D01*
X28844175Y-30908525D01*
X28835336Y-30918434D01*
X28819810Y-30943088D01*
X28739510Y-31023387D01*
X28681777Y-31123384D01*
X28680201Y-31126114D01*
X28649500Y-31240691D01*
X28649500Y-31359309D01*
X28680201Y-31473886D01*
X28739511Y-31576613D01*
X28823387Y-31660489D01*
X28926114Y-31719799D01*
X29040691Y-31750500D01*
X29040694Y-31750500D01*
X29159306Y-31750500D01*
X29159309Y-31750500D01*
X29273886Y-31719799D01*
X29376613Y-31660489D01*
X29460489Y-31576613D01*
X29519799Y-31473886D01*
X29550500Y-31359309D01*
X29550500Y-31240691D01*
X29519799Y-31126114D01*
X29460489Y-31023387D01*
X29399283Y-30962181D01*
X29365798Y-30900858D01*
X29370782Y-30831166D01*
X29412654Y-30775233D01*
X29478118Y-30750816D01*
X29486964Y-30750500D01*
X29889676Y-30750500D01*
X29889677Y-30750499D01*
X29906719Y-30747109D01*
X29974719Y-30733584D01*
X29975541Y-30737720D01*
X30021968Y-30732710D01*
X30025265Y-30733350D01*
X30036999Y-30735792D01*
X30037260Y-30735966D01*
X30050260Y-30738552D01*
X30050765Y-30738657D01*
X30081111Y-30754874D01*
X30111601Y-30770822D01*
X30111883Y-30771318D01*
X30112388Y-30771588D01*
X30129146Y-30801631D01*
X30146176Y-30831537D01*
X30146268Y-30832327D01*
X30146424Y-30832607D01*
X30146380Y-30833295D01*
X30149500Y-30860056D01*
X30149500Y-30959309D01*
X30180201Y-31073886D01*
X30239511Y-31176613D01*
X30323387Y-31260489D01*
X30426114Y-31319799D01*
X30540691Y-31350500D01*
X30540694Y-31350500D01*
X30659306Y-31350500D01*
X30659309Y-31350500D01*
X30695916Y-31340691D01*
X35449500Y-31340691D01*
X35449500Y-31459309D01*
X35480201Y-31573886D01*
X35539511Y-31676613D01*
X35623387Y-31760489D01*
X35726114Y-31819799D01*
X35840691Y-31850500D01*
X35840694Y-31850500D01*
X35959306Y-31850500D01*
X35959309Y-31850500D01*
X36073886Y-31819799D01*
X36176613Y-31760489D01*
X36260489Y-31676613D01*
X36319799Y-31573886D01*
X36350500Y-31459309D01*
X36350500Y-31340691D01*
X36319799Y-31226114D01*
X36260489Y-31123387D01*
X36176613Y-31039511D01*
X36073886Y-30980201D01*
X35959309Y-30949500D01*
X35840691Y-30949500D01*
X35726114Y-30980201D01*
X35726112Y-30980201D01*
X35726112Y-30980202D01*
X35623387Y-31039511D01*
X35623384Y-31039513D01*
X35539513Y-31123384D01*
X35539511Y-31123387D01*
X35508780Y-31176615D01*
X35480201Y-31226114D01*
X35449500Y-31340691D01*
X30695916Y-31340691D01*
X30773886Y-31319799D01*
X30876613Y-31260489D01*
X30960489Y-31176613D01*
X31019799Y-31073886D01*
X31050500Y-30959309D01*
X31050500Y-30873639D01*
X31059463Y-30843112D01*
X31066812Y-30812164D01*
X31069236Y-30809829D01*
X31070185Y-30806600D01*
X31094222Y-30785771D01*
X31117143Y-30763702D01*
X31121026Y-30762545D01*
X31122989Y-30760845D01*
X31150439Y-30751996D01*
X31158002Y-30750500D01*
X31159674Y-30750500D01*
X31232740Y-30735966D01*
X31233269Y-30735611D01*
X31245939Y-30733106D01*
X31268971Y-30735191D01*
X31291968Y-30732710D01*
X31295262Y-30733677D01*
X31295281Y-30733584D01*
X31380321Y-30750499D01*
X31380324Y-30750500D01*
X31380326Y-30750500D01*
X32429676Y-30750500D01*
X32429677Y-30750499D01*
X32446719Y-30747109D01*
X32514719Y-30733584D01*
X32515541Y-30737720D01*
X32561968Y-30732710D01*
X32565262Y-30733677D01*
X32565281Y-30733584D01*
X32650321Y-30750499D01*
X32650324Y-30750500D01*
X32650326Y-30750500D01*
X33699676Y-30750500D01*
X33699677Y-30750499D01*
X33716719Y-30747109D01*
X33784719Y-30733584D01*
X33785541Y-30737720D01*
X33831968Y-30732710D01*
X33835262Y-30733677D01*
X33835281Y-30733584D01*
X33920321Y-30750499D01*
X33920324Y-30750500D01*
X33920326Y-30750500D01*
X34969676Y-30750500D01*
X34969677Y-30750499D01*
X35042740Y-30735966D01*
X35125601Y-30680601D01*
X35180966Y-30597740D01*
X35195500Y-30524674D01*
X35195500Y-29475326D01*
X35195500Y-29475323D01*
X35195499Y-29475321D01*
X35180967Y-29402264D01*
X35180966Y-29402260D01*
X35145999Y-29349928D01*
X35125601Y-29319399D01*
X35070235Y-29282405D01*
X35042739Y-29264033D01*
X35042735Y-29264032D01*
X35002943Y-29256117D01*
X34941032Y-29223732D01*
X34906457Y-29163016D01*
X34910197Y-29093247D01*
X34951064Y-29036575D01*
X35016082Y-29010994D01*
X35027134Y-29010500D01*
X36743908Y-29010500D01*
X36756061Y-29011097D01*
X36765633Y-29012039D01*
X36882118Y-29023512D01*
X36905955Y-29028254D01*
X37021310Y-29063247D01*
X37043764Y-29072548D01*
X37082490Y-29093247D01*
X37150071Y-29129370D01*
X37170283Y-29142875D01*
X37263464Y-29219347D01*
X37280652Y-29236535D01*
X37357124Y-29329716D01*
X37370629Y-29349928D01*
X37427450Y-29456232D01*
X37436752Y-29478689D01*
X37471745Y-29594044D01*
X37476488Y-29617886D01*
X37488903Y-29743938D01*
X37489500Y-29756092D01*
X37489500Y-35760681D01*
X37469815Y-35827720D01*
X37417011Y-35873475D01*
X37347853Y-35883419D01*
X37284297Y-35854394D01*
X37262398Y-35829571D01*
X37255602Y-35819400D01*
X37172739Y-35764033D01*
X37172735Y-35764032D01*
X37099677Y-35749500D01*
X37099674Y-35749500D01*
X36050326Y-35749500D01*
X36050324Y-35749500D01*
X35965283Y-35766416D01*
X35964462Y-35762291D01*
X35917897Y-35767264D01*
X35914733Y-35766335D01*
X35914717Y-35766416D01*
X35829676Y-35749500D01*
X35829674Y-35749500D01*
X34780326Y-35749500D01*
X34780324Y-35749500D01*
X34695283Y-35766416D01*
X34694462Y-35762291D01*
X34647897Y-35767264D01*
X34644733Y-35766335D01*
X34644717Y-35766416D01*
X34559676Y-35749500D01*
X34559674Y-35749500D01*
X33510326Y-35749500D01*
X33510324Y-35749500D01*
X33425283Y-35766416D01*
X33424462Y-35762291D01*
X33377897Y-35767264D01*
X33374733Y-35766335D01*
X33374717Y-35766416D01*
X33289676Y-35749500D01*
X33289674Y-35749500D01*
X32494126Y-35749500D01*
X32427087Y-35729815D01*
X32394859Y-35699811D01*
X32352190Y-35642813D01*
X32352185Y-35642808D01*
X32237093Y-35556649D01*
X32237086Y-35556645D01*
X32102379Y-35506403D01*
X32102372Y-35506401D01*
X32042844Y-35500000D01*
X31745000Y-35500000D01*
X31745000Y-36290382D01*
X31694554Y-36239936D01*
X31620445Y-36197149D01*
X31537787Y-36175000D01*
X31452213Y-36175000D01*
X31369555Y-36197149D01*
X31295446Y-36239936D01*
X31234936Y-36300446D01*
X31192149Y-36374555D01*
X31170000Y-36457213D01*
X31170000Y-36542787D01*
X31192149Y-36625445D01*
X31234936Y-36699554D01*
X31285382Y-36750000D01*
X30495000Y-36750000D01*
X30495000Y-37047844D01*
X30501401Y-37107372D01*
X30501403Y-37107379D01*
X30519790Y-37156677D01*
X30524774Y-37226368D01*
X30491289Y-37287691D01*
X30429966Y-37321176D01*
X30403608Y-37324010D01*
X30340691Y-37324010D01*
X30226114Y-37354711D01*
X30226112Y-37354711D01*
X30226112Y-37354712D01*
X30123387Y-37414021D01*
X30123384Y-37414023D01*
X30039513Y-37497894D01*
X30039511Y-37497897D01*
X29980201Y-37600624D01*
X29949500Y-37715201D01*
X29949500Y-37833819D01*
X29980201Y-37948396D01*
X30039511Y-38051123D01*
X30123387Y-38134999D01*
X30226114Y-38194309D01*
X30340691Y-38225010D01*
X30340694Y-38225010D01*
X30459306Y-38225010D01*
X30459309Y-38225010D01*
X30573886Y-38194309D01*
X30573887Y-38194307D01*
X30581736Y-38192205D01*
X30582067Y-38193441D01*
X30643312Y-38186856D01*
X30705792Y-38218129D01*
X30741446Y-38278217D01*
X30743290Y-38288704D01*
X30743311Y-38288700D01*
X30759032Y-38367735D01*
X30759033Y-38367739D01*
X30759034Y-38367740D01*
X30814399Y-38450601D01*
X30892387Y-38502710D01*
X30897260Y-38505966D01*
X30897264Y-38505967D01*
X30970321Y-38520499D01*
X30970324Y-38520500D01*
X30970326Y-38520500D01*
X32019676Y-38520500D01*
X32019677Y-38520499D01*
X32036719Y-38517109D01*
X32104719Y-38503584D01*
X32105541Y-38507720D01*
X32151968Y-38502710D01*
X32155262Y-38503677D01*
X32155281Y-38503584D01*
X32240321Y-38520499D01*
X32240324Y-38520500D01*
X32240326Y-38520500D01*
X33289676Y-38520500D01*
X33289677Y-38520499D01*
X33306719Y-38517109D01*
X33374719Y-38503584D01*
X33375541Y-38507720D01*
X33421968Y-38502710D01*
X33425262Y-38503677D01*
X33425281Y-38503584D01*
X33510321Y-38520499D01*
X33510324Y-38520500D01*
X33510326Y-38520500D01*
X34559676Y-38520500D01*
X34559677Y-38520499D01*
X34576719Y-38517109D01*
X34644719Y-38503584D01*
X34645541Y-38507720D01*
X34691968Y-38502710D01*
X34695262Y-38503677D01*
X34695281Y-38503584D01*
X34780321Y-38520499D01*
X34780324Y-38520500D01*
X34780326Y-38520500D01*
X35829676Y-38520500D01*
X35829677Y-38520499D01*
X35846719Y-38517109D01*
X35914719Y-38503584D01*
X35915541Y-38507720D01*
X35961968Y-38502710D01*
X35965262Y-38503677D01*
X35965281Y-38503584D01*
X36050321Y-38520499D01*
X36050324Y-38520500D01*
X36050326Y-38520500D01*
X37099676Y-38520500D01*
X37099677Y-38520499D01*
X37172740Y-38505966D01*
X37255601Y-38450601D01*
X37262398Y-38440428D01*
X37316007Y-38395623D01*
X37385332Y-38386914D01*
X37448360Y-38417067D01*
X37485081Y-38476509D01*
X37489500Y-38509318D01*
X37489500Y-39243906D01*
X37488903Y-39256060D01*
X37476488Y-39382112D01*
X37471746Y-39405953D01*
X37436753Y-39521309D01*
X37427450Y-39543767D01*
X37370629Y-39650072D01*
X37357124Y-39670284D01*
X37280653Y-39763464D01*
X37263465Y-39780652D01*
X37170284Y-39857124D01*
X37150072Y-39870629D01*
X37043768Y-39927450D01*
X37021310Y-39936753D01*
X36905954Y-39971746D01*
X36882113Y-39976488D01*
X36756072Y-39988902D01*
X36743918Y-39989499D01*
X23256090Y-39989499D01*
X23243937Y-39988902D01*
X23117887Y-39976488D01*
X23094044Y-39971745D01*
X22978689Y-39936752D01*
X22956232Y-39927450D01*
X22849928Y-39870629D01*
X22829716Y-39857124D01*
X22736535Y-39780652D01*
X22719347Y-39763464D01*
X22642875Y-39670283D01*
X22629370Y-39650071D01*
X22572549Y-39543767D01*
X22563247Y-39521310D01*
X22528254Y-39405955D01*
X22523512Y-39382118D01*
X22511097Y-39256060D01*
X22510500Y-39243907D01*
X22510500Y-39140691D01*
X23749500Y-39140691D01*
X23749500Y-39259309D01*
X23780201Y-39373886D01*
X23839511Y-39476613D01*
X23923387Y-39560489D01*
X24026114Y-39619799D01*
X24140691Y-39650500D01*
X24140694Y-39650500D01*
X24259306Y-39650500D01*
X24259309Y-39650500D01*
X24373886Y-39619799D01*
X24476613Y-39560489D01*
X24560489Y-39476613D01*
X24619799Y-39373886D01*
X24650500Y-39259309D01*
X24650500Y-39140691D01*
X24619799Y-39026114D01*
X24560489Y-38923387D01*
X24476613Y-38839511D01*
X24373886Y-38780201D01*
X24259309Y-38749500D01*
X24140691Y-38749500D01*
X24026114Y-38780201D01*
X24026112Y-38780201D01*
X24026112Y-38780202D01*
X23923387Y-38839511D01*
X23923384Y-38839513D01*
X23839513Y-38923384D01*
X23839511Y-38923387D01*
X23780201Y-39026114D01*
X23749500Y-39140691D01*
X22510500Y-39140691D01*
X22510500Y-38240691D01*
X28949500Y-38240691D01*
X28949500Y-38359309D01*
X28980201Y-38473886D01*
X29039511Y-38576613D01*
X29123387Y-38660489D01*
X29226114Y-38719799D01*
X29340691Y-38750500D01*
X29340694Y-38750500D01*
X29459306Y-38750500D01*
X29459309Y-38750500D01*
X29573886Y-38719799D01*
X29676613Y-38660489D01*
X29760489Y-38576613D01*
X29819799Y-38473886D01*
X29850500Y-38359309D01*
X29850500Y-38240691D01*
X29819799Y-38126114D01*
X29760489Y-38023387D01*
X29676613Y-37939511D01*
X29573886Y-37880201D01*
X29459309Y-37849500D01*
X29340691Y-37849500D01*
X29226114Y-37880201D01*
X29226112Y-37880201D01*
X29226112Y-37880202D01*
X29123387Y-37939511D01*
X29123384Y-37939513D01*
X29039513Y-38023384D01*
X29039511Y-38023387D01*
X28980201Y-38126114D01*
X28949500Y-38240691D01*
X22510500Y-38240691D01*
X22510500Y-37240691D01*
X26549500Y-37240691D01*
X26549500Y-37359309D01*
X26580201Y-37473886D01*
X26639511Y-37576613D01*
X26723387Y-37660489D01*
X26826114Y-37719799D01*
X26940691Y-37750500D01*
X26940694Y-37750500D01*
X27059306Y-37750500D01*
X27059309Y-37750500D01*
X27173886Y-37719799D01*
X27276613Y-37660489D01*
X27360489Y-37576613D01*
X27419799Y-37473886D01*
X27450500Y-37359309D01*
X27450500Y-37240691D01*
X27419799Y-37126114D01*
X27360489Y-37023387D01*
X27276613Y-36939511D01*
X27173886Y-36880201D01*
X27059309Y-36849500D01*
X26940691Y-36849500D01*
X26826114Y-36880201D01*
X26826112Y-36880201D01*
X26826112Y-36880202D01*
X26723387Y-36939511D01*
X26723384Y-36939513D01*
X26639513Y-37023384D01*
X26639511Y-37023387D01*
X26580201Y-37126114D01*
X26549500Y-37240691D01*
X22510500Y-37240691D01*
X22510500Y-35540691D01*
X27649500Y-35540691D01*
X27649500Y-35659309D01*
X27680201Y-35773886D01*
X27739511Y-35876613D01*
X27823387Y-35960489D01*
X27926114Y-36019799D01*
X28040691Y-36050500D01*
X28040694Y-36050500D01*
X28159306Y-36050500D01*
X28159309Y-36050500D01*
X28273886Y-36019799D01*
X28376613Y-35960489D01*
X28384947Y-35952155D01*
X30495000Y-35952155D01*
X30495000Y-36250000D01*
X31245000Y-36250000D01*
X31245000Y-35500000D01*
X30947155Y-35500000D01*
X30887627Y-35506401D01*
X30887620Y-35506403D01*
X30752913Y-35556645D01*
X30752906Y-35556649D01*
X30637812Y-35642809D01*
X30637809Y-35642812D01*
X30551649Y-35757906D01*
X30551645Y-35757913D01*
X30501403Y-35892620D01*
X30501401Y-35892627D01*
X30495000Y-35952155D01*
X28384947Y-35952155D01*
X28460489Y-35876613D01*
X28519799Y-35773886D01*
X28550500Y-35659309D01*
X28550500Y-35540691D01*
X28519799Y-35426114D01*
X28460489Y-35323387D01*
X28376613Y-35239511D01*
X28273886Y-35180201D01*
X28159309Y-35149500D01*
X28040691Y-35149500D01*
X27926114Y-35180201D01*
X27926112Y-35180201D01*
X27926112Y-35180202D01*
X27823387Y-35239511D01*
X27823384Y-35239513D01*
X27739513Y-35323384D01*
X27739511Y-35323387D01*
X27680201Y-35426114D01*
X27649500Y-35540691D01*
X22510500Y-35540691D01*
X22510500Y-34493192D01*
X31802001Y-34493192D01*
X31802001Y-34611810D01*
X31832702Y-34726387D01*
X31892012Y-34829114D01*
X31975888Y-34912990D01*
X32078615Y-34972300D01*
X32193192Y-35003001D01*
X32193195Y-35003001D01*
X32311807Y-35003001D01*
X32311810Y-35003001D01*
X32426387Y-34972300D01*
X32529114Y-34912990D01*
X32612990Y-34829114D01*
X32672300Y-34726387D01*
X32703001Y-34611810D01*
X32703001Y-34493192D01*
X32672300Y-34378615D01*
X32650404Y-34340691D01*
X33149500Y-34340691D01*
X33149500Y-34459309D01*
X33180201Y-34573886D01*
X33239511Y-34676613D01*
X33323387Y-34760489D01*
X33426114Y-34819799D01*
X33540691Y-34850500D01*
X33540694Y-34850500D01*
X33659306Y-34850500D01*
X33659309Y-34850500D01*
X33773886Y-34819799D01*
X33876613Y-34760489D01*
X33960489Y-34676613D01*
X34019799Y-34573886D01*
X34050500Y-34459309D01*
X34050500Y-34340691D01*
X34019799Y-34226114D01*
X33960489Y-34123387D01*
X33877793Y-34040691D01*
X35349500Y-34040691D01*
X35349500Y-34159309D01*
X35380201Y-34273886D01*
X35439511Y-34376613D01*
X35523387Y-34460489D01*
X35626114Y-34519799D01*
X35740691Y-34550500D01*
X35740694Y-34550500D01*
X35859306Y-34550500D01*
X35859309Y-34550500D01*
X35973886Y-34519799D01*
X36076613Y-34460489D01*
X36160489Y-34376613D01*
X36219799Y-34273886D01*
X36250500Y-34159309D01*
X36250500Y-34040691D01*
X36219799Y-33926114D01*
X36160489Y-33823387D01*
X36076613Y-33739511D01*
X35973886Y-33680201D01*
X35859309Y-33649500D01*
X35740691Y-33649500D01*
X35626114Y-33680201D01*
X35626112Y-33680201D01*
X35626112Y-33680202D01*
X35523387Y-33739511D01*
X35523384Y-33739513D01*
X35439513Y-33823384D01*
X35439511Y-33823387D01*
X35380201Y-33926114D01*
X35349500Y-34040691D01*
X33877793Y-34040691D01*
X33876613Y-34039511D01*
X33773886Y-33980201D01*
X33659309Y-33949500D01*
X33540691Y-33949500D01*
X33426114Y-33980201D01*
X33426112Y-33980201D01*
X33426112Y-33980202D01*
X33323387Y-34039511D01*
X33323384Y-34039513D01*
X33239513Y-34123384D01*
X33239511Y-34123387D01*
X33180201Y-34226114D01*
X33149500Y-34340691D01*
X32650404Y-34340691D01*
X32612990Y-34275888D01*
X32529114Y-34192012D01*
X32426387Y-34132702D01*
X32311810Y-34102001D01*
X32193192Y-34102001D01*
X32078615Y-34132702D01*
X32078613Y-34132702D01*
X32078613Y-34132703D01*
X31975888Y-34192012D01*
X31975885Y-34192014D01*
X31892014Y-34275885D01*
X31892012Y-34275888D01*
X31832702Y-34378615D01*
X31802001Y-34493192D01*
X22510500Y-34493192D01*
X22510500Y-32040691D01*
X31149500Y-32040691D01*
X31149500Y-32159309D01*
X31180201Y-32273886D01*
X31239511Y-32376613D01*
X31323387Y-32460489D01*
X31426114Y-32519799D01*
X31540691Y-32550500D01*
X31540694Y-32550500D01*
X31659306Y-32550500D01*
X31659309Y-32550500D01*
X31773886Y-32519799D01*
X31876613Y-32460489D01*
X31896411Y-32440691D01*
X32849500Y-32440691D01*
X32849500Y-32559309D01*
X32880201Y-32673886D01*
X32939511Y-32776613D01*
X33023387Y-32860489D01*
X33126114Y-32919799D01*
X33240691Y-32950500D01*
X33240694Y-32950500D01*
X33359306Y-32950500D01*
X33359309Y-32950500D01*
X33473886Y-32919799D01*
X33576613Y-32860489D01*
X33660489Y-32776613D01*
X33719799Y-32673886D01*
X33750500Y-32559309D01*
X33750500Y-32440691D01*
X33719799Y-32326114D01*
X33660489Y-32223387D01*
X33576613Y-32139511D01*
X33473886Y-32080201D01*
X33359309Y-32049500D01*
X33240691Y-32049500D01*
X33126114Y-32080201D01*
X33126112Y-32080201D01*
X33126112Y-32080202D01*
X33023387Y-32139511D01*
X33023384Y-32139513D01*
X32939513Y-32223384D01*
X32939511Y-32223387D01*
X32910355Y-32273887D01*
X32880201Y-32326114D01*
X32849500Y-32440691D01*
X31896411Y-32440691D01*
X31960489Y-32376613D01*
X32019799Y-32273886D01*
X32050500Y-32159309D01*
X32050500Y-32040691D01*
X32019799Y-31926114D01*
X31960489Y-31823387D01*
X31876613Y-31739511D01*
X31773886Y-31680201D01*
X31659309Y-31649500D01*
X31540691Y-31649500D01*
X31426114Y-31680201D01*
X31426112Y-31680201D01*
X31426112Y-31680202D01*
X31323387Y-31739511D01*
X31323384Y-31739513D01*
X31239513Y-31823384D01*
X31239511Y-31823387D01*
X31180201Y-31926114D01*
X31149500Y-32040691D01*
X22510500Y-32040691D01*
X22510500Y-29756092D01*
X22511097Y-29743939D01*
X22517877Y-29675097D01*
X22523512Y-29617880D01*
X22528251Y-29594054D01*
X22563248Y-29478683D01*
X22572546Y-29456238D01*
X22629374Y-29349921D01*
X22642870Y-29329721D01*
X22719350Y-29236530D01*
X22736529Y-29219351D01*
X22829721Y-29142870D01*
X22849921Y-29129373D01*
X22956238Y-29072546D01*
X22978682Y-29063248D01*
X23094053Y-29028251D01*
X23117878Y-29023512D01*
X23226582Y-29012805D01*
X23243919Y-29011098D01*
X23256073Y-29010501D01*
X23304766Y-29010501D01*
X23304775Y-29010500D01*
X24972866Y-29010500D01*
X25039905Y-29030185D01*
G37*
%TD.AperFunction*%
%TD*%
M02*
