%TF.GenerationSoftware,KiCad,Pcbnew,7.0.2-6a45011f42~172~ubuntu22.04.1*%
%TF.CreationDate,2023-05-08T22:23:15+01:00*%
%TF.ProjectId,panel,70616e65-6c2e-46b6-9963-61645f706362,rev?*%
%TF.SameCoordinates,Original*%
%TF.FileFunction,Copper,L1,Top*%
%TF.FilePolarity,Positive*%
%FSLAX46Y46*%
G04 Gerber Fmt 4.6, Leading zero omitted, Abs format (unit mm)*
G04 Created by KiCad (PCBNEW 7.0.2-6a45011f42~172~ubuntu22.04.1) date 2023-05-08 22:23:15*
%MOMM*%
%LPD*%
G01*
G04 APERTURE LIST*
G04 Aperture macros list*
%AMRoundRect*
0 Rectangle with rounded corners*
0 $1 Rounding radius*
0 $2 $3 $4 $5 $6 $7 $8 $9 X,Y pos of 4 corners*
0 Add a 4 corners polygon primitive as box body*
4,1,4,$2,$3,$4,$5,$6,$7,$8,$9,$2,$3,0*
0 Add four circle primitives for the rounded corners*
1,1,$1+$1,$2,$3*
1,1,$1+$1,$4,$5*
1,1,$1+$1,$6,$7*
1,1,$1+$1,$8,$9*
0 Add four rect primitives between the rounded corners*
20,1,$1+$1,$2,$3,$4,$5,0*
20,1,$1+$1,$4,$5,$6,$7,0*
20,1,$1+$1,$6,$7,$8,$9,0*
20,1,$1+$1,$8,$9,$2,$3,0*%
G04 Aperture macros list end*
%TA.AperFunction,SMDPad,CuDef*%
%ADD10C,1.000000*%
%TD*%
%TA.AperFunction,SMDPad,CuDef*%
%ADD11RoundRect,0.140000X-0.140000X-0.170000X0.140000X-0.170000X0.140000X0.170000X-0.140000X0.170000X0*%
%TD*%
%TA.AperFunction,SMDPad,CuDef*%
%ADD12R,0.500000X1.600000*%
%TD*%
%TA.AperFunction,SMDPad,CuDef*%
%ADD13R,1.500000X2.900000*%
%TD*%
%TA.AperFunction,SMDPad,CuDef*%
%ADD14RoundRect,0.140000X0.170000X-0.140000X0.170000X0.140000X-0.170000X0.140000X-0.170000X-0.140000X0*%
%TD*%
%TA.AperFunction,SMDPad,CuDef*%
%ADD15C,3.000000*%
%TD*%
%TA.AperFunction,SMDPad,CuDef*%
%ADD16RoundRect,0.140000X0.140000X0.170000X-0.140000X0.170000X-0.140000X-0.170000X0.140000X-0.170000X0*%
%TD*%
%TA.AperFunction,SMDPad,CuDef*%
%ADD17RoundRect,0.140000X-0.170000X0.140000X-0.170000X-0.140000X0.170000X-0.140000X0.170000X0.140000X0*%
%TD*%
%TA.AperFunction,SMDPad,CuDef*%
%ADD18R,0.700000X0.700000*%
%TD*%
%TA.AperFunction,SMDPad,CuDef*%
%ADD19RoundRect,0.050000X0.375000X0.050000X-0.375000X0.050000X-0.375000X-0.050000X0.375000X-0.050000X0*%
%TD*%
%TA.AperFunction,SMDPad,CuDef*%
%ADD20RoundRect,0.050000X0.050000X0.375000X-0.050000X0.375000X-0.050000X-0.375000X0.050000X-0.375000X0*%
%TD*%
%TA.AperFunction,SMDPad,CuDef*%
%ADD21R,1.400000X1.400000*%
%TD*%
%TA.AperFunction,SMDPad,CuDef*%
%ADD22R,0.250000X0.600000*%
%TD*%
%TA.AperFunction,SMDPad,CuDef*%
%ADD23R,0.600000X0.250000*%
%TD*%
%TA.AperFunction,SMDPad,CuDef*%
%ADD24R,3.600000X3.600000*%
%TD*%
%TA.AperFunction,SMDPad,CuDef*%
%ADD25RoundRect,0.237500X0.237500X0.362500X-0.237500X0.362500X-0.237500X-0.362500X0.237500X-0.362500X0*%
%TD*%
%TA.AperFunction,SMDPad,CuDef*%
%ADD26RoundRect,0.237500X-0.237500X0.362500X-0.237500X-0.362500X0.237500X-0.362500X0.237500X0.362500X0*%
%TD*%
%TA.AperFunction,ViaPad*%
%ADD27C,0.400000*%
%TD*%
%TA.AperFunction,Conductor*%
%ADD28C,0.127000*%
%TD*%
%TA.AperFunction,Conductor*%
%ADD29C,0.100000*%
%TD*%
G04 APERTURE END LIST*
D10*
%TO.P,TP9,1,1*%
%TO.N,Board_3-OUT3*%
X40500002Y-46000000D03*
%TD*%
D11*
%TO.P,R1,1*%
%TO.N,Board_0-Net-(U1-RLDINV)*%
X22150000Y-22070000D03*
%TO.P,R1,2*%
%TO.N,Board_0-Net-(U1-CMOUT)*%
X23110000Y-22070000D03*
%TD*%
D12*
%TO.P,J2,1,1*%
%TO.N,Board_1-+3.3V*%
X51250001Y-17300000D03*
%TO.P,J2,2,2*%
%TO.N,Board_1-+5VA*%
X50750001Y-19700000D03*
%TO.P,J2,3,3*%
%TO.N,Board_1-DOUT*%
X50250001Y-17300000D03*
%TO.P,J2,4,4*%
%TO.N,Board_1-GND*%
X49750001Y-19700000D03*
%TO.P,J2,5,5*%
%TO.N,Board_1-DIN*%
X49250001Y-17300000D03*
%TO.P,J2,6,6*%
%TO.N,Board_1-AUX2*%
X48750001Y-19700000D03*
%TO.P,J2,7,7*%
%TO.N,Board_1-SCLK*%
X48250001Y-17300000D03*
%TO.P,J2,8,8*%
%TO.N,Board_1-AUX1*%
X47750001Y-19700000D03*
%TO.P,J2,9,9*%
%TO.N,Board_1-GND*%
X47250001Y-17300000D03*
%TO.P,J2,10,10*%
%TO.N,Board_1-IN_ref*%
X46750001Y-19700000D03*
%TO.P,J2,11,11*%
%TO.N,Board_1-RESETB*%
X46250001Y-17300000D03*
%TO.P,J2,12,12*%
%TO.N,Board_1-I2C_SCL*%
X45750001Y-19700000D03*
%TO.P,J2,13,13*%
%TO.N,Board_1-I2C_SDA*%
X45250001Y-17300000D03*
%TO.P,J2,14,14*%
%TO.N,Board_1-ADD_OUT4*%
X44750001Y-19700000D03*
%TO.P,J2,15,15*%
%TO.N,Board_1-ADD_OUT3*%
X44250001Y-17300000D03*
%TO.P,J2,16,16*%
%TO.N,Board_1-ADD_OUT2*%
X43750001Y-19700000D03*
%TO.P,J2,17,17*%
%TO.N,Board_1-ADD_OUT1*%
X43250001Y-17300000D03*
%TO.P,J2,18,18*%
%TO.N,Board_1-LED_OUT*%
X42750001Y-19700000D03*
D13*
%TO.P,J2,19,sh1*%
%TO.N,Board_1-unconnected-(J2-sh1-Pad19)*%
X53000001Y-18500000D03*
%TO.P,J2,20,sh2*%
%TO.N,Board_1-unconnected-(J2-sh2-Pad20)*%
X41000001Y-18500000D03*
%TD*%
D12*
%TO.P,J1,1,1*%
%TO.N,Board_2-LED_IN*%
X18750000Y-52700001D03*
%TO.P,J1,2,2*%
%TO.N,Board_2-ADD_IN1*%
X19250000Y-50300001D03*
%TO.P,J1,3,3*%
%TO.N,Board_2-ADD_IN2*%
X19750000Y-52700001D03*
%TO.P,J1,4,4*%
%TO.N,Board_2-ADD_IN3*%
X20250000Y-50300001D03*
%TO.P,J1,5,5*%
%TO.N,Board_2-ADD_IN4*%
X20750000Y-52700001D03*
%TO.P,J1,6,6*%
%TO.N,Board_2-I2C_SDA*%
X21250000Y-50300001D03*
%TO.P,J1,7,7*%
%TO.N,Board_2-I2C_SCL*%
X21750000Y-52700001D03*
%TO.P,J1,8,8*%
%TO.N,Board_2-RESETB*%
X22250000Y-50300001D03*
%TO.P,J1,9,9*%
%TO.N,Board_2-IN_ref*%
X22750000Y-52700001D03*
%TO.P,J1,10,10*%
%TO.N,Board_2-GND*%
X23250000Y-50300001D03*
%TO.P,J1,11,11*%
%TO.N,Board_2-AUX1*%
X23750000Y-52700001D03*
%TO.P,J1,12,12*%
%TO.N,Board_2-SCLK*%
X24250000Y-50300001D03*
%TO.P,J1,13,13*%
%TO.N,Board_2-AUX2*%
X24750000Y-52700001D03*
%TO.P,J1,14,14*%
%TO.N,Board_2-DIN*%
X25250000Y-50300001D03*
%TO.P,J1,15,15*%
%TO.N,Board_2-GND*%
X25750000Y-52700001D03*
%TO.P,J1,16,16*%
%TO.N,Board_2-DOUT*%
X26250000Y-50300001D03*
%TO.P,J1,17,17*%
%TO.N,Board_2-+5VA*%
X26750000Y-52700001D03*
%TO.P,J1,18,18*%
%TO.N,Board_2-+3.3V*%
X27250000Y-50300001D03*
D13*
%TO.P,J1,19,sh1*%
%TO.N,Board_2-unconnected-(J1-sh1-Pad19)*%
X17000000Y-51500001D03*
%TO.P,J1,20,sh2*%
%TO.N,Board_2-unconnected-(J1-sh2-Pad20)*%
X29000000Y-51500001D03*
%TD*%
D12*
%TO.P,J2,1,1*%
%TO.N,Board_2-+3.3V*%
X27250000Y-37800001D03*
%TO.P,J2,2,2*%
%TO.N,Board_2-+5VA*%
X26750000Y-40200001D03*
%TO.P,J2,3,3*%
%TO.N,Board_2-DOUT*%
X26250000Y-37800001D03*
%TO.P,J2,4,4*%
%TO.N,Board_2-GND*%
X25750000Y-40200001D03*
%TO.P,J2,5,5*%
%TO.N,Board_2-DIN*%
X25250000Y-37800001D03*
%TO.P,J2,6,6*%
%TO.N,Board_2-AUX2*%
X24750000Y-40200001D03*
%TO.P,J2,7,7*%
%TO.N,Board_2-SCLK*%
X24250000Y-37800001D03*
%TO.P,J2,8,8*%
%TO.N,Board_2-AUX1*%
X23750000Y-40200001D03*
%TO.P,J2,9,9*%
%TO.N,Board_2-GND*%
X23250000Y-37800001D03*
%TO.P,J2,10,10*%
%TO.N,Board_2-IN_ref*%
X22750000Y-40200001D03*
%TO.P,J2,11,11*%
%TO.N,Board_2-RESETB*%
X22250000Y-37800001D03*
%TO.P,J2,12,12*%
%TO.N,Board_2-I2C_SCL*%
X21750000Y-40200001D03*
%TO.P,J2,13,13*%
%TO.N,Board_2-I2C_SDA*%
X21250000Y-37800001D03*
%TO.P,J2,14,14*%
%TO.N,Board_2-ADD_OUT4*%
X20750000Y-40200001D03*
%TO.P,J2,15,15*%
%TO.N,Board_2-ADD_OUT3*%
X20250000Y-37800001D03*
%TO.P,J2,16,16*%
%TO.N,Board_2-ADD_OUT2*%
X19750000Y-40200001D03*
%TO.P,J2,17,17*%
%TO.N,Board_2-ADD_OUT1*%
X19250000Y-37800001D03*
%TO.P,J2,18,18*%
%TO.N,Board_2-LED_OUT*%
X18750000Y-40200001D03*
D13*
%TO.P,J2,19,sh1*%
%TO.N,Board_2-unconnected-(J2-sh1-Pad19)*%
X29000000Y-39000001D03*
%TO.P,J2,20,sh2*%
%TO.N,Board_2-unconnected-(J2-sh2-Pad20)*%
X17000000Y-39000001D03*
%TD*%
D11*
%TO.P,C4,1*%
%TO.N,Board_3-Net-(U1-RLDINV)*%
X46700001Y-43560001D03*
%TO.P,C4,2*%
%TO.N,Board_3-Net-(U1-RLDOUT)*%
X47660001Y-43560001D03*
%TD*%
D10*
%TO.P,TP10,1,1*%
%TO.N,Board_1-GND*%
X39000001Y-29000000D03*
%TD*%
D11*
%TO.P,C6,1*%
%TO.N,Board_2-/cvref*%
X31250000Y-44100001D03*
%TO.P,C6,2*%
%TO.N,Board_2-GND*%
X32210000Y-44100001D03*
%TD*%
D10*
%TO.P,TP4,1,1*%
%TO.N,Board_1-I2C_SDA*%
X42500001Y-21500000D03*
%TD*%
%TO.P,TP5,1,1*%
%TO.N,Board_3-I2C_SCL*%
X44990001Y-42980001D03*
%TD*%
D14*
%TO.P,C7,1*%
%TO.N,Board_1-GND*%
X46650001Y-26000000D03*
%TO.P,C7,2*%
%TO.N,Board_1-/Vcap*%
X46650001Y-25040000D03*
%TD*%
D15*
%TO.P,I2,1,conn*%
%TO.N,Board_1-unconnected-(I2-conn-Pad1)*%
X56000001Y-32000000D03*
%TD*%
D14*
%TO.P,C7,1*%
%TO.N,Board_2-GND*%
X22650000Y-46500001D03*
%TO.P,C7,2*%
%TO.N,Board_2-/Vcap*%
X22650000Y-45540001D03*
%TD*%
D10*
%TO.P,TP10,1,1*%
%TO.N,Board_2-GND*%
X15000000Y-49500001D03*
%TD*%
%TO.P,TP12,1,1*%
%TO.N,Board_0-+3.3V*%
X17500000Y-23500000D03*
%TD*%
D16*
%TO.P,R4,1*%
%TO.N,Board_0-/sdo*%
X27680000Y-28320000D03*
%TO.P,R4,2*%
%TO.N,Board_0-DOUT*%
X26720000Y-28320000D03*
%TD*%
D11*
%TO.P,C2,1*%
%TO.N,Board_2-+3.3V*%
X30910000Y-49830001D03*
%TO.P,C2,2*%
%TO.N,Board_2-XTAL1*%
X31870000Y-49830001D03*
%TD*%
D16*
%TO.P,C8,1*%
%TO.N,Board_3-+3.3V*%
X53590001Y-48820001D03*
%TO.P,C8,2*%
%TO.N,Board_3-GND*%
X52630001Y-48820001D03*
%TD*%
D10*
%TO.P,TP1,1,1*%
%TO.N,Board_0-CS*%
X23000000Y-27500000D03*
%TD*%
D17*
%TO.P,C3,1*%
%TO.N,Board_1-Net-(U1-RLDIN)*%
X47630001Y-25050000D03*
%TO.P,C3,2*%
%TO.N,Board_1-GND*%
X47630001Y-26010000D03*
%TD*%
D16*
%TO.P,R4,1*%
%TO.N,Board_1-/sdo*%
X51680001Y-28320000D03*
%TO.P,R4,2*%
%TO.N,Board_1-DOUT*%
X50720001Y-28320000D03*
%TD*%
D10*
%TO.P,TP10,1,1*%
%TO.N,Board_0-GND*%
X15000000Y-29000000D03*
%TD*%
D11*
%TO.P,C4,1*%
%TO.N,Board_2-Net-(U1-RLDINV)*%
X22700000Y-43560001D03*
%TO.P,C4,2*%
%TO.N,Board_2-Net-(U1-RLDOUT)*%
X23660000Y-43560001D03*
%TD*%
D10*
%TO.P,TP12,1,1*%
%TO.N,Board_3-+3.3V*%
X41500001Y-44000001D03*
%TD*%
D14*
%TO.P,C7,1*%
%TO.N,Board_3-GND*%
X46650001Y-46500001D03*
%TO.P,C7,2*%
%TO.N,Board_3-/Vcap*%
X46650001Y-45540001D03*
%TD*%
D10*
%TO.P,TP9,1,1*%
%TO.N,Board_0-OUT3*%
X16500001Y-25499999D03*
%TD*%
%TO.P,TP6,1,1*%
%TO.N,Board_3-AUX1*%
X54200001Y-41790001D03*
%TD*%
%TO.P,TP6,1,1*%
%TO.N,Board_0-AUX1*%
X30200000Y-21290000D03*
%TD*%
D17*
%TO.P,C3,1*%
%TO.N,Board_0-Net-(U1-RLDIN)*%
X23630000Y-25050000D03*
%TO.P,C3,2*%
%TO.N,Board_0-GND*%
X23630000Y-26010000D03*
%TD*%
D11*
%TO.P,C6,1*%
%TO.N,Board_3-/cvref*%
X55250001Y-44100001D03*
%TO.P,C6,2*%
%TO.N,Board_3-GND*%
X56210001Y-44100001D03*
%TD*%
D15*
%TO.P,I1,1,conn*%
%TO.N,Board_3-unconnected-(I1-conn-Pad1)*%
X38000001Y-52500001D03*
%TD*%
D10*
%TO.P,TP1,1,1*%
%TO.N,Board_2-CS*%
X23000000Y-48000001D03*
%TD*%
%TO.P,REF\u002A\u002A,*%
%TO.N,*%
X61000000Y-3000000D03*
%TD*%
%TO.P,TP2,1,1*%
%TO.N,Board_3-OUT1*%
X41000001Y-48500001D03*
%TD*%
D11*
%TO.P,C2,1*%
%TO.N,Board_1-+3.3V*%
X54910001Y-29330000D03*
%TO.P,C2,2*%
%TO.N,Board_1-XTAL1*%
X55870001Y-29330000D03*
%TD*%
D10*
%TO.P,TP10,1,1*%
%TO.N,Board_3-GND*%
X39000001Y-49500001D03*
%TD*%
%TO.P,TP7,1,1*%
%TO.N,Board_3-RESETB*%
X39000002Y-44500001D03*
%TD*%
D18*
%TO.P,LED1,1,DO*%
%TO.N,Board_1-LED_OUT*%
X39150001Y-20485000D03*
%TO.P,LED1,2,GND*%
%TO.N,Board_1-GND*%
X38050001Y-20485000D03*
%TO.P,LED1,3,DI*%
%TO.N,Board_1-LED_IN*%
X38050001Y-22315000D03*
%TO.P,LED1,4,VDD*%
%TO.N,Board_1-+3.3V*%
X39150001Y-22315000D03*
%TD*%
D10*
%TO.P,TP4,1,1*%
%TO.N,Board_2-I2C_SDA*%
X18500000Y-42000001D03*
%TD*%
D11*
%TO.P,C2,1*%
%TO.N,Board_0-+3.3V*%
X30910000Y-29330000D03*
%TO.P,C2,2*%
%TO.N,Board_0-XTAL1*%
X31870000Y-29330000D03*
%TD*%
D19*
%TO.P,U2,1,RESETB*%
%TO.N,Board_3-RESETB*%
X45440001Y-47120001D03*
%TO.P,U2,2,GPIO*%
%TO.N,Board_3-CS*%
X45440001Y-46720001D03*
%TO.P,U2,3,GPIO*%
%TO.N,Board_3-ALARMB*%
X45440001Y-46320001D03*
%TO.P,U2,4,GND*%
%TO.N,Board_3-GND*%
X45440001Y-45920001D03*
%TO.P,U2,5,Vcap*%
%TO.N,Board_3-/Vcap*%
X45440001Y-45520001D03*
D20*
%TO.P,U2,6,AVCC*%
%TO.N,Board_3-+3.3V*%
X44790001Y-44870001D03*
%TO.P,U2,7,GPIO*%
%TO.N,Board_3-ADD_OUT4*%
X44390001Y-44870001D03*
%TO.P,U2,8,GPIO*%
%TO.N,Board_3-ADD_OUT3*%
X43990001Y-44870001D03*
%TO.P,U2,9,GPIO*%
%TO.N,Board_3-ADD_OUT2*%
X43590001Y-44870001D03*
%TO.P,U2,10,GPIO*%
%TO.N,Board_3-ADD_OUT1*%
X43190001Y-44870001D03*
D19*
%TO.P,U2,11,GPIO*%
%TO.N,Board_3-OUT3*%
X42540001Y-45520001D03*
%TO.P,U2,12,GPIO*%
%TO.N,Board_3-OUT2*%
X42540001Y-45920001D03*
%TO.P,U2,13,GPIO*%
%TO.N,Board_3-OUT1*%
X42540001Y-46320001D03*
%TO.P,U2,14,GPIO*%
%TO.N,Board_3-D_RDYB*%
X42540001Y-46720001D03*
%TO.P,U2,15,GPIO*%
%TO.N,Board_3-ADD_IN1*%
X42540001Y-47120001D03*
D20*
%TO.P,U2,16,GPIO*%
%TO.N,Board_3-ADD_IN2*%
X43190001Y-47770001D03*
%TO.P,U2,17,GPIO*%
%TO.N,Board_3-ADD_IN3*%
X43590001Y-47770001D03*
%TO.P,U2,18,GPIO*%
%TO.N,Board_3-ADD_IN4*%
X43990001Y-47770001D03*
%TO.P,U2,19,I2C_SDA*%
%TO.N,Board_3-I2C_SDA*%
X44390001Y-47770001D03*
%TO.P,U2,20,I2C_SCL*%
%TO.N,Board_3-I2C_SCL*%
X44790001Y-47770001D03*
D21*
%TO.P,U2,21,GPIO*%
%TO.N,Board_3-GND*%
X43990001Y-46320001D03*
%TD*%
D11*
%TO.P,R1,1*%
%TO.N,Board_3-Net-(U1-RLDINV)*%
X46150001Y-42570001D03*
%TO.P,R1,2*%
%TO.N,Board_3-Net-(U1-CMOUT)*%
X47110001Y-42570001D03*
%TD*%
%TO.P,R2,1*%
%TO.N,Board_3-Net-(U1-RLDINV)*%
X46700001Y-44540001D03*
%TO.P,R2,2*%
%TO.N,Board_3-Net-(U1-RLDOUT)*%
X47660001Y-44540001D03*
%TD*%
D10*
%TO.P,TP1,1,1*%
%TO.N,Board_3-CS*%
X47000001Y-48000001D03*
%TD*%
D15*
%TO.P,I2,1,conn*%
%TO.N,Board_0-unconnected-(I2-conn-Pad1)*%
X32000000Y-32000000D03*
%TD*%
D10*
%TO.P,TP12,1,1*%
%TO.N,Board_1-+3.3V*%
X41500001Y-23500000D03*
%TD*%
%TO.P,TP11,1,1*%
%TO.N,Board_2-+5VA*%
X32000000Y-41000001D03*
%TD*%
%TO.P,TP11,1,1*%
%TO.N,Board_1-+5VA*%
X56000001Y-20500000D03*
%TD*%
D12*
%TO.P,J1,1,1*%
%TO.N,Board_0-LED_IN*%
X18750000Y-32200000D03*
%TO.P,J1,2,2*%
%TO.N,Board_0-ADD_IN1*%
X19250000Y-29800000D03*
%TO.P,J1,3,3*%
%TO.N,Board_0-ADD_IN2*%
X19750000Y-32200000D03*
%TO.P,J1,4,4*%
%TO.N,Board_0-ADD_IN3*%
X20250000Y-29800000D03*
%TO.P,J1,5,5*%
%TO.N,Board_0-ADD_IN4*%
X20750000Y-32200000D03*
%TO.P,J1,6,6*%
%TO.N,Board_0-I2C_SDA*%
X21250000Y-29800000D03*
%TO.P,J1,7,7*%
%TO.N,Board_0-I2C_SCL*%
X21750000Y-32200000D03*
%TO.P,J1,8,8*%
%TO.N,Board_0-RESETB*%
X22250000Y-29800000D03*
%TO.P,J1,9,9*%
%TO.N,Board_0-IN_ref*%
X22750000Y-32200000D03*
%TO.P,J1,10,10*%
%TO.N,Board_0-GND*%
X23250000Y-29800000D03*
%TO.P,J1,11,11*%
%TO.N,Board_0-AUX1*%
X23750000Y-32200000D03*
%TO.P,J1,12,12*%
%TO.N,Board_0-SCLK*%
X24250000Y-29800000D03*
%TO.P,J1,13,13*%
%TO.N,Board_0-AUX2*%
X24750000Y-32200000D03*
%TO.P,J1,14,14*%
%TO.N,Board_0-DIN*%
X25250000Y-29800000D03*
%TO.P,J1,15,15*%
%TO.N,Board_0-GND*%
X25750000Y-32200000D03*
%TO.P,J1,16,16*%
%TO.N,Board_0-DOUT*%
X26250000Y-29800000D03*
%TO.P,J1,17,17*%
%TO.N,Board_0-+5VA*%
X26750000Y-32200000D03*
%TO.P,J1,18,18*%
%TO.N,Board_0-+3.3V*%
X27250000Y-29800000D03*
D13*
%TO.P,J1,19,sh1*%
%TO.N,Board_0-unconnected-(J1-sh1-Pad19)*%
X17000000Y-31000000D03*
%TO.P,J1,20,sh2*%
%TO.N,Board_0-unconnected-(J1-sh2-Pad20)*%
X29000000Y-31000000D03*
%TD*%
D11*
%TO.P,R2,1*%
%TO.N,Board_0-Net-(U1-RLDINV)*%
X22700000Y-24040000D03*
%TO.P,R2,2*%
%TO.N,Board_0-Net-(U1-RLDOUT)*%
X23660000Y-24040000D03*
%TD*%
D18*
%TO.P,LED1,1,DO*%
%TO.N,Board_2-LED_OUT*%
X15150000Y-40985001D03*
%TO.P,LED1,2,GND*%
%TO.N,Board_2-GND*%
X14050000Y-40985001D03*
%TO.P,LED1,3,DI*%
%TO.N,Board_2-LED_IN*%
X14050000Y-42815001D03*
%TO.P,LED1,4,VDD*%
%TO.N,Board_2-+3.3V*%
X15150000Y-42815001D03*
%TD*%
D10*
%TO.P,TP9,1,1*%
%TO.N,Board_1-OUT3*%
X40500002Y-25499999D03*
%TD*%
D15*
%TO.P,I4,1,conn*%
%TO.N,Board_0-unconnected-(I4-conn-Pad1)*%
X14000000Y-17500000D03*
%TD*%
D10*
%TO.P,REF\u002A\u002A,*%
%TO.N,*%
X9000000Y-3000000D03*
%TD*%
%TO.P,TP5,1,1*%
%TO.N,Board_0-I2C_SCL*%
X20990000Y-22480000D03*
%TD*%
%TO.P,REF\u002A\u002A,*%
%TO.N,*%
X9000000Y-67000000D03*
%TD*%
D15*
%TO.P,I2,1,conn*%
%TO.N,Board_2-unconnected-(I2-conn-Pad1)*%
X32000000Y-52500001D03*
%TD*%
D10*
%TO.P,TP6,1,1*%
%TO.N,Board_2-AUX1*%
X30200000Y-41790001D03*
%TD*%
D12*
%TO.P,J1,1,1*%
%TO.N,Board_3-LED_IN*%
X42750001Y-52700001D03*
%TO.P,J1,2,2*%
%TO.N,Board_3-ADD_IN1*%
X43250001Y-50300001D03*
%TO.P,J1,3,3*%
%TO.N,Board_3-ADD_IN2*%
X43750001Y-52700001D03*
%TO.P,J1,4,4*%
%TO.N,Board_3-ADD_IN3*%
X44250001Y-50300001D03*
%TO.P,J1,5,5*%
%TO.N,Board_3-ADD_IN4*%
X44750001Y-52700001D03*
%TO.P,J1,6,6*%
%TO.N,Board_3-I2C_SDA*%
X45250001Y-50300001D03*
%TO.P,J1,7,7*%
%TO.N,Board_3-I2C_SCL*%
X45750001Y-52700001D03*
%TO.P,J1,8,8*%
%TO.N,Board_3-RESETB*%
X46250001Y-50300001D03*
%TO.P,J1,9,9*%
%TO.N,Board_3-IN_ref*%
X46750001Y-52700001D03*
%TO.P,J1,10,10*%
%TO.N,Board_3-GND*%
X47250001Y-50300001D03*
%TO.P,J1,11,11*%
%TO.N,Board_3-AUX1*%
X47750001Y-52700001D03*
%TO.P,J1,12,12*%
%TO.N,Board_3-SCLK*%
X48250001Y-50300001D03*
%TO.P,J1,13,13*%
%TO.N,Board_3-AUX2*%
X48750001Y-52700001D03*
%TO.P,J1,14,14*%
%TO.N,Board_3-DIN*%
X49250001Y-50300001D03*
%TO.P,J1,15,15*%
%TO.N,Board_3-GND*%
X49750001Y-52700001D03*
%TO.P,J1,16,16*%
%TO.N,Board_3-DOUT*%
X50250001Y-50300001D03*
%TO.P,J1,17,17*%
%TO.N,Board_3-+5VA*%
X50750001Y-52700001D03*
%TO.P,J1,18,18*%
%TO.N,Board_3-+3.3V*%
X51250001Y-50300001D03*
D13*
%TO.P,J1,19,sh1*%
%TO.N,Board_3-unconnected-(J1-sh1-Pad19)*%
X41000001Y-51500001D03*
%TO.P,J1,20,sh2*%
%TO.N,Board_3-unconnected-(J1-sh2-Pad20)*%
X53000001Y-51500001D03*
%TD*%
D19*
%TO.P,U2,1,RESETB*%
%TO.N,Board_1-RESETB*%
X45440001Y-26620000D03*
%TO.P,U2,2,GPIO*%
%TO.N,Board_1-CS*%
X45440001Y-26220000D03*
%TO.P,U2,3,GPIO*%
%TO.N,Board_1-ALARMB*%
X45440001Y-25820000D03*
%TO.P,U2,4,GND*%
%TO.N,Board_1-GND*%
X45440001Y-25420000D03*
%TO.P,U2,5,Vcap*%
%TO.N,Board_1-/Vcap*%
X45440001Y-25020000D03*
D20*
%TO.P,U2,6,AVCC*%
%TO.N,Board_1-+3.3V*%
X44790001Y-24370000D03*
%TO.P,U2,7,GPIO*%
%TO.N,Board_1-ADD_OUT4*%
X44390001Y-24370000D03*
%TO.P,U2,8,GPIO*%
%TO.N,Board_1-ADD_OUT3*%
X43990001Y-24370000D03*
%TO.P,U2,9,GPIO*%
%TO.N,Board_1-ADD_OUT2*%
X43590001Y-24370000D03*
%TO.P,U2,10,GPIO*%
%TO.N,Board_1-ADD_OUT1*%
X43190001Y-24370000D03*
D19*
%TO.P,U2,11,GPIO*%
%TO.N,Board_1-OUT3*%
X42540001Y-25020000D03*
%TO.P,U2,12,GPIO*%
%TO.N,Board_1-OUT2*%
X42540001Y-25420000D03*
%TO.P,U2,13,GPIO*%
%TO.N,Board_1-OUT1*%
X42540001Y-25820000D03*
%TO.P,U2,14,GPIO*%
%TO.N,Board_1-D_RDYB*%
X42540001Y-26220000D03*
%TO.P,U2,15,GPIO*%
%TO.N,Board_1-ADD_IN1*%
X42540001Y-26620000D03*
D20*
%TO.P,U2,16,GPIO*%
%TO.N,Board_1-ADD_IN2*%
X43190001Y-27270000D03*
%TO.P,U2,17,GPIO*%
%TO.N,Board_1-ADD_IN3*%
X43590001Y-27270000D03*
%TO.P,U2,18,GPIO*%
%TO.N,Board_1-ADD_IN4*%
X43990001Y-27270000D03*
%TO.P,U2,19,I2C_SDA*%
%TO.N,Board_1-I2C_SDA*%
X44390001Y-27270000D03*
%TO.P,U2,20,I2C_SCL*%
%TO.N,Board_1-I2C_SCL*%
X44790001Y-27270000D03*
D21*
%TO.P,U2,21,GPIO*%
%TO.N,Board_1-GND*%
X43990001Y-25820000D03*
%TD*%
D22*
%TO.P,U1,1,IN1*%
%TO.N,Board_0-IN1*%
X28450000Y-22600000D03*
%TO.P,U1,2,IN2*%
%TO.N,Board_0-IN2*%
X27950001Y-22600000D03*
%TO.P,U1,3,IN3*%
%TO.N,Board_0-IN3*%
X27449999Y-22600000D03*
%TO.P,U1,4,IN4*%
%TO.N,Board_0-IN4*%
X26950000Y-22600000D03*
%TO.P,U1,5,IN5*%
%TO.N,Board_0-IN5*%
X26450001Y-22600000D03*
%TO.P,U1,6,IN6*%
%TO.N,Board_0-IN_ref*%
X25949999Y-22600000D03*
%TO.P,U1,7,WCT*%
%TO.N,Board_0-unconnected-(U1-WCT-Pad7)*%
X25450000Y-22600000D03*
D23*
%TO.P,U1,8,CMOUT*%
%TO.N,Board_0-Net-(U1-CMOUT)*%
X24550000Y-23500000D03*
%TO.P,U1,9,RLDOUT*%
%TO.N,Board_0-Net-(U1-RLDOUT)*%
X24550000Y-23999999D03*
%TO.P,U1,10,RLDINV*%
%TO.N,Board_0-Net-(U1-RLDINV)*%
X24550000Y-24500001D03*
%TO.P,U1,11,RLDIN*%
%TO.N,Board_0-Net-(U1-RLDIN)*%
X24550000Y-25000000D03*
%TO.P,U1,12,RLDREF*%
X24550000Y-25499999D03*
%TO.P,U1,13,SYNCB*%
%TO.N,Board_0-unconnected-(U1-SYNCB-Pad13)*%
X24550000Y-26000001D03*
%TO.P,U1,14,VSSIO*%
%TO.N,Board_0-GND*%
X24550000Y-26500000D03*
D22*
%TO.P,U1,15,ALARMB*%
%TO.N,Board_0-ALARMB*%
X25450000Y-27400000D03*
%TO.P,U1,16,CSB*%
%TO.N,Board_0-CS*%
X25949999Y-27400000D03*
%TO.P,U1,17,SCLK*%
%TO.N,Board_0-SCLK*%
X26450001Y-27400000D03*
%TO.P,U1,18,SDI*%
%TO.N,Board_0-DIN*%
X26950000Y-27400000D03*
%TO.P,U1,19,SDO*%
%TO.N,Board_0-/sdo*%
X27449999Y-27400000D03*
%TO.P,U1,20,DRDYB*%
%TO.N,Board_0-D_RDYB*%
X27950001Y-27400000D03*
%TO.P,U1,21,CLK*%
%TO.N,Board_0-unconnected-(U1-CLK-Pad21)*%
X28450000Y-27400000D03*
D23*
%TO.P,U1,22,VDDIO*%
%TO.N,Board_0-+3.3V*%
X29350000Y-26500000D03*
%TO.P,U1,23,XTAL1*%
%TO.N,Board_0-XTAL1*%
X29350000Y-26000001D03*
%TO.P,U1,24,XTAL2*%
%TO.N,Board_0-XTAL2*%
X29350000Y-25499999D03*
%TO.P,U1,25,RSTB*%
%TO.N,Board_0-unconnected-(U1-RSTB-Pad25)*%
X29350000Y-25000000D03*
%TO.P,U1,26,CVREF*%
%TO.N,Board_0-/cvref*%
X29350000Y-24500001D03*
%TO.P,U1,27,VSS*%
%TO.N,Board_0-GND*%
X29350000Y-23999999D03*
%TO.P,U1,28,VDD*%
%TO.N,Board_0-+5VA*%
X29350000Y-23500000D03*
D24*
%TO.P,U1,29,EPAD*%
%TO.N,Board_0-GND*%
X26950000Y-25000000D03*
%TD*%
D15*
%TO.P,I2,1,conn*%
%TO.N,Board_3-unconnected-(I2-conn-Pad1)*%
X56000001Y-52500001D03*
%TD*%
D17*
%TO.P,C5,1*%
%TO.N,Board_0-+5VA*%
X30300000Y-22440000D03*
%TO.P,C5,2*%
%TO.N,Board_0-GND*%
X30300000Y-23400000D03*
%TD*%
D16*
%TO.P,C1,1*%
%TO.N,Board_2-+3.3V*%
X31370000Y-45080001D03*
%TO.P,C1,2*%
%TO.N,Board_2-XTAL2*%
X30410000Y-45080001D03*
%TD*%
D15*
%TO.P,I4,1,conn*%
%TO.N,Board_3-unconnected-(I4-conn-Pad1)*%
X38000001Y-38000001D03*
%TD*%
D10*
%TO.P,TP3,1,1*%
%TO.N,Board_3-OUT2*%
X39000001Y-47500001D03*
%TD*%
%TO.P,TP4,1,1*%
%TO.N,Board_0-I2C_SDA*%
X18500000Y-21500000D03*
%TD*%
%TO.P,TP11,1,1*%
%TO.N,Board_0-+5VA*%
X32000000Y-20500000D03*
%TD*%
D16*
%TO.P,C8,1*%
%TO.N,Board_0-+3.3V*%
X29590000Y-28320000D03*
%TO.P,C8,2*%
%TO.N,Board_0-GND*%
X28630000Y-28320000D03*
%TD*%
D19*
%TO.P,U2,1,RESETB*%
%TO.N,Board_0-RESETB*%
X21440000Y-26620000D03*
%TO.P,U2,2,GPIO*%
%TO.N,Board_0-CS*%
X21440000Y-26220000D03*
%TO.P,U2,3,GPIO*%
%TO.N,Board_0-ALARMB*%
X21440000Y-25820000D03*
%TO.P,U2,4,GND*%
%TO.N,Board_0-GND*%
X21440000Y-25420000D03*
%TO.P,U2,5,Vcap*%
%TO.N,Board_0-/Vcap*%
X21440000Y-25020000D03*
D20*
%TO.P,U2,6,AVCC*%
%TO.N,Board_0-+3.3V*%
X20790000Y-24370000D03*
%TO.P,U2,7,GPIO*%
%TO.N,Board_0-ADD_OUT4*%
X20390000Y-24370000D03*
%TO.P,U2,8,GPIO*%
%TO.N,Board_0-ADD_OUT3*%
X19990000Y-24370000D03*
%TO.P,U2,9,GPIO*%
%TO.N,Board_0-ADD_OUT2*%
X19590000Y-24370000D03*
%TO.P,U2,10,GPIO*%
%TO.N,Board_0-ADD_OUT1*%
X19190000Y-24370000D03*
D19*
%TO.P,U2,11,GPIO*%
%TO.N,Board_0-OUT3*%
X18540000Y-25020000D03*
%TO.P,U2,12,GPIO*%
%TO.N,Board_0-OUT2*%
X18540000Y-25420000D03*
%TO.P,U2,13,GPIO*%
%TO.N,Board_0-OUT1*%
X18540000Y-25820000D03*
%TO.P,U2,14,GPIO*%
%TO.N,Board_0-D_RDYB*%
X18540000Y-26220000D03*
%TO.P,U2,15,GPIO*%
%TO.N,Board_0-ADD_IN1*%
X18540000Y-26620000D03*
D20*
%TO.P,U2,16,GPIO*%
%TO.N,Board_0-ADD_IN2*%
X19190000Y-27270000D03*
%TO.P,U2,17,GPIO*%
%TO.N,Board_0-ADD_IN3*%
X19590000Y-27270000D03*
%TO.P,U2,18,GPIO*%
%TO.N,Board_0-ADD_IN4*%
X19990000Y-27270000D03*
%TO.P,U2,19,I2C_SDA*%
%TO.N,Board_0-I2C_SDA*%
X20390000Y-27270000D03*
%TO.P,U2,20,I2C_SCL*%
%TO.N,Board_0-I2C_SCL*%
X20790000Y-27270000D03*
D21*
%TO.P,U2,21,GPIO*%
%TO.N,Board_0-GND*%
X19990000Y-25820000D03*
%TD*%
D16*
%TO.P,C8,1*%
%TO.N,Board_2-+3.3V*%
X29590000Y-48820001D03*
%TO.P,C8,2*%
%TO.N,Board_2-GND*%
X28630000Y-48820001D03*
%TD*%
D10*
%TO.P,TP1,1,1*%
%TO.N,Board_1-CS*%
X47000001Y-27500000D03*
%TD*%
D11*
%TO.P,R1,1*%
%TO.N,Board_2-Net-(U1-RLDINV)*%
X22150000Y-42570001D03*
%TO.P,R1,2*%
%TO.N,Board_2-Net-(U1-CMOUT)*%
X23110000Y-42570001D03*
%TD*%
D10*
%TO.P,TP2,1,1*%
%TO.N,Board_2-OUT1*%
X17000000Y-48500001D03*
%TD*%
D25*
%TO.P,XTAL1,1,EN*%
%TO.N,Board_2-+3.3V*%
X32305000Y-48460001D03*
%TO.P,XTAL1,2,GND*%
%TO.N,Board_2-GND*%
X32305000Y-46260001D03*
%TO.P,XTAL1,3,o*%
%TO.N,Board_2-XTAL2*%
X30555000Y-46260001D03*
D26*
%TO.P,XTAL1,4,i*%
%TO.N,Board_2-XTAL1*%
X30555000Y-48460001D03*
%TD*%
D10*
%TO.P,TP3,1,1*%
%TO.N,Board_0-OUT2*%
X15000000Y-27000000D03*
%TD*%
D25*
%TO.P,XTAL1,1,EN*%
%TO.N,Board_3-+3.3V*%
X56305001Y-48460001D03*
%TO.P,XTAL1,2,GND*%
%TO.N,Board_3-GND*%
X56305001Y-46260001D03*
%TO.P,XTAL1,3,o*%
%TO.N,Board_3-XTAL2*%
X54555001Y-46260001D03*
D26*
%TO.P,XTAL1,4,i*%
%TO.N,Board_3-XTAL1*%
X54555001Y-48460001D03*
%TD*%
D12*
%TO.P,J2,1,1*%
%TO.N,Board_0-+3.3V*%
X27250000Y-17300000D03*
%TO.P,J2,2,2*%
%TO.N,Board_0-+5VA*%
X26750000Y-19700000D03*
%TO.P,J2,3,3*%
%TO.N,Board_0-DOUT*%
X26250000Y-17300000D03*
%TO.P,J2,4,4*%
%TO.N,Board_0-GND*%
X25750000Y-19700000D03*
%TO.P,J2,5,5*%
%TO.N,Board_0-DIN*%
X25250000Y-17300000D03*
%TO.P,J2,6,6*%
%TO.N,Board_0-AUX2*%
X24750000Y-19700000D03*
%TO.P,J2,7,7*%
%TO.N,Board_0-SCLK*%
X24250000Y-17300000D03*
%TO.P,J2,8,8*%
%TO.N,Board_0-AUX1*%
X23750000Y-19700000D03*
%TO.P,J2,9,9*%
%TO.N,Board_0-GND*%
X23250000Y-17300000D03*
%TO.P,J2,10,10*%
%TO.N,Board_0-IN_ref*%
X22750000Y-19700000D03*
%TO.P,J2,11,11*%
%TO.N,Board_0-RESETB*%
X22250000Y-17300000D03*
%TO.P,J2,12,12*%
%TO.N,Board_0-I2C_SCL*%
X21750000Y-19700000D03*
%TO.P,J2,13,13*%
%TO.N,Board_0-I2C_SDA*%
X21250000Y-17300000D03*
%TO.P,J2,14,14*%
%TO.N,Board_0-ADD_OUT4*%
X20750000Y-19700000D03*
%TO.P,J2,15,15*%
%TO.N,Board_0-ADD_OUT3*%
X20250000Y-17300000D03*
%TO.P,J2,16,16*%
%TO.N,Board_0-ADD_OUT2*%
X19750000Y-19700000D03*
%TO.P,J2,17,17*%
%TO.N,Board_0-ADD_OUT1*%
X19250000Y-17300000D03*
%TO.P,J2,18,18*%
%TO.N,Board_0-LED_OUT*%
X18750000Y-19700000D03*
D13*
%TO.P,J2,19,sh1*%
%TO.N,Board_0-unconnected-(J2-sh1-Pad19)*%
X29000000Y-18500000D03*
%TO.P,J2,20,sh2*%
%TO.N,Board_0-unconnected-(J2-sh2-Pad20)*%
X17000000Y-18500000D03*
%TD*%
D10*
%TO.P,TP7,1,1*%
%TO.N,Board_1-RESETB*%
X39000002Y-24000000D03*
%TD*%
D22*
%TO.P,U1,1,IN1*%
%TO.N,Board_3-IN1*%
X52450001Y-43100001D03*
%TO.P,U1,2,IN2*%
%TO.N,Board_3-IN2*%
X51950002Y-43100001D03*
%TO.P,U1,3,IN3*%
%TO.N,Board_3-IN3*%
X51450000Y-43100001D03*
%TO.P,U1,4,IN4*%
%TO.N,Board_3-IN4*%
X50950001Y-43100001D03*
%TO.P,U1,5,IN5*%
%TO.N,Board_3-IN5*%
X50450002Y-43100001D03*
%TO.P,U1,6,IN6*%
%TO.N,Board_3-IN_ref*%
X49950000Y-43100001D03*
%TO.P,U1,7,WCT*%
%TO.N,Board_3-unconnected-(U1-WCT-Pad7)*%
X49450001Y-43100001D03*
D23*
%TO.P,U1,8,CMOUT*%
%TO.N,Board_3-Net-(U1-CMOUT)*%
X48550001Y-44000001D03*
%TO.P,U1,9,RLDOUT*%
%TO.N,Board_3-Net-(U1-RLDOUT)*%
X48550001Y-44500000D03*
%TO.P,U1,10,RLDINV*%
%TO.N,Board_3-Net-(U1-RLDINV)*%
X48550001Y-45000002D03*
%TO.P,U1,11,RLDIN*%
%TO.N,Board_3-Net-(U1-RLDIN)*%
X48550001Y-45500001D03*
%TO.P,U1,12,RLDREF*%
X48550001Y-46000000D03*
%TO.P,U1,13,SYNCB*%
%TO.N,Board_3-unconnected-(U1-SYNCB-Pad13)*%
X48550001Y-46500002D03*
%TO.P,U1,14,VSSIO*%
%TO.N,Board_3-GND*%
X48550001Y-47000001D03*
D22*
%TO.P,U1,15,ALARMB*%
%TO.N,Board_3-ALARMB*%
X49450001Y-47900001D03*
%TO.P,U1,16,CSB*%
%TO.N,Board_3-CS*%
X49950000Y-47900001D03*
%TO.P,U1,17,SCLK*%
%TO.N,Board_3-SCLK*%
X50450002Y-47900001D03*
%TO.P,U1,18,SDI*%
%TO.N,Board_3-DIN*%
X50950001Y-47900001D03*
%TO.P,U1,19,SDO*%
%TO.N,Board_3-/sdo*%
X51450000Y-47900001D03*
%TO.P,U1,20,DRDYB*%
%TO.N,Board_3-D_RDYB*%
X51950002Y-47900001D03*
%TO.P,U1,21,CLK*%
%TO.N,Board_3-unconnected-(U1-CLK-Pad21)*%
X52450001Y-47900001D03*
D23*
%TO.P,U1,22,VDDIO*%
%TO.N,Board_3-+3.3V*%
X53350001Y-47000001D03*
%TO.P,U1,23,XTAL1*%
%TO.N,Board_3-XTAL1*%
X53350001Y-46500002D03*
%TO.P,U1,24,XTAL2*%
%TO.N,Board_3-XTAL2*%
X53350001Y-46000000D03*
%TO.P,U1,25,RSTB*%
%TO.N,Board_3-unconnected-(U1-RSTB-Pad25)*%
X53350001Y-45500001D03*
%TO.P,U1,26,CVREF*%
%TO.N,Board_3-/cvref*%
X53350001Y-45000002D03*
%TO.P,U1,27,VSS*%
%TO.N,Board_3-GND*%
X53350001Y-44500000D03*
%TO.P,U1,28,VDD*%
%TO.N,Board_3-+5VA*%
X53350001Y-44000001D03*
D24*
%TO.P,U1,29,EPAD*%
%TO.N,Board_3-GND*%
X50950001Y-45500001D03*
%TD*%
D10*
%TO.P,TP11,1,1*%
%TO.N,Board_3-+5VA*%
X56000001Y-41000001D03*
%TD*%
D11*
%TO.P,C6,1*%
%TO.N,Board_1-/cvref*%
X55250001Y-23600000D03*
%TO.P,C6,2*%
%TO.N,Board_1-GND*%
X56210001Y-23600000D03*
%TD*%
D22*
%TO.P,U1,1,IN1*%
%TO.N,Board_2-IN1*%
X28450000Y-43100001D03*
%TO.P,U1,2,IN2*%
%TO.N,Board_2-IN2*%
X27950001Y-43100001D03*
%TO.P,U1,3,IN3*%
%TO.N,Board_2-IN3*%
X27449999Y-43100001D03*
%TO.P,U1,4,IN4*%
%TO.N,Board_2-IN4*%
X26950000Y-43100001D03*
%TO.P,U1,5,IN5*%
%TO.N,Board_2-IN5*%
X26450001Y-43100001D03*
%TO.P,U1,6,IN6*%
%TO.N,Board_2-IN_ref*%
X25949999Y-43100001D03*
%TO.P,U1,7,WCT*%
%TO.N,Board_2-unconnected-(U1-WCT-Pad7)*%
X25450000Y-43100001D03*
D23*
%TO.P,U1,8,CMOUT*%
%TO.N,Board_2-Net-(U1-CMOUT)*%
X24550000Y-44000001D03*
%TO.P,U1,9,RLDOUT*%
%TO.N,Board_2-Net-(U1-RLDOUT)*%
X24550000Y-44500000D03*
%TO.P,U1,10,RLDINV*%
%TO.N,Board_2-Net-(U1-RLDINV)*%
X24550000Y-45000002D03*
%TO.P,U1,11,RLDIN*%
%TO.N,Board_2-Net-(U1-RLDIN)*%
X24550000Y-45500001D03*
%TO.P,U1,12,RLDREF*%
X24550000Y-46000000D03*
%TO.P,U1,13,SYNCB*%
%TO.N,Board_2-unconnected-(U1-SYNCB-Pad13)*%
X24550000Y-46500002D03*
%TO.P,U1,14,VSSIO*%
%TO.N,Board_2-GND*%
X24550000Y-47000001D03*
D22*
%TO.P,U1,15,ALARMB*%
%TO.N,Board_2-ALARMB*%
X25450000Y-47900001D03*
%TO.P,U1,16,CSB*%
%TO.N,Board_2-CS*%
X25949999Y-47900001D03*
%TO.P,U1,17,SCLK*%
%TO.N,Board_2-SCLK*%
X26450001Y-47900001D03*
%TO.P,U1,18,SDI*%
%TO.N,Board_2-DIN*%
X26950000Y-47900001D03*
%TO.P,U1,19,SDO*%
%TO.N,Board_2-/sdo*%
X27449999Y-47900001D03*
%TO.P,U1,20,DRDYB*%
%TO.N,Board_2-D_RDYB*%
X27950001Y-47900001D03*
%TO.P,U1,21,CLK*%
%TO.N,Board_2-unconnected-(U1-CLK-Pad21)*%
X28450000Y-47900001D03*
D23*
%TO.P,U1,22,VDDIO*%
%TO.N,Board_2-+3.3V*%
X29350000Y-47000001D03*
%TO.P,U1,23,XTAL1*%
%TO.N,Board_2-XTAL1*%
X29350000Y-46500002D03*
%TO.P,U1,24,XTAL2*%
%TO.N,Board_2-XTAL2*%
X29350000Y-46000000D03*
%TO.P,U1,25,RSTB*%
%TO.N,Board_2-unconnected-(U1-RSTB-Pad25)*%
X29350000Y-45500001D03*
%TO.P,U1,26,CVREF*%
%TO.N,Board_2-/cvref*%
X29350000Y-45000002D03*
%TO.P,U1,27,VSS*%
%TO.N,Board_2-GND*%
X29350000Y-44500000D03*
%TO.P,U1,28,VDD*%
%TO.N,Board_2-+5VA*%
X29350000Y-44000001D03*
D24*
%TO.P,U1,29,EPAD*%
%TO.N,Board_2-GND*%
X26950000Y-45500001D03*
%TD*%
D11*
%TO.P,C4,1*%
%TO.N,Board_0-Net-(U1-RLDINV)*%
X22700000Y-23060000D03*
%TO.P,C4,2*%
%TO.N,Board_0-Net-(U1-RLDOUT)*%
X23660000Y-23060000D03*
%TD*%
D17*
%TO.P,C5,1*%
%TO.N,Board_1-+5VA*%
X54300001Y-22440000D03*
%TO.P,C5,2*%
%TO.N,Board_1-GND*%
X54300001Y-23400000D03*
%TD*%
D15*
%TO.P,I1,1,conn*%
%TO.N,Board_1-unconnected-(I1-conn-Pad1)*%
X38000001Y-32000000D03*
%TD*%
%TO.P,I3,1,conn*%
%TO.N,Board_0-unconnected-(I3-conn-Pad1)*%
X32000000Y-17500000D03*
%TD*%
D10*
%TO.P,TP8,1,1*%
%TO.N,Board_0-AUX2*%
X32070000Y-22470000D03*
%TD*%
D18*
%TO.P,LED1,1,DO*%
%TO.N,Board_0-LED_OUT*%
X15150000Y-20485000D03*
%TO.P,LED1,2,GND*%
%TO.N,Board_0-GND*%
X14050000Y-20485000D03*
%TO.P,LED1,3,DI*%
%TO.N,Board_0-LED_IN*%
X14050000Y-22315000D03*
%TO.P,LED1,4,VDD*%
%TO.N,Board_0-+3.3V*%
X15150000Y-22315000D03*
%TD*%
D16*
%TO.P,R4,1*%
%TO.N,Board_2-/sdo*%
X27680000Y-48820001D03*
%TO.P,R4,2*%
%TO.N,Board_2-DOUT*%
X26720000Y-48820001D03*
%TD*%
D10*
%TO.P,TP3,1,1*%
%TO.N,Board_2-OUT2*%
X15000000Y-47500001D03*
%TD*%
D17*
%TO.P,C3,1*%
%TO.N,Board_3-Net-(U1-RLDIN)*%
X47630001Y-45550001D03*
%TO.P,C3,2*%
%TO.N,Board_3-GND*%
X47630001Y-46510001D03*
%TD*%
D18*
%TO.P,LED1,1,DO*%
%TO.N,Board_3-LED_OUT*%
X39150001Y-40985001D03*
%TO.P,LED1,2,GND*%
%TO.N,Board_3-GND*%
X38050001Y-40985001D03*
%TO.P,LED1,3,DI*%
%TO.N,Board_3-LED_IN*%
X38050001Y-42815001D03*
%TO.P,LED1,4,VDD*%
%TO.N,Board_3-+3.3V*%
X39150001Y-42815001D03*
%TD*%
D15*
%TO.P,I4,1,conn*%
%TO.N,Board_1-unconnected-(I4-conn-Pad1)*%
X38000001Y-17500000D03*
%TD*%
D25*
%TO.P,XTAL1,1,EN*%
%TO.N,Board_1-+3.3V*%
X56305001Y-27960000D03*
%TO.P,XTAL1,2,GND*%
%TO.N,Board_1-GND*%
X56305001Y-25760000D03*
%TO.P,XTAL1,3,o*%
%TO.N,Board_1-XTAL2*%
X54555001Y-25760000D03*
D26*
%TO.P,XTAL1,4,i*%
%TO.N,Board_1-XTAL1*%
X54555001Y-27960000D03*
%TD*%
D10*
%TO.P,TP7,1,1*%
%TO.N,Board_2-RESETB*%
X15000001Y-44500001D03*
%TD*%
D15*
%TO.P,I1,1,conn*%
%TO.N,Board_0-unconnected-(I1-conn-Pad1)*%
X14000000Y-32000000D03*
%TD*%
D11*
%TO.P,R2,1*%
%TO.N,Board_2-Net-(U1-RLDINV)*%
X22700000Y-44540001D03*
%TO.P,R2,2*%
%TO.N,Board_2-Net-(U1-RLDOUT)*%
X23660000Y-44540001D03*
%TD*%
D22*
%TO.P,U1,1,IN1*%
%TO.N,Board_1-IN1*%
X52450001Y-22600000D03*
%TO.P,U1,2,IN2*%
%TO.N,Board_1-IN2*%
X51950002Y-22600000D03*
%TO.P,U1,3,IN3*%
%TO.N,Board_1-IN3*%
X51450000Y-22600000D03*
%TO.P,U1,4,IN4*%
%TO.N,Board_1-IN4*%
X50950001Y-22600000D03*
%TO.P,U1,5,IN5*%
%TO.N,Board_1-IN5*%
X50450002Y-22600000D03*
%TO.P,U1,6,IN6*%
%TO.N,Board_1-IN_ref*%
X49950000Y-22600000D03*
%TO.P,U1,7,WCT*%
%TO.N,Board_1-unconnected-(U1-WCT-Pad7)*%
X49450001Y-22600000D03*
D23*
%TO.P,U1,8,CMOUT*%
%TO.N,Board_1-Net-(U1-CMOUT)*%
X48550001Y-23500000D03*
%TO.P,U1,9,RLDOUT*%
%TO.N,Board_1-Net-(U1-RLDOUT)*%
X48550001Y-23999999D03*
%TO.P,U1,10,RLDINV*%
%TO.N,Board_1-Net-(U1-RLDINV)*%
X48550001Y-24500001D03*
%TO.P,U1,11,RLDIN*%
%TO.N,Board_1-Net-(U1-RLDIN)*%
X48550001Y-25000000D03*
%TO.P,U1,12,RLDREF*%
X48550001Y-25499999D03*
%TO.P,U1,13,SYNCB*%
%TO.N,Board_1-unconnected-(U1-SYNCB-Pad13)*%
X48550001Y-26000001D03*
%TO.P,U1,14,VSSIO*%
%TO.N,Board_1-GND*%
X48550001Y-26500000D03*
D22*
%TO.P,U1,15,ALARMB*%
%TO.N,Board_1-ALARMB*%
X49450001Y-27400000D03*
%TO.P,U1,16,CSB*%
%TO.N,Board_1-CS*%
X49950000Y-27400000D03*
%TO.P,U1,17,SCLK*%
%TO.N,Board_1-SCLK*%
X50450002Y-27400000D03*
%TO.P,U1,18,SDI*%
%TO.N,Board_1-DIN*%
X50950001Y-27400000D03*
%TO.P,U1,19,SDO*%
%TO.N,Board_1-/sdo*%
X51450000Y-27400000D03*
%TO.P,U1,20,DRDYB*%
%TO.N,Board_1-D_RDYB*%
X51950002Y-27400000D03*
%TO.P,U1,21,CLK*%
%TO.N,Board_1-unconnected-(U1-CLK-Pad21)*%
X52450001Y-27400000D03*
D23*
%TO.P,U1,22,VDDIO*%
%TO.N,Board_1-+3.3V*%
X53350001Y-26500000D03*
%TO.P,U1,23,XTAL1*%
%TO.N,Board_1-XTAL1*%
X53350001Y-26000001D03*
%TO.P,U1,24,XTAL2*%
%TO.N,Board_1-XTAL2*%
X53350001Y-25499999D03*
%TO.P,U1,25,RSTB*%
%TO.N,Board_1-unconnected-(U1-RSTB-Pad25)*%
X53350001Y-25000000D03*
%TO.P,U1,26,CVREF*%
%TO.N,Board_1-/cvref*%
X53350001Y-24500001D03*
%TO.P,U1,27,VSS*%
%TO.N,Board_1-GND*%
X53350001Y-23999999D03*
%TO.P,U1,28,VDD*%
%TO.N,Board_1-+5VA*%
X53350001Y-23500000D03*
D24*
%TO.P,U1,29,EPAD*%
%TO.N,Board_1-GND*%
X50950001Y-25000000D03*
%TD*%
D12*
%TO.P,J2,1,1*%
%TO.N,Board_3-+3.3V*%
X51250001Y-37800001D03*
%TO.P,J2,2,2*%
%TO.N,Board_3-+5VA*%
X50750001Y-40200001D03*
%TO.P,J2,3,3*%
%TO.N,Board_3-DOUT*%
X50250001Y-37800001D03*
%TO.P,J2,4,4*%
%TO.N,Board_3-GND*%
X49750001Y-40200001D03*
%TO.P,J2,5,5*%
%TO.N,Board_3-DIN*%
X49250001Y-37800001D03*
%TO.P,J2,6,6*%
%TO.N,Board_3-AUX2*%
X48750001Y-40200001D03*
%TO.P,J2,7,7*%
%TO.N,Board_3-SCLK*%
X48250001Y-37800001D03*
%TO.P,J2,8,8*%
%TO.N,Board_3-AUX1*%
X47750001Y-40200001D03*
%TO.P,J2,9,9*%
%TO.N,Board_3-GND*%
X47250001Y-37800001D03*
%TO.P,J2,10,10*%
%TO.N,Board_3-IN_ref*%
X46750001Y-40200001D03*
%TO.P,J2,11,11*%
%TO.N,Board_3-RESETB*%
X46250001Y-37800001D03*
%TO.P,J2,12,12*%
%TO.N,Board_3-I2C_SCL*%
X45750001Y-40200001D03*
%TO.P,J2,13,13*%
%TO.N,Board_3-I2C_SDA*%
X45250001Y-37800001D03*
%TO.P,J2,14,14*%
%TO.N,Board_3-ADD_OUT4*%
X44750001Y-40200001D03*
%TO.P,J2,15,15*%
%TO.N,Board_3-ADD_OUT3*%
X44250001Y-37800001D03*
%TO.P,J2,16,16*%
%TO.N,Board_3-ADD_OUT2*%
X43750001Y-40200001D03*
%TO.P,J2,17,17*%
%TO.N,Board_3-ADD_OUT1*%
X43250001Y-37800001D03*
%TO.P,J2,18,18*%
%TO.N,Board_3-LED_OUT*%
X42750001Y-40200001D03*
D13*
%TO.P,J2,19,sh1*%
%TO.N,Board_3-unconnected-(J2-sh1-Pad19)*%
X53000001Y-39000001D03*
%TO.P,J2,20,sh2*%
%TO.N,Board_3-unconnected-(J2-sh2-Pad20)*%
X41000001Y-39000001D03*
%TD*%
D17*
%TO.P,C5,1*%
%TO.N,Board_2-+5VA*%
X30300000Y-42940001D03*
%TO.P,C5,2*%
%TO.N,Board_2-GND*%
X30300000Y-43900001D03*
%TD*%
D10*
%TO.P,TP6,1,1*%
%TO.N,Board_1-AUX1*%
X54200001Y-21290000D03*
%TD*%
D12*
%TO.P,J1,1,1*%
%TO.N,Board_1-LED_IN*%
X42750001Y-32200000D03*
%TO.P,J1,2,2*%
%TO.N,Board_1-ADD_IN1*%
X43250001Y-29800000D03*
%TO.P,J1,3,3*%
%TO.N,Board_1-ADD_IN2*%
X43750001Y-32200000D03*
%TO.P,J1,4,4*%
%TO.N,Board_1-ADD_IN3*%
X44250001Y-29800000D03*
%TO.P,J1,5,5*%
%TO.N,Board_1-ADD_IN4*%
X44750001Y-32200000D03*
%TO.P,J1,6,6*%
%TO.N,Board_1-I2C_SDA*%
X45250001Y-29800000D03*
%TO.P,J1,7,7*%
%TO.N,Board_1-I2C_SCL*%
X45750001Y-32200000D03*
%TO.P,J1,8,8*%
%TO.N,Board_1-RESETB*%
X46250001Y-29800000D03*
%TO.P,J1,9,9*%
%TO.N,Board_1-IN_ref*%
X46750001Y-32200000D03*
%TO.P,J1,10,10*%
%TO.N,Board_1-GND*%
X47250001Y-29800000D03*
%TO.P,J1,11,11*%
%TO.N,Board_1-AUX1*%
X47750001Y-32200000D03*
%TO.P,J1,12,12*%
%TO.N,Board_1-SCLK*%
X48250001Y-29800000D03*
%TO.P,J1,13,13*%
%TO.N,Board_1-AUX2*%
X48750001Y-32200000D03*
%TO.P,J1,14,14*%
%TO.N,Board_1-DIN*%
X49250001Y-29800000D03*
%TO.P,J1,15,15*%
%TO.N,Board_1-GND*%
X49750001Y-32200000D03*
%TO.P,J1,16,16*%
%TO.N,Board_1-DOUT*%
X50250001Y-29800000D03*
%TO.P,J1,17,17*%
%TO.N,Board_1-+5VA*%
X50750001Y-32200000D03*
%TO.P,J1,18,18*%
%TO.N,Board_1-+3.3V*%
X51250001Y-29800000D03*
D13*
%TO.P,J1,19,sh1*%
%TO.N,Board_1-unconnected-(J1-sh1-Pad19)*%
X41000001Y-31000000D03*
%TO.P,J1,20,sh2*%
%TO.N,Board_1-unconnected-(J1-sh2-Pad20)*%
X53000001Y-31000000D03*
%TD*%
D16*
%TO.P,C1,1*%
%TO.N,Board_1-+3.3V*%
X55370001Y-24580000D03*
%TO.P,C1,2*%
%TO.N,Board_1-XTAL2*%
X54410001Y-24580000D03*
%TD*%
%TO.P,C1,1*%
%TO.N,Board_0-+3.3V*%
X31370000Y-24580000D03*
%TO.P,C1,2*%
%TO.N,Board_0-XTAL2*%
X30410000Y-24580000D03*
%TD*%
%TO.P,R4,1*%
%TO.N,Board_3-/sdo*%
X51680001Y-48820001D03*
%TO.P,R4,2*%
%TO.N,Board_3-DOUT*%
X50720001Y-48820001D03*
%TD*%
D10*
%TO.P,TP5,1,1*%
%TO.N,Board_2-I2C_SCL*%
X20990000Y-42980001D03*
%TD*%
%TO.P,TP3,1,1*%
%TO.N,Board_1-OUT2*%
X39000001Y-27000000D03*
%TD*%
%TO.P,TP8,1,1*%
%TO.N,Board_1-AUX2*%
X56070001Y-22470000D03*
%TD*%
D16*
%TO.P,C8,1*%
%TO.N,Board_1-+3.3V*%
X53590001Y-28320000D03*
%TO.P,C8,2*%
%TO.N,Board_1-GND*%
X52630001Y-28320000D03*
%TD*%
D10*
%TO.P,TP12,1,1*%
%TO.N,Board_2-+3.3V*%
X17500000Y-44000001D03*
%TD*%
D15*
%TO.P,I4,1,conn*%
%TO.N,Board_2-unconnected-(I4-conn-Pad1)*%
X14000000Y-38000001D03*
%TD*%
D10*
%TO.P,TP8,1,1*%
%TO.N,Board_3-AUX2*%
X56070001Y-42970001D03*
%TD*%
D11*
%TO.P,R2,1*%
%TO.N,Board_1-Net-(U1-RLDINV)*%
X46700001Y-24040000D03*
%TO.P,R2,2*%
%TO.N,Board_1-Net-(U1-RLDOUT)*%
X47660001Y-24040000D03*
%TD*%
%TO.P,C2,1*%
%TO.N,Board_3-+3.3V*%
X54910001Y-49830001D03*
%TO.P,C2,2*%
%TO.N,Board_3-XTAL1*%
X55870001Y-49830001D03*
%TD*%
D25*
%TO.P,XTAL1,1,EN*%
%TO.N,Board_0-+3.3V*%
X32305000Y-27960000D03*
%TO.P,XTAL1,2,GND*%
%TO.N,Board_0-GND*%
X32305000Y-25760000D03*
%TO.P,XTAL1,3,o*%
%TO.N,Board_0-XTAL2*%
X30555000Y-25760000D03*
D26*
%TO.P,XTAL1,4,i*%
%TO.N,Board_0-XTAL1*%
X30555000Y-27960000D03*
%TD*%
D11*
%TO.P,C4,1*%
%TO.N,Board_1-Net-(U1-RLDINV)*%
X46700001Y-23060000D03*
%TO.P,C4,2*%
%TO.N,Board_1-Net-(U1-RLDOUT)*%
X47660001Y-23060000D03*
%TD*%
D14*
%TO.P,C7,1*%
%TO.N,Board_0-GND*%
X22650000Y-26000000D03*
%TO.P,C7,2*%
%TO.N,Board_0-/Vcap*%
X22650000Y-25040000D03*
%TD*%
D10*
%TO.P,TP9,1,1*%
%TO.N,Board_2-OUT3*%
X16500001Y-46000000D03*
%TD*%
D15*
%TO.P,I3,1,conn*%
%TO.N,Board_3-unconnected-(I3-conn-Pad1)*%
X56000001Y-38000001D03*
%TD*%
D17*
%TO.P,C5,1*%
%TO.N,Board_3-+5VA*%
X54300001Y-42940001D03*
%TO.P,C5,2*%
%TO.N,Board_3-GND*%
X54300001Y-43900001D03*
%TD*%
D15*
%TO.P,I3,1,conn*%
%TO.N,Board_1-unconnected-(I3-conn-Pad1)*%
X56000001Y-17500000D03*
%TD*%
D10*
%TO.P,TP4,1,1*%
%TO.N,Board_3-I2C_SDA*%
X42500001Y-42000001D03*
%TD*%
D15*
%TO.P,I3,1,conn*%
%TO.N,Board_2-unconnected-(I3-conn-Pad1)*%
X32000000Y-38000001D03*
%TD*%
D11*
%TO.P,R1,1*%
%TO.N,Board_1-Net-(U1-RLDINV)*%
X46150001Y-22070000D03*
%TO.P,R1,2*%
%TO.N,Board_1-Net-(U1-CMOUT)*%
X47110001Y-22070000D03*
%TD*%
D15*
%TO.P,I1,1,conn*%
%TO.N,Board_2-unconnected-(I1-conn-Pad1)*%
X14000000Y-52500001D03*
%TD*%
D10*
%TO.P,TP7,1,1*%
%TO.N,Board_0-RESETB*%
X15000001Y-24000000D03*
%TD*%
D17*
%TO.P,C3,1*%
%TO.N,Board_2-Net-(U1-RLDIN)*%
X23630000Y-45550001D03*
%TO.P,C3,2*%
%TO.N,Board_2-GND*%
X23630000Y-46510001D03*
%TD*%
D19*
%TO.P,U2,1,RESETB*%
%TO.N,Board_2-RESETB*%
X21440000Y-47120001D03*
%TO.P,U2,2,GPIO*%
%TO.N,Board_2-CS*%
X21440000Y-46720001D03*
%TO.P,U2,3,GPIO*%
%TO.N,Board_2-ALARMB*%
X21440000Y-46320001D03*
%TO.P,U2,4,GND*%
%TO.N,Board_2-GND*%
X21440000Y-45920001D03*
%TO.P,U2,5,Vcap*%
%TO.N,Board_2-/Vcap*%
X21440000Y-45520001D03*
D20*
%TO.P,U2,6,AVCC*%
%TO.N,Board_2-+3.3V*%
X20790000Y-44870001D03*
%TO.P,U2,7,GPIO*%
%TO.N,Board_2-ADD_OUT4*%
X20390000Y-44870001D03*
%TO.P,U2,8,GPIO*%
%TO.N,Board_2-ADD_OUT3*%
X19990000Y-44870001D03*
%TO.P,U2,9,GPIO*%
%TO.N,Board_2-ADD_OUT2*%
X19590000Y-44870001D03*
%TO.P,U2,10,GPIO*%
%TO.N,Board_2-ADD_OUT1*%
X19190000Y-44870001D03*
D19*
%TO.P,U2,11,GPIO*%
%TO.N,Board_2-OUT3*%
X18540000Y-45520001D03*
%TO.P,U2,12,GPIO*%
%TO.N,Board_2-OUT2*%
X18540000Y-45920001D03*
%TO.P,U2,13,GPIO*%
%TO.N,Board_2-OUT1*%
X18540000Y-46320001D03*
%TO.P,U2,14,GPIO*%
%TO.N,Board_2-D_RDYB*%
X18540000Y-46720001D03*
%TO.P,U2,15,GPIO*%
%TO.N,Board_2-ADD_IN1*%
X18540000Y-47120001D03*
D20*
%TO.P,U2,16,GPIO*%
%TO.N,Board_2-ADD_IN2*%
X19190000Y-47770001D03*
%TO.P,U2,17,GPIO*%
%TO.N,Board_2-ADD_IN3*%
X19590000Y-47770001D03*
%TO.P,U2,18,GPIO*%
%TO.N,Board_2-ADD_IN4*%
X19990000Y-47770001D03*
%TO.P,U2,19,I2C_SDA*%
%TO.N,Board_2-I2C_SDA*%
X20390000Y-47770001D03*
%TO.P,U2,20,I2C_SCL*%
%TO.N,Board_2-I2C_SCL*%
X20790000Y-47770001D03*
D21*
%TO.P,U2,21,GPIO*%
%TO.N,Board_2-GND*%
X19990000Y-46320001D03*
%TD*%
D10*
%TO.P,TP2,1,1*%
%TO.N,Board_1-OUT1*%
X41000001Y-28000000D03*
%TD*%
%TO.P,TP5,1,1*%
%TO.N,Board_1-I2C_SCL*%
X44990001Y-22480000D03*
%TD*%
D16*
%TO.P,C1,1*%
%TO.N,Board_3-+3.3V*%
X55370001Y-45080001D03*
%TO.P,C1,2*%
%TO.N,Board_3-XTAL2*%
X54410001Y-45080001D03*
%TD*%
D10*
%TO.P,TP2,1,1*%
%TO.N,Board_0-OUT1*%
X17000000Y-28000000D03*
%TD*%
D11*
%TO.P,C6,1*%
%TO.N,Board_0-/cvref*%
X31250000Y-23600000D03*
%TO.P,C6,2*%
%TO.N,Board_0-GND*%
X32210000Y-23600000D03*
%TD*%
D10*
%TO.P,TP8,1,1*%
%TO.N,Board_2-AUX2*%
X32070000Y-42970001D03*
%TD*%
D27*
%TO.N,Board_3-SCLK*%
X48250001Y-36760001D03*
X48130001Y-53840001D03*
%TO.N,Board_3-RESETB*%
X46227586Y-54009992D03*
X40360002Y-45150000D03*
X46250001Y-36750001D03*
%TO.N,Board_3-IN_ref*%
X48510001Y-43040001D03*
X48420001Y-48370001D03*
%TO.N,Board_3-IN5*%
X48350001Y-42480001D03*
X40220001Y-41960001D03*
%TO.N,Board_3-IN4*%
X40810001Y-41500001D03*
X48660001Y-41990001D03*
%TO.N,Board_3-IN3*%
X48260001Y-41560001D03*
%TO.N,Board_3-IN2*%
X52210001Y-42300001D03*
%TO.N,Board_3-IN1*%
X52790001Y-42310001D03*
%TO.N,Board_3-I2C_SDA*%
X45250001Y-36760001D03*
X36600002Y-42160000D03*
X45259931Y-54020245D03*
%TO.N,Board_3-I2C_SCL*%
X45739428Y-36510002D03*
X45740002Y-53750000D03*
%TO.N,Board_3-GND*%
X56305001Y-47385001D03*
X49750001Y-36430001D03*
X52510000Y-44500000D03*
X36590002Y-41140000D03*
X47020002Y-36520000D03*
X49750001Y-53784597D03*
X40360002Y-49100000D03*
X48420001Y-49040001D03*
%TO.N,Board_3-D_RDYB*%
X40690001Y-49640001D03*
X52341892Y-49488892D03*
%TO.N,Board_3-DOUT*%
X50340001Y-54000001D03*
X50250001Y-36760001D03*
%TO.N,Board_3-DIN*%
X49240001Y-54060001D03*
X49250001Y-36760001D03*
%TO.N,Board_3-AUX2*%
X56420001Y-41970001D03*
X48750001Y-36520001D03*
X48740001Y-53755223D03*
%TO.N,Board_3-AUX1*%
X47750001Y-36510001D03*
X47530001Y-53850001D03*
X52620001Y-41460001D03*
%TO.N,Board_3-+3.3V*%
X52370001Y-40840001D03*
X44692697Y-44068384D03*
X40500002Y-43230000D03*
%TO.N,Board_2-SCLK*%
X24130000Y-53840001D03*
X24250000Y-36760001D03*
%TO.N,Board_2-RESETB*%
X16360001Y-45150000D03*
X22250000Y-36750001D03*
X22227585Y-54009992D03*
%TO.N,Board_2-IN_ref*%
X24510000Y-43040001D03*
X24420000Y-48370001D03*
%TO.N,Board_2-IN5*%
X16220000Y-41960001D03*
X24350000Y-42480001D03*
%TO.N,Board_2-IN4*%
X24660000Y-41990001D03*
X16810000Y-41500001D03*
%TO.N,Board_2-IN3*%
X24260000Y-41560001D03*
%TO.N,Board_2-IN2*%
X28210000Y-42300001D03*
%TO.N,Board_2-IN1*%
X28790000Y-42310001D03*
%TO.N,Board_2-I2C_SDA*%
X12600001Y-42160000D03*
X21250000Y-36760001D03*
X21259930Y-54020245D03*
%TO.N,Board_2-I2C_SCL*%
X21739427Y-36510002D03*
X21740001Y-53750000D03*
%TO.N,Board_2-GND*%
X25750000Y-53784597D03*
X24420000Y-49040001D03*
X28509999Y-44500000D03*
X32305000Y-47385001D03*
X23020001Y-36520000D03*
X16360001Y-49100000D03*
X25750000Y-36430001D03*
X12590001Y-41140000D03*
%TO.N,Board_2-D_RDYB*%
X28341891Y-49488892D03*
X16690000Y-49640001D03*
%TO.N,Board_2-DOUT*%
X26340000Y-54000001D03*
X26250000Y-36760001D03*
%TO.N,Board_2-DIN*%
X25240000Y-54060001D03*
X25250000Y-36760001D03*
%TO.N,Board_2-AUX2*%
X24740000Y-53755223D03*
X32420000Y-41970001D03*
X24750000Y-36520001D03*
%TO.N,Board_2-AUX1*%
X23750000Y-36510001D03*
X23530000Y-53850001D03*
X28620000Y-41460001D03*
%TO.N,Board_2-+3.3V*%
X20692696Y-44068384D03*
X16500001Y-43230000D03*
X28370000Y-40840001D03*
%TO.N,Board_1-SCLK*%
X48250001Y-16260000D03*
X48130001Y-33340000D03*
%TO.N,Board_1-RESETB*%
X46227586Y-33509991D03*
X46250001Y-16250000D03*
X40360002Y-24649999D03*
%TO.N,Board_1-IN_ref*%
X48510001Y-22540000D03*
X48420001Y-27870000D03*
%TO.N,Board_1-IN5*%
X40220001Y-21460000D03*
X48350001Y-21980000D03*
%TO.N,Board_1-IN4*%
X40810001Y-21000000D03*
X48660001Y-21490000D03*
%TO.N,Board_1-IN3*%
X48260001Y-21060000D03*
%TO.N,Board_1-IN2*%
X52210001Y-21800000D03*
%TO.N,Board_1-IN1*%
X52790001Y-21810000D03*
%TO.N,Board_1-I2C_SDA*%
X45250001Y-16260000D03*
X45259931Y-33520244D03*
X36600002Y-21659999D03*
%TO.N,Board_1-I2C_SCL*%
X45739428Y-16010001D03*
X45740002Y-33249999D03*
%TO.N,Board_1-GND*%
X52510000Y-23999999D03*
X48420001Y-28540000D03*
X49750001Y-33284596D03*
X40360002Y-28599999D03*
X56305001Y-26885000D03*
X49750001Y-15930000D03*
X47020002Y-16019999D03*
X36590002Y-20639999D03*
%TO.N,Board_1-D_RDYB*%
X40690001Y-29140000D03*
X52341892Y-28988891D03*
%TO.N,Board_1-DOUT*%
X50340001Y-33500000D03*
X50250001Y-16260000D03*
%TO.N,Board_1-DIN*%
X49250001Y-16260000D03*
X49240001Y-33560000D03*
%TO.N,Board_1-AUX2*%
X48750001Y-16020000D03*
X56420001Y-21470000D03*
X48740001Y-33255222D03*
%TO.N,Board_1-AUX1*%
X47530001Y-33350000D03*
X47750001Y-16010000D03*
X52620001Y-20960000D03*
%TO.N,Board_1-+3.3V*%
X52370001Y-20340000D03*
X44692697Y-23568383D03*
X40500002Y-22729999D03*
%TO.N,Board_0-SCLK*%
X24250000Y-16260000D03*
X24130000Y-33340000D03*
%TO.N,Board_0-RESETB*%
X22250000Y-16250000D03*
X22227585Y-33509991D03*
X16360001Y-24649999D03*
%TO.N,Board_0-IN_ref*%
X24420000Y-27870000D03*
X24510000Y-22540000D03*
%TO.N,Board_0-IN5*%
X16220000Y-21460000D03*
X24350000Y-21980000D03*
%TO.N,Board_0-IN4*%
X16810000Y-21000000D03*
X24660000Y-21490000D03*
%TO.N,Board_0-IN3*%
X24260000Y-21060000D03*
%TO.N,Board_0-IN2*%
X28210000Y-21800000D03*
%TO.N,Board_0-IN1*%
X28790000Y-21810000D03*
%TO.N,Board_0-I2C_SDA*%
X21250000Y-16260000D03*
X12600001Y-21659999D03*
X21259930Y-33520244D03*
%TO.N,Board_0-I2C_SCL*%
X21739427Y-16010001D03*
X21740001Y-33249999D03*
%TO.N,Board_0-GND*%
X25750000Y-33284596D03*
X25750000Y-15930000D03*
X24420000Y-28540000D03*
X12590001Y-20639999D03*
X23020001Y-16019999D03*
X16360001Y-28599999D03*
X32305000Y-26885000D03*
X28509999Y-23999999D03*
%TO.N,Board_0-D_RDYB*%
X28341891Y-28988891D03*
X16690000Y-29140000D03*
%TO.N,Board_0-DOUT*%
X26250000Y-16260000D03*
X26340000Y-33500000D03*
%TO.N,Board_0-DIN*%
X25250000Y-16260000D03*
X25240000Y-33560000D03*
%TO.N,Board_0-AUX2*%
X24750000Y-16020000D03*
X32420000Y-21470000D03*
X24740000Y-33255222D03*
%TO.N,Board_0-AUX1*%
X23530000Y-33350000D03*
X23750000Y-16010000D03*
X28620000Y-20960000D03*
%TO.N,Board_0-+3.3V*%
X20692696Y-23568383D03*
X16500001Y-22729999D03*
X28370000Y-20340000D03*
%TD*%
D28*
%TO.N,Board_3-XTAL2*%
X54410001Y-45080001D02*
X54555001Y-45225001D01*
X54555001Y-45225001D02*
X54555001Y-46720001D01*
X53835000Y-46000000D02*
X53350001Y-46000000D01*
X54555001Y-46720001D02*
X53835000Y-46000000D01*
%TO.N,Board_3-XTAL1*%
X53840501Y-46758501D02*
X53582002Y-46500002D01*
X53582002Y-46500002D02*
X53350001Y-46500002D01*
X53840501Y-47500501D02*
X53840501Y-46758501D01*
D29*
X54555001Y-48460001D02*
X54555001Y-48215001D01*
X55870001Y-49830001D02*
X55870001Y-49775001D01*
X55870001Y-49775001D02*
X54555001Y-48460001D01*
X54555001Y-48215001D02*
X53840501Y-47500501D01*
D28*
%TO.N,Board_3-SCLK*%
X49559501Y-48570501D02*
X49929501Y-48570501D01*
X49010001Y-49260001D02*
X49010001Y-49120001D01*
X50450002Y-48050000D02*
X50450002Y-47900001D01*
X48250001Y-50020001D02*
X49010001Y-49260001D01*
X49010001Y-49120001D02*
X49559501Y-48570501D01*
X49929501Y-48570501D02*
X50450002Y-48050000D01*
X48250001Y-37800001D02*
X48250001Y-36760001D01*
X48250001Y-50300001D02*
X48250001Y-50020001D01*
X48130001Y-53677001D02*
X48250001Y-53557001D01*
X48250001Y-53557001D02*
X48250001Y-50300001D01*
X48130001Y-53840001D02*
X48130001Y-53677001D01*
%TO.N,Board_3-RESETB*%
X46250001Y-47930001D02*
X45440001Y-47120001D01*
X46250001Y-53987577D02*
X46227586Y-54009992D01*
X46250001Y-37800001D02*
X46250001Y-36750001D01*
X46250001Y-50300001D02*
X46250001Y-53987577D01*
X39710003Y-44500001D02*
X39000002Y-44500001D01*
X40360002Y-45150000D02*
X39710003Y-44500001D01*
X46250001Y-50300001D02*
X46250001Y-47930001D01*
%TO.N,Board_3-OUT3*%
X42540001Y-45520001D02*
X40980001Y-45520001D01*
X40980001Y-45520001D02*
X40500002Y-46000000D01*
%TO.N,Board_3-OUT2*%
X42540001Y-45920001D02*
X41590001Y-45920001D01*
X40010001Y-47500001D02*
X39000001Y-47500001D01*
X41590001Y-45920001D02*
X40010001Y-47500001D01*
%TO.N,Board_3-OUT1*%
X42540001Y-46320001D02*
X42020001Y-46320001D01*
X41000001Y-47340001D02*
X41000001Y-48500001D01*
X42020001Y-46320001D02*
X41000001Y-47340001D01*
%TO.N,Board_3-Net-(U1-RLDOUT)*%
X47660001Y-43842001D02*
X47660001Y-43560001D01*
D29*
X48510000Y-44540001D02*
X48550001Y-44500000D01*
X47660001Y-44540001D02*
X48510000Y-44540001D01*
D28*
X48318000Y-44500000D02*
X47660001Y-43842001D01*
X48550001Y-44500000D02*
X48318000Y-44500000D01*
%TO.N,Board_3-Net-(U1-RLDINV)*%
X46700001Y-43120001D02*
X46150001Y-42570001D01*
X48550001Y-45000002D02*
X48546502Y-45003501D01*
X48550001Y-45000002D02*
X48533000Y-44983001D01*
X47163501Y-45003501D02*
X46700001Y-44540001D01*
X48546502Y-45003501D02*
X47163501Y-45003501D01*
X46700001Y-43560001D02*
X46700001Y-43120001D01*
X46700001Y-44540001D02*
X46700001Y-43560001D01*
%TO.N,Board_3-Net-(U1-RLDIN)*%
X48080000Y-46000000D02*
X47630001Y-45550001D01*
X48550001Y-46000000D02*
X48080000Y-46000000D01*
X47680001Y-45500001D02*
X48550001Y-45500001D01*
X47630001Y-45550001D02*
X47680001Y-45500001D01*
D29*
%TO.N,Board_3-Net-(U1-CMOUT)*%
X47375981Y-42570001D02*
X48550001Y-43744021D01*
X47110001Y-42570001D02*
X47375981Y-42570001D01*
X48550001Y-43744021D02*
X48550001Y-44000001D01*
D28*
%TO.N,Board_3-LED_OUT*%
X39150001Y-40985001D02*
X39535001Y-40600001D01*
X39535001Y-40600001D02*
X40093001Y-40600001D01*
X40096501Y-40603501D02*
X42346501Y-40603501D01*
X42346501Y-40603501D02*
X42750001Y-40200001D01*
X40093001Y-40600001D02*
X40096501Y-40603501D01*
%TO.N,Board_3-LED_IN*%
X42750001Y-52700001D02*
X42150001Y-53300001D01*
X38000001Y-50050001D02*
X38000001Y-42815001D01*
X42150001Y-53300001D02*
X40230001Y-53300001D01*
X38000001Y-42815001D02*
X38050001Y-42815001D01*
X39860001Y-51910001D02*
X38000001Y-50050001D01*
X39860001Y-52930001D02*
X39860001Y-51910001D01*
X40230001Y-53300001D02*
X39860001Y-52930001D01*
%TO.N,Board_3-IN_ref*%
X47543501Y-41813501D02*
X46750001Y-41020001D01*
X47543501Y-42433501D02*
X47543501Y-41813501D01*
X48150001Y-43040001D02*
X47543501Y-42433501D01*
X47830001Y-48960001D02*
X47233001Y-48960001D01*
X46750001Y-41020001D02*
X46750001Y-40200001D01*
X49171501Y-42646501D02*
X48818001Y-43000001D01*
X49950000Y-43100001D02*
X49950000Y-42925001D01*
X49950000Y-42925001D02*
X49671500Y-42646501D01*
X48818001Y-43000001D02*
X48550001Y-43000001D01*
X49671500Y-42646501D02*
X49171501Y-42646501D01*
X48550001Y-43000001D02*
X48510001Y-43040001D01*
X46750001Y-49443001D02*
X46750001Y-52700001D01*
X48510001Y-43040001D02*
X48150001Y-43040001D01*
X48420001Y-48370001D02*
X47830001Y-48960001D01*
X47233001Y-48960001D02*
X46750001Y-49443001D01*
%TO.N,Board_3-IN5*%
X48400501Y-42429501D02*
X49954502Y-42429501D01*
X48350001Y-42480001D02*
X48400501Y-42429501D01*
X50450002Y-42925001D02*
X50450002Y-43100001D01*
X49954502Y-42429501D02*
X50450002Y-42925001D01*
%TO.N,Board_3-IN4*%
X50950001Y-42868000D02*
X50950001Y-43100001D01*
X48660001Y-41990001D02*
X50072002Y-41990001D01*
X50072002Y-41990001D02*
X50950001Y-42868000D01*
%TO.N,Board_3-IN3*%
X50190001Y-41560001D02*
X51450000Y-42820000D01*
X48260001Y-41560001D02*
X50190001Y-41560001D01*
X51450000Y-42820000D02*
X51450000Y-43100001D01*
%TO.N,Board_3-IN2*%
X52210001Y-42300001D02*
X51950002Y-42560000D01*
X51950002Y-42560000D02*
X51950002Y-43100001D01*
%TO.N,Board_3-IN1*%
X52790001Y-42310001D02*
X52450001Y-42650001D01*
X52450001Y-42650001D02*
X52450001Y-43100001D01*
%TO.N,Board_3-I2C_SDA*%
X45250001Y-54010315D02*
X45259931Y-54020245D01*
X36600002Y-42160000D02*
X39420002Y-42160000D01*
X45250001Y-37800001D02*
X45250001Y-36760001D01*
X39420002Y-42160000D02*
X39760003Y-42500001D01*
X45250001Y-50300001D02*
X45250001Y-49070001D01*
X42000001Y-42500001D02*
X42500001Y-42000001D01*
X39760003Y-42500001D02*
X42000001Y-42500001D01*
X44390001Y-48210001D02*
X44390001Y-47770001D01*
X45250001Y-49070001D02*
X44390001Y-48210001D01*
X45250001Y-50300001D02*
X45250001Y-54010315D01*
%TO.N,Board_3-I2C_SCL*%
X45750001Y-52700001D02*
X45750001Y-53740001D01*
X44990001Y-41870001D02*
X45750001Y-41110001D01*
X45750001Y-41110001D02*
X45750001Y-40200001D01*
X45750001Y-36520575D02*
X45739428Y-36510002D01*
X45750001Y-40200001D02*
X45750001Y-36520575D01*
X45750001Y-52700001D02*
X45750001Y-48730001D01*
X45750001Y-48730001D02*
X44790001Y-47770001D01*
X44990001Y-42980001D02*
X44990001Y-41870001D01*
X45750001Y-53740001D02*
X45740002Y-53750000D01*
%TO.N,Board_3-GND*%
X39400002Y-49100000D02*
X40360002Y-49100000D01*
X47250001Y-36749999D02*
X47020002Y-36520000D01*
X53350001Y-44500000D02*
X53700002Y-44500000D01*
X49750001Y-40200001D02*
X49750001Y-36430001D01*
X53350001Y-44500000D02*
X52510000Y-44500000D01*
X47250001Y-37800001D02*
X47250001Y-36749999D01*
X52630001Y-48820001D02*
X52728501Y-48721501D01*
X47250001Y-49943001D02*
X48153001Y-49040001D01*
X48153001Y-49040001D02*
X48420001Y-49040001D01*
X45440001Y-45920001D02*
X44390001Y-45920001D01*
X49750001Y-53784597D02*
X49750001Y-52700001D01*
X46650001Y-46500001D02*
X46070001Y-45920001D01*
X52728501Y-48721501D02*
X52728501Y-47278501D01*
D29*
X56210001Y-44100001D02*
X55937000Y-43827000D01*
D28*
X36590002Y-41140000D02*
X37895002Y-41140000D01*
X53700002Y-44500000D02*
X54300001Y-43900001D01*
X56305001Y-47385001D02*
X56305001Y-46260001D01*
X44390001Y-45920001D02*
X43990001Y-46320001D01*
X47500001Y-46380001D02*
X46770001Y-46380001D01*
X50950001Y-45500001D02*
X51509999Y-45500001D01*
X48120001Y-47000001D02*
X47500001Y-46380001D01*
D29*
X55398020Y-43510001D02*
X54690001Y-43510001D01*
D28*
X52728501Y-47278501D02*
X50950001Y-45500001D01*
X39000001Y-49500001D02*
X39400002Y-49100000D01*
X54300001Y-43900001D02*
X54300001Y-43910001D01*
D29*
X55937000Y-43827000D02*
X55715019Y-43827000D01*
X54690001Y-43510001D02*
X54300001Y-43900001D01*
D28*
X51509999Y-45500001D02*
X52510000Y-44500000D01*
X47250001Y-50300001D02*
X47250001Y-49943001D01*
X48550001Y-47000001D02*
X48120001Y-47000001D01*
X46770001Y-46380001D02*
X46650001Y-46500001D01*
X46070001Y-45920001D02*
X45440001Y-45920001D01*
X48550001Y-47000001D02*
X49450001Y-47000001D01*
X37895002Y-41140000D02*
X38050001Y-40985001D01*
X49450001Y-47000001D02*
X50950001Y-45500001D01*
D29*
X55715019Y-43827000D02*
X55398020Y-43510001D01*
D28*
%TO.N,Board_3-D_RDYB*%
X52113501Y-49260501D02*
X52113501Y-48063500D01*
X40690001Y-49640001D02*
X41090001Y-49640001D01*
X41850001Y-47000001D02*
X42130001Y-46720001D01*
X41090001Y-49640001D02*
X41850001Y-48880001D01*
X52113501Y-48063500D02*
X51950002Y-47900001D01*
X41850001Y-48880001D02*
X41850001Y-47000001D01*
X42130001Y-46720001D02*
X42540001Y-46720001D01*
X52341892Y-49488892D02*
X52113501Y-49260501D01*
%TO.N,Board_3-DOUT*%
X50340001Y-54000001D02*
X50250001Y-53910001D01*
X50250001Y-50300001D02*
X50250001Y-49750001D01*
X50720001Y-49280001D02*
X50720001Y-48820001D01*
X50250001Y-53910001D02*
X50250001Y-50300001D01*
X50250001Y-37800001D02*
X50250001Y-36760001D01*
X50250001Y-49750001D02*
X50720001Y-49280001D01*
%TO.N,Board_3-DIN*%
X49250001Y-37800001D02*
X49250001Y-36760001D01*
X50950001Y-48132002D02*
X50950001Y-47900001D01*
X49250001Y-50300001D02*
X49250001Y-49560001D01*
X49250001Y-49560001D02*
X50456501Y-48353501D01*
X49250001Y-54050001D02*
X49250001Y-50300001D01*
X50456501Y-48353501D02*
X50728502Y-48353501D01*
X49240001Y-54060001D02*
X49250001Y-54050001D01*
X50728502Y-48353501D02*
X50950001Y-48132002D01*
%TO.N,Board_3-CS*%
X46350001Y-47630001D02*
X46018501Y-47298501D01*
X46018501Y-46985709D02*
X45752793Y-46720001D01*
X47320001Y-47630001D02*
X46350001Y-47630001D01*
X47320001Y-47680001D02*
X47320001Y-47630001D01*
X48448001Y-47630001D02*
X47320001Y-47630001D01*
X49728501Y-48353501D02*
X49171501Y-48353501D01*
X45752793Y-46720001D02*
X45440001Y-46720001D01*
X46018501Y-47298501D02*
X46018501Y-46985709D01*
X49171501Y-48353501D02*
X48448001Y-47630001D01*
X49950000Y-47900001D02*
X49950000Y-48132002D01*
X47000001Y-48000001D02*
X47320001Y-47680001D01*
X49950000Y-48132002D02*
X49728501Y-48353501D01*
D29*
%TO.N,Board_3-AUX2*%
X56420001Y-41970001D02*
X56420001Y-42620001D01*
D28*
X48750001Y-40200001D02*
X48750001Y-36520001D01*
X48740001Y-53755223D02*
X48750001Y-53745223D01*
X48750001Y-53745223D02*
X48750001Y-52700001D01*
D29*
X56420001Y-42620001D02*
X56070001Y-42970001D01*
D28*
%TO.N,Board_3-AUX1*%
X47750001Y-52700001D02*
X47750001Y-53630001D01*
X52620001Y-41460001D02*
X53870001Y-41460001D01*
X47750001Y-40200001D02*
X47750001Y-36510001D01*
X53870001Y-41460001D02*
X54200001Y-41790001D01*
X47750001Y-53630001D02*
X47530001Y-53850001D01*
%TO.N,Board_3-ALARMB*%
X46018501Y-46678501D02*
X46670001Y-47330001D01*
X48880001Y-47330001D02*
X49450001Y-47900001D01*
X45440001Y-46320001D02*
X45810001Y-46320001D01*
X46018501Y-46528501D02*
X46018501Y-46678501D01*
X46670001Y-47330001D02*
X48880001Y-47330001D01*
X45810001Y-46320001D02*
X46018501Y-46528501D01*
%TO.N,Board_3-ADD_OUT4*%
X44220001Y-44380001D02*
X44220001Y-41393885D01*
X44750001Y-40863885D02*
X44750001Y-40200001D01*
X44220001Y-41393885D02*
X44750001Y-40863885D01*
X44390001Y-44550001D02*
X44220001Y-44380001D01*
X44390001Y-44870001D02*
X44390001Y-44550001D01*
%TO.N,Board_3-ADD_OUT3*%
X43990001Y-41317001D02*
X44250001Y-41057001D01*
X43990001Y-44870001D02*
X43990001Y-41317001D01*
X44250001Y-41057001D02*
X44250001Y-37800001D01*
%TO.N,Board_3-ADD_OUT2*%
X43590001Y-40360001D02*
X43750001Y-40200001D01*
X43590001Y-44870001D02*
X43590001Y-40360001D01*
%TO.N,Board_3-ADD_OUT1*%
X43190001Y-44870001D02*
X43250001Y-44810001D01*
X43250001Y-44810001D02*
X43250001Y-37800001D01*
%TO.N,Board_3-ADD_IN4*%
X44750001Y-52700001D02*
X44750001Y-49140001D01*
X44750001Y-49140001D02*
X43990001Y-48380001D01*
X43990001Y-48380001D02*
X43990001Y-47770001D01*
%TO.N,Board_3-ADD_IN3*%
X44250001Y-50300001D02*
X44250001Y-49190001D01*
X44250001Y-49190001D02*
X43590001Y-48530001D01*
X43590001Y-48530001D02*
X43590001Y-47770001D01*
%TO.N,Board_3-ADD_IN2*%
X43750001Y-52700001D02*
X43750001Y-49443001D01*
X43190001Y-48883001D02*
X43190001Y-47770001D01*
X43750001Y-49443001D02*
X43190001Y-48883001D01*
%TO.N,Board_3-ADD_IN1*%
X42540001Y-49590001D02*
X42540001Y-47120001D01*
X43250001Y-50300001D02*
X42540001Y-49590001D01*
%TO.N,Board_3-/sdo*%
X51450000Y-48590000D02*
X51450000Y-47900001D01*
X51680001Y-48820001D02*
X51450000Y-48590000D01*
%TO.N,Board_3-/cvref*%
X53350001Y-45000002D02*
X53571503Y-44778500D01*
X54830001Y-44520001D02*
X55250001Y-44100001D01*
X53728386Y-44778500D02*
X53986885Y-44520001D01*
X53986885Y-44520001D02*
X54830001Y-44520001D01*
X53571503Y-44778500D02*
X53728386Y-44778500D01*
%TO.N,Board_3-/Vcap*%
X46630001Y-45520001D02*
X46630001Y-45450001D01*
X45440001Y-45520001D02*
X46630001Y-45520001D01*
X46630001Y-45450001D02*
X46600001Y-45420001D01*
%TO.N,Board_3-+5VA*%
X55350001Y-50650001D02*
X56700001Y-50650001D01*
X54330001Y-53180001D02*
X54330001Y-51670001D01*
X53356501Y-36846501D02*
X53940001Y-37430001D01*
X51300001Y-53450001D02*
X54060001Y-53450001D01*
X53220001Y-43870001D02*
X53350001Y-44000001D01*
X52166501Y-41886501D02*
X52951279Y-41886501D01*
X53220001Y-42155223D02*
X53220001Y-43870001D01*
X50750001Y-52700001D02*
X50750001Y-52900001D01*
X54300001Y-42940001D02*
X54300001Y-43050001D01*
X52951279Y-41886501D02*
X53220001Y-42155223D01*
X54300001Y-43050001D02*
X53350001Y-44000001D01*
X56290001Y-41000001D02*
X56000001Y-41000001D01*
X54060001Y-53450001D02*
X54330001Y-53180001D01*
X57080001Y-41790001D02*
X56290001Y-41000001D01*
X50846501Y-36846501D02*
X53356501Y-36846501D01*
X56700001Y-50650001D02*
X57080001Y-50270001D01*
X50750001Y-40470001D02*
X52166501Y-41886501D01*
X50750001Y-36943001D02*
X50846501Y-36846501D01*
X50750001Y-52900001D02*
X51300001Y-53450001D01*
X57080001Y-50270001D02*
X57080001Y-41790001D01*
X50750001Y-40200001D02*
X50750001Y-40470001D01*
X53940001Y-37430001D02*
X53940001Y-38940001D01*
X53940001Y-38940001D02*
X56000001Y-41000001D01*
X54330001Y-51670001D02*
X55350001Y-50650001D01*
X50750001Y-40200001D02*
X50750001Y-36943001D01*
%TO.N,Board_3-+3.3V*%
X56458572Y-43623500D02*
X56673501Y-43838429D01*
X51280001Y-37830001D02*
X51250000Y-37800000D01*
X54910001Y-49830001D02*
X55373501Y-50293501D01*
X51715001Y-50765001D02*
X51715001Y-52722001D01*
X56305001Y-50120073D02*
X56305001Y-48460001D01*
X54113001Y-50627001D02*
X54910001Y-49830001D01*
X44692697Y-44068384D02*
X44790001Y-44165688D01*
X54113001Y-52820001D02*
X54113001Y-50627001D01*
X52370001Y-40840001D02*
X54260001Y-40840001D01*
X51250001Y-50300001D02*
X51715001Y-50765001D01*
X40500002Y-43230000D02*
X40730000Y-43230000D01*
X55050001Y-41630001D02*
X55050001Y-42874190D01*
X55373501Y-50293501D02*
X56131573Y-50293501D01*
X53350001Y-48580001D02*
X53590001Y-48820001D01*
X51715001Y-52722001D02*
X52109559Y-53116559D01*
X56673501Y-44416501D02*
X56010001Y-45080001D01*
X56131573Y-50293501D02*
X56305001Y-50120073D01*
X44790001Y-44165688D02*
X44790001Y-44870001D01*
X55370001Y-45080001D02*
X55370001Y-47525001D01*
X53590001Y-48820001D02*
X53740001Y-48820001D01*
X55799311Y-43623500D02*
X56458572Y-43623500D01*
X40730000Y-43230000D02*
X41500001Y-44000001D01*
X55050001Y-42874190D02*
X55799311Y-43623500D01*
X53350001Y-47000001D02*
X53350001Y-48580001D01*
X51280001Y-39750001D02*
X51280001Y-37830001D01*
X56010001Y-45080001D02*
X55370001Y-45080001D01*
X52370001Y-40840001D02*
X51280001Y-39750001D01*
X53816443Y-53116559D02*
X54113001Y-52820001D01*
X40085003Y-42815001D02*
X39150001Y-42815001D01*
X40500002Y-43230000D02*
X40085003Y-42815001D01*
X52109559Y-53116559D02*
X53816443Y-53116559D01*
X53740001Y-48820001D02*
X54750001Y-49830001D01*
X55370001Y-47525001D02*
X56305001Y-48460001D01*
X54260001Y-40840001D02*
X55050001Y-41630001D01*
X54750001Y-49830001D02*
X54910001Y-49830001D01*
X56673501Y-43838429D02*
X56673501Y-44416501D01*
%TO.N,Board_2-XTAL2*%
X30555000Y-46720001D02*
X29834999Y-46000000D01*
X30410000Y-45080001D02*
X30555000Y-45225001D01*
X29834999Y-46000000D02*
X29350000Y-46000000D01*
X30555000Y-45225001D02*
X30555000Y-46720001D01*
%TO.N,Board_2-XTAL1*%
X29840500Y-46758501D02*
X29582001Y-46500002D01*
X29582001Y-46500002D02*
X29350000Y-46500002D01*
X29840500Y-47500501D02*
X29840500Y-46758501D01*
D29*
X30555000Y-48460001D02*
X30555000Y-48215001D01*
X31870000Y-49775001D02*
X30555000Y-48460001D01*
X31870000Y-49830001D02*
X31870000Y-49775001D01*
X30555000Y-48215001D02*
X29840500Y-47500501D01*
D28*
%TO.N,Board_2-SCLK*%
X24250000Y-37800001D02*
X24250000Y-36760001D01*
X25010000Y-49120001D02*
X25559500Y-48570501D01*
X24130000Y-53840001D02*
X24130000Y-53677001D01*
X24130000Y-53677001D02*
X24250000Y-53557001D01*
X25929500Y-48570501D02*
X26450001Y-48050000D01*
X25559500Y-48570501D02*
X25929500Y-48570501D01*
X25010000Y-49260001D02*
X25010000Y-49120001D01*
X24250000Y-50300001D02*
X24250000Y-50020001D01*
X24250000Y-50020001D02*
X25010000Y-49260001D01*
X26450001Y-48050000D02*
X26450001Y-47900001D01*
X24250000Y-53557001D02*
X24250000Y-50300001D01*
%TO.N,Board_2-RESETB*%
X16360001Y-45150000D02*
X15710002Y-44500001D01*
X22250000Y-50300001D02*
X22250000Y-53987577D01*
X22250000Y-47930001D02*
X21440000Y-47120001D01*
X22250000Y-37800001D02*
X22250000Y-36750001D01*
X15710002Y-44500001D02*
X15000001Y-44500001D01*
X22250000Y-53987577D02*
X22227585Y-54009992D01*
X22250000Y-50300001D02*
X22250000Y-47930001D01*
%TO.N,Board_2-OUT3*%
X16980000Y-45520001D02*
X16500001Y-46000000D01*
X18540000Y-45520001D02*
X16980000Y-45520001D01*
%TO.N,Board_2-OUT2*%
X17590000Y-45920001D02*
X16010000Y-47500001D01*
X16010000Y-47500001D02*
X15000000Y-47500001D01*
X18540000Y-45920001D02*
X17590000Y-45920001D01*
%TO.N,Board_2-OUT1*%
X17000000Y-47340001D02*
X17000000Y-48500001D01*
X18540000Y-46320001D02*
X18020000Y-46320001D01*
X18020000Y-46320001D02*
X17000000Y-47340001D01*
%TO.N,Board_2-Net-(U1-RLDOUT)*%
X24550000Y-44500000D02*
X24317999Y-44500000D01*
X23660000Y-43842001D02*
X23660000Y-43560001D01*
X24317999Y-44500000D02*
X23660000Y-43842001D01*
D29*
X23660000Y-44540001D02*
X24509999Y-44540001D01*
X24509999Y-44540001D02*
X24550000Y-44500000D01*
D28*
%TO.N,Board_2-Net-(U1-RLDINV)*%
X22700000Y-44540001D02*
X22700000Y-43560001D01*
X22700000Y-43560001D02*
X22700000Y-43120001D01*
X23163500Y-45003501D02*
X22700000Y-44540001D01*
X24546501Y-45003501D02*
X23163500Y-45003501D01*
X24550000Y-45000002D02*
X24532999Y-44983001D01*
X22700000Y-43120001D02*
X22150000Y-42570001D01*
X24550000Y-45000002D02*
X24546501Y-45003501D01*
%TO.N,Board_2-Net-(U1-RLDIN)*%
X23630000Y-45550001D02*
X23680000Y-45500001D01*
X24550000Y-46000000D02*
X24079999Y-46000000D01*
X23680000Y-45500001D02*
X24550000Y-45500001D01*
X24079999Y-46000000D02*
X23630000Y-45550001D01*
D29*
%TO.N,Board_2-Net-(U1-CMOUT)*%
X24550000Y-43744021D02*
X24550000Y-44000001D01*
X23375980Y-42570001D02*
X24550000Y-43744021D01*
X23110000Y-42570001D02*
X23375980Y-42570001D01*
D28*
%TO.N,Board_2-LED_OUT*%
X18346500Y-40603501D02*
X18750000Y-40200001D01*
X16093000Y-40600001D02*
X16096500Y-40603501D01*
X16096500Y-40603501D02*
X18346500Y-40603501D01*
X15535000Y-40600001D02*
X16093000Y-40600001D01*
X15150000Y-40985001D02*
X15535000Y-40600001D01*
%TO.N,Board_2-LED_IN*%
X15860000Y-51910001D02*
X14000000Y-50050001D01*
X18750000Y-52700001D02*
X18150000Y-53300001D01*
X15860000Y-52930001D02*
X15860000Y-51910001D01*
X14000000Y-42815001D02*
X14050000Y-42815001D01*
X18150000Y-53300001D02*
X16230000Y-53300001D01*
X14000000Y-50050001D02*
X14000000Y-42815001D01*
X16230000Y-53300001D02*
X15860000Y-52930001D01*
%TO.N,Board_2-IN_ref*%
X23543500Y-42433501D02*
X23543500Y-41813501D01*
X23830000Y-48960001D02*
X23233000Y-48960001D01*
X25171500Y-42646501D02*
X24818000Y-43000001D01*
X25949999Y-43100001D02*
X25949999Y-42925001D01*
X25949999Y-42925001D02*
X25671499Y-42646501D01*
X22750000Y-49443001D02*
X22750000Y-52700001D01*
X24420000Y-48370001D02*
X23830000Y-48960001D01*
X24510000Y-43040001D02*
X24150000Y-43040001D01*
X24818000Y-43000001D02*
X24550000Y-43000001D01*
X25671499Y-42646501D02*
X25171500Y-42646501D01*
X24550000Y-43000001D02*
X24510000Y-43040001D01*
X23543500Y-41813501D02*
X22750000Y-41020001D01*
X22750000Y-41020001D02*
X22750000Y-40200001D01*
X23233000Y-48960001D02*
X22750000Y-49443001D01*
X24150000Y-43040001D02*
X23543500Y-42433501D01*
%TO.N,Board_2-IN5*%
X26450001Y-42925001D02*
X26450001Y-43100001D01*
X24400500Y-42429501D02*
X25954501Y-42429501D01*
X25954501Y-42429501D02*
X26450001Y-42925001D01*
X24350000Y-42480001D02*
X24400500Y-42429501D01*
%TO.N,Board_2-IN4*%
X26950000Y-42868000D02*
X26950000Y-43100001D01*
X26072001Y-41990001D02*
X26950000Y-42868000D01*
X24660000Y-41990001D02*
X26072001Y-41990001D01*
%TO.N,Board_2-IN3*%
X24260000Y-41560001D02*
X26190000Y-41560001D01*
X26190000Y-41560001D02*
X27449999Y-42820000D01*
X27449999Y-42820000D02*
X27449999Y-43100001D01*
%TO.N,Board_2-IN2*%
X28210000Y-42300001D02*
X27950001Y-42560000D01*
X27950001Y-42560000D02*
X27950001Y-43100001D01*
%TO.N,Board_2-IN1*%
X28450000Y-42650001D02*
X28450000Y-43100001D01*
X28790000Y-42310001D02*
X28450000Y-42650001D01*
%TO.N,Board_2-I2C_SDA*%
X21250000Y-54010315D02*
X21259930Y-54020245D01*
X15760002Y-42500001D02*
X18000000Y-42500001D01*
X21250000Y-49070001D02*
X20390000Y-48210001D01*
X20390000Y-48210001D02*
X20390000Y-47770001D01*
X15420001Y-42160000D02*
X15760002Y-42500001D01*
X21250000Y-50300001D02*
X21250000Y-54010315D01*
X18000000Y-42500001D02*
X18500000Y-42000001D01*
X12600001Y-42160000D02*
X15420001Y-42160000D01*
X21250000Y-37800001D02*
X21250000Y-36760001D01*
X21250000Y-50300001D02*
X21250000Y-49070001D01*
%TO.N,Board_2-I2C_SCL*%
X21750000Y-40200001D02*
X21750000Y-36520575D01*
X20990000Y-42980001D02*
X20990000Y-41870001D01*
X21750000Y-36520575D02*
X21739427Y-36510002D01*
X21750000Y-52700001D02*
X21750000Y-48730001D01*
X20990000Y-41870001D02*
X21750000Y-41110001D01*
X21750000Y-53740001D02*
X21740001Y-53750000D01*
X21750000Y-48730001D02*
X20790000Y-47770001D01*
X21750000Y-52700001D02*
X21750000Y-53740001D01*
X21750000Y-41110001D02*
X21750000Y-40200001D01*
%TO.N,Board_2-GND*%
X25750000Y-40200001D02*
X25750000Y-36430001D01*
X22770000Y-46380001D02*
X22650000Y-46500001D01*
X22070000Y-45920001D02*
X21440000Y-45920001D01*
X29350000Y-44500000D02*
X29700001Y-44500000D01*
X23250000Y-36749999D02*
X23020001Y-36520000D01*
X24550000Y-47000001D02*
X25450000Y-47000001D01*
X12590001Y-41140000D02*
X13895001Y-41140000D01*
X15400001Y-49100000D02*
X16360001Y-49100000D01*
X25750000Y-53784597D02*
X25750000Y-52700001D01*
X32305000Y-47385001D02*
X32305000Y-46260001D01*
X13895001Y-41140000D02*
X14050000Y-40985001D01*
X24153000Y-49040001D02*
X24420000Y-49040001D01*
X28728500Y-48721501D02*
X28728500Y-47278501D01*
X30300000Y-43900001D02*
X30300000Y-43910001D01*
X23250000Y-49943001D02*
X24153000Y-49040001D01*
X27509998Y-45500001D02*
X28509999Y-44500000D01*
X28630000Y-48820001D02*
X28728500Y-48721501D01*
X24550000Y-47000001D02*
X24120000Y-47000001D01*
D29*
X31715018Y-43827000D02*
X31398019Y-43510001D01*
D28*
X29700001Y-44500000D02*
X30300000Y-43900001D01*
X25450000Y-47000001D02*
X26950000Y-45500001D01*
D29*
X31398019Y-43510001D02*
X30690000Y-43510001D01*
D28*
X20390000Y-45920001D02*
X19990000Y-46320001D01*
X23250000Y-37800001D02*
X23250000Y-36749999D01*
X29350000Y-44500000D02*
X28509999Y-44500000D01*
X26950000Y-45500001D02*
X27509998Y-45500001D01*
X23250000Y-50300001D02*
X23250000Y-49943001D01*
X28728500Y-47278501D02*
X26950000Y-45500001D01*
D29*
X30690000Y-43510001D02*
X30300000Y-43900001D01*
D28*
X21440000Y-45920001D02*
X20390000Y-45920001D01*
X24120000Y-47000001D02*
X23500000Y-46380001D01*
X23500000Y-46380001D02*
X22770000Y-46380001D01*
D29*
X32210000Y-44100001D02*
X31936999Y-43827000D01*
D28*
X15000000Y-49500001D02*
X15400001Y-49100000D01*
X22650000Y-46500001D02*
X22070000Y-45920001D01*
D29*
X31936999Y-43827000D02*
X31715018Y-43827000D01*
D28*
%TO.N,Board_2-D_RDYB*%
X17850000Y-47000001D02*
X18130000Y-46720001D01*
X17850000Y-48880001D02*
X17850000Y-47000001D01*
X28113500Y-48063500D02*
X27950001Y-47900001D01*
X28341891Y-49488892D02*
X28113500Y-49260501D01*
X18130000Y-46720001D02*
X18540000Y-46720001D01*
X16690000Y-49640001D02*
X17090000Y-49640001D01*
X28113500Y-49260501D02*
X28113500Y-48063500D01*
X17090000Y-49640001D02*
X17850000Y-48880001D01*
%TO.N,Board_2-DOUT*%
X26250000Y-50300001D02*
X26250000Y-49750001D01*
X26250000Y-49750001D02*
X26720000Y-49280001D01*
X26250000Y-37800001D02*
X26250000Y-36760001D01*
X26720000Y-49280001D02*
X26720000Y-48820001D01*
X26340000Y-54000001D02*
X26250000Y-53910001D01*
X26250000Y-53910001D02*
X26250000Y-50300001D01*
%TO.N,Board_2-DIN*%
X25250000Y-37800001D02*
X25250000Y-36760001D01*
X25240000Y-54060001D02*
X25250000Y-54050001D01*
X25250000Y-54050001D02*
X25250000Y-50300001D01*
X25250000Y-49560001D02*
X26456500Y-48353501D01*
X25250000Y-50300001D02*
X25250000Y-49560001D01*
X26728501Y-48353501D02*
X26950000Y-48132002D01*
X26456500Y-48353501D02*
X26728501Y-48353501D01*
X26950000Y-48132002D02*
X26950000Y-47900001D01*
%TO.N,Board_2-CS*%
X25728500Y-48353501D02*
X25171500Y-48353501D01*
X25949999Y-47900001D02*
X25949999Y-48132002D01*
X25949999Y-48132002D02*
X25728500Y-48353501D01*
X21752792Y-46720001D02*
X21440000Y-46720001D01*
X22018500Y-46985709D02*
X21752792Y-46720001D01*
X22018500Y-47298501D02*
X22018500Y-46985709D01*
X23320000Y-47630001D02*
X22350000Y-47630001D01*
X24448000Y-47630001D02*
X23320000Y-47630001D01*
X22350000Y-47630001D02*
X22018500Y-47298501D01*
X23000000Y-48000001D02*
X23320000Y-47680001D01*
X25171500Y-48353501D02*
X24448000Y-47630001D01*
X23320000Y-47680001D02*
X23320000Y-47630001D01*
%TO.N,Board_2-AUX2*%
X24750000Y-40200001D02*
X24750000Y-36520001D01*
D29*
X32420000Y-42620001D02*
X32070000Y-42970001D01*
X32420000Y-41970001D02*
X32420000Y-42620001D01*
D28*
X24750000Y-53745223D02*
X24750000Y-52700001D01*
X24740000Y-53755223D02*
X24750000Y-53745223D01*
%TO.N,Board_2-AUX1*%
X29870000Y-41460001D02*
X30200000Y-41790001D01*
X23750000Y-40200001D02*
X23750000Y-36510001D01*
X23750000Y-52700001D02*
X23750000Y-53630001D01*
X23750000Y-53630001D02*
X23530000Y-53850001D01*
X28620000Y-41460001D02*
X29870000Y-41460001D01*
%TO.N,Board_2-ALARMB*%
X22670000Y-47330001D02*
X24880000Y-47330001D01*
X21810000Y-46320001D02*
X22018500Y-46528501D01*
X21440000Y-46320001D02*
X21810000Y-46320001D01*
X22018500Y-46678501D02*
X22670000Y-47330001D01*
X24880000Y-47330001D02*
X25450000Y-47900001D01*
X22018500Y-46528501D02*
X22018500Y-46678501D01*
%TO.N,Board_2-ADD_OUT4*%
X20390000Y-44550001D02*
X20220000Y-44380001D01*
X20220000Y-44380001D02*
X20220000Y-41393885D01*
X20750000Y-40863885D02*
X20750000Y-40200001D01*
X20220000Y-41393885D02*
X20750000Y-40863885D01*
X20390000Y-44870001D02*
X20390000Y-44550001D01*
%TO.N,Board_2-ADD_OUT3*%
X19990000Y-44870001D02*
X19990000Y-41317001D01*
X20250000Y-41057001D02*
X20250000Y-37800001D01*
X19990000Y-41317001D02*
X20250000Y-41057001D01*
%TO.N,Board_2-ADD_OUT2*%
X19590000Y-44870001D02*
X19590000Y-40360001D01*
X19590000Y-40360001D02*
X19750000Y-40200001D01*
%TO.N,Board_2-ADD_OUT1*%
X19190000Y-44870001D02*
X19250000Y-44810001D01*
X19250000Y-44810001D02*
X19250000Y-37800001D01*
%TO.N,Board_2-ADD_IN4*%
X20750000Y-49140001D02*
X19990000Y-48380001D01*
X19990000Y-48380001D02*
X19990000Y-47770001D01*
X20750000Y-52700001D02*
X20750000Y-49140001D01*
%TO.N,Board_2-ADD_IN3*%
X19590000Y-48530001D02*
X19590000Y-47770001D01*
X20250000Y-49190001D02*
X19590000Y-48530001D01*
X20250000Y-50300001D02*
X20250000Y-49190001D01*
%TO.N,Board_2-ADD_IN2*%
X19750000Y-49443001D02*
X19190000Y-48883001D01*
X19750000Y-52700001D02*
X19750000Y-49443001D01*
X19190000Y-48883001D02*
X19190000Y-47770001D01*
%TO.N,Board_2-ADD_IN1*%
X19250000Y-50300001D02*
X18540000Y-49590001D01*
X18540000Y-49590001D02*
X18540000Y-47120001D01*
%TO.N,Board_2-/sdo*%
X27680000Y-48820001D02*
X27449999Y-48590000D01*
X27449999Y-48590000D02*
X27449999Y-47900001D01*
%TO.N,Board_2-/cvref*%
X29350000Y-45000002D02*
X29571502Y-44778500D01*
X29571502Y-44778500D02*
X29728385Y-44778500D01*
X29728385Y-44778500D02*
X29986884Y-44520001D01*
X29986884Y-44520001D02*
X30830000Y-44520001D01*
X30830000Y-44520001D02*
X31250000Y-44100001D01*
%TO.N,Board_2-/Vcap*%
X22630000Y-45520001D02*
X22630000Y-45450001D01*
X21440000Y-45520001D02*
X22630000Y-45520001D01*
X22630000Y-45450001D02*
X22600000Y-45420001D01*
%TO.N,Board_2-+5VA*%
X26750000Y-52700001D02*
X26750000Y-52900001D01*
X29940000Y-37430001D02*
X29940000Y-38940001D01*
X28951278Y-41886501D02*
X29220000Y-42155223D01*
X30300000Y-42940001D02*
X30300000Y-43050001D01*
X31350000Y-50650001D02*
X32700000Y-50650001D01*
X28166500Y-41886501D02*
X28951278Y-41886501D01*
X26750000Y-40470001D02*
X28166500Y-41886501D01*
X29220000Y-43870001D02*
X29350000Y-44000001D01*
X33080000Y-50270001D02*
X33080000Y-41790001D01*
X32290000Y-41000001D02*
X32000000Y-41000001D01*
X26750000Y-36943001D02*
X26846500Y-36846501D01*
X30330000Y-51670001D02*
X31350000Y-50650001D01*
X33080000Y-41790001D02*
X32290000Y-41000001D01*
X30060000Y-53450001D02*
X30330000Y-53180001D01*
X30300000Y-43050001D02*
X29350000Y-44000001D01*
X26750000Y-40200001D02*
X26750000Y-40470001D01*
X29220000Y-42155223D02*
X29220000Y-43870001D01*
X29940000Y-38940001D02*
X32000000Y-41000001D01*
X26750000Y-52900001D02*
X27300000Y-53450001D01*
X32700000Y-50650001D02*
X33080000Y-50270001D01*
X30330000Y-53180001D02*
X30330000Y-51670001D01*
X29356500Y-36846501D02*
X29940000Y-37430001D01*
X27300000Y-53450001D02*
X30060000Y-53450001D01*
X26846500Y-36846501D02*
X29356500Y-36846501D01*
X26750000Y-40200001D02*
X26750000Y-36943001D01*
%TO.N,Board_2-+3.3V*%
X27715000Y-50765001D02*
X27715000Y-52722001D01*
X32673500Y-44416501D02*
X32010000Y-45080001D01*
X32131572Y-50293501D02*
X32305000Y-50120073D01*
X16729999Y-43230000D02*
X17500000Y-44000001D01*
X16500001Y-43230000D02*
X16729999Y-43230000D01*
X29590000Y-48820001D02*
X29740000Y-48820001D01*
X29350000Y-48580001D02*
X29590000Y-48820001D01*
X29816442Y-53116559D02*
X30113000Y-52820001D01*
X29740000Y-48820001D02*
X30750000Y-49830001D01*
X27250000Y-50300001D02*
X27715000Y-50765001D01*
X20790000Y-44165688D02*
X20790000Y-44870001D01*
X20692696Y-44068384D02*
X20790000Y-44165688D01*
X27280000Y-39750001D02*
X27280000Y-37830001D01*
X27280000Y-37830001D02*
X27249999Y-37800000D01*
X32673500Y-43838429D02*
X32673500Y-44416501D01*
X31373500Y-50293501D02*
X32131572Y-50293501D01*
X31370000Y-47525001D02*
X32305000Y-48460001D01*
X31799310Y-43623500D02*
X32458571Y-43623500D01*
X28370000Y-40840001D02*
X27280000Y-39750001D01*
X30113000Y-50627001D02*
X30910000Y-49830001D01*
X30750000Y-49830001D02*
X30910000Y-49830001D01*
X32305000Y-50120073D02*
X32305000Y-48460001D01*
X28370000Y-40840001D02*
X30260000Y-40840001D01*
X28109558Y-53116559D02*
X29816442Y-53116559D01*
X30910000Y-49830001D02*
X31373500Y-50293501D01*
X16500001Y-43230000D02*
X16085002Y-42815001D01*
X31050000Y-42874190D02*
X31799310Y-43623500D01*
X31370000Y-45080001D02*
X31370000Y-47525001D01*
X30113000Y-52820001D02*
X30113000Y-50627001D01*
X31050000Y-41630001D02*
X31050000Y-42874190D01*
X16085002Y-42815001D02*
X15150000Y-42815001D01*
X32458571Y-43623500D02*
X32673500Y-43838429D01*
X29350000Y-47000001D02*
X29350000Y-48580001D01*
X27715000Y-52722001D02*
X28109558Y-53116559D01*
X32010000Y-45080001D02*
X31370000Y-45080001D01*
X30260000Y-40840001D02*
X31050000Y-41630001D01*
%TO.N,Board_1-XTAL2*%
X54555001Y-26220000D02*
X53835000Y-25499999D01*
X54410001Y-24580000D02*
X54555001Y-24725000D01*
X53835000Y-25499999D02*
X53350001Y-25499999D01*
X54555001Y-24725000D02*
X54555001Y-26220000D01*
%TO.N,Board_1-XTAL1*%
X53582002Y-26000001D02*
X53350001Y-26000001D01*
D29*
X55870001Y-29330000D02*
X55870001Y-29275000D01*
X55870001Y-29275000D02*
X54555001Y-27960000D01*
X54555001Y-27960000D02*
X54555001Y-27715000D01*
D28*
X53840501Y-27000500D02*
X53840501Y-26258500D01*
X53840501Y-26258500D02*
X53582002Y-26000001D01*
D29*
X54555001Y-27715000D02*
X53840501Y-27000500D01*
D28*
%TO.N,Board_1-SCLK*%
X49010001Y-28760000D02*
X49010001Y-28620000D01*
X48250001Y-29800000D02*
X48250001Y-29520000D01*
X48130001Y-33340000D02*
X48130001Y-33177000D01*
X50450002Y-27549999D02*
X50450002Y-27400000D01*
X48130001Y-33177000D02*
X48250001Y-33057000D01*
X48250001Y-29520000D02*
X49010001Y-28760000D01*
X49010001Y-28620000D02*
X49559501Y-28070500D01*
X48250001Y-17300000D02*
X48250001Y-16260000D01*
X48250001Y-33057000D02*
X48250001Y-29800000D01*
X49559501Y-28070500D02*
X49929501Y-28070500D01*
X49929501Y-28070500D02*
X50450002Y-27549999D01*
%TO.N,Board_1-RESETB*%
X46250001Y-33487576D02*
X46227586Y-33509991D01*
X39710003Y-24000000D02*
X39000002Y-24000000D01*
X46250001Y-17300000D02*
X46250001Y-16250000D01*
X46250001Y-29800000D02*
X46250001Y-27430000D01*
X46250001Y-27430000D02*
X45440001Y-26620000D01*
X46250001Y-29800000D02*
X46250001Y-33487576D01*
X40360002Y-24649999D02*
X39710003Y-24000000D01*
%TO.N,Board_1-OUT3*%
X40980001Y-25020000D02*
X40500002Y-25499999D01*
X42540001Y-25020000D02*
X40980001Y-25020000D01*
%TO.N,Board_1-OUT2*%
X42540001Y-25420000D02*
X41590001Y-25420000D01*
X40010001Y-27000000D02*
X39000001Y-27000000D01*
X41590001Y-25420000D02*
X40010001Y-27000000D01*
%TO.N,Board_1-OUT1*%
X42020001Y-25820000D02*
X41000001Y-26840000D01*
X42540001Y-25820000D02*
X42020001Y-25820000D01*
X41000001Y-26840000D02*
X41000001Y-28000000D01*
%TO.N,Board_1-Net-(U1-RLDOUT)*%
X47660001Y-23342000D02*
X47660001Y-23060000D01*
D29*
X48510000Y-24040000D02*
X48550001Y-23999999D01*
D28*
X48550001Y-23999999D02*
X48318000Y-23999999D01*
X48318000Y-23999999D02*
X47660001Y-23342000D01*
D29*
X47660001Y-24040000D02*
X48510000Y-24040000D01*
D28*
%TO.N,Board_1-Net-(U1-RLDINV)*%
X46700001Y-23060000D02*
X46700001Y-22620000D01*
X48550001Y-24500001D02*
X48533000Y-24483000D01*
X46700001Y-22620000D02*
X46150001Y-22070000D01*
X46700001Y-24040000D02*
X46700001Y-23060000D01*
X48546502Y-24503500D02*
X47163501Y-24503500D01*
X48550001Y-24500001D02*
X48546502Y-24503500D01*
X47163501Y-24503500D02*
X46700001Y-24040000D01*
%TO.N,Board_1-Net-(U1-RLDIN)*%
X48080000Y-25499999D02*
X47630001Y-25050000D01*
X47630001Y-25050000D02*
X47680001Y-25000000D01*
X48550001Y-25499999D02*
X48080000Y-25499999D01*
X47680001Y-25000000D02*
X48550001Y-25000000D01*
D29*
%TO.N,Board_1-Net-(U1-CMOUT)*%
X47375981Y-22070000D02*
X48550001Y-23244020D01*
X48550001Y-23244020D02*
X48550001Y-23500000D01*
X47110001Y-22070000D02*
X47375981Y-22070000D01*
D28*
%TO.N,Board_1-LED_OUT*%
X39535001Y-20100000D02*
X40093001Y-20100000D01*
X40093001Y-20100000D02*
X40096501Y-20103500D01*
X42346501Y-20103500D02*
X42750001Y-19700000D01*
X40096501Y-20103500D02*
X42346501Y-20103500D01*
X39150001Y-20485000D02*
X39535001Y-20100000D01*
%TO.N,Board_1-LED_IN*%
X39860001Y-32430000D02*
X39860001Y-31410000D01*
X38000001Y-29550000D02*
X38000001Y-22315000D01*
X42750001Y-32200000D02*
X42150001Y-32800000D01*
X38000001Y-22315000D02*
X38050001Y-22315000D01*
X40230001Y-32800000D02*
X39860001Y-32430000D01*
X42150001Y-32800000D02*
X40230001Y-32800000D01*
X39860001Y-31410000D02*
X38000001Y-29550000D01*
%TO.N,Board_1-IN_ref*%
X49671500Y-22146500D02*
X49171501Y-22146500D01*
X48818001Y-22500000D02*
X48550001Y-22500000D01*
X46750001Y-20520000D02*
X46750001Y-19700000D01*
X47543501Y-21933500D02*
X47543501Y-21313500D01*
X47233001Y-28460000D02*
X46750001Y-28943000D01*
X48420001Y-27870000D02*
X47830001Y-28460000D01*
X48550001Y-22500000D02*
X48510001Y-22540000D01*
X47543501Y-21313500D02*
X46750001Y-20520000D01*
X49171501Y-22146500D02*
X48818001Y-22500000D01*
X46750001Y-28943000D02*
X46750001Y-32200000D01*
X48510001Y-22540000D02*
X48150001Y-22540000D01*
X49950000Y-22600000D02*
X49950000Y-22425000D01*
X48150001Y-22540000D02*
X47543501Y-21933500D01*
X47830001Y-28460000D02*
X47233001Y-28460000D01*
X49950000Y-22425000D02*
X49671500Y-22146500D01*
%TO.N,Board_1-IN5*%
X48350001Y-21980000D02*
X48400501Y-21929500D01*
X48400501Y-21929500D02*
X49954502Y-21929500D01*
X49954502Y-21929500D02*
X50450002Y-22425000D01*
X50450002Y-22425000D02*
X50450002Y-22600000D01*
%TO.N,Board_1-IN4*%
X48660001Y-21490000D02*
X50072002Y-21490000D01*
X50950001Y-22367999D02*
X50950001Y-22600000D01*
X50072002Y-21490000D02*
X50950001Y-22367999D01*
%TO.N,Board_1-IN3*%
X50190001Y-21060000D02*
X51450000Y-22319999D01*
X51450000Y-22319999D02*
X51450000Y-22600000D01*
X48260001Y-21060000D02*
X50190001Y-21060000D01*
%TO.N,Board_1-IN2*%
X52210001Y-21800000D02*
X51950002Y-22059999D01*
X51950002Y-22059999D02*
X51950002Y-22600000D01*
%TO.N,Board_1-IN1*%
X52450001Y-22150000D02*
X52450001Y-22600000D01*
X52790001Y-21810000D02*
X52450001Y-22150000D01*
%TO.N,Board_1-I2C_SDA*%
X39420002Y-21659999D02*
X39760003Y-22000000D01*
X44390001Y-27710000D02*
X44390001Y-27270000D01*
X45250001Y-17300000D02*
X45250001Y-16260000D01*
X42000001Y-22000000D02*
X42500001Y-21500000D01*
X45250001Y-29800000D02*
X45250001Y-33510314D01*
X45250001Y-29800000D02*
X45250001Y-28570000D01*
X36600002Y-21659999D02*
X39420002Y-21659999D01*
X45250001Y-28570000D02*
X44390001Y-27710000D01*
X45250001Y-33510314D02*
X45259931Y-33520244D01*
X39760003Y-22000000D02*
X42000001Y-22000000D01*
%TO.N,Board_1-I2C_SCL*%
X45750001Y-33240000D02*
X45740002Y-33249999D01*
X45750001Y-32200000D02*
X45750001Y-28230000D01*
X45750001Y-32200000D02*
X45750001Y-33240000D01*
X45750001Y-28230000D02*
X44790001Y-27270000D01*
X45750001Y-20610000D02*
X45750001Y-19700000D01*
X45750001Y-19700000D02*
X45750001Y-16020574D01*
X44990001Y-22480000D02*
X44990001Y-21370000D01*
X44990001Y-21370000D02*
X45750001Y-20610000D01*
X45750001Y-16020574D02*
X45739428Y-16010001D01*
%TO.N,Board_1-GND*%
X48153001Y-28540000D02*
X48420001Y-28540000D01*
X46650001Y-26000000D02*
X46070001Y-25420000D01*
X39000001Y-29000000D02*
X39400002Y-28599999D01*
X53350001Y-23999999D02*
X52510000Y-23999999D01*
D29*
X55398020Y-23010000D02*
X54690001Y-23010000D01*
X55715019Y-23326999D02*
X55398020Y-23010000D01*
D28*
X37895002Y-20639999D02*
X38050001Y-20485000D01*
X52728501Y-28221500D02*
X52728501Y-26778500D01*
X56305001Y-26885000D02*
X56305001Y-25760000D01*
X53700002Y-23999999D02*
X54300001Y-23400000D01*
X54300001Y-23400000D02*
X54300001Y-23410000D01*
X51509999Y-25000000D02*
X52510000Y-23999999D01*
D29*
X56210001Y-23600000D02*
X55937000Y-23326999D01*
D28*
X46770001Y-25880000D02*
X46650001Y-26000000D01*
X45440001Y-25420000D02*
X44390001Y-25420000D01*
X49450001Y-26500000D02*
X50950001Y-25000000D01*
X46070001Y-25420000D02*
X45440001Y-25420000D01*
X47250001Y-29800000D02*
X47250001Y-29443000D01*
X50950001Y-25000000D02*
X51509999Y-25000000D01*
X53350001Y-23999999D02*
X53700002Y-23999999D01*
X48120001Y-26500000D02*
X47500001Y-25880000D01*
X47250001Y-29443000D02*
X48153001Y-28540000D01*
X52630001Y-28320000D02*
X52728501Y-28221500D01*
X47500001Y-25880000D02*
X46770001Y-25880000D01*
X47250001Y-16249998D02*
X47020002Y-16019999D01*
X49750001Y-33284596D02*
X49750001Y-32200000D01*
X49750001Y-19700000D02*
X49750001Y-15930000D01*
D29*
X55937000Y-23326999D02*
X55715019Y-23326999D01*
D28*
X44390001Y-25420000D02*
X43990001Y-25820000D01*
X36590002Y-20639999D02*
X37895002Y-20639999D01*
X48550001Y-26500000D02*
X49450001Y-26500000D01*
X39400002Y-28599999D02*
X40360002Y-28599999D01*
X47250001Y-17300000D02*
X47250001Y-16249998D01*
X48550001Y-26500000D02*
X48120001Y-26500000D01*
X52728501Y-26778500D02*
X50950001Y-25000000D01*
D29*
X54690001Y-23010000D02*
X54300001Y-23400000D01*
D28*
%TO.N,Board_1-D_RDYB*%
X40690001Y-29140000D02*
X41090001Y-29140000D01*
X42130001Y-26220000D02*
X42540001Y-26220000D01*
X52113501Y-27563499D02*
X51950002Y-27400000D01*
X41850001Y-28380000D02*
X41850001Y-26500000D01*
X41090001Y-29140000D02*
X41850001Y-28380000D01*
X41850001Y-26500000D02*
X42130001Y-26220000D01*
X52113501Y-28760500D02*
X52113501Y-27563499D01*
X52341892Y-28988891D02*
X52113501Y-28760500D01*
%TO.N,Board_1-DOUT*%
X50250001Y-33410000D02*
X50250001Y-29800000D01*
X50250001Y-29800000D02*
X50250001Y-29250000D01*
X50720001Y-28780000D02*
X50720001Y-28320000D01*
X50250001Y-29250000D02*
X50720001Y-28780000D01*
X50340001Y-33500000D02*
X50250001Y-33410000D01*
X50250001Y-17300000D02*
X50250001Y-16260000D01*
%TO.N,Board_1-DIN*%
X50456501Y-27853500D02*
X50728502Y-27853500D01*
X49250001Y-29060000D02*
X50456501Y-27853500D01*
X50950001Y-27632001D02*
X50950001Y-27400000D01*
X49250001Y-17300000D02*
X49250001Y-16260000D01*
X49250001Y-29800000D02*
X49250001Y-29060000D01*
X49250001Y-33550000D02*
X49250001Y-29800000D01*
X50728502Y-27853500D02*
X50950001Y-27632001D01*
X49240001Y-33560000D02*
X49250001Y-33550000D01*
%TO.N,Board_1-CS*%
X49950000Y-27400000D02*
X49950000Y-27632001D01*
X49950000Y-27632001D02*
X49728501Y-27853500D01*
X48448001Y-27130000D02*
X47320001Y-27130000D01*
X46018501Y-26798500D02*
X46018501Y-26485708D01*
X46018501Y-26485708D02*
X45752793Y-26220000D01*
X49171501Y-27853500D02*
X48448001Y-27130000D01*
X46350001Y-27130000D02*
X46018501Y-26798500D01*
X49728501Y-27853500D02*
X49171501Y-27853500D01*
X47320001Y-27130000D02*
X46350001Y-27130000D01*
X45752793Y-26220000D02*
X45440001Y-26220000D01*
X47000001Y-27500000D02*
X47320001Y-27180000D01*
X47320001Y-27180000D02*
X47320001Y-27130000D01*
%TO.N,Board_1-AUX2*%
X48750001Y-33245222D02*
X48750001Y-32200000D01*
D29*
X56420001Y-22120000D02*
X56070001Y-22470000D01*
X56420001Y-21470000D02*
X56420001Y-22120000D01*
D28*
X48750001Y-19700000D02*
X48750001Y-16020000D01*
X48740001Y-33255222D02*
X48750001Y-33245222D01*
%TO.N,Board_1-AUX1*%
X53870001Y-20960000D02*
X54200001Y-21290000D01*
X47750001Y-32200000D02*
X47750001Y-33130000D01*
X47750001Y-33130000D02*
X47530001Y-33350000D01*
X52620001Y-20960000D02*
X53870001Y-20960000D01*
X47750001Y-19700000D02*
X47750001Y-16010000D01*
%TO.N,Board_1-ALARMB*%
X48880001Y-26830000D02*
X49450001Y-27400000D01*
X45440001Y-25820000D02*
X45810001Y-25820000D01*
X46018501Y-26028500D02*
X46018501Y-26178500D01*
X45810001Y-25820000D02*
X46018501Y-26028500D01*
X46670001Y-26830000D02*
X48880001Y-26830000D01*
X46018501Y-26178500D02*
X46670001Y-26830000D01*
%TO.N,Board_1-ADD_OUT4*%
X44390001Y-24370000D02*
X44390001Y-24050000D01*
X44220001Y-20893884D02*
X44750001Y-20363884D01*
X44390001Y-24050000D02*
X44220001Y-23880000D01*
X44750001Y-20363884D02*
X44750001Y-19700000D01*
X44220001Y-23880000D02*
X44220001Y-20893884D01*
%TO.N,Board_1-ADD_OUT3*%
X43990001Y-20817000D02*
X44250001Y-20557000D01*
X43990001Y-24370000D02*
X43990001Y-20817000D01*
X44250001Y-20557000D02*
X44250001Y-17300000D01*
%TO.N,Board_1-ADD_OUT2*%
X43590001Y-24370000D02*
X43590001Y-19860000D01*
X43590001Y-19860000D02*
X43750001Y-19700000D01*
%TO.N,Board_1-ADD_OUT1*%
X43250001Y-24310000D02*
X43250001Y-17300000D01*
X43190001Y-24370000D02*
X43250001Y-24310000D01*
%TO.N,Board_1-ADD_IN4*%
X43990001Y-27880000D02*
X43990001Y-27270000D01*
X44750001Y-28640000D02*
X43990001Y-27880000D01*
X44750001Y-32200000D02*
X44750001Y-28640000D01*
%TO.N,Board_1-ADD_IN3*%
X43590001Y-28030000D02*
X43590001Y-27270000D01*
X44250001Y-28690000D02*
X43590001Y-28030000D01*
X44250001Y-29800000D02*
X44250001Y-28690000D01*
%TO.N,Board_1-ADD_IN2*%
X43750001Y-32200000D02*
X43750001Y-28943000D01*
X43750001Y-28943000D02*
X43190001Y-28383000D01*
X43190001Y-28383000D02*
X43190001Y-27270000D01*
%TO.N,Board_1-ADD_IN1*%
X43250001Y-29800000D02*
X42540001Y-29090000D01*
X42540001Y-29090000D02*
X42540001Y-26620000D01*
%TO.N,Board_1-/sdo*%
X51450000Y-28089999D02*
X51450000Y-27400000D01*
X51680001Y-28320000D02*
X51450000Y-28089999D01*
%TO.N,Board_1-/cvref*%
X53728386Y-24278499D02*
X53986885Y-24020000D01*
X54830001Y-24020000D02*
X55250001Y-23600000D01*
X53986885Y-24020000D02*
X54830001Y-24020000D01*
X53571503Y-24278499D02*
X53728386Y-24278499D01*
X53350001Y-24500001D02*
X53571503Y-24278499D01*
%TO.N,Board_1-/Vcap*%
X46630001Y-24950000D02*
X46600001Y-24920000D01*
X45440001Y-25020000D02*
X46630001Y-25020000D01*
X46630001Y-25020000D02*
X46630001Y-24950000D01*
%TO.N,Board_1-+5VA*%
X53940001Y-18440000D02*
X56000001Y-20500000D01*
X56290001Y-20500000D02*
X56000001Y-20500000D01*
X50750001Y-32400000D02*
X51300001Y-32950000D01*
X52166501Y-21386500D02*
X52951279Y-21386500D01*
X53356501Y-16346500D02*
X53940001Y-16930000D01*
X54330001Y-32680000D02*
X54330001Y-31170000D01*
X51300001Y-32950000D02*
X54060001Y-32950000D01*
X50750001Y-19970000D02*
X52166501Y-21386500D01*
X50750001Y-16443000D02*
X50846501Y-16346500D01*
X52951279Y-21386500D02*
X53220001Y-21655222D01*
X54060001Y-32950000D02*
X54330001Y-32680000D01*
X56700001Y-30150000D02*
X57080001Y-29770000D01*
X54300001Y-22440000D02*
X54300001Y-22550000D01*
X50750001Y-19700000D02*
X50750001Y-19970000D01*
X57080001Y-21290000D02*
X56290001Y-20500000D01*
X53220001Y-23370000D02*
X53350001Y-23500000D01*
X53220001Y-21655222D02*
X53220001Y-23370000D01*
X55350001Y-30150000D02*
X56700001Y-30150000D01*
X54330001Y-31170000D02*
X55350001Y-30150000D01*
X50750001Y-32200000D02*
X50750001Y-32400000D01*
X57080001Y-29770000D02*
X57080001Y-21290000D01*
X50750001Y-19700000D02*
X50750001Y-16443000D01*
X53940001Y-16930000D02*
X53940001Y-18440000D01*
X50846501Y-16346500D02*
X53356501Y-16346500D01*
X54300001Y-22550000D02*
X53350001Y-23500000D01*
%TO.N,Board_1-+3.3V*%
X53590001Y-28320000D02*
X53740001Y-28320000D01*
X55050001Y-21130000D02*
X55050001Y-22374189D01*
X55050001Y-22374189D02*
X55799311Y-23123499D01*
X54113001Y-32320000D02*
X54113001Y-30127000D01*
X54910001Y-29330000D02*
X55373501Y-29793500D01*
X44790001Y-23665687D02*
X44790001Y-24370000D01*
X56673501Y-23916500D02*
X56010001Y-24580000D01*
X55373501Y-29793500D02*
X56131573Y-29793500D01*
X52109559Y-32616558D02*
X53816443Y-32616558D01*
X56305001Y-29620072D02*
X56305001Y-27960000D01*
X53740001Y-28320000D02*
X54750001Y-29330000D01*
X40500002Y-22729999D02*
X40085003Y-22315000D01*
X53350001Y-28080000D02*
X53590001Y-28320000D01*
X52370001Y-20340000D02*
X51280001Y-19250000D01*
X54113001Y-30127000D02*
X54910001Y-29330000D01*
X51715001Y-30265000D02*
X51715001Y-32222000D01*
X44692697Y-23568383D02*
X44790001Y-23665687D01*
X55370001Y-24580000D02*
X55370001Y-27025000D01*
X56131573Y-29793500D02*
X56305001Y-29620072D01*
X51250001Y-29800000D02*
X51715001Y-30265000D01*
X55799311Y-23123499D02*
X56458572Y-23123499D01*
X53816443Y-32616558D02*
X54113001Y-32320000D01*
X53350001Y-26500000D02*
X53350001Y-28080000D01*
X51280001Y-17330000D02*
X51250000Y-17299999D01*
X54750001Y-29330000D02*
X54910001Y-29330000D01*
X52370001Y-20340000D02*
X54260001Y-20340000D01*
X55370001Y-27025000D02*
X56305001Y-27960000D01*
X56458572Y-23123499D02*
X56673501Y-23338428D01*
X54260001Y-20340000D02*
X55050001Y-21130000D01*
X56010001Y-24580000D02*
X55370001Y-24580000D01*
X51280001Y-19250000D02*
X51280001Y-17330000D01*
X51715001Y-32222000D02*
X52109559Y-32616558D01*
X56673501Y-23338428D02*
X56673501Y-23916500D01*
X40085003Y-22315000D02*
X39150001Y-22315000D01*
X40500002Y-22729999D02*
X40730000Y-22729999D01*
X40730000Y-22729999D02*
X41500001Y-23500000D01*
%TO.N,Board_0-XTAL2*%
X30555000Y-26220000D02*
X29834999Y-25499999D01*
X30410000Y-24580000D02*
X30555000Y-24725000D01*
X29834999Y-25499999D02*
X29350000Y-25499999D01*
X30555000Y-24725000D02*
X30555000Y-26220000D01*
%TO.N,Board_0-XTAL1*%
X29840500Y-26258500D02*
X29582001Y-26000001D01*
D29*
X31870000Y-29275000D02*
X30555000Y-27960000D01*
X30555000Y-27715000D02*
X29840500Y-27000500D01*
D28*
X29840500Y-27000500D02*
X29840500Y-26258500D01*
X29582001Y-26000001D02*
X29350000Y-26000001D01*
D29*
X31870000Y-29330000D02*
X31870000Y-29275000D01*
X30555000Y-27960000D02*
X30555000Y-27715000D01*
D28*
%TO.N,Board_0-SCLK*%
X25559500Y-28070500D02*
X25929500Y-28070500D01*
X24130000Y-33340000D02*
X24130000Y-33177000D01*
X24250000Y-17300000D02*
X24250000Y-16260000D01*
X25010000Y-28760000D02*
X25010000Y-28620000D01*
X25010000Y-28620000D02*
X25559500Y-28070500D01*
X24130000Y-33177000D02*
X24250000Y-33057000D01*
X24250000Y-29520000D02*
X25010000Y-28760000D01*
X24250000Y-33057000D02*
X24250000Y-29800000D01*
X25929500Y-28070500D02*
X26450001Y-27549999D01*
X26450001Y-27549999D02*
X26450001Y-27400000D01*
X24250000Y-29800000D02*
X24250000Y-29520000D01*
%TO.N,Board_0-RESETB*%
X22250000Y-29800000D02*
X22250000Y-27430000D01*
X15710002Y-24000000D02*
X15000001Y-24000000D01*
X22250000Y-27430000D02*
X21440000Y-26620000D01*
X22250000Y-29800000D02*
X22250000Y-33487576D01*
X22250000Y-33487576D02*
X22227585Y-33509991D01*
X22250000Y-17300000D02*
X22250000Y-16250000D01*
X16360001Y-24649999D02*
X15710002Y-24000000D01*
%TO.N,Board_0-OUT3*%
X16980000Y-25020000D02*
X16500001Y-25499999D01*
X18540000Y-25020000D02*
X16980000Y-25020000D01*
%TO.N,Board_0-OUT2*%
X18540000Y-25420000D02*
X17590000Y-25420000D01*
X17590000Y-25420000D02*
X16010000Y-27000000D01*
X16010000Y-27000000D02*
X15000000Y-27000000D01*
%TO.N,Board_0-OUT1*%
X18540000Y-25820000D02*
X18020000Y-25820000D01*
X17000000Y-26840000D02*
X17000000Y-28000000D01*
X18020000Y-25820000D02*
X17000000Y-26840000D01*
D29*
%TO.N,Board_0-Net-(U1-RLDOUT)*%
X24509999Y-24040000D02*
X24550000Y-23999999D01*
D28*
X24550000Y-23999999D02*
X24317999Y-23999999D01*
D29*
X23660000Y-24040000D02*
X24509999Y-24040000D01*
D28*
X23660000Y-23342000D02*
X23660000Y-23060000D01*
X24317999Y-23999999D02*
X23660000Y-23342000D01*
%TO.N,Board_0-Net-(U1-RLDINV)*%
X22700000Y-24040000D02*
X22700000Y-23060000D01*
X23163500Y-24503500D02*
X22700000Y-24040000D01*
X24546501Y-24503500D02*
X23163500Y-24503500D01*
X22700000Y-22620000D02*
X22150000Y-22070000D01*
X22700000Y-23060000D02*
X22700000Y-22620000D01*
X24550000Y-24500001D02*
X24546501Y-24503500D01*
X24550000Y-24500001D02*
X24532999Y-24483000D01*
%TO.N,Board_0-Net-(U1-RLDIN)*%
X23680000Y-25000000D02*
X24550000Y-25000000D01*
X24079999Y-25499999D02*
X23630000Y-25050000D01*
X23630000Y-25050000D02*
X23680000Y-25000000D01*
X24550000Y-25499999D02*
X24079999Y-25499999D01*
D29*
%TO.N,Board_0-Net-(U1-CMOUT)*%
X24550000Y-23244020D02*
X24550000Y-23500000D01*
X23375980Y-22070000D02*
X24550000Y-23244020D01*
X23110000Y-22070000D02*
X23375980Y-22070000D01*
D28*
%TO.N,Board_0-LED_OUT*%
X15535000Y-20100000D02*
X16093000Y-20100000D01*
X15150000Y-20485000D02*
X15535000Y-20100000D01*
X16093000Y-20100000D02*
X16096500Y-20103500D01*
X18346500Y-20103500D02*
X18750000Y-19700000D01*
X16096500Y-20103500D02*
X18346500Y-20103500D01*
%TO.N,Board_0-LED_IN*%
X14000000Y-29550000D02*
X14000000Y-22315000D01*
X18150000Y-32800000D02*
X16230000Y-32800000D01*
X14000000Y-22315000D02*
X14050000Y-22315000D01*
X15860000Y-31410000D02*
X14000000Y-29550000D01*
X18750000Y-32200000D02*
X18150000Y-32800000D01*
X16230000Y-32800000D02*
X15860000Y-32430000D01*
X15860000Y-32430000D02*
X15860000Y-31410000D01*
%TO.N,Board_0-IN_ref*%
X24510000Y-22540000D02*
X24150000Y-22540000D01*
X23233000Y-28460000D02*
X22750000Y-28943000D01*
X22750000Y-20520000D02*
X22750000Y-19700000D01*
X25671499Y-22146500D02*
X25171500Y-22146500D01*
X24150000Y-22540000D02*
X23543500Y-21933500D01*
X22750000Y-28943000D02*
X22750000Y-32200000D01*
X24420000Y-27870000D02*
X23830000Y-28460000D01*
X24550000Y-22500000D02*
X24510000Y-22540000D01*
X25949999Y-22425000D02*
X25671499Y-22146500D01*
X25949999Y-22600000D02*
X25949999Y-22425000D01*
X25171500Y-22146500D02*
X24818000Y-22500000D01*
X23830000Y-28460000D02*
X23233000Y-28460000D01*
X23543500Y-21933500D02*
X23543500Y-21313500D01*
X24818000Y-22500000D02*
X24550000Y-22500000D01*
X23543500Y-21313500D02*
X22750000Y-20520000D01*
%TO.N,Board_0-IN5*%
X25954501Y-21929500D02*
X26450001Y-22425000D01*
X24350000Y-21980000D02*
X24400500Y-21929500D01*
X26450001Y-22425000D02*
X26450001Y-22600000D01*
X24400500Y-21929500D02*
X25954501Y-21929500D01*
%TO.N,Board_0-IN4*%
X26072001Y-21490000D02*
X26950000Y-22367999D01*
X24660000Y-21490000D02*
X26072001Y-21490000D01*
X26950000Y-22367999D02*
X26950000Y-22600000D01*
%TO.N,Board_0-IN3*%
X26190000Y-21060000D02*
X27449999Y-22319999D01*
X24260000Y-21060000D02*
X26190000Y-21060000D01*
X27449999Y-22319999D02*
X27449999Y-22600000D01*
%TO.N,Board_0-IN2*%
X28210000Y-21800000D02*
X27950001Y-22059999D01*
X27950001Y-22059999D02*
X27950001Y-22600000D01*
%TO.N,Board_0-IN1*%
X28790000Y-21810000D02*
X28450000Y-22150000D01*
X28450000Y-22150000D02*
X28450000Y-22600000D01*
%TO.N,Board_0-I2C_SDA*%
X21250000Y-29800000D02*
X21250000Y-33510314D01*
X15760002Y-22000000D02*
X18000000Y-22000000D01*
X18000000Y-22000000D02*
X18500000Y-21500000D01*
X20390000Y-27710000D02*
X20390000Y-27270000D01*
X21250000Y-33510314D02*
X21259930Y-33520244D01*
X12600001Y-21659999D02*
X15420001Y-21659999D01*
X21250000Y-29800000D02*
X21250000Y-28570000D01*
X21250000Y-28570000D02*
X20390000Y-27710000D01*
X21250000Y-17300000D02*
X21250000Y-16260000D01*
X15420001Y-21659999D02*
X15760002Y-22000000D01*
%TO.N,Board_0-I2C_SCL*%
X21750000Y-16020574D02*
X21739427Y-16010001D01*
X21750000Y-19700000D02*
X21750000Y-16020574D01*
X20990000Y-21370000D02*
X21750000Y-20610000D01*
X21750000Y-20610000D02*
X21750000Y-19700000D01*
X20990000Y-22480000D02*
X20990000Y-21370000D01*
X21750000Y-28230000D02*
X20790000Y-27270000D01*
X21750000Y-32200000D02*
X21750000Y-28230000D01*
X21750000Y-32200000D02*
X21750000Y-33240000D01*
X21750000Y-33240000D02*
X21740001Y-33249999D01*
D29*
%TO.N,Board_0-GND*%
X31398019Y-23010000D02*
X30690000Y-23010000D01*
X30690000Y-23010000D02*
X30300000Y-23400000D01*
X32210000Y-23600000D02*
X31936999Y-23326999D01*
D28*
X24550000Y-26500000D02*
X24120000Y-26500000D01*
X21440000Y-25420000D02*
X20390000Y-25420000D01*
X22650000Y-26000000D02*
X22070000Y-25420000D01*
X29350000Y-23999999D02*
X29700001Y-23999999D01*
X23250000Y-29443000D02*
X24153000Y-28540000D01*
X25750000Y-33284596D02*
X25750000Y-32200000D01*
X23250000Y-16249998D02*
X23020001Y-16019999D01*
X23250000Y-29800000D02*
X23250000Y-29443000D01*
X28728500Y-26778500D02*
X26950000Y-25000000D01*
X26950000Y-25000000D02*
X27509998Y-25000000D01*
X29350000Y-23999999D02*
X28509999Y-23999999D01*
X15400001Y-28599999D02*
X16360001Y-28599999D01*
X23250000Y-17300000D02*
X23250000Y-16249998D01*
X27509998Y-25000000D02*
X28509999Y-23999999D01*
D29*
X31715018Y-23326999D02*
X31398019Y-23010000D01*
D28*
X29700001Y-23999999D02*
X30300000Y-23400000D01*
X20390000Y-25420000D02*
X19990000Y-25820000D01*
X28728500Y-28221500D02*
X28728500Y-26778500D01*
X15000000Y-29000000D02*
X15400001Y-28599999D01*
X24550000Y-26500000D02*
X25450000Y-26500000D01*
D29*
X31936999Y-23326999D02*
X31715018Y-23326999D01*
D28*
X22770000Y-25880000D02*
X22650000Y-26000000D01*
X25750000Y-19700000D02*
X25750000Y-15930000D01*
X22070000Y-25420000D02*
X21440000Y-25420000D01*
X13895001Y-20639999D02*
X14050000Y-20485000D01*
X24153000Y-28540000D02*
X24420000Y-28540000D01*
X24120000Y-26500000D02*
X23500000Y-25880000D01*
X28630000Y-28320000D02*
X28728500Y-28221500D01*
X12590001Y-20639999D02*
X13895001Y-20639999D01*
X30300000Y-23400000D02*
X30300000Y-23410000D01*
X32305000Y-26885000D02*
X32305000Y-25760000D01*
X23500000Y-25880000D02*
X22770000Y-25880000D01*
X25450000Y-26500000D02*
X26950000Y-25000000D01*
%TO.N,Board_0-D_RDYB*%
X28113500Y-27563499D02*
X27950001Y-27400000D01*
X28113500Y-28760500D02*
X28113500Y-27563499D01*
X16690000Y-29140000D02*
X17090000Y-29140000D01*
X17850000Y-28380000D02*
X17850000Y-26500000D01*
X18130000Y-26220000D02*
X18540000Y-26220000D01*
X17090000Y-29140000D02*
X17850000Y-28380000D01*
X17850000Y-26500000D02*
X18130000Y-26220000D01*
X28341891Y-28988891D02*
X28113500Y-28760500D01*
%TO.N,Board_0-DOUT*%
X26250000Y-29250000D02*
X26720000Y-28780000D01*
X26250000Y-29800000D02*
X26250000Y-29250000D01*
X26250000Y-17300000D02*
X26250000Y-16260000D01*
X26340000Y-33500000D02*
X26250000Y-33410000D01*
X26720000Y-28780000D02*
X26720000Y-28320000D01*
X26250000Y-33410000D02*
X26250000Y-29800000D01*
%TO.N,Board_0-DIN*%
X25250000Y-33550000D02*
X25250000Y-29800000D01*
X26950000Y-27632001D02*
X26950000Y-27400000D01*
X25250000Y-17300000D02*
X25250000Y-16260000D01*
X25250000Y-29060000D02*
X26456500Y-27853500D01*
X25240000Y-33560000D02*
X25250000Y-33550000D01*
X26456500Y-27853500D02*
X26728501Y-27853500D01*
X25250000Y-29800000D02*
X25250000Y-29060000D01*
X26728501Y-27853500D02*
X26950000Y-27632001D01*
%TO.N,Board_0-CS*%
X22350000Y-27130000D02*
X22018500Y-26798500D01*
X23320000Y-27130000D02*
X22350000Y-27130000D01*
X22018500Y-26798500D02*
X22018500Y-26485708D01*
X23320000Y-27180000D02*
X23320000Y-27130000D01*
X25728500Y-27853500D02*
X25171500Y-27853500D01*
X25949999Y-27400000D02*
X25949999Y-27632001D01*
X21752792Y-26220000D02*
X21440000Y-26220000D01*
X24448000Y-27130000D02*
X23320000Y-27130000D01*
X22018500Y-26485708D02*
X21752792Y-26220000D01*
X25171500Y-27853500D02*
X24448000Y-27130000D01*
X25949999Y-27632001D02*
X25728500Y-27853500D01*
X23000000Y-27500000D02*
X23320000Y-27180000D01*
%TO.N,Board_0-AUX2*%
X24750000Y-19700000D02*
X24750000Y-16020000D01*
D29*
X32420000Y-22120000D02*
X32070000Y-22470000D01*
D28*
X24740000Y-33255222D02*
X24750000Y-33245222D01*
X24750000Y-33245222D02*
X24750000Y-32200000D01*
D29*
X32420000Y-21470000D02*
X32420000Y-22120000D01*
D28*
%TO.N,Board_0-AUX1*%
X23750000Y-19700000D02*
X23750000Y-16010000D01*
X23750000Y-33130000D02*
X23530000Y-33350000D01*
X29870000Y-20960000D02*
X30200000Y-21290000D01*
X28620000Y-20960000D02*
X29870000Y-20960000D01*
X23750000Y-32200000D02*
X23750000Y-33130000D01*
%TO.N,Board_0-ALARMB*%
X24880000Y-26830000D02*
X25450000Y-27400000D01*
X22670000Y-26830000D02*
X24880000Y-26830000D01*
X22018500Y-26178500D02*
X22670000Y-26830000D01*
X21810000Y-25820000D02*
X22018500Y-26028500D01*
X22018500Y-26028500D02*
X22018500Y-26178500D01*
X21440000Y-25820000D02*
X21810000Y-25820000D01*
%TO.N,Board_0-ADD_OUT4*%
X20220000Y-20893884D02*
X20750000Y-20363884D01*
X20390000Y-24370000D02*
X20390000Y-24050000D01*
X20750000Y-20363884D02*
X20750000Y-19700000D01*
X20220000Y-23880000D02*
X20220000Y-20893884D01*
X20390000Y-24050000D02*
X20220000Y-23880000D01*
%TO.N,Board_0-ADD_OUT3*%
X20250000Y-20557000D02*
X20250000Y-17300000D01*
X19990000Y-20817000D02*
X20250000Y-20557000D01*
X19990000Y-24370000D02*
X19990000Y-20817000D01*
%TO.N,Board_0-ADD_OUT2*%
X19590000Y-19860000D02*
X19750000Y-19700000D01*
X19590000Y-24370000D02*
X19590000Y-19860000D01*
%TO.N,Board_0-ADD_OUT1*%
X19250000Y-24310000D02*
X19250000Y-17300000D01*
X19190000Y-24370000D02*
X19250000Y-24310000D01*
%TO.N,Board_0-ADD_IN4*%
X19990000Y-27880000D02*
X19990000Y-27270000D01*
X20750000Y-32200000D02*
X20750000Y-28640000D01*
X20750000Y-28640000D02*
X19990000Y-27880000D01*
%TO.N,Board_0-ADD_IN3*%
X20250000Y-29800000D02*
X20250000Y-28690000D01*
X19590000Y-28030000D02*
X19590000Y-27270000D01*
X20250000Y-28690000D02*
X19590000Y-28030000D01*
%TO.N,Board_0-ADD_IN2*%
X19750000Y-28943000D02*
X19190000Y-28383000D01*
X19750000Y-32200000D02*
X19750000Y-28943000D01*
X19190000Y-28383000D02*
X19190000Y-27270000D01*
%TO.N,Board_0-ADD_IN1*%
X18540000Y-29090000D02*
X18540000Y-26620000D01*
X19250000Y-29800000D02*
X18540000Y-29090000D01*
%TO.N,Board_0-/sdo*%
X27680000Y-28320000D02*
X27449999Y-28089999D01*
X27449999Y-28089999D02*
X27449999Y-27400000D01*
%TO.N,Board_0-/cvref*%
X29728385Y-24278499D02*
X29986884Y-24020000D01*
X29986884Y-24020000D02*
X30830000Y-24020000D01*
X30830000Y-24020000D02*
X31250000Y-23600000D01*
X29571502Y-24278499D02*
X29728385Y-24278499D01*
X29350000Y-24500001D02*
X29571502Y-24278499D01*
%TO.N,Board_0-/Vcap*%
X22630000Y-24950000D02*
X22600000Y-24920000D01*
X21440000Y-25020000D02*
X22630000Y-25020000D01*
X22630000Y-25020000D02*
X22630000Y-24950000D01*
%TO.N,Board_0-+5VA*%
X30300000Y-22440000D02*
X30300000Y-22550000D01*
X30300000Y-22550000D02*
X29350000Y-23500000D01*
X30330000Y-31170000D02*
X31350000Y-30150000D01*
X32700000Y-30150000D02*
X33080000Y-29770000D01*
X29356500Y-16346500D02*
X29940000Y-16930000D01*
X29220000Y-23370000D02*
X29350000Y-23500000D01*
X29220000Y-21655222D02*
X29220000Y-23370000D01*
X27300000Y-32950000D02*
X30060000Y-32950000D01*
X30330000Y-32680000D02*
X30330000Y-31170000D01*
X32290000Y-20500000D02*
X32000000Y-20500000D01*
X26846500Y-16346500D02*
X29356500Y-16346500D01*
X31350000Y-30150000D02*
X32700000Y-30150000D01*
X28166500Y-21386500D02*
X28951278Y-21386500D01*
X26750000Y-19970000D02*
X28166500Y-21386500D01*
X33080000Y-29770000D02*
X33080000Y-21290000D01*
X29940000Y-18440000D02*
X32000000Y-20500000D01*
X29940000Y-16930000D02*
X29940000Y-18440000D01*
X26750000Y-19700000D02*
X26750000Y-19970000D01*
X28951278Y-21386500D02*
X29220000Y-21655222D01*
X26750000Y-16443000D02*
X26846500Y-16346500D01*
X26750000Y-19700000D02*
X26750000Y-16443000D01*
X26750000Y-32400000D02*
X27300000Y-32950000D01*
X33080000Y-21290000D02*
X32290000Y-20500000D01*
X30060000Y-32950000D02*
X30330000Y-32680000D01*
X26750000Y-32200000D02*
X26750000Y-32400000D01*
%TO.N,Board_0-+3.3V*%
X28370000Y-20340000D02*
X30260000Y-20340000D01*
X32305000Y-29620072D02*
X32305000Y-27960000D01*
X32673500Y-23916500D02*
X32010000Y-24580000D01*
X31373500Y-29793500D02*
X32131572Y-29793500D01*
X30113000Y-30127000D02*
X30910000Y-29330000D01*
X27715000Y-30265000D02*
X27715000Y-32222000D01*
X29590000Y-28320000D02*
X29740000Y-28320000D01*
X31370000Y-27025000D02*
X32305000Y-27960000D01*
X27715000Y-32222000D02*
X28109558Y-32616558D01*
X30113000Y-32320000D02*
X30113000Y-30127000D01*
X31799310Y-23123499D02*
X32458571Y-23123499D01*
X32131572Y-29793500D02*
X32305000Y-29620072D01*
X31050000Y-22374189D02*
X31799310Y-23123499D01*
X16729999Y-22729999D02*
X17500000Y-23500000D01*
X29740000Y-28320000D02*
X30750000Y-29330000D01*
X28109558Y-32616558D02*
X29816442Y-32616558D01*
X27280000Y-17330000D02*
X27249999Y-17299999D01*
X31370000Y-24580000D02*
X31370000Y-27025000D01*
X28370000Y-20340000D02*
X27280000Y-19250000D01*
X30910000Y-29330000D02*
X31373500Y-29793500D01*
X29350000Y-26500000D02*
X29350000Y-28080000D01*
X31050000Y-21130000D02*
X31050000Y-22374189D01*
X27280000Y-19250000D02*
X27280000Y-17330000D01*
X16500001Y-22729999D02*
X16085002Y-22315000D01*
X16500001Y-22729999D02*
X16729999Y-22729999D01*
X30750000Y-29330000D02*
X30910000Y-29330000D01*
X30260000Y-20340000D02*
X31050000Y-21130000D01*
X32010000Y-24580000D02*
X31370000Y-24580000D01*
X29816442Y-32616558D02*
X30113000Y-32320000D01*
X32673500Y-23338428D02*
X32673500Y-23916500D01*
X20692696Y-23568383D02*
X20790000Y-23665687D01*
X20790000Y-23665687D02*
X20790000Y-24370000D01*
X16085002Y-22315000D02*
X15150000Y-22315000D01*
X32458571Y-23123499D02*
X32673500Y-23338428D01*
X27250000Y-29800000D02*
X27715000Y-30265000D01*
X29350000Y-28080000D02*
X29590000Y-28320000D01*
%TD*%
M02*
