%TF.GenerationSoftware,KiCad,Pcbnew,7.0.2-6a45011f42~172~ubuntu22.04.1*%
%TF.CreationDate,2023-05-08T22:23:16+01:00*%
%TF.ProjectId,panel,70616e65-6c2e-46b6-9963-61645f706362,rev?*%
%TF.SameCoordinates,Original*%
%TF.FileFunction,Soldermask,Bot*%
%TF.FilePolarity,Negative*%
%FSLAX46Y46*%
G04 Gerber Fmt 4.6, Leading zero omitted, Abs format (unit mm)*
G04 Created by KiCad (PCBNEW 7.0.2-6a45011f42~172~ubuntu22.04.1) date 2023-05-08 22:23:16*
%MOMM*%
%LPD*%
G01*
G04 APERTURE LIST*
%ADD10C,1.500000*%
%ADD11C,1.000000*%
%ADD12C,0.400000*%
%ADD13C,2.000000*%
G04 APERTURE END LIST*
D10*
X55250001Y-38500001D02*
G75*
G03*
X55250001Y-38500001I-750000J0D01*
G01*
X23250000Y-38500001D02*
G75*
G03*
X23250000Y-38500001I-750000J0D01*
G01*
G36*
X25000000Y-38500001D02*
G01*
X28000000Y-38500001D01*
X28000000Y-52000001D01*
X25000000Y-52000001D01*
X25000000Y-38500001D01*
G37*
X43250001Y-38500001D02*
G75*
G03*
X43250001Y-38500001I-750000J0D01*
G01*
G36*
X45000001Y-38500001D02*
G01*
X48000001Y-38500001D01*
X48000001Y-52000001D01*
X45000001Y-52000001D01*
X45000001Y-38500001D01*
G37*
G36*
X53000001Y-38500001D02*
G01*
X56000001Y-38500001D01*
X56000001Y-52000001D01*
X53000001Y-52000001D01*
X53000001Y-38500001D01*
G37*
X39250001Y-38500001D02*
G75*
G03*
X39250001Y-38500001I-750000J0D01*
G01*
X51250001Y-18000000D02*
G75*
G03*
X51250001Y-18000000I-750000J0D01*
G01*
G36*
X29000000Y-38500001D02*
G01*
X32000000Y-38500001D01*
X32000000Y-52000001D01*
X29000000Y-52000001D01*
X29000000Y-38500001D01*
G37*
X19250000Y-31500000D02*
G75*
G03*
X19250000Y-31500000I-750000J0D01*
G01*
X19250000Y-52000001D02*
G75*
G03*
X19250000Y-52000001I-750000J0D01*
G01*
X31250000Y-31500000D02*
G75*
G03*
X31250000Y-31500000I-750000J0D01*
G01*
G36*
X21000000Y-38500001D02*
G01*
X24000000Y-38500001D01*
X24000000Y-52000001D01*
X21000000Y-52000001D01*
X21000000Y-38500001D01*
G37*
G36*
X53000001Y-18000000D02*
G01*
X56000001Y-18000000D01*
X56000001Y-31500000D01*
X53000001Y-31500000D01*
X53000001Y-18000000D01*
G37*
X51250001Y-38500001D02*
G75*
G03*
X51250001Y-38500001I-750000J0D01*
G01*
G36*
X29000000Y-18000000D02*
G01*
X32000000Y-18000000D01*
X32000000Y-31500000D01*
X29000000Y-31500000D01*
X29000000Y-18000000D01*
G37*
X15250000Y-52000001D02*
G75*
G03*
X15250000Y-52000001I-750000J0D01*
G01*
X15250000Y-31500000D02*
G75*
G03*
X15250000Y-31500000I-750000J0D01*
G01*
G36*
X17000000Y-38500001D02*
G01*
X20000000Y-38500001D01*
X20000000Y-52000001D01*
X17000000Y-52000001D01*
X17000000Y-38500001D01*
G37*
X27250000Y-52000001D02*
G75*
G03*
X27250000Y-52000001I-750000J0D01*
G01*
X19250000Y-18000000D02*
G75*
G03*
X19250000Y-18000000I-750000J0D01*
G01*
X51250001Y-31500000D02*
G75*
G03*
X51250001Y-31500000I-750000J0D01*
G01*
X51250001Y-52000001D02*
G75*
G03*
X51250001Y-52000001I-750000J0D01*
G01*
G36*
X45000001Y-18000000D02*
G01*
X48000001Y-18000000D01*
X48000001Y-31500000D01*
X45000001Y-31500000D01*
X45000001Y-18000000D01*
G37*
G36*
X49000001Y-18000000D02*
G01*
X52000001Y-18000000D01*
X52000001Y-31500000D01*
X49000001Y-31500000D01*
X49000001Y-18000000D01*
G37*
X47250001Y-52000001D02*
G75*
G03*
X47250001Y-52000001I-750000J0D01*
G01*
G36*
X41000001Y-18000000D02*
G01*
X44000001Y-18000000D01*
X44000001Y-31500000D01*
X41000001Y-31500000D01*
X41000001Y-18000000D01*
G37*
X55250001Y-31500000D02*
G75*
G03*
X55250001Y-31500000I-750000J0D01*
G01*
X15250000Y-18000000D02*
G75*
G03*
X15250000Y-18000000I-750000J0D01*
G01*
X39250001Y-31500000D02*
G75*
G03*
X39250001Y-31500000I-750000J0D01*
G01*
X55250001Y-52000001D02*
G75*
G03*
X55250001Y-52000001I-750000J0D01*
G01*
X31250000Y-38500001D02*
G75*
G03*
X31250000Y-38500001I-750000J0D01*
G01*
G36*
X49000001Y-38500001D02*
G01*
X52000001Y-38500001D01*
X52000001Y-52000001D01*
X49000001Y-52000001D01*
X49000001Y-38500001D01*
G37*
X43250001Y-18000000D02*
G75*
G03*
X43250001Y-18000000I-750000J0D01*
G01*
G36*
X37000001Y-18000000D02*
G01*
X40000001Y-18000000D01*
X40000001Y-31500000D01*
X37000001Y-31500000D01*
X37000001Y-18000000D01*
G37*
G36*
X21000000Y-18000000D02*
G01*
X24000000Y-18000000D01*
X24000000Y-31500000D01*
X21000000Y-31500000D01*
X21000000Y-18000000D01*
G37*
G36*
X17000000Y-18000000D02*
G01*
X20000000Y-18000000D01*
X20000000Y-31500000D01*
X17000000Y-31500000D01*
X17000000Y-18000000D01*
G37*
G36*
X25000000Y-18000000D02*
G01*
X28000000Y-18000000D01*
X28000000Y-31500000D01*
X25000000Y-31500000D01*
X25000000Y-18000000D01*
G37*
X19250000Y-38500001D02*
G75*
G03*
X19250000Y-38500001I-750000J0D01*
G01*
X47250001Y-31500000D02*
G75*
G03*
X47250001Y-31500000I-750000J0D01*
G01*
X39250001Y-52000001D02*
G75*
G03*
X39250001Y-52000001I-750000J0D01*
G01*
X43250001Y-52000001D02*
G75*
G03*
X43250001Y-52000001I-750000J0D01*
G01*
X43250001Y-31500000D02*
G75*
G03*
X43250001Y-31500000I-750000J0D01*
G01*
X39250001Y-18000000D02*
G75*
G03*
X39250001Y-18000000I-750000J0D01*
G01*
X23250000Y-52000001D02*
G75*
G03*
X23250000Y-52000001I-750000J0D01*
G01*
X23250000Y-18000000D02*
G75*
G03*
X23250000Y-18000000I-750000J0D01*
G01*
X47250001Y-38500001D02*
G75*
G03*
X47250001Y-38500001I-750000J0D01*
G01*
G36*
X13000000Y-18000000D02*
G01*
X16000000Y-18000000D01*
X16000000Y-31500000D01*
X13000000Y-31500000D01*
X13000000Y-18000000D01*
G37*
G36*
X13000000Y-38500001D02*
G01*
X16000000Y-38500001D01*
X16000000Y-52000001D01*
X13000000Y-52000001D01*
X13000000Y-38500001D01*
G37*
G36*
X37000001Y-38500001D02*
G01*
X40000001Y-38500001D01*
X40000001Y-52000001D01*
X37000001Y-52000001D01*
X37000001Y-38500001D01*
G37*
X47250001Y-18000000D02*
G75*
G03*
X47250001Y-18000000I-750000J0D01*
G01*
X27250000Y-38500001D02*
G75*
G03*
X27250000Y-38500001I-750000J0D01*
G01*
X15250000Y-38500001D02*
G75*
G03*
X15250000Y-38500001I-750000J0D01*
G01*
X55250001Y-18000000D02*
G75*
G03*
X55250001Y-18000000I-750000J0D01*
G01*
G36*
X41000001Y-38500001D02*
G01*
X44000001Y-38500001D01*
X44000001Y-52000001D01*
X41000001Y-52000001D01*
X41000001Y-38500001D01*
G37*
X31250000Y-52000001D02*
G75*
G03*
X31250000Y-52000001I-750000J0D01*
G01*
X23250000Y-31500000D02*
G75*
G03*
X23250000Y-31500000I-750000J0D01*
G01*
X27250000Y-31500000D02*
G75*
G03*
X27250000Y-31500000I-750000J0D01*
G01*
X31250000Y-18000000D02*
G75*
G03*
X31250000Y-18000000I-750000J0D01*
G01*
X27250000Y-18000000D02*
G75*
G03*
X27250000Y-18000000I-750000J0D01*
G01*
D11*
%TO.C,REF\u002A\u002A*%
X61000000Y-3000000D03*
%TD*%
%TO.C,REF\u002A\u002A*%
X9000000Y-67000000D03*
%TD*%
%TO.C,REF\u002A\u002A*%
X9000000Y-3000000D03*
%TD*%
D12*
%TO.C,REF\u002A\u002A*%
X60000001Y-54500001D03*
%TD*%
%TO.C,REF\u002A\u002A*%
X6666666Y-54500001D03*
%TD*%
%TO.C,REF\u002A\u002A*%
X58000001Y-67468750D03*
%TD*%
%TO.C,REF\u002A\u002A*%
X45500000Y-15300000D03*
%TD*%
%TO.C,REF\u002A\u002A*%
X22500000Y-35800000D03*
%TD*%
%TO.C,REF\u002A\u002A*%
X65833333Y-15499999D03*
%TD*%
%TO.C,REF\u002A\u002A*%
X11999999Y-60718750D03*
%TD*%
%TO.C,REF\u002A\u002A*%
X8333333Y-54500001D03*
%TD*%
%TO.C,REF\u002A\u002A*%
X58000001Y-10125000D03*
%TD*%
%TO.C,REF\u002A\u002A*%
X3333333Y-15499999D03*
%TD*%
%TO.C,REF\u002A\u002A*%
X7500000Y-54500001D03*
%TD*%
%TO.C,REF\u002A\u002A*%
X58000001Y-4218750D03*
%TD*%
%TO.C,REF\u002A\u002A*%
X58000001Y-7593750D03*
%TD*%
%TO.C,REF\u002A\u002A*%
X69166666Y-54500001D03*
%TD*%
%TO.C,REF\u002A\u002A*%
X11999999Y-1687500D03*
%TD*%
%TO.C,REF\u002A\u002A*%
X11999999Y-13499999D03*
%TD*%
%TO.C,REF\u002A\u002A*%
X58000001Y-12656250D03*
%TD*%
%TO.C,REF\u002A\u002A*%
X11999999Y-9281250D03*
%TD*%
%TO.C,REF\u002A\u002A*%
X63333334Y-15499999D03*
%TD*%
%TO.C,REF\u002A\u002A*%
X58000001Y-64937500D03*
%TD*%
%TO.C,REF\u002A\u002A*%
X58000001Y-59875000D03*
%TD*%
%TO.C,REF\u002A\u002A*%
X11999999Y-59875000D03*
%TD*%
%TO.C,REF\u002A\u002A*%
X58000001Y-65781250D03*
%TD*%
%TO.C,REF\u002A\u002A*%
X68333333Y-15499999D03*
%TD*%
%TO.C,REF\u002A\u002A*%
X58000001Y-2531250D03*
%TD*%
%TO.C,REF\u002A\u002A*%
X58000001Y-10968750D03*
%TD*%
%TO.C,REF\u002A\u002A*%
X61666667Y-15499999D03*
%TD*%
%TO.C,REF\u002A\u002A*%
X11999999Y-5906250D03*
%TD*%
%TO.C,REF\u002A\u002A*%
X5833333Y-15499999D03*
%TD*%
%TO.C,REF\u002A\u002A*%
X58000001Y-58187500D03*
%TD*%
%TO.C,REF\u002A\u002A*%
X64166667Y-54500001D03*
%TD*%
%TO.C,REF\u002A\u002A*%
X11999999Y-59031250D03*
%TD*%
%TO.C,REF\u002A\u002A*%
X58000001Y-64093750D03*
%TD*%
%TO.C,REF\u002A\u002A*%
X46500000Y-54700001D03*
%TD*%
%TO.C,REF\u002A\u002A*%
X11999999Y-843750D03*
%TD*%
%TO.C,REF\u002A\u002A*%
X58000001Y-5062500D03*
%TD*%
%TO.C,REF\u002A\u002A*%
X0Y-54500001D03*
%TD*%
%TO.C,REF\u002A\u002A*%
X70000000Y-15499999D03*
%TD*%
%TO.C,REF\u002A\u002A*%
X58000001Y-70000000D03*
%TD*%
%TO.C,REF\u002A\u002A*%
X47500000Y-15300000D03*
%TD*%
%TO.C,REF\u002A\u002A*%
X65000000Y-54500001D03*
%TD*%
%TO.C,REF\u002A\u002A*%
X62500000Y-54500001D03*
%TD*%
%TO.C,REF\u002A\u002A*%
X21500000Y-35800000D03*
%TD*%
%TO.C,REF\u002A\u002A*%
X67500000Y-15499999D03*
%TD*%
%TO.C,REF\u002A\u002A*%
X58000001Y-8437500D03*
%TD*%
%TO.C,REF\u002A\u002A*%
X11999999Y-2531250D03*
%TD*%
%TO.C,REF\u002A\u002A*%
X24499999Y-35800000D03*
%TD*%
%TO.C,REF\u002A\u002A*%
X70000000Y-54500001D03*
%TD*%
%TO.C,REF\u002A\u002A*%
X47500000Y-35800000D03*
%TD*%
%TO.C,REF\u002A\u002A*%
X66666667Y-15499999D03*
%TD*%
%TO.C,REF\u002A\u002A*%
X58000001Y-11812500D03*
%TD*%
%TO.C,REF\u002A\u002A*%
X11999999Y-70000000D03*
%TD*%
%TO.C,REF\u002A\u002A*%
X58000001Y-6750000D03*
%TD*%
%TO.C,REF\u002A\u002A*%
X21500000Y-34200000D03*
%TD*%
%TO.C,REF\u002A\u002A*%
X5833333Y-54500001D03*
%TD*%
%TO.C,REF\u002A\u002A*%
X5000000Y-15499999D03*
%TD*%
%TO.C,REF\u002A\u002A*%
X21500000Y-15300000D03*
%TD*%
%TO.C,REF\u002A\u002A*%
X23499999Y-34200000D03*
%TD*%
%TO.C,REF\u002A\u002A*%
X11999999Y-5062500D03*
%TD*%
%TO.C,REF\u002A\u002A*%
X11999999Y-12656250D03*
%TD*%
%TO.C,REF\u002A\u002A*%
X11999999Y-8437500D03*
%TD*%
%TO.C,REF\u002A\u002A*%
X69166666Y-15499999D03*
%TD*%
%TO.C,REF\u002A\u002A*%
X7500000Y-15499999D03*
%TD*%
%TO.C,REF\u002A\u002A*%
X11999999Y-57343750D03*
%TD*%
%TO.C,REF\u002A\u002A*%
X2500000Y-15499999D03*
%TD*%
%TO.C,REF\u002A\u002A*%
X11999999Y-65781250D03*
%TD*%
%TO.C,REF\u002A\u002A*%
X68333333Y-54500001D03*
%TD*%
%TO.C,REF\u002A\u002A*%
X22500000Y-54700001D03*
%TD*%
%TO.C,REF\u002A\u002A*%
X23499999Y-15300000D03*
%TD*%
%TO.C,REF\u002A\u002A*%
X48500000Y-15300000D03*
%TD*%
%TO.C,REF\u002A\u002A*%
X58000001Y-3375000D03*
%TD*%
%TO.C,REF\u002A\u002A*%
X58000001Y-66625000D03*
%TD*%
%TO.C,REF\u002A\u002A*%
X8333333Y-15499999D03*
%TD*%
%TO.C,REF\u002A\u002A*%
X45500000Y-54700001D03*
%TD*%
%TO.C,REF\u002A\u002A*%
X11999999Y-11812500D03*
%TD*%
%TO.C,REF\u002A\u002A*%
X11999999Y-61562500D03*
%TD*%
%TO.C,REF\u002A\u002A*%
X9999999Y-15499999D03*
%TD*%
%TO.C,REF\u002A\u002A*%
X24499999Y-15300000D03*
%TD*%
%TO.C,REF\u002A\u002A*%
X1666667Y-15499999D03*
%TD*%
%TO.C,REF\u002A\u002A*%
X66666667Y-54500001D03*
%TD*%
%TO.C,REF\u002A\u002A*%
X60833334Y-15499999D03*
%TD*%
%TO.C,REF\u002A\u002A*%
X46500000Y-35800000D03*
%TD*%
%TO.C,REF\u002A\u002A*%
X9166666Y-15499999D03*
%TD*%
%TO.C,REF\u002A\u002A*%
X11999999Y0D03*
%TD*%
%TO.C,REF\u002A\u002A*%
X58000001Y-60718750D03*
%TD*%
%TO.C,REF\u002A\u002A*%
X23499999Y-35800000D03*
%TD*%
%TO.C,REF\u002A\u002A*%
X48500000Y-54700001D03*
%TD*%
%TO.C,REF\u002A\u002A*%
X62500000Y-15499999D03*
%TD*%
%TO.C,REF\u002A\u002A*%
X60833334Y-54500001D03*
%TD*%
%TO.C,REF\u002A\u002A*%
X833334Y-15499999D03*
%TD*%
%TO.C,REF\u002A\u002A*%
X58000001Y0D03*
%TD*%
%TO.C,REF\u002A\u002A*%
X23499999Y-54700001D03*
%TD*%
%TO.C,REF\u002A\u002A*%
X11999999Y-10968750D03*
%TD*%
%TO.C,REF\u002A\u002A*%
X58000001Y-5906250D03*
%TD*%
%TO.C,REF\u002A\u002A*%
X65000000Y-15499999D03*
%TD*%
%TO.C,REF\u002A\u002A*%
X22500000Y-15300000D03*
%TD*%
%TO.C,REF\u002A\u002A*%
X22500000Y-34200000D03*
%TD*%
%TO.C,REF\u002A\u002A*%
X58000001Y-61562500D03*
%TD*%
%TO.C,REF\u002A\u002A*%
X64166667Y-15499999D03*
%TD*%
%TO.C,REF\u002A\u002A*%
X11999999Y-4218750D03*
%TD*%
%TO.C,REF\u002A\u002A*%
X11999999Y-10125000D03*
%TD*%
%TO.C,REF\u002A\u002A*%
X11999999Y-67468750D03*
%TD*%
%TO.C,REF\u002A\u002A*%
X58000001Y-57343750D03*
%TD*%
%TO.C,REF\u002A\u002A*%
X833334Y-54500001D03*
%TD*%
%TO.C,REF\u002A\u002A*%
X58000001Y-843750D03*
%TD*%
%TO.C,REF\u002A\u002A*%
X2500000Y-54500001D03*
%TD*%
%TO.C,REF\u002A\u002A*%
X11999999Y-66625000D03*
%TD*%
D13*
%TO.C,REF\u002A\u002A*%
X67000000Y-3000000D03*
%TD*%
D12*
%TO.C,REF\u002A\u002A*%
X11999999Y-68312500D03*
%TD*%
%TO.C,REF\u002A\u002A*%
X58000001Y-59031250D03*
%TD*%
%TO.C,REF\u002A\u002A*%
X47500000Y-54700001D03*
%TD*%
%TO.C,REF\u002A\u002A*%
X45500000Y-35800000D03*
%TD*%
%TO.C,REF\u002A\u002A*%
X9999999Y-54500001D03*
%TD*%
%TO.C,REF\u002A\u002A*%
X11999999Y-62406250D03*
%TD*%
%TO.C,REF\u002A\u002A*%
X4166667Y-15499999D03*
%TD*%
%TO.C,REF\u002A\u002A*%
X24499999Y-54700001D03*
%TD*%
%TO.C,REF\u002A\u002A*%
X58000001Y-63250000D03*
%TD*%
%TO.C,REF\u002A\u002A*%
X46500000Y-34200000D03*
%TD*%
%TO.C,REF\u002A\u002A*%
X11999999Y-64093750D03*
%TD*%
%TO.C,REF\u002A\u002A*%
X11999999Y-7593750D03*
%TD*%
%TO.C,REF\u002A\u002A*%
X47500000Y-34200000D03*
%TD*%
%TO.C,REF\u002A\u002A*%
X11999999Y-3375000D03*
%TD*%
%TO.C,REF\u002A\u002A*%
X45500000Y-34200000D03*
%TD*%
%TO.C,REF\u002A\u002A*%
X60000001Y-15499999D03*
%TD*%
%TO.C,REF\u002A\u002A*%
X21500000Y-54700001D03*
%TD*%
%TO.C,REF\u002A\u002A*%
X5000000Y-54500001D03*
%TD*%
%TO.C,REF\u002A\u002A*%
X11999999Y-56500001D03*
%TD*%
%TO.C,REF\u002A\u002A*%
X61666667Y-54500001D03*
%TD*%
%TO.C,REF\u002A\u002A*%
X58000001Y-1687500D03*
%TD*%
%TO.C,REF\u002A\u002A*%
X11999999Y-58187500D03*
%TD*%
%TO.C,REF\u002A\u002A*%
X0Y-15499999D03*
%TD*%
%TO.C,REF\u002A\u002A*%
X58000001Y-68312500D03*
%TD*%
%TO.C,REF\u002A\u002A*%
X58000001Y-13499999D03*
%TD*%
D13*
%TO.C,REF\u002A\u002A*%
X3000000Y-3000000D03*
%TD*%
D12*
%TO.C,REF\u002A\u002A*%
X3333333Y-54500001D03*
%TD*%
%TO.C,REF\u002A\u002A*%
X11999999Y-69156250D03*
%TD*%
%TO.C,REF\u002A\u002A*%
X58000001Y-62406250D03*
%TD*%
%TO.C,REF\u002A\u002A*%
X9166666Y-54500001D03*
%TD*%
%TO.C,REF\u002A\u002A*%
X48500000Y-35800000D03*
%TD*%
%TO.C,REF\u002A\u002A*%
X58000001Y-56500001D03*
%TD*%
%TO.C,REF\u002A\u002A*%
X48500000Y-34200000D03*
%TD*%
%TO.C,REF\u002A\u002A*%
X24499999Y-34200000D03*
%TD*%
%TO.C,REF\u002A\u002A*%
X63333334Y-54500001D03*
%TD*%
%TO.C,REF\u002A\u002A*%
X11999999Y-63250000D03*
%TD*%
%TO.C,REF\u002A\u002A*%
X4166667Y-54500001D03*
%TD*%
%TO.C,REF\u002A\u002A*%
X58000001Y-69156250D03*
%TD*%
%TO.C,REF\u002A\u002A*%
X65833333Y-54500001D03*
%TD*%
D13*
%TO.C,REF\u002A\u002A*%
X3000000Y-67000000D03*
%TD*%
D12*
%TO.C,REF\u002A\u002A*%
X11999999Y-6750000D03*
%TD*%
%TO.C,REF\u002A\u002A*%
X1666667Y-54500001D03*
%TD*%
%TO.C,REF\u002A\u002A*%
X11999999Y-64937500D03*
%TD*%
%TO.C,REF\u002A\u002A*%
X46500000Y-15300000D03*
%TD*%
%TO.C,REF\u002A\u002A*%
X67500000Y-54500001D03*
%TD*%
%TO.C,REF\u002A\u002A*%
X58000001Y-9281250D03*
%TD*%
%TO.C,REF\u002A\u002A*%
X6666666Y-15499999D03*
%TD*%
M02*
