%TF.GenerationSoftware,KiCad,Pcbnew,7.0.2-6a45011f42~172~ubuntu22.04.1*%
%TF.CreationDate,2023-05-08T22:23:16+01:00*%
%TF.ProjectId,panel,70616e65-6c2e-46b6-9963-61645f706362,rev?*%
%TF.SameCoordinates,Original*%
%TF.FileFunction,Copper,L4,Bot*%
%TF.FilePolarity,Positive*%
%FSLAX46Y46*%
G04 Gerber Fmt 4.6, Leading zero omitted, Abs format (unit mm)*
G04 Created by KiCad (PCBNEW 7.0.2-6a45011f42~172~ubuntu22.04.1) date 2023-05-08 22:23:16*
%MOMM*%
%LPD*%
G01*
G04 APERTURE LIST*
%TA.AperFunction,SMDPad,CuDef*%
%ADD10C,1.000000*%
%TD*%
%TA.AperFunction,ViaPad*%
%ADD11C,0.400000*%
%TD*%
%TA.AperFunction,Conductor*%
%ADD12C,0.127000*%
%TD*%
G04 APERTURE END LIST*
D10*
%TO.P,REF\u002A\u002A,*%
%TO.N,*%
X61000000Y-3000000D03*
%TD*%
%TO.P,REF\u002A\u002A,*%
%TO.N,*%
X9000000Y-67000000D03*
%TD*%
%TO.P,REF\u002A\u002A,*%
%TO.N,*%
X9000000Y-3000000D03*
%TD*%
D11*
%TO.N,Board_3-SCLK*%
X48250001Y-36760001D03*
X48130001Y-53840001D03*
%TO.N,Board_3-RESETB*%
X46227586Y-54009992D03*
X40360002Y-45150000D03*
X46250001Y-36750001D03*
%TO.N,Board_3-IN_ref*%
X48510001Y-43040001D03*
X48420001Y-48370001D03*
%TO.N,Board_3-IN5*%
X48350001Y-42480001D03*
X40220001Y-41960001D03*
%TO.N,Board_3-IN4*%
X40810001Y-41500001D03*
X48660001Y-41990001D03*
%TO.N,Board_3-IN3*%
X48260001Y-41560001D03*
%TO.N,Board_3-IN2*%
X52210001Y-42300001D03*
%TO.N,Board_3-IN1*%
X52790001Y-42310001D03*
%TO.N,Board_3-I2C_SDA*%
X45250001Y-36760001D03*
X36600002Y-42160000D03*
X45259931Y-54020245D03*
%TO.N,Board_3-I2C_SCL*%
X45739428Y-36510002D03*
X45740002Y-53750000D03*
%TO.N,Board_3-GND*%
X56305001Y-47385001D03*
X49750001Y-36430001D03*
X52510000Y-44500000D03*
X36590002Y-41140000D03*
X47020002Y-36520000D03*
X49750001Y-53784597D03*
X40360002Y-49100000D03*
X48420001Y-49040001D03*
%TO.N,Board_3-D_RDYB*%
X40690001Y-49640001D03*
X52341892Y-49488892D03*
%TO.N,Board_3-DOUT*%
X50340001Y-54000001D03*
X50250001Y-36760001D03*
%TO.N,Board_3-DIN*%
X49240001Y-54060001D03*
X49250001Y-36760001D03*
%TO.N,Board_3-AUX2*%
X56420001Y-41970001D03*
X48750001Y-36520001D03*
X48740001Y-53755223D03*
%TO.N,Board_3-AUX1*%
X47750001Y-36510001D03*
X47530001Y-53850001D03*
X52620001Y-41460001D03*
%TO.N,Board_3-+3.3V*%
X52370001Y-40840001D03*
X44692697Y-44068384D03*
X40500002Y-43230000D03*
%TO.N,Board_2-SCLK*%
X24130000Y-53840001D03*
X24250000Y-36760001D03*
%TO.N,Board_2-RESETB*%
X16360001Y-45150000D03*
X22250000Y-36750001D03*
X22227585Y-54009992D03*
%TO.N,Board_2-IN_ref*%
X24510000Y-43040001D03*
X24420000Y-48370001D03*
%TO.N,Board_2-IN5*%
X16220000Y-41960001D03*
X24350000Y-42480001D03*
%TO.N,Board_2-IN4*%
X24660000Y-41990001D03*
X16810000Y-41500001D03*
%TO.N,Board_2-IN3*%
X24260000Y-41560001D03*
%TO.N,Board_2-IN2*%
X28210000Y-42300001D03*
%TO.N,Board_2-IN1*%
X28790000Y-42310001D03*
%TO.N,Board_2-I2C_SDA*%
X12600001Y-42160000D03*
X21250000Y-36760001D03*
X21259930Y-54020245D03*
%TO.N,Board_2-I2C_SCL*%
X21739427Y-36510002D03*
X21740001Y-53750000D03*
%TO.N,Board_2-GND*%
X25750000Y-53784597D03*
X24420000Y-49040001D03*
X28509999Y-44500000D03*
X32305000Y-47385001D03*
X23020001Y-36520000D03*
X16360001Y-49100000D03*
X25750000Y-36430001D03*
X12590001Y-41140000D03*
%TO.N,Board_2-D_RDYB*%
X28341891Y-49488892D03*
X16690000Y-49640001D03*
%TO.N,Board_2-DOUT*%
X26340000Y-54000001D03*
X26250000Y-36760001D03*
%TO.N,Board_2-DIN*%
X25240000Y-54060001D03*
X25250000Y-36760001D03*
%TO.N,Board_2-AUX2*%
X24740000Y-53755223D03*
X32420000Y-41970001D03*
X24750000Y-36520001D03*
%TO.N,Board_2-AUX1*%
X23750000Y-36510001D03*
X23530000Y-53850001D03*
X28620000Y-41460001D03*
%TO.N,Board_2-+3.3V*%
X20692696Y-44068384D03*
X16500001Y-43230000D03*
X28370000Y-40840001D03*
%TO.N,Board_1-SCLK*%
X48250001Y-16260000D03*
X48130001Y-33340000D03*
%TO.N,Board_1-RESETB*%
X46227586Y-33509991D03*
X46250001Y-16250000D03*
X40360002Y-24649999D03*
%TO.N,Board_1-IN_ref*%
X48510001Y-22540000D03*
X48420001Y-27870000D03*
%TO.N,Board_1-IN5*%
X40220001Y-21460000D03*
X48350001Y-21980000D03*
%TO.N,Board_1-IN4*%
X40810001Y-21000000D03*
X48660001Y-21490000D03*
%TO.N,Board_1-IN3*%
X48260001Y-21060000D03*
%TO.N,Board_1-IN2*%
X52210001Y-21800000D03*
%TO.N,Board_1-IN1*%
X52790001Y-21810000D03*
%TO.N,Board_1-I2C_SDA*%
X45250001Y-16260000D03*
X45259931Y-33520244D03*
X36600002Y-21659999D03*
%TO.N,Board_1-I2C_SCL*%
X45739428Y-16010001D03*
X45740002Y-33249999D03*
%TO.N,Board_1-GND*%
X52510000Y-23999999D03*
X48420001Y-28540000D03*
X49750001Y-33284596D03*
X40360002Y-28599999D03*
X56305001Y-26885000D03*
X49750001Y-15930000D03*
X47020002Y-16019999D03*
X36590002Y-20639999D03*
%TO.N,Board_1-D_RDYB*%
X40690001Y-29140000D03*
X52341892Y-28988891D03*
%TO.N,Board_1-DOUT*%
X50340001Y-33500000D03*
X50250001Y-16260000D03*
%TO.N,Board_1-DIN*%
X49250001Y-16260000D03*
X49240001Y-33560000D03*
%TO.N,Board_1-AUX2*%
X48750001Y-16020000D03*
X56420001Y-21470000D03*
X48740001Y-33255222D03*
%TO.N,Board_1-AUX1*%
X47530001Y-33350000D03*
X47750001Y-16010000D03*
X52620001Y-20960000D03*
%TO.N,Board_1-+3.3V*%
X52370001Y-20340000D03*
X44692697Y-23568383D03*
X40500002Y-22729999D03*
%TO.N,Board_0-SCLK*%
X24250000Y-16260000D03*
X24130000Y-33340000D03*
%TO.N,Board_0-RESETB*%
X22250000Y-16250000D03*
X22227585Y-33509991D03*
X16360001Y-24649999D03*
%TO.N,Board_0-IN_ref*%
X24420000Y-27870000D03*
X24510000Y-22540000D03*
%TO.N,Board_0-IN5*%
X16220000Y-21460000D03*
X24350000Y-21980000D03*
%TO.N,Board_0-IN4*%
X16810000Y-21000000D03*
X24660000Y-21490000D03*
%TO.N,Board_0-IN3*%
X24260000Y-21060000D03*
%TO.N,Board_0-IN2*%
X28210000Y-21800000D03*
%TO.N,Board_0-IN1*%
X28790000Y-21810000D03*
%TO.N,Board_0-I2C_SDA*%
X21250000Y-16260000D03*
X12600001Y-21659999D03*
X21259930Y-33520244D03*
%TO.N,Board_0-I2C_SCL*%
X21739427Y-16010001D03*
X21740001Y-33249999D03*
%TO.N,Board_0-GND*%
X25750000Y-33284596D03*
X25750000Y-15930000D03*
X24420000Y-28540000D03*
X12590001Y-20639999D03*
X23020001Y-16019999D03*
X16360001Y-28599999D03*
X32305000Y-26885000D03*
X28509999Y-23999999D03*
%TO.N,Board_0-D_RDYB*%
X28341891Y-28988891D03*
X16690000Y-29140000D03*
%TO.N,Board_0-DOUT*%
X26250000Y-16260000D03*
X26340000Y-33500000D03*
%TO.N,Board_0-DIN*%
X25250000Y-16260000D03*
X25240000Y-33560000D03*
%TO.N,Board_0-AUX2*%
X24750000Y-16020000D03*
X32420000Y-21470000D03*
X24740000Y-33255222D03*
%TO.N,Board_0-AUX1*%
X23530000Y-33350000D03*
X23750000Y-16010000D03*
X28620000Y-20960000D03*
%TO.N,Board_0-+3.3V*%
X20692696Y-23568383D03*
X16500001Y-22729999D03*
X28370000Y-20340000D03*
%TD*%
D12*
%TO.N,Board_3-IN_ref*%
X48420001Y-48370001D02*
X48510001Y-48280001D01*
X48510001Y-48280001D02*
X48510001Y-43040001D01*
%TO.N,Board_3-IN5*%
X40220001Y-41960001D02*
X39860001Y-41960001D01*
%TO.N,Board_3-IN4*%
X40810001Y-41500001D02*
X41140001Y-41500001D01*
%TO.N,Board_3-IN3*%
X48260001Y-41560001D02*
X47840001Y-41560001D01*
%TO.N,Board_3-IN2*%
X52210001Y-42300001D02*
X51880001Y-42300001D01*
%TO.N,Board_3-IN1*%
X52790001Y-42310001D02*
X53120001Y-42310001D01*
%TO.N,Board_2-IN_ref*%
X24510000Y-48280001D02*
X24510000Y-43040001D01*
X24420000Y-48370001D02*
X24510000Y-48280001D01*
%TO.N,Board_2-IN5*%
X16220000Y-41960001D02*
X15860000Y-41960001D01*
%TO.N,Board_2-IN4*%
X16810000Y-41500001D02*
X17140000Y-41500001D01*
%TO.N,Board_2-IN3*%
X24260000Y-41560001D02*
X23840000Y-41560001D01*
%TO.N,Board_2-IN2*%
X28210000Y-42300001D02*
X27880000Y-42300001D01*
%TO.N,Board_2-IN1*%
X28790000Y-42310001D02*
X29120000Y-42310001D01*
%TO.N,Board_1-IN_ref*%
X48510001Y-27780000D02*
X48510001Y-22540000D01*
X48420001Y-27870000D02*
X48510001Y-27780000D01*
%TO.N,Board_1-IN5*%
X40220001Y-21460000D02*
X39860001Y-21460000D01*
%TO.N,Board_1-IN4*%
X40810001Y-21000000D02*
X41140001Y-21000000D01*
%TO.N,Board_1-IN3*%
X48260001Y-21060000D02*
X47840001Y-21060000D01*
%TO.N,Board_1-IN2*%
X52210001Y-21800000D02*
X51880001Y-21800000D01*
%TO.N,Board_1-IN1*%
X52790001Y-21810000D02*
X53120001Y-21810000D01*
%TO.N,Board_0-IN_ref*%
X24510000Y-27780000D02*
X24510000Y-22540000D01*
X24420000Y-27870000D02*
X24510000Y-27780000D01*
%TO.N,Board_0-IN5*%
X16220000Y-21460000D02*
X15860000Y-21460000D01*
%TO.N,Board_0-IN4*%
X16810000Y-21000000D02*
X17140000Y-21000000D01*
%TO.N,Board_0-IN3*%
X24260000Y-21060000D02*
X23840000Y-21060000D01*
%TO.N,Board_0-IN2*%
X28210000Y-21800000D02*
X27880000Y-21800000D01*
%TO.N,Board_0-IN1*%
X28790000Y-21810000D02*
X29120000Y-21810000D01*
%TD*%
%TA.AperFunction,Conductor*%
%TO.N,Board_1-IN1*%
G36*
X55006163Y-16500606D02*
G01*
X55182741Y-16517998D01*
X55206960Y-16522815D01*
X55370816Y-16572520D01*
X55393623Y-16581967D01*
X55519154Y-16649064D01*
X55544628Y-16662681D01*
X55565166Y-16676404D01*
X55697515Y-16785020D01*
X55714980Y-16802485D01*
X55823596Y-16934834D01*
X55837319Y-16955372D01*
X55918030Y-17106370D01*
X55927483Y-17129191D01*
X55977184Y-17293037D01*
X55982002Y-17317261D01*
X55999394Y-17493836D01*
X56000001Y-17506187D01*
X56000001Y-26571417D01*
X55983504Y-26627600D01*
X55986011Y-26628878D01*
X55919355Y-26759695D01*
X55899508Y-26885000D01*
X55919355Y-27010304D01*
X55986011Y-27141123D01*
X55981604Y-27143368D01*
X55997069Y-27171559D01*
X56000001Y-27198582D01*
X56000001Y-31993812D01*
X55999394Y-32006163D01*
X55982002Y-32182738D01*
X55977184Y-32206962D01*
X55927483Y-32370808D01*
X55918030Y-32393629D01*
X55837319Y-32544627D01*
X55823596Y-32565165D01*
X55714980Y-32697514D01*
X55697515Y-32714979D01*
X55565166Y-32823595D01*
X55544628Y-32837318D01*
X55393630Y-32918029D01*
X55370809Y-32927482D01*
X55206963Y-32977183D01*
X55182739Y-32982001D01*
X55034274Y-32996624D01*
X55006162Y-32999393D01*
X54993814Y-33000000D01*
X54006188Y-33000000D01*
X53993839Y-32999393D01*
X53961096Y-32996168D01*
X53817262Y-32982001D01*
X53793038Y-32977183D01*
X53629192Y-32927482D01*
X53606373Y-32918030D01*
X53558012Y-32892180D01*
X53455373Y-32837318D01*
X53434835Y-32823595D01*
X53302486Y-32714979D01*
X53285021Y-32697514D01*
X53176405Y-32565165D01*
X53162682Y-32544627D01*
X53149065Y-32519153D01*
X53081968Y-32393622D01*
X53072521Y-32370815D01*
X53022816Y-32206959D01*
X53017999Y-32182737D01*
X53000608Y-32006162D01*
X53000001Y-31993812D01*
X53000001Y-21126636D01*
X53005095Y-21105423D01*
X53002525Y-21105016D01*
X53025493Y-20960000D01*
X53002525Y-20814986D01*
X53005093Y-20814579D01*
X53000001Y-20793365D01*
X53000001Y-17506166D01*
X53000605Y-17493858D01*
X53018000Y-17317255D01*
X53022815Y-17293042D01*
X53072522Y-17129181D01*
X53081966Y-17106380D01*
X53162683Y-16955369D01*
X53176399Y-16934842D01*
X53285026Y-16802479D01*
X53302480Y-16785025D01*
X53434843Y-16676398D01*
X53455370Y-16662682D01*
X53606381Y-16581965D01*
X53629182Y-16572521D01*
X53793043Y-16522814D01*
X53817258Y-16517998D01*
X53993838Y-16500606D01*
X54006188Y-16500000D01*
X54993814Y-16500000D01*
X55006163Y-16500606D01*
G37*
%TD.AperFunction*%
%TD*%
%TA.AperFunction,Conductor*%
%TO.N,Board_2-IN3*%
G36*
X23006162Y-37000607D02*
G01*
X23182740Y-37017999D01*
X23206959Y-37022816D01*
X23370815Y-37072521D01*
X23393622Y-37081968D01*
X23519153Y-37149065D01*
X23544627Y-37162682D01*
X23565165Y-37176405D01*
X23697514Y-37285021D01*
X23714979Y-37302486D01*
X23823595Y-37434835D01*
X23837318Y-37455373D01*
X23918029Y-37606371D01*
X23927482Y-37629192D01*
X23977183Y-37793038D01*
X23982001Y-37817262D01*
X23999393Y-37993837D01*
X24000000Y-38006188D01*
X24000000Y-42254487D01*
X23986267Y-42311689D01*
X23964354Y-42354695D01*
X23944507Y-42480001D01*
X23964354Y-42605306D01*
X23986266Y-42648309D01*
X24000000Y-42705513D01*
X24000000Y-52493813D01*
X23999393Y-52506164D01*
X23982001Y-52682739D01*
X23977183Y-52706963D01*
X23927482Y-52870809D01*
X23918029Y-52893630D01*
X23837318Y-53044628D01*
X23823595Y-53065166D01*
X23714979Y-53197515D01*
X23697514Y-53214980D01*
X23565165Y-53323596D01*
X23544627Y-53337319D01*
X23393629Y-53418030D01*
X23370808Y-53427483D01*
X23206962Y-53477184D01*
X23182738Y-53482002D01*
X23034273Y-53496625D01*
X23006161Y-53499394D01*
X22993813Y-53500001D01*
X22108584Y-53500001D01*
X22040463Y-53479999D01*
X22019493Y-53463100D01*
X21978343Y-53421950D01*
X21978342Y-53421949D01*
X21865305Y-53364354D01*
X21740001Y-53344507D01*
X21626242Y-53362525D01*
X21614697Y-53364354D01*
X21614696Y-53364354D01*
X21594987Y-53367476D01*
X21594931Y-53367125D01*
X21547836Y-53375967D01*
X21501024Y-53361720D01*
X21455376Y-53337322D01*
X21434844Y-53323604D01*
X21302484Y-53214979D01*
X21285020Y-53197515D01*
X21176404Y-53065166D01*
X21162681Y-53044628D01*
X21149064Y-53019154D01*
X21081967Y-52893623D01*
X21072520Y-52870816D01*
X21022815Y-52706960D01*
X21017998Y-52682738D01*
X21000607Y-52506163D01*
X21000000Y-52493813D01*
X21000000Y-44377692D01*
X21013733Y-44320489D01*
X21020746Y-44306726D01*
X21078342Y-44193688D01*
X21098188Y-44068384D01*
X21078342Y-43943080D01*
X21020746Y-43830042D01*
X21020745Y-43830041D01*
X21013733Y-43816279D01*
X21000000Y-43759076D01*
X21000000Y-38006188D01*
X21000607Y-37993838D01*
X21017998Y-37817263D01*
X21017999Y-37817262D01*
X21017998Y-37817258D01*
X21022814Y-37793043D01*
X21072521Y-37629182D01*
X21081965Y-37606381D01*
X21162682Y-37455370D01*
X21176398Y-37434843D01*
X21285025Y-37302480D01*
X21302479Y-37285026D01*
X21434842Y-37176399D01*
X21455369Y-37162683D01*
X21606380Y-37081966D01*
X21629181Y-37072522D01*
X21793042Y-37022815D01*
X21817253Y-37018000D01*
X21880256Y-37011794D01*
X21950006Y-37025022D01*
X21981700Y-37048093D01*
X22011656Y-37078050D01*
X22011658Y-37078051D01*
X22124696Y-37135647D01*
X22250000Y-37155493D01*
X22375304Y-37135647D01*
X22488342Y-37078051D01*
X22529488Y-37036904D01*
X22591798Y-37002881D01*
X22618582Y-37000001D01*
X22993813Y-37000001D01*
X23006162Y-37000607D01*
G37*
%TD.AperFunction*%
%TD*%
%TA.AperFunction,Conductor*%
%TO.N,Board_1-IN2*%
G36*
X51006163Y-16500606D02*
G01*
X51182741Y-16517998D01*
X51206960Y-16522815D01*
X51370816Y-16572520D01*
X51393623Y-16581967D01*
X51512756Y-16645645D01*
X51544628Y-16662681D01*
X51565166Y-16676404D01*
X51697515Y-16785020D01*
X51714980Y-16802485D01*
X51823596Y-16934834D01*
X51837319Y-16955372D01*
X51918030Y-17106370D01*
X51927483Y-17129191D01*
X51977184Y-17293037D01*
X51982002Y-17317261D01*
X51999394Y-17493836D01*
X52000001Y-17506187D01*
X52000001Y-20153738D01*
X51986269Y-20210938D01*
X51984355Y-20214693D01*
X51964508Y-20340000D01*
X51981641Y-20448170D01*
X51984355Y-20465304D01*
X51986266Y-20469054D01*
X52000001Y-20526260D01*
X52000001Y-28747462D01*
X51986268Y-28804664D01*
X51956246Y-28863585D01*
X51936399Y-28988891D01*
X51956246Y-29114196D01*
X51986267Y-29173114D01*
X52000001Y-29230318D01*
X52000001Y-31993812D01*
X51999394Y-32006163D01*
X51982002Y-32182738D01*
X51977184Y-32206962D01*
X51927483Y-32370808D01*
X51918030Y-32393629D01*
X51837319Y-32544627D01*
X51823596Y-32565165D01*
X51714980Y-32697514D01*
X51697515Y-32714979D01*
X51565166Y-32823595D01*
X51544628Y-32837318D01*
X51393630Y-32918029D01*
X51370809Y-32927482D01*
X51206963Y-32977183D01*
X51182739Y-32982001D01*
X51034274Y-32996624D01*
X51006162Y-32999393D01*
X50993814Y-33000000D01*
X50083988Y-33000000D01*
X50015867Y-32979998D01*
X49994893Y-32963095D01*
X49988345Y-32956547D01*
X49875305Y-32898950D01*
X49750000Y-32879103D01*
X49624816Y-32898931D01*
X49554404Y-32889831D01*
X49545709Y-32885604D01*
X49455373Y-32837318D01*
X49434835Y-32823595D01*
X49302486Y-32714979D01*
X49285021Y-32697514D01*
X49176405Y-32565165D01*
X49162682Y-32544627D01*
X49149065Y-32519153D01*
X49081968Y-32393622D01*
X49072521Y-32370815D01*
X49022816Y-32206959D01*
X49017999Y-32182737D01*
X49000608Y-32006162D01*
X49000001Y-31993812D01*
X49000001Y-21735137D01*
X49013733Y-21677936D01*
X49045647Y-21615304D01*
X49065493Y-21490000D01*
X49045647Y-21364696D01*
X49045646Y-21364694D01*
X49013734Y-21302062D01*
X49000001Y-21244860D01*
X49000001Y-17506187D01*
X49000608Y-17493837D01*
X49017999Y-17317262D01*
X49018000Y-17317261D01*
X49017999Y-17317257D01*
X49022815Y-17293042D01*
X49072522Y-17129181D01*
X49081966Y-17106380D01*
X49162683Y-16955369D01*
X49176399Y-16934842D01*
X49285026Y-16802479D01*
X49302480Y-16785025D01*
X49434843Y-16676398D01*
X49455370Y-16662682D01*
X49606381Y-16581965D01*
X49629182Y-16572521D01*
X49793043Y-16522814D01*
X49817256Y-16517999D01*
X49871153Y-16512690D01*
X49940904Y-16525918D01*
X49972594Y-16548985D01*
X50011659Y-16588050D01*
X50124697Y-16645646D01*
X50250001Y-16665492D01*
X50375305Y-16645646D01*
X50488343Y-16588050D01*
X50539489Y-16536903D01*
X50601799Y-16502880D01*
X50628583Y-16500000D01*
X50993814Y-16500000D01*
X51006163Y-16500606D01*
G37*
%TD.AperFunction*%
%TD*%
%TA.AperFunction,Conductor*%
%TO.N,Board_3-IN3*%
G36*
X47006163Y-37000607D02*
G01*
X47182741Y-37017999D01*
X47206960Y-37022816D01*
X47370816Y-37072521D01*
X47393623Y-37081968D01*
X47519154Y-37149065D01*
X47544628Y-37162682D01*
X47565166Y-37176405D01*
X47697515Y-37285021D01*
X47714980Y-37302486D01*
X47823596Y-37434835D01*
X47837319Y-37455373D01*
X47918030Y-37606371D01*
X47927483Y-37629192D01*
X47977184Y-37793038D01*
X47982002Y-37817262D01*
X47999394Y-37993837D01*
X48000001Y-38006188D01*
X48000001Y-42254487D01*
X47986268Y-42311689D01*
X47964355Y-42354695D01*
X47944508Y-42480001D01*
X47964355Y-42605306D01*
X47986267Y-42648309D01*
X48000001Y-42705513D01*
X48000001Y-52493813D01*
X47999394Y-52506164D01*
X47982002Y-52682739D01*
X47977184Y-52706963D01*
X47927483Y-52870809D01*
X47918030Y-52893630D01*
X47837319Y-53044628D01*
X47823596Y-53065166D01*
X47714980Y-53197515D01*
X47697515Y-53214980D01*
X47565166Y-53323596D01*
X47544628Y-53337319D01*
X47393630Y-53418030D01*
X47370809Y-53427483D01*
X47206963Y-53477184D01*
X47182739Y-53482002D01*
X47034274Y-53496625D01*
X47006162Y-53499394D01*
X46993814Y-53500001D01*
X46108585Y-53500001D01*
X46040464Y-53479999D01*
X46019494Y-53463100D01*
X45978344Y-53421950D01*
X45978343Y-53421949D01*
X45865306Y-53364354D01*
X45740002Y-53344507D01*
X45626243Y-53362525D01*
X45614698Y-53364354D01*
X45614697Y-53364354D01*
X45594988Y-53367476D01*
X45594932Y-53367125D01*
X45547837Y-53375967D01*
X45501025Y-53361720D01*
X45455377Y-53337322D01*
X45434845Y-53323604D01*
X45302485Y-53214979D01*
X45285021Y-53197515D01*
X45176405Y-53065166D01*
X45162682Y-53044628D01*
X45149065Y-53019154D01*
X45081968Y-52893623D01*
X45072521Y-52870816D01*
X45022816Y-52706960D01*
X45017999Y-52682738D01*
X45000608Y-52506163D01*
X45000001Y-52493813D01*
X45000001Y-44377692D01*
X45013734Y-44320489D01*
X45020747Y-44306726D01*
X45078343Y-44193688D01*
X45098189Y-44068384D01*
X45078343Y-43943080D01*
X45020747Y-43830042D01*
X45020746Y-43830041D01*
X45013734Y-43816279D01*
X45000001Y-43759076D01*
X45000001Y-38006188D01*
X45000608Y-37993838D01*
X45017999Y-37817263D01*
X45018000Y-37817262D01*
X45017999Y-37817258D01*
X45022815Y-37793043D01*
X45072522Y-37629182D01*
X45081966Y-37606381D01*
X45162683Y-37455370D01*
X45176399Y-37434843D01*
X45285026Y-37302480D01*
X45302480Y-37285026D01*
X45434843Y-37176399D01*
X45455370Y-37162683D01*
X45606381Y-37081966D01*
X45629182Y-37072522D01*
X45793043Y-37022815D01*
X45817254Y-37018000D01*
X45880257Y-37011794D01*
X45950007Y-37025022D01*
X45981701Y-37048093D01*
X46011657Y-37078050D01*
X46011659Y-37078051D01*
X46124697Y-37135647D01*
X46250001Y-37155493D01*
X46375305Y-37135647D01*
X46488343Y-37078051D01*
X46529489Y-37036904D01*
X46591799Y-37002881D01*
X46618583Y-37000001D01*
X46993814Y-37000001D01*
X47006163Y-37000607D01*
G37*
%TD.AperFunction*%
%TD*%
%TA.AperFunction,Conductor*%
%TO.N,Board_3-IN5*%
G36*
X39006163Y-37000607D02*
G01*
X39182741Y-37017999D01*
X39206960Y-37022816D01*
X39370816Y-37072521D01*
X39393623Y-37081968D01*
X39519154Y-37149065D01*
X39544628Y-37162682D01*
X39565166Y-37176405D01*
X39697515Y-37285021D01*
X39714980Y-37302486D01*
X39823596Y-37434835D01*
X39837319Y-37455373D01*
X39918030Y-37606371D01*
X39927483Y-37629192D01*
X39977184Y-37793038D01*
X39982002Y-37817262D01*
X39999394Y-37993837D01*
X40000001Y-38006188D01*
X40000001Y-44944114D01*
X39986268Y-45001316D01*
X39974356Y-45024694D01*
X39954509Y-45150000D01*
X39974355Y-45275303D01*
X39974356Y-45275304D01*
X39986267Y-45298681D01*
X40000001Y-45355884D01*
X40000001Y-48894114D01*
X39986268Y-48951316D01*
X39974356Y-48974694D01*
X39954509Y-49100000D01*
X39974355Y-49225303D01*
X39974356Y-49225304D01*
X39986267Y-49248681D01*
X40000001Y-49305884D01*
X40000001Y-52493813D01*
X39999394Y-52506164D01*
X39982002Y-52682739D01*
X39977184Y-52706963D01*
X39927483Y-52870809D01*
X39918030Y-52893630D01*
X39837319Y-53044628D01*
X39823596Y-53065166D01*
X39714980Y-53197515D01*
X39697515Y-53214980D01*
X39565166Y-53323596D01*
X39544628Y-53337319D01*
X39393630Y-53418030D01*
X39370809Y-53427483D01*
X39206963Y-53477184D01*
X39182739Y-53482002D01*
X39034274Y-53496625D01*
X39006162Y-53499394D01*
X38993814Y-53500001D01*
X38006188Y-53500001D01*
X37993839Y-53499394D01*
X37961096Y-53496169D01*
X37817262Y-53482002D01*
X37793038Y-53477184D01*
X37629192Y-53427483D01*
X37606373Y-53418031D01*
X37558012Y-53392181D01*
X37455373Y-53337319D01*
X37434835Y-53323596D01*
X37302486Y-53214980D01*
X37285021Y-53197515D01*
X37176405Y-53065166D01*
X37162682Y-53044628D01*
X37149065Y-53019154D01*
X37081968Y-52893623D01*
X37072521Y-52870816D01*
X37022816Y-52706960D01*
X37017999Y-52682738D01*
X37000608Y-52506163D01*
X37000001Y-52493813D01*
X37000001Y-42204599D01*
X37001552Y-42184888D01*
X37005494Y-42159999D01*
X37001552Y-42135111D01*
X37000001Y-42115400D01*
X37000001Y-38006188D01*
X37000608Y-37993838D01*
X37017999Y-37817263D01*
X37018000Y-37817262D01*
X37017999Y-37817258D01*
X37022815Y-37793043D01*
X37072522Y-37629182D01*
X37081966Y-37606381D01*
X37162683Y-37455370D01*
X37176399Y-37434843D01*
X37285026Y-37302480D01*
X37302480Y-37285026D01*
X37434843Y-37176399D01*
X37455370Y-37162683D01*
X37606381Y-37081966D01*
X37629182Y-37072522D01*
X37793043Y-37022815D01*
X37817258Y-37017999D01*
X37993838Y-37000607D01*
X38006188Y-37000001D01*
X38993814Y-37000001D01*
X39006163Y-37000607D01*
G37*
%TD.AperFunction*%
%TD*%
%TA.AperFunction,Conductor*%
%TO.N,Board_0-IN3*%
G36*
X23006162Y-16500606D02*
G01*
X23182740Y-16517998D01*
X23206959Y-16522815D01*
X23370815Y-16572520D01*
X23393622Y-16581967D01*
X23519153Y-16649064D01*
X23544627Y-16662681D01*
X23565165Y-16676404D01*
X23697514Y-16785020D01*
X23714979Y-16802485D01*
X23823595Y-16934834D01*
X23837318Y-16955372D01*
X23918029Y-17106370D01*
X23927482Y-17129191D01*
X23977183Y-17293037D01*
X23982001Y-17317261D01*
X23999393Y-17493836D01*
X24000000Y-17506187D01*
X24000000Y-21754486D01*
X23986267Y-21811688D01*
X23964354Y-21854694D01*
X23944507Y-21980000D01*
X23964354Y-22105305D01*
X23986266Y-22148308D01*
X24000000Y-22205512D01*
X24000000Y-31993812D01*
X23999393Y-32006163D01*
X23982001Y-32182738D01*
X23977183Y-32206962D01*
X23927482Y-32370808D01*
X23918029Y-32393629D01*
X23837318Y-32544627D01*
X23823595Y-32565165D01*
X23714979Y-32697514D01*
X23697514Y-32714979D01*
X23565165Y-32823595D01*
X23544627Y-32837318D01*
X23393629Y-32918029D01*
X23370808Y-32927482D01*
X23206962Y-32977183D01*
X23182738Y-32982001D01*
X23034273Y-32996624D01*
X23006161Y-32999393D01*
X22993813Y-33000000D01*
X22108584Y-33000000D01*
X22040463Y-32979998D01*
X22019493Y-32963099D01*
X21978343Y-32921949D01*
X21978342Y-32921948D01*
X21865305Y-32864353D01*
X21740001Y-32844506D01*
X21626242Y-32862524D01*
X21614697Y-32864353D01*
X21614696Y-32864353D01*
X21594987Y-32867475D01*
X21594931Y-32867124D01*
X21547836Y-32875966D01*
X21501024Y-32861719D01*
X21455376Y-32837321D01*
X21434844Y-32823603D01*
X21302484Y-32714978D01*
X21285020Y-32697514D01*
X21176404Y-32565165D01*
X21162681Y-32544627D01*
X21149064Y-32519153D01*
X21081967Y-32393622D01*
X21072520Y-32370815D01*
X21022815Y-32206959D01*
X21017998Y-32182737D01*
X21000607Y-32006162D01*
X21000000Y-31993812D01*
X21000000Y-23877691D01*
X21013733Y-23820488D01*
X21020746Y-23806725D01*
X21078342Y-23693687D01*
X21098188Y-23568383D01*
X21078342Y-23443079D01*
X21020746Y-23330041D01*
X21020745Y-23330040D01*
X21013733Y-23316278D01*
X21000000Y-23259075D01*
X21000000Y-17506187D01*
X21000607Y-17493837D01*
X21017998Y-17317262D01*
X21017999Y-17317261D01*
X21017998Y-17317257D01*
X21022814Y-17293042D01*
X21072521Y-17129181D01*
X21081965Y-17106380D01*
X21162682Y-16955369D01*
X21176398Y-16934842D01*
X21285025Y-16802479D01*
X21302479Y-16785025D01*
X21434842Y-16676398D01*
X21455369Y-16662682D01*
X21606380Y-16581965D01*
X21629181Y-16572521D01*
X21793042Y-16522814D01*
X21817253Y-16517999D01*
X21880256Y-16511793D01*
X21950006Y-16525021D01*
X21981700Y-16548092D01*
X22011656Y-16578049D01*
X22011658Y-16578050D01*
X22124696Y-16635646D01*
X22250000Y-16655492D01*
X22375304Y-16635646D01*
X22488342Y-16578050D01*
X22529488Y-16536903D01*
X22591798Y-16502880D01*
X22618582Y-16500000D01*
X22993813Y-16500000D01*
X23006162Y-16500606D01*
G37*
%TD.AperFunction*%
%TD*%
%TA.AperFunction,Conductor*%
%TO.N,Board_3-IN2*%
G36*
X51006163Y-37000607D02*
G01*
X51182741Y-37017999D01*
X51206960Y-37022816D01*
X51370816Y-37072521D01*
X51393623Y-37081968D01*
X51512756Y-37145646D01*
X51544628Y-37162682D01*
X51565166Y-37176405D01*
X51697515Y-37285021D01*
X51714980Y-37302486D01*
X51823596Y-37434835D01*
X51837319Y-37455373D01*
X51918030Y-37606371D01*
X51927483Y-37629192D01*
X51977184Y-37793038D01*
X51982002Y-37817262D01*
X51999394Y-37993837D01*
X52000001Y-38006188D01*
X52000001Y-40653739D01*
X51986269Y-40710939D01*
X51984355Y-40714694D01*
X51964508Y-40840001D01*
X51981641Y-40948171D01*
X51984355Y-40965305D01*
X51986266Y-40969055D01*
X52000001Y-41026261D01*
X52000001Y-49247463D01*
X51986268Y-49304665D01*
X51956246Y-49363586D01*
X51936399Y-49488892D01*
X51956246Y-49614197D01*
X51986267Y-49673115D01*
X52000001Y-49730319D01*
X52000001Y-52493813D01*
X51999394Y-52506164D01*
X51982002Y-52682739D01*
X51977184Y-52706963D01*
X51927483Y-52870809D01*
X51918030Y-52893630D01*
X51837319Y-53044628D01*
X51823596Y-53065166D01*
X51714980Y-53197515D01*
X51697515Y-53214980D01*
X51565166Y-53323596D01*
X51544628Y-53337319D01*
X51393630Y-53418030D01*
X51370809Y-53427483D01*
X51206963Y-53477184D01*
X51182739Y-53482002D01*
X51034274Y-53496625D01*
X51006162Y-53499394D01*
X50993814Y-53500001D01*
X50083988Y-53500001D01*
X50015867Y-53479999D01*
X49994893Y-53463096D01*
X49988345Y-53456548D01*
X49875305Y-53398951D01*
X49750000Y-53379104D01*
X49624816Y-53398932D01*
X49554404Y-53389832D01*
X49545709Y-53385605D01*
X49455373Y-53337319D01*
X49434835Y-53323596D01*
X49302486Y-53214980D01*
X49285021Y-53197515D01*
X49176405Y-53065166D01*
X49162682Y-53044628D01*
X49149065Y-53019154D01*
X49081968Y-52893623D01*
X49072521Y-52870816D01*
X49022816Y-52706960D01*
X49017999Y-52682738D01*
X49000608Y-52506163D01*
X49000001Y-52493813D01*
X49000001Y-42235138D01*
X49013733Y-42177937D01*
X49045647Y-42115305D01*
X49065493Y-41990001D01*
X49045647Y-41864697D01*
X49045646Y-41864695D01*
X49013734Y-41802063D01*
X49000001Y-41744861D01*
X49000001Y-38006188D01*
X49000608Y-37993838D01*
X49017999Y-37817263D01*
X49018000Y-37817262D01*
X49017999Y-37817258D01*
X49022815Y-37793043D01*
X49072522Y-37629182D01*
X49081966Y-37606381D01*
X49162683Y-37455370D01*
X49176399Y-37434843D01*
X49285026Y-37302480D01*
X49302480Y-37285026D01*
X49434843Y-37176399D01*
X49455370Y-37162683D01*
X49606381Y-37081966D01*
X49629182Y-37072522D01*
X49793043Y-37022815D01*
X49817256Y-37018000D01*
X49871153Y-37012691D01*
X49940904Y-37025919D01*
X49972594Y-37048986D01*
X50011659Y-37088051D01*
X50124697Y-37145647D01*
X50250001Y-37165493D01*
X50375305Y-37145647D01*
X50488343Y-37088051D01*
X50539489Y-37036904D01*
X50601799Y-37002881D01*
X50628583Y-37000001D01*
X50993814Y-37000001D01*
X51006163Y-37000607D01*
G37*
%TD.AperFunction*%
%TD*%
%TA.AperFunction,Conductor*%
%TO.N,Board_0-IN2*%
G36*
X27006162Y-16500606D02*
G01*
X27182740Y-16517998D01*
X27206959Y-16522815D01*
X27370815Y-16572520D01*
X27393622Y-16581967D01*
X27512755Y-16645645D01*
X27544627Y-16662681D01*
X27565165Y-16676404D01*
X27697514Y-16785020D01*
X27714979Y-16802485D01*
X27823595Y-16934834D01*
X27837318Y-16955372D01*
X27918029Y-17106370D01*
X27927482Y-17129191D01*
X27977183Y-17293037D01*
X27982001Y-17317261D01*
X27999393Y-17493836D01*
X28000000Y-17506187D01*
X27999999Y-20153738D01*
X27986269Y-20210934D01*
X27984355Y-20214690D01*
X27964507Y-20340000D01*
X27981640Y-20448170D01*
X27984354Y-20465304D01*
X27986265Y-20469054D01*
X28000000Y-20526260D01*
X28000000Y-28747462D01*
X27986267Y-28804664D01*
X27956245Y-28863585D01*
X27936398Y-28988891D01*
X27956245Y-29114196D01*
X27986266Y-29173114D01*
X28000000Y-29230318D01*
X28000000Y-31993812D01*
X27999393Y-32006163D01*
X27982001Y-32182738D01*
X27977183Y-32206962D01*
X27927482Y-32370808D01*
X27918029Y-32393629D01*
X27837318Y-32544627D01*
X27823595Y-32565165D01*
X27714979Y-32697514D01*
X27697514Y-32714979D01*
X27565165Y-32823595D01*
X27544627Y-32837318D01*
X27393629Y-32918029D01*
X27370808Y-32927482D01*
X27206962Y-32977183D01*
X27182738Y-32982001D01*
X27034273Y-32996624D01*
X27006161Y-32999393D01*
X26993813Y-33000000D01*
X26083987Y-33000000D01*
X26015866Y-32979998D01*
X25994892Y-32963095D01*
X25988344Y-32956547D01*
X25875304Y-32898950D01*
X25749999Y-32879103D01*
X25624815Y-32898931D01*
X25554403Y-32889831D01*
X25545708Y-32885604D01*
X25455372Y-32837318D01*
X25434834Y-32823595D01*
X25302485Y-32714979D01*
X25285020Y-32697514D01*
X25176404Y-32565165D01*
X25162681Y-32544627D01*
X25149064Y-32519153D01*
X25081967Y-32393622D01*
X25072520Y-32370815D01*
X25022815Y-32206959D01*
X25017998Y-32182737D01*
X25000607Y-32006162D01*
X25000000Y-31993812D01*
X25000000Y-21735137D01*
X25013732Y-21677936D01*
X25045646Y-21615304D01*
X25065492Y-21490000D01*
X25045646Y-21364696D01*
X25045645Y-21364694D01*
X25013733Y-21302062D01*
X25000000Y-21244860D01*
X25000000Y-17506187D01*
X25000607Y-17493837D01*
X25017998Y-17317262D01*
X25017999Y-17317261D01*
X25017998Y-17317257D01*
X25022814Y-17293042D01*
X25072521Y-17129181D01*
X25081965Y-17106380D01*
X25162682Y-16955369D01*
X25176398Y-16934842D01*
X25285025Y-16802479D01*
X25302479Y-16785025D01*
X25434842Y-16676398D01*
X25455369Y-16662682D01*
X25606380Y-16581965D01*
X25629181Y-16572521D01*
X25793042Y-16522814D01*
X25817255Y-16517999D01*
X25871152Y-16512690D01*
X25940903Y-16525918D01*
X25972593Y-16548985D01*
X26011658Y-16588050D01*
X26124696Y-16645646D01*
X26250000Y-16665492D01*
X26375304Y-16645646D01*
X26488342Y-16588050D01*
X26539488Y-16536903D01*
X26601798Y-16502880D01*
X26628582Y-16500000D01*
X26993813Y-16500000D01*
X27006162Y-16500606D01*
G37*
%TD.AperFunction*%
%TD*%
%TA.AperFunction,Conductor*%
%TO.N,Board_1-IN5*%
G36*
X39006163Y-16500606D02*
G01*
X39182741Y-16517998D01*
X39206960Y-16522815D01*
X39370816Y-16572520D01*
X39393623Y-16581967D01*
X39519154Y-16649064D01*
X39544628Y-16662681D01*
X39565166Y-16676404D01*
X39697515Y-16785020D01*
X39714980Y-16802485D01*
X39823596Y-16934834D01*
X39837319Y-16955372D01*
X39918030Y-17106370D01*
X39927483Y-17129191D01*
X39977184Y-17293037D01*
X39982002Y-17317261D01*
X39999394Y-17493836D01*
X40000001Y-17506187D01*
X40000001Y-24444113D01*
X39986268Y-24501315D01*
X39974356Y-24524693D01*
X39954509Y-24649999D01*
X39974355Y-24775302D01*
X39974356Y-24775303D01*
X39986267Y-24798680D01*
X40000001Y-24855883D01*
X40000001Y-28394113D01*
X39986268Y-28451315D01*
X39974356Y-28474693D01*
X39954509Y-28599999D01*
X39974355Y-28725302D01*
X39974356Y-28725303D01*
X39986267Y-28748680D01*
X40000001Y-28805883D01*
X40000001Y-31993812D01*
X39999394Y-32006163D01*
X39982002Y-32182738D01*
X39977184Y-32206962D01*
X39927483Y-32370808D01*
X39918030Y-32393629D01*
X39837319Y-32544627D01*
X39823596Y-32565165D01*
X39714980Y-32697514D01*
X39697515Y-32714979D01*
X39565166Y-32823595D01*
X39544628Y-32837318D01*
X39393630Y-32918029D01*
X39370809Y-32927482D01*
X39206963Y-32977183D01*
X39182739Y-32982001D01*
X39034274Y-32996624D01*
X39006162Y-32999393D01*
X38993814Y-33000000D01*
X38006188Y-33000000D01*
X37993839Y-32999393D01*
X37961096Y-32996168D01*
X37817262Y-32982001D01*
X37793038Y-32977183D01*
X37629192Y-32927482D01*
X37606373Y-32918030D01*
X37558012Y-32892180D01*
X37455373Y-32837318D01*
X37434835Y-32823595D01*
X37302486Y-32714979D01*
X37285021Y-32697514D01*
X37176405Y-32565165D01*
X37162682Y-32544627D01*
X37149065Y-32519153D01*
X37081968Y-32393622D01*
X37072521Y-32370815D01*
X37022816Y-32206959D01*
X37017999Y-32182737D01*
X37000608Y-32006162D01*
X37000001Y-31993812D01*
X37000001Y-21704598D01*
X37001552Y-21684887D01*
X37005494Y-21659998D01*
X37001552Y-21635110D01*
X37000001Y-21615399D01*
X37000001Y-17506187D01*
X37000608Y-17493837D01*
X37017999Y-17317262D01*
X37018000Y-17317261D01*
X37017999Y-17317257D01*
X37022815Y-17293042D01*
X37072522Y-17129181D01*
X37081966Y-17106380D01*
X37162683Y-16955369D01*
X37176399Y-16934842D01*
X37285026Y-16802479D01*
X37302480Y-16785025D01*
X37434843Y-16676398D01*
X37455370Y-16662682D01*
X37606381Y-16581965D01*
X37629182Y-16572521D01*
X37793043Y-16522814D01*
X37817258Y-16517998D01*
X37993838Y-16500606D01*
X38006188Y-16500000D01*
X38993814Y-16500000D01*
X39006163Y-16500606D01*
G37*
%TD.AperFunction*%
%TD*%
%TA.AperFunction,Conductor*%
%TO.N,Board_0-IN4*%
G36*
X19006162Y-16500606D02*
G01*
X19182740Y-16517998D01*
X19206959Y-16522815D01*
X19370815Y-16572520D01*
X19393622Y-16581967D01*
X19519153Y-16649064D01*
X19544627Y-16662681D01*
X19565165Y-16676404D01*
X19697514Y-16785020D01*
X19714979Y-16802485D01*
X19823595Y-16934834D01*
X19837318Y-16955372D01*
X19918029Y-17106370D01*
X19927482Y-17129191D01*
X19977183Y-17293037D01*
X19982001Y-17317261D01*
X19999393Y-17493836D01*
X20000000Y-17506187D01*
X20000000Y-31993812D01*
X19999393Y-32006163D01*
X19982001Y-32182738D01*
X19977183Y-32206962D01*
X19927482Y-32370808D01*
X19918029Y-32393629D01*
X19837318Y-32544627D01*
X19823595Y-32565165D01*
X19714979Y-32697514D01*
X19697514Y-32714979D01*
X19565165Y-32823595D01*
X19544627Y-32837318D01*
X19393629Y-32918029D01*
X19370808Y-32927482D01*
X19206962Y-32977183D01*
X19182738Y-32982001D01*
X19034273Y-32996624D01*
X19006161Y-32999393D01*
X18993813Y-33000000D01*
X18006187Y-33000000D01*
X17993838Y-32999393D01*
X17961095Y-32996168D01*
X17817261Y-32982001D01*
X17793037Y-32977183D01*
X17629191Y-32927482D01*
X17606372Y-32918030D01*
X17558011Y-32892180D01*
X17455372Y-32837318D01*
X17434834Y-32823595D01*
X17302485Y-32714979D01*
X17285020Y-32697514D01*
X17176404Y-32565165D01*
X17162681Y-32544627D01*
X17149064Y-32519153D01*
X17081967Y-32393622D01*
X17072520Y-32370815D01*
X17022815Y-32206959D01*
X17017998Y-32182738D01*
X17000604Y-32006142D01*
X17000000Y-31993832D01*
X17000000Y-29444014D01*
X17013732Y-29386816D01*
X17018050Y-29378342D01*
X17075646Y-29265304D01*
X17095492Y-29140000D01*
X17075646Y-29014696D01*
X17018050Y-28901658D01*
X17013732Y-28893183D01*
X17000000Y-28835984D01*
X17000000Y-17506166D01*
X17000604Y-17493858D01*
X17017999Y-17317255D01*
X17022814Y-17293042D01*
X17072521Y-17129181D01*
X17081965Y-17106380D01*
X17162682Y-16955369D01*
X17176398Y-16934842D01*
X17285025Y-16802479D01*
X17302479Y-16785025D01*
X17434842Y-16676398D01*
X17455369Y-16662682D01*
X17606380Y-16581965D01*
X17629181Y-16572521D01*
X17793042Y-16522814D01*
X17817257Y-16517998D01*
X17993837Y-16500606D01*
X18006187Y-16500000D01*
X18993813Y-16500000D01*
X19006162Y-16500606D01*
G37*
%TD.AperFunction*%
%TD*%
%TA.AperFunction,Conductor*%
%TO.N,Board_1-IN4*%
G36*
X43006163Y-16500606D02*
G01*
X43182741Y-16517998D01*
X43206960Y-16522815D01*
X43370816Y-16572520D01*
X43393623Y-16581967D01*
X43519154Y-16649064D01*
X43544628Y-16662681D01*
X43565166Y-16676404D01*
X43697515Y-16785020D01*
X43714980Y-16802485D01*
X43823596Y-16934834D01*
X43837319Y-16955372D01*
X43918030Y-17106370D01*
X43927483Y-17129191D01*
X43977184Y-17293037D01*
X43982002Y-17317261D01*
X43999394Y-17493836D01*
X44000001Y-17506187D01*
X44000001Y-31993812D01*
X43999394Y-32006163D01*
X43982002Y-32182738D01*
X43977184Y-32206962D01*
X43927483Y-32370808D01*
X43918030Y-32393629D01*
X43837319Y-32544627D01*
X43823596Y-32565165D01*
X43714980Y-32697514D01*
X43697515Y-32714979D01*
X43565166Y-32823595D01*
X43544628Y-32837318D01*
X43393630Y-32918029D01*
X43370809Y-32927482D01*
X43206963Y-32977183D01*
X43182739Y-32982001D01*
X43034274Y-32996624D01*
X43006162Y-32999393D01*
X42993814Y-33000000D01*
X42006188Y-33000000D01*
X41993839Y-32999393D01*
X41961096Y-32996168D01*
X41817262Y-32982001D01*
X41793038Y-32977183D01*
X41629192Y-32927482D01*
X41606373Y-32918030D01*
X41558012Y-32892180D01*
X41455373Y-32837318D01*
X41434835Y-32823595D01*
X41302486Y-32714979D01*
X41285021Y-32697514D01*
X41176405Y-32565165D01*
X41162682Y-32544627D01*
X41149065Y-32519153D01*
X41081968Y-32393622D01*
X41072521Y-32370815D01*
X41022816Y-32206959D01*
X41017999Y-32182737D01*
X41000608Y-32006162D01*
X41000001Y-31993812D01*
X41000001Y-29444017D01*
X41013734Y-29386814D01*
X41018051Y-29378342D01*
X41075647Y-29265304D01*
X41095493Y-29140000D01*
X41075647Y-29014696D01*
X41031498Y-28928049D01*
X41013734Y-28893184D01*
X41000001Y-28835981D01*
X41000001Y-17506187D01*
X41000608Y-17493837D01*
X41017999Y-17317262D01*
X41018000Y-17317261D01*
X41017999Y-17317257D01*
X41022815Y-17293042D01*
X41072522Y-17129181D01*
X41081966Y-17106380D01*
X41162683Y-16955369D01*
X41176399Y-16934842D01*
X41285026Y-16802479D01*
X41302480Y-16785025D01*
X41434843Y-16676398D01*
X41455370Y-16662682D01*
X41606381Y-16581965D01*
X41629182Y-16572521D01*
X41793043Y-16522814D01*
X41817258Y-16517998D01*
X41993838Y-16500606D01*
X42006188Y-16500000D01*
X42993814Y-16500000D01*
X43006163Y-16500606D01*
G37*
%TD.AperFunction*%
%TD*%
%TA.AperFunction,Conductor*%
%TO.N,Board_2-IN1*%
G36*
X31006162Y-37000607D02*
G01*
X31182740Y-37017999D01*
X31206959Y-37022816D01*
X31370815Y-37072521D01*
X31393622Y-37081968D01*
X31519153Y-37149065D01*
X31544627Y-37162682D01*
X31565165Y-37176405D01*
X31697514Y-37285021D01*
X31714979Y-37302486D01*
X31823595Y-37434835D01*
X31837318Y-37455373D01*
X31918029Y-37606371D01*
X31927482Y-37629192D01*
X31977183Y-37793038D01*
X31982001Y-37817262D01*
X31999393Y-37993837D01*
X32000000Y-38006188D01*
X32000000Y-47071418D01*
X31983503Y-47127600D01*
X31986010Y-47128878D01*
X31919354Y-47259696D01*
X31899507Y-47385000D01*
X31919354Y-47510305D01*
X31986010Y-47641124D01*
X31981603Y-47643369D01*
X31997068Y-47671560D01*
X32000000Y-47698583D01*
X32000000Y-52493813D01*
X31999393Y-52506164D01*
X31982001Y-52682739D01*
X31977183Y-52706963D01*
X31927482Y-52870809D01*
X31918029Y-52893630D01*
X31837318Y-53044628D01*
X31823595Y-53065166D01*
X31714979Y-53197515D01*
X31697514Y-53214980D01*
X31565165Y-53323596D01*
X31544627Y-53337319D01*
X31393629Y-53418030D01*
X31370808Y-53427483D01*
X31206962Y-53477184D01*
X31182738Y-53482002D01*
X31034273Y-53496625D01*
X31006161Y-53499394D01*
X30993813Y-53500001D01*
X30006187Y-53500001D01*
X29993838Y-53499394D01*
X29961095Y-53496169D01*
X29817261Y-53482002D01*
X29793037Y-53477184D01*
X29629191Y-53427483D01*
X29606372Y-53418031D01*
X29558011Y-53392181D01*
X29455372Y-53337319D01*
X29434834Y-53323596D01*
X29302485Y-53214980D01*
X29285020Y-53197515D01*
X29176404Y-53065166D01*
X29162681Y-53044628D01*
X29149064Y-53019154D01*
X29081967Y-52893623D01*
X29072520Y-52870816D01*
X29022815Y-52706960D01*
X29017998Y-52682738D01*
X29000607Y-52506163D01*
X29000000Y-52493813D01*
X29000000Y-41626637D01*
X29005094Y-41605424D01*
X29002524Y-41605017D01*
X29025492Y-41460001D01*
X29002524Y-41314987D01*
X29005092Y-41314580D01*
X29000000Y-41293366D01*
X29000000Y-38006188D01*
X29000607Y-37993838D01*
X29017998Y-37817263D01*
X29017999Y-37817262D01*
X29017998Y-37817258D01*
X29022814Y-37793043D01*
X29072521Y-37629182D01*
X29081965Y-37606381D01*
X29162682Y-37455370D01*
X29176398Y-37434843D01*
X29285025Y-37302480D01*
X29302479Y-37285026D01*
X29434842Y-37176399D01*
X29455369Y-37162683D01*
X29606380Y-37081966D01*
X29629181Y-37072522D01*
X29793042Y-37022815D01*
X29817257Y-37017999D01*
X29993837Y-37000607D01*
X30006187Y-37000001D01*
X30993813Y-37000001D01*
X31006162Y-37000607D01*
G37*
%TD.AperFunction*%
%TD*%
%TA.AperFunction,Conductor*%
%TO.N,Board_2-IN5*%
G36*
X15006162Y-37000607D02*
G01*
X15182740Y-37017999D01*
X15206959Y-37022816D01*
X15370815Y-37072521D01*
X15393622Y-37081968D01*
X15519153Y-37149065D01*
X15544627Y-37162682D01*
X15565165Y-37176405D01*
X15697514Y-37285021D01*
X15714979Y-37302486D01*
X15823595Y-37434835D01*
X15837318Y-37455373D01*
X15918029Y-37606371D01*
X15927482Y-37629192D01*
X15977183Y-37793038D01*
X15982001Y-37817262D01*
X15999393Y-37993837D01*
X16000000Y-38006188D01*
X16000000Y-44944114D01*
X15986267Y-45001316D01*
X15974355Y-45024694D01*
X15954508Y-45150000D01*
X15974354Y-45275303D01*
X15974355Y-45275304D01*
X15986266Y-45298681D01*
X16000000Y-45355884D01*
X16000000Y-48894114D01*
X15986267Y-48951316D01*
X15974355Y-48974694D01*
X15954508Y-49100000D01*
X15974354Y-49225303D01*
X15974355Y-49225304D01*
X15986266Y-49248681D01*
X16000000Y-49305884D01*
X16000000Y-52493813D01*
X15999393Y-52506164D01*
X15982001Y-52682739D01*
X15977183Y-52706963D01*
X15927482Y-52870809D01*
X15918029Y-52893630D01*
X15837318Y-53044628D01*
X15823595Y-53065166D01*
X15714979Y-53197515D01*
X15697514Y-53214980D01*
X15565165Y-53323596D01*
X15544627Y-53337319D01*
X15393629Y-53418030D01*
X15370808Y-53427483D01*
X15206962Y-53477184D01*
X15182738Y-53482002D01*
X15034273Y-53496625D01*
X15006161Y-53499394D01*
X14993813Y-53500001D01*
X14006187Y-53500001D01*
X13993838Y-53499394D01*
X13961095Y-53496169D01*
X13817261Y-53482002D01*
X13793037Y-53477184D01*
X13629191Y-53427483D01*
X13606372Y-53418031D01*
X13558011Y-53392181D01*
X13455372Y-53337319D01*
X13434834Y-53323596D01*
X13302485Y-53214980D01*
X13285020Y-53197515D01*
X13176404Y-53065166D01*
X13162681Y-53044628D01*
X13149064Y-53019154D01*
X13081967Y-52893623D01*
X13072520Y-52870816D01*
X13022815Y-52706960D01*
X13017998Y-52682739D01*
X13000604Y-52506143D01*
X13000000Y-52493833D01*
X13000000Y-42204586D01*
X13001550Y-42184893D01*
X13005493Y-42160000D01*
X13001550Y-42135110D01*
X13000000Y-42115400D01*
X13000000Y-38006188D01*
X13000607Y-37993838D01*
X13017998Y-37817263D01*
X13017999Y-37817262D01*
X13017998Y-37817258D01*
X13022814Y-37793043D01*
X13072521Y-37629182D01*
X13081965Y-37606381D01*
X13162682Y-37455370D01*
X13176398Y-37434843D01*
X13285025Y-37302480D01*
X13302479Y-37285026D01*
X13434842Y-37176399D01*
X13455369Y-37162683D01*
X13606380Y-37081966D01*
X13629181Y-37072522D01*
X13793042Y-37022815D01*
X13817257Y-37017999D01*
X13993837Y-37000607D01*
X14006187Y-37000001D01*
X14993813Y-37000001D01*
X15006162Y-37000607D01*
G37*
%TD.AperFunction*%
%TD*%
%TA.AperFunction,Conductor*%
%TO.N,Board_3-IN4*%
G36*
X43006163Y-37000607D02*
G01*
X43182741Y-37017999D01*
X43206960Y-37022816D01*
X43370816Y-37072521D01*
X43393623Y-37081968D01*
X43519154Y-37149065D01*
X43544628Y-37162682D01*
X43565166Y-37176405D01*
X43697515Y-37285021D01*
X43714980Y-37302486D01*
X43823596Y-37434835D01*
X43837319Y-37455373D01*
X43918030Y-37606371D01*
X43927483Y-37629192D01*
X43977184Y-37793038D01*
X43982002Y-37817262D01*
X43999394Y-37993837D01*
X44000001Y-38006188D01*
X44000001Y-52493813D01*
X43999394Y-52506164D01*
X43982002Y-52682739D01*
X43977184Y-52706963D01*
X43927483Y-52870809D01*
X43918030Y-52893630D01*
X43837319Y-53044628D01*
X43823596Y-53065166D01*
X43714980Y-53197515D01*
X43697515Y-53214980D01*
X43565166Y-53323596D01*
X43544628Y-53337319D01*
X43393630Y-53418030D01*
X43370809Y-53427483D01*
X43206963Y-53477184D01*
X43182739Y-53482002D01*
X43034274Y-53496625D01*
X43006162Y-53499394D01*
X42993814Y-53500001D01*
X42006188Y-53500001D01*
X41993839Y-53499394D01*
X41961096Y-53496169D01*
X41817262Y-53482002D01*
X41793038Y-53477184D01*
X41629192Y-53427483D01*
X41606373Y-53418031D01*
X41558012Y-53392181D01*
X41455373Y-53337319D01*
X41434835Y-53323596D01*
X41302486Y-53214980D01*
X41285021Y-53197515D01*
X41176405Y-53065166D01*
X41162682Y-53044628D01*
X41149065Y-53019154D01*
X41081968Y-52893623D01*
X41072521Y-52870816D01*
X41022816Y-52706960D01*
X41017999Y-52682738D01*
X41000608Y-52506163D01*
X41000001Y-52493813D01*
X41000001Y-49944018D01*
X41013734Y-49886815D01*
X41018051Y-49878343D01*
X41075647Y-49765305D01*
X41095493Y-49640001D01*
X41075647Y-49514697D01*
X41031498Y-49428050D01*
X41013734Y-49393185D01*
X41000001Y-49335982D01*
X41000001Y-38006188D01*
X41000608Y-37993838D01*
X41017999Y-37817263D01*
X41018000Y-37817262D01*
X41017999Y-37817258D01*
X41022815Y-37793043D01*
X41072522Y-37629182D01*
X41081966Y-37606381D01*
X41162683Y-37455370D01*
X41176399Y-37434843D01*
X41285026Y-37302480D01*
X41302480Y-37285026D01*
X41434843Y-37176399D01*
X41455370Y-37162683D01*
X41606381Y-37081966D01*
X41629182Y-37072522D01*
X41793043Y-37022815D01*
X41817258Y-37017999D01*
X41993838Y-37000607D01*
X42006188Y-37000001D01*
X42993814Y-37000001D01*
X43006163Y-37000607D01*
G37*
%TD.AperFunction*%
%TD*%
%TA.AperFunction,Conductor*%
%TO.N,Board_2-IN2*%
G36*
X27006162Y-37000607D02*
G01*
X27182740Y-37017999D01*
X27206959Y-37022816D01*
X27370815Y-37072521D01*
X27393622Y-37081968D01*
X27512755Y-37145646D01*
X27544627Y-37162682D01*
X27565165Y-37176405D01*
X27697514Y-37285021D01*
X27714979Y-37302486D01*
X27823595Y-37434835D01*
X27837318Y-37455373D01*
X27918029Y-37606371D01*
X27927482Y-37629192D01*
X27977183Y-37793038D01*
X27982001Y-37817262D01*
X27999393Y-37993837D01*
X28000000Y-38006188D01*
X27999999Y-40653739D01*
X27986269Y-40710935D01*
X27984355Y-40714691D01*
X27964507Y-40840001D01*
X27981640Y-40948171D01*
X27984354Y-40965305D01*
X27986265Y-40969055D01*
X28000000Y-41026261D01*
X28000000Y-49247463D01*
X27986267Y-49304665D01*
X27956245Y-49363586D01*
X27936398Y-49488892D01*
X27956245Y-49614197D01*
X27986266Y-49673115D01*
X28000000Y-49730319D01*
X28000000Y-52493813D01*
X27999393Y-52506164D01*
X27982001Y-52682739D01*
X27977183Y-52706963D01*
X27927482Y-52870809D01*
X27918029Y-52893630D01*
X27837318Y-53044628D01*
X27823595Y-53065166D01*
X27714979Y-53197515D01*
X27697514Y-53214980D01*
X27565165Y-53323596D01*
X27544627Y-53337319D01*
X27393629Y-53418030D01*
X27370808Y-53427483D01*
X27206962Y-53477184D01*
X27182738Y-53482002D01*
X27034273Y-53496625D01*
X27006161Y-53499394D01*
X26993813Y-53500001D01*
X26083987Y-53500001D01*
X26015866Y-53479999D01*
X25994892Y-53463096D01*
X25988344Y-53456548D01*
X25875304Y-53398951D01*
X25749999Y-53379104D01*
X25624815Y-53398932D01*
X25554403Y-53389832D01*
X25545708Y-53385605D01*
X25455372Y-53337319D01*
X25434834Y-53323596D01*
X25302485Y-53214980D01*
X25285020Y-53197515D01*
X25176404Y-53065166D01*
X25162681Y-53044628D01*
X25149064Y-53019154D01*
X25081967Y-52893623D01*
X25072520Y-52870816D01*
X25022815Y-52706960D01*
X25017998Y-52682738D01*
X25000607Y-52506163D01*
X25000000Y-52493813D01*
X25000000Y-42235138D01*
X25013732Y-42177937D01*
X25045646Y-42115305D01*
X25065492Y-41990001D01*
X25045646Y-41864697D01*
X25045645Y-41864695D01*
X25013733Y-41802063D01*
X25000000Y-41744861D01*
X25000000Y-38006188D01*
X25000607Y-37993838D01*
X25017998Y-37817263D01*
X25017999Y-37817262D01*
X25017998Y-37817258D01*
X25022814Y-37793043D01*
X25072521Y-37629182D01*
X25081965Y-37606381D01*
X25162682Y-37455370D01*
X25176398Y-37434843D01*
X25285025Y-37302480D01*
X25302479Y-37285026D01*
X25434842Y-37176399D01*
X25455369Y-37162683D01*
X25606380Y-37081966D01*
X25629181Y-37072522D01*
X25793042Y-37022815D01*
X25817255Y-37018000D01*
X25871152Y-37012691D01*
X25940903Y-37025919D01*
X25972593Y-37048986D01*
X26011658Y-37088051D01*
X26124696Y-37145647D01*
X26250000Y-37165493D01*
X26375304Y-37145647D01*
X26488342Y-37088051D01*
X26539488Y-37036904D01*
X26601798Y-37002881D01*
X26628582Y-37000001D01*
X26993813Y-37000001D01*
X27006162Y-37000607D01*
G37*
%TD.AperFunction*%
%TD*%
%TA.AperFunction,Conductor*%
%TO.N,Board_0-IN1*%
G36*
X31006162Y-16500606D02*
G01*
X31182740Y-16517998D01*
X31206959Y-16522815D01*
X31370815Y-16572520D01*
X31393622Y-16581967D01*
X31519153Y-16649064D01*
X31544627Y-16662681D01*
X31565165Y-16676404D01*
X31697514Y-16785020D01*
X31714979Y-16802485D01*
X31823595Y-16934834D01*
X31837318Y-16955372D01*
X31918029Y-17106370D01*
X31927482Y-17129191D01*
X31977183Y-17293037D01*
X31982001Y-17317261D01*
X31999393Y-17493836D01*
X32000000Y-17506187D01*
X32000000Y-26571417D01*
X31983503Y-26627600D01*
X31986010Y-26628878D01*
X31919354Y-26759695D01*
X31899507Y-26885000D01*
X31919354Y-27010304D01*
X31986010Y-27141123D01*
X31981603Y-27143368D01*
X31997068Y-27171559D01*
X32000000Y-27198582D01*
X32000000Y-31993812D01*
X31999393Y-32006163D01*
X31982001Y-32182738D01*
X31977183Y-32206962D01*
X31927482Y-32370808D01*
X31918029Y-32393629D01*
X31837318Y-32544627D01*
X31823595Y-32565165D01*
X31714979Y-32697514D01*
X31697514Y-32714979D01*
X31565165Y-32823595D01*
X31544627Y-32837318D01*
X31393629Y-32918029D01*
X31370808Y-32927482D01*
X31206962Y-32977183D01*
X31182738Y-32982001D01*
X31034273Y-32996624D01*
X31006161Y-32999393D01*
X30993813Y-33000000D01*
X30006187Y-33000000D01*
X29993838Y-32999393D01*
X29961095Y-32996168D01*
X29817261Y-32982001D01*
X29793037Y-32977183D01*
X29629191Y-32927482D01*
X29606372Y-32918030D01*
X29558011Y-32892180D01*
X29455372Y-32837318D01*
X29434834Y-32823595D01*
X29302485Y-32714979D01*
X29285020Y-32697514D01*
X29176404Y-32565165D01*
X29162681Y-32544627D01*
X29149064Y-32519153D01*
X29081967Y-32393622D01*
X29072520Y-32370815D01*
X29022815Y-32206959D01*
X29017998Y-32182737D01*
X29000607Y-32006162D01*
X29000000Y-31993812D01*
X29000000Y-21126636D01*
X29005094Y-21105423D01*
X29002524Y-21105016D01*
X29025492Y-20960000D01*
X29002524Y-20814986D01*
X29005092Y-20814579D01*
X29000000Y-20793365D01*
X29000000Y-17506187D01*
X29000607Y-17493837D01*
X29017998Y-17317262D01*
X29017999Y-17317261D01*
X29017998Y-17317257D01*
X29022814Y-17293042D01*
X29072521Y-17129181D01*
X29081965Y-17106380D01*
X29162682Y-16955369D01*
X29176398Y-16934842D01*
X29285025Y-16802479D01*
X29302479Y-16785025D01*
X29434842Y-16676398D01*
X29455369Y-16662682D01*
X29606380Y-16581965D01*
X29629181Y-16572521D01*
X29793042Y-16522814D01*
X29817257Y-16517998D01*
X29993837Y-16500606D01*
X30006187Y-16500000D01*
X30993813Y-16500000D01*
X31006162Y-16500606D01*
G37*
%TD.AperFunction*%
%TD*%
%TA.AperFunction,Conductor*%
%TO.N,Board_2-IN4*%
G36*
X19006162Y-37000607D02*
G01*
X19182740Y-37017999D01*
X19206959Y-37022816D01*
X19370815Y-37072521D01*
X19393622Y-37081968D01*
X19519153Y-37149065D01*
X19544627Y-37162682D01*
X19565165Y-37176405D01*
X19697514Y-37285021D01*
X19714979Y-37302486D01*
X19823595Y-37434835D01*
X19837318Y-37455373D01*
X19918029Y-37606371D01*
X19927482Y-37629192D01*
X19977183Y-37793038D01*
X19982001Y-37817262D01*
X19999393Y-37993837D01*
X20000000Y-38006188D01*
X20000000Y-52493813D01*
X19999393Y-52506164D01*
X19982001Y-52682739D01*
X19977183Y-52706963D01*
X19927482Y-52870809D01*
X19918029Y-52893630D01*
X19837318Y-53044628D01*
X19823595Y-53065166D01*
X19714979Y-53197515D01*
X19697514Y-53214980D01*
X19565165Y-53323596D01*
X19544627Y-53337319D01*
X19393629Y-53418030D01*
X19370808Y-53427483D01*
X19206962Y-53477184D01*
X19182738Y-53482002D01*
X19034273Y-53496625D01*
X19006161Y-53499394D01*
X18993813Y-53500001D01*
X18006187Y-53500001D01*
X17993838Y-53499394D01*
X17961095Y-53496169D01*
X17817261Y-53482002D01*
X17793037Y-53477184D01*
X17629191Y-53427483D01*
X17606372Y-53418031D01*
X17558011Y-53392181D01*
X17455372Y-53337319D01*
X17434834Y-53323596D01*
X17302485Y-53214980D01*
X17285020Y-53197515D01*
X17176404Y-53065166D01*
X17162681Y-53044628D01*
X17149064Y-53019154D01*
X17081967Y-52893623D01*
X17072520Y-52870816D01*
X17022815Y-52706960D01*
X17017998Y-52682739D01*
X17000604Y-52506143D01*
X17000000Y-52493833D01*
X17000000Y-49944015D01*
X17013732Y-49886817D01*
X17018050Y-49878343D01*
X17075646Y-49765305D01*
X17095492Y-49640001D01*
X17075646Y-49514697D01*
X17018050Y-49401659D01*
X17013732Y-49393184D01*
X17000000Y-49335985D01*
X17000000Y-38006167D01*
X17000604Y-37993859D01*
X17017999Y-37817256D01*
X17022814Y-37793043D01*
X17072521Y-37629182D01*
X17081965Y-37606381D01*
X17162682Y-37455370D01*
X17176398Y-37434843D01*
X17285025Y-37302480D01*
X17302479Y-37285026D01*
X17434842Y-37176399D01*
X17455369Y-37162683D01*
X17606380Y-37081966D01*
X17629181Y-37072522D01*
X17793042Y-37022815D01*
X17817257Y-37017999D01*
X17993837Y-37000607D01*
X18006187Y-37000001D01*
X18993813Y-37000001D01*
X19006162Y-37000607D01*
G37*
%TD.AperFunction*%
%TD*%
%TA.AperFunction,Conductor*%
%TO.N,Board_1-IN3*%
G36*
X47006163Y-16500606D02*
G01*
X47182741Y-16517998D01*
X47206960Y-16522815D01*
X47370816Y-16572520D01*
X47393623Y-16581967D01*
X47519154Y-16649064D01*
X47544628Y-16662681D01*
X47565166Y-16676404D01*
X47697515Y-16785020D01*
X47714980Y-16802485D01*
X47823596Y-16934834D01*
X47837319Y-16955372D01*
X47918030Y-17106370D01*
X47927483Y-17129191D01*
X47977184Y-17293037D01*
X47982002Y-17317261D01*
X47999394Y-17493836D01*
X48000001Y-17506187D01*
X48000001Y-21754486D01*
X47986268Y-21811688D01*
X47964355Y-21854694D01*
X47944508Y-21980000D01*
X47964355Y-22105305D01*
X47986267Y-22148308D01*
X48000001Y-22205512D01*
X48000001Y-31993812D01*
X47999394Y-32006163D01*
X47982002Y-32182738D01*
X47977184Y-32206962D01*
X47927483Y-32370808D01*
X47918030Y-32393629D01*
X47837319Y-32544627D01*
X47823596Y-32565165D01*
X47714980Y-32697514D01*
X47697515Y-32714979D01*
X47565166Y-32823595D01*
X47544628Y-32837318D01*
X47393630Y-32918029D01*
X47370809Y-32927482D01*
X47206963Y-32977183D01*
X47182739Y-32982001D01*
X47034274Y-32996624D01*
X47006162Y-32999393D01*
X46993814Y-33000000D01*
X46108585Y-33000000D01*
X46040464Y-32979998D01*
X46019494Y-32963099D01*
X45978344Y-32921949D01*
X45978343Y-32921948D01*
X45865306Y-32864353D01*
X45740002Y-32844506D01*
X45626243Y-32862524D01*
X45614698Y-32864353D01*
X45614697Y-32864353D01*
X45594988Y-32867475D01*
X45594932Y-32867124D01*
X45547837Y-32875966D01*
X45501025Y-32861719D01*
X45455377Y-32837321D01*
X45434845Y-32823603D01*
X45302485Y-32714978D01*
X45285021Y-32697514D01*
X45176405Y-32565165D01*
X45162682Y-32544627D01*
X45149065Y-32519153D01*
X45081968Y-32393622D01*
X45072521Y-32370815D01*
X45022816Y-32206959D01*
X45017999Y-32182737D01*
X45000608Y-32006162D01*
X45000001Y-31993812D01*
X45000001Y-23877691D01*
X45013734Y-23820488D01*
X45020747Y-23806725D01*
X45078343Y-23693687D01*
X45098189Y-23568383D01*
X45078343Y-23443079D01*
X45020747Y-23330041D01*
X45020746Y-23330040D01*
X45013734Y-23316278D01*
X45000001Y-23259075D01*
X45000001Y-17506187D01*
X45000608Y-17493837D01*
X45017999Y-17317262D01*
X45018000Y-17317261D01*
X45017999Y-17317257D01*
X45022815Y-17293042D01*
X45072522Y-17129181D01*
X45081966Y-17106380D01*
X45162683Y-16955369D01*
X45176399Y-16934842D01*
X45285026Y-16802479D01*
X45302480Y-16785025D01*
X45434843Y-16676398D01*
X45455370Y-16662682D01*
X45606381Y-16581965D01*
X45629182Y-16572521D01*
X45793043Y-16522814D01*
X45817254Y-16517999D01*
X45880257Y-16511793D01*
X45950007Y-16525021D01*
X45981701Y-16548092D01*
X46011657Y-16578049D01*
X46011659Y-16578050D01*
X46124697Y-16635646D01*
X46250001Y-16655492D01*
X46375305Y-16635646D01*
X46488343Y-16578050D01*
X46529489Y-16536903D01*
X46591799Y-16502880D01*
X46618583Y-16500000D01*
X46993814Y-16500000D01*
X47006163Y-16500606D01*
G37*
%TD.AperFunction*%
%TD*%
%TA.AperFunction,Conductor*%
%TO.N,Board_3-IN1*%
G36*
X55006163Y-37000607D02*
G01*
X55182741Y-37017999D01*
X55206960Y-37022816D01*
X55370816Y-37072521D01*
X55393623Y-37081968D01*
X55519154Y-37149065D01*
X55544628Y-37162682D01*
X55565166Y-37176405D01*
X55697515Y-37285021D01*
X55714980Y-37302486D01*
X55823596Y-37434835D01*
X55837319Y-37455373D01*
X55918030Y-37606371D01*
X55927483Y-37629192D01*
X55977184Y-37793038D01*
X55982002Y-37817262D01*
X55999394Y-37993837D01*
X56000001Y-38006188D01*
X56000001Y-47071418D01*
X55983504Y-47127601D01*
X55986011Y-47128879D01*
X55919355Y-47259696D01*
X55899508Y-47385001D01*
X55919355Y-47510305D01*
X55986011Y-47641124D01*
X55981604Y-47643369D01*
X55997069Y-47671560D01*
X56000001Y-47698583D01*
X56000001Y-52493813D01*
X55999394Y-52506164D01*
X55982002Y-52682739D01*
X55977184Y-52706963D01*
X55927483Y-52870809D01*
X55918030Y-52893630D01*
X55837319Y-53044628D01*
X55823596Y-53065166D01*
X55714980Y-53197515D01*
X55697515Y-53214980D01*
X55565166Y-53323596D01*
X55544628Y-53337319D01*
X55393630Y-53418030D01*
X55370809Y-53427483D01*
X55206963Y-53477184D01*
X55182739Y-53482002D01*
X55034274Y-53496625D01*
X55006162Y-53499394D01*
X54993814Y-53500001D01*
X54006188Y-53500001D01*
X53993839Y-53499394D01*
X53961096Y-53496169D01*
X53817262Y-53482002D01*
X53793038Y-53477184D01*
X53629192Y-53427483D01*
X53606373Y-53418031D01*
X53558012Y-53392181D01*
X53455373Y-53337319D01*
X53434835Y-53323596D01*
X53302486Y-53214980D01*
X53285021Y-53197515D01*
X53176405Y-53065166D01*
X53162682Y-53044628D01*
X53149065Y-53019154D01*
X53081968Y-52893623D01*
X53072521Y-52870816D01*
X53022816Y-52706960D01*
X53017999Y-52682738D01*
X53000608Y-52506163D01*
X53000001Y-52493813D01*
X53000001Y-41626637D01*
X53005095Y-41605424D01*
X53002525Y-41605017D01*
X53025493Y-41460001D01*
X53002525Y-41314987D01*
X53005093Y-41314580D01*
X53000001Y-41293366D01*
X53000001Y-38006167D01*
X53000605Y-37993859D01*
X53018000Y-37817256D01*
X53022815Y-37793043D01*
X53072522Y-37629182D01*
X53081966Y-37606381D01*
X53162683Y-37455370D01*
X53176399Y-37434843D01*
X53285026Y-37302480D01*
X53302480Y-37285026D01*
X53434843Y-37176399D01*
X53455370Y-37162683D01*
X53606381Y-37081966D01*
X53629182Y-37072522D01*
X53793043Y-37022815D01*
X53817258Y-37017999D01*
X53993838Y-37000607D01*
X54006188Y-37000001D01*
X54993814Y-37000001D01*
X55006163Y-37000607D01*
G37*
%TD.AperFunction*%
%TD*%
%TA.AperFunction,Conductor*%
%TO.N,Board_0-IN5*%
G36*
X15006162Y-16500606D02*
G01*
X15182740Y-16517998D01*
X15206959Y-16522815D01*
X15370815Y-16572520D01*
X15393622Y-16581967D01*
X15519153Y-16649064D01*
X15544627Y-16662681D01*
X15565165Y-16676404D01*
X15697514Y-16785020D01*
X15714979Y-16802485D01*
X15823595Y-16934834D01*
X15837318Y-16955372D01*
X15918029Y-17106370D01*
X15927482Y-17129191D01*
X15977183Y-17293037D01*
X15982001Y-17317261D01*
X15999393Y-17493836D01*
X16000000Y-17506187D01*
X16000000Y-24444113D01*
X15986267Y-24501315D01*
X15974355Y-24524693D01*
X15954508Y-24649999D01*
X15974354Y-24775302D01*
X15974355Y-24775303D01*
X15986266Y-24798680D01*
X16000000Y-24855883D01*
X16000000Y-28394113D01*
X15986267Y-28451315D01*
X15974355Y-28474693D01*
X15954508Y-28599999D01*
X15974354Y-28725302D01*
X15974355Y-28725303D01*
X15986266Y-28748680D01*
X16000000Y-28805883D01*
X16000000Y-31993812D01*
X15999393Y-32006163D01*
X15982001Y-32182738D01*
X15977183Y-32206962D01*
X15927482Y-32370808D01*
X15918029Y-32393629D01*
X15837318Y-32544627D01*
X15823595Y-32565165D01*
X15714979Y-32697514D01*
X15697514Y-32714979D01*
X15565165Y-32823595D01*
X15544627Y-32837318D01*
X15393629Y-32918029D01*
X15370808Y-32927482D01*
X15206962Y-32977183D01*
X15182738Y-32982001D01*
X15034273Y-32996624D01*
X15006161Y-32999393D01*
X14993813Y-33000000D01*
X14006187Y-33000000D01*
X13993838Y-32999393D01*
X13961095Y-32996168D01*
X13817261Y-32982001D01*
X13793037Y-32977183D01*
X13629191Y-32927482D01*
X13606372Y-32918030D01*
X13558011Y-32892180D01*
X13455372Y-32837318D01*
X13434834Y-32823595D01*
X13302485Y-32714979D01*
X13285020Y-32697514D01*
X13176404Y-32565165D01*
X13162681Y-32544627D01*
X13149064Y-32519153D01*
X13081967Y-32393622D01*
X13072520Y-32370815D01*
X13022815Y-32206959D01*
X13017998Y-32182738D01*
X13000604Y-32006142D01*
X13000000Y-31993832D01*
X13000000Y-21704585D01*
X13001550Y-21684892D01*
X13005493Y-21659999D01*
X13001550Y-21635109D01*
X13000000Y-21615399D01*
X13000000Y-17506187D01*
X13000607Y-17493837D01*
X13017998Y-17317262D01*
X13017999Y-17317261D01*
X13017998Y-17317257D01*
X13022814Y-17293042D01*
X13072521Y-17129181D01*
X13081965Y-17106380D01*
X13162682Y-16955369D01*
X13176398Y-16934842D01*
X13285025Y-16802479D01*
X13302479Y-16785025D01*
X13434842Y-16676398D01*
X13455369Y-16662682D01*
X13606380Y-16581965D01*
X13629181Y-16572521D01*
X13793042Y-16522814D01*
X13817257Y-16517998D01*
X13993837Y-16500606D01*
X14006187Y-16500000D01*
X14993813Y-16500000D01*
X15006162Y-16500606D01*
G37*
%TD.AperFunction*%
%TD*%
M02*
