M48
; DRILL file {KiCad 7.0.2-6a45011f42~172~ubuntu22.04.1} date Fri 19 May 2023 13:44:39 BST
; FORMAT={-:-/ absolute / inch / decimal}
; #@! TF.CreationDate,2023-05-19T13:44:39+01:00
; #@! TF.GenerationSoftware,Kicad,Pcbnew,7.0.2-6a45011f42~172~ubuntu22.04.1
; #@! TF.FileFunction,Plated,1,4,PTH
FMAT,2
INCH
; #@! TA.AperFunction,Plated,PTH,ViaDrill
T1C0.0118
%
G90
G05
T1
X0.2988Y-0.6157
X0.2988Y-1.4228
X0.2992Y-0.6559
X0.2992Y-1.463
X0.4417Y-0.648
X0.4417Y-1.4551
X0.4472Y-0.7736
X0.4472Y-0.9291
X0.4472Y-1.5807
X0.4472Y-1.7362
X0.4528Y-0.698
X0.4528Y-1.5051
X0.4602Y-0.9504
X0.4602Y-1.7575
X0.465Y-0.6299
X0.465Y-1.437
X0.6178Y-0.731
X0.6178Y-1.5381
X0.6398Y-0.4433
X0.6398Y-1.2504
X0.6402Y-1.1228
X0.6402Y-1.9299
X0.659Y-0.4335
X0.659Y-1.2406
X0.6591Y-1.1122
X0.6591Y-1.9193
X0.6783Y-1.1224
X0.6783Y-1.9295
X0.6791Y-0.4429
X0.6791Y-1.25
X0.7094Y-0.4339
X0.7094Y-1.2409
X0.7295Y-1.1161
X0.7295Y-1.9232
X0.7382Y-0.4335
X0.7382Y-1.2406
X0.7531Y-1.1157
X0.7531Y-1.9228
X0.7579Y-0.4433
X0.7579Y-1.2504
X0.7583Y-0.6323
X0.7583Y-1.4394
X0.7618Y-0.6685
X0.7618Y-1.4756
X0.7646Y-0.9004
X0.7646Y-0.9268
X0.7646Y-1.7075
X0.7646Y-1.7339
X0.7681Y-0.6906
X0.7681Y-1.4976
X0.774Y-0.6492
X0.774Y-1.4563
X0.7772Y-1.1124
X0.7772Y-1.9195
X0.7776Y-0.4339
X0.7776Y-1.2409
X0.7969Y-1.1244
X0.7969Y-1.9315
X0.7972Y-0.4433
X0.7972Y-1.2504
X0.8169Y-0.4303
X0.8169Y-1.1136
X0.8169Y-1.2374
X0.8169Y-1.9207
X0.8366Y-0.4433
X0.8366Y-1.2504
X0.8402Y-1.122
X0.8402Y-1.9291
X0.9138Y-0.6614
X0.9138Y-1.4685
X0.919Y-0.9444
X0.919Y-1.7515
X0.9201Y-0.6039
X0.9201Y-1.411
X0.9256Y-0.748
X0.9256Y-1.5551
X0.9299Y-0.6283
X0.9299Y-1.4354
X0.9366Y-0.6618
X0.9366Y-1.4689
X1.078Y-0.8843
X1.078Y-1.6913
X1.0795Y-0.6484
X1.0795Y-1.4555
X1.2437Y-0.6157
X1.2437Y-1.4228
X1.2441Y-0.6559
X1.2441Y-1.463
X1.3866Y-0.648
X1.3866Y-1.4551
X1.3921Y-0.7736
X1.3921Y-0.9291
X1.3921Y-1.5807
X1.3921Y-1.7362
X1.3976Y-0.698
X1.3976Y-1.5051
X1.4051Y-0.9504
X1.4051Y-1.7575
X1.4098Y-0.6299
X1.4098Y-1.437
X1.5627Y-0.731
X1.5627Y-1.5381
X1.5846Y-0.4433
X1.5846Y-1.2504
X1.585Y-1.1228
X1.585Y-1.9299
X1.6039Y-0.4335
X1.6039Y-1.2406
X1.6039Y-1.1122
X1.6039Y-1.9193
X1.6231Y-1.1224
X1.6231Y-1.9295
X1.624Y-0.4429
X1.624Y-1.25
X1.6543Y-0.4339
X1.6543Y-1.2409
X1.6744Y-1.1161
X1.6744Y-1.9232
X1.6831Y-0.4335
X1.6831Y-1.2406
X1.698Y-1.1157
X1.698Y-1.9228
X1.7028Y-0.4433
X1.7028Y-1.2504
X1.7031Y-0.6323
X1.7031Y-1.4394
X1.7067Y-0.6685
X1.7067Y-1.4756
X1.7094Y-0.9004
X1.7094Y-0.9268
X1.7094Y-1.7075
X1.7094Y-1.7339
X1.713Y-0.6906
X1.713Y-1.4976
X1.7189Y-0.6492
X1.7189Y-1.4563
X1.722Y-1.1124
X1.722Y-1.9195
X1.7224Y-0.4339
X1.7224Y-1.2409
X1.7417Y-1.1244
X1.7417Y-1.9315
X1.7421Y-0.4433
X1.7421Y-1.2504
X1.7618Y-0.4303
X1.7618Y-1.1136
X1.7618Y-1.2374
X1.7618Y-1.9207
X1.7815Y-0.4433
X1.7815Y-1.2504
X1.785Y-1.122
X1.785Y-1.9291
X1.8587Y-0.6614
X1.8587Y-1.4685
X1.8639Y-0.9444
X1.8639Y-1.7515
X1.865Y-0.6039
X1.865Y-1.411
X1.8705Y-0.748
X1.8705Y-1.5551
X1.8748Y-0.6283
X1.8748Y-1.4354
X1.8815Y-0.6618
X1.8815Y-1.4689
X2.0228Y-0.8843
X2.0228Y-1.6913
X2.0244Y-0.6484
X2.0244Y-1.4555
T0
M30
