%TF.GenerationSoftware,KiCad,Pcbnew,7.0.2-6a45011f42~172~ubuntu22.04.1*%
%TF.CreationDate,2023-05-19T13:44:39+01:00*%
%TF.ProjectId,panel,70616e65-6c2e-46b6-9963-61645f706362,rev?*%
%TF.SameCoordinates,Original*%
%TF.FileFunction,Paste,Top*%
%TF.FilePolarity,Positive*%
%FSLAX46Y46*%
G04 Gerber Fmt 4.6, Leading zero omitted, Abs format (unit mm)*
G04 Created by KiCad (PCBNEW 7.0.2-6a45011f42~172~ubuntu22.04.1) date 2023-05-19 13:44:39*
%MOMM*%
%LPD*%
G01*
G04 APERTURE LIST*
G04 Aperture macros list*
%AMRoundRect*
0 Rectangle with rounded corners*
0 $1 Rounding radius*
0 $2 $3 $4 $5 $6 $7 $8 $9 X,Y pos of 4 corners*
0 Add a 4 corners polygon primitive as box body*
4,1,4,$2,$3,$4,$5,$6,$7,$8,$9,$2,$3,0*
0 Add four circle primitives for the rounded corners*
1,1,$1+$1,$2,$3*
1,1,$1+$1,$4,$5*
1,1,$1+$1,$6,$7*
1,1,$1+$1,$8,$9*
0 Add four rect primitives between the rounded corners*
20,1,$1+$1,$2,$3,$4,$5,0*
20,1,$1+$1,$4,$5,$6,$7,0*
20,1,$1+$1,$6,$7,$8,$9,0*
20,1,$1+$1,$8,$9,$2,$3,0*%
G04 Aperture macros list end*
%ADD10C,0.100000*%
%ADD11RoundRect,0.140000X0.170000X-0.140000X0.170000X0.140000X-0.170000X0.140000X-0.170000X-0.140000X0*%
%ADD12RoundRect,0.140000X0.140000X0.170000X-0.140000X0.170000X-0.140000X-0.170000X0.140000X-0.170000X0*%
%ADD13RoundRect,0.140000X-0.140000X-0.170000X0.140000X-0.170000X0.140000X0.170000X-0.140000X0.170000X0*%
%ADD14RoundRect,0.140000X-0.170000X0.140000X-0.170000X-0.140000X0.170000X-0.140000X0.170000X0.140000X0*%
%ADD15R,0.500000X1.600000*%
%ADD16R,1.500000X2.900000*%
%ADD17R,0.250000X0.600000*%
%ADD18R,0.600000X0.250000*%
%ADD19RoundRect,0.237500X0.237500X0.362500X-0.237500X0.362500X-0.237500X-0.362500X0.237500X-0.362500X0*%
%ADD20RoundRect,0.237500X-0.237500X0.362500X-0.237500X-0.362500X0.237500X-0.362500X0.237500X0.362500X0*%
%ADD21R,0.700000X0.700000*%
%ADD22RoundRect,0.125000X0.125000X0.125000X-0.125000X0.125000X-0.125000X-0.125000X0.125000X-0.125000X0*%
%ADD23RoundRect,0.050000X0.375000X0.050000X-0.375000X0.050000X-0.375000X-0.050000X0.375000X-0.050000X0*%
%ADD24RoundRect,0.050000X0.050000X0.375000X-0.050000X0.375000X-0.050000X-0.375000X0.050000X-0.375000X0*%
G04 APERTURE END LIST*
%TO.C,U1*%
D10*
X23675071Y-39218901D02*
X23372522Y-39218901D01*
X23231101Y-39077480D01*
X23231101Y-38774931D01*
X23675071Y-38774931D01*
X23675071Y-39218901D01*
G36*
X23675071Y-39218901D02*
G01*
X23372522Y-39218901D01*
X23231101Y-39077480D01*
X23231101Y-38774931D01*
X23675071Y-38774931D01*
X23675071Y-39218901D01*
G37*
X20668901Y-39077480D02*
X20527480Y-39218901D01*
X20224931Y-39218901D01*
X20224931Y-38774931D01*
X20668901Y-38774931D01*
X20668901Y-39077480D01*
G36*
X20668901Y-39077480D02*
G01*
X20527480Y-39218901D01*
X20224931Y-39218901D01*
X20224931Y-38774931D01*
X20668901Y-38774931D01*
X20668901Y-39077480D01*
G37*
X23675071Y-42225071D02*
X23231101Y-42225071D01*
X23231101Y-41922522D01*
X23372522Y-41781101D01*
X23675071Y-41781101D01*
X23675071Y-42225071D01*
G36*
X23675071Y-42225071D02*
G01*
X23231101Y-42225071D01*
X23231101Y-41922522D01*
X23372522Y-41781101D01*
X23675071Y-41781101D01*
X23675071Y-42225071D01*
G37*
X20668901Y-41922522D02*
X20668901Y-42225071D01*
X20224931Y-42225071D01*
X20224931Y-41781101D01*
X20527480Y-41781101D01*
X20668901Y-41922522D01*
G36*
X20668901Y-41922522D02*
G01*
X20668901Y-42225071D01*
X20224931Y-42225071D01*
X20224931Y-41781101D01*
X20527480Y-41781101D01*
X20668901Y-41922522D01*
G37*
X23031101Y-39077480D02*
X22889680Y-39218901D01*
X22585122Y-39218901D01*
X22443701Y-39077480D01*
X22443701Y-38774931D01*
X23031101Y-38774931D01*
X23031101Y-39077480D01*
G36*
X23031101Y-39077480D02*
G01*
X22889680Y-39218901D01*
X22585122Y-39218901D01*
X22443701Y-39077480D01*
X22443701Y-38774931D01*
X23031101Y-38774931D01*
X23031101Y-39077480D01*
G37*
X22243701Y-39077480D02*
X22102280Y-39218901D01*
X21797722Y-39218901D01*
X21656301Y-39077480D01*
X21656301Y-38774931D01*
X22243701Y-38774931D01*
X22243701Y-39077480D01*
G36*
X22243701Y-39077480D02*
G01*
X22102280Y-39218901D01*
X21797722Y-39218901D01*
X21656301Y-39077480D01*
X21656301Y-38774931D01*
X22243701Y-38774931D01*
X22243701Y-39077480D01*
G37*
X21456301Y-39077480D02*
X21314880Y-39218901D01*
X21010322Y-39218901D01*
X20868901Y-39077480D01*
X20868901Y-38774931D01*
X21456301Y-38774931D01*
X21456301Y-39077480D01*
G36*
X21456301Y-39077480D02*
G01*
X21314880Y-39218901D01*
X21010322Y-39218901D01*
X20868901Y-39077480D01*
X20868901Y-38774931D01*
X21456301Y-38774931D01*
X21456301Y-39077480D01*
G37*
X23675071Y-40006301D02*
X23372522Y-40006301D01*
X23231101Y-39864880D01*
X23231101Y-39560322D01*
X23372522Y-39418901D01*
X23675071Y-39418901D01*
X23675071Y-40006301D01*
G36*
X23675071Y-40006301D02*
G01*
X23372522Y-40006301D01*
X23231101Y-39864880D01*
X23231101Y-39560322D01*
X23372522Y-39418901D01*
X23675071Y-39418901D01*
X23675071Y-40006301D01*
G37*
X20668901Y-39560322D02*
X20668901Y-39864880D01*
X20527480Y-40006301D01*
X20224931Y-40006301D01*
X20224931Y-39418901D01*
X20527480Y-39418901D01*
X20668901Y-39560322D01*
G36*
X20668901Y-39560322D02*
G01*
X20668901Y-39864880D01*
X20527480Y-40006301D01*
X20224931Y-40006301D01*
X20224931Y-39418901D01*
X20527480Y-39418901D01*
X20668901Y-39560322D01*
G37*
X23675071Y-40793701D02*
X23372522Y-40793701D01*
X23231101Y-40652280D01*
X23231101Y-40347722D01*
X23372522Y-40206301D01*
X23675071Y-40206301D01*
X23675071Y-40793701D01*
G36*
X23675071Y-40793701D02*
G01*
X23372522Y-40793701D01*
X23231101Y-40652280D01*
X23231101Y-40347722D01*
X23372522Y-40206301D01*
X23675071Y-40206301D01*
X23675071Y-40793701D01*
G37*
X20668901Y-40347722D02*
X20668901Y-40652280D01*
X20527480Y-40793701D01*
X20224931Y-40793701D01*
X20224931Y-40206301D01*
X20527480Y-40206301D01*
X20668901Y-40347722D01*
G36*
X20668901Y-40347722D02*
G01*
X20668901Y-40652280D01*
X20527480Y-40793701D01*
X20224931Y-40793701D01*
X20224931Y-40206301D01*
X20527480Y-40206301D01*
X20668901Y-40347722D01*
G37*
X23675071Y-41581101D02*
X23372522Y-41581101D01*
X23231101Y-41439680D01*
X23231101Y-41135122D01*
X23372522Y-40993701D01*
X23675071Y-40993701D01*
X23675071Y-41581101D01*
G36*
X23675071Y-41581101D02*
G01*
X23372522Y-41581101D01*
X23231101Y-41439680D01*
X23231101Y-41135122D01*
X23372522Y-40993701D01*
X23675071Y-40993701D01*
X23675071Y-41581101D01*
G37*
X20668901Y-41135122D02*
X20668901Y-41439680D01*
X20527480Y-41581101D01*
X20224931Y-41581101D01*
X20224931Y-40993701D01*
X20527480Y-40993701D01*
X20668901Y-41135122D01*
G36*
X20668901Y-41135122D02*
G01*
X20668901Y-41439680D01*
X20527480Y-41581101D01*
X20224931Y-41581101D01*
X20224931Y-40993701D01*
X20527480Y-40993701D01*
X20668901Y-41135122D01*
G37*
X23031101Y-41922522D02*
X23031101Y-42225071D01*
X22443701Y-42225071D01*
X22443701Y-41922522D01*
X22585122Y-41781101D01*
X22889680Y-41781101D01*
X23031101Y-41922522D01*
G36*
X23031101Y-41922522D02*
G01*
X23031101Y-42225071D01*
X22443701Y-42225071D01*
X22443701Y-41922522D01*
X22585122Y-41781101D01*
X22889680Y-41781101D01*
X23031101Y-41922522D01*
G37*
X22243701Y-41922522D02*
X22243701Y-42225071D01*
X21656301Y-42225071D01*
X21656301Y-41922522D01*
X21797722Y-41781101D01*
X22102280Y-41781101D01*
X22243701Y-41922522D01*
G36*
X22243701Y-41922522D02*
G01*
X22243701Y-42225071D01*
X21656301Y-42225071D01*
X21656301Y-41922522D01*
X21797722Y-41781101D01*
X22102280Y-41781101D01*
X22243701Y-41922522D01*
G37*
X21456301Y-41922522D02*
X21456301Y-42225071D01*
X20868901Y-42225071D01*
X20868901Y-41922522D01*
X21010322Y-41781101D01*
X21314880Y-41781101D01*
X21456301Y-41922522D01*
G36*
X21456301Y-41922522D02*
G01*
X21456301Y-42225071D01*
X20868901Y-42225071D01*
X20868901Y-41922522D01*
X21010322Y-41781101D01*
X21314880Y-41781101D01*
X21456301Y-41922522D01*
G37*
X23031101Y-39560322D02*
X23031101Y-39864880D01*
X22889680Y-40006301D01*
X22585122Y-40006301D01*
X22443701Y-39864880D01*
X22443701Y-39560322D01*
X22585122Y-39418901D01*
X22889680Y-39418901D01*
X23031101Y-39560322D01*
G36*
X23031101Y-39560322D02*
G01*
X23031101Y-39864880D01*
X22889680Y-40006301D01*
X22585122Y-40006301D01*
X22443701Y-39864880D01*
X22443701Y-39560322D01*
X22585122Y-39418901D01*
X22889680Y-39418901D01*
X23031101Y-39560322D01*
G37*
X22243701Y-39560322D02*
X22243701Y-39864880D01*
X22102280Y-40006301D01*
X21797722Y-40006301D01*
X21656301Y-39864880D01*
X21656301Y-39560322D01*
X21797722Y-39418901D01*
X22102280Y-39418901D01*
X22243701Y-39560322D01*
G36*
X22243701Y-39560322D02*
G01*
X22243701Y-39864880D01*
X22102280Y-40006301D01*
X21797722Y-40006301D01*
X21656301Y-39864880D01*
X21656301Y-39560322D01*
X21797722Y-39418901D01*
X22102280Y-39418901D01*
X22243701Y-39560322D01*
G37*
X21456301Y-39560322D02*
X21456301Y-39864880D01*
X21314880Y-40006301D01*
X21010322Y-40006301D01*
X20868901Y-39864880D01*
X20868901Y-39560322D01*
X21010322Y-39418901D01*
X21314880Y-39418901D01*
X21456301Y-39560322D01*
G36*
X21456301Y-39560322D02*
G01*
X21456301Y-39864880D01*
X21314880Y-40006301D01*
X21010322Y-40006301D01*
X20868901Y-39864880D01*
X20868901Y-39560322D01*
X21010322Y-39418901D01*
X21314880Y-39418901D01*
X21456301Y-39560322D01*
G37*
X23031101Y-40347722D02*
X23031101Y-40652280D01*
X22889680Y-40793701D01*
X22585122Y-40793701D01*
X22443701Y-40652280D01*
X22443701Y-40347722D01*
X22585122Y-40206301D01*
X22889680Y-40206301D01*
X23031101Y-40347722D01*
G36*
X23031101Y-40347722D02*
G01*
X23031101Y-40652280D01*
X22889680Y-40793701D01*
X22585122Y-40793701D01*
X22443701Y-40652280D01*
X22443701Y-40347722D01*
X22585122Y-40206301D01*
X22889680Y-40206301D01*
X23031101Y-40347722D01*
G37*
X22243701Y-40347722D02*
X22243701Y-40652280D01*
X22102280Y-40793701D01*
X21797722Y-40793701D01*
X21656301Y-40652280D01*
X21656301Y-40347722D01*
X21797722Y-40206301D01*
X22102280Y-40206301D01*
X22243701Y-40347722D01*
G36*
X22243701Y-40347722D02*
G01*
X22243701Y-40652280D01*
X22102280Y-40793701D01*
X21797722Y-40793701D01*
X21656301Y-40652280D01*
X21656301Y-40347722D01*
X21797722Y-40206301D01*
X22102280Y-40206301D01*
X22243701Y-40347722D01*
G37*
X21456301Y-40347722D02*
X21456301Y-40652280D01*
X21314880Y-40793701D01*
X21010322Y-40793701D01*
X20868901Y-40652280D01*
X20868901Y-40347722D01*
X21010322Y-40206301D01*
X21314880Y-40206301D01*
X21456301Y-40347722D01*
G36*
X21456301Y-40347722D02*
G01*
X21456301Y-40652280D01*
X21314880Y-40793701D01*
X21010322Y-40793701D01*
X20868901Y-40652280D01*
X20868901Y-40347722D01*
X21010322Y-40206301D01*
X21314880Y-40206301D01*
X21456301Y-40347722D01*
G37*
X23031101Y-41135122D02*
X23031101Y-41439680D01*
X22889680Y-41581101D01*
X22585122Y-41581101D01*
X22443701Y-41439680D01*
X22443701Y-41135122D01*
X22585122Y-40993701D01*
X22889680Y-40993701D01*
X23031101Y-41135122D01*
G36*
X23031101Y-41135122D02*
G01*
X23031101Y-41439680D01*
X22889680Y-41581101D01*
X22585122Y-41581101D01*
X22443701Y-41439680D01*
X22443701Y-41135122D01*
X22585122Y-40993701D01*
X22889680Y-40993701D01*
X23031101Y-41135122D01*
G37*
X22243701Y-41135122D02*
X22243701Y-41439680D01*
X22102280Y-41581101D01*
X21797722Y-41581101D01*
X21656301Y-41439680D01*
X21656301Y-41135122D01*
X21797722Y-40993701D01*
X22102280Y-40993701D01*
X22243701Y-41135122D01*
G36*
X22243701Y-41135122D02*
G01*
X22243701Y-41439680D01*
X22102280Y-41581101D01*
X21797722Y-41581101D01*
X21656301Y-41439680D01*
X21656301Y-41135122D01*
X21797722Y-40993701D01*
X22102280Y-40993701D01*
X22243701Y-41135122D01*
G37*
X21456301Y-41135122D02*
X21456301Y-41439680D01*
X21314880Y-41581101D01*
X21010322Y-41581101D01*
X20868901Y-41439680D01*
X20868901Y-41135122D01*
X21010322Y-40993701D01*
X21314880Y-40993701D01*
X21456301Y-41135122D01*
G36*
X21456301Y-41135122D02*
G01*
X21456301Y-41439680D01*
X21314880Y-41581101D01*
X21010322Y-41581101D01*
X20868901Y-41439680D01*
X20868901Y-41135122D01*
X21010322Y-40993701D01*
X21314880Y-40993701D01*
X21456301Y-41135122D01*
G37*
X47675072Y-39218901D02*
X47372523Y-39218901D01*
X47231102Y-39077480D01*
X47231102Y-38774931D01*
X47675072Y-38774931D01*
X47675072Y-39218901D01*
G36*
X47675072Y-39218901D02*
G01*
X47372523Y-39218901D01*
X47231102Y-39077480D01*
X47231102Y-38774931D01*
X47675072Y-38774931D01*
X47675072Y-39218901D01*
G37*
X44668902Y-39077480D02*
X44527481Y-39218901D01*
X44224932Y-39218901D01*
X44224932Y-38774931D01*
X44668902Y-38774931D01*
X44668902Y-39077480D01*
G36*
X44668902Y-39077480D02*
G01*
X44527481Y-39218901D01*
X44224932Y-39218901D01*
X44224932Y-38774931D01*
X44668902Y-38774931D01*
X44668902Y-39077480D01*
G37*
X47675072Y-42225071D02*
X47231102Y-42225071D01*
X47231102Y-41922522D01*
X47372523Y-41781101D01*
X47675072Y-41781101D01*
X47675072Y-42225071D01*
G36*
X47675072Y-42225071D02*
G01*
X47231102Y-42225071D01*
X47231102Y-41922522D01*
X47372523Y-41781101D01*
X47675072Y-41781101D01*
X47675072Y-42225071D01*
G37*
X44668902Y-41922522D02*
X44668902Y-42225071D01*
X44224932Y-42225071D01*
X44224932Y-41781101D01*
X44527481Y-41781101D01*
X44668902Y-41922522D01*
G36*
X44668902Y-41922522D02*
G01*
X44668902Y-42225071D01*
X44224932Y-42225071D01*
X44224932Y-41781101D01*
X44527481Y-41781101D01*
X44668902Y-41922522D01*
G37*
X47031102Y-39077480D02*
X46889681Y-39218901D01*
X46585123Y-39218901D01*
X46443702Y-39077480D01*
X46443702Y-38774931D01*
X47031102Y-38774931D01*
X47031102Y-39077480D01*
G36*
X47031102Y-39077480D02*
G01*
X46889681Y-39218901D01*
X46585123Y-39218901D01*
X46443702Y-39077480D01*
X46443702Y-38774931D01*
X47031102Y-38774931D01*
X47031102Y-39077480D01*
G37*
X46243702Y-39077480D02*
X46102281Y-39218901D01*
X45797723Y-39218901D01*
X45656302Y-39077480D01*
X45656302Y-38774931D01*
X46243702Y-38774931D01*
X46243702Y-39077480D01*
G36*
X46243702Y-39077480D02*
G01*
X46102281Y-39218901D01*
X45797723Y-39218901D01*
X45656302Y-39077480D01*
X45656302Y-38774931D01*
X46243702Y-38774931D01*
X46243702Y-39077480D01*
G37*
X45456302Y-39077480D02*
X45314881Y-39218901D01*
X45010323Y-39218901D01*
X44868902Y-39077480D01*
X44868902Y-38774931D01*
X45456302Y-38774931D01*
X45456302Y-39077480D01*
G36*
X45456302Y-39077480D02*
G01*
X45314881Y-39218901D01*
X45010323Y-39218901D01*
X44868902Y-39077480D01*
X44868902Y-38774931D01*
X45456302Y-38774931D01*
X45456302Y-39077480D01*
G37*
X47675072Y-40006301D02*
X47372523Y-40006301D01*
X47231102Y-39864880D01*
X47231102Y-39560322D01*
X47372523Y-39418901D01*
X47675072Y-39418901D01*
X47675072Y-40006301D01*
G36*
X47675072Y-40006301D02*
G01*
X47372523Y-40006301D01*
X47231102Y-39864880D01*
X47231102Y-39560322D01*
X47372523Y-39418901D01*
X47675072Y-39418901D01*
X47675072Y-40006301D01*
G37*
X44668902Y-39560322D02*
X44668902Y-39864880D01*
X44527481Y-40006301D01*
X44224932Y-40006301D01*
X44224932Y-39418901D01*
X44527481Y-39418901D01*
X44668902Y-39560322D01*
G36*
X44668902Y-39560322D02*
G01*
X44668902Y-39864880D01*
X44527481Y-40006301D01*
X44224932Y-40006301D01*
X44224932Y-39418901D01*
X44527481Y-39418901D01*
X44668902Y-39560322D01*
G37*
X47675072Y-40793701D02*
X47372523Y-40793701D01*
X47231102Y-40652280D01*
X47231102Y-40347722D01*
X47372523Y-40206301D01*
X47675072Y-40206301D01*
X47675072Y-40793701D01*
G36*
X47675072Y-40793701D02*
G01*
X47372523Y-40793701D01*
X47231102Y-40652280D01*
X47231102Y-40347722D01*
X47372523Y-40206301D01*
X47675072Y-40206301D01*
X47675072Y-40793701D01*
G37*
X44668902Y-40347722D02*
X44668902Y-40652280D01*
X44527481Y-40793701D01*
X44224932Y-40793701D01*
X44224932Y-40206301D01*
X44527481Y-40206301D01*
X44668902Y-40347722D01*
G36*
X44668902Y-40347722D02*
G01*
X44668902Y-40652280D01*
X44527481Y-40793701D01*
X44224932Y-40793701D01*
X44224932Y-40206301D01*
X44527481Y-40206301D01*
X44668902Y-40347722D01*
G37*
X47675072Y-41581101D02*
X47372523Y-41581101D01*
X47231102Y-41439680D01*
X47231102Y-41135122D01*
X47372523Y-40993701D01*
X47675072Y-40993701D01*
X47675072Y-41581101D01*
G36*
X47675072Y-41581101D02*
G01*
X47372523Y-41581101D01*
X47231102Y-41439680D01*
X47231102Y-41135122D01*
X47372523Y-40993701D01*
X47675072Y-40993701D01*
X47675072Y-41581101D01*
G37*
X44668902Y-41135122D02*
X44668902Y-41439680D01*
X44527481Y-41581101D01*
X44224932Y-41581101D01*
X44224932Y-40993701D01*
X44527481Y-40993701D01*
X44668902Y-41135122D01*
G36*
X44668902Y-41135122D02*
G01*
X44668902Y-41439680D01*
X44527481Y-41581101D01*
X44224932Y-41581101D01*
X44224932Y-40993701D01*
X44527481Y-40993701D01*
X44668902Y-41135122D01*
G37*
X47031102Y-41922522D02*
X47031102Y-42225071D01*
X46443702Y-42225071D01*
X46443702Y-41922522D01*
X46585123Y-41781101D01*
X46889681Y-41781101D01*
X47031102Y-41922522D01*
G36*
X47031102Y-41922522D02*
G01*
X47031102Y-42225071D01*
X46443702Y-42225071D01*
X46443702Y-41922522D01*
X46585123Y-41781101D01*
X46889681Y-41781101D01*
X47031102Y-41922522D01*
G37*
X46243702Y-41922522D02*
X46243702Y-42225071D01*
X45656302Y-42225071D01*
X45656302Y-41922522D01*
X45797723Y-41781101D01*
X46102281Y-41781101D01*
X46243702Y-41922522D01*
G36*
X46243702Y-41922522D02*
G01*
X46243702Y-42225071D01*
X45656302Y-42225071D01*
X45656302Y-41922522D01*
X45797723Y-41781101D01*
X46102281Y-41781101D01*
X46243702Y-41922522D01*
G37*
X45456302Y-41922522D02*
X45456302Y-42225071D01*
X44868902Y-42225071D01*
X44868902Y-41922522D01*
X45010323Y-41781101D01*
X45314881Y-41781101D01*
X45456302Y-41922522D01*
G36*
X45456302Y-41922522D02*
G01*
X45456302Y-42225071D01*
X44868902Y-42225071D01*
X44868902Y-41922522D01*
X45010323Y-41781101D01*
X45314881Y-41781101D01*
X45456302Y-41922522D01*
G37*
X47031102Y-39560322D02*
X47031102Y-39864880D01*
X46889681Y-40006301D01*
X46585123Y-40006301D01*
X46443702Y-39864880D01*
X46443702Y-39560322D01*
X46585123Y-39418901D01*
X46889681Y-39418901D01*
X47031102Y-39560322D01*
G36*
X47031102Y-39560322D02*
G01*
X47031102Y-39864880D01*
X46889681Y-40006301D01*
X46585123Y-40006301D01*
X46443702Y-39864880D01*
X46443702Y-39560322D01*
X46585123Y-39418901D01*
X46889681Y-39418901D01*
X47031102Y-39560322D01*
G37*
X46243702Y-39560322D02*
X46243702Y-39864880D01*
X46102281Y-40006301D01*
X45797723Y-40006301D01*
X45656302Y-39864880D01*
X45656302Y-39560322D01*
X45797723Y-39418901D01*
X46102281Y-39418901D01*
X46243702Y-39560322D01*
G36*
X46243702Y-39560322D02*
G01*
X46243702Y-39864880D01*
X46102281Y-40006301D01*
X45797723Y-40006301D01*
X45656302Y-39864880D01*
X45656302Y-39560322D01*
X45797723Y-39418901D01*
X46102281Y-39418901D01*
X46243702Y-39560322D01*
G37*
X45456302Y-39560322D02*
X45456302Y-39864880D01*
X45314881Y-40006301D01*
X45010323Y-40006301D01*
X44868902Y-39864880D01*
X44868902Y-39560322D01*
X45010323Y-39418901D01*
X45314881Y-39418901D01*
X45456302Y-39560322D01*
G36*
X45456302Y-39560322D02*
G01*
X45456302Y-39864880D01*
X45314881Y-40006301D01*
X45010323Y-40006301D01*
X44868902Y-39864880D01*
X44868902Y-39560322D01*
X45010323Y-39418901D01*
X45314881Y-39418901D01*
X45456302Y-39560322D01*
G37*
X47031102Y-40347722D02*
X47031102Y-40652280D01*
X46889681Y-40793701D01*
X46585123Y-40793701D01*
X46443702Y-40652280D01*
X46443702Y-40347722D01*
X46585123Y-40206301D01*
X46889681Y-40206301D01*
X47031102Y-40347722D01*
G36*
X47031102Y-40347722D02*
G01*
X47031102Y-40652280D01*
X46889681Y-40793701D01*
X46585123Y-40793701D01*
X46443702Y-40652280D01*
X46443702Y-40347722D01*
X46585123Y-40206301D01*
X46889681Y-40206301D01*
X47031102Y-40347722D01*
G37*
X46243702Y-40347722D02*
X46243702Y-40652280D01*
X46102281Y-40793701D01*
X45797723Y-40793701D01*
X45656302Y-40652280D01*
X45656302Y-40347722D01*
X45797723Y-40206301D01*
X46102281Y-40206301D01*
X46243702Y-40347722D01*
G36*
X46243702Y-40347722D02*
G01*
X46243702Y-40652280D01*
X46102281Y-40793701D01*
X45797723Y-40793701D01*
X45656302Y-40652280D01*
X45656302Y-40347722D01*
X45797723Y-40206301D01*
X46102281Y-40206301D01*
X46243702Y-40347722D01*
G37*
X45456302Y-40347722D02*
X45456302Y-40652280D01*
X45314881Y-40793701D01*
X45010323Y-40793701D01*
X44868902Y-40652280D01*
X44868902Y-40347722D01*
X45010323Y-40206301D01*
X45314881Y-40206301D01*
X45456302Y-40347722D01*
G36*
X45456302Y-40347722D02*
G01*
X45456302Y-40652280D01*
X45314881Y-40793701D01*
X45010323Y-40793701D01*
X44868902Y-40652280D01*
X44868902Y-40347722D01*
X45010323Y-40206301D01*
X45314881Y-40206301D01*
X45456302Y-40347722D01*
G37*
X47031102Y-41135122D02*
X47031102Y-41439680D01*
X46889681Y-41581101D01*
X46585123Y-41581101D01*
X46443702Y-41439680D01*
X46443702Y-41135122D01*
X46585123Y-40993701D01*
X46889681Y-40993701D01*
X47031102Y-41135122D01*
G36*
X47031102Y-41135122D02*
G01*
X47031102Y-41439680D01*
X46889681Y-41581101D01*
X46585123Y-41581101D01*
X46443702Y-41439680D01*
X46443702Y-41135122D01*
X46585123Y-40993701D01*
X46889681Y-40993701D01*
X47031102Y-41135122D01*
G37*
X46243702Y-41135122D02*
X46243702Y-41439680D01*
X46102281Y-41581101D01*
X45797723Y-41581101D01*
X45656302Y-41439680D01*
X45656302Y-41135122D01*
X45797723Y-40993701D01*
X46102281Y-40993701D01*
X46243702Y-41135122D01*
G36*
X46243702Y-41135122D02*
G01*
X46243702Y-41439680D01*
X46102281Y-41581101D01*
X45797723Y-41581101D01*
X45656302Y-41439680D01*
X45656302Y-41135122D01*
X45797723Y-40993701D01*
X46102281Y-40993701D01*
X46243702Y-41135122D01*
G37*
X45456302Y-41135122D02*
X45456302Y-41439680D01*
X45314881Y-41581101D01*
X45010323Y-41581101D01*
X44868902Y-41439680D01*
X44868902Y-41135122D01*
X45010323Y-40993701D01*
X45314881Y-40993701D01*
X45456302Y-41135122D01*
G36*
X45456302Y-41135122D02*
G01*
X45456302Y-41439680D01*
X45314881Y-41581101D01*
X45010323Y-41581101D01*
X44868902Y-41439680D01*
X44868902Y-41135122D01*
X45010323Y-40993701D01*
X45314881Y-40993701D01*
X45456302Y-41135122D01*
G37*
X47675072Y-18718900D02*
X47372523Y-18718900D01*
X47231102Y-18577479D01*
X47231102Y-18274930D01*
X47675072Y-18274930D01*
X47675072Y-18718900D01*
G36*
X47675072Y-18718900D02*
G01*
X47372523Y-18718900D01*
X47231102Y-18577479D01*
X47231102Y-18274930D01*
X47675072Y-18274930D01*
X47675072Y-18718900D01*
G37*
X44668902Y-18577479D02*
X44527481Y-18718900D01*
X44224932Y-18718900D01*
X44224932Y-18274930D01*
X44668902Y-18274930D01*
X44668902Y-18577479D01*
G36*
X44668902Y-18577479D02*
G01*
X44527481Y-18718900D01*
X44224932Y-18718900D01*
X44224932Y-18274930D01*
X44668902Y-18274930D01*
X44668902Y-18577479D01*
G37*
X47675072Y-21725070D02*
X47231102Y-21725070D01*
X47231102Y-21422521D01*
X47372523Y-21281100D01*
X47675072Y-21281100D01*
X47675072Y-21725070D01*
G36*
X47675072Y-21725070D02*
G01*
X47231102Y-21725070D01*
X47231102Y-21422521D01*
X47372523Y-21281100D01*
X47675072Y-21281100D01*
X47675072Y-21725070D01*
G37*
X44668902Y-21422521D02*
X44668902Y-21725070D01*
X44224932Y-21725070D01*
X44224932Y-21281100D01*
X44527481Y-21281100D01*
X44668902Y-21422521D01*
G36*
X44668902Y-21422521D02*
G01*
X44668902Y-21725070D01*
X44224932Y-21725070D01*
X44224932Y-21281100D01*
X44527481Y-21281100D01*
X44668902Y-21422521D01*
G37*
X47031102Y-18577479D02*
X46889681Y-18718900D01*
X46585123Y-18718900D01*
X46443702Y-18577479D01*
X46443702Y-18274930D01*
X47031102Y-18274930D01*
X47031102Y-18577479D01*
G36*
X47031102Y-18577479D02*
G01*
X46889681Y-18718900D01*
X46585123Y-18718900D01*
X46443702Y-18577479D01*
X46443702Y-18274930D01*
X47031102Y-18274930D01*
X47031102Y-18577479D01*
G37*
X46243702Y-18577479D02*
X46102281Y-18718900D01*
X45797723Y-18718900D01*
X45656302Y-18577479D01*
X45656302Y-18274930D01*
X46243702Y-18274930D01*
X46243702Y-18577479D01*
G36*
X46243702Y-18577479D02*
G01*
X46102281Y-18718900D01*
X45797723Y-18718900D01*
X45656302Y-18577479D01*
X45656302Y-18274930D01*
X46243702Y-18274930D01*
X46243702Y-18577479D01*
G37*
X45456302Y-18577479D02*
X45314881Y-18718900D01*
X45010323Y-18718900D01*
X44868902Y-18577479D01*
X44868902Y-18274930D01*
X45456302Y-18274930D01*
X45456302Y-18577479D01*
G36*
X45456302Y-18577479D02*
G01*
X45314881Y-18718900D01*
X45010323Y-18718900D01*
X44868902Y-18577479D01*
X44868902Y-18274930D01*
X45456302Y-18274930D01*
X45456302Y-18577479D01*
G37*
X47675072Y-19506300D02*
X47372523Y-19506300D01*
X47231102Y-19364879D01*
X47231102Y-19060321D01*
X47372523Y-18918900D01*
X47675072Y-18918900D01*
X47675072Y-19506300D01*
G36*
X47675072Y-19506300D02*
G01*
X47372523Y-19506300D01*
X47231102Y-19364879D01*
X47231102Y-19060321D01*
X47372523Y-18918900D01*
X47675072Y-18918900D01*
X47675072Y-19506300D01*
G37*
X44668902Y-19060321D02*
X44668902Y-19364879D01*
X44527481Y-19506300D01*
X44224932Y-19506300D01*
X44224932Y-18918900D01*
X44527481Y-18918900D01*
X44668902Y-19060321D01*
G36*
X44668902Y-19060321D02*
G01*
X44668902Y-19364879D01*
X44527481Y-19506300D01*
X44224932Y-19506300D01*
X44224932Y-18918900D01*
X44527481Y-18918900D01*
X44668902Y-19060321D01*
G37*
X47675072Y-20293700D02*
X47372523Y-20293700D01*
X47231102Y-20152279D01*
X47231102Y-19847721D01*
X47372523Y-19706300D01*
X47675072Y-19706300D01*
X47675072Y-20293700D01*
G36*
X47675072Y-20293700D02*
G01*
X47372523Y-20293700D01*
X47231102Y-20152279D01*
X47231102Y-19847721D01*
X47372523Y-19706300D01*
X47675072Y-19706300D01*
X47675072Y-20293700D01*
G37*
X44668902Y-19847721D02*
X44668902Y-20152279D01*
X44527481Y-20293700D01*
X44224932Y-20293700D01*
X44224932Y-19706300D01*
X44527481Y-19706300D01*
X44668902Y-19847721D01*
G36*
X44668902Y-19847721D02*
G01*
X44668902Y-20152279D01*
X44527481Y-20293700D01*
X44224932Y-20293700D01*
X44224932Y-19706300D01*
X44527481Y-19706300D01*
X44668902Y-19847721D01*
G37*
X47675072Y-21081100D02*
X47372523Y-21081100D01*
X47231102Y-20939679D01*
X47231102Y-20635121D01*
X47372523Y-20493700D01*
X47675072Y-20493700D01*
X47675072Y-21081100D01*
G36*
X47675072Y-21081100D02*
G01*
X47372523Y-21081100D01*
X47231102Y-20939679D01*
X47231102Y-20635121D01*
X47372523Y-20493700D01*
X47675072Y-20493700D01*
X47675072Y-21081100D01*
G37*
X44668902Y-20635121D02*
X44668902Y-20939679D01*
X44527481Y-21081100D01*
X44224932Y-21081100D01*
X44224932Y-20493700D01*
X44527481Y-20493700D01*
X44668902Y-20635121D01*
G36*
X44668902Y-20635121D02*
G01*
X44668902Y-20939679D01*
X44527481Y-21081100D01*
X44224932Y-21081100D01*
X44224932Y-20493700D01*
X44527481Y-20493700D01*
X44668902Y-20635121D01*
G37*
X47031102Y-21422521D02*
X47031102Y-21725070D01*
X46443702Y-21725070D01*
X46443702Y-21422521D01*
X46585123Y-21281100D01*
X46889681Y-21281100D01*
X47031102Y-21422521D01*
G36*
X47031102Y-21422521D02*
G01*
X47031102Y-21725070D01*
X46443702Y-21725070D01*
X46443702Y-21422521D01*
X46585123Y-21281100D01*
X46889681Y-21281100D01*
X47031102Y-21422521D01*
G37*
X46243702Y-21422521D02*
X46243702Y-21725070D01*
X45656302Y-21725070D01*
X45656302Y-21422521D01*
X45797723Y-21281100D01*
X46102281Y-21281100D01*
X46243702Y-21422521D01*
G36*
X46243702Y-21422521D02*
G01*
X46243702Y-21725070D01*
X45656302Y-21725070D01*
X45656302Y-21422521D01*
X45797723Y-21281100D01*
X46102281Y-21281100D01*
X46243702Y-21422521D01*
G37*
X45456302Y-21422521D02*
X45456302Y-21725070D01*
X44868902Y-21725070D01*
X44868902Y-21422521D01*
X45010323Y-21281100D01*
X45314881Y-21281100D01*
X45456302Y-21422521D01*
G36*
X45456302Y-21422521D02*
G01*
X45456302Y-21725070D01*
X44868902Y-21725070D01*
X44868902Y-21422521D01*
X45010323Y-21281100D01*
X45314881Y-21281100D01*
X45456302Y-21422521D01*
G37*
X47031102Y-19060321D02*
X47031102Y-19364879D01*
X46889681Y-19506300D01*
X46585123Y-19506300D01*
X46443702Y-19364879D01*
X46443702Y-19060321D01*
X46585123Y-18918900D01*
X46889681Y-18918900D01*
X47031102Y-19060321D01*
G36*
X47031102Y-19060321D02*
G01*
X47031102Y-19364879D01*
X46889681Y-19506300D01*
X46585123Y-19506300D01*
X46443702Y-19364879D01*
X46443702Y-19060321D01*
X46585123Y-18918900D01*
X46889681Y-18918900D01*
X47031102Y-19060321D01*
G37*
X46243702Y-19060321D02*
X46243702Y-19364879D01*
X46102281Y-19506300D01*
X45797723Y-19506300D01*
X45656302Y-19364879D01*
X45656302Y-19060321D01*
X45797723Y-18918900D01*
X46102281Y-18918900D01*
X46243702Y-19060321D01*
G36*
X46243702Y-19060321D02*
G01*
X46243702Y-19364879D01*
X46102281Y-19506300D01*
X45797723Y-19506300D01*
X45656302Y-19364879D01*
X45656302Y-19060321D01*
X45797723Y-18918900D01*
X46102281Y-18918900D01*
X46243702Y-19060321D01*
G37*
X45456302Y-19060321D02*
X45456302Y-19364879D01*
X45314881Y-19506300D01*
X45010323Y-19506300D01*
X44868902Y-19364879D01*
X44868902Y-19060321D01*
X45010323Y-18918900D01*
X45314881Y-18918900D01*
X45456302Y-19060321D01*
G36*
X45456302Y-19060321D02*
G01*
X45456302Y-19364879D01*
X45314881Y-19506300D01*
X45010323Y-19506300D01*
X44868902Y-19364879D01*
X44868902Y-19060321D01*
X45010323Y-18918900D01*
X45314881Y-18918900D01*
X45456302Y-19060321D01*
G37*
X47031102Y-19847721D02*
X47031102Y-20152279D01*
X46889681Y-20293700D01*
X46585123Y-20293700D01*
X46443702Y-20152279D01*
X46443702Y-19847721D01*
X46585123Y-19706300D01*
X46889681Y-19706300D01*
X47031102Y-19847721D01*
G36*
X47031102Y-19847721D02*
G01*
X47031102Y-20152279D01*
X46889681Y-20293700D01*
X46585123Y-20293700D01*
X46443702Y-20152279D01*
X46443702Y-19847721D01*
X46585123Y-19706300D01*
X46889681Y-19706300D01*
X47031102Y-19847721D01*
G37*
X46243702Y-19847721D02*
X46243702Y-20152279D01*
X46102281Y-20293700D01*
X45797723Y-20293700D01*
X45656302Y-20152279D01*
X45656302Y-19847721D01*
X45797723Y-19706300D01*
X46102281Y-19706300D01*
X46243702Y-19847721D01*
G36*
X46243702Y-19847721D02*
G01*
X46243702Y-20152279D01*
X46102281Y-20293700D01*
X45797723Y-20293700D01*
X45656302Y-20152279D01*
X45656302Y-19847721D01*
X45797723Y-19706300D01*
X46102281Y-19706300D01*
X46243702Y-19847721D01*
G37*
X45456302Y-19847721D02*
X45456302Y-20152279D01*
X45314881Y-20293700D01*
X45010323Y-20293700D01*
X44868902Y-20152279D01*
X44868902Y-19847721D01*
X45010323Y-19706300D01*
X45314881Y-19706300D01*
X45456302Y-19847721D01*
G36*
X45456302Y-19847721D02*
G01*
X45456302Y-20152279D01*
X45314881Y-20293700D01*
X45010323Y-20293700D01*
X44868902Y-20152279D01*
X44868902Y-19847721D01*
X45010323Y-19706300D01*
X45314881Y-19706300D01*
X45456302Y-19847721D01*
G37*
X47031102Y-20635121D02*
X47031102Y-20939679D01*
X46889681Y-21081100D01*
X46585123Y-21081100D01*
X46443702Y-20939679D01*
X46443702Y-20635121D01*
X46585123Y-20493700D01*
X46889681Y-20493700D01*
X47031102Y-20635121D01*
G36*
X47031102Y-20635121D02*
G01*
X47031102Y-20939679D01*
X46889681Y-21081100D01*
X46585123Y-21081100D01*
X46443702Y-20939679D01*
X46443702Y-20635121D01*
X46585123Y-20493700D01*
X46889681Y-20493700D01*
X47031102Y-20635121D01*
G37*
X46243702Y-20635121D02*
X46243702Y-20939679D01*
X46102281Y-21081100D01*
X45797723Y-21081100D01*
X45656302Y-20939679D01*
X45656302Y-20635121D01*
X45797723Y-20493700D01*
X46102281Y-20493700D01*
X46243702Y-20635121D01*
G36*
X46243702Y-20635121D02*
G01*
X46243702Y-20939679D01*
X46102281Y-21081100D01*
X45797723Y-21081100D01*
X45656302Y-20939679D01*
X45656302Y-20635121D01*
X45797723Y-20493700D01*
X46102281Y-20493700D01*
X46243702Y-20635121D01*
G37*
X45456302Y-20635121D02*
X45456302Y-20939679D01*
X45314881Y-21081100D01*
X45010323Y-21081100D01*
X44868902Y-20939679D01*
X44868902Y-20635121D01*
X45010323Y-20493700D01*
X45314881Y-20493700D01*
X45456302Y-20635121D01*
G36*
X45456302Y-20635121D02*
G01*
X45456302Y-20939679D01*
X45314881Y-21081100D01*
X45010323Y-21081100D01*
X44868902Y-20939679D01*
X44868902Y-20635121D01*
X45010323Y-20493700D01*
X45314881Y-20493700D01*
X45456302Y-20635121D01*
G37*
X23675071Y-18718900D02*
X23372522Y-18718900D01*
X23231101Y-18577479D01*
X23231101Y-18274930D01*
X23675071Y-18274930D01*
X23675071Y-18718900D01*
G36*
X23675071Y-18718900D02*
G01*
X23372522Y-18718900D01*
X23231101Y-18577479D01*
X23231101Y-18274930D01*
X23675071Y-18274930D01*
X23675071Y-18718900D01*
G37*
X20668901Y-18577479D02*
X20527480Y-18718900D01*
X20224931Y-18718900D01*
X20224931Y-18274930D01*
X20668901Y-18274930D01*
X20668901Y-18577479D01*
G36*
X20668901Y-18577479D02*
G01*
X20527480Y-18718900D01*
X20224931Y-18718900D01*
X20224931Y-18274930D01*
X20668901Y-18274930D01*
X20668901Y-18577479D01*
G37*
X23675071Y-21725070D02*
X23231101Y-21725070D01*
X23231101Y-21422521D01*
X23372522Y-21281100D01*
X23675071Y-21281100D01*
X23675071Y-21725070D01*
G36*
X23675071Y-21725070D02*
G01*
X23231101Y-21725070D01*
X23231101Y-21422521D01*
X23372522Y-21281100D01*
X23675071Y-21281100D01*
X23675071Y-21725070D01*
G37*
X20668901Y-21422521D02*
X20668901Y-21725070D01*
X20224931Y-21725070D01*
X20224931Y-21281100D01*
X20527480Y-21281100D01*
X20668901Y-21422521D01*
G36*
X20668901Y-21422521D02*
G01*
X20668901Y-21725070D01*
X20224931Y-21725070D01*
X20224931Y-21281100D01*
X20527480Y-21281100D01*
X20668901Y-21422521D01*
G37*
X23031101Y-18577479D02*
X22889680Y-18718900D01*
X22585122Y-18718900D01*
X22443701Y-18577479D01*
X22443701Y-18274930D01*
X23031101Y-18274930D01*
X23031101Y-18577479D01*
G36*
X23031101Y-18577479D02*
G01*
X22889680Y-18718900D01*
X22585122Y-18718900D01*
X22443701Y-18577479D01*
X22443701Y-18274930D01*
X23031101Y-18274930D01*
X23031101Y-18577479D01*
G37*
X22243701Y-18577479D02*
X22102280Y-18718900D01*
X21797722Y-18718900D01*
X21656301Y-18577479D01*
X21656301Y-18274930D01*
X22243701Y-18274930D01*
X22243701Y-18577479D01*
G36*
X22243701Y-18577479D02*
G01*
X22102280Y-18718900D01*
X21797722Y-18718900D01*
X21656301Y-18577479D01*
X21656301Y-18274930D01*
X22243701Y-18274930D01*
X22243701Y-18577479D01*
G37*
X21456301Y-18577479D02*
X21314880Y-18718900D01*
X21010322Y-18718900D01*
X20868901Y-18577479D01*
X20868901Y-18274930D01*
X21456301Y-18274930D01*
X21456301Y-18577479D01*
G36*
X21456301Y-18577479D02*
G01*
X21314880Y-18718900D01*
X21010322Y-18718900D01*
X20868901Y-18577479D01*
X20868901Y-18274930D01*
X21456301Y-18274930D01*
X21456301Y-18577479D01*
G37*
X23675071Y-19506300D02*
X23372522Y-19506300D01*
X23231101Y-19364879D01*
X23231101Y-19060321D01*
X23372522Y-18918900D01*
X23675071Y-18918900D01*
X23675071Y-19506300D01*
G36*
X23675071Y-19506300D02*
G01*
X23372522Y-19506300D01*
X23231101Y-19364879D01*
X23231101Y-19060321D01*
X23372522Y-18918900D01*
X23675071Y-18918900D01*
X23675071Y-19506300D01*
G37*
X20668901Y-19060321D02*
X20668901Y-19364879D01*
X20527480Y-19506300D01*
X20224931Y-19506300D01*
X20224931Y-18918900D01*
X20527480Y-18918900D01*
X20668901Y-19060321D01*
G36*
X20668901Y-19060321D02*
G01*
X20668901Y-19364879D01*
X20527480Y-19506300D01*
X20224931Y-19506300D01*
X20224931Y-18918900D01*
X20527480Y-18918900D01*
X20668901Y-19060321D01*
G37*
X23675071Y-20293700D02*
X23372522Y-20293700D01*
X23231101Y-20152279D01*
X23231101Y-19847721D01*
X23372522Y-19706300D01*
X23675071Y-19706300D01*
X23675071Y-20293700D01*
G36*
X23675071Y-20293700D02*
G01*
X23372522Y-20293700D01*
X23231101Y-20152279D01*
X23231101Y-19847721D01*
X23372522Y-19706300D01*
X23675071Y-19706300D01*
X23675071Y-20293700D01*
G37*
X20668901Y-19847721D02*
X20668901Y-20152279D01*
X20527480Y-20293700D01*
X20224931Y-20293700D01*
X20224931Y-19706300D01*
X20527480Y-19706300D01*
X20668901Y-19847721D01*
G36*
X20668901Y-19847721D02*
G01*
X20668901Y-20152279D01*
X20527480Y-20293700D01*
X20224931Y-20293700D01*
X20224931Y-19706300D01*
X20527480Y-19706300D01*
X20668901Y-19847721D01*
G37*
X23675071Y-21081100D02*
X23372522Y-21081100D01*
X23231101Y-20939679D01*
X23231101Y-20635121D01*
X23372522Y-20493700D01*
X23675071Y-20493700D01*
X23675071Y-21081100D01*
G36*
X23675071Y-21081100D02*
G01*
X23372522Y-21081100D01*
X23231101Y-20939679D01*
X23231101Y-20635121D01*
X23372522Y-20493700D01*
X23675071Y-20493700D01*
X23675071Y-21081100D01*
G37*
X20668901Y-20635121D02*
X20668901Y-20939679D01*
X20527480Y-21081100D01*
X20224931Y-21081100D01*
X20224931Y-20493700D01*
X20527480Y-20493700D01*
X20668901Y-20635121D01*
G36*
X20668901Y-20635121D02*
G01*
X20668901Y-20939679D01*
X20527480Y-21081100D01*
X20224931Y-21081100D01*
X20224931Y-20493700D01*
X20527480Y-20493700D01*
X20668901Y-20635121D01*
G37*
X23031101Y-21422521D02*
X23031101Y-21725070D01*
X22443701Y-21725070D01*
X22443701Y-21422521D01*
X22585122Y-21281100D01*
X22889680Y-21281100D01*
X23031101Y-21422521D01*
G36*
X23031101Y-21422521D02*
G01*
X23031101Y-21725070D01*
X22443701Y-21725070D01*
X22443701Y-21422521D01*
X22585122Y-21281100D01*
X22889680Y-21281100D01*
X23031101Y-21422521D01*
G37*
X22243701Y-21422521D02*
X22243701Y-21725070D01*
X21656301Y-21725070D01*
X21656301Y-21422521D01*
X21797722Y-21281100D01*
X22102280Y-21281100D01*
X22243701Y-21422521D01*
G36*
X22243701Y-21422521D02*
G01*
X22243701Y-21725070D01*
X21656301Y-21725070D01*
X21656301Y-21422521D01*
X21797722Y-21281100D01*
X22102280Y-21281100D01*
X22243701Y-21422521D01*
G37*
X21456301Y-21422521D02*
X21456301Y-21725070D01*
X20868901Y-21725070D01*
X20868901Y-21422521D01*
X21010322Y-21281100D01*
X21314880Y-21281100D01*
X21456301Y-21422521D01*
G36*
X21456301Y-21422521D02*
G01*
X21456301Y-21725070D01*
X20868901Y-21725070D01*
X20868901Y-21422521D01*
X21010322Y-21281100D01*
X21314880Y-21281100D01*
X21456301Y-21422521D01*
G37*
X23031101Y-19060321D02*
X23031101Y-19364879D01*
X22889680Y-19506300D01*
X22585122Y-19506300D01*
X22443701Y-19364879D01*
X22443701Y-19060321D01*
X22585122Y-18918900D01*
X22889680Y-18918900D01*
X23031101Y-19060321D01*
G36*
X23031101Y-19060321D02*
G01*
X23031101Y-19364879D01*
X22889680Y-19506300D01*
X22585122Y-19506300D01*
X22443701Y-19364879D01*
X22443701Y-19060321D01*
X22585122Y-18918900D01*
X22889680Y-18918900D01*
X23031101Y-19060321D01*
G37*
X22243701Y-19060321D02*
X22243701Y-19364879D01*
X22102280Y-19506300D01*
X21797722Y-19506300D01*
X21656301Y-19364879D01*
X21656301Y-19060321D01*
X21797722Y-18918900D01*
X22102280Y-18918900D01*
X22243701Y-19060321D01*
G36*
X22243701Y-19060321D02*
G01*
X22243701Y-19364879D01*
X22102280Y-19506300D01*
X21797722Y-19506300D01*
X21656301Y-19364879D01*
X21656301Y-19060321D01*
X21797722Y-18918900D01*
X22102280Y-18918900D01*
X22243701Y-19060321D01*
G37*
X21456301Y-19060321D02*
X21456301Y-19364879D01*
X21314880Y-19506300D01*
X21010322Y-19506300D01*
X20868901Y-19364879D01*
X20868901Y-19060321D01*
X21010322Y-18918900D01*
X21314880Y-18918900D01*
X21456301Y-19060321D01*
G36*
X21456301Y-19060321D02*
G01*
X21456301Y-19364879D01*
X21314880Y-19506300D01*
X21010322Y-19506300D01*
X20868901Y-19364879D01*
X20868901Y-19060321D01*
X21010322Y-18918900D01*
X21314880Y-18918900D01*
X21456301Y-19060321D01*
G37*
X23031101Y-19847721D02*
X23031101Y-20152279D01*
X22889680Y-20293700D01*
X22585122Y-20293700D01*
X22443701Y-20152279D01*
X22443701Y-19847721D01*
X22585122Y-19706300D01*
X22889680Y-19706300D01*
X23031101Y-19847721D01*
G36*
X23031101Y-19847721D02*
G01*
X23031101Y-20152279D01*
X22889680Y-20293700D01*
X22585122Y-20293700D01*
X22443701Y-20152279D01*
X22443701Y-19847721D01*
X22585122Y-19706300D01*
X22889680Y-19706300D01*
X23031101Y-19847721D01*
G37*
X22243701Y-19847721D02*
X22243701Y-20152279D01*
X22102280Y-20293700D01*
X21797722Y-20293700D01*
X21656301Y-20152279D01*
X21656301Y-19847721D01*
X21797722Y-19706300D01*
X22102280Y-19706300D01*
X22243701Y-19847721D01*
G36*
X22243701Y-19847721D02*
G01*
X22243701Y-20152279D01*
X22102280Y-20293700D01*
X21797722Y-20293700D01*
X21656301Y-20152279D01*
X21656301Y-19847721D01*
X21797722Y-19706300D01*
X22102280Y-19706300D01*
X22243701Y-19847721D01*
G37*
X21456301Y-19847721D02*
X21456301Y-20152279D01*
X21314880Y-20293700D01*
X21010322Y-20293700D01*
X20868901Y-20152279D01*
X20868901Y-19847721D01*
X21010322Y-19706300D01*
X21314880Y-19706300D01*
X21456301Y-19847721D01*
G36*
X21456301Y-19847721D02*
G01*
X21456301Y-20152279D01*
X21314880Y-20293700D01*
X21010322Y-20293700D01*
X20868901Y-20152279D01*
X20868901Y-19847721D01*
X21010322Y-19706300D01*
X21314880Y-19706300D01*
X21456301Y-19847721D01*
G37*
X23031101Y-20635121D02*
X23031101Y-20939679D01*
X22889680Y-21081100D01*
X22585122Y-21081100D01*
X22443701Y-20939679D01*
X22443701Y-20635121D01*
X22585122Y-20493700D01*
X22889680Y-20493700D01*
X23031101Y-20635121D01*
G36*
X23031101Y-20635121D02*
G01*
X23031101Y-20939679D01*
X22889680Y-21081100D01*
X22585122Y-21081100D01*
X22443701Y-20939679D01*
X22443701Y-20635121D01*
X22585122Y-20493700D01*
X22889680Y-20493700D01*
X23031101Y-20635121D01*
G37*
X22243701Y-20635121D02*
X22243701Y-20939679D01*
X22102280Y-21081100D01*
X21797722Y-21081100D01*
X21656301Y-20939679D01*
X21656301Y-20635121D01*
X21797722Y-20493700D01*
X22102280Y-20493700D01*
X22243701Y-20635121D01*
G36*
X22243701Y-20635121D02*
G01*
X22243701Y-20939679D01*
X22102280Y-21081100D01*
X21797722Y-21081100D01*
X21656301Y-20939679D01*
X21656301Y-20635121D01*
X21797722Y-20493700D01*
X22102280Y-20493700D01*
X22243701Y-20635121D01*
G37*
X21456301Y-20635121D02*
X21456301Y-20939679D01*
X21314880Y-21081100D01*
X21010322Y-21081100D01*
X20868901Y-20939679D01*
X20868901Y-20635121D01*
X21010322Y-20493700D01*
X21314880Y-20493700D01*
X21456301Y-20635121D01*
G36*
X21456301Y-20635121D02*
G01*
X21456301Y-20939679D01*
X21314880Y-21081100D01*
X21010322Y-21081100D01*
X20868901Y-20939679D01*
X20868901Y-20635121D01*
X21010322Y-20493700D01*
X21314880Y-20493700D01*
X21456301Y-20635121D01*
G37*
%TD*%
D11*
%TO.C,C8*%
X17650001Y-21000000D03*
X17650001Y-20040000D03*
%TD*%
D12*
%TO.C,C7*%
X24590001Y-23320000D03*
X23630001Y-23320000D03*
%TD*%
D13*
%TO.C,C4*%
X17700001Y-18060000D03*
X18660001Y-18060000D03*
%TD*%
D14*
%TO.C,C5*%
X25300001Y-17440000D03*
X25300001Y-18400000D03*
%TD*%
D12*
%TO.C,R3*%
X46680002Y-23320000D03*
X45720002Y-23320000D03*
%TD*%
D13*
%TO.C,C6*%
X25320001Y-19350000D03*
X26280001Y-19350000D03*
%TD*%
D12*
%TO.C,C7*%
X48590002Y-43820001D03*
X47630002Y-43820001D03*
%TD*%
D15*
%TO.C,J2*%
X22250001Y-12300000D03*
X21750001Y-14700000D03*
X21250001Y-12300000D03*
X20750001Y-14700000D03*
X20250001Y-12300000D03*
X19750001Y-14700000D03*
X19250001Y-12300000D03*
X18750001Y-14700000D03*
X18250001Y-12300000D03*
X17750001Y-14700000D03*
X17250001Y-12300000D03*
X16750001Y-14700000D03*
X16250001Y-12300000D03*
X15750001Y-14700000D03*
X15250001Y-12300000D03*
X14750001Y-14700000D03*
X14250001Y-12300000D03*
X13750001Y-14700000D03*
D16*
X24000001Y-13500000D03*
X12000001Y-13500000D03*
%TD*%
D17*
%TO.C,U1*%
X23450001Y-38100001D03*
X22950002Y-38100001D03*
X22450000Y-38100001D03*
X21950001Y-38100001D03*
X21450002Y-38100001D03*
X20950000Y-38100001D03*
X20450001Y-38100001D03*
D18*
X19550001Y-39000001D03*
X19550001Y-39500000D03*
X19550001Y-40000002D03*
X19550001Y-40500001D03*
X19550001Y-41000000D03*
X19550001Y-41500002D03*
X19550001Y-42000001D03*
D17*
X20450001Y-42900001D03*
X20950000Y-42900001D03*
X21450002Y-42900001D03*
X21950001Y-42900001D03*
X22450000Y-42900001D03*
X22950002Y-42900001D03*
X23450001Y-42900001D03*
D18*
X24350001Y-42000001D03*
X24350001Y-41500002D03*
X24350001Y-41000000D03*
X24350001Y-40500001D03*
X24350001Y-40000002D03*
X24350001Y-39500000D03*
X24350001Y-39000001D03*
%TD*%
D14*
%TO.C,C5*%
X49300002Y-37940001D03*
X49300002Y-38900001D03*
%TD*%
D11*
%TO.C,C8*%
X41650002Y-41500001D03*
X41650002Y-40540001D03*
%TD*%
D13*
%TO.C,R2*%
X41700002Y-19040000D03*
X42660002Y-19040000D03*
%TD*%
%TO.C,C6*%
X49320002Y-19350000D03*
X50280002Y-19350000D03*
%TD*%
D15*
%TO.C,J2*%
X22250001Y-32800001D03*
X21750001Y-35200001D03*
X21250001Y-32800001D03*
X20750001Y-35200001D03*
X20250001Y-32800001D03*
X19750001Y-35200001D03*
X19250001Y-32800001D03*
X18750001Y-35200001D03*
X18250001Y-32800001D03*
X17750001Y-35200001D03*
X17250001Y-32800001D03*
X16750001Y-35200001D03*
X16250001Y-32800001D03*
X15750001Y-35200001D03*
X15250001Y-32800001D03*
X14750001Y-35200001D03*
X14250001Y-32800001D03*
X13750001Y-35200001D03*
D16*
X24000001Y-34000001D03*
X12000001Y-34000001D03*
%TD*%
D19*
%TO.C,XTAL1*%
X51380002Y-23730000D03*
X51380002Y-21530000D03*
X49630002Y-21530000D03*
D20*
X49630002Y-23730000D03*
%TD*%
D21*
%TO.C,LED1*%
X10150001Y-35985001D03*
X9050001Y-35985001D03*
X9050001Y-37815001D03*
X10150001Y-37815001D03*
%TD*%
D14*
%TO.C,C5*%
X25300001Y-37940001D03*
X25300001Y-38900001D03*
%TD*%
D22*
%TO.C,U2*%
X15340001Y-21170000D03*
X15340001Y-20470000D03*
X14640001Y-21170000D03*
X14640001Y-20470000D03*
D23*
X16440001Y-21620000D03*
X16440001Y-21220000D03*
X16440001Y-20820000D03*
X16440001Y-20420000D03*
X16440001Y-20020000D03*
D24*
X15790001Y-19370000D03*
X15390001Y-19370000D03*
X14990001Y-19370000D03*
X14590001Y-19370000D03*
X14190001Y-19370000D03*
D23*
X13540001Y-20020000D03*
X13540001Y-20420000D03*
X13540001Y-20820000D03*
X13540001Y-21220000D03*
X13540001Y-21620000D03*
D24*
X14190001Y-22270000D03*
X14590001Y-22270000D03*
X14990001Y-22270000D03*
X15390001Y-22270000D03*
X15790001Y-22270000D03*
%TD*%
D17*
%TO.C,U1*%
X47450002Y-38100001D03*
X46950003Y-38100001D03*
X46450001Y-38100001D03*
X45950002Y-38100001D03*
X45450003Y-38100001D03*
X44950001Y-38100001D03*
X44450002Y-38100001D03*
D18*
X43550002Y-39000001D03*
X43550002Y-39500000D03*
X43550002Y-40000002D03*
X43550002Y-40500001D03*
X43550002Y-41000000D03*
X43550002Y-41500002D03*
X43550002Y-42000001D03*
D17*
X44450002Y-42900001D03*
X44950001Y-42900001D03*
X45450003Y-42900001D03*
X45950002Y-42900001D03*
X46450001Y-42900001D03*
X46950003Y-42900001D03*
X47450002Y-42900001D03*
D18*
X48350002Y-42000001D03*
X48350002Y-41500002D03*
X48350002Y-41000000D03*
X48350002Y-40500001D03*
X48350002Y-40000002D03*
X48350002Y-39500000D03*
X48350002Y-39000001D03*
%TD*%
D12*
%TO.C,C7*%
X48590002Y-23320000D03*
X47630002Y-23320000D03*
%TD*%
D15*
%TO.C,J1*%
X37750002Y-47700001D03*
X38250002Y-45300001D03*
X38750002Y-47700001D03*
X39250002Y-45300001D03*
X39750002Y-47700001D03*
X40250002Y-45300001D03*
X40750002Y-47700001D03*
X41250002Y-45300001D03*
X41750002Y-47700001D03*
X42250002Y-45300001D03*
X42750002Y-47700001D03*
X43250002Y-45300001D03*
X43750002Y-47700001D03*
X44250002Y-45300001D03*
X44750002Y-47700001D03*
X45250002Y-45300001D03*
X45750002Y-47700001D03*
X46250002Y-45300001D03*
D16*
X36000002Y-46500001D03*
X48000002Y-46500001D03*
%TD*%
D17*
%TO.C,U1*%
X47450002Y-17600000D03*
X46950003Y-17600000D03*
X46450001Y-17600000D03*
X45950002Y-17600000D03*
X45450003Y-17600000D03*
X44950001Y-17600000D03*
X44450002Y-17600000D03*
D18*
X43550002Y-18500000D03*
X43550002Y-18999999D03*
X43550002Y-19500001D03*
X43550002Y-20000000D03*
X43550002Y-20499999D03*
X43550002Y-21000001D03*
X43550002Y-21500000D03*
D17*
X44450002Y-22400000D03*
X44950001Y-22400000D03*
X45450003Y-22400000D03*
X45950002Y-22400000D03*
X46450001Y-22400000D03*
X46950003Y-22400000D03*
X47450002Y-22400000D03*
D18*
X48350002Y-21500000D03*
X48350002Y-21000001D03*
X48350002Y-20499999D03*
X48350002Y-20000000D03*
X48350002Y-19500001D03*
X48350002Y-18999999D03*
X48350002Y-18500000D03*
%TD*%
D19*
%TO.C,XTAL1*%
X27380001Y-44230001D03*
X27380001Y-42030001D03*
X25630001Y-42030001D03*
D20*
X25630001Y-44230001D03*
%TD*%
D13*
%TO.C,R2*%
X17700001Y-39540001D03*
X18660001Y-39540001D03*
%TD*%
%TO.C,R2*%
X41700002Y-39540001D03*
X42660002Y-39540001D03*
%TD*%
%TO.C,R1*%
X41150002Y-37570001D03*
X42110002Y-37570001D03*
%TD*%
%TO.C,C4*%
X41700002Y-18060000D03*
X42660002Y-18060000D03*
%TD*%
D22*
%TO.C,U2*%
X39340002Y-41670001D03*
X39340002Y-40970001D03*
X38640002Y-41670001D03*
X38640002Y-40970001D03*
D23*
X40440002Y-42120001D03*
X40440002Y-41720001D03*
X40440002Y-41320001D03*
X40440002Y-40920001D03*
X40440002Y-40520001D03*
D24*
X39790002Y-39870001D03*
X39390002Y-39870001D03*
X38990002Y-39870001D03*
X38590002Y-39870001D03*
X38190002Y-39870001D03*
D23*
X37540002Y-40520001D03*
X37540002Y-40920001D03*
X37540002Y-41320001D03*
X37540002Y-41720001D03*
X37540002Y-42120001D03*
D24*
X38190002Y-42770001D03*
X38590002Y-42770001D03*
X38990002Y-42770001D03*
X39390002Y-42770001D03*
X39790002Y-42770001D03*
%TD*%
D15*
%TO.C,J2*%
X46250002Y-32800001D03*
X45750002Y-35200001D03*
X45250002Y-32800001D03*
X44750002Y-35200001D03*
X44250002Y-32800001D03*
X43750002Y-35200001D03*
X43250002Y-32800001D03*
X42750002Y-35200001D03*
X42250002Y-32800001D03*
X41750002Y-35200001D03*
X41250002Y-32800001D03*
X40750002Y-35200001D03*
X40250002Y-32800001D03*
X39750002Y-35200001D03*
X39250002Y-32800001D03*
X38750002Y-35200001D03*
X38250002Y-32800001D03*
X37750002Y-35200001D03*
D16*
X48000002Y-34000001D03*
X36000002Y-34000001D03*
%TD*%
D11*
%TO.C,C8*%
X17650001Y-41500001D03*
X17650001Y-40540001D03*
%TD*%
D12*
%TO.C,R3*%
X22680001Y-23320000D03*
X21720001Y-23320000D03*
%TD*%
%TO.C,R3*%
X22680001Y-43820001D03*
X21720001Y-43820001D03*
%TD*%
D22*
%TO.C,U2*%
X39340002Y-21170000D03*
X39340002Y-20470000D03*
X38640002Y-21170000D03*
X38640002Y-20470000D03*
D23*
X40440002Y-21620000D03*
X40440002Y-21220000D03*
X40440002Y-20820000D03*
X40440002Y-20420000D03*
X40440002Y-20020000D03*
D24*
X39790002Y-19370000D03*
X39390002Y-19370000D03*
X38990002Y-19370000D03*
X38590002Y-19370000D03*
X38190002Y-19370000D03*
D23*
X37540002Y-20020000D03*
X37540002Y-20420000D03*
X37540002Y-20820000D03*
X37540002Y-21220000D03*
X37540002Y-21620000D03*
D24*
X38190002Y-22270000D03*
X38590002Y-22270000D03*
X38990002Y-22270000D03*
X39390002Y-22270000D03*
X39790002Y-22270000D03*
%TD*%
D15*
%TO.C,J1*%
X37750002Y-27200000D03*
X38250002Y-24800000D03*
X38750002Y-27200000D03*
X39250002Y-24800000D03*
X39750002Y-27200000D03*
X40250002Y-24800000D03*
X40750002Y-27200000D03*
X41250002Y-24800000D03*
X41750002Y-27200000D03*
X42250002Y-24800000D03*
X42750002Y-27200000D03*
X43250002Y-24800000D03*
X43750002Y-27200000D03*
X44250002Y-24800000D03*
X44750002Y-27200000D03*
X45250002Y-24800000D03*
X45750002Y-27200000D03*
X46250002Y-24800000D03*
D16*
X36000002Y-26000000D03*
X48000002Y-26000000D03*
%TD*%
D21*
%TO.C,LED1*%
X34150002Y-15485000D03*
X33050002Y-15485000D03*
X33050002Y-17315000D03*
X34150002Y-17315000D03*
%TD*%
D22*
%TO.C,U2*%
X15340001Y-41670001D03*
X15340001Y-40970001D03*
X14640001Y-41670001D03*
X14640001Y-40970001D03*
D23*
X16440001Y-42120001D03*
X16440001Y-41720001D03*
X16440001Y-41320001D03*
X16440001Y-40920001D03*
X16440001Y-40520001D03*
D24*
X15790001Y-39870001D03*
X15390001Y-39870001D03*
X14990001Y-39870001D03*
X14590001Y-39870001D03*
X14190001Y-39870001D03*
D23*
X13540001Y-40520001D03*
X13540001Y-40920001D03*
X13540001Y-41320001D03*
X13540001Y-41720001D03*
X13540001Y-42120001D03*
D24*
X14190001Y-42770001D03*
X14590001Y-42770001D03*
X14990001Y-42770001D03*
X15390001Y-42770001D03*
X15790001Y-42770001D03*
%TD*%
D14*
%TO.C,C5*%
X49300002Y-17440000D03*
X49300002Y-18400000D03*
%TD*%
D19*
%TO.C,XTAL1*%
X27380001Y-23730000D03*
X27380001Y-21530000D03*
X25630001Y-21530000D03*
D20*
X25630001Y-23730000D03*
%TD*%
D13*
%TO.C,C4*%
X41700002Y-38560001D03*
X42660002Y-38560001D03*
%TD*%
%TO.C,C6*%
X49320002Y-39850001D03*
X50280002Y-39850001D03*
%TD*%
D19*
%TO.C,XTAL1*%
X51380002Y-44230001D03*
X51380002Y-42030001D03*
X49630002Y-42030001D03*
D20*
X49630002Y-44230001D03*
%TD*%
D11*
%TO.C,C8*%
X41650002Y-21000000D03*
X41650002Y-20040000D03*
%TD*%
D14*
%TO.C,C3*%
X42630002Y-20050000D03*
X42630002Y-21010000D03*
%TD*%
D13*
%TO.C,C6*%
X25320001Y-39850001D03*
X26280001Y-39850001D03*
%TD*%
%TO.C,R1*%
X17150001Y-37570001D03*
X18110001Y-37570001D03*
%TD*%
D12*
%TO.C,C7*%
X24590001Y-43820001D03*
X23630001Y-43820001D03*
%TD*%
D15*
%TO.C,J2*%
X46250002Y-12300000D03*
X45750002Y-14700000D03*
X45250002Y-12300000D03*
X44750002Y-14700000D03*
X44250002Y-12300000D03*
X43750002Y-14700000D03*
X43250002Y-12300000D03*
X42750002Y-14700000D03*
X42250002Y-12300000D03*
X41750002Y-14700000D03*
X41250002Y-12300000D03*
X40750002Y-14700000D03*
X40250002Y-12300000D03*
X39750002Y-14700000D03*
X39250002Y-12300000D03*
X38750002Y-14700000D03*
X38250002Y-12300000D03*
X37750002Y-14700000D03*
D16*
X48000002Y-13500000D03*
X36000002Y-13500000D03*
%TD*%
D12*
%TO.C,R3*%
X46680002Y-43820001D03*
X45720002Y-43820001D03*
%TD*%
D17*
%TO.C,U1*%
X23450001Y-17600000D03*
X22950002Y-17600000D03*
X22450000Y-17600000D03*
X21950001Y-17600000D03*
X21450002Y-17600000D03*
X20950000Y-17600000D03*
X20450001Y-17600000D03*
D18*
X19550001Y-18500000D03*
X19550001Y-18999999D03*
X19550001Y-19500001D03*
X19550001Y-20000000D03*
X19550001Y-20499999D03*
X19550001Y-21000001D03*
X19550001Y-21500000D03*
D17*
X20450001Y-22400000D03*
X20950000Y-22400000D03*
X21450002Y-22400000D03*
X21950001Y-22400000D03*
X22450000Y-22400000D03*
X22950002Y-22400000D03*
X23450001Y-22400000D03*
D18*
X24350001Y-21500000D03*
X24350001Y-21000001D03*
X24350001Y-20499999D03*
X24350001Y-20000000D03*
X24350001Y-19500001D03*
X24350001Y-18999999D03*
X24350001Y-18500000D03*
%TD*%
D15*
%TO.C,J1*%
X13750001Y-27200000D03*
X14250001Y-24800000D03*
X14750001Y-27200000D03*
X15250001Y-24800000D03*
X15750001Y-27200000D03*
X16250001Y-24800000D03*
X16750001Y-27200000D03*
X17250001Y-24800000D03*
X17750001Y-27200000D03*
X18250001Y-24800000D03*
X18750001Y-27200000D03*
X19250001Y-24800000D03*
X19750001Y-27200000D03*
X20250001Y-24800000D03*
X20750001Y-27200000D03*
X21250001Y-24800000D03*
X21750001Y-27200000D03*
X22250001Y-24800000D03*
D16*
X12000001Y-26000000D03*
X24000001Y-26000000D03*
%TD*%
D14*
%TO.C,C3*%
X18630001Y-40550001D03*
X18630001Y-41510001D03*
%TD*%
%TO.C,C3*%
X42630002Y-40550001D03*
X42630002Y-41510001D03*
%TD*%
D21*
%TO.C,LED1*%
X10150001Y-15485000D03*
X9050001Y-15485000D03*
X9050001Y-17315000D03*
X10150001Y-17315000D03*
%TD*%
D14*
%TO.C,C3*%
X18630001Y-20050000D03*
X18630001Y-21010000D03*
%TD*%
D13*
%TO.C,R1*%
X17150001Y-17070000D03*
X18110001Y-17070000D03*
%TD*%
D15*
%TO.C,J1*%
X13750001Y-47700001D03*
X14250001Y-45300001D03*
X14750001Y-47700001D03*
X15250001Y-45300001D03*
X15750001Y-47700001D03*
X16250001Y-45300001D03*
X16750001Y-47700001D03*
X17250001Y-45300001D03*
X17750001Y-47700001D03*
X18250001Y-45300001D03*
X18750001Y-47700001D03*
X19250001Y-45300001D03*
X19750001Y-47700001D03*
X20250001Y-45300001D03*
X20750001Y-47700001D03*
X21250001Y-45300001D03*
X21750001Y-47700001D03*
X22250001Y-45300001D03*
D16*
X12000001Y-46500001D03*
X24000001Y-46500001D03*
%TD*%
D13*
%TO.C,C4*%
X17700001Y-38560001D03*
X18660001Y-38560001D03*
%TD*%
%TO.C,R2*%
X17700001Y-19040000D03*
X18660001Y-19040000D03*
%TD*%
%TO.C,R1*%
X41150002Y-17070000D03*
X42110002Y-17070000D03*
%TD*%
D21*
%TO.C,LED1*%
X34150002Y-35985001D03*
X33050002Y-35985001D03*
X33050002Y-37815001D03*
X34150002Y-37815001D03*
%TD*%
M02*
