%TF.GenerationSoftware,KiCad,Pcbnew,8.0.4-unknown-202407232306~396e531e7c~ubuntu22.04.1*%
%TF.CreationDate,2024-08-17T16:34:09+01:00*%
%TF.ProjectId,PANEL_DRY_ELEC_6CH_THIN,50414e45-4c5f-4445-9259-5f454c45435f,1.0*%
%TF.SameCoordinates,Original*%
%TF.FileFunction,Paste,Top*%
%TF.FilePolarity,Positive*%
%FSLAX46Y46*%
G04 Gerber Fmt 4.6, Leading zero omitted, Abs format (unit mm)*
G04 Created by KiCad (PCBNEW 8.0.4-unknown-202407232306~396e531e7c~ubuntu22.04.1) date 2024-08-17 16:34:09*
%MOMM*%
%LPD*%
G01*
G04 APERTURE LIST*
G04 Aperture macros list*
%AMRoundRect*
0 Rectangle with rounded corners*
0 $1 Rounding radius*
0 $2 $3 $4 $5 $6 $7 $8 $9 X,Y pos of 4 corners*
0 Add a 4 corners polygon primitive as box body*
4,1,4,$2,$3,$4,$5,$6,$7,$8,$9,$2,$3,0*
0 Add four circle primitives for the rounded corners*
1,1,$1+$1,$2,$3*
1,1,$1+$1,$4,$5*
1,1,$1+$1,$6,$7*
1,1,$1+$1,$8,$9*
0 Add four rect primitives between the rounded corners*
20,1,$1+$1,$2,$3,$4,$5,0*
20,1,$1+$1,$4,$5,$6,$7,0*
20,1,$1+$1,$6,$7,$8,$9,0*
20,1,$1+$1,$8,$9,$2,$3,0*%
G04 Aperture macros list end*
%ADD10RoundRect,0.160000X0.160000X-0.197500X0.160000X0.197500X-0.160000X0.197500X-0.160000X-0.197500X0*%
%ADD11RoundRect,0.140000X0.170000X-0.140000X0.170000X0.140000X-0.170000X0.140000X-0.170000X-0.140000X0*%
G04 APERTURE END LIST*
D10*
%TO.C,R12*%
X12500000Y-32297500D03*
X12500000Y-31102500D03*
%TD*%
%TO.C,R5*%
X98500000Y-87297500D03*
X98500000Y-86102500D03*
%TD*%
D11*
%TO.C,C11*%
X75500000Y-63080000D03*
X75500000Y-62120000D03*
%TD*%
D10*
%TO.C,R12*%
X76500000Y-65297500D03*
X76500000Y-64102500D03*
%TD*%
D11*
%TO.C,C12*%
X76500000Y-85080000D03*
X76500000Y-84120000D03*
%TD*%
D10*
%TO.C,R9*%
X73500000Y-32297500D03*
X73500000Y-31102500D03*
%TD*%
%TO.C,R8*%
X40500000Y-21297500D03*
X40500000Y-20102500D03*
%TD*%
D11*
%TO.C,C5*%
X98500000Y-30080000D03*
X98500000Y-29120000D03*
%TD*%
D10*
%TO.C,R6*%
X33500000Y-10297500D03*
X33500000Y-9102500D03*
%TD*%
D11*
%TO.C,C1*%
X94500000Y-41080000D03*
X94500000Y-40120000D03*
%TD*%
%TO.C,C6*%
X65500000Y-63080000D03*
X65500000Y-62120000D03*
%TD*%
D10*
%TO.C,R5*%
X66500000Y-21297500D03*
X66500000Y-20102500D03*
%TD*%
%TO.C,R7*%
X71500000Y-65297500D03*
X71500000Y-64102500D03*
%TD*%
D11*
%TO.C,C5*%
X98500000Y-63080000D03*
X98500000Y-62120000D03*
%TD*%
D10*
%TO.C,R8*%
X8500000Y-10297500D03*
X8500000Y-9102500D03*
%TD*%
D11*
%TO.C,C1*%
X30500000Y-30080000D03*
X30500000Y-29120000D03*
%TD*%
D10*
%TO.C,R2*%
X61500000Y-87297500D03*
X61500000Y-86102500D03*
%TD*%
D11*
%TO.C,C11*%
X43500000Y-85080000D03*
X43500000Y-84120000D03*
%TD*%
%TO.C,C11*%
X75500000Y-52080000D03*
X75500000Y-51120000D03*
%TD*%
D10*
%TO.C,R12*%
X44500000Y-54297500D03*
X44500000Y-53102500D03*
%TD*%
%TO.C,R12*%
X12500000Y-10297500D03*
X12500000Y-9102500D03*
%TD*%
D11*
%TO.C,C6*%
X65500000Y-8080000D03*
X65500000Y-7120000D03*
%TD*%
%TO.C,C10*%
X74500000Y-41080000D03*
X74500000Y-40120000D03*
%TD*%
%TO.C,C3*%
X32500000Y-19082500D03*
X32500000Y-18122500D03*
%TD*%
%TO.C,C12*%
X44500000Y-8080000D03*
X44500000Y-7120000D03*
%TD*%
D10*
%TO.C,R6*%
X65500000Y-10297500D03*
X65500000Y-9102500D03*
%TD*%
%TO.C,R1*%
X94500000Y-10297500D03*
X94500000Y-9102500D03*
%TD*%
D11*
%TO.C,C10*%
X42500000Y-8080000D03*
X42500000Y-7120000D03*
%TD*%
D10*
%TO.C,R10*%
X42500000Y-54297500D03*
X42500000Y-53102500D03*
%TD*%
D11*
%TO.C,C3*%
X64500000Y-30082500D03*
X64500000Y-29122500D03*
%TD*%
%TO.C,C6*%
X33500000Y-63080000D03*
X33500000Y-62120000D03*
%TD*%
%TO.C,C6*%
X65500000Y-74080000D03*
X65500000Y-73120000D03*
%TD*%
%TO.C,C9*%
X73500000Y-41080000D03*
X73500000Y-40120000D03*
%TD*%
D10*
%TO.C,R3*%
X96500000Y-21300000D03*
X96500000Y-20105000D03*
%TD*%
D11*
%TO.C,C8*%
X8500000Y-19080000D03*
X8500000Y-18120000D03*
%TD*%
D10*
%TO.C,R5*%
X34500000Y-87297500D03*
X34500000Y-86102500D03*
%TD*%
%TO.C,R2*%
X61500000Y-76297500D03*
X61500000Y-75102500D03*
%TD*%
D11*
%TO.C,C9*%
X41500000Y-19080000D03*
X41500000Y-18120000D03*
%TD*%
D10*
%TO.C,R8*%
X72500000Y-32297500D03*
X72500000Y-31102500D03*
%TD*%
D11*
%TO.C,C6*%
X33500000Y-52080000D03*
X33500000Y-51120000D03*
%TD*%
D10*
%TO.C,R12*%
X44500000Y-32297500D03*
X44500000Y-31102500D03*
%TD*%
%TO.C,R1*%
X30500000Y-87297500D03*
X30500000Y-86102500D03*
%TD*%
D11*
%TO.C,C12*%
X12500000Y-63080000D03*
X12500000Y-62120000D03*
%TD*%
%TO.C,C4*%
X31500000Y-8080000D03*
X31500000Y-7120000D03*
%TD*%
%TO.C,C9*%
X41500000Y-41080000D03*
X41500000Y-40120000D03*
%TD*%
%TO.C,C12*%
X76500000Y-19080000D03*
X76500000Y-18120000D03*
%TD*%
D10*
%TO.C,R11*%
X11500000Y-54297500D03*
X11500000Y-53102500D03*
%TD*%
D11*
%TO.C,C8*%
X72500000Y-19080000D03*
X72500000Y-18120000D03*
%TD*%
%TO.C,C2*%
X29500000Y-41080000D03*
X29500000Y-40120000D03*
%TD*%
%TO.C,C10*%
X74500000Y-19080000D03*
X74500000Y-18120000D03*
%TD*%
%TO.C,C9*%
X9500000Y-19080000D03*
X9500000Y-18120000D03*
%TD*%
%TO.C,C11*%
X75500000Y-74080000D03*
X75500000Y-73120000D03*
%TD*%
D10*
%TO.C,R12*%
X44500000Y-43297500D03*
X44500000Y-42102500D03*
%TD*%
D11*
%TO.C,C1*%
X62500000Y-30080000D03*
X62500000Y-29120000D03*
%TD*%
D10*
%TO.C,R6*%
X33500000Y-21297500D03*
X33500000Y-20102500D03*
%TD*%
D11*
%TO.C,C1*%
X62500000Y-41080000D03*
X62500000Y-40120000D03*
%TD*%
%TO.C,C6*%
X97500000Y-30080000D03*
X97500000Y-29120000D03*
%TD*%
D10*
%TO.C,R3*%
X96500000Y-43300000D03*
X96500000Y-42105000D03*
%TD*%
D11*
%TO.C,C7*%
X71500000Y-63080000D03*
X71500000Y-62120000D03*
%TD*%
%TO.C,C9*%
X41500000Y-52080000D03*
X41500000Y-51120000D03*
%TD*%
D10*
%TO.C,R1*%
X30500000Y-21297500D03*
X30500000Y-20102500D03*
%TD*%
D11*
%TO.C,C8*%
X40500000Y-63080000D03*
X40500000Y-62120000D03*
%TD*%
%TO.C,C10*%
X42500000Y-19080000D03*
X42500000Y-18120000D03*
%TD*%
%TO.C,C8*%
X72500000Y-41080000D03*
X72500000Y-40120000D03*
%TD*%
%TO.C,C8*%
X8500000Y-74080000D03*
X8500000Y-73120000D03*
%TD*%
D10*
%TO.C,R6*%
X65500000Y-32297500D03*
X65500000Y-31102500D03*
%TD*%
D11*
%TO.C,C11*%
X43500000Y-63080000D03*
X43500000Y-62120000D03*
%TD*%
%TO.C,C12*%
X12500000Y-8080000D03*
X12500000Y-7120000D03*
%TD*%
%TO.C,C2*%
X93500000Y-8080000D03*
X93500000Y-7120000D03*
%TD*%
%TO.C,C11*%
X43500000Y-30080000D03*
X43500000Y-29120000D03*
%TD*%
D10*
%TO.C,R12*%
X76500000Y-21297500D03*
X76500000Y-20102500D03*
%TD*%
D11*
%TO.C,C2*%
X29500000Y-30080000D03*
X29500000Y-29120000D03*
%TD*%
%TO.C,C1*%
X94500000Y-30080000D03*
X94500000Y-29120000D03*
%TD*%
D10*
%TO.C,R11*%
X11500000Y-76297500D03*
X11500000Y-75102500D03*
%TD*%
D11*
%TO.C,C3*%
X64500000Y-41082500D03*
X64500000Y-40122500D03*
%TD*%
D10*
%TO.C,R1*%
X30500000Y-65297500D03*
X30500000Y-64102500D03*
%TD*%
%TO.C,R10*%
X74500000Y-65297500D03*
X74500000Y-64102500D03*
%TD*%
D11*
%TO.C,C4*%
X31500000Y-52080000D03*
X31500000Y-51120000D03*
%TD*%
%TO.C,C10*%
X10500000Y-85080000D03*
X10500000Y-84120000D03*
%TD*%
%TO.C,C7*%
X39500000Y-19080000D03*
X39500000Y-18120000D03*
%TD*%
D10*
%TO.C,R6*%
X97500000Y-43297500D03*
X97500000Y-42102500D03*
%TD*%
D11*
%TO.C,C4*%
X63500000Y-52080000D03*
X63500000Y-51120000D03*
%TD*%
D10*
%TO.C,R2*%
X29500000Y-32297500D03*
X29500000Y-31102500D03*
%TD*%
D11*
%TO.C,C12*%
X76500000Y-52080000D03*
X76500000Y-51120000D03*
%TD*%
%TO.C,C3*%
X64500000Y-19082500D03*
X64500000Y-18122500D03*
%TD*%
D10*
%TO.C,R7*%
X39500000Y-10297500D03*
X39500000Y-9102500D03*
%TD*%
%TO.C,R5*%
X34500000Y-10297500D03*
X34500000Y-9102500D03*
%TD*%
D11*
%TO.C,C11*%
X43500000Y-8080000D03*
X43500000Y-7120000D03*
%TD*%
D10*
%TO.C,R6*%
X97500000Y-21297500D03*
X97500000Y-20102500D03*
%TD*%
D11*
%TO.C,C7*%
X7500000Y-8080000D03*
X7500000Y-7120000D03*
%TD*%
D10*
%TO.C,R3*%
X32500000Y-76300000D03*
X32500000Y-75105000D03*
%TD*%
%TO.C,R4*%
X31500000Y-10297500D03*
X31500000Y-9102500D03*
%TD*%
%TO.C,R2*%
X93500000Y-10297500D03*
X93500000Y-9102500D03*
%TD*%
%TO.C,R8*%
X8500000Y-76297500D03*
X8500000Y-75102500D03*
%TD*%
%TO.C,R11*%
X75500000Y-43297500D03*
X75500000Y-42102500D03*
%TD*%
%TO.C,R9*%
X73500000Y-54297500D03*
X73500000Y-53102500D03*
%TD*%
%TO.C,R10*%
X74500000Y-87297500D03*
X74500000Y-86102500D03*
%TD*%
%TO.C,R9*%
X41500000Y-21297500D03*
X41500000Y-20102500D03*
%TD*%
D11*
%TO.C,C12*%
X12500000Y-30080000D03*
X12500000Y-29120000D03*
%TD*%
D10*
%TO.C,R1*%
X94500000Y-54297500D03*
X94500000Y-53102500D03*
%TD*%
%TO.C,R6*%
X33500000Y-32297500D03*
X33500000Y-31102500D03*
%TD*%
%TO.C,R1*%
X62500000Y-54297500D03*
X62500000Y-53102500D03*
%TD*%
%TO.C,R10*%
X10500000Y-87297500D03*
X10500000Y-86102500D03*
%TD*%
%TO.C,R7*%
X7500000Y-21297500D03*
X7500000Y-20102500D03*
%TD*%
%TO.C,R1*%
X62500000Y-32297500D03*
X62500000Y-31102500D03*
%TD*%
%TO.C,R1*%
X94500000Y-32297500D03*
X94500000Y-31102500D03*
%TD*%
D11*
%TO.C,C3*%
X96500000Y-30082500D03*
X96500000Y-29122500D03*
%TD*%
D10*
%TO.C,R11*%
X75500000Y-65297500D03*
X75500000Y-64102500D03*
%TD*%
D11*
%TO.C,C9*%
X73500000Y-85080000D03*
X73500000Y-84120000D03*
%TD*%
%TO.C,C5*%
X34500000Y-8080000D03*
X34500000Y-7120000D03*
%TD*%
%TO.C,C4*%
X95500000Y-8080000D03*
X95500000Y-7120000D03*
%TD*%
D10*
%TO.C,R7*%
X71500000Y-32297500D03*
X71500000Y-31102500D03*
%TD*%
%TO.C,R2*%
X29500000Y-65297500D03*
X29500000Y-64102500D03*
%TD*%
D11*
%TO.C,C2*%
X29500000Y-85080000D03*
X29500000Y-84120000D03*
%TD*%
%TO.C,C5*%
X98500000Y-19080000D03*
X98500000Y-18120000D03*
%TD*%
%TO.C,C11*%
X11500000Y-63080000D03*
X11500000Y-62120000D03*
%TD*%
D10*
%TO.C,R7*%
X71500000Y-87297500D03*
X71500000Y-86102500D03*
%TD*%
%TO.C,R9*%
X9500000Y-21297500D03*
X9500000Y-20102500D03*
%TD*%
%TO.C,R4*%
X95500000Y-43297500D03*
X95500000Y-42102500D03*
%TD*%
D11*
%TO.C,C9*%
X41500000Y-63080000D03*
X41500000Y-62120000D03*
%TD*%
D10*
%TO.C,R6*%
X97500000Y-65297500D03*
X97500000Y-64102500D03*
%TD*%
D11*
%TO.C,C12*%
X76500000Y-8080000D03*
X76500000Y-7120000D03*
%TD*%
D10*
%TO.C,R10*%
X10500000Y-76297500D03*
X10500000Y-75102500D03*
%TD*%
D11*
%TO.C,C1*%
X94500000Y-85080000D03*
X94500000Y-84120000D03*
%TD*%
%TO.C,C4*%
X63500000Y-30080000D03*
X63500000Y-29120000D03*
%TD*%
D10*
%TO.C,R5*%
X98500000Y-21297500D03*
X98500000Y-20102500D03*
%TD*%
D11*
%TO.C,C3*%
X64500000Y-74082500D03*
X64500000Y-73122500D03*
%TD*%
D10*
%TO.C,R4*%
X31500000Y-43297500D03*
X31500000Y-42102500D03*
%TD*%
D11*
%TO.C,C9*%
X9500000Y-41080000D03*
X9500000Y-40120000D03*
%TD*%
D10*
%TO.C,R7*%
X39500000Y-32297500D03*
X39500000Y-31102500D03*
%TD*%
D11*
%TO.C,C9*%
X73500000Y-8080000D03*
X73500000Y-7120000D03*
%TD*%
%TO.C,C9*%
X73500000Y-63080000D03*
X73500000Y-62120000D03*
%TD*%
D10*
%TO.C,R10*%
X10500000Y-32297500D03*
X10500000Y-31102500D03*
%TD*%
D11*
%TO.C,C5*%
X66500000Y-63080000D03*
X66500000Y-62120000D03*
%TD*%
D10*
%TO.C,R5*%
X66500000Y-87297500D03*
X66500000Y-86102500D03*
%TD*%
D11*
%TO.C,C3*%
X64500000Y-8082500D03*
X64500000Y-7122500D03*
%TD*%
%TO.C,C12*%
X44500000Y-52080000D03*
X44500000Y-51120000D03*
%TD*%
%TO.C,C7*%
X39500000Y-41080000D03*
X39500000Y-40120000D03*
%TD*%
D10*
%TO.C,R5*%
X34500000Y-65297500D03*
X34500000Y-64102500D03*
%TD*%
D11*
%TO.C,C9*%
X41500000Y-30080000D03*
X41500000Y-29120000D03*
%TD*%
%TO.C,C7*%
X71500000Y-8080000D03*
X71500000Y-7120000D03*
%TD*%
%TO.C,C11*%
X11500000Y-8080000D03*
X11500000Y-7120000D03*
%TD*%
%TO.C,C1*%
X62500000Y-8080000D03*
X62500000Y-7120000D03*
%TD*%
D10*
%TO.C,R4*%
X63500000Y-87297500D03*
X63500000Y-86102500D03*
%TD*%
D11*
%TO.C,C9*%
X73500000Y-52080000D03*
X73500000Y-51120000D03*
%TD*%
%TO.C,C9*%
X41500000Y-85080000D03*
X41500000Y-84120000D03*
%TD*%
D10*
%TO.C,R3*%
X64500000Y-10300000D03*
X64500000Y-9105000D03*
%TD*%
D11*
%TO.C,C7*%
X7500000Y-19080000D03*
X7500000Y-18120000D03*
%TD*%
D10*
%TO.C,R8*%
X8500000Y-32297500D03*
X8500000Y-31102500D03*
%TD*%
D11*
%TO.C,C12*%
X76500000Y-74080000D03*
X76500000Y-73120000D03*
%TD*%
D10*
%TO.C,R2*%
X93500000Y-87297500D03*
X93500000Y-86102500D03*
%TD*%
D11*
%TO.C,C5*%
X98500000Y-85080000D03*
X98500000Y-84120000D03*
%TD*%
D10*
%TO.C,R6*%
X65500000Y-76297500D03*
X65500000Y-75102500D03*
%TD*%
%TO.C,R5*%
X98500000Y-10297500D03*
X98500000Y-9102500D03*
%TD*%
%TO.C,R12*%
X44500000Y-10297500D03*
X44500000Y-9102500D03*
%TD*%
%TO.C,R6*%
X97500000Y-87297500D03*
X97500000Y-86102500D03*
%TD*%
D11*
%TO.C,C5*%
X66500000Y-19080000D03*
X66500000Y-18120000D03*
%TD*%
%TO.C,C12*%
X12500000Y-41080000D03*
X12500000Y-40120000D03*
%TD*%
%TO.C,C2*%
X61500000Y-19080000D03*
X61500000Y-18120000D03*
%TD*%
D10*
%TO.C,R12*%
X12500000Y-76297500D03*
X12500000Y-75102500D03*
%TD*%
D11*
%TO.C,C7*%
X7500000Y-63080000D03*
X7500000Y-62120000D03*
%TD*%
D10*
%TO.C,R4*%
X95500000Y-10297500D03*
X95500000Y-9102500D03*
%TD*%
%TO.C,R8*%
X40500000Y-65297500D03*
X40500000Y-64102500D03*
%TD*%
D11*
%TO.C,C7*%
X71500000Y-30080000D03*
X71500000Y-29120000D03*
%TD*%
D10*
%TO.C,R4*%
X95500000Y-32297500D03*
X95500000Y-31102500D03*
%TD*%
%TO.C,R1*%
X94500000Y-21297500D03*
X94500000Y-20102500D03*
%TD*%
D11*
%TO.C,C4*%
X31500000Y-85080000D03*
X31500000Y-84120000D03*
%TD*%
%TO.C,C7*%
X7500000Y-30080000D03*
X7500000Y-29120000D03*
%TD*%
%TO.C,C10*%
X42500000Y-30080000D03*
X42500000Y-29120000D03*
%TD*%
%TO.C,C5*%
X34500000Y-41080000D03*
X34500000Y-40120000D03*
%TD*%
D10*
%TO.C,R3*%
X64500000Y-54300000D03*
X64500000Y-53105000D03*
%TD*%
%TO.C,R5*%
X98500000Y-43297500D03*
X98500000Y-42102500D03*
%TD*%
%TO.C,R11*%
X75500000Y-76297500D03*
X75500000Y-75102500D03*
%TD*%
D11*
%TO.C,C5*%
X66500000Y-30080000D03*
X66500000Y-29120000D03*
%TD*%
D10*
%TO.C,R3*%
X96500000Y-54300000D03*
X96500000Y-53105000D03*
%TD*%
%TO.C,R9*%
X41500000Y-76297500D03*
X41500000Y-75102500D03*
%TD*%
%TO.C,R9*%
X41500000Y-43297500D03*
X41500000Y-42102500D03*
%TD*%
D11*
%TO.C,C2*%
X93500000Y-85080000D03*
X93500000Y-84120000D03*
%TD*%
D10*
%TO.C,R2*%
X29500000Y-21297500D03*
X29500000Y-20102500D03*
%TD*%
%TO.C,R2*%
X93500000Y-54297500D03*
X93500000Y-53102500D03*
%TD*%
%TO.C,R7*%
X71500000Y-54297500D03*
X71500000Y-53102500D03*
%TD*%
D11*
%TO.C,C11*%
X11500000Y-74080000D03*
X11500000Y-73120000D03*
%TD*%
%TO.C,C10*%
X10500000Y-52080000D03*
X10500000Y-51120000D03*
%TD*%
D10*
%TO.C,R5*%
X34500000Y-21297500D03*
X34500000Y-20102500D03*
%TD*%
%TO.C,R1*%
X62500000Y-21297500D03*
X62500000Y-20102500D03*
%TD*%
%TO.C,R7*%
X71500000Y-21297500D03*
X71500000Y-20102500D03*
%TD*%
D11*
%TO.C,C5*%
X34500000Y-74080000D03*
X34500000Y-73120000D03*
%TD*%
%TO.C,C8*%
X40500000Y-85080000D03*
X40500000Y-84120000D03*
%TD*%
%TO.C,C11*%
X43500000Y-41080000D03*
X43500000Y-40120000D03*
%TD*%
D10*
%TO.C,R9*%
X73500000Y-65297500D03*
X73500000Y-64102500D03*
%TD*%
D11*
%TO.C,C6*%
X65500000Y-41080000D03*
X65500000Y-40120000D03*
%TD*%
D10*
%TO.C,R6*%
X33500000Y-87297500D03*
X33500000Y-86102500D03*
%TD*%
%TO.C,R10*%
X42500000Y-43297500D03*
X42500000Y-42102500D03*
%TD*%
D11*
%TO.C,C6*%
X33500000Y-30080000D03*
X33500000Y-29120000D03*
%TD*%
D10*
%TO.C,R5*%
X66500000Y-54297500D03*
X66500000Y-53102500D03*
%TD*%
%TO.C,R9*%
X41500000Y-54297500D03*
X41500000Y-53102500D03*
%TD*%
D11*
%TO.C,C11*%
X11500000Y-19080000D03*
X11500000Y-18120000D03*
%TD*%
D10*
%TO.C,R7*%
X7500000Y-76297500D03*
X7500000Y-75102500D03*
%TD*%
%TO.C,R8*%
X72500000Y-87297500D03*
X72500000Y-86102500D03*
%TD*%
D11*
%TO.C,C1*%
X30500000Y-41080000D03*
X30500000Y-40120000D03*
%TD*%
%TO.C,C11*%
X43500000Y-74080000D03*
X43500000Y-73120000D03*
%TD*%
%TO.C,C1*%
X62500000Y-63080000D03*
X62500000Y-62120000D03*
%TD*%
%TO.C,C1*%
X30500000Y-85080000D03*
X30500000Y-84120000D03*
%TD*%
%TO.C,C6*%
X97500000Y-74080000D03*
X97500000Y-73120000D03*
%TD*%
%TO.C,C12*%
X12500000Y-85080000D03*
X12500000Y-84120000D03*
%TD*%
D10*
%TO.C,R6*%
X97500000Y-54297500D03*
X97500000Y-53102500D03*
%TD*%
D11*
%TO.C,C4*%
X95500000Y-63080000D03*
X95500000Y-62120000D03*
%TD*%
%TO.C,C4*%
X31500000Y-41080000D03*
X31500000Y-40120000D03*
%TD*%
%TO.C,C6*%
X97500000Y-19080000D03*
X97500000Y-18120000D03*
%TD*%
%TO.C,C8*%
X8500000Y-8080000D03*
X8500000Y-7120000D03*
%TD*%
%TO.C,C4*%
X31500000Y-63080000D03*
X31500000Y-62120000D03*
%TD*%
%TO.C,C1*%
X94500000Y-52080000D03*
X94500000Y-51120000D03*
%TD*%
%TO.C,C10*%
X10500000Y-19080000D03*
X10500000Y-18120000D03*
%TD*%
D10*
%TO.C,R4*%
X63500000Y-32297500D03*
X63500000Y-31102500D03*
%TD*%
D11*
%TO.C,C10*%
X42500000Y-85080000D03*
X42500000Y-84120000D03*
%TD*%
D10*
%TO.C,R9*%
X9500000Y-43297500D03*
X9500000Y-42102500D03*
%TD*%
D11*
%TO.C,C11*%
X11500000Y-52080000D03*
X11500000Y-51120000D03*
%TD*%
D10*
%TO.C,R11*%
X43500000Y-87297500D03*
X43500000Y-86102500D03*
%TD*%
D11*
%TO.C,C6*%
X33500000Y-85080000D03*
X33500000Y-84120000D03*
%TD*%
D10*
%TO.C,R12*%
X12500000Y-21297500D03*
X12500000Y-20102500D03*
%TD*%
D11*
%TO.C,C3*%
X32500000Y-41082500D03*
X32500000Y-40122500D03*
%TD*%
%TO.C,C6*%
X65500000Y-85080000D03*
X65500000Y-84120000D03*
%TD*%
%TO.C,C2*%
X29500000Y-8080000D03*
X29500000Y-7120000D03*
%TD*%
%TO.C,C10*%
X10500000Y-8080000D03*
X10500000Y-7120000D03*
%TD*%
%TO.C,C3*%
X96500000Y-41082500D03*
X96500000Y-40122500D03*
%TD*%
%TO.C,C2*%
X29500000Y-74080000D03*
X29500000Y-73120000D03*
%TD*%
D10*
%TO.C,R6*%
X33500000Y-76297500D03*
X33500000Y-75102500D03*
%TD*%
D11*
%TO.C,C10*%
X42500000Y-63080000D03*
X42500000Y-62120000D03*
%TD*%
%TO.C,C3*%
X64500000Y-85082500D03*
X64500000Y-84122500D03*
%TD*%
%TO.C,C7*%
X39500000Y-63080000D03*
X39500000Y-62120000D03*
%TD*%
D10*
%TO.C,R7*%
X39500000Y-87297500D03*
X39500000Y-86102500D03*
%TD*%
D11*
%TO.C,C6*%
X65500000Y-52080000D03*
X65500000Y-51120000D03*
%TD*%
D10*
%TO.C,R11*%
X11500000Y-65297500D03*
X11500000Y-64102500D03*
%TD*%
%TO.C,R8*%
X40500000Y-87297500D03*
X40500000Y-86102500D03*
%TD*%
D11*
%TO.C,C1*%
X30500000Y-52080000D03*
X30500000Y-51120000D03*
%TD*%
D10*
%TO.C,R12*%
X76500000Y-32297500D03*
X76500000Y-31102500D03*
%TD*%
D11*
%TO.C,C8*%
X40500000Y-8080000D03*
X40500000Y-7120000D03*
%TD*%
D10*
%TO.C,R1*%
X94500000Y-87297500D03*
X94500000Y-86102500D03*
%TD*%
D11*
%TO.C,C8*%
X8500000Y-63080000D03*
X8500000Y-62120000D03*
%TD*%
D10*
%TO.C,R10*%
X74500000Y-54297500D03*
X74500000Y-53102500D03*
%TD*%
D11*
%TO.C,C8*%
X72500000Y-74080000D03*
X72500000Y-73120000D03*
%TD*%
%TO.C,C2*%
X61500000Y-41080000D03*
X61500000Y-40120000D03*
%TD*%
D10*
%TO.C,R7*%
X7500000Y-65297500D03*
X7500000Y-64102500D03*
%TD*%
D11*
%TO.C,C12*%
X12500000Y-19080000D03*
X12500000Y-18120000D03*
%TD*%
%TO.C,C11*%
X43500000Y-52080000D03*
X43500000Y-51120000D03*
%TD*%
%TO.C,C2*%
X29500000Y-52080000D03*
X29500000Y-51120000D03*
%TD*%
D10*
%TO.C,R3*%
X96500000Y-65300000D03*
X96500000Y-64105000D03*
%TD*%
D11*
%TO.C,C10*%
X10500000Y-41080000D03*
X10500000Y-40120000D03*
%TD*%
D10*
%TO.C,R7*%
X7500000Y-54297500D03*
X7500000Y-53102500D03*
%TD*%
D11*
%TO.C,C5*%
X34500000Y-52080000D03*
X34500000Y-51120000D03*
%TD*%
%TO.C,C7*%
X7500000Y-85080000D03*
X7500000Y-84120000D03*
%TD*%
D10*
%TO.C,R3*%
X64500000Y-76300000D03*
X64500000Y-75105000D03*
%TD*%
%TO.C,R7*%
X39500000Y-21297500D03*
X39500000Y-20102500D03*
%TD*%
%TO.C,R2*%
X93500000Y-43297500D03*
X93500000Y-42102500D03*
%TD*%
D11*
%TO.C,C6*%
X65500000Y-30080000D03*
X65500000Y-29120000D03*
%TD*%
D10*
%TO.C,R6*%
X65500000Y-54297500D03*
X65500000Y-53102500D03*
%TD*%
%TO.C,R11*%
X43500000Y-76297500D03*
X43500000Y-75102500D03*
%TD*%
D11*
%TO.C,C10*%
X42500000Y-41080000D03*
X42500000Y-40120000D03*
%TD*%
%TO.C,C3*%
X96500000Y-19082500D03*
X96500000Y-18122500D03*
%TD*%
%TO.C,C8*%
X8500000Y-52080000D03*
X8500000Y-51120000D03*
%TD*%
D10*
%TO.C,R10*%
X74500000Y-10297500D03*
X74500000Y-9102500D03*
%TD*%
%TO.C,R9*%
X73500000Y-10297500D03*
X73500000Y-9102500D03*
%TD*%
%TO.C,R11*%
X75500000Y-54297500D03*
X75500000Y-53102500D03*
%TD*%
D11*
%TO.C,C8*%
X72500000Y-63080000D03*
X72500000Y-62120000D03*
%TD*%
D10*
%TO.C,R5*%
X98500000Y-54297500D03*
X98500000Y-53102500D03*
%TD*%
%TO.C,R6*%
X65500000Y-87297500D03*
X65500000Y-86102500D03*
%TD*%
%TO.C,R8*%
X72500000Y-76297500D03*
X72500000Y-75102500D03*
%TD*%
D11*
%TO.C,C1*%
X62500000Y-74080000D03*
X62500000Y-73120000D03*
%TD*%
%TO.C,C5*%
X66500000Y-41080000D03*
X66500000Y-40120000D03*
%TD*%
%TO.C,C4*%
X31500000Y-74080000D03*
X31500000Y-73120000D03*
%TD*%
%TO.C,C12*%
X44500000Y-30080000D03*
X44500000Y-29120000D03*
%TD*%
D10*
%TO.C,R12*%
X44500000Y-87297500D03*
X44500000Y-86102500D03*
%TD*%
D11*
%TO.C,C12*%
X76500000Y-63080000D03*
X76500000Y-62120000D03*
%TD*%
D10*
%TO.C,R12*%
X12500000Y-43297500D03*
X12500000Y-42102500D03*
%TD*%
%TO.C,R6*%
X97500000Y-10297500D03*
X97500000Y-9102500D03*
%TD*%
D11*
%TO.C,C7*%
X39500000Y-85080000D03*
X39500000Y-84120000D03*
%TD*%
%TO.C,C3*%
X32500000Y-74082500D03*
X32500000Y-73122500D03*
%TD*%
D10*
%TO.C,R8*%
X72500000Y-54297500D03*
X72500000Y-53102500D03*
%TD*%
D11*
%TO.C,C8*%
X40500000Y-41080000D03*
X40500000Y-40120000D03*
%TD*%
D10*
%TO.C,R4*%
X63500000Y-10297500D03*
X63500000Y-9102500D03*
%TD*%
%TO.C,R9*%
X9500000Y-76297500D03*
X9500000Y-75102500D03*
%TD*%
D11*
%TO.C,C2*%
X61500000Y-52080000D03*
X61500000Y-51120000D03*
%TD*%
D10*
%TO.C,R1*%
X30500000Y-10297500D03*
X30500000Y-9102500D03*
%TD*%
D11*
%TO.C,C3*%
X32500000Y-30082500D03*
X32500000Y-29122500D03*
%TD*%
D10*
%TO.C,R10*%
X10500000Y-43297500D03*
X10500000Y-42102500D03*
%TD*%
D11*
%TO.C,C7*%
X71500000Y-41080000D03*
X71500000Y-40120000D03*
%TD*%
D10*
%TO.C,R12*%
X76500000Y-54297500D03*
X76500000Y-53102500D03*
%TD*%
%TO.C,R3*%
X64500000Y-87300000D03*
X64500000Y-86105000D03*
%TD*%
%TO.C,R1*%
X62500000Y-43297500D03*
X62500000Y-42102500D03*
%TD*%
D11*
%TO.C,C1*%
X30500000Y-8080000D03*
X30500000Y-7120000D03*
%TD*%
%TO.C,C1*%
X30500000Y-19080000D03*
X30500000Y-18120000D03*
%TD*%
D10*
%TO.C,R4*%
X95500000Y-54297500D03*
X95500000Y-53102500D03*
%TD*%
D11*
%TO.C,C12*%
X44500000Y-41080000D03*
X44500000Y-40120000D03*
%TD*%
D10*
%TO.C,R5*%
X66500000Y-43297500D03*
X66500000Y-42102500D03*
%TD*%
%TO.C,R2*%
X61500000Y-65297500D03*
X61500000Y-64102500D03*
%TD*%
%TO.C,R1*%
X94500000Y-76297500D03*
X94500000Y-75102500D03*
%TD*%
D11*
%TO.C,C9*%
X73500000Y-30080000D03*
X73500000Y-29120000D03*
%TD*%
%TO.C,C11*%
X75500000Y-30080000D03*
X75500000Y-29120000D03*
%TD*%
D10*
%TO.C,R6*%
X97500000Y-32297500D03*
X97500000Y-31102500D03*
%TD*%
D11*
%TO.C,C10*%
X42500000Y-52080000D03*
X42500000Y-51120000D03*
%TD*%
D10*
%TO.C,R11*%
X75500000Y-10297500D03*
X75500000Y-9102500D03*
%TD*%
D11*
%TO.C,C10*%
X74500000Y-85080000D03*
X74500000Y-84120000D03*
%TD*%
%TO.C,C7*%
X71500000Y-52080000D03*
X71500000Y-51120000D03*
%TD*%
D10*
%TO.C,R9*%
X41500000Y-32297500D03*
X41500000Y-31102500D03*
%TD*%
D11*
%TO.C,C9*%
X9500000Y-74080000D03*
X9500000Y-73120000D03*
%TD*%
%TO.C,C9*%
X41500000Y-8080000D03*
X41500000Y-7120000D03*
%TD*%
D10*
%TO.C,R2*%
X61500000Y-54297500D03*
X61500000Y-53102500D03*
%TD*%
D11*
%TO.C,C2*%
X61500000Y-85080000D03*
X61500000Y-84120000D03*
%TD*%
D10*
%TO.C,R1*%
X62500000Y-65297500D03*
X62500000Y-64102500D03*
%TD*%
D11*
%TO.C,C6*%
X65500000Y-19080000D03*
X65500000Y-18120000D03*
%TD*%
%TO.C,C9*%
X9500000Y-30080000D03*
X9500000Y-29120000D03*
%TD*%
%TO.C,C10*%
X42500000Y-74080000D03*
X42500000Y-73120000D03*
%TD*%
D10*
%TO.C,R3*%
X64500000Y-43300000D03*
X64500000Y-42105000D03*
%TD*%
D11*
%TO.C,C2*%
X93500000Y-52080000D03*
X93500000Y-51120000D03*
%TD*%
%TO.C,C4*%
X63500000Y-19080000D03*
X63500000Y-18120000D03*
%TD*%
%TO.C,C1*%
X94500000Y-19080000D03*
X94500000Y-18120000D03*
%TD*%
%TO.C,C12*%
X44500000Y-85080000D03*
X44500000Y-84120000D03*
%TD*%
D10*
%TO.C,R12*%
X44500000Y-21297500D03*
X44500000Y-20102500D03*
%TD*%
D11*
%TO.C,C5*%
X66500000Y-52080000D03*
X66500000Y-51120000D03*
%TD*%
%TO.C,C11*%
X11500000Y-30080000D03*
X11500000Y-29120000D03*
%TD*%
%TO.C,C7*%
X71500000Y-85080000D03*
X71500000Y-84120000D03*
%TD*%
D10*
%TO.C,R8*%
X72500000Y-10297500D03*
X72500000Y-9102500D03*
%TD*%
%TO.C,R3*%
X32500000Y-43300000D03*
X32500000Y-42105000D03*
%TD*%
%TO.C,R3*%
X32500000Y-21300000D03*
X32500000Y-20105000D03*
%TD*%
%TO.C,R2*%
X29500000Y-54297500D03*
X29500000Y-53102500D03*
%TD*%
%TO.C,R7*%
X7500000Y-43297500D03*
X7500000Y-42102500D03*
%TD*%
D11*
%TO.C,C8*%
X8500000Y-85080000D03*
X8500000Y-84120000D03*
%TD*%
%TO.C,C5*%
X66500000Y-85080000D03*
X66500000Y-84120000D03*
%TD*%
D10*
%TO.C,R4*%
X95500000Y-65297500D03*
X95500000Y-64102500D03*
%TD*%
%TO.C,R2*%
X29500000Y-43297500D03*
X29500000Y-42102500D03*
%TD*%
D11*
%TO.C,C1*%
X94500000Y-63080000D03*
X94500000Y-62120000D03*
%TD*%
%TO.C,C7*%
X7500000Y-41080000D03*
X7500000Y-40120000D03*
%TD*%
%TO.C,C4*%
X31500000Y-19080000D03*
X31500000Y-18120000D03*
%TD*%
D10*
%TO.C,R8*%
X8500000Y-87297500D03*
X8500000Y-86102500D03*
%TD*%
%TO.C,R2*%
X29500000Y-87297500D03*
X29500000Y-86102500D03*
%TD*%
D11*
%TO.C,C3*%
X32500000Y-8082500D03*
X32500000Y-7122500D03*
%TD*%
D10*
%TO.C,R11*%
X43500000Y-43297500D03*
X43500000Y-42102500D03*
%TD*%
D11*
%TO.C,C11*%
X75500000Y-85080000D03*
X75500000Y-84120000D03*
%TD*%
D10*
%TO.C,R11*%
X75500000Y-21297500D03*
X75500000Y-20102500D03*
%TD*%
%TO.C,R1*%
X30500000Y-43297500D03*
X30500000Y-42102500D03*
%TD*%
%TO.C,R9*%
X73500000Y-43297500D03*
X73500000Y-42102500D03*
%TD*%
D11*
%TO.C,C10*%
X10500000Y-30080000D03*
X10500000Y-29120000D03*
%TD*%
%TO.C,C11*%
X75500000Y-19080000D03*
X75500000Y-18120000D03*
%TD*%
D10*
%TO.C,R11*%
X75500000Y-87297500D03*
X75500000Y-86102500D03*
%TD*%
%TO.C,R7*%
X39500000Y-65297500D03*
X39500000Y-64102500D03*
%TD*%
D11*
%TO.C,C8*%
X72500000Y-52080000D03*
X72500000Y-51120000D03*
%TD*%
D10*
%TO.C,R9*%
X73500000Y-76297500D03*
X73500000Y-75102500D03*
%TD*%
D11*
%TO.C,C7*%
X7500000Y-74080000D03*
X7500000Y-73120000D03*
%TD*%
D10*
%TO.C,R2*%
X93500000Y-21297500D03*
X93500000Y-20102500D03*
%TD*%
D11*
%TO.C,C9*%
X9500000Y-63080000D03*
X9500000Y-62120000D03*
%TD*%
D10*
%TO.C,R10*%
X74500000Y-32297500D03*
X74500000Y-31102500D03*
%TD*%
D11*
%TO.C,C6*%
X97500000Y-41080000D03*
X97500000Y-40120000D03*
%TD*%
D10*
%TO.C,R11*%
X75500000Y-32297500D03*
X75500000Y-31102500D03*
%TD*%
%TO.C,R8*%
X8500000Y-21297500D03*
X8500000Y-20102500D03*
%TD*%
%TO.C,R11*%
X11500000Y-10297500D03*
X11500000Y-9102500D03*
%TD*%
%TO.C,R8*%
X40500000Y-10297500D03*
X40500000Y-9102500D03*
%TD*%
%TO.C,R5*%
X98500000Y-76297500D03*
X98500000Y-75102500D03*
%TD*%
D11*
%TO.C,C8*%
X72500000Y-85080000D03*
X72500000Y-84120000D03*
%TD*%
D10*
%TO.C,R12*%
X76500000Y-87297500D03*
X76500000Y-86102500D03*
%TD*%
D11*
%TO.C,C2*%
X29500000Y-63080000D03*
X29500000Y-62120000D03*
%TD*%
%TO.C,C5*%
X98500000Y-52080000D03*
X98500000Y-51120000D03*
%TD*%
%TO.C,C4*%
X95500000Y-85080000D03*
X95500000Y-84120000D03*
%TD*%
%TO.C,C3*%
X32500000Y-52082500D03*
X32500000Y-51122500D03*
%TD*%
%TO.C,C7*%
X39500000Y-30080000D03*
X39500000Y-29120000D03*
%TD*%
D10*
%TO.C,R5*%
X98500000Y-32297500D03*
X98500000Y-31102500D03*
%TD*%
%TO.C,R11*%
X43500000Y-21297500D03*
X43500000Y-20102500D03*
%TD*%
%TO.C,R10*%
X42500000Y-21297500D03*
X42500000Y-20102500D03*
%TD*%
%TO.C,R3*%
X64500000Y-65300000D03*
X64500000Y-64105000D03*
%TD*%
D11*
%TO.C,C2*%
X93500000Y-63080000D03*
X93500000Y-62120000D03*
%TD*%
%TO.C,C12*%
X76500000Y-41080000D03*
X76500000Y-40120000D03*
%TD*%
%TO.C,C1*%
X62500000Y-19080000D03*
X62500000Y-18120000D03*
%TD*%
D10*
%TO.C,R5*%
X66500000Y-65297500D03*
X66500000Y-64102500D03*
%TD*%
%TO.C,R3*%
X96500000Y-87300000D03*
X96500000Y-86105000D03*
%TD*%
D11*
%TO.C,C7*%
X71500000Y-74080000D03*
X71500000Y-73120000D03*
%TD*%
%TO.C,C10*%
X74500000Y-74080000D03*
X74500000Y-73120000D03*
%TD*%
%TO.C,C12*%
X44500000Y-63080000D03*
X44500000Y-62120000D03*
%TD*%
%TO.C,C3*%
X64500000Y-52082500D03*
X64500000Y-51122500D03*
%TD*%
D10*
%TO.C,R5*%
X34500000Y-32297500D03*
X34500000Y-31102500D03*
%TD*%
%TO.C,R7*%
X39500000Y-76297500D03*
X39500000Y-75102500D03*
%TD*%
%TO.C,R4*%
X95500000Y-87297500D03*
X95500000Y-86102500D03*
%TD*%
D11*
%TO.C,C10*%
X10500000Y-74080000D03*
X10500000Y-73120000D03*
%TD*%
D10*
%TO.C,R10*%
X42500000Y-65297500D03*
X42500000Y-64102500D03*
%TD*%
%TO.C,R8*%
X72500000Y-21297500D03*
X72500000Y-20102500D03*
%TD*%
D11*
%TO.C,C11*%
X11500000Y-85080000D03*
X11500000Y-84120000D03*
%TD*%
%TO.C,C3*%
X96500000Y-52082500D03*
X96500000Y-51122500D03*
%TD*%
D10*
%TO.C,R5*%
X66500000Y-32297500D03*
X66500000Y-31102500D03*
%TD*%
D11*
%TO.C,C2*%
X29500000Y-19080000D03*
X29500000Y-18120000D03*
%TD*%
D10*
%TO.C,R9*%
X9500000Y-65297500D03*
X9500000Y-64102500D03*
%TD*%
D11*
%TO.C,C4*%
X63500000Y-41080000D03*
X63500000Y-40120000D03*
%TD*%
D10*
%TO.C,R8*%
X8500000Y-65297500D03*
X8500000Y-64102500D03*
%TD*%
%TO.C,R9*%
X41500000Y-10297500D03*
X41500000Y-9102500D03*
%TD*%
%TO.C,R2*%
X93500000Y-32297500D03*
X93500000Y-31102500D03*
%TD*%
%TO.C,R4*%
X31500000Y-65297500D03*
X31500000Y-64102500D03*
%TD*%
%TO.C,R5*%
X66500000Y-76297500D03*
X66500000Y-75102500D03*
%TD*%
%TO.C,R11*%
X43500000Y-54297500D03*
X43500000Y-53102500D03*
%TD*%
D11*
%TO.C,C1*%
X62500000Y-85080000D03*
X62500000Y-84120000D03*
%TD*%
%TO.C,C3*%
X32500000Y-85082500D03*
X32500000Y-84122500D03*
%TD*%
%TO.C,C4*%
X63500000Y-85080000D03*
X63500000Y-84120000D03*
%TD*%
D10*
%TO.C,R2*%
X29500000Y-10297500D03*
X29500000Y-9102500D03*
%TD*%
D11*
%TO.C,C9*%
X73500000Y-19080000D03*
X73500000Y-18120000D03*
%TD*%
D10*
%TO.C,R4*%
X31500000Y-54297500D03*
X31500000Y-53102500D03*
%TD*%
%TO.C,R11*%
X11500000Y-32297500D03*
X11500000Y-31102500D03*
%TD*%
D11*
%TO.C,C6*%
X97500000Y-8080000D03*
X97500000Y-7120000D03*
%TD*%
D10*
%TO.C,R1*%
X30500000Y-54297500D03*
X30500000Y-53102500D03*
%TD*%
D11*
%TO.C,C7*%
X39500000Y-8080000D03*
X39500000Y-7120000D03*
%TD*%
%TO.C,C4*%
X95500000Y-74080000D03*
X95500000Y-73120000D03*
%TD*%
D10*
%TO.C,R4*%
X95500000Y-76297500D03*
X95500000Y-75102500D03*
%TD*%
D11*
%TO.C,C8*%
X72500000Y-8080000D03*
X72500000Y-7120000D03*
%TD*%
D10*
%TO.C,R3*%
X32500000Y-54300000D03*
X32500000Y-53105000D03*
%TD*%
D11*
%TO.C,C4*%
X95500000Y-30080000D03*
X95500000Y-29120000D03*
%TD*%
D10*
%TO.C,R4*%
X31500000Y-21297500D03*
X31500000Y-20102500D03*
%TD*%
D11*
%TO.C,C6*%
X97500000Y-63080000D03*
X97500000Y-62120000D03*
%TD*%
D10*
%TO.C,R9*%
X9500000Y-32297500D03*
X9500000Y-31102500D03*
%TD*%
%TO.C,R6*%
X65500000Y-65297500D03*
X65500000Y-64102500D03*
%TD*%
%TO.C,R3*%
X96500000Y-76300000D03*
X96500000Y-75105000D03*
%TD*%
%TO.C,R1*%
X62500000Y-76297500D03*
X62500000Y-75102500D03*
%TD*%
%TO.C,R5*%
X98500000Y-65297500D03*
X98500000Y-64102500D03*
%TD*%
D11*
%TO.C,C12*%
X44500000Y-74080000D03*
X44500000Y-73120000D03*
%TD*%
D10*
%TO.C,R2*%
X61500000Y-43297500D03*
X61500000Y-42102500D03*
%TD*%
%TO.C,R10*%
X10500000Y-21297500D03*
X10500000Y-20102500D03*
%TD*%
D11*
%TO.C,C12*%
X76500000Y-30080000D03*
X76500000Y-29120000D03*
%TD*%
D10*
%TO.C,R10*%
X74500000Y-76297500D03*
X74500000Y-75102500D03*
%TD*%
D11*
%TO.C,C4*%
X63500000Y-63080000D03*
X63500000Y-62120000D03*
%TD*%
D10*
%TO.C,R3*%
X32500000Y-32300000D03*
X32500000Y-31105000D03*
%TD*%
%TO.C,R11*%
X43500000Y-10297500D03*
X43500000Y-9102500D03*
%TD*%
D11*
%TO.C,C2*%
X61500000Y-74080000D03*
X61500000Y-73120000D03*
%TD*%
D10*
%TO.C,R8*%
X40500000Y-32297500D03*
X40500000Y-31102500D03*
%TD*%
%TO.C,R2*%
X93500000Y-65297500D03*
X93500000Y-64102500D03*
%TD*%
%TO.C,R6*%
X97500000Y-76297500D03*
X97500000Y-75102500D03*
%TD*%
%TO.C,R5*%
X34500000Y-76297500D03*
X34500000Y-75102500D03*
%TD*%
%TO.C,R12*%
X44500000Y-65297500D03*
X44500000Y-64102500D03*
%TD*%
%TO.C,R10*%
X10500000Y-10297500D03*
X10500000Y-9102500D03*
%TD*%
%TO.C,R4*%
X63500000Y-54297500D03*
X63500000Y-53102500D03*
%TD*%
D11*
%TO.C,C9*%
X9500000Y-52080000D03*
X9500000Y-51120000D03*
%TD*%
D10*
%TO.C,R6*%
X65500000Y-43297500D03*
X65500000Y-42102500D03*
%TD*%
%TO.C,R12*%
X12500000Y-87297500D03*
X12500000Y-86102500D03*
%TD*%
D11*
%TO.C,C10*%
X74500000Y-30080000D03*
X74500000Y-29120000D03*
%TD*%
%TO.C,C10*%
X74500000Y-63080000D03*
X74500000Y-62120000D03*
%TD*%
%TO.C,C9*%
X9500000Y-85080000D03*
X9500000Y-84120000D03*
%TD*%
%TO.C,C9*%
X41500000Y-74080000D03*
X41500000Y-73120000D03*
%TD*%
D10*
%TO.C,R9*%
X41500000Y-87297500D03*
X41500000Y-86102500D03*
%TD*%
D11*
%TO.C,C3*%
X96500000Y-8082500D03*
X96500000Y-7122500D03*
%TD*%
%TO.C,C6*%
X33500000Y-41080000D03*
X33500000Y-40120000D03*
%TD*%
%TO.C,C6*%
X33500000Y-19080000D03*
X33500000Y-18120000D03*
%TD*%
D10*
%TO.C,R2*%
X61500000Y-21297500D03*
X61500000Y-20102500D03*
%TD*%
D11*
%TO.C,C9*%
X9500000Y-8080000D03*
X9500000Y-7120000D03*
%TD*%
%TO.C,C11*%
X75500000Y-41080000D03*
X75500000Y-40120000D03*
%TD*%
D10*
%TO.C,R3*%
X32500000Y-10300000D03*
X32500000Y-9105000D03*
%TD*%
%TO.C,R2*%
X61500000Y-32297500D03*
X61500000Y-31102500D03*
%TD*%
%TO.C,R1*%
X62500000Y-87297500D03*
X62500000Y-86102500D03*
%TD*%
D11*
%TO.C,C1*%
X94500000Y-74080000D03*
X94500000Y-73120000D03*
%TD*%
%TO.C,C6*%
X97500000Y-52080000D03*
X97500000Y-51120000D03*
%TD*%
D10*
%TO.C,R8*%
X40500000Y-54297500D03*
X40500000Y-53102500D03*
%TD*%
D11*
%TO.C,C5*%
X66500000Y-74080000D03*
X66500000Y-73120000D03*
%TD*%
D10*
%TO.C,R11*%
X11500000Y-43297500D03*
X11500000Y-42102500D03*
%TD*%
D11*
%TO.C,C12*%
X12500000Y-52080000D03*
X12500000Y-51120000D03*
%TD*%
%TO.C,C12*%
X44500000Y-19080000D03*
X44500000Y-18120000D03*
%TD*%
D10*
%TO.C,R11*%
X43500000Y-65297500D03*
X43500000Y-64102500D03*
%TD*%
D11*
%TO.C,C1*%
X30500000Y-74080000D03*
X30500000Y-73120000D03*
%TD*%
%TO.C,C5*%
X98500000Y-8080000D03*
X98500000Y-7120000D03*
%TD*%
D10*
%TO.C,R9*%
X73500000Y-87297500D03*
X73500000Y-86102500D03*
%TD*%
%TO.C,R10*%
X74500000Y-21297500D03*
X74500000Y-20102500D03*
%TD*%
%TO.C,R7*%
X71500000Y-76297500D03*
X71500000Y-75102500D03*
%TD*%
D11*
%TO.C,C8*%
X40500000Y-52080000D03*
X40500000Y-51120000D03*
%TD*%
%TO.C,C3*%
X96500000Y-74082500D03*
X96500000Y-73122500D03*
%TD*%
%TO.C,C3*%
X32500000Y-63082500D03*
X32500000Y-62122500D03*
%TD*%
D10*
%TO.C,R4*%
X31500000Y-87297500D03*
X31500000Y-86102500D03*
%TD*%
D11*
%TO.C,C5*%
X98500000Y-41080000D03*
X98500000Y-40120000D03*
%TD*%
D10*
%TO.C,R2*%
X93500000Y-76297500D03*
X93500000Y-75102500D03*
%TD*%
D11*
%TO.C,C2*%
X61500000Y-30080000D03*
X61500000Y-29120000D03*
%TD*%
D10*
%TO.C,R10*%
X42500000Y-10297500D03*
X42500000Y-9102500D03*
%TD*%
D11*
%TO.C,C8*%
X72500000Y-30080000D03*
X72500000Y-29120000D03*
%TD*%
D10*
%TO.C,R8*%
X8500000Y-54297500D03*
X8500000Y-53102500D03*
%TD*%
D11*
%TO.C,C5*%
X66500000Y-8080000D03*
X66500000Y-7120000D03*
%TD*%
%TO.C,C8*%
X8500000Y-41080000D03*
X8500000Y-40120000D03*
%TD*%
%TO.C,C8*%
X40500000Y-30080000D03*
X40500000Y-29120000D03*
%TD*%
%TO.C,C4*%
X95500000Y-19080000D03*
X95500000Y-18120000D03*
%TD*%
%TO.C,C1*%
X30500000Y-63080000D03*
X30500000Y-62120000D03*
%TD*%
D10*
%TO.C,R4*%
X63500000Y-76297500D03*
X63500000Y-75102500D03*
%TD*%
%TO.C,R5*%
X34500000Y-43297500D03*
X34500000Y-42102500D03*
%TD*%
%TO.C,R10*%
X42500000Y-32297500D03*
X42500000Y-31102500D03*
%TD*%
D11*
%TO.C,C8*%
X40500000Y-74080000D03*
X40500000Y-73120000D03*
%TD*%
%TO.C,C2*%
X93500000Y-30080000D03*
X93500000Y-29120000D03*
%TD*%
D10*
%TO.C,R1*%
X94500000Y-43297500D03*
X94500000Y-42102500D03*
%TD*%
%TO.C,R9*%
X73500000Y-21297500D03*
X73500000Y-20102500D03*
%TD*%
D11*
%TO.C,C10*%
X10500000Y-63080000D03*
X10500000Y-62120000D03*
%TD*%
%TO.C,C3*%
X96500000Y-85082500D03*
X96500000Y-84122500D03*
%TD*%
%TO.C,C2*%
X93500000Y-74080000D03*
X93500000Y-73120000D03*
%TD*%
D10*
%TO.C,R1*%
X94500000Y-65297500D03*
X94500000Y-64102500D03*
%TD*%
D11*
%TO.C,C7*%
X71500000Y-19080000D03*
X71500000Y-18120000D03*
%TD*%
%TO.C,C7*%
X7500000Y-52080000D03*
X7500000Y-51120000D03*
%TD*%
%TO.C,C7*%
X39500000Y-74080000D03*
X39500000Y-73120000D03*
%TD*%
D10*
%TO.C,R7*%
X7500000Y-32297500D03*
X7500000Y-31102500D03*
%TD*%
%TO.C,R3*%
X64500000Y-21300000D03*
X64500000Y-20105000D03*
%TD*%
D11*
%TO.C,C4*%
X63500000Y-8080000D03*
X63500000Y-7120000D03*
%TD*%
%TO.C,C3*%
X96500000Y-63082500D03*
X96500000Y-62122500D03*
%TD*%
%TO.C,C2*%
X61500000Y-8080000D03*
X61500000Y-7120000D03*
%TD*%
D10*
%TO.C,R8*%
X40500000Y-76297500D03*
X40500000Y-75102500D03*
%TD*%
%TO.C,R9*%
X9500000Y-54297500D03*
X9500000Y-53102500D03*
%TD*%
D11*
%TO.C,C3*%
X64500000Y-63082500D03*
X64500000Y-62122500D03*
%TD*%
D10*
%TO.C,R4*%
X63500000Y-21297500D03*
X63500000Y-20102500D03*
%TD*%
%TO.C,R3*%
X96500000Y-32300000D03*
X96500000Y-31105000D03*
%TD*%
D11*
%TO.C,C9*%
X73500000Y-74080000D03*
X73500000Y-73120000D03*
%TD*%
D10*
%TO.C,R9*%
X41500000Y-65297500D03*
X41500000Y-64102500D03*
%TD*%
D11*
%TO.C,C2*%
X61500000Y-63080000D03*
X61500000Y-62120000D03*
%TD*%
D10*
%TO.C,R4*%
X63500000Y-43297500D03*
X63500000Y-42102500D03*
%TD*%
%TO.C,R4*%
X31500000Y-76297500D03*
X31500000Y-75102500D03*
%TD*%
D11*
%TO.C,C4*%
X95500000Y-52080000D03*
X95500000Y-51120000D03*
%TD*%
D10*
%TO.C,R9*%
X9500000Y-87297500D03*
X9500000Y-86102500D03*
%TD*%
D11*
%TO.C,C8*%
X8500000Y-30080000D03*
X8500000Y-29120000D03*
%TD*%
%TO.C,C4*%
X95500000Y-41080000D03*
X95500000Y-40120000D03*
%TD*%
D10*
%TO.C,R7*%
X7500000Y-87297500D03*
X7500000Y-86102500D03*
%TD*%
%TO.C,R10*%
X74500000Y-43297500D03*
X74500000Y-42102500D03*
%TD*%
D11*
%TO.C,C2*%
X93500000Y-41080000D03*
X93500000Y-40120000D03*
%TD*%
%TO.C,C2*%
X93500000Y-19080000D03*
X93500000Y-18120000D03*
%TD*%
D10*
%TO.C,R3*%
X96500000Y-10300000D03*
X96500000Y-9105000D03*
%TD*%
%TO.C,R1*%
X62500000Y-10297500D03*
X62500000Y-9102500D03*
%TD*%
%TO.C,R12*%
X76500000Y-10297500D03*
X76500000Y-9102500D03*
%TD*%
%TO.C,R5*%
X66500000Y-10297500D03*
X66500000Y-9102500D03*
%TD*%
%TO.C,R6*%
X33500000Y-65297500D03*
X33500000Y-64102500D03*
%TD*%
D11*
%TO.C,C7*%
X39500000Y-52080000D03*
X39500000Y-51120000D03*
%TD*%
D10*
%TO.C,R2*%
X61500000Y-10297500D03*
X61500000Y-9102500D03*
%TD*%
%TO.C,R2*%
X29500000Y-76297500D03*
X29500000Y-75102500D03*
%TD*%
D11*
%TO.C,C11*%
X11500000Y-41080000D03*
X11500000Y-40120000D03*
%TD*%
%TO.C,C6*%
X33500000Y-8080000D03*
X33500000Y-7120000D03*
%TD*%
D10*
%TO.C,R9*%
X9500000Y-10297500D03*
X9500000Y-9102500D03*
%TD*%
D11*
%TO.C,C6*%
X33500000Y-74080000D03*
X33500000Y-73120000D03*
%TD*%
D10*
%TO.C,R4*%
X63500000Y-65297500D03*
X63500000Y-64102500D03*
%TD*%
%TO.C,R3*%
X64500000Y-32300000D03*
X64500000Y-31105000D03*
%TD*%
%TO.C,R7*%
X71500000Y-43297500D03*
X71500000Y-42102500D03*
%TD*%
D11*
%TO.C,C11*%
X43500000Y-19080000D03*
X43500000Y-18120000D03*
%TD*%
D10*
%TO.C,R11*%
X43500000Y-32297500D03*
X43500000Y-31102500D03*
%TD*%
%TO.C,R6*%
X33500000Y-54297500D03*
X33500000Y-53102500D03*
%TD*%
%TO.C,R12*%
X12500000Y-54297500D03*
X12500000Y-53102500D03*
%TD*%
D11*
%TO.C,C11*%
X75500000Y-8080000D03*
X75500000Y-7120000D03*
%TD*%
%TO.C,C5*%
X34500000Y-30080000D03*
X34500000Y-29120000D03*
%TD*%
D10*
%TO.C,R8*%
X40500000Y-43297500D03*
X40500000Y-42102500D03*
%TD*%
D11*
%TO.C,C12*%
X12500000Y-74080000D03*
X12500000Y-73120000D03*
%TD*%
D10*
%TO.C,R6*%
X65500000Y-21297500D03*
X65500000Y-20102500D03*
%TD*%
D11*
%TO.C,C4*%
X31500000Y-30080000D03*
X31500000Y-29120000D03*
%TD*%
D10*
%TO.C,R11*%
X11500000Y-87297500D03*
X11500000Y-86102500D03*
%TD*%
D11*
%TO.C,C5*%
X34500000Y-19080000D03*
X34500000Y-18120000D03*
%TD*%
%TO.C,C5*%
X34500000Y-63080000D03*
X34500000Y-62120000D03*
%TD*%
D10*
%TO.C,R10*%
X10500000Y-54297500D03*
X10500000Y-53102500D03*
%TD*%
%TO.C,R8*%
X8500000Y-43297500D03*
X8500000Y-42102500D03*
%TD*%
D11*
%TO.C,C5*%
X98500000Y-74080000D03*
X98500000Y-73120000D03*
%TD*%
D10*
%TO.C,R1*%
X30500000Y-76297500D03*
X30500000Y-75102500D03*
%TD*%
%TO.C,R7*%
X39500000Y-43297500D03*
X39500000Y-42102500D03*
%TD*%
%TO.C,R7*%
X7500000Y-10297500D03*
X7500000Y-9102500D03*
%TD*%
%TO.C,R10*%
X10500000Y-65297500D03*
X10500000Y-64102500D03*
%TD*%
%TO.C,R3*%
X32500000Y-87300000D03*
X32500000Y-86105000D03*
%TD*%
D11*
%TO.C,C4*%
X63500000Y-74080000D03*
X63500000Y-73120000D03*
%TD*%
D10*
%TO.C,R10*%
X42500000Y-76297500D03*
X42500000Y-75102500D03*
%TD*%
%TO.C,R1*%
X30500000Y-32297500D03*
X30500000Y-31102500D03*
%TD*%
%TO.C,R7*%
X71500000Y-10297500D03*
X71500000Y-9102500D03*
%TD*%
%TO.C,R12*%
X76500000Y-43297500D03*
X76500000Y-42102500D03*
%TD*%
%TO.C,R4*%
X31500000Y-32297500D03*
X31500000Y-31102500D03*
%TD*%
%TO.C,R12*%
X76500000Y-76297500D03*
X76500000Y-75102500D03*
%TD*%
%TO.C,R7*%
X39500000Y-54297500D03*
X39500000Y-53102500D03*
%TD*%
%TO.C,R6*%
X33500000Y-43297500D03*
X33500000Y-42102500D03*
%TD*%
%TO.C,R4*%
X95500000Y-21297500D03*
X95500000Y-20102500D03*
%TD*%
%TO.C,R3*%
X32500000Y-65300000D03*
X32500000Y-64105000D03*
%TD*%
%TO.C,R8*%
X72500000Y-43297500D03*
X72500000Y-42102500D03*
%TD*%
D11*
%TO.C,C1*%
X62500000Y-52080000D03*
X62500000Y-51120000D03*
%TD*%
%TO.C,C5*%
X34500000Y-85080000D03*
X34500000Y-84120000D03*
%TD*%
D10*
%TO.C,R5*%
X34500000Y-54297500D03*
X34500000Y-53102500D03*
%TD*%
%TO.C,R12*%
X44500000Y-76297500D03*
X44500000Y-75102500D03*
%TD*%
%TO.C,R8*%
X72500000Y-65297500D03*
X72500000Y-64102500D03*
%TD*%
D11*
%TO.C,C10*%
X74500000Y-52080000D03*
X74500000Y-51120000D03*
%TD*%
D10*
%TO.C,R12*%
X12500000Y-65297500D03*
X12500000Y-64102500D03*
%TD*%
D11*
%TO.C,C1*%
X94500000Y-8080000D03*
X94500000Y-7120000D03*
%TD*%
D10*
%TO.C,R11*%
X11500000Y-21297500D03*
X11500000Y-20102500D03*
%TD*%
D11*
%TO.C,C6*%
X97500000Y-85080000D03*
X97500000Y-84120000D03*
%TD*%
%TO.C,C8*%
X40500000Y-19080000D03*
X40500000Y-18120000D03*
%TD*%
%TO.C,C10*%
X74500000Y-8080000D03*
X74500000Y-7120000D03*
%TD*%
D10*
%TO.C,R10*%
X42500000Y-87297500D03*
X42500000Y-86102500D03*
%TD*%
M02*
