%TF.GenerationSoftware,KiCad,Pcbnew,8.0.4-unknown-202407232306~396e531e7c~ubuntu22.04.1*%
%TF.CreationDate,2024-08-17T16:34:09+01:00*%
%TF.ProjectId,PANEL_DRY_ELEC_6CH_THIN,50414e45-4c5f-4445-9259-5f454c45435f,1.0*%
%TF.SameCoordinates,Original*%
%TF.FileFunction,Soldermask,Top*%
%TF.FilePolarity,Negative*%
%FSLAX46Y46*%
G04 Gerber Fmt 4.6, Leading zero omitted, Abs format (unit mm)*
G04 Created by KiCad (PCBNEW 8.0.4-unknown-202407232306~396e531e7c~ubuntu22.04.1) date 2024-08-17 16:34:09*
%MOMM*%
%LPD*%
G01*
G04 APERTURE LIST*
G04 Aperture macros list*
%AMRoundRect*
0 Rectangle with rounded corners*
0 $1 Rounding radius*
0 $2 $3 $4 $5 $6 $7 $8 $9 X,Y pos of 4 corners*
0 Add a 4 corners polygon primitive as box body*
4,1,4,$2,$3,$4,$5,$6,$7,$8,$9,$2,$3,0*
0 Add four circle primitives for the rounded corners*
1,1,$1+$1,$2,$3*
1,1,$1+$1,$4,$5*
1,1,$1+$1,$6,$7*
1,1,$1+$1,$8,$9*
0 Add four rect primitives between the rounded corners*
20,1,$1+$1,$2,$3,$4,$5,0*
20,1,$1+$1,$4,$5,$6,$7,0*
20,1,$1+$1,$6,$7,$8,$9,0*
20,1,$1+$1,$8,$9,$2,$3,0*%
%AMFreePoly0*
4,1,19,0.500000,-0.750000,0.000000,-0.750000,0.000000,-0.744911,-0.071157,-0.744911,-0.207708,-0.704816,-0.327430,-0.627875,-0.420627,-0.520320,-0.479746,-0.390866,-0.500000,-0.250000,-0.500000,0.250000,-0.479746,0.390866,-0.420627,0.520320,-0.327430,0.627875,-0.207708,0.704816,-0.071157,0.744911,0.000000,0.744911,0.000000,0.750000,0.500000,0.750000,0.500000,-0.750000,0.500000,-0.750000,
$1*%
%AMFreePoly1*
4,1,19,0.000000,0.744911,0.071157,0.744911,0.207708,0.704816,0.327430,0.627875,0.420627,0.520320,0.479746,0.390866,0.500000,0.250000,0.500000,-0.250000,0.479746,-0.390866,0.420627,-0.520320,0.327430,-0.627875,0.207708,-0.704816,0.071157,-0.744911,0.000000,-0.744911,0.000000,-0.750000,-0.500000,-0.750000,-0.500000,0.750000,0.000000,0.750000,0.000000,0.744911,0.000000,0.744911,
$1*%
%AMFreePoly2*
4,1,13,0.345671,0.480970,0.426777,0.426777,0.480970,0.345671,0.500000,0.250000,0.500000,-0.900000,-0.500000,-0.900000,-0.500000,0.250000,-0.480970,0.345671,-0.426777,0.426777,-0.345671,0.480970,-0.250000,0.500000,0.250000,0.500000,0.345671,0.480970,0.345671,0.480970,$1*%
G04 Aperture macros list end*
%ADD10RoundRect,0.160000X0.160000X-0.197500X0.160000X0.197500X-0.160000X0.197500X-0.160000X-0.197500X0*%
%ADD11C,1.800000*%
%ADD12FreePoly0,180.000000*%
%ADD13FreePoly1,180.000000*%
%ADD14C,0.500000*%
%ADD15FreePoly0,0.000000*%
%ADD16FreePoly1,0.000000*%
%ADD17FreePoly2,180.000000*%
%ADD18RoundRect,0.140000X0.170000X-0.140000X0.170000X0.140000X-0.170000X0.140000X-0.170000X-0.140000X0*%
%ADD19FreePoly2,0.000000*%
%ADD20FreePoly0,90.000000*%
%ADD21FreePoly1,90.000000*%
%ADD22C,2.000000*%
G04 APERTURE END LIST*
D10*
%TO.C,R12*%
X12500000Y-32297500D03*
X12500000Y-31102500D03*
%TD*%
%TO.C,R5*%
X98500000Y-87297500D03*
X98500000Y-86102500D03*
%TD*%
D11*
%TO.C,J20*%
X8300000Y-23500000D03*
%TD*%
D12*
%TO.C,JP3*%
X64849999Y-13600000D03*
D13*
X63550001Y-13600000D03*
%TD*%
D14*
%TO.C,KiKit_MB_20_2*%
X54666667Y-26299999D03*
%TD*%
D15*
%TO.C,JP5*%
X46150001Y-24600000D03*
D16*
X47449999Y-24600000D03*
%TD*%
D14*
%TO.C,KiKit_MB_32_1*%
X55500000Y-37299999D03*
%TD*%
D11*
%TO.C,J22*%
X82460000Y-12500000D03*
%TD*%
D14*
%TO.C,KiKit_MB_9_6*%
X69700000Y-8833333D03*
%TD*%
D17*
%TO.C,J10*%
X81825001Y-75700000D03*
%TD*%
D18*
%TO.C,C11*%
X75500000Y-63080000D03*
X75500000Y-62120000D03*
%TD*%
D14*
%TO.C,KiKit_MB_6_7*%
X68300000Y-12999999D03*
%TD*%
D17*
%TO.C,J11*%
X83095001Y-20700000D03*
%TD*%
D14*
%TO.C,KiKit_MB_57_4*%
X69700000Y-54499999D03*
%TD*%
D19*
%TO.C,J4*%
X20365001Y-62300000D03*
%TD*%
D14*
%TO.C,KiKit_MB_34_6*%
X100300000Y-34166666D03*
%TD*%
%TO.C,KiKit_MB_102_2*%
X800000Y-91999999D03*
%TD*%
%TO.C,KiKit_MB_25_4*%
X5700000Y-32499999D03*
%TD*%
D11*
%TO.C,J19*%
X97700000Y-67500000D03*
%TD*%
D14*
%TO.C,KiKit_MB_44_7*%
X50500000Y-48299999D03*
%TD*%
D17*
%TO.C,J9*%
X16555001Y-42765000D03*
%TD*%
D19*
%TO.C,J8*%
X57445001Y-7365000D03*
%TD*%
D10*
%TO.C,R12*%
X76500000Y-65297500D03*
X76500000Y-64102500D03*
%TD*%
D14*
%TO.C,KiKit_MB_79_5*%
X53833333Y-71699999D03*
%TD*%
D17*
%TO.C,J9*%
X48555001Y-53765000D03*
%TD*%
D14*
%TO.C,KiKit_MB_70_2*%
X100300000Y-63833332D03*
%TD*%
%TO.C,KiKit_MB_6_1*%
X68300000Y-8000000D03*
%TD*%
%TO.C,KiKit_MB_44_5*%
X52166667Y-48299999D03*
%TD*%
D18*
%TO.C,C12*%
X76500000Y-85080000D03*
X76500000Y-84120000D03*
%TD*%
D10*
%TO.C,R9*%
X73500000Y-32297500D03*
X73500000Y-31102500D03*
%TD*%
D19*
%TO.C,J8*%
X89445001Y-84365000D03*
%TD*%
D10*
%TO.C,R8*%
X40500000Y-21297500D03*
X40500000Y-20102500D03*
%TD*%
D14*
%TO.C,KiKit_MB_27_7*%
X23500000Y-27699999D03*
%TD*%
D18*
%TO.C,C5*%
X98500000Y-30080000D03*
X98500000Y-29120000D03*
%TD*%
D17*
%TO.C,J16*%
X25445001Y-53765000D03*
%TD*%
D15*
%TO.C,JP5*%
X78150001Y-46600000D03*
D16*
X79449999Y-46600000D03*
%TD*%
D12*
%TO.C,JP2*%
X59849999Y-24600000D03*
D13*
X58550001Y-24600000D03*
%TD*%
D14*
%TO.C,KiKit_MB_86_7*%
X36300000Y-89999999D03*
%TD*%
D10*
%TO.C,R6*%
X33500000Y-10297500D03*
X33500000Y-9102500D03*
%TD*%
D19*
%TO.C,J2*%
X81825001Y-51300000D03*
%TD*%
D14*
%TO.C,KiKit_MB_15_7*%
X23500000Y-16699999D03*
%TD*%
%TO.C,KiKit_MB_103_2*%
X102800001Y-6000000D03*
%TD*%
D11*
%TO.C,J22*%
X18460000Y-12500000D03*
%TD*%
D18*
%TO.C,C1*%
X94500000Y-41080000D03*
X94500000Y-40120000D03*
%TD*%
D14*
%TO.C,KiKit_MB_20_7*%
X50500000Y-26299999D03*
%TD*%
D18*
%TO.C,C6*%
X65500000Y-63080000D03*
X65500000Y-62120000D03*
%TD*%
D14*
%TO.C,KiKit_MB_33_4*%
X69700000Y-32499999D03*
%TD*%
%TO.C,KiKit_MB_67_6*%
X54666667Y-60699999D03*
%TD*%
%TO.C,KiKit_MB_39_6*%
X22666667Y-38699999D03*
%TD*%
D12*
%TO.C,JP3*%
X64849999Y-24600000D03*
D13*
X63550001Y-24600000D03*
%TD*%
D17*
%TO.C,J16*%
X89445001Y-42765000D03*
%TD*%
D10*
%TO.C,R5*%
X66500000Y-21297500D03*
X66500000Y-20102500D03*
%TD*%
D12*
%TO.C,JP2*%
X91849999Y-46600000D03*
D13*
X90550001Y-46600000D03*
%TD*%
D20*
%TO.C,JP1*%
X89100000Y-89449999D03*
D21*
X89100000Y-88150001D03*
%TD*%
D10*
%TO.C,R7*%
X71500000Y-65297500D03*
X71500000Y-64102500D03*
%TD*%
D14*
%TO.C,KiKit_MB_14_1*%
X36300000Y-18999999D03*
%TD*%
D17*
%TO.C,J15*%
X56175001Y-31700000D03*
%TD*%
D20*
%TO.C,JP6*%
X48800000Y-45449999D03*
D21*
X48800000Y-44150001D03*
%TD*%
D17*
%TO.C,J16*%
X89445001Y-31765000D03*
%TD*%
D11*
%TO.C,J21*%
X13380000Y-56500000D03*
%TD*%
D14*
%TO.C,KiKit_MB_60_6*%
X83333333Y-59299999D03*
%TD*%
D18*
%TO.C,C5*%
X98500000Y-63080000D03*
X98500000Y-62120000D03*
%TD*%
D10*
%TO.C,R8*%
X8500000Y-10297500D03*
X8500000Y-9102500D03*
%TD*%
D11*
%TO.C,J18*%
X28620000Y-89500000D03*
%TD*%
%TO.C,J17*%
X23540000Y-67500000D03*
%TD*%
D18*
%TO.C,C1*%
X30500000Y-30080000D03*
X30500000Y-29120000D03*
%TD*%
D11*
%TO.C,J20*%
X72300000Y-34500000D03*
%TD*%
%TO.C,J17*%
X87540000Y-34500000D03*
%TD*%
D17*
%TO.C,J9*%
X48555001Y-31765000D03*
%TD*%
D10*
%TO.C,R2*%
X61500000Y-87297500D03*
X61500000Y-86102500D03*
%TD*%
D14*
%TO.C,KiKit_MB_27_6*%
X22666667Y-27699999D03*
%TD*%
%TO.C,KiKit_MB_59_6*%
X86666667Y-49699999D03*
%TD*%
%TO.C,KiKit_MB_50_5*%
X36300000Y-55333332D03*
%TD*%
D17*
%TO.C,J12*%
X20365001Y-20700000D03*
%TD*%
D18*
%TO.C,C11*%
X43500000Y-85080000D03*
X43500000Y-84120000D03*
%TD*%
D17*
%TO.C,J9*%
X80555001Y-64765000D03*
%TD*%
D14*
%TO.C,KiKit_MB_71_1*%
X82500000Y-60699999D03*
%TD*%
D19*
%TO.C,J7*%
X88175001Y-84300000D03*
%TD*%
D18*
%TO.C,C11*%
X75500000Y-52080000D03*
X75500000Y-51120000D03*
%TD*%
D17*
%TO.C,J11*%
X83095001Y-86700000D03*
%TD*%
D10*
%TO.C,R12*%
X44500000Y-54297500D03*
X44500000Y-53102500D03*
%TD*%
%TO.C,R12*%
X12500000Y-10297500D03*
X12500000Y-9102500D03*
%TD*%
D14*
%TO.C,KiKit_MB_14_7*%
X36300000Y-23999999D03*
%TD*%
%TO.C,KiKit_MB_33_1*%
X69700000Y-34999999D03*
%TD*%
%TO.C,KiKit_MB_59_5*%
X85833333Y-49699999D03*
%TD*%
D11*
%TO.C,J20*%
X8300000Y-34500000D03*
%TD*%
D19*
%TO.C,J1*%
X80555001Y-40365000D03*
%TD*%
D18*
%TO.C,C6*%
X65500000Y-8080000D03*
X65500000Y-7120000D03*
%TD*%
D14*
%TO.C,KiKit_MB_74_3*%
X36300000Y-75666666D03*
%TD*%
D17*
%TO.C,J11*%
X83095001Y-64700000D03*
%TD*%
D11*
%TO.C,J19*%
X97700000Y-56500000D03*
%TD*%
D14*
%TO.C,KiKit_MB_17_1*%
X37700000Y-23999999D03*
%TD*%
D17*
%TO.C,J10*%
X17825001Y-75700000D03*
%TD*%
D11*
%TO.C,J22*%
X50460000Y-12500000D03*
%TD*%
D14*
%TO.C,KiKit_MB_41_5*%
X37700000Y-42666666D03*
%TD*%
D17*
%TO.C,J16*%
X25445001Y-20765000D03*
%TD*%
D18*
%TO.C,C10*%
X74500000Y-41080000D03*
X74500000Y-40120000D03*
%TD*%
D11*
%TO.C,J22*%
X18460000Y-67500000D03*
%TD*%
D17*
%TO.C,J16*%
X25445001Y-75765000D03*
%TD*%
D18*
%TO.C,C3*%
X32500000Y-19082500D03*
X32500000Y-18122500D03*
%TD*%
D17*
%TO.C,J11*%
X19095001Y-9700000D03*
%TD*%
D14*
%TO.C,KiKit_MB_93_7*%
X69700000Y-84999999D03*
%TD*%
%TO.C,KiKit_MB_60_5*%
X84166667Y-59299999D03*
%TD*%
%TO.C,KiKit_MB_67_5*%
X53833333Y-60699999D03*
%TD*%
D18*
%TO.C,C12*%
X44500000Y-8080000D03*
X44500000Y-7120000D03*
%TD*%
D19*
%TO.C,J5*%
X53635001Y-84300000D03*
%TD*%
D10*
%TO.C,R6*%
X65500000Y-10297500D03*
X65500000Y-9102500D03*
%TD*%
D14*
%TO.C,KiKit_MB_38_2*%
X36300000Y-41833332D03*
%TD*%
D10*
%TO.C,R1*%
X94500000Y-10297500D03*
X94500000Y-9102500D03*
%TD*%
D17*
%TO.C,J13*%
X21635001Y-64700000D03*
%TD*%
D11*
%TO.C,J17*%
X55540000Y-34500000D03*
%TD*%
D18*
%TO.C,C10*%
X42500000Y-8080000D03*
X42500000Y-7120000D03*
%TD*%
D17*
%TO.C,J13*%
X85635001Y-86700000D03*
%TD*%
D11*
%TO.C,J18*%
X92620000Y-78500000D03*
%TD*%
D12*
%TO.C,JP3*%
X64849999Y-90600000D03*
D13*
X63550001Y-90600000D03*
%TD*%
D17*
%TO.C,J14*%
X86905001Y-64700000D03*
%TD*%
D10*
%TO.C,R10*%
X42500000Y-54297500D03*
X42500000Y-53102500D03*
%TD*%
D18*
%TO.C,C3*%
X64500000Y-30082500D03*
X64500000Y-29122500D03*
%TD*%
D14*
%TO.C,KiKit_MB_82_6*%
X100300000Y-78166666D03*
%TD*%
D11*
%TO.C,J20*%
X40300000Y-34500000D03*
%TD*%
D18*
%TO.C,C6*%
X33500000Y-63080000D03*
X33500000Y-62120000D03*
%TD*%
%TO.C,C6*%
X65500000Y-74080000D03*
X65500000Y-73120000D03*
%TD*%
D14*
%TO.C,KiKit_MB_99_2*%
X6000000Y-94800000D03*
%TD*%
%TO.C,KiKit_MB_40_1*%
X23500000Y-48299999D03*
%TD*%
%TO.C,KiKit_MB_94_2*%
X100300000Y-85833332D03*
%TD*%
%TO.C,KiKit_MB_2_1*%
X36300000Y-8000000D03*
%TD*%
D11*
%TO.C,J19*%
X33700000Y-56500000D03*
%TD*%
D14*
%TO.C,KiKit_MB_47_1*%
X82500000Y-38699999D03*
%TD*%
D12*
%TO.C,JP3*%
X96849999Y-46600000D03*
D13*
X95550001Y-46600000D03*
%TD*%
D14*
%TO.C,KiKit_MB_101_4*%
X2400000Y-6000000D03*
%TD*%
%TO.C,KiKit_MB_98_6*%
X100000001Y-4000000D03*
%TD*%
%TO.C,KiKit_MB_63_1*%
X18500001Y-60699999D03*
%TD*%
%TO.C,KiKit_MB_9_2*%
X69700000Y-12166666D03*
%TD*%
%TO.C,KiKit_MB_36_7*%
X82500000Y-37299999D03*
%TD*%
D17*
%TO.C,J14*%
X86905001Y-20700000D03*
%TD*%
D11*
%TO.C,J18*%
X28620000Y-45500000D03*
%TD*%
%TO.C,J20*%
X72300000Y-67500000D03*
%TD*%
D19*
%TO.C,J8*%
X57445001Y-73365000D03*
%TD*%
D14*
%TO.C,KiKit_MB_92_2*%
X54666667Y-92299999D03*
%TD*%
%TO.C,KiKit_MB_46_4*%
X100300000Y-43499999D03*
%TD*%
%TO.C,KiKit_MB_63_6*%
X22666667Y-60699999D03*
%TD*%
%TO.C,KiKit_MB_68_3*%
X53833333Y-70299999D03*
%TD*%
%TO.C,KiKit_MB_87_7*%
X23500000Y-82699999D03*
%TD*%
D11*
%TO.C,J22*%
X18460000Y-34500000D03*
%TD*%
D18*
%TO.C,C9*%
X73500000Y-41080000D03*
X73500000Y-40120000D03*
%TD*%
D14*
%TO.C,KiKit_MB_77_6*%
X37700000Y-74833332D03*
%TD*%
%TO.C,KiKit_MB_50_6*%
X36300000Y-56166666D03*
%TD*%
%TO.C,KiKit_MB_16_5*%
X20166668Y-26299999D03*
%TD*%
D10*
%TO.C,R3*%
X96500000Y-21300000D03*
X96500000Y-20105000D03*
%TD*%
D14*
%TO.C,KiKit_MB_95_6*%
X86666667Y-82699999D03*
%TD*%
%TO.C,KiKit_MB_64_1*%
X23500000Y-70299999D03*
%TD*%
D17*
%TO.C,J12*%
X84365001Y-53700000D03*
%TD*%
D18*
%TO.C,C8*%
X8500000Y-19080000D03*
X8500000Y-18120000D03*
%TD*%
D10*
%TO.C,R5*%
X34500000Y-87297500D03*
X34500000Y-86102500D03*
%TD*%
%TO.C,R2*%
X61500000Y-76297500D03*
X61500000Y-75102500D03*
%TD*%
D14*
%TO.C,KiKit_MB_81_5*%
X69700000Y-75666666D03*
%TD*%
D17*
%TO.C,J12*%
X20365001Y-42700000D03*
%TD*%
D19*
%TO.C,J4*%
X52365001Y-51300000D03*
%TD*%
D14*
%TO.C,KiKit_MB_33_6*%
X69700000Y-30833332D03*
%TD*%
D18*
%TO.C,C9*%
X41500000Y-19080000D03*
X41500000Y-18120000D03*
%TD*%
D14*
%TO.C,KiKit_MB_37_5*%
X5700000Y-42666666D03*
%TD*%
D10*
%TO.C,R8*%
X72500000Y-32297500D03*
X72500000Y-31102500D03*
%TD*%
D14*
%TO.C,KiKit_MB_56_5*%
X52166667Y-59299999D03*
%TD*%
D19*
%TO.C,J7*%
X24175001Y-40300000D03*
%TD*%
D14*
%TO.C,KiKit_MB_58_2*%
X100300000Y-52833332D03*
%TD*%
D19*
%TO.C,J5*%
X85635001Y-40300000D03*
%TD*%
D18*
%TO.C,C6*%
X33500000Y-52080000D03*
X33500000Y-51120000D03*
%TD*%
D10*
%TO.C,R12*%
X44500000Y-32297500D03*
X44500000Y-31102500D03*
%TD*%
D15*
%TO.C,JP4*%
X73150001Y-46600000D03*
D16*
X74449999Y-46600000D03*
%TD*%
D17*
%TO.C,J10*%
X81825001Y-53700000D03*
%TD*%
D10*
%TO.C,R1*%
X30500000Y-87297500D03*
X30500000Y-86102500D03*
%TD*%
D14*
%TO.C,KiKit_MB_45_5*%
X69700000Y-42666666D03*
%TD*%
%TO.C,KiKit_MB_80_5*%
X52166667Y-81299999D03*
%TD*%
D18*
%TO.C,C12*%
X12500000Y-63080000D03*
X12500000Y-62120000D03*
%TD*%
D14*
%TO.C,KiKit_MB_103_4*%
X104400001Y-6000000D03*
%TD*%
%TO.C,KiKit_MB_51_6*%
X22666667Y-49699999D03*
%TD*%
%TO.C,KiKit_MB_58_3*%
X100300000Y-53666666D03*
%TD*%
D18*
%TO.C,C4*%
X31500000Y-8080000D03*
X31500000Y-7120000D03*
%TD*%
D17*
%TO.C,J16*%
X57445001Y-86765000D03*
%TD*%
D11*
%TO.C,J20*%
X40300000Y-67500000D03*
%TD*%
D15*
%TO.C,JP5*%
X46150001Y-35600000D03*
D16*
X47449999Y-35600000D03*
%TD*%
D11*
%TO.C,J18*%
X60620000Y-23500000D03*
%TD*%
D15*
%TO.C,JP5*%
X14150001Y-35600000D03*
D16*
X15449999Y-35600000D03*
%TD*%
D14*
%TO.C,KiKit_MB_1_1*%
X5700000Y-12999999D03*
%TD*%
%TO.C,KiKit_MB_71_5*%
X85833333Y-60699999D03*
%TD*%
D18*
%TO.C,C9*%
X41500000Y-41080000D03*
X41500000Y-40120000D03*
%TD*%
D12*
%TO.C,JP2*%
X59849999Y-35600000D03*
D13*
X58550001Y-35600000D03*
%TD*%
D14*
%TO.C,KiKit_MB_48_4*%
X85000000Y-48299999D03*
%TD*%
D18*
%TO.C,C12*%
X76500000Y-19080000D03*
X76500000Y-18120000D03*
%TD*%
D17*
%TO.C,J11*%
X51095001Y-86700000D03*
%TD*%
D10*
%TO.C,R11*%
X11500000Y-54297500D03*
X11500000Y-53102500D03*
%TD*%
D18*
%TO.C,C8*%
X72500000Y-19080000D03*
X72500000Y-18120000D03*
%TD*%
D14*
%TO.C,KiKit_MB_9_5*%
X69700000Y-9666667D03*
%TD*%
%TO.C,KiKit_MB_64_7*%
X18500001Y-70299999D03*
%TD*%
%TO.C,KiKit_MB_34_3*%
X100300000Y-31666666D03*
%TD*%
D18*
%TO.C,C2*%
X29500000Y-41080000D03*
X29500000Y-40120000D03*
%TD*%
D14*
%TO.C,KiKit_MB_59_4*%
X85000000Y-49699999D03*
%TD*%
D18*
%TO.C,C10*%
X74500000Y-19080000D03*
X74500000Y-18120000D03*
%TD*%
D14*
%TO.C,KiKit_MB_84_4*%
X85000000Y-81299999D03*
%TD*%
D11*
%TO.C,J20*%
X8300000Y-67500000D03*
%TD*%
D20*
%TO.C,JP1*%
X89100000Y-23449999D03*
D21*
X89100000Y-22150001D03*
%TD*%
D12*
%TO.C,JP3*%
X32849999Y-79600000D03*
D13*
X31550001Y-79600000D03*
%TD*%
D18*
%TO.C,C9*%
X9500000Y-19080000D03*
X9500000Y-18120000D03*
%TD*%
D14*
%TO.C,KiKit_MB_34_4*%
X100300000Y-32499999D03*
%TD*%
D19*
%TO.C,J7*%
X24175001Y-51300000D03*
%TD*%
D17*
%TO.C,J13*%
X53635001Y-31700000D03*
%TD*%
D18*
%TO.C,C11*%
X75500000Y-74080000D03*
X75500000Y-73120000D03*
%TD*%
D14*
%TO.C,KiKit_MB_88_2*%
X22666667Y-92299999D03*
%TD*%
D20*
%TO.C,JP1*%
X57100000Y-78449999D03*
D21*
X57100000Y-77150001D03*
%TD*%
D17*
%TO.C,J10*%
X81825001Y-31700000D03*
%TD*%
D11*
%TO.C,J19*%
X33700000Y-45500000D03*
%TD*%
D10*
%TO.C,R12*%
X44500000Y-43297500D03*
X44500000Y-42102500D03*
%TD*%
D15*
%TO.C,JP4*%
X9150001Y-24600000D03*
D16*
X10449999Y-24600000D03*
%TD*%
D14*
%TO.C,KiKit_MB_86_3*%
X36300000Y-86666666D03*
%TD*%
D18*
%TO.C,C1*%
X62500000Y-30080000D03*
X62500000Y-29120000D03*
%TD*%
D14*
%TO.C,KiKit_MB_57_5*%
X69700000Y-53666666D03*
%TD*%
%TO.C,KiKit_MB_23_4*%
X85000000Y-16699999D03*
%TD*%
%TO.C,KiKit_MB_65_2*%
X37700000Y-67166666D03*
%TD*%
D10*
%TO.C,R6*%
X33500000Y-21297500D03*
X33500000Y-20102500D03*
%TD*%
D19*
%TO.C,J2*%
X81825001Y-84300000D03*
%TD*%
D18*
%TO.C,C1*%
X62500000Y-41080000D03*
X62500000Y-40120000D03*
%TD*%
D14*
%TO.C,KiKit_MB_28_3*%
X21833333Y-37299999D03*
%TD*%
D18*
%TO.C,C6*%
X97500000Y-30080000D03*
X97500000Y-29120000D03*
%TD*%
D19*
%TO.C,J6*%
X54905001Y-62300000D03*
%TD*%
D11*
%TO.C,J21*%
X77380000Y-56500000D03*
%TD*%
D14*
%TO.C,KiKit_MB_31_5*%
X53833333Y-27699999D03*
%TD*%
D10*
%TO.C,R3*%
X96500000Y-43300000D03*
X96500000Y-42105000D03*
%TD*%
D18*
%TO.C,C7*%
X71500000Y-63080000D03*
X71500000Y-62120000D03*
%TD*%
D17*
%TO.C,J15*%
X88175001Y-31700000D03*
%TD*%
D18*
%TO.C,C9*%
X41500000Y-52080000D03*
X41500000Y-51120000D03*
%TD*%
D14*
%TO.C,KiKit_MB_49_3*%
X5700000Y-55333332D03*
%TD*%
%TO.C,KiKit_MB_42_5*%
X68300000Y-44333332D03*
%TD*%
D10*
%TO.C,R1*%
X30500000Y-21297500D03*
X30500000Y-20102500D03*
%TD*%
D11*
%TO.C,J20*%
X8300000Y-56500000D03*
%TD*%
D14*
%TO.C,KiKit_MB_61_5*%
X5700000Y-64666666D03*
%TD*%
D18*
%TO.C,C8*%
X40500000Y-63080000D03*
X40500000Y-62120000D03*
%TD*%
D17*
%TO.C,J12*%
X84365001Y-75700000D03*
%TD*%
D14*
%TO.C,KiKit_MB_4_6*%
X19333334Y-15299999D03*
%TD*%
%TO.C,KiKit_MB_81_7*%
X69700000Y-73999999D03*
%TD*%
%TO.C,KiKit_MB_99_1*%
X6000000Y-94000000D03*
%TD*%
D18*
%TO.C,C10*%
X42500000Y-19080000D03*
X42500000Y-18120000D03*
%TD*%
D17*
%TO.C,J10*%
X17825001Y-9700000D03*
%TD*%
D14*
%TO.C,KiKit_MB_25_7*%
X5700000Y-29999999D03*
%TD*%
D12*
%TO.C,JP3*%
X32849999Y-13600000D03*
D13*
X31550001Y-13600000D03*
%TD*%
D18*
%TO.C,C8*%
X72500000Y-41080000D03*
X72500000Y-40120000D03*
%TD*%
D14*
%TO.C,KiKit_MB_63_7*%
X23500000Y-60699999D03*
%TD*%
D18*
%TO.C,C8*%
X8500000Y-74080000D03*
X8500000Y-73120000D03*
%TD*%
D10*
%TO.C,R6*%
X65500000Y-32297500D03*
X65500000Y-31102500D03*
%TD*%
D14*
%TO.C,KiKit_MB_40_7*%
X18500001Y-48299999D03*
%TD*%
D18*
%TO.C,C11*%
X43500000Y-63080000D03*
X43500000Y-62120000D03*
%TD*%
D19*
%TO.C,J4*%
X52365001Y-62300000D03*
%TD*%
D18*
%TO.C,C12*%
X12500000Y-8080000D03*
X12500000Y-7120000D03*
%TD*%
D14*
%TO.C,KiKit_MB_25_6*%
X5700000Y-30833332D03*
%TD*%
D17*
%TO.C,J9*%
X80555001Y-75765000D03*
%TD*%
%TO.C,J14*%
X86905001Y-31700000D03*
%TD*%
D14*
%TO.C,KiKit_MB_10_7*%
X100300000Y-12999999D03*
%TD*%
%TO.C,KiKit_MB_88_5*%
X20166668Y-92299999D03*
%TD*%
%TO.C,KiKit_MB_35_6*%
X86666667Y-27699999D03*
%TD*%
D12*
%TO.C,JP3*%
X96849999Y-35600000D03*
D13*
X95550001Y-35600000D03*
%TD*%
D19*
%TO.C,J6*%
X86905001Y-29300000D03*
%TD*%
D12*
%TO.C,JP3*%
X96849999Y-68600000D03*
D13*
X95550001Y-68600000D03*
%TD*%
D17*
%TO.C,J9*%
X80555001Y-53765000D03*
%TD*%
D11*
%TO.C,J17*%
X23540000Y-45500000D03*
%TD*%
D18*
%TO.C,C2*%
X93500000Y-8080000D03*
X93500000Y-7120000D03*
%TD*%
%TO.C,C11*%
X43500000Y-30080000D03*
X43500000Y-29120000D03*
%TD*%
D14*
%TO.C,KiKit_MB_67_7*%
X55500000Y-60699999D03*
%TD*%
%TO.C,KiKit_MB_39_1*%
X18500001Y-38699999D03*
%TD*%
D17*
%TO.C,J11*%
X83095001Y-75700000D03*
%TD*%
D15*
%TO.C,JP5*%
X14150001Y-68600000D03*
D16*
X15449999Y-68600000D03*
%TD*%
D14*
%TO.C,KiKit_MB_89_4*%
X37700000Y-87499999D03*
%TD*%
D10*
%TO.C,R12*%
X76500000Y-21297500D03*
X76500000Y-20102500D03*
%TD*%
D14*
%TO.C,KiKit_MB_13_1*%
X5700000Y-23999999D03*
%TD*%
%TO.C,KiKit_MB_42_2*%
X68300000Y-41833332D03*
%TD*%
D18*
%TO.C,C2*%
X29500000Y-30080000D03*
X29500000Y-29120000D03*
%TD*%
%TO.C,C1*%
X94500000Y-30080000D03*
X94500000Y-29120000D03*
%TD*%
D10*
%TO.C,R11*%
X11500000Y-76297500D03*
X11500000Y-75102500D03*
%TD*%
D11*
%TO.C,J19*%
X33700000Y-89500000D03*
%TD*%
D19*
%TO.C,J4*%
X52365001Y-29300000D03*
%TD*%
D17*
%TO.C,J15*%
X88175001Y-75700000D03*
%TD*%
D18*
%TO.C,C3*%
X64500000Y-41082500D03*
X64500000Y-40122500D03*
%TD*%
D10*
%TO.C,R1*%
X30500000Y-65297500D03*
X30500000Y-64102500D03*
%TD*%
%TO.C,R10*%
X74500000Y-65297500D03*
X74500000Y-64102500D03*
%TD*%
D18*
%TO.C,C4*%
X31500000Y-52080000D03*
X31500000Y-51120000D03*
%TD*%
D14*
%TO.C,KiKit_MB_34_1*%
X100300000Y-29999999D03*
%TD*%
D18*
%TO.C,C10*%
X10500000Y-85080000D03*
X10500000Y-84120000D03*
%TD*%
%TO.C,C7*%
X39500000Y-19080000D03*
X39500000Y-18120000D03*
%TD*%
D11*
%TO.C,J20*%
X40300000Y-45500000D03*
%TD*%
D14*
%TO.C,KiKit_MB_47_5*%
X85833333Y-38699999D03*
%TD*%
D10*
%TO.C,R6*%
X97500000Y-43297500D03*
X97500000Y-42102500D03*
%TD*%
D18*
%TO.C,C4*%
X63500000Y-52080000D03*
X63500000Y-51120000D03*
%TD*%
D10*
%TO.C,R2*%
X29500000Y-32297500D03*
X29500000Y-31102500D03*
%TD*%
D18*
%TO.C,C12*%
X76500000Y-52080000D03*
X76500000Y-51120000D03*
%TD*%
D20*
%TO.C,JP1*%
X25100000Y-89449999D03*
D21*
X25100000Y-88150001D03*
%TD*%
D11*
%TO.C,J18*%
X60620000Y-89500000D03*
%TD*%
D14*
%TO.C,KiKit_MB_94_5*%
X100300000Y-88333332D03*
%TD*%
D15*
%TO.C,JP4*%
X73150001Y-90600000D03*
D16*
X74449999Y-90600000D03*
%TD*%
D14*
%TO.C,KiKit_MB_22_3*%
X100300000Y-20666666D03*
%TD*%
D18*
%TO.C,C3*%
X64500000Y-19082500D03*
X64500000Y-18122500D03*
%TD*%
D10*
%TO.C,R7*%
X39500000Y-10297500D03*
X39500000Y-9102500D03*
%TD*%
%TO.C,R5*%
X34500000Y-10297500D03*
X34500000Y-9102500D03*
%TD*%
D11*
%TO.C,J22*%
X50460000Y-78500000D03*
%TD*%
D19*
%TO.C,J8*%
X89445001Y-51365000D03*
%TD*%
D18*
%TO.C,C11*%
X43500000Y-8080000D03*
X43500000Y-7120000D03*
%TD*%
D10*
%TO.C,R6*%
X97500000Y-21297500D03*
X97500000Y-20102500D03*
%TD*%
D19*
%TO.C,J8*%
X25445001Y-62365000D03*
%TD*%
D18*
%TO.C,C7*%
X7500000Y-8080000D03*
X7500000Y-7120000D03*
%TD*%
D10*
%TO.C,R3*%
X32500000Y-76300000D03*
X32500000Y-75105000D03*
%TD*%
D14*
%TO.C,KiKit_MB_20_6*%
X51333333Y-26299999D03*
%TD*%
%TO.C,KiKit_MB_30_2*%
X68300000Y-30833332D03*
%TD*%
D11*
%TO.C,J17*%
X55540000Y-23500000D03*
%TD*%
D14*
%TO.C,KiKit_MB_40_5*%
X20166668Y-48299999D03*
%TD*%
D10*
%TO.C,R4*%
X31500000Y-10297500D03*
X31500000Y-9102500D03*
%TD*%
D12*
%TO.C,JP2*%
X27849999Y-57600000D03*
D13*
X26550001Y-57600000D03*
%TD*%
D14*
%TO.C,KiKit_MB_73_6*%
X5700000Y-74833332D03*
%TD*%
%TO.C,KiKit_MB_82_4*%
X100300000Y-76499999D03*
%TD*%
D10*
%TO.C,R2*%
X93500000Y-10297500D03*
X93500000Y-9102500D03*
%TD*%
D14*
%TO.C,KiKit_MB_53_3*%
X37700000Y-55333332D03*
%TD*%
D17*
%TO.C,J13*%
X85635001Y-53700000D03*
%TD*%
D19*
%TO.C,J8*%
X25445001Y-18365000D03*
%TD*%
D14*
%TO.C,KiKit_MB_40_4*%
X21000000Y-48299999D03*
%TD*%
D11*
%TO.C,J19*%
X65700000Y-78500000D03*
%TD*%
D20*
%TO.C,JP6*%
X16800000Y-12449999D03*
D21*
X16800000Y-11150001D03*
%TD*%
D17*
%TO.C,J10*%
X49825001Y-31700000D03*
%TD*%
D14*
%TO.C,KiKit_MB_1_5*%
X5700000Y-9666667D03*
%TD*%
D19*
%TO.C,J1*%
X80555001Y-7365000D03*
%TD*%
D14*
%TO.C,KiKit_MB_39_5*%
X21833333Y-38699999D03*
%TD*%
%TO.C,KiKit_MB_57_1*%
X69700000Y-56999999D03*
%TD*%
D10*
%TO.C,R8*%
X8500000Y-76297500D03*
X8500000Y-75102500D03*
%TD*%
%TO.C,R11*%
X75500000Y-43297500D03*
X75500000Y-42102500D03*
%TD*%
D12*
%TO.C,JP3*%
X32849999Y-90600000D03*
D13*
X31550001Y-90600000D03*
%TD*%
D14*
%TO.C,KiKit_MB_17_6*%
X37700000Y-19833332D03*
%TD*%
%TO.C,KiKit_MB_62_1*%
X36300000Y-62999999D03*
%TD*%
D10*
%TO.C,R9*%
X73500000Y-54297500D03*
X73500000Y-53102500D03*
%TD*%
%TO.C,R10*%
X74500000Y-87297500D03*
X74500000Y-86102500D03*
%TD*%
D11*
%TO.C,J19*%
X65700000Y-23500000D03*
%TD*%
D14*
%TO.C,KiKit_MB_76_5*%
X20166668Y-81299999D03*
%TD*%
%TO.C,KiKit_MB_97_4*%
X6000000Y-2400000D03*
%TD*%
%TO.C,KiKit_MB_44_3*%
X53833333Y-48299999D03*
%TD*%
D10*
%TO.C,R9*%
X41500000Y-21297500D03*
X41500000Y-20102500D03*
%TD*%
D14*
%TO.C,KiKit_MB_87_5*%
X21833333Y-82699999D03*
%TD*%
%TO.C,KiKit_MB_104_3*%
X103600001Y-91999999D03*
%TD*%
D11*
%TO.C,J17*%
X23540000Y-34500000D03*
%TD*%
D19*
%TO.C,J3*%
X51095001Y-73300000D03*
%TD*%
D14*
%TO.C,KiKit_MB_11_2*%
X83333333Y-5700000D03*
%TD*%
D19*
%TO.C,J5*%
X85635001Y-29300000D03*
%TD*%
D18*
%TO.C,C12*%
X12500000Y-30080000D03*
X12500000Y-29120000D03*
%TD*%
D14*
%TO.C,KiKit_MB_10_6*%
X100300000Y-12166666D03*
%TD*%
D12*
%TO.C,JP3*%
X96849999Y-79600000D03*
D13*
X95550001Y-79600000D03*
%TD*%
D12*
%TO.C,JP2*%
X91849999Y-13600000D03*
D13*
X90550001Y-13600000D03*
%TD*%
D14*
%TO.C,KiKit_MB_24_4*%
X85000000Y-26299999D03*
%TD*%
D10*
%TO.C,R1*%
X94500000Y-54297500D03*
X94500000Y-53102500D03*
%TD*%
D14*
%TO.C,KiKit_MB_49_7*%
X5700000Y-51999999D03*
%TD*%
D17*
%TO.C,J10*%
X17825001Y-31700000D03*
%TD*%
D14*
%TO.C,KiKit_MB_79_3*%
X52166667Y-71699999D03*
%TD*%
D20*
%TO.C,JP1*%
X57100000Y-23449999D03*
D21*
X57100000Y-22150001D03*
%TD*%
D14*
%TO.C,KiKit_MB_21_3*%
X69700000Y-22333332D03*
%TD*%
D10*
%TO.C,R6*%
X33500000Y-32297500D03*
X33500000Y-31102500D03*
%TD*%
D11*
%TO.C,J17*%
X55540000Y-45500000D03*
%TD*%
D19*
%TO.C,J4*%
X20365001Y-84300000D03*
%TD*%
D14*
%TO.C,KiKit_MB_101_6*%
X4000000Y-6000000D03*
%TD*%
D10*
%TO.C,R1*%
X62500000Y-54297500D03*
X62500000Y-53102500D03*
%TD*%
D14*
%TO.C,KiKit_MB_100_5*%
X100000001Y-97200000D03*
%TD*%
D11*
%TO.C,J22*%
X18460000Y-45500000D03*
%TD*%
D10*
%TO.C,R10*%
X10500000Y-87297500D03*
X10500000Y-86102500D03*
%TD*%
D14*
%TO.C,KiKit_MB_17_2*%
X37700000Y-23166666D03*
%TD*%
D10*
%TO.C,R7*%
X7500000Y-21297500D03*
X7500000Y-20102500D03*
%TD*%
%TO.C,R1*%
X62500000Y-32297500D03*
X62500000Y-31102500D03*
%TD*%
D14*
%TO.C,KiKit_MB_23_2*%
X83333333Y-16699999D03*
%TD*%
%TO.C,KiKit_MB_4_3*%
X21833333Y-15299999D03*
%TD*%
%TO.C,KiKit_MB_31_2*%
X51333333Y-27699999D03*
%TD*%
D17*
%TO.C,J16*%
X25445001Y-9765000D03*
%TD*%
D10*
%TO.C,R1*%
X94500000Y-32297500D03*
X94500000Y-31102500D03*
%TD*%
D14*
%TO.C,KiKit_MB_61_1*%
X5700000Y-67999999D03*
%TD*%
D20*
%TO.C,JP6*%
X48800000Y-34449999D03*
D21*
X48800000Y-33150001D03*
%TD*%
D19*
%TO.C,J6*%
X54905001Y-73300000D03*
%TD*%
D14*
%TO.C,KiKit_MB_88_1*%
X23500000Y-92299999D03*
%TD*%
D11*
%TO.C,J19*%
X65700000Y-89500000D03*
%TD*%
D14*
%TO.C,KiKit_MB_5_5*%
X37700000Y-9666667D03*
%TD*%
D19*
%TO.C,J4*%
X84365001Y-40300000D03*
%TD*%
D11*
%TO.C,J17*%
X87540000Y-89500000D03*
%TD*%
D14*
%TO.C,KiKit_MB_7_3*%
X52166667Y-5700000D03*
%TD*%
D18*
%TO.C,C3*%
X96500000Y-30082500D03*
X96500000Y-29122500D03*
%TD*%
D14*
%TO.C,KiKit_MB_74_5*%
X36300000Y-77333332D03*
%TD*%
%TO.C,KiKit_MB_35_3*%
X84166667Y-27699999D03*
%TD*%
D17*
%TO.C,J10*%
X81825001Y-86700000D03*
%TD*%
D10*
%TO.C,R11*%
X75500000Y-65297500D03*
X75500000Y-64102500D03*
%TD*%
D18*
%TO.C,C9*%
X73500000Y-85080000D03*
X73500000Y-84120000D03*
%TD*%
%TO.C,C5*%
X34500000Y-8080000D03*
X34500000Y-7120000D03*
%TD*%
D14*
%TO.C,KiKit_MB_86_6*%
X36300000Y-89166666D03*
%TD*%
D19*
%TO.C,J8*%
X57445001Y-18365000D03*
%TD*%
D17*
%TO.C,J15*%
X56175001Y-53700000D03*
%TD*%
D14*
%TO.C,KiKit_MB_58_6*%
X100300000Y-56166666D03*
%TD*%
%TO.C,KiKit_MB_51_7*%
X23500000Y-49699999D03*
%TD*%
%TO.C,KiKit_MB_7_7*%
X55500000Y-5700000D03*
%TD*%
%TO.C,KiKit_MB_80_4*%
X53000000Y-81299999D03*
%TD*%
%TO.C,KiKit_MB_35_7*%
X87500000Y-27699999D03*
%TD*%
%TO.C,KiKit_MB_32_5*%
X52166667Y-37299999D03*
%TD*%
D18*
%TO.C,C4*%
X95500000Y-8080000D03*
X95500000Y-7120000D03*
%TD*%
D10*
%TO.C,R7*%
X71500000Y-32297500D03*
X71500000Y-31102500D03*
%TD*%
D19*
%TO.C,J2*%
X17825001Y-7300000D03*
%TD*%
D14*
%TO.C,KiKit_MB_37_6*%
X5700000Y-41833332D03*
%TD*%
%TO.C,KiKit_MB_99_5*%
X6000000Y-97200000D03*
%TD*%
D10*
%TO.C,R2*%
X29500000Y-65297500D03*
X29500000Y-64102500D03*
%TD*%
D14*
%TO.C,KiKit_MB_98_1*%
X100000001Y0D03*
%TD*%
D18*
%TO.C,C2*%
X29500000Y-85080000D03*
X29500000Y-84120000D03*
%TD*%
D19*
%TO.C,J1*%
X16555001Y-29365000D03*
%TD*%
D17*
%TO.C,J12*%
X52365001Y-9700000D03*
%TD*%
D18*
%TO.C,C5*%
X98500000Y-19080000D03*
X98500000Y-18120000D03*
%TD*%
%TO.C,C11*%
X11500000Y-63080000D03*
X11500000Y-62120000D03*
%TD*%
D14*
%TO.C,KiKit_MB_88_7*%
X18500001Y-92299999D03*
%TD*%
%TO.C,KiKit_MB_28_5*%
X20166668Y-37299999D03*
%TD*%
%TO.C,KiKit_MB_28_1*%
X23500000Y-37299999D03*
%TD*%
%TO.C,KiKit_MB_51_1*%
X18500001Y-49699999D03*
%TD*%
D15*
%TO.C,JP5*%
X46150001Y-68600000D03*
D16*
X47449999Y-68600000D03*
%TD*%
D10*
%TO.C,R7*%
X71500000Y-87297500D03*
X71500000Y-86102500D03*
%TD*%
D14*
%TO.C,KiKit_MB_46_6*%
X100300000Y-45166666D03*
%TD*%
D19*
%TO.C,J7*%
X88175001Y-73300000D03*
%TD*%
D10*
%TO.C,R9*%
X9500000Y-21297500D03*
X9500000Y-20102500D03*
%TD*%
D14*
%TO.C,KiKit_MB_26_3*%
X36300000Y-31666666D03*
%TD*%
%TO.C,KiKit_MB_30_1*%
X68300000Y-29999999D03*
%TD*%
%TO.C,KiKit_MB_2_4*%
X36300000Y-10500000D03*
%TD*%
D17*
%TO.C,J11*%
X19095001Y-20700000D03*
%TD*%
D14*
%TO.C,KiKit_MB_28_7*%
X18500001Y-37299999D03*
%TD*%
%TO.C,KiKit_MB_31_4*%
X53000000Y-27699999D03*
%TD*%
%TO.C,KiKit_MB_84_1*%
X87500000Y-81299999D03*
%TD*%
%TO.C,KiKit_MB_9_1*%
X69700000Y-12999999D03*
%TD*%
D19*
%TO.C,J2*%
X49825001Y-18300000D03*
%TD*%
D14*
%TO.C,KiKit_MB_43_3*%
X52166667Y-38699999D03*
%TD*%
%TO.C,KiKit_MB_32_4*%
X53000000Y-37299999D03*
%TD*%
D11*
%TO.C,J18*%
X28620000Y-23500000D03*
%TD*%
D10*
%TO.C,R4*%
X95500000Y-43297500D03*
X95500000Y-42102500D03*
%TD*%
D18*
%TO.C,C9*%
X41500000Y-63080000D03*
X41500000Y-62120000D03*
%TD*%
D19*
%TO.C,J7*%
X88175001Y-29300000D03*
%TD*%
D10*
%TO.C,R6*%
X97500000Y-65297500D03*
X97500000Y-64102500D03*
%TD*%
D20*
%TO.C,JP1*%
X89100000Y-67449999D03*
D21*
X89100000Y-66150001D03*
%TD*%
D14*
%TO.C,KiKit_MB_78_5*%
X68300000Y-77333332D03*
%TD*%
D17*
%TO.C,J16*%
X89445001Y-75765000D03*
%TD*%
D14*
%TO.C,KiKit_MB_81_2*%
X69700000Y-78166666D03*
%TD*%
%TO.C,KiKit_MB_34_2*%
X100300000Y-30833332D03*
%TD*%
D18*
%TO.C,C12*%
X76500000Y-8080000D03*
X76500000Y-7120000D03*
%TD*%
D14*
%TO.C,KiKit_MB_22_6*%
X100300000Y-23166666D03*
%TD*%
D11*
%TO.C,J22*%
X82460000Y-45500000D03*
%TD*%
D20*
%TO.C,JP6*%
X80800000Y-23449999D03*
D21*
X80800000Y-22150001D03*
%TD*%
D17*
%TO.C,J15*%
X88175001Y-86700000D03*
%TD*%
%TO.C,J16*%
X89445001Y-86765000D03*
%TD*%
%TO.C,J12*%
X52365001Y-75700000D03*
%TD*%
D19*
%TO.C,J5*%
X53635001Y-73300000D03*
%TD*%
%TO.C,J3*%
X19095001Y-73300000D03*
%TD*%
D14*
%TO.C,KiKit_MB_64_2*%
X22666667Y-70299999D03*
%TD*%
D17*
%TO.C,J12*%
X20365001Y-53700000D03*
%TD*%
D10*
%TO.C,R10*%
X10500000Y-76297500D03*
X10500000Y-75102500D03*
%TD*%
D14*
%TO.C,KiKit_MB_64_6*%
X19333334Y-70299999D03*
%TD*%
%TO.C,KiKit_MB_51_2*%
X19333334Y-49699999D03*
%TD*%
D20*
%TO.C,JP1*%
X89100000Y-78449999D03*
D21*
X89100000Y-77150001D03*
%TD*%
D17*
%TO.C,J15*%
X88175001Y-53700000D03*
%TD*%
D18*
%TO.C,C1*%
X94500000Y-85080000D03*
X94500000Y-84120000D03*
%TD*%
D11*
%TO.C,J21*%
X45380000Y-34500000D03*
%TD*%
D14*
%TO.C,KiKit_MB_92_6*%
X51333333Y-92299999D03*
%TD*%
%TO.C,KiKit_MB_54_6*%
X68300000Y-56166666D03*
%TD*%
%TO.C,KiKit_MB_8_6*%
X51333333Y-15299999D03*
%TD*%
%TO.C,KiKit_MB_100_1*%
X100000001Y-94000000D03*
%TD*%
D18*
%TO.C,C4*%
X63500000Y-30080000D03*
X63500000Y-29120000D03*
%TD*%
D10*
%TO.C,R5*%
X98500000Y-21297500D03*
X98500000Y-20102500D03*
%TD*%
D14*
%TO.C,KiKit_MB_71_7*%
X87500000Y-60699999D03*
%TD*%
D17*
%TO.C,J9*%
X80555001Y-9765000D03*
%TD*%
D18*
%TO.C,C3*%
X64500000Y-74082500D03*
X64500000Y-73122500D03*
%TD*%
D10*
%TO.C,R4*%
X31500000Y-43297500D03*
X31500000Y-42102500D03*
%TD*%
D18*
%TO.C,C9*%
X9500000Y-41080000D03*
X9500000Y-40120000D03*
%TD*%
D14*
%TO.C,KiKit_MB_15_2*%
X19333334Y-16699999D03*
%TD*%
D17*
%TO.C,J9*%
X16555001Y-75765000D03*
%TD*%
D19*
%TO.C,J2*%
X17825001Y-84300000D03*
%TD*%
D14*
%TO.C,KiKit_MB_89_1*%
X37700000Y-89999999D03*
%TD*%
D10*
%TO.C,R7*%
X39500000Y-32297500D03*
X39500000Y-31102500D03*
%TD*%
D14*
%TO.C,KiKit_MB_89_3*%
X37700000Y-88333332D03*
%TD*%
D22*
%TO.C,KiKit_TO_4*%
X103500001Y-95500000D03*
%TD*%
D14*
%TO.C,KiKit_MB_4_4*%
X21000000Y-15299999D03*
%TD*%
D18*
%TO.C,C9*%
X73500000Y-8080000D03*
X73500000Y-7120000D03*
%TD*%
D17*
%TO.C,J15*%
X56175001Y-86700000D03*
%TD*%
D19*
%TO.C,J4*%
X20365001Y-40300000D03*
%TD*%
%TO.C,J1*%
X80555001Y-84365000D03*
%TD*%
%TO.C,J6*%
X22905001Y-73300000D03*
%TD*%
D17*
%TO.C,J9*%
X48555001Y-64765000D03*
%TD*%
D19*
%TO.C,J7*%
X56175001Y-84300000D03*
%TD*%
D17*
%TO.C,J11*%
X19095001Y-42700000D03*
%TD*%
D19*
%TO.C,J1*%
X80555001Y-18365000D03*
%TD*%
D14*
%TO.C,KiKit_MB_84_5*%
X84166667Y-81299999D03*
%TD*%
%TO.C,KiKit_MB_3_2*%
X19333334Y-5700000D03*
%TD*%
D18*
%TO.C,C9*%
X73500000Y-63080000D03*
X73500000Y-62120000D03*
%TD*%
D10*
%TO.C,R10*%
X10500000Y-32297500D03*
X10500000Y-31102500D03*
%TD*%
D14*
%TO.C,KiKit_MB_37_4*%
X5700000Y-43499999D03*
%TD*%
D20*
%TO.C,JP1*%
X89100000Y-12449999D03*
D21*
X89100000Y-11150001D03*
%TD*%
D11*
%TO.C,J18*%
X92620000Y-67500000D03*
%TD*%
D17*
%TO.C,J15*%
X24175001Y-64700000D03*
%TD*%
D12*
%TO.C,JP3*%
X96849999Y-13600000D03*
D13*
X95550001Y-13600000D03*
%TD*%
D15*
%TO.C,JP4*%
X41150001Y-79600000D03*
D16*
X42449999Y-79600000D03*
%TD*%
D14*
%TO.C,KiKit_MB_19_7*%
X55500000Y-16699999D03*
%TD*%
D18*
%TO.C,C5*%
X66500000Y-63080000D03*
X66500000Y-62120000D03*
%TD*%
D17*
%TO.C,J13*%
X21635001Y-42700000D03*
%TD*%
D10*
%TO.C,R5*%
X66500000Y-87297500D03*
X66500000Y-86102500D03*
%TD*%
D17*
%TO.C,J14*%
X22905001Y-9700000D03*
%TD*%
D14*
%TO.C,KiKit_MB_50_2*%
X36300000Y-52833332D03*
%TD*%
%TO.C,KiKit_MB_10_3*%
X100300000Y-9666667D03*
%TD*%
D11*
%TO.C,J21*%
X13380000Y-67500000D03*
%TD*%
D18*
%TO.C,C3*%
X64500000Y-8082500D03*
X64500000Y-7122500D03*
%TD*%
D14*
%TO.C,KiKit_MB_74_1*%
X36300000Y-73999999D03*
%TD*%
D18*
%TO.C,C12*%
X44500000Y-52080000D03*
X44500000Y-51120000D03*
%TD*%
%TO.C,C7*%
X39500000Y-41080000D03*
X39500000Y-40120000D03*
%TD*%
D10*
%TO.C,R5*%
X34500000Y-65297500D03*
X34500000Y-64102500D03*
%TD*%
D14*
%TO.C,KiKit_MB_51_3*%
X20166668Y-49699999D03*
%TD*%
%TO.C,KiKit_MB_5_3*%
X37700000Y-11333332D03*
%TD*%
%TO.C,KiKit_MB_5_7*%
X37700000Y-8000000D03*
%TD*%
D18*
%TO.C,C9*%
X41500000Y-30080000D03*
X41500000Y-29120000D03*
%TD*%
D14*
%TO.C,KiKit_MB_87_6*%
X22666667Y-82699999D03*
%TD*%
%TO.C,KiKit_MB_101_2*%
X800000Y-6000000D03*
%TD*%
%TO.C,KiKit_MB_7_5*%
X53833333Y-5700000D03*
%TD*%
%TO.C,KiKit_MB_78_7*%
X68300000Y-78999999D03*
%TD*%
D17*
%TO.C,J14*%
X22905001Y-31700000D03*
%TD*%
D14*
%TO.C,KiKit_MB_65_1*%
X37700000Y-67999999D03*
%TD*%
D19*
%TO.C,J3*%
X83095001Y-7300000D03*
%TD*%
D15*
%TO.C,JP4*%
X9150001Y-35600000D03*
D16*
X10449999Y-35600000D03*
%TD*%
D14*
%TO.C,KiKit_MB_39_3*%
X20166668Y-38699999D03*
%TD*%
%TO.C,KiKit_MB_13_3*%
X5700000Y-22333332D03*
%TD*%
D19*
%TO.C,J5*%
X53635001Y-40300000D03*
%TD*%
D14*
%TO.C,KiKit_MB_15_4*%
X21000000Y-16699999D03*
%TD*%
D17*
%TO.C,J14*%
X54905001Y-42700000D03*
%TD*%
D19*
%TO.C,J1*%
X48555001Y-7365000D03*
%TD*%
D18*
%TO.C,C7*%
X71500000Y-8080000D03*
X71500000Y-7120000D03*
%TD*%
D14*
%TO.C,KiKit_MB_29_6*%
X37700000Y-30833332D03*
%TD*%
D17*
%TO.C,J16*%
X25445001Y-42765000D03*
%TD*%
D19*
%TO.C,J3*%
X19095001Y-84300000D03*
%TD*%
D18*
%TO.C,C11*%
X11500000Y-8080000D03*
X11500000Y-7120000D03*
%TD*%
D19*
%TO.C,J8*%
X25445001Y-84365000D03*
%TD*%
D17*
%TO.C,J13*%
X21635001Y-31700000D03*
%TD*%
D18*
%TO.C,C1*%
X62500000Y-8080000D03*
X62500000Y-7120000D03*
%TD*%
D20*
%TO.C,JP1*%
X57100000Y-12449999D03*
D21*
X57100000Y-11150001D03*
%TD*%
D10*
%TO.C,R4*%
X63500000Y-87297500D03*
X63500000Y-86102500D03*
%TD*%
D18*
%TO.C,C9*%
X73500000Y-52080000D03*
X73500000Y-51120000D03*
%TD*%
D14*
%TO.C,KiKit_MB_87_2*%
X19333334Y-82699999D03*
%TD*%
D18*
%TO.C,C9*%
X41500000Y-85080000D03*
X41500000Y-84120000D03*
%TD*%
D14*
%TO.C,KiKit_MB_35_5*%
X85833333Y-27699999D03*
%TD*%
D10*
%TO.C,R3*%
X64500000Y-10300000D03*
X64500000Y-9105000D03*
%TD*%
D11*
%TO.C,J21*%
X77380000Y-23500000D03*
%TD*%
D14*
%TO.C,KiKit_MB_1_7*%
X5700000Y-8000000D03*
%TD*%
D19*
%TO.C,J2*%
X81825001Y-62300000D03*
%TD*%
%TO.C,J7*%
X56175001Y-29300000D03*
%TD*%
D14*
%TO.C,KiKit_MB_89_2*%
X37700000Y-89166666D03*
%TD*%
%TO.C,KiKit_MB_68_6*%
X51333333Y-70299999D03*
%TD*%
D18*
%TO.C,C7*%
X7500000Y-19080000D03*
X7500000Y-18120000D03*
%TD*%
D19*
%TO.C,J3*%
X19095001Y-18300000D03*
%TD*%
D14*
%TO.C,KiKit_MB_13_5*%
X5700000Y-20666666D03*
%TD*%
%TO.C,KiKit_MB_62_7*%
X36300000Y-67999999D03*
%TD*%
D10*
%TO.C,R8*%
X8500000Y-32297500D03*
X8500000Y-31102500D03*
%TD*%
D14*
%TO.C,KiKit_MB_45_4*%
X69700000Y-43499999D03*
%TD*%
D18*
%TO.C,C12*%
X76500000Y-74080000D03*
X76500000Y-73120000D03*
%TD*%
D10*
%TO.C,R2*%
X93500000Y-87297500D03*
X93500000Y-86102500D03*
%TD*%
D11*
%TO.C,J22*%
X18460000Y-89500000D03*
%TD*%
D14*
%TO.C,KiKit_MB_14_6*%
X36300000Y-23166666D03*
%TD*%
D18*
%TO.C,C5*%
X98500000Y-85080000D03*
X98500000Y-84120000D03*
%TD*%
D14*
%TO.C,KiKit_MB_42_6*%
X68300000Y-45166666D03*
%TD*%
%TO.C,KiKit_MB_85_1*%
X5700000Y-89999999D03*
%TD*%
D17*
%TO.C,J15*%
X24175001Y-42700000D03*
%TD*%
D20*
%TO.C,JP1*%
X57100000Y-67449999D03*
D21*
X57100000Y-66150001D03*
%TD*%
D17*
%TO.C,J15*%
X56175001Y-9700000D03*
%TD*%
D20*
%TO.C,JP6*%
X80800000Y-34449999D03*
D21*
X80800000Y-33150001D03*
%TD*%
D10*
%TO.C,R6*%
X65500000Y-76297500D03*
X65500000Y-75102500D03*
%TD*%
D17*
%TO.C,J12*%
X20365001Y-64700000D03*
%TD*%
D10*
%TO.C,R5*%
X98500000Y-10297500D03*
X98500000Y-9102500D03*
%TD*%
%TO.C,R12*%
X44500000Y-10297500D03*
X44500000Y-9102500D03*
%TD*%
D14*
%TO.C,KiKit_MB_42_3*%
X68300000Y-42666666D03*
%TD*%
D10*
%TO.C,R6*%
X97500000Y-87297500D03*
X97500000Y-86102500D03*
%TD*%
D14*
%TO.C,KiKit_MB_77_2*%
X37700000Y-78166666D03*
%TD*%
%TO.C,KiKit_MB_33_5*%
X69700000Y-31666666D03*
%TD*%
D18*
%TO.C,C5*%
X66500000Y-19080000D03*
X66500000Y-18120000D03*
%TD*%
D11*
%TO.C,J22*%
X50460000Y-67500000D03*
%TD*%
D18*
%TO.C,C12*%
X12500000Y-41080000D03*
X12500000Y-40120000D03*
%TD*%
D19*
%TO.C,J1*%
X16555001Y-18365000D03*
%TD*%
D17*
%TO.C,J15*%
X88175001Y-20700000D03*
%TD*%
D14*
%TO.C,KiKit_MB_80_1*%
X55500000Y-81299999D03*
%TD*%
%TO.C,KiKit_MB_83_7*%
X87500000Y-71699999D03*
%TD*%
D19*
%TO.C,J5*%
X21635001Y-7300000D03*
%TD*%
D14*
%TO.C,KiKit_MB_36_1*%
X87500000Y-37299999D03*
%TD*%
D17*
%TO.C,J10*%
X49825001Y-20700000D03*
%TD*%
D14*
%TO.C,KiKit_MB_17_4*%
X37700000Y-21499999D03*
%TD*%
D18*
%TO.C,C2*%
X61500000Y-19080000D03*
X61500000Y-18120000D03*
%TD*%
D19*
%TO.C,J2*%
X17825001Y-62300000D03*
%TD*%
D17*
%TO.C,J16*%
X57445001Y-75765000D03*
%TD*%
D22*
%TO.C,KiKit_TO_1*%
X2500000Y-2500000D03*
%TD*%
D12*
%TO.C,JP2*%
X27849999Y-13600000D03*
D13*
X26550001Y-13600000D03*
%TD*%
D10*
%TO.C,R12*%
X12500000Y-76297500D03*
X12500000Y-75102500D03*
%TD*%
D14*
%TO.C,KiKit_MB_74_6*%
X36300000Y-78166666D03*
%TD*%
D17*
%TO.C,J14*%
X22905001Y-64700000D03*
%TD*%
%TO.C,J13*%
X53635001Y-20700000D03*
%TD*%
D14*
%TO.C,KiKit_MB_90_6*%
X68300000Y-89166666D03*
%TD*%
D11*
%TO.C,J20*%
X72300000Y-45500000D03*
%TD*%
D14*
%TO.C,KiKit_MB_39_2*%
X19333334Y-38699999D03*
%TD*%
D18*
%TO.C,C7*%
X7500000Y-63080000D03*
X7500000Y-62120000D03*
%TD*%
D10*
%TO.C,R4*%
X95500000Y-10297500D03*
X95500000Y-9102500D03*
%TD*%
%TO.C,R8*%
X40500000Y-65297500D03*
X40500000Y-64102500D03*
%TD*%
D19*
%TO.C,J5*%
X85635001Y-62300000D03*
%TD*%
D14*
%TO.C,KiKit_MB_69_6*%
X69700000Y-63833332D03*
%TD*%
D18*
%TO.C,C7*%
X71500000Y-30080000D03*
X71500000Y-29120000D03*
%TD*%
D10*
%TO.C,R4*%
X95500000Y-32297500D03*
X95500000Y-31102500D03*
%TD*%
D14*
%TO.C,KiKit_MB_18_2*%
X68300000Y-19833332D03*
%TD*%
%TO.C,KiKit_MB_20_5*%
X52166667Y-26299999D03*
%TD*%
D11*
%TO.C,J19*%
X65700000Y-67500000D03*
%TD*%
D14*
%TO.C,KiKit_MB_48_2*%
X86666667Y-48299999D03*
%TD*%
%TO.C,KiKit_MB_75_7*%
X23500000Y-71699999D03*
%TD*%
D12*
%TO.C,JP2*%
X59849999Y-68600000D03*
D13*
X58550001Y-68600000D03*
%TD*%
D14*
%TO.C,KiKit_MB_65_6*%
X37700000Y-63833332D03*
%TD*%
D10*
%TO.C,R1*%
X94500000Y-21297500D03*
X94500000Y-20102500D03*
%TD*%
D18*
%TO.C,C4*%
X31500000Y-85080000D03*
X31500000Y-84120000D03*
%TD*%
%TO.C,C7*%
X7500000Y-30080000D03*
X7500000Y-29120000D03*
%TD*%
D19*
%TO.C,J4*%
X84365001Y-51300000D03*
%TD*%
D17*
%TO.C,J16*%
X57445001Y-53765000D03*
%TD*%
D14*
%TO.C,KiKit_MB_62_5*%
X36300000Y-66333332D03*
%TD*%
%TO.C,KiKit_MB_98_5*%
X100000001Y-3200000D03*
%TD*%
%TO.C,KiKit_MB_46_1*%
X100300000Y-40999999D03*
%TD*%
D19*
%TO.C,J4*%
X84365001Y-29300000D03*
%TD*%
D18*
%TO.C,C10*%
X42500000Y-30080000D03*
X42500000Y-29120000D03*
%TD*%
D14*
%TO.C,KiKit_MB_55_4*%
X53000000Y-49699999D03*
%TD*%
D18*
%TO.C,C5*%
X34500000Y-41080000D03*
X34500000Y-40120000D03*
%TD*%
D14*
%TO.C,KiKit_MB_78_3*%
X68300000Y-75666666D03*
%TD*%
D19*
%TO.C,J7*%
X56175001Y-73300000D03*
%TD*%
D11*
%TO.C,J19*%
X97700000Y-23500000D03*
%TD*%
D10*
%TO.C,R3*%
X64500000Y-54300000D03*
X64500000Y-53105000D03*
%TD*%
D14*
%TO.C,KiKit_MB_83_2*%
X83333333Y-71699999D03*
%TD*%
D17*
%TO.C,J10*%
X81825001Y-20700000D03*
%TD*%
D10*
%TO.C,R5*%
X98500000Y-43297500D03*
X98500000Y-42102500D03*
%TD*%
D17*
%TO.C,J14*%
X22905001Y-86700000D03*
%TD*%
D14*
%TO.C,KiKit_MB_41_6*%
X37700000Y-41833332D03*
%TD*%
D17*
%TO.C,J14*%
X86905001Y-75700000D03*
%TD*%
D19*
%TO.C,J6*%
X54905001Y-40300000D03*
%TD*%
D10*
%TO.C,R11*%
X75500000Y-76297500D03*
X75500000Y-75102500D03*
%TD*%
D14*
%TO.C,KiKit_MB_75_4*%
X21000000Y-71699999D03*
%TD*%
%TO.C,KiKit_MB_55_7*%
X55500000Y-49699999D03*
%TD*%
%TO.C,KiKit_MB_100_3*%
X100000001Y-95600000D03*
%TD*%
D18*
%TO.C,C5*%
X66500000Y-30080000D03*
X66500000Y-29120000D03*
%TD*%
D10*
%TO.C,R3*%
X96500000Y-54300000D03*
X96500000Y-53105000D03*
%TD*%
D14*
%TO.C,KiKit_MB_11_7*%
X87500000Y-5700000D03*
%TD*%
%TO.C,KiKit_MB_12_6*%
X83333333Y-15299999D03*
%TD*%
%TO.C,KiKit_MB_47_4*%
X85000000Y-38699999D03*
%TD*%
%TO.C,KiKit_MB_3_6*%
X22666667Y-5700000D03*
%TD*%
D19*
%TO.C,J4*%
X52365001Y-84300000D03*
%TD*%
%TO.C,J1*%
X16555001Y-51365000D03*
%TD*%
%TO.C,J2*%
X49825001Y-84300000D03*
%TD*%
D17*
%TO.C,J11*%
X51095001Y-53700000D03*
%TD*%
D10*
%TO.C,R9*%
X41500000Y-76297500D03*
X41500000Y-75102500D03*
%TD*%
%TO.C,R9*%
X41500000Y-43297500D03*
X41500000Y-42102500D03*
%TD*%
D14*
%TO.C,KiKit_MB_62_4*%
X36300000Y-65499999D03*
%TD*%
D17*
%TO.C,J13*%
X53635001Y-64700000D03*
%TD*%
D18*
%TO.C,C2*%
X93500000Y-85080000D03*
X93500000Y-84120000D03*
%TD*%
D10*
%TO.C,R2*%
X29500000Y-21297500D03*
X29500000Y-20102500D03*
%TD*%
D14*
%TO.C,KiKit_MB_96_4*%
X85000000Y-92299999D03*
%TD*%
D17*
%TO.C,J10*%
X49825001Y-75700000D03*
%TD*%
D14*
%TO.C,KiKit_MB_85_3*%
X5700000Y-88333332D03*
%TD*%
%TO.C,KiKit_MB_51_4*%
X21000000Y-49699999D03*
%TD*%
D11*
%TO.C,J18*%
X92620000Y-89500000D03*
%TD*%
D19*
%TO.C,J7*%
X24175001Y-84300000D03*
%TD*%
D14*
%TO.C,KiKit_MB_19_2*%
X51333333Y-16699999D03*
%TD*%
D11*
%TO.C,J18*%
X60620000Y-34500000D03*
%TD*%
D10*
%TO.C,R2*%
X93500000Y-54297500D03*
X93500000Y-53102500D03*
%TD*%
D19*
%TO.C,J3*%
X19095001Y-29300000D03*
%TD*%
D14*
%TO.C,KiKit_MB_88_6*%
X19333334Y-92299999D03*
%TD*%
D11*
%TO.C,J17*%
X55540000Y-78500000D03*
%TD*%
D19*
%TO.C,J2*%
X81825001Y-7300000D03*
%TD*%
D12*
%TO.C,JP2*%
X59849999Y-79600000D03*
D13*
X58550001Y-79600000D03*
%TD*%
D11*
%TO.C,J21*%
X13380000Y-23500000D03*
%TD*%
D17*
%TO.C,J15*%
X24175001Y-75700000D03*
%TD*%
D14*
%TO.C,KiKit_MB_66_3*%
X68300000Y-64666666D03*
%TD*%
%TO.C,KiKit_MB_29_4*%
X37700000Y-32499999D03*
%TD*%
D10*
%TO.C,R7*%
X71500000Y-54297500D03*
X71500000Y-53102500D03*
%TD*%
D18*
%TO.C,C11*%
X11500000Y-74080000D03*
X11500000Y-73120000D03*
%TD*%
%TO.C,C10*%
X10500000Y-52080000D03*
X10500000Y-51120000D03*
%TD*%
D10*
%TO.C,R5*%
X34500000Y-21297500D03*
X34500000Y-20102500D03*
%TD*%
D19*
%TO.C,J1*%
X16555001Y-7365000D03*
%TD*%
D14*
%TO.C,KiKit_MB_61_4*%
X5700000Y-65499999D03*
%TD*%
D10*
%TO.C,R1*%
X62500000Y-21297500D03*
X62500000Y-20102500D03*
%TD*%
D19*
%TO.C,J7*%
X56175001Y-18300000D03*
%TD*%
D14*
%TO.C,KiKit_MB_17_7*%
X37700000Y-18999999D03*
%TD*%
D10*
%TO.C,R7*%
X71500000Y-21297500D03*
X71500000Y-20102500D03*
%TD*%
D18*
%TO.C,C5*%
X34500000Y-74080000D03*
X34500000Y-73120000D03*
%TD*%
%TO.C,C8*%
X40500000Y-85080000D03*
X40500000Y-84120000D03*
%TD*%
%TO.C,C11*%
X43500000Y-41080000D03*
X43500000Y-40120000D03*
%TD*%
D19*
%TO.C,J7*%
X88175001Y-18300000D03*
%TD*%
D17*
%TO.C,J9*%
X16555001Y-64765000D03*
%TD*%
D14*
%TO.C,KiKit_MB_33_2*%
X69700000Y-34166666D03*
%TD*%
D10*
%TO.C,R9*%
X73500000Y-65297500D03*
X73500000Y-64102500D03*
%TD*%
D14*
%TO.C,KiKit_MB_93_2*%
X69700000Y-89166666D03*
%TD*%
D19*
%TO.C,J8*%
X57445001Y-51365000D03*
%TD*%
D14*
%TO.C,KiKit_MB_61_6*%
X5700000Y-63833332D03*
%TD*%
D18*
%TO.C,C6*%
X65500000Y-41080000D03*
X65500000Y-40120000D03*
%TD*%
D10*
%TO.C,R6*%
X33500000Y-87297500D03*
X33500000Y-86102500D03*
%TD*%
D17*
%TO.C,J10*%
X17825001Y-86700000D03*
%TD*%
D14*
%TO.C,KiKit_MB_90_3*%
X68300000Y-86666666D03*
%TD*%
%TO.C,KiKit_MB_68_2*%
X54666667Y-70299999D03*
%TD*%
%TO.C,KiKit_MB_85_2*%
X5700000Y-89166666D03*
%TD*%
%TO.C,KiKit_MB_21_1*%
X69700000Y-23999999D03*
%TD*%
%TO.C,KiKit_MB_21_5*%
X69700000Y-20666666D03*
%TD*%
D19*
%TO.C,J2*%
X17825001Y-18300000D03*
%TD*%
D10*
%TO.C,R10*%
X42500000Y-43297500D03*
X42500000Y-42102500D03*
%TD*%
D20*
%TO.C,JP1*%
X25100000Y-34449999D03*
D21*
X25100000Y-33150001D03*
%TD*%
D14*
%TO.C,KiKit_MB_18_5*%
X68300000Y-22333332D03*
%TD*%
D17*
%TO.C,J16*%
X25445001Y-64765000D03*
%TD*%
D14*
%TO.C,KiKit_MB_81_1*%
X69700000Y-78999999D03*
%TD*%
D18*
%TO.C,C6*%
X33500000Y-30080000D03*
X33500000Y-29120000D03*
%TD*%
D10*
%TO.C,R5*%
X66500000Y-54297500D03*
X66500000Y-53102500D03*
%TD*%
%TO.C,R9*%
X41500000Y-54297500D03*
X41500000Y-53102500D03*
%TD*%
D14*
%TO.C,KiKit_MB_91_2*%
X51333333Y-82699999D03*
%TD*%
D18*
%TO.C,C11*%
X11500000Y-19080000D03*
X11500000Y-18120000D03*
%TD*%
D14*
%TO.C,KiKit_MB_69_7*%
X69700000Y-62999999D03*
%TD*%
%TO.C,KiKit_MB_24_7*%
X82500000Y-26299999D03*
%TD*%
%TO.C,KiKit_MB_42_7*%
X68300000Y-45999999D03*
%TD*%
%TO.C,KiKit_MB_71_2*%
X83333333Y-60699999D03*
%TD*%
D11*
%TO.C,J18*%
X60620000Y-12500000D03*
%TD*%
D14*
%TO.C,KiKit_MB_69_5*%
X69700000Y-64666666D03*
%TD*%
D10*
%TO.C,R7*%
X7500000Y-76297500D03*
X7500000Y-75102500D03*
%TD*%
D14*
%TO.C,KiKit_MB_65_5*%
X37700000Y-64666666D03*
%TD*%
%TO.C,KiKit_MB_10_2*%
X100300000Y-8833333D03*
%TD*%
D19*
%TO.C,J7*%
X88175001Y-51300000D03*
%TD*%
D14*
%TO.C,KiKit_MB_12_3*%
X85833333Y-15299999D03*
%TD*%
D19*
%TO.C,J7*%
X56175001Y-40300000D03*
%TD*%
D14*
%TO.C,KiKit_MB_43_2*%
X51333333Y-38699999D03*
%TD*%
D19*
%TO.C,J7*%
X56175001Y-51300000D03*
%TD*%
D17*
%TO.C,J10*%
X81825001Y-9700000D03*
%TD*%
D10*
%TO.C,R8*%
X72500000Y-87297500D03*
X72500000Y-86102500D03*
%TD*%
D14*
%TO.C,KiKit_MB_33_3*%
X69700000Y-33333332D03*
%TD*%
D18*
%TO.C,C1*%
X30500000Y-41080000D03*
X30500000Y-40120000D03*
%TD*%
D20*
%TO.C,JP1*%
X89100000Y-34449999D03*
D21*
X89100000Y-33150001D03*
%TD*%
D14*
%TO.C,KiKit_MB_81_3*%
X69700000Y-77333332D03*
%TD*%
%TO.C,KiKit_MB_102_3*%
X1600000Y-91999999D03*
%TD*%
D18*
%TO.C,C11*%
X43500000Y-74080000D03*
X43500000Y-73120000D03*
%TD*%
%TO.C,C1*%
X62500000Y-63080000D03*
X62500000Y-62120000D03*
%TD*%
%TO.C,C1*%
X30500000Y-85080000D03*
X30500000Y-84120000D03*
%TD*%
D17*
%TO.C,J11*%
X83095001Y-9700000D03*
%TD*%
D14*
%TO.C,KiKit_MB_91_5*%
X53833333Y-82699999D03*
%TD*%
%TO.C,KiKit_MB_5_2*%
X37700000Y-12166666D03*
%TD*%
D18*
%TO.C,C6*%
X97500000Y-74080000D03*
X97500000Y-73120000D03*
%TD*%
D14*
%TO.C,KiKit_MB_53_1*%
X37700000Y-56999999D03*
%TD*%
%TO.C,KiKit_MB_37_3*%
X5700000Y-44333332D03*
%TD*%
D18*
%TO.C,C12*%
X12500000Y-85080000D03*
X12500000Y-84120000D03*
%TD*%
D10*
%TO.C,R6*%
X97500000Y-54297500D03*
X97500000Y-53102500D03*
%TD*%
D19*
%TO.C,J7*%
X24175001Y-73300000D03*
%TD*%
D20*
%TO.C,JP1*%
X89100000Y-45449999D03*
D21*
X89100000Y-44150001D03*
%TD*%
D14*
%TO.C,KiKit_MB_52_2*%
X22666667Y-59299999D03*
%TD*%
D18*
%TO.C,C4*%
X95500000Y-63080000D03*
X95500000Y-62120000D03*
%TD*%
D14*
%TO.C,KiKit_MB_24_3*%
X85833333Y-26299999D03*
%TD*%
D18*
%TO.C,C4*%
X31500000Y-41080000D03*
X31500000Y-40120000D03*
%TD*%
D14*
%TO.C,KiKit_MB_26_2*%
X36300000Y-30833332D03*
%TD*%
D18*
%TO.C,C6*%
X97500000Y-19080000D03*
X97500000Y-18120000D03*
%TD*%
%TO.C,C8*%
X8500000Y-8080000D03*
X8500000Y-7120000D03*
%TD*%
D17*
%TO.C,J12*%
X52365001Y-31700000D03*
%TD*%
D14*
%TO.C,KiKit_MB_34_7*%
X100300000Y-34999999D03*
%TD*%
D15*
%TO.C,JP4*%
X41150001Y-90600000D03*
D16*
X42449999Y-90600000D03*
%TD*%
D18*
%TO.C,C4*%
X31500000Y-63080000D03*
X31500000Y-62120000D03*
%TD*%
D14*
%TO.C,KiKit_MB_11_5*%
X85833333Y-5700000D03*
%TD*%
D17*
%TO.C,J10*%
X49825001Y-53700000D03*
%TD*%
D18*
%TO.C,C1*%
X94500000Y-52080000D03*
X94500000Y-51120000D03*
%TD*%
%TO.C,C10*%
X10500000Y-19080000D03*
X10500000Y-18120000D03*
%TD*%
D10*
%TO.C,R4*%
X63500000Y-32297500D03*
X63500000Y-31102500D03*
%TD*%
D18*
%TO.C,C10*%
X42500000Y-85080000D03*
X42500000Y-84120000D03*
%TD*%
D10*
%TO.C,R9*%
X9500000Y-43297500D03*
X9500000Y-42102500D03*
%TD*%
D18*
%TO.C,C11*%
X11500000Y-52080000D03*
X11500000Y-51120000D03*
%TD*%
D12*
%TO.C,JP3*%
X96849999Y-57600000D03*
D13*
X95550001Y-57600000D03*
%TD*%
D14*
%TO.C,KiKit_MB_58_7*%
X100300000Y-56999999D03*
%TD*%
D17*
%TO.C,J13*%
X53635001Y-75700000D03*
%TD*%
D14*
%TO.C,KiKit_MB_76_7*%
X18500001Y-81299999D03*
%TD*%
%TO.C,KiKit_MB_45_6*%
X69700000Y-41833332D03*
%TD*%
D10*
%TO.C,R11*%
X43500000Y-87297500D03*
X43500000Y-86102500D03*
%TD*%
D18*
%TO.C,C6*%
X33500000Y-85080000D03*
X33500000Y-84120000D03*
%TD*%
D11*
%TO.C,J17*%
X87540000Y-45500000D03*
%TD*%
D20*
%TO.C,JP1*%
X25100000Y-12449999D03*
D21*
X25100000Y-11150001D03*
%TD*%
D11*
%TO.C,J21*%
X45380000Y-56500000D03*
%TD*%
D10*
%TO.C,R12*%
X12500000Y-21297500D03*
X12500000Y-20102500D03*
%TD*%
D14*
%TO.C,KiKit_MB_27_4*%
X21000000Y-27699999D03*
%TD*%
D20*
%TO.C,JP1*%
X57100000Y-56449999D03*
D21*
X57100000Y-55150001D03*
%TD*%
D17*
%TO.C,J14*%
X54905001Y-31700000D03*
%TD*%
D18*
%TO.C,C3*%
X32500000Y-41082500D03*
X32500000Y-40122500D03*
%TD*%
D14*
%TO.C,KiKit_MB_23_7*%
X87500000Y-16699999D03*
%TD*%
D19*
%TO.C,J6*%
X22905001Y-40300000D03*
%TD*%
D18*
%TO.C,C6*%
X65500000Y-85080000D03*
X65500000Y-84120000D03*
%TD*%
%TO.C,C2*%
X29500000Y-8080000D03*
X29500000Y-7120000D03*
%TD*%
D19*
%TO.C,J3*%
X51095001Y-40300000D03*
%TD*%
D18*
%TO.C,C10*%
X10500000Y-8080000D03*
X10500000Y-7120000D03*
%TD*%
%TO.C,C3*%
X96500000Y-41082500D03*
X96500000Y-40122500D03*
%TD*%
%TO.C,C2*%
X29500000Y-74080000D03*
X29500000Y-73120000D03*
%TD*%
D10*
%TO.C,R6*%
X33500000Y-76297500D03*
X33500000Y-75102500D03*
%TD*%
D18*
%TO.C,C10*%
X42500000Y-63080000D03*
X42500000Y-62120000D03*
%TD*%
D19*
%TO.C,J4*%
X20365001Y-73300000D03*
%TD*%
%TO.C,J4*%
X84365001Y-18300000D03*
%TD*%
D14*
%TO.C,KiKit_MB_83_1*%
X82500000Y-71699999D03*
%TD*%
D19*
%TO.C,J1*%
X80555001Y-51365000D03*
%TD*%
D18*
%TO.C,C3*%
X64500000Y-85082500D03*
X64500000Y-84122500D03*
%TD*%
D19*
%TO.C,J2*%
X17825001Y-29300000D03*
%TD*%
D18*
%TO.C,C7*%
X39500000Y-63080000D03*
X39500000Y-62120000D03*
%TD*%
D14*
%TO.C,KiKit_MB_102_4*%
X2400000Y-91999999D03*
%TD*%
D10*
%TO.C,R7*%
X39500000Y-87297500D03*
X39500000Y-86102500D03*
%TD*%
D14*
%TO.C,KiKit_MB_21_2*%
X69700000Y-23166666D03*
%TD*%
D18*
%TO.C,C6*%
X65500000Y-52080000D03*
X65500000Y-51120000D03*
%TD*%
D19*
%TO.C,J2*%
X17825001Y-40300000D03*
%TD*%
%TO.C,J6*%
X22905001Y-29300000D03*
%TD*%
D10*
%TO.C,R11*%
X11500000Y-65297500D03*
X11500000Y-64102500D03*
%TD*%
D14*
%TO.C,KiKit_MB_49_4*%
X5700000Y-54499999D03*
%TD*%
%TO.C,KiKit_MB_3_4*%
X21000000Y-5700000D03*
%TD*%
D10*
%TO.C,R8*%
X40500000Y-87297500D03*
X40500000Y-86102500D03*
%TD*%
D12*
%TO.C,JP2*%
X27849999Y-90600000D03*
D13*
X26550001Y-90600000D03*
%TD*%
D18*
%TO.C,C1*%
X30500000Y-52080000D03*
X30500000Y-51120000D03*
%TD*%
D10*
%TO.C,R12*%
X76500000Y-32297500D03*
X76500000Y-31102500D03*
%TD*%
D19*
%TO.C,J8*%
X25445001Y-73365000D03*
%TD*%
%TO.C,J6*%
X22905001Y-62300000D03*
%TD*%
D14*
%TO.C,KiKit_MB_26_4*%
X36300000Y-32499999D03*
%TD*%
D12*
%TO.C,JP2*%
X59849999Y-46600000D03*
D13*
X58550001Y-46600000D03*
%TD*%
D14*
%TO.C,KiKit_MB_72_3*%
X85833333Y-70299999D03*
%TD*%
%TO.C,KiKit_MB_48_7*%
X82500000Y-48299999D03*
%TD*%
%TO.C,KiKit_MB_75_6*%
X22666667Y-71699999D03*
%TD*%
%TO.C,KiKit_MB_12_4*%
X85000000Y-15299999D03*
%TD*%
D18*
%TO.C,C8*%
X40500000Y-8080000D03*
X40500000Y-7120000D03*
%TD*%
D10*
%TO.C,R1*%
X94500000Y-87297500D03*
X94500000Y-86102500D03*
%TD*%
D14*
%TO.C,KiKit_MB_71_3*%
X84166667Y-60699999D03*
%TD*%
D18*
%TO.C,C8*%
X8500000Y-63080000D03*
X8500000Y-62120000D03*
%TD*%
D19*
%TO.C,J7*%
X24175001Y-62300000D03*
%TD*%
D11*
%TO.C,J20*%
X72300000Y-12500000D03*
%TD*%
D17*
%TO.C,J12*%
X84365001Y-31700000D03*
%TD*%
D14*
%TO.C,KiKit_MB_39_7*%
X23500000Y-38699999D03*
%TD*%
D11*
%TO.C,J18*%
X60620000Y-67500000D03*
%TD*%
D10*
%TO.C,R10*%
X74500000Y-54297500D03*
X74500000Y-53102500D03*
%TD*%
D18*
%TO.C,C8*%
X72500000Y-74080000D03*
X72500000Y-73120000D03*
%TD*%
D17*
%TO.C,J9*%
X80555001Y-31765000D03*
%TD*%
D18*
%TO.C,C2*%
X61500000Y-41080000D03*
X61500000Y-40120000D03*
%TD*%
D11*
%TO.C,J17*%
X55540000Y-12500000D03*
%TD*%
%TO.C,J22*%
X50460000Y-34500000D03*
%TD*%
D19*
%TO.C,J1*%
X80555001Y-62365000D03*
%TD*%
D14*
%TO.C,KiKit_MB_76_1*%
X23500000Y-81299999D03*
%TD*%
D10*
%TO.C,R7*%
X7500000Y-65297500D03*
X7500000Y-64102500D03*
%TD*%
D19*
%TO.C,J6*%
X54905001Y-7300000D03*
%TD*%
D18*
%TO.C,C12*%
X12500000Y-19080000D03*
X12500000Y-18120000D03*
%TD*%
D19*
%TO.C,J5*%
X85635001Y-73300000D03*
%TD*%
D14*
%TO.C,KiKit_MB_99_6*%
X6000000Y-98000000D03*
%TD*%
D17*
%TO.C,J9*%
X16555001Y-31765000D03*
%TD*%
D14*
%TO.C,KiKit_MB_3_5*%
X21833333Y-5700000D03*
%TD*%
D18*
%TO.C,C11*%
X43500000Y-52080000D03*
X43500000Y-51120000D03*
%TD*%
D14*
%TO.C,KiKit_MB_85_4*%
X5700000Y-87499999D03*
%TD*%
D17*
%TO.C,J11*%
X83095001Y-31700000D03*
%TD*%
D19*
%TO.C,J2*%
X49825001Y-7300000D03*
%TD*%
D18*
%TO.C,C2*%
X29500000Y-52080000D03*
X29500000Y-51120000D03*
%TD*%
D14*
%TO.C,KiKit_MB_96_1*%
X87500000Y-92299999D03*
%TD*%
D17*
%TO.C,J9*%
X48555001Y-9765000D03*
%TD*%
D10*
%TO.C,R3*%
X96500000Y-65300000D03*
X96500000Y-64105000D03*
%TD*%
D14*
%TO.C,KiKit_MB_55_6*%
X54666667Y-49699999D03*
%TD*%
%TO.C,KiKit_MB_66_5*%
X68300000Y-66333332D03*
%TD*%
D18*
%TO.C,C10*%
X10500000Y-41080000D03*
X10500000Y-40120000D03*
%TD*%
D10*
%TO.C,R7*%
X7500000Y-54297500D03*
X7500000Y-53102500D03*
%TD*%
D11*
%TO.C,J19*%
X97700000Y-34500000D03*
%TD*%
D14*
%TO.C,KiKit_MB_88_4*%
X21000000Y-92299999D03*
%TD*%
%TO.C,KiKit_MB_74_7*%
X36300000Y-78999999D03*
%TD*%
D18*
%TO.C,C5*%
X34500000Y-52080000D03*
X34500000Y-51120000D03*
%TD*%
D14*
%TO.C,KiKit_MB_57_6*%
X69700000Y-52833332D03*
%TD*%
D17*
%TO.C,J13*%
X85635001Y-42700000D03*
%TD*%
D14*
%TO.C,KiKit_MB_6_3*%
X68300000Y-9666667D03*
%TD*%
D18*
%TO.C,C7*%
X7500000Y-85080000D03*
X7500000Y-84120000D03*
%TD*%
D17*
%TO.C,J16*%
X25445001Y-31765000D03*
%TD*%
D10*
%TO.C,R3*%
X64500000Y-76300000D03*
X64500000Y-75105000D03*
%TD*%
%TO.C,R7*%
X39500000Y-21297500D03*
X39500000Y-20102500D03*
%TD*%
D14*
%TO.C,KiKit_MB_4_5*%
X20166668Y-15299999D03*
%TD*%
D10*
%TO.C,R2*%
X93500000Y-43297500D03*
X93500000Y-42102500D03*
%TD*%
D18*
%TO.C,C6*%
X65500000Y-30080000D03*
X65500000Y-29120000D03*
%TD*%
D14*
%TO.C,KiKit_MB_15_1*%
X18500001Y-16699999D03*
%TD*%
D17*
%TO.C,J10*%
X49825001Y-86700000D03*
%TD*%
D14*
%TO.C,KiKit_MB_10_1*%
X100300000Y-8000000D03*
%TD*%
D10*
%TO.C,R6*%
X65500000Y-54297500D03*
X65500000Y-53102500D03*
%TD*%
D17*
%TO.C,J14*%
X54905001Y-20700000D03*
%TD*%
%TO.C,J11*%
X19095001Y-53700000D03*
%TD*%
D10*
%TO.C,R11*%
X43500000Y-76297500D03*
X43500000Y-75102500D03*
%TD*%
D17*
%TO.C,J12*%
X52365001Y-53700000D03*
%TD*%
D18*
%TO.C,C10*%
X42500000Y-41080000D03*
X42500000Y-40120000D03*
%TD*%
D11*
%TO.C,J18*%
X92620000Y-34500000D03*
%TD*%
D19*
%TO.C,J3*%
X83095001Y-18300000D03*
%TD*%
%TO.C,J1*%
X48555001Y-18365000D03*
%TD*%
%TO.C,J5*%
X21635001Y-51300000D03*
%TD*%
D14*
%TO.C,KiKit_MB_46_3*%
X100300000Y-42666666D03*
%TD*%
%TO.C,KiKit_MB_49_1*%
X5700000Y-56999999D03*
%TD*%
%TO.C,KiKit_MB_22_4*%
X100300000Y-21499999D03*
%TD*%
D18*
%TO.C,C3*%
X96500000Y-19082500D03*
X96500000Y-18122500D03*
%TD*%
D14*
%TO.C,KiKit_MB_53_5*%
X37700000Y-53666666D03*
%TD*%
D19*
%TO.C,J8*%
X57445001Y-40365000D03*
%TD*%
D11*
%TO.C,J18*%
X92620000Y-12500000D03*
%TD*%
D19*
%TO.C,J4*%
X52365001Y-40300000D03*
%TD*%
D18*
%TO.C,C8*%
X8500000Y-52080000D03*
X8500000Y-51120000D03*
%TD*%
D19*
%TO.C,J3*%
X19095001Y-51300000D03*
%TD*%
D11*
%TO.C,J20*%
X72300000Y-56500000D03*
%TD*%
D10*
%TO.C,R10*%
X74500000Y-10297500D03*
X74500000Y-9102500D03*
%TD*%
D14*
%TO.C,KiKit_MB_16_6*%
X19333334Y-26299999D03*
%TD*%
D19*
%TO.C,J6*%
X22905001Y-7300000D03*
%TD*%
D20*
%TO.C,JP1*%
X89100000Y-56449999D03*
D21*
X89100000Y-55150001D03*
%TD*%
D10*
%TO.C,R9*%
X73500000Y-10297500D03*
X73500000Y-9102500D03*
%TD*%
D14*
%TO.C,KiKit_MB_23_3*%
X84166667Y-16699999D03*
%TD*%
%TO.C,KiKit_MB_17_3*%
X37700000Y-22333332D03*
%TD*%
D19*
%TO.C,J5*%
X85635001Y-7300000D03*
%TD*%
D10*
%TO.C,R11*%
X75500000Y-54297500D03*
X75500000Y-53102500D03*
%TD*%
D18*
%TO.C,C8*%
X72500000Y-63080000D03*
X72500000Y-62120000D03*
%TD*%
D14*
%TO.C,KiKit_MB_78_2*%
X68300000Y-74833332D03*
%TD*%
%TO.C,KiKit_MB_8_1*%
X55500000Y-15299999D03*
%TD*%
D10*
%TO.C,R5*%
X98500000Y-54297500D03*
X98500000Y-53102500D03*
%TD*%
D14*
%TO.C,KiKit_MB_36_5*%
X84166667Y-37299999D03*
%TD*%
D17*
%TO.C,J13*%
X21635001Y-53700000D03*
%TD*%
%TO.C,J11*%
X19095001Y-75700000D03*
%TD*%
D10*
%TO.C,R6*%
X65500000Y-87297500D03*
X65500000Y-86102500D03*
%TD*%
D19*
%TO.C,J1*%
X48555001Y-40365000D03*
%TD*%
D14*
%TO.C,KiKit_MB_76_3*%
X21833333Y-81299999D03*
%TD*%
D19*
%TO.C,J1*%
X48555001Y-29365000D03*
%TD*%
D14*
%TO.C,KiKit_MB_13_6*%
X5700000Y-19833332D03*
%TD*%
D17*
%TO.C,J9*%
X48555001Y-20765000D03*
%TD*%
D10*
%TO.C,R8*%
X72500000Y-76297500D03*
X72500000Y-75102500D03*
%TD*%
D18*
%TO.C,C1*%
X62500000Y-74080000D03*
X62500000Y-73120000D03*
%TD*%
D15*
%TO.C,JP5*%
X78150001Y-24600000D03*
D16*
X79449999Y-24600000D03*
%TD*%
D18*
%TO.C,C5*%
X66500000Y-41080000D03*
X66500000Y-40120000D03*
%TD*%
%TO.C,C4*%
X31500000Y-74080000D03*
X31500000Y-73120000D03*
%TD*%
D11*
%TO.C,J22*%
X82460000Y-78500000D03*
%TD*%
D18*
%TO.C,C12*%
X44500000Y-30080000D03*
X44500000Y-29120000D03*
%TD*%
D10*
%TO.C,R12*%
X44500000Y-87297500D03*
X44500000Y-86102500D03*
%TD*%
D17*
%TO.C,J11*%
X51095001Y-42700000D03*
%TD*%
D11*
%TO.C,J22*%
X50460000Y-45500000D03*
%TD*%
D14*
%TO.C,KiKit_MB_79_6*%
X54666667Y-71699999D03*
%TD*%
D15*
%TO.C,JP5*%
X78150001Y-57600000D03*
D16*
X79449999Y-57600000D03*
%TD*%
D14*
%TO.C,KiKit_MB_66_2*%
X68300000Y-63833332D03*
%TD*%
D12*
%TO.C,JP2*%
X91849999Y-79600000D03*
D13*
X90550001Y-79600000D03*
%TD*%
D19*
%TO.C,J8*%
X89445001Y-73365000D03*
%TD*%
D18*
%TO.C,C12*%
X76500000Y-63080000D03*
X76500000Y-62120000D03*
%TD*%
D11*
%TO.C,J17*%
X87540000Y-56500000D03*
%TD*%
D10*
%TO.C,R12*%
X12500000Y-43297500D03*
X12500000Y-42102500D03*
%TD*%
D14*
%TO.C,KiKit_MB_7_4*%
X53000000Y-5700000D03*
%TD*%
D10*
%TO.C,R6*%
X97500000Y-10297500D03*
X97500000Y-9102500D03*
%TD*%
D18*
%TO.C,C7*%
X39500000Y-85080000D03*
X39500000Y-84120000D03*
%TD*%
D14*
%TO.C,KiKit_MB_6_4*%
X68300000Y-10500000D03*
%TD*%
D17*
%TO.C,J11*%
X51095001Y-9700000D03*
%TD*%
D15*
%TO.C,JP5*%
X78150001Y-35600000D03*
D16*
X79449999Y-35600000D03*
%TD*%
D14*
%TO.C,KiKit_MB_26_6*%
X36300000Y-34166666D03*
%TD*%
%TO.C,KiKit_MB_1_3*%
X5700000Y-11333332D03*
%TD*%
D17*
%TO.C,J12*%
X52365001Y-42700000D03*
%TD*%
D18*
%TO.C,C3*%
X32500000Y-74082500D03*
X32500000Y-73122500D03*
%TD*%
D10*
%TO.C,R8*%
X72500000Y-54297500D03*
X72500000Y-53102500D03*
%TD*%
D14*
%TO.C,KiKit_MB_19_6*%
X54666667Y-16699999D03*
%TD*%
%TO.C,KiKit_MB_4_7*%
X18500001Y-15299999D03*
%TD*%
D18*
%TO.C,C8*%
X40500000Y-41080000D03*
X40500000Y-40120000D03*
%TD*%
D17*
%TO.C,J11*%
X51095001Y-75700000D03*
%TD*%
D14*
%TO.C,KiKit_MB_33_7*%
X69700000Y-29999999D03*
%TD*%
%TO.C,KiKit_MB_78_6*%
X68300000Y-78166666D03*
%TD*%
%TO.C,KiKit_MB_40_3*%
X21833333Y-48299999D03*
%TD*%
D10*
%TO.C,R4*%
X63500000Y-10297500D03*
X63500000Y-9102500D03*
%TD*%
%TO.C,R9*%
X9500000Y-76297500D03*
X9500000Y-75102500D03*
%TD*%
D18*
%TO.C,C2*%
X61500000Y-52080000D03*
X61500000Y-51120000D03*
%TD*%
D19*
%TO.C,J5*%
X85635001Y-18300000D03*
%TD*%
D10*
%TO.C,R1*%
X30500000Y-10297500D03*
X30500000Y-9102500D03*
%TD*%
D18*
%TO.C,C3*%
X32500000Y-30082500D03*
X32500000Y-29122500D03*
%TD*%
D14*
%TO.C,KiKit_MB_11_3*%
X84166667Y-5700000D03*
%TD*%
D19*
%TO.C,J4*%
X84365001Y-62300000D03*
%TD*%
D11*
%TO.C,J19*%
X33700000Y-34500000D03*
%TD*%
D14*
%TO.C,KiKit_MB_50_7*%
X36300000Y-56999999D03*
%TD*%
%TO.C,KiKit_MB_57_2*%
X69700000Y-56166666D03*
%TD*%
%TO.C,KiKit_MB_52_1*%
X23500000Y-59299999D03*
%TD*%
%TO.C,KiKit_MB_54_2*%
X68300000Y-52833332D03*
%TD*%
D19*
%TO.C,J3*%
X51095001Y-51300000D03*
%TD*%
D10*
%TO.C,R10*%
X10500000Y-43297500D03*
X10500000Y-42102500D03*
%TD*%
D14*
%TO.C,KiKit_MB_18_1*%
X68300000Y-18999999D03*
%TD*%
D11*
%TO.C,J19*%
X97700000Y-89500000D03*
%TD*%
D18*
%TO.C,C7*%
X71500000Y-41080000D03*
X71500000Y-40120000D03*
%TD*%
D14*
%TO.C,KiKit_MB_48_1*%
X87500000Y-48299999D03*
%TD*%
D20*
%TO.C,JP6*%
X80800000Y-56449999D03*
D21*
X80800000Y-55150001D03*
%TD*%
D14*
%TO.C,KiKit_MB_36_3*%
X85833333Y-37299999D03*
%TD*%
D19*
%TO.C,J6*%
X54905001Y-51300000D03*
%TD*%
%TO.C,J3*%
X83095001Y-29300000D03*
%TD*%
D20*
%TO.C,JP1*%
X57100000Y-89449999D03*
D21*
X57100000Y-88150001D03*
%TD*%
D14*
%TO.C,KiKit_MB_59_2*%
X83333333Y-49699999D03*
%TD*%
%TO.C,KiKit_MB_21_6*%
X69700000Y-19833332D03*
%TD*%
D20*
%TO.C,JP6*%
X80800000Y-45449999D03*
D21*
X80800000Y-44150001D03*
%TD*%
D10*
%TO.C,R12*%
X76500000Y-54297500D03*
X76500000Y-53102500D03*
%TD*%
D14*
%TO.C,KiKit_MB_47_6*%
X86666667Y-38699999D03*
%TD*%
D10*
%TO.C,R3*%
X64500000Y-87300000D03*
X64500000Y-86105000D03*
%TD*%
%TO.C,R1*%
X62500000Y-43297500D03*
X62500000Y-42102500D03*
%TD*%
D20*
%TO.C,JP6*%
X16800000Y-45449999D03*
D21*
X16800000Y-44150001D03*
%TD*%
D19*
%TO.C,J3*%
X83095001Y-73300000D03*
%TD*%
D17*
%TO.C,J14*%
X54905001Y-9700000D03*
%TD*%
D14*
%TO.C,KiKit_MB_22_7*%
X100300000Y-23999999D03*
%TD*%
%TO.C,KiKit_MB_34_5*%
X100300000Y-33333332D03*
%TD*%
D11*
%TO.C,J21*%
X77380000Y-89500000D03*
%TD*%
D12*
%TO.C,JP3*%
X64849999Y-35600000D03*
D13*
X63550001Y-35600000D03*
%TD*%
D14*
%TO.C,KiKit_MB_95_1*%
X82500000Y-82699999D03*
%TD*%
D12*
%TO.C,JP2*%
X27849999Y-46600000D03*
D13*
X26550001Y-46600000D03*
%TD*%
D18*
%TO.C,C1*%
X30500000Y-8080000D03*
X30500000Y-7120000D03*
%TD*%
%TO.C,C1*%
X30500000Y-19080000D03*
X30500000Y-18120000D03*
%TD*%
D14*
%TO.C,KiKit_MB_60_1*%
X87500000Y-59299999D03*
%TD*%
%TO.C,KiKit_MB_47_3*%
X84166667Y-38699999D03*
%TD*%
D19*
%TO.C,J8*%
X89445001Y-7365000D03*
%TD*%
D14*
%TO.C,KiKit_MB_21_4*%
X69700000Y-21499999D03*
%TD*%
D19*
%TO.C,J1*%
X48555001Y-62365000D03*
%TD*%
D10*
%TO.C,R4*%
X95500000Y-54297500D03*
X95500000Y-53102500D03*
%TD*%
D14*
%TO.C,KiKit_MB_9_4*%
X69700000Y-10500000D03*
%TD*%
%TO.C,KiKit_MB_56_7*%
X50500000Y-59299999D03*
%TD*%
D17*
%TO.C,J9*%
X48555001Y-75765000D03*
%TD*%
D18*
%TO.C,C12*%
X44500000Y-41080000D03*
X44500000Y-40120000D03*
%TD*%
D11*
%TO.C,J21*%
X77380000Y-67500000D03*
%TD*%
D19*
%TO.C,J5*%
X53635001Y-18300000D03*
%TD*%
D14*
%TO.C,KiKit_MB_73_2*%
X5700000Y-78166666D03*
%TD*%
D17*
%TO.C,J11*%
X51095001Y-20700000D03*
%TD*%
D14*
%TO.C,KiKit_MB_44_2*%
X54666667Y-48299999D03*
%TD*%
%TO.C,KiKit_MB_16_4*%
X21000000Y-26299999D03*
%TD*%
D12*
%TO.C,JP3*%
X96849999Y-90600000D03*
D13*
X95550001Y-90600000D03*
%TD*%
D14*
%TO.C,KiKit_MB_25_3*%
X5700000Y-33333332D03*
%TD*%
%TO.C,KiKit_MB_52_7*%
X18500001Y-59299999D03*
%TD*%
%TO.C,KiKit_MB_32_7*%
X50500000Y-37299999D03*
%TD*%
D10*
%TO.C,R5*%
X66500000Y-43297500D03*
X66500000Y-42102500D03*
%TD*%
%TO.C,R2*%
X61500000Y-65297500D03*
X61500000Y-64102500D03*
%TD*%
D19*
%TO.C,J4*%
X84365001Y-84300000D03*
%TD*%
D14*
%TO.C,KiKit_MB_98_4*%
X100000001Y-2400000D03*
%TD*%
D11*
%TO.C,J17*%
X55540000Y-89500000D03*
%TD*%
D10*
%TO.C,R1*%
X94500000Y-76297500D03*
X94500000Y-75102500D03*
%TD*%
D19*
%TO.C,J6*%
X54905001Y-84300000D03*
%TD*%
D18*
%TO.C,C9*%
X73500000Y-30080000D03*
X73500000Y-29120000D03*
%TD*%
D19*
%TO.C,J3*%
X51095001Y-29300000D03*
%TD*%
D18*
%TO.C,C11*%
X75500000Y-30080000D03*
X75500000Y-29120000D03*
%TD*%
D10*
%TO.C,R6*%
X97500000Y-32297500D03*
X97500000Y-31102500D03*
%TD*%
D14*
%TO.C,KiKit_MB_60_4*%
X85000000Y-59299999D03*
%TD*%
D18*
%TO.C,C10*%
X42500000Y-52080000D03*
X42500000Y-51120000D03*
%TD*%
D14*
%TO.C,KiKit_MB_51_5*%
X21833333Y-49699999D03*
%TD*%
D10*
%TO.C,R11*%
X75500000Y-10297500D03*
X75500000Y-9102500D03*
%TD*%
D18*
%TO.C,C10*%
X74500000Y-85080000D03*
X74500000Y-84120000D03*
%TD*%
%TO.C,C7*%
X71500000Y-52080000D03*
X71500000Y-51120000D03*
%TD*%
D14*
%TO.C,KiKit_MB_59_7*%
X87500000Y-49699999D03*
%TD*%
%TO.C,KiKit_MB_101_1*%
X0Y-6000000D03*
%TD*%
D20*
%TO.C,JP6*%
X80800000Y-12449999D03*
D21*
X80800000Y-11150001D03*
%TD*%
D17*
%TO.C,J10*%
X17825001Y-64700000D03*
%TD*%
D11*
%TO.C,J19*%
X65700000Y-12500000D03*
%TD*%
D10*
%TO.C,R9*%
X41500000Y-32297500D03*
X41500000Y-31102500D03*
%TD*%
D19*
%TO.C,J4*%
X84365001Y-73300000D03*
%TD*%
%TO.C,J7*%
X56175001Y-7300000D03*
%TD*%
D18*
%TO.C,C9*%
X9500000Y-74080000D03*
X9500000Y-73120000D03*
%TD*%
%TO.C,C9*%
X41500000Y-8080000D03*
X41500000Y-7120000D03*
%TD*%
D14*
%TO.C,KiKit_MB_2_3*%
X36300000Y-9666667D03*
%TD*%
%TO.C,KiKit_MB_49_2*%
X5700000Y-56166666D03*
%TD*%
D10*
%TO.C,R2*%
X61500000Y-54297500D03*
X61500000Y-53102500D03*
%TD*%
D18*
%TO.C,C2*%
X61500000Y-85080000D03*
X61500000Y-84120000D03*
%TD*%
D17*
%TO.C,J15*%
X56175001Y-75700000D03*
%TD*%
D14*
%TO.C,KiKit_MB_5_4*%
X37700000Y-10500000D03*
%TD*%
%TO.C,KiKit_MB_8_2*%
X54666667Y-15299999D03*
%TD*%
D19*
%TO.C,J3*%
X19095001Y-62300000D03*
%TD*%
D17*
%TO.C,J10*%
X81825001Y-42700000D03*
%TD*%
D19*
%TO.C,J4*%
X52365001Y-73300000D03*
%TD*%
D17*
%TO.C,J9*%
X16555001Y-53765000D03*
%TD*%
D10*
%TO.C,R1*%
X62500000Y-65297500D03*
X62500000Y-64102500D03*
%TD*%
D18*
%TO.C,C6*%
X65500000Y-19080000D03*
X65500000Y-18120000D03*
%TD*%
D20*
%TO.C,JP6*%
X80800000Y-67449999D03*
D21*
X80800000Y-66150001D03*
%TD*%
D14*
%TO.C,KiKit_MB_35_4*%
X85000000Y-27699999D03*
%TD*%
%TO.C,KiKit_MB_43_5*%
X53833333Y-38699999D03*
%TD*%
D18*
%TO.C,C9*%
X9500000Y-30080000D03*
X9500000Y-29120000D03*
%TD*%
D11*
%TO.C,J17*%
X87540000Y-78500000D03*
%TD*%
D18*
%TO.C,C10*%
X42500000Y-74080000D03*
X42500000Y-73120000D03*
%TD*%
D11*
%TO.C,J21*%
X13380000Y-34500000D03*
%TD*%
D10*
%TO.C,R3*%
X64500000Y-43300000D03*
X64500000Y-42105000D03*
%TD*%
D18*
%TO.C,C2*%
X93500000Y-52080000D03*
X93500000Y-51120000D03*
%TD*%
%TO.C,C4*%
X63500000Y-19080000D03*
X63500000Y-18120000D03*
%TD*%
D14*
%TO.C,KiKit_MB_72_5*%
X84166667Y-70299999D03*
%TD*%
D19*
%TO.C,J5*%
X53635001Y-62300000D03*
%TD*%
D18*
%TO.C,C1*%
X94500000Y-19080000D03*
X94500000Y-18120000D03*
%TD*%
D19*
%TO.C,J6*%
X86905001Y-7300000D03*
%TD*%
D14*
%TO.C,KiKit_MB_73_3*%
X5700000Y-77333332D03*
%TD*%
D11*
%TO.C,J18*%
X28620000Y-34500000D03*
%TD*%
D17*
%TO.C,J12*%
X20365001Y-31700000D03*
%TD*%
D18*
%TO.C,C12*%
X44500000Y-85080000D03*
X44500000Y-84120000D03*
%TD*%
D14*
%TO.C,KiKit_MB_59_3*%
X84166667Y-49699999D03*
%TD*%
%TO.C,KiKit_MB_46_7*%
X100300000Y-45999999D03*
%TD*%
%TO.C,KiKit_MB_12_2*%
X86666667Y-15299999D03*
%TD*%
D11*
%TO.C,J22*%
X50460000Y-23500000D03*
%TD*%
D10*
%TO.C,R12*%
X44500000Y-21297500D03*
X44500000Y-20102500D03*
%TD*%
D19*
%TO.C,J1*%
X80555001Y-73365000D03*
%TD*%
D17*
%TO.C,J12*%
X84365001Y-42700000D03*
%TD*%
D19*
%TO.C,J4*%
X20365001Y-18300000D03*
%TD*%
D18*
%TO.C,C5*%
X66500000Y-52080000D03*
X66500000Y-51120000D03*
%TD*%
D14*
%TO.C,KiKit_MB_19_5*%
X53833333Y-16699999D03*
%TD*%
D17*
%TO.C,J15*%
X88175001Y-64700000D03*
%TD*%
D14*
%TO.C,KiKit_MB_81_4*%
X69700000Y-76499999D03*
%TD*%
%TO.C,KiKit_MB_35_1*%
X82500000Y-27699999D03*
%TD*%
D18*
%TO.C,C11*%
X11500000Y-30080000D03*
X11500000Y-29120000D03*
%TD*%
D17*
%TO.C,J12*%
X20365001Y-86700000D03*
%TD*%
%TO.C,J9*%
X16555001Y-20765000D03*
%TD*%
D18*
%TO.C,C7*%
X71500000Y-85080000D03*
X71500000Y-84120000D03*
%TD*%
D20*
%TO.C,JP6*%
X16800000Y-23449999D03*
D21*
X16800000Y-22150001D03*
%TD*%
D14*
%TO.C,KiKit_MB_90_7*%
X68300000Y-89999999D03*
%TD*%
D10*
%TO.C,R8*%
X72500000Y-10297500D03*
X72500000Y-9102500D03*
%TD*%
D14*
%TO.C,KiKit_MB_21_7*%
X69700000Y-18999999D03*
%TD*%
D10*
%TO.C,R3*%
X32500000Y-43300000D03*
X32500000Y-42105000D03*
%TD*%
D14*
%TO.C,KiKit_MB_55_1*%
X50500000Y-49699999D03*
%TD*%
D17*
%TO.C,J10*%
X17825001Y-42700000D03*
%TD*%
D14*
%TO.C,KiKit_MB_77_1*%
X37700000Y-78999999D03*
%TD*%
D20*
%TO.C,JP6*%
X48800000Y-12449999D03*
D21*
X48800000Y-11150001D03*
%TD*%
D15*
%TO.C,JP4*%
X73150001Y-13600000D03*
D16*
X74449999Y-13600000D03*
%TD*%
D14*
%TO.C,KiKit_MB_91_4*%
X53000000Y-82699999D03*
%TD*%
D10*
%TO.C,R3*%
X32500000Y-21300000D03*
X32500000Y-20105000D03*
%TD*%
D17*
%TO.C,J14*%
X22905001Y-20700000D03*
%TD*%
D14*
%TO.C,KiKit_MB_53_4*%
X37700000Y-54499999D03*
%TD*%
D10*
%TO.C,R2*%
X29500000Y-54297500D03*
X29500000Y-53102500D03*
%TD*%
D14*
%TO.C,KiKit_MB_95_7*%
X87500000Y-82699999D03*
%TD*%
%TO.C,KiKit_MB_85_7*%
X5700000Y-84999999D03*
%TD*%
D20*
%TO.C,JP1*%
X25100000Y-78449999D03*
D21*
X25100000Y-77150001D03*
%TD*%
D10*
%TO.C,R7*%
X7500000Y-43297500D03*
X7500000Y-42102500D03*
%TD*%
D18*
%TO.C,C8*%
X8500000Y-85080000D03*
X8500000Y-84120000D03*
%TD*%
%TO.C,C5*%
X66500000Y-85080000D03*
X66500000Y-84120000D03*
%TD*%
D14*
%TO.C,KiKit_MB_38_1*%
X36300000Y-40999999D03*
%TD*%
D10*
%TO.C,R4*%
X95500000Y-65297500D03*
X95500000Y-64102500D03*
%TD*%
D14*
%TO.C,KiKit_MB_61_7*%
X5700000Y-62999999D03*
%TD*%
D17*
%TO.C,J9*%
X48555001Y-86765000D03*
%TD*%
D14*
%TO.C,KiKit_MB_12_1*%
X87500000Y-15299999D03*
%TD*%
D10*
%TO.C,R2*%
X29500000Y-43297500D03*
X29500000Y-42102500D03*
%TD*%
D14*
%TO.C,KiKit_MB_45_2*%
X69700000Y-45166666D03*
%TD*%
D18*
%TO.C,C1*%
X94500000Y-63080000D03*
X94500000Y-62120000D03*
%TD*%
D19*
%TO.C,J5*%
X53635001Y-29300000D03*
%TD*%
D18*
%TO.C,C7*%
X7500000Y-41080000D03*
X7500000Y-40120000D03*
%TD*%
D19*
%TO.C,J6*%
X22905001Y-18300000D03*
%TD*%
D14*
%TO.C,KiKit_MB_10_4*%
X100300000Y-10500000D03*
%TD*%
D11*
%TO.C,J21*%
X13380000Y-89500000D03*
%TD*%
D14*
%TO.C,KiKit_MB_55_3*%
X52166667Y-49699999D03*
%TD*%
D19*
%TO.C,J8*%
X89445001Y-18365000D03*
%TD*%
D14*
%TO.C,KiKit_MB_54_1*%
X68300000Y-51999999D03*
%TD*%
%TO.C,KiKit_MB_48_6*%
X83333333Y-48299999D03*
%TD*%
D18*
%TO.C,C4*%
X31500000Y-19080000D03*
X31500000Y-18120000D03*
%TD*%
D10*
%TO.C,R8*%
X8500000Y-87297500D03*
X8500000Y-86102500D03*
%TD*%
D20*
%TO.C,JP6*%
X48800000Y-67449999D03*
D21*
X48800000Y-66150001D03*
%TD*%
D10*
%TO.C,R2*%
X29500000Y-87297500D03*
X29500000Y-86102500D03*
%TD*%
D14*
%TO.C,KiKit_MB_58_4*%
X100300000Y-54499999D03*
%TD*%
D18*
%TO.C,C3*%
X32500000Y-8082500D03*
X32500000Y-7122500D03*
%TD*%
D10*
%TO.C,R11*%
X43500000Y-43297500D03*
X43500000Y-42102500D03*
%TD*%
D17*
%TO.C,J12*%
X84365001Y-9700000D03*
%TD*%
D18*
%TO.C,C11*%
X75500000Y-85080000D03*
X75500000Y-84120000D03*
%TD*%
D10*
%TO.C,R11*%
X75500000Y-21297500D03*
X75500000Y-20102500D03*
%TD*%
D15*
%TO.C,JP4*%
X73150001Y-57600000D03*
D16*
X74449999Y-57600000D03*
%TD*%
D19*
%TO.C,J8*%
X25445001Y-51365000D03*
%TD*%
D10*
%TO.C,R1*%
X30500000Y-43297500D03*
X30500000Y-42102500D03*
%TD*%
D19*
%TO.C,J2*%
X17825001Y-73300000D03*
%TD*%
D14*
%TO.C,KiKit_MB_63_4*%
X21000000Y-60699999D03*
%TD*%
D10*
%TO.C,R9*%
X73500000Y-43297500D03*
X73500000Y-42102500D03*
%TD*%
D18*
%TO.C,C10*%
X10500000Y-30080000D03*
X10500000Y-29120000D03*
%TD*%
%TO.C,C11*%
X75500000Y-19080000D03*
X75500000Y-18120000D03*
%TD*%
D17*
%TO.C,J16*%
X25445001Y-86765000D03*
%TD*%
D11*
%TO.C,J18*%
X92620000Y-56500000D03*
%TD*%
%TO.C,J20*%
X40300000Y-12500000D03*
%TD*%
%TO.C,J22*%
X82460000Y-89500000D03*
%TD*%
D14*
%TO.C,KiKit_MB_102_5*%
X3200000Y-91999999D03*
%TD*%
%TO.C,KiKit_MB_91_3*%
X52166667Y-82699999D03*
%TD*%
D10*
%TO.C,R11*%
X75500000Y-87297500D03*
X75500000Y-86102500D03*
%TD*%
%TO.C,R7*%
X39500000Y-65297500D03*
X39500000Y-64102500D03*
%TD*%
D14*
%TO.C,KiKit_MB_27_1*%
X18500001Y-27699999D03*
%TD*%
D17*
%TO.C,J9*%
X80555001Y-20765000D03*
%TD*%
D19*
%TO.C,J2*%
X49825001Y-62300000D03*
%TD*%
D14*
%TO.C,KiKit_MB_26_5*%
X36300000Y-33333332D03*
%TD*%
%TO.C,KiKit_MB_66_4*%
X68300000Y-65499999D03*
%TD*%
D18*
%TO.C,C8*%
X72500000Y-52080000D03*
X72500000Y-51120000D03*
%TD*%
D10*
%TO.C,R9*%
X73500000Y-76297500D03*
X73500000Y-75102500D03*
%TD*%
D19*
%TO.C,J8*%
X25445001Y-40365000D03*
%TD*%
D17*
%TO.C,J12*%
X20365001Y-9700000D03*
%TD*%
D20*
%TO.C,JP1*%
X25100000Y-67449999D03*
D21*
X25100000Y-66150001D03*
%TD*%
D14*
%TO.C,KiKit_MB_93_5*%
X69700000Y-86666666D03*
%TD*%
D18*
%TO.C,C7*%
X7500000Y-74080000D03*
X7500000Y-73120000D03*
%TD*%
D10*
%TO.C,R2*%
X93500000Y-21297500D03*
X93500000Y-20102500D03*
%TD*%
D19*
%TO.C,J7*%
X88175001Y-40300000D03*
%TD*%
D14*
%TO.C,KiKit_MB_64_5*%
X20166668Y-70299999D03*
%TD*%
D19*
%TO.C,J1*%
X48555001Y-84365000D03*
%TD*%
D11*
%TO.C,J20*%
X72300000Y-23500000D03*
%TD*%
D19*
%TO.C,J2*%
X49825001Y-29300000D03*
%TD*%
D14*
%TO.C,KiKit_MB_90_1*%
X68300000Y-84999999D03*
%TD*%
D11*
%TO.C,J21*%
X45380000Y-89500000D03*
%TD*%
D18*
%TO.C,C9*%
X9500000Y-63080000D03*
X9500000Y-62120000D03*
%TD*%
D14*
%TO.C,KiKit_MB_75_1*%
X18500001Y-71699999D03*
%TD*%
%TO.C,KiKit_MB_13_2*%
X5700000Y-23166666D03*
%TD*%
D19*
%TO.C,J3*%
X19095001Y-7300000D03*
%TD*%
D14*
%TO.C,KiKit_MB_56_6*%
X51333333Y-59299999D03*
%TD*%
D10*
%TO.C,R10*%
X74500000Y-32297500D03*
X74500000Y-31102500D03*
%TD*%
D11*
%TO.C,J21*%
X13380000Y-78500000D03*
%TD*%
%TO.C,J18*%
X28620000Y-67500000D03*
%TD*%
D18*
%TO.C,C6*%
X97500000Y-41080000D03*
X97500000Y-40120000D03*
%TD*%
D14*
%TO.C,KiKit_MB_66_1*%
X68300000Y-62999999D03*
%TD*%
D17*
%TO.C,J13*%
X85635001Y-9700000D03*
%TD*%
D19*
%TO.C,J2*%
X81825001Y-40300000D03*
%TD*%
D10*
%TO.C,R11*%
X75500000Y-32297500D03*
X75500000Y-31102500D03*
%TD*%
%TO.C,R8*%
X8500000Y-21297500D03*
X8500000Y-20102500D03*
%TD*%
D19*
%TO.C,J4*%
X52365001Y-7300000D03*
%TD*%
D15*
%TO.C,JP5*%
X14150001Y-57600000D03*
D16*
X15449999Y-57600000D03*
%TD*%
D10*
%TO.C,R11*%
X11500000Y-10297500D03*
X11500000Y-9102500D03*
%TD*%
%TO.C,R8*%
X40500000Y-10297500D03*
X40500000Y-9102500D03*
%TD*%
D17*
%TO.C,J16*%
X57445001Y-31765000D03*
%TD*%
D10*
%TO.C,R5*%
X98500000Y-76297500D03*
X98500000Y-75102500D03*
%TD*%
D12*
%TO.C,JP2*%
X91849999Y-57600000D03*
D13*
X90550001Y-57600000D03*
%TD*%
D14*
%TO.C,KiKit_MB_63_3*%
X20166668Y-60699999D03*
%TD*%
%TO.C,KiKit_MB_86_1*%
X36300000Y-84999999D03*
%TD*%
%TO.C,KiKit_MB_41_4*%
X37700000Y-43499999D03*
%TD*%
%TO.C,KiKit_MB_2_5*%
X36300000Y-11333332D03*
%TD*%
D17*
%TO.C,J11*%
X51095001Y-64700000D03*
%TD*%
D18*
%TO.C,C8*%
X72500000Y-85080000D03*
X72500000Y-84120000D03*
%TD*%
D10*
%TO.C,R12*%
X76500000Y-87297500D03*
X76500000Y-86102500D03*
%TD*%
D19*
%TO.C,J6*%
X22905001Y-84300000D03*
%TD*%
D14*
%TO.C,KiKit_MB_71_4*%
X85000000Y-60699999D03*
%TD*%
D17*
%TO.C,J15*%
X88175001Y-9700000D03*
%TD*%
D14*
%TO.C,KiKit_MB_96_7*%
X82500000Y-92299999D03*
%TD*%
D18*
%TO.C,C2*%
X29500000Y-63080000D03*
X29500000Y-62120000D03*
%TD*%
D14*
%TO.C,KiKit_MB_65_7*%
X37700000Y-62999999D03*
%TD*%
%TO.C,KiKit_MB_19_1*%
X50500000Y-16699999D03*
%TD*%
D18*
%TO.C,C5*%
X98500000Y-52080000D03*
X98500000Y-51120000D03*
%TD*%
%TO.C,C4*%
X95500000Y-85080000D03*
X95500000Y-84120000D03*
%TD*%
%TO.C,C3*%
X32500000Y-52082500D03*
X32500000Y-51122500D03*
%TD*%
D11*
%TO.C,J17*%
X23540000Y-12500000D03*
%TD*%
%TO.C,J21*%
X45380000Y-78500000D03*
%TD*%
D18*
%TO.C,C7*%
X39500000Y-30080000D03*
X39500000Y-29120000D03*
%TD*%
D15*
%TO.C,JP4*%
X41150001Y-68600000D03*
D16*
X42449999Y-68600000D03*
%TD*%
D10*
%TO.C,R5*%
X98500000Y-32297500D03*
X98500000Y-31102500D03*
%TD*%
D11*
%TO.C,J20*%
X8300000Y-78500000D03*
%TD*%
D17*
%TO.C,J10*%
X49825001Y-42700000D03*
%TD*%
D14*
%TO.C,KiKit_MB_11_6*%
X86666667Y-5700000D03*
%TD*%
D10*
%TO.C,R11*%
X43500000Y-21297500D03*
X43500000Y-20102500D03*
%TD*%
D14*
%TO.C,KiKit_MB_68_1*%
X55500000Y-70299999D03*
%TD*%
%TO.C,KiKit_MB_89_7*%
X37700000Y-84999999D03*
%TD*%
%TO.C,KiKit_MB_41_2*%
X37700000Y-45166666D03*
%TD*%
D15*
%TO.C,JP5*%
X46150001Y-46600000D03*
D16*
X47449999Y-46600000D03*
%TD*%
D14*
%TO.C,KiKit_MB_82_3*%
X100300000Y-75666666D03*
%TD*%
%TO.C,KiKit_MB_104_2*%
X102800001Y-91999999D03*
%TD*%
D17*
%TO.C,J14*%
X22905001Y-53700000D03*
%TD*%
D11*
%TO.C,J17*%
X23540000Y-56500000D03*
%TD*%
D17*
%TO.C,J16*%
X89445001Y-9765000D03*
%TD*%
D10*
%TO.C,R10*%
X42500000Y-21297500D03*
X42500000Y-20102500D03*
%TD*%
%TO.C,R3*%
X64500000Y-65300000D03*
X64500000Y-64105000D03*
%TD*%
D14*
%TO.C,KiKit_MB_1_2*%
X5700000Y-12166666D03*
%TD*%
D18*
%TO.C,C2*%
X93500000Y-63080000D03*
X93500000Y-62120000D03*
%TD*%
%TO.C,C12*%
X76500000Y-41080000D03*
X76500000Y-40120000D03*
%TD*%
D14*
%TO.C,KiKit_MB_82_2*%
X100300000Y-74833332D03*
%TD*%
%TO.C,KiKit_MB_93_1*%
X69700000Y-89999999D03*
%TD*%
%TO.C,KiKit_MB_8_5*%
X52166667Y-15299999D03*
%TD*%
%TO.C,KiKit_MB_54_4*%
X68300000Y-54499999D03*
%TD*%
%TO.C,KiKit_MB_82_5*%
X100300000Y-77333332D03*
%TD*%
%TO.C,KiKit_MB_67_2*%
X51333333Y-60699999D03*
%TD*%
%TO.C,KiKit_MB_45_1*%
X69700000Y-45999999D03*
%TD*%
D18*
%TO.C,C1*%
X62500000Y-19080000D03*
X62500000Y-18120000D03*
%TD*%
D19*
%TO.C,J3*%
X51095001Y-84300000D03*
%TD*%
D11*
%TO.C,J18*%
X60620000Y-45500000D03*
%TD*%
D17*
%TO.C,J10*%
X81825001Y-64700000D03*
%TD*%
D19*
%TO.C,J6*%
X86905001Y-84300000D03*
%TD*%
D11*
%TO.C,J20*%
X8300000Y-45500000D03*
%TD*%
%TO.C,J18*%
X28620000Y-12500000D03*
%TD*%
D14*
%TO.C,KiKit_MB_83_5*%
X85833333Y-71699999D03*
%TD*%
%TO.C,KiKit_MB_26_7*%
X36300000Y-34999999D03*
%TD*%
D10*
%TO.C,R5*%
X66500000Y-65297500D03*
X66500000Y-64102500D03*
%TD*%
D17*
%TO.C,J15*%
X24175001Y-20700000D03*
%TD*%
D11*
%TO.C,J20*%
X40300000Y-89500000D03*
%TD*%
D10*
%TO.C,R3*%
X96500000Y-87300000D03*
X96500000Y-86105000D03*
%TD*%
D14*
%TO.C,KiKit_MB_69_1*%
X69700000Y-67999999D03*
%TD*%
%TO.C,KiKit_MB_36_2*%
X86666667Y-37299999D03*
%TD*%
D15*
%TO.C,JP4*%
X73150001Y-68600000D03*
D16*
X74449999Y-68600000D03*
%TD*%
D14*
%TO.C,KiKit_MB_26_1*%
X36300000Y-29999999D03*
%TD*%
%TO.C,KiKit_MB_38_4*%
X36300000Y-43499999D03*
%TD*%
D18*
%TO.C,C7*%
X71500000Y-74080000D03*
X71500000Y-73120000D03*
%TD*%
%TO.C,C10*%
X74500000Y-74080000D03*
X74500000Y-73120000D03*
%TD*%
%TO.C,C12*%
X44500000Y-63080000D03*
X44500000Y-62120000D03*
%TD*%
D14*
%TO.C,KiKit_MB_43_6*%
X54666667Y-38699999D03*
%TD*%
D20*
%TO.C,JP1*%
X25100000Y-23449999D03*
D21*
X25100000Y-22150001D03*
%TD*%
D15*
%TO.C,JP5*%
X46150001Y-79600000D03*
D16*
X47449999Y-79600000D03*
%TD*%
D14*
%TO.C,KiKit_MB_95_5*%
X85833333Y-82699999D03*
%TD*%
D17*
%TO.C,J13*%
X85635001Y-75700000D03*
%TD*%
D19*
%TO.C,J3*%
X83095001Y-40300000D03*
%TD*%
D11*
%TO.C,J19*%
X65700000Y-34500000D03*
%TD*%
D18*
%TO.C,C3*%
X64500000Y-52082500D03*
X64500000Y-51122500D03*
%TD*%
D14*
%TO.C,KiKit_MB_29_1*%
X37700000Y-34999999D03*
%TD*%
D17*
%TO.C,J15*%
X24175001Y-86700000D03*
%TD*%
D10*
%TO.C,R5*%
X34500000Y-32297500D03*
X34500000Y-31102500D03*
%TD*%
D14*
%TO.C,KiKit_MB_97_1*%
X6000000Y0D03*
%TD*%
%TO.C,KiKit_MB_103_3*%
X103600001Y-6000000D03*
%TD*%
D17*
%TO.C,J11*%
X51095001Y-31700000D03*
%TD*%
D14*
%TO.C,KiKit_MB_62_3*%
X36300000Y-64666666D03*
%TD*%
D10*
%TO.C,R7*%
X39500000Y-76297500D03*
X39500000Y-75102500D03*
%TD*%
D14*
%TO.C,KiKit_MB_93_6*%
X69700000Y-85833332D03*
%TD*%
D12*
%TO.C,JP3*%
X64849999Y-57600000D03*
D13*
X63550001Y-57600000D03*
%TD*%
D11*
%TO.C,J19*%
X97700000Y-78500000D03*
%TD*%
%TO.C,J20*%
X8300000Y-89500000D03*
%TD*%
D14*
%TO.C,KiKit_MB_77_3*%
X37700000Y-77333332D03*
%TD*%
D10*
%TO.C,R4*%
X95500000Y-87297500D03*
X95500000Y-86102500D03*
%TD*%
D17*
%TO.C,J12*%
X20365001Y-75700000D03*
%TD*%
D14*
%TO.C,KiKit_MB_27_5*%
X21833333Y-27699999D03*
%TD*%
%TO.C,KiKit_MB_61_3*%
X5700000Y-66333332D03*
%TD*%
D15*
%TO.C,JP5*%
X46150001Y-13600000D03*
D16*
X47449999Y-13600000D03*
%TD*%
D20*
%TO.C,JP6*%
X48800000Y-23449999D03*
D21*
X48800000Y-22150001D03*
%TD*%
D18*
%TO.C,C10*%
X10500000Y-74080000D03*
X10500000Y-73120000D03*
%TD*%
D17*
%TO.C,J13*%
X85635001Y-64700000D03*
%TD*%
D14*
%TO.C,KiKit_MB_31_7*%
X55500000Y-27699999D03*
%TD*%
D10*
%TO.C,R10*%
X42500000Y-65297500D03*
X42500000Y-64102500D03*
%TD*%
D14*
%TO.C,KiKit_MB_1_6*%
X5700000Y-8833333D03*
%TD*%
D10*
%TO.C,R8*%
X72500000Y-21297500D03*
X72500000Y-20102500D03*
%TD*%
D14*
%TO.C,KiKit_MB_8_7*%
X50500000Y-15299999D03*
%TD*%
D18*
%TO.C,C11*%
X11500000Y-85080000D03*
X11500000Y-84120000D03*
%TD*%
%TO.C,C3*%
X96500000Y-52082500D03*
X96500000Y-51122500D03*
%TD*%
D17*
%TO.C,J13*%
X21635001Y-75700000D03*
%TD*%
D15*
%TO.C,JP5*%
X14150001Y-90600000D03*
D16*
X15449999Y-90600000D03*
%TD*%
D10*
%TO.C,R5*%
X66500000Y-32297500D03*
X66500000Y-31102500D03*
%TD*%
D14*
%TO.C,KiKit_MB_30_6*%
X68300000Y-34166666D03*
%TD*%
D11*
%TO.C,J19*%
X65700000Y-56500000D03*
%TD*%
D14*
%TO.C,KiKit_MB_90_2*%
X68300000Y-85833332D03*
%TD*%
D18*
%TO.C,C2*%
X29500000Y-19080000D03*
X29500000Y-18120000D03*
%TD*%
D10*
%TO.C,R9*%
X9500000Y-65297500D03*
X9500000Y-64102500D03*
%TD*%
D14*
%TO.C,KiKit_MB_37_1*%
X5700000Y-45999999D03*
%TD*%
D18*
%TO.C,C4*%
X63500000Y-41080000D03*
X63500000Y-40120000D03*
%TD*%
D14*
%TO.C,KiKit_MB_84_3*%
X85833333Y-81299999D03*
%TD*%
D15*
%TO.C,JP5*%
X14150001Y-79600000D03*
D16*
X15449999Y-79600000D03*
%TD*%
D10*
%TO.C,R8*%
X8500000Y-65297500D03*
X8500000Y-64102500D03*
%TD*%
D11*
%TO.C,J17*%
X87540000Y-23500000D03*
%TD*%
%TO.C,J22*%
X82460000Y-67500000D03*
%TD*%
D14*
%TO.C,KiKit_MB_50_4*%
X36300000Y-54499999D03*
%TD*%
%TO.C,KiKit_MB_43_1*%
X50500000Y-38699999D03*
%TD*%
%TO.C,KiKit_MB_104_6*%
X106000001Y-91999999D03*
%TD*%
%TO.C,KiKit_MB_2_6*%
X36300000Y-12166666D03*
%TD*%
%TO.C,KiKit_MB_64_3*%
X21833333Y-70299999D03*
%TD*%
%TO.C,KiKit_MB_73_4*%
X5700000Y-76499999D03*
%TD*%
D19*
%TO.C,J7*%
X56175001Y-62300000D03*
%TD*%
%TO.C,J3*%
X51095001Y-62300000D03*
%TD*%
D10*
%TO.C,R9*%
X41500000Y-10297500D03*
X41500000Y-9102500D03*
%TD*%
D14*
%TO.C,KiKit_MB_9_7*%
X69700000Y-8000000D03*
%TD*%
D10*
%TO.C,R2*%
X93500000Y-32297500D03*
X93500000Y-31102500D03*
%TD*%
D19*
%TO.C,J4*%
X52365001Y-18300000D03*
%TD*%
D10*
%TO.C,R4*%
X31500000Y-65297500D03*
X31500000Y-64102500D03*
%TD*%
%TO.C,R5*%
X66500000Y-76297500D03*
X66500000Y-75102500D03*
%TD*%
D14*
%TO.C,KiKit_MB_72_2*%
X86666667Y-70299999D03*
%TD*%
D10*
%TO.C,R11*%
X43500000Y-54297500D03*
X43500000Y-53102500D03*
%TD*%
D18*
%TO.C,C1*%
X62500000Y-85080000D03*
X62500000Y-84120000D03*
%TD*%
D14*
%TO.C,KiKit_MB_82_7*%
X100300000Y-78999999D03*
%TD*%
D17*
%TO.C,J15*%
X24175001Y-31700000D03*
%TD*%
D18*
%TO.C,C3*%
X32500000Y-85082500D03*
X32500000Y-84122500D03*
%TD*%
%TO.C,C4*%
X63500000Y-85080000D03*
X63500000Y-84120000D03*
%TD*%
D10*
%TO.C,R2*%
X29500000Y-10297500D03*
X29500000Y-9102500D03*
%TD*%
D18*
%TO.C,C9*%
X73500000Y-19080000D03*
X73500000Y-18120000D03*
%TD*%
D10*
%TO.C,R4*%
X31500000Y-54297500D03*
X31500000Y-53102500D03*
%TD*%
%TO.C,R11*%
X11500000Y-32297500D03*
X11500000Y-31102500D03*
%TD*%
D18*
%TO.C,C6*%
X97500000Y-8080000D03*
X97500000Y-7120000D03*
%TD*%
D14*
%TO.C,KiKit_MB_56_1*%
X55500000Y-59299999D03*
%TD*%
D10*
%TO.C,R1*%
X30500000Y-54297500D03*
X30500000Y-53102500D03*
%TD*%
D14*
%TO.C,KiKit_MB_23_6*%
X86666667Y-16699999D03*
%TD*%
%TO.C,KiKit_MB_14_3*%
X36300000Y-20666666D03*
%TD*%
D18*
%TO.C,C7*%
X39500000Y-8080000D03*
X39500000Y-7120000D03*
%TD*%
D14*
%TO.C,KiKit_MB_54_5*%
X68300000Y-55333332D03*
%TD*%
D20*
%TO.C,JP6*%
X16800000Y-34449999D03*
D21*
X16800000Y-33150001D03*
%TD*%
D18*
%TO.C,C4*%
X95500000Y-74080000D03*
X95500000Y-73120000D03*
%TD*%
D14*
%TO.C,KiKit_MB_49_5*%
X5700000Y-53666666D03*
%TD*%
D10*
%TO.C,R4*%
X95500000Y-76297500D03*
X95500000Y-75102500D03*
%TD*%
D14*
%TO.C,KiKit_MB_37_7*%
X5700000Y-40999999D03*
%TD*%
D18*
%TO.C,C8*%
X72500000Y-8080000D03*
X72500000Y-7120000D03*
%TD*%
D19*
%TO.C,J1*%
X80555001Y-29365000D03*
%TD*%
D11*
%TO.C,J21*%
X77380000Y-45500000D03*
%TD*%
D14*
%TO.C,KiKit_MB_80_6*%
X51333333Y-81299999D03*
%TD*%
D12*
%TO.C,JP3*%
X32849999Y-57600000D03*
D13*
X31550001Y-57600000D03*
%TD*%
D14*
%TO.C,KiKit_MB_63_5*%
X21833333Y-60699999D03*
%TD*%
%TO.C,KiKit_MB_67_3*%
X52166667Y-60699999D03*
%TD*%
D11*
%TO.C,J19*%
X97700000Y-12500000D03*
%TD*%
D12*
%TO.C,JP2*%
X59849999Y-90600000D03*
D13*
X58550001Y-90600000D03*
%TD*%
D14*
%TO.C,KiKit_MB_97_3*%
X6000000Y-1600000D03*
%TD*%
D10*
%TO.C,R3*%
X32500000Y-54300000D03*
X32500000Y-53105000D03*
%TD*%
D14*
%TO.C,KiKit_MB_83_6*%
X86666667Y-71699999D03*
%TD*%
D18*
%TO.C,C4*%
X95500000Y-30080000D03*
X95500000Y-29120000D03*
%TD*%
D14*
%TO.C,KiKit_MB_32_6*%
X51333333Y-37299999D03*
%TD*%
D10*
%TO.C,R4*%
X31500000Y-21297500D03*
X31500000Y-20102500D03*
%TD*%
D14*
%TO.C,KiKit_MB_53_2*%
X37700000Y-56166666D03*
%TD*%
%TO.C,KiKit_MB_27_3*%
X20166668Y-27699999D03*
%TD*%
D17*
%TO.C,J11*%
X19095001Y-64700000D03*
%TD*%
D15*
%TO.C,JP4*%
X73150001Y-24600000D03*
D16*
X74449999Y-24600000D03*
%TD*%
D18*
%TO.C,C6*%
X97500000Y-63080000D03*
X97500000Y-62120000D03*
%TD*%
D17*
%TO.C,J16*%
X57445001Y-42765000D03*
%TD*%
D14*
%TO.C,KiKit_MB_50_1*%
X36300000Y-51999999D03*
%TD*%
D19*
%TO.C,J1*%
X16555001Y-84365000D03*
%TD*%
D14*
%TO.C,KiKit_MB_71_6*%
X86666667Y-60699999D03*
%TD*%
D17*
%TO.C,J14*%
X54905001Y-75700000D03*
%TD*%
D11*
%TO.C,J22*%
X50460000Y-89500000D03*
%TD*%
D10*
%TO.C,R9*%
X9500000Y-32297500D03*
X9500000Y-31102500D03*
%TD*%
%TO.C,R6*%
X65500000Y-65297500D03*
X65500000Y-64102500D03*
%TD*%
D11*
%TO.C,J19*%
X33700000Y-23500000D03*
%TD*%
D14*
%TO.C,KiKit_MB_79_4*%
X53000000Y-71699999D03*
%TD*%
D10*
%TO.C,R3*%
X96500000Y-76300000D03*
X96500000Y-75105000D03*
%TD*%
%TO.C,R1*%
X62500000Y-76297500D03*
X62500000Y-75102500D03*
%TD*%
D17*
%TO.C,J15*%
X56175001Y-42700000D03*
%TD*%
D19*
%TO.C,J3*%
X83095001Y-84300000D03*
%TD*%
D14*
%TO.C,KiKit_MB_32_3*%
X53833333Y-37299999D03*
%TD*%
D20*
%TO.C,JP6*%
X80800000Y-89449999D03*
D21*
X80800000Y-88150001D03*
%TD*%
D14*
%TO.C,KiKit_MB_61_2*%
X5700000Y-67166666D03*
%TD*%
D20*
%TO.C,JP6*%
X16800000Y-89449999D03*
D21*
X16800000Y-88150001D03*
%TD*%
D10*
%TO.C,R5*%
X98500000Y-65297500D03*
X98500000Y-64102500D03*
%TD*%
D14*
%TO.C,KiKit_MB_6_2*%
X68300000Y-8833333D03*
%TD*%
D17*
%TO.C,J14*%
X54905001Y-86700000D03*
%TD*%
D14*
%TO.C,KiKit_MB_87_1*%
X18500001Y-82699999D03*
%TD*%
D12*
%TO.C,JP2*%
X27849999Y-35600000D03*
D13*
X26550001Y-35600000D03*
%TD*%
D14*
%TO.C,KiKit_MB_28_2*%
X22666667Y-37299999D03*
%TD*%
%TO.C,KiKit_MB_84_7*%
X82500000Y-81299999D03*
%TD*%
D18*
%TO.C,C12*%
X44500000Y-74080000D03*
X44500000Y-73120000D03*
%TD*%
D14*
%TO.C,KiKit_MB_25_2*%
X5700000Y-34166666D03*
%TD*%
D19*
%TO.C,J1*%
X16555001Y-73365000D03*
%TD*%
D10*
%TO.C,R2*%
X61500000Y-43297500D03*
X61500000Y-42102500D03*
%TD*%
D14*
%TO.C,KiKit_MB_38_6*%
X36300000Y-45166666D03*
%TD*%
%TO.C,KiKit_MB_38_3*%
X36300000Y-42666666D03*
%TD*%
D11*
%TO.C,J22*%
X82460000Y-56500000D03*
%TD*%
D10*
%TO.C,R10*%
X10500000Y-21297500D03*
X10500000Y-20102500D03*
%TD*%
D18*
%TO.C,C12*%
X76500000Y-30080000D03*
X76500000Y-29120000D03*
%TD*%
D12*
%TO.C,JP2*%
X27849999Y-68600000D03*
D13*
X26550001Y-68600000D03*
%TD*%
D14*
%TO.C,KiKit_MB_19_3*%
X52166667Y-16699999D03*
%TD*%
%TO.C,KiKit_MB_6_5*%
X68300000Y-11333332D03*
%TD*%
D10*
%TO.C,R10*%
X74500000Y-76297500D03*
X74500000Y-75102500D03*
%TD*%
D12*
%TO.C,JP2*%
X27849999Y-79600000D03*
D13*
X26550001Y-79600000D03*
%TD*%
D15*
%TO.C,JP5*%
X78150001Y-13600000D03*
D16*
X79449999Y-13600000D03*
%TD*%
D14*
%TO.C,KiKit_MB_22_5*%
X100300000Y-22333332D03*
%TD*%
D17*
%TO.C,J15*%
X88175001Y-42700000D03*
%TD*%
D11*
%TO.C,J22*%
X50460000Y-56500000D03*
%TD*%
D15*
%TO.C,JP4*%
X73150001Y-35600000D03*
D16*
X74449999Y-35600000D03*
%TD*%
D18*
%TO.C,C4*%
X63500000Y-63080000D03*
X63500000Y-62120000D03*
%TD*%
D14*
%TO.C,KiKit_MB_15_6*%
X22666667Y-16699999D03*
%TD*%
D10*
%TO.C,R3*%
X32500000Y-32300000D03*
X32500000Y-31105000D03*
%TD*%
D14*
%TO.C,KiKit_MB_65_4*%
X37700000Y-65499999D03*
%TD*%
%TO.C,KiKit_MB_102_1*%
X0Y-91999999D03*
%TD*%
D17*
%TO.C,J12*%
X52365001Y-64700000D03*
%TD*%
D10*
%TO.C,R11*%
X43500000Y-10297500D03*
X43500000Y-9102500D03*
%TD*%
D14*
%TO.C,KiKit_MB_85_6*%
X5700000Y-85833332D03*
%TD*%
%TO.C,KiKit_MB_79_1*%
X50500000Y-71699999D03*
%TD*%
D20*
%TO.C,JP1*%
X57100000Y-34449999D03*
D21*
X57100000Y-33150001D03*
%TD*%
D14*
%TO.C,KiKit_MB_42_4*%
X68300000Y-43499999D03*
%TD*%
D20*
%TO.C,JP1*%
X25100000Y-45449999D03*
D21*
X25100000Y-44150001D03*
%TD*%
D14*
%TO.C,KiKit_MB_3_3*%
X20166668Y-5700000D03*
%TD*%
D17*
%TO.C,J16*%
X89445001Y-53765000D03*
%TD*%
D11*
%TO.C,J21*%
X77380000Y-78500000D03*
%TD*%
D14*
%TO.C,KiKit_MB_72_7*%
X82500000Y-70299999D03*
%TD*%
D17*
%TO.C,J10*%
X17825001Y-20700000D03*
%TD*%
D14*
%TO.C,KiKit_MB_92_5*%
X52166667Y-92299999D03*
%TD*%
D19*
%TO.C,J6*%
X86905001Y-73300000D03*
%TD*%
D14*
%TO.C,KiKit_MB_27_2*%
X19333334Y-27699999D03*
%TD*%
D17*
%TO.C,J9*%
X48555001Y-42765000D03*
%TD*%
D18*
%TO.C,C2*%
X61500000Y-74080000D03*
X61500000Y-73120000D03*
%TD*%
D14*
%TO.C,KiKit_MB_73_7*%
X5700000Y-73999999D03*
%TD*%
%TO.C,KiKit_MB_40_6*%
X19333334Y-48299999D03*
%TD*%
D11*
%TO.C,J21*%
X45380000Y-45500000D03*
%TD*%
D10*
%TO.C,R8*%
X40500000Y-32297500D03*
X40500000Y-31102500D03*
%TD*%
D14*
%TO.C,KiKit_MB_70_5*%
X100300000Y-66333332D03*
%TD*%
%TO.C,KiKit_MB_94_7*%
X100300000Y-89999999D03*
%TD*%
D17*
%TO.C,J16*%
X89445001Y-20765000D03*
%TD*%
D14*
%TO.C,KiKit_MB_96_3*%
X85833333Y-92299999D03*
%TD*%
%TO.C,KiKit_MB_84_6*%
X83333333Y-81299999D03*
%TD*%
%TO.C,KiKit_MB_24_5*%
X84166667Y-26299999D03*
%TD*%
D19*
%TO.C,J8*%
X25445001Y-7365000D03*
%TD*%
D11*
%TO.C,J21*%
X13380000Y-45500000D03*
%TD*%
%TO.C,J17*%
X87540000Y-12500000D03*
%TD*%
D14*
%TO.C,KiKit_MB_44_6*%
X51333333Y-48299999D03*
%TD*%
%TO.C,KiKit_MB_93_3*%
X69700000Y-88333332D03*
%TD*%
D11*
%TO.C,J19*%
X33700000Y-67500000D03*
%TD*%
D10*
%TO.C,R2*%
X93500000Y-65297500D03*
X93500000Y-64102500D03*
%TD*%
%TO.C,R6*%
X97500000Y-76297500D03*
X97500000Y-75102500D03*
%TD*%
D19*
%TO.C,J4*%
X20365001Y-51300000D03*
%TD*%
D14*
%TO.C,KiKit_MB_14_2*%
X36300000Y-19833332D03*
%TD*%
D17*
%TO.C,J15*%
X56175001Y-64700000D03*
%TD*%
D15*
%TO.C,JP4*%
X41150001Y-35600000D03*
D16*
X42449999Y-35600000D03*
%TD*%
D14*
%TO.C,KiKit_MB_104_1*%
X102000001Y-91999999D03*
%TD*%
D10*
%TO.C,R5*%
X34500000Y-76297500D03*
X34500000Y-75102500D03*
%TD*%
D19*
%TO.C,J2*%
X81825001Y-29300000D03*
%TD*%
D10*
%TO.C,R12*%
X44500000Y-65297500D03*
X44500000Y-64102500D03*
%TD*%
D14*
%TO.C,KiKit_MB_76_4*%
X21000000Y-81299999D03*
%TD*%
D10*
%TO.C,R10*%
X10500000Y-10297500D03*
X10500000Y-9102500D03*
%TD*%
%TO.C,R4*%
X63500000Y-54297500D03*
X63500000Y-53102500D03*
%TD*%
D14*
%TO.C,KiKit_MB_14_4*%
X36300000Y-21499999D03*
%TD*%
D15*
%TO.C,JP5*%
X46150001Y-90600000D03*
D16*
X47449999Y-90600000D03*
%TD*%
D18*
%TO.C,C9*%
X9500000Y-52080000D03*
X9500000Y-51120000D03*
%TD*%
D14*
%TO.C,KiKit_MB_98_2*%
X100000001Y-800000D03*
%TD*%
D17*
%TO.C,J11*%
X19095001Y-31700000D03*
%TD*%
D14*
%TO.C,KiKit_MB_5_1*%
X37700000Y-12999999D03*
%TD*%
%TO.C,KiKit_MB_13_7*%
X5700000Y-18999999D03*
%TD*%
D10*
%TO.C,R6*%
X65500000Y-43297500D03*
X65500000Y-42102500D03*
%TD*%
D14*
%TO.C,KiKit_MB_47_7*%
X87500000Y-38699999D03*
%TD*%
%TO.C,KiKit_MB_66_7*%
X68300000Y-67999999D03*
%TD*%
%TO.C,KiKit_MB_85_5*%
X5700000Y-86666666D03*
%TD*%
D19*
%TO.C,J3*%
X51095001Y-18300000D03*
%TD*%
%TO.C,J1*%
X48555001Y-51365000D03*
%TD*%
D14*
%TO.C,KiKit_MB_41_3*%
X37700000Y-44333332D03*
%TD*%
%TO.C,KiKit_MB_81_6*%
X69700000Y-74833332D03*
%TD*%
D10*
%TO.C,R12*%
X12500000Y-87297500D03*
X12500000Y-86102500D03*
%TD*%
D14*
%TO.C,KiKit_MB_103_5*%
X105200001Y-6000000D03*
%TD*%
D18*
%TO.C,C10*%
X74500000Y-30080000D03*
X74500000Y-29120000D03*
%TD*%
D20*
%TO.C,JP6*%
X16800000Y-78449999D03*
D21*
X16800000Y-77150001D03*
%TD*%
D18*
%TO.C,C10*%
X74500000Y-63080000D03*
X74500000Y-62120000D03*
%TD*%
D14*
%TO.C,KiKit_MB_16_3*%
X21833333Y-26299999D03*
%TD*%
%TO.C,KiKit_MB_35_2*%
X83333333Y-27699999D03*
%TD*%
%TO.C,KiKit_MB_7_1*%
X50500000Y-5700000D03*
%TD*%
%TO.C,KiKit_MB_41_1*%
X37700000Y-45999999D03*
%TD*%
%TO.C,KiKit_MB_53_6*%
X37700000Y-52833332D03*
%TD*%
%TO.C,KiKit_MB_92_7*%
X50500000Y-92299999D03*
%TD*%
%TO.C,KiKit_MB_70_7*%
X100300000Y-67999999D03*
%TD*%
D18*
%TO.C,C9*%
X9500000Y-85080000D03*
X9500000Y-84120000D03*
%TD*%
D19*
%TO.C,J8*%
X89445001Y-29365000D03*
%TD*%
D15*
%TO.C,JP4*%
X73150001Y-79600000D03*
D16*
X74449999Y-79600000D03*
%TD*%
D18*
%TO.C,C9*%
X41500000Y-74080000D03*
X41500000Y-73120000D03*
%TD*%
D10*
%TO.C,R9*%
X41500000Y-87297500D03*
X41500000Y-86102500D03*
%TD*%
D19*
%TO.C,J6*%
X54905001Y-18300000D03*
%TD*%
D18*
%TO.C,C3*%
X96500000Y-8082500D03*
X96500000Y-7122500D03*
%TD*%
D14*
%TO.C,KiKit_MB_1_4*%
X5700000Y-10500000D03*
%TD*%
%TO.C,KiKit_MB_23_5*%
X85833333Y-16699999D03*
%TD*%
D17*
%TO.C,J14*%
X86905001Y-9700000D03*
%TD*%
D14*
%TO.C,KiKit_MB_5_6*%
X37700000Y-8833333D03*
%TD*%
%TO.C,KiKit_MB_75_2*%
X19333334Y-71699999D03*
%TD*%
D18*
%TO.C,C6*%
X33500000Y-41080000D03*
X33500000Y-40120000D03*
%TD*%
D14*
%TO.C,KiKit_MB_96_5*%
X84166667Y-92299999D03*
%TD*%
D15*
%TO.C,JP4*%
X9150001Y-90600000D03*
D16*
X10449999Y-90600000D03*
%TD*%
D18*
%TO.C,C6*%
X33500000Y-19080000D03*
X33500000Y-18120000D03*
%TD*%
D10*
%TO.C,R2*%
X61500000Y-21297500D03*
X61500000Y-20102500D03*
%TD*%
D22*
%TO.C,KiKit_TO_2*%
X103500001Y-2500000D03*
%TD*%
D14*
%TO.C,KiKit_MB_16_2*%
X22666667Y-26299999D03*
%TD*%
%TO.C,KiKit_MB_101_5*%
X3200000Y-6000000D03*
%TD*%
D18*
%TO.C,C9*%
X9500000Y-8080000D03*
X9500000Y-7120000D03*
%TD*%
D14*
%TO.C,KiKit_MB_72_4*%
X85000000Y-70299999D03*
%TD*%
D18*
%TO.C,C11*%
X75500000Y-41080000D03*
X75500000Y-40120000D03*
%TD*%
D10*
%TO.C,R3*%
X32500000Y-10300000D03*
X32500000Y-9105000D03*
%TD*%
D15*
%TO.C,JP5*%
X78150001Y-68600000D03*
D16*
X79449999Y-68600000D03*
%TD*%
D15*
%TO.C,JP5*%
X14150001Y-13600000D03*
D16*
X15449999Y-13600000D03*
%TD*%
D14*
%TO.C,KiKit_MB_55_2*%
X51333333Y-49699999D03*
%TD*%
%TO.C,KiKit_MB_95_4*%
X85000000Y-82699999D03*
%TD*%
D22*
%TO.C,KiKit_TO_3*%
X2500000Y-95500000D03*
%TD*%
D14*
%TO.C,KiKit_MB_100_2*%
X100000001Y-94800000D03*
%TD*%
D10*
%TO.C,R2*%
X61500000Y-32297500D03*
X61500000Y-31102500D03*
%TD*%
%TO.C,R1*%
X62500000Y-87297500D03*
X62500000Y-86102500D03*
%TD*%
D14*
%TO.C,KiKit_MB_22_1*%
X100300000Y-18999999D03*
%TD*%
D18*
%TO.C,C1*%
X94500000Y-74080000D03*
X94500000Y-73120000D03*
%TD*%
D14*
%TO.C,KiKit_MB_58_1*%
X100300000Y-51999999D03*
%TD*%
%TO.C,KiKit_MB_102_6*%
X4000000Y-91999999D03*
%TD*%
D18*
%TO.C,C6*%
X97500000Y-52080000D03*
X97500000Y-51120000D03*
%TD*%
D19*
%TO.C,J7*%
X88175001Y-62300000D03*
%TD*%
D14*
%TO.C,KiKit_MB_100_6*%
X100000001Y-98000000D03*
%TD*%
D10*
%TO.C,R8*%
X40500000Y-54297500D03*
X40500000Y-53102500D03*
%TD*%
D18*
%TO.C,C5*%
X66500000Y-74080000D03*
X66500000Y-73120000D03*
%TD*%
D17*
%TO.C,J9*%
X16555001Y-86765000D03*
%TD*%
D19*
%TO.C,J7*%
X24175001Y-18300000D03*
%TD*%
D11*
%TO.C,J22*%
X18460000Y-23500000D03*
%TD*%
D10*
%TO.C,R11*%
X11500000Y-43297500D03*
X11500000Y-42102500D03*
%TD*%
D18*
%TO.C,C12*%
X12500000Y-52080000D03*
X12500000Y-51120000D03*
%TD*%
%TO.C,C12*%
X44500000Y-19080000D03*
X44500000Y-18120000D03*
%TD*%
D14*
%TO.C,KiKit_MB_80_3*%
X53833333Y-81299999D03*
%TD*%
D10*
%TO.C,R11*%
X43500000Y-65297500D03*
X43500000Y-64102500D03*
%TD*%
D14*
%TO.C,KiKit_MB_36_4*%
X85000000Y-37299999D03*
%TD*%
D18*
%TO.C,C1*%
X30500000Y-74080000D03*
X30500000Y-73120000D03*
%TD*%
D11*
%TO.C,J22*%
X82460000Y-34500000D03*
%TD*%
D19*
%TO.C,J1*%
X16555001Y-40365000D03*
%TD*%
D14*
%TO.C,KiKit_MB_65_3*%
X37700000Y-66333332D03*
%TD*%
%TO.C,KiKit_MB_52_4*%
X21000000Y-59299999D03*
%TD*%
D18*
%TO.C,C5*%
X98500000Y-8080000D03*
X98500000Y-7120000D03*
%TD*%
D17*
%TO.C,J14*%
X86905001Y-53700000D03*
%TD*%
D10*
%TO.C,R9*%
X73500000Y-87297500D03*
X73500000Y-86102500D03*
%TD*%
D14*
%TO.C,KiKit_MB_54_3*%
X68300000Y-53666666D03*
%TD*%
%TO.C,KiKit_MB_56_3*%
X53833333Y-59299999D03*
%TD*%
D12*
%TO.C,JP3*%
X32849999Y-68600000D03*
D13*
X31550001Y-68600000D03*
%TD*%
D14*
%TO.C,KiKit_MB_6_6*%
X68300000Y-12166666D03*
%TD*%
%TO.C,KiKit_MB_60_3*%
X85833333Y-59299999D03*
%TD*%
%TO.C,KiKit_MB_100_4*%
X100000001Y-96400000D03*
%TD*%
D10*
%TO.C,R10*%
X74500000Y-21297500D03*
X74500000Y-20102500D03*
%TD*%
D17*
%TO.C,J9*%
X80555001Y-42765000D03*
%TD*%
D10*
%TO.C,R7*%
X71500000Y-76297500D03*
X71500000Y-75102500D03*
%TD*%
D19*
%TO.C,J1*%
X16555001Y-62365000D03*
%TD*%
D14*
%TO.C,KiKit_MB_14_5*%
X36300000Y-22333332D03*
%TD*%
%TO.C,KiKit_MB_13_4*%
X5700000Y-21499999D03*
%TD*%
%TO.C,KiKit_MB_15_5*%
X21833333Y-16699999D03*
%TD*%
D12*
%TO.C,JP3*%
X64849999Y-68600000D03*
D13*
X63550001Y-68600000D03*
%TD*%
D14*
%TO.C,KiKit_MB_74_2*%
X36300000Y-74833332D03*
%TD*%
%TO.C,KiKit_MB_97_5*%
X6000000Y-3200000D03*
%TD*%
%TO.C,KiKit_MB_31_1*%
X50500000Y-27699999D03*
%TD*%
D18*
%TO.C,C8*%
X40500000Y-52080000D03*
X40500000Y-51120000D03*
%TD*%
D14*
%TO.C,KiKit_MB_22_2*%
X100300000Y-19833332D03*
%TD*%
D17*
%TO.C,J12*%
X52365001Y-86700000D03*
%TD*%
D14*
%TO.C,KiKit_MB_62_6*%
X36300000Y-67166666D03*
%TD*%
D17*
%TO.C,J11*%
X19095001Y-86700000D03*
%TD*%
D20*
%TO.C,JP6*%
X16800000Y-67449999D03*
D21*
X16800000Y-66150001D03*
%TD*%
D15*
%TO.C,JP5*%
X78150001Y-79600000D03*
D16*
X79449999Y-79600000D03*
%TD*%
D14*
%TO.C,KiKit_MB_97_6*%
X6000000Y-4000000D03*
%TD*%
D18*
%TO.C,C3*%
X96500000Y-74082500D03*
X96500000Y-73122500D03*
%TD*%
D14*
%TO.C,KiKit_MB_9_3*%
X69700000Y-11333332D03*
%TD*%
%TO.C,KiKit_MB_96_2*%
X86666667Y-92299999D03*
%TD*%
D18*
%TO.C,C3*%
X32500000Y-63082500D03*
X32500000Y-62122500D03*
%TD*%
D17*
%TO.C,J10*%
X49825001Y-64700000D03*
%TD*%
D14*
%TO.C,KiKit_MB_92_3*%
X53833333Y-92299999D03*
%TD*%
D10*
%TO.C,R4*%
X31500000Y-87297500D03*
X31500000Y-86102500D03*
%TD*%
D14*
%TO.C,KiKit_MB_18_6*%
X68300000Y-23166666D03*
%TD*%
D20*
%TO.C,JP1*%
X25100000Y-56449999D03*
D21*
X25100000Y-55150001D03*
%TD*%
D11*
%TO.C,J20*%
X40300000Y-23500000D03*
%TD*%
D20*
%TO.C,JP6*%
X48800000Y-78449999D03*
D21*
X48800000Y-77150001D03*
%TD*%
D14*
%TO.C,KiKit_MB_101_3*%
X1600000Y-6000000D03*
%TD*%
D19*
%TO.C,J3*%
X83095001Y-51300000D03*
%TD*%
D18*
%TO.C,C5*%
X98500000Y-41080000D03*
X98500000Y-40120000D03*
%TD*%
D10*
%TO.C,R2*%
X93500000Y-76297500D03*
X93500000Y-75102500D03*
%TD*%
D14*
%TO.C,KiKit_MB_70_3*%
X100300000Y-64666666D03*
%TD*%
D20*
%TO.C,JP6*%
X48800000Y-89449999D03*
D21*
X48800000Y-88150001D03*
%TD*%
D18*
%TO.C,C2*%
X61500000Y-30080000D03*
X61500000Y-29120000D03*
%TD*%
D11*
%TO.C,J20*%
X72300000Y-78500000D03*
%TD*%
D14*
%TO.C,KiKit_MB_52_6*%
X19333334Y-59299999D03*
%TD*%
%TO.C,KiKit_MB_103_1*%
X102000001Y-6000000D03*
%TD*%
%TO.C,KiKit_MB_12_7*%
X82500000Y-15299999D03*
%TD*%
D15*
%TO.C,JP4*%
X9150001Y-79600000D03*
D16*
X10449999Y-79600000D03*
%TD*%
D17*
%TO.C,J10*%
X49825001Y-9700000D03*
%TD*%
D14*
%TO.C,KiKit_MB_7_6*%
X54666667Y-5700000D03*
%TD*%
%TO.C,KiKit_MB_69_2*%
X69700000Y-67166666D03*
%TD*%
D19*
%TO.C,J5*%
X21635001Y-84300000D03*
%TD*%
%TO.C,J3*%
X51095001Y-7300000D03*
%TD*%
D14*
%TO.C,KiKit_MB_76_2*%
X22666667Y-81299999D03*
%TD*%
D11*
%TO.C,J20*%
X72300000Y-89500000D03*
%TD*%
D10*
%TO.C,R10*%
X42500000Y-10297500D03*
X42500000Y-9102500D03*
%TD*%
D19*
%TO.C,J6*%
X22905001Y-51300000D03*
%TD*%
D17*
%TO.C,J13*%
X53635001Y-9700000D03*
%TD*%
D19*
%TO.C,J8*%
X89445001Y-40365000D03*
%TD*%
D12*
%TO.C,JP2*%
X59849999Y-13600000D03*
D13*
X58550001Y-13600000D03*
%TD*%
D14*
%TO.C,KiKit_MB_69_3*%
X69700000Y-66333332D03*
%TD*%
D19*
%TO.C,J6*%
X86905001Y-40300000D03*
%TD*%
D11*
%TO.C,J21*%
X45380000Y-12500000D03*
%TD*%
D19*
%TO.C,J5*%
X53635001Y-7300000D03*
%TD*%
D14*
%TO.C,KiKit_MB_20_1*%
X55500000Y-26299999D03*
%TD*%
%TO.C,KiKit_MB_58_5*%
X100300000Y-55333332D03*
%TD*%
D11*
%TO.C,J19*%
X65700000Y-45500000D03*
%TD*%
D17*
%TO.C,J15*%
X24175001Y-53700000D03*
%TD*%
D14*
%TO.C,KiKit_MB_31_6*%
X54666667Y-27699999D03*
%TD*%
D18*
%TO.C,C8*%
X72500000Y-30080000D03*
X72500000Y-29120000D03*
%TD*%
D14*
%TO.C,KiKit_MB_52_5*%
X20166668Y-59299999D03*
%TD*%
%TO.C,KiKit_MB_17_5*%
X37700000Y-20666666D03*
%TD*%
%TO.C,KiKit_MB_18_3*%
X68300000Y-20666666D03*
%TD*%
%TO.C,KiKit_MB_98_3*%
X100000001Y-1600000D03*
%TD*%
D11*
%TO.C,J21*%
X45380000Y-67500000D03*
%TD*%
D10*
%TO.C,R8*%
X8500000Y-54297500D03*
X8500000Y-53102500D03*
%TD*%
D19*
%TO.C,J4*%
X84365001Y-7300000D03*
%TD*%
D18*
%TO.C,C5*%
X66500000Y-8080000D03*
X66500000Y-7120000D03*
%TD*%
D17*
%TO.C,J13*%
X21635001Y-9700000D03*
%TD*%
%TO.C,J13*%
X85635001Y-20700000D03*
%TD*%
D18*
%TO.C,C8*%
X8500000Y-41080000D03*
X8500000Y-40120000D03*
%TD*%
D11*
%TO.C,J19*%
X97700000Y-45500000D03*
%TD*%
D19*
%TO.C,J8*%
X25445001Y-29365000D03*
%TD*%
D17*
%TO.C,J12*%
X52365001Y-20700000D03*
%TD*%
D14*
%TO.C,KiKit_MB_94_3*%
X100300000Y-86666666D03*
%TD*%
%TO.C,KiKit_MB_4_1*%
X23500000Y-15299999D03*
%TD*%
%TO.C,KiKit_MB_10_5*%
X100300000Y-11333332D03*
%TD*%
D17*
%TO.C,J13*%
X21635001Y-86700000D03*
%TD*%
D12*
%TO.C,JP3*%
X64849999Y-79600000D03*
D13*
X63550001Y-79600000D03*
%TD*%
D17*
%TO.C,J14*%
X86905001Y-42700000D03*
%TD*%
D18*
%TO.C,C8*%
X40500000Y-30080000D03*
X40500000Y-29120000D03*
%TD*%
%TO.C,C4*%
X95500000Y-19080000D03*
X95500000Y-18120000D03*
%TD*%
%TO.C,C1*%
X30500000Y-63080000D03*
X30500000Y-62120000D03*
%TD*%
D19*
%TO.C,J8*%
X57445001Y-84365000D03*
%TD*%
%TO.C,J2*%
X49825001Y-51300000D03*
%TD*%
D14*
%TO.C,KiKit_MB_18_7*%
X68300000Y-23999999D03*
%TD*%
%TO.C,KiKit_MB_20_4*%
X53000000Y-26299999D03*
%TD*%
D12*
%TO.C,JP3*%
X32849999Y-24600000D03*
D13*
X31550001Y-24600000D03*
%TD*%
D10*
%TO.C,R4*%
X63500000Y-76297500D03*
X63500000Y-75102500D03*
%TD*%
D15*
%TO.C,JP5*%
X14150001Y-24600000D03*
D16*
X15449999Y-24600000D03*
%TD*%
D17*
%TO.C,J14*%
X22905001Y-42700000D03*
%TD*%
D11*
%TO.C,J17*%
X23540000Y-23500000D03*
%TD*%
D14*
%TO.C,KiKit_MB_45_7*%
X69700000Y-40999999D03*
%TD*%
D20*
%TO.C,JP6*%
X80800000Y-78449999D03*
D21*
X80800000Y-77150001D03*
%TD*%
D14*
%TO.C,KiKit_MB_73_1*%
X5700000Y-78999999D03*
%TD*%
%TO.C,KiKit_MB_79_7*%
X55500000Y-71699999D03*
%TD*%
%TO.C,KiKit_MB_50_3*%
X36300000Y-53666666D03*
%TD*%
D10*
%TO.C,R5*%
X34500000Y-43297500D03*
X34500000Y-42102500D03*
%TD*%
D14*
%TO.C,KiKit_MB_24_1*%
X87500000Y-26299999D03*
%TD*%
D10*
%TO.C,R10*%
X42500000Y-32297500D03*
X42500000Y-31102500D03*
%TD*%
D18*
%TO.C,C8*%
X40500000Y-74080000D03*
X40500000Y-73120000D03*
%TD*%
%TO.C,C2*%
X93500000Y-30080000D03*
X93500000Y-29120000D03*
%TD*%
D14*
%TO.C,KiKit_MB_38_7*%
X36300000Y-45999999D03*
%TD*%
D11*
%TO.C,J21*%
X77380000Y-12500000D03*
%TD*%
D10*
%TO.C,R1*%
X94500000Y-43297500D03*
X94500000Y-42102500D03*
%TD*%
D11*
%TO.C,J18*%
X92620000Y-23500000D03*
%TD*%
D14*
%TO.C,KiKit_MB_94_4*%
X100300000Y-87499999D03*
%TD*%
D12*
%TO.C,JP2*%
X91849999Y-68600000D03*
D13*
X90550001Y-68600000D03*
%TD*%
D14*
%TO.C,KiKit_MB_82_1*%
X100300000Y-73999999D03*
%TD*%
D17*
%TO.C,J14*%
X54905001Y-64700000D03*
%TD*%
D14*
%TO.C,KiKit_MB_68_7*%
X50500000Y-70299999D03*
%TD*%
%TO.C,KiKit_MB_91_6*%
X54666667Y-82699999D03*
%TD*%
D17*
%TO.C,J14*%
X54905001Y-53700000D03*
%TD*%
D19*
%TO.C,J2*%
X81825001Y-73300000D03*
%TD*%
D14*
%TO.C,KiKit_MB_38_5*%
X36300000Y-44333332D03*
%TD*%
%TO.C,KiKit_MB_29_2*%
X37700000Y-34166666D03*
%TD*%
D10*
%TO.C,R9*%
X73500000Y-21297500D03*
X73500000Y-20102500D03*
%TD*%
D18*
%TO.C,C10*%
X10500000Y-63080000D03*
X10500000Y-62120000D03*
%TD*%
%TO.C,C3*%
X96500000Y-85082500D03*
X96500000Y-84122500D03*
%TD*%
D19*
%TO.C,J7*%
X88175001Y-7300000D03*
%TD*%
D17*
%TO.C,J13*%
X53635001Y-86700000D03*
%TD*%
D14*
%TO.C,KiKit_MB_60_2*%
X86666667Y-59299999D03*
%TD*%
D11*
%TO.C,J22*%
X18460000Y-78500000D03*
%TD*%
D14*
%TO.C,KiKit_MB_8_3*%
X53833333Y-15299999D03*
%TD*%
D15*
%TO.C,JP5*%
X78150001Y-90600000D03*
D16*
X79449999Y-90600000D03*
%TD*%
D19*
%TO.C,J4*%
X20365001Y-29300000D03*
%TD*%
D11*
%TO.C,J20*%
X40300000Y-78500000D03*
%TD*%
D14*
%TO.C,KiKit_MB_20_3*%
X53833333Y-26299999D03*
%TD*%
%TO.C,KiKit_MB_77_5*%
X37700000Y-75666666D03*
%TD*%
%TO.C,KiKit_MB_94_1*%
X100300000Y-84999999D03*
%TD*%
D18*
%TO.C,C2*%
X93500000Y-74080000D03*
X93500000Y-73120000D03*
%TD*%
D10*
%TO.C,R1*%
X94500000Y-65297500D03*
X94500000Y-64102500D03*
%TD*%
D18*
%TO.C,C7*%
X71500000Y-19080000D03*
X71500000Y-18120000D03*
%TD*%
%TO.C,C7*%
X7500000Y-52080000D03*
X7500000Y-51120000D03*
%TD*%
%TO.C,C7*%
X39500000Y-74080000D03*
X39500000Y-73120000D03*
%TD*%
D19*
%TO.C,J5*%
X85635001Y-84300000D03*
%TD*%
D14*
%TO.C,KiKit_MB_77_4*%
X37700000Y-76499999D03*
%TD*%
D10*
%TO.C,R7*%
X7500000Y-32297500D03*
X7500000Y-31102500D03*
%TD*%
D14*
%TO.C,KiKit_MB_104_4*%
X104400001Y-91999999D03*
%TD*%
D10*
%TO.C,R3*%
X64500000Y-21300000D03*
X64500000Y-20105000D03*
%TD*%
D18*
%TO.C,C4*%
X63500000Y-8080000D03*
X63500000Y-7120000D03*
%TD*%
%TO.C,C3*%
X96500000Y-63082500D03*
X96500000Y-62122500D03*
%TD*%
%TO.C,C2*%
X61500000Y-8080000D03*
X61500000Y-7120000D03*
%TD*%
D14*
%TO.C,KiKit_MB_75_5*%
X21833333Y-71699999D03*
%TD*%
%TO.C,KiKit_MB_12_5*%
X84166667Y-15299999D03*
%TD*%
D10*
%TO.C,R8*%
X40500000Y-76297500D03*
X40500000Y-75102500D03*
%TD*%
D14*
%TO.C,KiKit_MB_43_4*%
X53000000Y-38699999D03*
%TD*%
D15*
%TO.C,JP4*%
X9150001Y-13600000D03*
D16*
X10449999Y-13600000D03*
%TD*%
D10*
%TO.C,R9*%
X9500000Y-54297500D03*
X9500000Y-53102500D03*
%TD*%
D14*
%TO.C,KiKit_MB_99_4*%
X6000000Y-96400000D03*
%TD*%
%TO.C,KiKit_MB_24_6*%
X83333333Y-26299999D03*
%TD*%
%TO.C,KiKit_MB_104_5*%
X105200001Y-91999999D03*
%TD*%
%TO.C,KiKit_MB_28_4*%
X21000000Y-37299999D03*
%TD*%
D18*
%TO.C,C3*%
X64500000Y-63082500D03*
X64500000Y-62122500D03*
%TD*%
D10*
%TO.C,R4*%
X63500000Y-21297500D03*
X63500000Y-20102500D03*
%TD*%
D19*
%TO.C,J3*%
X19095001Y-40300000D03*
%TD*%
D11*
%TO.C,J18*%
X60620000Y-56500000D03*
%TD*%
D19*
%TO.C,J8*%
X57445001Y-29365000D03*
%TD*%
D10*
%TO.C,R3*%
X96500000Y-32300000D03*
X96500000Y-31105000D03*
%TD*%
D11*
%TO.C,J19*%
X33700000Y-12500000D03*
%TD*%
D15*
%TO.C,JP4*%
X41150001Y-24600000D03*
D16*
X42449999Y-24600000D03*
%TD*%
D15*
%TO.C,JP4*%
X41150001Y-57600000D03*
D16*
X42449999Y-57600000D03*
%TD*%
D11*
%TO.C,J22*%
X18460000Y-56500000D03*
%TD*%
D19*
%TO.C,J7*%
X24175001Y-7300000D03*
%TD*%
D11*
%TO.C,J18*%
X60620000Y-78500000D03*
%TD*%
D14*
%TO.C,KiKit_MB_2_7*%
X36300000Y-12999999D03*
%TD*%
D18*
%TO.C,C9*%
X73500000Y-74080000D03*
X73500000Y-73120000D03*
%TD*%
D19*
%TO.C,J5*%
X21635001Y-29300000D03*
%TD*%
D10*
%TO.C,R9*%
X41500000Y-65297500D03*
X41500000Y-64102500D03*
%TD*%
D18*
%TO.C,C2*%
X61500000Y-63080000D03*
X61500000Y-62120000D03*
%TD*%
D14*
%TO.C,KiKit_MB_94_6*%
X100300000Y-89166666D03*
%TD*%
D11*
%TO.C,J18*%
X92620000Y-45500000D03*
%TD*%
D10*
%TO.C,R4*%
X63500000Y-43297500D03*
X63500000Y-42102500D03*
%TD*%
%TO.C,R4*%
X31500000Y-76297500D03*
X31500000Y-75102500D03*
%TD*%
D19*
%TO.C,J8*%
X57445001Y-62365000D03*
%TD*%
%TO.C,J3*%
X83095001Y-62300000D03*
%TD*%
D14*
%TO.C,KiKit_MB_44_1*%
X55500000Y-48299999D03*
%TD*%
%TO.C,KiKit_MB_83_3*%
X84166667Y-71699999D03*
%TD*%
%TO.C,KiKit_MB_32_2*%
X54666667Y-37299999D03*
%TD*%
D11*
%TO.C,J17*%
X55540000Y-56500000D03*
%TD*%
D18*
%TO.C,C4*%
X95500000Y-52080000D03*
X95500000Y-51120000D03*
%TD*%
D14*
%TO.C,KiKit_MB_48_3*%
X85833333Y-48299999D03*
%TD*%
%TO.C,KiKit_MB_49_6*%
X5700000Y-52833332D03*
%TD*%
%TO.C,KiKit_MB_86_5*%
X36300000Y-88333332D03*
%TD*%
%TO.C,KiKit_MB_16_1*%
X23500000Y-26299999D03*
%TD*%
D17*
%TO.C,J13*%
X53635001Y-42700000D03*
%TD*%
D10*
%TO.C,R9*%
X9500000Y-87297500D03*
X9500000Y-86102500D03*
%TD*%
D18*
%TO.C,C8*%
X8500000Y-30080000D03*
X8500000Y-29120000D03*
%TD*%
D14*
%TO.C,KiKit_MB_74_4*%
X36300000Y-76499999D03*
%TD*%
D18*
%TO.C,C4*%
X95500000Y-41080000D03*
X95500000Y-40120000D03*
%TD*%
D10*
%TO.C,R7*%
X7500000Y-87297500D03*
X7500000Y-86102500D03*
%TD*%
%TO.C,R10*%
X74500000Y-43297500D03*
X74500000Y-42102500D03*
%TD*%
D12*
%TO.C,JP3*%
X32849999Y-46600000D03*
D13*
X31550001Y-46600000D03*
%TD*%
D15*
%TO.C,JP4*%
X41150001Y-46600000D03*
D16*
X42449999Y-46600000D03*
%TD*%
D15*
%TO.C,JP5*%
X14150001Y-46600000D03*
D16*
X15449999Y-46600000D03*
%TD*%
D14*
%TO.C,KiKit_MB_30_3*%
X68300000Y-31666666D03*
%TD*%
D18*
%TO.C,C2*%
X93500000Y-41080000D03*
X93500000Y-40120000D03*
%TD*%
D14*
%TO.C,KiKit_MB_44_4*%
X53000000Y-48299999D03*
%TD*%
D18*
%TO.C,C2*%
X93500000Y-19080000D03*
X93500000Y-18120000D03*
%TD*%
D19*
%TO.C,J1*%
X48555001Y-73365000D03*
%TD*%
D14*
%TO.C,KiKit_MB_72_1*%
X87500000Y-70299999D03*
%TD*%
D10*
%TO.C,R3*%
X96500000Y-10300000D03*
X96500000Y-9105000D03*
%TD*%
%TO.C,R1*%
X62500000Y-10297500D03*
X62500000Y-9102500D03*
%TD*%
D11*
%TO.C,J18*%
X28620000Y-56500000D03*
%TD*%
D14*
%TO.C,KiKit_MB_56_4*%
X53000000Y-59299999D03*
%TD*%
D10*
%TO.C,R12*%
X76500000Y-10297500D03*
X76500000Y-9102500D03*
%TD*%
D17*
%TO.C,J14*%
X86905001Y-86700000D03*
%TD*%
D10*
%TO.C,R5*%
X66500000Y-10297500D03*
X66500000Y-9102500D03*
%TD*%
D15*
%TO.C,JP4*%
X9150001Y-57600000D03*
D16*
X10449999Y-57600000D03*
%TD*%
D14*
%TO.C,KiKit_MB_45_3*%
X69700000Y-44333332D03*
%TD*%
%TO.C,KiKit_MB_70_4*%
X100300000Y-65499999D03*
%TD*%
D15*
%TO.C,JP4*%
X41150001Y-13600000D03*
D16*
X42449999Y-13600000D03*
%TD*%
D19*
%TO.C,J2*%
X81825001Y-18300000D03*
%TD*%
D14*
%TO.C,KiKit_MB_52_3*%
X21833333Y-59299999D03*
%TD*%
D17*
%TO.C,J15*%
X24175001Y-9700000D03*
%TD*%
D14*
%TO.C,KiKit_MB_78_1*%
X68300000Y-73999999D03*
%TD*%
%TO.C,KiKit_MB_15_3*%
X20166668Y-16699999D03*
%TD*%
D19*
%TO.C,J5*%
X85635001Y-51300000D03*
%TD*%
D14*
%TO.C,KiKit_MB_70_6*%
X100300000Y-67166666D03*
%TD*%
D10*
%TO.C,R6*%
X33500000Y-65297500D03*
X33500000Y-64102500D03*
%TD*%
D14*
%TO.C,KiKit_MB_57_7*%
X69700000Y-51999999D03*
%TD*%
D18*
%TO.C,C7*%
X39500000Y-52080000D03*
X39500000Y-51120000D03*
%TD*%
D14*
%TO.C,KiKit_MB_53_7*%
X37700000Y-51999999D03*
%TD*%
%TO.C,KiKit_MB_83_4*%
X85000000Y-71699999D03*
%TD*%
%TO.C,KiKit_MB_67_4*%
X53000000Y-60699999D03*
%TD*%
%TO.C,KiKit_MB_90_4*%
X68300000Y-87499999D03*
%TD*%
D12*
%TO.C,JP3*%
X64849999Y-46600000D03*
D13*
X63550001Y-46600000D03*
%TD*%
D14*
%TO.C,KiKit_MB_91_1*%
X50500000Y-82699999D03*
%TD*%
%TO.C,KiKit_MB_79_2*%
X51333333Y-71699999D03*
%TD*%
D17*
%TO.C,J16*%
X89445001Y-64765000D03*
%TD*%
D11*
%TO.C,J19*%
X33700000Y-78500000D03*
%TD*%
D17*
%TO.C,J9*%
X80555001Y-86765000D03*
%TD*%
D19*
%TO.C,J6*%
X86905001Y-18300000D03*
%TD*%
D11*
%TO.C,J22*%
X82460000Y-23500000D03*
%TD*%
D14*
%TO.C,KiKit_MB_64_4*%
X21000000Y-70299999D03*
%TD*%
%TO.C,KiKit_MB_92_4*%
X53000000Y-92299999D03*
%TD*%
%TO.C,KiKit_MB_28_6*%
X19333334Y-37299999D03*
%TD*%
D19*
%TO.C,J6*%
X86905001Y-51300000D03*
%TD*%
D14*
%TO.C,KiKit_MB_56_2*%
X54666667Y-59299999D03*
%TD*%
%TO.C,KiKit_MB_87_3*%
X20166668Y-82699999D03*
%TD*%
D10*
%TO.C,R2*%
X61500000Y-10297500D03*
X61500000Y-9102500D03*
%TD*%
D14*
%TO.C,KiKit_MB_77_7*%
X37700000Y-73999999D03*
%TD*%
D10*
%TO.C,R2*%
X29500000Y-76297500D03*
X29500000Y-75102500D03*
%TD*%
D19*
%TO.C,J2*%
X49825001Y-40300000D03*
%TD*%
%TO.C,J7*%
X24175001Y-29300000D03*
%TD*%
D20*
%TO.C,JP1*%
X57100000Y-45449999D03*
D21*
X57100000Y-44150001D03*
%TD*%
D14*
%TO.C,KiKit_MB_70_1*%
X100300000Y-62999999D03*
%TD*%
D18*
%TO.C,C11*%
X11500000Y-41080000D03*
X11500000Y-40120000D03*
%TD*%
D14*
%TO.C,KiKit_MB_76_6*%
X19333334Y-81299999D03*
%TD*%
%TO.C,KiKit_MB_36_6*%
X83333333Y-37299999D03*
%TD*%
D18*
%TO.C,C6*%
X33500000Y-8080000D03*
X33500000Y-7120000D03*
%TD*%
D17*
%TO.C,J11*%
X83095001Y-42700000D03*
%TD*%
D14*
%TO.C,KiKit_MB_29_5*%
X37700000Y-31666666D03*
%TD*%
D10*
%TO.C,R9*%
X9500000Y-10297500D03*
X9500000Y-9102500D03*
%TD*%
D12*
%TO.C,JP2*%
X91849999Y-90600000D03*
D13*
X90550001Y-90600000D03*
%TD*%
D18*
%TO.C,C6*%
X33500000Y-74080000D03*
X33500000Y-73120000D03*
%TD*%
D10*
%TO.C,R4*%
X63500000Y-65297500D03*
X63500000Y-64102500D03*
%TD*%
D17*
%TO.C,J13*%
X85635001Y-31700000D03*
%TD*%
D10*
%TO.C,R3*%
X64500000Y-32300000D03*
X64500000Y-31105000D03*
%TD*%
%TO.C,R7*%
X71500000Y-43297500D03*
X71500000Y-42102500D03*
%TD*%
D14*
%TO.C,KiKit_MB_23_1*%
X82500000Y-16699999D03*
%TD*%
D19*
%TO.C,J8*%
X89445001Y-62365000D03*
%TD*%
D17*
%TO.C,J12*%
X84365001Y-86700000D03*
%TD*%
D18*
%TO.C,C11*%
X43500000Y-19080000D03*
X43500000Y-18120000D03*
%TD*%
D14*
%TO.C,KiKit_MB_11_4*%
X85000000Y-5700000D03*
%TD*%
D10*
%TO.C,R11*%
X43500000Y-32297500D03*
X43500000Y-31102500D03*
%TD*%
%TO.C,R6*%
X33500000Y-54297500D03*
X33500000Y-53102500D03*
%TD*%
D14*
%TO.C,KiKit_MB_55_5*%
X53833333Y-49699999D03*
%TD*%
D12*
%TO.C,JP3*%
X32849999Y-35600000D03*
D13*
X31550001Y-35600000D03*
%TD*%
D19*
%TO.C,J5*%
X21635001Y-18300000D03*
%TD*%
D17*
%TO.C,J11*%
X83095001Y-53700000D03*
%TD*%
D14*
%TO.C,KiKit_MB_93_4*%
X69700000Y-87499999D03*
%TD*%
D10*
%TO.C,R12*%
X12500000Y-54297500D03*
X12500000Y-53102500D03*
%TD*%
D14*
%TO.C,KiKit_MB_95_3*%
X84166667Y-82699999D03*
%TD*%
%TO.C,KiKit_MB_37_2*%
X5700000Y-45166666D03*
%TD*%
D18*
%TO.C,C11*%
X75500000Y-8080000D03*
X75500000Y-7120000D03*
%TD*%
D14*
%TO.C,KiKit_MB_30_4*%
X68300000Y-32499999D03*
%TD*%
%TO.C,KiKit_MB_89_6*%
X37700000Y-85833332D03*
%TD*%
%TO.C,KiKit_MB_25_5*%
X5700000Y-31666666D03*
%TD*%
D18*
%TO.C,C5*%
X34500000Y-30080000D03*
X34500000Y-29120000D03*
%TD*%
D10*
%TO.C,R8*%
X40500000Y-43297500D03*
X40500000Y-42102500D03*
%TD*%
D14*
%TO.C,KiKit_MB_11_1*%
X82500000Y-5700000D03*
%TD*%
%TO.C,KiKit_MB_63_2*%
X19333334Y-60699999D03*
%TD*%
D18*
%TO.C,C12*%
X12500000Y-74080000D03*
X12500000Y-73120000D03*
%TD*%
D14*
%TO.C,KiKit_MB_25_1*%
X5700000Y-34999999D03*
%TD*%
D10*
%TO.C,R6*%
X65500000Y-21297500D03*
X65500000Y-20102500D03*
%TD*%
D17*
%TO.C,J9*%
X16555001Y-9765000D03*
%TD*%
D14*
%TO.C,KiKit_MB_88_3*%
X21833333Y-92299999D03*
%TD*%
D18*
%TO.C,C4*%
X31500000Y-30080000D03*
X31500000Y-29120000D03*
%TD*%
D10*
%TO.C,R11*%
X11500000Y-87297500D03*
X11500000Y-86102500D03*
%TD*%
D14*
%TO.C,KiKit_MB_68_4*%
X53000000Y-70299999D03*
%TD*%
D11*
%TO.C,J21*%
X45380000Y-23500000D03*
%TD*%
D18*
%TO.C,C5*%
X34500000Y-19080000D03*
X34500000Y-18120000D03*
%TD*%
D19*
%TO.C,J4*%
X20365001Y-7300000D03*
%TD*%
D18*
%TO.C,C5*%
X34500000Y-63080000D03*
X34500000Y-62120000D03*
%TD*%
D14*
%TO.C,KiKit_MB_96_6*%
X83333333Y-92299999D03*
%TD*%
%TO.C,KiKit_MB_84_2*%
X86666667Y-81299999D03*
%TD*%
D10*
%TO.C,R10*%
X10500000Y-54297500D03*
X10500000Y-53102500D03*
%TD*%
D11*
%TO.C,J17*%
X23540000Y-89500000D03*
%TD*%
D14*
%TO.C,KiKit_MB_97_2*%
X6000000Y-800000D03*
%TD*%
D10*
%TO.C,R8*%
X8500000Y-43297500D03*
X8500000Y-42102500D03*
%TD*%
D18*
%TO.C,C5*%
X98500000Y-74080000D03*
X98500000Y-73120000D03*
%TD*%
D14*
%TO.C,KiKit_MB_46_2*%
X100300000Y-41833332D03*
%TD*%
%TO.C,KiKit_MB_4_2*%
X22666667Y-15299999D03*
%TD*%
D10*
%TO.C,R1*%
X30500000Y-76297500D03*
X30500000Y-75102500D03*
%TD*%
%TO.C,R7*%
X39500000Y-43297500D03*
X39500000Y-42102500D03*
%TD*%
D19*
%TO.C,J5*%
X21635001Y-73300000D03*
%TD*%
D10*
%TO.C,R7*%
X7500000Y-10297500D03*
X7500000Y-9102500D03*
%TD*%
%TO.C,R10*%
X10500000Y-65297500D03*
X10500000Y-64102500D03*
%TD*%
D14*
%TO.C,KiKit_MB_7_2*%
X51333333Y-5700000D03*
%TD*%
D10*
%TO.C,R3*%
X32500000Y-87300000D03*
X32500000Y-86105000D03*
%TD*%
D14*
%TO.C,KiKit_MB_72_6*%
X83333333Y-70299999D03*
%TD*%
D20*
%TO.C,JP6*%
X16800000Y-56449999D03*
D21*
X16800000Y-55150001D03*
%TD*%
D11*
%TO.C,J20*%
X8300000Y-12500000D03*
%TD*%
D14*
%TO.C,KiKit_MB_48_5*%
X84166667Y-48299999D03*
%TD*%
%TO.C,KiKit_MB_103_6*%
X106000001Y-6000000D03*
%TD*%
%TO.C,KiKit_MB_89_5*%
X37700000Y-86666666D03*
%TD*%
D18*
%TO.C,C4*%
X63500000Y-74080000D03*
X63500000Y-73120000D03*
%TD*%
D14*
%TO.C,KiKit_MB_42_1*%
X68300000Y-40999999D03*
%TD*%
%TO.C,KiKit_MB_8_4*%
X53000000Y-15299999D03*
%TD*%
D10*
%TO.C,R10*%
X42500000Y-76297500D03*
X42500000Y-75102500D03*
%TD*%
D14*
%TO.C,KiKit_MB_31_3*%
X52166667Y-27699999D03*
%TD*%
%TO.C,KiKit_MB_3_1*%
X18500001Y-5700000D03*
%TD*%
D19*
%TO.C,J5*%
X53635001Y-51300000D03*
%TD*%
D14*
%TO.C,KiKit_MB_66_6*%
X68300000Y-67166666D03*
%TD*%
D12*
%TO.C,JP2*%
X91849999Y-35600000D03*
D13*
X90550001Y-35600000D03*
%TD*%
D14*
%TO.C,KiKit_MB_16_7*%
X18500001Y-26299999D03*
%TD*%
D10*
%TO.C,R1*%
X30500000Y-32297500D03*
X30500000Y-31102500D03*
%TD*%
D15*
%TO.C,JP5*%
X46150001Y-57600000D03*
D16*
X47449999Y-57600000D03*
%TD*%
D15*
%TO.C,JP4*%
X9150001Y-46600000D03*
D16*
X10449999Y-46600000D03*
%TD*%
D14*
%TO.C,KiKit_MB_18_4*%
X68300000Y-21499999D03*
%TD*%
%TO.C,KiKit_MB_59_1*%
X82500000Y-49699999D03*
%TD*%
D10*
%TO.C,R7*%
X71500000Y-10297500D03*
X71500000Y-9102500D03*
%TD*%
%TO.C,R12*%
X76500000Y-43297500D03*
X76500000Y-42102500D03*
%TD*%
D19*
%TO.C,J5*%
X21635001Y-62300000D03*
%TD*%
D10*
%TO.C,R4*%
X31500000Y-32297500D03*
X31500000Y-31102500D03*
%TD*%
D14*
%TO.C,KiKit_MB_78_4*%
X68300000Y-76499999D03*
%TD*%
%TO.C,KiKit_MB_80_2*%
X54666667Y-81299999D03*
%TD*%
D19*
%TO.C,J6*%
X86905001Y-62300000D03*
%TD*%
D10*
%TO.C,R12*%
X76500000Y-76297500D03*
X76500000Y-75102500D03*
%TD*%
%TO.C,R7*%
X39500000Y-54297500D03*
X39500000Y-53102500D03*
%TD*%
D17*
%TO.C,J10*%
X17825001Y-53700000D03*
%TD*%
D14*
%TO.C,KiKit_MB_43_7*%
X55500000Y-38699999D03*
%TD*%
D10*
%TO.C,R6*%
X33500000Y-43297500D03*
X33500000Y-42102500D03*
%TD*%
D14*
%TO.C,KiKit_MB_91_7*%
X55500000Y-82699999D03*
%TD*%
%TO.C,KiKit_MB_62_2*%
X36300000Y-63833332D03*
%TD*%
D17*
%TO.C,J12*%
X84365001Y-20700000D03*
%TD*%
D14*
%TO.C,KiKit_MB_30_5*%
X68300000Y-33333332D03*
%TD*%
%TO.C,KiKit_MB_86_2*%
X36300000Y-85833332D03*
%TD*%
%TO.C,KiKit_MB_39_4*%
X21000000Y-38699999D03*
%TD*%
D17*
%TO.C,J13*%
X53635001Y-53700000D03*
%TD*%
D14*
%TO.C,KiKit_MB_86_4*%
X36300000Y-87499999D03*
%TD*%
D12*
%TO.C,JP3*%
X96849999Y-24600000D03*
D13*
X95550001Y-24600000D03*
%TD*%
D14*
%TO.C,KiKit_MB_60_7*%
X82500000Y-59299999D03*
%TD*%
%TO.C,KiKit_MB_69_4*%
X69700000Y-65499999D03*
%TD*%
%TO.C,KiKit_MB_57_3*%
X69700000Y-55333332D03*
%TD*%
D10*
%TO.C,R4*%
X95500000Y-21297500D03*
X95500000Y-20102500D03*
%TD*%
D20*
%TO.C,JP6*%
X48800000Y-56449999D03*
D21*
X48800000Y-55150001D03*
%TD*%
D12*
%TO.C,JP2*%
X27849999Y-24600000D03*
D13*
X26550001Y-24600000D03*
%TD*%
D11*
%TO.C,J18*%
X28620000Y-78500000D03*
%TD*%
%TO.C,J17*%
X23540000Y-78500000D03*
%TD*%
D15*
%TO.C,JP4*%
X9150001Y-68600000D03*
D16*
X10449999Y-68600000D03*
%TD*%
D14*
%TO.C,KiKit_MB_92_1*%
X55500000Y-92299999D03*
%TD*%
D10*
%TO.C,R3*%
X32500000Y-65300000D03*
X32500000Y-64105000D03*
%TD*%
D14*
%TO.C,KiKit_MB_2_2*%
X36300000Y-8833333D03*
%TD*%
D10*
%TO.C,R8*%
X72500000Y-43297500D03*
X72500000Y-42102500D03*
%TD*%
D11*
%TO.C,J21*%
X77380000Y-34500000D03*
%TD*%
D14*
%TO.C,KiKit_MB_46_5*%
X100300000Y-44333332D03*
%TD*%
D19*
%TO.C,J2*%
X49825001Y-73300000D03*
%TD*%
D14*
%TO.C,KiKit_MB_67_1*%
X50500000Y-60699999D03*
%TD*%
%TO.C,KiKit_MB_30_7*%
X68300000Y-34999999D03*
%TD*%
D17*
%TO.C,J12*%
X84365001Y-64700000D03*
%TD*%
D19*
%TO.C,J5*%
X21635001Y-40300000D03*
%TD*%
D12*
%TO.C,JP2*%
X59849999Y-57600000D03*
D13*
X58550001Y-57600000D03*
%TD*%
D18*
%TO.C,C1*%
X62500000Y-52080000D03*
X62500000Y-51120000D03*
%TD*%
D17*
%TO.C,J14*%
X22905001Y-75700000D03*
%TD*%
%TO.C,J16*%
X57445001Y-20765000D03*
%TD*%
D14*
%TO.C,KiKit_MB_87_4*%
X21000000Y-82699999D03*
%TD*%
D18*
%TO.C,C5*%
X34500000Y-85080000D03*
X34500000Y-84120000D03*
%TD*%
D17*
%TO.C,J15*%
X56175001Y-20700000D03*
%TD*%
D10*
%TO.C,R5*%
X34500000Y-54297500D03*
X34500000Y-53102500D03*
%TD*%
D14*
%TO.C,KiKit_MB_80_7*%
X50500000Y-81299999D03*
%TD*%
D10*
%TO.C,R12*%
X44500000Y-76297500D03*
X44500000Y-75102500D03*
%TD*%
D14*
%TO.C,KiKit_MB_24_2*%
X86666667Y-26299999D03*
%TD*%
D11*
%TO.C,J21*%
X13380000Y-12500000D03*
%TD*%
D12*
%TO.C,JP2*%
X91849999Y-24600000D03*
D13*
X90550001Y-24600000D03*
%TD*%
D14*
%TO.C,KiKit_MB_75_3*%
X20166668Y-71699999D03*
%TD*%
%TO.C,KiKit_MB_73_5*%
X5700000Y-75666666D03*
%TD*%
%TO.C,KiKit_MB_90_5*%
X68300000Y-88333332D03*
%TD*%
D10*
%TO.C,R8*%
X72500000Y-65297500D03*
X72500000Y-64102500D03*
%TD*%
D11*
%TO.C,J20*%
X40300000Y-56500000D03*
%TD*%
D18*
%TO.C,C10*%
X74500000Y-52080000D03*
X74500000Y-51120000D03*
%TD*%
D14*
%TO.C,KiKit_MB_41_7*%
X37700000Y-40999999D03*
%TD*%
%TO.C,KiKit_MB_68_5*%
X52166667Y-70299999D03*
%TD*%
D10*
%TO.C,R12*%
X12500000Y-65297500D03*
X12500000Y-64102500D03*
%TD*%
D14*
%TO.C,KiKit_MB_99_3*%
X6000000Y-95600000D03*
%TD*%
%TO.C,KiKit_MB_19_4*%
X53000000Y-16699999D03*
%TD*%
D18*
%TO.C,C1*%
X94500000Y-8080000D03*
X94500000Y-7120000D03*
%TD*%
D14*
%TO.C,KiKit_MB_29_3*%
X37700000Y-33333332D03*
%TD*%
D10*
%TO.C,R11*%
X11500000Y-21297500D03*
X11500000Y-20102500D03*
%TD*%
D14*
%TO.C,KiKit_MB_47_2*%
X83333333Y-38699999D03*
%TD*%
D19*
%TO.C,J2*%
X17825001Y-51300000D03*
%TD*%
D18*
%TO.C,C6*%
X97500000Y-85080000D03*
X97500000Y-84120000D03*
%TD*%
D14*
%TO.C,KiKit_MB_40_2*%
X22666667Y-48299999D03*
%TD*%
%TO.C,KiKit_MB_95_2*%
X83333333Y-82699999D03*
%TD*%
D17*
%TO.C,J13*%
X21635001Y-20700000D03*
%TD*%
D14*
%TO.C,KiKit_MB_54_7*%
X68300000Y-56999999D03*
%TD*%
D11*
%TO.C,J17*%
X55540000Y-67500000D03*
%TD*%
D18*
%TO.C,C8*%
X40500000Y-19080000D03*
X40500000Y-18120000D03*
%TD*%
D11*
%TO.C,J17*%
X87540000Y-67500000D03*
%TD*%
D18*
%TO.C,C10*%
X74500000Y-8080000D03*
X74500000Y-7120000D03*
%TD*%
D17*
%TO.C,J16*%
X57445001Y-9765000D03*
%TD*%
D14*
%TO.C,KiKit_MB_3_7*%
X23500000Y-5700000D03*
%TD*%
%TO.C,KiKit_MB_29_7*%
X37700000Y-29999999D03*
%TD*%
D19*
%TO.C,J6*%
X54905001Y-29300000D03*
%TD*%
D10*
%TO.C,R10*%
X42500000Y-87297500D03*
X42500000Y-86102500D03*
%TD*%
D17*
%TO.C,J16*%
X57445001Y-64765000D03*
%TD*%
M02*
