%TF.GenerationSoftware,KiCad,Pcbnew,7.0.7-7.0.7~ubuntu22.04.1*%
%TF.CreationDate,2023-09-13T15:14:38+01:00*%
%TF.ProjectId,clvHd_master_pico,636c7648-645f-46d6-9173-7465725f7069,rev?*%
%TF.SameCoordinates,Original*%
%TF.FileFunction,Legend,Top*%
%TF.FilePolarity,Positive*%
%FSLAX46Y46*%
G04 Gerber Fmt 4.6, Leading zero omitted, Abs format (unit mm)*
G04 Created by KiCad (PCBNEW 7.0.7-7.0.7~ubuntu22.04.1) date 2023-09-13 15:14:38*
%MOMM*%
%LPD*%
G01*
G04 APERTURE LIST*
G04 Aperture macros list*
%AMRoundRect*
0 Rectangle with rounded corners*
0 $1 Rounding radius*
0 $2 $3 $4 $5 $6 $7 $8 $9 X,Y pos of 4 corners*
0 Add a 4 corners polygon primitive as box body*
4,1,4,$2,$3,$4,$5,$6,$7,$8,$9,$2,$3,0*
0 Add four circle primitives for the rounded corners*
1,1,$1+$1,$2,$3*
1,1,$1+$1,$4,$5*
1,1,$1+$1,$6,$7*
1,1,$1+$1,$8,$9*
0 Add four rect primitives between the rounded corners*
20,1,$1+$1,$2,$3,$4,$5,0*
20,1,$1+$1,$4,$5,$6,$7,0*
20,1,$1+$1,$6,$7,$8,$9,0*
20,1,$1+$1,$8,$9,$2,$3,0*%
G04 Aperture macros list end*
%ADD10C,1.000000*%
%ADD11C,0.152400*%
%ADD12C,0.304800*%
%ADD13C,0.300000*%
%ADD14C,0.120000*%
%ADD15R,1.700000X1.700000*%
%ADD16O,1.700000X1.700000*%
%ADD17RoundRect,0.800000X-0.050000X-0.450000X0.050000X-0.450000X0.050000X0.450000X-0.050000X0.450000X0*%
%ADD18RoundRect,0.800000X-0.450000X0.050000X-0.450000X-0.050000X0.450000X-0.050000X0.450000X0.050000X0*%
%ADD19RoundRect,0.800000X-0.700000X0.050000X-0.700000X-0.050000X0.700000X-0.050000X0.700000X0.050000X0*%
G04 APERTURE END LIST*
D10*
X93000000Y-54500000D02*
G75*
G03*
X89500000Y-58000000I0J-3500000D01*
G01*
D11*
X107600000Y-91100000D02*
X110200000Y-91100000D01*
X110200000Y-93600000D01*
X107600000Y-93600000D01*
X107600000Y-91100000D01*
G36*
X107600000Y-91100000D02*
G01*
X110200000Y-91100000D01*
X110200000Y-93600000D01*
X107600000Y-93600000D01*
X107600000Y-91100000D01*
G37*
X107600000Y-103800000D02*
X110200000Y-103800000D01*
X110200000Y-106300000D01*
X107600000Y-106300000D01*
X107600000Y-103800000D01*
G36*
X107600000Y-103800000D02*
G01*
X110200000Y-103800000D01*
X110200000Y-106300000D01*
X107600000Y-106300000D01*
X107600000Y-103800000D01*
G37*
D10*
X110499998Y-58000002D02*
G75*
G03*
X107000000Y-54500002I-3499998J2D01*
G01*
X106999998Y-117499998D02*
G75*
G03*
X110499998Y-114000000I2J3499998D01*
G01*
X89500002Y-113999998D02*
G75*
G03*
X93000000Y-117499998I3499998J-2D01*
G01*
D11*
X89800000Y-91100000D02*
X92400000Y-91100000D01*
X92400000Y-93600000D01*
X89800000Y-93600000D01*
X89800000Y-91100000D01*
G36*
X89800000Y-91100000D02*
G01*
X92400000Y-91100000D01*
X92400000Y-93600000D01*
X89800000Y-93600000D01*
X89800000Y-91100000D01*
G37*
X89800000Y-65700000D02*
X92400000Y-65700000D01*
X92400000Y-68200000D01*
X89800000Y-68200000D01*
X89800000Y-65700000D01*
G36*
X89800000Y-65700000D02*
G01*
X92400000Y-65700000D01*
X92400000Y-68200000D01*
X89800000Y-68200000D01*
X89800000Y-65700000D01*
G37*
X89800000Y-103800000D02*
X92400000Y-103800000D01*
X92400000Y-106300000D01*
X89800000Y-106300000D01*
X89800000Y-103800000D01*
G36*
X89800000Y-103800000D02*
G01*
X92400000Y-103800000D01*
X92400000Y-106300000D01*
X89800000Y-106300000D01*
X89800000Y-103800000D01*
G37*
X107600000Y-65700000D02*
X110200000Y-65700000D01*
X110200000Y-68200000D01*
X107600000Y-68200000D01*
X107600000Y-65700000D01*
G36*
X107600000Y-65700000D02*
G01*
X110200000Y-65700000D01*
X110200000Y-68200000D01*
X107600000Y-68200000D01*
X107600000Y-65700000D01*
G37*
X89800000Y-78400000D02*
X92400000Y-78400000D01*
X92400000Y-80900000D01*
X89800000Y-80900000D01*
X89800000Y-78400000D01*
G36*
X89800000Y-78400000D02*
G01*
X92400000Y-78400000D01*
X92400000Y-80900000D01*
X89800000Y-80900000D01*
X89800000Y-78400000D01*
G37*
X107600000Y-78400000D02*
X110200000Y-78400000D01*
X110200000Y-80900000D01*
X107600000Y-80900000D01*
X107600000Y-78400000D01*
G36*
X107600000Y-78400000D02*
G01*
X110200000Y-78400000D01*
X110200000Y-80900000D01*
X107600000Y-80900000D01*
X107600000Y-78400000D01*
G37*
D12*
X94116526Y-100689181D02*
X94116526Y-99890895D01*
X94116526Y-99890895D02*
X94043954Y-99745752D01*
X94043954Y-99745752D02*
X93898811Y-99673181D01*
X93898811Y-99673181D02*
X93608526Y-99673181D01*
X93608526Y-99673181D02*
X93463383Y-99745752D01*
X94116526Y-100616610D02*
X93971383Y-100689181D01*
X93971383Y-100689181D02*
X93608526Y-100689181D01*
X93608526Y-100689181D02*
X93463383Y-100616610D01*
X93463383Y-100616610D02*
X93390811Y-100471467D01*
X93390811Y-100471467D02*
X93390811Y-100326324D01*
X93390811Y-100326324D02*
X93463383Y-100181181D01*
X93463383Y-100181181D02*
X93608526Y-100108610D01*
X93608526Y-100108610D02*
X93971383Y-100108610D01*
X93971383Y-100108610D02*
X94116526Y-100036038D01*
X94769668Y-99310324D02*
X94842240Y-99237752D01*
X94842240Y-99237752D02*
X94987383Y-99165181D01*
X94987383Y-99165181D02*
X95350240Y-99165181D01*
X95350240Y-99165181D02*
X95495383Y-99237752D01*
X95495383Y-99237752D02*
X95567954Y-99310324D01*
X95567954Y-99310324D02*
X95640525Y-99455467D01*
X95640525Y-99455467D02*
X95640525Y-99600610D01*
X95640525Y-99600610D02*
X95567954Y-99818324D01*
X95567954Y-99818324D02*
X94697097Y-100689181D01*
X94697097Y-100689181D02*
X95640525Y-100689181D01*
D13*
X98035714Y-56327971D02*
X97964286Y-56399400D01*
X97964286Y-56399400D02*
X97750000Y-56470828D01*
X97750000Y-56470828D02*
X97607143Y-56470828D01*
X97607143Y-56470828D02*
X97392857Y-56399400D01*
X97392857Y-56399400D02*
X97250000Y-56256542D01*
X97250000Y-56256542D02*
X97178571Y-56113685D01*
X97178571Y-56113685D02*
X97107143Y-55827971D01*
X97107143Y-55827971D02*
X97107143Y-55613685D01*
X97107143Y-55613685D02*
X97178571Y-55327971D01*
X97178571Y-55327971D02*
X97250000Y-55185114D01*
X97250000Y-55185114D02*
X97392857Y-55042257D01*
X97392857Y-55042257D02*
X97607143Y-54970828D01*
X97607143Y-54970828D02*
X97750000Y-54970828D01*
X97750000Y-54970828D02*
X97964286Y-55042257D01*
X97964286Y-55042257D02*
X98035714Y-55113685D01*
X98892857Y-56470828D02*
X98750000Y-56399400D01*
X98750000Y-56399400D02*
X98678571Y-56256542D01*
X98678571Y-56256542D02*
X98678571Y-54970828D01*
X99321428Y-55470828D02*
X99678571Y-56470828D01*
X99678571Y-56470828D02*
X100035714Y-55470828D01*
X100607142Y-56470828D02*
X100607142Y-54970828D01*
X100607142Y-55685114D02*
X101464285Y-55685114D01*
X101464285Y-56470828D02*
X101464285Y-54970828D01*
X102821429Y-56470828D02*
X102821429Y-54970828D01*
X102821429Y-56399400D02*
X102678571Y-56470828D01*
X102678571Y-56470828D02*
X102392857Y-56470828D01*
X102392857Y-56470828D02*
X102250000Y-56399400D01*
X102250000Y-56399400D02*
X102178571Y-56327971D01*
X102178571Y-56327971D02*
X102107143Y-56185114D01*
X102107143Y-56185114D02*
X102107143Y-55756542D01*
X102107143Y-55756542D02*
X102178571Y-55613685D01*
X102178571Y-55613685D02*
X102250000Y-55542257D01*
X102250000Y-55542257D02*
X102392857Y-55470828D01*
X102392857Y-55470828D02*
X102678571Y-55470828D01*
X102678571Y-55470828D02*
X102821429Y-55542257D01*
X96678571Y-58885828D02*
X96678571Y-57385828D01*
X96678571Y-57385828D02*
X97178571Y-58457257D01*
X97178571Y-58457257D02*
X97678571Y-57385828D01*
X97678571Y-57385828D02*
X97678571Y-58885828D01*
X99035715Y-58885828D02*
X99035715Y-58100114D01*
X99035715Y-58100114D02*
X98964286Y-57957257D01*
X98964286Y-57957257D02*
X98821429Y-57885828D01*
X98821429Y-57885828D02*
X98535715Y-57885828D01*
X98535715Y-57885828D02*
X98392857Y-57957257D01*
X99035715Y-58814400D02*
X98892857Y-58885828D01*
X98892857Y-58885828D02*
X98535715Y-58885828D01*
X98535715Y-58885828D02*
X98392857Y-58814400D01*
X98392857Y-58814400D02*
X98321429Y-58671542D01*
X98321429Y-58671542D02*
X98321429Y-58528685D01*
X98321429Y-58528685D02*
X98392857Y-58385828D01*
X98392857Y-58385828D02*
X98535715Y-58314400D01*
X98535715Y-58314400D02*
X98892857Y-58314400D01*
X98892857Y-58314400D02*
X99035715Y-58242971D01*
X99678572Y-58814400D02*
X99821429Y-58885828D01*
X99821429Y-58885828D02*
X100107143Y-58885828D01*
X100107143Y-58885828D02*
X100250000Y-58814400D01*
X100250000Y-58814400D02*
X100321429Y-58671542D01*
X100321429Y-58671542D02*
X100321429Y-58600114D01*
X100321429Y-58600114D02*
X100250000Y-58457257D01*
X100250000Y-58457257D02*
X100107143Y-58385828D01*
X100107143Y-58385828D02*
X99892858Y-58385828D01*
X99892858Y-58385828D02*
X99750000Y-58314400D01*
X99750000Y-58314400D02*
X99678572Y-58171542D01*
X99678572Y-58171542D02*
X99678572Y-58100114D01*
X99678572Y-58100114D02*
X99750000Y-57957257D01*
X99750000Y-57957257D02*
X99892858Y-57885828D01*
X99892858Y-57885828D02*
X100107143Y-57885828D01*
X100107143Y-57885828D02*
X100250000Y-57957257D01*
X100750001Y-57885828D02*
X101321429Y-57885828D01*
X100964286Y-57385828D02*
X100964286Y-58671542D01*
X100964286Y-58671542D02*
X101035715Y-58814400D01*
X101035715Y-58814400D02*
X101178572Y-58885828D01*
X101178572Y-58885828D02*
X101321429Y-58885828D01*
X102392858Y-58814400D02*
X102250001Y-58885828D01*
X102250001Y-58885828D02*
X101964287Y-58885828D01*
X101964287Y-58885828D02*
X101821429Y-58814400D01*
X101821429Y-58814400D02*
X101750001Y-58671542D01*
X101750001Y-58671542D02*
X101750001Y-58100114D01*
X101750001Y-58100114D02*
X101821429Y-57957257D01*
X101821429Y-57957257D02*
X101964287Y-57885828D01*
X101964287Y-57885828D02*
X102250001Y-57885828D01*
X102250001Y-57885828D02*
X102392858Y-57957257D01*
X102392858Y-57957257D02*
X102464287Y-58100114D01*
X102464287Y-58100114D02*
X102464287Y-58242971D01*
X102464287Y-58242971D02*
X101750001Y-58385828D01*
X103107143Y-58885828D02*
X103107143Y-57885828D01*
X103107143Y-58171542D02*
X103178572Y-58028685D01*
X103178572Y-58028685D02*
X103250001Y-57957257D01*
X103250001Y-57957257D02*
X103392858Y-57885828D01*
X103392858Y-57885828D02*
X103535715Y-57885828D01*
X95000000Y-61300828D02*
X95000000Y-59800828D01*
X95000000Y-59800828D02*
X95571429Y-59800828D01*
X95571429Y-59800828D02*
X95714286Y-59872257D01*
X95714286Y-59872257D02*
X95785715Y-59943685D01*
X95785715Y-59943685D02*
X95857143Y-60086542D01*
X95857143Y-60086542D02*
X95857143Y-60300828D01*
X95857143Y-60300828D02*
X95785715Y-60443685D01*
X95785715Y-60443685D02*
X95714286Y-60515114D01*
X95714286Y-60515114D02*
X95571429Y-60586542D01*
X95571429Y-60586542D02*
X95000000Y-60586542D01*
X96500000Y-61300828D02*
X96500000Y-60300828D01*
X96500000Y-59800828D02*
X96428572Y-59872257D01*
X96428572Y-59872257D02*
X96500000Y-59943685D01*
X96500000Y-59943685D02*
X96571429Y-59872257D01*
X96571429Y-59872257D02*
X96500000Y-59800828D01*
X96500000Y-59800828D02*
X96500000Y-59943685D01*
X97857144Y-61229400D02*
X97714286Y-61300828D01*
X97714286Y-61300828D02*
X97428572Y-61300828D01*
X97428572Y-61300828D02*
X97285715Y-61229400D01*
X97285715Y-61229400D02*
X97214286Y-61157971D01*
X97214286Y-61157971D02*
X97142858Y-61015114D01*
X97142858Y-61015114D02*
X97142858Y-60586542D01*
X97142858Y-60586542D02*
X97214286Y-60443685D01*
X97214286Y-60443685D02*
X97285715Y-60372257D01*
X97285715Y-60372257D02*
X97428572Y-60300828D01*
X97428572Y-60300828D02*
X97714286Y-60300828D01*
X97714286Y-60300828D02*
X97857144Y-60372257D01*
X98714286Y-61300828D02*
X98571429Y-61229400D01*
X98571429Y-61229400D02*
X98500000Y-61157971D01*
X98500000Y-61157971D02*
X98428572Y-61015114D01*
X98428572Y-61015114D02*
X98428572Y-60586542D01*
X98428572Y-60586542D02*
X98500000Y-60443685D01*
X98500000Y-60443685D02*
X98571429Y-60372257D01*
X98571429Y-60372257D02*
X98714286Y-60300828D01*
X98714286Y-60300828D02*
X98928572Y-60300828D01*
X98928572Y-60300828D02*
X99071429Y-60372257D01*
X99071429Y-60372257D02*
X99142858Y-60443685D01*
X99142858Y-60443685D02*
X99214286Y-60586542D01*
X99214286Y-60586542D02*
X99214286Y-61015114D01*
X99214286Y-61015114D02*
X99142858Y-61157971D01*
X99142858Y-61157971D02*
X99071429Y-61229400D01*
X99071429Y-61229400D02*
X98928572Y-61300828D01*
X98928572Y-61300828D02*
X98714286Y-61300828D01*
X100857143Y-60300828D02*
X101214286Y-61300828D01*
X101214286Y-61300828D02*
X101571429Y-60300828D01*
X102928572Y-61300828D02*
X102071429Y-61300828D01*
X102500000Y-61300828D02*
X102500000Y-59800828D01*
X102500000Y-59800828D02*
X102357143Y-60015114D01*
X102357143Y-60015114D02*
X102214286Y-60157971D01*
X102214286Y-60157971D02*
X102071429Y-60229400D01*
X103571428Y-61157971D02*
X103642857Y-61229400D01*
X103642857Y-61229400D02*
X103571428Y-61300828D01*
X103571428Y-61300828D02*
X103500000Y-61229400D01*
X103500000Y-61229400D02*
X103571428Y-61157971D01*
X103571428Y-61157971D02*
X103571428Y-61300828D01*
X104571429Y-59800828D02*
X104714286Y-59800828D01*
X104714286Y-59800828D02*
X104857143Y-59872257D01*
X104857143Y-59872257D02*
X104928572Y-59943685D01*
X104928572Y-59943685D02*
X105000000Y-60086542D01*
X105000000Y-60086542D02*
X105071429Y-60372257D01*
X105071429Y-60372257D02*
X105071429Y-60729400D01*
X105071429Y-60729400D02*
X105000000Y-61015114D01*
X105000000Y-61015114D02*
X104928572Y-61157971D01*
X104928572Y-61157971D02*
X104857143Y-61229400D01*
X104857143Y-61229400D02*
X104714286Y-61300828D01*
X104714286Y-61300828D02*
X104571429Y-61300828D01*
X104571429Y-61300828D02*
X104428572Y-61229400D01*
X104428572Y-61229400D02*
X104357143Y-61157971D01*
X104357143Y-61157971D02*
X104285714Y-61015114D01*
X104285714Y-61015114D02*
X104214286Y-60729400D01*
X104214286Y-60729400D02*
X104214286Y-60372257D01*
X104214286Y-60372257D02*
X104285714Y-60086542D01*
X104285714Y-60086542D02*
X104357143Y-59943685D01*
X104357143Y-59943685D02*
X104428572Y-59872257D01*
X104428572Y-59872257D02*
X104571429Y-59800828D01*
D12*
X94189097Y-110989181D02*
X93463383Y-110989181D01*
X93463383Y-110989181D02*
X93463383Y-109465181D01*
X94697097Y-110190895D02*
X95205097Y-110190895D01*
X95422811Y-110989181D02*
X94697097Y-110989181D01*
X94697097Y-110989181D02*
X94697097Y-109465181D01*
X94697097Y-109465181D02*
X95422811Y-109465181D01*
X96075954Y-110989181D02*
X96075954Y-109465181D01*
X96075954Y-109465181D02*
X96438811Y-109465181D01*
X96438811Y-109465181D02*
X96656525Y-109537752D01*
X96656525Y-109537752D02*
X96801668Y-109682895D01*
X96801668Y-109682895D02*
X96874239Y-109828038D01*
X96874239Y-109828038D02*
X96946811Y-110118324D01*
X96946811Y-110118324D02*
X96946811Y-110336038D01*
X96946811Y-110336038D02*
X96874239Y-110626324D01*
X96874239Y-110626324D02*
X96801668Y-110771467D01*
X96801668Y-110771467D02*
X96656525Y-110916610D01*
X96656525Y-110916610D02*
X96438811Y-110989181D01*
X96438811Y-110989181D02*
X96075954Y-110989181D01*
X102182330Y-71265181D02*
X103125758Y-71265181D01*
X103125758Y-71265181D02*
X102617758Y-71845752D01*
X102617758Y-71845752D02*
X102835473Y-71845752D01*
X102835473Y-71845752D02*
X102980616Y-71918324D01*
X102980616Y-71918324D02*
X103053187Y-71990895D01*
X103053187Y-71990895D02*
X103125758Y-72136038D01*
X103125758Y-72136038D02*
X103125758Y-72498895D01*
X103125758Y-72498895D02*
X103053187Y-72644038D01*
X103053187Y-72644038D02*
X102980616Y-72716610D01*
X102980616Y-72716610D02*
X102835473Y-72789181D01*
X102835473Y-72789181D02*
X102400044Y-72789181D01*
X102400044Y-72789181D02*
X102254901Y-72716610D01*
X102254901Y-72716610D02*
X102182330Y-72644038D01*
X103778902Y-72644038D02*
X103851473Y-72716610D01*
X103851473Y-72716610D02*
X103778902Y-72789181D01*
X103778902Y-72789181D02*
X103706330Y-72716610D01*
X103706330Y-72716610D02*
X103778902Y-72644038D01*
X103778902Y-72644038D02*
X103778902Y-72789181D01*
X104359473Y-71265181D02*
X105302901Y-71265181D01*
X105302901Y-71265181D02*
X104794901Y-71845752D01*
X104794901Y-71845752D02*
X105012616Y-71845752D01*
X105012616Y-71845752D02*
X105157759Y-71918324D01*
X105157759Y-71918324D02*
X105230330Y-71990895D01*
X105230330Y-71990895D02*
X105302901Y-72136038D01*
X105302901Y-72136038D02*
X105302901Y-72498895D01*
X105302901Y-72498895D02*
X105230330Y-72644038D01*
X105230330Y-72644038D02*
X105157759Y-72716610D01*
X105157759Y-72716610D02*
X105012616Y-72789181D01*
X105012616Y-72789181D02*
X104577187Y-72789181D01*
X104577187Y-72789181D02*
X104432044Y-72716610D01*
X104432044Y-72716610D02*
X104359473Y-72644038D01*
X105738330Y-71265181D02*
X106246330Y-72789181D01*
X106246330Y-72789181D02*
X106754330Y-71265181D01*
D13*
X102845488Y-100539542D02*
X102845488Y-99339542D01*
X102845488Y-99339542D02*
X103245488Y-100196685D01*
X103245488Y-100196685D02*
X103645488Y-99339542D01*
X103645488Y-99339542D02*
X103645488Y-100539542D01*
X104445488Y-99339542D02*
X104674060Y-99339542D01*
X104674060Y-99339542D02*
X104788345Y-99396685D01*
X104788345Y-99396685D02*
X104902631Y-99510971D01*
X104902631Y-99510971D02*
X104959774Y-99739542D01*
X104959774Y-99739542D02*
X104959774Y-100139542D01*
X104959774Y-100139542D02*
X104902631Y-100368114D01*
X104902631Y-100368114D02*
X104788345Y-100482400D01*
X104788345Y-100482400D02*
X104674060Y-100539542D01*
X104674060Y-100539542D02*
X104445488Y-100539542D01*
X104445488Y-100539542D02*
X104331203Y-100482400D01*
X104331203Y-100482400D02*
X104216917Y-100368114D01*
X104216917Y-100368114D02*
X104159774Y-100139542D01*
X104159774Y-100139542D02*
X104159774Y-99739542D01*
X104159774Y-99739542D02*
X104216917Y-99510971D01*
X104216917Y-99510971D02*
X104331203Y-99396685D01*
X104331203Y-99396685D02*
X104445488Y-99339542D01*
X105416917Y-100482400D02*
X105588346Y-100539542D01*
X105588346Y-100539542D02*
X105874060Y-100539542D01*
X105874060Y-100539542D02*
X105988346Y-100482400D01*
X105988346Y-100482400D02*
X106045488Y-100425257D01*
X106045488Y-100425257D02*
X106102631Y-100310971D01*
X106102631Y-100310971D02*
X106102631Y-100196685D01*
X106102631Y-100196685D02*
X106045488Y-100082400D01*
X106045488Y-100082400D02*
X105988346Y-100025257D01*
X105988346Y-100025257D02*
X105874060Y-99968114D01*
X105874060Y-99968114D02*
X105645488Y-99910971D01*
X105645488Y-99910971D02*
X105531203Y-99853828D01*
X105531203Y-99853828D02*
X105474060Y-99796685D01*
X105474060Y-99796685D02*
X105416917Y-99682400D01*
X105416917Y-99682400D02*
X105416917Y-99568114D01*
X105416917Y-99568114D02*
X105474060Y-99453828D01*
X105474060Y-99453828D02*
X105531203Y-99396685D01*
X105531203Y-99396685D02*
X105645488Y-99339542D01*
X105645488Y-99339542D02*
X105931203Y-99339542D01*
X105931203Y-99339542D02*
X106102631Y-99396685D01*
X106616917Y-100539542D02*
X106616917Y-99339542D01*
D12*
X93390811Y-75216610D02*
X93535954Y-75289181D01*
X93535954Y-75289181D02*
X93826240Y-75289181D01*
X93826240Y-75289181D02*
X93971383Y-75216610D01*
X93971383Y-75216610D02*
X94043954Y-75071467D01*
X94043954Y-75071467D02*
X94043954Y-74998895D01*
X94043954Y-74998895D02*
X93971383Y-74853752D01*
X93971383Y-74853752D02*
X93826240Y-74781181D01*
X93826240Y-74781181D02*
X93608526Y-74781181D01*
X93608526Y-74781181D02*
X93463383Y-74708610D01*
X93463383Y-74708610D02*
X93390811Y-74563467D01*
X93390811Y-74563467D02*
X93390811Y-74490895D01*
X93390811Y-74490895D02*
X93463383Y-74345752D01*
X93463383Y-74345752D02*
X93608526Y-74273181D01*
X93608526Y-74273181D02*
X93826240Y-74273181D01*
X93826240Y-74273181D02*
X93971383Y-74345752D01*
X95350240Y-75289181D02*
X95350240Y-73765181D01*
X95350240Y-75216610D02*
X95205097Y-75289181D01*
X95205097Y-75289181D02*
X94914811Y-75289181D01*
X94914811Y-75289181D02*
X94769668Y-75216610D01*
X94769668Y-75216610D02*
X94697097Y-75144038D01*
X94697097Y-75144038D02*
X94624525Y-74998895D01*
X94624525Y-74998895D02*
X94624525Y-74563467D01*
X94624525Y-74563467D02*
X94697097Y-74418324D01*
X94697097Y-74418324D02*
X94769668Y-74345752D01*
X94769668Y-74345752D02*
X94914811Y-74273181D01*
X94914811Y-74273181D02*
X95205097Y-74273181D01*
X95205097Y-74273181D02*
X95350240Y-74345752D01*
X96729097Y-75289181D02*
X96729097Y-74490895D01*
X96729097Y-74490895D02*
X96656525Y-74345752D01*
X96656525Y-74345752D02*
X96511382Y-74273181D01*
X96511382Y-74273181D02*
X96221097Y-74273181D01*
X96221097Y-74273181D02*
X96075954Y-74345752D01*
X96729097Y-75216610D02*
X96583954Y-75289181D01*
X96583954Y-75289181D02*
X96221097Y-75289181D01*
X96221097Y-75289181D02*
X96075954Y-75216610D01*
X96075954Y-75216610D02*
X96003382Y-75071467D01*
X96003382Y-75071467D02*
X96003382Y-74926324D01*
X96003382Y-74926324D02*
X96075954Y-74781181D01*
X96075954Y-74781181D02*
X96221097Y-74708610D01*
X96221097Y-74708610D02*
X96583954Y-74708610D01*
X96583954Y-74708610D02*
X96729097Y-74636038D01*
X94116526Y-70189181D02*
X94116526Y-69390895D01*
X94116526Y-69390895D02*
X94043954Y-69245752D01*
X94043954Y-69245752D02*
X93898811Y-69173181D01*
X93898811Y-69173181D02*
X93608526Y-69173181D01*
X93608526Y-69173181D02*
X93463383Y-69245752D01*
X94116526Y-70116610D02*
X93971383Y-70189181D01*
X93971383Y-70189181D02*
X93608526Y-70189181D01*
X93608526Y-70189181D02*
X93463383Y-70116610D01*
X93463383Y-70116610D02*
X93390811Y-69971467D01*
X93390811Y-69971467D02*
X93390811Y-69826324D01*
X93390811Y-69826324D02*
X93463383Y-69681181D01*
X93463383Y-69681181D02*
X93608526Y-69608610D01*
X93608526Y-69608610D02*
X93971383Y-69608610D01*
X93971383Y-69608610D02*
X94116526Y-69536038D01*
X95495383Y-69173181D02*
X95495383Y-70189181D01*
X94842240Y-69173181D02*
X94842240Y-69971467D01*
X94842240Y-69971467D02*
X94914811Y-70116610D01*
X94914811Y-70116610D02*
X95059954Y-70189181D01*
X95059954Y-70189181D02*
X95277668Y-70189181D01*
X95277668Y-70189181D02*
X95422811Y-70116610D01*
X95422811Y-70116610D02*
X95495383Y-70044038D01*
X96075954Y-70189181D02*
X96874240Y-69173181D01*
X96075954Y-69173181D02*
X96874240Y-70189181D01*
X97382239Y-68810324D02*
X97454811Y-68737752D01*
X97454811Y-68737752D02*
X97599954Y-68665181D01*
X97599954Y-68665181D02*
X97962811Y-68665181D01*
X97962811Y-68665181D02*
X98107954Y-68737752D01*
X98107954Y-68737752D02*
X98180525Y-68810324D01*
X98180525Y-68810324D02*
X98253096Y-68955467D01*
X98253096Y-68955467D02*
X98253096Y-69100610D01*
X98253096Y-69100610D02*
X98180525Y-69318324D01*
X98180525Y-69318324D02*
X97309668Y-70189181D01*
X97309668Y-70189181D02*
X98253096Y-70189181D01*
X94116526Y-72789181D02*
X94116526Y-71990895D01*
X94116526Y-71990895D02*
X94043954Y-71845752D01*
X94043954Y-71845752D02*
X93898811Y-71773181D01*
X93898811Y-71773181D02*
X93608526Y-71773181D01*
X93608526Y-71773181D02*
X93463383Y-71845752D01*
X94116526Y-72716610D02*
X93971383Y-72789181D01*
X93971383Y-72789181D02*
X93608526Y-72789181D01*
X93608526Y-72789181D02*
X93463383Y-72716610D01*
X93463383Y-72716610D02*
X93390811Y-72571467D01*
X93390811Y-72571467D02*
X93390811Y-72426324D01*
X93390811Y-72426324D02*
X93463383Y-72281181D01*
X93463383Y-72281181D02*
X93608526Y-72208610D01*
X93608526Y-72208610D02*
X93971383Y-72208610D01*
X93971383Y-72208610D02*
X94116526Y-72136038D01*
X95495383Y-71773181D02*
X95495383Y-72789181D01*
X94842240Y-71773181D02*
X94842240Y-72571467D01*
X94842240Y-72571467D02*
X94914811Y-72716610D01*
X94914811Y-72716610D02*
X95059954Y-72789181D01*
X95059954Y-72789181D02*
X95277668Y-72789181D01*
X95277668Y-72789181D02*
X95422811Y-72716610D01*
X95422811Y-72716610D02*
X95495383Y-72644038D01*
X96075954Y-72789181D02*
X96874240Y-71773181D01*
X96075954Y-71773181D02*
X96874240Y-72789181D01*
X98253096Y-72789181D02*
X97382239Y-72789181D01*
X97817668Y-72789181D02*
X97817668Y-71265181D01*
X97817668Y-71265181D02*
X97672525Y-71482895D01*
X97672525Y-71482895D02*
X97527382Y-71628038D01*
X97527382Y-71628038D02*
X97382239Y-71700610D01*
X94116526Y-98089181D02*
X94116526Y-97290895D01*
X94116526Y-97290895D02*
X94043954Y-97145752D01*
X94043954Y-97145752D02*
X93898811Y-97073181D01*
X93898811Y-97073181D02*
X93608526Y-97073181D01*
X93608526Y-97073181D02*
X93463383Y-97145752D01*
X94116526Y-98016610D02*
X93971383Y-98089181D01*
X93971383Y-98089181D02*
X93608526Y-98089181D01*
X93608526Y-98089181D02*
X93463383Y-98016610D01*
X93463383Y-98016610D02*
X93390811Y-97871467D01*
X93390811Y-97871467D02*
X93390811Y-97726324D01*
X93390811Y-97726324D02*
X93463383Y-97581181D01*
X93463383Y-97581181D02*
X93608526Y-97508610D01*
X93608526Y-97508610D02*
X93971383Y-97508610D01*
X93971383Y-97508610D02*
X94116526Y-97436038D01*
X94697097Y-96565181D02*
X95640525Y-96565181D01*
X95640525Y-96565181D02*
X95132525Y-97145752D01*
X95132525Y-97145752D02*
X95350240Y-97145752D01*
X95350240Y-97145752D02*
X95495383Y-97218324D01*
X95495383Y-97218324D02*
X95567954Y-97290895D01*
X95567954Y-97290895D02*
X95640525Y-97436038D01*
X95640525Y-97436038D02*
X95640525Y-97798895D01*
X95640525Y-97798895D02*
X95567954Y-97944038D01*
X95567954Y-97944038D02*
X95495383Y-98016610D01*
X95495383Y-98016610D02*
X95350240Y-98089181D01*
X95350240Y-98089181D02*
X94914811Y-98089181D01*
X94914811Y-98089181D02*
X94769668Y-98016610D01*
X94769668Y-98016610D02*
X94697097Y-97944038D01*
D13*
X104616917Y-108139542D02*
X104216917Y-107568114D01*
X103931203Y-108139542D02*
X103931203Y-106939542D01*
X103931203Y-106939542D02*
X104388346Y-106939542D01*
X104388346Y-106939542D02*
X104502631Y-106996685D01*
X104502631Y-106996685D02*
X104559774Y-107053828D01*
X104559774Y-107053828D02*
X104616917Y-107168114D01*
X104616917Y-107168114D02*
X104616917Y-107339542D01*
X104616917Y-107339542D02*
X104559774Y-107453828D01*
X104559774Y-107453828D02*
X104502631Y-107510971D01*
X104502631Y-107510971D02*
X104388346Y-107568114D01*
X104388346Y-107568114D02*
X103931203Y-107568114D01*
X105074060Y-108082400D02*
X105245489Y-108139542D01*
X105245489Y-108139542D02*
X105531203Y-108139542D01*
X105531203Y-108139542D02*
X105645489Y-108082400D01*
X105645489Y-108082400D02*
X105702631Y-108025257D01*
X105702631Y-108025257D02*
X105759774Y-107910971D01*
X105759774Y-107910971D02*
X105759774Y-107796685D01*
X105759774Y-107796685D02*
X105702631Y-107682400D01*
X105702631Y-107682400D02*
X105645489Y-107625257D01*
X105645489Y-107625257D02*
X105531203Y-107568114D01*
X105531203Y-107568114D02*
X105302631Y-107510971D01*
X105302631Y-107510971D02*
X105188346Y-107453828D01*
X105188346Y-107453828D02*
X105131203Y-107396685D01*
X105131203Y-107396685D02*
X105074060Y-107282400D01*
X105074060Y-107282400D02*
X105074060Y-107168114D01*
X105074060Y-107168114D02*
X105131203Y-107053828D01*
X105131203Y-107053828D02*
X105188346Y-106996685D01*
X105188346Y-106996685D02*
X105302631Y-106939542D01*
X105302631Y-106939542D02*
X105588346Y-106939542D01*
X105588346Y-106939542D02*
X105759774Y-106996685D01*
X106102631Y-106939542D02*
X106788346Y-106939542D01*
X106445488Y-108139542D02*
X106445488Y-106939542D01*
X102845488Y-110739542D02*
X102845488Y-109539542D01*
X102845488Y-109539542D02*
X103245488Y-110396685D01*
X103245488Y-110396685D02*
X103645488Y-109539542D01*
X103645488Y-109539542D02*
X103645488Y-110739542D01*
X104216917Y-110739542D02*
X104216917Y-109539542D01*
X104731203Y-110682400D02*
X104902632Y-110739542D01*
X104902632Y-110739542D02*
X105188346Y-110739542D01*
X105188346Y-110739542D02*
X105302632Y-110682400D01*
X105302632Y-110682400D02*
X105359774Y-110625257D01*
X105359774Y-110625257D02*
X105416917Y-110510971D01*
X105416917Y-110510971D02*
X105416917Y-110396685D01*
X105416917Y-110396685D02*
X105359774Y-110282400D01*
X105359774Y-110282400D02*
X105302632Y-110225257D01*
X105302632Y-110225257D02*
X105188346Y-110168114D01*
X105188346Y-110168114D02*
X104959774Y-110110971D01*
X104959774Y-110110971D02*
X104845489Y-110053828D01*
X104845489Y-110053828D02*
X104788346Y-109996685D01*
X104788346Y-109996685D02*
X104731203Y-109882400D01*
X104731203Y-109882400D02*
X104731203Y-109768114D01*
X104731203Y-109768114D02*
X104788346Y-109653828D01*
X104788346Y-109653828D02*
X104845489Y-109596685D01*
X104845489Y-109596685D02*
X104959774Y-109539542D01*
X104959774Y-109539542D02*
X105245489Y-109539542D01*
X105245489Y-109539542D02*
X105416917Y-109596685D01*
X106159774Y-109539542D02*
X106388346Y-109539542D01*
X106388346Y-109539542D02*
X106502631Y-109596685D01*
X106502631Y-109596685D02*
X106616917Y-109710971D01*
X106616917Y-109710971D02*
X106674060Y-109939542D01*
X106674060Y-109939542D02*
X106674060Y-110339542D01*
X106674060Y-110339542D02*
X106616917Y-110568114D01*
X106616917Y-110568114D02*
X106502631Y-110682400D01*
X106502631Y-110682400D02*
X106388346Y-110739542D01*
X106388346Y-110739542D02*
X106159774Y-110739542D01*
X106159774Y-110739542D02*
X106045489Y-110682400D01*
X106045489Y-110682400D02*
X105931203Y-110568114D01*
X105931203Y-110568114D02*
X105874060Y-110339542D01*
X105874060Y-110339542D02*
X105874060Y-109939542D01*
X105874060Y-109939542D02*
X105931203Y-109710971D01*
X105931203Y-109710971D02*
X106045489Y-109596685D01*
X106045489Y-109596685D02*
X106159774Y-109539542D01*
D12*
X93390811Y-77716610D02*
X93535954Y-77789181D01*
X93535954Y-77789181D02*
X93826240Y-77789181D01*
X93826240Y-77789181D02*
X93971383Y-77716610D01*
X93971383Y-77716610D02*
X94043954Y-77571467D01*
X94043954Y-77571467D02*
X94043954Y-77498895D01*
X94043954Y-77498895D02*
X93971383Y-77353752D01*
X93971383Y-77353752D02*
X93826240Y-77281181D01*
X93826240Y-77281181D02*
X93608526Y-77281181D01*
X93608526Y-77281181D02*
X93463383Y-77208610D01*
X93463383Y-77208610D02*
X93390811Y-77063467D01*
X93390811Y-77063467D02*
X93390811Y-76990895D01*
X93390811Y-76990895D02*
X93463383Y-76845752D01*
X93463383Y-76845752D02*
X93608526Y-76773181D01*
X93608526Y-76773181D02*
X93826240Y-76773181D01*
X93826240Y-76773181D02*
X93971383Y-76845752D01*
X95350240Y-77716610D02*
X95205097Y-77789181D01*
X95205097Y-77789181D02*
X94914811Y-77789181D01*
X94914811Y-77789181D02*
X94769668Y-77716610D01*
X94769668Y-77716610D02*
X94697097Y-77644038D01*
X94697097Y-77644038D02*
X94624525Y-77498895D01*
X94624525Y-77498895D02*
X94624525Y-77063467D01*
X94624525Y-77063467D02*
X94697097Y-76918324D01*
X94697097Y-76918324D02*
X94769668Y-76845752D01*
X94769668Y-76845752D02*
X94914811Y-76773181D01*
X94914811Y-76773181D02*
X95205097Y-76773181D01*
X95205097Y-76773181D02*
X95350240Y-76845752D01*
X96221097Y-77789181D02*
X96075954Y-77716610D01*
X96075954Y-77716610D02*
X96003383Y-77571467D01*
X96003383Y-77571467D02*
X96003383Y-76265181D01*
X94116526Y-103289181D02*
X94116526Y-102490895D01*
X94116526Y-102490895D02*
X94043954Y-102345752D01*
X94043954Y-102345752D02*
X93898811Y-102273181D01*
X93898811Y-102273181D02*
X93608526Y-102273181D01*
X93608526Y-102273181D02*
X93463383Y-102345752D01*
X94116526Y-103216610D02*
X93971383Y-103289181D01*
X93971383Y-103289181D02*
X93608526Y-103289181D01*
X93608526Y-103289181D02*
X93463383Y-103216610D01*
X93463383Y-103216610D02*
X93390811Y-103071467D01*
X93390811Y-103071467D02*
X93390811Y-102926324D01*
X93390811Y-102926324D02*
X93463383Y-102781181D01*
X93463383Y-102781181D02*
X93608526Y-102708610D01*
X93608526Y-102708610D02*
X93971383Y-102708610D01*
X93971383Y-102708610D02*
X94116526Y-102636038D01*
X95640525Y-103289181D02*
X94769668Y-103289181D01*
X95205097Y-103289181D02*
X95205097Y-101765181D01*
X95205097Y-101765181D02*
X95059954Y-101982895D01*
X95059954Y-101982895D02*
X94914811Y-102128038D01*
X94914811Y-102128038D02*
X94769668Y-102200610D01*
X94116526Y-95589181D02*
X94116526Y-94790895D01*
X94116526Y-94790895D02*
X94043954Y-94645752D01*
X94043954Y-94645752D02*
X93898811Y-94573181D01*
X93898811Y-94573181D02*
X93608526Y-94573181D01*
X93608526Y-94573181D02*
X93463383Y-94645752D01*
X94116526Y-95516610D02*
X93971383Y-95589181D01*
X93971383Y-95589181D02*
X93608526Y-95589181D01*
X93608526Y-95589181D02*
X93463383Y-95516610D01*
X93463383Y-95516610D02*
X93390811Y-95371467D01*
X93390811Y-95371467D02*
X93390811Y-95226324D01*
X93390811Y-95226324D02*
X93463383Y-95081181D01*
X93463383Y-95081181D02*
X93608526Y-95008610D01*
X93608526Y-95008610D02*
X93971383Y-95008610D01*
X93971383Y-95008610D02*
X94116526Y-94936038D01*
X95495383Y-94573181D02*
X95495383Y-95589181D01*
X95132525Y-93992610D02*
X94769668Y-95081181D01*
X94769668Y-95081181D02*
X95713097Y-95081181D01*
D13*
X102616917Y-103082400D02*
X102788346Y-103139542D01*
X102788346Y-103139542D02*
X103074060Y-103139542D01*
X103074060Y-103139542D02*
X103188346Y-103082400D01*
X103188346Y-103082400D02*
X103245488Y-103025257D01*
X103245488Y-103025257D02*
X103302631Y-102910971D01*
X103302631Y-102910971D02*
X103302631Y-102796685D01*
X103302631Y-102796685D02*
X103245488Y-102682400D01*
X103245488Y-102682400D02*
X103188346Y-102625257D01*
X103188346Y-102625257D02*
X103074060Y-102568114D01*
X103074060Y-102568114D02*
X102845488Y-102510971D01*
X102845488Y-102510971D02*
X102731203Y-102453828D01*
X102731203Y-102453828D02*
X102674060Y-102396685D01*
X102674060Y-102396685D02*
X102616917Y-102282400D01*
X102616917Y-102282400D02*
X102616917Y-102168114D01*
X102616917Y-102168114D02*
X102674060Y-102053828D01*
X102674060Y-102053828D02*
X102731203Y-101996685D01*
X102731203Y-101996685D02*
X102845488Y-101939542D01*
X102845488Y-101939542D02*
X103131203Y-101939542D01*
X103131203Y-101939542D02*
X103302631Y-101996685D01*
X104502631Y-103025257D02*
X104445488Y-103082400D01*
X104445488Y-103082400D02*
X104274060Y-103139542D01*
X104274060Y-103139542D02*
X104159774Y-103139542D01*
X104159774Y-103139542D02*
X103988345Y-103082400D01*
X103988345Y-103082400D02*
X103874060Y-102968114D01*
X103874060Y-102968114D02*
X103816917Y-102853828D01*
X103816917Y-102853828D02*
X103759774Y-102625257D01*
X103759774Y-102625257D02*
X103759774Y-102453828D01*
X103759774Y-102453828D02*
X103816917Y-102225257D01*
X103816917Y-102225257D02*
X103874060Y-102110971D01*
X103874060Y-102110971D02*
X103988345Y-101996685D01*
X103988345Y-101996685D02*
X104159774Y-101939542D01*
X104159774Y-101939542D02*
X104274060Y-101939542D01*
X104274060Y-101939542D02*
X104445488Y-101996685D01*
X104445488Y-101996685D02*
X104502631Y-102053828D01*
X105588345Y-103139542D02*
X105016917Y-103139542D01*
X105016917Y-103139542D02*
X105016917Y-101939542D01*
X105988346Y-103139542D02*
X105988346Y-101939542D01*
X106674060Y-103139542D02*
X106159774Y-102453828D01*
X106674060Y-101939542D02*
X105988346Y-102625257D01*
D14*
%TO.C,J7*%
X105140000Y-81010000D02*
X103810000Y-81010000D01*
X105140000Y-79680000D02*
X105140000Y-81010000D01*
X105140000Y-78410000D02*
X105140000Y-73270000D01*
X105140000Y-78410000D02*
X102480000Y-78410000D01*
X105140000Y-73270000D02*
X102480000Y-73270000D01*
X102480000Y-78410000D02*
X102480000Y-73270000D01*
%TO.C,J6*%
X102600000Y-81010000D02*
X101270000Y-81010000D01*
X102600000Y-79680000D02*
X102600000Y-81010000D01*
X102600000Y-78410000D02*
X102600000Y-73270000D01*
X102600000Y-78410000D02*
X99940000Y-78410000D01*
X102600000Y-73270000D02*
X99940000Y-73270000D01*
X99940000Y-78410000D02*
X99940000Y-73270000D01*
%TO.C,J5*%
X107560000Y-60540000D02*
X108890000Y-60540000D01*
X107560000Y-61870000D02*
X107560000Y-60540000D01*
X107560000Y-63140000D02*
X107560000Y-111460000D01*
X107560000Y-63140000D02*
X110220000Y-63140000D01*
X107560000Y-111460000D02*
X110220000Y-111460000D01*
X110220000Y-63140000D02*
X110220000Y-111460000D01*
%TO.C,J4*%
X89780000Y-60540000D02*
X91110000Y-60540000D01*
X89780000Y-61870000D02*
X89780000Y-60540000D01*
X89780000Y-63140000D02*
X89780000Y-111460000D01*
X89780000Y-63140000D02*
X92440000Y-63140000D01*
X89780000Y-111460000D02*
X92440000Y-111460000D01*
X92440000Y-63140000D02*
X92440000Y-111460000D01*
%TD*%
%LPC*%
D15*
%TO.C,J7*%
X103810000Y-79680000D03*
D16*
X103810000Y-77140000D03*
X103810000Y-74600000D03*
%TD*%
D15*
%TO.C,J6*%
X101270000Y-79680000D03*
D16*
X101270000Y-77140000D03*
X101270000Y-74600000D03*
%TD*%
D15*
%TO.C,J5*%
X108890000Y-61870000D03*
D16*
X108890000Y-64410000D03*
X108890000Y-66950000D03*
X108890000Y-69490000D03*
X108890000Y-72030000D03*
X108890000Y-74570000D03*
X108890000Y-77110000D03*
X108890000Y-79650000D03*
X108890000Y-82190000D03*
X108890000Y-84730000D03*
X108890000Y-87270000D03*
X108890000Y-89810000D03*
X108890000Y-92350000D03*
X108890000Y-94890000D03*
X108890000Y-97430000D03*
X108890000Y-99970000D03*
X108890000Y-102510000D03*
X108890000Y-105050000D03*
X108890000Y-107590000D03*
X108890000Y-110130000D03*
%TD*%
D15*
%TO.C,J4*%
X91110000Y-61870000D03*
D16*
X91110000Y-64410000D03*
X91110000Y-66950000D03*
X91110000Y-69490000D03*
X91110000Y-72030000D03*
X91110000Y-74570000D03*
X91110000Y-77110000D03*
X91110000Y-79650000D03*
X91110000Y-82190000D03*
X91110000Y-84730000D03*
X91110000Y-87270000D03*
X91110000Y-89810000D03*
X91110000Y-92350000D03*
X91110000Y-94890000D03*
X91110000Y-97430000D03*
X91110000Y-99970000D03*
X91110000Y-102510000D03*
X91110000Y-105050000D03*
X91110000Y-107590000D03*
X91110000Y-110130000D03*
%TD*%
D17*
%TO.C,J3*%
X101750000Y-112145000D03*
D18*
X100000000Y-109845000D03*
D17*
X98250000Y-112145000D03*
D19*
X100000000Y-116345000D03*
%TD*%
%LPD*%
M02*
