%TF.GenerationSoftware,KiCad,Pcbnew,7.0.7-7.0.7~ubuntu22.04.1*%
%TF.CreationDate,2023-09-13T15:14:38+01:00*%
%TF.ProjectId,clvHd_master_pico,636c7648-645f-46d6-9173-7465725f7069,rev?*%
%TF.SameCoordinates,Original*%
%TF.FileFunction,Copper,L4,Bot*%
%TF.FilePolarity,Positive*%
%FSLAX46Y46*%
G04 Gerber Fmt 4.6, Leading zero omitted, Abs format (unit mm)*
G04 Created by KiCad (PCBNEW 7.0.7-7.0.7~ubuntu22.04.1) date 2023-09-13 15:14:38*
%MOMM*%
%LPD*%
G01*
G04 APERTURE LIST*
G04 Aperture macros list*
%AMRoundRect*
0 Rectangle with rounded corners*
0 $1 Rounding radius*
0 $2 $3 $4 $5 $6 $7 $8 $9 X,Y pos of 4 corners*
0 Add a 4 corners polygon primitive as box body*
4,1,4,$2,$3,$4,$5,$6,$7,$8,$9,$2,$3,0*
0 Add four circle primitives for the rounded corners*
1,1,$1+$1,$2,$3*
1,1,$1+$1,$4,$5*
1,1,$1+$1,$6,$7*
1,1,$1+$1,$8,$9*
0 Add four rect primitives between the rounded corners*
20,1,$1+$1,$2,$3,$4,$5,0*
20,1,$1+$1,$4,$5,$6,$7,0*
20,1,$1+$1,$6,$7,$8,$9,0*
20,1,$1+$1,$8,$9,$2,$3,0*%
G04 Aperture macros list end*
%TA.AperFunction,ComponentPad*%
%ADD10R,1.700000X1.700000*%
%TD*%
%TA.AperFunction,ComponentPad*%
%ADD11O,1.700000X1.700000*%
%TD*%
%TA.AperFunction,ComponentPad*%
%ADD12RoundRect,0.800000X-0.050000X-0.450000X0.050000X-0.450000X0.050000X0.450000X-0.050000X0.450000X0*%
%TD*%
%TA.AperFunction,ComponentPad*%
%ADD13RoundRect,0.800000X-0.450000X0.050000X-0.450000X-0.050000X0.450000X-0.050000X0.450000X0.050000X0*%
%TD*%
%TA.AperFunction,ComponentPad*%
%ADD14RoundRect,0.800000X-0.700000X0.050000X-0.700000X-0.050000X0.700000X-0.050000X0.700000X0.050000X0*%
%TD*%
%TA.AperFunction,SMDPad,CuDef*%
%ADD15R,1.600000X0.500000*%
%TD*%
%TA.AperFunction,SMDPad,CuDef*%
%ADD16R,2.900000X1.500000*%
%TD*%
%TA.AperFunction,ViaPad*%
%ADD17C,0.400000*%
%TD*%
%TA.AperFunction,Conductor*%
%ADD18C,0.100000*%
%TD*%
G04 APERTURE END LIST*
D10*
%TO.P,J7,1,Pin_1*%
%TO.N,3V3_BAT*%
X103810000Y-79680000D03*
D11*
%TO.P,J7,2,Pin_2*%
%TO.N,+3.3V*%
X103810000Y-77140000D03*
%TO.P,J7,3,Pin_3*%
%TO.N,3V3_PICO*%
X103810000Y-74600000D03*
%TD*%
D10*
%TO.P,J6,1,Pin_1*%
%TO.N,5V_BAT*%
X101270000Y-79680000D03*
D11*
%TO.P,J6,2,Pin_2*%
%TO.N,+5VA*%
X101270000Y-77140000D03*
%TO.P,J6,3,Pin_3*%
%TO.N,3V3_PICO*%
X101270000Y-74600000D03*
%TD*%
D10*
%TO.P,J5,1,Pin_1*%
%TO.N,unconnected-(J5-Pin_1-Pad1)*%
X108890000Y-61870000D03*
D11*
%TO.P,J5,2,Pin_2*%
%TO.N,unconnected-(J5-Pin_2-Pad2)*%
X108890000Y-64410000D03*
%TO.P,J5,3,Pin_3*%
%TO.N,GND*%
X108890000Y-66950000D03*
%TO.P,J5,4,Pin_4*%
%TO.N,unconnected-(J5-Pin_4-Pad4)*%
X108890000Y-69490000D03*
%TO.P,J5,5,Pin_5*%
%TO.N,3V3_PICO*%
X108890000Y-72030000D03*
%TO.P,J5,6,Pin_6*%
%TO.N,unconnected-(J5-Pin_6-Pad6)*%
X108890000Y-74570000D03*
%TO.P,J5,7,Pin_7*%
%TO.N,unconnected-(J5-Pin_7-Pad7)*%
X108890000Y-77110000D03*
%TO.P,J5,8,Pin_8*%
%TO.N,GND*%
X108890000Y-79650000D03*
%TO.P,J5,9,Pin_9*%
%TO.N,unconnected-(J5-Pin_9-Pad9)*%
X108890000Y-82190000D03*
%TO.P,J5,10,Pin_10*%
%TO.N,unconnected-(J5-Pin_10-Pad10)*%
X108890000Y-84730000D03*
%TO.P,J5,11,Pin_11*%
%TO.N,unconnected-(J5-Pin_11-Pad11)*%
X108890000Y-87270000D03*
%TO.P,J5,12,Pin_12*%
%TO.N,unconnected-(J5-Pin_12-Pad12)*%
X108890000Y-89810000D03*
%TO.P,J5,13,Pin_13*%
%TO.N,GND*%
X108890000Y-92350000D03*
%TO.P,J5,14,Pin_14*%
%TO.N,unconnected-(J5-Pin_14-Pad14)*%
X108890000Y-94890000D03*
%TO.P,J5,15,Pin_15*%
%TO.N,unconnected-(J5-Pin_15-Pad15)*%
X108890000Y-97430000D03*
%TO.P,J5,16,Pin_16*%
%TO.N,MOSI_DIN*%
X108890000Y-99970000D03*
%TO.P,J5,17,Pin_17*%
%TO.N,SCLK*%
X108890000Y-102510000D03*
%TO.P,J5,18,Pin_18*%
%TO.N,GND*%
X108890000Y-105050000D03*
%TO.P,J5,19,Pin_19*%
%TO.N,RESETB*%
X108890000Y-107590000D03*
%TO.P,J5,20,Pin_20*%
%TO.N,MISO_DOUT*%
X108890000Y-110130000D03*
%TD*%
D10*
%TO.P,J4,1,Pin_1*%
%TO.N,unconnected-(J4-Pin_1-Pad1)*%
X91110000Y-61870000D03*
D11*
%TO.P,J4,2,Pin_2*%
%TO.N,unconnected-(J4-Pin_2-Pad2)*%
X91110000Y-64410000D03*
%TO.P,J4,3,Pin_3*%
%TO.N,GND*%
X91110000Y-66950000D03*
%TO.P,J4,4,Pin_4*%
%TO.N,AUX2*%
X91110000Y-69490000D03*
%TO.P,J4,5,Pin_5*%
%TO.N,AUX1*%
X91110000Y-72030000D03*
%TO.P,J4,6,Pin_6*%
%TO.N,I2C_SDA*%
X91110000Y-74570000D03*
%TO.P,J4,7,Pin_7*%
%TO.N,I2C_SCL*%
X91110000Y-77110000D03*
%TO.P,J4,8,Pin_8*%
%TO.N,GND*%
X91110000Y-79650000D03*
%TO.P,J4,9,Pin_9*%
%TO.N,unconnected-(J4-Pin_9-Pad9)*%
X91110000Y-82190000D03*
%TO.P,J4,10,Pin_10*%
%TO.N,unconnected-(J4-Pin_10-Pad10)*%
X91110000Y-84730000D03*
%TO.P,J4,11,Pin_11*%
%TO.N,unconnected-(J4-Pin_11-Pad11)*%
X91110000Y-87270000D03*
%TO.P,J4,12,Pin_12*%
%TO.N,unconnected-(J4-Pin_12-Pad12)*%
X91110000Y-89810000D03*
%TO.P,J4,13,Pin_13*%
%TO.N,GND*%
X91110000Y-92350000D03*
%TO.P,J4,14,Pin_14*%
%TO.N,ADD_OUT4*%
X91110000Y-94890000D03*
%TO.P,J4,15,Pin_15*%
%TO.N,ADD_OUT3*%
X91110000Y-97430000D03*
%TO.P,J4,16,Pin_16*%
%TO.N,ADD_OUT2*%
X91110000Y-99970000D03*
%TO.P,J4,17,Pin_17*%
%TO.N,ADD_OUT1*%
X91110000Y-102510000D03*
%TO.P,J4,18,Pin_18*%
%TO.N,GND*%
X91110000Y-105050000D03*
%TO.P,J4,19,Pin_19*%
%TO.N,unconnected-(J4-Pin_19-Pad19)*%
X91110000Y-107590000D03*
%TO.P,J4,20,Pin_20*%
%TO.N,LED_OUT*%
X91110000Y-110130000D03*
%TD*%
D12*
%TO.P,J3,1,T*%
%TO.N,GND*%
X101750000Y-112145000D03*
D13*
%TO.P,J3,2,R*%
%TO.N,IN_ref*%
X100000000Y-109845000D03*
D12*
%TO.P,J3,3,T*%
%TO.N,GND*%
X98250000Y-112145000D03*
D14*
%TO.P,J3,6,S*%
%TO.N,IN_ref*%
X100000000Y-116345000D03*
%TD*%
D15*
%TO.P,J1,1,1*%
%TO.N,+3.3V*%
X101100000Y-88350000D03*
%TO.P,J1,2,2*%
%TO.N,+5VA*%
X98700000Y-88850000D03*
%TO.P,J1,3,3*%
%TO.N,MISO_DOUT*%
X101100000Y-89350000D03*
%TO.P,J1,4,4*%
%TO.N,GND*%
X98700000Y-89850000D03*
%TO.P,J1,5,5*%
%TO.N,MOSI_DIN*%
X101100000Y-90350000D03*
%TO.P,J1,6,6*%
%TO.N,AUX2*%
X98700000Y-90850000D03*
%TO.P,J1,7,7*%
%TO.N,SCLK*%
X101100000Y-91350000D03*
%TO.P,J1,8,8*%
%TO.N,AUX1*%
X98700000Y-91850000D03*
%TO.P,J1,9,9*%
%TO.N,GND*%
X101100000Y-92350000D03*
%TO.P,J1,10,10*%
%TO.N,IN_ref*%
X98700000Y-92850000D03*
%TO.P,J1,11,11*%
%TO.N,RESETB*%
X101100000Y-93350000D03*
%TO.P,J1,12,12*%
%TO.N,I2C_SCL*%
X98700000Y-93850000D03*
%TO.P,J1,13,13*%
%TO.N,I2C_SDA*%
X101100000Y-94350000D03*
%TO.P,J1,14,14*%
%TO.N,ADD_OUT4*%
X98700000Y-94850000D03*
%TO.P,J1,15,15*%
%TO.N,ADD_OUT3*%
X101100000Y-95350000D03*
%TO.P,J1,16,16*%
%TO.N,ADD_OUT2*%
X98700000Y-95850000D03*
%TO.P,J1,17,17*%
%TO.N,ADD_OUT1*%
X101100000Y-96350000D03*
%TO.P,J1,18,18*%
%TO.N,LED_OUT*%
X98700000Y-96850000D03*
D16*
%TO.P,J1,19,sh1*%
%TO.N,unconnected-(J1-sh1-Pad19)*%
X99900000Y-86600000D03*
%TO.P,J1,20,sh2*%
%TO.N,unconnected-(J1-sh2-Pad20)*%
X99900000Y-98600000D03*
%TD*%
D17*
%TO.N,GND*%
X97500000Y-89900000D03*
X99900000Y-92400000D03*
%TO.N,IN_ref*%
X99900000Y-93000000D03*
%TD*%
D18*
%TO.N,+3.3V*%
X105940000Y-79270000D02*
X103810000Y-77140000D01*
X101100000Y-88350000D02*
X101850000Y-88350000D01*
X101100000Y-88350000D02*
X105940000Y-83510000D01*
X105940000Y-83510000D02*
X105940000Y-79270000D01*
%TO.N,+5VA*%
X97460000Y-87610000D02*
X97475000Y-87625000D01*
X97460000Y-79680000D02*
X97460000Y-87610000D01*
X97460000Y-79680000D02*
X100000000Y-77140000D01*
X100000000Y-77140000D02*
X101270000Y-77140000D01*
X98700000Y-88850000D02*
X97475000Y-87625000D01*
%TO.N,MISO_DOUT*%
X101100000Y-89350000D02*
X100550000Y-89350000D01*
X105000000Y-106700000D02*
X108430000Y-110130000D01*
X108430000Y-110130000D02*
X108890000Y-110130000D01*
X100550000Y-89350000D02*
X100000000Y-89900000D01*
X100000000Y-89900000D02*
X100000000Y-91760000D01*
X105000000Y-94500000D02*
X105000000Y-106700000D01*
X100000000Y-91760000D02*
X100200000Y-91960000D01*
X100200000Y-91960000D02*
X102460000Y-91960000D01*
X102460000Y-91960000D02*
X105000000Y-94500000D01*
%TO.N,GND*%
X99950000Y-92350000D02*
X99900000Y-92400000D01*
X98700000Y-89850000D02*
X97550000Y-89850000D01*
X101100000Y-92350000D02*
X99950000Y-92350000D01*
%TO.N,MOSI_DIN*%
X103150000Y-90350000D02*
X106300000Y-93500000D01*
X106300000Y-97380000D02*
X108890000Y-99970000D01*
X101100000Y-90350000D02*
X103150000Y-90350000D01*
X106300000Y-93500000D02*
X106300000Y-97380000D01*
%TO.N,AUX2*%
X98650000Y-90900000D02*
X95406100Y-90900000D01*
X93470000Y-86100000D02*
X93470000Y-71850000D01*
X93470000Y-88963900D02*
X95406100Y-90900000D01*
X93470000Y-71850000D02*
X91110000Y-69490000D01*
X93470000Y-86100000D02*
X93470000Y-88963900D01*
X98700000Y-90850000D02*
X98650000Y-90900000D01*
%TO.N,SCLK*%
X105600000Y-99220000D02*
X108890000Y-102510000D01*
X101100000Y-91350000D02*
X103050000Y-91350000D01*
X103050000Y-91350000D02*
X105600000Y-93900000D01*
X105600000Y-93900000D02*
X105600000Y-99220000D01*
%TO.N,AUX1*%
X93280000Y-89000000D02*
X93280000Y-89042600D01*
X98700000Y-91850000D02*
X96087400Y-91850000D01*
X93280000Y-74200000D02*
X91110000Y-72030000D01*
X93280000Y-89000000D02*
X93280000Y-74200000D01*
X93280000Y-89042600D02*
X96087400Y-91850000D01*
%TO.N,IN_ref*%
X98700000Y-92850000D02*
X99750000Y-92850000D01*
X99750000Y-92850000D02*
X99900000Y-93000000D01*
%TO.N,RESETB*%
X107600000Y-111400000D02*
X109800000Y-111400000D01*
X101100000Y-93350000D02*
X102450000Y-93350000D01*
X110200000Y-108900000D02*
X108890000Y-107590000D01*
X104300000Y-108100000D02*
X107600000Y-111400000D01*
X109800000Y-111400000D02*
X110200000Y-111000000D01*
X110200000Y-111000000D02*
X110200000Y-108900000D01*
X104300000Y-95200000D02*
X104300000Y-108100000D01*
X102450000Y-93350000D02*
X104300000Y-95200000D01*
%TO.N,I2C_SCL*%
X92900000Y-89200000D02*
X97550000Y-93850000D01*
X97550000Y-93850000D02*
X98700000Y-93850000D01*
X91110000Y-77110000D02*
X92900000Y-78900000D01*
X92900000Y-78900000D02*
X92900000Y-89200000D01*
%TO.N,I2C_SDA*%
X100550000Y-94350000D02*
X101100000Y-94350000D01*
X99600000Y-93400000D02*
X100550000Y-94350000D01*
X93090000Y-89121300D02*
X97368700Y-93400000D01*
X97368700Y-93400000D02*
X99600000Y-93400000D01*
X91110000Y-74570000D02*
X93090000Y-76550000D01*
X93090000Y-76550000D02*
X93090000Y-89121300D01*
%TO.N,ADD_OUT4*%
X91110000Y-94890000D02*
X98660000Y-94890000D01*
X98660000Y-94890000D02*
X98700000Y-94850000D01*
%TO.N,ADD_OUT3*%
X91110000Y-97430000D02*
X93190000Y-95350000D01*
X93190000Y-95350000D02*
X101100000Y-95350000D01*
%TO.N,ADD_OUT2*%
X98700000Y-95850000D02*
X95230000Y-95850000D01*
X95230000Y-95850000D02*
X91110000Y-99970000D01*
%TO.N,ADD_OUT1*%
X101100000Y-96350000D02*
X97270000Y-96350000D01*
X97270000Y-96350000D02*
X91110000Y-102510000D01*
%TO.N,LED_OUT*%
X98700000Y-96850000D02*
X96900000Y-98650000D01*
X96900000Y-104400000D02*
X91170000Y-110130000D01*
X96900000Y-98650000D02*
X96900000Y-104400000D01*
X91170000Y-110130000D02*
X91110000Y-110130000D01*
%TD*%
M02*
