%TF.GenerationSoftware,KiCad,Pcbnew,7.0.7-7.0.7~ubuntu22.04.1*%
%TF.CreationDate,2023-09-13T15:14:38+01:00*%
%TF.ProjectId,clvHd_master_pico,636c7648-645f-46d6-9173-7465725f7069,rev?*%
%TF.SameCoordinates,Original*%
%TF.FileFunction,Copper,L1,Top*%
%TF.FilePolarity,Positive*%
%FSLAX46Y46*%
G04 Gerber Fmt 4.6, Leading zero omitted, Abs format (unit mm)*
G04 Created by KiCad (PCBNEW 7.0.7-7.0.7~ubuntu22.04.1) date 2023-09-13 15:14:38*
%MOMM*%
%LPD*%
G01*
G04 APERTURE LIST*
G04 Aperture macros list*
%AMRoundRect*
0 Rectangle with rounded corners*
0 $1 Rounding radius*
0 $2 $3 $4 $5 $6 $7 $8 $9 X,Y pos of 4 corners*
0 Add a 4 corners polygon primitive as box body*
4,1,4,$2,$3,$4,$5,$6,$7,$8,$9,$2,$3,0*
0 Add four circle primitives for the rounded corners*
1,1,$1+$1,$2,$3*
1,1,$1+$1,$4,$5*
1,1,$1+$1,$6,$7*
1,1,$1+$1,$8,$9*
0 Add four rect primitives between the rounded corners*
20,1,$1+$1,$2,$3,$4,$5,0*
20,1,$1+$1,$4,$5,$6,$7,0*
20,1,$1+$1,$6,$7,$8,$9,0*
20,1,$1+$1,$8,$9,$2,$3,0*%
G04 Aperture macros list end*
%TA.AperFunction,ComponentPad*%
%ADD10R,1.700000X1.700000*%
%TD*%
%TA.AperFunction,ComponentPad*%
%ADD11O,1.700000X1.700000*%
%TD*%
%TA.AperFunction,ComponentPad*%
%ADD12RoundRect,0.800000X-0.050000X-0.450000X0.050000X-0.450000X0.050000X0.450000X-0.050000X0.450000X0*%
%TD*%
%TA.AperFunction,ComponentPad*%
%ADD13RoundRect,0.800000X-0.450000X0.050000X-0.450000X-0.050000X0.450000X-0.050000X0.450000X0.050000X0*%
%TD*%
%TA.AperFunction,ComponentPad*%
%ADD14RoundRect,0.800000X-0.700000X0.050000X-0.700000X-0.050000X0.700000X-0.050000X0.700000X0.050000X0*%
%TD*%
%TA.AperFunction,ViaPad*%
%ADD15C,0.400000*%
%TD*%
%TA.AperFunction,Conductor*%
%ADD16C,0.100000*%
%TD*%
%TA.AperFunction,Conductor*%
%ADD17C,0.400000*%
%TD*%
G04 APERTURE END LIST*
D10*
%TO.P,J7,1,Pin_1*%
%TO.N,3V3_BAT*%
X103810000Y-79680000D03*
D11*
%TO.P,J7,2,Pin_2*%
%TO.N,+3.3V*%
X103810000Y-77140000D03*
%TO.P,J7,3,Pin_3*%
%TO.N,3V3_PICO*%
X103810000Y-74600000D03*
%TD*%
D10*
%TO.P,J6,1,Pin_1*%
%TO.N,5V_BAT*%
X101270000Y-79680000D03*
D11*
%TO.P,J6,2,Pin_2*%
%TO.N,+5VA*%
X101270000Y-77140000D03*
%TO.P,J6,3,Pin_3*%
%TO.N,3V3_PICO*%
X101270000Y-74600000D03*
%TD*%
D10*
%TO.P,J5,1,Pin_1*%
%TO.N,unconnected-(J5-Pin_1-Pad1)*%
X108890000Y-61870000D03*
D11*
%TO.P,J5,2,Pin_2*%
%TO.N,unconnected-(J5-Pin_2-Pad2)*%
X108890000Y-64410000D03*
%TO.P,J5,3,Pin_3*%
%TO.N,GND*%
X108890000Y-66950000D03*
%TO.P,J5,4,Pin_4*%
%TO.N,unconnected-(J5-Pin_4-Pad4)*%
X108890000Y-69490000D03*
%TO.P,J5,5,Pin_5*%
%TO.N,3V3_PICO*%
X108890000Y-72030000D03*
%TO.P,J5,6,Pin_6*%
%TO.N,unconnected-(J5-Pin_6-Pad6)*%
X108890000Y-74570000D03*
%TO.P,J5,7,Pin_7*%
%TO.N,unconnected-(J5-Pin_7-Pad7)*%
X108890000Y-77110000D03*
%TO.P,J5,8,Pin_8*%
%TO.N,GND*%
X108890000Y-79650000D03*
%TO.P,J5,9,Pin_9*%
%TO.N,unconnected-(J5-Pin_9-Pad9)*%
X108890000Y-82190000D03*
%TO.P,J5,10,Pin_10*%
%TO.N,unconnected-(J5-Pin_10-Pad10)*%
X108890000Y-84730000D03*
%TO.P,J5,11,Pin_11*%
%TO.N,unconnected-(J5-Pin_11-Pad11)*%
X108890000Y-87270000D03*
%TO.P,J5,12,Pin_12*%
%TO.N,unconnected-(J5-Pin_12-Pad12)*%
X108890000Y-89810000D03*
%TO.P,J5,13,Pin_13*%
%TO.N,GND*%
X108890000Y-92350000D03*
%TO.P,J5,14,Pin_14*%
%TO.N,unconnected-(J5-Pin_14-Pad14)*%
X108890000Y-94890000D03*
%TO.P,J5,15,Pin_15*%
%TO.N,unconnected-(J5-Pin_15-Pad15)*%
X108890000Y-97430000D03*
%TO.P,J5,16,Pin_16*%
%TO.N,MOSI_DIN*%
X108890000Y-99970000D03*
%TO.P,J5,17,Pin_17*%
%TO.N,SCLK*%
X108890000Y-102510000D03*
%TO.P,J5,18,Pin_18*%
%TO.N,GND*%
X108890000Y-105050000D03*
%TO.P,J5,19,Pin_19*%
%TO.N,RESETB*%
X108890000Y-107590000D03*
%TO.P,J5,20,Pin_20*%
%TO.N,MISO_DOUT*%
X108890000Y-110130000D03*
%TD*%
D10*
%TO.P,J4,1,Pin_1*%
%TO.N,unconnected-(J4-Pin_1-Pad1)*%
X91110000Y-61870000D03*
D11*
%TO.P,J4,2,Pin_2*%
%TO.N,unconnected-(J4-Pin_2-Pad2)*%
X91110000Y-64410000D03*
%TO.P,J4,3,Pin_3*%
%TO.N,GND*%
X91110000Y-66950000D03*
%TO.P,J4,4,Pin_4*%
%TO.N,AUX2*%
X91110000Y-69490000D03*
%TO.P,J4,5,Pin_5*%
%TO.N,AUX1*%
X91110000Y-72030000D03*
%TO.P,J4,6,Pin_6*%
%TO.N,I2C_SDA*%
X91110000Y-74570000D03*
%TO.P,J4,7,Pin_7*%
%TO.N,I2C_SCL*%
X91110000Y-77110000D03*
%TO.P,J4,8,Pin_8*%
%TO.N,GND*%
X91110000Y-79650000D03*
%TO.P,J4,9,Pin_9*%
%TO.N,unconnected-(J4-Pin_9-Pad9)*%
X91110000Y-82190000D03*
%TO.P,J4,10,Pin_10*%
%TO.N,unconnected-(J4-Pin_10-Pad10)*%
X91110000Y-84730000D03*
%TO.P,J4,11,Pin_11*%
%TO.N,unconnected-(J4-Pin_11-Pad11)*%
X91110000Y-87270000D03*
%TO.P,J4,12,Pin_12*%
%TO.N,unconnected-(J4-Pin_12-Pad12)*%
X91110000Y-89810000D03*
%TO.P,J4,13,Pin_13*%
%TO.N,GND*%
X91110000Y-92350000D03*
%TO.P,J4,14,Pin_14*%
%TO.N,ADD_OUT4*%
X91110000Y-94890000D03*
%TO.P,J4,15,Pin_15*%
%TO.N,ADD_OUT3*%
X91110000Y-97430000D03*
%TO.P,J4,16,Pin_16*%
%TO.N,ADD_OUT2*%
X91110000Y-99970000D03*
%TO.P,J4,17,Pin_17*%
%TO.N,ADD_OUT1*%
X91110000Y-102510000D03*
%TO.P,J4,18,Pin_18*%
%TO.N,GND*%
X91110000Y-105050000D03*
%TO.P,J4,19,Pin_19*%
%TO.N,unconnected-(J4-Pin_19-Pad19)*%
X91110000Y-107590000D03*
%TO.P,J4,20,Pin_20*%
%TO.N,LED_OUT*%
X91110000Y-110130000D03*
%TD*%
D12*
%TO.P,J3,1,T*%
%TO.N,GND*%
X101750000Y-112145000D03*
D13*
%TO.P,J3,2,R*%
%TO.N,IN_ref*%
X100000000Y-109845000D03*
D12*
%TO.P,J3,3,T*%
%TO.N,GND*%
X98250000Y-112145000D03*
D14*
%TO.P,J3,6,S*%
%TO.N,IN_ref*%
X100000000Y-116345000D03*
%TD*%
D15*
%TO.N,GND*%
X97500000Y-89900000D03*
X99900000Y-92400000D03*
%TO.N,IN_ref*%
X99900000Y-93000000D03*
%TD*%
D16*
%TO.N,GND*%
X98200000Y-112095000D02*
X98250000Y-112145000D01*
D17*
%TO.N,IN_ref*%
X97110000Y-113455000D02*
X97110000Y-110890000D01*
X98155000Y-109845000D02*
X100000000Y-109845000D01*
D16*
X99900000Y-93000000D02*
X99900000Y-109745000D01*
X99900000Y-109745000D02*
X100000000Y-109845000D01*
D17*
X100000000Y-116345000D02*
X97110000Y-113455000D01*
X97110000Y-110890000D02*
X98155000Y-109845000D01*
D16*
%TO.N,3V3_PICO*%
X106350000Y-72060000D02*
X103810000Y-74600000D01*
X108860000Y-72060000D02*
X106350000Y-72060000D01*
X101270000Y-74600000D02*
X103810000Y-74600000D01*
X108890000Y-72030000D02*
X108860000Y-72060000D01*
%TD*%
M02*
