%TF.GenerationSoftware,KiCad,Pcbnew,8.0.1-8.0.1-1~ubuntu22.04.1*%
%TF.CreationDate,2024-03-30T15:12:20+00:00*%
%TF.ProjectId,EMG_INA331,454d475f-494e-4413-9333-312e6b696361,1.0*%
%TF.SameCoordinates,Original*%
%TF.FileFunction,Copper,L1,Top*%
%TF.FilePolarity,Positive*%
%FSLAX46Y46*%
G04 Gerber Fmt 4.6, Leading zero omitted, Abs format (unit mm)*
G04 Created by KiCad (PCBNEW 8.0.1-8.0.1-1~ubuntu22.04.1) date 2024-03-30 15:12:20*
%MOMM*%
%LPD*%
G01*
G04 APERTURE LIST*
G04 Aperture macros list*
%AMRoundRect*
0 Rectangle with rounded corners*
0 $1 Rounding radius*
0 $2 $3 $4 $5 $6 $7 $8 $9 X,Y pos of 4 corners*
0 Add a 4 corners polygon primitive as box body*
4,1,4,$2,$3,$4,$5,$6,$7,$8,$9,$2,$3,0*
0 Add four circle primitives for the rounded corners*
1,1,$1+$1,$2,$3*
1,1,$1+$1,$4,$5*
1,1,$1+$1,$6,$7*
1,1,$1+$1,$8,$9*
0 Add four rect primitives between the rounded corners*
20,1,$1+$1,$2,$3,$4,$5,0*
20,1,$1+$1,$4,$5,$6,$7,0*
20,1,$1+$1,$6,$7,$8,$9,0*
20,1,$1+$1,$8,$9,$2,$3,0*%
G04 Aperture macros list end*
%TA.AperFunction,SMDPad,CuDef*%
%ADD10RoundRect,0.135000X0.185000X-0.135000X0.185000X0.135000X-0.185000X0.135000X-0.185000X-0.135000X0*%
%TD*%
%TA.AperFunction,ComponentPad*%
%ADD11R,1.000000X1.000000*%
%TD*%
%TA.AperFunction,SMDPad,CuDef*%
%ADD12RoundRect,0.135000X0.135000X0.185000X-0.135000X0.185000X-0.135000X-0.185000X0.135000X-0.185000X0*%
%TD*%
%TA.AperFunction,SMDPad,CuDef*%
%ADD13RoundRect,0.140000X0.140000X0.170000X-0.140000X0.170000X-0.140000X-0.170000X0.140000X-0.170000X0*%
%TD*%
%TA.AperFunction,SMDPad,CuDef*%
%ADD14R,0.700000X1.250000*%
%TD*%
%TA.AperFunction,SMDPad,CuDef*%
%ADD15RoundRect,0.140000X-0.140000X-0.170000X0.140000X-0.170000X0.140000X0.170000X-0.140000X0.170000X0*%
%TD*%
%TA.AperFunction,SMDPad,CuDef*%
%ADD16RoundRect,0.135000X-0.135000X-0.185000X0.135000X-0.185000X0.135000X0.185000X-0.135000X0.185000X0*%
%TD*%
%TA.AperFunction,SMDPad,CuDef*%
%ADD17R,1.000000X0.600000*%
%TD*%
%TA.AperFunction,SMDPad,CuDef*%
%ADD18RoundRect,0.135000X-0.185000X0.135000X-0.185000X-0.135000X0.185000X-0.135000X0.185000X0.135000X0*%
%TD*%
%TA.AperFunction,SMDPad,CuDef*%
%ADD19O,0.800000X0.280000*%
%TD*%
%TA.AperFunction,SMDPad,CuDef*%
%ADD20O,0.280000X0.800000*%
%TD*%
%TA.AperFunction,SMDPad,CuDef*%
%ADD21R,0.250000X0.520000*%
%TD*%
%TA.AperFunction,SMDPad,CuDef*%
%ADD22R,1.600000X0.900000*%
%TD*%
%TA.AperFunction,SMDPad,CuDef*%
%ADD23R,1.100000X0.620000*%
%TD*%
%TA.AperFunction,SMDPad,CuDef*%
%ADD24RoundRect,0.140000X-0.170000X0.140000X-0.170000X-0.140000X0.170000X-0.140000X0.170000X0.140000X0*%
%TD*%
%TA.AperFunction,ViaPad*%
%ADD25C,0.400000*%
%TD*%
%TA.AperFunction,Conductor*%
%ADD26C,0.152400*%
%TD*%
%TA.AperFunction,Conductor*%
%ADD27C,0.127000*%
%TD*%
G04 APERTURE END LIST*
D10*
%TO.P,R12,1*%
%TO.N,/OUT1*%
X5800000Y-8410000D03*
%TO.P,R12,2*%
%TO.N,GND*%
X5800000Y-7390000D03*
%TD*%
D11*
%TO.P,J4,1,Pin_1*%
%TO.N,/MISO*%
X-635000Y0D03*
%TD*%
D12*
%TO.P,R4,1*%
%TO.N,/PROB+*%
X-1490000Y-8600000D03*
%TO.P,R4,2*%
%TO.N,/IN+*%
X-2510000Y-8600000D03*
%TD*%
D13*
%TO.P,C8,1*%
%TO.N,/REF*%
X-1920000Y-6500000D03*
%TO.P,C8,2*%
%TO.N,Net-(U2--IN)*%
X-2880000Y-6500000D03*
%TD*%
D11*
%TO.P,J6,1,Pin_1*%
%TO.N,/SCLK*%
X1905000Y0D03*
%TD*%
D14*
%TO.P,U5,1,R*%
%TO.N,Net-(U5-R)*%
X1650000Y-2900000D03*
%TO.P,U5,2,K*%
%TO.N,Vref*%
X-250000Y-2900000D03*
%TO.P,U5,3,A*%
%TO.N,GND*%
X700000Y-4900000D03*
%TD*%
D11*
%TO.P,J1,1,Pin_1*%
%TO.N,+3.3V*%
X-4445000Y0D03*
%TD*%
D15*
%TO.P,C10,1*%
%TO.N,/OUT_INA*%
X-4680000Y-4800000D03*
%TO.P,C10,2*%
%TO.N,Net-(U4-+IN)*%
X-3720000Y-4800000D03*
%TD*%
D16*
%TO.P,R10,1*%
%TO.N,Vref*%
X-110000Y-6400000D03*
%TO.P,R10,2*%
%TO.N,Net-(U4--IN)*%
X910000Y-6400000D03*
%TD*%
D10*
%TO.P,R8,1*%
%TO.N,Net-(U2--IN)*%
X-3900000Y-7009999D03*
%TO.P,R8,2*%
%TO.N,/OUT_INA*%
X-3900000Y-5990001D03*
%TD*%
D13*
%TO.P,C1,1*%
%TO.N,Vref*%
X-1220000Y-4200000D03*
%TO.P,C1,2*%
%TO.N,GND*%
X-2180000Y-4200000D03*
%TD*%
D17*
%TO.P,U4,1,OUT*%
%TO.N,/OUT1*%
X4600000Y-8350000D03*
%TO.P,U4,2,V-*%
%TO.N,GND*%
X4600000Y-7400000D03*
%TO.P,U4,3,+IN*%
%TO.N,Net-(U4-+IN)*%
X4600000Y-6450000D03*
%TO.P,U4,4,-IN*%
%TO.N,Net-(U4--IN)*%
X2400000Y-6450000D03*
%TO.P,U4,5,V+*%
%TO.N,+3.3VA*%
X2400000Y-8350000D03*
%TD*%
D11*
%TO.P,J2,1,Pin_1*%
%TO.N,GND*%
X-3175000Y0D03*
%TD*%
%TO.P,J7,1,Pin_1*%
%TO.N,/CSB*%
X3175000Y0D03*
%TD*%
D18*
%TO.P,R3,1*%
%TO.N,+3.3VA*%
X-2400000Y-1490000D03*
%TO.P,R3,2*%
%TO.N,Vref*%
X-2400000Y-2510000D03*
%TD*%
D12*
%TO.P,R5,1*%
%TO.N,/PROB-*%
X510000Y-8400000D03*
%TO.P,R5,2*%
%TO.N,/IN-*%
X-510000Y-8400000D03*
%TD*%
D11*
%TO.P,J3,1,Pin_1*%
%TO.N,unconnected-(J3-Pin_1-Pad1)*%
X-1905000Y0D03*
%TD*%
%TO.P,J9,1,Pin_1*%
%TO.N,/PROB-*%
X4445000Y-10000000D03*
%TD*%
D19*
%TO.P,U6,1,VDD_IO*%
%TO.N,+3.3V*%
X6127500Y-4295000D03*
%TO.P,U6,2,NC*%
%TO.N,unconnected-(U6-NC-Pad2)*%
X6127500Y-3795000D03*
%TO.P,U6,3,NC*%
%TO.N,unconnected-(U6-NC-Pad3)*%
X6127499Y-3295000D03*
%TO.P,U6,4,SCL/SPC*%
%TO.N,/SCLK*%
X6127500Y-2795000D03*
%TO.P,U6,5,GND*%
%TO.N,GND*%
X6127500Y-2295000D03*
D20*
%TO.P,U6,6,SDA/SDI/SDO*%
%TO.N,/MOSI*%
X5227500Y-1895000D03*
%TO.P,U6,7,SDO/SA0*%
%TO.N,/MISO*%
X4727500Y-1895001D03*
%TO.P,U6,8,CS*%
%TO.N,/CSB*%
X4227500Y-1895000D03*
D19*
%TO.P,U6,9,INT2*%
%TO.N,unconnected-(U6-INT2-Pad9)*%
X3327500Y-2295000D03*
%TO.P,U6,10,RES*%
%TO.N,GND*%
X3327500Y-2795000D03*
%TO.P,U6,11,INT1*%
%TO.N,unconnected-(U6-INT1-Pad11)*%
X3327501Y-3295000D03*
%TO.P,U6,12,GND*%
%TO.N,GND*%
X3327500Y-3795000D03*
%TO.P,U6,13,ADC3*%
%TO.N,unconnected-(U6-ADC3-Pad13)*%
X3327500Y-4295000D03*
D20*
%TO.P,U6,14,VDD*%
%TO.N,+3.3VA*%
X4227500Y-4695000D03*
%TO.P,U6,15,ADC2*%
%TO.N,/ADC2*%
X4727500Y-4694999D03*
%TO.P,U6,16,ADC1*%
%TO.N,/OUT1*%
X5227500Y-4695000D03*
%TD*%
D21*
%TO.P,U1,1,GS*%
%TO.N,Net-(U1-GS)*%
X-6400001Y-7900000D03*
%TO.P,U1,2,IN\u2013*%
%TO.N,/IN+*%
X-5900000Y-7900000D03*
%TO.P,U1,3,IN+*%
%TO.N,/IN-*%
X-5400000Y-7900000D03*
%TO.P,U1,4,V\u2013*%
%TO.N,GND*%
X-4899999Y-7900000D03*
%TO.P,U1,5,REF*%
%TO.N,/REF*%
X-4899999Y-6000000D03*
%TO.P,U1,6,OUT*%
%TO.N,/OUT_INA*%
X-5400000Y-6000000D03*
%TO.P,U1,7,V+*%
%TO.N,+3.3VA*%
X-5900000Y-6000000D03*
%TO.P,U1,8,~{SHDN}*%
%TO.N,unconnected-(U1-~{SHDN}-Pad8)*%
X-6400001Y-6000000D03*
D22*
%TO.P,U1,9,EP*%
%TO.N,unconnected-(U1-EP-Pad9)*%
X-5650000Y-6950000D03*
%TD*%
D15*
%TO.P,C3,1*%
%TO.N,/IN+*%
X-2480000Y-7600000D03*
%TO.P,C3,2*%
%TO.N,/IN-*%
X-1520000Y-7600000D03*
%TD*%
D23*
%TO.P,U3,1,VIN*%
%TO.N,+3.3V*%
X-6300000Y-1490200D03*
%TO.P,U3,2,GND*%
%TO.N,GND*%
X-6300000Y-2440200D03*
%TO.P,U3,3,EN*%
%TO.N,+3.3V*%
X-6300000Y-3390200D03*
%TO.P,U3,4,NC*%
%TO.N,unconnected-(U3-NC-Pad4)*%
X-3700000Y-3390200D03*
%TO.P,U3,5,VOUT*%
%TO.N,+3.3VA*%
X-3700000Y-1490200D03*
%TD*%
D16*
%TO.P,R9,1*%
%TO.N,Net-(U4-+IN)*%
X-2410000Y-5200000D03*
%TO.P,R9,2*%
%TO.N,Vref*%
X-1390000Y-5200000D03*
%TD*%
D11*
%TO.P,J10,1,Pin_1*%
%TO.N,/PROB+*%
X-4445000Y-10000000D03*
%TD*%
%TO.P,J5,1,Pin_1*%
%TO.N,/MOSI*%
X635000Y0D03*
%TD*%
%TO.P,J8,1,Pin_1*%
%TO.N,/extRef*%
X4445000Y0D03*
%TD*%
D24*
%TO.P,C2,1*%
%TO.N,Vref*%
X-1300000Y-2220000D03*
%TO.P,C2,2*%
%TO.N,GND*%
X-1300000Y-3180000D03*
%TD*%
D25*
%TO.N,/IN-*%
X-300000Y-9200000D03*
%TO.N,GND*%
X-2900000Y-4300000D03*
X4200000Y-3400000D03*
X5800000Y-5000000D03*
X4600000Y-7236500D03*
X-4400000Y-6500000D03*
X-5100000Y-2300000D03*
X400000Y-4000000D03*
%TO.N,+3.3V*%
X6900000Y-4300000D03*
%TO.N,+3.3VA*%
X-5791400Y-4100000D03*
%TO.N,/CSB*%
X3560000Y-1730000D03*
%TO.N,Vref*%
X-200000Y-4500000D03*
X-100000Y-7200000D03*
%TO.N,Net-(U2--IN)*%
X-3290000Y-6910000D03*
%TO.N,Net-(U4--IN)*%
X2400000Y-7250000D03*
%TO.N,Net-(U5-R)*%
X2400000Y-3100000D03*
%TO.N,Net-(U1-GS)*%
X-6830000Y-7370000D03*
%TO.N,/IN+*%
X-3500000Y-9200000D03*
%TO.N,/REF*%
X-2300000Y-6000000D03*
X-4567100Y-5532100D03*
%TO.N,/OUT_INA*%
X-5775000Y-4811700D03*
%TO.N,/OUT1*%
X4727550Y-9072450D03*
X5300000Y-3900000D03*
%TO.N,/ADC2*%
X4800000Y-5400000D03*
%TD*%
D26*
%TO.N,/IN-*%
X-300000Y-8610000D02*
X-510000Y-8400000D01*
X-300000Y-9200000D02*
X-300000Y-8610000D01*
D27*
X-1520000Y-7600000D02*
X-2020000Y-7100000D01*
X-2800000Y-7100000D02*
X-4100000Y-8400000D01*
X-2020000Y-7100000D02*
X-2800000Y-7100000D01*
X-4100000Y-8400000D02*
X-5035000Y-8400000D01*
X-5035000Y-8400000D02*
X-5400000Y-8035000D01*
X-5400000Y-8035000D02*
X-5400000Y-7900000D01*
D26*
%TO.N,/PROB+*%
X-1490000Y-8600000D02*
X-2590000Y-9700000D01*
X-2590000Y-9700000D02*
X-4145000Y-9700000D01*
X-4145000Y-9700000D02*
X-4358800Y-9913800D01*
%TO.N,/PROB-*%
X3560000Y-9520000D02*
X3953799Y-9913799D01*
X3953799Y-9913799D02*
X4445000Y-9913799D01*
X510000Y-8400000D02*
X1630000Y-9520000D01*
X1630000Y-9520000D02*
X3560000Y-9520000D01*
D27*
%TO.N,GND*%
X-4600000Y-7600001D02*
X-4600000Y-6700000D01*
X-2180000Y-4200000D02*
X-2180000Y-4060000D01*
X-6040200Y-2440200D02*
X-6300000Y-2440200D01*
X5800000Y-7390000D02*
X4610000Y-7390000D01*
X3900000Y-3400000D02*
X3900000Y-3469500D01*
X3574500Y-2795000D02*
X3900000Y-3120500D01*
X3327500Y-2795000D02*
X3574500Y-2795000D01*
X-5100000Y-2300000D02*
X-6159800Y-2300000D01*
X-4075000Y-900000D02*
X-4500000Y-900000D01*
X400000Y-4600000D02*
X700000Y-4900000D01*
X-4500000Y-900000D02*
X-6040200Y-2440200D01*
X-4899999Y-7900000D02*
X-4600000Y-7600001D01*
X3900000Y-3469500D02*
X3574500Y-3795000D01*
X-4600000Y-6700000D02*
X-4400000Y-6500000D01*
X4200000Y-3400000D02*
X4411714Y-3400000D01*
X3900000Y-3120500D02*
X3900000Y-3400000D01*
X3574500Y-3795000D02*
X3327500Y-3795000D01*
X-3175000Y0D02*
X-4075000Y-900000D01*
X-6159800Y-2300000D02*
X-6300000Y-2440200D01*
X4411714Y-3400000D02*
X5516714Y-2295000D01*
X3900000Y-3400000D02*
X4200000Y-3400000D01*
X5646500Y-7236500D02*
X5800000Y-7390000D01*
X4610000Y-7390000D02*
X4600000Y-7400000D01*
X4600000Y-7236500D02*
X5646500Y-7236500D01*
X5516714Y-2295000D02*
X6127500Y-2295000D01*
X-2180000Y-4060000D02*
X-1300000Y-3180000D01*
X400000Y-4000000D02*
X400000Y-4600000D01*
%TO.N,+3.3V*%
X6895000Y-4295000D02*
X6127500Y-4295000D01*
X-7013500Y-1966700D02*
X-7013500Y-2900000D01*
X-4445000Y0D02*
X-4809800Y0D01*
X-4809800Y0D02*
X-6300000Y-1490200D01*
X6900000Y-4300000D02*
X6895000Y-4295000D01*
X-6300000Y-1490200D02*
X-6537000Y-1490200D01*
X-6537000Y-1490200D02*
X-7013500Y-1966700D01*
X-7013500Y-2900000D02*
X-6523300Y-3390200D01*
X-6523300Y-3390200D02*
X-6300000Y-3390200D01*
%TO.N,+3.3VA*%
X2100000Y-4800000D02*
X3653300Y-4800000D01*
X3753300Y-6471700D02*
X2963500Y-7261500D01*
X2963500Y-7786500D02*
X2400000Y-8350000D01*
X4227500Y-4695000D02*
X4227500Y-4424100D01*
X-5900000Y-5598300D02*
X-6400000Y-5098300D01*
X3753300Y-4898300D02*
X3753300Y-4900000D01*
X2963500Y-7261500D02*
X2963500Y-7786500D01*
X-5900000Y-6000000D02*
X-5900000Y-5598300D01*
X-3700000Y-1490200D02*
X-3700000Y-2008600D01*
X-2223900Y-1313900D02*
X178400Y-1313900D01*
X-2400000Y-1490000D02*
X-2223900Y-1313900D01*
X3753300Y-4900000D02*
X3753300Y-6471700D01*
X-3700000Y-2008600D02*
X-5791400Y-4100000D01*
X4227500Y-4424100D02*
X3753300Y-4898300D01*
X-6400000Y-4708600D02*
X-5791400Y-4100000D01*
X1000000Y-3700000D02*
X2100000Y-4800000D01*
X-2400200Y-1490200D02*
X-2400000Y-1490000D01*
X1000000Y-2135500D02*
X1000000Y-3700000D01*
X178400Y-1313900D02*
X1000000Y-2135500D01*
X3653300Y-4800000D02*
X3753300Y-4900000D01*
X-6400000Y-5098300D02*
X-6400000Y-4708600D01*
X-3700000Y-1490200D02*
X-2400200Y-1490200D01*
%TO.N,/MISO*%
X4727500Y-1895001D02*
X4727500Y-1705786D01*
X676500Y-1311500D02*
X-635000Y0D01*
X4333214Y-1311500D02*
X676500Y-1311500D01*
X4727500Y-1705786D02*
X4333214Y-1311500D01*
%TO.N,/MOSI*%
X1719500Y-1084500D02*
X635000Y0D01*
X5227500Y-1648000D02*
X4664000Y-1084500D01*
X4664000Y-1084500D02*
X1719500Y-1084500D01*
X5227500Y-1895000D02*
X5227500Y-1648000D01*
%TO.N,/SCLK*%
X6800000Y-2000000D02*
X5657500Y-857500D01*
X2762500Y-857500D02*
X1905000Y0D01*
X6127500Y-2795000D02*
X6705000Y-2795000D01*
X5657500Y-857500D02*
X2762500Y-857500D01*
X6800000Y-2700000D02*
X6800000Y-2000000D01*
X6705000Y-2795000D02*
X6800000Y-2700000D01*
%TO.N,/CSB*%
X3725000Y-1895000D02*
X4227500Y-1895000D01*
X3560000Y-1730000D02*
X3725000Y-1895000D01*
%TO.N,Vref*%
X-1220000Y-4200000D02*
X-270000Y-3250000D01*
X-110000Y-7190000D02*
X-110000Y-6400000D01*
X-200000Y-4500000D02*
X-200000Y-3320000D01*
X-1390000Y-5330000D02*
X-820000Y-5900000D01*
X-400000Y-2900000D02*
X-1080000Y-2220000D01*
X-1080000Y-2220000D02*
X-1300000Y-2220000D01*
X-820000Y-4600000D02*
X-1220000Y-4200000D01*
X-820000Y-5900000D02*
X-320000Y-6400000D01*
X-1390000Y-5200000D02*
X-1390000Y-5330000D01*
X-1590000Y-2510000D02*
X-1300000Y-2220000D01*
X-1787600Y-2510000D02*
X-1590000Y-2510000D01*
X-320000Y-6400000D02*
X-110000Y-6400000D01*
X-250000Y-2900000D02*
X-400000Y-2900000D01*
X-820000Y-5900000D02*
X-820000Y-4600000D01*
X-100000Y-7200000D02*
X-110000Y-7190000D01*
X-2400000Y-2510000D02*
X-1787600Y-2510000D01*
%TO.N,Net-(U2--IN)*%
X-3900000Y-7009999D02*
X-3389999Y-7009999D01*
X-3290000Y-6910000D02*
X-2880000Y-6500000D01*
X-3389999Y-7009999D02*
X-3290000Y-6910000D01*
%TO.N,Net-(U4-+IN)*%
X1900000Y-8900000D02*
X700000Y-7700000D01*
X3400000Y-7255111D02*
X3400000Y-8600000D01*
X-300000Y-7700000D02*
X-1476500Y-6523500D01*
X3100000Y-8900000D02*
X1900000Y-8900000D01*
X-3720000Y-4800000D02*
X-2810000Y-4800000D01*
X-1476500Y-6523500D02*
X-1476500Y-6133500D01*
X3400000Y-8600000D02*
X3100000Y-8900000D01*
X-1476500Y-6133500D02*
X-2410000Y-5200000D01*
X700000Y-7700000D02*
X-300000Y-7700000D01*
X4205111Y-6450000D02*
X3400000Y-7255111D01*
X-2810000Y-4800000D02*
X-2410000Y-5200000D01*
X4600000Y-6450000D02*
X4205111Y-6450000D01*
%TO.N,Net-(U4--IN)*%
X2400000Y-7250000D02*
X2400000Y-6450000D01*
X2400000Y-6450000D02*
X960000Y-6450000D01*
X960000Y-6450000D02*
X910000Y-6400000D01*
%TO.N,Net-(U5-R)*%
X2400000Y-3100000D02*
X1850000Y-3100000D01*
X1850000Y-3100000D02*
X1650000Y-2900000D01*
%TO.N,Net-(U1-GS)*%
X-6830000Y-7470000D02*
X-6400000Y-7900000D01*
X-6830000Y-7370000D02*
X-6830000Y-7470000D01*
D26*
%TO.N,/IN+*%
X-3110000Y-9200000D02*
X-2510000Y-8600000D01*
X-3500000Y-9200000D02*
X-3110000Y-9200000D01*
X-5900000Y-8137400D02*
X-4837400Y-9200000D01*
D27*
X-2480000Y-7600000D02*
X-2480000Y-8570000D01*
X-2480000Y-8570000D02*
X-2510000Y-8600000D01*
D26*
X-5900000Y-7900000D02*
X-5900000Y-8137400D01*
X-4837400Y-9200000D02*
X-3500000Y-9200000D01*
D27*
%TO.N,/IN-*%
X-1310000Y-7600000D02*
X-510000Y-8400000D01*
X-1520000Y-7600000D02*
X-1310000Y-7600000D01*
%TO.N,/REF*%
X-1920000Y-6500000D02*
X-1920000Y-6380000D01*
X-4900000Y-5865000D02*
X-4567100Y-5532100D01*
X-4900000Y-6000000D02*
X-4900000Y-5865000D01*
X-1920000Y-6380000D02*
X-2300000Y-6000000D01*
%TO.N,/OUT_INA*%
X-4980000Y-4811700D02*
X-5775000Y-4811700D01*
X-3900000Y-5500000D02*
X-4322400Y-5077600D01*
X-4322400Y-5077600D02*
X-4980000Y-5077600D01*
X-4980000Y-4811700D02*
X-4691700Y-4811700D01*
X-3900000Y-5990000D02*
X-3900000Y-5500000D01*
X-4691700Y-4811700D02*
X-4680000Y-4800000D01*
X-4980000Y-5077600D02*
X-4980000Y-4811700D01*
X-4980000Y-5077600D02*
X-5400000Y-5497600D01*
X-5400000Y-5497600D02*
X-5400000Y-6000000D01*
%TO.N,/OUT1*%
X6500000Y-6509200D02*
X6500000Y-7710000D01*
X6500000Y-7710000D02*
X5800000Y-8410000D01*
X5227500Y-4695000D02*
X5227500Y-3972500D01*
X4920900Y-8879100D02*
X4920900Y-8350000D01*
X4727550Y-9072450D02*
X4920900Y-8879100D01*
X4920900Y-8350000D02*
X5740000Y-8350000D01*
X5227500Y-5236700D02*
X6500000Y-6509200D01*
X5227500Y-3972500D02*
X5300000Y-3900000D01*
X4600000Y-8350000D02*
X4920900Y-8350000D01*
X5740000Y-8350000D02*
X5800000Y-8410000D01*
X5227500Y-4695000D02*
X5227500Y-5236700D01*
%TO.N,/ADC2*%
X4727500Y-5327500D02*
X4800000Y-5400000D01*
X4727500Y-4694999D02*
X4727500Y-5327500D01*
%TD*%
%TA.AperFunction,Conductor*%
%TO.N,Vref*%
G36*
X64014Y-1647585D02*
G01*
X84656Y-1664219D01*
X363681Y-1943244D01*
X397166Y-2004567D01*
X400000Y-2030925D01*
X400000Y-3437655D01*
X380315Y-3504694D01*
X327511Y-3550449D01*
X310935Y-3556632D01*
X210934Y-3585994D01*
X101950Y-3656033D01*
X17118Y-3753937D01*
X17117Y-3753938D01*
X-36698Y-3871774D01*
X-55133Y-4000000D01*
X-36698Y-4128225D01*
X17117Y-4246061D01*
X17120Y-4246067D01*
X55712Y-4290603D01*
X84738Y-4354158D01*
X86000Y-4371806D01*
X86000Y-4641338D01*
X95275Y-4675953D01*
X99500Y-4708046D01*
X99500Y-5549678D01*
X114032Y-5622735D01*
X114033Y-5622739D01*
X114034Y-5622740D01*
X169399Y-5705601D01*
X252260Y-5760966D01*
X300193Y-5770500D01*
X362101Y-5802884D01*
X396676Y-5863599D01*
X400000Y-5892117D01*
X400000Y-6097367D01*
X398705Y-6115234D01*
X389500Y-6178418D01*
X389500Y-6178424D01*
X389500Y-6621582D01*
X398704Y-6684753D01*
X400000Y-6702631D01*
X400000Y-7262000D01*
X380315Y-7329039D01*
X327511Y-7374794D01*
X276000Y-7386000D01*
X-118575Y-7386000D01*
X-185614Y-7366315D01*
X-206256Y-7349681D01*
X-1126181Y-6429756D01*
X-1159666Y-6368433D01*
X-1162500Y-6342075D01*
X-1162500Y-6092162D01*
X-1183899Y-6012301D01*
X-1183899Y-6012300D01*
X-1197988Y-5987898D01*
X-1225238Y-5940699D01*
X-1853181Y-5312756D01*
X-1886666Y-5251433D01*
X-1889500Y-5225075D01*
X-1889500Y-4978423D01*
X-1889500Y-4978418D01*
X-1900418Y-4903482D01*
X-1911951Y-4879891D01*
X-1923711Y-4811018D01*
X-1896368Y-4746721D01*
X-1856849Y-4714947D01*
X-1807609Y-4689859D01*
X-1720141Y-4602391D01*
X-1663983Y-4492175D01*
X-1663983Y-4492173D01*
X-1663982Y-4492172D01*
X-1663982Y-4492171D01*
X-1660099Y-4467650D01*
X-1649500Y-4400735D01*
X-1649501Y-4024923D01*
X-1629817Y-3957885D01*
X-1613187Y-3937248D01*
X-1422756Y-3746818D01*
X-1361433Y-3713333D01*
X-1335075Y-3710499D01*
X-1099261Y-3710499D01*
X-1099261Y-3710498D01*
X-1053546Y-3703258D01*
X-1007830Y-3696018D01*
X-1007829Y-3696018D01*
X-1007828Y-3696017D01*
X-1007825Y-3696017D01*
X-897609Y-3639859D01*
X-810141Y-3552391D01*
X-753983Y-3442175D01*
X-753983Y-3442173D01*
X-753982Y-3442172D01*
X-753982Y-3442171D01*
X-750099Y-3417650D01*
X-739500Y-3350735D01*
X-739501Y-3009266D01*
X-739501Y-3009264D01*
X-739501Y-3009260D01*
X-753982Y-2917829D01*
X-753982Y-2917828D01*
X-753983Y-2917826D01*
X-753983Y-2917825D01*
X-810141Y-2807609D01*
X-810143Y-2807607D01*
X-810146Y-2807603D01*
X-897604Y-2720145D01*
X-897607Y-2720143D01*
X-897609Y-2720141D01*
X-1007825Y-2663983D01*
X-1007826Y-2663982D01*
X-1007829Y-2663981D01*
X-1099265Y-2649500D01*
X-1500740Y-2649500D01*
X-1500740Y-2649501D01*
X-1592171Y-2663981D01*
X-1592172Y-2663981D01*
X-1702393Y-2720142D01*
X-1702397Y-2720145D01*
X-1789855Y-2807603D01*
X-1789858Y-2807608D01*
X-1846019Y-2917827D01*
X-1846019Y-2917828D01*
X-1860500Y-3009264D01*
X-1860500Y-3245074D01*
X-1880185Y-3312113D01*
X-1896819Y-3332755D01*
X-2167246Y-3603181D01*
X-2228569Y-3636666D01*
X-2254926Y-3639500D01*
X-2350739Y-3639500D01*
X-2350740Y-3639501D01*
X-2442171Y-3653981D01*
X-2442172Y-3653981D01*
X-2552393Y-3710142D01*
X-2552397Y-3710145D01*
X-2639859Y-3797608D01*
X-2639860Y-3797608D01*
X-2641581Y-3800987D01*
X-2644757Y-3804348D01*
X-2645595Y-3805503D01*
X-2645745Y-3805394D01*
X-2689559Y-3851779D01*
X-2757381Y-3868570D01*
X-2786995Y-3863662D01*
X-2811088Y-3856588D01*
X-2869867Y-3818814D01*
X-2898893Y-3755259D01*
X-2899434Y-3730966D01*
X-2899500Y-3730966D01*
X-2899500Y-3728003D01*
X-2899557Y-3725444D01*
X-2899502Y-3724882D01*
X-2899500Y-3724874D01*
X-2899500Y-3055526D01*
X-2899500Y-3055523D01*
X-2899501Y-3055521D01*
X-2914033Y-2982464D01*
X-2914034Y-2982460D01*
X-2969399Y-2899599D01*
X-2969400Y-2899598D01*
X-3044891Y-2849157D01*
X-3089696Y-2795545D01*
X-3100000Y-2746055D01*
X-3100000Y-2134344D01*
X-3080315Y-2067305D01*
X-3044892Y-2031242D01*
X-2969399Y-1980801D01*
X-2969397Y-1980797D01*
X-2960763Y-1972165D01*
X-2959099Y-1973829D01*
X-2918272Y-1939704D01*
X-2848948Y-1930991D01*
X-2814312Y-1941996D01*
X-2696521Y-1999581D01*
X-2696520Y-1999581D01*
X-2696518Y-1999582D01*
X-2621582Y-2010500D01*
X-2621577Y-2010500D01*
X-2178423Y-2010500D01*
X-2178418Y-2010500D01*
X-2103482Y-1999582D01*
X-2045690Y-1971329D01*
X-1987901Y-1943078D01*
X-1987898Y-1943076D01*
X-1896924Y-1852102D01*
X-1896922Y-1852099D01*
X-1840419Y-1736520D01*
X-1840418Y-1736517D01*
X-1840054Y-1734022D01*
X-1838807Y-1731304D01*
X-1837575Y-1727318D01*
X-1837052Y-1727479D01*
X-1810910Y-1670521D01*
X-1752061Y-1632857D01*
X-1717350Y-1627900D01*
X-3025Y-1627900D01*
X64014Y-1647585D01*
G37*
%TD.AperFunction*%
%TD*%
%TA.AperFunction,Conductor*%
%TO.N,GND*%
G36*
X7459212Y-4558866D02*
G01*
X7488238Y-4622422D01*
X7489500Y-4640070D01*
X7489500Y-9243906D01*
X7488903Y-9256060D01*
X7476488Y-9382112D01*
X7471746Y-9405953D01*
X7436753Y-9521309D01*
X7427450Y-9543767D01*
X7370629Y-9650072D01*
X7357124Y-9670284D01*
X7280653Y-9763464D01*
X7263465Y-9780652D01*
X7170284Y-9857124D01*
X7150072Y-9870629D01*
X7043768Y-9927450D01*
X7021310Y-9936753D01*
X6905954Y-9971746D01*
X6882113Y-9976488D01*
X6756072Y-9988902D01*
X6743918Y-9989499D01*
X5319500Y-9989499D01*
X5252461Y-9969814D01*
X5206706Y-9917010D01*
X5195500Y-9865499D01*
X5195500Y-9475323D01*
X5195499Y-9475321D01*
X5180967Y-9402264D01*
X5180966Y-9402260D01*
X5161616Y-9373300D01*
X5154767Y-9363050D01*
X5133891Y-9296375D01*
X5145078Y-9242649D01*
X5150939Y-9229816D01*
X5164247Y-9200676D01*
X5182683Y-9072450D01*
X5182682Y-9072447D01*
X5182875Y-9071109D01*
X5198225Y-9026757D01*
X5213501Y-9000300D01*
X5221493Y-8970475D01*
X5225925Y-8953936D01*
X5227240Y-8949027D01*
X5263602Y-8889365D01*
X5326448Y-8858833D01*
X5395823Y-8867125D01*
X5401476Y-8869715D01*
X5499405Y-8917589D01*
X5503482Y-8919582D01*
X5578418Y-8930500D01*
X5578423Y-8930500D01*
X6021577Y-8930500D01*
X6021582Y-8930500D01*
X6096518Y-8919582D01*
X6191189Y-8873300D01*
X6212099Y-8863078D01*
X6212102Y-8863076D01*
X6303076Y-8772102D01*
X6303078Y-8772099D01*
X6350961Y-8674152D01*
X6359582Y-8656518D01*
X6370500Y-8581582D01*
X6370500Y-8334925D01*
X6390185Y-8267886D01*
X6406819Y-8247244D01*
X6570897Y-8083166D01*
X6751262Y-7902801D01*
X6781017Y-7851263D01*
X6792601Y-7831199D01*
X6814000Y-7751339D01*
X6814000Y-6467861D01*
X6792601Y-6388001D01*
X6790484Y-6384335D01*
X6787289Y-6378799D01*
X6787289Y-6378800D01*
X6751263Y-6316400D01*
X5631275Y-5196412D01*
X5597790Y-5135089D01*
X5599181Y-5076640D01*
X5618000Y-5006410D01*
X5618000Y-4794021D01*
X5637685Y-4726982D01*
X5690489Y-4681227D01*
X5759647Y-4671283D01*
X5774086Y-4674245D01*
X5816090Y-4685500D01*
X5816092Y-4685500D01*
X6438908Y-4685500D01*
X6438910Y-4685500D01*
X6538228Y-4658888D01*
X6538229Y-4658887D01*
X6546079Y-4656784D01*
X6546980Y-4660147D01*
X6600402Y-4654300D01*
X6645660Y-4672057D01*
X6710931Y-4714004D01*
X6710933Y-4714005D01*
X6835225Y-4750499D01*
X6835227Y-4750500D01*
X6835228Y-4750500D01*
X6964773Y-4750500D01*
X6964773Y-4750499D01*
X7089069Y-4714004D01*
X7198049Y-4643967D01*
X7271787Y-4558867D01*
X7330564Y-4521093D01*
X7400433Y-4521092D01*
X7459212Y-4558866D01*
G37*
%TD.AperFunction*%
%TA.AperFunction,Conductor*%
G36*
X-4440577Y-7351773D02*
G01*
X-4394149Y-7381029D01*
X-4312103Y-7463075D01*
X-4312100Y-7463077D01*
X-4209296Y-7513334D01*
X-4196518Y-7519581D01*
X-4121582Y-7530499D01*
X-4121577Y-7530499D01*
X-3973925Y-7530499D01*
X-3906886Y-7550184D01*
X-3861131Y-7602988D01*
X-3851187Y-7672146D01*
X-3880212Y-7735702D01*
X-3886244Y-7742180D01*
X-4193744Y-8049681D01*
X-4255067Y-8083166D01*
X-4281425Y-8086000D01*
X-4853575Y-8086000D01*
X-4920614Y-8066315D01*
X-4941256Y-8049681D01*
X-4988181Y-8002756D01*
X-5021666Y-7941433D01*
X-5024500Y-7915075D01*
X-5024500Y-7774500D01*
X-5004815Y-7707461D01*
X-4952011Y-7661706D01*
X-4900500Y-7650500D01*
X-4825324Y-7650500D01*
X-4825323Y-7650499D01*
X-4752260Y-7635966D01*
X-4669399Y-7580601D01*
X-4614034Y-7497740D01*
X-4607139Y-7463077D01*
X-4603447Y-7444519D01*
X-4571062Y-7382608D01*
X-4510347Y-7348034D01*
X-4440577Y-7351773D01*
G37*
%TD.AperFunction*%
%TA.AperFunction,Conductor*%
G36*
X5533376Y-5992889D02*
G01*
X5559701Y-6012964D01*
X6149681Y-6602944D01*
X6183166Y-6664267D01*
X6186000Y-6690625D01*
X6186000Y-7528575D01*
X6166315Y-7595614D01*
X6149681Y-7616256D01*
X5912756Y-7853181D01*
X5851433Y-7886666D01*
X5825075Y-7889500D01*
X5578418Y-7889500D01*
X5531583Y-7896323D01*
X5503479Y-7900418D01*
X5448457Y-7927317D01*
X5379584Y-7939075D01*
X5315287Y-7911732D01*
X5290896Y-7884807D01*
X5280601Y-7869399D01*
X5197739Y-7814033D01*
X5197735Y-7814032D01*
X5124677Y-7799500D01*
X5124674Y-7799500D01*
X4075326Y-7799500D01*
X4075323Y-7799500D01*
X4002264Y-7814032D01*
X4002260Y-7814033D01*
X3949481Y-7849299D01*
X3919399Y-7869399D01*
X3919398Y-7869400D01*
X3909244Y-7876185D01*
X3907240Y-7873186D01*
X3864358Y-7896602D01*
X3794666Y-7891618D01*
X3738733Y-7849746D01*
X3714316Y-7784282D01*
X3714000Y-7775436D01*
X3714000Y-7436536D01*
X3733685Y-7369497D01*
X3750319Y-7348855D01*
X4062355Y-7036819D01*
X4123678Y-7003334D01*
X4150036Y-7000500D01*
X5124676Y-7000500D01*
X5124677Y-7000499D01*
X5197740Y-6985966D01*
X5280601Y-6930601D01*
X5335966Y-6847740D01*
X5350500Y-6774674D01*
X5350500Y-6125326D01*
X5350403Y-6124838D01*
X5350426Y-6124577D01*
X5349903Y-6119261D01*
X5350911Y-6119161D01*
X5356629Y-6055249D01*
X5399490Y-6000070D01*
X5465379Y-5976823D01*
X5533376Y-5992889D01*
G37*
%TD.AperFunction*%
%TA.AperFunction,Conductor*%
G36*
X633456Y-3719326D02*
G01*
X686263Y-3765078D01*
X701726Y-3800029D01*
X707398Y-3821197D01*
X707401Y-3821206D01*
X748732Y-3892793D01*
X748736Y-3892798D01*
X748737Y-3892800D01*
X1907200Y-5051263D01*
X1976201Y-5091100D01*
X1978801Y-5092601D01*
X2058661Y-5114000D01*
X3315300Y-5114000D01*
X3382339Y-5133685D01*
X3428094Y-5186489D01*
X3439300Y-5238000D01*
X3439300Y-6290275D01*
X3419615Y-6357314D01*
X3402981Y-6377956D01*
X3362181Y-6418756D01*
X3300858Y-6452241D01*
X3231166Y-6447257D01*
X3175233Y-6405385D01*
X3150816Y-6339921D01*
X3150500Y-6331075D01*
X3150500Y-6125323D01*
X3150499Y-6125321D01*
X3135967Y-6052264D01*
X3135966Y-6052260D01*
X3080601Y-5969399D01*
X2997740Y-5914034D01*
X2997739Y-5914033D01*
X2997735Y-5914032D01*
X2924677Y-5899500D01*
X2924674Y-5899500D01*
X1875326Y-5899500D01*
X1875323Y-5899500D01*
X1802264Y-5914032D01*
X1802260Y-5914033D01*
X1719399Y-5969399D01*
X1664032Y-6052263D01*
X1661053Y-6059455D01*
X1617211Y-6113857D01*
X1550917Y-6135921D01*
X1546493Y-6136000D01*
X1512884Y-6136000D01*
X1445845Y-6116315D01*
X1401484Y-6066461D01*
X1363076Y-5987897D01*
X1272102Y-5896923D01*
X1272099Y-5896921D01*
X1156521Y-5840419D01*
X1156519Y-5840418D01*
X1156518Y-5840418D01*
X1081582Y-5829500D01*
X738849Y-5829500D01*
X671810Y-5809815D01*
X626055Y-5757011D01*
X621195Y-5744659D01*
X618702Y-5737170D01*
X618701Y-5737169D01*
X618700Y-5737164D01*
X599288Y-5703076D01*
X584126Y-5676450D01*
X578045Y-5667692D01*
X558152Y-5639042D01*
X480529Y-5576488D01*
X480526Y-5576486D01*
X480523Y-5576484D01*
X421525Y-5545622D01*
X371246Y-5497106D01*
X355000Y-5435747D01*
X355000Y-4708055D01*
X355000Y-4708046D01*
X352814Y-4674698D01*
X348589Y-4642605D01*
X343882Y-4618940D01*
X341500Y-4594752D01*
X341500Y-4371807D01*
X340937Y-4356053D01*
X340849Y-4353582D01*
X339587Y-4335934D01*
X317147Y-4248015D01*
X288121Y-4184460D01*
X269687Y-4155777D01*
X248804Y-4123284D01*
X248803Y-4123283D01*
X245947Y-4119988D01*
X226862Y-4090292D01*
X218377Y-4071714D01*
X208437Y-4037857D01*
X205531Y-4017645D01*
X205531Y-3982355D01*
X208436Y-3962146D01*
X218381Y-3928275D01*
X226863Y-3909703D01*
X245942Y-3880016D01*
X259310Y-3864588D01*
X285983Y-3841475D01*
X303163Y-3830433D01*
X335266Y-3815773D01*
X382916Y-3801783D01*
X400229Y-3796020D01*
X416805Y-3789837D01*
X494828Y-3743543D01*
X500746Y-3738414D01*
X564297Y-3709387D01*
X633456Y-3719326D01*
G37*
%TD.AperFunction*%
%TA.AperFunction,Conductor*%
G36*
X-4581166Y-3436342D02*
G01*
X-4525233Y-3478214D01*
X-4500816Y-3543678D01*
X-4500500Y-3552524D01*
X-4500500Y-3724878D01*
X-4485968Y-3797935D01*
X-4485967Y-3797939D01*
X-4474191Y-3815563D01*
X-4430601Y-3880801D01*
X-4363167Y-3925858D01*
X-4347740Y-3936166D01*
X-4347736Y-3936167D01*
X-4274679Y-3950699D01*
X-4274676Y-3950700D01*
X-3144145Y-3950700D01*
X-3077106Y-3970385D01*
X-3058048Y-3985463D01*
X-3007998Y-4033756D01*
X-2996522Y-4041131D01*
X-2949226Y-4071526D01*
X-2949224Y-4071526D01*
X-2949219Y-4071530D01*
X-2883067Y-4101739D01*
X-2858974Y-4108813D01*
X-2828770Y-4115724D01*
X-2828765Y-4115724D01*
X-2828764Y-4115725D01*
X-2799248Y-4120617D01*
X-2799215Y-4120622D01*
X-2799156Y-4120632D01*
X-2795564Y-4121201D01*
X-2695979Y-4116582D01*
X-2628157Y-4099791D01*
X-2585097Y-4084949D01*
X-2503819Y-4027224D01*
X-2460005Y-3980839D01*
X-2460006Y-3980838D01*
X-2459054Y-3979830D01*
X-2459053Y-3979831D01*
X-2455877Y-3976470D01*
X-2455875Y-3976466D01*
X-2452863Y-3973280D01*
X-2452828Y-3973240D01*
X-2431313Y-3950462D01*
X-2428884Y-3947962D01*
X-2414230Y-3933308D01*
X-2382862Y-3910515D01*
X-2379739Y-3908923D01*
X-2342798Y-3896926D01*
X-2341826Y-3896772D01*
X-2340227Y-3896520D01*
X-2320871Y-3895000D01*
X-2254922Y-3895000D01*
X-2251509Y-3894817D01*
X-2227611Y-3893536D01*
X-2201254Y-3890702D01*
X-2106121Y-3860913D01*
X-2079696Y-3846483D01*
X-2011425Y-3831631D01*
X-1945960Y-3856047D01*
X-1904088Y-3911979D01*
X-1897531Y-3972959D01*
X-1905001Y-4024918D01*
X-1905001Y-4370868D01*
X-1906533Y-4390303D01*
X-1906941Y-4392874D01*
X-1918923Y-4429731D01*
X-1920506Y-4432838D01*
X-1943311Y-4464227D01*
X-1946005Y-4466921D01*
X-1970211Y-4485481D01*
X-1970160Y-4485559D01*
X-1971127Y-4486184D01*
X-1971760Y-4486670D01*
X-1972838Y-4487290D01*
X-2016936Y-4515818D01*
X-2016951Y-4515830D01*
X-2056464Y-4547599D01*
X-2075330Y-4564367D01*
X-2075332Y-4564368D01*
X-2086814Y-4581209D01*
X-2140845Y-4625508D01*
X-2207139Y-4634057D01*
X-2219278Y-4632288D01*
X-2238418Y-4629500D01*
X-2238421Y-4629500D01*
X-2485075Y-4629500D01*
X-2552114Y-4609815D01*
X-2572756Y-4593181D01*
X-2617201Y-4548736D01*
X-2688802Y-4507398D01*
X-2696633Y-4505299D01*
X-2705677Y-4502876D01*
X-2705679Y-4502875D01*
X-2768660Y-4486000D01*
X-2768661Y-4486000D01*
X-3139116Y-4486000D01*
X-3206155Y-4466315D01*
X-3249601Y-4418295D01*
X-3260143Y-4397606D01*
X-3347604Y-4310145D01*
X-3347607Y-4310143D01*
X-3347609Y-4310141D01*
X-3457825Y-4253983D01*
X-3457826Y-4253982D01*
X-3457829Y-4253981D01*
X-3549265Y-4239500D01*
X-3890740Y-4239500D01*
X-3890740Y-4239501D01*
X-3982171Y-4253981D01*
X-3982172Y-4253981D01*
X-4092393Y-4310142D01*
X-4092397Y-4310145D01*
X-4112319Y-4330068D01*
X-4173642Y-4363553D01*
X-4243334Y-4358569D01*
X-4287681Y-4330068D01*
X-4307604Y-4310145D01*
X-4307607Y-4310143D01*
X-4307609Y-4310141D01*
X-4417825Y-4253983D01*
X-4417826Y-4253982D01*
X-4417829Y-4253981D01*
X-4509265Y-4239500D01*
X-4850740Y-4239500D01*
X-4850740Y-4239501D01*
X-4942171Y-4253981D01*
X-4942172Y-4253981D01*
X-5052393Y-4310142D01*
X-5052397Y-4310145D01*
X-5139855Y-4397603D01*
X-5139858Y-4397608D01*
X-5139859Y-4397609D01*
X-5156362Y-4429996D01*
X-5204335Y-4480791D01*
X-5266845Y-4497700D01*
X-5284820Y-4497700D01*
X-5351859Y-4478015D01*
X-5397614Y-4425211D01*
X-5407558Y-4356053D01*
X-5397614Y-4322189D01*
X-5363741Y-4248016D01*
X-5354703Y-4228226D01*
X-5340282Y-4127919D01*
X-5311258Y-4064365D01*
X-5305240Y-4057901D01*
X-4712180Y-3464842D01*
X-4650858Y-3431358D01*
X-4581166Y-3436342D01*
G37*
%TD.AperFunction*%
%TA.AperFunction,Conductor*%
G36*
X2727649Y-3511109D02*
G01*
X2748246Y-3530055D01*
X2749276Y-3529026D01*
X2755023Y-3534773D01*
X2827728Y-3607478D01*
X2827729Y-3607479D01*
X2827731Y-3607480D01*
X2872250Y-3633183D01*
X2916773Y-3658888D01*
X2977745Y-3675225D01*
X3037404Y-3711588D01*
X3067934Y-3774435D01*
X3059640Y-3843810D01*
X3015155Y-3897689D01*
X2977746Y-3914773D01*
X2916776Y-3931110D01*
X2916769Y-3931113D01*
X2827730Y-3982519D01*
X2827725Y-3982523D01*
X2755023Y-4055225D01*
X2755019Y-4055230D01*
X2703613Y-4144269D01*
X2703612Y-4144272D01*
X2677000Y-4243590D01*
X2677000Y-4354537D01*
X2675560Y-4354537D01*
X2666160Y-4414843D01*
X2619783Y-4467102D01*
X2553983Y-4486000D01*
X2281425Y-4486000D01*
X2214386Y-4466315D01*
X2193744Y-4449681D01*
X1731244Y-3987181D01*
X1697759Y-3925858D01*
X1702743Y-3856166D01*
X1744615Y-3800233D01*
X1810079Y-3775816D01*
X1818925Y-3775500D01*
X2024676Y-3775500D01*
X2024677Y-3775499D01*
X2097740Y-3760966D01*
X2180601Y-3705601D01*
X2235966Y-3622740D01*
X2235966Y-3622739D01*
X2242751Y-3612585D01*
X2244756Y-3613925D01*
X2278021Y-3572645D01*
X2344315Y-3550579D01*
X2348743Y-3550500D01*
X2464773Y-3550500D01*
X2464773Y-3550499D01*
X2559892Y-3522571D01*
X2589063Y-3514006D01*
X2589063Y-3514005D01*
X2589069Y-3514004D01*
X2593573Y-3511108D01*
X2660610Y-3491425D01*
X2727649Y-3511109D01*
G37*
%TD.AperFunction*%
%TA.AperFunction,Conductor*%
G36*
X5039499Y-2497368D02*
G01*
X5076772Y-2518888D01*
X5176090Y-2545500D01*
X5176092Y-2545500D01*
X5278907Y-2545500D01*
X5278910Y-2545500D01*
X5342052Y-2528581D01*
X5411899Y-2530244D01*
X5469762Y-2569406D01*
X5497266Y-2633634D01*
X5493918Y-2680448D01*
X5477000Y-2743588D01*
X5477000Y-2743590D01*
X5477000Y-2846410D01*
X5503612Y-2945728D01*
X5524821Y-2982464D01*
X5525131Y-2983000D01*
X5541603Y-3050900D01*
X5525131Y-3106998D01*
X5503611Y-3144271D01*
X5503611Y-3144272D01*
X5476999Y-3243590D01*
X5476999Y-3325500D01*
X5457314Y-3392539D01*
X5404510Y-3438294D01*
X5352999Y-3449500D01*
X5235226Y-3449500D01*
X5110935Y-3485994D01*
X5110932Y-3485995D01*
X5110931Y-3485996D01*
X5059677Y-3518934D01*
X5001950Y-3556033D01*
X4917118Y-3653937D01*
X4917117Y-3653938D01*
X4863302Y-3771774D01*
X4844867Y-3900000D01*
X4844867Y-3900001D01*
X4845277Y-3902853D01*
X4844867Y-3905704D01*
X4844867Y-3908869D01*
X4844412Y-3908869D01*
X4835333Y-3972012D01*
X4789577Y-4024815D01*
X4722539Y-4044499D01*
X4676090Y-4044499D01*
X4576772Y-4071111D01*
X4576771Y-4071111D01*
X4539498Y-4092631D01*
X4471598Y-4109102D01*
X4415500Y-4092631D01*
X4378228Y-4071112D01*
X4378224Y-4071111D01*
X4278910Y-4044500D01*
X4176090Y-4044500D01*
X4076772Y-4071112D01*
X4076765Y-4071115D01*
X4056873Y-4082599D01*
X3988972Y-4099069D01*
X3922946Y-4076215D01*
X3906425Y-4060273D01*
X3905725Y-4060974D01*
X3827274Y-3982523D01*
X3827269Y-3982519D01*
X3738230Y-3931113D01*
X3738229Y-3931112D01*
X3738228Y-3931112D01*
X3677255Y-3914774D01*
X3617595Y-3878410D01*
X3587066Y-3815563D01*
X3595361Y-3746187D01*
X3639846Y-3692310D01*
X3677253Y-3675226D01*
X3738229Y-3658888D01*
X3827274Y-3607478D01*
X3899979Y-3534773D01*
X3951389Y-3445728D01*
X3978001Y-3346410D01*
X3978001Y-3243590D01*
X3951389Y-3144272D01*
X3899979Y-3055227D01*
X3827274Y-2982522D01*
X3827273Y-2982521D01*
X3827270Y-2982519D01*
X3738231Y-2931113D01*
X3738230Y-2931112D01*
X3738229Y-2931112D01*
X3677253Y-2914773D01*
X3617594Y-2878408D01*
X3587066Y-2815561D01*
X3595361Y-2746185D01*
X3639847Y-2692308D01*
X3677251Y-2675226D01*
X3738228Y-2658888D01*
X3827273Y-2607478D01*
X3899978Y-2534773D01*
X3899978Y-2534772D01*
X3905725Y-2529026D01*
X3907775Y-2531076D01*
X3952901Y-2498110D01*
X4022646Y-2493938D01*
X4056875Y-2507400D01*
X4076772Y-2518888D01*
X4176090Y-2545500D01*
X4176092Y-2545500D01*
X4278908Y-2545500D01*
X4278910Y-2545500D01*
X4378228Y-2518888D01*
X4415501Y-2497368D01*
X4483398Y-2480896D01*
X4539496Y-2497367D01*
X4576772Y-2518889D01*
X4676090Y-2545501D01*
X4676092Y-2545501D01*
X4778908Y-2545501D01*
X4778910Y-2545501D01*
X4878228Y-2518889D01*
X4915501Y-2497369D01*
X4983398Y-2480896D01*
X5039499Y-2497368D01*
G37*
%TD.AperFunction*%
%TA.AperFunction,Conductor*%
G36*
X-1109739Y-2906525D02*
G01*
X-1107163Y-2906933D01*
X-1070283Y-2918913D01*
X-1067173Y-2920498D01*
X-1035775Y-2943307D01*
X-1033310Y-2945772D01*
X-1010505Y-2977161D01*
X-1008922Y-2980268D01*
X-996938Y-3017142D01*
X-996531Y-3019709D01*
X-995001Y-3039127D01*
X-995001Y-3320868D01*
X-996533Y-3340303D01*
X-996941Y-3342874D01*
X-1008923Y-3379731D01*
X-1010506Y-3382838D01*
X-1033311Y-3414227D01*
X-1035774Y-3416690D01*
X-1067162Y-3439495D01*
X-1070267Y-3441077D01*
X-1107135Y-3453060D01*
X-1108198Y-3453228D01*
X-1109706Y-3453467D01*
X-1129125Y-3454998D01*
X-1335078Y-3454998D01*
X-1362372Y-3456462D01*
X-1362377Y-3456462D01*
X-1362389Y-3456463D01*
X-1362397Y-3456463D01*
X-1362426Y-3456466D01*
X-1388748Y-3459296D01*
X-1388753Y-3459297D01*
X-1462899Y-3482515D01*
X-1532757Y-3483763D01*
X-1592200Y-3447044D01*
X-1622355Y-3384017D01*
X-1618927Y-3329240D01*
X-1617829Y-3325500D01*
X-1615350Y-3317059D01*
X-1605000Y-3245074D01*
X-1605000Y-3039127D01*
X-1603479Y-3019764D01*
X-1603470Y-3019709D01*
X-1603072Y-3017190D01*
X-1591075Y-2980257D01*
X-1589489Y-2977144D01*
X-1566692Y-2945773D01*
X-1564228Y-2943309D01*
X-1532840Y-2920503D01*
X-1529727Y-2918917D01*
X-1492828Y-2906931D01*
X-1490269Y-2906525D01*
X-1470878Y-2905000D01*
X-1129130Y-2905000D01*
X-1109739Y-2906525D01*
G37*
%TD.AperFunction*%
%TA.AperFunction,Conductor*%
G36*
X-4969677Y-750500D02*
G01*
X-4466570Y-750500D01*
X-4399531Y-770185D01*
X-4353776Y-822989D01*
X-4343832Y-892147D01*
X-4372857Y-955703D01*
X-4397677Y-977599D01*
X-4430579Y-999584D01*
X-4430601Y-999599D01*
X-4485967Y-1082460D01*
X-4485968Y-1082464D01*
X-4500500Y-1155521D01*
X-4500500Y-1824878D01*
X-4485968Y-1897935D01*
X-4485967Y-1897939D01*
X-4430601Y-1980801D01*
X-4367800Y-2022763D01*
X-4322995Y-2076375D01*
X-4314288Y-2145700D01*
X-4344442Y-2208728D01*
X-4349010Y-2213546D01*
X-5287819Y-3152356D01*
X-5349142Y-3185841D01*
X-5418833Y-3180857D01*
X-5474767Y-3138985D01*
X-5499184Y-3073521D01*
X-5499500Y-3064675D01*
X-5499500Y-3055523D01*
X-5499501Y-3055521D01*
X-5514033Y-2982464D01*
X-5514034Y-2982460D01*
X-5538548Y-2945772D01*
X-5569399Y-2899599D01*
X-5649003Y-2846410D01*
X-5652261Y-2844233D01*
X-5652265Y-2844232D01*
X-5725323Y-2829700D01*
X-5725326Y-2829700D01*
X-6575500Y-2829700D01*
X-6642539Y-2810015D01*
X-6688294Y-2757211D01*
X-6699500Y-2705700D01*
X-6699500Y-2174700D01*
X-6679815Y-2107661D01*
X-6627011Y-2061906D01*
X-6575500Y-2050700D01*
X-5725324Y-2050700D01*
X-5725323Y-2050699D01*
X-5652260Y-2036166D01*
X-5569399Y-1980801D01*
X-5514034Y-1897940D01*
X-5499500Y-1824874D01*
X-5499500Y-1185124D01*
X-5479815Y-1118085D01*
X-5463181Y-1097443D01*
X-5304500Y-938762D01*
X-5138787Y-773048D01*
X-5077466Y-739565D01*
X-5026916Y-739114D01*
X-4969677Y-750500D01*
G37*
%TD.AperFunction*%
%TA.AperFunction,Conductor*%
G36*
X5792925Y-1447214D02*
G01*
X5827542Y-1471605D01*
X6449681Y-2093744D01*
X6483166Y-2155067D01*
X6486000Y-2181425D01*
X6486000Y-2280500D01*
X6466315Y-2347539D01*
X6413511Y-2393294D01*
X6362000Y-2404500D01*
X5816088Y-2404500D01*
X5752948Y-2421418D01*
X5683098Y-2419755D01*
X5625236Y-2380591D01*
X5597733Y-2316363D01*
X5601080Y-2269554D01*
X5618000Y-2206410D01*
X5618000Y-1583590D01*
X5617999Y-1583588D01*
X5616939Y-1575534D01*
X5620655Y-1575044D01*
X5621378Y-1522712D01*
X5659960Y-1464461D01*
X5723910Y-1436316D01*
X5792925Y-1447214D01*
G37*
%TD.AperFunction*%
%TD*%
M02*
