%TF.GenerationSoftware,KiCad,Pcbnew,8.0.1-8.0.1-1~ubuntu22.04.1*%
%TF.CreationDate,2024-03-30T20:02:45+00:00*%
%TF.ProjectId,DRY_FLEX,4452595f-464c-4455-982e-6b696361645f,v1.0*%
%TF.SameCoordinates,Original*%
%TF.FileFunction,Drillmap*%
%TF.FilePolarity,Positive*%
%FSLAX45Y45*%
G04 Gerber Fmt 4.5, Leading zero omitted, Abs format (unit mm)*
G04 Created by KiCad (PCBNEW 8.0.1-8.0.1-1~ubuntu22.04.1) date 2024-03-30 20:02:45*
%MOMM*%
%LPD*%
G01*
G04 APERTURE LIST*
%ADD10C,0.038100*%
%ADD11C,0.200000*%
G04 APERTURE END LIST*
D10*
X4300000Y-7300000D02*
G75*
G02*
X4500000Y-7500000I0J-200000D01*
G01*
X2600000Y-1900000D02*
X3300000Y-1900000D01*
X8600000Y-7500000D02*
G75*
G02*
X8800000Y-7300000I200000J0D01*
G01*
X7200000Y-7800000D02*
G75*
G02*
X7100000Y-7800000I-50000J0D01*
G01*
X7100000Y-7800000D02*
G75*
G02*
X7200000Y-7800000I50000J0D01*
G01*
X8100000Y-6700000D02*
G75*
G02*
X7900000Y-6900000I-200000J0D01*
G01*
X10500000Y-4600000D02*
X10500000Y-5700000D01*
X8600000Y-4600000D02*
X9300000Y-4600000D01*
X2400000Y-4800000D02*
G75*
G02*
X2300000Y-4800000I-50000J0D01*
G01*
X2300000Y-4800000D02*
G75*
G02*
X2400000Y-4800000I50000J0D01*
G01*
X3300000Y-1900000D02*
X3300000Y-2100000D01*
X5700000Y-4300000D02*
X5600000Y-3500000D01*
X9600000Y-5700000D02*
G75*
G02*
X9500000Y-5700000I-50000J0D01*
G01*
X9500000Y-5700000D02*
G75*
G02*
X9600000Y-5700000I50000J0D01*
G01*
X4650000Y-6150000D02*
G75*
G02*
X4550000Y-6150000I-50000J0D01*
G01*
X4550000Y-6150000D02*
G75*
G02*
X4650000Y-6150000I50000J0D01*
G01*
X11000000Y-11300000D02*
X11000000Y-11100000D01*
X8600000Y-1700000D02*
X9300000Y-1700000D01*
X10500000Y-11500000D02*
X10500000Y-11600000D01*
X7800000Y-6300000D02*
X7900000Y-6300000D01*
X8100000Y-4300000D02*
X8100000Y-4400000D01*
X9300000Y-11600000D02*
X9800000Y-11600000D01*
X3300000Y-11500000D02*
X3300000Y-11600000D01*
X4300000Y-6900000D02*
X4000000Y-6900000D01*
X3200000Y-3500000D02*
X3200000Y-2800000D01*
X2400000Y-7800000D02*
G75*
G02*
X2300000Y-7800000I-50000J0D01*
G01*
X2300000Y-7800000D02*
G75*
G02*
X2400000Y-7800000I50000J0D01*
G01*
X6400000Y-5900000D02*
X6700000Y-5900000D01*
X8600000Y-11600000D02*
X8600000Y-11500000D01*
X9800000Y-4600000D02*
X10500000Y-4600000D01*
X10500000Y-5700000D02*
G75*
G02*
X10300000Y-5900000I-200000J0D01*
G01*
X8600000Y-11300000D02*
X8600000Y-11100000D01*
X8550000Y-6150000D02*
G75*
G02*
X8450000Y-6150000I-50000J0D01*
G01*
X8450000Y-6150000D02*
G75*
G02*
X8550000Y-6150000I50000J0D01*
G01*
X6200000Y-8600000D02*
X6900000Y-8600000D01*
X8600000Y-4700000D02*
X8600000Y-5700000D01*
X3800000Y-8600000D02*
X3800000Y-8500000D01*
X4800000Y-6600000D02*
G75*
G02*
X4700000Y-6600000I-50000J0D01*
G01*
X4700000Y-6600000D02*
G75*
G02*
X4800000Y-6600000I50000J0D01*
G01*
X8100000Y-1600000D02*
X8600000Y-1600000D01*
X5000000Y-1700000D02*
X5700000Y-1700000D01*
X8100000Y-8600000D02*
X8100000Y-7500000D01*
X9800000Y-8600000D02*
X9800000Y-8500000D01*
X5500000Y-7300000D02*
G75*
G02*
X5700000Y-7500000I0J-200000D01*
G01*
X6200000Y-11500000D02*
X6900000Y-11500000D01*
X10500000Y-4300000D02*
X10400000Y-3500000D01*
X2400000Y-7200000D02*
G75*
G02*
X2300000Y-7200000I-50000J0D01*
G01*
X2300000Y-7200000D02*
G75*
G02*
X2400000Y-7200000I50000J0D01*
G01*
X9800000Y-8600000D02*
X10500000Y-8600000D01*
X9800000Y-11600000D02*
X9800000Y-11500000D01*
X6900000Y-4600000D02*
X6900000Y-5700000D01*
X3800000Y-6700000D02*
X3800000Y-6500000D01*
X4300000Y-6300000D02*
G75*
G02*
X4500000Y-6500000I0J-200000D01*
G01*
X2600000Y-8900000D02*
X2600000Y-8800000D01*
X6200000Y-11600000D02*
X6200000Y-11500000D01*
X3800000Y-4600000D02*
X3800000Y-4700000D01*
X4400000Y-9700000D02*
X4400000Y-10400000D01*
X4500000Y-4600000D02*
X4500000Y-5700000D01*
X3300000Y-4600000D02*
X3300000Y-5700000D01*
X7200000Y-4800000D02*
G75*
G02*
X7100000Y-4800000I-50000J0D01*
G01*
X7100000Y-4800000D02*
G75*
G02*
X7200000Y-4800000I50000J0D01*
G01*
X6200000Y-7500000D02*
G75*
G02*
X6400000Y-7300000I200000J0D01*
G01*
X10950000Y-7050000D02*
G75*
G02*
X10850000Y-7050000I-50000J0D01*
G01*
X10850000Y-7050000D02*
G75*
G02*
X10950000Y-7050000I50000J0D01*
G01*
X2600000Y-8800000D02*
X3300000Y-8800000D01*
X3600000Y-6900000D02*
G75*
G02*
X3500000Y-6900000I-50000J0D01*
G01*
X3500000Y-6900000D02*
G75*
G02*
X3600000Y-6900000I50000J0D01*
G01*
X9300000Y-11300000D02*
X9300000Y-11100000D01*
X8400000Y-8100000D02*
G75*
G02*
X8300000Y-8100000I-50000J0D01*
G01*
X8300000Y-8100000D02*
G75*
G02*
X8400000Y-8100000I50000J0D01*
G01*
X2100000Y-8900000D02*
X2100000Y-8800000D01*
X9300000Y-6700000D02*
G75*
G02*
X9100000Y-6900000I-200000J0D01*
G01*
X2400000Y-5100000D02*
G75*
G02*
X2300000Y-5100000I-50000J0D01*
G01*
X2300000Y-5100000D02*
G75*
G02*
X2400000Y-5100000I50000J0D01*
G01*
X3300000Y-5700000D02*
G75*
G02*
X3100000Y-5900000I-200000J0D01*
G01*
X5000000Y-1900000D02*
X5700000Y-1900000D01*
X9450000Y-7050000D02*
G75*
G02*
X9350000Y-7050000I-50000J0D01*
G01*
X9350000Y-7050000D02*
G75*
G02*
X9450000Y-7050000I50000J0D01*
G01*
X8100000Y-11500000D02*
X8100000Y-11600000D01*
X8100000Y-8900000D02*
X8100000Y-8800000D01*
X2100000Y-2100000D02*
X2000000Y-2800000D01*
X8700000Y-9700000D02*
X8600000Y-8900000D01*
X6200000Y-1600000D02*
X6200000Y-1700000D01*
X10500000Y-6700000D02*
G75*
G02*
X10300000Y-6900000I-200000J0D01*
G01*
X5000000Y-8600000D02*
X5700000Y-8600000D01*
X3900000Y-2800000D02*
X3900000Y-3500000D01*
X7900000Y-6300000D02*
G75*
G02*
X8100000Y-6500000I0J-200000D01*
G01*
X6200000Y-8800000D02*
X6900000Y-8800000D01*
X7400000Y-7500000D02*
G75*
G02*
X7600000Y-7300000I200000J0D01*
G01*
X2600000Y-1600000D02*
X2600000Y-1700000D01*
X8600000Y-1900000D02*
X8600000Y-2000000D01*
X9800000Y-1600000D02*
X9800000Y-1700000D01*
X9600000Y-8400000D02*
G75*
G02*
X9500000Y-8400000I-50000J0D01*
G01*
X9500000Y-8400000D02*
G75*
G02*
X9600000Y-8400000I50000J0D01*
G01*
X9300000Y-4300000D02*
X9200000Y-3500000D01*
X6200000Y-11100000D02*
X6300000Y-10400000D01*
X5700000Y-11600000D02*
X6200000Y-11600000D01*
X9800000Y-1900000D02*
X10500000Y-1900000D01*
X11000000Y-4700000D02*
X11000000Y-5900000D01*
X8600000Y-4400000D02*
X9300000Y-4400000D01*
X5300000Y-6900000D02*
X5200000Y-6900000D01*
X5100000Y-2800000D02*
X5100000Y-3500000D01*
X6000000Y-5100000D02*
G75*
G02*
X5900000Y-5100000I-50000J0D01*
G01*
X5900000Y-5100000D02*
G75*
G02*
X6000000Y-5100000I50000J0D01*
G01*
X5000000Y-8600000D02*
X5000000Y-8500000D01*
X7400000Y-4400000D02*
X8100000Y-4400000D01*
X3800000Y-2000000D02*
X3900000Y-2800000D01*
X2600000Y-4400000D02*
X3300000Y-4400000D01*
X3300000Y-11300000D02*
X3300000Y-11100000D01*
X4500000Y-6500000D02*
X4500000Y-6700000D01*
X7400000Y-8800000D02*
X8100000Y-8800000D01*
X11000000Y-4600000D02*
X11000000Y-4700000D01*
X2600000Y-4300000D02*
X2600000Y-4400000D01*
X5000000Y-6700000D02*
X5000000Y-6500000D01*
X7600000Y-6500000D02*
G75*
G02*
X7800000Y-6300000I200000J0D01*
G01*
X8600000Y-11100000D02*
X8700000Y-10400000D01*
X2600000Y-4600000D02*
X2600000Y-4700000D01*
X9900000Y-3500000D02*
X9800000Y-4300000D01*
X3800000Y-8600000D02*
X4500000Y-8600000D01*
X7200000Y-8400000D02*
G75*
G02*
X7100000Y-8400000I-50000J0D01*
G01*
X7100000Y-8400000D02*
G75*
G02*
X7200000Y-8400000I50000J0D01*
G01*
X8400000Y-5400000D02*
G75*
G02*
X8300000Y-5400000I-50000J0D01*
G01*
X8300000Y-5400000D02*
G75*
G02*
X8400000Y-5400000I50000J0D01*
G01*
X5600000Y-3500000D02*
X5600000Y-2800000D01*
X6900000Y-8600000D02*
X6900000Y-7500000D01*
X2100000Y-11100000D02*
X2000000Y-10400000D01*
X10500000Y-1700000D02*
X10500000Y-1600000D01*
X11100000Y-3500000D02*
X11000000Y-4300000D01*
X10300000Y-7300000D02*
G75*
G02*
X10500000Y-7500000I0J-200000D01*
G01*
X11000000Y-11300000D02*
X11000000Y-11500000D01*
X2700000Y-3500000D02*
X2600000Y-4300000D01*
X11100000Y-9700000D02*
X11000000Y-8900000D01*
X6900000Y-5700000D02*
G75*
G02*
X6700000Y-5900000I-200000J0D01*
G01*
X8250000Y-7050000D02*
G75*
G02*
X8150000Y-7050000I-50000J0D01*
G01*
X8150000Y-7050000D02*
G75*
G02*
X8250000Y-7050000I50000J0D01*
G01*
X6900000Y-1900000D02*
X6900000Y-2100000D01*
X7200000Y-5700000D02*
G75*
G02*
X7100000Y-5700000I-50000J0D01*
G01*
X7100000Y-5700000D02*
G75*
G02*
X7200000Y-5700000I50000J0D01*
G01*
X3900000Y-10400000D02*
X3900000Y-9700000D01*
X9800000Y-11300000D02*
X9800000Y-11100000D01*
X6200000Y-4600000D02*
X6200000Y-4700000D01*
X11000000Y-8900000D02*
X11000000Y-8800000D01*
X8100000Y-6500000D02*
X8100000Y-6700000D01*
X9800000Y-8900000D02*
X9800000Y-8800000D01*
X3300000Y-11100000D02*
X3200000Y-10400000D01*
X8600000Y-2000000D02*
X8700000Y-2800000D01*
X6900000Y-11600000D02*
X7400000Y-11600000D01*
X8100000Y-1700000D02*
X8100000Y-1600000D01*
X11000000Y-8600000D02*
X11000000Y-8500000D01*
X11000000Y-8500000D02*
X11000000Y-7300000D01*
X2800000Y-5900000D02*
X3100000Y-5900000D01*
X4000000Y-5900000D02*
X4300000Y-5900000D01*
X4800000Y-8100000D02*
G75*
G02*
X4700000Y-8100000I-50000J0D01*
G01*
X4700000Y-8100000D02*
G75*
G02*
X4800000Y-8100000I50000J0D01*
G01*
X11000000Y-2000000D02*
X11100000Y-2800000D01*
X2400000Y-8400000D02*
G75*
G02*
X2300000Y-8400000I-50000J0D01*
G01*
X2300000Y-8400000D02*
G75*
G02*
X2400000Y-8400000I50000J0D01*
G01*
X7900000Y-6900000D02*
X7800000Y-6900000D01*
X9800000Y-4400000D02*
X10500000Y-4400000D01*
X4800000Y-4800000D02*
G75*
G02*
X4700000Y-4800000I-50000J0D01*
G01*
X4700000Y-4800000D02*
G75*
G02*
X4800000Y-4800000I50000J0D01*
G01*
X2100000Y-11300000D02*
X2100000Y-11500000D01*
X8400000Y-6300000D02*
G75*
G02*
X8300000Y-6300000I-50000J0D01*
G01*
X8300000Y-6300000D02*
G75*
G02*
X8400000Y-6300000I50000J0D01*
G01*
X3450000Y-6100000D02*
G75*
G02*
X3350000Y-6100000I-50000J0D01*
G01*
X3350000Y-6100000D02*
G75*
G02*
X3450000Y-6100000I50000J0D01*
G01*
X11000000Y-8600000D02*
X11000000Y-8800000D01*
X6900000Y-11500000D02*
X6900000Y-11600000D01*
X11000000Y-4300000D02*
X11000000Y-4400000D01*
X6900000Y-2100000D02*
X6800000Y-2800000D01*
X6200000Y-4700000D02*
X6200000Y-5700000D01*
X4800000Y-8400000D02*
G75*
G02*
X4700000Y-8400000I-50000J0D01*
G01*
X4700000Y-8400000D02*
G75*
G02*
X4800000Y-8400000I50000J0D01*
G01*
X9600000Y-5400000D02*
G75*
G02*
X9500000Y-5400000I-50000J0D01*
G01*
X9500000Y-5400000D02*
G75*
G02*
X9600000Y-5400000I50000J0D01*
G01*
X4500000Y-8600000D02*
X4500000Y-7500000D01*
X4500000Y-8900000D02*
X4500000Y-8800000D01*
X7500000Y-3500000D02*
X7400000Y-4300000D01*
X3100000Y-6300000D02*
G75*
G02*
X3300000Y-6500000I0J-200000D01*
G01*
X8800000Y-7300000D02*
X9100000Y-7300000D01*
X3800000Y-6500000D02*
G75*
G02*
X4000000Y-6300000I200000J0D01*
G01*
X7400000Y-4600000D02*
X8100000Y-4600000D01*
X3600000Y-7500000D02*
G75*
G02*
X3500000Y-7500000I-50000J0D01*
G01*
X3500000Y-7500000D02*
G75*
G02*
X3600000Y-7500000I50000J0D01*
G01*
X4800000Y-5100000D02*
G75*
G02*
X4700000Y-5100000I-50000J0D01*
G01*
X4700000Y-5100000D02*
G75*
G02*
X4800000Y-5100000I50000J0D01*
G01*
X10500000Y-8600000D02*
X10500000Y-7500000D01*
X2600000Y-8600000D02*
X2600000Y-8500000D01*
X2800000Y-5900000D02*
G75*
G02*
X2600000Y-5700000I0J200000D01*
G01*
X10800000Y-8100000D02*
G75*
G02*
X10700000Y-8100000I-50000J0D01*
G01*
X10700000Y-8100000D02*
G75*
G02*
X10800000Y-8100000I50000J0D01*
G01*
X9200000Y-3500000D02*
X9200000Y-2800000D01*
X6900000Y-4300000D02*
X6800000Y-3500000D01*
X10000000Y-6300000D02*
X10300000Y-6300000D01*
X9600000Y-5100000D02*
G75*
G02*
X9500000Y-5100000I-50000J0D01*
G01*
X9500000Y-5100000D02*
G75*
G02*
X9600000Y-5100000I50000J0D01*
G01*
X3750000Y-6100000D02*
G75*
G02*
X3650000Y-6100000I-50000J0D01*
G01*
X3650000Y-6100000D02*
G75*
G02*
X3750000Y-6100000I50000J0D01*
G01*
X10650000Y-6150000D02*
G75*
G02*
X10550000Y-6150000I-50000J0D01*
G01*
X10550000Y-6150000D02*
G75*
G02*
X10650000Y-6150000I50000J0D01*
G01*
X6200000Y-4600000D02*
X6900000Y-4600000D01*
X9600000Y-7800000D02*
G75*
G02*
X9500000Y-7800000I-50000J0D01*
G01*
X9500000Y-7800000D02*
G75*
G02*
X9600000Y-7800000I50000J0D01*
G01*
X5000000Y-6500000D02*
G75*
G02*
X5200000Y-6300000I200000J0D01*
G01*
X10500000Y-11300000D02*
X10500000Y-11100000D01*
X6200000Y-8600000D02*
X6200000Y-8500000D01*
X5000000Y-4600000D02*
X5700000Y-4600000D01*
X6900000Y-11300000D02*
X6900000Y-11100000D01*
X9800000Y-7500000D02*
G75*
G02*
X10000000Y-7300000I200000J0D01*
G01*
X3100000Y-6900000D02*
X2800000Y-6900000D01*
X2400000Y-6300000D02*
G75*
G02*
X2300000Y-6300000I-50000J0D01*
G01*
X2300000Y-6300000D02*
G75*
G02*
X2400000Y-6300000I50000J0D01*
G01*
X9300000Y-4300000D02*
X9300000Y-4400000D01*
X5000000Y-11300000D02*
X5700000Y-11300000D01*
X5000000Y-11300000D02*
X5000000Y-11100000D01*
X6300000Y-9700000D02*
X6200000Y-8900000D01*
X8600000Y-11300000D02*
X9300000Y-11300000D01*
X5000000Y-8900000D02*
X5000000Y-8800000D01*
X9800000Y-4300000D02*
X9800000Y-4400000D01*
X6200000Y-4300000D02*
X6200000Y-4400000D01*
X2250000Y-7050000D02*
G75*
G02*
X2150000Y-7050000I-50000J0D01*
G01*
X2150000Y-7050000D02*
G75*
G02*
X2250000Y-7050000I50000J0D01*
G01*
X10500000Y-1900000D02*
X10500000Y-2100000D01*
X5500000Y-6500000D02*
X5500000Y-6700000D01*
X9800000Y-8500000D02*
X9800000Y-7500000D01*
X5700000Y-1600000D02*
X6200000Y-1600000D01*
X5000000Y-7500000D02*
G75*
G02*
X5200000Y-7300000I200000J0D01*
G01*
X5500000Y-6700000D02*
G75*
G02*
X5300000Y-6900000I-200000J0D01*
G01*
X6900000Y-11100000D02*
X6800000Y-10400000D01*
X7500000Y-2800000D02*
X7500000Y-3500000D01*
X7400000Y-11300000D02*
X7400000Y-11100000D01*
X5000000Y-8800000D02*
X5700000Y-8800000D01*
X3300000Y-2100000D02*
X3200000Y-2800000D01*
X7400000Y-11500000D02*
X8100000Y-11500000D01*
X5200000Y-6300000D02*
X5300000Y-6300000D01*
X5000000Y-1600000D02*
X5000000Y-1700000D01*
X5200000Y-5900000D02*
X5500000Y-5900000D01*
X3450000Y-7050000D02*
G75*
G02*
X3350000Y-7050000I-50000J0D01*
G01*
X3350000Y-7050000D02*
G75*
G02*
X3450000Y-7050000I50000J0D01*
G01*
X3800000Y-4600000D02*
X4500000Y-4600000D01*
X10000000Y-7300000D02*
X10300000Y-7300000D01*
X2000000Y-3500000D02*
X2000000Y-2800000D01*
X6900000Y-8900000D02*
X6900000Y-8800000D01*
X8100000Y-11100000D02*
X8000000Y-10400000D01*
X3800000Y-11600000D02*
X3800000Y-11500000D01*
X3800000Y-8800000D02*
X4500000Y-8800000D01*
X7200000Y-5400000D02*
G75*
G02*
X7100000Y-5400000I-50000J0D01*
G01*
X7100000Y-5400000D02*
G75*
G02*
X7200000Y-5400000I50000J0D01*
G01*
X7400000Y-1600000D02*
X7400000Y-1700000D01*
X8100000Y-8900000D02*
X8000000Y-9700000D01*
X8100000Y-4600000D02*
X8100000Y-5700000D01*
X11000000Y-1700000D02*
X11000000Y-1900000D01*
X8400000Y-7500000D02*
G75*
G02*
X8300000Y-7500000I-50000J0D01*
G01*
X8300000Y-7500000D02*
G75*
G02*
X8400000Y-7500000I50000J0D01*
G01*
X5600000Y-9700000D02*
X5600000Y-10400000D01*
X2700000Y-2800000D02*
X2700000Y-3500000D01*
X10800000Y-6600000D02*
G75*
G02*
X10700000Y-6600000I-50000J0D01*
G01*
X10700000Y-6600000D02*
G75*
G02*
X10800000Y-6600000I50000J0D01*
G01*
X7400000Y-11600000D02*
X7400000Y-11500000D01*
X9900000Y-10400000D02*
X9900000Y-9700000D01*
X6200000Y-11300000D02*
X6200000Y-11100000D01*
X5200000Y-7300000D02*
X5500000Y-7300000D01*
X10500000Y-1600000D02*
X11000000Y-1600000D01*
X3300000Y-1600000D02*
X3800000Y-1600000D01*
X9900000Y-2800000D02*
X9900000Y-3500000D01*
X2600000Y-1900000D02*
X2600000Y-2000000D01*
X8600000Y-11500000D02*
X9300000Y-11500000D01*
X8700000Y-3500000D02*
X8600000Y-4300000D01*
X2600000Y-1700000D02*
X3300000Y-1700000D01*
X9800000Y-4600000D02*
X9800000Y-4700000D01*
X8400000Y-5700000D02*
G75*
G02*
X8300000Y-5700000I-50000J0D01*
G01*
X8300000Y-5700000D02*
G75*
G02*
X8400000Y-5700000I50000J0D01*
G01*
X6200000Y-8900000D02*
X6200000Y-8800000D01*
X8400000Y-8400000D02*
G75*
G02*
X8300000Y-8400000I-50000J0D01*
G01*
X8300000Y-8400000D02*
G75*
G02*
X8400000Y-8400000I50000J0D01*
G01*
X10400000Y-9700000D02*
X10400000Y-10400000D01*
X8400000Y-6600000D02*
G75*
G02*
X8300000Y-6600000I-50000J0D01*
G01*
X8300000Y-6600000D02*
G75*
G02*
X8400000Y-6600000I50000J0D01*
G01*
X3600000Y-6300000D02*
G75*
G02*
X3500000Y-6300000I-50000J0D01*
G01*
X3500000Y-6300000D02*
G75*
G02*
X3600000Y-6300000I50000J0D01*
G01*
X4500000Y-1900000D02*
X4500000Y-2100000D01*
X6300000Y-10400000D02*
X6300000Y-9700000D01*
X4800000Y-7500000D02*
G75*
G02*
X4700000Y-7500000I-50000J0D01*
G01*
X4700000Y-7500000D02*
G75*
G02*
X4800000Y-7500000I50000J0D01*
G01*
X10500000Y-11100000D02*
X10400000Y-10400000D01*
X4500000Y-8900000D02*
X4400000Y-9700000D01*
X5200000Y-6900000D02*
G75*
G02*
X5000000Y-6700000I0J200000D01*
G01*
X11000000Y-11100000D02*
X11100000Y-10400000D01*
X10800000Y-5700000D02*
G75*
G02*
X10700000Y-5700000I-50000J0D01*
G01*
X10700000Y-5700000D02*
G75*
G02*
X10800000Y-5700000I50000J0D01*
G01*
X2100000Y-1700000D02*
X2100000Y-1600000D01*
X8100000Y-11600000D02*
X8600000Y-11600000D01*
X7500000Y-10400000D02*
X7500000Y-9700000D01*
X8000000Y-9700000D02*
X8000000Y-10400000D01*
X2100000Y-11500000D02*
X2100000Y-11600000D01*
X4400000Y-3500000D02*
X4400000Y-2800000D01*
X6300000Y-2800000D02*
X6300000Y-3500000D01*
X9800000Y-11300000D02*
X10500000Y-11300000D01*
X7600000Y-7300000D02*
X7900000Y-7300000D01*
X4000000Y-7300000D02*
X4300000Y-7300000D01*
X3800000Y-11300000D02*
X4500000Y-11300000D01*
X5000000Y-11100000D02*
X5100000Y-10400000D01*
X11000000Y-1600000D02*
X11000000Y-1700000D01*
X2100000Y-4600000D02*
X2100000Y-5900000D01*
X5100000Y-9700000D02*
X5000000Y-8900000D01*
X8600000Y-8500000D02*
X8600000Y-7500000D01*
X9100000Y-7300000D02*
G75*
G02*
X9300000Y-7500000I0J-200000D01*
G01*
X2100000Y-11600000D02*
X2600000Y-11600000D01*
X8600000Y-4300000D02*
X8600000Y-4400000D01*
X4650000Y-7050000D02*
G75*
G02*
X4550000Y-7050000I-50000J0D01*
G01*
X4550000Y-7050000D02*
G75*
G02*
X4650000Y-7050000I50000J0D01*
G01*
X6400000Y-7300000D02*
X6700000Y-7300000D01*
X4800000Y-5700000D02*
G75*
G02*
X4700000Y-5700000I-50000J0D01*
G01*
X4700000Y-5700000D02*
G75*
G02*
X4800000Y-5700000I50000J0D01*
G01*
X8600000Y-6700000D02*
X8600000Y-6500000D01*
X9750000Y-6150000D02*
G75*
G02*
X9650000Y-6150000I-50000J0D01*
G01*
X9650000Y-6150000D02*
G75*
G02*
X9750000Y-6150000I50000J0D01*
G01*
X3800000Y-1700000D02*
X4500000Y-1700000D01*
X6200000Y-1900000D02*
X6200000Y-2000000D01*
X4500000Y-5700000D02*
G75*
G02*
X4300000Y-5900000I-200000J0D01*
G01*
X7500000Y-9700000D02*
X7400000Y-8900000D01*
X2600000Y-4700000D02*
X2600000Y-5700000D01*
X2600000Y-6500000D02*
G75*
G02*
X2800000Y-6300000I200000J0D01*
G01*
X3900000Y-3500000D02*
X3800000Y-4300000D01*
X10950000Y-6150000D02*
G75*
G02*
X10850000Y-6150000I-50000J0D01*
G01*
X10850000Y-6150000D02*
G75*
G02*
X10950000Y-6150000I50000J0D01*
G01*
X3800000Y-4400000D02*
X4500000Y-4400000D01*
X6000000Y-5700000D02*
G75*
G02*
X5900000Y-5700000I-50000J0D01*
G01*
X5900000Y-5700000D02*
G75*
G02*
X6000000Y-5700000I50000J0D01*
G01*
X6000000Y-5400000D02*
G75*
G02*
X5900000Y-5400000I-50000J0D01*
G01*
X5900000Y-5400000D02*
G75*
G02*
X6000000Y-5400000I50000J0D01*
G01*
X3800000Y-1900000D02*
X3800000Y-2000000D01*
X3800000Y-7500000D02*
G75*
G02*
X4000000Y-7300000I200000J0D01*
G01*
X3600000Y-5100000D02*
G75*
G02*
X3500000Y-5100000I-50000J0D01*
G01*
X3500000Y-5100000D02*
G75*
G02*
X3600000Y-5100000I50000J0D01*
G01*
X10000000Y-5900000D02*
X10300000Y-5900000D01*
X2100000Y-4300000D02*
X2100000Y-4400000D01*
X3300000Y-8900000D02*
X3200000Y-9700000D01*
X2800000Y-6300000D02*
X3100000Y-6300000D01*
X8400000Y-4800000D02*
G75*
G02*
X8300000Y-4800000I-50000J0D01*
G01*
X8300000Y-4800000D02*
G75*
G02*
X8400000Y-4800000I50000J0D01*
G01*
X11100000Y-2800000D02*
X11100000Y-3500000D01*
X3300000Y-4300000D02*
X3200000Y-3500000D01*
X4500000Y-4300000D02*
X4400000Y-3500000D01*
X7600000Y-5900000D02*
X7900000Y-5900000D01*
X8600000Y-8800000D02*
X9300000Y-8800000D01*
X3300000Y-6700000D02*
G75*
G02*
X3100000Y-6900000I-200000J0D01*
G01*
X9800000Y-2000000D02*
X9900000Y-2800000D01*
X5000000Y-4700000D02*
X5000000Y-5700000D01*
X6300000Y-3500000D02*
X6200000Y-4300000D01*
X5000000Y-1900000D02*
X5000000Y-2000000D01*
X3800000Y-4700000D02*
X3800000Y-5700000D01*
X11000000Y-11600000D02*
X11000000Y-11500000D01*
X5700000Y-2100000D02*
X5600000Y-2800000D01*
X7400000Y-8600000D02*
X7400000Y-8500000D01*
X6700000Y-7300000D02*
G75*
G02*
X6900000Y-7500000I0J-200000D01*
G01*
X4500000Y-2100000D02*
X4400000Y-2800000D01*
X10400000Y-3500000D02*
X10400000Y-2800000D01*
X3600000Y-4800000D02*
G75*
G02*
X3500000Y-4800000I-50000J0D01*
G01*
X3500000Y-4800000D02*
G75*
G02*
X3600000Y-4800000I50000J0D01*
G01*
X7400000Y-2000000D02*
X7500000Y-2800000D01*
X3800000Y-4300000D02*
X3800000Y-4400000D01*
X10800000Y-8400000D02*
G75*
G02*
X10700000Y-8400000I-50000J0D01*
G01*
X10700000Y-8400000D02*
G75*
G02*
X10800000Y-8400000I50000J0D01*
G01*
X2400000Y-8100000D02*
G75*
G02*
X2300000Y-8100000I-50000J0D01*
G01*
X2300000Y-8100000D02*
G75*
G02*
X2400000Y-8100000I50000J0D01*
G01*
X2600000Y-6700000D02*
X2600000Y-6500000D01*
X9800000Y-11500000D02*
X10500000Y-11500000D01*
X3600000Y-8400000D02*
G75*
G02*
X3500000Y-8400000I-50000J0D01*
G01*
X3500000Y-8400000D02*
G75*
G02*
X3600000Y-8400000I50000J0D01*
G01*
X3800000Y-1900000D02*
X4500000Y-1900000D01*
X8700000Y-10400000D02*
X8700000Y-9700000D01*
X5700000Y-1900000D02*
X5700000Y-2100000D01*
X11000000Y-4600000D02*
X11000000Y-4400000D01*
X5700000Y-1700000D02*
X5700000Y-1600000D01*
X10500000Y-11600000D02*
X11000000Y-11600000D01*
X5000000Y-2000000D02*
X5100000Y-2800000D01*
X5000000Y-4600000D02*
X5000000Y-4700000D01*
X3600000Y-6600000D02*
G75*
G02*
X3500000Y-6600000I-50000J0D01*
G01*
X3500000Y-6600000D02*
G75*
G02*
X3600000Y-6600000I50000J0D01*
G01*
X8400000Y-5100000D02*
G75*
G02*
X8300000Y-5100000I-50000J0D01*
G01*
X8300000Y-5100000D02*
G75*
G02*
X8400000Y-5100000I50000J0D01*
G01*
X8100000Y-2100000D02*
X8000000Y-2800000D01*
X6800000Y-9700000D02*
X6800000Y-10400000D01*
X5700000Y-8900000D02*
X5600000Y-9700000D01*
X8400000Y-6900000D02*
G75*
G02*
X8300000Y-6900000I-50000J0D01*
G01*
X8300000Y-6900000D02*
G75*
G02*
X8400000Y-6900000I50000J0D01*
G01*
X11100000Y-10400000D02*
X11100000Y-9700000D01*
X9300000Y-1600000D02*
X9800000Y-1600000D01*
X8600000Y-8900000D02*
X8600000Y-8800000D01*
X7200000Y-8100000D02*
G75*
G02*
X7100000Y-8100000I-50000J0D01*
G01*
X7100000Y-8100000D02*
G75*
G02*
X7200000Y-8100000I50000J0D01*
G01*
X8600000Y-6500000D02*
G75*
G02*
X8800000Y-6300000I200000J0D01*
G01*
X4500000Y-6700000D02*
G75*
G02*
X4300000Y-6900000I-200000J0D01*
G01*
X8550000Y-7050000D02*
G75*
G02*
X8450000Y-7050000I-50000J0D01*
G01*
X8450000Y-7050000D02*
G75*
G02*
X8550000Y-7050000I50000J0D01*
G01*
X5300000Y-6300000D02*
G75*
G02*
X5500000Y-6500000I0J-200000D01*
G01*
X2600000Y-11500000D02*
X3300000Y-11500000D01*
X6000000Y-8400000D02*
G75*
G02*
X5900000Y-8400000I-50000J0D01*
G01*
X5900000Y-8400000D02*
G75*
G02*
X6000000Y-8400000I50000J0D01*
G01*
X3800000Y-8900000D02*
X3800000Y-8800000D01*
X9300000Y-11100000D02*
X9200000Y-10400000D01*
X6200000Y-11300000D02*
X6900000Y-11300000D01*
X7400000Y-11300000D02*
X8100000Y-11300000D01*
X8800000Y-6300000D02*
X9100000Y-6300000D01*
X3300000Y-8600000D02*
X3300000Y-7500000D01*
X10000000Y-5900000D02*
G75*
G02*
X9800000Y-5700000I0J200000D01*
G01*
X2100000Y-8600000D02*
X2100000Y-7300000D01*
X9300000Y-1900000D02*
X9300000Y-2100000D01*
X3750000Y-7050000D02*
G75*
G02*
X3650000Y-7050000I-50000J0D01*
G01*
X3650000Y-7050000D02*
G75*
G02*
X3750000Y-7050000I50000J0D01*
G01*
X2600000Y-8500000D02*
X2600000Y-7500000D01*
X7400000Y-8600000D02*
X8100000Y-8600000D01*
X7400000Y-8900000D02*
X7400000Y-8800000D01*
X3300000Y-1700000D02*
X3300000Y-1600000D01*
X5100000Y-3500000D02*
X5000000Y-4300000D01*
X7800000Y-6900000D02*
G75*
G02*
X7600000Y-6700000I0J200000D01*
G01*
X2700000Y-9700000D02*
X2600000Y-8900000D01*
X9600000Y-4800000D02*
G75*
G02*
X9500000Y-4800000I-50000J0D01*
G01*
X9500000Y-4800000D02*
G75*
G02*
X9600000Y-4800000I50000J0D01*
G01*
X2100000Y-8900000D02*
X2000000Y-9700000D01*
X8250000Y-6150000D02*
G75*
G02*
X8150000Y-6150000I-50000J0D01*
G01*
X8150000Y-6150000D02*
G75*
G02*
X8250000Y-6150000I50000J0D01*
G01*
X8800000Y-6900000D02*
G75*
G02*
X8600000Y-6700000I0J200000D01*
G01*
X2100000Y-8800000D02*
X2100000Y-8600000D01*
X3800000Y-8500000D02*
X3800000Y-7500000D01*
X9900000Y-9700000D02*
X9800000Y-8900000D01*
X9600000Y-6900000D02*
G75*
G02*
X9500000Y-6900000I-50000J0D01*
G01*
X9500000Y-6900000D02*
G75*
G02*
X9600000Y-6900000I50000J0D01*
G01*
X9800000Y-4700000D02*
X9800000Y-5700000D01*
X9800000Y-11100000D02*
X9900000Y-10400000D01*
X4800000Y-6900000D02*
G75*
G02*
X4700000Y-6900000I-50000J0D01*
G01*
X4700000Y-6900000D02*
G75*
G02*
X4800000Y-6900000I50000J0D01*
G01*
X3800000Y-1600000D02*
X3800000Y-1700000D01*
X10800000Y-7800000D02*
G75*
G02*
X10700000Y-7800000I-50000J0D01*
G01*
X10700000Y-7800000D02*
G75*
G02*
X10800000Y-7800000I50000J0D01*
G01*
X4500000Y-11600000D02*
X5000000Y-11600000D01*
X6000000Y-8100000D02*
G75*
G02*
X5900000Y-8100000I-50000J0D01*
G01*
X5900000Y-8100000D02*
G75*
G02*
X6000000Y-8100000I50000J0D01*
G01*
X10300000Y-6300000D02*
G75*
G02*
X10500000Y-6500000I0J-200000D01*
G01*
X6800000Y-3500000D02*
X6800000Y-2800000D01*
X2100000Y-11300000D02*
X2100000Y-11100000D01*
X2100000Y-1900000D02*
X2100000Y-1700000D01*
X3100000Y-7300000D02*
G75*
G02*
X3300000Y-7500000I0J-200000D01*
G01*
X2550000Y-6150000D02*
G75*
G02*
X2450000Y-6150000I-50000J0D01*
G01*
X2450000Y-6150000D02*
G75*
G02*
X2550000Y-6150000I50000J0D01*
G01*
X9300000Y-4600000D02*
X9300000Y-5700000D01*
X6900000Y-8900000D02*
X6800000Y-9700000D01*
X6000000Y-7800000D02*
G75*
G02*
X5900000Y-7800000I-50000J0D01*
G01*
X5900000Y-7800000D02*
G75*
G02*
X6000000Y-7800000I50000J0D01*
G01*
X7400000Y-11100000D02*
X7500000Y-10400000D01*
X9450000Y-6150000D02*
G75*
G02*
X9350000Y-6150000I-50000J0D01*
G01*
X9350000Y-6150000D02*
G75*
G02*
X9450000Y-6150000I50000J0D01*
G01*
X9100000Y-6900000D02*
X8800000Y-6900000D01*
X6200000Y-1700000D02*
X6900000Y-1700000D01*
X7400000Y-8500000D02*
X7400000Y-7500000D01*
X4800000Y-7800000D02*
G75*
G02*
X4700000Y-7800000I-50000J0D01*
G01*
X4700000Y-7800000D02*
G75*
G02*
X4800000Y-7800000I50000J0D01*
G01*
X3300000Y-11600000D02*
X3800000Y-11600000D01*
X8700000Y-2800000D02*
X8700000Y-3500000D01*
X6900000Y-1600000D02*
X7400000Y-1600000D01*
X9300000Y-11500000D02*
X9300000Y-11600000D01*
X5700000Y-11300000D02*
X5700000Y-11100000D01*
X7600000Y-5900000D02*
G75*
G02*
X7400000Y-5700000I0J200000D01*
G01*
X10300000Y-6900000D02*
X10000000Y-6900000D01*
X9100000Y-6300000D02*
G75*
G02*
X9300000Y-6500000I0J-200000D01*
G01*
X8600000Y-1600000D02*
X8600000Y-1700000D01*
X4500000Y-11100000D02*
X4400000Y-10400000D01*
X9300000Y-8900000D02*
X9300000Y-8800000D01*
X10800000Y-5100000D02*
G75*
G02*
X10700000Y-5100000I-50000J0D01*
G01*
X10700000Y-5100000D02*
G75*
G02*
X10800000Y-5100000I50000J0D01*
G01*
X3300000Y-4300000D02*
X3300000Y-4400000D01*
X5000000Y-4300000D02*
X5000000Y-4400000D01*
X5000000Y-4400000D02*
X5700000Y-4400000D01*
X10500000Y-4300000D02*
X10500000Y-4400000D01*
X3600000Y-8100000D02*
G75*
G02*
X3500000Y-8100000I-50000J0D01*
G01*
X3500000Y-8100000D02*
G75*
G02*
X3600000Y-8100000I50000J0D01*
G01*
X5000000Y-11600000D02*
X5000000Y-11500000D01*
X3600000Y-7800000D02*
G75*
G02*
X3500000Y-7800000I-50000J0D01*
G01*
X3500000Y-7800000D02*
G75*
G02*
X3600000Y-7800000I50000J0D01*
G01*
X8100000Y-11300000D02*
X8100000Y-11100000D01*
X8000000Y-3500000D02*
X8000000Y-2800000D01*
X10800000Y-6900000D02*
G75*
G02*
X10700000Y-6900000I-50000J0D01*
G01*
X10700000Y-6900000D02*
G75*
G02*
X10800000Y-6900000I50000J0D01*
G01*
X9600000Y-6600000D02*
G75*
G02*
X9500000Y-6600000I-50000J0D01*
G01*
X9500000Y-6600000D02*
G75*
G02*
X9600000Y-6600000I50000J0D01*
G01*
X7400000Y-4700000D02*
X7400000Y-5700000D01*
X2700000Y-10400000D02*
X2700000Y-9700000D01*
X2400000Y-6600000D02*
G75*
G02*
X2300000Y-6600000I-50000J0D01*
G01*
X2300000Y-6600000D02*
G75*
G02*
X2400000Y-6600000I50000J0D01*
G01*
X10500000Y-8900000D02*
X10500000Y-8800000D01*
X4950000Y-7050000D02*
G75*
G02*
X4850000Y-7050000I-50000J0D01*
G01*
X4850000Y-7050000D02*
G75*
G02*
X4950000Y-7050000I50000J0D01*
G01*
X7400000Y-4600000D02*
X7400000Y-4700000D01*
X2400000Y-5400000D02*
G75*
G02*
X2300000Y-5400000I-50000J0D01*
G01*
X2300000Y-5400000D02*
G75*
G02*
X2400000Y-5400000I50000J0D01*
G01*
X9800000Y-6700000D02*
X9800000Y-6500000D01*
X2100000Y-5900000D02*
X2100000Y-7300000D01*
X3600000Y-5700000D02*
G75*
G02*
X3500000Y-5700000I-50000J0D01*
G01*
X3500000Y-5700000D02*
G75*
G02*
X3600000Y-5700000I50000J0D01*
G01*
X9300000Y-5700000D02*
G75*
G02*
X9100000Y-5900000I-200000J0D01*
G01*
X4000000Y-5900000D02*
G75*
G02*
X3800000Y-5700000I0J200000D01*
G01*
X3300000Y-8900000D02*
X3300000Y-8800000D01*
X10800000Y-7500000D02*
G75*
G02*
X10700000Y-7500000I-50000J0D01*
G01*
X10700000Y-7500000D02*
G75*
G02*
X10800000Y-7500000I50000J0D01*
G01*
X4500000Y-11300000D02*
X4500000Y-11100000D01*
X3200000Y-9700000D02*
X3200000Y-10400000D01*
X7400000Y-1900000D02*
X8100000Y-1900000D01*
X7400000Y-4300000D02*
X7400000Y-4400000D01*
X2600000Y-8600000D02*
X3300000Y-8600000D01*
X6900000Y-1700000D02*
X6900000Y-1600000D01*
X11000000Y-1900000D02*
X11000000Y-2000000D01*
X8400000Y-7800000D02*
G75*
G02*
X8300000Y-7800000I-50000J0D01*
G01*
X8300000Y-7800000D02*
G75*
G02*
X8400000Y-7800000I50000J0D01*
G01*
X9300000Y-6500000D02*
X9300000Y-6700000D01*
X6000000Y-4800000D02*
G75*
G02*
X5900000Y-4800000I-50000J0D01*
G01*
X5900000Y-4800000D02*
G75*
G02*
X6000000Y-4800000I50000J0D01*
G01*
X7400000Y-1700000D02*
X8100000Y-1700000D01*
X3900000Y-9700000D02*
X3800000Y-8900000D01*
X9600000Y-6300000D02*
G75*
G02*
X9500000Y-6300000I-50000J0D01*
G01*
X9500000Y-6300000D02*
G75*
G02*
X9600000Y-6300000I50000J0D01*
G01*
X5200000Y-5900000D02*
G75*
G02*
X5000000Y-5700000I0J200000D01*
G01*
X4800000Y-6300000D02*
G75*
G02*
X4700000Y-6300000I-50000J0D01*
G01*
X4700000Y-6300000D02*
G75*
G02*
X4800000Y-6300000I50000J0D01*
G01*
X10500000Y-6500000D02*
X10500000Y-6700000D01*
X8100000Y-4300000D02*
X8000000Y-3500000D01*
X8600000Y-1900000D02*
X9300000Y-1900000D01*
X5000000Y-8500000D02*
X5000000Y-7500000D01*
X6900000Y-4300000D02*
X6900000Y-4400000D01*
X11000000Y-7300000D02*
X11000000Y-5900000D01*
X5100000Y-10400000D02*
X5100000Y-9700000D01*
X9200000Y-9700000D02*
X9200000Y-10400000D01*
X4800000Y-5400000D02*
G75*
G02*
X4700000Y-5400000I-50000J0D01*
G01*
X4700000Y-5400000D02*
G75*
G02*
X4800000Y-5400000I50000J0D01*
G01*
X7600000Y-6700000D02*
X7600000Y-6500000D01*
X10800000Y-4800000D02*
G75*
G02*
X10700000Y-4800000I-50000J0D01*
G01*
X10700000Y-4800000D02*
G75*
G02*
X10800000Y-4800000I50000J0D01*
G01*
X5700000Y-8600000D02*
X5700000Y-7500000D01*
X8800000Y-5900000D02*
G75*
G02*
X8600000Y-5700000I0J200000D01*
G01*
X2100000Y-1600000D02*
X2600000Y-1600000D01*
X4000000Y-6300000D02*
X4300000Y-6300000D01*
X2100000Y-1900000D02*
X2100000Y-2100000D01*
X9300000Y-2100000D02*
X9200000Y-2800000D01*
X4500000Y-1700000D02*
X4500000Y-1600000D01*
X7400000Y-1900000D02*
X7400000Y-2000000D01*
X7900000Y-7300000D02*
G75*
G02*
X8100000Y-7500000I0J-200000D01*
G01*
X5700000Y-11100000D02*
X5600000Y-10400000D01*
X9800000Y-1700000D02*
X10500000Y-1700000D01*
X6200000Y-1900000D02*
X6900000Y-1900000D01*
X6400000Y-5900000D02*
G75*
G02*
X6200000Y-5700000I0J200000D01*
G01*
X4000000Y-6900000D02*
G75*
G02*
X3800000Y-6700000I0J200000D01*
G01*
X2600000Y-11100000D02*
X2700000Y-10400000D01*
X8800000Y-5900000D02*
X9100000Y-5900000D01*
X2100000Y-4300000D02*
X2000000Y-3500000D01*
X3800000Y-11500000D02*
X4500000Y-11500000D01*
X8100000Y-1900000D02*
X8100000Y-2100000D01*
X9300000Y-1700000D02*
X9300000Y-1600000D01*
X5700000Y-8900000D02*
X5700000Y-8800000D01*
X2600000Y-7500000D02*
G75*
G02*
X2800000Y-7300000I200000J0D01*
G01*
X6200000Y-2000000D02*
X6300000Y-2800000D01*
X4500000Y-11500000D02*
X4500000Y-11600000D01*
X9800000Y-6500000D02*
G75*
G02*
X10000000Y-6300000I200000J0D01*
G01*
X5700000Y-4600000D02*
X5700000Y-5700000D01*
X9300000Y-8600000D02*
X9300000Y-7500000D01*
X10800000Y-5400000D02*
G75*
G02*
X10700000Y-5400000I-50000J0D01*
G01*
X10700000Y-5400000D02*
G75*
G02*
X10800000Y-5400000I50000J0D01*
G01*
X3300000Y-6500000D02*
X3300000Y-6700000D01*
X5000000Y-11500000D02*
X5700000Y-11500000D01*
X10500000Y-2100000D02*
X10400000Y-2800000D01*
X2000000Y-9700000D02*
X2000000Y-10400000D01*
X4950000Y-6150000D02*
G75*
G02*
X4850000Y-6150000I-50000J0D01*
G01*
X4850000Y-6150000D02*
G75*
G02*
X4950000Y-6150000I50000J0D01*
G01*
X2600000Y-4600000D02*
X3300000Y-4600000D01*
X8100000Y-5700000D02*
G75*
G02*
X7900000Y-5900000I-200000J0D01*
G01*
X4500000Y-1600000D02*
X5000000Y-1600000D01*
X7200000Y-5100000D02*
G75*
G02*
X7100000Y-5100000I-50000J0D01*
G01*
X7100000Y-5100000D02*
G75*
G02*
X7200000Y-5100000I50000J0D01*
G01*
X5700000Y-4300000D02*
X5700000Y-4400000D01*
X9750000Y-7050000D02*
G75*
G02*
X9650000Y-7050000I-50000J0D01*
G01*
X9650000Y-7050000D02*
G75*
G02*
X9750000Y-7050000I50000J0D01*
G01*
X10000000Y-6900000D02*
G75*
G02*
X9800000Y-6700000I0J200000D01*
G01*
X5700000Y-5700000D02*
G75*
G02*
X5500000Y-5900000I-200000J0D01*
G01*
X4500000Y-4300000D02*
X4500000Y-4400000D01*
X8600000Y-4600000D02*
X8600000Y-4700000D01*
X9600000Y-7500000D02*
G75*
G02*
X9500000Y-7500000I-50000J0D01*
G01*
X9500000Y-7500000D02*
G75*
G02*
X9600000Y-7500000I50000J0D01*
G01*
X9800000Y-1900000D02*
X9800000Y-2000000D01*
X3600000Y-5400000D02*
G75*
G02*
X3500000Y-5400000I-50000J0D01*
G01*
X3500000Y-5400000D02*
G75*
G02*
X3600000Y-5400000I50000J0D01*
G01*
X2600000Y-11600000D02*
X2600000Y-11500000D01*
X10650000Y-7050000D02*
G75*
G02*
X10550000Y-7050000I-50000J0D01*
G01*
X10550000Y-7050000D02*
G75*
G02*
X10650000Y-7050000I50000J0D01*
G01*
X3800000Y-11300000D02*
X3800000Y-11100000D01*
X7200000Y-7500000D02*
G75*
G02*
X7100000Y-7500000I-50000J0D01*
G01*
X7100000Y-7500000D02*
G75*
G02*
X7200000Y-7500000I50000J0D01*
G01*
X6200000Y-8500000D02*
X6200000Y-7500000D01*
X2800000Y-6900000D02*
G75*
G02*
X2600000Y-6700000I0J200000D01*
G01*
X8600000Y-8600000D02*
X8600000Y-8500000D01*
X2400000Y-7500000D02*
G75*
G02*
X2300000Y-7500000I-50000J0D01*
G01*
X2300000Y-7500000D02*
G75*
G02*
X2400000Y-7500000I50000J0D01*
G01*
X10800000Y-6300000D02*
G75*
G02*
X10700000Y-6300000I-50000J0D01*
G01*
X10700000Y-6300000D02*
G75*
G02*
X10800000Y-6300000I50000J0D01*
G01*
X2600000Y-11300000D02*
X2600000Y-11100000D01*
X9800000Y-8800000D02*
X10500000Y-8800000D01*
X6200000Y-4400000D02*
X6900000Y-4400000D01*
X9600000Y-8100000D02*
G75*
G02*
X9500000Y-8100000I-50000J0D01*
G01*
X9500000Y-8100000D02*
G75*
G02*
X9600000Y-8100000I50000J0D01*
G01*
X2400000Y-6900000D02*
G75*
G02*
X2300000Y-6900000I-50000J0D01*
G01*
X2300000Y-6900000D02*
G75*
G02*
X2400000Y-6900000I50000J0D01*
G01*
X2100000Y-4400000D02*
X2100000Y-4600000D01*
X9300000Y-8900000D02*
X9200000Y-9700000D01*
X3800000Y-11100000D02*
X3900000Y-10400000D01*
X2250000Y-6150000D02*
G75*
G02*
X2150000Y-6150000I-50000J0D01*
G01*
X2150000Y-6150000D02*
G75*
G02*
X2250000Y-6150000I50000J0D01*
G01*
X2600000Y-2000000D02*
X2700000Y-2800000D01*
X2800000Y-7300000D02*
X3100000Y-7300000D01*
X10500000Y-8900000D02*
X10400000Y-9700000D01*
X2600000Y-11300000D02*
X3300000Y-11300000D01*
X2550000Y-7050000D02*
G75*
G02*
X2450000Y-7050000I-50000J0D01*
G01*
X2450000Y-7050000D02*
G75*
G02*
X2550000Y-7050000I50000J0D01*
G01*
X8600000Y-8600000D02*
X9300000Y-8600000D01*
X5700000Y-11500000D02*
X5700000Y-11600000D01*
X6000000Y-7500000D02*
G75*
G02*
X5900000Y-7500000I-50000J0D01*
G01*
X5900000Y-7500000D02*
G75*
G02*
X6000000Y-7500000I50000J0D01*
G01*
X2400000Y-5700000D02*
G75*
G02*
X2300000Y-5700000I-50000J0D01*
G01*
X2300000Y-5700000D02*
G75*
G02*
X2400000Y-5700000I50000J0D01*
G01*
D11*
X2258872Y-11913389D02*
X2258872Y-11713389D01*
X2258872Y-11713389D02*
X2306491Y-11713389D01*
X2306491Y-11713389D02*
X2335062Y-11722913D01*
X2335062Y-11722913D02*
X2354110Y-11741960D01*
X2354110Y-11741960D02*
X2363634Y-11761008D01*
X2363634Y-11761008D02*
X2373158Y-11799103D01*
X2373158Y-11799103D02*
X2373158Y-11827674D01*
X2373158Y-11827674D02*
X2363634Y-11865770D01*
X2363634Y-11865770D02*
X2354110Y-11884817D01*
X2354110Y-11884817D02*
X2335062Y-11903865D01*
X2335062Y-11903865D02*
X2306491Y-11913389D01*
X2306491Y-11913389D02*
X2258872Y-11913389D01*
X2458872Y-11913389D02*
X2458872Y-11780055D01*
X2458872Y-11818151D02*
X2468396Y-11799103D01*
X2468396Y-11799103D02*
X2477919Y-11789579D01*
X2477919Y-11789579D02*
X2496967Y-11780055D01*
X2496967Y-11780055D02*
X2516015Y-11780055D01*
X2582681Y-11913389D02*
X2582681Y-11780055D01*
X2582681Y-11713389D02*
X2573158Y-11722913D01*
X2573158Y-11722913D02*
X2582681Y-11732436D01*
X2582681Y-11732436D02*
X2592205Y-11722913D01*
X2592205Y-11722913D02*
X2582681Y-11713389D01*
X2582681Y-11713389D02*
X2582681Y-11732436D01*
X2706491Y-11913389D02*
X2687443Y-11903865D01*
X2687443Y-11903865D02*
X2677919Y-11884817D01*
X2677919Y-11884817D02*
X2677919Y-11713389D01*
X2811253Y-11913389D02*
X2792205Y-11903865D01*
X2792205Y-11903865D02*
X2782681Y-11884817D01*
X2782681Y-11884817D02*
X2782681Y-11713389D01*
X3039824Y-11913389D02*
X3039824Y-11713389D01*
X3039824Y-11713389D02*
X3106491Y-11856246D01*
X3106491Y-11856246D02*
X3173157Y-11713389D01*
X3173157Y-11713389D02*
X3173157Y-11913389D01*
X3354110Y-11913389D02*
X3354110Y-11808627D01*
X3354110Y-11808627D02*
X3344586Y-11789579D01*
X3344586Y-11789579D02*
X3325538Y-11780055D01*
X3325538Y-11780055D02*
X3287443Y-11780055D01*
X3287443Y-11780055D02*
X3268396Y-11789579D01*
X3354110Y-11903865D02*
X3335062Y-11913389D01*
X3335062Y-11913389D02*
X3287443Y-11913389D01*
X3287443Y-11913389D02*
X3268396Y-11903865D01*
X3268396Y-11903865D02*
X3258872Y-11884817D01*
X3258872Y-11884817D02*
X3258872Y-11865770D01*
X3258872Y-11865770D02*
X3268396Y-11846722D01*
X3268396Y-11846722D02*
X3287443Y-11837198D01*
X3287443Y-11837198D02*
X3335062Y-11837198D01*
X3335062Y-11837198D02*
X3354110Y-11827674D01*
X3449348Y-11780055D02*
X3449348Y-11980055D01*
X3449348Y-11789579D02*
X3468396Y-11780055D01*
X3468396Y-11780055D02*
X3506491Y-11780055D01*
X3506491Y-11780055D02*
X3525538Y-11789579D01*
X3525538Y-11789579D02*
X3535062Y-11799103D01*
X3535062Y-11799103D02*
X3544586Y-11818151D01*
X3544586Y-11818151D02*
X3544586Y-11875293D01*
X3544586Y-11875293D02*
X3535062Y-11894341D01*
X3535062Y-11894341D02*
X3525538Y-11903865D01*
X3525538Y-11903865D02*
X3506491Y-11913389D01*
X3506491Y-11913389D02*
X3468396Y-11913389D01*
X3468396Y-11913389D02*
X3449348Y-11903865D01*
X3630300Y-11894341D02*
X3639824Y-11903865D01*
X3639824Y-11903865D02*
X3630300Y-11913389D01*
X3630300Y-11913389D02*
X3620777Y-11903865D01*
X3620777Y-11903865D02*
X3630300Y-11894341D01*
X3630300Y-11894341D02*
X3630300Y-11913389D01*
X3630300Y-11789579D02*
X3639824Y-11799103D01*
X3639824Y-11799103D02*
X3630300Y-11808627D01*
X3630300Y-11808627D02*
X3620777Y-11799103D01*
X3620777Y-11799103D02*
X3630300Y-11789579D01*
X3630300Y-11789579D02*
X3630300Y-11808627D01*
M02*
