M48
; DRILL file {KiCad 9.0.6-9.0.6~ubuntu24.04.1} date 2026-01-03T12:45:56+0000
; FORMAT={-:-/ absolute / inch / decimal}
; #@! TF.CreationDate,2026-01-03T12:45:56+00:00
; #@! TF.GenerationSoftware,Kicad,Pcbnew,9.0.6-9.0.6~ubuntu24.04.1
; #@! TF.FileFunction,Plated,1,4,PTH
FMAT,2
INCH
; #@! TA.AperFunction,Plated,PTH,ComponentDrill
T1C0.0394
%
G90
G05
T1
X4.7181Y-3.4807
X4.7181Y-3.5807
X4.7181Y-3.6807
X4.7181Y-3.7807
X4.7181Y-3.8807
X4.7181Y-3.9807
X4.7181Y-4.0807
X4.7181Y-4.1807
X4.7181Y-4.2807
X4.7181Y-4.3807
X4.7181Y-4.4807
X4.7181Y-4.5807
X4.7181Y-4.6807
X4.7181Y-4.7807
X4.7181Y-4.8807
X4.7181Y-4.9807
X4.7181Y-5.0807
X4.7181Y-5.1807
X5.5181Y-3.4807
X5.5181Y-3.5807
X5.5181Y-3.6807
X5.5181Y-3.7807
X5.5181Y-3.8807
X5.5181Y-3.9807
X5.5181Y-4.0807
X5.5181Y-4.1807
X5.5181Y-4.2807
X5.5181Y-4.3807
X5.5181Y-4.4807
X5.5181Y-4.5807
X5.5181Y-4.6807
X5.5181Y-4.7807
X5.5181Y-4.8807
X5.5181Y-4.9807
X5.5181Y-5.0807
X5.5181Y-5.1807
M30
