%TF.GenerationSoftware,KiCad,Pcbnew,9.0.6-9.0.6~ubuntu24.04.1*%
%TF.CreationDate,2026-01-03T12:45:56+00:00*%
%TF.ProjectId,BUS_CONN,4255535f-434f-44e4-9e2e-6b696361645f,rev?*%
%TF.SameCoordinates,Original*%
%TF.FileFunction,Copper,L4,Bot*%
%TF.FilePolarity,Positive*%
%FSLAX46Y46*%
G04 Gerber Fmt 4.6, Leading zero omitted, Abs format (unit mm)*
G04 Created by KiCad (PCBNEW 9.0.6-9.0.6~ubuntu24.04.1) date 2026-01-03 12:45:56*
%MOMM*%
%LPD*%
G01*
G04 APERTURE LIST*
%TA.AperFunction,ComponentPad*%
%ADD10R,1.700000X1.700000*%
%TD*%
G04 APERTURE END LIST*
D10*
%TO.P,TP15,1,1*%
%TO.N,Net-(JP15-A)*%
X140160000Y-123970000D03*
%TD*%
%TO.P,TP19,1,1*%
%TO.N,Net-(JP1-B)*%
X119840000Y-88410000D03*
%TD*%
%TO.P,TP12,1,1*%
%TO.N,Net-(JP12-A)*%
X140160000Y-116350000D03*
%TD*%
%TO.P,TP7,1,1*%
%TO.N,Net-(JP7-A)*%
X140160000Y-103650000D03*
%TD*%
%TO.P,TP31,1,1*%
%TO.N,Net-(JP13-B)*%
X119840000Y-118890000D03*
%TD*%
%TO.P,TP10,1,1*%
%TO.N,Net-(JP10-A)*%
X140160000Y-111270000D03*
%TD*%
%TO.P,TP35,1,1*%
%TO.N,Net-(JP17-B)*%
X119840000Y-129050000D03*
%TD*%
%TO.P,TP11,1,1*%
%TO.N,Net-(JP11-A)*%
X140160000Y-113810000D03*
%TD*%
%TO.P,TP33,1,1*%
%TO.N,Net-(JP15-B)*%
X119840000Y-123970000D03*
%TD*%
%TO.P,TP5,1,1*%
%TO.N,Net-(JP5-A)*%
X140160000Y-98570000D03*
%TD*%
%TO.P,TP13,1,1*%
%TO.N,Net-(JP13-A)*%
X140160000Y-118890000D03*
%TD*%
%TO.P,TP28,1,1*%
%TO.N,Net-(JP10-B)*%
X119840000Y-111270000D03*
%TD*%
%TO.P,TP16,1,1*%
%TO.N,Net-(JP16-A)*%
X140160000Y-126510000D03*
%TD*%
%TO.P,TP1,1,1*%
%TO.N,Net-(JP1-A)*%
X140160000Y-88410000D03*
%TD*%
%TO.P,TP20,1,1*%
%TO.N,Net-(JP2-B)*%
X119840000Y-90950000D03*
%TD*%
%TO.P,TP26,1,1*%
%TO.N,Net-(JP8-B)*%
X119840000Y-106190000D03*
%TD*%
%TO.P,TP25,1,1*%
%TO.N,Net-(JP7-B)*%
X119840000Y-103650000D03*
%TD*%
%TO.P,TP4,1,1*%
%TO.N,Net-(JP4-A)*%
X140160000Y-96030000D03*
%TD*%
%TO.P,TP34,1,1*%
%TO.N,Net-(JP16-B)*%
X119840000Y-126510000D03*
%TD*%
%TO.P,TP30,1,1*%
%TO.N,Net-(JP12-B)*%
X119840000Y-116350000D03*
%TD*%
%TO.P,TP18,1,1*%
%TO.N,Net-(JP18-A)*%
X140160000Y-131590000D03*
%TD*%
%TO.P,TP23,1,1*%
%TO.N,Net-(JP5-B)*%
X119840000Y-98570000D03*
%TD*%
%TO.P,TP8,1,1*%
%TO.N,Net-(JP8-A)*%
X140160000Y-106190000D03*
%TD*%
%TO.P,TP14,1,1*%
%TO.N,Net-(JP14-A)*%
X140160000Y-121430000D03*
%TD*%
%TO.P,TP36,1,1*%
%TO.N,Net-(JP18-B)*%
X119840000Y-131590000D03*
%TD*%
%TO.P,TP2,1,1*%
%TO.N,Net-(JP2-A)*%
X140160000Y-90950000D03*
%TD*%
%TO.P,TP6,1,1*%
%TO.N,Net-(JP6-A)*%
X140160000Y-101110000D03*
%TD*%
%TO.P,TP22,1,1*%
%TO.N,Net-(JP4-B)*%
X119840000Y-96030000D03*
%TD*%
%TO.P,TP32,1,1*%
%TO.N,Net-(JP14-B)*%
X119840000Y-121430000D03*
%TD*%
%TO.P,TP29,1,1*%
%TO.N,Net-(JP11-B)*%
X119840000Y-113810000D03*
%TD*%
%TO.P,TP21,1,1*%
%TO.N,Net-(JP3-B)*%
X119840000Y-93490000D03*
%TD*%
%TO.P,TP24,1,1*%
%TO.N,Net-(JP6-B)*%
X119840000Y-101110000D03*
%TD*%
%TO.P,TP27,1,1*%
%TO.N,Net-(JP9-B)*%
X119840000Y-108730000D03*
%TD*%
%TO.P,TP17,1,1*%
%TO.N,Net-(JP17-A)*%
X140160000Y-129050000D03*
%TD*%
%TO.P,TP9,1,1*%
%TO.N,Net-(JP9-A)*%
X140160000Y-108730000D03*
%TD*%
%TO.P,TP3,1,1*%
%TO.N,Net-(JP3-A)*%
X140160000Y-93490000D03*
%TD*%
%TA.AperFunction,NonConductor*%
G36*
X150002611Y-85010608D02*
G01*
X150406838Y-85027327D01*
X150417187Y-85028184D01*
X150816076Y-85077905D01*
X150826340Y-85079618D01*
X151219758Y-85162109D01*
X151229821Y-85164657D01*
X151615115Y-85279364D01*
X151624939Y-85282737D01*
X151999400Y-85428853D01*
X152008937Y-85433036D01*
X152370052Y-85609574D01*
X152379210Y-85614530D01*
X152724522Y-85820291D01*
X152733233Y-85825982D01*
X152863127Y-85918724D01*
X153060377Y-86059558D01*
X153068595Y-86065955D01*
X153375323Y-86325741D01*
X153382984Y-86332794D01*
X153667205Y-86617015D01*
X153674258Y-86624676D01*
X153934044Y-86931404D01*
X153940441Y-86939622D01*
X154174012Y-87266758D01*
X154179708Y-87275477D01*
X154385469Y-87620789D01*
X154390425Y-87629947D01*
X154566963Y-87991062D01*
X154571146Y-88000599D01*
X154717257Y-88375048D01*
X154720639Y-88384897D01*
X154835338Y-88770162D01*
X154837894Y-88780258D01*
X154920380Y-89173655D01*
X154922094Y-89183927D01*
X154971813Y-89582798D01*
X154972673Y-89593176D01*
X154989392Y-89997388D01*
X154989500Y-90002595D01*
X154989500Y-129997404D01*
X154989392Y-130002611D01*
X154972673Y-130406823D01*
X154971813Y-130417201D01*
X154922094Y-130816072D01*
X154920380Y-130826344D01*
X154837894Y-131219741D01*
X154835338Y-131229837D01*
X154720639Y-131615102D01*
X154717257Y-131624951D01*
X154571146Y-131999400D01*
X154566963Y-132008937D01*
X154390425Y-132370052D01*
X154385469Y-132379210D01*
X154179708Y-132724522D01*
X154174012Y-132733241D01*
X153940441Y-133060377D01*
X153934044Y-133068595D01*
X153674258Y-133375323D01*
X153667205Y-133382984D01*
X153382984Y-133667205D01*
X153375323Y-133674258D01*
X153068595Y-133934044D01*
X153060377Y-133940441D01*
X152733241Y-134174012D01*
X152724522Y-134179708D01*
X152379210Y-134385469D01*
X152370052Y-134390425D01*
X152008937Y-134566963D01*
X151999400Y-134571146D01*
X151624951Y-134717257D01*
X151615102Y-134720639D01*
X151229837Y-134835338D01*
X151219741Y-134837894D01*
X150826344Y-134920380D01*
X150816072Y-134922094D01*
X150417201Y-134971813D01*
X150406823Y-134972673D01*
X150002611Y-134989392D01*
X149997404Y-134989500D01*
X110002596Y-134989500D01*
X109997389Y-134989392D01*
X109593176Y-134972673D01*
X109582798Y-134971813D01*
X109183927Y-134922094D01*
X109173655Y-134920380D01*
X108780258Y-134837894D01*
X108770162Y-134835338D01*
X108384897Y-134720639D01*
X108375048Y-134717257D01*
X108000599Y-134571146D01*
X107991062Y-134566963D01*
X107629947Y-134390425D01*
X107620789Y-134385469D01*
X107275477Y-134179708D01*
X107266758Y-134174012D01*
X106939622Y-133940441D01*
X106931404Y-133934044D01*
X106624676Y-133674258D01*
X106617015Y-133667205D01*
X106332794Y-133382984D01*
X106325741Y-133375323D01*
X106065955Y-133068595D01*
X106059558Y-133060377D01*
X105975031Y-132941990D01*
X105825982Y-132733233D01*
X105820291Y-132724522D01*
X105614530Y-132379210D01*
X105609574Y-132370052D01*
X105433036Y-132008937D01*
X105428853Y-131999400D01*
X105393145Y-131907888D01*
X105282737Y-131624939D01*
X105279364Y-131615115D01*
X105164657Y-131229821D01*
X105162109Y-131219758D01*
X105079618Y-130826340D01*
X105077905Y-130816072D01*
X105062360Y-130691362D01*
X105028184Y-130417187D01*
X105027327Y-130406838D01*
X105010608Y-130002611D01*
X105010500Y-129997404D01*
X105010500Y-129868222D01*
X107989500Y-129868222D01*
X107989500Y-130131777D01*
X108023898Y-130393064D01*
X108027585Y-130406823D01*
X108092112Y-130647641D01*
X108192968Y-130891129D01*
X108192969Y-130891130D01*
X108192974Y-130891141D01*
X108324740Y-131119367D01*
X108324744Y-131119373D01*
X108485175Y-131328450D01*
X108485194Y-131328471D01*
X108671528Y-131514805D01*
X108671549Y-131514824D01*
X108880626Y-131675255D01*
X108880632Y-131675259D01*
X109108858Y-131807025D01*
X109108862Y-131807026D01*
X109108871Y-131807032D01*
X109352359Y-131907888D01*
X109606929Y-131976100D01*
X109606933Y-131976100D01*
X109606935Y-131976101D01*
X109674278Y-131984966D01*
X109868225Y-132010500D01*
X109868232Y-132010500D01*
X110131768Y-132010500D01*
X110131775Y-132010500D01*
X110367920Y-131979411D01*
X110393064Y-131976101D01*
X110393064Y-131976100D01*
X110393071Y-131976100D01*
X110647641Y-131907888D01*
X110891129Y-131807032D01*
X111119371Y-131675257D01*
X111328459Y-131514817D01*
X111514817Y-131328459D01*
X111675257Y-131119371D01*
X111807032Y-130891129D01*
X111907888Y-130647641D01*
X111976100Y-130393071D01*
X112010500Y-130131775D01*
X112010500Y-129868225D01*
X111976100Y-129606929D01*
X111907888Y-129352359D01*
X111807032Y-129108871D01*
X111807026Y-129108862D01*
X111807025Y-129108858D01*
X111675259Y-128880632D01*
X111675255Y-128880626D01*
X111514824Y-128671549D01*
X111514805Y-128671528D01*
X111328471Y-128485194D01*
X111328450Y-128485175D01*
X111119373Y-128324744D01*
X111119367Y-128324740D01*
X110891141Y-128192974D01*
X110891133Y-128192970D01*
X110891129Y-128192968D01*
X110647641Y-128092112D01*
X110393071Y-128023900D01*
X110393064Y-128023898D01*
X110131777Y-127989500D01*
X110131775Y-127989500D01*
X109868225Y-127989500D01*
X109868222Y-127989500D01*
X109606935Y-128023898D01*
X109352363Y-128092111D01*
X109352359Y-128092112D01*
X109108869Y-128192969D01*
X109108858Y-128192974D01*
X108880632Y-128324740D01*
X108880626Y-128324744D01*
X108671549Y-128485175D01*
X108671528Y-128485194D01*
X108485194Y-128671528D01*
X108485175Y-128671549D01*
X108324744Y-128880626D01*
X108324740Y-128880632D01*
X108192974Y-129108858D01*
X108192969Y-129108869D01*
X108192968Y-129108871D01*
X108092112Y-129352359D01*
X108092111Y-129352363D01*
X108023898Y-129606935D01*
X107989500Y-129868222D01*
X105010500Y-129868222D01*
X105010500Y-90002595D01*
X105010608Y-89997388D01*
X105015950Y-89868222D01*
X107989500Y-89868222D01*
X107989500Y-90131777D01*
X108023898Y-90393064D01*
X108023900Y-90393071D01*
X108092112Y-90647641D01*
X108192968Y-90891129D01*
X108192969Y-90891130D01*
X108192974Y-90891141D01*
X108324740Y-91119367D01*
X108324744Y-91119373D01*
X108485175Y-91328450D01*
X108485194Y-91328471D01*
X108671528Y-91514805D01*
X108671549Y-91514824D01*
X108880626Y-91675255D01*
X108880632Y-91675259D01*
X109108858Y-91807025D01*
X109108862Y-91807026D01*
X109108871Y-91807032D01*
X109352359Y-91907888D01*
X109606929Y-91976100D01*
X109606933Y-91976100D01*
X109606935Y-91976101D01*
X109674278Y-91984966D01*
X109868225Y-92010500D01*
X109868232Y-92010500D01*
X110131768Y-92010500D01*
X110131775Y-92010500D01*
X110367920Y-91979411D01*
X110393064Y-91976101D01*
X110393064Y-91976100D01*
X110393071Y-91976100D01*
X110647641Y-91907888D01*
X110891129Y-91807032D01*
X111119371Y-91675257D01*
X111328459Y-91514817D01*
X111514817Y-91328459D01*
X111675257Y-91119371D01*
X111807032Y-90891129D01*
X111907888Y-90647641D01*
X111976100Y-90393071D01*
X112010500Y-90131775D01*
X112010500Y-89868225D01*
X111976750Y-89611868D01*
X111976101Y-89606935D01*
X111976100Y-89606933D01*
X111976100Y-89606929D01*
X111907888Y-89352359D01*
X111807032Y-89108871D01*
X111807026Y-89108862D01*
X111807025Y-89108858D01*
X111675259Y-88880632D01*
X111675255Y-88880626D01*
X111514824Y-88671549D01*
X111514805Y-88671528D01*
X111328471Y-88485194D01*
X111328450Y-88485175D01*
X111119373Y-88324744D01*
X111119367Y-88324740D01*
X110891141Y-88192974D01*
X110891133Y-88192970D01*
X110891129Y-88192968D01*
X110647641Y-88092112D01*
X110393071Y-88023900D01*
X110393064Y-88023898D01*
X110131777Y-87989500D01*
X110131775Y-87989500D01*
X109868225Y-87989500D01*
X109868222Y-87989500D01*
X109606935Y-88023898D01*
X109352363Y-88092111D01*
X109352359Y-88092112D01*
X109108869Y-88192969D01*
X109108858Y-88192974D01*
X108880632Y-88324740D01*
X108880626Y-88324744D01*
X108671549Y-88485175D01*
X108671528Y-88485194D01*
X108485194Y-88671528D01*
X108485175Y-88671549D01*
X108324744Y-88880626D01*
X108324740Y-88880632D01*
X108192974Y-89108858D01*
X108192969Y-89108869D01*
X108192968Y-89108871D01*
X108166134Y-89173655D01*
X108092112Y-89352359D01*
X108092111Y-89352363D01*
X108023898Y-89606935D01*
X107989500Y-89868222D01*
X105015950Y-89868222D01*
X105016336Y-89858893D01*
X105016547Y-89853792D01*
X105027327Y-89593159D01*
X105028184Y-89582814D01*
X105077906Y-89183919D01*
X105079619Y-89173655D01*
X105162110Y-88780235D01*
X105164655Y-88770184D01*
X105279366Y-88384877D01*
X105282735Y-88375068D01*
X105428856Y-88000590D01*
X105433036Y-87991062D01*
X105527651Y-87797524D01*
X105609580Y-87629934D01*
X105614522Y-87620801D01*
X105679741Y-87511350D01*
X118481500Y-87511350D01*
X118481500Y-89308649D01*
X118488009Y-89369196D01*
X118488011Y-89369204D01*
X118539110Y-89506202D01*
X118539112Y-89506207D01*
X118612687Y-89604491D01*
X118637498Y-89671011D01*
X118622407Y-89740385D01*
X118612687Y-89755509D01*
X118539112Y-89853792D01*
X118539110Y-89853797D01*
X118488011Y-89990795D01*
X118488009Y-89990803D01*
X118481500Y-90051350D01*
X118481500Y-91848649D01*
X118488009Y-91909196D01*
X118488011Y-91909204D01*
X118539110Y-92046202D01*
X118539112Y-92046207D01*
X118612687Y-92144491D01*
X118637498Y-92211011D01*
X118622407Y-92280385D01*
X118612687Y-92295509D01*
X118539112Y-92393792D01*
X118539110Y-92393797D01*
X118488011Y-92530795D01*
X118488009Y-92530803D01*
X118481500Y-92591350D01*
X118481500Y-94388649D01*
X118488009Y-94449196D01*
X118488011Y-94449204D01*
X118539110Y-94586202D01*
X118539112Y-94586207D01*
X118612687Y-94684491D01*
X118637498Y-94751011D01*
X118622407Y-94820385D01*
X118612687Y-94835509D01*
X118539112Y-94933792D01*
X118539110Y-94933797D01*
X118488011Y-95070795D01*
X118488009Y-95070803D01*
X118481500Y-95131350D01*
X118481500Y-96928649D01*
X118488009Y-96989196D01*
X118488011Y-96989204D01*
X118539110Y-97126202D01*
X118539112Y-97126207D01*
X118612687Y-97224491D01*
X118637498Y-97291011D01*
X118622407Y-97360385D01*
X118612687Y-97375509D01*
X118539112Y-97473792D01*
X118539110Y-97473797D01*
X118488011Y-97610795D01*
X118488009Y-97610803D01*
X118481500Y-97671350D01*
X118481500Y-99468649D01*
X118488009Y-99529196D01*
X118488011Y-99529204D01*
X118539110Y-99666202D01*
X118539112Y-99666207D01*
X118612687Y-99764491D01*
X118637498Y-99831011D01*
X118622407Y-99900385D01*
X118612687Y-99915509D01*
X118539112Y-100013792D01*
X118539110Y-100013797D01*
X118488011Y-100150795D01*
X118488009Y-100150803D01*
X118481500Y-100211350D01*
X118481500Y-102008649D01*
X118488009Y-102069196D01*
X118488011Y-102069204D01*
X118539110Y-102206202D01*
X118539112Y-102206207D01*
X118612687Y-102304491D01*
X118637498Y-102371011D01*
X118622407Y-102440385D01*
X118612687Y-102455509D01*
X118539112Y-102553792D01*
X118539110Y-102553797D01*
X118488011Y-102690795D01*
X118488009Y-102690803D01*
X118481500Y-102751350D01*
X118481500Y-104548649D01*
X118488009Y-104609196D01*
X118488011Y-104609204D01*
X118539110Y-104746202D01*
X118539112Y-104746207D01*
X118612687Y-104844491D01*
X118637498Y-104911011D01*
X118622407Y-104980385D01*
X118612687Y-104995509D01*
X118539112Y-105093792D01*
X118539110Y-105093797D01*
X118488011Y-105230795D01*
X118488009Y-105230803D01*
X118481500Y-105291350D01*
X118481500Y-107088649D01*
X118488009Y-107149196D01*
X118488011Y-107149204D01*
X118539110Y-107286202D01*
X118539112Y-107286207D01*
X118612687Y-107384491D01*
X118637498Y-107451011D01*
X118622407Y-107520385D01*
X118612687Y-107535509D01*
X118539112Y-107633792D01*
X118539110Y-107633797D01*
X118488011Y-107770795D01*
X118488009Y-107770803D01*
X118481500Y-107831350D01*
X118481500Y-109628649D01*
X118488009Y-109689196D01*
X118488011Y-109689204D01*
X118539110Y-109826202D01*
X118539112Y-109826207D01*
X118612687Y-109924491D01*
X118637498Y-109991011D01*
X118622407Y-110060385D01*
X118612687Y-110075509D01*
X118539112Y-110173792D01*
X118539110Y-110173797D01*
X118488011Y-110310795D01*
X118488009Y-110310803D01*
X118481500Y-110371350D01*
X118481500Y-112168649D01*
X118488009Y-112229196D01*
X118488011Y-112229204D01*
X118539110Y-112366202D01*
X118539112Y-112366207D01*
X118612687Y-112464491D01*
X118637498Y-112531011D01*
X118622407Y-112600385D01*
X118612687Y-112615509D01*
X118539112Y-112713792D01*
X118539110Y-112713797D01*
X118488011Y-112850795D01*
X118488009Y-112850803D01*
X118481500Y-112911350D01*
X118481500Y-114708649D01*
X118488009Y-114769196D01*
X118488011Y-114769204D01*
X118539110Y-114906202D01*
X118539112Y-114906207D01*
X118612687Y-115004491D01*
X118637498Y-115071011D01*
X118622407Y-115140385D01*
X118612687Y-115155509D01*
X118539112Y-115253792D01*
X118539110Y-115253797D01*
X118488011Y-115390795D01*
X118488009Y-115390803D01*
X118481500Y-115451350D01*
X118481500Y-117248649D01*
X118488009Y-117309196D01*
X118488011Y-117309204D01*
X118539110Y-117446202D01*
X118539112Y-117446207D01*
X118612687Y-117544491D01*
X118637498Y-117611011D01*
X118622407Y-117680385D01*
X118612687Y-117695509D01*
X118539112Y-117793792D01*
X118539110Y-117793797D01*
X118488011Y-117930795D01*
X118488009Y-117930803D01*
X118481500Y-117991350D01*
X118481500Y-119788649D01*
X118488009Y-119849196D01*
X118488011Y-119849204D01*
X118539110Y-119986202D01*
X118539112Y-119986207D01*
X118612687Y-120084491D01*
X118637498Y-120151011D01*
X118622407Y-120220385D01*
X118612687Y-120235509D01*
X118539112Y-120333792D01*
X118539110Y-120333797D01*
X118488011Y-120470795D01*
X118488009Y-120470803D01*
X118481500Y-120531350D01*
X118481500Y-122328649D01*
X118488009Y-122389196D01*
X118488011Y-122389204D01*
X118539110Y-122526202D01*
X118539112Y-122526207D01*
X118612687Y-122624491D01*
X118637498Y-122691011D01*
X118622407Y-122760385D01*
X118612687Y-122775509D01*
X118539112Y-122873792D01*
X118539110Y-122873797D01*
X118488011Y-123010795D01*
X118488009Y-123010803D01*
X118481500Y-123071350D01*
X118481500Y-124868649D01*
X118488009Y-124929196D01*
X118488011Y-124929204D01*
X118539110Y-125066202D01*
X118539112Y-125066207D01*
X118612687Y-125164491D01*
X118637498Y-125231011D01*
X118622407Y-125300385D01*
X118612687Y-125315509D01*
X118539112Y-125413792D01*
X118539110Y-125413797D01*
X118488011Y-125550795D01*
X118488009Y-125550803D01*
X118481500Y-125611350D01*
X118481500Y-127408649D01*
X118488009Y-127469196D01*
X118488011Y-127469204D01*
X118539110Y-127606202D01*
X118539112Y-127606207D01*
X118612687Y-127704491D01*
X118637498Y-127771011D01*
X118622407Y-127840385D01*
X118612687Y-127855509D01*
X118539112Y-127953792D01*
X118539110Y-127953797D01*
X118488011Y-128090795D01*
X118488009Y-128090803D01*
X118481500Y-128151350D01*
X118481500Y-129948649D01*
X118488009Y-130009196D01*
X118488011Y-130009204D01*
X118539110Y-130146202D01*
X118539112Y-130146207D01*
X118612687Y-130244491D01*
X118637498Y-130311011D01*
X118622407Y-130380385D01*
X118612687Y-130395509D01*
X118539112Y-130493792D01*
X118539110Y-130493797D01*
X118488011Y-130630795D01*
X118488009Y-130630803D01*
X118481500Y-130691350D01*
X118481500Y-132488649D01*
X118488009Y-132549196D01*
X118488011Y-132549204D01*
X118539110Y-132686202D01*
X118539112Y-132686207D01*
X118626738Y-132803261D01*
X118743792Y-132890887D01*
X118743794Y-132890888D01*
X118743796Y-132890889D01*
X118802875Y-132912924D01*
X118880795Y-132941988D01*
X118880803Y-132941990D01*
X118941350Y-132948499D01*
X118941355Y-132948499D01*
X118941362Y-132948500D01*
X118941368Y-132948500D01*
X120738632Y-132948500D01*
X120738638Y-132948500D01*
X120738645Y-132948499D01*
X120738649Y-132948499D01*
X120799196Y-132941990D01*
X120799199Y-132941989D01*
X120799201Y-132941989D01*
X120936204Y-132890889D01*
X121053261Y-132803261D01*
X121140887Y-132686207D01*
X121140887Y-132686206D01*
X121140889Y-132686204D01*
X121191989Y-132549201D01*
X121198500Y-132488638D01*
X121198500Y-130691362D01*
X121193800Y-130647640D01*
X121191990Y-130630803D01*
X121191988Y-130630795D01*
X121140889Y-130493797D01*
X121140889Y-130493796D01*
X121140886Y-130493792D01*
X121067311Y-130395507D01*
X121042501Y-130328989D01*
X121057592Y-130259615D01*
X121067306Y-130244497D01*
X121140889Y-130146204D01*
X121191989Y-130009201D01*
X121192698Y-130002611D01*
X121198499Y-129948649D01*
X121198500Y-129948632D01*
X121198500Y-128151367D01*
X121198499Y-128151350D01*
X121191990Y-128090803D01*
X121191988Y-128090795D01*
X121140889Y-127953797D01*
X121140889Y-127953796D01*
X121140886Y-127953792D01*
X121067311Y-127855507D01*
X121042501Y-127788989D01*
X121057592Y-127719615D01*
X121067306Y-127704497D01*
X121140889Y-127606204D01*
X121191989Y-127469201D01*
X121198500Y-127408638D01*
X121198500Y-125611362D01*
X121198499Y-125611350D01*
X121191990Y-125550803D01*
X121191988Y-125550795D01*
X121140889Y-125413797D01*
X121140889Y-125413796D01*
X121140886Y-125413792D01*
X121067311Y-125315507D01*
X121042501Y-125248989D01*
X121057592Y-125179615D01*
X121067306Y-125164497D01*
X121140889Y-125066204D01*
X121191989Y-124929201D01*
X121198500Y-124868638D01*
X121198500Y-123071362D01*
X121198499Y-123071350D01*
X121191990Y-123010803D01*
X121191988Y-123010795D01*
X121140889Y-122873797D01*
X121140889Y-122873796D01*
X121140886Y-122873792D01*
X121067311Y-122775507D01*
X121042501Y-122708989D01*
X121057592Y-122639615D01*
X121067306Y-122624497D01*
X121140889Y-122526204D01*
X121191989Y-122389201D01*
X121198500Y-122328638D01*
X121198500Y-120531362D01*
X121198499Y-120531350D01*
X121191990Y-120470803D01*
X121191988Y-120470795D01*
X121140889Y-120333797D01*
X121140889Y-120333796D01*
X121140886Y-120333792D01*
X121067311Y-120235507D01*
X121042501Y-120168989D01*
X121057592Y-120099615D01*
X121067306Y-120084497D01*
X121140889Y-119986204D01*
X121191989Y-119849201D01*
X121198500Y-119788638D01*
X121198500Y-117991362D01*
X121198499Y-117991350D01*
X121191990Y-117930803D01*
X121191988Y-117930795D01*
X121140889Y-117793797D01*
X121140889Y-117793796D01*
X121140886Y-117793792D01*
X121067311Y-117695507D01*
X121042501Y-117628989D01*
X121057592Y-117559615D01*
X121067306Y-117544497D01*
X121140889Y-117446204D01*
X121191989Y-117309201D01*
X121198500Y-117248638D01*
X121198500Y-115451362D01*
X121198499Y-115451350D01*
X121191990Y-115390803D01*
X121191988Y-115390795D01*
X121140889Y-115253797D01*
X121140889Y-115253796D01*
X121140886Y-115253792D01*
X121067311Y-115155507D01*
X121042501Y-115088989D01*
X121057592Y-115019615D01*
X121067306Y-115004497D01*
X121140889Y-114906204D01*
X121191989Y-114769201D01*
X121198500Y-114708638D01*
X121198500Y-112911362D01*
X121198499Y-112911350D01*
X121191990Y-112850803D01*
X121191988Y-112850795D01*
X121140889Y-112713797D01*
X121140889Y-112713796D01*
X121140886Y-112713792D01*
X121067311Y-112615507D01*
X121042501Y-112548989D01*
X121057592Y-112479615D01*
X121067306Y-112464497D01*
X121140889Y-112366204D01*
X121191989Y-112229201D01*
X121198500Y-112168638D01*
X121198500Y-110371362D01*
X121198499Y-110371350D01*
X121191990Y-110310803D01*
X121191988Y-110310795D01*
X121140889Y-110173797D01*
X121140889Y-110173796D01*
X121140886Y-110173792D01*
X121067311Y-110075507D01*
X121042501Y-110008989D01*
X121057592Y-109939615D01*
X121067306Y-109924497D01*
X121140889Y-109826204D01*
X121191989Y-109689201D01*
X121198500Y-109628638D01*
X121198500Y-107831362D01*
X121198499Y-107831350D01*
X121191990Y-107770803D01*
X121191988Y-107770795D01*
X121140889Y-107633797D01*
X121140889Y-107633796D01*
X121140886Y-107633792D01*
X121067311Y-107535507D01*
X121042501Y-107468989D01*
X121057592Y-107399615D01*
X121067306Y-107384497D01*
X121140889Y-107286204D01*
X121191989Y-107149201D01*
X121198500Y-107088638D01*
X121198500Y-105291362D01*
X121198499Y-105291350D01*
X121191990Y-105230803D01*
X121191988Y-105230795D01*
X121140889Y-105093797D01*
X121140889Y-105093796D01*
X121140886Y-105093792D01*
X121067311Y-104995507D01*
X121042501Y-104928989D01*
X121057592Y-104859615D01*
X121067306Y-104844497D01*
X121140889Y-104746204D01*
X121191989Y-104609201D01*
X121198500Y-104548638D01*
X121198500Y-102751362D01*
X121198499Y-102751350D01*
X121191990Y-102690803D01*
X121191988Y-102690795D01*
X121140889Y-102553797D01*
X121140889Y-102553796D01*
X121140886Y-102553792D01*
X121067311Y-102455507D01*
X121042501Y-102388989D01*
X121057592Y-102319615D01*
X121067306Y-102304497D01*
X121140889Y-102206204D01*
X121191989Y-102069201D01*
X121198500Y-102008638D01*
X121198500Y-100211362D01*
X121198499Y-100211350D01*
X121191990Y-100150803D01*
X121191988Y-100150795D01*
X121140889Y-100013797D01*
X121140889Y-100013796D01*
X121140886Y-100013792D01*
X121067311Y-99915507D01*
X121042501Y-99848989D01*
X121057592Y-99779615D01*
X121067306Y-99764497D01*
X121140889Y-99666204D01*
X121191989Y-99529201D01*
X121198500Y-99468638D01*
X121198500Y-97671362D01*
X121198499Y-97671350D01*
X121191990Y-97610803D01*
X121191988Y-97610795D01*
X121140889Y-97473797D01*
X121140889Y-97473796D01*
X121140886Y-97473792D01*
X121067311Y-97375507D01*
X121042501Y-97308989D01*
X121057592Y-97239615D01*
X121067306Y-97224497D01*
X121140889Y-97126204D01*
X121191989Y-96989201D01*
X121198500Y-96928638D01*
X121198500Y-95131362D01*
X121198499Y-95131350D01*
X121191990Y-95070803D01*
X121191988Y-95070795D01*
X121140889Y-94933797D01*
X121140889Y-94933796D01*
X121140886Y-94933792D01*
X121067311Y-94835507D01*
X121042501Y-94768989D01*
X121057592Y-94699615D01*
X121067306Y-94684497D01*
X121140889Y-94586204D01*
X121191989Y-94449201D01*
X121198500Y-94388638D01*
X121198500Y-92591362D01*
X121198499Y-92591350D01*
X121191990Y-92530803D01*
X121191988Y-92530795D01*
X121140889Y-92393797D01*
X121140889Y-92393796D01*
X121140886Y-92393792D01*
X121067311Y-92295507D01*
X121042501Y-92228989D01*
X121057592Y-92159615D01*
X121067306Y-92144497D01*
X121140889Y-92046204D01*
X121191989Y-91909201D01*
X121192131Y-91907888D01*
X121198499Y-91848649D01*
X121198500Y-91848632D01*
X121198500Y-90051367D01*
X121198499Y-90051350D01*
X121191990Y-89990803D01*
X121191988Y-89990795D01*
X121146271Y-89868225D01*
X121140889Y-89853796D01*
X121067311Y-89755507D01*
X121042501Y-89688989D01*
X121057592Y-89619615D01*
X121067306Y-89604497D01*
X121140889Y-89506204D01*
X121191989Y-89369201D01*
X121193800Y-89352363D01*
X121198499Y-89308649D01*
X121198500Y-89308632D01*
X121198500Y-87511367D01*
X121198499Y-87511350D01*
X138801500Y-87511350D01*
X138801500Y-89308649D01*
X138808009Y-89369196D01*
X138808011Y-89369204D01*
X138859110Y-89506202D01*
X138859112Y-89506207D01*
X138932687Y-89604491D01*
X138957498Y-89671011D01*
X138942407Y-89740385D01*
X138932687Y-89755509D01*
X138859112Y-89853792D01*
X138859110Y-89853797D01*
X138808011Y-89990795D01*
X138808009Y-89990803D01*
X138801500Y-90051350D01*
X138801500Y-91848649D01*
X138808009Y-91909196D01*
X138808011Y-91909204D01*
X138859110Y-92046202D01*
X138859112Y-92046207D01*
X138932687Y-92144491D01*
X138957498Y-92211011D01*
X138942407Y-92280385D01*
X138932687Y-92295509D01*
X138859112Y-92393792D01*
X138859110Y-92393797D01*
X138808011Y-92530795D01*
X138808009Y-92530803D01*
X138801500Y-92591350D01*
X138801500Y-94388649D01*
X138808009Y-94449196D01*
X138808011Y-94449204D01*
X138859110Y-94586202D01*
X138859112Y-94586207D01*
X138932687Y-94684491D01*
X138957498Y-94751011D01*
X138942407Y-94820385D01*
X138932687Y-94835509D01*
X138859112Y-94933792D01*
X138859110Y-94933797D01*
X138808011Y-95070795D01*
X138808009Y-95070803D01*
X138801500Y-95131350D01*
X138801500Y-96928649D01*
X138808009Y-96989196D01*
X138808011Y-96989204D01*
X138859110Y-97126202D01*
X138859112Y-97126207D01*
X138932687Y-97224491D01*
X138957498Y-97291011D01*
X138942407Y-97360385D01*
X138932687Y-97375509D01*
X138859112Y-97473792D01*
X138859110Y-97473797D01*
X138808011Y-97610795D01*
X138808009Y-97610803D01*
X138801500Y-97671350D01*
X138801500Y-99468649D01*
X138808009Y-99529196D01*
X138808011Y-99529204D01*
X138859110Y-99666202D01*
X138859112Y-99666207D01*
X138932687Y-99764491D01*
X138957498Y-99831011D01*
X138942407Y-99900385D01*
X138932687Y-99915509D01*
X138859112Y-100013792D01*
X138859110Y-100013797D01*
X138808011Y-100150795D01*
X138808009Y-100150803D01*
X138801500Y-100211350D01*
X138801500Y-102008649D01*
X138808009Y-102069196D01*
X138808011Y-102069204D01*
X138859110Y-102206202D01*
X138859112Y-102206207D01*
X138932687Y-102304491D01*
X138957498Y-102371011D01*
X138942407Y-102440385D01*
X138932687Y-102455509D01*
X138859112Y-102553792D01*
X138859110Y-102553797D01*
X138808011Y-102690795D01*
X138808009Y-102690803D01*
X138801500Y-102751350D01*
X138801500Y-104548649D01*
X138808009Y-104609196D01*
X138808011Y-104609204D01*
X138859110Y-104746202D01*
X138859112Y-104746207D01*
X138932687Y-104844491D01*
X138957498Y-104911011D01*
X138942407Y-104980385D01*
X138932687Y-104995509D01*
X138859112Y-105093792D01*
X138859110Y-105093797D01*
X138808011Y-105230795D01*
X138808009Y-105230803D01*
X138801500Y-105291350D01*
X138801500Y-107088649D01*
X138808009Y-107149196D01*
X138808011Y-107149204D01*
X138859110Y-107286202D01*
X138859112Y-107286207D01*
X138932687Y-107384491D01*
X138957498Y-107451011D01*
X138942407Y-107520385D01*
X138932687Y-107535509D01*
X138859112Y-107633792D01*
X138859110Y-107633797D01*
X138808011Y-107770795D01*
X138808009Y-107770803D01*
X138801500Y-107831350D01*
X138801500Y-109628649D01*
X138808009Y-109689196D01*
X138808011Y-109689204D01*
X138859110Y-109826202D01*
X138859112Y-109826207D01*
X138932687Y-109924491D01*
X138957498Y-109991011D01*
X138942407Y-110060385D01*
X138932687Y-110075509D01*
X138859112Y-110173792D01*
X138859110Y-110173797D01*
X138808011Y-110310795D01*
X138808009Y-110310803D01*
X138801500Y-110371350D01*
X138801500Y-112168649D01*
X138808009Y-112229196D01*
X138808011Y-112229204D01*
X138859110Y-112366202D01*
X138859112Y-112366207D01*
X138932687Y-112464491D01*
X138957498Y-112531011D01*
X138942407Y-112600385D01*
X138932687Y-112615509D01*
X138859112Y-112713792D01*
X138859110Y-112713797D01*
X138808011Y-112850795D01*
X138808009Y-112850803D01*
X138801500Y-112911350D01*
X138801500Y-114708649D01*
X138808009Y-114769196D01*
X138808011Y-114769204D01*
X138859110Y-114906202D01*
X138859112Y-114906207D01*
X138932687Y-115004491D01*
X138957498Y-115071011D01*
X138942407Y-115140385D01*
X138932687Y-115155509D01*
X138859112Y-115253792D01*
X138859110Y-115253797D01*
X138808011Y-115390795D01*
X138808009Y-115390803D01*
X138801500Y-115451350D01*
X138801500Y-117248649D01*
X138808009Y-117309196D01*
X138808011Y-117309204D01*
X138859110Y-117446202D01*
X138859112Y-117446207D01*
X138932687Y-117544491D01*
X138957498Y-117611011D01*
X138942407Y-117680385D01*
X138932687Y-117695509D01*
X138859112Y-117793792D01*
X138859110Y-117793797D01*
X138808011Y-117930795D01*
X138808009Y-117930803D01*
X138801500Y-117991350D01*
X138801500Y-119788649D01*
X138808009Y-119849196D01*
X138808011Y-119849204D01*
X138859110Y-119986202D01*
X138859112Y-119986207D01*
X138932687Y-120084491D01*
X138957498Y-120151011D01*
X138942407Y-120220385D01*
X138932687Y-120235509D01*
X138859112Y-120333792D01*
X138859110Y-120333797D01*
X138808011Y-120470795D01*
X138808009Y-120470803D01*
X138801500Y-120531350D01*
X138801500Y-122328649D01*
X138808009Y-122389196D01*
X138808011Y-122389204D01*
X138859110Y-122526202D01*
X138859112Y-122526207D01*
X138932687Y-122624491D01*
X138957498Y-122691011D01*
X138942407Y-122760385D01*
X138932687Y-122775509D01*
X138859112Y-122873792D01*
X138859110Y-122873797D01*
X138808011Y-123010795D01*
X138808009Y-123010803D01*
X138801500Y-123071350D01*
X138801500Y-124868649D01*
X138808009Y-124929196D01*
X138808011Y-124929204D01*
X138859110Y-125066202D01*
X138859112Y-125066207D01*
X138932687Y-125164491D01*
X138957498Y-125231011D01*
X138942407Y-125300385D01*
X138932687Y-125315509D01*
X138859112Y-125413792D01*
X138859110Y-125413797D01*
X138808011Y-125550795D01*
X138808009Y-125550803D01*
X138801500Y-125611350D01*
X138801500Y-127408649D01*
X138808009Y-127469196D01*
X138808011Y-127469204D01*
X138859110Y-127606202D01*
X138859112Y-127606207D01*
X138932687Y-127704491D01*
X138957498Y-127771011D01*
X138942407Y-127840385D01*
X138932687Y-127855509D01*
X138859112Y-127953792D01*
X138859110Y-127953797D01*
X138808011Y-128090795D01*
X138808009Y-128090803D01*
X138801500Y-128151350D01*
X138801500Y-129948649D01*
X138808009Y-130009196D01*
X138808011Y-130009204D01*
X138859110Y-130146202D01*
X138859112Y-130146207D01*
X138932687Y-130244491D01*
X138957498Y-130311011D01*
X138942407Y-130380385D01*
X138932687Y-130395509D01*
X138859112Y-130493792D01*
X138859110Y-130493797D01*
X138808011Y-130630795D01*
X138808009Y-130630803D01*
X138801500Y-130691350D01*
X138801500Y-132488649D01*
X138808009Y-132549196D01*
X138808011Y-132549204D01*
X138859110Y-132686202D01*
X138859112Y-132686207D01*
X138946738Y-132803261D01*
X139063792Y-132890887D01*
X139063794Y-132890888D01*
X139063796Y-132890889D01*
X139122875Y-132912924D01*
X139200795Y-132941988D01*
X139200803Y-132941990D01*
X139261350Y-132948499D01*
X139261355Y-132948499D01*
X139261362Y-132948500D01*
X139261368Y-132948500D01*
X141058632Y-132948500D01*
X141058638Y-132948500D01*
X141058645Y-132948499D01*
X141058649Y-132948499D01*
X141119196Y-132941990D01*
X141119199Y-132941989D01*
X141119201Y-132941989D01*
X141256204Y-132890889D01*
X141373261Y-132803261D01*
X141460887Y-132686207D01*
X141460887Y-132686206D01*
X141460889Y-132686204D01*
X141511989Y-132549201D01*
X141518500Y-132488638D01*
X141518500Y-130691362D01*
X141513800Y-130647640D01*
X141511990Y-130630803D01*
X141511988Y-130630795D01*
X141460889Y-130493797D01*
X141460889Y-130493796D01*
X141460886Y-130493792D01*
X141387311Y-130395507D01*
X141362501Y-130328989D01*
X141377592Y-130259615D01*
X141387306Y-130244497D01*
X141460889Y-130146204D01*
X141511989Y-130009201D01*
X141512698Y-130002611D01*
X141518499Y-129948649D01*
X141518500Y-129948632D01*
X141518500Y-129868222D01*
X147989500Y-129868222D01*
X147989500Y-130131777D01*
X148023898Y-130393064D01*
X148027585Y-130406823D01*
X148092112Y-130647641D01*
X148192968Y-130891129D01*
X148192969Y-130891130D01*
X148192974Y-130891141D01*
X148324740Y-131119367D01*
X148324744Y-131119373D01*
X148485175Y-131328450D01*
X148485194Y-131328471D01*
X148671528Y-131514805D01*
X148671549Y-131514824D01*
X148880626Y-131675255D01*
X148880632Y-131675259D01*
X149108858Y-131807025D01*
X149108862Y-131807026D01*
X149108871Y-131807032D01*
X149352359Y-131907888D01*
X149606929Y-131976100D01*
X149606933Y-131976100D01*
X149606935Y-131976101D01*
X149674278Y-131984966D01*
X149868225Y-132010500D01*
X149868232Y-132010500D01*
X150131768Y-132010500D01*
X150131775Y-132010500D01*
X150367920Y-131979411D01*
X150393064Y-131976101D01*
X150393064Y-131976100D01*
X150393071Y-131976100D01*
X150647641Y-131907888D01*
X150891129Y-131807032D01*
X151119371Y-131675257D01*
X151328459Y-131514817D01*
X151514817Y-131328459D01*
X151675257Y-131119371D01*
X151807032Y-130891129D01*
X151907888Y-130647641D01*
X151976100Y-130393071D01*
X152010500Y-130131775D01*
X152010500Y-129868225D01*
X151976100Y-129606929D01*
X151907888Y-129352359D01*
X151807032Y-129108871D01*
X151807026Y-129108862D01*
X151807025Y-129108858D01*
X151675259Y-128880632D01*
X151675255Y-128880626D01*
X151514824Y-128671549D01*
X151514805Y-128671528D01*
X151328471Y-128485194D01*
X151328450Y-128485175D01*
X151119373Y-128324744D01*
X151119367Y-128324740D01*
X150891141Y-128192974D01*
X150891133Y-128192970D01*
X150891129Y-128192968D01*
X150647641Y-128092112D01*
X150393071Y-128023900D01*
X150393064Y-128023898D01*
X150131777Y-127989500D01*
X150131775Y-127989500D01*
X149868225Y-127989500D01*
X149868222Y-127989500D01*
X149606935Y-128023898D01*
X149352363Y-128092111D01*
X149352359Y-128092112D01*
X149108869Y-128192969D01*
X149108858Y-128192974D01*
X148880632Y-128324740D01*
X148880626Y-128324744D01*
X148671549Y-128485175D01*
X148671528Y-128485194D01*
X148485194Y-128671528D01*
X148485175Y-128671549D01*
X148324744Y-128880626D01*
X148324740Y-128880632D01*
X148192974Y-129108858D01*
X148192969Y-129108869D01*
X148192968Y-129108871D01*
X148092112Y-129352359D01*
X148092111Y-129352363D01*
X148023898Y-129606935D01*
X147989500Y-129868222D01*
X141518500Y-129868222D01*
X141518500Y-128151367D01*
X141518499Y-128151350D01*
X141511990Y-128090803D01*
X141511988Y-128090795D01*
X141460889Y-127953797D01*
X141460889Y-127953796D01*
X141460886Y-127953792D01*
X141387311Y-127855507D01*
X141362501Y-127788989D01*
X141377592Y-127719615D01*
X141387306Y-127704497D01*
X141460889Y-127606204D01*
X141511989Y-127469201D01*
X141518500Y-127408638D01*
X141518500Y-125611362D01*
X141518499Y-125611350D01*
X141511990Y-125550803D01*
X141511988Y-125550795D01*
X141460889Y-125413797D01*
X141460889Y-125413796D01*
X141460886Y-125413792D01*
X141387311Y-125315507D01*
X141362501Y-125248989D01*
X141377592Y-125179615D01*
X141387306Y-125164497D01*
X141460889Y-125066204D01*
X141511989Y-124929201D01*
X141518500Y-124868638D01*
X141518500Y-123071362D01*
X141518499Y-123071350D01*
X141511990Y-123010803D01*
X141511988Y-123010795D01*
X141460889Y-122873797D01*
X141460889Y-122873796D01*
X141460886Y-122873792D01*
X141387311Y-122775507D01*
X141362501Y-122708989D01*
X141377592Y-122639615D01*
X141387306Y-122624497D01*
X141460889Y-122526204D01*
X141511989Y-122389201D01*
X141518500Y-122328638D01*
X141518500Y-120531362D01*
X141518499Y-120531350D01*
X141511990Y-120470803D01*
X141511988Y-120470795D01*
X141460889Y-120333797D01*
X141460889Y-120333796D01*
X141460886Y-120333792D01*
X141387311Y-120235507D01*
X141362501Y-120168989D01*
X141377592Y-120099615D01*
X141387306Y-120084497D01*
X141460889Y-119986204D01*
X141511989Y-119849201D01*
X141518500Y-119788638D01*
X141518500Y-117991362D01*
X141518499Y-117991350D01*
X141511990Y-117930803D01*
X141511988Y-117930795D01*
X141460889Y-117793797D01*
X141460889Y-117793796D01*
X141460886Y-117793792D01*
X141387311Y-117695507D01*
X141362501Y-117628989D01*
X141377592Y-117559615D01*
X141387306Y-117544497D01*
X141460889Y-117446204D01*
X141511989Y-117309201D01*
X141518500Y-117248638D01*
X141518500Y-115451362D01*
X141518499Y-115451350D01*
X141511990Y-115390803D01*
X141511988Y-115390795D01*
X141460889Y-115253797D01*
X141460889Y-115253796D01*
X141460886Y-115253792D01*
X141387311Y-115155507D01*
X141362501Y-115088989D01*
X141377592Y-115019615D01*
X141387306Y-115004497D01*
X141460889Y-114906204D01*
X141511989Y-114769201D01*
X141518500Y-114708638D01*
X141518500Y-112911362D01*
X141518499Y-112911350D01*
X141511990Y-112850803D01*
X141511988Y-112850795D01*
X141460889Y-112713797D01*
X141460889Y-112713796D01*
X141460886Y-112713792D01*
X141387311Y-112615507D01*
X141362501Y-112548989D01*
X141377592Y-112479615D01*
X141387306Y-112464497D01*
X141460889Y-112366204D01*
X141511989Y-112229201D01*
X141518500Y-112168638D01*
X141518500Y-110371362D01*
X141518499Y-110371350D01*
X141511990Y-110310803D01*
X141511988Y-110310795D01*
X141460889Y-110173797D01*
X141460889Y-110173796D01*
X141460886Y-110173792D01*
X141387311Y-110075507D01*
X141362501Y-110008989D01*
X141377592Y-109939615D01*
X141387306Y-109924497D01*
X141460889Y-109826204D01*
X141511989Y-109689201D01*
X141518500Y-109628638D01*
X141518500Y-107831362D01*
X141518499Y-107831350D01*
X141511990Y-107770803D01*
X141511988Y-107770795D01*
X141460889Y-107633797D01*
X141460889Y-107633796D01*
X141460886Y-107633792D01*
X141387311Y-107535507D01*
X141362501Y-107468989D01*
X141377592Y-107399615D01*
X141387306Y-107384497D01*
X141460889Y-107286204D01*
X141511989Y-107149201D01*
X141518500Y-107088638D01*
X141518500Y-105291362D01*
X141518499Y-105291350D01*
X141511990Y-105230803D01*
X141511988Y-105230795D01*
X141460889Y-105093797D01*
X141460889Y-105093796D01*
X141460886Y-105093792D01*
X141387311Y-104995507D01*
X141362501Y-104928989D01*
X141377592Y-104859615D01*
X141387306Y-104844497D01*
X141460889Y-104746204D01*
X141511989Y-104609201D01*
X141518500Y-104548638D01*
X141518500Y-102751362D01*
X141518499Y-102751350D01*
X141511990Y-102690803D01*
X141511988Y-102690795D01*
X141460889Y-102553797D01*
X141460889Y-102553796D01*
X141460886Y-102553792D01*
X141387311Y-102455507D01*
X141362501Y-102388989D01*
X141377592Y-102319615D01*
X141387306Y-102304497D01*
X141460889Y-102206204D01*
X141511989Y-102069201D01*
X141518500Y-102008638D01*
X141518500Y-100211362D01*
X141518499Y-100211350D01*
X141511990Y-100150803D01*
X141511988Y-100150795D01*
X141460889Y-100013797D01*
X141460889Y-100013796D01*
X141460886Y-100013792D01*
X141387311Y-99915507D01*
X141362501Y-99848989D01*
X141377592Y-99779615D01*
X141387306Y-99764497D01*
X141460889Y-99666204D01*
X141511989Y-99529201D01*
X141518500Y-99468638D01*
X141518500Y-97671362D01*
X141518499Y-97671350D01*
X141511990Y-97610803D01*
X141511988Y-97610795D01*
X141460889Y-97473797D01*
X141460889Y-97473796D01*
X141460886Y-97473792D01*
X141387311Y-97375507D01*
X141362501Y-97308989D01*
X141377592Y-97239615D01*
X141387306Y-97224497D01*
X141460889Y-97126204D01*
X141511989Y-96989201D01*
X141518500Y-96928638D01*
X141518500Y-95131362D01*
X141518499Y-95131350D01*
X141511990Y-95070803D01*
X141511988Y-95070795D01*
X141460889Y-94933797D01*
X141460889Y-94933796D01*
X141460886Y-94933792D01*
X141387311Y-94835507D01*
X141362501Y-94768989D01*
X141377592Y-94699615D01*
X141387306Y-94684497D01*
X141460889Y-94586204D01*
X141511989Y-94449201D01*
X141518500Y-94388638D01*
X141518500Y-92591362D01*
X141518499Y-92591350D01*
X141511990Y-92530803D01*
X141511988Y-92530795D01*
X141460889Y-92393797D01*
X141460889Y-92393796D01*
X141460886Y-92393792D01*
X141387311Y-92295507D01*
X141362501Y-92228989D01*
X141377592Y-92159615D01*
X141387306Y-92144497D01*
X141460889Y-92046204D01*
X141511989Y-91909201D01*
X141512131Y-91907888D01*
X141518499Y-91848649D01*
X141518500Y-91848632D01*
X141518500Y-90051367D01*
X141518499Y-90051350D01*
X141511990Y-89990803D01*
X141511988Y-89990795D01*
X141485256Y-89919126D01*
X141466270Y-89868222D01*
X147989500Y-89868222D01*
X147989500Y-90131777D01*
X148023898Y-90393064D01*
X148023900Y-90393071D01*
X148092112Y-90647641D01*
X148192968Y-90891129D01*
X148192969Y-90891130D01*
X148192974Y-90891141D01*
X148324740Y-91119367D01*
X148324744Y-91119373D01*
X148485175Y-91328450D01*
X148485194Y-91328471D01*
X148671528Y-91514805D01*
X148671549Y-91514824D01*
X148880626Y-91675255D01*
X148880632Y-91675259D01*
X149108858Y-91807025D01*
X149108862Y-91807026D01*
X149108871Y-91807032D01*
X149352359Y-91907888D01*
X149606929Y-91976100D01*
X149606933Y-91976100D01*
X149606935Y-91976101D01*
X149674278Y-91984966D01*
X149868225Y-92010500D01*
X149868232Y-92010500D01*
X150131768Y-92010500D01*
X150131775Y-92010500D01*
X150367920Y-91979411D01*
X150393064Y-91976101D01*
X150393064Y-91976100D01*
X150393071Y-91976100D01*
X150647641Y-91907888D01*
X150891129Y-91807032D01*
X151119371Y-91675257D01*
X151328459Y-91514817D01*
X151514817Y-91328459D01*
X151675257Y-91119371D01*
X151807032Y-90891129D01*
X151907888Y-90647641D01*
X151976100Y-90393071D01*
X152010500Y-90131775D01*
X152010500Y-89868225D01*
X151976750Y-89611868D01*
X151976101Y-89606935D01*
X151976100Y-89606933D01*
X151976100Y-89606929D01*
X151907888Y-89352359D01*
X151807032Y-89108871D01*
X151807026Y-89108862D01*
X151807025Y-89108858D01*
X151675259Y-88880632D01*
X151675255Y-88880626D01*
X151514824Y-88671549D01*
X151514805Y-88671528D01*
X151328471Y-88485194D01*
X151328450Y-88485175D01*
X151119373Y-88324744D01*
X151119367Y-88324740D01*
X150891141Y-88192974D01*
X150891133Y-88192970D01*
X150891129Y-88192968D01*
X150647641Y-88092112D01*
X150393071Y-88023900D01*
X150393064Y-88023898D01*
X150131777Y-87989500D01*
X150131775Y-87989500D01*
X149868225Y-87989500D01*
X149868222Y-87989500D01*
X149606935Y-88023898D01*
X149352363Y-88092111D01*
X149352359Y-88092112D01*
X149108869Y-88192969D01*
X149108858Y-88192974D01*
X148880632Y-88324740D01*
X148880626Y-88324744D01*
X148671549Y-88485175D01*
X148671528Y-88485194D01*
X148485194Y-88671528D01*
X148485175Y-88671549D01*
X148324744Y-88880626D01*
X148324740Y-88880632D01*
X148192974Y-89108858D01*
X148192969Y-89108869D01*
X148192968Y-89108871D01*
X148166134Y-89173655D01*
X148092112Y-89352359D01*
X148092111Y-89352363D01*
X148023898Y-89606935D01*
X147989500Y-89868222D01*
X141466270Y-89868222D01*
X141460889Y-89853796D01*
X141383537Y-89750467D01*
X141380284Y-89745072D01*
X141372795Y-89716588D01*
X141362501Y-89688989D01*
X141363876Y-89682666D01*
X141362231Y-89676409D01*
X141371331Y-89648394D01*
X141377592Y-89619615D01*
X141383837Y-89609895D01*
X141384166Y-89608886D01*
X141384842Y-89608332D01*
X141387306Y-89604497D01*
X141460889Y-89506204D01*
X141511989Y-89369201D01*
X141513800Y-89352363D01*
X141518499Y-89308649D01*
X141518500Y-89308632D01*
X141518500Y-87511367D01*
X141518499Y-87511350D01*
X141511990Y-87450803D01*
X141511988Y-87450795D01*
X141460889Y-87313797D01*
X141460887Y-87313792D01*
X141373261Y-87196738D01*
X141256207Y-87109112D01*
X141256202Y-87109110D01*
X141119204Y-87058011D01*
X141119196Y-87058009D01*
X141058649Y-87051500D01*
X141058638Y-87051500D01*
X139261362Y-87051500D01*
X139261350Y-87051500D01*
X139200803Y-87058009D01*
X139200795Y-87058011D01*
X139063797Y-87109110D01*
X139063792Y-87109112D01*
X138946738Y-87196738D01*
X138859112Y-87313792D01*
X138859110Y-87313797D01*
X138808011Y-87450795D01*
X138808009Y-87450803D01*
X138801500Y-87511350D01*
X121198499Y-87511350D01*
X121191990Y-87450803D01*
X121191988Y-87450795D01*
X121140889Y-87313797D01*
X121140887Y-87313792D01*
X121053261Y-87196738D01*
X120936207Y-87109112D01*
X120936202Y-87109110D01*
X120799204Y-87058011D01*
X120799196Y-87058009D01*
X120738649Y-87051500D01*
X120738638Y-87051500D01*
X118941362Y-87051500D01*
X118941350Y-87051500D01*
X118880803Y-87058009D01*
X118880795Y-87058011D01*
X118743797Y-87109110D01*
X118743792Y-87109112D01*
X118626738Y-87196738D01*
X118539112Y-87313792D01*
X118539110Y-87313797D01*
X118488011Y-87450795D01*
X118488009Y-87450803D01*
X118481500Y-87511350D01*
X105679741Y-87511350D01*
X105820296Y-87275468D01*
X105825974Y-87266777D01*
X106059564Y-86939613D01*
X106065948Y-86931412D01*
X106325751Y-86624664D01*
X106332782Y-86617027D01*
X106617027Y-86332782D01*
X106624664Y-86325751D01*
X106931412Y-86065948D01*
X106939613Y-86059564D01*
X107266777Y-85825974D01*
X107275468Y-85820296D01*
X107620791Y-85614528D01*
X107629934Y-85609580D01*
X107991070Y-85433032D01*
X108000590Y-85428856D01*
X108375068Y-85282735D01*
X108384877Y-85279366D01*
X108770184Y-85164655D01*
X108780235Y-85162110D01*
X109173663Y-85079617D01*
X109183919Y-85077906D01*
X109582814Y-85028184D01*
X109593159Y-85027327D01*
X109997389Y-85010608D01*
X110002596Y-85010500D01*
X110003412Y-85010500D01*
X149996588Y-85010500D01*
X149997404Y-85010500D01*
X150002611Y-85010608D01*
G37*
%TD.AperFunction*%
M02*
