G04 EAGLE Gerber RS-274X export*
G75*
%MOMM*%
%FSLAX34Y34*%
%LPD*%
%INTop Copper*%
%IPPOS*%
%AMOC8*
5,1,8,0,0,1.08239X$1,22.5*%
G01*
%ADD10C,0.250000*%
%ADD11C,0.105000*%
%ADD12C,0.099000*%
%ADD13C,0.102000*%
%ADD14C,0.800000*%
%ADD15C,0.400000*%
%ADD16C,0.104000*%
%ADD17C,0.103631*%
%ADD18C,0.108000*%
%ADD19P,1.623585X8X202.500000*%
%ADD20C,0.127000*%
%ADD21C,0.554000*%
%ADD22C,0.604000*%
%ADD23C,0.152400*%


D10*
X87000Y353250D02*
X87000Y341250D01*
X82000Y341250D02*
X82000Y353250D01*
X77000Y353250D02*
X77000Y341250D01*
X72000Y341250D02*
X72000Y353250D01*
X67000Y353250D02*
X67000Y341250D01*
X87000Y312750D02*
X87000Y300750D01*
X82000Y300750D02*
X82000Y312750D01*
X77000Y312750D02*
X77000Y300750D01*
X72000Y300750D02*
X72000Y312750D01*
X67000Y312750D02*
X67000Y300750D01*
D11*
X117353Y290159D02*
X117353Y284209D01*
X109403Y284209D01*
X109403Y290159D01*
X117353Y290159D01*
X117353Y285206D02*
X109403Y285206D01*
X109403Y286203D02*
X117353Y286203D01*
X117353Y287200D02*
X109403Y287200D01*
X109403Y288197D02*
X117353Y288197D01*
X117353Y289194D02*
X109403Y289194D01*
X117353Y297209D02*
X117353Y303159D01*
X117353Y297209D02*
X109403Y297209D01*
X109403Y303159D01*
X117353Y303159D01*
X117353Y298206D02*
X109403Y298206D01*
X109403Y299203D02*
X117353Y299203D01*
X117353Y300200D02*
X109403Y300200D01*
X109403Y301197D02*
X117353Y301197D01*
X117353Y302194D02*
X109403Y302194D01*
X77975Y274975D02*
X77975Y269025D01*
X70025Y269025D01*
X70025Y274975D01*
X77975Y274975D01*
X77975Y270022D02*
X70025Y270022D01*
X70025Y271019D02*
X77975Y271019D01*
X77975Y272016D02*
X70025Y272016D01*
X70025Y273013D02*
X77975Y273013D01*
X77975Y274010D02*
X70025Y274010D01*
X77975Y282025D02*
X77975Y287975D01*
X77975Y282025D02*
X70025Y282025D01*
X70025Y287975D01*
X77975Y287975D01*
X77975Y283022D02*
X70025Y283022D01*
X70025Y284019D02*
X77975Y284019D01*
X77975Y285016D02*
X70025Y285016D01*
X70025Y286013D02*
X77975Y286013D01*
X77975Y287010D02*
X70025Y287010D01*
X148975Y236475D02*
X148975Y230525D01*
X141025Y230525D01*
X141025Y236475D01*
X148975Y236475D01*
X148975Y231522D02*
X141025Y231522D01*
X141025Y232519D02*
X148975Y232519D01*
X148975Y233516D02*
X141025Y233516D01*
X141025Y234513D02*
X148975Y234513D01*
X148975Y235510D02*
X141025Y235510D01*
X148975Y243525D02*
X148975Y249475D01*
X148975Y243525D02*
X141025Y243525D01*
X141025Y249475D01*
X148975Y249475D01*
X148975Y244522D02*
X141025Y244522D01*
X141025Y245519D02*
X148975Y245519D01*
X148975Y246516D02*
X141025Y246516D01*
X141025Y247513D02*
X148975Y247513D01*
X148975Y248510D02*
X141025Y248510D01*
X195525Y216025D02*
X201475Y216025D01*
X195525Y216025D02*
X195525Y223975D01*
X201475Y223975D01*
X201475Y216025D01*
X201475Y217022D02*
X195525Y217022D01*
X195525Y218019D02*
X201475Y218019D01*
X201475Y219016D02*
X195525Y219016D01*
X195525Y220013D02*
X201475Y220013D01*
X201475Y221010D02*
X195525Y221010D01*
X195525Y222007D02*
X201475Y222007D01*
X201475Y223004D02*
X195525Y223004D01*
X208525Y216025D02*
X214475Y216025D01*
X208525Y216025D02*
X208525Y223975D01*
X214475Y223975D01*
X214475Y216025D01*
X214475Y217022D02*
X208525Y217022D01*
X208525Y218019D02*
X214475Y218019D01*
X214475Y219016D02*
X208525Y219016D01*
X208525Y220013D02*
X214475Y220013D01*
X214475Y221010D02*
X208525Y221010D01*
X208525Y222007D02*
X214475Y222007D01*
X214475Y223004D02*
X208525Y223004D01*
X131475Y96025D02*
X125525Y96025D01*
X125525Y103975D01*
X131475Y103975D01*
X131475Y96025D01*
X131475Y97022D02*
X125525Y97022D01*
X125525Y98019D02*
X131475Y98019D01*
X131475Y99016D02*
X125525Y99016D01*
X125525Y100013D02*
X131475Y100013D01*
X131475Y101010D02*
X125525Y101010D01*
X125525Y102007D02*
X131475Y102007D01*
X131475Y103004D02*
X125525Y103004D01*
X138525Y96025D02*
X144475Y96025D01*
X138525Y96025D02*
X138525Y103975D01*
X144475Y103975D01*
X144475Y96025D01*
X144475Y97022D02*
X138525Y97022D01*
X138525Y98019D02*
X144475Y98019D01*
X144475Y99016D02*
X138525Y99016D01*
X138525Y100013D02*
X144475Y100013D01*
X144475Y101010D02*
X138525Y101010D01*
X138525Y102007D02*
X144475Y102007D01*
X144475Y103004D02*
X138525Y103004D01*
X91025Y39475D02*
X91025Y33525D01*
X91025Y39475D02*
X98975Y39475D01*
X98975Y33525D01*
X91025Y33525D01*
X91025Y34522D02*
X98975Y34522D01*
X98975Y35519D02*
X91025Y35519D01*
X91025Y36516D02*
X98975Y36516D01*
X98975Y37513D02*
X91025Y37513D01*
X91025Y38510D02*
X98975Y38510D01*
X91025Y26475D02*
X91025Y20525D01*
X91025Y26475D02*
X98975Y26475D01*
X98975Y20525D01*
X91025Y20525D01*
X91025Y21522D02*
X98975Y21522D01*
X98975Y22519D02*
X91025Y22519D01*
X91025Y23516D02*
X98975Y23516D01*
X98975Y24513D02*
X91025Y24513D01*
X91025Y25510D02*
X98975Y25510D01*
X118975Y21475D02*
X118975Y15525D01*
X111025Y15525D01*
X111025Y21475D01*
X118975Y21475D01*
X118975Y16522D02*
X111025Y16522D01*
X111025Y17519D02*
X118975Y17519D01*
X118975Y18516D02*
X111025Y18516D01*
X111025Y19513D02*
X118975Y19513D01*
X118975Y20510D02*
X111025Y20510D01*
X118975Y28525D02*
X118975Y34475D01*
X118975Y28525D02*
X111025Y28525D01*
X111025Y34475D01*
X118975Y34475D01*
X118975Y29522D02*
X111025Y29522D01*
X111025Y30519D02*
X118975Y30519D01*
X118975Y31516D02*
X111025Y31516D01*
X111025Y32513D02*
X118975Y32513D01*
X118975Y33510D02*
X111025Y33510D01*
X113975Y335525D02*
X113975Y341475D01*
X113975Y335525D02*
X106025Y335525D01*
X106025Y341475D01*
X113975Y341475D01*
X113975Y336522D02*
X106025Y336522D01*
X106025Y337519D02*
X113975Y337519D01*
X113975Y338516D02*
X106025Y338516D01*
X106025Y339513D02*
X113975Y339513D01*
X113975Y340510D02*
X106025Y340510D01*
X113975Y348525D02*
X113975Y354475D01*
X113975Y348525D02*
X106025Y348525D01*
X106025Y354475D01*
X113975Y354475D01*
X113975Y349522D02*
X106025Y349522D01*
X106025Y350519D02*
X113975Y350519D01*
X113975Y351516D02*
X106025Y351516D01*
X106025Y352513D02*
X113975Y352513D01*
X113975Y353510D02*
X106025Y353510D01*
X131975Y341975D02*
X131975Y336025D01*
X124025Y336025D01*
X124025Y341975D01*
X131975Y341975D01*
X131975Y337022D02*
X124025Y337022D01*
X124025Y338019D02*
X131975Y338019D01*
X131975Y339016D02*
X124025Y339016D01*
X124025Y340013D02*
X131975Y340013D01*
X131975Y341010D02*
X124025Y341010D01*
X131975Y349025D02*
X131975Y354975D01*
X131975Y349025D02*
X124025Y349025D01*
X124025Y354975D01*
X131975Y354975D01*
X131975Y350022D02*
X124025Y350022D01*
X124025Y351019D02*
X131975Y351019D01*
X131975Y352016D02*
X124025Y352016D01*
X124025Y353013D02*
X131975Y353013D01*
X131975Y354010D02*
X124025Y354010D01*
D12*
X64495Y169005D02*
X64495Y163995D01*
X64495Y169005D02*
X69005Y169005D01*
X69005Y163995D01*
X64495Y163995D01*
X64495Y164935D02*
X69005Y164935D01*
X69005Y165875D02*
X64495Y165875D01*
X64495Y166815D02*
X69005Y166815D01*
X69005Y167755D02*
X64495Y167755D01*
X64495Y168695D02*
X69005Y168695D01*
X64495Y156005D02*
X64495Y150995D01*
X64495Y156005D02*
X69005Y156005D01*
X69005Y150995D01*
X64495Y150995D01*
X64495Y151935D02*
X69005Y151935D01*
X69005Y152875D02*
X64495Y152875D01*
X64495Y153815D02*
X69005Y153815D01*
X69005Y154755D02*
X64495Y154755D01*
X64495Y155695D02*
X69005Y155695D01*
X82995Y157495D02*
X82995Y162505D01*
X87505Y162505D01*
X87505Y157495D01*
X82995Y157495D01*
X82995Y158435D02*
X87505Y158435D01*
X87505Y159375D02*
X82995Y159375D01*
X82995Y160315D02*
X87505Y160315D01*
X87505Y161255D02*
X82995Y161255D01*
X82995Y162195D02*
X87505Y162195D01*
D13*
X162910Y186490D02*
X167890Y186490D01*
X167890Y165510D01*
X162910Y165510D01*
X162910Y186490D01*
X162910Y166479D02*
X167890Y166479D01*
X167890Y167448D02*
X162910Y167448D01*
X162910Y168417D02*
X167890Y168417D01*
X167890Y169386D02*
X162910Y169386D01*
X162910Y170355D02*
X167890Y170355D01*
X167890Y171324D02*
X162910Y171324D01*
X162910Y172293D02*
X167890Y172293D01*
X167890Y173262D02*
X162910Y173262D01*
X162910Y174231D02*
X167890Y174231D01*
X167890Y175200D02*
X162910Y175200D01*
X162910Y176169D02*
X167890Y176169D01*
X167890Y177138D02*
X162910Y177138D01*
X162910Y178107D02*
X167890Y178107D01*
X167890Y179076D02*
X162910Y179076D01*
X162910Y180045D02*
X167890Y180045D01*
X167890Y181014D02*
X162910Y181014D01*
X162910Y181983D02*
X167890Y181983D01*
X167890Y182952D02*
X162910Y182952D01*
X162910Y183921D02*
X167890Y183921D01*
X167890Y184890D02*
X162910Y184890D01*
X162910Y185859D02*
X167890Y185859D01*
X167890Y134490D02*
X162910Y134490D01*
X167890Y134490D02*
X167890Y113510D01*
X162910Y113510D01*
X162910Y134490D01*
X162910Y114479D02*
X167890Y114479D01*
X167890Y115448D02*
X162910Y115448D01*
X162910Y116417D02*
X167890Y116417D01*
X167890Y117386D02*
X162910Y117386D01*
X162910Y118355D02*
X167890Y118355D01*
X167890Y119324D02*
X162910Y119324D01*
X162910Y120293D02*
X167890Y120293D01*
X167890Y121262D02*
X162910Y121262D01*
X162910Y122231D02*
X167890Y122231D01*
X167890Y123200D02*
X162910Y123200D01*
X162910Y124169D02*
X167890Y124169D01*
X167890Y125138D02*
X162910Y125138D01*
X162910Y126107D02*
X167890Y126107D01*
X167890Y127076D02*
X162910Y127076D01*
X162910Y128045D02*
X167890Y128045D01*
X167890Y129014D02*
X162910Y129014D01*
X162910Y129983D02*
X167890Y129983D01*
X167890Y130952D02*
X162910Y130952D01*
X162910Y131921D02*
X167890Y131921D01*
X167890Y132890D02*
X162910Y132890D01*
X162910Y133859D02*
X167890Y133859D01*
X175610Y186490D02*
X180590Y186490D01*
X180590Y165510D01*
X175610Y165510D01*
X175610Y186490D01*
X175610Y166479D02*
X180590Y166479D01*
X180590Y167448D02*
X175610Y167448D01*
X175610Y168417D02*
X180590Y168417D01*
X180590Y169386D02*
X175610Y169386D01*
X175610Y170355D02*
X180590Y170355D01*
X180590Y171324D02*
X175610Y171324D01*
X175610Y172293D02*
X180590Y172293D01*
X180590Y173262D02*
X175610Y173262D01*
X175610Y174231D02*
X180590Y174231D01*
X180590Y175200D02*
X175610Y175200D01*
X175610Y176169D02*
X180590Y176169D01*
X180590Y177138D02*
X175610Y177138D01*
X175610Y178107D02*
X180590Y178107D01*
X180590Y179076D02*
X175610Y179076D01*
X175610Y180045D02*
X180590Y180045D01*
X180590Y181014D02*
X175610Y181014D01*
X175610Y181983D02*
X180590Y181983D01*
X180590Y182952D02*
X175610Y182952D01*
X175610Y183921D02*
X180590Y183921D01*
X180590Y184890D02*
X175610Y184890D01*
X175610Y185859D02*
X180590Y185859D01*
X155190Y186490D02*
X150210Y186490D01*
X155190Y186490D02*
X155190Y165510D01*
X150210Y165510D01*
X150210Y186490D01*
X150210Y166479D02*
X155190Y166479D01*
X155190Y167448D02*
X150210Y167448D01*
X150210Y168417D02*
X155190Y168417D01*
X155190Y169386D02*
X150210Y169386D01*
X150210Y170355D02*
X155190Y170355D01*
X155190Y171324D02*
X150210Y171324D01*
X150210Y172293D02*
X155190Y172293D01*
X155190Y173262D02*
X150210Y173262D01*
X150210Y174231D02*
X155190Y174231D01*
X155190Y175200D02*
X150210Y175200D01*
X150210Y176169D02*
X155190Y176169D01*
X155190Y177138D02*
X150210Y177138D01*
X150210Y178107D02*
X155190Y178107D01*
X155190Y179076D02*
X150210Y179076D01*
X150210Y180045D02*
X155190Y180045D01*
X155190Y181014D02*
X150210Y181014D01*
X150210Y181983D02*
X155190Y181983D01*
X155190Y182952D02*
X150210Y182952D01*
X150210Y183921D02*
X155190Y183921D01*
X155190Y184890D02*
X150210Y184890D01*
X150210Y185859D02*
X155190Y185859D01*
X142490Y186490D02*
X137510Y186490D01*
X142490Y186490D02*
X142490Y165510D01*
X137510Y165510D01*
X137510Y186490D01*
X137510Y166479D02*
X142490Y166479D01*
X142490Y167448D02*
X137510Y167448D01*
X137510Y168417D02*
X142490Y168417D01*
X142490Y169386D02*
X137510Y169386D01*
X137510Y170355D02*
X142490Y170355D01*
X142490Y171324D02*
X137510Y171324D01*
X137510Y172293D02*
X142490Y172293D01*
X142490Y173262D02*
X137510Y173262D01*
X137510Y174231D02*
X142490Y174231D01*
X142490Y175200D02*
X137510Y175200D01*
X137510Y176169D02*
X142490Y176169D01*
X142490Y177138D02*
X137510Y177138D01*
X137510Y178107D02*
X142490Y178107D01*
X142490Y179076D02*
X137510Y179076D01*
X137510Y180045D02*
X142490Y180045D01*
X142490Y181014D02*
X137510Y181014D01*
X137510Y181983D02*
X142490Y181983D01*
X142490Y182952D02*
X137510Y182952D01*
X137510Y183921D02*
X142490Y183921D01*
X142490Y184890D02*
X137510Y184890D01*
X137510Y185859D02*
X142490Y185859D01*
X175610Y134490D02*
X180590Y134490D01*
X180590Y113510D01*
X175610Y113510D01*
X175610Y134490D01*
X175610Y114479D02*
X180590Y114479D01*
X180590Y115448D02*
X175610Y115448D01*
X175610Y116417D02*
X180590Y116417D01*
X180590Y117386D02*
X175610Y117386D01*
X175610Y118355D02*
X180590Y118355D01*
X180590Y119324D02*
X175610Y119324D01*
X175610Y120293D02*
X180590Y120293D01*
X180590Y121262D02*
X175610Y121262D01*
X175610Y122231D02*
X180590Y122231D01*
X180590Y123200D02*
X175610Y123200D01*
X175610Y124169D02*
X180590Y124169D01*
X180590Y125138D02*
X175610Y125138D01*
X175610Y126107D02*
X180590Y126107D01*
X180590Y127076D02*
X175610Y127076D01*
X175610Y128045D02*
X180590Y128045D01*
X180590Y129014D02*
X175610Y129014D01*
X175610Y129983D02*
X180590Y129983D01*
X180590Y130952D02*
X175610Y130952D01*
X175610Y131921D02*
X180590Y131921D01*
X180590Y132890D02*
X175610Y132890D01*
X175610Y133859D02*
X180590Y133859D01*
X155190Y134490D02*
X150210Y134490D01*
X155190Y134490D02*
X155190Y113510D01*
X150210Y113510D01*
X150210Y134490D01*
X150210Y114479D02*
X155190Y114479D01*
X155190Y115448D02*
X150210Y115448D01*
X150210Y116417D02*
X155190Y116417D01*
X155190Y117386D02*
X150210Y117386D01*
X150210Y118355D02*
X155190Y118355D01*
X155190Y119324D02*
X150210Y119324D01*
X150210Y120293D02*
X155190Y120293D01*
X155190Y121262D02*
X150210Y121262D01*
X150210Y122231D02*
X155190Y122231D01*
X155190Y123200D02*
X150210Y123200D01*
X150210Y124169D02*
X155190Y124169D01*
X155190Y125138D02*
X150210Y125138D01*
X150210Y126107D02*
X155190Y126107D01*
X155190Y127076D02*
X150210Y127076D01*
X150210Y128045D02*
X155190Y128045D01*
X155190Y129014D02*
X150210Y129014D01*
X150210Y129983D02*
X155190Y129983D01*
X155190Y130952D02*
X150210Y130952D01*
X150210Y131921D02*
X155190Y131921D01*
X155190Y132890D02*
X150210Y132890D01*
X150210Y133859D02*
X155190Y133859D01*
X142490Y134490D02*
X137510Y134490D01*
X142490Y134490D02*
X142490Y113510D01*
X137510Y113510D01*
X137510Y134490D01*
X137510Y114479D02*
X142490Y114479D01*
X142490Y115448D02*
X137510Y115448D01*
X137510Y116417D02*
X142490Y116417D01*
X142490Y117386D02*
X137510Y117386D01*
X137510Y118355D02*
X142490Y118355D01*
X142490Y119324D02*
X137510Y119324D01*
X137510Y120293D02*
X142490Y120293D01*
X142490Y121262D02*
X137510Y121262D01*
X137510Y122231D02*
X142490Y122231D01*
X142490Y123200D02*
X137510Y123200D01*
X137510Y124169D02*
X142490Y124169D01*
X142490Y125138D02*
X137510Y125138D01*
X137510Y126107D02*
X142490Y126107D01*
X142490Y127076D02*
X137510Y127076D01*
X137510Y128045D02*
X142490Y128045D01*
X142490Y129014D02*
X137510Y129014D01*
X137510Y129983D02*
X142490Y129983D01*
X142490Y130952D02*
X137510Y130952D01*
X137510Y131921D02*
X142490Y131921D01*
X142490Y132890D02*
X137510Y132890D01*
X137510Y133859D02*
X142490Y133859D01*
X117090Y186490D02*
X112110Y186490D01*
X117090Y186490D02*
X117090Y165510D01*
X112110Y165510D01*
X112110Y186490D01*
X112110Y166479D02*
X117090Y166479D01*
X117090Y167448D02*
X112110Y167448D01*
X112110Y168417D02*
X117090Y168417D01*
X117090Y169386D02*
X112110Y169386D01*
X112110Y170355D02*
X117090Y170355D01*
X117090Y171324D02*
X112110Y171324D01*
X112110Y172293D02*
X117090Y172293D01*
X117090Y173262D02*
X112110Y173262D01*
X112110Y174231D02*
X117090Y174231D01*
X117090Y175200D02*
X112110Y175200D01*
X112110Y176169D02*
X117090Y176169D01*
X117090Y177138D02*
X112110Y177138D01*
X112110Y178107D02*
X117090Y178107D01*
X117090Y179076D02*
X112110Y179076D01*
X112110Y180045D02*
X117090Y180045D01*
X117090Y181014D02*
X112110Y181014D01*
X112110Y181983D02*
X117090Y181983D01*
X117090Y182952D02*
X112110Y182952D01*
X112110Y183921D02*
X117090Y183921D01*
X117090Y184890D02*
X112110Y184890D01*
X112110Y185859D02*
X117090Y185859D01*
X117090Y134490D02*
X112110Y134490D01*
X117090Y134490D02*
X117090Y113510D01*
X112110Y113510D01*
X112110Y134490D01*
X112110Y114479D02*
X117090Y114479D01*
X117090Y115448D02*
X112110Y115448D01*
X112110Y116417D02*
X117090Y116417D01*
X117090Y117386D02*
X112110Y117386D01*
X112110Y118355D02*
X117090Y118355D01*
X117090Y119324D02*
X112110Y119324D01*
X112110Y120293D02*
X117090Y120293D01*
X117090Y121262D02*
X112110Y121262D01*
X112110Y122231D02*
X117090Y122231D01*
X117090Y123200D02*
X112110Y123200D01*
X112110Y124169D02*
X117090Y124169D01*
X117090Y125138D02*
X112110Y125138D01*
X112110Y126107D02*
X117090Y126107D01*
X117090Y127076D02*
X112110Y127076D01*
X112110Y128045D02*
X117090Y128045D01*
X117090Y129014D02*
X112110Y129014D01*
X112110Y129983D02*
X117090Y129983D01*
X117090Y130952D02*
X112110Y130952D01*
X112110Y131921D02*
X117090Y131921D01*
X117090Y132890D02*
X112110Y132890D01*
X112110Y133859D02*
X117090Y133859D01*
X124810Y186490D02*
X129790Y186490D01*
X129790Y165510D01*
X124810Y165510D01*
X124810Y186490D01*
X124810Y166479D02*
X129790Y166479D01*
X129790Y167448D02*
X124810Y167448D01*
X124810Y168417D02*
X129790Y168417D01*
X129790Y169386D02*
X124810Y169386D01*
X124810Y170355D02*
X129790Y170355D01*
X129790Y171324D02*
X124810Y171324D01*
X124810Y172293D02*
X129790Y172293D01*
X129790Y173262D02*
X124810Y173262D01*
X124810Y174231D02*
X129790Y174231D01*
X129790Y175200D02*
X124810Y175200D01*
X124810Y176169D02*
X129790Y176169D01*
X129790Y177138D02*
X124810Y177138D01*
X124810Y178107D02*
X129790Y178107D01*
X129790Y179076D02*
X124810Y179076D01*
X124810Y180045D02*
X129790Y180045D01*
X129790Y181014D02*
X124810Y181014D01*
X124810Y181983D02*
X129790Y181983D01*
X129790Y182952D02*
X124810Y182952D01*
X124810Y183921D02*
X129790Y183921D01*
X129790Y184890D02*
X124810Y184890D01*
X124810Y185859D02*
X129790Y185859D01*
X104390Y186490D02*
X99410Y186490D01*
X104390Y186490D02*
X104390Y165510D01*
X99410Y165510D01*
X99410Y186490D01*
X99410Y166479D02*
X104390Y166479D01*
X104390Y167448D02*
X99410Y167448D01*
X99410Y168417D02*
X104390Y168417D01*
X104390Y169386D02*
X99410Y169386D01*
X99410Y170355D02*
X104390Y170355D01*
X104390Y171324D02*
X99410Y171324D01*
X99410Y172293D02*
X104390Y172293D01*
X104390Y173262D02*
X99410Y173262D01*
X99410Y174231D02*
X104390Y174231D01*
X104390Y175200D02*
X99410Y175200D01*
X99410Y176169D02*
X104390Y176169D01*
X104390Y177138D02*
X99410Y177138D01*
X99410Y178107D02*
X104390Y178107D01*
X104390Y179076D02*
X99410Y179076D01*
X99410Y180045D02*
X104390Y180045D01*
X104390Y181014D02*
X99410Y181014D01*
X99410Y181983D02*
X104390Y181983D01*
X104390Y182952D02*
X99410Y182952D01*
X99410Y183921D02*
X104390Y183921D01*
X104390Y184890D02*
X99410Y184890D01*
X99410Y185859D02*
X104390Y185859D01*
X124810Y134490D02*
X129790Y134490D01*
X129790Y113510D01*
X124810Y113510D01*
X124810Y134490D01*
X124810Y114479D02*
X129790Y114479D01*
X129790Y115448D02*
X124810Y115448D01*
X124810Y116417D02*
X129790Y116417D01*
X129790Y117386D02*
X124810Y117386D01*
X124810Y118355D02*
X129790Y118355D01*
X129790Y119324D02*
X124810Y119324D01*
X124810Y120293D02*
X129790Y120293D01*
X129790Y121262D02*
X124810Y121262D01*
X124810Y122231D02*
X129790Y122231D01*
X129790Y123200D02*
X124810Y123200D01*
X124810Y124169D02*
X129790Y124169D01*
X129790Y125138D02*
X124810Y125138D01*
X124810Y126107D02*
X129790Y126107D01*
X129790Y127076D02*
X124810Y127076D01*
X124810Y128045D02*
X129790Y128045D01*
X129790Y129014D02*
X124810Y129014D01*
X124810Y129983D02*
X129790Y129983D01*
X129790Y130952D02*
X124810Y130952D01*
X124810Y131921D02*
X129790Y131921D01*
X129790Y132890D02*
X124810Y132890D01*
X124810Y133859D02*
X129790Y133859D01*
X104390Y134490D02*
X99410Y134490D01*
X104390Y134490D02*
X104390Y113510D01*
X99410Y113510D01*
X99410Y134490D01*
X99410Y114479D02*
X104390Y114479D01*
X104390Y115448D02*
X99410Y115448D01*
X99410Y116417D02*
X104390Y116417D01*
X104390Y117386D02*
X99410Y117386D01*
X99410Y118355D02*
X104390Y118355D01*
X104390Y119324D02*
X99410Y119324D01*
X99410Y120293D02*
X104390Y120293D01*
X104390Y121262D02*
X99410Y121262D01*
X99410Y122231D02*
X104390Y122231D01*
X104390Y123200D02*
X99410Y123200D01*
X99410Y124169D02*
X104390Y124169D01*
X104390Y125138D02*
X99410Y125138D01*
X99410Y126107D02*
X104390Y126107D01*
X104390Y127076D02*
X99410Y127076D01*
X99410Y128045D02*
X104390Y128045D01*
X104390Y129014D02*
X99410Y129014D01*
X99410Y129983D02*
X104390Y129983D01*
X104390Y130952D02*
X99410Y130952D01*
X99410Y131921D02*
X104390Y131921D01*
X104390Y132890D02*
X99410Y132890D01*
X99410Y133859D02*
X104390Y133859D01*
D14*
X30605Y220000D02*
X29715Y220000D01*
D15*
X18000Y217000D02*
X18000Y223000D01*
X22000Y223000D01*
X22000Y217000D01*
X18000Y217000D01*
X18000Y220800D02*
X22000Y220800D01*
D14*
X10285Y220000D02*
X9395Y220000D01*
X29715Y245000D02*
X30605Y245000D01*
D15*
X18000Y242000D02*
X18000Y248000D01*
X22000Y248000D01*
X22000Y242000D01*
X18000Y242000D01*
X18000Y245800D02*
X22000Y245800D01*
D14*
X10285Y245000D02*
X9395Y245000D01*
D16*
X56520Y55980D02*
X63480Y55980D01*
X63480Y49020D01*
X56520Y49020D01*
X56520Y55980D01*
X56520Y50008D02*
X63480Y50008D01*
X63480Y50996D02*
X56520Y50996D01*
X56520Y51984D02*
X63480Y51984D01*
X63480Y52972D02*
X56520Y52972D01*
X56520Y53960D02*
X63480Y53960D01*
X63480Y54948D02*
X56520Y54948D01*
X56520Y55936D02*
X63480Y55936D01*
X63480Y70980D02*
X56520Y70980D01*
X63480Y70980D02*
X63480Y64020D01*
X56520Y64020D01*
X56520Y70980D01*
X56520Y65008D02*
X63480Y65008D01*
X63480Y65996D02*
X56520Y65996D01*
X56520Y66984D02*
X63480Y66984D01*
X63480Y67972D02*
X56520Y67972D01*
X56520Y68960D02*
X63480Y68960D01*
X63480Y69948D02*
X56520Y69948D01*
X56520Y70936D02*
X63480Y70936D01*
D17*
X155011Y306250D02*
X155011Y319438D01*
X158293Y319438D01*
X158293Y306250D01*
X155011Y306250D01*
X155011Y307234D02*
X158293Y307234D01*
X158293Y308218D02*
X155011Y308218D01*
X155011Y309202D02*
X158293Y309202D01*
X158293Y310186D02*
X155011Y310186D01*
X155011Y311170D02*
X158293Y311170D01*
X158293Y312154D02*
X155011Y312154D01*
X155011Y313138D02*
X158293Y313138D01*
X158293Y314122D02*
X155011Y314122D01*
X155011Y315106D02*
X158293Y315106D01*
X158293Y316090D02*
X155011Y316090D01*
X155011Y317074D02*
X158293Y317074D01*
X158293Y318058D02*
X155011Y318058D01*
X155011Y319042D02*
X158293Y319042D01*
X148661Y319438D02*
X148661Y306250D01*
X148661Y319438D02*
X151943Y319438D01*
X151943Y306250D01*
X148661Y306250D01*
X148661Y307234D02*
X151943Y307234D01*
X151943Y308218D02*
X148661Y308218D01*
X148661Y309202D02*
X151943Y309202D01*
X151943Y310186D02*
X148661Y310186D01*
X148661Y311170D02*
X151943Y311170D01*
X151943Y312154D02*
X148661Y312154D01*
X148661Y313138D02*
X151943Y313138D01*
X151943Y314122D02*
X148661Y314122D01*
X148661Y315106D02*
X151943Y315106D01*
X151943Y316090D02*
X148661Y316090D01*
X148661Y317074D02*
X151943Y317074D01*
X151943Y318058D02*
X148661Y318058D01*
X148661Y319042D02*
X151943Y319042D01*
X142057Y319438D02*
X142057Y306250D01*
X142057Y319438D02*
X145339Y319438D01*
X145339Y306250D01*
X142057Y306250D01*
X142057Y307234D02*
X145339Y307234D01*
X145339Y308218D02*
X142057Y308218D01*
X142057Y309202D02*
X145339Y309202D01*
X145339Y310186D02*
X142057Y310186D01*
X142057Y311170D02*
X145339Y311170D01*
X145339Y312154D02*
X142057Y312154D01*
X142057Y313138D02*
X145339Y313138D01*
X145339Y314122D02*
X142057Y314122D01*
X142057Y315106D02*
X145339Y315106D01*
X145339Y316090D02*
X142057Y316090D01*
X142057Y317074D02*
X145339Y317074D01*
X145339Y318058D02*
X142057Y318058D01*
X142057Y319042D02*
X145339Y319042D01*
X135707Y319438D02*
X135707Y306250D01*
X135707Y319438D02*
X138989Y319438D01*
X138989Y306250D01*
X135707Y306250D01*
X135707Y307234D02*
X138989Y307234D01*
X138989Y308218D02*
X135707Y308218D01*
X135707Y309202D02*
X138989Y309202D01*
X138989Y310186D02*
X135707Y310186D01*
X135707Y311170D02*
X138989Y311170D01*
X138989Y312154D02*
X135707Y312154D01*
X135707Y313138D02*
X138989Y313138D01*
X138989Y314122D02*
X135707Y314122D01*
X135707Y315106D02*
X138989Y315106D01*
X138989Y316090D02*
X135707Y316090D01*
X135707Y317074D02*
X138989Y317074D01*
X138989Y318058D02*
X135707Y318058D01*
X135707Y319042D02*
X138989Y319042D01*
X135707Y275750D02*
X135707Y262562D01*
X135707Y275750D02*
X138989Y275750D01*
X138989Y262562D01*
X135707Y262562D01*
X135707Y263546D02*
X138989Y263546D01*
X138989Y264530D02*
X135707Y264530D01*
X135707Y265514D02*
X138989Y265514D01*
X138989Y266498D02*
X135707Y266498D01*
X135707Y267482D02*
X138989Y267482D01*
X138989Y268466D02*
X135707Y268466D01*
X135707Y269450D02*
X138989Y269450D01*
X138989Y270434D02*
X135707Y270434D01*
X135707Y271418D02*
X138989Y271418D01*
X138989Y272402D02*
X135707Y272402D01*
X135707Y273386D02*
X138989Y273386D01*
X138989Y274370D02*
X135707Y274370D01*
X135707Y275354D02*
X138989Y275354D01*
X142057Y275750D02*
X142057Y262562D01*
X142057Y275750D02*
X145339Y275750D01*
X145339Y262562D01*
X142057Y262562D01*
X142057Y263546D02*
X145339Y263546D01*
X145339Y264530D02*
X142057Y264530D01*
X142057Y265514D02*
X145339Y265514D01*
X145339Y266498D02*
X142057Y266498D01*
X142057Y267482D02*
X145339Y267482D01*
X145339Y268466D02*
X142057Y268466D01*
X142057Y269450D02*
X145339Y269450D01*
X145339Y270434D02*
X142057Y270434D01*
X142057Y271418D02*
X145339Y271418D01*
X145339Y272402D02*
X142057Y272402D01*
X142057Y273386D02*
X145339Y273386D01*
X145339Y274370D02*
X142057Y274370D01*
X142057Y275354D02*
X145339Y275354D01*
X148661Y275750D02*
X148661Y262562D01*
X148661Y275750D02*
X151943Y275750D01*
X151943Y262562D01*
X148661Y262562D01*
X148661Y263546D02*
X151943Y263546D01*
X151943Y264530D02*
X148661Y264530D01*
X148661Y265514D02*
X151943Y265514D01*
X151943Y266498D02*
X148661Y266498D01*
X148661Y267482D02*
X151943Y267482D01*
X151943Y268466D02*
X148661Y268466D01*
X148661Y269450D02*
X151943Y269450D01*
X151943Y270434D02*
X148661Y270434D01*
X148661Y271418D02*
X151943Y271418D01*
X151943Y272402D02*
X148661Y272402D01*
X148661Y273386D02*
X151943Y273386D01*
X151943Y274370D02*
X148661Y274370D01*
X148661Y275354D02*
X151943Y275354D01*
X155011Y275750D02*
X155011Y262562D01*
X155011Y275750D02*
X158293Y275750D01*
X158293Y262562D01*
X155011Y262562D01*
X155011Y263546D02*
X158293Y263546D01*
X158293Y264530D02*
X155011Y264530D01*
X155011Y265514D02*
X158293Y265514D01*
X158293Y266498D02*
X155011Y266498D01*
X155011Y267482D02*
X158293Y267482D01*
X158293Y268466D02*
X155011Y268466D01*
X155011Y269450D02*
X158293Y269450D01*
X158293Y270434D02*
X155011Y270434D01*
X155011Y271418D02*
X158293Y271418D01*
X158293Y272402D02*
X155011Y272402D01*
X155011Y273386D02*
X158293Y273386D01*
X158293Y274370D02*
X155011Y274370D01*
X155011Y275354D02*
X158293Y275354D01*
D13*
X174010Y293510D02*
X174010Y298490D01*
X179990Y298490D01*
X179990Y293510D01*
X174010Y293510D01*
X174010Y294479D02*
X179990Y294479D01*
X179990Y295448D02*
X174010Y295448D01*
X174010Y296417D02*
X179990Y296417D01*
X179990Y297386D02*
X174010Y297386D01*
X174010Y298355D02*
X179990Y298355D01*
X174010Y288490D02*
X174010Y283510D01*
X174010Y288490D02*
X179990Y288490D01*
X179990Y283510D01*
X174010Y283510D01*
X174010Y284479D02*
X179990Y284479D01*
X179990Y285448D02*
X174010Y285448D01*
X174010Y286417D02*
X179990Y286417D01*
X179990Y287386D02*
X174010Y287386D01*
X174010Y288355D02*
X179990Y288355D01*
X107490Y97990D02*
X102510Y97990D01*
X107490Y97990D02*
X107490Y92010D01*
X102510Y92010D01*
X102510Y97990D01*
X102510Y92979D02*
X107490Y92979D01*
X107490Y93948D02*
X102510Y93948D01*
X102510Y94917D02*
X107490Y94917D01*
X107490Y95886D02*
X102510Y95886D01*
X102510Y96855D02*
X107490Y96855D01*
X107490Y97824D02*
X102510Y97824D01*
X97490Y97990D02*
X92510Y97990D01*
X97490Y97990D02*
X97490Y92010D01*
X92510Y92010D01*
X92510Y97990D01*
X92510Y92979D02*
X97490Y92979D01*
X97490Y93948D02*
X92510Y93948D01*
X92510Y94917D02*
X97490Y94917D01*
X97490Y95886D02*
X92510Y95886D01*
X92510Y96855D02*
X97490Y96855D01*
X97490Y97824D02*
X92510Y97824D01*
X92510Y67010D02*
X97490Y67010D01*
X92510Y67010D02*
X92510Y72990D01*
X97490Y72990D01*
X97490Y67010D01*
X97490Y67979D02*
X92510Y67979D01*
X92510Y68948D02*
X97490Y68948D01*
X97490Y69917D02*
X92510Y69917D01*
X92510Y70886D02*
X97490Y70886D01*
X97490Y71855D02*
X92510Y71855D01*
X92510Y72824D02*
X97490Y72824D01*
X102510Y67010D02*
X107490Y67010D01*
X102510Y67010D02*
X102510Y72990D01*
X107490Y72990D01*
X107490Y67010D01*
X107490Y67979D02*
X102510Y67979D01*
X102510Y68948D02*
X107490Y68948D01*
X107490Y69917D02*
X102510Y69917D01*
X102510Y70886D02*
X107490Y70886D01*
X107490Y71855D02*
X102510Y71855D01*
X102510Y72824D02*
X107490Y72824D01*
X82490Y192990D02*
X77510Y192990D01*
X82490Y192990D02*
X82490Y187010D01*
X77510Y187010D01*
X77510Y192990D01*
X77510Y187979D02*
X82490Y187979D01*
X82490Y188948D02*
X77510Y188948D01*
X77510Y189917D02*
X82490Y189917D01*
X82490Y190886D02*
X77510Y190886D01*
X77510Y191855D02*
X82490Y191855D01*
X82490Y192824D02*
X77510Y192824D01*
X72490Y192990D02*
X67510Y192990D01*
X72490Y192990D02*
X72490Y187010D01*
X67510Y187010D01*
X67510Y192990D01*
X67510Y187979D02*
X72490Y187979D01*
X72490Y188948D02*
X67510Y188948D01*
X67510Y189917D02*
X72490Y189917D01*
X72490Y190886D02*
X67510Y190886D01*
X67510Y191855D02*
X72490Y191855D01*
X72490Y192824D02*
X67510Y192824D01*
X99164Y241411D02*
X104144Y241411D01*
X99164Y241411D02*
X99164Y247391D01*
X104144Y247391D01*
X104144Y241411D01*
X104144Y242380D02*
X99164Y242380D01*
X99164Y243349D02*
X104144Y243349D01*
X104144Y244318D02*
X99164Y244318D01*
X99164Y245287D02*
X104144Y245287D01*
X104144Y246256D02*
X99164Y246256D01*
X99164Y247225D02*
X104144Y247225D01*
X109164Y241411D02*
X114144Y241411D01*
X109164Y241411D02*
X109164Y247391D01*
X114144Y247391D01*
X114144Y241411D01*
X114144Y242380D02*
X109164Y242380D01*
X109164Y243349D02*
X114144Y243349D01*
X114144Y244318D02*
X109164Y244318D01*
X109164Y245287D02*
X114144Y245287D01*
X114144Y246256D02*
X109164Y246256D01*
X109164Y247225D02*
X114144Y247225D01*
X67490Y217010D02*
X62510Y217010D01*
X62510Y222990D01*
X67490Y222990D01*
X67490Y217010D01*
X67490Y217979D02*
X62510Y217979D01*
X62510Y218948D02*
X67490Y218948D01*
X67490Y219917D02*
X62510Y219917D01*
X62510Y220886D02*
X67490Y220886D01*
X67490Y221855D02*
X62510Y221855D01*
X62510Y222824D02*
X67490Y222824D01*
X72510Y217010D02*
X77490Y217010D01*
X72510Y217010D02*
X72510Y222990D01*
X77490Y222990D01*
X77490Y217010D01*
X77490Y217979D02*
X72510Y217979D01*
X72510Y218948D02*
X77490Y218948D01*
X77490Y219917D02*
X72510Y219917D01*
X72510Y220886D02*
X77490Y220886D01*
X77490Y221855D02*
X72510Y221855D01*
X72510Y222824D02*
X77490Y222824D01*
X57010Y97490D02*
X57010Y92510D01*
X57010Y97490D02*
X62990Y97490D01*
X62990Y92510D01*
X57010Y92510D01*
X57010Y93479D02*
X62990Y93479D01*
X62990Y94448D02*
X57010Y94448D01*
X57010Y95417D02*
X62990Y95417D01*
X62990Y96386D02*
X57010Y96386D01*
X57010Y97355D02*
X62990Y97355D01*
X57010Y87490D02*
X57010Y82510D01*
X57010Y87490D02*
X62990Y87490D01*
X62990Y82510D01*
X57010Y82510D01*
X57010Y83479D02*
X62990Y83479D01*
X62990Y84448D02*
X57010Y84448D01*
X57010Y85417D02*
X62990Y85417D01*
X62990Y86386D02*
X57010Y86386D01*
X57010Y87355D02*
X62990Y87355D01*
X47990Y192510D02*
X47990Y197490D01*
X47990Y192510D02*
X42010Y192510D01*
X42010Y197490D01*
X47990Y197490D01*
X47990Y193479D02*
X42010Y193479D01*
X42010Y194448D02*
X47990Y194448D01*
X47990Y195417D02*
X42010Y195417D01*
X42010Y196386D02*
X47990Y196386D01*
X47990Y197355D02*
X42010Y197355D01*
X47990Y202510D02*
X47990Y207490D01*
X47990Y202510D02*
X42010Y202510D01*
X42010Y207490D01*
X47990Y207490D01*
X47990Y203479D02*
X42010Y203479D01*
X42010Y204448D02*
X47990Y204448D01*
X47990Y205417D02*
X42010Y205417D01*
X42010Y206386D02*
X47990Y206386D01*
X47990Y207355D02*
X42010Y207355D01*
X42010Y177490D02*
X42010Y172510D01*
X42010Y177490D02*
X47990Y177490D01*
X47990Y172510D01*
X42010Y172510D01*
X42010Y173479D02*
X47990Y173479D01*
X47990Y174448D02*
X42010Y174448D01*
X42010Y175417D02*
X47990Y175417D01*
X47990Y176386D02*
X42010Y176386D01*
X42010Y177355D02*
X47990Y177355D01*
X42010Y167490D02*
X42010Y162510D01*
X42010Y167490D02*
X47990Y167490D01*
X47990Y162510D01*
X42010Y162510D01*
X42010Y163479D02*
X47990Y163479D01*
X47990Y164448D02*
X42010Y164448D01*
X42010Y165417D02*
X47990Y165417D01*
X47990Y166386D02*
X42010Y166386D01*
X42010Y167355D02*
X47990Y167355D01*
X97990Y271510D02*
X97990Y276490D01*
X97990Y271510D02*
X92010Y271510D01*
X92010Y276490D01*
X97990Y276490D01*
X97990Y272479D02*
X92010Y272479D01*
X92010Y273448D02*
X97990Y273448D01*
X97990Y274417D02*
X92010Y274417D01*
X92010Y275386D02*
X97990Y275386D01*
X97990Y276355D02*
X92010Y276355D01*
X97990Y281510D02*
X97990Y286490D01*
X97990Y281510D02*
X92010Y281510D01*
X92010Y286490D01*
X97990Y286490D01*
X97990Y282479D02*
X92010Y282479D01*
X92010Y283448D02*
X97990Y283448D01*
X97990Y284417D02*
X92010Y284417D01*
X92010Y285386D02*
X97990Y285386D01*
X97990Y286355D02*
X92010Y286355D01*
X162510Y202010D02*
X167490Y202010D01*
X162510Y202010D02*
X162510Y207990D01*
X167490Y207990D01*
X167490Y202010D01*
X167490Y202979D02*
X162510Y202979D01*
X162510Y203948D02*
X167490Y203948D01*
X167490Y204917D02*
X162510Y204917D01*
X162510Y205886D02*
X167490Y205886D01*
X167490Y206855D02*
X162510Y206855D01*
X162510Y207824D02*
X167490Y207824D01*
X172510Y202010D02*
X177490Y202010D01*
X172510Y202010D02*
X172510Y207990D01*
X177490Y207990D01*
X177490Y202010D01*
X177490Y202979D02*
X172510Y202979D01*
X172510Y203948D02*
X177490Y203948D01*
X177490Y204917D02*
X172510Y204917D01*
X172510Y205886D02*
X177490Y205886D01*
X177490Y206855D02*
X172510Y206855D01*
X172510Y207824D02*
X177490Y207824D01*
X167490Y97010D02*
X162510Y97010D01*
X162510Y102990D01*
X167490Y102990D01*
X167490Y97010D01*
X167490Y97979D02*
X162510Y97979D01*
X162510Y98948D02*
X167490Y98948D01*
X167490Y99917D02*
X162510Y99917D01*
X162510Y100886D02*
X167490Y100886D01*
X167490Y101855D02*
X162510Y101855D01*
X162510Y102824D02*
X167490Y102824D01*
X172510Y97010D02*
X177490Y97010D01*
X172510Y97010D02*
X172510Y102990D01*
X177490Y102990D01*
X177490Y97010D01*
X177490Y97979D02*
X172510Y97979D01*
X172510Y98948D02*
X177490Y98948D01*
X177490Y99917D02*
X172510Y99917D01*
X172510Y100886D02*
X177490Y100886D01*
X177490Y101855D02*
X172510Y101855D01*
X172510Y102824D02*
X177490Y102824D01*
X122010Y237510D02*
X122010Y242490D01*
X127990Y242490D01*
X127990Y237510D01*
X122010Y237510D01*
X122010Y238479D02*
X127990Y238479D01*
X127990Y239448D02*
X122010Y239448D01*
X122010Y240417D02*
X127990Y240417D01*
X127990Y241386D02*
X122010Y241386D01*
X122010Y242355D02*
X127990Y242355D01*
X122010Y232490D02*
X122010Y227510D01*
X122010Y232490D02*
X127990Y232490D01*
X127990Y227510D01*
X122010Y227510D01*
X122010Y228479D02*
X127990Y228479D01*
X127990Y229448D02*
X122010Y229448D01*
X122010Y230417D02*
X127990Y230417D01*
X127990Y231386D02*
X122010Y231386D01*
X122010Y232355D02*
X127990Y232355D01*
X172510Y232990D02*
X177490Y232990D01*
X177490Y227010D01*
X172510Y227010D01*
X172510Y232990D01*
X172510Y227979D02*
X177490Y227979D01*
X177490Y228948D02*
X172510Y228948D01*
X172510Y229917D02*
X177490Y229917D01*
X177490Y230886D02*
X172510Y230886D01*
X172510Y231855D02*
X177490Y231855D01*
X177490Y232824D02*
X172510Y232824D01*
X167490Y232990D02*
X162510Y232990D01*
X167490Y232990D02*
X167490Y227010D01*
X162510Y227010D01*
X162510Y232990D01*
X162510Y227979D02*
X167490Y227979D01*
X167490Y228948D02*
X162510Y228948D01*
X162510Y229917D02*
X167490Y229917D01*
X167490Y230886D02*
X162510Y230886D01*
X162510Y231855D02*
X167490Y231855D01*
X167490Y232824D02*
X162510Y232824D01*
X67490Y247990D02*
X62510Y247990D01*
X67490Y247990D02*
X67490Y242010D01*
X62510Y242010D01*
X62510Y247990D01*
X62510Y242979D02*
X67490Y242979D01*
X67490Y243948D02*
X62510Y243948D01*
X62510Y244917D02*
X67490Y244917D01*
X67490Y245886D02*
X62510Y245886D01*
X62510Y246855D02*
X67490Y246855D01*
X67490Y247824D02*
X62510Y247824D01*
X57490Y247990D02*
X52510Y247990D01*
X57490Y247990D02*
X57490Y242010D01*
X52510Y242010D01*
X52510Y247990D01*
X52510Y242979D02*
X57490Y242979D01*
X57490Y243948D02*
X52510Y243948D01*
X52510Y244917D02*
X57490Y244917D01*
X57490Y245886D02*
X52510Y245886D01*
X52510Y246855D02*
X57490Y246855D01*
X57490Y247824D02*
X52510Y247824D01*
X97010Y217490D02*
X97010Y212510D01*
X97010Y217490D02*
X102990Y217490D01*
X102990Y212510D01*
X97010Y212510D01*
X97010Y213479D02*
X102990Y213479D01*
X102990Y214448D02*
X97010Y214448D01*
X97010Y215417D02*
X102990Y215417D01*
X102990Y216386D02*
X97010Y216386D01*
X97010Y217355D02*
X102990Y217355D01*
X97010Y207490D02*
X97010Y202510D01*
X97010Y207490D02*
X102990Y207490D01*
X102990Y202510D01*
X97010Y202510D01*
X97010Y203479D02*
X102990Y203479D01*
X102990Y204448D02*
X97010Y204448D01*
X97010Y205417D02*
X102990Y205417D01*
X102990Y206386D02*
X97010Y206386D01*
X97010Y207355D02*
X102990Y207355D01*
X66490Y120010D02*
X61510Y120010D01*
X61510Y125990D01*
X66490Y125990D01*
X66490Y120010D01*
X66490Y120979D02*
X61510Y120979D01*
X61510Y121948D02*
X66490Y121948D01*
X66490Y122917D02*
X61510Y122917D01*
X61510Y123886D02*
X66490Y123886D01*
X66490Y124855D02*
X61510Y124855D01*
X61510Y125824D02*
X66490Y125824D01*
X71510Y120010D02*
X76490Y120010D01*
X71510Y120010D02*
X71510Y125990D01*
X76490Y125990D01*
X76490Y120010D01*
X76490Y120979D02*
X71510Y120979D01*
X71510Y121948D02*
X76490Y121948D01*
X76490Y122917D02*
X71510Y122917D01*
X71510Y123886D02*
X76490Y123886D01*
X76490Y124855D02*
X71510Y124855D01*
X71510Y125824D02*
X76490Y125824D01*
D17*
X170520Y82693D02*
X175580Y82693D01*
X175580Y61631D01*
X170520Y61631D01*
X170520Y82693D01*
X170520Y62615D02*
X175580Y62615D01*
X175580Y63599D02*
X170520Y63599D01*
X170520Y64583D02*
X175580Y64583D01*
X175580Y65567D02*
X170520Y65567D01*
X170520Y66551D02*
X175580Y66551D01*
X175580Y67535D02*
X170520Y67535D01*
X170520Y68519D02*
X175580Y68519D01*
X175580Y69503D02*
X170520Y69503D01*
X170520Y70487D02*
X175580Y70487D01*
X175580Y71471D02*
X170520Y71471D01*
X170520Y72455D02*
X175580Y72455D01*
X175580Y73439D02*
X170520Y73439D01*
X170520Y74423D02*
X175580Y74423D01*
X175580Y75407D02*
X170520Y75407D01*
X170520Y76391D02*
X175580Y76391D01*
X175580Y77375D02*
X170520Y77375D01*
X170520Y78359D02*
X175580Y78359D01*
X175580Y79343D02*
X170520Y79343D01*
X170520Y80327D02*
X175580Y80327D01*
X175580Y81311D02*
X170520Y81311D01*
X170520Y82295D02*
X175580Y82295D01*
X175580Y30369D02*
X170520Y30369D01*
X175580Y30369D02*
X175580Y9307D01*
X170520Y9307D01*
X170520Y30369D01*
X170520Y10291D02*
X175580Y10291D01*
X175580Y11275D02*
X170520Y11275D01*
X170520Y12259D02*
X175580Y12259D01*
X175580Y13243D02*
X170520Y13243D01*
X170520Y14227D02*
X175580Y14227D01*
X175580Y15211D02*
X170520Y15211D01*
X170520Y16195D02*
X175580Y16195D01*
X175580Y17179D02*
X170520Y17179D01*
X170520Y18163D02*
X175580Y18163D01*
X175580Y19147D02*
X170520Y19147D01*
X170520Y20131D02*
X175580Y20131D01*
X175580Y21115D02*
X170520Y21115D01*
X170520Y22099D02*
X175580Y22099D01*
X175580Y23083D02*
X170520Y23083D01*
X170520Y24067D02*
X175580Y24067D01*
X175580Y25051D02*
X170520Y25051D01*
X170520Y26035D02*
X175580Y26035D01*
X175580Y27019D02*
X170520Y27019D01*
X170520Y28003D02*
X175580Y28003D01*
X175580Y28987D02*
X170520Y28987D01*
X170520Y29971D02*
X175580Y29971D01*
X162880Y82693D02*
X157820Y82693D01*
X162880Y82693D02*
X162880Y61631D01*
X157820Y61631D01*
X157820Y82693D01*
X157820Y62615D02*
X162880Y62615D01*
X162880Y63599D02*
X157820Y63599D01*
X157820Y64583D02*
X162880Y64583D01*
X162880Y65567D02*
X157820Y65567D01*
X157820Y66551D02*
X162880Y66551D01*
X162880Y67535D02*
X157820Y67535D01*
X157820Y68519D02*
X162880Y68519D01*
X162880Y69503D02*
X157820Y69503D01*
X157820Y70487D02*
X162880Y70487D01*
X162880Y71471D02*
X157820Y71471D01*
X157820Y72455D02*
X162880Y72455D01*
X162880Y73439D02*
X157820Y73439D01*
X157820Y74423D02*
X162880Y74423D01*
X162880Y75407D02*
X157820Y75407D01*
X157820Y76391D02*
X162880Y76391D01*
X162880Y77375D02*
X157820Y77375D01*
X157820Y78359D02*
X162880Y78359D01*
X162880Y79343D02*
X157820Y79343D01*
X157820Y80327D02*
X162880Y80327D01*
X162880Y81311D02*
X157820Y81311D01*
X157820Y82295D02*
X162880Y82295D01*
X150180Y82693D02*
X145120Y82693D01*
X150180Y82693D02*
X150180Y61631D01*
X145120Y61631D01*
X145120Y82693D01*
X145120Y62615D02*
X150180Y62615D01*
X150180Y63599D02*
X145120Y63599D01*
X145120Y64583D02*
X150180Y64583D01*
X150180Y65567D02*
X145120Y65567D01*
X145120Y66551D02*
X150180Y66551D01*
X150180Y67535D02*
X145120Y67535D01*
X145120Y68519D02*
X150180Y68519D01*
X150180Y69503D02*
X145120Y69503D01*
X145120Y70487D02*
X150180Y70487D01*
X150180Y71471D02*
X145120Y71471D01*
X145120Y72455D02*
X150180Y72455D01*
X150180Y73439D02*
X145120Y73439D01*
X145120Y74423D02*
X150180Y74423D01*
X150180Y75407D02*
X145120Y75407D01*
X145120Y76391D02*
X150180Y76391D01*
X150180Y77375D02*
X145120Y77375D01*
X145120Y78359D02*
X150180Y78359D01*
X150180Y79343D02*
X145120Y79343D01*
X145120Y80327D02*
X150180Y80327D01*
X150180Y81311D02*
X145120Y81311D01*
X145120Y82295D02*
X150180Y82295D01*
X157820Y30369D02*
X162880Y30369D01*
X162880Y9307D01*
X157820Y9307D01*
X157820Y30369D01*
X157820Y10291D02*
X162880Y10291D01*
X162880Y11275D02*
X157820Y11275D01*
X157820Y12259D02*
X162880Y12259D01*
X162880Y13243D02*
X157820Y13243D01*
X157820Y14227D02*
X162880Y14227D01*
X162880Y15211D02*
X157820Y15211D01*
X157820Y16195D02*
X162880Y16195D01*
X162880Y17179D02*
X157820Y17179D01*
X157820Y18163D02*
X162880Y18163D01*
X162880Y19147D02*
X157820Y19147D01*
X157820Y20131D02*
X162880Y20131D01*
X162880Y21115D02*
X157820Y21115D01*
X157820Y22099D02*
X162880Y22099D01*
X162880Y23083D02*
X157820Y23083D01*
X157820Y24067D02*
X162880Y24067D01*
X162880Y25051D02*
X157820Y25051D01*
X157820Y26035D02*
X162880Y26035D01*
X162880Y27019D02*
X157820Y27019D01*
X157820Y28003D02*
X162880Y28003D01*
X162880Y28987D02*
X157820Y28987D01*
X157820Y29971D02*
X162880Y29971D01*
X150180Y30369D02*
X145120Y30369D01*
X150180Y30369D02*
X150180Y9307D01*
X145120Y9307D01*
X145120Y30369D01*
X145120Y10291D02*
X150180Y10291D01*
X150180Y11275D02*
X145120Y11275D01*
X145120Y12259D02*
X150180Y12259D01*
X150180Y13243D02*
X145120Y13243D01*
X145120Y14227D02*
X150180Y14227D01*
X150180Y15211D02*
X145120Y15211D01*
X145120Y16195D02*
X150180Y16195D01*
X150180Y17179D02*
X145120Y17179D01*
X145120Y18163D02*
X150180Y18163D01*
X150180Y19147D02*
X145120Y19147D01*
X145120Y20131D02*
X150180Y20131D01*
X150180Y21115D02*
X145120Y21115D01*
X145120Y22099D02*
X150180Y22099D01*
X150180Y23083D02*
X145120Y23083D01*
X145120Y24067D02*
X150180Y24067D01*
X150180Y25051D02*
X145120Y25051D01*
X145120Y26035D02*
X150180Y26035D01*
X150180Y27019D02*
X145120Y27019D01*
X145120Y28003D02*
X150180Y28003D01*
X150180Y28987D02*
X145120Y28987D01*
X145120Y29971D02*
X150180Y29971D01*
X137480Y82693D02*
X132420Y82693D01*
X137480Y82693D02*
X137480Y61631D01*
X132420Y61631D01*
X132420Y82693D01*
X132420Y62615D02*
X137480Y62615D01*
X137480Y63599D02*
X132420Y63599D01*
X132420Y64583D02*
X137480Y64583D01*
X137480Y65567D02*
X132420Y65567D01*
X132420Y66551D02*
X137480Y66551D01*
X137480Y67535D02*
X132420Y67535D01*
X132420Y68519D02*
X137480Y68519D01*
X137480Y69503D02*
X132420Y69503D01*
X132420Y70487D02*
X137480Y70487D01*
X137480Y71471D02*
X132420Y71471D01*
X132420Y72455D02*
X137480Y72455D01*
X137480Y73439D02*
X132420Y73439D01*
X132420Y74423D02*
X137480Y74423D01*
X137480Y75407D02*
X132420Y75407D01*
X132420Y76391D02*
X137480Y76391D01*
X137480Y77375D02*
X132420Y77375D01*
X132420Y78359D02*
X137480Y78359D01*
X137480Y79343D02*
X132420Y79343D01*
X132420Y80327D02*
X137480Y80327D01*
X137480Y81311D02*
X132420Y81311D01*
X132420Y82295D02*
X137480Y82295D01*
X137480Y30369D02*
X132420Y30369D01*
X137480Y30369D02*
X137480Y9307D01*
X132420Y9307D01*
X132420Y30369D01*
X132420Y10291D02*
X137480Y10291D01*
X137480Y11275D02*
X132420Y11275D01*
X132420Y12259D02*
X137480Y12259D01*
X137480Y13243D02*
X132420Y13243D01*
X132420Y14227D02*
X137480Y14227D01*
X137480Y15211D02*
X132420Y15211D01*
X132420Y16195D02*
X137480Y16195D01*
X137480Y17179D02*
X132420Y17179D01*
X132420Y18163D02*
X137480Y18163D01*
X137480Y19147D02*
X132420Y19147D01*
X132420Y20131D02*
X137480Y20131D01*
X137480Y21115D02*
X132420Y21115D01*
X132420Y22099D02*
X137480Y22099D01*
X137480Y23083D02*
X132420Y23083D01*
X132420Y24067D02*
X137480Y24067D01*
X137480Y25051D02*
X132420Y25051D01*
X132420Y26035D02*
X137480Y26035D01*
X137480Y27019D02*
X132420Y27019D01*
X132420Y28003D02*
X137480Y28003D01*
X137480Y28987D02*
X132420Y28987D01*
X132420Y29971D02*
X137480Y29971D01*
D18*
X226460Y108840D02*
X226460Y125760D01*
X226460Y108840D02*
X197540Y108840D01*
X197540Y125760D01*
X226460Y125760D01*
X226460Y109866D02*
X197540Y109866D01*
X197540Y110892D02*
X226460Y110892D01*
X226460Y111918D02*
X197540Y111918D01*
X197540Y112944D02*
X226460Y112944D01*
X226460Y113970D02*
X197540Y113970D01*
X197540Y114996D02*
X226460Y114996D01*
X226460Y116022D02*
X197540Y116022D01*
X197540Y117048D02*
X226460Y117048D01*
X226460Y118074D02*
X197540Y118074D01*
X197540Y119100D02*
X226460Y119100D01*
X226460Y120126D02*
X197540Y120126D01*
X197540Y121152D02*
X226460Y121152D01*
X226460Y122178D02*
X197540Y122178D01*
X197540Y123204D02*
X226460Y123204D01*
X226460Y124230D02*
X197540Y124230D01*
X197540Y125256D02*
X226460Y125256D01*
X226460Y134240D02*
X226460Y151160D01*
X226460Y134240D02*
X197540Y134240D01*
X197540Y151160D01*
X226460Y151160D01*
X226460Y135266D02*
X197540Y135266D01*
X197540Y136292D02*
X226460Y136292D01*
X226460Y137318D02*
X197540Y137318D01*
X197540Y138344D02*
X226460Y138344D01*
X226460Y139370D02*
X197540Y139370D01*
X197540Y140396D02*
X226460Y140396D01*
X226460Y141422D02*
X197540Y141422D01*
X197540Y142448D02*
X226460Y142448D01*
X226460Y143474D02*
X197540Y143474D01*
X197540Y144500D02*
X226460Y144500D01*
X226460Y145526D02*
X197540Y145526D01*
X197540Y146552D02*
X226460Y146552D01*
X226460Y147578D02*
X197540Y147578D01*
X197540Y148604D02*
X226460Y148604D01*
X226460Y149630D02*
X197540Y149630D01*
X197540Y150656D02*
X226460Y150656D01*
X197540Y184240D02*
X197540Y201160D01*
X226460Y201160D01*
X226460Y184240D01*
X197540Y184240D01*
X197540Y185266D02*
X226460Y185266D01*
X226460Y186292D02*
X197540Y186292D01*
X197540Y187318D02*
X226460Y187318D01*
X226460Y188344D02*
X197540Y188344D01*
X197540Y189370D02*
X226460Y189370D01*
X226460Y190396D02*
X197540Y190396D01*
X197540Y191422D02*
X226460Y191422D01*
X226460Y192448D02*
X197540Y192448D01*
X197540Y193474D02*
X226460Y193474D01*
X226460Y194500D02*
X197540Y194500D01*
X197540Y195526D02*
X226460Y195526D01*
X226460Y196552D02*
X197540Y196552D01*
X197540Y197578D02*
X226460Y197578D01*
X226460Y198604D02*
X197540Y198604D01*
X197540Y199630D02*
X226460Y199630D01*
X226460Y200656D02*
X197540Y200656D01*
X197540Y175760D02*
X197540Y158840D01*
X197540Y175760D02*
X226460Y175760D01*
X226460Y158840D01*
X197540Y158840D01*
X197540Y159866D02*
X226460Y159866D01*
X226460Y160892D02*
X197540Y160892D01*
X197540Y161918D02*
X226460Y161918D01*
X226460Y162944D02*
X197540Y162944D01*
X197540Y163970D02*
X226460Y163970D01*
X226460Y164996D02*
X197540Y164996D01*
X197540Y166022D02*
X226460Y166022D01*
X226460Y167048D02*
X197540Y167048D01*
X197540Y168074D02*
X226460Y168074D01*
X226460Y169100D02*
X197540Y169100D01*
X197540Y170126D02*
X226460Y170126D01*
X226460Y171152D02*
X197540Y171152D01*
X197540Y172178D02*
X226460Y172178D01*
X226460Y173204D02*
X197540Y173204D01*
X197540Y174230D02*
X226460Y174230D01*
X226460Y175256D02*
X197540Y175256D01*
X32460Y125760D02*
X32460Y108840D01*
X3540Y108840D01*
X3540Y125760D01*
X32460Y125760D01*
X32460Y109866D02*
X3540Y109866D01*
X3540Y110892D02*
X32460Y110892D01*
X32460Y111918D02*
X3540Y111918D01*
X3540Y112944D02*
X32460Y112944D01*
X32460Y113970D02*
X3540Y113970D01*
X3540Y114996D02*
X32460Y114996D01*
X32460Y116022D02*
X3540Y116022D01*
X3540Y117048D02*
X32460Y117048D01*
X32460Y118074D02*
X3540Y118074D01*
X3540Y119100D02*
X32460Y119100D01*
X32460Y120126D02*
X3540Y120126D01*
X3540Y121152D02*
X32460Y121152D01*
X32460Y122178D02*
X3540Y122178D01*
X3540Y123204D02*
X32460Y123204D01*
X32460Y124230D02*
X3540Y124230D01*
X3540Y125256D02*
X32460Y125256D01*
X32460Y134240D02*
X32460Y151160D01*
X32460Y134240D02*
X3540Y134240D01*
X3540Y151160D01*
X32460Y151160D01*
X32460Y135266D02*
X3540Y135266D01*
X3540Y136292D02*
X32460Y136292D01*
X32460Y137318D02*
X3540Y137318D01*
X3540Y138344D02*
X32460Y138344D01*
X32460Y139370D02*
X3540Y139370D01*
X3540Y140396D02*
X32460Y140396D01*
X32460Y141422D02*
X3540Y141422D01*
X3540Y142448D02*
X32460Y142448D01*
X32460Y143474D02*
X3540Y143474D01*
X3540Y144500D02*
X32460Y144500D01*
X32460Y145526D02*
X3540Y145526D01*
X3540Y146552D02*
X32460Y146552D01*
X32460Y147578D02*
X3540Y147578D01*
X3540Y148604D02*
X32460Y148604D01*
X32460Y149630D02*
X3540Y149630D01*
X3540Y150656D02*
X32460Y150656D01*
X3540Y184240D02*
X3540Y201160D01*
X32460Y201160D01*
X32460Y184240D01*
X3540Y184240D01*
X3540Y185266D02*
X32460Y185266D01*
X32460Y186292D02*
X3540Y186292D01*
X3540Y187318D02*
X32460Y187318D01*
X32460Y188344D02*
X3540Y188344D01*
X3540Y189370D02*
X32460Y189370D01*
X32460Y190396D02*
X3540Y190396D01*
X3540Y191422D02*
X32460Y191422D01*
X32460Y192448D02*
X3540Y192448D01*
X3540Y193474D02*
X32460Y193474D01*
X32460Y194500D02*
X3540Y194500D01*
X3540Y195526D02*
X32460Y195526D01*
X32460Y196552D02*
X3540Y196552D01*
X3540Y197578D02*
X32460Y197578D01*
X32460Y198604D02*
X3540Y198604D01*
X3540Y199630D02*
X32460Y199630D01*
X32460Y200656D02*
X3540Y200656D01*
X3540Y175760D02*
X3540Y158840D01*
X3540Y175760D02*
X32460Y175760D01*
X32460Y158840D01*
X3540Y158840D01*
X3540Y159866D02*
X32460Y159866D01*
X32460Y160892D02*
X3540Y160892D01*
X3540Y161918D02*
X32460Y161918D01*
X32460Y162944D02*
X3540Y162944D01*
X3540Y163970D02*
X32460Y163970D01*
X32460Y164996D02*
X3540Y164996D01*
X3540Y166022D02*
X32460Y166022D01*
X32460Y167048D02*
X3540Y167048D01*
X3540Y168074D02*
X32460Y168074D01*
X32460Y169100D02*
X3540Y169100D01*
X3540Y170126D02*
X32460Y170126D01*
X32460Y171152D02*
X3540Y171152D01*
X3540Y172178D02*
X32460Y172178D01*
X32460Y173204D02*
X3540Y173204D01*
X3540Y174230D02*
X32460Y174230D01*
X32460Y175256D02*
X3540Y175256D01*
D19*
X65000Y20000D03*
X155083Y332983D03*
X135000Y207000D03*
D20*
X66040Y52070D02*
X60960Y52070D01*
X66040Y52070D02*
X93980Y24130D01*
X60960Y52070D02*
X60000Y52500D01*
X93980Y24130D02*
X95000Y23500D01*
X101600Y30480D02*
X114300Y30480D01*
X101600Y30480D02*
X95250Y24130D01*
X114300Y30480D02*
X115000Y31500D01*
X95250Y24130D02*
X95000Y23500D01*
X19050Y109220D02*
X19050Y116840D01*
X19050Y109220D02*
X53340Y74930D01*
X53340Y59690D01*
X59690Y53340D01*
X60000Y52500D01*
X210820Y109220D02*
X210820Y116840D01*
X210820Y109220D02*
X181610Y80010D01*
X181610Y59690D01*
X154940Y33020D01*
X116840Y33020D01*
X115570Y31750D01*
X210820Y116840D02*
X212000Y117300D01*
X115570Y31750D02*
X115000Y31500D01*
X110490Y339090D02*
X127000Y339090D01*
X110490Y339090D02*
X110000Y338500D01*
X127000Y339090D02*
X128000Y339000D01*
X128270Y311150D02*
X135890Y311150D01*
X137160Y312420D01*
X122376Y309182D02*
X113378Y300184D01*
X122376Y309182D02*
X135890Y311150D01*
X137160Y312420D02*
X137348Y312844D01*
X128270Y311150D02*
X128270Y337820D01*
X128000Y339000D01*
X29210Y219710D02*
X26670Y217170D01*
X26670Y215900D01*
X22860Y212090D01*
X29210Y219710D02*
X30160Y220000D01*
X30480Y243840D02*
X30160Y245000D01*
X140970Y123190D02*
X140970Y114300D01*
X146050Y109220D01*
X183170Y108365D02*
X183170Y99105D01*
X160350Y74570D02*
X160350Y72162D01*
X160350Y74570D02*
X160350Y76286D01*
X140970Y123190D02*
X140000Y124000D01*
X22860Y205740D02*
X22860Y212090D01*
X19050Y116840D02*
X38100Y116840D01*
X19050Y116840D02*
X18000Y117300D01*
D21*
X146050Y109220D03*
X183170Y108365D03*
X22860Y205740D03*
X115504Y259019D03*
X38100Y116840D03*
D22*
X39759Y255612D03*
D23*
X30160Y246013D02*
X30160Y245000D01*
X30160Y246013D02*
X39759Y255612D01*
X77000Y294653D02*
X77000Y306750D01*
X77000Y294653D02*
X78781Y292873D01*
X106067Y292873D01*
X113378Y300184D01*
X106067Y268456D02*
X115504Y259019D01*
X106067Y268456D02*
X106067Y292873D01*
X183170Y99105D02*
X183170Y96027D01*
X176856Y89713D02*
X167059Y89713D01*
X160350Y83004D01*
X160350Y74570D01*
X176856Y89713D02*
X183170Y96027D01*
D20*
X146206Y279244D02*
X121319Y279244D01*
X113378Y287184D01*
X146206Y279244D02*
X149860Y275590D01*
X149860Y269240D01*
X150302Y269156D01*
X127000Y351790D02*
X110490Y351790D01*
X110000Y351500D01*
X127000Y351790D02*
X128000Y352000D01*
X106680Y347980D02*
X87630Y347980D01*
X106680Y347980D02*
X109220Y350520D01*
X87630Y347980D02*
X87000Y347250D01*
X109220Y350520D02*
X110000Y351500D01*
X45720Y180340D02*
X45720Y175260D01*
X45720Y180340D02*
X50800Y185420D01*
X50800Y190500D01*
X45720Y195580D01*
X45720Y175260D02*
X45000Y175000D01*
X45000Y195000D02*
X45720Y195580D01*
X17780Y228600D02*
X10160Y220980D01*
X17780Y228600D02*
X17780Y229870D01*
X10160Y220980D02*
X9840Y220000D01*
X39370Y189230D02*
X44450Y194310D01*
X39370Y189230D02*
X38100Y189230D01*
X44450Y194310D02*
X45000Y195000D01*
X86360Y347980D02*
X86360Y354330D01*
X80257Y360433D01*
X63495Y360433D01*
X46875Y343813D01*
X86360Y347980D02*
X87000Y347250D01*
X113378Y287184D02*
X124772Y275790D01*
X124772Y258785D01*
X140970Y181610D02*
X140970Y176530D01*
X140970Y181610D02*
X148590Y189230D01*
X156210Y189230D01*
X160020Y185420D01*
X160020Y163830D01*
X180340Y143510D01*
X192607Y143510D02*
X210820Y143510D01*
X192607Y143510D02*
X180340Y143510D01*
X140970Y176530D02*
X140000Y176000D01*
X210820Y143510D02*
X212000Y142700D01*
X59690Y102870D02*
X59690Y95250D01*
X21590Y140970D02*
X19050Y143510D01*
X21590Y140970D02*
X59690Y102870D01*
X59690Y95250D02*
X60000Y95000D01*
X19050Y143510D02*
X18000Y142700D01*
X93980Y60960D02*
X93980Y58420D01*
X93980Y36830D01*
X93980Y60960D02*
X60960Y93980D01*
X93980Y36830D02*
X95000Y36500D01*
X60960Y93980D02*
X60000Y95000D01*
X147320Y71120D02*
X147320Y67310D01*
X138430Y58420D01*
X93980Y58420D01*
X147320Y71120D02*
X147650Y72162D01*
X192607Y94817D02*
X192607Y143510D01*
X192607Y94817D02*
X179070Y81280D01*
X179070Y60960D01*
X176530Y58420D01*
X156210Y58420D01*
X147320Y67310D01*
X147650Y72162D01*
X38100Y157480D02*
X21590Y140970D01*
X18000Y142700D01*
D21*
X17780Y229870D03*
X38100Y189230D03*
X124772Y258785D03*
X38100Y157480D03*
D23*
X9840Y237810D02*
X9840Y245000D01*
X9840Y237810D02*
X17780Y229870D01*
X22564Y267908D02*
X29219Y267908D01*
X9840Y255184D02*
X9840Y245000D01*
X9840Y255184D02*
X22564Y267908D01*
X29219Y267908D02*
X46875Y285565D01*
X46875Y343813D01*
D20*
X110490Y204470D02*
X114300Y200660D01*
X110490Y204470D02*
X100330Y214630D01*
X114300Y200660D02*
X114300Y176530D01*
X100330Y214630D02*
X100000Y215000D01*
X114300Y176530D02*
X114600Y176000D01*
X71120Y243840D02*
X66040Y243840D01*
X71120Y243840D02*
X99060Y215900D01*
X66040Y243840D02*
X65000Y245000D01*
X99060Y215900D02*
X100000Y215000D01*
X158750Y231140D02*
X163830Y231140D01*
X158750Y231140D02*
X149860Y240030D01*
X140970Y240030D01*
X130810Y229870D01*
X130810Y224790D01*
X110490Y204470D01*
X163830Y231140D02*
X165000Y230000D01*
X66040Y166370D02*
X66040Y161290D01*
X59690Y154940D01*
X59690Y144780D01*
X59690Y130810D02*
X59690Y127000D01*
X63500Y123190D01*
X66040Y166370D02*
X66750Y166500D01*
X63500Y123190D02*
X64000Y123000D01*
X55880Y177800D02*
X55880Y243840D01*
X55880Y177800D02*
X58420Y175260D01*
X58420Y170180D01*
X52070Y163830D01*
X52070Y138430D01*
X59690Y130810D01*
X55880Y243840D02*
X55000Y245000D01*
D21*
X59690Y144780D03*
X59690Y130810D03*
D20*
X67310Y153670D02*
X67310Y158750D01*
X74930Y166370D01*
X74930Y204470D02*
X74930Y219710D01*
X74930Y204470D02*
X74930Y166370D01*
X67310Y153670D02*
X66750Y153500D01*
X74930Y219710D02*
X75000Y220000D01*
X74930Y204470D02*
X99060Y204470D01*
X100000Y205000D01*
X105410Y110490D02*
X105410Y95250D01*
X105410Y110490D02*
X114300Y119380D01*
X114300Y123190D01*
X105410Y95250D02*
X105000Y95000D01*
X114300Y123190D02*
X114600Y124000D01*
X83820Y123190D02*
X74930Y123190D01*
X83820Y123190D02*
X97790Y137160D01*
X105410Y137160D01*
X114300Y128270D01*
X114300Y124460D01*
X74930Y123190D02*
X74000Y123000D01*
X114300Y124460D02*
X114600Y124000D01*
X95250Y93980D02*
X95250Y71120D01*
X95000Y70000D01*
X95250Y93980D02*
X95000Y95000D01*
X95250Y95250D02*
X95250Y116840D01*
X101600Y123190D01*
X95250Y95250D02*
X95000Y95000D01*
X101600Y123190D02*
X101900Y124000D01*
X93980Y284480D02*
X74930Y284480D01*
X93980Y284480D02*
X95000Y284000D01*
X74930Y284480D02*
X74000Y285000D01*
X137348Y269156D02*
X137348Y264491D01*
X126680Y253823D01*
X113243Y253823D01*
X101439Y265626D01*
D23*
X101439Y277561D02*
X95000Y284000D01*
X101439Y277561D02*
X101439Y265626D01*
D20*
X132080Y246380D02*
X144780Y246380D01*
X145000Y246500D01*
X208280Y220980D02*
X210820Y220980D01*
X208280Y220980D02*
X182880Y246380D01*
X146050Y246380D01*
X210820Y220980D02*
X211500Y220000D01*
X146050Y246380D02*
X145000Y246500D01*
D23*
X131380Y246380D02*
X125000Y240000D01*
X131380Y246380D02*
X132080Y246380D01*
X125000Y240000D02*
X116055Y240000D01*
X111654Y244401D01*
D20*
X165100Y204470D02*
X165100Y176530D01*
X165100Y204470D02*
X165000Y205000D01*
X165100Y176530D02*
X165400Y176000D01*
X146050Y223520D02*
X146050Y232410D01*
X146050Y223520D02*
X163830Y205740D01*
X146050Y232410D02*
X145000Y233500D01*
X163830Y205740D02*
X165000Y205000D01*
X175260Y227330D02*
X175260Y229870D01*
X175260Y227330D02*
X175260Y205740D01*
X175000Y205000D01*
X175260Y229870D02*
X175000Y230000D01*
X190500Y220980D02*
X198120Y220980D01*
X190500Y220980D02*
X184150Y227330D01*
X175260Y227330D01*
X198120Y220980D02*
X198500Y220000D01*
X175260Y227330D02*
X175000Y230000D01*
X82550Y299720D02*
X82550Y306070D01*
X82550Y299720D02*
X85090Y297180D01*
X88900Y297180D01*
X102870Y311150D01*
X102870Y342900D01*
X105410Y345440D01*
X163830Y345440D01*
X186690Y322580D01*
X186690Y255270D01*
X217170Y224790D01*
X217170Y214630D01*
X215900Y213360D01*
X205740Y213360D01*
X199390Y219710D01*
X82550Y306070D02*
X82000Y306750D01*
X198500Y220000D02*
X199390Y219710D01*
X177800Y201930D02*
X177800Y176530D01*
X177800Y201930D02*
X175260Y204470D01*
X177800Y176530D02*
X178100Y176000D01*
X175260Y204470D02*
X175000Y205000D01*
X105410Y76200D02*
X105410Y71120D01*
X105410Y76200D02*
X128270Y99060D01*
X105410Y71120D02*
X105000Y70000D01*
X128270Y99060D02*
X128500Y100000D01*
X165100Y100330D02*
X165100Y123190D01*
X165100Y100330D02*
X165000Y100000D01*
X165100Y123190D02*
X165400Y124000D01*
X135890Y92710D02*
X129540Y99060D01*
X135890Y92710D02*
X157480Y92710D01*
X163830Y99060D01*
X129540Y99060D02*
X128500Y100000D01*
X163830Y99060D02*
X165000Y100000D01*
X175260Y100330D02*
X175260Y120650D01*
X177800Y123190D01*
X175260Y100330D02*
X175000Y100000D01*
X177800Y123190D02*
X178100Y124000D01*
X146050Y100330D02*
X142240Y100330D01*
X146050Y100330D02*
X160020Y114300D01*
X160020Y135890D01*
X161290Y137160D01*
X168910Y137160D01*
X177800Y128270D01*
X177800Y124460D01*
X142240Y100330D02*
X141500Y100000D01*
X178100Y124000D02*
X177800Y124460D01*
X49530Y248893D02*
X58537Y257900D01*
X49530Y248893D02*
X49530Y209550D01*
X53340Y205740D01*
X53340Y172720D01*
X128270Y139700D02*
X134620Y133350D01*
X134620Y106680D01*
X140970Y100330D01*
X141500Y100000D01*
D21*
X53340Y172720D03*
X128270Y139700D03*
D23*
X67000Y293022D02*
X67000Y306750D01*
X67000Y293022D02*
X64643Y290665D01*
X64643Y264006D02*
X58537Y257900D01*
X64643Y264006D02*
X64643Y290665D01*
D20*
X131660Y251040D02*
X143510Y262890D01*
X143510Y267970D01*
X143698Y269156D01*
D23*
X101654Y245769D02*
X101654Y244401D01*
X108293Y251040D01*
X131660Y251040D01*
D20*
X172720Y297180D02*
X176530Y297180D01*
X172720Y297180D02*
X157480Y312420D01*
X176530Y297180D02*
X177000Y296000D01*
X157480Y312420D02*
X156652Y312844D01*
D23*
X169141Y257138D02*
X173119Y257138D01*
X175932Y259951D01*
X157123Y269156D02*
X156652Y269156D01*
X175932Y284932D02*
X177000Y286000D01*
X157123Y269156D02*
X169141Y257138D01*
X175932Y259951D02*
X175932Y284932D01*
D20*
X69850Y215900D02*
X69850Y190500D01*
X69850Y215900D02*
X66040Y219710D01*
X69850Y190500D02*
X70000Y190000D01*
X66040Y219710D02*
X65000Y220000D01*
X69850Y189230D02*
X69850Y177800D01*
X54610Y162560D01*
X54610Y142240D01*
X57150Y139700D01*
X115570Y139700D01*
X127000Y128270D01*
X127000Y124460D01*
X69850Y189230D02*
X70000Y190000D01*
X127000Y124460D02*
X127300Y124000D01*
X59690Y83820D02*
X59690Y68580D01*
X59690Y83820D02*
X60000Y85000D01*
X59690Y68580D02*
X60000Y67500D01*
X86360Y160020D02*
X101600Y175260D01*
X86360Y160020D02*
X85250Y160000D01*
X101600Y175260D02*
X101900Y176000D01*
X115570Y17780D02*
X119380Y17780D01*
X130810Y6350D01*
X163830Y6350D01*
X172720Y15240D01*
X172720Y19050D01*
X115570Y17780D02*
X115000Y18500D01*
X172720Y19050D02*
X173050Y19838D01*
X72390Y307340D02*
X72390Y313690D01*
X74930Y316230D01*
X83820Y316230D01*
X86360Y313690D01*
X86360Y307340D01*
X72390Y307340D02*
X72000Y306750D01*
X86360Y307340D02*
X87000Y306750D01*
X89400Y273050D02*
X74930Y273050D01*
X89400Y273050D02*
X93980Y273050D01*
X74930Y273050D02*
X74000Y272000D01*
X103749Y231140D02*
X116840Y231140D01*
X124460Y231140D01*
X103749Y231140D02*
X89400Y245489D01*
X89400Y273050D01*
X124460Y231140D02*
X125000Y230000D01*
X93980Y273050D02*
X95000Y274000D01*
X71120Y293370D02*
X71120Y306070D01*
X71120Y293370D02*
X67310Y289560D01*
X67310Y279400D01*
X73660Y273050D01*
X71120Y306070D02*
X72000Y306750D01*
X73660Y273050D02*
X74000Y272000D01*
X116840Y231140D02*
X116840Y219710D01*
X105410Y189230D02*
X80010Y189230D01*
X105410Y189230D02*
X109220Y185420D01*
X109220Y163830D01*
X110490Y162560D01*
X118110Y162560D01*
X127000Y171450D01*
X127000Y175260D01*
X80010Y189230D02*
X80000Y190000D01*
X127000Y175260D02*
X127300Y176000D01*
X152400Y175260D02*
X152400Y162560D01*
X152400Y139700D01*
X152400Y124460D01*
X152700Y124000D01*
X152400Y175260D02*
X152700Y176000D01*
X173990Y81392D02*
X173990Y72390D01*
X173990Y81392D02*
X189239Y96641D01*
X189239Y129531D01*
X179070Y139700D01*
X176530Y139700D02*
X152400Y139700D01*
X176530Y139700D02*
X179070Y139700D01*
X173990Y72390D02*
X173050Y72162D01*
X135890Y162560D02*
X127000Y171450D01*
X135890Y162560D02*
X152400Y162560D01*
X127000Y171450D02*
X127300Y176000D01*
X171450Y160020D02*
X179070Y152400D01*
D21*
X116840Y219710D03*
X171450Y160020D03*
X179070Y152400D03*
X176530Y139700D03*
D20*
X44450Y204470D02*
X30480Y204470D01*
X22860Y196850D02*
X19050Y193040D01*
X22860Y196850D02*
X30480Y204470D01*
X44450Y204470D02*
X45000Y205000D01*
X19050Y193040D02*
X18000Y192700D01*
X45000Y205000D02*
X45720Y205740D01*
X181610Y222250D02*
X210820Y193040D01*
X45720Y187960D02*
X41910Y184150D01*
X35560Y184150D01*
X22860Y196850D01*
X210820Y193040D02*
X212000Y192700D01*
X22860Y196850D02*
X18000Y192700D01*
D21*
X181610Y222250D03*
X45720Y187960D03*
D23*
X45000Y205000D02*
X45000Y248315D01*
X61849Y265164D01*
X61849Y312240D01*
X68506Y318897D01*
X75335Y318897D01*
X82000Y325562D02*
X82000Y347250D01*
X82000Y325562D02*
X75335Y318897D01*
D20*
X44450Y165100D02*
X20320Y165100D01*
X19050Y166370D01*
X44450Y165100D02*
X45000Y165000D01*
X19050Y166370D02*
X18000Y167300D01*
X191770Y185420D02*
X210820Y166370D01*
X77000Y347250D02*
X76126Y346660D01*
X212000Y167300D02*
X210820Y166370D01*
X45720Y163830D02*
X45720Y132080D01*
X60960Y116840D01*
X90170Y116840D01*
X45720Y163830D02*
X45000Y165000D01*
D21*
X191770Y185420D03*
X90170Y116840D03*
D23*
X180467Y196723D02*
X191770Y185420D01*
D22*
X25043Y262038D03*
D23*
X77000Y347250D02*
X77000Y353731D01*
X73687Y357044D01*
X65736Y357044D01*
X52217Y343526D01*
X52217Y284537D01*
X29719Y262038D01*
X25043Y262038D01*
X72000Y338679D02*
X72000Y347250D01*
X59055Y325734D02*
X59055Y266321D01*
X42206Y249472D01*
X42206Y242206D02*
X20000Y220000D01*
X42206Y242206D02*
X42206Y249472D01*
X59055Y325734D02*
X72000Y338679D01*
X67000Y347250D02*
X56261Y336511D01*
X20000Y246470D02*
X20000Y245000D01*
X20000Y246470D02*
X56261Y282731D01*
X56261Y336511D01*
D20*
X144706Y322531D02*
X144706Y313632D01*
X143698Y312844D01*
X144706Y322531D02*
X144654Y322553D01*
X155083Y332983D01*
X151130Y312420D02*
X151130Y291940D01*
X171130Y271940D02*
X171130Y261940D01*
X171130Y271940D02*
X151130Y291940D01*
X151130Y312420D02*
X150302Y312844D01*
D21*
X171130Y261940D03*
M02*
