G04 EAGLE Gerber RS-274X export*
G75*
%MOMM*%
%FSLAX34Y34*%
%LPD*%
%INBottom Copper*%
%IPPOS*%
%AMOC8*
5,1,8,0,0,1.08239X$1,22.5*%
G01*
%ADD10P,1.623585X8X202.500000*%
%ADD11C,0.127000*%
%ADD12C,0.554000*%
%ADD13C,0.604000*%
%ADD14C,0.152400*%

G36*
X190020Y1782D02*
X190020Y1782D01*
X190039Y1780D01*
X190141Y1802D01*
X190243Y1818D01*
X190260Y1828D01*
X190280Y1832D01*
X190369Y1885D01*
X190460Y1934D01*
X190474Y1948D01*
X190491Y1958D01*
X190558Y2037D01*
X190630Y2112D01*
X190638Y2130D01*
X190651Y2145D01*
X190690Y2241D01*
X190733Y2335D01*
X190735Y2355D01*
X190743Y2373D01*
X190761Y2540D01*
X190761Y22266D01*
X190747Y22356D01*
X190739Y22447D01*
X190727Y22477D01*
X190722Y22509D01*
X190679Y22589D01*
X190643Y22673D01*
X190617Y22705D01*
X190606Y22726D01*
X190583Y22748D01*
X190538Y22804D01*
X190014Y23328D01*
X188221Y27657D01*
X188221Y82343D01*
X190014Y86672D01*
X190538Y87196D01*
X190592Y87270D01*
X190651Y87339D01*
X190663Y87369D01*
X190682Y87396D01*
X190709Y87483D01*
X190743Y87567D01*
X190747Y87608D01*
X190754Y87631D01*
X190753Y87663D01*
X190761Y87734D01*
X190761Y100000D01*
X190759Y100012D01*
X190760Y100019D01*
X190759Y100026D01*
X190760Y100039D01*
X190738Y100141D01*
X190722Y100243D01*
X190712Y100260D01*
X190708Y100280D01*
X190655Y100369D01*
X190606Y100460D01*
X190592Y100474D01*
X190582Y100491D01*
X190503Y100558D01*
X190428Y100630D01*
X190410Y100638D01*
X190395Y100651D01*
X190299Y100690D01*
X190205Y100733D01*
X190185Y100735D01*
X190167Y100743D01*
X190000Y100761D01*
X40000Y100761D01*
X39980Y100758D01*
X39961Y100760D01*
X39859Y100738D01*
X39757Y100722D01*
X39740Y100712D01*
X39720Y100708D01*
X39631Y100655D01*
X39540Y100606D01*
X39526Y100592D01*
X39509Y100582D01*
X39442Y100503D01*
X39371Y100428D01*
X39362Y100410D01*
X39349Y100395D01*
X39310Y100299D01*
X39267Y100205D01*
X39265Y100185D01*
X39257Y100167D01*
X39239Y100000D01*
X39239Y87734D01*
X39254Y87644D01*
X39261Y87553D01*
X39273Y87523D01*
X39279Y87491D01*
X39321Y87411D01*
X39357Y87327D01*
X39383Y87295D01*
X39394Y87274D01*
X39417Y87252D01*
X39462Y87196D01*
X39985Y86672D01*
X41779Y82343D01*
X41779Y27657D01*
X39986Y23328D01*
X39462Y22804D01*
X39408Y22730D01*
X39349Y22661D01*
X39337Y22631D01*
X39318Y22604D01*
X39291Y22517D01*
X39257Y22433D01*
X39253Y22392D01*
X39246Y22369D01*
X39247Y22337D01*
X39239Y22266D01*
X39239Y2540D01*
X39242Y2520D01*
X39240Y2501D01*
X39262Y2399D01*
X39279Y2297D01*
X39288Y2280D01*
X39292Y2260D01*
X39345Y2171D01*
X39394Y2080D01*
X39408Y2066D01*
X39418Y2049D01*
X39497Y1982D01*
X39572Y1910D01*
X39590Y1902D01*
X39605Y1889D01*
X39701Y1850D01*
X39795Y1807D01*
X39815Y1805D01*
X39833Y1797D01*
X40000Y1779D01*
X190000Y1779D01*
X190020Y1782D01*
G37*
G36*
X190020Y269530D02*
X190020Y269530D01*
X190039Y269528D01*
X190141Y269550D01*
X190243Y269567D01*
X190260Y269576D01*
X190280Y269580D01*
X190369Y269633D01*
X190460Y269682D01*
X190474Y269696D01*
X190491Y269706D01*
X190558Y269785D01*
X190630Y269860D01*
X190638Y269878D01*
X190651Y269893D01*
X190690Y269989D01*
X190733Y270083D01*
X190735Y270103D01*
X190743Y270121D01*
X190761Y270288D01*
X190761Y282266D01*
X190747Y282356D01*
X190739Y282447D01*
X190727Y282477D01*
X190722Y282509D01*
X190679Y282589D01*
X190643Y282673D01*
X190617Y282705D01*
X190606Y282726D01*
X190583Y282748D01*
X190538Y282804D01*
X190014Y283328D01*
X188221Y287657D01*
X188221Y342343D01*
X190014Y346672D01*
X190538Y347196D01*
X190592Y347270D01*
X190651Y347339D01*
X190663Y347369D01*
X190682Y347396D01*
X190709Y347483D01*
X190743Y347567D01*
X190747Y347608D01*
X190754Y347631D01*
X190753Y347663D01*
X190761Y347734D01*
X190761Y367460D01*
X190758Y367480D01*
X190760Y367499D01*
X190738Y367601D01*
X190722Y367703D01*
X190712Y367720D01*
X190708Y367740D01*
X190655Y367829D01*
X190606Y367920D01*
X190592Y367934D01*
X190582Y367951D01*
X190503Y368018D01*
X190428Y368090D01*
X190410Y368098D01*
X190395Y368111D01*
X190299Y368150D01*
X190205Y368193D01*
X190185Y368195D01*
X190167Y368203D01*
X190000Y368221D01*
X40000Y368221D01*
X39980Y368218D01*
X39961Y368220D01*
X39859Y368198D01*
X39757Y368182D01*
X39740Y368172D01*
X39720Y368168D01*
X39631Y368115D01*
X39540Y368066D01*
X39526Y368052D01*
X39509Y368042D01*
X39442Y367963D01*
X39371Y367888D01*
X39362Y367870D01*
X39349Y367855D01*
X39310Y367759D01*
X39267Y367665D01*
X39265Y367645D01*
X39257Y367627D01*
X39239Y367460D01*
X39239Y347734D01*
X39254Y347644D01*
X39261Y347553D01*
X39273Y347523D01*
X39279Y347491D01*
X39321Y347411D01*
X39357Y347327D01*
X39383Y347295D01*
X39394Y347274D01*
X39417Y347252D01*
X39462Y347196D01*
X39985Y346672D01*
X41779Y342343D01*
X41779Y287657D01*
X39985Y283328D01*
X39462Y282804D01*
X39409Y282730D01*
X39349Y282661D01*
X39337Y282631D01*
X39318Y282604D01*
X39291Y282517D01*
X39257Y282433D01*
X39253Y282392D01*
X39246Y282369D01*
X39247Y282337D01*
X39239Y282266D01*
X39239Y270288D01*
X39242Y270268D01*
X39240Y270249D01*
X39262Y270147D01*
X39279Y270045D01*
X39288Y270028D01*
X39292Y270008D01*
X39345Y269919D01*
X39394Y269828D01*
X39408Y269814D01*
X39418Y269797D01*
X39497Y269730D01*
X39572Y269659D01*
X39590Y269650D01*
X39605Y269637D01*
X39701Y269598D01*
X39795Y269555D01*
X39815Y269553D01*
X39833Y269545D01*
X40000Y269527D01*
X190000Y269527D01*
X190020Y269530D01*
G37*
G36*
X165020Y149242D02*
X165020Y149242D01*
X165039Y149240D01*
X165141Y149262D01*
X165243Y149279D01*
X165260Y149288D01*
X165280Y149292D01*
X165369Y149345D01*
X165460Y149394D01*
X165474Y149408D01*
X165491Y149418D01*
X165558Y149497D01*
X165630Y149572D01*
X165638Y149590D01*
X165651Y149605D01*
X165690Y149701D01*
X165733Y149795D01*
X165735Y149815D01*
X165743Y149833D01*
X165761Y150000D01*
X165761Y220000D01*
X165758Y220020D01*
X165760Y220039D01*
X165738Y220141D01*
X165722Y220243D01*
X165712Y220260D01*
X165708Y220280D01*
X165655Y220369D01*
X165606Y220460D01*
X165592Y220474D01*
X165582Y220491D01*
X165503Y220558D01*
X165428Y220630D01*
X165410Y220638D01*
X165395Y220651D01*
X165299Y220690D01*
X165205Y220733D01*
X165185Y220735D01*
X165167Y220743D01*
X165000Y220761D01*
X65022Y220761D01*
X64931Y220746D01*
X64840Y220739D01*
X64811Y220727D01*
X64779Y220722D01*
X64698Y220679D01*
X64614Y220643D01*
X64582Y220617D01*
X64562Y220606D01*
X64539Y220583D01*
X64515Y220564D01*
X64509Y220560D01*
X64506Y220556D01*
X64483Y220538D01*
X64461Y220516D01*
X64416Y220454D01*
X64392Y220428D01*
X64387Y220418D01*
X64349Y220373D01*
X64337Y220343D01*
X64318Y220316D01*
X64291Y220230D01*
X64257Y220145D01*
X64253Y220104D01*
X64246Y220081D01*
X64247Y220049D01*
X64239Y219978D01*
X64239Y150862D01*
X64254Y150772D01*
X64261Y150681D01*
X64273Y150651D01*
X64279Y150619D01*
X64321Y150538D01*
X64357Y150454D01*
X64383Y150422D01*
X64394Y150402D01*
X64417Y150379D01*
X64462Y150323D01*
X65323Y149462D01*
X65397Y149409D01*
X65467Y149349D01*
X65497Y149337D01*
X65523Y149318D01*
X65610Y149291D01*
X65695Y149257D01*
X65736Y149253D01*
X65758Y149246D01*
X65790Y149247D01*
X65862Y149239D01*
X165000Y149239D01*
X165020Y149242D01*
G37*
%LPC*%
G36*
X156606Y334506D02*
X156606Y334506D01*
X156606Y343023D01*
X159242Y343023D01*
X165124Y337142D01*
X165124Y334506D01*
X156606Y334506D01*
G37*
%LPD*%
%LPC*%
G36*
X136523Y208523D02*
X136523Y208523D01*
X136523Y217041D01*
X139159Y217041D01*
X145041Y211159D01*
X145041Y208523D01*
X136523Y208523D01*
G37*
%LPD*%
%LPC*%
G36*
X66523Y21523D02*
X66523Y21523D01*
X66523Y30041D01*
X69159Y30041D01*
X75041Y24159D01*
X75041Y21523D01*
X66523Y21523D01*
G37*
%LPD*%
%LPC*%
G36*
X145042Y334506D02*
X145042Y334506D01*
X145042Y337142D01*
X150924Y343023D01*
X153560Y343023D01*
X153560Y334506D01*
X145042Y334506D01*
G37*
%LPD*%
%LPC*%
G36*
X156606Y322942D02*
X156606Y322942D01*
X156606Y331459D01*
X165124Y331459D01*
X165124Y328824D01*
X159242Y322942D01*
X156606Y322942D01*
G37*
%LPD*%
%LPC*%
G36*
X124959Y208523D02*
X124959Y208523D01*
X124959Y211159D01*
X130841Y217041D01*
X133477Y217041D01*
X133477Y208523D01*
X124959Y208523D01*
G37*
%LPD*%
%LPC*%
G36*
X136523Y196959D02*
X136523Y196959D01*
X136523Y205477D01*
X145041Y205477D01*
X145041Y202841D01*
X139159Y196959D01*
X136523Y196959D01*
G37*
%LPD*%
%LPC*%
G36*
X54959Y21523D02*
X54959Y21523D01*
X54959Y24159D01*
X60841Y30041D01*
X63477Y30041D01*
X63477Y21523D01*
X54959Y21523D01*
G37*
%LPD*%
%LPC*%
G36*
X66523Y9959D02*
X66523Y9959D01*
X66523Y18477D01*
X75041Y18477D01*
X75041Y15841D01*
X69159Y9959D01*
X66523Y9959D01*
G37*
%LPD*%
%LPC*%
G36*
X150924Y322942D02*
X150924Y322942D01*
X145042Y328824D01*
X145042Y331459D01*
X153560Y331459D01*
X153560Y322942D01*
X150924Y322942D01*
G37*
%LPD*%
%LPC*%
G36*
X130841Y196959D02*
X130841Y196959D01*
X124959Y202841D01*
X124959Y205477D01*
X133477Y205477D01*
X133477Y196959D01*
X130841Y196959D01*
G37*
%LPD*%
%LPC*%
G36*
X60841Y9959D02*
X60841Y9959D01*
X54959Y15841D01*
X54959Y18477D01*
X63477Y18477D01*
X63477Y9959D01*
X60841Y9959D01*
G37*
%LPD*%
%LPC*%
G36*
X155082Y332982D02*
X155082Y332982D01*
X155082Y332983D01*
X155084Y332983D01*
X155084Y332982D01*
X155082Y332982D01*
G37*
%LPD*%
%LPC*%
G36*
X134999Y206999D02*
X134999Y206999D01*
X134999Y207001D01*
X135001Y207001D01*
X135001Y206999D01*
X134999Y206999D01*
G37*
%LPD*%
%LPC*%
G36*
X64999Y19999D02*
X64999Y19999D01*
X64999Y20001D01*
X65001Y20001D01*
X65001Y19999D01*
X64999Y19999D01*
G37*
%LPD*%
D10*
X65000Y20000D03*
X155083Y332983D03*
X135000Y207000D03*
D11*
X182314Y109220D02*
X183170Y108365D01*
X182314Y109220D02*
X146050Y109220D01*
X22860Y160020D02*
X22860Y205740D01*
X52070Y130810D02*
X73660Y109220D01*
X52070Y130810D02*
X22860Y160020D01*
X73660Y109220D02*
X146050Y109220D01*
X34290Y241300D02*
X39643Y246653D01*
X103137Y246653D01*
X115504Y259019D01*
X34290Y241300D02*
X16847Y241300D01*
X11338Y235791D01*
X11338Y217262D01*
X22860Y205740D01*
X52070Y130810D02*
X38100Y116840D01*
D12*
X146050Y109220D03*
X183170Y108365D03*
X22860Y205740D03*
X115504Y259019D03*
X38100Y116840D03*
D13*
X39759Y255612D03*
D14*
X39759Y246769D01*
X39643Y246653D01*
D11*
X38100Y209550D02*
X38100Y189230D01*
X38100Y209550D02*
X17780Y229870D01*
X38100Y189230D02*
X38100Y157480D01*
D12*
X17780Y229870D03*
X38100Y189230D03*
X124772Y258785D03*
X38100Y157480D03*
D14*
X94920Y228933D02*
X124772Y258785D01*
X57483Y228933D02*
X38100Y209550D01*
X57483Y228933D02*
X94920Y228933D01*
D11*
X59690Y144780D02*
X59690Y130810D01*
D12*
X59690Y144780D03*
X59690Y130810D03*
D11*
X53340Y158750D02*
X53340Y172720D01*
X53340Y158750D02*
X72390Y139700D01*
X128270Y139700D01*
D12*
X53340Y172720D03*
X128270Y139700D03*
D11*
X116840Y219710D02*
X118110Y220980D01*
X165100Y220980D01*
X171450Y214630D01*
X171450Y160020D01*
X179070Y152400D02*
X179070Y142240D01*
X176530Y139700D01*
D12*
X116840Y219710D03*
X171450Y160020D03*
X179070Y152400D03*
X176530Y139700D03*
D11*
X181610Y222250D02*
X167640Y222250D01*
X165100Y224790D01*
X66040Y224790D01*
X45720Y204470D01*
X45720Y187960D01*
D12*
X181610Y222250D03*
X45720Y187960D03*
D11*
X181610Y227330D02*
X184150Y227330D01*
X191770Y219710D01*
X191770Y185420D01*
X135890Y116840D02*
X90170Y116840D01*
X135890Y116840D02*
X191770Y172720D01*
X191770Y185420D01*
D12*
X191770Y185420D03*
X90170Y116840D03*
D13*
X25043Y262038D03*
D14*
X92078Y262038D01*
X95132Y265092D01*
X142774Y265092D01*
X180537Y227330D02*
X181610Y227330D01*
X180537Y227330D02*
X142774Y265092D01*
D11*
X171130Y261940D02*
X171130Y244160D01*
X196850Y218440D01*
X196850Y106680D01*
X190500Y100330D01*
X190000Y100000D01*
D12*
X171130Y261940D03*
M02*
