G04 EAGLE Gerber RS-274X export*
G75*
%MOMM*%
%FSLAX34Y34*%
%LPD*%
%IN*%
%IPPOS*%
%AMOC8*
5,1,8,0,0,1.08239X$1,22.5*%
G01*
%ADD10C,0.254000*%


D10*
X0Y20000D02*
X76Y18257D01*
X304Y16527D01*
X681Y14824D01*
X1206Y13160D01*
X1874Y11548D01*
X2680Y10000D01*
X3617Y8528D01*
X4679Y7144D01*
X5858Y5858D01*
X7144Y4679D01*
X8528Y3617D01*
X10000Y2680D01*
X11548Y1874D01*
X13160Y1206D01*
X14824Y681D01*
X16527Y304D01*
X18257Y76D01*
X20000Y0D01*
X210000Y0D01*
X211743Y76D01*
X213473Y304D01*
X215176Y681D01*
X216840Y1206D01*
X218452Y1874D01*
X220000Y2680D01*
X221472Y3617D01*
X222856Y4679D01*
X224142Y5858D01*
X225321Y7144D01*
X226383Y8528D01*
X227321Y10000D01*
X228126Y11548D01*
X228794Y13160D01*
X229319Y14824D01*
X229696Y16527D01*
X229924Y18257D01*
X230000Y20000D01*
X230000Y350000D01*
X229924Y351743D01*
X229696Y353473D01*
X229319Y355176D01*
X228794Y356840D01*
X228126Y358452D01*
X227321Y360000D01*
X226383Y361472D01*
X225321Y362856D01*
X224142Y364142D01*
X222856Y365321D01*
X221472Y366383D01*
X220000Y367321D01*
X218452Y368126D01*
X216840Y368794D01*
X215176Y369319D01*
X213473Y369696D01*
X211743Y369924D01*
X210000Y370000D01*
X20000Y370000D01*
X18257Y369924D01*
X16527Y369696D01*
X14824Y369319D01*
X13160Y368794D01*
X11548Y368126D01*
X10000Y367321D01*
X8528Y366383D01*
X7144Y365321D01*
X5858Y364142D01*
X4679Y362856D01*
X3617Y361472D01*
X2680Y360000D01*
X1874Y358452D01*
X1206Y356840D01*
X681Y355176D01*
X304Y353473D01*
X76Y351743D01*
X0Y350000D01*
X0Y20000D01*
X190000Y290000D02*
X190038Y289128D01*
X190152Y288264D01*
X190341Y287412D01*
X190603Y286580D01*
X190937Y285774D01*
X191340Y285000D01*
X191808Y284264D01*
X192340Y283572D01*
X192929Y282929D01*
X193572Y282340D01*
X194264Y281808D01*
X195000Y281340D01*
X195774Y280937D01*
X196580Y280603D01*
X197412Y280341D01*
X198264Y280152D01*
X199128Y280038D01*
X200000Y280000D01*
X200872Y280038D01*
X201736Y280152D01*
X202588Y280341D01*
X203420Y280603D01*
X204226Y280937D01*
X205000Y281340D01*
X205736Y281808D01*
X206428Y282340D01*
X207071Y282929D01*
X207660Y283572D01*
X208192Y284264D01*
X208660Y285000D01*
X209063Y285774D01*
X209397Y286580D01*
X209659Y287412D01*
X209848Y288264D01*
X209962Y289128D01*
X210000Y290000D01*
X210000Y340000D01*
X209962Y340872D01*
X209848Y341736D01*
X209659Y342588D01*
X209397Y343420D01*
X209063Y344226D01*
X208660Y345000D01*
X208192Y345736D01*
X207660Y346428D01*
X207071Y347071D01*
X206428Y347660D01*
X205736Y348192D01*
X205000Y348660D01*
X204226Y349063D01*
X203420Y349397D01*
X202588Y349659D01*
X201736Y349848D01*
X200872Y349962D01*
X200000Y350000D01*
X199128Y349962D01*
X198264Y349848D01*
X197412Y349659D01*
X196580Y349397D01*
X195774Y349063D01*
X195000Y348660D01*
X194264Y348192D01*
X193572Y347660D01*
X192929Y347071D01*
X192340Y346428D01*
X191808Y345736D01*
X191340Y345000D01*
X190937Y344226D01*
X190603Y343420D01*
X190341Y342588D01*
X190152Y341736D01*
X190038Y340872D01*
X190000Y340000D01*
X190000Y290000D01*
X190000Y30000D02*
X190038Y29128D01*
X190152Y28264D01*
X190341Y27412D01*
X190603Y26580D01*
X190937Y25774D01*
X191340Y25000D01*
X191808Y24264D01*
X192340Y23572D01*
X192929Y22929D01*
X193572Y22340D01*
X194264Y21808D01*
X195000Y21340D01*
X195774Y20937D01*
X196580Y20603D01*
X197412Y20341D01*
X198264Y20152D01*
X199128Y20038D01*
X200000Y20000D01*
X200872Y20038D01*
X201736Y20152D01*
X202588Y20341D01*
X203420Y20603D01*
X204226Y20937D01*
X205000Y21340D01*
X205736Y21808D01*
X206428Y22340D01*
X207071Y22929D01*
X207660Y23572D01*
X208192Y24264D01*
X208660Y25000D01*
X209063Y25774D01*
X209397Y26580D01*
X209659Y27412D01*
X209848Y28264D01*
X209962Y29128D01*
X210000Y30000D01*
X210000Y80000D01*
X209962Y80872D01*
X209848Y81736D01*
X209659Y82588D01*
X209397Y83420D01*
X209063Y84226D01*
X208660Y85000D01*
X208192Y85736D01*
X207660Y86428D01*
X207071Y87071D01*
X206428Y87660D01*
X205736Y88192D01*
X205000Y88660D01*
X204226Y89063D01*
X203420Y89397D01*
X202588Y89659D01*
X201736Y89848D01*
X200872Y89962D01*
X200000Y90000D01*
X199128Y89962D01*
X198264Y89848D01*
X197412Y89659D01*
X196580Y89397D01*
X195774Y89063D01*
X195000Y88660D01*
X194264Y88192D01*
X193572Y87660D01*
X192929Y87071D01*
X192340Y86428D01*
X191808Y85736D01*
X191340Y85000D01*
X190937Y84226D01*
X190603Y83420D01*
X190341Y82588D01*
X190152Y81736D01*
X190038Y80872D01*
X190000Y80000D01*
X190000Y30000D01*
X20000Y290000D02*
X20038Y289128D01*
X20152Y288264D01*
X20341Y287412D01*
X20603Y286580D01*
X20937Y285774D01*
X21340Y285000D01*
X21808Y284264D01*
X22340Y283572D01*
X22929Y282929D01*
X23572Y282340D01*
X24264Y281808D01*
X25000Y281340D01*
X25774Y280937D01*
X26580Y280603D01*
X27412Y280341D01*
X28264Y280152D01*
X29128Y280038D01*
X30000Y280000D01*
X30872Y280038D01*
X31736Y280152D01*
X32588Y280341D01*
X33420Y280603D01*
X34226Y280937D01*
X35000Y281340D01*
X35736Y281808D01*
X36428Y282340D01*
X37071Y282929D01*
X37660Y283572D01*
X38192Y284264D01*
X38660Y285000D01*
X39063Y285774D01*
X39397Y286580D01*
X39659Y287412D01*
X39848Y288264D01*
X39962Y289128D01*
X40000Y290000D01*
X40000Y340000D01*
X39962Y340872D01*
X39848Y341736D01*
X39659Y342588D01*
X39397Y343420D01*
X39063Y344226D01*
X38660Y345000D01*
X38192Y345736D01*
X37660Y346428D01*
X37071Y347071D01*
X36428Y347660D01*
X35736Y348192D01*
X35000Y348660D01*
X34226Y349063D01*
X33420Y349397D01*
X32588Y349659D01*
X31736Y349848D01*
X30872Y349962D01*
X30000Y350000D01*
X29128Y349962D01*
X28264Y349848D01*
X27412Y349659D01*
X26580Y349397D01*
X25774Y349063D01*
X25000Y348660D01*
X24264Y348192D01*
X23572Y347660D01*
X22929Y347071D01*
X22340Y346428D01*
X21808Y345736D01*
X21340Y345000D01*
X20937Y344226D01*
X20603Y343420D01*
X20341Y342588D01*
X20152Y341736D01*
X20038Y340872D01*
X20000Y340000D01*
X20000Y290000D01*
X20000Y30000D02*
X20038Y29128D01*
X20152Y28264D01*
X20341Y27412D01*
X20603Y26580D01*
X20937Y25774D01*
X21340Y25000D01*
X21808Y24264D01*
X22340Y23572D01*
X22929Y22929D01*
X23572Y22340D01*
X24264Y21808D01*
X25000Y21340D01*
X25774Y20937D01*
X26580Y20603D01*
X27412Y20341D01*
X28264Y20152D01*
X29128Y20038D01*
X30000Y20000D01*
X30872Y20038D01*
X31736Y20152D01*
X32588Y20341D01*
X33420Y20603D01*
X34226Y20937D01*
X35000Y21340D01*
X35736Y21808D01*
X36428Y22340D01*
X37071Y22929D01*
X37660Y23572D01*
X38192Y24264D01*
X38660Y25000D01*
X39063Y25774D01*
X39397Y26580D01*
X39659Y27412D01*
X39848Y28264D01*
X39962Y29128D01*
X40000Y30000D01*
X40000Y80000D01*
X39962Y80872D01*
X39848Y81736D01*
X39659Y82588D01*
X39397Y83420D01*
X39063Y84226D01*
X38660Y85000D01*
X38192Y85736D01*
X37660Y86428D01*
X37071Y87071D01*
X36428Y87660D01*
X35736Y88192D01*
X35000Y88660D01*
X34226Y89063D01*
X33420Y89397D01*
X32588Y89659D01*
X31736Y89848D01*
X30872Y89962D01*
X30000Y90000D01*
X29128Y89962D01*
X28264Y89848D01*
X27412Y89659D01*
X26580Y89397D01*
X25774Y89063D01*
X25000Y88660D01*
X24264Y88192D01*
X23572Y87660D01*
X22929Y87071D01*
X22340Y86428D01*
X21808Y85736D01*
X21340Y85000D01*
X20937Y84226D01*
X20603Y83420D01*
X20341Y82588D01*
X20152Y81736D01*
X20038Y80872D01*
X20000Y80000D01*
X20000Y30000D01*
M02*
