M48
; DRILL file {KiCad 6.0.8-f2edbf62ab~116~ubuntu22.04.1} date Tue 01 Nov 2022 10:45:10 GMT
; FORMAT={-:-/ absolute / inch / decimal}
; #@! TF.CreationDate,2022-11-01T10:45:10+00:00
; #@! TF.GenerationSoftware,Kicad,Pcbnew,6.0.8-f2edbf62ab~116~ubuntu22.04.1
; #@! TF.FileFunction,Plated,1,4,PTH
FMAT,2
INCH
; #@! TA.AperFunction,Plated,PTH,ViaDrill
T1C0.0079
%
G90
G05
T1
X5.5709Y-3.7874
X5.5709Y-3.8268
X5.5709Y-3.8661
X5.5747Y-3.95
X5.5768Y-3.9249
X5.5768Y-3.9768
X5.5768Y-4.0185
X5.7114Y-3.6941
X5.7228Y-3.9906
X5.724Y-4.0327
X5.7264Y-3.9378
X5.7283Y-3.7204
X5.7283Y-3.7912
X5.7283Y-3.7559
X5.7283Y-3.8228
X5.7287Y-4.1244
X5.7295Y-4.1764
X5.7343Y-4.0547
X5.8709Y-3.6862
X5.8815Y-3.8118
X5.8819Y-4.1575
X5.8839Y-3.7728
X5.885Y-3.7496
X5.887Y-4.1154
X5.8906Y-3.8827
X5.8909Y-3.8598
X5.8909Y-3.9366
X6.002Y-3.6898
X6.0362Y-3.7594
X6.0382Y-4.1579
X6.039Y-4.0843
X6.0398Y-3.9827
X6.0406Y-4.0276
X6.0433Y-3.9374
X6.0437Y-3.9035
X6.0457Y-3.8669
X6.0469Y-4.05
X6.0476Y-3.9598
X6.048Y-4.1787
X6.0484Y-4.0047
X6.05Y-3.7776
X6.1909Y-3.685
X6.1945Y-3.8744
X6.2008Y-4.0
X6.2008Y-4.0394
X6.2024Y-3.8965
X6.2031Y-3.9209
X6.3484Y-3.6846
X6.3563Y-4.0622
X6.3583Y-3.9409
X6.3583Y-3.9646
X6.3583Y-3.9882
X6.5094Y-3.9728
X6.5098Y-3.9346
X6.5102Y-3.8961
X6.5106Y-4.0146
X6.5106Y-4.0657
X6.5118Y-3.8571
X6.5157Y-3.6929
X6.5157Y-3.7378
X6.5157Y-3.7602
X6.5157Y-3.7827
X6.5157Y-3.8051
X6.5161Y-3.7154
X6.5181Y-4.1083
X6.6571Y-3.7035
X6.6732Y-4.1457
X6.6732Y-4.1929
X6.6732Y-4.2323
X6.674Y-4.078
X6.6854Y-4.2638
X6.6961Y-3.6925
X6.8252Y-3.9516
X6.8252Y-4.0102
X6.8252Y-4.0492
X6.826Y-3.9087
X6.8307Y-4.0945
X6.8307Y-4.122
X6.8307Y-4.1496
X6.8307Y-4.1811
T0
M30
