G04 EAGLE Gerber RS-274X export*
G75*
%MOMM*%
%FSLAX34Y34*%
%LPD*%
%INSilkscreen Top*%
%IPPOS*%
%AMOC8*
5,1,8,0,0,1.08239X$1,22.5*%
G01*
%ADD10C,0.152400*%
%ADD11C,0.076200*%
%ADD12R,0.300000X0.300000*%
%ADD13R,0.300000X0.150000*%
%ADD14C,0.203200*%
%ADD15R,0.150000X0.300000*%
%ADD16C,0.101600*%

G36*
X86462Y129970D02*
X86462Y129970D01*
X86464Y129969D01*
X86507Y129989D01*
X86551Y130007D01*
X86551Y130009D01*
X86553Y130010D01*
X86586Y130095D01*
X86586Y133905D01*
X86585Y133907D01*
X86586Y133909D01*
X86566Y133952D01*
X86548Y133996D01*
X86546Y133996D01*
X86545Y133998D01*
X86460Y134031D01*
X83920Y134031D01*
X83918Y134030D01*
X83916Y134031D01*
X83873Y134011D01*
X83829Y133993D01*
X83829Y133991D01*
X83827Y133990D01*
X83794Y133905D01*
X83794Y130095D01*
X83795Y130093D01*
X83794Y130091D01*
X83814Y130048D01*
X83832Y130004D01*
X83834Y130004D01*
X83835Y130002D01*
X83920Y129969D01*
X86460Y129969D01*
X86462Y129970D01*
G37*
G36*
X127907Y94795D02*
X127907Y94795D01*
X127909Y94794D01*
X127952Y94814D01*
X127996Y94832D01*
X127996Y94834D01*
X127998Y94835D01*
X128031Y94920D01*
X128031Y97460D01*
X128030Y97462D01*
X128031Y97464D01*
X128011Y97507D01*
X127993Y97551D01*
X127991Y97551D01*
X127990Y97553D01*
X127905Y97586D01*
X124095Y97586D01*
X124093Y97585D01*
X124091Y97586D01*
X124048Y97566D01*
X124004Y97548D01*
X124004Y97546D01*
X124002Y97545D01*
X123969Y97460D01*
X123969Y94920D01*
X123970Y94918D01*
X123969Y94916D01*
X123989Y94873D01*
X124007Y94829D01*
X124009Y94829D01*
X124010Y94827D01*
X124095Y94794D01*
X127905Y94794D01*
X127907Y94795D01*
G37*
D10*
X40850Y90000D02*
X40850Y80000D01*
X40850Y60000D02*
X40850Y50000D01*
X29600Y50000D01*
X11850Y60000D02*
X11850Y80000D01*
X29600Y90000D02*
X40850Y90000D01*
X80000Y32850D02*
X90000Y32850D01*
X160000Y32850D02*
X170000Y32850D01*
X170000Y21600D01*
X160000Y3850D02*
X90000Y3850D01*
X80000Y21600D02*
X80000Y32850D01*
X160000Y217150D02*
X170000Y217150D01*
X90000Y217150D02*
X80000Y217150D01*
X80000Y228400D01*
X90000Y246150D02*
X160000Y246150D01*
X170000Y228400D02*
X170000Y217150D01*
X86790Y156210D02*
X86790Y145542D01*
X86790Y97790D02*
X97458Y97790D01*
X145210Y97790D02*
X145210Y108458D01*
X145210Y156210D02*
X134542Y156210D01*
X97458Y156210D02*
X86790Y156210D01*
X86790Y108458D02*
X86790Y97790D01*
X134542Y97790D02*
X145210Y97790D01*
X145210Y145542D02*
X145210Y156210D01*
D11*
X139989Y162087D02*
X136010Y162087D01*
X133025Y159766D01*
X136010Y162087D02*
X133025Y164409D01*
X136010Y162087D02*
X137336Y158440D01*
X136010Y162087D02*
X137336Y165735D01*
D12*
X121000Y90000D03*
D11*
X92031Y85731D02*
X92031Y94969D01*
X94597Y94969D01*
X94696Y94967D01*
X94796Y94961D01*
X94895Y94952D01*
X94993Y94938D01*
X95091Y94921D01*
X95189Y94900D01*
X95285Y94875D01*
X95380Y94846D01*
X95475Y94814D01*
X95567Y94778D01*
X95659Y94739D01*
X95749Y94696D01*
X95837Y94650D01*
X95923Y94600D01*
X96007Y94547D01*
X96089Y94491D01*
X96169Y94431D01*
X96246Y94369D01*
X96321Y94303D01*
X96394Y94235D01*
X96463Y94164D01*
X96530Y94090D01*
X96594Y94014D01*
X96655Y93935D01*
X96713Y93854D01*
X96768Y93771D01*
X96819Y93686D01*
X96867Y93599D01*
X96912Y93510D01*
X96953Y93419D01*
X96991Y93327D01*
X97025Y93234D01*
X97055Y93139D01*
X97082Y93043D01*
X97105Y92946D01*
X97124Y92849D01*
X97139Y92750D01*
X97151Y92651D01*
X97159Y92552D01*
X97163Y92453D01*
X97163Y92353D01*
X97159Y92254D01*
X97151Y92155D01*
X97139Y92056D01*
X97124Y91957D01*
X97105Y91860D01*
X97082Y91763D01*
X97055Y91667D01*
X97025Y91572D01*
X96991Y91479D01*
X96953Y91387D01*
X96912Y91296D01*
X96867Y91207D01*
X96819Y91120D01*
X96768Y91035D01*
X96713Y90952D01*
X96655Y90871D01*
X96594Y90792D01*
X96530Y90716D01*
X96463Y90642D01*
X96394Y90571D01*
X96321Y90503D01*
X96246Y90437D01*
X96169Y90375D01*
X96089Y90315D01*
X96007Y90259D01*
X95923Y90206D01*
X95837Y90156D01*
X95749Y90110D01*
X95659Y90067D01*
X95567Y90028D01*
X95475Y89992D01*
X95380Y89960D01*
X95285Y89931D01*
X95189Y89906D01*
X95091Y89885D01*
X94993Y89868D01*
X94895Y89854D01*
X94796Y89845D01*
X94696Y89839D01*
X94597Y89837D01*
X92031Y89837D01*
X95110Y89837D02*
X97163Y85731D01*
X100974Y92916D02*
X103540Y94969D01*
X103540Y85731D01*
X100974Y85731D02*
X106107Y85731D01*
X109974Y90350D02*
X109976Y90532D01*
X109983Y90713D01*
X109994Y90895D01*
X110009Y91076D01*
X110028Y91257D01*
X110052Y91437D01*
X110080Y91616D01*
X110112Y91795D01*
X110149Y91973D01*
X110190Y92150D01*
X110235Y92326D01*
X110284Y92501D01*
X110338Y92675D01*
X110395Y92847D01*
X110457Y93018D01*
X110523Y93188D01*
X110592Y93356D01*
X110666Y93522D01*
X110744Y93686D01*
X110773Y93765D01*
X110805Y93842D01*
X110841Y93919D01*
X110880Y93993D01*
X110923Y94066D01*
X110969Y94136D01*
X111017Y94205D01*
X111069Y94271D01*
X111124Y94335D01*
X111181Y94397D01*
X111241Y94455D01*
X111304Y94512D01*
X111369Y94565D01*
X111436Y94615D01*
X111506Y94663D01*
X111577Y94707D01*
X111651Y94748D01*
X111726Y94786D01*
X111803Y94820D01*
X111881Y94851D01*
X111960Y94878D01*
X112041Y94902D01*
X112123Y94923D01*
X112205Y94939D01*
X112288Y94952D01*
X112372Y94962D01*
X112456Y94967D01*
X112540Y94969D01*
X112624Y94967D01*
X112708Y94962D01*
X112792Y94952D01*
X112875Y94939D01*
X112957Y94923D01*
X113039Y94902D01*
X113120Y94878D01*
X113199Y94851D01*
X113277Y94820D01*
X113354Y94786D01*
X113429Y94748D01*
X113503Y94707D01*
X113574Y94663D01*
X113644Y94615D01*
X113711Y94565D01*
X113776Y94512D01*
X113839Y94455D01*
X113899Y94396D01*
X113956Y94335D01*
X114011Y94271D01*
X114063Y94205D01*
X114111Y94136D01*
X114157Y94066D01*
X114200Y93993D01*
X114239Y93918D01*
X114275Y93842D01*
X114307Y93765D01*
X114336Y93686D01*
X114337Y93686D02*
X114415Y93522D01*
X114489Y93356D01*
X114558Y93188D01*
X114624Y93018D01*
X114686Y92847D01*
X114743Y92675D01*
X114797Y92501D01*
X114846Y92326D01*
X114891Y92150D01*
X114932Y91973D01*
X114969Y91795D01*
X115001Y91616D01*
X115029Y91437D01*
X115053Y91257D01*
X115072Y91076D01*
X115087Y90895D01*
X115098Y90713D01*
X115105Y90532D01*
X115107Y90350D01*
X109975Y90350D02*
X109977Y90168D01*
X109984Y89987D01*
X109995Y89805D01*
X110010Y89624D01*
X110029Y89443D01*
X110053Y89263D01*
X110081Y89084D01*
X110113Y88905D01*
X110150Y88727D01*
X110191Y88550D01*
X110236Y88374D01*
X110285Y88199D01*
X110339Y88025D01*
X110396Y87853D01*
X110458Y87682D01*
X110524Y87512D01*
X110593Y87345D01*
X110667Y87178D01*
X110745Y87014D01*
X110744Y87014D02*
X110773Y86935D01*
X110805Y86858D01*
X110841Y86781D01*
X110880Y86707D01*
X110923Y86634D01*
X110969Y86564D01*
X111017Y86495D01*
X111069Y86429D01*
X111124Y86365D01*
X111181Y86303D01*
X111241Y86245D01*
X111304Y86188D01*
X111369Y86135D01*
X111436Y86085D01*
X111506Y86037D01*
X111577Y85993D01*
X111651Y85952D01*
X111726Y85914D01*
X111803Y85880D01*
X111881Y85849D01*
X111960Y85822D01*
X112041Y85798D01*
X112123Y85777D01*
X112205Y85761D01*
X112288Y85748D01*
X112372Y85738D01*
X112456Y85733D01*
X112540Y85731D01*
X114337Y87014D02*
X114415Y87178D01*
X114489Y87344D01*
X114558Y87512D01*
X114624Y87682D01*
X114686Y87853D01*
X114743Y88025D01*
X114797Y88199D01*
X114846Y88374D01*
X114891Y88550D01*
X114932Y88727D01*
X114969Y88905D01*
X115001Y89084D01*
X115029Y89263D01*
X115053Y89443D01*
X115072Y89624D01*
X115087Y89805D01*
X115098Y89987D01*
X115105Y90168D01*
X115107Y90350D01*
X114336Y87014D02*
X114307Y86935D01*
X114275Y86858D01*
X114239Y86781D01*
X114200Y86707D01*
X114157Y86634D01*
X114111Y86564D01*
X114063Y86495D01*
X114011Y86429D01*
X113956Y86365D01*
X113899Y86303D01*
X113839Y86245D01*
X113776Y86188D01*
X113711Y86135D01*
X113644Y86085D01*
X113574Y86037D01*
X113503Y85993D01*
X113429Y85952D01*
X113354Y85914D01*
X113277Y85880D01*
X113199Y85849D01*
X113120Y85822D01*
X113039Y85798D01*
X112957Y85777D01*
X112875Y85761D01*
X112792Y85748D01*
X112708Y85738D01*
X112624Y85733D01*
X112540Y85731D01*
X110488Y87784D02*
X114593Y92916D01*
X148764Y117431D02*
X150817Y117431D01*
X148764Y117431D02*
X148674Y117433D01*
X148585Y117439D01*
X148496Y117449D01*
X148408Y117462D01*
X148320Y117480D01*
X148233Y117501D01*
X148147Y117526D01*
X148062Y117555D01*
X147978Y117587D01*
X147896Y117623D01*
X147816Y117663D01*
X147738Y117706D01*
X147661Y117753D01*
X147586Y117802D01*
X147514Y117855D01*
X147444Y117911D01*
X147377Y117970D01*
X147312Y118032D01*
X147250Y118097D01*
X147191Y118164D01*
X147135Y118234D01*
X147082Y118306D01*
X147033Y118381D01*
X146986Y118458D01*
X146943Y118536D01*
X146903Y118616D01*
X146867Y118698D01*
X146835Y118782D01*
X146806Y118867D01*
X146781Y118953D01*
X146760Y119040D01*
X146742Y119128D01*
X146729Y119216D01*
X146719Y119305D01*
X146713Y119394D01*
X146711Y119484D01*
X146711Y124616D01*
X146713Y124706D01*
X146719Y124795D01*
X146729Y124884D01*
X146742Y124972D01*
X146760Y125060D01*
X146781Y125147D01*
X146806Y125233D01*
X146835Y125318D01*
X146867Y125402D01*
X146903Y125484D01*
X146943Y125564D01*
X146986Y125642D01*
X147033Y125719D01*
X147082Y125794D01*
X147135Y125866D01*
X147191Y125936D01*
X147250Y126003D01*
X147312Y126068D01*
X147377Y126130D01*
X147444Y126189D01*
X147514Y126245D01*
X147586Y126298D01*
X147661Y126347D01*
X147737Y126394D01*
X147816Y126437D01*
X147896Y126477D01*
X147978Y126513D01*
X148062Y126545D01*
X148147Y126574D01*
X148233Y126599D01*
X148320Y126620D01*
X148407Y126638D01*
X148496Y126651D01*
X148585Y126661D01*
X148674Y126667D01*
X148764Y126669D01*
X150817Y126669D01*
X156290Y121537D02*
X159369Y121537D01*
X156290Y121537D02*
X156200Y121539D01*
X156111Y121545D01*
X156022Y121555D01*
X155933Y121568D01*
X155846Y121586D01*
X155759Y121607D01*
X155673Y121632D01*
X155588Y121661D01*
X155504Y121693D01*
X155422Y121729D01*
X155342Y121769D01*
X155263Y121812D01*
X155187Y121859D01*
X155112Y121908D01*
X155040Y121961D01*
X154970Y122017D01*
X154903Y122076D01*
X154838Y122138D01*
X154776Y122203D01*
X154717Y122270D01*
X154661Y122340D01*
X154608Y122412D01*
X154559Y122487D01*
X154512Y122564D01*
X154469Y122642D01*
X154429Y122722D01*
X154393Y122804D01*
X154361Y122888D01*
X154332Y122973D01*
X154307Y123059D01*
X154286Y123146D01*
X154268Y123234D01*
X154255Y123322D01*
X154245Y123411D01*
X154239Y123500D01*
X154237Y123590D01*
X154237Y124103D01*
X154239Y124202D01*
X154245Y124302D01*
X154254Y124401D01*
X154268Y124499D01*
X154285Y124597D01*
X154306Y124695D01*
X154331Y124791D01*
X154360Y124886D01*
X154392Y124981D01*
X154428Y125073D01*
X154467Y125165D01*
X154510Y125255D01*
X154556Y125343D01*
X154606Y125429D01*
X154659Y125513D01*
X154715Y125595D01*
X154775Y125675D01*
X154837Y125752D01*
X154903Y125827D01*
X154971Y125900D01*
X155042Y125969D01*
X155116Y126036D01*
X155192Y126100D01*
X155271Y126161D01*
X155352Y126219D01*
X155435Y126274D01*
X155520Y126325D01*
X155607Y126373D01*
X155696Y126418D01*
X155787Y126459D01*
X155879Y126497D01*
X155972Y126531D01*
X156067Y126561D01*
X156163Y126588D01*
X156260Y126611D01*
X156357Y126630D01*
X156456Y126645D01*
X156555Y126657D01*
X156654Y126665D01*
X156753Y126669D01*
X156853Y126669D01*
X156952Y126665D01*
X157051Y126657D01*
X157150Y126645D01*
X157249Y126630D01*
X157346Y126611D01*
X157443Y126588D01*
X157539Y126561D01*
X157634Y126531D01*
X157727Y126497D01*
X157819Y126459D01*
X157910Y126418D01*
X157999Y126373D01*
X158086Y126325D01*
X158171Y126274D01*
X158254Y126219D01*
X158335Y126161D01*
X158414Y126100D01*
X158490Y126036D01*
X158564Y125969D01*
X158635Y125900D01*
X158703Y125827D01*
X158769Y125752D01*
X158831Y125675D01*
X158891Y125595D01*
X158947Y125513D01*
X159000Y125429D01*
X159050Y125343D01*
X159096Y125255D01*
X159139Y125165D01*
X159178Y125073D01*
X159214Y124981D01*
X159246Y124886D01*
X159275Y124791D01*
X159300Y124695D01*
X159321Y124597D01*
X159338Y124499D01*
X159352Y124401D01*
X159361Y124302D01*
X159367Y124202D01*
X159369Y124103D01*
X159369Y121537D01*
X159367Y121411D01*
X159361Y121284D01*
X159351Y121158D01*
X159338Y121032D01*
X159320Y120907D01*
X159299Y120783D01*
X159274Y120659D01*
X159245Y120535D01*
X159212Y120413D01*
X159176Y120292D01*
X159136Y120172D01*
X159092Y120054D01*
X159044Y119937D01*
X158993Y119821D01*
X158939Y119707D01*
X158880Y119594D01*
X158819Y119484D01*
X158754Y119375D01*
X158686Y119269D01*
X158614Y119165D01*
X158540Y119063D01*
X158462Y118963D01*
X158381Y118866D01*
X158297Y118771D01*
X158211Y118679D01*
X158121Y118589D01*
X158029Y118503D01*
X157934Y118419D01*
X157837Y118338D01*
X157737Y118260D01*
X157635Y118186D01*
X157531Y118114D01*
X157425Y118046D01*
X157316Y117981D01*
X157206Y117920D01*
X157093Y117861D01*
X156979Y117807D01*
X156863Y117756D01*
X156746Y117708D01*
X156628Y117664D01*
X156508Y117624D01*
X156387Y117588D01*
X156265Y117555D01*
X156141Y117526D01*
X156017Y117501D01*
X155893Y117480D01*
X155768Y117462D01*
X155642Y117449D01*
X155516Y117439D01*
X155389Y117433D01*
X155263Y117431D01*
X197269Y155084D02*
X197269Y157137D01*
X197269Y155084D02*
X197267Y154994D01*
X197261Y154905D01*
X197251Y154816D01*
X197238Y154728D01*
X197220Y154640D01*
X197199Y154553D01*
X197174Y154467D01*
X197145Y154382D01*
X197113Y154298D01*
X197077Y154216D01*
X197037Y154136D01*
X196994Y154058D01*
X196947Y153981D01*
X196898Y153906D01*
X196845Y153834D01*
X196789Y153764D01*
X196730Y153697D01*
X196668Y153632D01*
X196603Y153570D01*
X196536Y153511D01*
X196466Y153455D01*
X196394Y153402D01*
X196319Y153353D01*
X196243Y153306D01*
X196164Y153263D01*
X196084Y153223D01*
X196002Y153187D01*
X195918Y153155D01*
X195833Y153126D01*
X195747Y153101D01*
X195660Y153080D01*
X195572Y153062D01*
X195484Y153049D01*
X195395Y153039D01*
X195306Y153033D01*
X195216Y153031D01*
X190084Y153031D01*
X189994Y153033D01*
X189905Y153039D01*
X189816Y153049D01*
X189728Y153062D01*
X189640Y153080D01*
X189553Y153101D01*
X189467Y153126D01*
X189382Y153155D01*
X189298Y153187D01*
X189216Y153223D01*
X189136Y153263D01*
X189058Y153306D01*
X188981Y153353D01*
X188906Y153402D01*
X188834Y153455D01*
X188764Y153511D01*
X188697Y153570D01*
X188632Y153632D01*
X188570Y153697D01*
X188511Y153764D01*
X188455Y153834D01*
X188402Y153906D01*
X188353Y153981D01*
X188306Y154057D01*
X188263Y154136D01*
X188223Y154216D01*
X188187Y154298D01*
X188155Y154382D01*
X188126Y154467D01*
X188101Y154553D01*
X188080Y154640D01*
X188062Y154727D01*
X188049Y154816D01*
X188039Y154905D01*
X188033Y154994D01*
X188031Y155084D01*
X188031Y157137D01*
X190084Y160556D02*
X188031Y163123D01*
X197269Y163123D01*
X197269Y165689D02*
X197269Y160556D01*
X192650Y169556D02*
X192468Y169558D01*
X192287Y169565D01*
X192105Y169576D01*
X191924Y169591D01*
X191743Y169610D01*
X191563Y169634D01*
X191384Y169662D01*
X191205Y169694D01*
X191027Y169731D01*
X190850Y169772D01*
X190674Y169817D01*
X190499Y169866D01*
X190325Y169920D01*
X190153Y169977D01*
X189982Y170039D01*
X189812Y170105D01*
X189644Y170174D01*
X189478Y170248D01*
X189314Y170326D01*
X189314Y170327D02*
X189235Y170356D01*
X189158Y170388D01*
X189081Y170424D01*
X189007Y170463D01*
X188934Y170506D01*
X188864Y170552D01*
X188795Y170600D01*
X188729Y170652D01*
X188665Y170707D01*
X188603Y170764D01*
X188545Y170824D01*
X188488Y170887D01*
X188435Y170952D01*
X188385Y171019D01*
X188337Y171089D01*
X188293Y171160D01*
X188252Y171234D01*
X188214Y171309D01*
X188180Y171386D01*
X188149Y171464D01*
X188122Y171543D01*
X188098Y171624D01*
X188077Y171706D01*
X188061Y171788D01*
X188048Y171871D01*
X188038Y171955D01*
X188033Y172039D01*
X188031Y172123D01*
X188033Y172207D01*
X188038Y172291D01*
X188048Y172375D01*
X188061Y172458D01*
X188077Y172540D01*
X188098Y172622D01*
X188122Y172703D01*
X188149Y172782D01*
X188180Y172860D01*
X188214Y172937D01*
X188252Y173012D01*
X188293Y173086D01*
X188337Y173157D01*
X188385Y173227D01*
X188435Y173294D01*
X188488Y173359D01*
X188545Y173422D01*
X188604Y173482D01*
X188665Y173539D01*
X188729Y173594D01*
X188795Y173646D01*
X188864Y173694D01*
X188934Y173740D01*
X189007Y173783D01*
X189082Y173822D01*
X189158Y173858D01*
X189235Y173890D01*
X189314Y173919D01*
X189478Y173997D01*
X189644Y174071D01*
X189812Y174140D01*
X189982Y174206D01*
X190153Y174268D01*
X190325Y174325D01*
X190499Y174379D01*
X190674Y174428D01*
X190850Y174473D01*
X191027Y174514D01*
X191205Y174551D01*
X191384Y174583D01*
X191563Y174611D01*
X191743Y174635D01*
X191924Y174654D01*
X192105Y174669D01*
X192287Y174680D01*
X192468Y174687D01*
X192650Y174689D01*
X192650Y169556D02*
X192832Y169558D01*
X193013Y169565D01*
X193195Y169576D01*
X193376Y169591D01*
X193557Y169610D01*
X193737Y169634D01*
X193916Y169662D01*
X194095Y169694D01*
X194273Y169731D01*
X194450Y169772D01*
X194626Y169817D01*
X194801Y169866D01*
X194975Y169920D01*
X195147Y169977D01*
X195318Y170039D01*
X195488Y170105D01*
X195656Y170174D01*
X195822Y170248D01*
X195986Y170326D01*
X195986Y170327D02*
X196065Y170356D01*
X196142Y170388D01*
X196219Y170424D01*
X196293Y170463D01*
X196366Y170506D01*
X196436Y170552D01*
X196505Y170600D01*
X196571Y170652D01*
X196635Y170707D01*
X196697Y170764D01*
X196755Y170824D01*
X196812Y170887D01*
X196865Y170952D01*
X196915Y171019D01*
X196963Y171089D01*
X197007Y171160D01*
X197048Y171234D01*
X197086Y171309D01*
X197120Y171386D01*
X197151Y171464D01*
X197178Y171543D01*
X197202Y171624D01*
X197223Y171706D01*
X197239Y171788D01*
X197252Y171871D01*
X197262Y171955D01*
X197267Y172039D01*
X197269Y172123D01*
X195986Y173919D02*
X195822Y173997D01*
X195656Y174071D01*
X195488Y174140D01*
X195318Y174206D01*
X195147Y174268D01*
X194975Y174325D01*
X194801Y174379D01*
X194626Y174428D01*
X194450Y174473D01*
X194273Y174514D01*
X194095Y174551D01*
X193916Y174583D01*
X193737Y174611D01*
X193557Y174635D01*
X193376Y174654D01*
X193195Y174669D01*
X193013Y174680D01*
X192832Y174687D01*
X192650Y174689D01*
X195986Y173919D02*
X196065Y173890D01*
X196142Y173858D01*
X196219Y173822D01*
X196293Y173783D01*
X196366Y173740D01*
X196436Y173694D01*
X196505Y173646D01*
X196571Y173594D01*
X196635Y173539D01*
X196697Y173482D01*
X196755Y173422D01*
X196812Y173359D01*
X196865Y173294D01*
X196915Y173227D01*
X196963Y173157D01*
X197007Y173086D01*
X197048Y173012D01*
X197086Y172937D01*
X197120Y172860D01*
X197151Y172782D01*
X197178Y172703D01*
X197202Y172622D01*
X197223Y172540D01*
X197239Y172458D01*
X197252Y172375D01*
X197262Y172291D01*
X197267Y172207D01*
X197269Y172123D01*
X195216Y170070D02*
X190084Y174175D01*
D12*
X25000Y118000D03*
D11*
X21269Y113031D02*
X12031Y113031D01*
X12031Y115597D01*
X12033Y115696D01*
X12039Y115796D01*
X12048Y115895D01*
X12062Y115993D01*
X12079Y116091D01*
X12100Y116189D01*
X12125Y116285D01*
X12154Y116380D01*
X12186Y116475D01*
X12222Y116567D01*
X12261Y116659D01*
X12304Y116749D01*
X12350Y116837D01*
X12400Y116923D01*
X12453Y117007D01*
X12509Y117089D01*
X12569Y117169D01*
X12631Y117246D01*
X12697Y117321D01*
X12765Y117394D01*
X12836Y117463D01*
X12910Y117530D01*
X12986Y117594D01*
X13065Y117655D01*
X13146Y117713D01*
X13229Y117768D01*
X13314Y117819D01*
X13401Y117867D01*
X13490Y117912D01*
X13581Y117953D01*
X13673Y117991D01*
X13766Y118025D01*
X13861Y118055D01*
X13957Y118082D01*
X14054Y118105D01*
X14151Y118124D01*
X14250Y118139D01*
X14349Y118151D01*
X14448Y118159D01*
X14547Y118163D01*
X14647Y118163D01*
X14746Y118159D01*
X14845Y118151D01*
X14944Y118139D01*
X15043Y118124D01*
X15140Y118105D01*
X15237Y118082D01*
X15333Y118055D01*
X15428Y118025D01*
X15521Y117991D01*
X15613Y117953D01*
X15704Y117912D01*
X15793Y117867D01*
X15880Y117819D01*
X15965Y117768D01*
X16048Y117713D01*
X16129Y117655D01*
X16208Y117594D01*
X16284Y117530D01*
X16358Y117463D01*
X16429Y117394D01*
X16497Y117321D01*
X16563Y117246D01*
X16625Y117169D01*
X16685Y117089D01*
X16741Y117007D01*
X16794Y116923D01*
X16844Y116837D01*
X16890Y116749D01*
X16933Y116659D01*
X16972Y116567D01*
X17008Y116475D01*
X17040Y116380D01*
X17069Y116285D01*
X17094Y116189D01*
X17115Y116091D01*
X17132Y115993D01*
X17146Y115895D01*
X17155Y115796D01*
X17161Y115696D01*
X17163Y115597D01*
X17163Y113031D01*
X17163Y116110D02*
X21269Y118163D01*
X14084Y121974D02*
X12031Y124540D01*
X21269Y124540D01*
X21269Y121974D02*
X21269Y127107D01*
X14341Y136107D02*
X14246Y136105D01*
X14150Y136099D01*
X14055Y136089D01*
X13961Y136075D01*
X13867Y136058D01*
X13774Y136036D01*
X13682Y136011D01*
X13591Y135982D01*
X13501Y135949D01*
X13413Y135912D01*
X13326Y135872D01*
X13242Y135829D01*
X13159Y135781D01*
X13078Y135731D01*
X12999Y135677D01*
X12922Y135620D01*
X12848Y135560D01*
X12777Y135497D01*
X12708Y135430D01*
X12642Y135362D01*
X12578Y135290D01*
X12518Y135216D01*
X12461Y135139D01*
X12407Y135060D01*
X12357Y134979D01*
X12309Y134896D01*
X12266Y134812D01*
X12226Y134725D01*
X12189Y134637D01*
X12156Y134547D01*
X12127Y134456D01*
X12102Y134364D01*
X12080Y134271D01*
X12063Y134177D01*
X12049Y134083D01*
X12039Y133988D01*
X12033Y133893D01*
X12031Y133797D01*
X12033Y133691D01*
X12039Y133584D01*
X12048Y133478D01*
X12062Y133372D01*
X12079Y133267D01*
X12100Y133162D01*
X12124Y133059D01*
X12153Y132956D01*
X12185Y132854D01*
X12220Y132754D01*
X12260Y132655D01*
X12303Y132557D01*
X12349Y132461D01*
X12399Y132367D01*
X12452Y132274D01*
X12508Y132184D01*
X12568Y132095D01*
X12630Y132009D01*
X12696Y131925D01*
X12765Y131844D01*
X12836Y131765D01*
X12911Y131688D01*
X12988Y131615D01*
X13068Y131544D01*
X13150Y131476D01*
X13234Y131411D01*
X13321Y131349D01*
X13410Y131291D01*
X13501Y131235D01*
X13594Y131183D01*
X13689Y131134D01*
X13786Y131089D01*
X13884Y131047D01*
X13983Y131009D01*
X14084Y130974D01*
X16138Y135337D02*
X16070Y135405D01*
X16000Y135470D01*
X15928Y135533D01*
X15853Y135593D01*
X15776Y135650D01*
X15697Y135703D01*
X15616Y135754D01*
X15533Y135802D01*
X15449Y135846D01*
X15362Y135887D01*
X15274Y135925D01*
X15185Y135959D01*
X15094Y135990D01*
X15003Y136017D01*
X14910Y136041D01*
X14816Y136061D01*
X14722Y136078D01*
X14627Y136090D01*
X14532Y136100D01*
X14437Y136105D01*
X14341Y136107D01*
X16137Y135337D02*
X21269Y130974D01*
X21269Y136107D01*
X136031Y71969D02*
X136031Y62731D01*
X136031Y71969D02*
X138597Y71969D01*
X138696Y71967D01*
X138796Y71961D01*
X138895Y71952D01*
X138993Y71938D01*
X139091Y71921D01*
X139189Y71900D01*
X139285Y71875D01*
X139380Y71846D01*
X139475Y71814D01*
X139567Y71778D01*
X139659Y71739D01*
X139749Y71696D01*
X139837Y71650D01*
X139923Y71600D01*
X140007Y71547D01*
X140089Y71491D01*
X140169Y71431D01*
X140246Y71369D01*
X140321Y71303D01*
X140394Y71235D01*
X140463Y71164D01*
X140530Y71090D01*
X140594Y71014D01*
X140655Y70935D01*
X140713Y70854D01*
X140768Y70771D01*
X140819Y70686D01*
X140867Y70599D01*
X140912Y70510D01*
X140953Y70419D01*
X140991Y70327D01*
X141025Y70234D01*
X141055Y70139D01*
X141082Y70043D01*
X141105Y69946D01*
X141124Y69849D01*
X141139Y69750D01*
X141151Y69651D01*
X141159Y69552D01*
X141163Y69453D01*
X141163Y69353D01*
X141159Y69254D01*
X141151Y69155D01*
X141139Y69056D01*
X141124Y68957D01*
X141105Y68860D01*
X141082Y68763D01*
X141055Y68667D01*
X141025Y68572D01*
X140991Y68479D01*
X140953Y68387D01*
X140912Y68296D01*
X140867Y68207D01*
X140819Y68120D01*
X140768Y68035D01*
X140713Y67952D01*
X140655Y67871D01*
X140594Y67792D01*
X140530Y67716D01*
X140463Y67642D01*
X140394Y67571D01*
X140321Y67503D01*
X140246Y67437D01*
X140169Y67375D01*
X140089Y67315D01*
X140007Y67259D01*
X139923Y67206D01*
X139837Y67156D01*
X139749Y67110D01*
X139659Y67067D01*
X139567Y67028D01*
X139475Y66992D01*
X139380Y66960D01*
X139285Y66931D01*
X139189Y66906D01*
X139091Y66885D01*
X138993Y66868D01*
X138895Y66854D01*
X138796Y66845D01*
X138696Y66839D01*
X138597Y66837D01*
X136031Y66837D01*
X139110Y66837D02*
X141163Y62731D01*
X144974Y69916D02*
X147540Y71969D01*
X147540Y62731D01*
X144974Y62731D02*
X150107Y62731D01*
X153974Y62731D02*
X156540Y62731D01*
X156639Y62733D01*
X156739Y62739D01*
X156838Y62748D01*
X156936Y62762D01*
X157034Y62779D01*
X157132Y62800D01*
X157228Y62825D01*
X157323Y62854D01*
X157418Y62886D01*
X157510Y62922D01*
X157602Y62961D01*
X157692Y63004D01*
X157780Y63050D01*
X157866Y63100D01*
X157950Y63153D01*
X158032Y63209D01*
X158112Y63269D01*
X158189Y63331D01*
X158264Y63397D01*
X158337Y63465D01*
X158406Y63536D01*
X158473Y63610D01*
X158537Y63686D01*
X158598Y63765D01*
X158656Y63846D01*
X158711Y63929D01*
X158762Y64014D01*
X158810Y64101D01*
X158855Y64190D01*
X158896Y64281D01*
X158934Y64373D01*
X158968Y64466D01*
X158998Y64561D01*
X159025Y64657D01*
X159048Y64754D01*
X159067Y64851D01*
X159082Y64950D01*
X159094Y65049D01*
X159102Y65148D01*
X159106Y65247D01*
X159106Y65347D01*
X159102Y65446D01*
X159094Y65545D01*
X159082Y65644D01*
X159067Y65743D01*
X159048Y65840D01*
X159025Y65937D01*
X158998Y66033D01*
X158968Y66128D01*
X158934Y66221D01*
X158896Y66313D01*
X158855Y66404D01*
X158810Y66493D01*
X158762Y66580D01*
X158711Y66665D01*
X158656Y66748D01*
X158598Y66829D01*
X158537Y66908D01*
X158473Y66984D01*
X158406Y67058D01*
X158337Y67129D01*
X158264Y67197D01*
X158189Y67263D01*
X158112Y67325D01*
X158032Y67385D01*
X157950Y67441D01*
X157866Y67494D01*
X157780Y67544D01*
X157692Y67590D01*
X157602Y67633D01*
X157510Y67672D01*
X157418Y67708D01*
X157323Y67740D01*
X157228Y67769D01*
X157132Y67794D01*
X157034Y67815D01*
X156936Y67832D01*
X156838Y67846D01*
X156739Y67855D01*
X156639Y67861D01*
X156540Y67863D01*
X157054Y71969D02*
X153974Y71969D01*
X157054Y71969D02*
X157144Y71967D01*
X157233Y71961D01*
X157322Y71951D01*
X157410Y71938D01*
X157498Y71920D01*
X157585Y71899D01*
X157671Y71874D01*
X157756Y71845D01*
X157840Y71813D01*
X157922Y71777D01*
X158002Y71737D01*
X158081Y71694D01*
X158157Y71647D01*
X158232Y71598D01*
X158304Y71545D01*
X158374Y71489D01*
X158441Y71430D01*
X158506Y71368D01*
X158568Y71303D01*
X158627Y71236D01*
X158683Y71166D01*
X158736Y71094D01*
X158785Y71019D01*
X158832Y70943D01*
X158875Y70864D01*
X158915Y70784D01*
X158951Y70702D01*
X158983Y70618D01*
X159012Y70533D01*
X159037Y70447D01*
X159058Y70360D01*
X159076Y70272D01*
X159089Y70184D01*
X159099Y70095D01*
X159105Y70006D01*
X159107Y69916D01*
X159105Y69826D01*
X159099Y69737D01*
X159089Y69648D01*
X159076Y69560D01*
X159058Y69472D01*
X159037Y69385D01*
X159012Y69299D01*
X158983Y69214D01*
X158951Y69130D01*
X158915Y69048D01*
X158875Y68968D01*
X158832Y68890D01*
X158785Y68813D01*
X158736Y68738D01*
X158683Y68666D01*
X158627Y68596D01*
X158568Y68529D01*
X158506Y68464D01*
X158441Y68402D01*
X158374Y68343D01*
X158304Y68287D01*
X158232Y68234D01*
X158157Y68185D01*
X158081Y68138D01*
X158002Y68095D01*
X157922Y68055D01*
X157840Y68019D01*
X157756Y67987D01*
X157671Y67958D01*
X157585Y67933D01*
X157498Y67912D01*
X157410Y67894D01*
X157322Y67881D01*
X157233Y67871D01*
X157144Y67865D01*
X157054Y67863D01*
X155001Y67863D01*
D12*
X61000Y134000D03*
D11*
X34031Y135931D02*
X34031Y145169D01*
X36597Y145169D01*
X36696Y145167D01*
X36796Y145161D01*
X36895Y145152D01*
X36993Y145138D01*
X37091Y145121D01*
X37189Y145100D01*
X37285Y145075D01*
X37380Y145046D01*
X37475Y145014D01*
X37567Y144978D01*
X37659Y144939D01*
X37749Y144896D01*
X37837Y144850D01*
X37923Y144800D01*
X38007Y144747D01*
X38089Y144691D01*
X38169Y144631D01*
X38246Y144569D01*
X38321Y144503D01*
X38394Y144435D01*
X38463Y144364D01*
X38530Y144290D01*
X38594Y144214D01*
X38655Y144135D01*
X38713Y144054D01*
X38768Y143971D01*
X38819Y143886D01*
X38867Y143799D01*
X38912Y143710D01*
X38953Y143619D01*
X38991Y143527D01*
X39025Y143434D01*
X39055Y143339D01*
X39082Y143243D01*
X39105Y143146D01*
X39124Y143049D01*
X39139Y142950D01*
X39151Y142851D01*
X39159Y142752D01*
X39163Y142653D01*
X39163Y142553D01*
X39159Y142454D01*
X39151Y142355D01*
X39139Y142256D01*
X39124Y142157D01*
X39105Y142060D01*
X39082Y141963D01*
X39055Y141867D01*
X39025Y141772D01*
X38991Y141679D01*
X38953Y141587D01*
X38912Y141496D01*
X38867Y141407D01*
X38819Y141320D01*
X38768Y141235D01*
X38713Y141152D01*
X38655Y141071D01*
X38594Y140992D01*
X38530Y140916D01*
X38463Y140842D01*
X38394Y140771D01*
X38321Y140703D01*
X38246Y140637D01*
X38169Y140575D01*
X38089Y140515D01*
X38007Y140459D01*
X37923Y140406D01*
X37837Y140356D01*
X37749Y140310D01*
X37659Y140267D01*
X37567Y140228D01*
X37475Y140192D01*
X37380Y140160D01*
X37285Y140131D01*
X37189Y140106D01*
X37091Y140085D01*
X36993Y140068D01*
X36895Y140054D01*
X36796Y140045D01*
X36696Y140039D01*
X36597Y140037D01*
X34031Y140037D01*
X37110Y140037D02*
X39163Y135931D01*
X42974Y143116D02*
X45540Y145169D01*
X45540Y135931D01*
X42974Y135931D02*
X48107Y135931D01*
X51974Y137984D02*
X54027Y145169D01*
X51974Y137984D02*
X57107Y137984D01*
X55567Y140037D02*
X55567Y135931D01*
D12*
X70000Y134000D03*
D11*
X64869Y149031D02*
X55631Y149031D01*
X55631Y151597D01*
X55633Y151696D01*
X55639Y151796D01*
X55648Y151895D01*
X55662Y151993D01*
X55679Y152091D01*
X55700Y152189D01*
X55725Y152285D01*
X55754Y152380D01*
X55786Y152475D01*
X55822Y152567D01*
X55861Y152659D01*
X55904Y152749D01*
X55950Y152837D01*
X56000Y152923D01*
X56053Y153007D01*
X56109Y153089D01*
X56169Y153169D01*
X56231Y153246D01*
X56297Y153321D01*
X56365Y153394D01*
X56436Y153463D01*
X56510Y153530D01*
X56586Y153594D01*
X56665Y153655D01*
X56746Y153713D01*
X56829Y153768D01*
X56914Y153819D01*
X57001Y153867D01*
X57090Y153912D01*
X57181Y153953D01*
X57273Y153991D01*
X57366Y154025D01*
X57461Y154055D01*
X57557Y154082D01*
X57654Y154105D01*
X57751Y154124D01*
X57850Y154139D01*
X57949Y154151D01*
X58048Y154159D01*
X58147Y154163D01*
X58247Y154163D01*
X58346Y154159D01*
X58445Y154151D01*
X58544Y154139D01*
X58643Y154124D01*
X58740Y154105D01*
X58837Y154082D01*
X58933Y154055D01*
X59028Y154025D01*
X59121Y153991D01*
X59213Y153953D01*
X59304Y153912D01*
X59393Y153867D01*
X59480Y153819D01*
X59565Y153768D01*
X59648Y153713D01*
X59729Y153655D01*
X59808Y153594D01*
X59884Y153530D01*
X59958Y153463D01*
X60029Y153394D01*
X60097Y153321D01*
X60163Y153246D01*
X60225Y153169D01*
X60285Y153089D01*
X60341Y153007D01*
X60394Y152923D01*
X60444Y152837D01*
X60490Y152749D01*
X60533Y152659D01*
X60572Y152567D01*
X60608Y152475D01*
X60640Y152380D01*
X60669Y152285D01*
X60694Y152189D01*
X60715Y152091D01*
X60732Y151993D01*
X60746Y151895D01*
X60755Y151796D01*
X60761Y151696D01*
X60763Y151597D01*
X60763Y149031D01*
X60763Y152110D02*
X64869Y154163D01*
X57684Y157974D02*
X55631Y160540D01*
X64869Y160540D01*
X64869Y157974D02*
X64869Y163107D01*
X64869Y166974D02*
X64869Y170054D01*
X64867Y170144D01*
X64861Y170233D01*
X64851Y170322D01*
X64838Y170410D01*
X64820Y170498D01*
X64799Y170585D01*
X64774Y170671D01*
X64745Y170756D01*
X64713Y170840D01*
X64677Y170922D01*
X64637Y171002D01*
X64594Y171081D01*
X64547Y171157D01*
X64498Y171232D01*
X64445Y171304D01*
X64389Y171374D01*
X64330Y171441D01*
X64268Y171506D01*
X64203Y171568D01*
X64136Y171627D01*
X64066Y171683D01*
X63994Y171736D01*
X63919Y171785D01*
X63843Y171832D01*
X63764Y171875D01*
X63684Y171915D01*
X63602Y171951D01*
X63518Y171983D01*
X63433Y172012D01*
X63347Y172037D01*
X63260Y172058D01*
X63172Y172076D01*
X63084Y172089D01*
X62995Y172099D01*
X62906Y172105D01*
X62816Y172107D01*
X61790Y172107D01*
X61700Y172105D01*
X61611Y172099D01*
X61522Y172089D01*
X61434Y172076D01*
X61346Y172058D01*
X61259Y172037D01*
X61173Y172012D01*
X61088Y171983D01*
X61004Y171951D01*
X60922Y171915D01*
X60842Y171875D01*
X60764Y171832D01*
X60687Y171785D01*
X60612Y171736D01*
X60540Y171683D01*
X60470Y171627D01*
X60403Y171568D01*
X60338Y171506D01*
X60276Y171441D01*
X60217Y171374D01*
X60161Y171304D01*
X60108Y171232D01*
X60059Y171157D01*
X60012Y171081D01*
X59969Y171002D01*
X59929Y170922D01*
X59893Y170840D01*
X59861Y170756D01*
X59832Y170671D01*
X59807Y170585D01*
X59786Y170498D01*
X59768Y170411D01*
X59755Y170322D01*
X59745Y170233D01*
X59739Y170144D01*
X59737Y170054D01*
X59737Y166974D01*
X55631Y166974D01*
X55631Y172107D01*
X57969Y106917D02*
X57969Y104864D01*
X57967Y104774D01*
X57961Y104685D01*
X57951Y104596D01*
X57938Y104508D01*
X57920Y104420D01*
X57899Y104333D01*
X57874Y104247D01*
X57845Y104162D01*
X57813Y104078D01*
X57777Y103996D01*
X57737Y103916D01*
X57694Y103838D01*
X57647Y103761D01*
X57598Y103686D01*
X57545Y103614D01*
X57489Y103544D01*
X57430Y103477D01*
X57368Y103412D01*
X57303Y103350D01*
X57236Y103291D01*
X57166Y103235D01*
X57094Y103182D01*
X57019Y103133D01*
X56943Y103086D01*
X56864Y103043D01*
X56784Y103003D01*
X56702Y102967D01*
X56618Y102935D01*
X56533Y102906D01*
X56447Y102881D01*
X56360Y102860D01*
X56272Y102842D01*
X56184Y102829D01*
X56095Y102819D01*
X56006Y102813D01*
X55916Y102811D01*
X50784Y102811D01*
X50694Y102813D01*
X50605Y102819D01*
X50516Y102829D01*
X50428Y102842D01*
X50340Y102860D01*
X50253Y102881D01*
X50167Y102906D01*
X50082Y102935D01*
X49998Y102967D01*
X49916Y103003D01*
X49836Y103043D01*
X49758Y103086D01*
X49681Y103133D01*
X49606Y103182D01*
X49534Y103235D01*
X49464Y103291D01*
X49397Y103350D01*
X49332Y103412D01*
X49270Y103477D01*
X49211Y103544D01*
X49155Y103614D01*
X49102Y103686D01*
X49053Y103761D01*
X49006Y103837D01*
X48963Y103916D01*
X48923Y103996D01*
X48887Y104078D01*
X48855Y104162D01*
X48826Y104247D01*
X48801Y104333D01*
X48780Y104420D01*
X48762Y104507D01*
X48749Y104596D01*
X48739Y104685D01*
X48733Y104774D01*
X48731Y104864D01*
X48731Y106917D01*
X50784Y110337D02*
X48731Y112903D01*
X57969Y112903D01*
X57969Y110337D02*
X57969Y115469D01*
X51041Y124469D02*
X50946Y124467D01*
X50850Y124461D01*
X50755Y124451D01*
X50661Y124437D01*
X50567Y124420D01*
X50474Y124398D01*
X50382Y124373D01*
X50291Y124344D01*
X50201Y124311D01*
X50113Y124274D01*
X50026Y124234D01*
X49942Y124191D01*
X49859Y124143D01*
X49778Y124093D01*
X49699Y124039D01*
X49622Y123982D01*
X49548Y123922D01*
X49477Y123859D01*
X49408Y123792D01*
X49342Y123724D01*
X49278Y123652D01*
X49218Y123578D01*
X49161Y123501D01*
X49107Y123422D01*
X49057Y123341D01*
X49009Y123258D01*
X48966Y123174D01*
X48926Y123087D01*
X48889Y122999D01*
X48856Y122909D01*
X48827Y122818D01*
X48802Y122726D01*
X48780Y122633D01*
X48763Y122539D01*
X48749Y122445D01*
X48739Y122350D01*
X48733Y122255D01*
X48731Y122159D01*
X48733Y122053D01*
X48739Y121946D01*
X48748Y121840D01*
X48762Y121734D01*
X48779Y121629D01*
X48800Y121524D01*
X48824Y121421D01*
X48853Y121318D01*
X48885Y121216D01*
X48920Y121116D01*
X48960Y121017D01*
X49003Y120919D01*
X49049Y120823D01*
X49099Y120729D01*
X49152Y120636D01*
X49208Y120546D01*
X49268Y120457D01*
X49330Y120371D01*
X49396Y120287D01*
X49465Y120206D01*
X49536Y120127D01*
X49611Y120050D01*
X49688Y119977D01*
X49768Y119906D01*
X49850Y119838D01*
X49934Y119773D01*
X50021Y119711D01*
X50110Y119653D01*
X50201Y119597D01*
X50294Y119545D01*
X50389Y119496D01*
X50486Y119451D01*
X50584Y119409D01*
X50683Y119371D01*
X50784Y119336D01*
X52838Y123700D02*
X52770Y123768D01*
X52700Y123833D01*
X52628Y123896D01*
X52553Y123956D01*
X52476Y124013D01*
X52397Y124066D01*
X52316Y124117D01*
X52233Y124165D01*
X52149Y124209D01*
X52062Y124250D01*
X51974Y124288D01*
X51885Y124322D01*
X51794Y124353D01*
X51703Y124380D01*
X51610Y124404D01*
X51516Y124424D01*
X51422Y124441D01*
X51327Y124453D01*
X51232Y124463D01*
X51137Y124468D01*
X51041Y124470D01*
X52837Y123699D02*
X57969Y119337D01*
X57969Y124469D01*
X178269Y155684D02*
X178269Y157737D01*
X178269Y155684D02*
X178267Y155594D01*
X178261Y155505D01*
X178251Y155416D01*
X178238Y155328D01*
X178220Y155240D01*
X178199Y155153D01*
X178174Y155067D01*
X178145Y154982D01*
X178113Y154898D01*
X178077Y154816D01*
X178037Y154736D01*
X177994Y154658D01*
X177947Y154581D01*
X177898Y154506D01*
X177845Y154434D01*
X177789Y154364D01*
X177730Y154297D01*
X177668Y154232D01*
X177603Y154170D01*
X177536Y154111D01*
X177466Y154055D01*
X177394Y154002D01*
X177319Y153953D01*
X177243Y153906D01*
X177164Y153863D01*
X177084Y153823D01*
X177002Y153787D01*
X176918Y153755D01*
X176833Y153726D01*
X176747Y153701D01*
X176660Y153680D01*
X176572Y153662D01*
X176484Y153649D01*
X176395Y153639D01*
X176306Y153633D01*
X176216Y153631D01*
X171084Y153631D01*
X170994Y153633D01*
X170905Y153639D01*
X170816Y153649D01*
X170728Y153662D01*
X170640Y153680D01*
X170553Y153701D01*
X170467Y153726D01*
X170382Y153755D01*
X170298Y153787D01*
X170216Y153823D01*
X170136Y153863D01*
X170058Y153906D01*
X169981Y153953D01*
X169906Y154002D01*
X169834Y154055D01*
X169764Y154111D01*
X169697Y154170D01*
X169632Y154232D01*
X169570Y154297D01*
X169511Y154364D01*
X169455Y154434D01*
X169402Y154506D01*
X169353Y154581D01*
X169306Y154657D01*
X169263Y154736D01*
X169223Y154816D01*
X169187Y154898D01*
X169155Y154982D01*
X169126Y155067D01*
X169101Y155153D01*
X169080Y155240D01*
X169062Y155327D01*
X169049Y155416D01*
X169039Y155505D01*
X169033Y155594D01*
X169031Y155684D01*
X169031Y157737D01*
X171084Y161156D02*
X169031Y163723D01*
X178269Y163723D01*
X178269Y166289D02*
X178269Y161156D01*
X178269Y170156D02*
X178269Y172723D01*
X178267Y172822D01*
X178261Y172922D01*
X178252Y173021D01*
X178238Y173119D01*
X178221Y173217D01*
X178200Y173315D01*
X178175Y173411D01*
X178146Y173506D01*
X178114Y173601D01*
X178078Y173693D01*
X178039Y173785D01*
X177996Y173875D01*
X177950Y173963D01*
X177900Y174049D01*
X177847Y174133D01*
X177791Y174215D01*
X177731Y174295D01*
X177669Y174372D01*
X177603Y174447D01*
X177535Y174520D01*
X177464Y174589D01*
X177390Y174656D01*
X177314Y174720D01*
X177235Y174781D01*
X177154Y174839D01*
X177071Y174894D01*
X176986Y174945D01*
X176899Y174993D01*
X176810Y175038D01*
X176719Y175079D01*
X176627Y175117D01*
X176534Y175151D01*
X176439Y175181D01*
X176343Y175208D01*
X176246Y175231D01*
X176149Y175250D01*
X176050Y175265D01*
X175951Y175277D01*
X175852Y175285D01*
X175753Y175289D01*
X175653Y175289D01*
X175554Y175285D01*
X175455Y175277D01*
X175356Y175265D01*
X175257Y175250D01*
X175160Y175231D01*
X175063Y175208D01*
X174967Y175181D01*
X174872Y175151D01*
X174779Y175117D01*
X174687Y175079D01*
X174596Y175038D01*
X174507Y174993D01*
X174420Y174945D01*
X174335Y174894D01*
X174252Y174839D01*
X174171Y174781D01*
X174092Y174720D01*
X174016Y174656D01*
X173942Y174589D01*
X173871Y174520D01*
X173803Y174447D01*
X173737Y174372D01*
X173675Y174295D01*
X173615Y174215D01*
X173559Y174133D01*
X173506Y174049D01*
X173456Y173963D01*
X173410Y173875D01*
X173367Y173785D01*
X173328Y173693D01*
X173292Y173601D01*
X173260Y173506D01*
X173231Y173411D01*
X173206Y173315D01*
X173185Y173217D01*
X173168Y173119D01*
X173154Y173021D01*
X173145Y172922D01*
X173139Y172822D01*
X173137Y172723D01*
X169031Y173236D02*
X169031Y170156D01*
X169031Y173236D02*
X169033Y173326D01*
X169039Y173415D01*
X169049Y173504D01*
X169062Y173592D01*
X169080Y173680D01*
X169101Y173767D01*
X169126Y173853D01*
X169155Y173938D01*
X169187Y174022D01*
X169223Y174104D01*
X169263Y174184D01*
X169306Y174263D01*
X169353Y174339D01*
X169402Y174414D01*
X169455Y174486D01*
X169511Y174556D01*
X169570Y174623D01*
X169632Y174688D01*
X169697Y174750D01*
X169764Y174809D01*
X169834Y174865D01*
X169906Y174918D01*
X169981Y174967D01*
X170058Y175014D01*
X170136Y175057D01*
X170216Y175097D01*
X170298Y175133D01*
X170382Y175165D01*
X170467Y175194D01*
X170553Y175219D01*
X170640Y175240D01*
X170728Y175258D01*
X170816Y175271D01*
X170905Y175281D01*
X170994Y175287D01*
X171084Y175289D01*
X171174Y175287D01*
X171263Y175281D01*
X171352Y175271D01*
X171440Y175258D01*
X171528Y175240D01*
X171615Y175219D01*
X171701Y175194D01*
X171786Y175165D01*
X171870Y175133D01*
X171952Y175097D01*
X172032Y175057D01*
X172111Y175014D01*
X172187Y174967D01*
X172262Y174918D01*
X172334Y174865D01*
X172404Y174809D01*
X172471Y174750D01*
X172536Y174688D01*
X172598Y174623D01*
X172657Y174556D01*
X172713Y174486D01*
X172766Y174414D01*
X172815Y174339D01*
X172862Y174263D01*
X172905Y174184D01*
X172945Y174104D01*
X172981Y174022D01*
X173013Y173938D01*
X173042Y173853D01*
X173067Y173767D01*
X173088Y173680D01*
X173106Y173592D01*
X173119Y173504D01*
X173129Y173415D01*
X173135Y173326D01*
X173137Y173236D01*
X173137Y171183D01*
X82969Y111417D02*
X82969Y109364D01*
X82967Y109274D01*
X82961Y109185D01*
X82951Y109096D01*
X82938Y109008D01*
X82920Y108920D01*
X82899Y108833D01*
X82874Y108747D01*
X82845Y108662D01*
X82813Y108578D01*
X82777Y108496D01*
X82737Y108416D01*
X82694Y108338D01*
X82647Y108261D01*
X82598Y108186D01*
X82545Y108114D01*
X82489Y108044D01*
X82430Y107977D01*
X82368Y107912D01*
X82303Y107850D01*
X82236Y107791D01*
X82166Y107735D01*
X82094Y107682D01*
X82019Y107633D01*
X81943Y107586D01*
X81864Y107543D01*
X81784Y107503D01*
X81702Y107467D01*
X81618Y107435D01*
X81533Y107406D01*
X81447Y107381D01*
X81360Y107360D01*
X81272Y107342D01*
X81184Y107329D01*
X81095Y107319D01*
X81006Y107313D01*
X80916Y107311D01*
X75784Y107311D01*
X75694Y107313D01*
X75605Y107319D01*
X75516Y107329D01*
X75428Y107342D01*
X75340Y107360D01*
X75253Y107381D01*
X75167Y107406D01*
X75082Y107435D01*
X74998Y107467D01*
X74916Y107503D01*
X74836Y107543D01*
X74758Y107586D01*
X74681Y107633D01*
X74606Y107682D01*
X74534Y107735D01*
X74464Y107791D01*
X74397Y107850D01*
X74332Y107912D01*
X74270Y107977D01*
X74211Y108044D01*
X74155Y108114D01*
X74102Y108186D01*
X74053Y108261D01*
X74006Y108337D01*
X73963Y108416D01*
X73923Y108496D01*
X73887Y108578D01*
X73855Y108662D01*
X73826Y108747D01*
X73801Y108833D01*
X73780Y108920D01*
X73762Y109007D01*
X73749Y109096D01*
X73739Y109185D01*
X73733Y109274D01*
X73731Y109364D01*
X73731Y111417D01*
X75784Y114837D02*
X73731Y117403D01*
X82969Y117403D01*
X82969Y114837D02*
X82969Y119969D01*
X75784Y123837D02*
X73731Y126403D01*
X82969Y126403D01*
X82969Y123837D02*
X82969Y128969D01*
D13*
X31100Y99250D03*
X31100Y106750D03*
D12*
X31100Y103000D03*
D11*
X30954Y109031D02*
X30954Y118269D01*
X30954Y109031D02*
X35060Y109031D01*
X43570Y115959D02*
X43568Y116052D01*
X43563Y116145D01*
X43553Y116237D01*
X43540Y116330D01*
X43523Y116421D01*
X43503Y116512D01*
X43479Y116602D01*
X43451Y116691D01*
X43420Y116778D01*
X43385Y116864D01*
X43347Y116949D01*
X43305Y117033D01*
X43261Y117114D01*
X43212Y117194D01*
X43161Y117271D01*
X43107Y117347D01*
X43049Y117420D01*
X42989Y117491D01*
X42926Y117559D01*
X42860Y117625D01*
X42792Y117688D01*
X42721Y117748D01*
X42648Y117806D01*
X42572Y117860D01*
X42495Y117911D01*
X42415Y117960D01*
X42334Y118004D01*
X42250Y118046D01*
X42165Y118084D01*
X42079Y118119D01*
X41992Y118150D01*
X41903Y118178D01*
X41813Y118202D01*
X41722Y118222D01*
X41631Y118239D01*
X41538Y118252D01*
X41446Y118262D01*
X41353Y118267D01*
X41260Y118269D01*
X41153Y118267D01*
X41047Y118261D01*
X40941Y118252D01*
X40835Y118238D01*
X40730Y118221D01*
X40625Y118200D01*
X40522Y118176D01*
X40419Y118147D01*
X40317Y118115D01*
X40217Y118080D01*
X40118Y118040D01*
X40020Y117997D01*
X39924Y117951D01*
X39830Y117901D01*
X39737Y117848D01*
X39647Y117792D01*
X39558Y117732D01*
X39472Y117670D01*
X39388Y117604D01*
X39307Y117535D01*
X39228Y117464D01*
X39151Y117389D01*
X39078Y117312D01*
X39007Y117233D01*
X38939Y117150D01*
X38874Y117066D01*
X38812Y116979D01*
X38754Y116890D01*
X38698Y116799D01*
X38646Y116706D01*
X38597Y116611D01*
X38552Y116515D01*
X38510Y116416D01*
X38472Y116317D01*
X38437Y116216D01*
X42800Y114162D02*
X42868Y114230D01*
X42933Y114300D01*
X42996Y114372D01*
X43056Y114447D01*
X43113Y114524D01*
X43166Y114603D01*
X43217Y114684D01*
X43265Y114767D01*
X43309Y114851D01*
X43350Y114938D01*
X43388Y115026D01*
X43422Y115115D01*
X43453Y115206D01*
X43480Y115297D01*
X43504Y115390D01*
X43524Y115484D01*
X43541Y115578D01*
X43553Y115673D01*
X43563Y115768D01*
X43568Y115863D01*
X43570Y115959D01*
X42799Y114163D02*
X38437Y109031D01*
X43569Y109031D01*
X165269Y168084D02*
X165269Y170137D01*
X165269Y168084D02*
X165267Y167994D01*
X165261Y167905D01*
X165251Y167816D01*
X165238Y167728D01*
X165220Y167640D01*
X165199Y167553D01*
X165174Y167467D01*
X165145Y167382D01*
X165113Y167298D01*
X165077Y167216D01*
X165037Y167136D01*
X164994Y167058D01*
X164947Y166981D01*
X164898Y166906D01*
X164845Y166834D01*
X164789Y166764D01*
X164730Y166697D01*
X164668Y166632D01*
X164603Y166570D01*
X164536Y166511D01*
X164466Y166455D01*
X164394Y166402D01*
X164319Y166353D01*
X164243Y166306D01*
X164164Y166263D01*
X164084Y166223D01*
X164002Y166187D01*
X163918Y166155D01*
X163833Y166126D01*
X163747Y166101D01*
X163660Y166080D01*
X163572Y166062D01*
X163484Y166049D01*
X163395Y166039D01*
X163306Y166033D01*
X163216Y166031D01*
X158084Y166031D01*
X157994Y166033D01*
X157905Y166039D01*
X157816Y166049D01*
X157728Y166062D01*
X157640Y166080D01*
X157553Y166101D01*
X157467Y166126D01*
X157382Y166155D01*
X157298Y166187D01*
X157216Y166223D01*
X157136Y166263D01*
X157058Y166306D01*
X156981Y166353D01*
X156906Y166402D01*
X156834Y166455D01*
X156764Y166511D01*
X156697Y166570D01*
X156632Y166632D01*
X156570Y166697D01*
X156511Y166764D01*
X156455Y166834D01*
X156402Y166906D01*
X156353Y166981D01*
X156306Y167057D01*
X156263Y167136D01*
X156223Y167216D01*
X156187Y167298D01*
X156155Y167382D01*
X156126Y167467D01*
X156101Y167553D01*
X156080Y167640D01*
X156062Y167727D01*
X156049Y167816D01*
X156039Y167905D01*
X156033Y167994D01*
X156031Y168084D01*
X156031Y170137D01*
X158084Y173556D02*
X156031Y176123D01*
X165269Y176123D01*
X165269Y178689D02*
X165269Y173556D01*
X160137Y182556D02*
X160137Y185636D01*
X160139Y185726D01*
X160145Y185815D01*
X160155Y185904D01*
X160168Y185993D01*
X160186Y186080D01*
X160207Y186167D01*
X160232Y186253D01*
X160261Y186338D01*
X160293Y186422D01*
X160329Y186504D01*
X160369Y186584D01*
X160412Y186663D01*
X160459Y186739D01*
X160508Y186814D01*
X160561Y186886D01*
X160617Y186956D01*
X160676Y187023D01*
X160738Y187088D01*
X160803Y187150D01*
X160870Y187209D01*
X160940Y187265D01*
X161012Y187318D01*
X161087Y187367D01*
X161164Y187414D01*
X161242Y187457D01*
X161322Y187497D01*
X161404Y187533D01*
X161488Y187565D01*
X161573Y187594D01*
X161659Y187619D01*
X161746Y187640D01*
X161834Y187658D01*
X161922Y187671D01*
X162011Y187681D01*
X162100Y187687D01*
X162190Y187689D01*
X162703Y187689D01*
X162802Y187687D01*
X162902Y187681D01*
X163001Y187672D01*
X163099Y187658D01*
X163197Y187641D01*
X163295Y187620D01*
X163391Y187595D01*
X163486Y187566D01*
X163581Y187534D01*
X163673Y187498D01*
X163765Y187459D01*
X163855Y187416D01*
X163943Y187370D01*
X164029Y187320D01*
X164113Y187267D01*
X164195Y187211D01*
X164275Y187151D01*
X164352Y187089D01*
X164427Y187023D01*
X164500Y186955D01*
X164569Y186884D01*
X164636Y186810D01*
X164700Y186734D01*
X164761Y186655D01*
X164819Y186574D01*
X164874Y186491D01*
X164925Y186406D01*
X164973Y186319D01*
X165018Y186230D01*
X165059Y186139D01*
X165097Y186047D01*
X165131Y185954D01*
X165161Y185859D01*
X165188Y185763D01*
X165211Y185666D01*
X165230Y185569D01*
X165245Y185470D01*
X165257Y185371D01*
X165265Y185272D01*
X165269Y185173D01*
X165269Y185073D01*
X165265Y184974D01*
X165257Y184875D01*
X165245Y184776D01*
X165230Y184677D01*
X165211Y184580D01*
X165188Y184483D01*
X165161Y184387D01*
X165131Y184292D01*
X165097Y184199D01*
X165059Y184107D01*
X165018Y184016D01*
X164973Y183927D01*
X164925Y183840D01*
X164874Y183755D01*
X164819Y183672D01*
X164761Y183591D01*
X164700Y183512D01*
X164636Y183436D01*
X164569Y183362D01*
X164500Y183291D01*
X164427Y183223D01*
X164352Y183157D01*
X164275Y183095D01*
X164195Y183035D01*
X164113Y182979D01*
X164029Y182926D01*
X163943Y182876D01*
X163855Y182830D01*
X163765Y182787D01*
X163673Y182748D01*
X163581Y182712D01*
X163486Y182680D01*
X163391Y182651D01*
X163295Y182626D01*
X163197Y182605D01*
X163099Y182588D01*
X163001Y182574D01*
X162902Y182565D01*
X162802Y182559D01*
X162703Y182557D01*
X162703Y182556D02*
X160137Y182556D01*
X160011Y182558D01*
X159884Y182564D01*
X159758Y182574D01*
X159632Y182587D01*
X159507Y182605D01*
X159383Y182626D01*
X159259Y182651D01*
X159135Y182680D01*
X159013Y182713D01*
X158892Y182749D01*
X158772Y182789D01*
X158654Y182833D01*
X158537Y182881D01*
X158421Y182932D01*
X158307Y182986D01*
X158194Y183045D01*
X158084Y183106D01*
X157975Y183171D01*
X157869Y183239D01*
X157765Y183311D01*
X157663Y183385D01*
X157563Y183463D01*
X157466Y183544D01*
X157371Y183628D01*
X157279Y183714D01*
X157189Y183804D01*
X157103Y183896D01*
X157019Y183991D01*
X156938Y184088D01*
X156860Y184188D01*
X156786Y184290D01*
X156714Y184394D01*
X156646Y184500D01*
X156581Y184609D01*
X156520Y184719D01*
X156461Y184832D01*
X156407Y184946D01*
X156356Y185061D01*
X156308Y185179D01*
X156264Y185297D01*
X156224Y185417D01*
X156188Y185538D01*
X156155Y185660D01*
X156126Y185784D01*
X156101Y185907D01*
X156080Y186032D01*
X156062Y186157D01*
X156049Y186283D01*
X156039Y186409D01*
X156033Y186535D01*
X156031Y186662D01*
X164269Y91137D02*
X164269Y89084D01*
X164267Y88994D01*
X164261Y88905D01*
X164251Y88816D01*
X164238Y88728D01*
X164220Y88640D01*
X164199Y88553D01*
X164174Y88467D01*
X164145Y88382D01*
X164113Y88298D01*
X164077Y88216D01*
X164037Y88136D01*
X163994Y88058D01*
X163947Y87981D01*
X163898Y87906D01*
X163845Y87834D01*
X163789Y87764D01*
X163730Y87697D01*
X163668Y87632D01*
X163603Y87570D01*
X163536Y87511D01*
X163466Y87455D01*
X163394Y87402D01*
X163319Y87353D01*
X163243Y87306D01*
X163164Y87263D01*
X163084Y87223D01*
X163002Y87187D01*
X162918Y87155D01*
X162833Y87126D01*
X162747Y87101D01*
X162660Y87080D01*
X162572Y87062D01*
X162484Y87049D01*
X162395Y87039D01*
X162306Y87033D01*
X162216Y87031D01*
X157084Y87031D01*
X156994Y87033D01*
X156905Y87039D01*
X156816Y87049D01*
X156728Y87062D01*
X156640Y87080D01*
X156553Y87101D01*
X156467Y87126D01*
X156382Y87155D01*
X156298Y87187D01*
X156216Y87223D01*
X156136Y87263D01*
X156058Y87306D01*
X155981Y87353D01*
X155906Y87402D01*
X155834Y87455D01*
X155764Y87511D01*
X155697Y87570D01*
X155632Y87632D01*
X155570Y87697D01*
X155511Y87764D01*
X155455Y87834D01*
X155402Y87906D01*
X155353Y87981D01*
X155306Y88057D01*
X155263Y88136D01*
X155223Y88216D01*
X155187Y88298D01*
X155155Y88382D01*
X155126Y88467D01*
X155101Y88553D01*
X155080Y88640D01*
X155062Y88727D01*
X155049Y88816D01*
X155039Y88905D01*
X155033Y88994D01*
X155031Y89084D01*
X155031Y91137D01*
X157084Y94556D02*
X155031Y97123D01*
X164269Y97123D01*
X164269Y99689D02*
X164269Y94556D01*
X160163Y105609D02*
X160163Y108689D01*
X160163Y105609D02*
X160161Y105519D01*
X160155Y105430D01*
X160145Y105341D01*
X160132Y105253D01*
X160114Y105165D01*
X160093Y105078D01*
X160068Y104992D01*
X160039Y104907D01*
X160007Y104823D01*
X159971Y104741D01*
X159931Y104661D01*
X159888Y104583D01*
X159841Y104506D01*
X159792Y104431D01*
X159739Y104359D01*
X159683Y104289D01*
X159624Y104222D01*
X159562Y104157D01*
X159497Y104095D01*
X159430Y104036D01*
X159360Y103980D01*
X159288Y103927D01*
X159213Y103878D01*
X159137Y103831D01*
X159058Y103788D01*
X158978Y103748D01*
X158896Y103712D01*
X158812Y103680D01*
X158727Y103651D01*
X158641Y103626D01*
X158554Y103605D01*
X158466Y103587D01*
X158378Y103574D01*
X158289Y103564D01*
X158200Y103558D01*
X158110Y103556D01*
X157597Y103556D01*
X157597Y103557D02*
X157498Y103559D01*
X157398Y103565D01*
X157299Y103574D01*
X157201Y103588D01*
X157103Y103605D01*
X157005Y103626D01*
X156909Y103651D01*
X156814Y103680D01*
X156719Y103712D01*
X156627Y103748D01*
X156535Y103787D01*
X156445Y103830D01*
X156357Y103876D01*
X156271Y103926D01*
X156187Y103979D01*
X156105Y104035D01*
X156025Y104095D01*
X155948Y104157D01*
X155873Y104223D01*
X155800Y104291D01*
X155731Y104362D01*
X155664Y104436D01*
X155600Y104512D01*
X155539Y104591D01*
X155481Y104672D01*
X155426Y104755D01*
X155375Y104840D01*
X155327Y104927D01*
X155282Y105016D01*
X155241Y105107D01*
X155203Y105199D01*
X155169Y105292D01*
X155139Y105387D01*
X155112Y105483D01*
X155089Y105580D01*
X155070Y105677D01*
X155055Y105776D01*
X155043Y105875D01*
X155035Y105974D01*
X155031Y106073D01*
X155031Y106173D01*
X155035Y106272D01*
X155043Y106371D01*
X155055Y106470D01*
X155070Y106569D01*
X155089Y106666D01*
X155112Y106763D01*
X155139Y106859D01*
X155169Y106954D01*
X155203Y107047D01*
X155241Y107139D01*
X155282Y107230D01*
X155327Y107319D01*
X155375Y107406D01*
X155426Y107491D01*
X155481Y107574D01*
X155539Y107655D01*
X155600Y107734D01*
X155664Y107810D01*
X155731Y107884D01*
X155800Y107955D01*
X155873Y108023D01*
X155948Y108089D01*
X156025Y108151D01*
X156105Y108211D01*
X156187Y108267D01*
X156271Y108320D01*
X156357Y108370D01*
X156445Y108416D01*
X156535Y108459D01*
X156627Y108498D01*
X156719Y108534D01*
X156814Y108566D01*
X156909Y108595D01*
X157005Y108620D01*
X157103Y108641D01*
X157201Y108658D01*
X157299Y108672D01*
X157398Y108681D01*
X157498Y108687D01*
X157597Y108689D01*
X160163Y108689D01*
X160289Y108687D01*
X160416Y108681D01*
X160542Y108671D01*
X160668Y108658D01*
X160793Y108640D01*
X160917Y108619D01*
X161041Y108594D01*
X161165Y108565D01*
X161287Y108532D01*
X161408Y108496D01*
X161528Y108456D01*
X161646Y108412D01*
X161763Y108364D01*
X161879Y108313D01*
X161993Y108259D01*
X162106Y108200D01*
X162216Y108139D01*
X162325Y108074D01*
X162431Y108006D01*
X162535Y107934D01*
X162637Y107860D01*
X162737Y107782D01*
X162834Y107701D01*
X162929Y107617D01*
X163021Y107531D01*
X163111Y107441D01*
X163197Y107349D01*
X163281Y107254D01*
X163362Y107157D01*
X163440Y107057D01*
X163514Y106955D01*
X163586Y106851D01*
X163654Y106745D01*
X163719Y106636D01*
X163780Y106526D01*
X163839Y106413D01*
X163893Y106299D01*
X163944Y106183D01*
X163992Y106066D01*
X164036Y105948D01*
X164076Y105828D01*
X164112Y105707D01*
X164145Y105585D01*
X164174Y105461D01*
X164199Y105337D01*
X164220Y105213D01*
X164238Y105088D01*
X164251Y104962D01*
X164261Y104836D01*
X164267Y104709D01*
X164269Y104583D01*
X152069Y160084D02*
X152069Y162137D01*
X152069Y160084D02*
X152067Y159994D01*
X152061Y159905D01*
X152051Y159816D01*
X152038Y159728D01*
X152020Y159640D01*
X151999Y159553D01*
X151974Y159467D01*
X151945Y159382D01*
X151913Y159298D01*
X151877Y159216D01*
X151837Y159136D01*
X151794Y159058D01*
X151747Y158981D01*
X151698Y158906D01*
X151645Y158834D01*
X151589Y158764D01*
X151530Y158697D01*
X151468Y158632D01*
X151403Y158570D01*
X151336Y158511D01*
X151266Y158455D01*
X151194Y158402D01*
X151119Y158353D01*
X151043Y158306D01*
X150964Y158263D01*
X150884Y158223D01*
X150802Y158187D01*
X150718Y158155D01*
X150633Y158126D01*
X150547Y158101D01*
X150460Y158080D01*
X150372Y158062D01*
X150284Y158049D01*
X150195Y158039D01*
X150106Y158033D01*
X150016Y158031D01*
X144884Y158031D01*
X144794Y158033D01*
X144705Y158039D01*
X144616Y158049D01*
X144528Y158062D01*
X144440Y158080D01*
X144353Y158101D01*
X144267Y158126D01*
X144182Y158155D01*
X144098Y158187D01*
X144016Y158223D01*
X143936Y158263D01*
X143858Y158306D01*
X143781Y158353D01*
X143706Y158402D01*
X143634Y158455D01*
X143564Y158511D01*
X143497Y158570D01*
X143432Y158632D01*
X143370Y158697D01*
X143311Y158764D01*
X143255Y158834D01*
X143202Y158906D01*
X143153Y158981D01*
X143106Y159057D01*
X143063Y159136D01*
X143023Y159216D01*
X142987Y159298D01*
X142955Y159382D01*
X142926Y159467D01*
X142901Y159553D01*
X142880Y159640D01*
X142862Y159727D01*
X142849Y159816D01*
X142839Y159905D01*
X142833Y159994D01*
X142831Y160084D01*
X142831Y162137D01*
X142831Y168379D02*
X142833Y168475D01*
X142839Y168570D01*
X142849Y168665D01*
X142863Y168759D01*
X142880Y168853D01*
X142902Y168946D01*
X142927Y169038D01*
X142956Y169129D01*
X142989Y169219D01*
X143026Y169307D01*
X143066Y169394D01*
X143109Y169478D01*
X143157Y169561D01*
X143207Y169642D01*
X143261Y169721D01*
X143318Y169798D01*
X143378Y169872D01*
X143442Y169944D01*
X143508Y170012D01*
X143577Y170079D01*
X143648Y170142D01*
X143722Y170202D01*
X143799Y170259D01*
X143878Y170313D01*
X143959Y170363D01*
X144042Y170411D01*
X144126Y170454D01*
X144213Y170494D01*
X144301Y170531D01*
X144391Y170564D01*
X144482Y170593D01*
X144574Y170618D01*
X144667Y170640D01*
X144761Y170657D01*
X144855Y170671D01*
X144950Y170681D01*
X145046Y170687D01*
X145141Y170689D01*
X142831Y168379D02*
X142833Y168273D01*
X142839Y168166D01*
X142848Y168060D01*
X142862Y167954D01*
X142879Y167849D01*
X142900Y167744D01*
X142924Y167641D01*
X142953Y167538D01*
X142985Y167436D01*
X143020Y167336D01*
X143060Y167237D01*
X143103Y167139D01*
X143149Y167043D01*
X143199Y166949D01*
X143252Y166856D01*
X143308Y166766D01*
X143368Y166677D01*
X143430Y166591D01*
X143496Y166507D01*
X143565Y166426D01*
X143636Y166347D01*
X143711Y166270D01*
X143788Y166197D01*
X143868Y166126D01*
X143950Y166058D01*
X144034Y165993D01*
X144121Y165931D01*
X144210Y165873D01*
X144301Y165817D01*
X144394Y165765D01*
X144489Y165716D01*
X144586Y165671D01*
X144684Y165629D01*
X144783Y165591D01*
X144884Y165556D01*
X146938Y169919D02*
X146870Y169987D01*
X146800Y170052D01*
X146728Y170115D01*
X146653Y170175D01*
X146576Y170232D01*
X146497Y170285D01*
X146416Y170336D01*
X146333Y170384D01*
X146249Y170428D01*
X146162Y170469D01*
X146074Y170507D01*
X145985Y170541D01*
X145894Y170572D01*
X145803Y170599D01*
X145710Y170623D01*
X145616Y170643D01*
X145522Y170660D01*
X145427Y170672D01*
X145332Y170682D01*
X145237Y170687D01*
X145141Y170689D01*
X146937Y169919D02*
X152069Y165556D01*
X152069Y170689D01*
X147450Y174556D02*
X147268Y174558D01*
X147087Y174565D01*
X146905Y174576D01*
X146724Y174591D01*
X146543Y174610D01*
X146363Y174634D01*
X146184Y174662D01*
X146005Y174694D01*
X145827Y174731D01*
X145650Y174772D01*
X145474Y174817D01*
X145299Y174866D01*
X145125Y174920D01*
X144953Y174977D01*
X144782Y175039D01*
X144612Y175105D01*
X144444Y175174D01*
X144278Y175248D01*
X144114Y175326D01*
X144114Y175327D02*
X144035Y175356D01*
X143958Y175388D01*
X143881Y175424D01*
X143807Y175463D01*
X143734Y175506D01*
X143664Y175552D01*
X143595Y175600D01*
X143529Y175652D01*
X143465Y175707D01*
X143403Y175764D01*
X143345Y175824D01*
X143288Y175887D01*
X143235Y175952D01*
X143185Y176019D01*
X143137Y176089D01*
X143093Y176160D01*
X143052Y176234D01*
X143014Y176309D01*
X142980Y176386D01*
X142949Y176464D01*
X142922Y176543D01*
X142898Y176624D01*
X142877Y176706D01*
X142861Y176788D01*
X142848Y176871D01*
X142838Y176955D01*
X142833Y177039D01*
X142831Y177123D01*
X142833Y177207D01*
X142838Y177291D01*
X142848Y177375D01*
X142861Y177458D01*
X142877Y177540D01*
X142898Y177622D01*
X142922Y177703D01*
X142949Y177782D01*
X142980Y177860D01*
X143014Y177937D01*
X143052Y178012D01*
X143093Y178086D01*
X143137Y178157D01*
X143185Y178227D01*
X143235Y178294D01*
X143288Y178359D01*
X143345Y178422D01*
X143404Y178482D01*
X143465Y178539D01*
X143529Y178594D01*
X143595Y178646D01*
X143664Y178694D01*
X143734Y178740D01*
X143807Y178783D01*
X143882Y178822D01*
X143958Y178858D01*
X144035Y178890D01*
X144114Y178919D01*
X144278Y178997D01*
X144444Y179071D01*
X144612Y179140D01*
X144782Y179206D01*
X144953Y179268D01*
X145125Y179325D01*
X145299Y179379D01*
X145474Y179428D01*
X145650Y179473D01*
X145827Y179514D01*
X146005Y179551D01*
X146184Y179583D01*
X146363Y179611D01*
X146543Y179635D01*
X146724Y179654D01*
X146905Y179669D01*
X147087Y179680D01*
X147268Y179687D01*
X147450Y179689D01*
X147450Y174556D02*
X147632Y174558D01*
X147813Y174565D01*
X147995Y174576D01*
X148176Y174591D01*
X148357Y174610D01*
X148537Y174634D01*
X148716Y174662D01*
X148895Y174694D01*
X149073Y174731D01*
X149250Y174772D01*
X149426Y174817D01*
X149601Y174866D01*
X149775Y174920D01*
X149947Y174977D01*
X150118Y175039D01*
X150288Y175105D01*
X150456Y175174D01*
X150622Y175248D01*
X150786Y175326D01*
X150786Y175327D02*
X150865Y175356D01*
X150942Y175388D01*
X151019Y175424D01*
X151093Y175463D01*
X151166Y175506D01*
X151236Y175552D01*
X151305Y175600D01*
X151371Y175652D01*
X151435Y175707D01*
X151497Y175764D01*
X151555Y175824D01*
X151612Y175887D01*
X151665Y175952D01*
X151715Y176019D01*
X151763Y176089D01*
X151807Y176160D01*
X151848Y176234D01*
X151886Y176309D01*
X151920Y176386D01*
X151951Y176464D01*
X151978Y176543D01*
X152002Y176624D01*
X152023Y176706D01*
X152039Y176788D01*
X152052Y176871D01*
X152062Y176955D01*
X152067Y177039D01*
X152069Y177123D01*
X150786Y178919D02*
X150622Y178997D01*
X150456Y179071D01*
X150288Y179140D01*
X150118Y179206D01*
X149947Y179268D01*
X149775Y179325D01*
X149601Y179379D01*
X149426Y179428D01*
X149250Y179473D01*
X149073Y179514D01*
X148895Y179551D01*
X148716Y179583D01*
X148537Y179611D01*
X148357Y179635D01*
X148176Y179654D01*
X147995Y179669D01*
X147813Y179680D01*
X147632Y179687D01*
X147450Y179689D01*
X150786Y178919D02*
X150865Y178890D01*
X150942Y178858D01*
X151019Y178822D01*
X151093Y178783D01*
X151166Y178740D01*
X151236Y178694D01*
X151305Y178646D01*
X151371Y178594D01*
X151435Y178539D01*
X151497Y178482D01*
X151555Y178422D01*
X151612Y178359D01*
X151665Y178294D01*
X151715Y178227D01*
X151763Y178157D01*
X151807Y178086D01*
X151848Y178012D01*
X151886Y177937D01*
X151920Y177860D01*
X151951Y177782D01*
X151978Y177703D01*
X152002Y177622D01*
X152023Y177540D01*
X152039Y177458D01*
X152052Y177375D01*
X152062Y177291D01*
X152067Y177207D01*
X152069Y177123D01*
X150016Y175070D02*
X144884Y179175D01*
D14*
X183100Y65600D02*
X208200Y65600D01*
X170400Y75600D02*
X170400Y106400D01*
X183400Y116400D02*
X208200Y116400D01*
X221200Y106400D02*
X221200Y75600D01*
X183100Y91000D02*
X183104Y91312D01*
X183115Y91623D01*
X183134Y91934D01*
X183161Y92245D01*
X183196Y92555D01*
X183237Y92863D01*
X183287Y93171D01*
X183344Y93478D01*
X183409Y93783D01*
X183481Y94086D01*
X183560Y94387D01*
X183647Y94687D01*
X183741Y94984D01*
X183842Y95279D01*
X183951Y95571D01*
X184067Y95860D01*
X184190Y96147D01*
X184319Y96430D01*
X184456Y96710D01*
X184600Y96987D01*
X184750Y97260D01*
X184907Y97529D01*
X185070Y97794D01*
X185240Y98056D01*
X185417Y98313D01*
X185599Y98565D01*
X185788Y98813D01*
X185983Y99057D01*
X186183Y99295D01*
X186390Y99529D01*
X186602Y99757D01*
X186820Y99980D01*
X187043Y100198D01*
X187271Y100410D01*
X187505Y100617D01*
X187743Y100817D01*
X187987Y101012D01*
X188235Y101201D01*
X188487Y101383D01*
X188744Y101560D01*
X189006Y101730D01*
X189271Y101893D01*
X189540Y102050D01*
X189813Y102200D01*
X190090Y102344D01*
X190370Y102481D01*
X190653Y102610D01*
X190940Y102733D01*
X191229Y102849D01*
X191521Y102958D01*
X191816Y103059D01*
X192113Y103153D01*
X192413Y103240D01*
X192714Y103319D01*
X193017Y103391D01*
X193322Y103456D01*
X193629Y103513D01*
X193937Y103563D01*
X194245Y103604D01*
X194555Y103639D01*
X194866Y103666D01*
X195177Y103685D01*
X195488Y103696D01*
X195800Y103700D01*
X196112Y103696D01*
X196423Y103685D01*
X196734Y103666D01*
X197045Y103639D01*
X197355Y103604D01*
X197663Y103563D01*
X197971Y103513D01*
X198278Y103456D01*
X198583Y103391D01*
X198886Y103319D01*
X199187Y103240D01*
X199487Y103153D01*
X199784Y103059D01*
X200079Y102958D01*
X200371Y102849D01*
X200660Y102733D01*
X200947Y102610D01*
X201230Y102481D01*
X201510Y102344D01*
X201787Y102200D01*
X202060Y102050D01*
X202329Y101893D01*
X202594Y101730D01*
X202856Y101560D01*
X203113Y101383D01*
X203365Y101201D01*
X203613Y101012D01*
X203857Y100817D01*
X204095Y100617D01*
X204329Y100410D01*
X204557Y100198D01*
X204780Y99980D01*
X204998Y99757D01*
X205210Y99529D01*
X205417Y99295D01*
X205617Y99057D01*
X205812Y98813D01*
X206001Y98565D01*
X206183Y98313D01*
X206360Y98056D01*
X206530Y97794D01*
X206693Y97529D01*
X206850Y97260D01*
X207000Y96987D01*
X207144Y96710D01*
X207281Y96430D01*
X207410Y96147D01*
X207533Y95860D01*
X207649Y95571D01*
X207758Y95279D01*
X207859Y94984D01*
X207953Y94687D01*
X208040Y94387D01*
X208119Y94086D01*
X208191Y93783D01*
X208256Y93478D01*
X208313Y93171D01*
X208363Y92863D01*
X208404Y92555D01*
X208439Y92245D01*
X208466Y91934D01*
X208485Y91623D01*
X208496Y91312D01*
X208500Y91000D01*
X208496Y90688D01*
X208485Y90377D01*
X208466Y90066D01*
X208439Y89755D01*
X208404Y89445D01*
X208363Y89137D01*
X208313Y88829D01*
X208256Y88522D01*
X208191Y88217D01*
X208119Y87914D01*
X208040Y87613D01*
X207953Y87313D01*
X207859Y87016D01*
X207758Y86721D01*
X207649Y86429D01*
X207533Y86140D01*
X207410Y85853D01*
X207281Y85570D01*
X207144Y85290D01*
X207000Y85013D01*
X206850Y84740D01*
X206693Y84471D01*
X206530Y84206D01*
X206360Y83944D01*
X206183Y83687D01*
X206001Y83435D01*
X205812Y83187D01*
X205617Y82943D01*
X205417Y82705D01*
X205210Y82471D01*
X204998Y82243D01*
X204780Y82020D01*
X204557Y81802D01*
X204329Y81590D01*
X204095Y81383D01*
X203857Y81183D01*
X203613Y80988D01*
X203365Y80799D01*
X203113Y80617D01*
X202856Y80440D01*
X202594Y80270D01*
X202329Y80107D01*
X202060Y79950D01*
X201787Y79800D01*
X201510Y79656D01*
X201230Y79519D01*
X200947Y79390D01*
X200660Y79267D01*
X200371Y79151D01*
X200079Y79042D01*
X199784Y78941D01*
X199487Y78847D01*
X199187Y78760D01*
X198886Y78681D01*
X198583Y78609D01*
X198278Y78544D01*
X197971Y78487D01*
X197663Y78437D01*
X197355Y78396D01*
X197045Y78361D01*
X196734Y78334D01*
X196423Y78315D01*
X196112Y78304D01*
X195800Y78300D01*
X195488Y78304D01*
X195177Y78315D01*
X194866Y78334D01*
X194555Y78361D01*
X194245Y78396D01*
X193937Y78437D01*
X193629Y78487D01*
X193322Y78544D01*
X193017Y78609D01*
X192714Y78681D01*
X192413Y78760D01*
X192113Y78847D01*
X191816Y78941D01*
X191521Y79042D01*
X191229Y79151D01*
X190940Y79267D01*
X190653Y79390D01*
X190370Y79519D01*
X190090Y79656D01*
X189813Y79800D01*
X189540Y79950D01*
X189271Y80107D01*
X189006Y80270D01*
X188744Y80440D01*
X188487Y80617D01*
X188235Y80799D01*
X187987Y80988D01*
X187743Y81183D01*
X187505Y81383D01*
X187271Y81590D01*
X187043Y81802D01*
X186820Y82020D01*
X186602Y82243D01*
X186390Y82471D01*
X186183Y82705D01*
X185983Y82943D01*
X185788Y83187D01*
X185599Y83435D01*
X185417Y83687D01*
X185240Y83944D01*
X185070Y84206D01*
X184907Y84471D01*
X184750Y84740D01*
X184600Y85013D01*
X184456Y85290D01*
X184319Y85570D01*
X184190Y85853D01*
X184067Y86140D01*
X183951Y86429D01*
X183842Y86721D01*
X183741Y87016D01*
X183647Y87313D01*
X183560Y87613D01*
X183481Y87914D01*
X183409Y88217D01*
X183344Y88522D01*
X183287Y88829D01*
X183237Y89137D01*
X183196Y89445D01*
X183161Y89755D01*
X183134Y90066D01*
X183115Y90377D01*
X183104Y90688D01*
X183100Y91000D01*
D12*
X163000Y130000D03*
D11*
X173031Y128031D02*
X182269Y128031D01*
X173031Y128031D02*
X173031Y130597D01*
X173033Y130696D01*
X173039Y130796D01*
X173048Y130895D01*
X173062Y130993D01*
X173079Y131091D01*
X173100Y131189D01*
X173125Y131285D01*
X173154Y131380D01*
X173186Y131475D01*
X173222Y131567D01*
X173261Y131659D01*
X173304Y131749D01*
X173350Y131837D01*
X173400Y131923D01*
X173453Y132007D01*
X173509Y132089D01*
X173569Y132169D01*
X173631Y132246D01*
X173697Y132321D01*
X173765Y132394D01*
X173836Y132463D01*
X173910Y132530D01*
X173986Y132594D01*
X174065Y132655D01*
X174146Y132713D01*
X174229Y132768D01*
X174314Y132819D01*
X174401Y132867D01*
X174490Y132912D01*
X174581Y132953D01*
X174673Y132991D01*
X174766Y133025D01*
X174861Y133055D01*
X174957Y133082D01*
X175054Y133105D01*
X175151Y133124D01*
X175250Y133139D01*
X175349Y133151D01*
X175448Y133159D01*
X175547Y133163D01*
X175647Y133163D01*
X175746Y133159D01*
X175845Y133151D01*
X175944Y133139D01*
X176043Y133124D01*
X176140Y133105D01*
X176237Y133082D01*
X176333Y133055D01*
X176428Y133025D01*
X176521Y132991D01*
X176613Y132953D01*
X176704Y132912D01*
X176793Y132867D01*
X176880Y132819D01*
X176965Y132768D01*
X177048Y132713D01*
X177129Y132655D01*
X177208Y132594D01*
X177284Y132530D01*
X177358Y132463D01*
X177429Y132394D01*
X177497Y132321D01*
X177563Y132246D01*
X177625Y132169D01*
X177685Y132089D01*
X177741Y132007D01*
X177794Y131923D01*
X177844Y131837D01*
X177890Y131749D01*
X177933Y131659D01*
X177972Y131567D01*
X178008Y131475D01*
X178040Y131380D01*
X178069Y131285D01*
X178094Y131189D01*
X178115Y131091D01*
X178132Y130993D01*
X178146Y130895D01*
X178155Y130796D01*
X178161Y130696D01*
X178163Y130597D01*
X178163Y128031D01*
X178163Y131110D02*
X182269Y133163D01*
X175084Y136974D02*
X173031Y139540D01*
X182269Y139540D01*
X182269Y136974D02*
X182269Y142107D01*
X175084Y145974D02*
X173031Y148540D01*
X182269Y148540D01*
X182269Y145974D02*
X182269Y151107D01*
D12*
X173000Y44000D03*
D11*
X155031Y46731D02*
X155031Y55969D01*
X157597Y55969D01*
X157696Y55967D01*
X157796Y55961D01*
X157895Y55952D01*
X157993Y55938D01*
X158091Y55921D01*
X158189Y55900D01*
X158285Y55875D01*
X158380Y55846D01*
X158475Y55814D01*
X158567Y55778D01*
X158659Y55739D01*
X158749Y55696D01*
X158837Y55650D01*
X158923Y55600D01*
X159007Y55547D01*
X159089Y55491D01*
X159169Y55431D01*
X159246Y55369D01*
X159321Y55303D01*
X159394Y55235D01*
X159463Y55164D01*
X159530Y55090D01*
X159594Y55014D01*
X159655Y54935D01*
X159713Y54854D01*
X159768Y54771D01*
X159819Y54686D01*
X159867Y54599D01*
X159912Y54510D01*
X159953Y54419D01*
X159991Y54327D01*
X160025Y54234D01*
X160055Y54139D01*
X160082Y54043D01*
X160105Y53946D01*
X160124Y53849D01*
X160139Y53750D01*
X160151Y53651D01*
X160159Y53552D01*
X160163Y53453D01*
X160163Y53353D01*
X160159Y53254D01*
X160151Y53155D01*
X160139Y53056D01*
X160124Y52957D01*
X160105Y52860D01*
X160082Y52763D01*
X160055Y52667D01*
X160025Y52572D01*
X159991Y52479D01*
X159953Y52387D01*
X159912Y52296D01*
X159867Y52207D01*
X159819Y52120D01*
X159768Y52035D01*
X159713Y51952D01*
X159655Y51871D01*
X159594Y51792D01*
X159530Y51716D01*
X159463Y51642D01*
X159394Y51571D01*
X159321Y51503D01*
X159246Y51437D01*
X159169Y51375D01*
X159089Y51315D01*
X159007Y51259D01*
X158923Y51206D01*
X158837Y51156D01*
X158749Y51110D01*
X158659Y51067D01*
X158567Y51028D01*
X158475Y50992D01*
X158380Y50960D01*
X158285Y50931D01*
X158189Y50906D01*
X158091Y50885D01*
X157993Y50868D01*
X157895Y50854D01*
X157796Y50845D01*
X157696Y50839D01*
X157597Y50837D01*
X155031Y50837D01*
X158110Y50837D02*
X160163Y46731D01*
X163974Y54943D02*
X163974Y55969D01*
X169107Y55969D01*
X166540Y46731D01*
D15*
X184250Y19500D03*
X191750Y19500D03*
D12*
X188000Y19500D03*
D16*
X182158Y32858D02*
X182158Y44542D01*
X182158Y32858D02*
X187351Y32858D01*
X191660Y41946D02*
X194906Y44542D01*
X194906Y32858D01*
X191660Y32858D02*
X198152Y32858D01*
M02*
