%TF.GenerationSoftware,KiCad,Pcbnew,9.0.6-9.0.6~ubuntu24.04.1*%
%TF.CreationDate,2026-01-03T14:35:56+00:00*%
%TF.ProjectId,DRY_ELEC_6CH_THIN,4452595f-454c-4454-935f-3643485f5448,1.0*%
%TF.SameCoordinates,Original*%
%TF.FileFunction,Copper,L4,Bot*%
%TF.FilePolarity,Positive*%
%FSLAX46Y46*%
G04 Gerber Fmt 4.6, Leading zero omitted, Abs format (unit mm)*
G04 Created by KiCad (PCBNEW 9.0.6-9.0.6~ubuntu24.04.1) date 2026-01-03 14:35:56*
%MOMM*%
%LPD*%
G01*
G04 APERTURE LIST*
%TA.AperFunction,ComponentPad*%
%ADD10C,1.800000*%
%TD*%
%TA.AperFunction,ViaPad*%
%ADD11C,0.400000*%
%TD*%
G04 APERTURE END LIST*
D10*
%TO.P,J17,1,Pin_1*%
%TO.N,/filtering_1/ELECTRODE*%
X32539999Y-32000000D03*
%TD*%
%TO.P,J21,1,Pin_1*%
%TO.N,/filtering_5/ELECTRODE*%
X22379999Y-32000000D03*
%TD*%
%TO.P,J20,1,Pin_1*%
%TO.N,/filtering_4/ELECTRODE*%
X17299999Y-32000000D03*
%TD*%
%TO.P,J18,1,Pin_1*%
%TO.N,/filtering_2/ELECTRODE*%
X37619999Y-32000000D03*
%TD*%
%TO.P,J22,1,Pin_1*%
%TO.N,/filtering_6/ELECTRODE*%
X27459999Y-32000000D03*
%TD*%
%TO.P,J19,1,Pin_1*%
%TO.N,/filtering_3/ELECTRODE*%
X42699999Y-32000000D03*
%TD*%
D11*
%TO.N,GND*%
X19839999Y-25860000D03*
X29989999Y-34100000D03*
X40149999Y-25820000D03*
X35079999Y-25870000D03*
X29999999Y-25910000D03*
X24909999Y-25930000D03*
%TD*%
%TA.AperFunction,Conductor*%
%TO.N,/filtering_5/ELECTRODE*%
G36*
X24601878Y-25530185D02*
G01*
X24647633Y-25582989D01*
X24657577Y-25652147D01*
X24633213Y-25709988D01*
X24629528Y-25714788D01*
X24583387Y-25794706D01*
X24583386Y-25794709D01*
X24583385Y-25794711D01*
X24583385Y-25794712D01*
X24578255Y-25813858D01*
X24559499Y-25883856D01*
X24559499Y-25976143D01*
X24583386Y-26065290D01*
X24583387Y-26065293D01*
X24629525Y-26145205D01*
X24629532Y-26145214D01*
X24643680Y-26159362D01*
X24677165Y-26220685D01*
X24679999Y-26247043D01*
X24679999Y-34365500D01*
X24660314Y-34432539D01*
X24607510Y-34478294D01*
X24555999Y-34489500D01*
X20203999Y-34489500D01*
X20136960Y-34469815D01*
X20091205Y-34417011D01*
X20079999Y-34365500D01*
X20079999Y-26167043D01*
X20099684Y-26100004D01*
X20116318Y-26079362D01*
X20120468Y-26075212D01*
X20166613Y-25995288D01*
X20190499Y-25906144D01*
X20190499Y-25813856D01*
X20166613Y-25724712D01*
X20150324Y-25696500D01*
X20133852Y-25628601D01*
X20156704Y-25562574D01*
X20211625Y-25519383D01*
X20257712Y-25510500D01*
X24534839Y-25510500D01*
X24601878Y-25530185D01*
G37*
%TD.AperFunction*%
%TD*%
%TA.AperFunction,Conductor*%
%TO.N,/filtering_3/ELECTRODE*%
G36*
X44005393Y-25510971D02*
G01*
X44161018Y-25524587D01*
X44182296Y-25528338D01*
X44327950Y-25567366D01*
X44348259Y-25574759D01*
X44429157Y-25612482D01*
X44484919Y-25638484D01*
X44503630Y-25649286D01*
X44627148Y-25735774D01*
X44643706Y-25749667D01*
X44750331Y-25856291D01*
X44764225Y-25872850D01*
X44821948Y-25955288D01*
X44850709Y-25996362D01*
X44861516Y-26015081D01*
X44925240Y-26151739D01*
X44932633Y-26172049D01*
X44971659Y-26317696D01*
X44975412Y-26338982D01*
X44989027Y-26494593D01*
X44989499Y-26505401D01*
X44989499Y-33494587D01*
X44989027Y-33505395D01*
X44975411Y-33661017D01*
X44971658Y-33682303D01*
X44932632Y-33827950D01*
X44925239Y-33848261D01*
X44861516Y-33984915D01*
X44850709Y-34003633D01*
X44764219Y-34127154D01*
X44750325Y-34143712D01*
X44643711Y-34250326D01*
X44627153Y-34264220D01*
X44503631Y-34350711D01*
X44484913Y-34361518D01*
X44348263Y-34425239D01*
X44327951Y-34432632D01*
X44182301Y-34471658D01*
X44161016Y-34475411D01*
X44047747Y-34485321D01*
X44005379Y-34489028D01*
X43994577Y-34489500D01*
X40523999Y-34489500D01*
X40456960Y-34469815D01*
X40411205Y-34417011D01*
X40399999Y-34365500D01*
X40399999Y-26117011D01*
X40419684Y-26049972D01*
X40425627Y-26041520D01*
X40430463Y-26035216D01*
X40430468Y-26035212D01*
X40476613Y-25955288D01*
X40500499Y-25866144D01*
X40500499Y-25773856D01*
X40476613Y-25684712D01*
X40476609Y-25684705D01*
X40475469Y-25681951D01*
X40475198Y-25679433D01*
X40474509Y-25676861D01*
X40474910Y-25676753D01*
X40468001Y-25612482D01*
X40499277Y-25550003D01*
X40559366Y-25514351D01*
X40590031Y-25510500D01*
X43994587Y-25510500D01*
X44005393Y-25510971D01*
G37*
%TD.AperFunction*%
%TD*%
%TA.AperFunction,Conductor*%
%TO.N,/filtering_1/ELECTRODE*%
G36*
X34735099Y-25530185D02*
G01*
X34780854Y-25582989D01*
X34790798Y-25652147D01*
X34775446Y-25696502D01*
X34753385Y-25734709D01*
X34742667Y-25774711D01*
X34729499Y-25823856D01*
X34729499Y-25916144D01*
X34740216Y-25956142D01*
X34753386Y-26005290D01*
X34753387Y-26005293D01*
X34799525Y-26085205D01*
X34799532Y-26085214D01*
X34803680Y-26089362D01*
X34837165Y-26150685D01*
X34839999Y-26177043D01*
X34839999Y-34365500D01*
X34820314Y-34432539D01*
X34767510Y-34478294D01*
X34715999Y-34489500D01*
X30384617Y-34489500D01*
X30317578Y-34469815D01*
X30271823Y-34417011D01*
X30261879Y-34347853D01*
X30277231Y-34303499D01*
X30316610Y-34235293D01*
X30316609Y-34235293D01*
X30316613Y-34235288D01*
X30340499Y-34146144D01*
X30340499Y-34053856D01*
X30316613Y-33964712D01*
X30270468Y-33884788D01*
X30265624Y-33878475D01*
X30240429Y-33813306D01*
X30239999Y-33802988D01*
X30239999Y-26217043D01*
X30259684Y-26150004D01*
X30276318Y-26129362D01*
X30280468Y-26125212D01*
X30326613Y-26045288D01*
X30350499Y-25956144D01*
X30350499Y-25863856D01*
X30326613Y-25774712D01*
X30281456Y-25696500D01*
X30264984Y-25628601D01*
X30287836Y-25562574D01*
X30342757Y-25519383D01*
X30388844Y-25510500D01*
X34668060Y-25510500D01*
X34735099Y-25530185D01*
G37*
%TD.AperFunction*%
%TD*%
%TA.AperFunction,Conductor*%
%TO.N,/filtering_4/ELECTRODE*%
G36*
X19489325Y-25530185D02*
G01*
X19535080Y-25582989D01*
X19545024Y-25652147D01*
X19529673Y-25696501D01*
X19513385Y-25724711D01*
X19489499Y-25813856D01*
X19489499Y-25906143D01*
X19513386Y-25995290D01*
X19513387Y-25995293D01*
X19559525Y-26075205D01*
X19559532Y-26075214D01*
X19563680Y-26079362D01*
X19597165Y-26140685D01*
X19599999Y-26167043D01*
X19599999Y-34365500D01*
X19580314Y-34432539D01*
X19527510Y-34478294D01*
X19475999Y-34489500D01*
X16005411Y-34489500D01*
X15994605Y-34489028D01*
X15969583Y-34486838D01*
X15838981Y-34475412D01*
X15817695Y-34471659D01*
X15672048Y-34432633D01*
X15651737Y-34425240D01*
X15515083Y-34361517D01*
X15496365Y-34350710D01*
X15372848Y-34264223D01*
X15356290Y-34250329D01*
X15249670Y-34143709D01*
X15235776Y-34127151D01*
X15149289Y-34003633D01*
X15138482Y-33984915D01*
X15074759Y-33848261D01*
X15067366Y-33827950D01*
X15028338Y-33682297D01*
X15024587Y-33661016D01*
X15010971Y-33505384D01*
X15010499Y-33494577D01*
X15010499Y-26505412D01*
X15010971Y-26494605D01*
X15024586Y-26338983D01*
X15028337Y-26317704D01*
X15067366Y-26172044D01*
X15074758Y-26151739D01*
X15112261Y-26071313D01*
X15138485Y-26015074D01*
X15149282Y-25996373D01*
X15235778Y-25872843D01*
X15249661Y-25856297D01*
X15356298Y-25749661D01*
X15372837Y-25735783D01*
X15496369Y-25649284D01*
X15515079Y-25638483D01*
X15639044Y-25580677D01*
X15651739Y-25574757D01*
X15672043Y-25567366D01*
X15817703Y-25528337D01*
X15838977Y-25524586D01*
X15994593Y-25510971D01*
X16005400Y-25510500D01*
X19422286Y-25510500D01*
X19489325Y-25530185D01*
G37*
%TD.AperFunction*%
%TD*%
%TA.AperFunction,Conductor*%
%TO.N,/filtering_6/ELECTRODE*%
G36*
X29678193Y-25530185D02*
G01*
X29723948Y-25582989D01*
X29733892Y-25652147D01*
X29718541Y-25696501D01*
X29673385Y-25774711D01*
X29668027Y-25794709D01*
X29649499Y-25863856D01*
X29649499Y-25956144D01*
X29654857Y-25976142D01*
X29673386Y-26045290D01*
X29673387Y-26045293D01*
X29719525Y-26125205D01*
X29719532Y-26125214D01*
X29723680Y-26129362D01*
X29757165Y-26190685D01*
X29759999Y-26217043D01*
X29759999Y-33782957D01*
X29740314Y-33849996D01*
X29723680Y-33870638D01*
X29709532Y-33884785D01*
X29709525Y-33884794D01*
X29663387Y-33964706D01*
X29663386Y-33964709D01*
X29639499Y-34053856D01*
X29639499Y-34146143D01*
X29663386Y-34235290D01*
X29663387Y-34235293D01*
X29702767Y-34303499D01*
X29719241Y-34371398D01*
X29696389Y-34437426D01*
X29641469Y-34480617D01*
X29595381Y-34489500D01*
X25283999Y-34489500D01*
X25216960Y-34469815D01*
X25171205Y-34417011D01*
X25159999Y-34365500D01*
X25159999Y-26227011D01*
X25179684Y-26159972D01*
X25185627Y-26151520D01*
X25190463Y-26145216D01*
X25190468Y-26145212D01*
X25236613Y-26065288D01*
X25260499Y-25976144D01*
X25260499Y-25883856D01*
X25236613Y-25794712D01*
X25225066Y-25774712D01*
X25190469Y-25714788D01*
X25186785Y-25709988D01*
X25161589Y-25644820D01*
X25175626Y-25576374D01*
X25224439Y-25526384D01*
X25285159Y-25510500D01*
X29611154Y-25510500D01*
X29678193Y-25530185D01*
G37*
%TD.AperFunction*%
%TD*%
%TA.AperFunction,Conductor*%
%TO.N,/filtering_2/ELECTRODE*%
G36*
X39777006Y-25530185D02*
G01*
X39822761Y-25582989D01*
X39832705Y-25652147D01*
X39824529Y-25681951D01*
X39823385Y-25684712D01*
X39799499Y-25773856D01*
X39799499Y-25866144D01*
X39812896Y-25916144D01*
X39823386Y-25955290D01*
X39823387Y-25955293D01*
X39869525Y-26035205D01*
X39869532Y-26035214D01*
X39883680Y-26049362D01*
X39917165Y-26110685D01*
X39919999Y-26137043D01*
X39919999Y-34365500D01*
X39900314Y-34432539D01*
X39847510Y-34478294D01*
X39795999Y-34489500D01*
X35443999Y-34489500D01*
X35376960Y-34469815D01*
X35331205Y-34417011D01*
X35319999Y-34365500D01*
X35319999Y-26177043D01*
X35339684Y-26110004D01*
X35356318Y-26089362D01*
X35360468Y-26085212D01*
X35406613Y-26005288D01*
X35430499Y-25916144D01*
X35430499Y-25823856D01*
X35406613Y-25734712D01*
X35406612Y-25734711D01*
X35406612Y-25734709D01*
X35384552Y-25696502D01*
X35368078Y-25628602D01*
X35390930Y-25562574D01*
X35445850Y-25519383D01*
X35491938Y-25510500D01*
X39709967Y-25510500D01*
X39777006Y-25530185D01*
G37*
%TD.AperFunction*%
%TD*%
M02*
