M48
; DRILL file {KiCad 9.0.6-9.0.6~ubuntu24.04.1} date 2026-01-03T16:02:28+0000
; FORMAT={-:-/ absolute / inch / decimal}
; #@! TF.CreationDate,2026-01-03T16:02:28+00:00
; #@! TF.GenerationSoftware,Kicad,Pcbnew,9.0.6-9.0.6~ubuntu24.04.1
; #@! TF.FileFunction,Plated,1,4,PTH
FMAT,2
INCH
; #@! TA.AperFunction,Plated,PTH,ViaDrill
T1C0.0118
; #@! TA.AperFunction,Plated,PTH,ComponentDrill
T2C0.0256
%
G90
G05
T1
X-0.2559Y-0.1772
X-0.226Y-0.1594
X-0.2008Y-0.0906
X-0.187Y-0.2539
X-0.185Y-0.3561
X-0.1732Y-0.2087
X-0.1535Y-0.2992
X-0.1339Y-0.2283
X-0.1102Y-0.1457
X-0.0787Y-0.2087
X-0.0743Y-0.3509
X-0.0236Y-0.3701
X-0.0197Y-0.252
X0.002Y-0.0866
X0.0394Y-0.1654
X0.0945Y-0.122
X0.1402Y-0.0681
X0.1654Y-0.1339
X0.1772Y-0.2913
X0.189Y-0.2126
X0.2043Y-0.2279
X0.2087Y-0.1535
X0.2165Y-0.3622
X0.2173Y-0.2559
X0.248Y0.0157
X0.252Y-0.3661
X0.2717Y-0.1693
T2
X-0.175Y0.0
X-0.175Y-0.3937
X-0.125Y0.0
X-0.075Y0.0
X-0.025Y0.0
X0.025Y0.0
X0.025Y-0.3937
X0.075Y0.0
X0.1181Y-0.2953
X0.125Y0.0
X0.175Y0.0
X0.175Y-0.3937
M30
