%TF.GenerationSoftware,KiCad,Pcbnew,9.0.6-9.0.6~ubuntu24.04.1*%
%TF.CreationDate,2026-01-03T16:02:28+00:00*%
%TF.ProjectId,EMG_INA331,454d475f-494e-4413-9333-312e6b696361,1.0*%
%TF.SameCoordinates,Original*%
%TF.FileFunction,Legend,Top*%
%TF.FilePolarity,Positive*%
%FSLAX46Y46*%
G04 Gerber Fmt 4.6, Leading zero omitted, Abs format (unit mm)*
G04 Created by KiCad (PCBNEW 9.0.6-9.0.6~ubuntu24.04.1) date 2026-01-03 16:02:28*
%MOMM*%
%LPD*%
G01*
G04 APERTURE LIST*
G04 Aperture macros list*
%AMRoundRect*
0 Rectangle with rounded corners*
0 $1 Rounding radius*
0 $2 $3 $4 $5 $6 $7 $8 $9 X,Y pos of 4 corners*
0 Add a 4 corners polygon primitive as box body*
4,1,4,$2,$3,$4,$5,$6,$7,$8,$9,$2,$3,0*
0 Add four circle primitives for the rounded corners*
1,1,$1+$1,$2,$3*
1,1,$1+$1,$4,$5*
1,1,$1+$1,$6,$7*
1,1,$1+$1,$8,$9*
0 Add four rect primitives between the rounded corners*
20,1,$1+$1,$2,$3,$4,$5,0*
20,1,$1+$1,$4,$5,$6,$7,0*
20,1,$1+$1,$6,$7,$8,$9,0*
20,1,$1+$1,$8,$9,$2,$3,0*%
G04 Aperture macros list end*
%ADD10C,0.120000*%
%ADD11C,0.150000*%
%ADD12C,0.250000*%
%ADD13C,0.200000*%
%ADD14C,0.300000*%
%ADD15RoundRect,0.135000X0.135000X0.185000X-0.135000X0.185000X-0.135000X-0.185000X0.135000X-0.185000X0*%
%ADD16R,1.000000X1.000000*%
%ADD17R,0.700000X1.250000*%
%ADD18RoundRect,0.140000X-0.140000X-0.170000X0.140000X-0.170000X0.140000X0.170000X-0.140000X0.170000X0*%
%ADD19RoundRect,0.135000X-0.135000X-0.185000X0.135000X-0.185000X0.135000X0.185000X-0.135000X0.185000X0*%
%ADD20RoundRect,0.140000X0.140000X0.170000X-0.140000X0.170000X-0.140000X-0.170000X0.140000X-0.170000X0*%
%ADD21R,1.000000X0.600000*%
%ADD22RoundRect,0.135000X-0.185000X0.135000X-0.185000X-0.135000X0.185000X-0.135000X0.185000X0.135000X0*%
%ADD23O,0.800000X0.280000*%
%ADD24O,0.280000X0.800000*%
%ADD25O,1.660000X0.360000*%
%ADD26R,1.100000X0.620000*%
%ADD27RoundRect,0.140000X-0.170000X0.140000X-0.170000X-0.140000X0.170000X-0.140000X0.170000X0.140000X0*%
G04 APERTURE END LIST*
D10*
%TO.C,R12*%
X6453641Y-5320000D02*
X6146359Y-5320000D01*
X6453641Y-6080000D02*
X6146359Y-6080000D01*
%TO.C,R4*%
X-5846359Y-8620000D02*
X-6153641Y-8620000D01*
X-5846359Y-9380000D02*
X-6153641Y-9380000D01*
D11*
%TO.C,U5*%
X-530000Y-2470000D02*
X-530000Y-3930000D01*
X-530000Y-3930000D02*
X510000Y-3930000D01*
X540000Y-2470000D02*
X1460000Y-2470000D01*
X2530000Y-2470000D02*
X2530000Y-3930000D01*
X2530000Y-3930000D02*
X1490000Y-3930000D01*
D10*
%TO.C,C10*%
X-6207836Y-4540000D02*
X-5992164Y-4540000D01*
X-6207836Y-5260000D02*
X-5992164Y-5260000D01*
%TO.C,R10*%
X1846359Y-5520000D02*
X2153641Y-5520000D01*
X1846359Y-6280000D02*
X2153641Y-6280000D01*
%TO.C,C1*%
X-1592164Y-3840000D02*
X-1807836Y-3840000D01*
X-1592164Y-4560000D02*
X-1807836Y-4560000D01*
%TO.C,R14*%
X6046359Y380000D02*
X6353641Y380000D01*
X6046359Y-380000D02*
X6353641Y-380000D01*
D12*
%TO.C,U4*%
X4410000Y-7980000D02*
X4410000Y-7220000D01*
X4600000Y-9130000D02*
X6000000Y-9130000D01*
X4880000Y-6210000D02*
X5720000Y-6210000D01*
D10*
%TO.C,R3*%
X-2780000Y-1846359D02*
X-2780000Y-2153641D01*
X-2020000Y-1846359D02*
X-2020000Y-2153641D01*
%TO.C,R5*%
X1654054Y-8299354D02*
X1346772Y-8299354D01*
X1654054Y-9059354D02*
X1346772Y-9059354D01*
D13*
%TO.C,U6*%
X2997500Y-1575000D02*
X2997500Y-1845000D01*
X2997500Y-5025000D02*
X2997500Y-4745000D01*
X3697500Y-1575000D02*
X2997500Y-1575000D01*
X3697500Y-5025000D02*
X2997500Y-5025000D01*
X6447500Y-1575000D02*
X5747500Y-1575000D01*
X6447500Y-1845000D02*
X6447500Y-1575000D01*
X6447500Y-4745000D02*
X6447500Y-5025000D01*
X6447500Y-5025000D02*
X5747500Y-5025000D01*
D12*
X6777501Y-4875000D02*
X6777501Y-4875000D01*
X6777501Y-4875000D01*
X6777501Y-4875000D01*
X6777501Y-4875000D01*
X6777501Y-4875000D01*
X6777501Y-4875001D01*
X6777501Y-4875001D01*
X6777501Y-4875001D01*
X6777501Y-4875001D01*
X6777501Y-4875001D01*
X6777501Y-4875001D01*
X6777501Y-4875001D01*
X6777500Y-4875001D01*
X6777500Y-4875001D01*
X6777500Y-4875001D01*
X6777500Y-4875001D01*
X6777500Y-4875001D01*
X6777500Y-4875001D01*
X6777500Y-4875001D01*
X6777500Y-4875001D01*
X6777500Y-4875001D01*
X6777500Y-4875001D01*
X6777500Y-4875001D01*
X6777500Y-4875001D01*
X6777499Y-4875001D01*
X6777499Y-4875001D01*
X6777499Y-4875001D01*
X6777499Y-4875001D01*
X6777499Y-4875001D01*
X6777499Y-4875001D01*
X6777499Y-4875000D01*
X6777499Y-4875000D01*
X6777499Y-4875000D01*
X6777499Y-4875000D01*
X6777499Y-4875000D01*
X6777499Y-4875000D01*
X6777499Y-4875000D02*
X6777499Y-4875000D01*
X6777499Y-4875000D01*
X6777499Y-4875000D01*
X6777499Y-4875000D01*
X6777499Y-4875000D01*
X6777499Y-4875000D01*
X6777499Y-4874999D01*
X6777499Y-4874999D01*
X6777499Y-4874999D01*
X6777499Y-4874999D01*
X6777499Y-4874999D01*
X6777500Y-4874999D01*
X6777500Y-4874999D01*
X6777500Y-4874999D01*
X6777500Y-4874999D01*
X6777500Y-4874999D01*
X6777500Y-4874999D01*
X6777500Y-4874999D01*
X6777500Y-4874999D01*
X6777500Y-4874999D01*
X6777500Y-4874999D01*
X6777500Y-4874999D01*
X6777500Y-4874999D01*
X6777501Y-4874999D01*
X6777501Y-4874999D01*
X6777501Y-4874999D01*
X6777501Y-4874999D01*
X6777501Y-4874999D01*
X6777501Y-4874999D01*
X6777501Y-4875000D01*
X6777501Y-4875000D01*
X6777501Y-4875000D01*
X6777501Y-4875000D01*
X6777501Y-4875000D01*
X6777501Y-4875000D01*
X6777501Y-4875000D01*
D11*
%TO.C,U1*%
X-4870000Y-5620000D02*
X-2730000Y-5620000D01*
X-4870000Y-8780000D02*
X-4870000Y-5620000D01*
X-2730000Y-5620000D02*
X-2730000Y-8780000D01*
X-2730000Y-8780000D02*
X-4870000Y-8780000D01*
D14*
X-5780000Y-5590000D02*
G75*
G02*
X-6080000Y-5590000I-150000J0D01*
G01*
X-6080000Y-5590000D02*
G75*
G02*
X-5780000Y-5590000I150000J0D01*
G01*
X-3970000Y-6220000D02*
G75*
G02*
X-4270000Y-6220000I-150000J0D01*
G01*
X-4270000Y-6220000D02*
G75*
G02*
X-3970000Y-6220000I150000J0D01*
G01*
D10*
%TO.C,C3*%
X92164Y-7140000D02*
X307836Y-7140000D01*
X92164Y-7860000D02*
X307836Y-7860000D01*
D12*
%TO.C,U3*%
X-5500000Y-1060200D02*
X-4500000Y-1060200D01*
X-5500000Y-3860200D02*
X-5500000Y-1060200D01*
X-4500000Y-1060200D02*
X-4500000Y-3860200D01*
X-4500000Y-3860200D02*
X-5500000Y-3860200D01*
X-6520416Y-660166D02*
G75*
G02*
X-6520000Y-670200I120416J-33D01*
G01*
D10*
%TO.C,R9*%
X-353641Y-4820000D02*
X-46359Y-4820000D01*
X-353641Y-5580000D02*
X-46359Y-5580000D01*
%TO.C,C2*%
X-1660000Y-2592164D02*
X-1660000Y-2807836D01*
X-940000Y-2592164D02*
X-940000Y-2807836D01*
%TD*%
%LPC*%
D15*
%TO.C,R12*%
X6810000Y-5700000D03*
X5790000Y-5700000D03*
%TD*%
D16*
%TO.C,J4*%
X-635000Y0D03*
%TD*%
D15*
%TO.C,R4*%
X-5490001Y-9000000D03*
X-6509999Y-9000000D03*
%TD*%
D16*
%TO.C,J6*%
X1905000Y0D03*
%TD*%
D17*
%TO.C,U5*%
X1950000Y-2200000D03*
X50000Y-2200000D03*
X1000000Y-4200000D03*
%TD*%
D16*
%TO.C,J1*%
X-4445000Y0D03*
%TD*%
D18*
%TO.C,C10*%
X-6580000Y-4900000D03*
X-5620000Y-4900000D03*
%TD*%
D19*
%TO.C,R10*%
X1490000Y-5900000D03*
X2510000Y-5900000D03*
%TD*%
D16*
%TO.C,J12*%
X3000000Y-7500000D03*
%TD*%
D20*
%TO.C,C1*%
X-1220000Y-4200000D03*
X-2180000Y-4200000D03*
%TD*%
D19*
%TO.C,R14*%
X5690000Y0D03*
X6710000Y0D03*
%TD*%
D21*
%TO.C,U4*%
X6400000Y-8550000D03*
X6400000Y-7600000D03*
X6400000Y-6650000D03*
X4200000Y-6650000D03*
X4200000Y-8550000D03*
%TD*%
D16*
%TO.C,J2*%
X-3175000Y0D03*
%TD*%
%TO.C,J7*%
X3175000Y0D03*
%TD*%
%TO.C,J11*%
X635000Y-10000000D03*
%TD*%
D22*
%TO.C,R3*%
X-2400000Y-1490000D03*
X-2400000Y-2510000D03*
%TD*%
D15*
%TO.C,R5*%
X2010413Y-8679354D03*
X990413Y-8679354D03*
%TD*%
D16*
%TO.C,J3*%
X-1905000Y0D03*
%TD*%
%TO.C,J9*%
X4445000Y-10000000D03*
%TD*%
D23*
%TO.C,U6*%
X6127500Y-4295000D03*
X6127500Y-3795000D03*
X6127500Y-3295000D03*
X6127500Y-2795000D03*
X6127500Y-2295000D03*
D24*
X5227500Y-1895000D03*
X4727500Y-1895000D03*
X4227500Y-1895000D03*
D23*
X3327500Y-2295000D03*
X3327500Y-2795000D03*
X3327500Y-3295000D03*
X3327500Y-3795000D03*
X3327500Y-4295000D03*
D24*
X4227500Y-4695000D03*
X4727500Y-4695000D03*
X5227500Y-4695000D03*
%TD*%
D25*
%TO.C,U1*%
X-5930000Y-6220000D03*
X-5930000Y-6880000D03*
X-5930000Y-7530000D03*
X-5930000Y-8180000D03*
X-1670000Y-8180000D03*
X-1670000Y-7530000D03*
X-1670000Y-6880000D03*
X-1670000Y-6220000D03*
%TD*%
D18*
%TO.C,C3*%
X-280000Y-7500000D03*
X680000Y-7500000D03*
%TD*%
D26*
%TO.C,U3*%
X-6300000Y-1490200D03*
X-6300000Y-2440200D03*
X-6300000Y-3390200D03*
X-3700000Y-3390200D03*
X-3700000Y-1490200D03*
%TD*%
D19*
%TO.C,R9*%
X-710000Y-5200000D03*
X310000Y-5200000D03*
%TD*%
D16*
%TO.C,J10*%
X-4445000Y-10000000D03*
%TD*%
%TO.C,J5*%
X635000Y0D03*
%TD*%
%TO.C,J8*%
X4445000Y0D03*
%TD*%
D27*
%TO.C,C2*%
X-1300000Y-2220000D03*
X-1300000Y-3180000D03*
%TD*%
%LPD*%
M02*
