%TF.GenerationSoftware,KiCad,Pcbnew,9.0.6-9.0.6~ubuntu24.04.1*%
%TF.CreationDate,2026-01-03T16:02:28+00:00*%
%TF.ProjectId,EMG_INA331,454d475f-494e-4413-9333-312e6b696361,1.0*%
%TF.SameCoordinates,Original*%
%TF.FileFunction,Copper,L4,Bot*%
%TF.FilePolarity,Positive*%
%FSLAX46Y46*%
G04 Gerber Fmt 4.6, Leading zero omitted, Abs format (unit mm)*
G04 Created by KiCad (PCBNEW 9.0.6-9.0.6~ubuntu24.04.1) date 2026-01-03 16:02:28*
%MOMM*%
%LPD*%
G01*
G04 APERTURE LIST*
G04 Aperture macros list*
%AMRoundRect*
0 Rectangle with rounded corners*
0 $1 Rounding radius*
0 $2 $3 $4 $5 $6 $7 $8 $9 X,Y pos of 4 corners*
0 Add a 4 corners polygon primitive as box body*
4,1,4,$2,$3,$4,$5,$6,$7,$8,$9,$2,$3,0*
0 Add four circle primitives for the rounded corners*
1,1,$1+$1,$2,$3*
1,1,$1+$1,$4,$5*
1,1,$1+$1,$6,$7*
1,1,$1+$1,$8,$9*
0 Add four rect primitives between the rounded corners*
20,1,$1+$1,$2,$3,$4,$5,0*
20,1,$1+$1,$4,$5,$6,$7,0*
20,1,$1+$1,$6,$7,$8,$9,0*
20,1,$1+$1,$8,$9,$2,$3,0*%
G04 Aperture macros list end*
%TA.AperFunction,ComponentPad*%
%ADD10R,1.000000X1.000000*%
%TD*%
%TA.AperFunction,CastellatedPad*%
%ADD11R,1.000000X1.000000*%
%TD*%
%TA.AperFunction,SMDPad,CuDef*%
%ADD12RoundRect,0.135000X0.135000X0.185000X-0.135000X0.185000X-0.135000X-0.185000X0.135000X-0.185000X0*%
%TD*%
%TA.AperFunction,SMDPad,CuDef*%
%ADD13RoundRect,0.140000X0.170000X-0.140000X0.170000X0.140000X-0.170000X0.140000X-0.170000X-0.140000X0*%
%TD*%
%TA.AperFunction,SMDPad,CuDef*%
%ADD14RoundRect,0.135000X-0.185000X0.135000X-0.185000X-0.135000X0.185000X-0.135000X0.185000X0.135000X0*%
%TD*%
%TA.AperFunction,SMDPad,CuDef*%
%ADD15RoundRect,0.140000X0.140000X0.170000X-0.140000X0.170000X-0.140000X-0.170000X0.140000X-0.170000X0*%
%TD*%
%TA.AperFunction,SMDPad,CuDef*%
%ADD16RoundRect,0.140000X-0.140000X-0.170000X0.140000X-0.170000X0.140000X0.170000X-0.140000X0.170000X0*%
%TD*%
%TA.AperFunction,SMDPad,CuDef*%
%ADD17RoundRect,0.135000X-0.135000X-0.185000X0.135000X-0.185000X0.135000X0.185000X-0.135000X0.185000X0*%
%TD*%
%TA.AperFunction,SMDPad,CuDef*%
%ADD18C,1.000000*%
%TD*%
%TA.AperFunction,SMDPad,CuDef*%
%ADD19R,1.000000X0.600000*%
%TD*%
%TA.AperFunction,SMDPad,CuDef*%
%ADD20RoundRect,0.140000X-0.170000X0.140000X-0.170000X-0.140000X0.170000X-0.140000X0.170000X0.140000X0*%
%TD*%
%TA.AperFunction,SMDPad,CuDef*%
%ADD21RoundRect,0.135000X0.185000X-0.135000X0.185000X0.135000X-0.185000X0.135000X-0.185000X-0.135000X0*%
%TD*%
%TA.AperFunction,ViaPad*%
%ADD22C,0.400000*%
%TD*%
%TA.AperFunction,Conductor*%
%ADD23C,0.127000*%
%TD*%
%TA.AperFunction,Conductor*%
%ADD24C,0.152400*%
%TD*%
G04 APERTURE END LIST*
D10*
%TO.P,J4,1,Pin_1*%
%TO.N,/POCI*%
X-635000Y0D03*
%TD*%
%TO.P,J6,1,Pin_1*%
%TO.N,/SCLK*%
X1905000Y0D03*
%TD*%
%TO.P,J1,1,Pin_1*%
%TO.N,+3.3V*%
X-4445000Y0D03*
%TD*%
%TO.P,J12,1,Pin_1*%
%TO.N,Vref*%
X3000000Y-7500000D03*
%TD*%
%TO.P,J2,1,Pin_1*%
%TO.N,GND*%
X-3175000Y0D03*
%TD*%
%TO.P,J7,1,Pin_1*%
%TO.N,/CSB*%
X3175000Y0D03*
%TD*%
D11*
%TO.P,J11,1,Pin_1*%
%TO.N,Net-(J11-Pin_1)*%
X635000Y-10000000D03*
%TD*%
D10*
%TO.P,J3,1,Pin_1*%
%TO.N,unconnected-(J3-Pin_1-Pad1)*%
X-1905000Y0D03*
%TD*%
D11*
%TO.P,J9,1,Pin_1*%
%TO.N,/PROB-*%
X4445000Y-10000000D03*
%TD*%
%TO.P,J10,1,Pin_1*%
%TO.N,/PROB+*%
X-4445000Y-10000000D03*
%TD*%
D10*
%TO.P,J5,1,Pin_1*%
%TO.N,/PICO*%
X635000Y0D03*
%TD*%
%TO.P,J8,1,Pin_1*%
%TO.N,/extRef*%
X4445000Y0D03*
%TD*%
D12*
%TO.P,R13,1*%
%TO.N,Net-(J11-Pin_1)*%
X810000Y-7600000D03*
%TO.P,R13,2*%
%TO.N,Vref*%
X-210000Y-7600000D03*
%TD*%
D13*
%TO.P,C11,1*%
%TO.N,+3.3VA*%
X-5100000Y-3880000D03*
%TO.P,C11,2*%
%TO.N,GND*%
X-5100000Y-2920000D03*
%TD*%
D14*
%TO.P,R6,1*%
%TO.N,/REF*%
X-5200000Y-5800000D03*
%TO.P,R6,2*%
%TO.N,Net-(U1-RG)*%
X-5200000Y-6820000D03*
%TD*%
D15*
%TO.P,C15,1*%
%TO.N,+3.3V*%
X6480000Y-5500000D03*
%TO.P,C15,2*%
%TO.N,GND*%
X5520000Y-5500000D03*
%TD*%
D16*
%TO.P,C8,1*%
%TO.N,/REF*%
X-4180000Y-8100000D03*
%TO.P,C8,2*%
%TO.N,Net-(U2--IN)*%
X-3220000Y-8100000D03*
%TD*%
D15*
%TO.P,C14,1*%
%TO.N,+3.3V*%
X6480000Y-6500000D03*
%TO.P,C14,2*%
%TO.N,GND*%
X5520000Y-6500000D03*
%TD*%
D12*
%TO.P,R8,1*%
%TO.N,Net-(U2--IN)*%
X-5090000Y-4800000D03*
%TO.P,R8,2*%
%TO.N,/OUT_INA*%
X-6110000Y-4800000D03*
%TD*%
D17*
%TO.P,R1,1*%
%TO.N,Vref*%
X90000Y-5300000D03*
%TO.P,R1,2*%
%TO.N,Net-(U5-R)*%
X1110000Y-5300000D03*
%TD*%
D13*
%TO.P,C6,1*%
%TO.N,+3.3V*%
X-6210000Y-3400000D03*
%TO.P,C6,2*%
%TO.N,GND*%
X-6210000Y-2440000D03*
%TD*%
D18*
%TO.P,TP1,1,1*%
%TO.N,/OUT1*%
X6250000Y-3000000D03*
%TD*%
D16*
%TO.P,C13,1*%
%TO.N,Net-(U4--IN)*%
X5520000Y-7500000D03*
%TO.P,C13,2*%
%TO.N,/OUT1*%
X6480000Y-7500000D03*
%TD*%
%TO.P,C9,1*%
%TO.N,+3.3VA*%
X-6380000Y-8900000D03*
%TO.P,C9,2*%
%TO.N,GND*%
X-5420000Y-8900000D03*
%TD*%
D15*
%TO.P,C7,1*%
%TO.N,GND*%
X-5420000Y-7800000D03*
%TO.P,C7,2*%
%TO.N,+3.3VA*%
X-6380000Y-7800000D03*
%TD*%
D19*
%TO.P,U2,1,OUT*%
%TO.N,/REF*%
X-1300000Y-5050000D03*
%TO.P,U2,2,V-*%
%TO.N,+3.3VA*%
X-1300000Y-6000000D03*
%TO.P,U2,3,+IN*%
%TO.N,Vref*%
X-1300000Y-6950000D03*
%TO.P,U2,4,-IN*%
%TO.N,Net-(U2--IN)*%
X-3500000Y-6950000D03*
%TO.P,U2,5,V+*%
%TO.N,GND*%
X-3500000Y-5050000D03*
%TD*%
D17*
%TO.P,R11,1*%
%TO.N,Net-(U4--IN)*%
X5490000Y-8500000D03*
%TO.P,R11,2*%
%TO.N,/OUT1*%
X6510000Y-8500000D03*
%TD*%
D13*
%TO.P,C4,1*%
%TO.N,/IN+*%
X-2300000Y-9180000D03*
%TO.P,C4,2*%
%TO.N,Vref*%
X-2300000Y-8220000D03*
%TD*%
D20*
%TO.P,C5,1*%
%TO.N,Vref*%
X-1200000Y-8220000D03*
%TO.P,C5,2*%
%TO.N,/IN-*%
X-1200000Y-9180000D03*
%TD*%
D21*
%TO.P,R7,1*%
%TO.N,Net-(U1-RG)*%
X-6200000Y-6800000D03*
%TO.P,R7,2*%
%TO.N,/OUT_INA*%
X-6200000Y-5780000D03*
%TD*%
D17*
%TO.P,R2,1*%
%TO.N,Net-(U5-R)*%
X3090000Y-5400000D03*
%TO.P,R2,2*%
%TO.N,GND*%
X4110000Y-5400000D03*
%TD*%
D18*
%TO.P,TP2,1,1*%
%TO.N,/ADC2*%
X6250000Y-1250000D03*
%TD*%
D16*
%TO.P,C12,1*%
%TO.N,+3.3VA*%
X3120000Y-6400000D03*
%TO.P,C12,2*%
%TO.N,GND*%
X4080000Y-6400000D03*
%TD*%
D22*
%TO.N,GND*%
X-2800000Y-3700000D03*
X5500000Y-9200000D03*
X4200000Y-3400000D03*
X5188910Y-5788910D03*
X-4700000Y-9044117D03*
X5520000Y-6500000D03*
X-3400000Y-5800000D03*
X-5100000Y-2300000D03*
X1000000Y-4200000D03*
%TO.N,+3.3V*%
X6900000Y-4300000D03*
%TO.N,+3.3VA*%
X-500000Y-6400000D03*
X-5741400Y-4050000D03*
%TO.N,/CSB*%
X3560000Y-1730000D03*
%TO.N,Vref*%
X50000Y-2200000D03*
X6300000Y400000D03*
%TO.N,Net-(U4--IN)*%
X4500000Y-7400000D03*
%TO.N,Net-(U5-R)*%
X2400000Y-3100000D03*
%TO.N,/IN+*%
X-1887966Y-8912034D03*
%TO.N,/IN-*%
X-600000Y-9400000D03*
%TO.N,/REF*%
X-3900000Y-7600000D03*
X-4400000Y-5300000D03*
X-2000000Y-5300000D03*
%TO.N,/OUT_INA*%
X-6500000Y-4500000D03*
%TO.N,/OUT1*%
X6400000Y-9300000D03*
X5300000Y-3900000D03*
%TO.N,/ADC2*%
X4800000Y-5400000D03*
%TO.N,Net-(U1-RG)*%
X-4750000Y-6450000D03*
%TD*%
D23*
%TO.N,GND*%
X-5275883Y-9044117D02*
X-5420000Y-8900000D01*
X5231090Y-5788910D02*
X5520000Y-5500000D01*
X5188910Y-5788910D02*
X5231090Y-5788910D01*
X5209999Y-6500000D02*
X5520000Y-6500000D01*
X4109999Y-3490001D02*
X4109999Y-5400000D01*
X-5100000Y-2920000D02*
X-5100000Y-2300000D01*
X-3500000Y-5700000D02*
X-3400000Y-5800000D01*
X-4700000Y-9044117D02*
X-5275883Y-9044117D01*
X4200000Y-3400000D02*
X4109999Y-3490001D01*
X-3500000Y-5050000D02*
X-3500000Y-5700000D01*
X4180000Y-6500000D02*
X4080000Y-6400000D01*
X-5420000Y-8900000D02*
X-5420000Y-7800000D01*
X4109999Y-5400000D02*
X5209999Y-6500000D01*
X5520000Y-6500000D02*
X4180000Y-6500000D01*
%TO.N,+3.3V*%
X6913500Y-4186500D02*
X7100000Y-4000000D01*
X-3585200Y-1500000D02*
X1800000Y-1500000D01*
X7100000Y-4000000D02*
X7100000Y-700000D01*
X-4445000Y-593300D02*
X-4445000Y-640200D01*
X5200000Y-800000D02*
X5200000Y-1981669D01*
X-4445000Y-640200D02*
X-4445000Y0D01*
X6480000Y-5500000D02*
X6480000Y-4720000D01*
X6480000Y-6500000D02*
X6480000Y-5500000D01*
X-4445000Y0D02*
X-4445000Y-593300D01*
X1800000Y-1500000D02*
X2735000Y-2435000D01*
X6700000Y-300000D02*
X5700000Y-300000D01*
X-4445000Y0D02*
X-4602500Y157500D01*
X-6820000Y-2790000D02*
X-6210000Y-3400000D01*
X2735000Y-2435000D02*
X4746669Y-2435000D01*
X-4602500Y157500D02*
X-6820000Y-2060000D01*
X7100000Y-700000D02*
X6700000Y-300000D01*
X5200000Y-1981669D02*
X4746669Y-2435000D01*
X6900000Y-4300000D02*
X6913500Y-4286500D01*
X-6820000Y-2060000D02*
X-6820000Y-2790000D01*
X-4445000Y-640200D02*
X-3585200Y-1500000D01*
X5700000Y-300000D02*
X5200000Y-800000D01*
X6913500Y-4286500D02*
X6913500Y-4186500D01*
X6480000Y-4720000D02*
X6900000Y-4300000D01*
%TO.N,+3.3VA*%
X-5741400Y-4050000D02*
X-5571400Y-3880000D01*
X-4120000Y-2900000D02*
X-5100000Y-3880000D01*
X-500000Y-5777000D02*
X-500000Y-4300000D01*
X-6380000Y-8900000D02*
X-6380000Y-7800000D01*
X-723000Y-6000000D02*
X-500000Y-5777000D01*
X-5741400Y-4050000D02*
X-5791400Y-4000000D01*
X-1300001Y-6000000D02*
X-900001Y-6400000D01*
X-900001Y-6400000D02*
X3120000Y-6400000D01*
X-6960000Y-4260000D02*
X-6960000Y-7240000D01*
X-6960000Y-7240000D02*
X-6400000Y-7800000D01*
X-6700000Y-4000000D02*
X-6960000Y-4260000D01*
X-1900000Y-2900000D02*
X-4120000Y-2900000D01*
X-5791400Y-4000000D02*
X-6700000Y-4000000D01*
X-1300001Y-6000000D02*
X-723000Y-6000000D01*
X-5571400Y-3880000D02*
X-5100000Y-3880000D01*
X-500000Y-4300000D02*
X-1900000Y-2900000D01*
X-6400000Y-7800000D02*
X-6380000Y-7800000D01*
%TO.N,/CSB*%
X3175000Y-1345000D02*
X3175000Y0D01*
X3560000Y-1730000D02*
X3175000Y-1345000D01*
%TO.N,Vref*%
X90000Y-2240000D02*
X90000Y-5300000D01*
X-1200000Y-8220000D02*
X-830000Y-8220000D01*
X-1200000Y-8220000D02*
X-2300000Y-8220000D01*
X-830000Y-8220000D02*
X-210000Y-7600000D01*
X-1300000Y-6950000D02*
X2450000Y-6950000D01*
X-2160000Y-8080000D02*
X-2160000Y-7810000D01*
X-2300000Y-8220000D02*
X-2160000Y-8080000D01*
X-2160000Y-7810000D02*
X-1300000Y-6950000D01*
X50000Y-2200000D02*
X90000Y-2240000D01*
X2450000Y-6950000D02*
X3000000Y-7500000D01*
%TO.N,Net-(U2--IN)*%
X-2700000Y-4800000D02*
X-2700000Y-6150000D01*
X-5090001Y-4800000D02*
X-4790001Y-4500000D01*
X-3000000Y-4500000D02*
X-2700000Y-4800000D01*
X-3220000Y-7230000D02*
X-3500000Y-6950000D01*
X-4790001Y-4500000D02*
X-3000000Y-4500000D01*
X-2700000Y-6150000D02*
X-3500000Y-6950000D01*
X-5090001Y-4800000D02*
X-5090001Y-4809999D01*
X-3220000Y-8100000D02*
X-3220000Y-7230000D01*
%TO.N,Net-(U4--IN)*%
X4880000Y-7780000D02*
X5240000Y-7780000D01*
X5240000Y-7780000D02*
X5520000Y-7500000D01*
X5490000Y-8500000D02*
X5490000Y-7530000D01*
X5490000Y-7530000D02*
X5520000Y-7500000D01*
X4500000Y-7400000D02*
X4880000Y-7780000D01*
%TO.N,Net-(U5-R)*%
X1310000Y-5100000D02*
X1110000Y-5300000D01*
X3090001Y-5400000D02*
X2790001Y-5100000D01*
X2400000Y-3100000D02*
X3090001Y-3790001D01*
X3090001Y-3790001D02*
X3090001Y-5400000D01*
X2790001Y-5100000D02*
X1310000Y-5100000D01*
D24*
%TO.N,/IN+*%
X-2032034Y-8912034D02*
X-2300000Y-9180000D01*
X-1887966Y-8912034D02*
X-2032034Y-8912034D01*
%TO.N,/IN-*%
X-820000Y-9180000D02*
X-1200000Y-9180000D01*
X-600000Y-9400000D02*
X-820000Y-9180000D01*
D23*
%TO.N,/REF*%
X-4900001Y-5800001D02*
X-5200000Y-5800001D01*
X-4300000Y-7980000D02*
X-4180000Y-8100000D01*
X-4400000Y-5300000D02*
X-4900001Y-5800001D01*
X-4300000Y-5400000D02*
X-4300000Y-7980000D01*
X-3900000Y-7820000D02*
X-4180000Y-8100000D01*
X-2000000Y-5300000D02*
X-1550000Y-5300000D01*
X-3900000Y-7600000D02*
X-3900000Y-7820000D01*
X-4400000Y-5300000D02*
X-4300000Y-5400000D01*
X-1550000Y-5300000D02*
X-1300000Y-5050000D01*
%TO.N,/OUT_INA*%
X-6200000Y-4890001D02*
X-6109999Y-4800000D01*
X-6109999Y-4800000D02*
X-6200000Y-4800000D01*
X-6200000Y-5780001D02*
X-6200000Y-4890001D01*
X-6200000Y-4800000D02*
X-6500000Y-4500000D01*
%TO.N,/OUT1*%
X5350000Y-3900000D02*
X6250000Y-3000000D01*
X6510000Y-7530000D02*
X6480000Y-7500000D01*
X5300000Y-3900000D02*
X5350000Y-3900000D01*
X6400000Y-9300000D02*
X6400000Y-8610000D01*
X6510000Y-8500000D02*
X6510000Y-7530000D01*
X6400000Y-8610000D02*
X6510000Y-8500000D01*
%TO.N,/ADC2*%
X5426999Y-2073001D02*
X6250000Y-1250000D01*
X4800000Y-5400000D02*
X4800000Y-2702695D01*
X5426999Y-2075696D02*
X5426999Y-2073001D01*
X4800000Y-2702695D02*
X5426999Y-2075696D01*
%TO.N,Net-(J11-Pin_1)*%
X810000Y-7600000D02*
X635000Y-7775000D01*
X635000Y-7775000D02*
X635000Y-9926499D01*
%TO.N,Net-(U1-RG)*%
X-5119999Y-6819999D02*
X-5200000Y-6819999D01*
X-5220000Y-6799999D02*
X-5200000Y-6819999D01*
X-4750000Y-6450000D02*
X-5119999Y-6819999D01*
X-6200000Y-6799999D02*
X-5220000Y-6799999D01*
%TD*%
%TA.AperFunction,Conductor*%
%TO.N,GND*%
G36*
X-5708315Y-7228238D02*
G01*
X-5700084Y-7226552D01*
X-5674862Y-7236307D01*
X-5648564Y-7242650D01*
X-5638477Y-7250380D01*
X-5634919Y-7251756D01*
X-5632683Y-7254820D01*
X-5622740Y-7262439D01*
X-5612103Y-7273076D01*
X-5612100Y-7273078D01*
X-5513942Y-7321064D01*
X-5496518Y-7329582D01*
X-5421582Y-7340500D01*
X-5421577Y-7340500D01*
X-4978423Y-7340500D01*
X-4978418Y-7340500D01*
X-4903482Y-7329582D01*
X-4868690Y-7312573D01*
X-4792461Y-7275307D01*
X-4790791Y-7275021D01*
X-4789511Y-7273913D01*
X-4756492Y-7269165D01*
X-4723588Y-7263547D01*
X-4722029Y-7264209D01*
X-4720353Y-7263969D01*
X-4690010Y-7277826D01*
X-4659290Y-7290890D01*
X-4658337Y-7292290D01*
X-4656797Y-7292994D01*
X-4638758Y-7321064D01*
X-4619983Y-7348655D01*
X-4619646Y-7350803D01*
X-4619023Y-7351772D01*
X-4614000Y-7386707D01*
X-4614000Y-7621726D01*
X-4633685Y-7688765D01*
X-4637677Y-7694604D01*
X-4639855Y-7697601D01*
X-4696019Y-7807827D01*
X-4696019Y-7807828D01*
X-4710500Y-7899264D01*
X-4710500Y-8300739D01*
X-4696019Y-8392170D01*
X-4696019Y-8392171D01*
X-4696018Y-8392174D01*
X-4696017Y-8392175D01*
X-4642296Y-8497609D01*
X-4639858Y-8502392D01*
X-4639855Y-8502396D01*
X-4552397Y-8589854D01*
X-4552395Y-8589855D01*
X-4552391Y-8589859D01*
X-4442175Y-8646017D01*
X-4442174Y-8646017D01*
X-4442172Y-8646018D01*
X-4407053Y-8651579D01*
X-4350735Y-8660500D01*
X-4009266Y-8660499D01*
X-4009261Y-8660499D01*
X-4009261Y-8660498D01*
X-3963546Y-8653258D01*
X-3917830Y-8646018D01*
X-3917829Y-8646018D01*
X-3917828Y-8646017D01*
X-3917825Y-8646017D01*
X-3807609Y-8589859D01*
X-3807604Y-8589854D01*
X-3787681Y-8569932D01*
X-3726358Y-8536447D01*
X-3656666Y-8541431D01*
X-3612319Y-8569932D01*
X-3592397Y-8589854D01*
X-3592395Y-8589855D01*
X-3592391Y-8589859D01*
X-3482175Y-8646017D01*
X-3482174Y-8646017D01*
X-3482172Y-8646018D01*
X-3447053Y-8651579D01*
X-3390735Y-8660500D01*
X-3049266Y-8660499D01*
X-3049261Y-8660499D01*
X-3049261Y-8660498D01*
X-3003546Y-8653258D01*
X-2957830Y-8646018D01*
X-2957829Y-8646017D01*
X-2957825Y-8646017D01*
X-2957822Y-8646015D01*
X-2948547Y-8643002D01*
X-2947964Y-8644798D01*
X-2891137Y-8634121D01*
X-2826394Y-8660390D01*
X-2786130Y-8717492D01*
X-2783131Y-8787297D01*
X-2793013Y-8813797D01*
X-2846018Y-8917824D01*
X-2846019Y-8917828D01*
X-2860500Y-9009264D01*
X-2860500Y-9350739D01*
X-2846019Y-9442170D01*
X-2846019Y-9442171D01*
X-2846018Y-9442174D01*
X-2846017Y-9442175D01*
X-2792888Y-9546447D01*
X-2789858Y-9552392D01*
X-2789855Y-9552396D01*
X-2702397Y-9639854D01*
X-2702395Y-9639855D01*
X-2702391Y-9639859D01*
X-2592175Y-9696017D01*
X-2592174Y-9696017D01*
X-2592172Y-9696018D01*
X-2557053Y-9701579D01*
X-2500735Y-9710500D01*
X-2099266Y-9710499D01*
X-2099261Y-9710499D01*
X-2099261Y-9710498D01*
X-2036535Y-9700564D01*
X-2007830Y-9696018D01*
X-2007829Y-9696018D01*
X-2007828Y-9696017D01*
X-2007825Y-9696017D01*
X-1897609Y-9639859D01*
X-1867981Y-9610231D01*
X-1837681Y-9579932D01*
X-1776358Y-9546447D01*
X-1706666Y-9551431D01*
X-1662319Y-9579932D01*
X-1602397Y-9639854D01*
X-1602395Y-9639855D01*
X-1602391Y-9639859D01*
X-1492175Y-9696017D01*
X-1492174Y-9696017D01*
X-1492172Y-9696018D01*
X-1457053Y-9701579D01*
X-1400735Y-9710500D01*
X-999266Y-9710499D01*
X-998950Y-9710449D01*
X-998827Y-9710464D01*
X-996535Y-9710284D01*
X-995907Y-9710006D01*
X-994924Y-9710157D01*
X-994402Y-9710117D01*
X-994393Y-9710239D01*
X-962851Y-9715111D01*
X-929656Y-9719399D01*
X-927927Y-9720505D01*
X-926856Y-9720671D01*
X-918502Y-9726536D01*
X-897366Y-9740061D01*
X-894541Y-9742561D01*
X-876613Y-9760489D01*
X-869909Y-9764360D01*
X-860553Y-9772639D01*
X-848350Y-9792071D01*
X-832515Y-9808678D01*
X-830122Y-9821096D01*
X-823394Y-9831809D01*
X-823634Y-9854754D01*
X-819291Y-9877285D01*
X-823992Y-9889027D01*
X-824124Y-9901675D01*
X-836732Y-9920849D01*
X-845259Y-9942150D01*
X-855561Y-9949485D01*
X-862510Y-9960055D01*
X-883482Y-9969368D01*
X-902173Y-9982679D01*
X-920326Y-9985731D01*
X-926366Y-9988414D01*
X-931533Y-9987616D01*
X-942730Y-9989499D01*
X-3570500Y-9989499D01*
X-3637539Y-9969814D01*
X-3683294Y-9917010D01*
X-3694500Y-9865499D01*
X-3694500Y-9475323D01*
X-3694501Y-9475321D01*
X-3709033Y-9402264D01*
X-3709034Y-9402260D01*
X-3722496Y-9382112D01*
X-3764399Y-9319399D01*
X-3847260Y-9264034D01*
X-3847261Y-9264033D01*
X-3847265Y-9264032D01*
X-3920323Y-9249500D01*
X-3920326Y-9249500D01*
X-4969674Y-9249500D01*
X-4969677Y-9249500D01*
X-5042736Y-9264032D01*
X-5042740Y-9264033D01*
X-5125601Y-9319399D01*
X-5180967Y-9402260D01*
X-5180968Y-9402264D01*
X-5195500Y-9475321D01*
X-5195500Y-9865499D01*
X-5215185Y-9932538D01*
X-5267989Y-9978293D01*
X-5319500Y-9989499D01*
X-6743910Y-9989499D01*
X-6756063Y-9988902D01*
X-6882113Y-9976488D01*
X-6905956Y-9971745D01*
X-7021311Y-9936752D01*
X-7043768Y-9927450D01*
X-7150072Y-9870629D01*
X-7170284Y-9857124D01*
X-7263465Y-9780652D01*
X-7280653Y-9763464D01*
X-7357125Y-9670283D01*
X-7370630Y-9650071D01*
X-7411352Y-9573886D01*
X-7427452Y-9543764D01*
X-7436753Y-9521310D01*
X-7471746Y-9405955D01*
X-7476488Y-9382118D01*
X-7488903Y-9256060D01*
X-7489500Y-9243907D01*
X-7489500Y-7412665D01*
X-7469815Y-7345626D01*
X-7417011Y-7299871D01*
X-7347853Y-7289927D01*
X-7284297Y-7318952D01*
X-7258249Y-7355076D01*
X-7256665Y-7354162D01*
X-7211268Y-7432793D01*
X-7211262Y-7432801D01*
X-6946819Y-7697244D01*
X-6913334Y-7758567D01*
X-6910500Y-7784924D01*
X-6910500Y-8000739D01*
X-6896019Y-8092170D01*
X-6896019Y-8092171D01*
X-6896018Y-8092174D01*
X-6896017Y-8092175D01*
X-6839859Y-8202391D01*
X-6779931Y-8262319D01*
X-6746447Y-8323640D01*
X-6751431Y-8393332D01*
X-6779931Y-8437680D01*
X-6839858Y-8497606D01*
X-6839858Y-8497608D01*
X-6839859Y-8497609D01*
X-6842296Y-8502392D01*
X-6896019Y-8607827D01*
X-6896019Y-8607828D01*
X-6910500Y-8699264D01*
X-6910500Y-9100739D01*
X-6896019Y-9192170D01*
X-6896019Y-9192171D01*
X-6896018Y-9192174D01*
X-6896017Y-9192175D01*
X-6848376Y-9285676D01*
X-6839858Y-9302392D01*
X-6839855Y-9302396D01*
X-6752397Y-9389854D01*
X-6752395Y-9389855D01*
X-6752391Y-9389859D01*
X-6642175Y-9446017D01*
X-6642174Y-9446017D01*
X-6642172Y-9446018D01*
X-6607053Y-9451579D01*
X-6550735Y-9460500D01*
X-6209266Y-9460499D01*
X-6209261Y-9460499D01*
X-6209261Y-9460498D01*
X-6163546Y-9453258D01*
X-6117830Y-9446018D01*
X-6117829Y-9446018D01*
X-6117828Y-9446017D01*
X-6117825Y-9446017D01*
X-6007609Y-9389859D01*
X-5920141Y-9302391D01*
X-5863983Y-9192175D01*
X-5863983Y-9192173D01*
X-5863982Y-9192172D01*
X-5863982Y-9192171D01*
X-5853520Y-9126114D01*
X-5849500Y-9100735D01*
X-5849501Y-8699266D01*
X-5849501Y-8699264D01*
X-5849501Y-8699260D01*
X-5863982Y-8607829D01*
X-5863982Y-8607828D01*
X-5863983Y-8607826D01*
X-5863983Y-8607825D01*
X-5920141Y-8497609D01*
X-5920144Y-8497606D01*
X-5920146Y-8497603D01*
X-5980069Y-8437680D01*
X-6013554Y-8376357D01*
X-6008570Y-8306665D01*
X-5980072Y-8262321D01*
X-5920141Y-8202391D01*
X-5863983Y-8092175D01*
X-5863983Y-8092173D01*
X-5863982Y-8092172D01*
X-5863982Y-8092171D01*
X-5854336Y-8031265D01*
X-5849500Y-8000735D01*
X-5849501Y-7599266D01*
X-5849501Y-7599260D01*
X-5863982Y-7507829D01*
X-5863982Y-7507828D01*
X-5863983Y-7507826D01*
X-5863983Y-7507825D01*
X-5895495Y-7445980D01*
X-5896975Y-7438097D01*
X-5901705Y-7431617D01*
X-5903331Y-7404253D01*
X-5908390Y-7377314D01*
X-5905374Y-7369880D01*
X-5905849Y-7361871D01*
X-5892424Y-7337974D01*
X-5882114Y-7312573D01*
X-5874680Y-7306390D01*
X-5871626Y-7300956D01*
X-5848756Y-7284834D01*
X-5843119Y-7280147D01*
X-5841320Y-7279192D01*
X-5787898Y-7253076D01*
X-5783164Y-7248341D01*
X-5768531Y-7240579D01*
X-5742036Y-7235149D01*
X-5716486Y-7226268D01*
X-5708315Y-7228238D01*
G37*
%TD.AperFunction*%
%TA.AperFunction,Conductor*%
G36*
X4429039Y-2768685D02*
G01*
X4474794Y-2821489D01*
X4486000Y-2873000D01*
X4486000Y-5025536D01*
X4466315Y-5092575D01*
X4449681Y-5113217D01*
X4439513Y-5123384D01*
X4439511Y-5123387D01*
X4390759Y-5207828D01*
X4380201Y-5226114D01*
X4349500Y-5340691D01*
X4349500Y-5459309D01*
X4380201Y-5573886D01*
X4439511Y-5676613D01*
X4523387Y-5760489D01*
X4626114Y-5819799D01*
X4740691Y-5850500D01*
X4740694Y-5850500D01*
X4859306Y-5850500D01*
X4859309Y-5850500D01*
X4973886Y-5819799D01*
X5076613Y-5760489D01*
X5160489Y-5676613D01*
X5219799Y-5573886D01*
X5250500Y-5459309D01*
X5250500Y-5340691D01*
X5219799Y-5226114D01*
X5160489Y-5123387D01*
X5150319Y-5113217D01*
X5116834Y-5051894D01*
X5114000Y-5025536D01*
X5114000Y-4474500D01*
X5133685Y-4407461D01*
X5186489Y-4361706D01*
X5238000Y-4350500D01*
X5359306Y-4350500D01*
X5359309Y-4350500D01*
X5473886Y-4319799D01*
X5576613Y-4260489D01*
X5660489Y-4176613D01*
X5719799Y-4073886D01*
X5747664Y-3969889D01*
X5755680Y-3956005D01*
X5758606Y-3942559D01*
X5779750Y-3914312D01*
X5935276Y-3758785D01*
X5996596Y-3725303D01*
X6047144Y-3724852D01*
X6144387Y-3744195D01*
X6176081Y-3750500D01*
X6176082Y-3750500D01*
X6323920Y-3750500D01*
X6440836Y-3727243D01*
X6468913Y-3721658D01*
X6603136Y-3666060D01*
X6672604Y-3658592D01*
X6735084Y-3689867D01*
X6770736Y-3749956D01*
X6768242Y-3819781D01*
X6728394Y-3877173D01*
X6712590Y-3888008D01*
X6623390Y-3939509D01*
X6623384Y-3939513D01*
X6539513Y-4023384D01*
X6539511Y-4023387D01*
X6510355Y-4073887D01*
X6480201Y-4126114D01*
X6449500Y-4240691D01*
X6449500Y-4240693D01*
X6449500Y-4255075D01*
X6429815Y-4322114D01*
X6413181Y-4342756D01*
X6228738Y-4527198D01*
X6228734Y-4527203D01*
X6187398Y-4598799D01*
X6187399Y-4598799D01*
X6187399Y-4598800D01*
X6187399Y-4598801D01*
X6170465Y-4662000D01*
X6166000Y-4678662D01*
X6166000Y-4904536D01*
X6146315Y-4971575D01*
X6114885Y-5004854D01*
X6107607Y-5010141D01*
X6020145Y-5097603D01*
X6020143Y-5097607D01*
X6020141Y-5097609D01*
X6005618Y-5126112D01*
X5963981Y-5207827D01*
X5963981Y-5207828D01*
X5949500Y-5299264D01*
X5949500Y-5700739D01*
X5963981Y-5792170D01*
X5963981Y-5792171D01*
X5963982Y-5792174D01*
X5963983Y-5792175D01*
X6018005Y-5898199D01*
X6020142Y-5902392D01*
X6020145Y-5902396D01*
X6030068Y-5912319D01*
X6063553Y-5973642D01*
X6058569Y-6043334D01*
X6030068Y-6087681D01*
X6020145Y-6097603D01*
X6020143Y-6097607D01*
X6020141Y-6097609D01*
X6014934Y-6107829D01*
X5963981Y-6207827D01*
X5963981Y-6207828D01*
X5949500Y-6299264D01*
X5949500Y-6700739D01*
X5963981Y-6792170D01*
X5963982Y-6792173D01*
X5965831Y-6795801D01*
X5966748Y-6800683D01*
X5966998Y-6801453D01*
X5966898Y-6801485D01*
X5978728Y-6864470D01*
X5952452Y-6929211D01*
X5895346Y-6969469D01*
X5825541Y-6972461D01*
X5799054Y-6962583D01*
X5782173Y-6953982D01*
X5782171Y-6953981D01*
X5690735Y-6939500D01*
X5349260Y-6939500D01*
X5349260Y-6939501D01*
X5257829Y-6953981D01*
X5257828Y-6953981D01*
X5147607Y-7010142D01*
X5147603Y-7010145D01*
X5060145Y-7097603D01*
X5054408Y-7105501D01*
X5052685Y-7104249D01*
X5013540Y-7145684D01*
X4945717Y-7162468D01*
X4879585Y-7139920D01*
X4863366Y-7126264D01*
X4776615Y-7039513D01*
X4776613Y-7039511D01*
X4673886Y-6980201D01*
X4559309Y-6949500D01*
X4440691Y-6949500D01*
X4326114Y-6980201D01*
X4326112Y-6980201D01*
X4326112Y-6980202D01*
X4223387Y-7039511D01*
X4223384Y-7039513D01*
X4139513Y-7123384D01*
X4139511Y-7123387D01*
X4090759Y-7207828D01*
X4080201Y-7226114D01*
X4049500Y-7340691D01*
X4049500Y-7459309D01*
X4080201Y-7573886D01*
X4139511Y-7676613D01*
X4223387Y-7760489D01*
X4326114Y-7819799D01*
X4440691Y-7850500D01*
X4455074Y-7850500D01*
X4522113Y-7870185D01*
X4542755Y-7886819D01*
X4687199Y-8031263D01*
X4758800Y-8072601D01*
X4769620Y-8075500D01*
X4838661Y-8094000D01*
X4865081Y-8094000D01*
X4876940Y-8096334D01*
X4897643Y-8107110D01*
X4920033Y-8113685D01*
X4928051Y-8122938D01*
X4938916Y-8128594D01*
X4950507Y-8148854D01*
X4965788Y-8166489D01*
X4967530Y-8178608D01*
X4973613Y-8189240D01*
X4972410Y-8212548D01*
X4975731Y-8235645D01*
X4969500Y-8278418D01*
X4969500Y-8721582D01*
X4980418Y-8796518D01*
X4980418Y-8796519D01*
X4980419Y-8796521D01*
X5036921Y-8912099D01*
X5036923Y-8912102D01*
X5127897Y-9003076D01*
X5127900Y-9003078D01*
X5219171Y-9047697D01*
X5243482Y-9059582D01*
X5318418Y-9070500D01*
X5318423Y-9070500D01*
X5661577Y-9070500D01*
X5661582Y-9070500D01*
X5736518Y-9059582D01*
X5792705Y-9032113D01*
X5861575Y-9020354D01*
X5925872Y-9047697D01*
X5965181Y-9105460D01*
X5967019Y-9175306D01*
X5966939Y-9175607D01*
X5962500Y-9192175D01*
X5949500Y-9240691D01*
X5949500Y-9359309D01*
X5980201Y-9473886D01*
X6039511Y-9576613D01*
X6123387Y-9660489D01*
X6226114Y-9719799D01*
X6340691Y-9750500D01*
X6459309Y-9750500D01*
X6573886Y-9719799D01*
X6676613Y-9660489D01*
X6760489Y-9576613D01*
X6819799Y-9473886D01*
X6850500Y-9359309D01*
X6850500Y-9240691D01*
X6822777Y-9137228D01*
X6824440Y-9067381D01*
X6863602Y-9009518D01*
X6870509Y-9004212D01*
X6872093Y-9003080D01*
X6872102Y-9003076D01*
X6963076Y-8912102D01*
X6963078Y-8912099D01*
X6991329Y-8854310D01*
X7019582Y-8796518D01*
X7030500Y-8721582D01*
X7030500Y-8278418D01*
X7019582Y-8203482D01*
X7017222Y-8198656D01*
X6963078Y-8087900D01*
X6963077Y-8087898D01*
X6946397Y-8071219D01*
X6912910Y-8009897D01*
X6917893Y-7940205D01*
X6936182Y-7911788D01*
X6934120Y-7910290D01*
X6939851Y-7902398D01*
X6939859Y-7902391D01*
X6996017Y-7792175D01*
X6996017Y-7792173D01*
X6996018Y-7792172D01*
X6996018Y-7792171D01*
X7005782Y-7730522D01*
X7010500Y-7700735D01*
X7010499Y-7299266D01*
X7010499Y-7299265D01*
X7010499Y-7299260D01*
X6996018Y-7207829D01*
X6996018Y-7207828D01*
X6996017Y-7207826D01*
X6996017Y-7207825D01*
X6939859Y-7097609D01*
X6939857Y-7097607D01*
X6939854Y-7097603D01*
X6929932Y-7087681D01*
X6896447Y-7026358D01*
X6901431Y-6956666D01*
X6929932Y-6912319D01*
X6939854Y-6902396D01*
X6939859Y-6902391D01*
X6996017Y-6792175D01*
X6996017Y-6792173D01*
X6996018Y-6792172D01*
X6996018Y-6792171D01*
X7000343Y-6764862D01*
X7010500Y-6700735D01*
X7010499Y-6299266D01*
X7010499Y-6299264D01*
X7010499Y-6299260D01*
X6996018Y-6207829D01*
X6996018Y-6207828D01*
X6996017Y-6207826D01*
X6996017Y-6207825D01*
X6939859Y-6097609D01*
X6939857Y-6097607D01*
X6939854Y-6097603D01*
X6929932Y-6087681D01*
X6896447Y-6026358D01*
X6901431Y-5956666D01*
X6929932Y-5912319D01*
X6939854Y-5902396D01*
X6939859Y-5902391D01*
X6996017Y-5792175D01*
X6996017Y-5792173D01*
X6996018Y-5792172D01*
X6996018Y-5792171D01*
X7003828Y-5742860D01*
X7010500Y-5700735D01*
X7010499Y-5299266D01*
X7010499Y-5299264D01*
X7010499Y-5299260D01*
X6996018Y-5207829D01*
X6996018Y-5207828D01*
X6996017Y-5207826D01*
X6996017Y-5207825D01*
X6939859Y-5097609D01*
X6939857Y-5097607D01*
X6939854Y-5097603D01*
X6852392Y-5010141D01*
X6845115Y-5004854D01*
X6841774Y-5000522D01*
X6836797Y-4998249D01*
X6820666Y-4973149D01*
X6802449Y-4949525D01*
X6801195Y-4942851D01*
X6799023Y-4939471D01*
X6794000Y-4904536D01*
X6794000Y-4901425D01*
X6813685Y-4834386D01*
X6830319Y-4813744D01*
X6857244Y-4786819D01*
X6918567Y-4753334D01*
X6944925Y-4750500D01*
X6959306Y-4750500D01*
X6959309Y-4750500D01*
X7073886Y-4719799D01*
X7176613Y-4660489D01*
X7260489Y-4576613D01*
X7260493Y-4576605D01*
X7265437Y-4570164D01*
X7267518Y-4571761D01*
X7308675Y-4532515D01*
X7377281Y-4519289D01*
X7442147Y-4545254D01*
X7482678Y-4602166D01*
X7489500Y-4642728D01*
X7489500Y-9243906D01*
X7488903Y-9256060D01*
X7476488Y-9382112D01*
X7471746Y-9405953D01*
X7436753Y-9521309D01*
X7427450Y-9543767D01*
X7370629Y-9650072D01*
X7357124Y-9670284D01*
X7280653Y-9763464D01*
X7263465Y-9780652D01*
X7170284Y-9857124D01*
X7150072Y-9870629D01*
X7043768Y-9927450D01*
X7021310Y-9936753D01*
X6905954Y-9971746D01*
X6882113Y-9976488D01*
X6788268Y-9985731D01*
X6761027Y-9988414D01*
X6756072Y-9988902D01*
X6743918Y-9989499D01*
X5319500Y-9989499D01*
X5252461Y-9969814D01*
X5206706Y-9917010D01*
X5195500Y-9865499D01*
X5195500Y-9475323D01*
X5195499Y-9475321D01*
X5180967Y-9402264D01*
X5180966Y-9402260D01*
X5167504Y-9382112D01*
X5125601Y-9319399D01*
X5042740Y-9264034D01*
X5042739Y-9264033D01*
X5042735Y-9264032D01*
X4969677Y-9249500D01*
X4969674Y-9249500D01*
X3920326Y-9249500D01*
X3920323Y-9249500D01*
X3847264Y-9264032D01*
X3847260Y-9264033D01*
X3764399Y-9319399D01*
X3709033Y-9402260D01*
X3709032Y-9402264D01*
X3694500Y-9475321D01*
X3694500Y-9865499D01*
X3674815Y-9932538D01*
X3622011Y-9978293D01*
X3570500Y-9989499D01*
X1509500Y-9989499D01*
X1442461Y-9969814D01*
X1396706Y-9917010D01*
X1385500Y-9865499D01*
X1385500Y-9475323D01*
X1385499Y-9475321D01*
X1370967Y-9402264D01*
X1370966Y-9402260D01*
X1357504Y-9382112D01*
X1315601Y-9319399D01*
X1232740Y-9264034D01*
X1232739Y-9264033D01*
X1232735Y-9264032D01*
X1159677Y-9249500D01*
X1159674Y-9249500D01*
X1073000Y-9249500D01*
X1005961Y-9229815D01*
X960206Y-9177011D01*
X949000Y-9125500D01*
X949000Y-8282489D01*
X968685Y-8215450D01*
X1021489Y-8169695D01*
X1055121Y-8159785D01*
X1056518Y-8159582D01*
X1056521Y-8159580D01*
X1056523Y-8159580D01*
X1172099Y-8103078D01*
X1172102Y-8103076D01*
X1263076Y-8012102D01*
X1263078Y-8012099D01*
X1291329Y-7954310D01*
X1319582Y-7896518D01*
X1330500Y-7821582D01*
X1330500Y-7388000D01*
X1350185Y-7320961D01*
X1402989Y-7275206D01*
X1454500Y-7264000D01*
X2125500Y-7264000D01*
X2192539Y-7283685D01*
X2238294Y-7336489D01*
X2249500Y-7388000D01*
X2249500Y-8024678D01*
X2264032Y-8097735D01*
X2264033Y-8097739D01*
X2270295Y-8107110D01*
X2319399Y-8180601D01*
X2401783Y-8235647D01*
X2402260Y-8235966D01*
X2402264Y-8235967D01*
X2475321Y-8250499D01*
X2475324Y-8250500D01*
X2475326Y-8250500D01*
X3524676Y-8250500D01*
X3524677Y-8250499D01*
X3597740Y-8235966D01*
X3680601Y-8180601D01*
X3735966Y-8097740D01*
X3750500Y-8024674D01*
X3750500Y-6975326D01*
X3750500Y-6975323D01*
X3750499Y-6975321D01*
X3735967Y-6902264D01*
X3735966Y-6902263D01*
X3735966Y-6902260D01*
X3680601Y-6819399D01*
X3680597Y-6819396D01*
X3671967Y-6810766D01*
X3674532Y-6808200D01*
X3643248Y-6770769D01*
X3634587Y-6701830D01*
X3634491Y-6701815D01*
X3634543Y-6701481D01*
X3634539Y-6701444D01*
X3634569Y-6701317D01*
X3636017Y-6692175D01*
X3650500Y-6600735D01*
X3650499Y-6199266D01*
X3650499Y-6199260D01*
X3636018Y-6107829D01*
X3636018Y-6107828D01*
X3636017Y-6107826D01*
X3636017Y-6107825D01*
X3579859Y-5997609D01*
X3579857Y-5997607D01*
X3579854Y-5997603D01*
X3555385Y-5973134D01*
X3521900Y-5911811D01*
X3526884Y-5842119D01*
X3542157Y-5813388D01*
X3543071Y-5812106D01*
X3543076Y-5812102D01*
X3543079Y-5812095D01*
X3543081Y-5812093D01*
X3587105Y-5722039D01*
X3599582Y-5696518D01*
X3610500Y-5621582D01*
X3610500Y-5178418D01*
X3599582Y-5103482D01*
X3596708Y-5097603D01*
X3543078Y-4987900D01*
X3494649Y-4939471D01*
X3452102Y-4896924D01*
X3452100Y-4896923D01*
X3444837Y-4889660D01*
X3446662Y-4887834D01*
X3412820Y-4844678D01*
X3404001Y-4798752D01*
X3404001Y-3748663D01*
X3403793Y-3747885D01*
X3382602Y-3668802D01*
X3360316Y-3630201D01*
X3341264Y-3597201D01*
X2886819Y-3142756D01*
X2853744Y-3083252D01*
X2850500Y-3069349D01*
X2850500Y-3040691D01*
X2819799Y-2926114D01*
X2815231Y-2918203D01*
X2811259Y-2901177D01*
X2812677Y-2876031D01*
X2809985Y-2850982D01*
X2814612Y-2841737D01*
X2815195Y-2831418D01*
X2829985Y-2811028D01*
X2841261Y-2788503D01*
X2850150Y-2783228D01*
X2856220Y-2774861D01*
X2879686Y-2765704D01*
X2901350Y-2752851D01*
X2917979Y-2750762D01*
X2921310Y-2749463D01*
X2924001Y-2750006D01*
X2932015Y-2749000D01*
X4362000Y-2749000D01*
X4429039Y-2768685D01*
G37*
%TD.AperFunction*%
%TA.AperFunction,Conductor*%
G36*
X-3114386Y-4833685D02*
G01*
X-3093744Y-4850319D01*
X-3050319Y-4893744D01*
X-3016834Y-4955067D01*
X-3014000Y-4981425D01*
X-3014000Y-5968575D01*
X-3033685Y-6035614D01*
X-3050319Y-6056256D01*
X-3357244Y-6363181D01*
X-3418567Y-6396666D01*
X-3444925Y-6399500D01*
X-3862000Y-6399500D01*
X-3929039Y-6379815D01*
X-3974794Y-6327011D01*
X-3986000Y-6275500D01*
X-3986000Y-5511852D01*
X-3981775Y-5479758D01*
X-3980203Y-5473887D01*
X-3980201Y-5473886D01*
X-3949500Y-5359309D01*
X-3949500Y-5240691D01*
X-3980201Y-5126114D01*
X-4039511Y-5023387D01*
X-4039516Y-5023382D01*
X-4044458Y-5016941D01*
X-4042719Y-5015606D01*
X-4070702Y-4964358D01*
X-4065718Y-4894666D01*
X-4023846Y-4838733D01*
X-3958382Y-4814316D01*
X-3949536Y-4814000D01*
X-3181425Y-4814000D01*
X-3114386Y-4833685D01*
G37*
%TD.AperFunction*%
%TA.AperFunction,Conductor*%
G36*
X-2014386Y-3233685D02*
G01*
X-1993744Y-3250319D01*
X-956244Y-4287819D01*
X-922759Y-4349142D01*
X-927743Y-4418834D01*
X-969615Y-4474767D01*
X-1035079Y-4499184D01*
X-1043925Y-4499500D01*
X-1824677Y-4499500D01*
X-1897736Y-4514032D01*
X-1897740Y-4514033D01*
X-1980601Y-4569399D01*
X-2035967Y-4652260D01*
X-2035968Y-4652264D01*
X-2050500Y-4725321D01*
X-2050500Y-4751991D01*
X-2056190Y-4771366D01*
X-2056978Y-4791546D01*
X-2065833Y-4804208D01*
X-2070185Y-4819030D01*
X-2085445Y-4832252D01*
X-2097019Y-4848804D01*
X-2115106Y-4857954D01*
X-2122989Y-4864785D01*
X-2127433Y-4866711D01*
X-2134761Y-4869717D01*
X-2173886Y-4880201D01*
X-2207214Y-4899443D01*
X-2214933Y-4902610D01*
X-2241721Y-4905398D01*
X-2267901Y-4911750D01*
X-2275954Y-4908962D01*
X-2284427Y-4909845D01*
X-2308472Y-4897707D01*
X-2333928Y-4888897D01*
X-2339195Y-4882199D01*
X-2346801Y-4878360D01*
X-2360468Y-4855147D01*
X-2377118Y-4833975D01*
X-2379155Y-4823410D01*
X-2382251Y-4818151D01*
X-2381900Y-4809164D01*
X-2386000Y-4787890D01*
X-2386000Y-4758662D01*
X-2387428Y-4753334D01*
X-2407399Y-4678801D01*
X-2407399Y-4678800D01*
X-2407399Y-4678799D01*
X-2448735Y-4607203D01*
X-2448739Y-4607198D01*
X-2807201Y-4248736D01*
X-2878802Y-4207398D01*
X-2886633Y-4205299D01*
X-2895677Y-4202876D01*
X-2895679Y-4202875D01*
X-2958660Y-4186000D01*
X-2958661Y-4186000D01*
X-4416003Y-4186000D01*
X-4424810Y-4183414D01*
X-4433899Y-4184702D01*
X-4457808Y-4173724D01*
X-4483042Y-4166315D01*
X-4489053Y-4159379D01*
X-4497396Y-4155548D01*
X-4511575Y-4133386D01*
X-4528797Y-4113511D01*
X-4531102Y-4102866D01*
X-4535051Y-4096693D01*
X-4537418Y-4073690D01*
X-4540003Y-4061748D01*
X-4539987Y-4053808D01*
X-4539500Y-4050735D01*
X-4539501Y-3814671D01*
X-4529622Y-3781277D01*
X-4519817Y-3747885D01*
X-4519700Y-3747739D01*
X-4519680Y-3747673D01*
X-4519569Y-3747577D01*
X-4503187Y-3727248D01*
X-4026256Y-3250319D01*
X-3964933Y-3216834D01*
X-3938575Y-3214000D01*
X-2081425Y-3214000D01*
X-2014386Y-3233685D01*
G37*
%TD.AperFunction*%
%TA.AperFunction,Conductor*%
G36*
X1685614Y-1833685D02*
G01*
X1706256Y-1850319D01*
X2318754Y-2462817D01*
X2352239Y-2524140D01*
X2347255Y-2593832D01*
X2305383Y-2649765D01*
X2263168Y-2670272D01*
X2247760Y-2674400D01*
X2226112Y-2680201D01*
X2123387Y-2739511D01*
X2123384Y-2739513D01*
X2039513Y-2823384D01*
X2039511Y-2823387D01*
X1994599Y-2901177D01*
X1980201Y-2926114D01*
X1949500Y-3040691D01*
X1949500Y-3159309D01*
X1980201Y-3273886D01*
X2039511Y-3376613D01*
X2123387Y-3460489D01*
X2226114Y-3519799D01*
X2340691Y-3550500D01*
X2355075Y-3550500D01*
X2422114Y-3570185D01*
X2442756Y-3586819D01*
X2739682Y-3883745D01*
X2773167Y-3945068D01*
X2776001Y-3971426D01*
X2776001Y-4662000D01*
X2756316Y-4729039D01*
X2703512Y-4774794D01*
X2652001Y-4786000D01*
X1478445Y-4786000D01*
X1423984Y-4773400D01*
X1356520Y-4740418D01*
X1335107Y-4737298D01*
X1281582Y-4729500D01*
X938418Y-4729500D01*
X863482Y-4740418D01*
X863480Y-4740418D01*
X863478Y-4740419D01*
X747900Y-4796921D01*
X747897Y-4796923D01*
X687681Y-4857140D01*
X680231Y-4861207D01*
X675206Y-4868049D01*
X650025Y-4877701D01*
X626358Y-4890625D01*
X617891Y-4890019D01*
X609965Y-4893058D01*
X583563Y-4887564D01*
X556666Y-4885641D01*
X548088Y-4880183D01*
X541561Y-4878825D01*
X515006Y-4859132D01*
X513116Y-4857930D01*
X512670Y-4857492D01*
X452102Y-4796924D01*
X449898Y-4795846D01*
X441116Y-4787222D01*
X428634Y-4764848D01*
X412823Y-4744689D01*
X410425Y-4732208D01*
X407077Y-4726205D01*
X407615Y-4717576D01*
X404000Y-4698751D01*
X404000Y-2521078D01*
X420612Y-2459078D01*
X469799Y-2373886D01*
X500500Y-2259309D01*
X500500Y-2140691D01*
X469799Y-2026114D01*
X454722Y-2000001D01*
X438249Y-1932102D01*
X461100Y-1866075D01*
X516021Y-1822883D01*
X562109Y-1814000D01*
X1618575Y-1814000D01*
X1685614Y-1833685D01*
G37*
%TD.AperFunction*%
%TA.AperFunction,Conductor*%
G36*
X-4995620Y-745339D02*
G01*
X-4969674Y-750500D01*
X-4813731Y-750500D01*
X-4811969Y-750550D01*
X-4780341Y-760819D01*
X-4748447Y-770185D01*
X-4747253Y-771563D01*
X-4745515Y-772128D01*
X-4708099Y-812500D01*
X-4696266Y-832996D01*
X-4696262Y-833001D01*
X-3778000Y-1751263D01*
X-3722862Y-1783096D01*
X-3722861Y-1783096D01*
X-3706399Y-1792601D01*
X-3626539Y-1814000D01*
X-462109Y-1814000D01*
X-395070Y-1833685D01*
X-349315Y-1886489D01*
X-339371Y-1955647D01*
X-354723Y-2000002D01*
X-369798Y-2026111D01*
X-369799Y-2026113D01*
X-369799Y-2026114D01*
X-400500Y-2140691D01*
X-400500Y-2259309D01*
X-369799Y-2373886D01*
X-310489Y-2476613D01*
X-310487Y-2476615D01*
X-260319Y-2526783D01*
X-226834Y-2588106D01*
X-224000Y-2614464D01*
X-224000Y-3832575D01*
X-243685Y-3899614D01*
X-296489Y-3945369D01*
X-365647Y-3955313D01*
X-429203Y-3926288D01*
X-435681Y-3920256D01*
X-1707199Y-2648738D01*
X-1707207Y-2648732D01*
X-1778794Y-2607401D01*
X-1778800Y-2607399D01*
X-1788226Y-2604873D01*
X-1804550Y-2600499D01*
X-1804551Y-2600498D01*
X-1858661Y-2586000D01*
X-4161339Y-2586000D01*
X-4161340Y-2586000D01*
X-4215454Y-2600500D01*
X-4215455Y-2600499D01*
X-4241198Y-2607398D01*
X-4241203Y-2607400D01*
X-4312798Y-2648736D01*
X-4312804Y-2648740D01*
X-4977246Y-3313181D01*
X-5038569Y-3346666D01*
X-5064926Y-3349500D01*
X-5300740Y-3349500D01*
X-5300740Y-3349501D01*
X-5392171Y-3363981D01*
X-5392175Y-3363983D01*
X-5469207Y-3403232D01*
X-5537877Y-3416128D01*
X-5602617Y-3389851D01*
X-5642873Y-3332744D01*
X-5649501Y-3292747D01*
X-5649501Y-3229260D01*
X-5663982Y-3137829D01*
X-5663982Y-3137828D01*
X-5663983Y-3137826D01*
X-5663983Y-3137825D01*
X-5720141Y-3027609D01*
X-5720143Y-3027607D01*
X-5720146Y-3027603D01*
X-5807604Y-2940145D01*
X-5807607Y-2940143D01*
X-5807609Y-2940141D01*
X-5917825Y-2883983D01*
X-5917826Y-2883982D01*
X-5917829Y-2883981D01*
X-6009265Y-2869500D01*
X-6245075Y-2869500D01*
X-6312114Y-2849815D01*
X-6332756Y-2833181D01*
X-6469681Y-2696256D01*
X-6503166Y-2634933D01*
X-6506000Y-2608575D01*
X-6506000Y-2241424D01*
X-6486315Y-2174385D01*
X-6469686Y-2153748D01*
X-5097249Y-781310D01*
X-5068840Y-765797D01*
X-5041116Y-749073D01*
X-5037436Y-748649D01*
X-5035928Y-747827D01*
X-5029800Y-747772D01*
X-5006053Y-745043D01*
X-4995620Y-745339D01*
G37*
%TD.AperFunction*%
%TD*%
M02*
