<?xml version="1.0" standalone="no"?>
 <!DOCTYPE svg PUBLIC "-//W3C//DTD SVG 1.1//EN" 
 "http://www.w3.org/Graphics/SVG/1.1/DTD/svg11.dtd"> 
<svg
  xmlns:svg="http://www.w3.org/2000/svg"
  xmlns="http://www.w3.org/2000/svg"
  xmlns:xlink="http://www.w3.org/1999/xlink"
  version="1.1"
  width="59.9948mm" height="79.9846mm" viewBox="0.0000 0.0000 59.9948 79.9846">
<title>SVG Image created as FES_AO4882_pcb.svg date 2024/03/30 22:02:46 </title>
  <desc>Image generated by PCBNEW </desc>
<g style="fill:#000000; fill-opacity:1.0000;stroke:#000000; stroke-opacity:1.0000;
stroke-linecap:round; stroke-linejoin:round;"
 transform="translate(0 0) scale(1 1)">
</g>
<g style="fill:none; 
stroke:#000000; stroke-width:0.1500; stroke-opacity:1; 
stroke-linecap:round; stroke-linejoin:round;">
<path d="M12.0110 47.4978
L48.0110 47.4978
L48.0110 67.9978
L12.0110 67.9978
L12.0110 47.4978
" />
</g>
<g style="fill:none; 
stroke:#000000; stroke-width:0.1500; stroke-opacity:1; 
stroke-linecap:round; stroke-linejoin:round;">
<path d="M10.0000 10.0000
L50.0000 10.0000
L50.0000 70.0000
L10.0000 70.0000
L10.0000 10.0000
" />
</g>
<g style="fill:none; 
stroke:#000000; stroke-width:0.1500; stroke-opacity:1; 
stroke-linecap:round; stroke-linejoin:round;">
<path d="M12.0000 12.0000
L48.0000 12.0000
L48.0000 68.0000
L12.0000 68.0000
L12.0000 12.0000
" />
</g>
<g style="fill:none; 
stroke:#000000; stroke-width:0.1500; stroke-opacity:1; 
stroke-linecap:round; stroke-linejoin:round;">
<path d="M60.0000 12.0000
L60.0000 10.0000
" />
</g>
<g style="fill:none; 
stroke:#000000; stroke-width:0.1500; stroke-opacity:1; 
stroke-linecap:round; stroke-linejoin:round;">
<text x="35.0000" y="11.6500"
textLength="1.4281" font-size="1.7333" lengthAdjust="spacingAndGlyphs"
text-anchor="start" opacity="0">1</text>
<g class="stroked-text"><desc>1</desc>
<path d="M36.0892 11.5936
L35.3463 11.5936
" />
<path d="M35.7177 11.5936
L35.7177 10.2936
" />
<path d="M35.7177 10.2936
L35.5939 10.4793
" />
<path d="M35.5939 10.4793
L35.4701 10.6031
" />
<path d="M35.4701 10.6031
L35.3463 10.6650
" />
</g></g>
<g style="fill:none; 
stroke:#000000; stroke-width:0.1500; stroke-opacity:1; 
stroke-linecap:round; stroke-linejoin:round;">
<path d="M60.0000 68.0000
L60.0000 70.0000
" />
</g>
<g style="fill:none; 
stroke:#000000; stroke-width:0.1500; stroke-opacity:1; 
stroke-linecap:round; stroke-linejoin:round;">
<text x="35.0000" y="69.6500"
textLength="1.4281" font-size="1.7333" lengthAdjust="spacingAndGlyphs"
text-anchor="start" opacity="0">1</text>
<g class="stroked-text"><desc>1</desc>
<path d="M36.0892 69.5936
L35.3463 69.5936
" />
<path d="M35.7177 69.5936
L35.7177 68.2936
" />
<path d="M35.7177 68.2936
L35.5939 68.4793
" />
<path d="M35.5939 68.4793
L35.4701 68.6031
" />
<path d="M35.4701 68.6031
L35.3463 68.6650
" />
</g></g>
<g style="fill:none; 
stroke:#000000; stroke-width:0.1500; stroke-opacity:1; 
stroke-linecap:round; stroke-linejoin:round;">
<path d="M10.0000 60.0000
L12.0000 60.0000
" />
</g>
<g style="fill:none; 
stroke:#000000; stroke-width:0.1500; stroke-opacity:1; 
stroke-linecap:round; stroke-linejoin:round;">
<text x="11.0000" y="35.6500"
textLength="1.3043" font-size="1.7333" lengthAdjust="spacingAndGlyphs"
text-anchor="middle" opacity="0">A</text>
<g class="stroked-text"><desc>A</desc>
<path d="M10.6905 35.2222
L11.3095 35.2222
" />
<path d="M10.5667 35.5936
L11.0000 34.2936
" />
<path d="M11.0000 34.2936
L11.4333 35.5936
" />
</g></g>
<g style="fill:none; 
stroke:#000000; stroke-width:0.1500; stroke-opacity:1; 
stroke-linecap:round; stroke-linejoin:round;">
<path d="M50.0000 60.0000
L48.0000 60.0000
" />
</g>
<g style="fill:none; 
stroke:#000000; stroke-width:0.1500; stroke-opacity:1; 
stroke-linecap:round; stroke-linejoin:round;">
<text x="49.0000" y="35.6500"
textLength="1.3043" font-size="1.7333" lengthAdjust="spacingAndGlyphs"
text-anchor="middle" opacity="0">A</text>
<g class="stroked-text"><desc>A</desc>
<path d="M48.6905 35.2222
L49.3095 35.2222
" />
<path d="M48.5667 35.5936
L49.0000 34.2936
" />
<path d="M49.0000 34.2936
L49.4333 35.5936
" />
</g></g>
<g style="fill:none; 
stroke:#000000; stroke-width:0.1500; stroke-opacity:1; 
stroke-linecap:round; stroke-linejoin:round;">
<text x="12.5000" y="67.3498"
textLength="22.1500" font-size="2.0000" lengthAdjust="spacingAndGlyphs"
text-anchor="start" opacity="0">Date: 2024-03-30</text>
<g class="stroked-text"><desc>Date: 2024-03-30</desc>
<path d="M12.9558 67.2859
L12.9558 65.7859
" />
<path d="M12.9558 65.7859
L13.3130 65.7859
" />
<path d="M13.3130 65.7859
L13.5273 65.8574
" />
<path d="M13.5273 65.8574
L13.6701 66.0002
" />
<path d="M13.6701 66.0002
L13.7415 66.1431
" />
<path d="M13.7415 66.1431
L13.8130 66.4288
" />
<path d="M13.8130 66.4288
L13.8130 66.6431
" />
<path d="M13.8130 66.6431
L13.7415 66.9288
" />
<path d="M13.7415 66.9288
L13.6701 67.0716
" />
<path d="M13.6701 67.0716
L13.5273 67.2145
" />
<path d="M13.5273 67.2145
L13.3130 67.2859
" />
<path d="M13.3130 67.2859
L12.9558 67.2859
" />
<path d="M15.0987 67.2859
L15.0987 66.5002
" />
<path d="M15.0987 66.5002
L15.0273 66.3574
" />
<path d="M15.0273 66.3574
L14.8844 66.2859
" />
<path d="M14.8844 66.2859
L14.5987 66.2859
" />
<path d="M14.5987 66.2859
L14.4558 66.3574
" />
<path d="M15.0987 67.2145
L14.9558 67.2859
" />
<path d="M14.9558 67.2859
L14.5987 67.2859
" />
<path d="M14.5987 67.2859
L14.4558 67.2145
" />
<path d="M14.4558 67.2145
L14.3844 67.0716
" />
<path d="M14.3844 67.0716
L14.3844 66.9288
" />
<path d="M14.3844 66.9288
L14.4558 66.7859
" />
<path d="M14.4558 66.7859
L14.5987 66.7145
" />
<path d="M14.5987 66.7145
L14.9558 66.7145
" />
<path d="M14.9558 66.7145
L15.0987 66.6431
" />
<path d="M15.5987 66.2859
L16.1701 66.2859
" />
<path d="M15.8130 65.7859
L15.8130 67.0716
" />
<path d="M15.8130 67.0716
L15.8844 67.2145
" />
<path d="M15.8844 67.2145
L16.0273 67.2859
" />
<path d="M16.0273 67.2859
L16.1701 67.2859
" />
<path d="M17.2415 67.2145
L17.0987 67.2859
" />
<path d="M17.0987 67.2859
L16.8130 67.2859
" />
<path d="M16.8130 67.2859
L16.6701 67.2145
" />
<path d="M16.6701 67.2145
L16.5987 67.0716
" />
<path d="M16.5987 67.0716
L16.5987 66.5002
" />
<path d="M16.5987 66.5002
L16.6701 66.3574
" />
<path d="M16.6701 66.3574
L16.8130 66.2859
" />
<path d="M16.8130 66.2859
L17.0987 66.2859
" />
<path d="M17.0987 66.2859
L17.2415 66.3574
" />
<path d="M17.2415 66.3574
L17.3130 66.5002
" />
<path d="M17.3130 66.5002
L17.3130 66.6431
" />
<path d="M17.3130 66.6431
L16.5987 66.7859
" />
<path d="M17.9558 67.1431
L18.0273 67.2145
" />
<path d="M18.0273 67.2145
L17.9558 67.2859
" />
<path d="M17.9558 67.2859
L17.8844 67.2145
" />
<path d="M17.8844 67.2145
L17.9558 67.1431
" />
<path d="M17.9558 67.1431
L17.9558 67.2859
" />
<path d="M17.9558 66.3574
L18.0273 66.4288
" />
<path d="M18.0273 66.4288
L17.9558 66.5002
" />
<path d="M17.9558 66.5002
L17.8844 66.4288
" />
<path d="M17.8844 66.4288
L17.9558 66.3574
" />
<path d="M17.9558 66.3574
L17.9558 66.5002
" />
<path d="M19.7415 65.9288
L19.8130 65.8574
" />
<path d="M19.8130 65.8574
L19.9558 65.7859
" />
<path d="M19.9558 65.7859
L20.3130 65.7859
" />
<path d="M20.3130 65.7859
L20.4558 65.8574
" />
<path d="M20.4558 65.8574
L20.5273 65.9288
" />
<path d="M20.5273 65.9288
L20.5987 66.0716
" />
<path d="M20.5987 66.0716
L20.5987 66.2145
" />
<path d="M20.5987 66.2145
L20.5273 66.4288
" />
<path d="M20.5273 66.4288
L19.6701 67.2859
" />
<path d="M19.6701 67.2859
L20.5987 67.2859
" />
<path d="M21.5273 65.7859
L21.6701 65.7859
" />
<path d="M21.6701 65.7859
L21.8130 65.8574
" />
<path d="M21.8130 65.8574
L21.8844 65.9288
" />
<path d="M21.8844 65.9288
L21.9558 66.0716
" />
<path d="M21.9558 66.0716
L22.0273 66.3574
" />
<path d="M22.0273 66.3574
L22.0273 66.7145
" />
<path d="M22.0273 66.7145
L21.9558 67.0002
" />
<path d="M21.9558 67.0002
L21.8844 67.1431
" />
<path d="M21.8844 67.1431
L21.8130 67.2145
" />
<path d="M21.8130 67.2145
L21.6701 67.2859
" />
<path d="M21.6701 67.2859
L21.5273 67.2859
" />
<path d="M21.5273 67.2859
L21.3844 67.2145
" />
<path d="M21.3844 67.2145
L21.3130 67.1431
" />
<path d="M21.3130 67.1431
L21.2415 67.0002
" />
<path d="M21.2415 67.0002
L21.1701 66.7145
" />
<path d="M21.1701 66.7145
L21.1701 66.3574
" />
<path d="M21.1701 66.3574
L21.2415 66.0716
" />
<path d="M21.2415 66.0716
L21.3130 65.9288
" />
<path d="M21.3130 65.9288
L21.3844 65.8574
" />
<path d="M21.3844 65.8574
L21.5273 65.7859
" />
<path d="M22.5987 65.9288
L22.6701 65.8574
" />
<path d="M22.6701 65.8574
L22.8130 65.7859
" />
<path d="M22.8130 65.7859
L23.1701 65.7859
" />
<path d="M23.1701 65.7859
L23.3130 65.8574
" />
<path d="M23.3130 65.8574
L23.3844 65.9288
" />
<path d="M23.3844 65.9288
L23.4558 66.0716
" />
<path d="M23.4558 66.0716
L23.4558 66.2145
" />
<path d="M23.4558 66.2145
L23.3844 66.4288
" />
<path d="M23.3844 66.4288
L22.5273 67.2859
" />
<path d="M22.5273 67.2859
L23.4558 67.2859
" />
<path d="M24.7415 66.2859
L24.7415 67.2859
" />
<path d="M24.3844 65.7145
L24.0273 66.7859
" />
<path d="M24.0273 66.7859
L24.9558 66.7859
" />
<path d="M25.5273 66.7145
L26.6701 66.7145
" />
<path d="M27.6701 65.7859
L27.8130 65.7859
" />
<path d="M27.8130 65.7859
L27.9558 65.8574
" />
<path d="M27.9558 65.8574
L28.0273 65.9288
" />
<path d="M28.0273 65.9288
L28.0987 66.0716
" />
<path d="M28.0987 66.0716
L28.1701 66.3574
" />
<path d="M28.1701 66.3574
L28.1701 66.7145
" />
<path d="M28.1701 66.7145
L28.0987 67.0002
" />
<path d="M28.0987 67.0002
L28.0273 67.1431
" />
<path d="M28.0273 67.1431
L27.9558 67.2145
" />
<path d="M27.9558 67.2145
L27.8130 67.2859
" />
<path d="M27.8130 67.2859
L27.6701 67.2859
" />
<path d="M27.6701 67.2859
L27.5273 67.2145
" />
<path d="M27.5273 67.2145
L27.4558 67.1431
" />
<path d="M27.4558 67.1431
L27.3844 67.0002
" />
<path d="M27.3844 67.0002
L27.3130 66.7145
" />
<path d="M27.3130 66.7145
L27.3130 66.3574
" />
<path d="M27.3130 66.3574
L27.3844 66.0716
" />
<path d="M27.3844 66.0716
L27.4558 65.9288
" />
<path d="M27.4558 65.9288
L27.5273 65.8574
" />
<path d="M27.5273 65.8574
L27.6701 65.7859
" />
<path d="M28.6701 65.7859
L29.5987 65.7859
" />
<path d="M29.5987 65.7859
L29.0987 66.3574
" />
<path d="M29.0987 66.3574
L29.3130 66.3574
" />
<path d="M29.3130 66.3574
L29.4558 66.4288
" />
<path d="M29.4558 66.4288
L29.5273 66.5002
" />
<path d="M29.5273 66.5002
L29.5987 66.6431
" />
<path d="M29.5987 66.6431
L29.5987 67.0002
" />
<path d="M29.5987 67.0002
L29.5273 67.1431
" />
<path d="M29.5273 67.1431
L29.4558 67.2145
" />
<path d="M29.4558 67.2145
L29.3130 67.2859
" />
<path d="M29.3130 67.2859
L28.8844 67.2859
" />
<path d="M28.8844 67.2859
L28.7415 67.2145
" />
<path d="M28.7415 67.2145
L28.6701 67.1431
" />
<path d="M30.2415 66.7145
L31.3844 66.7145
" />
<path d="M31.9558 65.7859
L32.8844 65.7859
" />
<path d="M32.8844 65.7859
L32.3844 66.3574
" />
<path d="M32.3844 66.3574
L32.5987 66.3574
" />
<path d="M32.5987 66.3574
L32.7415 66.4288
" />
<path d="M32.7415 66.4288
L32.8130 66.5002
" />
<path d="M32.8130 66.5002
L32.8844 66.6431
" />
<path d="M32.8844 66.6431
L32.8844 67.0002
" />
<path d="M32.8844 67.0002
L32.8130 67.1431
" />
<path d="M32.8130 67.1431
L32.7415 67.2145
" />
<path d="M32.7415 67.2145
L32.5987 67.2859
" />
<path d="M32.5987 67.2859
L32.1701 67.2859
" />
<path d="M32.1701 67.2859
L32.0273 67.2145
" />
<path d="M32.0273 67.2145
L31.9558 67.1431
" />
<path d="M33.8130 65.7859
L33.9558 65.7859
" />
<path d="M33.9558 65.7859
L34.0987 65.8574
" />
<path d="M34.0987 65.8574
L34.1701 65.9288
" />
<path d="M34.1701 65.9288
L34.2415 66.0716
" />
<path d="M34.2415 66.0716
L34.3130 66.3574
" />
<path d="M34.3130 66.3574
L34.3130 66.7145
" />
<path d="M34.3130 66.7145
L34.2415 67.0002
" />
<path d="M34.2415 67.0002
L34.1701 67.1431
" />
<path d="M34.1701 67.1431
L34.0987 67.2145
" />
<path d="M34.0987 67.2145
L33.9558 67.2859
" />
<path d="M33.9558 67.2859
L33.8130 67.2859
" />
<path d="M33.8130 67.2859
L33.6701 67.2145
" />
<path d="M33.6701 67.2145
L33.5987 67.1431
" />
<path d="M33.5987 67.1431
L33.5273 67.0002
" />
<path d="M33.5273 67.0002
L33.4558 66.7145
" />
<path d="M33.4558 66.7145
L33.4558 66.3574
" />
<path d="M33.4558 66.3574
L33.5273 66.0716
" />
<path d="M33.5273 66.0716
L33.5987 65.9288
" />
<path d="M33.5987 65.9288
L33.6701 65.8574
" />
<path d="M33.6701 65.8574
L33.8130 65.7859
" />
</g></g>
<g style="fill:none; 
stroke:#000000; stroke-width:0.1500; stroke-opacity:1; 
stroke-linecap:round; stroke-linejoin:round;">
<path d="M12.0110 64.4978
L48.0110 64.4978
" />
</g>
<g style="fill:none; 
stroke:#000000; stroke-width:0.1500; stroke-opacity:1; 
stroke-linecap:round; stroke-linejoin:round;">
<path d="M12.0110 61.4978
L48.0110 61.4978
" />
</g>
<g style="fill:none; 
stroke:#000000; stroke-width:0.3000; stroke-opacity:1; 
stroke-linecap:round; stroke-linejoin:round;">
<text x="37.5000" y="63.8500"
textLength="9.9571" font-size="2.0000" lengthAdjust="spacingAndGlyphs"
text-anchor="start" opacity="0">Rev:v1.0</text>
<g class="stroked-text"><desc>Rev:v1.0</desc>
<path d="M38.9117 63.7783
L38.4117 63.0640
" />
<path d="M38.0545 63.7783
L38.0545 62.2783
" />
<path d="M38.0545 62.2783
L38.6259 62.2783
" />
<path d="M38.6259 62.2783
L38.7688 62.3498
" />
<path d="M38.7688 62.3498
L38.8402 62.4212
" />
<path d="M38.8402 62.4212
L38.9117 62.5640
" />
<path d="M38.9117 62.5640
L38.9117 62.7783
" />
<path d="M38.9117 62.7783
L38.8402 62.9212
" />
<path d="M38.8402 62.9212
L38.7688 62.9926
" />
<path d="M38.7688 62.9926
L38.6259 63.0640
" />
<path d="M38.6259 63.0640
L38.0545 63.0640
" />
<path d="M40.1259 63.7069
L39.9831 63.7783
" />
<path d="M39.9831 63.7783
L39.6974 63.7783
" />
<path d="M39.6974 63.7783
L39.5545 63.7069
" />
<path d="M39.5545 63.7069
L39.4831 63.5640
" />
<path d="M39.4831 63.5640
L39.4831 62.9926
" />
<path d="M39.4831 62.9926
L39.5545 62.8498
" />
<path d="M39.5545 62.8498
L39.6974 62.7783
" />
<path d="M39.6974 62.7783
L39.9831 62.7783
" />
<path d="M39.9831 62.7783
L40.1259 62.8498
" />
<path d="M40.1259 62.8498
L40.1974 62.9926
" />
<path d="M40.1974 62.9926
L40.1974 63.1355
" />
<path d="M40.1974 63.1355
L39.4831 63.2783
" />
<path d="M40.6974 62.7783
L41.0545 63.7783
" />
<path d="M41.0545 63.7783
L41.4117 62.7783
" />
<path d="M41.9831 63.6355
L42.0545 63.7069
" />
<path d="M42.0545 63.7069
L41.9831 63.7783
" />
<path d="M41.9831 63.7783
L41.9117 63.7069
" />
<path d="M41.9117 63.7069
L41.9831 63.6355
" />
<path d="M41.9831 63.6355
L41.9831 63.7783
" />
<path d="M41.9831 62.8498
L42.0545 62.9212
" />
<path d="M42.0545 62.9212
L41.9831 62.9926
" />
<path d="M41.9831 62.9926
L41.9117 62.9212
" />
<path d="M41.9117 62.9212
L41.9831 62.8498
" />
<path d="M41.9831 62.8498
L41.9831 62.9926
" />
<path d="M42.5545 62.7783
L42.9117 63.7783
" />
<path d="M42.9117 63.7783
L43.2688 62.7783
" />
<path d="M44.6259 63.7783
L43.7688 63.7783
" />
<path d="M44.1974 63.7783
L44.1974 62.2783
" />
<path d="M44.1974 62.2783
L44.0545 62.4926
" />
<path d="M44.0545 62.4926
L43.9117 62.6355
" />
<path d="M43.9117 62.6355
L43.7688 62.7069
" />
<path d="M45.2688 63.6355
L45.3402 63.7069
" />
<path d="M45.3402 63.7069
L45.2688 63.7783
" />
<path d="M45.2688 63.7783
L45.1974 63.7069
" />
<path d="M45.1974 63.7069
L45.2688 63.6355
" />
<path d="M45.2688 63.6355
L45.2688 63.7783
" />
<path d="M46.2688 62.2783
L46.4117 62.2783
" />
<path d="M46.4117 62.2783
L46.5545 62.3498
" />
<path d="M46.5545 62.3498
L46.6259 62.4212
" />
<path d="M46.6259 62.4212
L46.6974 62.5640
" />
<path d="M46.6974 62.5640
L46.7688 62.8498
" />
<path d="M46.7688 62.8498
L46.7688 63.2069
" />
<path d="M46.7688 63.2069
L46.6974 63.4926
" />
<path d="M46.6974 63.4926
L46.6259 63.6355
" />
<path d="M46.6259 63.6355
L46.5545 63.7069
" />
<path d="M46.5545 63.7069
L46.4117 63.7783
" />
<path d="M46.4117 63.7783
L46.2688 63.7783
" />
<path d="M46.2688 63.7783
L46.1259 63.7069
" />
<path d="M46.1259 63.7069
L46.0545 63.6355
" />
<path d="M46.0545 63.6355
L45.9831 63.4926
" />
<path d="M45.9831 63.4926
L45.9117 63.2069
" />
<path d="M45.9117 63.2069
L45.9117 62.8498
" />
<path d="M45.9117 62.8498
L45.9831 62.5640
" />
<path d="M45.9831 62.5640
L46.0545 62.4212
" />
<path d="M46.0545 62.4212
L46.1259 62.3498
" />
<path d="M46.1259 62.3498
L46.2688 62.2783
" />
</g></g>
<g style="fill:none; 
stroke:#000000; stroke-width:0.1500; stroke-opacity:1; 
stroke-linecap:round; stroke-linejoin:round;">
<text x="12.5000" y="63.8498"
textLength="18.6500" font-size="2.0000" lengthAdjust="spacingAndGlyphs"
text-anchor="start" opacity="0">Author: Aightech</text>
<g class="stroked-text"><desc>Author: Aightech</desc>
<path d="M12.8844 63.3574
L13.5987 63.3574
" />
<path d="M12.7415 63.7859
L13.2415 62.2859
" />
<path d="M13.2415 62.2859
L13.7415 63.7859
" />
<path d="M14.8844 62.7859
L14.8844 63.7859
" />
<path d="M14.2415 62.7859
L14.2415 63.5716
" />
<path d="M14.2415 63.5716
L14.3130 63.7145
" />
<path d="M14.3130 63.7145
L14.4558 63.7859
" />
<path d="M14.4558 63.7859
L14.6701 63.7859
" />
<path d="M14.6701 63.7859
L14.8130 63.7145
" />
<path d="M14.8130 63.7145
L14.8844 63.6431
" />
<path d="M15.3844 62.7859
L15.9558 62.7859
" />
<path d="M15.5987 62.2859
L15.5987 63.5716
" />
<path d="M15.5987 63.5716
L15.6701 63.7145
" />
<path d="M15.6701 63.7145
L15.8130 63.7859
" />
<path d="M15.8130 63.7859
L15.9558 63.7859
" />
<path d="M16.4558 63.7859
L16.4558 62.2859
" />
<path d="M17.0987 63.7859
L17.0987 63.0002
" />
<path d="M17.0987 63.0002
L17.0273 62.8574
" />
<path d="M17.0273 62.8574
L16.8844 62.7859
" />
<path d="M16.8844 62.7859
L16.6701 62.7859
" />
<path d="M16.6701 62.7859
L16.5273 62.8574
" />
<path d="M16.5273 62.8574
L16.4558 62.9288
" />
<path d="M18.0273 63.7859
L17.8844 63.7145
" />
<path d="M17.8844 63.7145
L17.8130 63.6431
" />
<path d="M17.8130 63.6431
L17.7415 63.5002
" />
<path d="M17.7415 63.5002
L17.7415 63.0716
" />
<path d="M17.7415 63.0716
L17.8130 62.9288
" />
<path d="M17.8130 62.9288
L17.8844 62.8574
" />
<path d="M17.8844 62.8574
L18.0273 62.7859
" />
<path d="M18.0273 62.7859
L18.2415 62.7859
" />
<path d="M18.2415 62.7859
L18.3844 62.8574
" />
<path d="M18.3844 62.8574
L18.4558 62.9288
" />
<path d="M18.4558 62.9288
L18.5273 63.0716
" />
<path d="M18.5273 63.0716
L18.5273 63.5002
" />
<path d="M18.5273 63.5002
L18.4558 63.6431
" />
<path d="M18.4558 63.6431
L18.3844 63.7145
" />
<path d="M18.3844 63.7145
L18.2415 63.7859
" />
<path d="M18.2415 63.7859
L18.0273 63.7859
" />
<path d="M19.1701 63.7859
L19.1701 62.7859
" />
<path d="M19.1701 63.0716
L19.2415 62.9288
" />
<path d="M19.2415 62.9288
L19.3130 62.8574
" />
<path d="M19.3130 62.8574
L19.4558 62.7859
" />
<path d="M19.4558 62.7859
L19.5987 62.7859
" />
<path d="M20.0987 63.6431
L20.1701 63.7145
" />
<path d="M20.1701 63.7145
L20.0987 63.7859
" />
<path d="M20.0987 63.7859
L20.0273 63.7145
" />
<path d="M20.0273 63.7145
L20.0987 63.6431
" />
<path d="M20.0987 63.6431
L20.0987 63.7859
" />
<path d="M20.0987 62.8574
L20.1701 62.9288
" />
<path d="M20.1701 62.9288
L20.0987 63.0002
" />
<path d="M20.0987 63.0002
L20.0273 62.9288
" />
<path d="M20.0273 62.9288
L20.0987 62.8574
" />
<path d="M20.0987 62.8574
L20.0987 63.0002
" />
<path d="M21.8844 63.3574
L22.5987 63.3574
" />
<path d="M21.7415 63.7859
L22.2415 62.2859
" />
<path d="M22.2415 62.2859
L22.7415 63.7859
" />
<path d="M23.2415 63.7859
L23.2415 62.7859
" />
<path d="M23.2415 62.2859
L23.1701 62.3574
" />
<path d="M23.1701 62.3574
L23.2415 62.4288
" />
<path d="M23.2415 62.4288
L23.3130 62.3574
" />
<path d="M23.3130 62.3574
L23.2415 62.2859
" />
<path d="M23.2415 62.2859
L23.2415 62.4288
" />
<path d="M24.5987 62.7859
L24.5987 64.0002
" />
<path d="M24.5987 64.0002
L24.5273 64.1431
" />
<path d="M24.5273 64.1431
L24.4558 64.2145
" />
<path d="M24.4558 64.2145
L24.3130 64.2859
" />
<path d="M24.3130 64.2859
L24.0987 64.2859
" />
<path d="M24.0987 64.2859
L23.9558 64.2145
" />
<path d="M24.5987 63.7145
L24.4558 63.7859
" />
<path d="M24.4558 63.7859
L24.1701 63.7859
" />
<path d="M24.1701 63.7859
L24.0273 63.7145
" />
<path d="M24.0273 63.7145
L23.9558 63.6431
" />
<path d="M23.9558 63.6431
L23.8844 63.5002
" />
<path d="M23.8844 63.5002
L23.8844 63.0716
" />
<path d="M23.8844 63.0716
L23.9558 62.9288
" />
<path d="M23.9558 62.9288
L24.0273 62.8574
" />
<path d="M24.0273 62.8574
L24.1701 62.7859
" />
<path d="M24.1701 62.7859
L24.4558 62.7859
" />
<path d="M24.4558 62.7859
L24.5987 62.8574
" />
<path d="M25.3130 63.7859
L25.3130 62.2859
" />
<path d="M25.9558 63.7859
L25.9558 63.0002
" />
<path d="M25.9558 63.0002
L25.8844 62.8574
" />
<path d="M25.8844 62.8574
L25.7415 62.7859
" />
<path d="M25.7415 62.7859
L25.5273 62.7859
" />
<path d="M25.5273 62.7859
L25.3844 62.8574
" />
<path d="M25.3844 62.8574
L25.3130 62.9288
" />
<path d="M26.4558 62.7859
L27.0273 62.7859
" />
<path d="M26.6701 62.2859
L26.6701 63.5716
" />
<path d="M26.6701 63.5716
L26.7415 63.7145
" />
<path d="M26.7415 63.7145
L26.8844 63.7859
" />
<path d="M26.8844 63.7859
L27.0273 63.7859
" />
<path d="M28.0987 63.7145
L27.9558 63.7859
" />
<path d="M27.9558 63.7859
L27.6701 63.7859
" />
<path d="M27.6701 63.7859
L27.5273 63.7145
" />
<path d="M27.5273 63.7145
L27.4558 63.5716
" />
<path d="M27.4558 63.5716
L27.4558 63.0002
" />
<path d="M27.4558 63.0002
L27.5273 62.8574
" />
<path d="M27.5273 62.8574
L27.6701 62.7859
" />
<path d="M27.6701 62.7859
L27.9558 62.7859
" />
<path d="M27.9558 62.7859
L28.0987 62.8574
" />
<path d="M28.0987 62.8574
L28.1701 63.0002
" />
<path d="M28.1701 63.0002
L28.1701 63.1431
" />
<path d="M28.1701 63.1431
L27.4558 63.2859
" />
<path d="M29.4558 63.7145
L29.3130 63.7859
" />
<path d="M29.3130 63.7859
L29.0273 63.7859
" />
<path d="M29.0273 63.7859
L28.8844 63.7145
" />
<path d="M28.8844 63.7145
L28.8130 63.6431
" />
<path d="M28.8130 63.6431
L28.7415 63.5002
" />
<path d="M28.7415 63.5002
L28.7415 63.0716
" />
<path d="M28.7415 63.0716
L28.8130 62.9288
" />
<path d="M28.8130 62.9288
L28.8844 62.8574
" />
<path d="M28.8844 62.8574
L29.0273 62.7859
" />
<path d="M29.0273 62.7859
L29.3130 62.7859
" />
<path d="M29.3130 62.7859
L29.4558 62.8574
" />
<path d="M30.0987 63.7859
L30.0987 62.2859
" />
<path d="M30.7415 63.7859
L30.7415 63.0002
" />
<path d="M30.7415 63.0002
L30.6701 62.8574
" />
<path d="M30.6701 62.8574
L30.5273 62.7859
" />
<path d="M30.5273 62.7859
L30.3130 62.7859
" />
<path d="M30.3130 62.7859
L30.1701 62.8574
" />
<path d="M30.1701 62.8574
L30.0987 62.9288
" />
</g></g>
<g style="fill:none; 
stroke:#000000; stroke-width:0.1500; stroke-opacity:1; 
stroke-linecap:round; stroke-linejoin:round;">
<text x="37.5000" y="67.1498"
textLength="8.5071" font-size="2.0000" lengthAdjust="spacingAndGlyphs"
text-anchor="start" opacity="0">Id: 1/1</text>
<g class="stroked-text"><desc>Id: 1/1</desc>
<path d="M37.9558 67.0859
L37.9558 65.5859
" />
<path d="M39.3130 67.0859
L39.3130 65.5859
" />
<path d="M39.3130 67.0145
L39.1701 67.0859
" />
<path d="M39.1701 67.0859
L38.8844 67.0859
" />
<path d="M38.8844 67.0859
L38.7415 67.0145
" />
<path d="M38.7415 67.0145
L38.6701 66.9431
" />
<path d="M38.6701 66.9431
L38.5987 66.8002
" />
<path d="M38.5987 66.8002
L38.5987 66.3716
" />
<path d="M38.5987 66.3716
L38.6701 66.2288
" />
<path d="M38.6701 66.2288
L38.7415 66.1574
" />
<path d="M38.7415 66.1574
L38.8844 66.0859
" />
<path d="M38.8844 66.0859
L39.1701 66.0859
" />
<path d="M39.1701 66.0859
L39.3130 66.1574
" />
<path d="M40.0273 66.9431
L40.0987 67.0145
" />
<path d="M40.0987 67.0145
L40.0273 67.0859
" />
<path d="M40.0273 67.0859
L39.9558 67.0145
" />
<path d="M39.9558 67.0145
L40.0273 66.9431
" />
<path d="M40.0273 66.9431
L40.0273 67.0859
" />
<path d="M40.0273 66.1574
L40.0987 66.2288
" />
<path d="M40.0987 66.2288
L40.0273 66.3002
" />
<path d="M40.0273 66.3002
L39.9558 66.2288
" />
<path d="M39.9558 66.2288
L40.0273 66.1574
" />
<path d="M40.0273 66.1574
L40.0273 66.3002
" />
<path d="M42.6701 67.0859
L41.8130 67.0859
" />
<path d="M42.2415 67.0859
L42.2415 65.5859
" />
<path d="M42.2415 65.5859
L42.0987 65.8002
" />
<path d="M42.0987 65.8002
L41.9558 65.9431
" />
<path d="M41.9558 65.9431
L41.8130 66.0145
" />
<path d="M44.3844 65.5145
L43.0987 67.4431
" />
<path d="M45.6701 67.0859
L44.8130 67.0859
" />
<path d="M45.2415 67.0859
L45.2415 65.5859
" />
<path d="M45.2415 65.5859
L45.0987 65.8002
" />
<path d="M45.0987 65.8002
L44.9558 65.9431
" />
<path d="M44.9558 65.9431
L44.8130 66.0145
" />
</g></g>
<g style="fill:none; 
stroke:#000000; stroke-width:0.1500; stroke-opacity:1; 
stroke-linecap:round; stroke-linejoin:round;">
<path d="M12.0110 57.4978
L48.0110 57.4978
" />
</g>
<g style="fill:none; 
stroke:#000000; stroke-width:0.4000; stroke-opacity:1; 
stroke-linecap:round; stroke-linejoin:round;">
<text x="12.5000" y="60.2998"
textLength="28.0381" font-size="2.6667" lengthAdjust="spacingAndGlyphs"
text-anchor="start" opacity="0">Title: FES AO4882</text>
<g class="stroked-text"><desc>Title: FES AO4882</desc>
<path d="M13.1917 58.2042
L14.3346 58.2042
" />
<path d="M13.5132 60.2042
L13.7632 58.2042
" />
<path d="M14.7513 60.2042
L14.9179 58.8709
" />
<path d="M15.0013 58.2042
L14.8941 58.2995
" />
<path d="M14.8941 58.2995
L14.9774 58.3947
" />
<path d="M14.9774 58.3947
L15.0846 58.2995
" />
<path d="M15.0846 58.2995
L15.0013 58.2042
" />
<path d="M15.0013 58.2042
L14.9774 58.3947
" />
<path d="M15.5846 58.8709
L16.3465 58.8709
" />
<path d="M15.9536 58.2042
L15.7393 59.9185
" />
<path d="M15.7393 59.9185
L15.8108 60.1090
" />
<path d="M15.8108 60.1090
L15.9893 60.2042
" />
<path d="M15.9893 60.2042
L16.1798 60.2042
" />
<path d="M17.1322 60.2042
L16.9536 60.1090
" />
<path d="M16.9536 60.1090
L16.8822 59.9185
" />
<path d="M16.8822 59.9185
L17.0965 58.2042
" />
<path d="M18.6679 60.1090
L18.4655 60.2042
" />
<path d="M18.4655 60.2042
L18.0846 60.2042
" />
<path d="M18.0846 60.2042
L17.9060 60.1090
" />
<path d="M17.9060 60.1090
L17.8346 59.9185
" />
<path d="M17.8346 59.9185
L17.9298 59.1566
" />
<path d="M17.9298 59.1566
L18.0489 58.9661
" />
<path d="M18.0489 58.9661
L18.2513 58.8709
" />
<path d="M18.2513 58.8709
L18.6322 58.8709
" />
<path d="M18.6322 58.8709
L18.8108 58.9661
" />
<path d="M18.8108 58.9661
L18.8822 59.1566
" />
<path d="M18.8822 59.1566
L18.8584 59.3471
" />
<path d="M18.8584 59.3471
L17.8822 59.5376
" />
<path d="M19.6322 60.0138
L19.7155 60.1090
" />
<path d="M19.7155 60.1090
L19.6084 60.2042
" />
<path d="M19.6084 60.2042
L19.5251 60.1090
" />
<path d="M19.5251 60.1090
L19.6322 60.0138
" />
<path d="M19.6322 60.0138
L19.6084 60.2042
" />
<path d="M19.7632 58.9661
L19.8465 59.0614
" />
<path d="M19.8465 59.0614
L19.7393 59.1566
" />
<path d="M19.7393 59.1566
L19.6560 59.0614
" />
<path d="M19.6560 59.0614
L19.7632 58.9661
" />
<path d="M19.7632 58.9661
L19.7393 59.1566
" />
<path d="M22.8822 59.1566
L22.2155 59.1566
" />
<path d="M22.0846 60.2042
L22.3346 58.2042
" />
<path d="M22.3346 58.2042
L23.2870 58.2042
" />
<path d="M23.9298 59.1566
L24.5965 59.1566
" />
<path d="M24.7513 60.2042
L23.7989 60.2042
" />
<path d="M23.7989 60.2042
L24.0489 58.2042
" />
<path d="M24.0489 58.2042
L25.0013 58.2042
" />
<path d="M25.5251 60.1090
L25.7989 60.2042
" />
<path d="M25.7989 60.2042
L26.2751 60.2042
" />
<path d="M26.2751 60.2042
L26.4774 60.1090
" />
<path d="M26.4774 60.1090
L26.5846 60.0138
" />
<path d="M26.5846 60.0138
L26.7036 59.8233
" />
<path d="M26.7036 59.8233
L26.7274 59.6328
" />
<path d="M26.7274 59.6328
L26.6560 59.4423
" />
<path d="M26.6560 59.4423
L26.5727 59.3471
" />
<path d="M26.5727 59.3471
L26.3941 59.2519
" />
<path d="M26.3941 59.2519
L26.0251 59.1566
" />
<path d="M26.0251 59.1566
L25.8465 59.0614
" />
<path d="M25.8465 59.0614
L25.7632 58.9661
" />
<path d="M25.7632 58.9661
L25.6917 58.7757
" />
<path d="M25.6917 58.7757
L25.7155 58.5852
" />
<path d="M25.7155 58.5852
L25.8346 58.3947
" />
<path d="M25.8346 58.3947
L25.9417 58.2995
" />
<path d="M25.9417 58.2995
L26.1441 58.2042
" />
<path d="M26.1441 58.2042
L26.6203 58.2042
" />
<path d="M26.6203 58.2042
L26.8941 58.2995
" />
<path d="M29.0132 59.6328
L29.9655 59.6328
" />
<path d="M28.7513 60.2042
L29.6679 58.2042
" />
<path d="M29.6679 58.2042
L30.0846 60.2042
" />
<path d="M31.3822 58.2042
L31.7632 58.2042
" />
<path d="M31.7632 58.2042
L31.9417 58.2995
" />
<path d="M31.9417 58.2995
L32.1084 58.4900
" />
<path d="M32.1084 58.4900
L32.1560 58.8709
" />
<path d="M32.1560 58.8709
L32.0727 59.5376
" />
<path d="M32.0727 59.5376
L31.9298 59.9185
" />
<path d="M31.9298 59.9185
L31.7155 60.1090
" />
<path d="M31.7155 60.1090
L31.5132 60.2042
" />
<path d="M31.5132 60.2042
L31.1322 60.2042
" />
<path d="M31.1322 60.2042
L30.9536 60.1090
" />
<path d="M30.9536 60.1090
L30.7870 59.9185
" />
<path d="M30.7870 59.9185
L30.7393 59.5376
" />
<path d="M30.7393 59.5376
L30.8227 58.8709
" />
<path d="M30.8227 58.8709
L30.9655 58.4900
" />
<path d="M30.9655 58.4900
L31.1798 58.2995
" />
<path d="M31.1798 58.2995
L31.3822 58.2042
" />
<path d="M33.8703 58.8709
L33.7036 60.2042
" />
<path d="M33.4893 58.1090
L32.8346 59.5376
" />
<path d="M32.8346 59.5376
L34.0727 59.5376
" />
<path d="M35.1798 59.0614
L35.0013 58.9661
" />
<path d="M35.0013 58.9661
L34.9179 58.8709
" />
<path d="M34.9179 58.8709
L34.8465 58.6804
" />
<path d="M34.8465 58.6804
L34.8584 58.5852
" />
<path d="M34.8584 58.5852
L34.9774 58.3947
" />
<path d="M34.9774 58.3947
L35.0846 58.2995
" />
<path d="M35.0846 58.2995
L35.2870 58.2042
" />
<path d="M35.2870 58.2042
L35.6679 58.2042
" />
<path d="M35.6679 58.2042
L35.8465 58.2995
" />
<path d="M35.8465 58.2995
L35.9298 58.3947
" />
<path d="M35.9298 58.3947
L36.0013 58.5852
" />
<path d="M36.0013 58.5852
L35.9893 58.6804
" />
<path d="M35.9893 58.6804
L35.8703 58.8709
" />
<path d="M35.8703 58.8709
L35.7632 58.9661
" />
<path d="M35.7632 58.9661
L35.5608 59.0614
" />
<path d="M35.5608 59.0614
L35.1798 59.0614
" />
<path d="M35.1798 59.0614
L34.9774 59.1566
" />
<path d="M34.9774 59.1566
L34.8703 59.2519
" />
<path d="M34.8703 59.2519
L34.7513 59.4423
" />
<path d="M34.7513 59.4423
L34.7036 59.8233
" />
<path d="M34.7036 59.8233
L34.7751 60.0138
" />
<path d="M34.7751 60.0138
L34.8584 60.1090
" />
<path d="M34.8584 60.1090
L35.0370 60.2042
" />
<path d="M35.0370 60.2042
L35.4179 60.2042
" />
<path d="M35.4179 60.2042
L35.6203 60.1090
" />
<path d="M35.6203 60.1090
L35.7274 60.0138
" />
<path d="M35.7274 60.0138
L35.8465 59.8233
" />
<path d="M35.8465 59.8233
L35.8941 59.4423
" />
<path d="M35.8941 59.4423
L35.8227 59.2519
" />
<path d="M35.8227 59.2519
L35.7393 59.1566
" />
<path d="M35.7393 59.1566
L35.5608 59.0614
" />
<path d="M37.0846 59.0614
L36.9060 58.9661
" />
<path d="M36.9060 58.9661
L36.8227 58.8709
" />
<path d="M36.8227 58.8709
L36.7513 58.6804
" />
<path d="M36.7513 58.6804
L36.7632 58.5852
" />
<path d="M36.7632 58.5852
L36.8822 58.3947
" />
<path d="M36.8822 58.3947
L36.9894 58.2995
" />
<path d="M36.9894 58.2995
L37.1917 58.2042
" />
<path d="M37.1917 58.2042
L37.5727 58.2042
" />
<path d="M37.5727 58.2042
L37.7513 58.2995
" />
<path d="M37.7513 58.2995
L37.8346 58.3947
" />
<path d="M37.8346 58.3947
L37.9060 58.5852
" />
<path d="M37.9060 58.5852
L37.8941 58.6804
" />
<path d="M37.8941 58.6804
L37.7751 58.8709
" />
<path d="M37.7751 58.8709
L37.6679 58.9661
" />
<path d="M37.6679 58.9661
L37.4655 59.0614
" />
<path d="M37.4655 59.0614
L37.0846 59.0614
" />
<path d="M37.0846 59.0614
L36.8822 59.1566
" />
<path d="M36.8822 59.1566
L36.7751 59.2519
" />
<path d="M36.7751 59.2519
L36.6560 59.4423
" />
<path d="M36.6560 59.4423
L36.6084 59.8233
" />
<path d="M36.6084 59.8233
L36.6798 60.0138
" />
<path d="M36.6798 60.0138
L36.7632 60.1090
" />
<path d="M36.7632 60.1090
L36.9417 60.2042
" />
<path d="M36.9417 60.2042
L37.3227 60.2042
" />
<path d="M37.3227 60.2042
L37.5251 60.1090
" />
<path d="M37.5251 60.1090
L37.6322 60.0138
" />
<path d="M37.6322 60.0138
L37.7513 59.8233
" />
<path d="M37.7513 59.8233
L37.7989 59.4423
" />
<path d="M37.7989 59.4423
L37.7274 59.2519
" />
<path d="M37.7274 59.2519
L37.6441 59.1566
" />
<path d="M37.6441 59.1566
L37.4655 59.0614
" />
<path d="M38.6917 58.3947
L38.7989 58.2995
" />
<path d="M38.7989 58.2995
L39.0013 58.2042
" />
<path d="M39.0013 58.2042
L39.4774 58.2042
" />
<path d="M39.4774 58.2042
L39.6560 58.2995
" />
<path d="M39.6560 58.2995
L39.7394 58.3947
" />
<path d="M39.7394 58.3947
L39.8108 58.5852
" />
<path d="M39.8108 58.5852
L39.7870 58.7757
" />
<path d="M39.7870 58.7757
L39.6560 59.0614
" />
<path d="M39.6560 59.0614
L38.3703 60.2042
" />
<path d="M38.3703 60.2042
L39.6084 60.2042
" />
</g></g>
<g style="fill:none; 
stroke:#000000; stroke-width:0.1500; stroke-opacity:1; 
stroke-linecap:round; stroke-linejoin:round;">
<text x="12.5000" y="52.4498"
textLength="31.6500" font-size="2.0000" lengthAdjust="spacingAndGlyphs"
text-anchor="start" opacity="0">File: FES_AO4882.kicad_pcb</text>
<g class="stroked-text"><desc>File: FES_AO4882.kicad_pcb</desc>
<path d="M13.4558 51.6002
L12.9558 51.6002
" />
<path d="M12.9558 52.3859
L12.9558 50.8859
" />
<path d="M12.9558 50.8859
L13.6701 50.8859
" />
<path d="M14.2415 52.3859
L14.2415 51.3859
" />
<path d="M14.2415 50.8859
L14.1701 50.9574
" />
<path d="M14.1701 50.9574
L14.2415 51.0288
" />
<path d="M14.2415 51.0288
L14.3130 50.9574
" />
<path d="M14.3130 50.9574
L14.2415 50.8859
" />
<path d="M14.2415 50.8859
L14.2415 51.0288
" />
<path d="M15.1701 52.3859
L15.0273 52.3145
" />
<path d="M15.0273 52.3145
L14.9558 52.1716
" />
<path d="M14.9558 52.1716
L14.9558 50.8859
" />
<path d="M16.3130 52.3145
L16.1701 52.3859
" />
<path d="M16.1701 52.3859
L15.8844 52.3859
" />
<path d="M15.8844 52.3859
L15.7415 52.3145
" />
<path d="M15.7415 52.3145
L15.6701 52.1716
" />
<path d="M15.6701 52.1716
L15.6701 51.6002
" />
<path d="M15.6701 51.6002
L15.7415 51.4574
" />
<path d="M15.7415 51.4574
L15.8844 51.3859
" />
<path d="M15.8844 51.3859
L16.1701 51.3859
" />
<path d="M16.1701 51.3859
L16.3130 51.4574
" />
<path d="M16.3130 51.4574
L16.3844 51.6002
" />
<path d="M16.3844 51.6002
L16.3844 51.7431
" />
<path d="M16.3844 51.7431
L15.6701 51.8859
" />
<path d="M17.0273 52.2431
L17.0987 52.3145
" />
<path d="M17.0987 52.3145
L17.0273 52.3859
" />
<path d="M17.0273 52.3859
L16.9558 52.3145
" />
<path d="M16.9558 52.3145
L17.0273 52.2431
" />
<path d="M17.0273 52.2431
L17.0273 52.3859
" />
<path d="M17.0273 51.4574
L17.0987 51.5288
" />
<path d="M17.0987 51.5288
L17.0273 51.6002
" />
<path d="M17.0273 51.6002
L16.9558 51.5288
" />
<path d="M16.9558 51.5288
L17.0273 51.4574
" />
<path d="M17.0273 51.4574
L17.0273 51.6002
" />
<path d="M19.3844 51.6002
L18.8844 51.6002
" />
<path d="M18.8844 52.3859
L18.8844 50.8859
" />
<path d="M18.8844 50.8859
L19.5987 50.8859
" />
<path d="M20.1701 51.6002
L20.6701 51.6002
" />
<path d="M20.8844 52.3859
L20.1701 52.3859
" />
<path d="M20.1701 52.3859
L20.1701 50.8859
" />
<path d="M20.1701 50.8859
L20.8844 50.8859
" />
<path d="M21.4558 52.3145
L21.6701 52.3859
" />
<path d="M21.6701 52.3859
L22.0273 52.3859
" />
<path d="M22.0273 52.3859
L22.1701 52.3145
" />
<path d="M22.1701 52.3145
L22.2415 52.2431
" />
<path d="M22.2415 52.2431
L22.3130 52.1002
" />
<path d="M22.3130 52.1002
L22.3130 51.9574
" />
<path d="M22.3130 51.9574
L22.2415 51.8145
" />
<path d="M22.2415 51.8145
L22.1701 51.7431
" />
<path d="M22.1701 51.7431
L22.0273 51.6716
" />
<path d="M22.0273 51.6716
L21.7415 51.6002
" />
<path d="M21.7415 51.6002
L21.5987 51.5288
" />
<path d="M21.5987 51.5288
L21.5273 51.4574
" />
<path d="M21.5273 51.4574
L21.4558 51.3145
" />
<path d="M21.4558 51.3145
L21.4558 51.1716
" />
<path d="M21.4558 51.1716
L21.5273 51.0288
" />
<path d="M21.5273 51.0288
L21.5987 50.9574
" />
<path d="M21.5987 50.9574
L21.7415 50.8859
" />
<path d="M21.7415 50.8859
L22.0987 50.8859
" />
<path d="M22.0987 50.8859
L22.3130 50.9574
" />
<path d="M22.5987 52.5288
L23.7415 52.5288
" />
<path d="M24.0273 51.9574
L24.7415 51.9574
" />
<path d="M23.8844 52.3859
L24.3844 50.8859
" />
<path d="M24.3844 50.8859
L24.8844 52.3859
" />
<path d="M25.6701 50.8859
L25.9558 50.8859
" />
<path d="M25.9558 50.8859
L26.0987 50.9574
" />
<path d="M26.0987 50.9574
L26.2415 51.1002
" />
<path d="M26.2415 51.1002
L26.3130 51.3859
" />
<path d="M26.3130 51.3859
L26.3130 51.8859
" />
<path d="M26.3130 51.8859
L26.2415 52.1716
" />
<path d="M26.2415 52.1716
L26.0987 52.3145
" />
<path d="M26.0987 52.3145
L25.9558 52.3859
" />
<path d="M25.9558 52.3859
L25.6701 52.3859
" />
<path d="M25.6701 52.3859
L25.5273 52.3145
" />
<path d="M25.5273 52.3145
L25.3844 52.1716
" />
<path d="M25.3844 52.1716
L25.3130 51.8859
" />
<path d="M25.3130 51.8859
L25.3130 51.3859
" />
<path d="M25.3130 51.3859
L25.3844 51.1002
" />
<path d="M25.3844 51.1002
L25.5273 50.9574
" />
<path d="M25.5273 50.9574
L25.6701 50.8859
" />
<path d="M27.5987 51.3859
L27.5987 52.3859
" />
<path d="M27.2415 50.8145
L26.8844 51.8859
" />
<path d="M26.8844 51.8859
L27.8130 51.8859
" />
<path d="M28.5987 51.5288
L28.4558 51.4574
" />
<path d="M28.4558 51.4574
L28.3844 51.3859
" />
<path d="M28.3844 51.3859
L28.3130 51.2431
" />
<path d="M28.3130 51.2431
L28.3130 51.1716
" />
<path d="M28.3130 51.1716
L28.3844 51.0288
" />
<path d="M28.3844 51.0288
L28.4558 50.9574
" />
<path d="M28.4558 50.9574
L28.5987 50.8859
" />
<path d="M28.5987 50.8859
L28.8844 50.8859
" />
<path d="M28.8844 50.8859
L29.0273 50.9574
" />
<path d="M29.0273 50.9574
L29.0987 51.0288
" />
<path d="M29.0987 51.0288
L29.1701 51.1716
" />
<path d="M29.1701 51.1716
L29.1701 51.2431
" />
<path d="M29.1701 51.2431
L29.0987 51.3859
" />
<path d="M29.0987 51.3859
L29.0273 51.4574
" />
<path d="M29.0273 51.4574
L28.8844 51.5288
" />
<path d="M28.8844 51.5288
L28.5987 51.5288
" />
<path d="M28.5987 51.5288
L28.4558 51.6002
" />
<path d="M28.4558 51.6002
L28.3844 51.6716
" />
<path d="M28.3844 51.6716
L28.3130 51.8145
" />
<path d="M28.3130 51.8145
L28.3130 52.1002
" />
<path d="M28.3130 52.1002
L28.3844 52.2431
" />
<path d="M28.3844 52.2431
L28.4558 52.3145
" />
<path d="M28.4558 52.3145
L28.5987 52.3859
" />
<path d="M28.5987 52.3859
L28.8844 52.3859
" />
<path d="M28.8844 52.3859
L29.0273 52.3145
" />
<path d="M29.0273 52.3145
L29.0987 52.2431
" />
<path d="M29.0987 52.2431
L29.1701 52.1002
" />
<path d="M29.1701 52.1002
L29.1701 51.8145
" />
<path d="M29.1701 51.8145
L29.0987 51.6716
" />
<path d="M29.0987 51.6716
L29.0273 51.6002
" />
<path d="M29.0273 51.6002
L28.8844 51.5288
" />
<path d="M30.0273 51.5288
L29.8844 51.4574
" />
<path d="M29.8844 51.4574
L29.8130 51.3859
" />
<path d="M29.8130 51.3859
L29.7415 51.2431
" />
<path d="M29.7415 51.2431
L29.7415 51.1716
" />
<path d="M29.7415 51.1716
L29.8130 51.0288
" />
<path d="M29.8130 51.0288
L29.8844 50.9574
" />
<path d="M29.8844 50.9574
L30.0273 50.8859
" />
<path d="M30.0273 50.8859
L30.3130 50.8859
" />
<path d="M30.3130 50.8859
L30.4558 50.9574
" />
<path d="M30.4558 50.9574
L30.5273 51.0288
" />
<path d="M30.5273 51.0288
L30.5987 51.1716
" />
<path d="M30.5987 51.1716
L30.5987 51.2431
" />
<path d="M30.5987 51.2431
L30.5273 51.3859
" />
<path d="M30.5273 51.3859
L30.4558 51.4574
" />
<path d="M30.4558 51.4574
L30.3130 51.5288
" />
<path d="M30.3130 51.5288
L30.0273 51.5288
" />
<path d="M30.0273 51.5288
L29.8844 51.6002
" />
<path d="M29.8844 51.6002
L29.8130 51.6716
" />
<path d="M29.8130 51.6716
L29.7415 51.8145
" />
<path d="M29.7415 51.8145
L29.7415 52.1002
" />
<path d="M29.7415 52.1002
L29.8130 52.2431
" />
<path d="M29.8130 52.2431
L29.8844 52.3145
" />
<path d="M29.8844 52.3145
L30.0273 52.3859
" />
<path d="M30.0273 52.3859
L30.3130 52.3859
" />
<path d="M30.3130 52.3859
L30.4558 52.3145
" />
<path d="M30.4558 52.3145
L30.5273 52.2431
" />
<path d="M30.5273 52.2431
L30.5987 52.1002
" />
<path d="M30.5987 52.1002
L30.5987 51.8145
" />
<path d="M30.5987 51.8145
L30.5273 51.6716
" />
<path d="M30.5273 51.6716
L30.4558 51.6002
" />
<path d="M30.4558 51.6002
L30.3130 51.5288
" />
<path d="M31.1701 51.0288
L31.2415 50.9574
" />
<path d="M31.2415 50.9574
L31.3844 50.8859
" />
<path d="M31.3844 50.8859
L31.7415 50.8859
" />
<path d="M31.7415 50.8859
L31.8844 50.9574
" />
<path d="M31.8844 50.9574
L31.9558 51.0288
" />
<path d="M31.9558 51.0288
L32.0273 51.1716
" />
<path d="M32.0273 51.1716
L32.0273 51.3145
" />
<path d="M32.0273 51.3145
L31.9558 51.5288
" />
<path d="M31.9558 51.5288
L31.0987 52.3859
" />
<path d="M31.0987 52.3859
L32.0273 52.3859
" />
<path d="M32.6701 52.2431
L32.7415 52.3145
" />
<path d="M32.7415 52.3145
L32.6701 52.3859
" />
<path d="M32.6701 52.3859
L32.5987 52.3145
" />
<path d="M32.5987 52.3145
L32.6701 52.2431
" />
<path d="M32.6701 52.2431
L32.6701 52.3859
" />
<path d="M33.3844 52.3859
L33.3844 50.8859
" />
<path d="M33.5273 51.8145
L33.9558 52.3859
" />
<path d="M33.9558 51.3859
L33.3844 51.9574
" />
<path d="M34.5987 52.3859
L34.5987 51.3859
" />
<path d="M34.5987 50.8859
L34.5273 50.9574
" />
<path d="M34.5273 50.9574
L34.5987 51.0288
" />
<path d="M34.5987 51.0288
L34.6701 50.9574
" />
<path d="M34.6701 50.9574
L34.5987 50.8859
" />
<path d="M34.5987 50.8859
L34.5987 51.0288
" />
<path d="M35.9558 52.3145
L35.8130 52.3859
" />
<path d="M35.8130 52.3859
L35.5273 52.3859
" />
<path d="M35.5273 52.3859
L35.3844 52.3145
" />
<path d="M35.3844 52.3145
L35.3130 52.2431
" />
<path d="M35.3130 52.2431
L35.2415 52.1002
" />
<path d="M35.2415 52.1002
L35.2415 51.6716
" />
<path d="M35.2415 51.6716
L35.3130 51.5288
" />
<path d="M35.3130 51.5288
L35.3844 51.4574
" />
<path d="M35.3844 51.4574
L35.5273 51.3859
" />
<path d="M35.5273 51.3859
L35.8130 51.3859
" />
<path d="M35.8130 51.3859
L35.9558 51.4574
" />
<path d="M37.2415 52.3859
L37.2415 51.6002
" />
<path d="M37.2415 51.6002
L37.1701 51.4574
" />
<path d="M37.1701 51.4574
L37.0273 51.3859
" />
<path d="M37.0273 51.3859
L36.7415 51.3859
" />
<path d="M36.7415 51.3859
L36.5987 51.4574
" />
<path d="M37.2415 52.3145
L37.0987 52.3859
" />
<path d="M37.0987 52.3859
L36.7415 52.3859
" />
<path d="M36.7415 52.3859
L36.5987 52.3145
" />
<path d="M36.5987 52.3145
L36.5273 52.1716
" />
<path d="M36.5273 52.1716
L36.5273 52.0288
" />
<path d="M36.5273 52.0288
L36.5987 51.8859
" />
<path d="M36.5987 51.8859
L36.7415 51.8145
" />
<path d="M36.7415 51.8145
L37.0987 51.8145
" />
<path d="M37.0987 51.8145
L37.2415 51.7431
" />
<path d="M38.5987 52.3859
L38.5987 50.8859
" />
<path d="M38.5987 52.3145
L38.4558 52.3859
" />
<path d="M38.4558 52.3859
L38.1701 52.3859
" />
<path d="M38.1701 52.3859
L38.0273 52.3145
" />
<path d="M38.0273 52.3145
L37.9558 52.2431
" />
<path d="M37.9558 52.2431
L37.8844 52.1002
" />
<path d="M37.8844 52.1002
L37.8844 51.6716
" />
<path d="M37.8844 51.6716
L37.9558 51.5288
" />
<path d="M37.9558 51.5288
L38.0273 51.4574
" />
<path d="M38.0273 51.4574
L38.1701 51.3859
" />
<path d="M38.1701 51.3859
L38.4558 51.3859
" />
<path d="M38.4558 51.3859
L38.5987 51.4574
" />
<path d="M38.9558 52.5288
L40.0987 52.5288
" />
<path d="M40.4558 51.3859
L40.4558 52.8859
" />
<path d="M40.4558 51.4574
L40.5987 51.3859
" />
<path d="M40.5987 51.3859
L40.8844 51.3859
" />
<path d="M40.8844 51.3859
L41.0273 51.4574
" />
<path d="M41.0273 51.4574
L41.0987 51.5288
" />
<path d="M41.0987 51.5288
L41.1701 51.6716
" />
<path d="M41.1701 51.6716
L41.1701 52.1002
" />
<path d="M41.1701 52.1002
L41.0987 52.2431
" />
<path d="M41.0987 52.2431
L41.0273 52.3145
" />
<path d="M41.0273 52.3145
L40.8844 52.3859
" />
<path d="M40.8844 52.3859
L40.5987 52.3859
" />
<path d="M40.5987 52.3859
L40.4558 52.3145
" />
<path d="M42.4558 52.3145
L42.3130 52.3859
" />
<path d="M42.3130 52.3859
L42.0273 52.3859
" />
<path d="M42.0273 52.3859
L41.8844 52.3145
" />
<path d="M41.8844 52.3145
L41.8130 52.2431
" />
<path d="M41.8130 52.2431
L41.7415 52.1002
" />
<path d="M41.7415 52.1002
L41.7415 51.6716
" />
<path d="M41.7415 51.6716
L41.8130 51.5288
" />
<path d="M41.8130 51.5288
L41.8844 51.4574
" />
<path d="M41.8844 51.4574
L42.0273 51.3859
" />
<path d="M42.0273 51.3859
L42.3130 51.3859
" />
<path d="M42.3130 51.3859
L42.4558 51.4574
" />
<path d="M43.0987 52.3859
L43.0987 50.8859
" />
<path d="M43.0987 51.4574
L43.2415 51.3859
" />
<path d="M43.2415 51.3859
L43.5273 51.3859
" />
<path d="M43.5273 51.3859
L43.6701 51.4574
" />
<path d="M43.6701 51.4574
L43.7415 51.5288
" />
<path d="M43.7415 51.5288
L43.8130 51.6716
" />
<path d="M43.8130 51.6716
L43.8130 52.1002
" />
<path d="M43.8130 52.1002
L43.7415 52.2431
" />
<path d="M43.7415 52.2431
L43.6701 52.3145
" />
<path d="M43.6701 52.3145
L43.5273 52.3859
" />
<path d="M43.5273 52.3859
L43.2415 52.3859
" />
<path d="M43.2415 52.3859
L43.0987 52.3145
" />
</g></g>
<g style="fill:none; 
stroke:#000000; stroke-width:0.1500; stroke-opacity:1; 
stroke-linecap:round; stroke-linejoin:round;">
<text x="12.5000" y="49.7498"
textLength="8.2214" font-size="2.0000" lengthAdjust="spacingAndGlyphs"
text-anchor="start" opacity="0">Sheet: </text>
<g class="stroked-text"><desc>Sheet: </desc>
<path d="M12.8844 49.6145
L13.0987 49.6859
" />
<path d="M13.0987 49.6859
L13.4558 49.6859
" />
<path d="M13.4558 49.6859
L13.5987 49.6145
" />
<path d="M13.5987 49.6145
L13.6701 49.5431
" />
<path d="M13.6701 49.5431
L13.7415 49.4002
" />
<path d="M13.7415 49.4002
L13.7415 49.2574
" />
<path d="M13.7415 49.2574
L13.6701 49.1145
" />
<path d="M13.6701 49.1145
L13.5987 49.0431
" />
<path d="M13.5987 49.0431
L13.4558 48.9716
" />
<path d="M13.4558 48.9716
L13.1701 48.9002
" />
<path d="M13.1701 48.9002
L13.0273 48.8288
" />
<path d="M13.0273 48.8288
L12.9558 48.7574
" />
<path d="M12.9558 48.7574
L12.8844 48.6145
" />
<path d="M12.8844 48.6145
L12.8844 48.4716
" />
<path d="M12.8844 48.4716
L12.9558 48.3288
" />
<path d="M12.9558 48.3288
L13.0273 48.2574
" />
<path d="M13.0273 48.2574
L13.1701 48.1859
" />
<path d="M13.1701 48.1859
L13.5273 48.1859
" />
<path d="M13.5273 48.1859
L13.7415 48.2574
" />
<path d="M14.3844 49.6859
L14.3844 48.1859
" />
<path d="M15.0273 49.6859
L15.0273 48.9002
" />
<path d="M15.0273 48.9002
L14.9558 48.7574
" />
<path d="M14.9558 48.7574
L14.8130 48.6859
" />
<path d="M14.8130 48.6859
L14.5987 48.6859
" />
<path d="M14.5987 48.6859
L14.4558 48.7574
" />
<path d="M14.4558 48.7574
L14.3844 48.8288
" />
<path d="M16.3130 49.6145
L16.1701 49.6859
" />
<path d="M16.1701 49.6859
L15.8844 49.6859
" />
<path d="M15.8844 49.6859
L15.7415 49.6145
" />
<path d="M15.7415 49.6145
L15.6701 49.4716
" />
<path d="M15.6701 49.4716
L15.6701 48.9002
" />
<path d="M15.6701 48.9002
L15.7415 48.7574
" />
<path d="M15.7415 48.7574
L15.8844 48.6859
" />
<path d="M15.8844 48.6859
L16.1701 48.6859
" />
<path d="M16.1701 48.6859
L16.3130 48.7574
" />
<path d="M16.3130 48.7574
L16.3844 48.9002
" />
<path d="M16.3844 48.9002
L16.3844 49.0431
" />
<path d="M16.3844 49.0431
L15.6701 49.1859
" />
<path d="M17.5987 49.6145
L17.4558 49.6859
" />
<path d="M17.4558 49.6859
L17.1701 49.6859
" />
<path d="M17.1701 49.6859
L17.0273 49.6145
" />
<path d="M17.0273 49.6145
L16.9558 49.4716
" />
<path d="M16.9558 49.4716
L16.9558 48.9002
" />
<path d="M16.9558 48.9002
L17.0273 48.7574
" />
<path d="M17.0273 48.7574
L17.1701 48.6859
" />
<path d="M17.1701 48.6859
L17.4558 48.6859
" />
<path d="M17.4558 48.6859
L17.5987 48.7574
" />
<path d="M17.5987 48.7574
L17.6701 48.9002
" />
<path d="M17.6701 48.9002
L17.6701 49.0431
" />
<path d="M17.6701 49.0431
L16.9558 49.1859
" />
<path d="M18.0987 48.6859
L18.6701 48.6859
" />
<path d="M18.3130 48.1859
L18.3130 49.4716
" />
<path d="M18.3130 49.4716
L18.3844 49.6145
" />
<path d="M18.3844 49.6145
L18.5273 49.6859
" />
<path d="M18.5273 49.6859
L18.6701 49.6859
" />
<path d="M19.1701 49.5431
L19.2415 49.6145
" />
<path d="M19.2415 49.6145
L19.1701 49.6859
" />
<path d="M19.1701 49.6859
L19.0987 49.6145
" />
<path d="M19.0987 49.6145
L19.1701 49.5431
" />
<path d="M19.1701 49.5431
L19.1701 49.6859
" />
<path d="M19.1701 48.7574
L19.2415 48.8288
" />
<path d="M19.2415 48.8288
L19.1701 48.9002
" />
<path d="M19.1701 48.9002
L19.0987 48.8288
" />
<path d="M19.0987 48.8288
L19.1701 48.7574
" />
<path d="M19.1701 48.7574
L19.1701 48.9002
" />
</g></g>
<g style="fill:none; 
stroke:#000000; stroke-width:0.1500; stroke-opacity:1; 
stroke-linecap:round; stroke-linejoin:round;">
<path d="M37.0000 61.4998
L37.0000 67.9998
" />
</g>
<g style="fill:none; 
stroke:#000000; stroke-width:0.4000; stroke-opacity:1; 
stroke-linecap:round; stroke-linejoin:round;">
<text x="21.5110" y="56.4978"
textLength="17.5619" font-size="2.6667" lengthAdjust="spacingAndGlyphs"
text-anchor="start" opacity="0">CleverHand</text>
<g class="stroked-text"><desc>CleverHand</desc>
<path d="M23.4051 56.2118
L23.2980 56.3070
" />
<path d="M23.2980 56.3070
L23.0003 56.4022
" />
<path d="M23.0003 56.4022
L22.8099 56.4022
" />
<path d="M22.8099 56.4022
L22.5361 56.3070
" />
<path d="M22.5361 56.3070
L22.3694 56.1165
" />
<path d="M22.3694 56.1165
L22.2980 55.9260
" />
<path d="M22.2980 55.9260
L22.2503 55.5451
" />
<path d="M22.2503 55.5451
L22.2861 55.2594
" />
<path d="M22.2861 55.2594
L22.4289 54.8784
" />
<path d="M22.4289 54.8784
L22.5480 54.6880
" />
<path d="M22.5480 54.6880
L22.7623 54.4975
" />
<path d="M22.7623 54.4975
L23.0599 54.4022
" />
<path d="M23.0599 54.4022
L23.2503 54.4022
" />
<path d="M23.2503 54.4022
L23.5242 54.4975
" />
<path d="M23.5242 54.4975
L23.6075 54.5927
" />
<path d="M24.5242 56.4022
L24.3456 56.3070
" />
<path d="M24.3456 56.3070
L24.2742 56.1165
" />
<path d="M24.2742 56.1165
L24.4884 54.4022
" />
<path d="M26.0599 56.3070
L25.8575 56.4022
" />
<path d="M25.8575 56.4022
L25.4765 56.4022
" />
<path d="M25.4765 56.4022
L25.2980 56.3070
" />
<path d="M25.2980 56.3070
L25.2265 56.1165
" />
<path d="M25.2265 56.1165
L25.3218 55.3546
" />
<path d="M25.3218 55.3546
L25.4408 55.1641
" />
<path d="M25.4408 55.1641
L25.6432 55.0689
" />
<path d="M25.6432 55.0689
L26.0242 55.0689
" />
<path d="M26.0242 55.0689
L26.2027 55.1641
" />
<path d="M26.2027 55.1641
L26.2742 55.3546
" />
<path d="M26.2742 55.3546
L26.2503 55.5451
" />
<path d="M26.2503 55.5451
L25.2742 55.7356
" />
<path d="M26.9765 55.0689
L27.2861 56.4022
" />
<path d="M27.2861 56.4022
L27.9289 55.0689
" />
<path d="M29.2980 56.3070
L29.0956 56.4022
" />
<path d="M29.0956 56.4022
L28.7146 56.4022
" />
<path d="M28.7146 56.4022
L28.5361 56.3070
" />
<path d="M28.5361 56.3070
L28.4646 56.1165
" />
<path d="M28.4646 56.1165
L28.5599 55.3546
" />
<path d="M28.5599 55.3546
L28.6789 55.1641
" />
<path d="M28.6789 55.1641
L28.8813 55.0689
" />
<path d="M28.8813 55.0689
L29.2623 55.0689
" />
<path d="M29.2623 55.0689
L29.4408 55.1641
" />
<path d="M29.4408 55.1641
L29.5123 55.3546
" />
<path d="M29.5123 55.3546
L29.4884 55.5451
" />
<path d="M29.4884 55.5451
L28.5123 55.7356
" />
<path d="M30.2384 56.4022
L30.4051 55.0689
" />
<path d="M30.3575 55.4499
L30.4765 55.2594
" />
<path d="M30.4765 55.2594
L30.5837 55.1641
" />
<path d="M30.5837 55.1641
L30.7861 55.0689
" />
<path d="M30.7861 55.0689
L30.9765 55.0689
" />
<path d="M31.4765 56.4022
L31.7265 54.4022
" />
<path d="M31.6075 55.3546
L32.7503 55.3546
" />
<path d="M32.6194 56.4022
L32.8694 54.4022
" />
<path d="M34.4289 56.4022
L34.5599 55.3546
" />
<path d="M34.5599 55.3546
L34.4884 55.1641
" />
<path d="M34.4884 55.1641
L34.3099 55.0689
" />
<path d="M34.3099 55.0689
L33.9289 55.0689
" />
<path d="M33.9289 55.0689
L33.7265 55.1641
" />
<path d="M34.4408 56.3070
L34.2384 56.4022
" />
<path d="M34.2384 56.4022
L33.7623 56.4022
" />
<path d="M33.7623 56.4022
L33.5837 56.3070
" />
<path d="M33.5837 56.3070
L33.5123 56.1165
" />
<path d="M33.5123 56.1165
L33.5361 55.9260
" />
<path d="M33.5361 55.9260
L33.6551 55.7356
" />
<path d="M33.6551 55.7356
L33.8575 55.6403
" />
<path d="M33.8575 55.6403
L34.3337 55.6403
" />
<path d="M34.3337 55.6403
L34.5361 55.5451
" />
<path d="M35.5480 55.0689
L35.3813 56.4022
" />
<path d="M35.5242 55.2594
L35.6313 55.1641
" />
<path d="M35.6313 55.1641
L35.8337 55.0689
" />
<path d="M35.8337 55.0689
L36.1194 55.0689
" />
<path d="M36.1194 55.0689
L36.2980 55.1641
" />
<path d="M36.2980 55.1641
L36.3694 55.3546
" />
<path d="M36.3694 55.3546
L36.2384 56.4022
" />
<path d="M38.0480 56.4022
L38.2980 54.4022
" />
<path d="M38.0599 56.3070
L37.8575 56.4022
" />
<path d="M37.8575 56.4022
L37.4765 56.4022
" />
<path d="M37.4765 56.4022
L37.2980 56.3070
" />
<path d="M37.2980 56.3070
L37.2146 56.2118
" />
<path d="M37.2146 56.2118
L37.1432 56.0213
" />
<path d="M37.1432 56.0213
L37.2146 55.4499
" />
<path d="M37.2146 55.4499
L37.3337 55.2594
" />
<path d="M37.3337 55.2594
L37.4408 55.1641
" />
<path d="M37.4408 55.1641
L37.6432 55.0689
" />
<path d="M37.6432 55.0689
L38.0242 55.0689
" />
<path d="M38.0242 55.0689
L38.2027 55.1641
" />
</g></g>
<g style="fill:none; 
stroke:#000000; stroke-width:0.1500; stroke-opacity:1; 
stroke-linecap:round; stroke-linejoin:round;">
<path d="M12.0110 53.4978
L48.0110 53.4978
" />
<path style="fill:none; 
stroke:#AFAFAF; stroke-width:0.1000; stroke-opacity:1; 
stroke-linecap:round; stroke-linejoin:round;fill:none"
d="M 22.5000,24.0000
37.5000,24.0000
37.5000,35.0000
22.5000,35.0000
Z" /> 
</g>
<g style="fill:none; 
stroke:#AFAFAF; stroke-width:0.1500; stroke-opacity:1; 
stroke-linecap:round; stroke-linejoin:round;">
<circle cx="30.0000" cy="35.0000" r="0.5000" /> 
</g>
<g style="fill:none; 
stroke:#AFAFAF; stroke-width:0.1000; stroke-opacity:1; 
stroke-linecap:round; stroke-linejoin:round;">
<circle cx="30.0000" cy="25.0000" r="0.5000" /> 
</g>
<g style="fill:none; 
stroke:#AFAFAF; stroke-width:0.1500; stroke-opacity:1; 
stroke-linecap:round; stroke-linejoin:round;">
<text x="30.1000" y="21.3500"
textLength="7.0119" font-size="1.3333" lengthAdjust="spacingAndGlyphs"
text-anchor="middle" opacity="0">12.5 mm</text>
<g class="stroked-text"><desc>12.5 mm</desc>
<path d="M27.4810 21.3048
L26.9095 21.3048
" />
<path d="M27.1952 21.3048
L27.1952 20.3048
" />
<path d="M27.1952 20.3048
L27.1000 20.4477
" />
<path d="M27.1000 20.4477
L27.0048 20.5429
" />
<path d="M27.0048 20.5429
L26.9095 20.5905
" />
<path d="M27.8619 20.4001
L27.9095 20.3524
" />
<path d="M27.9095 20.3524
L28.0048 20.3048
" />
<path d="M28.0048 20.3048
L28.2429 20.3048
" />
<path d="M28.2429 20.3048
L28.3381 20.3524
" />
<path d="M28.3381 20.3524
L28.3857 20.4001
" />
<path d="M28.3857 20.4001
L28.4333 20.4953
" />
<path d="M28.4333 20.4953
L28.4333 20.5905
" />
<path d="M28.4333 20.5905
L28.3857 20.7334
" />
<path d="M28.3857 20.7334
L27.8143 21.3048
" />
<path d="M27.8143 21.3048
L28.4333 21.3048
" />
<path d="M28.8619 21.2096
L28.9095 21.2572
" />
<path d="M28.9095 21.2572
L28.8619 21.3048
" />
<path d="M28.8619 21.3048
L28.8143 21.2572
" />
<path d="M28.8143 21.2572
L28.8619 21.2096
" />
<path d="M28.8619 21.2096
L28.8619 21.3048
" />
<path d="M29.8143 20.3048
L29.3381 20.3048
" />
<path d="M29.3381 20.3048
L29.2905 20.7810
" />
<path d="M29.2905 20.7810
L29.3381 20.7334
" />
<path d="M29.3381 20.7334
L29.4333 20.6858
" />
<path d="M29.4333 20.6858
L29.6714 20.6858
" />
<path d="M29.6714 20.6858
L29.7667 20.7334
" />
<path d="M29.7667 20.7334
L29.8143 20.7810
" />
<path d="M29.8143 20.7810
L29.8619 20.8762
" />
<path d="M29.8619 20.8762
L29.8619 21.1143
" />
<path d="M29.8619 21.1143
L29.8143 21.2096
" />
<path d="M29.8143 21.2096
L29.7667 21.2572
" />
<path d="M29.7667 21.2572
L29.6714 21.3048
" />
<path d="M29.6714 21.3048
L29.4333 21.3048
" />
<path d="M29.4333 21.3048
L29.3381 21.2572
" />
<path d="M29.3381 21.2572
L29.2905 21.2096
" />
<path d="M31.0524 21.3048
L31.0524 20.6382
" />
<path d="M31.0524 20.7334
L31.1000 20.6858
" />
<path d="M31.1000 20.6858
L31.1952 20.6382
" />
<path d="M31.1952 20.6382
L31.3381 20.6382
" />
<path d="M31.3381 20.6382
L31.4333 20.6858
" />
<path d="M31.4333 20.6858
L31.4810 20.7810
" />
<path d="M31.4810 20.7810
L31.4810 21.3048
" />
<path d="M31.4810 20.7810
L31.5286 20.6858
" />
<path d="M31.5286 20.6858
L31.6238 20.6382
" />
<path d="M31.6238 20.6382
L31.7667 20.6382
" />
<path d="M31.7667 20.6382
L31.8619 20.6858
" />
<path d="M31.8619 20.6858
L31.9095 20.7810
" />
<path d="M31.9095 20.7810
L31.9095 21.3048
" />
<path d="M32.3857 21.3048
L32.3857 20.6382
" />
<path d="M32.3857 20.7334
L32.4333 20.6858
" />
<path d="M32.4333 20.6858
L32.5286 20.6382
" />
<path d="M32.5286 20.6382
L32.6714 20.6382
" />
<path d="M32.6714 20.6382
L32.7667 20.6858
" />
<path d="M32.7667 20.6858
L32.8143 20.7810
" />
<path d="M32.8143 20.7810
L32.8143 21.3048
" />
<path d="M32.8143 20.7810
L32.8619 20.6858
" />
<path d="M32.8619 20.6858
L32.9571 20.6382
" />
<path d="M32.9571 20.6382
L33.1000 20.6382
" />
<path d="M33.1000 20.6382
L33.1952 20.6858
" />
<path d="M33.1952 20.6858
L33.2429 20.7810
" />
<path d="M33.2429 20.7810
L33.2429 21.3048
" />
</g></g>
<g style="fill:none; 
stroke:#AFAFAF; stroke-width:0.1000; stroke-opacity:1; 
stroke-linecap:round; stroke-linejoin:round;">
<path d="M36.2500 24.5000
L36.2500 20.6636
" />
<path d="M23.7500 24.5000
L23.7500 20.6636
" />
<path d="M36.2500 21.2500
L34.1060 21.2500
" />
<path d="M26.0940 21.2500
L23.7500 21.2500
" />
<path d="M36.2500 21.2500
L35.1235 21.8364
" />
<path d="M36.2500 21.2500
L35.1235 20.6636
" />
<path d="M23.7500 21.2500
L24.8765 20.6636
" />
<path d="M23.7500 21.2500
L24.8765 21.8364
" />
</g>
<g style="fill:none; 
stroke:#AFAFAF; stroke-width:0.1500; stroke-opacity:1; 
stroke-linecap:round; stroke-linejoin:round;">
<g transform="rotate(-90.000000 40.1114 29.7500)">
<text x="40.1114" y="30.2500"
textLength="5.5833" font-size="1.3333" lengthAdjust="spacingAndGlyphs"
text-anchor="middle" opacity="0">10 mm</text>
</g>
<g class="stroked-text"><desc>10 mm</desc>
<path d="M40.5662 31.6548
L40.5662 32.2262
" />
<path d="M40.5662 31.9405
L39.5662 31.9405
" />
<path d="M39.5662 31.9405
L39.7091 32.0357
" />
<path d="M39.7091 32.0357
L39.8043 32.1310
" />
<path d="M39.8043 32.1310
L39.8519 32.2262
" />
<path d="M39.5662 31.0357
L39.5662 30.9405
" />
<path d="M39.5662 30.9405
L39.6138 30.8452
" />
<path d="M39.6138 30.8452
L39.6615 30.7976
" />
<path d="M39.6615 30.7976
L39.7567 30.7500
" />
<path d="M39.7567 30.7500
L39.9472 30.7024
" />
<path d="M39.9472 30.7024
L40.1853 30.7024
" />
<path d="M40.1853 30.7024
L40.3757 30.7500
" />
<path d="M40.3757 30.7500
L40.4710 30.7976
" />
<path d="M40.4710 30.7976
L40.5186 30.8452
" />
<path d="M40.5186 30.8452
L40.5662 30.9405
" />
<path d="M40.5662 30.9405
L40.5662 31.0357
" />
<path d="M40.5662 31.0357
L40.5186 31.1310
" />
<path d="M40.5186 31.1310
L40.4710 31.1786
" />
<path d="M40.4710 31.1786
L40.3757 31.2262
" />
<path d="M40.3757 31.2262
L40.1853 31.2738
" />
<path d="M40.1853 31.2738
L39.9472 31.2738
" />
<path d="M39.9472 31.2738
L39.7567 31.2262
" />
<path d="M39.7567 31.2262
L39.6615 31.1786
" />
<path d="M39.6615 31.1786
L39.6138 31.1310
" />
<path d="M39.6138 31.1310
L39.5662 31.0357
" />
<path d="M40.5662 29.5119
L39.8996 29.5119
" />
<path d="M39.9948 29.5119
L39.9472 29.4643
" />
<path d="M39.9472 29.4643
L39.8996 29.3690
" />
<path d="M39.8996 29.3690
L39.8996 29.2262
" />
<path d="M39.8996 29.2262
L39.9472 29.1310
" />
<path d="M39.9472 29.1310
L40.0424 29.0833
" />
<path d="M40.0424 29.0833
L40.5662 29.0833
" />
<path d="M40.0424 29.0833
L39.9472 29.0357
" />
<path d="M39.9472 29.0357
L39.8996 28.9405
" />
<path d="M39.8996 28.9405
L39.8996 28.7976
" />
<path d="M39.8996 28.7976
L39.9472 28.7024
" />
<path d="M39.9472 28.7024
L40.0424 28.6548
" />
<path d="M40.0424 28.6548
L40.5662 28.6548
" />
<path d="M40.5662 28.1786
L39.8996 28.1786
" />
<path d="M39.9948 28.1786
L39.9472 28.1310
" />
<path d="M39.9472 28.1310
L39.8996 28.0357
" />
<path d="M39.8996 28.0357
L39.8996 27.8929
" />
<path d="M39.8996 27.8929
L39.9472 27.7976
" />
<path d="M39.9472 27.7976
L40.0424 27.7500
" />
<path d="M40.0424 27.7500
L40.5662 27.7500
" />
<path d="M40.0424 27.7500
L39.9472 27.7024
" />
<path d="M39.9472 27.7024
L39.8996 27.6071
" />
<path d="M39.8996 27.6071
L39.8996 27.4643
" />
<path d="M39.8996 27.4643
L39.9472 27.3690
" />
<path d="M39.9472 27.3690
L40.0424 27.3214
" />
<path d="M40.0424 27.3214
L40.5662 27.3214
" />
</g></g>
<g style="fill:none; 
stroke:#AFAFAF; stroke-width:0.1000; stroke-opacity:1; 
stroke-linecap:round; stroke-linejoin:round;">
<path d="M34.9450 24.5000
L41.8478 24.5000
" />
<path d="M34.9450 35.0000
L41.8478 35.0000
" />
<path d="M41.2614 24.5000
L41.2614 35.0000
" />
<path d="M41.2614 24.5000
L41.2614 35.0000
" />
<path d="M41.2614 24.5000
L41.8478 25.6265
" />
<path d="M41.2614 24.5000
L40.6750 25.6265
" />
<path d="M41.2614 35.0000
L40.6750 33.8735
" />
<path d="M41.2614 35.0000
L41.8478 33.8735
" />
</g>
<g style="fill:none; 
stroke:#AFAFAF; stroke-width:0.1500; stroke-opacity:1; 
stroke-linecap:round; stroke-linejoin:round;">
<text x="30.0000" y="40.3500"
textLength="5.5833" font-size="1.3333" lengthAdjust="spacingAndGlyphs"
text-anchor="middle" opacity="0">15 mm</text>
<g class="stroked-text"><desc>15 mm</desc>
<path d="M28.0952 40.3048
L27.5238 40.3048
" />
<path d="M27.8095 40.3048
L27.8095 39.3048
" />
<path d="M27.8095 39.3048
L27.7143 39.4477
" />
<path d="M27.7143 39.4477
L27.6190 39.5429
" />
<path d="M27.6190 39.5429
L27.5238 39.5905
" />
<path d="M29.0000 39.3048
L28.5238 39.3048
" />
<path d="M28.5238 39.3048
L28.4762 39.7810
" />
<path d="M28.4762 39.7810
L28.5238 39.7334
" />
<path d="M28.5238 39.7334
L28.6190 39.6858
" />
<path d="M28.6190 39.6858
L28.8571 39.6858
" />
<path d="M28.8571 39.6858
L28.9524 39.7334
" />
<path d="M28.9524 39.7334
L29.0000 39.7810
" />
<path d="M29.0000 39.7810
L29.0476 39.8762
" />
<path d="M29.0476 39.8762
L29.0476 40.1143
" />
<path d="M29.0476 40.1143
L29.0000 40.2096
" />
<path d="M29.0000 40.2096
L28.9524 40.2572
" />
<path d="M28.9524 40.2572
L28.8571 40.3048
" />
<path d="M28.8571 40.3048
L28.6190 40.3048
" />
<path d="M28.6190 40.3048
L28.5238 40.2572
" />
<path d="M28.5238 40.2572
L28.4762 40.2096
" />
<path d="M30.2381 40.3048
L30.2381 39.6382
" />
<path d="M30.2381 39.7334
L30.2857 39.6858
" />
<path d="M30.2857 39.6858
L30.3810 39.6382
" />
<path d="M30.3810 39.6382
L30.5238 39.6382
" />
<path d="M30.5238 39.6382
L30.6190 39.6858
" />
<path d="M30.6190 39.6858
L30.6667 39.7810
" />
<path d="M30.6667 39.7810
L30.6667 40.3048
" />
<path d="M30.6667 39.7810
L30.7143 39.6858
" />
<path d="M30.7143 39.6858
L30.8095 39.6382
" />
<path d="M30.8095 39.6382
L30.9524 39.6382
" />
<path d="M30.9524 39.6382
L31.0476 39.6858
" />
<path d="M31.0476 39.6858
L31.0952 39.7810
" />
<path d="M31.0952 39.7810
L31.0952 40.3048
" />
<path d="M31.5714 40.3048
L31.5714 39.6382
" />
<path d="M31.5714 39.7334
L31.6190 39.6858
" />
<path d="M31.6190 39.6858
L31.7143 39.6382
" />
<path d="M31.7143 39.6382
L31.8571 39.6382
" />
<path d="M31.8571 39.6382
L31.9524 39.6858
" />
<path d="M31.9524 39.6858
L32.0000 39.7810
" />
<path d="M32.0000 39.7810
L32.0000 40.3048
" />
<path d="M32.0000 39.7810
L32.0476 39.6858
" />
<path d="M32.0476 39.6858
L32.1429 39.6382
" />
<path d="M32.1429 39.6382
L32.2857 39.6382
" />
<path d="M32.2857 39.6382
L32.3810 39.6858
" />
<path d="M32.3810 39.6858
L32.4286 39.7810
" />
<path d="M32.4286 39.7810
L32.4286 40.3048
" />
</g></g>
<g style="fill:none; 
stroke:#AFAFAF; stroke-width:0.1000; stroke-opacity:1; 
stroke-linecap:round; stroke-linejoin:round;">
<path d="M22.5000 35.5000
L22.5000 41.5864
" />
<path d="M37.5000 35.5000
L37.5000 41.5864
" />
<path d="M22.5000 41.0000
L37.5000 41.0000
" />
<path d="M22.5000 41.0000
L37.5000 41.0000
" />
<path d="M22.5000 41.0000
L23.6265 40.4136
" />
<path d="M22.5000 41.0000
L23.6265 41.5864
" />
<path d="M37.5000 41.0000
L36.3735 41.5864
" />
<path d="M37.5000 41.0000
L36.3735 40.4136
" />
<path d="M27.0300 27.0750
L27.5700 27.0750
" />
<path d="M27.0300 28.1250
L27.0300 27.0750
" />
<path d="M27.5700 27.0750
L27.5700 28.1250
" />
<path d="M27.5700 28.1250
L27.0300 28.1250
" />
<path d="M27.0450 34.8900
L27.5700 34.3650
" />
<path d="M27.0450 35.6350
L27.0450 34.8900
" />
<path d="M27.5700 34.3650
L29.1450 34.3650
" />
<path d="M29.1450 34.3650
L29.1450 35.6350
" />
<path d="M29.1450 35.6350
L27.0450 35.6350
" />
<path d="M24.5050 24.8900
L25.0300 24.3650
" />
<path d="M24.5050 25.6350
L24.5050 24.8900
" />
<path d="M25.0300 24.3650
L26.6050 24.3650
" />
<path d="M26.6050 24.3650
L26.6050 25.6350
" />
<path d="M26.6050 25.6350
L24.5050 25.6350
" />
</g>
<g style="fill:none; 
stroke:#AFAFAF; stroke-width:0.0600; stroke-opacity:1; 
stroke-linecap:round; stroke-linejoin:round;">
<circle cx="24.7000" cy="33.3500" r="0.0300" /> 
</g>
<g style="fill:none; 
stroke:#AFAFAF; stroke-width:0.1000; stroke-opacity:1; 
stroke-linecap:round; stroke-linejoin:round;">
<path d="M29.5850 24.8900
L30.1100 24.3650
" />
<path d="M29.5850 25.6350
L29.5850 24.8900
" />
<path d="M30.1100 24.3650
L31.6850 24.3650
" />
<path d="M31.6850 24.3650
L31.6850 25.6350
" />
<path d="M31.6850 25.6350
L29.5850 25.6350
" />
<path d="M23.2750 27.8300
L24.3250 27.8300
" />
<path d="M23.2750 28.3700
L23.2750 27.8300
" />
<path d="M24.3250 27.8300
L24.3250 28.3700
" />
<path d="M24.3250 28.3700
L23.2750 28.3700
" />
<path d="M29.8000 30.1500
L30.8000 30.1500
" />
<path d="M29.8000 30.6500
L29.8000 30.1500
" />
<path d="M30.8000 30.1500
L30.8000 30.6500
" />
<path d="M30.8000 30.6500
L29.8000 30.6500
" />
<path d="M26.0300 27.0750
L26.5700 27.0750
" />
<path d="M26.0300 28.1250
L26.0300 27.0750
" />
<path d="M26.5700 27.0750
L26.5700 28.1250
" />
<path d="M26.5700 28.1250
L26.0300 28.1250
" />
<path d="M33.5300 27.0626
L34.0700 27.0626
" />
<path d="M33.5300 28.1126
L33.5300 27.0626
" />
<path d="M34.0700 27.0626
L34.0700 28.1126
" />
<path d="M34.0700 28.1126
L33.5300 28.1126
" />
</g>
<g style="fill:none; 
stroke:#AFAFAF; stroke-width:0.0600; stroke-opacity:1; 
stroke-linecap:round; stroke-linejoin:round;">
<circle cx="37.1000" cy="33.3500" r="0.0300" /> 
<circle cx="28.5000" cy="29.4000" r="0.0300" /> 
</g>
<g style="fill:none; 
stroke:#AFAFAF; stroke-width:0.1000; stroke-opacity:1; 
stroke-linecap:round; stroke-linejoin:round;">
<path d="M28.3150 24.8900
L28.8400 24.3650
" />
<path d="M28.3150 25.6350
L28.3150 24.8900
" />
<path d="M28.8400 24.3650
L30.4150 24.3650
" />
<path d="M30.4150 24.3650
L30.4150 25.6350
" />
<path d="M30.4150 25.6350
L28.3150 25.6350
" />
<path d="M30.0000 31.4100
L30.7450 31.4100
" />
<path d="M30.0000 33.5100
L30.0000 31.4100
" />
<path d="M30.7450 31.4100
L31.2700 31.9350
" />
<path d="M31.2700 31.9350
L31.2700 33.5100
" />
<path d="M31.2700 33.5100
L30.0000 33.5100
" />
<path d="M30.8550 34.8900
L31.3800 34.3650
" />
<path d="M30.8550 35.6350
L30.8550 34.8900
" />
<path d="M31.3800 34.3650
L32.9550 34.3650
" />
<path d="M32.9550 34.3650
L32.9550 35.6350
" />
<path d="M32.9550 35.6350
L30.8550 35.6350
" />
<path d="M27.4300 29.4750
L27.9700 29.4750
" />
<path d="M27.4300 30.5250
L27.4300 29.4750
" />
<path d="M27.9700 29.4750
L27.9700 30.5250
" />
<path d="M27.9700 30.5250
L27.4300 30.5250
" />
</g>
<g style="fill:none; 
stroke:#AFAFAF; stroke-width:0.0600; stroke-opacity:1; 
stroke-linecap:round; stroke-linejoin:round;">
<circle cx="26.8000" cy="33.3500" r="0.0300" /> 
</g>
<g style="fill:none; 
stroke:#AFAFAF; stroke-width:0.1000; stroke-opacity:1; 
stroke-linecap:round; stroke-linejoin:round;">
<path d="M33.3950 24.8900
L33.9200 24.3650
" />
<path d="M33.3950 25.6350
L33.3950 24.8900
" />
<path d="M33.9200 24.3650
L35.4950 24.3650
" />
<path d="M35.4950 24.3650
L35.4950 25.6350
" />
<path d="M35.4950 25.6350
L33.3950 25.6350
" />
<path d="M32.1250 24.3650
L34.2250 24.3650
" />
<path d="M32.1250 25.6350
L32.1250 24.3650
" />
<path d="M33.7000 25.6350
L32.1250 25.6350
" />
<path d="M34.2250 24.3650
L34.2250 25.1100
" />
<path d="M34.2250 25.1100
L33.7000 25.6350
" />
<path d="M29.5850 34.8900
L30.1100 34.3650
" />
<path d="M29.5850 35.6350
L29.5850 34.8900
" />
<path d="M30.1100 34.3650
L31.6850 34.3650
" />
<path d="M31.6850 34.3650
L31.6850 35.6350
" />
<path d="M31.6850 35.6350
L29.5850 35.6350
" />
<path d="M30.0000 32.6800
L30.7450 32.6800
" />
<path d="M30.0000 34.7800
L30.0000 32.6800
" />
<path d="M30.7450 32.6800
L31.2700 33.2050
" />
<path d="M31.2700 33.2050
L31.2700 34.7800
" />
<path d="M31.2700 34.7800
L30.0000 34.7800
" />
<path d="M34.5300 26.4750
L35.0700 26.4750
" />
<path d="M34.5300 27.5250
L34.5300 26.4750
" />
<path d="M35.0700 26.4750
L35.0700 27.5250
" />
<path d="M35.0700 27.5250
L34.5300 27.5250
" />
<path d="M32.5300 27.0626
L33.0700 27.0626
" />
<path d="M32.5300 28.1126
L32.5300 27.0626
" />
<path d="M33.0700 27.0626
L33.0700 28.1126
" />
<path d="M33.0700 28.1126
L32.5300 28.1126
" />
<path d="M33.3950 34.8900
L33.9200 34.3650
" />
<path d="M33.3950 35.6350
L33.3950 34.8900
" />
<path d="M33.9200 34.3650
L35.4950 34.3650
" />
<path d="M35.4950 34.3650
L35.4950 35.6350
" />
<path d="M35.4950 35.6350
L33.3950 35.6350
" />
<path d="M32.1250 34.8900
L32.6500 34.3650
" />
<path d="M32.1250 35.6350
L32.1250 34.8900
" />
<path d="M32.6500 34.3650
L34.2250 34.3650
" />
<path d="M34.2250 34.3650
L34.2250 35.6350
" />
<path d="M34.2250 35.6350
L32.1250 35.6350
" />
<path d="M28.3150 34.8900
L28.8400 34.3650
" />
<path d="M28.3150 35.6350
L28.3150 34.8900
" />
<path d="M28.8400 34.3650
L30.4150 34.3650
" />
<path d="M30.4150 34.3650
L30.4150 35.6350
" />
<path d="M30.4150 35.6350
L28.3150 35.6350
" />
<path d="M25.0300 26.4750
L25.5700 26.4750
" />
<path d="M25.0300 27.5250
L25.0300 26.4750
" />
<path d="M25.5700 26.4750
L25.5700 27.5250
" />
<path d="M25.5700 27.5250
L25.0300 27.5250
" />
<path d="M25.7750 24.8900
L26.3000 24.3650
" />
<path d="M25.7750 25.6350
L25.7750 24.8900
" />
<path d="M26.3000 24.3650
L27.8750 24.3650
" />
<path d="M27.8750 24.3650
L27.8750 25.6350
" />
<path d="M27.8750 25.6350
L25.7750 25.6350
" />
<path d="M28.7300 32.6800
L29.4750 32.6800
" />
<path d="M28.7300 34.7800
L28.7300 32.6800
" />
<path d="M29.4750 32.6800
L30.0000 33.2050
" />
<path d="M30.0000 33.2050
L30.0000 34.7800
" />
<path d="M30.0000 34.7800
L28.7300 34.7800
" />
<path d="M28.7300 31.4100
L29.4750 31.4100
" />
<path d="M28.7300 33.5100
L28.7300 31.4100
" />
<path d="M29.4750 31.4100
L30.0000 31.9350
" />
<path d="M30.0000 31.9350
L30.0000 33.5100
" />
<path d="M30.0000 33.5100
L28.7300 33.5100
" />
<path d="M25.7750 34.8900
L26.3000 34.3650
" />
<path d="M25.7750 35.6350
L25.7750 34.8900
" />
<path d="M26.3000 34.3650
L27.8750 34.3650
" />
<path d="M27.8750 34.3650
L27.8750 35.6350
" />
<path d="M27.8750 35.6350
L25.7750 35.6350
" />
<path d="M35.7750 27.8300
L36.8250 27.8300
" />
<path d="M35.7750 28.3700
L35.7750 27.8300
" />
<path d="M36.8250 27.8300
L36.8250 28.3700
" />
<path d="M36.8250 28.3700
L35.7750 28.3700
" />
</g>
<g style="fill:none; 
stroke:#AFAFAF; stroke-width:0.0600; stroke-opacity:1; 
stroke-linecap:round; stroke-linejoin:round;">
<circle cx="35.0000" cy="33.3500" r="0.0300" /> 
</g>
<g style="fill:none; 
stroke:#AFAFAF; stroke-width:0.1000; stroke-opacity:1; 
stroke-linecap:round; stroke-linejoin:round;">
<path d="M30.8550 24.8900
L31.3800 24.3650
" />
<path d="M30.8550 25.6350
L30.8550 24.8900
" />
<path d="M31.3800 24.3650
L32.9550 24.3650
" />
<path d="M32.9550 24.3650
L32.9550 25.6350
" />
<path d="M32.9550 25.6350
L30.8550 25.6350
" />
<path d="M27.0450 24.8900
L27.5700 24.3650
" />
<path d="M27.0450 25.6350
L27.0450 24.8900
" />
<path d="M27.5700 24.3650
L29.1450 24.3650
" />
<path d="M29.1450 24.3650
L29.1450 25.6350
" />
<path d="M29.1450 25.6350
L27.0450 25.6350
" />
<path d="M24.5050 34.8900
L25.0300 34.3650
" />
<path d="M24.5050 35.6350
L24.5050 34.8900
" />
<path d="M25.0300 34.3650
L26.6050 34.3650
" />
<path d="M26.6050 34.3650
L26.6050 35.6350
" />
<path d="M26.6050 35.6350
L24.5050 35.6350
" />
</g>
<g style="fill:none; 
stroke:#D0D2CD; stroke-width:0.1000; stroke-opacity:1; 
stroke-linecap:round; stroke-linejoin:round;">
<path d="M36.7500 35.0000 A0.7500 0.7500 0.0 0 0 37.5000 34.2500" />
<path d="M23.2500 24.0000 A0.7500 0.7500 0.0 0 0 22.5000 24.7500" />
</g>
<g style="fill:none; 
stroke:#D0D2CD; stroke-width:0.0381; stroke-opacity:1; 
stroke-linecap:round; stroke-linejoin:round;">
<circle cx="36.2500" cy="25.0000" r="0.5000" /> 
<circle cx="23.7500" cy="25.0000" r="0.5000" /> 
</g>
<g style="fill:none; 
stroke:#D0D2CD; stroke-width:0.1000; stroke-opacity:1; 
stroke-linecap:round; stroke-linejoin:round;">
<path d="M23.2500 35.0000
L36.7500 35.0000
" />
<path d="M37.5000 34.2500
L37.5000 24.7500
" />
<path d="M36.7500 24.0000
L23.2500 24.0000
" />
<path d="M37.5000 24.7500 A0.7500 0.7500 0.0 0 0 36.7500 24.0000" />
<path d="M22.5000 34.2500 A0.7500 0.7500 0.0 0 0 23.2500 35.0000" />
<path d="M22.5000 34.2500
L22.5000 24.7500
" />
</g>
<g style="fill:none; 
stroke:#F2EDA1; stroke-width:0.1200; stroke-opacity:1; 
stroke-linecap:round; stroke-linejoin:round;">
<path d="M26.9200 27.4464
L26.9200 27.7536
" />
<path d="M27.6800 27.4464
L27.6800 27.7536
" />
</g>
<g style="fill:none; 
stroke:#F2EDA1; stroke-width:0.1500; stroke-opacity:1; 
stroke-linecap:round; stroke-linejoin:round;">
<path d="M22.8700 30.0200
L23.0700 30.0200
" />
<path d="M22.8700 32.7800
L22.8700 30.0200
" />
<path d="M22.9200 32.3200
L24.6800 32.3200
" />
<path d="M24.7300 30.0200
L24.5300 30.0200
" />
<path d="M24.7300 32.7800
L24.7300 30.0200
" />
</g>
<g style="fill:none; 
stroke:#F2EDA1; stroke-width:0.1200; stroke-opacity:1; 
stroke-linecap:round; stroke-linejoin:round;">
<path d="M23.6464 27.7200
L23.9536 27.7200
" />
<path d="M23.6464 28.4800
L23.9536 28.4800
" />
<path d="M30.1922 30.0400
L30.4078 30.0400
" />
<path d="M30.1922 30.7600
L30.4078 30.7600
" />
<path d="M25.9200 27.4464
L25.9200 27.7536
" />
<path d="M26.6800 27.4464
L26.6800 27.7536
" />
<path d="M33.4200 27.4339
L33.4200 27.7412
" />
<path d="M34.1800 27.4339
L34.1800 27.7412
" />
<circle cx="36.3000" cy="26.5000" r="0.7000" /> 
</g>
<g style="fill:none; 
stroke:#F2EDA1; stroke-width:0.1500; stroke-opacity:1; 
stroke-linecap:round; stroke-linejoin:round;">
<path d="M35.2700 30.0200
L35.4700 30.0200
" />
<path d="M35.2700 32.7800
L35.2700 30.0200
" />
<path d="M35.3200 32.3200
L37.0800 32.3200
" />
<path d="M37.1300 30.0200
L36.9300 30.0200
" />
<path d="M37.1300 32.7800
L37.1300 30.0200
" />
</g>
<g style="fill:none; 
stroke:#F2EDA1; stroke-width:0.2500; stroke-opacity:1; 
stroke-linecap:round; stroke-linejoin:round;">
<path d="M28.4500 26.7700
L28.4500 26.3500
" />
<path d="M28.4500 29.4500
L28.4500 29.0300
" />
<path d="M28.4500 29.4500
L28.8700 29.4500
" />
<path d="M28.8700 26.3500
L28.4500 26.3500
" />
<path d="M31.1300 29.4500
L31.5500 29.4500
" />
<path d="M31.5500 26.3500
L31.1300 26.3500
" />
<path d="M31.5500 26.3500
L31.5500 26.7700
" />
<path d="M31.5500 29.0300
L31.5500 29.4500
" />
<circle cx="28.6000" cy="29.9000" r="0.2250" /> 
</g>
<g style="fill:none; 
stroke:#F2EDA1; stroke-width:0.1200; stroke-opacity:1; 
stroke-linecap:round; stroke-linejoin:round;">
<path d="M27.3200 29.8464
L27.3200 30.1536
" />
<path d="M28.0800 29.8464
L28.0800 30.1536
" />
</g>
<g style="fill:none; 
stroke:#F2EDA1; stroke-width:0.1500; stroke-opacity:1; 
stroke-linecap:round; stroke-linejoin:round;">
<path d="M24.9700 30.0200
L25.1700 30.0200
" />
<path d="M24.9700 32.7800
L24.9700 30.0200
" />
<path d="M25.0200 32.3200
L26.7800 32.3200
" />
<path d="M26.8300 30.0200
L26.6300 30.0200
" />
<path d="M26.8300 32.7800
L26.8300 30.0200
" />
</g>
<g style="fill:none; 
stroke:#F2EDA1; stroke-width:0.1200; stroke-opacity:1; 
stroke-linecap:round; stroke-linejoin:round;">
<circle cx="27.7500" cy="32.0000" r="0.7000" /> 
<circle cx="32.2000" cy="32.0000" r="0.7000" /> 
<path d="M34.4200 26.8464
L34.4200 27.1536
" />
<path d="M35.1800 26.8464
L35.1800 27.1536
" />
<path d="M32.4200 27.4339
L32.4200 27.7412
" />
<path d="M33.1800 27.4339
L33.1800 27.7412
" />
<circle cx="24.0000" cy="26.5000" r="0.7000" /> 
<path d="M24.9200 26.8464
L24.9200 27.1536
" />
<path d="M25.6800 26.8464
L25.6800 27.1536
" />
<path d="M36.4536 27.7200
L36.1464 27.7200
" />
<path d="M36.4536 28.4800
L36.1464 28.4800
" />
</g>
<g style="fill:none; 
stroke:#F2EDA1; stroke-width:0.1500; stroke-opacity:1; 
stroke-linecap:round; stroke-linejoin:round;">
<path d="M33.1700 30.0200
L33.3700 30.0200
" />
<path d="M33.1700 32.7800
L33.1700 30.0200
" />
<path d="M33.2200 32.3200
L34.9800 32.3200
" />
<path d="M35.0300 30.0200
L34.8300 30.0200
" />
<path d="M35.0300 32.7800
L35.0300 30.0200
" />
</g>
<g style="fill:none; 
stroke:#E8B2A7; stroke-width:0.1500; stroke-opacity:1; 
stroke-linecap:round; stroke-linejoin:round;">
<path d="M28.4600 30.6300
L28.4600 26.5700
" />
<path d="M29.1200 30.6300
L28.4600 30.6300
" />
<path d="M30.8800 30.6300
L31.5400 30.6300
" />
<path d="M31.5400 30.6300
L31.5400 26.5700
" />
</g>
<g style="fill:none; 
stroke:#E8B2A7; stroke-width:0.2500; stroke-opacity:1; 
stroke-linecap:round; stroke-linejoin:round;">
<circle cx="30.0000" cy="28.6000" r="0.9000" /> 
</g>
<g style="fill:none; 
stroke:#E8B2A7; stroke-width:0.1500; stroke-opacity:1; 
stroke-linecap:round; stroke-linejoin:round;">
<path d="M22.8700 28.5800
L27.9300 28.5800
" />
<path d="M22.8700 31.6200
L22.8700 28.5800
" />
<path d="M27.9300 28.5800
L27.9300 31.6200
" />
<path d="M27.9300 31.6200
L22.8700 31.6200
" />
</g>
<g style="fill:none; 
stroke:#E8B2A7; stroke-width:0.3000; stroke-opacity:1; 
stroke-linecap:round; stroke-linejoin:round;">
<circle cx="22.7500" cy="27.3300" r="0.1500" /> 
<circle cx="23.4900" cy="29.3300" r="0.1500" /> 
</g>
<g style="fill:none; 
stroke:#E8B2A7; stroke-width:0.1500; stroke-opacity:1; 
stroke-linecap:round; stroke-linejoin:round;">
<path d="M32.0700 28.5800
L37.1300 28.5800
" />
<path d="M32.0700 31.6200
L32.0700 28.5800
" />
<path d="M37.1300 28.5800
L37.1300 31.6200
" />
<path d="M37.1300 31.6200
L32.0700 31.6200
" />
</g>
<g style="fill:none; 
stroke:#E8B2A7; stroke-width:0.3000; stroke-opacity:1; 
stroke-linecap:round; stroke-linejoin:round;">
<circle cx="31.9500" cy="27.3300" r="0.1500" /> 
<circle cx="32.6900" cy="29.3300" r="0.1500" /> 
<path style="fill:#D864FF; fill-opacity:0.4000; stroke:none;fill-rule:evenodd;"
d="M 27.4850,26.8200
27.5367,26.8303
27.5805,26.8595
27.6097,26.9033
27.6200,26.9550
27.6200,27.2250
27.6097,27.2767
27.5805,27.3205
27.5367,27.3497
27.4850,27.3600
27.1150,27.3600
27.0633,27.3497
27.0195,27.3205
26.9903,27.2767
26.9800,27.2250
26.9800,26.9550
26.9903,26.9033
27.0195,26.8595
27.0633,26.8303
27.1150,26.8200
Z" /> 
<path style="fill:#D864FF; fill-opacity:0.4000; stroke:none;fill-rule:evenodd;"
d="M 27.4850,27.8400
27.5367,27.8503
27.5805,27.8795
27.6097,27.9233
27.6200,27.9750
27.6200,28.2450
27.6097,28.2967
27.5805,28.3405
27.5367,28.3697
27.4850,28.3800
27.1150,28.3800
27.0633,28.3697
27.0195,28.3405
26.9903,28.2967
26.9800,28.2450
26.9800,27.9750
26.9903,27.9233
27.0195,27.8795
27.0633,27.8503
27.1150,27.8400
Z" /> 
<path style="fill:#D864FF; fill-opacity:0.4000; stroke:none;fill-rule:evenodd;"
d="M 27.5950,35.5000
27.5950,34.5000
28.5950,34.5000
28.5950,35.5000
Z" /> 
<path style="fill:#D864FF; fill-opacity:0.4000; stroke:none;fill-rule:evenodd;"
d="M 25.0550,25.5000
25.0550,24.5000
26.0550,24.5000
26.0550,25.5000
Z" /> 
<path style="fill:#D864FF; fill-opacity:0.4000; stroke:none;fill-rule:evenodd;"
d="M 24.4000,33.8300
23.2000,33.8300
23.2000,32.4300
24.4000,32.4300
Z" /> 
<path style="fill:#D864FF; fill-opacity:0.4000; stroke:none;fill-rule:evenodd;"
d="M 24.4000,30.3700
23.2000,30.3700
23.2000,28.9700
24.4000,28.9700
Z" /> 
<path style="fill:#D864FF; fill-opacity:0.4000; stroke:none;fill-rule:evenodd;"
d="M 30.1350,25.5000
30.1350,24.5000
31.1350,24.5000
31.1350,25.5000
Z" /> 
<path style="fill:#D864FF; fill-opacity:0.4000; stroke:none;fill-rule:evenodd;"
d="M 23.0200,27.9150
23.0303,27.8633
23.0595,27.8195
23.1033,27.7903
23.1550,27.7800
23.4250,27.7800
23.4767,27.7903
23.5205,27.8195
23.5497,27.8633
23.5600,27.9150
23.5600,28.2850
23.5497,28.3367
23.5205,28.3805
23.4767,28.4097
23.4250,28.4200
23.1550,28.4200
23.1033,28.4097
23.0595,28.3805
23.0303,28.3367
23.0200,28.2850
Z" /> 
<path style="fill:#D864FF; fill-opacity:0.4000; stroke:none;fill-rule:evenodd;"
d="M 24.0400,27.9150
24.0503,27.8633
24.0795,27.8195
24.1233,27.7903
24.1750,27.7800
24.4450,27.7800
24.4967,27.7903
24.5405,27.8195
24.5697,27.8633
24.5800,27.9150
24.5800,28.2850
24.5697,28.3367
24.5405,28.3805
24.4967,28.4097
24.4450,28.4200
24.1750,28.4200
24.1233,28.4097
24.0795,28.3805
24.0503,28.3367
24.0400,28.2850
Z" /> 
<path style="fill:#D864FF; fill-opacity:0.4000; stroke:none;fill-rule:evenodd;"
d="M 29.5400,30.2300
29.5507,30.1764
29.5810,30.1310
29.6264,30.1007
29.6800,30.0900
29.9600,30.0900
30.0136,30.1007
30.0590,30.1310
30.0893,30.1764
30.1000,30.2300
30.1000,30.5700
30.0893,30.6236
30.0590,30.6690
30.0136,30.6993
29.9600,30.7100
29.6800,30.7100
29.6264,30.6993
29.5810,30.6690
29.5507,30.6236
29.5400,30.5700
Z" /> 
<path style="fill:#D864FF; fill-opacity:0.4000; stroke:none;fill-rule:evenodd;"
d="M 30.5000,30.2300
30.5107,30.1764
30.5410,30.1310
30.5864,30.1007
30.6400,30.0900
30.9200,30.0900
30.9736,30.1007
31.0190,30.1310
31.0493,30.1764
31.0600,30.2300
31.0600,30.5700
31.0493,30.6236
31.0190,30.6690
30.9736,30.6993
30.9200,30.7100
30.6400,30.7100
30.5864,30.6993
30.5410,30.6690
30.5107,30.6236
30.5000,30.5700
Z" /> 
<path style="fill:#D864FF; fill-opacity:0.4000; stroke:none;fill-rule:evenodd;"
d="M 26.4850,26.8200
26.5367,26.8303
26.5805,26.8595
26.6097,26.9033
26.6200,26.9550
26.6200,27.2250
26.6097,27.2767
26.5805,27.3205
26.5367,27.3497
26.4850,27.3600
26.1150,27.3600
26.0633,27.3497
26.0195,27.3205
25.9903,27.2767
25.9800,27.2250
25.9800,26.9550
25.9903,26.9033
26.0195,26.8595
26.0633,26.8303
26.1150,26.8200
Z" /> 
<path style="fill:#D864FF; fill-opacity:0.4000; stroke:none;fill-rule:evenodd;"
d="M 26.4850,27.8400
26.5367,27.8503
26.5805,27.8795
26.6097,27.9233
26.6200,27.9750
26.6200,28.2450
26.6097,28.2967
26.5805,28.3405
26.5367,28.3697
26.4850,28.3800
26.1150,28.3800
26.0633,28.3697
26.0195,28.3405
25.9903,28.2967
25.9800,28.2450
25.9800,27.9750
25.9903,27.9233
26.0195,27.8795
26.0633,27.8503
26.1150,27.8400
Z" /> 
<path style="fill:#D864FF; fill-opacity:0.4000; stroke:none;fill-rule:evenodd;"
d="M 33.9850,26.8076
34.0367,26.8178
34.0805,26.8471
34.1097,26.8909
34.1200,26.9426
34.1200,27.2126
34.1097,27.2642
34.0805,27.3080
34.0367,27.3373
33.9850,27.3476
33.6150,27.3476
33.5633,27.3373
33.5195,27.3080
33.4903,27.2642
33.4800,27.2126
33.4800,26.9426
33.4903,26.8909
33.5195,26.8471
33.5633,26.8178
33.6150,26.8076
Z" /> 
<path style="fill:#D864FF; fill-opacity:0.4000; stroke:none;fill-rule:evenodd;"
d="M 33.9850,27.8276
34.0367,27.8378
34.0805,27.8671
34.1097,27.9109
34.1200,27.9626
34.1200,28.2326
34.1097,28.2842
34.0805,28.3280
34.0367,28.3573
33.9850,28.3676
33.6150,28.3676
33.5633,28.3573
33.5195,28.3280
33.4903,28.2842
33.4800,28.2326
33.4800,27.9626
33.4903,27.9109
33.5195,27.8671
33.5633,27.8378
33.6150,27.8276
Z" /> 
</g>
<g style="fill:#D864FF; fill-opacity:0.4000; stroke:none;">
<circle cx="36.3000" cy="26.5000" r="0.5000" /> 
<path style="fill:#D864FF; fill-opacity:0.4000; stroke:none;fill-rule:evenodd;"
d="M 36.8000,33.8300
35.6000,33.8300
35.6000,32.4300
36.8000,32.4300
Z" /> 
<path style="fill:#D864FF; fill-opacity:0.4000; stroke:none;fill-rule:evenodd;"
d="M 36.8000,30.3700
35.6000,30.3700
35.6000,28.9700
36.8000,28.9700
Z" /> 
<path style="fill:#D864FF; fill-opacity:0.4000; stroke:none;fill-rule:evenodd;"
d="M 29.3000,29.0000
29.3000,29.8000
29.1000,29.8000
29.1000,29.0000
Z" /> 
<path style="fill:#D864FF; fill-opacity:0.4000; stroke:none;fill-rule:evenodd;"
d="M 29.7000,29.0000
29.7000,29.8000
29.5000,29.8000
29.5000,29.0000
Z" /> 
<path style="fill:#D864FF; fill-opacity:0.4000; stroke:none;fill-rule:evenodd;"
d="M 30.1000,29.0000
30.1000,29.8000
29.9000,29.8000
29.9000,29.0000
Z" /> 
<path style="fill:#D864FF; fill-opacity:0.4000; stroke:none;fill-rule:evenodd;"
d="M 30.5000,29.0000
30.5000,29.8000
30.3000,29.8000
30.3000,29.0000
Z" /> 
<path style="fill:#D864FF; fill-opacity:0.4000; stroke:none;fill-rule:evenodd;"
d="M 30.9000,29.0000
30.9000,29.8000
30.7000,29.8000
30.7000,29.0000
Z" /> 
<path style="fill:#D864FF; fill-opacity:0.4000; stroke:none;fill-rule:evenodd;"
d="M 31.9000,28.8000
31.1000,28.8000
31.1000,28.6000
31.9000,28.6000
Z" /> 
<path style="fill:#D864FF; fill-opacity:0.4000; stroke:none;fill-rule:evenodd;"
d="M 31.9000,28.4000
31.1000,28.4000
31.1000,28.2000
31.9000,28.2000
Z" /> 
<path style="fill:#D864FF; fill-opacity:0.4000; stroke:none;fill-rule:evenodd;"
d="M 31.9000,28.0000
31.1000,28.0000
31.1000,27.8000
31.9000,27.8000
Z" /> 
<path style="fill:#D864FF; fill-opacity:0.4000; stroke:none;fill-rule:evenodd;"
d="M 31.9000,27.6000
31.1000,27.6000
31.1000,27.4000
31.9000,27.4000
Z" /> 
<path style="fill:#D864FF; fill-opacity:0.4000; stroke:none;fill-rule:evenodd;"
d="M 31.9000,27.2000
31.1000,27.2000
31.1000,27.0000
31.9000,27.0000
Z" /> 
<path style="fill:#D864FF; fill-opacity:0.4000; stroke:none;fill-rule:evenodd;"
d="M 30.9000,26.0000
30.9000,26.8000
30.7000,26.8000
30.7000,26.0000
Z" /> 
<path style="fill:#D864FF; fill-opacity:0.4000; stroke:none;fill-rule:evenodd;"
d="M 30.5000,26.0000
30.5000,26.8000
30.3000,26.8000
30.3000,26.0000
Z" /> 
<path style="fill:#D864FF; fill-opacity:0.4000; stroke:none;fill-rule:evenodd;"
d="M 30.1000,26.0000
30.1000,26.8000
29.9000,26.8000
29.9000,26.0000
Z" /> 
<path style="fill:#D864FF; fill-opacity:0.4000; stroke:none;fill-rule:evenodd;"
d="M 29.7000,26.0000
29.7000,26.8000
29.5000,26.8000
29.5000,26.0000
Z" /> 
<path style="fill:#D864FF; fill-opacity:0.4000; stroke:none;fill-rule:evenodd;"
d="M 29.3000,26.0000
29.3000,26.8000
29.1000,26.8000
29.1000,26.0000
Z" /> 
<path style="fill:#D864FF; fill-opacity:0.4000; stroke:none;fill-rule:evenodd;"
d="M 28.1000,27.0000
28.9000,27.0000
28.9000,27.2000
28.1000,27.2000
Z" /> 
<path style="fill:#D864FF; fill-opacity:0.4000; stroke:none;fill-rule:evenodd;"
d="M 28.1000,27.4000
28.9000,27.4000
28.9000,27.6000
28.1000,27.6000
Z" /> 
<path style="fill:#D864FF; fill-opacity:0.4000; stroke:none;fill-rule:evenodd;"
d="M 28.1000,27.8000
28.9000,27.8000
28.9000,28.0000
28.1000,28.0000
Z" /> 
<path style="fill:#D864FF; fill-opacity:0.4000; stroke:none;fill-rule:evenodd;"
d="M 28.1000,28.2000
28.9000,28.2000
28.9000,28.4000
28.1000,28.4000
Z" /> 
<path style="fill:#D864FF; fill-opacity:0.4000; stroke:none;fill-rule:evenodd;"
d="M 28.1000,28.6000
28.9000,28.6000
28.9000,28.8000
28.1000,28.8000
Z" /> 
<path style="fill:#D864FF; fill-opacity:0.4000; stroke:none;fill-rule:evenodd;"
d="M 29.1500,27.0500
30.8500,27.0500
30.8500,28.7500
29.1500,28.7500
Z" /> 
<path style="fill:#D864FF; fill-opacity:0.4000; stroke:none;fill-rule:evenodd;"
d="M 28.8650,25.5000
28.8650,24.5000
29.8650,24.5000
29.8650,25.5000
Z" /> 
<path style="fill:#D864FF; fill-opacity:0.4000; stroke:none;fill-rule:evenodd;"
d="M 30.1350,31.9600
31.1350,31.9600
31.1350,32.9600
30.1350,32.9600
Z" /> 
<path style="fill:#D864FF; fill-opacity:0.4000; stroke:none;fill-rule:evenodd;"
d="M 31.4050,35.5000
31.4050,34.5000
32.4050,34.5000
32.4050,35.5000
Z" /> 
<path style="fill:#D864FF; fill-opacity:0.4000; stroke:none;fill-rule:evenodd;"
d="M 27.8850,29.2200
27.9367,29.2303
27.9805,29.2595
28.0097,29.3033
28.0200,29.3550
28.0200,29.6250
28.0097,29.6767
27.9805,29.7205
27.9367,29.7497
27.8850,29.7600
27.5150,29.7600
27.4633,29.7497
27.4195,29.7205
27.3903,29.6767
27.3800,29.6250
27.3800,29.3550
27.3903,29.3033
27.4195,29.2595
27.4633,29.2303
27.5150,29.2200
Z" /> 
<path style="fill:#D864FF; fill-opacity:0.4000; stroke:none;fill-rule:evenodd;"
d="M 27.8850,30.2400
27.9367,30.2503
27.9805,30.2795
28.0097,30.3233
28.0200,30.3750
28.0200,30.6450
28.0097,30.6967
27.9805,30.7405
27.9367,30.7697
27.8850,30.7800
27.5150,30.7800
27.4633,30.7697
27.4195,30.7405
27.3903,30.6967
27.3800,30.6450
27.3800,30.3750
27.3903,30.3233
27.4195,30.2795
27.4633,30.2503
27.5150,30.2400
Z" /> 
<path style="fill:#D864FF; fill-opacity:0.4000; stroke:none;fill-rule:evenodd;"
d="M 26.5000,33.8300
25.3000,33.8300
25.3000,32.4300
26.5000,32.4300
Z" /> 
<path style="fill:#D864FF; fill-opacity:0.4000; stroke:none;fill-rule:evenodd;"
d="M 26.5000,30.3700
25.3000,30.3700
25.3000,28.9700
26.5000,28.9700
Z" /> 
<path style="fill:#D864FF; fill-opacity:0.4000; stroke:none;fill-rule:evenodd;"
d="M 33.9450,25.5000
33.9450,24.5000
34.9450,24.5000
34.9450,25.5000
Z" /> 
</g>
<g style="fill:#D864FF; fill-opacity:0.4000; stroke:none;">
<circle cx="27.7500" cy="32.0000" r="0.5000" /> 
</g>
<g style="fill:#D864FF; fill-opacity:0.4000; stroke:none;">
<circle cx="32.2000" cy="32.0000" r="0.5000" /> 
<path style="fill:#D864FF; fill-opacity:0.4000; stroke:none;fill-rule:evenodd;"
d="M 33.6750,24.5000
33.6750,25.5000
32.6750,25.5000
32.6750,24.5000
Z" /> 
<path style="fill:#D864FF; fill-opacity:0.4000; stroke:none;fill-rule:evenodd;"
d="M 30.1350,35.5000
30.1350,34.5000
31.1350,34.5000
31.1350,35.5000
Z" /> 
<path style="fill:#D864FF; fill-opacity:0.4000; stroke:none;fill-rule:evenodd;"
d="M 30.1350,33.2300
31.1350,33.2300
31.1350,34.2300
30.1350,34.2300
Z" /> 
<path style="fill:#D864FF; fill-opacity:0.4000; stroke:none;fill-rule:evenodd;"
d="M 34.9850,26.2200
35.0367,26.2303
35.0805,26.2595
35.1097,26.3033
35.1200,26.3550
35.1200,26.6250
35.1097,26.6767
35.0805,26.7205
35.0367,26.7497
34.9850,26.7600
34.6150,26.7600
34.5633,26.7497
34.5195,26.7205
34.4903,26.6767
34.4800,26.6250
34.4800,26.3550
34.4903,26.3033
34.5195,26.2595
34.5633,26.2303
34.6150,26.2200
Z" /> 
<path style="fill:#D864FF; fill-opacity:0.4000; stroke:none;fill-rule:evenodd;"
d="M 34.9850,27.2400
35.0367,27.2503
35.0805,27.2795
35.1097,27.3233
35.1200,27.3750
35.1200,27.6450
35.1097,27.6967
35.0805,27.7405
35.0367,27.7697
34.9850,27.7800
34.6150,27.7800
34.5633,27.7697
34.5195,27.7405
34.4903,27.6967
34.4800,27.6450
34.4800,27.3750
34.4903,27.3233
34.5195,27.2795
34.5633,27.2503
34.6150,27.2400
Z" /> 
<path style="fill:#D864FF; fill-opacity:0.4000; stroke:none;fill-rule:evenodd;"
d="M 32.9850,26.8076
33.0367,26.8178
33.0805,26.8471
33.1097,26.8909
33.1200,26.9426
33.1200,27.2126
33.1097,27.2642
33.0805,27.3080
33.0367,27.3373
32.9850,27.3476
32.6150,27.3476
32.5633,27.3373
32.5195,27.3080
32.4903,27.2642
32.4800,27.2126
32.4800,26.9426
32.4903,26.8909
32.5195,26.8471
32.5633,26.8178
32.6150,26.8076
Z" /> 
<path style="fill:#D864FF; fill-opacity:0.4000; stroke:none;fill-rule:evenodd;"
d="M 32.9850,27.8276
33.0367,27.8378
33.0805,27.8671
33.1097,27.9109
33.1200,27.9626
33.1200,28.2326
33.1097,28.2842
33.0805,28.3280
33.0367,28.3573
32.9850,28.3676
32.6150,28.3676
32.5633,28.3573
32.5195,28.3280
32.4903,28.2842
32.4800,28.2326
32.4800,27.9626
32.4903,27.9109
32.5195,27.8671
32.5633,27.8378
32.6150,27.8276
Z" /> 
<path style="fill:#D864FF; fill-opacity:0.4000; stroke:none;fill-rule:evenodd;"
d="M 33.9450,35.5000
33.9450,34.5000
34.9450,34.5000
34.9450,35.5000
Z" /> 
</g>
<g style="fill:#D864FF; fill-opacity:0.4000; stroke:none;">
<circle cx="24.0000" cy="26.5000" r="0.5000" /> 
<path style="fill:#D864FF; fill-opacity:0.4000; stroke:none;fill-rule:evenodd;"
d="M 32.6750,35.5000
32.6750,34.5000
33.6750,34.5000
33.6750,35.5000
Z" /> 
<path style="fill:#D864FF; fill-opacity:0.4000; stroke:none;fill-rule:evenodd;"
d="M 28.8650,35.5000
28.8650,34.5000
29.8650,34.5000
29.8650,35.5000
Z" /> 
<path style="fill:#D864FF; fill-opacity:0.4000; stroke:none;fill-rule:evenodd;"
d="M 25.4850,26.2200
25.5367,26.2303
25.5805,26.2595
25.6097,26.3033
25.6200,26.3550
25.6200,26.6250
25.6097,26.6767
25.5805,26.7205
25.5367,26.7497
25.4850,26.7600
25.1150,26.7600
25.0633,26.7497
25.0195,26.7205
24.9903,26.6767
24.9800,26.6250
24.9800,26.3550
24.9903,26.3033
25.0195,26.2595
25.0633,26.2303
25.1150,26.2200
Z" /> 
<path style="fill:#D864FF; fill-opacity:0.4000; stroke:none;fill-rule:evenodd;"
d="M 25.4850,27.2400
25.5367,27.2503
25.5805,27.2795
25.6097,27.3233
25.6200,27.3750
25.6200,27.6450
25.6097,27.6967
25.5805,27.7405
25.5367,27.7697
25.4850,27.7800
25.1150,27.7800
25.0633,27.7697
25.0195,27.7405
24.9903,27.6967
24.9800,27.6450
24.9800,27.3750
24.9903,27.3233
25.0195,27.2795
25.0633,27.2503
25.1150,27.2400
Z" /> 
<path style="fill:#D864FF; fill-opacity:0.4000; stroke:none;fill-rule:evenodd;"
d="M 26.3250,25.5000
26.3250,24.5000
27.3250,24.5000
27.3250,25.5000
Z" /> 
<path style="fill:#D864FF; fill-opacity:0.4000; stroke:none;fill-rule:evenodd;"
d="M 28.8650,33.2300
29.8650,33.2300
29.8650,34.2300
28.8650,34.2300
Z" /> 
<path style="fill:#D864FF; fill-opacity:0.4000; stroke:none;fill-rule:evenodd;"
d="M 28.8650,31.9600
29.8650,31.9600
29.8650,32.9600
28.8650,32.9600
Z" /> 
<path style="fill:#D864FF; fill-opacity:0.4000; stroke:none;fill-rule:evenodd;"
d="M 26.3250,35.5000
26.3250,34.5000
27.3250,34.5000
27.3250,35.5000
Z" /> 
<path style="fill:#D864FF; fill-opacity:0.4000; stroke:none;fill-rule:evenodd;"
d="M 37.0800,28.2850
37.0697,28.3367
37.0405,28.3805
36.9967,28.4097
36.9450,28.4200
36.6750,28.4200
36.6233,28.4097
36.5795,28.3805
36.5503,28.3367
36.5400,28.2850
36.5400,27.9150
36.5503,27.8633
36.5795,27.8195
36.6233,27.7903
36.6750,27.7800
36.9450,27.7800
36.9967,27.7903
37.0405,27.8195
37.0697,27.8633
37.0800,27.9150
Z" /> 
<path style="fill:#D864FF; fill-opacity:0.4000; stroke:none;fill-rule:evenodd;"
d="M 36.0600,28.2850
36.0497,28.3367
36.0205,28.3805
35.9767,28.4097
35.9250,28.4200
35.6550,28.4200
35.6033,28.4097
35.5595,28.3805
35.5303,28.3367
35.5200,28.2850
35.5200,27.9150
35.5303,27.8633
35.5595,27.8195
35.6033,27.7903
35.6550,27.7800
35.9250,27.7800
35.9767,27.7903
36.0205,27.8195
36.0497,27.8633
36.0600,27.9150
Z" /> 
<path style="fill:#D864FF; fill-opacity:0.4000; stroke:none;fill-rule:evenodd;"
d="M 34.7000,33.8300
33.5000,33.8300
33.5000,32.4300
34.7000,32.4300
Z" /> 
<path style="fill:#D864FF; fill-opacity:0.4000; stroke:none;fill-rule:evenodd;"
d="M 34.7000,30.3700
33.5000,30.3700
33.5000,28.9700
34.7000,28.9700
Z" /> 
<path style="fill:#D864FF; fill-opacity:0.4000; stroke:none;fill-rule:evenodd;"
d="M 31.4050,25.5000
31.4050,24.5000
32.4050,24.5000
32.4050,25.5000
Z" /> 
<path style="fill:#D864FF; fill-opacity:0.4000; stroke:none;fill-rule:evenodd;"
d="M 27.5950,25.5000
27.5950,24.5000
28.5950,24.5000
28.5950,25.5000
Z" /> 
<path style="fill:#D864FF; fill-opacity:0.4000; stroke:none;fill-rule:evenodd;"
d="M 25.0550,35.5000
25.0550,34.5000
26.0550,34.5000
26.0550,35.5000
Z" /> 
<path style="fill:#02FFEE; fill-opacity:0.4000; stroke:none;fill-rule:evenodd;"
d="M 27.5950,35.5000
27.5950,34.5000
28.5950,34.5000
28.5950,35.5000
Z" /> 
<path style="fill:#02FFEE; fill-opacity:0.4000; stroke:none;fill-rule:evenodd;"
d="M 25.0550,25.5000
25.0550,24.5000
26.0550,24.5000
26.0550,25.5000
Z" /> 
<path style="fill:#02FFEE; fill-opacity:0.4000; stroke:none;fill-rule:evenodd;"
d="M 30.1350,25.5000
30.1350,24.5000
31.1350,24.5000
31.1350,25.5000
Z" /> 
<path style="fill:#02FFEE; fill-opacity:0.4000; stroke:none;fill-rule:evenodd;"
d="M 28.8650,25.5000
28.8650,24.5000
29.8650,24.5000
29.8650,25.5000
Z" /> 
<path style="fill:#02FFEE; fill-opacity:0.4000; stroke:none;fill-rule:evenodd;"
d="M 30.1350,31.9600
31.1350,31.9600
31.1350,32.9600
30.1350,32.9600
Z" /> 
<path style="fill:#02FFEE; fill-opacity:0.4000; stroke:none;fill-rule:evenodd;"
d="M 31.4050,35.5000
31.4050,34.5000
32.4050,34.5000
32.4050,35.5000
Z" /> 
<path style="fill:#02FFEE; fill-opacity:0.4000; stroke:none;fill-rule:evenodd;"
d="M 33.9450,25.5000
33.9450,24.5000
34.9450,24.5000
34.9450,25.5000
Z" /> 
<path style="fill:#02FFEE; fill-opacity:0.4000; stroke:none;fill-rule:evenodd;"
d="M 33.6750,24.5000
33.6750,25.5000
32.6750,25.5000
32.6750,24.5000
Z" /> 
<path style="fill:#02FFEE; fill-opacity:0.4000; stroke:none;fill-rule:evenodd;"
d="M 30.1350,35.5000
30.1350,34.5000
31.1350,34.5000
31.1350,35.5000
Z" /> 
<path style="fill:#02FFEE; fill-opacity:0.4000; stroke:none;fill-rule:evenodd;"
d="M 30.1350,33.2300
31.1350,33.2300
31.1350,34.2300
30.1350,34.2300
Z" /> 
<path style="fill:#02FFEE; fill-opacity:0.4000; stroke:none;fill-rule:evenodd;"
d="M 33.9450,35.5000
33.9450,34.5000
34.9450,34.5000
34.9450,35.5000
Z" /> 
<path style="fill:#02FFEE; fill-opacity:0.4000; stroke:none;fill-rule:evenodd;"
d="M 32.6750,35.5000
32.6750,34.5000
33.6750,34.5000
33.6750,35.5000
Z" /> 
<path style="fill:#02FFEE; fill-opacity:0.4000; stroke:none;fill-rule:evenodd;"
d="M 28.8650,35.5000
28.8650,34.5000
29.8650,34.5000
29.8650,35.5000
Z" /> 
<path style="fill:#02FFEE; fill-opacity:0.4000; stroke:none;fill-rule:evenodd;"
d="M 26.3250,25.5000
26.3250,24.5000
27.3250,24.5000
27.3250,25.5000
Z" /> 
<path style="fill:#02FFEE; fill-opacity:0.4000; stroke:none;fill-rule:evenodd;"
d="M 28.8650,33.2300
29.8650,33.2300
29.8650,34.2300
28.8650,34.2300
Z" /> 
<path style="fill:#02FFEE; fill-opacity:0.4000; stroke:none;fill-rule:evenodd;"
d="M 28.8650,31.9600
29.8650,31.9600
29.8650,32.9600
28.8650,32.9600
Z" /> 
<path style="fill:#02FFEE; fill-opacity:0.4000; stroke:none;fill-rule:evenodd;"
d="M 26.3250,35.5000
26.3250,34.5000
27.3250,34.5000
27.3250,35.5000
Z" /> 
<path style="fill:#02FFEE; fill-opacity:0.4000; stroke:none;fill-rule:evenodd;"
d="M 31.4050,25.5000
31.4050,24.5000
32.4050,24.5000
32.4050,25.5000
Z" /> 
<path style="fill:#02FFEE; fill-opacity:0.4000; stroke:none;fill-rule:evenodd;"
d="M 27.5950,25.5000
27.5950,24.5000
28.5950,24.5000
28.5950,25.5000
Z" /> 
<path style="fill:#02FFEE; fill-opacity:0.4000; stroke:none;fill-rule:evenodd;"
d="M 25.0550,35.5000
25.0550,34.5000
26.0550,34.5000
26.0550,35.5000
Z" /> 
<path style="fill:#02FFEE; fill-opacity:0.4000; stroke:none;fill-rule:evenodd;"
d="M 30.6800,31.3950
29.3200,31.3950
29.3200,30.1650
30.6800,30.1650
Z" /> 
<path style="fill:#02FFEE; fill-opacity:0.4000; stroke:none;fill-rule:evenodd;"
d="M 30.6800,27.0350
29.3200,27.0350
29.3200,25.8050
30.6800,25.8050
Z" /> 
</g>
<g style="fill:none; 
stroke:#02FFEE; stroke-width:0.5900; stroke-opacity:1; 
stroke-linecap:round; stroke-linejoin:round;">
<path d="M23.4900 26.6000
L23.4900 28.0600
" />
<path d="M24.7700 26.6000
L24.7700 28.0600
" />
<path d="M26.0300 26.6000
L26.0300 28.0600
" />
<path d="M27.3000 26.6000
L27.3000 28.0600
" />
<path d="M27.3000 32.1400
L27.3000 33.6000
" />
<path d="M26.0300 32.1400
L26.0300 33.6000
" />
<path d="M24.7700 32.1400
L24.7700 33.6000
" />
<path d="M23.4900 32.1400
L23.4900 33.6000
" />
<path d="M32.6900 26.6000
L32.6900 28.0600
" />
<path d="M33.9700 26.6000
L33.9700 28.0600
" />
<path d="M35.2300 26.6000
L35.2300 28.0600
" />
<path d="M36.5000 26.6000
L36.5000 28.0600
" />
<path d="M36.5000 32.1400
L36.5000 33.6000
" />
<path d="M35.2300 32.1400
L35.2300 33.6000
" />
<path d="M33.9700 32.1400
L33.9700 33.6000
" />
<path d="M32.6900 32.1400
L32.6900 33.6000
" />
</g> 
</svg>
