<?xml version="1.0" standalone="no"?>
 <!DOCTYPE svg PUBLIC "-//W3C//DTD SVG 1.1//EN" 
 "http://www.w3.org/Graphics/SVG/1.1/DTD/svg11.dtd"> 
<svg
  xmlns:svg="http://www.w3.org/2000/svg"
  xmlns="http://www.w3.org/2000/svg"
  xmlns:xlink="http://www.w3.org/1999/xlink"
  version="1.1"
  width="22.9870mm" height="55.9816mm" viewBox="0.0000 0.0000 22.9870 55.9816">
<title>SVG Image created as S_PICO-Front.svg date 2026/01/04 18:16:17 </title>
  <desc>Image generated by PCBNEW </desc>
<g style="fill:#000000; fill-opacity:1.0000;stroke:#000000; stroke-opacity:1.0000;
stroke-linecap:round; stroke-linejoin:round;"
 transform="translate(0 0) scale(1 1)">
<path style="fill:#000000; fill-opacity:1.0000; stroke:none;fill-rule:evenodd;"
d="M 10.6000,47.5950
10.5799,47.7730
10.5208,47.9421
10.4255,48.0938
10.2988,48.2205
10.1471,48.3158
9.9780,48.3749
9.8000,48.3950
9.7000,48.3950
9.5220,48.3749
9.3529,48.3158
9.2012,48.2205
9.0745,48.0938
8.9792,47.9421
8.9201,47.7730
8.9000,47.5950
8.9000,46.6950
8.9201,46.5170
8.9792,46.3479
9.0745,46.1962
9.2012,46.0695
9.3529,45.9742
9.5220,45.9151
9.7000,45.8950
9.8000,45.8950
9.9780,45.9151
10.1471,45.9742
10.2988,46.0695
10.4255,46.1962
10.5208,46.3479
10.5799,46.5170
10.6000,46.6950
Z" /> 
<path style="fill:#000000; fill-opacity:1.0000; stroke:none;fill-rule:evenodd;"
d="M 11.9500,43.9950
12.1280,44.0151
12.2971,44.0742
12.4488,44.1695
12.5755,44.2962
12.6708,44.4479
12.7299,44.6170
12.7500,44.7950
12.7500,44.8950
12.7299,45.0730
12.6708,45.2421
12.5755,45.3938
12.4488,45.5205
12.2971,45.6158
12.1280,45.6749
11.9500,45.6950
11.0500,45.6950
10.8720,45.6749
10.7029,45.6158
10.5512,45.5205
10.4245,45.3938
10.3292,45.2421
10.2701,45.0730
10.2500,44.8950
10.2500,44.7950
10.2701,44.6170
10.3292,44.4479
10.4245,44.2962
10.5512,44.1695
10.7029,44.0742
10.8720,44.0151
11.0500,43.9950
Z" /> 
<path style="fill:#000000; fill-opacity:1.0000; stroke:none;fill-rule:evenodd;"
d="M 14.1000,47.5950
14.0799,47.7730
14.0208,47.9421
13.9255,48.0938
13.7988,48.2205
13.6471,48.3158
13.4780,48.3749
13.3000,48.3950
13.2000,48.3950
13.0220,48.3749
12.8529,48.3158
12.7012,48.2205
12.5745,48.0938
12.4792,47.9421
12.4201,47.7730
12.4000,47.5950
12.4000,46.6950
12.4201,46.5170
12.4792,46.3479
12.5745,46.1962
12.7012,46.0695
12.8529,45.9742
13.0220,45.9151
13.2000,45.8950
13.3000,45.8950
13.4780,45.9151
13.6471,45.9742
13.7988,46.0695
13.9255,46.1962
14.0208,46.3479
14.0799,46.5170
14.1000,46.6950
Z" /> 
<path style="fill:#000000; fill-opacity:1.0000; stroke:none;fill-rule:evenodd;"
d="M 12.2000,50.4950
12.3780,50.5151
12.5471,50.5742
12.6988,50.6695
12.8255,50.7962
12.9208,50.9479
12.9799,51.1170
13.0000,51.2950
13.0000,51.3950
12.9799,51.5730
12.9208,51.7421
12.8255,51.8938
12.6988,52.0205
12.5471,52.1158
12.3780,52.1749
12.2000,52.1950
10.8000,52.1950
10.6220,52.1749
10.4529,52.1158
10.3012,52.0205
10.1745,51.8938
10.0792,51.7421
10.0201,51.5730
10.0000,51.3950
10.0000,51.2950
10.0201,51.1170
10.0792,50.9479
10.1745,50.7962
10.3012,50.6695
10.4529,50.5742
10.6220,50.5151
10.8000,50.4950
Z" /> 
<path style="fill:#000000; fill-opacity:1.0000; stroke:none;fill-rule:evenodd;"
d="M 10.7300,3.7700
9.7300,3.7700
9.7300,2.7700
10.7300,2.7700
Z" /> 
</g>
<g style="fill:#000000; fill-opacity:1.0000; stroke:none;">
<circle cx="11.5000" cy="3.2700" r="0.5000" /> 
<circle cx="12.7700" cy="3.2700" r="0.5000" /> 
<path style="fill:#000000; fill-opacity:1.0000; stroke:none;fill-rule:evenodd;"
d="M 11.0000,1.5000
12.0000,1.5000
12.0000,2.5000
11.0000,2.5000
Z" /> 
<circle cx="10.2300" cy="2.0000" r="0.5000" /> 
<path style="fill:#000000; fill-opacity:1.0000; stroke:none;fill-rule:evenodd;"
d="M 19.5400,3.7200
19.5400,2.0200
21.2400,2.0200
21.2400,3.7200
Z" /> 
<circle cx="20.3900" cy="5.4100" r="0.8500" /> 
<circle cx="20.3900" cy="7.9500" r="0.8500" /> 
<circle cx="20.3900" cy="10.4900" r="0.8500" /> 
<circle cx="20.3900" cy="13.0300" r="0.8500" /> 
<circle cx="20.3900" cy="15.5700" r="0.8500" /> 
<circle cx="20.3900" cy="18.1100" r="0.8500" /> 
<circle cx="20.3900" cy="20.6500" r="0.8500" /> 
<circle cx="20.3900" cy="23.1900" r="0.8500" /> 
<circle cx="20.3900" cy="25.7300" r="0.8500" /> 
<circle cx="20.3900" cy="28.2700" r="0.8500" /> 
<circle cx="20.3900" cy="30.8100" r="0.8500" /> 
<circle cx="20.3900" cy="33.3500" r="0.8500" /> 
<circle cx="20.3900" cy="35.8900" r="0.8500" /> 
<circle cx="20.3900" cy="38.4300" r="0.8500" /> 
<circle cx="20.3900" cy="40.9700" r="0.8500" /> 
<circle cx="20.3900" cy="43.5100" r="0.8500" /> 
<circle cx="20.3900" cy="46.0500" r="0.8500" /> 
<circle cx="20.3900" cy="48.5900" r="0.8500" /> 
<circle cx="20.3900" cy="51.1300" r="0.8500" /> 
<path style="fill:#000000; fill-opacity:1.0000; stroke:none;fill-rule:evenodd;"
d="M 1.7600,3.7200
1.7600,2.0200
3.4600,2.0200
3.4600,3.7200
Z" /> 
<circle cx="2.6100" cy="5.4100" r="0.8500" /> 
<circle cx="2.6100" cy="7.9500" r="0.8500" /> 
<circle cx="2.6100" cy="10.4900" r="0.8500" /> 
<circle cx="2.6100" cy="13.0300" r="0.8500" /> 
<circle cx="2.6100" cy="15.5700" r="0.8500" /> 
<circle cx="2.6100" cy="18.1100" r="0.8500" /> 
<circle cx="2.6100" cy="20.6500" r="0.8500" /> 
<circle cx="2.6100" cy="23.1900" r="0.8500" /> 
<circle cx="2.6100" cy="25.7300" r="0.8500" /> 
<circle cx="2.6100" cy="28.2700" r="0.8500" /> 
<circle cx="2.6100" cy="30.8100" r="0.8500" /> 
<circle cx="2.6100" cy="33.3500" r="0.8500" /> 
<circle cx="2.6100" cy="35.8900" r="0.8500" /> 
<circle cx="2.6100" cy="38.4300" r="0.8500" /> 
<circle cx="2.6100" cy="40.9700" r="0.8500" /> 
<circle cx="2.6100" cy="43.5100" r="0.8500" /> 
<circle cx="2.6100" cy="46.0500" r="0.8500" /> 
<circle cx="2.6100" cy="48.5900" r="0.8500" /> 
<circle cx="2.6100" cy="51.1300" r="0.8500" /> 
<circle cx="7.6000" cy="49.4000" r="0.2000" /> 
</g>
<g style="fill:#000000; fill-opacity:1.0000; stroke:none;">
<circle cx="14.3000" cy="28.8000" r="0.2000" /> 
</g>
<g style="fill:#000000; fill-opacity:1.0000; stroke:none;">
<circle cx="14.0000" cy="35.8000" r="0.2000" /> 
</g>
<g style="fill:#000000; fill-opacity:1.0000; stroke:none;">
<circle cx="8.5000" cy="28.1000" r="0.2000" /> 
</g>
<g style="fill:#000000; fill-opacity:1.0000; stroke:none;">
<circle cx="18.6000" cy="39.2000" r="0.2000" /> 
</g>
<g style="fill:#000000; fill-opacity:1.0000; stroke:none;">
<circle cx="14.7000" cy="35.3000" r="0.2000" /> 
</g>
<g style="fill:#000000; fill-opacity:1.0000; stroke:none;">
<circle cx="11.6000" cy="37.2600" r="0.2000" /> 
</g>
<g style="fill:#000000; fill-opacity:1.0000; stroke:none;">
<circle cx="6.7250" cy="25.4500" r="0.2000" /> 
</g>
<g style="fill:#000000; fill-opacity:1.0000; stroke:none;">
<circle cx="6.7250" cy="23.0000" r="0.2000" /> 
</g>
<g style="fill:none; 
stroke:#000000; stroke-width:0.1500; stroke-opacity:1; 
stroke-linecap:round; stroke-linejoin:round;">
<path d="M13.5250 39.4750
L13.5250 29.5750
" />
<path d="M8.1000 48.9000
L8.1000 44.9000
" />
<path d="M13.5250 29.5750
L14.3000 28.8000
" />
<path d="M8.1000 44.9000
L13.5250 39.4750
" />
<path d="M7.6000 49.4000
L8.1000 48.9000
" />
<path d="M19.8300 38.4300
L20.3900 38.4300
" />
<path d="M17.2000 35.8000
L19.8300 38.4300
" />
<path d="M14.0000 35.8000
L17.2000 35.8000
" />
<path d="M8.5000 28.1000
L8.5000 26.2250
" />
<path d="M12.7700 21.9550
L12.7700 3.2700
" />
<path d="M8.5000 26.2250
L12.7700 21.9550
" />
<path d="M18.6000 50.5000
L19.2300 51.1300
" />
<path d="M18.6000 39.2000
L18.6000 50.5000
" />
<path d="M19.2300 51.1300
L20.3900 51.1300
" />
<path d="M19.8000 35.3000
L14.7000 35.3000
" />
<path d="M20.3900 35.8900
L19.8000 35.3000
" />
<path d="M11.5000 3.2700
L11.5000 20.6750
" />
<path d="M6.8880 34.8880
L6.8880 25.5880
" />
<path d="M11.6000 37.2600
L9.2600 37.2600
" />
<path d="M11.5000 20.6750
L6.7250 25.4500
" />
<path d="M6.7500 25.4500
L6.7250 25.4500
" />
<path d="M6.8880 25.5880
L6.7500 25.4500
" />
<path d="M9.2600 37.2600
L6.8880 34.8880
" />
<path d="M10.2300 19.6700
L6.9000 23.0000
" />
<path d="M6.9000 23.0000
L6.7250 23.0000
" />
<path d="M10.2300 3.2700
L10.2300 19.6700
" />
<path style="fill:#000000; fill-opacity:1.0000; stroke:none;fill-rule:evenodd;"
d="M 9.7697,44.1467
9.8256,44.1886
9.8501,44.2540
9.8388,44.3153
9.8233,44.3485
9.8233,44.3485
9.7644,44.5683
9.7644,44.5683
9.7495,44.7382
9.7495,44.9518
9.7644,45.1217
9.7644,45.1217
9.8233,45.3415
9.8233,45.3415
9.9194,45.5477
9.9194,45.5477
9.9776,45.6308
9.9999,45.6970
10.0000,45.7019
10.0000,46.3793
9.9956,46.3749
9.9044,46.3223
9.8027,46.2950
9.6973,46.2950
9.5956,46.3223
9.5044,46.3749
9.5000,46.3793
9.5000,45.4075
9.4734,45.4099
9.4734,45.4099
9.2537,45.4687
9.2537,45.4687
9.0475,45.5649
8.8706,45.6887
8.8044,45.7111
8.7366,45.6940
8.6888,45.6431
8.6755,45.5872
8.6755,45.1897
8.6952,45.1227
8.7118,45.1021
9.1488,44.6650
9.6387,44.1752
9.7000,44.1417
Z" /> 
<path style="fill:#000000; fill-opacity:1.0000; stroke:none;fill-rule:evenodd;"
d="M 21.5054,0.5110
21.6610,0.5246
21.6823,0.5283
21.8280,0.5674
21.8483,0.5748
21.9849,0.6385
22.0036,0.6493
22.1272,0.7358
22.1437,0.7497
22.2503,0.8563
22.2642,0.8728
22.3507,0.9964
22.3615,1.0151
22.4252,1.1517
22.4326,1.1720
22.4717,1.3177
22.4754,1.3390
22.4890,1.4946
22.4895,1.5054
22.4895,51.9946
22.4890,52.0054
22.4890,52.0054
22.4754,52.1610
22.4717,52.1823
22.4326,52.3279
22.4252,52.3483
22.3615,52.4849
22.3507,52.5036
22.2642,52.6272
22.2503,52.6437
22.1437,52.7503
22.1272,52.7642
22.0036,52.8507
21.9849,52.8615
21.8483,52.9252
21.8279,52.9326
21.6823,52.9717
21.6610,52.9754
21.5272,52.9871
21.5054,52.9890
21.4946,52.9895
1.5054,52.9895
1.4946,52.9890
1.4696,52.9868
1.3390,52.9754
1.3177,52.9717
1.1720,52.9326
1.1517,52.9252
1.0151,52.8615
0.9964,52.8507
0.8728,52.7642
0.8563,52.7503
0.7497,52.6437
0.7358,52.6272
0.6493,52.5036
0.6385,52.4849
0.5748,52.3483
0.5674,52.3279
0.5283,52.1823
0.5246,52.1610
0.5245,52.1601
0.5110,52.0054
0.5105,51.9946
0.5105,1.9721
1.2595,1.9721
1.2595,3.7679
1.2595,3.7679
1.2659,3.8275
1.3162,3.9623
1.3162,3.9623
1.4025,4.0775
1.4025,4.0775
1.5177,4.1638
1.5177,4.1638
1.6491,4.2128
1.7050,4.2547
1.7294,4.3201
1.7146,4.3884
1.6934,4.4167
1.5799,4.5302
1.4550,4.7022
1.3584,4.8916
1.2928,5.0938
1.2595,5.3037
1.2595,5.5163
1.2919,5.7206
1.2928,5.7262
1.3459,5.8897
1.3584,5.9284
1.4550,6.1178
1.5799,6.2898
1.7302,6.4401
1.9022,6.5650
1.9022,6.5650
1.9022,6.5651
1.9115,6.5698
1.9623,6.6178
1.9791,6.6856
1.9566,6.7517
1.9115,6.7908
1.9024,6.7954
1.7305,6.9203
1.7305,6.9203
1.5803,7.0705
1.5803,7.0705
1.4554,7.2424
1.3589,7.4318
1.2932,7.6339
1.2932,7.6339
1.2828,7.7000
2.1770,7.7000
2.1441,7.7570
2.1100,7.8842
2.1100,8.0158
2.1441,8.1430
2.1770,8.2000
1.2828,8.2000
1.2932,8.2661
1.2932,8.2661
1.3589,8.4682
1.4554,8.6576
1.5803,8.8295
1.5803,8.8295
1.7305,8.9797
1.7305,8.9797
1.9024,9.1046
1.9115,9.1092
1.9623,9.1572
1.9791,9.2250
1.9566,9.2912
1.9115,9.3302
1.9022,9.3349
1.7302,9.4599
1.5799,9.6102
1.4550,9.7822
1.3584,9.9716
1.2928,10.1738
1.2595,10.3837
1.2595,10.5963
1.2928,10.8062
1.3584,11.0084
1.4550,11.1978
1.5799,11.3698
1.7302,11.5201
1.9022,11.6450
1.9109,11.6495
1.9617,11.6975
1.9785,11.7653
1.9560,11.8314
1.9109,11.8705
1.9022,11.8749
1.7302,11.9999
1.5799,12.1502
1.4550,12.3222
1.3584,12.5116
1.2928,12.7138
1.2595,12.9237
1.2595,13.1363
1.2928,13.3462
1.3584,13.5484
1.4550,13.7378
1.5799,13.9098
1.7302,14.0601
1.9022,14.1850
1.9109,14.1895
1.9617,14.2375
1.9785,14.3053
1.9560,14.3714
1.9109,14.4105
1.9022,14.4149
1.7302,14.5399
1.5799,14.6902
1.4550,14.8622
1.3584,15.0516
1.2928,15.2538
1.2595,15.4637
1.2595,15.6763
1.2928,15.8862
1.3584,16.0884
1.4550,16.2778
1.5799,16.4498
1.7302,16.6001
1.9022,16.7250
1.9109,16.7295
1.9617,16.7775
1.9785,16.8453
1.9560,16.9114
1.9109,16.9505
1.9022,16.9549
1.7302,17.0799
1.5799,17.2302
1.4550,17.4022
1.3584,17.5916
1.2928,17.7938
1.2595,18.0037
1.2595,18.2163
1.2928,18.4262
1.3584,18.6284
1.4550,18.8178
1.5799,18.9898
1.7302,19.1401
1.9022,19.2650
1.9022,19.2650
1.9022,19.2651
1.9115,19.2698
1.9623,19.3178
1.9791,19.3856
1.9566,19.4517
1.9115,19.4908
1.9024,19.4954
1.7305,19.6203
1.7305,19.6203
1.5803,19.7705
1.5803,19.7705
1.4554,19.9424
1.3589,20.1318
1.2932,20.3339
1.2932,20.3339
1.2828,20.4000
2.1770,20.4000
2.1441,20.4570
2.1100,20.5842
2.1100,20.7158
2.1441,20.8430
2.1770,20.9000
1.2828,20.9000
1.2932,20.9661
1.2932,20.9661
1.3589,21.1682
1.4554,21.3576
1.5803,21.5295
1.5803,21.5295
1.7305,21.6797
1.7305,21.6797
1.9024,21.8046
1.9115,21.8092
1.9623,21.8572
1.9791,21.9250
1.9566,21.9912
1.9115,22.0302
1.9022,22.0349
1.7302,22.1599
1.7302,22.1599
1.5799,22.3102
1.5799,22.3102
1.4550,22.4822
1.3584,22.6716
1.2928,22.8738
1.2837,22.9310
1.2595,23.0837
1.2595,23.2963
1.2695,23.3596
1.2833,23.4465
1.2928,23.5062
1.3559,23.7005
1.3584,23.7084
1.4550,23.8978
1.5799,24.0698
1.7302,24.2201
1.9022,24.3451
1.9109,24.3495
1.9617,24.3975
1.9785,24.4653
1.9560,24.5314
1.9109,24.5705
1.9022,24.5749
1.7302,24.6999
1.5799,24.8502
1.4550,25.0222
1.3584,25.2116
1.2928,25.4138
1.2595,25.6237
1.2595,25.8363
1.2928,26.0462
1.3584,26.2484
1.4550,26.4378
1.5799,26.6098
1.7302,26.7601
1.9022,26.8850
1.9109,26.8895
1.9617,26.9375
1.9785,27.0053
1.9560,27.0714
1.9109,27.1105
1.9022,27.1149
1.7302,27.2399
1.5799,27.3902
1.4550,27.5622
1.3584,27.7516
1.2928,27.9538
1.2595,28.1637
1.2595,28.3763
1.2928,28.5862
1.3365,28.7208
1.3584,28.7884
1.4550,28.9778
1.5799,29.1498
1.7302,29.3001
1.9022,29.4250
1.9109,29.4295
1.9617,29.4775
1.9785,29.5453
1.9560,29.6114
1.9109,29.6505
1.9022,29.6549
1.7302,29.7799
1.5799,29.9302
1.4550,30.1022
1.3584,30.2916
1.2928,30.4938
1.2595,30.7037
1.2595,30.9163
1.2928,31.1262
1.3584,31.3284
1.4550,31.5178
1.5799,31.6898
1.7302,31.8401
1.9022,31.9650
1.9022,31.9650
1.9022,31.9651
1.9115,31.9698
1.9623,32.0178
1.9791,32.0856
1.9566,32.1517
1.9115,32.1908
1.9024,32.1954
1.7305,32.3203
1.7305,32.3203
1.5803,32.4705
1.5803,32.4705
1.4554,32.6424
1.3589,32.8318
1.2932,33.0339
1.2932,33.0339
1.2828,33.1000
2.1770,33.1000
2.1441,33.1570
2.1100,33.2842
2.1100,33.4158
2.1441,33.5430
2.1770,33.6000
1.2828,33.6000
1.2932,33.6661
1.2932,33.6661
1.3589,33.8682
1.4554,34.0576
1.5803,34.2295
1.5803,34.2295
1.7305,34.3797
1.7305,34.3797
1.9024,34.5046
1.9115,34.5092
1.9623,34.5572
1.9791,34.6250
1.9566,34.6912
1.9115,34.7302
1.9022,34.7349
1.7302,34.8599
1.5799,35.0102
1.4550,35.1822
1.3584,35.3716
1.2928,35.5738
1.2595,35.7837
1.2595,35.9963
1.2928,36.2062
1.3541,36.3952
1.3584,36.4084
1.4550,36.5978
1.5799,36.7698
1.7302,36.9201
1.9022,37.0450
1.9109,37.0495
1.9617,37.0975
1.9785,37.1653
1.9560,37.2314
1.9109,37.2705
1.9022,37.2749
1.7302,37.3999
1.5799,37.5502
1.4550,37.7222
1.3584,37.9116
1.2928,38.1138
1.2595,38.3237
1.2595,38.5363
1.2784,38.6559
1.2928,38.7462
1.2951,38.7535
1.3584,38.9484
1.4550,39.1378
1.5799,39.3098
1.7302,39.4601
1.9022,39.5850
1.9109,39.5895
1.9617,39.6375
1.9785,39.7053
1.9560,39.7714
1.9109,39.8105
1.9022,39.8149
1.7302,39.9399
1.5799,40.0902
1.4550,40.2622
1.3584,40.4516
1.2928,40.6538
1.2595,40.8637
1.2595,41.0763
1.2928,41.2862
1.3584,41.4884
1.4550,41.6778
1.5799,41.8498
1.7302,42.0001
1.9022,42.1250
1.9109,42.1295
1.9617,42.1775
1.9785,42.2453
1.9560,42.3114
1.9109,42.3505
1.9022,42.3549
1.7302,42.4799
1.5799,42.6302
1.4550,42.8022
1.3584,42.9916
1.2928,43.1938
1.2627,43.3837
1.2595,43.4037
1.2595,43.6163
1.2695,43.6796
1.2928,43.8262
1.3584,44.0284
1.4550,44.2178
1.5799,44.3898
1.7302,44.5401
1.9022,44.6650
1.9022,44.6650
1.9022,44.6651
1.9115,44.6698
1.9623,44.7178
1.9791,44.7856
1.9566,44.8517
1.9115,44.8908
1.9024,44.8954
1.7305,45.0203
1.7305,45.0203
1.5803,45.1705
1.5803,45.1705
1.4554,45.3424
1.3589,45.5318
1.2932,45.7339
1.2932,45.7339
1.2828,45.8000
2.1770,45.8000
2.1441,45.8570
2.1100,45.9842
2.1100,46.1158
2.1441,46.2430
2.1770,46.3000
1.2828,46.3000
1.2932,46.3661
1.2932,46.3661
1.3589,46.5682
1.4554,46.7576
1.5803,46.9295
1.5803,46.9295
1.7305,47.0797
1.7305,47.0797
1.9024,47.2046
1.9115,47.2092
1.9623,47.2572
1.9791,47.3250
1.9566,47.3912
1.9115,47.4302
1.9022,47.4349
1.7302,47.5599
1.5799,47.7102
1.4550,47.8822
1.3584,48.0716
1.2928,48.2738
1.2674,48.4338
1.2595,48.4837
1.2595,48.6963
1.2643,48.7264
1.2726,48.7792
1.2928,48.9062
1.3454,49.0682
1.3584,49.1084
1.4550,49.2978
1.5799,49.4698
1.7302,49.6201
1.9022,49.7450
1.9109,49.7495
1.9617,49.7975
1.9785,49.8653
1.9560,49.9314
1.9109,49.9705
1.9022,49.9749
1.7302,50.0999
1.5799,50.2502
1.4550,50.4222
1.3584,50.6116
1.2928,50.8138
1.2865,50.8534
1.2595,51.0237
1.2595,51.2363
1.2928,51.4462
1.3498,51.6217
1.3584,51.6484
1.4550,51.8378
1.5799,52.0098
1.7302,52.1601
1.9022,52.2850
1.9022,52.2850
1.9022,52.2851
2.0916,52.3816
2.2938,52.4472
2.5037,52.4805
2.5037,52.4805
2.7163,52.4805
2.7163,52.4805
2.9262,52.4472
3.1284,52.3816
3.3178,52.2851
3.3398,52.2691
3.4898,52.1601
3.4898,52.1601
3.4898,52.1601
3.6401,52.0098
3.6401,52.0098
3.6401,52.0098
3.7650,51.8378
3.7651,51.8378
3.7651,51.8378
3.8616,51.6484
3.9272,51.4462
3.9602,51.2382
9.4995,51.2382
9.4995,51.4518
9.5144,51.6217
9.5144,51.6217
9.5733,51.8415
9.5733,51.8415
9.6694,52.0477
9.6694,52.0477
9.8000,52.2341
9.9609,52.3950
9.9609,52.3950
10.1473,52.5256
10.3535,52.6217
10.5733,52.6806
10.7432,52.6955
10.7432,52.6955
10.7432,52.6955
12.2568,52.6955
12.2568,52.6955
12.4267,52.6806
12.6465,52.6217
12.8527,52.5256
13.0391,52.3950
13.2000,52.2341
13.3306,52.0477
13.4267,51.8415
13.4856,51.6217
13.5005,51.4518
13.5005,51.2382
13.4856,51.0683
13.4280,50.8534
13.4267,50.8485
13.4267,50.8485
13.3678,50.7221
13.3306,50.6423
13.2000,50.4559
13.2000,50.4559
13.0391,50.2950
12.8527,50.1644
12.8527,50.1644
12.6465,50.0683
12.6465,50.0683
12.4267,50.0094
12.4267,50.0094
12.4267,50.0094
12.4267,50.0094
12.4267,50.0094
12.3799,50.0053
12.3741,50.0048
12.3090,49.9793
12.2681,49.9227
12.2642,49.8530
12.2704,49.8338
12.3274,49.6960
12.3605,49.5298
12.3605,49.3602
12.3274,49.1940
12.2753,49.0682
12.2626,49.0374
12.2626,49.0374
12.2065,48.9535
12.1684,48.8965
12.1684,48.8965
12.0485,48.7766
12.0485,48.7766
11.9076,48.6824
11.9076,48.6824
11.7510,48.6176
11.7510,48.6176
11.5848,48.5845
11.5848,48.5845
11.4152,48.5845
11.4152,48.5845
11.2490,48.6176
11.2490,48.6176
11.0924,48.6824
11.0924,48.6824
10.9515,48.7766
10.9515,48.7766
10.8316,48.8965
10.8316,48.8965
10.7374,49.0374
10.7374,49.0374
10.6726,49.1940
10.6726,49.1940
10.6395,49.3602
10.6395,49.5298
10.6726,49.6960
10.6726,49.6960
10.7296,49.8338
10.7371,49.9033
10.7058,49.9657
10.6457,50.0014
10.6259,50.0048
10.6215,50.0051
10.5733,50.0094
10.5733,50.0094
10.3535,50.0683
10.3535,50.0683
10.1473,50.1644
10.1473,50.1644
9.9609,50.2950
9.8000,50.4559
9.6694,50.6423
9.6694,50.6423
9.5733,50.8485
9.5733,50.8485
9.5144,51.0683
9.5144,51.0683
9.4995,51.2382
3.9602,51.2382
3.9605,51.2363
3.9605,51.0237
3.9272,50.8138
3.8616,50.6116
3.7651,50.4222
3.7650,50.4222
3.7650,50.4222
3.6401,50.2502
3.4898,50.0999
3.3178,49.9750
3.3171,49.9746
3.3091,49.9705
3.2583,49.9225
3.2415,49.8547
3.2640,49.7886
3.3091,49.7495
3.3178,49.7451
3.3398,49.7291
3.4898,49.6201
3.4898,49.6201
3.4898,49.6201
3.6401,49.4698
3.6401,49.4698
3.6401,49.4698
3.7650,49.2978
3.7650,49.2978
3.7651,49.2978
3.8616,49.1084
3.9272,48.9062
3.9605,48.6963
3.9605,48.4837
3.9272,48.2738
3.8616,48.0716
3.7651,47.8822
3.7650,47.8822
3.7650,47.8822
3.6401,47.7102
3.4898,47.5599
3.3178,47.4349
3.3085,47.4302
3.2577,47.3822
3.2409,47.3144
3.2634,47.2483
3.3085,47.2092
3.3176,47.2046
3.4895,47.0797
3.4895,47.0797
3.6397,46.9295
3.6397,46.9295
3.7646,46.7576
3.8611,46.5682
3.9092,46.4202
5.6895,46.4202
5.6895,46.5798
5.7206,46.7364
5.7206,46.7364
5.7817,46.8839
5.7817,46.8839
5.8704,47.0167
5.8704,47.0167
5.9833,47.1296
5.9833,47.1296
6.1161,47.2183
6.1161,47.2183
6.2636,47.2794
6.2636,47.2794
6.4202,47.3105
6.4202,47.3105
6.4202,47.3105
6.5798,47.3105
6.5798,47.3105
6.7364,47.2794
6.8839,47.2183
6.8839,47.2183
6.9498,47.1742
7.0167,47.1296
7.1296,47.0167
7.2183,46.8839
7.2794,46.7364
7.2794,46.7364
7.2811,46.7306
7.2829,46.7311
7.3113,46.6769
7.3720,46.6423
7.4418,46.6460
7.4984,46.6869
7.5240,46.7519
7.5245,46.7630
7.5245,48.5990
7.5048,48.6661
7.4520,48.7118
7.4247,48.7206
7.3957,48.7264
7.3957,48.7264
7.2682,48.7792
7.2682,48.7792
7.1535,48.8559
7.1535,48.8559
7.0559,48.9535
7.0559,48.9535
6.9792,49.0682
6.9792,49.0682
6.9264,49.1957
6.9264,49.1957
6.8995,49.3310
6.8995,49.3310
6.8995,49.4690
6.8995,49.4690
6.8995,49.4690
6.9264,49.6043
6.9264,49.6043
6.9792,49.7318
6.9792,49.7318
7.0559,49.8465
7.0559,49.8465
7.1535,49.9441
7.1535,49.9441
7.2682,50.0208
7.2682,50.0208
7.3957,50.0736
7.3957,50.0736
7.3957,50.0736
7.3957,50.0736
7.5310,50.1005
7.5310,50.1005
7.6690,50.1005
7.7600,50.0824
7.8043,50.0736
7.9318,50.0208
8.0465,49.9441
8.1441,49.8465
8.2208,49.7318
8.2736,49.6043
8.2821,49.5613
8.3145,49.4994
8.3160,49.4979
8.5605,49.2534
8.6363,49.1221
8.6755,48.9758
8.6755,48.8242
8.6755,48.7028
8.6952,48.6358
8.7480,48.5901
8.8171,48.5801
8.8706,48.6013
9.0475,48.7251
9.0475,48.7251
9.2537,48.8213
9.2537,48.8213
9.4734,48.8801
9.5000,48.8825
9.5000,48.8825
9.5000,47.9107
9.5044,47.9151
9.5956,47.9677
9.6973,47.9950
9.8027,47.9950
9.9044,47.9677
9.9956,47.9151
10.0000,47.9107
10.0000,48.8825
10.0266,48.8801
10.2463,48.8213
10.2463,48.8213
10.4525,48.7251
10.6388,48.5947
10.7997,48.4338
10.9301,48.2475
11.0263,48.0413
11.0263,48.0413
11.0851,47.8216
11.0851,47.8216
11.1000,47.6518
11.1000,47.6518
11.1000,47.3950
10.1500,47.3950
10.1500,46.8950
11.1000,46.8950
11.1000,46.6382
11.1000,46.6382
11.0851,46.4684
11.0851,46.4684
11.0538,46.3516
11.0555,46.2817
11.0947,46.2239
11.1589,46.1964
11.1736,46.1955
11.8264,46.1955
11.8934,46.2152
11.9392,46.2680
11.9491,46.3371
11.9462,46.3516
11.9149,46.4684
11.9149,46.4684
11.9000,46.6382
11.9000,46.8950
12.8500,46.8950
12.8500,47.3950
11.9000,47.3950
11.9000,47.6518
11.9149,47.8216
11.9149,47.8216
11.9737,48.0413
11.9737,48.0413
12.0699,48.2475
12.2003,48.4338
12.3612,48.5947
12.5475,48.7251
12.7537,48.8213
12.7537,48.8213
12.9734,48.8801
13.0000,48.8825
13.0000,48.8825
13.0000,47.9107
13.0044,47.9151
13.0956,47.9677
13.1973,47.9950
13.3027,47.9950
13.4044,47.9677
13.4956,47.9151
13.5000,47.9107
13.5000,48.8825
13.5266,48.8801
13.7463,48.8213
13.7463,48.8213
13.9525,48.7251
14.1388,48.5947
14.2997,48.4338
14.4301,48.2475
14.5263,48.0413
14.5263,48.0413
14.5851,47.8216
14.5851,47.8216
14.6000,47.6518
14.6000,47.6518
14.6000,47.3950
13.6500,47.3950
13.6500,46.8950
14.6000,46.8950
14.6000,46.6382
14.6000,46.6382
14.5851,46.4684
14.5851,46.4684
14.5792,46.4462
14.5722,46.4202
15.6895,46.4202
15.6895,46.5798
15.7206,46.7364
15.7206,46.7364
15.7817,46.8839
15.7817,46.8839
15.8704,47.0167
15.8704,47.0167
15.9833,47.1296
15.9833,47.1296
16.1161,47.2183
16.1161,47.2183
16.2636,47.2794
16.2636,47.2794
16.4202,47.3105
16.4202,47.3105
16.4202,47.3105
16.5798,47.3105
16.5798,47.3105
16.7364,47.2794
16.8839,47.2183
16.8839,47.2183
16.9498,47.1742
17.0167,47.1296
17.1296,47.0167
17.2183,46.8839
17.2794,46.7364
17.3105,46.5798
17.3105,46.4202
17.2794,46.2636
17.2684,46.2370
17.2183,46.1161
17.2183,46.1161
17.1296,45.9833
17.1296,45.9833
17.0167,45.8704
17.0167,45.8704
16.8839,45.7817
16.8839,45.7817
16.7364,45.7206
16.7364,45.7206
16.5798,45.6895
16.5798,45.6895
16.4202,45.6895
16.4202,45.6895
16.2636,45.7206
16.2636,45.7206
16.1161,45.7817
16.1161,45.7817
15.9833,45.8704
15.9833,45.8704
15.8704,45.9833
15.8704,45.9833
15.7817,46.1161
15.7817,46.1161
15.7206,46.2636
15.7206,46.2636
15.6895,46.4202
14.5722,46.4202
14.5263,46.2487
14.5263,46.2487
14.4301,46.0425
14.2997,45.8562
14.1388,45.6953
13.9525,45.5649
13.7463,45.4687
13.7463,45.4687
13.5266,45.4099
13.5266,45.4099
13.5000,45.4075
13.5000,46.3793
13.4956,46.3749
13.4044,46.3223
13.3027,46.2950
13.1973,46.2950
13.0956,46.3223
13.0044,46.3749
13.0000,46.3793
13.0000,45.7019
13.0197,45.6349
13.0224,45.6308
13.0806,45.5477
13.1767,45.3415
13.1767,45.3415
13.1767,45.3415
13.1823,45.3209
13.1823,45.3209
13.2208,45.1771
13.2356,45.1217
13.2505,44.9518
13.2505,44.7382
13.2356,44.5683
13.1767,44.3485
13.0806,44.1423
12.9500,43.9559
12.9500,43.9559
12.7891,43.7950
12.6027,43.6644
12.6027,43.6644
12.3965,43.5683
12.3965,43.5683
12.1767,43.5094
12.1767,43.5094
12.0068,43.4945
12.0068,43.4945
10.9932,43.4945
10.9932,43.4945
10.8233,43.5094
10.8233,43.5094
10.6035,43.5683
10.6035,43.5683
10.5703,43.5838
10.5012,43.5942
10.4374,43.5657
10.3992,43.5073
10.3986,43.4374
10.4302,43.3837
13.9855,39.8284
14.0131,39.7805
14.0613,39.6971
14.1005,39.5508
14.1005,36.5960
14.1202,36.5290
14.1730,36.4832
14.1733,36.4831
14.1863,36.4772
14.2043,36.4736
14.3318,36.4208
14.3767,36.3908
14.3860,36.3866
14.4109,36.3831
14.4350,36.3755
14.4372,36.3755
16.9103,36.3755
16.9773,36.3952
16.9979,36.4118
18.9000,38.3139
18.9335,38.3752
18.9285,38.4449
18.8867,38.5009
18.8212,38.5253
18.7882,38.5232
18.6690,38.4995
18.6690,38.4995
18.5310,38.4995
18.5310,38.4995
18.3957,38.5264
18.3957,38.5264
18.2682,38.5792
18.2682,38.5792
18.1535,38.6559
18.1535,38.6559
18.0559,38.7535
18.0559,38.7535
17.9792,38.8682
17.9792,38.8682
17.9264,38.9957
17.9264,38.9957
17.8995,39.1310
17.8995,39.1310
17.8995,39.2690
17.8995,39.2690
17.8995,39.2690
17.9264,39.4043
17.9264,39.4043
17.9792,39.5318
17.9792,39.5318
17.9792,39.5318
18.0036,39.5683
18.0245,39.6350
18.0245,39.6372
18.0245,50.4242
18.0245,50.5758
18.0423,50.6423
18.0637,50.7221
18.1016,50.7877
18.1395,50.8534
18.7695,51.4834
18.8766,51.5905
19.0079,51.6663
19.1163,51.6953
19.1760,51.7317
19.1947,51.7588
19.2349,51.8378
19.3599,52.0098
19.5102,52.1601
19.6822,52.2850
19.6822,52.2850
19.6822,52.2851
19.8716,52.3816
20.0738,52.4472
20.2837,52.4805
20.2837,52.4805
20.4963,52.4805
20.4963,52.4805
20.7062,52.4472
20.9084,52.3816
21.0978,52.2851
21.1198,52.2691
21.2698,52.1601
21.2698,52.1601
21.2698,52.1601
21.4201,52.0098
21.4201,52.0098
21.4201,52.0098
21.5450,51.8378
21.5450,51.8378
21.5451,51.8378
21.6416,51.6484
21.7072,51.4462
21.7405,51.2363
21.7405,51.0237
21.7072,50.8138
21.6416,50.6116
21.5451,50.4222
21.5450,50.4222
21.5450,50.4222
21.4201,50.2502
21.2698,50.0999
21.0978,49.9750
21.0971,49.9746
21.0891,49.9705
21.0383,49.9225
21.0215,49.8547
21.0440,49.7886
21.0891,49.7495
21.0978,49.7451
21.1198,49.7291
21.2698,49.6201
21.2698,49.6201
21.2698,49.6201
21.4201,49.4698
21.4201,49.4698
21.4201,49.4698
21.5450,49.2978
21.5450,49.2978
21.5451,49.2978
21.6416,49.1084
21.7072,48.9062
21.7405,48.6963
21.7405,48.4837
21.7072,48.2738
21.6416,48.0716
21.5451,47.8822
21.5450,47.8822
21.5450,47.8822
21.4201,47.7102
21.2698,47.5599
21.0978,47.4349
21.0885,47.4302
21.0377,47.3822
21.0209,47.3144
21.0434,47.2483
21.0885,47.2092
21.0976,47.2046
21.2695,47.0797
21.2695,47.0797
21.4197,46.9295
21.4197,46.9295
21.5446,46.7576
21.6411,46.5682
21.7068,46.3661
21.7068,46.3661
21.7172,46.3000
20.8230,46.3000
20.8559,46.2430
20.8900,46.1158
20.8900,45.9842
20.8559,45.8570
20.8230,45.8000
21.7172,45.8000
21.7068,45.7339
21.7068,45.7339
21.6411,45.5318
21.5446,45.3424
21.4197,45.1705
21.4197,45.1705
21.2695,45.0203
21.2695,45.0203
21.0976,44.8954
21.0885,44.8908
21.0377,44.8428
21.0209,44.7750
21.0435,44.7088
21.0885,44.6698
21.0978,44.6651
21.2310,44.5683
21.2698,44.5401
21.2698,44.5401
21.2698,44.5401
21.4201,44.3898
21.4201,44.3898
21.4201,44.3898
21.5450,44.2178
21.5450,44.2178
21.5451,44.2178
21.6416,44.0284
21.7072,43.8262
21.7405,43.6163
21.7405,43.4037
21.7072,43.1938
21.6416,42.9916
21.5451,42.8022
21.5450,42.8022
21.5450,42.8022
21.4201,42.6302
21.2698,42.4799
21.0978,42.3550
21.0971,42.3546
21.0891,42.3505
21.0383,42.3025
21.0215,42.2347
21.0440,42.1686
21.0891,42.1295
21.0978,42.1251
21.1198,42.1091
21.2698,42.0001
21.2698,42.0001
21.2698,42.0001
21.4201,41.8498
21.4201,41.8498
21.4201,41.8498
21.5450,41.6778
21.5450,41.6778
21.5451,41.6778
21.6416,41.4884
21.7072,41.2862
21.7405,41.0763
21.7405,40.8637
21.7072,40.6538
21.6416,40.4516
21.5451,40.2622
21.5450,40.2622
21.5450,40.2622
21.4201,40.0902
21.2698,39.9399
21.0978,39.8150
21.0971,39.8146
21.0891,39.8105
21.0383,39.7625
21.0215,39.6947
21.0440,39.6286
21.0891,39.5895
21.0978,39.5851
21.1711,39.5318
21.2698,39.4601
21.2698,39.4601
21.2698,39.4601
21.4201,39.3098
21.4201,39.3098
21.4201,39.3098
21.5450,39.1378
21.5450,39.1378
21.5451,39.1378
21.6416,38.9484
21.7072,38.7462
21.7405,38.5363
21.7405,38.3237
21.7072,38.1138
21.6416,37.9116
21.5451,37.7222
21.5450,37.7222
21.5450,37.7222
21.4201,37.5502
21.2698,37.3999
21.0978,37.2750
21.0971,37.2746
21.0891,37.2705
21.0383,37.2225
21.0215,37.1547
21.0440,37.0886
21.0891,37.0495
21.0978,37.0451
21.2587,36.9282
21.2698,36.9201
21.2698,36.9201
21.2698,36.9201
21.4201,36.7698
21.4201,36.7698
21.4201,36.7698
21.5450,36.5978
21.5450,36.5978
21.5451,36.5978
21.6416,36.4084
21.7072,36.2062
21.7405,35.9963
21.7405,35.7837
21.7072,35.5738
21.6416,35.3716
21.5451,35.1822
21.5450,35.1822
21.5450,35.1822
21.4201,35.0102
21.2698,34.8599
21.0978,34.7349
21.0885,34.7302
21.0377,34.6822
21.0209,34.6144
21.0434,34.5483
21.0885,34.5092
21.0976,34.5046
21.2695,34.3797
21.2695,34.3797
21.4197,34.2295
21.4197,34.2295
21.5446,34.0576
21.6411,33.8682
21.7068,33.6661
21.7068,33.6661
21.7172,33.6000
20.8230,33.6000
20.8559,33.5430
20.8900,33.4158
20.8900,33.2842
20.8559,33.1570
20.8230,33.1000
21.7172,33.1000
21.7068,33.0339
21.7068,33.0339
21.6411,32.8318
21.5446,32.6424
21.4197,32.4705
21.4197,32.4705
21.2695,32.3203
21.2695,32.3203
21.0976,32.1954
21.0885,32.1908
21.0377,32.1428
21.0209,32.0750
21.0435,32.0088
21.0885,31.9698
21.0978,31.9651
21.1770,31.9075
21.2698,31.8401
21.2698,31.8401
21.2698,31.8401
21.4201,31.6898
21.4201,31.6898
21.4201,31.6898
21.5450,31.5178
21.5450,31.5178
21.5451,31.5178
21.6416,31.3284
21.7072,31.1262
21.7405,30.9163
21.7405,30.7037
21.7072,30.4938
21.6416,30.2916
21.5451,30.1022
21.5450,30.1022
21.5450,30.1022
21.4201,29.9302
21.2698,29.7799
21.0978,29.6550
21.0971,29.6546
21.0891,29.6505
21.0383,29.6025
21.0215,29.5347
21.0440,29.4686
21.0891,29.4295
21.0978,29.4251
21.1198,29.4091
21.2698,29.3001
21.2698,29.3001
21.2698,29.3001
21.4201,29.1498
21.4201,29.1498
21.4201,29.1498
21.5450,28.9778
21.5450,28.9778
21.5451,28.9778
21.6416,28.7884
21.7072,28.5862
21.7405,28.3763
21.7405,28.1637
21.7072,27.9538
21.6416,27.7516
21.5451,27.5622
21.5450,27.5622
21.5450,27.5622
21.4201,27.3902
21.2698,27.2399
21.0978,27.1150
21.0971,27.1146
21.0891,27.1105
21.0383,27.0625
21.0215,26.9947
21.0440,26.9286
21.0891,26.8895
21.0978,26.8851
21.1198,26.8691
21.2698,26.7601
21.2698,26.7601
21.2698,26.7601
21.4201,26.6098
21.4201,26.6098
21.4201,26.6098
21.5450,26.4378
21.5450,26.4378
21.5451,26.4378
21.6416,26.2484
21.7072,26.0462
21.7405,25.8363
21.7405,25.6237
21.7072,25.4138
21.6416,25.2116
21.5451,25.0222
21.5450,25.0222
21.5450,25.0222
21.4201,24.8502
21.2698,24.6999
21.0978,24.5750
21.0971,24.5746
21.0891,24.5705
21.0383,24.5225
21.0215,24.4547
21.0440,24.3886
21.0891,24.3495
21.0978,24.3451
21.1198,24.3291
21.2698,24.2201
21.2698,24.2201
21.2698,24.2201
21.4201,24.0698
21.4201,24.0698
21.4201,24.0698
21.5450,23.8978
21.5450,23.8978
21.5451,23.8978
21.6416,23.7084
21.7072,23.5062
21.7405,23.2963
21.7405,23.0837
21.7072,22.8738
21.6416,22.6716
21.5451,22.4822
21.5450,22.4822
21.5450,22.4822
21.4201,22.3102
21.2698,22.1599
21.0978,22.0349
21.0885,22.0302
21.0377,21.9822
21.0209,21.9144
21.0434,21.8483
21.0885,21.8092
21.0976,21.8046
21.2695,21.6797
21.2695,21.6797
21.4197,21.5295
21.4197,21.5295
21.5446,21.3576
21.6411,21.1682
21.7068,20.9661
21.7068,20.9661
21.7172,20.9000
20.8230,20.9000
20.8559,20.8430
20.8900,20.7158
20.8900,20.5842
20.8559,20.4570
20.8230,20.4000
21.7172,20.4000
21.7068,20.3339
21.7068,20.3339
21.6411,20.1318
21.5446,19.9424
21.4197,19.7705
21.4197,19.7705
21.2695,19.6203
21.2695,19.6203
21.0976,19.4954
21.0885,19.4908
21.0377,19.4428
21.0209,19.3750
21.0435,19.3088
21.0885,19.2698
21.0978,19.2651
21.1770,19.2075
21.2698,19.1401
21.2698,19.1401
21.2698,19.1401
21.4201,18.9898
21.4201,18.9898
21.4201,18.9898
21.5450,18.8178
21.5450,18.8178
21.5451,18.8178
21.6416,18.6284
21.7072,18.4262
21.7405,18.2163
21.7405,18.0037
21.7072,17.7938
21.6416,17.5916
21.5451,17.4022
21.5450,17.4022
21.5450,17.4022
21.4201,17.2302
21.2698,17.0799
21.0978,16.9550
21.0971,16.9546
21.0891,16.9505
21.0383,16.9025
21.0215,16.8347
21.0440,16.7686
21.0891,16.7295
21.0978,16.7251
21.1198,16.7091
21.2698,16.6001
21.2698,16.6001
21.2698,16.6001
21.4201,16.4498
21.4201,16.4498
21.4201,16.4498
21.5450,16.2778
21.5450,16.2778
21.5451,16.2778
21.6416,16.0884
21.7072,15.8862
21.7405,15.6763
21.7405,15.4637
21.7072,15.2538
21.6416,15.0516
21.5451,14.8622
21.5450,14.8622
21.5450,14.8622
21.4201,14.6902
21.2698,14.5399
21.0978,14.4150
21.0971,14.4146
21.0891,14.4105
21.0383,14.3625
21.0215,14.2947
21.0440,14.2286
21.0891,14.1895
21.0978,14.1851
21.1198,14.1691
21.2698,14.0601
21.2698,14.0601
21.2698,14.0601
21.4201,13.9098
21.4201,13.9098
21.4201,13.9098
21.5450,13.7378
21.5450,13.7378
21.5451,13.7378
21.6416,13.5484
21.7072,13.3462
21.7405,13.1363
21.7405,12.9237
21.7072,12.7138
21.6416,12.5116
21.5451,12.3222
21.5450,12.3222
21.5450,12.3222
21.4201,12.1502
21.2698,11.9999
21.0978,11.8750
21.0971,11.8746
21.0891,11.8705
21.0383,11.8225
21.0215,11.7547
21.0440,11.6886
21.0891,11.6495
21.0978,11.6451
21.1198,11.6291
21.2698,11.5201
21.2698,11.5201
21.2698,11.5201
21.4201,11.3698
21.4201,11.3698
21.4201,11.3698
21.5450,11.1978
21.5450,11.1978
21.5451,11.1978
21.6416,11.0084
21.7072,10.8062
21.7405,10.5963
21.7405,10.3837
21.7072,10.1738
21.6416,9.9716
21.5451,9.7822
21.5450,9.7822
21.5450,9.7822
21.4201,9.6102
21.2698,9.4599
21.0978,9.3349
21.0885,9.3302
21.0377,9.2822
21.0209,9.2144
21.0434,9.1483
21.0885,9.1092
21.0976,9.1046
21.2695,8.9797
21.2695,8.9797
21.4197,8.8295
21.4197,8.8295
21.5446,8.6576
21.6411,8.4682
21.7068,8.2661
21.7068,8.2661
21.7172,8.2000
20.8230,8.2000
20.8559,8.1430
20.8900,8.0158
20.8900,7.8842
20.8559,7.7570
20.8230,7.7000
21.7172,7.7000
21.7068,7.6339
21.7068,7.6339
21.6411,7.4318
21.5446,7.2424
21.4197,7.0705
21.4197,7.0705
21.2695,6.9203
21.2695,6.9203
21.0976,6.7954
21.0885,6.7908
21.0377,6.7428
21.0209,6.6750
21.0435,6.6088
21.0885,6.5698
21.0978,6.5651
21.1770,6.5075
21.2698,6.4401
21.2698,6.4401
21.2698,6.4401
21.4201,6.2898
21.4201,6.2898
21.4201,6.2898
21.5450,6.1178
21.5450,6.1178
21.5451,6.1178
21.6416,5.9284
21.7072,5.7262
21.7405,5.5163
21.7405,5.3037
21.7072,5.0938
21.6416,4.8916
21.5451,4.7022
21.5450,4.7022
21.5450,4.7022
21.4201,4.5302
21.3066,4.4167
21.2731,4.3553
21.2781,4.2857
21.3199,4.2297
21.3509,4.2128
21.4823,4.1638
21.5975,4.0775
21.6838,3.9623
21.7341,3.8275
21.7405,3.7679
21.7405,1.9721
21.7341,1.9125
21.6923,1.8004
21.6838,1.7777
21.6838,1.7777
21.5975,1.6625
21.5975,1.6625
21.4823,1.5762
21.4823,1.5762
21.3475,1.5259
21.3475,1.5259
21.2879,1.5195
21.2879,1.5195
21.2879,1.5195
21.2879,1.5195
19.4921,1.5195
19.4921,1.5195
19.4325,1.5259
19.2977,1.5762
19.2977,1.5762
19.1825,1.6625
19.1825,1.6625
19.0962,1.7777
19.0962,1.7777
19.0459,1.9125
19.0426,1.9430
19.0395,1.9721
19.0395,1.9721
19.0395,3.7679
19.0395,3.7679
19.0459,3.8275
19.0962,3.9623
19.0962,3.9623
19.1825,4.0775
19.1825,4.0775
19.2977,4.1638
19.2977,4.1638
19.4291,4.2128
19.4850,4.2547
19.5094,4.3201
19.4946,4.3884
19.4734,4.4167
19.3599,4.5302
19.2350,4.7022
19.1384,4.8916
19.0728,5.0938
19.0395,5.3037
19.0395,5.5163
19.0719,5.7206
19.0728,5.7262
19.1259,5.8897
19.1384,5.9284
19.2350,6.1178
19.3599,6.2898
19.5102,6.4401
19.6822,6.5650
19.6822,6.5650
19.6822,6.5651
19.6915,6.5698
19.7423,6.6178
19.7591,6.6856
19.7366,6.7517
19.6915,6.7908
19.6824,6.7954
19.5105,6.9203
19.5105,6.9203
19.3603,7.0705
19.3603,7.0705
19.2354,7.2424
19.1389,7.4318
19.0732,7.6339
19.0732,7.6339
19.0628,7.7000
19.9570,7.7000
19.9241,7.7570
19.8900,7.8842
19.8900,8.0158
19.9241,8.1430
19.9570,8.2000
19.0628,8.2000
19.0732,8.2661
19.0732,8.2661
19.1389,8.4682
19.2354,8.6576
19.3603,8.8295
19.3603,8.8295
19.5105,8.9797
19.5105,8.9797
19.6824,9.1046
19.6915,9.1092
19.7423,9.1572
19.7591,9.2250
19.7365,9.2912
19.6915,9.3302
19.6822,9.3349
19.5102,9.4599
19.3599,9.6102
19.2350,9.7822
19.1384,9.9716
19.0728,10.1738
19.0395,10.3837
19.0395,10.5963
19.0728,10.8062
19.1384,11.0084
19.2350,11.1978
19.3599,11.3698
19.5102,11.5201
19.6822,11.6450
19.6909,11.6495
19.7417,11.6975
19.7585,11.7653
19.7360,11.8314
19.6909,11.8705
19.6822,11.8749
19.5102,11.9999
19.3599,12.1502
19.2350,12.3222
19.1384,12.5116
19.0728,12.7138
19.0395,12.9237
19.0395,13.1363
19.0728,13.3462
19.1384,13.5484
19.2350,13.7378
19.3599,13.9098
19.5102,14.0601
19.6822,14.1850
19.6909,14.1895
19.7417,14.2375
19.7585,14.3053
19.7360,14.3714
19.6909,14.4105
19.6822,14.4149
19.5102,14.5399
19.3599,14.6902
19.2350,14.8622
19.1384,15.0516
19.0728,15.2538
19.0395,15.4637
19.0395,15.6763
19.0728,15.8862
19.1384,16.0884
19.2350,16.2778
19.3599,16.4498
19.5102,16.6001
19.6822,16.7250
19.6909,16.7295
19.7417,16.7775
19.7585,16.8453
19.7360,16.9114
19.6909,16.9505
19.6822,16.9549
19.5102,17.0799
19.3599,17.2302
19.2350,17.4022
19.1384,17.5916
19.0728,17.7938
19.0395,18.0037
19.0395,18.2163
19.0728,18.4262
19.1384,18.6284
19.2350,18.8178
19.3599,18.9898
19.5102,19.1401
19.6822,19.2650
19.6822,19.2650
19.6822,19.2651
19.6915,19.2698
19.7423,19.3178
19.7591,19.3856
19.7366,19.4517
19.6915,19.4908
19.6824,19.4954
19.5105,19.6203
19.5105,19.6203
19.3603,19.7705
19.3603,19.7705
19.2354,19.9424
19.1389,20.1318
19.0732,20.3339
19.0732,20.3339
19.0628,20.4000
19.9570,20.4000
19.9241,20.4570
19.8900,20.5842
19.8900,20.7158
19.9241,20.8430
19.9570,20.9000
19.0628,20.9000
19.0732,20.9661
19.0732,20.9661
19.1389,21.1682
19.2354,21.3576
19.3603,21.5295
19.3603,21.5295
19.5105,21.6797
19.5105,21.6797
19.6824,21.8046
19.6915,21.8092
19.7423,21.8572
19.7591,21.9250
19.7365,21.9912
19.6915,22.0302
19.6822,22.0349
19.5102,22.1599
19.5102,22.1599
19.3599,22.3102
19.3599,22.3102
19.2350,22.4822
19.1384,22.6716
19.0728,22.8738
19.0637,22.9310
19.0395,23.0837
19.0395,23.2963
19.0495,23.3596
19.0633,23.4465
19.0728,23.5062
19.1359,23.7005
19.1384,23.7084
19.2350,23.8978
19.3599,24.0698
19.5102,24.2201
19.6822,24.3451
19.6909,24.3495
19.7417,24.3975
19.7585,24.4653
19.7360,24.5314
19.6909,24.5705
19.6822,24.5749
19.5102,24.6999
19.3599,24.8502
19.2350,25.0222
19.1384,25.2116
19.0728,25.4138
19.0395,25.6237
19.0395,25.8363
19.0728,26.0462
19.1384,26.2484
19.2350,26.4378
19.3599,26.6098
19.5102,26.7601
19.6822,26.8850
19.6909,26.8895
19.7417,26.9375
19.7585,27.0053
19.7360,27.0714
19.6909,27.1105
19.6822,27.1149
19.5102,27.2399
19.3599,27.3902
19.2350,27.5622
19.1384,27.7516
19.0728,27.9538
19.0395,28.1637
19.0395,28.3763
19.0728,28.5862
19.1165,28.7208
19.1384,28.7884
19.2350,28.9778
19.3599,29.1498
19.5102,29.3001
19.6822,29.4250
19.6909,29.4295
19.7417,29.4775
19.7585,29.5453
19.7360,29.6114
19.6909,29.6505
19.6822,29.6549
19.5102,29.7799
19.3599,29.9302
19.2350,30.1022
19.1384,30.2916
19.0728,30.4938
19.0395,30.7037
19.0395,30.9163
19.0728,31.1262
19.1384,31.3284
19.2350,31.5178
19.3599,31.6898
19.5102,31.8401
19.6822,31.9650
19.6822,31.9650
19.6822,31.9651
19.6915,31.9698
19.7423,32.0178
19.7591,32.0856
19.7366,32.1517
19.6915,32.1908
19.6824,32.1954
19.5105,32.3203
19.5105,32.3203
19.3603,32.4705
19.3603,32.4705
19.2354,32.6424
19.1389,32.8318
19.0732,33.0339
19.0732,33.0339
19.0628,33.1000
19.9570,33.1000
19.9241,33.1570
19.8900,33.2842
19.8900,33.4158
19.9241,33.5430
19.9570,33.6000
19.0628,33.6000
19.0732,33.6661
19.0732,33.6661
19.1389,33.8682
19.2354,34.0576
19.3603,34.2295
19.3603,34.2295
19.5105,34.3797
19.5105,34.3797
19.6763,34.5002
19.7190,34.5555
19.7250,34.6251
19.6924,34.6869
19.6315,34.7213
19.6034,34.7245
15.1372,34.7245
15.0701,34.7048
15.0683,34.7036
15.0318,34.6792
15.0318,34.6792
14.9043,34.6264
14.9043,34.6264
14.7690,34.5995
14.7690,34.5995
14.6310,34.5995
14.6310,34.5995
14.4957,34.6264
14.4957,34.6264
14.3682,34.6792
14.3682,34.6792
14.2934,34.7292
14.2267,34.7501
14.1593,34.7316
14.1126,34.6796
14.1005,34.6261
14.1005,29.8647
14.1202,29.7977
14.1368,29.7771
14.3978,29.5161
14.4591,29.4826
14.4612,29.4822
14.5043,29.4736
14.6318,29.4208
14.7465,29.3441
14.8441,29.2465
14.9208,29.1318
14.9736,29.0043
15.0005,28.8690
15.0005,28.7310
15.0005,28.7310
14.9736,28.5957
14.9736,28.5957
14.9736,28.5957
14.9532,28.5465
14.9208,28.4682
14.9208,28.4682
14.8441,28.3535
14.8441,28.3535
14.7465,28.2559
14.7465,28.2559
14.6318,28.1792
14.6318,28.1792
14.5043,28.1264
14.5043,28.1264
14.3690,28.0995
14.3690,28.0995
14.2310,28.0995
14.2310,28.0995
14.0957,28.1264
14.0957,28.1264
13.9682,28.1792
13.9682,28.1792
13.8535,28.2559
13.8535,28.2559
13.7559,28.3535
13.7559,28.3535
13.6792,28.4682
13.6792,28.4682
13.6264,28.5957
13.6264,28.5957
13.6179,28.6387
13.5855,28.7006
13.5839,28.7022
13.1716,29.1145
13.0645,29.2216
13.0645,29.2216
12.9887,29.3529
12.9495,29.4992
12.9495,39.1853
12.9298,39.2523
12.9132,39.2729
7.6395,44.5466
7.6395,44.5466
7.5637,44.6779
7.5245,44.8242
7.5245,46.2370
7.5048,46.3041
7.4520,46.3498
7.3829,46.3598
7.3193,46.3307
7.2815,46.2720
7.2799,46.2655
7.2794,46.2636
7.2183,46.1161
7.2183,46.1161
7.1296,45.9833
7.1296,45.9833
7.0167,45.8704
7.0167,45.8704
6.8839,45.7817
6.8839,45.7817
6.7364,45.7206
6.7364,45.7206
6.5798,45.6895
6.5798,45.6895
6.4202,45.6895
6.4202,45.6895
6.2636,45.7206
6.2636,45.7206
6.1161,45.7817
6.1161,45.7817
5.9833,45.8704
5.9833,45.8704
5.8704,45.9833
5.8704,45.9833
5.7817,46.1161
5.7817,46.1161
5.7206,46.2636
5.7206,46.2636
5.6895,46.4202
3.9092,46.4202
3.9236,46.3758
3.9236,46.3758
3.9268,46.3661
3.9372,46.3000
3.0430,46.3000
3.0759,46.2430
3.1100,46.1158
3.1100,45.9842
3.0759,45.8570
3.0430,45.8000
3.9372,45.8000
3.9268,45.7339
3.9268,45.7339
3.8611,45.5318
3.7646,45.3424
3.6397,45.1705
3.6397,45.1705
3.4895,45.0203
3.4895,45.0203
3.3176,44.8954
3.3085,44.8908
3.2577,44.8428
3.2409,44.7750
3.2635,44.7088
3.3085,44.6698
3.3178,44.6651
3.4510,44.5683
3.4898,44.5401
3.4898,44.5401
3.4898,44.5401
3.6401,44.3898
3.6401,44.3898
3.6401,44.3898
3.7650,44.2178
3.7650,44.2178
3.7651,44.2178
3.8616,44.0284
3.9272,43.8262
3.9605,43.6163
3.9605,43.4037
3.9272,43.1938
3.8616,42.9916
3.7651,42.8022
3.7650,42.8022
3.7650,42.8022
3.6401,42.6302
3.4898,42.4799
3.3178,42.3550
3.3171,42.3546
3.3091,42.3505
3.2583,42.3025
3.2415,42.2347
3.2640,42.1686
3.3091,42.1295
3.3178,42.1251
3.3398,42.1091
3.4898,42.0001
3.4898,42.0001
3.4898,42.0001
3.6401,41.8498
3.6401,41.8498
3.6401,41.8498
3.7650,41.6778
3.7650,41.6778
3.7651,41.6778
3.8616,41.4884
3.9272,41.2862
3.9605,41.0763
3.9605,40.8637
3.9272,40.6538
3.8616,40.4516
3.7651,40.2622
3.7650,40.2622
3.7650,40.2622
3.6401,40.0902
3.4898,39.9399
3.3178,39.8150
3.3171,39.8146
3.3091,39.8105
3.2583,39.7625
3.2415,39.6947
3.2640,39.6286
3.3091,39.5895
3.3178,39.5851
3.3911,39.5318
3.4898,39.4601
3.4898,39.4601
3.4898,39.4601
3.6401,39.3098
3.6401,39.3098
3.6401,39.3098
3.7650,39.1378
3.7650,39.1378
3.7651,39.1378
3.8616,38.9484
3.9272,38.7462
3.9605,38.5363
3.9605,38.3237
3.9272,38.1138
3.8616,37.9116
3.7651,37.7222
3.7650,37.7222
3.7650,37.7222
3.6401,37.5502
3.4898,37.3999
3.3178,37.2750
3.3171,37.2746
3.3091,37.2705
3.2583,37.2225
3.2415,37.1547
3.2640,37.0886
3.3091,37.0495
3.3178,37.0451
3.4787,36.9282
3.4898,36.9201
3.4898,36.9201
3.4898,36.9201
3.6401,36.7698
3.6401,36.7698
3.6401,36.7698
3.7650,36.5978
3.7650,36.5978
3.7651,36.5978
3.8616,36.4084
3.9272,36.2062
3.9605,35.9963
3.9605,35.7837
3.9272,35.5738
3.8616,35.3716
3.7651,35.1822
3.7650,35.1822
3.7650,35.1822
3.6401,35.0102
3.4898,34.8599
3.3178,34.7349
3.3085,34.7302
3.2577,34.6822
3.2409,34.6144
3.2634,34.5483
3.3085,34.5092
3.3176,34.5046
3.4895,34.3797
3.4895,34.3797
3.6397,34.2295
3.6397,34.2295
3.7646,34.0576
3.8611,33.8682
3.9268,33.6661
3.9268,33.6661
3.9372,33.6000
3.0430,33.6000
3.0759,33.5430
3.1100,33.4158
3.1100,33.2842
3.0759,33.1570
3.0430,33.1000
3.9372,33.1000
3.9268,33.0339
3.9268,33.0339
3.8611,32.8318
3.7646,32.6424
3.6397,32.4705
3.6397,32.4705
3.4895,32.3203
3.4895,32.3203
3.3176,32.1954
3.3085,32.1908
3.2577,32.1428
3.2409,32.0750
3.2635,32.0088
3.3085,31.9698
3.3178,31.9651
3.3970,31.9075
3.4898,31.8401
3.4898,31.8401
3.4898,31.8401
3.6401,31.6898
3.6401,31.6898
3.6401,31.6898
3.7650,31.5178
3.7650,31.5178
3.7651,31.5178
3.8616,31.3284
3.9272,31.1262
3.9605,30.9163
3.9605,30.7037
3.9272,30.4938
3.8616,30.2916
3.7651,30.1022
3.7650,30.1022
3.7650,30.1022
3.6401,29.9302
3.4898,29.7799
3.3178,29.6550
3.3171,29.6546
3.3091,29.6505
3.2583,29.6025
3.2415,29.5347
3.2640,29.4686
3.3091,29.4295
3.3178,29.4251
3.3398,29.4091
3.4898,29.3001
3.4898,29.3001
3.4898,29.3001
3.6401,29.1498
3.6401,29.1498
3.6401,29.1498
3.7650,28.9778
3.7650,28.9778
3.7651,28.9778
3.8616,28.7884
3.9272,28.5862
3.9605,28.3763
3.9605,28.1637
3.9272,27.9538
3.8616,27.7516
3.7651,27.5622
3.7650,27.5622
3.7650,27.5622
3.6401,27.3902
3.4898,27.2399
3.3178,27.1150
3.3171,27.1146
3.3091,27.1105
3.2583,27.0625
3.2415,26.9947
3.2640,26.9286
3.3091,26.8895
3.3178,26.8851
3.3398,26.8691
3.4898,26.7601
3.4898,26.7601
3.4898,26.7601
3.6401,26.6098
3.6401,26.6098
3.6401,26.6098
3.7650,26.4378
3.7650,26.4378
3.7651,26.4378
3.8616,26.2484
3.9272,26.0462
3.9605,25.8363
3.9605,25.6237
3.9272,25.4138
3.8616,25.2116
3.7651,25.0222
3.7650,25.0222
3.7650,25.0222
3.6401,24.8502
3.4898,24.6999
3.3178,24.5750
3.3171,24.5746
3.3091,24.5705
3.2583,24.5225
3.2415,24.4547
3.2640,24.3886
3.3091,24.3495
3.3178,24.3451
3.3398,24.3291
3.4898,24.2201
3.4898,24.2201
3.4898,24.2201
3.6401,24.0698
3.6401,24.0698
3.6401,24.0698
3.7650,23.8978
3.7650,23.8978
3.7651,23.8978
3.8616,23.7084
3.9272,23.5062
3.9605,23.2963
3.9605,23.0837
3.9582,23.0690
6.0245,23.0690
6.0514,23.2043
6.0514,23.2043
6.1042,23.3318
6.1042,23.3318
6.1809,23.4465
6.1809,23.4465
6.2785,23.5441
6.2785,23.5441
6.3932,23.6208
6.3932,23.6208
6.5207,23.6736
6.5207,23.6736
6.5207,23.6736
6.5207,23.6736
6.6560,23.7005
6.6560,23.7005
6.7940,23.7005
6.8850,23.6824
6.9293,23.6736
7.0568,23.6208
7.1715,23.5441
7.2691,23.4465
7.2691,23.4465
7.2730,23.4418
7.2734,23.4422
7.2813,23.4326
10.6905,20.0234
10.6931,20.0189
10.7437,19.9706
10.8123,19.9574
10.8772,19.9834
10.9177,20.0403
10.9245,20.0809
10.9245,20.3853
10.9048,20.4523
10.8882,20.4729
6.6272,24.7339
6.5659,24.7674
6.5637,24.7679
6.5207,24.7764
6.5207,24.7764
6.3932,24.8292
6.3932,24.8292
6.2785,24.9059
6.2785,24.9059
6.1809,25.0035
6.1809,25.0035
6.1042,25.1182
6.1042,25.1182
6.0514,25.2457
6.0514,25.2457
6.0245,25.3810
6.0245,25.3810
6.0245,25.5190
6.0245,25.5190
6.0245,25.5190
6.0514,25.6543
6.0514,25.6543
6.1042,25.7818
6.1042,25.7818
6.1809,25.8965
6.1809,25.8965
6.2762,25.9918
6.3097,26.0532
6.3125,26.0795
6.3125,34.9638
6.3517,35.1101
6.3896,35.1758
6.4275,35.2414
8.7995,37.6134
8.9066,37.7205
9.0379,37.7963
9.1842,37.8355
9.3358,37.8355
11.1628,37.8355
11.2299,37.8552
11.2317,37.8564
11.2682,37.8808
11.2682,37.8808
11.3426,37.9116
11.3957,37.9336
11.3957,37.9336
11.3957,37.9336
11.5310,37.9605
11.5310,37.9605
11.6690,37.9605
11.7600,37.9424
11.8043,37.9336
11.9318,37.8808
12.0465,37.8041
12.1441,37.7065
12.2208,37.5918
12.2736,37.4643
12.2824,37.4200
12.3005,37.3290
12.3005,37.1910
12.2736,37.0557
12.2736,37.0557
12.2736,37.0557
12.2692,37.0450
12.2208,36.9282
12.2208,36.9282
12.1441,36.8135
12.1441,36.8135
12.0465,36.7159
12.0465,36.7159
11.9318,36.6392
11.9318,36.6392
11.8043,36.5864
11.8043,36.5864
11.6690,36.5595
11.6690,36.5595
11.5310,36.5595
11.5310,36.5595
11.3957,36.5864
11.3957,36.5864
11.2682,36.6392
11.2682,36.6392
11.2317,36.6636
11.1650,36.6845
11.1628,36.6845
9.5497,36.6845
9.4827,36.6648
9.4621,36.6482
7.4998,34.6859
7.4663,34.6246
7.4635,34.5983
7.4635,25.5767
7.4832,25.5097
7.4998,25.4891
9.6926,23.2963
11.9605,21.0284
11.9631,21.0239
12.0137,20.9757
12.0823,20.9624
12.1471,20.9884
12.1877,21.0453
12.1945,21.0859
12.1945,21.6653
12.1748,21.7323
12.1582,21.7529
8.0395,25.8716
8.0395,25.8716
7.9637,26.0029
7.9245,26.1492
7.9245,27.6628
7.9048,27.7299
7.9036,27.7317
7.8792,27.7682
7.8792,27.7682
7.8264,27.8957
7.8264,27.8957
7.7995,28.0310
7.7995,28.0310
7.7995,28.1690
7.7995,28.1690
7.7995,28.1690
7.8264,28.3043
7.8264,28.3043
7.8792,28.4318
7.8792,28.4318
7.9559,28.5465
7.9559,28.5465
8.0535,28.6441
8.0535,28.6441
8.1682,28.7208
8.1682,28.7208
8.2957,28.7736
8.2957,28.7736
8.2957,28.7736
8.2957,28.7736
8.4310,28.8005
8.4310,28.8005
8.5690,28.8005
8.6600,28.7824
8.7043,28.7736
8.8318,28.7208
8.9465,28.6441
9.0441,28.5465
9.1208,28.4318
9.1736,28.3043
9.2005,28.1690
9.2005,28.0310
9.2005,28.0310
9.1736,27.8957
9.1736,27.8957
9.1736,27.8957
9.1736,27.8957
9.1208,27.7682
9.1208,27.7682
9.0964,27.7317
9.0755,27.6650
9.0755,27.6628
9.0755,26.5147
9.0952,26.4477
9.1118,26.4271
12.5477,22.9912
12.8707,22.6682
13.2305,22.3084
13.2334,22.3034
13.3063,22.1771
13.3109,22.1599
13.3455,22.0308
13.3455,21.8792
13.3455,6.4202
15.6895,6.4202
15.6895,6.5798
15.7206,6.7364
15.7206,6.7364
15.7817,6.8839
15.7817,6.8839
15.8704,7.0167
15.8704,7.0167
15.9833,7.1296
15.9833,7.1296
16.1161,7.2183
16.1161,7.2183
16.2636,7.2794
16.2636,7.2794
16.4202,7.3105
16.4202,7.3105
16.4202,7.3105
16.5798,7.3105
16.5798,7.3105
16.7364,7.2794
16.8839,7.2183
16.8839,7.2183
16.9498,7.1742
17.0167,7.1296
17.1296,7.0167
17.2183,6.8839
17.2794,6.7364
17.3105,6.5798
17.3105,6.4202
17.2794,6.2636
17.2794,6.2636
17.2183,6.1161
17.2183,6.1161
17.1296,5.9833
17.1296,5.9833
17.0167,5.8704
17.0167,5.8704
16.8839,5.7817
16.8839,5.7817
16.7364,5.7206
16.7364,5.7206
16.5798,5.6895
16.5798,5.6895
16.4202,5.6895
16.4202,5.6895
16.2636,5.7206
16.2636,5.7206
16.1161,5.7817
16.1161,5.7817
15.9833,5.8704
15.9833,5.8704
15.8704,5.9833
15.8704,5.9833
15.7817,6.1161
15.7817,6.1161
15.7206,6.2636
15.7206,6.2636
15.6895,6.4202
13.3455,6.4202
13.3455,4.1550
13.3652,4.0880
13.4006,4.0519
13.4078,4.0471
13.5471,3.9078
13.6566,3.7439
13.7320,3.5618
13.7705,3.3685
13.7705,3.1715
13.7705,3.1715
13.7321,2.9782
13.7320,2.9782
13.7320,2.9782
13.7320,2.9782
13.6566,2.7961
13.6566,2.7961
13.5471,2.6322
13.5471,2.6322
13.4078,2.4929
13.4078,2.4929
13.2439,2.3834
13.2439,2.3834
13.0618,2.3079
13.0618,2.3079
12.8685,2.2695
12.8685,2.2695
12.6715,2.2695
12.6715,2.2695
12.6487,2.2740
12.6277,2.2721
12.6069,2.2751
12.5936,2.2691
12.5791,2.2678
12.5625,2.2549
12.5433,2.2461
12.5354,2.2339
12.5239,2.2249
12.5169,2.2051
12.5055,2.1873
12.5020,2.1628
12.5007,2.1590
12.5005,2.1524
12.5005,1.4521
12.5005,1.4521
12.4941,1.3925
12.4438,1.2577
12.4438,1.2577
12.3575,1.1425
12.3575,1.1425
12.2423,1.0562
12.2423,1.0562
12.1075,1.0059
12.1075,1.0059
12.0479,0.9995
12.0479,0.9995
12.0479,0.9995
12.0479,0.9995
10.9521,0.9995
10.9521,0.9995
10.8925,1.0059
10.7577,1.0562
10.7577,1.0562
10.7454,1.0654
10.6800,1.0898
10.6237,1.0807
10.5217,1.0384
10.5217,1.0384
10.4800,1.0301
10.4800,1.7904
10.4296,1.7399
10.3554,1.6971
10.2728,1.6750
10.1872,1.6750
10.1046,1.6971
10.0304,1.7399
9.9699,1.8004
9.9271,1.8746
9.9050,1.9572
9.9050,2.0428
9.9271,2.1254
9.9699,2.1996
10.0204,2.2500
9.2601,2.2500
9.2684,2.2917
9.2684,2.2917
9.3107,2.3937
9.3181,2.4631
9.2954,2.5154
9.2862,2.5277
9.2862,2.5277
9.2359,2.6625
9.2295,2.7221
9.2295,2.7221
9.2295,3.8179
9.2295,3.8179
9.2359,3.8775
9.2862,4.0123
9.2862,4.0123
9.3725,4.1275
9.3725,4.1275
9.4877,4.2138
9.4877,4.2138
9.5738,4.2459
9.6298,4.2878
9.6542,4.3533
9.6545,4.3621
9.6545,19.3803
9.6348,19.4473
9.6182,19.4679
6.8229,22.2632
6.7616,22.2967
6.7353,22.2995
6.6560,22.2995
6.5207,22.3264
6.5207,22.3264
6.3932,22.3792
6.3932,22.3792
6.2785,22.4559
6.2785,22.4559
6.1809,22.5535
6.1809,22.5535
6.1042,22.6682
6.1042,22.6682
6.0514,22.7957
6.0514,22.7957
6.0245,22.9310
6.0245,22.9310
6.0245,23.0690
6.0245,23.0690
6.0245,23.0690
3.9582,23.0690
3.9272,22.8738
3.8616,22.6716
3.7651,22.4822
3.7650,22.4822
3.7650,22.4822
3.6401,22.3102
3.4898,22.1599
3.3178,22.0349
3.3085,22.0302
3.2577,21.9822
3.2409,21.9144
3.2634,21.8483
3.3085,21.8092
3.3176,21.8046
3.4895,21.6797
3.4895,21.6797
3.6397,21.5295
3.6397,21.5295
3.7646,21.3576
3.8611,21.1682
3.9268,20.9661
3.9268,20.9661
3.9372,20.9000
3.0430,20.9000
3.0759,20.8430
3.1100,20.7158
3.1100,20.5842
3.0759,20.4570
3.0430,20.4000
3.9372,20.4000
3.9268,20.3339
3.9268,20.3339
3.8611,20.1318
3.7646,19.9424
3.6397,19.7705
3.6397,19.7705
3.4895,19.6203
3.4895,19.6203
3.3176,19.4954
3.3085,19.4908
3.2577,19.4428
3.2409,19.3750
3.2635,19.3088
3.3085,19.2698
3.3178,19.2651
3.3970,19.2075
3.4898,19.1401
3.4898,19.1401
3.4898,19.1401
3.6401,18.9898
3.6401,18.9898
3.6401,18.9898
3.7650,18.8178
3.7650,18.8178
3.7651,18.8178
3.8616,18.6284
3.9272,18.4262
3.9605,18.2163
3.9605,18.0037
3.9272,17.7938
3.8616,17.5916
3.7651,17.4022
3.7650,17.4022
3.7650,17.4022
3.6401,17.2302
3.4898,17.0799
3.3178,16.9550
3.3171,16.9546
3.3091,16.9505
3.2583,16.9025
3.2415,16.8347
3.2640,16.7686
3.3091,16.7295
3.3178,16.7251
3.3398,16.7091
3.4898,16.6001
3.4898,16.6001
3.4898,16.6001
3.6401,16.4498
3.6401,16.4498
3.6401,16.4498
3.7650,16.2778
3.7650,16.2778
3.7651,16.2778
3.8616,16.0884
3.9272,15.8862
3.9605,15.6763
3.9605,15.4637
3.9272,15.2538
3.8616,15.0516
3.7651,14.8622
3.7650,14.8622
3.7650,14.8622
3.6401,14.6902
3.4898,14.5399
3.3178,14.4150
3.3171,14.4146
3.3091,14.4105
3.2583,14.3625
3.2415,14.2947
3.2640,14.2286
3.3091,14.1895
3.3178,14.1851
3.3398,14.1691
3.4898,14.0601
3.4898,14.0601
3.4898,14.0601
3.6401,13.9098
3.6401,13.9098
3.6401,13.9098
3.7650,13.7378
3.7650,13.7378
3.7651,13.7378
3.8616,13.5484
3.9272,13.3462
3.9605,13.1363
3.9605,12.9237
3.9272,12.7138
3.8616,12.5116
3.7651,12.3222
3.7650,12.3222
3.7650,12.3222
3.6401,12.1502
3.4898,11.9999
3.3178,11.8750
3.3171,11.8746
3.3091,11.8705
3.2583,11.8225
3.2415,11.7547
3.2640,11.6886
3.3091,11.6495
3.3178,11.6451
3.3398,11.6291
3.4898,11.5201
3.4898,11.5201
3.4898,11.5201
3.6401,11.3698
3.6401,11.3698
3.6401,11.3698
3.7650,11.1978
3.7650,11.1978
3.7651,11.1978
3.8616,11.0084
3.9272,10.8062
3.9605,10.5963
3.9605,10.3837
3.9272,10.1738
3.8616,9.9716
3.7651,9.7822
3.7650,9.7822
3.7650,9.7822
3.6401,9.6102
3.4898,9.4599
3.3178,9.3349
3.3085,9.3302
3.2577,9.2822
3.2409,9.2144
3.2634,9.1483
3.3085,9.1092
3.3176,9.1046
3.4895,8.9797
3.4895,8.9797
3.6397,8.8295
3.6397,8.8295
3.7646,8.6576
3.8611,8.4682
3.9268,8.2661
3.9268,8.2661
3.9372,8.2000
3.0430,8.2000
3.0759,8.1430
3.1100,8.0158
3.1100,7.8842
3.0759,7.7570
3.0430,7.7000
3.9372,7.7000
3.9268,7.6339
3.9268,7.6339
3.8611,7.4318
3.7646,7.2424
3.6397,7.0705
3.6397,7.0705
3.4895,6.9203
3.4895,6.9203
3.3176,6.7954
3.3085,6.7908
3.2577,6.7428
3.2409,6.6750
3.2635,6.6088
3.3085,6.5698
3.3178,6.5651
3.3970,6.5075
3.4898,6.4401
3.4898,6.4401
3.4898,6.4401
3.5097,6.4202
5.6895,6.4202
5.6895,6.5798
5.7206,6.7364
5.7206,6.7364
5.7817,6.8839
5.7817,6.8839
5.8704,7.0167
5.8704,7.0167
5.9833,7.1296
5.9833,7.1296
6.1161,7.2183
6.1161,7.2183
6.2636,7.2794
6.2636,7.2794
6.4202,7.3105
6.4202,7.3105
6.4202,7.3105
6.5798,7.3105
6.5798,7.3105
6.7364,7.2794
6.8839,7.2183
6.8839,7.2183
6.9498,7.1742
7.0167,7.1296
7.1296,7.0167
7.2183,6.8839
7.2794,6.7364
7.3105,6.5798
7.3105,6.4202
7.2794,6.2636
7.2794,6.2636
7.2183,6.1161
7.2183,6.1161
7.1296,5.9833
7.1296,5.9833
7.0167,5.8704
7.0167,5.8704
6.8839,5.7817
6.8839,5.7817
6.7364,5.7206
6.7364,5.7206
6.5798,5.6895
6.5798,5.6895
6.4202,5.6895
6.4202,5.6895
6.2636,5.7206
6.2636,5.7206
6.1161,5.7817
6.1161,5.7817
5.9833,5.8704
5.9833,5.8704
5.8704,5.9833
5.8704,5.9833
5.7817,6.1161
5.7817,6.1161
5.7206,6.2636
5.7206,6.2636
5.6895,6.4202
3.5097,6.4202
3.6401,6.2898
3.6401,6.2898
3.6401,6.2898
3.7650,6.1178
3.7650,6.1178
3.7651,6.1178
3.8616,5.9284
3.9272,5.7262
3.9605,5.5163
3.9605,5.3037
3.9272,5.0938
3.8616,4.8916
3.7651,4.7022
3.7650,4.7022
3.7650,4.7022
3.6401,4.5302
3.5266,4.4167
3.4931,4.3553
3.4981,4.2857
3.5399,4.2297
3.5709,4.2128
3.7023,4.1638
3.8175,4.0775
3.9038,3.9623
3.9541,3.8275
3.9605,3.7679
3.9605,1.9721
3.9541,1.9125
3.9123,1.8004
3.9038,1.7777
3.9038,1.7777
3.8831,1.7500
9.2601,1.7500
9.9800,1.7500
9.9800,1.0301
9.9800,1.0301
9.9383,1.0384
9.9383,1.0384
9.7563,1.1138
9.7563,1.1138
9.5925,1.2232
9.5925,1.2233
9.4532,1.3625
9.4532,1.3625
9.3438,1.5263
9.3438,1.5263
9.2684,1.7083
9.2684,1.7083
9.2601,1.7500
3.8831,1.7500
3.8175,1.6625
3.8175,1.6625
3.7023,1.5762
3.7023,1.5762
3.5675,1.5259
3.5675,1.5259
3.5079,1.5195
3.5079,1.5195
3.5079,1.5195
3.5079,1.5195
1.7121,1.5195
1.7121,1.5195
1.6525,1.5259
1.5177,1.5762
1.5177,1.5762
1.4025,1.6625
1.4025,1.6625
1.3162,1.7777
1.3162,1.7777
1.2659,1.9125
1.2626,1.9430
1.2595,1.9721
1.2595,1.9721
0.5105,1.9721
0.5105,1.5054
0.5110,1.4946
0.5182,1.4116
0.5246,1.3390
0.5283,1.3177
0.5674,1.1720
0.5748,1.1517
0.5791,1.1425
0.6385,1.0151
0.6493,0.9964
0.7358,0.8728
0.7497,0.8563
0.8563,0.7497
0.8728,0.7358
0.9964,0.6493
1.0151,0.6385
1.1517,0.5748
1.1720,0.5674
1.3177,0.5283
1.3390,0.5246
1.4946,0.5110
1.5054,0.5105
21.4946,0.5105
Z" /> 
<path style="fill:#000000; fill-opacity:1.0000; stroke:none;fill-rule:evenodd;"
d="M 10.6000,47.5950
10.5799,47.7730
10.5208,47.9421
10.4255,48.0938
10.2988,48.2205
10.1471,48.3158
9.9780,48.3749
9.8000,48.3950
9.7000,48.3950
9.5220,48.3749
9.3529,48.3158
9.2012,48.2205
9.0745,48.0938
8.9792,47.9421
8.9201,47.7730
8.9000,47.5950
8.9000,46.6950
8.9201,46.5170
8.9792,46.3479
9.0745,46.1962
9.2012,46.0695
9.3529,45.9742
9.5220,45.9151
9.7000,45.8950
9.8000,45.8950
9.9780,45.9151
10.1471,45.9742
10.2988,46.0695
10.4255,46.1962
10.5208,46.3479
10.5799,46.5170
10.6000,46.6950
Z" /> 
<path style="fill:#000000; fill-opacity:1.0000; stroke:none;fill-rule:evenodd;"
d="M 11.9500,43.9950
12.1280,44.0151
12.2971,44.0742
12.4488,44.1695
12.5755,44.2962
12.6708,44.4479
12.7299,44.6170
12.7500,44.7950
12.7500,44.8950
12.7299,45.0730
12.6708,45.2421
12.5755,45.3938
12.4488,45.5205
12.2971,45.6158
12.1280,45.6749
11.9500,45.6950
11.0500,45.6950
10.8720,45.6749
10.7029,45.6158
10.5512,45.5205
10.4245,45.3938
10.3292,45.2421
10.2701,45.0730
10.2500,44.8950
10.2500,44.7950
10.2701,44.6170
10.3292,44.4479
10.4245,44.2962
10.5512,44.1695
10.7029,44.0742
10.8720,44.0151
11.0500,43.9950
Z" /> 
<path style="fill:#000000; fill-opacity:1.0000; stroke:none;fill-rule:evenodd;"
d="M 14.1000,47.5950
14.0799,47.7730
14.0208,47.9421
13.9255,48.0938
13.7988,48.2205
13.6471,48.3158
13.4780,48.3749
13.3000,48.3950
13.2000,48.3950
13.0220,48.3749
12.8529,48.3158
12.7012,48.2205
12.5745,48.0938
12.4792,47.9421
12.4201,47.7730
12.4000,47.5950
12.4000,46.6950
12.4201,46.5170
12.4792,46.3479
12.5745,46.1962
12.7012,46.0695
12.8529,45.9742
13.0220,45.9151
13.2000,45.8950
13.3000,45.8950
13.4780,45.9151
13.6471,45.9742
13.7988,46.0695
13.9255,46.1962
14.0208,46.3479
14.0799,46.5170
14.1000,46.6950
Z" /> 
<path style="fill:#000000; fill-opacity:1.0000; stroke:none;fill-rule:evenodd;"
d="M 12.2000,50.4950
12.3780,50.5151
12.5471,50.5742
12.6988,50.6695
12.8255,50.7962
12.9208,50.9479
12.9799,51.1170
13.0000,51.2950
13.0000,51.3950
12.9799,51.5730
12.9208,51.7421
12.8255,51.8938
12.6988,52.0205
12.5471,52.1158
12.3780,52.1749
12.2000,52.1950
10.8000,52.1950
10.6220,52.1749
10.4529,52.1158
10.3012,52.0205
10.1745,51.8938
10.0792,51.7421
10.0201,51.5730
10.0000,51.3950
10.0000,51.2950
10.0201,51.1170
10.0792,50.9479
10.1745,50.7962
10.3012,50.6695
10.4529,50.5742
10.6220,50.5151
10.8000,50.4950
Z" /> 
<path style="fill:#000000; fill-opacity:1.0000; stroke:none;fill-rule:evenodd;"
d="M 10.7300,3.7700
9.7300,3.7700
9.7300,2.7700
10.7300,2.7700
Z" /> 
</g>
<g style="fill:#000000; fill-opacity:1.0000; stroke:none;">
<circle cx="11.5000" cy="3.2700" r="0.5000" /> 
<circle cx="12.7700" cy="3.2700" r="0.5000" /> 
<path style="fill:#000000; fill-opacity:1.0000; stroke:none;fill-rule:evenodd;"
d="M 11.0000,1.5000
12.0000,1.5000
12.0000,2.5000
11.0000,2.5000
Z" /> 
<circle cx="10.2300" cy="2.0000" r="0.5000" /> 
<path style="fill:#000000; fill-opacity:1.0000; stroke:none;fill-rule:evenodd;"
d="M 19.5400,3.7200
19.5400,2.0200
21.2400,2.0200
21.2400,3.7200
Z" /> 
<circle cx="20.3900" cy="5.4100" r="0.8500" /> 
<circle cx="20.3900" cy="7.9500" r="0.8500" /> 
<circle cx="20.3900" cy="10.4900" r="0.8500" /> 
<circle cx="20.3900" cy="13.0300" r="0.8500" /> 
<circle cx="20.3900" cy="15.5700" r="0.8500" /> 
<circle cx="20.3900" cy="18.1100" r="0.8500" /> 
<circle cx="20.3900" cy="20.6500" r="0.8500" /> 
<circle cx="20.3900" cy="23.1900" r="0.8500" /> 
<circle cx="20.3900" cy="25.7300" r="0.8500" /> 
<circle cx="20.3900" cy="28.2700" r="0.8500" /> 
<circle cx="20.3900" cy="30.8100" r="0.8500" /> 
<circle cx="20.3900" cy="33.3500" r="0.8500" /> 
<circle cx="20.3900" cy="35.8900" r="0.8500" /> 
<circle cx="20.3900" cy="38.4300" r="0.8500" /> 
<circle cx="20.3900" cy="40.9700" r="0.8500" /> 
<circle cx="20.3900" cy="43.5100" r="0.8500" /> 
<circle cx="20.3900" cy="46.0500" r="0.8500" /> 
<circle cx="20.3900" cy="48.5900" r="0.8500" /> 
<circle cx="20.3900" cy="51.1300" r="0.8500" /> 
<path style="fill:#000000; fill-opacity:1.0000; stroke:none;fill-rule:evenodd;"
d="M 1.7600,3.7200
1.7600,2.0200
3.4600,2.0200
3.4600,3.7200
Z" /> 
<circle cx="2.6100" cy="5.4100" r="0.8500" /> 
<circle cx="2.6100" cy="7.9500" r="0.8500" /> 
<circle cx="2.6100" cy="10.4900" r="0.8500" /> 
<circle cx="2.6100" cy="13.0300" r="0.8500" /> 
<circle cx="2.6100" cy="15.5700" r="0.8500" /> 
<circle cx="2.6100" cy="18.1100" r="0.8500" /> 
<circle cx="2.6100" cy="20.6500" r="0.8500" /> 
<circle cx="2.6100" cy="23.1900" r="0.8500" /> 
<circle cx="2.6100" cy="25.7300" r="0.8500" /> 
<circle cx="2.6100" cy="28.2700" r="0.8500" /> 
<circle cx="2.6100" cy="30.8100" r="0.8500" /> 
<circle cx="2.6100" cy="33.3500" r="0.8500" /> 
<circle cx="2.6100" cy="35.8900" r="0.8500" /> 
<circle cx="2.6100" cy="38.4300" r="0.8500" /> 
<circle cx="2.6100" cy="40.9700" r="0.8500" /> 
<circle cx="2.6100" cy="43.5100" r="0.8500" /> 
<circle cx="2.6100" cy="46.0500" r="0.8500" /> 
<circle cx="2.6100" cy="48.5900" r="0.8500" /> 
<circle cx="2.6100" cy="51.1300" r="0.8500" /> 
<path style="fill:#000000; fill-opacity:1.0000; 
stroke:#000000; stroke-width:0.1524; stroke-opacity:1; 
stroke-linecap:round; stroke-linejoin:round;fill-rule:evenodd;"
d="M 21.0000,14.5000
18.0000,13.0000
21.0000,11.5000
Z" /> 
<path style="fill:#000000; fill-opacity:1.0000; 
stroke:#000000; stroke-width:0.1524; stroke-opacity:1; 
stroke-linecap:round; stroke-linejoin:round;fill-rule:evenodd;"
d="M 19.1000,32.1000
21.7000,32.1000
21.7000,34.6000
19.1000,34.6000
Z" /> 
</g>
<g style="fill:none; 
stroke:#000000; stroke-width:0.1524; stroke-opacity:1; 
stroke-linecap:round; stroke-linejoin:round;">
<path d="M15.5000 1.7500
L15.5000 4.2500
" />
<path d="M13.5000 4.5000
L9.5000 4.5000
" />
<path d="M16.0000 2.2500
L15.5000 1.7500
" />
<path d="M15.0000 2.2500
L15.5000 1.7500
" />
<path style="fill:#000000; fill-opacity:1.0000; 
stroke:#000000; stroke-width:0.1524; stroke-opacity:1; 
stroke-linecap:round; stroke-linejoin:round;fill-rule:evenodd;"
d="M 19.1000,44.8000
21.7000,44.8000
21.7000,47.3000
19.1000,47.3000
Z" /> 
</g>
<g style="fill:none; 
stroke:#000000; stroke-width:0.1524; stroke-opacity:1; 
stroke-linecap:round; stroke-linejoin:round;">
<path d="M9.5000 1.0000
L13.5000 1.0000
" />
<path d="M13.5000 1.0000
L13.5000 4.5000
" />
<path style="fill:#000000; fill-opacity:1.0000; 
stroke:#000000; stroke-width:0.1524; stroke-opacity:1; 
stroke-linecap:round; stroke-linejoin:round;fill-rule:evenodd;"
d="M 1.3000,32.1000
3.9000,32.1000
3.9000,34.6000
1.3000,34.6000
Z" /> 
<path style="fill:#000000; fill-opacity:1.0000; 
stroke:#000000; stroke-width:0.1524; stroke-opacity:1; 
stroke-linecap:round; stroke-linejoin:round;fill-rule:evenodd;"
d="M 1.3000,6.7000
3.9000,6.7000
3.9000,9.2000
1.3000,9.2000
Z" /> 
<path style="fill:#000000; fill-opacity:1.0000; 
stroke:#000000; stroke-width:0.1524; stroke-opacity:1; 
stroke-linecap:round; stroke-linejoin:round;fill-rule:evenodd;"
d="M 1.3000,44.8000
3.9000,44.8000
3.9000,47.3000
1.3000,47.3000
Z" /> 
</g>
<g style="fill:none; 
stroke:#000000; stroke-width:0.1524; stroke-opacity:1; 
stroke-linecap:round; stroke-linejoin:round;">
<path d="M9.5000 4.5000
L9.5000 1.0000
" />
<path style="fill:#000000; fill-opacity:1.0000; 
stroke:#000000; stroke-width:0.1524; stroke-opacity:1; 
stroke-linecap:round; stroke-linejoin:round;fill-rule:evenodd;"
d="M 19.1000,6.7000
21.7000,6.7000
21.7000,9.2000
19.1000,9.2000
Z" /> 
<path style="fill:#000000; fill-opacity:1.0000; 
stroke:#000000; stroke-width:0.1524; stroke-opacity:1; 
stroke-linecap:round; stroke-linejoin:round;fill-rule:evenodd;"
d="M 1.3000,19.4000
3.9000,19.4000
3.9000,21.9000
1.3000,21.9000
Z" /> 
<path style="fill:#000000; fill-opacity:1.0000; 
stroke:#000000; stroke-width:0.1524; stroke-opacity:1; 
stroke-linecap:round; stroke-linejoin:round;fill-rule:evenodd;"
d="M 19.1000,19.4000
21.7000,19.4000
21.7000,21.9000
19.1000,21.9000
Z" /> 
</g>
<g style="fill:none; 
stroke:#000000; stroke-width:0.2500; stroke-opacity:1; 
stroke-linecap:round; stroke-linejoin:round;">
<text x="4.5000" y="39.1000"
textLength="2.4071" font-size="1.3333" lengthAdjust="spacingAndGlyphs"
text-anchor="start" opacity="0" stroke-opacity="0">a2</text>
<g class="stroked-text"><desc>a2</desc>
<path d="M5.3311 39.0496
L5.3311 38.5258
" />
<path d="M5.3311 38.5258
L5.2835 38.4306
" />
<path d="M5.2835 38.4306
L5.1883 38.3830
" />
<path d="M5.1883 38.3830
L4.9978 38.3830
" />
<path d="M4.9978 38.3830
L4.9026 38.4306
" />
<path d="M5.3311 39.0020
L5.2359 39.0496
" />
<path d="M5.2359 39.0496
L4.9978 39.0496
" />
<path d="M4.9978 39.0496
L4.9026 39.0020
" />
<path d="M4.9026 39.0020
L4.8549 38.9068
" />
<path d="M4.8549 38.9068
L4.8549 38.8115
" />
<path d="M4.8549 38.8115
L4.9026 38.7163
" />
<path d="M4.9026 38.7163
L4.9978 38.6687
" />
<path d="M4.9978 38.6687
L5.2359 38.6687
" />
<path d="M5.2359 38.6687
L5.3311 38.6210
" />
<path d="M5.7597 38.1449
L5.8073 38.0972
" />
<path d="M5.8073 38.0972
L5.9026 38.0496
" />
<path d="M5.9026 38.0496
L6.1407 38.0496
" />
<path d="M6.1407 38.0496
L6.2359 38.0972
" />
<path d="M6.2359 38.0972
L6.2835 38.1449
" />
<path d="M6.2835 38.1449
L6.3311 38.2401
" />
<path d="M6.3311 38.2401
L6.3311 38.3353
" />
<path d="M6.3311 38.3353
L6.2835 38.4782
" />
<path d="M6.2835 38.4782
L5.7121 39.0496
" />
<path d="M5.7121 39.0496
L6.3311 39.0496
" />
</g><text x="4.5000" y="31.5000"
textLength="2.4071" font-size="1.3333" lengthAdjust="spacingAndGlyphs"
text-anchor="start" opacity="0" stroke-opacity="0">a0</text>
<g class="stroked-text"><desc>a0</desc>
<path d="M5.3311 31.4496
L5.3311 30.9258
" />
<path d="M5.3311 30.9258
L5.2835 30.8306
" />
<path d="M5.2835 30.8306
L5.1883 30.7830
" />
<path d="M5.1883 30.7830
L4.9978 30.7830
" />
<path d="M4.9978 30.7830
L4.9026 30.8306
" />
<path d="M5.3311 31.4020
L5.2359 31.4496
" />
<path d="M5.2359 31.4496
L4.9978 31.4496
" />
<path d="M4.9978 31.4496
L4.9026 31.4020
" />
<path d="M4.9026 31.4020
L4.8549 31.3068
" />
<path d="M4.8549 31.3068
L4.8549 31.2115
" />
<path d="M4.8549 31.2115
L4.9026 31.1163
" />
<path d="M4.9026 31.1163
L4.9978 31.0687
" />
<path d="M4.9978 31.0687
L5.2359 31.0687
" />
<path d="M5.2359 31.0687
L5.3311 31.0210
" />
<path d="M5.9978 30.4496
L6.0930 30.4496
" />
<path d="M6.0930 30.4496
L6.1883 30.4972
" />
<path d="M6.1883 30.4972
L6.2359 30.5449
" />
<path d="M6.2359 30.5449
L6.2835 30.6401
" />
<path d="M6.2835 30.6401
L6.3311 30.8306
" />
<path d="M6.3311 30.8306
L6.3311 31.0687
" />
<path d="M6.3311 31.0687
L6.2835 31.2591
" />
<path d="M6.2835 31.2591
L6.2359 31.3544
" />
<path d="M6.2359 31.3544
L6.1883 31.4020
" />
<path d="M6.1883 31.4020
L6.0930 31.4496
" />
<path d="M6.0930 31.4496
L5.9978 31.4496
" />
<path d="M5.9978 31.4496
L5.9026 31.4020
" />
<path d="M5.9026 31.4020
L5.8549 31.3544
" />
<path d="M5.8549 31.3544
L5.8073 31.2591
" />
<path d="M5.8073 31.2591
L5.7597 31.0687
" />
<path d="M5.7597 31.0687
L5.7597 30.8306
" />
<path d="M5.7597 30.8306
L5.8073 30.6401
" />
<path d="M5.8073 30.6401
L5.8549 30.5449
" />
<path d="M5.8549 30.5449
L5.9026 30.4972
" />
<path d="M5.9026 30.4972
L5.9978 30.4496
" />
</g><text x="18.6000" y="41.5000"
textLength="4.0738" font-size="1.3333" lengthAdjust="spacingAndGlyphs"
text-anchor="end" opacity="0" stroke-opacity="0">PICO</text>
<g class="stroked-text"><desc>PICO</desc>
<path d="M15.1498 41.4496
L15.1498 40.4496
" />
<path d="M15.1498 40.4496
L15.5308 40.4496
" />
<path d="M15.5308 40.4496
L15.6260 40.4972
" />
<path d="M15.6260 40.4972
L15.6736 40.5449
" />
<path d="M15.6736 40.5449
L15.7212 40.6401
" />
<path d="M15.7212 40.6401
L15.7212 40.7830
" />
<path d="M15.7212 40.7830
L15.6736 40.8782
" />
<path d="M15.6736 40.8782
L15.6260 40.9258
" />
<path d="M15.6260 40.9258
L15.5308 40.9734
" />
<path d="M15.5308 40.9734
L15.1498 40.9734
" />
<path d="M16.1498 41.4496
L16.1498 40.4496
" />
<path d="M17.1974 41.3544
L17.1498 41.4020
" />
<path d="M17.1498 41.4020
L17.0070 41.4496
" />
<path d="M17.0070 41.4496
L16.9117 41.4496
" />
<path d="M16.9117 41.4496
L16.7689 41.4020
" />
<path d="M16.7689 41.4020
L16.6736 41.3068
" />
<path d="M16.6736 41.3068
L16.6260 41.2115
" />
<path d="M16.6260 41.2115
L16.5784 41.0210
" />
<path d="M16.5784 41.0210
L16.5784 40.8782
" />
<path d="M16.5784 40.8782
L16.6260 40.6877
" />
<path d="M16.6260 40.6877
L16.6736 40.5925
" />
<path d="M16.6736 40.5925
L16.7689 40.4972
" />
<path d="M16.7689 40.4972
L16.9117 40.4496
" />
<path d="M16.9117 40.4496
L17.0070 40.4496
" />
<path d="M17.0070 40.4496
L17.1498 40.4972
" />
<path d="M17.1498 40.4972
L17.1974 40.5449
" />
<path d="M17.8165 40.4496
L18.0070 40.4496
" />
<path d="M18.0070 40.4496
L18.1022 40.4972
" />
<path d="M18.1022 40.4972
L18.1974 40.5925
" />
<path d="M18.1974 40.5925
L18.2450 40.7830
" />
<path d="M18.2450 40.7830
L18.2450 41.1163
" />
<path d="M18.2450 41.1163
L18.1974 41.3068
" />
<path d="M18.1974 41.3068
L18.1022 41.4020
" />
<path d="M18.1022 41.4020
L18.0070 41.4496
" />
<path d="M18.0070 41.4496
L17.8165 41.4496
" />
<path d="M17.8165 41.4496
L17.7212 41.4020
" />
<path d="M17.7212 41.4020
L17.6260 41.3068
" />
<path d="M17.6260 41.3068
L17.5784 41.1163
" />
<path d="M17.5784 41.1163
L17.5784 40.7830
" />
<path d="M17.5784 40.7830
L17.6260 40.5925
" />
<path d="M17.6260 40.5925
L17.7212 40.4972
" />
<path d="M17.7212 40.4972
L17.8165 40.4496
" />
</g><text x="4.4000" y="49.3000"
textLength="3.1690" font-size="1.3333" lengthAdjust="spacingAndGlyphs"
text-anchor="start" opacity="0" stroke-opacity="0">sda</text>
<g class="stroked-text"><desc>sda</desc>
<path d="M4.7549 49.2020
L4.8502 49.2496
" />
<path d="M4.8502 49.2496
L5.0407 49.2496
" />
<path d="M5.0407 49.2496
L5.1359 49.2020
" />
<path d="M5.1359 49.2020
L5.1835 49.1068
" />
<path d="M5.1835 49.1068
L5.1835 49.0591
" />
<path d="M5.1835 49.0591
L5.1359 48.9639
" />
<path d="M5.1359 48.9639
L5.0407 48.9163
" />
<path d="M5.0407 48.9163
L4.8978 48.9163
" />
<path d="M4.8978 48.9163
L4.8026 48.8687
" />
<path d="M4.8026 48.8687
L4.7549 48.7734
" />
<path d="M4.7549 48.7734
L4.7549 48.7258
" />
<path d="M4.7549 48.7258
L4.8026 48.6306
" />
<path d="M4.8026 48.6306
L4.8978 48.5830
" />
<path d="M4.8978 48.5830
L5.0407 48.5830
" />
<path d="M5.0407 48.5830
L5.1359 48.6306
" />
<path d="M6.0407 49.2496
L6.0407 48.2496
" />
<path d="M6.0407 49.2020
L5.9454 49.2496
" />
<path d="M5.9454 49.2496
L5.7549 49.2496
" />
<path d="M5.7549 49.2496
L5.6597 49.2020
" />
<path d="M5.6597 49.2020
L5.6121 49.1544
" />
<path d="M5.6121 49.1544
L5.5645 49.0591
" />
<path d="M5.5645 49.0591
L5.5645 48.7734
" />
<path d="M5.5645 48.7734
L5.6121 48.6782
" />
<path d="M5.6121 48.6782
L5.6597 48.6306
" />
<path d="M5.6597 48.6306
L5.7549 48.5830
" />
<path d="M5.7549 48.5830
L5.9454 48.5830
" />
<path d="M5.9454 48.5830
L6.0407 48.6306
" />
<path d="M6.9454 49.2496
L6.9454 48.7258
" />
<path d="M6.9454 48.7258
L6.8978 48.6306
" />
<path d="M6.8978 48.6306
L6.8026 48.5830
" />
<path d="M6.8026 48.5830
L6.6121 48.5830
" />
<path d="M6.6121 48.5830
L6.5169 48.6306
" />
<path d="M6.9454 49.2020
L6.8502 49.2496
" />
<path d="M6.8502 49.2496
L6.6121 49.2496
" />
<path d="M6.6121 49.2496
L6.5169 49.2020
" />
<path d="M6.5169 49.2020
L6.4692 49.1068
" />
<path d="M6.4692 49.1068
L6.4692 49.0115
" />
<path d="M6.4692 49.0115
L6.5169 48.9163
" />
<path d="M6.5169 48.9163
L6.6121 48.8687
" />
<path d="M6.6121 48.8687
L6.8502 48.8687
" />
<path d="M6.8502 48.8687
L6.9454 48.8210
" />
</g><text x="4.5000" y="41.7000"
textLength="2.4071" font-size="1.3333" lengthAdjust="spacingAndGlyphs"
text-anchor="start" opacity="0" stroke-opacity="0">a3</text>
<g class="stroked-text"><desc>a3</desc>
<path d="M5.3311 41.6496
L5.3311 41.1258
" />
<path d="M5.3311 41.1258
L5.2835 41.0306
" />
<path d="M5.2835 41.0306
L5.1883 40.9830
" />
<path d="M5.1883 40.9830
L4.9978 40.9830
" />
<path d="M4.9978 40.9830
L4.9026 41.0306
" />
<path d="M5.3311 41.6020
L5.2359 41.6496
" />
<path d="M5.2359 41.6496
L4.9978 41.6496
" />
<path d="M4.9978 41.6496
L4.9026 41.6020
" />
<path d="M4.9026 41.6020
L4.8549 41.5068
" />
<path d="M4.8549 41.5068
L4.8549 41.4115
" />
<path d="M4.8549 41.4115
L4.9026 41.3163
" />
<path d="M4.9026 41.3163
L4.9978 41.2687
" />
<path d="M4.9978 41.2687
L5.2359 41.2687
" />
<path d="M5.2359 41.2687
L5.3311 41.2210
" />
<path d="M5.7121 40.6496
L6.3311 40.6496
" />
<path d="M6.3311 40.6496
L5.9978 41.0306
" />
<path d="M5.9978 41.0306
L6.1407 41.0306
" />
<path d="M6.1407 41.0306
L6.2359 41.0782
" />
<path d="M6.2359 41.0782
L6.2835 41.1258
" />
<path d="M6.2835 41.1258
L6.3311 41.2210
" />
<path d="M6.3311 41.2210
L6.3311 41.4591
" />
<path d="M6.3311 41.4591
L6.2835 41.5544
" />
<path d="M6.2835 41.5544
L6.2359 41.6020
" />
<path d="M6.2359 41.6020
L6.1407 41.6496
" />
<path d="M6.1407 41.6496
L5.8549 41.6496
" />
<path d="M5.8549 41.6496
L5.7597 41.6020
" />
<path d="M5.7597 41.6020
L5.7121 41.5544
" />
</g><text x="18.5000" y="51.5000"
textLength="4.0738" font-size="1.3333" lengthAdjust="spacingAndGlyphs"
text-anchor="end" opacity="0" stroke-opacity="0">POCI</text>
<g class="stroked-text"><desc>POCI</desc>
<path d="M15.0498 51.4496
L15.0498 50.4496
" />
<path d="M15.0498 50.4496
L15.4308 50.4496
" />
<path d="M15.4308 50.4496
L15.5260 50.4972
" />
<path d="M15.5260 50.4972
L15.5736 50.5449
" />
<path d="M15.5736 50.5449
L15.6212 50.6401
" />
<path d="M15.6212 50.6401
L15.6212 50.7830
" />
<path d="M15.6212 50.7830
L15.5736 50.8782
" />
<path d="M15.5736 50.8782
L15.5260 50.9258
" />
<path d="M15.5260 50.9258
L15.4308 50.9734
" />
<path d="M15.4308 50.9734
L15.0498 50.9734
" />
<path d="M16.2403 50.4496
L16.4308 50.4496
" />
<path d="M16.4308 50.4496
L16.5260 50.4972
" />
<path d="M16.5260 50.4972
L16.6212 50.5925
" />
<path d="M16.6212 50.5925
L16.6689 50.7830
" />
<path d="M16.6689 50.7830
L16.6689 51.1163
" />
<path d="M16.6689 51.1163
L16.6212 51.3068
" />
<path d="M16.6212 51.3068
L16.5260 51.4020
" />
<path d="M16.5260 51.4020
L16.4308 51.4496
" />
<path d="M16.4308 51.4496
L16.2403 51.4496
" />
<path d="M16.2403 51.4496
L16.1451 51.4020
" />
<path d="M16.1451 51.4020
L16.0498 51.3068
" />
<path d="M16.0498 51.3068
L16.0022 51.1163
" />
<path d="M16.0022 51.1163
L16.0022 50.7830
" />
<path d="M16.0022 50.7830
L16.0498 50.5925
" />
<path d="M16.0498 50.5925
L16.1451 50.4972
" />
<path d="M16.1451 50.4972
L16.2403 50.4496
" />
<path d="M17.6689 51.3544
L17.6212 51.4020
" />
<path d="M17.6212 51.4020
L17.4784 51.4496
" />
<path d="M17.4784 51.4496
L17.3831 51.4496
" />
<path d="M17.3831 51.4496
L17.2403 51.4020
" />
<path d="M17.2403 51.4020
L17.1451 51.3068
" />
<path d="M17.1451 51.3068
L17.0974 51.2115
" />
<path d="M17.0974 51.2115
L17.0498 51.0210
" />
<path d="M17.0498 51.0210
L17.0498 50.8782
" />
<path d="M17.0498 50.8782
L17.0974 50.6877
" />
<path d="M17.0974 50.6877
L17.1451 50.5925
" />
<path d="M17.1451 50.5925
L17.2403 50.4972
" />
<path d="M17.2403 50.4972
L17.3831 50.4496
" />
<path d="M17.3831 50.4496
L17.4784 50.4496
" />
<path d="M17.4784 50.4496
L17.6212 50.4972
" />
<path d="M17.6212 50.4972
L17.6689 50.5449
" />
<path d="M18.0974 51.4496
L18.0974 50.4496
" />
</g><text x="4.5000" y="51.6000"
textLength="2.7405" font-size="1.3333" lengthAdjust="spacingAndGlyphs"
text-anchor="start" opacity="0" stroke-opacity="0">scl</text>
<g class="stroked-text"><desc>scl</desc>
<path d="M4.8549 51.5020
L4.9502 51.5496
" />
<path d="M4.9502 51.5496
L5.1407 51.5496
" />
<path d="M5.1407 51.5496
L5.2359 51.5020
" />
<path d="M5.2359 51.5020
L5.2835 51.4068
" />
<path d="M5.2835 51.4068
L5.2835 51.3591
" />
<path d="M5.2835 51.3591
L5.2359 51.2639
" />
<path d="M5.2359 51.2639
L5.1407 51.2163
" />
<path d="M5.1407 51.2163
L4.9978 51.2163
" />
<path d="M4.9978 51.2163
L4.9026 51.1687
" />
<path d="M4.9026 51.1687
L4.8549 51.0734
" />
<path d="M4.8549 51.0734
L4.8549 51.0258
" />
<path d="M4.8549 51.0258
L4.9026 50.9306
" />
<path d="M4.9026 50.9306
L4.9978 50.8830
" />
<path d="M4.9978 50.8830
L5.1407 50.8830
" />
<path d="M5.1407 50.8830
L5.2359 50.9306
" />
<path d="M6.1407 51.5020
L6.0454 51.5496
" />
<path d="M6.0454 51.5496
L5.8549 51.5496
" />
<path d="M5.8549 51.5496
L5.7597 51.5020
" />
<path d="M5.7597 51.5020
L5.7121 51.4544
" />
<path d="M5.7121 51.4544
L5.6645 51.3591
" />
<path d="M5.6645 51.3591
L5.6645 51.0734
" />
<path d="M5.6645 51.0734
L5.7121 50.9782
" />
<path d="M5.7121 50.9782
L5.7597 50.9306
" />
<path d="M5.7597 50.9306
L5.8549 50.8830
" />
<path d="M5.8549 50.8830
L6.0454 50.8830
" />
<path d="M6.0454 50.8830
L6.1407 50.9306
" />
<path d="M6.7121 51.5496
L6.6169 51.5020
" />
<path d="M6.6169 51.5020
L6.5692 51.4068
" />
<path d="M6.5692 51.4068
L6.5692 50.5496
" />
</g><text x="18.6000" y="38.9000"
textLength="4.4071" font-size="1.3333" lengthAdjust="spacingAndGlyphs"
text-anchor="end" opacity="0" stroke-opacity="0">io--</text>
<g class="stroked-text"><desc>io--</desc>
<path d="M14.8165 38.8496
L14.8165 38.1830
" />
<path d="M14.8165 37.8496
L14.7689 37.8972
" />
<path d="M14.7689 37.8972
L14.8165 37.9449
" />
<path d="M14.8165 37.9449
L14.8641 37.8972
" />
<path d="M14.8641 37.8972
L14.8165 37.8496
" />
<path d="M14.8165 37.8496
L14.8165 37.9449
" />
<path d="M15.4355 38.8496
L15.3403 38.8020
" />
<path d="M15.3403 38.8020
L15.2927 38.7544
" />
<path d="M15.2927 38.7544
L15.2451 38.6591
" />
<path d="M15.2451 38.6591
L15.2451 38.3734
" />
<path d="M15.2451 38.3734
L15.2927 38.2782
" />
<path d="M15.2927 38.2782
L15.3403 38.2306
" />
<path d="M15.3403 38.2306
L15.4355 38.1830
" />
<path d="M15.4355 38.1830
L15.5784 38.1830
" />
<path d="M15.5784 38.1830
L15.6736 38.2306
" />
<path d="M15.6736 38.2306
L15.7212 38.2782
" />
<path d="M15.7212 38.2782
L15.7689 38.3734
" />
<path d="M15.7689 38.3734
L15.7689 38.6591
" />
<path d="M15.7689 38.6591
L15.7212 38.7544
" />
<path d="M15.7212 38.7544
L15.6736 38.8020
" />
<path d="M15.6736 38.8020
L15.5784 38.8496
" />
<path d="M15.5784 38.8496
L15.4355 38.8496
" />
<path d="M16.1974 38.4687
L16.9593 38.4687
" />
<path d="M17.4355 38.4687
L18.1974 38.4687
" />
</g><text x="4.5000" y="36.5000"
textLength="2.4071" font-size="1.3333" lengthAdjust="spacingAndGlyphs"
text-anchor="start" opacity="0" stroke-opacity="0">a1</text>
<g class="stroked-text"><desc>a1</desc>
<path d="M5.3311 36.4496
L5.3311 35.9258
" />
<path d="M5.3311 35.9258
L5.2835 35.8306
" />
<path d="M5.2835 35.8306
L5.1883 35.7830
" />
<path d="M5.1883 35.7830
L4.9978 35.7830
" />
<path d="M4.9978 35.7830
L4.9026 35.8306
" />
<path d="M5.3311 36.4020
L5.2359 36.4496
" />
<path d="M5.2359 36.4496
L4.9978 36.4496
" />
<path d="M4.9978 36.4496
L4.9026 36.4020
" />
<path d="M4.9026 36.4020
L4.8549 36.3068
" />
<path d="M4.8549 36.3068
L4.8549 36.2115
" />
<path d="M4.8549 36.2115
L4.9026 36.1163
" />
<path d="M4.9026 36.1163
L4.9978 36.0687
" />
<path d="M4.9978 36.0687
L5.2359 36.0687
" />
<path d="M5.2359 36.0687
L5.3311 36.0210
" />
<path d="M6.3311 36.4496
L5.7597 36.4496
" />
<path d="M6.0454 36.4496
L6.0454 35.4496
" />
<path d="M6.0454 35.4496
L5.9502 35.5925
" />
<path d="M5.9502 35.5925
L5.8549 35.6877
" />
<path d="M5.8549 35.6877
L5.7597 35.7353
" />
</g><text x="18.6000" y="36.4000"
textLength="3.8357" font-size="1.3333" lengthAdjust="spacingAndGlyphs"
text-anchor="end" opacity="0" stroke-opacity="0">io||</text>
<g class="stroked-text"><desc>io||</desc>
<path d="M15.3879 36.3496
L15.3879 35.6830
" />
<path d="M15.3879 35.3496
L15.3403 35.3972
" />
<path d="M15.3403 35.3972
L15.3879 35.4449
" />
<path d="M15.3879 35.4449
L15.4355 35.3972
" />
<path d="M15.4355 35.3972
L15.3879 35.3496
" />
<path d="M15.3879 35.3496
L15.3879 35.4449
" />
<path d="M16.0070 36.3496
L15.9117 36.3020
" />
<path d="M15.9117 36.3020
L15.8641 36.2544
" />
<path d="M15.8641 36.2544
L15.8165 36.1591
" />
<path d="M15.8165 36.1591
L15.8165 35.8734
" />
<path d="M15.8165 35.8734
L15.8641 35.7782
" />
<path d="M15.8641 35.7782
L15.9117 35.7306
" />
<path d="M15.9117 35.7306
L16.0070 35.6830
" />
<path d="M16.0070 35.6830
L16.1498 35.6830
" />
<path d="M16.1498 35.6830
L16.2450 35.7306
" />
<path d="M16.2450 35.7306
L16.2927 35.7782
" />
<path d="M16.2927 35.7782
L16.3403 35.8734
" />
<path d="M16.3403 35.8734
L16.3403 36.1591
" />
<path d="M16.3403 36.1591
L16.2927 36.2544
" />
<path d="M16.2927 36.2544
L16.2450 36.3020
" />
<path d="M16.2450 36.3020
L16.1498 36.3496
" />
<path d="M16.1498 36.3496
L16.0070 36.3496
" />
<path d="M17.0070 36.6830
L17.0070 35.2544
" />
<path d="M17.9593 36.6830
L17.9593 35.2544
" />
</g><text x="4.5000" y="44.0000"
textLength="2.4071" font-size="1.3333" lengthAdjust="spacingAndGlyphs"
text-anchor="start" opacity="0" stroke-opacity="0">a4</text>
<g class="stroked-text"><desc>a4</desc>
<path d="M5.3311 43.9496
L5.3311 43.4258
" />
<path d="M5.3311 43.4258
L5.2835 43.3306
" />
<path d="M5.2835 43.3306
L5.1883 43.2830
" />
<path d="M5.1883 43.2830
L4.9978 43.2830
" />
<path d="M4.9978 43.2830
L4.9026 43.3306
" />
<path d="M5.3311 43.9020
L5.2359 43.9496
" />
<path d="M5.2359 43.9496
L4.9978 43.9496
" />
<path d="M4.9978 43.9496
L4.9026 43.9020
" />
<path d="M4.9026 43.9020
L4.8549 43.8068
" />
<path d="M4.8549 43.8068
L4.8549 43.7115
" />
<path d="M4.8549 43.7115
L4.9026 43.6163
" />
<path d="M4.9026 43.6163
L4.9978 43.5687
" />
<path d="M4.9978 43.5687
L5.2359 43.5687
" />
<path d="M5.2359 43.5687
L5.3311 43.5210
" />
<path d="M6.2359 43.2830
L6.2359 43.9496
" />
<path d="M5.9978 42.9020
L5.7597 43.6163
" />
<path d="M5.7597 43.6163
L6.3788 43.6163
" />
</g><text x="18.6000" y="44.1000"
textLength="4.3119" font-size="1.3333" lengthAdjust="spacingAndGlyphs"
text-anchor="end" opacity="0" stroke-opacity="0">SCLK</text>
<g class="stroked-text"><desc>SCLK</desc>
<path d="M14.8641 44.0020
L15.0070 44.0496
" />
<path d="M15.0070 44.0496
L15.2450 44.0496
" />
<path d="M15.2450 44.0496
L15.3403 44.0020
" />
<path d="M15.3403 44.0020
L15.3879 43.9544
" />
<path d="M15.3879 43.9544
L15.4355 43.8591
" />
<path d="M15.4355 43.8591
L15.4355 43.7639
" />
<path d="M15.4355 43.7639
L15.3879 43.6687
" />
<path d="M15.3879 43.6687
L15.3403 43.6210
" />
<path d="M15.3403 43.6210
L15.2450 43.5734
" />
<path d="M15.2450 43.5734
L15.0546 43.5258
" />
<path d="M15.0546 43.5258
L14.9593 43.4782
" />
<path d="M14.9593 43.4782
L14.9117 43.4306
" />
<path d="M14.9117 43.4306
L14.8641 43.3353
" />
<path d="M14.8641 43.3353
L14.8641 43.2401
" />
<path d="M14.8641 43.2401
L14.9117 43.1449
" />
<path d="M14.9117 43.1449
L14.9593 43.0972
" />
<path d="M14.9593 43.0972
L15.0546 43.0496
" />
<path d="M15.0546 43.0496
L15.2927 43.0496
" />
<path d="M15.2927 43.0496
L15.4355 43.0972
" />
<path d="M16.4355 43.9544
L16.3879 44.0020
" />
<path d="M16.3879 44.0020
L16.2450 44.0496
" />
<path d="M16.2450 44.0496
L16.1498 44.0496
" />
<path d="M16.1498 44.0496
L16.0070 44.0020
" />
<path d="M16.0070 44.0020
L15.9117 43.9068
" />
<path d="M15.9117 43.9068
L15.8641 43.8115
" />
<path d="M15.8641 43.8115
L15.8165 43.6210
" />
<path d="M15.8165 43.6210
L15.8165 43.4782
" />
<path d="M15.8165 43.4782
L15.8641 43.2877
" />
<path d="M15.8641 43.2877
L15.9117 43.1925
" />
<path d="M15.9117 43.1925
L16.0070 43.0972
" />
<path d="M16.0070 43.0972
L16.1498 43.0496
" />
<path d="M16.1498 43.0496
L16.2450 43.0496
" />
<path d="M16.2450 43.0496
L16.3879 43.0972
" />
<path d="M16.3879 43.0972
L16.4355 43.1449
" />
<path d="M17.3403 44.0496
L16.8641 44.0496
" />
<path d="M16.8641 44.0496
L16.8641 43.0496
" />
<path d="M17.6736 44.0496
L17.6736 43.0496
" />
<path d="M18.2450 44.0496
L17.8165 43.4782
" />
<path d="M18.2450 43.0496
L17.6736 43.6210
" />
</g></g>
<g style="fill:none; 
stroke:#000000; stroke-width:0.1524; stroke-opacity:1; 
stroke-linecap:round; stroke-linejoin:round;">
<g transform="rotate(-90.000000 17.0000 4.7500)">
<text x="17.0000" y="4.7500"
textLength="2.7330" font-size="1.0837" lengthAdjust="spacingAndGlyphs"
text-anchor="start" opacity="0" stroke-opacity="0">USB</text>
</g>
<g class="stroked-text"><desc>USB</desc>
<path d="M16.0798 4.4562
L16.7378 4.4562
" />
<path d="M16.7378 4.4562
L16.8152 4.4175
" />
<path d="M16.8152 4.4175
L16.8539 4.3788
" />
<path d="M16.8539 4.3788
L16.8926 4.3014
" />
<path d="M16.8926 4.3014
L16.8926 4.1466
" />
<path d="M16.8926 4.1466
L16.8539 4.0692
" />
<path d="M16.8539 4.0692
L16.8152 4.0305
" />
<path d="M16.8152 4.0305
L16.7378 3.9918
" />
<path d="M16.7378 3.9918
L16.0798 3.9918
" />
<path d="M16.8539 3.6434
L16.8926 3.5273
" />
<path d="M16.8926 3.5273
L16.8926 3.3338
" />
<path d="M16.8926 3.3338
L16.8539 3.2564
" />
<path d="M16.8539 3.2564
L16.8152 3.2177
" />
<path d="M16.8152 3.2177
L16.7378 3.1790
" />
<path d="M16.7378 3.1790
L16.6604 3.1790
" />
<path d="M16.6604 3.1790
L16.5830 3.2177
" />
<path d="M16.5830 3.2177
L16.5443 3.2564
" />
<path d="M16.5443 3.2564
L16.5056 3.3338
" />
<path d="M16.5056 3.3338
L16.4669 3.4886
" />
<path d="M16.4669 3.4886
L16.4281 3.5660
" />
<path d="M16.4281 3.5660
L16.3894 3.6047
" />
<path d="M16.3894 3.6047
L16.3120 3.6434
" />
<path d="M16.3120 3.6434
L16.2346 3.6434
" />
<path d="M16.2346 3.6434
L16.1572 3.6047
" />
<path d="M16.1572 3.6047
L16.1185 3.5660
" />
<path d="M16.1185 3.5660
L16.0798 3.4886
" />
<path d="M16.0798 3.4886
L16.0798 3.2951
" />
<path d="M16.0798 3.2951
L16.1185 3.1790
" />
<path d="M16.4669 2.5597
L16.5056 2.4436
" />
<path d="M16.5056 2.4436
L16.5443 2.4049
" />
<path d="M16.5443 2.4049
L16.6217 2.3662
" />
<path d="M16.6217 2.3662
L16.7378 2.3662
" />
<path d="M16.7378 2.3662
L16.8152 2.4049
" />
<path d="M16.8152 2.4049
L16.8539 2.4436
" />
<path d="M16.8539 2.4436
L16.8926 2.5210
" />
<path d="M16.8926 2.5210
L16.8926 2.8306
" />
<path d="M16.8926 2.8306
L16.0798 2.8306
" />
<path d="M16.0798 2.8306
L16.0798 2.5597
" />
<path d="M16.0798 2.5597
L16.1185 2.4823
" />
<path d="M16.1185 2.4823
L16.1572 2.4436
" />
<path d="M16.1572 2.4436
L16.2346 2.4049
" />
<path d="M16.2346 2.4049
L16.3120 2.4049
" />
<path d="M16.3120 2.4049
L16.3894 2.4436
" />
<path d="M16.3894 2.4436
L16.4281 2.4823
" />
<path d="M16.4281 2.4823
L16.4669 2.5597
" />
<path d="M16.4669 2.5597
L16.4669 2.8306
" />
</g></g>
<g style="fill:none; 
stroke:#000000; stroke-width:0.1200; stroke-opacity:1; 
stroke-linecap:round; stroke-linejoin:round;">
<path d="M9.0000 44.8450
L10.0000 44.8450
" />
<path d="M9.0000 52.9450
L9.0000 48.4450
" />
<path d="M9.0000 52.9450
L14.0000 52.9450
" />
<path d="M9.0000 45.9450
L9.0000 44.8450
" />
<path d="M14.0000 45.9450
L14.0000 44.8450
" />
<path d="M14.0000 44.8450
L13.0000 44.8450
" />
<path d="M14.0000 52.9450
L14.0000 48.4450
" />
<path d="M19.0600 1.5400
L20.3900 1.5400
" />
<path d="M19.0600 2.8700
L19.0600 1.5400
" />
<path d="M19.0600 4.1400
L19.0600 52.4600
" />
<path d="M19.0600 4.1400
L21.7200 4.1400
" />
<path d="M19.0600 52.4600
L21.7200 52.4600
" />
<path d="M21.7200 4.1400
L21.7200 52.4600
" />
<path d="M1.2800 1.5400
L2.6100 1.5400
" />
<path d="M1.2800 2.8700
L1.2800 1.5400
" />
<path d="M1.2800 4.1400
L1.2800 52.4600
" />
<path d="M1.2800 4.1400
L3.9400 4.1400
" />
<path d="M1.2800 52.4600
L3.9400 52.4600
" />
<path d="M3.9400 4.1400
L3.9400 52.4600
" />
<path d="M9.5000 55.9450
L13.5000 55.9450
" />
<path d="M13.5000 55.9450
L13.5000 52.9450
" />
</g>
<g style="fill:none; 
stroke:#000000; stroke-width:0.1000; stroke-opacity:1; 
stroke-linecap:round; stroke-linejoin:round;">
<path d="M9.5950 2.6350
L10.2300 2.0000
" />
<path d="M9.5950 4.5400
L9.5950 2.6350
" />
<path d="M10.2300 2.0000
L13.4050 2.0000
" />
<path d="M13.4050 2.0000
L13.4050 4.5400
" />
<path d="M13.4050 4.5400
L9.5950 4.5400
" />
<path d="M9.5950 0.9500
L11.6100 0.9500
" />
<path d="M9.5950 3.0500
L9.5950 0.9500
" />
<path d="M11.6100 0.9500
L12.1350 1.4750
" />
<path d="M12.1350 1.4750
L12.1350 3.0500
" />
<path d="M12.1350 3.0500
L9.5950 3.0500
" />
<path d="M19.1200 2.2350
L19.7550 1.6000
" />
<path d="M19.1200 52.4000
L19.1200 2.2350
" />
<path d="M19.7550 1.6000
L21.6600 1.6000
" />
<path d="M21.6600 1.6000
L21.6600 52.4000
" />
<path d="M21.6600 52.4000
L19.1200 52.4000
" />
<path d="M1.3400 2.2350
L1.9750 1.6000
" />
<path d="M1.3400 52.4000
L1.3400 2.2350
" />
<path d="M1.9750 1.6000
L3.8800 1.6000
" />
<path d="M3.8800 1.6000
L3.8800 52.4000
" />
<path d="M3.8800 52.4000
L1.3400 52.4000
" />
</g>
<g style="fill:none; 
stroke:#000000; stroke-width:0.0381; stroke-opacity:1; 
stroke-linecap:round; stroke-linejoin:round;">
<path d="M21.5000 0.5000
L1.5000 0.5000
" />
<circle cx="6.5000" cy="6.5000" r="0.8000" /> 
<circle cx="6.5000" cy="46.5000" r="0.8000" /> 
<path d="M1.5000 0.5000 A1.0000 1.0000 0.0 0 0 0.5000 1.5000" />
<path d="M22.5000 52.0000
L22.5000 1.5000
" />
<path d="M21.5000 53.0000 A1.0000 1.0000 0.0 0 0 22.5000 52.0000" />
<path d="M0.5000 52.0000 A1.0000 1.0000 0.0 0 0 1.5000 53.0000" />
<path d="M22.5000 1.5000 A1.0000 1.0000 0.0 0 0 21.5000 0.5000" />
<path d="M1.5000 53.0000
L21.5000 53.0000
" />
<path d="M0.5000 1.5000
L0.5000 52.0000
" />
<circle cx="16.5000" cy="6.5000" r="0.8000" /> 
<circle cx="16.5000" cy="46.5000" r="0.8000" /> 
</g>
<g style="fill:none; 
stroke:#000000; stroke-width:0.1000; stroke-opacity:1; 
stroke-linecap:round; stroke-linejoin:round;">
<circle cx="11.5000" cy="49.4450" r="0.8500" /> 
</g>
<g style="fill:#FFFFFF; fill-opacity:1.0000; stroke:none;">
<circle cx="7.6000" cy="49.4000" r="0.1500" /> 
</g>
<g style="fill:#FFFFFF; fill-opacity:1.0000; stroke:none;">
<circle cx="14.3000" cy="28.8000" r="0.1500" /> 
</g>
<g style="fill:#FFFFFF; fill-opacity:1.0000; stroke:none;">
<circle cx="14.0000" cy="35.8000" r="0.1500" /> 
</g>
<g style="fill:#FFFFFF; fill-opacity:1.0000; stroke:none;">
<circle cx="8.5000" cy="28.1000" r="0.1500" /> 
</g>
<g style="fill:#FFFFFF; fill-opacity:1.0000; stroke:none;">
<circle cx="18.6000" cy="39.2000" r="0.1500" /> 
</g>
<g style="fill:#FFFFFF; fill-opacity:1.0000; stroke:none;">
<circle cx="14.7000" cy="35.3000" r="0.1500" /> 
</g>
<g style="fill:#FFFFFF; fill-opacity:1.0000; stroke:none;">
<circle cx="11.6000" cy="37.2600" r="0.1500" /> 
</g>
<g style="fill:#FFFFFF; fill-opacity:1.0000; stroke:none;">
<circle cx="6.7250" cy="25.4500" r="0.1500" /> 
</g>
<g style="fill:#FFFFFF; fill-opacity:1.0000; stroke:none;">
<circle cx="6.7250" cy="23.0000" r="0.1500" /> 
</g>
<g style="fill:none; 
stroke:#FFFFFF; stroke-width:0.8000; stroke-opacity:1; 
stroke-linecap:round; stroke-linejoin:round;">
<path d="M9.7500 47.5950
L9.7500 46.6950
" />
<path d="M11.9500 44.8450
L11.0500 44.8450
" />
<path d="M13.2500 47.5950
L13.2500 46.6950
" />
<path d="M11.9500 51.3450
L11.0500 51.3450
" />
</g>
<g style="fill:#FFFFFF; fill-opacity:1.0000; stroke:none;">
<circle cx="10.2300" cy="3.2700" r="0.3500" /> 
</g>
<g style="fill:#FFFFFF; fill-opacity:1.0000; stroke:none;">
<circle cx="11.5000" cy="3.2700" r="0.3500" /> 
</g>
<g style="fill:#FFFFFF; fill-opacity:1.0000; stroke:none;">
<circle cx="12.7700" cy="3.2700" r="0.3500" /> 
</g>
<g style="fill:#FFFFFF; fill-opacity:1.0000; stroke:none;">
<circle cx="11.5000" cy="2.0000" r="0.3250" /> 
</g>
<g style="fill:#FFFFFF; fill-opacity:1.0000; stroke:none;">
<circle cx="10.2300" cy="2.0000" r="0.3250" /> 
</g>
<g style="fill:#FFFFFF; fill-opacity:1.0000; stroke:none;">
<circle cx="20.3900" cy="2.8700" r="0.5000" /> 
</g>
<g style="fill:#FFFFFF; fill-opacity:1.0000; stroke:none;">
<circle cx="20.3900" cy="5.4100" r="0.5000" /> 
</g>
<g style="fill:#FFFFFF; fill-opacity:1.0000; stroke:none;">
<circle cx="20.3900" cy="7.9500" r="0.5000" /> 
</g>
<g style="fill:#FFFFFF; fill-opacity:1.0000; stroke:none;">
<circle cx="20.3900" cy="10.4900" r="0.5000" /> 
</g>
<g style="fill:#FFFFFF; fill-opacity:1.0000; stroke:none;">
<circle cx="20.3900" cy="13.0300" r="0.5000" /> 
</g>
<g style="fill:#FFFFFF; fill-opacity:1.0000; stroke:none;">
<circle cx="20.3900" cy="15.5700" r="0.5000" /> 
</g>
<g style="fill:#FFFFFF; fill-opacity:1.0000; stroke:none;">
<circle cx="20.3900" cy="18.1100" r="0.5000" /> 
</g>
<g style="fill:#FFFFFF; fill-opacity:1.0000; stroke:none;">
<circle cx="20.3900" cy="20.6500" r="0.5000" /> 
</g>
<g style="fill:#FFFFFF; fill-opacity:1.0000; stroke:none;">
<circle cx="20.3900" cy="23.1900" r="0.5000" /> 
</g>
<g style="fill:#FFFFFF; fill-opacity:1.0000; stroke:none;">
<circle cx="20.3900" cy="25.7300" r="0.5000" /> 
</g>
<g style="fill:#FFFFFF; fill-opacity:1.0000; stroke:none;">
<circle cx="20.3900" cy="28.2700" r="0.5000" /> 
</g>
<g style="fill:#FFFFFF; fill-opacity:1.0000; stroke:none;">
<circle cx="20.3900" cy="30.8100" r="0.5000" /> 
</g>
<g style="fill:#FFFFFF; fill-opacity:1.0000; stroke:none;">
<circle cx="20.3900" cy="33.3500" r="0.5000" /> 
</g>
<g style="fill:#FFFFFF; fill-opacity:1.0000; stroke:none;">
<circle cx="20.3900" cy="35.8900" r="0.5000" /> 
</g>
<g style="fill:#FFFFFF; fill-opacity:1.0000; stroke:none;">
<circle cx="20.3900" cy="38.4300" r="0.5000" /> 
</g>
<g style="fill:#FFFFFF; fill-opacity:1.0000; stroke:none;">
<circle cx="20.3900" cy="40.9700" r="0.5000" /> 
</g>
<g style="fill:#FFFFFF; fill-opacity:1.0000; stroke:none;">
<circle cx="20.3900" cy="43.5100" r="0.5000" /> 
</g>
<g style="fill:#FFFFFF; fill-opacity:1.0000; stroke:none;">
<circle cx="20.3900" cy="46.0500" r="0.5000" /> 
</g>
<g style="fill:#FFFFFF; fill-opacity:1.0000; stroke:none;">
<circle cx="20.3900" cy="48.5900" r="0.5000" /> 
</g>
<g style="fill:#FFFFFF; fill-opacity:1.0000; stroke:none;">
<circle cx="20.3900" cy="51.1300" r="0.5000" /> 
</g>
<g style="fill:#FFFFFF; fill-opacity:1.0000; stroke:none;">
<circle cx="2.6100" cy="2.8700" r="0.5000" /> 
</g>
<g style="fill:#FFFFFF; fill-opacity:1.0000; stroke:none;">
<circle cx="2.6100" cy="5.4100" r="0.5000" /> 
</g>
<g style="fill:#FFFFFF; fill-opacity:1.0000; stroke:none;">
<circle cx="2.6100" cy="7.9500" r="0.5000" /> 
</g>
<g style="fill:#FFFFFF; fill-opacity:1.0000; stroke:none;">
<circle cx="2.6100" cy="10.4900" r="0.5000" /> 
</g>
<g style="fill:#FFFFFF; fill-opacity:1.0000; stroke:none;">
<circle cx="2.6100" cy="13.0300" r="0.5000" /> 
</g>
<g style="fill:#FFFFFF; fill-opacity:1.0000; stroke:none;">
<circle cx="2.6100" cy="15.5700" r="0.5000" /> 
</g>
<g style="fill:#FFFFFF; fill-opacity:1.0000; stroke:none;">
<circle cx="2.6100" cy="18.1100" r="0.5000" /> 
</g>
<g style="fill:#FFFFFF; fill-opacity:1.0000; stroke:none;">
<circle cx="2.6100" cy="20.6500" r="0.5000" /> 
</g>
<g style="fill:#FFFFFF; fill-opacity:1.0000; stroke:none;">
<circle cx="2.6100" cy="23.1900" r="0.5000" /> 
</g>
<g style="fill:#FFFFFF; fill-opacity:1.0000; stroke:none;">
<circle cx="2.6100" cy="25.7300" r="0.5000" /> 
</g>
<g style="fill:#FFFFFF; fill-opacity:1.0000; stroke:none;">
<circle cx="2.6100" cy="28.2700" r="0.5000" /> 
</g>
<g style="fill:#FFFFFF; fill-opacity:1.0000; stroke:none;">
<circle cx="2.6100" cy="30.8100" r="0.5000" /> 
</g>
<g style="fill:#FFFFFF; fill-opacity:1.0000; stroke:none;">
<circle cx="2.6100" cy="33.3500" r="0.5000" /> 
</g>
<g style="fill:#FFFFFF; fill-opacity:1.0000; stroke:none;">
<circle cx="2.6100" cy="35.8900" r="0.5000" /> 
</g>
<g style="fill:#FFFFFF; fill-opacity:1.0000; stroke:none;">
<circle cx="2.6100" cy="38.4300" r="0.5000" /> 
</g>
<g style="fill:#FFFFFF; fill-opacity:1.0000; stroke:none;">
<circle cx="2.6100" cy="40.9700" r="0.5000" /> 
</g>
<g style="fill:#FFFFFF; fill-opacity:1.0000; stroke:none;">
<circle cx="2.6100" cy="43.5100" r="0.5000" /> 
</g>
<g style="fill:#FFFFFF; fill-opacity:1.0000; stroke:none;">
<circle cx="2.6100" cy="46.0500" r="0.5000" /> 
</g>
<g style="fill:#FFFFFF; fill-opacity:1.0000; stroke:none;">
<circle cx="2.6100" cy="48.5900" r="0.5000" /> 
</g>
<g style="fill:#FFFFFF; fill-opacity:1.0000; stroke:none;">
<circle cx="2.6100" cy="51.1300" r="0.5000" /> 
</g> 
</svg>
