<?xml version="1.0" standalone="no"?>
 <!DOCTYPE svg PUBLIC "-//W3C//DTD SVG 1.1//EN" 
 "http://www.w3.org/Graphics/SVG/1.1/DTD/svg11.dtd"> 
<svg
  xmlns:svg="http://www.w3.org/2000/svg"
  xmlns="http://www.w3.org/2000/svg"
  xmlns:xlink="http://www.w3.org/1999/xlink"
  version="1.1"
  width="297.0022mm" height="210.0072mm" viewBox="0.0000 0.0000 297.0022 210.0072">
<title>SVG Image created as DRY_ELEC_6CH_MID-filtering_3.svg date 2024/10/12 17:53:43 </title>
  <desc>Image generated by Eeschema-SVG </desc>
<g style="fill:#000000; fill-opacity:1.0000;stroke:#000000; stroke-opacity:1.0000;
stroke-linecap:round; stroke-linejoin:round;"
 transform="translate(0 0) scale(1 1)">
</g>
<g style="fill:#F5F4EF; fill-opacity:1.0000; 
stroke:#F5F4EF; stroke-width:0.0001; stroke-opacity:1; 
stroke-linecap:round; stroke-linejoin:round;">
<rect x="0.000000" y="0.000000" width="297.002200" height="210.007200" rx="0.000000" />
</g>
<g style="fill:none; 
stroke:#840000; stroke-width:0.1524; stroke-opacity:1; 
stroke-linecap:round; stroke-linejoin:round;">
<path d="M147.0132 159.0050
L285.0132 159.0050
L285.0132 198.0050
L147.0132 198.0050
L147.0132 159.0050
" />
<path d="M10.0000 10.0000
L287.0022 10.0000
L287.0022 200.0072
L10.0000 200.0072
L10.0000 10.0000
" />
<path d="M12.0000 12.0000
L285.0022 12.0000
L285.0022 198.0072
L12.0000 198.0072
L12.0000 12.0000
" />
<path d="M60.0000 12.0000
L60.0000 10.0000
" />
<path d="M110.0000 12.0000
L110.0000 10.0000
" />
<path d="M160.0000 12.0000
L160.0000 10.0000
" />
<path d="M210.0000 12.0000
L210.0000 10.0000
" />
<path d="M260.0000 12.0000
L260.0000 10.0000
" />
<text x="35.0000" y="11.6500"
textLength="1.4353" font-size="1.7333" lengthAdjust="spacingAndGlyphs"
text-anchor="start" opacity="0" stroke-opacity="0">1</text>
<g class="stroked-text"><desc>1</desc>
<path d="M36.0906 11.5935
L35.3478 11.5935
" />
<path d="M35.7192 11.5935
L35.7192 10.2935
" />
<path d="M35.7192 10.2935
L35.5954 10.4792
" />
<path d="M35.5954 10.4792
L35.4716 10.6030
" />
<path d="M35.4716 10.6030
L35.3478 10.6649
" />
</g><text x="85.0000" y="11.6500"
textLength="1.4353" font-size="1.7333" lengthAdjust="spacingAndGlyphs"
text-anchor="start" opacity="0" stroke-opacity="0">2</text>
<g class="stroked-text"><desc>2</desc>
<path d="M85.3478 10.4173
L85.4097 10.3554
" />
<path d="M85.4097 10.3554
L85.5335 10.2935
" />
<path d="M85.5335 10.2935
L85.8430 10.2935
" />
<path d="M85.8430 10.2935
L85.9668 10.3554
" />
<path d="M85.9668 10.3554
L86.0287 10.4173
" />
<path d="M86.0287 10.4173
L86.0906 10.5411
" />
<path d="M86.0906 10.5411
L86.0906 10.6649
" />
<path d="M86.0906 10.6649
L86.0287 10.8506
" />
<path d="M86.0287 10.8506
L85.2859 11.5935
" />
<path d="M85.2859 11.5935
L86.0906 11.5935
" />
</g><text x="135.0000" y="11.6500"
textLength="1.4353" font-size="1.7333" lengthAdjust="spacingAndGlyphs"
text-anchor="start" opacity="0" stroke-opacity="0">3</text>
<g class="stroked-text"><desc>3</desc>
<path d="M135.2859 10.2935
L136.0906 10.2935
" />
<path d="M136.0906 10.2935
L135.6573 10.7887
" />
<path d="M135.6573 10.7887
L135.8430 10.7887
" />
<path d="M135.8430 10.7887
L135.9668 10.8506
" />
<path d="M135.9668 10.8506
L136.0287 10.9125
" />
<path d="M136.0287 10.9125
L136.0906 11.0363
" />
<path d="M136.0906 11.0363
L136.0906 11.3458
" />
<path d="M136.0906 11.3458
L136.0287 11.4696
" />
<path d="M136.0287 11.4696
L135.9668 11.5316
" />
<path d="M135.9668 11.5316
L135.8430 11.5935
" />
<path d="M135.8430 11.5935
L135.4716 11.5935
" />
<path d="M135.4716 11.5935
L135.3478 11.5316
" />
<path d="M135.3478 11.5316
L135.2859 11.4696
" />
</g><text x="185.0000" y="11.6500"
textLength="1.4353" font-size="1.7333" lengthAdjust="spacingAndGlyphs"
text-anchor="start" opacity="0" stroke-opacity="0">4</text>
<g class="stroked-text"><desc>4</desc>
<path d="M185.9668 10.7268
L185.9668 11.5935
" />
<path d="M185.6573 10.2316
L185.3478 11.1601
" />
<path d="M185.3478 11.1601
L186.1525 11.1601
" />
</g><text x="235.0000" y="11.6500"
textLength="1.4353" font-size="1.7333" lengthAdjust="spacingAndGlyphs"
text-anchor="start" opacity="0" stroke-opacity="0">5</text>
<g class="stroked-text"><desc>5</desc>
<path d="M236.0287 10.2935
L235.4097 10.2935
" />
<path d="M235.4097 10.2935
L235.3478 10.9125
" />
<path d="M235.3478 10.9125
L235.4097 10.8506
" />
<path d="M235.4097 10.8506
L235.5335 10.7887
" />
<path d="M235.5335 10.7887
L235.8430 10.7887
" />
<path d="M235.8430 10.7887
L235.9668 10.8506
" />
<path d="M235.9668 10.8506
L236.0287 10.9125
" />
<path d="M236.0287 10.9125
L236.0906 11.0363
" />
<path d="M236.0906 11.0363
L236.0906 11.3458
" />
<path d="M236.0906 11.3458
L236.0287 11.4696
" />
<path d="M236.0287 11.4696
L235.9668 11.5316
" />
<path d="M235.9668 11.5316
L235.8430 11.5935
" />
<path d="M235.8430 11.5935
L235.5335 11.5935
" />
<path d="M235.5335 11.5935
L235.4097 11.5316
" />
<path d="M235.4097 11.5316
L235.3478 11.4696
" />
</g><text x="285.0000" y="11.6500"
textLength="1.4353" font-size="1.7333" lengthAdjust="spacingAndGlyphs"
text-anchor="start" opacity="0" stroke-opacity="0">6</text>
<g class="stroked-text"><desc>6</desc>
<path d="M285.9668 10.2935
L285.7192 10.2935
" />
<path d="M285.7192 10.2935
L285.5954 10.3554
" />
<path d="M285.5954 10.3554
L285.5335 10.4173
" />
<path d="M285.5335 10.4173
L285.4097 10.6030
" />
<path d="M285.4097 10.6030
L285.3478 10.8506
" />
<path d="M285.3478 10.8506
L285.3478 11.3458
" />
<path d="M285.3478 11.3458
L285.4097 11.4696
" />
<path d="M285.4097 11.4696
L285.4716 11.5316
" />
<path d="M285.4716 11.5316
L285.5954 11.5935
" />
<path d="M285.5954 11.5935
L285.8430 11.5935
" />
<path d="M285.8430 11.5935
L285.9668 11.5316
" />
<path d="M285.9668 11.5316
L286.0287 11.4696
" />
<path d="M286.0287 11.4696
L286.0906 11.3458
" />
<path d="M286.0906 11.3458
L286.0906 11.0363
" />
<path d="M286.0906 11.0363
L286.0287 10.9125
" />
<path d="M286.0287 10.9125
L285.9668 10.8506
" />
<path d="M285.9668 10.8506
L285.8430 10.7887
" />
<path d="M285.8430 10.7887
L285.5954 10.7887
" />
<path d="M285.5954 10.7887
L285.4716 10.8506
" />
<path d="M285.4716 10.8506
L285.4097 10.9125
" />
<path d="M285.4097 10.9125
L285.3478 11.0363
" />
</g><path d="M60.0000 198.0072
L60.0000 200.0072
" />
<path d="M110.0000 198.0072
L110.0000 200.0072
" />
<path d="M160.0000 198.0072
L160.0000 200.0072
" />
<path d="M210.0000 198.0072
L210.0000 200.0072
" />
<path d="M260.0000 198.0072
L260.0000 200.0072
" />
<text x="35.0000" y="199.6572"
textLength="1.4353" font-size="1.7333" lengthAdjust="spacingAndGlyphs"
text-anchor="start" opacity="0" stroke-opacity="0">1</text>
<g class="stroked-text"><desc>1</desc>
<path d="M36.0906 199.6007
L35.3478 199.6007
" />
<path d="M35.7192 199.6007
L35.7192 198.3007
" />
<path d="M35.7192 198.3007
L35.5954 198.4864
" />
<path d="M35.5954 198.4864
L35.4716 198.6102
" />
<path d="M35.4716 198.6102
L35.3478 198.6721
" />
</g><text x="85.0000" y="199.6572"
textLength="1.4353" font-size="1.7333" lengthAdjust="spacingAndGlyphs"
text-anchor="start" opacity="0" stroke-opacity="0">2</text>
<g class="stroked-text"><desc>2</desc>
<path d="M85.3478 198.4245
L85.4097 198.3626
" />
<path d="M85.4097 198.3626
L85.5335 198.3007
" />
<path d="M85.5335 198.3007
L85.8430 198.3007
" />
<path d="M85.8430 198.3007
L85.9668 198.3626
" />
<path d="M85.9668 198.3626
L86.0287 198.4245
" />
<path d="M86.0287 198.4245
L86.0906 198.5483
" />
<path d="M86.0906 198.5483
L86.0906 198.6721
" />
<path d="M86.0906 198.6721
L86.0287 198.8578
" />
<path d="M86.0287 198.8578
L85.2859 199.6007
" />
<path d="M85.2859 199.6007
L86.0906 199.6007
" />
</g><text x="135.0000" y="199.6572"
textLength="1.4353" font-size="1.7333" lengthAdjust="spacingAndGlyphs"
text-anchor="start" opacity="0" stroke-opacity="0">3</text>
<g class="stroked-text"><desc>3</desc>
<path d="M135.2859 198.3007
L136.0906 198.3007
" />
<path d="M136.0906 198.3007
L135.6573 198.7959
" />
<path d="M135.6573 198.7959
L135.8430 198.7959
" />
<path d="M135.8430 198.7959
L135.9668 198.8578
" />
<path d="M135.9668 198.8578
L136.0287 198.9197
" />
<path d="M136.0287 198.9197
L136.0906 199.0435
" />
<path d="M136.0906 199.0435
L136.0906 199.3530
" />
<path d="M136.0906 199.3530
L136.0287 199.4768
" />
<path d="M136.0287 199.4768
L135.9668 199.5388
" />
<path d="M135.9668 199.5388
L135.8430 199.6007
" />
<path d="M135.8430 199.6007
L135.4716 199.6007
" />
<path d="M135.4716 199.6007
L135.3478 199.5388
" />
<path d="M135.3478 199.5388
L135.2859 199.4768
" />
</g><text x="185.0000" y="199.6572"
textLength="1.4353" font-size="1.7333" lengthAdjust="spacingAndGlyphs"
text-anchor="start" opacity="0" stroke-opacity="0">4</text>
<g class="stroked-text"><desc>4</desc>
<path d="M185.9668 198.7340
L185.9668 199.6007
" />
<path d="M185.6573 198.2388
L185.3478 199.1673
" />
<path d="M185.3478 199.1673
L186.1525 199.1673
" />
</g><text x="235.0000" y="199.6572"
textLength="1.4353" font-size="1.7333" lengthAdjust="spacingAndGlyphs"
text-anchor="start" opacity="0" stroke-opacity="0">5</text>
<g class="stroked-text"><desc>5</desc>
<path d="M236.0287 198.3007
L235.4097 198.3007
" />
<path d="M235.4097 198.3007
L235.3478 198.9197
" />
<path d="M235.3478 198.9197
L235.4097 198.8578
" />
<path d="M235.4097 198.8578
L235.5335 198.7959
" />
<path d="M235.5335 198.7959
L235.8430 198.7959
" />
<path d="M235.8430 198.7959
L235.9668 198.8578
" />
<path d="M235.9668 198.8578
L236.0287 198.9197
" />
<path d="M236.0287 198.9197
L236.0906 199.0435
" />
<path d="M236.0906 199.0435
L236.0906 199.3530
" />
<path d="M236.0906 199.3530
L236.0287 199.4768
" />
<path d="M236.0287 199.4768
L235.9668 199.5388
" />
<path d="M235.9668 199.5388
L235.8430 199.6007
" />
<path d="M235.8430 199.6007
L235.5335 199.6007
" />
<path d="M235.5335 199.6007
L235.4097 199.5388
" />
<path d="M235.4097 199.5388
L235.3478 199.4768
" />
</g><text x="285.0000" y="199.6572"
textLength="1.4353" font-size="1.7333" lengthAdjust="spacingAndGlyphs"
text-anchor="start" opacity="0" stroke-opacity="0">6</text>
<g class="stroked-text"><desc>6</desc>
<path d="M285.9668 198.3007
L285.7192 198.3007
" />
<path d="M285.7192 198.3007
L285.5954 198.3626
" />
<path d="M285.5954 198.3626
L285.5335 198.4245
" />
<path d="M285.5335 198.4245
L285.4097 198.6102
" />
<path d="M285.4097 198.6102
L285.3478 198.8578
" />
<path d="M285.3478 198.8578
L285.3478 199.3530
" />
<path d="M285.3478 199.3530
L285.4097 199.4768
" />
<path d="M285.4097 199.4768
L285.4716 199.5388
" />
<path d="M285.4716 199.5388
L285.5954 199.6007
" />
<path d="M285.5954 199.6007
L285.8430 199.6007
" />
<path d="M285.8430 199.6007
L285.9668 199.5388
" />
<path d="M285.9668 199.5388
L286.0287 199.4768
" />
<path d="M286.0287 199.4768
L286.0906 199.3530
" />
<path d="M286.0906 199.3530
L286.0906 199.0435
" />
<path d="M286.0906 199.0435
L286.0287 198.9197
" />
<path d="M286.0287 198.9197
L285.9668 198.8578
" />
<path d="M285.9668 198.8578
L285.8430 198.7959
" />
<path d="M285.8430 198.7959
L285.5954 198.7959
" />
<path d="M285.5954 198.7959
L285.4716 198.8578
" />
<path d="M285.4716 198.8578
L285.4097 198.9197
" />
<path d="M285.4097 198.9197
L285.3478 199.0435
" />
</g><path d="M10.0000 60.0000
L12.0000 60.0000
" />
<path d="M10.0000 110.0000
L12.0000 110.0000
" />
<path d="M10.0000 160.0000
L12.0000 160.0000
" />
<text x="11.0000" y="35.6500"
textLength="1.3115" font-size="1.7333" lengthAdjust="spacingAndGlyphs"
text-anchor="middle" opacity="0" stroke-opacity="0">A</text>
<g class="stroked-text"><desc>A</desc>
<path d="M10.6905 35.2220
L11.3095 35.2220
" />
<path d="M10.5667 35.5935
L11.0000 34.2935
" />
<path d="M11.0000 34.2935
L11.4333 35.5935
" />
</g><text x="11.0000" y="85.6500"
textLength="1.4972" font-size="1.7333" lengthAdjust="spacingAndGlyphs"
text-anchor="middle" opacity="0" stroke-opacity="0">B</text>
<g class="stroked-text"><desc>B</desc>
<path d="M11.0928 84.9125
L11.2785 84.9744
" />
<path d="M11.2785 84.9744
L11.3404 85.0363
" />
<path d="M11.3404 85.0363
L11.4023 85.1601
" />
<path d="M11.4023 85.1601
L11.4023 85.3458
" />
<path d="M11.4023 85.3458
L11.3404 85.4696
" />
<path d="M11.3404 85.4696
L11.2785 85.5316
" />
<path d="M11.2785 85.5316
L11.1547 85.5935
" />
<path d="M11.1547 85.5935
L10.6595 85.5935
" />
<path d="M10.6595 85.5935
L10.6595 84.2935
" />
<path d="M10.6595 84.2935
L11.0928 84.2935
" />
<path d="M11.0928 84.2935
L11.2166 84.3554
" />
<path d="M11.2166 84.3554
L11.2785 84.4173
" />
<path d="M11.2785 84.4173
L11.3404 84.5411
" />
<path d="M11.3404 84.5411
L11.3404 84.6649
" />
<path d="M11.3404 84.6649
L11.2785 84.7887
" />
<path d="M11.2785 84.7887
L11.2166 84.8506
" />
<path d="M11.2166 84.8506
L11.0928 84.9125
" />
<path d="M11.0928 84.9125
L10.6595 84.9125
" />
</g><text x="11.0000" y="135.6500"
textLength="1.4972" font-size="1.7333" lengthAdjust="spacingAndGlyphs"
text-anchor="middle" opacity="0" stroke-opacity="0">C</text>
<g class="stroked-text"><desc>C</desc>
<path d="M11.4023 135.4696
L11.3404 135.5316
" />
<path d="M11.3404 135.5316
L11.1547 135.5935
" />
<path d="M11.1547 135.5935
L11.0309 135.5935
" />
<path d="M11.0309 135.5935
L10.8452 135.5316
" />
<path d="M10.8452 135.5316
L10.7214 135.4077
" />
<path d="M10.7214 135.4077
L10.6595 135.2839
" />
<path d="M10.6595 135.2839
L10.5976 135.0363
" />
<path d="M10.5976 135.0363
L10.5976 134.8506
" />
<path d="M10.5976 134.8506
L10.6595 134.6030
" />
<path d="M10.6595 134.6030
L10.7214 134.4792
" />
<path d="M10.7214 134.4792
L10.8452 134.3554
" />
<path d="M10.8452 134.3554
L11.0309 134.2935
" />
<path d="M11.0309 134.2935
L11.1547 134.2935
" />
<path d="M11.1547 134.2935
L11.3404 134.3554
" />
<path d="M11.3404 134.3554
L11.4023 134.4173
" />
</g><text x="11.0000" y="185.6500"
textLength="1.4972" font-size="1.7333" lengthAdjust="spacingAndGlyphs"
text-anchor="middle" opacity="0" stroke-opacity="0">D</text>
<g class="stroked-text"><desc>D</desc>
<path d="M10.6595 185.5935
L10.6595 184.2935
" />
<path d="M10.6595 184.2935
L10.9690 184.2935
" />
<path d="M10.9690 184.2935
L11.1547 184.3554
" />
<path d="M11.1547 184.3554
L11.2785 184.4792
" />
<path d="M11.2785 184.4792
L11.3404 184.6030
" />
<path d="M11.3404 184.6030
L11.4023 184.8506
" />
<path d="M11.4023 184.8506
L11.4023 185.0363
" />
<path d="M11.4023 185.0363
L11.3404 185.2839
" />
<path d="M11.3404 185.2839
L11.2785 185.4077
" />
<path d="M11.2785 185.4077
L11.1547 185.5316
" />
<path d="M11.1547 185.5316
L10.9690 185.5935
" />
<path d="M10.9690 185.5935
L10.6595 185.5935
" />
</g><path d="M287.0022 60.0000
L285.0022 60.0000
" />
<path d="M287.0022 110.0000
L285.0022 110.0000
" />
<path d="M287.0022 160.0000
L285.0022 160.0000
" />
<text x="286.0022" y="35.6500"
textLength="1.3115" font-size="1.7333" lengthAdjust="spacingAndGlyphs"
text-anchor="middle" opacity="0" stroke-opacity="0">A</text>
<g class="stroked-text"><desc>A</desc>
<path d="M285.6927 35.2220
L286.3117 35.2220
" />
<path d="M285.5689 35.5935
L286.0022 34.2935
" />
<path d="M286.0022 34.2935
L286.4355 35.5935
" />
</g><text x="286.0022" y="85.6500"
textLength="1.4972" font-size="1.7333" lengthAdjust="spacingAndGlyphs"
text-anchor="middle" opacity="0" stroke-opacity="0">B</text>
<g class="stroked-text"><desc>B</desc>
<path d="M286.0950 84.9125
L286.2807 84.9744
" />
<path d="M286.2807 84.9744
L286.3426 85.0363
" />
<path d="M286.3426 85.0363
L286.4045 85.1601
" />
<path d="M286.4045 85.1601
L286.4045 85.3458
" />
<path d="M286.4045 85.3458
L286.3426 85.4696
" />
<path d="M286.3426 85.4696
L286.2807 85.5316
" />
<path d="M286.2807 85.5316
L286.1569 85.5935
" />
<path d="M286.1569 85.5935
L285.6617 85.5935
" />
<path d="M285.6617 85.5935
L285.6617 84.2935
" />
<path d="M285.6617 84.2935
L286.0950 84.2935
" />
<path d="M286.0950 84.2935
L286.2188 84.3554
" />
<path d="M286.2188 84.3554
L286.2807 84.4173
" />
<path d="M286.2807 84.4173
L286.3426 84.5411
" />
<path d="M286.3426 84.5411
L286.3426 84.6649
" />
<path d="M286.3426 84.6649
L286.2807 84.7887
" />
<path d="M286.2807 84.7887
L286.2188 84.8506
" />
<path d="M286.2188 84.8506
L286.0950 84.9125
" />
<path d="M286.0950 84.9125
L285.6617 84.9125
" />
</g><text x="286.0022" y="135.6500"
textLength="1.4972" font-size="1.7333" lengthAdjust="spacingAndGlyphs"
text-anchor="middle" opacity="0" stroke-opacity="0">C</text>
<g class="stroked-text"><desc>C</desc>
<path d="M286.4045 135.4696
L286.3426 135.5316
" />
<path d="M286.3426 135.5316
L286.1569 135.5935
" />
<path d="M286.1569 135.5935
L286.0331 135.5935
" />
<path d="M286.0331 135.5935
L285.8474 135.5316
" />
<path d="M285.8474 135.5316
L285.7236 135.4077
" />
<path d="M285.7236 135.4077
L285.6617 135.2839
" />
<path d="M285.6617 135.2839
L285.5998 135.0363
" />
<path d="M285.5998 135.0363
L285.5998 134.8506
" />
<path d="M285.5998 134.8506
L285.6617 134.6030
" />
<path d="M285.6617 134.6030
L285.7236 134.4792
" />
<path d="M285.7236 134.4792
L285.8474 134.3554
" />
<path d="M285.8474 134.3554
L286.0331 134.2935
" />
<path d="M286.0331 134.2935
L286.1569 134.2935
" />
<path d="M286.1569 134.2935
L286.3426 134.3554
" />
<path d="M286.3426 134.3554
L286.4045 134.4173
" />
</g><text x="286.0022" y="185.6500"
textLength="1.4972" font-size="1.7333" lengthAdjust="spacingAndGlyphs"
text-anchor="middle" opacity="0" stroke-opacity="0">D</text>
<g class="stroked-text"><desc>D</desc>
<path d="M285.6617 185.5935
L285.6617 184.2935
" />
<path d="M285.6617 184.2935
L285.9712 184.2935
" />
<path d="M285.9712 184.2935
L286.1569 184.3554
" />
<path d="M286.1569 184.3554
L286.2807 184.4792
" />
<path d="M286.2807 184.4792
L286.3426 184.6030
" />
<path d="M286.3426 184.6030
L286.4045 184.8506
" />
<path d="M286.4045 184.8506
L286.4045 185.0363
" />
<path d="M286.4045 185.0363
L286.3426 185.2839
" />
<path d="M286.3426 185.2839
L286.2807 185.4077
" />
<path d="M286.2807 185.4077
L286.1569 185.5316
" />
<path d="M286.1569 185.5316
L285.9712 185.5935
" />
<path d="M285.9712 185.5935
L285.6617 185.5935
" />
</g><text x="147.5022" y="196.1070"
textLength="9.2001" font-size="2.6666" lengthAdjust="spacingAndGlyphs"
text-anchor="start" opacity="0" stroke-opacity="0">Date: </text>
<g class="stroked-text"><desc>Date: </desc>
<path d="M148.0785 196.0242
L148.0785 194.0242
" />
<path d="M148.0785 194.0242
L148.5547 194.0242
" />
<path d="M148.5547 194.0242
L148.8404 194.1194
" />
<path d="M148.8404 194.1194
L149.0309 194.3099
" />
<path d="M149.0309 194.3099
L149.1262 194.5004
" />
<path d="M149.1262 194.5004
L149.2214 194.8813
" />
<path d="M149.2214 194.8813
L149.2214 195.1670
" />
<path d="M149.2214 195.1670
L149.1262 195.5480
" />
<path d="M149.1262 195.5480
L149.0309 195.7385
" />
<path d="M149.0309 195.7385
L148.8404 195.9290
" />
<path d="M148.8404 195.9290
L148.5547 196.0242
" />
<path d="M148.5547 196.0242
L148.0785 196.0242
" />
<path d="M150.9357 196.0242
L150.9357 194.9766
" />
<path d="M150.9357 194.9766
L150.8404 194.7861
" />
<path d="M150.8404 194.7861
L150.6500 194.6909
" />
<path d="M150.6500 194.6909
L150.2690 194.6909
" />
<path d="M150.2690 194.6909
L150.0785 194.7861
" />
<path d="M150.9357 195.9290
L150.7452 196.0242
" />
<path d="M150.7452 196.0242
L150.2690 196.0242
" />
<path d="M150.2690 196.0242
L150.0785 195.9290
" />
<path d="M150.0785 195.9290
L149.9833 195.7385
" />
<path d="M149.9833 195.7385
L149.9833 195.5480
" />
<path d="M149.9833 195.5480
L150.0785 195.3575
" />
<path d="M150.0785 195.3575
L150.2690 195.2623
" />
<path d="M150.2690 195.2623
L150.7452 195.2623
" />
<path d="M150.7452 195.2623
L150.9357 195.1670
" />
<path d="M151.6023 194.6909
L152.3642 194.6909
" />
<path d="M151.8880 194.0242
L151.8880 195.7385
" />
<path d="M151.8880 195.7385
L151.9833 195.9290
" />
<path d="M151.9833 195.9290
L152.1738 196.0242
" />
<path d="M152.1738 196.0242
L152.3642 196.0242
" />
<path d="M153.7928 195.9290
L153.6024 196.0242
" />
<path d="M153.6024 196.0242
L153.2214 196.0242
" />
<path d="M153.2214 196.0242
L153.0309 195.9290
" />
<path d="M153.0309 195.9290
L152.9357 195.7385
" />
<path d="M152.9357 195.7385
L152.9357 194.9766
" />
<path d="M152.9357 194.9766
L153.0309 194.7861
" />
<path d="M153.0309 194.7861
L153.2214 194.6909
" />
<path d="M153.2214 194.6909
L153.6024 194.6909
" />
<path d="M153.6024 194.6909
L153.7928 194.7861
" />
<path d="M153.7928 194.7861
L153.8881 194.9766
" />
<path d="M153.8881 194.9766
L153.8881 195.1670
" />
<path d="M153.8881 195.1670
L152.9357 195.3575
" />
<path d="M154.7452 195.8337
L154.8405 195.9290
" />
<path d="M154.8405 195.9290
L154.7452 196.0242
" />
<path d="M154.7452 196.0242
L154.6500 195.9290
" />
<path d="M154.6500 195.9290
L154.7452 195.8337
" />
<path d="M154.7452 195.8337
L154.7452 196.0242
" />
<path d="M154.7452 194.7861
L154.8405 194.8813
" />
<path d="M154.8405 194.8813
L154.7452 194.9766
" />
<path d="M154.7452 194.9766
L154.6500 194.8813
" />
<path d="M154.6500 194.8813
L154.7452 194.7861
" />
<path d="M154.7452 194.7861
L154.7452 194.9766
" />
</g><path d="M147.0132 191.5050
L285.0132 191.5050
" />
<path d="M147.0132 185.5050
L285.0132 185.5050
" />
</g>
<g style="fill:none; 
stroke:#840000; stroke-width:0.4000; stroke-opacity:1; 
stroke-linecap:round; stroke-linejoin:round;">
<text x="203.5022" y="189.6072"
textLength="6.9905" font-size="2.6666" lengthAdjust="spacingAndGlyphs"
text-anchor="start" opacity="0" stroke-opacity="0">Rev:</text>
<g class="stroked-text"><desc>Rev:</desc>
<path d="M205.3843 189.5116
L204.7176 188.5592
" />
<path d="M204.2414 189.5116
L204.2414 187.5116
" />
<path d="M204.2414 187.5116
L205.0033 187.5116
" />
<path d="M205.0033 187.5116
L205.1938 187.6068
" />
<path d="M205.1938 187.6068
L205.2891 187.7021
" />
<path d="M205.2891 187.7021
L205.3843 187.8925
" />
<path d="M205.3843 187.8925
L205.3843 188.1783
" />
<path d="M205.3843 188.1783
L205.2891 188.3687
" />
<path d="M205.2891 188.3687
L205.1938 188.4640
" />
<path d="M205.1938 188.4640
L205.0033 188.5592
" />
<path d="M205.0033 188.5592
L204.2414 188.5592
" />
<path d="M207.0033 189.4164
L206.8129 189.5116
" />
<path d="M206.8129 189.5116
L206.4319 189.5116
" />
<path d="M206.4319 189.5116
L206.2414 189.4164
" />
<path d="M206.2414 189.4164
L206.1462 189.2259
" />
<path d="M206.1462 189.2259
L206.1462 188.4640
" />
<path d="M206.1462 188.4640
L206.2414 188.2735
" />
<path d="M206.2414 188.2735
L206.4319 188.1783
" />
<path d="M206.4319 188.1783
L206.8129 188.1783
" />
<path d="M206.8129 188.1783
L207.0033 188.2735
" />
<path d="M207.0033 188.2735
L207.0986 188.4640
" />
<path d="M207.0986 188.4640
L207.0986 188.6544
" />
<path d="M207.0986 188.6544
L206.1462 188.8449
" />
<path d="M207.7653 188.1783
L208.2415 189.5116
" />
<path d="M208.2415 189.5116
L208.7176 188.1783
" />
<path d="M209.4795 189.3211
L209.5748 189.4164
" />
<path d="M209.5748 189.4164
L209.4795 189.5116
" />
<path d="M209.4795 189.5116
L209.3843 189.4164
" />
<path d="M209.3843 189.4164
L209.4795 189.3211
" />
<path d="M209.4795 189.3211
L209.4795 189.5116
" />
<path d="M209.4795 188.2735
L209.5748 188.3687
" />
<path d="M209.5748 188.3687
L209.4795 188.4640
" />
<path d="M209.4795 188.4640
L209.3843 188.3687
" />
<path d="M209.3843 188.3687
L209.4795 188.2735
" />
<path d="M209.4795 188.2735
L209.4795 188.4640
" />
</g></g>
<g style="fill:none; 
stroke:#840000; stroke-width:0.1524; stroke-opacity:1; 
stroke-linecap:round; stroke-linejoin:round;">
<text x="147.5022" y="189.6070"
textLength="12.0572" font-size="2.6666" lengthAdjust="spacingAndGlyphs"
text-anchor="start" opacity="0" stroke-opacity="0">Author: </text>
<g class="stroked-text"><desc>Author: </desc>
<path d="M147.9833 188.9528
L148.9357 188.9528
" />
<path d="M147.7928 189.5242
L148.4595 187.5242
" />
<path d="M148.4595 187.5242
L149.1262 189.5242
" />
<path d="M150.6500 188.1909
L150.6500 189.5242
" />
<path d="M149.7928 188.1909
L149.7928 189.2385
" />
<path d="M149.7928 189.2385
L149.8881 189.4290
" />
<path d="M149.8881 189.4290
L150.0786 189.5242
" />
<path d="M150.0786 189.5242
L150.3643 189.5242
" />
<path d="M150.3643 189.5242
L150.5547 189.4290
" />
<path d="M150.5547 189.4290
L150.6500 189.3337
" />
<path d="M151.3166 188.1909
L152.0785 188.1909
" />
<path d="M151.6023 187.5242
L151.6023 189.2385
" />
<path d="M151.6023 189.2385
L151.6976 189.4290
" />
<path d="M151.6976 189.4290
L151.8881 189.5242
" />
<path d="M151.8881 189.5242
L152.0785 189.5242
" />
<path d="M152.7452 189.5242
L152.7452 187.5242
" />
<path d="M153.6024 189.5242
L153.6024 188.4766
" />
<path d="M153.6024 188.4766
L153.5071 188.2861
" />
<path d="M153.5071 188.2861
L153.3167 188.1909
" />
<path d="M153.3167 188.1909
L153.0310 188.1909
" />
<path d="M153.0310 188.1909
L152.8405 188.2861
" />
<path d="M152.8405 188.2861
L152.7452 188.3813
" />
<path d="M154.8405 189.5242
L154.6500 189.4290
" />
<path d="M154.6500 189.4290
L154.5547 189.3337
" />
<path d="M154.5547 189.3337
L154.4595 189.1432
" />
<path d="M154.4595 189.1432
L154.4595 188.5718
" />
<path d="M154.4595 188.5718
L154.5547 188.3813
" />
<path d="M154.5547 188.3813
L154.6500 188.2861
" />
<path d="M154.6500 188.2861
L154.8405 188.1909
" />
<path d="M154.8405 188.1909
L155.1262 188.1909
" />
<path d="M155.1262 188.1909
L155.3166 188.2861
" />
<path d="M155.3166 188.2861
L155.4119 188.3813
" />
<path d="M155.4119 188.3813
L155.5071 188.5718
" />
<path d="M155.5071 188.5718
L155.5071 189.1432
" />
<path d="M155.5071 189.1432
L155.4119 189.3337
" />
<path d="M155.4119 189.3337
L155.3166 189.4290
" />
<path d="M155.3166 189.4290
L155.1262 189.5242
" />
<path d="M155.1262 189.5242
L154.8405 189.5242
" />
<path d="M156.3642 189.5242
L156.3642 188.1909
" />
<path d="M156.3642 188.5718
L156.4595 188.3813
" />
<path d="M156.4595 188.3813
L156.5547 188.2861
" />
<path d="M156.5547 188.2861
L156.7452 188.1909
" />
<path d="M156.7452 188.1909
L156.9357 188.1909
" />
<path d="M157.6023 189.3337
L157.6976 189.4290
" />
<path d="M157.6976 189.4290
L157.6023 189.5242
" />
<path d="M157.6023 189.5242
L157.5071 189.4290
" />
<path d="M157.5071 189.4290
L157.6023 189.3337
" />
<path d="M157.6023 189.3337
L157.6023 189.5242
" />
<path d="M157.6023 188.2861
L157.6976 188.3813
" />
<path d="M157.6976 188.3813
L157.6023 188.4766
" />
<path d="M157.6023 188.4766
L157.5071 188.3813
" />
<path d="M157.5071 188.3813
L157.6023 188.2861
" />
<path d="M157.6023 188.2861
L157.6023 188.4766
" />
</g><text x="203.5022" y="195.9070"
textLength="11.2001" font-size="2.6666" lengthAdjust="spacingAndGlyphs"
text-anchor="start" opacity="0" stroke-opacity="0">Id: 4/7</text>
<g class="stroked-text"><desc>Id: 4/7</desc>
<path d="M204.0785 195.8242
L204.0785 193.8242
" />
<path d="M205.8881 195.8242
L205.8881 193.8242
" />
<path d="M205.8881 195.7290
L205.6976 195.8242
" />
<path d="M205.6976 195.8242
L205.3167 195.8242
" />
<path d="M205.3167 195.8242
L205.1262 195.7290
" />
<path d="M205.1262 195.7290
L205.0309 195.6337
" />
<path d="M205.0309 195.6337
L204.9357 195.4432
" />
<path d="M204.9357 195.4432
L204.9357 194.8718
" />
<path d="M204.9357 194.8718
L205.0309 194.6813
" />
<path d="M205.0309 194.6813
L205.1262 194.5861
" />
<path d="M205.1262 194.5861
L205.3167 194.4909
" />
<path d="M205.3167 194.4909
L205.6976 194.4909
" />
<path d="M205.6976 194.4909
L205.8881 194.5861
" />
<path d="M206.8404 195.6337
L206.9357 195.7290
" />
<path d="M206.9357 195.7290
L206.8404 195.8242
" />
<path d="M206.8404 195.8242
L206.7452 195.7290
" />
<path d="M206.7452 195.7290
L206.8404 195.6337
" />
<path d="M206.8404 195.6337
L206.8404 195.8242
" />
<path d="M206.8404 194.5861
L206.9357 194.6813
" />
<path d="M206.9357 194.6813
L206.8404 194.7766
" />
<path d="M206.8404 194.7766
L206.7452 194.6813
" />
<path d="M206.7452 194.6813
L206.8404 194.5861
" />
<path d="M206.8404 194.5861
L206.8404 194.7766
" />
<path d="M210.1738 194.4909
L210.1738 195.8242
" />
<path d="M209.6976 193.7290
L209.2214 195.1575
" />
<path d="M209.2214 195.1575
L210.4595 195.1575
" />
<path d="M212.6500 193.7290
L210.9357 196.3004
" />
<path d="M213.1262 193.8242
L214.4595 193.8242
" />
<path d="M214.4595 193.8242
L213.6024 195.8242
" />
</g><path d="M147.0132 176.0050
L285.0132 176.0050
" />
</g>
<g style="fill:none; 
stroke:#840000; stroke-width:0.6000; stroke-opacity:1; 
stroke-linecap:round; stroke-linejoin:round;">
<text x="147.5022" y="182.3072"
textLength="14.4857" font-size="4.0000" lengthAdjust="spacingAndGlyphs"
text-anchor="start" opacity="0" stroke-opacity="0">Title: </text>
<g class="stroked-text"><desc>Title: </desc>
<path d="M148.5397 179.1638
L150.2540 179.1638
" />
<path d="M149.0219 182.1638
L149.3969 179.1638
" />
<path d="M150.8790 182.1638
L151.1290 180.1638
" />
<path d="M151.2540 179.1638
L151.0933 179.3067
" />
<path d="M151.0933 179.3067
L151.2183 179.4495
" />
<path d="M151.2183 179.4495
L151.3790 179.3067
" />
<path d="M151.3790 179.3067
L151.2540 179.1638
" />
<path d="M151.2540 179.1638
L151.2183 179.4495
" />
<path d="M152.1290 180.1638
L153.2719 180.1638
" />
<path d="M152.6826 179.1638
L152.3612 181.7352
" />
<path d="M152.3612 181.7352
L152.4683 182.0210
" />
<path d="M152.4683 182.0210
L152.7362 182.1638
" />
<path d="M152.7362 182.1638
L153.0219 182.1638
" />
<path d="M154.4505 182.1638
L154.1826 182.0210
" />
<path d="M154.1826 182.0210
L154.0755 181.7352
" />
<path d="M154.0755 181.7352
L154.3969 179.1638
" />
<path d="M156.7540 182.0210
L156.4504 182.1638
" />
<path d="M156.4504 182.1638
L155.8790 182.1638
" />
<path d="M155.8790 182.1638
L155.6111 182.0210
" />
<path d="M155.6111 182.0210
L155.5040 181.7352
" />
<path d="M155.5040 181.7352
L155.6469 180.5924
" />
<path d="M155.6469 180.5924
L155.8254 180.3067
" />
<path d="M155.8254 180.3067
L156.1290 180.1638
" />
<path d="M156.1290 180.1638
L156.7004 180.1638
" />
<path d="M156.7004 180.1638
L156.9683 180.3067
" />
<path d="M156.9683 180.3067
L157.0754 180.5924
" />
<path d="M157.0754 180.5924
L157.0397 180.8781
" />
<path d="M157.0397 180.8781
L155.5754 181.1638
" />
<path d="M158.2004 181.8781
L158.3254 182.0210
" />
<path d="M158.3254 182.0210
L158.1647 182.1638
" />
<path d="M158.1647 182.1638
L158.0397 182.0210
" />
<path d="M158.0397 182.0210
L158.2004 181.8781
" />
<path d="M158.2004 181.8781
L158.1647 182.1638
" />
<path d="M158.3968 180.3067
L158.5218 180.4495
" />
<path d="M158.5218 180.4495
L158.3611 180.5924
" />
<path d="M158.3611 180.5924
L158.2361 180.4495
" />
<path d="M158.2361 180.4495
L158.3968 180.3067
" />
<path d="M158.3968 180.3067
L158.3611 180.5924
" />
</g></g>
<g style="fill:none; 
stroke:#840000; stroke-width:0.1524; stroke-opacity:1; 
stroke-linecap:round; stroke-linejoin:round;">
<text x="147.5022" y="166.4570"
textLength="26.5856" font-size="2.0000" lengthAdjust="spacingAndGlyphs"
text-anchor="start" opacity="0" stroke-opacity="0">File: filtering.kicad_sch</text>
<g class="stroked-text"><desc>File: filtering.kicad_sch</desc>
<path d="M148.4595 165.6072
L147.9595 165.6072
" />
<path d="M147.9595 166.3929
L147.9595 164.8929
" />
<path d="M147.9595 164.8929
L148.6738 164.8929
" />
<path d="M149.2452 166.3929
L149.2452 165.3929
" />
<path d="M149.2452 164.8929
L149.1738 164.9643
" />
<path d="M149.1738 164.9643
L149.2452 165.0357
" />
<path d="M149.2452 165.0357
L149.3166 164.9643
" />
<path d="M149.3166 164.9643
L149.2452 164.8929
" />
<path d="M149.2452 164.8929
L149.2452 165.0357
" />
<path d="M150.1738 166.3929
L150.0309 166.3215
" />
<path d="M150.0309 166.3215
L149.9595 166.1786
" />
<path d="M149.9595 166.1786
L149.9595 164.8929
" />
<path d="M151.3166 166.3215
L151.1738 166.3929
" />
<path d="M151.1738 166.3929
L150.8881 166.3929
" />
<path d="M150.8881 166.3929
L150.7452 166.3215
" />
<path d="M150.7452 166.3215
L150.6738 166.1786
" />
<path d="M150.6738 166.1786
L150.6738 165.6072
" />
<path d="M150.6738 165.6072
L150.7452 165.4643
" />
<path d="M150.7452 165.4643
L150.8881 165.3929
" />
<path d="M150.8881 165.3929
L151.1738 165.3929
" />
<path d="M151.1738 165.3929
L151.3166 165.4643
" />
<path d="M151.3166 165.4643
L151.3881 165.6072
" />
<path d="M151.3881 165.6072
L151.3881 165.7500
" />
<path d="M151.3881 165.7500
L150.6738 165.8929
" />
<path d="M152.0309 166.2500
L152.1023 166.3215
" />
<path d="M152.1023 166.3215
L152.0309 166.3929
" />
<path d="M152.0309 166.3929
L151.9595 166.3215
" />
<path d="M151.9595 166.3215
L152.0309 166.2500
" />
<path d="M152.0309 166.2500
L152.0309 166.3929
" />
<path d="M152.0309 165.4643
L152.1023 165.5357
" />
<path d="M152.1023 165.5357
L152.0309 165.6072
" />
<path d="M152.0309 165.6072
L151.9595 165.5357
" />
<path d="M151.9595 165.5357
L152.0309 165.4643
" />
<path d="M152.0309 165.4643
L152.0309 165.6072
" />
<path d="M153.6738 165.3929
L154.2452 165.3929
" />
<path d="M153.8881 166.3929
L153.8881 165.1072
" />
<path d="M153.8881 165.1072
L153.9595 164.9643
" />
<path d="M153.9595 164.9643
L154.1024 164.8929
" />
<path d="M154.1024 164.8929
L154.2452 164.8929
" />
<path d="M154.7452 166.3929
L154.7452 165.3929
" />
<path d="M154.7452 164.8929
L154.6738 164.9643
" />
<path d="M154.6738 164.9643
L154.7452 165.0357
" />
<path d="M154.7452 165.0357
L154.8166 164.9643
" />
<path d="M154.8166 164.9643
L154.7452 164.8929
" />
<path d="M154.7452 164.8929
L154.7452 165.0357
" />
<path d="M155.6738 166.3929
L155.5309 166.3215
" />
<path d="M155.5309 166.3215
L155.4595 166.1786
" />
<path d="M155.4595 166.1786
L155.4595 164.8929
" />
<path d="M156.0309 165.3929
L156.6023 165.3929
" />
<path d="M156.2452 164.8929
L156.2452 166.1786
" />
<path d="M156.2452 166.1786
L156.3166 166.3215
" />
<path d="M156.3166 166.3215
L156.4595 166.3929
" />
<path d="M156.4595 166.3929
L156.6023 166.3929
" />
<path d="M157.6737 166.3215
L157.5309 166.3929
" />
<path d="M157.5309 166.3929
L157.2452 166.3929
" />
<path d="M157.2452 166.3929
L157.1023 166.3215
" />
<path d="M157.1023 166.3215
L157.0309 166.1786
" />
<path d="M157.0309 166.1786
L157.0309 165.6072
" />
<path d="M157.0309 165.6072
L157.1023 165.4643
" />
<path d="M157.1023 165.4643
L157.2452 165.3929
" />
<path d="M157.2452 165.3929
L157.5309 165.3929
" />
<path d="M157.5309 165.3929
L157.6737 165.4643
" />
<path d="M157.6737 165.4643
L157.7452 165.6072
" />
<path d="M157.7452 165.6072
L157.7452 165.7500
" />
<path d="M157.7452 165.7500
L157.0309 165.8929
" />
<path d="M158.3880 166.3929
L158.3880 165.3929
" />
<path d="M158.3880 165.6786
L158.4594 165.5357
" />
<path d="M158.4594 165.5357
L158.5309 165.4643
" />
<path d="M158.5309 165.4643
L158.6737 165.3929
" />
<path d="M158.6737 165.3929
L158.8166 165.3929
" />
<path d="M159.3166 166.3929
L159.3166 165.3929
" />
<path d="M159.3166 164.8929
L159.2452 164.9643
" />
<path d="M159.2452 164.9643
L159.3166 165.0357
" />
<path d="M159.3166 165.0357
L159.3880 164.9643
" />
<path d="M159.3880 164.9643
L159.3166 164.8929
" />
<path d="M159.3166 164.8929
L159.3166 165.0357
" />
<path d="M160.0309 165.3929
L160.0309 166.3929
" />
<path d="M160.0309 165.5357
L160.1023 165.4643
" />
<path d="M160.1023 165.4643
L160.2452 165.3929
" />
<path d="M160.2452 165.3929
L160.4595 165.3929
" />
<path d="M160.4595 165.3929
L160.6023 165.4643
" />
<path d="M160.6023 165.4643
L160.6738 165.6072
" />
<path d="M160.6738 165.6072
L160.6738 166.3929
" />
<path d="M162.0309 165.3929
L162.0309 166.6072
" />
<path d="M162.0309 166.6072
L161.9594 166.7500
" />
<path d="M161.9594 166.7500
L161.8880 166.8215
" />
<path d="M161.8880 166.8215
L161.7451 166.8929
" />
<path d="M161.7451 166.8929
L161.5309 166.8929
" />
<path d="M161.5309 166.8929
L161.3880 166.8215
" />
<path d="M162.0309 166.3215
L161.8880 166.3929
" />
<path d="M161.8880 166.3929
L161.6023 166.3929
" />
<path d="M161.6023 166.3929
L161.4594 166.3215
" />
<path d="M161.4594 166.3215
L161.3880 166.2500
" />
<path d="M161.3880 166.2500
L161.3166 166.1072
" />
<path d="M161.3166 166.1072
L161.3166 165.6786
" />
<path d="M161.3166 165.6786
L161.3880 165.5357
" />
<path d="M161.3880 165.5357
L161.4594 165.4643
" />
<path d="M161.4594 165.4643
L161.6023 165.3929
" />
<path d="M161.6023 165.3929
L161.8880 165.3929
" />
<path d="M161.8880 165.3929
L162.0309 165.4643
" />
<path d="M162.7451 166.2500
L162.8165 166.3215
" />
<path d="M162.8165 166.3215
L162.7451 166.3929
" />
<path d="M162.7451 166.3929
L162.6737 166.3215
" />
<path d="M162.6737 166.3215
L162.7451 166.2500
" />
<path d="M162.7451 166.2500
L162.7451 166.3929
" />
<path d="M163.4594 166.3929
L163.4594 164.8929
" />
<path d="M163.6023 165.8215
L164.0308 166.3929
" />
<path d="M164.0308 165.3929
L163.4594 165.9643
" />
<path d="M164.6737 166.3929
L164.6737 165.3929
" />
<path d="M164.6737 164.8929
L164.6023 164.9643
" />
<path d="M164.6023 164.9643
L164.6737 165.0357
" />
<path d="M164.6737 165.0357
L164.7451 164.9643
" />
<path d="M164.7451 164.9643
L164.6737 164.8929
" />
<path d="M164.6737 164.8929
L164.6737 165.0357
" />
<path d="M166.0309 166.3215
L165.8880 166.3929
" />
<path d="M165.8880 166.3929
L165.6023 166.3929
" />
<path d="M165.6023 166.3929
L165.4594 166.3215
" />
<path d="M165.4594 166.3215
L165.3880 166.2500
" />
<path d="M165.3880 166.2500
L165.3166 166.1072
" />
<path d="M165.3166 166.1072
L165.3166 165.6786
" />
<path d="M165.3166 165.6786
L165.3880 165.5357
" />
<path d="M165.3880 165.5357
L165.4594 165.4643
" />
<path d="M165.4594 165.4643
L165.6023 165.3929
" />
<path d="M165.6023 165.3929
L165.8880 165.3929
" />
<path d="M165.8880 165.3929
L166.0309 165.4643
" />
<path d="M167.3166 166.3929
L167.3166 165.6072
" />
<path d="M167.3166 165.6072
L167.2451 165.4643
" />
<path d="M167.2451 165.4643
L167.1023 165.3929
" />
<path d="M167.1023 165.3929
L166.8166 165.3929
" />
<path d="M166.8166 165.3929
L166.6737 165.4643
" />
<path d="M167.3166 166.3215
L167.1737 166.3929
" />
<path d="M167.1737 166.3929
L166.8166 166.3929
" />
<path d="M166.8166 166.3929
L166.6737 166.3215
" />
<path d="M166.6737 166.3215
L166.6023 166.1786
" />
<path d="M166.6023 166.1786
L166.6023 166.0357
" />
<path d="M166.6023 166.0357
L166.6737 165.8929
" />
<path d="M166.6737 165.8929
L166.8166 165.8215
" />
<path d="M166.8166 165.8215
L167.1737 165.8215
" />
<path d="M167.1737 165.8215
L167.3166 165.7500
" />
<path d="M168.6737 166.3929
L168.6737 164.8929
" />
<path d="M168.6737 166.3215
L168.5308 166.3929
" />
<path d="M168.5308 166.3929
L168.2451 166.3929
" />
<path d="M168.2451 166.3929
L168.1022 166.3215
" />
<path d="M168.1022 166.3215
L168.0308 166.2500
" />
<path d="M168.0308 166.2500
L167.9594 166.1072
" />
<path d="M167.9594 166.1072
L167.9594 165.6786
" />
<path d="M167.9594 165.6786
L168.0308 165.5357
" />
<path d="M168.0308 165.5357
L168.1022 165.4643
" />
<path d="M168.1022 165.4643
L168.2451 165.3929
" />
<path d="M168.2451 165.3929
L168.5308 165.3929
" />
<path d="M168.5308 165.3929
L168.6737 165.4643
" />
<path d="M169.0308 166.5357
L170.1736 166.5357
" />
<path d="M170.4594 166.3215
L170.6022 166.3929
" />
<path d="M170.6022 166.3929
L170.8879 166.3929
" />
<path d="M170.8879 166.3929
L171.0308 166.3215
" />
<path d="M171.0308 166.3215
L171.1022 166.1786
" />
<path d="M171.1022 166.1786
L171.1022 166.1072
" />
<path d="M171.1022 166.1072
L171.0308 165.9643
" />
<path d="M171.0308 165.9643
L170.8879 165.8929
" />
<path d="M170.8879 165.8929
L170.6737 165.8929
" />
<path d="M170.6737 165.8929
L170.5308 165.8215
" />
<path d="M170.5308 165.8215
L170.4594 165.6786
" />
<path d="M170.4594 165.6786
L170.4594 165.6072
" />
<path d="M170.4594 165.6072
L170.5308 165.4643
" />
<path d="M170.5308 165.4643
L170.6737 165.3929
" />
<path d="M170.6737 165.3929
L170.8879 165.3929
" />
<path d="M170.8879 165.3929
L171.0308 165.4643
" />
<path d="M172.3880 166.3215
L172.2451 166.3929
" />
<path d="M172.2451 166.3929
L171.9594 166.3929
" />
<path d="M171.9594 166.3929
L171.8165 166.3215
" />
<path d="M171.8165 166.3215
L171.7451 166.2500
" />
<path d="M171.7451 166.2500
L171.6737 166.1072
" />
<path d="M171.6737 166.1072
L171.6737 165.6786
" />
<path d="M171.6737 165.6786
L171.7451 165.5357
" />
<path d="M171.7451 165.5357
L171.8165 165.4643
" />
<path d="M171.8165 165.4643
L171.9594 165.3929
" />
<path d="M171.9594 165.3929
L172.2451 165.3929
" />
<path d="M172.2451 165.3929
L172.3880 165.4643
" />
<path d="M173.0308 166.3929
L173.0308 164.8929
" />
<path d="M173.6737 166.3929
L173.6737 165.6072
" />
<path d="M173.6737 165.6072
L173.6022 165.4643
" />
<path d="M173.6022 165.4643
L173.4594 165.3929
" />
<path d="M173.4594 165.3929
L173.2451 165.3929
" />
<path d="M173.2451 165.3929
L173.1022 165.4643
" />
<path d="M173.1022 165.4643
L173.0308 165.5357
" />
</g><text x="147.5022" y="162.7570"
textLength="22.7999" font-size="2.0000" lengthAdjust="spacingAndGlyphs"
text-anchor="start" opacity="0" stroke-opacity="0">Sheet: /filtering_3/</text>
<g class="stroked-text"><desc>Sheet: /filtering_3/</desc>
<path d="M147.8881 162.6215
L148.1024 162.6929
" />
<path d="M148.1024 162.6929
L148.4595 162.6929
" />
<path d="M148.4595 162.6929
L148.6024 162.6215
" />
<path d="M148.6024 162.6215
L148.6738 162.5500
" />
<path d="M148.6738 162.5500
L148.7452 162.4072
" />
<path d="M148.7452 162.4072
L148.7452 162.2643
" />
<path d="M148.7452 162.2643
L148.6738 162.1215
" />
<path d="M148.6738 162.1215
L148.6024 162.0500
" />
<path d="M148.6024 162.0500
L148.4595 161.9786
" />
<path d="M148.4595 161.9786
L148.1738 161.9072
" />
<path d="M148.1738 161.9072
L148.0309 161.8357
" />
<path d="M148.0309 161.8357
L147.9595 161.7643
" />
<path d="M147.9595 161.7643
L147.8881 161.6215
" />
<path d="M147.8881 161.6215
L147.8881 161.4786
" />
<path d="M147.8881 161.4786
L147.9595 161.3357
" />
<path d="M147.9595 161.3357
L148.0309 161.2643
" />
<path d="M148.0309 161.2643
L148.1738 161.1929
" />
<path d="M148.1738 161.1929
L148.5309 161.1929
" />
<path d="M148.5309 161.1929
L148.7452 161.2643
" />
<path d="M149.3881 162.6929
L149.3881 161.1929
" />
<path d="M150.0310 162.6929
L150.0310 161.9072
" />
<path d="M150.0310 161.9072
L149.9595 161.7643
" />
<path d="M149.9595 161.7643
L149.8167 161.6929
" />
<path d="M149.8167 161.6929
L149.6024 161.6929
" />
<path d="M149.6024 161.6929
L149.4595 161.7643
" />
<path d="M149.4595 161.7643
L149.3881 161.8357
" />
<path d="M151.3166 162.6215
L151.1738 162.6929
" />
<path d="M151.1738 162.6929
L150.8881 162.6929
" />
<path d="M150.8881 162.6929
L150.7452 162.6215
" />
<path d="M150.7452 162.6215
L150.6738 162.4786
" />
<path d="M150.6738 162.4786
L150.6738 161.9072
" />
<path d="M150.6738 161.9072
L150.7452 161.7643
" />
<path d="M150.7452 161.7643
L150.8881 161.6929
" />
<path d="M150.8881 161.6929
L151.1738 161.6929
" />
<path d="M151.1738 161.6929
L151.3166 161.7643
" />
<path d="M151.3166 161.7643
L151.3881 161.9072
" />
<path d="M151.3881 161.9072
L151.3881 162.0500
" />
<path d="M151.3881 162.0500
L150.6738 162.1929
" />
<path d="M152.6023 162.6215
L152.4595 162.6929
" />
<path d="M152.4595 162.6929
L152.1738 162.6929
" />
<path d="M152.1738 162.6929
L152.0309 162.6215
" />
<path d="M152.0309 162.6215
L151.9595 162.4786
" />
<path d="M151.9595 162.4786
L151.9595 161.9072
" />
<path d="M151.9595 161.9072
L152.0309 161.7643
" />
<path d="M152.0309 161.7643
L152.1738 161.6929
" />
<path d="M152.1738 161.6929
L152.4595 161.6929
" />
<path d="M152.4595 161.6929
L152.6023 161.7643
" />
<path d="M152.6023 161.7643
L152.6738 161.9072
" />
<path d="M152.6738 161.9072
L152.6738 162.0500
" />
<path d="M152.6738 162.0500
L151.9595 162.1929
" />
<path d="M153.1023 161.6929
L153.6737 161.6929
" />
<path d="M153.3166 161.1929
L153.3166 162.4786
" />
<path d="M153.3166 162.4786
L153.3880 162.6215
" />
<path d="M153.3880 162.6215
L153.5309 162.6929
" />
<path d="M153.5309 162.6929
L153.6737 162.6929
" />
<path d="M154.1737 162.5500
L154.2451 162.6215
" />
<path d="M154.2451 162.6215
L154.1737 162.6929
" />
<path d="M154.1737 162.6929
L154.1023 162.6215
" />
<path d="M154.1023 162.6215
L154.1737 162.5500
" />
<path d="M154.1737 162.5500
L154.1737 162.6929
" />
<path d="M154.1737 161.7643
L154.2451 161.8357
" />
<path d="M154.2451 161.8357
L154.1737 161.9072
" />
<path d="M154.1737 161.9072
L154.1023 161.8357
" />
<path d="M154.1023 161.8357
L154.1737 161.7643
" />
<path d="M154.1737 161.7643
L154.1737 161.9072
" />
<path d="M157.1023 161.1215
L155.8166 163.0500
" />
<path d="M157.3880 161.6929
L157.9594 161.6929
" />
<path d="M157.6023 162.6929
L157.6023 161.4072
" />
<path d="M157.6023 161.4072
L157.6737 161.2643
" />
<path d="M157.6737 161.2643
L157.8166 161.1929
" />
<path d="M157.8166 161.1929
L157.9594 161.1929
" />
<path d="M158.4594 162.6929
L158.4594 161.6929
" />
<path d="M158.4594 161.1929
L158.3880 161.2643
" />
<path d="M158.3880 161.2643
L158.4594 161.3357
" />
<path d="M158.4594 161.3357
L158.5308 161.2643
" />
<path d="M158.5308 161.2643
L158.4594 161.1929
" />
<path d="M158.4594 161.1929
L158.4594 161.3357
" />
<path d="M159.3880 162.6929
L159.2451 162.6215
" />
<path d="M159.2451 162.6215
L159.1737 162.4786
" />
<path d="M159.1737 162.4786
L159.1737 161.1929
" />
<path d="M159.7451 161.6929
L160.3165 161.6929
" />
<path d="M159.9594 161.1929
L159.9594 162.4786
" />
<path d="M159.9594 162.4786
L160.0308 162.6215
" />
<path d="M160.0308 162.6215
L160.1737 162.6929
" />
<path d="M160.1737 162.6929
L160.3165 162.6929
" />
<path d="M161.3879 162.6215
L161.2451 162.6929
" />
<path d="M161.2451 162.6929
L160.9594 162.6929
" />
<path d="M160.9594 162.6929
L160.8165 162.6215
" />
<path d="M160.8165 162.6215
L160.7451 162.4786
" />
<path d="M160.7451 162.4786
L160.7451 161.9072
" />
<path d="M160.7451 161.9072
L160.8165 161.7643
" />
<path d="M160.8165 161.7643
L160.9594 161.6929
" />
<path d="M160.9594 161.6929
L161.2451 161.6929
" />
<path d="M161.2451 161.6929
L161.3879 161.7643
" />
<path d="M161.3879 161.7643
L161.4594 161.9072
" />
<path d="M161.4594 161.9072
L161.4594 162.0500
" />
<path d="M161.4594 162.0500
L160.7451 162.1929
" />
<path d="M162.1022 162.6929
L162.1022 161.6929
" />
<path d="M162.1022 161.9786
L162.1736 161.8357
" />
<path d="M162.1736 161.8357
L162.2451 161.7643
" />
<path d="M162.2451 161.7643
L162.3879 161.6929
" />
<path d="M162.3879 161.6929
L162.5308 161.6929
" />
<path d="M163.0308 162.6929
L163.0308 161.6929
" />
<path d="M163.0308 161.1929
L162.9594 161.2643
" />
<path d="M162.9594 161.2643
L163.0308 161.3357
" />
<path d="M163.0308 161.3357
L163.1022 161.2643
" />
<path d="M163.1022 161.2643
L163.0308 161.1929
" />
<path d="M163.0308 161.1929
L163.0308 161.3357
" />
<path d="M163.7451 161.6929
L163.7451 162.6929
" />
<path d="M163.7451 161.8357
L163.8165 161.7643
" />
<path d="M163.8165 161.7643
L163.9594 161.6929
" />
<path d="M163.9594 161.6929
L164.1737 161.6929
" />
<path d="M164.1737 161.6929
L164.3165 161.7643
" />
<path d="M164.3165 161.7643
L164.3880 161.9072
" />
<path d="M164.3880 161.9072
L164.3880 162.6929
" />
<path d="M165.7451 161.6929
L165.7451 162.9072
" />
<path d="M165.7451 162.9072
L165.6736 163.0500
" />
<path d="M165.6736 163.0500
L165.6022 163.1215
" />
<path d="M165.6022 163.1215
L165.4593 163.1929
" />
<path d="M165.4593 163.1929
L165.2451 163.1929
" />
<path d="M165.2451 163.1929
L165.1022 163.1215
" />
<path d="M165.7451 162.6215
L165.6022 162.6929
" />
<path d="M165.6022 162.6929
L165.3165 162.6929
" />
<path d="M165.3165 162.6929
L165.1736 162.6215
" />
<path d="M165.1736 162.6215
L165.1022 162.5500
" />
<path d="M165.1022 162.5500
L165.0308 162.4072
" />
<path d="M165.0308 162.4072
L165.0308 161.9786
" />
<path d="M165.0308 161.9786
L165.1022 161.8357
" />
<path d="M165.1022 161.8357
L165.1736 161.7643
" />
<path d="M165.1736 161.7643
L165.3165 161.6929
" />
<path d="M165.3165 161.6929
L165.6022 161.6929
" />
<path d="M165.6022 161.6929
L165.7451 161.7643
" />
<path d="M166.1022 162.8357
L167.2450 162.8357
" />
<path d="M167.4593 161.1929
L168.3879 161.1929
" />
<path d="M168.3879 161.1929
L167.8879 161.7643
" />
<path d="M167.8879 161.7643
L168.1022 161.7643
" />
<path d="M168.1022 161.7643
L168.2451 161.8357
" />
<path d="M168.2451 161.8357
L168.3165 161.9072
" />
<path d="M168.3165 161.9072
L168.3879 162.0500
" />
<path d="M168.3879 162.0500
L168.3879 162.4072
" />
<path d="M168.3879 162.4072
L168.3165 162.5500
" />
<path d="M168.3165 162.5500
L168.2451 162.6215
" />
<path d="M168.2451 162.6215
L168.1022 162.6929
" />
<path d="M168.1022 162.6929
L167.6736 162.6929
" />
<path d="M167.6736 162.6929
L167.5308 162.6215
" />
<path d="M167.5308 162.6215
L167.4593 162.5500
" />
<path d="M170.1022 161.1215
L168.8165 163.0500
" />
</g><path d="M203.0132 185.5050
L203.0132 198.0050
" />
</g>
<g style="fill:none; 
stroke:#840000; stroke-width:0.8000; stroke-opacity:1; 
stroke-linecap:round; stroke-linejoin:round;">
<text x="213.5132" y="174.0050"
textLength="35.1237" font-size="5.3333" lengthAdjust="spacingAndGlyphs"
text-anchor="middle" opacity="0" stroke-opacity="0">CleverHand</text>
<g class="stroked-text"><desc>CleverHand</desc>
<path d="M200.0133 173.4329
L199.7990 173.6234
" />
<path d="M199.7990 173.6234
L199.2037 173.8138
" />
<path d="M199.2037 173.8138
L198.8228 173.8138
" />
<path d="M198.8228 173.8138
L198.2752 173.6234
" />
<path d="M198.2752 173.6234
L197.9418 173.2424
" />
<path d="M197.9418 173.2424
L197.7990 172.8614
" />
<path d="M197.7990 172.8614
L197.7037 172.0995
" />
<path d="M197.7037 172.0995
L197.7752 171.5281
" />
<path d="M197.7752 171.5281
L198.0609 170.7662
" />
<path d="M198.0609 170.7662
L198.2990 170.3853
" />
<path d="M198.2990 170.3853
L198.7275 170.0043
" />
<path d="M198.7275 170.0043
L199.3228 169.8138
" />
<path d="M199.3228 169.8138
L199.7037 169.8138
" />
<path d="M199.7037 169.8138
L200.2514 170.0043
" />
<path d="M200.2514 170.0043
L200.4180 170.1948
" />
<path d="M202.2514 173.8138
L201.8942 173.6234
" />
<path d="M201.8942 173.6234
L201.7514 173.2424
" />
<path d="M201.7514 173.2424
L202.1799 169.8138
" />
<path d="M205.3227 173.6234
L204.9180 173.8138
" />
<path d="M204.9180 173.8138
L204.1561 173.8138
" />
<path d="M204.1561 173.8138
L203.7989 173.6234
" />
<path d="M203.7989 173.6234
L203.6561 173.2424
" />
<path d="M203.6561 173.2424
L203.8466 171.7186
" />
<path d="M203.8466 171.7186
L204.0846 171.3376
" />
<path d="M204.0846 171.3376
L204.4894 171.1472
" />
<path d="M204.4894 171.1472
L205.2513 171.1472
" />
<path d="M205.2513 171.1472
L205.6085 171.3376
" />
<path d="M205.6085 171.3376
L205.7513 171.7186
" />
<path d="M205.7513 171.7186
L205.7037 172.0995
" />
<path d="M205.7037 172.0995
L203.7513 172.4805
" />
<path d="M207.1561 171.1472
L207.7752 173.8138
" />
<path d="M207.7752 173.8138
L209.0609 171.1472
" />
<path d="M211.7989 173.6234
L211.3942 173.8138
" />
<path d="M211.3942 173.8138
L210.6323 173.8138
" />
<path d="M210.6323 173.8138
L210.2751 173.6234
" />
<path d="M210.2751 173.6234
L210.1323 173.2424
" />
<path d="M210.1323 173.2424
L210.3228 171.7186
" />
<path d="M210.3228 171.7186
L210.5608 171.3376
" />
<path d="M210.5608 171.3376
L210.9656 171.1472
" />
<path d="M210.9656 171.1472
L211.7275 171.1472
" />
<path d="M211.7275 171.1472
L212.0847 171.3376
" />
<path d="M212.0847 171.3376
L212.2275 171.7186
" />
<path d="M212.2275 171.7186
L212.1799 172.0995
" />
<path d="M212.1799 172.0995
L210.2275 172.4805
" />
<path d="M213.6799 173.8138
L214.0133 171.1472
" />
<path d="M213.9180 171.9091
L214.1561 171.5281
" />
<path d="M214.1561 171.5281
L214.3704 171.3376
" />
<path d="M214.3704 171.3376
L214.7752 171.1472
" />
<path d="M214.7752 171.1472
L215.1561 171.1472
" />
<path d="M216.1561 173.8138
L216.6561 169.8138
" />
<path d="M216.4180 171.7186
L218.7037 171.7186
" />
<path d="M218.4418 173.8138
L218.9418 169.8138
" />
<path d="M222.0609 173.8138
L222.3228 171.7186
" />
<path d="M222.3228 171.7186
L222.1800 171.3376
" />
<path d="M222.1800 171.3376
L221.8228 171.1472
" />
<path d="M221.8228 171.1472
L221.0609 171.1472
" />
<path d="M221.0609 171.1472
L220.6561 171.3376
" />
<path d="M222.0847 173.6234
L221.6800 173.8138
" />
<path d="M221.6800 173.8138
L220.7276 173.8138
" />
<path d="M220.7276 173.8138
L220.3704 173.6234
" />
<path d="M220.3704 173.6234
L220.2276 173.2424
" />
<path d="M220.2276 173.2424
L220.2752 172.8614
" />
<path d="M220.2752 172.8614
L220.5133 172.4805
" />
<path d="M220.5133 172.4805
L220.9181 172.2900
" />
<path d="M220.9181 172.2900
L221.8704 172.2900
" />
<path d="M221.8704 172.2900
L222.2752 172.0995
" />
<path d="M224.2990 171.1472
L223.9656 173.8138
" />
<path d="M224.2513 171.5281
L224.4656 171.3376
" />
<path d="M224.4656 171.3376
L224.8704 171.1472
" />
<path d="M224.8704 171.1472
L225.4418 171.1472
" />
<path d="M225.4418 171.1472
L225.7990 171.3376
" />
<path d="M225.7990 171.3376
L225.9418 171.7186
" />
<path d="M225.9418 171.7186
L225.6799 173.8138
" />
<path d="M229.2989 173.8138
L229.7989 169.8138
" />
<path d="M229.3227 173.6234
L228.9180 173.8138
" />
<path d="M228.9180 173.8138
L228.1561 173.8138
" />
<path d="M228.1561 173.8138
L227.7989 173.6234
" />
<path d="M227.7989 173.6234
L227.6322 173.4329
" />
<path d="M227.6322 173.4329
L227.4894 173.0519
" />
<path d="M227.4894 173.0519
L227.6322 171.9091
" />
<path d="M227.6322 171.9091
L227.8703 171.5281
" />
<path d="M227.8703 171.5281
L228.0846 171.3376
" />
<path d="M228.0846 171.3376
L228.4894 171.1472
" />
<path d="M228.4894 171.1472
L229.2513 171.1472
" />
<path d="M229.2513 171.1472
L229.6084 171.3376
" />
</g></g>
<g style="fill:none; 
stroke:#840000; stroke-width:0.1524; stroke-opacity:1; 
stroke-linecap:round; stroke-linejoin:round;">
<path d="M147.0132 168.0050
L285.0132 168.0050
" />
<path d="M146.0132 158.0050
L285.0132 158.0050
L285.0132 198.0050
L146.0132 198.0050
L146.0132 158.0050
" />
<path style="fill:none; 
stroke:#840000; stroke-width:0.5080; stroke-opacity:1; 
stroke-linecap:round; stroke-linejoin:round;fill:none"
d="M 161.7980,76.9620
165.8620,76.9620
" /> 
<path style="fill:none; 
stroke:#840000; stroke-width:0.5080; stroke-opacity:1; 
stroke-linecap:round; stroke-linejoin:round;fill:none"
d="M 161.7980,75.4380
165.8620,75.4380
" /> 
</g>
<g style="fill:none; 
stroke:#840000; stroke-width:0.1524; stroke-opacity:1; 
stroke-linecap:round; stroke-linejoin:round;">
<path d="M163.8300 75.1840
L163.8300 72.3900
" />
<path d="M163.8300 77.2160
L163.8300 80.0100
" />
</g>
<g style="fill:none; 
stroke:#006464; stroke-width:0.1524; stroke-opacity:1; 
stroke-linecap:round; stroke-linejoin:round;">
<text x="168.9909" y="75.5649"
textLength="2.6827" font-size="1.6933" lengthAdjust="spacingAndGlyphs"
text-anchor="middle" opacity="0" stroke-opacity="0">C6</text>
<g class="stroked-text"><desc>C6</desc>
<path d="M168.7792 75.3885
L168.7188 75.4490
" />
<path d="M168.7188 75.4490
L168.5373 75.5094
" />
<path d="M168.5373 75.5094
L168.4164 75.5094
" />
<path d="M168.4164 75.5094
L168.2350 75.4490
" />
<path d="M168.2350 75.4490
L168.1140 75.3280
" />
<path d="M168.1140 75.3280
L168.0535 75.2070
" />
<path d="M168.0535 75.2070
L167.9931 74.9651
" />
<path d="M167.9931 74.9651
L167.9931 74.7837
" />
<path d="M167.9931 74.7837
L168.0535 74.5418
" />
<path d="M168.0535 74.5418
L168.1140 74.4209
" />
<path d="M168.1140 74.4209
L168.2350 74.2999
" />
<path d="M168.2350 74.2999
L168.4164 74.2394
" />
<path d="M168.4164 74.2394
L168.5373 74.2394
" />
<path d="M168.5373 74.2394
L168.7188 74.2999
" />
<path d="M168.7188 74.2999
L168.7792 74.3604
" />
<path d="M169.8678 74.2394
L169.6259 74.2394
" />
<path d="M169.6259 74.2394
L169.5050 74.2999
" />
<path d="M169.5050 74.2999
L169.4445 74.3604
" />
<path d="M169.4445 74.3604
L169.3235 74.5418
" />
<path d="M169.3235 74.5418
L169.2631 74.7837
" />
<path d="M169.2631 74.7837
L169.2631 75.2675
" />
<path d="M169.2631 75.2675
L169.3235 75.3885
" />
<path d="M169.3235 75.3885
L169.3840 75.4490
" />
<path d="M169.3840 75.4490
L169.5050 75.5094
" />
<path d="M169.5050 75.5094
L169.7469 75.5094
" />
<path d="M169.7469 75.5094
L169.8678 75.4490
" />
<path d="M169.8678 75.4490
L169.9283 75.3885
" />
<path d="M169.9283 75.3885
L169.9888 75.2675
" />
<path d="M169.9888 75.2675
L169.9888 74.9651
" />
<path d="M169.9888 74.9651
L169.9283 74.8442
" />
<path d="M169.9283 74.8442
L169.8678 74.7837
" />
<path d="M169.8678 74.7837
L169.7469 74.7232
" />
<path d="M169.7469 74.7232
L169.5050 74.7232
" />
<path d="M169.5050 74.7232
L169.3840 74.7837
" />
<path d="M169.3840 74.7837
L169.3235 74.8442
" />
<path d="M169.3235 74.8442
L169.2631 74.9651
" />
</g><text x="168.3862" y="78.1049"
textLength="1.4732" font-size="1.6933" lengthAdjust="spacingAndGlyphs"
text-anchor="middle" opacity="0" stroke-opacity="0">C</text>
<g class="stroked-text"><desc>C</desc>
<path d="M168.7792 77.9285
L168.7188 77.9890
" />
<path d="M168.7188 77.9890
L168.5373 78.0494
" />
<path d="M168.5373 78.0494
L168.4164 78.0494
" />
<path d="M168.4164 78.0494
L168.2350 77.9890
" />
<path d="M168.2350 77.9890
L168.1140 77.8680
" />
<path d="M168.1140 77.8680
L168.0535 77.7470
" />
<path d="M168.0535 77.7470
L167.9931 77.5051
" />
<path d="M167.9931 77.5051
L167.9931 77.3237
" />
<path d="M167.9931 77.3237
L168.0535 77.0818
" />
<path d="M168.0535 77.0818
L168.1140 76.9609
" />
<path d="M168.1140 76.9609
L168.2350 76.8399
" />
<path d="M168.2350 76.8399
L168.4164 76.7794
" />
<path d="M168.4164 76.7794
L168.5373 76.7794
" />
<path d="M168.5373 76.7794
L168.7188 76.8399
" />
<path d="M168.7188 76.8399
L168.7792 76.9004
" />
</g><path style="fill:none; 
stroke:#840000; stroke-width:0.5080; stroke-opacity:1; 
stroke-linecap:round; stroke-linejoin:round;fill:none"
d="M 146.5580,76.9620
150.6220,76.9620
" /> 
<path style="fill:none; 
stroke:#840000; stroke-width:0.5080; stroke-opacity:1; 
stroke-linecap:round; stroke-linejoin:round;fill:none"
d="M 146.5580,75.4380
150.6220,75.4380
" /> 
</g>
<g style="fill:none; 
stroke:#840000; stroke-width:0.1524; stroke-opacity:1; 
stroke-linecap:round; stroke-linejoin:round;">
<path d="M148.5900 75.1840
L148.5900 72.3900
" />
<path d="M148.5900 77.2160
L148.5900 80.0100
" />
</g>
<g style="fill:none; 
stroke:#006464; stroke-width:0.1524; stroke-opacity:1; 
stroke-linecap:round; stroke-linejoin:round;">
<text x="153.7509" y="75.5649"
textLength="2.6827" font-size="1.6933" lengthAdjust="spacingAndGlyphs"
text-anchor="middle" opacity="0" stroke-opacity="0">C5</text>
<g class="stroked-text"><desc>C5</desc>
<path d="M153.5392 75.3885
L153.4788 75.4490
" />
<path d="M153.4788 75.4490
L153.2973 75.5094
" />
<path d="M153.2973 75.5094
L153.1764 75.5094
" />
<path d="M153.1764 75.5094
L152.9950 75.4490
" />
<path d="M152.9950 75.4490
L152.8740 75.3280
" />
<path d="M152.8740 75.3280
L152.8135 75.2070
" />
<path d="M152.8135 75.2070
L152.7531 74.9651
" />
<path d="M152.7531 74.9651
L152.7531 74.7837
" />
<path d="M152.7531 74.7837
L152.8135 74.5418
" />
<path d="M152.8135 74.5418
L152.8740 74.4209
" />
<path d="M152.8740 74.4209
L152.9950 74.2999
" />
<path d="M152.9950 74.2999
L153.1764 74.2394
" />
<path d="M153.1764 74.2394
L153.2973 74.2394
" />
<path d="M153.2973 74.2394
L153.4788 74.2999
" />
<path d="M153.4788 74.2999
L153.5392 74.3604
" />
<path d="M154.6883 74.2394
L154.0835 74.2394
" />
<path d="M154.0835 74.2394
L154.0231 74.8442
" />
<path d="M154.0231 74.8442
L154.0835 74.7837
" />
<path d="M154.0835 74.7837
L154.2045 74.7232
" />
<path d="M154.2045 74.7232
L154.5069 74.7232
" />
<path d="M154.5069 74.7232
L154.6278 74.7837
" />
<path d="M154.6278 74.7837
L154.6883 74.8442
" />
<path d="M154.6883 74.8442
L154.7488 74.9651
" />
<path d="M154.7488 74.9651
L154.7488 75.2675
" />
<path d="M154.7488 75.2675
L154.6883 75.3885
" />
<path d="M154.6883 75.3885
L154.6278 75.4490
" />
<path d="M154.6278 75.4490
L154.5069 75.5094
" />
<path d="M154.5069 75.5094
L154.2045 75.5094
" />
<path d="M154.2045 75.5094
L154.0835 75.4490
" />
<path d="M154.0835 75.4490
L154.0231 75.3885
" />
</g><text x="153.1462" y="78.1049"
textLength="1.4732" font-size="1.6933" lengthAdjust="spacingAndGlyphs"
text-anchor="middle" opacity="0" stroke-opacity="0">C</text>
<g class="stroked-text"><desc>C</desc>
<path d="M153.5392 77.9285
L153.4788 77.9890
" />
<path d="M153.4788 77.9890
L153.2973 78.0494
" />
<path d="M153.2973 78.0494
L153.1764 78.0494
" />
<path d="M153.1764 78.0494
L152.9950 77.9890
" />
<path d="M152.9950 77.9890
L152.8740 77.8680
" />
<path d="M152.8740 77.8680
L152.8135 77.7470
" />
<path d="M152.8135 77.7470
L152.7531 77.5051
" />
<path d="M152.7531 77.5051
L152.7531 77.3237
" />
<path d="M152.7531 77.3237
L152.8135 77.0818
" />
<path d="M152.8135 77.0818
L152.8740 76.9609
" />
<path d="M152.8740 76.9609
L152.9950 76.8399
" />
<path d="M152.9950 76.8399
L153.1764 76.7794
" />
<path d="M153.1764 76.7794
L153.2973 76.7794
" />
<path d="M153.2973 76.7794
L153.4788 76.8399
" />
<path d="M153.4788 76.8399
L153.5392 76.9004
" />
</g></g>
<g style="fill:none; 
stroke:#840000; stroke-width:0.2540; stroke-opacity:1; 
stroke-linecap:round; stroke-linejoin:round;">
<rect x="138.430000" y="68.834000" width="5.080000" height="2.032000" rx="0.000000" />
</g>
<g style="fill:none; 
stroke:#840000; stroke-width:0.1524; stroke-opacity:1; 
stroke-linecap:round; stroke-linejoin:round;">
<path d="M138.4300 69.8500
L137.1600 69.8500
" />
<path d="M143.5100 69.8500
L144.7800 69.8500
" />
</g>
<g style="fill:none; 
stroke:#006464; stroke-width:0.1524; stroke-opacity:1; 
stroke-linecap:round; stroke-linejoin:round;">
<text x="140.9699" y="64.1349"
textLength="2.6827" font-size="1.6933" lengthAdjust="spacingAndGlyphs"
text-anchor="middle" opacity="0" stroke-opacity="0">R5</text>
<g class="stroked-text"><desc>R5</desc>
<path d="M140.7582 64.0794
L140.3349 63.4747
" />
<path d="M140.0325 64.0794
L140.0325 62.8094
" />
<path d="M140.0325 62.8094
L140.5163 62.8094
" />
<path d="M140.5163 62.8094
L140.6373 62.8699
" />
<path d="M140.6373 62.8699
L140.6978 62.9304
" />
<path d="M140.6978 62.9304
L140.7582 63.0513
" />
<path d="M140.7582 63.0513
L140.7582 63.2328
" />
<path d="M140.7582 63.2328
L140.6978 63.3537
" />
<path d="M140.6978 63.3537
L140.6373 63.4142
" />
<path d="M140.6373 63.4142
L140.5163 63.4747
" />
<path d="M140.5163 63.4747
L140.0325 63.4747
" />
<path d="M141.9073 62.8094
L141.3025 62.8094
" />
<path d="M141.3025 62.8094
L141.2421 63.4142
" />
<path d="M141.2421 63.4142
L141.3025 63.3537
" />
<path d="M141.3025 63.3537
L141.4235 63.2932
" />
<path d="M141.4235 63.2932
L141.7259 63.2932
" />
<path d="M141.7259 63.2932
L141.8468 63.3537
" />
<path d="M141.8468 63.3537
L141.9073 63.4142
" />
<path d="M141.9073 63.4142
L141.9678 63.5351
" />
<path d="M141.9678 63.5351
L141.9678 63.8375
" />
<path d="M141.9678 63.8375
L141.9073 63.9585
" />
<path d="M141.9073 63.9585
L141.8468 64.0190
" />
<path d="M141.8468 64.0190
L141.7259 64.0794
" />
<path d="M141.7259 64.0794
L141.4235 64.0794
" />
<path d="M141.4235 64.0794
L141.3025 64.0190
" />
<path d="M141.3025 64.0190
L141.2421 63.9585
" />
</g><text x="140.9700" y="66.6749"
textLength="1.4732" font-size="1.6933" lengthAdjust="spacingAndGlyphs"
text-anchor="middle" opacity="0" stroke-opacity="0">R</text>
<g class="stroked-text"><desc>R</desc>
<path d="M141.3630 66.6194
L140.9397 66.0147
" />
<path d="M140.6373 66.6194
L140.6373 65.3494
" />
<path d="M140.6373 65.3494
L141.1211 65.3494
" />
<path d="M141.1211 65.3494
L141.2421 65.4099
" />
<path d="M141.2421 65.4099
L141.3026 65.4704
" />
<path d="M141.3026 65.4704
L141.3630 65.5913
" />
<path d="M141.3630 65.5913
L141.3630 65.7728
" />
<path d="M141.3630 65.7728
L141.3026 65.8937
" />
<path d="M141.3026 65.8937
L141.2421 65.9542
" />
<path d="M141.2421 65.9542
L141.1211 66.0147
" />
<path d="M141.1211 66.0147
L140.6373 66.0147
" />
</g></g>
<g style="fill:#840000; fill-opacity:1.0000; 
stroke:#840000; stroke-width:0.1524; stroke-opacity:1; 
stroke-linecap:round; stroke-linejoin:round;">
<rect x="151.892000" y="56.642000" width="1.016000" height="1.016000" rx="0.000000" />
</g>
<g style="fill:none; 
stroke:#840000; stroke-width:0.1524; stroke-opacity:1; 
stroke-linecap:round; stroke-linejoin:round;">
<path d="M152.1460 56.1340 A1.0160 1.0160 0.0 0 0 152.1460 58.1660" />
</g>
<g style="fill:#840000; fill-opacity:1.0000; stroke:none;">
<path d="M152.1460 56.1340 A1.0160 1.0160 0.0 0 0 152.1460 58.1660 L 152.1500 57.1500 Z" />
</g>
<g style="fill:none; 
stroke:#840000; stroke-width:0.1524; stroke-opacity:1; 
stroke-linecap:round; stroke-linejoin:round;">
<path d="M152.1460 56.1340 A1.0160 1.0160 0.0 0 0 152.1460 58.1660" />
<path style="fill:none; 
stroke:#840000; stroke-width:0.1524; stroke-opacity:1; 
stroke-linecap:round; stroke-linejoin:round;fill:none"
d="M 152.1460,56.1340
152.1460,58.1660
" /> 
<path style="fill:none; 
stroke:#840000; stroke-width:0.1524; stroke-opacity:1; 
stroke-linecap:round; stroke-linejoin:round;fill:none"
d="M 152.6540,56.1340
152.6540,58.1660
" /> 
<path d="M152.6540 58.1660 A1.0160 1.0160 0.0 0 0 152.6540 56.1340" />
</g>
<g style="fill:#840000; fill-opacity:1.0000; stroke:none;">
<path d="M152.6540 58.1660 A1.0160 1.0160 0.0 0 0 152.6540 56.1340 L 152.6500 57.1500 Z" />
</g>
<g style="fill:none; 
stroke:#840000; stroke-width:0.1524; stroke-opacity:1; 
stroke-linecap:round; stroke-linejoin:round;">
<path d="M152.6540 58.1660 A1.0160 1.0160 0.0 0 0 152.6540 56.1340" />
<path d="M151.1300 57.1500
L148.5900 57.1500
" />
<path d="M153.6700 57.1500
L156.2100 57.1500
" />
</g>
<g style="fill:none; 
stroke:#006464; stroke-width:0.1524; stroke-opacity:1; 
stroke-linecap:round; stroke-linejoin:round;">
<text x="152.4000" y="51.4350"
textLength="3.6503" font-size="1.6933" lengthAdjust="spacingAndGlyphs"
text-anchor="middle" opacity="0" stroke-opacity="0">JP3</text>
<g class="stroked-text"><desc>JP3</desc>
<path d="M151.3417 50.1095
L151.3417 51.0167
" />
<path d="M151.3417 51.0167
L151.2812 51.1981
" />
<path d="M151.2812 51.1981
L151.1603 51.3191
" />
<path d="M151.1603 51.3191
L150.9788 51.3795
" />
<path d="M150.9788 51.3795
L150.8579 51.3795
" />
<path d="M151.9464 51.3795
L151.9464 50.1095
" />
<path d="M151.9464 50.1095
L152.4302 50.1095
" />
<path d="M152.4302 50.1095
L152.5512 50.1700
" />
<path d="M152.5512 50.1700
L152.6117 50.2305
" />
<path d="M152.6117 50.2305
L152.6721 50.3514
" />
<path d="M152.6721 50.3514
L152.6721 50.5329
" />
<path d="M152.6721 50.5329
L152.6117 50.6538
" />
<path d="M152.6117 50.6538
L152.5512 50.7143
" />
<path d="M152.5512 50.7143
L152.4302 50.7748
" />
<path d="M152.4302 50.7748
L151.9464 50.7748
" />
<path d="M153.0955 50.1095
L153.8817 50.1095
" />
<path d="M153.8817 50.1095
L153.4583 50.5933
" />
<path d="M153.4583 50.5933
L153.6398 50.5933
" />
<path d="M153.6398 50.5933
L153.7607 50.6538
" />
<path d="M153.7607 50.6538
L153.8212 50.7143
" />
<path d="M153.8212 50.7143
L153.8817 50.8352
" />
<path d="M153.8817 50.8352
L153.8817 51.1376
" />
<path d="M153.8817 51.1376
L153.8212 51.2586
" />
<path d="M153.8212 51.2586
L153.7607 51.3191
" />
<path d="M153.7607 51.3191
L153.6398 51.3795
" />
<path d="M153.6398 51.3795
L153.2769 51.3795
" />
<path d="M153.2769 51.3795
L153.1560 51.3191
" />
<path d="M153.1560 51.3191
L153.0955 51.2586
" />
</g><text x="152.4000" y="53.9750"
textLength="23.4257" font-size="1.6933" lengthAdjust="spacingAndGlyphs"
text-anchor="middle" opacity="0" stroke-opacity="0">SolderJumper_2_Bridged</text>
<g class="stroked-text"><desc>SolderJumper_2_Bridged</desc>
<path d="M141.0307 53.8591
L141.2121 53.9195
" />
<path d="M141.2121 53.9195
L141.5145 53.9195
" />
<path d="M141.5145 53.9195
L141.6354 53.8591
" />
<path d="M141.6354 53.8591
L141.6959 53.7986
" />
<path d="M141.6959 53.7986
L141.7564 53.6776
" />
<path d="M141.7564 53.6776
L141.7564 53.5567
" />
<path d="M141.7564 53.5567
L141.6959 53.4357
" />
<path d="M141.6959 53.4357
L141.6354 53.3752
" />
<path d="M141.6354 53.3752
L141.5145 53.3148
" />
<path d="M141.5145 53.3148
L141.2726 53.2543
" />
<path d="M141.2726 53.2543
L141.1516 53.1938
" />
<path d="M141.1516 53.1938
L141.0911 53.1333
" />
<path d="M141.0911 53.1333
L141.0307 53.0124
" />
<path d="M141.0307 53.0124
L141.0307 52.8914
" />
<path d="M141.0307 52.8914
L141.0911 52.7705
" />
<path d="M141.0911 52.7705
L141.1516 52.7100
" />
<path d="M141.1516 52.7100
L141.2726 52.6495
" />
<path d="M141.2726 52.6495
L141.5749 52.6495
" />
<path d="M141.5749 52.6495
L141.7564 52.7100
" />
<path d="M142.4821 53.9195
L142.3611 53.8591
" />
<path d="M142.3611 53.8591
L142.3006 53.7986
" />
<path d="M142.3006 53.7986
L142.2402 53.6776
" />
<path d="M142.2402 53.6776
L142.2402 53.3148
" />
<path d="M142.2402 53.3148
L142.3006 53.1938
" />
<path d="M142.3006 53.1938
L142.3611 53.1333
" />
<path d="M142.3611 53.1333
L142.4821 53.0729
" />
<path d="M142.4821 53.0729
L142.6635 53.0729
" />
<path d="M142.6635 53.0729
L142.7844 53.1333
" />
<path d="M142.7844 53.1333
L142.8449 53.1938
" />
<path d="M142.8449 53.1938
L142.9054 53.3148
" />
<path d="M142.9054 53.3148
L142.9054 53.6776
" />
<path d="M142.9054 53.6776
L142.8449 53.7986
" />
<path d="M142.8449 53.7986
L142.7844 53.8591
" />
<path d="M142.7844 53.8591
L142.6635 53.9195
" />
<path d="M142.6635 53.9195
L142.4821 53.9195
" />
<path d="M143.6311 53.9195
L143.5101 53.8591
" />
<path d="M143.5101 53.8591
L143.4496 53.7381
" />
<path d="M143.4496 53.7381
L143.4496 52.6495
" />
<path d="M144.6591 53.9195
L144.6591 52.6495
" />
<path d="M144.6591 53.8591
L144.5382 53.9195
" />
<path d="M144.5382 53.9195
L144.2963 53.9195
" />
<path d="M144.2963 53.9195
L144.1753 53.8591
" />
<path d="M144.1753 53.8591
L144.1148 53.7986
" />
<path d="M144.1148 53.7986
L144.0544 53.6776
" />
<path d="M144.0544 53.6776
L144.0544 53.3148
" />
<path d="M144.0544 53.3148
L144.1148 53.1938
" />
<path d="M144.1148 53.1938
L144.1753 53.1333
" />
<path d="M144.1753 53.1333
L144.2963 53.0729
" />
<path d="M144.2963 53.0729
L144.5382 53.0729
" />
<path d="M144.5382 53.0729
L144.6591 53.1333
" />
<path d="M145.7476 53.8591
L145.6267 53.9195
" />
<path d="M145.6267 53.9195
L145.3848 53.9195
" />
<path d="M145.3848 53.9195
L145.2638 53.8591
" />
<path d="M145.2638 53.8591
L145.2034 53.7381
" />
<path d="M145.2034 53.7381
L145.2034 53.2543
" />
<path d="M145.2034 53.2543
L145.2638 53.1333
" />
<path d="M145.2638 53.1333
L145.3848 53.0729
" />
<path d="M145.3848 53.0729
L145.6267 53.0729
" />
<path d="M145.6267 53.0729
L145.7476 53.1333
" />
<path d="M145.7476 53.1333
L145.8081 53.2543
" />
<path d="M145.8081 53.2543
L145.8081 53.3752
" />
<path d="M145.8081 53.3752
L145.2034 53.4962
" />
<path d="M146.3524 53.9195
L146.3524 53.0729
" />
<path d="M146.3524 53.3148
L146.4129 53.1938
" />
<path d="M146.4129 53.1938
L146.4734 53.1333
" />
<path d="M146.4734 53.1333
L146.5943 53.0729
" />
<path d="M146.5943 53.0729
L146.7153 53.0729
" />
<path d="M147.5015 52.6495
L147.5015 53.5567
" />
<path d="M147.5015 53.5567
L147.4410 53.7381
" />
<path d="M147.4410 53.7381
L147.3201 53.8591
" />
<path d="M147.3201 53.8591
L147.1386 53.9195
" />
<path d="M147.1386 53.9195
L147.0177 53.9195
" />
<path d="M148.6505 53.0729
L148.6505 53.9195
" />
<path d="M148.1062 53.0729
L148.1062 53.7381
" />
<path d="M148.1062 53.7381
L148.1667 53.8591
" />
<path d="M148.1667 53.8591
L148.2877 53.9195
" />
<path d="M148.2877 53.9195
L148.4691 53.9195
" />
<path d="M148.4691 53.9195
L148.5900 53.8591
" />
<path d="M148.5900 53.8591
L148.6505 53.7986
" />
<path d="M149.2552 53.9195
L149.2552 53.0729
" />
<path d="M149.2552 53.1938
L149.3157 53.1333
" />
<path d="M149.3157 53.1333
L149.4367 53.0729
" />
<path d="M149.4367 53.0729
L149.6181 53.0729
" />
<path d="M149.6181 53.0729
L149.7390 53.1333
" />
<path d="M149.7390 53.1333
L149.7995 53.2543
" />
<path d="M149.7995 53.2543
L149.7995 53.9195
" />
<path d="M149.7995 53.2543
L149.8600 53.1333
" />
<path d="M149.8600 53.1333
L149.9809 53.0729
" />
<path d="M149.9809 53.0729
L150.1624 53.0729
" />
<path d="M150.1624 53.0729
L150.2833 53.1333
" />
<path d="M150.2833 53.1333
L150.3438 53.2543
" />
<path d="M150.3438 53.2543
L150.3438 53.9195
" />
<path d="M150.9485 53.0729
L150.9485 54.3429
" />
<path d="M150.9485 53.1333
L151.0695 53.0729
" />
<path d="M151.0695 53.0729
L151.3114 53.0729
" />
<path d="M151.3114 53.0729
L151.4323 53.1333
" />
<path d="M151.4323 53.1333
L151.4928 53.1938
" />
<path d="M151.4928 53.1938
L151.5533 53.3148
" />
<path d="M151.5533 53.3148
L151.5533 53.6776
" />
<path d="M151.5533 53.6776
L151.4928 53.7986
" />
<path d="M151.4928 53.7986
L151.4323 53.8591
" />
<path d="M151.4323 53.8591
L151.3114 53.9195
" />
<path d="M151.3114 53.9195
L151.0695 53.9195
" />
<path d="M151.0695 53.9195
L150.9485 53.8591
" />
<path d="M152.5813 53.8591
L152.4604 53.9195
" />
<path d="M152.4604 53.9195
L152.2185 53.9195
" />
<path d="M152.2185 53.9195
L152.0975 53.8591
" />
<path d="M152.0975 53.8591
L152.0371 53.7381
" />
<path d="M152.0371 53.7381
L152.0371 53.2543
" />
<path d="M152.0371 53.2543
L152.0975 53.1333
" />
<path d="M152.0975 53.1333
L152.2185 53.0729
" />
<path d="M152.2185 53.0729
L152.4604 53.0729
" />
<path d="M152.4604 53.0729
L152.5813 53.1333
" />
<path d="M152.5813 53.1333
L152.6418 53.2543
" />
<path d="M152.6418 53.2543
L152.6418 53.3752
" />
<path d="M152.6418 53.3752
L152.0371 53.4962
" />
<path d="M153.1861 53.9195
L153.1861 53.0729
" />
<path d="M153.1861 53.3148
L153.2466 53.1938
" />
<path d="M153.2466 53.1938
L153.3071 53.1333
" />
<path d="M153.3071 53.1333
L153.4280 53.0729
" />
<path d="M153.4280 53.0729
L153.5490 53.0729
" />
<path d="M153.6700 54.0405
L154.6376 54.0405
" />
<path d="M154.8795 52.7705
L154.9399 52.7100
" />
<path d="M154.9399 52.7100
L155.0609 52.6495
" />
<path d="M155.0609 52.6495
L155.3633 52.6495
" />
<path d="M155.3633 52.6495
L155.4842 52.7100
" />
<path d="M155.4842 52.7100
L155.5447 52.7705
" />
<path d="M155.5447 52.7705
L155.6052 52.8914
" />
<path d="M155.6052 52.8914
L155.6052 53.0124
" />
<path d="M155.6052 53.0124
L155.5447 53.1938
" />
<path d="M155.5447 53.1938
L154.8190 53.9195
" />
<path d="M154.8190 53.9195
L155.6052 53.9195
" />
<path d="M155.8471 54.0405
L156.8147 54.0405
" />
<path d="M157.5404 53.2543
L157.7218 53.3148
" />
<path d="M157.7218 53.3148
L157.7823 53.3752
" />
<path d="M157.7823 53.3752
L157.8427 53.4962
" />
<path d="M157.8427 53.4962
L157.8427 53.6776
" />
<path d="M157.8427 53.6776
L157.7823 53.7986
" />
<path d="M157.7823 53.7986
L157.7218 53.8591
" />
<path d="M157.7218 53.8591
L157.6008 53.9195
" />
<path d="M157.6008 53.9195
L157.1170 53.9195
" />
<path d="M157.1170 53.9195
L157.1170 52.6495
" />
<path d="M157.1170 52.6495
L157.5404 52.6495
" />
<path d="M157.5404 52.6495
L157.6613 52.7100
" />
<path d="M157.6613 52.7100
L157.7218 52.7705
" />
<path d="M157.7218 52.7705
L157.7823 52.8914
" />
<path d="M157.7823 52.8914
L157.7823 53.0124
" />
<path d="M157.7823 53.0124
L157.7218 53.1333
" />
<path d="M157.7218 53.1333
L157.6613 53.1938
" />
<path d="M157.6613 53.1938
L157.5404 53.2543
" />
<path d="M157.5404 53.2543
L157.1170 53.2543
" />
<path d="M158.3870 53.9195
L158.3870 53.0729
" />
<path d="M158.3870 53.3148
L158.4475 53.1938
" />
<path d="M158.4475 53.1938
L158.5080 53.1333
" />
<path d="M158.5080 53.1333
L158.6289 53.0729
" />
<path d="M158.6289 53.0729
L158.7499 53.0729
" />
<path d="M159.1732 53.9195
L159.1732 53.0729
" />
<path d="M159.1732 52.6495
L159.1128 52.7100
" />
<path d="M159.1128 52.7100
L159.1732 52.7705
" />
<path d="M159.1732 52.7705
L159.2337 52.7100
" />
<path d="M159.2337 52.7100
L159.1732 52.6495
" />
<path d="M159.1732 52.6495
L159.1732 52.7705
" />
<path d="M160.3223 53.9195
L160.3223 52.6495
" />
<path d="M160.3223 53.8591
L160.2014 53.9195
" />
<path d="M160.2014 53.9195
L159.9595 53.9195
" />
<path d="M159.9595 53.9195
L159.8385 53.8591
" />
<path d="M159.8385 53.8591
L159.7780 53.7986
" />
<path d="M159.7780 53.7986
L159.7176 53.6776
" />
<path d="M159.7176 53.6776
L159.7176 53.3148
" />
<path d="M159.7176 53.3148
L159.7780 53.1938
" />
<path d="M159.7780 53.1938
L159.8385 53.1333
" />
<path d="M159.8385 53.1333
L159.9595 53.0729
" />
<path d="M159.9595 53.0729
L160.2014 53.0729
" />
<path d="M160.2014 53.0729
L160.3223 53.1333
" />
<path d="M161.4713 53.0729
L161.4713 54.1010
" />
<path d="M161.4713 54.1010
L161.4108 54.2219
" />
<path d="M161.4108 54.2219
L161.3504 54.2824
" />
<path d="M161.3504 54.2824
L161.2294 54.3429
" />
<path d="M161.2294 54.3429
L161.0480 54.3429
" />
<path d="M161.0480 54.3429
L160.9270 54.2824
" />
<path d="M161.4713 53.8591
L161.3504 53.9195
" />
<path d="M161.3504 53.9195
L161.1085 53.9195
" />
<path d="M161.1085 53.9195
L160.9875 53.8591
" />
<path d="M160.9875 53.8591
L160.9270 53.7986
" />
<path d="M160.9270 53.7986
L160.8666 53.6776
" />
<path d="M160.8666 53.6776
L160.8666 53.3148
" />
<path d="M160.8666 53.3148
L160.9270 53.1938
" />
<path d="M160.9270 53.1938
L160.9875 53.1333
" />
<path d="M160.9875 53.1333
L161.1085 53.0729
" />
<path d="M161.1085 53.0729
L161.3504 53.0729
" />
<path d="M161.3504 53.0729
L161.4713 53.1333
" />
<path d="M162.5598 53.8591
L162.4389 53.9195
" />
<path d="M162.4389 53.9195
L162.1970 53.9195
" />
<path d="M162.1970 53.9195
L162.0760 53.8591
" />
<path d="M162.0760 53.8591
L162.0156 53.7381
" />
<path d="M162.0156 53.7381
L162.0156 53.2543
" />
<path d="M162.0156 53.2543
L162.0760 53.1333
" />
<path d="M162.0760 53.1333
L162.1970 53.0729
" />
<path d="M162.1970 53.0729
L162.4389 53.0729
" />
<path d="M162.4389 53.0729
L162.5598 53.1333
" />
<path d="M162.5598 53.1333
L162.6203 53.2543
" />
<path d="M162.6203 53.2543
L162.6203 53.3752
" />
<path d="M162.6203 53.3752
L162.0156 53.4962
" />
<path d="M163.7089 53.9195
L163.7089 52.6495
" />
<path d="M163.7089 53.8591
L163.5880 53.9195
" />
<path d="M163.5880 53.9195
L163.3461 53.9195
" />
<path d="M163.3461 53.9195
L163.2251 53.8591
" />
<path d="M163.2251 53.8591
L163.1646 53.7986
" />
<path d="M163.1646 53.7986
L163.1042 53.6776
" />
<path d="M163.1042 53.6776
L163.1042 53.3148
" />
<path d="M163.1042 53.3148
L163.1646 53.1938
" />
<path d="M163.1646 53.1938
L163.2251 53.1333
" />
<path d="M163.2251 53.1333
L163.3461 53.0729
" />
<path d="M163.3461 53.0729
L163.5880 53.0729
" />
<path d="M163.5880 53.0729
L163.7089 53.1333
" />
</g></g>
<g style="fill:none; 
stroke:#840000; stroke-width:0.2540; stroke-opacity:1; 
stroke-linecap:round; stroke-linejoin:round;">
<rect x="153.670000" y="68.834000" width="5.080000" height="2.032000" rx="0.000000" />
</g>
<g style="fill:none; 
stroke:#840000; stroke-width:0.1524; stroke-opacity:1; 
stroke-linecap:round; stroke-linejoin:round;">
<path d="M153.6700 69.8500
L152.4000 69.8500
" />
<path d="M158.7500 69.8500
L160.0200 69.8500
" />
</g>
<g style="fill:none; 
stroke:#006464; stroke-width:0.1524; stroke-opacity:1; 
stroke-linecap:round; stroke-linejoin:round;">
<text x="156.2099" y="64.1349"
textLength="2.6827" font-size="1.6933" lengthAdjust="spacingAndGlyphs"
text-anchor="middle" opacity="0" stroke-opacity="0">R6</text>
<g class="stroked-text"><desc>R6</desc>
<path d="M155.9982 64.0794
L155.5749 63.4747
" />
<path d="M155.2725 64.0794
L155.2725 62.8094
" />
<path d="M155.2725 62.8094
L155.7563 62.8094
" />
<path d="M155.7563 62.8094
L155.8773 62.8699
" />
<path d="M155.8773 62.8699
L155.9378 62.9304
" />
<path d="M155.9378 62.9304
L155.9982 63.0513
" />
<path d="M155.9982 63.0513
L155.9982 63.2328
" />
<path d="M155.9982 63.2328
L155.9378 63.3537
" />
<path d="M155.9378 63.3537
L155.8773 63.4142
" />
<path d="M155.8773 63.4142
L155.7563 63.4747
" />
<path d="M155.7563 63.4747
L155.2725 63.4747
" />
<path d="M157.0868 62.8094
L156.8449 62.8094
" />
<path d="M156.8449 62.8094
L156.7240 62.8699
" />
<path d="M156.7240 62.8699
L156.6635 62.9304
" />
<path d="M156.6635 62.9304
L156.5425 63.1118
" />
<path d="M156.5425 63.1118
L156.4821 63.3537
" />
<path d="M156.4821 63.3537
L156.4821 63.8375
" />
<path d="M156.4821 63.8375
L156.5425 63.9585
" />
<path d="M156.5425 63.9585
L156.6030 64.0190
" />
<path d="M156.6030 64.0190
L156.7240 64.0794
" />
<path d="M156.7240 64.0794
L156.9659 64.0794
" />
<path d="M156.9659 64.0794
L157.0868 64.0190
" />
<path d="M157.0868 64.0190
L157.1473 63.9585
" />
<path d="M157.1473 63.9585
L157.2078 63.8375
" />
<path d="M157.2078 63.8375
L157.2078 63.5351
" />
<path d="M157.2078 63.5351
L157.1473 63.4142
" />
<path d="M157.1473 63.4142
L157.0868 63.3537
" />
<path d="M157.0868 63.3537
L156.9659 63.2932
" />
<path d="M156.9659 63.2932
L156.7240 63.2932
" />
<path d="M156.7240 63.2932
L156.6030 63.3537
" />
<path d="M156.6030 63.3537
L156.5425 63.4142
" />
<path d="M156.5425 63.4142
L156.4821 63.5351
" />
</g><text x="156.2100" y="66.6749"
textLength="1.4732" font-size="1.6933" lengthAdjust="spacingAndGlyphs"
text-anchor="middle" opacity="0" stroke-opacity="0">R</text>
<g class="stroked-text"><desc>R</desc>
<path d="M156.6030 66.6194
L156.1797 66.0147
" />
<path d="M155.8773 66.6194
L155.8773 65.3494
" />
<path d="M155.8773 65.3494
L156.3611 65.3494
" />
<path d="M156.3611 65.3494
L156.4821 65.4099
" />
<path d="M156.4821 65.4099
L156.5426 65.4704
" />
<path d="M156.5426 65.4704
L156.6030 65.5913
" />
<path d="M156.6030 65.5913
L156.6030 65.7728
" />
<path d="M156.6030 65.7728
L156.5426 65.8937
" />
<path d="M156.5426 65.8937
L156.4821 65.9542
" />
<path d="M156.4821 65.9542
L156.3611 66.0147
" />
<path d="M156.3611 66.0147
L155.8773 66.0147
" />
</g></g>
<g style="fill:none; 
stroke:#725600; stroke-width:0.1524; stroke-opacity:1; 
stroke-linecap:round; stroke-linejoin:round;">
<text x="125.5395" y="70.4850"
textLength="10.7864" font-size="1.6933" lengthAdjust="spacingAndGlyphs"
text-anchor="end" opacity="0" stroke-opacity="0">ELECTRODE</text>
<g class="stroked-text"><desc>ELECTRODE</desc>
<path d="M115.1584 69.7643
L115.5818 69.7643
" />
<path d="M115.7632 70.4295
L115.1584 70.4295
" />
<path d="M115.1584 70.4295
L115.1584 69.1595
" />
<path d="M115.1584 69.1595
L115.7632 69.1595
" />
<path d="M116.9122 70.4295
L116.3074 70.4295
" />
<path d="M116.3074 70.4295
L116.3074 69.1595
" />
<path d="M117.3355 69.7643
L117.7589 69.7643
" />
<path d="M117.9403 70.4295
L117.3355 70.4295
" />
<path d="M117.3355 70.4295
L117.3355 69.1595
" />
<path d="M117.3355 69.1595
L117.9403 69.1595
" />
<path d="M119.2102 70.3086
L119.1498 70.3691
" />
<path d="M119.1498 70.3691
L118.9683 70.4295
" />
<path d="M118.9683 70.4295
L118.8474 70.4295
" />
<path d="M118.8474 70.4295
L118.6660 70.3691
" />
<path d="M118.6660 70.3691
L118.5450 70.2481
" />
<path d="M118.5450 70.2481
L118.4845 70.1271
" />
<path d="M118.4845 70.1271
L118.4241 69.8852
" />
<path d="M118.4241 69.8852
L118.4241 69.7038
" />
<path d="M118.4241 69.7038
L118.4845 69.4619
" />
<path d="M118.4845 69.4619
L118.5450 69.3410
" />
<path d="M118.5450 69.3410
L118.6660 69.2200
" />
<path d="M118.6660 69.2200
L118.8474 69.1595
" />
<path d="M118.8474 69.1595
L118.9683 69.1595
" />
<path d="M118.9683 69.1595
L119.1498 69.2200
" />
<path d="M119.1498 69.2200
L119.2102 69.2805
" />
<path d="M119.5731 69.1595
L120.2988 69.1595
" />
<path d="M119.9360 70.4295
L119.9360 69.1595
" />
<path d="M121.4478 70.4295
L121.0245 69.8248
" />
<path d="M120.7221 70.4295
L120.7221 69.1595
" />
<path d="M120.7221 69.1595
L121.2059 69.1595
" />
<path d="M121.2059 69.1595
L121.3269 69.2200
" />
<path d="M121.3269 69.2200
L121.3874 69.2805
" />
<path d="M121.3874 69.2805
L121.4478 69.4014
" />
<path d="M121.4478 69.4014
L121.4478 69.5829
" />
<path d="M121.4478 69.5829
L121.3874 69.7038
" />
<path d="M121.3874 69.7038
L121.3269 69.7643
" />
<path d="M121.3269 69.7643
L121.2059 69.8248
" />
<path d="M121.2059 69.8248
L120.7221 69.8248
" />
<path d="M122.2340 69.1595
L122.4759 69.1595
" />
<path d="M122.4759 69.1595
L122.5969 69.2200
" />
<path d="M122.5969 69.2200
L122.7178 69.3410
" />
<path d="M122.7178 69.3410
L122.7783 69.5829
" />
<path d="M122.7783 69.5829
L122.7783 70.0062
" />
<path d="M122.7783 70.0062
L122.7178 70.2481
" />
<path d="M122.7178 70.2481
L122.5969 70.3691
" />
<path d="M122.5969 70.3691
L122.4759 70.4295
" />
<path d="M122.4759 70.4295
L122.2340 70.4295
" />
<path d="M122.2340 70.4295
L122.1131 70.3691
" />
<path d="M122.1131 70.3691
L121.9921 70.2481
" />
<path d="M121.9921 70.2481
L121.9317 70.0062
" />
<path d="M121.9317 70.0062
L121.9317 69.5829
" />
<path d="M121.9317 69.5829
L121.9921 69.3410
" />
<path d="M121.9921 69.3410
L122.1131 69.2200
" />
<path d="M122.1131 69.2200
L122.2340 69.1595
" />
<path d="M123.3226 70.4295
L123.3226 69.1595
" />
<path d="M123.3226 69.1595
L123.6250 69.1595
" />
<path d="M123.6250 69.1595
L123.8064 69.2200
" />
<path d="M123.8064 69.2200
L123.9274 69.3410
" />
<path d="M123.9274 69.3410
L123.9879 69.4619
" />
<path d="M123.9879 69.4619
L124.0483 69.7038
" />
<path d="M124.0483 69.7038
L124.0483 69.8852
" />
<path d="M124.0483 69.8852
L123.9879 70.1271
" />
<path d="M123.9879 70.1271
L123.9274 70.2481
" />
<path d="M123.9274 70.2481
L123.8064 70.3691
" />
<path d="M123.8064 70.3691
L123.6250 70.4295
" />
<path d="M123.6250 70.4295
L123.3226 70.4295
" />
<path d="M124.5926 69.7643
L125.0160 69.7643
" />
<path d="M125.1974 70.4295
L124.5926 70.4295
" />
<path d="M124.5926 70.4295
L124.5926 69.1595
" />
<path d="M124.5926 69.1595
L125.1974 69.1595
" />
</g><path style="fill:none; 
stroke:#725600; stroke-width:0.1524; stroke-opacity:1; 
stroke-linecap:round; stroke-linejoin:round;fill:none"
d="M 127.0000,69.8500
126.3650,69.2150
125.7300,69.2150
125.7300,70.4850
126.3650,70.4850
Z" /> 
</g>
<g style="fill:none; 
stroke:#725600; stroke-width:0.1524; stroke-opacity:1; 
stroke-linecap:round; stroke-linejoin:round;">
<text x="158.9405" y="85.7250"
textLength="5.1623" font-size="1.6933" lengthAdjust="spacingAndGlyphs"
text-anchor="start" opacity="0" stroke-opacity="0">AGND</text>
<g class="stroked-text"><desc>AGND</desc>
<path d="M159.2826 85.3067
L159.8873 85.3067
" />
<path d="M159.1616 85.6695
L159.5849 84.3995
" />
<path d="M159.5849 84.3995
L160.0083 85.6695
" />
<path d="M161.0969 84.4600
L160.9759 84.3995
" />
<path d="M160.9759 84.3995
L160.7945 84.3995
" />
<path d="M160.7945 84.3995
L160.6131 84.4600
" />
<path d="M160.6131 84.4600
L160.4921 84.5810
" />
<path d="M160.4921 84.5810
L160.4316 84.7019
" />
<path d="M160.4316 84.7019
L160.3712 84.9438
" />
<path d="M160.3712 84.9438
L160.3712 85.1252
" />
<path d="M160.3712 85.1252
L160.4316 85.3671
" />
<path d="M160.4316 85.3671
L160.4921 85.4881
" />
<path d="M160.4921 85.4881
L160.6131 85.6091
" />
<path d="M160.6131 85.6091
L160.7945 85.6695
" />
<path d="M160.7945 85.6695
L160.9154 85.6695
" />
<path d="M160.9154 85.6695
L161.0969 85.6091
" />
<path d="M161.0969 85.6091
L161.1573 85.5486
" />
<path d="M161.1573 85.5486
L161.1573 85.1252
" />
<path d="M161.1573 85.1252
L160.9154 85.1252
" />
<path d="M161.7016 85.6695
L161.7016 84.3995
" />
<path d="M161.7016 84.3995
L162.4273 85.6695
" />
<path d="M162.4273 85.6695
L162.4273 84.3995
" />
<path d="M163.0321 85.6695
L163.0321 84.3995
" />
<path d="M163.0321 84.3995
L163.3345 84.3995
" />
<path d="M163.3345 84.3995
L163.5159 84.4600
" />
<path d="M163.5159 84.4600
L163.6369 84.5810
" />
<path d="M163.6369 84.5810
L163.6974 84.7019
" />
<path d="M163.6974 84.7019
L163.7578 84.9438
" />
<path d="M163.7578 84.9438
L163.7578 85.1252
" />
<path d="M163.7578 85.1252
L163.6974 85.3671
" />
<path d="M163.6974 85.3671
L163.6369 85.4881
" />
<path d="M163.6369 85.4881
L163.5159 85.6091
" />
<path d="M163.5159 85.6091
L163.3345 85.6695
" />
<path d="M163.3345 85.6695
L163.0321 85.6695
" />
</g><path style="fill:none; 
stroke:#725600; stroke-width:0.1524; stroke-opacity:1; 
stroke-linecap:round; stroke-linejoin:round;fill:none"
d="M 157.4800,85.0900
158.1150,85.7250
158.7500,85.7250
158.7500,84.4550
158.1150,84.4550
Z" /> 
</g>
<g style="fill:none; 
stroke:#725600; stroke-width:0.1524; stroke-opacity:1; 
stroke-linecap:round; stroke-linejoin:round;">
<text x="165.2905" y="70.4850"
textLength="3.8318" font-size="1.6933" lengthAdjust="spacingAndGlyphs"
text-anchor="start" opacity="0" stroke-opacity="0">OUT</text>
<g class="stroked-text"><desc>OUT</desc>
<path d="M165.9349 69.1595
L166.1768 69.1595
" />
<path d="M166.1768 69.1595
L166.2978 69.2200
" />
<path d="M166.2978 69.2200
L166.4187 69.3410
" />
<path d="M166.4187 69.3410
L166.4792 69.5829
" />
<path d="M166.4792 69.5829
L166.4792 70.0062
" />
<path d="M166.4792 70.0062
L166.4187 70.2481
" />
<path d="M166.4187 70.2481
L166.2978 70.3691
" />
<path d="M166.2978 70.3691
L166.1768 70.4295
" />
<path d="M166.1768 70.4295
L165.9349 70.4295
" />
<path d="M165.9349 70.4295
L165.8140 70.3691
" />
<path d="M165.8140 70.3691
L165.6930 70.2481
" />
<path d="M165.6930 70.2481
L165.6326 70.0062
" />
<path d="M165.6326 70.0062
L165.6326 69.5829
" />
<path d="M165.6326 69.5829
L165.6930 69.3410
" />
<path d="M165.6930 69.3410
L165.8140 69.2200
" />
<path d="M165.8140 69.2200
L165.9349 69.1595
" />
<path d="M167.0235 69.1595
L167.0235 70.1876
" />
<path d="M167.0235 70.1876
L167.0840 70.3086
" />
<path d="M167.0840 70.3086
L167.1445 70.3691
" />
<path d="M167.1445 70.3691
L167.2654 70.4295
" />
<path d="M167.2654 70.4295
L167.5073 70.4295
" />
<path d="M167.5073 70.4295
L167.6283 70.3691
" />
<path d="M167.6283 70.3691
L167.6888 70.3086
" />
<path d="M167.6888 70.3086
L167.7492 70.1876
" />
<path d="M167.7492 70.1876
L167.7492 69.1595
" />
<path d="M168.1726 69.1595
L168.8983 69.1595
" />
<path d="M168.5355 70.4295
L168.5355 69.1595
" />
</g><path style="fill:none; 
stroke:#725600; stroke-width:0.1524; stroke-opacity:1; 
stroke-linecap:round; stroke-linejoin:round;fill:none"
d="M 163.8300,69.8500
164.4650,70.4850
165.1000,70.4850
165.1000,69.2150
164.4650,69.2150
Z" /> 
</g>
<g style="fill:none; 
stroke:#009600; stroke-width:0.1524; stroke-opacity:1; 
stroke-linecap:round; stroke-linejoin:round;">
<path d="M156.2100 57.1500
L163.8300 57.1500
" />
<path d="M148.5900 80.0100
L157.4800 80.0100
" />
<path d="M163.8300 69.8500
L163.8300 72.3900
" />
<path d="M157.4800 80.0100
L157.4800 85.0900
" />
<path d="M157.4800 80.0100
L163.8300 80.0100
" />
<path d="M133.3500 69.8500
L137.1600 69.8500
" />
<path d="M163.8300 57.1500
L163.8300 69.8500
" />
<path d="M148.5900 69.8500
L152.4000 69.8500
" />
<path d="M160.0200 69.8500
L163.8300 69.8500
" />
<path d="M148.5900 69.8500
L148.5900 72.3900
" />
<path d="M133.3500 57.1500
L133.3500 69.8500
" />
<path d="M144.7800 69.8500
L148.5900 69.8500
" />
<path d="M148.5900 57.1500
L133.3500 57.1500
" />
<path d="M127.0000 69.8500
L133.3500 69.8500
" />
</g>
<g style="fill:#009600; fill-opacity:1.0000; 
stroke:#009600; stroke-width:0.1524; stroke-opacity:1; 
stroke-linecap:round; stroke-linejoin:round;">
<circle cx="133.3500" cy="69.8500" r="0.4572" /> 
<circle cx="148.5900" cy="69.8500" r="0.4572" /> 
<circle cx="163.8300" cy="69.8500" r="0.4572" /> 
<circle cx="157.4800" cy="80.0100" r="0.4572" /> 
</g> 
</svg>
