M48
; DRILL file {KiCad 7.0.9-7.0.9~ubuntu22.04.1} date Sat 30 Dec 2023 14:54:31 GMT
; FORMAT={-:-/ absolute / inch / decimal}
; #@! TF.CreationDate,2023-12-30T14:54:31+00:00
; #@! TF.GenerationSoftware,Kicad,Pcbnew,7.0.9-7.0.9~ubuntu22.04.1
; #@! TF.FileFunction,Plated,1,4,PTH
FMAT,2
INCH
; #@! TA.AperFunction,Plated,PTH,ViaDrill
T1C0.0118
; #@! TA.AperFunction,Plated,PTH,ComponentDrill
T2C0.0256
%
G90
G05
T1
X0.9094Y-1.2283
X0.9232Y-0.9744
X0.9232Y-1.0413
X0.9472Y-1.0079
X0.9705Y-0.9744
X0.9705Y-1.0413
X1.0016Y-1.298
X1.0025Y-1.2347
X1.0055Y-1.348
X1.0118Y-1.4016
X1.0709Y-1.2835
X1.0709Y-1.315
X1.0709Y-1.3425
X1.0709Y-1.378
X1.0728Y-1.0571
X1.0925Y-1.0689
X1.1122Y-1.0571
X1.1319Y-1.0689
X1.1516Y-1.0571
X1.1713Y-1.0689
X1.2047Y-1.3622
X1.2087Y-1.2913
X1.2087Y-1.315
X1.2087Y-1.3386
X1.2283Y-1.0276
X1.2283Y-1.3268
X1.2598Y-1.2421
X1.2598Y-1.311
X1.2697Y-1.0689
X1.2894Y-1.0571
X1.3091Y-1.0689
X1.3287Y-1.313
X1.3287Y-1.3425
X1.3563Y-1.313
X1.3563Y-1.3425
X1.378Y-1.2264
X1.3917Y-0.9744
X1.3917Y-1.0413
X1.3957Y-1.2632
X1.415Y-1.0079
X1.4193Y-1.376
X1.4276Y-1.3988
X1.4287Y-1.2957
X1.439Y-0.9744
X1.439Y-1.0413
X1.4461Y-1.3673
X1.4488Y-1.3894
T2
X0.9561Y-1.1811
X1.0061Y-1.1811
X1.0561Y-1.1811
X1.1561Y-1.1811
X1.1811Y-0.9749
X1.2061Y-1.1811
X1.2402Y-1.487
X1.2561Y-1.1811
X1.2902Y-1.437
X1.2902Y-1.487
X1.3061Y-1.1811
X1.3402Y-1.487
X1.3402Y-1.437
X1.3561Y-1.1811
X1.3902Y-1.437
X1.3902Y-1.487
X1.4061Y-1.1811
X1.4402Y-1.437
X1.4402Y-1.487
T0
M30
