%TF.GenerationSoftware,KiCad,Pcbnew,7.0.9-7.0.9~ubuntu22.04.1*%
%TF.CreationDate,2023-12-31T12:33:58+00:00*%
%TF.ProjectId,COM_MOD,434f4d5f-4d4f-4442-9e6b-696361645f70,1.0*%
%TF.SameCoordinates,Original*%
%TF.FileFunction,Copper,L1,Top*%
%TF.FilePolarity,Positive*%
%FSLAX46Y46*%
G04 Gerber Fmt 4.6, Leading zero omitted, Abs format (unit mm)*
G04 Created by KiCad (PCBNEW 7.0.9-7.0.9~ubuntu22.04.1) date 2023-12-31 12:33:58*
%MOMM*%
%LPD*%
G01*
G04 APERTURE LIST*
G04 Aperture macros list*
%AMRoundRect*
0 Rectangle with rounded corners*
0 $1 Rounding radius*
0 $2 $3 $4 $5 $6 $7 $8 $9 X,Y pos of 4 corners*
0 Add a 4 corners polygon primitive as box body*
4,1,4,$2,$3,$4,$5,$6,$7,$8,$9,$2,$3,0*
0 Add four circle primitives for the rounded corners*
1,1,$1+$1,$2,$3*
1,1,$1+$1,$4,$5*
1,1,$1+$1,$6,$7*
1,1,$1+$1,$8,$9*
0 Add four rect primitives between the rounded corners*
20,1,$1+$1,$2,$3,$4,$5,0*
20,1,$1+$1,$4,$5,$6,$7,0*
20,1,$1+$1,$6,$7,$8,$9,0*
20,1,$1+$1,$8,$9,$2,$3,0*%
G04 Aperture macros list end*
%TA.AperFunction,ComponentPad*%
%ADD10R,1.000000X1.000000*%
%TD*%
%TA.AperFunction,SMDPad,CuDef*%
%ADD11RoundRect,0.050000X-0.050000X0.375000X-0.050000X-0.375000X0.050000X-0.375000X0.050000X0.375000X0*%
%TD*%
%TA.AperFunction,SMDPad,CuDef*%
%ADD12RoundRect,0.050000X-0.375000X0.050000X-0.375000X-0.050000X0.375000X-0.050000X0.375000X0.050000X0*%
%TD*%
%TA.AperFunction,SMDPad,CuDef*%
%ADD13R,1.400000X1.400000*%
%TD*%
%TA.AperFunction,SMDPad,CuDef*%
%ADD14RoundRect,0.140000X0.140000X0.170000X-0.140000X0.170000X-0.140000X-0.170000X0.140000X-0.170000X0*%
%TD*%
%TA.AperFunction,SMDPad,CuDef*%
%ADD15R,0.300000X1.250000*%
%TD*%
%TA.AperFunction,SMDPad,CuDef*%
%ADD16R,2.000000X2.500000*%
%TD*%
%TA.AperFunction,SMDPad,CuDef*%
%ADD17R,1.600000X0.300000*%
%TD*%
%TA.AperFunction,ViaPad*%
%ADD18C,0.400000*%
%TD*%
%TA.AperFunction,Conductor*%
%ADD19C,0.127000*%
%TD*%
G04 APERTURE END LIST*
D10*
%TO.P,J17,1,Pin_1*%
%TO.N,/I2C_SDA*%
X36575000Y-37770000D03*
%TD*%
%TO.P,J5,1,Pin_1*%
%TO.N,/MISO*%
X29365001Y-30000000D03*
%TD*%
D11*
%TO.P,U1,1,RESETB*%
%TO.N,unconnected-(U1-P00-Pad1)*%
X34870000Y-32260000D03*
%TO.P,U1,2,GPIO*%
%TO.N,/LED_IN*%
X34470000Y-32260000D03*
%TO.P,U1,3,GPIO*%
%TO.N,/IO1_in*%
X34070000Y-32260000D03*
%TO.P,U1,4,GND*%
%TO.N,GND*%
X33670000Y-32260000D03*
%TO.P,U1,5,Vcap*%
%TO.N,/Vcap*%
X33270000Y-32260000D03*
D12*
%TO.P,U1,6,AVCC*%
%TO.N,+3.3V*%
X32620000Y-32910000D03*
%TO.P,U1,7,GPIO*%
%TO.N,/addr_mod_3*%
X32620000Y-33310000D03*
%TO.P,U1,8,GPIO*%
%TO.N,/addr_mod_4*%
X32620000Y-33710000D03*
%TO.P,U1,9,SPI_CS*%
%TO.N,/SPICS_ARM*%
X32620000Y-34110000D03*
%TO.P,U1,10,GPIO*%
%TO.N,/GPIO*%
X32620000Y-34510000D03*
D11*
%TO.P,U1,11,AIN0*%
%TO.N,/AIN0*%
X33270000Y-35160000D03*
%TO.P,U1,12,SPI_SCK*%
%TO.N,/SCLK_ARM*%
X33670000Y-35160000D03*
%TO.P,U1,13,SPI_MOSI*%
%TO.N,/MOSI_ARM*%
X34070000Y-35160000D03*
%TO.P,U1,14,SWDIO*%
%TO.N,/SWDIO{slash}MISO_ARM*%
X34470000Y-35160000D03*
%TO.P,U1,15,SWCLK*%
%TO.N,/IO1_out*%
X34870000Y-35160000D03*
D12*
%TO.P,U1,16,GPIO*%
%TO.N,/addr_mod_2*%
X35520000Y-34510000D03*
%TO.P,U1,17,GPIO*%
%TO.N,/addr_mod_1*%
X35520000Y-34110000D03*
%TO.P,U1,18,GPIO*%
%TO.N,/addr_mod_0*%
X35520000Y-33710000D03*
%TO.P,U1,19,I2C_SDA*%
%TO.N,/I2C_SDA*%
X35520000Y-33310000D03*
%TO.P,U1,20,I2C_SCL*%
%TO.N,/i2C_SCL*%
X35520000Y-32910000D03*
D13*
%TO.P,U1,21,GPIO*%
%TO.N,GND*%
X34070000Y-33710000D03*
%TD*%
D10*
%TO.P,J3,1,Pin_1*%
%TO.N,/AUX3*%
X28095001Y-24920000D03*
%TD*%
D14*
%TO.P,C1,1*%
%TO.N,GND*%
X33840000Y-31190000D03*
%TO.P,C1,2*%
%TO.N,/Vcap*%
X32880000Y-31190000D03*
%TD*%
D10*
%TO.P,J19,1,Pin_1*%
%TO.N,/AUX1*%
X24285001Y-30000000D03*
%TD*%
%TO.P,J23,1,Pin_1*%
%TO.N,GND*%
X31495000Y-36500000D03*
%TD*%
%TO.P,J20,1,Pin_1*%
%TO.N,/AUX2*%
X35715001Y-30000000D03*
%TD*%
D15*
%TO.P,J10,1,1*%
%TO.N,/extRef*%
X34250001Y-28175000D03*
%TO.P,J10,2,2*%
%TO.N,/AUX2*%
X33750001Y-28175000D03*
%TO.P,J10,3,3*%
%TO.N,/i2C_SCL*%
X33250001Y-28175000D03*
%TO.P,J10,4,4*%
%TO.N,/I2C_SDA*%
X32750001Y-28175000D03*
%TO.P,J10,5,5*%
%TO.N,/IO2*%
X32250001Y-28175000D03*
%TO.P,J10,6,6*%
%TO.N,/IO1_out*%
X31750001Y-28175000D03*
%TO.P,J10,7,7*%
%TO.N,/SCLK*%
X31250001Y-28175000D03*
%TO.P,J10,8,8*%
%TO.N,/MOSI*%
X30750001Y-28175000D03*
%TO.P,J10,9,9*%
%TO.N,/MISO*%
X30250001Y-28175000D03*
%TO.P,J10,10,10*%
%TO.N,/addr_bus_4*%
X29750001Y-28175000D03*
%TO.P,J10,11,11*%
%TO.N,/addr_bus_3*%
X29250001Y-28175000D03*
%TO.P,J10,12,12*%
%TO.N,/addr_bus_2*%
X28750001Y-28175000D03*
%TO.P,J10,13,13*%
%TO.N,/addr_bus_1*%
X28250001Y-28175000D03*
%TO.P,J10,14,14*%
%TO.N,/addr_bus_0*%
X27750001Y-28175000D03*
%TO.P,J10,15,15*%
%TO.N,/AUX3*%
X27250001Y-28175000D03*
%TO.P,J10,16,16*%
%TO.N,GND*%
X26750001Y-28175000D03*
%TO.P,J10,17,17*%
%TO.N,+3.3V*%
X26250001Y-28175000D03*
%TO.P,J10,18,18*%
%TO.N,/AUX1*%
X25750001Y-28175000D03*
D16*
%TO.P,J10,19,sh1*%
%TO.N,GND*%
X35940001Y-25600000D03*
%TO.P,J10,20,sh2*%
X24060001Y-25600000D03*
%TD*%
D10*
%TO.P,J2,1,Pin_1*%
%TO.N,GND*%
X26825001Y-30000000D03*
%TD*%
%TO.P,J12,1,Pin_1*%
%TO.N,/SWDIO{slash}MISO_ARM*%
X35305000Y-36500000D03*
%TD*%
%TO.P,J8,1,Pin_1*%
%TO.N,/CSB*%
X33175001Y-30000000D03*
%TD*%
%TO.P,J1,1,Pin_1*%
%TO.N,+3.3V*%
X25555001Y-30000000D03*
%TD*%
D17*
%TO.P,U2,1,G*%
%TO.N,GND*%
X23700001Y-32325000D03*
%TO.P,U2,2,P0*%
%TO.N,/addr_mod_0*%
X23700001Y-32975000D03*
%TO.P,U2,3,R0*%
%TO.N,/addr_bus_0*%
X23700001Y-33625000D03*
%TO.P,U2,4,P1*%
%TO.N,/addr_mod_1*%
X23700001Y-34275000D03*
%TO.P,U2,5,R1*%
%TO.N,/addr_bus_1*%
X23700001Y-34925000D03*
%TO.P,U2,6,P2*%
%TO.N,/addr_mod_2*%
X23700001Y-35575000D03*
%TO.P,U2,7,R2*%
%TO.N,/addr_bus_2*%
X23700001Y-36225000D03*
%TO.P,U2,8,P3*%
%TO.N,/addr_mod_3*%
X23700001Y-36875000D03*
%TO.P,U2,9,R3*%
%TO.N,/addr_bus_3*%
X23700001Y-37525000D03*
%TO.P,U2,10,GND*%
%TO.N,GND*%
X23700001Y-38175000D03*
%TO.P,U2,11,P4*%
X29300001Y-38175000D03*
%TO.P,U2,12,R4*%
X29300001Y-37525000D03*
%TO.P,U2,13,P5*%
X29300001Y-36875000D03*
%TO.P,U2,14,R5*%
X29300001Y-36225000D03*
%TO.P,U2,15,P6*%
%TO.N,/addr_mod_4*%
X29300001Y-35575000D03*
%TO.P,U2,16,R6*%
%TO.N,/addr_bus_4*%
X29300001Y-34925000D03*
%TO.P,U2,17,P7*%
%TO.N,GND*%
X29300001Y-34275000D03*
%TO.P,U2,18,R7*%
X29300001Y-33625000D03*
%TO.P,U2,19,P=R*%
%TO.N,/CSB*%
X29300001Y-32975000D03*
%TO.P,U2,20,VCC*%
%TO.N,+3.3V*%
X29300001Y-32325000D03*
%TD*%
D10*
%TO.P,J15,1,Pin_1*%
%TO.N,/SPICS_ARM*%
X34035000Y-37770000D03*
%TD*%
%TO.P,J14,1,Pin_1*%
%TO.N,/SCLK_ARM*%
X32765000Y-36500000D03*
%TD*%
%TO.P,J18,1,Pin_1*%
%TO.N,/AIN0*%
X31495000Y-37770000D03*
%TD*%
%TO.P,J13,1,Pin_1*%
%TO.N,/MOSI_ARM*%
X34035001Y-36500000D03*
%TD*%
%TO.P,J7,1,Pin_1*%
%TO.N,/SCLK*%
X31905001Y-30000000D03*
%TD*%
%TO.P,J21,1,Pin_1*%
%TO.N,/GPIO*%
X32765000Y-37770000D03*
%TD*%
%TO.P,J16,1,Pin_1*%
%TO.N,/i2C_SCL*%
X35305000Y-37770000D03*
%TD*%
%TO.P,J11,1,Pin_1*%
%TO.N,/IO1_out*%
X36575000Y-36500000D03*
%TD*%
%TO.P,J6,1,Pin_1*%
%TO.N,/MOSI*%
X30635001Y-30000000D03*
%TD*%
%TO.P,J9,1,Pin_1*%
%TO.N,/extRef*%
X34445001Y-30000000D03*
%TD*%
D18*
%TO.N,GND*%
X30700000Y-34000000D03*
X31200000Y-33700000D03*
X23100000Y-31200000D03*
X27200000Y-33400000D03*
X25300000Y-38200000D03*
X33750000Y-33350000D03*
X35350000Y-24750000D03*
X36550000Y-26450000D03*
X29250000Y-34250000D03*
X27200000Y-32600000D03*
X30000000Y-33750000D03*
X30700000Y-33400000D03*
X35350000Y-26450000D03*
X25462500Y-31362500D03*
X30700000Y-32800000D03*
X27200000Y-34100000D03*
X34450000Y-34100000D03*
X34450000Y-33350000D03*
X24650000Y-26450000D03*
X35940001Y-25600000D03*
X23450000Y-26450000D03*
X36550000Y-24750000D03*
X33750000Y-34100000D03*
X24650000Y-24750000D03*
X24060001Y-25600000D03*
X27600000Y-38400000D03*
X23450000Y-24750000D03*
%TO.N,/addr_bus_0*%
X27750000Y-27150000D03*
%TO.N,/addr_bus_1*%
X28250000Y-26850000D03*
%TO.N,/addr_bus_2*%
X28750000Y-27150000D03*
%TO.N,/addr_bus_3*%
X29250000Y-26850000D03*
%TO.N,/addr_bus_4*%
X29750000Y-27150000D03*
%TO.N,/i2C_SCL*%
X33250000Y-27150000D03*
X36290000Y-32910000D03*
%TO.N,/I2C_SDA*%
X32750000Y-26850000D03*
%TO.N,/IO1_in*%
X35000000Y-31150000D03*
%TO.N,/IO2*%
X32250000Y-27150000D03*
%TO.N,/AUX3*%
X27250000Y-26200000D03*
%TO.N,/LED_IN*%
X35450001Y-32085000D03*
%TO.N,+3.3V*%
X32000000Y-31550000D03*
%TO.N,/addr_mod_0*%
X25440000Y-32970000D03*
X36730000Y-34730000D03*
%TO.N,/addr_mod_1*%
X25540000Y-34240000D03*
X36050000Y-34950000D03*
%TO.N,/addr_mod_2*%
X25700000Y-35600000D03*
X36260000Y-35530000D03*
%TO.N,/addr_mod_3*%
X27200000Y-35000000D03*
X32000000Y-33300000D03*
%TO.N,/IO1_out*%
X36800000Y-35290000D03*
X31200000Y-26100000D03*
%TD*%
D19*
%TO.N,GND*%
X26750001Y-28175000D02*
X26750001Y-29925000D01*
X26750001Y-29925000D02*
X26825001Y-30000000D01*
%TO.N,+3.3V*%
X26250001Y-28175000D02*
X26250001Y-28715000D01*
X26250001Y-28715000D02*
X25555001Y-29410000D01*
X25555001Y-29410000D02*
X25555001Y-30000000D01*
%TO.N,/AUX3*%
X27250000Y-26200000D02*
X27250000Y-25765001D01*
X27250001Y-26200001D02*
X27250000Y-26200000D01*
X27250000Y-25765001D02*
X28095001Y-24920000D01*
X27250001Y-28175000D02*
X27250001Y-26200001D01*
%TO.N,GND*%
X28840001Y-36225000D02*
X29300001Y-36225000D01*
X23700001Y-32325000D02*
X23700001Y-31800001D01*
X23725001Y-38200000D02*
X23700001Y-38175000D01*
X29300001Y-33625000D02*
X29250000Y-34250000D01*
X29300001Y-38175000D02*
X29300001Y-36225000D01*
X27825000Y-38175000D02*
X29300001Y-38175000D01*
X25462500Y-31362500D02*
X26825001Y-30000000D01*
X22746501Y-32628500D02*
X23050001Y-32325000D01*
X33670000Y-31360000D02*
X33670000Y-32260000D01*
X23093001Y-38175000D02*
X22746501Y-37828500D01*
X25300000Y-38200000D02*
X23725001Y-38200000D01*
X29300001Y-38175000D02*
X29950001Y-38175000D01*
X33840000Y-31190000D02*
X33670000Y-31360000D01*
X33710000Y-33350000D02*
X33750000Y-33350000D01*
X33750000Y-33390000D02*
X34070000Y-33710000D01*
X29250000Y-34250000D02*
X29300001Y-34275000D01*
X24500001Y-32325000D02*
X25462500Y-31362500D01*
X23050001Y-32325000D02*
X23700001Y-32325000D01*
X23700001Y-32325000D02*
X24500001Y-32325000D01*
X27600000Y-38400000D02*
X27825000Y-38175000D01*
X23700001Y-38175000D02*
X23093001Y-38175000D01*
X33750000Y-33350000D02*
X33750000Y-33390000D01*
X23700001Y-31800001D02*
X23100000Y-31200000D01*
X33670000Y-32260000D02*
X33670000Y-33310000D01*
X22746501Y-37828500D02*
X22746501Y-32628500D01*
X33670000Y-33310000D02*
X33710000Y-33350000D01*
%TO.N,/Vcap*%
X32880000Y-31190000D02*
X32880000Y-31870000D01*
X32880000Y-31870000D02*
X33270000Y-32260000D01*
%TO.N,/MISO*%
X30250001Y-28175000D02*
X30250001Y-29000000D01*
X29365001Y-29885000D02*
X29365001Y-30000000D01*
X30250001Y-29000000D02*
X29365001Y-29885000D01*
%TO.N,/MOSI*%
X30750001Y-29885000D02*
X30635001Y-30000000D01*
X30750001Y-28175000D02*
X30750001Y-29885000D01*
%TO.N,/SCLK*%
X31250001Y-28175000D02*
X31250001Y-28997501D01*
X31905001Y-29652501D02*
X31905001Y-30000000D01*
X31250001Y-28997501D02*
X31905001Y-29652501D01*
%TO.N,/CSB*%
X28200000Y-32481999D02*
X28693001Y-32975000D01*
X32275001Y-30900000D02*
X29468001Y-30900000D01*
X33175001Y-30000000D02*
X32275001Y-30900000D01*
X29468001Y-30900000D02*
X28200000Y-32168001D01*
X28693001Y-32975000D02*
X29300001Y-32975000D01*
X28200000Y-32168001D02*
X28200000Y-32481999D01*
%TO.N,/extRef*%
X34250001Y-29805000D02*
X34445001Y-30000000D01*
X34250001Y-28175000D02*
X34250001Y-29805000D01*
%TO.N,/addr_bus_0*%
X25875000Y-33625000D02*
X23700001Y-33625000D01*
X27650000Y-30700000D02*
X26182000Y-32168000D01*
X27650000Y-28275001D02*
X27650000Y-30700000D01*
X27750001Y-28175000D02*
X27650000Y-28275001D01*
X27750000Y-27150000D02*
X27750001Y-28175000D01*
X26182000Y-33318000D02*
X25875000Y-33625000D01*
X26182000Y-32168000D02*
X26182000Y-33318000D01*
%TO.N,/addr_bus_1*%
X27867000Y-30789884D02*
X26399000Y-32257884D01*
X27867000Y-29053501D02*
X27867000Y-30789884D01*
X26399000Y-32257884D02*
X26399000Y-34301000D01*
X28250001Y-28175000D02*
X28250001Y-28670500D01*
X28250000Y-26850000D02*
X28250001Y-28175000D01*
X26399000Y-34301000D02*
X25775000Y-34925000D01*
X28250001Y-28670500D02*
X27867000Y-29053501D01*
X25775000Y-34925000D02*
X23700001Y-34925000D01*
%TO.N,/addr_bus_2*%
X26616000Y-35384000D02*
X25775000Y-36225000D01*
X26616000Y-32347768D02*
X26616000Y-35384000D01*
X28750001Y-28699999D02*
X28084000Y-29366000D01*
X28084000Y-30879768D02*
X26616000Y-32347768D01*
X28750001Y-28175000D02*
X28750001Y-28699999D01*
X25775000Y-36225000D02*
X23700001Y-36225000D01*
X28084000Y-29366000D02*
X28084000Y-30879768D01*
X28750000Y-27150000D02*
X28750001Y-28175000D01*
%TO.N,/addr_bus_3*%
X27683000Y-31587652D02*
X27683000Y-35967000D01*
X28301000Y-30969652D02*
X27683000Y-31587652D01*
X29250001Y-28175000D02*
X29250001Y-28757000D01*
X29250001Y-28757000D02*
X29053501Y-28953500D01*
X29250000Y-26850000D02*
X29250001Y-28175000D01*
X29053501Y-28953500D02*
X28803384Y-28953500D01*
X28803384Y-28953500D02*
X28301000Y-29455884D01*
X26125000Y-37525000D02*
X23700001Y-37525000D01*
X27683000Y-35967000D02*
X26125000Y-37525000D01*
X28301000Y-29455884D02*
X28301000Y-30969652D01*
%TO.N,/addr_bus_4*%
X29750001Y-28927000D02*
X29506501Y-29170500D01*
X29750000Y-27150000D02*
X29750001Y-28175000D01*
X27900000Y-31677536D02*
X27900000Y-34824999D01*
X29506501Y-29170500D02*
X28893268Y-29170500D01*
X28518000Y-29545768D02*
X28518000Y-31059536D01*
X28000001Y-34925000D02*
X29300001Y-34925000D01*
X29750001Y-28175000D02*
X29750001Y-28927000D01*
X28518000Y-31059536D02*
X27900000Y-31677536D01*
X28893268Y-29170500D02*
X28518000Y-29545768D01*
X27900000Y-34824999D02*
X28000001Y-34925000D01*
%TO.N,/i2C_SCL*%
X33400000Y-27000000D02*
X34506884Y-27000000D01*
X36290000Y-32910000D02*
X35520000Y-32910000D01*
X33250001Y-28175000D02*
X33250000Y-27150000D01*
X33250000Y-27150000D02*
X33400000Y-27000000D01*
X36550000Y-31880000D02*
X35520000Y-32910000D01*
X34506884Y-27000000D02*
X36550000Y-29043116D01*
X36550000Y-29043116D02*
X36550000Y-31880000D01*
%TO.N,/I2C_SDA*%
X36367500Y-33732500D02*
X35945000Y-33310000D01*
X32750000Y-26850000D02*
X33050000Y-26550000D01*
X33050000Y-26550000D02*
X34363768Y-26550000D01*
X37233500Y-37116500D02*
X37233500Y-34598500D01*
X36767000Y-28953232D02*
X36767000Y-33333000D01*
X32750001Y-28175000D02*
X32750000Y-26850000D01*
X37233500Y-34598500D02*
X36367500Y-33732500D01*
X36767000Y-33333000D02*
X36367500Y-33732500D01*
X34363768Y-26550000D02*
X36767000Y-28953232D01*
X35945000Y-33310000D02*
X35520000Y-33310000D01*
X36580000Y-37770000D02*
X37233500Y-37116500D01*
%TO.N,/IO1_in*%
X35000000Y-31150000D02*
X34755000Y-31150000D01*
X34070000Y-31835000D02*
X34070000Y-32260000D01*
X34755000Y-31150000D02*
X34070000Y-31835000D01*
%TO.N,/IO2*%
X32250000Y-27150000D02*
X32250001Y-28175000D01*
%TO.N,/AUX1*%
X25750001Y-28175000D02*
X25750001Y-28535000D01*
X25750001Y-28535000D02*
X24285001Y-30000000D01*
%TO.N,/AUX2*%
X33750001Y-28175000D02*
X33750001Y-27423000D01*
X33750001Y-27423000D02*
X33776501Y-27396500D01*
X33776501Y-27396500D02*
X34596500Y-27396500D01*
X34596500Y-27396500D02*
X35715001Y-28515001D01*
X35715001Y-28515001D02*
X35715001Y-30000000D01*
%TO.N,/SWDIO{slash}MISO_ARM*%
X34470000Y-35660000D02*
X35310000Y-36500000D01*
X34470000Y-35160000D02*
X34470000Y-35660000D01*
%TO.N,/MOSI_ARM*%
X34070000Y-36470001D02*
X34040001Y-36500000D01*
X34070000Y-35160000D02*
X34070000Y-36470001D01*
%TO.N,/SCLK_ARM*%
X33670000Y-35600000D02*
X32770000Y-36500000D01*
X33670000Y-35160000D02*
X33670000Y-35600000D01*
%TO.N,/SPICS_ARM*%
X31696884Y-34110000D02*
X30300000Y-35506884D01*
X30770116Y-38640500D02*
X33169500Y-38640500D01*
X33169500Y-38640500D02*
X34040000Y-37770000D01*
X32620000Y-34110000D02*
X31696884Y-34110000D01*
X30300000Y-38170384D02*
X30770116Y-38640500D01*
X30300000Y-35506884D02*
X30300000Y-38170384D01*
%TO.N,/AIN0*%
X31260652Y-35160000D02*
X30734000Y-35686652D01*
X30734000Y-37334000D02*
X31170000Y-37770000D01*
X33270000Y-35160000D02*
X31260652Y-35160000D01*
X30734000Y-35686652D02*
X30734000Y-37334000D01*
X31170000Y-37770000D02*
X31500000Y-37770000D01*
%TO.N,/LED_IN*%
X34470000Y-31945820D02*
X34470000Y-32260000D01*
X34734320Y-31681500D02*
X34470000Y-31945820D01*
X35046501Y-31681500D02*
X34734320Y-31681500D01*
X35450001Y-32085000D02*
X35046501Y-31681500D01*
%TO.N,+3.3V*%
X29300001Y-32325000D02*
X32035000Y-32325000D01*
X32620000Y-32910000D02*
X32055000Y-32345000D01*
X32035000Y-32325000D02*
X32055000Y-32345000D01*
X32000000Y-32290000D02*
X32000000Y-31550000D01*
X32055000Y-32345000D02*
X32000000Y-32290000D01*
%TO.N,/addr_mod_0*%
X36730000Y-34730000D02*
X36730000Y-34495000D01*
X25440000Y-32970000D02*
X25435000Y-32975000D01*
X25435000Y-32975000D02*
X23700001Y-32975000D01*
X36730000Y-34495000D02*
X35945000Y-33710000D01*
X35945000Y-33710000D02*
X35520000Y-33710000D01*
%TO.N,/addr_mod_1*%
X36050000Y-34885222D02*
X36140000Y-34795222D01*
X25505000Y-34275000D02*
X23700001Y-34275000D01*
X36050000Y-34950000D02*
X36050000Y-34885222D01*
X36140000Y-34795222D02*
X36140000Y-34305000D01*
X35945000Y-34110000D02*
X35520000Y-34110000D01*
X36140000Y-34305000D02*
X35945000Y-34110000D01*
X25540000Y-34240000D02*
X25505000Y-34275000D01*
%TO.N,/addr_mod_2*%
X25675000Y-35575000D02*
X23700001Y-35575000D01*
X35916884Y-35530000D02*
X35520000Y-35133116D01*
X25700000Y-35600000D02*
X25675000Y-35575000D01*
X36260000Y-35530000D02*
X35916884Y-35530000D01*
X35520000Y-35133116D02*
X35520000Y-34510000D01*
%TO.N,/addr_mod_4*%
X32616500Y-33713500D02*
X32620000Y-33710000D01*
X29300001Y-35575000D02*
X29925000Y-35575000D01*
X29925000Y-35575000D02*
X31786500Y-33713500D01*
X31786500Y-33713500D02*
X32616500Y-33713500D01*
%TO.N,/addr_mod_3*%
X27200000Y-35000000D02*
X27200000Y-35600000D01*
X32185000Y-33300000D02*
X32195000Y-33310000D01*
X32000000Y-33300000D02*
X32185000Y-33300000D01*
X27200000Y-35600000D02*
X25925000Y-36875000D01*
X25925000Y-36875000D02*
X23700001Y-36875000D01*
X32195000Y-33310000D02*
X32620000Y-33310000D01*
%TO.N,/IO1_out*%
X31750001Y-27550001D02*
X31300000Y-27100000D01*
X36800000Y-36280000D02*
X36800000Y-35290000D01*
X34870000Y-35160000D02*
X35240000Y-35160000D01*
X31300000Y-27100000D02*
X31300000Y-26200000D01*
X31750001Y-28175000D02*
X31750001Y-27550001D01*
X31300000Y-26200000D02*
X31200000Y-26100000D01*
X35240000Y-35160000D02*
X36580000Y-36500000D01*
X36580000Y-36500000D02*
X36800000Y-36280000D01*
%TO.N,/GPIO*%
X30517000Y-38080500D02*
X30860000Y-38423500D01*
X32620000Y-34510000D02*
X31603768Y-34510000D01*
X32116500Y-38423500D02*
X32770000Y-37770000D01*
X31603768Y-34510000D02*
X30517000Y-35596768D01*
X30860000Y-38423500D02*
X32116500Y-38423500D01*
X30517000Y-35596768D02*
X30517000Y-38080500D01*
%TD*%
%TA.AperFunction,Conductor*%
%TO.N,GND*%
G36*
X27939729Y-36030574D02*
G01*
X27984076Y-36059075D01*
X28000001Y-36075000D01*
X29326001Y-36075000D01*
X29393040Y-36094685D01*
X29438795Y-36147489D01*
X29450001Y-36199000D01*
X29450001Y-38825000D01*
X30147829Y-38825000D01*
X30147845Y-38824999D01*
X30207373Y-38818598D01*
X30207380Y-38818596D01*
X30342087Y-38768354D01*
X30342094Y-38768350D01*
X30449424Y-38688003D01*
X30514888Y-38663585D01*
X30583161Y-38678436D01*
X30611416Y-38699588D01*
X30624972Y-38713144D01*
X30624975Y-38713148D01*
X30632043Y-38720216D01*
X30690400Y-38778573D01*
X30694904Y-38779779D01*
X30724812Y-38792168D01*
X30728851Y-38794500D01*
X33210764Y-38794500D01*
X33210765Y-38794500D01*
X33214804Y-38792167D01*
X33244708Y-38779780D01*
X33249216Y-38778573D01*
X33307573Y-38720217D01*
X33307573Y-38720216D01*
X33325011Y-38702778D01*
X33325013Y-38702774D01*
X33630970Y-38396818D01*
X33692293Y-38363333D01*
X33718651Y-38360499D01*
X34543909Y-38360499D01*
X34543912Y-38360499D01*
X34570311Y-38355249D01*
X34600247Y-38335247D01*
X34600247Y-38335246D01*
X34601110Y-38334670D01*
X34667787Y-38313793D01*
X34735167Y-38332278D01*
X34738890Y-38334670D01*
X34739752Y-38335246D01*
X34739753Y-38335247D01*
X34769689Y-38355249D01*
X34796087Y-38360500D01*
X35813912Y-38360499D01*
X35840311Y-38355249D01*
X35870247Y-38335247D01*
X35870247Y-38335246D01*
X35871110Y-38334670D01*
X35937787Y-38313793D01*
X36005167Y-38332278D01*
X36008890Y-38334670D01*
X36009752Y-38335246D01*
X36009753Y-38335247D01*
X36039689Y-38355249D01*
X36066087Y-38360500D01*
X37083912Y-38360499D01*
X37110311Y-38355249D01*
X37140247Y-38335247D01*
X37160249Y-38305311D01*
X37165500Y-38278913D01*
X37165499Y-37453650D01*
X37185183Y-37386612D01*
X37201818Y-37365970D01*
X37258037Y-37309751D01*
X37277820Y-37289968D01*
X37339142Y-37256484D01*
X37408834Y-37261468D01*
X37464767Y-37303340D01*
X37489184Y-37368804D01*
X37489500Y-37377650D01*
X37489500Y-39246951D01*
X37489201Y-39253032D01*
X37476488Y-39382113D01*
X37471745Y-39405955D01*
X37436752Y-39521310D01*
X37427450Y-39543767D01*
X37370629Y-39650071D01*
X37357124Y-39670283D01*
X37280652Y-39763464D01*
X37263464Y-39780652D01*
X37170283Y-39857124D01*
X37150071Y-39870629D01*
X37043767Y-39927450D01*
X37021310Y-39936752D01*
X36905955Y-39971745D01*
X36882113Y-39976488D01*
X36753033Y-39989201D01*
X36746952Y-39989500D01*
X32610585Y-39989500D01*
X32543546Y-39969815D01*
X32497791Y-39917011D01*
X32492654Y-39903818D01*
X32485000Y-39880261D01*
X32456271Y-39840719D01*
X32436497Y-39813502D01*
X32369739Y-39765000D01*
X32291260Y-39739500D01*
X32291259Y-39739500D01*
X32252088Y-39739500D01*
X27753412Y-39739500D01*
X27750000Y-39739500D01*
X27708741Y-39739500D01*
X27708739Y-39739500D01*
X27630260Y-39765000D01*
X27563502Y-39813502D01*
X27515000Y-39880260D01*
X27507346Y-39903818D01*
X27467909Y-39961493D01*
X27403550Y-39988692D01*
X27389415Y-39989500D01*
X23253048Y-39989500D01*
X23246967Y-39989201D01*
X23117886Y-39976488D01*
X23094044Y-39971745D01*
X22978689Y-39936752D01*
X22956232Y-39927450D01*
X22849928Y-39870629D01*
X22829716Y-39857124D01*
X22736535Y-39780652D01*
X22719347Y-39763464D01*
X22642875Y-39670283D01*
X22629370Y-39650071D01*
X22572549Y-39543767D01*
X22563247Y-39521310D01*
X22528254Y-39405955D01*
X22523512Y-39382118D01*
X22510800Y-39253041D01*
X22510501Y-39246961D01*
X22510501Y-38891965D01*
X22530186Y-38824926D01*
X22582990Y-38779171D01*
X22652148Y-38769227D01*
X22677835Y-38775783D01*
X22792624Y-38818597D01*
X22792628Y-38818598D01*
X22852156Y-38824999D01*
X22852173Y-38825000D01*
X23550001Y-38825000D01*
X23550001Y-38325000D01*
X23850001Y-38325000D01*
X23850001Y-38825000D01*
X24547829Y-38825000D01*
X24547845Y-38824999D01*
X24607373Y-38818598D01*
X24607380Y-38818596D01*
X24742087Y-38768354D01*
X24742094Y-38768350D01*
X24857188Y-38682190D01*
X24857191Y-38682187D01*
X24943351Y-38567093D01*
X24943355Y-38567086D01*
X24993597Y-38432379D01*
X24993599Y-38432372D01*
X25000000Y-38372844D01*
X25000001Y-38372827D01*
X25000001Y-38325000D01*
X28000001Y-38325000D01*
X28000001Y-38372844D01*
X28006402Y-38432372D01*
X28006404Y-38432379D01*
X28056646Y-38567086D01*
X28056650Y-38567093D01*
X28142810Y-38682187D01*
X28142813Y-38682190D01*
X28257907Y-38768350D01*
X28257914Y-38768354D01*
X28392621Y-38818596D01*
X28392628Y-38818598D01*
X28452156Y-38824999D01*
X28452173Y-38825000D01*
X29150001Y-38825000D01*
X29150001Y-38325000D01*
X28000001Y-38325000D01*
X25000001Y-38325000D01*
X23850001Y-38325000D01*
X23550001Y-38325000D01*
X23550001Y-38149000D01*
X23569686Y-38081961D01*
X23622490Y-38036206D01*
X23674001Y-38025000D01*
X25000001Y-38025000D01*
X25000001Y-37977172D01*
X25000000Y-37977155D01*
X24993599Y-37917627D01*
X24993598Y-37917623D01*
X24967009Y-37846334D01*
X24962025Y-37776642D01*
X24995510Y-37715319D01*
X25056833Y-37681834D01*
X25083191Y-37679000D01*
X26166264Y-37679000D01*
X26166265Y-37679000D01*
X26170304Y-37676667D01*
X26174328Y-37675000D01*
X28000001Y-37675000D01*
X28000001Y-37722844D01*
X28006402Y-37782372D01*
X28006404Y-37782379D01*
X28015463Y-37806669D01*
X28020446Y-37876361D01*
X28015463Y-37893331D01*
X28006404Y-37917620D01*
X28006402Y-37917627D01*
X28000001Y-37977155D01*
X28000001Y-38025000D01*
X29150001Y-38025000D01*
X29150001Y-37675000D01*
X28000001Y-37675000D01*
X26174328Y-37675000D01*
X26200208Y-37664280D01*
X26204716Y-37663073D01*
X26263073Y-37604717D01*
X26263073Y-37604716D01*
X26280511Y-37587278D01*
X26280513Y-37587274D01*
X26842788Y-37025000D01*
X28000001Y-37025000D01*
X28000001Y-37072844D01*
X28006402Y-37132372D01*
X28006404Y-37132379D01*
X28015463Y-37156669D01*
X28020446Y-37226361D01*
X28015463Y-37243331D01*
X28006404Y-37267620D01*
X28006402Y-37267627D01*
X28000001Y-37327155D01*
X28000001Y-37375000D01*
X29150001Y-37375000D01*
X29150001Y-37025000D01*
X28000001Y-37025000D01*
X26842788Y-37025000D01*
X27492789Y-36375000D01*
X28000001Y-36375000D01*
X28000001Y-36422844D01*
X28006402Y-36482372D01*
X28006404Y-36482379D01*
X28015463Y-36506669D01*
X28020446Y-36576361D01*
X28015463Y-36593331D01*
X28006404Y-36617620D01*
X28006402Y-36617627D01*
X28000001Y-36677155D01*
X28000001Y-36725000D01*
X29150001Y-36725000D01*
X29150001Y-36375000D01*
X28000001Y-36375000D01*
X27492789Y-36375000D01*
X27806232Y-36061557D01*
X27808714Y-36059075D01*
X27870037Y-36025590D01*
X27939729Y-36030574D01*
G37*
%TD.AperFunction*%
%TA.AperFunction,Conductor*%
G36*
X22677835Y-32925783D02*
G01*
X22728835Y-32944805D01*
X22784768Y-32986677D01*
X22809185Y-33052141D01*
X22809501Y-33060985D01*
X22809501Y-33133908D01*
X22814752Y-33160312D01*
X22814753Y-33160314D01*
X22834752Y-33190245D01*
X22834753Y-33190245D01*
X22834754Y-33190247D01*
X22844703Y-33196895D01*
X22889510Y-33250505D01*
X22898220Y-33319829D01*
X22868068Y-33382858D01*
X22844710Y-33403099D01*
X22834754Y-33409751D01*
X22834753Y-33409752D01*
X22814751Y-33439688D01*
X22809501Y-33466084D01*
X22809501Y-33783908D01*
X22814752Y-33810312D01*
X22814753Y-33810314D01*
X22834752Y-33840245D01*
X22834753Y-33840245D01*
X22834754Y-33840247D01*
X22844703Y-33846895D01*
X22889510Y-33900505D01*
X22898220Y-33969829D01*
X22868068Y-34032858D01*
X22844710Y-34053099D01*
X22834754Y-34059751D01*
X22834753Y-34059752D01*
X22814751Y-34089688D01*
X22809501Y-34116084D01*
X22809501Y-34433908D01*
X22814752Y-34460312D01*
X22814753Y-34460314D01*
X22834752Y-34490245D01*
X22834753Y-34490245D01*
X22834754Y-34490247D01*
X22844703Y-34496895D01*
X22889510Y-34550505D01*
X22898220Y-34619829D01*
X22868068Y-34682858D01*
X22844710Y-34703099D01*
X22834754Y-34709751D01*
X22834753Y-34709752D01*
X22814751Y-34739688D01*
X22809501Y-34766084D01*
X22809501Y-35083908D01*
X22814752Y-35110312D01*
X22814753Y-35110314D01*
X22834752Y-35140245D01*
X22834753Y-35140245D01*
X22834754Y-35140247D01*
X22844703Y-35146895D01*
X22889510Y-35200505D01*
X22898220Y-35269829D01*
X22868068Y-35332858D01*
X22844710Y-35353099D01*
X22834754Y-35359751D01*
X22834753Y-35359752D01*
X22814751Y-35389688D01*
X22809501Y-35416084D01*
X22809501Y-35733908D01*
X22814752Y-35760312D01*
X22814753Y-35760314D01*
X22834752Y-35790245D01*
X22834753Y-35790245D01*
X22834754Y-35790247D01*
X22844703Y-35796895D01*
X22889510Y-35850505D01*
X22898220Y-35919829D01*
X22868068Y-35982858D01*
X22844710Y-36003099D01*
X22834754Y-36009751D01*
X22834753Y-36009752D01*
X22814751Y-36039688D01*
X22809501Y-36066084D01*
X22809501Y-36383908D01*
X22814752Y-36410312D01*
X22814753Y-36410314D01*
X22834752Y-36440245D01*
X22834753Y-36440245D01*
X22834754Y-36440247D01*
X22844703Y-36446895D01*
X22889510Y-36500505D01*
X22898220Y-36569829D01*
X22868068Y-36632858D01*
X22844710Y-36653099D01*
X22834754Y-36659751D01*
X22834753Y-36659752D01*
X22814751Y-36689688D01*
X22809501Y-36716084D01*
X22809501Y-37033908D01*
X22814752Y-37060312D01*
X22814753Y-37060314D01*
X22834752Y-37090245D01*
X22834753Y-37090245D01*
X22834754Y-37090247D01*
X22844703Y-37096895D01*
X22889510Y-37150505D01*
X22898220Y-37219829D01*
X22868068Y-37282858D01*
X22844710Y-37303099D01*
X22834754Y-37309751D01*
X22834753Y-37309752D01*
X22814751Y-37339688D01*
X22809501Y-37366084D01*
X22809501Y-37439012D01*
X22789816Y-37506051D01*
X22737012Y-37551806D01*
X22728835Y-37555194D01*
X22677835Y-37574216D01*
X22608143Y-37579200D01*
X22546820Y-37545715D01*
X22513335Y-37484392D01*
X22510501Y-37458034D01*
X22510501Y-33041965D01*
X22530186Y-32974926D01*
X22582990Y-32929171D01*
X22652148Y-32919227D01*
X22677835Y-32925783D01*
G37*
%TD.AperFunction*%
%TA.AperFunction,Conductor*%
G36*
X27448334Y-31835737D02*
G01*
X27504267Y-31877609D01*
X27528684Y-31943073D01*
X27529000Y-31951919D01*
X27529000Y-34571909D01*
X27509315Y-34638948D01*
X27456511Y-34684703D01*
X27387353Y-34694647D01*
X27348707Y-34682395D01*
X27345655Y-34680840D01*
X27309661Y-34662500D01*
X27309660Y-34662499D01*
X27309657Y-34662498D01*
X27200002Y-34645131D01*
X27199998Y-34645131D01*
X27090341Y-34662498D01*
X26991414Y-34712904D01*
X26991407Y-34712909D01*
X26981681Y-34722636D01*
X26920358Y-34756121D01*
X26850666Y-34751137D01*
X26794733Y-34709265D01*
X26770316Y-34643801D01*
X26770000Y-34634955D01*
X26770000Y-32462919D01*
X26789685Y-32395880D01*
X26806319Y-32375238D01*
X27317319Y-31864238D01*
X27378642Y-31830753D01*
X27448334Y-31835737D01*
G37*
%TD.AperFunction*%
%TA.AperFunction,Conductor*%
G36*
X31986888Y-32498685D02*
G01*
X32007530Y-32515319D01*
X32114689Y-32622478D01*
X32148174Y-32683801D01*
X32143190Y-32753493D01*
X32130110Y-32779051D01*
X32112650Y-32805180D01*
X32112650Y-32805181D01*
X32104431Y-32846499D01*
X32072045Y-32908410D01*
X32011329Y-32942984D01*
X32002212Y-32944780D01*
X31890341Y-32962498D01*
X31791414Y-33012904D01*
X31791407Y-33012909D01*
X31712909Y-33091407D01*
X31712904Y-33091414D01*
X31662498Y-33190341D01*
X31645131Y-33299997D01*
X31645131Y-33300002D01*
X31662498Y-33409658D01*
X31692499Y-33468538D01*
X31705395Y-33537207D01*
X31679118Y-33601948D01*
X31669697Y-33612511D01*
X31648429Y-33633780D01*
X31648426Y-33633784D01*
X30811682Y-34470528D01*
X30750359Y-34504013D01*
X30680667Y-34499029D01*
X30624734Y-34457157D01*
X30620317Y-34445316D01*
X30600001Y-34425000D01*
X29274001Y-34425000D01*
X29206962Y-34405315D01*
X29161207Y-34352511D01*
X29150001Y-34301000D01*
X29150001Y-33775000D01*
X29450001Y-33775000D01*
X29450001Y-34125000D01*
X30600001Y-34125000D01*
X30600001Y-34077172D01*
X30600000Y-34077155D01*
X30593599Y-34017627D01*
X30593598Y-34017624D01*
X30584539Y-33993335D01*
X30579553Y-33923644D01*
X30584539Y-33906665D01*
X30593598Y-33882375D01*
X30593599Y-33882372D01*
X30600000Y-33822844D01*
X30600001Y-33822827D01*
X30600001Y-33775000D01*
X29450001Y-33775000D01*
X29150001Y-33775000D01*
X29150001Y-33599000D01*
X29169686Y-33531961D01*
X29222490Y-33486206D01*
X29274001Y-33475000D01*
X30600001Y-33475000D01*
X30600001Y-33427172D01*
X30600000Y-33427155D01*
X30593599Y-33367627D01*
X30593597Y-33367620D01*
X30543355Y-33232913D01*
X30543351Y-33232906D01*
X30457191Y-33117812D01*
X30457188Y-33117809D01*
X30342094Y-33031649D01*
X30342087Y-33031645D01*
X30271167Y-33005194D01*
X30215233Y-32963323D01*
X30190816Y-32897859D01*
X30190500Y-32889012D01*
X30190500Y-32816091D01*
X30190500Y-32816088D01*
X30185250Y-32789689D01*
X30185249Y-32789687D01*
X30185248Y-32789685D01*
X30165249Y-32759753D01*
X30155297Y-32753104D01*
X30110490Y-32699493D01*
X30101781Y-32630168D01*
X30131934Y-32567140D01*
X30155297Y-32546896D01*
X30156801Y-32545891D01*
X30165248Y-32540247D01*
X30167337Y-32537120D01*
X30169350Y-32534109D01*
X30222962Y-32489304D01*
X30272452Y-32479000D01*
X31919849Y-32479000D01*
X31986888Y-32498685D01*
G37*
%TD.AperFunction*%
%TA.AperFunction,Conductor*%
G36*
X34587623Y-23780184D02*
G01*
X34633378Y-23832988D01*
X34643322Y-23902146D01*
X34614297Y-23965702D01*
X34594896Y-23983765D01*
X34582810Y-23992812D01*
X34496650Y-24107906D01*
X34496646Y-24107913D01*
X34446404Y-24242620D01*
X34446402Y-24242627D01*
X34440001Y-24302155D01*
X34440001Y-25350000D01*
X36066001Y-25350000D01*
X36133040Y-25369685D01*
X36178795Y-25422489D01*
X36190001Y-25474000D01*
X36190001Y-27350000D01*
X36987829Y-27350000D01*
X36987845Y-27349999D01*
X37047373Y-27343598D01*
X37047380Y-27343596D01*
X37182087Y-27293354D01*
X37182090Y-27293352D01*
X37291188Y-27211681D01*
X37356652Y-27187263D01*
X37424925Y-27202114D01*
X37474331Y-27251519D01*
X37489500Y-27310947D01*
X37489500Y-34337349D01*
X37469815Y-34404388D01*
X37417011Y-34450143D01*
X37347853Y-34460087D01*
X37284297Y-34431062D01*
X37277819Y-34425030D01*
X36672970Y-33820181D01*
X36639485Y-33758858D01*
X36644469Y-33689166D01*
X36672970Y-33644819D01*
X36785828Y-33531961D01*
X36890232Y-33427557D01*
X36905073Y-33412716D01*
X36906279Y-33408211D01*
X36918670Y-33378300D01*
X36921000Y-33374265D01*
X36921001Y-33291736D01*
X36921000Y-33291734D01*
X36921000Y-28932956D01*
X36921000Y-28911967D01*
X36918666Y-28907925D01*
X36906280Y-28878021D01*
X36905073Y-28873516D01*
X36905072Y-28873515D01*
X36905072Y-28873514D01*
X36839657Y-28808098D01*
X36839642Y-28808085D01*
X35593238Y-27561681D01*
X35559753Y-27500358D01*
X35564737Y-27430666D01*
X35606609Y-27374733D01*
X35672073Y-27350316D01*
X35680919Y-27350000D01*
X35690001Y-27350000D01*
X35690001Y-25850000D01*
X34440001Y-25850000D01*
X34440001Y-26271999D01*
X34420316Y-26339038D01*
X34367512Y-26384793D01*
X34337876Y-26391240D01*
X34338141Y-26392297D01*
X34338137Y-26392298D01*
X34326336Y-26393750D01*
X34316001Y-26395999D01*
X34308071Y-26395999D01*
X34308063Y-26396000D01*
X33008735Y-26396000D01*
X33004688Y-26398336D01*
X32974799Y-26410716D01*
X32970287Y-26411925D01*
X32970282Y-26411928D01*
X32913009Y-26469199D01*
X32851685Y-26502683D01*
X32805933Y-26503989D01*
X32750003Y-26495131D01*
X32749998Y-26495131D01*
X32640341Y-26512498D01*
X32541414Y-26562904D01*
X32541407Y-26562909D01*
X32462909Y-26641407D01*
X32462906Y-26641412D01*
X32462905Y-26641413D01*
X32415433Y-26734583D01*
X32367458Y-26785379D01*
X32299637Y-26802174D01*
X32285551Y-26800761D01*
X32250003Y-26795131D01*
X32249998Y-26795131D01*
X32140341Y-26812498D01*
X32041414Y-26862904D01*
X32041407Y-26862909D01*
X31962909Y-26941407D01*
X31962904Y-26941414D01*
X31912498Y-27040341D01*
X31895131Y-27149997D01*
X31895131Y-27150002D01*
X31897033Y-27162011D01*
X31888078Y-27231305D01*
X31843082Y-27284757D01*
X31776331Y-27305396D01*
X31709017Y-27286671D01*
X31686879Y-27269090D01*
X31490319Y-27072530D01*
X31456834Y-27011207D01*
X31454000Y-26984849D01*
X31454000Y-26393044D01*
X31473685Y-26326005D01*
X31481356Y-26316486D01*
X31487089Y-26308592D01*
X31487095Y-26308587D01*
X31537500Y-26209661D01*
X31537500Y-26209659D01*
X31537501Y-26209658D01*
X31554869Y-26100002D01*
X31554869Y-26099997D01*
X31537501Y-25990341D01*
X31537500Y-25990339D01*
X31487095Y-25891413D01*
X31487092Y-25891410D01*
X31487090Y-25891407D01*
X31408592Y-25812909D01*
X31408588Y-25812906D01*
X31408587Y-25812905D01*
X31383689Y-25800219D01*
X31309658Y-25762498D01*
X31200002Y-25745131D01*
X31199998Y-25745131D01*
X31090341Y-25762498D01*
X30991414Y-25812904D01*
X30991407Y-25812909D01*
X30912909Y-25891407D01*
X30912904Y-25891414D01*
X30862498Y-25990341D01*
X30845131Y-26099997D01*
X30845131Y-26100002D01*
X30862498Y-26209658D01*
X30912904Y-26308585D01*
X30912909Y-26308592D01*
X30991407Y-26387090D01*
X30991413Y-26387095D01*
X31078295Y-26431363D01*
X31129090Y-26479336D01*
X31146000Y-26541847D01*
X31146000Y-27141265D01*
X31148332Y-27145304D01*
X31160718Y-27175206D01*
X31161926Y-27179715D01*
X31161927Y-27179716D01*
X31193891Y-27211681D01*
X31230029Y-27247819D01*
X31263513Y-27309143D01*
X31258528Y-27378834D01*
X31216657Y-27434768D01*
X31151192Y-27459184D01*
X31142349Y-27459500D01*
X31091092Y-27459500D01*
X31064688Y-27464751D01*
X31053405Y-27469425D01*
X31052440Y-27467095D01*
X31002204Y-27482821D01*
X30947287Y-27467751D01*
X30946595Y-27469424D01*
X30935312Y-27464750D01*
X30908916Y-27459500D01*
X30591092Y-27459500D01*
X30564688Y-27464751D01*
X30553405Y-27469425D01*
X30552440Y-27467095D01*
X30502204Y-27482821D01*
X30447287Y-27467751D01*
X30446595Y-27469424D01*
X30435312Y-27464750D01*
X30408916Y-27459500D01*
X30188025Y-27459500D01*
X30120986Y-27439815D01*
X30075231Y-27387011D01*
X30065287Y-27317853D01*
X30077539Y-27279209D01*
X30087500Y-27259661D01*
X30087696Y-27258427D01*
X30104869Y-27150002D01*
X30104869Y-27149997D01*
X30087501Y-27040341D01*
X30085397Y-27036211D01*
X30037095Y-26941413D01*
X30037092Y-26941410D01*
X30037090Y-26941407D01*
X29958592Y-26862909D01*
X29958588Y-26862906D01*
X29958587Y-26862905D01*
X29915706Y-26841056D01*
X29859658Y-26812498D01*
X29750002Y-26795131D01*
X29750000Y-26795131D01*
X29714448Y-26800762D01*
X29645154Y-26791806D01*
X29591703Y-26746809D01*
X29584567Y-26734583D01*
X29537095Y-26641413D01*
X29537092Y-26641410D01*
X29537090Y-26641407D01*
X29458592Y-26562909D01*
X29458588Y-26562906D01*
X29458587Y-26562905D01*
X29454743Y-26560946D01*
X29359658Y-26512498D01*
X29250002Y-26495131D01*
X29249998Y-26495131D01*
X29140341Y-26512498D01*
X29041414Y-26562904D01*
X29041407Y-26562909D01*
X28962909Y-26641407D01*
X28962906Y-26641412D01*
X28962905Y-26641413D01*
X28915433Y-26734583D01*
X28867458Y-26785379D01*
X28799637Y-26802174D01*
X28785551Y-26800761D01*
X28750003Y-26795131D01*
X28750001Y-26795131D01*
X28750000Y-26795131D01*
X28714448Y-26800762D01*
X28645154Y-26791806D01*
X28591703Y-26746809D01*
X28584567Y-26734583D01*
X28537095Y-26641413D01*
X28537092Y-26641410D01*
X28537090Y-26641407D01*
X28458592Y-26562909D01*
X28458588Y-26562906D01*
X28458587Y-26562905D01*
X28454743Y-26560946D01*
X28359658Y-26512498D01*
X28250002Y-26495131D01*
X28249998Y-26495131D01*
X28140341Y-26512498D01*
X28041414Y-26562904D01*
X28041407Y-26562909D01*
X27962909Y-26641407D01*
X27962906Y-26641412D01*
X27962905Y-26641413D01*
X27915433Y-26734583D01*
X27867458Y-26785379D01*
X27799637Y-26802174D01*
X27785551Y-26800761D01*
X27750003Y-26795131D01*
X27749998Y-26795131D01*
X27640342Y-26812498D01*
X27584294Y-26841056D01*
X27515625Y-26853951D01*
X27450885Y-26827674D01*
X27410629Y-26770567D01*
X27404001Y-26730570D01*
X27404001Y-26589935D01*
X27423686Y-26522896D01*
X27455115Y-26489617D01*
X27458580Y-26487098D01*
X27458587Y-26487095D01*
X27537095Y-26408587D01*
X27587500Y-26309661D01*
X27587500Y-26309659D01*
X27587501Y-26309658D01*
X27604869Y-26200002D01*
X27604869Y-26199997D01*
X27587501Y-26090341D01*
X27587500Y-26090339D01*
X27537095Y-25991413D01*
X27537092Y-25991410D01*
X27537090Y-25991407D01*
X27476917Y-25931234D01*
X27443432Y-25869911D01*
X27448416Y-25800219D01*
X27476915Y-25755874D01*
X27685971Y-25546817D01*
X27747294Y-25513333D01*
X27773652Y-25510499D01*
X28603910Y-25510499D01*
X28603913Y-25510499D01*
X28630312Y-25505249D01*
X28660248Y-25485247D01*
X28680250Y-25455311D01*
X28685501Y-25428913D01*
X28685500Y-24411088D01*
X28680250Y-24384689D01*
X28680249Y-24384687D01*
X28680248Y-24384685D01*
X28660248Y-24354752D01*
X28630312Y-24334750D01*
X28603916Y-24329500D01*
X27586092Y-24329500D01*
X27559688Y-24334751D01*
X27559686Y-24334752D01*
X27529753Y-24354752D01*
X27509751Y-24384688D01*
X27504501Y-24411084D01*
X27504501Y-25241348D01*
X27484816Y-25308387D01*
X27468182Y-25329029D01*
X27170284Y-25626928D01*
X27111926Y-25685285D01*
X27111925Y-25685287D01*
X27110716Y-25689799D01*
X27098336Y-25719688D01*
X27095999Y-25723735D01*
X27095999Y-25810065D01*
X27076314Y-25877104D01*
X27044887Y-25910380D01*
X27041412Y-25912904D01*
X26962909Y-25991407D01*
X26962904Y-25991414D01*
X26912498Y-26090341D01*
X26895131Y-26199997D01*
X26895131Y-26200002D01*
X26912498Y-26309658D01*
X26927468Y-26339038D01*
X26962905Y-26408587D01*
X27041413Y-26487095D01*
X27041417Y-26487097D01*
X27044884Y-26489616D01*
X27048081Y-26493762D01*
X27048314Y-26493995D01*
X27048283Y-26494025D01*
X27087551Y-26544946D01*
X27096001Y-26589936D01*
X27096001Y-26927883D01*
X27076316Y-26994922D01*
X27023512Y-27040677D01*
X26958752Y-27051173D01*
X26947844Y-27050000D01*
X26900001Y-27050000D01*
X26900001Y-28960000D01*
X26951001Y-28960000D01*
X27018040Y-28979685D01*
X27063795Y-29032489D01*
X27075001Y-29084000D01*
X27075001Y-29792327D01*
X27037130Y-29747195D01*
X26937872Y-29689888D01*
X26853437Y-29675000D01*
X26796565Y-29675000D01*
X26712130Y-29689888D01*
X26612872Y-29747195D01*
X26575001Y-29792327D01*
X26575001Y-29036362D01*
X26594686Y-28969323D01*
X26600001Y-28962727D01*
X26600001Y-27050000D01*
X26552156Y-27050000D01*
X26492628Y-27056401D01*
X26492621Y-27056403D01*
X26357914Y-27106645D01*
X26357907Y-27106649D01*
X26242813Y-27192809D01*
X26242810Y-27192812D01*
X26156650Y-27307906D01*
X26156647Y-27307911D01*
X26123126Y-27397786D01*
X26081254Y-27453719D01*
X26074551Y-27457538D01*
X26074839Y-27457970D01*
X26068883Y-27461949D01*
X26064290Y-27463386D01*
X26054472Y-27468982D01*
X26053484Y-27469392D01*
X26052520Y-27467070D01*
X26002204Y-27482821D01*
X25947287Y-27467751D01*
X25946595Y-27469424D01*
X25935312Y-27464750D01*
X25908916Y-27459500D01*
X25591092Y-27459500D01*
X25564688Y-27464751D01*
X25564686Y-27464752D01*
X25534753Y-27484752D01*
X25514751Y-27514688D01*
X25509501Y-27541084D01*
X25509501Y-28506348D01*
X25489816Y-28573387D01*
X25473182Y-28594029D01*
X24694029Y-29373181D01*
X24632706Y-29406666D01*
X24606348Y-29409500D01*
X23776092Y-29409500D01*
X23749688Y-29414751D01*
X23749686Y-29414752D01*
X23719753Y-29434752D01*
X23699751Y-29464688D01*
X23694501Y-29491084D01*
X23694501Y-30508908D01*
X23699752Y-30535312D01*
X23699753Y-30535314D01*
X23719753Y-30565247D01*
X23749689Y-30585249D01*
X23758408Y-30586983D01*
X23776088Y-30590500D01*
X24793913Y-30590499D01*
X24820312Y-30585249D01*
X24850248Y-30565247D01*
X24850248Y-30565246D01*
X24851111Y-30564670D01*
X24917788Y-30543793D01*
X24985168Y-30562278D01*
X24988891Y-30564670D01*
X24989753Y-30565246D01*
X24989754Y-30565247D01*
X25019690Y-30585249D01*
X25046088Y-30590500D01*
X25739014Y-30590499D01*
X25806052Y-30610183D01*
X25851807Y-30662987D01*
X25855195Y-30671166D01*
X25881646Y-30742086D01*
X25881650Y-30742093D01*
X25967810Y-30857187D01*
X25967813Y-30857190D01*
X26082907Y-30943350D01*
X26082914Y-30943354D01*
X26217621Y-30993596D01*
X26217628Y-30993598D01*
X26277156Y-30999999D01*
X26277173Y-31000000D01*
X26575001Y-31000000D01*
X26575001Y-30207672D01*
X26612872Y-30252805D01*
X26712130Y-30310112D01*
X26796565Y-30325000D01*
X26853437Y-30325000D01*
X26937872Y-30310112D01*
X27037130Y-30252805D01*
X27075001Y-30207672D01*
X27075001Y-31005848D01*
X27055316Y-31072887D01*
X27038682Y-31093529D01*
X26102284Y-32029927D01*
X26067396Y-32064815D01*
X26043926Y-32088285D01*
X26043925Y-32088286D01*
X26042716Y-32092798D01*
X26030336Y-32122687D01*
X26027999Y-32126733D01*
X26027999Y-32233925D01*
X26028000Y-32233930D01*
X26028000Y-32866362D01*
X26008315Y-32933401D01*
X25964741Y-32971157D01*
X25998863Y-32993780D01*
X26026977Y-33057744D01*
X26028000Y-33073637D01*
X26028000Y-33202849D01*
X26008315Y-33269888D01*
X25991681Y-33290530D01*
X25847530Y-33434681D01*
X25786207Y-33468166D01*
X25759849Y-33471000D01*
X25734045Y-33471000D01*
X25667006Y-33451315D01*
X25621251Y-33398511D01*
X25611307Y-33329353D01*
X25640332Y-33265797D01*
X25646364Y-33259319D01*
X25727090Y-33178592D01*
X25727095Y-33178587D01*
X25777500Y-33079661D01*
X25777501Y-33079657D01*
X25781527Y-33054240D01*
X25811456Y-32991105D01*
X25845002Y-32970215D01*
X25822797Y-32960075D01*
X25785023Y-32901297D01*
X25781527Y-32885760D01*
X25777501Y-32860341D01*
X25757456Y-32821000D01*
X25727095Y-32761413D01*
X25727092Y-32761410D01*
X25727090Y-32761407D01*
X25648592Y-32682909D01*
X25648588Y-32682906D01*
X25648587Y-32682905D01*
X25644743Y-32680946D01*
X25549658Y-32632498D01*
X25440002Y-32615131D01*
X25439998Y-32615131D01*
X25330341Y-32632498D01*
X25231414Y-32682904D01*
X25231407Y-32682909D01*
X25195400Y-32718916D01*
X25134077Y-32752401D01*
X25064385Y-32747415D01*
X25008452Y-32705543D01*
X24984036Y-32640079D01*
X24991540Y-32587897D01*
X24993597Y-32582381D01*
X24993599Y-32582372D01*
X25000000Y-32522844D01*
X25000001Y-32522827D01*
X25000001Y-32475000D01*
X23674001Y-32475000D01*
X23606962Y-32455315D01*
X23561207Y-32402511D01*
X23550001Y-32351000D01*
X23550001Y-31675000D01*
X23850001Y-31675000D01*
X23850001Y-32175000D01*
X25000001Y-32175000D01*
X25000001Y-32127172D01*
X25000000Y-32127155D01*
X24993599Y-32067627D01*
X24993597Y-32067620D01*
X24943355Y-31932913D01*
X24943351Y-31932906D01*
X24857191Y-31817812D01*
X24857188Y-31817809D01*
X24742094Y-31731649D01*
X24742087Y-31731645D01*
X24607380Y-31681403D01*
X24607373Y-31681401D01*
X24547845Y-31675000D01*
X23850001Y-31675000D01*
X23550001Y-31675000D01*
X22852156Y-31675000D01*
X22792628Y-31681401D01*
X22792621Y-31681403D01*
X22677834Y-31724216D01*
X22608142Y-31729200D01*
X22546819Y-31695715D01*
X22513335Y-31634392D01*
X22510501Y-31608034D01*
X22510501Y-27310946D01*
X22530186Y-27243907D01*
X22582990Y-27198152D01*
X22652148Y-27188208D01*
X22708813Y-27211680D01*
X22817911Y-27293352D01*
X22817914Y-27293354D01*
X22952621Y-27343596D01*
X22952628Y-27343598D01*
X23012156Y-27349999D01*
X23012173Y-27350000D01*
X23810001Y-27350000D01*
X23810001Y-25850000D01*
X24310001Y-25850000D01*
X24310001Y-27350000D01*
X25107829Y-27350000D01*
X25107845Y-27349999D01*
X25167373Y-27343598D01*
X25167380Y-27343596D01*
X25302087Y-27293354D01*
X25302094Y-27293350D01*
X25417188Y-27207190D01*
X25417191Y-27207187D01*
X25503351Y-27092093D01*
X25503355Y-27092086D01*
X25553597Y-26957379D01*
X25553599Y-26957372D01*
X25560000Y-26897844D01*
X25560001Y-26897827D01*
X25560001Y-25850000D01*
X24310001Y-25850000D01*
X23810001Y-25850000D01*
X23810001Y-25474000D01*
X23829686Y-25406961D01*
X23882490Y-25361206D01*
X23934001Y-25350000D01*
X25560001Y-25350000D01*
X25560001Y-24302172D01*
X25560000Y-24302155D01*
X25553599Y-24242627D01*
X25553597Y-24242620D01*
X25503355Y-24107913D01*
X25503351Y-24107906D01*
X25417191Y-23992812D01*
X25405106Y-23983765D01*
X25363235Y-23927830D01*
X25358252Y-23858139D01*
X25391738Y-23796816D01*
X25453062Y-23763332D01*
X25479418Y-23760499D01*
X34520584Y-23760499D01*
X34587623Y-23780184D01*
G37*
%TD.AperFunction*%
%TD*%
M02*
