M48
; DRILL file {KiCad 8.0.5-unknown-202409181836~355805756e~ubuntu22.04.1} date 2024-10-08T14:59:54+0100
; FORMAT={-:-/ absolute / inch / decimal}
; #@! TF.CreationDate,2024-10-08T14:59:54+01:00
; #@! TF.GenerationSoftware,Kicad,Pcbnew,8.0.5-unknown-202409181836~355805756e~ubuntu22.04.1
; #@! TF.FileFunction,NonPlated,1,4,NPTH
FMAT,2
INCH
; #@! TA.AperFunction,NonPlated,NPTH,ComponentDrill
T1C0.0197
; #@! TA.AperFunction,NonPlated,NPTH,ComponentDrill
T2C0.0787
%
G90
G05
T1
X0.0Y-0.2362
X0.0Y-3.75
X0.0315Y-0.2362
X0.0315Y-3.75
X0.063Y-0.2362
X0.063Y-3.75
X0.0945Y-0.2362
X0.0945Y-3.75
X0.126Y-0.2362
X0.126Y-3.75
X0.1575Y-0.2362
X0.1575Y-3.75
X0.2244Y-0.4577
X0.2244Y-0.4905
X0.2244Y-0.5233
X0.2244Y-0.5561
X0.2244Y-0.5889
X0.2244Y-0.6217
X0.2244Y-0.6545
X0.2244Y-1.1762
X0.2244Y-1.209
X0.2244Y-1.2418
X0.2244Y-1.2746
X0.2244Y-1.3074
X0.2244Y-1.3402
X0.2244Y-1.373
X0.2244Y-1.8947
X0.2244Y-1.9275
X0.2244Y-1.9603
X0.2244Y-1.9931
X0.2244Y-2.0259
X0.2244Y-2.0587
X0.2244Y-2.0915
X0.2244Y-2.6132
X0.2244Y-2.646
X0.2244Y-2.6788
X0.2244Y-2.7116
X0.2244Y-2.7444
X0.2244Y-2.7772
X0.2244Y-2.81
X0.2244Y-3.3317
X0.2244Y-3.3645
X0.2244Y-3.3973
X0.2244Y-3.4301
X0.2244Y-3.4629
X0.2244Y-3.4957
X0.2244Y-3.5285
X0.2362Y0.0
X0.2362Y-0.0315
X0.2362Y-0.063
X0.2362Y-0.0945
X0.2362Y-0.126
X0.2362Y-0.1575
X0.2362Y-3.8287
X0.2362Y-3.8602
X0.2362Y-3.8917
X0.2362Y-3.9232
X0.2362Y-3.9547
X0.2362Y-3.9862
X0.8386Y-0.4577
X0.8386Y-0.4905
X0.8386Y-0.5233
X0.8386Y-0.5561
X0.8386Y-0.5889
X0.8386Y-0.6217
X0.8386Y-0.6545
X0.8386Y-1.1762
X0.8386Y-1.209
X0.8386Y-1.2418
X0.8386Y-1.2746
X0.8386Y-1.3074
X0.8386Y-1.3402
X0.8386Y-1.373
X0.8386Y-1.8947
X0.8386Y-1.9275
X0.8386Y-1.9603
X0.8386Y-1.9931
X0.8386Y-2.0259
X0.8386Y-2.0587
X0.8386Y-2.0915
X0.8386Y-2.6132
X0.8386Y-2.646
X0.8386Y-2.6788
X0.8386Y-2.7116
X0.8386Y-2.7444
X0.8386Y-2.7772
X0.8386Y-2.81
X0.8386Y-3.3317
X0.8386Y-3.3645
X0.8386Y-3.3973
X0.8386Y-3.4301
X0.8386Y-3.4629
X0.8386Y-3.4957
X0.8386Y-3.5285
X0.8937Y-0.4577
X0.8937Y-0.4905
X0.8937Y-0.5233
X0.8937Y-0.5561
X0.8937Y-0.5889
X0.8937Y-0.6217
X0.8937Y-0.6545
X0.8937Y-1.1762
X0.8937Y-1.209
X0.8937Y-1.2418
X0.8937Y-1.2746
X0.8937Y-1.3074
X0.8937Y-1.3402
X0.8937Y-1.373
X0.8937Y-1.8947
X0.8937Y-1.9275
X0.8937Y-1.9603
X0.8937Y-1.9931
X0.8937Y-2.0259
X0.8937Y-2.0587
X0.8937Y-2.0915
X0.8937Y-2.6132
X0.8937Y-2.646
X0.8937Y-2.6788
X0.8937Y-2.7116
X0.8937Y-2.7444
X0.8937Y-2.7772
X0.8937Y-2.81
X0.8937Y-3.3317
X0.8937Y-3.3645
X0.8937Y-3.3973
X0.8937Y-3.4301
X0.8937Y-3.4629
X0.8937Y-3.4957
X0.8937Y-3.5285
X1.5079Y-0.4577
X1.5079Y-0.4905
X1.5079Y-0.5233
X1.5079Y-0.5561
X1.5079Y-0.5889
X1.5079Y-0.6217
X1.5079Y-0.6545
X1.5079Y-1.1762
X1.5079Y-1.209
X1.5079Y-1.2418
X1.5079Y-1.2746
X1.5079Y-1.3074
X1.5079Y-1.3402
X1.5079Y-1.373
X1.5079Y-1.8947
X1.5079Y-1.9275
X1.5079Y-1.9603
X1.5079Y-1.9931
X1.5079Y-2.0259
X1.5079Y-2.0587
X1.5079Y-2.0915
X1.5079Y-2.6132
X1.5079Y-2.646
X1.5079Y-2.6788
X1.5079Y-2.7116
X1.5079Y-2.7444
X1.5079Y-2.7772
X1.5079Y-2.81
X1.5079Y-3.3317
X1.5079Y-3.3645
X1.5079Y-3.3973
X1.5079Y-3.4301
X1.5079Y-3.4629
X1.5079Y-3.4957
X1.5079Y-3.5285
X1.7992Y-0.4577
X1.7992Y-0.4905
X1.7992Y-0.5233
X1.7992Y-0.5561
X1.7992Y-0.5889
X1.7992Y-0.6217
X1.7992Y-0.6545
X1.7992Y-1.1762
X1.7992Y-1.209
X1.7992Y-1.2418
X1.7992Y-1.2746
X1.7992Y-1.3074
X1.7992Y-1.3402
X1.7992Y-1.373
X1.7992Y-1.8947
X1.7992Y-1.9275
X1.7992Y-1.9603
X1.7992Y-1.9931
X1.7992Y-2.0259
X1.7992Y-2.0587
X1.7992Y-2.0915
X1.7992Y-2.6132
X1.7992Y-2.646
X1.7992Y-2.6788
X1.7992Y-2.7116
X1.7992Y-2.7444
X1.7992Y-2.7772
X1.7992Y-2.81
X1.7992Y-3.3317
X1.7992Y-3.3645
X1.7992Y-3.3973
X1.7992Y-3.4301
X1.7992Y-3.4629
X1.7992Y-3.4957
X1.7992Y-3.5285
X2.4134Y-0.4577
X2.4134Y-0.4905
X2.4134Y-0.5233
X2.4134Y-0.5561
X2.4134Y-0.5889
X2.4134Y-0.6217
X2.4134Y-0.6545
X2.4134Y-1.1762
X2.4134Y-1.209
X2.4134Y-1.2418
X2.4134Y-1.2746
X2.4134Y-1.3074
X2.4134Y-1.3402
X2.4134Y-1.373
X2.4134Y-1.8947
X2.4134Y-1.9275
X2.4134Y-1.9603
X2.4134Y-1.9931
X2.4134Y-2.0259
X2.4134Y-2.0587
X2.4134Y-2.0915
X2.4134Y-2.6132
X2.4134Y-2.646
X2.4134Y-2.6788
X2.4134Y-2.7116
X2.4134Y-2.7444
X2.4134Y-2.7772
X2.4134Y-2.81
X2.4134Y-3.3317
X2.4134Y-3.3645
X2.4134Y-3.3973
X2.4134Y-3.4301
X2.4134Y-3.4629
X2.4134Y-3.4957
X2.4134Y-3.5285
X2.4685Y-0.4577
X2.4685Y-0.4905
X2.4685Y-0.5233
X2.4685Y-0.5561
X2.4685Y-0.5889
X2.4685Y-0.6217
X2.4685Y-0.6545
X2.4685Y-1.1762
X2.4685Y-1.209
X2.4685Y-1.2418
X2.4685Y-1.2746
X2.4685Y-1.3074
X2.4685Y-1.3402
X2.4685Y-1.373
X2.4685Y-1.8947
X2.4685Y-1.9275
X2.4685Y-1.9603
X2.4685Y-1.9931
X2.4685Y-2.0259
X2.4685Y-2.0587
X2.4685Y-2.0915
X2.4685Y-2.6132
X2.4685Y-2.646
X2.4685Y-2.6788
X2.4685Y-2.7116
X2.4685Y-2.7444
X2.4685Y-2.7772
X2.4685Y-2.81
X2.4685Y-3.3317
X2.4685Y-3.3645
X2.4685Y-3.3973
X2.4685Y-3.4301
X2.4685Y-3.4629
X2.4685Y-3.4957
X2.4685Y-3.5285
X3.0709Y0.0
X3.0709Y-0.0315
X3.0709Y-0.063
X3.0709Y-0.0945
X3.0709Y-0.126
X3.0709Y-0.1575
X3.0709Y-3.8287
X3.0709Y-3.8602
X3.0709Y-3.8917
X3.0709Y-3.9232
X3.0709Y-3.9547
X3.0709Y-3.9862
X3.0827Y-0.4577
X3.0827Y-0.4905
X3.0827Y-0.5233
X3.0827Y-0.5561
X3.0827Y-0.5889
X3.0827Y-0.6217
X3.0827Y-0.6545
X3.0827Y-1.1762
X3.0827Y-1.209
X3.0827Y-1.2418
X3.0827Y-1.2746
X3.0827Y-1.3074
X3.0827Y-1.3402
X3.0827Y-1.373
X3.0827Y-1.8947
X3.0827Y-1.9275
X3.0827Y-1.9603
X3.0827Y-1.9931
X3.0827Y-2.0259
X3.0827Y-2.0587
X3.0827Y-2.0915
X3.0827Y-2.6132
X3.0827Y-2.646
X3.0827Y-2.6788
X3.0827Y-2.7116
X3.0827Y-2.7444
X3.0827Y-2.7772
X3.0827Y-2.81
X3.0827Y-3.3317
X3.0827Y-3.3645
X3.0827Y-3.3973
X3.0827Y-3.4301
X3.0827Y-3.4629
X3.0827Y-3.4957
X3.0827Y-3.5285
X3.1496Y-0.2362
X3.1496Y-3.75
X3.1811Y-0.2362
X3.1811Y-3.75
X3.2126Y-0.2362
X3.2126Y-3.75
X3.2441Y-0.2362
X3.2441Y-3.75
X3.2756Y-0.2362
X3.2756Y-3.75
X3.3071Y-0.2362
X3.3071Y-3.75
T2
X0.0984Y-0.0984
X0.0984Y-3.8878
X3.2087Y-0.0984
X3.2087Y-3.8878
M30
