%TF.GenerationSoftware,KiCad,Pcbnew,8.0.1-unknown-202403172319~81f55dfc9c~ubuntu22.04.1*%
%TF.CreationDate,2024-06-20T10:51:26+01:00*%
%TF.ProjectId,PANEL_COM_MOD,50414e45-4c5f-4434-9f4d-5f4d4f442e6b,1.0*%
%TF.SameCoordinates,Original*%
%TF.FileFunction,Other,Comment*%
%FSLAX46Y46*%
G04 Gerber Fmt 4.6, Leading zero omitted, Abs format (unit mm)*
G04 Created by KiCad (PCBNEW 8.0.1-unknown-202403172319~81f55dfc9c~ubuntu22.04.1) date 2024-06-20 10:51:26*
%MOMM*%
%LPD*%
G01*
G04 APERTURE LIST*
%ADD10C,0.250000*%
G04 APERTURE END LIST*
D10*
%TO.C,FPC1*%
X49210000Y-83500004D02*
G75*
G02*
X48950000Y-83500004I-130000J0D01*
G01*
X48950000Y-83500004D02*
G75*
G02*
X49210000Y-83500004I130000J0D01*
G01*
X49210000Y-28750001D02*
G75*
G02*
X48950000Y-28750001I-130000J0D01*
G01*
X48950000Y-28750001D02*
G75*
G02*
X49210000Y-28750001I130000J0D01*
G01*
X49210000Y-10500000D02*
G75*
G02*
X48950000Y-10500000I-130000J0D01*
G01*
X48950000Y-10500000D02*
G75*
G02*
X49210000Y-10500000I130000J0D01*
G01*
X9210000Y-65250003D02*
G75*
G02*
X8950000Y-65250003I-130000J0D01*
G01*
X8950000Y-65250003D02*
G75*
G02*
X9210000Y-65250003I130000J0D01*
G01*
X9210000Y-47000002D02*
G75*
G02*
X8950000Y-47000002I-130000J0D01*
G01*
X8950000Y-47000002D02*
G75*
G02*
X9210000Y-47000002I130000J0D01*
G01*
X9210000Y-28750001D02*
G75*
G02*
X8950000Y-28750001I-130000J0D01*
G01*
X8950000Y-28750001D02*
G75*
G02*
X9210000Y-28750001I130000J0D01*
G01*
X49210000Y-47000002D02*
G75*
G02*
X48950000Y-47000002I-130000J0D01*
G01*
X48950000Y-47000002D02*
G75*
G02*
X49210000Y-47000002I130000J0D01*
G01*
X66210000Y-28750001D02*
G75*
G02*
X65950000Y-28750001I-130000J0D01*
G01*
X65950000Y-28750001D02*
G75*
G02*
X66210000Y-28750001I130000J0D01*
G01*
X49210000Y-65250003D02*
G75*
G02*
X48950000Y-65250003I-130000J0D01*
G01*
X48950000Y-65250003D02*
G75*
G02*
X49210000Y-65250003I130000J0D01*
G01*
X9210000Y-10500000D02*
G75*
G02*
X8950000Y-10500000I-130000J0D01*
G01*
X8950000Y-10500000D02*
G75*
G02*
X9210000Y-10500000I130000J0D01*
G01*
X66210000Y-83500004D02*
G75*
G02*
X65950000Y-83500004I-130000J0D01*
G01*
X65950000Y-83500004D02*
G75*
G02*
X66210000Y-83500004I130000J0D01*
G01*
X9210000Y-83500004D02*
G75*
G02*
X8950000Y-83500004I-130000J0D01*
G01*
X8950000Y-83500004D02*
G75*
G02*
X9210000Y-83500004I130000J0D01*
G01*
X26210000Y-83500004D02*
G75*
G02*
X25950000Y-83500004I-130000J0D01*
G01*
X25950000Y-83500004D02*
G75*
G02*
X26210000Y-83500004I130000J0D01*
G01*
X26210000Y-28750001D02*
G75*
G02*
X25950000Y-28750001I-130000J0D01*
G01*
X25950000Y-28750001D02*
G75*
G02*
X26210000Y-28750001I130000J0D01*
G01*
X26210000Y-10500000D02*
G75*
G02*
X25950000Y-10500000I-130000J0D01*
G01*
X25950000Y-10500000D02*
G75*
G02*
X26210000Y-10500000I130000J0D01*
G01*
X26210000Y-47000002D02*
G75*
G02*
X25950000Y-47000002I-130000J0D01*
G01*
X25950000Y-47000002D02*
G75*
G02*
X26210000Y-47000002I130000J0D01*
G01*
X66210000Y-65250003D02*
G75*
G02*
X65950000Y-65250003I-130000J0D01*
G01*
X65950000Y-65250003D02*
G75*
G02*
X66210000Y-65250003I130000J0D01*
G01*
X66210000Y-10500000D02*
G75*
G02*
X65950000Y-10500000I-130000J0D01*
G01*
X65950000Y-10500000D02*
G75*
G02*
X66210000Y-10500000I130000J0D01*
G01*
X66210000Y-47000002D02*
G75*
G02*
X65950000Y-47000002I-130000J0D01*
G01*
X65950000Y-47000002D02*
G75*
G02*
X66210000Y-47000002I130000J0D01*
G01*
X26210000Y-65250003D02*
G75*
G02*
X25950000Y-65250003I-130000J0D01*
G01*
X25950000Y-65250003D02*
G75*
G02*
X26210000Y-65250003I130000J0D01*
G01*
%TO.C,FPC2*%
X58050000Y-65250003D02*
G75*
G02*
X57790000Y-65250003I-130000J0D01*
G01*
X57790000Y-65250003D02*
G75*
G02*
X58050000Y-65250003I130000J0D01*
G01*
X75050000Y-47000002D02*
G75*
G02*
X74790000Y-47000002I-130000J0D01*
G01*
X74790000Y-47000002D02*
G75*
G02*
X75050000Y-47000002I130000J0D01*
G01*
X58050000Y-28750001D02*
G75*
G02*
X57790000Y-28750001I-130000J0D01*
G01*
X57790000Y-28750001D02*
G75*
G02*
X58050000Y-28750001I130000J0D01*
G01*
X75050000Y-65250003D02*
G75*
G02*
X74790000Y-65250003I-130000J0D01*
G01*
X74790000Y-65250003D02*
G75*
G02*
X75050000Y-65250003I130000J0D01*
G01*
X75050000Y-28750001D02*
G75*
G02*
X74790000Y-28750001I-130000J0D01*
G01*
X74790000Y-28750001D02*
G75*
G02*
X75050000Y-28750001I130000J0D01*
G01*
X35050000Y-47000002D02*
G75*
G02*
X34790000Y-47000002I-130000J0D01*
G01*
X34790000Y-47000002D02*
G75*
G02*
X35050000Y-47000002I130000J0D01*
G01*
X35050000Y-83500004D02*
G75*
G02*
X34790000Y-83500004I-130000J0D01*
G01*
X34790000Y-83500004D02*
G75*
G02*
X35050000Y-83500004I130000J0D01*
G01*
X18050000Y-28750001D02*
G75*
G02*
X17790000Y-28750001I-130000J0D01*
G01*
X17790000Y-28750001D02*
G75*
G02*
X18050000Y-28750001I130000J0D01*
G01*
X18050000Y-10500000D02*
G75*
G02*
X17790000Y-10500000I-130000J0D01*
G01*
X17790000Y-10500000D02*
G75*
G02*
X18050000Y-10500000I130000J0D01*
G01*
X58050000Y-47000002D02*
G75*
G02*
X57790000Y-47000002I-130000J0D01*
G01*
X57790000Y-47000002D02*
G75*
G02*
X58050000Y-47000002I130000J0D01*
G01*
X18050000Y-65250003D02*
G75*
G02*
X17790000Y-65250003I-130000J0D01*
G01*
X17790000Y-65250003D02*
G75*
G02*
X18050000Y-65250003I130000J0D01*
G01*
X75050000Y-10500000D02*
G75*
G02*
X74790000Y-10500000I-130000J0D01*
G01*
X74790000Y-10500000D02*
G75*
G02*
X75050000Y-10500000I130000J0D01*
G01*
X35050000Y-10500000D02*
G75*
G02*
X34790000Y-10500000I-130000J0D01*
G01*
X34790000Y-10500000D02*
G75*
G02*
X35050000Y-10500000I130000J0D01*
G01*
X18050000Y-83500004D02*
G75*
G02*
X17790000Y-83500004I-130000J0D01*
G01*
X17790000Y-83500004D02*
G75*
G02*
X18050000Y-83500004I130000J0D01*
G01*
X75050000Y-83500004D02*
G75*
G02*
X74790000Y-83500004I-130000J0D01*
G01*
X74790000Y-83500004D02*
G75*
G02*
X75050000Y-83500004I130000J0D01*
G01*
X58050000Y-83500004D02*
G75*
G02*
X57790000Y-83500004I-130000J0D01*
G01*
X57790000Y-83500004D02*
G75*
G02*
X58050000Y-83500004I130000J0D01*
G01*
X35050000Y-28750001D02*
G75*
G02*
X34790000Y-28750001I-130000J0D01*
G01*
X34790000Y-28750001D02*
G75*
G02*
X35050000Y-28750001I130000J0D01*
G01*
X18050000Y-47000002D02*
G75*
G02*
X17790000Y-47000002I-130000J0D01*
G01*
X17790000Y-47000002D02*
G75*
G02*
X18050000Y-47000002I130000J0D01*
G01*
X58050000Y-10500000D02*
G75*
G02*
X57790000Y-10500000I-130000J0D01*
G01*
X57790000Y-10500000D02*
G75*
G02*
X58050000Y-10500000I130000J0D01*
G01*
X35050000Y-65250003D02*
G75*
G02*
X34790000Y-65250003I-130000J0D01*
G01*
X34790000Y-65250003D02*
G75*
G02*
X35050000Y-65250003I130000J0D01*
G01*
%TD*%
M02*
