%TF.GenerationSoftware,KiCad,Pcbnew,8.0.5-unknown-202409181836~355805756e~ubuntu22.04.1*%
%TF.CreationDate,2024-10-12T17:37:09+01:00*%
%TF.ProjectId,PANEL5x4_COM_MOD,50414e45-4c35-4783-945f-434f4d5f4d4f,1.0*%
%TF.SameCoordinates,Original*%
%TF.FileFunction,Paste,Bot*%
%TF.FilePolarity,Positive*%
%FSLAX46Y46*%
G04 Gerber Fmt 4.6, Leading zero omitted, Abs format (unit mm)*
G04 Created by KiCad (PCBNEW 8.0.5-unknown-202409181836~355805756e~ubuntu22.04.1) date 2024-10-12 17:37:09*
%MOMM*%
%LPD*%
G01*
G04 APERTURE LIST*
G04 Aperture macros list*
%AMRoundRect*
0 Rectangle with rounded corners*
0 $1 Rounding radius*
0 $2 $3 $4 $5 $6 $7 $8 $9 X,Y pos of 4 corners*
0 Add a 4 corners polygon primitive as box body*
4,1,4,$2,$3,$4,$5,$6,$7,$8,$9,$2,$3,0*
0 Add four circle primitives for the rounded corners*
1,1,$1+$1,$2,$3*
1,1,$1+$1,$4,$5*
1,1,$1+$1,$6,$7*
1,1,$1+$1,$8,$9*
0 Add four rect primitives between the rounded corners*
20,1,$1+$1,$2,$3,$4,$5,0*
20,1,$1+$1,$4,$5,$6,$7,0*
20,1,$1+$1,$6,$7,$8,$9,0*
20,1,$1+$1,$8,$9,$2,$3,0*%
G04 Aperture macros list end*
%ADD10R,0.700000X0.900000*%
%ADD11RoundRect,0.135000X-0.135000X-0.185000X0.135000X-0.185000X0.135000X0.185000X-0.135000X0.185000X0*%
%ADD12R,1.230000X1.360000*%
%ADD13R,0.300000X1.250000*%
%ADD14R,2.000000X2.500000*%
G04 APERTURE END LIST*
D10*
%TO.C,LED2*%
X61950000Y-87330004D03*
X63050000Y-87330004D03*
X63050000Y-89170004D03*
X61950000Y-89170004D03*
%TD*%
D11*
%TO.C,R1*%
X45089999Y-72000003D03*
X46109999Y-72000003D03*
%TD*%
D12*
%TO.C,SW1*%
X11879999Y-74400003D03*
X7519999Y-74400003D03*
%TD*%
D13*
%TO.C,FPC1*%
X9250000Y-28640001D03*
X9750000Y-28640001D03*
X10250000Y-28640001D03*
X10750000Y-28640001D03*
X11250000Y-28640001D03*
X11750000Y-28640001D03*
X12250000Y-28640001D03*
X12750000Y-28640001D03*
X13250000Y-28640001D03*
X13750000Y-28640001D03*
X14250000Y-28640001D03*
X14750000Y-28640001D03*
X15250000Y-28640001D03*
X15750000Y-28640001D03*
X16250000Y-28640001D03*
X16750000Y-28640001D03*
X17250000Y-28640001D03*
X17750000Y-28640001D03*
D14*
X7560000Y-26060001D03*
X19440000Y-26100001D03*
%TD*%
D10*
%TO.C,LED2*%
X44950000Y-14330000D03*
X46050000Y-14330000D03*
X46050000Y-16170000D03*
X44950000Y-16170000D03*
%TD*%
D12*
%TO.C,SW1*%
X49879999Y-37900001D03*
X45519999Y-37900001D03*
%TD*%
D13*
%TO.C,FPC1*%
X47250000Y-10390000D03*
X47750000Y-10390000D03*
X48250000Y-10390000D03*
X48750000Y-10390000D03*
X49250000Y-10390000D03*
X49750000Y-10390000D03*
X50250000Y-10390000D03*
X50750000Y-10390000D03*
X51250000Y-10390000D03*
X51750000Y-10390000D03*
X52250000Y-10390000D03*
X52750000Y-10390000D03*
X53250000Y-10390000D03*
X53750000Y-10390000D03*
X54250000Y-10390000D03*
X54750000Y-10390000D03*
X55250000Y-10390000D03*
X55750000Y-10390000D03*
D14*
X45560000Y-7810000D03*
X57440000Y-7850000D03*
%TD*%
D10*
%TO.C,LED2*%
X6950000Y-69080003D03*
X8050000Y-69080003D03*
X8050000Y-70920003D03*
X6950000Y-70920003D03*
%TD*%
%TO.C,LED1*%
X75050000Y-34420001D03*
X73950000Y-34420001D03*
X73950000Y-32580001D03*
X75050000Y-32580001D03*
%TD*%
D11*
%TO.C,R1*%
X24089999Y-53750002D03*
X25109999Y-53750002D03*
%TD*%
D12*
%TO.C,SW1*%
X66879999Y-74400003D03*
X62519999Y-74400003D03*
%TD*%
D10*
%TO.C,LED2*%
X23950000Y-87330004D03*
X25050000Y-87330004D03*
X25050000Y-89170004D03*
X23950000Y-89170004D03*
%TD*%
D13*
%TO.C,FPC1*%
X64250000Y-46890002D03*
X64750000Y-46890002D03*
X65250000Y-46890002D03*
X65750000Y-46890002D03*
X66250000Y-46890002D03*
X66750000Y-46890002D03*
X67250000Y-46890002D03*
X67750000Y-46890002D03*
X68250000Y-46890002D03*
X68750000Y-46890002D03*
X69250000Y-46890002D03*
X69750000Y-46890002D03*
X70250000Y-46890002D03*
X70750000Y-46890002D03*
X71250000Y-46890002D03*
X71750000Y-46890002D03*
X72250000Y-46890002D03*
X72750000Y-46890002D03*
D14*
X62560000Y-44310002D03*
X74440000Y-44350002D03*
%TD*%
D10*
%TO.C,LED1*%
X37050000Y-16170000D03*
X35950000Y-16170000D03*
X35950000Y-14330000D03*
X37050000Y-14330000D03*
%TD*%
%TO.C,LED1*%
X37050000Y-70920003D03*
X35950000Y-70920003D03*
X35950000Y-69080003D03*
X37050000Y-69080003D03*
%TD*%
%TO.C,LED1*%
X75050000Y-70920003D03*
X73950000Y-70920003D03*
X73950000Y-69080003D03*
X75050000Y-69080003D03*
%TD*%
D13*
%TO.C,FPC1*%
X64250000Y-10390000D03*
X64750000Y-10390000D03*
X65250000Y-10390000D03*
X65750000Y-10390000D03*
X66250000Y-10390000D03*
X66750000Y-10390000D03*
X67250000Y-10390000D03*
X67750000Y-10390000D03*
X68250000Y-10390000D03*
X68750000Y-10390000D03*
X69250000Y-10390000D03*
X69750000Y-10390000D03*
X70250000Y-10390000D03*
X70750000Y-10390000D03*
X71250000Y-10390000D03*
X71750000Y-10390000D03*
X72250000Y-10390000D03*
X72750000Y-10390000D03*
D14*
X62560000Y-7810000D03*
X74440000Y-7850000D03*
%TD*%
D10*
%TO.C,LED2*%
X61950000Y-14330000D03*
X63050000Y-14330000D03*
X63050000Y-16170000D03*
X61950000Y-16170000D03*
%TD*%
D12*
%TO.C,SW1*%
X11879999Y-19650000D03*
X7519999Y-19650000D03*
%TD*%
%TO.C,SW1*%
X66879999Y-19650000D03*
X62519999Y-19650000D03*
%TD*%
D10*
%TO.C,LED2*%
X44950000Y-32580001D03*
X46050000Y-32580001D03*
X46050000Y-34420001D03*
X44950000Y-34420001D03*
%TD*%
%TO.C,LED1*%
X58050000Y-16170000D03*
X56950000Y-16170000D03*
X56950000Y-14330000D03*
X58050000Y-14330000D03*
%TD*%
%TO.C,LED1*%
X20050000Y-52670002D03*
X18950000Y-52670002D03*
X18950000Y-50830002D03*
X20050000Y-50830002D03*
%TD*%
%TO.C,LED2*%
X23950000Y-69080003D03*
X25050000Y-69080003D03*
X25050000Y-70920003D03*
X23950000Y-70920003D03*
%TD*%
D12*
%TO.C,SW1*%
X11879999Y-56150002D03*
X7519999Y-56150002D03*
%TD*%
%TO.C,SW1*%
X66879999Y-37900001D03*
X62519999Y-37900001D03*
%TD*%
D10*
%TO.C,LED2*%
X44950000Y-87330004D03*
X46050000Y-87330004D03*
X46050000Y-89170004D03*
X44950000Y-89170004D03*
%TD*%
D11*
%TO.C,R1*%
X24089999Y-72000003D03*
X25109999Y-72000003D03*
%TD*%
D10*
%TO.C,LED1*%
X58050000Y-52670002D03*
X56950000Y-52670002D03*
X56950000Y-50830002D03*
X58050000Y-50830002D03*
%TD*%
D13*
%TO.C,FPC1*%
X9250000Y-65140003D03*
X9750000Y-65140003D03*
X10250000Y-65140003D03*
X10750000Y-65140003D03*
X11250000Y-65140003D03*
X11750000Y-65140003D03*
X12250000Y-65140003D03*
X12750000Y-65140003D03*
X13250000Y-65140003D03*
X13750000Y-65140003D03*
X14250000Y-65140003D03*
X14750000Y-65140003D03*
X15250000Y-65140003D03*
X15750000Y-65140003D03*
X16250000Y-65140003D03*
X16750000Y-65140003D03*
X17250000Y-65140003D03*
X17750000Y-65140003D03*
D14*
X7560000Y-62560003D03*
X19440000Y-62600003D03*
%TD*%
D13*
%TO.C,FPC1*%
X26250000Y-28640001D03*
X26750000Y-28640001D03*
X27250000Y-28640001D03*
X27750000Y-28640001D03*
X28250000Y-28640001D03*
X28750000Y-28640001D03*
X29250000Y-28640001D03*
X29750000Y-28640001D03*
X30250000Y-28640001D03*
X30750000Y-28640001D03*
X31250000Y-28640001D03*
X31750000Y-28640001D03*
X32250000Y-28640001D03*
X32750000Y-28640001D03*
X33250000Y-28640001D03*
X33750000Y-28640001D03*
X34250000Y-28640001D03*
X34750000Y-28640001D03*
D14*
X24560000Y-26060001D03*
X36440000Y-26100001D03*
%TD*%
D10*
%TO.C,LED1*%
X37050000Y-34420001D03*
X35950000Y-34420001D03*
X35950000Y-32580001D03*
X37050000Y-32580001D03*
%TD*%
D12*
%TO.C,SW1*%
X49879999Y-92650004D03*
X45519999Y-92650004D03*
%TD*%
D13*
%TO.C,FPC1*%
X47250000Y-28640001D03*
X47750000Y-28640001D03*
X48250000Y-28640001D03*
X48750000Y-28640001D03*
X49250000Y-28640001D03*
X49750000Y-28640001D03*
X50250000Y-28640001D03*
X50750000Y-28640001D03*
X51250000Y-28640001D03*
X51750000Y-28640001D03*
X52250000Y-28640001D03*
X52750000Y-28640001D03*
X53250000Y-28640001D03*
X53750000Y-28640001D03*
X54250000Y-28640001D03*
X54750000Y-28640001D03*
X55250000Y-28640001D03*
X55750000Y-28640001D03*
D14*
X45560000Y-26060001D03*
X57440000Y-26100001D03*
%TD*%
D10*
%TO.C,LED2*%
X61950000Y-69080003D03*
X63050000Y-69080003D03*
X63050000Y-70920003D03*
X61950000Y-70920003D03*
%TD*%
D11*
%TO.C,R1*%
X7089999Y-17250000D03*
X8109999Y-17250000D03*
%TD*%
%TO.C,R1*%
X7089999Y-90250004D03*
X8109999Y-90250004D03*
%TD*%
D12*
%TO.C,SW1*%
X28879999Y-19650000D03*
X24519999Y-19650000D03*
%TD*%
%TO.C,SW1*%
X11879999Y-37900001D03*
X7519999Y-37900001D03*
%TD*%
D13*
%TO.C,FPC1*%
X9250000Y-83390004D03*
X9750000Y-83390004D03*
X10250000Y-83390004D03*
X10750000Y-83390004D03*
X11250000Y-83390004D03*
X11750000Y-83390004D03*
X12250000Y-83390004D03*
X12750000Y-83390004D03*
X13250000Y-83390004D03*
X13750000Y-83390004D03*
X14250000Y-83390004D03*
X14750000Y-83390004D03*
X15250000Y-83390004D03*
X15750000Y-83390004D03*
X16250000Y-83390004D03*
X16750000Y-83390004D03*
X17250000Y-83390004D03*
X17750000Y-83390004D03*
D14*
X7560000Y-80810004D03*
X19440000Y-80850004D03*
%TD*%
D10*
%TO.C,LED2*%
X23950000Y-50830002D03*
X25050000Y-50830002D03*
X25050000Y-52670002D03*
X23950000Y-52670002D03*
%TD*%
D11*
%TO.C,R1*%
X24089999Y-17250000D03*
X25109999Y-17250000D03*
%TD*%
D10*
%TO.C,LED1*%
X37050000Y-89170004D03*
X35950000Y-89170004D03*
X35950000Y-87330004D03*
X37050000Y-87330004D03*
%TD*%
D11*
%TO.C,R1*%
X45089999Y-35500001D03*
X46109999Y-35500001D03*
%TD*%
%TO.C,R1*%
X7089999Y-53750002D03*
X8109999Y-53750002D03*
%TD*%
D13*
%TO.C,FPC1*%
X26250000Y-10390000D03*
X26750000Y-10390000D03*
X27250000Y-10390000D03*
X27750000Y-10390000D03*
X28250000Y-10390000D03*
X28750000Y-10390000D03*
X29250000Y-10390000D03*
X29750000Y-10390000D03*
X30250000Y-10390000D03*
X30750000Y-10390000D03*
X31250000Y-10390000D03*
X31750000Y-10390000D03*
X32250000Y-10390000D03*
X32750000Y-10390000D03*
X33250000Y-10390000D03*
X33750000Y-10390000D03*
X34250000Y-10390000D03*
X34750000Y-10390000D03*
D14*
X24560000Y-7810000D03*
X36440000Y-7850000D03*
%TD*%
D11*
%TO.C,R1*%
X62089999Y-90250004D03*
X63109999Y-90250004D03*
%TD*%
D13*
%TO.C,FPC1*%
X64250000Y-28640001D03*
X64750000Y-28640001D03*
X65250000Y-28640001D03*
X65750000Y-28640001D03*
X66250000Y-28640001D03*
X66750000Y-28640001D03*
X67250000Y-28640001D03*
X67750000Y-28640001D03*
X68250000Y-28640001D03*
X68750000Y-28640001D03*
X69250000Y-28640001D03*
X69750000Y-28640001D03*
X70250000Y-28640001D03*
X70750000Y-28640001D03*
X71250000Y-28640001D03*
X71750000Y-28640001D03*
X72250000Y-28640001D03*
X72750000Y-28640001D03*
D14*
X62560000Y-26060001D03*
X74440000Y-26100001D03*
%TD*%
D11*
%TO.C,R1*%
X24089999Y-35500001D03*
X25109999Y-35500001D03*
%TD*%
%TO.C,R1*%
X45089999Y-53750002D03*
X46109999Y-53750002D03*
%TD*%
D10*
%TO.C,LED2*%
X61950000Y-32580001D03*
X63050000Y-32580001D03*
X63050000Y-34420001D03*
X61950000Y-34420001D03*
%TD*%
D13*
%TO.C,FPC1*%
X9250000Y-10390000D03*
X9750000Y-10390000D03*
X10250000Y-10390000D03*
X10750000Y-10390000D03*
X11250000Y-10390000D03*
X11750000Y-10390000D03*
X12250000Y-10390000D03*
X12750000Y-10390000D03*
X13250000Y-10390000D03*
X13750000Y-10390000D03*
X14250000Y-10390000D03*
X14750000Y-10390000D03*
X15250000Y-10390000D03*
X15750000Y-10390000D03*
X16250000Y-10390000D03*
X16750000Y-10390000D03*
X17250000Y-10390000D03*
X17750000Y-10390000D03*
D14*
X7560000Y-7810000D03*
X19440000Y-7850000D03*
%TD*%
D10*
%TO.C,LED1*%
X75050000Y-16170000D03*
X73950000Y-16170000D03*
X73950000Y-14330000D03*
X75050000Y-14330000D03*
%TD*%
D12*
%TO.C,SW1*%
X28879999Y-92650004D03*
X24519999Y-92650004D03*
%TD*%
D10*
%TO.C,LED1*%
X58050000Y-34420001D03*
X56950000Y-34420001D03*
X56950000Y-32580001D03*
X58050000Y-32580001D03*
%TD*%
%TO.C,LED2*%
X6950000Y-50830002D03*
X8050000Y-50830002D03*
X8050000Y-52670002D03*
X6950000Y-52670002D03*
%TD*%
D11*
%TO.C,R1*%
X62089999Y-35500001D03*
X63109999Y-35500001D03*
%TD*%
D12*
%TO.C,SW1*%
X28879999Y-74400003D03*
X24519999Y-74400003D03*
%TD*%
D10*
%TO.C,LED2*%
X23950000Y-14330000D03*
X25050000Y-14330000D03*
X25050000Y-16170000D03*
X23950000Y-16170000D03*
%TD*%
%TO.C,LED1*%
X37050000Y-52670002D03*
X35950000Y-52670002D03*
X35950000Y-50830002D03*
X37050000Y-50830002D03*
%TD*%
%TO.C,LED1*%
X75050000Y-89170004D03*
X73950000Y-89170004D03*
X73950000Y-87330004D03*
X75050000Y-87330004D03*
%TD*%
%TO.C,LED2*%
X44950000Y-69080003D03*
X46050000Y-69080003D03*
X46050000Y-70920003D03*
X44950000Y-70920003D03*
%TD*%
%TO.C,LED1*%
X75050000Y-52670002D03*
X73950000Y-52670002D03*
X73950000Y-50830002D03*
X75050000Y-50830002D03*
%TD*%
D12*
%TO.C,SW1*%
X66879999Y-92650004D03*
X62519999Y-92650004D03*
%TD*%
D13*
%TO.C,FPC1*%
X9250000Y-46890002D03*
X9750000Y-46890002D03*
X10250000Y-46890002D03*
X10750000Y-46890002D03*
X11250000Y-46890002D03*
X11750000Y-46890002D03*
X12250000Y-46890002D03*
X12750000Y-46890002D03*
X13250000Y-46890002D03*
X13750000Y-46890002D03*
X14250000Y-46890002D03*
X14750000Y-46890002D03*
X15250000Y-46890002D03*
X15750000Y-46890002D03*
X16250000Y-46890002D03*
X16750000Y-46890002D03*
X17250000Y-46890002D03*
X17750000Y-46890002D03*
D14*
X7560000Y-44310002D03*
X19440000Y-44350002D03*
%TD*%
D11*
%TO.C,R1*%
X45089999Y-17250000D03*
X46109999Y-17250000D03*
%TD*%
D13*
%TO.C,FPC1*%
X47250000Y-46890002D03*
X47750000Y-46890002D03*
X48250000Y-46890002D03*
X48750000Y-46890002D03*
X49250000Y-46890002D03*
X49750000Y-46890002D03*
X50250000Y-46890002D03*
X50750000Y-46890002D03*
X51250000Y-46890002D03*
X51750000Y-46890002D03*
X52250000Y-46890002D03*
X52750000Y-46890002D03*
X53250000Y-46890002D03*
X53750000Y-46890002D03*
X54250000Y-46890002D03*
X54750000Y-46890002D03*
X55250000Y-46890002D03*
X55750000Y-46890002D03*
D14*
X45560000Y-44310002D03*
X57440000Y-44350002D03*
%TD*%
D11*
%TO.C,R1*%
X24089999Y-90250004D03*
X25109999Y-90250004D03*
%TD*%
D10*
%TO.C,LED1*%
X20050000Y-70920003D03*
X18950000Y-70920003D03*
X18950000Y-69080003D03*
X20050000Y-69080003D03*
%TD*%
D11*
%TO.C,R1*%
X62089999Y-53750002D03*
X63109999Y-53750002D03*
%TD*%
D10*
%TO.C,LED1*%
X20050000Y-16170000D03*
X18950000Y-16170000D03*
X18950000Y-14330000D03*
X20050000Y-14330000D03*
%TD*%
%TO.C,LED2*%
X23950000Y-32580001D03*
X25050000Y-32580001D03*
X25050000Y-34420001D03*
X23950000Y-34420001D03*
%TD*%
D12*
%TO.C,SW1*%
X66879999Y-56150002D03*
X62519999Y-56150002D03*
%TD*%
D13*
%TO.C,FPC1*%
X26250000Y-46890002D03*
X26750000Y-46890002D03*
X27250000Y-46890002D03*
X27750000Y-46890002D03*
X28250000Y-46890002D03*
X28750000Y-46890002D03*
X29250000Y-46890002D03*
X29750000Y-46890002D03*
X30250000Y-46890002D03*
X30750000Y-46890002D03*
X31250000Y-46890002D03*
X31750000Y-46890002D03*
X32250000Y-46890002D03*
X32750000Y-46890002D03*
X33250000Y-46890002D03*
X33750000Y-46890002D03*
X34250000Y-46890002D03*
X34750000Y-46890002D03*
D14*
X24560000Y-44310002D03*
X36440000Y-44350002D03*
%TD*%
D11*
%TO.C,R1*%
X45089999Y-90250004D03*
X46109999Y-90250004D03*
%TD*%
D12*
%TO.C,SW1*%
X28879999Y-37900001D03*
X24519999Y-37900001D03*
%TD*%
D11*
%TO.C,R1*%
X62089999Y-72000003D03*
X63109999Y-72000003D03*
%TD*%
D12*
%TO.C,SW1*%
X28879999Y-56150002D03*
X24519999Y-56150002D03*
%TD*%
D13*
%TO.C,FPC1*%
X64250000Y-83390004D03*
X64750000Y-83390004D03*
X65250000Y-83390004D03*
X65750000Y-83390004D03*
X66250000Y-83390004D03*
X66750000Y-83390004D03*
X67250000Y-83390004D03*
X67750000Y-83390004D03*
X68250000Y-83390004D03*
X68750000Y-83390004D03*
X69250000Y-83390004D03*
X69750000Y-83390004D03*
X70250000Y-83390004D03*
X70750000Y-83390004D03*
X71250000Y-83390004D03*
X71750000Y-83390004D03*
X72250000Y-83390004D03*
X72750000Y-83390004D03*
D14*
X62560000Y-80810004D03*
X74440000Y-80850004D03*
%TD*%
D13*
%TO.C,FPC1*%
X64250000Y-65140003D03*
X64750000Y-65140003D03*
X65250000Y-65140003D03*
X65750000Y-65140003D03*
X66250000Y-65140003D03*
X66750000Y-65140003D03*
X67250000Y-65140003D03*
X67750000Y-65140003D03*
X68250000Y-65140003D03*
X68750000Y-65140003D03*
X69250000Y-65140003D03*
X69750000Y-65140003D03*
X70250000Y-65140003D03*
X70750000Y-65140003D03*
X71250000Y-65140003D03*
X71750000Y-65140003D03*
X72250000Y-65140003D03*
X72750000Y-65140003D03*
D14*
X62560000Y-62560003D03*
X74440000Y-62600003D03*
%TD*%
D12*
%TO.C,SW1*%
X11879999Y-92650004D03*
X7519999Y-92650004D03*
%TD*%
D10*
%TO.C,LED2*%
X61950000Y-50830002D03*
X63050000Y-50830002D03*
X63050000Y-52670002D03*
X61950000Y-52670002D03*
%TD*%
D11*
%TO.C,R1*%
X7089999Y-72000003D03*
X8109999Y-72000003D03*
%TD*%
D10*
%TO.C,LED1*%
X58050000Y-70920003D03*
X56950000Y-70920003D03*
X56950000Y-69080003D03*
X58050000Y-69080003D03*
%TD*%
D12*
%TO.C,SW1*%
X49879999Y-56150002D03*
X45519999Y-56150002D03*
%TD*%
D10*
%TO.C,LED1*%
X20050000Y-34420001D03*
X18950000Y-34420001D03*
X18950000Y-32580001D03*
X20050000Y-32580001D03*
%TD*%
D11*
%TO.C,R1*%
X7089999Y-35500001D03*
X8109999Y-35500001D03*
%TD*%
D12*
%TO.C,SW1*%
X49879999Y-19650000D03*
X45519999Y-19650000D03*
%TD*%
%TO.C,SW1*%
X49879999Y-74400003D03*
X45519999Y-74400003D03*
%TD*%
D13*
%TO.C,FPC1*%
X47250000Y-65140003D03*
X47750000Y-65140003D03*
X48250000Y-65140003D03*
X48750000Y-65140003D03*
X49250000Y-65140003D03*
X49750000Y-65140003D03*
X50250000Y-65140003D03*
X50750000Y-65140003D03*
X51250000Y-65140003D03*
X51750000Y-65140003D03*
X52250000Y-65140003D03*
X52750000Y-65140003D03*
X53250000Y-65140003D03*
X53750000Y-65140003D03*
X54250000Y-65140003D03*
X54750000Y-65140003D03*
X55250000Y-65140003D03*
X55750000Y-65140003D03*
D14*
X45560000Y-62560003D03*
X57440000Y-62600003D03*
%TD*%
D10*
%TO.C,LED2*%
X6950000Y-87330004D03*
X8050000Y-87330004D03*
X8050000Y-89170004D03*
X6950000Y-89170004D03*
%TD*%
%TO.C,LED1*%
X58050000Y-89170004D03*
X56950000Y-89170004D03*
X56950000Y-87330004D03*
X58050000Y-87330004D03*
%TD*%
D13*
%TO.C,FPC1*%
X26250000Y-65140003D03*
X26750000Y-65140003D03*
X27250000Y-65140003D03*
X27750000Y-65140003D03*
X28250000Y-65140003D03*
X28750000Y-65140003D03*
X29250000Y-65140003D03*
X29750000Y-65140003D03*
X30250000Y-65140003D03*
X30750000Y-65140003D03*
X31250000Y-65140003D03*
X31750000Y-65140003D03*
X32250000Y-65140003D03*
X32750000Y-65140003D03*
X33250000Y-65140003D03*
X33750000Y-65140003D03*
X34250000Y-65140003D03*
X34750000Y-65140003D03*
D14*
X24560000Y-62560003D03*
X36440000Y-62600003D03*
%TD*%
D11*
%TO.C,R1*%
X62089999Y-17250000D03*
X63109999Y-17250000D03*
%TD*%
D10*
%TO.C,LED1*%
X20050000Y-89170004D03*
X18950000Y-89170004D03*
X18950000Y-87330004D03*
X20050000Y-87330004D03*
%TD*%
D13*
%TO.C,FPC1*%
X47250000Y-83390004D03*
X47750000Y-83390004D03*
X48250000Y-83390004D03*
X48750000Y-83390004D03*
X49250000Y-83390004D03*
X49750000Y-83390004D03*
X50250000Y-83390004D03*
X50750000Y-83390004D03*
X51250000Y-83390004D03*
X51750000Y-83390004D03*
X52250000Y-83390004D03*
X52750000Y-83390004D03*
X53250000Y-83390004D03*
X53750000Y-83390004D03*
X54250000Y-83390004D03*
X54750000Y-83390004D03*
X55250000Y-83390004D03*
X55750000Y-83390004D03*
D14*
X45560000Y-80810004D03*
X57440000Y-80850004D03*
%TD*%
D10*
%TO.C,LED2*%
X6950000Y-14330000D03*
X8050000Y-14330000D03*
X8050000Y-16170000D03*
X6950000Y-16170000D03*
%TD*%
%TO.C,LED2*%
X6950000Y-32580001D03*
X8050000Y-32580001D03*
X8050000Y-34420001D03*
X6950000Y-34420001D03*
%TD*%
%TO.C,LED2*%
X44950000Y-50830002D03*
X46050000Y-50830002D03*
X46050000Y-52670002D03*
X44950000Y-52670002D03*
%TD*%
D13*
%TO.C,FPC1*%
X26250000Y-83390004D03*
X26750000Y-83390004D03*
X27250000Y-83390004D03*
X27750000Y-83390004D03*
X28250000Y-83390004D03*
X28750000Y-83390004D03*
X29250000Y-83390004D03*
X29750000Y-83390004D03*
X30250000Y-83390004D03*
X30750000Y-83390004D03*
X31250000Y-83390004D03*
X31750000Y-83390004D03*
X32250000Y-83390004D03*
X32750000Y-83390004D03*
X33250000Y-83390004D03*
X33750000Y-83390004D03*
X34250000Y-83390004D03*
X34750000Y-83390004D03*
D14*
X24560000Y-80810004D03*
X36440000Y-80850004D03*
%TD*%
M02*
