M48
; DRILL file {KiCad 8.0.5-unknown-202409181836~355805756e~ubuntu22.04.1} date 2024-10-12T17:37:09+0100
; FORMAT={-:-/ absolute / inch / decimal}
; #@! TF.CreationDate,2024-10-12T17:37:09+01:00
; #@! TF.GenerationSoftware,Kicad,Pcbnew,8.0.5-unknown-202409181836~355805756e~ubuntu22.04.1
; #@! TF.FileFunction,Plated,1,4,PTH
FMAT,2
INCH
; #@! TA.AperFunction,Plated,PTH,ViaDrill
T1C0.0118
; #@! TA.AperFunction,Plated,PTH,ComponentDrill
T2C0.0256
; #@! TA.AperFunction,Plated,PTH,ComponentDrill
T3C0.0394
%
G90
G05
T1
X0.2598Y-0.5295
X0.2598Y-1.248
X0.2598Y-1.9665
X0.2598Y-2.685
X0.2598Y-3.4035
X0.2736Y-0.2756
X0.2736Y-0.3425
X0.2736Y-0.9941
X0.2736Y-1.061
X0.2736Y-1.7126
X0.2736Y-1.7795
X0.2736Y-2.4311
X0.2736Y-2.498
X0.2736Y-3.1496
X0.2736Y-3.2165
X0.2976Y-0.3091
X0.2976Y-1.0276
X0.2976Y-1.7461
X0.2976Y-2.4646
X0.2976Y-3.1831
X0.3209Y-0.2756
X0.3209Y-0.3425
X0.3209Y-0.9941
X0.3209Y-1.061
X0.3209Y-1.7126
X0.3209Y-1.7795
X0.3209Y-2.4311
X0.3209Y-2.498
X0.3209Y-3.1496
X0.3209Y-3.2165
X0.3465Y-0.8051
X0.3465Y-1.5236
X0.3465Y-2.2421
X0.3465Y-2.9606
X0.3465Y-3.6791
X0.352Y-0.5992
X0.352Y-1.3177
X0.352Y-2.0362
X0.352Y-2.7547
X0.352Y-3.4732
X0.3529Y-0.5359
X0.3529Y-1.2544
X0.3529Y-1.9729
X0.3529Y-2.6914
X0.3529Y-3.4099
X0.3559Y-0.6492
X0.3559Y-1.3677
X0.3559Y-2.0862
X0.3559Y-2.8047
X0.3559Y-3.5232
X0.3622Y-0.7028
X0.3622Y-1.4213
X0.3622Y-2.1398
X0.3622Y-2.8583
X0.3622Y-3.5768
X0.4213Y-0.5846
X0.4213Y-0.6161
X0.4213Y-0.6437
X0.4213Y-0.6791
X0.4213Y-1.3031
X0.4213Y-1.3346
X0.4213Y-1.3622
X0.4213Y-1.3976
X0.4213Y-2.0217
X0.4213Y-2.0531
X0.4213Y-2.0807
X0.4213Y-2.1161
X0.4213Y-2.7402
X0.4213Y-2.7717
X0.4213Y-2.7992
X0.4213Y-2.8346
X0.4213Y-3.4587
X0.4213Y-3.4902
X0.4213Y-3.5177
X0.4213Y-3.5531
X0.4232Y-0.3583
X0.4232Y-1.0768
X0.4232Y-1.7953
X0.4232Y-2.5138
X0.4232Y-3.2323
X0.437Y-0.813
X0.437Y-1.5315
X0.437Y-2.25
X0.437Y-2.9685
X0.437Y-3.687
X0.4429Y-0.3701
X0.4429Y-1.0886
X0.4429Y-1.8071
X0.4429Y-2.5256
X0.4429Y-3.2441
X0.4626Y-0.3583
X0.4626Y-1.0768
X0.4626Y-1.7953
X0.4626Y-2.5138
X0.4626Y-3.2323
X0.4823Y-0.3701
X0.4823Y-1.0886
X0.4823Y-1.8071
X0.4823Y-2.5256
X0.4823Y-3.2441
X0.502Y-0.3583
X0.502Y-0.6496
X0.502Y-1.0768
X0.502Y-1.3681
X0.502Y-1.7953
X0.502Y-2.0866
X0.502Y-2.5138
X0.502Y-2.8051
X0.502Y-3.2323
X0.502Y-3.5236
X0.5217Y-0.3701
X0.5217Y-1.0886
X0.5217Y-1.8071
X0.5217Y-2.5256
X0.5217Y-3.2441
X0.5315Y-0.6299
X0.5315Y-1.3484
X0.5315Y-2.0669
X0.5315Y-2.7854
X0.5315Y-3.5039
X0.5591Y-0.5925
X0.5591Y-0.6161
X0.5591Y-0.6398
X0.5591Y-1.311
X0.5591Y-1.3346
X0.5591Y-1.3583
X0.5591Y-2.0295
X0.5591Y-2.0531
X0.5591Y-2.0768
X0.5591Y-2.748
X0.5591Y-2.7717
X0.5591Y-2.7953
X0.5591Y-3.4665
X0.5591Y-3.4902
X0.5591Y-3.5138
X0.5787Y-0.628
X0.5787Y-1.3465
X0.5787Y-2.065
X0.5787Y-2.7835
X0.5787Y-3.502
X0.6102Y-0.5433
X0.6102Y-0.6122
X0.6102Y-1.2618
X0.6102Y-1.3307
X0.6102Y-1.9803
X0.6102Y-2.0492
X0.6102Y-2.6988
X0.6102Y-2.7677
X0.6102Y-3.4173
X0.6102Y-3.4862
X0.6201Y-0.3701
X0.6201Y-1.0886
X0.6201Y-1.8071
X0.6201Y-2.5256
X0.6201Y-3.2441
X0.6398Y-0.3583
X0.6398Y-1.0768
X0.6398Y-1.7953
X0.6398Y-2.5138
X0.6398Y-3.2323
X0.6594Y-0.3701
X0.6594Y-1.0886
X0.6594Y-1.8071
X0.6594Y-2.5256
X0.6594Y-3.2441
X0.6791Y-0.6142
X0.6791Y-0.6437
X0.6791Y-1.3327
X0.6791Y-1.3622
X0.6791Y-2.0512
X0.6791Y-2.0807
X0.6791Y-2.7697
X0.6791Y-2.7992
X0.6791Y-3.4882
X0.6791Y-3.5177
X0.7067Y-0.6142
X0.7067Y-0.6437
X0.7067Y-1.3327
X0.7067Y-1.3622
X0.7067Y-2.0512
X0.7067Y-2.0807
X0.7067Y-2.7697
X0.7067Y-2.7992
X0.7067Y-3.4882
X0.7067Y-3.5177
X0.7421Y-0.2756
X0.7421Y-0.3425
X0.7421Y-0.9941
X0.7421Y-1.061
X0.7421Y-1.7126
X0.7421Y-1.7795
X0.7421Y-2.4311
X0.7421Y-2.498
X0.7421Y-3.1496
X0.7421Y-3.2165
X0.7461Y-0.5644
X0.7461Y-1.2829
X0.7461Y-2.0014
X0.7461Y-2.7199
X0.7461Y-3.4384
X0.7654Y-0.3091
X0.7654Y-1.0276
X0.7654Y-1.7461
X0.7654Y-2.4646
X0.7654Y-3.1831
X0.7697Y-0.6772
X0.7697Y-1.3957
X0.7697Y-2.1142
X0.7697Y-2.8327
X0.7697Y-3.5512
X0.7701Y-0.5217
X0.7701Y-1.2402
X0.7701Y-1.9587
X0.7701Y-2.6772
X0.7701Y-3.3957
X0.778Y-0.7
X0.778Y-1.4185
X0.778Y-2.137
X0.778Y-2.8555
X0.778Y-3.574
X0.7791Y-0.5969
X0.7791Y-1.3154
X0.7791Y-2.0339
X0.7791Y-2.7524
X0.7791Y-3.4709
X0.7894Y-0.2756
X0.7894Y-0.3425
X0.7894Y-0.9941
X0.7894Y-1.061
X0.7894Y-1.7126
X0.7894Y-1.7795
X0.7894Y-2.4311
X0.7894Y-2.498
X0.7894Y-3.1496
X0.7894Y-3.2165
X0.7965Y-0.6685
X0.7965Y-1.387
X0.7965Y-2.1055
X0.7965Y-2.824
X0.7965Y-3.5425
X0.7992Y-0.6906
X0.7992Y-1.4091
X0.7992Y-2.1276
X0.7992Y-2.8461
X0.7992Y-3.5646
X0.9291Y-0.5295
X0.9291Y-1.248
X0.9291Y-1.9665
X0.9291Y-2.685
X0.9291Y-3.4035
X0.9429Y-0.2756
X0.9429Y-0.3425
X0.9429Y-0.9941
X0.9429Y-1.061
X0.9429Y-1.7126
X0.9429Y-1.7795
X0.9429Y-2.4311
X0.9429Y-2.498
X0.9429Y-3.1496
X0.9429Y-3.2165
X0.9669Y-0.3091
X0.9669Y-1.0276
X0.9669Y-1.7461
X0.9669Y-2.4646
X0.9669Y-3.1831
X0.9902Y-0.2756
X0.9902Y-0.3425
X0.9902Y-0.9941
X0.9902Y-1.061
X0.9902Y-1.7126
X0.9902Y-1.7795
X0.9902Y-2.4311
X0.9902Y-2.498
X0.9902Y-3.1496
X0.9902Y-3.2165
X1.0157Y-0.8051
X1.0157Y-1.5236
X1.0157Y-2.2421
X1.0157Y-2.9606
X1.0157Y-3.6791
X1.0213Y-0.5992
X1.0213Y-1.3177
X1.0213Y-2.0362
X1.0213Y-2.7547
X1.0213Y-3.4732
X1.0221Y-0.5359
X1.0221Y-1.2544
X1.0221Y-1.9729
X1.0221Y-2.6914
X1.0221Y-3.4099
X1.0252Y-0.6492
X1.0252Y-1.3677
X1.0252Y-2.0862
X1.0252Y-2.8047
X1.0252Y-3.5232
X1.0315Y-0.7028
X1.0315Y-1.4213
X1.0315Y-2.1398
X1.0315Y-2.8583
X1.0315Y-3.5768
X1.0906Y-0.5846
X1.0906Y-0.6161
X1.0906Y-0.6437
X1.0906Y-0.6791
X1.0906Y-1.3031
X1.0906Y-1.3346
X1.0906Y-1.3622
X1.0906Y-1.3976
X1.0906Y-2.0217
X1.0906Y-2.0531
X1.0906Y-2.0807
X1.0906Y-2.1161
X1.0906Y-2.7402
X1.0906Y-2.7717
X1.0906Y-2.7992
X1.0906Y-2.8346
X1.0906Y-3.4587
X1.0906Y-3.4902
X1.0906Y-3.5177
X1.0906Y-3.5531
X1.0925Y-0.3583
X1.0925Y-1.0768
X1.0925Y-1.7953
X1.0925Y-2.5138
X1.0925Y-3.2323
X1.1063Y-0.813
X1.1063Y-1.5315
X1.1063Y-2.25
X1.1063Y-2.9685
X1.1063Y-3.687
X1.1122Y-0.3701
X1.1122Y-1.0886
X1.1122Y-1.8071
X1.1122Y-2.5256
X1.1122Y-3.2441
X1.1319Y-0.3583
X1.1319Y-1.0768
X1.1319Y-1.7953
X1.1319Y-2.5138
X1.1319Y-3.2323
X1.1516Y-0.3701
X1.1516Y-1.0886
X1.1516Y-1.8071
X1.1516Y-2.5256
X1.1516Y-3.2441
X1.1713Y-0.3583
X1.1713Y-0.6496
X1.1713Y-1.0768
X1.1713Y-1.3681
X1.1713Y-1.7953
X1.1713Y-2.0866
X1.1713Y-2.5138
X1.1713Y-2.8051
X1.1713Y-3.2323
X1.1713Y-3.5236
X1.1909Y-0.3701
X1.1909Y-1.0886
X1.1909Y-1.8071
X1.1909Y-2.5256
X1.1909Y-3.2441
X1.2008Y-0.6299
X1.2008Y-1.3484
X1.2008Y-2.0669
X1.2008Y-2.7854
X1.2008Y-3.5039
X1.2283Y-0.5925
X1.2283Y-0.6161
X1.2283Y-0.6398
X1.2283Y-1.311
X1.2283Y-1.3346
X1.2283Y-1.3583
X1.2283Y-2.0295
X1.2283Y-2.0531
X1.2283Y-2.0768
X1.2283Y-2.748
X1.2283Y-2.7717
X1.2283Y-2.7953
X1.2283Y-3.4665
X1.2283Y-3.4902
X1.2283Y-3.5138
X1.248Y-0.628
X1.248Y-1.3465
X1.248Y-2.065
X1.248Y-2.7835
X1.248Y-3.502
X1.2795Y-0.5433
X1.2795Y-0.6122
X1.2795Y-1.2618
X1.2795Y-1.3307
X1.2795Y-1.9803
X1.2795Y-2.0492
X1.2795Y-2.6988
X1.2795Y-2.7677
X1.2795Y-3.4173
X1.2795Y-3.4862
X1.2894Y-0.3701
X1.2894Y-1.0886
X1.2894Y-1.8071
X1.2894Y-2.5256
X1.2894Y-3.2441
X1.3091Y-0.3583
X1.3091Y-1.0768
X1.3091Y-1.7953
X1.3091Y-2.5138
X1.3091Y-3.2323
X1.3287Y-0.3701
X1.3287Y-1.0886
X1.3287Y-1.8071
X1.3287Y-2.5256
X1.3287Y-3.2441
X1.3484Y-0.6142
X1.3484Y-0.6437
X1.3484Y-1.3327
X1.3484Y-1.3622
X1.3484Y-2.0512
X1.3484Y-2.0807
X1.3484Y-2.7697
X1.3484Y-2.7992
X1.3484Y-3.4882
X1.3484Y-3.5177
X1.376Y-0.6142
X1.376Y-0.6437
X1.376Y-1.3327
X1.376Y-1.3622
X1.376Y-2.0512
X1.376Y-2.0807
X1.376Y-2.7697
X1.376Y-2.7992
X1.376Y-3.4882
X1.376Y-3.5177
X1.4114Y-0.2756
X1.4114Y-0.3425
X1.4114Y-0.9941
X1.4114Y-1.061
X1.4114Y-1.7126
X1.4114Y-1.7795
X1.4114Y-2.4311
X1.4114Y-2.498
X1.4114Y-3.1496
X1.4114Y-3.2165
X1.4154Y-0.5644
X1.4154Y-1.2829
X1.4154Y-2.0014
X1.4154Y-2.7199
X1.4154Y-3.4384
X1.4346Y-0.3091
X1.4346Y-1.0276
X1.4346Y-1.7461
X1.4346Y-2.4646
X1.4346Y-3.1831
X1.439Y-0.6772
X1.439Y-1.3957
X1.439Y-2.1142
X1.439Y-2.8327
X1.439Y-3.5512
X1.4394Y-0.5217
X1.4394Y-1.2402
X1.4394Y-1.9587
X1.4394Y-2.6772
X1.4394Y-3.3957
X1.4472Y-0.7
X1.4472Y-1.4185
X1.4472Y-2.137
X1.4472Y-2.8555
X1.4472Y-3.574
X1.4484Y-0.5969
X1.4484Y-1.3154
X1.4484Y-2.0339
X1.4484Y-2.7524
X1.4484Y-3.4709
X1.4587Y-0.2756
X1.4587Y-0.3425
X1.4587Y-0.9941
X1.4587Y-1.061
X1.4587Y-1.7126
X1.4587Y-1.7795
X1.4587Y-2.4311
X1.4587Y-2.498
X1.4587Y-3.1496
X1.4587Y-3.2165
X1.4657Y-0.6685
X1.4657Y-1.387
X1.4657Y-2.1055
X1.4657Y-2.824
X1.4657Y-3.5425
X1.4685Y-0.6906
X1.4685Y-1.4091
X1.4685Y-2.1276
X1.4685Y-2.8461
X1.4685Y-3.5646
X1.7559Y-0.5295
X1.7559Y-1.248
X1.7559Y-1.9665
X1.7559Y-2.685
X1.7559Y-3.4035
X1.7697Y-0.2756
X1.7697Y-0.3425
X1.7697Y-0.9941
X1.7697Y-1.061
X1.7697Y-1.7126
X1.7697Y-1.7795
X1.7697Y-2.4311
X1.7697Y-2.498
X1.7697Y-3.1496
X1.7697Y-3.2165
X1.7937Y-0.3091
X1.7937Y-1.0276
X1.7937Y-1.7461
X1.7937Y-2.4646
X1.7937Y-3.1831
X1.8169Y-0.2756
X1.8169Y-0.3425
X1.8169Y-0.9941
X1.8169Y-1.061
X1.8169Y-1.7126
X1.8169Y-1.7795
X1.8169Y-2.4311
X1.8169Y-2.498
X1.8169Y-3.1496
X1.8169Y-3.2165
X1.8425Y-0.8051
X1.8425Y-1.5236
X1.8425Y-2.2421
X1.8425Y-2.9606
X1.8425Y-3.6791
X1.848Y-0.5992
X1.848Y-1.3177
X1.848Y-2.0362
X1.848Y-2.7547
X1.848Y-3.4732
X1.8489Y-0.5359
X1.8489Y-1.2544
X1.8489Y-1.9729
X1.8489Y-2.6914
X1.8489Y-3.4099
X1.852Y-0.6492
X1.852Y-1.3677
X1.852Y-2.0862
X1.852Y-2.8047
X1.852Y-3.5232
X1.8583Y-0.7028
X1.8583Y-1.4213
X1.8583Y-2.1398
X1.8583Y-2.8583
X1.8583Y-3.5768
X1.9173Y-0.5846
X1.9173Y-0.6161
X1.9173Y-0.6437
X1.9173Y-0.6791
X1.9173Y-1.3031
X1.9173Y-1.3346
X1.9173Y-1.3622
X1.9173Y-1.3976
X1.9173Y-2.0217
X1.9173Y-2.0531
X1.9173Y-2.0807
X1.9173Y-2.1161
X1.9173Y-2.7402
X1.9173Y-2.7717
X1.9173Y-2.7992
X1.9173Y-2.8346
X1.9173Y-3.4587
X1.9173Y-3.4902
X1.9173Y-3.5177
X1.9173Y-3.5531
X1.9193Y-0.3583
X1.9193Y-1.0768
X1.9193Y-1.7953
X1.9193Y-2.5138
X1.9193Y-3.2323
X1.9331Y-0.813
X1.9331Y-1.5315
X1.9331Y-2.25
X1.9331Y-2.9685
X1.9331Y-3.687
X1.939Y-0.3701
X1.939Y-1.0886
X1.939Y-1.8071
X1.939Y-2.5256
X1.939Y-3.2441
X1.9587Y-0.3583
X1.9587Y-1.0768
X1.9587Y-1.7953
X1.9587Y-2.5138
X1.9587Y-3.2323
X1.9783Y-0.3701
X1.9783Y-1.0886
X1.9783Y-1.8071
X1.9783Y-2.5256
X1.9783Y-3.2441
X1.998Y-0.3583
X1.998Y-0.6496
X1.998Y-1.0768
X1.998Y-1.3681
X1.998Y-1.7953
X1.998Y-2.0866
X1.998Y-2.5138
X1.998Y-2.8051
X1.998Y-3.2323
X1.998Y-3.5236
X2.0177Y-0.3701
X2.0177Y-1.0886
X2.0177Y-1.8071
X2.0177Y-2.5256
X2.0177Y-3.2441
X2.0276Y-0.6299
X2.0276Y-1.3484
X2.0276Y-2.0669
X2.0276Y-2.7854
X2.0276Y-3.5039
X2.0551Y-0.5925
X2.0551Y-0.6161
X2.0551Y-0.6398
X2.0551Y-1.311
X2.0551Y-1.3346
X2.0551Y-1.3583
X2.0551Y-2.0295
X2.0551Y-2.0531
X2.0551Y-2.0768
X2.0551Y-2.748
X2.0551Y-2.7717
X2.0551Y-2.7953
X2.0551Y-3.4665
X2.0551Y-3.4902
X2.0551Y-3.5138
X2.0748Y-0.628
X2.0748Y-1.3465
X2.0748Y-2.065
X2.0748Y-2.7835
X2.0748Y-3.502
X2.1063Y-0.5433
X2.1063Y-0.6122
X2.1063Y-1.2618
X2.1063Y-1.3307
X2.1063Y-1.9803
X2.1063Y-2.0492
X2.1063Y-2.6988
X2.1063Y-2.7677
X2.1063Y-3.4173
X2.1063Y-3.4862
X2.1161Y-0.3701
X2.1161Y-1.0886
X2.1161Y-1.8071
X2.1161Y-2.5256
X2.1161Y-3.2441
X2.1358Y-0.3583
X2.1358Y-1.0768
X2.1358Y-1.7953
X2.1358Y-2.5138
X2.1358Y-3.2323
X2.1555Y-0.3701
X2.1555Y-1.0886
X2.1555Y-1.8071
X2.1555Y-2.5256
X2.1555Y-3.2441
X2.1752Y-0.6142
X2.1752Y-0.6437
X2.1752Y-1.3327
X2.1752Y-1.3622
X2.1752Y-2.0512
X2.1752Y-2.0807
X2.1752Y-2.7697
X2.1752Y-2.7992
X2.1752Y-3.4882
X2.1752Y-3.5177
X2.2028Y-0.6142
X2.2028Y-0.6437
X2.2028Y-1.3327
X2.2028Y-1.3622
X2.2028Y-2.0512
X2.2028Y-2.0807
X2.2028Y-2.7697
X2.2028Y-2.7992
X2.2028Y-3.4882
X2.2028Y-3.5177
X2.2382Y-0.2756
X2.2382Y-0.3425
X2.2382Y-0.9941
X2.2382Y-1.061
X2.2382Y-1.7126
X2.2382Y-1.7795
X2.2382Y-2.4311
X2.2382Y-2.498
X2.2382Y-3.1496
X2.2382Y-3.2165
X2.2421Y-0.5644
X2.2421Y-1.2829
X2.2421Y-2.0014
X2.2421Y-2.7199
X2.2421Y-3.4384
X2.2614Y-0.3091
X2.2614Y-1.0276
X2.2614Y-1.7461
X2.2614Y-2.4646
X2.2614Y-3.1831
X2.2657Y-0.6772
X2.2657Y-1.3957
X2.2657Y-2.1142
X2.2657Y-2.8327
X2.2657Y-3.5512
X2.2661Y-0.5217
X2.2661Y-1.2402
X2.2661Y-1.9587
X2.2661Y-2.6772
X2.2661Y-3.3957
X2.274Y-0.7
X2.274Y-1.4185
X2.274Y-2.137
X2.274Y-2.8555
X2.274Y-3.574
X2.2752Y-0.5969
X2.2752Y-1.3154
X2.2752Y-2.0339
X2.2752Y-2.7524
X2.2752Y-3.4709
X2.2854Y-0.2756
X2.2854Y-0.3425
X2.2854Y-0.9941
X2.2854Y-1.061
X2.2854Y-1.7126
X2.2854Y-1.7795
X2.2854Y-2.4311
X2.2854Y-2.498
X2.2854Y-3.1496
X2.2854Y-3.2165
X2.2925Y-0.6685
X2.2925Y-1.387
X2.2925Y-2.1055
X2.2925Y-2.824
X2.2925Y-3.5425
X2.2953Y-0.6906
X2.2953Y-1.4091
X2.2953Y-2.1276
X2.2953Y-2.8461
X2.2953Y-3.5646
X2.4252Y-0.5295
X2.4252Y-1.248
X2.4252Y-1.9665
X2.4252Y-2.685
X2.4252Y-3.4035
X2.439Y-0.2756
X2.439Y-0.3425
X2.439Y-0.9941
X2.439Y-1.061
X2.439Y-1.7126
X2.439Y-1.7795
X2.439Y-2.4311
X2.439Y-2.498
X2.439Y-3.1496
X2.439Y-3.2165
X2.463Y-0.3091
X2.463Y-1.0276
X2.463Y-1.7461
X2.463Y-2.4646
X2.463Y-3.1831
X2.4862Y-0.2756
X2.4862Y-0.3425
X2.4862Y-0.9941
X2.4862Y-1.061
X2.4862Y-1.7126
X2.4862Y-1.7795
X2.4862Y-2.4311
X2.4862Y-2.498
X2.4862Y-3.1496
X2.4862Y-3.2165
X2.5118Y-0.8051
X2.5118Y-1.5236
X2.5118Y-2.2421
X2.5118Y-2.9606
X2.5118Y-3.6791
X2.5173Y-0.5992
X2.5173Y-1.3177
X2.5173Y-2.0362
X2.5173Y-2.7547
X2.5173Y-3.4732
X2.5182Y-0.5359
X2.5182Y-1.2544
X2.5182Y-1.9729
X2.5182Y-2.6914
X2.5182Y-3.4099
X2.5213Y-0.6492
X2.5213Y-1.3677
X2.5213Y-2.0862
X2.5213Y-2.8047
X2.5213Y-3.5232
X2.5276Y-0.7028
X2.5276Y-1.4213
X2.5276Y-2.1398
X2.5276Y-2.8583
X2.5276Y-3.5768
X2.5866Y-0.5846
X2.5866Y-0.6161
X2.5866Y-0.6437
X2.5866Y-0.6791
X2.5866Y-1.3031
X2.5866Y-1.3346
X2.5866Y-1.3622
X2.5866Y-1.3976
X2.5866Y-2.0217
X2.5866Y-2.0531
X2.5866Y-2.0807
X2.5866Y-2.1161
X2.5866Y-2.7402
X2.5866Y-2.7717
X2.5866Y-2.7992
X2.5866Y-2.8346
X2.5866Y-3.4587
X2.5866Y-3.4902
X2.5866Y-3.5177
X2.5866Y-3.5531
X2.5886Y-0.3583
X2.5886Y-1.0768
X2.5886Y-1.7953
X2.5886Y-2.5138
X2.5886Y-3.2323
X2.6024Y-0.813
X2.6024Y-1.5315
X2.6024Y-2.25
X2.6024Y-2.9685
X2.6024Y-3.687
X2.6083Y-0.3701
X2.6083Y-1.0886
X2.6083Y-1.8071
X2.6083Y-2.5256
X2.6083Y-3.2441
X2.628Y-0.3583
X2.628Y-1.0768
X2.628Y-1.7953
X2.628Y-2.5138
X2.628Y-3.2323
X2.6476Y-0.3701
X2.6476Y-1.0886
X2.6476Y-1.8071
X2.6476Y-2.5256
X2.6476Y-3.2441
X2.6673Y-0.3583
X2.6673Y-0.6496
X2.6673Y-1.0768
X2.6673Y-1.3681
X2.6673Y-1.7953
X2.6673Y-2.0866
X2.6673Y-2.5138
X2.6673Y-2.8051
X2.6673Y-3.2323
X2.6673Y-3.5236
X2.687Y-0.3701
X2.687Y-1.0886
X2.687Y-1.8071
X2.687Y-2.5256
X2.687Y-3.2441
X2.6969Y-0.6299
X2.6969Y-1.3484
X2.6969Y-2.0669
X2.6969Y-2.7854
X2.6969Y-3.5039
X2.7244Y-0.5925
X2.7244Y-0.6161
X2.7244Y-0.6398
X2.7244Y-1.311
X2.7244Y-1.3346
X2.7244Y-1.3583
X2.7244Y-2.0295
X2.7244Y-2.0531
X2.7244Y-2.0768
X2.7244Y-2.748
X2.7244Y-2.7717
X2.7244Y-2.7953
X2.7244Y-3.4665
X2.7244Y-3.4902
X2.7244Y-3.5138
X2.7441Y-0.628
X2.7441Y-1.3465
X2.7441Y-2.065
X2.7441Y-2.7835
X2.7441Y-3.502
X2.7756Y-0.5433
X2.7756Y-0.6122
X2.7756Y-1.2618
X2.7756Y-1.3307
X2.7756Y-1.9803
X2.7756Y-2.0492
X2.7756Y-2.6988
X2.7756Y-2.7677
X2.7756Y-3.4173
X2.7756Y-3.4862
X2.7854Y-0.3701
X2.7854Y-1.0886
X2.7854Y-1.8071
X2.7854Y-2.5256
X2.7854Y-3.2441
X2.8051Y-0.3583
X2.8051Y-1.0768
X2.8051Y-1.7953
X2.8051Y-2.5138
X2.8051Y-3.2323
X2.8248Y-0.3701
X2.8248Y-1.0886
X2.8248Y-1.8071
X2.8248Y-2.5256
X2.8248Y-3.2441
X2.8445Y-0.6142
X2.8445Y-0.6437
X2.8445Y-1.3327
X2.8445Y-1.3622
X2.8445Y-2.0512
X2.8445Y-2.0807
X2.8445Y-2.7697
X2.8445Y-2.7992
X2.8445Y-3.4882
X2.8445Y-3.5177
X2.872Y-0.6142
X2.872Y-0.6437
X2.872Y-1.3327
X2.872Y-1.3622
X2.872Y-2.0512
X2.872Y-2.0807
X2.872Y-2.7697
X2.872Y-2.7992
X2.872Y-3.4882
X2.872Y-3.5177
X2.9075Y-0.2756
X2.9075Y-0.3425
X2.9075Y-0.9941
X2.9075Y-1.061
X2.9075Y-1.7126
X2.9075Y-1.7795
X2.9075Y-2.4311
X2.9075Y-2.498
X2.9075Y-3.1496
X2.9075Y-3.2165
X2.9114Y-0.5644
X2.9114Y-1.2829
X2.9114Y-2.0014
X2.9114Y-2.7199
X2.9114Y-3.4384
X2.9307Y-0.3091
X2.9307Y-1.0276
X2.9307Y-1.7461
X2.9307Y-2.4646
X2.9307Y-3.1831
X2.935Y-0.6772
X2.935Y-1.3957
X2.935Y-2.1142
X2.935Y-2.8327
X2.935Y-3.5512
X2.9354Y-0.5217
X2.9354Y-1.2402
X2.9354Y-1.9587
X2.9354Y-2.6772
X2.9354Y-3.3957
X2.9433Y-0.7
X2.9433Y-1.4185
X2.9433Y-2.137
X2.9433Y-2.8555
X2.9433Y-3.574
X2.9445Y-0.5969
X2.9445Y-1.3154
X2.9445Y-2.0339
X2.9445Y-2.7524
X2.9445Y-3.4709
X2.9547Y-0.2756
X2.9547Y-0.3425
X2.9547Y-0.9941
X2.9547Y-1.061
X2.9547Y-1.7126
X2.9547Y-1.7795
X2.9547Y-2.4311
X2.9547Y-2.498
X2.9547Y-3.1496
X2.9547Y-3.2165
X2.9618Y-0.6685
X2.9618Y-1.387
X2.9618Y-2.1055
X2.9618Y-2.824
X2.9618Y-3.5425
X2.9646Y-0.6906
X2.9646Y-1.4091
X2.9646Y-2.1276
X2.9646Y-2.8461
X2.9646Y-3.5646
T2
X0.3065Y-0.4823
X0.3065Y-1.2008
X0.3065Y-1.9193
X0.3065Y-2.6378
X0.3065Y-3.3563
X0.3565Y-0.4823
X0.3565Y-1.2008
X0.3565Y-1.9193
X0.3565Y-2.6378
X0.3565Y-3.3563
X0.4065Y-0.4823
X0.4065Y-1.2008
X0.4065Y-1.9193
X0.4065Y-2.6378
X0.4065Y-3.3563
X0.4565Y-0.2823
X0.4565Y-1.0008
X0.4565Y-1.7193
X0.4565Y-2.4378
X0.4565Y-3.1563
X0.5065Y-0.2823
X0.5065Y-0.4823
X0.5065Y-1.0008
X0.5065Y-1.2008
X0.5065Y-1.7193
X0.5065Y-1.9193
X0.5065Y-2.4378
X0.5065Y-2.6378
X0.5065Y-3.1563
X0.5065Y-3.3563
X0.5565Y-0.2823
X0.5565Y-0.4823
X0.5565Y-1.0008
X0.5565Y-1.2008
X0.5565Y-1.7193
X0.5565Y-1.9193
X0.5565Y-2.4378
X0.5565Y-2.6378
X0.5565Y-3.1563
X0.5565Y-3.3563
X0.5904Y-0.7382
X0.5904Y-0.7882
X0.5904Y-1.4567
X0.5904Y-1.5067
X0.5904Y-2.1752
X0.5904Y-2.2252
X0.5904Y-2.8937
X0.5904Y-2.9437
X0.5904Y-3.6122
X0.5904Y-3.6622
X0.6065Y-0.2823
X0.6065Y-0.4823
X0.6065Y-1.0008
X0.6065Y-1.2008
X0.6065Y-1.7193
X0.6065Y-1.9193
X0.6065Y-2.4378
X0.6065Y-2.6378
X0.6065Y-3.1563
X0.6065Y-3.3563
X0.6404Y-0.7382
X0.6404Y-0.7882
X0.6404Y-1.4567
X0.6404Y-1.5067
X0.6404Y-2.1752
X0.6404Y-2.2252
X0.6404Y-2.8937
X0.6404Y-2.9437
X0.6404Y-3.6122
X0.6404Y-3.6622
X0.6565Y-0.4823
X0.6565Y-1.2008
X0.6565Y-1.9193
X0.6565Y-2.6378
X0.6565Y-3.3563
X0.6904Y-0.7882
X0.6904Y-1.5067
X0.6904Y-2.2252
X0.6904Y-2.9437
X0.6904Y-3.6622
X0.6904Y-0.7382
X0.6904Y-1.4567
X0.6904Y-2.1752
X0.6904Y-2.8937
X0.6904Y-3.6122
X0.7065Y-0.4823
X0.7065Y-1.2008
X0.7065Y-1.9193
X0.7065Y-2.6378
X0.7065Y-3.3563
X0.7404Y-0.7382
X0.7404Y-0.7882
X0.7404Y-1.4567
X0.7404Y-1.5067
X0.7404Y-2.1752
X0.7404Y-2.2252
X0.7404Y-2.8937
X0.7404Y-2.9437
X0.7404Y-3.6122
X0.7404Y-3.6622
X0.7565Y-0.4823
X0.7565Y-1.2008
X0.7565Y-1.9193
X0.7565Y-2.6378
X0.7565Y-3.3563
X0.7904Y-0.7382
X0.7904Y-0.7882
X0.7904Y-1.4567
X0.7904Y-1.5067
X0.7904Y-2.1752
X0.7904Y-2.2252
X0.7904Y-2.8937
X0.7904Y-2.9437
X0.7904Y-3.6122
X0.7904Y-3.6622
X0.9758Y-0.4823
X0.9758Y-1.2008
X0.9758Y-1.9193
X0.9758Y-2.6378
X0.9758Y-3.3563
X1.0258Y-0.4823
X1.0258Y-1.2008
X1.0258Y-1.9193
X1.0258Y-2.6378
X1.0258Y-3.3563
X1.0758Y-0.4823
X1.0758Y-1.2008
X1.0758Y-1.9193
X1.0758Y-2.6378
X1.0758Y-3.3563
X1.1258Y-0.2823
X1.1258Y-1.0008
X1.1258Y-1.7193
X1.1258Y-2.4378
X1.1258Y-3.1563
X1.1758Y-0.2823
X1.1758Y-0.4823
X1.1758Y-1.0008
X1.1758Y-1.2008
X1.1758Y-1.7193
X1.1758Y-1.9193
X1.1758Y-2.4378
X1.1758Y-2.6378
X1.1758Y-3.1563
X1.1758Y-3.3563
X1.2258Y-0.2823
X1.2258Y-0.4823
X1.2258Y-1.0008
X1.2258Y-1.2008
X1.2258Y-1.7193
X1.2258Y-1.9193
X1.2258Y-2.4378
X1.2258Y-2.6378
X1.2258Y-3.1563
X1.2258Y-3.3563
X1.2596Y-0.7382
X1.2596Y-0.7882
X1.2596Y-1.4567
X1.2596Y-1.5067
X1.2596Y-2.1752
X1.2596Y-2.2252
X1.2596Y-2.8937
X1.2596Y-2.9437
X1.2596Y-3.6122
X1.2596Y-3.6622
X1.2758Y-0.2823
X1.2758Y-0.4823
X1.2758Y-1.0008
X1.2758Y-1.2008
X1.2758Y-1.7193
X1.2758Y-1.9193
X1.2758Y-2.4378
X1.2758Y-2.6378
X1.2758Y-3.1563
X1.2758Y-3.3563
X1.3096Y-0.7382
X1.3096Y-0.7882
X1.3096Y-1.4567
X1.3096Y-1.5067
X1.3096Y-2.1752
X1.3096Y-2.2252
X1.3096Y-2.8937
X1.3096Y-2.9437
X1.3096Y-3.6122
X1.3096Y-3.6622
X1.3258Y-0.4823
X1.3258Y-1.2008
X1.3258Y-1.9193
X1.3258Y-2.6378
X1.3258Y-3.3563
X1.3596Y-0.7882
X1.3596Y-1.5067
X1.3596Y-2.2252
X1.3596Y-2.9437
X1.3596Y-3.6622
X1.3596Y-0.7382
X1.3596Y-1.4567
X1.3596Y-2.1752
X1.3596Y-2.8937
X1.3596Y-3.6122
X1.3758Y-0.4823
X1.3758Y-1.2008
X1.3758Y-1.9193
X1.3758Y-2.6378
X1.3758Y-3.3563
X1.4096Y-0.7382
X1.4096Y-0.7882
X1.4096Y-1.4567
X1.4096Y-1.5067
X1.4096Y-2.1752
X1.4096Y-2.2252
X1.4096Y-2.8937
X1.4096Y-2.9437
X1.4096Y-3.6122
X1.4096Y-3.6622
X1.4258Y-0.4823
X1.4258Y-1.2008
X1.4258Y-1.9193
X1.4258Y-2.6378
X1.4258Y-3.3563
X1.4596Y-0.7382
X1.4596Y-0.7882
X1.4596Y-1.4567
X1.4596Y-1.5067
X1.4596Y-2.1752
X1.4596Y-2.2252
X1.4596Y-2.8937
X1.4596Y-2.9437
X1.4596Y-3.6122
X1.4596Y-3.6622
X1.8026Y-0.4823
X1.8026Y-1.2008
X1.8026Y-1.9193
X1.8026Y-2.6378
X1.8026Y-3.3563
X1.8526Y-0.4823
X1.8526Y-1.2008
X1.8526Y-1.9193
X1.8526Y-2.6378
X1.8526Y-3.3563
X1.9026Y-0.4823
X1.9026Y-1.2008
X1.9026Y-1.9193
X1.9026Y-2.6378
X1.9026Y-3.3563
X1.9526Y-0.2823
X1.9526Y-1.0008
X1.9526Y-1.7193
X1.9526Y-2.4378
X1.9526Y-3.1563
X2.0026Y-0.2823
X2.0026Y-0.4823
X2.0026Y-1.0008
X2.0026Y-1.2008
X2.0026Y-1.7193
X2.0026Y-1.9193
X2.0026Y-2.4378
X2.0026Y-2.6378
X2.0026Y-3.1563
X2.0026Y-3.3563
X2.0526Y-0.2823
X2.0526Y-0.4823
X2.0526Y-1.0008
X2.0526Y-1.2008
X2.0526Y-1.7193
X2.0526Y-1.9193
X2.0526Y-2.4378
X2.0526Y-2.6378
X2.0526Y-3.1563
X2.0526Y-3.3563
X2.0864Y-0.7382
X2.0864Y-0.7882
X2.0864Y-1.4567
X2.0864Y-1.5067
X2.0864Y-2.1752
X2.0864Y-2.2252
X2.0864Y-2.8937
X2.0864Y-2.9437
X2.0864Y-3.6122
X2.0864Y-3.6622
X2.1026Y-0.2823
X2.1026Y-0.4823
X2.1026Y-1.0008
X2.1026Y-1.2008
X2.1026Y-1.7193
X2.1026Y-1.9193
X2.1026Y-2.4378
X2.1026Y-2.6378
X2.1026Y-3.1563
X2.1026Y-3.3563
X2.1364Y-0.7382
X2.1364Y-0.7882
X2.1364Y-1.4567
X2.1364Y-1.5067
X2.1364Y-2.1752
X2.1364Y-2.2252
X2.1364Y-2.8937
X2.1364Y-2.9437
X2.1364Y-3.6122
X2.1364Y-3.6622
X2.1526Y-0.4823
X2.1526Y-1.2008
X2.1526Y-1.9193
X2.1526Y-2.6378
X2.1526Y-3.3563
X2.1864Y-0.7882
X2.1864Y-1.5067
X2.1864Y-2.2252
X2.1864Y-2.9437
X2.1864Y-3.6622
X2.1864Y-0.7382
X2.1864Y-1.4567
X2.1864Y-2.1752
X2.1864Y-2.8937
X2.1864Y-3.6122
X2.2026Y-0.4823
X2.2026Y-1.2008
X2.2026Y-1.9193
X2.2026Y-2.6378
X2.2026Y-3.3563
X2.2364Y-0.7382
X2.2364Y-0.7882
X2.2364Y-1.4567
X2.2364Y-1.5067
X2.2364Y-2.1752
X2.2364Y-2.2252
X2.2364Y-2.8937
X2.2364Y-2.9437
X2.2364Y-3.6122
X2.2364Y-3.6622
X2.2526Y-0.4823
X2.2526Y-1.2008
X2.2526Y-1.9193
X2.2526Y-2.6378
X2.2526Y-3.3563
X2.2864Y-0.7382
X2.2864Y-0.7882
X2.2864Y-1.4567
X2.2864Y-1.5067
X2.2864Y-2.1752
X2.2864Y-2.2252
X2.2864Y-2.8937
X2.2864Y-2.9437
X2.2864Y-3.6122
X2.2864Y-3.6622
X2.4719Y-0.4823
X2.4719Y-1.2008
X2.4719Y-1.9193
X2.4719Y-2.6378
X2.4719Y-3.3563
X2.5219Y-0.4823
X2.5219Y-1.2008
X2.5219Y-1.9193
X2.5219Y-2.6378
X2.5219Y-3.3563
X2.5719Y-0.4823
X2.5719Y-1.2008
X2.5719Y-1.9193
X2.5719Y-2.6378
X2.5719Y-3.3563
X2.6219Y-0.2823
X2.6219Y-1.0008
X2.6219Y-1.7193
X2.6219Y-2.4378
X2.6219Y-3.1563
X2.6719Y-0.2823
X2.6719Y-0.4823
X2.6719Y-1.0008
X2.6719Y-1.2008
X2.6719Y-1.7193
X2.6719Y-1.9193
X2.6719Y-2.4378
X2.6719Y-2.6378
X2.6719Y-3.1563
X2.6719Y-3.3563
X2.7219Y-0.2823
X2.7219Y-0.4823
X2.7219Y-1.0008
X2.7219Y-1.2008
X2.7219Y-1.7193
X2.7219Y-1.9193
X2.7219Y-2.4378
X2.7219Y-2.6378
X2.7219Y-3.1563
X2.7219Y-3.3563
X2.7557Y-0.7382
X2.7557Y-0.7882
X2.7557Y-1.4567
X2.7557Y-1.5067
X2.7557Y-2.1752
X2.7557Y-2.2252
X2.7557Y-2.8937
X2.7557Y-2.9437
X2.7557Y-3.6122
X2.7557Y-3.6622
X2.7719Y-0.2823
X2.7719Y-0.4823
X2.7719Y-1.0008
X2.7719Y-1.2008
X2.7719Y-1.7193
X2.7719Y-1.9193
X2.7719Y-2.4378
X2.7719Y-2.6378
X2.7719Y-3.1563
X2.7719Y-3.3563
X2.8057Y-0.7382
X2.8057Y-0.7882
X2.8057Y-1.4567
X2.8057Y-1.5067
X2.8057Y-2.1752
X2.8057Y-2.2252
X2.8057Y-2.8937
X2.8057Y-2.9437
X2.8057Y-3.6122
X2.8057Y-3.6622
X2.8219Y-0.4823
X2.8219Y-1.2008
X2.8219Y-1.9193
X2.8219Y-2.6378
X2.8219Y-3.3563
X2.8557Y-0.7882
X2.8557Y-1.5067
X2.8557Y-2.2252
X2.8557Y-2.9437
X2.8557Y-3.6622
X2.8557Y-0.7382
X2.8557Y-1.4567
X2.8557Y-2.1752
X2.8557Y-2.8937
X2.8557Y-3.6122
X2.8719Y-0.4823
X2.8719Y-1.2008
X2.8719Y-1.9193
X2.8719Y-2.6378
X2.8719Y-3.3563
X2.9057Y-0.7382
X2.9057Y-0.7882
X2.9057Y-1.4567
X2.9057Y-1.5067
X2.9057Y-2.1752
X2.9057Y-2.2252
X2.9057Y-2.8937
X2.9057Y-2.9437
X2.9057Y-3.6122
X2.9057Y-3.6622
X2.9219Y-0.4823
X2.9219Y-1.2008
X2.9219Y-1.9193
X2.9219Y-2.6378
X2.9219Y-3.3563
X2.9557Y-0.7382
X2.9557Y-0.7882
X2.9557Y-1.4567
X2.9557Y-1.5067
X2.9557Y-2.1752
X2.9557Y-2.2252
X2.9557Y-2.8937
X2.9557Y-2.9437
X2.9557Y-3.6122
X2.9557Y-3.6622
T3
X0.4626Y-0.876
X0.4626Y-1.5945
X0.4626Y-2.313
X0.4626Y-3.0315
X0.4626Y-3.75
X0.5315Y-0.876
X0.5315Y-1.5945
X0.5315Y-2.313
X0.5315Y-3.0315
X0.5315Y-3.75
X0.6004Y-0.876
X0.6004Y-1.5945
X0.6004Y-2.313
X0.6004Y-3.0315
X0.6004Y-3.75
X1.1319Y-0.876
X1.1319Y-1.5945
X1.1319Y-2.313
X1.1319Y-3.0315
X1.1319Y-3.75
X1.2008Y-0.876
X1.2008Y-1.5945
X1.2008Y-2.313
X1.2008Y-3.0315
X1.2008Y-3.75
X1.2697Y-0.876
X1.2697Y-1.5945
X1.2697Y-2.313
X1.2697Y-3.0315
X1.2697Y-3.75
X1.9587Y-0.876
X1.9587Y-1.5945
X1.9587Y-2.313
X1.9587Y-3.0315
X1.9587Y-3.75
X2.0276Y-0.876
X2.0276Y-1.5945
X2.0276Y-2.313
X2.0276Y-3.0315
X2.0276Y-3.75
X2.0965Y-0.876
X2.0965Y-1.5945
X2.0965Y-2.313
X2.0965Y-3.0315
X2.0965Y-3.75
X2.628Y-0.876
X2.628Y-1.5945
X2.628Y-2.313
X2.628Y-3.0315
X2.628Y-3.75
X2.6969Y-0.876
X2.6969Y-1.5945
X2.6969Y-2.313
X2.6969Y-3.0315
X2.6969Y-3.75
X2.7657Y-0.876
X2.7657Y-1.5945
X2.7657Y-2.313
X2.7657Y-3.0315
X2.7657Y-3.75
M30
