%TF.GenerationSoftware,KiCad,Pcbnew,8.0.1-unknown-202403172319~81f55dfc9c~ubuntu22.04.1*%
%TF.CreationDate,2024-03-29T18:38:33+00:00*%
%TF.ProjectId,DRY_ELECTRODES,4452595f-454c-4454-9354-524f4445532e,1.0*%
%TF.SameCoordinates,Original*%
%TF.FileFunction,Copper,L4,Bot*%
%TF.FilePolarity,Positive*%
%FSLAX46Y46*%
G04 Gerber Fmt 4.6, Leading zero omitted, Abs format (unit mm)*
G04 Created by KiCad (PCBNEW 8.0.1-unknown-202403172319~81f55dfc9c~ubuntu22.04.1) date 2024-03-29 18:38:33*
%MOMM*%
%LPD*%
G01*
G04 APERTURE LIST*
%TA.AperFunction,ComponentPad*%
%ADD10C,1.800000*%
%TD*%
%TA.AperFunction,ViaPad*%
%ADD11C,0.400000*%
%TD*%
G04 APERTURE END LIST*
D10*
%TO.P,J20,1,Pin_1*%
%TO.N,/in4-*%
X27375000Y-35250000D03*
%TD*%
%TO.P,J23,1,Pin_1*%
%TO.N,/in7-*%
X37625000Y-28500000D03*
%TD*%
%TO.P,J30,1,Pin_1*%
%TO.N,/in6+*%
X32400000Y-32500000D03*
%TD*%
%TO.P,J27,1,Pin_1*%
%TO.N,/in3+*%
X27600000Y-32500000D03*
%TD*%
%TO.P,J25,1,Pin_1*%
%TO.N,/in1+*%
X22375000Y-35250000D03*
%TD*%
%TO.P,J31,1,Pin_1*%
%TO.N,/in7+*%
X37625000Y-38500000D03*
%TD*%
%TO.P,J29,1,Pin_1*%
%TO.N,/in5+*%
X32625000Y-38500000D03*
%TD*%
%TO.P,J32,1,Pin_1*%
%TO.N,/in8+*%
X37625000Y-35250000D03*
%TD*%
%TO.P,J18,1,Pin_1*%
%TO.N,/in2-*%
X22375000Y-28500000D03*
%TD*%
%TO.P,J22,1,Pin_1*%
%TO.N,/in6-*%
X32250000Y-28375000D03*
%TD*%
%TO.P,J19,1,Pin_1*%
%TO.N,/in3-*%
X27750000Y-28375000D03*
%TD*%
%TO.P,J21,1,Pin_1*%
%TO.N,/in5-*%
X32625000Y-35250000D03*
%TD*%
%TO.P,J26,1,Pin_1*%
%TO.N,/in2+*%
X22375000Y-38500000D03*
%TD*%
%TO.P,J17,1,Pin_1*%
%TO.N,/in1-*%
X22375000Y-31750000D03*
%TD*%
%TO.P,J28,1,Pin_1*%
%TO.N,/in4+*%
X27375000Y-38500000D03*
%TD*%
%TO.P,J24,1,Pin_1*%
%TO.N,/in8-*%
X37625000Y-31750000D03*
%TD*%
D11*
%TO.N,GND*%
X35125000Y-36875000D03*
X24875000Y-36875000D03*
%TD*%
%TA.AperFunction,Conductor*%
%TO.N,/in1+*%
G36*
X24693038Y-33769685D02*
G01*
X24738793Y-33822489D01*
X24749999Y-33874000D01*
X24749999Y-36469328D01*
X24730314Y-36536367D01*
X24682297Y-36579811D01*
X24666415Y-36587903D01*
X24666411Y-36587906D01*
X24587903Y-36666415D01*
X24579814Y-36682293D01*
X24531841Y-36733090D01*
X24469328Y-36750000D01*
X20134500Y-36750000D01*
X20067461Y-36730315D01*
X20021706Y-36677511D01*
X20010500Y-36626000D01*
X20010500Y-33874000D01*
X20030185Y-33806961D01*
X20082989Y-33761206D01*
X20134500Y-33750000D01*
X24625999Y-33750000D01*
X24693038Y-33769685D01*
G37*
%TD.AperFunction*%
%TD*%
%TA.AperFunction,Conductor*%
%TO.N,/in6-*%
G36*
X34943038Y-27030185D02*
G01*
X34988793Y-27082989D01*
X34999999Y-27134500D01*
X34999999Y-29876000D01*
X34980314Y-29943039D01*
X34927510Y-29988794D01*
X34875999Y-30000000D01*
X30373999Y-30000000D01*
X30306960Y-29980315D01*
X30261205Y-29927511D01*
X30249999Y-29876000D01*
X30249999Y-27134500D01*
X30269684Y-27067461D01*
X30322488Y-27021706D01*
X30373999Y-27010500D01*
X34875999Y-27010500D01*
X34943038Y-27030185D01*
G37*
%TD.AperFunction*%
%TD*%
%TA.AperFunction,Conductor*%
%TO.N,/in4-*%
G36*
X29693038Y-33769685D02*
G01*
X29738793Y-33822489D01*
X29749999Y-33874000D01*
X29749999Y-36626000D01*
X29730314Y-36693039D01*
X29677510Y-36738794D01*
X29625999Y-36750000D01*
X25280672Y-36750000D01*
X25213633Y-36730315D01*
X25170186Y-36682293D01*
X25162096Y-36666415D01*
X25162095Y-36666413D01*
X25083587Y-36587905D01*
X25083585Y-36587904D01*
X25083584Y-36587903D01*
X25067701Y-36579810D01*
X25016906Y-36531834D01*
X24999999Y-36469327D01*
X24999999Y-33874000D01*
X25019684Y-33806961D01*
X25072488Y-33761206D01*
X25123999Y-33750000D01*
X29625999Y-33750000D01*
X29693038Y-33769685D01*
G37*
%TD.AperFunction*%
%TD*%
%TA.AperFunction,Conductor*%
%TO.N,/in5+*%
G36*
X34786367Y-37019685D02*
G01*
X34829813Y-37067706D01*
X34837905Y-37083587D01*
X34916413Y-37162095D01*
X34932293Y-37170186D01*
X34983089Y-37218159D01*
X34999999Y-37280671D01*
X34999999Y-39865500D01*
X34980314Y-39932539D01*
X34927510Y-39978294D01*
X34875999Y-39989500D01*
X30373999Y-39989500D01*
X30306960Y-39969815D01*
X30261205Y-39917011D01*
X30249999Y-39865500D01*
X30249999Y-37124000D01*
X30269684Y-37056961D01*
X30322488Y-37011206D01*
X30373999Y-37000000D01*
X34719328Y-37000000D01*
X34786367Y-37019685D01*
G37*
%TD.AperFunction*%
%TD*%
%TA.AperFunction,Conductor*%
%TO.N,/in7-*%
G36*
X39005394Y-27010971D02*
G01*
X39161019Y-27024587D01*
X39182297Y-27028338D01*
X39327951Y-27067366D01*
X39348261Y-27074759D01*
X39484915Y-27138482D01*
X39503633Y-27149289D01*
X39627154Y-27235779D01*
X39643712Y-27249673D01*
X39750326Y-27356287D01*
X39764220Y-27372845D01*
X39850710Y-27496366D01*
X39861517Y-27515084D01*
X39925240Y-27651738D01*
X39932633Y-27672049D01*
X39971659Y-27817696D01*
X39975412Y-27838982D01*
X39989028Y-27994604D01*
X39989500Y-28005412D01*
X39989500Y-29876000D01*
X39969815Y-29943039D01*
X39917011Y-29988794D01*
X39865500Y-30000000D01*
X35373999Y-30000000D01*
X35306960Y-29980315D01*
X35261205Y-29927511D01*
X35249999Y-29876000D01*
X35249999Y-27134500D01*
X35269684Y-27067461D01*
X35322488Y-27021706D01*
X35373999Y-27010500D01*
X38994588Y-27010500D01*
X39005394Y-27010971D01*
G37*
%TD.AperFunction*%
%TD*%
%TA.AperFunction,Conductor*%
%TO.N,/in7+*%
G36*
X39932539Y-37019685D02*
G01*
X39978294Y-37072489D01*
X39989500Y-37124000D01*
X39989500Y-38994587D01*
X39989028Y-39005395D01*
X39975412Y-39161017D01*
X39971659Y-39182303D01*
X39932633Y-39327950D01*
X39925240Y-39348261D01*
X39861517Y-39484915D01*
X39850710Y-39503633D01*
X39764220Y-39627154D01*
X39750326Y-39643712D01*
X39643712Y-39750326D01*
X39627154Y-39764220D01*
X39503633Y-39850710D01*
X39484915Y-39861517D01*
X39348261Y-39925240D01*
X39327950Y-39932633D01*
X39182303Y-39971659D01*
X39161017Y-39975412D01*
X39027247Y-39987116D01*
X39005393Y-39989028D01*
X38994588Y-39989500D01*
X35373999Y-39989500D01*
X35306960Y-39969815D01*
X35261205Y-39917011D01*
X35249999Y-39865500D01*
X35249999Y-37280672D01*
X35269684Y-37213633D01*
X35317704Y-37170187D01*
X35333587Y-37162095D01*
X35412095Y-37083587D01*
X35420186Y-37067706D01*
X35468159Y-37016910D01*
X35530672Y-37000000D01*
X39865500Y-37000000D01*
X39932539Y-37019685D01*
G37*
%TD.AperFunction*%
%TD*%
%TA.AperFunction,Conductor*%
%TO.N,/in5-*%
G36*
X34943038Y-33769685D02*
G01*
X34988793Y-33822489D01*
X34999999Y-33874000D01*
X34999999Y-36469328D01*
X34980314Y-36536367D01*
X34932297Y-36579811D01*
X34916415Y-36587903D01*
X34916411Y-36587906D01*
X34837903Y-36666415D01*
X34829814Y-36682293D01*
X34781841Y-36733090D01*
X34719328Y-36750000D01*
X30373999Y-36750000D01*
X30306960Y-36730315D01*
X30261205Y-36677511D01*
X30249999Y-36626000D01*
X30249999Y-33874000D01*
X30269684Y-33806961D01*
X30322488Y-33761206D01*
X30373999Y-33750000D01*
X34875999Y-33750000D01*
X34943038Y-33769685D01*
G37*
%TD.AperFunction*%
%TD*%
%TA.AperFunction,Conductor*%
%TO.N,/in8-*%
G36*
X39932539Y-30269685D02*
G01*
X39978294Y-30322489D01*
X39989500Y-30374000D01*
X39989500Y-33126000D01*
X39969815Y-33193039D01*
X39917011Y-33238794D01*
X39865500Y-33250000D01*
X35374000Y-33250000D01*
X35306961Y-33230315D01*
X35261206Y-33177511D01*
X35250000Y-33126000D01*
X35250000Y-30374000D01*
X35269685Y-30306961D01*
X35322489Y-30261206D01*
X35374000Y-30250000D01*
X39865500Y-30250000D01*
X39932539Y-30269685D01*
G37*
%TD.AperFunction*%
%TD*%
%TA.AperFunction,Conductor*%
%TO.N,/in3-*%
G36*
X29693038Y-27030185D02*
G01*
X29738793Y-27082989D01*
X29749999Y-27134500D01*
X29749999Y-29876000D01*
X29730314Y-29943039D01*
X29677510Y-29988794D01*
X29625999Y-30000000D01*
X25123999Y-30000000D01*
X25056960Y-29980315D01*
X25011205Y-29927511D01*
X24999999Y-29876000D01*
X24999999Y-27134500D01*
X25019684Y-27067461D01*
X25072488Y-27021706D01*
X25123999Y-27010500D01*
X29625999Y-27010500D01*
X29693038Y-27030185D01*
G37*
%TD.AperFunction*%
%TD*%
%TA.AperFunction,Conductor*%
%TO.N,/in4+*%
G36*
X29693038Y-37019685D02*
G01*
X29738793Y-37072489D01*
X29749999Y-37124000D01*
X29749999Y-39865500D01*
X29730314Y-39932539D01*
X29677510Y-39978294D01*
X29625999Y-39989500D01*
X25123999Y-39989500D01*
X25056960Y-39969815D01*
X25011205Y-39917011D01*
X24999999Y-39865500D01*
X24999999Y-37280672D01*
X25019684Y-37213633D01*
X25067704Y-37170187D01*
X25083587Y-37162095D01*
X25162095Y-37083587D01*
X25170186Y-37067706D01*
X25218159Y-37016910D01*
X25280672Y-37000000D01*
X29625999Y-37000000D01*
X29693038Y-37019685D01*
G37*
%TD.AperFunction*%
%TD*%
%TA.AperFunction,Conductor*%
%TO.N,/in8+*%
G36*
X39932539Y-33769685D02*
G01*
X39978294Y-33822489D01*
X39989500Y-33874000D01*
X39989500Y-36626000D01*
X39969815Y-36693039D01*
X39917011Y-36738794D01*
X39865500Y-36750000D01*
X35530672Y-36750000D01*
X35463633Y-36730315D01*
X35420186Y-36682293D01*
X35412096Y-36666415D01*
X35412095Y-36666413D01*
X35333587Y-36587905D01*
X35333585Y-36587904D01*
X35333584Y-36587903D01*
X35317701Y-36579810D01*
X35266906Y-36531834D01*
X35249999Y-36469327D01*
X35249999Y-33874000D01*
X35269684Y-33806961D01*
X35322488Y-33761206D01*
X35373999Y-33750000D01*
X39865500Y-33750000D01*
X39932539Y-33769685D01*
G37*
%TD.AperFunction*%
%TD*%
%TA.AperFunction,Conductor*%
%TO.N,/in1-*%
G36*
X24693039Y-30269685D02*
G01*
X24738794Y-30322489D01*
X24750000Y-30374000D01*
X24750000Y-33126000D01*
X24730315Y-33193039D01*
X24677511Y-33238794D01*
X24626000Y-33250000D01*
X20134500Y-33250000D01*
X20067461Y-33230315D01*
X20021706Y-33177511D01*
X20010500Y-33126000D01*
X20010500Y-30374000D01*
X20030185Y-30306961D01*
X20082989Y-30261206D01*
X20134500Y-30250000D01*
X24626000Y-30250000D01*
X24693039Y-30269685D01*
G37*
%TD.AperFunction*%
%TD*%
%TA.AperFunction,Conductor*%
%TO.N,/in2+*%
G36*
X24536367Y-37019685D02*
G01*
X24579813Y-37067706D01*
X24587905Y-37083587D01*
X24666413Y-37162095D01*
X24682293Y-37170186D01*
X24733089Y-37218159D01*
X24749999Y-37280671D01*
X24749999Y-39865500D01*
X24730314Y-39932539D01*
X24677510Y-39978294D01*
X24625999Y-39989500D01*
X21005412Y-39989500D01*
X20994606Y-39989028D01*
X20969584Y-39986838D01*
X20838982Y-39975412D01*
X20817696Y-39971659D01*
X20672049Y-39932633D01*
X20651738Y-39925240D01*
X20515084Y-39861517D01*
X20496366Y-39850710D01*
X20372845Y-39764220D01*
X20356287Y-39750326D01*
X20249673Y-39643712D01*
X20235779Y-39627154D01*
X20149289Y-39503633D01*
X20138482Y-39484915D01*
X20074759Y-39348261D01*
X20067366Y-39327950D01*
X20028338Y-39182297D01*
X20024587Y-39161016D01*
X20010972Y-39005394D01*
X20010500Y-38994587D01*
X20010500Y-37124000D01*
X20030185Y-37056961D01*
X20082989Y-37011206D01*
X20134500Y-37000000D01*
X24469328Y-37000000D01*
X24536367Y-37019685D01*
G37*
%TD.AperFunction*%
%TD*%
%TA.AperFunction,Conductor*%
%TO.N,/in6+*%
G36*
X34943039Y-30269685D02*
G01*
X34988794Y-30322489D01*
X35000000Y-30374000D01*
X35000000Y-33126000D01*
X34980315Y-33193039D01*
X34927511Y-33238794D01*
X34876000Y-33250000D01*
X30374000Y-33250000D01*
X30306961Y-33230315D01*
X30261206Y-33177511D01*
X30250000Y-33126000D01*
X30250000Y-30374000D01*
X30269685Y-30306961D01*
X30322489Y-30261206D01*
X30374000Y-30250000D01*
X34876000Y-30250000D01*
X34943039Y-30269685D01*
G37*
%TD.AperFunction*%
%TD*%
%TA.AperFunction,Conductor*%
%TO.N,/in3+*%
G36*
X29693039Y-30269685D02*
G01*
X29738794Y-30322489D01*
X29750000Y-30374000D01*
X29750000Y-33126000D01*
X29730315Y-33193039D01*
X29677511Y-33238794D01*
X29626000Y-33250000D01*
X25124000Y-33250000D01*
X25056961Y-33230315D01*
X25011206Y-33177511D01*
X25000000Y-33126000D01*
X25000000Y-30374000D01*
X25019685Y-30306961D01*
X25072489Y-30261206D01*
X25124000Y-30250000D01*
X29626000Y-30250000D01*
X29693039Y-30269685D01*
G37*
%TD.AperFunction*%
%TD*%
%TA.AperFunction,Conductor*%
%TO.N,/in2-*%
G36*
X24693038Y-27030185D02*
G01*
X24738793Y-27082989D01*
X24749999Y-27134500D01*
X24749999Y-29876000D01*
X24730314Y-29943039D01*
X24677510Y-29988794D01*
X24625999Y-30000000D01*
X20134500Y-30000000D01*
X20067461Y-29980315D01*
X20021706Y-29927511D01*
X20010500Y-29876000D01*
X20010500Y-28005412D01*
X20010972Y-27994605D01*
X20024587Y-27838983D01*
X20028338Y-27817704D01*
X20067367Y-27672044D01*
X20074759Y-27651738D01*
X20138482Y-27515084D01*
X20149289Y-27496366D01*
X20235779Y-27372845D01*
X20249667Y-27356293D01*
X20356293Y-27249667D01*
X20372845Y-27235779D01*
X20496366Y-27149289D01*
X20515081Y-27138483D01*
X20651740Y-27074758D01*
X20672044Y-27067367D01*
X20817704Y-27028338D01*
X20838978Y-27024587D01*
X20994605Y-27010971D01*
X21005412Y-27010500D01*
X24625999Y-27010500D01*
X24693038Y-27030185D01*
G37*
%TD.AperFunction*%
%TD*%
M02*
