%TF.GenerationSoftware,KiCad,Pcbnew,8.0.1-unknown-202403172319~81f55dfc9c~ubuntu22.04.1*%
%TF.CreationDate,2024-06-24T09:34:37+01:00*%
%TF.ProjectId,PANEL_DRY_ELECTRODES,50414e45-4c5f-4445-9259-5f454c454354,1.0*%
%TF.SameCoordinates,Original*%
%TF.FileFunction,Soldermask,Top*%
%TF.FilePolarity,Negative*%
%FSLAX46Y46*%
G04 Gerber Fmt 4.6, Leading zero omitted, Abs format (unit mm)*
G04 Created by KiCad (PCBNEW 8.0.1-unknown-202403172319~81f55dfc9c~ubuntu22.04.1) date 2024-06-24 09:34:37*
%MOMM*%
%LPD*%
G01*
G04 APERTURE LIST*
G04 Aperture macros list*
%AMFreePoly0*
4,1,13,0.345671,0.480970,0.426777,0.426777,0.480970,0.345671,0.500000,0.250000,0.500000,-0.900000,-0.500000,-0.900000,-0.500000,0.250000,-0.480970,0.345671,-0.426777,0.426777,-0.345671,0.480970,-0.250000,0.500000,0.250000,0.500000,0.345671,0.480970,0.345671,0.480970,$1*%
G04 Aperture macros list end*
%ADD10C,0.500000*%
%ADD11FreePoly0,180.000000*%
%ADD12C,1.800000*%
%ADD13C,2.000000*%
%ADD14FreePoly0,0.000000*%
G04 APERTURE END LIST*
D10*
%TO.C,KiKit_MB_74_3*%
X70300000Y-71666666D03*
%TD*%
D11*
%TO.C,J13*%
X38635000Y-25500000D03*
%TD*%
D12*
%TO.C,J26*%
X74375000Y-47500000D03*
%TD*%
D13*
%TO.C,I4*%
X21125000Y-90875000D03*
%TD*%
D11*
%TO.C,J16*%
X42445000Y-55565000D03*
%TD*%
D12*
%TO.C,J26*%
X52375000Y-47500000D03*
%TD*%
D11*
%TO.C,J9*%
X55555000Y-25565000D03*
%TD*%
D10*
%TO.C,KiKit_MB_63_2*%
X80333333Y-50700000D03*
%TD*%
%TO.C,KiKit_MB_7_6*%
X39666666Y-5700000D03*
%TD*%
D11*
%TO.C,J15*%
X19175000Y-70500000D03*
%TD*%
D12*
%TO.C,J30*%
X61900000Y-86500000D03*
%TD*%
D10*
%TO.C,KiKit_MB_94_6*%
X92300000Y-89166666D03*
%TD*%
D12*
%TO.C,J17*%
X30375000Y-10750000D03*
%TD*%
D10*
%TO.C,KiKit_MB_27_7*%
X62500000Y-20700000D03*
%TD*%
D11*
%TO.C,J14*%
X61905000Y-25500000D03*
%TD*%
D10*
%TO.C,KiKit_MB_48_6*%
X80333333Y-49300000D03*
%TD*%
%TO.C,KiKit_MB_101_6*%
X4000000Y-6000000D03*
%TD*%
D12*
%TO.C,J32*%
X45625000Y-14250000D03*
%TD*%
D10*
%TO.C,KiKit_MB_95_4*%
X82000000Y-80700000D03*
%TD*%
D12*
%TO.C,J23*%
X23625000Y-52500000D03*
%TD*%
D10*
%TO.C,KiKit_MB_67_4*%
X16000000Y-65700000D03*
%TD*%
D12*
%TO.C,J24*%
X89625000Y-85750000D03*
%TD*%
D10*
%TO.C,KiKit_MB_36_4*%
X16000000Y-49300000D03*
%TD*%
D12*
%TO.C,J31*%
X67625000Y-32500000D03*
%TD*%
D11*
%TO.C,J9*%
X33555000Y-55565000D03*
%TD*%
D10*
%TO.C,KiKit_MB_53_7*%
X27700000Y-55000000D03*
%TD*%
D13*
%TO.C,I3*%
X10875000Y-60875000D03*
%TD*%
D12*
%TO.C,J19*%
X58095000Y-22125000D03*
%TD*%
D10*
%TO.C,KiKit_MB_37_2*%
X27700000Y-44166666D03*
%TD*%
D12*
%TO.C,J19*%
X80095000Y-7125000D03*
%TD*%
D10*
%TO.C,KiKit_MB_87_5*%
X38833333Y-80700000D03*
%TD*%
D14*
%TO.C,J8*%
X42445000Y-53165000D03*
%TD*%
D10*
%TO.C,KiKit_MB_55_6*%
X39666666Y-50700000D03*
%TD*%
D13*
%TO.C,I4*%
X43125000Y-15875000D03*
%TD*%
D10*
%TO.C,KiKit_MB_72_5*%
X37166666Y-79300000D03*
%TD*%
%TO.C,KiKit_MB_48_7*%
X79500000Y-49300000D03*
%TD*%
D11*
%TO.C,J10*%
X12825000Y-40500000D03*
%TD*%
D12*
%TO.C,J28*%
X35375000Y-62500000D03*
%TD*%
D10*
%TO.C,KiKit_MB_64_3*%
X82833333Y-64300000D03*
%TD*%
D12*
%TO.C,J25*%
X30375000Y-74250000D03*
%TD*%
D11*
%TO.C,J15*%
X85175000Y-70500000D03*
%TD*%
D10*
%TO.C,KiKit_MB_77_2*%
X71700000Y-74166666D03*
%TD*%
D14*
%TO.C,J3*%
X80095000Y-68100000D03*
%TD*%
D10*
%TO.C,KiKit_MB_59_7*%
X62500000Y-50700000D03*
%TD*%
%TO.C,KiKit_MB_93_4*%
X71700000Y-87500000D03*
%TD*%
D11*
%TO.C,J9*%
X33555000Y-25565000D03*
%TD*%
%TO.C,J16*%
X86445000Y-25565000D03*
%TD*%
D14*
%TO.C,J6*%
X83905000Y-38100000D03*
%TD*%
D12*
%TO.C,J25*%
X52375000Y-59250000D03*
%TD*%
D10*
%TO.C,KiKit_MB_43_3*%
X59166666Y-35700000D03*
%TD*%
D14*
%TO.C,J4*%
X81365000Y-68100000D03*
%TD*%
D10*
%TO.C,KiKit_MB_10_5*%
X70300000Y-13333333D03*
%TD*%
D12*
%TO.C,J31*%
X45625000Y-62500000D03*
%TD*%
D10*
%TO.C,KiKit_MB_76_1*%
X62500000Y-79300000D03*
%TD*%
%TO.C,KiKit_MB_77_1*%
X71700000Y-75000000D03*
%TD*%
D11*
%TO.C,J9*%
X11555000Y-85565000D03*
%TD*%
D10*
%TO.C,KiKit_MB_67_3*%
X15166667Y-65700000D03*
%TD*%
%TO.C,KiKit_MB_52_3*%
X16833333Y-64300000D03*
%TD*%
%TO.C,KiKit_MB_68_1*%
X18500000Y-79300000D03*
%TD*%
%TO.C,KiKit_MB_19_6*%
X17666666Y-20700000D03*
%TD*%
%TO.C,KiKit_MB_37_3*%
X27700000Y-43333333D03*
%TD*%
D12*
%TO.C,J27*%
X80100000Y-26500000D03*
%TD*%
D10*
%TO.C,KiKit_MB_50_3*%
X26300000Y-56666666D03*
%TD*%
D12*
%TO.C,J18*%
X74375000Y-67500000D03*
%TD*%
D11*
%TO.C,J10*%
X78825000Y-55500000D03*
%TD*%
D12*
%TO.C,J25*%
X30375000Y-44250000D03*
%TD*%
%TO.C,J29*%
X40625000Y-92500000D03*
%TD*%
%TO.C,J21*%
X40625000Y-89250000D03*
%TD*%
D10*
%TO.C,KiKit_MB_22_6*%
X48300000Y-29166666D03*
%TD*%
D14*
%TO.C,J6*%
X17905000Y-83100000D03*
%TD*%
D10*
%TO.C,KiKit_MB_62_5*%
X92300000Y-58333333D03*
%TD*%
%TO.C,KiKit_MB_8_1*%
X40500000Y-19300000D03*
%TD*%
%TO.C,KiKit_MB_99_3*%
X6000000Y-97600000D03*
%TD*%
D12*
%TO.C,J26*%
X74375000Y-92500000D03*
%TD*%
D13*
%TO.C,I4*%
X87125000Y-30875000D03*
%TD*%
D12*
%TO.C,J32*%
X23625000Y-29250000D03*
%TD*%
%TO.C,J20*%
X13375000Y-89250000D03*
%TD*%
D10*
%TO.C,KiKit_MB_101_5*%
X3200000Y-6000000D03*
%TD*%
%TO.C,KiKit_MB_79_4*%
X82000000Y-65700000D03*
%TD*%
D12*
%TO.C,J28*%
X13375000Y-32500000D03*
%TD*%
D11*
%TO.C,J11*%
X58095000Y-10500000D03*
%TD*%
D14*
%TO.C,J7*%
X19175000Y-38100000D03*
%TD*%
D12*
%TO.C,J26*%
X8375000Y-62500000D03*
%TD*%
%TO.C,J17*%
X74375000Y-55750000D03*
%TD*%
D10*
%TO.C,KiKit_MB_25_4*%
X49700000Y-27500000D03*
%TD*%
%TO.C,KiKit_MB_90_5*%
X70300000Y-88333333D03*
%TD*%
%TO.C,KiKit_MB_19_7*%
X18500000Y-20700000D03*
%TD*%
%TO.C,KiKit_MB_43_1*%
X57500000Y-35700000D03*
%TD*%
D14*
%TO.C,J8*%
X20445000Y-53165000D03*
%TD*%
D12*
%TO.C,J19*%
X14095000Y-52125000D03*
%TD*%
D11*
%TO.C,J15*%
X85175000Y-40500000D03*
%TD*%
D10*
%TO.C,KiKit_MB_82_6*%
X26300000Y-89166666D03*
%TD*%
%TO.C,KiKit_MB_18_7*%
X26300000Y-30000000D03*
%TD*%
D13*
%TO.C,I4*%
X43125000Y-60875000D03*
%TD*%
D10*
%TO.C,KiKit_MB_30_3*%
X92300000Y-26666666D03*
%TD*%
D14*
%TO.C,J6*%
X61905000Y-83100000D03*
%TD*%
D11*
%TO.C,J16*%
X20445000Y-25565000D03*
%TD*%
%TO.C,J14*%
X39905000Y-25500000D03*
%TD*%
D10*
%TO.C,KiKit_MB_84_2*%
X17666666Y-94300000D03*
%TD*%
%TO.C,KiKit_MB_47_5*%
X82833333Y-35700000D03*
%TD*%
%TO.C,KiKit_MB_59_5*%
X60833333Y-50700000D03*
%TD*%
D11*
%TO.C,J16*%
X64445000Y-85565000D03*
%TD*%
D10*
%TO.C,KiKit_MB_101_2*%
X800000Y-6000000D03*
%TD*%
D12*
%TO.C,J21*%
X84625000Y-89250000D03*
%TD*%
D11*
%TO.C,J16*%
X86445000Y-55565000D03*
%TD*%
D10*
%TO.C,KiKit_MB_72_2*%
X39666666Y-79300000D03*
%TD*%
D12*
%TO.C,J31*%
X45625000Y-92500000D03*
%TD*%
D10*
%TO.C,KiKit_MB_45_1*%
X71700000Y-45000000D03*
%TD*%
%TO.C,KiKit_MB_76_4*%
X60000000Y-79300000D03*
%TD*%
D14*
%TO.C,J4*%
X59365000Y-8100000D03*
%TD*%
%TO.C,J8*%
X64445000Y-83165000D03*
%TD*%
%TO.C,J5*%
X38635000Y-68100000D03*
%TD*%
%TO.C,J4*%
X59365000Y-23100000D03*
%TD*%
D10*
%TO.C,KiKit_MB_65_6*%
X5700000Y-70833333D03*
%TD*%
%TO.C,KiKit_MB_84_6*%
X14333334Y-94300000D03*
%TD*%
D14*
%TO.C,J5*%
X60635000Y-83100000D03*
%TD*%
%TO.C,J7*%
X85175000Y-83100000D03*
%TD*%
D10*
%TO.C,KiKit_MB_64_1*%
X84500000Y-64300000D03*
%TD*%
%TO.C,KiKit_MB_62_7*%
X92300000Y-60000000D03*
%TD*%
D12*
%TO.C,J18*%
X74375000Y-22500000D03*
%TD*%
D10*
%TO.C,KiKit_MB_83_5*%
X16833333Y-80700000D03*
%TD*%
%TO.C,KiKit_MB_3_5*%
X16833333Y-5700000D03*
%TD*%
D11*
%TO.C,J14*%
X61905000Y-70500000D03*
%TD*%
D10*
%TO.C,KiKit_MB_12_6*%
X58333333Y-19300000D03*
%TD*%
D12*
%TO.C,J31*%
X23625000Y-17500000D03*
%TD*%
D10*
%TO.C,KiKit_MB_62_3*%
X92300000Y-56666666D03*
%TD*%
%TO.C,KiKit_MB_67_6*%
X17666666Y-65700000D03*
%TD*%
%TO.C,KiKit_MB_29_4*%
X71700000Y-27500000D03*
%TD*%
%TO.C,KiKit_MB_13_2*%
X71700000Y-14166666D03*
%TD*%
D11*
%TO.C,J14*%
X39905000Y-40500000D03*
%TD*%
D10*
%TO.C,KiKit_MB_13_4*%
X71700000Y-12500000D03*
%TD*%
D12*
%TO.C,J23*%
X67625000Y-82500000D03*
%TD*%
D10*
%TO.C,KiKit_MB_37_7*%
X27700000Y-40000000D03*
%TD*%
%TO.C,KiKit_MB_75_1*%
X57500000Y-65700000D03*
%TD*%
D12*
%TO.C,J21*%
X62625000Y-44250000D03*
%TD*%
D10*
%TO.C,KiKit_MB_22_3*%
X48300000Y-26666666D03*
%TD*%
%TO.C,KiKit_MB_93_2*%
X71700000Y-89166666D03*
%TD*%
D12*
%TO.C,J30*%
X61900000Y-56500000D03*
%TD*%
%TO.C,J26*%
X52375000Y-17500000D03*
%TD*%
D11*
%TO.C,J14*%
X17905000Y-25500000D03*
%TD*%
D10*
%TO.C,KiKit_MB_57_1*%
X49700000Y-60000000D03*
%TD*%
%TO.C,KiKit_MB_102_5*%
X3200000Y-94000000D03*
%TD*%
%TO.C,KiKit_MB_36_5*%
X15166667Y-49300000D03*
%TD*%
%TO.C,KiKit_MB_26_1*%
X70300000Y-25000000D03*
%TD*%
%TO.C,KiKit_MB_68_7*%
X13500000Y-79300000D03*
%TD*%
D12*
%TO.C,J30*%
X17900000Y-56500000D03*
%TD*%
D10*
%TO.C,KiKit_MB_99_2*%
X6000000Y-96800000D03*
%TD*%
D14*
%TO.C,J8*%
X64445000Y-8165000D03*
%TD*%
D11*
%TO.C,J15*%
X85175000Y-85500000D03*
%TD*%
D14*
%TO.C,J5*%
X38635000Y-23100000D03*
%TD*%
D10*
%TO.C,KiKit_MB_36_2*%
X17666666Y-49300000D03*
%TD*%
D11*
%TO.C,J10*%
X12825000Y-70500000D03*
%TD*%
D12*
%TO.C,J32*%
X89625000Y-29250000D03*
%TD*%
D11*
%TO.C,J13*%
X60635000Y-10500000D03*
%TD*%
D12*
%TO.C,J27*%
X80100000Y-71500000D03*
%TD*%
D10*
%TO.C,KiKit_MB_86_2*%
X48300000Y-85833333D03*
%TD*%
%TO.C,KiKit_MB_100_5*%
X92000000Y-99200000D03*
%TD*%
%TO.C,KiKit_MB_12_5*%
X59166666Y-19300000D03*
%TD*%
%TO.C,KiKit_MB_29_7*%
X71700000Y-25000000D03*
%TD*%
D12*
%TO.C,J32*%
X67625000Y-74250000D03*
%TD*%
D14*
%TO.C,J3*%
X80095000Y-53100000D03*
%TD*%
D10*
%TO.C,KiKit_MB_54_6*%
X48300000Y-59166666D03*
%TD*%
%TO.C,KiKit_MB_58_7*%
X70300000Y-60000000D03*
%TD*%
%TO.C,KiKit_MB_47_1*%
X79500000Y-35700000D03*
%TD*%
D12*
%TO.C,J27*%
X36100000Y-71500000D03*
%TD*%
D13*
%TO.C,I3*%
X10875000Y-30875000D03*
%TD*%
D10*
%TO.C,KiKit_MB_28_7*%
X57500000Y-34300000D03*
%TD*%
%TO.C,KiKit_MB_18_1*%
X26300000Y-25000000D03*
%TD*%
D14*
%TO.C,J4*%
X81365000Y-38100000D03*
%TD*%
D12*
%TO.C,J20*%
X35375000Y-89250000D03*
%TD*%
D10*
%TO.C,KiKit_MB_58_1*%
X70300000Y-55000000D03*
%TD*%
%TO.C,KiKit_MB_10_2*%
X70300000Y-10833334D03*
%TD*%
%TO.C,KiKit_MB_16_3*%
X82833333Y-19300000D03*
%TD*%
%TO.C,KiKit_MB_65_7*%
X5700000Y-70000000D03*
%TD*%
%TO.C,KiKit_MB_43_5*%
X60833333Y-35700000D03*
%TD*%
%TO.C,KiKit_MB_42_7*%
X70300000Y-45000000D03*
%TD*%
%TO.C,KiKit_MB_45_2*%
X71700000Y-44166666D03*
%TD*%
%TO.C,KiKit_MB_81_3*%
X5700000Y-88333333D03*
%TD*%
D12*
%TO.C,J18*%
X74375000Y-37500000D03*
%TD*%
D14*
%TO.C,J8*%
X42445000Y-83165000D03*
%TD*%
D10*
%TO.C,KiKit_MB_35_1*%
X13500000Y-35700000D03*
%TD*%
%TO.C,KiKit_MB_9_5*%
X49700000Y-11666667D03*
%TD*%
%TO.C,KiKit_MB_15_3*%
X81166666Y-5700000D03*
%TD*%
%TO.C,KiKit_MB_100_4*%
X92000000Y-98400000D03*
%TD*%
D14*
%TO.C,J1*%
X33555000Y-23165000D03*
%TD*%
D12*
%TO.C,J17*%
X8375000Y-55750000D03*
%TD*%
D10*
%TO.C,KiKit_MB_57_6*%
X49700000Y-55833333D03*
%TD*%
%TO.C,KiKit_MB_81_7*%
X5700000Y-85000000D03*
%TD*%
%TO.C,KiKit_MB_75_2*%
X58333333Y-65700000D03*
%TD*%
D13*
%TO.C,I3*%
X54875000Y-30875000D03*
%TD*%
D10*
%TO.C,KiKit_MB_3_4*%
X16000000Y-5700000D03*
%TD*%
%TO.C,KiKit_MB_21_5*%
X27700000Y-26666666D03*
%TD*%
D12*
%TO.C,J28*%
X57375000Y-92500000D03*
%TD*%
D14*
%TO.C,J2*%
X34825000Y-53100000D03*
%TD*%
D11*
%TO.C,J9*%
X55555000Y-10565000D03*
%TD*%
%TO.C,J9*%
X11555000Y-40565000D03*
%TD*%
%TO.C,J10*%
X34825000Y-55500000D03*
%TD*%
D12*
%TO.C,J24*%
X23625000Y-10750000D03*
%TD*%
%TO.C,J17*%
X8375000Y-85750000D03*
%TD*%
%TO.C,J26*%
X8375000Y-32500000D03*
%TD*%
D14*
%TO.C,J4*%
X81365000Y-83100000D03*
%TD*%
D10*
%TO.C,KiKit_MB_83_6*%
X17666666Y-80700000D03*
%TD*%
%TO.C,KiKit_MB_78_3*%
X92300000Y-71666666D03*
%TD*%
%TO.C,KiKit_MB_98_3*%
X92000000Y-1600000D03*
%TD*%
D12*
%TO.C,J20*%
X35375000Y-44250000D03*
%TD*%
D14*
%TO.C,J6*%
X39905000Y-83100000D03*
%TD*%
D10*
%TO.C,KiKit_MB_24_6*%
X36333333Y-34300000D03*
%TD*%
%TO.C,KiKit_MB_28_1*%
X62500000Y-34300000D03*
%TD*%
%TO.C,KiKit_MB_58_4*%
X70300000Y-57500000D03*
%TD*%
D12*
%TO.C,J18*%
X8375000Y-52500000D03*
%TD*%
%TO.C,J26*%
X30375000Y-17500000D03*
%TD*%
D14*
%TO.C,J2*%
X12825000Y-83100000D03*
%TD*%
D11*
%TO.C,J11*%
X14095000Y-70500000D03*
%TD*%
D12*
%TO.C,J29*%
X40625000Y-77500000D03*
%TD*%
D10*
%TO.C,KiKit_MB_48_4*%
X82000000Y-49300000D03*
%TD*%
D11*
%TO.C,J16*%
X86445000Y-70565000D03*
%TD*%
D14*
%TO.C,J5*%
X60635000Y-8100000D03*
%TD*%
%TO.C,J4*%
X59365000Y-53100000D03*
%TD*%
%TO.C,J2*%
X78825000Y-38100000D03*
%TD*%
D12*
%TO.C,J17*%
X52375000Y-70750000D03*
%TD*%
%TO.C,J32*%
X45625000Y-74250000D03*
%TD*%
%TO.C,J26*%
X30375000Y-32500000D03*
%TD*%
D11*
%TO.C,J10*%
X12825000Y-10500000D03*
%TD*%
D14*
%TO.C,J1*%
X55555000Y-83165000D03*
%TD*%
D12*
%TO.C,J32*%
X67625000Y-59250000D03*
%TD*%
D11*
%TO.C,J14*%
X17905000Y-40500000D03*
%TD*%
D10*
%TO.C,KiKit_MB_33_1*%
X5700000Y-45000000D03*
%TD*%
D14*
%TO.C,J5*%
X82635000Y-68100000D03*
%TD*%
D11*
%TO.C,J14*%
X83905000Y-40500000D03*
%TD*%
D10*
%TO.C,KiKit_MB_73_2*%
X49700000Y-74166666D03*
%TD*%
%TO.C,KiKit_MB_68_3*%
X16833333Y-79300000D03*
%TD*%
%TO.C,KiKit_MB_7_1*%
X35500000Y-5700000D03*
%TD*%
D11*
%TO.C,J11*%
X58095000Y-85500000D03*
%TD*%
D12*
%TO.C,J31*%
X89625000Y-32500000D03*
%TD*%
D10*
%TO.C,KiKit_MB_2_5*%
X26300000Y-13333333D03*
%TD*%
D11*
%TO.C,J14*%
X61905000Y-40500000D03*
%TD*%
D10*
%TO.C,KiKit_MB_49_4*%
X5700000Y-57500000D03*
%TD*%
%TO.C,KiKit_MB_84_1*%
X18500000Y-94300000D03*
%TD*%
%TO.C,KiKit_MB_26_2*%
X70300000Y-25833333D03*
%TD*%
D12*
%TO.C,J30*%
X83900000Y-41500000D03*
%TD*%
%TO.C,J29*%
X62625000Y-77500000D03*
%TD*%
D11*
%TO.C,J10*%
X12825000Y-85500000D03*
%TD*%
D10*
%TO.C,KiKit_MB_25_7*%
X49700000Y-25000000D03*
%TD*%
%TO.C,KiKit_MB_3_3*%
X15166667Y-5700000D03*
%TD*%
D13*
%TO.C,I4*%
X65125000Y-60875000D03*
%TD*%
D10*
%TO.C,KiKit_MB_71_7*%
X40500000Y-65700000D03*
%TD*%
D12*
%TO.C,J27*%
X14100000Y-86500000D03*
%TD*%
D11*
%TO.C,J10*%
X56825000Y-40500000D03*
%TD*%
D10*
%TO.C,KiKit_MB_73_6*%
X49700000Y-70833333D03*
%TD*%
D11*
%TO.C,J12*%
X37365000Y-40500000D03*
%TD*%
D12*
%TO.C,J19*%
X80095000Y-22125000D03*
%TD*%
D10*
%TO.C,KiKit_MB_100_3*%
X92000000Y-97600000D03*
%TD*%
%TO.C,KiKit_MB_16_2*%
X83666666Y-19300000D03*
%TD*%
D11*
%TO.C,J15*%
X41175000Y-85500000D03*
%TD*%
D10*
%TO.C,KiKit_MB_84_4*%
X16000000Y-94300000D03*
%TD*%
D12*
%TO.C,J20*%
X79375000Y-14250000D03*
%TD*%
%TO.C,J18*%
X52375000Y-52500000D03*
%TD*%
D14*
%TO.C,J4*%
X81365000Y-8100000D03*
%TD*%
D12*
%TO.C,J30*%
X17900000Y-11500000D03*
%TD*%
%TO.C,J29*%
X62625000Y-17500000D03*
%TD*%
D10*
%TO.C,KiKit_MB_77_3*%
X71700000Y-73333333D03*
%TD*%
D13*
%TO.C,I3*%
X32875000Y-60875000D03*
%TD*%
D10*
%TO.C,KiKit_MB_45_5*%
X71700000Y-41666666D03*
%TD*%
D12*
%TO.C,J24*%
X23625000Y-55750000D03*
%TD*%
D11*
%TO.C,J13*%
X82635000Y-25500000D03*
%TD*%
D10*
%TO.C,KiKit_MB_92_5*%
X59166666Y-94300000D03*
%TD*%
D11*
%TO.C,J15*%
X41175000Y-10500000D03*
%TD*%
%TO.C,J13*%
X82635000Y-40500000D03*
%TD*%
D14*
%TO.C,J5*%
X16635000Y-68100000D03*
%TD*%
D11*
%TO.C,J15*%
X63175000Y-55500000D03*
%TD*%
D12*
%TO.C,J22*%
X83905000Y-22125000D03*
%TD*%
%TO.C,J26*%
X30375000Y-47500000D03*
%TD*%
D10*
%TO.C,KiKit_MB_68_4*%
X16000000Y-79300000D03*
%TD*%
%TO.C,KiKit_MB_12_1*%
X62500000Y-19300000D03*
%TD*%
%TO.C,KiKit_MB_11_5*%
X60833333Y-5700000D03*
%TD*%
%TO.C,KiKit_MB_26_7*%
X70300000Y-30000000D03*
%TD*%
D11*
%TO.C,J12*%
X15365000Y-85500000D03*
%TD*%
D12*
%TO.C,J19*%
X58095000Y-37125000D03*
%TD*%
D10*
%TO.C,KiKit_MB_86_1*%
X48300000Y-85000000D03*
%TD*%
D11*
%TO.C,J9*%
X55555000Y-85565000D03*
%TD*%
D10*
%TO.C,KiKit_MB_96_5*%
X81166666Y-94300000D03*
%TD*%
%TO.C,KiKit_MB_36_6*%
X14333334Y-49300000D03*
%TD*%
%TO.C,KiKit_MB_17_5*%
X5700000Y-26666666D03*
%TD*%
%TO.C,KiKit_MB_44_7*%
X57500000Y-49300000D03*
%TD*%
D12*
%TO.C,J25*%
X30375000Y-59250000D03*
%TD*%
D11*
%TO.C,J10*%
X12825000Y-25500000D03*
%TD*%
D12*
%TO.C,J28*%
X79375000Y-47500000D03*
%TD*%
D11*
%TO.C,J13*%
X38635000Y-55500000D03*
%TD*%
D10*
%TO.C,KiKit_MB_57_4*%
X49700000Y-57500000D03*
%TD*%
D12*
%TO.C,J19*%
X36095000Y-7125000D03*
%TD*%
D14*
%TO.C,J2*%
X56825000Y-83100000D03*
%TD*%
D11*
%TO.C,J12*%
X81365000Y-25500000D03*
%TD*%
D12*
%TO.C,J31*%
X23625000Y-32500000D03*
%TD*%
%TO.C,J30*%
X39900000Y-41500000D03*
%TD*%
D10*
%TO.C,KiKit_MB_82_3*%
X26300000Y-86666666D03*
%TD*%
D13*
%TO.C,I3*%
X32875000Y-30875000D03*
%TD*%
D10*
%TO.C,KiKit_MB_37_6*%
X27700000Y-40833333D03*
%TD*%
D14*
%TO.C,J4*%
X15365000Y-83100000D03*
%TD*%
D10*
%TO.C,KiKit_MB_6_6*%
X48300000Y-14166666D03*
%TD*%
%TO.C,KiKit_MB_75_5*%
X60833333Y-65700000D03*
%TD*%
%TO.C,KiKit_MB_51_3*%
X15166667Y-50700000D03*
%TD*%
%TO.C,KiKit_MB_54_7*%
X48300000Y-60000000D03*
%TD*%
D11*
%TO.C,J14*%
X61905000Y-10500000D03*
%TD*%
D13*
%TO.C,I3*%
X76875000Y-30875000D03*
%TD*%
D12*
%TO.C,J24*%
X23625000Y-25750000D03*
%TD*%
D10*
%TO.C,KiKit_MB_74_4*%
X70300000Y-72500000D03*
%TD*%
D12*
%TO.C,J25*%
X30375000Y-29250000D03*
%TD*%
D14*
%TO.C,J2*%
X12825000Y-8100000D03*
%TD*%
D10*
%TO.C,KiKit_MB_10_1*%
X70300000Y-10000000D03*
%TD*%
D12*
%TO.C,J32*%
X23625000Y-44250000D03*
%TD*%
D14*
%TO.C,J1*%
X33555000Y-68165000D03*
%TD*%
D10*
%TO.C,KiKit_MB_94_5*%
X92300000Y-88333333D03*
%TD*%
D14*
%TO.C,J4*%
X15365000Y-68100000D03*
%TD*%
D12*
%TO.C,J24*%
X67625000Y-70750000D03*
%TD*%
%TO.C,J20*%
X13375000Y-59250000D03*
%TD*%
D10*
%TO.C,KiKit_MB_103_1*%
X94000000Y-6000000D03*
%TD*%
D14*
%TO.C,J2*%
X34825000Y-23100000D03*
%TD*%
D12*
%TO.C,J21*%
X18625000Y-44250000D03*
%TD*%
D10*
%TO.C,KiKit_MB_80_6*%
X80333333Y-79300000D03*
%TD*%
D11*
%TO.C,J12*%
X81365000Y-85500000D03*
%TD*%
D12*
%TO.C,J22*%
X61905000Y-7125000D03*
%TD*%
D10*
%TO.C,KiKit_MB_21_4*%
X27700000Y-27500000D03*
%TD*%
D14*
%TO.C,J8*%
X42445000Y-38165000D03*
%TD*%
D12*
%TO.C,J24*%
X45625000Y-85750000D03*
%TD*%
D10*
%TO.C,KiKit_MB_9_2*%
X49700000Y-14166666D03*
%TD*%
D14*
%TO.C,J1*%
X77555000Y-38165000D03*
%TD*%
D12*
%TO.C,J26*%
X52375000Y-32500000D03*
%TD*%
D10*
%TO.C,KiKit_MB_100_1*%
X92000000Y-96000000D03*
%TD*%
D14*
%TO.C,J3*%
X58095000Y-38100000D03*
%TD*%
D12*
%TO.C,J18*%
X30375000Y-7500000D03*
%TD*%
%TO.C,J27*%
X80100000Y-56500000D03*
%TD*%
D10*
%TO.C,KiKit_MB_39_3*%
X37166666Y-35700000D03*
%TD*%
D11*
%TO.C,J16*%
X64445000Y-40565000D03*
%TD*%
D10*
%TO.C,KiKit_MB_14_1*%
X92300000Y-10000000D03*
%TD*%
D12*
%TO.C,J31*%
X45625000Y-47500000D03*
%TD*%
D10*
%TO.C,KiKit_MB_46_2*%
X92300000Y-40833333D03*
%TD*%
%TO.C,KiKit_MB_49_2*%
X5700000Y-59166666D03*
%TD*%
%TO.C,KiKit_MB_8_5*%
X37166666Y-19300000D03*
%TD*%
%TO.C,KiKit_MB_35_3*%
X15166667Y-35700000D03*
%TD*%
%TO.C,KiKit_MB_20_3*%
X16833333Y-34300000D03*
%TD*%
%TO.C,KiKit_MB_6_4*%
X48300000Y-12500000D03*
%TD*%
D12*
%TO.C,J25*%
X52375000Y-89250000D03*
%TD*%
%TO.C,J21*%
X84625000Y-59250000D03*
%TD*%
D11*
%TO.C,J10*%
X34825000Y-70500000D03*
%TD*%
D14*
%TO.C,J4*%
X59365000Y-38100000D03*
%TD*%
D10*
%TO.C,KiKit_MB_32_2*%
X83666666Y-34300000D03*
%TD*%
D12*
%TO.C,J20*%
X35375000Y-14250000D03*
%TD*%
D13*
%TO.C,I3*%
X54875000Y-45875000D03*
%TD*%
D12*
%TO.C,J20*%
X57375000Y-59250000D03*
%TD*%
D10*
%TO.C,KiKit_MB_51_2*%
X14333334Y-50700000D03*
%TD*%
%TO.C,KiKit_MB_66_2*%
X26300000Y-70833333D03*
%TD*%
%TO.C,KiKit_MB_72_4*%
X38000000Y-79300000D03*
%TD*%
D11*
%TO.C,J10*%
X56825000Y-70500000D03*
%TD*%
D10*
%TO.C,KiKit_MB_78_2*%
X92300000Y-70833333D03*
%TD*%
D14*
%TO.C,J1*%
X33555000Y-38165000D03*
%TD*%
D11*
%TO.C,J13*%
X82635000Y-70500000D03*
%TD*%
D10*
%TO.C,KiKit_MB_75_4*%
X60000000Y-65700000D03*
%TD*%
%TO.C,KiKit_MB_84_3*%
X16833333Y-94300000D03*
%TD*%
%TO.C,KiKit_MB_52_1*%
X18500000Y-64300000D03*
%TD*%
D12*
%TO.C,J28*%
X79375000Y-77500000D03*
%TD*%
%TO.C,J26*%
X30375000Y-77500000D03*
%TD*%
D10*
%TO.C,KiKit_MB_82_5*%
X26300000Y-88333333D03*
%TD*%
D12*
%TO.C,J20*%
X57375000Y-14250000D03*
%TD*%
D11*
%TO.C,J16*%
X64445000Y-55565000D03*
%TD*%
D10*
%TO.C,KiKit_MB_55_2*%
X36333333Y-50700000D03*
%TD*%
D11*
%TO.C,J11*%
X80095000Y-10500000D03*
%TD*%
D14*
%TO.C,J2*%
X34825000Y-83100000D03*
%TD*%
D10*
%TO.C,KiKit_MB_40_4*%
X38000000Y-49300000D03*
%TD*%
%TO.C,KiKit_MB_91_7*%
X62500000Y-80700000D03*
%TD*%
%TO.C,KiKit_MB_69_5*%
X27700000Y-71666666D03*
%TD*%
%TO.C,KiKit_MB_7_4*%
X38000000Y-5700000D03*
%TD*%
D12*
%TO.C,J20*%
X35375000Y-74250000D03*
%TD*%
D14*
%TO.C,J3*%
X80095000Y-23100000D03*
%TD*%
D10*
%TO.C,KiKit_MB_89_6*%
X49700000Y-85833333D03*
%TD*%
%TO.C,KiKit_MB_20_4*%
X16000000Y-34300000D03*
%TD*%
D14*
%TO.C,J8*%
X20445000Y-83165000D03*
%TD*%
D10*
%TO.C,KiKit_MB_25_3*%
X49700000Y-28333333D03*
%TD*%
D12*
%TO.C,J29*%
X84625000Y-62500000D03*
%TD*%
%TO.C,J22*%
X61905000Y-37125000D03*
%TD*%
D14*
%TO.C,J8*%
X42445000Y-23165000D03*
%TD*%
D11*
%TO.C,J13*%
X60635000Y-70500000D03*
%TD*%
D12*
%TO.C,J17*%
X74375000Y-40750000D03*
%TD*%
D10*
%TO.C,KiKit_MB_93_5*%
X71700000Y-86666666D03*
%TD*%
%TO.C,KiKit_MB_21_2*%
X27700000Y-29166666D03*
%TD*%
%TO.C,KiKit_MB_68_6*%
X14333334Y-79300000D03*
%TD*%
D11*
%TO.C,J15*%
X19175000Y-10500000D03*
%TD*%
D14*
%TO.C,J5*%
X60635000Y-53100000D03*
%TD*%
D12*
%TO.C,J32*%
X23625000Y-59250000D03*
%TD*%
D10*
%TO.C,KiKit_MB_60_1*%
X62500000Y-64300000D03*
%TD*%
D14*
%TO.C,J3*%
X14095000Y-53100000D03*
%TD*%
D11*
%TO.C,J11*%
X80095000Y-40500000D03*
%TD*%
D10*
%TO.C,KiKit_MB_46_4*%
X92300000Y-42500000D03*
%TD*%
D12*
%TO.C,J24*%
X67625000Y-40750000D03*
%TD*%
D11*
%TO.C,J9*%
X55555000Y-70565000D03*
%TD*%
%TO.C,J11*%
X80095000Y-85500000D03*
%TD*%
D13*
%TO.C,I4*%
X43125000Y-75875000D03*
%TD*%
D10*
%TO.C,KiKit_MB_11_2*%
X58333333Y-5700000D03*
%TD*%
%TO.C,KiKit_MB_103_3*%
X95600000Y-6000000D03*
%TD*%
D14*
%TO.C,J1*%
X33555000Y-53165000D03*
%TD*%
%TO.C,J3*%
X58095000Y-68100000D03*
%TD*%
D10*
%TO.C,KiKit_MB_25_2*%
X49700000Y-29166666D03*
%TD*%
D12*
%TO.C,J29*%
X40625000Y-32500000D03*
%TD*%
D10*
%TO.C,KiKit_MB_83_2*%
X14333334Y-80700000D03*
%TD*%
D14*
%TO.C,J8*%
X64445000Y-23165000D03*
%TD*%
D10*
%TO.C,KiKit_MB_99_4*%
X6000000Y-98400000D03*
%TD*%
%TO.C,KiKit_MB_13_3*%
X71700000Y-13333333D03*
%TD*%
%TO.C,KiKit_MB_87_2*%
X36333333Y-80700000D03*
%TD*%
D12*
%TO.C,J18*%
X30375000Y-37500000D03*
%TD*%
%TO.C,J22*%
X61905000Y-67125000D03*
%TD*%
D10*
%TO.C,KiKit_MB_83_1*%
X13500000Y-80700000D03*
%TD*%
D14*
%TO.C,J4*%
X37365000Y-53100000D03*
%TD*%
D10*
%TO.C,KiKit_MB_83_4*%
X16000000Y-80700000D03*
%TD*%
D12*
%TO.C,J18*%
X30375000Y-52500000D03*
%TD*%
D11*
%TO.C,J14*%
X83905000Y-10500000D03*
%TD*%
D10*
%TO.C,KiKit_MB_33_3*%
X5700000Y-43333333D03*
%TD*%
%TO.C,KiKit_MB_80_2*%
X83666666Y-79300000D03*
%TD*%
%TO.C,KiKit_MB_69_2*%
X27700000Y-74166666D03*
%TD*%
%TO.C,KiKit_MB_26_6*%
X70300000Y-29166666D03*
%TD*%
D12*
%TO.C,J25*%
X8375000Y-44250000D03*
%TD*%
D10*
%TO.C,KiKit_MB_30_6*%
X92300000Y-29166666D03*
%TD*%
%TO.C,KiKit_MB_39_2*%
X36333333Y-35700000D03*
%TD*%
D14*
%TO.C,J8*%
X42445000Y-68165000D03*
%TD*%
D10*
%TO.C,KiKit_MB_1_1*%
X5700000Y-15000000D03*
%TD*%
D12*
%TO.C,J27*%
X80100000Y-11500000D03*
%TD*%
D10*
%TO.C,KiKit_MB_47_6*%
X83666666Y-35700000D03*
%TD*%
D11*
%TO.C,J14*%
X83905000Y-25500000D03*
%TD*%
%TO.C,J14*%
X39905000Y-55500000D03*
%TD*%
D10*
%TO.C,KiKit_MB_45_6*%
X71700000Y-40833333D03*
%TD*%
%TO.C,KiKit_MB_3_6*%
X17666666Y-5700000D03*
%TD*%
D12*
%TO.C,J29*%
X18625000Y-17500000D03*
%TD*%
D10*
%TO.C,KiKit_MB_71_6*%
X39666666Y-65700000D03*
%TD*%
D12*
%TO.C,J22*%
X17905000Y-7125000D03*
%TD*%
D11*
%TO.C,J9*%
X11555000Y-25565000D03*
%TD*%
D10*
%TO.C,KiKit_MB_47_3*%
X81166666Y-35700000D03*
%TD*%
%TO.C,KiKit_MB_28_6*%
X58333333Y-34300000D03*
%TD*%
D11*
%TO.C,J11*%
X80095000Y-25500000D03*
%TD*%
D14*
%TO.C,J1*%
X33555000Y-83165000D03*
%TD*%
D11*
%TO.C,J13*%
X16635000Y-85500000D03*
%TD*%
%TO.C,J12*%
X59365000Y-40500000D03*
%TD*%
D12*
%TO.C,J31*%
X45625000Y-32500000D03*
%TD*%
%TO.C,J25*%
X74375000Y-89250000D03*
%TD*%
D10*
%TO.C,KiKit_MB_94_2*%
X92300000Y-85833333D03*
%TD*%
D12*
%TO.C,J19*%
X80095000Y-52125000D03*
%TD*%
D10*
%TO.C,KiKit_MB_39_4*%
X38000000Y-35700000D03*
%TD*%
%TO.C,KiKit_MB_47_7*%
X84500000Y-35700000D03*
%TD*%
%TO.C,KiKit_MB_50_1*%
X26300000Y-55000000D03*
%TD*%
D11*
%TO.C,J11*%
X14095000Y-55500000D03*
%TD*%
D10*
%TO.C,KiKit_MB_64_5*%
X81166666Y-64300000D03*
%TD*%
D12*
%TO.C,J19*%
X36095000Y-37125000D03*
%TD*%
D10*
%TO.C,KiKit_MB_64_2*%
X83666666Y-64300000D03*
%TD*%
D11*
%TO.C,J15*%
X41175000Y-40500000D03*
%TD*%
%TO.C,J13*%
X16635000Y-10500000D03*
%TD*%
D12*
%TO.C,J24*%
X67625000Y-55750000D03*
%TD*%
D11*
%TO.C,J10*%
X34825000Y-10500000D03*
%TD*%
D14*
%TO.C,J1*%
X11555000Y-83165000D03*
%TD*%
D10*
%TO.C,KiKit_MB_3_1*%
X13500000Y-5700000D03*
%TD*%
D12*
%TO.C,J27*%
X36100000Y-86500000D03*
%TD*%
D10*
%TO.C,KiKit_MB_9_6*%
X49700000Y-10833334D03*
%TD*%
D14*
%TO.C,J1*%
X55555000Y-8165000D03*
%TD*%
D10*
%TO.C,KiKit_MB_90_4*%
X70300000Y-87500000D03*
%TD*%
%TO.C,KiKit_MB_97_2*%
X6000000Y-800000D03*
%TD*%
%TO.C,KiKit_MB_71_4*%
X38000000Y-65700000D03*
%TD*%
%TO.C,KiKit_MB_67_1*%
X13500000Y-65700000D03*
%TD*%
D11*
%TO.C,J10*%
X78825000Y-25500000D03*
%TD*%
D10*
%TO.C,KiKit_MB_41_1*%
X49700000Y-45000000D03*
%TD*%
%TO.C,KiKit_MB_77_7*%
X71700000Y-70000000D03*
%TD*%
%TO.C,KiKit_MB_58_3*%
X70300000Y-56666666D03*
%TD*%
%TO.C,KiKit_MB_46_7*%
X92300000Y-45000000D03*
%TD*%
%TO.C,KiKit_MB_35_4*%
X16000000Y-35700000D03*
%TD*%
%TO.C,KiKit_MB_77_5*%
X71700000Y-71666666D03*
%TD*%
D12*
%TO.C,J17*%
X74375000Y-70750000D03*
%TD*%
D10*
%TO.C,KiKit_MB_45_3*%
X71700000Y-43333333D03*
%TD*%
%TO.C,KiKit_MB_19_4*%
X16000000Y-20700000D03*
%TD*%
D12*
%TO.C,J23*%
X89625000Y-37500000D03*
%TD*%
D10*
%TO.C,KiKit_MB_63_4*%
X82000000Y-50700000D03*
%TD*%
%TO.C,KiKit_MB_98_4*%
X92000000Y-2400000D03*
%TD*%
%TO.C,KiKit_MB_25_1*%
X49700000Y-30000000D03*
%TD*%
D12*
%TO.C,J18*%
X52375000Y-7500000D03*
%TD*%
%TO.C,J24*%
X89625000Y-55750000D03*
%TD*%
D10*
%TO.C,KiKit_MB_13_1*%
X71700000Y-15000000D03*
%TD*%
%TO.C,KiKit_MB_11_4*%
X60000000Y-5700000D03*
%TD*%
D14*
%TO.C,J6*%
X17905000Y-8100000D03*
%TD*%
D12*
%TO.C,J24*%
X23625000Y-85750000D03*
%TD*%
D10*
%TO.C,KiKit_MB_104_3*%
X95600000Y-94000000D03*
%TD*%
D12*
%TO.C,J21*%
X40625000Y-59250000D03*
%TD*%
%TO.C,J32*%
X67625000Y-44250000D03*
%TD*%
D11*
%TO.C,J12*%
X15365000Y-40500000D03*
%TD*%
%TO.C,J11*%
X14095000Y-40500000D03*
%TD*%
D12*
%TO.C,J28*%
X13375000Y-17500000D03*
%TD*%
D10*
%TO.C,KiKit_MB_78_1*%
X92300000Y-70000000D03*
%TD*%
%TO.C,KiKit_MB_31_5*%
X82833333Y-20700000D03*
%TD*%
%TO.C,KiKit_MB_52_6*%
X14333334Y-64300000D03*
%TD*%
%TO.C,KiKit_MB_76_7*%
X57500000Y-79300000D03*
%TD*%
D12*
%TO.C,J19*%
X58095000Y-67125000D03*
%TD*%
D14*
%TO.C,J1*%
X55555000Y-68165000D03*
%TD*%
D10*
%TO.C,KiKit_MB_41_2*%
X49700000Y-44166666D03*
%TD*%
D11*
%TO.C,J15*%
X41175000Y-70500000D03*
%TD*%
D12*
%TO.C,J23*%
X67625000Y-67500000D03*
%TD*%
D10*
%TO.C,KiKit_MB_5_2*%
X27700000Y-14166666D03*
%TD*%
%TO.C,KiKit_MB_73_4*%
X49700000Y-72500000D03*
%TD*%
D12*
%TO.C,J25*%
X74375000Y-44250000D03*
%TD*%
D14*
%TO.C,J2*%
X12825000Y-38100000D03*
%TD*%
D12*
%TO.C,J24*%
X23625000Y-40750000D03*
%TD*%
D14*
%TO.C,J2*%
X12825000Y-68100000D03*
%TD*%
D12*
%TO.C,J19*%
X80095000Y-37125000D03*
%TD*%
D13*
%TO.C,I4*%
X87125000Y-75875000D03*
%TD*%
D11*
%TO.C,J14*%
X61905000Y-85500000D03*
%TD*%
%TO.C,J9*%
X77555000Y-25565000D03*
%TD*%
D10*
%TO.C,KiKit_MB_75_6*%
X61666666Y-65700000D03*
%TD*%
D14*
%TO.C,J5*%
X38635000Y-83100000D03*
%TD*%
D12*
%TO.C,J23*%
X45625000Y-82500000D03*
%TD*%
D10*
%TO.C,KiKit_MB_34_3*%
X26300000Y-41666666D03*
%TD*%
D13*
%TO.C,KiKit_TO_3*%
X2500000Y-97500000D03*
%TD*%
D12*
%TO.C,J19*%
X36095000Y-52125000D03*
%TD*%
D10*
%TO.C,KiKit_MB_75_3*%
X59166666Y-65700000D03*
%TD*%
%TO.C,KiKit_MB_33_5*%
X5700000Y-41666666D03*
%TD*%
D12*
%TO.C,J31*%
X23625000Y-62500000D03*
%TD*%
D10*
%TO.C,KiKit_MB_52_7*%
X13500000Y-64300000D03*
%TD*%
D12*
%TO.C,J22*%
X39905000Y-52125000D03*
%TD*%
D10*
%TO.C,KiKit_MB_6_5*%
X48300000Y-13333333D03*
%TD*%
%TO.C,KiKit_MB_90_3*%
X70300000Y-86666666D03*
%TD*%
D11*
%TO.C,J16*%
X64445000Y-25565000D03*
%TD*%
D12*
%TO.C,J27*%
X80100000Y-86500000D03*
%TD*%
%TO.C,J19*%
X58095000Y-7125000D03*
%TD*%
D10*
%TO.C,KiKit_MB_86_3*%
X48300000Y-86666666D03*
%TD*%
%TO.C,KiKit_MB_85_1*%
X27700000Y-90000000D03*
%TD*%
%TO.C,KiKit_MB_101_3*%
X1600000Y-6000000D03*
%TD*%
%TO.C,KiKit_MB_22_5*%
X48300000Y-28333333D03*
%TD*%
%TO.C,KiKit_MB_49_7*%
X5700000Y-55000000D03*
%TD*%
%TO.C,KiKit_MB_70_6*%
X48300000Y-74166666D03*
%TD*%
D12*
%TO.C,J26*%
X74375000Y-32500000D03*
%TD*%
D10*
%TO.C,KiKit_MB_50_4*%
X26300000Y-57500000D03*
%TD*%
%TO.C,KiKit_MB_59_1*%
X57500000Y-50700000D03*
%TD*%
%TO.C,KiKit_MB_14_6*%
X92300000Y-14166666D03*
%TD*%
%TO.C,KiKit_MB_23_7*%
X40500000Y-20700000D03*
%TD*%
%TO.C,KiKit_MB_6_2*%
X48300000Y-10833334D03*
%TD*%
D14*
%TO.C,J3*%
X58095000Y-83100000D03*
%TD*%
D10*
%TO.C,KiKit_MB_41_7*%
X49700000Y-40000000D03*
%TD*%
%TO.C,KiKit_MB_61_3*%
X71700000Y-58333333D03*
%TD*%
D12*
%TO.C,J17*%
X30375000Y-25750000D03*
%TD*%
D10*
%TO.C,KiKit_MB_95_1*%
X79500000Y-80700000D03*
%TD*%
D14*
%TO.C,J2*%
X56825000Y-68100000D03*
%TD*%
D13*
%TO.C,KiKit_TO_4*%
X95500000Y-97500000D03*
%TD*%
%TO.C,I4*%
X43125000Y-30875000D03*
%TD*%
D12*
%TO.C,J18*%
X8375000Y-7500000D03*
%TD*%
D11*
%TO.C,J12*%
X81365000Y-10500000D03*
%TD*%
D10*
%TO.C,KiKit_MB_53_1*%
X27700000Y-60000000D03*
%TD*%
D14*
%TO.C,J5*%
X60635000Y-38100000D03*
%TD*%
D10*
%TO.C,KiKit_MB_93_1*%
X71700000Y-90000000D03*
%TD*%
D11*
%TO.C,J12*%
X37365000Y-10500000D03*
%TD*%
D10*
%TO.C,KiKit_MB_63_7*%
X84500000Y-50700000D03*
%TD*%
%TO.C,KiKit_MB_16_4*%
X82000000Y-19300000D03*
%TD*%
%TO.C,KiKit_MB_77_6*%
X71700000Y-70833333D03*
%TD*%
D12*
%TO.C,J31*%
X89625000Y-17500000D03*
%TD*%
D10*
%TO.C,KiKit_MB_99_6*%
X6000000Y-100000000D03*
%TD*%
D12*
%TO.C,J28*%
X57375000Y-77500000D03*
%TD*%
D11*
%TO.C,J13*%
X38635000Y-70500000D03*
%TD*%
D10*
%TO.C,KiKit_MB_81_1*%
X5700000Y-90000000D03*
%TD*%
%TO.C,KiKit_MB_41_6*%
X49700000Y-40833333D03*
%TD*%
%TO.C,KiKit_MB_67_2*%
X14333334Y-65700000D03*
%TD*%
D14*
%TO.C,J3*%
X80095000Y-83100000D03*
%TD*%
D10*
%TO.C,KiKit_MB_56_6*%
X36333333Y-64300000D03*
%TD*%
D14*
%TO.C,J7*%
X85175000Y-8100000D03*
%TD*%
D10*
%TO.C,KiKit_MB_91_3*%
X59166666Y-80700000D03*
%TD*%
D12*
%TO.C,J20*%
X79375000Y-29250000D03*
%TD*%
%TO.C,J26*%
X8375000Y-47500000D03*
%TD*%
D10*
%TO.C,KiKit_MB_28_2*%
X61666666Y-34300000D03*
%TD*%
D12*
%TO.C,J21*%
X62625000Y-29250000D03*
%TD*%
D10*
%TO.C,KiKit_MB_47_2*%
X80333333Y-35700000D03*
%TD*%
D12*
%TO.C,J21*%
X18625000Y-89250000D03*
%TD*%
D10*
%TO.C,KiKit_MB_56_5*%
X37166666Y-64300000D03*
%TD*%
D12*
%TO.C,J24*%
X45625000Y-70750000D03*
%TD*%
D10*
%TO.C,KiKit_MB_95_5*%
X82833333Y-80700000D03*
%TD*%
D12*
%TO.C,J19*%
X14095000Y-37125000D03*
%TD*%
D10*
%TO.C,KiKit_MB_86_7*%
X48300000Y-90000000D03*
%TD*%
D12*
%TO.C,J30*%
X17900000Y-26500000D03*
%TD*%
D11*
%TO.C,J12*%
X15365000Y-10500000D03*
%TD*%
%TO.C,J12*%
X15365000Y-25500000D03*
%TD*%
D10*
%TO.C,KiKit_MB_9_1*%
X49700000Y-15000000D03*
%TD*%
D12*
%TO.C,J25*%
X8375000Y-59250000D03*
%TD*%
D10*
%TO.C,KiKit_MB_4_3*%
X16833333Y-19300000D03*
%TD*%
%TO.C,KiKit_MB_85_3*%
X27700000Y-88333333D03*
%TD*%
%TO.C,KiKit_MB_90_7*%
X70300000Y-90000000D03*
%TD*%
D12*
%TO.C,J32*%
X23625000Y-89250000D03*
%TD*%
D10*
%TO.C,KiKit_MB_33_6*%
X5700000Y-40833333D03*
%TD*%
%TO.C,KiKit_MB_54_1*%
X48300000Y-55000000D03*
%TD*%
D12*
%TO.C,J27*%
X14100000Y-71500000D03*
%TD*%
D11*
%TO.C,J16*%
X42445000Y-70565000D03*
%TD*%
D14*
%TO.C,J8*%
X86445000Y-8165000D03*
%TD*%
D10*
%TO.C,KiKit_MB_104_2*%
X94800000Y-94000000D03*
%TD*%
%TO.C,KiKit_MB_28_4*%
X60000000Y-34300000D03*
%TD*%
D14*
%TO.C,J7*%
X19175000Y-83100000D03*
%TD*%
D12*
%TO.C,J25*%
X52375000Y-74250000D03*
%TD*%
%TO.C,J31*%
X23625000Y-92500000D03*
%TD*%
%TO.C,J21*%
X18625000Y-29250000D03*
%TD*%
D10*
%TO.C,KiKit_MB_15_7*%
X84500000Y-5700000D03*
%TD*%
%TO.C,KiKit_MB_42_6*%
X70300000Y-44166666D03*
%TD*%
D11*
%TO.C,J11*%
X36095000Y-70500000D03*
%TD*%
D12*
%TO.C,J31*%
X89625000Y-92500000D03*
%TD*%
D11*
%TO.C,J12*%
X37365000Y-25500000D03*
%TD*%
D10*
%TO.C,KiKit_MB_34_5*%
X26300000Y-43333333D03*
%TD*%
D12*
%TO.C,J28*%
X79375000Y-32500000D03*
%TD*%
%TO.C,J30*%
X83900000Y-56500000D03*
%TD*%
D14*
%TO.C,J2*%
X34825000Y-68100000D03*
%TD*%
D13*
%TO.C,I4*%
X87125000Y-45875000D03*
%TD*%
D10*
%TO.C,KiKit_MB_88_2*%
X39666666Y-94300000D03*
%TD*%
D12*
%TO.C,J29*%
X18625000Y-92500000D03*
%TD*%
D10*
%TO.C,KiKit_MB_103_6*%
X98000000Y-6000000D03*
%TD*%
D11*
%TO.C,J10*%
X56825000Y-85500000D03*
%TD*%
D10*
%TO.C,KiKit_MB_8_6*%
X36333333Y-19300000D03*
%TD*%
%TO.C,KiKit_MB_60_2*%
X61666666Y-64300000D03*
%TD*%
D12*
%TO.C,J31*%
X23625000Y-77500000D03*
%TD*%
D10*
%TO.C,KiKit_MB_101_1*%
X0Y-6000000D03*
%TD*%
D11*
%TO.C,J15*%
X41175000Y-25500000D03*
%TD*%
D10*
%TO.C,KiKit_MB_102_1*%
X0Y-94000000D03*
%TD*%
%TO.C,KiKit_MB_75_7*%
X62500000Y-65700000D03*
%TD*%
D14*
%TO.C,J6*%
X39905000Y-53100000D03*
%TD*%
D10*
%TO.C,KiKit_MB_32_4*%
X82000000Y-34300000D03*
%TD*%
D12*
%TO.C,J21*%
X62625000Y-74250000D03*
%TD*%
%TO.C,J32*%
X89625000Y-59250000D03*
%TD*%
D14*
%TO.C,J4*%
X15365000Y-23100000D03*
%TD*%
D10*
%TO.C,KiKit_MB_94_4*%
X92300000Y-87500000D03*
%TD*%
D14*
%TO.C,J3*%
X58095000Y-53100000D03*
%TD*%
D11*
%TO.C,J10*%
X34825000Y-40500000D03*
%TD*%
D10*
%TO.C,KiKit_MB_89_7*%
X49700000Y-85000000D03*
%TD*%
%TO.C,KiKit_MB_14_2*%
X92300000Y-10833334D03*
%TD*%
%TO.C,KiKit_MB_42_4*%
X70300000Y-42500000D03*
%TD*%
%TO.C,KiKit_MB_96_3*%
X82833333Y-94300000D03*
%TD*%
%TO.C,KiKit_MB_44_5*%
X59166666Y-49300000D03*
%TD*%
D11*
%TO.C,J11*%
X36095000Y-85500000D03*
%TD*%
D10*
%TO.C,KiKit_MB_67_7*%
X18500000Y-65700000D03*
%TD*%
D12*
%TO.C,J29*%
X18625000Y-77500000D03*
%TD*%
D11*
%TO.C,J11*%
X58095000Y-40500000D03*
%TD*%
D12*
%TO.C,J25*%
X52375000Y-29250000D03*
%TD*%
%TO.C,J18*%
X52375000Y-37500000D03*
%TD*%
D10*
%TO.C,KiKit_MB_70_2*%
X48300000Y-70833333D03*
%TD*%
D12*
%TO.C,J30*%
X83900000Y-86500000D03*
%TD*%
D11*
%TO.C,J13*%
X82635000Y-85500000D03*
%TD*%
D10*
%TO.C,KiKit_MB_96_7*%
X79500000Y-94300000D03*
%TD*%
%TO.C,KiKit_MB_54_4*%
X48300000Y-57500000D03*
%TD*%
D12*
%TO.C,J31*%
X45625000Y-77500000D03*
%TD*%
D14*
%TO.C,J5*%
X38635000Y-53100000D03*
%TD*%
D10*
%TO.C,KiKit_MB_74_2*%
X70300000Y-70833333D03*
%TD*%
D12*
%TO.C,J23*%
X89625000Y-52500000D03*
%TD*%
D14*
%TO.C,J1*%
X77555000Y-68165000D03*
%TD*%
D10*
%TO.C,KiKit_MB_38_5*%
X48300000Y-43333333D03*
%TD*%
%TO.C,KiKit_MB_64_7*%
X79500000Y-64300000D03*
%TD*%
D12*
%TO.C,J21*%
X84625000Y-44250000D03*
%TD*%
%TO.C,J20*%
X57375000Y-44250000D03*
%TD*%
D14*
%TO.C,J1*%
X11555000Y-68165000D03*
%TD*%
D12*
%TO.C,J31*%
X23625000Y-47500000D03*
%TD*%
%TO.C,J21*%
X84625000Y-74250000D03*
%TD*%
D10*
%TO.C,KiKit_MB_37_5*%
X27700000Y-41666666D03*
%TD*%
%TO.C,KiKit_MB_104_1*%
X94000000Y-94000000D03*
%TD*%
D12*
%TO.C,J24*%
X23625000Y-70750000D03*
%TD*%
D14*
%TO.C,J2*%
X78825000Y-53100000D03*
%TD*%
%TO.C,J3*%
X36095000Y-8100000D03*
%TD*%
D10*
%TO.C,KiKit_MB_35_2*%
X14333334Y-35700000D03*
%TD*%
D14*
%TO.C,J7*%
X85175000Y-23100000D03*
%TD*%
D10*
%TO.C,KiKit_MB_27_6*%
X61666666Y-20700000D03*
%TD*%
%TO.C,KiKit_MB_1_7*%
X5700000Y-10000000D03*
%TD*%
D12*
%TO.C,J28*%
X79375000Y-62500000D03*
%TD*%
D14*
%TO.C,J7*%
X41175000Y-53100000D03*
%TD*%
D10*
%TO.C,KiKit_MB_53_2*%
X27700000Y-59166666D03*
%TD*%
%TO.C,KiKit_MB_50_2*%
X26300000Y-55833333D03*
%TD*%
D12*
%TO.C,J24*%
X89625000Y-70750000D03*
%TD*%
D14*
%TO.C,J3*%
X80095000Y-8100000D03*
%TD*%
D10*
%TO.C,KiKit_MB_79_2*%
X80333333Y-65700000D03*
%TD*%
%TO.C,KiKit_MB_70_7*%
X48300000Y-75000000D03*
%TD*%
%TO.C,KiKit_MB_82_2*%
X26300000Y-85833333D03*
%TD*%
D12*
%TO.C,J23*%
X67625000Y-22500000D03*
%TD*%
%TO.C,J25*%
X74375000Y-74250000D03*
%TD*%
%TO.C,J28*%
X57375000Y-47500000D03*
%TD*%
D10*
%TO.C,KiKit_MB_15_2*%
X80333333Y-5700000D03*
%TD*%
%TO.C,KiKit_MB_5_6*%
X27700000Y-10833334D03*
%TD*%
%TO.C,KiKit_MB_26_5*%
X70300000Y-28333333D03*
%TD*%
D14*
%TO.C,J8*%
X86445000Y-53165000D03*
%TD*%
D10*
%TO.C,KiKit_MB_78_7*%
X92300000Y-75000000D03*
%TD*%
%TO.C,KiKit_MB_98_1*%
X92000000Y0D03*
%TD*%
D14*
%TO.C,J4*%
X81365000Y-53100000D03*
%TD*%
D11*
%TO.C,J10*%
X78825000Y-10500000D03*
%TD*%
D12*
%TO.C,J23*%
X89625000Y-67500000D03*
%TD*%
D10*
%TO.C,KiKit_MB_24_2*%
X39666666Y-34300000D03*
%TD*%
%TO.C,KiKit_MB_62_4*%
X92300000Y-57500000D03*
%TD*%
%TO.C,KiKit_MB_40_3*%
X38833333Y-49300000D03*
%TD*%
%TO.C,KiKit_MB_4_7*%
X13500000Y-19300000D03*
%TD*%
%TO.C,KiKit_MB_49_1*%
X5700000Y-60000000D03*
%TD*%
D14*
%TO.C,J1*%
X77555000Y-53165000D03*
%TD*%
D10*
%TO.C,KiKit_MB_69_7*%
X27700000Y-70000000D03*
%TD*%
%TO.C,KiKit_MB_29_1*%
X71700000Y-30000000D03*
%TD*%
D14*
%TO.C,J6*%
X39905000Y-23100000D03*
%TD*%
D10*
%TO.C,KiKit_MB_58_5*%
X70300000Y-58333333D03*
%TD*%
%TO.C,KiKit_MB_92_1*%
X62500000Y-94300000D03*
%TD*%
D14*
%TO.C,J1*%
X77555000Y-23165000D03*
%TD*%
%TO.C,J6*%
X83905000Y-23100000D03*
%TD*%
%TO.C,J7*%
X41175000Y-8100000D03*
%TD*%
D11*
%TO.C,J11*%
X58095000Y-70500000D03*
%TD*%
D10*
%TO.C,KiKit_MB_8_2*%
X39666666Y-19300000D03*
%TD*%
%TO.C,KiKit_MB_48_3*%
X82833333Y-49300000D03*
%TD*%
%TO.C,KiKit_MB_97_5*%
X6000000Y-3200000D03*
%TD*%
%TO.C,KiKit_MB_52_4*%
X16000000Y-64300000D03*
%TD*%
%TO.C,KiKit_MB_40_1*%
X40500000Y-49300000D03*
%TD*%
%TO.C,KiKit_MB_15_5*%
X82833333Y-5700000D03*
%TD*%
D12*
%TO.C,J20*%
X13375000Y-14250000D03*
%TD*%
%TO.C,J17*%
X8375000Y-10750000D03*
%TD*%
D10*
%TO.C,KiKit_MB_80_1*%
X84500000Y-79300000D03*
%TD*%
%TO.C,KiKit_MB_10_6*%
X70300000Y-14166666D03*
%TD*%
D14*
%TO.C,J5*%
X82635000Y-8100000D03*
%TD*%
D12*
%TO.C,J19*%
X14095000Y-22125000D03*
%TD*%
D10*
%TO.C,KiKit_MB_88_4*%
X38000000Y-94300000D03*
%TD*%
D13*
%TO.C,I4*%
X21125000Y-60875000D03*
%TD*%
D10*
%TO.C,KiKit_MB_46_1*%
X92300000Y-40000000D03*
%TD*%
D13*
%TO.C,I3*%
X32875000Y-90875000D03*
%TD*%
D11*
%TO.C,J16*%
X86445000Y-10565000D03*
%TD*%
D13*
%TO.C,I3*%
X76875000Y-90875000D03*
%TD*%
D10*
%TO.C,KiKit_MB_96_4*%
X82000000Y-94300000D03*
%TD*%
%TO.C,KiKit_MB_94_3*%
X92300000Y-86666666D03*
%TD*%
D14*
%TO.C,J7*%
X63175000Y-68100000D03*
%TD*%
D11*
%TO.C,J15*%
X63175000Y-70500000D03*
%TD*%
D14*
%TO.C,J4*%
X15365000Y-8100000D03*
%TD*%
D11*
%TO.C,J11*%
X80095000Y-70500000D03*
%TD*%
D14*
%TO.C,J1*%
X77555000Y-83165000D03*
%TD*%
D10*
%TO.C,KiKit_MB_19_5*%
X16833333Y-20700000D03*
%TD*%
D14*
%TO.C,J2*%
X56825000Y-53100000D03*
%TD*%
D12*
%TO.C,J18*%
X74375000Y-82500000D03*
%TD*%
D10*
%TO.C,KiKit_MB_81_4*%
X5700000Y-87500000D03*
%TD*%
D12*
%TO.C,J22*%
X17905000Y-37125000D03*
%TD*%
D11*
%TO.C,J13*%
X60635000Y-25500000D03*
%TD*%
D14*
%TO.C,J8*%
X42445000Y-8165000D03*
%TD*%
D10*
%TO.C,KiKit_MB_27_5*%
X60833333Y-20700000D03*
%TD*%
D11*
%TO.C,J13*%
X16635000Y-25500000D03*
%TD*%
D12*
%TO.C,J18*%
X8375000Y-22500000D03*
%TD*%
%TO.C,J18*%
X52375000Y-22500000D03*
%TD*%
D10*
%TO.C,KiKit_MB_13_5*%
X71700000Y-11666667D03*
%TD*%
D12*
%TO.C,J29*%
X40625000Y-17500000D03*
%TD*%
D10*
%TO.C,KiKit_MB_52_2*%
X17666666Y-64300000D03*
%TD*%
D14*
%TO.C,J1*%
X11555000Y-53165000D03*
%TD*%
D12*
%TO.C,J28*%
X13375000Y-62500000D03*
%TD*%
%TO.C,J28*%
X35375000Y-17500000D03*
%TD*%
D10*
%TO.C,KiKit_MB_30_1*%
X92300000Y-25000000D03*
%TD*%
%TO.C,KiKit_MB_12_4*%
X60000000Y-19300000D03*
%TD*%
%TO.C,KiKit_MB_3_2*%
X14333334Y-5700000D03*
%TD*%
D11*
%TO.C,J11*%
X36095000Y-55500000D03*
%TD*%
D10*
%TO.C,KiKit_MB_80_4*%
X82000000Y-79300000D03*
%TD*%
D14*
%TO.C,J5*%
X16635000Y-8100000D03*
%TD*%
D12*
%TO.C,J19*%
X36095000Y-22125000D03*
%TD*%
%TO.C,J23*%
X23625000Y-37500000D03*
%TD*%
D10*
%TO.C,KiKit_MB_92_4*%
X60000000Y-94300000D03*
%TD*%
%TO.C,KiKit_MB_76_5*%
X59166666Y-79300000D03*
%TD*%
D11*
%TO.C,J13*%
X60635000Y-40500000D03*
%TD*%
D12*
%TO.C,J23*%
X45625000Y-67500000D03*
%TD*%
D11*
%TO.C,J14*%
X39905000Y-10500000D03*
%TD*%
D10*
%TO.C,KiKit_MB_7_2*%
X36333333Y-5700000D03*
%TD*%
%TO.C,KiKit_MB_83_7*%
X18500000Y-80700000D03*
%TD*%
%TO.C,KiKit_MB_40_6*%
X36333333Y-49300000D03*
%TD*%
%TO.C,KiKit_MB_46_5*%
X92300000Y-43333333D03*
%TD*%
D13*
%TO.C,I3*%
X54875000Y-75875000D03*
%TD*%
D12*
%TO.C,J24*%
X67625000Y-10750000D03*
%TD*%
D11*
%TO.C,J15*%
X19175000Y-55500000D03*
%TD*%
D14*
%TO.C,J7*%
X63175000Y-23100000D03*
%TD*%
D12*
%TO.C,J20*%
X35375000Y-29250000D03*
%TD*%
D10*
%TO.C,KiKit_MB_85_7*%
X27700000Y-85000000D03*
%TD*%
D14*
%TO.C,J6*%
X61905000Y-53100000D03*
%TD*%
D11*
%TO.C,J11*%
X80095000Y-55500000D03*
%TD*%
D12*
%TO.C,J19*%
X36095000Y-82125000D03*
%TD*%
D10*
%TO.C,KiKit_MB_104_4*%
X96400000Y-94000000D03*
%TD*%
%TO.C,KiKit_MB_79_3*%
X81166666Y-65700000D03*
%TD*%
D12*
%TO.C,J23*%
X45625000Y-52500000D03*
%TD*%
D10*
%TO.C,KiKit_MB_70_4*%
X48300000Y-72500000D03*
%TD*%
%TO.C,KiKit_MB_17_6*%
X5700000Y-25833333D03*
%TD*%
D12*
%TO.C,J21*%
X62625000Y-59250000D03*
%TD*%
D10*
%TO.C,KiKit_MB_8_7*%
X35500000Y-19300000D03*
%TD*%
%TO.C,KiKit_MB_17_3*%
X5700000Y-28333333D03*
%TD*%
D11*
%TO.C,J16*%
X20445000Y-70565000D03*
%TD*%
D14*
%TO.C,J3*%
X36095000Y-38100000D03*
%TD*%
D12*
%TO.C,J25*%
X30375000Y-89250000D03*
%TD*%
D11*
%TO.C,J10*%
X12825000Y-55500000D03*
%TD*%
D10*
%TO.C,KiKit_MB_82_7*%
X26300000Y-90000000D03*
%TD*%
D14*
%TO.C,J1*%
X55555000Y-38165000D03*
%TD*%
D10*
%TO.C,KiKit_MB_88_6*%
X36333333Y-94300000D03*
%TD*%
%TO.C,KiKit_MB_79_5*%
X82833333Y-65700000D03*
%TD*%
%TO.C,KiKit_MB_71_5*%
X38833333Y-65700000D03*
%TD*%
D11*
%TO.C,J15*%
X19175000Y-40500000D03*
%TD*%
D10*
%TO.C,KiKit_MB_88_5*%
X37166666Y-94300000D03*
%TD*%
%TO.C,KiKit_MB_22_1*%
X48300000Y-25000000D03*
%TD*%
D12*
%TO.C,J22*%
X83905000Y-82125000D03*
%TD*%
D14*
%TO.C,J1*%
X55555000Y-23165000D03*
%TD*%
D12*
%TO.C,J20*%
X57375000Y-29250000D03*
%TD*%
D10*
%TO.C,KiKit_MB_14_7*%
X92300000Y-15000000D03*
%TD*%
%TO.C,KiKit_MB_72_1*%
X40500000Y-79300000D03*
%TD*%
D14*
%TO.C,J7*%
X19175000Y-53100000D03*
%TD*%
D10*
%TO.C,KiKit_MB_23_6*%
X39666666Y-20700000D03*
%TD*%
D14*
%TO.C,J5*%
X16635000Y-23100000D03*
%TD*%
D10*
%TO.C,KiKit_MB_87_4*%
X38000000Y-80700000D03*
%TD*%
D14*
%TO.C,J8*%
X20445000Y-38165000D03*
%TD*%
D10*
%TO.C,KiKit_MB_55_4*%
X38000000Y-50700000D03*
%TD*%
%TO.C,KiKit_MB_92_6*%
X58333333Y-94300000D03*
%TD*%
D12*
%TO.C,J25*%
X52375000Y-14250000D03*
%TD*%
D14*
%TO.C,J5*%
X16635000Y-53100000D03*
%TD*%
D10*
%TO.C,KiKit_MB_34_4*%
X26300000Y-42500000D03*
%TD*%
%TO.C,KiKit_MB_8_4*%
X38000000Y-19300000D03*
%TD*%
D11*
%TO.C,J11*%
X14095000Y-10500000D03*
%TD*%
D10*
%TO.C,KiKit_MB_86_6*%
X48300000Y-89166666D03*
%TD*%
%TO.C,KiKit_MB_61_2*%
X71700000Y-59166666D03*
%TD*%
D12*
%TO.C,J18*%
X8375000Y-82500000D03*
%TD*%
D11*
%TO.C,J14*%
X17905000Y-55500000D03*
%TD*%
D12*
%TO.C,J22*%
X61905000Y-22125000D03*
%TD*%
D10*
%TO.C,KiKit_MB_100_6*%
X92000000Y-100000000D03*
%TD*%
%TO.C,KiKit_MB_91_4*%
X60000000Y-80700000D03*
%TD*%
%TO.C,KiKit_MB_38_7*%
X48300000Y-45000000D03*
%TD*%
%TO.C,KiKit_MB_2_2*%
X26300000Y-10833334D03*
%TD*%
D11*
%TO.C,J9*%
X33555000Y-10565000D03*
%TD*%
D14*
%TO.C,J4*%
X37365000Y-23100000D03*
%TD*%
%TO.C,J5*%
X82635000Y-83100000D03*
%TD*%
D12*
%TO.C,J28*%
X35375000Y-32500000D03*
%TD*%
D10*
%TO.C,KiKit_MB_32_6*%
X80333333Y-34300000D03*
%TD*%
D12*
%TO.C,J30*%
X17900000Y-71500000D03*
%TD*%
D10*
%TO.C,KiKit_MB_23_2*%
X36333333Y-20700000D03*
%TD*%
D11*
%TO.C,J10*%
X56825000Y-25500000D03*
%TD*%
D13*
%TO.C,I3*%
X76875000Y-75875000D03*
%TD*%
D10*
%TO.C,KiKit_MB_61_7*%
X71700000Y-55000000D03*
%TD*%
%TO.C,KiKit_MB_18_5*%
X26300000Y-28333333D03*
%TD*%
D14*
%TO.C,J3*%
X14095000Y-23100000D03*
%TD*%
D10*
%TO.C,KiKit_MB_49_6*%
X5700000Y-55833333D03*
%TD*%
D11*
%TO.C,J11*%
X14095000Y-25500000D03*
%TD*%
D10*
%TO.C,KiKit_MB_63_3*%
X81166666Y-50700000D03*
%TD*%
%TO.C,KiKit_MB_73_5*%
X49700000Y-71666666D03*
%TD*%
D13*
%TO.C,I3*%
X76875000Y-15875000D03*
%TD*%
D10*
%TO.C,KiKit_MB_31_7*%
X84500000Y-20700000D03*
%TD*%
%TO.C,KiKit_MB_14_3*%
X92300000Y-11666667D03*
%TD*%
%TO.C,KiKit_MB_35_7*%
X18500000Y-35700000D03*
%TD*%
D14*
%TO.C,J3*%
X36095000Y-23100000D03*
%TD*%
D10*
%TO.C,KiKit_MB_22_7*%
X48300000Y-30000000D03*
%TD*%
D12*
%TO.C,J30*%
X83900000Y-26500000D03*
%TD*%
D10*
%TO.C,KiKit_MB_5_3*%
X27700000Y-13333333D03*
%TD*%
D12*
%TO.C,J19*%
X14095000Y-82125000D03*
%TD*%
D10*
%TO.C,KiKit_MB_4_1*%
X18500000Y-19300000D03*
%TD*%
%TO.C,KiKit_MB_59_6*%
X61666666Y-50700000D03*
%TD*%
D13*
%TO.C,I4*%
X21125000Y-15875000D03*
%TD*%
D10*
%TO.C,KiKit_MB_35_5*%
X16833333Y-35700000D03*
%TD*%
%TO.C,KiKit_MB_100_2*%
X92000000Y-96800000D03*
%TD*%
D12*
%TO.C,J17*%
X52375000Y-10750000D03*
%TD*%
D13*
%TO.C,I4*%
X43125000Y-45875000D03*
%TD*%
D14*
%TO.C,J3*%
X36095000Y-53100000D03*
%TD*%
D12*
%TO.C,J29*%
X40625000Y-62500000D03*
%TD*%
D10*
%TO.C,KiKit_MB_2_4*%
X26300000Y-12500000D03*
%TD*%
D12*
%TO.C,J23*%
X45625000Y-7500000D03*
%TD*%
%TO.C,J21*%
X40625000Y-14250000D03*
%TD*%
D10*
%TO.C,KiKit_MB_66_4*%
X26300000Y-72500000D03*
%TD*%
D12*
%TO.C,J18*%
X8375000Y-37500000D03*
%TD*%
%TO.C,J30*%
X39900000Y-56500000D03*
%TD*%
D10*
%TO.C,KiKit_MB_11_6*%
X61666666Y-5700000D03*
%TD*%
%TO.C,KiKit_MB_95_3*%
X81166666Y-80700000D03*
%TD*%
%TO.C,KiKit_MB_31_3*%
X81166666Y-20700000D03*
%TD*%
%TO.C,KiKit_MB_5_7*%
X27700000Y-10000000D03*
%TD*%
D13*
%TO.C,I4*%
X65125000Y-45875000D03*
%TD*%
D12*
%TO.C,J32*%
X45625000Y-59250000D03*
%TD*%
D10*
%TO.C,KiKit_MB_5_5*%
X27700000Y-11666667D03*
%TD*%
%TO.C,KiKit_MB_55_1*%
X35500000Y-50700000D03*
%TD*%
D11*
%TO.C,J12*%
X59365000Y-85500000D03*
%TD*%
D10*
%TO.C,KiKit_MB_44_3*%
X60833333Y-49300000D03*
%TD*%
D11*
%TO.C,J15*%
X85175000Y-25500000D03*
%TD*%
%TO.C,J14*%
X17905000Y-70500000D03*
%TD*%
D14*
%TO.C,J4*%
X15365000Y-38100000D03*
%TD*%
D12*
%TO.C,J27*%
X58100000Y-26500000D03*
%TD*%
D10*
%TO.C,KiKit_MB_92_3*%
X60833333Y-94300000D03*
%TD*%
%TO.C,KiKit_MB_104_5*%
X97200000Y-94000000D03*
%TD*%
%TO.C,KiKit_MB_30_4*%
X92300000Y-27500000D03*
%TD*%
%TO.C,KiKit_MB_43_2*%
X58333333Y-35700000D03*
%TD*%
D12*
%TO.C,J27*%
X80100000Y-41500000D03*
%TD*%
D10*
%TO.C,KiKit_MB_19_3*%
X15166667Y-20700000D03*
%TD*%
%TO.C,KiKit_MB_93_3*%
X71700000Y-88333333D03*
%TD*%
D11*
%TO.C,J14*%
X83905000Y-85500000D03*
%TD*%
%TO.C,J14*%
X17905000Y-10500000D03*
%TD*%
%TO.C,J14*%
X39905000Y-85500000D03*
%TD*%
D14*
%TO.C,J6*%
X61905000Y-8100000D03*
%TD*%
D12*
%TO.C,J23*%
X45625000Y-22500000D03*
%TD*%
D11*
%TO.C,J13*%
X82635000Y-10500000D03*
%TD*%
%TO.C,J9*%
X55555000Y-55565000D03*
%TD*%
D12*
%TO.C,J25*%
X8375000Y-29250000D03*
%TD*%
%TO.C,J19*%
X80095000Y-82125000D03*
%TD*%
D11*
%TO.C,J16*%
X20445000Y-10565000D03*
%TD*%
%TO.C,J12*%
X59365000Y-70500000D03*
%TD*%
D12*
%TO.C,J27*%
X58100000Y-86500000D03*
%TD*%
%TO.C,J31*%
X89625000Y-47500000D03*
%TD*%
D10*
%TO.C,KiKit_MB_62_2*%
X92300000Y-55833333D03*
%TD*%
%TO.C,KiKit_MB_26_4*%
X70300000Y-27500000D03*
%TD*%
%TO.C,KiKit_MB_1_3*%
X5700000Y-13333333D03*
%TD*%
D12*
%TO.C,J30*%
X39900000Y-26500000D03*
%TD*%
D11*
%TO.C,J16*%
X86445000Y-85565000D03*
%TD*%
D10*
%TO.C,KiKit_MB_79_1*%
X79500000Y-65700000D03*
%TD*%
D13*
%TO.C,I4*%
X87125000Y-60875000D03*
%TD*%
D10*
%TO.C,KiKit_MB_91_5*%
X60833333Y-80700000D03*
%TD*%
D11*
%TO.C,J14*%
X83905000Y-55500000D03*
%TD*%
D14*
%TO.C,J3*%
X36095000Y-83100000D03*
%TD*%
D10*
%TO.C,KiKit_MB_1_2*%
X5700000Y-14166666D03*
%TD*%
%TO.C,KiKit_MB_97_3*%
X6000000Y-1600000D03*
%TD*%
D12*
%TO.C,J28*%
X13375000Y-92500000D03*
%TD*%
%TO.C,J32*%
X45625000Y-89250000D03*
%TD*%
%TO.C,J17*%
X8375000Y-70750000D03*
%TD*%
D13*
%TO.C,I3*%
X10875000Y-15875000D03*
%TD*%
D10*
%TO.C,KiKit_MB_23_3*%
X37166666Y-20700000D03*
%TD*%
%TO.C,KiKit_MB_91_1*%
X57500000Y-80700000D03*
%TD*%
D12*
%TO.C,J27*%
X58100000Y-11500000D03*
%TD*%
D10*
%TO.C,KiKit_MB_32_7*%
X79500000Y-34300000D03*
%TD*%
%TO.C,KiKit_MB_73_7*%
X49700000Y-70000000D03*
%TD*%
%TO.C,KiKit_MB_60_6*%
X58333333Y-64300000D03*
%TD*%
D12*
%TO.C,J32*%
X89625000Y-74250000D03*
%TD*%
D10*
%TO.C,KiKit_MB_86_4*%
X48300000Y-87500000D03*
%TD*%
%TO.C,KiKit_MB_61_5*%
X71700000Y-56666666D03*
%TD*%
D14*
%TO.C,J6*%
X17905000Y-53100000D03*
%TD*%
D13*
%TO.C,I3*%
X54875000Y-60875000D03*
%TD*%
D12*
%TO.C,J28*%
X79375000Y-92500000D03*
%TD*%
D13*
%TO.C,I3*%
X10875000Y-75875000D03*
%TD*%
D12*
%TO.C,J27*%
X14100000Y-26500000D03*
%TD*%
D10*
%TO.C,KiKit_MB_42_3*%
X70300000Y-41666666D03*
%TD*%
%TO.C,KiKit_MB_7_7*%
X40500000Y-5700000D03*
%TD*%
%TO.C,KiKit_MB_74_5*%
X70300000Y-73333333D03*
%TD*%
%TO.C,KiKit_MB_34_7*%
X26300000Y-45000000D03*
%TD*%
%TO.C,KiKit_MB_81_5*%
X5700000Y-86666666D03*
%TD*%
%TO.C,KiKit_MB_80_3*%
X82833333Y-79300000D03*
%TD*%
%TO.C,KiKit_MB_87_3*%
X37166666Y-80700000D03*
%TD*%
D14*
%TO.C,J3*%
X36095000Y-68100000D03*
%TD*%
D10*
%TO.C,KiKit_MB_96_2*%
X83666666Y-94300000D03*
%TD*%
D12*
%TO.C,J20*%
X13375000Y-44250000D03*
%TD*%
D10*
%TO.C,KiKit_MB_61_1*%
X71700000Y-60000000D03*
%TD*%
%TO.C,KiKit_MB_56_2*%
X39666666Y-64300000D03*
%TD*%
D12*
%TO.C,J18*%
X74375000Y-7500000D03*
%TD*%
D10*
%TO.C,KiKit_MB_79_7*%
X84500000Y-65700000D03*
%TD*%
%TO.C,KiKit_MB_6_1*%
X48300000Y-10000000D03*
%TD*%
D12*
%TO.C,J17*%
X52375000Y-40750000D03*
%TD*%
%TO.C,J30*%
X61900000Y-26500000D03*
%TD*%
D10*
%TO.C,KiKit_MB_29_2*%
X71700000Y-29166666D03*
%TD*%
%TO.C,KiKit_MB_30_2*%
X92300000Y-25833333D03*
%TD*%
%TO.C,KiKit_MB_25_5*%
X49700000Y-26666666D03*
%TD*%
D12*
%TO.C,J21*%
X84625000Y-29250000D03*
%TD*%
D11*
%TO.C,J15*%
X41175000Y-55500000D03*
%TD*%
D13*
%TO.C,I4*%
X87125000Y-90875000D03*
%TD*%
D10*
%TO.C,KiKit_MB_29_5*%
X71700000Y-26666666D03*
%TD*%
%TO.C,KiKit_MB_102_4*%
X2400000Y-94000000D03*
%TD*%
D12*
%TO.C,J26*%
X8375000Y-77500000D03*
%TD*%
D10*
%TO.C,KiKit_MB_37_4*%
X27700000Y-42500000D03*
%TD*%
D12*
%TO.C,J27*%
X36100000Y-11500000D03*
%TD*%
D10*
%TO.C,KiKit_MB_2_3*%
X26300000Y-11666667D03*
%TD*%
D14*
%TO.C,J3*%
X14095000Y-8100000D03*
%TD*%
D13*
%TO.C,KiKit_TO_2*%
X95500000Y-2500000D03*
%TD*%
D12*
%TO.C,J22*%
X17905000Y-52125000D03*
%TD*%
D10*
%TO.C,KiKit_MB_19_2*%
X14333334Y-20700000D03*
%TD*%
D14*
%TO.C,J1*%
X33555000Y-8165000D03*
%TD*%
D10*
%TO.C,KiKit_MB_69_4*%
X27700000Y-72500000D03*
%TD*%
%TO.C,KiKit_MB_103_4*%
X96400000Y-6000000D03*
%TD*%
D14*
%TO.C,J6*%
X83905000Y-83100000D03*
%TD*%
D10*
%TO.C,KiKit_MB_102_3*%
X1600000Y-94000000D03*
%TD*%
D11*
%TO.C,J10*%
X78825000Y-40500000D03*
%TD*%
D10*
%TO.C,KiKit_MB_24_4*%
X38000000Y-34300000D03*
%TD*%
%TO.C,KiKit_MB_29_6*%
X71700000Y-25833333D03*
%TD*%
%TO.C,KiKit_MB_11_1*%
X57500000Y-5700000D03*
%TD*%
D13*
%TO.C,I4*%
X21125000Y-75875000D03*
%TD*%
D14*
%TO.C,J6*%
X61905000Y-23100000D03*
%TD*%
D10*
%TO.C,KiKit_MB_78_4*%
X92300000Y-72500000D03*
%TD*%
D12*
%TO.C,J28*%
X13375000Y-47500000D03*
%TD*%
D14*
%TO.C,J8*%
X20445000Y-8165000D03*
%TD*%
D11*
%TO.C,J14*%
X61905000Y-55500000D03*
%TD*%
D12*
%TO.C,J32*%
X23625000Y-74250000D03*
%TD*%
%TO.C,J17*%
X30375000Y-40750000D03*
%TD*%
%TO.C,J25*%
X52375000Y-44250000D03*
%TD*%
D10*
%TO.C,KiKit_MB_69_6*%
X27700000Y-70833333D03*
%TD*%
D12*
%TO.C,J20*%
X57375000Y-74250000D03*
%TD*%
%TO.C,J32*%
X89625000Y-89250000D03*
%TD*%
%TO.C,J20*%
X35375000Y-59250000D03*
%TD*%
D10*
%TO.C,KiKit_MB_4_2*%
X17666666Y-19300000D03*
%TD*%
D12*
%TO.C,J27*%
X58100000Y-71500000D03*
%TD*%
D11*
%TO.C,J16*%
X42445000Y-40565000D03*
%TD*%
D10*
%TO.C,KiKit_MB_23_4*%
X38000000Y-20700000D03*
%TD*%
D11*
%TO.C,J9*%
X55555000Y-40565000D03*
%TD*%
D12*
%TO.C,J22*%
X83905000Y-7125000D03*
%TD*%
D11*
%TO.C,J13*%
X16635000Y-55500000D03*
%TD*%
D12*
%TO.C,J23*%
X67625000Y-7500000D03*
%TD*%
D10*
%TO.C,KiKit_MB_81_6*%
X5700000Y-85833333D03*
%TD*%
%TO.C,KiKit_MB_2_6*%
X26300000Y-14166666D03*
%TD*%
%TO.C,KiKit_MB_8_3*%
X38833333Y-19300000D03*
%TD*%
D11*
%TO.C,J9*%
X77555000Y-85565000D03*
%TD*%
D10*
%TO.C,KiKit_MB_14_4*%
X92300000Y-12500000D03*
%TD*%
D14*
%TO.C,J8*%
X20445000Y-23165000D03*
%TD*%
D12*
%TO.C,J17*%
X74375000Y-10750000D03*
%TD*%
D10*
%TO.C,KiKit_MB_31_1*%
X79500000Y-20700000D03*
%TD*%
%TO.C,KiKit_MB_61_4*%
X71700000Y-57500000D03*
%TD*%
%TO.C,KiKit_MB_53_5*%
X27700000Y-56666666D03*
%TD*%
%TO.C,KiKit_MB_60_3*%
X60833333Y-64300000D03*
%TD*%
%TO.C,KiKit_MB_92_2*%
X61666666Y-94300000D03*
%TD*%
%TO.C,KiKit_MB_9_7*%
X49700000Y-10000000D03*
%TD*%
%TO.C,KiKit_MB_70_1*%
X48300000Y-70000000D03*
%TD*%
%TO.C,KiKit_MB_24_5*%
X37166666Y-34300000D03*
%TD*%
D11*
%TO.C,J15*%
X85175000Y-55500000D03*
%TD*%
%TO.C,J16*%
X86445000Y-40565000D03*
%TD*%
%TO.C,J9*%
X33555000Y-70565000D03*
%TD*%
D12*
%TO.C,J31*%
X67625000Y-62500000D03*
%TD*%
%TO.C,J20*%
X79375000Y-74250000D03*
%TD*%
D11*
%TO.C,J9*%
X77555000Y-70565000D03*
%TD*%
D12*
%TO.C,J19*%
X14095000Y-7125000D03*
%TD*%
D10*
%TO.C,KiKit_MB_85_6*%
X27700000Y-85833333D03*
%TD*%
%TO.C,KiKit_MB_16_7*%
X79500000Y-19300000D03*
%TD*%
%TO.C,KiKit_MB_18_6*%
X26300000Y-29166666D03*
%TD*%
%TO.C,KiKit_MB_7_5*%
X38833333Y-5700000D03*
%TD*%
%TO.C,KiKit_MB_66_6*%
X26300000Y-74166666D03*
%TD*%
D14*
%TO.C,J2*%
X78825000Y-68100000D03*
%TD*%
D12*
%TO.C,J31*%
X67625000Y-17500000D03*
%TD*%
D10*
%TO.C,KiKit_MB_85_5*%
X27700000Y-86666666D03*
%TD*%
D14*
%TO.C,J1*%
X77555000Y-8165000D03*
%TD*%
D10*
%TO.C,KiKit_MB_3_7*%
X18500000Y-5700000D03*
%TD*%
D12*
%TO.C,J18*%
X52375000Y-67500000D03*
%TD*%
D14*
%TO.C,J8*%
X20445000Y-68165000D03*
%TD*%
D10*
%TO.C,KiKit_MB_12_7*%
X57500000Y-19300000D03*
%TD*%
%TO.C,KiKit_MB_42_5*%
X70300000Y-43333333D03*
%TD*%
%TO.C,KiKit_MB_99_1*%
X6000000Y-96000000D03*
%TD*%
D14*
%TO.C,J8*%
X64445000Y-38165000D03*
%TD*%
D10*
%TO.C,KiKit_MB_91_6*%
X61666666Y-80700000D03*
%TD*%
D11*
%TO.C,J10*%
X78825000Y-70500000D03*
%TD*%
D10*
%TO.C,KiKit_MB_16_1*%
X84500000Y-19300000D03*
%TD*%
%TO.C,KiKit_MB_32_1*%
X84500000Y-34300000D03*
%TD*%
D12*
%TO.C,J25*%
X30375000Y-14250000D03*
%TD*%
D10*
%TO.C,KiKit_MB_24_1*%
X40500000Y-34300000D03*
%TD*%
D12*
%TO.C,J30*%
X61900000Y-41500000D03*
%TD*%
%TO.C,J27*%
X36100000Y-26500000D03*
%TD*%
D10*
%TO.C,KiKit_MB_24_7*%
X35500000Y-34300000D03*
%TD*%
D13*
%TO.C,I4*%
X43125000Y-90875000D03*
%TD*%
D10*
%TO.C,KiKit_MB_65_2*%
X5700000Y-74166666D03*
%TD*%
%TO.C,KiKit_MB_65_3*%
X5700000Y-73333333D03*
%TD*%
%TO.C,KiKit_MB_39_1*%
X35500000Y-35700000D03*
%TD*%
D12*
%TO.C,J23*%
X67625000Y-52500000D03*
%TD*%
%TO.C,J17*%
X52375000Y-85750000D03*
%TD*%
D14*
%TO.C,J8*%
X86445000Y-68165000D03*
%TD*%
D10*
%TO.C,KiKit_MB_96_1*%
X84500000Y-94300000D03*
%TD*%
D12*
%TO.C,J23*%
X89625000Y-7500000D03*
%TD*%
D11*
%TO.C,J15*%
X63175000Y-40500000D03*
%TD*%
D10*
%TO.C,KiKit_MB_71_2*%
X36333333Y-65700000D03*
%TD*%
D14*
%TO.C,J4*%
X37365000Y-68100000D03*
%TD*%
D13*
%TO.C,I4*%
X21125000Y-30875000D03*
%TD*%
D14*
%TO.C,J3*%
X14095000Y-38100000D03*
%TD*%
D10*
%TO.C,KiKit_MB_70_5*%
X48300000Y-73333333D03*
%TD*%
%TO.C,KiKit_MB_102_6*%
X4000000Y-94000000D03*
%TD*%
%TO.C,KiKit_MB_85_4*%
X27700000Y-87500000D03*
%TD*%
D11*
%TO.C,J9*%
X11555000Y-55565000D03*
%TD*%
D10*
%TO.C,KiKit_MB_62_1*%
X92300000Y-55000000D03*
%TD*%
D14*
%TO.C,J2*%
X56825000Y-8100000D03*
%TD*%
D12*
%TO.C,J24*%
X45625000Y-10750000D03*
%TD*%
D10*
%TO.C,KiKit_MB_76_2*%
X61666666Y-79300000D03*
%TD*%
%TO.C,KiKit_MB_41_3*%
X49700000Y-43333333D03*
%TD*%
%TO.C,KiKit_MB_44_4*%
X60000000Y-49300000D03*
%TD*%
%TO.C,KiKit_MB_87_7*%
X40500000Y-80700000D03*
%TD*%
D14*
%TO.C,J6*%
X17905000Y-23100000D03*
%TD*%
D12*
%TO.C,J19*%
X36095000Y-67125000D03*
%TD*%
D10*
%TO.C,KiKit_MB_28_5*%
X59166666Y-34300000D03*
%TD*%
D12*
%TO.C,J24*%
X67625000Y-25750000D03*
%TD*%
D10*
%TO.C,KiKit_MB_78_5*%
X92300000Y-73333333D03*
%TD*%
%TO.C,KiKit_MB_26_3*%
X70300000Y-26666666D03*
%TD*%
%TO.C,KiKit_MB_27_1*%
X57500000Y-20700000D03*
%TD*%
%TO.C,KiKit_MB_57_2*%
X49700000Y-59166666D03*
%TD*%
D14*
%TO.C,J8*%
X86445000Y-23165000D03*
%TD*%
D12*
%TO.C,J26*%
X8375000Y-92500000D03*
%TD*%
D14*
%TO.C,J3*%
X58095000Y-8100000D03*
%TD*%
D13*
%TO.C,I3*%
X32875000Y-15875000D03*
%TD*%
D10*
%TO.C,KiKit_MB_55_5*%
X38833333Y-50700000D03*
%TD*%
%TO.C,KiKit_MB_76_6*%
X58333333Y-79300000D03*
%TD*%
%TO.C,KiKit_MB_88_3*%
X38833333Y-94300000D03*
%TD*%
%TO.C,KiKit_MB_67_5*%
X16833333Y-65700000D03*
%TD*%
D11*
%TO.C,J12*%
X37365000Y-55500000D03*
%TD*%
%TO.C,J10*%
X56825000Y-55500000D03*
%TD*%
D12*
%TO.C,J27*%
X58100000Y-41500000D03*
%TD*%
D14*
%TO.C,J6*%
X39905000Y-8100000D03*
%TD*%
D13*
%TO.C,I3*%
X54875000Y-90875000D03*
%TD*%
D11*
%TO.C,J9*%
X11555000Y-10565000D03*
%TD*%
D10*
%TO.C,KiKit_MB_2_7*%
X26300000Y-15000000D03*
%TD*%
%TO.C,KiKit_MB_32_3*%
X82833333Y-34300000D03*
%TD*%
%TO.C,KiKit_MB_80_7*%
X79500000Y-79300000D03*
%TD*%
D11*
%TO.C,J15*%
X85175000Y-10500000D03*
%TD*%
D10*
%TO.C,KiKit_MB_92_7*%
X57500000Y-94300000D03*
%TD*%
%TO.C,KiKit_MB_56_4*%
X38000000Y-64300000D03*
%TD*%
D12*
%TO.C,J22*%
X39905000Y-37125000D03*
%TD*%
%TO.C,J31*%
X89625000Y-62500000D03*
%TD*%
D10*
%TO.C,KiKit_MB_101_4*%
X2400000Y-6000000D03*
%TD*%
%TO.C,KiKit_MB_20_7*%
X13500000Y-34300000D03*
%TD*%
D12*
%TO.C,J25*%
X8375000Y-14250000D03*
%TD*%
D10*
%TO.C,KiKit_MB_84_7*%
X13500000Y-94300000D03*
%TD*%
D14*
%TO.C,J7*%
X85175000Y-68100000D03*
%TD*%
D10*
%TO.C,KiKit_MB_54_3*%
X48300000Y-56666666D03*
%TD*%
%TO.C,KiKit_MB_38_4*%
X48300000Y-42500000D03*
%TD*%
D12*
%TO.C,J20*%
X79375000Y-44250000D03*
%TD*%
%TO.C,J23*%
X23625000Y-7500000D03*
%TD*%
%TO.C,J30*%
X83900000Y-71500000D03*
%TD*%
D14*
%TO.C,J6*%
X83905000Y-53100000D03*
%TD*%
D12*
%TO.C,J29*%
X62625000Y-92500000D03*
%TD*%
%TO.C,J17*%
X30375000Y-70750000D03*
%TD*%
D10*
%TO.C,KiKit_MB_51_6*%
X17666666Y-50700000D03*
%TD*%
D12*
%TO.C,J29*%
X84625000Y-92500000D03*
%TD*%
D11*
%TO.C,J12*%
X81365000Y-70500000D03*
%TD*%
D12*
%TO.C,J27*%
X14100000Y-41500000D03*
%TD*%
D10*
%TO.C,KiKit_MB_15_6*%
X83666666Y-5700000D03*
%TD*%
%TO.C,KiKit_MB_32_5*%
X81166666Y-34300000D03*
%TD*%
D13*
%TO.C,I4*%
X65125000Y-90875000D03*
%TD*%
D12*
%TO.C,J24*%
X89625000Y-25750000D03*
%TD*%
D10*
%TO.C,KiKit_MB_56_1*%
X40500000Y-64300000D03*
%TD*%
D12*
%TO.C,J26*%
X30375000Y-62500000D03*
%TD*%
D11*
%TO.C,J16*%
X42445000Y-25565000D03*
%TD*%
D10*
%TO.C,KiKit_MB_56_7*%
X35500000Y-64300000D03*
%TD*%
%TO.C,KiKit_MB_22_4*%
X48300000Y-27500000D03*
%TD*%
D12*
%TO.C,J25*%
X8375000Y-74250000D03*
%TD*%
D10*
%TO.C,KiKit_MB_5_1*%
X27700000Y-15000000D03*
%TD*%
%TO.C,KiKit_MB_55_3*%
X37166666Y-50700000D03*
%TD*%
%TO.C,KiKit_MB_39_6*%
X39666666Y-35700000D03*
%TD*%
D12*
%TO.C,J23*%
X23625000Y-67500000D03*
%TD*%
D10*
%TO.C,KiKit_MB_61_6*%
X71700000Y-55833333D03*
%TD*%
%TO.C,KiKit_MB_66_1*%
X26300000Y-70000000D03*
%TD*%
%TO.C,KiKit_MB_44_2*%
X61666666Y-49300000D03*
%TD*%
%TO.C,KiKit_MB_66_7*%
X26300000Y-75000000D03*
%TD*%
D11*
%TO.C,J12*%
X59365000Y-55500000D03*
%TD*%
D14*
%TO.C,J7*%
X41175000Y-23100000D03*
%TD*%
D10*
%TO.C,KiKit_MB_49_5*%
X5700000Y-56666666D03*
%TD*%
D11*
%TO.C,J10*%
X34825000Y-25500000D03*
%TD*%
D12*
%TO.C,J19*%
X80095000Y-67125000D03*
%TD*%
D10*
%TO.C,KiKit_MB_68_5*%
X15166667Y-79300000D03*
%TD*%
%TO.C,KiKit_MB_66_5*%
X26300000Y-73333333D03*
%TD*%
D11*
%TO.C,J16*%
X42445000Y-10565000D03*
%TD*%
%TO.C,J12*%
X15365000Y-70500000D03*
%TD*%
D10*
%TO.C,KiKit_MB_103_5*%
X97200000Y-6000000D03*
%TD*%
D14*
%TO.C,J5*%
X82635000Y-53100000D03*
%TD*%
%TO.C,J7*%
X85175000Y-38100000D03*
%TD*%
%TO.C,J3*%
X14095000Y-68100000D03*
%TD*%
D12*
%TO.C,J25*%
X74375000Y-59250000D03*
%TD*%
D11*
%TO.C,J11*%
X36095000Y-25500000D03*
%TD*%
D10*
%TO.C,KiKit_MB_17_2*%
X5700000Y-29166666D03*
%TD*%
D14*
%TO.C,J5*%
X60635000Y-23100000D03*
%TD*%
%TO.C,J5*%
X16635000Y-38100000D03*
%TD*%
D12*
%TO.C,J19*%
X58095000Y-52125000D03*
%TD*%
%TO.C,J17*%
X8375000Y-25750000D03*
%TD*%
%TO.C,J22*%
X39905000Y-7125000D03*
%TD*%
%TO.C,J32*%
X89625000Y-14250000D03*
%TD*%
%TO.C,J28*%
X57375000Y-17500000D03*
%TD*%
%TO.C,J29*%
X18625000Y-62500000D03*
%TD*%
D10*
%TO.C,KiKit_MB_33_7*%
X5700000Y-40000000D03*
%TD*%
%TO.C,KiKit_MB_68_2*%
X17666666Y-79300000D03*
%TD*%
D11*
%TO.C,J12*%
X59365000Y-25500000D03*
%TD*%
D10*
%TO.C,KiKit_MB_98_5*%
X92000000Y-3200000D03*
%TD*%
%TO.C,KiKit_MB_18_3*%
X26300000Y-26666666D03*
%TD*%
D11*
%TO.C,J15*%
X19175000Y-85500000D03*
%TD*%
D10*
%TO.C,KiKit_MB_90_6*%
X70300000Y-89166666D03*
%TD*%
D11*
%TO.C,J14*%
X83905000Y-70500000D03*
%TD*%
D10*
%TO.C,KiKit_MB_30_5*%
X92300000Y-28333333D03*
%TD*%
%TO.C,KiKit_MB_27_4*%
X60000000Y-20700000D03*
%TD*%
D11*
%TO.C,J16*%
X20445000Y-40565000D03*
%TD*%
D14*
%TO.C,J4*%
X37365000Y-38100000D03*
%TD*%
D12*
%TO.C,J27*%
X36100000Y-41500000D03*
%TD*%
%TO.C,J18*%
X8375000Y-67500000D03*
%TD*%
%TO.C,J20*%
X79375000Y-89250000D03*
%TD*%
%TO.C,J32*%
X89625000Y-44250000D03*
%TD*%
D10*
%TO.C,KiKit_MB_56_3*%
X38833333Y-64300000D03*
%TD*%
%TO.C,KiKit_MB_41_5*%
X49700000Y-41666666D03*
%TD*%
D14*
%TO.C,J2*%
X78825000Y-83100000D03*
%TD*%
D10*
%TO.C,KiKit_MB_40_2*%
X39666666Y-49300000D03*
%TD*%
%TO.C,KiKit_MB_16_6*%
X80333333Y-19300000D03*
%TD*%
D12*
%TO.C,J32*%
X67625000Y-29250000D03*
%TD*%
%TO.C,J18*%
X74375000Y-52500000D03*
%TD*%
%TO.C,J21*%
X62625000Y-14250000D03*
%TD*%
D14*
%TO.C,J2*%
X78825000Y-8100000D03*
%TD*%
D12*
%TO.C,J23*%
X89625000Y-22500000D03*
%TD*%
%TO.C,J28*%
X57375000Y-62500000D03*
%TD*%
D14*
%TO.C,J2*%
X56825000Y-38100000D03*
%TD*%
D12*
%TO.C,J17*%
X74375000Y-85750000D03*
%TD*%
D14*
%TO.C,J8*%
X64445000Y-53165000D03*
%TD*%
D12*
%TO.C,J17*%
X30375000Y-55750000D03*
%TD*%
D10*
%TO.C,KiKit_MB_104_6*%
X98000000Y-94000000D03*
%TD*%
%TO.C,KiKit_MB_38_2*%
X48300000Y-40833333D03*
%TD*%
D11*
%TO.C,J9*%
X77555000Y-40565000D03*
%TD*%
D10*
%TO.C,KiKit_MB_17_7*%
X5700000Y-25000000D03*
%TD*%
%TO.C,KiKit_MB_45_7*%
X71700000Y-40000000D03*
%TD*%
%TO.C,KiKit_MB_34_2*%
X26300000Y-40833333D03*
%TD*%
%TO.C,KiKit_MB_87_1*%
X35500000Y-80700000D03*
%TD*%
D12*
%TO.C,J28*%
X57375000Y-32500000D03*
%TD*%
%TO.C,J27*%
X14100000Y-11500000D03*
%TD*%
D11*
%TO.C,J12*%
X81365000Y-40500000D03*
%TD*%
D12*
%TO.C,J24*%
X67625000Y-85750000D03*
%TD*%
D10*
%TO.C,KiKit_MB_83_3*%
X15166667Y-80700000D03*
%TD*%
D12*
%TO.C,J24*%
X45625000Y-55750000D03*
%TD*%
D11*
%TO.C,J12*%
X15365000Y-55500000D03*
%TD*%
D10*
%TO.C,KiKit_MB_54_2*%
X48300000Y-55833333D03*
%TD*%
D12*
%TO.C,J32*%
X45625000Y-29250000D03*
%TD*%
D11*
%TO.C,J13*%
X60635000Y-85500000D03*
%TD*%
D12*
%TO.C,J31*%
X45625000Y-17500000D03*
%TD*%
D10*
%TO.C,KiKit_MB_13_6*%
X71700000Y-10833334D03*
%TD*%
%TO.C,KiKit_MB_72_7*%
X35500000Y-79300000D03*
%TD*%
D14*
%TO.C,J4*%
X37365000Y-83100000D03*
%TD*%
D12*
%TO.C,J25*%
X74375000Y-29250000D03*
%TD*%
%TO.C,J29*%
X84625000Y-47500000D03*
%TD*%
%TO.C,J22*%
X17905000Y-67125000D03*
%TD*%
D10*
%TO.C,KiKit_MB_36_7*%
X13500000Y-49300000D03*
%TD*%
%TO.C,KiKit_MB_1_5*%
X5700000Y-11666667D03*
%TD*%
%TO.C,KiKit_MB_64_4*%
X82000000Y-64300000D03*
%TD*%
%TO.C,KiKit_MB_17_1*%
X5700000Y-30000000D03*
%TD*%
%TO.C,KiKit_MB_72_6*%
X36333333Y-79300000D03*
%TD*%
D12*
%TO.C,J22*%
X39905000Y-82125000D03*
%TD*%
%TO.C,J24*%
X89625000Y-10750000D03*
%TD*%
D10*
%TO.C,KiKit_MB_59_3*%
X59166666Y-50700000D03*
%TD*%
%TO.C,KiKit_MB_28_3*%
X60833333Y-34300000D03*
%TD*%
%TO.C,KiKit_MB_57_3*%
X49700000Y-58333333D03*
%TD*%
D11*
%TO.C,J9*%
X33555000Y-40565000D03*
%TD*%
D12*
%TO.C,J25*%
X74375000Y-14250000D03*
%TD*%
D14*
%TO.C,J4*%
X15365000Y-53100000D03*
%TD*%
D10*
%TO.C,KiKit_MB_44_6*%
X58333333Y-49300000D03*
%TD*%
%TO.C,KiKit_MB_50_6*%
X26300000Y-59166666D03*
%TD*%
%TO.C,KiKit_MB_43_7*%
X62500000Y-35700000D03*
%TD*%
D12*
%TO.C,J24*%
X45625000Y-25750000D03*
%TD*%
D10*
%TO.C,KiKit_MB_99_5*%
X6000000Y-99200000D03*
%TD*%
%TO.C,KiKit_MB_1_6*%
X5700000Y-10833334D03*
%TD*%
D14*
%TO.C,J4*%
X81365000Y-23100000D03*
%TD*%
D10*
%TO.C,KiKit_MB_51_1*%
X13500000Y-50700000D03*
%TD*%
%TO.C,KiKit_MB_40_5*%
X37166666Y-49300000D03*
%TD*%
D11*
%TO.C,J13*%
X38635000Y-85500000D03*
%TD*%
D14*
%TO.C,J3*%
X80095000Y-38100000D03*
%TD*%
D10*
%TO.C,KiKit_MB_14_5*%
X92300000Y-13333333D03*
%TD*%
D12*
%TO.C,J20*%
X57375000Y-89250000D03*
%TD*%
D14*
%TO.C,J5*%
X82635000Y-23100000D03*
%TD*%
D11*
%TO.C,J11*%
X14095000Y-85500000D03*
%TD*%
D10*
%TO.C,KiKit_MB_20_2*%
X17666666Y-34300000D03*
%TD*%
D14*
%TO.C,J2*%
X34825000Y-8100000D03*
%TD*%
D12*
%TO.C,J26*%
X30375000Y-92500000D03*
%TD*%
D11*
%TO.C,J9*%
X33555000Y-85565000D03*
%TD*%
D12*
%TO.C,J28*%
X79375000Y-17500000D03*
%TD*%
D11*
%TO.C,J9*%
X11555000Y-70565000D03*
%TD*%
D10*
%TO.C,KiKit_MB_59_4*%
X60000000Y-50700000D03*
%TD*%
D14*
%TO.C,J6*%
X83905000Y-68100000D03*
%TD*%
D10*
%TO.C,KiKit_MB_97_1*%
X6000000Y0D03*
%TD*%
D12*
%TO.C,J29*%
X84625000Y-32500000D03*
%TD*%
D10*
%TO.C,KiKit_MB_27_2*%
X58333333Y-20700000D03*
%TD*%
%TO.C,KiKit_MB_38_6*%
X48300000Y-44166666D03*
%TD*%
D14*
%TO.C,J2*%
X34825000Y-38100000D03*
%TD*%
D10*
%TO.C,KiKit_MB_48_5*%
X81166666Y-49300000D03*
%TD*%
%TO.C,KiKit_MB_15_4*%
X82000000Y-5700000D03*
%TD*%
%TO.C,KiKit_MB_50_7*%
X26300000Y-60000000D03*
%TD*%
%TO.C,KiKit_MB_96_6*%
X80333333Y-94300000D03*
%TD*%
D11*
%TO.C,J13*%
X38635000Y-10500000D03*
%TD*%
D14*
%TO.C,J5*%
X38635000Y-8100000D03*
%TD*%
D12*
%TO.C,J21*%
X18625000Y-59250000D03*
%TD*%
D11*
%TO.C,J15*%
X63175000Y-85500000D03*
%TD*%
D14*
%TO.C,J8*%
X86445000Y-83165000D03*
%TD*%
D13*
%TO.C,I3*%
X76875000Y-45875000D03*
%TD*%
D12*
%TO.C,J20*%
X79375000Y-59250000D03*
%TD*%
D10*
%TO.C,KiKit_MB_89_4*%
X49700000Y-87500000D03*
%TD*%
D11*
%TO.C,J9*%
X77555000Y-10565000D03*
%TD*%
D10*
%TO.C,KiKit_MB_43_6*%
X61666666Y-35700000D03*
%TD*%
D12*
%TO.C,J22*%
X39905000Y-67125000D03*
%TD*%
D10*
%TO.C,KiKit_MB_7_3*%
X37166666Y-5700000D03*
%TD*%
%TO.C,KiKit_MB_27_3*%
X59166666Y-20700000D03*
%TD*%
D13*
%TO.C,I4*%
X65125000Y-30875000D03*
%TD*%
D14*
%TO.C,J6*%
X17905000Y-68100000D03*
%TD*%
D10*
%TO.C,KiKit_MB_51_4*%
X16000000Y-50700000D03*
%TD*%
%TO.C,KiKit_MB_94_7*%
X92300000Y-90000000D03*
%TD*%
%TO.C,KiKit_MB_72_3*%
X38833333Y-79300000D03*
%TD*%
D12*
%TO.C,J28*%
X35375000Y-77500000D03*
%TD*%
D10*
%TO.C,KiKit_MB_17_4*%
X5700000Y-27500000D03*
%TD*%
D14*
%TO.C,J6*%
X39905000Y-38100000D03*
%TD*%
D12*
%TO.C,J29*%
X18625000Y-32500000D03*
%TD*%
D10*
%TO.C,KiKit_MB_39_5*%
X38833333Y-35700000D03*
%TD*%
%TO.C,KiKit_MB_18_4*%
X26300000Y-27500000D03*
%TD*%
D12*
%TO.C,J32*%
X45625000Y-44250000D03*
%TD*%
D10*
%TO.C,KiKit_MB_77_4*%
X71700000Y-72500000D03*
%TD*%
D14*
%TO.C,J2*%
X12825000Y-23100000D03*
%TD*%
D12*
%TO.C,J17*%
X52375000Y-55750000D03*
%TD*%
%TO.C,J29*%
X62625000Y-62500000D03*
%TD*%
D10*
%TO.C,KiKit_MB_21_3*%
X27700000Y-28333333D03*
%TD*%
D11*
%TO.C,J16*%
X64445000Y-10565000D03*
%TD*%
D10*
%TO.C,KiKit_MB_2_1*%
X26300000Y-10000000D03*
%TD*%
%TO.C,KiKit_MB_90_1*%
X70300000Y-85000000D03*
%TD*%
%TO.C,KiKit_MB_74_1*%
X70300000Y-70000000D03*
%TD*%
D11*
%TO.C,J13*%
X16635000Y-70500000D03*
%TD*%
%TO.C,J12*%
X37365000Y-85500000D03*
%TD*%
D10*
%TO.C,KiKit_MB_24_3*%
X38833333Y-34300000D03*
%TD*%
%TO.C,KiKit_MB_43_4*%
X60000000Y-35700000D03*
%TD*%
D14*
%TO.C,J3*%
X58095000Y-23100000D03*
%TD*%
D12*
%TO.C,J20*%
X13375000Y-29250000D03*
%TD*%
D14*
%TO.C,J6*%
X61905000Y-68100000D03*
%TD*%
D10*
%TO.C,KiKit_MB_78_6*%
X92300000Y-74166666D03*
%TD*%
D12*
%TO.C,J29*%
X84625000Y-17500000D03*
%TD*%
%TO.C,J23*%
X23625000Y-82500000D03*
%TD*%
D10*
%TO.C,KiKit_MB_82_1*%
X26300000Y-85000000D03*
%TD*%
%TO.C,KiKit_MB_47_4*%
X82000000Y-35700000D03*
%TD*%
%TO.C,KiKit_MB_52_5*%
X15166667Y-64300000D03*
%TD*%
%TO.C,KiKit_MB_88_7*%
X35500000Y-94300000D03*
%TD*%
D11*
%TO.C,J16*%
X20445000Y-55565000D03*
%TD*%
D10*
%TO.C,KiKit_MB_31_6*%
X83666666Y-20700000D03*
%TD*%
D14*
%TO.C,J2*%
X12825000Y-53100000D03*
%TD*%
D10*
%TO.C,KiKit_MB_81_2*%
X5700000Y-89166666D03*
%TD*%
D11*
%TO.C,J15*%
X19175000Y-25500000D03*
%TD*%
D10*
%TO.C,KiKit_MB_74_7*%
X70300000Y-75000000D03*
%TD*%
%TO.C,KiKit_MB_33_2*%
X5700000Y-44166666D03*
%TD*%
D12*
%TO.C,J22*%
X61905000Y-82125000D03*
%TD*%
%TO.C,J26*%
X52375000Y-62500000D03*
%TD*%
D10*
%TO.C,KiKit_MB_18_2*%
X26300000Y-25833333D03*
%TD*%
%TO.C,KiKit_MB_65_1*%
X5700000Y-75000000D03*
%TD*%
D11*
%TO.C,J15*%
X63175000Y-10500000D03*
%TD*%
D12*
%TO.C,J30*%
X83900000Y-11500000D03*
%TD*%
D10*
%TO.C,KiKit_MB_62_6*%
X92300000Y-59166666D03*
%TD*%
D12*
%TO.C,J21*%
X40625000Y-74250000D03*
%TD*%
D10*
%TO.C,KiKit_MB_74_6*%
X70300000Y-74166666D03*
%TD*%
%TO.C,KiKit_MB_60_4*%
X60000000Y-64300000D03*
%TD*%
%TO.C,KiKit_MB_85_2*%
X27700000Y-89166666D03*
%TD*%
%TO.C,KiKit_MB_42_1*%
X70300000Y-40000000D03*
%TD*%
D14*
%TO.C,J7*%
X63175000Y-8100000D03*
%TD*%
D12*
%TO.C,J30*%
X39900000Y-71500000D03*
%TD*%
D10*
%TO.C,KiKit_MB_15_1*%
X79500000Y-5700000D03*
%TD*%
D14*
%TO.C,J7*%
X41175000Y-38100000D03*
%TD*%
D12*
%TO.C,J32*%
X23625000Y-14250000D03*
%TD*%
D13*
%TO.C,I4*%
X65125000Y-75875000D03*
%TD*%
D12*
%TO.C,J17*%
X30375000Y-85750000D03*
%TD*%
%TO.C,J18*%
X30375000Y-22500000D03*
%TD*%
%TO.C,J26*%
X74375000Y-77500000D03*
%TD*%
%TO.C,J27*%
X36100000Y-56500000D03*
%TD*%
D10*
%TO.C,KiKit_MB_9_4*%
X49700000Y-12500000D03*
%TD*%
%TO.C,KiKit_MB_38_3*%
X48300000Y-41666666D03*
%TD*%
D11*
%TO.C,J10*%
X78825000Y-85500000D03*
%TD*%
%TO.C,J14*%
X17905000Y-85500000D03*
%TD*%
D12*
%TO.C,J22*%
X83905000Y-52125000D03*
%TD*%
D11*
%TO.C,J10*%
X34825000Y-85500000D03*
%TD*%
D12*
%TO.C,J21*%
X62625000Y-89250000D03*
%TD*%
D10*
%TO.C,KiKit_MB_34_6*%
X26300000Y-44166666D03*
%TD*%
D13*
%TO.C,KiKit_TO_1*%
X2500000Y-2500000D03*
%TD*%
D10*
%TO.C,KiKit_MB_53_4*%
X27700000Y-57500000D03*
%TD*%
%TO.C,KiKit_MB_11_3*%
X59166666Y-5700000D03*
%TD*%
D12*
%TO.C,J21*%
X18625000Y-74250000D03*
%TD*%
%TO.C,J23*%
X23625000Y-22500000D03*
%TD*%
%TO.C,J17*%
X74375000Y-25750000D03*
%TD*%
D10*
%TO.C,KiKit_MB_38_1*%
X48300000Y-40000000D03*
%TD*%
%TO.C,KiKit_MB_20_6*%
X14333334Y-34300000D03*
%TD*%
D14*
%TO.C,J7*%
X19175000Y-68100000D03*
%TD*%
D12*
%TO.C,J22*%
X61905000Y-52125000D03*
%TD*%
%TO.C,J29*%
X40625000Y-47500000D03*
%TD*%
D10*
%TO.C,KiKit_MB_60_5*%
X59166666Y-64300000D03*
%TD*%
%TO.C,KiKit_MB_25_6*%
X49700000Y-25833333D03*
%TD*%
D12*
%TO.C,J29*%
X62625000Y-47500000D03*
%TD*%
D10*
%TO.C,KiKit_MB_42_2*%
X70300000Y-40833333D03*
%TD*%
D12*
%TO.C,J18*%
X30375000Y-82500000D03*
%TD*%
D14*
%TO.C,J5*%
X38635000Y-38100000D03*
%TD*%
D10*
%TO.C,KiKit_MB_53_3*%
X27700000Y-58333333D03*
%TD*%
D12*
%TO.C,J31*%
X67625000Y-92500000D03*
%TD*%
D10*
%TO.C,KiKit_MB_30_7*%
X92300000Y-30000000D03*
%TD*%
%TO.C,KiKit_MB_70_3*%
X48300000Y-71666666D03*
%TD*%
%TO.C,KiKit_MB_93_6*%
X71700000Y-85833333D03*
%TD*%
D14*
%TO.C,J2*%
X56825000Y-23100000D03*
%TD*%
%TO.C,J6*%
X61905000Y-38100000D03*
%TD*%
D10*
%TO.C,KiKit_MB_12_3*%
X60833333Y-19300000D03*
%TD*%
D13*
%TO.C,I3*%
X76875000Y-60875000D03*
%TD*%
D12*
%TO.C,J29*%
X18625000Y-47500000D03*
%TD*%
D14*
%TO.C,J8*%
X64445000Y-68165000D03*
%TD*%
D10*
%TO.C,KiKit_MB_21_1*%
X27700000Y-30000000D03*
%TD*%
D13*
%TO.C,I3*%
X10875000Y-90875000D03*
%TD*%
D10*
%TO.C,KiKit_MB_89_5*%
X49700000Y-86666666D03*
%TD*%
%TO.C,KiKit_MB_69_1*%
X27700000Y-75000000D03*
%TD*%
D12*
%TO.C,J25*%
X8375000Y-89250000D03*
%TD*%
D10*
%TO.C,KiKit_MB_86_5*%
X48300000Y-88333333D03*
%TD*%
D14*
%TO.C,J5*%
X16635000Y-83100000D03*
%TD*%
D11*
%TO.C,J16*%
X64445000Y-70565000D03*
%TD*%
%TO.C,J16*%
X20445000Y-85565000D03*
%TD*%
D10*
%TO.C,KiKit_MB_89_2*%
X49700000Y-89166666D03*
%TD*%
D14*
%TO.C,J1*%
X11555000Y-8165000D03*
%TD*%
D10*
%TO.C,KiKit_MB_35_6*%
X17666666Y-35700000D03*
%TD*%
D14*
%TO.C,J4*%
X37365000Y-8100000D03*
%TD*%
%TO.C,J6*%
X17905000Y-38100000D03*
%TD*%
D10*
%TO.C,KiKit_MB_49_3*%
X5700000Y-58333333D03*
%TD*%
%TO.C,KiKit_MB_21_7*%
X27700000Y-25000000D03*
%TD*%
%TO.C,KiKit_MB_11_7*%
X62500000Y-5700000D03*
%TD*%
D12*
%TO.C,J18*%
X52375000Y-82500000D03*
%TD*%
D10*
%TO.C,KiKit_MB_57_7*%
X49700000Y-55000000D03*
%TD*%
D14*
%TO.C,J6*%
X39905000Y-68100000D03*
%TD*%
D11*
%TO.C,J13*%
X38635000Y-40500000D03*
%TD*%
D12*
%TO.C,J29*%
X62625000Y-32500000D03*
%TD*%
D11*
%TO.C,J11*%
X36095000Y-10500000D03*
%TD*%
D10*
%TO.C,KiKit_MB_45_4*%
X71700000Y-42500000D03*
%TD*%
D14*
%TO.C,J1*%
X11555000Y-38165000D03*
%TD*%
D10*
%TO.C,KiKit_MB_23_1*%
X35500000Y-20700000D03*
%TD*%
%TO.C,KiKit_MB_59_2*%
X58333333Y-50700000D03*
%TD*%
%TO.C,KiKit_MB_65_5*%
X5700000Y-71666666D03*
%TD*%
%TO.C,KiKit_MB_71_3*%
X37166666Y-65700000D03*
%TD*%
D11*
%TO.C,J12*%
X81365000Y-55500000D03*
%TD*%
D12*
%TO.C,J21*%
X40625000Y-29250000D03*
%TD*%
D10*
%TO.C,KiKit_MB_13_7*%
X71700000Y-10000000D03*
%TD*%
D12*
%TO.C,J28*%
X13375000Y-77500000D03*
%TD*%
D10*
%TO.C,KiKit_MB_46_3*%
X92300000Y-41666666D03*
%TD*%
D14*
%TO.C,J4*%
X59365000Y-83100000D03*
%TD*%
D10*
%TO.C,KiKit_MB_71_1*%
X35500000Y-65700000D03*
%TD*%
D12*
%TO.C,J28*%
X35375000Y-92500000D03*
%TD*%
D11*
%TO.C,J12*%
X59365000Y-10500000D03*
%TD*%
D10*
%TO.C,KiKit_MB_57_5*%
X49700000Y-56666666D03*
%TD*%
D13*
%TO.C,I4*%
X87125000Y-15875000D03*
%TD*%
D12*
%TO.C,J17*%
X52375000Y-25750000D03*
%TD*%
%TO.C,J23*%
X45625000Y-37500000D03*
%TD*%
%TO.C,J22*%
X83905000Y-37125000D03*
%TD*%
D10*
%TO.C,KiKit_MB_73_1*%
X49700000Y-75000000D03*
%TD*%
D12*
%TO.C,J21*%
X40625000Y-44250000D03*
%TD*%
%TO.C,J23*%
X89625000Y-82500000D03*
%TD*%
D13*
%TO.C,I3*%
X10875000Y-45875000D03*
%TD*%
D14*
%TO.C,J7*%
X63175000Y-83100000D03*
%TD*%
D12*
%TO.C,J22*%
X17905000Y-82125000D03*
%TD*%
D10*
%TO.C,KiKit_MB_34_1*%
X26300000Y-40000000D03*
%TD*%
%TO.C,KiKit_MB_95_6*%
X83666666Y-80700000D03*
%TD*%
%TO.C,KiKit_MB_58_6*%
X70300000Y-59166666D03*
%TD*%
D14*
%TO.C,J7*%
X41175000Y-68100000D03*
%TD*%
D10*
%TO.C,KiKit_MB_33_4*%
X5700000Y-42500000D03*
%TD*%
D11*
%TO.C,J10*%
X56825000Y-10500000D03*
%TD*%
D12*
%TO.C,J30*%
X39900000Y-11500000D03*
%TD*%
%TO.C,J26*%
X52375000Y-77500000D03*
%TD*%
D10*
%TO.C,KiKit_MB_102_2*%
X800000Y-94000000D03*
%TD*%
D11*
%TO.C,J9*%
X77555000Y-55565000D03*
%TD*%
D10*
%TO.C,KiKit_MB_48_2*%
X83666666Y-49300000D03*
%TD*%
%TO.C,KiKit_MB_20_1*%
X18500000Y-34300000D03*
%TD*%
%TO.C,KiKit_MB_50_5*%
X26300000Y-58333333D03*
%TD*%
D12*
%TO.C,J30*%
X61900000Y-11500000D03*
%TD*%
D14*
%TO.C,J3*%
X14095000Y-83100000D03*
%TD*%
%TO.C,J7*%
X19175000Y-23100000D03*
%TD*%
D12*
%TO.C,J31*%
X67625000Y-47500000D03*
%TD*%
D13*
%TO.C,I4*%
X21125000Y-45875000D03*
%TD*%
D10*
%TO.C,KiKit_MB_1_4*%
X5700000Y-12500000D03*
%TD*%
%TO.C,KiKit_MB_88_1*%
X40500000Y-94300000D03*
%TD*%
D14*
%TO.C,J2*%
X78825000Y-23100000D03*
%TD*%
D10*
%TO.C,KiKit_MB_10_4*%
X70300000Y-12500000D03*
%TD*%
%TO.C,KiKit_MB_39_7*%
X40500000Y-35700000D03*
%TD*%
%TO.C,KiKit_MB_73_3*%
X49700000Y-73333333D03*
%TD*%
%TO.C,KiKit_MB_40_7*%
X35500000Y-49300000D03*
%TD*%
D12*
%TO.C,J32*%
X67625000Y-89250000D03*
%TD*%
D10*
%TO.C,KiKit_MB_95_7*%
X84500000Y-80700000D03*
%TD*%
%TO.C,KiKit_MB_79_6*%
X83666666Y-65700000D03*
%TD*%
%TO.C,KiKit_MB_46_6*%
X92300000Y-44166666D03*
%TD*%
D11*
%TO.C,J13*%
X16635000Y-40500000D03*
%TD*%
D10*
%TO.C,KiKit_MB_63_6*%
X83666666Y-50700000D03*
%TD*%
D14*
%TO.C,J7*%
X41175000Y-83100000D03*
%TD*%
D10*
%TO.C,KiKit_MB_51_7*%
X18500000Y-50700000D03*
%TD*%
D11*
%TO.C,J11*%
X58095000Y-55500000D03*
%TD*%
D10*
%TO.C,KiKit_MB_98_2*%
X92000000Y-800000D03*
%TD*%
%TO.C,KiKit_MB_4_6*%
X14333334Y-19300000D03*
%TD*%
%TO.C,KiKit_MB_31_2*%
X80333333Y-20700000D03*
%TD*%
D11*
%TO.C,J13*%
X82635000Y-55500000D03*
%TD*%
D10*
%TO.C,KiKit_MB_87_6*%
X39666666Y-80700000D03*
%TD*%
%TO.C,KiKit_MB_97_4*%
X6000000Y-2400000D03*
%TD*%
%TO.C,KiKit_MB_91_2*%
X58333333Y-80700000D03*
%TD*%
D12*
%TO.C,J26*%
X74375000Y-62500000D03*
%TD*%
D10*
%TO.C,KiKit_MB_21_6*%
X27700000Y-25833333D03*
%TD*%
D13*
%TO.C,I3*%
X54875000Y-15875000D03*
%TD*%
D11*
%TO.C,J11*%
X58095000Y-25500000D03*
%TD*%
D10*
%TO.C,KiKit_MB_64_6*%
X80333333Y-64300000D03*
%TD*%
D12*
%TO.C,J17*%
X8375000Y-40750000D03*
%TD*%
D10*
%TO.C,KiKit_MB_90_2*%
X70300000Y-85833333D03*
%TD*%
%TO.C,KiKit_MB_36_3*%
X16833333Y-49300000D03*
%TD*%
D12*
%TO.C,J23*%
X67625000Y-37500000D03*
%TD*%
D14*
%TO.C,J5*%
X82635000Y-38100000D03*
%TD*%
D10*
%TO.C,KiKit_MB_84_5*%
X15166667Y-94300000D03*
%TD*%
%TO.C,KiKit_MB_97_6*%
X6000000Y-4000000D03*
%TD*%
D11*
%TO.C,J15*%
X63175000Y-25500000D03*
%TD*%
D10*
%TO.C,KiKit_MB_80_5*%
X81166666Y-79300000D03*
%TD*%
%TO.C,KiKit_MB_23_5*%
X38833333Y-20700000D03*
%TD*%
%TO.C,KiKit_MB_4_4*%
X16000000Y-19300000D03*
%TD*%
D14*
%TO.C,J8*%
X86445000Y-38165000D03*
%TD*%
D10*
%TO.C,KiKit_MB_93_7*%
X71700000Y-85000000D03*
%TD*%
D14*
%TO.C,J6*%
X83905000Y-8100000D03*
%TD*%
D12*
%TO.C,J22*%
X83905000Y-67125000D03*
%TD*%
%TO.C,J22*%
X39905000Y-22125000D03*
%TD*%
D11*
%TO.C,J11*%
X36095000Y-40500000D03*
%TD*%
D10*
%TO.C,KiKit_MB_36_1*%
X18500000Y-49300000D03*
%TD*%
%TO.C,KiKit_MB_89_1*%
X49700000Y-90000000D03*
%TD*%
%TO.C,KiKit_MB_103_2*%
X94800000Y-6000000D03*
%TD*%
D11*
%TO.C,J13*%
X60635000Y-55500000D03*
%TD*%
D10*
%TO.C,KiKit_MB_16_5*%
X81166666Y-19300000D03*
%TD*%
D12*
%TO.C,J26*%
X74375000Y-17500000D03*
%TD*%
D10*
%TO.C,KiKit_MB_94_1*%
X92300000Y-85000000D03*
%TD*%
D14*
%TO.C,J7*%
X85175000Y-53100000D03*
%TD*%
D10*
%TO.C,KiKit_MB_4_5*%
X15166667Y-19300000D03*
%TD*%
D12*
%TO.C,J26*%
X8375000Y-17500000D03*
%TD*%
D11*
%TO.C,J14*%
X39905000Y-70500000D03*
%TD*%
D10*
%TO.C,KiKit_MB_37_1*%
X27700000Y-45000000D03*
%TD*%
D12*
%TO.C,J19*%
X58095000Y-82125000D03*
%TD*%
D10*
%TO.C,KiKit_MB_51_5*%
X16833333Y-50700000D03*
%TD*%
%TO.C,KiKit_MB_89_3*%
X49700000Y-88333333D03*
%TD*%
D12*
%TO.C,J30*%
X61900000Y-71500000D03*
%TD*%
D10*
%TO.C,KiKit_MB_19_1*%
X13500000Y-20700000D03*
%TD*%
D14*
%TO.C,J1*%
X55555000Y-53165000D03*
%TD*%
D12*
%TO.C,J31*%
X67625000Y-77500000D03*
%TD*%
D14*
%TO.C,J7*%
X19175000Y-8100000D03*
%TD*%
D13*
%TO.C,I4*%
X65125000Y-15875000D03*
%TD*%
D12*
%TO.C,J21*%
X18625000Y-14250000D03*
%TD*%
D10*
%TO.C,KiKit_MB_22_2*%
X48300000Y-25833333D03*
%TD*%
%TO.C,KiKit_MB_31_4*%
X82000000Y-20700000D03*
%TD*%
D14*
%TO.C,J1*%
X11555000Y-23165000D03*
%TD*%
D12*
%TO.C,J24*%
X89625000Y-40750000D03*
%TD*%
%TO.C,J18*%
X30375000Y-67500000D03*
%TD*%
%TO.C,J27*%
X14100000Y-56500000D03*
%TD*%
D10*
%TO.C,KiKit_MB_63_1*%
X79500000Y-50700000D03*
%TD*%
%TO.C,KiKit_MB_12_2*%
X61666666Y-19300000D03*
%TD*%
D12*
%TO.C,J24*%
X45625000Y-40750000D03*
%TD*%
D10*
%TO.C,KiKit_MB_5_4*%
X27700000Y-12500000D03*
%TD*%
%TO.C,KiKit_MB_41_4*%
X49700000Y-42500000D03*
%TD*%
%TO.C,KiKit_MB_55_7*%
X40500000Y-50700000D03*
%TD*%
%TO.C,KiKit_MB_10_7*%
X70300000Y-15000000D03*
%TD*%
D12*
%TO.C,J21*%
X84625000Y-14250000D03*
%TD*%
D13*
%TO.C,I3*%
X32875000Y-45875000D03*
%TD*%
D10*
%TO.C,KiKit_MB_82_4*%
X26300000Y-87500000D03*
%TD*%
%TO.C,KiKit_MB_29_3*%
X71700000Y-28333333D03*
%TD*%
%TO.C,KiKit_MB_20_5*%
X15166667Y-34300000D03*
%TD*%
D12*
%TO.C,J20*%
X13375000Y-74250000D03*
%TD*%
D10*
%TO.C,KiKit_MB_63_5*%
X82833333Y-50700000D03*
%TD*%
%TO.C,KiKit_MB_98_6*%
X92000000Y-4000000D03*
%TD*%
D12*
%TO.C,J32*%
X67625000Y-14250000D03*
%TD*%
%TO.C,J30*%
X17900000Y-86500000D03*
%TD*%
D10*
%TO.C,KiKit_MB_10_3*%
X70300000Y-11666667D03*
%TD*%
%TO.C,KiKit_MB_76_3*%
X60833333Y-79300000D03*
%TD*%
D12*
%TO.C,J29*%
X84625000Y-77500000D03*
%TD*%
D10*
%TO.C,KiKit_MB_54_5*%
X48300000Y-58333333D03*
%TD*%
D14*
%TO.C,J5*%
X60635000Y-68100000D03*
%TD*%
D10*
%TO.C,KiKit_MB_69_3*%
X27700000Y-73333333D03*
%TD*%
%TO.C,KiKit_MB_60_7*%
X57500000Y-64300000D03*
%TD*%
D12*
%TO.C,J28*%
X35375000Y-47500000D03*
%TD*%
D10*
%TO.C,KiKit_MB_44_1*%
X62500000Y-49300000D03*
%TD*%
%TO.C,KiKit_MB_48_1*%
X84500000Y-49300000D03*
%TD*%
D11*
%TO.C,J12*%
X37365000Y-70500000D03*
%TD*%
D10*
%TO.C,KiKit_MB_6_7*%
X48300000Y-15000000D03*
%TD*%
D14*
%TO.C,J7*%
X63175000Y-38100000D03*
%TD*%
D10*
%TO.C,KiKit_MB_53_6*%
X27700000Y-55833333D03*
%TD*%
D11*
%TO.C,J16*%
X42445000Y-85565000D03*
%TD*%
D12*
%TO.C,J26*%
X52375000Y-92500000D03*
%TD*%
%TO.C,J19*%
X14095000Y-67125000D03*
%TD*%
D10*
%TO.C,KiKit_MB_58_2*%
X70300000Y-55833333D03*
%TD*%
D14*
%TO.C,J7*%
X63175000Y-53100000D03*
%TD*%
D10*
%TO.C,KiKit_MB_95_2*%
X80333333Y-80700000D03*
%TD*%
D12*
%TO.C,J30*%
X39900000Y-86500000D03*
%TD*%
%TO.C,J30*%
X17900000Y-41500000D03*
%TD*%
D10*
%TO.C,KiKit_MB_9_3*%
X49700000Y-13333333D03*
%TD*%
%TO.C,KiKit_MB_65_4*%
X5700000Y-72500000D03*
%TD*%
D14*
%TO.C,J4*%
X59365000Y-68100000D03*
%TD*%
D10*
%TO.C,KiKit_MB_66_3*%
X26300000Y-71666666D03*
%TD*%
%TO.C,KiKit_MB_6_3*%
X48300000Y-11666667D03*
%TD*%
D12*
%TO.C,J22*%
X17905000Y-22125000D03*
%TD*%
%TO.C,J27*%
X58100000Y-56500000D03*
%TD*%
%TO.C,J31*%
X89625000Y-77500000D03*
%TD*%
D13*
%TO.C,I3*%
X32875000Y-75875000D03*
%TD*%
M02*
