%TF.GenerationSoftware,KiCad,Pcbnew,9.0.6-9.0.6~ubuntu24.04.1*%
%TF.CreationDate,2026-01-03T15:41:23+00:00*%
%TF.ProjectId,EMG_DAQ_ADS1293,454d475f-4441-4515-9f41-445331323933,3.3*%
%TF.SameCoordinates,Original*%
%TF.FileFunction,Copper,L3,Inr*%
%TF.FilePolarity,Positive*%
%FSLAX46Y46*%
G04 Gerber Fmt 4.6, Leading zero omitted, Abs format (unit mm)*
G04 Created by KiCad (PCBNEW 9.0.6-9.0.6~ubuntu24.04.1) date 2026-01-03 15:41:23*
%MOMM*%
%LPD*%
G01*
G04 APERTURE LIST*
%TA.AperFunction,CastellatedPad*%
%ADD10R,1.000000X1.000000*%
%TD*%
%TA.AperFunction,ViaPad*%
%ADD11C,0.400000*%
%TD*%
G04 APERTURE END LIST*
D10*
%TO.N,/in1*%
%TO.C,J3*%
X26714500Y-38210500D03*
%TD*%
%TO.N,/CLK*%
%TO.C,J1*%
X27984500Y-28210500D03*
%TD*%
%TO.N,/in1*%
%TO.C,J2*%
X25444500Y-38210500D03*
%TD*%
%TO.N,/POCI*%
%TO.C,J9*%
X29254500Y-28210500D03*
%TD*%
%TO.N,/in6*%
%TO.C,J15*%
X33064500Y-38210500D03*
%TD*%
%TO.N,/extRef*%
%TO.C,J7*%
X34334500Y-28210500D03*
%TD*%
%TO.N,/in3*%
%TO.C,J5*%
X29254500Y-38210500D03*
%TD*%
%TO.N,/in2*%
%TO.C,J4*%
X27984500Y-38210500D03*
%TD*%
%TO.N,/PICO*%
%TO.C,J10*%
X30524500Y-28210500D03*
%TD*%
%TO.N,GND*%
%TO.C,J14*%
X26714500Y-28210500D03*
%TD*%
%TO.N,/in5*%
%TO.C,J8*%
X31794500Y-38210500D03*
%TD*%
%TO.N,/CSB*%
%TO.C,J12*%
X33064500Y-28210500D03*
%TD*%
%TO.N,GND*%
%TO.C,J16*%
X34334500Y-38210500D03*
%TD*%
%TO.N,/in4*%
%TO.C,J6*%
X30524500Y-38210500D03*
%TD*%
%TO.N,/SCLK*%
%TO.C,J11*%
X31794500Y-28210500D03*
%TD*%
%TO.N,+3.3V*%
%TO.C,J13*%
X25444500Y-28210500D03*
%TD*%
D11*
%TO.N,GND*%
X26489500Y-35690500D03*
X34334500Y-37194500D03*
X29923079Y-34656196D03*
X26710582Y-30750760D03*
X24914500Y-30710500D03*
X30927701Y-33675782D03*
X29910975Y-32901134D03*
X27589500Y-34680500D03*
X32150192Y-34716715D03*
X23414500Y-37100500D03*
X36184500Y-33700500D03*
X27014500Y-35220500D03*
X24144372Y-36058131D03*
%TO.N,XTAL2*%
X27639500Y-32860500D03*
%TO.N,XTAL1*%
X28389500Y-31285500D03*
%TO.N,/in1*%
X25444500Y-37194500D03*
X26714500Y-37194500D03*
%TO.N,/in2*%
X27984500Y-37194500D03*
%TO.N,/in3*%
X29254500Y-37194500D03*
%TO.N,/in4*%
X30524500Y-37194500D03*
%TO.N,/in5*%
X31794500Y-37194500D03*
%TO.N,/in6*%
X33064500Y-37194500D03*
%TD*%
%TA.AperFunction,Conductor*%
%TO.N,GND*%
G36*
X24505051Y-27240685D02*
G01*
X24550806Y-27293489D01*
X24560750Y-27362647D01*
X24537279Y-27419311D01*
X24500704Y-27468168D01*
X24500702Y-27468171D01*
X24450408Y-27603017D01*
X24444001Y-27662616D01*
X24444001Y-27662623D01*
X24444000Y-27662635D01*
X24444000Y-28758370D01*
X24444001Y-28758376D01*
X24450408Y-28817983D01*
X24500702Y-28952828D01*
X24500706Y-28952835D01*
X24586952Y-29068044D01*
X24586955Y-29068047D01*
X24702164Y-29154293D01*
X24702171Y-29154297D01*
X24837017Y-29204591D01*
X24837016Y-29204591D01*
X24843944Y-29205335D01*
X24896627Y-29211000D01*
X25992372Y-29210999D01*
X26051983Y-29204591D01*
X26051990Y-29204588D01*
X26052066Y-29204571D01*
X26052171Y-29204570D01*
X26059697Y-29203762D01*
X26059783Y-29204570D01*
X26099272Y-29204569D01*
X26099412Y-29203269D01*
X26166655Y-29210499D01*
X26166672Y-29210500D01*
X26464500Y-29210500D01*
X26464500Y-28420118D01*
X26514946Y-28470564D01*
X26589055Y-28513351D01*
X26671713Y-28535500D01*
X26757287Y-28535500D01*
X26839945Y-28513351D01*
X26914054Y-28470564D01*
X26964500Y-28420118D01*
X26964500Y-29210500D01*
X27262328Y-29210500D01*
X27262344Y-29210499D01*
X27329588Y-29203269D01*
X27329727Y-29204568D01*
X27369217Y-29204568D01*
X27369304Y-29203762D01*
X27376800Y-29204568D01*
X27376923Y-29204568D01*
X27377010Y-29204588D01*
X27377017Y-29204591D01*
X27377023Y-29204591D01*
X27377025Y-29204592D01*
X27385732Y-29205528D01*
X27436627Y-29211000D01*
X28532372Y-29210999D01*
X28580259Y-29205851D01*
X28599697Y-29203762D01*
X28599811Y-29204830D01*
X28639188Y-29204829D01*
X28639303Y-29203761D01*
X28647014Y-29204589D01*
X28647017Y-29204591D01*
X28706627Y-29211000D01*
X29802372Y-29210999D01*
X29850259Y-29205851D01*
X29869697Y-29203762D01*
X29869811Y-29204830D01*
X29909188Y-29204829D01*
X29909303Y-29203761D01*
X29917014Y-29204589D01*
X29917017Y-29204591D01*
X29976627Y-29211000D01*
X31072372Y-29210999D01*
X31120259Y-29205851D01*
X31139697Y-29203762D01*
X31139811Y-29204830D01*
X31179188Y-29204829D01*
X31179303Y-29203761D01*
X31187014Y-29204589D01*
X31187017Y-29204591D01*
X31246627Y-29211000D01*
X32342372Y-29210999D01*
X32390259Y-29205851D01*
X32409697Y-29203762D01*
X32409811Y-29204830D01*
X32449188Y-29204829D01*
X32449303Y-29203761D01*
X32457014Y-29204589D01*
X32457017Y-29204591D01*
X32516627Y-29211000D01*
X33612372Y-29210999D01*
X33660259Y-29205851D01*
X33679697Y-29203762D01*
X33679811Y-29204830D01*
X33719188Y-29204829D01*
X33719303Y-29203761D01*
X33727014Y-29204589D01*
X33727017Y-29204591D01*
X33786627Y-29211000D01*
X34882372Y-29210999D01*
X34941983Y-29204591D01*
X35076831Y-29154296D01*
X35192046Y-29068046D01*
X35278296Y-28952831D01*
X35328591Y-28817983D01*
X35335000Y-28758373D01*
X35334999Y-27662628D01*
X35328591Y-27603017D01*
X35312706Y-27560428D01*
X35278297Y-27468171D01*
X35278295Y-27468168D01*
X35241721Y-27419311D01*
X35217304Y-27353847D01*
X35232156Y-27285574D01*
X35281561Y-27236168D01*
X35340988Y-27221000D01*
X36633408Y-27221000D01*
X36645561Y-27221597D01*
X36655133Y-27222539D01*
X36771618Y-27234012D01*
X36795455Y-27238754D01*
X36910810Y-27273747D01*
X36933264Y-27283048D01*
X36986419Y-27311459D01*
X37039571Y-27339870D01*
X37059783Y-27353375D01*
X37152964Y-27429847D01*
X37170152Y-27447035D01*
X37246624Y-27540216D01*
X37260129Y-27560428D01*
X37316950Y-27666732D01*
X37326252Y-27689189D01*
X37361245Y-27804544D01*
X37365988Y-27828386D01*
X37378403Y-27954438D01*
X37379000Y-27966592D01*
X37379000Y-37454406D01*
X37378403Y-37466560D01*
X37365988Y-37592612D01*
X37361246Y-37616453D01*
X37326253Y-37731809D01*
X37316950Y-37754267D01*
X37260129Y-37860572D01*
X37246624Y-37880784D01*
X37170153Y-37973964D01*
X37152965Y-37991152D01*
X37059784Y-38067624D01*
X37039572Y-38081129D01*
X36933268Y-38137950D01*
X36910810Y-38147253D01*
X36795454Y-38182246D01*
X36771613Y-38186988D01*
X36645572Y-38199402D01*
X36633418Y-38199999D01*
X35458500Y-38199999D01*
X35391461Y-38180314D01*
X35345706Y-38127510D01*
X35334500Y-38075999D01*
X35334500Y-37662672D01*
X35334499Y-37662655D01*
X35328098Y-37603127D01*
X35328096Y-37603120D01*
X35277854Y-37468413D01*
X35277850Y-37468406D01*
X35191690Y-37353312D01*
X35191687Y-37353309D01*
X35076593Y-37267149D01*
X35076586Y-37267145D01*
X34941879Y-37216903D01*
X34941872Y-37216901D01*
X34882344Y-37210500D01*
X34584500Y-37210500D01*
X34584500Y-38000882D01*
X34534054Y-37950436D01*
X34459945Y-37907649D01*
X34377287Y-37885500D01*
X34291713Y-37885500D01*
X34209055Y-37907649D01*
X34134946Y-37950436D01*
X34084500Y-38000882D01*
X34084500Y-37210500D01*
X33883671Y-37210500D01*
X33816632Y-37190815D01*
X33770877Y-37138011D01*
X33762054Y-37110692D01*
X33738081Y-36990177D01*
X33738080Y-36990176D01*
X33738080Y-36990172D01*
X33699500Y-36897031D01*
X33685278Y-36862695D01*
X33685271Y-36862682D01*
X33608614Y-36747958D01*
X33608611Y-36747954D01*
X33511045Y-36650388D01*
X33511041Y-36650385D01*
X33396317Y-36573728D01*
X33396304Y-36573721D01*
X33268832Y-36520921D01*
X33268822Y-36520918D01*
X33133495Y-36494000D01*
X33133493Y-36494000D01*
X32995507Y-36494000D01*
X32995505Y-36494000D01*
X32860177Y-36520918D01*
X32860167Y-36520921D01*
X32732695Y-36573721D01*
X32732682Y-36573728D01*
X32617958Y-36650385D01*
X32617954Y-36650388D01*
X32517181Y-36751162D01*
X32455858Y-36784647D01*
X32386166Y-36779663D01*
X32341819Y-36751162D01*
X32241045Y-36650388D01*
X32241041Y-36650385D01*
X32126317Y-36573728D01*
X32126304Y-36573721D01*
X31998832Y-36520921D01*
X31998822Y-36520918D01*
X31863495Y-36494000D01*
X31863493Y-36494000D01*
X31725507Y-36494000D01*
X31725505Y-36494000D01*
X31590177Y-36520918D01*
X31590167Y-36520921D01*
X31462695Y-36573721D01*
X31462682Y-36573728D01*
X31347958Y-36650385D01*
X31347954Y-36650388D01*
X31247181Y-36751162D01*
X31185858Y-36784647D01*
X31116166Y-36779663D01*
X31071819Y-36751162D01*
X30971045Y-36650388D01*
X30971041Y-36650385D01*
X30856317Y-36573728D01*
X30856304Y-36573721D01*
X30728832Y-36520921D01*
X30728822Y-36520918D01*
X30593495Y-36494000D01*
X30593493Y-36494000D01*
X30455507Y-36494000D01*
X30455505Y-36494000D01*
X30320177Y-36520918D01*
X30320167Y-36520921D01*
X30192695Y-36573721D01*
X30192682Y-36573728D01*
X30077958Y-36650385D01*
X30077954Y-36650388D01*
X29977181Y-36751162D01*
X29915858Y-36784647D01*
X29846166Y-36779663D01*
X29801819Y-36751162D01*
X29701045Y-36650388D01*
X29701041Y-36650385D01*
X29586317Y-36573728D01*
X29586304Y-36573721D01*
X29458832Y-36520921D01*
X29458822Y-36520918D01*
X29323495Y-36494000D01*
X29323493Y-36494000D01*
X29185507Y-36494000D01*
X29185505Y-36494000D01*
X29050177Y-36520918D01*
X29050167Y-36520921D01*
X28922695Y-36573721D01*
X28922682Y-36573728D01*
X28807958Y-36650385D01*
X28807954Y-36650388D01*
X28707181Y-36751162D01*
X28645858Y-36784647D01*
X28576166Y-36779663D01*
X28531819Y-36751162D01*
X28431045Y-36650388D01*
X28431041Y-36650385D01*
X28316317Y-36573728D01*
X28316304Y-36573721D01*
X28188832Y-36520921D01*
X28188822Y-36520918D01*
X28053495Y-36494000D01*
X28053493Y-36494000D01*
X27915507Y-36494000D01*
X27915505Y-36494000D01*
X27780177Y-36520918D01*
X27780167Y-36520921D01*
X27652695Y-36573721D01*
X27652682Y-36573728D01*
X27537958Y-36650385D01*
X27537954Y-36650388D01*
X27437181Y-36751162D01*
X27375858Y-36784647D01*
X27306166Y-36779663D01*
X27261819Y-36751162D01*
X27161045Y-36650388D01*
X27161041Y-36650385D01*
X27046317Y-36573728D01*
X27046304Y-36573721D01*
X26918832Y-36520921D01*
X26918822Y-36520918D01*
X26783495Y-36494000D01*
X26783493Y-36494000D01*
X26645507Y-36494000D01*
X26645505Y-36494000D01*
X26510177Y-36520918D01*
X26510167Y-36520921D01*
X26382695Y-36573721D01*
X26382682Y-36573728D01*
X26267958Y-36650385D01*
X26267954Y-36650388D01*
X26167181Y-36751162D01*
X26105858Y-36784647D01*
X26036166Y-36779663D01*
X25991819Y-36751162D01*
X25891045Y-36650388D01*
X25891041Y-36650385D01*
X25776317Y-36573728D01*
X25776304Y-36573721D01*
X25648832Y-36520921D01*
X25648822Y-36520918D01*
X25513495Y-36494000D01*
X25513493Y-36494000D01*
X25375507Y-36494000D01*
X25375505Y-36494000D01*
X25240177Y-36520918D01*
X25240167Y-36520921D01*
X25112695Y-36573721D01*
X25112682Y-36573728D01*
X24997958Y-36650385D01*
X24997954Y-36650388D01*
X24900388Y-36747954D01*
X24900385Y-36747958D01*
X24823728Y-36862682D01*
X24823721Y-36862695D01*
X24770921Y-36990167D01*
X24770918Y-36990177D01*
X24744000Y-37125504D01*
X24744000Y-37173319D01*
X24724315Y-37240358D01*
X24694312Y-37272585D01*
X24586952Y-37352955D01*
X24500706Y-37468164D01*
X24500702Y-37468171D01*
X24450408Y-37603017D01*
X24444001Y-37662616D01*
X24444000Y-37662635D01*
X24444000Y-38075999D01*
X24424315Y-38143038D01*
X24371511Y-38188793D01*
X24320000Y-38199999D01*
X23145590Y-38199999D01*
X23133437Y-38199402D01*
X23007387Y-38186988D01*
X22983544Y-38182245D01*
X22868189Y-38147252D01*
X22845732Y-38137950D01*
X22739428Y-38081129D01*
X22719216Y-38067624D01*
X22626035Y-37991152D01*
X22608847Y-37973964D01*
X22532375Y-37880783D01*
X22518870Y-37860571D01*
X22462049Y-37754267D01*
X22452747Y-37731810D01*
X22417754Y-37616455D01*
X22413012Y-37592618D01*
X22400597Y-37466560D01*
X22400000Y-37454407D01*
X22400000Y-32929495D01*
X26938999Y-32929495D01*
X26965918Y-33064822D01*
X26965921Y-33064832D01*
X27018721Y-33192304D01*
X27018728Y-33192317D01*
X27095385Y-33307041D01*
X27095388Y-33307045D01*
X27192954Y-33404611D01*
X27192958Y-33404614D01*
X27307682Y-33481271D01*
X27307695Y-33481278D01*
X27435167Y-33534078D01*
X27435172Y-33534080D01*
X27435176Y-33534080D01*
X27435177Y-33534081D01*
X27570504Y-33561000D01*
X27570507Y-33561000D01*
X27708495Y-33561000D01*
X27799541Y-33542889D01*
X27843828Y-33534080D01*
X27971311Y-33481275D01*
X28086042Y-33404614D01*
X28183614Y-33307042D01*
X28260275Y-33192311D01*
X28313080Y-33064828D01*
X28340000Y-32929493D01*
X28340000Y-32791507D01*
X28340000Y-32791504D01*
X28313081Y-32656177D01*
X28313080Y-32656176D01*
X28313080Y-32656172D01*
X28313078Y-32656167D01*
X28260278Y-32528695D01*
X28260271Y-32528682D01*
X28183614Y-32413958D01*
X28183611Y-32413954D01*
X28086045Y-32316388D01*
X28086041Y-32316385D01*
X27971317Y-32239728D01*
X27971304Y-32239721D01*
X27843832Y-32186921D01*
X27843822Y-32186918D01*
X27708495Y-32160000D01*
X27708493Y-32160000D01*
X27570507Y-32160000D01*
X27570505Y-32160000D01*
X27435177Y-32186918D01*
X27435167Y-32186921D01*
X27307695Y-32239721D01*
X27307682Y-32239728D01*
X27192958Y-32316385D01*
X27192954Y-32316388D01*
X27095388Y-32413954D01*
X27095385Y-32413958D01*
X27018728Y-32528682D01*
X27018721Y-32528695D01*
X26965921Y-32656167D01*
X26965918Y-32656177D01*
X26939000Y-32791504D01*
X26939000Y-32791507D01*
X26939000Y-32929493D01*
X26939000Y-32929495D01*
X26938999Y-32929495D01*
X22400000Y-32929495D01*
X22400000Y-31354495D01*
X27688999Y-31354495D01*
X27715918Y-31489822D01*
X27715921Y-31489832D01*
X27768721Y-31617304D01*
X27768728Y-31617317D01*
X27845385Y-31732041D01*
X27845388Y-31732045D01*
X27942954Y-31829611D01*
X27942958Y-31829614D01*
X28057682Y-31906271D01*
X28057695Y-31906278D01*
X28185167Y-31959078D01*
X28185172Y-31959080D01*
X28185176Y-31959080D01*
X28185177Y-31959081D01*
X28320504Y-31986000D01*
X28320507Y-31986000D01*
X28458495Y-31986000D01*
X28549541Y-31967889D01*
X28593828Y-31959080D01*
X28721311Y-31906275D01*
X28836042Y-31829614D01*
X28933614Y-31732042D01*
X29010275Y-31617311D01*
X29063080Y-31489828D01*
X29090000Y-31354493D01*
X29090000Y-31216507D01*
X29090000Y-31216504D01*
X29063081Y-31081177D01*
X29063080Y-31081176D01*
X29063080Y-31081172D01*
X29063078Y-31081167D01*
X29010278Y-30953695D01*
X29010271Y-30953682D01*
X28933614Y-30838958D01*
X28933611Y-30838954D01*
X28836045Y-30741388D01*
X28836041Y-30741385D01*
X28721317Y-30664728D01*
X28721304Y-30664721D01*
X28593832Y-30611921D01*
X28593822Y-30611918D01*
X28458495Y-30585000D01*
X28458493Y-30585000D01*
X28320507Y-30585000D01*
X28320505Y-30585000D01*
X28185177Y-30611918D01*
X28185167Y-30611921D01*
X28057695Y-30664721D01*
X28057682Y-30664728D01*
X27942958Y-30741385D01*
X27942954Y-30741388D01*
X27845388Y-30838954D01*
X27845385Y-30838958D01*
X27768728Y-30953682D01*
X27768721Y-30953695D01*
X27715921Y-31081167D01*
X27715918Y-31081177D01*
X27689000Y-31216504D01*
X27689000Y-31216507D01*
X27689000Y-31354493D01*
X27689000Y-31354495D01*
X27688999Y-31354495D01*
X22400000Y-31354495D01*
X22400000Y-27966592D01*
X22400597Y-27954439D01*
X22407377Y-27885597D01*
X22413012Y-27828380D01*
X22417751Y-27804554D01*
X22452748Y-27689183D01*
X22462046Y-27666738D01*
X22518874Y-27560421D01*
X22532370Y-27540221D01*
X22608850Y-27447030D01*
X22626029Y-27429851D01*
X22719221Y-27353370D01*
X22739421Y-27339873D01*
X22845738Y-27283046D01*
X22868182Y-27273748D01*
X22983553Y-27238751D01*
X23007378Y-27234012D01*
X23116082Y-27223305D01*
X23133419Y-27221598D01*
X23145573Y-27221001D01*
X23194266Y-27221001D01*
X23194275Y-27221000D01*
X24438012Y-27221000D01*
X24505051Y-27240685D01*
G37*
%TD.AperFunction*%
%TD*%
M02*
