%TF.GenerationSoftware,KiCad,Pcbnew,9.0.6-9.0.6~ubuntu24.04.1*%
%TF.CreationDate,2026-01-03T15:41:23+00:00*%
%TF.ProjectId,EMG_DAQ_ADS1293,454d475f-4441-4515-9f41-445331323933,3.3*%
%TF.SameCoordinates,Original*%
%TF.FileFunction,Copper,L1,Top*%
%TF.FilePolarity,Positive*%
%FSLAX46Y46*%
G04 Gerber Fmt 4.6, Leading zero omitted, Abs format (unit mm)*
G04 Created by KiCad (PCBNEW 9.0.6-9.0.6~ubuntu24.04.1) date 2026-01-03 15:41:23*
%MOMM*%
%LPD*%
G01*
G04 APERTURE LIST*
G04 Aperture macros list*
%AMRoundRect*
0 Rectangle with rounded corners*
0 $1 Rounding radius*
0 $2 $3 $4 $5 $6 $7 $8 $9 X,Y pos of 4 corners*
0 Add a 4 corners polygon primitive as box body*
4,1,4,$2,$3,$4,$5,$6,$7,$8,$9,$2,$3,0*
0 Add four circle primitives for the rounded corners*
1,1,$1+$1,$2,$3*
1,1,$1+$1,$4,$5*
1,1,$1+$1,$6,$7*
1,1,$1+$1,$8,$9*
0 Add four rect primitives between the rounded corners*
20,1,$1+$1,$2,$3,$4,$5,0*
20,1,$1+$1,$4,$5,$6,$7,0*
20,1,$1+$1,$6,$7,$8,$9,0*
20,1,$1+$1,$8,$9,$2,$3,0*%
G04 Aperture macros list end*
%TA.AperFunction,CastellatedPad*%
%ADD10R,1.000000X1.000000*%
%TD*%
%TA.AperFunction,SMDPad,CuDef*%
%ADD11RoundRect,0.140000X0.140000X0.170000X-0.140000X0.170000X-0.140000X-0.170000X0.140000X-0.170000X0*%
%TD*%
%TA.AperFunction,SMDPad,CuDef*%
%ADD12RoundRect,0.140000X-0.140000X-0.170000X0.140000X-0.170000X0.140000X0.170000X-0.140000X0.170000X0*%
%TD*%
%TA.AperFunction,SMDPad,CuDef*%
%ADD13RoundRect,0.140000X0.170000X-0.140000X0.170000X0.140000X-0.170000X0.140000X-0.170000X-0.140000X0*%
%TD*%
%TA.AperFunction,SMDPad,CuDef*%
%ADD14R,0.250000X0.600000*%
%TD*%
%TA.AperFunction,SMDPad,CuDef*%
%ADD15R,0.600000X0.250000*%
%TD*%
%TA.AperFunction,SMDPad,CuDef*%
%ADD16R,3.600000X3.600000*%
%TD*%
%TA.AperFunction,SMDPad,CuDef*%
%ADD17R,0.620000X1.100000*%
%TD*%
%TA.AperFunction,SMDPad,CuDef*%
%ADD18RoundRect,0.140000X-0.170000X0.140000X-0.170000X-0.140000X0.170000X-0.140000X0.170000X0.140000X0*%
%TD*%
%TA.AperFunction,ViaPad*%
%ADD19C,0.400000*%
%TD*%
%TA.AperFunction,Conductor*%
%ADD20C,0.150000*%
%TD*%
%TA.AperFunction,Conductor*%
%ADD21C,0.100000*%
%TD*%
%TA.AperFunction,Conductor*%
%ADD22C,0.127000*%
%TD*%
G04 APERTURE END LIST*
%TA.AperFunction,Conductor*%
%TO.N,/in1*%
G36*
X26214500Y-36856500D02*
G01*
X27214500Y-36856500D01*
X27214500Y-37956500D01*
X26214500Y-37956500D01*
X26214500Y-36856500D01*
G37*
%TD.AperFunction*%
%TA.AperFunction,Conductor*%
%TO.N,/in4*%
G36*
X30024500Y-36856500D02*
G01*
X31024500Y-36856500D01*
X31024500Y-37956500D01*
X30024500Y-37956500D01*
X30024500Y-36856500D01*
G37*
%TD.AperFunction*%
%TA.AperFunction,Conductor*%
%TO.N,/in2*%
G36*
X27484500Y-36856500D02*
G01*
X28484500Y-36856500D01*
X28484500Y-37956500D01*
X27484500Y-37956500D01*
X27484500Y-36856500D01*
G37*
%TD.AperFunction*%
%TA.AperFunction,Conductor*%
%TO.N,/in5*%
G36*
X31294500Y-36856500D02*
G01*
X32294500Y-36856500D01*
X32294500Y-37956500D01*
X31294500Y-37956500D01*
X31294500Y-36856500D01*
G37*
%TD.AperFunction*%
%TA.AperFunction,Conductor*%
%TO.N,GND*%
G36*
X33834500Y-36856500D02*
G01*
X34834500Y-36856500D01*
X34834500Y-37956500D01*
X33834500Y-37956500D01*
X33834500Y-36856500D01*
G37*
%TD.AperFunction*%
%TA.AperFunction,Conductor*%
%TO.N,/in3*%
G36*
X28754500Y-36856500D02*
G01*
X29754500Y-36856500D01*
X29754500Y-37956500D01*
X28754500Y-37956500D01*
X28754500Y-36856500D01*
G37*
%TD.AperFunction*%
%TA.AperFunction,Conductor*%
%TO.N,/in6*%
G36*
X32564500Y-36856500D02*
G01*
X33564500Y-36856500D01*
X33564500Y-37956500D01*
X32564500Y-37956500D01*
X32564500Y-36856500D01*
G37*
%TD.AperFunction*%
%TA.AperFunction,Conductor*%
%TO.N,/in1*%
G36*
X24944500Y-36856500D02*
G01*
X25944500Y-36856500D01*
X25944500Y-37956500D01*
X24944500Y-37956500D01*
X24944500Y-36856500D01*
G37*
%TD.AperFunction*%
%TD*%
D10*
%TO.P,J3,1,Pin_1*%
%TO.N,/in1*%
X26714500Y-38210500D03*
%TD*%
D11*
%TO.P,C8,1*%
%TO.N,+3.3VA*%
X25469500Y-36043500D03*
%TO.P,C8,2*%
%TO.N,GND*%
X24509500Y-36043500D03*
%TD*%
%TO.P,R1,1*%
%TO.N,/RLDINV*%
X35269500Y-36000000D03*
%TO.P,R1,2*%
%TO.N,/CMOUT*%
X34309500Y-36000000D03*
%TD*%
D10*
%TO.P,J1,1,Pin_1*%
%TO.N,/CLK*%
X27984500Y-28210500D03*
%TD*%
%TO.P,J2,1,Pin_1*%
%TO.N,/in1*%
X25444500Y-38210500D03*
%TD*%
%TO.P,J9,1,Pin_1*%
%TO.N,/POCI*%
X29254500Y-28210500D03*
%TD*%
%TO.P,J15,1,Pin_1*%
%TO.N,/in6*%
X33064500Y-38210500D03*
%TD*%
%TO.P,J7,1,Pin_1*%
%TO.N,/extRef*%
X34334500Y-28210500D03*
%TD*%
D12*
%TO.P,C4,1*%
%TO.N,+3.3V*%
X26720000Y-32010500D03*
%TO.P,C4,2*%
%TO.N,XTAL1*%
X27680000Y-32010500D03*
%TD*%
D13*
%TO.P,C1,1*%
%TO.N,+3.3VA*%
X27589500Y-35640500D03*
%TO.P,C1,2*%
%TO.N,GND*%
X27589500Y-34680500D03*
%TD*%
D14*
%TO.P,U1,1,IN1*%
%TO.N,/in1*%
X29500000Y-35900000D03*
%TO.P,U1,2,IN2*%
%TO.N,/in2*%
X29999999Y-35900000D03*
%TO.P,U1,3,IN3*%
%TO.N,/in3*%
X30500001Y-35900000D03*
%TO.P,U1,4,IN4*%
%TO.N,/in4*%
X31000000Y-35900000D03*
%TO.P,U1,5,IN5*%
%TO.N,/in5*%
X31499999Y-35900000D03*
%TO.P,U1,6,IN6*%
%TO.N,/in6*%
X32000001Y-35900000D03*
%TO.P,U1,7,WCT*%
%TO.N,unconnected-(U1-WCT-Pad7)*%
X32500000Y-35900000D03*
D15*
%TO.P,U1,8,CMOUT*%
%TO.N,/CMOUT*%
X33400000Y-35000000D03*
%TO.P,U1,9,RLDOUT*%
%TO.N,/RLDOUT*%
X33400000Y-34500001D03*
%TO.P,U1,10,RLDINV*%
%TO.N,/RLDINV*%
X33400000Y-33999999D03*
%TO.P,U1,11,RLDIN*%
%TO.N,/RLDREF*%
X33400000Y-33500000D03*
%TO.P,U1,12,RLDREF*%
X33400000Y-33000001D03*
%TO.P,U1,13,SYNCB*%
%TO.N,unconnected-(U1-SYNCB-Pad13)*%
X33400000Y-32499999D03*
%TO.P,U1,14,VSSIO*%
%TO.N,GND*%
X33400000Y-32000000D03*
D14*
%TO.P,U1,15,ALARMB*%
%TO.N,unconnected-(U1-ALARMB-Pad15)*%
X32500000Y-31100000D03*
%TO.P,U1,16,CSB*%
%TO.N,/CSB*%
X32000001Y-31100000D03*
%TO.P,U1,17,SCLK*%
%TO.N,/SCLK*%
X31499999Y-31100000D03*
%TO.P,U1,18,SDI*%
%TO.N,/PICO*%
X31000000Y-31100000D03*
%TO.P,U1,19,SDO*%
%TO.N,/POCI*%
X30500001Y-31100000D03*
%TO.P,U1,20,DRDYB*%
%TO.N,unconnected-(U1-DRDYB-Pad20)*%
X29999999Y-31100000D03*
%TO.P,U1,21,CLK*%
%TO.N,/CLK*%
X29500000Y-31100000D03*
D15*
%TO.P,U1,22,VDDIO*%
%TO.N,+3.3V*%
X28600000Y-32000000D03*
%TO.P,U1,23,XTAL1*%
%TO.N,XTAL1*%
X28600000Y-32499999D03*
%TO.P,U1,24,XTAL2*%
%TO.N,XTAL2*%
X28600000Y-33000001D03*
%TO.P,U1,25,RSTB*%
%TO.N,unconnected-(U1-RSTB-Pad25)*%
X28600000Y-33500000D03*
%TO.P,U1,26,CVREF*%
%TO.N,/cvref*%
X28600000Y-33999999D03*
%TO.P,U1,27,VSS*%
%TO.N,GND*%
X28600000Y-34500001D03*
%TO.P,U1,28,VDD*%
%TO.N,+3.3VA*%
X28600000Y-35000000D03*
D16*
%TO.P,U1,29,EPAD*%
%TO.N,GND*%
X31000000Y-33500000D03*
%TD*%
D12*
%TO.P,C7,1*%
%TO.N,/RLDREF*%
X34509500Y-33010500D03*
%TO.P,C7,2*%
%TO.N,GND*%
X35469500Y-33010500D03*
%TD*%
%TO.P,C9,1*%
%TO.N,+3.3V*%
X23509500Y-30710500D03*
%TO.P,C9,2*%
%TO.N,GND*%
X24469500Y-30710500D03*
%TD*%
D11*
%TO.P,C5,1*%
%TO.N,+3.3V*%
X27680000Y-31010500D03*
%TO.P,C5,2*%
%TO.N,GND*%
X26720000Y-31010500D03*
%TD*%
D17*
%TO.P,U2,1,VIN*%
%TO.N,+3.3V*%
X25409792Y-32200000D03*
%TO.P,U2,2,GND*%
%TO.N,GND*%
X24459792Y-32200000D03*
%TO.P,U2,3,EN*%
%TO.N,+3.3V*%
X23509792Y-32200000D03*
%TO.P,U2,4,NC*%
%TO.N,unconnected-(U2-NC-Pad4)*%
X23509792Y-34800000D03*
%TO.P,U2,5,VOUT*%
%TO.N,+3.3VA*%
X25409792Y-34800000D03*
%TD*%
D10*
%TO.P,J5,1,Pin_1*%
%TO.N,/in3*%
X29254500Y-38210500D03*
%TD*%
%TO.P,J4,1,Pin_1*%
%TO.N,/in2*%
X27984500Y-38210500D03*
%TD*%
%TO.P,J10,1,Pin_1*%
%TO.N,/PICO*%
X30524500Y-28210500D03*
%TD*%
D18*
%TO.P,C2,1*%
%TO.N,/cvref*%
X26489500Y-34730500D03*
%TO.P,C2,2*%
%TO.N,GND*%
X26489500Y-35690500D03*
%TD*%
D10*
%TO.P,J14,1,Pin_1*%
%TO.N,GND*%
X26714500Y-28210500D03*
%TD*%
D12*
%TO.P,C3,1*%
%TO.N,+3.3V*%
X26740000Y-33510500D03*
%TO.P,C3,2*%
%TO.N,XTAL2*%
X27700000Y-33510500D03*
%TD*%
D10*
%TO.P,J8,1,Pin_1*%
%TO.N,/in5*%
X31794500Y-38210500D03*
%TD*%
%TO.P,J12,1,Pin_1*%
%TO.N,/CSB*%
X33064500Y-28210500D03*
%TD*%
D18*
%TO.P,C6,1*%
%TO.N,/RLDINV*%
X34500000Y-34020000D03*
%TO.P,C6,2*%
%TO.N,/RLDOUT*%
X34500000Y-34980000D03*
%TD*%
%TO.P,R2,1*%
%TO.N,/RLDINV*%
X35500000Y-34020000D03*
%TO.P,R2,2*%
%TO.N,/RLDOUT*%
X35500000Y-34980000D03*
%TD*%
D10*
%TO.P,J16,1,Pin_1*%
%TO.N,GND*%
X34334500Y-38210500D03*
%TD*%
%TO.P,J6,1,Pin_1*%
%TO.N,/in4*%
X30524500Y-38210500D03*
%TD*%
%TO.P,J11,1,Pin_1*%
%TO.N,/SCLK*%
X31794500Y-28210500D03*
%TD*%
%TO.P,J13,1,Pin_1*%
%TO.N,+3.3V*%
X25444500Y-28210500D03*
%TD*%
D19*
%TO.N,GND*%
X26489500Y-35690500D03*
X34334500Y-37194500D03*
X29923079Y-34656196D03*
X26710582Y-30750760D03*
X24914500Y-30710500D03*
X30927701Y-33675782D03*
X29910975Y-32901134D03*
X27589500Y-34680500D03*
X32150192Y-34716715D03*
X23414500Y-37100500D03*
X36184500Y-33700500D03*
X27014500Y-35220500D03*
X24144372Y-36058131D03*
%TO.N,XTAL2*%
X27639500Y-32860500D03*
%TO.N,XTAL1*%
X28389500Y-31285500D03*
%TO.N,/in1*%
X25444500Y-37194500D03*
X26714500Y-37194500D03*
%TO.N,/in2*%
X27984500Y-37194500D03*
%TO.N,/in3*%
X29254500Y-37194500D03*
%TO.N,/in4*%
X30524500Y-37194500D03*
%TO.N,/in5*%
X31794500Y-37194500D03*
%TO.N,/in6*%
X33064500Y-37194500D03*
%TD*%
D20*
%TO.N,/cvref*%
X26509501Y-34730500D02*
X27154501Y-34085500D01*
X27154501Y-34085500D02*
X28514499Y-34085500D01*
X26489500Y-34730500D02*
X26509501Y-34730500D01*
X28514499Y-34085500D02*
X28600000Y-33999999D01*
%TO.N,GND*%
X26670322Y-30710500D02*
X26710582Y-30750760D01*
X26710582Y-30750760D02*
X26710582Y-31001082D01*
X26714500Y-28710500D02*
X26714500Y-31005000D01*
X26710582Y-31001082D02*
X26720000Y-31010500D01*
X27014500Y-35220500D02*
X26544500Y-35690500D01*
X27759500Y-34510500D02*
X28589501Y-34510500D01*
D21*
X35469500Y-33010500D02*
X35494500Y-33010500D01*
D20*
X24469500Y-30710500D02*
X26670322Y-30710500D01*
X27589500Y-34680500D02*
X27759500Y-34510500D01*
D21*
X35494500Y-33010500D02*
X36184500Y-33700500D01*
D20*
X24389500Y-30790500D02*
X24469500Y-30710500D01*
X26544500Y-35690500D02*
X26489500Y-35690500D01*
X24389500Y-32225500D02*
X24389500Y-30790500D01*
X32500000Y-32000000D02*
X31000000Y-33500000D01*
X33400000Y-32000000D02*
X32500000Y-32000000D01*
X28589501Y-34510500D02*
X28600000Y-34500001D01*
X27049500Y-35220500D02*
X27014500Y-35220500D01*
X27057000Y-35263000D02*
X27014500Y-35220500D01*
X27589500Y-34680500D02*
X27049500Y-35220500D01*
X26714500Y-31005000D02*
X26720000Y-31010500D01*
%TO.N,+3.3V*%
X27680000Y-31050500D02*
X26720000Y-32010500D01*
X27980000Y-30710500D02*
X28490541Y-30710500D01*
X23439500Y-32225500D02*
X23439500Y-32900499D01*
X27680000Y-31010500D02*
X27980000Y-30710500D01*
X23749501Y-33210500D02*
X25029499Y-33210500D01*
X25339500Y-32225500D02*
X26505000Y-32225500D01*
X23439500Y-32900499D02*
X23749501Y-33210500D01*
X26740000Y-32030500D02*
X26720000Y-32010500D01*
X28889500Y-31109459D02*
X28889500Y-31710500D01*
X25444500Y-28775500D02*
X23509500Y-30710500D01*
X23439500Y-30780500D02*
X23509500Y-30710500D01*
X28889500Y-31710500D02*
X28600000Y-32000000D01*
X27680000Y-31010500D02*
X27680000Y-31050500D01*
X26505000Y-32225500D02*
X26720000Y-32010500D01*
X23439500Y-32225500D02*
X23439500Y-30780500D01*
X25339500Y-32900499D02*
X25339500Y-32225500D01*
X25029499Y-33210500D02*
X25339500Y-32900499D01*
X28490541Y-30710500D02*
X28889500Y-31109459D01*
X25444500Y-28775500D02*
X25444500Y-28210500D01*
X26740000Y-33610500D02*
X26740000Y-32030500D01*
%TO.N,XTAL2*%
X27639500Y-32860500D02*
X27639500Y-33550000D01*
X27700000Y-33610500D02*
X28310499Y-33000001D01*
X27639500Y-33550000D02*
X27700000Y-33610500D01*
X28310499Y-33000001D02*
X28600000Y-33000001D01*
%TO.N,XTAL1*%
X28600000Y-32499999D02*
X28169499Y-32499999D01*
X28389500Y-31285500D02*
X28389500Y-31301000D01*
X28389500Y-31301000D02*
X27680000Y-32010500D01*
X28169499Y-32499999D02*
X27680000Y-32010500D01*
%TO.N,/RLDINV*%
X35975000Y-34495000D02*
X35975000Y-35294500D01*
X35975000Y-35294500D02*
X35269500Y-36000000D01*
X35500000Y-34020000D02*
X35975000Y-34495000D01*
X33420001Y-34020000D02*
X33400000Y-33999999D01*
X34500000Y-34020000D02*
X33420001Y-34020000D01*
X35500000Y-34020000D02*
X34500000Y-34020000D01*
%TO.N,/RLDOUT*%
X35500000Y-34980000D02*
X34500000Y-34980000D01*
X34020001Y-34500001D02*
X34500000Y-34980000D01*
X33400000Y-34500001D02*
X34020001Y-34500001D01*
%TO.N,/RLDREF*%
X34499001Y-33000001D02*
X34509500Y-33010500D01*
X33400000Y-33500000D02*
X33400000Y-33000001D01*
X33400000Y-33000001D02*
X34499001Y-33000001D01*
%TO.N,/in1*%
X26694500Y-38125500D02*
X26714500Y-38125500D01*
X29500000Y-35900000D02*
X28200000Y-35900000D01*
X26694500Y-37174500D02*
X26714500Y-37194500D01*
X28200000Y-35900000D02*
X27139500Y-36960500D01*
X25963500Y-36960500D02*
X25729500Y-37194500D01*
X26714500Y-37194500D02*
X26694500Y-37214500D01*
X26694500Y-36960500D02*
X25963500Y-36960500D01*
X26694500Y-36960500D02*
X26694500Y-37174500D01*
X27139500Y-36960500D02*
X26694500Y-36960500D01*
X25444500Y-37479500D02*
X25444500Y-38210500D01*
X26694500Y-37214500D02*
X26694500Y-38125500D01*
X25729500Y-37194500D02*
X25444500Y-37194500D01*
%TO.N,/in2*%
X28400000Y-36400000D02*
X27984500Y-36815500D01*
X29999999Y-36400001D02*
X29999998Y-36400000D01*
X27984500Y-37194500D02*
X27984500Y-38125500D01*
X29999998Y-36400000D02*
X28400000Y-36400000D01*
X29999999Y-35900000D02*
X29999999Y-36400001D01*
X27984500Y-36815500D02*
X27984500Y-37194500D01*
%TO.N,/in3*%
X29254500Y-37194500D02*
X29254500Y-38210500D01*
X30099409Y-36640000D02*
X29560000Y-36640000D01*
X30500001Y-35900000D02*
X30500001Y-36239408D01*
X29560000Y-36640000D02*
X29254500Y-36945500D01*
X29254500Y-36945500D02*
X29254500Y-37194500D01*
X30500001Y-36239408D02*
X30099409Y-36640000D01*
%TO.N,/in4*%
X30500001Y-38101000D02*
X30524500Y-38125499D01*
X30600000Y-36700000D02*
X30600000Y-37119000D01*
X30600000Y-38135000D02*
X30524500Y-38210500D01*
X30600000Y-37270000D02*
X30600000Y-38135000D01*
X31000000Y-35900000D02*
X31000000Y-36300000D01*
X31000000Y-36300000D02*
X30600000Y-36700000D01*
X30524500Y-37194500D02*
X30600000Y-37270000D01*
X30600000Y-37119000D02*
X30524500Y-37194500D01*
%TO.N,/in5*%
X31794500Y-36594500D02*
X31794500Y-37194500D01*
X31794500Y-37194500D02*
X31794500Y-38210500D01*
X31709499Y-38125499D02*
X31794500Y-38125499D01*
X31499999Y-36299999D02*
X31794500Y-36594500D01*
X31499999Y-35900000D02*
X31499999Y-36299999D01*
%TO.N,/in6*%
X32000001Y-36155001D02*
X33064500Y-37219500D01*
X32000001Y-35900000D02*
X32000001Y-36155001D01*
X33064500Y-37219500D02*
X33064500Y-38210500D01*
%TO.N,/CMOUT*%
X33400000Y-35000000D02*
X33400000Y-35090500D01*
X33400000Y-35090500D02*
X34309500Y-36000000D01*
D22*
%TO.N,/CLK*%
X27984500Y-29240500D02*
X27984500Y-28210500D01*
X29500000Y-30756000D02*
X27984500Y-29240500D01*
X29500000Y-31100000D02*
X29500000Y-30756000D01*
D20*
%TO.N,+3.3VA*%
X27959500Y-35640500D02*
X27589500Y-35640500D01*
X25469500Y-36090500D02*
X25939500Y-36560500D01*
X25339500Y-34595500D02*
X25339500Y-35913500D01*
X25939500Y-36560500D02*
X26669500Y-36560500D01*
X26669500Y-36560500D02*
X27589500Y-35640500D01*
X25339500Y-35913500D02*
X25469500Y-36043500D01*
X25469500Y-36043500D02*
X25469500Y-36090500D01*
X28600000Y-35000000D02*
X27959500Y-35640500D01*
%TO.N,/POCI*%
X29254500Y-29275500D02*
X30500001Y-30521001D01*
X29254500Y-28210500D02*
X29254500Y-29275500D01*
X30500001Y-30521001D02*
X30500001Y-31100000D01*
%TO.N,/PICO*%
X30989500Y-30360500D02*
X30989500Y-31089500D01*
X30989500Y-31089500D02*
X31000000Y-31100000D01*
X30524500Y-29895500D02*
X30989500Y-30360500D01*
X30524500Y-28210500D02*
X30524500Y-29895500D01*
%TO.N,/SCLK*%
X31539500Y-31060499D02*
X31499999Y-31100000D01*
X31794500Y-30055500D02*
X31539500Y-30310500D01*
X31539500Y-30310500D02*
X31539500Y-31060499D01*
X31794500Y-28710500D02*
X31794500Y-30055500D01*
%TO.N,/CSB*%
X33064500Y-28210500D02*
X33064500Y-29335500D01*
X32000001Y-30399999D02*
X32000001Y-31100000D01*
X33064500Y-29335500D02*
X32000001Y-30399999D01*
%TD*%
%TA.AperFunction,Conductor*%
%TO.N,GND*%
G36*
X24505051Y-27240685D02*
G01*
X24550806Y-27293489D01*
X24560750Y-27362647D01*
X24537279Y-27419311D01*
X24500704Y-27468168D01*
X24500702Y-27468171D01*
X24450408Y-27603017D01*
X24444001Y-27662616D01*
X24444001Y-27662623D01*
X24444000Y-27662635D01*
X24444000Y-28758370D01*
X24444001Y-28758376D01*
X24450408Y-28817983D01*
X24459975Y-28843632D01*
X24464959Y-28913323D01*
X24431474Y-28974645D01*
X23542439Y-29863681D01*
X23481116Y-29897166D01*
X23454758Y-29900000D01*
X23304802Y-29900000D01*
X23268508Y-29902856D01*
X23268502Y-29902857D01*
X23113109Y-29948004D01*
X23113106Y-29948005D01*
X22973815Y-30030381D01*
X22973807Y-30030387D01*
X22859387Y-30144807D01*
X22859381Y-30144815D01*
X22777005Y-30284106D01*
X22777004Y-30284109D01*
X22731857Y-30439502D01*
X22731856Y-30439508D01*
X22729000Y-30475802D01*
X22729000Y-30945197D01*
X22731856Y-30981491D01*
X22731857Y-30981497D01*
X22777004Y-31136890D01*
X22777004Y-31136891D01*
X22777005Y-31136893D01*
X22777006Y-31136895D01*
X22803719Y-31182064D01*
X22815083Y-31201280D01*
X22832265Y-31269004D01*
X22810104Y-31335266D01*
X22807617Y-31338710D01*
X22755998Y-31407664D01*
X22755994Y-31407671D01*
X22705700Y-31542517D01*
X22699293Y-31602116D01*
X22699293Y-31602123D01*
X22699292Y-31602135D01*
X22699292Y-32797870D01*
X22699293Y-32797876D01*
X22705700Y-32857483D01*
X22755994Y-32992328D01*
X22755998Y-32992335D01*
X22842243Y-33107542D01*
X22842246Y-33107546D01*
X22913929Y-33161208D01*
X22947003Y-33198472D01*
X22978986Y-33253866D01*
X23262940Y-33537819D01*
X23296425Y-33599142D01*
X23291441Y-33668833D01*
X23249570Y-33724767D01*
X23184105Y-33749184D01*
X23175264Y-33749500D01*
X23151924Y-33749500D01*
X23151915Y-33749501D01*
X23092308Y-33755908D01*
X22957463Y-33806202D01*
X22957456Y-33806206D01*
X22842247Y-33892452D01*
X22842244Y-33892455D01*
X22755998Y-34007664D01*
X22755994Y-34007671D01*
X22705700Y-34142517D01*
X22699293Y-34202116D01*
X22699292Y-34202128D01*
X22699292Y-35397870D01*
X22699293Y-35397876D01*
X22705700Y-35457483D01*
X22755994Y-35592328D01*
X22755998Y-35592335D01*
X22842244Y-35707544D01*
X22842247Y-35707547D01*
X22957456Y-35793793D01*
X22957463Y-35793797D01*
X22997694Y-35808802D01*
X23092309Y-35844091D01*
X23151919Y-35850500D01*
X23867664Y-35850499D01*
X23927275Y-35844091D01*
X24041955Y-35801317D01*
X24085288Y-35793500D01*
X24259500Y-35793500D01*
X24259500Y-35625663D01*
X24262336Y-35616004D01*
X24267318Y-35582330D01*
X24313883Y-35457483D01*
X24320292Y-35397873D01*
X24320291Y-34202128D01*
X24313883Y-34142517D01*
X24267110Y-34017113D01*
X24263589Y-34007671D01*
X24263585Y-34007664D01*
X24246103Y-33984311D01*
X24241395Y-33971690D01*
X24232575Y-33961511D01*
X24229423Y-33939594D01*
X24221685Y-33918847D01*
X24224547Y-33905685D01*
X24222631Y-33892353D01*
X24231829Y-33872211D01*
X24236536Y-33850574D01*
X24246060Y-33841049D01*
X24251656Y-33828797D01*
X24270283Y-33816826D01*
X24285941Y-33801168D01*
X24300384Y-33797481D01*
X24310434Y-33791023D01*
X24345369Y-33786000D01*
X24574215Y-33786000D01*
X24641254Y-33805685D01*
X24687009Y-33858489D01*
X24696953Y-33927647D01*
X24673481Y-33984311D01*
X24655998Y-34007664D01*
X24655994Y-34007671D01*
X24605700Y-34142517D01*
X24599293Y-34202116D01*
X24599292Y-34202128D01*
X24599292Y-35397870D01*
X24599293Y-35397876D01*
X24605700Y-35457483D01*
X24655994Y-35592328D01*
X24655996Y-35592331D01*
X24682476Y-35627704D01*
X24682660Y-35628198D01*
X24683080Y-35628518D01*
X24694850Y-35660881D01*
X24706893Y-35693169D01*
X24706825Y-35693806D01*
X24706961Y-35694180D01*
X24706630Y-35695639D01*
X24702286Y-35736608D01*
X24691858Y-35772503D01*
X24691856Y-35772513D01*
X24689000Y-35808802D01*
X24689000Y-35919500D01*
X24669315Y-35986539D01*
X24616511Y-36032294D01*
X24565000Y-36043500D01*
X24509500Y-36043500D01*
X24509500Y-36169500D01*
X24489815Y-36236539D01*
X24437011Y-36282294D01*
X24385500Y-36293500D01*
X23730710Y-36293500D01*
X23732354Y-36314410D01*
X23777468Y-36469695D01*
X23859778Y-36608874D01*
X23859785Y-36608883D01*
X23974116Y-36723214D01*
X23974125Y-36723221D01*
X24113303Y-36805530D01*
X24268590Y-36850645D01*
X24304861Y-36853499D01*
X24319993Y-36853499D01*
X24387034Y-36873180D01*
X24432791Y-36925981D01*
X24444000Y-36977499D01*
X24444000Y-38075999D01*
X24424315Y-38143038D01*
X24371511Y-38188793D01*
X24320000Y-38199999D01*
X23145590Y-38199999D01*
X23133437Y-38199402D01*
X23007387Y-38186988D01*
X22983544Y-38182245D01*
X22868189Y-38147252D01*
X22845732Y-38137950D01*
X22739428Y-38081129D01*
X22719216Y-38067624D01*
X22626035Y-37991152D01*
X22608847Y-37973964D01*
X22532375Y-37880783D01*
X22518870Y-37860571D01*
X22462049Y-37754267D01*
X22452747Y-37731810D01*
X22417754Y-37616455D01*
X22413012Y-37592618D01*
X22400597Y-37466560D01*
X22400000Y-37454407D01*
X22400000Y-27966592D01*
X22400597Y-27954439D01*
X22407377Y-27885597D01*
X22413012Y-27828380D01*
X22417751Y-27804554D01*
X22452748Y-27689183D01*
X22462046Y-27666738D01*
X22518874Y-27560421D01*
X22532370Y-27540221D01*
X22608850Y-27447030D01*
X22626029Y-27429851D01*
X22719221Y-27353370D01*
X22739421Y-27339873D01*
X22845738Y-27283046D01*
X22868182Y-27273748D01*
X22983553Y-27238751D01*
X23007378Y-27234012D01*
X23116082Y-27223305D01*
X23133419Y-27221598D01*
X23145573Y-27221001D01*
X23194266Y-27221001D01*
X23194275Y-27221000D01*
X24438012Y-27221000D01*
X24505051Y-27240685D01*
G37*
%TD.AperFunction*%
%TA.AperFunction,Conductor*%
G36*
X36645561Y-27221597D02*
G01*
X36655133Y-27222539D01*
X36771618Y-27234012D01*
X36795455Y-27238754D01*
X36910810Y-27273747D01*
X36933264Y-27283048D01*
X36986419Y-27311459D01*
X37039571Y-27339870D01*
X37059783Y-27353375D01*
X37152964Y-27429847D01*
X37170152Y-27447035D01*
X37246624Y-27540216D01*
X37260128Y-27560427D01*
X37260129Y-27560428D01*
X37316950Y-27666732D01*
X37326252Y-27689189D01*
X37361245Y-27804544D01*
X37365988Y-27828386D01*
X37378403Y-27954438D01*
X37379000Y-27966592D01*
X37379000Y-37454406D01*
X37378403Y-37466560D01*
X37365988Y-37592612D01*
X37361246Y-37616453D01*
X37326253Y-37731809D01*
X37316950Y-37754267D01*
X37260129Y-37860572D01*
X37246624Y-37880784D01*
X37170153Y-37973964D01*
X37152965Y-37991152D01*
X37059784Y-38067624D01*
X37039572Y-38081129D01*
X36933268Y-38137950D01*
X36910810Y-38147253D01*
X36795454Y-38182246D01*
X36771613Y-38186988D01*
X36645572Y-38199402D01*
X36633418Y-38199999D01*
X35458500Y-38199999D01*
X35391461Y-38180314D01*
X35345706Y-38127510D01*
X35334500Y-38075999D01*
X35334500Y-37662672D01*
X35334499Y-37662655D01*
X35328098Y-37603127D01*
X35328096Y-37603120D01*
X35277854Y-37468413D01*
X35277850Y-37468406D01*
X35191690Y-37353312D01*
X35191687Y-37353309D01*
X35076593Y-37267149D01*
X35076586Y-37267145D01*
X34941879Y-37216903D01*
X34941872Y-37216901D01*
X34882344Y-37210500D01*
X34584500Y-37210500D01*
X34584500Y-38000882D01*
X34534054Y-37950436D01*
X34459945Y-37907649D01*
X34377287Y-37885500D01*
X34291713Y-37885500D01*
X34209055Y-37907649D01*
X34134946Y-37950436D01*
X34084500Y-38000882D01*
X34084500Y-37197099D01*
X34070023Y-37174573D01*
X34069131Y-37168372D01*
X34067834Y-37165996D01*
X34065000Y-37139638D01*
X34065000Y-36934500D01*
X34084685Y-36867461D01*
X34137489Y-36821706D01*
X34189000Y-36810500D01*
X34514182Y-36810500D01*
X34514190Y-36810500D01*
X34550493Y-36807643D01*
X34550495Y-36807642D01*
X34550497Y-36807642D01*
X34609127Y-36790608D01*
X34705895Y-36762494D01*
X34726379Y-36750379D01*
X34794101Y-36733196D01*
X34852619Y-36750379D01*
X34873105Y-36762494D01*
X34873107Y-36762494D01*
X34873108Y-36762495D01*
X35028502Y-36807642D01*
X35028505Y-36807642D01*
X35028507Y-36807643D01*
X35064810Y-36810500D01*
X35064818Y-36810500D01*
X35474182Y-36810500D01*
X35474190Y-36810500D01*
X35510493Y-36807643D01*
X35510495Y-36807642D01*
X35510497Y-36807642D01*
X35569127Y-36790608D01*
X35665895Y-36762494D01*
X35805187Y-36680117D01*
X35919617Y-36565687D01*
X36001994Y-36426395D01*
X36047143Y-36270993D01*
X36050000Y-36234690D01*
X36050000Y-36084741D01*
X36069685Y-36017703D01*
X36086319Y-35997061D01*
X36247853Y-35835527D01*
X36435515Y-35647865D01*
X36511281Y-35516635D01*
X36550500Y-35370266D01*
X36550500Y-35218733D01*
X36550500Y-34419234D01*
X36549739Y-34416395D01*
X36511281Y-34272865D01*
X36470440Y-34202127D01*
X36435515Y-34141635D01*
X36342482Y-34048602D01*
X36338597Y-34043862D01*
X36327256Y-34017113D01*
X36313334Y-33991616D01*
X36312276Y-33981778D01*
X36311325Y-33979535D01*
X36311761Y-33976993D01*
X36310500Y-33965258D01*
X36310500Y-33815317D01*
X36310499Y-33815302D01*
X36310341Y-33813296D01*
X36307643Y-33779007D01*
X36300932Y-33755909D01*
X36262495Y-33623609D01*
X36262494Y-33623606D01*
X36262494Y-33623605D01*
X36212515Y-33539095D01*
X36195332Y-33471371D01*
X36200171Y-33441379D01*
X36246644Y-33281418D01*
X36246645Y-33281412D01*
X36248290Y-33260500D01*
X35851088Y-33260500D01*
X35816493Y-33255576D01*
X35797300Y-33250000D01*
X35770994Y-33242357D01*
X35770991Y-33242356D01*
X35734697Y-33239500D01*
X35734690Y-33239500D01*
X35593500Y-33239500D01*
X35526461Y-33219815D01*
X35480706Y-33167011D01*
X35469500Y-33115500D01*
X35469500Y-33010500D01*
X35414000Y-33010500D01*
X35346961Y-32990815D01*
X35301206Y-32938011D01*
X35290000Y-32886500D01*
X35290000Y-32775817D01*
X35289999Y-32775802D01*
X35287143Y-32739508D01*
X35287142Y-32739502D01*
X35241995Y-32584108D01*
X35241992Y-32584100D01*
X35236766Y-32575263D01*
X35219500Y-32512145D01*
X35219500Y-32205994D01*
X35719500Y-32205994D01*
X35719500Y-32760500D01*
X36248290Y-32760500D01*
X36246645Y-32739589D01*
X36201531Y-32584304D01*
X36119221Y-32445125D01*
X36119214Y-32445116D01*
X36004883Y-32330785D01*
X36004874Y-32330778D01*
X35865693Y-32248467D01*
X35865690Y-32248465D01*
X35719501Y-32205993D01*
X35719500Y-32205994D01*
X35219500Y-32205994D01*
X35219498Y-32205993D01*
X35073309Y-32248465D01*
X35073306Y-32248467D01*
X35053108Y-32260412D01*
X34985384Y-32277592D01*
X34926870Y-32260410D01*
X34905897Y-32248007D01*
X34905890Y-32248004D01*
X34750497Y-32202857D01*
X34750491Y-32202856D01*
X34714197Y-32200000D01*
X34714190Y-32200000D01*
X34324000Y-32200000D01*
X34259778Y-32182073D01*
X34135904Y-32107073D01*
X34134740Y-32105800D01*
X34133087Y-32105315D01*
X34100878Y-32075336D01*
X34099380Y-32073336D01*
X34095469Y-32062858D01*
X34088751Y-32055513D01*
X34085382Y-32035836D01*
X34074946Y-32007879D01*
X34078105Y-31993336D01*
X34076960Y-31986646D01*
X34082281Y-31974115D01*
X34089780Y-31939602D01*
X34102229Y-31927146D01*
X34104272Y-31922336D01*
X34112934Y-31916435D01*
X34139173Y-31890183D01*
X34158852Y-31885157D01*
X34162018Y-31883001D01*
X34167915Y-31882843D01*
X34198628Y-31875000D01*
X34200000Y-31875000D01*
X34200000Y-31827172D01*
X34199999Y-31827155D01*
X34193598Y-31767627D01*
X34193596Y-31767620D01*
X34143354Y-31632913D01*
X34143350Y-31632906D01*
X34057190Y-31517812D01*
X34057187Y-31517809D01*
X33942093Y-31431649D01*
X33942086Y-31431645D01*
X33807379Y-31381403D01*
X33807372Y-31381401D01*
X33747844Y-31375000D01*
X33525000Y-31375000D01*
X33525000Y-31750499D01*
X33522449Y-31759184D01*
X33523738Y-31768146D01*
X33512759Y-31792186D01*
X33505315Y-31817538D01*
X33498474Y-31823465D01*
X33494713Y-31831702D01*
X33472478Y-31845991D01*
X33452511Y-31863293D01*
X33441996Y-31865580D01*
X33435935Y-31869476D01*
X33401000Y-31874499D01*
X33399000Y-31874499D01*
X33331961Y-31854814D01*
X33286206Y-31802010D01*
X33275000Y-31750499D01*
X33275000Y-31375000D01*
X33249499Y-31375000D01*
X33182460Y-31355315D01*
X33136705Y-31302511D01*
X33125499Y-31251003D01*
X33125499Y-30752128D01*
X33119091Y-30692517D01*
X33090455Y-30615741D01*
X33068797Y-30557671D01*
X33068793Y-30557664D01*
X32982547Y-30442455D01*
X32982544Y-30442452D01*
X32976367Y-30437828D01*
X32934496Y-30381894D01*
X32929512Y-30312203D01*
X32962995Y-30250883D01*
X33525015Y-29688865D01*
X33600781Y-29557635D01*
X33640000Y-29411266D01*
X33640000Y-29333281D01*
X33659685Y-29266242D01*
X33712489Y-29220487D01*
X33777256Y-29209992D01*
X33786627Y-29211000D01*
X34882372Y-29210999D01*
X34941983Y-29204591D01*
X35076831Y-29154296D01*
X35192046Y-29068046D01*
X35278296Y-28952831D01*
X35328591Y-28817983D01*
X35335000Y-28758373D01*
X35334999Y-27662628D01*
X35328591Y-27603017D01*
X35312706Y-27560428D01*
X35278297Y-27468171D01*
X35278295Y-27468168D01*
X35241721Y-27419311D01*
X35217304Y-27353847D01*
X35232156Y-27285574D01*
X35281561Y-27236168D01*
X35340988Y-27221000D01*
X36633408Y-27221000D01*
X36645561Y-27221597D01*
G37*
%TD.AperFunction*%
%TA.AperFunction,Conductor*%
G36*
X26964500Y-29210500D02*
G01*
X27262328Y-29210500D01*
X27262342Y-29210499D01*
X27284367Y-29208131D01*
X27353127Y-29220535D01*
X27404265Y-29268145D01*
X27417742Y-29307078D01*
X27418397Y-29306903D01*
X27420500Y-29314751D01*
X27420500Y-29314753D01*
X27446360Y-29411266D01*
X27457449Y-29452653D01*
X27458936Y-29458200D01*
X27533184Y-29586800D01*
X27533189Y-29586806D01*
X27645261Y-29698878D01*
X27645267Y-29698883D01*
X27892079Y-29945695D01*
X27892909Y-29947215D01*
X27894408Y-29948087D01*
X27909593Y-29977769D01*
X27925564Y-30007018D01*
X27925440Y-30008746D01*
X27926230Y-30010290D01*
X27922957Y-30043462D01*
X27920580Y-30076710D01*
X27919541Y-30078097D01*
X27919371Y-30079822D01*
X27898680Y-30105963D01*
X27878708Y-30132643D01*
X27876741Y-30133682D01*
X27876009Y-30134608D01*
X27866958Y-30138854D01*
X27844588Y-30150682D01*
X27840572Y-30152057D01*
X27757865Y-30174219D01*
X27731561Y-30189405D01*
X27720176Y-30193306D01*
X27701938Y-30194117D01*
X27679986Y-30200000D01*
X27475302Y-30200000D01*
X27439008Y-30202856D01*
X27439002Y-30202857D01*
X27283609Y-30248004D01*
X27283604Y-30248006D01*
X27262628Y-30260411D01*
X27194903Y-30277592D01*
X27136389Y-30260411D01*
X27116191Y-30248466D01*
X27116190Y-30248465D01*
X26970001Y-30205993D01*
X26970000Y-30205994D01*
X26970000Y-30512145D01*
X26952734Y-30575263D01*
X26947507Y-30584100D01*
X26947504Y-30584108D01*
X26902357Y-30739502D01*
X26902356Y-30739508D01*
X26899500Y-30775802D01*
X26899500Y-30886500D01*
X26879815Y-30953539D01*
X26827011Y-30999294D01*
X26775500Y-31010500D01*
X26720000Y-31010500D01*
X26720000Y-31076000D01*
X26700315Y-31143039D01*
X26647511Y-31188794D01*
X26596000Y-31200000D01*
X26515302Y-31200000D01*
X26479008Y-31202856D01*
X26479002Y-31202857D01*
X26323605Y-31248005D01*
X26318303Y-31250300D01*
X26309068Y-31252212D01*
X26303989Y-31255477D01*
X26269054Y-31260500D01*
X26075925Y-31260500D01*
X26008886Y-31240815D01*
X26001614Y-31235767D01*
X25987589Y-31225268D01*
X25962123Y-31206204D01*
X25962121Y-31206203D01*
X25962120Y-31206202D01*
X25827274Y-31155908D01*
X25827275Y-31155908D01*
X25767675Y-31149501D01*
X25767673Y-31149500D01*
X25767665Y-31149500D01*
X25767657Y-31149500D01*
X25362964Y-31149500D01*
X25295925Y-31129815D01*
X25250170Y-31077011D01*
X25240226Y-31007853D01*
X25243888Y-30990905D01*
X25246644Y-30981418D01*
X25246645Y-30981412D01*
X25248290Y-30960500D01*
X24719500Y-30960500D01*
X24719500Y-31281566D01*
X24699815Y-31348605D01*
X24694767Y-31355876D01*
X24655998Y-31407665D01*
X24655994Y-31407671D01*
X24614916Y-31517809D01*
X24605701Y-31542517D01*
X24599292Y-31602127D01*
X24599292Y-32076001D01*
X24596742Y-32084686D01*
X24598031Y-32093647D01*
X24587053Y-32117683D01*
X24579609Y-32143039D01*
X24572766Y-32148967D01*
X24569006Y-32157203D01*
X24546774Y-32171489D01*
X24526805Y-32188794D01*
X24516289Y-32191081D01*
X24510228Y-32194977D01*
X24475293Y-32200000D01*
X24444292Y-32200000D01*
X24377253Y-32180315D01*
X24331498Y-32127511D01*
X24320292Y-32076000D01*
X24320291Y-31602129D01*
X24320290Y-31602123D01*
X24320289Y-31602116D01*
X24313883Y-31542517D01*
X24300816Y-31507483D01*
X24263589Y-31407671D01*
X24263585Y-31407664D01*
X24234525Y-31368844D01*
X24226787Y-31348098D01*
X24214815Y-31329469D01*
X24211663Y-31307550D01*
X24210108Y-31303380D01*
X24209792Y-31294534D01*
X24209792Y-31225268D01*
X24227061Y-31162146D01*
X24241992Y-31136898D01*
X24241994Y-31136895D01*
X24287143Y-30981493D01*
X24290000Y-30945190D01*
X24290000Y-30834500D01*
X24309685Y-30767461D01*
X24317720Y-30760499D01*
X25941209Y-30760499D01*
X25941210Y-30760500D01*
X26470000Y-30760500D01*
X26470000Y-30205994D01*
X26469998Y-30205993D01*
X26323809Y-30248465D01*
X26323806Y-30248467D01*
X26184625Y-30330778D01*
X26184616Y-30330785D01*
X26070285Y-30445116D01*
X26070278Y-30445125D01*
X25987968Y-30584304D01*
X25987966Y-30584309D01*
X25942855Y-30739581D01*
X25942854Y-30739587D01*
X25941209Y-30760499D01*
X24317720Y-30760499D01*
X24362489Y-30721706D01*
X24387676Y-30713326D01*
X24469500Y-30695550D01*
X24469500Y-30615741D01*
X24478145Y-30586298D01*
X24484669Y-30556312D01*
X24488422Y-30551297D01*
X24489185Y-30548702D01*
X24505816Y-30528062D01*
X24537062Y-30496817D01*
X24598386Y-30463333D01*
X24624742Y-30460500D01*
X25248290Y-30460500D01*
X25246645Y-30439589D01*
X25201531Y-30284304D01*
X25119221Y-30145125D01*
X25119218Y-30145121D01*
X25091669Y-30117573D01*
X25058183Y-30056250D01*
X25063167Y-29986558D01*
X25091665Y-29942213D01*
X25786560Y-29247317D01*
X25811016Y-29233963D01*
X25833727Y-29217804D01*
X25843668Y-29216134D01*
X25847883Y-29213833D01*
X25868386Y-29211137D01*
X25871305Y-29210999D01*
X25992372Y-29210999D01*
X26051983Y-29204591D01*
X26058532Y-29202148D01*
X26074742Y-29201382D01*
X26087861Y-29204569D01*
X26099272Y-29204569D01*
X26099412Y-29203269D01*
X26166655Y-29210499D01*
X26166672Y-29210500D01*
X26464500Y-29210500D01*
X26464500Y-28420118D01*
X26514946Y-28470564D01*
X26589055Y-28513351D01*
X26671713Y-28535500D01*
X26757287Y-28535500D01*
X26839945Y-28513351D01*
X26914054Y-28470564D01*
X26964500Y-28420118D01*
X26964500Y-29210500D01*
G37*
%TD.AperFunction*%
%TD*%
M02*
