M48
; DRILL file {KiCad 9.0.6-9.0.6~ubuntu24.04.1} date 2026-01-03T15:41:23+0000
; FORMAT={-:-/ absolute / inch / decimal}
; #@! TF.CreationDate,2026-01-03T15:41:23+00:00
; #@! TF.GenerationSoftware,Kicad,Pcbnew,9.0.6-9.0.6~ubuntu24.04.1
; #@! TF.FileFunction,Plated,1,4,PTH
FMAT,2
INCH
; #@! TA.AperFunction,Plated,PTH,ViaDrill
T1C0.0118
; #@! TA.AperFunction,Plated,PTH,ComponentDrill
T2C0.0256
%
G90
G05
T1
X0.9218Y-1.4606
X0.9506Y-1.4196
X0.9809Y-1.2091
X1.0018Y-1.4644
X1.0429Y-1.4051
X1.0516Y-1.2107
X1.0518Y-1.4644
X1.0636Y-1.3866
X1.0862Y-1.3654
X1.0882Y-1.2937
X1.1018Y-1.4644
X1.1177Y-1.2317
X1.1518Y-1.4644
X1.1776Y-1.2953
X1.1781Y-1.3644
X1.2018Y-1.4644
X1.2176Y-1.3258
X1.2518Y-1.4644
X1.2658Y-1.3668
X1.3018Y-1.4644
X1.3518Y-1.4644
X1.4246Y-1.3268
T2
X1.0018Y-1.1106
X1.0018Y-1.5044
X1.0518Y-1.1106
X1.0518Y-1.5044
X1.1018Y-1.1106
X1.1018Y-1.5044
X1.1518Y-1.1106
X1.1518Y-1.5044
X1.2018Y-1.1106
X1.2018Y-1.5044
X1.2518Y-1.1106
X1.2518Y-1.5044
X1.3018Y-1.1106
X1.3018Y-1.5044
X1.3518Y-1.1106
X1.3518Y-1.5044
M30
