%TF.GenerationSoftware,KiCad,Pcbnew,9.0.6-9.0.6~ubuntu24.04.1*%
%TF.CreationDate,2026-01-03T15:41:23+00:00*%
%TF.ProjectId,EMG_DAQ_ADS1293,454d475f-4441-4515-9f41-445331323933,3.3*%
%TF.SameCoordinates,Original*%
%TF.FileFunction,Legend,Bot*%
%TF.FilePolarity,Positive*%
%FSLAX46Y46*%
G04 Gerber Fmt 4.6, Leading zero omitted, Abs format (unit mm)*
G04 Created by KiCad (PCBNEW 9.0.6-9.0.6~ubuntu24.04.1) date 2026-01-03 15:41:23*
%MOMM*%
%LPD*%
G01*
G04 APERTURE LIST*
G04 Aperture macros list*
%AMFreePoly0*
4,1,23,0.499999,-0.750000,0.000000,-0.750000,0.000000,-0.745722,-0.065263,-0.745722,-0.191342,-0.711940,-0.304381,-0.646677,-0.396677,-0.554382,-0.461940,-0.441342,-0.495722,-0.315263,-0.495722,-0.250000,-0.500000,-0.250000,-0.500000,0.250000,-0.495722,0.250000,-0.495722,0.315263,-0.461940,0.441342,-0.396677,0.554382,-0.304381,0.646677,-0.191342,0.711940,-0.065263,0.745722,0.000000,0.745722,
0.000000,0.750000,0.499999,0.750000,0.499999,-0.750000,0.499999,-0.750000,$1*%
%AMFreePoly1*
4,1,23,0.000000,0.745722,0.065263,0.745722,0.191342,0.711940,0.304381,0.646677,0.396677,0.554382,0.461940,0.441342,0.495722,0.315263,0.495722,0.250000,0.500000,0.250000,0.500000,-0.250000,0.495722,-0.250000,0.495722,-0.315263,0.461940,-0.441342,0.396677,-0.554382,0.304381,-0.646677,0.191342,-0.711940,0.065263,-0.745722,0.000000,-0.745722,0.000000,-0.750000,-0.499999,-0.750000,
-0.499999,0.750000,0.000000,0.750000,0.000000,0.745722,0.000000,0.745722,$1*%
G04 Aperture macros list end*
%ADD10C,0.150000*%
%ADD11C,0.120000*%
%ADD12C,0.000000*%
%ADD13R,1.000000X1.000000*%
%ADD14FreePoly0,135.000000*%
%ADD15FreePoly1,135.000000*%
%ADD16R,4.500000X2.000000*%
G04 APERTURE END LIST*
D10*
X33907357Y-36485319D02*
X33907357Y-35485319D01*
X33907357Y-35866271D02*
X33812119Y-35818652D01*
X33812119Y-35818652D02*
X33621643Y-35818652D01*
X33621643Y-35818652D02*
X33526405Y-35866271D01*
X33526405Y-35866271D02*
X33478786Y-35913890D01*
X33478786Y-35913890D02*
X33431167Y-36009128D01*
X33431167Y-36009128D02*
X33431167Y-36294842D01*
X33431167Y-36294842D02*
X33478786Y-36390080D01*
X33478786Y-36390080D02*
X33526405Y-36437700D01*
X33526405Y-36437700D02*
X33621643Y-36485319D01*
X33621643Y-36485319D02*
X33812119Y-36485319D01*
X33812119Y-36485319D02*
X33907357Y-36437700D01*
X33097833Y-35818652D02*
X32859738Y-36485319D01*
X32621643Y-35818652D02*
X32859738Y-36485319D01*
X32859738Y-36485319D02*
X32954976Y-36723414D01*
X32954976Y-36723414D02*
X33002595Y-36771033D01*
X33002595Y-36771033D02*
X33097833Y-36818652D01*
X31526404Y-36199604D02*
X31050214Y-36199604D01*
X31621642Y-36485319D02*
X31288309Y-35485319D01*
X31288309Y-35485319D02*
X30954976Y-36485319D01*
X30621642Y-36485319D02*
X30621642Y-35818652D01*
X30621642Y-35485319D02*
X30669261Y-35532938D01*
X30669261Y-35532938D02*
X30621642Y-35580557D01*
X30621642Y-35580557D02*
X30574023Y-35532938D01*
X30574023Y-35532938D02*
X30621642Y-35485319D01*
X30621642Y-35485319D02*
X30621642Y-35580557D01*
X29716881Y-35818652D02*
X29716881Y-36628176D01*
X29716881Y-36628176D02*
X29764500Y-36723414D01*
X29764500Y-36723414D02*
X29812119Y-36771033D01*
X29812119Y-36771033D02*
X29907357Y-36818652D01*
X29907357Y-36818652D02*
X30050214Y-36818652D01*
X30050214Y-36818652D02*
X30145452Y-36771033D01*
X29716881Y-36437700D02*
X29812119Y-36485319D01*
X29812119Y-36485319D02*
X30002595Y-36485319D01*
X30002595Y-36485319D02*
X30097833Y-36437700D01*
X30097833Y-36437700D02*
X30145452Y-36390080D01*
X30145452Y-36390080D02*
X30193071Y-36294842D01*
X30193071Y-36294842D02*
X30193071Y-36009128D01*
X30193071Y-36009128D02*
X30145452Y-35913890D01*
X30145452Y-35913890D02*
X30097833Y-35866271D01*
X30097833Y-35866271D02*
X30002595Y-35818652D01*
X30002595Y-35818652D02*
X29812119Y-35818652D01*
X29812119Y-35818652D02*
X29716881Y-35866271D01*
X29240690Y-36485319D02*
X29240690Y-35485319D01*
X28812119Y-36485319D02*
X28812119Y-35961509D01*
X28812119Y-35961509D02*
X28859738Y-35866271D01*
X28859738Y-35866271D02*
X28954976Y-35818652D01*
X28954976Y-35818652D02*
X29097833Y-35818652D01*
X29097833Y-35818652D02*
X29193071Y-35866271D01*
X29193071Y-35866271D02*
X29240690Y-35913890D01*
X28478785Y-35818652D02*
X28097833Y-35818652D01*
X28335928Y-35485319D02*
X28335928Y-36342461D01*
X28335928Y-36342461D02*
X28288309Y-36437700D01*
X28288309Y-36437700D02*
X28193071Y-36485319D01*
X28193071Y-36485319D02*
X28097833Y-36485319D01*
X27383547Y-36437700D02*
X27478785Y-36485319D01*
X27478785Y-36485319D02*
X27669261Y-36485319D01*
X27669261Y-36485319D02*
X27764499Y-36437700D01*
X27764499Y-36437700D02*
X27812118Y-36342461D01*
X27812118Y-36342461D02*
X27812118Y-35961509D01*
X27812118Y-35961509D02*
X27764499Y-35866271D01*
X27764499Y-35866271D02*
X27669261Y-35818652D01*
X27669261Y-35818652D02*
X27478785Y-35818652D01*
X27478785Y-35818652D02*
X27383547Y-35866271D01*
X27383547Y-35866271D02*
X27335928Y-35961509D01*
X27335928Y-35961509D02*
X27335928Y-36056747D01*
X27335928Y-36056747D02*
X27812118Y-36151985D01*
X26478785Y-36437700D02*
X26574023Y-36485319D01*
X26574023Y-36485319D02*
X26764499Y-36485319D01*
X26764499Y-36485319D02*
X26859737Y-36437700D01*
X26859737Y-36437700D02*
X26907356Y-36390080D01*
X26907356Y-36390080D02*
X26954975Y-36294842D01*
X26954975Y-36294842D02*
X26954975Y-36009128D01*
X26954975Y-36009128D02*
X26907356Y-35913890D01*
X26907356Y-35913890D02*
X26859737Y-35866271D01*
X26859737Y-35866271D02*
X26764499Y-35818652D01*
X26764499Y-35818652D02*
X26574023Y-35818652D01*
X26574023Y-35818652D02*
X26478785Y-35866271D01*
X26050213Y-36485319D02*
X26050213Y-35485319D01*
X25621642Y-36485319D02*
X25621642Y-35961509D01*
X25621642Y-35961509D02*
X25669261Y-35866271D01*
X25669261Y-35866271D02*
X25764499Y-35818652D01*
X25764499Y-35818652D02*
X25907356Y-35818652D01*
X25907356Y-35818652D02*
X26002594Y-35866271D01*
X26002594Y-35866271D02*
X26050213Y-35913890D01*
D11*
%TO.C,JP2*%
X34387418Y-36522632D02*
X35377368Y-37512582D01*
X34811683Y-35108418D02*
X34387418Y-35532683D01*
X36367317Y-37512582D02*
X36791582Y-37088317D01*
X36791582Y-36098368D02*
X35801632Y-35108418D01*
X34387418Y-36522632D02*
G75*
G02*
X34387417Y-35532683I494975J494975D01*
G01*
X34811683Y-35108418D02*
G75*
G02*
X35801632Y-35108418I494974J-494975D01*
G01*
X36367317Y-37512582D02*
G75*
G02*
X35377369Y-37512582I-494974J494974D01*
G01*
X36791582Y-36098368D02*
G75*
G02*
X36791583Y-37088318I-494957J-494975D01*
G01*
%TO.C,Y1*%
X23989500Y-29760500D02*
X36589500Y-29760500D01*
X36589500Y-29760500D02*
X36589500Y-34860500D01*
X36589500Y-34860500D02*
X23989500Y-34860500D01*
%TD*%
%LPC*%
D12*
G36*
X29754500Y-37210500D02*
G01*
X29754500Y-37960500D01*
X28754500Y-37960500D01*
X28754500Y-37210500D01*
X29004500Y-36960500D01*
X29504500Y-36960500D01*
X29754500Y-37210500D01*
G37*
G36*
X32294500Y-37210500D02*
G01*
X32294500Y-37960500D01*
X31294500Y-37960500D01*
X31294500Y-37210500D01*
X31544500Y-36960500D01*
X32044500Y-36960500D01*
X32294500Y-37210500D01*
G37*
G36*
X28484500Y-37210500D02*
G01*
X28484500Y-37960500D01*
X27484500Y-37960500D01*
X27484500Y-37210500D01*
X27734500Y-36960500D01*
X28234500Y-36960500D01*
X28484500Y-37210500D01*
G37*
G36*
X27214500Y-37210500D02*
G01*
X27214500Y-37960500D01*
X26214500Y-37960500D01*
X26214500Y-37210500D01*
X26464500Y-36960500D01*
X26964500Y-36960500D01*
X27214500Y-37210500D01*
G37*
G36*
X34834500Y-37210500D02*
G01*
X34834500Y-37960500D01*
X33834500Y-37960500D01*
X33834500Y-37210500D01*
X34084500Y-36960500D01*
X34584500Y-36960500D01*
X34834500Y-37210500D01*
G37*
G36*
X33564500Y-37210500D02*
G01*
X33564500Y-37960500D01*
X32564500Y-37960500D01*
X32564500Y-37210500D01*
X32814500Y-36960500D01*
X33314500Y-36960500D01*
X33564500Y-37210500D01*
G37*
G36*
X25944500Y-37210500D02*
G01*
X25944500Y-37960500D01*
X24944500Y-37960500D01*
X24944500Y-37210500D01*
X25194500Y-36960500D01*
X25694500Y-36960500D01*
X25944500Y-37210500D01*
G37*
G36*
X31024500Y-37210500D02*
G01*
X31024500Y-37960500D01*
X30024500Y-37960500D01*
X30024500Y-37210500D01*
X30274500Y-36960500D01*
X30774500Y-36960500D01*
X31024500Y-37210500D01*
G37*
D13*
%TO.C,J3*%
X26714500Y-38210500D03*
%TD*%
%TO.C,J1*%
X27984500Y-28210500D03*
%TD*%
%TO.C,J2*%
X25444500Y-38210500D03*
%TD*%
%TO.C,J9*%
X29254500Y-28210500D03*
%TD*%
%TO.C,J15*%
X33064500Y-38210500D03*
%TD*%
%TO.C,J7*%
X34334500Y-28210500D03*
%TD*%
%TO.C,J5*%
X29254500Y-38210500D03*
%TD*%
%TO.C,J4*%
X27984500Y-38210500D03*
%TD*%
%TO.C,J10*%
X30524500Y-28210500D03*
%TD*%
%TO.C,J14*%
X26714500Y-28210500D03*
%TD*%
%TO.C,J8*%
X31794500Y-38210500D03*
%TD*%
%TO.C,J12*%
X33064500Y-28210500D03*
%TD*%
%TO.C,J16*%
X34334500Y-38210500D03*
%TD*%
%TO.C,J6*%
X30524500Y-38210500D03*
%TD*%
%TO.C,J11*%
X31794500Y-28210500D03*
%TD*%
%TO.C,J13*%
X25444500Y-28210500D03*
%TD*%
D14*
%TO.C,JP2*%
X36049119Y-36770119D03*
D15*
X35129881Y-35850881D03*
%TD*%
D16*
%TO.C,Y1*%
X34139500Y-32310500D03*
X25639500Y-32310500D03*
%TD*%
%LPD*%
M02*
