%TF.GenerationSoftware,KiCad,Pcbnew,9.0.6-9.0.6~ubuntu24.04.1*%
%TF.CreationDate,2026-01-03T15:41:23+00:00*%
%TF.ProjectId,EMG_DAQ_ADS1293,454d475f-4441-4515-9f41-445331323933,3.3*%
%TF.SameCoordinates,Original*%
%TF.FileFunction,Copper,L4,Bot*%
%TF.FilePolarity,Positive*%
%FSLAX46Y46*%
G04 Gerber Fmt 4.6, Leading zero omitted, Abs format (unit mm)*
G04 Created by KiCad (PCBNEW 9.0.6-9.0.6~ubuntu24.04.1) date 2026-01-03 15:41:23*
%MOMM*%
%LPD*%
G01*
G04 APERTURE LIST*
G04 Aperture macros list*
%AMFreePoly0*
4,1,23,0.499999,-0.750000,0.000000,-0.750000,0.000000,-0.745722,-0.065263,-0.745722,-0.191342,-0.711940,-0.304381,-0.646677,-0.396677,-0.554382,-0.461940,-0.441342,-0.495722,-0.315263,-0.495722,-0.250000,-0.500000,-0.250000,-0.500000,0.250000,-0.495722,0.250000,-0.495722,0.315263,-0.461940,0.441342,-0.396677,0.554382,-0.304381,0.646677,-0.191342,0.711940,-0.065263,0.745722,0.000000,0.745722,
0.000000,0.750000,0.499999,0.750000,0.499999,-0.750000,0.499999,-0.750000,$1*%
%AMFreePoly1*
4,1,23,0.000000,0.745722,0.065263,0.745722,0.191342,0.711940,0.304381,0.646677,0.396677,0.554382,0.461940,0.441342,0.495722,0.315263,0.495722,0.250000,0.500000,0.250000,0.500000,-0.250000,0.495722,-0.250000,0.495722,-0.315263,0.461940,-0.441342,0.396677,-0.554382,0.304381,-0.646677,0.191342,-0.711940,0.065263,-0.745722,0.000000,-0.745722,0.000000,-0.750000,-0.499999,-0.750000,
-0.499999,0.750000,0.000000,0.750000,0.000000,0.745722,0.000000,0.745722,$1*%
G04 Aperture macros list end*
%TA.AperFunction,EtchedComponent*%
%ADD10C,0.000000*%
%TD*%
%TA.AperFunction,CastellatedPad*%
%ADD11R,1.000000X1.000000*%
%TD*%
%TA.AperFunction,SMDPad,CuDef*%
%ADD12FreePoly0,135.000000*%
%TD*%
%TA.AperFunction,SMDPad,CuDef*%
%ADD13FreePoly1,135.000000*%
%TD*%
%TA.AperFunction,SMDPad,CuDef*%
%ADD14R,4.500000X2.000000*%
%TD*%
%TA.AperFunction,ViaPad*%
%ADD15C,0.400000*%
%TD*%
%TA.AperFunction,Conductor*%
%ADD16C,0.150000*%
%TD*%
G04 APERTURE END LIST*
%TA.AperFunction,Conductor*%
%TO.N,/in4*%
G36*
X30024500Y-36856500D02*
G01*
X31024500Y-36856500D01*
X31024500Y-37956500D01*
X30024500Y-37956500D01*
X30024500Y-36856500D01*
G37*
%TD.AperFunction*%
%TA.AperFunction,Conductor*%
%TO.N,/in5*%
G36*
X31294500Y-36856500D02*
G01*
X32294500Y-36856500D01*
X32294500Y-37956500D01*
X31294500Y-37956500D01*
X31294500Y-36856500D01*
G37*
%TD.AperFunction*%
%TA.AperFunction,Conductor*%
%TO.N,/in6*%
G36*
X32564500Y-36856500D02*
G01*
X33564500Y-36856500D01*
X33564500Y-37956500D01*
X32564500Y-37956500D01*
X32564500Y-36856500D01*
G37*
%TD.AperFunction*%
%TA.AperFunction,Conductor*%
%TO.N,GND*%
G36*
X33834500Y-36856500D02*
G01*
X34834500Y-36856500D01*
X34834500Y-37956500D01*
X33834500Y-37956500D01*
X33834500Y-36856500D01*
G37*
%TD.AperFunction*%
%TA.AperFunction,Conductor*%
%TO.N,/in2*%
G36*
X27484500Y-36856500D02*
G01*
X28484500Y-36856500D01*
X28484500Y-37956500D01*
X27484500Y-37956500D01*
X27484500Y-36856500D01*
G37*
%TD.AperFunction*%
%TA.AperFunction,Conductor*%
%TO.N,/in1*%
G36*
X26214500Y-36856500D02*
G01*
X27214500Y-36856500D01*
X27214500Y-37956500D01*
X26214500Y-37956500D01*
X26214500Y-36856500D01*
G37*
%TD.AperFunction*%
%TA.AperFunction,Conductor*%
G36*
X24944500Y-36856500D02*
G01*
X25944500Y-36856500D01*
X25944500Y-37956500D01*
X24944500Y-37956500D01*
X24944500Y-36856500D01*
G37*
%TD.AperFunction*%
%TA.AperFunction,Conductor*%
%TO.N,/in3*%
G36*
X28754500Y-36856500D02*
G01*
X29754500Y-36856500D01*
X29754500Y-37956500D01*
X28754500Y-37956500D01*
X28754500Y-36856500D01*
G37*
%TD.AperFunction*%
D10*
%TA.AperFunction,EtchedComponent*%
%TD*%
%TO.C,JP2*%
G36*
X35624855Y-36628698D02*
G01*
X35342013Y-36911541D01*
X34988459Y-36557987D01*
X35271302Y-36275145D01*
X35624855Y-36628698D01*
G37*
%TD.AperFunction*%
%TA.AperFunction,EtchedComponent*%
%TO.C,JP2*%
G36*
X36190541Y-36063013D02*
G01*
X35907698Y-36345855D01*
X35554145Y-35992302D01*
X35836987Y-35709459D01*
X36190541Y-36063013D01*
G37*
%TD.AperFunction*%
%TD*%
D11*
%TO.P,J3,1,Pin_1*%
%TO.N,/in1*%
X26714500Y-38210500D03*
%TD*%
%TO.P,J1,1,Pin_1*%
%TO.N,/CLK*%
X27984500Y-28210500D03*
%TD*%
%TO.P,J2,1,Pin_1*%
%TO.N,/in1*%
X25444500Y-38210500D03*
%TD*%
%TO.P,J9,1,Pin_1*%
%TO.N,/POCI*%
X29254500Y-28210500D03*
%TD*%
%TO.P,J15,1,Pin_1*%
%TO.N,/in6*%
X33064500Y-38210500D03*
%TD*%
%TO.P,J7,1,Pin_1*%
%TO.N,/extRef*%
X34334500Y-28210500D03*
%TD*%
%TO.P,J5,1,Pin_1*%
%TO.N,/in3*%
X29254500Y-38210500D03*
%TD*%
%TO.P,J4,1,Pin_1*%
%TO.N,/in2*%
X27984500Y-38210500D03*
%TD*%
%TO.P,J10,1,Pin_1*%
%TO.N,/PICO*%
X30524500Y-28210500D03*
%TD*%
%TO.P,J14,1,Pin_1*%
%TO.N,GND*%
X26714500Y-28210500D03*
%TD*%
%TO.P,J8,1,Pin_1*%
%TO.N,/in5*%
X31794500Y-38210500D03*
%TD*%
%TO.P,J12,1,Pin_1*%
%TO.N,/CSB*%
X33064500Y-28210500D03*
%TD*%
%TO.P,J16,1,Pin_1*%
%TO.N,GND*%
X34334500Y-38210500D03*
%TD*%
%TO.P,J6,1,Pin_1*%
%TO.N,/in4*%
X30524500Y-38210500D03*
%TD*%
%TO.P,J11,1,Pin_1*%
%TO.N,/SCLK*%
X31794500Y-28210500D03*
%TD*%
%TO.P,J13,1,Pin_1*%
%TO.N,+3.3V*%
X25444500Y-28210500D03*
%TD*%
D12*
%TO.P,JP2,1,A*%
%TO.N,/extRef*%
X36049119Y-36770119D03*
D13*
%TO.P,JP2,2,B*%
%TO.N,/in6*%
X35129881Y-35850881D03*
%TD*%
D14*
%TO.P,Y1,1,1*%
%TO.N,XTAL1*%
X34139500Y-32310500D03*
%TO.P,Y1,2,2*%
%TO.N,XTAL2*%
X25639500Y-32310500D03*
%TD*%
D15*
%TO.N,GND*%
X26489500Y-35690500D03*
X34334500Y-37194500D03*
X29923079Y-34656196D03*
X26710582Y-30750760D03*
X24914500Y-30710500D03*
X30927701Y-33675782D03*
X29910975Y-32901134D03*
X27589500Y-34680500D03*
X32150192Y-34716715D03*
X23414500Y-37100500D03*
X36184500Y-33700500D03*
X27014500Y-35220500D03*
X24144372Y-36058131D03*
%TO.N,XTAL2*%
X27639500Y-32860500D03*
%TO.N,XTAL1*%
X28389500Y-31285500D03*
%TO.N,/in1*%
X25444500Y-37194500D03*
X26714500Y-37194500D03*
%TO.N,/in2*%
X27984500Y-37194500D03*
%TO.N,/in3*%
X29254500Y-37194500D03*
%TO.N,/in4*%
X30524500Y-37194500D03*
%TO.N,/in5*%
X31794500Y-37194500D03*
%TO.N,/in6*%
X33064500Y-37194500D03*
%TD*%
D16*
%TO.N,XTAL2*%
X27639500Y-32860500D02*
X27089500Y-32310500D01*
X27089500Y-32310500D02*
X25639500Y-32310500D01*
%TO.N,XTAL1*%
X28389500Y-31285500D02*
X29414500Y-32310500D01*
X29414500Y-32310500D02*
X34139500Y-32310500D01*
%TO.N,/in6*%
X34939500Y-36310500D02*
X35129881Y-36120119D01*
X33064500Y-36635500D02*
X33064500Y-37194500D01*
X35129881Y-35850881D02*
X33849119Y-35850881D01*
X33064500Y-37194500D02*
X33064500Y-38210500D01*
X33849119Y-35850881D02*
X33064500Y-36635500D01*
X35129881Y-36120119D02*
X35129881Y-35850881D01*
%TO.N,/extRef*%
X34539500Y-28210500D02*
X34334500Y-28210500D01*
X36049119Y-36770119D02*
X36789500Y-36029738D01*
X36789500Y-30960500D02*
X34539500Y-28710500D01*
X36789500Y-36029738D02*
X36789500Y-30960500D01*
%TD*%
%TA.AperFunction,Conductor*%
%TO.N,GND*%
G36*
X24505051Y-27240685D02*
G01*
X24550806Y-27293489D01*
X24560750Y-27362647D01*
X24537279Y-27419311D01*
X24500704Y-27468168D01*
X24500702Y-27468171D01*
X24450408Y-27603017D01*
X24444001Y-27662616D01*
X24444001Y-27662623D01*
X24444000Y-27662635D01*
X24444000Y-28758370D01*
X24444001Y-28758376D01*
X24450408Y-28817983D01*
X24500702Y-28952828D01*
X24500706Y-28952835D01*
X24586952Y-29068044D01*
X24586955Y-29068047D01*
X24702164Y-29154293D01*
X24702171Y-29154297D01*
X24837017Y-29204591D01*
X24837016Y-29204591D01*
X24843944Y-29205335D01*
X24896627Y-29211000D01*
X25992372Y-29210999D01*
X26051983Y-29204591D01*
X26051990Y-29204588D01*
X26052066Y-29204571D01*
X26052171Y-29204570D01*
X26059697Y-29203762D01*
X26059783Y-29204570D01*
X26099272Y-29204569D01*
X26099412Y-29203269D01*
X26166655Y-29210499D01*
X26166672Y-29210500D01*
X26464500Y-29210500D01*
X26464500Y-28420118D01*
X26514946Y-28470564D01*
X26589055Y-28513351D01*
X26671713Y-28535500D01*
X26757287Y-28535500D01*
X26839945Y-28513351D01*
X26914054Y-28470564D01*
X26964500Y-28420118D01*
X26964500Y-29210500D01*
X27262328Y-29210500D01*
X27262344Y-29210499D01*
X27329588Y-29203269D01*
X27329727Y-29204568D01*
X27369217Y-29204568D01*
X27369304Y-29203762D01*
X27376800Y-29204568D01*
X27376923Y-29204568D01*
X27377010Y-29204588D01*
X27377017Y-29204591D01*
X27377023Y-29204591D01*
X27377025Y-29204592D01*
X27385732Y-29205528D01*
X27436627Y-29211000D01*
X28532372Y-29210999D01*
X28580259Y-29205851D01*
X28599697Y-29203762D01*
X28599811Y-29204830D01*
X28639188Y-29204829D01*
X28639303Y-29203761D01*
X28647014Y-29204589D01*
X28647017Y-29204591D01*
X28706627Y-29211000D01*
X29802372Y-29210999D01*
X29850259Y-29205851D01*
X29869697Y-29203762D01*
X29869811Y-29204830D01*
X29909188Y-29204829D01*
X29909303Y-29203761D01*
X29917014Y-29204589D01*
X29917017Y-29204591D01*
X29976627Y-29211000D01*
X31072372Y-29210999D01*
X31120259Y-29205851D01*
X31139697Y-29203762D01*
X31139811Y-29204830D01*
X31179188Y-29204829D01*
X31179303Y-29203761D01*
X31187014Y-29204589D01*
X31187017Y-29204591D01*
X31246627Y-29211000D01*
X32342372Y-29210999D01*
X32390259Y-29205851D01*
X32409697Y-29203762D01*
X32409811Y-29204830D01*
X32449188Y-29204829D01*
X32449303Y-29203761D01*
X32457014Y-29204589D01*
X32457017Y-29204591D01*
X32516627Y-29211000D01*
X33612372Y-29210999D01*
X33660259Y-29205851D01*
X33679697Y-29203762D01*
X33679811Y-29204830D01*
X33719188Y-29204829D01*
X33719303Y-29203761D01*
X33727014Y-29204589D01*
X33727017Y-29204591D01*
X33786627Y-29211000D01*
X34174757Y-29210999D01*
X34241796Y-29230683D01*
X34262438Y-29247318D01*
X35613439Y-30598319D01*
X35646924Y-30659642D01*
X35641940Y-30729334D01*
X35600068Y-30785267D01*
X35534604Y-30809684D01*
X35525758Y-30810000D01*
X31841629Y-30810000D01*
X31841623Y-30810001D01*
X31782016Y-30816408D01*
X31647171Y-30866702D01*
X31647164Y-30866706D01*
X31531955Y-30952952D01*
X31531952Y-30952955D01*
X31445706Y-31068164D01*
X31445702Y-31068171D01*
X31395408Y-31203017D01*
X31389001Y-31262616D01*
X31389000Y-31262635D01*
X31389000Y-31611000D01*
X31369315Y-31678039D01*
X31316511Y-31723794D01*
X31265000Y-31735000D01*
X29704242Y-31735000D01*
X29637203Y-31715315D01*
X29616561Y-31698681D01*
X29105576Y-31187696D01*
X29072091Y-31126373D01*
X29071653Y-31124272D01*
X29063080Y-31081172D01*
X29057692Y-31068164D01*
X29010278Y-30953695D01*
X29010271Y-30953682D01*
X28933614Y-30838958D01*
X28933611Y-30838954D01*
X28836045Y-30741388D01*
X28836041Y-30741385D01*
X28721317Y-30664728D01*
X28721304Y-30664721D01*
X28593832Y-30611921D01*
X28593822Y-30611918D01*
X28458495Y-30585000D01*
X28458493Y-30585000D01*
X28320507Y-30585000D01*
X28320505Y-30585000D01*
X28185177Y-30611918D01*
X28185167Y-30611921D01*
X28057695Y-30664721D01*
X28057682Y-30664728D01*
X27942961Y-30741383D01*
X27910659Y-30773684D01*
X27849335Y-30807167D01*
X27822980Y-30810000D01*
X23341629Y-30810000D01*
X23341623Y-30810001D01*
X23282016Y-30816408D01*
X23147171Y-30866702D01*
X23147164Y-30866706D01*
X23031955Y-30952952D01*
X23031952Y-30952955D01*
X22945706Y-31068164D01*
X22945702Y-31068171D01*
X22895408Y-31203017D01*
X22889001Y-31262616D01*
X22889000Y-31262635D01*
X22889000Y-33358370D01*
X22889001Y-33358376D01*
X22895408Y-33417983D01*
X22945702Y-33552828D01*
X22945706Y-33552835D01*
X23031952Y-33668044D01*
X23031955Y-33668047D01*
X23147164Y-33754293D01*
X23147171Y-33754297D01*
X23282017Y-33804591D01*
X23282016Y-33804591D01*
X23288944Y-33805335D01*
X23341627Y-33811000D01*
X27937372Y-33810999D01*
X27996983Y-33804591D01*
X28131831Y-33754296D01*
X28247046Y-33668046D01*
X28333296Y-33552831D01*
X28383591Y-33417983D01*
X28390000Y-33358373D01*
X28389999Y-32399240D01*
X28409683Y-32332202D01*
X28462487Y-32286447D01*
X28531646Y-32276503D01*
X28595202Y-32305528D01*
X28601680Y-32311560D01*
X28953985Y-32663865D01*
X29061135Y-32771015D01*
X29192365Y-32846781D01*
X29338734Y-32886000D01*
X31265001Y-32886000D01*
X31332040Y-32905685D01*
X31377795Y-32958489D01*
X31389001Y-33010000D01*
X31389001Y-33358376D01*
X31395408Y-33417983D01*
X31445702Y-33552828D01*
X31445706Y-33552835D01*
X31531952Y-33668044D01*
X31531955Y-33668047D01*
X31647164Y-33754293D01*
X31647171Y-33754297D01*
X31782017Y-33804591D01*
X31782016Y-33804591D01*
X31788944Y-33805335D01*
X31841627Y-33811000D01*
X36090000Y-33810999D01*
X36157039Y-33830684D01*
X36202794Y-33883488D01*
X36214000Y-33934999D01*
X36214000Y-34860093D01*
X36194315Y-34927132D01*
X36141511Y-34972887D01*
X36072353Y-34982831D01*
X36008797Y-34953806D01*
X36002319Y-34947774D01*
X35971116Y-34916571D01*
X35971107Y-34916563D01*
X35866415Y-34836229D01*
X35752396Y-34770401D01*
X35752386Y-34770396D01*
X35630481Y-34719902D01*
X35566900Y-34702866D01*
X35503317Y-34685829D01*
X35503311Y-34685828D01*
X35503306Y-34685827D01*
X35372485Y-34668605D01*
X35372484Y-34668605D01*
X35240832Y-34668605D01*
X35240831Y-34668605D01*
X35110009Y-34685827D01*
X35110002Y-34685828D01*
X35109999Y-34685829D01*
X34982837Y-34719902D01*
X34982833Y-34719903D01*
X34982817Y-34719908D01*
X34860930Y-34770395D01*
X34860920Y-34770400D01*
X34746900Y-34836228D01*
X34642207Y-34916563D01*
X34642199Y-34916570D01*
X34319709Y-35239062D01*
X34258386Y-35272547D01*
X34232028Y-35275381D01*
X33773353Y-35275381D01*
X33626982Y-35314600D01*
X33495754Y-35390366D01*
X33495751Y-35390368D01*
X32603987Y-36282132D01*
X32603980Y-36282141D01*
X32597072Y-36294107D01*
X32573459Y-36316620D01*
X32550735Y-36340035D01*
X32547910Y-36340979D01*
X32546504Y-36342321D01*
X32517855Y-36352862D01*
X32504402Y-36356000D01*
X32498608Y-36356000D01*
X32459645Y-36366439D01*
X32457668Y-36366901D01*
X32440268Y-36365918D01*
X32397408Y-36365918D01*
X32360393Y-36356000D01*
X32360392Y-36356000D01*
X31360392Y-36356000D01*
X31228608Y-36356000D01*
X31228606Y-36356000D01*
X31191592Y-36365918D01*
X31127408Y-36365918D01*
X31090393Y-36356000D01*
X31090392Y-36356000D01*
X30090392Y-36356000D01*
X29958608Y-36356000D01*
X29958606Y-36356000D01*
X29921592Y-36365918D01*
X29857408Y-36365918D01*
X29820393Y-36356000D01*
X29820392Y-36356000D01*
X28820392Y-36356000D01*
X28688608Y-36356000D01*
X28688606Y-36356000D01*
X28651592Y-36365918D01*
X28587408Y-36365918D01*
X28550393Y-36356000D01*
X28550392Y-36356000D01*
X27550392Y-36356000D01*
X27418608Y-36356000D01*
X27418606Y-36356000D01*
X27381592Y-36365918D01*
X27317408Y-36365918D01*
X27280393Y-36356000D01*
X27280392Y-36356000D01*
X26280392Y-36356000D01*
X26148608Y-36356000D01*
X26148606Y-36356000D01*
X26111592Y-36365918D01*
X26047408Y-36365918D01*
X26010393Y-36356000D01*
X26010392Y-36356000D01*
X25010392Y-36356000D01*
X24878608Y-36356000D01*
X24751312Y-36390108D01*
X24637186Y-36456000D01*
X24637183Y-36456002D01*
X24544002Y-36549183D01*
X24544000Y-36549186D01*
X24478108Y-36663312D01*
X24444000Y-36790608D01*
X24444000Y-38075999D01*
X24424315Y-38143038D01*
X24371511Y-38188793D01*
X24320000Y-38199999D01*
X23145590Y-38199999D01*
X23133437Y-38199402D01*
X23007387Y-38186988D01*
X22983544Y-38182245D01*
X22868189Y-38147252D01*
X22845732Y-38137950D01*
X22739428Y-38081129D01*
X22719216Y-38067624D01*
X22626035Y-37991152D01*
X22608847Y-37973964D01*
X22532375Y-37880783D01*
X22518870Y-37860571D01*
X22462049Y-37754267D01*
X22452747Y-37731810D01*
X22417754Y-37616455D01*
X22413012Y-37592618D01*
X22400597Y-37466560D01*
X22400000Y-37454407D01*
X22400000Y-27966592D01*
X22400597Y-27954439D01*
X22407377Y-27885597D01*
X22413012Y-27828380D01*
X22417751Y-27804554D01*
X22452748Y-27689183D01*
X22462046Y-27666738D01*
X22518874Y-27560421D01*
X22532370Y-27540221D01*
X22608850Y-27447030D01*
X22626029Y-27429851D01*
X22719221Y-27353370D01*
X22739421Y-27339873D01*
X22845738Y-27283046D01*
X22868182Y-27273748D01*
X22983553Y-27238751D01*
X23007378Y-27234012D01*
X23116082Y-27223305D01*
X23133419Y-27221598D01*
X23145573Y-27221001D01*
X23194266Y-27221001D01*
X23194275Y-27221000D01*
X24438012Y-27221000D01*
X24505051Y-27240685D01*
G37*
%TD.AperFunction*%
%TA.AperFunction,Conductor*%
G36*
X34270203Y-36767193D02*
G01*
X34276681Y-36773225D01*
X34561546Y-37058091D01*
X34595031Y-37119414D01*
X34590047Y-37189106D01*
X34584500Y-37197737D01*
X34584500Y-38000882D01*
X34534054Y-37950436D01*
X34459945Y-37907649D01*
X34377287Y-37885500D01*
X34291713Y-37885500D01*
X34209055Y-37907649D01*
X34134946Y-37950436D01*
X34084500Y-38000882D01*
X34084500Y-37196517D01*
X34067834Y-37165996D01*
X34065000Y-37139638D01*
X34065000Y-36860906D01*
X34084685Y-36793867D01*
X34137489Y-36748112D01*
X34206647Y-36738168D01*
X34270203Y-36767193D01*
G37*
%TD.AperFunction*%
%TD*%
M02*
