G04 #@! TF.GenerationSoftware,KiCad,Pcbnew,7.0.9-7.0.9~ubuntu22.04.1*
G04 #@! TF.CreationDate,2023-12-30T14:42:09+00:00*
G04 #@! TF.ProjectId,DRY_FLEX_V1,4452595f-464c-4455-985f-56312e6b6963,rev?*
G04 #@! TF.SameCoordinates,Original*
G04 #@! TF.FileFunction,Legend,Top*
G04 #@! TF.FilePolarity,Positive*
%FSLAX46Y46*%
G04 Gerber Fmt 4.6, Leading zero omitted, Abs format (unit mm)*
G04 Created by KiCad (PCBNEW 7.0.9-7.0.9~ubuntu22.04.1) date 2023-12-30 14:42:09*
%MOMM*%
%LPD*%
G01*
G04 APERTURE LIST*
G04 Aperture macros list*
%AMRoundRect*
0 Rectangle with rounded corners*
0 $1 Rounding radius*
0 $2 $3 $4 $5 $6 $7 $8 $9 X,Y pos of 4 corners*
0 Add a 4 corners polygon primitive as box body*
4,1,4,$2,$3,$4,$5,$6,$7,$8,$9,$2,$3,0*
0 Add four circle primitives for the rounded corners*
1,1,$1+$1,$2,$3*
1,1,$1+$1,$4,$5*
1,1,$1+$1,$6,$7*
1,1,$1+$1,$8,$9*
0 Add four rect primitives between the rounded corners*
20,1,$1+$1,$2,$3,$4,$5,0*
20,1,$1+$1,$4,$5,$6,$7,0*
20,1,$1+$1,$6,$7,$8,$9,0*
20,1,$1+$1,$8,$9,$2,$3,0*%
G04 Aperture macros list end*
%ADD10C,0.152400*%
%ADD11C,0.120000*%
%ADD12C,0.499999*%
%ADD13C,3.250000*%
%ADD14C,0.000000*%
%ADD15C,0.500000*%
%ADD16R,1.700000X1.700000*%
%ADD17RoundRect,0.250000X-0.250000X-0.750000X0.250000X-0.750000X0.250000X0.750000X-0.250000X0.750000X0*%
G04 APERTURE END LIST*
D10*
X110000000Y-105000000D02*
X110000000Y-95000000D01*
X90000000Y-105000000D02*
X90000000Y-95000000D01*
X119250000Y-104000000D02*
G75*
G03*
X119250000Y-104000000I-1250000J0D01*
G01*
X114000000Y-96000000D02*
G75*
G03*
X114000000Y-96000000I-1250000J0D01*
G01*
X88500000Y-96000000D02*
G75*
G03*
X88500000Y-96000000I-1250000J0D01*
G01*
X83250000Y-104000000D02*
G75*
G03*
X83250000Y-104000000I-1250000J0D01*
G01*
X117000000Y-131000000D02*
X117000000Y-138000000D01*
X108500000Y-131000000D02*
X108500000Y-138000000D01*
X100000000Y-131000000D02*
X100000000Y-138000000D01*
X91500000Y-131000000D02*
X91500000Y-138000000D01*
X83000000Y-131000000D02*
X83000000Y-138000000D01*
X117000000Y-110000000D02*
X117000000Y-117000000D01*
X108532812Y-109954835D02*
X108532812Y-116954835D01*
X100000000Y-110000000D02*
X100000000Y-117000000D01*
X91500000Y-110000000D02*
X91500000Y-117000000D01*
X83000000Y-110000000D02*
X83000000Y-117000000D01*
G36*
X120538460Y-102321067D02*
G01*
X120009294Y-102321067D01*
X119826942Y-102321067D01*
X118736807Y-102321067D01*
X117859381Y-102321067D01*
X117172768Y-102321067D01*
X116473642Y-102321067D01*
X115258383Y-102321067D01*
X114612435Y-102321067D01*
X114215951Y-102321067D01*
X113038581Y-102321067D01*
X112267940Y-102321067D01*
X111149652Y-102321067D01*
X110990706Y-102321067D01*
X110461540Y-102321067D01*
X110461540Y-101283588D01*
X111013580Y-101283588D01*
X111015926Y-101337547D01*
X111029221Y-101378994D01*
X111070277Y-101410666D01*
X111149652Y-101421223D01*
X111244276Y-101402064D01*
X111284159Y-101344585D01*
X111359624Y-101400891D01*
X111473408Y-101419659D01*
X111560125Y-101406017D01*
X111643019Y-101365091D01*
X111722090Y-101296882D01*
X111786390Y-101210512D01*
X111824969Y-101115106D01*
X111837829Y-101010663D01*
X111824882Y-100906133D01*
X111786042Y-100810466D01*
X111721308Y-100723661D01*
X111708517Y-100712713D01*
X111900391Y-100712713D01*
X111931671Y-100789351D01*
X112242915Y-101313304D01*
X112159500Y-101495602D01*
X112109451Y-101614990D01*
X112092768Y-101671469D01*
X112115837Y-101723865D01*
X112185046Y-101768440D01*
X112267940Y-101791900D01*
X112314861Y-101777824D01*
X112342232Y-101748107D01*
X112363346Y-101702750D01*
X112538866Y-101310176D01*
X113240772Y-101310176D01*
X113263451Y-101363354D01*
X113331487Y-101410275D01*
X113415163Y-101436863D01*
X113465212Y-101422005D01*
X113493365Y-101393070D01*
X113517607Y-101347713D01*
X113598937Y-101178797D01*
X114032176Y-101178797D01*
X114113506Y-101347713D01*
X114137749Y-101394634D01*
X114165902Y-101424351D01*
X114215951Y-101438427D01*
X114299627Y-101411839D01*
X114367663Y-101363745D01*
X114390341Y-101310176D01*
X114382000Y-101285152D01*
X114476364Y-101285152D01*
X114478710Y-101339893D01*
X114492004Y-101380558D01*
X114533060Y-101412230D01*
X114612435Y-101422787D01*
X114692592Y-101412621D01*
X114732866Y-101382122D01*
X114747724Y-101340675D01*
X114750070Y-101286716D01*
X114750070Y-100998932D01*
X114851733Y-100998932D01*
X114864332Y-101100856D01*
X114902130Y-101193916D01*
X114965126Y-101278113D01*
X115042546Y-101344585D01*
X115123615Y-101384468D01*
X115208334Y-101397762D01*
X115320554Y-101378212D01*
X115397583Y-101319560D01*
X115397583Y-101366482D01*
X115360046Y-101479093D01*
X115263075Y-101526014D01*
X115178617Y-101511546D01*
X115100415Y-101468144D01*
X115055058Y-101449376D01*
X115016739Y-101461888D01*
X114970600Y-101507245D01*
X114923679Y-101615164D01*
X114950659Y-101664822D01*
X115031598Y-101719955D01*
X115142253Y-101763357D01*
X115258383Y-101777824D01*
X115359177Y-101765572D01*
X115453019Y-101728817D01*
X115539910Y-101667559D01*
X115609423Y-101586316D01*
X115651131Y-101489606D01*
X115665034Y-101377430D01*
X115665034Y-101285152D01*
X115790157Y-101285152D01*
X115792503Y-101339893D01*
X115805797Y-101380558D01*
X115846853Y-101412230D01*
X115926228Y-101422787D01*
X116006385Y-101412621D01*
X116046659Y-101382122D01*
X116061518Y-101340675D01*
X116063864Y-101286716D01*
X116063864Y-100983292D01*
X116112349Y-100907436D01*
X116210101Y-100873809D01*
X116301598Y-100909782D01*
X116337570Y-101009881D01*
X116337570Y-101283588D01*
X116339917Y-101339893D01*
X116354775Y-101382122D01*
X116396222Y-101412621D01*
X116473642Y-101422787D01*
X116553799Y-101412621D01*
X116594073Y-101382122D01*
X116608931Y-101340675D01*
X116611277Y-101286716D01*
X116611277Y-101011445D01*
X116599721Y-100902657D01*
X116565051Y-100805687D01*
X116531679Y-100756506D01*
X116697300Y-100756506D01*
X116719978Y-100847221D01*
X116777066Y-100873809D01*
X116841191Y-100869117D01*
X116841191Y-101100595D01*
X116850575Y-101206081D01*
X116878728Y-101288975D01*
X116925649Y-101349277D01*
X116990644Y-101390116D01*
X117073017Y-101414619D01*
X117172768Y-101422787D01*
X117225163Y-101420441D01*
X117266610Y-101407147D01*
X117299455Y-101366091D01*
X117310403Y-101286716D01*
X117274430Y-101181925D01*
X117232983Y-101167067D01*
X117176678Y-101164721D01*
X117126628Y-101145952D01*
X117113334Y-101084955D01*
X117113334Y-101014573D01*
X117415194Y-101014573D01*
X117426142Y-101115540D01*
X117458987Y-101209904D01*
X117513728Y-101297664D01*
X117573748Y-101356902D01*
X117653710Y-101403237D01*
X117750094Y-101433149D01*
X117859381Y-101443120D01*
X118005130Y-101434420D01*
X118109236Y-101408320D01*
X118171700Y-101364820D01*
X118192521Y-101303920D01*
X118172189Y-101231974D01*
X118086167Y-101161593D01*
X118023605Y-101178797D01*
X118006401Y-101185053D01*
X117945012Y-101199129D01*
X117864073Y-101203822D01*
X117760846Y-101174105D01*
X117709233Y-101100595D01*
X118079910Y-101100595D01*
X118185483Y-101054456D01*
X118214104Y-101007535D01*
X118311388Y-101007535D01*
X118321554Y-101104114D01*
X118352053Y-101192091D01*
X118398583Y-101267361D01*
X118456844Y-101325817D01*
X118547732Y-101384034D01*
X118641053Y-101418964D01*
X118736807Y-101430607D01*
X118856456Y-101414967D01*
X118955772Y-101368046D01*
X119020289Y-101314477D01*
X119031261Y-101285152D01*
X119143457Y-101285152D01*
X119145803Y-101339893D01*
X119159098Y-101380558D01*
X119200154Y-101412230D01*
X119279529Y-101422787D01*
X119359686Y-101412621D01*
X119399960Y-101382122D01*
X119414818Y-101340675D01*
X119417164Y-101286716D01*
X119417164Y-100983292D01*
X119465649Y-100907436D01*
X119563402Y-100873809D01*
X119654898Y-100909782D01*
X119690871Y-101009881D01*
X119690871Y-101283588D01*
X119693217Y-101339893D01*
X119708075Y-101382122D01*
X119749522Y-101412621D01*
X119826942Y-101422787D01*
X119907099Y-101412621D01*
X119947373Y-101382122D01*
X119962232Y-101340675D01*
X119964578Y-101286716D01*
X119964578Y-101011445D01*
X119953021Y-100902657D01*
X119918352Y-100805687D01*
X119860569Y-100720533D01*
X119857688Y-100718001D01*
X119785408Y-100654496D01*
X119698604Y-100614874D01*
X119600157Y-100601666D01*
X119502013Y-100625518D01*
X119417164Y-100697073D01*
X119417164Y-100351420D01*
X119414818Y-100297461D01*
X119399960Y-100256014D01*
X119360077Y-100224342D01*
X119281093Y-100213785D01*
X119200545Y-100224342D01*
X119159098Y-100256014D01*
X119145803Y-100295897D01*
X119143457Y-100349856D01*
X119143457Y-101285152D01*
X119031261Y-101285152D01*
X119041795Y-101256999D01*
X119005822Y-101175669D01*
X118943651Y-101113498D01*
X118891647Y-101092775D01*
X118822047Y-101121710D01*
X118729769Y-101150644D01*
X118636708Y-101113889D01*
X118592915Y-101010663D01*
X118638272Y-100906654D01*
X118736025Y-100869117D01*
X118816573Y-100895706D01*
X118901031Y-100930115D01*
X118953817Y-100908609D01*
X119008950Y-100844093D01*
X119041795Y-100754160D01*
X119001130Y-100682996D01*
X118957336Y-100653280D01*
X118932312Y-100637639D01*
X118920269Y-100632981D01*
X118849418Y-100605577D01*
X118733679Y-100589154D01*
X118637577Y-100600624D01*
X118545299Y-100635033D01*
X118456844Y-100692381D01*
X118398583Y-100750446D01*
X118352053Y-100824542D01*
X118321554Y-100911346D01*
X118311388Y-101007535D01*
X118214104Y-101007535D01*
X118221260Y-100995804D01*
X118233186Y-100912128D01*
X118219892Y-100819654D01*
X118180009Y-100734610D01*
X118121944Y-100667552D01*
X118049412Y-100619653D01*
X117973325Y-100594519D01*
X117962412Y-100590914D01*
X117860945Y-100581334D01*
X117740774Y-100594454D01*
X117634680Y-100633816D01*
X117542663Y-100699419D01*
X117471847Y-100786918D01*
X117429357Y-100891970D01*
X117415194Y-101014573D01*
X117113334Y-101014573D01*
X117113334Y-100869117D01*
X117214997Y-100875373D01*
X117268956Y-100873027D01*
X117310403Y-100859733D01*
X117342075Y-100818677D01*
X117352632Y-100739302D01*
X117342466Y-100659145D01*
X117311967Y-100618871D01*
X117270520Y-100604012D01*
X117217343Y-100601666D01*
X117113334Y-100607923D01*
X117113334Y-100454647D01*
X117105514Y-100374881D01*
X117063676Y-100331479D01*
X117010506Y-100322413D01*
X116978827Y-100317011D01*
X116898670Y-100326786D01*
X116858396Y-100356112D01*
X116843537Y-100393649D01*
X116841191Y-100446827D01*
X116841191Y-100607923D01*
X116789578Y-100601666D01*
X116727016Y-100621999D01*
X116705120Y-100663446D01*
X116697300Y-100756506D01*
X116531679Y-100756506D01*
X116507269Y-100720533D01*
X116432108Y-100654496D01*
X116345304Y-100614874D01*
X116246856Y-100601666D01*
X116148713Y-100625518D01*
X116063864Y-100697073D01*
X116063864Y-100351420D01*
X116061518Y-100297461D01*
X116046659Y-100256014D01*
X116006776Y-100224342D01*
X115927792Y-100213785D01*
X115847244Y-100224342D01*
X115805797Y-100256014D01*
X115792503Y-100295897D01*
X115790157Y-100349856D01*
X115790157Y-101285152D01*
X115665034Y-101285152D01*
X115665034Y-100729918D01*
X115662687Y-100676740D01*
X115648611Y-100636857D01*
X115608728Y-100604794D01*
X115581756Y-100601955D01*
X115519578Y-100595410D01*
X115431210Y-100618089D01*
X115399147Y-100684560D01*
X115373340Y-100654062D01*
X115313125Y-100618089D01*
X115216154Y-100598538D01*
X115127873Y-100611920D01*
X115044457Y-100652063D01*
X114965908Y-100718969D01*
X114961044Y-100725459D01*
X114902477Y-100803601D01*
X114864419Y-100896922D01*
X114851733Y-100998932D01*
X114750070Y-100998932D01*
X114750070Y-100739302D01*
X114748506Y-100693945D01*
X114720354Y-100626691D01*
X114613999Y-100600102D01*
X114613217Y-100600201D01*
X114533451Y-100610269D01*
X114492004Y-100640767D01*
X114478710Y-100682214D01*
X114476364Y-100736174D01*
X114476364Y-101285152D01*
X114382000Y-101285152D01*
X114363753Y-101230410D01*
X113966475Y-100409370D01*
X113941462Y-100357676D01*
X113934845Y-100349856D01*
X114476364Y-100349856D01*
X114478710Y-100403815D01*
X114492786Y-100445262D01*
X114534233Y-100478107D01*
X114613217Y-100487492D01*
X114692201Y-100478107D01*
X114733648Y-100446044D01*
X114747724Y-100405379D01*
X114750070Y-100351420D01*
X114747724Y-100297461D01*
X114732866Y-100256014D01*
X114692983Y-100224342D01*
X114613999Y-100213785D01*
X114533451Y-100224342D01*
X114492004Y-100256014D01*
X114478710Y-100295897D01*
X114476364Y-100349856D01*
X113934845Y-100349856D01*
X113889849Y-100296679D01*
X113816339Y-100276346D01*
X113742047Y-100298243D01*
X113689652Y-100356112D01*
X113267361Y-101230410D01*
X113240772Y-101310176D01*
X112538866Y-101310176D01*
X112773125Y-100786223D01*
X112785637Y-100759634D01*
X112798149Y-100706457D01*
X112775080Y-100652889D01*
X112705871Y-100607923D01*
X112619067Y-100586026D01*
X112561979Y-100612615D01*
X112543993Y-100639203D01*
X112520728Y-100689448D01*
X112461881Y-100818286D01*
X112422631Y-100905694D01*
X112402447Y-100950643D01*
X112377423Y-101011445D01*
X112329719Y-100933330D01*
X112280452Y-100851218D01*
X112229621Y-100765109D01*
X112169405Y-100662664D01*
X112143599Y-100619653D01*
X112116228Y-100593846D01*
X112067743Y-100581334D01*
X111984849Y-100612615D01*
X111921505Y-100662664D01*
X111900391Y-100712713D01*
X111708517Y-100712713D01*
X111641108Y-100655018D01*
X111597925Y-100634152D01*
X111555868Y-100613831D01*
X111465588Y-100600102D01*
X111363143Y-100619262D01*
X111287287Y-100676740D01*
X111287287Y-100351420D01*
X111284941Y-100297461D01*
X111270083Y-100256014D01*
X111230200Y-100224342D01*
X111151216Y-100213785D01*
X111070668Y-100224342D01*
X111029221Y-100256014D01*
X111015926Y-100295897D01*
X111013580Y-100349856D01*
X111013580Y-101283588D01*
X110461540Y-101283588D01*
X110461540Y-98851037D01*
X110990706Y-98851037D01*
X111001223Y-98970298D01*
X111032775Y-99080431D01*
X111080598Y-99176475D01*
X111139931Y-99253468D01*
X111209186Y-99315778D01*
X111286775Y-99367768D01*
X111367341Y-99407853D01*
X111445525Y-99434443D01*
X111522122Y-99449326D01*
X111597925Y-99454287D01*
X111674720Y-99447937D01*
X111754294Y-99428887D01*
X111861450Y-99387612D01*
X111916219Y-99354275D01*
X111966225Y-99314587D01*
X111987656Y-99259025D01*
X111952731Y-99170125D01*
X111897566Y-99103450D01*
X112092431Y-99103450D01*
X112103544Y-99250293D01*
X112136881Y-99351100D01*
X112194825Y-99403884D01*
X112295631Y-99432062D01*
X112422631Y-99439206D01*
X112492481Y-99422537D01*
X112516294Y-99380865D01*
X112524231Y-99300300D01*
X112492481Y-99187587D01*
X112465494Y-99174093D01*
X112421838Y-99171712D01*
X112379769Y-99156631D01*
X112370244Y-99084400D01*
X112370244Y-99024075D01*
X112587731Y-99024075D01*
X112598844Y-99126557D01*
X112632181Y-99222336D01*
X112687744Y-99311412D01*
X112748664Y-99371539D01*
X112829825Y-99418568D01*
X112927655Y-99448929D01*
X113038581Y-99459050D01*
X113186516Y-99450219D01*
X113292184Y-99423728D01*
X113355585Y-99379575D01*
X113376719Y-99317762D01*
X113356081Y-99244737D01*
X113268769Y-99173300D01*
X113205269Y-99190762D01*
X113187806Y-99197112D01*
X113125497Y-99211400D01*
X113043344Y-99216162D01*
X112938569Y-99186000D01*
X112886181Y-99111387D01*
X113262419Y-99111387D01*
X113369575Y-99064556D01*
X113405889Y-99005025D01*
X113417994Y-98920093D01*
X113404500Y-98826232D01*
X113364019Y-98739912D01*
X113353022Y-98727212D01*
X113481494Y-98727212D01*
X113513244Y-98812937D01*
X113843444Y-99378087D01*
X113857731Y-99395550D01*
X113901388Y-99429681D01*
X113966475Y-99446350D01*
X114035531Y-99424918D01*
X114086331Y-99376500D01*
X114291830Y-99024075D01*
X114510194Y-99024075D01*
X114521306Y-99126557D01*
X114554644Y-99222336D01*
X114610206Y-99311412D01*
X114671127Y-99371539D01*
X114752288Y-99418568D01*
X114850117Y-99448929D01*
X114961044Y-99459050D01*
X115108979Y-99450219D01*
X115214647Y-99423728D01*
X115278048Y-99379575D01*
X115290497Y-99343162D01*
X115443644Y-99343162D01*
X115472219Y-99411425D01*
X115581756Y-99438412D01*
X115662719Y-99428093D01*
X115705581Y-99397137D01*
X115720662Y-99355068D01*
X115723044Y-99300300D01*
X115723044Y-99295537D01*
X116169131Y-99295537D01*
X116178656Y-99378087D01*
X116220725Y-99422140D01*
X116308831Y-99436825D01*
X116390588Y-99426109D01*
X116432656Y-99393962D01*
X116447738Y-99351893D01*
X116450119Y-99297125D01*
X116450119Y-98973275D01*
X116870806Y-98973275D01*
X116870806Y-99295537D01*
X116880331Y-99378087D01*
X116922400Y-99422140D01*
X117010506Y-99436825D01*
X117092263Y-99426109D01*
X117134331Y-99393962D01*
X117149413Y-99351893D01*
X117151794Y-99297125D01*
X117151794Y-99018518D01*
X117254981Y-99018518D01*
X117268034Y-99124616D01*
X117307192Y-99221718D01*
X117372456Y-99309825D01*
X117452978Y-99379498D01*
X117537909Y-99421302D01*
X117627250Y-99435237D01*
X117744923Y-99414203D01*
X117823306Y-99351100D01*
X117857438Y-99413806D01*
X117973325Y-99435237D01*
X118043770Y-99424918D01*
X118082069Y-99393962D01*
X118095563Y-99351893D01*
X118097944Y-99297125D01*
X118224944Y-99297125D01*
X118227325Y-99351893D01*
X118240819Y-99393962D01*
X118282491Y-99426109D01*
X118363056Y-99436825D01*
X118444416Y-99426109D01*
X118485294Y-99393962D01*
X118500375Y-99353481D01*
X118502756Y-99298712D01*
X118502756Y-99017725D01*
X118541650Y-98917712D01*
X118643250Y-98879612D01*
X118743263Y-98916125D01*
X118780569Y-99017725D01*
X118780569Y-99297125D01*
X118790094Y-99378087D01*
X118831369Y-99422140D01*
X118920269Y-99436825D01*
X119002025Y-99426109D01*
X119044094Y-99393962D01*
X119057588Y-99353481D01*
X119059969Y-99298712D01*
X119059969Y-99020106D01*
X119171094Y-99020106D01*
X119184147Y-99126116D01*
X119223305Y-99222953D01*
X119288569Y-99310618D01*
X119369708Y-99379851D01*
X119456491Y-99421391D01*
X119548919Y-99435237D01*
X119654884Y-99416187D01*
X119734656Y-99359037D01*
X119771764Y-99417378D01*
X119857688Y-99436825D01*
X119946389Y-99426109D01*
X119991831Y-99393962D01*
X120006912Y-99353481D01*
X120009294Y-99298712D01*
X120009294Y-98350975D01*
X120006912Y-98296206D01*
X119992625Y-98254137D01*
X119950556Y-98220800D01*
X119870388Y-98211275D01*
X119790219Y-98220800D01*
X119748150Y-98253343D01*
X119733863Y-98294618D01*
X119731481Y-98349387D01*
X119731481Y-98682762D01*
X119653297Y-98623231D01*
X119548919Y-98603387D01*
X119457285Y-98617322D01*
X119370766Y-98659126D01*
X119289362Y-98728800D01*
X119223658Y-98816906D01*
X119184235Y-98914008D01*
X119171094Y-99020106D01*
X119059969Y-99020106D01*
X119059969Y-99019312D01*
X119048239Y-98908804D01*
X119013049Y-98810115D01*
X118954400Y-98723243D01*
X118878112Y-98655775D01*
X118790006Y-98615293D01*
X118690081Y-98601800D01*
X118571019Y-98638312D01*
X118528156Y-98671650D01*
X118499581Y-98703400D01*
X118483706Y-98638312D01*
X118442828Y-98610928D01*
X118364644Y-98601800D01*
X118284078Y-98611721D01*
X118242406Y-98641487D01*
X118227325Y-98681968D01*
X118224944Y-98735150D01*
X118224944Y-99297125D01*
X118097944Y-99297125D01*
X118097944Y-98741500D01*
X118095563Y-98686731D01*
X118081275Y-98644662D01*
X118039206Y-98611325D01*
X117947131Y-98601800D01*
X117857834Y-98624025D01*
X117821719Y-98690700D01*
X117793144Y-98658156D01*
X117731231Y-98622437D01*
X117632806Y-98603387D01*
X117541172Y-98617234D01*
X117454653Y-98658773D01*
X117373250Y-98728006D01*
X117307545Y-98815671D01*
X117268122Y-98912509D01*
X117254981Y-99018518D01*
X117151794Y-99018518D01*
X117151794Y-98416062D01*
X117143856Y-98333512D01*
X117121631Y-98301762D01*
X117080356Y-98282712D01*
X117007331Y-98274775D01*
X116931131Y-98284300D01*
X116888269Y-98317637D01*
X116873188Y-98359706D01*
X116870806Y-98414475D01*
X116870806Y-98739912D01*
X116450119Y-98739912D01*
X116450119Y-98416062D01*
X116442181Y-98333512D01*
X116398922Y-98289459D01*
X116310419Y-98274775D01*
X116228663Y-98285490D01*
X116186594Y-98317637D01*
X116171513Y-98359706D01*
X116169131Y-98414475D01*
X116169131Y-99295537D01*
X115723044Y-99295537D01*
X115723044Y-98966925D01*
X115760350Y-98893900D01*
X115840519Y-98863737D01*
X115909575Y-98876437D01*
X115964344Y-98889137D01*
X116051656Y-98828812D01*
X116081819Y-98717687D01*
X116061975Y-98643868D01*
X116011969Y-98611325D01*
X115956406Y-98597831D01*
X115893700Y-98593862D01*
X115807181Y-98620850D01*
X115742887Y-98663712D01*
X115719869Y-98690700D01*
X115702406Y-98638312D01*
X115660734Y-98610928D01*
X115583344Y-98601800D01*
X115501588Y-98612515D01*
X115459519Y-98644662D01*
X115446025Y-98685143D01*
X115443644Y-98739912D01*
X115443644Y-99297125D01*
X115443644Y-99343162D01*
X115290497Y-99343162D01*
X115299181Y-99317762D01*
X115278544Y-99244737D01*
X115191231Y-99173300D01*
X115127731Y-99190762D01*
X115110269Y-99197112D01*
X115047959Y-99211400D01*
X114965806Y-99216162D01*
X114861031Y-99186000D01*
X114808644Y-99111387D01*
X115184881Y-99111387D01*
X115292038Y-99064556D01*
X115328352Y-99005025D01*
X115340456Y-98920093D01*
X115326963Y-98826232D01*
X115286481Y-98739912D01*
X115227545Y-98671848D01*
X115153925Y-98623231D01*
X115065620Y-98594061D01*
X114962631Y-98584337D01*
X114840658Y-98597654D01*
X114732973Y-98637607D01*
X114639575Y-98704193D01*
X114567697Y-98793005D01*
X114524569Y-98899632D01*
X114510194Y-99024075D01*
X114291830Y-99024075D01*
X114414944Y-98812937D01*
X114446694Y-98725625D01*
X114426056Y-98671650D01*
X114364144Y-98620850D01*
X114276831Y-98587512D01*
X114226031Y-98601006D01*
X114198250Y-98627993D01*
X114172056Y-98671650D01*
X113964094Y-99071700D01*
X113756131Y-98671650D01*
X113714063Y-98607356D01*
X113659294Y-98585925D01*
X113564044Y-98620850D01*
X113502131Y-98672046D01*
X113481494Y-98727212D01*
X113353022Y-98727212D01*
X113305083Y-98671848D01*
X113231463Y-98623231D01*
X113143158Y-98594061D01*
X113040169Y-98584337D01*
X112918196Y-98597654D01*
X112810510Y-98637607D01*
X112717113Y-98704193D01*
X112645234Y-98793005D01*
X112602107Y-98899632D01*
X112587731Y-99024075D01*
X112370244Y-99024075D01*
X112370244Y-98349387D01*
X112367863Y-98293825D01*
X112352781Y-98250962D01*
X112310712Y-98218815D01*
X112232131Y-98208100D01*
X112150375Y-98218815D01*
X112108306Y-98250962D01*
X112094813Y-98293031D01*
X112092431Y-98347800D01*
X112092431Y-99103450D01*
X111897566Y-99103450D01*
X111846369Y-99081225D01*
X111770169Y-99112975D01*
X111741594Y-99133612D01*
X111678888Y-99159012D01*
X111586019Y-99171712D01*
X111483228Y-99154250D01*
X111384406Y-99101862D01*
X111303444Y-99001850D01*
X111279631Y-98934182D01*
X111271694Y-98858181D01*
X111279631Y-98782179D01*
X111303444Y-98714512D01*
X111382819Y-98616087D01*
X111483625Y-98562509D01*
X111586019Y-98544650D01*
X111686031Y-98558143D01*
X111763819Y-98598625D01*
X111844781Y-98633550D01*
X111897169Y-98612118D01*
X111955906Y-98547825D01*
X111989244Y-98459718D01*
X111947969Y-98384312D01*
X111903519Y-98355737D01*
X111865419Y-98333512D01*
X111748738Y-98286681D01*
X111672339Y-98269417D01*
X111597131Y-98263662D01*
X111492533Y-98273187D01*
X111388287Y-98301762D01*
X111284394Y-98349387D01*
X111206408Y-98399195D01*
X111137550Y-98459718D01*
X111079011Y-98534331D01*
X111031981Y-98626406D01*
X111001025Y-98732967D01*
X110990706Y-98851037D01*
X110461540Y-98851037D01*
X110461540Y-97678933D01*
X110990706Y-97678933D01*
X120009294Y-97678933D01*
X120538460Y-97678933D01*
X120538460Y-102321067D01*
G37*
G36*
X119689413Y-98925650D02*
G01*
X119726719Y-99021693D01*
X119687825Y-99116150D01*
X119590194Y-99159012D01*
X119490181Y-99116150D01*
X119448906Y-99020900D01*
X119487006Y-98924856D01*
X119588606Y-98881200D01*
X119689413Y-98925650D01*
G37*
G36*
X117773300Y-98924062D02*
G01*
X117810606Y-99020106D01*
X117771713Y-99114562D01*
X117674081Y-99157425D01*
X117574069Y-99115356D01*
X117532794Y-99020900D01*
X117571688Y-98924062D01*
X117673288Y-98879612D01*
X117773300Y-98924062D01*
G37*
G36*
X111526585Y-100916820D02*
G01*
X111564122Y-101011445D01*
X111523457Y-101105287D01*
X111424923Y-101147516D01*
X111328734Y-101105287D01*
X111290415Y-101012227D01*
X111327170Y-100917602D01*
X111426487Y-100873809D01*
X111526585Y-100916820D01*
G37*
G36*
X115352226Y-100907436D02*
G01*
X115388199Y-100999714D01*
X115350662Y-101090429D01*
X115256037Y-101131876D01*
X115159067Y-101091211D01*
X115119184Y-100999714D01*
X115156721Y-100906654D01*
X115255255Y-100864425D01*
X115352226Y-100907436D01*
G37*
G36*
X113919566Y-100947319D02*
G01*
X113711548Y-100947319D01*
X113814775Y-100733046D01*
X113919566Y-100947319D01*
G37*
G36*
X113115575Y-98857387D02*
G01*
X113143356Y-98916125D01*
X113083031Y-98966925D01*
X112883006Y-98966925D01*
X112933806Y-98877231D01*
X113036200Y-98835162D01*
X113115575Y-98857387D01*
G37*
G36*
X115038038Y-98857387D02*
G01*
X115065819Y-98916125D01*
X115005494Y-98966925D01*
X114805469Y-98966925D01*
X114856269Y-98877231D01*
X114958663Y-98835162D01*
X115038038Y-98857387D01*
G37*
G36*
X117935237Y-100850349D02*
G01*
X117962607Y-100908218D01*
X117903174Y-100958267D01*
X117706105Y-100958267D01*
X117756154Y-100869899D01*
X117857035Y-100828452D01*
X117935237Y-100850349D01*
G37*
D11*
X90170000Y-141170000D02*
X91500000Y-141170000D01*
X90170000Y-142500000D02*
X90170000Y-141170000D01*
X90170000Y-143770000D02*
X90170000Y-143830000D01*
X90170000Y-143770000D02*
X92830000Y-143770000D01*
X90170000Y-143830000D02*
X92830000Y-143830000D01*
X92830000Y-143770000D02*
X92830000Y-143830000D01*
G36*
X87213434Y-99770209D02*
G01*
X87255106Y-99858316D01*
X87164619Y-99934516D01*
X86864581Y-99934516D01*
X86940781Y-99799975D01*
X87094372Y-99736872D01*
X87213434Y-99770209D01*
G37*
G36*
X80778404Y-99350216D02*
G01*
X80924553Y-99447550D01*
X81025459Y-99593104D01*
X81059094Y-99770209D01*
X81024566Y-99946720D01*
X80920981Y-100090487D01*
X80774534Y-100186035D01*
X80611419Y-100217884D01*
X80380437Y-100217884D01*
X80380437Y-99317772D01*
X80609037Y-99317772D01*
X80778404Y-99350216D01*
G37*
G36*
X89834794Y-101997472D02*
G01*
X89041044Y-101997472D01*
X88810062Y-101997472D01*
X87097944Y-101997472D01*
X86174019Y-101997472D01*
X84371413Y-101997472D01*
X83223650Y-101997472D01*
X81842525Y-101997472D01*
X80604275Y-101997472D01*
X79958956Y-101997472D01*
X79165206Y-101997472D01*
X79165206Y-100427434D01*
X79958956Y-100427434D01*
X79987531Y-100579834D01*
X80050634Y-100624483D01*
X80168506Y-100639366D01*
X80604275Y-100639366D01*
X80779669Y-100623143D01*
X80941520Y-100574477D01*
X81079758Y-100498872D01*
X81635356Y-100498872D01*
X81678219Y-100601266D01*
X81842525Y-100641747D01*
X81963969Y-100626269D01*
X82028263Y-100579834D01*
X82050884Y-100516731D01*
X82054456Y-100434578D01*
X82054456Y-99934516D01*
X82110416Y-99824978D01*
X82230669Y-99779734D01*
X82334253Y-99798784D01*
X82416406Y-99817834D01*
X82547375Y-99727347D01*
X82592619Y-99560659D01*
X82664056Y-99560659D01*
X82711681Y-99677341D01*
X83185550Y-100475059D01*
X83085537Y-100692200D01*
X83014100Y-100855464D01*
X82971237Y-100964853D01*
X82956950Y-101020366D01*
X82992073Y-101100137D01*
X83097444Y-101168003D01*
X83223650Y-101203722D01*
X83295088Y-101182291D01*
X83336759Y-101137047D01*
X83368906Y-101067991D01*
X83654234Y-100429816D01*
X84161862Y-100429816D01*
X84176150Y-100551259D01*
X84239253Y-100619125D01*
X84371413Y-100641747D01*
X84494047Y-100625673D01*
X84557150Y-100577453D01*
X84579772Y-100515541D01*
X84583344Y-100432197D01*
X84583344Y-100139303D01*
X85678719Y-100139303D01*
X85695387Y-100359569D01*
X85745394Y-100510778D01*
X85832309Y-100589955D01*
X85983519Y-100632222D01*
X86174019Y-100642938D01*
X86278794Y-100617934D01*
X86314512Y-100555427D01*
X86326419Y-100434578D01*
X86278794Y-100265509D01*
X86238312Y-100245269D01*
X86172828Y-100241697D01*
X86109725Y-100219075D01*
X86095437Y-100110728D01*
X86095437Y-100020241D01*
X86421669Y-100020241D01*
X86438337Y-100173964D01*
X86488344Y-100317632D01*
X86571687Y-100451247D01*
X86663068Y-100541437D01*
X86784809Y-100611981D01*
X86931554Y-100657523D01*
X87097944Y-100672703D01*
X87319846Y-100659457D01*
X87478348Y-100619720D01*
X87573450Y-100553492D01*
X87605150Y-100460772D01*
X87595392Y-100426244D01*
X87762312Y-100426244D01*
X87849228Y-100571500D01*
X87994484Y-100656034D01*
X88138550Y-100570309D01*
X88402869Y-100305991D01*
X88664806Y-100570309D01*
X88810062Y-100656034D01*
X88955319Y-100571500D01*
X89041044Y-100426244D01*
X88955319Y-100279797D01*
X88691000Y-100013097D01*
X88955319Y-99746397D01*
X89041044Y-99599950D01*
X88955319Y-99453503D01*
X88810062Y-99367778D01*
X88664806Y-99453503D01*
X88402869Y-99720203D01*
X88138550Y-99453503D01*
X87994484Y-99367778D01*
X87849228Y-99453503D01*
X87762312Y-99599950D01*
X87848037Y-99746397D01*
X88112356Y-100013097D01*
X87848037Y-100279797D01*
X87762312Y-100426244D01*
X87595392Y-100426244D01*
X87574194Y-100351234D01*
X87443225Y-100244078D01*
X87347975Y-100270272D01*
X87321781Y-100279797D01*
X87228317Y-100301228D01*
X87105087Y-100308372D01*
X86947925Y-100263128D01*
X86869344Y-100151209D01*
X87433700Y-100151209D01*
X87594434Y-100080962D01*
X87648905Y-99991666D01*
X87667062Y-99864269D01*
X87646822Y-99723477D01*
X87586100Y-99593997D01*
X87497696Y-99491901D01*
X87387266Y-99418975D01*
X87254809Y-99375220D01*
X87100325Y-99360634D01*
X86917366Y-99380610D01*
X86755837Y-99440539D01*
X86615741Y-99540419D01*
X86507923Y-99673636D01*
X86443232Y-99833577D01*
X86421669Y-100020241D01*
X86095437Y-100020241D01*
X86095437Y-99008209D01*
X86091866Y-98924866D01*
X86069244Y-98860572D01*
X86006141Y-98812352D01*
X85888269Y-98796278D01*
X85765634Y-98812352D01*
X85702531Y-98860572D01*
X85682291Y-98923675D01*
X85678719Y-99005828D01*
X85678719Y-100139303D01*
X84583344Y-100139303D01*
X84583344Y-99982141D01*
X85050069Y-99982141D01*
X85171513Y-99970234D01*
X85239378Y-99905345D01*
X85262000Y-99772591D01*
X85246522Y-99649361D01*
X85200087Y-99584472D01*
X85136984Y-99561850D01*
X85052450Y-99558278D01*
X84583344Y-99558278D01*
X84583344Y-99317772D01*
X85312006Y-99317772D01*
X85396541Y-99314200D01*
X85459644Y-99292769D01*
X85509650Y-99229666D01*
X85523938Y-99108222D01*
X85509650Y-98986778D01*
X85460834Y-98922484D01*
X85398922Y-98899862D01*
X85316769Y-98896291D01*
X84378556Y-98896291D01*
X84207106Y-98940344D01*
X84161862Y-99105841D01*
X84161862Y-100429816D01*
X83654234Y-100429816D01*
X83992794Y-99672578D01*
X84011844Y-99632097D01*
X84030894Y-99551134D01*
X83995770Y-99469577D01*
X83890400Y-99401116D01*
X83758241Y-99367778D01*
X83671325Y-99408259D01*
X83643941Y-99448741D01*
X83608520Y-99525238D01*
X83518925Y-99721394D01*
X83428437Y-99922907D01*
X83390337Y-100015478D01*
X83317709Y-99896548D01*
X83242700Y-99771532D01*
X83165309Y-99640431D01*
X83073631Y-99484459D01*
X83034341Y-99418975D01*
X82992669Y-99379684D01*
X82918850Y-99360634D01*
X82792644Y-99408259D01*
X82696203Y-99484459D01*
X82664056Y-99560659D01*
X82592619Y-99560659D01*
X82562853Y-99449931D01*
X82487844Y-99401116D01*
X82404500Y-99380875D01*
X82310441Y-99374922D01*
X82180662Y-99415403D01*
X82084222Y-99479697D01*
X82049694Y-99520178D01*
X82023500Y-99441597D01*
X81960992Y-99400520D01*
X81844906Y-99386828D01*
X81722272Y-99402902D01*
X81659169Y-99451122D01*
X81638928Y-99511844D01*
X81635356Y-99593997D01*
X81635356Y-100429816D01*
X81635356Y-100498872D01*
X81079758Y-100498872D01*
X81089827Y-100493365D01*
X81224591Y-100379809D01*
X81336584Y-100243557D01*
X81416579Y-100094357D01*
X81464576Y-99932209D01*
X81480575Y-99757112D01*
X81464204Y-99582686D01*
X81415091Y-99422547D01*
X81333235Y-99276695D01*
X81218637Y-99145131D01*
X81082460Y-99036263D01*
X80935864Y-98958501D01*
X80778850Y-98911843D01*
X80611419Y-98896291D01*
X80170887Y-98893909D01*
X80048253Y-98909983D01*
X79985150Y-98958203D01*
X79962528Y-99020116D01*
X79958956Y-99103459D01*
X79958956Y-100427434D01*
X79165206Y-100427434D01*
X79165206Y-98002528D01*
X79958956Y-98002528D01*
X89041044Y-98002528D01*
X89834794Y-98002528D01*
X89834794Y-101997472D01*
G37*
G36*
X88377094Y-103259414D02*
G01*
X88417575Y-103307278D01*
X88441864Y-103387049D01*
X88449960Y-103498730D01*
X88449960Y-103506350D01*
X88441784Y-103615253D01*
X88417257Y-103693040D01*
X88376379Y-103739713D01*
X88319150Y-103755270D01*
X88263032Y-103739276D01*
X88222947Y-103691294D01*
X88198897Y-103611323D01*
X88190880Y-103499365D01*
X88198976Y-103387407D01*
X88223265Y-103307436D01*
X88263746Y-103259454D01*
X88320420Y-103243460D01*
X88377094Y-103259414D01*
G37*
G36*
X89701192Y-103500000D02*
G01*
X89098083Y-104404663D01*
X88674750Y-104404663D01*
X88321690Y-104404663D01*
X87791465Y-104404663D01*
X87469520Y-104404663D01*
X86713235Y-104404663D01*
X86325250Y-104404663D01*
X85901917Y-104404663D01*
X85298808Y-103500000D01*
X85369081Y-103394590D01*
X86325250Y-103394590D01*
X86350650Y-103463170D01*
X86614810Y-103915290D01*
X86626240Y-103929260D01*
X86661165Y-103956565D01*
X86713235Y-103969900D01*
X86768480Y-103952755D01*
X86809120Y-103914020D01*
X87072010Y-103463170D01*
X87097410Y-103393320D01*
X87080900Y-103350140D01*
X87056135Y-103329820D01*
X87135510Y-103329820D01*
X87175515Y-103408560D01*
X87252350Y-103453010D01*
X87341250Y-103413640D01*
X87357760Y-103398400D01*
X87357760Y-103851790D01*
X87359665Y-103898145D01*
X87371730Y-103933070D01*
X87405702Y-103957835D01*
X87469520Y-103966090D01*
X87534925Y-103957517D01*
X87568580Y-103931800D01*
X87580645Y-103898145D01*
X87582550Y-103854330D01*
X87582550Y-103849250D01*
X87665100Y-103849250D01*
X87689865Y-103940690D01*
X87727647Y-103958788D01*
X87791465Y-103964820D01*
X87853854Y-103955613D01*
X87887350Y-103927990D01*
X87900685Y-103893065D01*
X87902590Y-103847980D01*
X87902590Y-103842900D01*
X87881000Y-103754000D01*
X87839884Y-103733998D01*
X87774955Y-103727330D01*
X87712566Y-103736855D01*
X87679070Y-103765430D01*
X87667005Y-103799720D01*
X87665100Y-103844170D01*
X87665100Y-103849250D01*
X87582550Y-103849250D01*
X87582550Y-103498730D01*
X87966090Y-103498730D01*
X87970182Y-103587771D01*
X87982459Y-103670321D01*
X88002920Y-103746380D01*
X88030384Y-103810198D01*
X88064515Y-103864490D01*
X88109282Y-103910051D01*
X88168655Y-103947675D01*
X88240251Y-103972916D01*
X88321690Y-103981330D01*
X88402811Y-103973075D01*
X88473455Y-103948310D01*
X88531716Y-103910845D01*
X88575690Y-103864490D01*
X88619029Y-103791227D01*
X88649985Y-103706058D01*
X88668559Y-103608982D01*
X88674750Y-103500000D01*
X88670517Y-103416039D01*
X88657817Y-103335182D01*
X88636650Y-103257430D01*
X88610139Y-103193295D01*
X88576325Y-103138050D01*
X88531875Y-103091378D01*
X88473455Y-103052960D01*
X88402494Y-103027242D01*
X88320420Y-103018670D01*
X88238029Y-103027401D01*
X88166115Y-103053595D01*
X88106901Y-103092647D01*
X88062610Y-103139955D01*
X88027526Y-103201074D01*
X87995935Y-103281560D01*
X87979354Y-103345766D01*
X87969406Y-103418156D01*
X87966090Y-103498730D01*
X87582550Y-103498730D01*
X87582550Y-103146940D01*
X87576200Y-103079630D01*
X87558420Y-103052325D01*
X87525400Y-103037720D01*
X87465075Y-103031370D01*
X87393320Y-103064390D01*
X87389510Y-103066930D01*
X87181230Y-103254890D01*
X87135510Y-103329820D01*
X87056135Y-103329820D01*
X87031370Y-103309500D01*
X86961520Y-103282830D01*
X86920880Y-103293625D01*
X86898655Y-103315215D01*
X86877700Y-103350140D01*
X86711330Y-103670180D01*
X86544960Y-103350140D01*
X86511305Y-103298705D01*
X86467490Y-103281560D01*
X86391290Y-103309500D01*
X86341760Y-103350458D01*
X86325250Y-103394590D01*
X85369081Y-103394590D01*
X85901917Y-102595337D01*
X86325250Y-102595337D01*
X88674750Y-102595337D01*
X89098083Y-102595337D01*
X89701192Y-103500000D01*
G37*
G36*
X117535505Y-107891995D02*
G01*
X117643583Y-107908026D01*
X117749569Y-107934575D01*
X117852443Y-107971383D01*
X117951213Y-108018098D01*
X118044929Y-108074269D01*
X118132688Y-108139356D01*
X118213645Y-108212731D01*
X118287020Y-108293688D01*
X118352107Y-108381447D01*
X118408278Y-108475163D01*
X118454993Y-108573933D01*
X118491801Y-108676807D01*
X118518350Y-108782793D01*
X118534382Y-108890871D01*
X118539743Y-109000000D01*
X118534382Y-109109129D01*
X118518350Y-109217207D01*
X118491801Y-109323193D01*
X118454993Y-109426067D01*
X118408278Y-109524837D01*
X118352107Y-109618553D01*
X118287020Y-109706312D01*
X118213645Y-109787269D01*
X118132688Y-109860644D01*
X118044929Y-109925731D01*
X117951213Y-109981902D01*
X117852443Y-110028617D01*
X117749569Y-110065425D01*
X117643583Y-110091974D01*
X117535505Y-110108005D01*
X117426376Y-110113367D01*
X117426244Y-110113367D01*
X117288131Y-110113367D01*
X116573756Y-110113367D01*
X116573624Y-110113367D01*
X116464495Y-110108006D01*
X116356417Y-110091974D01*
X116250431Y-110065425D01*
X116147557Y-110028617D01*
X116048787Y-109981902D01*
X115955071Y-109925731D01*
X115867312Y-109860644D01*
X115786355Y-109787269D01*
X115712980Y-109706312D01*
X115647893Y-109618553D01*
X115591722Y-109524837D01*
X115545007Y-109426067D01*
X115508199Y-109323193D01*
X115481650Y-109217207D01*
X115467327Y-109120650D01*
X116573756Y-109120650D01*
X116581694Y-109188912D01*
X116624953Y-109234156D01*
X116713456Y-109249237D01*
X117143669Y-109249237D01*
X117143669Y-109442912D01*
X117153194Y-109525463D01*
X117173831Y-109557213D01*
X117215106Y-109576263D01*
X117288131Y-109584200D01*
X117365125Y-109574675D01*
X117411163Y-109535781D01*
X117426244Y-109444500D01*
X117426244Y-108561850D01*
X117423863Y-108506287D01*
X117408781Y-108464219D01*
X117365919Y-108430881D01*
X117285750Y-108420562D01*
X117204788Y-108429294D01*
X117161131Y-108460250D01*
X117146050Y-108499937D01*
X117143669Y-108553912D01*
X117143669Y-108987300D01*
X116884906Y-108987300D01*
X116981744Y-108599950D01*
X116983331Y-108595187D01*
X116994444Y-108528512D01*
X116966663Y-108467394D01*
X116883319Y-108426912D01*
X116810294Y-108415800D01*
X116755525Y-108433262D01*
X116726950Y-108469775D01*
X116710281Y-108525337D01*
X116578519Y-109057150D01*
X116573756Y-109120650D01*
X115467327Y-109120650D01*
X115465618Y-109109129D01*
X115460257Y-109000000D01*
X115465618Y-108890871D01*
X115481650Y-108782793D01*
X115508199Y-108676807D01*
X115545007Y-108573933D01*
X115591722Y-108475163D01*
X115647893Y-108381447D01*
X115712980Y-108293688D01*
X115786355Y-108212731D01*
X115867312Y-108139356D01*
X115955071Y-108074269D01*
X116048787Y-108018098D01*
X116147557Y-107971383D01*
X116250431Y-107934575D01*
X116356417Y-107908026D01*
X116464495Y-107891994D01*
X116573624Y-107886633D01*
X116573756Y-107886633D01*
X117426244Y-107886633D01*
X117426376Y-107886633D01*
X117535505Y-107891995D01*
G37*
X98670000Y-141170000D02*
X100000000Y-141170000D01*
X98670000Y-142500000D02*
X98670000Y-141170000D01*
X98670000Y-143770000D02*
X98670000Y-143830000D01*
X98670000Y-143770000D02*
X101330000Y-143770000D01*
X98670000Y-143830000D02*
X101330000Y-143830000D01*
X101330000Y-143770000D02*
X101330000Y-143830000D01*
G36*
X83388661Y-107891994D02*
G01*
X83496739Y-107908026D01*
X83602726Y-107934575D01*
X83705599Y-107971383D01*
X83804370Y-108018098D01*
X83898086Y-108074269D01*
X83985845Y-108139356D01*
X84066801Y-108212731D01*
X84140176Y-108293688D01*
X84205263Y-108381447D01*
X84261434Y-108475163D01*
X84308149Y-108573933D01*
X84344958Y-108676807D01*
X84371506Y-108782793D01*
X84387538Y-108890871D01*
X84392899Y-109000000D01*
X84387538Y-109109129D01*
X84371506Y-109217207D01*
X84344958Y-109323193D01*
X84308149Y-109426067D01*
X84261434Y-109524837D01*
X84205263Y-109618553D01*
X84140176Y-109706312D01*
X84066801Y-109787269D01*
X83985845Y-109860644D01*
X83898086Y-109925731D01*
X83804370Y-109981902D01*
X83705599Y-110028617D01*
X83602726Y-110065425D01*
X83496739Y-110091974D01*
X83388661Y-110108006D01*
X83279532Y-110113367D01*
X83279400Y-110113367D01*
X83138113Y-110113367D01*
X82720600Y-110113367D01*
X82720468Y-110113367D01*
X82611339Y-110108006D01*
X82503261Y-110091974D01*
X82397274Y-110065425D01*
X82294401Y-110028617D01*
X82195630Y-109981902D01*
X82101914Y-109925731D01*
X82014155Y-109860644D01*
X81933199Y-109787269D01*
X81859824Y-109706312D01*
X81794737Y-109618553D01*
X81738566Y-109524837D01*
X81691851Y-109426067D01*
X81655042Y-109323193D01*
X81628494Y-109217207D01*
X81612462Y-109109129D01*
X81607101Y-109000000D01*
X81612462Y-108890871D01*
X81627594Y-108788862D01*
X82720600Y-108788862D01*
X82770606Y-108887288D01*
X82866650Y-108942850D01*
X82977775Y-108893638D01*
X82998413Y-108874588D01*
X82998413Y-109441325D01*
X83000794Y-109499269D01*
X83015875Y-109542925D01*
X83058341Y-109573881D01*
X83138113Y-109584200D01*
X83219869Y-109573484D01*
X83261938Y-109541337D01*
X83277019Y-109499269D01*
X83279400Y-109444500D01*
X83279400Y-108560262D01*
X83271463Y-108476125D01*
X83249238Y-108441994D01*
X83207963Y-108423738D01*
X83132556Y-108415800D01*
X83042863Y-108457075D01*
X83038100Y-108460250D01*
X82777750Y-108695200D01*
X82720600Y-108788862D01*
X81627594Y-108788862D01*
X81628494Y-108782793D01*
X81655042Y-108676807D01*
X81691851Y-108573933D01*
X81738566Y-108475163D01*
X81794737Y-108381447D01*
X81859824Y-108293688D01*
X81933199Y-108212731D01*
X82014155Y-108139356D01*
X82101914Y-108074269D01*
X82195630Y-108018098D01*
X82294401Y-107971383D01*
X82397274Y-107934575D01*
X82503261Y-107908026D01*
X82611339Y-107891994D01*
X82720468Y-107886633D01*
X82720600Y-107886633D01*
X83279400Y-107886633D01*
X83279532Y-107886633D01*
X83388661Y-107891994D01*
G37*
X81670000Y-141170000D02*
X83000000Y-141170000D01*
X81670000Y-142500000D02*
X81670000Y-141170000D01*
X81670000Y-143770000D02*
X81670000Y-143830000D01*
X81670000Y-143770000D02*
X84330000Y-143770000D01*
X81670000Y-143830000D02*
X84330000Y-143830000D01*
X84330000Y-143770000D02*
X84330000Y-143830000D01*
G36*
X100553808Y-107875406D02*
G01*
X100663504Y-107891678D01*
X100771077Y-107918624D01*
X100875491Y-107955983D01*
X100975740Y-108003398D01*
X101070859Y-108060410D01*
X101159932Y-108126471D01*
X101242100Y-108200944D01*
X101316574Y-108283113D01*
X101382635Y-108372186D01*
X101439647Y-108467305D01*
X101487061Y-108567554D01*
X101524421Y-108671968D01*
X101551367Y-108779541D01*
X101567639Y-108889237D01*
X101573080Y-109000000D01*
X101567639Y-109110763D01*
X101551367Y-109220459D01*
X101524421Y-109328032D01*
X101487061Y-109432446D01*
X101439647Y-109532695D01*
X101382635Y-109627814D01*
X101316574Y-109716887D01*
X101242100Y-109799056D01*
X101159932Y-109873529D01*
X101070859Y-109939590D01*
X100975740Y-109996602D01*
X100875491Y-110044017D01*
X100771077Y-110081376D01*
X100663504Y-110108322D01*
X100553808Y-110124594D01*
X100443045Y-110130035D01*
X100442913Y-110130035D01*
X99996825Y-110130035D01*
X99557088Y-110130035D01*
X99556955Y-110130035D01*
X99446192Y-110124594D01*
X99336496Y-110108322D01*
X99228923Y-110081376D01*
X99124509Y-110044017D01*
X99024260Y-109996602D01*
X98929141Y-109939590D01*
X98840068Y-109873529D01*
X98757900Y-109799056D01*
X98683426Y-109716887D01*
X98617365Y-109627814D01*
X98560353Y-109532695D01*
X98512939Y-109432446D01*
X98475579Y-109328032D01*
X98452064Y-109234156D01*
X99557088Y-109234156D01*
X99574550Y-109319881D01*
X99577725Y-109335756D01*
X99595188Y-109377031D01*
X99634478Y-109440134D01*
X99679325Y-109489744D01*
X99771047Y-109551480D01*
X99876881Y-109588522D01*
X99996825Y-109600869D01*
X100117651Y-109588610D01*
X100224014Y-109551833D01*
X100315913Y-109490537D01*
X100386468Y-109410369D01*
X100428801Y-109316971D01*
X100442913Y-109210344D01*
X100429816Y-109129381D01*
X100390525Y-109057944D01*
X100340519Y-109006350D01*
X100293688Y-108972219D01*
X100293688Y-108961106D01*
X100362479Y-108911276D01*
X100403754Y-108844337D01*
X100417513Y-108760287D01*
X100404989Y-108670770D01*
X100367418Y-108587426D01*
X100304800Y-108510256D01*
X100220486Y-108448520D01*
X100117828Y-108411478D01*
X99996825Y-108399131D01*
X99918045Y-108404687D01*
X99846806Y-108421356D01*
X99742031Y-108470569D01*
X99676150Y-108533275D01*
X99641225Y-108583281D01*
X99604713Y-108691231D01*
X99624556Y-108747984D01*
X99684088Y-108797594D01*
X99771400Y-108826169D01*
X99831725Y-108806325D01*
X99876175Y-108746794D01*
X99885700Y-108727744D01*
X99926975Y-108689644D01*
X100016669Y-108670594D01*
X100104775Y-108700756D01*
X100136525Y-108764256D01*
X100106363Y-108810691D01*
X100015875Y-108826169D01*
X99933325Y-108834106D01*
X99889272Y-108877366D01*
X99874588Y-108965869D01*
X99885303Y-109047228D01*
X99917450Y-109088106D01*
X99958725Y-109103981D01*
X100030956Y-109107156D01*
X100123031Y-109139700D01*
X100161925Y-109215106D01*
X100122238Y-109292100D01*
X100071438Y-109317698D01*
X99998413Y-109326231D01*
X99931738Y-109316706D01*
X99844425Y-109240506D01*
X99796800Y-109157956D01*
X99712663Y-109142081D01*
X99595981Y-109165100D01*
X99557088Y-109234156D01*
X98452064Y-109234156D01*
X98448633Y-109220459D01*
X98432361Y-109110763D01*
X98426920Y-109000000D01*
X98432361Y-108889237D01*
X98448633Y-108779541D01*
X98475579Y-108671968D01*
X98512939Y-108567554D01*
X98560353Y-108467305D01*
X98617365Y-108372186D01*
X98683426Y-108283113D01*
X98757900Y-108200944D01*
X98840068Y-108126471D01*
X98929141Y-108060410D01*
X99024260Y-108003398D01*
X99124509Y-107955983D01*
X99228923Y-107918624D01*
X99336496Y-107891678D01*
X99446192Y-107875406D01*
X99556955Y-107869965D01*
X99557088Y-107869965D01*
X100442913Y-107869965D01*
X100443045Y-107869965D01*
X100553808Y-107875406D01*
G37*
G36*
X92061683Y-107884095D02*
G01*
X92170532Y-107900241D01*
X92277273Y-107926979D01*
X92380881Y-107964050D01*
X92480355Y-108011098D01*
X92574739Y-108067670D01*
X92663124Y-108133220D01*
X92744658Y-108207118D01*
X92818556Y-108288652D01*
X92884106Y-108377037D01*
X92940678Y-108471421D01*
X92987726Y-108570895D01*
X93024797Y-108674503D01*
X93051535Y-108781244D01*
X93067681Y-108890093D01*
X93073080Y-109000000D01*
X93067681Y-109109907D01*
X93051535Y-109218756D01*
X93024797Y-109325497D01*
X92987726Y-109429105D01*
X92940678Y-109528579D01*
X92884106Y-109622963D01*
X92818556Y-109711348D01*
X92744658Y-109792882D01*
X92663124Y-109866780D01*
X92574739Y-109932330D01*
X92480355Y-109988902D01*
X92380881Y-110035950D01*
X92277273Y-110073021D01*
X92170532Y-110099759D01*
X92061683Y-110115905D01*
X91951776Y-110121304D01*
X91951644Y-110121304D01*
X91808769Y-110121304D01*
X91048356Y-110121304D01*
X91048224Y-110121304D01*
X90938317Y-110115905D01*
X90829468Y-110099759D01*
X90722727Y-110073021D01*
X90619119Y-110035950D01*
X90519645Y-109988902D01*
X90425261Y-109932330D01*
X90336876Y-109866780D01*
X90255342Y-109792882D01*
X90181444Y-109711348D01*
X90115894Y-109622963D01*
X90059322Y-109528579D01*
X90021808Y-109449262D01*
X91048356Y-109449262D01*
X91089631Y-109549275D01*
X91188056Y-109592137D01*
X91808769Y-109592137D01*
X91907194Y-109573088D01*
X91941325Y-109531812D01*
X91951644Y-109451644D01*
X91942119Y-109370681D01*
X91904812Y-109324644D01*
X91811944Y-109309562D01*
X91521431Y-109309562D01*
X91521431Y-109301625D01*
X91561119Y-109285750D01*
X91659544Y-109232172D01*
X91770669Y-109144463D01*
X91822262Y-109087313D01*
X91865919Y-109014287D01*
X91895684Y-108930944D01*
X91905606Y-108842838D01*
X91892377Y-108733741D01*
X91852690Y-108632935D01*
X91786544Y-108540419D01*
X91699143Y-108466776D01*
X91595691Y-108422591D01*
X91476187Y-108407862D01*
X91356772Y-108422415D01*
X91253585Y-108466071D01*
X91166625Y-108538831D01*
X91100920Y-108629936D01*
X91061497Y-108728626D01*
X91048356Y-108834900D01*
X91056294Y-108915862D01*
X91099553Y-108961106D01*
X91188056Y-108976188D01*
X91269019Y-108966663D01*
X91311881Y-108938088D01*
X91326962Y-108898400D01*
X91329344Y-108846012D01*
X91329344Y-108836488D01*
X91335694Y-108799975D01*
X91377762Y-108726156D01*
X91465869Y-108688850D01*
X91545244Y-108703137D01*
X91587312Y-108734094D01*
X91611919Y-108776956D01*
X91623031Y-108817437D01*
X91608148Y-108886891D01*
X91563500Y-108952375D01*
X91497817Y-109012502D01*
X91419831Y-109065881D01*
X91335694Y-109116284D01*
X91251556Y-109167481D01*
X91173570Y-109224234D01*
X91107887Y-109291306D01*
X91063239Y-109366911D01*
X91048356Y-109449262D01*
X90021808Y-109449262D01*
X90012274Y-109429105D01*
X89975203Y-109325497D01*
X89948465Y-109218756D01*
X89932319Y-109109907D01*
X89926920Y-109000000D01*
X89932319Y-108890093D01*
X89948465Y-108781244D01*
X89975203Y-108674503D01*
X90012274Y-108570895D01*
X90059322Y-108471421D01*
X90115894Y-108377037D01*
X90181444Y-108288652D01*
X90255342Y-108207118D01*
X90336876Y-108133220D01*
X90425261Y-108067670D01*
X90519645Y-108011098D01*
X90619119Y-107964050D01*
X90722727Y-107926979D01*
X90829468Y-107900241D01*
X90938317Y-107884095D01*
X91048224Y-107878696D01*
X91048356Y-107878696D01*
X91951644Y-107878696D01*
X91951776Y-107878696D01*
X92061683Y-107884095D01*
G37*
G36*
X108999210Y-107881725D02*
G01*
X109108290Y-107897906D01*
X109215258Y-107924700D01*
X109319086Y-107961850D01*
X109418771Y-108008998D01*
X109513356Y-108065690D01*
X109601928Y-108131379D01*
X109683635Y-108205434D01*
X109757690Y-108287142D01*
X109823380Y-108375714D01*
X109880072Y-108470298D01*
X109927220Y-108569984D01*
X109964370Y-108673811D01*
X109991164Y-108780780D01*
X110007344Y-108889860D01*
X110012755Y-109000000D01*
X110007344Y-109110140D01*
X109991164Y-109219220D01*
X109964370Y-109326189D01*
X109927220Y-109430016D01*
X109880072Y-109529702D01*
X109823380Y-109624286D01*
X109757690Y-109712858D01*
X109683635Y-109794566D01*
X109601928Y-109868621D01*
X109513356Y-109934310D01*
X109418771Y-109991002D01*
X109319086Y-110038150D01*
X109215258Y-110075300D01*
X109108290Y-110102094D01*
X108999210Y-110118275D01*
X108889070Y-110123685D01*
X108888937Y-110123685D01*
X108490475Y-110123685D01*
X108111062Y-110123685D01*
X108110930Y-110123685D01*
X108000790Y-110118275D01*
X107891710Y-110102094D01*
X107784742Y-110075300D01*
X107680914Y-110038150D01*
X107581229Y-109991002D01*
X107486644Y-109934310D01*
X107398072Y-109868621D01*
X107316365Y-109794566D01*
X107242310Y-109712858D01*
X107176620Y-109624286D01*
X107119928Y-109529702D01*
X107072780Y-109430016D01*
X107056094Y-109383381D01*
X108111062Y-109383381D01*
X108171387Y-109478631D01*
X108184087Y-109489744D01*
X108223775Y-109519906D01*
X108306325Y-109561358D01*
X108395225Y-109586228D01*
X108490475Y-109594519D01*
X108597543Y-109581378D01*
X108692264Y-109541955D01*
X108774637Y-109476250D01*
X108838137Y-109392289D01*
X108876237Y-109298097D01*
X108888937Y-109193675D01*
X108875532Y-109089782D01*
X108835315Y-108997178D01*
X108768287Y-108915863D01*
X108684503Y-108852803D01*
X108594015Y-108814968D01*
X108496825Y-108802356D01*
X108441262Y-108805531D01*
X108457137Y-108684881D01*
X108734950Y-108684881D01*
X108786544Y-108682500D01*
X108825437Y-108667419D01*
X108855203Y-108628128D01*
X108865125Y-108551531D01*
X108854409Y-108467394D01*
X108822262Y-108424531D01*
X108780987Y-108409450D01*
X108725425Y-108407069D01*
X108576200Y-108407069D01*
X108334900Y-108405481D01*
X108270606Y-108420563D01*
X108229331Y-108454694D01*
X108206312Y-108497556D01*
X108195200Y-108530894D01*
X108186072Y-108596775D01*
X108161862Y-108775369D01*
X108138050Y-108956741D01*
X108130112Y-109030956D01*
X108147575Y-109069850D01*
X108221394Y-109118269D01*
X108321406Y-109148431D01*
X108407925Y-109111919D01*
X108484125Y-109083344D01*
X108569056Y-109114300D01*
X108606362Y-109198438D01*
X108572231Y-109281781D01*
X108467456Y-109311944D01*
X108368237Y-109278606D01*
X108261875Y-109227806D01*
X108169800Y-109280194D01*
X108111062Y-109383381D01*
X107056094Y-109383381D01*
X107035630Y-109326189D01*
X107008836Y-109219220D01*
X106992656Y-109110140D01*
X106987245Y-109000000D01*
X106992656Y-108889860D01*
X107008836Y-108780780D01*
X107035630Y-108673811D01*
X107072780Y-108569984D01*
X107119928Y-108470298D01*
X107176620Y-108375714D01*
X107242310Y-108287142D01*
X107316365Y-108205434D01*
X107398072Y-108131379D01*
X107486644Y-108065690D01*
X107581229Y-108008998D01*
X107680914Y-107961850D01*
X107784742Y-107924700D01*
X107891710Y-107897906D01*
X108000790Y-107881725D01*
X108110930Y-107876315D01*
X108111062Y-107876315D01*
X108888937Y-107876315D01*
X108889070Y-107876315D01*
X108999210Y-107881725D01*
G37*
X107170000Y-141170000D02*
X108500000Y-141170000D01*
X107170000Y-142500000D02*
X107170000Y-141170000D01*
X107170000Y-143770000D02*
X107170000Y-143830000D01*
X107170000Y-143770000D02*
X109830000Y-143770000D01*
X107170000Y-143830000D02*
X109830000Y-143830000D01*
X109830000Y-143770000D02*
X109830000Y-143830000D01*
X115670000Y-141170000D02*
X117000000Y-141170000D01*
X115670000Y-142500000D02*
X115670000Y-141170000D01*
X115670000Y-143770000D02*
X115670000Y-143830000D01*
X115670000Y-143770000D02*
X118330000Y-143770000D01*
X115670000Y-143830000D02*
X118330000Y-143830000D01*
X118330000Y-143770000D02*
X118330000Y-143830000D01*
%LPC*%
D12*
X91249998Y-99000000D02*
G75*
G03*
X91249998Y-99000000I-249999J0D01*
G01*
D13*
X101625000Y-120800000D02*
G75*
G03*
X101625000Y-120800000I-1625000J0D01*
G01*
D14*
G36*
X99000000Y-99500000D02*
G01*
X96000000Y-99500000D01*
X96000000Y-98500000D01*
X99000000Y-98500000D01*
X99000000Y-99500000D01*
G37*
D15*
X94250000Y-99000000D02*
G75*
G03*
X94250000Y-99000000I-250000J0D01*
G01*
G36*
X79750000Y-120672800D02*
G01*
X86250000Y-120672800D01*
X86250000Y-127272800D01*
X79750000Y-127272800D01*
X79750000Y-120672800D01*
G37*
D12*
X101249998Y-99000000D02*
G75*
G03*
X101249998Y-99000000I-249999J0D01*
G01*
D14*
G36*
X99500000Y-99000000D02*
G01*
X95500000Y-99000000D01*
X95500000Y-93500000D01*
X99500000Y-93500000D01*
X99500000Y-99000000D01*
G37*
G36*
X94000000Y-106500000D02*
G01*
X90500000Y-106500000D01*
X90500000Y-106000000D01*
X94500000Y-106000000D01*
X94000000Y-106500000D01*
G37*
D15*
X99250000Y-101000000D02*
G75*
G03*
X99250000Y-101000000I-250000J0D01*
G01*
X106250000Y-101000000D02*
G75*
G03*
X106250000Y-101000000I-250000J0D01*
G01*
G36*
X88250000Y-120672800D02*
G01*
X94750000Y-120672800D01*
X94750000Y-127272800D01*
X88250000Y-127272800D01*
X88250000Y-120672800D01*
G37*
X109250000Y-99000000D02*
G75*
G03*
X109250000Y-99000000I-250000J0D01*
G01*
G36*
X100500000Y-101000000D02*
G01*
X104500000Y-101000000D01*
X104500000Y-106500000D01*
X100500000Y-106500000D01*
X100500000Y-101000000D01*
G37*
G36*
X91000000Y-100500000D02*
G01*
X94000000Y-100500000D01*
X94000000Y-101500000D01*
X91000000Y-101500000D01*
X91000000Y-100500000D01*
G37*
G36*
X105250000Y-120672800D02*
G01*
X111750000Y-120672800D01*
X111750000Y-127272800D01*
X105250000Y-127272800D01*
X105250000Y-120672800D01*
G37*
D13*
X93125000Y-120800000D02*
G75*
G03*
X93125000Y-120800000I-1625000J0D01*
G01*
D12*
X96249998Y-99000000D02*
G75*
G03*
X96249998Y-99000000I-249999J0D01*
G01*
D15*
X104250000Y-101000000D02*
G75*
G03*
X104250000Y-101000000I-250000J0D01*
G01*
D14*
G36*
X104000000Y-99500000D02*
G01*
X101000000Y-99500000D01*
X101000000Y-98500000D01*
X104000000Y-98500000D01*
X104000000Y-99500000D01*
G37*
G36*
X95500000Y-101000000D02*
G01*
X99500000Y-101000000D01*
X99500000Y-106500000D01*
X95500000Y-106500000D01*
X95500000Y-101000000D01*
G37*
G36*
X104500000Y-99000000D02*
G01*
X100500000Y-99000000D01*
X100500000Y-93500000D01*
X104500000Y-93500000D01*
X104500000Y-99000000D01*
G37*
G36*
X101000000Y-100500000D02*
G01*
X104000000Y-100500000D01*
X104000000Y-101500000D01*
X101000000Y-101500000D01*
X101000000Y-100500000D01*
G37*
G36*
X106000000Y-100500000D02*
G01*
X109000000Y-100500000D01*
X109000000Y-101500000D01*
X106000000Y-101500000D01*
X106000000Y-100500000D01*
G37*
D13*
X84625000Y-127200000D02*
G75*
G03*
X84625000Y-127200000I-1625000J0D01*
G01*
D15*
X101250000Y-101000000D02*
G75*
G03*
X101250000Y-101000000I-250000J0D01*
G01*
D13*
X110125000Y-120800000D02*
G75*
G03*
X110125000Y-120800000I-1625000J0D01*
G01*
G36*
X96750000Y-120672800D02*
G01*
X103250000Y-120672800D01*
X103250000Y-127272800D01*
X96750000Y-127272800D01*
X96750000Y-120672800D01*
G37*
X118625000Y-127200000D02*
G75*
G03*
X118625000Y-127200000I-1625000J0D01*
G01*
X101625000Y-127200000D02*
G75*
G03*
X101625000Y-127200000I-1625000J0D01*
G01*
X93125000Y-127200000D02*
G75*
G03*
X93125000Y-127200000I-1625000J0D01*
G01*
X84625000Y-120800000D02*
G75*
G03*
X84625000Y-120800000I-1625000J0D01*
G01*
X118625000Y-120800000D02*
G75*
G03*
X118625000Y-120800000I-1625000J0D01*
G01*
D12*
X106249998Y-99000000D02*
G75*
G03*
X106249998Y-99000000I-249999J0D01*
G01*
G36*
X113750000Y-120672800D02*
G01*
X120250000Y-120672800D01*
X120250000Y-127272800D01*
X113750000Y-127272800D01*
X113750000Y-120672800D01*
G37*
D15*
X104250000Y-99000000D02*
G75*
G03*
X104250000Y-99000000I-250000J0D01*
G01*
G36*
X96000000Y-100500000D02*
G01*
X99000000Y-100500000D01*
X99000000Y-101500000D01*
X96000000Y-101500000D01*
X96000000Y-100500000D01*
G37*
G36*
X90500000Y-101000000D02*
G01*
X94500000Y-101000000D01*
X94500000Y-106000000D01*
X90500000Y-106000000D01*
X90500000Y-101000000D01*
G37*
G36*
X105500000Y-101000000D02*
G01*
X109500000Y-101000000D01*
X109500000Y-106500000D01*
X105500000Y-106500000D01*
X105500000Y-101000000D01*
G37*
X96250000Y-101000000D02*
G75*
G03*
X96250000Y-101000000I-250000J0D01*
G01*
X109250000Y-101000000D02*
G75*
G03*
X109250000Y-101000000I-250000J0D01*
G01*
X99250000Y-99000000D02*
G75*
G03*
X99250000Y-99000000I-250000J0D01*
G01*
X91250000Y-101000000D02*
G75*
G03*
X91250000Y-101000000I-250000J0D01*
G01*
D14*
G36*
X109500000Y-99000000D02*
G01*
X105500000Y-99000000D01*
X105500000Y-93500000D01*
X109500000Y-93500000D01*
X109500000Y-99000000D01*
G37*
D13*
X110125000Y-127200000D02*
G75*
G03*
X110125000Y-127200000I-1625000J0D01*
G01*
D14*
G36*
X109000000Y-99500000D02*
G01*
X106000000Y-99500000D01*
X106000000Y-98500000D01*
X109000000Y-98500000D01*
X109000000Y-99500000D01*
G37*
D15*
X94250000Y-101000000D02*
G75*
G03*
X94250000Y-101000000I-250000J0D01*
G01*
D14*
G36*
X94500000Y-99000000D02*
G01*
X90500000Y-99000000D01*
X90500000Y-93500000D01*
X94500000Y-93500000D01*
X94500000Y-99000000D01*
G37*
G36*
X94000000Y-99500000D02*
G01*
X91000000Y-99500000D01*
X91000000Y-98500000D01*
X94000000Y-98500000D01*
X94000000Y-99500000D01*
G37*
D16*
X91500000Y-142500000D03*
D17*
X97400000Y-103500000D03*
X107500000Y-96500000D03*
X102500000Y-96500000D03*
D16*
X100000000Y-142500000D03*
D17*
X97500000Y-96500000D03*
X92500000Y-103500000D03*
X102600000Y-103500000D03*
D16*
X83000000Y-142500000D03*
D17*
X107500000Y-103500000D03*
X92500000Y-96500000D03*
D16*
X108500000Y-142500000D03*
X117000000Y-142500000D03*
%LPD*%
M02*
