M48
; DRILL file {KiCad 7.0.7-7.0.7~ubuntu22.04.1} date Wed 13 Sep 2023 15:14:59 BST
; FORMAT={-:-/ absolute / inch / decimal}
; #@! TF.CreationDate,2023-09-13T15:14:59+01:00
; #@! TF.GenerationSoftware,Kicad,Pcbnew,7.0.7-7.0.7~ubuntu22.04.1
; #@! TF.FileFunction,Plated,1,4,PTH
FMAT,2
INCH
; #@! TA.AperFunction,Plated,PTH,ViaDrill
T1C0.0118
; #@! TA.AperFunction,Plated,PTH,ComponentDrill
T2C0.0315
; #@! TA.AperFunction,Plated,PTH,ComponentDrill
T3C0.0394
%
G90
G05
T1
X3.8425Y-3.9429
X3.8425Y-4.1043
X3.9843Y-4.1122
X4.0315Y-3.9272
X4.0315Y-4.0453
T3
X3.638Y-2.7874
X3.638Y-2.8874
X3.638Y-2.9874
X3.638Y-3.0874
X3.638Y-3.1874
X3.638Y-3.2874
X3.638Y-3.3874
X3.638Y-3.4874
X3.638Y-3.5874
X3.638Y-3.6874
X3.638Y-3.7874
X3.638Y-3.8874
X3.638Y-3.9874
X3.638Y-4.0874
X3.638Y-4.1874
X3.638Y-4.2874
X3.638Y-4.3874
X3.638Y-4.4874
X3.638Y-4.5874
X3.638Y-4.6874
X3.638Y-4.7874
X3.638Y-4.8874
X3.638Y-4.9874
X3.638Y-5.0874
X3.837Y-2.887
X3.837Y-2.987
X3.837Y-3.087
X4.037Y-2.887
X4.037Y-2.987
X4.037Y-3.087
X4.238Y-2.7874
X4.238Y-2.8874
X4.238Y-2.9874
X4.238Y-3.0874
X4.238Y-3.1874
X4.238Y-3.2874
X4.238Y-3.3874
X4.238Y-3.4874
X4.238Y-3.5874
X4.238Y-3.6874
X4.238Y-3.7874
X4.238Y-3.8874
X4.238Y-3.9874
X4.238Y-4.0874
X4.238Y-4.1874
X4.238Y-4.2874
X4.238Y-4.3874
X4.238Y-4.4874
X4.238Y-4.5874
X4.238Y-4.6874
X4.238Y-4.7874
X4.238Y-4.8874
X4.238Y-4.9874
X4.238Y-5.0874
T2
G00X3.8681Y-5.0295
M15
G01X3.8681Y-5.065
M16
G05
G00X3.9547Y-4.9567
M15
G01X3.9193Y-4.9567
M16
G05
G00X3.9547Y-5.2126
M15
G01X3.9193Y-5.2126
M16
G05
G00X4.0059Y-5.0295
M15
G01X4.0059Y-5.065
M16
G05
T0
M30
