%TF.GenerationSoftware,KiCad,Pcbnew,7.0.7-7.0.7~ubuntu22.04.1*%
%TF.CreationDate,2023-09-13T15:14:59+01:00*%
%TF.ProjectId,clvHd_master_teensy41,636c7648-645f-46d6-9173-7465725f7465,rev?*%
%TF.SameCoordinates,Original*%
%TF.FileFunction,Copper,L2,Inr*%
%TF.FilePolarity,Positive*%
%FSLAX46Y46*%
G04 Gerber Fmt 4.6, Leading zero omitted, Abs format (unit mm)*
G04 Created by KiCad (PCBNEW 7.0.7-7.0.7~ubuntu22.04.1) date 2023-09-13 15:14:59*
%MOMM*%
%LPD*%
G01*
G04 APERTURE LIST*
G04 Aperture macros list*
%AMRoundRect*
0 Rectangle with rounded corners*
0 $1 Rounding radius*
0 $2 $3 $4 $5 $6 $7 $8 $9 X,Y pos of 4 corners*
0 Add a 4 corners polygon primitive as box body*
4,1,4,$2,$3,$4,$5,$6,$7,$8,$9,$2,$3,0*
0 Add four circle primitives for the rounded corners*
1,1,$1+$1,$2,$3*
1,1,$1+$1,$4,$5*
1,1,$1+$1,$6,$7*
1,1,$1+$1,$8,$9*
0 Add four rect primitives between the rounded corners*
20,1,$1+$1,$2,$3,$4,$5,0*
20,1,$1+$1,$4,$5,$6,$7,0*
20,1,$1+$1,$6,$7,$8,$9,0*
20,1,$1+$1,$8,$9,$2,$3,0*%
G04 Aperture macros list end*
%TA.AperFunction,ComponentPad*%
%ADD10R,1.700000X1.700000*%
%TD*%
%TA.AperFunction,ComponentPad*%
%ADD11O,1.700000X1.700000*%
%TD*%
%TA.AperFunction,ComponentPad*%
%ADD12RoundRect,0.800000X-0.050000X-0.450000X0.050000X-0.450000X0.050000X0.450000X-0.050000X0.450000X0*%
%TD*%
%TA.AperFunction,ComponentPad*%
%ADD13RoundRect,0.800000X-0.450000X0.050000X-0.450000X-0.050000X0.450000X-0.050000X0.450000X0.050000X0*%
%TD*%
%TA.AperFunction,ComponentPad*%
%ADD14RoundRect,0.800000X-0.700000X0.050000X-0.700000X-0.050000X0.700000X-0.050000X0.700000X0.050000X0*%
%TD*%
%TA.AperFunction,ViaPad*%
%ADD15C,0.400000*%
%TD*%
G04 APERTURE END LIST*
D10*
%TO.N,unconnected-(J3-Pin_1-Pad1)*%
%TO.C,J3*%
X107645000Y-70800000D03*
D11*
%TO.N,GND*%
X107645000Y-73340000D03*
%TO.N,unconnected-(J3-Pin_3-Pad3)*%
X107645000Y-75880000D03*
%TO.N,unconnected-(J3-Pin_4-Pad4)*%
X107645000Y-78420000D03*
%TO.N,LED_OUT*%
X107645000Y-80960000D03*
%TO.N,unconnected-(J3-Pin_6-Pad6)*%
X107645000Y-83500000D03*
%TO.N,unconnected-(J3-Pin_7-Pad7)*%
X107645000Y-86040000D03*
%TO.N,I2C_SCL*%
X107645000Y-88580000D03*
%TO.N,I2C_SDA*%
X107645000Y-91120000D03*
%TO.N,unconnected-(J3-Pin_10-Pad10)*%
X107645000Y-93660000D03*
%TO.N,unconnected-(J3-Pin_11-Pad11)*%
X107645000Y-96200000D03*
%TO.N,unconnected-(J3-Pin_12-Pad12)*%
X107645000Y-98740000D03*
%TO.N,AUX1*%
X107645000Y-101280000D03*
%TO.N,SCLK*%
X107645000Y-103820000D03*
%TO.N,GND*%
X107645000Y-106360000D03*
%TO.N,unconnected-(J3-Pin_16-Pad16)*%
X107645000Y-108900000D03*
%TO.N,unconnected-(J3-Pin_17-Pad17)*%
X107645000Y-111440000D03*
%TO.N,unconnected-(J3-Pin_18-Pad18)*%
X107645000Y-113980000D03*
%TO.N,unconnected-(J3-Pin_19-Pad19)*%
X107645000Y-116520000D03*
%TO.N,AUX2*%
X107645000Y-119060000D03*
%TO.N,unconnected-(J3-Pin_21-Pad21)*%
X107645000Y-121600000D03*
%TO.N,unconnected-(J3-Pin_22-Pad22)*%
X107645000Y-124140000D03*
%TO.N,unconnected-(J3-Pin_23-Pad23)*%
X107645000Y-126680000D03*
%TO.N,unconnected-(J3-Pin_24-Pad24)*%
X107645000Y-129220000D03*
%TD*%
D10*
%TO.N,3V3_BAT*%
%TO.C,J6*%
X97460000Y-78410000D03*
D11*
%TO.N,+3.3V*%
X97460000Y-75870000D03*
%TO.N,3V3_TEENSY*%
X97460000Y-73330000D03*
%TD*%
D10*
%TO.N,5V_BAT*%
%TO.C,J2*%
X102540000Y-78410000D03*
D11*
%TO.N,+5VA*%
X102540000Y-75870000D03*
%TO.N,3V3_TEENSY*%
X102540000Y-73330000D03*
%TD*%
D10*
%TO.N,GND*%
%TO.C,J4*%
X92405000Y-70800000D03*
D11*
%TO.N,unconnected-(J4-Pin_2-Pad2)*%
X92405000Y-73340000D03*
%TO.N,unconnected-(J4-Pin_3-Pad3)*%
X92405000Y-75880000D03*
%TO.N,ADD_OUT1*%
X92405000Y-78420000D03*
%TO.N,ADD_OUT2*%
X92405000Y-80960000D03*
%TO.N,ADD_OUT3*%
X92405000Y-83500000D03*
%TO.N,ADD_OUT4*%
X92405000Y-86040000D03*
%TO.N,RESETB*%
X92405000Y-88580000D03*
%TO.N,unconnected-(J4-Pin_9-Pad9)*%
X92405000Y-91120000D03*
%TO.N,unconnected-(J4-Pin_10-Pad10)*%
X92405000Y-93660000D03*
%TO.N,unconnected-(J4-Pin_11-Pad11)*%
X92405000Y-96200000D03*
%TO.N,unconnected-(J4-Pin_12-Pad12)*%
X92405000Y-98740000D03*
%TO.N,MOSI_DIN*%
X92405000Y-101280000D03*
%TO.N,MISO_DOUT*%
X92405000Y-103820000D03*
%TO.N,3V3_TEENSY*%
X92405000Y-106360000D03*
%TO.N,unconnected-(J4-Pin_16-Pad16)*%
X92405000Y-108900000D03*
%TO.N,unconnected-(J4-Pin_17-Pad17)*%
X92405000Y-111440000D03*
%TO.N,unconnected-(J4-Pin_18-Pad18)*%
X92405000Y-113980000D03*
%TO.N,unconnected-(J4-Pin_19-Pad19)*%
X92405000Y-116520000D03*
%TO.N,unconnected-(J4-Pin_20-Pad20)*%
X92405000Y-119060000D03*
%TO.N,unconnected-(J4-Pin_21-Pad21)*%
X92405000Y-121600000D03*
%TO.N,unconnected-(J4-Pin_22-Pad22)*%
X92405000Y-124140000D03*
%TO.N,unconnected-(J4-Pin_23-Pad23)*%
X92405000Y-126680000D03*
%TO.N,unconnected-(J4-Pin_24-Pad24)*%
X92405000Y-129220000D03*
%TD*%
D12*
%TO.N,GND*%
%TO.C,J5*%
X101750000Y-128200000D03*
D13*
%TO.N,IN_ref*%
X100000000Y-125900000D03*
D12*
%TO.N,GND*%
X98250000Y-128200000D03*
D14*
%TO.N,IN_ref*%
X100000000Y-132400000D03*
%TD*%
D15*
%TO.N,+3.3V*%
X97600000Y-104250000D03*
%TO.N,+5VA*%
X101200000Y-104450000D03*
%TO.N,GND*%
X102400000Y-102750000D03*
X97600000Y-100150000D03*
%TO.N,IN_ref*%
X102400000Y-99750000D03*
%TD*%
%TA.AperFunction,Conductor*%
%TO.N,GND*%
G36*
X106001427Y-66010567D02*
G01*
X106365245Y-66027388D01*
X106370937Y-66027914D01*
X106730239Y-66078035D01*
X106735858Y-66079085D01*
X107088998Y-66162143D01*
X107094490Y-66163706D01*
X107438468Y-66278996D01*
X107443778Y-66281053D01*
X107775666Y-66427596D01*
X107780766Y-66430135D01*
X107892906Y-66492597D01*
X108097693Y-66606663D01*
X108102564Y-66609679D01*
X108401850Y-66814694D01*
X108406409Y-66818137D01*
X108685503Y-67049893D01*
X108689737Y-67053753D01*
X108946243Y-67310259D01*
X108950103Y-67314493D01*
X109181858Y-67593585D01*
X109185311Y-67598158D01*
X109390322Y-67897439D01*
X109393338Y-67902310D01*
X109482231Y-68061903D01*
X109546485Y-68177261D01*
X109569860Y-68219226D01*
X109572409Y-68224346D01*
X109718943Y-68556214D01*
X109721005Y-68561535D01*
X109741048Y-68621335D01*
X109836292Y-68905506D01*
X109837860Y-68911018D01*
X109920912Y-69264136D01*
X109921965Y-69269768D01*
X109972084Y-69629055D01*
X109972612Y-69634761D01*
X109989436Y-69998661D01*
X109989502Y-70001525D01*
X109989500Y-129996587D01*
X109989500Y-129998560D01*
X109989434Y-130001424D01*
X109972612Y-130365243D01*
X109972084Y-130370948D01*
X109921966Y-130730232D01*
X109920913Y-130735864D01*
X109837860Y-131088983D01*
X109836292Y-131094494D01*
X109721008Y-131438459D01*
X109718940Y-131443795D01*
X109689328Y-131510861D01*
X109572414Y-131775646D01*
X109569860Y-131780775D01*
X109393338Y-132097691D01*
X109390322Y-132102562D01*
X109185307Y-132401849D01*
X109181854Y-132406422D01*
X108950108Y-132685502D01*
X108946248Y-132689736D01*
X108689736Y-132946248D01*
X108685502Y-132950108D01*
X108406422Y-133181854D01*
X108401849Y-133185307D01*
X108102562Y-133390322D01*
X108097691Y-133393338D01*
X107780775Y-133569860D01*
X107775647Y-133572413D01*
X107443795Y-133718940D01*
X107438459Y-133721008D01*
X107094494Y-133836292D01*
X107088983Y-133837860D01*
X106735864Y-133920913D01*
X106730232Y-133921966D01*
X106370948Y-133972084D01*
X106365243Y-133972612D01*
X106001424Y-133989434D01*
X105998560Y-133989500D01*
X100865067Y-133989500D01*
X100798028Y-133969815D01*
X100752273Y-133917011D01*
X100742329Y-133847853D01*
X100771354Y-133784297D01*
X100830132Y-133746523D01*
X100854260Y-133741972D01*
X100858333Y-133741615D01*
X100926692Y-133735635D01*
X101146496Y-133676739D01*
X101352734Y-133580568D01*
X101539139Y-133450047D01*
X101700047Y-133289139D01*
X101830568Y-133102734D01*
X101926739Y-132896496D01*
X101985635Y-132676692D01*
X102000500Y-132506784D01*
X102000500Y-132293216D01*
X101985635Y-132123308D01*
X101926739Y-131903504D01*
X101830568Y-131697266D01*
X101700047Y-131510861D01*
X101700045Y-131510858D01*
X101539141Y-131349954D01*
X101352734Y-131219432D01*
X101352732Y-131219431D01*
X101146497Y-131123261D01*
X101146488Y-131123258D01*
X100926697Y-131064366D01*
X100926687Y-131064364D01*
X100874130Y-131059766D01*
X100809062Y-131034313D01*
X100768084Y-130977721D01*
X100764207Y-130907959D01*
X100777549Y-130874244D01*
X100790436Y-130851925D01*
X100846332Y-130679894D01*
X100865240Y-130500000D01*
X100846332Y-130320106D01*
X100790436Y-130148075D01*
X100704945Y-130000000D01*
X100699995Y-129991426D01*
X100699990Y-129991419D01*
X100578959Y-129857001D01*
X100578957Y-129856999D01*
X100432621Y-129750680D01*
X100432620Y-129750679D01*
X100282099Y-129683664D01*
X100267374Y-129677108D01*
X100267372Y-129677107D01*
X100138200Y-129649651D01*
X100090442Y-129639500D01*
X99909558Y-129639500D01*
X99861799Y-129649651D01*
X99732628Y-129677107D01*
X99567379Y-129750679D01*
X99567378Y-129750680D01*
X99421042Y-129856999D01*
X99421040Y-129857001D01*
X99300009Y-129991419D01*
X99300004Y-129991426D01*
X99209564Y-130148074D01*
X99209561Y-130148080D01*
X99153669Y-130320101D01*
X99153668Y-130320103D01*
X99134760Y-130500000D01*
X99153668Y-130679896D01*
X99153669Y-130679898D01*
X99209561Y-130851919D01*
X99209562Y-130851920D01*
X99209564Y-130851925D01*
X99222447Y-130874240D01*
X99238920Y-130942137D01*
X99216068Y-131008164D01*
X99161147Y-131051355D01*
X99125869Y-131059766D01*
X99073312Y-131064364D01*
X99073302Y-131064366D01*
X98853511Y-131123258D01*
X98853502Y-131123261D01*
X98647267Y-131219431D01*
X98647265Y-131219432D01*
X98460858Y-131349954D01*
X98299954Y-131510858D01*
X98169432Y-131697265D01*
X98169431Y-131697267D01*
X98073261Y-131903502D01*
X98073258Y-131903511D01*
X98014366Y-132123302D01*
X98014364Y-132123312D01*
X97999500Y-132293216D01*
X97999500Y-132506784D01*
X98014364Y-132676687D01*
X98014366Y-132676697D01*
X98073258Y-132896488D01*
X98073261Y-132896497D01*
X98169431Y-133102732D01*
X98169432Y-133102734D01*
X98299954Y-133289141D01*
X98460858Y-133450045D01*
X98460861Y-133450047D01*
X98647266Y-133580568D01*
X98853504Y-133676739D01*
X99073308Y-133735635D01*
X99140905Y-133741549D01*
X99145740Y-133741972D01*
X99210809Y-133767424D01*
X99251788Y-133824015D01*
X99255666Y-133893777D01*
X99221212Y-133954561D01*
X99159365Y-133987069D01*
X99134933Y-133989500D01*
X94001440Y-133989500D01*
X93998576Y-133989434D01*
X93634756Y-133972612D01*
X93629051Y-133972084D01*
X93269767Y-133921966D01*
X93264135Y-133920913D01*
X92911016Y-133837860D01*
X92905505Y-133836292D01*
X92700028Y-133767424D01*
X92561533Y-133721005D01*
X92556212Y-133718943D01*
X92224344Y-133572409D01*
X92219224Y-133569860D01*
X91902308Y-133393338D01*
X91897437Y-133390322D01*
X91598150Y-133185307D01*
X91593587Y-133181862D01*
X91314495Y-132950106D01*
X91310263Y-132946248D01*
X91053751Y-132689736D01*
X91049891Y-132685502D01*
X90818135Y-132406408D01*
X90814692Y-132401849D01*
X90609677Y-132102562D01*
X90606661Y-132097691D01*
X90498498Y-131903502D01*
X90430133Y-131780764D01*
X90427594Y-131775664D01*
X90281051Y-131443776D01*
X90278998Y-131438478D01*
X90163705Y-131094487D01*
X90162142Y-131088995D01*
X90079084Y-130735856D01*
X90078033Y-130730232D01*
X90071012Y-130679898D01*
X90027913Y-130370935D01*
X90027387Y-130365243D01*
X90010566Y-130001424D01*
X90010500Y-129998560D01*
X90010500Y-129996588D01*
X90010500Y-129220000D01*
X91049341Y-129220000D01*
X91069936Y-129455403D01*
X91069938Y-129455413D01*
X91131094Y-129683655D01*
X91131096Y-129683659D01*
X91131097Y-129683663D01*
X91211925Y-129856999D01*
X91230965Y-129897830D01*
X91230967Y-129897834D01*
X91300115Y-129996587D01*
X91366505Y-130091401D01*
X91533599Y-130258495D01*
X91621581Y-130320101D01*
X91727165Y-130394032D01*
X91727167Y-130394033D01*
X91727170Y-130394035D01*
X91941337Y-130493903D01*
X91941343Y-130493904D01*
X91941344Y-130493905D01*
X91996285Y-130508626D01*
X92169592Y-130555063D01*
X92357918Y-130571539D01*
X92404999Y-130575659D01*
X92405000Y-130575659D01*
X92405001Y-130575659D01*
X92444234Y-130572226D01*
X92640408Y-130555063D01*
X92868663Y-130493903D01*
X93082830Y-130394035D01*
X93276401Y-130258495D01*
X93443495Y-130091401D01*
X93579035Y-129897830D01*
X93678903Y-129683663D01*
X93740063Y-129455408D01*
X93760659Y-129220000D01*
X93740063Y-128984592D01*
X93678903Y-128756337D01*
X93579035Y-128542171D01*
X93514497Y-128450000D01*
X93443494Y-128348597D01*
X93276402Y-128181506D01*
X93276396Y-128181501D01*
X93090842Y-128051575D01*
X93047217Y-127996998D01*
X93042352Y-127950000D01*
X96900000Y-127950000D01*
X97726000Y-127950000D01*
X97793039Y-127969685D01*
X97838794Y-128022489D01*
X97850000Y-128074000D01*
X97850000Y-128326000D01*
X97830315Y-128393039D01*
X97777511Y-128438794D01*
X97726000Y-128450000D01*
X96900001Y-128450000D01*
X96900001Y-128706762D01*
X96914859Y-128876604D01*
X96914859Y-128876607D01*
X96973730Y-129096317D01*
X96973734Y-129096326D01*
X97069865Y-129302482D01*
X97200342Y-129488820D01*
X97361179Y-129649657D01*
X97547517Y-129780134D01*
X97753673Y-129876265D01*
X97753682Y-129876269D01*
X97973396Y-129935141D01*
X97999999Y-129937467D01*
X98000000Y-129937467D01*
X98000000Y-129160575D01*
X98019685Y-129093536D01*
X98072489Y-129047781D01*
X98141647Y-129037837D01*
X98143351Y-129038095D01*
X98197327Y-129046643D01*
X98249998Y-129054986D01*
X98250000Y-129054986D01*
X98250002Y-129054986D01*
X98302672Y-129046643D01*
X98356603Y-129038102D01*
X98425895Y-129047056D01*
X98479347Y-129092053D01*
X98499987Y-129158804D01*
X98500000Y-129160575D01*
X98500000Y-129937467D01*
X98526603Y-129935141D01*
X98746317Y-129876269D01*
X98746326Y-129876265D01*
X98952482Y-129780134D01*
X99138820Y-129649657D01*
X99299657Y-129488820D01*
X99430134Y-129302482D01*
X99526265Y-129096326D01*
X99526269Y-129096317D01*
X99585139Y-128876610D01*
X99585141Y-128876599D01*
X99600000Y-128706763D01*
X99600000Y-128450000D01*
X98774000Y-128450000D01*
X98706961Y-128430315D01*
X98661206Y-128377511D01*
X98650000Y-128326000D01*
X98650000Y-128074000D01*
X98669685Y-128006961D01*
X98722489Y-127961206D01*
X98774000Y-127950000D01*
X99599999Y-127950000D01*
X99599999Y-127693238D01*
X99585140Y-127523395D01*
X99585140Y-127523392D01*
X99553844Y-127406593D01*
X99555507Y-127336744D01*
X99594669Y-127278881D01*
X99658898Y-127251377D01*
X99673619Y-127250500D01*
X100326381Y-127250500D01*
X100393420Y-127270185D01*
X100439175Y-127322989D01*
X100449119Y-127392147D01*
X100446156Y-127406593D01*
X100414860Y-127523390D01*
X100414858Y-127523400D01*
X100400000Y-127693237D01*
X100400000Y-127950000D01*
X101226000Y-127950000D01*
X101293039Y-127969685D01*
X101338794Y-128022489D01*
X101350000Y-128074000D01*
X101350000Y-128326000D01*
X101330315Y-128393039D01*
X101277511Y-128438794D01*
X101226000Y-128450000D01*
X100400001Y-128450000D01*
X100400001Y-128706762D01*
X100414859Y-128876604D01*
X100414859Y-128876607D01*
X100473730Y-129096317D01*
X100473734Y-129096326D01*
X100569865Y-129302482D01*
X100700342Y-129488820D01*
X100861179Y-129649657D01*
X101047517Y-129780134D01*
X101253673Y-129876265D01*
X101253682Y-129876269D01*
X101473396Y-129935141D01*
X101499999Y-129937467D01*
X101500000Y-129937467D01*
X101500000Y-129160575D01*
X101519685Y-129093536D01*
X101572489Y-129047781D01*
X101641647Y-129037837D01*
X101643351Y-129038095D01*
X101697327Y-129046643D01*
X101749998Y-129054986D01*
X101750000Y-129054986D01*
X101750002Y-129054986D01*
X101802672Y-129046643D01*
X101856603Y-129038102D01*
X101925895Y-129047056D01*
X101979347Y-129092053D01*
X101999987Y-129158804D01*
X102000000Y-129160575D01*
X102000000Y-129937467D01*
X102026603Y-129935141D01*
X102246317Y-129876269D01*
X102246326Y-129876265D01*
X102452482Y-129780134D01*
X102638820Y-129649657D01*
X102799657Y-129488820D01*
X102930134Y-129302482D01*
X102968596Y-129220000D01*
X106289341Y-129220000D01*
X106309936Y-129455403D01*
X106309938Y-129455413D01*
X106371094Y-129683655D01*
X106371096Y-129683659D01*
X106371097Y-129683663D01*
X106451925Y-129856999D01*
X106470965Y-129897830D01*
X106470967Y-129897834D01*
X106540115Y-129996587D01*
X106606505Y-130091401D01*
X106773599Y-130258495D01*
X106861581Y-130320101D01*
X106967165Y-130394032D01*
X106967167Y-130394033D01*
X106967170Y-130394035D01*
X107181337Y-130493903D01*
X107181343Y-130493904D01*
X107181344Y-130493905D01*
X107236285Y-130508626D01*
X107409592Y-130555063D01*
X107597918Y-130571539D01*
X107644999Y-130575659D01*
X107645000Y-130575659D01*
X107645001Y-130575659D01*
X107684234Y-130572226D01*
X107880408Y-130555063D01*
X108108663Y-130493903D01*
X108322830Y-130394035D01*
X108516401Y-130258495D01*
X108683495Y-130091401D01*
X108819035Y-129897830D01*
X108918903Y-129683663D01*
X108980063Y-129455408D01*
X109000659Y-129220000D01*
X108980063Y-128984592D01*
X108918903Y-128756337D01*
X108819035Y-128542171D01*
X108754497Y-128450000D01*
X108683494Y-128348597D01*
X108516402Y-128181506D01*
X108516401Y-128181505D01*
X108330842Y-128051575D01*
X108330841Y-128051574D01*
X108287216Y-127996997D01*
X108280024Y-127927498D01*
X108311546Y-127865144D01*
X108330836Y-127848428D01*
X108516401Y-127718495D01*
X108683495Y-127551401D01*
X108819035Y-127357830D01*
X108918903Y-127143663D01*
X108980063Y-126915408D01*
X109000659Y-126680000D01*
X108980063Y-126444592D01*
X108918903Y-126216337D01*
X108819035Y-126002171D01*
X108683495Y-125808599D01*
X108683494Y-125808597D01*
X108516402Y-125641506D01*
X108516401Y-125641505D01*
X108330842Y-125511575D01*
X108330841Y-125511574D01*
X108287216Y-125456997D01*
X108280024Y-125387498D01*
X108311546Y-125325144D01*
X108330836Y-125308428D01*
X108516401Y-125178495D01*
X108683495Y-125011401D01*
X108819035Y-124817830D01*
X108918903Y-124603663D01*
X108980063Y-124375408D01*
X109000659Y-124140000D01*
X108980063Y-123904592D01*
X108918903Y-123676337D01*
X108819035Y-123462171D01*
X108683495Y-123268599D01*
X108683494Y-123268597D01*
X108516402Y-123101506D01*
X108516401Y-123101505D01*
X108330842Y-122971575D01*
X108330841Y-122971574D01*
X108287216Y-122916997D01*
X108280024Y-122847498D01*
X108311546Y-122785144D01*
X108330836Y-122768428D01*
X108516401Y-122638495D01*
X108683495Y-122471401D01*
X108819035Y-122277830D01*
X108918903Y-122063663D01*
X108980063Y-121835408D01*
X109000659Y-121600000D01*
X108980063Y-121364592D01*
X108918903Y-121136337D01*
X108819035Y-120922171D01*
X108683495Y-120728599D01*
X108683494Y-120728597D01*
X108516402Y-120561506D01*
X108516401Y-120561505D01*
X108330842Y-120431575D01*
X108330841Y-120431574D01*
X108287216Y-120376997D01*
X108280024Y-120307498D01*
X108311546Y-120245144D01*
X108330836Y-120228428D01*
X108516401Y-120098495D01*
X108683495Y-119931401D01*
X108819035Y-119737830D01*
X108918903Y-119523663D01*
X108980063Y-119295408D01*
X109000659Y-119060000D01*
X108980063Y-118824592D01*
X108918903Y-118596337D01*
X108819035Y-118382171D01*
X108683495Y-118188599D01*
X108683494Y-118188597D01*
X108516402Y-118021506D01*
X108516401Y-118021505D01*
X108330842Y-117891575D01*
X108330841Y-117891574D01*
X108287216Y-117836997D01*
X108280024Y-117767498D01*
X108311546Y-117705144D01*
X108330836Y-117688428D01*
X108516401Y-117558495D01*
X108683495Y-117391401D01*
X108819035Y-117197830D01*
X108918903Y-116983663D01*
X108980063Y-116755408D01*
X109000659Y-116520000D01*
X108980063Y-116284592D01*
X108918903Y-116056337D01*
X108819035Y-115842171D01*
X108683495Y-115648599D01*
X108683494Y-115648597D01*
X108516402Y-115481506D01*
X108516401Y-115481505D01*
X108330842Y-115351575D01*
X108330841Y-115351574D01*
X108287216Y-115296997D01*
X108280024Y-115227498D01*
X108311546Y-115165144D01*
X108330836Y-115148428D01*
X108516401Y-115018495D01*
X108683495Y-114851401D01*
X108819035Y-114657830D01*
X108918903Y-114443663D01*
X108980063Y-114215408D01*
X109000659Y-113980000D01*
X108980063Y-113744592D01*
X108918903Y-113516337D01*
X108819035Y-113302171D01*
X108683495Y-113108599D01*
X108683494Y-113108597D01*
X108516402Y-112941506D01*
X108516401Y-112941505D01*
X108330842Y-112811575D01*
X108330841Y-112811574D01*
X108287216Y-112756997D01*
X108280024Y-112687498D01*
X108311546Y-112625144D01*
X108330836Y-112608428D01*
X108516401Y-112478495D01*
X108683495Y-112311401D01*
X108819035Y-112117830D01*
X108918903Y-111903663D01*
X108980063Y-111675408D01*
X109000659Y-111440000D01*
X108980063Y-111204592D01*
X108918903Y-110976337D01*
X108819035Y-110762171D01*
X108683495Y-110568599D01*
X108683494Y-110568597D01*
X108516402Y-110401506D01*
X108516401Y-110401505D01*
X108330842Y-110271575D01*
X108330841Y-110271574D01*
X108287216Y-110216997D01*
X108280024Y-110147498D01*
X108311546Y-110085144D01*
X108330836Y-110068428D01*
X108516401Y-109938495D01*
X108683495Y-109771401D01*
X108819035Y-109577830D01*
X108918903Y-109363663D01*
X108980063Y-109135408D01*
X109000659Y-108900000D01*
X108980063Y-108664592D01*
X108918903Y-108436337D01*
X108819035Y-108222171D01*
X108683495Y-108028599D01*
X108683494Y-108028597D01*
X108516402Y-107861506D01*
X108516401Y-107861505D01*
X108330405Y-107731269D01*
X108286781Y-107676692D01*
X108279588Y-107607193D01*
X108311110Y-107544839D01*
X108330405Y-107528119D01*
X108516082Y-107398105D01*
X108683105Y-107231082D01*
X108818600Y-107037578D01*
X108918429Y-106823492D01*
X108918432Y-106823486D01*
X108975636Y-106610000D01*
X108258347Y-106610000D01*
X108191308Y-106590315D01*
X108145553Y-106537511D01*
X108135609Y-106468353D01*
X108139369Y-106451067D01*
X108145000Y-106431888D01*
X108145000Y-106288111D01*
X108139369Y-106268933D01*
X108139370Y-106199064D01*
X108177145Y-106140286D01*
X108240701Y-106111262D01*
X108258347Y-106110000D01*
X108975636Y-106110000D01*
X108975635Y-106109999D01*
X108918432Y-105896513D01*
X108918429Y-105896507D01*
X108818600Y-105682422D01*
X108818599Y-105682420D01*
X108683113Y-105488926D01*
X108683108Y-105488920D01*
X108516078Y-105321890D01*
X108330405Y-105191879D01*
X108286780Y-105137302D01*
X108279588Y-105067804D01*
X108311110Y-105005449D01*
X108330406Y-104988730D01*
X108385004Y-104950500D01*
X108516401Y-104858495D01*
X108683495Y-104691401D01*
X108819035Y-104497830D01*
X108918903Y-104283663D01*
X108980063Y-104055408D01*
X109000659Y-103820000D01*
X108980063Y-103584592D01*
X108918903Y-103356337D01*
X108819035Y-103142171D01*
X108683495Y-102948599D01*
X108683494Y-102948597D01*
X108516402Y-102781506D01*
X108516401Y-102781505D01*
X108330842Y-102651575D01*
X108330841Y-102651574D01*
X108287216Y-102596997D01*
X108280024Y-102527498D01*
X108311546Y-102465144D01*
X108330836Y-102448428D01*
X108516401Y-102318495D01*
X108683495Y-102151401D01*
X108819035Y-101957830D01*
X108918903Y-101743663D01*
X108980063Y-101515408D01*
X109000659Y-101280000D01*
X108980063Y-101044592D01*
X108918903Y-100816337D01*
X108819035Y-100602171D01*
X108712835Y-100450500D01*
X108683494Y-100408597D01*
X108516402Y-100241506D01*
X108516401Y-100241505D01*
X108330842Y-100111575D01*
X108330841Y-100111574D01*
X108287216Y-100056997D01*
X108280024Y-99987498D01*
X108311546Y-99925144D01*
X108330836Y-99908428D01*
X108516401Y-99778495D01*
X108683495Y-99611401D01*
X108819035Y-99417830D01*
X108918903Y-99203663D01*
X108980063Y-98975408D01*
X109000659Y-98740000D01*
X108980063Y-98504592D01*
X108918903Y-98276337D01*
X108819035Y-98062171D01*
X108683495Y-97868599D01*
X108683494Y-97868597D01*
X108516402Y-97701506D01*
X108516401Y-97701505D01*
X108330842Y-97571575D01*
X108330841Y-97571574D01*
X108287216Y-97516997D01*
X108280024Y-97447498D01*
X108311546Y-97385144D01*
X108330836Y-97368428D01*
X108516401Y-97238495D01*
X108683495Y-97071401D01*
X108819035Y-96877830D01*
X108918903Y-96663663D01*
X108980063Y-96435408D01*
X109000659Y-96200000D01*
X108980063Y-95964592D01*
X108918903Y-95736337D01*
X108819035Y-95522171D01*
X108683495Y-95328599D01*
X108683494Y-95328597D01*
X108516402Y-95161506D01*
X108516401Y-95161505D01*
X108330842Y-95031575D01*
X108330841Y-95031574D01*
X108287216Y-94976997D01*
X108280024Y-94907498D01*
X108311546Y-94845144D01*
X108330836Y-94828428D01*
X108516401Y-94698495D01*
X108683495Y-94531401D01*
X108819035Y-94337830D01*
X108918903Y-94123663D01*
X108980063Y-93895408D01*
X109000659Y-93660000D01*
X108980063Y-93424592D01*
X108918903Y-93196337D01*
X108819035Y-92982171D01*
X108683495Y-92788599D01*
X108683494Y-92788597D01*
X108516402Y-92621506D01*
X108516401Y-92621505D01*
X108330842Y-92491575D01*
X108330841Y-92491574D01*
X108287216Y-92436997D01*
X108280024Y-92367498D01*
X108311546Y-92305144D01*
X108330836Y-92288428D01*
X108516401Y-92158495D01*
X108683495Y-91991401D01*
X108819035Y-91797830D01*
X108918903Y-91583663D01*
X108980063Y-91355408D01*
X109000659Y-91120000D01*
X108980063Y-90884592D01*
X108918903Y-90656337D01*
X108819035Y-90442171D01*
X108683495Y-90248599D01*
X108683494Y-90248597D01*
X108516402Y-90081506D01*
X108516401Y-90081505D01*
X108330842Y-89951575D01*
X108330841Y-89951574D01*
X108287216Y-89896997D01*
X108280024Y-89827498D01*
X108311546Y-89765144D01*
X108330836Y-89748428D01*
X108516401Y-89618495D01*
X108683495Y-89451401D01*
X108819035Y-89257830D01*
X108918903Y-89043663D01*
X108980063Y-88815408D01*
X109000659Y-88580000D01*
X108980063Y-88344592D01*
X108918903Y-88116337D01*
X108819035Y-87902171D01*
X108683495Y-87708599D01*
X108683494Y-87708597D01*
X108516402Y-87541506D01*
X108516401Y-87541505D01*
X108330842Y-87411575D01*
X108330841Y-87411574D01*
X108287216Y-87356997D01*
X108280024Y-87287498D01*
X108311546Y-87225144D01*
X108330836Y-87208428D01*
X108516401Y-87078495D01*
X108683495Y-86911401D01*
X108819035Y-86717830D01*
X108918903Y-86503663D01*
X108980063Y-86275408D01*
X109000659Y-86040000D01*
X108980063Y-85804592D01*
X108918903Y-85576337D01*
X108819035Y-85362171D01*
X108683495Y-85168599D01*
X108683494Y-85168597D01*
X108516402Y-85001506D01*
X108516396Y-85001501D01*
X108330842Y-84871575D01*
X108287217Y-84816998D01*
X108280023Y-84747500D01*
X108311546Y-84685145D01*
X108330842Y-84668425D01*
X108353026Y-84652891D01*
X108516401Y-84538495D01*
X108683495Y-84371401D01*
X108819035Y-84177830D01*
X108918903Y-83963663D01*
X108980063Y-83735408D01*
X109000659Y-83500000D01*
X108980063Y-83264592D01*
X108918903Y-83036337D01*
X108819035Y-82822171D01*
X108683495Y-82628599D01*
X108683494Y-82628597D01*
X108516402Y-82461506D01*
X108516396Y-82461501D01*
X108330842Y-82331575D01*
X108287217Y-82276998D01*
X108280023Y-82207500D01*
X108311546Y-82145145D01*
X108330842Y-82128425D01*
X108353026Y-82112891D01*
X108516401Y-81998495D01*
X108683495Y-81831401D01*
X108819035Y-81637830D01*
X108918903Y-81423663D01*
X108980063Y-81195408D01*
X109000659Y-80960000D01*
X108980063Y-80724592D01*
X108918903Y-80496337D01*
X108819035Y-80282171D01*
X108683495Y-80088599D01*
X108683494Y-80088597D01*
X108516402Y-79921506D01*
X108516396Y-79921501D01*
X108330842Y-79791575D01*
X108287217Y-79736998D01*
X108280023Y-79667500D01*
X108311546Y-79605145D01*
X108330842Y-79588425D01*
X108453791Y-79502335D01*
X108516401Y-79458495D01*
X108683495Y-79291401D01*
X108819035Y-79097830D01*
X108918903Y-78883663D01*
X108980063Y-78655408D01*
X109000659Y-78420000D01*
X108980063Y-78184592D01*
X108918903Y-77956337D01*
X108819035Y-77742171D01*
X108683495Y-77548599D01*
X108683494Y-77548597D01*
X108516402Y-77381506D01*
X108516396Y-77381501D01*
X108330842Y-77251575D01*
X108287217Y-77196998D01*
X108280023Y-77127500D01*
X108311546Y-77065145D01*
X108330842Y-77048425D01*
X108408082Y-76994341D01*
X108516401Y-76918495D01*
X108683495Y-76751401D01*
X108819035Y-76557830D01*
X108918903Y-76343663D01*
X108980063Y-76115408D01*
X109000659Y-75880000D01*
X108980063Y-75644592D01*
X108918903Y-75416337D01*
X108819035Y-75202171D01*
X108683495Y-75008599D01*
X108683494Y-75008597D01*
X108516402Y-74841506D01*
X108516401Y-74841505D01*
X108330405Y-74711269D01*
X108286781Y-74656692D01*
X108279588Y-74587193D01*
X108311110Y-74524839D01*
X108330405Y-74508119D01*
X108516082Y-74378105D01*
X108683105Y-74211082D01*
X108818600Y-74017578D01*
X108918429Y-73803492D01*
X108918432Y-73803486D01*
X108975636Y-73590000D01*
X108258347Y-73590000D01*
X108191308Y-73570315D01*
X108145553Y-73517511D01*
X108135609Y-73448353D01*
X108139369Y-73431067D01*
X108145000Y-73411888D01*
X108145000Y-73268111D01*
X108139369Y-73248933D01*
X108139370Y-73179064D01*
X108177145Y-73120286D01*
X108240701Y-73091262D01*
X108258347Y-73090000D01*
X108975636Y-73090000D01*
X108975635Y-73089999D01*
X108918432Y-72876513D01*
X108918429Y-72876507D01*
X108818600Y-72662422D01*
X108818599Y-72662420D01*
X108683113Y-72468926D01*
X108683108Y-72468920D01*
X108561053Y-72346865D01*
X108527568Y-72285542D01*
X108532552Y-72215850D01*
X108574424Y-72159917D01*
X108605400Y-72143002D01*
X108737331Y-72093796D01*
X108852546Y-72007546D01*
X108938796Y-71892331D01*
X108989091Y-71757483D01*
X108995500Y-71697873D01*
X108995499Y-69902128D01*
X108989091Y-69842517D01*
X108981714Y-69822739D01*
X108938797Y-69707671D01*
X108938793Y-69707664D01*
X108852547Y-69592455D01*
X108852544Y-69592452D01*
X108737335Y-69506206D01*
X108737328Y-69506202D01*
X108602482Y-69455908D01*
X108602483Y-69455908D01*
X108542883Y-69449501D01*
X108542881Y-69449500D01*
X108542873Y-69449500D01*
X108542864Y-69449500D01*
X106747129Y-69449500D01*
X106747123Y-69449501D01*
X106687516Y-69455908D01*
X106552671Y-69506202D01*
X106552664Y-69506206D01*
X106437455Y-69592452D01*
X106437452Y-69592455D01*
X106351206Y-69707664D01*
X106351202Y-69707671D01*
X106300908Y-69842517D01*
X106294501Y-69902116D01*
X106294501Y-69902123D01*
X106294500Y-69902135D01*
X106294500Y-71697870D01*
X106294501Y-71697876D01*
X106300908Y-71757483D01*
X106351202Y-71892328D01*
X106351206Y-71892335D01*
X106437452Y-72007544D01*
X106437455Y-72007547D01*
X106552664Y-72093793D01*
X106552671Y-72093797D01*
X106552674Y-72093798D01*
X106684598Y-72143002D01*
X106740531Y-72184873D01*
X106764949Y-72250337D01*
X106750098Y-72318610D01*
X106728947Y-72346865D01*
X106606886Y-72468926D01*
X106471400Y-72662420D01*
X106471399Y-72662422D01*
X106371570Y-72876507D01*
X106371567Y-72876513D01*
X106314364Y-73089999D01*
X106314364Y-73090000D01*
X107031653Y-73090000D01*
X107098692Y-73109685D01*
X107144447Y-73162489D01*
X107154391Y-73231647D01*
X107150631Y-73248933D01*
X107145000Y-73268111D01*
X107145000Y-73411888D01*
X107150631Y-73431067D01*
X107150630Y-73500936D01*
X107112855Y-73559714D01*
X107049299Y-73588738D01*
X107031653Y-73590000D01*
X106314364Y-73590000D01*
X106371567Y-73803486D01*
X106371570Y-73803492D01*
X106471399Y-74017578D01*
X106606894Y-74211082D01*
X106773917Y-74378105D01*
X106959595Y-74508119D01*
X107003219Y-74562696D01*
X107010412Y-74632195D01*
X106978890Y-74694549D01*
X106959595Y-74711269D01*
X106773594Y-74841508D01*
X106606505Y-75008597D01*
X106470965Y-75202169D01*
X106470964Y-75202171D01*
X106371098Y-75416335D01*
X106371094Y-75416344D01*
X106309938Y-75644586D01*
X106309936Y-75644596D01*
X106289341Y-75879999D01*
X106289341Y-75880000D01*
X106309936Y-76115403D01*
X106309938Y-76115413D01*
X106371094Y-76343655D01*
X106371096Y-76343659D01*
X106371097Y-76343663D01*
X106466302Y-76547830D01*
X106470965Y-76557830D01*
X106470967Y-76557834D01*
X106579281Y-76712521D01*
X106599499Y-76741396D01*
X106606501Y-76751395D01*
X106606506Y-76751402D01*
X106773597Y-76918493D01*
X106773603Y-76918498D01*
X106959158Y-77048425D01*
X107002783Y-77103002D01*
X107009977Y-77172500D01*
X106978454Y-77234855D01*
X106959158Y-77251575D01*
X106773597Y-77381505D01*
X106606505Y-77548597D01*
X106470965Y-77742169D01*
X106470964Y-77742171D01*
X106371098Y-77956335D01*
X106371094Y-77956344D01*
X106309938Y-78184586D01*
X106309936Y-78184596D01*
X106289341Y-78419999D01*
X106289341Y-78420000D01*
X106309936Y-78655403D01*
X106309938Y-78655413D01*
X106371094Y-78883655D01*
X106371096Y-78883659D01*
X106371097Y-78883663D01*
X106470964Y-79097830D01*
X106470965Y-79097830D01*
X106470967Y-79097834D01*
X106606501Y-79291395D01*
X106606506Y-79291402D01*
X106773597Y-79458493D01*
X106773603Y-79458498D01*
X106959158Y-79588425D01*
X107002783Y-79643002D01*
X107009977Y-79712500D01*
X106978454Y-79774855D01*
X106959158Y-79791575D01*
X106773597Y-79921505D01*
X106606505Y-80088597D01*
X106470965Y-80282169D01*
X106470964Y-80282171D01*
X106371098Y-80496335D01*
X106371094Y-80496344D01*
X106309938Y-80724586D01*
X106309936Y-80724596D01*
X106289341Y-80959999D01*
X106289341Y-80960000D01*
X106309936Y-81195403D01*
X106309938Y-81195413D01*
X106371094Y-81423655D01*
X106371096Y-81423659D01*
X106371097Y-81423663D01*
X106470965Y-81637829D01*
X106470965Y-81637830D01*
X106470967Y-81637834D01*
X106606501Y-81831395D01*
X106606506Y-81831402D01*
X106773597Y-81998493D01*
X106773603Y-81998498D01*
X106959158Y-82128425D01*
X107002783Y-82183002D01*
X107009977Y-82252500D01*
X106978454Y-82314855D01*
X106959158Y-82331575D01*
X106773597Y-82461505D01*
X106606505Y-82628597D01*
X106470965Y-82822169D01*
X106470964Y-82822171D01*
X106371098Y-83036335D01*
X106371094Y-83036344D01*
X106309938Y-83264586D01*
X106309936Y-83264596D01*
X106289341Y-83499999D01*
X106289341Y-83500000D01*
X106309936Y-83735403D01*
X106309938Y-83735413D01*
X106371094Y-83963655D01*
X106371096Y-83963659D01*
X106371097Y-83963663D01*
X106470964Y-84177829D01*
X106470965Y-84177830D01*
X106470967Y-84177834D01*
X106606501Y-84371395D01*
X106606506Y-84371402D01*
X106773597Y-84538493D01*
X106773603Y-84538498D01*
X106959158Y-84668425D01*
X107002783Y-84723002D01*
X107009977Y-84792500D01*
X106978454Y-84854855D01*
X106959158Y-84871575D01*
X106773597Y-85001505D01*
X106606505Y-85168597D01*
X106470965Y-85362169D01*
X106470964Y-85362171D01*
X106371098Y-85576335D01*
X106371094Y-85576344D01*
X106309938Y-85804586D01*
X106309936Y-85804596D01*
X106289341Y-86039999D01*
X106289341Y-86040000D01*
X106309936Y-86275403D01*
X106309938Y-86275413D01*
X106371094Y-86503655D01*
X106371096Y-86503659D01*
X106371097Y-86503663D01*
X106470965Y-86717830D01*
X106470967Y-86717834D01*
X106606501Y-86911395D01*
X106606506Y-86911402D01*
X106773597Y-87078493D01*
X106773603Y-87078498D01*
X106959158Y-87208425D01*
X107002783Y-87263002D01*
X107009977Y-87332500D01*
X106978454Y-87394855D01*
X106959158Y-87411575D01*
X106773597Y-87541505D01*
X106606505Y-87708597D01*
X106470965Y-87902169D01*
X106470964Y-87902171D01*
X106371098Y-88116335D01*
X106371094Y-88116344D01*
X106309938Y-88344586D01*
X106309936Y-88344596D01*
X106289341Y-88579999D01*
X106289341Y-88580000D01*
X106309936Y-88815403D01*
X106309938Y-88815413D01*
X106371094Y-89043655D01*
X106371096Y-89043659D01*
X106371097Y-89043663D01*
X106470964Y-89257829D01*
X106470965Y-89257830D01*
X106470967Y-89257834D01*
X106606501Y-89451395D01*
X106606506Y-89451402D01*
X106773597Y-89618493D01*
X106773603Y-89618498D01*
X106959158Y-89748425D01*
X107002783Y-89803002D01*
X107009977Y-89872500D01*
X106978454Y-89934855D01*
X106959158Y-89951575D01*
X106773597Y-90081505D01*
X106606505Y-90248597D01*
X106470965Y-90442169D01*
X106470964Y-90442171D01*
X106371098Y-90656335D01*
X106371094Y-90656344D01*
X106309938Y-90884586D01*
X106309936Y-90884596D01*
X106289341Y-91119999D01*
X106289341Y-91120000D01*
X106309936Y-91355403D01*
X106309938Y-91355413D01*
X106371094Y-91583655D01*
X106371096Y-91583659D01*
X106371097Y-91583663D01*
X106470965Y-91797830D01*
X106470967Y-91797834D01*
X106606501Y-91991395D01*
X106606506Y-91991402D01*
X106773597Y-92158493D01*
X106773603Y-92158498D01*
X106959158Y-92288425D01*
X107002783Y-92343002D01*
X107009977Y-92412500D01*
X106978454Y-92474855D01*
X106959158Y-92491575D01*
X106773597Y-92621505D01*
X106606505Y-92788597D01*
X106470965Y-92982169D01*
X106470964Y-92982171D01*
X106371098Y-93196335D01*
X106371094Y-93196344D01*
X106309938Y-93424586D01*
X106309936Y-93424596D01*
X106289341Y-93659999D01*
X106289341Y-93660000D01*
X106309936Y-93895403D01*
X106309938Y-93895413D01*
X106371094Y-94123655D01*
X106371096Y-94123659D01*
X106371097Y-94123663D01*
X106470964Y-94337830D01*
X106470965Y-94337830D01*
X106470967Y-94337834D01*
X106606501Y-94531395D01*
X106606506Y-94531402D01*
X106773597Y-94698493D01*
X106773603Y-94698498D01*
X106959158Y-94828425D01*
X107002783Y-94883002D01*
X107009977Y-94952500D01*
X106978454Y-95014855D01*
X106959158Y-95031575D01*
X106773597Y-95161505D01*
X106606505Y-95328597D01*
X106470965Y-95522169D01*
X106470964Y-95522171D01*
X106371098Y-95736335D01*
X106371094Y-95736344D01*
X106309938Y-95964586D01*
X106309936Y-95964596D01*
X106289341Y-96199999D01*
X106289341Y-96200000D01*
X106309936Y-96435403D01*
X106309938Y-96435413D01*
X106371094Y-96663655D01*
X106371096Y-96663659D01*
X106371097Y-96663663D01*
X106470965Y-96877830D01*
X106470967Y-96877834D01*
X106606501Y-97071395D01*
X106606506Y-97071402D01*
X106773597Y-97238493D01*
X106773603Y-97238498D01*
X106959158Y-97368425D01*
X107002783Y-97423002D01*
X107009977Y-97492500D01*
X106978454Y-97554855D01*
X106959158Y-97571575D01*
X106773597Y-97701505D01*
X106606505Y-97868597D01*
X106470965Y-98062169D01*
X106470964Y-98062171D01*
X106371098Y-98276335D01*
X106371094Y-98276344D01*
X106309938Y-98504586D01*
X106309936Y-98504596D01*
X106289341Y-98739999D01*
X106289341Y-98740000D01*
X106309936Y-98975403D01*
X106309938Y-98975413D01*
X106371094Y-99203655D01*
X106371096Y-99203659D01*
X106371097Y-99203663D01*
X106407660Y-99282072D01*
X106470965Y-99417830D01*
X106470967Y-99417834D01*
X106579281Y-99572521D01*
X106585305Y-99581125D01*
X106606501Y-99611395D01*
X106606506Y-99611402D01*
X106773597Y-99778493D01*
X106773603Y-99778498D01*
X106959158Y-99908425D01*
X107002783Y-99963002D01*
X107009977Y-100032500D01*
X106978454Y-100094855D01*
X106959158Y-100111575D01*
X106773597Y-100241505D01*
X106606505Y-100408597D01*
X106470965Y-100602169D01*
X106470964Y-100602171D01*
X106371098Y-100816335D01*
X106371094Y-100816344D01*
X106309938Y-101044586D01*
X106309936Y-101044596D01*
X106289341Y-101279999D01*
X106289341Y-101280000D01*
X106309936Y-101515403D01*
X106309938Y-101515413D01*
X106371094Y-101743655D01*
X106371096Y-101743659D01*
X106371097Y-101743663D01*
X106470965Y-101957830D01*
X106470967Y-101957834D01*
X106606501Y-102151395D01*
X106606506Y-102151402D01*
X106773597Y-102318493D01*
X106773603Y-102318498D01*
X106959158Y-102448425D01*
X107002783Y-102503002D01*
X107009977Y-102572500D01*
X106978454Y-102634855D01*
X106959158Y-102651575D01*
X106773597Y-102781505D01*
X106606505Y-102948597D01*
X106470965Y-103142169D01*
X106470964Y-103142171D01*
X106371098Y-103356335D01*
X106371094Y-103356344D01*
X106309938Y-103584586D01*
X106309936Y-103584596D01*
X106289341Y-103819999D01*
X106289341Y-103820000D01*
X106309936Y-104055403D01*
X106309938Y-104055413D01*
X106371094Y-104283655D01*
X106371096Y-104283659D01*
X106371097Y-104283663D01*
X106470964Y-104497830D01*
X106470965Y-104497830D01*
X106470967Y-104497834D01*
X106606501Y-104691395D01*
X106606506Y-104691402D01*
X106773597Y-104858493D01*
X106773603Y-104858498D01*
X106959594Y-104988730D01*
X107003219Y-105043307D01*
X107010413Y-105112805D01*
X106978890Y-105175160D01*
X106959595Y-105191880D01*
X106773922Y-105321890D01*
X106773920Y-105321891D01*
X106606891Y-105488920D01*
X106606886Y-105488926D01*
X106471400Y-105682420D01*
X106471399Y-105682422D01*
X106371570Y-105896507D01*
X106371567Y-105896513D01*
X106314364Y-106109999D01*
X106314364Y-106110000D01*
X107031653Y-106110000D01*
X107098692Y-106129685D01*
X107144447Y-106182489D01*
X107154391Y-106251647D01*
X107150631Y-106268933D01*
X107145000Y-106288111D01*
X107145000Y-106431888D01*
X107150631Y-106451067D01*
X107150630Y-106520936D01*
X107112855Y-106579714D01*
X107049299Y-106608738D01*
X107031653Y-106610000D01*
X106314364Y-106610000D01*
X106371567Y-106823486D01*
X106371570Y-106823492D01*
X106471399Y-107037578D01*
X106606894Y-107231082D01*
X106773917Y-107398105D01*
X106959595Y-107528119D01*
X107003219Y-107582696D01*
X107010412Y-107652195D01*
X106978890Y-107714549D01*
X106959595Y-107731269D01*
X106773594Y-107861508D01*
X106606505Y-108028597D01*
X106470965Y-108222169D01*
X106470964Y-108222171D01*
X106371098Y-108436335D01*
X106371094Y-108436344D01*
X106309938Y-108664586D01*
X106309936Y-108664596D01*
X106289341Y-108899999D01*
X106289341Y-108900000D01*
X106309936Y-109135403D01*
X106309938Y-109135413D01*
X106371094Y-109363655D01*
X106371096Y-109363659D01*
X106371097Y-109363663D01*
X106470964Y-109577829D01*
X106470965Y-109577830D01*
X106470967Y-109577834D01*
X106606501Y-109771395D01*
X106606506Y-109771402D01*
X106773597Y-109938493D01*
X106773603Y-109938498D01*
X106959158Y-110068425D01*
X107002783Y-110123002D01*
X107009977Y-110192500D01*
X106978454Y-110254855D01*
X106959158Y-110271575D01*
X106773597Y-110401505D01*
X106606505Y-110568597D01*
X106470965Y-110762169D01*
X106470964Y-110762171D01*
X106371098Y-110976335D01*
X106371094Y-110976344D01*
X106309938Y-111204586D01*
X106309936Y-111204596D01*
X106289341Y-111439999D01*
X106289341Y-111440000D01*
X106309936Y-111675403D01*
X106309938Y-111675413D01*
X106371094Y-111903655D01*
X106371096Y-111903659D01*
X106371097Y-111903663D01*
X106470965Y-112117830D01*
X106470967Y-112117834D01*
X106606501Y-112311395D01*
X106606506Y-112311402D01*
X106773597Y-112478493D01*
X106773603Y-112478498D01*
X106959158Y-112608425D01*
X107002783Y-112663002D01*
X107009977Y-112732500D01*
X106978454Y-112794855D01*
X106959158Y-112811575D01*
X106773597Y-112941505D01*
X106606505Y-113108597D01*
X106470965Y-113302169D01*
X106470964Y-113302171D01*
X106371098Y-113516335D01*
X106371094Y-113516344D01*
X106309938Y-113744586D01*
X106309936Y-113744596D01*
X106289341Y-113979999D01*
X106289341Y-113980000D01*
X106309936Y-114215403D01*
X106309938Y-114215413D01*
X106371094Y-114443655D01*
X106371096Y-114443659D01*
X106371097Y-114443663D01*
X106470965Y-114657829D01*
X106470965Y-114657830D01*
X106470967Y-114657834D01*
X106606501Y-114851395D01*
X106606506Y-114851402D01*
X106773597Y-115018493D01*
X106773603Y-115018498D01*
X106959158Y-115148425D01*
X107002783Y-115203002D01*
X107009977Y-115272500D01*
X106978454Y-115334855D01*
X106959158Y-115351575D01*
X106773597Y-115481505D01*
X106606505Y-115648597D01*
X106470965Y-115842169D01*
X106470964Y-115842171D01*
X106371098Y-116056335D01*
X106371094Y-116056344D01*
X106309938Y-116284586D01*
X106309936Y-116284596D01*
X106289341Y-116519999D01*
X106289341Y-116520000D01*
X106309936Y-116755403D01*
X106309938Y-116755413D01*
X106371094Y-116983655D01*
X106371096Y-116983659D01*
X106371097Y-116983663D01*
X106468732Y-117193042D01*
X106470965Y-117197830D01*
X106470967Y-117197834D01*
X106606501Y-117391395D01*
X106606506Y-117391402D01*
X106773597Y-117558493D01*
X106773603Y-117558498D01*
X106959158Y-117688425D01*
X107002783Y-117743002D01*
X107009977Y-117812500D01*
X106978454Y-117874855D01*
X106959158Y-117891575D01*
X106773597Y-118021505D01*
X106606505Y-118188597D01*
X106470965Y-118382169D01*
X106470964Y-118382171D01*
X106371098Y-118596335D01*
X106371094Y-118596344D01*
X106309938Y-118824586D01*
X106309936Y-118824596D01*
X106289341Y-119059999D01*
X106289341Y-119060000D01*
X106309936Y-119295403D01*
X106309938Y-119295413D01*
X106371094Y-119523655D01*
X106371096Y-119523659D01*
X106371097Y-119523663D01*
X106470965Y-119737830D01*
X106470967Y-119737834D01*
X106606501Y-119931395D01*
X106606506Y-119931402D01*
X106773597Y-120098493D01*
X106773603Y-120098498D01*
X106959158Y-120228425D01*
X107002783Y-120283002D01*
X107009977Y-120352500D01*
X106978454Y-120414855D01*
X106959158Y-120431575D01*
X106773597Y-120561505D01*
X106606505Y-120728597D01*
X106470965Y-120922169D01*
X106470964Y-120922171D01*
X106371098Y-121136335D01*
X106371094Y-121136344D01*
X106309938Y-121364586D01*
X106309936Y-121364596D01*
X106289341Y-121599999D01*
X106289341Y-121600000D01*
X106309936Y-121835403D01*
X106309938Y-121835413D01*
X106371094Y-122063655D01*
X106371096Y-122063659D01*
X106371097Y-122063663D01*
X106470965Y-122277829D01*
X106470965Y-122277830D01*
X106470967Y-122277834D01*
X106606501Y-122471395D01*
X106606506Y-122471402D01*
X106773597Y-122638493D01*
X106773603Y-122638498D01*
X106959158Y-122768425D01*
X107002783Y-122823002D01*
X107009977Y-122892500D01*
X106978454Y-122954855D01*
X106959158Y-122971575D01*
X106773597Y-123101505D01*
X106606505Y-123268597D01*
X106470965Y-123462169D01*
X106470964Y-123462171D01*
X106371098Y-123676335D01*
X106371094Y-123676344D01*
X106309938Y-123904586D01*
X106309936Y-123904596D01*
X106289341Y-124139999D01*
X106289341Y-124140000D01*
X106309936Y-124375403D01*
X106309938Y-124375413D01*
X106371094Y-124603655D01*
X106371096Y-124603659D01*
X106371097Y-124603663D01*
X106380236Y-124623261D01*
X106470965Y-124817830D01*
X106470967Y-124817834D01*
X106606501Y-125011395D01*
X106606506Y-125011402D01*
X106773597Y-125178493D01*
X106773603Y-125178498D01*
X106959158Y-125308425D01*
X107002783Y-125363002D01*
X107009977Y-125432500D01*
X106978454Y-125494855D01*
X106959158Y-125511575D01*
X106773597Y-125641505D01*
X106606505Y-125808597D01*
X106470965Y-126002169D01*
X106470964Y-126002171D01*
X106371098Y-126216335D01*
X106371094Y-126216344D01*
X106309938Y-126444586D01*
X106309936Y-126444596D01*
X106289341Y-126679999D01*
X106289341Y-126680000D01*
X106309936Y-126915403D01*
X106309938Y-126915413D01*
X106371094Y-127143655D01*
X106371096Y-127143659D01*
X106371097Y-127143663D01*
X106445711Y-127303673D01*
X106470965Y-127357830D01*
X106470967Y-127357834D01*
X106578885Y-127511955D01*
X106586898Y-127523400D01*
X106606501Y-127551395D01*
X106606506Y-127551402D01*
X106773597Y-127718493D01*
X106773603Y-127718498D01*
X106959158Y-127848425D01*
X107002783Y-127903002D01*
X107009977Y-127972500D01*
X106978454Y-128034855D01*
X106959158Y-128051575D01*
X106773597Y-128181505D01*
X106606505Y-128348597D01*
X106470965Y-128542169D01*
X106470964Y-128542171D01*
X106371098Y-128756335D01*
X106371094Y-128756344D01*
X106309938Y-128984586D01*
X106309936Y-128984596D01*
X106289341Y-129219999D01*
X106289341Y-129220000D01*
X102968596Y-129220000D01*
X103026265Y-129096326D01*
X103026269Y-129096317D01*
X103085139Y-128876610D01*
X103085141Y-128876599D01*
X103100000Y-128706763D01*
X103100000Y-128450000D01*
X102274000Y-128450000D01*
X102206961Y-128430315D01*
X102161206Y-128377511D01*
X102150000Y-128326000D01*
X102150000Y-128074000D01*
X102169685Y-128006961D01*
X102222489Y-127961206D01*
X102274000Y-127950000D01*
X103099999Y-127950000D01*
X103099999Y-127693238D01*
X103085140Y-127523395D01*
X103085140Y-127523392D01*
X103026269Y-127303682D01*
X103026265Y-127303673D01*
X102930134Y-127097517D01*
X102799657Y-126911179D01*
X102638820Y-126750342D01*
X102452482Y-126619865D01*
X102246326Y-126523734D01*
X102246320Y-126523731D01*
X102026608Y-126464859D01*
X102026601Y-126464858D01*
X102000000Y-126462531D01*
X102000000Y-127239424D01*
X101980315Y-127306463D01*
X101927511Y-127352218D01*
X101858353Y-127362162D01*
X101856603Y-127361897D01*
X101750003Y-127345014D01*
X101750001Y-127345014D01*
X101750000Y-127345014D01*
X101643396Y-127361898D01*
X101574103Y-127352942D01*
X101520651Y-127307945D01*
X101500012Y-127241194D01*
X101499999Y-127239424D01*
X101499999Y-126756895D01*
X101519684Y-126689856D01*
X101522392Y-126685818D01*
X101580568Y-126602734D01*
X101676739Y-126396496D01*
X101735635Y-126176692D01*
X101750500Y-126006784D01*
X101750500Y-125793216D01*
X101735635Y-125623308D01*
X101676739Y-125403504D01*
X101580568Y-125197266D01*
X101450047Y-125010861D01*
X101450045Y-125010858D01*
X101289141Y-124849954D01*
X101102734Y-124719432D01*
X101102732Y-124719431D01*
X100896497Y-124623261D01*
X100896488Y-124623258D01*
X100676697Y-124564366D01*
X100676687Y-124564364D01*
X100506784Y-124549500D01*
X99493216Y-124549500D01*
X99323312Y-124564364D01*
X99323302Y-124564366D01*
X99103511Y-124623258D01*
X99103502Y-124623261D01*
X98897267Y-124719431D01*
X98897265Y-124719432D01*
X98710858Y-124849954D01*
X98549954Y-125010858D01*
X98419432Y-125197265D01*
X98419431Y-125197267D01*
X98323261Y-125403502D01*
X98323258Y-125403511D01*
X98264366Y-125623302D01*
X98264364Y-125623312D01*
X98249500Y-125793216D01*
X98249500Y-126006784D01*
X98264364Y-126176687D01*
X98264366Y-126176697D01*
X98323258Y-126396488D01*
X98323261Y-126396497D01*
X98419431Y-126602732D01*
X98419432Y-126602734D01*
X98477575Y-126685771D01*
X98499902Y-126751977D01*
X98500000Y-126756894D01*
X98500000Y-127239424D01*
X98480315Y-127306463D01*
X98427511Y-127352218D01*
X98358353Y-127362162D01*
X98356603Y-127361897D01*
X98250003Y-127345014D01*
X98249997Y-127345014D01*
X98143397Y-127361897D01*
X98074104Y-127352942D01*
X98020652Y-127307946D01*
X98000013Y-127241194D01*
X98000000Y-127239424D01*
X98000000Y-126462531D01*
X97973398Y-126464858D01*
X97973391Y-126464859D01*
X97753679Y-126523731D01*
X97753673Y-126523734D01*
X97547517Y-126619865D01*
X97361179Y-126750342D01*
X97200342Y-126911179D01*
X97069865Y-127097517D01*
X96973734Y-127303673D01*
X96973730Y-127303682D01*
X96914860Y-127523389D01*
X96914858Y-127523400D01*
X96900000Y-127693237D01*
X96900000Y-127950000D01*
X93042352Y-127950000D01*
X93040023Y-127927500D01*
X93071546Y-127865145D01*
X93090842Y-127848425D01*
X93113026Y-127832891D01*
X93276401Y-127718495D01*
X93443495Y-127551401D01*
X93579035Y-127357830D01*
X93678903Y-127143663D01*
X93740063Y-126915408D01*
X93760659Y-126680000D01*
X93740063Y-126444592D01*
X93678903Y-126216337D01*
X93579035Y-126002171D01*
X93443495Y-125808599D01*
X93443494Y-125808597D01*
X93276402Y-125641506D01*
X93276401Y-125641505D01*
X93090842Y-125511575D01*
X93090841Y-125511574D01*
X93047216Y-125456997D01*
X93040024Y-125387498D01*
X93071546Y-125325144D01*
X93090836Y-125308428D01*
X93276401Y-125178495D01*
X93443495Y-125011401D01*
X93579035Y-124817830D01*
X93678903Y-124603663D01*
X93740063Y-124375408D01*
X93760659Y-124140000D01*
X93740063Y-123904592D01*
X93678903Y-123676337D01*
X93579035Y-123462171D01*
X93443495Y-123268599D01*
X93443494Y-123268597D01*
X93276402Y-123101506D01*
X93276396Y-123101501D01*
X93090842Y-122971575D01*
X93047217Y-122916998D01*
X93040023Y-122847500D01*
X93071546Y-122785145D01*
X93090842Y-122768425D01*
X93113026Y-122752891D01*
X93276401Y-122638495D01*
X93443495Y-122471401D01*
X93579035Y-122277830D01*
X93678903Y-122063663D01*
X93740063Y-121835408D01*
X93760659Y-121600000D01*
X93740063Y-121364592D01*
X93678903Y-121136337D01*
X93579035Y-120922171D01*
X93443495Y-120728599D01*
X93443494Y-120728597D01*
X93276402Y-120561506D01*
X93276401Y-120561505D01*
X93090842Y-120431575D01*
X93090841Y-120431574D01*
X93047216Y-120376997D01*
X93040024Y-120307498D01*
X93071546Y-120245144D01*
X93090836Y-120228428D01*
X93276401Y-120098495D01*
X93443495Y-119931401D01*
X93579035Y-119737830D01*
X93678903Y-119523663D01*
X93740063Y-119295408D01*
X93760659Y-119060000D01*
X93740063Y-118824592D01*
X93678903Y-118596337D01*
X93579035Y-118382171D01*
X93443495Y-118188599D01*
X93443494Y-118188597D01*
X93276402Y-118021506D01*
X93276396Y-118021501D01*
X93090842Y-117891575D01*
X93047217Y-117836998D01*
X93040023Y-117767500D01*
X93071546Y-117705145D01*
X93090842Y-117688425D01*
X93268366Y-117564121D01*
X93276401Y-117558495D01*
X93443495Y-117391401D01*
X93579035Y-117197830D01*
X93671285Y-117000000D01*
X98984611Y-117000000D01*
X99004121Y-117198095D01*
X99061903Y-117388574D01*
X99155731Y-117564114D01*
X99155735Y-117564121D01*
X99282011Y-117717988D01*
X99435878Y-117844264D01*
X99435885Y-117844268D01*
X99611425Y-117938096D01*
X99611427Y-117938097D01*
X99801907Y-117995879D01*
X100000000Y-118015389D01*
X100198093Y-117995879D01*
X100388573Y-117938097D01*
X100564120Y-117844265D01*
X100717988Y-117717988D01*
X100844265Y-117564120D01*
X100938097Y-117388573D01*
X100995879Y-117198093D01*
X101015389Y-117000000D01*
X100995879Y-116801907D01*
X100938097Y-116611427D01*
X100844265Y-116435880D01*
X100844264Y-116435878D01*
X100717988Y-116282011D01*
X100564121Y-116155735D01*
X100564114Y-116155731D01*
X100388574Y-116061903D01*
X100198095Y-116004121D01*
X100000000Y-115984611D01*
X99801904Y-116004121D01*
X99611425Y-116061903D01*
X99435885Y-116155731D01*
X99435878Y-116155735D01*
X99282011Y-116282011D01*
X99155735Y-116435878D01*
X99155731Y-116435885D01*
X99061903Y-116611425D01*
X99004121Y-116801904D01*
X98984611Y-117000000D01*
X93671285Y-117000000D01*
X93678903Y-116983663D01*
X93740063Y-116755408D01*
X93760659Y-116520000D01*
X93740063Y-116284592D01*
X93678903Y-116056337D01*
X93579035Y-115842171D01*
X93443495Y-115648599D01*
X93443494Y-115648597D01*
X93276402Y-115481506D01*
X93276401Y-115481505D01*
X93090842Y-115351575D01*
X93090841Y-115351574D01*
X93047216Y-115296997D01*
X93040024Y-115227498D01*
X93071546Y-115165144D01*
X93090836Y-115148428D01*
X93276401Y-115018495D01*
X93443495Y-114851401D01*
X93579035Y-114657830D01*
X93678903Y-114443663D01*
X93740063Y-114215408D01*
X93760659Y-113980000D01*
X93740063Y-113744592D01*
X93678903Y-113516337D01*
X93579035Y-113302171D01*
X93443495Y-113108599D01*
X93443494Y-113108597D01*
X93276402Y-112941506D01*
X93276396Y-112941501D01*
X93090842Y-112811575D01*
X93047217Y-112756998D01*
X93040023Y-112687500D01*
X93071546Y-112625145D01*
X93090842Y-112608425D01*
X93113026Y-112592891D01*
X93276401Y-112478495D01*
X93443495Y-112311401D01*
X93579035Y-112117830D01*
X93678903Y-111903663D01*
X93740063Y-111675408D01*
X93760659Y-111440000D01*
X93740063Y-111204592D01*
X93678903Y-110976337D01*
X93579035Y-110762171D01*
X93443495Y-110568599D01*
X93443494Y-110568597D01*
X93276402Y-110401506D01*
X93276401Y-110401505D01*
X93090842Y-110271575D01*
X93090841Y-110271574D01*
X93047216Y-110216997D01*
X93040024Y-110147498D01*
X93071546Y-110085144D01*
X93090836Y-110068428D01*
X93276401Y-109938495D01*
X93443495Y-109771401D01*
X93579035Y-109577830D01*
X93678903Y-109363663D01*
X93740063Y-109135408D01*
X93760659Y-108900000D01*
X93740063Y-108664592D01*
X93678903Y-108436337D01*
X93579035Y-108222171D01*
X93443495Y-108028599D01*
X93443494Y-108028597D01*
X93276402Y-107861506D01*
X93276396Y-107861501D01*
X93090842Y-107731575D01*
X93047217Y-107676998D01*
X93040023Y-107607500D01*
X93071546Y-107545145D01*
X93090842Y-107528425D01*
X93113026Y-107512891D01*
X93276401Y-107398495D01*
X93443495Y-107231401D01*
X93579035Y-107037830D01*
X93678903Y-106823663D01*
X93740063Y-106595408D01*
X93760659Y-106360000D01*
X93740063Y-106124592D01*
X93678903Y-105896337D01*
X93579035Y-105682171D01*
X93443495Y-105488599D01*
X93443494Y-105488597D01*
X93276402Y-105321506D01*
X93276401Y-105321505D01*
X93154746Y-105236321D01*
X93090841Y-105191574D01*
X93047216Y-105136997D01*
X93040024Y-105067498D01*
X93071546Y-105005144D01*
X93090836Y-104988428D01*
X93276401Y-104858495D01*
X93443495Y-104691401D01*
X93579035Y-104497830D01*
X93678903Y-104283663D01*
X93687923Y-104249999D01*
X96894355Y-104249999D01*
X96914859Y-104418869D01*
X96914860Y-104418874D01*
X96975182Y-104577931D01*
X97037475Y-104668177D01*
X97071817Y-104717929D01*
X97139546Y-104777931D01*
X97199150Y-104830736D01*
X97349773Y-104909789D01*
X97349775Y-104909790D01*
X97514944Y-104950500D01*
X97685056Y-104950500D01*
X97850225Y-104909790D01*
X97947953Y-104858498D01*
X98000849Y-104830736D01*
X98000850Y-104830734D01*
X98000852Y-104830734D01*
X98128183Y-104717929D01*
X98224818Y-104577930D01*
X98273335Y-104450000D01*
X100494355Y-104450000D01*
X100514859Y-104618869D01*
X100514860Y-104618874D01*
X100575182Y-104777931D01*
X100630791Y-104858493D01*
X100671817Y-104917929D01*
X100751390Y-104988424D01*
X100799150Y-105030736D01*
X100919505Y-105093903D01*
X100949775Y-105109790D01*
X101114944Y-105150500D01*
X101285056Y-105150500D01*
X101450225Y-105109790D01*
X101530805Y-105067498D01*
X101600849Y-105030736D01*
X101600850Y-105030734D01*
X101600852Y-105030734D01*
X101728183Y-104917929D01*
X101824818Y-104777930D01*
X101885140Y-104618872D01*
X101905645Y-104450000D01*
X101885140Y-104281128D01*
X101873334Y-104249999D01*
X101824817Y-104122068D01*
X101778801Y-104055403D01*
X101728183Y-103982071D01*
X101600852Y-103869266D01*
X101600849Y-103869263D01*
X101450226Y-103790210D01*
X101285056Y-103749500D01*
X101114944Y-103749500D01*
X100949773Y-103790210D01*
X100799150Y-103869263D01*
X100671816Y-103982072D01*
X100575182Y-104122068D01*
X100514860Y-104281125D01*
X100514859Y-104281130D01*
X100494355Y-104450000D01*
X98273335Y-104450000D01*
X98285140Y-104418872D01*
X98305645Y-104250000D01*
X98285140Y-104081128D01*
X98224818Y-103922070D01*
X98128183Y-103782071D01*
X98000852Y-103669266D01*
X98000849Y-103669263D01*
X97850226Y-103590210D01*
X97685056Y-103549500D01*
X97514944Y-103549500D01*
X97349773Y-103590210D01*
X97199150Y-103669263D01*
X97071816Y-103782072D01*
X96975182Y-103922068D01*
X96914860Y-104081125D01*
X96914859Y-104081130D01*
X96894355Y-104249999D01*
X93687923Y-104249999D01*
X93740063Y-104055408D01*
X93760659Y-103820000D01*
X93740063Y-103584592D01*
X93678903Y-103356337D01*
X93579035Y-103142171D01*
X93443495Y-102948599D01*
X93443494Y-102948597D01*
X93276402Y-102781506D01*
X93276396Y-102781501D01*
X93090842Y-102651575D01*
X93047217Y-102596998D01*
X93040023Y-102527500D01*
X93071546Y-102465145D01*
X93090842Y-102448425D01*
X93113026Y-102432891D01*
X93276401Y-102318495D01*
X93443495Y-102151401D01*
X93579035Y-101957830D01*
X93678903Y-101743663D01*
X93740063Y-101515408D01*
X93760659Y-101280000D01*
X93740063Y-101044592D01*
X93678903Y-100816337D01*
X93579035Y-100602171D01*
X93472835Y-100450500D01*
X93443494Y-100408597D01*
X93276402Y-100241506D01*
X93276401Y-100241505D01*
X93090842Y-100111575D01*
X93090841Y-100111574D01*
X93047216Y-100056997D01*
X93040024Y-99987498D01*
X93071546Y-99925144D01*
X93090836Y-99908428D01*
X93276401Y-99778495D01*
X93304896Y-99750000D01*
X101694355Y-99750000D01*
X101714859Y-99918869D01*
X101714860Y-99918874D01*
X101775182Y-100077931D01*
X101837475Y-100168177D01*
X101871817Y-100217929D01*
X101977505Y-100311560D01*
X101999150Y-100330736D01*
X102147502Y-100408597D01*
X102149775Y-100409790D01*
X102314944Y-100450500D01*
X102485056Y-100450500D01*
X102650225Y-100409790D01*
X102729692Y-100368081D01*
X102800849Y-100330736D01*
X102800850Y-100330734D01*
X102800852Y-100330734D01*
X102928183Y-100217929D01*
X103024818Y-100077930D01*
X103085140Y-99918872D01*
X103105645Y-99750000D01*
X103085140Y-99581128D01*
X103024818Y-99422070D01*
X103021891Y-99417830D01*
X102990476Y-99372318D01*
X102928183Y-99282071D01*
X102800852Y-99169266D01*
X102800849Y-99169263D01*
X102650226Y-99090210D01*
X102485056Y-99049500D01*
X102314944Y-99049500D01*
X102149773Y-99090210D01*
X101999150Y-99169263D01*
X101871816Y-99282072D01*
X101775182Y-99422068D01*
X101714860Y-99581125D01*
X101714859Y-99581130D01*
X101694355Y-99750000D01*
X93304896Y-99750000D01*
X93443495Y-99611401D01*
X93579035Y-99417830D01*
X93678903Y-99203663D01*
X93740063Y-98975408D01*
X93760659Y-98740000D01*
X93740063Y-98504592D01*
X93678903Y-98276337D01*
X93579035Y-98062171D01*
X93443495Y-97868599D01*
X93443494Y-97868597D01*
X93276402Y-97701506D01*
X93276396Y-97701501D01*
X93090842Y-97571575D01*
X93047217Y-97516998D01*
X93040023Y-97447500D01*
X93071546Y-97385145D01*
X93090842Y-97368425D01*
X93113026Y-97352891D01*
X93276401Y-97238495D01*
X93443495Y-97071401D01*
X93579035Y-96877830D01*
X93678903Y-96663663D01*
X93740063Y-96435408D01*
X93760659Y-96200000D01*
X93740063Y-95964592D01*
X93678903Y-95736337D01*
X93579035Y-95522171D01*
X93443495Y-95328599D01*
X93443494Y-95328597D01*
X93276402Y-95161506D01*
X93276401Y-95161505D01*
X93090842Y-95031575D01*
X93090841Y-95031574D01*
X93047216Y-94976997D01*
X93040024Y-94907498D01*
X93071546Y-94845144D01*
X93090836Y-94828428D01*
X93276401Y-94698495D01*
X93443495Y-94531401D01*
X93579035Y-94337830D01*
X93678903Y-94123663D01*
X93740063Y-93895408D01*
X93760659Y-93660000D01*
X93740063Y-93424592D01*
X93678903Y-93196337D01*
X93579035Y-92982171D01*
X93443495Y-92788599D01*
X93443494Y-92788597D01*
X93276402Y-92621506D01*
X93276401Y-92621505D01*
X93090842Y-92491575D01*
X93090841Y-92491574D01*
X93047216Y-92436997D01*
X93040024Y-92367498D01*
X93071546Y-92305144D01*
X93090836Y-92288428D01*
X93276401Y-92158495D01*
X93443495Y-91991401D01*
X93579035Y-91797830D01*
X93678903Y-91583663D01*
X93740063Y-91355408D01*
X93760659Y-91120000D01*
X93740063Y-90884592D01*
X93678903Y-90656337D01*
X93579035Y-90442171D01*
X93443495Y-90248599D01*
X93443494Y-90248597D01*
X93276402Y-90081506D01*
X93276401Y-90081505D01*
X93090842Y-89951575D01*
X93090841Y-89951574D01*
X93047216Y-89896997D01*
X93040024Y-89827498D01*
X93071546Y-89765144D01*
X93090836Y-89748428D01*
X93276401Y-89618495D01*
X93443495Y-89451401D01*
X93579035Y-89257830D01*
X93678903Y-89043663D01*
X93740063Y-88815408D01*
X93760659Y-88580000D01*
X93740063Y-88344592D01*
X93678903Y-88116337D01*
X93579035Y-87902171D01*
X93443495Y-87708599D01*
X93443494Y-87708597D01*
X93276402Y-87541506D01*
X93276401Y-87541505D01*
X93090842Y-87411575D01*
X93090841Y-87411574D01*
X93047216Y-87356997D01*
X93040024Y-87287498D01*
X93071546Y-87225144D01*
X93090836Y-87208428D01*
X93276401Y-87078495D01*
X93443495Y-86911401D01*
X93579035Y-86717830D01*
X93678903Y-86503663D01*
X93740063Y-86275408D01*
X93760659Y-86040000D01*
X93740063Y-85804592D01*
X93678903Y-85576337D01*
X93579035Y-85362171D01*
X93443495Y-85168599D01*
X93443494Y-85168597D01*
X93276402Y-85001506D01*
X93276401Y-85001505D01*
X93090842Y-84871575D01*
X93090841Y-84871574D01*
X93047216Y-84816997D01*
X93040024Y-84747498D01*
X93071546Y-84685144D01*
X93090836Y-84668428D01*
X93276401Y-84538495D01*
X93443495Y-84371401D01*
X93579035Y-84177830D01*
X93678903Y-83963663D01*
X93740063Y-83735408D01*
X93760659Y-83500000D01*
X93740063Y-83264592D01*
X93678903Y-83036337D01*
X93579035Y-82822171D01*
X93443495Y-82628599D01*
X93443494Y-82628597D01*
X93276402Y-82461506D01*
X93276401Y-82461505D01*
X93090842Y-82331575D01*
X93090841Y-82331574D01*
X93047216Y-82276997D01*
X93040024Y-82207498D01*
X93071546Y-82145144D01*
X93090836Y-82128428D01*
X93276401Y-81998495D01*
X93443495Y-81831401D01*
X93579035Y-81637830D01*
X93678903Y-81423663D01*
X93740063Y-81195408D01*
X93760659Y-80960000D01*
X93740063Y-80724592D01*
X93678903Y-80496337D01*
X93579035Y-80282171D01*
X93443495Y-80088599D01*
X93443494Y-80088597D01*
X93276402Y-79921506D01*
X93276401Y-79921505D01*
X93090842Y-79791575D01*
X93090841Y-79791574D01*
X93047216Y-79736997D01*
X93040024Y-79667498D01*
X93071546Y-79605144D01*
X93090836Y-79588428D01*
X93276401Y-79458495D01*
X93443495Y-79291401D01*
X93579035Y-79097830D01*
X93678903Y-78883663D01*
X93740063Y-78655408D01*
X93760659Y-78420000D01*
X93740063Y-78184592D01*
X93678903Y-77956337D01*
X93579035Y-77742171D01*
X93443495Y-77548599D01*
X93443494Y-77548597D01*
X93276402Y-77381506D01*
X93276401Y-77381505D01*
X93090842Y-77251575D01*
X93090841Y-77251574D01*
X93047216Y-77196997D01*
X93040024Y-77127498D01*
X93071546Y-77065144D01*
X93090836Y-77048428D01*
X93276401Y-76918495D01*
X93443495Y-76751401D01*
X93579035Y-76557830D01*
X93678903Y-76343663D01*
X93740063Y-76115408D01*
X93760659Y-75880000D01*
X93759784Y-75870000D01*
X96104341Y-75870000D01*
X96124936Y-76105403D01*
X96124938Y-76105413D01*
X96186094Y-76333655D01*
X96186096Y-76333659D01*
X96186097Y-76333663D01*
X96190761Y-76343664D01*
X96285965Y-76547830D01*
X96285967Y-76547834D01*
X96394281Y-76702521D01*
X96421501Y-76741396D01*
X96421506Y-76741402D01*
X96543430Y-76863326D01*
X96576915Y-76924649D01*
X96571931Y-76994341D01*
X96530059Y-77050274D01*
X96499083Y-77067189D01*
X96367669Y-77116203D01*
X96367664Y-77116206D01*
X96252455Y-77202452D01*
X96252452Y-77202455D01*
X96166206Y-77317664D01*
X96166202Y-77317671D01*
X96115908Y-77452517D01*
X96109501Y-77512116D01*
X96109501Y-77512123D01*
X96109500Y-77512135D01*
X96109500Y-79307870D01*
X96109501Y-79307876D01*
X96115908Y-79367483D01*
X96166202Y-79502328D01*
X96166206Y-79502335D01*
X96252452Y-79617544D01*
X96252455Y-79617547D01*
X96367664Y-79703793D01*
X96367671Y-79703797D01*
X96502517Y-79754091D01*
X96502516Y-79754091D01*
X96509444Y-79754835D01*
X96562127Y-79760500D01*
X98357872Y-79760499D01*
X98417483Y-79754091D01*
X98552331Y-79703796D01*
X98667546Y-79617546D01*
X98753796Y-79502331D01*
X98804091Y-79367483D01*
X98810500Y-79307873D01*
X98810499Y-77512128D01*
X98804091Y-77452517D01*
X98777605Y-77381505D01*
X98753797Y-77317671D01*
X98753793Y-77317664D01*
X98667547Y-77202455D01*
X98667544Y-77202452D01*
X98552335Y-77116206D01*
X98552328Y-77116202D01*
X98420917Y-77067189D01*
X98364983Y-77025318D01*
X98340566Y-76959853D01*
X98355418Y-76891580D01*
X98376563Y-76863332D01*
X98498495Y-76741401D01*
X98634035Y-76547830D01*
X98733903Y-76333663D01*
X98795063Y-76105408D01*
X98815659Y-75870000D01*
X101184341Y-75870000D01*
X101204936Y-76105403D01*
X101204938Y-76105413D01*
X101266094Y-76333655D01*
X101266096Y-76333659D01*
X101266097Y-76333663D01*
X101270761Y-76343664D01*
X101365965Y-76547830D01*
X101365967Y-76547834D01*
X101474281Y-76702521D01*
X101501501Y-76741396D01*
X101501506Y-76741402D01*
X101623430Y-76863326D01*
X101656915Y-76924649D01*
X101651931Y-76994341D01*
X101610059Y-77050274D01*
X101579083Y-77067189D01*
X101447669Y-77116203D01*
X101447664Y-77116206D01*
X101332455Y-77202452D01*
X101332452Y-77202455D01*
X101246206Y-77317664D01*
X101246202Y-77317671D01*
X101195908Y-77452517D01*
X101189501Y-77512116D01*
X101189501Y-77512123D01*
X101189500Y-77512135D01*
X101189500Y-79307870D01*
X101189501Y-79307876D01*
X101195908Y-79367483D01*
X101246202Y-79502328D01*
X101246206Y-79502335D01*
X101332452Y-79617544D01*
X101332455Y-79617547D01*
X101447664Y-79703793D01*
X101447671Y-79703797D01*
X101582517Y-79754091D01*
X101582516Y-79754091D01*
X101589444Y-79754835D01*
X101642127Y-79760500D01*
X103437872Y-79760499D01*
X103497483Y-79754091D01*
X103632331Y-79703796D01*
X103747546Y-79617546D01*
X103833796Y-79502331D01*
X103884091Y-79367483D01*
X103890500Y-79307873D01*
X103890499Y-77512128D01*
X103884091Y-77452517D01*
X103857605Y-77381505D01*
X103833797Y-77317671D01*
X103833793Y-77317664D01*
X103747547Y-77202455D01*
X103747544Y-77202452D01*
X103632335Y-77116206D01*
X103632328Y-77116202D01*
X103500917Y-77067189D01*
X103444983Y-77025318D01*
X103420566Y-76959853D01*
X103435418Y-76891580D01*
X103456563Y-76863332D01*
X103578495Y-76741401D01*
X103714035Y-76547830D01*
X103813903Y-76333663D01*
X103875063Y-76105408D01*
X103895659Y-75870000D01*
X103875063Y-75634592D01*
X103816584Y-75416344D01*
X103813905Y-75406344D01*
X103813904Y-75406343D01*
X103813903Y-75406337D01*
X103714035Y-75192171D01*
X103578495Y-74998599D01*
X103578494Y-74998597D01*
X103411402Y-74831506D01*
X103411396Y-74831501D01*
X103225842Y-74701575D01*
X103182217Y-74646998D01*
X103175023Y-74577500D01*
X103206546Y-74515145D01*
X103225842Y-74498425D01*
X103397115Y-74378498D01*
X103411401Y-74368495D01*
X103578495Y-74201401D01*
X103714035Y-74007830D01*
X103813903Y-73793663D01*
X103875063Y-73565408D01*
X103895659Y-73330000D01*
X103875063Y-73094592D01*
X103816584Y-72876344D01*
X103813905Y-72866344D01*
X103813904Y-72866343D01*
X103813903Y-72866337D01*
X103714035Y-72652171D01*
X103578495Y-72458599D01*
X103578494Y-72458597D01*
X103411402Y-72291506D01*
X103411395Y-72291501D01*
X103217834Y-72155967D01*
X103217830Y-72155965D01*
X103188785Y-72142421D01*
X103003663Y-72056097D01*
X103003659Y-72056096D01*
X103003655Y-72056094D01*
X102775413Y-71994938D01*
X102775403Y-71994936D01*
X102540001Y-71974341D01*
X102539999Y-71974341D01*
X102304596Y-71994936D01*
X102304586Y-71994938D01*
X102076344Y-72056094D01*
X102076335Y-72056098D01*
X101862171Y-72155964D01*
X101862169Y-72155965D01*
X101668597Y-72291505D01*
X101501505Y-72458597D01*
X101365965Y-72652169D01*
X101365964Y-72652171D01*
X101266098Y-72866335D01*
X101266094Y-72866344D01*
X101204938Y-73094586D01*
X101204936Y-73094596D01*
X101184341Y-73329999D01*
X101184341Y-73330000D01*
X101204936Y-73565403D01*
X101204938Y-73565413D01*
X101266094Y-73793655D01*
X101266096Y-73793659D01*
X101266097Y-73793663D01*
X101365964Y-74007830D01*
X101365965Y-74007830D01*
X101365967Y-74007834D01*
X101501501Y-74201395D01*
X101501506Y-74201402D01*
X101668597Y-74368493D01*
X101668603Y-74368498D01*
X101854158Y-74498425D01*
X101897783Y-74553002D01*
X101904977Y-74622500D01*
X101873454Y-74684855D01*
X101854158Y-74701575D01*
X101668597Y-74831505D01*
X101501505Y-74998597D01*
X101365965Y-75192169D01*
X101365964Y-75192171D01*
X101266098Y-75406335D01*
X101266094Y-75406344D01*
X101204938Y-75634586D01*
X101204936Y-75634596D01*
X101184341Y-75869999D01*
X101184341Y-75870000D01*
X98815659Y-75870000D01*
X98795063Y-75634592D01*
X98736584Y-75416344D01*
X98733905Y-75406344D01*
X98733904Y-75406343D01*
X98733903Y-75406337D01*
X98634035Y-75192171D01*
X98498495Y-74998599D01*
X98498494Y-74998597D01*
X98331402Y-74831506D01*
X98331396Y-74831501D01*
X98145842Y-74701575D01*
X98102217Y-74646998D01*
X98095023Y-74577500D01*
X98126546Y-74515145D01*
X98145842Y-74498425D01*
X98317115Y-74378498D01*
X98331401Y-74368495D01*
X98498495Y-74201401D01*
X98634035Y-74007830D01*
X98733903Y-73793663D01*
X98795063Y-73565408D01*
X98815659Y-73330000D01*
X98795063Y-73094592D01*
X98736584Y-72876344D01*
X98733905Y-72866344D01*
X98733904Y-72866343D01*
X98733903Y-72866337D01*
X98634035Y-72652171D01*
X98498495Y-72458599D01*
X98498494Y-72458597D01*
X98331402Y-72291506D01*
X98331395Y-72291501D01*
X98137834Y-72155967D01*
X98137830Y-72155965D01*
X98108785Y-72142421D01*
X97923663Y-72056097D01*
X97923659Y-72056096D01*
X97923655Y-72056094D01*
X97695413Y-71994938D01*
X97695403Y-71994936D01*
X97460001Y-71974341D01*
X97459999Y-71974341D01*
X97224596Y-71994936D01*
X97224586Y-71994938D01*
X96996344Y-72056094D01*
X96996335Y-72056098D01*
X96782171Y-72155964D01*
X96782169Y-72155965D01*
X96588597Y-72291505D01*
X96421505Y-72458597D01*
X96285965Y-72652169D01*
X96285964Y-72652171D01*
X96186098Y-72866335D01*
X96186094Y-72866344D01*
X96124938Y-73094586D01*
X96124936Y-73094596D01*
X96104341Y-73329999D01*
X96104341Y-73330000D01*
X96124936Y-73565403D01*
X96124938Y-73565413D01*
X96186094Y-73793655D01*
X96186096Y-73793659D01*
X96186097Y-73793663D01*
X96285964Y-74007829D01*
X96285965Y-74007830D01*
X96285967Y-74007834D01*
X96421501Y-74201395D01*
X96421506Y-74201402D01*
X96588597Y-74368493D01*
X96588603Y-74368498D01*
X96774158Y-74498425D01*
X96817783Y-74553002D01*
X96824977Y-74622500D01*
X96793454Y-74684855D01*
X96774158Y-74701575D01*
X96588597Y-74831505D01*
X96421505Y-74998597D01*
X96285965Y-75192169D01*
X96285964Y-75192171D01*
X96186098Y-75406335D01*
X96186094Y-75406344D01*
X96124938Y-75634586D01*
X96124936Y-75634596D01*
X96104341Y-75869999D01*
X96104341Y-75870000D01*
X93759784Y-75870000D01*
X93740063Y-75644592D01*
X93678903Y-75416337D01*
X93579035Y-75202171D01*
X93443495Y-75008599D01*
X93443494Y-75008597D01*
X93276402Y-74841506D01*
X93276396Y-74841501D01*
X93090842Y-74711575D01*
X93047217Y-74656998D01*
X93040023Y-74587500D01*
X93071546Y-74525145D01*
X93090842Y-74508425D01*
X93113026Y-74492891D01*
X93276401Y-74378495D01*
X93443495Y-74211401D01*
X93579035Y-74017830D01*
X93678903Y-73803663D01*
X93740063Y-73575408D01*
X93760659Y-73340000D01*
X93740063Y-73104592D01*
X93678903Y-72876337D01*
X93579035Y-72662171D01*
X93443495Y-72468599D01*
X93321179Y-72346283D01*
X93287696Y-72284963D01*
X93292680Y-72215271D01*
X93334551Y-72159337D01*
X93365529Y-72142422D01*
X93497086Y-72093354D01*
X93497093Y-72093350D01*
X93612187Y-72007190D01*
X93612190Y-72007187D01*
X93698350Y-71892093D01*
X93698354Y-71892086D01*
X93748596Y-71757379D01*
X93748598Y-71757372D01*
X93754999Y-71697844D01*
X93755000Y-71697827D01*
X93755000Y-71050000D01*
X93018347Y-71050000D01*
X92951308Y-71030315D01*
X92905553Y-70977511D01*
X92895609Y-70908353D01*
X92899369Y-70891067D01*
X92905000Y-70871888D01*
X92905000Y-70728111D01*
X92899369Y-70708933D01*
X92899370Y-70639064D01*
X92937145Y-70580286D01*
X93000701Y-70551262D01*
X93018347Y-70550000D01*
X93754999Y-70550000D01*
X93755000Y-69902172D01*
X93754999Y-69902155D01*
X93748598Y-69842627D01*
X93748596Y-69842620D01*
X93698354Y-69707913D01*
X93698350Y-69707906D01*
X93612190Y-69592812D01*
X93612187Y-69592809D01*
X93497093Y-69506649D01*
X93497086Y-69506645D01*
X93362379Y-69456403D01*
X93362372Y-69456401D01*
X93302844Y-69450000D01*
X92655000Y-69450000D01*
X92655000Y-70187698D01*
X92635315Y-70254737D01*
X92582511Y-70300492D01*
X92513355Y-70310436D01*
X92440766Y-70300000D01*
X92440763Y-70300000D01*
X92369237Y-70300000D01*
X92369233Y-70300000D01*
X92296645Y-70310436D01*
X92227487Y-70300492D01*
X92174684Y-70254736D01*
X92155000Y-70187698D01*
X92155000Y-69450000D01*
X91507155Y-69450000D01*
X91447627Y-69456401D01*
X91447620Y-69456403D01*
X91312913Y-69506645D01*
X91312906Y-69506649D01*
X91197812Y-69592809D01*
X91197809Y-69592812D01*
X91111649Y-69707906D01*
X91111645Y-69707913D01*
X91061403Y-69842620D01*
X91061401Y-69842627D01*
X91055000Y-69902155D01*
X91055000Y-70550000D01*
X91791653Y-70550000D01*
X91858692Y-70569685D01*
X91904447Y-70622489D01*
X91914391Y-70691647D01*
X91910631Y-70708933D01*
X91905000Y-70728111D01*
X91905000Y-70871888D01*
X91910631Y-70891067D01*
X91910630Y-70960936D01*
X91872855Y-71019714D01*
X91809299Y-71048738D01*
X91791653Y-71050000D01*
X91055000Y-71050000D01*
X91055000Y-71697844D01*
X91061401Y-71757372D01*
X91061403Y-71757379D01*
X91111645Y-71892086D01*
X91111649Y-71892093D01*
X91197809Y-72007187D01*
X91197812Y-72007190D01*
X91312906Y-72093350D01*
X91312913Y-72093354D01*
X91444470Y-72142421D01*
X91500403Y-72184292D01*
X91524821Y-72249756D01*
X91509970Y-72318029D01*
X91488819Y-72346284D01*
X91366503Y-72468600D01*
X91230965Y-72662169D01*
X91230964Y-72662171D01*
X91131098Y-72876335D01*
X91131094Y-72876344D01*
X91069938Y-73104586D01*
X91069936Y-73104596D01*
X91049341Y-73339999D01*
X91049341Y-73340000D01*
X91069936Y-73575403D01*
X91069938Y-73575413D01*
X91131094Y-73803655D01*
X91131096Y-73803659D01*
X91131097Y-73803663D01*
X91226302Y-74007830D01*
X91230965Y-74017830D01*
X91230967Y-74017834D01*
X91366501Y-74211395D01*
X91366506Y-74211402D01*
X91533597Y-74378493D01*
X91533603Y-74378498D01*
X91719158Y-74508425D01*
X91762783Y-74563002D01*
X91769977Y-74632500D01*
X91738454Y-74694855D01*
X91719158Y-74711575D01*
X91533597Y-74841505D01*
X91366505Y-75008597D01*
X91230965Y-75202169D01*
X91230964Y-75202171D01*
X91131098Y-75416335D01*
X91131094Y-75416344D01*
X91069938Y-75644586D01*
X91069936Y-75644596D01*
X91049341Y-75879999D01*
X91049341Y-75880000D01*
X91069936Y-76115403D01*
X91069938Y-76115413D01*
X91131094Y-76343655D01*
X91131096Y-76343659D01*
X91131097Y-76343663D01*
X91226302Y-76547830D01*
X91230965Y-76557830D01*
X91230967Y-76557834D01*
X91339281Y-76712521D01*
X91359499Y-76741396D01*
X91366501Y-76751395D01*
X91366506Y-76751402D01*
X91533597Y-76918493D01*
X91533603Y-76918498D01*
X91719158Y-77048425D01*
X91762783Y-77103002D01*
X91769977Y-77172500D01*
X91738454Y-77234855D01*
X91719158Y-77251575D01*
X91533597Y-77381505D01*
X91366505Y-77548597D01*
X91230965Y-77742169D01*
X91230964Y-77742171D01*
X91131098Y-77956335D01*
X91131094Y-77956344D01*
X91069938Y-78184586D01*
X91069936Y-78184596D01*
X91049341Y-78419999D01*
X91049341Y-78420000D01*
X91069936Y-78655403D01*
X91069938Y-78655413D01*
X91131094Y-78883655D01*
X91131096Y-78883659D01*
X91131097Y-78883663D01*
X91230964Y-79097829D01*
X91230965Y-79097830D01*
X91230967Y-79097834D01*
X91366501Y-79291395D01*
X91366506Y-79291402D01*
X91533597Y-79458493D01*
X91533603Y-79458498D01*
X91719158Y-79588425D01*
X91762783Y-79643002D01*
X91769977Y-79712500D01*
X91738454Y-79774855D01*
X91719158Y-79791575D01*
X91533597Y-79921505D01*
X91366505Y-80088597D01*
X91230965Y-80282169D01*
X91230964Y-80282171D01*
X91131098Y-80496335D01*
X91131094Y-80496344D01*
X91069938Y-80724586D01*
X91069936Y-80724596D01*
X91049341Y-80959999D01*
X91049341Y-80960000D01*
X91069936Y-81195403D01*
X91069938Y-81195413D01*
X91131094Y-81423655D01*
X91131096Y-81423659D01*
X91131097Y-81423663D01*
X91230965Y-81637829D01*
X91230965Y-81637830D01*
X91230967Y-81637834D01*
X91366501Y-81831395D01*
X91366506Y-81831402D01*
X91533597Y-81998493D01*
X91533603Y-81998498D01*
X91719158Y-82128425D01*
X91762783Y-82183002D01*
X91769977Y-82252500D01*
X91738454Y-82314855D01*
X91719158Y-82331575D01*
X91533597Y-82461505D01*
X91366505Y-82628597D01*
X91230965Y-82822169D01*
X91230964Y-82822171D01*
X91131098Y-83036335D01*
X91131094Y-83036344D01*
X91069938Y-83264586D01*
X91069936Y-83264596D01*
X91049341Y-83499999D01*
X91049341Y-83500000D01*
X91069936Y-83735403D01*
X91069938Y-83735413D01*
X91131094Y-83963655D01*
X91131096Y-83963659D01*
X91131097Y-83963663D01*
X91230965Y-84177829D01*
X91230965Y-84177830D01*
X91230967Y-84177834D01*
X91366501Y-84371395D01*
X91366506Y-84371402D01*
X91533597Y-84538493D01*
X91533603Y-84538498D01*
X91719158Y-84668425D01*
X91762783Y-84723002D01*
X91769977Y-84792500D01*
X91738454Y-84854855D01*
X91719158Y-84871575D01*
X91533597Y-85001505D01*
X91366505Y-85168597D01*
X91230965Y-85362169D01*
X91230964Y-85362171D01*
X91131098Y-85576335D01*
X91131094Y-85576344D01*
X91069938Y-85804586D01*
X91069936Y-85804596D01*
X91049341Y-86039999D01*
X91049341Y-86040000D01*
X91069936Y-86275403D01*
X91069938Y-86275413D01*
X91131094Y-86503655D01*
X91131096Y-86503659D01*
X91131097Y-86503663D01*
X91230965Y-86717830D01*
X91230967Y-86717834D01*
X91366501Y-86911395D01*
X91366506Y-86911402D01*
X91533597Y-87078493D01*
X91533603Y-87078498D01*
X91719158Y-87208425D01*
X91762783Y-87263002D01*
X91769977Y-87332500D01*
X91738454Y-87394855D01*
X91719158Y-87411575D01*
X91533597Y-87541505D01*
X91366505Y-87708597D01*
X91230965Y-87902169D01*
X91230964Y-87902171D01*
X91131098Y-88116335D01*
X91131094Y-88116344D01*
X91069938Y-88344586D01*
X91069936Y-88344596D01*
X91049341Y-88579999D01*
X91049341Y-88580000D01*
X91069936Y-88815403D01*
X91069938Y-88815413D01*
X91131094Y-89043655D01*
X91131096Y-89043659D01*
X91131097Y-89043663D01*
X91230965Y-89257829D01*
X91230965Y-89257830D01*
X91230967Y-89257834D01*
X91366501Y-89451395D01*
X91366506Y-89451402D01*
X91533597Y-89618493D01*
X91533603Y-89618498D01*
X91719158Y-89748425D01*
X91762783Y-89803002D01*
X91769977Y-89872500D01*
X91738454Y-89934855D01*
X91719158Y-89951575D01*
X91533597Y-90081505D01*
X91366505Y-90248597D01*
X91230965Y-90442169D01*
X91230964Y-90442171D01*
X91131098Y-90656335D01*
X91131094Y-90656344D01*
X91069938Y-90884586D01*
X91069936Y-90884596D01*
X91049341Y-91119999D01*
X91049341Y-91120000D01*
X91069936Y-91355403D01*
X91069938Y-91355413D01*
X91131094Y-91583655D01*
X91131096Y-91583659D01*
X91131097Y-91583663D01*
X91230965Y-91797830D01*
X91230967Y-91797834D01*
X91366501Y-91991395D01*
X91366506Y-91991402D01*
X91533597Y-92158493D01*
X91533603Y-92158498D01*
X91719158Y-92288425D01*
X91762783Y-92343002D01*
X91769977Y-92412500D01*
X91738454Y-92474855D01*
X91719158Y-92491575D01*
X91533597Y-92621505D01*
X91366505Y-92788597D01*
X91230965Y-92982169D01*
X91230964Y-92982171D01*
X91131098Y-93196335D01*
X91131094Y-93196344D01*
X91069938Y-93424586D01*
X91069936Y-93424596D01*
X91049341Y-93659999D01*
X91049341Y-93660000D01*
X91069936Y-93895403D01*
X91069938Y-93895413D01*
X91131094Y-94123655D01*
X91131096Y-94123659D01*
X91131097Y-94123663D01*
X91230965Y-94337830D01*
X91230967Y-94337834D01*
X91366501Y-94531395D01*
X91366506Y-94531402D01*
X91533597Y-94698493D01*
X91533603Y-94698498D01*
X91719158Y-94828425D01*
X91762783Y-94883002D01*
X91769977Y-94952500D01*
X91738454Y-95014855D01*
X91719158Y-95031575D01*
X91533597Y-95161505D01*
X91366505Y-95328597D01*
X91230965Y-95522169D01*
X91230964Y-95522171D01*
X91131098Y-95736335D01*
X91131094Y-95736344D01*
X91069938Y-95964586D01*
X91069936Y-95964596D01*
X91049341Y-96199999D01*
X91049341Y-96200000D01*
X91069936Y-96435403D01*
X91069938Y-96435413D01*
X91131094Y-96663655D01*
X91131096Y-96663659D01*
X91131097Y-96663663D01*
X91230965Y-96877830D01*
X91230967Y-96877834D01*
X91366501Y-97071395D01*
X91366506Y-97071402D01*
X91533597Y-97238493D01*
X91533603Y-97238498D01*
X91719158Y-97368425D01*
X91762783Y-97423002D01*
X91769977Y-97492500D01*
X91738454Y-97554855D01*
X91719158Y-97571575D01*
X91533597Y-97701505D01*
X91366505Y-97868597D01*
X91230965Y-98062169D01*
X91230964Y-98062171D01*
X91131098Y-98276335D01*
X91131094Y-98276344D01*
X91069938Y-98504586D01*
X91069936Y-98504596D01*
X91049341Y-98739999D01*
X91049341Y-98740000D01*
X91069936Y-98975403D01*
X91069938Y-98975413D01*
X91131094Y-99203655D01*
X91131096Y-99203659D01*
X91131097Y-99203663D01*
X91167660Y-99282072D01*
X91230965Y-99417830D01*
X91230967Y-99417834D01*
X91339281Y-99572521D01*
X91345305Y-99581125D01*
X91366501Y-99611395D01*
X91366506Y-99611402D01*
X91533597Y-99778493D01*
X91533603Y-99778498D01*
X91719158Y-99908425D01*
X91762783Y-99963002D01*
X91769977Y-100032500D01*
X91738454Y-100094855D01*
X91719158Y-100111575D01*
X91533597Y-100241505D01*
X91366505Y-100408597D01*
X91230965Y-100602169D01*
X91230964Y-100602171D01*
X91131098Y-100816335D01*
X91131094Y-100816344D01*
X91069938Y-101044586D01*
X91069936Y-101044596D01*
X91049341Y-101279999D01*
X91049341Y-101280000D01*
X91069936Y-101515403D01*
X91069938Y-101515413D01*
X91131094Y-101743655D01*
X91131096Y-101743659D01*
X91131097Y-101743663D01*
X91230965Y-101957829D01*
X91230965Y-101957830D01*
X91230967Y-101957834D01*
X91366501Y-102151395D01*
X91366506Y-102151402D01*
X91533597Y-102318493D01*
X91533603Y-102318498D01*
X91719158Y-102448425D01*
X91762783Y-102503002D01*
X91769977Y-102572500D01*
X91738454Y-102634855D01*
X91719158Y-102651575D01*
X91533597Y-102781505D01*
X91366505Y-102948597D01*
X91230965Y-103142169D01*
X91230964Y-103142171D01*
X91131098Y-103356335D01*
X91131094Y-103356344D01*
X91069938Y-103584586D01*
X91069936Y-103584596D01*
X91049341Y-103819999D01*
X91049341Y-103820000D01*
X91069936Y-104055403D01*
X91069938Y-104055413D01*
X91131094Y-104283655D01*
X91131096Y-104283659D01*
X91131097Y-104283663D01*
X91230965Y-104497830D01*
X91230967Y-104497834D01*
X91366501Y-104691395D01*
X91366506Y-104691402D01*
X91533597Y-104858493D01*
X91533603Y-104858498D01*
X91719158Y-104988425D01*
X91762783Y-105043002D01*
X91769977Y-105112500D01*
X91738454Y-105174855D01*
X91719158Y-105191575D01*
X91533597Y-105321505D01*
X91366505Y-105488597D01*
X91230965Y-105682169D01*
X91230964Y-105682171D01*
X91131098Y-105896335D01*
X91131094Y-105896344D01*
X91069938Y-106124586D01*
X91069936Y-106124596D01*
X91049341Y-106359999D01*
X91049341Y-106360000D01*
X91069936Y-106595403D01*
X91069938Y-106595413D01*
X91131094Y-106823655D01*
X91131096Y-106823659D01*
X91131097Y-106823663D01*
X91230847Y-107037578D01*
X91230965Y-107037830D01*
X91230967Y-107037834D01*
X91366501Y-107231395D01*
X91366506Y-107231402D01*
X91533597Y-107398493D01*
X91533603Y-107398498D01*
X91719158Y-107528425D01*
X91762783Y-107583002D01*
X91769977Y-107652500D01*
X91738454Y-107714855D01*
X91719158Y-107731575D01*
X91533597Y-107861505D01*
X91366505Y-108028597D01*
X91230965Y-108222169D01*
X91230964Y-108222171D01*
X91131098Y-108436335D01*
X91131094Y-108436344D01*
X91069938Y-108664586D01*
X91069936Y-108664596D01*
X91049341Y-108899999D01*
X91049341Y-108900000D01*
X91069936Y-109135403D01*
X91069938Y-109135413D01*
X91131094Y-109363655D01*
X91131096Y-109363659D01*
X91131097Y-109363663D01*
X91230965Y-109577829D01*
X91230965Y-109577830D01*
X91230967Y-109577834D01*
X91366501Y-109771395D01*
X91366506Y-109771402D01*
X91533597Y-109938493D01*
X91533603Y-109938498D01*
X91719158Y-110068425D01*
X91762783Y-110123002D01*
X91769977Y-110192500D01*
X91738454Y-110254855D01*
X91719158Y-110271575D01*
X91533597Y-110401505D01*
X91366505Y-110568597D01*
X91230965Y-110762169D01*
X91230964Y-110762171D01*
X91131098Y-110976335D01*
X91131094Y-110976344D01*
X91069938Y-111204586D01*
X91069936Y-111204596D01*
X91049341Y-111439999D01*
X91049341Y-111440000D01*
X91069936Y-111675403D01*
X91069938Y-111675413D01*
X91131094Y-111903655D01*
X91131096Y-111903659D01*
X91131097Y-111903663D01*
X91230965Y-112117830D01*
X91230967Y-112117834D01*
X91366501Y-112311395D01*
X91366506Y-112311402D01*
X91533597Y-112478493D01*
X91533603Y-112478498D01*
X91719158Y-112608425D01*
X91762783Y-112663002D01*
X91769977Y-112732500D01*
X91738454Y-112794855D01*
X91719158Y-112811575D01*
X91533597Y-112941505D01*
X91366505Y-113108597D01*
X91230965Y-113302169D01*
X91230964Y-113302171D01*
X91131098Y-113516335D01*
X91131094Y-113516344D01*
X91069938Y-113744586D01*
X91069936Y-113744596D01*
X91049341Y-113979999D01*
X91049341Y-113980000D01*
X91069936Y-114215403D01*
X91069938Y-114215413D01*
X91131094Y-114443655D01*
X91131096Y-114443659D01*
X91131097Y-114443663D01*
X91230965Y-114657830D01*
X91230967Y-114657834D01*
X91366501Y-114851395D01*
X91366506Y-114851402D01*
X91533597Y-115018493D01*
X91533603Y-115018498D01*
X91719158Y-115148425D01*
X91762783Y-115203002D01*
X91769977Y-115272500D01*
X91738454Y-115334855D01*
X91719158Y-115351575D01*
X91533597Y-115481505D01*
X91366505Y-115648597D01*
X91230965Y-115842169D01*
X91230964Y-115842171D01*
X91131098Y-116056335D01*
X91131094Y-116056344D01*
X91069938Y-116284586D01*
X91069936Y-116284596D01*
X91049341Y-116519999D01*
X91049341Y-116520000D01*
X91069936Y-116755403D01*
X91069938Y-116755413D01*
X91131094Y-116983655D01*
X91131096Y-116983659D01*
X91131097Y-116983663D01*
X91228732Y-117193042D01*
X91230965Y-117197830D01*
X91230967Y-117197834D01*
X91366501Y-117391395D01*
X91366506Y-117391402D01*
X91533597Y-117558493D01*
X91533603Y-117558498D01*
X91719158Y-117688425D01*
X91762783Y-117743002D01*
X91769977Y-117812500D01*
X91738454Y-117874855D01*
X91719158Y-117891575D01*
X91533597Y-118021505D01*
X91366505Y-118188597D01*
X91230965Y-118382169D01*
X91230964Y-118382171D01*
X91131098Y-118596335D01*
X91131094Y-118596344D01*
X91069938Y-118824586D01*
X91069936Y-118824596D01*
X91049341Y-119059999D01*
X91049341Y-119060000D01*
X91069936Y-119295403D01*
X91069938Y-119295413D01*
X91131094Y-119523655D01*
X91131096Y-119523659D01*
X91131097Y-119523663D01*
X91230965Y-119737830D01*
X91230967Y-119737834D01*
X91366501Y-119931395D01*
X91366506Y-119931402D01*
X91533597Y-120098493D01*
X91533603Y-120098498D01*
X91719158Y-120228425D01*
X91762783Y-120283002D01*
X91769977Y-120352500D01*
X91738454Y-120414855D01*
X91719158Y-120431575D01*
X91533597Y-120561505D01*
X91366505Y-120728597D01*
X91230965Y-120922169D01*
X91230964Y-120922171D01*
X91131098Y-121136335D01*
X91131094Y-121136344D01*
X91069938Y-121364586D01*
X91069936Y-121364596D01*
X91049341Y-121599999D01*
X91049341Y-121600000D01*
X91069936Y-121835403D01*
X91069938Y-121835413D01*
X91131094Y-122063655D01*
X91131096Y-122063659D01*
X91131097Y-122063663D01*
X91230965Y-122277829D01*
X91230965Y-122277830D01*
X91230967Y-122277834D01*
X91366501Y-122471395D01*
X91366506Y-122471402D01*
X91533597Y-122638493D01*
X91533603Y-122638498D01*
X91719158Y-122768425D01*
X91762783Y-122823002D01*
X91769977Y-122892500D01*
X91738454Y-122954855D01*
X91719158Y-122971575D01*
X91533597Y-123101505D01*
X91366505Y-123268597D01*
X91230965Y-123462169D01*
X91230964Y-123462171D01*
X91131098Y-123676335D01*
X91131094Y-123676344D01*
X91069938Y-123904586D01*
X91069936Y-123904596D01*
X91049341Y-124139999D01*
X91049341Y-124140000D01*
X91069936Y-124375403D01*
X91069938Y-124375413D01*
X91131094Y-124603655D01*
X91131096Y-124603659D01*
X91131097Y-124603663D01*
X91140236Y-124623261D01*
X91230965Y-124817830D01*
X91230967Y-124817834D01*
X91366501Y-125011395D01*
X91366506Y-125011402D01*
X91533597Y-125178493D01*
X91533603Y-125178498D01*
X91719158Y-125308425D01*
X91762783Y-125363002D01*
X91769977Y-125432500D01*
X91738454Y-125494855D01*
X91719158Y-125511575D01*
X91533597Y-125641505D01*
X91366505Y-125808597D01*
X91230965Y-126002169D01*
X91230964Y-126002171D01*
X91131098Y-126216335D01*
X91131094Y-126216344D01*
X91069938Y-126444586D01*
X91069936Y-126444596D01*
X91049341Y-126679999D01*
X91049341Y-126680000D01*
X91069936Y-126915403D01*
X91069938Y-126915413D01*
X91131094Y-127143655D01*
X91131096Y-127143659D01*
X91131097Y-127143663D01*
X91205711Y-127303673D01*
X91230965Y-127357830D01*
X91230967Y-127357834D01*
X91338885Y-127511955D01*
X91346898Y-127523400D01*
X91366501Y-127551395D01*
X91366506Y-127551402D01*
X91533597Y-127718493D01*
X91533603Y-127718498D01*
X91719158Y-127848425D01*
X91762783Y-127903002D01*
X91769977Y-127972500D01*
X91738454Y-128034855D01*
X91719158Y-128051575D01*
X91533597Y-128181505D01*
X91366505Y-128348597D01*
X91230965Y-128542169D01*
X91230964Y-128542171D01*
X91131098Y-128756335D01*
X91131094Y-128756344D01*
X91069938Y-128984586D01*
X91069936Y-128984596D01*
X91049341Y-129219999D01*
X91049341Y-129220000D01*
X90010500Y-129220000D01*
X90010500Y-115018493D01*
X90010501Y-70001396D01*
X90010566Y-69998614D01*
X90023541Y-69717988D01*
X90027389Y-69634759D01*
X90027917Y-69629054D01*
X90032973Y-69592809D01*
X90078038Y-69269755D01*
X90079085Y-69264152D01*
X90141212Y-69000000D01*
X98984611Y-69000000D01*
X99004121Y-69198095D01*
X99061903Y-69388574D01*
X99155731Y-69564114D01*
X99155735Y-69564121D01*
X99282011Y-69717988D01*
X99435878Y-69844264D01*
X99435885Y-69844268D01*
X99611425Y-69938096D01*
X99611427Y-69938097D01*
X99801907Y-69995879D01*
X100000000Y-70015389D01*
X100198093Y-69995879D01*
X100388573Y-69938097D01*
X100564120Y-69844265D01*
X100717988Y-69717988D01*
X100844265Y-69564120D01*
X100938097Y-69388573D01*
X100995879Y-69198093D01*
X101015389Y-69000000D01*
X100995879Y-68801907D01*
X100938097Y-68611427D01*
X100844265Y-68435880D01*
X100844264Y-68435878D01*
X100717988Y-68282011D01*
X100564121Y-68155735D01*
X100564114Y-68155731D01*
X100388574Y-68061903D01*
X100198095Y-68004121D01*
X100000000Y-67984611D01*
X99801904Y-68004121D01*
X99611425Y-68061903D01*
X99435885Y-68155731D01*
X99435878Y-68155735D01*
X99282011Y-68282011D01*
X99155735Y-68435878D01*
X99155731Y-68435885D01*
X99061903Y-68611425D01*
X99004121Y-68801904D01*
X98984611Y-69000000D01*
X90141212Y-69000000D01*
X90162145Y-68910999D01*
X90163705Y-68905518D01*
X90279000Y-68561527D01*
X90281051Y-68556232D01*
X90427601Y-68224327D01*
X90430132Y-68219244D01*
X90606668Y-67902301D01*
X90609680Y-67897438D01*
X90723623Y-67731101D01*
X90814702Y-67598141D01*
X90818129Y-67593602D01*
X91049906Y-67314484D01*
X91053743Y-67310276D01*
X91310281Y-67053737D01*
X91314494Y-67049898D01*
X91314500Y-67049893D01*
X91593597Y-66818134D01*
X91598154Y-66814694D01*
X91897440Y-66609677D01*
X91902302Y-66606666D01*
X92219246Y-66430131D01*
X92224329Y-66427600D01*
X92556233Y-66281049D01*
X92561516Y-66279003D01*
X92905520Y-66163705D01*
X92911001Y-66162145D01*
X93264150Y-66079085D01*
X93269761Y-66078036D01*
X93629069Y-66027915D01*
X93634760Y-66027389D01*
X93998620Y-66010567D01*
X94001484Y-66010501D01*
X94003415Y-66010501D01*
X105996591Y-66010501D01*
X105998563Y-66010501D01*
X106001427Y-66010567D01*
G37*
%TD.AperFunction*%
%TD*%
M02*
