%TF.GenerationSoftware,KiCad,Pcbnew,7.0.7-7.0.7~ubuntu22.04.1*%
%TF.CreationDate,2023-09-13T15:14:59+01:00*%
%TF.ProjectId,clvHd_master_teensy41,636c7648-645f-46d6-9173-7465725f7465,rev?*%
%TF.SameCoordinates,Original*%
%TF.FileFunction,Copper,L4,Bot*%
%TF.FilePolarity,Positive*%
%FSLAX46Y46*%
G04 Gerber Fmt 4.6, Leading zero omitted, Abs format (unit mm)*
G04 Created by KiCad (PCBNEW 7.0.7-7.0.7~ubuntu22.04.1) date 2023-09-13 15:14:59*
%MOMM*%
%LPD*%
G01*
G04 APERTURE LIST*
G04 Aperture macros list*
%AMRoundRect*
0 Rectangle with rounded corners*
0 $1 Rounding radius*
0 $2 $3 $4 $5 $6 $7 $8 $9 X,Y pos of 4 corners*
0 Add a 4 corners polygon primitive as box body*
4,1,4,$2,$3,$4,$5,$6,$7,$8,$9,$2,$3,0*
0 Add four circle primitives for the rounded corners*
1,1,$1+$1,$2,$3*
1,1,$1+$1,$4,$5*
1,1,$1+$1,$6,$7*
1,1,$1+$1,$8,$9*
0 Add four rect primitives between the rounded corners*
20,1,$1+$1,$2,$3,$4,$5,0*
20,1,$1+$1,$4,$5,$6,$7,0*
20,1,$1+$1,$6,$7,$8,$9,0*
20,1,$1+$1,$8,$9,$2,$3,0*%
G04 Aperture macros list end*
%TA.AperFunction,ComponentPad*%
%ADD10R,1.700000X1.700000*%
%TD*%
%TA.AperFunction,ComponentPad*%
%ADD11O,1.700000X1.700000*%
%TD*%
%TA.AperFunction,SMDPad,CuDef*%
%ADD12R,1.600000X0.500000*%
%TD*%
%TA.AperFunction,SMDPad,CuDef*%
%ADD13R,2.900000X1.500000*%
%TD*%
%TA.AperFunction,ComponentPad*%
%ADD14RoundRect,0.800000X-0.050000X-0.450000X0.050000X-0.450000X0.050000X0.450000X-0.050000X0.450000X0*%
%TD*%
%TA.AperFunction,ComponentPad*%
%ADD15RoundRect,0.800000X-0.450000X0.050000X-0.450000X-0.050000X0.450000X-0.050000X0.450000X0.050000X0*%
%TD*%
%TA.AperFunction,ComponentPad*%
%ADD16RoundRect,0.800000X-0.700000X0.050000X-0.700000X-0.050000X0.700000X-0.050000X0.700000X0.050000X0*%
%TD*%
%TA.AperFunction,ViaPad*%
%ADD17C,0.400000*%
%TD*%
%TA.AperFunction,Conductor*%
%ADD18C,0.100000*%
%TD*%
G04 APERTURE END LIST*
D10*
%TO.P,J3,1,Pin_1*%
%TO.N,unconnected-(J3-Pin_1-Pad1)*%
X107645000Y-70800000D03*
D11*
%TO.P,J3,2,Pin_2*%
%TO.N,GND*%
X107645000Y-73340000D03*
%TO.P,J3,3,Pin_3*%
%TO.N,unconnected-(J3-Pin_3-Pad3)*%
X107645000Y-75880000D03*
%TO.P,J3,4,Pin_4*%
%TO.N,unconnected-(J3-Pin_4-Pad4)*%
X107645000Y-78420000D03*
%TO.P,J3,5,Pin_5*%
%TO.N,LED_OUT*%
X107645000Y-80960000D03*
%TO.P,J3,6,Pin_6*%
%TO.N,unconnected-(J3-Pin_6-Pad6)*%
X107645000Y-83500000D03*
%TO.P,J3,7,Pin_7*%
%TO.N,unconnected-(J3-Pin_7-Pad7)*%
X107645000Y-86040000D03*
%TO.P,J3,8,Pin_8*%
%TO.N,I2C_SCL*%
X107645000Y-88580000D03*
%TO.P,J3,9,Pin_9*%
%TO.N,I2C_SDA*%
X107645000Y-91120000D03*
%TO.P,J3,10,Pin_10*%
%TO.N,unconnected-(J3-Pin_10-Pad10)*%
X107645000Y-93660000D03*
%TO.P,J3,11,Pin_11*%
%TO.N,unconnected-(J3-Pin_11-Pad11)*%
X107645000Y-96200000D03*
%TO.P,J3,12,Pin_12*%
%TO.N,unconnected-(J3-Pin_12-Pad12)*%
X107645000Y-98740000D03*
%TO.P,J3,13,Pin_13*%
%TO.N,AUX1*%
X107645000Y-101280000D03*
%TO.P,J3,14,Pin_14*%
%TO.N,SCLK*%
X107645000Y-103820000D03*
%TO.P,J3,15,Pin_15*%
%TO.N,GND*%
X107645000Y-106360000D03*
%TO.P,J3,16,Pin_16*%
%TO.N,unconnected-(J3-Pin_16-Pad16)*%
X107645000Y-108900000D03*
%TO.P,J3,17,Pin_17*%
%TO.N,unconnected-(J3-Pin_17-Pad17)*%
X107645000Y-111440000D03*
%TO.P,J3,18,Pin_18*%
%TO.N,unconnected-(J3-Pin_18-Pad18)*%
X107645000Y-113980000D03*
%TO.P,J3,19,Pin_19*%
%TO.N,unconnected-(J3-Pin_19-Pad19)*%
X107645000Y-116520000D03*
%TO.P,J3,20,Pin_20*%
%TO.N,AUX2*%
X107645000Y-119060000D03*
%TO.P,J3,21,Pin_21*%
%TO.N,unconnected-(J3-Pin_21-Pad21)*%
X107645000Y-121600000D03*
%TO.P,J3,22,Pin_22*%
%TO.N,unconnected-(J3-Pin_22-Pad22)*%
X107645000Y-124140000D03*
%TO.P,J3,23,Pin_23*%
%TO.N,unconnected-(J3-Pin_23-Pad23)*%
X107645000Y-126680000D03*
%TO.P,J3,24,Pin_24*%
%TO.N,unconnected-(J3-Pin_24-Pad24)*%
X107645000Y-129220000D03*
%TD*%
D10*
%TO.P,J6,1,Pin_1*%
%TO.N,3V3_BAT*%
X97460000Y-78410000D03*
D11*
%TO.P,J6,2,Pin_2*%
%TO.N,+3.3V*%
X97460000Y-75870000D03*
%TO.P,J6,3,Pin_3*%
%TO.N,3V3_TEENSY*%
X97460000Y-73330000D03*
%TD*%
D10*
%TO.P,J2,1,Pin_1*%
%TO.N,5V_BAT*%
X102540000Y-78410000D03*
D11*
%TO.P,J2,2,Pin_2*%
%TO.N,+5VA*%
X102540000Y-75870000D03*
%TO.P,J2,3,Pin_3*%
%TO.N,3V3_TEENSY*%
X102540000Y-73330000D03*
%TD*%
D10*
%TO.P,J4,1,Pin_1*%
%TO.N,GND*%
X92405000Y-70800000D03*
D11*
%TO.P,J4,2,Pin_2*%
%TO.N,unconnected-(J4-Pin_2-Pad2)*%
X92405000Y-73340000D03*
%TO.P,J4,3,Pin_3*%
%TO.N,unconnected-(J4-Pin_3-Pad3)*%
X92405000Y-75880000D03*
%TO.P,J4,4,Pin_4*%
%TO.N,ADD_OUT1*%
X92405000Y-78420000D03*
%TO.P,J4,5,Pin_5*%
%TO.N,ADD_OUT2*%
X92405000Y-80960000D03*
%TO.P,J4,6,Pin_6*%
%TO.N,ADD_OUT3*%
X92405000Y-83500000D03*
%TO.P,J4,7,Pin_7*%
%TO.N,ADD_OUT4*%
X92405000Y-86040000D03*
%TO.P,J4,8,Pin_8*%
%TO.N,RESETB*%
X92405000Y-88580000D03*
%TO.P,J4,9,Pin_9*%
%TO.N,unconnected-(J4-Pin_9-Pad9)*%
X92405000Y-91120000D03*
%TO.P,J4,10,Pin_10*%
%TO.N,unconnected-(J4-Pin_10-Pad10)*%
X92405000Y-93660000D03*
%TO.P,J4,11,Pin_11*%
%TO.N,unconnected-(J4-Pin_11-Pad11)*%
X92405000Y-96200000D03*
%TO.P,J4,12,Pin_12*%
%TO.N,unconnected-(J4-Pin_12-Pad12)*%
X92405000Y-98740000D03*
%TO.P,J4,13,Pin_13*%
%TO.N,MOSI_DIN*%
X92405000Y-101280000D03*
%TO.P,J4,14,Pin_14*%
%TO.N,MISO_DOUT*%
X92405000Y-103820000D03*
%TO.P,J4,15,Pin_15*%
%TO.N,3V3_TEENSY*%
X92405000Y-106360000D03*
%TO.P,J4,16,Pin_16*%
%TO.N,unconnected-(J4-Pin_16-Pad16)*%
X92405000Y-108900000D03*
%TO.P,J4,17,Pin_17*%
%TO.N,unconnected-(J4-Pin_17-Pad17)*%
X92405000Y-111440000D03*
%TO.P,J4,18,Pin_18*%
%TO.N,unconnected-(J4-Pin_18-Pad18)*%
X92405000Y-113980000D03*
%TO.P,J4,19,Pin_19*%
%TO.N,unconnected-(J4-Pin_19-Pad19)*%
X92405000Y-116520000D03*
%TO.P,J4,20,Pin_20*%
%TO.N,unconnected-(J4-Pin_20-Pad20)*%
X92405000Y-119060000D03*
%TO.P,J4,21,Pin_21*%
%TO.N,unconnected-(J4-Pin_21-Pad21)*%
X92405000Y-121600000D03*
%TO.P,J4,22,Pin_22*%
%TO.N,unconnected-(J4-Pin_22-Pad22)*%
X92405000Y-124140000D03*
%TO.P,J4,23,Pin_23*%
%TO.N,unconnected-(J4-Pin_23-Pad23)*%
X92405000Y-126680000D03*
%TO.P,J4,24,Pin_24*%
%TO.N,unconnected-(J4-Pin_24-Pad24)*%
X92405000Y-129220000D03*
%TD*%
D12*
%TO.P,J1,1,1*%
%TO.N,+3.3V*%
X98800000Y-104250000D03*
%TO.P,J1,2,2*%
%TO.N,+5VA*%
X101200000Y-103750000D03*
%TO.P,J1,3,3*%
%TO.N,MISO_DOUT*%
X98800000Y-103250000D03*
%TO.P,J1,4,4*%
%TO.N,GND*%
X101200000Y-102750000D03*
%TO.P,J1,5,5*%
%TO.N,MOSI_DIN*%
X98800000Y-102250000D03*
%TO.P,J1,6,6*%
%TO.N,AUX2*%
X101200000Y-101750000D03*
%TO.P,J1,7,7*%
%TO.N,SCLK*%
X98800000Y-101250000D03*
%TO.P,J1,8,8*%
%TO.N,AUX1*%
X101200000Y-100750000D03*
%TO.P,J1,9,9*%
%TO.N,GND*%
X98800000Y-100250000D03*
%TO.P,J1,10,10*%
%TO.N,IN_ref*%
X101200000Y-99750000D03*
%TO.P,J1,11,11*%
%TO.N,RESETB*%
X98800000Y-99250000D03*
%TO.P,J1,12,12*%
%TO.N,I2C_SCL*%
X101200000Y-98750000D03*
%TO.P,J1,13,13*%
%TO.N,I2C_SDA*%
X98800000Y-98250000D03*
%TO.P,J1,14,14*%
%TO.N,ADD_OUT4*%
X101200000Y-97750000D03*
%TO.P,J1,15,15*%
%TO.N,ADD_OUT3*%
X98800000Y-97250000D03*
%TO.P,J1,16,16*%
%TO.N,ADD_OUT2*%
X101200000Y-96750000D03*
%TO.P,J1,17,17*%
%TO.N,ADD_OUT1*%
X98800000Y-96250000D03*
%TO.P,J1,18,18*%
%TO.N,LED_OUT*%
X101200000Y-95750000D03*
D13*
%TO.P,J1,19,sh1*%
%TO.N,unconnected-(J1-sh1-Pad19)*%
X100000000Y-106000000D03*
%TO.P,J1,20,sh2*%
%TO.N,unconnected-(J1-sh2-Pad20)*%
X100000000Y-94000000D03*
%TD*%
D14*
%TO.P,J5,1,T*%
%TO.N,GND*%
X101750000Y-128200000D03*
D15*
%TO.P,J5,2,R*%
%TO.N,IN_ref*%
X100000000Y-125900000D03*
D14*
%TO.P,J5,3,T*%
%TO.N,GND*%
X98250000Y-128200000D03*
D16*
%TO.P,J5,6,S*%
%TO.N,IN_ref*%
X100000000Y-132400000D03*
%TD*%
D17*
%TO.N,+3.3V*%
X97600000Y-104250000D03*
%TO.N,+5VA*%
X101200000Y-104450000D03*
%TO.N,GND*%
X102400000Y-102750000D03*
X97600000Y-100150000D03*
%TO.N,IN_ref*%
X102400000Y-99750000D03*
%TD*%
D18*
%TO.N,+3.3V*%
X98800000Y-104250000D02*
X97600000Y-104250000D01*
%TO.N,+5VA*%
X101200000Y-103750000D02*
X101200000Y-104450000D01*
%TO.N,MISO_DOUT*%
X98800000Y-103250000D02*
X95317500Y-106732500D01*
X95317500Y-106732500D02*
X92405000Y-103820000D01*
%TO.N,GND*%
X101200000Y-102750000D02*
X102400000Y-102750000D01*
X97700000Y-100250000D02*
X97600000Y-100150000D01*
X98800000Y-100250000D02*
X97700000Y-100250000D01*
%TO.N,MOSI_DIN*%
X93375000Y-102250000D02*
X92405000Y-101280000D01*
X98800000Y-102250000D02*
X93375000Y-102250000D01*
%TO.N,AUX2*%
X106500000Y-117580000D02*
X107645000Y-118725000D01*
X100510000Y-103360000D02*
X102140000Y-103360000D01*
X102140000Y-103360000D02*
X106500000Y-107720000D01*
X100260000Y-103110000D02*
X100510000Y-103360000D01*
X100260000Y-102360000D02*
X100260000Y-103110000D01*
X100870000Y-101750000D02*
X100260000Y-102360000D01*
X107645000Y-118725000D02*
X107645000Y-119060000D01*
X101200000Y-101750000D02*
X100870000Y-101750000D01*
X106500000Y-107720000D02*
X106500000Y-117580000D01*
%TO.N,SCLK*%
X107645000Y-103485000D02*
X107645000Y-103820000D01*
X105410000Y-101250000D02*
X107645000Y-103485000D01*
X98800000Y-101250000D02*
X105410000Y-101250000D01*
%TO.N,AUX1*%
X101200000Y-100750000D02*
X107115000Y-100750000D01*
X107115000Y-100750000D02*
X107645000Y-101280000D01*
%TO.N,IN_ref*%
X101200000Y-99750000D02*
X102400000Y-99750000D01*
%TO.N,RESETB*%
X92580000Y-88580000D02*
X92405000Y-88580000D01*
X93840000Y-89840000D02*
X92580000Y-88580000D01*
X98250000Y-99250000D02*
X93840000Y-94840000D01*
X98800000Y-99250000D02*
X98250000Y-99250000D01*
X93840000Y-94840000D02*
X93840000Y-89840000D01*
%TO.N,I2C_SCL*%
X101200000Y-98750000D02*
X101750000Y-98750000D01*
X105000000Y-91225000D02*
X107645000Y-88580000D01*
X101750000Y-98750000D02*
X105000000Y-95500000D01*
X105000000Y-95500000D02*
X105000000Y-91225000D01*
%TO.N,I2C_SDA*%
X99350000Y-98250000D02*
X100240000Y-99140000D01*
X100240000Y-99140000D02*
X102140000Y-99140000D01*
X106000000Y-92765000D02*
X107645000Y-91120000D01*
X98800000Y-98250000D02*
X99350000Y-98250000D01*
X106000000Y-95280000D02*
X106000000Y-92765000D01*
X102140000Y-99140000D02*
X106000000Y-95280000D01*
%TO.N,ADD_OUT4*%
X94030000Y-94761300D02*
X94030000Y-87450000D01*
X101200000Y-97750000D02*
X97018700Y-97750000D01*
X92620000Y-86040000D02*
X92405000Y-86040000D01*
X94030000Y-87450000D02*
X92620000Y-86040000D01*
X97018700Y-97750000D02*
X94030000Y-94761300D01*
%TO.N,ADD_OUT3*%
X94220000Y-94682600D02*
X94220000Y-85220000D01*
X92500000Y-83500000D02*
X92405000Y-83500000D01*
X98800000Y-97250000D02*
X96787400Y-97250000D01*
X96787400Y-97250000D02*
X94220000Y-94682600D01*
X94220000Y-85220000D02*
X92500000Y-83500000D01*
%TO.N,ADD_OUT2*%
X94410000Y-94603900D02*
X94410000Y-82790000D01*
X92580000Y-80960000D02*
X92405000Y-80960000D01*
X94410000Y-82790000D02*
X92580000Y-80960000D01*
X101200000Y-96750000D02*
X96556100Y-96750000D01*
X96556100Y-96750000D02*
X94410000Y-94603900D01*
%TO.N,ADD_OUT1*%
X94600000Y-94525200D02*
X94600000Y-80600000D01*
X98800000Y-96250000D02*
X96324800Y-96250000D01*
X94600000Y-80600000D02*
X92420000Y-78420000D01*
X92420000Y-78420000D02*
X92405000Y-78420000D01*
X96324800Y-96250000D02*
X94600000Y-94525200D01*
%TO.N,LED_OUT*%
X101200000Y-95750000D02*
X104000000Y-92950000D01*
X104000000Y-84605000D02*
X107645000Y-80960000D01*
X104000000Y-92950000D02*
X104000000Y-84605000D01*
%TD*%
M02*
