%TF.GenerationSoftware,KiCad,Pcbnew,9.0.6-9.0.6~ubuntu24.04.1*%
%TF.CreationDate,2026-01-03T14:32:04+00:00*%
%TF.ProjectId,DRY_ELEC_6CH,4452595f-454c-4454-935f-3643482e6b69,1.0*%
%TF.SameCoordinates,Original*%
%TF.FileFunction,Copper,L4,Bot*%
%TF.FilePolarity,Positive*%
%FSLAX46Y46*%
G04 Gerber Fmt 4.6, Leading zero omitted, Abs format (unit mm)*
G04 Created by KiCad (PCBNEW 9.0.6-9.0.6~ubuntu24.04.1) date 2026-01-03 14:32:04*
%MOMM*%
%LPD*%
G01*
G04 APERTURE LIST*
%TA.AperFunction,ComponentPad*%
%ADD10C,1.800000*%
%TD*%
%TA.AperFunction,ViaPad*%
%ADD11C,0.400000*%
%TD*%
G04 APERTURE END LIST*
D10*
%TO.P,J17,1,Pin_1*%
%TO.N,/filtering_1/ELECTRODE*%
X32539999Y-32000000D03*
%TD*%
%TO.P,J21,1,Pin_1*%
%TO.N,/filtering_5/ELECTRODE*%
X22379999Y-32000000D03*
%TD*%
%TO.P,J20,1,Pin_1*%
%TO.N,/filtering_4/ELECTRODE*%
X17299999Y-32000000D03*
%TD*%
%TO.P,J18,1,Pin_1*%
%TO.N,/filtering_2/ELECTRODE*%
X37619999Y-32000000D03*
%TD*%
%TO.P,J22,1,Pin_1*%
%TO.N,/filtering_6/ELECTRODE*%
X27459999Y-32000000D03*
%TD*%
%TO.P,J19,1,Pin_1*%
%TO.N,/filtering_3/ELECTRODE*%
X42699999Y-32000000D03*
%TD*%
D11*
%TO.N,GND*%
X40165000Y-38030000D03*
X35085000Y-38120000D03*
X29985000Y-38110000D03*
X24935000Y-38170000D03*
X19815000Y-38100000D03*
X40175000Y-25900000D03*
X35065000Y-25940000D03*
X29995000Y-25910000D03*
X19855000Y-25890000D03*
X24915000Y-25940000D03*
%TD*%
%TA.AperFunction,Conductor*%
%TO.N,/filtering_5/ELECTRODE*%
G36*
X24616496Y-25530185D02*
G01*
X24662251Y-25582989D01*
X24672195Y-25652147D01*
X24643170Y-25715703D01*
X24637138Y-25722181D01*
X24634533Y-25724785D01*
X24634526Y-25724794D01*
X24588388Y-25804706D01*
X24588387Y-25804709D01*
X24588386Y-25804711D01*
X24588386Y-25804712D01*
X24577897Y-25843858D01*
X24564500Y-25893856D01*
X24564500Y-25986143D01*
X24588387Y-26075290D01*
X24588388Y-26075293D01*
X24634526Y-26155205D01*
X24634533Y-26155214D01*
X24643680Y-26164361D01*
X24677165Y-26225684D01*
X24679999Y-26252042D01*
X24679999Y-37879505D01*
X24660314Y-37946544D01*
X24654587Y-37954688D01*
X24608388Y-38034706D01*
X24608387Y-38034709D01*
X24608386Y-38034711D01*
X24608386Y-38034712D01*
X24603256Y-38053858D01*
X24584500Y-38123856D01*
X24584500Y-38216143D01*
X24608387Y-38305290D01*
X24611498Y-38312802D01*
X24609782Y-38313512D01*
X24623825Y-38371402D01*
X24600973Y-38437428D01*
X24546051Y-38480618D01*
X24499966Y-38489500D01*
X20209618Y-38489500D01*
X20142579Y-38469815D01*
X20096824Y-38417011D01*
X20086880Y-38347853D01*
X20102232Y-38303499D01*
X20141611Y-38235293D01*
X20141610Y-38235293D01*
X20141614Y-38235288D01*
X20165500Y-38146144D01*
X20165500Y-38053856D01*
X20141614Y-37964712D01*
X20096611Y-37886767D01*
X20079999Y-37824767D01*
X20079999Y-26212044D01*
X20099684Y-26145005D01*
X20116318Y-26124363D01*
X20135469Y-26105212D01*
X20181614Y-26025288D01*
X20205500Y-25936144D01*
X20205500Y-25843856D01*
X20181614Y-25754712D01*
X20148004Y-25696500D01*
X20131532Y-25628601D01*
X20154384Y-25562574D01*
X20209305Y-25519383D01*
X20255392Y-25510500D01*
X24549457Y-25510500D01*
X24616496Y-25530185D01*
G37*
%TD.AperFunction*%
%TD*%
%TA.AperFunction,Conductor*%
%TO.N,/filtering_3/ELECTRODE*%
G36*
X44005393Y-25510971D02*
G01*
X44161018Y-25524587D01*
X44182296Y-25528338D01*
X44327950Y-25567366D01*
X44348259Y-25574759D01*
X44444274Y-25619531D01*
X44484919Y-25638484D01*
X44503630Y-25649286D01*
X44554332Y-25684788D01*
X44627148Y-25735774D01*
X44643706Y-25749667D01*
X44750331Y-25856291D01*
X44764225Y-25872850D01*
X44815544Y-25946142D01*
X44850709Y-25996362D01*
X44861516Y-26015081D01*
X44925240Y-26151739D01*
X44932633Y-26172049D01*
X44971659Y-26317696D01*
X44975412Y-26338982D01*
X44989027Y-26494593D01*
X44989499Y-26505401D01*
X44989499Y-37494587D01*
X44989027Y-37505395D01*
X44975411Y-37661017D01*
X44971658Y-37682303D01*
X44932632Y-37827950D01*
X44925239Y-37848261D01*
X44861516Y-37984915D01*
X44850709Y-38003633D01*
X44764219Y-38127154D01*
X44750325Y-38143712D01*
X44643711Y-38250326D01*
X44627153Y-38264220D01*
X44503631Y-38350711D01*
X44484913Y-38361518D01*
X44348263Y-38425239D01*
X44327951Y-38432632D01*
X44182301Y-38471658D01*
X44161016Y-38475411D01*
X44047747Y-38485321D01*
X44005379Y-38489028D01*
X43994577Y-38489500D01*
X40523999Y-38489500D01*
X40515313Y-38486949D01*
X40506352Y-38488238D01*
X40482311Y-38477259D01*
X40456960Y-38469815D01*
X40451032Y-38462974D01*
X40442796Y-38459213D01*
X40428506Y-38436978D01*
X40411205Y-38417011D01*
X40408917Y-38406496D01*
X40405022Y-38400435D01*
X40399999Y-38365500D01*
X40399999Y-38342044D01*
X40419684Y-38275005D01*
X40436318Y-38254363D01*
X40440355Y-38250326D01*
X40445469Y-38245212D01*
X40491614Y-38165288D01*
X40515500Y-38076144D01*
X40515500Y-37983856D01*
X40491614Y-37894712D01*
X40491611Y-37894706D01*
X40445473Y-37814794D01*
X40445470Y-37814791D01*
X40445469Y-37814788D01*
X40436318Y-37805637D01*
X40402833Y-37744314D01*
X40399999Y-37717956D01*
X40399999Y-26222044D01*
X40419684Y-26155005D01*
X40436318Y-26134363D01*
X40455469Y-26115212D01*
X40501614Y-26035288D01*
X40525500Y-25946144D01*
X40525500Y-25853856D01*
X40501614Y-25764712D01*
X40488500Y-25741999D01*
X40462232Y-25696501D01*
X40445758Y-25628602D01*
X40468610Y-25562574D01*
X40523530Y-25519383D01*
X40569618Y-25510500D01*
X43994587Y-25510500D01*
X44005393Y-25510971D01*
G37*
%TD.AperFunction*%
%TD*%
%TA.AperFunction,Conductor*%
%TO.N,/filtering_1/ELECTRODE*%
G36*
X34766496Y-25530185D02*
G01*
X34812251Y-25582989D01*
X34822195Y-25652147D01*
X34793170Y-25715703D01*
X34787138Y-25722181D01*
X34784533Y-25724785D01*
X34784526Y-25724794D01*
X34738388Y-25804706D01*
X34738387Y-25804709D01*
X34738386Y-25804711D01*
X34738386Y-25804712D01*
X34722538Y-25863858D01*
X34714500Y-25893856D01*
X34714500Y-25986143D01*
X34738387Y-26075290D01*
X34738388Y-26075293D01*
X34784526Y-26155205D01*
X34784533Y-26155214D01*
X34803680Y-26174361D01*
X34837165Y-26235684D01*
X34839999Y-26262042D01*
X34839999Y-37817958D01*
X34820314Y-37884997D01*
X34807839Y-37900477D01*
X34804526Y-37904794D01*
X34758388Y-37984706D01*
X34758387Y-37984709D01*
X34758386Y-37984711D01*
X34758386Y-37984712D01*
X34737179Y-38063858D01*
X34734500Y-38073856D01*
X34734500Y-38166143D01*
X34758386Y-38255289D01*
X34786221Y-38303499D01*
X34802694Y-38371399D01*
X34779842Y-38437427D01*
X34724921Y-38480617D01*
X34678834Y-38489500D01*
X30385392Y-38489500D01*
X30318353Y-38469815D01*
X30272598Y-38417011D01*
X30262654Y-38347853D01*
X30278005Y-38303499D01*
X30311614Y-38245288D01*
X30335500Y-38156144D01*
X30335500Y-38063856D01*
X30311614Y-37974712D01*
X30311611Y-37974706D01*
X30261406Y-37887750D01*
X30262564Y-37887081D01*
X30240428Y-37829813D01*
X30239999Y-37819502D01*
X30239999Y-26212044D01*
X30259684Y-26145005D01*
X30272168Y-26129512D01*
X30275463Y-26125217D01*
X30275469Y-26125212D01*
X30321614Y-26045288D01*
X30345500Y-25956144D01*
X30345500Y-25863856D01*
X30321614Y-25774712D01*
X30276457Y-25696500D01*
X30259985Y-25628601D01*
X30282837Y-25562574D01*
X30337758Y-25519383D01*
X30383845Y-25510500D01*
X34699457Y-25510500D01*
X34766496Y-25530185D01*
G37*
%TD.AperFunction*%
%TD*%
%TA.AperFunction,Conductor*%
%TO.N,/filtering_4/ELECTRODE*%
G36*
X19521647Y-25530185D02*
G01*
X19567402Y-25582989D01*
X19577346Y-25652147D01*
X19561995Y-25696501D01*
X19528386Y-25754711D01*
X19528386Y-25754712D01*
X19504500Y-25843856D01*
X19504500Y-25936144D01*
X19520635Y-25996362D01*
X19528387Y-26025290D01*
X19528388Y-26025293D01*
X19578594Y-26112250D01*
X19577431Y-26112920D01*
X19599568Y-26170170D01*
X19599999Y-26180494D01*
X19599999Y-37767958D01*
X19580314Y-37834997D01*
X19563680Y-37855639D01*
X19534533Y-37884785D01*
X19534526Y-37884794D01*
X19488388Y-37964706D01*
X19488387Y-37964709D01*
X19488386Y-37964711D01*
X19488386Y-37964712D01*
X19464500Y-38053856D01*
X19464500Y-38146144D01*
X19483555Y-38217260D01*
X19488387Y-38235290D01*
X19488388Y-38235293D01*
X19527768Y-38303499D01*
X19544242Y-38371398D01*
X19521390Y-38437426D01*
X19466470Y-38480617D01*
X19420382Y-38489500D01*
X16005411Y-38489500D01*
X15994605Y-38489028D01*
X15969583Y-38486838D01*
X15838981Y-38475412D01*
X15817695Y-38471659D01*
X15672048Y-38432633D01*
X15651737Y-38425240D01*
X15515083Y-38361517D01*
X15496365Y-38350710D01*
X15372848Y-38264223D01*
X15356290Y-38250329D01*
X15249670Y-38143709D01*
X15235776Y-38127151D01*
X15149289Y-38003633D01*
X15138482Y-37984915D01*
X15074759Y-37848261D01*
X15067366Y-37827950D01*
X15052746Y-37773386D01*
X15028338Y-37682297D01*
X15024587Y-37661016D01*
X15010971Y-37505384D01*
X15010499Y-37494577D01*
X15010499Y-26505412D01*
X15010971Y-26494605D01*
X15024586Y-26338983D01*
X15028337Y-26317704D01*
X15067366Y-26172044D01*
X15074758Y-26151739D01*
X15112261Y-26071313D01*
X15138485Y-26015074D01*
X15149282Y-25996373D01*
X15235778Y-25872843D01*
X15249661Y-25856297D01*
X15356298Y-25749661D01*
X15372837Y-25735783D01*
X15496369Y-25649284D01*
X15515079Y-25638483D01*
X15651739Y-25574757D01*
X15672043Y-25567366D01*
X15817703Y-25528337D01*
X15838977Y-25524586D01*
X15994593Y-25510971D01*
X16005400Y-25510500D01*
X19454608Y-25510500D01*
X19521647Y-25530185D01*
G37*
%TD.AperFunction*%
%TD*%
%TA.AperFunction,Conductor*%
%TO.N,/filtering_6/ELECTRODE*%
G36*
X29673194Y-25530185D02*
G01*
X29718949Y-25582989D01*
X29728893Y-25652147D01*
X29713542Y-25696501D01*
X29668386Y-25774711D01*
X29644500Y-25863856D01*
X29644500Y-25956144D01*
X29652538Y-25986144D01*
X29668387Y-26045290D01*
X29668388Y-26045293D01*
X29714526Y-26125205D01*
X29714533Y-26125214D01*
X29723680Y-26134361D01*
X29757165Y-26195684D01*
X29759999Y-26222042D01*
X29759999Y-37787958D01*
X29740314Y-37854997D01*
X29723680Y-37875639D01*
X29704533Y-37894785D01*
X29704526Y-37894794D01*
X29658388Y-37974706D01*
X29658387Y-37974709D01*
X29634500Y-38063856D01*
X29634500Y-38156143D01*
X29658386Y-38245288D01*
X29691995Y-38303499D01*
X29708468Y-38371399D01*
X29685616Y-38437426D01*
X29630695Y-38480617D01*
X29584608Y-38489500D01*
X25370034Y-38489500D01*
X25302995Y-38469815D01*
X25257240Y-38417011D01*
X25247296Y-38347853D01*
X25259311Y-38313137D01*
X25258502Y-38312802D01*
X25261609Y-38305295D01*
X25261614Y-38305288D01*
X25285500Y-38216144D01*
X25285500Y-38123856D01*
X25261614Y-38034712D01*
X25261611Y-38034706D01*
X25215473Y-37954794D01*
X25215470Y-37954791D01*
X25215469Y-37954788D01*
X25196318Y-37935637D01*
X25162833Y-37874314D01*
X25159999Y-37847956D01*
X25159999Y-26242044D01*
X25179684Y-26175005D01*
X25192168Y-26159512D01*
X25195463Y-26155217D01*
X25195469Y-26155212D01*
X25241614Y-26075288D01*
X25265500Y-25986144D01*
X25265500Y-25893856D01*
X25241614Y-25804712D01*
X25241611Y-25804706D01*
X25195473Y-25724794D01*
X25195470Y-25724791D01*
X25195469Y-25724788D01*
X25195466Y-25724785D01*
X25190522Y-25718342D01*
X25191799Y-25717361D01*
X25181614Y-25698709D01*
X25165022Y-25672891D01*
X25164130Y-25666690D01*
X25162833Y-25664314D01*
X25159999Y-25637956D01*
X25159999Y-25634500D01*
X25179684Y-25567461D01*
X25232488Y-25521706D01*
X25283999Y-25510500D01*
X29606155Y-25510500D01*
X29673194Y-25530185D01*
G37*
%TD.AperFunction*%
%TD*%
%TA.AperFunction,Conductor*%
%TO.N,/filtering_2/ELECTRODE*%
G36*
X39847421Y-25530185D02*
G01*
X39893176Y-25582989D01*
X39903120Y-25652147D01*
X39887768Y-25696501D01*
X39848388Y-25764706D01*
X39848387Y-25764709D01*
X39848386Y-25764711D01*
X39848386Y-25764712D01*
X39824500Y-25853856D01*
X39824500Y-25946144D01*
X39835217Y-25986142D01*
X39848387Y-26035290D01*
X39848388Y-26035293D01*
X39898594Y-26122250D01*
X39897431Y-26122920D01*
X39919568Y-26180170D01*
X39919999Y-26190494D01*
X39919999Y-37727958D01*
X39900314Y-37794997D01*
X39887839Y-37810477D01*
X39884526Y-37814794D01*
X39838388Y-37894706D01*
X39838387Y-37894709D01*
X39814500Y-37983856D01*
X39814500Y-38076143D01*
X39838387Y-38165290D01*
X39838388Y-38165293D01*
X39884526Y-38245205D01*
X39889478Y-38251658D01*
X39888199Y-38252638D01*
X39898383Y-38271288D01*
X39914976Y-38297107D01*
X39915867Y-38303307D01*
X39917165Y-38305684D01*
X39919999Y-38332042D01*
X39919999Y-38365500D01*
X39900314Y-38432539D01*
X39847510Y-38478294D01*
X39795999Y-38489500D01*
X35491166Y-38489500D01*
X35424127Y-38469815D01*
X35378372Y-38417011D01*
X35368428Y-38347853D01*
X35383779Y-38303499D01*
X35411613Y-38255289D01*
X35411614Y-38255288D01*
X35435500Y-38166144D01*
X35435500Y-38073856D01*
X35411614Y-37984712D01*
X35411120Y-37983856D01*
X35365473Y-37904794D01*
X35365470Y-37904791D01*
X35365469Y-37904788D01*
X35356318Y-37895637D01*
X35322833Y-37834314D01*
X35319999Y-37807956D01*
X35319999Y-26230497D01*
X35339684Y-26163458D01*
X35345414Y-26155308D01*
X35391611Y-26075293D01*
X35391610Y-26075293D01*
X35391614Y-26075288D01*
X35415500Y-25986144D01*
X35415500Y-25893856D01*
X35391614Y-25804712D01*
X35368518Y-25764709D01*
X35341406Y-25717750D01*
X35342564Y-25717081D01*
X35337377Y-25703662D01*
X35325022Y-25684437D01*
X35322105Y-25664152D01*
X35320428Y-25659813D01*
X35319999Y-25649502D01*
X35319999Y-25634500D01*
X35339684Y-25567461D01*
X35392488Y-25521706D01*
X35443999Y-25510500D01*
X39780382Y-25510500D01*
X39847421Y-25530185D01*
G37*
%TD.AperFunction*%
%TD*%
M02*
