%TF.GenerationSoftware,KiCad,Pcbnew,9.0.6-9.0.6~ubuntu24.04.1*%
%TF.CreationDate,2026-01-03T14:32:04+00:00*%
%TF.ProjectId,DRY_ELEC_6CH,4452595f-454c-4454-935f-3643482e6b69,1.0*%
%TF.SameCoordinates,Original*%
%TF.FileFunction,Copper,L2,Inr*%
%TF.FilePolarity,Positive*%
%FSLAX46Y46*%
G04 Gerber Fmt 4.6, Leading zero omitted, Abs format (unit mm)*
G04 Created by KiCad (PCBNEW 9.0.6-9.0.6~ubuntu24.04.1) date 2026-01-03 14:32:04*
%MOMM*%
%LPD*%
G01*
G04 APERTURE LIST*
%TA.AperFunction,ComponentPad*%
%ADD10C,1.800000*%
%TD*%
%TA.AperFunction,ViaPad*%
%ADD11C,0.400000*%
%TD*%
G04 APERTURE END LIST*
D10*
%TO.N,/filtering_1/ELECTRODE*%
%TO.C,J17*%
X32539999Y-32000000D03*
%TD*%
%TO.N,/filtering_5/ELECTRODE*%
%TO.C,J21*%
X22379999Y-32000000D03*
%TD*%
%TO.N,/filtering_4/ELECTRODE*%
%TO.C,J20*%
X17299999Y-32000000D03*
%TD*%
%TO.N,/filtering_2/ELECTRODE*%
%TO.C,J18*%
X37619999Y-32000000D03*
%TD*%
%TO.N,/filtering_6/ELECTRODE*%
%TO.C,J22*%
X27459999Y-32000000D03*
%TD*%
%TO.N,/filtering_3/ELECTRODE*%
%TO.C,J19*%
X42699999Y-32000000D03*
%TD*%
D11*
%TO.N,GND*%
X40165000Y-38030000D03*
X35085000Y-38120000D03*
X29985000Y-38110000D03*
X24935000Y-38170000D03*
X19815000Y-38100000D03*
X40175000Y-25900000D03*
X35065000Y-25940000D03*
X29995000Y-25910000D03*
X19855000Y-25890000D03*
X24915000Y-25940000D03*
%TD*%
%TA.AperFunction,Conductor*%
%TO.N,GND*%
G36*
X44005393Y-25510971D02*
G01*
X44161018Y-25524587D01*
X44182296Y-25528338D01*
X44327950Y-25567366D01*
X44348259Y-25574759D01*
X44450050Y-25622224D01*
X44484919Y-25638484D01*
X44503630Y-25649286D01*
X44627148Y-25735774D01*
X44643706Y-25749667D01*
X44750331Y-25856291D01*
X44764225Y-25872850D01*
X44850709Y-25996362D01*
X44861516Y-26015081D01*
X44925240Y-26151739D01*
X44932633Y-26172049D01*
X44971659Y-26317696D01*
X44975412Y-26338982D01*
X44989027Y-26494593D01*
X44989499Y-26505401D01*
X44989499Y-37494587D01*
X44989027Y-37505395D01*
X44975411Y-37661017D01*
X44971658Y-37682303D01*
X44932632Y-37827950D01*
X44925239Y-37848261D01*
X44861516Y-37984915D01*
X44850709Y-38003633D01*
X44764219Y-38127154D01*
X44750325Y-38143712D01*
X44643711Y-38250326D01*
X44627153Y-38264220D01*
X44503631Y-38350711D01*
X44484913Y-38361518D01*
X44348263Y-38425239D01*
X44327951Y-38432632D01*
X44182301Y-38471658D01*
X44161016Y-38475411D01*
X44047747Y-38485321D01*
X44005379Y-38489028D01*
X43994577Y-38489500D01*
X16005411Y-38489500D01*
X15994605Y-38489028D01*
X15969583Y-38486838D01*
X15838981Y-38475412D01*
X15817695Y-38471659D01*
X15672048Y-38432633D01*
X15651737Y-38425240D01*
X15515083Y-38361517D01*
X15496365Y-38350710D01*
X15372848Y-38264223D01*
X15356290Y-38250329D01*
X15249670Y-38143709D01*
X15235776Y-38127151D01*
X15149289Y-38003633D01*
X15138482Y-37984915D01*
X15074759Y-37848261D01*
X15067366Y-37827950D01*
X15028338Y-37682297D01*
X15024587Y-37661016D01*
X15010971Y-37505384D01*
X15010499Y-37494577D01*
X15010499Y-31896530D01*
X16249499Y-31896530D01*
X16249499Y-32103469D01*
X16289867Y-32306412D01*
X16289869Y-32306420D01*
X16369057Y-32497596D01*
X16484023Y-32669657D01*
X16630341Y-32815975D01*
X16630344Y-32815977D01*
X16802401Y-32930941D01*
X16993579Y-33010130D01*
X17196529Y-33050499D01*
X17196533Y-33050500D01*
X17196534Y-33050500D01*
X17403465Y-33050500D01*
X17403466Y-33050499D01*
X17606419Y-33010130D01*
X17797597Y-32930941D01*
X17969654Y-32815977D01*
X18115976Y-32669655D01*
X18230940Y-32497598D01*
X18310129Y-32306420D01*
X18350499Y-32103465D01*
X18350499Y-31896535D01*
X18350498Y-31896530D01*
X21329499Y-31896530D01*
X21329499Y-32103469D01*
X21369867Y-32306412D01*
X21369869Y-32306420D01*
X21449057Y-32497596D01*
X21564023Y-32669657D01*
X21710341Y-32815975D01*
X21710344Y-32815977D01*
X21882401Y-32930941D01*
X22073579Y-33010130D01*
X22276529Y-33050499D01*
X22276533Y-33050500D01*
X22276534Y-33050500D01*
X22483465Y-33050500D01*
X22483466Y-33050499D01*
X22686419Y-33010130D01*
X22877597Y-32930941D01*
X23049654Y-32815977D01*
X23195976Y-32669655D01*
X23310940Y-32497598D01*
X23390129Y-32306420D01*
X23430499Y-32103465D01*
X23430499Y-31896535D01*
X23430498Y-31896530D01*
X26409499Y-31896530D01*
X26409499Y-32103469D01*
X26449867Y-32306412D01*
X26449869Y-32306420D01*
X26529057Y-32497596D01*
X26644023Y-32669657D01*
X26790341Y-32815975D01*
X26790344Y-32815977D01*
X26962401Y-32930941D01*
X27153579Y-33010130D01*
X27356529Y-33050499D01*
X27356533Y-33050500D01*
X27356534Y-33050500D01*
X27563465Y-33050500D01*
X27563466Y-33050499D01*
X27766419Y-33010130D01*
X27957597Y-32930941D01*
X28129654Y-32815977D01*
X28275976Y-32669655D01*
X28390940Y-32497598D01*
X28470129Y-32306420D01*
X28510499Y-32103465D01*
X28510499Y-31896535D01*
X28510498Y-31896530D01*
X31489499Y-31896530D01*
X31489499Y-32103469D01*
X31529867Y-32306412D01*
X31529869Y-32306420D01*
X31609057Y-32497596D01*
X31724023Y-32669657D01*
X31870341Y-32815975D01*
X31870344Y-32815977D01*
X32042401Y-32930941D01*
X32233579Y-33010130D01*
X32436529Y-33050499D01*
X32436533Y-33050500D01*
X32436534Y-33050500D01*
X32643465Y-33050500D01*
X32643466Y-33050499D01*
X32846419Y-33010130D01*
X33037597Y-32930941D01*
X33209654Y-32815977D01*
X33355976Y-32669655D01*
X33470940Y-32497598D01*
X33550129Y-32306420D01*
X33590499Y-32103465D01*
X33590499Y-31896535D01*
X33590498Y-31896530D01*
X36569499Y-31896530D01*
X36569499Y-32103469D01*
X36609867Y-32306412D01*
X36609869Y-32306420D01*
X36689057Y-32497596D01*
X36804023Y-32669657D01*
X36950341Y-32815975D01*
X36950344Y-32815977D01*
X37122401Y-32930941D01*
X37313579Y-33010130D01*
X37516529Y-33050499D01*
X37516533Y-33050500D01*
X37516534Y-33050500D01*
X37723465Y-33050500D01*
X37723466Y-33050499D01*
X37926419Y-33010130D01*
X38117597Y-32930941D01*
X38289654Y-32815977D01*
X38435976Y-32669655D01*
X38550940Y-32497598D01*
X38630129Y-32306420D01*
X38670499Y-32103465D01*
X38670499Y-31896535D01*
X38670498Y-31896530D01*
X41649499Y-31896530D01*
X41649499Y-32103469D01*
X41689867Y-32306412D01*
X41689869Y-32306420D01*
X41769057Y-32497596D01*
X41884023Y-32669657D01*
X42030341Y-32815975D01*
X42030344Y-32815977D01*
X42202401Y-32930941D01*
X42393579Y-33010130D01*
X42596529Y-33050499D01*
X42596533Y-33050500D01*
X42596534Y-33050500D01*
X42803465Y-33050500D01*
X42803466Y-33050499D01*
X43006419Y-33010130D01*
X43197597Y-32930941D01*
X43369654Y-32815977D01*
X43515976Y-32669655D01*
X43630940Y-32497598D01*
X43710129Y-32306420D01*
X43750499Y-32103465D01*
X43750499Y-31896535D01*
X43710129Y-31693580D01*
X43630940Y-31502402D01*
X43515976Y-31330345D01*
X43515974Y-31330342D01*
X43369656Y-31184024D01*
X43283625Y-31126541D01*
X43197597Y-31069059D01*
X43006419Y-30989870D01*
X43006411Y-30989868D01*
X42803468Y-30949500D01*
X42803464Y-30949500D01*
X42596534Y-30949500D01*
X42596529Y-30949500D01*
X42393586Y-30989868D01*
X42393578Y-30989870D01*
X42202402Y-31069058D01*
X42030341Y-31184024D01*
X41884023Y-31330342D01*
X41769057Y-31502403D01*
X41689869Y-31693579D01*
X41689867Y-31693587D01*
X41649499Y-31896530D01*
X38670498Y-31896530D01*
X38630129Y-31693580D01*
X38550940Y-31502402D01*
X38435976Y-31330345D01*
X38435974Y-31330342D01*
X38289656Y-31184024D01*
X38203625Y-31126541D01*
X38117597Y-31069059D01*
X37926419Y-30989870D01*
X37926411Y-30989868D01*
X37723468Y-30949500D01*
X37723464Y-30949500D01*
X37516534Y-30949500D01*
X37516529Y-30949500D01*
X37313586Y-30989868D01*
X37313578Y-30989870D01*
X37122402Y-31069058D01*
X36950341Y-31184024D01*
X36804023Y-31330342D01*
X36689057Y-31502403D01*
X36609869Y-31693579D01*
X36609867Y-31693587D01*
X36569499Y-31896530D01*
X33590498Y-31896530D01*
X33550129Y-31693580D01*
X33470940Y-31502402D01*
X33355976Y-31330345D01*
X33355974Y-31330342D01*
X33209656Y-31184024D01*
X33123625Y-31126541D01*
X33037597Y-31069059D01*
X32846419Y-30989870D01*
X32846411Y-30989868D01*
X32643468Y-30949500D01*
X32643464Y-30949500D01*
X32436534Y-30949500D01*
X32436529Y-30949500D01*
X32233586Y-30989868D01*
X32233578Y-30989870D01*
X32042402Y-31069058D01*
X31870341Y-31184024D01*
X31724023Y-31330342D01*
X31609057Y-31502403D01*
X31529869Y-31693579D01*
X31529867Y-31693587D01*
X31489499Y-31896530D01*
X28510498Y-31896530D01*
X28470129Y-31693580D01*
X28390940Y-31502402D01*
X28275976Y-31330345D01*
X28275974Y-31330342D01*
X28129656Y-31184024D01*
X28043625Y-31126541D01*
X27957597Y-31069059D01*
X27766419Y-30989870D01*
X27766411Y-30989868D01*
X27563468Y-30949500D01*
X27563464Y-30949500D01*
X27356534Y-30949500D01*
X27356529Y-30949500D01*
X27153586Y-30989868D01*
X27153578Y-30989870D01*
X26962402Y-31069058D01*
X26790341Y-31184024D01*
X26644023Y-31330342D01*
X26529057Y-31502403D01*
X26449869Y-31693579D01*
X26449867Y-31693587D01*
X26409499Y-31896530D01*
X23430498Y-31896530D01*
X23390129Y-31693580D01*
X23310940Y-31502402D01*
X23195976Y-31330345D01*
X23195974Y-31330342D01*
X23049656Y-31184024D01*
X22963625Y-31126541D01*
X22877597Y-31069059D01*
X22686419Y-30989870D01*
X22686411Y-30989868D01*
X22483468Y-30949500D01*
X22483464Y-30949500D01*
X22276534Y-30949500D01*
X22276529Y-30949500D01*
X22073586Y-30989868D01*
X22073578Y-30989870D01*
X21882402Y-31069058D01*
X21710341Y-31184024D01*
X21564023Y-31330342D01*
X21449057Y-31502403D01*
X21369869Y-31693579D01*
X21369867Y-31693587D01*
X21329499Y-31896530D01*
X18350498Y-31896530D01*
X18310129Y-31693580D01*
X18230940Y-31502402D01*
X18115976Y-31330345D01*
X18115974Y-31330342D01*
X17969656Y-31184024D01*
X17883625Y-31126541D01*
X17797597Y-31069059D01*
X17606419Y-30989870D01*
X17606411Y-30989868D01*
X17403468Y-30949500D01*
X17403464Y-30949500D01*
X17196534Y-30949500D01*
X17196529Y-30949500D01*
X16993586Y-30989868D01*
X16993578Y-30989870D01*
X16802402Y-31069058D01*
X16630341Y-31184024D01*
X16484023Y-31330342D01*
X16369057Y-31502403D01*
X16289869Y-31693579D01*
X16289867Y-31693587D01*
X16249499Y-31896530D01*
X15010499Y-31896530D01*
X15010499Y-26505412D01*
X15010971Y-26494605D01*
X15024586Y-26338983D01*
X15024586Y-26338982D01*
X15028337Y-26317704D01*
X15067366Y-26172044D01*
X15074758Y-26151739D01*
X15112261Y-26071313D01*
X15138485Y-26015074D01*
X15149282Y-25996373D01*
X15235778Y-25872843D01*
X15249661Y-25856297D01*
X15356298Y-25749661D01*
X15372837Y-25735783D01*
X15496369Y-25649284D01*
X15515079Y-25638483D01*
X15651737Y-25574758D01*
X15672043Y-25567366D01*
X15817703Y-25528337D01*
X15838977Y-25524586D01*
X15994593Y-25510971D01*
X16005400Y-25510500D01*
X43994587Y-25510500D01*
X44005393Y-25510971D01*
G37*
%TD.AperFunction*%
%TD*%
M02*
