%TF.GenerationSoftware,KiCad,Pcbnew,9.0.6-9.0.6~ubuntu24.04.1*%
%TF.CreationDate,2026-01-03T14:32:04+00:00*%
%TF.ProjectId,DRY_ELEC_6CH,4452595f-454c-4454-935f-3643482e6b69,1.0*%
%TF.SameCoordinates,Original*%
%TF.FileFunction,Copper,L1,Top*%
%TF.FilePolarity,Positive*%
%FSLAX46Y46*%
G04 Gerber Fmt 4.6, Leading zero omitted, Abs format (unit mm)*
G04 Created by KiCad (PCBNEW 9.0.6-9.0.6~ubuntu24.04.1) date 2026-01-03 14:32:04*
%MOMM*%
%LPD*%
G01*
G04 APERTURE LIST*
G04 Aperture macros list*
%AMRoundRect*
0 Rectangle with rounded corners*
0 $1 Rounding radius*
0 $2 $3 $4 $5 $6 $7 $8 $9 X,Y pos of 4 corners*
0 Add a 4 corners polygon primitive as box body*
4,1,4,$2,$3,$4,$5,$6,$7,$8,$9,$2,$3,0*
0 Add four circle primitives for the rounded corners*
1,1,$1+$1,$2,$3*
1,1,$1+$1,$4,$5*
1,1,$1+$1,$6,$7*
1,1,$1+$1,$8,$9*
0 Add four rect primitives between the rounded corners*
20,1,$1+$1,$2,$3,$4,$5,0*
20,1,$1+$1,$4,$5,$6,$7,0*
20,1,$1+$1,$6,$7,$8,$9,0*
20,1,$1+$1,$8,$9,$2,$3,0*%
%AMFreePoly0*
4,1,13,0.345671,0.480970,0.426777,0.426777,0.480970,0.345671,0.500000,0.250000,0.500000,-0.900000,-0.500000,-0.900000,-0.500000,0.250000,-0.480970,0.345671,-0.426777,0.426777,-0.345671,0.480970,-0.250000,0.500000,0.250000,0.500000,0.345671,0.480970,0.345671,0.480970,$1*%
%AMFreePoly1*
4,1,23,0.500000,-0.750000,0.000000,-0.750000,0.000000,-0.745722,-0.065263,-0.745722,-0.191342,-0.711940,-0.304381,-0.646677,-0.396677,-0.554381,-0.461940,-0.441342,-0.495722,-0.315263,-0.495722,-0.250000,-0.500000,-0.250000,-0.500000,0.250000,-0.495722,0.250000,-0.495722,0.315263,-0.461940,0.441342,-0.396677,0.554381,-0.304381,0.646677,-0.191342,0.711940,-0.065263,0.745722,0.000000,0.745722,
0.000000,0.750000,0.500000,0.750000,0.500000,-0.750000,0.500000,-0.750000,$1*%
%AMFreePoly2*
4,1,23,0.000000,0.745722,0.065263,0.745722,0.191342,0.711940,0.304381,0.646677,0.396677,0.554381,0.461940,0.441342,0.495722,0.315263,0.495722,0.250000,0.500000,0.250000,0.500000,-0.250000,0.495722,-0.250000,0.495722,-0.315263,0.461940,-0.441342,0.396677,-0.554381,0.304381,-0.646677,0.191342,-0.711940,0.065263,-0.745722,0.000000,-0.745722,0.000000,-0.750000,-0.500000,-0.750000,
-0.500000,0.750000,0.000000,0.750000,0.000000,0.745722,0.000000,0.745722,$1*%
G04 Aperture macros list end*
%TA.AperFunction,EtchedComponent*%
%ADD10C,0.000000*%
%TD*%
%TA.AperFunction,SMDPad,CuDef*%
%ADD11FreePoly0,0.000000*%
%TD*%
%TA.AperFunction,SMDPad,CuDef*%
%ADD12FreePoly0,180.000000*%
%TD*%
%TA.AperFunction,SMDPad,CuDef*%
%ADD13RoundRect,0.140000X0.170000X-0.140000X0.170000X0.140000X-0.170000X0.140000X-0.170000X-0.140000X0*%
%TD*%
%TA.AperFunction,SMDPad,CuDef*%
%ADD14C,3.000000*%
%TD*%
%TA.AperFunction,SMDPad,CuDef*%
%ADD15RoundRect,0.160000X0.160000X-0.197500X0.160000X0.197500X-0.160000X0.197500X-0.160000X-0.197500X0*%
%TD*%
%TA.AperFunction,SMDPad,CuDef*%
%ADD16FreePoly1,180.000000*%
%TD*%
%TA.AperFunction,SMDPad,CuDef*%
%ADD17FreePoly2,180.000000*%
%TD*%
%TA.AperFunction,ComponentPad*%
%ADD18C,1.800000*%
%TD*%
%TA.AperFunction,SMDPad,CuDef*%
%ADD19FreePoly1,0.000000*%
%TD*%
%TA.AperFunction,SMDPad,CuDef*%
%ADD20FreePoly2,0.000000*%
%TD*%
%TA.AperFunction,ViaPad*%
%ADD21C,0.400000*%
%TD*%
%TA.AperFunction,Conductor*%
%ADD22C,0.127000*%
%TD*%
G04 APERTURE END LIST*
%TA.AperFunction,Conductor*%
%TO.N,GND*%
G36*
X25055000Y-27700000D02*
G01*
X26055000Y-27700000D01*
X26055000Y-28300000D01*
X25055000Y-28300000D01*
X25055000Y-27700000D01*
G37*
%TD.AperFunction*%
%TA.AperFunction,Conductor*%
%TO.N,/IN2*%
G36*
X31405000Y-27700000D02*
G01*
X32405000Y-27700000D01*
X32405000Y-28300000D01*
X31405000Y-28300000D01*
X31405000Y-27700000D01*
G37*
%TD.AperFunction*%
%TA.AperFunction,Conductor*%
%TO.N,/IN1*%
G36*
X33945000Y-27700000D02*
G01*
X34945000Y-27700000D01*
X34945000Y-28300000D01*
X33945000Y-28300000D01*
X33945000Y-27700000D01*
G37*
%TD.AperFunction*%
%TA.AperFunction,Conductor*%
%TO.N,/IN5*%
G36*
X27595000Y-27700000D02*
G01*
X28595000Y-27700000D01*
X28595000Y-28300000D01*
X27595000Y-28300000D01*
X27595000Y-27700000D01*
G37*
%TD.AperFunction*%
%TA.AperFunction,Conductor*%
%TO.N,/IN1*%
G36*
X32675000Y-27700000D02*
G01*
X33675000Y-27700000D01*
X33675000Y-28300000D01*
X32675000Y-28300000D01*
X32675000Y-27700000D01*
G37*
%TD.AperFunction*%
%TA.AperFunction,Conductor*%
%TO.N,/IN4*%
G36*
X28865000Y-27700000D02*
G01*
X29865000Y-27700000D01*
X29865000Y-28300000D01*
X28865000Y-28300000D01*
X28865000Y-27700000D01*
G37*
%TD.AperFunction*%
%TA.AperFunction,Conductor*%
%TO.N,/IN6*%
G36*
X26325000Y-27700000D02*
G01*
X27325000Y-27700000D01*
X27325000Y-28300000D01*
X26325000Y-28300000D01*
X26325000Y-27700000D01*
G37*
%TD.AperFunction*%
%TA.AperFunction,Conductor*%
%TO.N,/IN3*%
G36*
X30135000Y-27700000D02*
G01*
X31135000Y-27700000D01*
X31135000Y-28300000D01*
X30135000Y-28300000D01*
X30135000Y-27700000D01*
G37*
%TD.AperFunction*%
D10*
%TA.AperFunction,EtchedComponent*%
%TD*%
%TO.C,JP2*%
G36*
X37234999Y-34205000D02*
G01*
X36734999Y-34205000D01*
X36734999Y-33605000D01*
X37234999Y-33605000D01*
X37234999Y-34205000D01*
G37*
%TD.AperFunction*%
%TA.AperFunction,EtchedComponent*%
%TO.C,JP5*%
G36*
X23264999Y-34205000D02*
G01*
X22764999Y-34205000D01*
X22764999Y-33605000D01*
X23264999Y-33605000D01*
X23264999Y-34205000D01*
G37*
%TD.AperFunction*%
%TA.AperFunction,EtchedComponent*%
%TO.C,JP3*%
G36*
X42314999Y-34205000D02*
G01*
X41814999Y-34205000D01*
X41814999Y-33605000D01*
X42314999Y-33605000D01*
X42314999Y-34205000D01*
G37*
%TD.AperFunction*%
%TA.AperFunction,EtchedComponent*%
%TO.C,JP6*%
G36*
X28344999Y-34205000D02*
G01*
X27844999Y-34205000D01*
X27844999Y-33605000D01*
X28344999Y-33605000D01*
X28344999Y-34205000D01*
G37*
%TD.AperFunction*%
%TA.AperFunction,EtchedComponent*%
%TO.C,JP1*%
G36*
X32169998Y-34205000D02*
G01*
X31669998Y-34205000D01*
X31669998Y-33605000D01*
X32169998Y-33605000D01*
X32169998Y-34205000D01*
G37*
%TD.AperFunction*%
%TA.AperFunction,EtchedComponent*%
%TO.C,JP4*%
G36*
X18170000Y-34205000D02*
G01*
X17670000Y-34205000D01*
X17670000Y-33605000D01*
X18170000Y-33605000D01*
X18170000Y-34205000D01*
G37*
%TD.AperFunction*%
%TD*%
D11*
%TO.P,J1,1,Pin_1*%
%TO.N,GND*%
X25555000Y-26800000D03*
%TD*%
D12*
%TO.P,J14,1,Pin_1*%
%TO.N,/IN2*%
X31905000Y-29200000D03*
%TD*%
D11*
%TO.P,J4,1,Pin_1*%
%TO.N,/IN4*%
X29365000Y-26800000D03*
%TD*%
D13*
%TO.P,C9,1*%
%TO.N,Net-(C9-Pad1)*%
X18499999Y-27580000D03*
%TO.P,C9,2*%
%TO.N,GND*%
X18499999Y-26620000D03*
%TD*%
D14*
%TO.P,I4,1,conn*%
%TO.N,GND*%
X43099999Y-36600000D03*
%TD*%
D15*
%TO.P,R6,1*%
%TO.N,Net-(C5-Pad1)*%
X43499999Y-29797500D03*
%TO.P,R6,2*%
%TO.N,/IN3*%
X43499999Y-28602500D03*
%TD*%
D13*
%TO.P,C2,1*%
%TO.N,/IN1*%
X39499999Y-27580000D03*
%TO.P,C2,2*%
%TO.N,GND*%
X39499999Y-26620000D03*
%TD*%
D16*
%TO.P,JP2,1,A*%
%TO.N,/filtering_2/ELECTRODE*%
X37634998Y-33905000D03*
D17*
%TO.P,JP2,2,B*%
%TO.N,/IN2*%
X36335000Y-33905000D03*
%TD*%
D12*
%TO.P,J9,1,Pin_1*%
%TO.N,GND*%
X25555000Y-29200000D03*
%TD*%
D13*
%TO.P,C5,1*%
%TO.N,Net-(C5-Pad1)*%
X42499999Y-27580000D03*
%TO.P,C5,2*%
%TO.N,GND*%
X42499999Y-26620000D03*
%TD*%
D11*
%TO.P,J2,1,Pin_1*%
%TO.N,/IN6*%
X26825000Y-26800000D03*
%TD*%
D14*
%TO.P,I3,1,conn*%
%TO.N,GND*%
X16899999Y-36600000D03*
%TD*%
D13*
%TO.P,C8,1*%
%TO.N,/IN4*%
X17499999Y-27580000D03*
%TO.P,C8,2*%
%TO.N,GND*%
X17499999Y-26620000D03*
%TD*%
D18*
%TO.P,J17,1,Pin_1*%
%TO.N,/filtering_1/ELECTRODE*%
X32539999Y-32000000D03*
%TD*%
D15*
%TO.P,R7,1*%
%TO.N,/filtering_4/ELECTRODE*%
X16499999Y-29797500D03*
%TO.P,R7,2*%
%TO.N,Net-(C7-Pad1)*%
X16499999Y-28602500D03*
%TD*%
D18*
%TO.P,J21,1,Pin_1*%
%TO.N,/filtering_5/ELECTRODE*%
X22379999Y-32000000D03*
%TD*%
D15*
%TO.P,R12,1*%
%TO.N,Net-(C11-Pad1)*%
X21499999Y-29797500D03*
%TO.P,R12,2*%
%TO.N,/IN6*%
X21499999Y-28602500D03*
%TD*%
D13*
%TO.P,C4,1*%
%TO.N,/IN2*%
X41499999Y-27582500D03*
%TO.P,C4,2*%
%TO.N,GND*%
X41499999Y-26622500D03*
%TD*%
D12*
%TO.P,J12,1,Pin_1*%
%TO.N,/IN4*%
X29365000Y-29200000D03*
%TD*%
D19*
%TO.P,JP5,1,A*%
%TO.N,/filtering_5/ELECTRODE*%
X22365000Y-33905000D03*
D20*
%TO.P,JP5,2,B*%
%TO.N,/IN5*%
X23664998Y-33905000D03*
%TD*%
D15*
%TO.P,R9,1*%
%TO.N,/filtering_5/ELECTRODE*%
X18499999Y-29797500D03*
%TO.P,R9,2*%
%TO.N,Net-(C9-Pad1)*%
X18499999Y-28602500D03*
%TD*%
D12*
%TO.P,J13,1,Pin_1*%
%TO.N,/IN3*%
X30635000Y-29200000D03*
%TD*%
%TO.P,J16,1,Pin_1*%
%TO.N,/IN1*%
X34445000Y-29200000D03*
%TD*%
D13*
%TO.P,C1,1*%
%TO.N,Net-(C1-Pad1)*%
X38499999Y-27580000D03*
%TO.P,C1,2*%
%TO.N,GND*%
X38499999Y-26620000D03*
%TD*%
D15*
%TO.P,R11,1*%
%TO.N,/filtering_6/ELECTRODE*%
X20499999Y-29797500D03*
%TO.P,R11,2*%
%TO.N,Net-(C11-Pad1)*%
X20499999Y-28602500D03*
%TD*%
%TO.P,R10,1*%
%TO.N,Net-(C9-Pad1)*%
X19499999Y-29797500D03*
%TO.P,R10,2*%
%TO.N,/IN5*%
X19499999Y-28602500D03*
%TD*%
D13*
%TO.P,C6,1*%
%TO.N,/IN3*%
X43499999Y-27580000D03*
%TO.P,C6,2*%
%TO.N,GND*%
X43499999Y-26620000D03*
%TD*%
D15*
%TO.P,R2,1*%
%TO.N,Net-(C1-Pad1)*%
X39499999Y-29797500D03*
%TO.P,R2,2*%
%TO.N,/IN1*%
X39499999Y-28602500D03*
%TD*%
%TO.P,R4,1*%
%TO.N,Net-(C3-Pad1)*%
X41499999Y-29800000D03*
%TO.P,R4,2*%
%TO.N,/IN2*%
X41499999Y-28605000D03*
%TD*%
D13*
%TO.P,C7,1*%
%TO.N,Net-(C7-Pad1)*%
X16499999Y-27580000D03*
%TO.P,C7,2*%
%TO.N,GND*%
X16499999Y-26620000D03*
%TD*%
%TO.P,C3,1*%
%TO.N,Net-(C3-Pad1)*%
X40499999Y-27582500D03*
%TO.P,C3,2*%
%TO.N,GND*%
X40499999Y-26622500D03*
%TD*%
D15*
%TO.P,R1,1*%
%TO.N,/filtering_1/ELECTRODE*%
X38499999Y-29797500D03*
%TO.P,R1,2*%
%TO.N,Net-(C1-Pad1)*%
X38499999Y-28602500D03*
%TD*%
D12*
%TO.P,J10,1,Pin_1*%
%TO.N,/IN6*%
X26825000Y-29200000D03*
%TD*%
%TO.P,J15,1,Pin_1*%
%TO.N,/IN1*%
X33175000Y-29200000D03*
%TD*%
D15*
%TO.P,R8,1*%
%TO.N,Net-(C7-Pad1)*%
X17499999Y-29797500D03*
%TO.P,R8,2*%
%TO.N,/IN4*%
X17499999Y-28602500D03*
%TD*%
D18*
%TO.P,J20,1,Pin_1*%
%TO.N,/filtering_4/ELECTRODE*%
X17299999Y-32000000D03*
%TD*%
D13*
%TO.P,C11,1*%
%TO.N,Net-(C11-Pad1)*%
X20499999Y-27580000D03*
%TO.P,C11,2*%
%TO.N,GND*%
X20499999Y-26620000D03*
%TD*%
D11*
%TO.P,J5,1,Pin_1*%
%TO.N,/IN3*%
X30635000Y-26800000D03*
%TD*%
D13*
%TO.P,C12,1*%
%TO.N,/IN6*%
X21499999Y-27580000D03*
%TO.P,C12,2*%
%TO.N,GND*%
X21499999Y-26620000D03*
%TD*%
D11*
%TO.P,J7,1,Pin_1*%
%TO.N,/IN1*%
X33175000Y-26800000D03*
%TD*%
D19*
%TO.P,JP3,1,A*%
%TO.N,/filtering_3/ELECTRODE*%
X41415000Y-33905000D03*
D20*
%TO.P,JP3,2,B*%
%TO.N,/IN3*%
X42714998Y-33905000D03*
%TD*%
D11*
%TO.P,J3,1,Pin_1*%
%TO.N,/IN5*%
X28095000Y-26800000D03*
%TD*%
D18*
%TO.P,J18,1,Pin_1*%
%TO.N,/filtering_2/ELECTRODE*%
X37619999Y-32000000D03*
%TD*%
D13*
%TO.P,C10,1*%
%TO.N,/IN5*%
X19499999Y-27580000D03*
%TO.P,C10,2*%
%TO.N,GND*%
X19499999Y-26620000D03*
%TD*%
D18*
%TO.P,J22,1,Pin_1*%
%TO.N,/filtering_6/ELECTRODE*%
X27459999Y-32000000D03*
%TD*%
D15*
%TO.P,R3,1*%
%TO.N,/filtering_2/ELECTRODE*%
X40499999Y-29800000D03*
%TO.P,R3,2*%
%TO.N,Net-(C3-Pad1)*%
X40499999Y-28605000D03*
%TD*%
D18*
%TO.P,J19,1,Pin_1*%
%TO.N,/filtering_3/ELECTRODE*%
X42699999Y-32000000D03*
%TD*%
D12*
%TO.P,J11,1,Pin_1*%
%TO.N,/IN5*%
X28095000Y-29200000D03*
%TD*%
D19*
%TO.P,JP6,1,A*%
%TO.N,/filtering_6/ELECTRODE*%
X27445000Y-33905000D03*
D20*
%TO.P,JP6,2,B*%
%TO.N,/IN6*%
X28744998Y-33905000D03*
%TD*%
D11*
%TO.P,J6,1,Pin_1*%
%TO.N,/IN2*%
X31905000Y-26800000D03*
%TD*%
%TO.P,J8,1,Pin_1*%
%TO.N,/IN1*%
X34445000Y-26800000D03*
%TD*%
D16*
%TO.P,JP1,1,A*%
%TO.N,/filtering_1/ELECTRODE*%
X32569997Y-33905000D03*
D17*
%TO.P,JP1,2,B*%
%TO.N,/IN1*%
X31269999Y-33905000D03*
%TD*%
D19*
%TO.P,JP4,1,A*%
%TO.N,/filtering_4/ELECTRODE*%
X17270001Y-33905000D03*
D20*
%TO.P,JP4,2,B*%
%TO.N,/IN4*%
X18569999Y-33905000D03*
%TD*%
D15*
%TO.P,R5,1*%
%TO.N,/filtering_3/ELECTRODE*%
X42499999Y-29797500D03*
%TO.P,R5,2*%
%TO.N,Net-(C5-Pad1)*%
X42499999Y-28602500D03*
%TD*%
D21*
%TO.N,GND*%
X40165000Y-38030000D03*
X35085000Y-38120000D03*
X29985000Y-38110000D03*
X24935000Y-38170000D03*
X19815000Y-38100000D03*
X40175000Y-25900000D03*
X35065000Y-25940000D03*
X29995000Y-25910000D03*
X19855000Y-25890000D03*
X24915000Y-25940000D03*
%TD*%
D22*
%TO.N,/filtering_6/ELECTRODE*%
X27459999Y-32000000D02*
X27459999Y-33890001D01*
X27459999Y-33890001D02*
X27445000Y-33905000D01*
%TO.N,/IN5*%
X19499999Y-28602500D02*
X19999999Y-29102500D01*
X23699999Y-33940001D02*
X24859998Y-35100000D01*
X29499999Y-30604999D02*
X28095000Y-29200000D01*
X19999999Y-29102500D02*
X19999999Y-30102790D01*
X19999999Y-30102790D02*
X20537209Y-30640000D01*
X20537209Y-30640000D02*
X22885000Y-30640000D01*
X22885000Y-30640000D02*
X23699999Y-31454999D01*
X23699999Y-31454999D02*
X23699999Y-33940001D01*
X24859998Y-35100000D02*
X28899999Y-35100000D01*
X28899999Y-35100000D02*
X29499999Y-34500000D01*
X29499999Y-34500000D02*
X29499999Y-30604999D01*
%TO.N,/IN1*%
X39499999Y-28602500D02*
X39999999Y-29102500D01*
X39999999Y-29102500D02*
X39999999Y-30300000D01*
X39999999Y-30300000D02*
X39599999Y-30700000D01*
X39599999Y-30700000D02*
X36099999Y-30700000D01*
X36099999Y-30700000D02*
X34299999Y-32500000D01*
X33299999Y-34900000D02*
X31629999Y-34900000D01*
X34299999Y-32500000D02*
X34299999Y-33900000D01*
X34299999Y-33900000D02*
X33299999Y-34900000D01*
X31629999Y-34900000D02*
X31486499Y-34756500D01*
X31486499Y-34121500D02*
X31269999Y-33905000D01*
X31486499Y-34756500D02*
X31486499Y-34121500D01*
X31269999Y-33905000D02*
X31269999Y-31105001D01*
X31269999Y-31105001D02*
X33175000Y-29200000D01*
%TO.N,/IN6*%
X26825000Y-29200000D02*
X26825000Y-29774999D01*
X21499999Y-28602500D02*
X21499999Y-27580000D01*
X26199999Y-30400000D02*
X23598749Y-30400000D01*
X28744998Y-33905000D02*
X28744998Y-31119998D01*
X28744998Y-31119998D02*
X26825000Y-29200000D01*
X26825000Y-26800000D02*
X26825000Y-29200000D01*
X23598749Y-30400000D02*
X21801249Y-28602500D01*
X26825000Y-29774999D02*
X26199999Y-30400000D01*
X21801249Y-28602500D02*
X21499999Y-28602500D01*
%TO.N,/IN5*%
X28095000Y-26800000D02*
X28095000Y-29200000D01*
X19499999Y-28602500D02*
X19499999Y-27580000D01*
%TO.N,/IN4*%
X17499999Y-28952500D02*
X17999999Y-29452500D01*
X18569999Y-33905000D02*
X20994999Y-33905000D01*
X17499999Y-28602500D02*
X17499999Y-28952500D01*
X29799999Y-29634999D02*
X29365000Y-29200000D01*
X20999999Y-33900000D02*
X22416999Y-35317000D01*
X29365000Y-26800000D02*
X29365000Y-29200000D01*
X17999999Y-30500000D02*
X20999999Y-33500000D01*
X17999999Y-29452500D02*
X17999999Y-30500000D01*
X17499999Y-28602500D02*
X17499999Y-27580000D01*
X28989883Y-35317000D02*
X29799999Y-34506884D01*
X29799999Y-34506884D02*
X29799999Y-29634999D01*
X22416999Y-35317000D02*
X28989883Y-35317000D01*
X20994999Y-33905000D02*
X20999999Y-33900000D01*
X20999999Y-33500000D02*
X20999999Y-33900000D01*
%TO.N,/IN3*%
X41665999Y-35334000D02*
X44099999Y-32900000D01*
X44099999Y-32900000D02*
X44099999Y-29300000D01*
X30635000Y-26800000D02*
X30635000Y-29200000D01*
X41665999Y-35334000D02*
X42714998Y-34285001D01*
X42714998Y-34285001D02*
X42714998Y-33905000D01*
X30199999Y-29635001D02*
X30199999Y-34411884D01*
X30199999Y-34411884D02*
X31122115Y-35334000D01*
X41365999Y-35334000D02*
X41665999Y-35334000D01*
X43499999Y-28700000D02*
X43499999Y-28602500D01*
X43499999Y-27580000D02*
X43499999Y-28602500D01*
X30635000Y-29200000D02*
X30199999Y-29635001D01*
X44099999Y-29300000D02*
X43499999Y-28700000D01*
X31122115Y-35334000D02*
X41365999Y-35334000D01*
%TO.N,/IN2*%
X30499999Y-34405000D02*
X31211999Y-35117000D01*
X41999999Y-29105000D02*
X41499999Y-28605000D01*
X31905000Y-26800000D02*
X31905000Y-29200000D01*
X30499999Y-30605001D02*
X30499999Y-34405000D01*
X41499999Y-27582500D02*
X41499999Y-28605000D01*
X36335000Y-35081999D02*
X36299999Y-35117000D01*
X41999999Y-30984154D02*
X41999999Y-29105000D01*
X36299999Y-35117000D02*
X37867153Y-35117000D01*
X37884153Y-35100000D02*
X41999999Y-30984154D01*
X31211999Y-35117000D02*
X36299999Y-35117000D01*
X31905000Y-29200000D02*
X30499999Y-30605001D01*
X37867153Y-35117000D02*
X37884153Y-35100000D01*
X36335000Y-33905000D02*
X36335000Y-35081999D01*
%TO.N,/IN1*%
X33175000Y-29200000D02*
X34380000Y-29200000D01*
X34380000Y-29200000D02*
X34445000Y-29265000D01*
X34445000Y-26865000D02*
X34445000Y-29265000D01*
X34445000Y-26865000D02*
X33240000Y-26865000D01*
X39499999Y-27580000D02*
X39499999Y-28602500D01*
X33175000Y-26800000D02*
X33175000Y-29200000D01*
X33240000Y-26865000D02*
X33175000Y-26800000D01*
%TO.N,Net-(C1-Pad1)*%
X38499999Y-27580000D02*
X38499999Y-28602500D01*
X38499999Y-28602500D02*
X39499999Y-29602500D01*
X39499999Y-29602500D02*
X39499999Y-29797500D01*
%TO.N,Net-(C3-Pad1)*%
X40499999Y-28800000D02*
X41499999Y-29800000D01*
X40499999Y-28605000D02*
X40499999Y-28800000D01*
X40499999Y-27582500D02*
X40499999Y-28605000D01*
%TO.N,GND*%
X16499999Y-26620000D02*
X17499999Y-26620000D01*
X40499999Y-26622500D02*
X39502499Y-26622500D01*
X20499999Y-26620000D02*
X21499999Y-26620000D01*
X42099999Y-26622500D02*
X41499999Y-26622500D01*
X43499999Y-26620000D02*
X42499999Y-26620000D01*
X39499999Y-26620000D02*
X38499999Y-26620000D01*
X41499999Y-26622500D02*
X40499999Y-26622500D01*
X39502499Y-26622500D02*
X39499999Y-26620000D01*
X18499999Y-26620000D02*
X19499999Y-26620000D01*
%TO.N,Net-(C5-Pad1)*%
X42499999Y-27580000D02*
X42499999Y-28602500D01*
X42499999Y-28602500D02*
X42499999Y-28797500D01*
X42499999Y-28797500D02*
X43499999Y-29797500D01*
%TO.N,Net-(C7-Pad1)*%
X16499999Y-27580000D02*
X16499999Y-28602500D01*
X16499999Y-28797500D02*
X17499999Y-29797500D01*
X16499999Y-28602500D02*
X16499999Y-28797500D01*
%TO.N,Net-(C9-Pad1)*%
X18499999Y-28602500D02*
X19499999Y-29602500D01*
X18499999Y-28602500D02*
X18499999Y-27580000D01*
X19499999Y-29602500D02*
X19499999Y-29797500D01*
%TO.N,Net-(C11-Pad1)*%
X20499999Y-28797500D02*
X21499999Y-29797500D01*
X20499999Y-28602500D02*
X20499999Y-27580000D01*
X20499999Y-28602500D02*
X20499999Y-28797500D01*
%TO.N,/filtering_1/ELECTRODE*%
X34334999Y-31365000D02*
X35902499Y-29797500D01*
X32539999Y-33890001D02*
X32539999Y-32000000D01*
X32539999Y-32000000D02*
X33174999Y-31365000D01*
X33174999Y-31365000D02*
X34334999Y-31365000D01*
X35902499Y-29797500D02*
X38499999Y-29797500D01*
%TO.N,/filtering_2/ELECTRODE*%
X39799999Y-32000000D02*
X40499999Y-31300000D01*
X37619999Y-32000000D02*
X39799999Y-32000000D01*
X40499999Y-31300000D02*
X40499999Y-29800000D01*
X37619999Y-33890001D02*
X37619999Y-32000000D01*
%TO.N,/filtering_3/ELECTRODE*%
X41415000Y-33905000D02*
X41415000Y-33384999D01*
X42699999Y-32100000D02*
X42699999Y-32000000D01*
X42499999Y-31800000D02*
X42699999Y-32000000D01*
X42499999Y-29797500D02*
X42499999Y-31800000D01*
X41415000Y-33384999D02*
X42699999Y-32100000D01*
%TO.N,/filtering_4/ELECTRODE*%
X17299999Y-30597500D02*
X17299999Y-32000000D01*
X16499999Y-29797500D02*
X17299999Y-30597500D01*
X17299999Y-32000000D02*
X17299999Y-33890001D01*
%TO.N,/filtering_5/ELECTRODE*%
X21648604Y-32751395D02*
X18694709Y-29797500D01*
X22379999Y-32020000D02*
X21648604Y-32751395D01*
X18694709Y-29797500D02*
X18499999Y-29797500D01*
X22365000Y-33467791D02*
X21648604Y-32751395D01*
X22379999Y-32000000D02*
X22379999Y-32020000D01*
X22365000Y-33905000D02*
X22365000Y-33467791D01*
%TO.N,/filtering_6/ELECTRODE*%
X27459999Y-32000000D02*
X24599999Y-32000000D01*
X24599999Y-32000000D02*
X22999999Y-30400000D01*
X22999999Y-30400000D02*
X21102499Y-30400000D01*
X21102499Y-30400000D02*
X20499999Y-29797500D01*
%TD*%
%TA.AperFunction,Conductor*%
%TO.N,GND*%
G36*
X44005393Y-25510971D02*
G01*
X44161018Y-25524587D01*
X44182296Y-25528338D01*
X44327950Y-25567366D01*
X44348259Y-25574759D01*
X44450050Y-25622224D01*
X44484919Y-25638484D01*
X44503630Y-25649286D01*
X44627148Y-25735774D01*
X44643706Y-25749667D01*
X44750331Y-25856291D01*
X44764225Y-25872850D01*
X44832449Y-25970285D01*
X44850709Y-25996362D01*
X44861516Y-26015081D01*
X44925240Y-26151739D01*
X44932633Y-26172049D01*
X44971659Y-26317696D01*
X44975412Y-26338982D01*
X44989027Y-26494593D01*
X44989499Y-26505401D01*
X44989499Y-35411793D01*
X44969814Y-35478832D01*
X44917010Y-35524587D01*
X44847852Y-35534531D01*
X44784296Y-35505506D01*
X44767124Y-35487280D01*
X44679918Y-35373633D01*
X44679916Y-35373633D01*
X43453552Y-36599999D01*
X43453552Y-36600000D01*
X44679917Y-37826366D01*
X44731054Y-37823014D01*
X44746214Y-37826406D01*
X44761666Y-37824807D01*
X44779612Y-37833879D01*
X44799238Y-37838271D01*
X44810157Y-37849320D01*
X44824020Y-37856329D01*
X44834213Y-37873664D01*
X44848348Y-37887969D01*
X44851559Y-37903166D01*
X44859434Y-37916559D01*
X44858636Y-37936654D01*
X44862794Y-37956329D01*
X44857240Y-37971826D01*
X44856663Y-37986374D01*
X44840740Y-38017872D01*
X44764219Y-38127155D01*
X44750325Y-38143712D01*
X44643711Y-38250326D01*
X44627154Y-38264220D01*
X44517871Y-38340741D01*
X44451665Y-38363068D01*
X44383897Y-38346058D01*
X44336084Y-38295110D01*
X44323013Y-38231055D01*
X44326365Y-38179918D01*
X43099999Y-36953553D01*
X41873632Y-38179917D01*
X41873632Y-38179918D01*
X41987280Y-38267124D01*
X42028482Y-38323552D01*
X42032637Y-38393298D01*
X41998424Y-38454219D01*
X41936707Y-38486971D01*
X41911793Y-38489500D01*
X18088205Y-38489500D01*
X18021166Y-38469815D01*
X17975411Y-38417011D01*
X17965467Y-38347853D01*
X17994492Y-38284297D01*
X18012718Y-38267125D01*
X18126364Y-38179919D01*
X18126364Y-38179917D01*
X16899999Y-36953553D01*
X15673632Y-38179917D01*
X15676984Y-38231055D01*
X15673591Y-38246214D01*
X15675191Y-38261665D01*
X15666118Y-38279611D01*
X15661726Y-38299239D01*
X15650675Y-38310158D01*
X15643668Y-38324020D01*
X15626332Y-38334212D01*
X15612027Y-38348349D01*
X15596828Y-38351560D01*
X15583438Y-38359434D01*
X15563342Y-38358636D01*
X15543667Y-38362794D01*
X15528169Y-38357240D01*
X15513624Y-38356663D01*
X15482126Y-38340740D01*
X15372848Y-38264223D01*
X15356290Y-38250329D01*
X15249670Y-38143709D01*
X15235776Y-38127151D01*
X15159258Y-38017871D01*
X15136931Y-37951665D01*
X15153941Y-37883898D01*
X15204890Y-37836085D01*
X15268944Y-37823014D01*
X15320079Y-37826365D01*
X16546445Y-36600000D01*
X16546445Y-36599999D01*
X17253552Y-36599999D01*
X17253552Y-36600000D01*
X18479916Y-37826365D01*
X18479918Y-37826365D01*
X18566498Y-37713534D01*
X18566510Y-37713516D01*
X18697589Y-37486482D01*
X18697594Y-37486471D01*
X18797923Y-37244255D01*
X18865776Y-36991020D01*
X18865778Y-36991009D01*
X18899998Y-36731094D01*
X18899999Y-36731080D01*
X18899999Y-36468919D01*
X18899998Y-36468905D01*
X18865778Y-36208990D01*
X18865776Y-36208979D01*
X18797923Y-35955744D01*
X18697594Y-35713528D01*
X18697589Y-35713517D01*
X18566510Y-35486483D01*
X18566504Y-35486475D01*
X18479917Y-35373633D01*
X18479916Y-35373633D01*
X17253552Y-36599999D01*
X16546445Y-36599999D01*
X15320079Y-35373633D01*
X15320077Y-35373633D01*
X15232875Y-35487279D01*
X15176447Y-35528482D01*
X15106701Y-35532637D01*
X15045781Y-35498425D01*
X15013028Y-35436708D01*
X15010499Y-35411793D01*
X15010499Y-35020079D01*
X15673632Y-35020079D01*
X15673632Y-35020080D01*
X16899998Y-36246446D01*
X18126364Y-35020080D01*
X18125641Y-35009047D01*
X18101838Y-34976448D01*
X18097683Y-34906702D01*
X18131896Y-34845781D01*
X18193613Y-34813029D01*
X18218527Y-34810500D01*
X18635819Y-34810500D01*
X18635825Y-34810500D01*
X18676072Y-34805201D01*
X18803239Y-34771126D01*
X18840742Y-34755592D01*
X18954756Y-34689766D01*
X18986961Y-34665054D01*
X18986968Y-34665047D01*
X18986970Y-34665046D01*
X19080045Y-34571971D01*
X19080046Y-34571969D01*
X19080053Y-34571962D01*
X19104765Y-34539757D01*
X19170591Y-34425743D01*
X19186125Y-34388240D01*
X19220200Y-34261073D01*
X19224711Y-34226812D01*
X19252979Y-34162916D01*
X19311304Y-34124446D01*
X19347650Y-34119000D01*
X20864996Y-34119000D01*
X20932035Y-34138685D01*
X20952676Y-34155318D01*
X22235577Y-35438220D01*
X22235578Y-35438222D01*
X22295777Y-35498421D01*
X22318814Y-35507963D01*
X22374432Y-35531001D01*
X22374433Y-35531001D01*
X22474000Y-35531001D01*
X22474008Y-35531000D01*
X28947314Y-35531000D01*
X28947316Y-35531001D01*
X29032450Y-35531001D01*
X29070062Y-35515421D01*
X29084926Y-35509264D01*
X29084928Y-35509264D01*
X29098122Y-35503798D01*
X29111105Y-35498421D01*
X29171304Y-35438222D01*
X29171304Y-35438220D01*
X29183217Y-35426308D01*
X29183223Y-35426300D01*
X29921217Y-34688306D01*
X29921221Y-34688305D01*
X29959824Y-34649701D01*
X29995217Y-34630377D01*
X30021142Y-34616222D01*
X30021144Y-34616222D01*
X30021147Y-34616221D01*
X30051949Y-34618425D01*
X30090834Y-34621206D01*
X30090837Y-34621207D01*
X30090838Y-34621208D01*
X30090843Y-34621212D01*
X30135181Y-34649707D01*
X30933620Y-35448146D01*
X30933633Y-35448161D01*
X30940694Y-35455222D01*
X31000893Y-35515421D01*
X31038508Y-35531001D01*
X31079548Y-35548001D01*
X31079549Y-35548001D01*
X31179116Y-35548001D01*
X31179124Y-35548000D01*
X41185388Y-35548000D01*
X41252427Y-35567685D01*
X41298182Y-35620489D01*
X41308126Y-35689647D01*
X41299949Y-35719452D01*
X41202075Y-35955741D01*
X41134221Y-36208979D01*
X41134219Y-36208990D01*
X41099999Y-36468905D01*
X41099999Y-36731094D01*
X41134219Y-36991009D01*
X41134221Y-36991020D01*
X41202074Y-37244255D01*
X41302403Y-37486471D01*
X41302408Y-37486482D01*
X41433487Y-37713516D01*
X41433493Y-37713524D01*
X41520079Y-37826365D01*
X42746445Y-36600000D01*
X41812224Y-35665779D01*
X41807887Y-35657837D01*
X41800641Y-35652413D01*
X41791403Y-35627648D01*
X41778739Y-35604456D01*
X41779384Y-35595429D01*
X41776221Y-35586949D01*
X41781837Y-35561123D01*
X41783723Y-35534764D01*
X41789539Y-35525712D01*
X41791070Y-35518676D01*
X41812207Y-35490438D01*
X41812214Y-35490427D01*
X41847420Y-35455222D01*
X41847421Y-35455218D01*
X41990419Y-35312220D01*
X42051737Y-35278739D01*
X42121429Y-35283723D01*
X42165776Y-35312224D01*
X43099998Y-36246446D01*
X44326364Y-35020080D01*
X44213523Y-34933494D01*
X44213515Y-34933488D01*
X43986481Y-34802409D01*
X43986470Y-34802404D01*
X43744254Y-34702075D01*
X43491019Y-34634222D01*
X43491009Y-34634220D01*
X43400109Y-34622252D01*
X43336213Y-34593985D01*
X43297743Y-34535660D01*
X43296912Y-34465795D01*
X43308907Y-34437316D01*
X43315590Y-34425743D01*
X43331124Y-34388240D01*
X43365199Y-34261073D01*
X43370498Y-34220826D01*
X43370498Y-33983503D01*
X43390183Y-33916464D01*
X43406813Y-33895826D01*
X44221217Y-33081422D01*
X44221221Y-33081421D01*
X44281420Y-33021222D01*
X44304543Y-32965396D01*
X44314000Y-32942567D01*
X44314000Y-32857433D01*
X44314000Y-32847444D01*
X44313999Y-32847430D01*
X44313999Y-29365530D01*
X44313999Y-29342569D01*
X44314000Y-29342567D01*
X44314000Y-29257433D01*
X44297709Y-29218105D01*
X44281420Y-29178778D01*
X44221221Y-29118579D01*
X44214156Y-29111514D01*
X44214149Y-29111508D01*
X44127127Y-29024486D01*
X44006816Y-28904176D01*
X43973332Y-28842854D01*
X43970498Y-28816504D01*
X43970498Y-28358644D01*
X43967487Y-28332680D01*
X43953057Y-28300000D01*
X43920598Y-28226486D01*
X43835151Y-28141039D01*
X43801666Y-28079716D01*
X43806650Y-28010024D01*
X43835151Y-27965677D01*
X43867909Y-27932919D01*
X43913812Y-27887016D01*
X43957681Y-27787662D01*
X43960499Y-27763373D01*
X43960498Y-27402471D01*
X43980182Y-27335433D01*
X44021378Y-27295739D01*
X44065376Y-27269718D01*
X44065382Y-27269714D01*
X44179713Y-27155383D01*
X44179720Y-27155374D01*
X44262030Y-27016195D01*
X44304503Y-26870000D01*
X42409389Y-26870000D01*
X42386137Y-26872500D01*
X39613861Y-26872500D01*
X39605347Y-26870000D01*
X37695495Y-26870000D01*
X37737967Y-27016195D01*
X37820277Y-27155374D01*
X37820284Y-27155383D01*
X37934615Y-27269714D01*
X37934624Y-27269721D01*
X37978618Y-27295738D01*
X38026303Y-27346806D01*
X38039499Y-27402471D01*
X38039499Y-27763365D01*
X38039501Y-27763388D01*
X38042316Y-27787659D01*
X38042317Y-27787662D01*
X38086185Y-27887015D01*
X38164847Y-27965677D01*
X38198332Y-28027000D01*
X38193348Y-28096692D01*
X38164847Y-28141039D01*
X38079400Y-28226485D01*
X38032511Y-28332678D01*
X38029499Y-28358639D01*
X38029499Y-28846348D01*
X38029501Y-28846372D01*
X38032509Y-28872314D01*
X38032512Y-28872324D01*
X38079399Y-28978513D01*
X38079400Y-28978514D01*
X38161485Y-29060599D01*
X38204199Y-29079459D01*
X38220295Y-29086566D01*
X38273671Y-29131652D01*
X38294198Y-29198438D01*
X38275360Y-29265720D01*
X38223136Y-29312137D01*
X38220295Y-29313434D01*
X38161484Y-29339401D01*
X38079399Y-29421486D01*
X38040500Y-29509586D01*
X37995414Y-29562962D01*
X37928628Y-29583490D01*
X37927066Y-29583500D01*
X35945068Y-29583500D01*
X35945066Y-29583499D01*
X35859932Y-29583499D01*
X35835598Y-29593579D01*
X35781277Y-29616079D01*
X35716737Y-29680619D01*
X34282677Y-31114681D01*
X34221354Y-31148166D01*
X34194996Y-31151000D01*
X33232004Y-31151000D01*
X33217567Y-31150999D01*
X33217566Y-31150999D01*
X33197841Y-31150999D01*
X33158471Y-31139437D01*
X33130806Y-31131314D01*
X33130803Y-31131312D01*
X33130802Y-31131312D01*
X33130800Y-31131310D01*
X33128955Y-31130102D01*
X33111635Y-31118529D01*
X33037597Y-31069059D01*
X32999923Y-31053454D01*
X32846419Y-30989870D01*
X32846411Y-30989868D01*
X32643468Y-30949500D01*
X32643464Y-30949500D01*
X32436534Y-30949500D01*
X32436529Y-30949500D01*
X32233586Y-30989868D01*
X32233578Y-30989870D01*
X32042402Y-31069058D01*
X31870341Y-31184024D01*
X31724024Y-31330341D01*
X31724021Y-31330345D01*
X31711101Y-31349682D01*
X31657489Y-31394487D01*
X31588164Y-31403194D01*
X31525136Y-31373039D01*
X31488417Y-31313596D01*
X31483999Y-31280791D01*
X31483999Y-31245004D01*
X31503684Y-31177965D01*
X31520318Y-31157323D01*
X32149320Y-30528321D01*
X32789978Y-29887662D01*
X32851299Y-29854179D01*
X32891573Y-29852836D01*
X32891635Y-29852213D01*
X32894657Y-29852510D01*
X32894664Y-29852512D01*
X32925000Y-29855500D01*
X32925005Y-29855500D01*
X33424995Y-29855500D01*
X33425000Y-29855500D01*
X33455336Y-29852512D01*
X33551007Y-29833482D01*
X33607062Y-29810264D01*
X33688168Y-29756071D01*
X33688171Y-29756068D01*
X33722319Y-29721921D01*
X33783642Y-29688436D01*
X33853334Y-29693420D01*
X33897681Y-29721921D01*
X33931829Y-29756069D01*
X33931832Y-29756071D01*
X34012938Y-29810264D01*
X34068993Y-29833482D01*
X34164664Y-29852512D01*
X34195000Y-29855500D01*
X34195005Y-29855500D01*
X34694995Y-29855500D01*
X34695000Y-29855500D01*
X34725336Y-29852512D01*
X34821007Y-29833482D01*
X34877062Y-29810264D01*
X34958168Y-29756071D01*
X35001071Y-29713168D01*
X35055264Y-29632062D01*
X35078482Y-29576007D01*
X35097512Y-29480336D01*
X35100500Y-29450000D01*
X35100500Y-28300000D01*
X35099723Y-28297101D01*
X35095500Y-28265016D01*
X35095500Y-27734984D01*
X35099725Y-27702891D01*
X35100500Y-27700000D01*
X35100500Y-26550000D01*
X35097512Y-26519664D01*
X35078482Y-26423993D01*
X35056118Y-26370000D01*
X37695495Y-26370000D01*
X38249999Y-26370000D01*
X38249999Y-25841210D01*
X38249998Y-25841209D01*
X38749999Y-25841209D01*
X38749999Y-26370000D01*
X39249999Y-26370000D01*
X39749999Y-26370000D01*
X40249999Y-26370000D01*
X40249999Y-25843710D01*
X40249998Y-25843709D01*
X40749999Y-25843709D01*
X40749999Y-26372500D01*
X41249999Y-26372500D01*
X41249999Y-25843710D01*
X41249998Y-25843709D01*
X41749999Y-25843709D01*
X41749999Y-26370000D01*
X42249999Y-26370000D01*
X42249999Y-25841210D01*
X42249998Y-25841209D01*
X42749999Y-25841209D01*
X42749999Y-26370000D01*
X43249999Y-26370000D01*
X43749999Y-26370000D01*
X44304503Y-26370000D01*
X44262030Y-26223804D01*
X44179720Y-26084625D01*
X44179713Y-26084616D01*
X44065382Y-25970285D01*
X44065373Y-25970278D01*
X43926194Y-25887968D01*
X43926189Y-25887966D01*
X43770917Y-25842855D01*
X43770911Y-25842854D01*
X43749999Y-25841209D01*
X43749999Y-26370000D01*
X43249999Y-26370000D01*
X43249999Y-25841210D01*
X43249998Y-25841209D01*
X43229086Y-25842854D01*
X43229080Y-25842855D01*
X43073808Y-25887966D01*
X43073802Y-25887968D01*
X43063117Y-25894288D01*
X42995392Y-25911468D01*
X42936881Y-25894288D01*
X42926195Y-25887968D01*
X42926189Y-25887966D01*
X42770917Y-25842855D01*
X42770911Y-25842854D01*
X42749999Y-25841209D01*
X42249998Y-25841209D01*
X42229086Y-25842854D01*
X42229080Y-25842855D01*
X42073808Y-25887966D01*
X42073798Y-25887970D01*
X42061002Y-25895538D01*
X41993278Y-25912718D01*
X41934767Y-25895538D01*
X41926194Y-25890468D01*
X41926189Y-25890466D01*
X41770917Y-25845355D01*
X41770911Y-25845354D01*
X41749999Y-25843709D01*
X41249998Y-25843709D01*
X41229086Y-25845354D01*
X41229080Y-25845355D01*
X41073808Y-25890466D01*
X41073802Y-25890468D01*
X41063117Y-25896788D01*
X40995392Y-25913968D01*
X40936881Y-25896788D01*
X40926195Y-25890468D01*
X40926189Y-25890466D01*
X40770917Y-25845355D01*
X40770911Y-25845354D01*
X40749999Y-25843709D01*
X40249998Y-25843709D01*
X40229086Y-25845354D01*
X40229080Y-25845355D01*
X40073805Y-25890467D01*
X40073795Y-25890471D01*
X40065228Y-25895538D01*
X39997504Y-25912718D01*
X39938989Y-25895535D01*
X39926196Y-25887969D01*
X39926189Y-25887966D01*
X39770917Y-25842855D01*
X39770911Y-25842854D01*
X39749999Y-25841209D01*
X39749999Y-26370000D01*
X39249999Y-26370000D01*
X39249999Y-25841210D01*
X39249998Y-25841209D01*
X39229086Y-25842854D01*
X39229080Y-25842855D01*
X39073808Y-25887966D01*
X39073802Y-25887968D01*
X39063117Y-25894288D01*
X38995392Y-25911468D01*
X38936881Y-25894288D01*
X38926195Y-25887968D01*
X38926189Y-25887966D01*
X38770917Y-25842855D01*
X38770911Y-25842854D01*
X38749999Y-25841209D01*
X38249998Y-25841209D01*
X38229086Y-25842854D01*
X38229080Y-25842855D01*
X38073808Y-25887966D01*
X38073803Y-25887968D01*
X37934624Y-25970278D01*
X37934615Y-25970285D01*
X37820284Y-26084616D01*
X37820277Y-26084625D01*
X37737967Y-26223804D01*
X37695495Y-26370000D01*
X35056118Y-26370000D01*
X35055264Y-26367938D01*
X35001071Y-26286832D01*
X35001069Y-26286829D01*
X34958170Y-26243930D01*
X34877065Y-26189738D01*
X34877064Y-26189737D01*
X34877062Y-26189736D01*
X34877060Y-26189735D01*
X34877058Y-26189734D01*
X34821013Y-26166520D01*
X34821001Y-26166516D01*
X34725353Y-26147491D01*
X34725336Y-26147488D01*
X34695000Y-26144500D01*
X34195000Y-26144500D01*
X34169720Y-26146990D01*
X34164663Y-26147488D01*
X34164646Y-26147491D01*
X34068998Y-26166516D01*
X34068986Y-26166520D01*
X34012941Y-26189734D01*
X34012934Y-26189738D01*
X33931829Y-26243930D01*
X33931828Y-26243931D01*
X33897681Y-26278079D01*
X33836358Y-26311564D01*
X33766666Y-26306580D01*
X33722319Y-26278079D01*
X33688170Y-26243930D01*
X33607065Y-26189738D01*
X33607064Y-26189737D01*
X33607062Y-26189736D01*
X33607060Y-26189735D01*
X33607058Y-26189734D01*
X33551013Y-26166520D01*
X33551001Y-26166516D01*
X33455353Y-26147491D01*
X33455336Y-26147488D01*
X33425000Y-26144500D01*
X32925000Y-26144500D01*
X32899720Y-26146990D01*
X32894663Y-26147488D01*
X32894646Y-26147491D01*
X32798998Y-26166516D01*
X32798986Y-26166520D01*
X32742941Y-26189734D01*
X32742934Y-26189738D01*
X32661829Y-26243930D01*
X32661828Y-26243931D01*
X32627681Y-26278079D01*
X32566358Y-26311564D01*
X32496666Y-26306580D01*
X32452319Y-26278079D01*
X32418170Y-26243930D01*
X32337065Y-26189738D01*
X32337064Y-26189737D01*
X32337062Y-26189736D01*
X32337060Y-26189735D01*
X32337058Y-26189734D01*
X32281013Y-26166520D01*
X32281001Y-26166516D01*
X32185353Y-26147491D01*
X32185336Y-26147488D01*
X32155000Y-26144500D01*
X31655000Y-26144500D01*
X31629720Y-26146990D01*
X31624663Y-26147488D01*
X31624646Y-26147491D01*
X31528998Y-26166516D01*
X31528986Y-26166520D01*
X31472941Y-26189734D01*
X31472934Y-26189738D01*
X31391829Y-26243930D01*
X31391828Y-26243931D01*
X31357681Y-26278079D01*
X31296358Y-26311564D01*
X31226666Y-26306580D01*
X31182319Y-26278079D01*
X31148170Y-26243930D01*
X31067065Y-26189738D01*
X31067064Y-26189737D01*
X31067062Y-26189736D01*
X31067060Y-26189735D01*
X31067058Y-26189734D01*
X31011013Y-26166520D01*
X31011001Y-26166516D01*
X30915353Y-26147491D01*
X30915336Y-26147488D01*
X30885000Y-26144500D01*
X30385000Y-26144500D01*
X30359720Y-26146990D01*
X30354663Y-26147488D01*
X30354646Y-26147491D01*
X30258998Y-26166516D01*
X30258986Y-26166520D01*
X30202941Y-26189734D01*
X30202934Y-26189738D01*
X30121829Y-26243930D01*
X30121828Y-26243931D01*
X30087681Y-26278079D01*
X30026358Y-26311564D01*
X29956666Y-26306580D01*
X29912319Y-26278079D01*
X29878170Y-26243930D01*
X29797065Y-26189738D01*
X29797064Y-26189737D01*
X29797062Y-26189736D01*
X29797060Y-26189735D01*
X29797058Y-26189734D01*
X29741013Y-26166520D01*
X29741001Y-26166516D01*
X29645353Y-26147491D01*
X29645336Y-26147488D01*
X29615000Y-26144500D01*
X29115000Y-26144500D01*
X29089720Y-26146990D01*
X29084663Y-26147488D01*
X29084646Y-26147491D01*
X28988998Y-26166516D01*
X28988986Y-26166520D01*
X28932941Y-26189734D01*
X28932934Y-26189738D01*
X28851829Y-26243930D01*
X28851828Y-26243931D01*
X28817681Y-26278079D01*
X28756358Y-26311564D01*
X28686666Y-26306580D01*
X28642319Y-26278079D01*
X28608170Y-26243930D01*
X28527065Y-26189738D01*
X28527064Y-26189737D01*
X28527062Y-26189736D01*
X28527060Y-26189735D01*
X28527058Y-26189734D01*
X28471013Y-26166520D01*
X28471001Y-26166516D01*
X28375353Y-26147491D01*
X28375336Y-26147488D01*
X28345000Y-26144500D01*
X27845000Y-26144500D01*
X27819720Y-26146990D01*
X27814663Y-26147488D01*
X27814646Y-26147491D01*
X27718998Y-26166516D01*
X27718986Y-26166520D01*
X27662941Y-26189734D01*
X27662934Y-26189738D01*
X27581829Y-26243930D01*
X27581828Y-26243931D01*
X27547681Y-26278079D01*
X27486358Y-26311564D01*
X27416666Y-26306580D01*
X27372319Y-26278079D01*
X27338170Y-26243930D01*
X27257065Y-26189738D01*
X27257064Y-26189737D01*
X27257062Y-26189736D01*
X27257060Y-26189735D01*
X27257058Y-26189734D01*
X27201013Y-26166520D01*
X27201001Y-26166516D01*
X27105353Y-26147491D01*
X27105336Y-26147488D01*
X27075000Y-26144500D01*
X26575000Y-26144500D01*
X26558146Y-26146160D01*
X26544660Y-26147488D01*
X26532040Y-26149999D01*
X26462449Y-26143770D01*
X26407272Y-26100905D01*
X26404747Y-26097267D01*
X26401667Y-26092658D01*
X26369274Y-26049383D01*
X26262335Y-25953327D01*
X26262328Y-25953322D01*
X26181254Y-25899150D01*
X26181228Y-25899133D01*
X26134743Y-25871554D01*
X26134745Y-25871554D01*
X25999189Y-25823732D01*
X25903525Y-25804704D01*
X25903507Y-25804701D01*
X25805000Y-25795000D01*
X25805000Y-27700000D01*
X25305000Y-27700000D01*
X25305000Y-27250000D01*
X24550000Y-27250000D01*
X24550000Y-27700002D01*
X24555140Y-27771870D01*
X24595634Y-27909782D01*
X24610503Y-27932919D01*
X24630186Y-27999959D01*
X24618981Y-28051466D01*
X24570457Y-28157721D01*
X24570455Y-28157725D01*
X24550000Y-28300001D01*
X24550000Y-28750000D01*
X25305000Y-28750000D01*
X25305000Y-28300000D01*
X25805000Y-28300000D01*
X25805000Y-28876000D01*
X25785315Y-28943039D01*
X25732511Y-28988794D01*
X25681000Y-29000000D01*
X25555000Y-29000000D01*
X25555000Y-29126000D01*
X25535315Y-29193039D01*
X25482511Y-29238794D01*
X25431000Y-29250000D01*
X24550000Y-29250000D01*
X24550000Y-29449996D01*
X24559701Y-29548507D01*
X24559701Y-29548510D01*
X24578732Y-29644190D01*
X24578735Y-29644202D01*
X24592100Y-29696565D01*
X24592103Y-29696573D01*
X24654135Y-29826231D01*
X24654140Y-29826238D01*
X24708310Y-29907310D01*
X24708335Y-29907345D01*
X24740725Y-29950615D01*
X24762028Y-29969750D01*
X24798748Y-30029193D01*
X24797502Y-30099052D01*
X24758685Y-30157146D01*
X24694622Y-30185033D01*
X24679167Y-30186000D01*
X23738752Y-30186000D01*
X23671713Y-30166315D01*
X23651071Y-30149681D01*
X22006817Y-28505427D01*
X21973332Y-28444104D01*
X21970498Y-28417746D01*
X21970498Y-28358651D01*
X21970498Y-28358644D01*
X21967487Y-28332680D01*
X21953057Y-28300000D01*
X21920598Y-28226486D01*
X21835151Y-28141039D01*
X21801666Y-28079716D01*
X21806650Y-28010024D01*
X21835151Y-27965677D01*
X21867909Y-27932919D01*
X21913812Y-27887016D01*
X21957681Y-27787662D01*
X21960499Y-27763373D01*
X21960498Y-27402471D01*
X21980182Y-27335433D01*
X22021378Y-27295739D01*
X22065376Y-27269718D01*
X22065382Y-27269714D01*
X22179713Y-27155383D01*
X22179720Y-27155374D01*
X22191464Y-27135517D01*
X22262030Y-27016195D01*
X22304503Y-26870000D01*
X15695495Y-26870000D01*
X15737967Y-27016195D01*
X15820277Y-27155374D01*
X15820284Y-27155383D01*
X15934615Y-27269714D01*
X15934624Y-27269721D01*
X15978618Y-27295738D01*
X16026303Y-27346806D01*
X16039499Y-27402471D01*
X16039499Y-27763365D01*
X16039501Y-27763388D01*
X16042316Y-27787659D01*
X16042317Y-27787662D01*
X16086185Y-27887015D01*
X16164847Y-27965677D01*
X16198332Y-28027000D01*
X16193348Y-28096692D01*
X16164847Y-28141039D01*
X16079400Y-28226485D01*
X16032511Y-28332678D01*
X16029499Y-28358639D01*
X16029499Y-28846348D01*
X16029501Y-28846372D01*
X16032509Y-28872314D01*
X16032512Y-28872324D01*
X16079399Y-28978513D01*
X16079400Y-28978514D01*
X16161485Y-29060599D01*
X16204199Y-29079459D01*
X16220295Y-29086566D01*
X16273671Y-29131652D01*
X16294198Y-29198438D01*
X16275360Y-29265720D01*
X16223136Y-29312137D01*
X16220295Y-29313434D01*
X16161484Y-29339401D01*
X16079400Y-29421485D01*
X16032511Y-29527678D01*
X16029499Y-29553639D01*
X16029499Y-30041348D01*
X16029501Y-30041372D01*
X16032509Y-30067314D01*
X16032512Y-30067324D01*
X16079399Y-30173513D01*
X16079400Y-30173514D01*
X16161485Y-30255599D01*
X16267679Y-30302488D01*
X16293642Y-30305500D01*
X16653995Y-30305499D01*
X16721034Y-30325183D01*
X16741676Y-30341818D01*
X17049680Y-30649822D01*
X17064383Y-30676749D01*
X17080976Y-30702568D01*
X17081867Y-30708768D01*
X17083165Y-30711145D01*
X17085999Y-30737503D01*
X17085999Y-30869869D01*
X17066314Y-30936908D01*
X17013510Y-30982663D01*
X16998007Y-30988526D01*
X16993583Y-30989868D01*
X16802402Y-31069058D01*
X16630341Y-31184024D01*
X16484023Y-31330342D01*
X16369057Y-31502403D01*
X16289869Y-31693579D01*
X16289867Y-31693587D01*
X16249499Y-31896530D01*
X16249499Y-32103469D01*
X16289867Y-32306412D01*
X16289869Y-32306420D01*
X16349224Y-32449716D01*
X16369058Y-32497598D01*
X16404927Y-32551280D01*
X16484023Y-32669657D01*
X16630341Y-32815975D01*
X16630344Y-32815977D01*
X16802401Y-32930941D01*
X16818304Y-32937528D01*
X16872708Y-32981367D01*
X16894775Y-33047661D01*
X16877497Y-33115361D01*
X16855582Y-33141748D01*
X16855909Y-33142075D01*
X16759955Y-33238029D01*
X16759953Y-33238030D01*
X16735237Y-33270240D01*
X16735231Y-33270249D01*
X16669410Y-33384254D01*
X16669403Y-33384268D01*
X16653877Y-33421752D01*
X16619800Y-33548927D01*
X16619799Y-33548933D01*
X16614501Y-33589167D01*
X16614501Y-34220832D01*
X16619799Y-34261066D01*
X16619800Y-34261073D01*
X16638499Y-34330857D01*
X16653877Y-34388247D01*
X16669403Y-34425731D01*
X16669407Y-34425740D01*
X16677151Y-34439153D01*
X16693620Y-34507054D01*
X16670765Y-34573080D01*
X16615842Y-34616269D01*
X16585947Y-34624088D01*
X16508989Y-34634220D01*
X16508978Y-34634222D01*
X16255743Y-34702075D01*
X16013527Y-34802404D01*
X16013516Y-34802409D01*
X15786470Y-34933496D01*
X15673632Y-35020079D01*
X15010499Y-35020079D01*
X15010499Y-26550003D01*
X24550000Y-26550003D01*
X24550000Y-26750000D01*
X25305000Y-26750000D01*
X25305000Y-25795000D01*
X25206492Y-25804701D01*
X25206489Y-25804701D01*
X25110809Y-25823732D01*
X25110797Y-25823735D01*
X25058434Y-25837100D01*
X25058426Y-25837103D01*
X24928768Y-25899135D01*
X24928761Y-25899140D01*
X24847689Y-25953310D01*
X24847654Y-25953335D01*
X24804383Y-25985725D01*
X24708327Y-26092664D01*
X24708322Y-26092671D01*
X24654150Y-26173745D01*
X24654133Y-26173771D01*
X24626554Y-26220255D01*
X24578732Y-26355810D01*
X24578732Y-26355811D01*
X24559704Y-26451474D01*
X24559701Y-26451492D01*
X24550000Y-26550003D01*
X15010499Y-26550003D01*
X15010499Y-26505412D01*
X15010971Y-26494605D01*
X15014743Y-26451492D01*
X15021872Y-26370000D01*
X15695495Y-26370000D01*
X16249999Y-26370000D01*
X16249999Y-25841210D01*
X16249998Y-25841209D01*
X16749999Y-25841209D01*
X16749999Y-26370000D01*
X17249999Y-26370000D01*
X17249999Y-25841210D01*
X17249998Y-25841209D01*
X17749999Y-25841209D01*
X17749999Y-26370000D01*
X18249999Y-26370000D01*
X18249999Y-25841210D01*
X18249998Y-25841209D01*
X18749999Y-25841209D01*
X18749999Y-26370000D01*
X19249999Y-26370000D01*
X19249999Y-25841210D01*
X19249998Y-25841209D01*
X19749999Y-25841209D01*
X19749999Y-26370000D01*
X20249999Y-26370000D01*
X20249999Y-25841210D01*
X20249998Y-25841209D01*
X20749999Y-25841209D01*
X20749999Y-26370000D01*
X21249999Y-26370000D01*
X21749999Y-26370000D01*
X22304503Y-26370000D01*
X22262030Y-26223804D01*
X22179720Y-26084625D01*
X22179713Y-26084616D01*
X22065382Y-25970285D01*
X22065373Y-25970278D01*
X21926194Y-25887968D01*
X21926189Y-25887966D01*
X21770917Y-25842855D01*
X21770911Y-25842854D01*
X21749999Y-25841209D01*
X21749999Y-26370000D01*
X21249999Y-26370000D01*
X21249999Y-25841210D01*
X21249998Y-25841209D01*
X21229086Y-25842854D01*
X21229080Y-25842855D01*
X21073808Y-25887966D01*
X21073802Y-25887968D01*
X21063117Y-25894288D01*
X20995392Y-25911468D01*
X20936881Y-25894288D01*
X20926195Y-25887968D01*
X20926189Y-25887966D01*
X20770917Y-25842855D01*
X20770911Y-25842854D01*
X20749999Y-25841209D01*
X20249998Y-25841209D01*
X20229086Y-25842854D01*
X20229080Y-25842855D01*
X20073808Y-25887966D01*
X20073802Y-25887968D01*
X20063117Y-25894288D01*
X19995392Y-25911468D01*
X19936881Y-25894288D01*
X19926195Y-25887968D01*
X19926189Y-25887966D01*
X19770917Y-25842855D01*
X19770911Y-25842854D01*
X19749999Y-25841209D01*
X19249998Y-25841209D01*
X19229086Y-25842854D01*
X19229080Y-25842855D01*
X19073808Y-25887966D01*
X19073802Y-25887968D01*
X19063117Y-25894288D01*
X18995392Y-25911468D01*
X18936881Y-25894288D01*
X18926195Y-25887968D01*
X18926189Y-25887966D01*
X18770917Y-25842855D01*
X18770911Y-25842854D01*
X18749999Y-25841209D01*
X18249998Y-25841209D01*
X18229086Y-25842854D01*
X18229080Y-25842855D01*
X18073808Y-25887966D01*
X18073802Y-25887968D01*
X18063117Y-25894288D01*
X17995392Y-25911468D01*
X17936881Y-25894288D01*
X17926195Y-25887968D01*
X17926189Y-25887966D01*
X17770917Y-25842855D01*
X17770911Y-25842854D01*
X17749999Y-25841209D01*
X17249998Y-25841209D01*
X17229086Y-25842854D01*
X17229080Y-25842855D01*
X17073808Y-25887966D01*
X17073802Y-25887968D01*
X17063117Y-25894288D01*
X16995392Y-25911468D01*
X16936881Y-25894288D01*
X16926195Y-25887968D01*
X16926189Y-25887966D01*
X16770917Y-25842855D01*
X16770911Y-25842854D01*
X16749999Y-25841209D01*
X16249998Y-25841209D01*
X16229086Y-25842854D01*
X16229080Y-25842855D01*
X16073808Y-25887966D01*
X16073803Y-25887968D01*
X15934624Y-25970278D01*
X15934615Y-25970285D01*
X15820284Y-26084616D01*
X15820277Y-26084625D01*
X15737967Y-26223804D01*
X15695495Y-26370000D01*
X15021872Y-26370000D01*
X15024586Y-26338978D01*
X15028337Y-26317704D01*
X15067366Y-26172044D01*
X15074758Y-26151739D01*
X15098462Y-26100905D01*
X15138485Y-26015074D01*
X15149282Y-25996373D01*
X15235778Y-25872843D01*
X15249661Y-25856297D01*
X15356298Y-25749661D01*
X15372837Y-25735783D01*
X15496369Y-25649284D01*
X15515079Y-25638483D01*
X15651737Y-25574758D01*
X15672043Y-25567366D01*
X15817703Y-25528337D01*
X15838977Y-25524586D01*
X15994593Y-25510971D01*
X16005400Y-25510500D01*
X43994587Y-25510500D01*
X44005393Y-25510971D01*
G37*
%TD.AperFunction*%
%TD*%
%TA.AperFunction,Conductor*%
%TO.N,GND*%
G36*
X25805000Y-28300000D02*
G01*
X25305000Y-28300000D01*
X25305000Y-27700000D01*
X25805000Y-27700000D01*
X25805000Y-28300000D01*
G37*
%TD.AperFunction*%
%TD*%
M02*
