G04 EAGLE Gerber RS-274X export*
G75*
%MOMM*%
%FSLAX34Y34*%
%LPD*%
%INSilkscreen Top*%
%IPPOS*%
%AMOC8*
5,1,8,0,0,1.08239X$1,22.5*%
G01*
%ADD10C,0.101600*%
%ADD11C,0.127000*%
%ADD12C,0.203200*%
%ADD13C,0.025400*%
%ADD14R,0.400000X0.400000*%
%ADD15C,0.152400*%


D10*
X176986Y37458D02*
X174389Y37458D01*
X174290Y37460D01*
X174190Y37466D01*
X174091Y37475D01*
X173993Y37488D01*
X173895Y37505D01*
X173797Y37526D01*
X173701Y37551D01*
X173606Y37579D01*
X173512Y37611D01*
X173419Y37646D01*
X173327Y37685D01*
X173237Y37728D01*
X173149Y37773D01*
X173062Y37823D01*
X172978Y37875D01*
X172895Y37931D01*
X172815Y37989D01*
X172737Y38051D01*
X172662Y38116D01*
X172589Y38184D01*
X172519Y38254D01*
X172451Y38327D01*
X172386Y38402D01*
X172324Y38480D01*
X172266Y38560D01*
X172210Y38643D01*
X172158Y38727D01*
X172108Y38814D01*
X172063Y38902D01*
X172020Y38992D01*
X171981Y39084D01*
X171946Y39177D01*
X171914Y39271D01*
X171886Y39366D01*
X171861Y39462D01*
X171840Y39560D01*
X171823Y39658D01*
X171810Y39756D01*
X171801Y39855D01*
X171795Y39955D01*
X171793Y40054D01*
X171793Y46546D01*
X171795Y46645D01*
X171801Y46745D01*
X171810Y46844D01*
X171823Y46942D01*
X171840Y47040D01*
X171861Y47138D01*
X171886Y47234D01*
X171914Y47329D01*
X171946Y47423D01*
X171981Y47516D01*
X172020Y47608D01*
X172063Y47698D01*
X172108Y47786D01*
X172158Y47873D01*
X172210Y47957D01*
X172266Y48040D01*
X172324Y48120D01*
X172386Y48198D01*
X172451Y48273D01*
X172519Y48346D01*
X172589Y48416D01*
X172662Y48484D01*
X172737Y48549D01*
X172815Y48611D01*
X172895Y48669D01*
X172978Y48725D01*
X173062Y48777D01*
X173149Y48827D01*
X173237Y48872D01*
X173327Y48915D01*
X173419Y48954D01*
X173511Y48989D01*
X173606Y49021D01*
X173701Y49049D01*
X173797Y49074D01*
X173895Y49095D01*
X173993Y49112D01*
X174091Y49125D01*
X174190Y49134D01*
X174290Y49140D01*
X174389Y49142D01*
X176986Y49142D01*
X181351Y46546D02*
X184596Y49142D01*
X184596Y37458D01*
X181351Y37458D02*
X187842Y37458D01*
X240989Y262158D02*
X243586Y262158D01*
X240989Y262158D02*
X240890Y262160D01*
X240790Y262166D01*
X240691Y262175D01*
X240593Y262188D01*
X240495Y262205D01*
X240397Y262226D01*
X240301Y262251D01*
X240206Y262279D01*
X240112Y262311D01*
X240019Y262346D01*
X239927Y262385D01*
X239837Y262428D01*
X239749Y262473D01*
X239662Y262523D01*
X239578Y262575D01*
X239495Y262631D01*
X239415Y262689D01*
X239337Y262751D01*
X239262Y262816D01*
X239189Y262884D01*
X239119Y262954D01*
X239051Y263027D01*
X238986Y263102D01*
X238924Y263180D01*
X238866Y263260D01*
X238810Y263343D01*
X238758Y263427D01*
X238708Y263514D01*
X238663Y263602D01*
X238620Y263692D01*
X238581Y263784D01*
X238546Y263877D01*
X238514Y263971D01*
X238486Y264066D01*
X238461Y264162D01*
X238440Y264260D01*
X238423Y264358D01*
X238410Y264456D01*
X238401Y264555D01*
X238395Y264655D01*
X238393Y264754D01*
X238393Y271246D01*
X238395Y271345D01*
X238401Y271445D01*
X238410Y271544D01*
X238423Y271642D01*
X238440Y271740D01*
X238461Y271838D01*
X238486Y271934D01*
X238514Y272029D01*
X238546Y272123D01*
X238581Y272216D01*
X238620Y272308D01*
X238663Y272398D01*
X238708Y272486D01*
X238758Y272573D01*
X238810Y272657D01*
X238866Y272740D01*
X238924Y272820D01*
X238986Y272898D01*
X239051Y272973D01*
X239119Y273046D01*
X239189Y273116D01*
X239262Y273184D01*
X239337Y273249D01*
X239415Y273311D01*
X239495Y273369D01*
X239578Y273425D01*
X239662Y273477D01*
X239749Y273527D01*
X239837Y273572D01*
X239927Y273615D01*
X240019Y273654D01*
X240111Y273689D01*
X240206Y273721D01*
X240301Y273749D01*
X240397Y273774D01*
X240495Y273795D01*
X240593Y273812D01*
X240691Y273825D01*
X240790Y273834D01*
X240890Y273840D01*
X240989Y273842D01*
X243586Y273842D01*
X251521Y273842D02*
X251628Y273840D01*
X251734Y273834D01*
X251840Y273824D01*
X251946Y273811D01*
X252052Y273793D01*
X252156Y273772D01*
X252260Y273747D01*
X252363Y273718D01*
X252464Y273686D01*
X252564Y273649D01*
X252663Y273609D01*
X252761Y273566D01*
X252857Y273519D01*
X252951Y273468D01*
X253043Y273414D01*
X253133Y273357D01*
X253221Y273297D01*
X253306Y273233D01*
X253389Y273166D01*
X253470Y273096D01*
X253548Y273024D01*
X253624Y272948D01*
X253696Y272870D01*
X253766Y272789D01*
X253833Y272706D01*
X253897Y272621D01*
X253957Y272533D01*
X254014Y272443D01*
X254068Y272351D01*
X254119Y272257D01*
X254166Y272161D01*
X254209Y272063D01*
X254249Y271964D01*
X254286Y271864D01*
X254318Y271763D01*
X254347Y271660D01*
X254372Y271556D01*
X254393Y271452D01*
X254411Y271346D01*
X254424Y271240D01*
X254434Y271134D01*
X254440Y271028D01*
X254442Y270921D01*
X251521Y273842D02*
X251400Y273840D01*
X251279Y273834D01*
X251159Y273824D01*
X251038Y273811D01*
X250919Y273793D01*
X250799Y273772D01*
X250681Y273747D01*
X250564Y273718D01*
X250447Y273685D01*
X250332Y273649D01*
X250218Y273608D01*
X250105Y273565D01*
X249993Y273517D01*
X249884Y273466D01*
X249776Y273411D01*
X249669Y273353D01*
X249565Y273292D01*
X249463Y273227D01*
X249363Y273159D01*
X249265Y273088D01*
X249169Y273014D01*
X249076Y272937D01*
X248986Y272856D01*
X248898Y272773D01*
X248813Y272687D01*
X248730Y272598D01*
X248651Y272507D01*
X248574Y272413D01*
X248501Y272317D01*
X248431Y272219D01*
X248364Y272118D01*
X248300Y272015D01*
X248240Y271910D01*
X248183Y271803D01*
X248129Y271695D01*
X248079Y271585D01*
X248033Y271473D01*
X247990Y271360D01*
X247951Y271245D01*
X253469Y268649D02*
X253548Y268726D01*
X253624Y268807D01*
X253697Y268890D01*
X253767Y268975D01*
X253834Y269063D01*
X253898Y269153D01*
X253958Y269245D01*
X254015Y269340D01*
X254069Y269436D01*
X254120Y269534D01*
X254167Y269634D01*
X254211Y269736D01*
X254251Y269839D01*
X254287Y269943D01*
X254319Y270049D01*
X254348Y270155D01*
X254373Y270263D01*
X254395Y270371D01*
X254412Y270481D01*
X254426Y270590D01*
X254435Y270700D01*
X254441Y270811D01*
X254443Y270921D01*
X253468Y268649D02*
X247951Y262158D01*
X254442Y262158D01*
X219351Y118858D02*
X216754Y118858D01*
X216655Y118860D01*
X216555Y118866D01*
X216456Y118875D01*
X216358Y118888D01*
X216260Y118905D01*
X216162Y118926D01*
X216066Y118951D01*
X215971Y118979D01*
X215877Y119011D01*
X215784Y119046D01*
X215692Y119085D01*
X215602Y119128D01*
X215514Y119173D01*
X215427Y119223D01*
X215343Y119275D01*
X215260Y119331D01*
X215180Y119389D01*
X215102Y119451D01*
X215027Y119516D01*
X214954Y119584D01*
X214884Y119654D01*
X214816Y119727D01*
X214751Y119802D01*
X214689Y119880D01*
X214631Y119960D01*
X214575Y120043D01*
X214523Y120127D01*
X214473Y120214D01*
X214428Y120302D01*
X214385Y120392D01*
X214346Y120484D01*
X214311Y120577D01*
X214279Y120671D01*
X214251Y120766D01*
X214226Y120862D01*
X214205Y120960D01*
X214188Y121058D01*
X214175Y121156D01*
X214166Y121255D01*
X214160Y121355D01*
X214158Y121454D01*
X214158Y127946D01*
X214160Y128045D01*
X214166Y128145D01*
X214175Y128244D01*
X214188Y128342D01*
X214205Y128440D01*
X214226Y128538D01*
X214251Y128634D01*
X214279Y128729D01*
X214311Y128823D01*
X214346Y128916D01*
X214385Y129008D01*
X214428Y129098D01*
X214473Y129186D01*
X214523Y129273D01*
X214575Y129357D01*
X214631Y129440D01*
X214689Y129520D01*
X214751Y129598D01*
X214816Y129673D01*
X214884Y129746D01*
X214954Y129816D01*
X215027Y129884D01*
X215102Y129949D01*
X215180Y130011D01*
X215260Y130069D01*
X215343Y130125D01*
X215427Y130177D01*
X215514Y130227D01*
X215602Y130272D01*
X215692Y130315D01*
X215784Y130354D01*
X215876Y130389D01*
X215971Y130421D01*
X216066Y130449D01*
X216162Y130474D01*
X216260Y130495D01*
X216358Y130512D01*
X216456Y130525D01*
X216555Y130534D01*
X216655Y130540D01*
X216754Y130542D01*
X219351Y130542D01*
X223716Y118858D02*
X226962Y118858D01*
X227075Y118860D01*
X227188Y118866D01*
X227301Y118876D01*
X227414Y118890D01*
X227526Y118907D01*
X227637Y118929D01*
X227747Y118954D01*
X227857Y118984D01*
X227965Y119017D01*
X228072Y119054D01*
X228178Y119094D01*
X228282Y119139D01*
X228385Y119187D01*
X228486Y119238D01*
X228585Y119293D01*
X228682Y119351D01*
X228777Y119413D01*
X228870Y119478D01*
X228960Y119546D01*
X229048Y119617D01*
X229134Y119692D01*
X229217Y119769D01*
X229297Y119849D01*
X229374Y119932D01*
X229449Y120018D01*
X229520Y120106D01*
X229588Y120196D01*
X229653Y120289D01*
X229715Y120384D01*
X229773Y120481D01*
X229828Y120580D01*
X229879Y120681D01*
X229927Y120784D01*
X229972Y120888D01*
X230012Y120994D01*
X230049Y121101D01*
X230082Y121209D01*
X230112Y121319D01*
X230137Y121429D01*
X230159Y121540D01*
X230176Y121652D01*
X230190Y121765D01*
X230200Y121878D01*
X230206Y121991D01*
X230208Y122104D01*
X230206Y122217D01*
X230200Y122330D01*
X230190Y122443D01*
X230176Y122556D01*
X230159Y122668D01*
X230137Y122779D01*
X230112Y122889D01*
X230082Y122999D01*
X230049Y123107D01*
X230012Y123214D01*
X229972Y123320D01*
X229927Y123424D01*
X229879Y123527D01*
X229828Y123628D01*
X229773Y123727D01*
X229715Y123824D01*
X229653Y123919D01*
X229588Y124012D01*
X229520Y124102D01*
X229449Y124190D01*
X229374Y124276D01*
X229297Y124359D01*
X229217Y124439D01*
X229134Y124516D01*
X229048Y124591D01*
X228960Y124662D01*
X228870Y124730D01*
X228777Y124795D01*
X228682Y124857D01*
X228585Y124915D01*
X228486Y124970D01*
X228385Y125021D01*
X228282Y125069D01*
X228178Y125114D01*
X228072Y125154D01*
X227965Y125191D01*
X227857Y125224D01*
X227747Y125254D01*
X227637Y125279D01*
X227526Y125301D01*
X227414Y125318D01*
X227301Y125332D01*
X227188Y125342D01*
X227075Y125348D01*
X226962Y125350D01*
X227611Y130542D02*
X223716Y130542D01*
X227611Y130542D02*
X227712Y130540D01*
X227812Y130534D01*
X227912Y130524D01*
X228012Y130511D01*
X228111Y130493D01*
X228210Y130472D01*
X228307Y130447D01*
X228404Y130418D01*
X228499Y130385D01*
X228593Y130349D01*
X228685Y130309D01*
X228776Y130266D01*
X228865Y130219D01*
X228952Y130169D01*
X229038Y130115D01*
X229121Y130058D01*
X229201Y129998D01*
X229280Y129935D01*
X229356Y129868D01*
X229429Y129799D01*
X229499Y129727D01*
X229567Y129653D01*
X229632Y129576D01*
X229693Y129496D01*
X229752Y129414D01*
X229807Y129330D01*
X229859Y129244D01*
X229908Y129156D01*
X229953Y129066D01*
X229995Y128974D01*
X230033Y128881D01*
X230067Y128786D01*
X230098Y128691D01*
X230125Y128594D01*
X230148Y128496D01*
X230168Y128397D01*
X230183Y128297D01*
X230195Y128197D01*
X230203Y128097D01*
X230207Y127996D01*
X230207Y127896D01*
X230203Y127795D01*
X230195Y127695D01*
X230183Y127595D01*
X230168Y127495D01*
X230148Y127396D01*
X230125Y127298D01*
X230098Y127201D01*
X230067Y127106D01*
X230033Y127011D01*
X229995Y126918D01*
X229953Y126826D01*
X229908Y126736D01*
X229859Y126648D01*
X229807Y126562D01*
X229752Y126478D01*
X229693Y126396D01*
X229632Y126316D01*
X229567Y126239D01*
X229499Y126165D01*
X229429Y126093D01*
X229356Y126024D01*
X229280Y125957D01*
X229201Y125894D01*
X229121Y125834D01*
X229038Y125777D01*
X228952Y125723D01*
X228865Y125673D01*
X228776Y125626D01*
X228685Y125583D01*
X228593Y125543D01*
X228499Y125507D01*
X228404Y125474D01*
X228307Y125445D01*
X228210Y125420D01*
X228111Y125399D01*
X228012Y125381D01*
X227912Y125368D01*
X227812Y125358D01*
X227712Y125352D01*
X227611Y125350D01*
X227611Y125349D02*
X225014Y125349D01*
X260389Y103458D02*
X262986Y103458D01*
X260389Y103458D02*
X260290Y103460D01*
X260190Y103466D01*
X260091Y103475D01*
X259993Y103488D01*
X259895Y103505D01*
X259797Y103526D01*
X259701Y103551D01*
X259606Y103579D01*
X259512Y103611D01*
X259419Y103646D01*
X259327Y103685D01*
X259237Y103728D01*
X259149Y103773D01*
X259062Y103823D01*
X258978Y103875D01*
X258895Y103931D01*
X258815Y103989D01*
X258737Y104051D01*
X258662Y104116D01*
X258589Y104184D01*
X258519Y104254D01*
X258451Y104327D01*
X258386Y104402D01*
X258324Y104480D01*
X258266Y104560D01*
X258210Y104643D01*
X258158Y104727D01*
X258108Y104814D01*
X258063Y104902D01*
X258020Y104992D01*
X257981Y105084D01*
X257946Y105177D01*
X257914Y105271D01*
X257886Y105366D01*
X257861Y105462D01*
X257840Y105560D01*
X257823Y105658D01*
X257810Y105756D01*
X257801Y105855D01*
X257795Y105955D01*
X257793Y106054D01*
X257793Y112546D01*
X257795Y112645D01*
X257801Y112745D01*
X257810Y112844D01*
X257823Y112942D01*
X257840Y113040D01*
X257861Y113138D01*
X257886Y113234D01*
X257914Y113329D01*
X257946Y113423D01*
X257981Y113516D01*
X258020Y113608D01*
X258063Y113698D01*
X258108Y113786D01*
X258158Y113873D01*
X258210Y113957D01*
X258266Y114040D01*
X258324Y114120D01*
X258386Y114198D01*
X258451Y114273D01*
X258519Y114346D01*
X258589Y114416D01*
X258662Y114484D01*
X258737Y114549D01*
X258815Y114611D01*
X258895Y114669D01*
X258978Y114725D01*
X259062Y114777D01*
X259149Y114827D01*
X259237Y114872D01*
X259327Y114915D01*
X259419Y114954D01*
X259511Y114989D01*
X259606Y115021D01*
X259701Y115049D01*
X259797Y115074D01*
X259895Y115095D01*
X259993Y115112D01*
X260091Y115125D01*
X260190Y115134D01*
X260290Y115140D01*
X260389Y115142D01*
X262986Y115142D01*
X269947Y115142D02*
X267351Y106054D01*
X273842Y106054D01*
X271895Y108651D02*
X271895Y103458D01*
X90051Y52758D02*
X87454Y52758D01*
X87355Y52760D01*
X87255Y52766D01*
X87156Y52775D01*
X87058Y52788D01*
X86960Y52805D01*
X86862Y52826D01*
X86766Y52851D01*
X86671Y52879D01*
X86577Y52911D01*
X86484Y52946D01*
X86392Y52985D01*
X86302Y53028D01*
X86214Y53073D01*
X86127Y53123D01*
X86043Y53175D01*
X85960Y53231D01*
X85880Y53289D01*
X85802Y53351D01*
X85727Y53416D01*
X85654Y53484D01*
X85584Y53554D01*
X85516Y53627D01*
X85451Y53702D01*
X85389Y53780D01*
X85331Y53860D01*
X85275Y53943D01*
X85223Y54027D01*
X85173Y54114D01*
X85128Y54202D01*
X85085Y54292D01*
X85046Y54384D01*
X85011Y54477D01*
X84979Y54571D01*
X84951Y54666D01*
X84926Y54762D01*
X84905Y54860D01*
X84888Y54958D01*
X84875Y55056D01*
X84866Y55155D01*
X84860Y55255D01*
X84858Y55354D01*
X84858Y61846D01*
X84860Y61945D01*
X84866Y62045D01*
X84875Y62144D01*
X84888Y62242D01*
X84905Y62340D01*
X84926Y62438D01*
X84951Y62534D01*
X84979Y62629D01*
X85011Y62723D01*
X85046Y62816D01*
X85085Y62908D01*
X85128Y62998D01*
X85173Y63086D01*
X85223Y63173D01*
X85275Y63257D01*
X85331Y63340D01*
X85389Y63420D01*
X85451Y63498D01*
X85516Y63573D01*
X85584Y63646D01*
X85654Y63716D01*
X85727Y63784D01*
X85802Y63849D01*
X85880Y63911D01*
X85960Y63969D01*
X86043Y64025D01*
X86127Y64077D01*
X86214Y64127D01*
X86302Y64172D01*
X86392Y64215D01*
X86484Y64254D01*
X86576Y64289D01*
X86671Y64321D01*
X86766Y64349D01*
X86862Y64374D01*
X86960Y64395D01*
X87058Y64412D01*
X87156Y64425D01*
X87255Y64434D01*
X87355Y64440D01*
X87454Y64442D01*
X90051Y64442D01*
X94416Y52758D02*
X98311Y52758D01*
X98410Y52760D01*
X98510Y52766D01*
X98609Y52775D01*
X98707Y52788D01*
X98805Y52805D01*
X98903Y52826D01*
X98999Y52851D01*
X99094Y52879D01*
X99188Y52911D01*
X99281Y52946D01*
X99373Y52985D01*
X99463Y53028D01*
X99551Y53073D01*
X99638Y53123D01*
X99722Y53175D01*
X99805Y53231D01*
X99885Y53289D01*
X99963Y53351D01*
X100038Y53416D01*
X100111Y53484D01*
X100181Y53554D01*
X100249Y53627D01*
X100314Y53702D01*
X100376Y53780D01*
X100434Y53860D01*
X100490Y53943D01*
X100542Y54027D01*
X100592Y54114D01*
X100637Y54202D01*
X100680Y54292D01*
X100719Y54384D01*
X100754Y54477D01*
X100786Y54571D01*
X100814Y54666D01*
X100839Y54762D01*
X100860Y54860D01*
X100877Y54958D01*
X100890Y55056D01*
X100899Y55155D01*
X100905Y55255D01*
X100907Y55354D01*
X100907Y56653D01*
X100905Y56752D01*
X100899Y56852D01*
X100890Y56951D01*
X100877Y57049D01*
X100860Y57147D01*
X100839Y57245D01*
X100814Y57341D01*
X100786Y57436D01*
X100754Y57530D01*
X100719Y57623D01*
X100680Y57715D01*
X100637Y57805D01*
X100592Y57893D01*
X100542Y57980D01*
X100490Y58064D01*
X100434Y58147D01*
X100376Y58227D01*
X100314Y58305D01*
X100249Y58380D01*
X100181Y58453D01*
X100111Y58523D01*
X100038Y58591D01*
X99963Y58656D01*
X99885Y58718D01*
X99805Y58776D01*
X99722Y58832D01*
X99638Y58884D01*
X99551Y58934D01*
X99463Y58979D01*
X99373Y59022D01*
X99281Y59061D01*
X99188Y59096D01*
X99094Y59128D01*
X98999Y59156D01*
X98903Y59181D01*
X98805Y59202D01*
X98707Y59219D01*
X98609Y59232D01*
X98510Y59241D01*
X98410Y59247D01*
X98311Y59249D01*
X94416Y59249D01*
X94416Y64442D01*
X100907Y64442D01*
X191090Y281208D02*
X191090Y292892D01*
X194335Y292892D01*
X194448Y292890D01*
X194561Y292884D01*
X194674Y292874D01*
X194787Y292860D01*
X194899Y292843D01*
X195010Y292821D01*
X195120Y292796D01*
X195230Y292766D01*
X195338Y292733D01*
X195445Y292696D01*
X195551Y292656D01*
X195655Y292611D01*
X195758Y292563D01*
X195859Y292512D01*
X195958Y292457D01*
X196055Y292399D01*
X196150Y292337D01*
X196243Y292272D01*
X196333Y292204D01*
X196421Y292133D01*
X196507Y292058D01*
X196590Y291981D01*
X196670Y291901D01*
X196747Y291818D01*
X196822Y291732D01*
X196893Y291644D01*
X196961Y291554D01*
X197026Y291461D01*
X197088Y291366D01*
X197146Y291269D01*
X197201Y291170D01*
X197252Y291069D01*
X197300Y290966D01*
X197345Y290862D01*
X197385Y290756D01*
X197422Y290649D01*
X197455Y290541D01*
X197485Y290431D01*
X197510Y290321D01*
X197532Y290210D01*
X197549Y290098D01*
X197563Y289985D01*
X197573Y289872D01*
X197579Y289759D01*
X197581Y289646D01*
X197581Y284454D01*
X197582Y284454D02*
X197580Y284341D01*
X197574Y284228D01*
X197564Y284115D01*
X197550Y284002D01*
X197533Y283890D01*
X197511Y283779D01*
X197486Y283669D01*
X197456Y283559D01*
X197423Y283451D01*
X197386Y283344D01*
X197346Y283238D01*
X197301Y283134D01*
X197253Y283031D01*
X197202Y282930D01*
X197147Y282831D01*
X197089Y282734D01*
X197027Y282639D01*
X196962Y282546D01*
X196894Y282456D01*
X196823Y282368D01*
X196748Y282282D01*
X196671Y282199D01*
X196591Y282119D01*
X196508Y282042D01*
X196422Y281967D01*
X196334Y281896D01*
X196244Y281828D01*
X196151Y281763D01*
X196056Y281701D01*
X195959Y281643D01*
X195860Y281588D01*
X195759Y281537D01*
X195656Y281489D01*
X195552Y281444D01*
X195446Y281404D01*
X195339Y281367D01*
X195231Y281334D01*
X195121Y281304D01*
X195011Y281279D01*
X194900Y281257D01*
X194788Y281240D01*
X194675Y281226D01*
X194562Y281216D01*
X194449Y281210D01*
X194336Y281208D01*
X194335Y281208D02*
X191090Y281208D01*
X202901Y290296D02*
X206146Y292892D01*
X206146Y281208D01*
X202901Y281208D02*
X209392Y281208D01*
X187108Y212892D02*
X187108Y201208D01*
X187108Y212892D02*
X190354Y212892D01*
X190467Y212890D01*
X190580Y212884D01*
X190693Y212874D01*
X190806Y212860D01*
X190918Y212843D01*
X191029Y212821D01*
X191139Y212796D01*
X191249Y212766D01*
X191357Y212733D01*
X191464Y212696D01*
X191570Y212656D01*
X191674Y212611D01*
X191777Y212563D01*
X191878Y212512D01*
X191977Y212457D01*
X192074Y212399D01*
X192169Y212337D01*
X192262Y212272D01*
X192352Y212204D01*
X192440Y212133D01*
X192526Y212058D01*
X192609Y211981D01*
X192689Y211901D01*
X192766Y211818D01*
X192841Y211732D01*
X192912Y211644D01*
X192980Y211554D01*
X193045Y211461D01*
X193107Y211366D01*
X193165Y211269D01*
X193220Y211170D01*
X193271Y211069D01*
X193319Y210966D01*
X193364Y210862D01*
X193404Y210756D01*
X193441Y210649D01*
X193474Y210541D01*
X193504Y210431D01*
X193529Y210321D01*
X193551Y210210D01*
X193568Y210098D01*
X193582Y209985D01*
X193592Y209872D01*
X193598Y209759D01*
X193600Y209646D01*
X193599Y209646D02*
X193599Y204454D01*
X193600Y204454D02*
X193598Y204341D01*
X193592Y204228D01*
X193582Y204115D01*
X193568Y204002D01*
X193551Y203890D01*
X193529Y203779D01*
X193504Y203669D01*
X193474Y203559D01*
X193441Y203451D01*
X193404Y203344D01*
X193364Y203238D01*
X193319Y203134D01*
X193271Y203031D01*
X193220Y202930D01*
X193165Y202831D01*
X193107Y202734D01*
X193045Y202639D01*
X192980Y202546D01*
X192912Y202456D01*
X192841Y202368D01*
X192766Y202282D01*
X192689Y202199D01*
X192609Y202119D01*
X192526Y202042D01*
X192440Y201967D01*
X192352Y201896D01*
X192262Y201828D01*
X192169Y201763D01*
X192074Y201701D01*
X191977Y201643D01*
X191878Y201588D01*
X191777Y201537D01*
X191674Y201489D01*
X191570Y201444D01*
X191464Y201404D01*
X191357Y201367D01*
X191249Y201334D01*
X191139Y201304D01*
X191029Y201279D01*
X190918Y201257D01*
X190806Y201240D01*
X190693Y201226D01*
X190580Y201216D01*
X190467Y201210D01*
X190354Y201208D01*
X187108Y201208D01*
X202489Y212892D02*
X202596Y212890D01*
X202702Y212884D01*
X202808Y212874D01*
X202914Y212861D01*
X203020Y212843D01*
X203124Y212822D01*
X203228Y212797D01*
X203331Y212768D01*
X203432Y212736D01*
X203532Y212699D01*
X203631Y212659D01*
X203729Y212616D01*
X203825Y212569D01*
X203919Y212518D01*
X204011Y212464D01*
X204101Y212407D01*
X204189Y212347D01*
X204274Y212283D01*
X204357Y212216D01*
X204438Y212146D01*
X204516Y212074D01*
X204592Y211998D01*
X204664Y211920D01*
X204734Y211839D01*
X204801Y211756D01*
X204865Y211671D01*
X204925Y211583D01*
X204982Y211493D01*
X205036Y211401D01*
X205087Y211307D01*
X205134Y211211D01*
X205177Y211113D01*
X205217Y211014D01*
X205254Y210914D01*
X205286Y210813D01*
X205315Y210710D01*
X205340Y210606D01*
X205361Y210502D01*
X205379Y210396D01*
X205392Y210290D01*
X205402Y210184D01*
X205408Y210078D01*
X205410Y209971D01*
X202489Y212892D02*
X202368Y212890D01*
X202247Y212884D01*
X202127Y212874D01*
X202006Y212861D01*
X201887Y212843D01*
X201767Y212822D01*
X201649Y212797D01*
X201532Y212768D01*
X201415Y212735D01*
X201300Y212699D01*
X201186Y212658D01*
X201073Y212615D01*
X200961Y212567D01*
X200852Y212516D01*
X200744Y212461D01*
X200637Y212403D01*
X200533Y212342D01*
X200431Y212277D01*
X200331Y212209D01*
X200233Y212138D01*
X200137Y212064D01*
X200044Y211987D01*
X199954Y211906D01*
X199866Y211823D01*
X199781Y211737D01*
X199698Y211648D01*
X199619Y211557D01*
X199542Y211463D01*
X199469Y211367D01*
X199399Y211269D01*
X199332Y211168D01*
X199268Y211065D01*
X199208Y210960D01*
X199151Y210853D01*
X199097Y210745D01*
X199047Y210635D01*
X199001Y210523D01*
X198958Y210410D01*
X198919Y210295D01*
X204437Y207699D02*
X204516Y207776D01*
X204592Y207857D01*
X204665Y207940D01*
X204735Y208025D01*
X204802Y208113D01*
X204866Y208203D01*
X204926Y208295D01*
X204983Y208390D01*
X205037Y208486D01*
X205088Y208584D01*
X205135Y208684D01*
X205179Y208786D01*
X205219Y208889D01*
X205255Y208993D01*
X205287Y209099D01*
X205316Y209205D01*
X205341Y209313D01*
X205363Y209421D01*
X205380Y209531D01*
X205394Y209640D01*
X205403Y209750D01*
X205409Y209861D01*
X205411Y209971D01*
X204436Y207699D02*
X198919Y201208D01*
X205410Y201208D01*
D11*
X34825Y125685D02*
X32920Y125685D01*
X34825Y125685D02*
X34825Y119335D01*
X31015Y119335D01*
X30915Y119337D01*
X30816Y119343D01*
X30716Y119353D01*
X30618Y119366D01*
X30519Y119384D01*
X30422Y119405D01*
X30326Y119430D01*
X30230Y119459D01*
X30136Y119492D01*
X30043Y119528D01*
X29952Y119568D01*
X29862Y119612D01*
X29774Y119659D01*
X29688Y119709D01*
X29604Y119763D01*
X29522Y119820D01*
X29443Y119880D01*
X29365Y119944D01*
X29291Y120010D01*
X29219Y120079D01*
X29150Y120151D01*
X29084Y120225D01*
X29020Y120303D01*
X28960Y120382D01*
X28903Y120464D01*
X28849Y120548D01*
X28799Y120634D01*
X28752Y120722D01*
X28708Y120812D01*
X28668Y120903D01*
X28632Y120996D01*
X28599Y121090D01*
X28570Y121186D01*
X28545Y121282D01*
X28524Y121379D01*
X28506Y121478D01*
X28493Y121576D01*
X28483Y121676D01*
X28477Y121775D01*
X28475Y121875D01*
X28475Y128225D01*
X28477Y128325D01*
X28483Y128424D01*
X28493Y128524D01*
X28506Y128622D01*
X28524Y128721D01*
X28545Y128818D01*
X28570Y128914D01*
X28599Y129010D01*
X28632Y129104D01*
X28668Y129197D01*
X28708Y129288D01*
X28752Y129378D01*
X28799Y129466D01*
X28849Y129552D01*
X28903Y129636D01*
X28960Y129718D01*
X29020Y129797D01*
X29084Y129875D01*
X29150Y129949D01*
X29219Y130021D01*
X29291Y130090D01*
X29365Y130156D01*
X29443Y130220D01*
X29522Y130280D01*
X29604Y130337D01*
X29688Y130391D01*
X29774Y130441D01*
X29862Y130488D01*
X29952Y130532D01*
X30043Y130572D01*
X30136Y130608D01*
X30230Y130641D01*
X30326Y130670D01*
X30422Y130695D01*
X30519Y130716D01*
X30618Y130734D01*
X30716Y130747D01*
X30816Y130757D01*
X30915Y130763D01*
X31015Y130765D01*
X34825Y130765D01*
X40667Y130765D02*
X40667Y119335D01*
X47017Y119335D02*
X40667Y130765D01*
X47017Y130765D02*
X47017Y119335D01*
X52859Y119335D02*
X52859Y130765D01*
X56034Y130765D01*
X56145Y130763D01*
X56255Y130757D01*
X56366Y130748D01*
X56476Y130734D01*
X56585Y130717D01*
X56694Y130696D01*
X56802Y130671D01*
X56909Y130642D01*
X57015Y130610D01*
X57120Y130574D01*
X57223Y130534D01*
X57325Y130491D01*
X57426Y130444D01*
X57525Y130393D01*
X57622Y130340D01*
X57716Y130283D01*
X57809Y130222D01*
X57900Y130159D01*
X57989Y130092D01*
X58075Y130022D01*
X58158Y129949D01*
X58240Y129874D01*
X58318Y129796D01*
X58393Y129714D01*
X58466Y129631D01*
X58536Y129545D01*
X58603Y129456D01*
X58666Y129365D01*
X58727Y129272D01*
X58784Y129178D01*
X58837Y129081D01*
X58888Y128982D01*
X58935Y128881D01*
X58978Y128779D01*
X59018Y128676D01*
X59054Y128571D01*
X59086Y128465D01*
X59115Y128358D01*
X59140Y128250D01*
X59161Y128141D01*
X59178Y128032D01*
X59192Y127922D01*
X59201Y127811D01*
X59207Y127701D01*
X59209Y127590D01*
X59209Y122510D01*
X59207Y122399D01*
X59201Y122289D01*
X59192Y122178D01*
X59178Y122068D01*
X59161Y121959D01*
X59140Y121850D01*
X59115Y121742D01*
X59086Y121635D01*
X59054Y121529D01*
X59018Y121424D01*
X58978Y121321D01*
X58935Y121219D01*
X58888Y121118D01*
X58837Y121019D01*
X58784Y120922D01*
X58727Y120828D01*
X58666Y120735D01*
X58603Y120644D01*
X58536Y120555D01*
X58466Y120469D01*
X58393Y120386D01*
X58318Y120304D01*
X58240Y120226D01*
X58158Y120151D01*
X58075Y120078D01*
X57989Y120008D01*
X57900Y119941D01*
X57809Y119878D01*
X57716Y119817D01*
X57621Y119760D01*
X57525Y119707D01*
X57426Y119656D01*
X57325Y119609D01*
X57223Y119566D01*
X57120Y119526D01*
X57015Y119490D01*
X56909Y119458D01*
X56802Y119429D01*
X56694Y119404D01*
X56585Y119383D01*
X56476Y119366D01*
X56366Y119352D01*
X56255Y119343D01*
X56145Y119337D01*
X56034Y119335D01*
X52859Y119335D01*
D10*
X150627Y69772D02*
X150627Y58088D01*
X149329Y58088D02*
X151926Y58088D01*
X151926Y69772D02*
X149329Y69772D01*
X159089Y58088D02*
X161686Y58088D01*
X159089Y58088D02*
X158990Y58090D01*
X158890Y58096D01*
X158791Y58105D01*
X158693Y58118D01*
X158595Y58135D01*
X158497Y58156D01*
X158401Y58181D01*
X158306Y58209D01*
X158212Y58241D01*
X158119Y58276D01*
X158027Y58315D01*
X157937Y58358D01*
X157849Y58403D01*
X157762Y58453D01*
X157678Y58505D01*
X157595Y58561D01*
X157515Y58619D01*
X157437Y58681D01*
X157362Y58746D01*
X157289Y58814D01*
X157219Y58884D01*
X157151Y58957D01*
X157086Y59032D01*
X157024Y59110D01*
X156966Y59190D01*
X156910Y59273D01*
X156858Y59357D01*
X156808Y59444D01*
X156763Y59532D01*
X156720Y59622D01*
X156681Y59714D01*
X156646Y59807D01*
X156614Y59901D01*
X156586Y59996D01*
X156561Y60092D01*
X156540Y60190D01*
X156523Y60288D01*
X156510Y60386D01*
X156501Y60485D01*
X156495Y60585D01*
X156493Y60684D01*
X156493Y67176D01*
X156495Y67275D01*
X156501Y67375D01*
X156510Y67474D01*
X156523Y67572D01*
X156540Y67670D01*
X156561Y67768D01*
X156586Y67864D01*
X156614Y67959D01*
X156646Y68053D01*
X156681Y68146D01*
X156720Y68238D01*
X156763Y68328D01*
X156808Y68416D01*
X156858Y68503D01*
X156910Y68587D01*
X156966Y68670D01*
X157024Y68750D01*
X157086Y68828D01*
X157151Y68903D01*
X157219Y68976D01*
X157289Y69046D01*
X157362Y69114D01*
X157437Y69179D01*
X157515Y69241D01*
X157595Y69299D01*
X157678Y69355D01*
X157762Y69407D01*
X157849Y69457D01*
X157937Y69502D01*
X158027Y69545D01*
X158119Y69584D01*
X158211Y69619D01*
X158306Y69651D01*
X158401Y69679D01*
X158497Y69704D01*
X158595Y69725D01*
X158693Y69742D01*
X158791Y69755D01*
X158890Y69764D01*
X158990Y69770D01*
X159089Y69772D01*
X161686Y69772D01*
X166051Y67176D02*
X169296Y69772D01*
X169296Y58088D01*
X166051Y58088D02*
X172542Y58088D01*
D11*
X15745Y50765D02*
X15745Y39335D01*
X14475Y39335D02*
X17015Y39335D01*
X17015Y50765D02*
X14475Y50765D01*
X22095Y50765D02*
X22095Y39335D01*
X28445Y39335D02*
X22095Y50765D01*
X28445Y50765D02*
X28445Y39335D01*
X34033Y43780D02*
X41653Y43780D01*
X37843Y39970D02*
X37843Y47590D01*
X15745Y269335D02*
X15745Y280765D01*
X14475Y269335D02*
X17015Y269335D01*
X17015Y280765D02*
X14475Y280765D01*
X22095Y280765D02*
X22095Y269335D01*
X28445Y269335D02*
X22095Y280765D01*
X28445Y280765D02*
X28445Y269335D01*
X34033Y273780D02*
X41653Y273780D01*
D12*
X265000Y44500D02*
X265000Y27500D01*
X280000Y27500D01*
X288000Y27500D02*
X303000Y27500D01*
X303000Y44500D01*
X288000Y44500D01*
X280000Y44500D02*
X265000Y44500D01*
X280000Y44500D02*
X280058Y44382D01*
X280120Y44266D01*
X280185Y44152D01*
X280253Y44040D01*
X280325Y43930D01*
X280400Y43822D01*
X280478Y43716D01*
X280559Y43613D01*
X280643Y43512D01*
X280730Y43414D01*
X280820Y43318D01*
X280913Y43225D01*
X281009Y43135D01*
X281107Y43048D01*
X281208Y42963D01*
X281311Y42882D01*
X281416Y42804D01*
X281524Y42729D01*
X281634Y42657D01*
X281746Y42588D01*
X281860Y42523D01*
X281976Y42462D01*
X282094Y42403D01*
X282213Y42348D01*
X282334Y42297D01*
X282457Y42250D01*
X282580Y42206D01*
X282706Y42165D01*
X282832Y42129D01*
X282959Y42096D01*
X283087Y42067D01*
X283216Y42042D01*
X283346Y42021D01*
X283476Y42003D01*
X283606Y41990D01*
X283737Y41980D01*
X283869Y41974D01*
X284000Y41972D01*
X284131Y41974D01*
X284263Y41980D01*
X284394Y41990D01*
X284524Y42003D01*
X284654Y42021D01*
X284784Y42042D01*
X284913Y42067D01*
X285041Y42096D01*
X285168Y42129D01*
X285294Y42165D01*
X285420Y42206D01*
X285543Y42250D01*
X285666Y42297D01*
X285787Y42348D01*
X285906Y42403D01*
X286024Y42462D01*
X286140Y42523D01*
X286254Y42588D01*
X286366Y42657D01*
X286476Y42729D01*
X286584Y42804D01*
X286689Y42882D01*
X286792Y42963D01*
X286893Y43048D01*
X286991Y43135D01*
X287087Y43225D01*
X287180Y43318D01*
X287270Y43414D01*
X287357Y43512D01*
X287441Y43613D01*
X287522Y43716D01*
X287600Y43822D01*
X287675Y43930D01*
X287747Y44040D01*
X287815Y44152D01*
X287880Y44266D01*
X287942Y44382D01*
X288000Y44500D01*
X288000Y27500D02*
X287942Y27618D01*
X287880Y27734D01*
X287815Y27848D01*
X287747Y27960D01*
X287675Y28070D01*
X287600Y28178D01*
X287522Y28284D01*
X287441Y28387D01*
X287357Y28488D01*
X287270Y28586D01*
X287180Y28682D01*
X287087Y28775D01*
X286991Y28865D01*
X286893Y28952D01*
X286792Y29037D01*
X286689Y29118D01*
X286584Y29196D01*
X286476Y29271D01*
X286366Y29343D01*
X286254Y29412D01*
X286140Y29477D01*
X286024Y29538D01*
X285906Y29597D01*
X285787Y29652D01*
X285666Y29703D01*
X285543Y29750D01*
X285420Y29794D01*
X285294Y29835D01*
X285168Y29871D01*
X285041Y29904D01*
X284913Y29933D01*
X284784Y29958D01*
X284654Y29979D01*
X284524Y29997D01*
X284394Y30010D01*
X284263Y30020D01*
X284131Y30026D01*
X284000Y30028D01*
X283869Y30026D01*
X283737Y30020D01*
X283606Y30010D01*
X283476Y29997D01*
X283346Y29979D01*
X283216Y29958D01*
X283087Y29933D01*
X282959Y29904D01*
X282832Y29871D01*
X282706Y29835D01*
X282580Y29794D01*
X282457Y29750D01*
X282334Y29703D01*
X282213Y29652D01*
X282094Y29597D01*
X281976Y29538D01*
X281860Y29477D01*
X281746Y29412D01*
X281634Y29343D01*
X281524Y29271D01*
X281416Y29196D01*
X281311Y29118D01*
X281208Y29037D01*
X281107Y28952D01*
X281009Y28865D01*
X280913Y28775D01*
X280820Y28682D01*
X280730Y28586D01*
X280643Y28488D01*
X280559Y28387D01*
X280478Y28284D01*
X280400Y28178D01*
X280325Y28070D01*
X280253Y27960D01*
X280185Y27848D01*
X280120Y27734D01*
X280058Y27618D01*
X280000Y27500D01*
D13*
X267248Y40821D02*
X266627Y41597D01*
X269421Y41597D01*
X269421Y40821D02*
X269421Y42373D01*
D10*
X265608Y22792D02*
X265608Y11108D01*
X270801Y11108D01*
X275514Y11108D02*
X280707Y11108D01*
X275514Y11108D02*
X275514Y22792D01*
X280707Y22792D01*
X279409Y17599D02*
X275514Y17599D01*
X285397Y22792D02*
X285397Y11108D01*
X285397Y22792D02*
X288643Y22792D01*
X288756Y22790D01*
X288869Y22784D01*
X288982Y22774D01*
X289095Y22760D01*
X289207Y22743D01*
X289318Y22721D01*
X289428Y22696D01*
X289538Y22666D01*
X289646Y22633D01*
X289753Y22596D01*
X289859Y22556D01*
X289963Y22511D01*
X290066Y22463D01*
X290167Y22412D01*
X290266Y22357D01*
X290363Y22299D01*
X290458Y22237D01*
X290551Y22172D01*
X290641Y22104D01*
X290729Y22033D01*
X290815Y21958D01*
X290898Y21881D01*
X290978Y21801D01*
X291055Y21718D01*
X291130Y21632D01*
X291201Y21544D01*
X291269Y21454D01*
X291334Y21361D01*
X291396Y21266D01*
X291454Y21169D01*
X291509Y21070D01*
X291560Y20969D01*
X291608Y20866D01*
X291653Y20762D01*
X291693Y20656D01*
X291730Y20549D01*
X291763Y20441D01*
X291793Y20331D01*
X291818Y20221D01*
X291840Y20110D01*
X291857Y19998D01*
X291871Y19885D01*
X291881Y19772D01*
X291887Y19659D01*
X291889Y19546D01*
X291889Y14354D01*
X291887Y14241D01*
X291881Y14128D01*
X291871Y14015D01*
X291857Y13902D01*
X291840Y13790D01*
X291818Y13679D01*
X291793Y13569D01*
X291763Y13459D01*
X291730Y13351D01*
X291693Y13244D01*
X291653Y13138D01*
X291608Y13034D01*
X291560Y12931D01*
X291509Y12830D01*
X291454Y12731D01*
X291396Y12634D01*
X291334Y12539D01*
X291269Y12446D01*
X291201Y12356D01*
X291130Y12268D01*
X291055Y12182D01*
X290978Y12099D01*
X290898Y12019D01*
X290815Y11942D01*
X290729Y11867D01*
X290641Y11796D01*
X290551Y11728D01*
X290458Y11663D01*
X290363Y11601D01*
X290266Y11543D01*
X290167Y11488D01*
X290066Y11437D01*
X289963Y11389D01*
X289859Y11344D01*
X289753Y11304D01*
X289646Y11267D01*
X289538Y11234D01*
X289428Y11204D01*
X289318Y11179D01*
X289207Y11157D01*
X289095Y11140D01*
X288982Y11126D01*
X288869Y11116D01*
X288756Y11110D01*
X288643Y11108D01*
X285397Y11108D01*
D14*
X281000Y143000D03*
X281000Y149000D03*
X287000Y149000D03*
D10*
X306608Y132801D02*
X318292Y132801D01*
X318292Y137993D01*
X318292Y142707D02*
X318292Y147899D01*
X318292Y142707D02*
X306608Y142707D01*
X306608Y147899D01*
X311801Y146601D02*
X311801Y142707D01*
X306608Y152590D02*
X318292Y152590D01*
X306608Y152590D02*
X306608Y155835D01*
X306610Y155948D01*
X306616Y156061D01*
X306626Y156174D01*
X306640Y156287D01*
X306657Y156399D01*
X306679Y156510D01*
X306704Y156620D01*
X306734Y156730D01*
X306767Y156838D01*
X306804Y156945D01*
X306844Y157051D01*
X306889Y157155D01*
X306937Y157258D01*
X306988Y157359D01*
X307043Y157458D01*
X307101Y157555D01*
X307163Y157650D01*
X307228Y157743D01*
X307296Y157833D01*
X307367Y157921D01*
X307442Y158007D01*
X307519Y158090D01*
X307599Y158170D01*
X307682Y158247D01*
X307768Y158322D01*
X307856Y158393D01*
X307946Y158461D01*
X308039Y158526D01*
X308134Y158588D01*
X308231Y158646D01*
X308330Y158701D01*
X308431Y158752D01*
X308534Y158800D01*
X308638Y158845D01*
X308744Y158885D01*
X308851Y158922D01*
X308959Y158955D01*
X309069Y158985D01*
X309179Y159010D01*
X309290Y159032D01*
X309402Y159049D01*
X309515Y159063D01*
X309628Y159073D01*
X309741Y159079D01*
X309854Y159081D01*
X315046Y159081D01*
X315046Y159082D02*
X315159Y159080D01*
X315272Y159074D01*
X315385Y159064D01*
X315498Y159050D01*
X315610Y159033D01*
X315721Y159011D01*
X315831Y158986D01*
X315941Y158956D01*
X316049Y158923D01*
X316156Y158886D01*
X316262Y158846D01*
X316366Y158801D01*
X316469Y158753D01*
X316570Y158702D01*
X316669Y158647D01*
X316766Y158589D01*
X316861Y158527D01*
X316954Y158462D01*
X317044Y158394D01*
X317132Y158323D01*
X317218Y158248D01*
X317301Y158171D01*
X317381Y158091D01*
X317458Y158008D01*
X317533Y157922D01*
X317604Y157834D01*
X317672Y157744D01*
X317737Y157651D01*
X317799Y157556D01*
X317857Y157459D01*
X317912Y157360D01*
X317963Y157259D01*
X318011Y157156D01*
X318056Y157052D01*
X318096Y156946D01*
X318133Y156839D01*
X318166Y156731D01*
X318196Y156621D01*
X318221Y156511D01*
X318243Y156400D01*
X318260Y156288D01*
X318274Y156175D01*
X318284Y156062D01*
X318290Y155949D01*
X318292Y155836D01*
X318292Y155835D02*
X318292Y152590D01*
X309204Y164401D02*
X306608Y167646D01*
X318292Y167646D01*
X318292Y164401D02*
X318292Y170892D01*
D15*
X79494Y230506D02*
X48506Y230506D01*
X67048Y261494D02*
X79494Y261494D01*
X67048Y261494D02*
X60952Y261494D01*
X48506Y261494D01*
X60952Y261494D02*
X60954Y261385D01*
X60960Y261277D01*
X60969Y261168D01*
X60983Y261060D01*
X61000Y260953D01*
X61022Y260846D01*
X61047Y260740D01*
X61075Y260635D01*
X61108Y260531D01*
X61144Y260429D01*
X61184Y260328D01*
X61227Y260228D01*
X61274Y260130D01*
X61325Y260033D01*
X61379Y259939D01*
X61436Y259846D01*
X61496Y259756D01*
X61560Y259667D01*
X61627Y259581D01*
X61696Y259498D01*
X61769Y259417D01*
X61845Y259339D01*
X61923Y259263D01*
X62004Y259190D01*
X62087Y259121D01*
X62173Y259054D01*
X62262Y258990D01*
X62352Y258930D01*
X62445Y258873D01*
X62539Y258819D01*
X62636Y258768D01*
X62734Y258721D01*
X62834Y258678D01*
X62935Y258638D01*
X63037Y258602D01*
X63141Y258569D01*
X63246Y258541D01*
X63352Y258516D01*
X63459Y258494D01*
X63566Y258477D01*
X63674Y258463D01*
X63783Y258454D01*
X63891Y258448D01*
X64000Y258446D01*
X64109Y258448D01*
X64217Y258454D01*
X64326Y258463D01*
X64434Y258477D01*
X64541Y258494D01*
X64648Y258516D01*
X64754Y258541D01*
X64859Y258569D01*
X64963Y258602D01*
X65065Y258638D01*
X65166Y258678D01*
X65266Y258721D01*
X65364Y258768D01*
X65461Y258819D01*
X65555Y258873D01*
X65648Y258930D01*
X65738Y258990D01*
X65827Y259054D01*
X65913Y259121D01*
X65996Y259190D01*
X66077Y259263D01*
X66155Y259339D01*
X66231Y259417D01*
X66304Y259498D01*
X66373Y259581D01*
X66440Y259667D01*
X66504Y259756D01*
X66564Y259846D01*
X66621Y259939D01*
X66675Y260033D01*
X66726Y260130D01*
X66773Y260228D01*
X66816Y260328D01*
X66856Y260429D01*
X66892Y260531D01*
X66925Y260635D01*
X66953Y260740D01*
X66978Y260846D01*
X67000Y260953D01*
X67017Y261060D01*
X67031Y261168D01*
X67040Y261277D01*
X67046Y261385D01*
X67048Y261494D01*
D10*
X83265Y197242D02*
X83265Y185558D01*
X83265Y197242D02*
X86510Y197242D01*
X86623Y197240D01*
X86736Y197234D01*
X86849Y197224D01*
X86962Y197210D01*
X87074Y197193D01*
X87185Y197171D01*
X87295Y197146D01*
X87405Y197116D01*
X87513Y197083D01*
X87620Y197046D01*
X87726Y197006D01*
X87830Y196961D01*
X87933Y196913D01*
X88034Y196862D01*
X88133Y196807D01*
X88230Y196749D01*
X88325Y196687D01*
X88418Y196622D01*
X88508Y196554D01*
X88596Y196483D01*
X88682Y196408D01*
X88765Y196331D01*
X88845Y196251D01*
X88922Y196168D01*
X88997Y196082D01*
X89068Y195994D01*
X89136Y195904D01*
X89201Y195811D01*
X89263Y195716D01*
X89321Y195619D01*
X89376Y195520D01*
X89427Y195419D01*
X89475Y195316D01*
X89520Y195212D01*
X89560Y195106D01*
X89597Y194999D01*
X89630Y194891D01*
X89660Y194781D01*
X89685Y194671D01*
X89707Y194560D01*
X89724Y194448D01*
X89738Y194335D01*
X89748Y194222D01*
X89754Y194109D01*
X89756Y193996D01*
X89754Y193883D01*
X89748Y193770D01*
X89738Y193657D01*
X89724Y193544D01*
X89707Y193432D01*
X89685Y193321D01*
X89660Y193211D01*
X89630Y193101D01*
X89597Y192993D01*
X89560Y192886D01*
X89520Y192780D01*
X89475Y192676D01*
X89427Y192573D01*
X89376Y192472D01*
X89321Y192373D01*
X89263Y192276D01*
X89201Y192181D01*
X89136Y192088D01*
X89068Y191998D01*
X88997Y191910D01*
X88922Y191824D01*
X88845Y191741D01*
X88765Y191661D01*
X88682Y191584D01*
X88596Y191509D01*
X88508Y191438D01*
X88418Y191370D01*
X88325Y191305D01*
X88230Y191243D01*
X88133Y191185D01*
X88034Y191130D01*
X87933Y191079D01*
X87830Y191031D01*
X87726Y190986D01*
X87620Y190946D01*
X87513Y190909D01*
X87405Y190876D01*
X87295Y190846D01*
X87185Y190821D01*
X87074Y190799D01*
X86962Y190782D01*
X86849Y190768D01*
X86736Y190758D01*
X86623Y190752D01*
X86510Y190750D01*
X86510Y190751D02*
X83265Y190751D01*
X87159Y190751D02*
X89756Y185558D01*
X94621Y194646D02*
X97866Y197242D01*
X97866Y185558D01*
X94621Y185558D02*
X101112Y185558D01*
X106051Y191400D02*
X106054Y191630D01*
X106062Y191860D01*
X106076Y192089D01*
X106095Y192318D01*
X106120Y192547D01*
X106150Y192774D01*
X106185Y193002D01*
X106226Y193228D01*
X106272Y193453D01*
X106324Y193677D01*
X106381Y193899D01*
X106443Y194121D01*
X106511Y194340D01*
X106584Y194558D01*
X106662Y194775D01*
X106745Y194989D01*
X106833Y195201D01*
X106926Y195411D01*
X107025Y195619D01*
X107024Y195619D02*
X107057Y195709D01*
X107093Y195798D01*
X107133Y195886D01*
X107177Y195971D01*
X107224Y196055D01*
X107274Y196137D01*
X107328Y196217D01*
X107384Y196294D01*
X107444Y196370D01*
X107507Y196443D01*
X107572Y196513D01*
X107641Y196581D01*
X107712Y196645D01*
X107785Y196707D01*
X107861Y196766D01*
X107939Y196822D01*
X108020Y196875D01*
X108102Y196924D01*
X108186Y196970D01*
X108273Y197013D01*
X108360Y197052D01*
X108450Y197088D01*
X108540Y197120D01*
X108632Y197148D01*
X108725Y197173D01*
X108819Y197194D01*
X108913Y197211D01*
X109008Y197225D01*
X109104Y197234D01*
X109200Y197240D01*
X109296Y197242D01*
X109392Y197240D01*
X109488Y197234D01*
X109584Y197225D01*
X109679Y197211D01*
X109773Y197194D01*
X109867Y197173D01*
X109960Y197148D01*
X110052Y197120D01*
X110142Y197088D01*
X110232Y197052D01*
X110319Y197013D01*
X110406Y196970D01*
X110490Y196924D01*
X110572Y196875D01*
X110653Y196822D01*
X110731Y196766D01*
X110807Y196707D01*
X110880Y196645D01*
X110951Y196581D01*
X111020Y196513D01*
X111085Y196443D01*
X111148Y196370D01*
X111208Y196294D01*
X111264Y196217D01*
X111318Y196137D01*
X111368Y196055D01*
X111415Y195971D01*
X111459Y195886D01*
X111499Y195798D01*
X111535Y195709D01*
X111568Y195619D01*
X111569Y195619D02*
X111668Y195412D01*
X111761Y195202D01*
X111849Y194989D01*
X111932Y194775D01*
X112010Y194559D01*
X112083Y194341D01*
X112151Y194121D01*
X112213Y193900D01*
X112270Y193677D01*
X112322Y193453D01*
X112368Y193228D01*
X112409Y193002D01*
X112444Y192775D01*
X112474Y192547D01*
X112499Y192318D01*
X112518Y192089D01*
X112532Y191860D01*
X112540Y191630D01*
X112543Y191400D01*
X106051Y191400D02*
X106054Y191170D01*
X106062Y190940D01*
X106076Y190711D01*
X106095Y190482D01*
X106120Y190253D01*
X106150Y190025D01*
X106185Y189798D01*
X106226Y189572D01*
X106272Y189347D01*
X106324Y189123D01*
X106381Y188900D01*
X106443Y188679D01*
X106511Y188459D01*
X106584Y188241D01*
X106662Y188025D01*
X106745Y187811D01*
X106833Y187599D01*
X106926Y187388D01*
X107025Y187181D01*
X107024Y187181D02*
X107057Y187091D01*
X107093Y187002D01*
X107134Y186914D01*
X107177Y186829D01*
X107224Y186745D01*
X107274Y186663D01*
X107328Y186583D01*
X107384Y186506D01*
X107444Y186430D01*
X107507Y186357D01*
X107572Y186287D01*
X107641Y186219D01*
X107712Y186155D01*
X107785Y186093D01*
X107861Y186034D01*
X107939Y185978D01*
X108020Y185925D01*
X108102Y185876D01*
X108186Y185830D01*
X108273Y185787D01*
X108360Y185748D01*
X108450Y185712D01*
X108540Y185680D01*
X108632Y185652D01*
X108725Y185627D01*
X108819Y185606D01*
X108913Y185589D01*
X109008Y185575D01*
X109104Y185566D01*
X109200Y185560D01*
X109296Y185558D01*
X111568Y187181D02*
X111667Y187388D01*
X111760Y187599D01*
X111848Y187811D01*
X111931Y188025D01*
X112009Y188241D01*
X112082Y188459D01*
X112150Y188679D01*
X112212Y188900D01*
X112269Y189123D01*
X112321Y189347D01*
X112367Y189572D01*
X112408Y189798D01*
X112443Y190025D01*
X112473Y190253D01*
X112498Y190482D01*
X112517Y190711D01*
X112531Y190940D01*
X112539Y191170D01*
X112542Y191400D01*
X111568Y187181D02*
X111535Y187091D01*
X111499Y187002D01*
X111459Y186914D01*
X111415Y186829D01*
X111368Y186745D01*
X111318Y186663D01*
X111264Y186583D01*
X111208Y186506D01*
X111148Y186430D01*
X111085Y186357D01*
X111020Y186287D01*
X110951Y186219D01*
X110880Y186155D01*
X110807Y186093D01*
X110731Y186034D01*
X110653Y185978D01*
X110572Y185925D01*
X110490Y185876D01*
X110406Y185830D01*
X110319Y185787D01*
X110232Y185748D01*
X110142Y185712D01*
X110052Y185680D01*
X109960Y185652D01*
X109867Y185627D01*
X109773Y185606D01*
X109679Y185589D01*
X109584Y185575D01*
X109488Y185566D01*
X109392Y185560D01*
X109296Y185558D01*
X106700Y188154D02*
X111893Y194646D01*
X45458Y197242D02*
X45458Y185558D01*
X45458Y197242D02*
X48704Y197242D01*
X48817Y197240D01*
X48930Y197234D01*
X49043Y197224D01*
X49156Y197210D01*
X49268Y197193D01*
X49379Y197171D01*
X49489Y197146D01*
X49599Y197116D01*
X49707Y197083D01*
X49814Y197046D01*
X49920Y197006D01*
X50024Y196961D01*
X50127Y196913D01*
X50228Y196862D01*
X50327Y196807D01*
X50424Y196749D01*
X50519Y196687D01*
X50612Y196622D01*
X50702Y196554D01*
X50790Y196483D01*
X50876Y196408D01*
X50959Y196331D01*
X51039Y196251D01*
X51116Y196168D01*
X51191Y196082D01*
X51262Y195994D01*
X51330Y195904D01*
X51395Y195811D01*
X51457Y195716D01*
X51515Y195619D01*
X51570Y195520D01*
X51621Y195419D01*
X51669Y195316D01*
X51714Y195212D01*
X51754Y195106D01*
X51791Y194999D01*
X51824Y194891D01*
X51854Y194781D01*
X51879Y194671D01*
X51901Y194560D01*
X51918Y194448D01*
X51932Y194335D01*
X51942Y194222D01*
X51948Y194109D01*
X51950Y193996D01*
X51948Y193883D01*
X51942Y193770D01*
X51932Y193657D01*
X51918Y193544D01*
X51901Y193432D01*
X51879Y193321D01*
X51854Y193211D01*
X51824Y193101D01*
X51791Y192993D01*
X51754Y192886D01*
X51714Y192780D01*
X51669Y192676D01*
X51621Y192573D01*
X51570Y192472D01*
X51515Y192373D01*
X51457Y192276D01*
X51395Y192181D01*
X51330Y192088D01*
X51262Y191998D01*
X51191Y191910D01*
X51116Y191824D01*
X51039Y191741D01*
X50959Y191661D01*
X50876Y191584D01*
X50790Y191509D01*
X50702Y191438D01*
X50612Y191370D01*
X50519Y191305D01*
X50424Y191243D01*
X50327Y191185D01*
X50228Y191130D01*
X50127Y191079D01*
X50024Y191031D01*
X49920Y190986D01*
X49814Y190946D01*
X49707Y190909D01*
X49599Y190876D01*
X49489Y190846D01*
X49379Y190821D01*
X49268Y190799D01*
X49156Y190782D01*
X49043Y190768D01*
X48930Y190758D01*
X48817Y190752D01*
X48704Y190750D01*
X48704Y190751D02*
X45458Y190751D01*
X49353Y190751D02*
X51949Y185558D01*
X56814Y194646D02*
X60060Y197242D01*
X60060Y185558D01*
X63305Y185558D02*
X56814Y185558D01*
X68244Y194646D02*
X71490Y197242D01*
X71490Y185558D01*
X74735Y185558D02*
X68244Y185558D01*
X45458Y66442D02*
X45458Y54758D01*
X45458Y66442D02*
X48704Y66442D01*
X48817Y66440D01*
X48930Y66434D01*
X49043Y66424D01*
X49156Y66410D01*
X49268Y66393D01*
X49379Y66371D01*
X49489Y66346D01*
X49599Y66316D01*
X49707Y66283D01*
X49814Y66246D01*
X49920Y66206D01*
X50024Y66161D01*
X50127Y66113D01*
X50228Y66062D01*
X50327Y66007D01*
X50424Y65949D01*
X50519Y65887D01*
X50612Y65822D01*
X50702Y65754D01*
X50790Y65683D01*
X50876Y65608D01*
X50959Y65531D01*
X51039Y65451D01*
X51116Y65368D01*
X51191Y65282D01*
X51262Y65194D01*
X51330Y65104D01*
X51395Y65011D01*
X51457Y64916D01*
X51515Y64819D01*
X51570Y64720D01*
X51621Y64619D01*
X51669Y64516D01*
X51714Y64412D01*
X51754Y64306D01*
X51791Y64199D01*
X51824Y64091D01*
X51854Y63981D01*
X51879Y63871D01*
X51901Y63760D01*
X51918Y63648D01*
X51932Y63535D01*
X51942Y63422D01*
X51948Y63309D01*
X51950Y63196D01*
X51948Y63083D01*
X51942Y62970D01*
X51932Y62857D01*
X51918Y62744D01*
X51901Y62632D01*
X51879Y62521D01*
X51854Y62411D01*
X51824Y62301D01*
X51791Y62193D01*
X51754Y62086D01*
X51714Y61980D01*
X51669Y61876D01*
X51621Y61773D01*
X51570Y61672D01*
X51515Y61573D01*
X51457Y61476D01*
X51395Y61381D01*
X51330Y61288D01*
X51262Y61198D01*
X51191Y61110D01*
X51116Y61024D01*
X51039Y60941D01*
X50959Y60861D01*
X50876Y60784D01*
X50790Y60709D01*
X50702Y60638D01*
X50612Y60570D01*
X50519Y60505D01*
X50424Y60443D01*
X50327Y60385D01*
X50228Y60330D01*
X50127Y60279D01*
X50024Y60231D01*
X49920Y60186D01*
X49814Y60146D01*
X49707Y60109D01*
X49599Y60076D01*
X49489Y60046D01*
X49379Y60021D01*
X49268Y59999D01*
X49156Y59982D01*
X49043Y59968D01*
X48930Y59958D01*
X48817Y59952D01*
X48704Y59950D01*
X48704Y59951D02*
X45458Y59951D01*
X49353Y59951D02*
X51949Y54758D01*
X56814Y63846D02*
X60060Y66442D01*
X60060Y54758D01*
X63305Y54758D02*
X56814Y54758D01*
X71814Y66442D02*
X71921Y66440D01*
X72027Y66434D01*
X72133Y66424D01*
X72239Y66411D01*
X72345Y66393D01*
X72449Y66372D01*
X72553Y66347D01*
X72656Y66318D01*
X72757Y66286D01*
X72857Y66249D01*
X72956Y66209D01*
X73054Y66166D01*
X73150Y66119D01*
X73244Y66068D01*
X73336Y66014D01*
X73426Y65957D01*
X73514Y65897D01*
X73599Y65833D01*
X73682Y65766D01*
X73763Y65696D01*
X73841Y65624D01*
X73917Y65548D01*
X73989Y65470D01*
X74059Y65389D01*
X74126Y65306D01*
X74190Y65221D01*
X74250Y65133D01*
X74307Y65043D01*
X74361Y64951D01*
X74412Y64857D01*
X74459Y64761D01*
X74502Y64663D01*
X74542Y64564D01*
X74579Y64464D01*
X74611Y64363D01*
X74640Y64260D01*
X74665Y64156D01*
X74686Y64052D01*
X74704Y63946D01*
X74717Y63840D01*
X74727Y63734D01*
X74733Y63628D01*
X74735Y63521D01*
X71814Y66442D02*
X71693Y66440D01*
X71572Y66434D01*
X71452Y66424D01*
X71331Y66411D01*
X71212Y66393D01*
X71092Y66372D01*
X70974Y66347D01*
X70857Y66318D01*
X70740Y66285D01*
X70625Y66249D01*
X70511Y66208D01*
X70398Y66165D01*
X70286Y66117D01*
X70177Y66066D01*
X70069Y66011D01*
X69962Y65953D01*
X69858Y65892D01*
X69756Y65827D01*
X69656Y65759D01*
X69558Y65688D01*
X69462Y65614D01*
X69369Y65537D01*
X69279Y65456D01*
X69191Y65373D01*
X69106Y65287D01*
X69023Y65198D01*
X68944Y65107D01*
X68867Y65013D01*
X68794Y64917D01*
X68724Y64819D01*
X68657Y64718D01*
X68593Y64615D01*
X68533Y64510D01*
X68476Y64403D01*
X68422Y64295D01*
X68372Y64185D01*
X68326Y64073D01*
X68283Y63960D01*
X68244Y63845D01*
X73762Y61249D02*
X73841Y61326D01*
X73917Y61407D01*
X73990Y61490D01*
X74060Y61575D01*
X74127Y61663D01*
X74191Y61753D01*
X74251Y61845D01*
X74308Y61940D01*
X74362Y62036D01*
X74413Y62134D01*
X74460Y62234D01*
X74504Y62336D01*
X74544Y62439D01*
X74580Y62543D01*
X74612Y62649D01*
X74641Y62755D01*
X74666Y62863D01*
X74688Y62971D01*
X74705Y63081D01*
X74719Y63190D01*
X74728Y63300D01*
X74734Y63411D01*
X74736Y63521D01*
X73762Y61249D02*
X68244Y54758D01*
X74735Y54758D01*
X201965Y151558D02*
X201965Y163242D01*
X205210Y163242D01*
X205323Y163240D01*
X205436Y163234D01*
X205549Y163224D01*
X205662Y163210D01*
X205774Y163193D01*
X205885Y163171D01*
X205995Y163146D01*
X206105Y163116D01*
X206213Y163083D01*
X206320Y163046D01*
X206426Y163006D01*
X206530Y162961D01*
X206633Y162913D01*
X206734Y162862D01*
X206833Y162807D01*
X206930Y162749D01*
X207025Y162687D01*
X207118Y162622D01*
X207208Y162554D01*
X207296Y162483D01*
X207382Y162408D01*
X207465Y162331D01*
X207545Y162251D01*
X207622Y162168D01*
X207697Y162082D01*
X207768Y161994D01*
X207836Y161904D01*
X207901Y161811D01*
X207963Y161716D01*
X208021Y161619D01*
X208076Y161520D01*
X208127Y161419D01*
X208175Y161316D01*
X208220Y161212D01*
X208260Y161106D01*
X208297Y160999D01*
X208330Y160891D01*
X208360Y160781D01*
X208385Y160671D01*
X208407Y160560D01*
X208424Y160448D01*
X208438Y160335D01*
X208448Y160222D01*
X208454Y160109D01*
X208456Y159996D01*
X208454Y159883D01*
X208448Y159770D01*
X208438Y159657D01*
X208424Y159544D01*
X208407Y159432D01*
X208385Y159321D01*
X208360Y159211D01*
X208330Y159101D01*
X208297Y158993D01*
X208260Y158886D01*
X208220Y158780D01*
X208175Y158676D01*
X208127Y158573D01*
X208076Y158472D01*
X208021Y158373D01*
X207963Y158276D01*
X207901Y158181D01*
X207836Y158088D01*
X207768Y157998D01*
X207697Y157910D01*
X207622Y157824D01*
X207545Y157741D01*
X207465Y157661D01*
X207382Y157584D01*
X207296Y157509D01*
X207208Y157438D01*
X207118Y157370D01*
X207025Y157305D01*
X206930Y157243D01*
X206833Y157185D01*
X206734Y157130D01*
X206633Y157079D01*
X206530Y157031D01*
X206426Y156986D01*
X206320Y156946D01*
X206213Y156909D01*
X206105Y156876D01*
X205995Y156846D01*
X205885Y156821D01*
X205774Y156799D01*
X205662Y156782D01*
X205549Y156768D01*
X205436Y156758D01*
X205323Y156752D01*
X205210Y156750D01*
X205210Y156751D02*
X201965Y156751D01*
X205859Y156751D02*
X208456Y151558D01*
X213321Y160646D02*
X216566Y163242D01*
X216566Y151558D01*
X213321Y151558D02*
X219812Y151558D01*
X224751Y151558D02*
X227996Y151558D01*
X228109Y151560D01*
X228222Y151566D01*
X228335Y151576D01*
X228448Y151590D01*
X228560Y151607D01*
X228671Y151629D01*
X228781Y151654D01*
X228891Y151684D01*
X228999Y151717D01*
X229106Y151754D01*
X229212Y151794D01*
X229316Y151839D01*
X229419Y151887D01*
X229520Y151938D01*
X229619Y151993D01*
X229716Y152051D01*
X229811Y152113D01*
X229904Y152178D01*
X229994Y152246D01*
X230082Y152317D01*
X230168Y152392D01*
X230251Y152469D01*
X230331Y152549D01*
X230408Y152632D01*
X230483Y152718D01*
X230554Y152806D01*
X230622Y152896D01*
X230687Y152989D01*
X230749Y153084D01*
X230807Y153181D01*
X230862Y153280D01*
X230913Y153381D01*
X230961Y153484D01*
X231006Y153588D01*
X231046Y153694D01*
X231083Y153801D01*
X231116Y153909D01*
X231146Y154019D01*
X231171Y154129D01*
X231193Y154240D01*
X231210Y154352D01*
X231224Y154465D01*
X231234Y154578D01*
X231240Y154691D01*
X231242Y154804D01*
X231240Y154917D01*
X231234Y155030D01*
X231224Y155143D01*
X231210Y155256D01*
X231193Y155368D01*
X231171Y155479D01*
X231146Y155589D01*
X231116Y155699D01*
X231083Y155807D01*
X231046Y155914D01*
X231006Y156020D01*
X230961Y156124D01*
X230913Y156227D01*
X230862Y156328D01*
X230807Y156427D01*
X230749Y156524D01*
X230687Y156619D01*
X230622Y156712D01*
X230554Y156802D01*
X230483Y156890D01*
X230408Y156976D01*
X230331Y157059D01*
X230251Y157139D01*
X230168Y157216D01*
X230082Y157291D01*
X229994Y157362D01*
X229904Y157430D01*
X229811Y157495D01*
X229716Y157557D01*
X229619Y157615D01*
X229520Y157670D01*
X229419Y157721D01*
X229316Y157769D01*
X229212Y157814D01*
X229106Y157854D01*
X228999Y157891D01*
X228891Y157924D01*
X228781Y157954D01*
X228671Y157979D01*
X228560Y158001D01*
X228448Y158018D01*
X228335Y158032D01*
X228222Y158042D01*
X228109Y158048D01*
X227996Y158050D01*
X228646Y163242D02*
X224751Y163242D01*
X228646Y163242D02*
X228747Y163240D01*
X228847Y163234D01*
X228947Y163224D01*
X229047Y163211D01*
X229146Y163193D01*
X229245Y163172D01*
X229342Y163147D01*
X229439Y163118D01*
X229534Y163085D01*
X229628Y163049D01*
X229720Y163009D01*
X229811Y162966D01*
X229900Y162919D01*
X229987Y162869D01*
X230073Y162815D01*
X230156Y162758D01*
X230236Y162698D01*
X230315Y162635D01*
X230391Y162568D01*
X230464Y162499D01*
X230534Y162427D01*
X230602Y162353D01*
X230667Y162276D01*
X230728Y162196D01*
X230787Y162114D01*
X230842Y162030D01*
X230894Y161944D01*
X230943Y161856D01*
X230988Y161766D01*
X231030Y161674D01*
X231068Y161581D01*
X231102Y161486D01*
X231133Y161391D01*
X231160Y161294D01*
X231183Y161196D01*
X231203Y161097D01*
X231218Y160997D01*
X231230Y160897D01*
X231238Y160797D01*
X231242Y160696D01*
X231242Y160596D01*
X231238Y160495D01*
X231230Y160395D01*
X231218Y160295D01*
X231203Y160195D01*
X231183Y160096D01*
X231160Y159998D01*
X231133Y159901D01*
X231102Y159806D01*
X231068Y159711D01*
X231030Y159618D01*
X230988Y159526D01*
X230943Y159436D01*
X230894Y159348D01*
X230842Y159262D01*
X230787Y159178D01*
X230728Y159096D01*
X230667Y159016D01*
X230602Y158939D01*
X230534Y158865D01*
X230464Y158793D01*
X230391Y158724D01*
X230315Y158657D01*
X230236Y158594D01*
X230156Y158534D01*
X230073Y158477D01*
X229987Y158423D01*
X229900Y158373D01*
X229811Y158326D01*
X229720Y158283D01*
X229628Y158243D01*
X229534Y158207D01*
X229439Y158174D01*
X229342Y158145D01*
X229245Y158120D01*
X229146Y158099D01*
X229047Y158081D01*
X228947Y158068D01*
X228847Y158058D01*
X228747Y158052D01*
X228646Y158050D01*
X228646Y158049D02*
X226049Y158049D01*
X235295Y230158D02*
X235295Y241842D01*
X238540Y241842D01*
X238653Y241840D01*
X238766Y241834D01*
X238879Y241824D01*
X238992Y241810D01*
X239104Y241793D01*
X239215Y241771D01*
X239325Y241746D01*
X239435Y241716D01*
X239543Y241683D01*
X239650Y241646D01*
X239756Y241606D01*
X239860Y241561D01*
X239963Y241513D01*
X240064Y241462D01*
X240163Y241407D01*
X240260Y241349D01*
X240355Y241287D01*
X240448Y241222D01*
X240538Y241154D01*
X240626Y241083D01*
X240712Y241008D01*
X240795Y240931D01*
X240875Y240851D01*
X240952Y240768D01*
X241027Y240682D01*
X241098Y240594D01*
X241166Y240504D01*
X241231Y240411D01*
X241293Y240316D01*
X241351Y240219D01*
X241406Y240120D01*
X241457Y240019D01*
X241505Y239916D01*
X241550Y239812D01*
X241590Y239706D01*
X241627Y239599D01*
X241660Y239491D01*
X241690Y239381D01*
X241715Y239271D01*
X241737Y239160D01*
X241754Y239048D01*
X241768Y238935D01*
X241778Y238822D01*
X241784Y238709D01*
X241786Y238596D01*
X241784Y238483D01*
X241778Y238370D01*
X241768Y238257D01*
X241754Y238144D01*
X241737Y238032D01*
X241715Y237921D01*
X241690Y237811D01*
X241660Y237701D01*
X241627Y237593D01*
X241590Y237486D01*
X241550Y237380D01*
X241505Y237276D01*
X241457Y237173D01*
X241406Y237072D01*
X241351Y236973D01*
X241293Y236876D01*
X241231Y236781D01*
X241166Y236688D01*
X241098Y236598D01*
X241027Y236510D01*
X240952Y236424D01*
X240875Y236341D01*
X240795Y236261D01*
X240712Y236184D01*
X240626Y236109D01*
X240538Y236038D01*
X240448Y235970D01*
X240355Y235905D01*
X240260Y235843D01*
X240163Y235785D01*
X240064Y235730D01*
X239963Y235679D01*
X239860Y235631D01*
X239756Y235586D01*
X239650Y235546D01*
X239543Y235509D01*
X239435Y235476D01*
X239325Y235446D01*
X239215Y235421D01*
X239104Y235399D01*
X238992Y235382D01*
X238879Y235368D01*
X238766Y235358D01*
X238653Y235352D01*
X238540Y235350D01*
X238540Y235351D02*
X235295Y235351D01*
X239189Y235351D02*
X241786Y230158D01*
X253142Y238921D02*
X253140Y239028D01*
X253134Y239134D01*
X253124Y239240D01*
X253111Y239346D01*
X253093Y239452D01*
X253072Y239556D01*
X253047Y239660D01*
X253018Y239763D01*
X252986Y239864D01*
X252949Y239964D01*
X252909Y240063D01*
X252866Y240161D01*
X252819Y240257D01*
X252768Y240351D01*
X252714Y240443D01*
X252657Y240533D01*
X252597Y240621D01*
X252533Y240706D01*
X252466Y240789D01*
X252396Y240870D01*
X252324Y240948D01*
X252248Y241024D01*
X252170Y241096D01*
X252089Y241166D01*
X252006Y241233D01*
X251921Y241297D01*
X251833Y241357D01*
X251743Y241414D01*
X251651Y241468D01*
X251557Y241519D01*
X251461Y241566D01*
X251363Y241609D01*
X251264Y241649D01*
X251164Y241686D01*
X251063Y241718D01*
X250960Y241747D01*
X250856Y241772D01*
X250752Y241793D01*
X250646Y241811D01*
X250540Y241824D01*
X250434Y241834D01*
X250328Y241840D01*
X250221Y241842D01*
X250100Y241840D01*
X249979Y241834D01*
X249859Y241824D01*
X249738Y241811D01*
X249619Y241793D01*
X249499Y241772D01*
X249381Y241747D01*
X249264Y241718D01*
X249147Y241685D01*
X249032Y241649D01*
X248918Y241608D01*
X248805Y241565D01*
X248693Y241517D01*
X248584Y241466D01*
X248476Y241411D01*
X248369Y241353D01*
X248265Y241292D01*
X248163Y241227D01*
X248063Y241159D01*
X247965Y241088D01*
X247869Y241014D01*
X247776Y240937D01*
X247686Y240856D01*
X247598Y240773D01*
X247513Y240687D01*
X247430Y240598D01*
X247351Y240507D01*
X247274Y240413D01*
X247201Y240317D01*
X247131Y240219D01*
X247064Y240118D01*
X247000Y240015D01*
X246940Y239910D01*
X246883Y239803D01*
X246829Y239695D01*
X246779Y239585D01*
X246733Y239473D01*
X246690Y239360D01*
X246651Y239245D01*
X252169Y236649D02*
X252248Y236726D01*
X252324Y236807D01*
X252397Y236890D01*
X252467Y236975D01*
X252534Y237063D01*
X252598Y237153D01*
X252658Y237245D01*
X252715Y237340D01*
X252769Y237436D01*
X252820Y237534D01*
X252867Y237634D01*
X252911Y237736D01*
X252951Y237839D01*
X252987Y237943D01*
X253019Y238049D01*
X253048Y238155D01*
X253073Y238263D01*
X253095Y238371D01*
X253112Y238481D01*
X253126Y238590D01*
X253135Y238700D01*
X253141Y238811D01*
X253143Y238921D01*
X252168Y236649D02*
X246651Y230158D01*
X253142Y230158D01*
X280658Y200495D02*
X292342Y200495D01*
X280658Y200495D02*
X280658Y203740D01*
X280660Y203853D01*
X280666Y203966D01*
X280676Y204079D01*
X280690Y204192D01*
X280707Y204304D01*
X280729Y204415D01*
X280754Y204525D01*
X280784Y204635D01*
X280817Y204743D01*
X280854Y204850D01*
X280894Y204956D01*
X280939Y205060D01*
X280987Y205163D01*
X281038Y205264D01*
X281093Y205363D01*
X281151Y205460D01*
X281213Y205555D01*
X281278Y205648D01*
X281346Y205738D01*
X281417Y205826D01*
X281492Y205912D01*
X281569Y205995D01*
X281649Y206075D01*
X281732Y206152D01*
X281818Y206227D01*
X281906Y206298D01*
X281996Y206366D01*
X282089Y206431D01*
X282184Y206493D01*
X282281Y206551D01*
X282380Y206606D01*
X282481Y206657D01*
X282584Y206705D01*
X282688Y206750D01*
X282794Y206790D01*
X282901Y206827D01*
X283009Y206860D01*
X283119Y206890D01*
X283229Y206915D01*
X283340Y206937D01*
X283452Y206954D01*
X283565Y206968D01*
X283678Y206978D01*
X283791Y206984D01*
X283904Y206986D01*
X284017Y206984D01*
X284130Y206978D01*
X284243Y206968D01*
X284356Y206954D01*
X284468Y206937D01*
X284579Y206915D01*
X284689Y206890D01*
X284799Y206860D01*
X284907Y206827D01*
X285014Y206790D01*
X285120Y206750D01*
X285224Y206705D01*
X285327Y206657D01*
X285428Y206606D01*
X285527Y206551D01*
X285624Y206493D01*
X285719Y206431D01*
X285812Y206366D01*
X285902Y206298D01*
X285990Y206227D01*
X286076Y206152D01*
X286159Y206075D01*
X286239Y205995D01*
X286316Y205912D01*
X286391Y205826D01*
X286462Y205738D01*
X286530Y205648D01*
X286595Y205555D01*
X286657Y205460D01*
X286715Y205363D01*
X286770Y205264D01*
X286821Y205163D01*
X286869Y205060D01*
X286914Y204956D01*
X286954Y204850D01*
X286991Y204743D01*
X287024Y204635D01*
X287054Y204525D01*
X287079Y204415D01*
X287101Y204304D01*
X287118Y204192D01*
X287132Y204079D01*
X287142Y203966D01*
X287148Y203853D01*
X287150Y203740D01*
X287149Y203740D02*
X287149Y200495D01*
X287149Y204389D02*
X292342Y206986D01*
X292342Y211851D02*
X292342Y215096D01*
X292340Y215209D01*
X292334Y215322D01*
X292324Y215435D01*
X292310Y215548D01*
X292293Y215660D01*
X292271Y215771D01*
X292246Y215881D01*
X292216Y215991D01*
X292183Y216099D01*
X292146Y216206D01*
X292106Y216312D01*
X292061Y216416D01*
X292013Y216519D01*
X291962Y216620D01*
X291907Y216719D01*
X291849Y216816D01*
X291787Y216911D01*
X291722Y217004D01*
X291654Y217094D01*
X291583Y217182D01*
X291508Y217268D01*
X291431Y217351D01*
X291351Y217431D01*
X291268Y217508D01*
X291182Y217583D01*
X291094Y217654D01*
X291004Y217722D01*
X290911Y217787D01*
X290816Y217849D01*
X290719Y217907D01*
X290620Y217962D01*
X290519Y218013D01*
X290416Y218061D01*
X290312Y218106D01*
X290206Y218146D01*
X290099Y218183D01*
X289991Y218216D01*
X289881Y218246D01*
X289771Y218271D01*
X289660Y218293D01*
X289548Y218310D01*
X289435Y218324D01*
X289322Y218334D01*
X289209Y218340D01*
X289096Y218342D01*
X288983Y218340D01*
X288870Y218334D01*
X288757Y218324D01*
X288644Y218310D01*
X288532Y218293D01*
X288421Y218271D01*
X288311Y218246D01*
X288201Y218216D01*
X288093Y218183D01*
X287986Y218146D01*
X287880Y218106D01*
X287776Y218061D01*
X287673Y218013D01*
X287572Y217962D01*
X287473Y217907D01*
X287376Y217849D01*
X287281Y217787D01*
X287188Y217722D01*
X287098Y217654D01*
X287010Y217583D01*
X286924Y217508D01*
X286841Y217431D01*
X286761Y217351D01*
X286684Y217268D01*
X286609Y217182D01*
X286538Y217094D01*
X286470Y217004D01*
X286405Y216911D01*
X286343Y216816D01*
X286285Y216719D01*
X286230Y216620D01*
X286179Y216519D01*
X286131Y216416D01*
X286086Y216312D01*
X286046Y216206D01*
X286009Y216099D01*
X285976Y215991D01*
X285946Y215881D01*
X285921Y215771D01*
X285899Y215660D01*
X285882Y215548D01*
X285868Y215435D01*
X285858Y215322D01*
X285852Y215209D01*
X285850Y215096D01*
X280658Y215746D02*
X280658Y211851D01*
X280658Y215746D02*
X280660Y215847D01*
X280666Y215947D01*
X280676Y216047D01*
X280689Y216147D01*
X280707Y216246D01*
X280728Y216345D01*
X280753Y216442D01*
X280782Y216539D01*
X280815Y216634D01*
X280851Y216728D01*
X280891Y216820D01*
X280934Y216911D01*
X280981Y217000D01*
X281031Y217087D01*
X281085Y217173D01*
X281142Y217256D01*
X281202Y217336D01*
X281265Y217415D01*
X281332Y217491D01*
X281401Y217564D01*
X281473Y217634D01*
X281547Y217702D01*
X281624Y217767D01*
X281704Y217828D01*
X281786Y217887D01*
X281870Y217942D01*
X281956Y217994D01*
X282044Y218043D01*
X282134Y218088D01*
X282226Y218130D01*
X282319Y218168D01*
X282414Y218202D01*
X282509Y218233D01*
X282606Y218260D01*
X282704Y218283D01*
X282803Y218303D01*
X282903Y218318D01*
X283003Y218330D01*
X283103Y218338D01*
X283204Y218342D01*
X283304Y218342D01*
X283405Y218338D01*
X283505Y218330D01*
X283605Y218318D01*
X283705Y218303D01*
X283804Y218283D01*
X283902Y218260D01*
X283999Y218233D01*
X284094Y218202D01*
X284189Y218168D01*
X284282Y218130D01*
X284374Y218088D01*
X284464Y218043D01*
X284552Y217994D01*
X284638Y217942D01*
X284722Y217887D01*
X284804Y217828D01*
X284884Y217767D01*
X284961Y217702D01*
X285035Y217634D01*
X285107Y217564D01*
X285176Y217491D01*
X285243Y217415D01*
X285306Y217336D01*
X285366Y217256D01*
X285423Y217173D01*
X285477Y217087D01*
X285527Y217000D01*
X285574Y216911D01*
X285617Y216820D01*
X285657Y216728D01*
X285693Y216634D01*
X285726Y216539D01*
X285755Y216442D01*
X285780Y216345D01*
X285801Y216246D01*
X285819Y216147D01*
X285832Y216047D01*
X285842Y215947D01*
X285848Y215847D01*
X285850Y215746D01*
X285851Y215746D02*
X285851Y213149D01*
X217995Y61742D02*
X217995Y50058D01*
X217995Y61742D02*
X221240Y61742D01*
X221353Y61740D01*
X221466Y61734D01*
X221579Y61724D01*
X221692Y61710D01*
X221804Y61693D01*
X221915Y61671D01*
X222025Y61646D01*
X222135Y61616D01*
X222243Y61583D01*
X222350Y61546D01*
X222456Y61506D01*
X222560Y61461D01*
X222663Y61413D01*
X222764Y61362D01*
X222863Y61307D01*
X222960Y61249D01*
X223055Y61187D01*
X223148Y61122D01*
X223238Y61054D01*
X223326Y60983D01*
X223412Y60908D01*
X223495Y60831D01*
X223575Y60751D01*
X223652Y60668D01*
X223727Y60582D01*
X223798Y60494D01*
X223866Y60404D01*
X223931Y60311D01*
X223993Y60216D01*
X224051Y60119D01*
X224106Y60020D01*
X224157Y59919D01*
X224205Y59816D01*
X224250Y59712D01*
X224290Y59606D01*
X224327Y59499D01*
X224360Y59391D01*
X224390Y59281D01*
X224415Y59171D01*
X224437Y59060D01*
X224454Y58948D01*
X224468Y58835D01*
X224478Y58722D01*
X224484Y58609D01*
X224486Y58496D01*
X224484Y58383D01*
X224478Y58270D01*
X224468Y58157D01*
X224454Y58044D01*
X224437Y57932D01*
X224415Y57821D01*
X224390Y57711D01*
X224360Y57601D01*
X224327Y57493D01*
X224290Y57386D01*
X224250Y57280D01*
X224205Y57176D01*
X224157Y57073D01*
X224106Y56972D01*
X224051Y56873D01*
X223993Y56776D01*
X223931Y56681D01*
X223866Y56588D01*
X223798Y56498D01*
X223727Y56410D01*
X223652Y56324D01*
X223575Y56241D01*
X223495Y56161D01*
X223412Y56084D01*
X223326Y56009D01*
X223238Y55938D01*
X223148Y55870D01*
X223055Y55805D01*
X222960Y55743D01*
X222863Y55685D01*
X222764Y55630D01*
X222663Y55579D01*
X222560Y55531D01*
X222456Y55486D01*
X222350Y55446D01*
X222243Y55409D01*
X222135Y55376D01*
X222025Y55346D01*
X221915Y55321D01*
X221804Y55299D01*
X221692Y55282D01*
X221579Y55268D01*
X221466Y55258D01*
X221353Y55252D01*
X221240Y55250D01*
X221240Y55251D02*
X217995Y55251D01*
X221889Y55251D02*
X224486Y50058D01*
X229351Y52654D02*
X231947Y61742D01*
X229351Y52654D02*
X235842Y52654D01*
X233895Y55251D02*
X233895Y50058D01*
X234758Y204158D02*
X234758Y215842D01*
X238004Y215842D01*
X238117Y215840D01*
X238230Y215834D01*
X238343Y215824D01*
X238456Y215810D01*
X238568Y215793D01*
X238679Y215771D01*
X238789Y215746D01*
X238899Y215716D01*
X239007Y215683D01*
X239114Y215646D01*
X239220Y215606D01*
X239324Y215561D01*
X239427Y215513D01*
X239528Y215462D01*
X239627Y215407D01*
X239724Y215349D01*
X239819Y215287D01*
X239912Y215222D01*
X240002Y215154D01*
X240090Y215083D01*
X240176Y215008D01*
X240259Y214931D01*
X240339Y214851D01*
X240416Y214768D01*
X240491Y214682D01*
X240562Y214594D01*
X240630Y214504D01*
X240695Y214411D01*
X240757Y214316D01*
X240815Y214219D01*
X240870Y214120D01*
X240921Y214019D01*
X240969Y213916D01*
X241014Y213812D01*
X241054Y213706D01*
X241091Y213599D01*
X241124Y213491D01*
X241154Y213381D01*
X241179Y213271D01*
X241201Y213160D01*
X241218Y213048D01*
X241232Y212935D01*
X241242Y212822D01*
X241248Y212709D01*
X241250Y212596D01*
X241248Y212483D01*
X241242Y212370D01*
X241232Y212257D01*
X241218Y212144D01*
X241201Y212032D01*
X241179Y211921D01*
X241154Y211811D01*
X241124Y211701D01*
X241091Y211593D01*
X241054Y211486D01*
X241014Y211380D01*
X240969Y211276D01*
X240921Y211173D01*
X240870Y211072D01*
X240815Y210973D01*
X240757Y210876D01*
X240695Y210781D01*
X240630Y210688D01*
X240562Y210598D01*
X240491Y210510D01*
X240416Y210424D01*
X240339Y210341D01*
X240259Y210261D01*
X240176Y210184D01*
X240090Y210109D01*
X240002Y210038D01*
X239912Y209970D01*
X239819Y209905D01*
X239724Y209843D01*
X239627Y209785D01*
X239528Y209730D01*
X239427Y209679D01*
X239324Y209631D01*
X239220Y209586D01*
X239114Y209546D01*
X239007Y209509D01*
X238899Y209476D01*
X238789Y209446D01*
X238679Y209421D01*
X238568Y209399D01*
X238456Y209382D01*
X238343Y209368D01*
X238230Y209358D01*
X238117Y209352D01*
X238004Y209350D01*
X238004Y209351D02*
X234758Y209351D01*
X238653Y209351D02*
X241249Y204158D01*
X246114Y204158D02*
X250009Y204158D01*
X250108Y204160D01*
X250208Y204166D01*
X250307Y204175D01*
X250405Y204188D01*
X250503Y204205D01*
X250601Y204226D01*
X250697Y204251D01*
X250792Y204279D01*
X250886Y204311D01*
X250979Y204346D01*
X251071Y204385D01*
X251161Y204428D01*
X251249Y204473D01*
X251336Y204523D01*
X251420Y204575D01*
X251503Y204631D01*
X251583Y204689D01*
X251661Y204751D01*
X251736Y204816D01*
X251809Y204884D01*
X251879Y204954D01*
X251947Y205027D01*
X252012Y205102D01*
X252074Y205180D01*
X252132Y205260D01*
X252188Y205343D01*
X252240Y205427D01*
X252290Y205514D01*
X252335Y205602D01*
X252378Y205692D01*
X252417Y205784D01*
X252452Y205877D01*
X252484Y205971D01*
X252512Y206066D01*
X252537Y206162D01*
X252558Y206260D01*
X252575Y206358D01*
X252588Y206456D01*
X252597Y206555D01*
X252603Y206655D01*
X252605Y206754D01*
X252605Y208053D01*
X252603Y208152D01*
X252597Y208252D01*
X252588Y208351D01*
X252575Y208449D01*
X252558Y208547D01*
X252537Y208645D01*
X252512Y208741D01*
X252484Y208836D01*
X252452Y208930D01*
X252417Y209023D01*
X252378Y209115D01*
X252335Y209205D01*
X252290Y209293D01*
X252240Y209380D01*
X252188Y209464D01*
X252132Y209547D01*
X252074Y209627D01*
X252012Y209705D01*
X251947Y209780D01*
X251879Y209853D01*
X251809Y209923D01*
X251736Y209991D01*
X251661Y210056D01*
X251583Y210118D01*
X251503Y210176D01*
X251420Y210232D01*
X251336Y210284D01*
X251249Y210334D01*
X251161Y210379D01*
X251071Y210422D01*
X250979Y210461D01*
X250886Y210496D01*
X250792Y210528D01*
X250697Y210556D01*
X250601Y210581D01*
X250503Y210602D01*
X250405Y210619D01*
X250307Y210632D01*
X250208Y210641D01*
X250108Y210647D01*
X250009Y210649D01*
X246114Y210649D01*
X246114Y215842D01*
X252605Y215842D01*
X292695Y115242D02*
X292695Y103558D01*
X292695Y115242D02*
X295940Y115242D01*
X296053Y115240D01*
X296166Y115234D01*
X296279Y115224D01*
X296392Y115210D01*
X296504Y115193D01*
X296615Y115171D01*
X296725Y115146D01*
X296835Y115116D01*
X296943Y115083D01*
X297050Y115046D01*
X297156Y115006D01*
X297260Y114961D01*
X297363Y114913D01*
X297464Y114862D01*
X297563Y114807D01*
X297660Y114749D01*
X297755Y114687D01*
X297848Y114622D01*
X297938Y114554D01*
X298026Y114483D01*
X298112Y114408D01*
X298195Y114331D01*
X298275Y114251D01*
X298352Y114168D01*
X298427Y114082D01*
X298498Y113994D01*
X298566Y113904D01*
X298631Y113811D01*
X298693Y113716D01*
X298751Y113619D01*
X298806Y113520D01*
X298857Y113419D01*
X298905Y113316D01*
X298950Y113212D01*
X298990Y113106D01*
X299027Y112999D01*
X299060Y112891D01*
X299090Y112781D01*
X299115Y112671D01*
X299137Y112560D01*
X299154Y112448D01*
X299168Y112335D01*
X299178Y112222D01*
X299184Y112109D01*
X299186Y111996D01*
X299184Y111883D01*
X299178Y111770D01*
X299168Y111657D01*
X299154Y111544D01*
X299137Y111432D01*
X299115Y111321D01*
X299090Y111211D01*
X299060Y111101D01*
X299027Y110993D01*
X298990Y110886D01*
X298950Y110780D01*
X298905Y110676D01*
X298857Y110573D01*
X298806Y110472D01*
X298751Y110373D01*
X298693Y110276D01*
X298631Y110181D01*
X298566Y110088D01*
X298498Y109998D01*
X298427Y109910D01*
X298352Y109824D01*
X298275Y109741D01*
X298195Y109661D01*
X298112Y109584D01*
X298026Y109509D01*
X297938Y109438D01*
X297848Y109370D01*
X297755Y109305D01*
X297660Y109243D01*
X297563Y109185D01*
X297464Y109130D01*
X297363Y109079D01*
X297260Y109031D01*
X297156Y108986D01*
X297050Y108946D01*
X296943Y108909D01*
X296835Y108876D01*
X296725Y108846D01*
X296615Y108821D01*
X296504Y108799D01*
X296392Y108782D01*
X296279Y108768D01*
X296166Y108758D01*
X296053Y108752D01*
X295940Y108750D01*
X295940Y108751D02*
X292695Y108751D01*
X296589Y108751D02*
X299186Y103558D01*
X304051Y110049D02*
X307946Y110049D01*
X308045Y110047D01*
X308145Y110041D01*
X308244Y110032D01*
X308342Y110019D01*
X308440Y110002D01*
X308538Y109981D01*
X308634Y109956D01*
X308729Y109928D01*
X308823Y109896D01*
X308916Y109861D01*
X309008Y109822D01*
X309098Y109779D01*
X309186Y109734D01*
X309273Y109684D01*
X309357Y109632D01*
X309440Y109576D01*
X309520Y109518D01*
X309598Y109456D01*
X309673Y109391D01*
X309746Y109323D01*
X309816Y109253D01*
X309884Y109180D01*
X309949Y109105D01*
X310011Y109027D01*
X310069Y108947D01*
X310125Y108864D01*
X310177Y108780D01*
X310227Y108693D01*
X310272Y108605D01*
X310315Y108515D01*
X310354Y108423D01*
X310389Y108330D01*
X310421Y108236D01*
X310449Y108141D01*
X310474Y108045D01*
X310495Y107947D01*
X310512Y107849D01*
X310525Y107751D01*
X310534Y107652D01*
X310540Y107552D01*
X310542Y107453D01*
X310542Y106804D01*
X310540Y106691D01*
X310534Y106578D01*
X310524Y106465D01*
X310510Y106352D01*
X310493Y106240D01*
X310471Y106129D01*
X310446Y106019D01*
X310416Y105909D01*
X310383Y105801D01*
X310346Y105694D01*
X310306Y105588D01*
X310261Y105484D01*
X310213Y105381D01*
X310162Y105280D01*
X310107Y105181D01*
X310049Y105084D01*
X309987Y104989D01*
X309922Y104896D01*
X309854Y104806D01*
X309783Y104718D01*
X309708Y104632D01*
X309631Y104549D01*
X309551Y104469D01*
X309468Y104392D01*
X309382Y104317D01*
X309294Y104246D01*
X309204Y104178D01*
X309111Y104113D01*
X309016Y104051D01*
X308919Y103993D01*
X308820Y103938D01*
X308719Y103887D01*
X308616Y103839D01*
X308512Y103794D01*
X308406Y103754D01*
X308299Y103717D01*
X308191Y103684D01*
X308081Y103654D01*
X307971Y103629D01*
X307860Y103607D01*
X307748Y103590D01*
X307635Y103576D01*
X307522Y103566D01*
X307409Y103560D01*
X307296Y103558D01*
X307183Y103560D01*
X307070Y103566D01*
X306957Y103576D01*
X306844Y103590D01*
X306732Y103607D01*
X306621Y103629D01*
X306511Y103654D01*
X306401Y103684D01*
X306293Y103717D01*
X306186Y103754D01*
X306080Y103794D01*
X305976Y103839D01*
X305873Y103887D01*
X305772Y103938D01*
X305673Y103993D01*
X305576Y104051D01*
X305481Y104113D01*
X305388Y104178D01*
X305298Y104246D01*
X305210Y104317D01*
X305124Y104392D01*
X305041Y104469D01*
X304961Y104549D01*
X304884Y104632D01*
X304809Y104718D01*
X304738Y104806D01*
X304670Y104896D01*
X304605Y104989D01*
X304543Y105084D01*
X304485Y105181D01*
X304430Y105280D01*
X304379Y105381D01*
X304331Y105484D01*
X304286Y105588D01*
X304246Y105694D01*
X304209Y105801D01*
X304176Y105909D01*
X304146Y106019D01*
X304121Y106129D01*
X304099Y106240D01*
X304082Y106352D01*
X304068Y106465D01*
X304058Y106578D01*
X304052Y106691D01*
X304050Y106804D01*
X304051Y106804D02*
X304051Y110049D01*
X304053Y110192D01*
X304059Y110335D01*
X304069Y110478D01*
X304083Y110620D01*
X304100Y110762D01*
X304122Y110904D01*
X304147Y111045D01*
X304177Y111185D01*
X304210Y111324D01*
X304247Y111462D01*
X304288Y111599D01*
X304332Y111735D01*
X304381Y111870D01*
X304433Y112003D01*
X304488Y112135D01*
X304548Y112265D01*
X304611Y112394D01*
X304677Y112521D01*
X304747Y112645D01*
X304820Y112768D01*
X304897Y112889D01*
X304977Y113008D01*
X305060Y113124D01*
X305146Y113239D01*
X305235Y113350D01*
X305328Y113460D01*
X305423Y113566D01*
X305522Y113670D01*
X305623Y113771D01*
X305727Y113870D01*
X305833Y113965D01*
X305943Y114058D01*
X306054Y114147D01*
X306169Y114233D01*
X306285Y114316D01*
X306404Y114396D01*
X306525Y114473D01*
X306647Y114546D01*
X306772Y114616D01*
X306899Y114682D01*
X307028Y114745D01*
X307158Y114805D01*
X307290Y114860D01*
X307423Y114912D01*
X307558Y114961D01*
X307694Y115005D01*
X307831Y115046D01*
X307969Y115083D01*
X308108Y115116D01*
X308248Y115146D01*
X308389Y115171D01*
X308531Y115193D01*
X308673Y115210D01*
X308815Y115224D01*
X308958Y115234D01*
X309101Y115240D01*
X309244Y115242D01*
X179995Y241458D02*
X179995Y253142D01*
X183240Y253142D01*
X183353Y253140D01*
X183466Y253134D01*
X183579Y253124D01*
X183692Y253110D01*
X183804Y253093D01*
X183915Y253071D01*
X184025Y253046D01*
X184135Y253016D01*
X184243Y252983D01*
X184350Y252946D01*
X184456Y252906D01*
X184560Y252861D01*
X184663Y252813D01*
X184764Y252762D01*
X184863Y252707D01*
X184960Y252649D01*
X185055Y252587D01*
X185148Y252522D01*
X185238Y252454D01*
X185326Y252383D01*
X185412Y252308D01*
X185495Y252231D01*
X185575Y252151D01*
X185652Y252068D01*
X185727Y251982D01*
X185798Y251894D01*
X185866Y251804D01*
X185931Y251711D01*
X185993Y251616D01*
X186051Y251519D01*
X186106Y251420D01*
X186157Y251319D01*
X186205Y251216D01*
X186250Y251112D01*
X186290Y251006D01*
X186327Y250899D01*
X186360Y250791D01*
X186390Y250681D01*
X186415Y250571D01*
X186437Y250460D01*
X186454Y250348D01*
X186468Y250235D01*
X186478Y250122D01*
X186484Y250009D01*
X186486Y249896D01*
X186484Y249783D01*
X186478Y249670D01*
X186468Y249557D01*
X186454Y249444D01*
X186437Y249332D01*
X186415Y249221D01*
X186390Y249111D01*
X186360Y249001D01*
X186327Y248893D01*
X186290Y248786D01*
X186250Y248680D01*
X186205Y248576D01*
X186157Y248473D01*
X186106Y248372D01*
X186051Y248273D01*
X185993Y248176D01*
X185931Y248081D01*
X185866Y247988D01*
X185798Y247898D01*
X185727Y247810D01*
X185652Y247724D01*
X185575Y247641D01*
X185495Y247561D01*
X185412Y247484D01*
X185326Y247409D01*
X185238Y247338D01*
X185148Y247270D01*
X185055Y247205D01*
X184960Y247143D01*
X184863Y247085D01*
X184764Y247030D01*
X184663Y246979D01*
X184560Y246931D01*
X184456Y246886D01*
X184350Y246846D01*
X184243Y246809D01*
X184135Y246776D01*
X184025Y246746D01*
X183915Y246721D01*
X183804Y246699D01*
X183692Y246682D01*
X183579Y246668D01*
X183466Y246658D01*
X183353Y246652D01*
X183240Y246650D01*
X183240Y246651D02*
X179995Y246651D01*
X183889Y246651D02*
X186486Y241458D01*
X191351Y251844D02*
X191351Y253142D01*
X197842Y253142D01*
X194596Y241458D01*
X175595Y181242D02*
X175595Y169558D01*
X175595Y181242D02*
X178840Y181242D01*
X178953Y181240D01*
X179066Y181234D01*
X179179Y181224D01*
X179292Y181210D01*
X179404Y181193D01*
X179515Y181171D01*
X179625Y181146D01*
X179735Y181116D01*
X179843Y181083D01*
X179950Y181046D01*
X180056Y181006D01*
X180160Y180961D01*
X180263Y180913D01*
X180364Y180862D01*
X180463Y180807D01*
X180560Y180749D01*
X180655Y180687D01*
X180748Y180622D01*
X180838Y180554D01*
X180926Y180483D01*
X181012Y180408D01*
X181095Y180331D01*
X181175Y180251D01*
X181252Y180168D01*
X181327Y180082D01*
X181398Y179994D01*
X181466Y179904D01*
X181531Y179811D01*
X181593Y179716D01*
X181651Y179619D01*
X181706Y179520D01*
X181757Y179419D01*
X181805Y179316D01*
X181850Y179212D01*
X181890Y179106D01*
X181927Y178999D01*
X181960Y178891D01*
X181990Y178781D01*
X182015Y178671D01*
X182037Y178560D01*
X182054Y178448D01*
X182068Y178335D01*
X182078Y178222D01*
X182084Y178109D01*
X182086Y177996D01*
X182084Y177883D01*
X182078Y177770D01*
X182068Y177657D01*
X182054Y177544D01*
X182037Y177432D01*
X182015Y177321D01*
X181990Y177211D01*
X181960Y177101D01*
X181927Y176993D01*
X181890Y176886D01*
X181850Y176780D01*
X181805Y176676D01*
X181757Y176573D01*
X181706Y176472D01*
X181651Y176373D01*
X181593Y176276D01*
X181531Y176181D01*
X181466Y176088D01*
X181398Y175998D01*
X181327Y175910D01*
X181252Y175824D01*
X181175Y175741D01*
X181095Y175661D01*
X181012Y175584D01*
X180926Y175509D01*
X180838Y175438D01*
X180748Y175370D01*
X180655Y175305D01*
X180560Y175243D01*
X180463Y175185D01*
X180364Y175130D01*
X180263Y175079D01*
X180160Y175031D01*
X180056Y174986D01*
X179950Y174946D01*
X179843Y174909D01*
X179735Y174876D01*
X179625Y174846D01*
X179515Y174821D01*
X179404Y174799D01*
X179292Y174782D01*
X179179Y174768D01*
X179066Y174758D01*
X178953Y174752D01*
X178840Y174750D01*
X178840Y174751D02*
X175595Y174751D01*
X179489Y174751D02*
X182086Y169558D01*
X186950Y172804D02*
X186952Y172917D01*
X186958Y173030D01*
X186968Y173143D01*
X186982Y173256D01*
X186999Y173368D01*
X187021Y173479D01*
X187046Y173589D01*
X187076Y173699D01*
X187109Y173807D01*
X187146Y173914D01*
X187186Y174020D01*
X187231Y174124D01*
X187279Y174227D01*
X187330Y174328D01*
X187385Y174427D01*
X187443Y174524D01*
X187505Y174619D01*
X187570Y174712D01*
X187638Y174802D01*
X187709Y174890D01*
X187784Y174976D01*
X187861Y175059D01*
X187941Y175139D01*
X188024Y175216D01*
X188110Y175291D01*
X188198Y175362D01*
X188288Y175430D01*
X188381Y175495D01*
X188476Y175557D01*
X188573Y175615D01*
X188672Y175670D01*
X188773Y175721D01*
X188876Y175769D01*
X188980Y175814D01*
X189086Y175854D01*
X189193Y175891D01*
X189301Y175924D01*
X189411Y175954D01*
X189521Y175979D01*
X189632Y176001D01*
X189744Y176018D01*
X189857Y176032D01*
X189970Y176042D01*
X190083Y176048D01*
X190196Y176050D01*
X190309Y176048D01*
X190422Y176042D01*
X190535Y176032D01*
X190648Y176018D01*
X190760Y176001D01*
X190871Y175979D01*
X190981Y175954D01*
X191091Y175924D01*
X191199Y175891D01*
X191306Y175854D01*
X191412Y175814D01*
X191516Y175769D01*
X191619Y175721D01*
X191720Y175670D01*
X191819Y175615D01*
X191916Y175557D01*
X192011Y175495D01*
X192104Y175430D01*
X192194Y175362D01*
X192282Y175291D01*
X192368Y175216D01*
X192451Y175139D01*
X192531Y175059D01*
X192608Y174976D01*
X192683Y174890D01*
X192754Y174802D01*
X192822Y174712D01*
X192887Y174619D01*
X192949Y174524D01*
X193007Y174427D01*
X193062Y174328D01*
X193113Y174227D01*
X193161Y174124D01*
X193206Y174020D01*
X193246Y173914D01*
X193283Y173807D01*
X193316Y173699D01*
X193346Y173589D01*
X193371Y173479D01*
X193393Y173368D01*
X193410Y173256D01*
X193424Y173143D01*
X193434Y173030D01*
X193440Y172917D01*
X193442Y172804D01*
X193440Y172691D01*
X193434Y172578D01*
X193424Y172465D01*
X193410Y172352D01*
X193393Y172240D01*
X193371Y172129D01*
X193346Y172019D01*
X193316Y171909D01*
X193283Y171801D01*
X193246Y171694D01*
X193206Y171588D01*
X193161Y171484D01*
X193113Y171381D01*
X193062Y171280D01*
X193007Y171181D01*
X192949Y171084D01*
X192887Y170989D01*
X192822Y170896D01*
X192754Y170806D01*
X192683Y170718D01*
X192608Y170632D01*
X192531Y170549D01*
X192451Y170469D01*
X192368Y170392D01*
X192282Y170317D01*
X192194Y170246D01*
X192104Y170178D01*
X192011Y170113D01*
X191916Y170051D01*
X191819Y169993D01*
X191720Y169938D01*
X191619Y169887D01*
X191516Y169839D01*
X191412Y169794D01*
X191306Y169754D01*
X191199Y169717D01*
X191091Y169684D01*
X190981Y169654D01*
X190871Y169629D01*
X190760Y169607D01*
X190648Y169590D01*
X190535Y169576D01*
X190422Y169566D01*
X190309Y169560D01*
X190196Y169558D01*
X190083Y169560D01*
X189970Y169566D01*
X189857Y169576D01*
X189744Y169590D01*
X189632Y169607D01*
X189521Y169629D01*
X189411Y169654D01*
X189301Y169684D01*
X189193Y169717D01*
X189086Y169754D01*
X188980Y169794D01*
X188876Y169839D01*
X188773Y169887D01*
X188672Y169938D01*
X188573Y169993D01*
X188476Y170051D01*
X188381Y170113D01*
X188288Y170178D01*
X188198Y170246D01*
X188110Y170317D01*
X188024Y170392D01*
X187941Y170469D01*
X187861Y170549D01*
X187784Y170632D01*
X187709Y170718D01*
X187638Y170806D01*
X187570Y170896D01*
X187505Y170989D01*
X187443Y171084D01*
X187385Y171181D01*
X187330Y171280D01*
X187279Y171381D01*
X187231Y171484D01*
X187186Y171588D01*
X187146Y171694D01*
X187109Y171801D01*
X187076Y171909D01*
X187046Y172019D01*
X187021Y172129D01*
X186999Y172240D01*
X186982Y172352D01*
X186968Y172465D01*
X186958Y172578D01*
X186952Y172691D01*
X186950Y172804D01*
X187600Y178646D02*
X187602Y178747D01*
X187608Y178847D01*
X187618Y178947D01*
X187631Y179047D01*
X187649Y179146D01*
X187670Y179245D01*
X187695Y179342D01*
X187724Y179439D01*
X187757Y179534D01*
X187793Y179628D01*
X187833Y179720D01*
X187876Y179811D01*
X187923Y179900D01*
X187973Y179987D01*
X188027Y180073D01*
X188084Y180156D01*
X188144Y180236D01*
X188207Y180315D01*
X188274Y180391D01*
X188343Y180464D01*
X188415Y180534D01*
X188489Y180602D01*
X188566Y180667D01*
X188646Y180728D01*
X188728Y180787D01*
X188812Y180842D01*
X188898Y180894D01*
X188986Y180943D01*
X189076Y180988D01*
X189168Y181030D01*
X189261Y181068D01*
X189356Y181102D01*
X189451Y181133D01*
X189548Y181160D01*
X189646Y181183D01*
X189745Y181203D01*
X189845Y181218D01*
X189945Y181230D01*
X190045Y181238D01*
X190146Y181242D01*
X190246Y181242D01*
X190347Y181238D01*
X190447Y181230D01*
X190547Y181218D01*
X190647Y181203D01*
X190746Y181183D01*
X190844Y181160D01*
X190941Y181133D01*
X191036Y181102D01*
X191131Y181068D01*
X191224Y181030D01*
X191316Y180988D01*
X191406Y180943D01*
X191494Y180894D01*
X191580Y180842D01*
X191664Y180787D01*
X191746Y180728D01*
X191826Y180667D01*
X191903Y180602D01*
X191977Y180534D01*
X192049Y180464D01*
X192118Y180391D01*
X192185Y180315D01*
X192248Y180236D01*
X192308Y180156D01*
X192365Y180073D01*
X192419Y179987D01*
X192469Y179900D01*
X192516Y179811D01*
X192559Y179720D01*
X192599Y179628D01*
X192635Y179534D01*
X192668Y179439D01*
X192697Y179342D01*
X192722Y179245D01*
X192743Y179146D01*
X192761Y179047D01*
X192774Y178947D01*
X192784Y178847D01*
X192790Y178747D01*
X192792Y178646D01*
X192790Y178545D01*
X192784Y178445D01*
X192774Y178345D01*
X192761Y178245D01*
X192743Y178146D01*
X192722Y178047D01*
X192697Y177950D01*
X192668Y177853D01*
X192635Y177758D01*
X192599Y177664D01*
X192559Y177572D01*
X192516Y177481D01*
X192469Y177392D01*
X192419Y177305D01*
X192365Y177219D01*
X192308Y177136D01*
X192248Y177056D01*
X192185Y176977D01*
X192118Y176901D01*
X192049Y176828D01*
X191977Y176758D01*
X191903Y176690D01*
X191826Y176625D01*
X191746Y176564D01*
X191664Y176505D01*
X191580Y176450D01*
X191494Y176398D01*
X191406Y176349D01*
X191316Y176304D01*
X191224Y176262D01*
X191131Y176224D01*
X191036Y176190D01*
X190941Y176159D01*
X190844Y176132D01*
X190746Y176109D01*
X190647Y176089D01*
X190547Y176074D01*
X190447Y176062D01*
X190347Y176054D01*
X190246Y176050D01*
X190146Y176050D01*
X190045Y176054D01*
X189945Y176062D01*
X189845Y176074D01*
X189745Y176089D01*
X189646Y176109D01*
X189548Y176132D01*
X189451Y176159D01*
X189356Y176190D01*
X189261Y176224D01*
X189168Y176262D01*
X189076Y176304D01*
X188986Y176349D01*
X188898Y176398D01*
X188812Y176450D01*
X188728Y176505D01*
X188646Y176564D01*
X188566Y176625D01*
X188489Y176690D01*
X188415Y176758D01*
X188343Y176828D01*
X188274Y176901D01*
X188207Y176977D01*
X188144Y177056D01*
X188084Y177136D01*
X188027Y177219D01*
X187973Y177305D01*
X187923Y177392D01*
X187876Y177481D01*
X187833Y177572D01*
X187793Y177664D01*
X187757Y177758D01*
X187724Y177853D01*
X187695Y177950D01*
X187670Y178047D01*
X187649Y178146D01*
X187631Y178245D01*
X187618Y178345D01*
X187608Y178445D01*
X187602Y178545D01*
X187600Y178646D01*
X100758Y240858D02*
X100758Y252542D01*
X104004Y252542D01*
X104117Y252540D01*
X104230Y252534D01*
X104343Y252524D01*
X104456Y252510D01*
X104568Y252493D01*
X104679Y252471D01*
X104789Y252446D01*
X104899Y252416D01*
X105007Y252383D01*
X105114Y252346D01*
X105220Y252306D01*
X105324Y252261D01*
X105427Y252213D01*
X105528Y252162D01*
X105627Y252107D01*
X105724Y252049D01*
X105819Y251987D01*
X105912Y251922D01*
X106002Y251854D01*
X106090Y251783D01*
X106176Y251708D01*
X106259Y251631D01*
X106339Y251551D01*
X106416Y251468D01*
X106491Y251382D01*
X106562Y251294D01*
X106630Y251204D01*
X106695Y251111D01*
X106757Y251016D01*
X106815Y250919D01*
X106870Y250820D01*
X106921Y250719D01*
X106969Y250616D01*
X107014Y250512D01*
X107054Y250406D01*
X107091Y250299D01*
X107124Y250191D01*
X107154Y250081D01*
X107179Y249971D01*
X107201Y249860D01*
X107218Y249748D01*
X107232Y249635D01*
X107242Y249522D01*
X107248Y249409D01*
X107250Y249296D01*
X107248Y249183D01*
X107242Y249070D01*
X107232Y248957D01*
X107218Y248844D01*
X107201Y248732D01*
X107179Y248621D01*
X107154Y248511D01*
X107124Y248401D01*
X107091Y248293D01*
X107054Y248186D01*
X107014Y248080D01*
X106969Y247976D01*
X106921Y247873D01*
X106870Y247772D01*
X106815Y247673D01*
X106757Y247576D01*
X106695Y247481D01*
X106630Y247388D01*
X106562Y247298D01*
X106491Y247210D01*
X106416Y247124D01*
X106339Y247041D01*
X106259Y246961D01*
X106176Y246884D01*
X106090Y246809D01*
X106002Y246738D01*
X105912Y246670D01*
X105819Y246605D01*
X105724Y246543D01*
X105627Y246485D01*
X105528Y246430D01*
X105427Y246379D01*
X105324Y246331D01*
X105220Y246286D01*
X105114Y246246D01*
X105007Y246209D01*
X104899Y246176D01*
X104789Y246146D01*
X104679Y246121D01*
X104568Y246099D01*
X104456Y246082D01*
X104343Y246068D01*
X104230Y246058D01*
X104117Y246052D01*
X104004Y246050D01*
X104004Y246051D02*
X100758Y246051D01*
X104653Y246051D02*
X107249Y240858D01*
X114711Y246051D02*
X118605Y246051D01*
X114711Y246051D02*
X114612Y246053D01*
X114512Y246059D01*
X114413Y246068D01*
X114315Y246081D01*
X114217Y246098D01*
X114119Y246119D01*
X114023Y246144D01*
X113928Y246172D01*
X113834Y246204D01*
X113741Y246239D01*
X113649Y246278D01*
X113559Y246321D01*
X113471Y246366D01*
X113384Y246416D01*
X113300Y246468D01*
X113217Y246524D01*
X113137Y246582D01*
X113059Y246644D01*
X112984Y246709D01*
X112911Y246777D01*
X112841Y246847D01*
X112773Y246920D01*
X112708Y246995D01*
X112646Y247073D01*
X112588Y247153D01*
X112532Y247236D01*
X112480Y247320D01*
X112430Y247407D01*
X112385Y247495D01*
X112342Y247585D01*
X112303Y247677D01*
X112268Y247770D01*
X112236Y247864D01*
X112208Y247959D01*
X112183Y248055D01*
X112162Y248153D01*
X112145Y248251D01*
X112132Y248349D01*
X112123Y248448D01*
X112117Y248548D01*
X112115Y248647D01*
X112114Y248647D02*
X112114Y249296D01*
X112116Y249409D01*
X112122Y249522D01*
X112132Y249635D01*
X112146Y249748D01*
X112163Y249860D01*
X112185Y249971D01*
X112210Y250081D01*
X112240Y250191D01*
X112273Y250299D01*
X112310Y250406D01*
X112350Y250512D01*
X112395Y250616D01*
X112443Y250719D01*
X112494Y250820D01*
X112549Y250919D01*
X112607Y251016D01*
X112669Y251111D01*
X112734Y251204D01*
X112802Y251294D01*
X112873Y251382D01*
X112948Y251468D01*
X113025Y251551D01*
X113105Y251631D01*
X113188Y251708D01*
X113274Y251783D01*
X113362Y251854D01*
X113452Y251922D01*
X113545Y251987D01*
X113640Y252049D01*
X113737Y252107D01*
X113836Y252162D01*
X113937Y252213D01*
X114040Y252261D01*
X114144Y252306D01*
X114250Y252346D01*
X114357Y252383D01*
X114465Y252416D01*
X114575Y252446D01*
X114685Y252471D01*
X114796Y252493D01*
X114908Y252510D01*
X115021Y252524D01*
X115134Y252534D01*
X115247Y252540D01*
X115360Y252542D01*
X115473Y252540D01*
X115586Y252534D01*
X115699Y252524D01*
X115812Y252510D01*
X115924Y252493D01*
X116035Y252471D01*
X116145Y252446D01*
X116255Y252416D01*
X116363Y252383D01*
X116470Y252346D01*
X116576Y252306D01*
X116680Y252261D01*
X116783Y252213D01*
X116884Y252162D01*
X116983Y252107D01*
X117080Y252049D01*
X117175Y251987D01*
X117268Y251922D01*
X117358Y251854D01*
X117446Y251783D01*
X117532Y251708D01*
X117615Y251631D01*
X117695Y251551D01*
X117772Y251468D01*
X117847Y251382D01*
X117918Y251294D01*
X117986Y251204D01*
X118051Y251111D01*
X118113Y251016D01*
X118171Y250919D01*
X118226Y250820D01*
X118277Y250719D01*
X118325Y250616D01*
X118370Y250512D01*
X118410Y250406D01*
X118447Y250299D01*
X118480Y250191D01*
X118510Y250081D01*
X118535Y249971D01*
X118557Y249860D01*
X118574Y249748D01*
X118588Y249635D01*
X118598Y249522D01*
X118604Y249409D01*
X118606Y249296D01*
X118605Y249296D02*
X118605Y246051D01*
X118606Y246051D02*
X118604Y245908D01*
X118598Y245765D01*
X118588Y245622D01*
X118574Y245480D01*
X118557Y245338D01*
X118535Y245196D01*
X118510Y245055D01*
X118480Y244915D01*
X118447Y244776D01*
X118410Y244638D01*
X118369Y244501D01*
X118325Y244365D01*
X118276Y244230D01*
X118224Y244097D01*
X118169Y243965D01*
X118109Y243835D01*
X118046Y243706D01*
X117980Y243579D01*
X117910Y243454D01*
X117837Y243332D01*
X117760Y243211D01*
X117680Y243092D01*
X117597Y242976D01*
X117511Y242861D01*
X117422Y242750D01*
X117329Y242640D01*
X117234Y242534D01*
X117135Y242430D01*
X117034Y242329D01*
X116930Y242230D01*
X116824Y242135D01*
X116714Y242042D01*
X116603Y241953D01*
X116488Y241867D01*
X116372Y241784D01*
X116253Y241704D01*
X116132Y241627D01*
X116009Y241554D01*
X115885Y241484D01*
X115758Y241418D01*
X115629Y241355D01*
X115499Y241295D01*
X115367Y241240D01*
X115234Y241188D01*
X115099Y241139D01*
X114963Y241095D01*
X114826Y241054D01*
X114688Y241017D01*
X114549Y240984D01*
X114409Y240954D01*
X114268Y240929D01*
X114126Y240907D01*
X113984Y240890D01*
X113842Y240876D01*
X113699Y240866D01*
X113556Y240860D01*
X113413Y240858D01*
D11*
X230475Y17335D02*
X233650Y17335D01*
X233761Y17337D01*
X233871Y17343D01*
X233982Y17352D01*
X234092Y17366D01*
X234201Y17383D01*
X234310Y17404D01*
X234418Y17429D01*
X234525Y17458D01*
X234631Y17490D01*
X234736Y17526D01*
X234839Y17566D01*
X234941Y17609D01*
X235042Y17656D01*
X235141Y17707D01*
X235237Y17760D01*
X235332Y17817D01*
X235425Y17878D01*
X235516Y17941D01*
X235605Y18008D01*
X235691Y18078D01*
X235774Y18151D01*
X235856Y18226D01*
X235934Y18304D01*
X236009Y18386D01*
X236082Y18469D01*
X236152Y18555D01*
X236219Y18644D01*
X236282Y18735D01*
X236343Y18828D01*
X236400Y18922D01*
X236453Y19019D01*
X236504Y19118D01*
X236551Y19219D01*
X236594Y19321D01*
X236634Y19424D01*
X236670Y19529D01*
X236702Y19635D01*
X236731Y19742D01*
X236756Y19850D01*
X236777Y19959D01*
X236794Y20068D01*
X236808Y20178D01*
X236817Y20289D01*
X236823Y20399D01*
X236825Y20510D01*
X236823Y20621D01*
X236817Y20731D01*
X236808Y20842D01*
X236794Y20952D01*
X236777Y21061D01*
X236756Y21170D01*
X236731Y21278D01*
X236702Y21385D01*
X236670Y21491D01*
X236634Y21596D01*
X236594Y21699D01*
X236551Y21801D01*
X236504Y21902D01*
X236453Y22001D01*
X236400Y22097D01*
X236343Y22192D01*
X236282Y22285D01*
X236219Y22376D01*
X236152Y22465D01*
X236082Y22551D01*
X236009Y22634D01*
X235934Y22716D01*
X235856Y22794D01*
X235774Y22869D01*
X235691Y22942D01*
X235605Y23012D01*
X235516Y23079D01*
X235425Y23142D01*
X235332Y23203D01*
X235238Y23260D01*
X235141Y23313D01*
X235042Y23364D01*
X234941Y23411D01*
X234839Y23454D01*
X234736Y23494D01*
X234631Y23530D01*
X234525Y23562D01*
X234418Y23591D01*
X234310Y23616D01*
X234201Y23637D01*
X234092Y23654D01*
X233982Y23668D01*
X233871Y23677D01*
X233761Y23683D01*
X233650Y23685D01*
X234285Y28765D02*
X230475Y28765D01*
X234285Y28765D02*
X234385Y28763D01*
X234484Y28757D01*
X234584Y28747D01*
X234682Y28734D01*
X234781Y28716D01*
X234878Y28695D01*
X234974Y28670D01*
X235070Y28641D01*
X235164Y28608D01*
X235257Y28572D01*
X235348Y28532D01*
X235438Y28488D01*
X235526Y28441D01*
X235612Y28391D01*
X235696Y28337D01*
X235778Y28280D01*
X235857Y28220D01*
X235935Y28156D01*
X236009Y28090D01*
X236081Y28021D01*
X236150Y27949D01*
X236216Y27875D01*
X236280Y27797D01*
X236340Y27718D01*
X236397Y27636D01*
X236451Y27552D01*
X236501Y27466D01*
X236548Y27378D01*
X236592Y27288D01*
X236632Y27197D01*
X236668Y27104D01*
X236701Y27010D01*
X236730Y26914D01*
X236755Y26818D01*
X236776Y26721D01*
X236794Y26622D01*
X236807Y26524D01*
X236817Y26424D01*
X236823Y26325D01*
X236825Y26225D01*
X236823Y26125D01*
X236817Y26026D01*
X236807Y25926D01*
X236794Y25828D01*
X236776Y25729D01*
X236755Y25632D01*
X236730Y25536D01*
X236701Y25440D01*
X236668Y25346D01*
X236632Y25253D01*
X236592Y25162D01*
X236548Y25072D01*
X236501Y24984D01*
X236451Y24898D01*
X236397Y24814D01*
X236340Y24732D01*
X236280Y24653D01*
X236216Y24575D01*
X236150Y24501D01*
X236081Y24429D01*
X236009Y24360D01*
X235935Y24294D01*
X235857Y24230D01*
X235778Y24170D01*
X235696Y24113D01*
X235612Y24059D01*
X235526Y24009D01*
X235438Y23962D01*
X235348Y23918D01*
X235257Y23878D01*
X235164Y23842D01*
X235070Y23809D01*
X234974Y23780D01*
X234878Y23755D01*
X234781Y23734D01*
X234682Y23716D01*
X234584Y23703D01*
X234484Y23693D01*
X234385Y23687D01*
X234285Y23685D01*
X231745Y23685D01*
X241270Y28765D02*
X245080Y17335D01*
X248890Y28765D01*
X100095Y17780D02*
X92475Y17780D01*
X105302Y13335D02*
X108477Y13335D01*
X108588Y13337D01*
X108698Y13343D01*
X108809Y13352D01*
X108919Y13366D01*
X109028Y13383D01*
X109137Y13404D01*
X109245Y13429D01*
X109352Y13458D01*
X109458Y13490D01*
X109563Y13526D01*
X109666Y13566D01*
X109768Y13609D01*
X109869Y13656D01*
X109968Y13707D01*
X110064Y13760D01*
X110159Y13817D01*
X110252Y13878D01*
X110343Y13941D01*
X110432Y14008D01*
X110518Y14078D01*
X110601Y14151D01*
X110683Y14226D01*
X110761Y14304D01*
X110836Y14386D01*
X110909Y14469D01*
X110979Y14555D01*
X111046Y14644D01*
X111109Y14735D01*
X111170Y14828D01*
X111227Y14922D01*
X111280Y15019D01*
X111331Y15118D01*
X111378Y15219D01*
X111421Y15321D01*
X111461Y15424D01*
X111497Y15529D01*
X111529Y15635D01*
X111558Y15742D01*
X111583Y15850D01*
X111604Y15959D01*
X111621Y16068D01*
X111635Y16178D01*
X111644Y16289D01*
X111650Y16399D01*
X111652Y16510D01*
X111650Y16621D01*
X111644Y16731D01*
X111635Y16842D01*
X111621Y16952D01*
X111604Y17061D01*
X111583Y17170D01*
X111558Y17278D01*
X111529Y17385D01*
X111497Y17491D01*
X111461Y17596D01*
X111421Y17699D01*
X111378Y17801D01*
X111331Y17902D01*
X111280Y18001D01*
X111227Y18097D01*
X111170Y18192D01*
X111109Y18285D01*
X111046Y18376D01*
X110979Y18465D01*
X110909Y18551D01*
X110836Y18634D01*
X110761Y18716D01*
X110683Y18794D01*
X110601Y18869D01*
X110518Y18942D01*
X110432Y19012D01*
X110343Y19079D01*
X110252Y19142D01*
X110159Y19203D01*
X110065Y19260D01*
X109968Y19313D01*
X109869Y19364D01*
X109768Y19411D01*
X109666Y19454D01*
X109563Y19494D01*
X109458Y19530D01*
X109352Y19562D01*
X109245Y19591D01*
X109137Y19616D01*
X109028Y19637D01*
X108919Y19654D01*
X108809Y19668D01*
X108698Y19677D01*
X108588Y19683D01*
X108477Y19685D01*
X109112Y24765D02*
X105302Y24765D01*
X109112Y24765D02*
X109212Y24763D01*
X109311Y24757D01*
X109411Y24747D01*
X109509Y24734D01*
X109608Y24716D01*
X109705Y24695D01*
X109801Y24670D01*
X109897Y24641D01*
X109991Y24608D01*
X110084Y24572D01*
X110175Y24532D01*
X110265Y24488D01*
X110353Y24441D01*
X110439Y24391D01*
X110523Y24337D01*
X110605Y24280D01*
X110684Y24220D01*
X110762Y24156D01*
X110836Y24090D01*
X110908Y24021D01*
X110977Y23949D01*
X111043Y23875D01*
X111107Y23797D01*
X111167Y23718D01*
X111224Y23636D01*
X111278Y23552D01*
X111328Y23466D01*
X111375Y23378D01*
X111419Y23288D01*
X111459Y23197D01*
X111495Y23104D01*
X111528Y23010D01*
X111557Y22914D01*
X111582Y22818D01*
X111603Y22721D01*
X111621Y22622D01*
X111634Y22524D01*
X111644Y22424D01*
X111650Y22325D01*
X111652Y22225D01*
X111650Y22125D01*
X111644Y22026D01*
X111634Y21926D01*
X111621Y21828D01*
X111603Y21729D01*
X111582Y21632D01*
X111557Y21536D01*
X111528Y21440D01*
X111495Y21346D01*
X111459Y21253D01*
X111419Y21162D01*
X111375Y21072D01*
X111328Y20984D01*
X111278Y20898D01*
X111224Y20814D01*
X111167Y20732D01*
X111107Y20653D01*
X111043Y20575D01*
X110977Y20501D01*
X110908Y20429D01*
X110836Y20360D01*
X110762Y20294D01*
X110684Y20230D01*
X110605Y20170D01*
X110523Y20113D01*
X110439Y20059D01*
X110353Y20009D01*
X110265Y19962D01*
X110175Y19918D01*
X110084Y19878D01*
X109991Y19842D01*
X109897Y19809D01*
X109801Y19780D01*
X109705Y19755D01*
X109608Y19734D01*
X109509Y19716D01*
X109411Y19703D01*
X109311Y19693D01*
X109212Y19687D01*
X109112Y19685D01*
X106572Y19685D01*
X116097Y24765D02*
X119907Y13335D01*
X123717Y24765D01*
D10*
X57995Y271458D02*
X57995Y283142D01*
X61240Y283142D01*
X61353Y283140D01*
X61466Y283134D01*
X61579Y283124D01*
X61692Y283110D01*
X61804Y283093D01*
X61915Y283071D01*
X62025Y283046D01*
X62135Y283016D01*
X62243Y282983D01*
X62350Y282946D01*
X62456Y282906D01*
X62560Y282861D01*
X62663Y282813D01*
X62764Y282762D01*
X62863Y282707D01*
X62960Y282649D01*
X63055Y282587D01*
X63148Y282522D01*
X63238Y282454D01*
X63326Y282383D01*
X63412Y282308D01*
X63495Y282231D01*
X63575Y282151D01*
X63652Y282068D01*
X63727Y281982D01*
X63798Y281894D01*
X63866Y281804D01*
X63931Y281711D01*
X63993Y281616D01*
X64051Y281519D01*
X64106Y281420D01*
X64157Y281319D01*
X64205Y281216D01*
X64250Y281112D01*
X64290Y281006D01*
X64327Y280899D01*
X64360Y280791D01*
X64390Y280681D01*
X64415Y280571D01*
X64437Y280460D01*
X64454Y280348D01*
X64468Y280235D01*
X64478Y280122D01*
X64484Y280009D01*
X64486Y279896D01*
X64484Y279783D01*
X64478Y279670D01*
X64468Y279557D01*
X64454Y279444D01*
X64437Y279332D01*
X64415Y279221D01*
X64390Y279111D01*
X64360Y279001D01*
X64327Y278893D01*
X64290Y278786D01*
X64250Y278680D01*
X64205Y278576D01*
X64157Y278473D01*
X64106Y278372D01*
X64051Y278273D01*
X63993Y278176D01*
X63931Y278081D01*
X63866Y277988D01*
X63798Y277898D01*
X63727Y277810D01*
X63652Y277724D01*
X63575Y277641D01*
X63495Y277561D01*
X63412Y277484D01*
X63326Y277409D01*
X63238Y277338D01*
X63148Y277270D01*
X63055Y277205D01*
X62960Y277143D01*
X62863Y277085D01*
X62764Y277030D01*
X62663Y276979D01*
X62560Y276931D01*
X62456Y276886D01*
X62350Y276846D01*
X62243Y276809D01*
X62135Y276776D01*
X62025Y276746D01*
X61915Y276721D01*
X61804Y276699D01*
X61692Y276682D01*
X61579Y276668D01*
X61466Y276658D01*
X61353Y276652D01*
X61240Y276650D01*
X61240Y276651D02*
X57995Y276651D01*
X61889Y276651D02*
X64486Y271458D01*
X69351Y280546D02*
X72596Y283142D01*
X72596Y271458D01*
X69351Y271458D02*
X75842Y271458D01*
M02*
