%TF.GenerationSoftware,KiCad,Pcbnew,7.0.9-7.0.9~ubuntu22.04.1*%
%TF.CreationDate,2023-12-31T14:54:58+00:00*%
%TF.ProjectId,IMU_BNO085,494d555f-424e-44f3-9038-352e6b696361,rev?*%
%TF.SameCoordinates,Original*%
%TF.FileFunction,Paste,Top*%
%TF.FilePolarity,Positive*%
%FSLAX46Y46*%
G04 Gerber Fmt 4.6, Leading zero omitted, Abs format (unit mm)*
G04 Created by KiCad (PCBNEW 7.0.9-7.0.9~ubuntu22.04.1) date 2023-12-31 14:54:58*
%MOMM*%
%LPD*%
G01*
G04 APERTURE LIST*
G04 Aperture macros list*
%AMRoundRect*
0 Rectangle with rounded corners*
0 $1 Rounding radius*
0 $2 $3 $4 $5 $6 $7 $8 $9 X,Y pos of 4 corners*
0 Add a 4 corners polygon primitive as box body*
4,1,4,$2,$3,$4,$5,$6,$7,$8,$9,$2,$3,0*
0 Add four circle primitives for the rounded corners*
1,1,$1+$1,$2,$3*
1,1,$1+$1,$4,$5*
1,1,$1+$1,$6,$7*
1,1,$1+$1,$8,$9*
0 Add four rect primitives between the rounded corners*
20,1,$1+$1,$2,$3,$4,$5,0*
20,1,$1+$1,$4,$5,$6,$7,0*
20,1,$1+$1,$6,$7,$8,$9,0*
20,1,$1+$1,$8,$9,$2,$3,0*%
G04 Aperture macros list end*
%ADD10RoundRect,0.135000X0.135000X0.185000X-0.135000X0.185000X-0.135000X-0.185000X0.135000X-0.185000X0*%
%ADD11RoundRect,0.135000X-0.185000X0.135000X-0.185000X-0.135000X0.185000X-0.135000X0.185000X0.135000X0*%
%ADD12RoundRect,0.135000X-0.135000X-0.185000X0.135000X-0.185000X0.135000X0.185000X-0.135000X0.185000X0*%
%ADD13R,0.500000X0.300000*%
%ADD14R,0.300000X0.500000*%
%ADD15RoundRect,0.140000X0.170000X-0.140000X0.170000X0.140000X-0.170000X0.140000X-0.170000X-0.140000X0*%
%ADD16RoundRect,0.140000X-0.170000X0.140000X-0.170000X-0.140000X0.170000X-0.140000X0.170000X0.140000X0*%
%ADD17RoundRect,0.140000X0.140000X0.170000X-0.140000X0.170000X-0.140000X-0.170000X0.140000X-0.170000X0*%
%ADD18RoundRect,0.135000X0.185000X-0.135000X0.185000X0.135000X-0.185000X0.135000X-0.185000X-0.135000X0*%
%ADD19R,1.800000X1.000000*%
G04 APERTURE END LIST*
D10*
%TO.C,R3*%
X112790000Y-97400000D03*
X113810000Y-97400000D03*
%TD*%
%TO.C,R5*%
X114690000Y-104700000D03*
X115710000Y-104700000D03*
%TD*%
D11*
%TO.C,R6*%
X111000000Y-103110000D03*
X111000000Y-102090000D03*
%TD*%
D12*
%TO.C,R2*%
X111710000Y-97410000D03*
X110690000Y-97410000D03*
%TD*%
D13*
%TO.C,U1*%
X115562500Y-99250000D03*
X115562500Y-99750000D03*
X115562500Y-100250000D03*
X115562500Y-100750000D03*
X115562500Y-101250000D03*
X115562500Y-101750000D03*
X115562500Y-102250000D03*
X115562500Y-102750000D03*
X115562500Y-103250000D03*
D14*
X114750000Y-103262500D03*
X114250000Y-103262500D03*
X113750000Y-103262500D03*
X113250000Y-103262500D03*
D13*
X112437500Y-103250000D03*
X112437500Y-102750000D03*
X112437500Y-102250000D03*
X112437500Y-101750000D03*
X112437500Y-101250000D03*
X112437500Y-100750000D03*
X112437500Y-100250000D03*
X112437500Y-99750000D03*
X112437500Y-99250000D03*
X112437500Y-98750000D03*
D14*
X113250000Y-98737500D03*
X113750000Y-98737500D03*
X114250000Y-98737500D03*
X114750000Y-98737500D03*
D13*
X115562500Y-98750000D03*
%TD*%
D15*
%TO.C,C2*%
X111000000Y-98520000D03*
X111000000Y-99480000D03*
%TD*%
D16*
%TO.C,C3*%
X119500000Y-97540000D03*
X119500000Y-98500000D03*
%TD*%
D17*
%TO.C,C1*%
X114920000Y-97400000D03*
X115880000Y-97400000D03*
%TD*%
D15*
%TO.C,C4*%
X119500000Y-100460000D03*
X119500000Y-99500000D03*
%TD*%
D18*
%TO.C,R4*%
X117000000Y-102490000D03*
X117000000Y-103510000D03*
%TD*%
D19*
%TO.C,Y1*%
X117700000Y-100250000D03*
X117700000Y-97750000D03*
%TD*%
D12*
%TO.C,R1*%
X113710000Y-104700000D03*
X112690000Y-104700000D03*
%TD*%
M02*
