%TF.GenerationSoftware,KiCad,Pcbnew,7.0.9-7.0.9~ubuntu22.04.1*%
%TF.CreationDate,2023-12-31T14:54:58+00:00*%
%TF.ProjectId,IMU_BNO085,494d555f-424e-44f3-9038-352e6b696361,rev?*%
%TF.SameCoordinates,Original*%
%TF.FileFunction,Copper,L1,Top*%
%TF.FilePolarity,Positive*%
%FSLAX46Y46*%
G04 Gerber Fmt 4.6, Leading zero omitted, Abs format (unit mm)*
G04 Created by KiCad (PCBNEW 7.0.9-7.0.9~ubuntu22.04.1) date 2023-12-31 14:54:58*
%MOMM*%
%LPD*%
G01*
G04 APERTURE LIST*
G04 Aperture macros list*
%AMRoundRect*
0 Rectangle with rounded corners*
0 $1 Rounding radius*
0 $2 $3 $4 $5 $6 $7 $8 $9 X,Y pos of 4 corners*
0 Add a 4 corners polygon primitive as box body*
4,1,4,$2,$3,$4,$5,$6,$7,$8,$9,$2,$3,0*
0 Add four circle primitives for the rounded corners*
1,1,$1+$1,$2,$3*
1,1,$1+$1,$4,$5*
1,1,$1+$1,$6,$7*
1,1,$1+$1,$8,$9*
0 Add four rect primitives between the rounded corners*
20,1,$1+$1,$2,$3,$4,$5,0*
20,1,$1+$1,$4,$5,$6,$7,0*
20,1,$1+$1,$6,$7,$8,$9,0*
20,1,$1+$1,$8,$9,$2,$3,0*%
G04 Aperture macros list end*
%TA.AperFunction,SMDPad,CuDef*%
%ADD10C,1.000000*%
%TD*%
%TA.AperFunction,ComponentPad*%
%ADD11R,1.000000X1.000000*%
%TD*%
%TA.AperFunction,SMDPad,CuDef*%
%ADD12RoundRect,0.135000X0.135000X0.185000X-0.135000X0.185000X-0.135000X-0.185000X0.135000X-0.185000X0*%
%TD*%
%TA.AperFunction,SMDPad,CuDef*%
%ADD13RoundRect,0.135000X-0.185000X0.135000X-0.185000X-0.135000X0.185000X-0.135000X0.185000X0.135000X0*%
%TD*%
%TA.AperFunction,SMDPad,CuDef*%
%ADD14RoundRect,0.135000X-0.135000X-0.185000X0.135000X-0.185000X0.135000X0.185000X-0.135000X0.185000X0*%
%TD*%
%TA.AperFunction,SMDPad,CuDef*%
%ADD15R,0.500000X0.300000*%
%TD*%
%TA.AperFunction,SMDPad,CuDef*%
%ADD16R,0.300000X0.500000*%
%TD*%
%TA.AperFunction,SMDPad,CuDef*%
%ADD17RoundRect,0.140000X0.170000X-0.140000X0.170000X0.140000X-0.170000X0.140000X-0.170000X-0.140000X0*%
%TD*%
%TA.AperFunction,SMDPad,CuDef*%
%ADD18RoundRect,0.140000X-0.170000X0.140000X-0.170000X-0.140000X0.170000X-0.140000X0.170000X0.140000X0*%
%TD*%
%TA.AperFunction,SMDPad,CuDef*%
%ADD19RoundRect,0.140000X0.140000X0.170000X-0.140000X0.170000X-0.140000X-0.170000X0.140000X-0.170000X0*%
%TD*%
%TA.AperFunction,SMDPad,CuDef*%
%ADD20RoundRect,0.135000X0.185000X-0.135000X0.185000X0.135000X-0.185000X0.135000X-0.185000X-0.135000X0*%
%TD*%
%TA.AperFunction,SMDPad,CuDef*%
%ADD21R,1.800000X1.000000*%
%TD*%
%TA.AperFunction,ViaPad*%
%ADD22C,0.400000*%
%TD*%
%TA.AperFunction,Conductor*%
%ADD23C,0.150000*%
%TD*%
G04 APERTURE END LIST*
D10*
%TO.P,TP2,1,1*%
%TO.N,/INT*%
X111000000Y-104500000D03*
%TD*%
%TO.P,TP1,1,1*%
%TO.N,/BL_IND*%
X111000000Y-100800000D03*
%TD*%
D11*
%TO.P,J10,1,Pin_1*%
%TO.N,unconnected-(J10-Pin_1-Pad1)*%
X123215000Y-95500000D03*
%TD*%
%TO.P,J19,1,Pin_1*%
%TO.N,GND*%
X118995000Y-102000000D03*
%TD*%
%TO.P,J17,1,Pin_1*%
%TO.N,unconnected-(J17-Pin_1-Pad1)*%
X118135000Y-95500000D03*
%TD*%
%TO.P,J9,1,Pin_1*%
%TO.N,unconnected-(J9-Pin_1-Pad1)*%
X121535000Y-103270000D03*
%TD*%
%TO.P,J12,1,Pin_1*%
%TO.N,unconnected-(J12-Pin_1-Pad1)*%
X120265000Y-103270000D03*
%TD*%
%TO.P,J6,1,Pin_1*%
%TO.N,unconnected-(J6-Pin_1-Pad1)*%
X121535000Y-102000000D03*
%TD*%
%TO.P,J8,1,Pin_1*%
%TO.N,unconnected-(J8-Pin_1-Pad1)*%
X124075000Y-102000000D03*
%TD*%
%TO.P,J18,1,Pin_1*%
%TO.N,unconnected-(J18-Pin_1-Pad1)*%
X119405000Y-95500000D03*
%TD*%
%TO.P,J5,1,Pin_1*%
%TO.N,unconnected-(J5-Pin_1-Pad1)*%
X120265000Y-102000000D03*
%TD*%
%TO.P,J1,1,Pin_1*%
%TO.N,+3.3V*%
X113055000Y-95500000D03*
%TD*%
%TO.P,J4,1,Pin_1*%
%TO.N,GND*%
X114325000Y-95500000D03*
%TD*%
%TO.P,J15,1,Pin_1*%
%TO.N,unconnected-(J15-Pin_1-Pad1)*%
X111785000Y-95500000D03*
%TD*%
%TO.P,J11,1,Pin_1*%
%TO.N,unconnected-(J11-Pin_1-Pad1)*%
X118995000Y-103270000D03*
%TD*%
%TO.P,J16,1,Pin_1*%
%TO.N,unconnected-(J16-Pin_1-Pad1)*%
X116865000Y-95500000D03*
%TD*%
%TO.P,J7,1,Pin_1*%
%TO.N,unconnected-(J7-Pin_1-Pad1)*%
X122805000Y-102000000D03*
%TD*%
%TO.P,J13,1,Pin_1*%
%TO.N,unconnected-(J13-Pin_1-Pad1)*%
X120675000Y-95500000D03*
%TD*%
%TO.P,J2,1,Pin_1*%
%TO.N,/SDA*%
X124075000Y-103270000D03*
%TD*%
%TO.P,J14,1,Pin_1*%
%TO.N,unconnected-(J14-Pin_1-Pad1)*%
X121945000Y-95500000D03*
%TD*%
%TO.P,J3,1,Pin_1*%
%TO.N,/SCL*%
X122805000Y-103270000D03*
%TD*%
D12*
%TO.P,R3,2*%
%TO.N,/PS1*%
X112790000Y-97400000D03*
%TO.P,R3,1*%
%TO.N,GND*%
X113810000Y-97400000D03*
%TD*%
%TO.P,R5,2*%
%TO.N,+3.3V*%
X114690000Y-104700000D03*
%TO.P,R5,1*%
%TO.N,/SCL*%
X115710000Y-104700000D03*
%TD*%
D13*
%TO.P,R6,2*%
%TO.N,/nRESET*%
X111000000Y-103110000D03*
%TO.P,R6,1*%
%TO.N,+3.3V*%
X111000000Y-102090000D03*
%TD*%
D14*
%TO.P,R2,2*%
%TO.N,/PS0*%
X111710000Y-97410000D03*
%TO.P,R2,1*%
%TO.N,GND*%
X110690000Y-97410000D03*
%TD*%
D15*
%TO.P,U1,28,VDDIO*%
%TO.N,+3.3V*%
X115562500Y-99250000D03*
%TO.P,U1,27,XIN32*%
%TO.N,/X_IN*%
X115562500Y-99750000D03*
%TO.P,U1,26,XOUT32*%
%TO.N,/X_OUT*%
X115562500Y-100250000D03*
%TO.P,U1,25,GNDIO*%
%TO.N,GND*%
X115562500Y-100750000D03*
%TO.P,U1,24,PIN24*%
%TO.N,unconnected-(U1-PIN24-Pad24)*%
X115562500Y-101250000D03*
%TO.P,U1,23,PIN23*%
%TO.N,unconnected-(U1-PIN23-Pad23)*%
X115562500Y-101750000D03*
%TO.P,U1,22,PIN22*%
%TO.N,unconnected-(U1-PIN22-Pad22)*%
X115562500Y-102250000D03*
%TO.P,U1,21,PIN21*%
%TO.N,unconnected-(U1-PIN21-Pad21)*%
X115562500Y-102750000D03*
%TO.P,U1,20,COM0*%
%TO.N,/SDA*%
X115562500Y-103250000D03*
D16*
%TO.P,U1,19,COM1*%
%TO.N,/SCL*%
X114750000Y-103262500D03*
%TO.P,U1,18,COM2*%
%TO.N,GND*%
X114250000Y-103262500D03*
%TO.P,U1,17,COM3*%
%TO.N,/I2C_ADD*%
X113750000Y-103262500D03*
%TO.P,U1,16,PIN16*%
%TO.N,unconnected-(U1-PIN16-Pad16)*%
X113250000Y-103262500D03*
D15*
%TO.P,U1,15,PIN15*%
%TO.N,unconnected-(U1-PIN15-Pad15)*%
X112437500Y-103250000D03*
%TO.P,U1,14,INT*%
%TO.N,/INT*%
X112437500Y-102750000D03*
%TO.P,U1,13,PIN13*%
%TO.N,unconnected-(U1-PIN13-Pad13)*%
X112437500Y-102250000D03*
%TO.P,U1,12,PIN12*%
%TO.N,unconnected-(U1-PIN12-Pad12)*%
X112437500Y-101750000D03*
%TO.P,U1,11,RESET*%
%TO.N,/nRESET*%
X112437500Y-101250000D03*
%TO.P,U1,10,BL_IND*%
%TO.N,/BL_IND*%
X112437500Y-100750000D03*
%TO.P,U1,9,CAP*%
%TO.N,/CAP*%
X112437500Y-100250000D03*
%TO.P,U1,8,PIN8*%
%TO.N,unconnected-(U1-PIN8-Pad8)*%
X112437500Y-99750000D03*
%TO.P,U1,7,PIN7*%
%TO.N,unconnected-(U1-PIN7-Pad7)*%
X112437500Y-99250000D03*
%TO.P,U1,6,PS0*%
%TO.N,/PS0*%
X112437500Y-98750000D03*
D16*
%TO.P,U1,5,PS1*%
%TO.N,/PS1*%
X113250000Y-98737500D03*
%TO.P,U1,4,BOOT_LOAD*%
%TO.N,+3.3V*%
X113750000Y-98737500D03*
%TO.P,U1,3,VDD*%
X114250000Y-98737500D03*
%TO.P,U1,2,GND*%
%TO.N,GND*%
X114750000Y-98737500D03*
D15*
%TO.P,U1,1,PIN1*%
%TO.N,unconnected-(U1-PIN1-Pad1)*%
X115562500Y-98750000D03*
%TD*%
D17*
%TO.P,C2,2*%
%TO.N,GND*%
X111000000Y-98520000D03*
%TO.P,C2,1*%
%TO.N,/CAP*%
X111000000Y-99480000D03*
%TD*%
D18*
%TO.P,C3,1*%
%TO.N,/X_IN*%
X119500000Y-97540000D03*
%TO.P,C3,2*%
%TO.N,GND*%
X119500000Y-98500000D03*
%TD*%
D19*
%TO.P,C1,2*%
%TO.N,+3.3V*%
X114920000Y-97400000D03*
%TO.P,C1,1*%
%TO.N,GND*%
X115880000Y-97400000D03*
%TD*%
D17*
%TO.P,C4,1*%
%TO.N,/X_OUT*%
X119500000Y-100460000D03*
%TO.P,C4,2*%
%TO.N,GND*%
X119500000Y-99500000D03*
%TD*%
D20*
%TO.P,R4,2*%
%TO.N,+3.3V*%
X117000000Y-102490000D03*
%TO.P,R4,1*%
%TO.N,/SDA*%
X117000000Y-103510000D03*
%TD*%
D21*
%TO.P,Y1,1,1*%
%TO.N,/X_OUT*%
X117700000Y-100250000D03*
%TO.P,Y1,2,2*%
%TO.N,/X_IN*%
X117700000Y-97750000D03*
%TD*%
D14*
%TO.P,R1,2*%
%TO.N,GND*%
X113710000Y-104700000D03*
%TO.P,R1,1*%
%TO.N,/I2C_ADD*%
X112690000Y-104700000D03*
%TD*%
D22*
%TO.N,/PS1*%
X113300000Y-99600000D03*
%TO.N,/PS0*%
X111700000Y-98200000D03*
%TO.N,/I2C_ADD*%
X112500000Y-104000000D03*
%TO.N,/nRESET*%
X111485000Y-102625000D03*
%TO.N,GND*%
X114000000Y-101000000D03*
X114000000Y-102000000D03*
%TO.N,+3.3V*%
X116800000Y-101800000D03*
X114800000Y-104000000D03*
X114000000Y-99600000D03*
X110500000Y-101700000D03*
%TO.N,/SDA*%
X117700000Y-104100000D03*
%TD*%
D23*
%TO.N,/PS1*%
X113300000Y-99600000D02*
X113300000Y-98787500D01*
X113300000Y-98787500D02*
X113250000Y-98737500D01*
%TO.N,/PS0*%
X111700000Y-98200000D02*
X111887500Y-98200000D01*
X111887500Y-98200000D02*
X112437500Y-98750000D01*
%TO.N,/I2C_ADD*%
X112690000Y-104190000D02*
X112500000Y-104000000D01*
X112690000Y-104700000D02*
X112690000Y-104190000D01*
%TO.N,/nRESET*%
X111000000Y-103110000D02*
X111485000Y-102625000D01*
%TO.N,GND*%
X114250000Y-101750000D02*
X114250000Y-101662500D01*
X114000000Y-102000000D02*
X114250000Y-101750000D01*
X114250000Y-102250000D02*
X114000000Y-102000000D01*
X114250000Y-103262500D02*
X114250000Y-102250000D01*
X114250000Y-101662500D02*
X115162500Y-100750000D01*
X115162500Y-100750000D02*
X115562500Y-100750000D01*
X115562500Y-100750000D02*
X116351041Y-100750000D01*
X116351041Y-100750000D02*
X117601041Y-102000000D01*
X117601041Y-102000000D02*
X118995000Y-102000000D01*
%TO.N,+3.3V*%
X117000000Y-102000000D02*
X116800000Y-101800000D01*
X117000000Y-102490000D02*
X117000000Y-102000000D01*
X114690000Y-104110000D02*
X114800000Y-104000000D01*
X114690000Y-104700000D02*
X114690000Y-104110000D01*
X115562500Y-99250000D02*
X114350000Y-99250000D01*
X114350000Y-99250000D02*
X114250000Y-99350000D01*
X114250000Y-98737500D02*
X114250000Y-99350000D01*
X114250000Y-99350000D02*
X114000000Y-99600000D01*
X113750000Y-98737500D02*
X113750000Y-99350000D01*
X113750000Y-99350000D02*
X114000000Y-99600000D01*
X111000000Y-102090000D02*
X110890000Y-102090000D01*
X110890000Y-102090000D02*
X110500000Y-101700000D01*
%TO.N,GND*%
X110690000Y-97410000D02*
X110690000Y-98210000D01*
X110690000Y-98210000D02*
X111000000Y-98520000D01*
X114325000Y-95500000D02*
X114325000Y-96885000D01*
X114325000Y-96885000D02*
X114285000Y-96925000D01*
X110690000Y-97410000D02*
X111185000Y-96915000D01*
X111185000Y-96915000D02*
X113325000Y-96915000D01*
X113325000Y-96915000D02*
X113810000Y-97400000D01*
%TO.N,/PS1*%
X112790000Y-97400000D02*
X112790000Y-98277500D01*
X112790000Y-98277500D02*
X113250000Y-98737500D01*
%TO.N,GND*%
X113810000Y-97400000D02*
X114285000Y-96925000D01*
X114285000Y-96925000D02*
X115405000Y-96925000D01*
X115405000Y-96925000D02*
X115880000Y-97400000D01*
%TO.N,+3.3V*%
X114920000Y-97400000D02*
X114250000Y-98070000D01*
X114250000Y-98070000D02*
X114250000Y-98737500D01*
%TO.N,GND*%
X115880000Y-97400000D02*
X115880000Y-97607500D01*
X115880000Y-97607500D02*
X114750000Y-98737500D01*
X119500000Y-99500000D02*
X119500000Y-98500000D01*
%TO.N,/X_OUT*%
X119500000Y-100460000D02*
X117910000Y-100460000D01*
X117910000Y-100460000D02*
X117700000Y-100250000D01*
%TO.N,/X_IN*%
X119500000Y-97540000D02*
X117910000Y-97540000D01*
X117910000Y-97540000D02*
X117700000Y-97750000D01*
X115562500Y-99750000D02*
X116450000Y-99750000D01*
X116450000Y-99750000D02*
X117700000Y-98500000D01*
X117700000Y-98500000D02*
X117700000Y-97750000D01*
%TO.N,/X_OUT*%
X117700000Y-100250000D02*
X115562500Y-100250000D01*
%TO.N,/SDA*%
X117000000Y-103510000D02*
X115822500Y-103510000D01*
X115822500Y-103510000D02*
X115562500Y-103250000D01*
X117110000Y-103510000D02*
X117700000Y-104100000D01*
X117000000Y-103510000D02*
X117110000Y-103510000D01*
%TO.N,/SCL*%
X122805000Y-103270000D02*
X121375000Y-104700000D01*
X121375000Y-104700000D02*
X115710000Y-104700000D01*
X115710000Y-104700000D02*
X115710000Y-104222500D01*
X115710000Y-104222500D02*
X114750000Y-103262500D01*
%TO.N,GND*%
X113710000Y-104700000D02*
X114250000Y-104160000D01*
X114250000Y-104160000D02*
X114250000Y-103262500D01*
%TO.N,/I2C_ADD*%
X112690000Y-104700000D02*
X113750000Y-103640000D01*
X113750000Y-103640000D02*
X113750000Y-103262500D01*
%TO.N,/nRESET*%
X112437500Y-101250000D02*
X112285000Y-101250000D01*
X112285000Y-101250000D02*
X111485000Y-102050000D01*
X111485000Y-102050000D02*
X111485000Y-102625000D01*
%TO.N,/INT*%
X111000000Y-104500000D02*
X111000000Y-103957500D01*
X111000000Y-103957500D02*
X112207500Y-102750000D01*
X112207500Y-102750000D02*
X112437500Y-102750000D01*
%TO.N,/PS0*%
X112437500Y-98750000D02*
X112437500Y-98137500D01*
X112437500Y-98137500D02*
X111710000Y-97410000D01*
%TO.N,/CAP*%
X112437500Y-100250000D02*
X111770000Y-100250000D01*
X111770000Y-100250000D02*
X111000000Y-99480000D01*
%TO.N,/BL_IND*%
X112437500Y-100750000D02*
X111050000Y-100750000D01*
X111050000Y-100750000D02*
X111000000Y-100800000D01*
%TD*%
%TA.AperFunction,Conductor*%
%TO.N,GND*%
G36*
X114772246Y-99963692D02*
G01*
X114808064Y-100023683D01*
X114812000Y-100054679D01*
X114812000Y-100447869D01*
X114812001Y-100447880D01*
X114816431Y-100489093D01*
X114816431Y-100515596D01*
X114812500Y-100552165D01*
X114812500Y-100600000D01*
X114828111Y-100615611D01*
X114841984Y-100619685D01*
X114874213Y-100649690D01*
X114893676Y-100675690D01*
X114918092Y-100741155D01*
X114903240Y-100809428D01*
X114893676Y-100824310D01*
X114874213Y-100850310D01*
X114826390Y-100886109D01*
X114812500Y-100900000D01*
X114812500Y-100947832D01*
X114816431Y-100984399D01*
X114816431Y-101010905D01*
X114812000Y-101052122D01*
X114812000Y-101447869D01*
X114812001Y-101447878D01*
X114816179Y-101486745D01*
X114816179Y-101513250D01*
X114812000Y-101552122D01*
X114812000Y-101947869D01*
X114812001Y-101947878D01*
X114816179Y-101986745D01*
X114816179Y-102013250D01*
X114812000Y-102052122D01*
X114812000Y-102388000D01*
X114792315Y-102455039D01*
X114739511Y-102500794D01*
X114688001Y-102512000D01*
X114552132Y-102512000D01*
X114552117Y-102512001D01*
X114510904Y-102516431D01*
X114484402Y-102516431D01*
X114447834Y-102512500D01*
X114400000Y-102512500D01*
X114384388Y-102528111D01*
X114380315Y-102541985D01*
X114350313Y-102574210D01*
X114324308Y-102593677D01*
X114258845Y-102618093D01*
X114190572Y-102603241D01*
X114175694Y-102593679D01*
X114149688Y-102574211D01*
X114113887Y-102526387D01*
X114100000Y-102512500D01*
X114052165Y-102512500D01*
X114015598Y-102516431D01*
X113989092Y-102516431D01*
X113947873Y-102512000D01*
X113552130Y-102512000D01*
X113552119Y-102512001D01*
X113513253Y-102516179D01*
X113486748Y-102516179D01*
X113447875Y-102512000D01*
X113447873Y-102512000D01*
X113312000Y-102512000D01*
X113244961Y-102492315D01*
X113199206Y-102439511D01*
X113188000Y-102388000D01*
X113187999Y-102052128D01*
X113187998Y-102052111D01*
X113183820Y-102013253D01*
X113183820Y-101986745D01*
X113188000Y-101947873D01*
X113187999Y-101552128D01*
X113187999Y-101552127D01*
X113187998Y-101552111D01*
X113183820Y-101513253D01*
X113183820Y-101486745D01*
X113188000Y-101447873D01*
X113187999Y-101052128D01*
X113187999Y-101052127D01*
X113187998Y-101052111D01*
X113183820Y-101013253D01*
X113183820Y-100986747D01*
X113188000Y-100947873D01*
X113187999Y-100552128D01*
X113187998Y-100552111D01*
X113183820Y-100513253D01*
X113183820Y-100486747D01*
X113188000Y-100447873D01*
X113188000Y-100424500D01*
X113207685Y-100357461D01*
X113260489Y-100311706D01*
X113312000Y-100300500D01*
X113385056Y-100300500D01*
X113550225Y-100259790D01*
X113592374Y-100237667D01*
X113660881Y-100223942D01*
X113707624Y-100237667D01*
X113749775Y-100259790D01*
X113914944Y-100300500D01*
X114085056Y-100300500D01*
X114250225Y-100259790D01*
X114350001Y-100207423D01*
X114400849Y-100180736D01*
X114400850Y-100180734D01*
X114400852Y-100180734D01*
X114528183Y-100067929D01*
X114585950Y-99984238D01*
X114640233Y-99940249D01*
X114709681Y-99932589D01*
X114772246Y-99963692D01*
G37*
%TD.AperFunction*%
%TA.AperFunction,Conductor*%
G36*
X117945675Y-101270184D02*
G01*
X117991430Y-101322988D01*
X118001925Y-101387755D01*
X117995000Y-101452155D01*
X117995000Y-101750000D01*
X118780517Y-101750000D01*
X118709199Y-101834993D01*
X118670000Y-101942694D01*
X118670000Y-102057306D01*
X118709199Y-102165007D01*
X118780517Y-102250000D01*
X117986879Y-102250000D01*
X117943443Y-102273717D01*
X117873751Y-102268731D01*
X117817818Y-102226859D01*
X117798011Y-102187145D01*
X117772870Y-102100611D01*
X117772869Y-102100607D01*
X117691135Y-101962402D01*
X117577598Y-101848865D01*
X117577595Y-101848863D01*
X117572082Y-101843350D01*
X117572940Y-101842491D01*
X117539551Y-101798737D01*
X117520481Y-101752697D01*
X117499589Y-101702258D01*
X117501051Y-101701652D01*
X117489503Y-101667065D01*
X117485140Y-101631128D01*
X117424817Y-101472068D01*
X117406091Y-101444939D01*
X117384208Y-101378584D01*
X117401674Y-101310933D01*
X117452941Y-101263463D01*
X117508141Y-101250499D01*
X117878636Y-101250499D01*
X117945675Y-101270184D01*
G37*
%TD.AperFunction*%
%TA.AperFunction,Conductor*%
G36*
X124002694Y-94010735D02*
G01*
X124161019Y-94024587D01*
X124182297Y-94028338D01*
X124327951Y-94067366D01*
X124348261Y-94074759D01*
X124484915Y-94138482D01*
X124503633Y-94149289D01*
X124627154Y-94235779D01*
X124643712Y-94249673D01*
X124750326Y-94356287D01*
X124764220Y-94372845D01*
X124850710Y-94496366D01*
X124861517Y-94515084D01*
X124925240Y-94651738D01*
X124932633Y-94672049D01*
X124971659Y-94817696D01*
X124975412Y-94838982D01*
X124989264Y-94997300D01*
X124989500Y-95002706D01*
X124989500Y-100941825D01*
X124969815Y-101008864D01*
X124917011Y-101054619D01*
X124847853Y-101064563D01*
X124822167Y-101058007D01*
X124682482Y-101005908D01*
X124682483Y-101005908D01*
X124622883Y-100999501D01*
X124622881Y-100999500D01*
X124622873Y-100999500D01*
X124622864Y-100999500D01*
X123527129Y-100999500D01*
X123527123Y-100999501D01*
X123459804Y-101006738D01*
X123459690Y-101005674D01*
X123420310Y-101005674D01*
X123420196Y-101006738D01*
X123352883Y-100999501D01*
X123352881Y-100999500D01*
X123352873Y-100999500D01*
X123352864Y-100999500D01*
X122257129Y-100999500D01*
X122257123Y-100999501D01*
X122189804Y-101006738D01*
X122189690Y-101005674D01*
X122150310Y-101005674D01*
X122150196Y-101006738D01*
X122082883Y-100999501D01*
X122082881Y-100999500D01*
X122082873Y-100999500D01*
X122082864Y-100999500D01*
X120987129Y-100999500D01*
X120987123Y-100999501D01*
X120919804Y-101006738D01*
X120919690Y-101005674D01*
X120880310Y-101005674D01*
X120880196Y-101006738D01*
X120812883Y-100999501D01*
X120812881Y-100999500D01*
X120812873Y-100999500D01*
X120812865Y-100999500D01*
X120386071Y-100999500D01*
X120319032Y-100979815D01*
X120273277Y-100927011D01*
X120263333Y-100857853D01*
X120266995Y-100840905D01*
X120307642Y-100700997D01*
X120307643Y-100700991D01*
X120310500Y-100664692D01*
X120310500Y-100255308D01*
X120307643Y-100219008D01*
X120307642Y-100219002D01*
X120274131Y-100103660D01*
X120262494Y-100063605D01*
X120250089Y-100042630D01*
X120232906Y-99974909D01*
X120250091Y-99916384D01*
X120262032Y-99896194D01*
X120304504Y-99750000D01*
X119998352Y-99750000D01*
X119935233Y-99732732D01*
X119926395Y-99727506D01*
X119926393Y-99727505D01*
X119926389Y-99727503D01*
X119770997Y-99682357D01*
X119770991Y-99682356D01*
X119734692Y-99679500D01*
X119734690Y-99679500D01*
X119374000Y-99679500D01*
X119306961Y-99659815D01*
X119261206Y-99607011D01*
X119250000Y-99555500D01*
X119250000Y-98750000D01*
X119750000Y-98750000D01*
X119750000Y-99250000D01*
X120304504Y-99250000D01*
X120262031Y-99103803D01*
X120237972Y-99063123D01*
X120220788Y-98995399D01*
X120237972Y-98936877D01*
X120262031Y-98896196D01*
X120304504Y-98750000D01*
X119750000Y-98750000D01*
X119250000Y-98750000D01*
X119250000Y-98444500D01*
X119269685Y-98377461D01*
X119322489Y-98331706D01*
X119374000Y-98320500D01*
X119734692Y-98320500D01*
X119752841Y-98319071D01*
X119770993Y-98317643D01*
X119770995Y-98317642D01*
X119770997Y-98317642D01*
X119926389Y-98272496D01*
X119926389Y-98272495D01*
X119926395Y-98272494D01*
X119935233Y-98267267D01*
X119998352Y-98250000D01*
X120304504Y-98250000D01*
X120262031Y-98103803D01*
X120250090Y-98083613D01*
X120232906Y-98015889D01*
X120250089Y-97957369D01*
X120262494Y-97936395D01*
X120307643Y-97780993D01*
X120310500Y-97744690D01*
X120310500Y-97335310D01*
X120307643Y-97299007D01*
X120262494Y-97143605D01*
X120180117Y-97004313D01*
X120180115Y-97004311D01*
X120180112Y-97004307D01*
X120065692Y-96889887D01*
X120065684Y-96889881D01*
X119971723Y-96834313D01*
X119926395Y-96807506D01*
X119926394Y-96807505D01*
X119926393Y-96807505D01*
X119926390Y-96807504D01*
X119770997Y-96762357D01*
X119770991Y-96762356D01*
X119734692Y-96759500D01*
X119734690Y-96759500D01*
X119265310Y-96759500D01*
X119265308Y-96759500D01*
X119229008Y-96762356D01*
X119229002Y-96762357D01*
X119073609Y-96807504D01*
X119073608Y-96807504D01*
X119073605Y-96807506D01*
X119016577Y-96841231D01*
X118948855Y-96858413D01*
X118882593Y-96836252D01*
X118879148Y-96833765D01*
X118842331Y-96806204D01*
X118842328Y-96806202D01*
X118707482Y-96755908D01*
X118707483Y-96755908D01*
X118647883Y-96749501D01*
X118647881Y-96749500D01*
X118647873Y-96749500D01*
X118647864Y-96749500D01*
X116752129Y-96749500D01*
X116752123Y-96749501D01*
X116692516Y-96755908D01*
X116591278Y-96793668D01*
X116521586Y-96798652D01*
X116460263Y-96765167D01*
X116460263Y-96765166D01*
X116409861Y-96714763D01*
X116411474Y-96713150D01*
X116377303Y-96665831D01*
X116373516Y-96596064D01*
X116408050Y-96535325D01*
X116469939Y-96502898D01*
X116494203Y-96500499D01*
X117412872Y-96500499D01*
X117460759Y-96495351D01*
X117480197Y-96493262D01*
X117480311Y-96494330D01*
X117519688Y-96494329D01*
X117519803Y-96493261D01*
X117527514Y-96494089D01*
X117527517Y-96494091D01*
X117587127Y-96500500D01*
X118682872Y-96500499D01*
X118730759Y-96495351D01*
X118750197Y-96493262D01*
X118750311Y-96494330D01*
X118789688Y-96494329D01*
X118789803Y-96493261D01*
X118797514Y-96494089D01*
X118797517Y-96494091D01*
X118857127Y-96500500D01*
X119952872Y-96500499D01*
X120000759Y-96495351D01*
X120020197Y-96493262D01*
X120020311Y-96494330D01*
X120059688Y-96494329D01*
X120059803Y-96493261D01*
X120067514Y-96494089D01*
X120067517Y-96494091D01*
X120127127Y-96500500D01*
X121222872Y-96500499D01*
X121270759Y-96495351D01*
X121290197Y-96493262D01*
X121290311Y-96494330D01*
X121329688Y-96494329D01*
X121329803Y-96493261D01*
X121337514Y-96494089D01*
X121337517Y-96494091D01*
X121397127Y-96500500D01*
X122492872Y-96500499D01*
X122540759Y-96495351D01*
X122560197Y-96493262D01*
X122560311Y-96494330D01*
X122599688Y-96494329D01*
X122599803Y-96493261D01*
X122607514Y-96494089D01*
X122607517Y-96494091D01*
X122667127Y-96500500D01*
X123762872Y-96500499D01*
X123822483Y-96494091D01*
X123957331Y-96443796D01*
X124072546Y-96357546D01*
X124158796Y-96242331D01*
X124209091Y-96107483D01*
X124215500Y-96047873D01*
X124215499Y-94952128D01*
X124209091Y-94892517D01*
X124158884Y-94757906D01*
X124158797Y-94757671D01*
X124158793Y-94757664D01*
X124072547Y-94642455D01*
X124072544Y-94642452D01*
X123957335Y-94556206D01*
X123957328Y-94556202D01*
X123822482Y-94505908D01*
X123822483Y-94505908D01*
X123762883Y-94499501D01*
X123762881Y-94499500D01*
X123762873Y-94499500D01*
X123762864Y-94499500D01*
X122667129Y-94499500D01*
X122667123Y-94499501D01*
X122599804Y-94506738D01*
X122599690Y-94505674D01*
X122560310Y-94505674D01*
X122560196Y-94506738D01*
X122492883Y-94499501D01*
X122492881Y-94499500D01*
X122492873Y-94499500D01*
X122492864Y-94499500D01*
X121397129Y-94499500D01*
X121397123Y-94499501D01*
X121329804Y-94506738D01*
X121329690Y-94505674D01*
X121290310Y-94505674D01*
X121290196Y-94506738D01*
X121222883Y-94499501D01*
X121222881Y-94499500D01*
X121222873Y-94499500D01*
X121222864Y-94499500D01*
X120127129Y-94499500D01*
X120127123Y-94499501D01*
X120059804Y-94506738D01*
X120059690Y-94505674D01*
X120020310Y-94505674D01*
X120020196Y-94506738D01*
X119952883Y-94499501D01*
X119952881Y-94499500D01*
X119952873Y-94499500D01*
X119952864Y-94499500D01*
X118857129Y-94499500D01*
X118857123Y-94499501D01*
X118789804Y-94506738D01*
X118789690Y-94505674D01*
X118750310Y-94505674D01*
X118750196Y-94506738D01*
X118682883Y-94499501D01*
X118682881Y-94499500D01*
X118682873Y-94499500D01*
X118682864Y-94499500D01*
X117587129Y-94499500D01*
X117587123Y-94499501D01*
X117519804Y-94506738D01*
X117519690Y-94505674D01*
X117480310Y-94505674D01*
X117480196Y-94506738D01*
X117412883Y-94499501D01*
X117412881Y-94499500D01*
X117412873Y-94499500D01*
X117412864Y-94499500D01*
X116317129Y-94499500D01*
X116317123Y-94499501D01*
X116257516Y-94505908D01*
X116122671Y-94556202D01*
X116122664Y-94556206D01*
X116007455Y-94642452D01*
X116007452Y-94642455D01*
X115921206Y-94757664D01*
X115921202Y-94757671D01*
X115870908Y-94892517D01*
X115864501Y-94952116D01*
X115864501Y-94952123D01*
X115864500Y-94952135D01*
X115864500Y-96047870D01*
X115864501Y-96047876D01*
X115870908Y-96107483D01*
X115921202Y-96242328D01*
X115921206Y-96242335D01*
X115990358Y-96334709D01*
X116007454Y-96357546D01*
X116095105Y-96423161D01*
X116136975Y-96479094D01*
X116141959Y-96548786D01*
X116130000Y-96570687D01*
X116130000Y-97526000D01*
X116110315Y-97593039D01*
X116057511Y-97638794D01*
X116006000Y-97650000D01*
X115824500Y-97650000D01*
X115757461Y-97630315D01*
X115711706Y-97577511D01*
X115700500Y-97526000D01*
X115700500Y-97165308D01*
X115697643Y-97129008D01*
X115697642Y-97129002D01*
X115652495Y-96973608D01*
X115652492Y-96973600D01*
X115647266Y-96964763D01*
X115630000Y-96901645D01*
X115630000Y-96595494D01*
X115629998Y-96595493D01*
X115483809Y-96637965D01*
X115483806Y-96637967D01*
X115463608Y-96649912D01*
X115395884Y-96667092D01*
X115337370Y-96649910D01*
X115316397Y-96637507D01*
X115316390Y-96637503D01*
X115188683Y-96600401D01*
X115129797Y-96562795D01*
X115100591Y-96499322D01*
X115110337Y-96430135D01*
X115148967Y-96382058D01*
X115182191Y-96357186D01*
X115268350Y-96242093D01*
X115268354Y-96242086D01*
X115318596Y-96107379D01*
X115318598Y-96107372D01*
X115324999Y-96047844D01*
X115325000Y-96047827D01*
X115325000Y-95750000D01*
X114539483Y-95750000D01*
X114610801Y-95665007D01*
X114650000Y-95557306D01*
X114650000Y-95442694D01*
X114610801Y-95334993D01*
X114537129Y-95247195D01*
X114437871Y-95189888D01*
X114353436Y-95175000D01*
X114296564Y-95175000D01*
X114212129Y-95189888D01*
X114112871Y-95247195D01*
X114075000Y-95292327D01*
X114075000Y-94500000D01*
X114575000Y-94500000D01*
X114575000Y-95250000D01*
X115325000Y-95250000D01*
X115325000Y-94952172D01*
X115324999Y-94952155D01*
X115318598Y-94892627D01*
X115318596Y-94892620D01*
X115268354Y-94757913D01*
X115268350Y-94757906D01*
X115182190Y-94642812D01*
X115182187Y-94642809D01*
X115067093Y-94556649D01*
X115067086Y-94556645D01*
X114932379Y-94506403D01*
X114932372Y-94506401D01*
X114872844Y-94500000D01*
X114575000Y-94500000D01*
X114075000Y-94500000D01*
X113777157Y-94500000D01*
X113709915Y-94507231D01*
X113709775Y-94505936D01*
X113670281Y-94505935D01*
X113670195Y-94506738D01*
X113662726Y-94505935D01*
X113662596Y-94505935D01*
X113662487Y-94505909D01*
X113602883Y-94499501D01*
X113602881Y-94499500D01*
X113602873Y-94499500D01*
X113602864Y-94499500D01*
X112507129Y-94499500D01*
X112507123Y-94499501D01*
X112439804Y-94506738D01*
X112439690Y-94505674D01*
X112400310Y-94505674D01*
X112400196Y-94506738D01*
X112332883Y-94499501D01*
X112332881Y-94499500D01*
X112332873Y-94499500D01*
X112332864Y-94499500D01*
X111237129Y-94499500D01*
X111237123Y-94499501D01*
X111177516Y-94505908D01*
X111042671Y-94556202D01*
X111042664Y-94556206D01*
X110927455Y-94642452D01*
X110927452Y-94642455D01*
X110841206Y-94757664D01*
X110841202Y-94757671D01*
X110790908Y-94892517D01*
X110784501Y-94952116D01*
X110784501Y-94952123D01*
X110784500Y-94952135D01*
X110784500Y-96047870D01*
X110784501Y-96047876D01*
X110790908Y-96107483D01*
X110841202Y-96242328D01*
X110841206Y-96242335D01*
X110927452Y-96357544D01*
X110927453Y-96357544D01*
X110927454Y-96357546D01*
X110954148Y-96377529D01*
X110961130Y-96382756D01*
X111003000Y-96438690D01*
X111007984Y-96508382D01*
X110974498Y-96569705D01*
X110961271Y-96581182D01*
X110940000Y-96597153D01*
X110940000Y-97152025D01*
X110939809Y-97156889D01*
X110939500Y-97160819D01*
X110939500Y-97366620D01*
X110939501Y-97536000D01*
X110919817Y-97603039D01*
X110867013Y-97648794D01*
X110815501Y-97660000D01*
X110564000Y-97660000D01*
X110496961Y-97640315D01*
X110451206Y-97587511D01*
X110440000Y-97536000D01*
X110440000Y-96597154D01*
X110439998Y-96597153D01*
X110300811Y-96637591D01*
X110300808Y-96637593D01*
X110197621Y-96698618D01*
X110129897Y-96715801D01*
X110063634Y-96693641D01*
X110019871Y-96639175D01*
X110010500Y-96591886D01*
X110010500Y-95002706D01*
X110010736Y-94997300D01*
X110014686Y-94952155D01*
X110024587Y-94838978D01*
X110028338Y-94817704D01*
X110067367Y-94672044D01*
X110074759Y-94651738D01*
X110138483Y-94515081D01*
X110149289Y-94496366D01*
X110235779Y-94372845D01*
X110249667Y-94356293D01*
X110356293Y-94249667D01*
X110372845Y-94235779D01*
X110496366Y-94149289D01*
X110515081Y-94138483D01*
X110651740Y-94074758D01*
X110672044Y-94067367D01*
X110817704Y-94028338D01*
X110838978Y-94024587D01*
X110997305Y-94010735D01*
X111002706Y-94010500D01*
X111003412Y-94010500D01*
X123996588Y-94010500D01*
X123997294Y-94010500D01*
X124002694Y-94010735D01*
G37*
%TD.AperFunction*%
%TD*%
M02*
