%TF.GenerationSoftware,KiCad,Pcbnew,7.0.9-7.0.9~ubuntu22.04.1*%
%TF.CreationDate,2023-12-31T14:54:58+00:00*%
%TF.ProjectId,IMU_BNO085,494d555f-424e-44f3-9038-352e6b696361,rev?*%
%TF.SameCoordinates,Original*%
%TF.FileFunction,Copper,L2,Inr*%
%TF.FilePolarity,Positive*%
%FSLAX46Y46*%
G04 Gerber Fmt 4.6, Leading zero omitted, Abs format (unit mm)*
G04 Created by KiCad (PCBNEW 7.0.9-7.0.9~ubuntu22.04.1) date 2023-12-31 14:54:58*
%MOMM*%
%LPD*%
G01*
G04 APERTURE LIST*
%TA.AperFunction,ComponentPad*%
%ADD10R,1.000000X1.000000*%
%TD*%
%TA.AperFunction,ViaPad*%
%ADD11C,0.400000*%
%TD*%
G04 APERTURE END LIST*
D10*
%TO.N,unconnected-(J10-Pin_1-Pad1)*%
%TO.C,J10*%
X123215000Y-95500000D03*
%TD*%
%TO.N,GND*%
%TO.C,J19*%
X118995000Y-102000000D03*
%TD*%
%TO.N,unconnected-(J17-Pin_1-Pad1)*%
%TO.C,J17*%
X118135000Y-95500000D03*
%TD*%
%TO.N,unconnected-(J9-Pin_1-Pad1)*%
%TO.C,J9*%
X121535000Y-103270000D03*
%TD*%
%TO.N,unconnected-(J12-Pin_1-Pad1)*%
%TO.C,J12*%
X120265000Y-103270000D03*
%TD*%
%TO.N,unconnected-(J6-Pin_1-Pad1)*%
%TO.C,J6*%
X121535000Y-102000000D03*
%TD*%
%TO.N,unconnected-(J8-Pin_1-Pad1)*%
%TO.C,J8*%
X124075000Y-102000000D03*
%TD*%
%TO.N,unconnected-(J18-Pin_1-Pad1)*%
%TO.C,J18*%
X119405000Y-95500000D03*
%TD*%
%TO.N,unconnected-(J5-Pin_1-Pad1)*%
%TO.C,J5*%
X120265000Y-102000000D03*
%TD*%
%TO.N,+3.3V*%
%TO.C,J1*%
X113055000Y-95500000D03*
%TD*%
%TO.N,GND*%
%TO.C,J4*%
X114325000Y-95500000D03*
%TD*%
%TO.N,unconnected-(J15-Pin_1-Pad1)*%
%TO.C,J15*%
X111785000Y-95500000D03*
%TD*%
%TO.N,unconnected-(J11-Pin_1-Pad1)*%
%TO.C,J11*%
X118995000Y-103270000D03*
%TD*%
%TO.N,unconnected-(J16-Pin_1-Pad1)*%
%TO.C,J16*%
X116865000Y-95500000D03*
%TD*%
%TO.N,unconnected-(J7-Pin_1-Pad1)*%
%TO.C,J7*%
X122805000Y-102000000D03*
%TD*%
%TO.N,unconnected-(J13-Pin_1-Pad1)*%
%TO.C,J13*%
X120675000Y-95500000D03*
%TD*%
%TO.N,/SDA*%
%TO.C,J2*%
X124075000Y-103270000D03*
%TD*%
%TO.N,unconnected-(J14-Pin_1-Pad1)*%
%TO.C,J14*%
X121945000Y-95500000D03*
%TD*%
%TO.N,/SCL*%
%TO.C,J3*%
X122805000Y-103270000D03*
%TD*%
D11*
%TO.N,/PS1*%
X113300000Y-99600000D03*
%TO.N,/PS0*%
X111700000Y-98200000D03*
%TO.N,/I2C_ADD*%
X112500000Y-104000000D03*
%TO.N,/nRESET*%
X111485000Y-102625000D03*
%TO.N,GND*%
X114000000Y-101000000D03*
X114000000Y-102000000D03*
%TO.N,+3.3V*%
X116800000Y-101800000D03*
X114800000Y-104000000D03*
X114000000Y-99600000D03*
X110500000Y-101700000D03*
%TO.N,/SDA*%
X117700000Y-104100000D03*
%TD*%
%TA.AperFunction,Conductor*%
%TO.N,GND*%
G36*
X124002694Y-94010735D02*
G01*
X124161019Y-94024587D01*
X124182297Y-94028338D01*
X124327951Y-94067366D01*
X124348261Y-94074759D01*
X124484915Y-94138482D01*
X124503633Y-94149289D01*
X124627154Y-94235779D01*
X124643712Y-94249673D01*
X124750326Y-94356287D01*
X124764220Y-94372845D01*
X124850710Y-94496366D01*
X124861517Y-94515084D01*
X124925240Y-94651738D01*
X124932633Y-94672049D01*
X124971659Y-94817696D01*
X124975412Y-94838982D01*
X124989264Y-94997300D01*
X124989500Y-95002706D01*
X124989500Y-100941825D01*
X124969815Y-101008864D01*
X124917011Y-101054619D01*
X124847853Y-101064563D01*
X124822167Y-101058007D01*
X124682482Y-101005908D01*
X124682483Y-101005908D01*
X124622883Y-100999501D01*
X124622881Y-100999500D01*
X124622873Y-100999500D01*
X124622864Y-100999500D01*
X123527129Y-100999500D01*
X123527123Y-100999501D01*
X123459804Y-101006738D01*
X123459690Y-101005674D01*
X123420310Y-101005674D01*
X123420196Y-101006738D01*
X123352883Y-100999501D01*
X123352881Y-100999500D01*
X123352873Y-100999500D01*
X123352864Y-100999500D01*
X122257129Y-100999500D01*
X122257123Y-100999501D01*
X122189804Y-101006738D01*
X122189690Y-101005674D01*
X122150310Y-101005674D01*
X122150196Y-101006738D01*
X122082883Y-100999501D01*
X122082881Y-100999500D01*
X122082873Y-100999500D01*
X122082864Y-100999500D01*
X120987129Y-100999500D01*
X120987123Y-100999501D01*
X120919804Y-101006738D01*
X120919690Y-101005674D01*
X120880310Y-101005674D01*
X120880196Y-101006738D01*
X120812883Y-100999501D01*
X120812881Y-100999500D01*
X120812873Y-100999500D01*
X120812864Y-100999500D01*
X119717129Y-100999500D01*
X119717125Y-100999501D01*
X119657510Y-101005909D01*
X119657412Y-101005933D01*
X119657294Y-101005933D01*
X119649806Y-101006738D01*
X119649719Y-101005933D01*
X119610226Y-101005935D01*
X119610087Y-101007231D01*
X119542844Y-101000000D01*
X119245000Y-101000000D01*
X119245000Y-101792327D01*
X119207129Y-101747195D01*
X119107871Y-101689888D01*
X119023436Y-101675000D01*
X118966564Y-101675000D01*
X118882129Y-101689888D01*
X118782871Y-101747195D01*
X118709199Y-101834993D01*
X118670000Y-101942694D01*
X118670000Y-102057306D01*
X118709199Y-102165007D01*
X118780517Y-102250000D01*
X117995000Y-102250000D01*
X117995000Y-102547844D01*
X118002231Y-102615087D01*
X118000935Y-102615226D01*
X118000935Y-102654718D01*
X118001738Y-102654805D01*
X118000935Y-102662273D01*
X118000935Y-102662404D01*
X118000909Y-102662512D01*
X117994501Y-102722116D01*
X117994500Y-102722135D01*
X117994500Y-103292848D01*
X117974815Y-103359887D01*
X117922011Y-103405642D01*
X117852853Y-103415586D01*
X117840827Y-103413245D01*
X117785059Y-103399500D01*
X117785056Y-103399500D01*
X117614944Y-103399500D01*
X117449773Y-103440210D01*
X117299150Y-103519263D01*
X117171816Y-103632072D01*
X117075182Y-103772068D01*
X117014860Y-103931125D01*
X117014859Y-103931130D01*
X116994355Y-104100000D01*
X117014859Y-104268869D01*
X117014860Y-104268874D01*
X117075182Y-104427931D01*
X117123060Y-104497293D01*
X117171817Y-104567929D01*
X117275506Y-104659789D01*
X117299150Y-104680736D01*
X117449773Y-104759789D01*
X117449775Y-104759790D01*
X117614944Y-104800500D01*
X117785056Y-104800500D01*
X117950225Y-104759790D01*
X118029692Y-104718081D01*
X118100849Y-104680736D01*
X118100850Y-104680734D01*
X118100852Y-104680734D01*
X118228183Y-104567929D01*
X118324818Y-104427930D01*
X118354173Y-104350525D01*
X118396347Y-104294826D01*
X118461945Y-104270768D01*
X118470083Y-104270499D01*
X119542872Y-104270499D01*
X119590759Y-104265351D01*
X119610197Y-104263262D01*
X119610311Y-104264330D01*
X119649688Y-104264329D01*
X119649803Y-104263261D01*
X119657514Y-104264089D01*
X119657517Y-104264091D01*
X119717127Y-104270500D01*
X120812872Y-104270499D01*
X120860759Y-104265351D01*
X120880197Y-104263262D01*
X120880311Y-104264330D01*
X120919688Y-104264329D01*
X120919803Y-104263261D01*
X120927514Y-104264089D01*
X120927517Y-104264091D01*
X120987127Y-104270500D01*
X122082872Y-104270499D01*
X122130759Y-104265351D01*
X122150197Y-104263262D01*
X122150311Y-104264330D01*
X122189688Y-104264329D01*
X122189803Y-104263261D01*
X122197514Y-104264089D01*
X122197517Y-104264091D01*
X122257127Y-104270500D01*
X123352872Y-104270499D01*
X123400759Y-104265351D01*
X123420197Y-104263262D01*
X123420311Y-104264330D01*
X123459688Y-104264329D01*
X123459803Y-104263261D01*
X123467514Y-104264089D01*
X123467517Y-104264091D01*
X123527127Y-104270500D01*
X124622872Y-104270499D01*
X124682483Y-104264091D01*
X124817331Y-104213796D01*
X124817331Y-104213795D01*
X124822167Y-104211992D01*
X124891858Y-104207008D01*
X124953181Y-104240493D01*
X124986666Y-104301816D01*
X124989500Y-104328174D01*
X124989500Y-104497293D01*
X124989264Y-104502699D01*
X124975412Y-104661017D01*
X124971659Y-104682303D01*
X124932633Y-104827950D01*
X124925240Y-104848261D01*
X124861517Y-104984915D01*
X124850710Y-105003633D01*
X124764220Y-105127154D01*
X124750326Y-105143712D01*
X124643712Y-105250326D01*
X124627154Y-105264220D01*
X124503633Y-105350710D01*
X124484915Y-105361517D01*
X124348261Y-105425240D01*
X124327950Y-105432633D01*
X124182303Y-105471659D01*
X124161017Y-105475412D01*
X124045988Y-105485476D01*
X124002694Y-105489264D01*
X123997294Y-105489500D01*
X111002706Y-105489500D01*
X110997305Y-105489264D01*
X110948822Y-105485022D01*
X110838982Y-105475412D01*
X110817696Y-105471659D01*
X110672049Y-105432633D01*
X110651738Y-105425240D01*
X110515084Y-105361517D01*
X110496366Y-105350710D01*
X110372845Y-105264220D01*
X110356287Y-105250326D01*
X110249673Y-105143712D01*
X110235779Y-105127154D01*
X110149289Y-105003633D01*
X110138482Y-104984915D01*
X110074759Y-104848261D01*
X110067366Y-104827950D01*
X110060011Y-104800500D01*
X110028338Y-104682297D01*
X110024587Y-104661016D01*
X110017563Y-104580736D01*
X110010735Y-104502695D01*
X110010500Y-104497293D01*
X110010500Y-104000000D01*
X111794355Y-104000000D01*
X111814859Y-104168869D01*
X111814860Y-104168874D01*
X111875182Y-104327931D01*
X111937475Y-104418177D01*
X111971817Y-104467929D01*
X112077505Y-104561560D01*
X112099150Y-104580736D01*
X112249773Y-104659789D01*
X112249775Y-104659790D01*
X112414944Y-104700500D01*
X112585056Y-104700500D01*
X112750225Y-104659790D01*
X112829692Y-104618081D01*
X112900849Y-104580736D01*
X112900850Y-104580734D01*
X112900852Y-104580734D01*
X113028183Y-104467929D01*
X113124818Y-104327930D01*
X113185140Y-104168872D01*
X113205645Y-104000000D01*
X114094355Y-104000000D01*
X114114859Y-104168869D01*
X114114860Y-104168874D01*
X114175182Y-104327931D01*
X114237475Y-104418177D01*
X114271817Y-104467929D01*
X114377505Y-104561560D01*
X114399150Y-104580736D01*
X114549773Y-104659789D01*
X114549775Y-104659790D01*
X114714944Y-104700500D01*
X114885056Y-104700500D01*
X115050225Y-104659790D01*
X115129692Y-104618081D01*
X115200849Y-104580736D01*
X115200850Y-104580734D01*
X115200852Y-104580734D01*
X115328183Y-104467929D01*
X115424818Y-104327930D01*
X115485140Y-104168872D01*
X115505645Y-104000000D01*
X115485140Y-103831128D01*
X115424818Y-103672070D01*
X115397208Y-103632071D01*
X115390476Y-103622318D01*
X115328183Y-103532071D01*
X115200852Y-103419266D01*
X115200849Y-103419263D01*
X115050226Y-103340210D01*
X114885056Y-103299500D01*
X114714944Y-103299500D01*
X114549773Y-103340210D01*
X114399150Y-103419263D01*
X114271816Y-103532072D01*
X114175182Y-103672068D01*
X114114860Y-103831125D01*
X114114859Y-103831130D01*
X114094355Y-104000000D01*
X113205645Y-104000000D01*
X113185140Y-103831128D01*
X113124818Y-103672070D01*
X113097208Y-103632071D01*
X113090476Y-103622318D01*
X113028183Y-103532071D01*
X112900852Y-103419266D01*
X112900849Y-103419263D01*
X112750226Y-103340210D01*
X112585056Y-103299500D01*
X112414944Y-103299500D01*
X112249773Y-103340210D01*
X112099150Y-103419263D01*
X111971816Y-103532072D01*
X111875182Y-103672068D01*
X111814860Y-103831125D01*
X111814859Y-103831130D01*
X111794355Y-104000000D01*
X110010500Y-104000000D01*
X110010500Y-102439329D01*
X110030185Y-102372290D01*
X110082989Y-102326535D01*
X110152147Y-102316591D01*
X110192123Y-102329531D01*
X110249775Y-102359790D01*
X110414944Y-102400500D01*
X110585056Y-102400500D01*
X110639024Y-102387198D01*
X110708826Y-102390267D01*
X110765888Y-102430587D01*
X110792094Y-102495356D01*
X110791795Y-102522541D01*
X110779355Y-102624999D01*
X110799859Y-102793869D01*
X110799860Y-102793874D01*
X110860182Y-102952931D01*
X110922475Y-103043177D01*
X110956817Y-103092929D01*
X111062505Y-103186560D01*
X111084150Y-103205736D01*
X111234773Y-103284789D01*
X111234775Y-103284790D01*
X111399944Y-103325500D01*
X111570056Y-103325500D01*
X111735225Y-103284790D01*
X111814692Y-103243081D01*
X111885849Y-103205736D01*
X111885850Y-103205734D01*
X111885852Y-103205734D01*
X112013183Y-103092929D01*
X112109818Y-102952930D01*
X112170140Y-102793872D01*
X112190645Y-102625000D01*
X112170140Y-102456128D01*
X112109818Y-102297070D01*
X112090788Y-102269501D01*
X112069593Y-102238794D01*
X112013183Y-102157071D01*
X111885852Y-102044266D01*
X111885849Y-102044263D01*
X111735226Y-101965210D01*
X111570056Y-101924500D01*
X111399944Y-101924500D01*
X111345975Y-101937802D01*
X111276172Y-101934733D01*
X111219110Y-101894413D01*
X111192905Y-101829643D01*
X111193204Y-101802458D01*
X111193502Y-101800000D01*
X116094355Y-101800000D01*
X116114859Y-101968869D01*
X116114860Y-101968874D01*
X116175182Y-102127931D01*
X116237475Y-102218177D01*
X116271817Y-102267929D01*
X116337970Y-102326535D01*
X116399150Y-102380736D01*
X116549773Y-102459789D01*
X116549775Y-102459790D01*
X116714944Y-102500500D01*
X116885056Y-102500500D01*
X117050225Y-102459790D01*
X117140415Y-102412454D01*
X117200849Y-102380736D01*
X117200850Y-102380734D01*
X117200852Y-102380734D01*
X117328183Y-102267929D01*
X117424818Y-102127930D01*
X117485140Y-101968872D01*
X117505645Y-101800000D01*
X117499574Y-101750000D01*
X117995000Y-101750000D01*
X118745000Y-101750000D01*
X118745000Y-101000000D01*
X118447155Y-101000000D01*
X118387627Y-101006401D01*
X118387620Y-101006403D01*
X118252913Y-101056645D01*
X118252906Y-101056649D01*
X118137812Y-101142809D01*
X118137809Y-101142812D01*
X118051649Y-101257906D01*
X118051645Y-101257913D01*
X118001403Y-101392620D01*
X118001401Y-101392627D01*
X117995000Y-101452155D01*
X117995000Y-101750000D01*
X117499574Y-101750000D01*
X117485140Y-101631128D01*
X117424818Y-101472070D01*
X117328183Y-101332071D01*
X117200852Y-101219266D01*
X117200849Y-101219263D01*
X117050226Y-101140210D01*
X116885056Y-101099500D01*
X116714944Y-101099500D01*
X116549773Y-101140210D01*
X116399150Y-101219263D01*
X116271816Y-101332072D01*
X116175182Y-101472068D01*
X116114860Y-101631125D01*
X116114859Y-101631130D01*
X116094355Y-101800000D01*
X111193502Y-101800000D01*
X111205645Y-101700000D01*
X111185140Y-101531128D01*
X111124818Y-101372070D01*
X111097208Y-101332071D01*
X111090476Y-101322318D01*
X111028183Y-101232071D01*
X110900852Y-101119266D01*
X110900849Y-101119263D01*
X110750226Y-101040210D01*
X110585056Y-100999500D01*
X110414944Y-100999500D01*
X110249776Y-101040209D01*
X110192126Y-101070467D01*
X110123617Y-101084192D01*
X110058564Y-101058699D01*
X110017620Y-101002083D01*
X110010500Y-100960670D01*
X110010500Y-99600000D01*
X112594355Y-99600000D01*
X112614859Y-99768869D01*
X112614860Y-99768874D01*
X112675182Y-99927931D01*
X112737475Y-100018177D01*
X112771817Y-100067929D01*
X112877505Y-100161560D01*
X112899150Y-100180736D01*
X113049773Y-100259789D01*
X113049775Y-100259790D01*
X113214944Y-100300500D01*
X113385056Y-100300500D01*
X113550225Y-100259790D01*
X113592374Y-100237667D01*
X113660881Y-100223942D01*
X113707624Y-100237667D01*
X113749775Y-100259790D01*
X113914944Y-100300500D01*
X114085056Y-100300500D01*
X114250225Y-100259790D01*
X114350001Y-100207423D01*
X114400849Y-100180736D01*
X114400850Y-100180734D01*
X114400852Y-100180734D01*
X114528183Y-100067929D01*
X114624818Y-99927930D01*
X114685140Y-99768872D01*
X114705645Y-99600000D01*
X114685140Y-99431128D01*
X114624818Y-99272070D01*
X114528183Y-99132071D01*
X114400852Y-99019266D01*
X114400849Y-99019263D01*
X114250226Y-98940210D01*
X114085056Y-98899500D01*
X113914944Y-98899500D01*
X113749776Y-98940209D01*
X113707625Y-98962332D01*
X113639116Y-98976056D01*
X113592375Y-98962332D01*
X113550223Y-98940209D01*
X113385056Y-98899500D01*
X113214944Y-98899500D01*
X113049773Y-98940210D01*
X112899150Y-99019263D01*
X112771816Y-99132072D01*
X112675182Y-99272068D01*
X112614860Y-99431125D01*
X112614859Y-99431130D01*
X112594355Y-99600000D01*
X110010500Y-99600000D01*
X110010500Y-98200000D01*
X110994355Y-98200000D01*
X111014859Y-98368869D01*
X111014860Y-98368874D01*
X111075182Y-98527931D01*
X111137475Y-98618177D01*
X111171817Y-98667929D01*
X111277505Y-98761560D01*
X111299150Y-98780736D01*
X111449773Y-98859789D01*
X111449775Y-98859790D01*
X111614944Y-98900500D01*
X111785056Y-98900500D01*
X111950225Y-98859790D01*
X112029692Y-98818081D01*
X112100849Y-98780736D01*
X112100850Y-98780734D01*
X112100852Y-98780734D01*
X112228183Y-98667929D01*
X112324818Y-98527930D01*
X112385140Y-98368872D01*
X112405645Y-98200000D01*
X112385140Y-98031128D01*
X112324818Y-97872070D01*
X112228183Y-97732071D01*
X112100852Y-97619266D01*
X112100849Y-97619263D01*
X111950226Y-97540210D01*
X111785056Y-97499500D01*
X111614944Y-97499500D01*
X111449773Y-97540210D01*
X111299150Y-97619263D01*
X111171816Y-97732072D01*
X111075182Y-97872068D01*
X111014860Y-98031125D01*
X111014859Y-98031130D01*
X110994355Y-98200000D01*
X110010500Y-98200000D01*
X110010500Y-96047870D01*
X110784500Y-96047870D01*
X110784501Y-96047876D01*
X110790908Y-96107483D01*
X110841202Y-96242328D01*
X110841206Y-96242335D01*
X110927452Y-96357544D01*
X110927455Y-96357547D01*
X111042664Y-96443793D01*
X111042671Y-96443797D01*
X111177517Y-96494091D01*
X111177516Y-96494091D01*
X111184444Y-96494835D01*
X111237127Y-96500500D01*
X112332872Y-96500499D01*
X112380759Y-96495351D01*
X112400197Y-96493262D01*
X112400311Y-96494330D01*
X112439688Y-96494329D01*
X112439803Y-96493261D01*
X112447514Y-96494089D01*
X112447517Y-96494091D01*
X112507127Y-96500500D01*
X113602872Y-96500499D01*
X113662483Y-96494091D01*
X113662490Y-96494088D01*
X113662566Y-96494071D01*
X113662671Y-96494070D01*
X113670197Y-96493262D01*
X113670283Y-96494070D01*
X113709772Y-96494069D01*
X113709912Y-96492769D01*
X113777155Y-96499999D01*
X113777172Y-96500000D01*
X114075000Y-96500000D01*
X114075000Y-95707672D01*
X114112871Y-95752805D01*
X114212129Y-95810112D01*
X114296564Y-95825000D01*
X114353436Y-95825000D01*
X114437871Y-95810112D01*
X114537129Y-95752805D01*
X114539483Y-95750000D01*
X114575000Y-95750000D01*
X114575000Y-96500000D01*
X114872828Y-96500000D01*
X114872844Y-96499999D01*
X114932372Y-96493598D01*
X114932379Y-96493596D01*
X115067086Y-96443354D01*
X115067093Y-96443350D01*
X115182187Y-96357190D01*
X115182190Y-96357187D01*
X115268350Y-96242093D01*
X115268354Y-96242086D01*
X115318596Y-96107379D01*
X115318598Y-96107372D01*
X115324996Y-96047870D01*
X115864500Y-96047870D01*
X115864501Y-96047876D01*
X115870908Y-96107483D01*
X115921202Y-96242328D01*
X115921206Y-96242335D01*
X116007452Y-96357544D01*
X116007455Y-96357547D01*
X116122664Y-96443793D01*
X116122671Y-96443797D01*
X116257517Y-96494091D01*
X116257516Y-96494091D01*
X116264444Y-96494835D01*
X116317127Y-96500500D01*
X117412872Y-96500499D01*
X117460759Y-96495351D01*
X117480197Y-96493262D01*
X117480311Y-96494330D01*
X117519688Y-96494329D01*
X117519803Y-96493261D01*
X117527514Y-96494089D01*
X117527517Y-96494091D01*
X117587127Y-96500500D01*
X118682872Y-96500499D01*
X118730759Y-96495351D01*
X118750197Y-96493262D01*
X118750311Y-96494330D01*
X118789688Y-96494329D01*
X118789803Y-96493261D01*
X118797514Y-96494089D01*
X118797517Y-96494091D01*
X118857127Y-96500500D01*
X119952872Y-96500499D01*
X120000759Y-96495351D01*
X120020197Y-96493262D01*
X120020311Y-96494330D01*
X120059688Y-96494329D01*
X120059803Y-96493261D01*
X120067514Y-96494089D01*
X120067517Y-96494091D01*
X120127127Y-96500500D01*
X121222872Y-96500499D01*
X121270759Y-96495351D01*
X121290197Y-96493262D01*
X121290311Y-96494330D01*
X121329688Y-96494329D01*
X121329803Y-96493261D01*
X121337514Y-96494089D01*
X121337517Y-96494091D01*
X121397127Y-96500500D01*
X122492872Y-96500499D01*
X122540759Y-96495351D01*
X122560197Y-96493262D01*
X122560311Y-96494330D01*
X122599688Y-96494329D01*
X122599803Y-96493261D01*
X122607514Y-96494089D01*
X122607517Y-96494091D01*
X122667127Y-96500500D01*
X123762872Y-96500499D01*
X123822483Y-96494091D01*
X123957331Y-96443796D01*
X124072546Y-96357546D01*
X124158796Y-96242331D01*
X124209091Y-96107483D01*
X124215500Y-96047873D01*
X124215499Y-94952128D01*
X124209091Y-94892517D01*
X124158884Y-94757906D01*
X124158797Y-94757671D01*
X124158793Y-94757664D01*
X124072547Y-94642455D01*
X124072544Y-94642452D01*
X123957335Y-94556206D01*
X123957328Y-94556202D01*
X123822482Y-94505908D01*
X123822483Y-94505908D01*
X123762883Y-94499501D01*
X123762881Y-94499500D01*
X123762873Y-94499500D01*
X123762864Y-94499500D01*
X122667129Y-94499500D01*
X122667123Y-94499501D01*
X122599804Y-94506738D01*
X122599690Y-94505674D01*
X122560310Y-94505674D01*
X122560196Y-94506738D01*
X122492883Y-94499501D01*
X122492881Y-94499500D01*
X122492873Y-94499500D01*
X122492864Y-94499500D01*
X121397129Y-94499500D01*
X121397123Y-94499501D01*
X121329804Y-94506738D01*
X121329690Y-94505674D01*
X121290310Y-94505674D01*
X121290196Y-94506738D01*
X121222883Y-94499501D01*
X121222881Y-94499500D01*
X121222873Y-94499500D01*
X121222864Y-94499500D01*
X120127129Y-94499500D01*
X120127123Y-94499501D01*
X120059804Y-94506738D01*
X120059690Y-94505674D01*
X120020310Y-94505674D01*
X120020196Y-94506738D01*
X119952883Y-94499501D01*
X119952881Y-94499500D01*
X119952873Y-94499500D01*
X119952864Y-94499500D01*
X118857129Y-94499500D01*
X118857123Y-94499501D01*
X118789804Y-94506738D01*
X118789690Y-94505674D01*
X118750310Y-94505674D01*
X118750196Y-94506738D01*
X118682883Y-94499501D01*
X118682881Y-94499500D01*
X118682873Y-94499500D01*
X118682864Y-94499500D01*
X117587129Y-94499500D01*
X117587123Y-94499501D01*
X117519804Y-94506738D01*
X117519690Y-94505674D01*
X117480310Y-94505674D01*
X117480196Y-94506738D01*
X117412883Y-94499501D01*
X117412881Y-94499500D01*
X117412873Y-94499500D01*
X117412864Y-94499500D01*
X116317129Y-94499500D01*
X116317123Y-94499501D01*
X116257516Y-94505908D01*
X116122671Y-94556202D01*
X116122664Y-94556206D01*
X116007455Y-94642452D01*
X116007452Y-94642455D01*
X115921206Y-94757664D01*
X115921202Y-94757671D01*
X115870908Y-94892517D01*
X115864501Y-94952116D01*
X115864501Y-94952123D01*
X115864500Y-94952135D01*
X115864500Y-96047870D01*
X115324996Y-96047870D01*
X115324999Y-96047844D01*
X115325000Y-96047827D01*
X115325000Y-95750000D01*
X114575000Y-95750000D01*
X114539483Y-95750000D01*
X114610801Y-95665007D01*
X114650000Y-95557306D01*
X114650000Y-95442694D01*
X114610801Y-95334993D01*
X114537129Y-95247195D01*
X114437871Y-95189888D01*
X114353436Y-95175000D01*
X114296564Y-95175000D01*
X114212129Y-95189888D01*
X114112871Y-95247195D01*
X114075000Y-95292327D01*
X114075000Y-94500000D01*
X114575000Y-94500000D01*
X114575000Y-95250000D01*
X115325000Y-95250000D01*
X115325000Y-94952172D01*
X115324999Y-94952155D01*
X115318598Y-94892627D01*
X115318596Y-94892620D01*
X115268354Y-94757913D01*
X115268350Y-94757906D01*
X115182190Y-94642812D01*
X115182187Y-94642809D01*
X115067093Y-94556649D01*
X115067086Y-94556645D01*
X114932379Y-94506403D01*
X114932372Y-94506401D01*
X114872844Y-94500000D01*
X114575000Y-94500000D01*
X114075000Y-94500000D01*
X113777157Y-94500000D01*
X113709915Y-94507231D01*
X113709775Y-94505936D01*
X113670281Y-94505935D01*
X113670195Y-94506738D01*
X113662726Y-94505935D01*
X113662596Y-94505935D01*
X113662487Y-94505909D01*
X113602883Y-94499501D01*
X113602881Y-94499500D01*
X113602873Y-94499500D01*
X113602864Y-94499500D01*
X112507129Y-94499500D01*
X112507123Y-94499501D01*
X112439804Y-94506738D01*
X112439690Y-94505674D01*
X112400310Y-94505674D01*
X112400196Y-94506738D01*
X112332883Y-94499501D01*
X112332881Y-94499500D01*
X112332873Y-94499500D01*
X112332864Y-94499500D01*
X111237129Y-94499500D01*
X111237123Y-94499501D01*
X111177516Y-94505908D01*
X111042671Y-94556202D01*
X111042664Y-94556206D01*
X110927455Y-94642452D01*
X110927452Y-94642455D01*
X110841206Y-94757664D01*
X110841202Y-94757671D01*
X110790908Y-94892517D01*
X110784501Y-94952116D01*
X110784501Y-94952123D01*
X110784500Y-94952135D01*
X110784500Y-96047870D01*
X110010500Y-96047870D01*
X110010500Y-95002706D01*
X110010736Y-94997300D01*
X110014686Y-94952155D01*
X110024587Y-94838978D01*
X110028338Y-94817704D01*
X110067367Y-94672044D01*
X110074759Y-94651738D01*
X110138483Y-94515081D01*
X110149289Y-94496366D01*
X110235779Y-94372845D01*
X110249667Y-94356293D01*
X110356293Y-94249667D01*
X110372845Y-94235779D01*
X110496366Y-94149289D01*
X110515081Y-94138483D01*
X110651740Y-94074758D01*
X110672044Y-94067367D01*
X110817704Y-94028338D01*
X110838978Y-94024587D01*
X110997305Y-94010735D01*
X111002706Y-94010500D01*
X111003412Y-94010500D01*
X123996588Y-94010500D01*
X123997294Y-94010500D01*
X124002694Y-94010735D01*
G37*
%TD.AperFunction*%
%TD*%
M02*
